<?xml version="1.0" encoding="utf-8"?>
<!-- Generator: Adobe Illustrator 15.1.0, SVG Export Plug-In . SVG Version: 6.00 Build 0)  -->
<!DOCTYPE svg PUBLIC "-//W3C//DTD SVG 1.1//EN" "http://www.w3.org/Graphics/SVG/1.1/DTD/svg11.dtd">
<svg version="1.1" id="Layer_1" xmlns="http://www.w3.org/2000/svg" xmlns:xlink="http://www.w3.org/1999/xlink" x="0px" y="0px"
	 width="1017px" height="453px" viewBox="0 0 1017 453" enable-background="new 0 0 1017 453" xml:space="preserve">
<g>
	<path fill="#32526E" d="M354.07,445.198c-6.057,1.954-12.576-1.383-14.53-7.438L231.007,101.385
		c-1.953-6.055,1.386-12.578,7.442-14.531L482.936,7.969c6.056-1.954,12.578,1.387,14.531,7.441L606,351.785
		c1.954,6.057-1.387,12.575-7.442,14.528L354.07,445.198z"/>
	<polygon fill="#BBBDBF" points="575.874,354.928 345.025,421.072 252.713,98.854 483.557,32.718 	"/>
	<polygon fill="#E6E6E6" points="591.141,354.416 361.376,424.227 263.942,103.52 493.708,33.716 	"/>
	<polygon fill="#FFFFFF" points="353.497,417.861 583.483,348.801 487.088,27.778 257.102,96.85 	"/>
	<g>
		<path fill="#E74B3C" d="M386.164,32.926l-5.522,1.782c-3.448-10.686-15.999-16.203-28.02-12.324
			c-12.037,3.883-18.985,15.692-15.537,26.377l-5.525,1.783c-19.695,6.354-31.233,25.257-25.761,42.219l125.945-40.637
			C426.27,35.166,405.862,26.57,386.164,32.926z M360.633,47.211c-5.23,1.688-10.832-1.186-12.518-6.413
			c-1.685-5.22,1.183-10.819,6.414-12.507c5.221-1.685,10.827,1.181,12.512,6.4C368.727,39.919,365.854,45.527,360.633,47.211z"/>
		<path fill="#C1392B" d="M305.798,92.763l125.945-40.637l0,0c-0.471-1.46-1.058-2.869-1.753-4.201L304.761,88.331
			C304.984,89.816,305.327,91.303,305.798,92.763L305.798,92.763z"/>
	</g>
	<g>
		<path fill="#32526E" d="M827.043,248.74c0,0-13.801-66.417-17.679-81.943c-10.451-41.875-22.739-75.652-28.988-80.553
			l-2.972,0.744c-3.219,7.26,1.81,42.851,12.267,84.724c3.873,15.526,22.907,80.634,22.907,80.634
			c0.316,1.273,3.814,1.492,7.807,0.491C824.381,251.841,827.36,250.006,827.043,248.74z"/>
		<path fill="#32526E" d="M777.485,86.967l2.81-0.702l-0.518-1.115l-0.004,0.001c-0.318-1.001-1.955-2.821-1.955-2.821
			s-0.59,2.375-0.403,3.408l-0.003,0.001L777.485,86.967z"/>
		<path fill="#E74B3C" d="M827.158,248.656c1.235-0.889,4.341-5.335,4.312-6.721c-0.029-1.384,0.113-14.065-2.767-24.984
			c-2.883-10.916-8.979-28.998-10.133-29.85c-1.157-0.853-3.091,0.265-3.264,0.814c-0.179,0.55-1.84,4-1.307,4.878
			c0.535,0.879,3.047,3.35,5.305,7.971c2.26,4.624,4.358,11.356,5.737,16.291c1.739,6.2,3.712,21.054,3.398,22.225
			c-0.323,1.218-0.648,2.437-1.241,3.222c-0.596,0.773-2.524,1.255-2.524,1.255l1.314,5.267
			C825.989,249.023,826.917,248.828,827.158,248.656z"/>
		<path fill="#E74B3C" d="M792.917,184.24l19.476-4.863c0.096,0.422,0.189,0.841,0.286,1.258l-19.429,4.85
			C793.139,185.069,793.028,184.654,792.917,184.24z"/>
		<path fill="#E74B3C" d="M777.397,86.99c-1.31,2.958-1.252,10.614-0.014,21.482c0.141,1.247,0.3,2.535,0.473,3.864
			c1.811-0.105,4.05-0.461,6.443-1.06c3.071-0.767,5.747-1.774,7.472-2.739c-0.394-1.05-0.791-2.066-1.18-3.055
			c-4.063-10.33-7.653-17.224-10.223-19.236L777.397,86.99z"/>
		<path fill="#E74B3C" d="M810.88,246.383c1.952,0.014,4.697-0.354,7.623-1.085c2.924-0.73,5.517-1.697,7.231-2.642l0.078,0.36
			l1.234,5.722c0.297,1.186-2.309,2.879-5.926,3.91c-0.242,0.065-0.486,0.131-0.734,0.19c-0.254,0.061-0.498,0.127-0.741,0.178
			c-3.678,0.788-6.772,0.519-7.068-0.669L810.88,246.383z"/>
	</g>
	<g>
		<path fill="#E0E0E0" d="M640,299c-26.155,66.92-217.826,89.645-239,110c-57.827-40.355-147.095-305.627-147.095-305.627
			l234.531-73.736C488.436,29.637,550,210,640,299z"/>
		<path fill="#FFFFFF" d="M628,291c-26.155,66.92-202.827,90.645-224,111c-57.827-40.355-152.095-300.627-152.095-300.627
			l228.531-73.736C480.436,27.637,538,202,628,291z"/>
		<g>
			<g>
				<polygon fill="#808184" points="477.606,104.1 348.75,158.194 345.125,149.571 473.987,95.477 				"/>
			</g>
			<g>
				
					<rect x="360.541" y="166.161" transform="matrix(0.9221 -0.3871 0.3871 0.9221 -32.5761 179.9148)" fill="#808184" width="139.755" height="9.357"/>
			</g>
			<g>
				<polygon fill="#808184" points="518.878,188.956 390.016,243.048 386.396,234.424 515.253,180.333 				"/>
			</g>
			<g>
				
					<rect x="399.41" y="249.386" transform="matrix(0.9221 -0.3871 0.3871 0.9221 -61.7587 201.4445)" fill="#808184" width="139.753" height="9.355"/>
			</g>
			<g>
				
					<rect x="417.135" y="296.532" transform="matrix(0.9221 -0.387 0.387 0.9221 -78.6235 211.9708)" fill="#808184" width="139.754" height="9.352"/>
			</g>
			<g>
				
					<rect x="296.869" y="147.414" transform="matrix(0.9224 -0.3863 0.3863 0.9224 -39.7108 134.8623)" fill="#D8DAE5" width="37.64" height="37.639"/>
				<path fill="#2B388F" d="M304.208,194.255l-16.532-39.499l39.489-16.536l16.541,39.494L304.208,194.255z M294.452,157.533
					l12.535,29.939l29.939-12.539l-12.536-29.935L294.452,157.533z"/>
			</g>
			<g>
				
					<rect x="317.406" y="191.281" transform="matrix(0.9224 -0.3863 0.3863 0.9224 -55.064 146.2054)" fill="#D8DAE5" width="37.639" height="37.641"/>
				<path fill="#2B388F" d="M324.746,238.12l-16.539-39.499l39.5-16.533l16.537,39.492L324.746,238.12z M314.988,201.397
					l12.535,29.945l29.941-12.542l-12.536-29.938L314.988,201.397z"/>
			</g>
			<g>
				<polygon fill="#D8DAE5" points="379.942,262.782 345.229,277.323 330.691,242.603 365.412,228.062 				"/>
				<path fill="#2B388F" d="M343.84,280.713l-16.539-39.499l39.499-16.541l16.534,39.497L343.84,280.713z M334.082,243.992
					l12.537,29.939l29.937-12.537l-12.534-29.941L334.082,243.992z"/>
			</g>
			<g>
				<polygon fill="#D8DAE5" points="400.484,306.649 365.769,321.185 351.233,286.471 385.946,271.93 				"/>
				<path fill="#2B388F" d="M364.38,324.574l-16.537-39.492l39.49-16.541l16.544,39.497L364.38,324.574z M354.624,287.86
					l12.534,29.937l29.938-12.536l-12.539-29.938L354.624,287.86z"/>
			</g>
			<g>
				<polygon fill="#D8DAE5" points="419.574,349.24 384.864,363.775 370.322,329.057 405.041,314.521 				"/>
				<path fill="#2B388F" d="M383.472,367.165l-16.54-39.494l39.499-16.54l16.534,39.498L383.472,367.165z M373.712,330.447
					l12.539,29.937l29.938-12.534l-12.534-29.938L373.712,330.447z"/>
			</g>
			<g>
				<g>
					<path fill="#70B700" d="M287.589,151.997c5.513,8.98,12.638,16.021,22.999,18.884c3.257,0.905,10.725-0.846,11.745-4.675
						c4.102-15.4,2.536-31.547,6.631-46.943c1.031-3.879-12.032-1.277-13.113,2.788c-4.098,15.398-2.532,31.544-6.636,46.94
						c3.917-1.562,7.833-3.118,11.746-4.679c-9.177-2.539-15.396-8.766-20.283-16.715
						C298.282,143.697,285.779,149.055,287.589,151.997L287.589,151.997z"/>
				</g>
			</g>
			<g>
				<g>
					<path fill="#70B700" d="M331.737,245.015c5.513,8.979,12.636,16.022,22.997,18.883c3.26,0.901,10.725-0.846,11.743-4.678
						c4.101-15.397,2.538-31.542,6.635-46.939c1.032-3.879-12.032-1.278-13.115,2.787c-4.099,15.396-2.531,31.542-6.635,46.937
						c3.917-1.559,7.83-3.119,11.744-4.678c-9.179-2.534-15.396-8.766-20.279-16.715
						C342.432,236.712,329.93,242.072,331.737,245.015L331.737,245.015z"/>
				</g>
			</g>
			<g>
				<g>
					<path fill="#70B700" d="M349.462,287.69c5.516,8.977,12.64,16.02,23.003,18.885c3.258,0.901,10.723-0.847,11.742-4.68
						c4.098-15.396,2.534-31.542,6.635-46.937c1.034-3.882-12.031-1.281-13.113,2.785c-4.104,15.396-2.538,31.543-6.635,46.938
						c3.914-1.56,7.828-3.117,11.743-4.679c-9.179-2.538-15.397-8.766-20.286-16.718
						C360.158,279.388,347.652,284.747,349.462,287.69L349.462,287.69z"/>
				</g>
			</g>
		</g>
	</g>
	<g>
		<path fill="#926530" d="M879.467,201.489c0.997-4.893,5.643-8.09,10.371-7.138l118.235,23.793l-34.196,167.479l-120.382-21.511
			c-4.73-0.952-7.756-5.689-6.759-10.585L879.467,201.489z"/>
		<path fill="#FFFFFF" d="M880.233,197.738c0.997-4.894,5.642-8.09,10.372-7.138l118.234,23.791l-34.196,167.481l-120.381-21.51
			c-4.731-0.952-7.757-5.69-6.76-10.586L880.233,197.738z"/>
		<polygon fill="#333333" points="1009.875,209.093 974.644,381.873 971.049,379.665 1006.281,206.886 		"/>
		<polygon fill="#4A4A4A" points="971.051,379.667 1006.281,206.886 915.63,188.645 880.795,361.505 		"/>
		<path fill="#4A4A4A" d="M871.182,359.569l34.833-172.861l-17.97-3.615c-4.728-0.952-9.376,2.243-10.373,7.138l-31.615,155.058
			c-0.997,4.896,2.027,9.634,6.76,10.586L871.182,359.569z"/>
		<polygon fill="#E6E5E2" points="871.182,359.569 870.683,363.918 879.6,365.712 880.795,361.505 		"/>
		<polygon fill="#FFFFFF" points="871.724,359.679 880.795,361.505 915.63,188.645 906.015,186.708 871.182,359.569 		"/>
	</g>
	<g>
		<path fill="#797979" d="M160.855,237.977c0.093,0.311,0.182,0.615,0.272,0.915c0.566-0.014,1.17,0.003,1.794,0.045l-2.075-7.305
			c-0.09-0.208-0.344-0.343-0.625-0.326c-0.279,0.015-0.515,0.176-0.582,0.392l-0.823,5.071l0.289,1.016
			C159.67,237.822,160.248,237.877,160.855,237.977z"/>
		<path fill="#797979" d="M161.128,238.892c-0.09-0.3-0.18-0.604-0.272-0.915c-0.608-0.1-1.185-0.154-1.75-0.192l-0.289-1.016
			l-0.389,2.404C159.238,239.027,160.139,238.921,161.128,238.892z"/>
		<path fill="#5C5C5C" d="M178.797,328.035l0.076,0.07l1.547,26.658c0.086,1.468-0.175,2.939-0.765,4.302l-0.098,0.231
			c-0.087,3.386-0.263,5.872-0.503,6.767c-0.111,0.413-0.416,1.059-0.825,1.813l0.16,2.797c0.096,1.6-0.007,3.161-0.274,4.673
			c1.5-2.245,4.357-6.643,4.753-8.126c1.172-4.393,0.864-47.043-4.441-46.753c-1.026,0.058-1.407,1.144-1.386,2.495
			c0.288,1.008,0.544,2.193,0.777,3.513C178.1,327.132,178.435,327.694,178.797,328.035z"/>
		<path fill="#5C5C5C" d="M177.042,322.962c0.018,1.139,0.322,2.456,0.777,3.513C177.585,325.155,177.329,323.97,177.042,322.962z"
			/>
		<path fill="#5C5C5C" d="M179.054,366.063c0.24-0.895,0.416-3.381,0.503-6.767l-1.611,3.719l0.284,4.86
			C178.639,367.122,178.943,366.477,179.054,366.063z"/>
		<path fill="#FFFFFF" d="M173.125,311.589c0.024,0.225,0.045,0.45,0.069,0.678C173.171,312.039,173.149,311.813,173.125,311.589z"
			/>
		<path fill="#5D772A" d="M161.329,239.58c4.54,15.496,4.115,31.755,7.756,68.569c0.015,0.149,0.031,0.31,0.047,0.464
			c1.431,0.098,2.729,0.281,3.753,0.557c0.001,0.008,0.001,0.018,0.005,0.028c-3.751-37.946-3.169-53.084-8.221-70.069
			c-0.606-0.096-1.185-0.152-1.747-0.192l0.153,0.548L161.329,239.58z"/>
		<path fill="#FFFFFF" d="M155.303,313.115c-0.002-0.08-0.003-0.162-0.005-0.243C155.3,312.953,155.301,313.034,155.303,313.115z"/>
		<path fill="#8BC53F" d="M169.085,308.149c-3.641-36.814-3.216-53.073-7.756-68.569l-2.993,0.165l0.092-0.572
			c-0.626,0.112-1.203,0.248-1.718,0.393c-3.056,17.447-2.126,32.485-1.457,70.726c3.43-1.421,9.356-1.985,13.878-1.678
			C169.116,308.459,169.1,308.299,169.085,308.149z"/>
		<path fill="#C4E87E" d="M164.063,304.298c-2.013-29.57-1.825-42.627-4.266-55.079l-1.587,0.125l0.048-0.459
			c-0.332,0.088-0.638,0.195-0.91,0.311c-1.581,14.003-1.054,26.081-0.613,56.791c1.815-1.134,4.955-1.573,7.352-1.315
			C164.079,304.547,164.071,304.418,164.063,304.298z"/>
		<path fill="#FFFFFF" d="M161.329,239.58l1.746-0.096l-0.153-0.548c-0.624-0.042-1.228-0.059-1.794-0.045
			C161.195,239.125,161.262,239.354,161.329,239.58z"/>
		<path fill="#FFFFFF" d="M161.329,239.58c-0.067-0.227-0.134-0.455-0.201-0.688c-0.989,0.029-1.89,0.136-2.7,0.281l-0.092,0.572
			L161.329,239.58z"/>
		<path fill="#797979" d="M173.212,312.441c-0.008-0.06-0.014-0.12-0.018-0.175C173.199,312.325,173.205,312.382,173.212,312.441z"
			/>
		<path fill="#797979" d="M172.89,309.198c0.076,0.779,0.156,1.579,0.235,2.391C173.046,310.778,172.966,309.978,172.89,309.198z"/>
		<path fill="#797979" d="M155.254,310.291c0.015,0.844,0.031,1.703,0.044,2.581C155.285,311.994,155.269,311.132,155.254,310.291z"
			/>
		<path fill="#797979" d="M155.303,313.115c0.002,0.14,0.004,0.288,0.006,0.428C155.307,313.398,155.306,313.259,155.303,313.115z"
			/>
		<path fill="#797979" d="M169.132,308.613c0.059,0.605,0.121,1.216,0.182,1.841c0.021,0.212,0.043,0.423,0.063,0.639l0.02,0.194
			c0.678,0.195,1.221,0.432,1.604,0.713c0.829,0.11,1.575,0.256,2.212,0.441c-0.008-0.06-0.014-0.116-0.018-0.175
			c-0.023-0.228-0.045-0.453-0.069-0.678c-0.079-0.812-0.16-1.611-0.235-2.391c-0.004-0.011-0.004-0.021-0.005-0.028
			C171.861,308.895,170.563,308.711,169.132,308.613z"/>
		<path fill="#797979" d="M171,312c-0.383-0.281-0.926-0.518-1.604-0.713l-0.02-0.194c-0.02-0.216-0.042-0.427-0.063-0.639
			c-0.062-0.625-0.123-1.235-0.182-1.841c-4.521-0.308-10.448,0.257-13.878,1.678c0.015,0.841,0.031,1.703,0.044,2.581
			c0.002,0.081,0.003,0.163,0.005,0.243c0.002,0.144,0.004,0.283,0.006,0.428C159.179,311.905,166.345,311.377,171,312z"/>
		<path fill="#5D772A" d="M171.408,314.957l2.724,46.905l1.708-3.951c0.59-1.36,0.851-2.833,0.767-4.307l-1.55-26.651l-0.075-0.072
			c-1.637-1.55-2.793-7.434-0.366-7.57c0.285-0.012,0.554,0.103,0.812,0.322l-0.365-6.283c-0.372-0.367-1.016-0.668-1.85-0.908
			c0.078,0.79,0.158,1.583,0.24,2.403L171.408,314.957z"/>
		<path fill="#5D772A" d="M176.827,370.273c-0.884,1.434-1.845,2.896-2.525,3.918c-1.442,8.18-7.86,14.839-16.288,16.744
			l0.098,1.672c10.213-0.556,18.356-7.912,20.004-17.262c-0.547,0.819-0.913,1.354-0.913,1.354L176.827,370.273z"/>
		<path fill="#8BC53F" d="M174.616,319.311c-2.428,0.137-1.271,6.021,0.366,7.57l0.075,0.072l1.55,26.651
			c0.084,1.474-0.177,2.946-0.767,4.307l-1.708,3.951l-2.724-46.905l-16.061,0.879c-0.015-0.78-0.024-1.539-0.039-2.293
			c-0.693,0.293-1.288,0.62-1.734,0.985l4.439,76.407c8.428-1.905,14.845-8.564,16.288-16.744c0.68-1.021,1.642-2.484,2.525-3.918
			l-0.238-4.116l1.357-3.142l-2.519-43.383C175.17,319.413,174.901,319.299,174.616,319.311z"/>
		<path fill="#C4E87E" d="M167.281,357.252l-1.001-19.137c-0.656-5.41-1.327-10.859-0.845-16.157l-0.189-3.612l-5.149,0.604
			c-0.205,0.189-0.463,0.33-0.775,0.379c-0.77,0.123-1.525,0.299-2.284,0.443l3.535,67.568c2.787-1.272,5.035-4.77,6.271-9.39
			c0.094-2.876,0.362-5.743,0.669-8.63C166.801,365.209,166.381,361.052,167.281,357.252z"/>
		<path fill="#FFFFFF" d="M178.229,367.876c-0.393,0.725-0.882,1.557-1.403,2.397l0.375,6.426c0,0,0.366-0.534,0.913-1.354
			c0.267-1.512,0.37-3.073,0.274-4.673L178.229,367.876z"/>
		<path fill="#FFFFFF" d="M177.946,363.016l-1.357,3.142l0.238,4.116c0.521-0.841,1.01-1.673,1.403-2.397L177.946,363.016z"/>
		<path fill="#FFFFFF" d="M173.452,314.845c-0.082-0.82-0.162-1.613-0.24-2.403C173.292,313.229,173.37,314.028,173.452,314.845z"/>
		<path fill="#FFFFFF" d="M155.309,313.543c0.015,0.753,0.024,1.513,0.039,2.293C155.333,315.059,155.324,314.296,155.309,313.543z"
			/>
		<path fill="#FFFFFF" d="M171.408,314.957l2.044-0.112c-0.082-0.816-0.161-1.616-0.24-2.403c-0.637-0.186-1.384-0.331-2.212-0.441
			c0.089,0.063,0.178,0.129,0.247,0.195L171.408,314.957z"/>
		<path fill="#5D772A" d="M155.348,315.836l16.061-0.879l-0.161-2.762c-0.069-0.066-0.158-0.132-0.247-0.195
			c-4.655-0.623-11.821-0.095-15.691,1.543C155.324,314.296,155.333,315.059,155.348,315.836z"/>
	</g>
	<g>
		<path fill="#333333" d="M11.687,177.15l17.449,28.463c-0.701,1.044-0.943,1.932-0.584,2.519l55.095,89.856
			c0.472,0.771,1.896,0.889,3.845,0.467l1.384,2.258c0.763,1.243,4.816,0.228,9.052-2.272c4.234-2.499,7.049-5.535,6.286-6.78
			l-1.384-2.259c1.293-1.489,1.855-2.778,1.382-3.551l-55.093-89.855c-0.359-0.587-1.272-0.793-2.542-0.675l-17.452-28.463
			c-1.023-1.668-5.756-0.719-10.571,2.124C13.736,171.823,10.662,175.479,11.687,177.15z"/>
		<path fill="#333333" d="M44.495,197.126l-18.431-30.06c-1.022-1.67-5.757-0.717-10.572,2.124
			c-4.815,2.843-7.891,6.499-6.865,8.169l18.428,30.06L44.495,197.126z"/>
		<path fill="#333333" d="M94.868,298.651c4.236-2.5,7.05-5.537,6.286-6.782l-55.093-89.856l-15.337,9.052l55.096,89.855
			C86.58,302.165,90.633,301.149,94.868,298.651z"/>
		<path fill="#737373" d="M92.723,295.15c5.679-3.351,9.454-7.421,8.429-9.092l-55.093-89.854
			c-1.024-1.669-6.457-0.307-12.136,3.046c-5.678,3.353-9.452,7.422-8.429,9.091l55.093,89.856
			C81.611,299.866,87.044,298.502,92.723,295.15z"/>
		<path fill="#B0B0B0" d="M90.434,291.419l-54.223-88.436c-3.194,1.884-5.177,3.684-6.101,4.758l53.18,86.735
			C84.69,294.179,87.239,293.302,90.434,291.419z"/>
	</g>
	<g>
		<path fill="#333333" d="M517.244,158.931c0.287-0.466,0.758-0.775,1.319-0.914l-5.619-1.633l3.621,3.641l0.479,0.479
			c-0.032-0.134-0.054-0.266-0.065-0.399C516.948,159.688,517.027,159.284,517.244,158.931z"/>
		<polygon fill="#CFB16D" points="525.489,171.083 525.638,170.453 525.489,171.083 526.256,172.039 527.111,168.349 
			517.044,160.504 		"/>
		<polygon fill="#FFE094" points="530.314,163.099 530.918,162.586 533.222,160.625 518.563,158.017 527.869,162.041 		"/>
		<path fill="#F2D080" d="M527.869,162.041l-9.306-4.024c-0.562,0.139-1.032,0.448-1.319,0.914
			c-0.217,0.354-0.296,0.757-0.266,1.174c0.012,0.134,0.033,0.266,0.065,0.399l10.067,7.845l3.203-5.25L527.869,162.041z"/>
		<polygon fill="#464646" points="637.171,233.399 635.81,232.592 630.604,229.498 627.571,231.898 629.682,233.157 
			634.722,236.146 634.95,236.278 638.054,233.923 637.328,233.487 		"/>
		<polygon fill="#C6C3C2" points="619.954,223.18 617.577,221.766 564.715,190.672 527.111,168.349 526.256,172.039 
			561.053,192.697 616.101,225.091 618.606,226.58 625.598,230.729 628.626,228.327 		"/>
		<polygon fill="#E2E2E2" points="628.626,228.327 625.598,230.729 627.571,231.898 630.604,229.498 		"/>
		<polygon fill="#7E7E7E" points="633.81,224.247 633.808,224.248 639.011,227.342 640.248,228.077 641.259,228.677 
			641.916,224.866 634.361,220.378 633.966,223.133 		"/>
		<polygon fill="#F2F1EE" points="530.314,163.099 570.952,187.223 620.089,216.108 622.25,217.393 631.831,223.078 
			631.832,223.073 631.99,221.957 632.387,219.21 623.599,213.99 621.563,212.783 574.614,185.196 533.222,160.625 530.918,162.586 
					"/>
		<polygon fill="#FFFFFF" points="631.832,223.073 631.831,223.078 628.636,228.321 628.626,228.327 630.604,229.498 
			630.607,229.492 633.808,224.248 633.81,224.247 633.966,223.133 634.361,220.378 632.387,219.21 631.99,221.957 		"/>
		<polygon fill="#5C5D5D" points="640.248,228.077 639.011,227.342 633.808,224.248 630.607,229.492 630.604,229.498 
			635.81,232.592 637.171,233.399 637.328,233.487 638.054,233.923 638.353,233.436 641.259,228.677 		"/>
		<polygon fill="#E5E4E1" points="617.577,221.766 619.954,223.18 628.626,228.327 628.636,228.321 631.831,223.078 622.25,217.393 
			620.089,216.108 570.952,187.223 530.314,163.099 527.111,168.349 564.715,190.672 		"/>
	</g>
</g>
</svg>
