<?xml version="1.0" encoding="utf-8"?>
<!-- Generator: Adobe Illustrator 15.1.0, SVG Export Plug-In . SVG Version: 6.00 Build 0)  -->
<!DOCTYPE svg PUBLIC "-//W3C//DTD SVG 1.1//EN" "http://www.w3.org/Graphics/SVG/1.1/DTD/svg11.dtd">
<svg version="1.1" id="Layer_1" xmlns="http://www.w3.org/2000/svg" xmlns:xlink="http://www.w3.org/1999/xlink" x="0px" y="0px"
	 width="478.344px" height="264.102px" viewBox="14.825 32.087 478.344 264.102"
	 enable-background="new 14.825 32.087 478.344 264.102" xml:space="preserve">
<g>
	<g>
		<g>
			<path fill="#A7AFB8" d="M148.38,66.956c-0.357,0-0.661,0.072-0.908,0.216c-0.246,0.122-0.37,0.286-0.37,0.491
				c0,0.186,0.125,0.35,0.37,0.493c0.247,0.122,0.551,0.184,0.908,0.184h26.289c0.355,0,0.659-0.062,0.907-0.184
				c0.246-0.143,0.37-0.308,0.37-0.493c0-0.205-0.125-0.369-0.37-0.491c-0.249-0.144-0.55-0.216-0.907-0.216H148.38z
				 M107.092,66.956c-0.357,0-0.66,0.072-0.907,0.216c-0.247,0.122-0.37,0.286-0.37,0.491c0,0.186,0.123,0.35,0.37,0.493
				c0.248,0.122,0.55,0.184,0.907,0.184h26.288c0.356,0,0.659-0.062,0.905-0.184c0.249-0.143,0.372-0.308,0.372-0.493
				c0-0.205-0.123-0.369-0.372-0.491c-0.247-0.144-0.549-0.216-0.905-0.216H107.092z M65.845,66.956
				c-0.355,0-0.658,0.072-0.905,0.216c-0.248,0.122-0.37,0.286-0.37,0.491c0,0.186,0.123,0.35,0.37,0.493
				c0.248,0.122,0.55,0.184,0.905,0.184h26.29c0.357,0,0.645-0.062,0.865-0.184c0.248-0.143,0.37-0.308,0.37-0.493
				c0-0.205-0.123-0.369-0.37-0.491c-0.221-0.144-0.508-0.216-0.865-0.216H65.845z M230.047,68.156
				c0.219,0.124,0.507,0.184,0.864,0.184h26.291c0.356,0,0.658-0.061,0.905-0.184c0.248-0.143,0.371-0.307,0.371-0.492
				c0-0.205-0.123-0.369-0.371-0.491c-0.248-0.144-0.549-0.216-0.905-0.216h-26.291c-0.357,0-0.645,0.072-0.864,0.216
				c-0.249,0.122-0.372,0.286-0.372,0.491C229.674,67.849,229.798,68.013,230.047,68.156z M217.231,67.663
				c0-0.205-0.122-0.369-0.37-0.491c-0.248-0.144-0.549-0.216-0.906-0.216h-26.29c-0.356,0-0.661,0.072-0.907,0.216
				c-0.247,0.122-0.37,0.286-0.37,0.491c0,0.186,0.124,0.35,0.37,0.493c0.246,0.122,0.55,0.184,0.907,0.184h26.29
				c0.357,0,0.658-0.062,0.906-0.184C217.109,68.013,217.231,67.849,217.231,67.663z M49.365,69.878
				c-0.961,0-1.771-0.185-2.431-0.553c-0.659-0.37-0.99-0.81-0.99-1.323v-0.708c0-0.512,0.331-0.954,0.99-1.322
				c0.66-0.37,1.47-0.553,2.431-0.553h213.769c0.963,0,1.773,0.184,2.432,0.553c0.659,0.368,0.99,0.809,0.99,1.322v0.708
				c0,0.513-0.332,0.953-0.99,1.323c-0.658,0.368-1.468,0.553-2.432,0.553H49.365z"/>
			<path fill="#A7AFB8" d="M258.477,115.119c0-0.186-0.123-0.339-0.371-0.461c-0.248-0.144-0.549-0.215-0.905-0.215h-26.291
				c-0.357,0-0.645,0.072-0.864,0.215c-0.249,0.123-0.372,0.277-0.372,0.461c0,0.205,0.125,0.368,0.372,0.491
				c0.219,0.145,0.507,0.217,0.864,0.217h26.291c0.356,0,0.658-0.072,0.905-0.217C258.354,115.487,258.477,115.323,258.477,115.119z
				 M93.37,115.119c0-0.186-0.123-0.339-0.37-0.461c-0.221-0.144-0.508-0.215-0.865-0.215h-26.29c-0.355,0-0.658,0.072-0.905,0.215
				c-0.248,0.123-0.37,0.277-0.37,0.461c0,0.205,0.123,0.368,0.37,0.491c0.248,0.145,0.55,0.217,0.905,0.217h26.29
				c0.357,0,0.645-0.072,0.865-0.217C93.247,115.487,93.37,115.323,93.37,115.119z M134.658,115.119
				c0-0.186-0.123-0.339-0.371-0.461c-0.248-0.144-0.55-0.215-0.906-0.215h-26.288c-0.358,0-0.661,0.072-0.907,0.215
				c-0.248,0.123-0.371,0.277-0.371,0.461c0,0.205,0.124,0.368,0.371,0.491c0.247,0.145,0.549,0.217,0.907,0.217h26.288
				c0.355,0,0.659-0.072,0.906-0.217C134.535,115.487,134.658,115.323,134.658,115.119z M175.945,115.119
				c0-0.186-0.124-0.339-0.371-0.461c-0.248-0.144-0.551-0.215-0.907-0.215H148.38c-0.358,0-0.661,0.072-0.908,0.215
				c-0.247,0.123-0.37,0.277-0.37,0.461c0,0.205,0.124,0.368,0.37,0.491c0.247,0.145,0.549,0.217,0.908,0.217h26.288
				c0.355,0,0.659-0.072,0.907-0.217C175.821,115.487,175.945,115.323,175.945,115.119z M189.665,114.442
				c-0.356,0-0.66,0.072-0.906,0.215c-0.247,0.123-0.37,0.277-0.37,0.461c0,0.205,0.123,0.368,0.37,0.491
				c0.247,0.145,0.55,0.217,0.906,0.217h26.29c0.357,0,0.659-0.072,0.907-0.217c0.248-0.123,0.37-0.286,0.37-0.491
				c0-0.186-0.122-0.339-0.37-0.461c-0.248-0.144-0.55-0.215-0.907-0.215H189.665z M45.944,114.78c0-0.512,0.331-0.953,0.99-1.322
				c0.66-0.369,1.47-0.554,2.431-0.554h213.769c0.963,0,1.773,0.186,2.432,0.554c0.659,0.369,0.99,0.81,0.99,1.322v0.707
				c0,0.513-0.332,0.954-0.99,1.323c-0.658,0.369-1.468,0.553-2.432,0.553H49.365c-0.961,0-1.771-0.184-2.431-0.553
				c-0.659-0.37-0.99-0.81-0.99-1.323V114.78z"/>
			<path fill="#A7AFB8" d="M230.047,163.129c0.246,0.144,0.534,0.216,0.864,0.216h26.291c0.356,0,0.658-0.072,0.905-0.216
				c0.248-0.145,0.371-0.308,0.371-0.492c0-0.204-0.123-0.368-0.371-0.49c-0.248-0.145-0.549-0.218-0.905-0.218h-26.291
				c-0.357,0-0.645,0.073-0.864,0.218c-0.249,0.122-0.372,0.285-0.372,0.49C229.674,162.821,229.798,162.985,230.047,163.129z
				 M189.665,161.929c-0.356,0-0.66,0.073-0.906,0.218c-0.247,0.122-0.37,0.285-0.37,0.49c0,0.185,0.123,0.35,0.37,0.492
				c0.247,0.144,0.55,0.216,0.906,0.216h26.29c0.357,0,0.659-0.072,0.907-0.216c0.248-0.145,0.37-0.308,0.37-0.492
				c0-0.204-0.122-0.368-0.37-0.49c-0.248-0.145-0.55-0.218-0.907-0.218H189.665z M148.38,161.929c-0.357,0-0.661,0.073-0.908,0.218
				c-0.246,0.122-0.37,0.285-0.37,0.49c0,0.185,0.125,0.35,0.37,0.492c0.247,0.144,0.551,0.216,0.908,0.216h26.289
				c0.355,0,0.659-0.072,0.907-0.216c0.246-0.145,0.37-0.308,0.37-0.492c0-0.204-0.125-0.368-0.37-0.49
				c-0.249-0.145-0.55-0.218-0.907-0.218H148.38z M107.092,161.929c-0.357,0-0.66,0.073-0.907,0.218
				c-0.247,0.122-0.37,0.285-0.37,0.49c0,0.185,0.123,0.35,0.37,0.492c0.248,0.144,0.55,0.216,0.907,0.216h26.288
				c0.356,0,0.659-0.072,0.905-0.216c0.249-0.145,0.372-0.308,0.372-0.492c0-0.204-0.123-0.368-0.372-0.49
				c-0.247-0.145-0.549-0.218-0.905-0.218H107.092z M65.845,161.929c-0.355,0-0.658,0.073-0.905,0.218
				c-0.248,0.122-0.37,0.285-0.37,0.49c0,0.185,0.123,0.35,0.37,0.492c0.248,0.144,0.55,0.216,0.905,0.216h26.29
				c0.357,0,0.645-0.072,0.865-0.216c0.248-0.145,0.37-0.308,0.37-0.492c0-0.204-0.123-0.368-0.37-0.49
				c-0.221-0.145-0.508-0.218-0.865-0.218H65.845z M49.365,164.883c-0.935,0-1.744-0.186-2.431-0.554
				c-0.659-0.369-0.99-0.812-0.99-1.324v-0.737c0-0.514,0.331-0.955,0.99-1.322c0.687-0.369,1.497-0.555,2.431-0.555h213.769
				c0.934,0,1.746,0.186,2.432,0.555c0.659,0.369,0.99,0.809,0.99,1.322v0.737c0,0.513-0.332,0.955-0.99,1.324
				c-0.686,0.368-1.497,0.554-2.432,0.554H49.365z"/>
			<path fill="#A7AFB8" d="M489.849,263.174l2.027-2.462c0.082-0.102,0.125-0.233,0.125-0.397s-0.043-0.308-0.125-0.431
				c-0.086-0.103-0.195-0.154-0.331-0.154c-0.15,0-0.271,0.052-0.354,0.154l-2.03,2.46l-2.025-2.46
				c-0.103-0.103-0.22-0.154-0.354-0.154c-0.136,0-0.243,0.052-0.33,0.154c-0.104,0.123-0.15,0.267-0.15,0.431
				s0.047,0.296,0.15,0.397l2.03,2.462l-2.03,2.49c-0.104,0.103-0.15,0.235-0.15,0.4c0,0.164,0.047,0.307,0.15,0.431
				c0.22,0.267,0.445,0.267,0.685,0l2.025-2.491l2.03,2.491c0.082,0.102,0.203,0.153,0.354,0.153c0.134,0,0.245-0.052,0.331-0.153
				c0.082-0.124,0.125-0.267,0.125-0.431c0-0.165-0.043-0.298-0.125-0.4L489.849,263.174z M487.136,246.29
				c-0.103-0.103-0.22-0.154-0.354-0.154c-0.136,0-0.243,0.052-0.33,0.154c-0.104,0.121-0.15,0.267-0.15,0.431
				c0,0.163,0.047,0.296,0.15,0.397l2.03,2.461l-2.03,2.461c-0.104,0.124-0.15,0.268-0.15,0.431c0,0.164,0.047,0.297,0.15,0.399
				c0.087,0.122,0.194,0.185,0.33,0.185c0.135,0,0.252-0.062,0.354-0.185l2.025-2.46l2.03,2.46c0.082,0.122,0.203,0.185,0.354,0.185
				c0.134,0,0.245-0.062,0.331-0.185c0.082-0.103,0.125-0.235,0.125-0.399c0-0.163-0.043-0.307-0.125-0.431l-2.027-2.461
				l2.027-2.461c0.082-0.102,0.125-0.234,0.125-0.397c0-0.164-0.043-0.31-0.125-0.431c-0.086-0.103-0.195-0.154-0.331-0.154
				c-0.15,0-0.271,0.052-0.354,0.154l-2.03,2.46L487.136,246.29z M492.002,233.127c0-0.185-0.043-0.328-0.125-0.432
				c-0.086-0.102-0.195-0.152-0.331-0.152c-0.15,0-0.271,0.051-0.354,0.152l-2.03,2.462l-2.025-2.462
				c-0.103-0.102-0.22-0.152-0.354-0.152c-0.136,0-0.243,0.051-0.33,0.152c-0.104,0.104-0.15,0.248-0.15,0.432
				c0,0.163,0.047,0.297,0.15,0.399l2.03,2.461l-2.03,2.46c-0.104,0.123-0.15,0.266-0.15,0.43s0.047,0.298,0.15,0.401
				c0.087,0.122,0.194,0.185,0.33,0.185c0.135,0,0.252-0.062,0.354-0.185l2.025-2.46l2.03,2.46c0.082,0.122,0.203,0.185,0.354,0.185
				c0.134,0,0.245-0.062,0.331-0.185c0.082-0.104,0.125-0.237,0.125-0.401s-0.043-0.307-0.125-0.43l-2.027-2.46l2.027-2.461
				C491.959,233.424,492.002,233.29,492.002,233.127z M487.136,219.102c-0.239-0.286-0.465-0.286-0.685,0
				c-0.104,0.104-0.15,0.237-0.15,0.401s0.047,0.307,0.15,0.431l2.03,2.459l-2.03,2.461c-0.104,0.122-0.15,0.267-0.15,0.43
				c0,0.164,0.047,0.297,0.15,0.4c0.087,0.122,0.194,0.186,0.33,0.186c0.135,0,0.252-0.063,0.354-0.186l2.025-2.461l2.03,2.461
				c0.082,0.122,0.203,0.186,0.354,0.186c0.134,0,0.245-0.063,0.331-0.186c0.082-0.104,0.125-0.236,0.125-0.4
				c0-0.163-0.043-0.308-0.125-0.43l-2.027-2.461l2.027-2.459c0.082-0.124,0.125-0.267,0.125-0.431s-0.043-0.298-0.125-0.401
				c-0.086-0.121-0.195-0.185-0.331-0.185c-0.15,0-0.271,0.063-0.354,0.185l-2.03,2.461L487.136,219.102z M491.877,206.34
				c0.082-0.125,0.125-0.267,0.125-0.431c0-0.165-0.043-0.299-0.125-0.4c-0.086-0.123-0.195-0.185-0.328-0.185
				c-0.153,0-0.272,0.061-0.356,0.185l-2.027,2.46l-2.028-2.46c-0.237-0.286-0.465-0.286-0.683,0
				c-0.103,0.102-0.152,0.235-0.152,0.4c0,0.164,0.05,0.306,0.152,0.431l2.028,2.459l-2.028,2.462
				c-0.103,0.102-0.152,0.245-0.152,0.428c0,0.165,0.05,0.3,0.152,0.401c0.218,0.267,0.445,0.267,0.683,0l2.028-2.461l2.027,2.461
				c0.084,0.103,0.203,0.153,0.356,0.153c0.133,0,0.242-0.051,0.328-0.153c0.082-0.102,0.125-0.236,0.125-0.401
				c0-0.184-0.043-0.326-0.125-0.428l-2.027-2.462L491.877,206.34z M487.136,191.916c-0.239-0.287-0.465-0.287-0.685,0
				c-0.104,0.102-0.15,0.235-0.15,0.398c0,0.165,0.047,0.308,0.15,0.431l2.03,2.46l-2.03,2.461c-0.104,0.102-0.15,0.246-0.15,0.431
				c0,0.163,0.047,0.297,0.15,0.399c0.22,0.267,0.445,0.267,0.685,0l2.025-2.46l2.03,2.46c0.082,0.102,0.203,0.153,0.354,0.153
				c0.134,0,0.245-0.052,0.331-0.153c0.082-0.103,0.125-0.236,0.125-0.399c0-0.186-0.043-0.329-0.125-0.431l-2.027-2.461l2.027-2.46
				c0.082-0.123,0.125-0.266,0.125-0.431c0-0.163-0.043-0.297-0.125-0.398c-0.086-0.123-0.195-0.186-0.331-0.186
				c-0.15,0-0.271,0.062-0.354,0.186l-2.03,2.46L487.136,191.916z M489.849,181.613l2.027-2.491c0.082-0.103,0.125-0.235,0.125-0.4
				c0-0.162-0.043-0.307-0.125-0.429c-0.086-0.103-0.195-0.155-0.331-0.155c-0.15,0-0.271,0.053-0.354,0.155l-2.03,2.49l-2.025-2.49
				c-0.103-0.103-0.22-0.155-0.354-0.155c-0.136,0-0.243,0.053-0.33,0.155c-0.104,0.122-0.15,0.267-0.15,0.429
				c0,0.165,0.047,0.298,0.15,0.4l2.03,2.491l-2.03,2.46c-0.104,0.104-0.15,0.236-0.15,0.4s0.047,0.308,0.15,0.431
				c0.22,0.266,0.445,0.266,0.685,0l2.025-2.46l2.03,2.46c0.082,0.102,0.203,0.153,0.354,0.153c0.134,0,0.245-0.052,0.331-0.153
				c0.082-0.123,0.125-0.267,0.125-0.431s-0.043-0.297-0.125-0.4L489.849,181.613z M486.302,165.127c0,0.164,0.047,0.297,0.15,0.4
				l2.03,2.49l-2.03,2.462c-0.104,0.103-0.15,0.236-0.15,0.399c0,0.165,0.047,0.309,0.15,0.432c0.22,0.266,0.445,0.266,0.685,0
				l2.025-2.462l2.03,2.462c0.082,0.102,0.203,0.152,0.354,0.152c0.134,0,0.245-0.051,0.331-0.152
				c0.082-0.123,0.125-0.267,0.125-0.432c0-0.164-0.043-0.297-0.125-0.399l-2.027-2.462l2.027-2.49
				c0.082-0.103,0.125-0.236,0.125-0.4c0-0.165-0.043-0.307-0.125-0.432c-0.086-0.101-0.195-0.152-0.331-0.152
				c-0.15,0-0.271,0.052-0.354,0.152l-2.03,2.492l-2.025-2.492c-0.103-0.101-0.22-0.152-0.354-0.152
				c-0.136,0-0.243,0.052-0.33,0.152C486.351,164.821,486.302,164.963,486.302,165.127z M491.549,150.95
				c-0.153,0-0.272,0.05-0.356,0.152l-2.027,2.462l-2.028-2.462c-0.103-0.102-0.22-0.152-0.354-0.152
				c-0.136,0-0.243,0.05-0.328,0.152c-0.103,0.124-0.152,0.267-0.152,0.432c0,0.164,0.05,0.298,0.152,0.4l2.028,2.46l-2.028,2.492
				c-0.103,0.102-0.152,0.235-0.152,0.398c0,0.166,0.05,0.309,0.152,0.432c0.218,0.266,0.445,0.266,0.683,0l2.028-2.491l2.027,2.491
				c0.084,0.102,0.203,0.153,0.356,0.153c0.133,0,0.242-0.052,0.328-0.153c0.082-0.123,0.125-0.268,0.125-0.432
				s-0.043-0.297-0.125-0.398l-2.027-2.492l2.027-2.46c0.082-0.103,0.125-0.236,0.125-0.4c0-0.165-0.043-0.308-0.125-0.432
				C491.791,151.001,491.681,150.95,491.549,150.95z M491.877,138.341c0.082-0.102,0.125-0.236,0.125-0.4s-0.043-0.307-0.125-0.432
				c-0.086-0.102-0.195-0.152-0.328-0.152c-0.153,0-0.272,0.051-0.356,0.152l-2.027,2.461l-2.028-2.461
				c-0.103-0.102-0.22-0.152-0.354-0.152c-0.136,0-0.243,0.051-0.328,0.152c-0.103,0.125-0.152,0.267-0.152,0.432
				s0.05,0.298,0.152,0.4l2.028,2.46l-2.028,2.46c-0.103,0.122-0.152,0.267-0.152,0.43c0,0.164,0.05,0.298,0.152,0.399
				c0.085,0.124,0.192,0.185,0.328,0.185c0.138,0,0.252-0.062,0.354-0.185l2.028-2.46l2.027,2.46
				c0.084,0.124,0.203,0.185,0.356,0.185c0.133,0,0.242-0.062,0.328-0.185c0.082-0.102,0.125-0.236,0.125-0.399
				s-0.043-0.308-0.125-0.43l-2.027-2.46L491.877,138.341z M487.136,123.917c-0.103-0.103-0.22-0.153-0.354-0.153
				c-0.136,0-0.243,0.051-0.33,0.153c-0.104,0.103-0.15,0.246-0.15,0.431c0,0.164,0.047,0.297,0.15,0.4l2.03,2.46l-2.03,2.46
				c-0.104,0.123-0.15,0.267-0.15,0.432c0,0.164,0.047,0.297,0.15,0.399c0.087,0.123,0.194,0.186,0.33,0.186
				c0.135,0,0.252-0.063,0.354-0.186l2.025-2.46l2.03,2.46c0.082,0.123,0.203,0.186,0.354,0.186c0.134,0,0.245-0.063,0.331-0.186
				c0.082-0.102,0.125-0.235,0.125-0.399c0-0.165-0.043-0.308-0.125-0.432l-2.027-2.46l2.027-2.46
				c0.082-0.103,0.125-0.236,0.125-0.4c0-0.185-0.043-0.328-0.125-0.431c-0.086-0.103-0.195-0.153-0.331-0.153
				c-0.15,0-0.271,0.051-0.354,0.153l-2.03,2.46L487.136,123.917z M491.877,111.153c0.082-0.122,0.125-0.267,0.125-0.431
				c0-0.164-0.043-0.296-0.125-0.399c-0.086-0.124-0.195-0.186-0.328-0.186c-0.153,0-0.272,0.063-0.356,0.186l-2.027,2.46
				l-2.028-2.46c-0.237-0.288-0.465-0.288-0.683,0c-0.103,0.102-0.152,0.235-0.152,0.399c0,0.164,0.05,0.308,0.152,0.431
				l2.028,2.461l-2.028,2.459c-0.103,0.124-0.152,0.267-0.152,0.431c0,0.164,0.05,0.297,0.152,0.4
				c0.085,0.123,0.192,0.185,0.328,0.185c0.138,0,0.252-0.062,0.354-0.185l2.028-2.46l2.027,2.46
				c0.084,0.123,0.203,0.185,0.356,0.185c0.133,0,0.242-0.062,0.328-0.185c0.082-0.102,0.125-0.236,0.125-0.4
				c0-0.164-0.043-0.307-0.125-0.431l-2.027-2.459L491.877,111.153z M487.136,96.729c-0.239-0.287-0.465-0.287-0.685,0
				c-0.104,0.102-0.15,0.236-0.15,0.399c0,0.164,0.047,0.308,0.15,0.431l2.03,2.46l-2.03,2.461c-0.104,0.102-0.15,0.246-0.15,0.431
				c0,0.164,0.047,0.297,0.15,0.399c0.22,0.267,0.445,0.267,0.685,0l2.025-2.46l2.03,2.46c0.082,0.102,0.203,0.153,0.354,0.153
				c0.134,0,0.245-0.051,0.331-0.153c0.082-0.103,0.125-0.236,0.125-0.399c0-0.185-0.043-0.328-0.125-0.431l-2.027-2.461l2.027-2.46
				c0.082-0.123,0.125-0.267,0.125-0.431c0-0.164-0.043-0.297-0.125-0.399c-0.086-0.123-0.195-0.184-0.331-0.184
				c-0.15,0-0.271,0.061-0.354,0.184l-2.03,2.46L487.136,96.729z M491.549,82.951c-0.153,0-0.272,0.062-0.356,0.184l-2.027,2.46
				l-2.028-2.46c-0.237-0.287-0.465-0.287-0.683,0c-0.103,0.102-0.152,0.236-0.152,0.401c0,0.164,0.05,0.307,0.152,0.431l2.028,2.46
				l-2.028,2.46c-0.103,0.103-0.152,0.236-0.152,0.4c0,0.164,0.05,0.308,0.152,0.431c0.218,0.266,0.445,0.266,0.683,0l2.028-2.46
				l2.027,2.46c0.084,0.102,0.203,0.154,0.356,0.154c0.133,0,0.242-0.052,0.328-0.154c0.082-0.103,0.125-0.236,0.125-0.399
				c0-0.185-0.043-0.329-0.125-0.432l-2.027-2.46l2.027-2.46c0.082-0.124,0.125-0.267,0.125-0.431c0-0.165-0.043-0.298-0.125-0.401
				C491.791,83.012,491.681,82.951,491.549,82.951z M487.136,69.511c-0.103-0.102-0.22-0.153-0.354-0.153
				c-0.136,0-0.243,0.051-0.33,0.153c-0.104,0.124-0.15,0.267-0.15,0.432c0,0.164,0.047,0.297,0.15,0.4l2.03,2.491l-2.03,2.46
				c-0.104,0.103-0.15,0.236-0.15,0.399c0,0.164,0.047,0.308,0.15,0.43c0.22,0.267,0.445,0.267,0.685,0l2.025-2.46l2.03,2.46
				c0.082,0.102,0.203,0.154,0.354,0.154c0.134,0,0.245-0.051,0.331-0.154c0.082-0.122,0.125-0.266,0.125-0.43
				c0-0.164-0.043-0.296-0.125-0.399l-2.027-2.46l2.027-2.491c0.082-0.102,0.125-0.236,0.125-0.4c0-0.165-0.043-0.308-0.125-0.432
				c-0.086-0.102-0.195-0.153-0.331-0.153c-0.15,0-0.271,0.051-0.354,0.153l-2.03,2.492L487.136,69.511z M492.357,52.811
				c0.542,0.656,0.813,1.434,0.813,2.337V270.37h-8.012V55.149c0-0.903,0.273-1.682,0.813-2.337
				c0.541-0.657,1.183-0.984,1.927-0.984h2.533C491.174,51.827,491.818,52.155,492.357,52.811z"/>
			<path fill="#A7AFB8" d="M44.149,51.827h2.537c0.742,0,1.384,0.327,1.924,0.984c0.542,0.656,0.812,1.434,0.812,2.337V270.37
				h-8.011V55.149c0-0.903,0.272-1.682,0.813-2.337C42.765,52.155,43.406,51.827,44.149,51.827z M42.703,75.294
				c-0.084,0.103-0.126,0.235-0.126,0.399c0,0.165,0.042,0.308,0.126,0.431c0.085,0.102,0.195,0.154,0.331,0.154
				c0.152,0,0.271-0.051,0.354-0.154l2.028-2.46l2.027,2.46c0.237,0.266,0.464,0.266,0.684,0c0.101-0.123,0.153-0.266,0.153-0.431
				c0-0.164-0.052-0.296-0.153-0.399l-2.028-2.46l2.028-2.492c0.101-0.102,0.153-0.236,0.153-0.4c0-0.165-0.052-0.307-0.153-0.431
				c-0.084-0.102-0.194-0.154-0.329-0.154c-0.137,0-0.255,0.051-0.355,0.154l-2.027,2.492l-2.028-2.492
				c-0.084-0.102-0.205-0.154-0.354-0.154c-0.136,0-0.246,0.051-0.331,0.154c-0.084,0.123-0.126,0.266-0.126,0.431
				c0,0.164,0.042,0.297,0.126,0.4l2.028,2.492L42.703,75.294z M48.128,88.886l-2.028-2.46l2.028-2.46
				c0.101-0.124,0.153-0.266,0.153-0.431s-0.052-0.298-0.153-0.4c-0.22-0.287-0.447-0.287-0.684,0l-2.027,2.46l-2.028-2.46
				c-0.084-0.123-0.205-0.185-0.354-0.185c-0.136,0-0.246,0.062-0.331,0.185c-0.084,0.102-0.126,0.236-0.126,0.4
				s0.042,0.307,0.126,0.431l2.028,2.46l-2.028,2.46c-0.084,0.103-0.126,0.247-0.126,0.432c0,0.164,0.042,0.296,0.126,0.399
				c0.085,0.102,0.195,0.154,0.331,0.154c0.152,0,0.271-0.052,0.354-0.154l2.028-2.46l2.027,2.46c0.237,0.266,0.464,0.266,0.684,0
				c0.101-0.123,0.153-0.267,0.153-0.431C48.281,89.122,48.229,88.99,48.128,88.886z M48.281,102.911
				c0-0.185-0.052-0.328-0.153-0.431L46.1,100.02l2.028-2.46c0.101-0.123,0.153-0.267,0.153-0.431c0-0.164-0.052-0.297-0.153-0.399
				c-0.22-0.287-0.447-0.287-0.684,0l-2.027,2.46l-2.028-2.46c-0.084-0.123-0.205-0.184-0.354-0.184
				c-0.136,0-0.246,0.061-0.331,0.184c-0.084,0.102-0.126,0.236-0.126,0.399c0,0.164,0.042,0.308,0.126,0.431l2.028,2.46
				l-2.028,2.461c-0.084,0.102-0.126,0.246-0.126,0.431c0,0.164,0.042,0.297,0.126,0.399c0.085,0.102,0.195,0.153,0.331,0.153
				c0.152,0,0.271-0.051,0.354-0.153l2.028-2.46l2.027,2.46c0.237,0.267,0.464,0.267,0.684,0
				C48.229,103.208,48.281,103.075,48.281,102.911z M48.128,116.904c0.101-0.102,0.153-0.236,0.153-0.4
				c0-0.164-0.052-0.307-0.153-0.431l-2.028-2.459l2.028-2.461c0.101-0.122,0.153-0.267,0.153-0.431
				c0-0.164-0.052-0.296-0.153-0.399c-0.22-0.288-0.447-0.288-0.684,0l-2.027,2.46l-2.028-2.46
				c-0.084-0.124-0.205-0.186-0.354-0.186c-0.136,0-0.246,0.063-0.331,0.186c-0.084,0.102-0.126,0.235-0.126,0.399
				c0,0.164,0.042,0.308,0.126,0.431l2.028,2.461l-2.028,2.459c-0.084,0.124-0.126,0.267-0.126,0.431c0,0.164,0.042,0.297,0.126,0.4
				c0.085,0.123,0.195,0.185,0.331,0.185c0.152,0,0.271-0.062,0.354-0.185l2.028-2.46l2.027,2.46
				c0.101,0.123,0.219,0.185,0.355,0.185C47.933,117.089,48.044,117.027,48.128,116.904z M48.128,129.667l-2.028-2.46l2.028-2.46
				c0.101-0.103,0.153-0.236,0.153-0.4c0-0.185-0.052-0.328-0.153-0.431c-0.084-0.103-0.194-0.153-0.329-0.153
				c-0.137,0-0.255,0.051-0.355,0.153l-2.027,2.46l-2.028-2.46c-0.084-0.103-0.205-0.153-0.354-0.153
				c-0.136,0-0.246,0.051-0.331,0.153c-0.084,0.103-0.126,0.246-0.126,0.431c0,0.164,0.042,0.297,0.126,0.4l2.028,2.46l-2.028,2.46
				c-0.084,0.124-0.126,0.267-0.126,0.432c0,0.164,0.042,0.297,0.126,0.399c0.085,0.124,0.195,0.186,0.331,0.186
				c0.152,0,0.271-0.063,0.354-0.186l2.028-2.46l2.027,2.46c0.101,0.124,0.219,0.186,0.355,0.186c0.133,0,0.244-0.063,0.329-0.186
				c0.101-0.102,0.153-0.235,0.153-0.399C48.281,129.934,48.229,129.791,48.128,129.667z M47.444,137.51l-2.027,2.461l-2.027-2.461
				c-0.084-0.102-0.204-0.152-0.356-0.152c-0.134,0-0.245,0.051-0.33,0.152c-0.084,0.125-0.126,0.267-0.126,0.432
				s0.042,0.298,0.126,0.4l2.028,2.46l-2.028,2.46c-0.084,0.122-0.126,0.267-0.126,0.43c0,0.164,0.042,0.298,0.126,0.399
				c0.085,0.124,0.196,0.185,0.33,0.185c0.154,0,0.272-0.062,0.356-0.185l2.027-2.46l2.027,2.46c0.102,0.124,0.22,0.185,0.356,0.185
				c0.134,0,0.244-0.062,0.329-0.185c0.1-0.102,0.152-0.236,0.152-0.399s-0.052-0.308-0.152-0.43l-2.028-2.46l2.028-2.46
				c0.1-0.102,0.152-0.236,0.152-0.4s-0.052-0.307-0.152-0.432c-0.085-0.102-0.195-0.152-0.329-0.152
				C47.663,137.357,47.546,137.408,47.444,137.51z M48.128,151.103c-0.084-0.102-0.194-0.152-0.329-0.152
				c-0.137,0-0.255,0.05-0.355,0.152l-2.027,2.462l-2.028-2.462c-0.084-0.102-0.205-0.152-0.354-0.152
				c-0.136,0-0.246,0.05-0.331,0.152c-0.084,0.124-0.126,0.267-0.126,0.432c0,0.164,0.042,0.298,0.126,0.4l2.028,2.46l-2.028,2.492
				c-0.084,0.102-0.126,0.235-0.126,0.398c0,0.166,0.042,0.309,0.126,0.432c0.085,0.102,0.195,0.153,0.331,0.153
				c0.152,0,0.271-0.052,0.354-0.153l2.028-2.491l2.027,2.491c0.237,0.266,0.464,0.266,0.684,0c0.101-0.123,0.153-0.268,0.153-0.432
				s-0.052-0.297-0.153-0.398l-2.028-2.492l2.028-2.46c0.101-0.103,0.153-0.236,0.153-0.4
				C48.281,151.37,48.229,151.227,48.128,151.103z M48.128,164.697c-0.084-0.101-0.194-0.152-0.329-0.152
				c-0.137,0-0.255,0.052-0.355,0.152l-2.027,2.491l-2.028-2.491c-0.084-0.101-0.205-0.152-0.354-0.152
				c-0.136,0-0.246,0.052-0.331,0.152c-0.084,0.124-0.126,0.267-0.126,0.432c0,0.163,0.042,0.297,0.126,0.399l2.028,2.492
				l-2.028,2.461c-0.084,0.102-0.126,0.236-0.126,0.398c0,0.166,0.042,0.309,0.126,0.432c0.085,0.102,0.195,0.152,0.331,0.152
				c0.152,0,0.271-0.051,0.354-0.152l2.028-2.461l2.027,2.461c0.237,0.267,0.464,0.267,0.684,0c0.101-0.123,0.153-0.266,0.153-0.432
				c0-0.163-0.052-0.297-0.153-0.398L46.1,168.02l2.028-2.492c0.101-0.102,0.153-0.236,0.153-0.399
				C48.281,164.963,48.229,164.821,48.128,164.697z M47.8,178.137c-0.136,0-0.254,0.052-0.356,0.154l-2.027,2.49l-2.027-2.49
				c-0.084-0.103-0.204-0.154-0.356-0.154c-0.134,0-0.245,0.052-0.33,0.154c-0.084,0.122-0.126,0.268-0.126,0.429
				c0,0.166,0.042,0.298,0.126,0.4l2.028,2.491l-2.028,2.461c-0.084,0.103-0.126,0.235-0.126,0.399s0.042,0.308,0.126,0.431
				c0.085,0.102,0.196,0.153,0.33,0.153c0.154,0,0.272-0.052,0.356-0.153l2.027-2.46l2.027,2.46c0.237,0.267,0.464,0.267,0.685,0
				c0.1-0.123,0.152-0.267,0.152-0.431s-0.052-0.297-0.152-0.399l-2.028-2.461l2.028-2.491c0.1-0.103,0.152-0.234,0.152-0.4
				c0-0.161-0.052-0.307-0.152-0.429C48.044,178.189,47.934,178.137,47.8,178.137z M48.281,192.315c0-0.163-0.052-0.297-0.153-0.398
				c-0.22-0.287-0.447-0.287-0.684,0l-2.027,2.46l-2.028-2.46c-0.084-0.123-0.205-0.186-0.354-0.186
				c-0.136,0-0.246,0.062-0.331,0.186c-0.084,0.102-0.126,0.235-0.126,0.398c0,0.165,0.042,0.308,0.126,0.431l2.028,2.46
				l-2.028,2.461c-0.084,0.102-0.126,0.246-0.126,0.431c0,0.163,0.042,0.297,0.126,0.399c0.085,0.102,0.195,0.153,0.331,0.153
				c0.152,0,0.271-0.052,0.354-0.153l2.028-2.46l2.027,2.46c0.237,0.267,0.464,0.267,0.684,0c0.101-0.103,0.153-0.236,0.153-0.399
				c0-0.186-0.052-0.329-0.153-0.431l-2.028-2.461l2.028-2.46C48.229,192.622,48.281,192.48,48.281,192.315z M48.281,211.689
				c0-0.184-0.052-0.326-0.153-0.428l-2.028-2.462l2.028-2.459c0.101-0.125,0.153-0.267,0.153-0.431c0-0.165-0.052-0.299-0.153-0.4
				c-0.22-0.286-0.447-0.286-0.684,0l-2.027,2.46l-2.028-2.46c-0.084-0.123-0.205-0.185-0.354-0.185
				c-0.136,0-0.246,0.061-0.331,0.185c-0.084,0.102-0.126,0.235-0.126,0.4c0,0.164,0.042,0.306,0.126,0.431l2.028,2.459
				l-2.028,2.462c-0.084,0.102-0.126,0.245-0.126,0.428c0,0.165,0.042,0.3,0.126,0.401c0.085,0.103,0.195,0.153,0.331,0.153
				c0.152,0,0.271-0.051,0.354-0.153l2.028-2.461l2.027,2.461c0.237,0.267,0.464,0.267,0.684,0
				C48.229,211.99,48.281,211.854,48.281,211.689z M47.8,225.869c0.134,0,0.244-0.063,0.329-0.186c0.1-0.104,0.152-0.236,0.152-0.4
				c0-0.163-0.052-0.308-0.152-0.43l-2.028-2.461l2.028-2.459c0.1-0.124,0.152-0.267,0.152-0.431s-0.052-0.298-0.152-0.401
				c-0.221-0.286-0.448-0.286-0.685,0l-2.027,2.461l-2.027-2.461c-0.084-0.121-0.204-0.185-0.356-0.185
				c-0.134,0-0.245,0.063-0.33,0.185c-0.084,0.104-0.126,0.237-0.126,0.401s0.042,0.307,0.126,0.431l2.028,2.459l-2.028,2.461
				c-0.084,0.122-0.126,0.267-0.126,0.43c0,0.164,0.042,0.297,0.126,0.4c0.085,0.122,0.196,0.186,0.33,0.186
				c0.154,0,0.272-0.063,0.356-0.186l2.027-2.461l2.027,2.461C47.546,225.807,47.663,225.869,47.8,225.869z M47.8,239.463
				c0.134,0,0.244-0.062,0.329-0.185c0.1-0.104,0.152-0.237,0.152-0.401s-0.052-0.307-0.152-0.43l-2.028-2.46l2.028-2.461
				c0.1-0.103,0.152-0.236,0.152-0.399c0-0.185-0.052-0.328-0.152-0.432c-0.085-0.102-0.195-0.152-0.329-0.152
				c-0.137,0-0.254,0.051-0.356,0.152l-2.027,2.462l-2.027-2.462c-0.084-0.102-0.204-0.152-0.356-0.152
				c-0.134,0-0.245,0.051-0.33,0.152c-0.084,0.104-0.126,0.248-0.126,0.432c0,0.163,0.042,0.297,0.126,0.399l2.028,2.461
				l-2.028,2.46c-0.084,0.123-0.126,0.266-0.126,0.43s0.042,0.298,0.126,0.401c0.085,0.122,0.196,0.185,0.33,0.185
				c0.154,0,0.272-0.062,0.356-0.185l2.027-2.46l2.027,2.46C47.546,239.401,47.663,239.463,47.8,239.463z M48.128,252.04
				l-2.028-2.46l2.028-2.461c0.101-0.102,0.153-0.234,0.153-0.398c0-0.163-0.052-0.309-0.153-0.431
				c-0.084-0.102-0.194-0.153-0.329-0.153c-0.137,0-0.255,0.052-0.355,0.153l-2.027,2.461l-2.028-2.461
				c-0.084-0.102-0.205-0.153-0.354-0.153c-0.136,0-0.246,0.052-0.331,0.153c-0.084,0.122-0.126,0.268-0.126,0.431
				c0,0.164,0.042,0.297,0.126,0.398l2.028,2.461l-2.028,2.46c-0.084,0.124-0.126,0.269-0.126,0.432
				c0,0.164,0.042,0.297,0.126,0.399c0.085,0.123,0.195,0.185,0.331,0.185c0.152,0,0.271-0.062,0.354-0.185l2.028-2.46l2.027,2.46
				c0.101,0.123,0.219,0.185,0.355,0.185c0.133,0,0.244-0.062,0.329-0.185c0.101-0.103,0.153-0.235,0.153-0.399
				C48.281,252.309,48.229,252.164,48.128,252.04z M47.444,259.884l-2.027,2.46l-2.027-2.46c-0.084-0.103-0.204-0.154-0.356-0.154
				c-0.134,0-0.245,0.052-0.33,0.154c-0.084,0.123-0.126,0.267-0.126,0.431s0.042,0.296,0.126,0.397l2.028,2.463l-2.028,2.489
				c-0.084,0.103-0.126,0.235-0.126,0.4c0,0.164,0.042,0.307,0.126,0.431c0.085,0.102,0.196,0.153,0.33,0.153
				c0.154,0,0.272-0.052,0.356-0.153l2.027-2.491l2.027,2.491c0.237,0.267,0.464,0.267,0.685,0c0.1-0.124,0.152-0.267,0.152-0.431
				c0-0.165-0.052-0.298-0.152-0.4l-2.028-2.489l2.028-2.463c0.1-0.102,0.152-0.233,0.152-0.397s-0.052-0.308-0.152-0.431
				c-0.085-0.103-0.195-0.154-0.329-0.154C47.663,259.73,47.546,259.781,47.444,259.884z"/>
			<path fill="#A7AFB8" d="M259.038,210.018c0-0.185-0.124-0.338-0.37-0.461c-0.248-0.144-0.549-0.216-0.906-0.216h-26.29
				c-0.357,0-0.646,0.072-0.866,0.216c-0.246,0.123-0.371,0.276-0.371,0.461c0,0.205,0.125,0.368,0.371,0.49
				c0.221,0.145,0.509,0.218,0.866,0.218h26.29c0.357,0,0.659-0.073,0.906-0.218C258.916,210.386,259.038,210.223,259.038,210.018z
				 M93.932,210.018c0-0.185-0.123-0.338-0.37-0.461c-0.221-0.144-0.508-0.216-0.865-0.216h-26.29c-0.355,0-0.66,0.072-0.906,0.216
				c-0.248,0.123-0.372,0.276-0.372,0.461c0,0.205,0.124,0.368,0.372,0.49c0.246,0.145,0.55,0.218,0.906,0.218h26.291
				c0.356,0,0.645-0.073,0.865-0.218C93.809,210.386,93.932,210.223,93.932,210.018z M135.219,210.018
				c0-0.185-0.123-0.338-0.369-0.461c-0.249-0.144-0.55-0.216-0.907-0.216h-26.289c-0.357,0-0.66,0.072-0.907,0.216
				c-0.246,0.123-0.369,0.276-0.369,0.461c0,0.205,0.123,0.368,0.369,0.49c0.247,0.145,0.55,0.218,0.907,0.218h26.289
				c0.357,0,0.658-0.073,0.907-0.218C135.096,210.386,135.219,210.223,135.219,210.018z M190.227,209.341
				c-0.356,0-0.658,0.072-0.906,0.216c-0.246,0.123-0.371,0.276-0.371,0.461c0,0.205,0.125,0.368,0.371,0.49
				c0.248,0.145,0.55,0.218,0.906,0.218h26.289c0.357,0,0.66-0.073,0.907-0.218c0.248-0.122,0.37-0.286,0.37-0.49
				c0-0.185-0.123-0.338-0.37-0.461c-0.249-0.144-0.55-0.216-0.907-0.216H190.227z M176.506,210.018c0-0.185-0.124-0.338-0.37-0.461
				c-0.249-0.144-0.551-0.216-0.907-0.216h-26.287c-0.359,0-0.661,0.072-0.909,0.216c-0.246,0.123-0.37,0.276-0.37,0.461
				c0,0.205,0.124,0.368,0.37,0.49c0.249,0.145,0.55,0.218,0.909,0.218h26.287c0.356,0,0.658-0.073,0.907-0.218
				C176.383,210.386,176.506,210.223,176.506,210.018z M46.506,209.68c0-0.513,0.329-0.955,0.988-1.324
				c0.66-0.368,1.47-0.555,2.433-0.555h213.768c0.961,0,1.773,0.187,2.432,0.555c0.66,0.37,0.99,0.812,0.99,1.324v0.706
				c0,0.514-0.33,0.954-0.99,1.323c-0.659,0.369-1.47,0.554-2.432,0.554H49.927c-0.963,0-1.773-0.185-2.433-0.554
				c-0.66-0.369-0.988-0.81-0.988-1.323V209.68z"/>
			<path fill="#A7AFB8" d="M230.608,258.03c0.248,0.143,0.537,0.215,0.866,0.215h26.29c0.357,0,0.659-0.072,0.906-0.215
				c0.248-0.145,0.37-0.31,0.37-0.493c0-0.205-0.124-0.368-0.37-0.491c-0.248-0.145-0.549-0.217-0.906-0.217h-26.29
				c-0.357,0-0.646,0.072-0.866,0.217c-0.246,0.123-0.371,0.286-0.371,0.491C230.237,257.72,230.362,257.885,230.608,258.03z
				 M190.227,256.827c-0.356,0-0.658,0.073-0.906,0.218c-0.246,0.122-0.371,0.285-0.371,0.49c0,0.185,0.125,0.35,0.371,0.493
				c0.248,0.143,0.55,0.215,0.906,0.215h26.289c0.357,0,0.66-0.072,0.907-0.215c0.248-0.145,0.37-0.309,0.37-0.493
				c0-0.205-0.123-0.368-0.37-0.49c-0.249-0.145-0.55-0.218-0.907-0.218H190.227z M148.942,256.827
				c-0.359,0-0.661,0.073-0.909,0.218c-0.246,0.122-0.37,0.285-0.37,0.49c0,0.185,0.124,0.35,0.37,0.493
				c0.249,0.143,0.55,0.215,0.909,0.215h26.287c0.356,0,0.658-0.072,0.907-0.215c0.246-0.145,0.37-0.309,0.37-0.493
				c0-0.205-0.124-0.368-0.37-0.49c-0.249-0.145-0.551-0.218-0.907-0.218H148.942z M107.654,256.827
				c-0.357,0-0.66,0.073-0.907,0.218c-0.246,0.122-0.369,0.285-0.369,0.49c0,0.185,0.123,0.35,0.369,0.493
				c0.247,0.143,0.55,0.215,0.907,0.215h26.289c0.357,0,0.658-0.072,0.907-0.215c0.247-0.145,0.369-0.309,0.369-0.493
				c0-0.205-0.123-0.368-0.369-0.49c-0.249-0.145-0.55-0.218-0.907-0.218H107.654z M66.407,256.827c-0.355,0-0.66,0.073-0.906,0.218
				c-0.248,0.122-0.372,0.285-0.372,0.49c0,0.185,0.124,0.35,0.372,0.493c0.246,0.143,0.55,0.215,0.906,0.215h26.291
				c0.356,0,0.645-0.072,0.865-0.215c0.246-0.145,0.369-0.309,0.369-0.493c0-0.205-0.123-0.368-0.369-0.49
				c-0.221-0.145-0.509-0.218-0.865-0.218H66.407z M49.927,259.781c-0.936,0-1.745-0.185-2.433-0.554
				c-0.66-0.369-0.988-0.811-0.988-1.323v-0.737c0-0.514,0.329-0.955,0.988-1.323c0.688-0.369,1.497-0.554,2.433-0.554h213.768
				c0.933,0,1.744,0.185,2.432,0.554c0.66,0.368,0.99,0.81,0.99,1.323v0.737c0,0.513-0.33,0.954-0.99,1.323
				c-0.688,0.369-1.497,0.554-2.432,0.554H49.927z"/>
			<path fill="#A7AFB8" d="M367.768,66.956c-0.358,0-0.662,0.072-0.911,0.216c-0.248,0.122-0.372,0.286-0.372,0.491
				c0,0.186,0.124,0.35,0.372,0.493c0.249,0.122,0.553,0.184,0.911,0.184h26.456c0.358,0,0.663-0.062,0.91-0.184
				c0.251-0.143,0.375-0.308,0.375-0.493c0-0.205-0.124-0.369-0.375-0.491c-0.247-0.144-0.552-0.216-0.91-0.216H367.768z
				 M326.222,66.956c-0.36,0-0.664,0.072-0.913,0.216c-0.248,0.122-0.374,0.286-0.374,0.491c0,0.186,0.126,0.35,0.374,0.493
				c0.25,0.122,0.553,0.184,0.913,0.184h26.453c0.36,0,0.666-0.062,0.913-0.184c0.25-0.143,0.373-0.308,0.373-0.493
				c0-0.205-0.124-0.369-0.373-0.491c-0.247-0.144-0.553-0.216-0.913-0.216H326.222z M284.716,66.956
				c-0.361,0-0.664,0.072-0.911,0.216c-0.251,0.122-0.375,0.286-0.375,0.491c0,0.186,0.124,0.35,0.375,0.493
				c0.248,0.122,0.55,0.184,0.911,0.184h26.454c0.359,0,0.649-0.062,0.87-0.184c0.25-0.143,0.373-0.308,0.373-0.493
				c0-0.205-0.124-0.369-0.373-0.491c-0.221-0.144-0.511-0.216-0.87-0.216H284.716z M449.954,68.156
				c0.221,0.124,0.512,0.184,0.869,0.184h26.455c0.361,0,0.664-0.061,0.914-0.184c0.245-0.143,0.373-0.307,0.373-0.492
				c0-0.205-0.128-0.369-0.373-0.491c-0.25-0.144-0.553-0.216-0.914-0.216h-26.455c-0.359,0-0.648,0.072-0.869,0.216
				c-0.25,0.122-0.374,0.286-0.374,0.491C449.58,67.849,449.704,68.013,449.954,68.156z M437.056,67.663
				c0-0.205-0.123-0.369-0.373-0.491c-0.248-0.144-0.55-0.216-0.912-0.216h-26.454c-0.36,0-0.665,0.072-0.913,0.216
				c-0.248,0.122-0.373,0.286-0.373,0.491c0,0.186,0.127,0.35,0.373,0.493c0.251,0.122,0.553,0.184,0.913,0.184h26.454
				c0.362,0,0.664-0.062,0.912-0.184C436.933,68.013,437.056,67.849,437.056,67.663z M268.129,69.878
				c-0.968,0-1.784-0.185-2.446-0.553c-0.663-0.37-0.994-0.81-0.994-1.323v-0.708c0-0.512,0.333-0.954,0.994-1.322
				c0.662-0.37,1.478-0.553,2.446-0.553h215.123c0.965,0,1.781,0.184,2.446,0.553c0.662,0.368,0.992,0.809,0.992,1.322v0.708
				c0,0.513-0.33,0.953-0.992,1.323c-0.667,0.368-1.481,0.553-2.446,0.553H268.129z"/>
			<path fill="#A7AFB8" d="M478.565,115.119c0-0.186-0.128-0.339-0.373-0.461c-0.25-0.144-0.553-0.215-0.914-0.215h-26.455
				c-0.359,0-0.648,0.072-0.869,0.215c-0.25,0.123-0.374,0.277-0.374,0.461c0,0.205,0.126,0.368,0.374,0.491
				c0.221,0.145,0.512,0.217,0.869,0.217h26.455c0.361,0,0.664-0.072,0.914-0.217C478.437,115.487,478.565,115.323,478.565,115.119z
				 M312.413,115.119c0-0.186-0.124-0.339-0.373-0.461c-0.221-0.144-0.511-0.215-0.87-0.215h-26.454
				c-0.361,0-0.664,0.072-0.911,0.215c-0.251,0.123-0.375,0.277-0.375,0.461c0,0.205,0.124,0.368,0.375,0.491
				c0.248,0.145,0.55,0.217,0.911,0.217h26.454c0.359,0,0.649-0.072,0.87-0.217C312.289,115.487,312.413,115.323,312.413,115.119z
				 M353.962,115.119c0-0.186-0.124-0.339-0.373-0.461c-0.247-0.144-0.553-0.215-0.913-0.215h-26.453
				c-0.36,0-0.664,0.072-0.913,0.215c-0.248,0.123-0.374,0.277-0.374,0.461c0,0.205,0.126,0.368,0.374,0.491
				c0.25,0.145,0.553,0.217,0.913,0.217h26.453c0.36,0,0.666-0.072,0.913-0.217C353.838,115.487,353.962,115.323,353.962,115.119z
				 M409.317,114.442c-0.36,0-0.665,0.072-0.913,0.215c-0.248,0.123-0.373,0.277-0.373,0.461c0,0.205,0.127,0.368,0.373,0.491
				c0.251,0.145,0.553,0.217,0.913,0.217h26.454c0.362,0,0.664-0.072,0.912-0.217c0.25-0.123,0.373-0.286,0.373-0.491
				c0-0.186-0.123-0.339-0.373-0.461c-0.248-0.144-0.55-0.215-0.912-0.215H409.317z M395.51,115.119
				c0-0.186-0.124-0.339-0.375-0.461c-0.247-0.144-0.55-0.215-0.91-0.215h-26.456c-0.358,0-0.662,0.072-0.91,0.215
				c-0.249,0.123-0.373,0.277-0.373,0.461c0,0.205,0.124,0.368,0.373,0.491c0.248,0.145,0.552,0.217,0.91,0.217h26.456
				c0.36,0,0.665-0.072,0.91-0.217C395.385,115.487,395.51,115.323,395.51,115.119z M264.688,114.78
				c0-0.512,0.333-0.953,0.994-1.322c0.662-0.369,1.478-0.554,2.446-0.554h215.123c0.965,0,1.781,0.186,2.446,0.554
				c0.662,0.369,0.992,0.81,0.992,1.322v0.707c0,0.513-0.33,0.954-0.992,1.323c-0.667,0.369-1.481,0.553-2.446,0.553H268.129
				c-0.968,0-1.784-0.184-2.446-0.553c-0.663-0.37-0.994-0.81-0.994-1.323V114.78z"/>
			<path fill="#A7AFB8" d="M449.954,163.129c0.248,0.144,0.539,0.216,0.869,0.216h26.455c0.361,0,0.664-0.072,0.914-0.216
				c0.245-0.145,0.373-0.308,0.373-0.492c0-0.204-0.128-0.368-0.373-0.49c-0.25-0.145-0.553-0.218-0.914-0.218h-26.455
				c-0.359,0-0.648,0.073-0.869,0.218c-0.25,0.122-0.374,0.285-0.374,0.49C449.58,162.821,449.704,162.985,449.954,163.129z
				 M409.317,161.929c-0.36,0-0.665,0.073-0.913,0.218c-0.248,0.122-0.373,0.285-0.373,0.49c0,0.185,0.127,0.35,0.373,0.492
				c0.251,0.144,0.553,0.216,0.913,0.216h26.454c0.362,0,0.664-0.072,0.912-0.216c0.25-0.145,0.373-0.308,0.373-0.492
				c0-0.204-0.123-0.368-0.373-0.49c-0.248-0.145-0.55-0.218-0.912-0.218H409.317z M367.768,161.929
				c-0.358,0-0.662,0.073-0.911,0.218c-0.248,0.122-0.372,0.285-0.372,0.49c0,0.185,0.124,0.35,0.372,0.492
				c0.249,0.144,0.553,0.216,0.911,0.216h26.456c0.358,0,0.663-0.072,0.91-0.216c0.251-0.145,0.375-0.308,0.375-0.492
				c0-0.204-0.124-0.368-0.375-0.49c-0.247-0.145-0.552-0.218-0.91-0.218H367.768z M326.222,161.929
				c-0.36,0-0.664,0.073-0.913,0.218c-0.248,0.122-0.374,0.285-0.374,0.49c0,0.185,0.126,0.35,0.374,0.492
				c0.25,0.144,0.553,0.216,0.913,0.216h26.453c0.36,0,0.666-0.072,0.913-0.216c0.25-0.145,0.373-0.308,0.373-0.492
				c0-0.204-0.124-0.368-0.373-0.49c-0.247-0.145-0.553-0.218-0.913-0.218H326.222z M284.716,161.929
				c-0.361,0-0.664,0.073-0.911,0.218c-0.251,0.122-0.375,0.285-0.375,0.49c0,0.185,0.124,0.35,0.375,0.492
				c0.248,0.144,0.55,0.216,0.911,0.216h26.454c0.359,0,0.649-0.072,0.87-0.216c0.25-0.145,0.373-0.308,0.373-0.492
				c0-0.204-0.124-0.368-0.373-0.49c-0.221-0.145-0.511-0.218-0.87-0.218H284.716z M268.129,164.883
				c-0.939,0-1.756-0.186-2.446-0.554c-0.663-0.369-0.994-0.812-0.994-1.324v-0.737c0-0.514,0.333-0.955,0.994-1.322
				c0.691-0.369,1.507-0.555,2.446-0.555h215.123c0.938,0,1.752,0.186,2.446,0.555c0.662,0.369,0.992,0.809,0.992,1.322v0.737
				c0,0.513-0.33,0.955-0.992,1.324c-0.696,0.368-1.509,0.554-2.446,0.554H268.129z"/>
			<path fill="#A7AFB8" d="M479.123,210.018c0-0.185-0.119-0.338-0.372-0.461c-0.25-0.144-0.55-0.216-0.912-0.216h-26.453
				c-0.359,0-0.649,0.072-0.872,0.216c-0.248,0.123-0.373,0.276-0.373,0.461c0,0.205,0.128,0.368,0.373,0.49
				c0.223,0.145,0.513,0.218,0.872,0.218h26.453c0.362,0,0.662-0.073,0.912-0.218C479.004,210.386,479.123,210.223,479.123,210.018z
				 M312.975,210.018c0-0.185-0.124-0.338-0.374-0.461c-0.221-0.144-0.51-0.216-0.87-0.216h-26.455c-0.36,0-0.666,0.072-0.913,0.216
				c-0.249,0.123-0.373,0.276-0.373,0.461c0,0.205,0.125,0.368,0.373,0.49c0.248,0.145,0.553,0.218,0.913,0.218h26.455
				c0.359,0,0.649-0.073,0.87-0.218C312.852,210.386,312.975,210.223,312.975,210.018z M354.524,210.018
				c0-0.185-0.124-0.338-0.373-0.461c-0.251-0.144-0.554-0.216-0.913-0.216h-26.454c-0.359,0-0.664,0.072-0.912,0.216
				c-0.25,0.123-0.372,0.276-0.372,0.461c0,0.205,0.124,0.368,0.372,0.49c0.249,0.145,0.553,0.218,0.912,0.218h26.454
				c0.359,0,0.662-0.073,0.913-0.218C354.4,210.386,354.524,210.223,354.524,210.018z M396.074,210.018
				c0-0.185-0.129-0.338-0.374-0.461c-0.251-0.144-0.555-0.216-0.915-0.216h-26.453c-0.358,0-0.663,0.072-0.914,0.216
				c-0.246,0.123-0.371,0.276-0.371,0.461c0,0.205,0.126,0.368,0.371,0.49c0.252,0.145,0.556,0.218,0.914,0.218h26.453
				c0.36,0,0.664-0.073,0.915-0.218C395.945,210.386,396.074,210.223,396.074,210.018z M409.881,209.341
				c-0.361,0-0.664,0.072-0.914,0.216c-0.249,0.123-0.372,0.276-0.372,0.461c0,0.205,0.125,0.368,0.372,0.49
				c0.25,0.145,0.553,0.218,0.914,0.218h26.453c0.36,0,0.667-0.073,0.912-0.218c0.25-0.122,0.373-0.286,0.373-0.49
				c0-0.185-0.125-0.338-0.373-0.461c-0.248-0.144-0.552-0.216-0.912-0.216H409.881z M265.25,209.68
				c0-0.513,0.333-0.955,0.996-1.324c0.662-0.368,1.478-0.555,2.445-0.555h215.122c0.969,0,1.782,0.187,2.444,0.555
				c0.663,0.37,0.995,0.812,0.995,1.324v0.706c0,0.514-0.332,0.954-0.995,1.323c-0.662,0.369-1.476,0.554-2.444,0.554H268.691
				c-0.967,0-1.784-0.185-2.445-0.554c-0.666-0.369-0.996-0.81-0.996-1.323V209.68L265.25,209.68z"/>
			<path fill="#A7AFB8" d="M450.513,258.03c0.251,0.143,0.542,0.215,0.872,0.215h26.453c0.362,0,0.662-0.072,0.912-0.215
				c0.253-0.145,0.372-0.31,0.372-0.493c0-0.205-0.119-0.368-0.372-0.491c-0.25-0.145-0.55-0.217-0.912-0.217h-26.453
				c-0.359,0-0.649,0.072-0.872,0.217c-0.248,0.123-0.373,0.286-0.373,0.491C450.14,257.72,450.265,257.885,450.513,258.03z
				 M409.881,256.827c-0.361,0-0.664,0.073-0.914,0.218c-0.249,0.122-0.372,0.285-0.372,0.49c0,0.185,0.125,0.35,0.372,0.493
				c0.25,0.143,0.553,0.215,0.914,0.215h26.453c0.36,0,0.667-0.072,0.912-0.215c0.25-0.145,0.373-0.309,0.373-0.493
				c0-0.205-0.125-0.368-0.373-0.49c-0.248-0.145-0.552-0.218-0.912-0.218H409.881z M368.331,256.827
				c-0.358,0-0.664,0.073-0.913,0.218c-0.247,0.122-0.371,0.285-0.371,0.49c0,0.185,0.125,0.35,0.371,0.493
				c0.251,0.143,0.555,0.215,0.913,0.215h26.454c0.358,0,0.664-0.072,0.912-0.215c0.248-0.145,0.377-0.309,0.377-0.493
				c0-0.205-0.129-0.368-0.377-0.49c-0.248-0.145-0.554-0.218-0.912-0.218H368.331z M326.784,256.827
				c-0.359,0-0.664,0.073-0.912,0.218c-0.25,0.122-0.372,0.285-0.372,0.49c0,0.185,0.124,0.35,0.372,0.493
				c0.249,0.143,0.553,0.215,0.912,0.215h26.454c0.359,0,0.662-0.072,0.913-0.215c0.249-0.145,0.373-0.309,0.373-0.493
				c0-0.205-0.124-0.368-0.373-0.49c-0.251-0.145-0.554-0.218-0.913-0.218H326.784z M285.278,256.827
				c-0.359,0-0.664,0.073-0.913,0.218c-0.249,0.122-0.373,0.285-0.373,0.49c0,0.185,0.124,0.35,0.373,0.493
				c0.249,0.143,0.554,0.215,0.913,0.215h26.455c0.359,0,0.65-0.072,0.87-0.215c0.251-0.145,0.375-0.309,0.375-0.493
				c0-0.205-0.124-0.368-0.375-0.49c-0.22-0.145-0.511-0.218-0.87-0.218H285.278z M268.691,259.781c-0.94,0-1.755-0.185-2.445-0.554
				c-0.666-0.369-0.996-0.811-0.996-1.323v-0.737c0-0.514,0.333-0.955,0.996-1.323c0.689-0.369,1.505-0.554,2.445-0.554h215.122
				c0.941,0,1.752,0.185,2.444,0.554c0.665,0.368,0.995,0.81,0.995,1.323v0.737c0,0.513-0.332,0.954-0.995,1.323
				c-0.692,0.369-1.503,0.554-2.444,0.554H268.691z"/>
		</g>
	</g>
</g>
<g>
	<g>
		<polygon fill="#CF4F27" points="47.989,265.519 58.161,258.225 71.765,295.213 59.212,296.189 		"/>
		<g>
			<path fill="none" stroke="#E27049" stroke-width="1.35" stroke-linecap="round" d="M48.477,267.219l9.025-6.779 M49.28,269.544
				l9.386-6.095 M50.202,272.031l9.467-5.574 M51.084,274.519l9.746-5.014 M52.008,277.005l9.946-4.573 M52.85,279.491l10.188-4.01
				 M56.5,289.32l10.87-1.846 M58.304,294.292l11.312-0.844 M57.382,291.685l11.11-1.201 M55.657,286.871l10.668-2.364
				 M54.655,284.466l10.549-3.049 M53.772,281.979l10.349-3.569"/>
		</g>
	</g>
	
		<line fill="none" stroke="#6D3E3E" stroke-width="2" stroke-linecap="round" stroke-linejoin="round" stroke-miterlimit="3" x1="59.005" y1="295.178" x2="40.229" y2="242.156"/>
</g>
<g>
	<path fill="#CF4F27" d="M36.255,252.005c0.339,0.043,0.613,0.199,0.82,0.466c0.237,0.306,0.334,0.628,0.29,0.968l-4.072,32.139
		c-0.043,0.338-0.218,0.625-0.523,0.863c-0.267,0.207-0.571,0.288-0.91,0.247l-2.796-0.355c-0.339-0.042-0.612-0.197-0.819-0.465
		c-0.203-0.301-0.284-0.622-0.24-0.962l4.072-32.139c0.043-0.338,0.201-0.628,0.472-0.869c0.268-0.208,0.57-0.29,0.91-0.246
		L36.255,252.005z"/>
	<path fill="#E0643A" d="M24.088,266.482l17.542,2.221c1.66,0.212,3.009,0.985,4.044,2.322c1.037,1.337,1.447,2.852,1.231,4.548
		l-2.436,19.222l-29.645-3.757l2.437-19.223c0.214-1.695,0.99-3.06,2.327-4.097C20.927,266.684,22.427,266.269,24.088,266.482z"/>
	<path fill="#CF4F27" d="M23.423,271.718l17.542,2.224c1.662,0.211,3.009,0.983,4.045,2.32s1.446,2.853,1.232,4.55l-1.772,13.982
		l-29.644-3.757l1.771-13.984c0.215-1.694,0.992-3.061,2.327-4.097C20.263,271.921,21.763,271.509,23.423,271.718z"/>
	<line fill="none" stroke="#E0643A" stroke-width="1.7" stroke-linecap="round" x1="17.61" y1="288.24" x2="42.525" y2="291.397"/>
	<path fill="#040406" d="M33.397,254.588c0.038-0.306,0.188-0.544,0.452-0.719c0.229-0.178,0.497-0.248,0.802-0.207
		c0.271,0.033,0.512,0.167,0.724,0.399c0.178,0.23,0.247,0.498,0.208,0.802c-0.038,0.307-0.175,0.565-0.408,0.775
		c-0.263,0.173-0.53,0.243-0.801,0.209c-0.305-0.039-0.547-0.173-0.725-0.401C33.441,255.179,33.357,254.894,33.397,254.588z"/>
</g>
<path fill="#E6E7E8" stroke="#E6E7E8" stroke-miterlimit="10" d="M85.466,53.221c0,4.766-3.863,8.629-8.629,8.629H65.332
	c-4.766,0-8.628-3.863-8.628-8.629V41.716c0-4.766,3.863-8.629,8.628-8.629h11.505c4.766,0,8.629,3.863,8.629,8.629V53.221z"/>
<path fill="#E6E7E8" stroke="#E6E7E8" stroke-miterlimit="10" d="M85.466,100.333c0,4.765-3.863,8.628-8.629,8.628H65.332
	c-4.766,0-8.628-3.863-8.628-8.628V88.828c0-4.766,3.863-8.629,8.628-8.629h11.505c4.766,0,8.629,3.863,8.629,8.629V100.333z"/>
<path fill="#E6E7E8" stroke="#E6E7E8" stroke-miterlimit="10" d="M85.253,148.776c0,4.766-3.863,8.629-8.629,8.629H65.119
	c-4.766,0-8.628-3.863-8.628-8.629v-11.505c0-4.766,3.863-8.629,8.628-8.629h11.505c4.766,0,8.629,3.863,8.629,8.629V148.776z"/>
<path fill="#E6E7E8" stroke="#E6E7E8" stroke-miterlimit="10" d="M85.466,195.439c0,4.765-3.863,8.628-8.629,8.628H65.332
	c-4.766,0-8.628-3.863-8.628-8.628v-11.506c0-4.766,3.863-8.628,8.628-8.628h11.505c4.766,0,8.629,3.862,8.629,8.628V195.439z"/>
<path fill="#E6E7E8" stroke="#E6E7E8" stroke-miterlimit="10" d="M85.466,243.012c0,4.765-3.863,8.628-8.629,8.628H65.332
	c-4.766,0-8.628-3.863-8.628-8.628v-11.505c0-4.766,3.863-8.63,8.628-8.63h11.505c4.766,0,8.629,3.864,8.629,8.63V243.012z"/>
<g>
	<rect x="65.153" y="38.628" fill="none" width="17.617" height="17.257"/>
	<path fill="#F05A28" d="M66.754,53.512v-2.286h3.507v-8.848l-3.054,1.686l-0.843-2.096l4.371-2.307h2.159v11.565h3.023v2.286
		H66.754z"/>
</g>
<g>
	<rect x="65.153" y="85.951" fill="none" width="17.617" height="17.257"/>
	<path fill="#F05A28" d="M66.511,100.835v-1.896l3.255-3.255c0.611-0.611,1.101-1.138,1.469-1.58s0.653-0.837,0.853-1.185
		c0.2-0.348,0.332-0.669,0.395-0.964c0.063-0.295,0.095-0.601,0.095-0.917c0-0.26-0.042-0.507-0.126-0.743
		c-0.084-0.235-0.207-0.438-0.369-0.611c-0.162-0.172-0.365-0.309-0.611-0.411c-0.246-0.102-0.526-0.153-0.843-0.153
		c-0.541,0-1.042,0.118-1.506,0.353c-0.464,0.235-0.902,0.549-1.317,0.942l-1.359-1.749c0.597-0.555,1.27-0.999,2.017-1.333
		c0.748-0.333,1.557-0.5,2.428-0.5c0.674,0,1.285,0.086,1.833,0.258c0.548,0.172,1.017,0.427,1.406,0.764
		c0.39,0.337,0.692,0.758,0.906,1.264c0.214,0.505,0.321,1.088,0.321,1.749c0,0.548-0.074,1.059-0.221,1.533
		c-0.147,0.474-0.362,0.936-0.643,1.385c-0.281,0.45-0.626,0.899-1.037,1.349c-0.411,0.449-0.88,0.923-1.406,1.422l-2.001,1.906
		h5.804v2.37H66.511z"/>
</g>
<g>
	<rect x="65.658" y="134.394" fill="none" width="17.617" height="17.257"/>
	<path fill="#F05A28" d="M76.402,145.076c0,0.681-0.126,1.294-0.379,1.838c-0.253,0.544-0.641,1.008-1.164,1.391
		s-1.182,0.676-1.975,0.879s-1.727,0.305-2.802,0.305c-0.239,0-0.49-0.005-0.753-0.016c-0.263-0.01-0.525-0.024-0.785-0.042
		s-0.513-0.039-0.758-0.063c-0.246-0.024-0.467-0.054-0.664-0.089v-2.233c0.442,0.084,0.939,0.153,1.49,0.205
		c0.551,0.053,1.125,0.079,1.722,0.079c0.583,0,1.085-0.049,1.506-0.147c0.421-0.098,0.769-0.24,1.042-0.427
		c0.274-0.186,0.476-0.416,0.606-0.689c0.13-0.274,0.195-0.583,0.195-0.927c0-0.302-0.067-0.576-0.2-0.821
		c-0.133-0.246-0.337-0.455-0.611-0.627c-0.274-0.172-0.624-0.306-1.048-0.4s-0.929-0.142-1.511-0.142h-1.527v-1.959h1.401
		c0.548,0,1.002-0.055,1.364-0.164c0.361-0.109,0.649-0.254,0.863-0.437c0.214-0.183,0.367-0.398,0.458-0.648
		c0.091-0.249,0.137-0.511,0.137-0.785c0-0.562-0.183-0.988-0.547-1.28c-0.365-0.291-0.931-0.437-1.696-0.437
		c-0.547,0-1.088,0.053-1.622,0.158c-0.534,0.105-1.085,0.246-1.653,0.421v-2.159c0.316-0.105,0.618-0.193,0.906-0.263
		c0.288-0.07,0.576-0.13,0.864-0.179c0.288-0.049,0.579-0.084,0.874-0.105c0.295-0.021,0.601-0.031,0.917-0.031
		c0.758,0,1.423,0.081,1.996,0.242c0.572,0.162,1.053,0.392,1.443,0.69s0.683,0.662,0.879,1.09c0.197,0.428,0.295,0.906,0.295,1.432
		c0,0.836-0.191,1.512-0.574,2.028c-0.383,0.516-0.918,0.911-1.606,1.185c0.442,0.07,0.843,0.191,1.201,0.363
		c0.358,0.172,0.666,0.394,0.922,0.664c0.256,0.271,0.453,0.581,0.59,0.932C76.333,144.258,76.402,144.648,76.402,145.076z"/>
</g>
<g>
	<rect x="65.153" y="181.775" fill="none" width="17.617" height="17.259"/>
	<path fill="#F05A28" d="M74.474,193.858v2.802h-2.507v-2.802h-6.404v-2.201l5.372-8.764h3.539v8.7h2.086v2.265H74.474z
		 M71.999,185.378l-3.918,6.215h3.918V185.378z"/>
</g>
<g>
	<rect x="65.871" y="229.349" fill="none" width="17.617" height="17.258"/>
	<path fill="#F05A28" d="M76.468,239.83c0,0.737-0.154,1.393-0.463,1.965s-0.737,1.055-1.285,1.448
		c-0.548,0.394-1.194,0.691-1.938,0.896c-0.744,0.203-1.552,0.306-2.422,0.306c-0.218,0-0.45-0.008-0.695-0.021
		c-0.246-0.014-0.495-0.031-0.748-0.053c-0.252-0.021-0.499-0.047-0.737-0.079c-0.239-0.031-0.46-0.064-0.664-0.1v-2.244
		c0.4,0.099,0.86,0.178,1.38,0.237s1.05,0.09,1.591,0.09c1.053,0,1.855-0.202,2.407-0.605c0.551-0.404,0.827-0.964,0.827-1.681
		c0-0.744-0.256-1.297-0.769-1.659c-0.513-0.361-1.341-0.542-2.486-0.542h-2.696v-7.32h7.942v2.422h-5.541v2.803h0.99
		c0.702,0,1.373,0.063,2.012,0.189c0.639,0.126,1.203,0.346,1.691,0.658c0.488,0.313,0.877,0.735,1.169,1.27
		C76.322,238.342,76.468,239.016,76.468,239.83z"/>
</g>
</svg>
