<?xml version="1.0" encoding="utf-8"?>
<!-- Generator: Adobe Illustrator 15.1.0, SVG Export Plug-In . SVG Version: 6.00 Build 0)  -->
<!DOCTYPE svg PUBLIC "-//W3C//DTD SVG 1.1//EN" "http://www.w3.org/Graphics/SVG/1.1/DTD/svg11.dtd">
<svg version="1.1" id="Layer_1" xmlns="http://www.w3.org/2000/svg" xmlns:xlink="http://www.w3.org/1999/xlink" x="0px" y="0px"
	 width="676px" height="304px" viewBox="0 0 676 304" enable-background="new 0 0 676 304" xml:space="preserve">
<g>
	<g>
		<g>
			<path fill-rule="evenodd" clip-rule="evenodd" fill="#A7AFB8" d="M187.307,20.69c-0.504,0-0.931,0.089-1.28,0.267
				c-0.349,0.151-0.523,0.354-0.523,0.607c0,0.229,0.175,0.431,0.523,0.608c0.349,0.152,0.776,0.228,1.28,0.228h37.103
				c0.503,0,0.93-0.076,1.279-0.228c0.349-0.177,0.523-0.38,0.523-0.608c0-0.253-0.174-0.456-0.523-0.607
				c-0.349-0.177-0.775-0.267-1.279-0.267H187.307z M129.036,20.69c-0.504,0-0.931,0.089-1.279,0.267
				c-0.349,0.151-0.524,0.354-0.524,0.607c0,0.229,0.175,0.431,0.524,0.608c0.349,0.152,0.775,0.228,1.279,0.228h37.102
				c0.504,0,0.931-0.076,1.279-0.228c0.35-0.177,0.523-0.38,0.523-0.608c0-0.253-0.173-0.456-0.523-0.607
				c-0.349-0.177-0.775-0.267-1.279-0.267H129.036z M70.824,20.69c-0.504,0-0.93,0.089-1.28,0.267
				c-0.348,0.151-0.523,0.354-0.523,0.607c0,0.229,0.175,0.431,0.523,0.608c0.35,0.152,0.776,0.228,1.28,0.228h37.102
				c0.504,0,0.911-0.076,1.221-0.228c0.35-0.177,0.523-0.38,0.523-0.608c0-0.253-0.173-0.456-0.523-0.607
				c-0.31-0.177-0.717-0.267-1.221-0.267H70.824z M302.568,22.173c0.31,0.152,0.716,0.228,1.221,0.228h37.103
				c0.503,0,0.929-0.076,1.279-0.228c0.349-0.177,0.522-0.38,0.522-0.608c0-0.253-0.174-0.456-0.522-0.607
				c-0.351-0.177-0.776-0.267-1.279-0.267h-37.103c-0.505,0-0.912,0.089-1.221,0.267c-0.35,0.151-0.523,0.354-0.523,0.607
				C302.044,21.793,302.218,21.996,302.568,22.173z M284.481,21.564c0-0.253-0.173-0.456-0.523-0.607
				c-0.349-0.177-0.775-0.267-1.279-0.267h-37.103c-0.503,0-0.931,0.089-1.279,0.267c-0.349,0.151-0.523,0.354-0.523,0.607
				c0,0.229,0.175,0.431,0.523,0.608c0.348,0.152,0.776,0.228,1.279,0.228h37.103c0.504,0,0.93-0.076,1.279-0.228
				C284.308,21.996,284.481,21.793,284.481,21.564z M47.563,24.301c-1.357,0-2.5-0.228-3.431-0.684
				c-0.93-0.457-1.396-1.001-1.396-1.634v-0.875c0-0.633,0.465-1.179,1.396-1.634c0.931-0.457,2.074-0.684,3.431-0.684h301.702
				c1.359,0,2.502,0.228,3.432,0.684c0.93,0.455,1.397,1,1.397,1.634v0.875c0,0.633-0.468,1.177-1.397,1.634
				c-0.93,0.456-2.072,0.684-3.432,0.684H47.563z"/>
			<path fill-rule="evenodd" clip-rule="evenodd" fill="#A7AFB8" d="M342.693,80.215c0-0.229-0.174-0.419-0.522-0.57
				c-0.351-0.178-0.776-0.267-1.279-0.267h-37.103c-0.505,0-0.912,0.089-1.221,0.267c-0.35,0.151-0.523,0.342-0.523,0.57
				c0,0.253,0.174,0.455,0.523,0.607c0.31,0.178,0.716,0.267,1.221,0.267h37.103c0.503,0,0.929-0.089,1.279-0.267
				C342.52,80.67,342.693,80.468,342.693,80.215z M109.67,80.215c0-0.229-0.173-0.419-0.523-0.57
				c-0.31-0.178-0.717-0.267-1.221-0.267H70.824c-0.504,0-0.93,0.089-1.28,0.267c-0.348,0.151-0.523,0.342-0.523,0.57
				c0,0.253,0.175,0.455,0.523,0.607c0.35,0.178,0.776,0.267,1.28,0.267h37.102c0.504,0,0.911-0.089,1.221-0.267
				C109.497,80.67,109.67,80.468,109.67,80.215z M167.941,80.215c0-0.229-0.173-0.419-0.523-0.57
				c-0.349-0.178-0.775-0.267-1.279-0.267h-37.102c-0.504,0-0.931,0.089-1.279,0.267c-0.349,0.151-0.524,0.342-0.524,0.57
				c0,0.253,0.175,0.455,0.524,0.607c0.349,0.178,0.775,0.267,1.279,0.267h37.102c0.504,0,0.931-0.089,1.279-0.267
				C167.768,80.67,167.941,80.468,167.941,80.215z M226.211,80.215c0-0.229-0.174-0.419-0.523-0.57
				c-0.349-0.178-0.775-0.267-1.279-0.267h-37.103c-0.504,0-0.931,0.089-1.28,0.267c-0.349,0.151-0.523,0.342-0.523,0.57
				c0,0.253,0.175,0.455,0.523,0.607c0.349,0.178,0.776,0.267,1.28,0.267h37.103c0.503,0,0.93-0.089,1.279-0.267
				C226.037,80.67,226.211,80.468,226.211,80.215z M245.577,79.378c-0.503,0-0.931,0.089-1.279,0.267
				c-0.349,0.151-0.523,0.342-0.523,0.57c0,0.253,0.175,0.455,0.523,0.607c0.348,0.178,0.776,0.267,1.279,0.267h37.103
				c0.504,0,0.93-0.089,1.279-0.267c0.35-0.152,0.523-0.354,0.523-0.607c0-0.229-0.173-0.419-0.523-0.57
				c-0.349-0.178-0.775-0.267-1.279-0.267H245.577z M42.736,79.796c0-0.633,0.465-1.178,1.396-1.634
				c0.931-0.456,2.074-0.684,3.431-0.684h301.702c1.359,0,2.502,0.229,3.432,0.684c0.93,0.456,1.397,1.001,1.397,1.634v0.874
				c0,0.634-0.468,1.179-1.397,1.635c-0.93,0.456-2.072,0.684-3.432,0.684H47.563c-1.357,0-2.5-0.228-3.431-0.684
				c-0.93-0.457-1.396-1.001-1.396-1.635V79.796z"/>
			<path fill-rule="evenodd" clip-rule="evenodd" fill="#A7AFB8" d="M302.568,139.552c0.349,0.177,0.755,0.266,1.221,0.266h37.103
				c0.503,0,0.929-0.089,1.279-0.266c0.349-0.179,0.522-0.381,0.522-0.608c0-0.253-0.174-0.456-0.522-0.608
				c-0.351-0.178-0.776-0.268-1.279-0.268h-37.103c-0.505,0-0.912,0.09-1.221,0.268c-0.35,0.152-0.523,0.354-0.523,0.608
				C302.044,139.17,302.218,139.373,302.568,139.552z M245.577,138.068c-0.503,0-0.931,0.09-1.279,0.268
				c-0.349,0.152-0.523,0.354-0.523,0.608c0,0.227,0.175,0.43,0.523,0.608c0.348,0.177,0.776,0.266,1.279,0.266h37.103
				c0.504,0,0.93-0.089,1.279-0.266c0.35-0.179,0.523-0.381,0.523-0.608c0-0.253-0.173-0.456-0.523-0.608
				c-0.349-0.178-0.775-0.268-1.279-0.268H245.577z M187.307,138.068c-0.504,0-0.931,0.09-1.28,0.268
				c-0.349,0.152-0.523,0.354-0.523,0.608c0,0.227,0.175,0.43,0.523,0.608c0.349,0.177,0.776,0.266,1.28,0.266h37.103
				c0.503,0,0.93-0.089,1.279-0.266c0.349-0.179,0.523-0.381,0.523-0.608c0-0.253-0.174-0.456-0.523-0.608
				c-0.349-0.178-0.775-0.268-1.279-0.268H187.307z M129.036,138.068c-0.504,0-0.931,0.09-1.279,0.268
				c-0.349,0.152-0.524,0.354-0.524,0.608c0,0.227,0.175,0.43,0.524,0.608c0.349,0.177,0.775,0.266,1.279,0.266h37.102
				c0.504,0,0.931-0.089,1.279-0.266c0.35-0.179,0.523-0.381,0.523-0.608c0-0.253-0.173-0.456-0.523-0.608
				c-0.349-0.178-0.775-0.268-1.279-0.268H129.036z M70.824,138.068c-0.504,0-0.93,0.09-1.28,0.268
				c-0.348,0.152-0.523,0.354-0.523,0.608c0,0.227,0.175,0.43,0.523,0.608c0.35,0.177,0.776,0.266,1.28,0.266h37.102
				c0.504,0,0.911-0.089,1.221-0.266c0.35-0.179,0.523-0.381,0.523-0.608c0-0.253-0.173-0.456-0.523-0.608
				c-0.31-0.178-0.717-0.268-1.221-0.268H70.824z M47.563,141.719c-1.318,0-2.462-0.229-3.431-0.685
				c-0.93-0.456-1.396-1.002-1.396-1.636v-0.911c0-0.635,0.465-1.18,1.396-1.635c0.969-0.455,2.113-0.685,3.431-0.685h301.702
				c1.318,0,2.463,0.229,3.432,0.685c0.93,0.456,1.397,1,1.397,1.635v0.911c0,0.634-0.468,1.18-1.397,1.636
				c-0.969,0.456-2.113,0.685-3.432,0.685H47.563z"/>
			<path fill-rule="evenodd" clip-rule="evenodd" fill="#A7AFB8" d="M669.24,263.198l2.861-3.043
				c0.119-0.125,0.178-0.289,0.178-0.492c0-0.202-0.059-0.38-0.178-0.532c-0.121-0.127-0.276-0.19-0.465-0.19
				c-0.215,0-0.383,0.063-0.502,0.19l-2.862,3.04l-2.861-3.04c-0.144-0.127-0.309-0.19-0.5-0.19s-0.346,0.063-0.465,0.19
				c-0.144,0.152-0.214,0.33-0.214,0.532c0,0.203,0.07,0.367,0.214,0.492l2.861,3.043l-2.861,3.078
				c-0.144,0.127-0.214,0.291-0.214,0.494s0.07,0.38,0.214,0.533c0.31,0.329,0.63,0.329,0.965,0l2.861-3.079l2.862,3.079
				c0.119,0.125,0.287,0.189,0.502,0.189c0.188,0,0.344-0.064,0.465-0.189c0.119-0.153,0.178-0.33,0.178-0.533
				s-0.059-0.367-0.178-0.494L669.24,263.198z M665.411,242.33c-0.144-0.126-0.309-0.19-0.5-0.19s-0.346,0.064-0.465,0.19
				c-0.144,0.151-0.214,0.33-0.214,0.533c0,0.202,0.07,0.366,0.214,0.492l2.861,3.041l-2.861,3.041
				c-0.144,0.153-0.214,0.331-0.214,0.533s0.07,0.366,0.214,0.493c0.119,0.152,0.273,0.229,0.465,0.229s0.356-0.077,0.5-0.229
				l2.861-3.04l2.862,3.04c0.119,0.152,0.287,0.229,0.502,0.229c0.188,0,0.344-0.077,0.465-0.229
				c0.119-0.127,0.178-0.291,0.178-0.493s-0.059-0.38-0.178-0.533l-2.861-3.041l2.861-3.041c0.119-0.126,0.178-0.29,0.178-0.492
				c0-0.203-0.059-0.382-0.178-0.533c-0.121-0.126-0.276-0.19-0.465-0.19c-0.215,0-0.383,0.064-0.502,0.19l-2.862,3.041
				L665.411,242.33z M672.279,226.063c0-0.229-0.059-0.406-0.178-0.534c-0.121-0.125-0.276-0.188-0.465-0.188
				c-0.215,0-0.383,0.063-0.502,0.188l-2.862,3.043l-2.861-3.043c-0.144-0.125-0.309-0.188-0.5-0.188s-0.346,0.063-0.465,0.188
				c-0.144,0.128-0.214,0.306-0.214,0.534c0,0.201,0.07,0.366,0.214,0.493l2.861,3.041l-2.861,3.041
				c-0.144,0.151-0.214,0.328-0.214,0.531c0,0.202,0.07,0.367,0.214,0.495c0.119,0.152,0.273,0.229,0.465,0.229
				s0.356-0.076,0.5-0.229l2.861-3.04l2.862,3.04c0.119,0.152,0.287,0.229,0.502,0.229c0.188,0,0.344-0.076,0.465-0.229
				c0.119-0.128,0.178-0.293,0.178-0.495c0-0.203-0.059-0.38-0.178-0.531l-2.861-3.041l2.861-3.041
				C672.221,226.429,672.279,226.264,672.279,226.063z M665.411,208.729c-0.335-0.354-0.655-0.354-0.965,0
				c-0.144,0.128-0.214,0.293-0.214,0.495c0,0.203,0.07,0.38,0.214,0.533l2.861,3.039l-2.861,3.041
				c-0.144,0.152-0.214,0.329-0.214,0.531c0,0.203,0.07,0.368,0.214,0.495c0.119,0.151,0.273,0.229,0.465,0.229
				s0.356-0.077,0.5-0.229l2.861-3.041l2.862,3.041c0.119,0.151,0.287,0.229,0.502,0.229c0.188,0,0.344-0.077,0.465-0.229
				c0.119-0.127,0.178-0.292,0.178-0.495c0-0.202-0.059-0.379-0.178-0.531l-2.861-3.041l2.861-3.039
				c0.119-0.153,0.178-0.33,0.178-0.533c0-0.202-0.059-0.367-0.178-0.495c-0.121-0.151-0.276-0.229-0.465-0.229
				c-0.215,0-0.383,0.077-0.502,0.229l-2.862,3.041L665.411,208.729z M672.102,192.956c0.119-0.154,0.178-0.33,0.178-0.533
				s-0.059-0.368-0.178-0.494c-0.121-0.152-0.276-0.229-0.465-0.229c-0.215,0-0.383,0.076-0.502,0.229l-2.862,3.04l-2.861-3.04
				c-0.335-0.354-0.655-0.354-0.965,0c-0.144,0.126-0.214,0.291-0.214,0.494s0.07,0.379,0.214,0.533l2.861,3.039l-2.861,3.042
				c-0.144,0.126-0.214,0.303-0.214,0.53c0,0.204,0.07,0.37,0.214,0.496c0.31,0.329,0.63,0.329,0.965,0l2.861-3.042l2.862,3.042
				c0.119,0.127,0.287,0.189,0.502,0.189c0.188,0,0.344-0.063,0.465-0.189c0.119-0.126,0.178-0.292,0.178-0.496
				c0-0.228-0.059-0.404-0.178-0.53l-2.861-3.042L672.102,192.956z M665.411,175.129c-0.335-0.354-0.655-0.354-0.965,0
				c-0.144,0.126-0.214,0.291-0.214,0.493c0,0.203,0.07,0.38,0.214,0.532l2.861,3.041l-2.861,3.041
				c-0.144,0.126-0.214,0.304-0.214,0.532c0,0.202,0.07,0.367,0.214,0.494c0.31,0.329,0.63,0.329,0.965,0l2.861-3.04l2.862,3.04
				c0.119,0.125,0.287,0.189,0.502,0.189c0.188,0,0.344-0.064,0.465-0.189c0.119-0.127,0.178-0.292,0.178-0.494
				c0-0.229-0.059-0.406-0.178-0.532l-2.861-3.041l2.861-3.041c0.119-0.152,0.178-0.329,0.178-0.532
				c0-0.202-0.059-0.367-0.178-0.493c-0.121-0.152-0.276-0.229-0.465-0.229c-0.215,0-0.383,0.076-0.502,0.229l-2.862,3.04
				L665.411,175.129z M669.24,162.395l2.861-3.079c0.119-0.127,0.178-0.29,0.178-0.494c0-0.201-0.059-0.38-0.178-0.531
				c-0.121-0.127-0.276-0.191-0.465-0.191c-0.215,0-0.383,0.064-0.502,0.191l-2.862,3.078l-2.861-3.078
				c-0.144-0.127-0.309-0.191-0.5-0.191s-0.346,0.064-0.465,0.191c-0.144,0.151-0.214,0.33-0.214,0.531
				c0,0.204,0.07,0.367,0.214,0.494l2.861,3.079l-2.861,3.041c-0.144,0.127-0.214,0.291-0.214,0.494s0.07,0.38,0.214,0.532
				c0.31,0.329,0.63,0.329,0.965,0l2.861-3.04l2.862,3.04c0.119,0.126,0.287,0.19,0.502,0.19c0.188,0,0.344-0.064,0.465-0.19
				c0.119-0.152,0.178-0.329,0.178-0.532s-0.059-0.367-0.178-0.494L669.24,162.395z M664.232,142.021
				c0,0.202,0.07,0.367,0.214,0.494l2.861,3.079l-2.861,3.042c-0.144,0.126-0.214,0.292-0.214,0.493c0,0.204,0.07,0.381,0.214,0.533
				c0.31,0.329,0.63,0.329,0.965,0l2.861-3.042l2.862,3.042c0.119,0.126,0.287,0.189,0.502,0.189c0.188,0,0.344-0.063,0.465-0.189
				c0.119-0.152,0.178-0.329,0.178-0.533c0-0.202-0.059-0.367-0.178-0.493l-2.861-3.042l2.861-3.079
				c0.119-0.126,0.178-0.292,0.178-0.494c0-0.204-0.059-0.379-0.178-0.533c-0.121-0.125-0.276-0.189-0.465-0.189
				c-0.215,0-0.383,0.064-0.502,0.189l-2.862,3.079l-2.861-3.079c-0.144-0.125-0.309-0.189-0.5-0.189s-0.346,0.064-0.465,0.189
				C664.303,141.642,664.232,141.818,664.232,142.021z M671.637,124.499c-0.215,0-0.383,0.063-0.502,0.189l-2.862,3.042
				l-2.861-3.042c-0.144-0.126-0.309-0.189-0.5-0.189s-0.346,0.063-0.465,0.189c-0.144,0.153-0.214,0.33-0.214,0.533
				c0,0.203,0.07,0.368,0.214,0.495l2.861,3.041l-2.861,3.079c-0.144,0.126-0.214,0.291-0.214,0.493c0,0.204,0.07,0.381,0.214,0.533
				c0.31,0.329,0.63,0.329,0.965,0l2.861-3.079l2.862,3.079c0.119,0.127,0.287,0.19,0.502,0.19c0.188,0,0.344-0.063,0.465-0.19
				c0.119-0.152,0.178-0.33,0.178-0.533c0-0.203-0.059-0.367-0.178-0.493l-2.861-3.079l2.861-3.041
				c0.119-0.127,0.178-0.292,0.178-0.495c0-0.203-0.059-0.38-0.178-0.533C671.98,124.562,671.825,124.499,671.637,124.499z
				 M672.102,108.915c0.119-0.126,0.178-0.292,0.178-0.494s-0.059-0.379-0.178-0.533c-0.121-0.126-0.276-0.189-0.465-0.189
				c-0.215,0-0.383,0.063-0.502,0.189l-2.862,3.041l-2.861-3.041c-0.144-0.126-0.309-0.189-0.5-0.189s-0.346,0.063-0.465,0.189
				c-0.144,0.153-0.214,0.33-0.214,0.533s0.07,0.368,0.214,0.494l2.861,3.041l-2.861,3.041c-0.144,0.151-0.214,0.33-0.214,0.532
				c0,0.202,0.07,0.368,0.214,0.494c0.119,0.152,0.273,0.228,0.465,0.228s0.356-0.076,0.5-0.228l2.861-3.041l2.862,3.041
				c0.119,0.152,0.287,0.228,0.502,0.228c0.188,0,0.344-0.076,0.465-0.228c0.119-0.126,0.178-0.292,0.178-0.494
				c0-0.203-0.059-0.381-0.178-0.532l-2.861-3.041L672.102,108.915z M665.411,91.088c-0.144-0.127-0.309-0.189-0.5-0.189
				s-0.346,0.063-0.465,0.189c-0.144,0.127-0.214,0.304-0.214,0.532c0,0.203,0.07,0.368,0.214,0.495l2.861,3.041l-2.861,3.041
				c-0.144,0.152-0.214,0.33-0.214,0.533c0,0.202,0.07,0.367,0.214,0.493c0.119,0.152,0.273,0.229,0.465,0.229
				s0.356-0.077,0.5-0.229l2.861-3.041l2.862,3.041c0.119,0.152,0.287,0.229,0.502,0.229c0.188,0,0.344-0.077,0.465-0.229
				c0.119-0.126,0.178-0.291,0.178-0.493c0-0.203-0.059-0.38-0.178-0.533l-2.861-3.041l2.861-3.041
				c0.119-0.127,0.178-0.292,0.178-0.495c0-0.228-0.059-0.405-0.178-0.532c-0.121-0.127-0.276-0.189-0.465-0.189
				c-0.215,0-0.383,0.063-0.502,0.189l-2.862,3.041L665.411,91.088z M672.102,75.314c0.119-0.152,0.178-0.33,0.178-0.533
				c0-0.203-0.059-0.367-0.178-0.494c-0.121-0.152-0.276-0.229-0.465-0.229c-0.215,0-0.383,0.077-0.502,0.229l-2.862,3.041
				l-2.861-3.041c-0.335-0.355-0.655-0.355-0.965,0c-0.144,0.126-0.214,0.291-0.214,0.494c0,0.203,0.07,0.38,0.214,0.533
				l2.861,3.041l-2.861,3.04c-0.144,0.152-0.214,0.329-0.214,0.532c0,0.202,0.07,0.367,0.214,0.494
				c0.119,0.152,0.273,0.229,0.465,0.229s0.356-0.076,0.5-0.229l2.861-3.041l2.862,3.041c0.119,0.152,0.287,0.229,0.502,0.229
				c0.188,0,0.344-0.076,0.465-0.229c0.119-0.126,0.178-0.292,0.178-0.494c0-0.203-0.059-0.38-0.178-0.532l-2.861-3.04
				L672.102,75.314z M665.411,57.487c-0.335-0.355-0.655-0.355-0.965,0c-0.144,0.126-0.214,0.291-0.214,0.493
				c0,0.203,0.07,0.381,0.214,0.533l2.861,3.041l-2.861,3.041c-0.144,0.126-0.214,0.304-0.214,0.532c0,0.203,0.07,0.367,0.214,0.494
				c0.31,0.33,0.63,0.33,0.965,0l2.861-3.041l2.862,3.041c0.119,0.126,0.287,0.19,0.502,0.19c0.188,0,0.344-0.064,0.465-0.19
				c0.119-0.127,0.178-0.292,0.178-0.494c0-0.228-0.059-0.405-0.178-0.532l-2.861-3.041l2.861-3.041
				c0.119-0.152,0.178-0.33,0.178-0.533c0-0.202-0.059-0.367-0.178-0.493c-0.121-0.153-0.276-0.228-0.465-0.228
				c-0.215,0-0.383,0.075-0.502,0.228l-2.862,3.04L665.411,57.487z M671.637,40.458c-0.215,0-0.383,0.076-0.502,0.228l-2.862,3.041
				l-2.861-3.041c-0.335-0.355-0.655-0.355-0.965,0c-0.144,0.126-0.214,0.292-0.214,0.495c0,0.203,0.07,0.38,0.214,0.532
				l2.861,3.041l-2.861,3.041c-0.144,0.127-0.214,0.292-0.214,0.494c0,0.203,0.07,0.381,0.214,0.533c0.31,0.329,0.63,0.329,0.965,0
				l2.861-3.041l2.862,3.041c0.119,0.126,0.287,0.19,0.502,0.19c0.188,0,0.344-0.064,0.465-0.19
				c0.119-0.127,0.178-0.292,0.178-0.494c0-0.228-0.059-0.406-0.178-0.533l-2.861-3.041l2.861-3.041
				c0.119-0.152,0.178-0.329,0.178-0.532c0-0.203-0.059-0.368-0.178-0.495C671.98,40.534,671.825,40.458,671.637,40.458z
				 M665.411,23.848c-0.144-0.126-0.309-0.19-0.5-0.19s-0.346,0.063-0.465,0.19c-0.144,0.152-0.214,0.329-0.214,0.533
				c0,0.202,0.07,0.367,0.214,0.494l2.861,3.079l-2.861,3.041c-0.144,0.127-0.214,0.291-0.214,0.494s0.07,0.38,0.214,0.532
				c0.31,0.329,0.63,0.329,0.965,0l2.861-3.041l2.862,3.041c0.119,0.126,0.287,0.19,0.502,0.19c0.188,0,0.344-0.063,0.465-0.19
				c0.119-0.152,0.178-0.329,0.178-0.532s-0.059-0.367-0.178-0.494l-2.861-3.041l2.861-3.079c0.119-0.126,0.178-0.292,0.178-0.494
				c0-0.204-0.059-0.38-0.178-0.533c-0.121-0.126-0.276-0.19-0.465-0.19c-0.215,0-0.383,0.063-0.502,0.19l-2.862,3.08
				L665.411,23.848z M672.78,3.208c0.764,0.811,1.146,1.773,1.146,2.889v265.995h-11.304V6.097c0-1.116,0.382-2.078,1.144-2.889
				c0.764-0.811,1.669-1.216,2.72-1.216h3.576C671.11,1.992,672.018,2.397,672.78,3.208z"/>
			<path fill-rule="evenodd" clip-rule="evenodd" fill="#A7AFB8" d="M40.203,1.992h3.577c1.049,0,1.956,0.405,2.719,1.216
				c0.763,0.811,1.145,1.773,1.145,2.889v265.995H36.338V6.097c0-1.116,0.382-2.078,1.146-2.889
				C38.247,2.397,39.153,1.992,40.203,1.992z M38.163,30.994c-0.119,0.127-0.179,0.291-0.179,0.494s0.06,0.38,0.179,0.532
				c0.119,0.126,0.274,0.19,0.465,0.19c0.215,0,0.382-0.063,0.501-0.19l2.862-3.041l2.861,3.041c0.334,0.329,0.655,0.329,0.966,0
				c0.143-0.152,0.215-0.329,0.215-0.532s-0.072-0.367-0.215-0.494l-2.862-3.041l2.862-3.079c0.143-0.126,0.215-0.292,0.215-0.494
				c0-0.204-0.072-0.38-0.215-0.533c-0.119-0.126-0.274-0.19-0.465-0.19s-0.358,0.063-0.501,0.19l-2.861,3.08l-2.862-3.08
				c-0.12-0.126-0.287-0.19-0.501-0.19c-0.191,0-0.346,0.063-0.465,0.19c-0.119,0.152-0.179,0.329-0.179,0.533
				c0,0.202,0.06,0.367,0.179,0.494l2.861,3.079L38.163,30.994z M45.818,47.794l-2.862-3.041l2.862-3.041
				c0.143-0.152,0.215-0.329,0.215-0.532c0-0.203-0.072-0.368-0.215-0.495c-0.311-0.355-0.632-0.355-0.966,0l-2.861,3.041
				l-2.862-3.041c-0.12-0.152-0.287-0.228-0.501-0.228c-0.191,0-0.346,0.076-0.465,0.228c-0.119,0.126-0.179,0.292-0.179,0.495
				c0,0.203,0.06,0.38,0.179,0.532l2.861,3.041l-2.861,3.041c-0.119,0.127-0.179,0.305-0.179,0.533c0,0.203,0.06,0.367,0.179,0.494
				c0.119,0.126,0.274,0.19,0.465,0.19c0.215,0,0.382-0.064,0.501-0.19l2.862-3.041l2.861,3.041c0.334,0.329,0.655,0.329,0.966,0
				c0.143-0.152,0.215-0.33,0.215-0.533C46.033,48.085,45.961,47.921,45.818,47.794z M46.033,65.127
				c0-0.228-0.072-0.405-0.215-0.532l-2.862-3.041l2.862-3.041c0.143-0.152,0.215-0.33,0.215-0.533c0-0.202-0.072-0.367-0.215-0.493
				c-0.311-0.355-0.632-0.355-0.966,0l-2.861,3.04l-2.862-3.04c-0.12-0.153-0.287-0.228-0.501-0.228
				c-0.191,0-0.346,0.075-0.465,0.228c-0.119,0.126-0.179,0.291-0.179,0.493c0,0.203,0.06,0.381,0.179,0.533l2.861,3.041
				l-2.861,3.041c-0.119,0.126-0.179,0.304-0.179,0.532c0,0.203,0.06,0.367,0.179,0.494c0.119,0.126,0.274,0.19,0.465,0.19
				c0.215,0,0.382-0.064,0.501-0.19l2.862-3.041l2.861,3.041c0.334,0.33,0.655,0.33,0.966,0
				C45.961,65.494,46.033,65.33,46.033,65.127z M45.818,82.421c0.143-0.126,0.215-0.292,0.215-0.494c0-0.203-0.072-0.38-0.215-0.532
				l-2.862-3.04l2.862-3.041c0.143-0.152,0.215-0.33,0.215-0.533c0-0.203-0.072-0.367-0.215-0.494c-0.311-0.355-0.632-0.355-0.966,0
				l-2.861,3.041l-2.862-3.041c-0.12-0.152-0.287-0.229-0.501-0.229c-0.191,0-0.346,0.077-0.465,0.229
				c-0.119,0.126-0.179,0.291-0.179,0.494c0,0.203,0.06,0.38,0.179,0.533l2.861,3.041l-2.861,3.04
				c-0.119,0.152-0.179,0.329-0.179,0.532c0,0.202,0.06,0.367,0.179,0.494c0.119,0.152,0.274,0.229,0.465,0.229
				c0.215,0,0.382-0.076,0.501-0.229l2.862-3.041l2.861,3.041c0.143,0.152,0.311,0.229,0.501,0.229S45.7,82.573,45.818,82.421z
				 M45.818,98.196l-2.862-3.041l2.862-3.041c0.143-0.127,0.215-0.292,0.215-0.495c0-0.228-0.072-0.405-0.215-0.532
				c-0.119-0.127-0.274-0.189-0.465-0.189s-0.358,0.063-0.501,0.189l-2.861,3.041l-2.862-3.041c-0.12-0.127-0.287-0.189-0.501-0.189
				c-0.191,0-0.346,0.063-0.465,0.189c-0.119,0.127-0.179,0.304-0.179,0.532c0,0.203,0.06,0.368,0.179,0.495l2.861,3.041
				l-2.861,3.041c-0.119,0.152-0.179,0.33-0.179,0.533c0,0.202,0.06,0.367,0.179,0.493c0.119,0.152,0.274,0.229,0.465,0.229
				c0.215,0,0.382-0.077,0.501-0.229l2.862-3.041l2.861,3.041c0.143,0.152,0.311,0.229,0.501,0.229s0.346-0.077,0.465-0.229
				c0.143-0.126,0.215-0.291,0.215-0.493C46.033,98.525,45.961,98.348,45.818,98.196z M44.853,107.888l-2.861,3.041l-2.862-3.041
				c-0.12-0.126-0.287-0.189-0.501-0.189c-0.191,0-0.346,0.063-0.465,0.189c-0.119,0.153-0.179,0.33-0.179,0.533
				s0.06,0.368,0.179,0.494l2.861,3.041l-2.861,3.041c-0.119,0.151-0.179,0.33-0.179,0.532c0,0.202,0.06,0.368,0.179,0.494
				c0.119,0.152,0.274,0.228,0.465,0.228c0.215,0,0.382-0.076,0.501-0.228l2.862-3.041l2.861,3.041
				c0.143,0.152,0.311,0.228,0.501,0.228s0.346-0.076,0.465-0.228c0.143-0.126,0.215-0.292,0.215-0.494
				c0-0.203-0.072-0.381-0.215-0.532l-2.862-3.041l2.862-3.041c0.143-0.126,0.215-0.292,0.215-0.494s-0.072-0.379-0.215-0.533
				c-0.119-0.126-0.274-0.189-0.465-0.189S44.996,107.762,44.853,107.888z M45.818,124.688c-0.119-0.126-0.274-0.189-0.465-0.189
				s-0.358,0.063-0.501,0.189l-2.861,3.042l-2.862-3.042c-0.12-0.126-0.287-0.189-0.501-0.189c-0.191,0-0.346,0.063-0.465,0.189
				c-0.119,0.153-0.179,0.33-0.179,0.533c0,0.203,0.06,0.368,0.179,0.495l2.861,3.041l-2.861,3.079
				c-0.119,0.126-0.179,0.291-0.179,0.493c0,0.204,0.06,0.381,0.179,0.533c0.119,0.127,0.274,0.19,0.465,0.19
				c0.215,0,0.382-0.063,0.501-0.19l2.862-3.079l2.861,3.079c0.334,0.329,0.655,0.329,0.966,0c0.143-0.152,0.215-0.33,0.215-0.533
				c0-0.203-0.072-0.367-0.215-0.493l-2.862-3.079l2.862-3.041c0.143-0.127,0.215-0.292,0.215-0.495
				C46.033,125.018,45.961,124.841,45.818,124.688z M45.818,141.489c-0.119-0.125-0.274-0.189-0.465-0.189s-0.358,0.064-0.501,0.189
				l-2.861,3.079l-2.862-3.079c-0.12-0.125-0.287-0.189-0.501-0.189c-0.191,0-0.346,0.064-0.465,0.189
				c-0.119,0.153-0.179,0.329-0.179,0.533c0,0.202,0.06,0.367,0.179,0.494l2.861,3.079l-2.861,3.042
				c-0.119,0.126-0.179,0.292-0.179,0.493c0,0.204,0.06,0.381,0.179,0.533c0.119,0.126,0.274,0.189,0.465,0.189
				c0.215,0,0.382-0.063,0.501-0.189l2.862-3.042l2.861,3.042c0.334,0.329,0.655,0.329,0.966,0c0.143-0.152,0.215-0.329,0.215-0.533
				c0-0.202-0.072-0.367-0.215-0.493l-2.862-3.042l2.862-3.079c0.143-0.126,0.215-0.292,0.215-0.494
				C46.033,141.818,45.961,141.642,45.818,141.489z M45.354,158.099c-0.19,0-0.358,0.064-0.501,0.191l-2.861,3.078l-2.862-3.078
				c-0.12-0.127-0.287-0.191-0.501-0.191c-0.191,0-0.346,0.064-0.465,0.191c-0.119,0.151-0.179,0.33-0.179,0.531
				c0,0.204,0.06,0.367,0.179,0.494l2.861,3.079l-2.861,3.041c-0.119,0.127-0.179,0.291-0.179,0.494s0.06,0.38,0.179,0.532
				c0.119,0.126,0.274,0.19,0.465,0.19c0.215,0,0.382-0.064,0.501-0.19l2.862-3.04l2.861,3.04c0.334,0.329,0.655,0.329,0.966,0
				c0.143-0.152,0.215-0.329,0.215-0.532s-0.072-0.367-0.215-0.494l-2.862-3.041l2.862-3.079c0.143-0.127,0.215-0.29,0.215-0.494
				c0-0.201-0.072-0.38-0.215-0.531C45.7,158.163,45.544,158.099,45.354,158.099z M46.033,175.622c0-0.202-0.072-0.367-0.215-0.493
				c-0.311-0.354-0.632-0.354-0.966,0l-2.861,3.04l-2.862-3.04c-0.12-0.152-0.287-0.229-0.501-0.229
				c-0.191,0-0.346,0.076-0.465,0.229c-0.119,0.126-0.179,0.291-0.179,0.493c0,0.203,0.06,0.38,0.179,0.532l2.861,3.041
				l-2.861,3.041c-0.119,0.126-0.179,0.304-0.179,0.532c0,0.202,0.06,0.367,0.179,0.494c0.119,0.125,0.274,0.189,0.465,0.189
				c0.215,0,0.382-0.064,0.501-0.189l2.862-3.04l2.861,3.04c0.334,0.329,0.655,0.329,0.966,0c0.143-0.127,0.215-0.292,0.215-0.494
				c0-0.229-0.072-0.406-0.215-0.532l-2.862-3.041l2.862-3.041C45.961,176.002,46.033,175.825,46.033,175.622z M46.033,199.567
				c0-0.228-0.072-0.404-0.215-0.53l-2.862-3.042l2.862-3.039c0.143-0.154,0.215-0.33,0.215-0.533s-0.072-0.368-0.215-0.494
				c-0.311-0.354-0.632-0.354-0.966,0l-2.861,3.04l-2.862-3.04c-0.12-0.152-0.287-0.229-0.501-0.229
				c-0.191,0-0.346,0.076-0.465,0.229c-0.119,0.126-0.179,0.291-0.179,0.494s0.06,0.379,0.179,0.533l2.861,3.039l-2.861,3.042
				c-0.119,0.126-0.179,0.303-0.179,0.53c0,0.204,0.06,0.37,0.179,0.496c0.119,0.127,0.274,0.189,0.465,0.189
				c0.215,0,0.382-0.063,0.501-0.189l2.862-3.042l2.861,3.042c0.334,0.329,0.655,0.329,0.966,0
				C45.961,199.938,46.033,199.771,46.033,199.567z M45.354,217.092c0.19,0,0.346-0.077,0.465-0.229
				c0.143-0.127,0.215-0.292,0.215-0.495c0-0.202-0.072-0.379-0.215-0.531l-2.862-3.041l2.862-3.039
				c0.143-0.153,0.215-0.33,0.215-0.533c0-0.202-0.072-0.367-0.215-0.495c-0.311-0.354-0.632-0.354-0.966,0l-2.861,3.041
				l-2.862-3.041c-0.12-0.151-0.287-0.229-0.501-0.229c-0.191,0-0.346,0.077-0.465,0.229c-0.119,0.128-0.179,0.293-0.179,0.495
				c0,0.203,0.06,0.38,0.179,0.533l2.861,3.039l-2.861,3.041c-0.119,0.152-0.179,0.329-0.179,0.531c0,0.203,0.06,0.368,0.179,0.495
				c0.119,0.151,0.274,0.229,0.465,0.229c0.215,0,0.382-0.077,0.501-0.229l2.862-3.041l2.861,3.041
				C44.996,217.015,45.163,217.092,45.354,217.092z M45.354,233.893c0.19,0,0.346-0.076,0.465-0.229
				c0.143-0.128,0.215-0.293,0.215-0.495c0-0.203-0.072-0.38-0.215-0.531l-2.862-3.041l2.862-3.041
				c0.143-0.127,0.215-0.292,0.215-0.493c0-0.229-0.072-0.406-0.215-0.534c-0.119-0.125-0.274-0.188-0.465-0.188
				s-0.358,0.063-0.501,0.188l-2.861,3.043l-2.862-3.043c-0.12-0.125-0.287-0.188-0.501-0.188c-0.191,0-0.346,0.063-0.465,0.188
				c-0.119,0.128-0.179,0.306-0.179,0.534c0,0.201,0.06,0.366,0.179,0.493l2.861,3.041l-2.861,3.041
				c-0.119,0.151-0.179,0.328-0.179,0.531c0,0.202,0.06,0.367,0.179,0.495c0.119,0.152,0.274,0.229,0.465,0.229
				c0.215,0,0.382-0.076,0.501-0.229l2.862-3.04l2.861,3.04C44.996,233.816,45.163,233.893,45.354,233.893z M45.818,249.438
				l-2.862-3.041l2.862-3.041c0.143-0.126,0.215-0.29,0.215-0.492c0-0.203-0.072-0.382-0.215-0.533
				c-0.119-0.126-0.274-0.19-0.465-0.19s-0.358,0.064-0.501,0.19l-2.861,3.041l-2.862-3.041c-0.12-0.126-0.287-0.19-0.501-0.19
				c-0.191,0-0.346,0.064-0.465,0.19c-0.119,0.151-0.179,0.33-0.179,0.533c0,0.202,0.06,0.366,0.179,0.492l2.861,3.041l-2.861,3.041
				c-0.119,0.153-0.179,0.331-0.179,0.533s0.06,0.366,0.179,0.493c0.119,0.152,0.274,0.229,0.465,0.229
				c0.215,0,0.382-0.077,0.501-0.229l2.862-3.04l2.861,3.04c0.143,0.152,0.311,0.229,0.501,0.229s0.346-0.077,0.465-0.229
				c0.143-0.127,0.215-0.291,0.215-0.493S45.961,249.591,45.818,249.438z M44.853,259.131l-2.861,3.04l-2.862-3.04
				c-0.12-0.127-0.287-0.19-0.501-0.19c-0.191,0-0.346,0.063-0.465,0.19c-0.119,0.152-0.179,0.33-0.179,0.532
				c0,0.203,0.06,0.367,0.179,0.492l2.861,3.043l-2.861,3.078c-0.119,0.127-0.179,0.291-0.179,0.494s0.06,0.38,0.179,0.533
				c0.119,0.125,0.274,0.189,0.465,0.189c0.215,0,0.382-0.064,0.501-0.189l2.862-3.079l2.861,3.079c0.334,0.329,0.655,0.329,0.966,0
				c0.143-0.153,0.215-0.33,0.215-0.533s-0.072-0.367-0.215-0.494l-2.862-3.078l2.862-3.043c0.143-0.125,0.215-0.289,0.215-0.492
				c0-0.202-0.072-0.38-0.215-0.532c-0.119-0.127-0.274-0.19-0.465-0.19S44.996,259.004,44.853,259.131z"/>
			<path fill-rule="evenodd" clip-rule="evenodd" fill="#A7AFB8" d="M343.486,197.501c0-0.228-0.175-0.417-0.521-0.569
				c-0.35-0.178-0.776-0.267-1.28-0.267h-37.103c-0.504,0-0.912,0.089-1.222,0.267c-0.348,0.152-0.522,0.342-0.522,0.569
				c0,0.254,0.174,0.455,0.522,0.607c0.311,0.178,0.718,0.268,1.222,0.268h37.103c0.504,0,0.931-0.09,1.28-0.268
				C343.312,197.956,343.486,197.755,343.486,197.501z M110.463,197.501c0-0.228-0.174-0.417-0.522-0.569
				c-0.311-0.178-0.718-0.267-1.222-0.267H71.617c-0.504,0-0.931,0.089-1.279,0.267c-0.35,0.152-0.524,0.342-0.524,0.569
				c0,0.254,0.174,0.455,0.524,0.607c0.348,0.178,0.775,0.268,1.279,0.268h37.103c0.503,0,0.911-0.09,1.222-0.268
				C110.289,197.956,110.463,197.755,110.463,197.501z M168.734,197.501c0-0.228-0.174-0.417-0.522-0.569
				c-0.35-0.178-0.776-0.267-1.28-0.267H129.83c-0.505,0-0.931,0.089-1.28,0.267c-0.348,0.152-0.523,0.342-0.523,0.569
				c0,0.254,0.175,0.455,0.523,0.607c0.349,0.178,0.775,0.268,1.28,0.268h37.102c0.504,0,0.93-0.09,1.28-0.268
				C168.56,197.956,168.734,197.755,168.734,197.501z M246.369,196.665c-0.503,0-0.931,0.089-1.279,0.267
				c-0.348,0.152-0.523,0.342-0.523,0.569c0,0.254,0.175,0.455,0.523,0.607c0.349,0.178,0.776,0.268,1.279,0.268h37.103
				c0.503,0,0.93-0.09,1.279-0.268c0.349-0.152,0.522-0.354,0.522-0.607c0-0.228-0.173-0.417-0.522-0.569
				c-0.35-0.178-0.776-0.267-1.279-0.267H246.369z M227.004,197.501c0-0.228-0.175-0.417-0.523-0.569
				c-0.35-0.178-0.776-0.267-1.279-0.267H188.1c-0.504,0-0.931,0.089-1.281,0.267c-0.348,0.152-0.522,0.342-0.522,0.569
				c0,0.254,0.174,0.455,0.522,0.607c0.35,0.178,0.776,0.268,1.281,0.268h37.102c0.503,0,0.93-0.09,1.279-0.268
				C226.83,197.956,227.004,197.755,227.004,197.501z M43.529,197.084c0-0.634,0.464-1.18,1.395-1.636
				c0.931-0.456,2.074-0.686,3.432-0.686h301.702c1.357,0,2.501,0.229,3.432,0.686s1.396,1.002,1.396,1.636v0.872
				c0,0.635-0.465,1.18-1.396,1.636s-2.074,0.685-3.432,0.685H48.356c-1.358,0-2.5-0.229-3.432-0.685
				c-0.931-0.456-1.395-1.001-1.395-1.636V197.084z"/>
			<path fill-rule="evenodd" clip-rule="evenodd" fill="#A7AFB8" d="M303.36,256.839c0.35,0.177,0.757,0.266,1.222,0.266h37.103
				c0.504,0,0.931-0.089,1.28-0.266c0.347-0.179,0.521-0.382,0.521-0.609c0-0.253-0.175-0.455-0.521-0.607
				c-0.35-0.178-0.776-0.268-1.28-0.268h-37.103c-0.504,0-0.912,0.09-1.222,0.268c-0.348,0.152-0.522,0.354-0.522,0.607
				C302.837,256.457,303.012,256.66,303.36,256.839z M246.369,255.354c-0.503,0-0.931,0.09-1.279,0.268
				c-0.348,0.152-0.523,0.354-0.523,0.607c0,0.228,0.175,0.431,0.523,0.609c0.349,0.177,0.776,0.266,1.279,0.266h37.103
				c0.503,0,0.93-0.089,1.279-0.266c0.349-0.179,0.522-0.382,0.522-0.609c0-0.253-0.173-0.455-0.522-0.607
				c-0.35-0.178-0.776-0.268-1.279-0.268H246.369z M188.1,255.354c-0.504,0-0.931,0.09-1.281,0.268
				c-0.348,0.152-0.522,0.354-0.522,0.607c0,0.228,0.174,0.431,0.522,0.609c0.35,0.177,0.776,0.266,1.281,0.266h37.102
				c0.503,0,0.93-0.089,1.279-0.266c0.348-0.179,0.523-0.382,0.523-0.609c0-0.253-0.175-0.455-0.523-0.607
				c-0.35-0.178-0.776-0.268-1.279-0.268H188.1z M129.83,255.354c-0.505,0-0.931,0.09-1.28,0.268
				c-0.348,0.152-0.523,0.354-0.523,0.607c0,0.228,0.175,0.431,0.523,0.609c0.349,0.177,0.775,0.266,1.28,0.266h37.102
				c0.504,0,0.93-0.089,1.28-0.266c0.348-0.179,0.522-0.382,0.522-0.609c0-0.253-0.174-0.455-0.522-0.607
				c-0.35-0.178-0.776-0.268-1.28-0.268H129.83z M71.617,255.354c-0.504,0-0.931,0.09-1.279,0.268
				c-0.35,0.152-0.524,0.354-0.524,0.607c0,0.228,0.174,0.431,0.524,0.609c0.348,0.177,0.775,0.266,1.279,0.266h37.103
				c0.503,0,0.911-0.089,1.222-0.266c0.348-0.179,0.522-0.382,0.522-0.609c0-0.253-0.174-0.455-0.522-0.607
				c-0.311-0.178-0.718-0.268-1.222-0.268H71.617z M48.356,259.005c-1.319,0-2.462-0.228-3.432-0.684
				c-0.931-0.457-1.395-1.002-1.395-1.636v-0.911c0-0.635,0.464-1.181,1.395-1.636c0.969-0.456,2.112-0.685,3.432-0.685h301.702
				c1.318,0,2.462,0.229,3.432,0.685c0.931,0.455,1.396,1.001,1.396,1.636v0.911c0,0.634-0.465,1.179-1.396,1.636
				c-0.97,0.456-2.113,0.684-3.432,0.684H48.356z"/>
			<path fill-rule="evenodd" clip-rule="evenodd" fill="#A7AFB8" d="M496.941,20.69c-0.506,0-0.936,0.089-1.286,0.267
				c-0.351,0.151-0.526,0.354-0.526,0.607c0,0.229,0.176,0.431,0.526,0.608c0.351,0.152,0.78,0.228,1.286,0.228h37.339
				c0.507,0,0.936-0.076,1.286-0.228c0.353-0.177,0.526-0.38,0.526-0.608c0-0.253-0.174-0.456-0.526-0.607
				c-0.351-0.177-0.779-0.267-1.286-0.267H496.941z M438.304,20.69c-0.507,0-0.936,0.089-1.288,0.267
				c-0.35,0.151-0.525,0.354-0.525,0.607c0,0.229,0.176,0.431,0.525,0.608c0.353,0.152,0.781,0.228,1.288,0.228h37.336
				c0.508,0,0.938-0.076,1.289-0.228c0.351-0.177,0.526-0.38,0.526-0.608c0-0.253-0.176-0.456-0.526-0.607
				c-0.351-0.177-0.781-0.267-1.289-0.267H438.304z M379.724,20.69c-0.507,0-0.936,0.089-1.286,0.267
				c-0.354,0.151-0.528,0.354-0.528,0.607c0,0.229,0.175,0.431,0.528,0.608c0.351,0.152,0.779,0.228,1.286,0.228h37.337
				c0.507,0,0.917-0.076,1.229-0.228c0.352-0.177,0.526-0.38,0.526-0.608c0-0.253-0.175-0.456-0.526-0.607
				c-0.313-0.177-0.723-0.267-1.229-0.267H379.724z M612.933,22.173c0.313,0.152,0.722,0.228,1.229,0.228h37.336
				c0.508,0,0.937-0.076,1.288-0.228c0.351-0.177,0.527-0.38,0.527-0.608c0-0.253-0.177-0.456-0.527-0.607
				c-0.352-0.177-0.78-0.267-1.288-0.267h-37.336c-0.508,0-0.917,0.089-1.229,0.267c-0.352,0.151-0.527,0.354-0.527,0.607
				C612.405,21.793,612.581,21.996,612.933,22.173z M594.731,21.564c0-0.253-0.175-0.456-0.526-0.607
				c-0.351-0.177-0.78-0.267-1.287-0.267h-37.337c-0.507,0-0.937,0.089-1.288,0.267c-0.35,0.151-0.526,0.354-0.526,0.607
				c0,0.229,0.177,0.431,0.526,0.608c0.352,0.152,0.781,0.228,1.288,0.228h37.337c0.507,0,0.937-0.076,1.287-0.228
				C594.557,21.996,594.731,21.793,594.731,21.564z M356.315,24.301c-1.367,0-2.518-0.228-3.452-0.684
				c-0.936-0.457-1.405-1.001-1.405-1.634v-0.875c0-0.633,0.47-1.179,1.405-1.634c0.935-0.457,2.085-0.684,3.452-0.684h303.61
				c1.365,0,2.517,0.228,3.453,0.684c0.936,0.455,1.403,1,1.403,1.634v0.875c0,0.633-0.468,1.177-1.403,1.634
				c-0.937,0.456-2.088,0.684-3.453,0.684H356.315z"/>
			<path fill-rule="evenodd" clip-rule="evenodd" fill="#A7AFB8" d="M653.313,80.215c0-0.229-0.177-0.419-0.527-0.57
				c-0.352-0.178-0.78-0.267-1.288-0.267h-37.336c-0.508,0-0.917,0.089-1.229,0.267c-0.352,0.151-0.527,0.342-0.527,0.57
				c0,0.253,0.176,0.455,0.527,0.607c0.313,0.178,0.722,0.267,1.229,0.267h37.336c0.508,0,0.937-0.089,1.288-0.267
				C653.137,80.67,653.313,80.468,653.313,80.215z M418.816,80.215c0-0.229-0.175-0.419-0.526-0.57
				c-0.313-0.178-0.723-0.267-1.229-0.267h-37.337c-0.507,0-0.936,0.089-1.286,0.267c-0.354,0.151-0.528,0.342-0.528,0.57
				c0,0.253,0.175,0.455,0.528,0.607c0.351,0.178,0.779,0.267,1.286,0.267h37.337c0.507,0,0.917-0.089,1.229-0.267
				C418.642,80.67,418.816,80.468,418.816,80.215z M477.455,80.215c0-0.229-0.176-0.419-0.526-0.57
				c-0.351-0.178-0.781-0.267-1.289-0.267h-37.336c-0.507,0-0.936,0.089-1.288,0.267c-0.35,0.151-0.525,0.342-0.525,0.57
				c0,0.253,0.176,0.455,0.525,0.607c0.353,0.178,0.781,0.267,1.288,0.267h37.336c0.508,0,0.938-0.089,1.289-0.267
				C477.279,80.67,477.455,80.468,477.455,80.215z M555.581,79.378c-0.507,0-0.937,0.089-1.288,0.267
				c-0.35,0.151-0.526,0.342-0.526,0.57c0,0.253,0.177,0.455,0.526,0.607c0.352,0.178,0.781,0.267,1.288,0.267h37.337
				c0.507,0,0.937-0.089,1.287-0.267c0.352-0.152,0.526-0.354,0.526-0.607c0-0.229-0.175-0.419-0.526-0.57
				c-0.351-0.178-0.78-0.267-1.287-0.267H555.581z M536.093,80.215c0-0.229-0.174-0.419-0.526-0.57
				c-0.351-0.178-0.779-0.267-1.286-0.267h-37.339c-0.506,0-0.936,0.089-1.286,0.267c-0.351,0.151-0.526,0.342-0.526,0.57
				c0,0.253,0.176,0.455,0.526,0.607c0.351,0.178,0.78,0.267,1.286,0.267h37.339c0.507,0,0.936-0.089,1.286-0.267
				C535.919,80.67,536.093,80.468,536.093,80.215z M351.458,79.796c0-0.633,0.47-1.178,1.405-1.634
				c0.935-0.456,2.085-0.684,3.452-0.684h303.61c1.365,0,2.517,0.229,3.453,0.684c0.936,0.456,1.403,1.001,1.403,1.634v0.874
				c0,0.634-0.468,1.179-1.403,1.635c-0.937,0.456-2.088,0.684-3.453,0.684h-303.61c-1.367,0-2.518-0.228-3.452-0.684
				c-0.936-0.457-1.405-1.001-1.405-1.635V79.796z"/>
			<path fill-rule="evenodd" clip-rule="evenodd" fill="#A7AFB8" d="M612.933,139.552c0.351,0.177,0.761,0.266,1.229,0.266h37.336
				c0.508,0,0.937-0.089,1.288-0.266c0.351-0.179,0.527-0.381,0.527-0.608c0-0.253-0.177-0.456-0.527-0.608
				c-0.352-0.178-0.78-0.268-1.288-0.268h-37.336c-0.508,0-0.917,0.09-1.229,0.268c-0.352,0.152-0.527,0.354-0.527,0.608
				C612.405,139.17,612.581,139.373,612.933,139.552z M555.581,138.068c-0.507,0-0.937,0.09-1.288,0.268
				c-0.35,0.152-0.526,0.354-0.526,0.608c0,0.227,0.177,0.43,0.526,0.608c0.352,0.177,0.781,0.266,1.288,0.266h37.337
				c0.507,0,0.937-0.089,1.287-0.266c0.352-0.179,0.526-0.381,0.526-0.608c0-0.253-0.175-0.456-0.526-0.608
				c-0.351-0.178-0.78-0.268-1.287-0.268H555.581z M496.941,138.068c-0.506,0-0.936,0.09-1.286,0.268
				c-0.351,0.152-0.526,0.354-0.526,0.608c0,0.227,0.176,0.43,0.526,0.608c0.351,0.177,0.78,0.266,1.286,0.266h37.339
				c0.507,0,0.936-0.089,1.286-0.266c0.353-0.179,0.526-0.381,0.526-0.608c0-0.253-0.174-0.456-0.526-0.608
				c-0.351-0.178-0.779-0.268-1.286-0.268H496.941z M438.304,138.068c-0.507,0-0.936,0.09-1.288,0.268
				c-0.35,0.152-0.525,0.354-0.525,0.608c0,0.227,0.176,0.43,0.525,0.608c0.353,0.177,0.781,0.266,1.288,0.266h37.336
				c0.508,0,0.938-0.089,1.289-0.266c0.351-0.179,0.526-0.381,0.526-0.608c0-0.253-0.176-0.456-0.526-0.608
				c-0.351-0.178-0.781-0.268-1.289-0.268H438.304z M379.724,138.068c-0.507,0-0.936,0.09-1.286,0.268
				c-0.354,0.152-0.528,0.354-0.528,0.608c0,0.227,0.175,0.43,0.528,0.608c0.351,0.177,0.779,0.266,1.286,0.266h37.337
				c0.507,0,0.917-0.089,1.229-0.266c0.352-0.179,0.526-0.381,0.526-0.608c0-0.253-0.175-0.456-0.526-0.608
				c-0.313-0.178-0.723-0.268-1.229-0.268H379.724z M356.315,141.719c-1.326,0-2.478-0.229-3.452-0.685
				c-0.936-0.456-1.405-1.002-1.405-1.636v-0.911c0-0.635,0.47-1.18,1.405-1.635c0.975-0.455,2.126-0.685,3.452-0.685h303.61
				c1.327,0,2.476,0.229,3.453,0.685c0.936,0.456,1.403,1,1.403,1.635v0.911c0,0.634-0.468,1.18-1.403,1.636
				c-0.978,0.456-2.126,0.685-3.453,0.685H356.315z"/>
			<path fill-rule="evenodd" clip-rule="evenodd" fill="#A7AFB8" d="M654.104,197.501c0-0.228-0.175-0.417-0.525-0.569
				c-0.353-0.178-0.78-0.267-1.287-0.267h-37.337c-0.508,0-0.917,0.089-1.231,0.267c-0.349,0.152-0.524,0.342-0.524,0.569
				c0,0.254,0.176,0.455,0.524,0.607c0.314,0.178,0.724,0.268,1.231,0.268h37.337c0.507,0,0.935-0.09,1.287-0.268
				C653.93,197.956,654.104,197.755,654.104,197.501z M419.61,197.501c0-0.228-0.176-0.417-0.528-0.569
				c-0.312-0.178-0.722-0.267-1.228-0.267h-37.336c-0.508,0-0.938,0.089-1.289,0.267c-0.351,0.152-0.526,0.342-0.526,0.569
				c0,0.254,0.176,0.455,0.526,0.607c0.351,0.178,0.781,0.268,1.289,0.268h37.336c0.506,0,0.916-0.09,1.228-0.268
				C419.435,197.956,419.61,197.755,419.61,197.501z M478.248,197.501c0-0.228-0.174-0.417-0.526-0.569
				c-0.353-0.178-0.781-0.267-1.288-0.267h-37.336c-0.507,0-0.937,0.089-1.288,0.267c-0.351,0.152-0.525,0.342-0.525,0.569
				c0,0.254,0.175,0.455,0.525,0.607c0.352,0.178,0.781,0.268,1.288,0.268h37.336c0.507,0,0.936-0.09,1.288-0.268
				C478.074,197.956,478.248,197.755,478.248,197.501z M536.888,197.501c0-0.228-0.177-0.417-0.527-0.569
				c-0.352-0.178-0.781-0.267-1.288-0.267h-37.337c-0.507,0-0.936,0.089-1.288,0.267c-0.35,0.152-0.525,0.342-0.525,0.569
				c0,0.254,0.176,0.455,0.525,0.607c0.353,0.178,0.781,0.268,1.288,0.268h37.337c0.507,0,0.937-0.09,1.288-0.268
				C536.711,197.956,536.888,197.755,536.888,197.501z M556.374,196.665c-0.507,0-0.937,0.089-1.288,0.267
				c-0.349,0.152-0.525,0.342-0.525,0.569c0,0.254,0.177,0.455,0.525,0.607c0.352,0.178,0.781,0.268,1.288,0.268h37.336
				c0.508,0,0.938-0.09,1.288-0.268c0.353-0.152,0.527-0.354,0.527-0.607c0-0.228-0.175-0.417-0.527-0.569
				c-0.351-0.178-0.78-0.267-1.288-0.267H556.374z M352.252,197.084c0-0.634,0.468-1.18,1.405-1.636
				c0.935-0.456,2.086-0.686,3.451-0.686h303.61c1.365,0,2.517,0.229,3.453,0.686s1.404,1.002,1.404,1.636v0.872
				c0,0.635-0.468,1.18-1.404,1.636s-2.088,0.685-3.453,0.685h-303.61c-1.365,0-2.517-0.229-3.451-0.685
				c-0.938-0.456-1.405-1.001-1.405-1.636V197.084z"/>
			<path fill-rule="evenodd" clip-rule="evenodd" fill="#A7AFB8" d="M613.724,256.839c0.354,0.177,0.764,0.266,1.231,0.266h37.337
				c0.507,0,0.935-0.089,1.287-0.266c0.351-0.179,0.525-0.382,0.525-0.609c0-0.253-0.175-0.455-0.525-0.607
				c-0.353-0.178-0.78-0.268-1.287-0.268h-37.337c-0.508,0-0.917,0.09-1.231,0.268c-0.349,0.152-0.524,0.354-0.524,0.607
				C613.199,256.457,613.375,256.66,613.724,256.839z M556.374,255.354c-0.507,0-0.937,0.09-1.288,0.268
				c-0.349,0.152-0.525,0.354-0.525,0.607c0,0.228,0.177,0.431,0.525,0.609c0.352,0.177,0.781,0.266,1.288,0.266h37.336
				c0.508,0,0.938-0.089,1.288-0.266c0.353-0.179,0.527-0.382,0.527-0.609c0-0.253-0.175-0.455-0.527-0.607
				c-0.351-0.178-0.78-0.268-1.288-0.268H556.374z M497.735,255.354c-0.507,0-0.936,0.09-1.288,0.268
				c-0.35,0.152-0.525,0.354-0.525,0.607c0,0.228,0.176,0.431,0.525,0.609c0.353,0.177,0.781,0.266,1.288,0.266h37.337
				c0.507,0,0.937-0.089,1.288-0.266c0.351-0.179,0.527-0.382,0.527-0.609c0-0.253-0.177-0.455-0.527-0.607
				c-0.352-0.178-0.781-0.268-1.288-0.268H497.735z M439.098,255.354c-0.507,0-0.937,0.09-1.288,0.268
				c-0.351,0.152-0.525,0.354-0.525,0.607c0,0.228,0.175,0.431,0.525,0.609c0.352,0.177,0.781,0.266,1.288,0.266h37.336
				c0.507,0,0.936-0.089,1.288-0.266c0.353-0.179,0.526-0.382,0.526-0.609c0-0.253-0.174-0.455-0.526-0.607
				c-0.353-0.178-0.781-0.268-1.288-0.268H439.098z M380.519,255.354c-0.508,0-0.938,0.09-1.289,0.268
				c-0.351,0.152-0.526,0.354-0.526,0.607c0,0.228,0.176,0.431,0.526,0.609c0.351,0.177,0.781,0.266,1.289,0.266h37.336
				c0.506,0,0.916-0.089,1.228-0.266c0.353-0.179,0.528-0.382,0.528-0.609c0-0.253-0.176-0.455-0.528-0.607
				c-0.312-0.178-0.722-0.268-1.228-0.268H380.519z M357.108,259.005c-1.326,0-2.477-0.228-3.451-0.684
				c-0.938-0.457-1.405-1.002-1.405-1.636v-0.911c0-0.635,0.468-1.181,1.405-1.636c0.975-0.456,2.125-0.685,3.451-0.685h303.61
				c1.328,0,2.476,0.229,3.453,0.685c0.937,0.455,1.404,1.001,1.404,1.636v0.911c0,0.634-0.468,1.179-1.404,1.636
				c-0.978,0.456-2.125,0.684-3.453,0.684H357.108z"/>
		</g>
	</g>
</g>
<g>
	<g>
		<polygon fill-rule="evenodd" clip-rule="evenodd" fill="#CF4F27" points="44.468,266.095 57.039,257.081 73.852,302.795 
			58.338,304 		"/>
		<g>
			<path fill-rule="evenodd" clip-rule="evenodd" fill="none" stroke="#E27049" stroke-width="1.35" stroke-linecap="round" d="
				M45.071,268.197l11.154-8.378 M46.063,271.071l11.6-7.534 M47.203,274.145l11.7-6.89 M48.293,277.219l12.045-6.196
				 M49.434,280.291l12.293-5.651 M50.475,283.365l12.591-4.957 M54.986,295.511l13.434-2.281 M57.216,301.657l13.98-1.042
				 M56.076,298.435l13.731-1.486 M53.944,292.486l13.186-2.923 M52.706,289.512l13.038-3.768 M51.615,286.439l12.79-4.412"/>
		</g>
	</g>
	
		<line fill-rule="evenodd" clip-rule="evenodd" fill="none" stroke="#6D3E3E" stroke-width="2" stroke-linecap="round" stroke-linejoin="round" stroke-miterlimit="3" x1="58.082" y1="302.751" x2="34.877" y2="237.222"/>
</g>
<g>
	<path fill-rule="evenodd" clip-rule="evenodd" fill="#CF4F27" d="M29.965,249.394c0.419,0.053,0.757,0.246,1.013,0.575
		c0.293,0.378,0.413,0.776,0.359,1.196l-5.034,39.721c-0.053,0.418-0.269,0.772-0.646,1.066c-0.33,0.257-0.705,0.357-1.124,0.306
		l-3.456-0.438c-0.419-0.053-0.757-0.245-1.013-0.576c-0.251-0.371-0.35-0.768-0.297-1.188l5.034-39.721
		c0.053-0.418,0.248-0.776,0.583-1.074c0.331-0.257,0.705-0.358,1.125-0.305L29.965,249.394z"/>
	<path fill-rule="evenodd" clip-rule="evenodd" fill="#E0643A" d="M14.927,267.285l21.681,2.746
		c2.052,0.261,3.719,1.217,4.999,2.869c1.281,1.652,1.788,3.525,1.522,5.621l-3.011,23.757l-36.638-4.644l3.012-23.757
		c0.265-2.095,1.224-3.782,2.876-5.063C11.021,267.535,12.875,267.023,14.927,267.285z"/>
	<path fill-rule="evenodd" clip-rule="evenodd" fill="#CF4F27" d="M14.106,273.757l21.681,2.748c2.054,0.261,3.719,1.216,5,2.868
		c1.281,1.653,1.787,3.526,1.522,5.623l-2.19,17.282l-36.638-4.644l2.19-17.283c0.266-2.095,1.225-3.782,2.876-5.064
		C10.201,274.008,12.054,273.498,14.106,273.757z"/>
	
		<line fill-rule="evenodd" clip-rule="evenodd" fill="none" stroke="#E0643A" stroke-width="1.7" stroke-linecap="round" x1="6.922" y1="294.176" x2="37.715" y2="298.079"/>
	<path fill-rule="evenodd" clip-rule="evenodd" fill="#040406" d="M26.432,252.586c0.047-0.378,0.234-0.673,0.559-0.888
		c0.283-0.22,0.614-0.306,0.991-0.256c0.335,0.041,0.633,0.207,0.895,0.494c0.219,0.284,0.305,0.615,0.257,0.991
		c-0.047,0.378-0.216,0.698-0.504,0.958c-0.326,0.214-0.656,0.3-0.991,0.258c-0.377-0.048-0.675-0.214-0.895-0.496
		C26.487,253.317,26.384,252.964,26.432,252.586z"/>
</g>
</svg>
