<?xml version="1.0" encoding="utf-8"?>
<!-- Generator: Adobe Illustrator 15.1.0, SVG Export Plug-In . SVG Version: 6.00 Build 0)  -->
<!DOCTYPE svg PUBLIC "-//W3C//DTD SVG 1.1//EN" "http://www.w3.org/Graphics/SVG/1.1/DTD/svg11.dtd">
<svg version="1.1" xmlns="http://www.w3.org/2000/svg" xmlns:xlink="http://www.w3.org/1999/xlink" x="0px" y="0px" width="287px"
	 height="304px" viewBox="0 0 287 304" enable-background="new 0 0 287 304" xml:space="preserve">
<symbol  id="tabl1" viewBox="0 -719.05 677.15 719.05">
	<g id="Layer_1_2_">
		<g>
			<path fill-rule="evenodd" clip-rule="evenodd" d="M675.5-717.95V-1.1H1.65v-716.85H675.5z M676.45-0.15
				c0.1-0.1,0.15-0.233,0.15-0.4V-718.5c0-0.167-0.05-0.3-0.15-0.4c-0.1-0.1-0.233-0.15-0.4-0.15H1.1c-0.167,0-0.3,0.05-0.4,0.15
				c-0.1,0.1-0.15,0.233-0.15,0.4V-0.55c0,0.167,0.05,0.3,0.15,0.4C0.8-0.05,0.933,0,1.1,0h674.95
				C676.217,0,676.35-0.05,676.45-0.15z"/>
		</g>
		<g>
			<path fill-rule="evenodd" clip-rule="evenodd" d="M677-45.95c-0.1-0.1-0.233-0.15-0.4-0.15H0.55c-0.167,0-0.3,0.05-0.4,0.15
				C0.05-45.85,0-45.717,0-45.55v16c0,0.167,0.05,0.3,0.15,0.4S0.383-29,0.55-29H676.6c0.167,0,0.3-0.05,0.4-0.15
				s0.15-0.233,0.15-0.4v-16C677.15-45.717,677.1-45.85,677-45.95z M676.05-45v14.9H1.1V-45H676.05z M677-95.95
				c-0.1-0.1-0.233-0.15-0.4-0.15H0.55c-0.167,0-0.3,0.05-0.4,0.15C0.05-95.85,0-95.717,0-95.55v18c0,0.167,0.05,0.3,0.15,0.4
				S0.383-77,0.55-77H676.6c0.167,0,0.3-0.05,0.4-0.15s0.15-0.233,0.15-0.4v-18C677.15-95.717,677.1-95.85,677-95.95z M676.05-95
				v16.9H1.1V-95H676.05z M677-222.95c-0.1-0.1-0.233-0.15-0.4-0.15H1.65c-0.167,0-0.3,0.05-0.4,0.15c-0.1,0.1-0.15,0.233-0.15,0.4
				v15c0,0.167,0.05,0.3,0.15,0.4S1.483-207,1.65-207H676.6c0.167,0,0.3-0.05,0.4-0.15s0.15-0.233,0.15-0.4v-15
				C677.15-222.717,677.1-222.85,677-222.95z M676.05-222v13.9H2.2V-222H676.05z M677-320.95c-0.1-0.1-0.233-0.15-0.4-0.15H1.65
				c-0.167,0-0.3,0.05-0.4,0.15c-0.1,0.1-0.15,0.233-0.15,0.4v16c0,0.167,0.05,0.3,0.15,0.4S1.483-304,1.65-304H676.6
				c0.167,0,0.3-0.05,0.4-0.15s0.15-0.233,0.15-0.4v-16C677.15-320.717,677.1-320.85,677-320.95z M676.05-320v14.9H2.2V-320H676.05z
				 M677-364.95c-0.1-0.1-0.233-0.15-0.4-0.15H1.65c-0.167,0-0.3,0.05-0.4,0.15c-0.1,0.1-0.15,0.233-0.15,0.4v14
				c0,0.167,0.05,0.3,0.15,0.4S1.483-350,1.65-350H676.6c0.167,0,0.3-0.05,0.4-0.15s0.15-0.233,0.15-0.4v-14
				C677.15-364.717,677.1-364.85,677-364.95z M676.05-364v12.9H2.2V-364H676.05z M677-591.1c0.1-0.1,0.15-0.233,0.15-0.4v-15
				c0-0.167-0.05-0.3-0.15-0.4s-0.233-0.15-0.4-0.15H0.55c-0.167,0-0.3,0.05-0.4,0.15S0-606.667,0-606.5v15
				c0,0.167,0.05,0.3,0.15,0.4s0.233,0.15,0.4,0.15H676.6C676.767-590.95,676.9-591,677-591.1z M677-488.6
				c0.1-0.1,0.15-0.233,0.15-0.4v-15c0-0.167-0.05-0.3-0.15-0.4s-0.233-0.15-0.4-0.15H0.55c-0.167,0-0.3,0.05-0.4,0.15
				S0-504.167,0-504v15c0,0.167,0.05,0.3,0.15,0.4s0.233,0.15,0.4,0.15H676.6C676.767-488.45,676.9-488.5,677-488.6z M676.05-605.95
				v13.9H1.1v-13.9H676.05z M676.05-503.45v13.9H1.1v-13.9H676.05z"/>
			<path fill-rule="evenodd" clip-rule="evenodd" fill="#3E7CC1" d="M676.05-45H1.1v14.9h674.95V-45z M676.05-95H1.1v16.9h674.95
				V-95z M676.05-222H2.2v13.9h673.85V-222z M676.05-320H2.2v14.9h673.85V-320z M676.05-364H2.2v12.9h673.85V-364z M676.05-503.45
				H1.1v13.9h674.95V-503.45z M676.05-605.95H1.1v13.9h674.95V-605.95z"/>
		</g>
		<path fill-rule="evenodd" clip-rule="evenodd" d="M453.6-489.996c-0.003,0.265,0.046,0.491,0.15,0.68
			c0.111,0.176,0.245,0.261,0.4,0.254c0.155,0.007,0.289-0.079,0.4-0.254c0.104-0.189,0.153-0.416,0.15-0.68v-226.888
			c0.003-0.264-0.046-0.49-0.15-0.679c-0.111-0.176-0.245-0.261-0.4-0.255c-0.156-0.006-0.289,0.079-0.4,0.255
			c-0.104,0.189-0.153,0.416-0.15,0.679V-489.996z"/>
		<path fill-rule="evenodd" clip-rule="evenodd" d="M227.6-488.87c-0.003,0.12,0.046,0.223,0.15,0.308
			c0.111,0.08,0.245,0.119,0.4,0.116c0.155,0.003,0.289-0.036,0.4-0.116c0.104-0.085,0.153-0.188,0.15-0.308v-102.774
			c0.003-0.12-0.046-0.222-0.15-0.308c-0.111-0.08-0.245-0.118-0.4-0.115c-0.156-0.003-0.289,0.036-0.4,0.115
			c-0.104,0.086-0.153,0.188-0.15,0.308V-488.87z"/>
		<path fill-rule="evenodd" clip-rule="evenodd" d="M226.5-208.644c-0.003,0.164,0.046,0.305,0.15,0.422
			c0.111,0.109,0.245,0.162,0.4,0.158c0.155,0.004,0.289-0.049,0.4-0.158c0.104-0.117,0.153-0.258,0.15-0.422v-140.757
			c0.003-0.164-0.046-0.304-0.15-0.421c-0.111-0.109-0.245-0.162-0.4-0.158c-0.156-0.004-0.289,0.049-0.4,0.158
			c-0.104,0.117-0.153,0.258-0.15,0.421V-208.644z"/>
		<path fill-rule="evenodd" clip-rule="evenodd" d="M452.5-208.487c-0.003,0.111,0.046,0.206,0.15,0.285
			c0.111,0.074,0.245,0.109,0.4,0.106c0.155,0.003,0.289-0.033,0.4-0.106c0.104-0.079,0.153-0.174,0.15-0.285v-94.917
			c0.003-0.11-0.046-0.205-0.15-0.284c-0.111-0.074-0.245-0.109-0.4-0.106c-0.156-0.003-0.289,0.033-0.4,0.106
			c-0.104,0.079-0.153,0.174-0.15,0.284V-208.487z"/>
	</g>
</symbol>
<g id="Layer_5">
</g>
<g id="Layer_6">
</g>
<g id="Layer_1">
</g>
<g id="Layer_2">
</g>
<g id="_x31_текст">
</g>
<g id="_x32_текст">
</g>
<g id="Layer_8">
</g>
<g id="_x33_-4текст">
	<image overflow="visible" width="287" height="304" xlink:href="7C9010CD.jpg" >
	</image>
</g>
<g id="Layer_10">
</g>
<g id="Layer_9">
</g>
</svg>
