<?xml version="1.0" encoding="utf-8"?>
<!-- Generator: Adobe Illustrator 15.1.0, SVG Export Plug-In . SVG Version: 6.00 Build 0)  -->
<!DOCTYPE svg PUBLIC "-//W3C//DTD SVG 1.1//EN" "http://www.w3.org/Graphics/SVG/1.1/DTD/svg11.dtd">
<svg version="1.1" id="Layer_1" xmlns="http://www.w3.org/2000/svg" xmlns:xlink="http://www.w3.org/1999/xlink" x="0px" y="0px"
	 width="868.335px" height="410px" viewBox="0 0 868.335 410" enable-background="new 0 0 868.335 410" xml:space="preserve">
<g>
	<path fill="#231F20" d="M11.482,90.703h-1.478v-9.538H5.555v9.538H4.078V79.854h7.404V90.703z"/>
	<path fill="#231F20" d="M20.405,90.703h-1.444v-7.089h-2.324c-0.066,1.14-0.165,2.117-0.295,2.93
		c-0.13,0.814-0.286,1.493-0.469,2.038s-0.39,0.975-0.623,1.287s-0.483,0.539-0.751,0.681c-0.268,0.141-0.552,0.21-0.851,0.207
		s-0.606-0.043-0.921-0.12l0.066-1.195c0.221,0.022,0.429,0.011,0.623-0.033s0.374-0.15,0.54-0.319s0.317-0.412,0.453-0.73
		c0.135-0.318,0.258-0.743,0.369-1.274s0.206-1.183,0.286-1.955c0.081-0.771,0.146-1.691,0.195-2.76h5.146V90.703z"/>
	<path fill="#231F20" d="M28.482,90.703l-0.033-1.12c-0.454,0.447-0.915,0.771-1.382,0.971c-0.467,0.199-0.958,0.299-1.473,0.299
		c-0.476,0-0.883-0.061-1.22-0.183s-0.616-0.289-0.834-0.502c-0.219-0.213-0.379-0.464-0.481-0.751
		c-0.103-0.288-0.154-0.601-0.154-0.938c0-0.836,0.311-1.49,0.934-1.963c0.622-0.474,1.542-0.71,2.76-0.71h1.727v-0.73
		c0-0.492-0.158-0.887-0.473-1.183s-0.797-0.444-1.444-0.444c-0.47,0-0.934,0.053-1.39,0.158c-0.457,0.104-0.929,0.254-1.416,0.447
		v-1.303c0.183-0.066,0.386-0.132,0.61-0.195c0.225-0.063,0.461-0.12,0.71-0.17s0.509-0.09,0.78-0.12s0.545-0.046,0.822-0.046
		c0.503,0,0.958,0.056,1.361,0.166s0.746,0.279,1.025,0.506c0.28,0.228,0.494,0.513,0.644,0.855s0.224,0.747,0.224,1.212v5.744
		H28.482z M28.324,86.909H26.49c-0.36,0-0.669,0.036-0.93,0.108s-0.473,0.175-0.639,0.308s-0.289,0.291-0.369,0.477
		c-0.081,0.186-0.121,0.395-0.121,0.627c0,0.16,0.025,0.314,0.075,0.461s0.13,0.276,0.241,0.39s0.254,0.204,0.432,0.271
		s0.393,0.1,0.647,0.1c0.332,0,0.712-0.102,1.141-0.304c0.429-0.202,0.881-0.521,1.357-0.958V86.909z"/>
	<path fill="#231F20" d="M39.173,90.703h-1.444v-3.686h-3.81v3.686h-1.444v-8.334h1.444v3.387h3.81v-3.387h1.444V90.703z"/>
	<path fill="#231F20" d="M49.076,86.47c0,0.647-0.091,1.241-0.274,1.78c-0.183,0.54-0.445,1.002-0.789,1.387
		s-0.761,0.684-1.253,0.896s-1.051,0.319-1.677,0.319c-0.598,0-1.133-0.093-1.606-0.278c-0.474-0.186-0.875-0.458-1.204-0.817
		c-0.329-0.359-0.581-0.805-0.755-1.336c-0.175-0.531-0.262-1.144-0.262-1.835c0-0.647,0.091-1.238,0.274-1.772
		s0.445-0.993,0.789-1.378s0.761-0.684,1.253-0.896s1.051-0.319,1.677-0.319c0.598,0,1.133,0.093,1.606,0.278
		c0.474,0.186,0.875,0.456,1.204,0.813c0.329,0.356,0.581,0.801,0.755,1.332C48.989,85.175,49.076,85.783,49.076,86.47z
		 M47.599,86.536c0-0.515-0.057-0.964-0.17-1.349c-0.114-0.385-0.275-0.706-0.486-0.963c-0.21-0.258-0.466-0.451-0.768-0.581
		c-0.301-0.13-0.638-0.195-1.008-0.195c-0.432,0-0.801,0.084-1.108,0.253c-0.308,0.169-0.559,0.395-0.756,0.677
		c-0.196,0.282-0.34,0.61-0.432,0.983c-0.091,0.374-0.137,0.766-0.137,1.175c0,0.515,0.057,0.966,0.17,1.354
		c0.114,0.387,0.275,0.709,0.486,0.967c0.21,0.257,0.465,0.451,0.764,0.581s0.636,0.194,1.013,0.194
		c0.432,0,0.801-0.084,1.108-0.253c0.308-0.169,0.559-0.394,0.756-0.677c0.196-0.281,0.34-0.609,0.432-0.983
		C47.553,87.346,47.599,86.951,47.599,86.536z"/>
	<path fill="#231F20" d="M58.323,88.271c0,0.383-0.08,0.73-0.241,1.047c-0.161,0.314-0.41,0.585-0.747,0.809
		c-0.337,0.225-0.765,0.398-1.283,0.523c-0.517,0.124-1.133,0.187-1.847,0.187c-0.47,0-0.971-0.018-1.502-0.054
		s-1.043-0.085-1.536-0.146v-8.226c0.52-0.062,1.047-0.108,1.581-0.142c0.534-0.033,1.111-0.05,1.731-0.05
		c1.124,0,1.977,0.184,2.561,0.552c0.583,0.368,0.875,0.898,0.875,1.59c0,0.471-0.136,0.874-0.407,1.212s-0.681,0.587-1.229,0.747
		c0.266,0.044,0.521,0.117,0.768,0.22c0.247,0.103,0.464,0.235,0.652,0.398s0.339,0.355,0.453,0.577
		C58.267,87.737,58.323,87.989,58.323,88.271z M56.439,84.651c0-0.193-0.039-0.367-0.116-0.522s-0.201-0.288-0.37-0.398
		c-0.168-0.11-0.39-0.195-0.664-0.253c-0.273-0.059-0.604-0.088-0.992-0.088c-0.349,0-0.653,0.008-0.913,0.021
		s-0.518,0.037-0.772,0.07v2.407h1.677C55.722,85.889,56.439,85.477,56.439,84.651z M56.796,88.304c0-0.432-0.195-0.756-0.585-0.975
		c-0.391-0.219-0.998-0.328-1.822-0.328h-1.776v2.549c0.271,0.044,0.54,0.074,0.805,0.091s0.57,0.024,0.913,0.024
		c0.493,0,0.898-0.033,1.216-0.1c0.318-0.066,0.57-0.16,0.755-0.281c0.186-0.122,0.314-0.266,0.386-0.432
		S56.796,88.503,56.796,88.304z"/>
	<path fill="#231F20" d="M67.77,86.47c0,0.647-0.091,1.241-0.274,1.78c-0.183,0.54-0.445,1.002-0.789,1.387
		s-0.761,0.684-1.253,0.896s-1.051,0.319-1.677,0.319c-0.598,0-1.133-0.093-1.606-0.278c-0.474-0.186-0.875-0.458-1.204-0.817
		c-0.329-0.359-0.581-0.805-0.755-1.336c-0.175-0.531-0.262-1.144-0.262-1.835c0-0.647,0.091-1.238,0.274-1.772
		s0.445-0.993,0.789-1.378s0.761-0.684,1.253-0.896s1.051-0.319,1.677-0.319c0.598,0,1.133,0.093,1.606,0.278
		c0.474,0.186,0.875,0.456,1.204,0.813c0.329,0.356,0.581,0.801,0.755,1.332C67.683,85.175,67.77,85.783,67.77,86.47z
		 M66.292,86.536c0-0.515-0.057-0.964-0.17-1.349c-0.114-0.385-0.275-0.706-0.486-0.963c-0.21-0.258-0.466-0.451-0.768-0.581
		c-0.301-0.13-0.638-0.195-1.008-0.195c-0.432,0-0.801,0.084-1.108,0.253c-0.308,0.169-0.559,0.395-0.756,0.677
		c-0.196,0.282-0.34,0.61-0.432,0.983c-0.091,0.374-0.137,0.766-0.137,1.175c0,0.515,0.057,0.966,0.17,1.354
		c0.114,0.387,0.275,0.709,0.486,0.967c0.21,0.257,0.465,0.451,0.764,0.581s0.636,0.194,1.013,0.194
		c0.432,0,0.801-0.084,1.108-0.253c0.308-0.169,0.559-0.394,0.756-0.677c0.196-0.281,0.34-0.609,0.432-0.983
		C66.246,87.346,66.292,86.951,66.292,86.536z"/>
	<path fill="#231F20" d="M76.9,86.097c0,0.204-0.003,0.376-0.008,0.514c-0.005,0.139-0.014,0.269-0.025,0.391h-5.852
		c0,0.853,0.238,1.507,0.714,1.963c0.476,0.457,1.162,0.686,2.059,0.686c0.244,0,0.487-0.01,0.73-0.029s0.479-0.046,0.706-0.079
		s0.444-0.07,0.651-0.112c0.208-0.041,0.4-0.087,0.577-0.137v1.188c-0.393,0.11-0.837,0.2-1.332,0.27
		c-0.496,0.069-1.009,0.104-1.54,0.104c-0.714,0-1.328-0.097-1.843-0.291c-0.515-0.193-0.937-0.474-1.266-0.842
		c-0.33-0.368-0.573-0.819-0.73-1.354c-0.158-0.534-0.237-1.139-0.237-1.813c0-0.587,0.084-1.142,0.253-1.664
		c0.168-0.523,0.415-0.982,0.738-1.378c0.324-0.396,0.721-0.71,1.191-0.942s1.004-0.349,1.602-0.349
		c0.581,0,1.096,0.092,1.544,0.273c0.448,0.184,0.826,0.441,1.133,0.776c0.307,0.335,0.539,0.742,0.697,1.221
		C76.821,84.969,76.9,85.504,76.9,86.097z M75.398,85.889c0.017-0.371-0.02-0.71-0.108-1.017c-0.088-0.308-0.226-0.571-0.411-0.793
		c-0.185-0.222-0.416-0.395-0.693-0.519c-0.277-0.125-0.598-0.187-0.963-0.187c-0.315,0-0.603,0.061-0.863,0.182
		c-0.26,0.122-0.484,0.294-0.672,0.516c-0.188,0.221-0.34,0.486-0.457,0.797c-0.116,0.31-0.188,0.649-0.216,1.021H75.398z"/>
	<path fill="#231F20" d="M88.331,89.209c0.244,0.066,0.503,0.124,0.78,0.175c0.277,0.049,0.551,0.094,0.822,0.133
		c0.271,0.038,0.533,0.067,0.784,0.087c0.252,0.02,0.478,0.028,0.677,0.028c0.47,0,0.862-0.03,1.175-0.091
		c0.313-0.061,0.562-0.148,0.747-0.262c0.185-0.113,0.316-0.252,0.394-0.415s0.116-0.347,0.116-0.552
		c0-0.199-0.035-0.381-0.104-0.544c-0.069-0.163-0.193-0.306-0.373-0.428c-0.18-0.121-0.425-0.215-0.735-0.281s-0.706-0.1-1.187-0.1
		h-2.042v-1.121h2.034c0.42,0,0.765-0.027,1.034-0.083c0.268-0.056,0.48-0.136,0.635-0.241c0.155-0.104,0.26-0.232,0.315-0.381
		c0.055-0.15,0.083-0.321,0.083-0.516c0-0.188-0.035-0.355-0.104-0.502c-0.069-0.146-0.184-0.271-0.345-0.373
		s-0.374-0.182-0.639-0.236c-0.266-0.056-0.595-0.084-0.988-0.084c-0.432,0-0.905,0.031-1.419,0.092s-1.029,0.149-1.544,0.266V82.56
		c0.227-0.049,0.472-0.097,0.735-0.141c0.263-0.044,0.53-0.08,0.801-0.107c0.271-0.028,0.541-0.051,0.81-0.066
		c0.268-0.018,0.524-0.025,0.768-0.025c0.653,0,1.198,0.054,1.635,0.162c0.437,0.107,0.789,0.259,1.054,0.452
		s0.454,0.423,0.564,0.688s0.166,0.557,0.166,0.872c0,0.232-0.033,0.452-0.1,0.66c-0.066,0.207-0.169,0.394-0.307,0.56
		s-0.314,0.308-0.527,0.424c-0.213,0.116-0.469,0.199-0.768,0.249c0.299,0.044,0.576,0.117,0.83,0.22s0.475,0.238,0.66,0.407
		c0.186,0.169,0.332,0.369,0.44,0.602c0.107,0.232,0.162,0.498,0.162,0.797c0,0.365-0.071,0.704-0.211,1.017
		c-0.142,0.313-0.373,0.581-0.693,0.806c-0.321,0.224-0.744,0.399-1.27,0.526c-0.526,0.128-1.17,0.191-1.934,0.191
		c-0.205,0-0.43-0.007-0.677-0.021c-0.246-0.014-0.5-0.033-0.764-0.059c-0.263-0.024-0.521-0.055-0.776-0.091
		s-0.493-0.079-0.714-0.129V89.209z"/>
	<path fill="#231F20" d="M104.6,90.703h-1.444v-3.686h-3.81v3.686h-1.444v-8.334h1.444v3.387h3.81v-3.387h1.444V90.703z"/>
	<path fill="#231F20" d="M112.602,90.703l-0.033-1.12c-0.454,0.447-0.915,0.771-1.382,0.971c-0.467,0.199-0.958,0.299-1.473,0.299
		c-0.476,0-0.883-0.061-1.22-0.183s-0.616-0.289-0.834-0.502c-0.219-0.213-0.379-0.464-0.481-0.751
		c-0.103-0.288-0.154-0.601-0.154-0.938c0-0.836,0.311-1.49,0.934-1.963c0.622-0.474,1.542-0.71,2.76-0.71h1.727v-0.73
		c0-0.492-0.158-0.887-0.473-1.183s-0.797-0.444-1.444-0.444c-0.47,0-0.934,0.053-1.39,0.158c-0.457,0.104-0.929,0.254-1.416,0.447
		v-1.303c0.183-0.066,0.386-0.132,0.61-0.195c0.225-0.063,0.461-0.12,0.71-0.17s0.509-0.09,0.78-0.12s0.545-0.046,0.822-0.046
		c0.503,0,0.958,0.056,1.361,0.166s0.746,0.279,1.025,0.506c0.28,0.228,0.494,0.513,0.644,0.855s0.224,0.747,0.224,1.212v5.744
		H112.602z M112.444,86.909h-1.834c-0.36,0-0.669,0.036-0.93,0.108s-0.473,0.175-0.639,0.308s-0.289,0.291-0.369,0.477
		c-0.081,0.186-0.121,0.395-0.121,0.627c0,0.16,0.025,0.314,0.075,0.461s0.13,0.276,0.241,0.39s0.254,0.204,0.432,0.271
		s0.393,0.1,0.647,0.1c0.332,0,0.712-0.102,1.141-0.304c0.429-0.202,0.881-0.521,1.357-0.958V86.909z"/>
	<path fill="#231F20" d="M121.849,87.474h-1.718c-1.29,0-2.236-0.24-2.839-0.722s-0.905-1.182-0.905-2.101v-2.282h1.461v2.092
		c0,0.332,0.044,0.611,0.133,0.839c0.088,0.227,0.231,0.41,0.427,0.552c0.197,0.141,0.448,0.242,0.756,0.303
		c0.307,0.061,0.679,0.091,1.116,0.091h1.569v-3.876h1.444v8.334h-1.444V87.474z"/>
	<path fill="#231F20" d="M132.98,86.097c0,0.204-0.003,0.376-0.008,0.514c-0.005,0.139-0.014,0.269-0.025,0.391h-5.852
		c0,0.853,0.238,1.507,0.714,1.963c0.476,0.457,1.162,0.686,2.059,0.686c0.244,0,0.487-0.01,0.73-0.029s0.479-0.046,0.706-0.079
		s0.444-0.07,0.651-0.112c0.208-0.041,0.4-0.087,0.577-0.137v1.188c-0.393,0.11-0.837,0.2-1.332,0.27
		c-0.496,0.069-1.009,0.104-1.54,0.104c-0.714,0-1.328-0.097-1.843-0.291c-0.515-0.193-0.937-0.474-1.266-0.842
		c-0.33-0.368-0.573-0.819-0.73-1.354c-0.158-0.534-0.237-1.139-0.237-1.813c0-0.587,0.084-1.142,0.253-1.664
		c0.168-0.523,0.415-0.982,0.738-1.378c0.324-0.396,0.721-0.71,1.191-0.942s1.004-0.349,1.602-0.349
		c0.581,0,1.096,0.092,1.544,0.273c0.448,0.184,0.826,0.441,1.133,0.776c0.307,0.335,0.539,0.742,0.697,1.221
		C132.901,84.969,132.98,85.504,132.98,86.097z M131.478,85.889c0.017-0.371-0.02-0.71-0.108-1.017
		c-0.088-0.308-0.226-0.571-0.411-0.793c-0.185-0.222-0.416-0.395-0.693-0.519c-0.277-0.125-0.598-0.187-0.963-0.187
		c-0.315,0-0.603,0.061-0.863,0.182c-0.26,0.122-0.484,0.294-0.672,0.516c-0.188,0.221-0.34,0.486-0.457,0.797
		c-0.116,0.31-0.188,0.649-0.216,1.021H131.478z"/>
	<path fill="#231F20" d="M141.987,90.703h-1.444v-3.686h-3.81v3.686h-1.444v-8.334h1.444v3.387h3.81v-3.387h1.444V90.703z"/>
	<path fill="#231F20" d="M146.195,82.369v5.868l3.636-5.868h1.378v8.334h-1.444v-5.868l-3.636,5.868h-1.378v-8.334H146.195z"/>
	<path fill="#231F20" d="M161.021,86.097c0,0.204-0.003,0.376-0.008,0.514c-0.005,0.139-0.014,0.269-0.025,0.391h-5.852
		c0,0.853,0.238,1.507,0.714,1.963c0.476,0.457,1.162,0.686,2.059,0.686c0.244,0,0.487-0.01,0.73-0.029s0.479-0.046,0.706-0.079
		s0.444-0.07,0.651-0.112c0.208-0.041,0.4-0.087,0.577-0.137v1.188c-0.393,0.11-0.837,0.2-1.332,0.27
		c-0.496,0.069-1.009,0.104-1.54,0.104c-0.714,0-1.328-0.097-1.843-0.291c-0.515-0.193-0.937-0.474-1.266-0.842
		c-0.33-0.368-0.573-0.819-0.73-1.354c-0.158-0.534-0.237-1.139-0.237-1.813c0-0.587,0.084-1.142,0.253-1.664
		c0.168-0.523,0.415-0.982,0.738-1.378c0.324-0.396,0.721-0.71,1.191-0.942s1.004-0.349,1.602-0.349
		c0.581,0,1.096,0.092,1.544,0.273c0.448,0.184,0.826,0.441,1.133,0.776c0.307,0.335,0.539,0.742,0.697,1.221
		C160.941,84.969,161.021,85.504,161.021,86.097z M159.518,85.889c0.017-0.371-0.02-0.71-0.108-1.017
		c-0.088-0.308-0.226-0.571-0.411-0.793c-0.185-0.222-0.416-0.395-0.693-0.519c-0.277-0.125-0.598-0.187-0.963-0.187
		c-0.315,0-0.603,0.061-0.863,0.182c-0.26,0.122-0.484,0.294-0.672,0.516c-0.188,0.221-0.34,0.486-0.457,0.797
		c-0.116,0.31-0.188,0.649-0.216,1.021H159.518z"/>
</g>
<g>
	<path fill="#231F20" d="M132.989,149.703h-1.478v-9.538h-4.449v9.538h-1.478v-10.849h7.404V149.703z"/>
	<path fill="#231F20" d="M141.912,149.703h-1.444v-7.089h-2.324c-0.066,1.14-0.165,2.117-0.295,2.93
		c-0.13,0.814-0.286,1.493-0.469,2.038s-0.39,0.975-0.623,1.287s-0.483,0.539-0.751,0.681c-0.268,0.141-0.552,0.21-0.851,0.207
		s-0.606-0.043-0.921-0.12l0.066-1.195c0.221,0.022,0.429,0.011,0.623-0.033s0.374-0.15,0.54-0.319s0.317-0.412,0.453-0.73
		c0.135-0.318,0.258-0.743,0.369-1.274s0.206-1.183,0.286-1.955c0.081-0.771,0.146-1.691,0.195-2.76h5.146V149.703z"/>
	<path fill="#231F20" d="M149.989,149.703l-0.033-1.12c-0.454,0.447-0.915,0.771-1.382,0.971c-0.467,0.199-0.958,0.299-1.473,0.299
		c-0.476,0-0.883-0.061-1.22-0.183s-0.616-0.289-0.834-0.502c-0.219-0.213-0.379-0.464-0.481-0.751
		c-0.103-0.288-0.154-0.601-0.154-0.938c0-0.836,0.311-1.49,0.934-1.963c0.622-0.474,1.542-0.71,2.76-0.71h1.727v-0.73
		c0-0.492-0.158-0.887-0.473-1.183s-0.797-0.444-1.444-0.444c-0.47,0-0.934,0.053-1.39,0.158c-0.457,0.104-0.929,0.254-1.416,0.447
		v-1.303c0.183-0.066,0.386-0.132,0.61-0.195c0.225-0.063,0.461-0.12,0.71-0.17s0.509-0.09,0.78-0.12s0.545-0.046,0.822-0.046
		c0.503,0,0.958,0.056,1.361,0.166s0.746,0.279,1.025,0.506c0.28,0.228,0.494,0.513,0.644,0.855s0.224,0.747,0.224,1.212v5.744
		H149.989z M149.831,145.909h-1.834c-0.36,0-0.669,0.036-0.93,0.108s-0.473,0.175-0.639,0.308s-0.289,0.291-0.369,0.477
		c-0.081,0.186-0.121,0.395-0.121,0.627c0,0.16,0.025,0.314,0.075,0.461s0.13,0.276,0.241,0.39s0.254,0.204,0.432,0.271
		s0.393,0.1,0.647,0.1c0.332,0,0.712-0.102,1.141-0.304c0.429-0.202,0.881-0.521,1.357-0.958V145.909z"/>
	<path fill="#231F20" d="M160.68,149.703h-1.444v-3.686h-3.81v3.686h-1.444v-8.334h1.444v3.387h3.81v-3.387h1.444V149.703z"/>
</g>
<g>
	<path fill="#231F20" d="M127.402,260.312h1.751c0.664,0,1.25,0.079,1.755,0.236c0.507,0.158,0.93,0.375,1.271,0.652
		c0.34,0.276,0.598,0.6,0.771,0.971c0.175,0.371,0.262,0.771,0.262,1.203c0,0.516-0.101,0.979-0.303,1.391
		c-0.202,0.412-0.487,0.763-0.855,1.051c-0.368,0.287-0.811,0.507-1.328,0.659c-0.517,0.152-1.094,0.229-1.73,0.229h-3.071v-10.849
		h6.524v1.244h-5.047V260.312z M131.652,263.474c0-0.293-0.05-0.559-0.149-0.797c-0.1-0.237-0.254-0.442-0.465-0.613
		c-0.21-0.172-0.479-0.304-0.805-0.395c-0.327-0.092-0.719-0.137-1.179-0.137h-1.652v3.926h1.702c0.841,0,1.476-0.173,1.905-0.519
		C131.438,264.594,131.652,264.104,131.652,263.474z"/>
	<path fill="#231F20" d="M140.642,266.703l-0.033-1.12c-0.454,0.447-0.915,0.771-1.382,0.971c-0.467,0.199-0.958,0.299-1.473,0.299
		c-0.476,0-0.883-0.061-1.22-0.183s-0.616-0.289-0.834-0.502c-0.219-0.213-0.379-0.464-0.481-0.751
		c-0.103-0.288-0.154-0.601-0.154-0.938c0-0.836,0.311-1.49,0.934-1.963c0.622-0.474,1.542-0.71,2.76-0.71h1.727v-0.73
		c0-0.492-0.158-0.887-0.473-1.183s-0.797-0.444-1.444-0.444c-0.47,0-0.934,0.053-1.39,0.158c-0.457,0.104-0.929,0.254-1.416,0.447
		v-1.303c0.183-0.066,0.386-0.132,0.61-0.195c0.225-0.063,0.461-0.12,0.71-0.17s0.509-0.09,0.78-0.12s0.545-0.046,0.822-0.046
		c0.503,0,0.958,0.056,1.361,0.166s0.746,0.279,1.025,0.506c0.28,0.228,0.494,0.513,0.644,0.855s0.224,0.747,0.224,1.212v5.744
		H140.642z M140.484,262.909h-1.834c-0.36,0-0.669,0.036-0.93,0.108s-0.473,0.175-0.639,0.308s-0.289,0.291-0.369,0.477
		c-0.081,0.186-0.121,0.395-0.121,0.627c0,0.16,0.025,0.314,0.075,0.461s0.13,0.276,0.241,0.39s0.254,0.204,0.432,0.271
		s0.393,0.1,0.647,0.1c0.332,0,0.712-0.102,1.141-0.304c0.429-0.202,0.881-0.521,1.357-0.958V262.909z"/>
	<path fill="#231F20" d="M144.411,265.209c0.244,0.066,0.503,0.124,0.78,0.175c0.277,0.049,0.551,0.094,0.822,0.133
		c0.271,0.038,0.533,0.067,0.784,0.087c0.252,0.02,0.478,0.028,0.677,0.028c0.47,0,0.862-0.03,1.175-0.091
		c0.313-0.061,0.562-0.148,0.747-0.262c0.185-0.113,0.316-0.252,0.394-0.415s0.116-0.347,0.116-0.552
		c0-0.199-0.035-0.381-0.104-0.544c-0.069-0.163-0.193-0.306-0.373-0.428c-0.18-0.121-0.425-0.215-0.735-0.281s-0.706-0.1-1.187-0.1
		h-2.042v-1.121h2.034c0.42,0,0.765-0.027,1.034-0.083c0.268-0.056,0.48-0.136,0.635-0.241c0.155-0.104,0.26-0.232,0.315-0.381
		c0.055-0.15,0.083-0.321,0.083-0.516c0-0.188-0.035-0.355-0.104-0.502c-0.069-0.146-0.184-0.271-0.345-0.373
		s-0.374-0.182-0.639-0.236c-0.266-0.056-0.595-0.084-0.988-0.084c-0.432,0-0.905,0.031-1.419,0.092s-1.029,0.149-1.544,0.266
		v-1.221c0.227-0.049,0.472-0.097,0.735-0.141c0.263-0.044,0.53-0.08,0.801-0.107c0.271-0.028,0.541-0.051,0.81-0.066
		c0.268-0.018,0.524-0.025,0.768-0.025c0.653,0,1.198,0.054,1.635,0.162c0.437,0.107,0.789,0.259,1.054,0.452
		s0.454,0.423,0.564,0.688s0.166,0.557,0.166,0.872c0,0.232-0.033,0.452-0.1,0.66c-0.066,0.207-0.169,0.394-0.307,0.56
		s-0.314,0.308-0.527,0.424c-0.213,0.116-0.469,0.199-0.768,0.249c0.299,0.044,0.576,0.117,0.83,0.22s0.475,0.238,0.66,0.407
		c0.186,0.169,0.332,0.369,0.44,0.602c0.107,0.232,0.162,0.498,0.162,0.797c0,0.365-0.071,0.704-0.211,1.017
		c-0.142,0.313-0.373,0.581-0.693,0.806c-0.321,0.224-0.744,0.399-1.27,0.526c-0.526,0.128-1.17,0.191-1.934,0.191
		c-0.205,0-0.43-0.007-0.677-0.021c-0.246-0.014-0.5-0.033-0.764-0.059c-0.263-0.024-0.521-0.055-0.776-0.091
		s-0.493-0.079-0.714-0.129V265.209z"/>
	<path fill="#231F20" d="M159.335,266.703l-0.033-1.12c-0.454,0.447-0.915,0.771-1.382,0.971c-0.467,0.199-0.958,0.299-1.473,0.299
		c-0.476,0-0.883-0.061-1.22-0.183s-0.616-0.289-0.834-0.502c-0.219-0.213-0.379-0.464-0.481-0.751
		c-0.103-0.288-0.154-0.601-0.154-0.938c0-0.836,0.311-1.49,0.934-1.963c0.622-0.474,1.542-0.71,2.76-0.71h1.727v-0.73
		c0-0.492-0.158-0.887-0.473-1.183s-0.797-0.444-1.444-0.444c-0.47,0-0.934,0.053-1.39,0.158c-0.457,0.104-0.929,0.254-1.416,0.447
		v-1.303c0.183-0.066,0.386-0.132,0.61-0.195c0.225-0.063,0.461-0.12,0.71-0.17s0.509-0.09,0.78-0.12s0.545-0.046,0.822-0.046
		c0.503,0,0.958,0.056,1.361,0.166s0.746,0.279,1.025,0.506c0.28,0.228,0.494,0.513,0.644,0.855s0.224,0.747,0.224,1.212v5.744
		H159.335z M159.178,262.909h-1.834c-0.36,0-0.669,0.036-0.93,0.108s-0.473,0.175-0.639,0.308s-0.289,0.291-0.369,0.477
		c-0.081,0.186-0.121,0.395-0.121,0.627c0,0.16,0.025,0.314,0.075,0.461s0.13,0.276,0.241,0.39s0.254,0.204,0.432,0.271
		s0.393,0.1,0.647,0.1c0.332,0,0.712-0.102,1.141-0.304c0.429-0.202,0.881-0.521,1.357-0.958V262.909z"/>
</g>
<g>
	<path fill="#231F20" d="M129.967,321.853h-1.361v-1.088c-0.542-0.038-1.036-0.145-1.482-0.319c-0.445-0.174-0.83-0.435-1.153-0.78
		c-0.324-0.346-0.574-0.791-0.751-1.336s-0.266-1.211-0.266-1.996c0-0.792,0.095-1.46,0.287-2.005
		c0.19-0.545,0.452-0.993,0.784-1.345s0.719-0.619,1.162-0.801c0.443-0.184,0.916-0.308,1.419-0.374v-1.104h1.361v1.104
		c0.581,0.044,1.099,0.167,1.552,0.369s0.837,0.484,1.149,0.847c0.313,0.362,0.552,0.81,0.718,1.341s0.249,1.146,0.249,1.843
		c0,0.791-0.103,1.462-0.307,2.013s-0.478,1.005-0.817,1.361c-0.341,0.357-0.73,0.628-1.171,0.813
		c-0.439,0.186-0.897,0.309-1.374,0.369V321.853z M128.606,313.054c-0.387,0.044-0.719,0.148-0.996,0.312s-0.505,0.38-0.685,0.651
		c-0.18,0.271-0.313,0.594-0.398,0.967c-0.085,0.374-0.128,0.796-0.128,1.266c0,0.564,0.048,1.045,0.145,1.44
		c0.097,0.396,0.24,0.723,0.428,0.979c0.188,0.258,0.419,0.454,0.693,0.59c0.273,0.136,0.588,0.223,0.942,0.262V313.054z
		 M129.967,319.521c0.382-0.051,0.712-0.158,0.992-0.324c0.28-0.166,0.511-0.391,0.693-0.672c0.183-0.283,0.318-0.604,0.407-0.963
		c0.088-0.36,0.133-0.775,0.133-1.246c0-0.476-0.042-0.897-0.125-1.266s-0.214-0.695-0.395-0.983
		c-0.18-0.288-0.412-0.518-0.697-0.688c-0.285-0.172-0.621-0.28-1.008-0.324V319.521z"/>
	<path fill="#231F20" d="M140.642,321.703l-0.033-1.12c-0.454,0.447-0.915,0.771-1.382,0.971c-0.467,0.199-0.958,0.299-1.473,0.299
		c-0.476,0-0.883-0.061-1.22-0.183s-0.616-0.289-0.834-0.502c-0.219-0.213-0.379-0.464-0.481-0.751
		c-0.103-0.288-0.154-0.601-0.154-0.938c0-0.836,0.311-1.49,0.934-1.963c0.622-0.474,1.542-0.71,2.76-0.71h1.727v-0.73
		c0-0.492-0.158-0.887-0.473-1.183s-0.797-0.444-1.444-0.444c-0.47,0-0.934,0.053-1.39,0.158c-0.457,0.104-0.929,0.254-1.416,0.447
		v-1.303c0.183-0.066,0.386-0.132,0.61-0.195c0.225-0.063,0.461-0.12,0.71-0.17s0.509-0.09,0.78-0.12s0.545-0.046,0.822-0.046
		c0.503,0,0.958,0.056,1.361,0.166s0.746,0.279,1.025,0.506c0.28,0.228,0.494,0.513,0.644,0.855s0.224,0.747,0.224,1.212v5.744
		H140.642z M140.484,317.909h-1.834c-0.36,0-0.669,0.036-0.93,0.108s-0.473,0.175-0.639,0.308s-0.289,0.291-0.369,0.477
		c-0.081,0.186-0.121,0.395-0.121,0.627c0,0.16,0.025,0.314,0.075,0.461s0.13,0.276,0.241,0.39s0.254,0.204,0.432,0.271
		s0.393,0.1,0.647,0.1c0.332,0,0.712-0.102,1.141-0.304c0.429-0.202,0.881-0.521,1.357-0.958V317.909z"/>
	<path fill="#231F20" d="M152.13,321.703h-1.984l-3.885-4.466v4.466h-1.444v-8.334h1.444v3.81l3.744-3.81h1.909l-3.91,3.843
		L152.13,321.703z"/>
	<path fill="#231F20" d="M161.22,314.614h-3.163v7.089h-1.461v-7.089h-3.163v-1.245h7.786V314.614z"/>
</g>
<g>
	<path fill="#231F20" d="M818.791,405.703v-10.849h3.502c1.234,0,2.16,0.215,2.777,0.646s0.926,1.085,0.926,1.959
		c0,0.271-0.032,0.536-0.096,0.793c-0.064,0.258-0.162,0.494-0.295,0.71s-0.299,0.407-0.498,0.573s-0.435,0.296-0.705,0.39
		c0.271,0.044,0.529,0.132,0.775,0.262s0.463,0.299,0.647,0.506c0.186,0.208,0.332,0.452,0.44,0.735
		c0.107,0.281,0.162,0.598,0.162,0.945c0,1.107-0.371,1.938-1.113,2.495c-0.741,0.556-1.813,0.834-3.212,0.834H818.791z
		 M823.871,397.817c0-0.205-0.033-0.391-0.1-0.557s-0.174-0.307-0.32-0.423s-0.334-0.206-0.564-0.27
		c-0.229-0.063-0.508-0.096-0.834-0.096h-1.236v2.872h1.236c0.332,0,0.613-0.04,0.843-0.12s0.417-0.191,0.564-0.332
		c0.146-0.142,0.251-0.304,0.315-0.485C823.839,398.224,823.871,398.027,823.871,397.817z M822.244,404.034
		c0.326,0,0.612-0.041,0.858-0.124c0.247-0.083,0.452-0.198,0.618-0.345s0.293-0.319,0.378-0.519
		c0.086-0.199,0.129-0.412,0.129-0.64c0-0.47-0.176-0.838-0.527-1.104c-0.351-0.266-0.89-0.398-1.614-0.398h-1.27v3.129H822.244z"/>
	<path fill="#231F20" d="M835.807,401.337c0,0.774-0.109,1.444-0.327,2.009c-0.219,0.564-0.523,1.033-0.913,1.407
		c-0.391,0.373-0.852,0.65-1.383,0.83s-1.109,0.27-1.734,0.27c-0.211,0-0.42-0.014-0.631-0.041
		c-0.211-0.028-0.401-0.064-0.572-0.108v3.296h-2.025V397.27h1.751l0.05,1.245c0.172-0.216,0.35-0.412,0.535-0.59
		c0.186-0.177,0.387-0.327,0.602-0.452c0.217-0.124,0.449-0.22,0.697-0.286c0.25-0.066,0.529-0.1,0.839-0.1
		c0.498,0,0.94,0.1,1.328,0.299s0.712,0.482,0.976,0.851c0.263,0.368,0.463,0.813,0.602,1.337
		C835.738,400.096,835.807,400.684,835.807,401.337z M833.682,401.42c0-0.465-0.033-0.86-0.1-1.187
		c-0.066-0.327-0.161-0.596-0.286-0.806c-0.124-0.21-0.276-0.364-0.456-0.461s-0.387-0.146-0.619-0.146
		c-0.343,0-0.67,0.139-0.983,0.416c-0.313,0.276-0.644,0.652-0.991,1.129v3.686c0.16,0.061,0.357,0.11,0.593,0.148
		c0.235,0.039,0.475,0.059,0.718,0.059c0.321,0,0.613-0.066,0.876-0.199s0.487-0.321,0.673-0.564s0.328-0.541,0.428-0.893
		S833.682,401.857,833.682,401.42z"/>
	<path fill="#231F20" d="M844.913,400.839c0,0.139-0.004,0.318-0.013,0.539c-0.008,0.222-0.021,0.43-0.037,0.623h-5.545
		c0,0.371,0.057,0.697,0.17,0.979s0.274,0.519,0.481,0.71c0.208,0.19,0.457,0.336,0.747,0.436c0.291,0.1,0.613,0.149,0.967,0.149
		c0.41,0,0.849-0.032,1.316-0.096c0.467-0.063,0.953-0.167,1.457-0.312v1.611c-0.217,0.061-0.451,0.115-0.706,0.166
		c-0.255,0.049-0.515,0.094-0.78,0.133c-0.266,0.038-0.534,0.067-0.805,0.087c-0.271,0.02-0.535,0.028-0.789,0.028
		c-0.643,0-1.217-0.091-1.727-0.273s-0.941-0.452-1.295-0.81c-0.354-0.356-0.625-0.798-0.813-1.323
		c-0.188-0.526-0.282-1.135-0.282-1.826c0-0.687,0.094-1.311,0.282-1.872s0.454-1.043,0.797-1.444s0.76-0.711,1.249-0.93
		c0.49-0.219,1.037-0.328,1.64-0.328c0.598,0,1.126,0.093,1.585,0.278c0.46,0.186,0.844,0.444,1.154,0.776s0.545,0.728,0.705,1.187
		C844.833,399.787,844.913,400.291,844.913,400.839z M842.854,400.548c0.005-0.332-0.036-0.621-0.124-0.867
		c-0.089-0.246-0.209-0.449-0.361-0.609c-0.152-0.161-0.33-0.28-0.531-0.357c-0.202-0.077-0.42-0.116-0.652-0.116
		c-0.509,0-0.926,0.17-1.253,0.511c-0.327,0.34-0.521,0.82-0.581,1.439H842.854z"/>
	<path fill="#231F20" d="M852.932,405.703l-0.199-4.44l-0.074-2.051l-0.523,1.411l-1.203,3.104h-1.279l-1.087-3.104l-0.456-1.411
		l-0.059,2.018l-0.183,4.474h-1.735l0.531-8.434h2.309l0.954,2.623l0.456,1.461l0.457-1.395l1.004-2.689h2.35l0.539,8.434H852.932z"
		/>
	<path fill="#231F20" d="M856.775,403.304c0.171-0.393,0.379-0.679,0.622-0.858s0.495-0.295,0.755-0.345
		c-0.276-0.044-0.529-0.126-0.759-0.245s-0.428-0.272-0.594-0.46c-0.166-0.188-0.295-0.404-0.386-0.648
		c-0.092-0.243-0.137-0.512-0.137-0.805c0-0.504,0.09-0.934,0.27-1.291c0.18-0.356,0.447-0.647,0.801-0.871
		c0.354-0.225,0.795-0.388,1.324-0.49c0.528-0.103,1.141-0.153,1.838-0.153c0.487,0,0.972,0.011,1.453,0.033s0.96,0.056,1.436,0.1
		v8.434h-1.983v-3.097h-0.797c-0.243,0-0.461,0.02-0.651,0.059c-0.191,0.039-0.365,0.1-0.523,0.183
		c-0.157,0.083-0.296,0.199-0.415,0.349c-0.118,0.149-0.208,0.315-0.27,0.498l-0.73,2.009h-2.274L856.775,403.304z M858.418,399.909
		c0,0.238,0.046,0.435,0.138,0.59c0.091,0.154,0.226,0.279,0.402,0.373s0.396,0.16,0.655,0.199c0.261,0.039,0.56,0.059,0.896,0.059
		h0.905v-2.449c-0.161-0.017-0.325-0.026-0.494-0.029s-0.35-0.004-0.544-0.004c-0.785,0-1.309,0.105-1.568,0.315
		S858.418,399.488,858.418,399.909z"/>
</g>
<g>
	<path fill="#231F20" d="M193.483,12.628c0.664,0.205,1.267,0.353,1.81,0.444c0.542,0.091,1.112,0.137,1.71,0.137
		c0.327,0,0.614-0.046,0.863-0.137c0.249-0.092,0.457-0.216,0.623-0.374c0.166-0.157,0.292-0.34,0.377-0.548
		c0.086-0.207,0.129-0.427,0.129-0.659s-0.044-0.447-0.133-0.644s-0.221-0.364-0.398-0.503c-0.177-0.138-0.4-0.246-0.668-0.323
		c-0.269-0.077-0.583-0.116-0.942-0.116h-2.59V8.345h2.465c0.337,0,0.626-0.043,0.868-0.129c0.24-0.086,0.438-0.203,0.593-0.353
		s0.269-0.322,0.34-0.519s0.108-0.402,0.108-0.619c0-0.204-0.035-0.394-0.104-0.568c-0.069-0.174-0.178-0.325-0.328-0.452
		s-0.344-0.227-0.585-0.299c-0.24-0.072-0.532-0.108-0.875-0.108c-0.254,0-0.497,0.012-0.726,0.033
		c-0.23,0.022-0.461,0.055-0.693,0.096c-0.232,0.042-0.475,0.096-0.727,0.162c-0.251,0.066-0.527,0.141-0.826,0.225V4.111
		c0.47-0.144,0.971-0.253,1.502-0.328c0.531-0.074,1.074-0.112,1.627-0.112c1.29,0,2.255,0.238,2.897,0.715
		c0.642,0.476,0.963,1.184,0.963,2.125c0,0.613-0.126,1.121-0.377,1.522c-0.252,0.401-0.66,0.699-1.225,0.893
		c0.271,0.044,0.53,0.136,0.776,0.274c0.246,0.138,0.462,0.316,0.647,0.535c0.185,0.219,0.332,0.473,0.439,0.764
		c0.108,0.29,0.162,0.609,0.162,0.959c0,1.111-0.367,1.963-1.1,2.552c-0.733,0.59-1.806,0.884-3.217,0.884
		c-0.636,0-1.225-0.04-1.764-0.12c-0.54-0.08-1.081-0.206-1.623-0.378V12.628z"/>
	<path fill="#231F20" d="M208.392,14.703V11.15h-3.279v3.553h-1.992V6.27h1.992v3.163h3.279V6.27h1.984v8.434H208.392z"/>
	<path fill="#231F20" d="M217.854,14.703l-0.05-1.104c-0.177,0.188-0.362,0.361-0.556,0.52c-0.194,0.157-0.407,0.295-0.639,0.41
		c-0.232,0.117-0.485,0.207-0.76,0.271c-0.273,0.063-0.574,0.095-0.9,0.095c-0.432,0-0.811-0.063-1.137-0.19
		s-0.601-0.305-0.822-0.531s-0.389-0.501-0.502-0.821c-0.114-0.321-0.17-0.676-0.17-1.063c0-0.398,0.084-0.767,0.253-1.104
		c0.168-0.338,0.426-0.628,0.771-0.872c0.346-0.243,0.778-0.434,1.295-0.572c0.518-0.139,1.125-0.207,1.822-0.207h1.104V9.025
		c0-0.216-0.03-0.411-0.091-0.585c-0.061-0.175-0.159-0.322-0.295-0.444c-0.135-0.122-0.311-0.216-0.527-0.282s-0.481-0.1-0.797-0.1
		c-0.498,0-0.989,0.057-1.473,0.17c-0.484,0.113-0.954,0.272-1.407,0.478V6.644c0.404-0.161,0.87-0.294,1.398-0.398
		c0.529-0.105,1.078-0.158,1.648-0.158c0.625,0,1.162,0.06,1.61,0.179s0.818,0.297,1.108,0.535c0.291,0.238,0.505,0.535,0.644,0.893
		c0.138,0.356,0.208,0.773,0.208,1.249v5.761H217.854z M217.564,10.976h-1.237c-0.343,0-0.634,0.033-0.872,0.1
		s-0.432,0.158-0.581,0.274s-0.259,0.25-0.328,0.402c-0.069,0.152-0.104,0.314-0.104,0.485c0,0.344,0.111,0.605,0.332,0.785
		s0.523,0.27,0.905,0.27c0.282,0,0.576-0.103,0.88-0.307c0.304-0.205,0.639-0.498,1.004-0.881V10.976z"/>
	<path fill="#231F20" d="M227.085,14.703v-3.345c-0.293,0.115-0.599,0.201-0.917,0.257c-0.318,0.056-0.635,0.083-0.951,0.083
		c-0.686,0-1.27-0.069-1.751-0.207c-0.481-0.139-0.873-0.345-1.175-0.619c-0.301-0.273-0.521-0.612-0.66-1.017
		s-0.208-0.869-0.208-1.395V6.27h1.984v1.942c0,0.315,0.03,0.59,0.091,0.822s0.165,0.424,0.312,0.576
		c0.146,0.152,0.339,0.266,0.577,0.341c0.238,0.074,0.537,0.112,0.896,0.112c0.304,0,0.606-0.031,0.905-0.092
		s0.598-0.144,0.896-0.249V6.27h1.984v8.434H227.085z"/>
	<path fill="#231F20" d="M238.606,9.839c0,0.139-0.004,0.318-0.013,0.539c-0.008,0.222-0.021,0.43-0.037,0.623h-5.545
		c0,0.371,0.057,0.697,0.17,0.979c0.114,0.282,0.274,0.519,0.481,0.71c0.208,0.19,0.457,0.336,0.747,0.436
		c0.291,0.1,0.613,0.149,0.967,0.149c0.41,0,0.848-0.032,1.316-0.096c0.467-0.063,0.953-0.167,1.457-0.312v1.611
		c-0.216,0.061-0.451,0.115-0.706,0.166c-0.254,0.049-0.515,0.094-0.78,0.133c-0.266,0.038-0.534,0.067-0.805,0.087
		s-0.534,0.028-0.789,0.028c-0.642,0-1.217-0.091-1.727-0.273s-0.941-0.452-1.295-0.81c-0.354-0.356-0.625-0.798-0.813-1.323
		c-0.188-0.526-0.282-1.135-0.282-1.826c0-0.687,0.094-1.311,0.282-1.872s0.454-1.043,0.797-1.444s0.76-0.711,1.249-0.93
		c0.49-0.219,1.037-0.328,1.64-0.328c0.598,0,1.126,0.093,1.585,0.278s0.844,0.444,1.154,0.776s0.545,0.728,0.706,1.187
		S238.606,9.291,238.606,9.839z M236.548,9.548c0.005-0.332-0.036-0.621-0.125-0.867s-0.209-0.449-0.361-0.609
		c-0.152-0.161-0.33-0.28-0.531-0.357c-0.202-0.077-0.419-0.116-0.652-0.116c-0.509,0-0.927,0.17-1.253,0.511
		c-0.327,0.34-0.52,0.82-0.581,1.439H236.548z"/>
	<path fill="#231F20" d="M245.778,14.703V11.15H242.5v3.553h-1.992V6.27h1.992v3.163h3.279V6.27h1.984v8.434H245.778z"/>
	<path fill="#231F20" d="M255.108,14.703V9.433h-0.017l-3.329,5.271h-1.917V6.27h1.992v5.271h0.017l3.32-5.271h1.926v8.434H255.108z
		"/>
	<path fill="#231F20" d="M266.646,9.839c0,0.139-0.004,0.318-0.013,0.539c-0.008,0.222-0.021,0.43-0.037,0.623h-5.545
		c0,0.371,0.057,0.697,0.17,0.979c0.114,0.282,0.274,0.519,0.481,0.71c0.208,0.19,0.457,0.336,0.747,0.436
		c0.291,0.1,0.613,0.149,0.967,0.149c0.41,0,0.848-0.032,1.316-0.096c0.467-0.063,0.953-0.167,1.457-0.312v1.611
		c-0.216,0.061-0.451,0.115-0.706,0.166c-0.254,0.049-0.515,0.094-0.78,0.133c-0.266,0.038-0.534,0.067-0.805,0.087
		s-0.534,0.028-0.789,0.028c-0.642,0-1.217-0.091-1.727-0.273s-0.941-0.452-1.295-0.81c-0.354-0.356-0.625-0.798-0.813-1.323
		c-0.188-0.526-0.282-1.135-0.282-1.826c0-0.687,0.094-1.311,0.282-1.872s0.454-1.043,0.797-1.444s0.76-0.711,1.249-0.93
		c0.49-0.219,1.037-0.328,1.64-0.328c0.598,0,1.126,0.093,1.585,0.278s0.844,0.444,1.154,0.776s0.545,0.728,0.706,1.187
		S266.646,9.291,266.646,9.839z M264.588,9.548c0.005-0.332-0.036-0.621-0.125-0.867s-0.209-0.449-0.361-0.609
		c-0.152-0.161-0.33-0.28-0.531-0.357c-0.202-0.077-0.419-0.116-0.652-0.116c-0.509,0-0.927,0.17-1.253,0.511
		c-0.327,0.34-0.52,0.82-0.581,1.439H264.588z"/>
	<path fill="#231F20" d="M283.165,14.703V8.005h-3.279v6.698h-1.992V6.27h7.255v8.434H283.165z"/>
	<path fill="#231F20" d="M294.936,10.42c0,0.664-0.094,1.271-0.282,1.822s-0.459,1.022-0.813,1.415s-0.789,0.697-1.303,0.913
		s-1.101,0.323-1.76,0.323c-0.625,0-1.184-0.091-1.677-0.273s-0.91-0.455-1.253-0.817s-0.606-0.816-0.789-1.361
		s-0.274-1.181-0.274-1.905c0-0.67,0.096-1.278,0.286-1.826c0.191-0.548,0.465-1.016,0.822-1.402
		c0.356-0.388,0.792-0.688,1.307-0.901s1.096-0.319,1.743-0.319c0.631,0,1.192,0.093,1.685,0.278s0.91,0.46,1.253,0.825
		s0.604,0.818,0.785,1.357C294.846,9.088,294.936,9.712,294.936,10.42z M292.827,10.47c0-0.874-0.165-1.531-0.494-1.972
		c-0.329-0.439-0.814-0.659-1.457-0.659c-0.354,0-0.656,0.068-0.905,0.207s-0.454,0.328-0.614,0.568
		c-0.161,0.241-0.278,0.521-0.353,0.843c-0.075,0.321-0.112,0.664-0.112,1.029c0,0.88,0.177,1.543,0.531,1.988
		s0.838,0.668,1.453,0.668c0.337,0,0.631-0.067,0.88-0.203s0.451-0.324,0.606-0.564c0.155-0.241,0.271-0.524,0.349-0.851
		C292.789,11.197,292.827,10.846,292.827,10.47z"/>
	<path fill="#231F20" d="M301.941,14.703l-3.171-4.217v4.217h-1.992V6.27h1.992v3.569l2.988-3.569h2.499l-3.42,3.843l3.702,4.591
		H301.941z"/>
	<path fill="#231F20" d="M311.321,14.703l-0.05-1.104c-0.177,0.188-0.362,0.361-0.556,0.52c-0.194,0.157-0.407,0.295-0.639,0.41
		c-0.232,0.117-0.485,0.207-0.76,0.271c-0.273,0.063-0.574,0.095-0.9,0.095c-0.432,0-0.811-0.063-1.137-0.19
		s-0.601-0.305-0.822-0.531s-0.389-0.501-0.502-0.821c-0.114-0.321-0.17-0.676-0.17-1.063c0-0.398,0.084-0.767,0.253-1.104
		c0.168-0.338,0.426-0.628,0.771-0.872c0.346-0.243,0.778-0.434,1.295-0.572c0.518-0.139,1.125-0.207,1.822-0.207h1.104V9.025
		c0-0.216-0.03-0.411-0.091-0.585c-0.061-0.175-0.159-0.322-0.295-0.444c-0.135-0.122-0.311-0.216-0.527-0.282s-0.481-0.1-0.797-0.1
		c-0.498,0-0.989,0.057-1.473,0.17c-0.484,0.113-0.954,0.272-1.407,0.478V6.644c0.404-0.161,0.87-0.294,1.398-0.398
		c0.529-0.105,1.078-0.158,1.648-0.158c0.625,0,1.162,0.06,1.61,0.179s0.818,0.297,1.108,0.535c0.291,0.238,0.505,0.535,0.644,0.893
		c0.138,0.356,0.208,0.773,0.208,1.249v5.761H311.321z M311.031,10.976h-1.237c-0.343,0-0.634,0.033-0.872,0.1
		s-0.432,0.158-0.581,0.274s-0.259,0.25-0.328,0.402c-0.069,0.152-0.104,0.314-0.104,0.485c0,0.344,0.111,0.605,0.332,0.785
		s0.523,0.27,0.905,0.27c0.282,0,0.576-0.103,0.88-0.307c0.304-0.205,0.639-0.498,1.004-0.881V10.976z"/>
	<path fill="#231F20" d="M315.106,12.943c0.465,0.133,0.995,0.235,1.59,0.308c0.595,0.071,1.136,0.107,1.623,0.107
		c0.493,0,0.862-0.03,1.108-0.092c0.247-0.061,0.451-0.145,0.614-0.253c0.164-0.107,0.287-0.235,0.37-0.382s0.125-0.306,0.125-0.477
		c0-0.172-0.039-0.324-0.116-0.457s-0.205-0.246-0.382-0.34c-0.177-0.095-0.412-0.166-0.706-0.217
		c-0.293-0.049-0.65-0.074-1.071-0.074h-2.233V9.623h2.117c0.503,0,0.87-0.029,1.1-0.087c0.23-0.059,0.414-0.137,0.552-0.236
		s0.237-0.215,0.294-0.345c0.059-0.13,0.087-0.271,0.087-0.419c0-0.145-0.03-0.274-0.091-0.391s-0.163-0.215-0.307-0.295
		s-0.347-0.143-0.61-0.187c-0.263-0.044-0.605-0.066-1.025-0.066c-0.376,0-0.817,0.027-1.324,0.083
		c-0.506,0.056-1.003,0.146-1.49,0.273V6.369c0.465-0.077,0.961-0.144,1.49-0.199c0.529-0.056,1.05-0.083,1.565-0.083
		c1.345,0,2.329,0.188,2.951,0.564c0.623,0.376,0.934,0.924,0.934,1.644c0,0.193-0.032,0.388-0.095,0.581
		c-0.064,0.193-0.162,0.376-0.295,0.548s-0.3,0.323-0.502,0.456c-0.202,0.133-0.439,0.238-0.71,0.316
		c0.271,0.038,0.53,0.11,0.776,0.215c0.246,0.105,0.462,0.242,0.647,0.411c0.185,0.169,0.332,0.368,0.439,0.598
		c0.108,0.229,0.162,0.485,0.162,0.769c0,0.891-0.374,1.564-1.121,2.021c-0.747,0.457-1.876,0.685-3.387,0.685
		c-0.476,0-0.975-0.024-1.499-0.074c-0.522-0.05-1.053-0.122-1.589-0.216L315.106,12.943z"/>
	<path fill="#231F20" d="M330.015,14.703l-0.05-1.104c-0.177,0.188-0.362,0.361-0.556,0.52c-0.194,0.157-0.407,0.295-0.639,0.41
		c-0.232,0.117-0.485,0.207-0.76,0.271c-0.273,0.063-0.574,0.095-0.9,0.095c-0.432,0-0.811-0.063-1.137-0.19
		s-0.601-0.305-0.822-0.531s-0.389-0.501-0.502-0.821c-0.114-0.321-0.17-0.676-0.17-1.063c0-0.398,0.084-0.767,0.253-1.104
		c0.168-0.338,0.426-0.628,0.771-0.872c0.346-0.243,0.778-0.434,1.295-0.572c0.518-0.139,1.125-0.207,1.822-0.207h1.104V9.025
		c0-0.216-0.03-0.411-0.091-0.585c-0.061-0.175-0.159-0.322-0.295-0.444c-0.135-0.122-0.311-0.216-0.527-0.282s-0.481-0.1-0.797-0.1
		c-0.498,0-0.989,0.057-1.473,0.17c-0.484,0.113-0.954,0.272-1.407,0.478V6.644c0.404-0.161,0.87-0.294,1.398-0.398
		c0.529-0.105,1.078-0.158,1.648-0.158c0.625,0,1.162,0.06,1.61,0.179s0.818,0.297,1.108,0.535c0.291,0.238,0.505,0.535,0.644,0.893
		c0.138,0.356,0.208,0.773,0.208,1.249v5.761H330.015z M329.724,10.976h-1.237c-0.343,0-0.634,0.033-0.872,0.1
		s-0.432,0.158-0.581,0.274s-0.259,0.25-0.328,0.402c-0.069,0.152-0.104,0.314-0.104,0.485c0,0.344,0.111,0.605,0.332,0.785
		s0.523,0.27,0.905,0.27c0.282,0,0.576-0.103,0.88-0.307c0.304-0.205,0.639-0.498,1.004-0.881V10.976z"/>
	<path fill="#231F20" d="M338.623,7.972v6.731h-2.059V7.972h-2.938V6.27h7.936v1.702H338.623z"/>
	<path fill="#231F20" d="M350.767,9.839c0,0.139-0.004,0.318-0.013,0.539c-0.008,0.222-0.021,0.43-0.037,0.623h-5.545
		c0,0.371,0.057,0.697,0.17,0.979c0.114,0.282,0.274,0.519,0.481,0.71c0.208,0.19,0.457,0.336,0.747,0.436
		c0.291,0.1,0.613,0.149,0.967,0.149c0.41,0,0.848-0.032,1.316-0.096c0.467-0.063,0.953-0.167,1.457-0.312v1.611
		c-0.216,0.061-0.451,0.115-0.706,0.166c-0.254,0.049-0.515,0.094-0.78,0.133c-0.266,0.038-0.534,0.067-0.805,0.087
		s-0.534,0.028-0.789,0.028c-0.642,0-1.217-0.091-1.727-0.273s-0.941-0.452-1.295-0.81c-0.354-0.356-0.625-0.798-0.813-1.323
		c-0.188-0.526-0.282-1.135-0.282-1.826c0-0.687,0.094-1.311,0.282-1.872s0.454-1.043,0.797-1.444s0.76-0.711,1.249-0.93
		c0.49-0.219,1.037-0.328,1.64-0.328c0.598,0,1.126,0.093,1.585,0.278s0.844,0.444,1.154,0.776s0.545,0.728,0.706,1.187
		S350.767,9.291,350.767,9.839z M348.708,9.548c0.005-0.332-0.036-0.621-0.125-0.867s-0.209-0.449-0.361-0.609
		c-0.152-0.161-0.33-0.28-0.531-0.357c-0.202-0.077-0.419-0.116-0.652-0.116c-0.509,0-0.927,0.17-1.253,0.511
		c-0.327,0.34-0.52,0.82-0.581,1.439H348.708z"/>
	<path fill="#231F20" d="M351.821,12.919c0.227,0.005,0.437-0.009,0.631-0.042s0.37-0.123,0.527-0.27
		c0.158-0.146,0.299-0.365,0.424-0.656c0.124-0.29,0.235-0.684,0.332-1.179c0.097-0.495,0.181-1.109,0.253-1.843
		s0.13-1.62,0.174-2.66h5.711v8.434h-1.984V7.972h-1.893c-0.05,1.057-0.131,1.964-0.245,2.723c-0.113,0.758-0.258,1.396-0.436,1.917
		s-0.385,0.933-0.623,1.237c-0.238,0.304-0.506,0.528-0.805,0.672s-0.627,0.219-0.983,0.225c-0.357,0.005-0.743-0.031-1.158-0.108
		L351.821,12.919z"/>
	<path fill="#231F20" d="M362.628,12.304c0.171-0.393,0.379-0.679,0.623-0.858s0.495-0.295,0.755-0.345
		c-0.277-0.044-0.53-0.126-0.759-0.245c-0.23-0.119-0.428-0.272-0.594-0.46c-0.166-0.188-0.295-0.404-0.386-0.648
		c-0.092-0.243-0.137-0.512-0.137-0.805c0-0.504,0.09-0.934,0.27-1.291c0.18-0.356,0.447-0.647,0.801-0.871
		c0.354-0.225,0.795-0.388,1.324-0.49c0.528-0.103,1.141-0.153,1.838-0.153c0.487,0,0.971,0.011,1.453,0.033s0.96,0.056,1.436,0.1
		v8.434h-1.984v-3.097h-0.797c-0.244,0-0.461,0.02-0.651,0.059c-0.191,0.039-0.365,0.1-0.523,0.183
		c-0.157,0.083-0.296,0.199-0.415,0.349c-0.119,0.149-0.208,0.315-0.27,0.498l-0.73,2.009h-2.274L362.628,12.304z M364.272,8.909
		c0,0.238,0.045,0.435,0.137,0.59c0.091,0.154,0.225,0.279,0.402,0.373s0.396,0.16,0.656,0.199s0.559,0.059,0.896,0.059h0.905V7.681
		c-0.161-0.017-0.325-0.026-0.494-0.029c-0.168-0.003-0.35-0.004-0.543-0.004c-0.786,0-1.309,0.105-1.569,0.315
		S364.272,8.488,364.272,8.909z"/>
	<path fill="#231F20" d="M382.559,10.196l1.801,2.672l-1.561,0.764l-2.191-3.436l2.241-3.429l1.511,0.764L382.559,10.196z
		 M386.111,10.196l1.818,2.59l-1.511,0.764l-2.258-3.354l2.308-3.346l1.461,0.764L386.111,10.196z"/>
	<path fill="#231F20" d="M395.682,14.703l-2.092-3.993l-2.059,3.993h-2.465l3.129-5.562l-2.922-5.287h2.399l1.967,3.776l1.901-3.776
		h2.399l-2.905,5.287l3.246,5.562H395.682z"/>
	<path fill="#231F20" d="M401.235,10.163l-1.818-2.582l1.511-0.764l2.266,3.346l-2.316,3.354l-1.461-0.772L401.235,10.163z
		 M404.788,10.163l-1.801-2.665l1.569-0.772l2.191,3.438l-2.25,3.436l-1.511-0.764L404.788,10.163z"/>
</g>
<rect x="-70.206" y="558.953" fill-rule="evenodd" clip-rule="evenodd" fill="none" width="1210.825" height="22.188"/>
<text transform="matrix(1.0391 0 0 1 -70.2061 570.6826)" display="none" fill="#231F20" font-family="'Consolas'" font-size="17">R – Responsible – сотрудник, ответственный за фактическое исполнение KPI.</text>
<g>
	<g>
		<line fill="none" stroke="#929497" stroke-width="2" stroke-miterlimit="10" x1="181" y1="16.07" x2="181" y2="381"/>
		<g>
			<path fill="#929497" d="M181,4c-2.107,5.68-5.703,12.727-9.512,17.095l9.512-3.44l9.51,3.44C186.701,16.727,183.105,9.68,181,4z"
				/>
		</g>
	</g>
</g>
<g>
	<g>
		<line fill="none" stroke="#929497" stroke-width="2" stroke-miterlimit="10" x1="180" y1="381" x2="850.93" y2="381"/>
		<g>
			<path fill="#929497" d="M863,381c-5.68,2.107-12.727,5.703-17.095,9.512l3.44-9.512l-3.44-9.51
				C850.273,375.299,857.32,378.895,863,381z"/>
		</g>
	</g>
</g>
<line fill="none" stroke="#0049FF" stroke-width="3" stroke-miterlimit="10" stroke-dasharray="10" x1="180" y1="150" x2="863" y2="150"/>
<line fill="none" stroke="#9B00FF" stroke-width="3" stroke-miterlimit="10" stroke-dasharray="10" x1="180" y1="90" x2="863" y2="90"/>
<line fill="none" stroke="#00E7FF" stroke-width="3" stroke-miterlimit="10" stroke-dasharray="10" x1="180" y1="266" x2="863" y2="266"/>
<line fill="none" stroke="#FF3C00" stroke-width="3" stroke-miterlimit="10" x1="181" y1="313" x2="304" y2="220.333"/>
<line fill="none" stroke="#FF3C00" stroke-width="3" stroke-miterlimit="10" x1="304" y1="219" x2="354" y2="339.667"/>
<line fill="none" stroke="#FF3C00" stroke-width="3" stroke-miterlimit="10" x1="354" y1="341" x2="392.667" y2="257.667"/>
<line fill="none" stroke="#FF3C00" stroke-width="3" stroke-miterlimit="10" x1="392.667" y1="258.667" x2="406" y2="282.333"/>
<polyline fill="none" stroke="#FF3C00" stroke-width="3" stroke-miterlimit="10" points="405,281 515,210 516,210 574,289 575,289 
	606,253 607,253 637,288 638,288 702.667,227 "/>
<line fill="none" stroke="#FF3C00" stroke-width="3" stroke-miterlimit="10" x1="701.667" y1="226.333" x2="780" y2="328"/>
<g>
	<g>
		<line fill="none" stroke="#FF3C00" stroke-width="3" stroke-miterlimit="10" x1="779" y1="329" x2="845.992" y2="246.823"/>
		<g>
			<path fill="#FF3C00" d="M854,237c-2.053,6.021-3.802,14.141-3.601,20.223l-5.458-9.11l-10.022-3.509
				C840.917,243.575,848.519,240.226,854,237z"/>
		</g>
	</g>
</g>
</svg>
