<?xml version="1.0" encoding="utf-8"?>
<!-- Generator: Adobe Illustrator 19.2.1, SVG Export Plug-In . SVG Version: 6.00 Build 0)  -->
<svg version="1.1" id="Слой_1" xmlns="http://www.w3.org/2000/svg" xmlns:xlink="http://www.w3.org/1999/xlink" x="0px" y="0px"
	 viewBox="0 0 256.4 160.3" style="enable-background:new 0 0 256.4 160.3;" xml:space="preserve">
<style type="text/css">
	.st0{fill:#F5F6F6;}
	.st1{fill:#B9CEBF;}
	.st2{fill:none;stroke:#B9CEBF;stroke-miterlimit:10;}
	.st3{fill:#EB2227;}
	.st4{fill:#8F8F8E;stroke:#676767;stroke-width:0.3437;stroke-miterlimit:10;}
	.st5{fill:#8F8F8E;}
	.st6{fill:none;stroke:#676767;stroke-width:0.3437;stroke-miterlimit:10;}
	.st7{fill:none;stroke:#676767;stroke-width:0.3437;stroke-miterlimit:10;stroke-dasharray:1.7108,1.7108;}
	.st8{fill:none;stroke:#676767;stroke-width:0.3437;stroke-miterlimit:10;stroke-dasharray:1.0317,1.0317;}
	.st9{fill:none;stroke:#676767;stroke-width:0.3437;stroke-miterlimit:10;stroke-dasharray:1.171,1.171;}
	.st10{fill:none;stroke:#676767;stroke-width:0.3437;stroke-miterlimit:10;stroke-dasharray:1.711,1.711;}
	.st11{fill:none;stroke:#676767;stroke-width:0.3437;stroke-miterlimit:10;stroke-dasharray:1.0416,1.0416;}
	.st12{fill:none;stroke:#676767;stroke-width:0.3437;stroke-miterlimit:10;stroke-dasharray:1.1666,1.1666;}
	.st13{fill:none;}
	.st14{fill:#FFFFFF;}
	.st15{fill:none;stroke:#676767;stroke-width:0.3437;stroke-miterlimit:10;stroke-dasharray:1.032,1.032;}
	.st16{fill:none;stroke:#676767;stroke-width:0.3437;stroke-miterlimit:10;stroke-dasharray:1.1706,1.1706;}
	.st17{fill:none;stroke:#676767;stroke-width:0.3437;stroke-miterlimit:10;stroke-dasharray:1.0418,1.0418;}
	.st18{fill:none;stroke:#676767;stroke-width:0.3437;stroke-miterlimit:10;stroke-dasharray:1.1667,1.1667;}
	.st19{fill:none;stroke:#676767;stroke-width:0.3437;stroke-miterlimit:10;stroke-dasharray:1.7111,1.7111;}
	.st20{fill:none;stroke:#676767;stroke-width:0.3437;stroke-miterlimit:10;stroke-dasharray:1.0983,1.0983;}
	.st21{fill:none;stroke:#676767;stroke-width:0.3437;stroke-miterlimit:10;stroke-dasharray:1.1023,1.1023;}
	.st22{fill:none;stroke:#676767;stroke-width:0.3437;stroke-miterlimit:10;stroke-dasharray:1.0903,1.0903;}
	.st23{fill:none;stroke:#676767;stroke-width:0.3437;stroke-miterlimit:10;stroke-dasharray:1.1156,1.1156;}
	.st24{fill:none;stroke:#676767;stroke-width:0.3437;stroke-miterlimit:10;stroke-dasharray:1.7109,1.7109;}
	.st25{fill:none;stroke:#676767;stroke-width:0.3437;stroke-miterlimit:10;stroke-dasharray:1.0986,1.0986;}
	.st26{fill:none;stroke:#676767;stroke-width:0.3437;stroke-miterlimit:10;stroke-dasharray:1.1022,1.1022;}
	.st27{fill:none;stroke:#676767;stroke-width:0.3437;stroke-miterlimit:10;stroke-dasharray:1.0904,1.0904;}
	.st28{fill:none;stroke:#676767;stroke-width:0.3437;stroke-miterlimit:10;stroke-dasharray:1.1161,1.1161;}
	.st29{fill:none;stroke:#676767;stroke-width:0.3445;stroke-miterlimit:10;}
	.st30{fill:none;stroke:#929497;stroke-width:0.5294;stroke-miterlimit:10;stroke-dasharray:3.36;}
	.st31{fill:none;stroke:#EB2227;stroke-miterlimit:10;stroke-dasharray:4;}
	.st32{fill:#E7E7E7;stroke:#8F8F8E;stroke-width:0.3187;stroke-miterlimit:10;}
	.st33{fill:#010101;}
	.st34{fill:#BCBEC0;}
	.st35{fill:#F69320;}
	.st36{fill:#F8A586;}
	.st37{fill:#4DACB4;}
	.st38{opacity:0.55;fill:#51A8B7;enable-background:new    ;}
	.st39{fill:#1B587A;}
	.st40{fill:#D8D1BD;}
	.st41{fill:#EBE5E1;}
	.st42{fill:#11122D;}
	.st43{fill:#F5E7E6;}
	.st44{fill:#363636;}
	.st45{fill:none;stroke:#020304;stroke-width:1.3653;}
	.st46{fill:none;stroke:#EBE5E1;stroke-width:1.3653;}
	.st47{fill:none;stroke:#020304;stroke-width:1.3653;stroke-linecap:round;}
	.st48{fill:#1A171C;}
	.st49{fill:#FFC231;}
</style>
<g id="base">
</g>
<g id="plashki">
</g>
<g id="lines">
</g>
<g id="image">
</g>
<g id="_x31_">
</g>
<g id="символы">
</g>
<g id="Layer_1_4_">
</g>
<g>
	<g>
		<rect x="89.1" y="13" class="st0" width="169.1" height="86.5"/>
		<rect x="89.1" y="13" class="st1" width="169.1" height="9.7"/>
		<rect x="89.1" y="90" class="st1" width="169.1" height="9.7"/>
		<line class="st2" x1="89.2" y1="14.2" x2="89.2" y2="99.2"/>
		<line class="st2" x1="257.2" y1="14.2" x2="257.2" y2="99.2"/>
	</g>
	<g>
		<polygon class="st3" points="178.4,82.2 155.6,82.2 159.1,78.5 155.6,74.8 178.4,74.8 181.8,78.5 		"/>
		<polygon class="st4" points="251.5,82.2 234.3,82.2 231,78.5 234.4,74.8 251.5,74.8 254.9,78.5 		"/>
		<polygon class="st3" points="184.2,40.2 163.7,40.2 163.7,32.8 184.2,32.8 187.6,36.3 		"/>
		<g>
			<polygon class="st5" points="209.2,35 192.1,35 188.7,31.6 192.1,27.6 209.2,27.6 212.6,31.1 			"/>
			<g>
				<polyline class="st6" points="209.8,34.4 209.2,35 208.4,35 				"/>
				<line class="st7" x1="206.6" y1="35" x2="193.8" y2="35"/>
				<polyline class="st6" points="193,35 192.1,35 191.5,34.4 				"/>
				<line class="st8" x1="190.8" y1="33.7" x2="189.7" y2="32.6"/>
				<polyline class="st6" points="189.3,32.2 188.7,31.6 189.3,30.9 				"/>
				<line class="st9" x1="190" y1="30" x2="191.2" y2="28.7"/>
				<polyline class="st6" points="191.6,28.3 192.1,27.6 193,27.6 				"/>
				<line class="st10" x1="194.7" y1="27.6" x2="207.5" y2="27.6"/>
				<polyline class="st6" points="208.4,27.6 209.2,27.6 209.8,28.2 				"/>
				<line class="st11" x1="210.6" y1="29" x2="211.7" y2="30.1"/>
				<polyline class="st6" points="212,30.5 212.6,31.1 212.1,31.7 				"/>
				<line class="st12" x1="211.3" y1="32.6" x2="210.2" y2="33.9"/>
			</g>
		</g>
		<polygon class="st3" points="171.6,53.7 151,53.7 154.5,50 151,46.3 171.6,46.3 175,50 		"/>
		<g>
			<rect x="164.8" y="35" class="st13" width="21.7" height="3.1"/>
			<path class="st14" d="M166.4,37.2h-0.3l0-1.3l0-0.5l-0.1,0.3l-0.3,0.8h-0.2l-0.3-0.8l-0.1-0.3l0,0.5l0,1.3h-0.3l0.1-2h0.3
				l0.3,0.8l0.1,0.3l0.1-0.3l0.3-0.8h0.3L166.4,37.2z"/>
			<path class="st14" d="M167.8,37.2l0-0.2c-0.1,0.1-0.2,0.1-0.3,0.2c-0.1,0-0.2,0.1-0.3,0.1c-0.1,0-0.2,0-0.2,0s-0.1-0.1-0.2-0.1
				c0,0-0.1-0.1-0.1-0.1s0-0.1,0-0.2c0-0.2,0.1-0.3,0.2-0.4c0.1-0.1,0.3-0.1,0.5-0.1h0.3v-0.1c0-0.1,0-0.2-0.1-0.2
				c-0.1-0.1-0.1-0.1-0.3-0.1c-0.1,0-0.2,0-0.3,0c-0.1,0-0.2,0-0.3,0.1v-0.2c0,0,0.1,0,0.1,0c0,0,0.1,0,0.1,0s0.1,0,0.1,0
				c0.1,0,0.1,0,0.2,0c0.1,0,0.2,0,0.3,0c0.1,0,0.1,0.1,0.2,0.1c0.1,0,0.1,0.1,0.1,0.2c0,0.1,0,0.1,0,0.2v1.1L167.8,37.2L167.8,37.2
				z M167.7,36.5h-0.3c-0.1,0-0.1,0-0.2,0c0,0-0.1,0-0.1,0.1c0,0-0.1,0.1-0.1,0.1s0,0.1,0,0.1c0,0,0,0.1,0,0.1c0,0,0,0.1,0,0.1
				s0,0,0.1,0.1c0,0,0.1,0,0.1,0c0.1,0,0.1,0,0.2-0.1s0.2-0.1,0.3-0.2V36.5z"/>
			<path class="st14" d="M169.9,37.2h-0.4l-0.7-0.8v0.8h-0.3v-1.6h0.3v0.7l0.7-0.7h0.4l-0.7,0.7L169.9,37.2z"/>
			<path class="st14" d="M171.6,36.4c0,0.1,0,0.3-0.1,0.4c0,0.1-0.1,0.2-0.2,0.3c-0.1,0.1-0.1,0.1-0.2,0.2c-0.1,0-0.2,0.1-0.3,0.1
				c-0.1,0-0.1,0-0.1,0c0,0-0.1,0-0.1,0v0.7h-0.3v-2.2h0.2l0,0.3c0.1-0.1,0.2-0.2,0.2-0.2s0.2-0.1,0.3-0.1c0.1,0,0.2,0,0.2,0.1
				c0.1,0,0.1,0.1,0.2,0.2s0.1,0.2,0.1,0.2C171.6,36.1,171.6,36.3,171.6,36.4z M171.3,36.4c0-0.1,0-0.2,0-0.2c0-0.1,0-0.1-0.1-0.2
				c0,0-0.1-0.1-0.1-0.1c0,0-0.1,0-0.1,0c0,0-0.1,0-0.1,0c0,0-0.1,0-0.1,0.1c0,0-0.1,0.1-0.1,0.1c0,0-0.1,0.1-0.1,0.2v0.8
				c0.1,0,0.1,0,0.2,0s0.1,0,0.2,0c0.1,0,0.3,0,0.3-0.1S171.3,36.6,171.3,36.4z"/>
			<path class="st14" d="M173.4,36.4c0,0.1,0,0.2-0.1,0.3c0,0.1-0.1,0.2-0.1,0.3c-0.1,0.1-0.1,0.1-0.2,0.2c-0.1,0-0.2,0.1-0.3,0.1
				c-0.1,0-0.2,0-0.3-0.1s-0.2-0.1-0.2-0.2s-0.1-0.2-0.1-0.3s0-0.2,0-0.3c0-0.1,0-0.2,0.1-0.3c0-0.1,0.1-0.2,0.1-0.3
				c0.1-0.1,0.1-0.1,0.2-0.2c0.1,0,0.2-0.1,0.3-0.1c0.1,0,0.2,0,0.3,0.1c0.1,0,0.2,0.1,0.2,0.2c0.1,0.1,0.1,0.2,0.1,0.3
				S173.4,36.3,173.4,36.4z M173.1,36.4c0-0.1,0-0.2,0-0.3c0-0.1-0.1-0.1-0.1-0.2c0,0-0.1-0.1-0.1-0.1c-0.1,0-0.1,0-0.2,0
				c-0.1,0-0.1,0-0.2,0c-0.1,0-0.1,0.1-0.1,0.1s-0.1,0.1-0.1,0.2s0,0.1,0,0.2c0,0.1,0,0.2,0,0.3s0.1,0.1,0.1,0.2
				c0,0,0.1,0.1,0.1,0.1s0.1,0,0.2,0c0.1,0,0.1,0,0.2,0c0.1,0,0.1-0.1,0.1-0.1s0.1-0.1,0.1-0.2C173.1,36.6,173.1,36.5,173.1,36.4z"
				/>
			<path class="st14" d="M175,37.2h-0.3v-1.3H174v1.3h-0.3v-1.6h1.3L175,37.2L175,37.2z"/>
			<path class="st14" d="M176.8,36.4c0,0.1,0,0.3-0.1,0.4c0,0.1-0.1,0.2-0.2,0.3c-0.1,0.1-0.1,0.1-0.2,0.2c-0.1,0-0.2,0.1-0.3,0.1
				c-0.1,0-0.1,0-0.1,0c0,0-0.1,0-0.1,0v0.7h-0.3v-2.2h0.2l0,0.3c0.1-0.1,0.2-0.2,0.2-0.2s0.2-0.1,0.3-0.1c0.1,0,0.2,0,0.2,0.1
				c0.1,0,0.1,0.1,0.2,0.2s0.1,0.2,0.1,0.2C176.8,36.1,176.8,36.3,176.8,36.4z M176.6,36.4c0-0.1,0-0.2,0-0.2c0-0.1,0-0.1-0.1-0.2
				c0,0-0.1-0.1-0.1-0.1c0,0-0.1,0-0.1,0c0,0-0.1,0-0.1,0c0,0-0.1,0-0.1,0.1c0,0-0.1,0.1-0.1,0.1c0,0-0.1,0.1-0.1,0.2v0.8
				c0.1,0,0.1,0,0.2,0s0.1,0,0.2,0c0.1,0,0.3,0,0.3-0.1S176.6,36.6,176.6,36.4z"/>
			<path class="st14" d="M178.6,36.4c0,0.1,0,0.2-0.1,0.3c0,0.1-0.1,0.2-0.1,0.3c-0.1,0.1-0.1,0.1-0.2,0.2c-0.1,0-0.2,0.1-0.3,0.1
				c-0.1,0-0.2,0-0.3-0.1s-0.2-0.1-0.2-0.2s-0.1-0.2-0.1-0.3s0-0.2,0-0.3c0-0.1,0-0.2,0.1-0.3c0-0.1,0.1-0.2,0.1-0.3
				c0.1-0.1,0.1-0.1,0.2-0.2c0.1,0,0.2-0.1,0.3-0.1c0.1,0,0.2,0,0.3,0.1c0.1,0,0.2,0.1,0.2,0.2c0.1,0.1,0.1,0.2,0.1,0.3
				S178.6,36.3,178.6,36.4z M178.3,36.4c0-0.1,0-0.2,0-0.3c0-0.1-0.1-0.1-0.1-0.2c0,0-0.1-0.1-0.1-0.1c-0.1,0-0.1,0-0.2,0
				c-0.1,0-0.1,0-0.2,0c-0.1,0-0.1,0.1-0.1,0.1s-0.1,0.1-0.1,0.2s0,0.1,0,0.2c0,0.1,0,0.2,0,0.3s0.1,0.1,0.1,0.2
				c0,0,0.1,0.1,0.1,0.1s0.1,0,0.2,0c0.1,0,0.1,0,0.2,0c0.1,0,0.1-0.1,0.1-0.1s0.1-0.1,0.1-0.2C178.3,36.6,178.3,36.5,178.3,36.4z"
				/>
			<path class="st14" d="M180.4,37l0,0.6h-0.2v-0.4H179v-1.6h0.3V37h0.7v-1.3h0.3V37H180.4z"/>
			<path class="st14" d="M182.1,36.3C182.1,36.4,182.1,36.4,182.1,36.3c0,0.1,0,0.1,0,0.2H181c0,0.2,0,0.3,0.1,0.4
				c0.1,0.1,0.2,0.1,0.4,0.1c0,0,0.1,0,0.1,0c0,0,0.1,0,0.1,0s0.1,0,0.1,0s0.1,0,0.1,0v0.2c-0.1,0-0.2,0-0.2,0.1c-0.1,0-0.2,0-0.3,0
				c-0.1,0-0.2,0-0.3-0.1c-0.1,0-0.2-0.1-0.2-0.2s-0.1-0.2-0.1-0.3s0-0.2,0-0.3c0-0.1,0-0.2,0-0.3c0-0.1,0.1-0.2,0.1-0.3
				c0.1-0.1,0.1-0.1,0.2-0.2c0.1,0,0.2-0.1,0.3-0.1c0.1,0,0.2,0,0.3,0.1c0.1,0,0.2,0.1,0.2,0.1c0.1,0.1,0.1,0.1,0.1,0.2
				S182.1,36.2,182.1,36.3z M181.8,36.3c0-0.1,0-0.1,0-0.2c0-0.1,0-0.1-0.1-0.1c0,0-0.1-0.1-0.1-0.1c-0.1,0-0.1,0-0.2,0
				c-0.1,0-0.1,0-0.2,0c0,0-0.1,0.1-0.1,0.1S181,36,181,36.1c0,0.1,0,0.1,0,0.2C181,36.3,181.8,36.3,181.8,36.3z"/>
			<path class="st14" d="M183.7,37.1c-0.1,0-0.1,0-0.2,0.1c-0.1,0-0.1,0-0.2,0c-0.2,0-0.4-0.1-0.6-0.2c-0.1-0.1-0.2-0.3-0.2-0.6
				c0-0.1,0-0.2,0.1-0.3c0-0.1,0.1-0.2,0.2-0.3s0.2-0.1,0.2-0.2s0.2-0.1,0.3-0.1c0.1,0,0.2,0,0.2,0s0.1,0,0.2,0.1v0.3
				c-0.1,0-0.1-0.1-0.2-0.1s-0.1,0-0.2,0c-0.1,0-0.1,0-0.2,0c-0.1,0-0.1,0.1-0.2,0.1c0,0-0.1,0.1-0.1,0.2c0,0.1,0,0.2,0,0.2
				c0,0.2,0,0.3,0.1,0.4c0.1,0.1,0.2,0.1,0.4,0.1c0.1,0,0.1,0,0.2,0c0.1,0,0.1,0,0.2-0.1L183.7,37.1L183.7,37.1z"/>
			<path class="st14" d="M185.4,37.1c-0.1,0-0.1,0-0.2,0.1c-0.1,0-0.1,0-0.2,0c-0.2,0-0.4-0.1-0.6-0.2c-0.1-0.1-0.2-0.3-0.2-0.6
				c0-0.1,0-0.2,0.1-0.3c0-0.1,0.1-0.2,0.2-0.3s0.2-0.1,0.2-0.2s0.2-0.1,0.3-0.1c0.1,0,0.2,0,0.2,0s0.1,0,0.2,0.1v0.3
				c-0.1,0-0.1-0.1-0.2-0.1s-0.1,0-0.2,0c-0.1,0-0.1,0-0.2,0c-0.1,0-0.1,0.1-0.2,0.1c0,0-0.1,0.1-0.1,0.2c0,0.1,0,0.2,0,0.2
				c0,0.2,0,0.3,0.1,0.4c0.1,0.1,0.2,0.1,0.4,0.1c0.1,0,0.1,0,0.2,0c0.1,0,0.1,0,0.2-0.1L185.4,37.1L185.4,37.1z"/>
		</g>
		<polygon class="st3" points="129.6,82.5 109,82.5 109,75.1 129.6,75.1 133,78.6 		"/>
		<g>
			<rect x="110.1" y="77.3" class="st13" width="21.7" height="3.1"/>
			<path class="st14" d="M111.8,79.2l0,0.7h-0.2v-0.4h-1.2v0.4h-0.2l0-0.7h0c0,0,0.1,0,0.1,0c0,0,0.1-0.1,0.1-0.1s0.1-0.1,0.1-0.2
				c0-0.1,0.1-0.2,0.1-0.3c0-0.1,0-0.3,0.1-0.5c0-0.2,0-0.4,0-0.7h1v1.8L111.8,79.2L111.8,79.2z M111.3,77.7h-0.4c0,0.2,0,0.4,0,0.6
				s0,0.3-0.1,0.5c0,0.1-0.1,0.2-0.1,0.3s-0.1,0.1-0.1,0.2h0.7L111.3,77.7L111.3,77.7z"/>
			<path class="st14" d="M113.4,78.6C113.4,78.6,113.4,78.7,113.4,78.6c0,0.1,0,0.1,0,0.2h-1.1c0,0.2,0,0.3,0.1,0.4
				c0.1,0.1,0.2,0.1,0.4,0.1c0,0,0.1,0,0.1,0c0,0,0.1,0,0.1,0s0.1,0,0.1,0s0.1,0,0.1,0v0.2c-0.1,0-0.2,0-0.2,0.1c-0.1,0-0.2,0-0.3,0
				c-0.1,0-0.2,0-0.3-0.1c-0.1,0-0.2-0.1-0.2-0.2s-0.1-0.2-0.1-0.3s0-0.2,0-0.3c0-0.1,0-0.2,0-0.3c0-0.1,0.1-0.2,0.1-0.3
				c0.1-0.1,0.1-0.1,0.2-0.2c0.1,0,0.2-0.1,0.3-0.1c0.1,0,0.2,0,0.3,0.1c0.1,0,0.2,0.1,0.2,0.1c0.1,0.1,0.1,0.1,0.1,0.2
				C113.4,78.4,113.4,78.5,113.4,78.6z M113.2,78.6c0-0.1,0-0.1,0-0.2c0-0.1,0-0.1-0.1-0.1c0,0-0.1-0.1-0.1-0.1c-0.1,0-0.1,0-0.2,0
				c-0.1,0-0.1,0-0.2,0c0,0-0.1,0.1-0.1,0.1c0,0-0.1,0.1-0.1,0.2c0,0.1,0,0.1,0,0.2H113.2z"/>
			<path class="st14" d="M114,79c0-0.1,0.1-0.1,0.1-0.2c0,0,0.1-0.1,0.2-0.1c-0.1,0-0.1,0-0.2-0.1s-0.1-0.1-0.1-0.1
				c0,0,0-0.1-0.1-0.1s0-0.1,0-0.1c0-0.1,0-0.1,0-0.2c0-0.1,0.1-0.1,0.1-0.2s0.1-0.1,0.2-0.1c0.1,0,0.2,0,0.4,0c0.1,0,0.2,0,0.3,0
				c0.1,0,0.2,0,0.2,0v1.6h-0.3v-0.6h-0.2c0,0-0.1,0-0.1,0s-0.1,0-0.1,0c0,0-0.1,0-0.1,0.1s0,0.1-0.1,0.1l-0.2,0.4h-0.3L114,79z
				 M114.2,78.4c0,0.1,0,0.2,0.1,0.2s0.2,0.1,0.3,0.1h0.3v-0.5c0,0-0.1,0-0.1,0c0,0-0.1,0-0.1,0c-0.1,0-0.2,0-0.2,0
				c0,0-0.1,0-0.1,0.1s0,0.1-0.1,0.1C114.2,78.3,114.2,78.3,114.2,78.4z"/>
			<path class="st14" d="M117,78.1h-0.6v1.3h-0.3v-1.3h-0.6v-0.2h1.5C117,77.9,117,78.1,117,78.1z"/>
			<path class="st14" d="M118.7,78.6C118.7,78.6,118.7,78.7,118.7,78.6c0,0.1,0,0.1,0,0.2h-1.1c0,0.2,0,0.3,0.1,0.4
				c0.1,0.1,0.2,0.1,0.4,0.1c0,0,0.1,0,0.1,0c0,0,0.1,0,0.1,0s0.1,0,0.1,0s0.1,0,0.1,0v0.2c-0.1,0-0.2,0-0.2,0.1c-0.1,0-0.2,0-0.3,0
				c-0.1,0-0.2,0-0.3-0.1c-0.1,0-0.2-0.1-0.2-0.2s-0.1-0.2-0.1-0.3s0-0.2,0-0.3c0-0.1,0-0.2,0-0.3c0-0.1,0.1-0.2,0.1-0.3
				c0.1-0.1,0.1-0.1,0.2-0.2c0.1,0,0.2-0.1,0.3-0.1c0.1,0,0.2,0,0.3,0.1c0.1,0,0.2,0.1,0.2,0.1c0.1,0.1,0.1,0.1,0.1,0.2
				C118.7,78.4,118.7,78.5,118.7,78.6z M118.4,78.6c0-0.1,0-0.1,0-0.2c0-0.1,0-0.1-0.1-0.1c0,0-0.1-0.1-0.1-0.1c-0.1,0-0.1,0-0.2,0
				c-0.1,0-0.1,0-0.2,0c0,0-0.1,0.1-0.1,0.1c0,0-0.1,0.1-0.1,0.2c0,0.1,0,0.1,0,0.2H118.4z"/>
			<path class="st14" d="M120.3,79.5h-0.3v-1.3h-0.4c0,0.2,0,0.4-0.1,0.6c0,0.2-0.1,0.3-0.1,0.4s-0.1,0.2-0.1,0.2s-0.1,0.1-0.1,0.1
				s-0.1,0-0.2,0s-0.1,0-0.2,0l0-0.2c0,0,0.1,0,0.1,0s0.1,0,0.1-0.1s0.1-0.1,0.1-0.1s0-0.1,0.1-0.2s0-0.2,0.1-0.4s0-0.3,0-0.5h1
				L120.3,79.5L120.3,79.5z"/>
			<path class="st14" d="M121.1,78.5C121.2,78.5,121.2,78.5,121.1,78.5c0.1,0,0.1,0,0.2,0c0,0,0.1,0,0.1,0s0.1,0,0.1,0
				c0.2,0,0.4,0,0.5,0.1c0.1,0.1,0.2,0.2,0.2,0.4c0,0.2-0.1,0.3-0.2,0.4s-0.3,0.1-0.6,0.1c-0.1,0-0.2,0-0.3,0s-0.2,0-0.3,0v-1.6h0.3
				C121.1,77.9,121.1,78.5,121.1,78.5z M121.9,79c0,0,0-0.1,0-0.1s0-0.1-0.1-0.1s-0.1,0-0.1-0.1c-0.1,0-0.1,0-0.2,0
				c-0.1,0-0.1,0-0.2,0c-0.1,0-0.1,0-0.2,0v0.5c0.1,0,0.1,0,0.2,0s0.1,0,0.2,0c0.1,0,0.2,0,0.2,0c0.1,0,0.1,0,0.1-0.1
				s0.1-0.1,0.1-0.1C121.9,79.1,121.9,79,121.9,79z"/>
			<path class="st14" d="M123.8,79.5h-0.3v-0.7h-0.7v0.7h-0.3v-1.6h0.3v0.6h0.7v-0.6h0.3V79.5z"/>
			<path class="st14" d="M125.7,78.7c0,0.1,0,0.2-0.1,0.3c0,0.1-0.1,0.2-0.1,0.3c-0.1,0.1-0.1,0.1-0.2,0.2c-0.1,0-0.2,0.1-0.3,0.1
				c-0.1,0-0.2,0-0.3-0.1c-0.1,0-0.2-0.1-0.2-0.2s-0.1-0.2-0.1-0.3s0-0.2,0-0.3c0-0.1,0-0.2,0.1-0.3c0-0.1,0.1-0.2,0.1-0.3
				s0.1-0.1,0.2-0.2c0.1,0,0.2-0.1,0.3-0.1c0.1,0,0.2,0,0.3,0.1c0.1,0,0.2,0.1,0.2,0.2s0.1,0.2,0.1,0.3S125.7,78.6,125.7,78.7z
				 M125.4,78.7c0-0.1,0-0.2,0-0.3c0-0.1-0.1-0.1-0.1-0.2c0,0-0.1-0.1-0.1-0.1c-0.1,0-0.1,0-0.2,0c-0.1,0-0.2,0-0.2,0
				c-0.1,0-0.1,0.1-0.1,0.1s-0.1,0.1-0.1,0.2s0,0.1,0,0.2c0,0.1,0,0.2,0,0.3c0,0.1,0.1,0.1,0.1,0.2c0,0,0.1,0.1,0.1,0.1s0.1,0,0.2,0
				c0.1,0,0.1,0,0.2,0c0.1,0,0.1-0.1,0.1-0.1s0.1-0.1,0.1-0.2C125.4,78.8,125.4,78.8,125.4,78.7z"/>
			<path class="st14" d="M127.3,79.4c-0.1,0-0.1,0-0.2,0.1c-0.1,0-0.2,0-0.2,0c-0.2,0-0.4-0.1-0.6-0.2c-0.1-0.1-0.2-0.3-0.2-0.6
				c0-0.1,0-0.2,0.1-0.3s0.1-0.2,0.2-0.3s0.2-0.1,0.2-0.2s0.2-0.1,0.3-0.1c0.1,0,0.2,0,0.2,0s0.1,0,0.2,0.1v0.3
				c-0.1,0-0.1-0.1-0.2-0.1s-0.1,0-0.2,0c-0.1,0-0.1,0-0.2,0c-0.1,0-0.1,0.1-0.2,0.1c0,0.1-0.1,0.1-0.1,0.2c0,0.1,0,0.2,0,0.2
				c0,0.2,0,0.3,0.1,0.4c0.1,0.1,0.2,0.1,0.4,0.1c0.1,0,0.1,0,0.2,0s0.1,0,0.2-0.1L127.3,79.4L127.3,79.4z"/>
			<path class="st14" d="M129.2,78.1h-0.6v1.3h-0.3v-1.3h-0.6v-0.2h1.5V78.1z"/>
			<path class="st14" d="M129.9,78.5C129.9,78.5,129.9,78.5,129.9,78.5c0.1,0,0.1,0,0.2,0c0,0,0.1,0,0.1,0c0,0,0.1,0,0.1,0
				c0.2,0,0.4,0,0.5,0.1c0.1,0.1,0.2,0.2,0.2,0.4c0,0.2-0.1,0.3-0.2,0.4s-0.3,0.1-0.6,0.1c-0.1,0-0.2,0-0.3,0s-0.2,0-0.3,0v-1.6h0.3
				L129.9,78.5L129.9,78.5z M130.6,79c0,0,0-0.1,0-0.1s0-0.1-0.1-0.1s-0.1,0-0.1-0.1c-0.1,0-0.1,0-0.2,0c-0.1,0-0.1,0-0.2,0
				c-0.1,0-0.1,0-0.2,0v0.5c0.1,0,0.1,0,0.2,0s0.1,0,0.2,0c0.1,0,0.2,0,0.2,0s0.1,0,0.1-0.1s0.1-0.1,0.1-0.1
				C130.6,79.1,130.6,79,130.6,79z"/>
		</g>
		<g>
			<rect x="159.5" y="77.3" class="st13" width="21.7" height="3.1"/>
			<path class="st14" d="M161.2,79.2l0,0.7h-0.2v-0.4h-1.1v0.4h-0.2l0-0.7h0c0,0,0.1,0,0.1,0c0,0,0.1-0.1,0.1-0.1
				c0-0.1,0.1-0.1,0.1-0.2c0-0.1,0.1-0.2,0.1-0.3c0-0.1,0-0.3,0.1-0.5c0-0.2,0-0.4,0-0.7h1v1.8L161.2,79.2L161.2,79.2z M160.7,77.7
				h-0.4c0,0.2,0,0.4,0,0.6s0,0.3-0.1,0.5c0,0.1-0.1,0.2-0.1,0.3s-0.1,0.1-0.1,0.2h0.7L160.7,77.7L160.7,77.7z"/>
			<path class="st14" d="M162.8,78.6C162.8,78.6,162.8,78.7,162.8,78.6c0,0.1,0,0.1,0,0.2h-1.1c0,0.2,0,0.3,0.1,0.4
				c0.1,0.1,0.2,0.1,0.4,0.1c0,0,0.1,0,0.1,0c0,0,0.1,0,0.1,0s0.1,0,0.1,0s0.1,0,0.1,0v0.2c-0.1,0-0.2,0-0.2,0.1c-0.1,0-0.2,0-0.3,0
				c-0.1,0-0.2,0-0.3-0.1c-0.1,0-0.2-0.1-0.2-0.2s-0.1-0.2-0.1-0.3s0-0.2,0-0.3c0-0.1,0-0.2,0-0.3c0-0.1,0.1-0.2,0.1-0.3
				c0.1-0.1,0.1-0.1,0.2-0.2c0.1,0,0.2-0.1,0.3-0.1c0.1,0,0.2,0,0.3,0.1c0.1,0,0.2,0.1,0.2,0.1c0.1,0.1,0.1,0.1,0.1,0.2
				S162.8,78.5,162.8,78.6z M162.5,78.6c0-0.1,0-0.1,0-0.2c0-0.1,0-0.1-0.1-0.1c0,0-0.1-0.1-0.1-0.1c-0.1,0-0.1,0-0.2,0
				c-0.1,0-0.1,0-0.2,0c0,0-0.1,0.1-0.1,0.1s-0.1,0.1-0.1,0.2c0,0.1,0,0.1,0,0.2H162.5z"/>
			<path class="st14" d="M163.3,79c0-0.1,0.1-0.1,0.1-0.2c0,0,0.1-0.1,0.2-0.1c-0.1,0-0.1,0-0.2-0.1c0,0-0.1-0.1-0.1-0.1
				c0,0,0-0.1-0.1-0.1s0-0.1,0-0.1c0-0.1,0-0.1,0-0.2c0-0.1,0.1-0.1,0.1-0.2s0.1-0.1,0.2-0.1c0.1,0,0.2,0,0.4,0c0.1,0,0.2,0,0.3,0
				c0.1,0,0.2,0,0.2,0v1.6h-0.3v-0.6h-0.2c0,0-0.1,0-0.1,0s-0.1,0-0.1,0c0,0-0.1,0-0.1,0.1s0,0.1-0.1,0.1l-0.2,0.4h-0.3L163.3,79z
				 M163.5,78.4c0,0.1,0,0.2,0.1,0.2s0.1,0.1,0.3,0.1h0.3v-0.5c0,0-0.1,0-0.1,0c0,0-0.1,0-0.1,0c-0.1,0-0.2,0-0.2,0
				c0,0-0.1,0-0.1,0.1s0,0.1-0.1,0.1C163.5,78.3,163.5,78.3,163.5,78.4z"/>
			<path class="st14" d="M166.3,78.1h-0.6v1.3h-0.3v-1.3h-0.6v-0.2h1.5V78.1z"/>
			<path class="st14" d="M168,78.6C168,78.6,168,78.7,168,78.6c0,0.1,0,0.1,0,0.2h-1.1c0,0.2,0,0.3,0.1,0.4c0.1,0.1,0.2,0.1,0.4,0.1
				c0,0,0.1,0,0.1,0c0,0,0.1,0,0.1,0s0.1,0,0.1,0s0.1,0,0.1,0v0.2c-0.1,0-0.2,0-0.2,0.1c-0.1,0-0.2,0-0.3,0c-0.1,0-0.2,0-0.3-0.1
				c-0.1,0-0.2-0.1-0.2-0.2s-0.1-0.2-0.1-0.3s0-0.2,0-0.3c0-0.1,0-0.2,0-0.3c0-0.1,0.1-0.2,0.1-0.3c0.1-0.1,0.1-0.1,0.2-0.2
				c0.1,0,0.2-0.1,0.3-0.1c0.1,0,0.2,0,0.3,0.1c0.1,0,0.2,0.1,0.2,0.1c0.1,0.1,0.1,0.1,0.1,0.2S168,78.5,168,78.6z M167.7,78.6
				c0-0.1,0-0.1,0-0.2c0-0.1,0-0.1-0.1-0.1c0,0-0.1-0.1-0.1-0.1c-0.1,0-0.1,0-0.2,0c-0.1,0-0.1,0-0.2,0c0,0-0.1,0.1-0.1,0.1
				s-0.1,0.1-0.1,0.2c0,0.1,0,0.1,0,0.2H167.7z"/>
			<path class="st14" d="M169.7,79.5h-0.3v-1.3H169c0,0.2,0,0.4-0.1,0.6c0,0.2-0.1,0.3-0.1,0.4s-0.1,0.2-0.1,0.2s-0.1,0.1-0.1,0.1
				s-0.1,0-0.2,0s-0.1,0-0.2,0l0-0.2c0,0,0.1,0,0.1,0s0.1,0,0.1-0.1c0,0,0.1-0.1,0.1-0.1s0-0.1,0.1-0.2s0-0.2,0.1-0.4s0-0.3,0-0.5h1
				L169.7,79.5L169.7,79.5z"/>
			<path class="st14" d="M170.5,78.5C170.5,78.5,170.5,78.5,170.5,78.5c0.1,0,0.1,0,0.2,0c0,0,0.1,0,0.1,0c0,0,0.1,0,0.1,0
				c0.2,0,0.4,0,0.5,0.1c0.1,0.1,0.2,0.2,0.2,0.4c0,0.2-0.1,0.3-0.2,0.4s-0.3,0.1-0.6,0.1c-0.1,0-0.2,0-0.3,0s-0.2,0-0.3,0v-1.6h0.3
				L170.5,78.5L170.5,78.5z M171.2,79c0,0,0-0.1,0-0.1s0-0.1-0.1-0.1s-0.1,0-0.1-0.1c-0.1,0-0.1,0-0.2,0c-0.1,0-0.1,0-0.2,0
				c-0.1,0-0.1,0-0.2,0v0.5c0.1,0,0.1,0,0.2,0s0.1,0,0.2,0c0.1,0,0.2,0,0.2,0s0.1,0,0.1-0.1s0.1-0.1,0.1-0.1
				C171.2,79.1,171.2,79,171.2,79z"/>
			<path class="st14" d="M173.2,79.5h-0.3v-0.7h-0.7v0.7h-0.3v-1.6h0.3v0.6h0.7v-0.6h0.3V79.5z"/>
			<path class="st14" d="M175,78.7c0,0.1,0,0.2-0.1,0.3s-0.1,0.2-0.1,0.3c-0.1,0.1-0.1,0.1-0.2,0.2c-0.1,0-0.2,0.1-0.3,0.1
				c-0.1,0-0.2,0-0.3-0.1s-0.2-0.1-0.2-0.2s-0.1-0.2-0.1-0.3s0-0.2,0-0.3c0-0.1,0-0.2,0.1-0.3s0.1-0.2,0.1-0.3
				c0.1-0.1,0.1-0.1,0.2-0.2c0.1,0,0.2-0.1,0.3-0.1c0.1,0,0.2,0,0.3,0.1c0.1,0,0.2,0.1,0.2,0.2c0.1,0.1,0.1,0.2,0.1,0.3
				S175,78.6,175,78.7z M174.8,78.7c0-0.1,0-0.2,0-0.3c0-0.1-0.1-0.1-0.1-0.2c0,0-0.1-0.1-0.1-0.1c-0.1,0-0.1,0-0.2,0
				c-0.1,0-0.1,0-0.2,0c-0.1,0-0.1,0.1-0.1,0.1s-0.1,0.1-0.1,0.2s0,0.1,0,0.2c0,0.1,0,0.2,0,0.3s0.1,0.1,0.1,0.2
				c0,0,0.1,0.1,0.1,0.1s0.1,0,0.2,0c0.1,0,0.1,0,0.2,0c0.1,0,0.1-0.1,0.1-0.1s0.1-0.1,0.1-0.2C174.7,78.8,174.8,78.8,174.8,78.7z"
				/>
			<path class="st14" d="M176.6,79.4c-0.1,0-0.1,0-0.2,0.1c-0.1,0-0.1,0-0.2,0c-0.2,0-0.4-0.1-0.6-0.2c-0.1-0.1-0.2-0.3-0.2-0.6
				c0-0.1,0-0.2,0.1-0.3c0-0.1,0.1-0.2,0.2-0.3s0.2-0.1,0.2-0.2s0.2-0.1,0.3-0.1c0.1,0,0.2,0,0.2,0s0.1,0,0.2,0.1v0.3
				c-0.1,0-0.1-0.1-0.2-0.1s-0.1,0-0.2,0c-0.1,0-0.1,0-0.2,0c-0.1,0-0.1,0.1-0.2,0.1c0,0.1-0.1,0.1-0.1,0.2c0,0.1,0,0.2,0,0.2
				c0,0.2,0,0.3,0.1,0.4c0.1,0.1,0.2,0.1,0.4,0.1c0.1,0,0.1,0,0.2,0s0.1,0,0.2-0.1L176.6,79.4L176.6,79.4z"/>
			<path class="st14" d="M178.5,78.1h-0.6v1.3h-0.3v-1.3h-0.6v-0.2h1.5V78.1z"/>
			<path class="st14" d="M179.2,78.5C179.2,78.5,179.2,78.5,179.2,78.5c0.1,0,0.1,0,0.2,0c0,0,0.1,0,0.1,0c0,0,0.1,0,0.1,0
				c0.2,0,0.4,0,0.5,0.1c0.1,0.1,0.2,0.2,0.2,0.4c0,0.2-0.1,0.3-0.2,0.4s-0.3,0.1-0.6,0.1c-0.1,0-0.2,0-0.3,0s-0.2,0-0.3,0v-1.6h0.3
				L179.2,78.5L179.2,78.5z M180,79c0,0,0-0.1,0-0.1s0-0.1-0.1-0.1s-0.1,0-0.1-0.1c-0.1,0-0.1,0-0.2,0c-0.1,0-0.1,0-0.2,0
				c-0.1,0-0.1,0-0.2,0v0.5c0.1,0,0.1,0,0.2,0s0.1,0,0.2,0c0.1,0,0.2,0,0.2,0s0.1,0,0.1-0.1s0.1-0.1,0.1-0.1
				C179.9,79.1,180,79,180,79z"/>
		</g>
		<polygon class="st3" points="227,82.2 204.2,82.2 207.7,78.5 204.2,74.8 227,74.8 230.5,78.5 		"/>
		<g>
			<rect x="207.9" y="77.3" class="st13" width="21.7" height="3.1"/>
			<path class="st14" d="M209.6,79.2l0,0.7h-0.2v-0.4h-1.1v0.4H208l0-0.7h0c0,0,0.1,0,0.1,0c0,0,0.1-0.1,0.1-0.1
				c0-0.1,0.1-0.1,0.1-0.2c0-0.1,0.1-0.2,0.1-0.3c0-0.1,0-0.3,0.1-0.5c0-0.2,0-0.4,0-0.7h1v1.8L209.6,79.2L209.6,79.2z M209.1,77.7
				h-0.4c0,0.2,0,0.4,0,0.6s0,0.3-0.1,0.5c0,0.1-0.1,0.2-0.1,0.3s-0.1,0.1-0.1,0.2h0.7L209.1,77.7L209.1,77.7z"/>
			<path class="st14" d="M211.2,78.6C211.2,78.6,211.2,78.7,211.2,78.6c0,0.1,0,0.1,0,0.2h-1.1c0,0.2,0,0.3,0.1,0.4
				c0.1,0.1,0.2,0.1,0.4,0.1c0,0,0.1,0,0.1,0c0,0,0.1,0,0.1,0s0.1,0,0.1,0s0.1,0,0.1,0v0.2c-0.1,0-0.2,0-0.2,0.1c-0.1,0-0.2,0-0.3,0
				c-0.1,0-0.2,0-0.3-0.1c-0.1,0-0.2-0.1-0.2-0.2s-0.1-0.2-0.1-0.3s0-0.2,0-0.3c0-0.1,0-0.2,0-0.3c0-0.1,0.1-0.2,0.1-0.3
				c0.1-0.1,0.1-0.1,0.2-0.2c0.1,0,0.2-0.1,0.3-0.1c0.1,0,0.2,0,0.3,0.1c0.1,0,0.2,0.1,0.2,0.1c0.1,0.1,0.1,0.1,0.1,0.2
				S211.2,78.5,211.2,78.6z M210.9,78.6c0-0.1,0-0.1,0-0.2c0-0.1,0-0.1-0.1-0.1c0,0-0.1-0.1-0.1-0.1c-0.1,0-0.1,0-0.2,0
				c-0.1,0-0.1,0-0.2,0c0,0-0.1,0.1-0.1,0.1s-0.1,0.1-0.1,0.2c0,0.1,0,0.1,0,0.2H210.9z"/>
			<path class="st14" d="M211.8,79c0-0.1,0.1-0.1,0.1-0.2c0,0,0.1-0.1,0.2-0.1c-0.1,0-0.1,0-0.2-0.1c0,0-0.1-0.1-0.1-0.1
				c0,0,0-0.1-0.1-0.1s0-0.1,0-0.1c0-0.1,0-0.1,0-0.2c0-0.1,0.1-0.1,0.1-0.2s0.1-0.1,0.2-0.1c0.1,0,0.2,0,0.4,0c0.1,0,0.2,0,0.3,0
				c0.1,0,0.2,0,0.2,0v1.6h-0.3v-0.6h-0.2c0,0-0.1,0-0.1,0s-0.1,0-0.1,0c0,0-0.1,0-0.1,0.1s0,0.1-0.1,0.1l-0.2,0.4h-0.3L211.8,79z
				 M212,78.4c0,0.1,0,0.2,0.1,0.2s0.1,0.1,0.3,0.1h0.3v-0.5c0,0-0.1,0-0.1,0c0,0-0.1,0-0.1,0c-0.1,0-0.2,0-0.2,0c0,0-0.1,0-0.1,0.1
				s0,0.1-0.1,0.1C212,78.3,212,78.3,212,78.4z"/>
			<path class="st14" d="M214.8,78.1h-0.6v1.3h-0.3v-1.3h-0.6v-0.2h1.5V78.1z"/>
			<path class="st14" d="M216.5,78.6C216.5,78.6,216.5,78.7,216.5,78.6c0,0.1,0,0.1,0,0.2h-1.1c0,0.2,0,0.3,0.1,0.4
				c0.1,0.1,0.2,0.1,0.4,0.1c0,0,0.1,0,0.1,0c0,0,0.1,0,0.1,0s0.1,0,0.1,0s0.1,0,0.1,0v0.2c-0.1,0-0.2,0-0.2,0.1c-0.1,0-0.2,0-0.3,0
				c-0.1,0-0.2,0-0.3-0.1c-0.1,0-0.2-0.1-0.2-0.2s-0.1-0.2-0.1-0.3s0-0.2,0-0.3c0-0.1,0-0.2,0-0.3c0-0.1,0.1-0.2,0.1-0.3
				c0.1-0.1,0.1-0.1,0.2-0.2c0.1,0,0.2-0.1,0.3-0.1c0.1,0,0.2,0,0.3,0.1c0.1,0,0.2,0.1,0.2,0.1c0.1,0.1,0.1,0.1,0.1,0.2
				C216.4,78.4,216.5,78.5,216.5,78.6z M216.2,78.6c0-0.1,0-0.1,0-0.2c0-0.1,0-0.1-0.1-0.1c0,0-0.1-0.1-0.1-0.1c-0.1,0-0.1,0-0.2,0
				c-0.1,0-0.1,0-0.2,0c0,0-0.1,0.1-0.1,0.1s-0.1,0.1-0.1,0.2c0,0.1,0,0.1,0,0.2H216.2z"/>
			<path class="st14" d="M218.1,79.5h-0.3v-1.3h-0.4c0,0.2,0,0.4-0.1,0.6c0,0.2-0.1,0.3-0.1,0.4s-0.1,0.2-0.1,0.2s-0.1,0.1-0.1,0.1
				s-0.1,0-0.2,0s-0.1,0-0.2,0l0-0.2c0,0,0.1,0,0.1,0s0.1,0,0.1-0.1c0,0,0.1-0.1,0.1-0.1s0-0.1,0.1-0.2s0-0.2,0.1-0.4s0-0.3,0-0.5h1
				L218.1,79.5L218.1,79.5z"/>
			<path class="st14" d="M218.9,78.5C218.9,78.5,219,78.5,218.9,78.5c0.1,0,0.1,0,0.2,0c0,0,0.1,0,0.1,0c0,0,0.1,0,0.1,0
				c0.2,0,0.4,0,0.5,0.1c0.1,0.1,0.2,0.2,0.2,0.4c0,0.2-0.1,0.3-0.2,0.4s-0.3,0.1-0.6,0.1c-0.1,0-0.2,0-0.3,0s-0.2,0-0.3,0v-1.6h0.3
				L218.9,78.5L218.9,78.5z M219.7,79c0,0,0-0.1,0-0.1s0-0.1-0.1-0.1s-0.1,0-0.1-0.1c-0.1,0-0.1,0-0.2,0c-0.1,0-0.1,0-0.2,0
				c-0.1,0-0.1,0-0.2,0v0.5c0.1,0,0.1,0,0.2,0s0.1,0,0.2,0c0.1,0,0.2,0,0.2,0s0.1,0,0.1-0.1s0.1-0.1,0.1-0.1
				C219.7,79.1,219.7,79,219.7,79z"/>
			<path class="st14" d="M221.6,79.5h-0.3v-0.7h-0.7v0.7h-0.3v-1.6h0.3v0.6h0.7v-0.6h0.3V79.5z"/>
			<path class="st14" d="M223.5,78.7c0,0.1,0,0.2-0.1,0.3s-0.1,0.2-0.1,0.3c-0.1,0.1-0.1,0.1-0.2,0.2c-0.1,0-0.2,0.1-0.3,0.1
				c-0.1,0-0.2,0-0.3-0.1s-0.2-0.1-0.2-0.2s-0.1-0.2-0.1-0.3s0-0.2,0-0.3c0-0.1,0-0.2,0.1-0.3s0.1-0.2,0.1-0.3
				c0.1-0.1,0.1-0.1,0.2-0.2c0.1,0,0.2-0.1,0.3-0.1c0.1,0,0.2,0,0.3,0.1c0.1,0,0.2,0.1,0.2,0.2c0.1,0.1,0.1,0.2,0.1,0.3
				S223.5,78.6,223.5,78.7z M223.2,78.7c0-0.1,0-0.2,0-0.3c0-0.1-0.1-0.1-0.1-0.2c0,0-0.1-0.1-0.1-0.1c-0.1,0-0.1,0-0.2,0
				c-0.1,0-0.1,0-0.2,0c-0.1,0-0.1,0.1-0.1,0.1s-0.1,0.1-0.1,0.2s0,0.1,0,0.2c0,0.1,0,0.2,0,0.3s0.1,0.1,0.1,0.2
				c0,0,0.1,0.1,0.1,0.1s0.1,0,0.2,0c0.1,0,0.1,0,0.2,0c0.1,0,0.1-0.1,0.1-0.1s0.1-0.1,0.1-0.2C223.2,78.8,223.2,78.8,223.2,78.7z"
				/>
			<path class="st14" d="M225.1,79.4c-0.1,0-0.1,0-0.2,0.1c-0.1,0-0.1,0-0.2,0c-0.2,0-0.4-0.1-0.6-0.2c-0.1-0.1-0.2-0.3-0.2-0.6
				c0-0.1,0-0.2,0.1-0.3c0-0.1,0.1-0.2,0.2-0.3s0.2-0.1,0.2-0.2s0.2-0.1,0.3-0.1c0.1,0,0.2,0,0.2,0s0.1,0,0.2,0.1v0.3
				c-0.1,0-0.1-0.1-0.2-0.1s-0.1,0-0.2,0c-0.1,0-0.1,0-0.2,0c-0.1,0-0.1,0.1-0.2,0.1c0,0.1-0.1,0.1-0.1,0.2c0,0.1,0,0.2,0,0.2
				c0,0.2,0,0.3,0.1,0.4c0.1,0.1,0.2,0.1,0.4,0.1c0.1,0,0.1,0,0.2,0s0.1,0,0.2-0.1L225.1,79.4L225.1,79.4z"/>
			<path class="st14" d="M227,78.1h-0.6v1.3h-0.3v-1.3h-0.6v-0.2h1.5V78.1z"/>
			<path class="st14" d="M227.6,78.5C227.7,78.5,227.7,78.5,227.6,78.5c0.1,0,0.1,0,0.2,0c0,0,0.1,0,0.1,0c0,0,0.1,0,0.1,0
				c0.2,0,0.4,0,0.5,0.1c0.1,0.1,0.2,0.2,0.2,0.4c0,0.2-0.1,0.3-0.2,0.4s-0.3,0.1-0.6,0.1c-0.1,0-0.2,0-0.3,0s-0.2,0-0.3,0v-1.6h0.3
				L227.6,78.5L227.6,78.5z M228.4,79c0,0,0-0.1,0-0.1s0-0.1-0.1-0.1s-0.1,0-0.1-0.1c-0.1,0-0.1,0-0.2,0c-0.1,0-0.1,0-0.2,0
				c-0.1,0-0.1,0-0.2,0v0.5c0.1,0,0.1,0,0.2,0s0.1,0,0.2,0c0.1,0,0.2,0,0.2,0s0.1,0,0.1-0.1s0.1-0.1,0.1-0.1
				C228.4,79.1,228.4,79,228.4,79z"/>
		</g>
		<g>
			<rect x="192.1" y="28.7" class="st13" width="16.5" height="5.3"/>
			<path class="st14" d="M195,30.9h-0.3l-0.8-1v1h-0.3v-2h0.3v1l0.7-1h0.3l-0.8,1L195,30.9z"/>
			<path class="st14" d="M196.7,30.1c0,0.1,0,0.2-0.1,0.3c0,0.1-0.1,0.2-0.1,0.3c-0.1,0.1-0.1,0.1-0.2,0.2c-0.1,0-0.2,0.1-0.3,0.1
				c-0.1,0-0.2,0-0.3-0.1s-0.2-0.1-0.2-0.2s-0.1-0.2-0.1-0.3s0-0.2,0-0.3c0-0.1,0-0.2,0.1-0.3s0.1-0.2,0.1-0.3
				c0.1-0.1,0.1-0.1,0.2-0.2c0.1,0,0.2-0.1,0.3-0.1c0.1,0,0.2,0,0.3,0.1c0.1,0,0.2,0.1,0.2,0.2c0.1,0.1,0.1,0.2,0.1,0.3
				S196.7,30,196.7,30.1z M196.4,30.1c0-0.1,0-0.2,0-0.3c0-0.1-0.1-0.1-0.1-0.2c0,0-0.1-0.1-0.1-0.1c-0.1,0-0.1,0-0.2,0
				c-0.1,0-0.1,0-0.2,0c-0.1,0-0.1,0.1-0.1,0.1s-0.1,0.1-0.1,0.2s0,0.1,0,0.2c0,0.1,0,0.2,0,0.3s0.1,0.1,0.1,0.2
				c0,0,0.1,0.1,0.1,0.1s0.1,0,0.2,0c0.1,0,0.1,0,0.2,0c0.1,0,0.1-0.1,0.1-0.1s0.1-0.1,0.1-0.2C196.4,30.2,196.4,30.2,196.4,30.1z"
				/>
			<path class="st14" d="M198.3,30.9h-0.3v-0.7h-0.7v0.7h-0.3v-1.6h0.3v0.6h0.7v-0.6h0.3V30.9z"/>
			<path class="st14" d="M200.1,30C200.1,30,200.1,30.1,200.1,30c0,0.1,0,0.1,0,0.2H199c0,0.2,0,0.3,0.1,0.4
				c0.1,0.1,0.2,0.1,0.4,0.1c0,0,0.1,0,0.1,0c0,0,0.1,0,0.1,0s0.1,0,0.1,0s0.1,0,0.1,0v0.2c-0.1,0-0.2,0-0.2,0.1c-0.1,0-0.2,0-0.3,0
				c-0.1,0-0.2,0-0.3-0.1c-0.1,0-0.2-0.1-0.2-0.2s-0.1-0.2-0.1-0.3s0-0.2,0-0.3c0-0.1,0-0.2,0-0.3c0-0.1,0.1-0.2,0.1-0.3
				c0.1-0.1,0.1-0.1,0.2-0.2c0.1,0,0.2-0.1,0.3-0.1c0.1,0,0.2,0,0.3,0.1c0.1,0,0.2,0.1,0.2,0.1c0.1,0.1,0.1,0.1,0.1,0.2
				C200.1,29.8,200.1,29.9,200.1,30z M199.9,30c0-0.1,0-0.1,0-0.2c0-0.1,0-0.1-0.1-0.1c0,0-0.1-0.1-0.1-0.1c-0.1,0-0.1,0-0.2,0
				c-0.1,0-0.1,0-0.2,0c0,0-0.1,0.1-0.1,0.1s-0.1,0.1-0.1,0.1c0,0.1,0,0.1,0,0.2C199,30,199.9,30,199.9,30z"/>
			<path class="st14" d="M201.6,30.3h-0.3c-0.2,0-0.4,0-0.5-0.1c-0.1-0.1-0.2-0.2-0.2-0.4v-0.4h0.3v0.4c0,0.1,0,0.1,0,0.2
				c0,0,0,0.1,0.1,0.1c0,0,0.1,0,0.1,0.1c0.1,0,0.1,0,0.2,0h0.3v-0.7h0.3v1.6h-0.3L201.6,30.3L201.6,30.3z"/>
			<path class="st14" d="M203.6,30.9h-0.3v-0.7h-0.7v0.7h-0.3v-1.6h0.3v0.6h0.7v-0.6h0.3V30.9z"/>
			<path class="st14" d="M204.2,29.9c0,0,0.1,0,0.1,0c0,0,0.1,0,0.1,0c0.1,0,0.2,0,0.3,0s0.1,0.1,0.2,0.1c0,0,0.1,0.1,0.1,0.2
				c0,0.1,0,0.1,0,0.2c0,0.1,0,0.2,0,0.2s-0.1,0.1-0.1,0.2c-0.1,0-0.1,0.1-0.2,0.1s-0.2,0-0.3,0c-0.1,0-0.1,0-0.2,0
				c-0.1,0-0.1,0-0.2,0v-1.6h0.3V29.9z M204.7,30.4c0-0.1,0-0.1-0.1-0.2c-0.1,0-0.1-0.1-0.2-0.1c0,0-0.1,0-0.1,0c0,0-0.1,0-0.1,0
				v0.5c0,0,0.1,0,0.1,0s0.1,0,0.1,0c0.1,0,0.1,0,0.2,0s0.1,0,0.1-0.1c0,0,0-0.1,0.1-0.1C204.7,30.5,204.7,30.4,204.7,30.4z
				 M205.2,30.9v-1.6h0.3v1.6H205.2z"/>
			<path class="st14" d="M206.1,29.3v1.1l0.7-1.1h0.3v1.6h-0.3v-1.1l-0.7,1.1h-0.3v-1.6H206.1z M206.9,28.7c0,0.1,0,0.1,0,0.2
				c0,0-0.1,0.1-0.1,0.1c0,0-0.1,0.1-0.2,0.1s-0.1,0-0.2,0c-0.1,0-0.2,0-0.2,0c-0.1,0-0.1,0-0.1-0.1c0,0-0.1-0.1-0.1-0.1
				c0,0,0-0.1,0-0.2h0.2c0,0,0,0.1,0,0.1c0,0,0,0,0,0.1c0,0,0,0,0.1,0c0,0,0.1,0,0.1,0c0,0,0.1,0,0.1,0c0,0,0.1,0,0.1,0
				c0,0,0,0,0-0.1c0,0,0-0.1,0-0.1H206.9z"/>
			<path class="st14" d="M195.7,33.4h-0.3v-1.3h-0.7v1.3h-0.3v-1.6h1.3L195.7,33.4L195.7,33.4z"/>
			<path class="st14" d="M197.5,32.6c0,0.1,0,0.3-0.1,0.4c0,0.1-0.1,0.2-0.2,0.3c-0.1,0.1-0.1,0.1-0.2,0.2c-0.1,0-0.2,0.1-0.3,0.1
				c-0.1,0-0.1,0-0.1,0c0,0-0.1,0-0.1,0V34h-0.3v-2.2h0.2l0,0.3c0.1-0.1,0.2-0.2,0.2-0.2s0.2-0.1,0.3-0.1c0.1,0,0.2,0,0.2,0.1
				c0.1,0,0.1,0.1,0.2,0.2s0.1,0.2,0.1,0.2C197.5,32.4,197.5,32.5,197.5,32.6z M197.3,32.6c0-0.1,0-0.2,0-0.2c0-0.1,0-0.1-0.1-0.2
				c0,0-0.1-0.1-0.1-0.1c0,0-0.1,0-0.1,0c0,0-0.1,0-0.1,0c0,0-0.1,0-0.1,0.1c0,0-0.1,0.1-0.1,0.1c0,0-0.1,0.1-0.1,0.2v0.8
				c0.1,0,0.1,0,0.2,0s0.1,0,0.2,0c0.1,0,0.3,0,0.3-0.1S197.3,32.8,197.3,32.6z"/>
			<path class="st14" d="M199.3,32.6c0,0.1,0,0.2-0.1,0.3c0,0.1-0.1,0.2-0.1,0.3c-0.1,0.1-0.1,0.1-0.2,0.2c-0.1,0-0.2,0.1-0.3,0.1
				c-0.1,0-0.2,0-0.3-0.1s-0.2-0.1-0.2-0.2s-0.1-0.2-0.1-0.3s0-0.2,0-0.3c0-0.1,0-0.2,0.1-0.3c0-0.1,0.1-0.2,0.1-0.3
				c0.1-0.1,0.1-0.1,0.2-0.2c0.1,0,0.2-0.1,0.3-0.1c0.1,0,0.2,0,0.3,0.1c0.1,0,0.2,0.1,0.2,0.2c0.1,0.1,0.1,0.2,0.1,0.3
				S199.3,32.5,199.3,32.6z M199,32.6c0-0.1,0-0.2,0-0.3c0-0.1-0.1-0.1-0.1-0.2c0,0-0.1-0.1-0.1-0.1c-0.1,0-0.1,0-0.2,0
				c-0.1,0-0.1,0-0.2,0c-0.1,0-0.1,0.1-0.1,0.1s-0.1,0.1-0.1,0.2s0,0.1,0,0.2c0,0.1,0,0.2,0,0.3s0.1,0.1,0.1,0.2
				c0,0,0.1,0.1,0.1,0.1s0.1,0,0.2,0c0.1,0,0.1,0,0.2,0c0.1,0,0.1-0.1,0.1-0.1s0.1-0.1,0.1-0.2C199,32.8,199,32.7,199,32.6z"/>
			<path class="st14" d="M201.1,33.2l0,0.6h-0.2v-0.4h-1.1v0.4h-0.2l0-0.6h0c0,0,0.1,0,0.1,0s0.1,0,0.1-0.1c0,0,0.1-0.1,0.1-0.1
				s0-0.1,0.1-0.2c0-0.1,0-0.2,0.1-0.4c0-0.1,0-0.3,0-0.5h1v1.3C200.9,33.2,201.1,33.2,201.1,33.2z M200.6,32.1h-0.4
				c0,0.2,0,0.3,0,0.5s0,0.2-0.1,0.3c0,0.1,0,0.2-0.1,0.2c0,0.1-0.1,0.1-0.1,0.1h0.7L200.6,32.1L200.6,32.1z"/>
			<path class="st14" d="M202.8,31.8l-0.5,1.4c-0.1,0.1-0.1,0.3-0.2,0.4c-0.1,0.1-0.1,0.2-0.2,0.3c-0.1,0.1-0.1,0.1-0.2,0.1
				s-0.2,0-0.3,0c0,0-0.1,0-0.1,0c0,0,0,0-0.1,0v-0.2c0,0,0,0,0.1,0c0,0,0.1,0,0.1,0c0.1,0,0.1,0,0.1,0c0,0,0.1,0,0.1-0.1
				c0,0,0.1-0.1,0.1-0.1s0.1-0.1,0.1-0.2l-0.6-1.6h0.3l0.4,1l0.1,0.2l0.1-0.3l0.4-1C202.5,31.8,202.8,31.8,202.8,31.8z"/>
			<path class="st14" d="M204.6,33.4h-0.4l-0.7-0.8v0.8h-0.3v-1.6h0.3v0.7l0.7-0.7h0.4l-0.7,0.7L204.6,33.4z"/>
			<path class="st14" d="M206.3,32.1h-0.6v1.3h-0.3v-1.3h-0.6v-0.2h1.5V32.1z"/>
		</g>
		<g>
			<polygon class="st5" points="209.2,43.3 192.1,43.3 188.7,39.9 192.1,35.9 209.2,35.9 212.6,39.3 			"/>
			<g>
				<polyline class="st6" points="209.8,42.6 209.2,43.3 208.4,43.3 				"/>
				<line class="st7" x1="206.6" y1="43.3" x2="193.8" y2="43.3"/>
				<polyline class="st6" points="193,43.3 192.1,43.3 191.5,42.7 				"/>
				<line class="st15" x1="190.8" y1="41.9" x2="189.7" y2="40.8"/>
				<polyline class="st6" points="189.3,40.5 188.7,39.9 189.3,39.2 				"/>
				<line class="st16" x1="190" y1="38.3" x2="191.2" y2="37"/>
				<polyline class="st6" points="191.6,36.5 192.1,35.9 193,35.9 				"/>
				<line class="st10" x1="194.7" y1="35.9" x2="207.5" y2="35.9"/>
				<polyline class="st6" points="208.4,35.9 209.2,35.9 209.8,36.5 				"/>
				<line class="st17" x1="210.6" y1="37.2" x2="211.7" y2="38.4"/>
				<polyline class="st6" points="212,38.7 212.6,39.3 212.1,40 				"/>
				<line class="st18" x1="211.3" y1="40.9" x2="210.2" y2="42.2"/>
			</g>
		</g>
		<g>
			<rect x="192.1" y="36.9" class="st13" width="16.5" height="5.3"/>
			<path class="st14" d="M195,39.2h-0.3l-0.8-1v1h-0.3v-2h0.3v1l0.7-1h0.3l-0.8,1L195,39.2z"/>
			<path class="st14" d="M196.7,38.4c0,0.1,0,0.2-0.1,0.3c0,0.1-0.1,0.2-0.1,0.3c-0.1,0.1-0.1,0.1-0.2,0.2c-0.1,0-0.2,0.1-0.3,0.1
				c-0.1,0-0.2,0-0.3-0.1s-0.2-0.1-0.2-0.2s-0.1-0.2-0.1-0.3s0-0.2,0-0.3c0-0.1,0-0.2,0.1-0.3c0-0.1,0.1-0.2,0.1-0.3
				c0.1-0.1,0.1-0.1,0.2-0.2c0.1,0,0.2-0.1,0.3-0.1c0.1,0,0.2,0,0.3,0.1c0.1,0,0.2,0.1,0.2,0.2c0.1,0.1,0.1,0.2,0.1,0.3
				S196.7,38.2,196.7,38.4z M196.4,38.4c0-0.1,0-0.2,0-0.3c0-0.1-0.1-0.1-0.1-0.2c0,0-0.1-0.1-0.1-0.1c-0.1,0-0.1,0-0.2,0
				c-0.1,0-0.1,0-0.2,0c-0.1,0-0.1,0.1-0.1,0.1s-0.1,0.1-0.1,0.2s0,0.1,0,0.2c0,0.1,0,0.2,0,0.3s0.1,0.1,0.1,0.2
				c0,0,0.1,0.1,0.1,0.1s0.1,0,0.2,0c0.1,0,0.1,0,0.2,0c0.1,0,0.1-0.1,0.1-0.1s0.1-0.1,0.1-0.2C196.4,38.5,196.4,38.4,196.4,38.4z"
				/>
			<path class="st14" d="M198.3,39.2h-0.3v-0.7h-0.7v0.7h-0.3v-1.6h0.3v0.6h0.7v-0.6h0.3V39.2z"/>
			<path class="st14" d="M200.1,38.3C200.1,38.3,200.1,38.4,200.1,38.3c0,0.1,0,0.1,0,0.2H199c0,0.2,0,0.3,0.1,0.4
				c0.1,0.1,0.2,0.1,0.4,0.1c0,0,0.1,0,0.1,0c0,0,0.1,0,0.1,0s0.1,0,0.1,0s0.1,0,0.1,0v0.2c-0.1,0-0.2,0-0.2,0.1c-0.1,0-0.2,0-0.3,0
				c-0.1,0-0.2,0-0.3-0.1c-0.1,0-0.2-0.1-0.2-0.2s-0.1-0.2-0.1-0.3s0-0.2,0-0.3c0-0.1,0-0.2,0-0.3c0-0.1,0.1-0.2,0.1-0.3
				c0.1-0.1,0.1-0.1,0.2-0.2c0.1,0,0.2-0.1,0.3-0.1c0.1,0,0.2,0,0.3,0.1c0.1,0,0.2,0.1,0.2,0.1c0.1,0.1,0.1,0.1,0.1,0.2
				S200.1,38.2,200.1,38.3z M199.9,38.2c0-0.1,0-0.1,0-0.2c0-0.1,0-0.1-0.1-0.1c0,0-0.1-0.1-0.1-0.1c-0.1,0-0.1,0-0.2,0
				c-0.1,0-0.1,0-0.2,0c0,0-0.1,0.1-0.1,0.1s-0.1,0.1-0.1,0.2c0,0.1,0,0.1,0,0.2C199,38.2,199.9,38.2,199.9,38.2z"/>
			<path class="st14" d="M201.6,38.5h-0.3c-0.2,0-0.4,0-0.5-0.1c-0.1-0.1-0.2-0.2-0.2-0.4v-0.4h0.3V38c0,0.1,0,0.1,0,0.2
				c0,0,0,0.1,0.1,0.1c0,0,0.1,0,0.1,0.1c0.1,0,0.1,0,0.2,0h0.3v-0.7h0.3v1.6h-0.3L201.6,38.5L201.6,38.5z"/>
			<path class="st14" d="M203.6,39.2h-0.3v-0.7h-0.7v0.7h-0.3v-1.6h0.3v0.6h0.7v-0.6h0.3V39.2z"/>
			<path class="st14" d="M204.2,38.2c0,0,0.1,0,0.1,0c0,0,0.1,0,0.1,0c0.1,0,0.2,0,0.3,0s0.1,0.1,0.2,0.1c0,0,0.1,0.1,0.1,0.2
				c0,0.1,0,0.1,0,0.2c0,0.1,0,0.2,0,0.2s-0.1,0.1-0.1,0.2s-0.1,0.1-0.2,0.1s-0.2,0-0.3,0c-0.1,0-0.1,0-0.2,0c-0.1,0-0.1,0-0.2,0
				v-1.6h0.3V38.2z M204.7,38.7c0-0.1,0-0.1-0.1-0.2c-0.1,0-0.1-0.1-0.2-0.1c0,0-0.1,0-0.1,0c0,0-0.1,0-0.1,0v0.5c0,0,0.1,0,0.1,0
				s0.1,0,0.1,0c0.1,0,0.1,0,0.2,0s0.1,0,0.1-0.1c0,0,0-0.1,0.1-0.1C204.7,38.7,204.7,38.7,204.7,38.7z M205.2,39.2v-1.6h0.3v1.6
				H205.2z"/>
			<path class="st14" d="M206.1,37.6v1.1l0.7-1.1h0.3v1.6h-0.3V38l-0.7,1.1h-0.3v-1.6H206.1z M206.9,37c0,0.1,0,0.1,0,0.2
				c0,0-0.1,0.1-0.1,0.1s-0.1,0.1-0.2,0.1c-0.1,0-0.1,0-0.2,0c-0.1,0-0.2,0-0.2,0c-0.1,0-0.1,0-0.1-0.1c0,0-0.1-0.1-0.1-0.1
				c0,0,0-0.1,0-0.2h0.2c0,0,0,0.1,0,0.1c0,0,0,0,0,0.1c0,0,0,0,0.1,0c0,0,0.1,0,0.1,0c0,0,0.1,0,0.1,0c0,0,0.1,0,0.1,0
				c0,0,0,0,0-0.1c0,0,0-0.1,0-0.1H206.9z"/>
			<path class="st14" d="M195.7,41.7h-0.3v-1.3h-0.7v1.3h-0.3v-1.6h1.3L195.7,41.7L195.7,41.7z"/>
			<path class="st14" d="M197.5,40.9c0,0.1,0,0.3-0.1,0.4c0,0.1-0.1,0.2-0.2,0.3c-0.1,0.1-0.1,0.1-0.2,0.2c-0.1,0-0.2,0.1-0.3,0.1
				c-0.1,0-0.1,0-0.1,0c0,0-0.1,0-0.1,0v0.7h-0.3v-2.2h0.2l0,0.3c0.1-0.1,0.2-0.2,0.2-0.2s0.2-0.1,0.3-0.1c0.1,0,0.2,0,0.2,0.1
				c0.1,0,0.1,0.1,0.2,0.2s0.1,0.2,0.1,0.2C197.5,40.6,197.5,40.7,197.5,40.9z M197.3,40.9c0-0.1,0-0.2,0-0.2c0-0.1,0-0.1-0.1-0.2
				c0,0-0.1-0.1-0.1-0.1c0,0-0.1,0-0.1,0c0,0-0.1,0-0.1,0c0,0-0.1,0-0.1,0.1c0,0-0.1,0.1-0.1,0.1c0,0-0.1,0.1-0.1,0.2v0.8
				c0.1,0,0.1,0,0.2,0s0.1,0,0.2,0c0.1,0,0.3,0,0.3-0.1S197.3,41.1,197.3,40.9z"/>
			<path class="st14" d="M199.3,40.9c0,0.1,0,0.2-0.1,0.3c0,0.1-0.1,0.2-0.1,0.3c-0.1,0.1-0.1,0.1-0.2,0.2c-0.1,0-0.2,0.1-0.3,0.1
				c-0.1,0-0.2,0-0.3-0.1s-0.2-0.1-0.2-0.2s-0.1-0.2-0.1-0.3s0-0.2,0-0.3c0-0.1,0-0.2,0.1-0.3c0-0.1,0.1-0.2,0.1-0.3
				c0.1-0.1,0.1-0.1,0.2-0.2c0.1,0,0.2-0.1,0.3-0.1c0.1,0,0.2,0,0.3,0.1c0.1,0,0.2,0.1,0.2,0.2c0.1,0.1,0.1,0.2,0.1,0.3
				S199.3,40.7,199.3,40.9z M199,40.9c0-0.1,0-0.2,0-0.3c0-0.1-0.1-0.1-0.1-0.2c0,0-0.1-0.1-0.1-0.1c-0.1,0-0.1,0-0.2,0
				c-0.1,0-0.1,0-0.2,0c-0.1,0-0.1,0.1-0.1,0.1s-0.1,0.1-0.1,0.2s0,0.1,0,0.2c0,0.1,0,0.2,0,0.3s0.1,0.1,0.1,0.2
				c0,0,0.1,0.1,0.1,0.1s0.1,0,0.2,0c0.1,0,0.1,0,0.2,0c0.1,0,0.1-0.1,0.1-0.1s0.1-0.1,0.1-0.2C199,41,199,41,199,40.9z"/>
			<path class="st14" d="M201.1,41.4l0,0.6h-0.2v-0.4h-1.1v0.4h-0.2l0-0.6h0c0,0,0.1,0,0.1,0s0.1,0,0.1-0.1c0,0,0.1-0.1,0.1-0.1
				s0-0.1,0.1-0.2c0-0.1,0-0.2,0.1-0.4c0-0.1,0-0.3,0-0.5h1v1.3C200.9,41.4,201.1,41.4,201.1,41.4z M200.6,40.3h-0.4
				c0,0.2,0,0.3,0,0.5s0,0.2-0.1,0.3c0,0.1,0,0.2-0.1,0.2c0,0.1-0.1,0.1-0.1,0.1h0.7L200.6,40.3L200.6,40.3z"/>
			<path class="st14" d="M202.8,40.1l-0.5,1.4c-0.1,0.1-0.1,0.3-0.2,0.4c-0.1,0.1-0.1,0.2-0.2,0.3c-0.1,0.1-0.1,0.1-0.2,0.1
				s-0.2,0-0.3,0c0,0-0.1,0-0.1,0c0,0,0,0-0.1,0v-0.2c0,0,0,0,0.1,0c0,0,0.1,0,0.1,0c0.1,0,0.1,0,0.1,0c0,0,0.1,0,0.1-0.1
				c0,0,0.1-0.1,0.1-0.1s0.1-0.1,0.1-0.2l-0.6-1.6h0.3l0.4,1l0.1,0.2l0.1-0.3l0.4-1C202.5,40.1,202.8,40.1,202.8,40.1z"/>
			<path class="st14" d="M204.6,41.7h-0.4l-0.7-0.8v0.8h-0.3v-1.6h0.3v0.7l0.7-0.7h0.4l-0.7,0.7L204.6,41.7z"/>
			<path class="st14" d="M206.3,40.3h-0.6v1.3h-0.3v-1.3h-0.6v-0.2h1.5V40.3z"/>
		</g>
		<g>
			<rect x="234.7" y="77.1" class="st13" width="16.5" height="2.8"/>
			<path class="st14" d="M238.4,79.3h-0.3v-1.8h-0.8v1.8H237v-2h1.4V79.3z"/>
			<path class="st14" d="M240.1,78.5c0,0.1,0,0.3-0.1,0.4c0,0.1-0.1,0.2-0.2,0.3c-0.1,0.1-0.1,0.1-0.2,0.2c-0.1,0-0.2,0.1-0.3,0.1
				c-0.1,0-0.1,0-0.1,0c0,0-0.1,0-0.1,0V80h-0.3v-2.2h0.2l0,0.3c0.1-0.1,0.2-0.2,0.2-0.2s0.2-0.1,0.3-0.1c0.1,0,0.2,0,0.2,0.1
				c0.1,0,0.1,0.1,0.2,0.2s0.1,0.2,0.1,0.2C240.1,78.3,240.1,78.4,240.1,78.5z M239.9,78.5c0-0.1,0-0.2,0-0.2c0-0.1,0-0.1-0.1-0.2
				c0,0-0.1-0.1-0.1-0.1c0,0-0.1,0-0.1,0c0,0-0.1,0-0.1,0c0,0-0.1,0-0.1,0.1c0,0-0.1,0.1-0.1,0.1c0,0-0.1,0.1-0.1,0.2v0.8
				c0.1,0,0.1,0,0.2,0s0.1,0,0.2,0c0.1,0,0.3-0.1,0.3-0.1S239.9,78.7,239.9,78.5z"/>
			<path class="st14" d="M241.9,78.5c0,0.1,0,0.2-0.1,0.3s-0.1,0.2-0.1,0.3c-0.1,0.1-0.1,0.1-0.2,0.2c-0.1,0-0.2,0.1-0.3,0.1
				c-0.1,0-0.2,0-0.3-0.1s-0.2-0.1-0.2-0.2s-0.1-0.2-0.1-0.3c0-0.1,0-0.2,0-0.3c0-0.1,0-0.2,0.1-0.3s0.1-0.2,0.1-0.3
				c0.1-0.1,0.1-0.1,0.2-0.2c0.1,0,0.2-0.1,0.3-0.1c0.1,0,0.2,0,0.3,0.1c0.1,0,0.2,0.1,0.2,0.2c0.1,0.1,0.1,0.2,0.1,0.3
				S241.9,78.4,241.9,78.5z M241.6,78.5c0-0.1,0-0.2,0-0.3c0-0.1-0.1-0.1-0.1-0.2c0,0-0.1-0.1-0.1-0.1c-0.1,0-0.1,0-0.2,0
				c-0.1,0-0.1,0-0.2,0c-0.1,0-0.1,0.1-0.1,0.1s-0.1,0.1-0.1,0.2s0,0.1,0,0.2c0,0.1,0,0.2,0,0.3s0.1,0.1,0.1,0.2
				c0,0,0.1,0.1,0.1,0.1s0.1,0,0.2,0c0.1,0,0.1,0,0.2,0c0.1,0,0.1-0.1,0.1-0.1s0.1-0.1,0.1-0.2C241.6,78.7,241.6,78.6,241.6,78.5z"
				/>
			<path class="st14" d="M243.7,79.1l0,0.6h-0.2v-0.4h-1.1v0.4h-0.2l0-0.6h0c0,0,0.1,0,0.1,0s0.1,0,0.1-0.1c0,0,0.1-0.1,0.1-0.1
				s0-0.1,0.1-0.2c0-0.1,0-0.2,0.1-0.4s0-0.3,0-0.5h1v1.3H243.7z M243.2,78h-0.4c0,0.2,0,0.3,0,0.5s0,0.2-0.1,0.3
				c0,0.1,0,0.2-0.1,0.2c0,0.1-0.1,0.1-0.1,0.1h0.7L243.2,78L243.2,78z"/>
			<path class="st14" d="M245.4,77.8l-0.5,1.4c-0.1,0.1-0.1,0.3-0.2,0.4c-0.1,0.1-0.1,0.2-0.2,0.3c-0.1,0.1-0.1,0.1-0.2,0.1
				s-0.2,0-0.3,0c0,0-0.1,0-0.1,0c0,0,0,0-0.1,0v-0.2c0,0,0,0,0.1,0c0,0,0.1,0,0.1,0c0.1,0,0.1,0,0.1,0c0,0,0.1,0,0.1-0.1
				c0,0,0.1-0.1,0.1-0.1s0.1-0.1,0.1-0.2l-0.6-1.6h0.3l0.4,1l0.1,0.2l0.1-0.3l0.4-1L245.4,77.8L245.4,77.8z"/>
			<path class="st14" d="M247.2,79.3h-0.4l-0.7-0.8v0.8h-0.3v-1.6h0.3v0.7l0.7-0.7h0.4l-0.7,0.7L247.2,79.3z"/>
			<path class="st14" d="M248.9,78h-0.6v1.3H248V78h-0.6v-0.2h1.5V78z"/>
		</g>
		<g>
			<polygon class="st5" points="196.3,53.7 179.2,53.7 175.8,50 179.2,46.3 196.3,46.3 199.7,50 			"/>
			<g>
				<polyline class="st6" points="196.9,53.1 196.3,53.7 195.4,53.7 				"/>
				<line class="st19" x1="193.7" y1="53.7" x2="180.9" y2="53.7"/>
				<polyline class="st6" points="180,53.7 179.2,53.7 178.6,53.1 				"/>
				<line class="st20" x1="177.9" y1="52.3" x2="176.7" y2="51"/>
				<polyline class="st6" points="176.4,50.6 175.8,50 176.4,49.4 				"/>
				<line class="st21" x1="177.1" y1="48.6" x2="178.2" y2="47.3"/>
				<polyline class="st6" points="178.6,46.9 179.2,46.3 180.1,46.3 				"/>
				<line class="st10" x1="181.8" y1="46.3" x2="194.6" y2="46.3"/>
				<polyline class="st6" points="195.5,46.3 196.3,46.3 196.9,46.9 				"/>
				<line class="st22" x1="197.6" y1="47.7" x2="198.8" y2="48.9"/>
				<polyline class="st6" points="199.1,49.3 199.7,50 199.1,50.6 				"/>
				<line class="st23" x1="198.4" y1="51.4" x2="197.3" y2="52.7"/>
			</g>
		</g>
		<g>
			<rect x="179.5" y="47.4" class="st13" width="16.5" height="5.3"/>
			<path class="st14" d="M182.4,49.6H182l-0.8-1v1H181v-2h0.3v1l0.7-1h0.3l-0.8,1L182.4,49.6z"/>
			<path class="st14" d="M184.1,48.8c0,0.1,0,0.2-0.1,0.3c0,0.1-0.1,0.2-0.1,0.3c-0.1,0.1-0.1,0.1-0.2,0.2c-0.1,0-0.2,0.1-0.3,0.1
				c-0.1,0-0.2,0-0.3-0.1s-0.2-0.1-0.2-0.2s-0.1-0.2-0.1-0.3s0-0.2,0-0.3c0-0.1,0-0.2,0.1-0.3c0-0.1,0.1-0.2,0.1-0.3
				c0.1-0.1,0.1-0.1,0.2-0.2c0.1,0,0.2-0.1,0.3-0.1c0.1,0,0.2,0,0.3,0.1c0.1,0,0.2,0.1,0.2,0.2c0.1,0.1,0.1,0.2,0.1,0.3
				S184.1,48.6,184.1,48.8z M183.8,48.8c0-0.1,0-0.2,0-0.3c0-0.1-0.1-0.1-0.1-0.2c0,0-0.1-0.1-0.1-0.1c-0.1,0-0.1,0-0.2,0
				c-0.1,0-0.1,0-0.2,0c-0.1,0-0.1,0.1-0.1,0.1s-0.1,0.1-0.1,0.2s0,0.1,0,0.2c0,0.1,0,0.2,0,0.3s0.1,0.1,0.1,0.2
				c0,0,0.1,0.1,0.1,0.1s0.1,0,0.2,0c0.1,0,0.1,0,0.2,0c0.1,0,0.1-0.1,0.1-0.1s0.1-0.1,0.1-0.2C183.8,48.9,183.8,48.9,183.8,48.8z"
				/>
			<path class="st14" d="M185.8,49.6h-0.3v-0.7h-0.7v0.7h-0.3V48h0.3v0.6h0.7V48h0.3V49.6z"/>
			<path class="st14" d="M187.6,48.7C187.6,48.7,187.6,48.8,187.6,48.7c0,0.1,0,0.1,0,0.2h-1.1c0,0.2,0,0.3,0.1,0.4
				c0.1,0.1,0.2,0.1,0.4,0.1c0,0,0.1,0,0.1,0c0,0,0.1,0,0.1,0s0.1,0,0.1,0s0.1,0,0.1,0v0.2c-0.1,0-0.2,0-0.2,0.1c-0.1,0-0.2,0-0.3,0
				c-0.1,0-0.2,0-0.3-0.1c-0.1,0-0.2-0.1-0.2-0.2s-0.1-0.2-0.1-0.3s0-0.2,0-0.3c0-0.1,0-0.2,0-0.3c0-0.1,0.1-0.2,0.1-0.3
				c0.1-0.1,0.1-0.1,0.2-0.2c0.1,0,0.2-0.1,0.3-0.1c0.1,0,0.2,0,0.3,0.1c0.1,0,0.2,0.1,0.2,0.1c0.1,0.1,0.1,0.1,0.1,0.2
				C187.6,48.5,187.6,48.6,187.6,48.7z M187.3,48.7c0-0.1,0-0.1,0-0.2c0-0.1,0-0.1-0.1-0.1c0,0-0.1-0.1-0.1-0.1c-0.1,0-0.1,0-0.2,0
				c-0.1,0-0.1,0-0.2,0c0,0-0.1,0.1-0.1,0.1s-0.1,0.1-0.1,0.2c0,0.1,0,0.1,0,0.2C186.5,48.7,187.3,48.7,187.3,48.7z"/>
			<path class="st14" d="M189,49h-0.3c-0.2,0-0.4,0-0.5-0.1c-0.1-0.1-0.2-0.2-0.2-0.4V48h0.3v0.4c0,0.1,0,0.1,0,0.2
				c0,0,0,0.1,0.1,0.1c0,0,0.1,0,0.1,0.1c0.1,0,0.1,0,0.2,0h0.3V48h0.3v1.6H189L189,49L189,49z"/>
			<path class="st14" d="M191,49.6h-0.3v-0.7H190v0.7h-0.3V48h0.3v0.6h0.7V48h0.3V49.6z"/>
			<path class="st14" d="M191.6,48.6c0,0,0.1,0,0.1,0c0,0,0.1,0,0.1,0c0.1,0,0.2,0,0.3,0s0.1,0.1,0.2,0.1c0,0,0.1,0.1,0.1,0.2
				c0,0.1,0,0.1,0,0.2c0,0.1,0,0.2,0,0.2s-0.1,0.1-0.1,0.2s-0.1,0.1-0.2,0.1s-0.2,0-0.3,0c-0.1,0-0.1,0-0.2,0c-0.1,0-0.1,0-0.2,0V48
				h0.3V48.6z M192.1,49.1c0-0.1,0-0.1-0.1-0.2c-0.1,0-0.1-0.1-0.2-0.1c0,0-0.1,0-0.1,0c0,0-0.1,0-0.1,0v0.5c0,0,0.1,0,0.1,0
				s0.1,0,0.1,0c0.1,0,0.1,0,0.2,0s0.1,0,0.1-0.1c0,0,0-0.1,0.1-0.1C192.1,49.2,192.1,49.1,192.1,49.1z M192.6,49.6V48h0.3v1.6
				H192.6z"/>
			<path class="st14" d="M193.5,48v1.1l0.7-1.1h0.3v1.6h-0.3v-1.1l-0.7,1.1h-0.3V48H193.5z M194.3,47.4c0,0.1,0,0.1,0,0.2
				c0,0-0.1,0.1-0.1,0.1s-0.1,0.1-0.2,0.1c-0.1,0-0.1,0-0.2,0c-0.1,0-0.2,0-0.2,0c-0.1,0-0.1,0-0.1-0.1c0,0-0.1-0.1-0.1-0.1
				c0,0,0-0.1,0-0.2h0.2c0,0,0,0.1,0,0.1c0,0,0,0,0,0.1c0,0,0,0,0.1,0c0,0,0.1,0,0.1,0c0,0,0.1,0,0.1,0c0,0,0.1,0,0.1,0
				c0,0,0,0,0-0.1c0,0,0-0.1,0-0.1H194.3z"/>
			<path class="st14" d="M183.1,52.1h-0.3v-1.3h-0.7v1.3h-0.3v-1.6h1.3L183.1,52.1L183.1,52.1z"/>
			<path class="st14" d="M185,51.3c0,0.1,0,0.3-0.1,0.4c0,0.1-0.1,0.2-0.2,0.3c-0.1,0.1-0.1,0.1-0.2,0.2c-0.1,0-0.2,0.1-0.3,0.1
				c-0.1,0-0.1,0-0.1,0c0,0-0.1,0-0.1,0v0.7h-0.3v-2.2h0.2l0,0.3c0.1-0.1,0.2-0.2,0.2-0.2s0.2-0.1,0.3-0.1c0.1,0,0.2,0,0.2,0.1
				c0.1,0,0.1,0.1,0.2,0.2s0.1,0.2,0.1,0.2C185,51,185,51.2,185,51.3z M184.7,51.3c0-0.1,0-0.2,0-0.2c0-0.1,0-0.1-0.1-0.2
				c0,0-0.1-0.1-0.1-0.1c0,0-0.1,0-0.1,0c0,0-0.1,0-0.1,0c0,0-0.1,0-0.1,0.1c0,0-0.1,0.1-0.1,0.1c0,0-0.1,0.1-0.1,0.2v0.8
				c0.1,0,0.1,0,0.2,0s0.1,0,0.2,0c0.1,0,0.3,0,0.3-0.1S184.7,51.5,184.7,51.3z"/>
			<path class="st14" d="M186.7,51.3c0,0.1,0,0.2-0.1,0.3c0,0.1-0.1,0.2-0.1,0.3c-0.1,0.1-0.1,0.1-0.2,0.2c-0.1,0-0.2,0.1-0.3,0.1
				c-0.1,0-0.2,0-0.3-0.1s-0.2-0.1-0.2-0.2s-0.1-0.2-0.1-0.3s0-0.2,0-0.3c0-0.1,0-0.2,0.1-0.3c0-0.1,0.1-0.2,0.1-0.3
				c0.1-0.1,0.1-0.1,0.2-0.2c0.1,0,0.2-0.1,0.3-0.1c0.1,0,0.2,0,0.3,0.1c0.1,0,0.2,0.1,0.2,0.2c0.1,0.1,0.1,0.2,0.1,0.3
				S186.7,51.2,186.7,51.3z M186.5,51.3c0-0.1,0-0.2,0-0.3c0-0.1-0.1-0.1-0.1-0.2c0,0-0.1-0.1-0.1-0.1c-0.1,0-0.1,0-0.2,0
				c-0.1,0-0.1,0-0.2,0c-0.1,0-0.1,0.1-0.1,0.1s-0.1,0.1-0.1,0.2s0,0.1,0,0.2c0,0.1,0,0.2,0,0.3s0.1,0.1,0.1,0.2
				c0,0,0.1,0.1,0.1,0.1s0.1,0,0.2,0c0.1,0,0.1,0,0.2,0c0.1,0,0.1-0.1,0.1-0.1s0.1-0.1,0.1-0.2C186.5,51.5,186.5,51.4,186.5,51.3z"
				/>
			<path class="st14" d="M188.6,51.8l0,0.6h-0.2v-0.4h-1.1v0.4h-0.2l0-0.6h0c0,0,0.1,0,0.1,0s0.1,0,0.1-0.1c0,0,0.1-0.1,0.1-0.1
				s0-0.1,0.1-0.2c0-0.1,0-0.2,0.1-0.4c0-0.1,0-0.3,0-0.5h1v1.3C188.3,51.8,188.6,51.8,188.6,51.8z M188.1,50.7h-0.4
				c0,0.2,0,0.3,0,0.5s0,0.2-0.1,0.3c0,0.1,0,0.2-0.1,0.2c0,0.1-0.1,0.1-0.1,0.1h0.7L188.1,50.7L188.1,50.7z"/>
			<path class="st14" d="M190.3,50.5l-0.5,1.4c-0.1,0.1-0.1,0.3-0.2,0.4c-0.1,0.1-0.1,0.2-0.2,0.3c-0.1,0.1-0.1,0.1-0.2,0.1
				s-0.2,0-0.3,0c0,0-0.1,0-0.1,0c0,0,0,0-0.1,0v-0.2c0,0,0,0,0.1,0c0,0,0.1,0,0.1,0c0.1,0,0.1,0,0.1,0c0,0,0.1,0,0.1-0.1
				c0,0,0.1-0.1,0.1-0.1s0.1-0.1,0.1-0.2l-0.6-1.6h0.3l0.4,1l0.1,0.2l0.1-0.3l0.4-1L190.3,50.5L190.3,50.5z"/>
			<path class="st14" d="M192,52.1h-0.4l-0.7-0.8v0.8h-0.3v-1.6h0.3v0.7l0.7-0.7h0.4l-0.7,0.7L192,52.1z"/>
			<path class="st14" d="M193.7,50.7h-0.6v1.3h-0.3v-1.3h-0.6v-0.2h1.5V50.7z"/>
		</g>
		<g>
			<polygon class="st5" points="218.8,65.7 201.6,65.7 198.3,62 201.7,58.3 218.8,58.3 222.2,61.9 			"/>
			<g>
				<polyline class="st6" points="219.3,65 218.8,65.7 217.9,65.7 				"/>
				<line class="st24" x1="216.2" y1="65.7" x2="203.4" y2="65.7"/>
				<polyline class="st6" points="202.5,65.7 201.6,65.7 201.1,65 				"/>
				<line class="st25" x1="200.3" y1="64.2" x2="199.2" y2="63"/>
				<polyline class="st6" points="198.8,62.6 198.3,62 198.8,61.3 				"/>
				<line class="st26" x1="199.6" y1="60.5" x2="200.7" y2="59.3"/>
				<polyline class="st6" points="201.1,58.9 201.7,58.3 202.5,58.3 				"/>
				<line class="st10" x1="204.2" y1="58.3" x2="217.1" y2="58.3"/>
				<polyline class="st6" points="217.9,58.3 218.8,58.3 219.4,58.9 				"/>
				<line class="st27" x1="220.1" y1="59.7" x2="221.2" y2="60.9"/>
				<polyline class="st6" points="221.6,61.3 222.2,61.9 221.6,62.5 				"/>
				<line class="st28" x1="220.8" y1="63.4" x2="219.7" y2="64.6"/>
			</g>
		</g>
		<g>
			<rect x="202" y="59.3" class="st13" width="16.5" height="5.3"/>
			<path class="st14" d="M204.9,61.5h-0.3l-0.8-1v1h-0.3v-2h0.3v1l0.7-1h0.3l-0.8,1L204.9,61.5z"/>
			<path class="st14" d="M206.6,60.7c0,0.1,0,0.2-0.1,0.3c0,0.1-0.1,0.2-0.1,0.3c-0.1,0.1-0.1,0.1-0.2,0.2c-0.1,0-0.2,0.1-0.3,0.1
				c-0.1,0-0.2,0-0.3-0.1s-0.2-0.1-0.2-0.2s-0.1-0.2-0.1-0.3s0-0.2,0-0.3c0-0.1,0-0.2,0.1-0.3c0-0.1,0.1-0.2,0.1-0.3
				c0.1-0.1,0.1-0.1,0.2-0.2c0.1,0,0.2-0.1,0.3-0.1c0.1,0,0.2,0,0.3,0.1c0.1,0,0.2,0.1,0.2,0.2c0.1,0.1,0.1,0.2,0.1,0.3
				S206.6,60.6,206.6,60.7z M206.3,60.7c0-0.1,0-0.2,0-0.3c0-0.1-0.1-0.1-0.1-0.2c0,0-0.1-0.1-0.1-0.1c-0.1,0-0.1,0-0.2,0
				c-0.1,0-0.1,0-0.2,0c-0.1,0-0.1,0.1-0.1,0.1s-0.1,0.1-0.1,0.2s0,0.1,0,0.2c0,0.1,0,0.2,0,0.3s0.1,0.1,0.1,0.2
				c0,0,0.1,0.1,0.1,0.1s0.1,0,0.2,0c0.1,0,0.1,0,0.2,0c0.1,0,0.1-0.1,0.1-0.1s0.1-0.1,0.1-0.2C206.3,60.9,206.3,60.8,206.3,60.7z"
				/>
			<path class="st14" d="M208.2,61.5H208v-0.7h-0.7v0.7H207V60h0.3v0.6h0.7V60h0.3V61.5z"/>
			<path class="st14" d="M210,60.7C210,60.7,210,60.7,210,60.7c0,0.1,0,0.1,0,0.2h-1.1c0,0.2,0,0.3,0.1,0.4c0.1,0.1,0.2,0.1,0.4,0.1
				c0,0,0.1,0,0.1,0c0,0,0.1,0,0.1,0s0.1,0,0.1,0s0.1,0,0.1,0v0.2c-0.1,0-0.2,0-0.2,0.1c-0.1,0-0.2,0-0.3,0c-0.1,0-0.2,0-0.3-0.1
				c-0.1,0-0.2-0.1-0.2-0.2s-0.1-0.2-0.1-0.3s0-0.2,0-0.3c0-0.1,0-0.2,0-0.3c0-0.1,0.1-0.2,0.1-0.3c0.1-0.1,0.1-0.1,0.2-0.2
				c0.1,0,0.2-0.1,0.3-0.1c0.1,0,0.2,0,0.3,0.1c0.1,0,0.2,0.1,0.2,0.1c0.1,0.1,0.1,0.1,0.1,0.2C210,60.4,210,60.5,210,60.7z
				 M209.8,60.6c0-0.1,0-0.1,0-0.2c0-0.1,0-0.1-0.1-0.1c0,0-0.1-0.1-0.1-0.1c-0.1,0-0.1,0-0.2,0c-0.1,0-0.1,0-0.2,0
				c0,0-0.1,0.1-0.1,0.1s-0.1,0.1-0.1,0.2c0,0.1,0,0.1,0,0.2C208.9,60.6,209.8,60.6,209.8,60.6z"/>
			<path class="st14" d="M211.4,60.9h-0.3c-0.2,0-0.4,0-0.5-0.1c-0.1-0.1-0.2-0.2-0.2-0.4V60h0.3v0.4c0,0.1,0,0.1,0,0.2
				c0,0,0,0.1,0.1,0.1c0,0,0.1,0,0.1,0.1c0.1,0,0.1,0,0.2,0h0.3V60h0.3v1.6h-0.3L211.4,60.9L211.4,60.9z"/>
			<path class="st14" d="M213.5,61.5h-0.3v-0.7h-0.7v0.7h-0.3V60h0.3v0.6h0.7V60h0.3V61.5z"/>
			<path class="st14" d="M214.1,60.6c0,0,0.1,0,0.1,0c0,0,0.1,0,0.1,0c0.1,0,0.2,0,0.3,0s0.1,0.1,0.2,0.1c0,0,0.1,0.1,0.1,0.2
				c0,0.1,0,0.1,0,0.2c0,0.1,0,0.2,0,0.2s-0.1,0.1-0.1,0.2s-0.1,0.1-0.2,0.1s-0.2,0-0.3,0c-0.1,0-0.1,0-0.2,0c-0.1,0-0.1,0-0.2,0V60
				h0.3V60.6z M214.6,61c0-0.1,0-0.1-0.1-0.2c-0.1,0-0.1-0.1-0.2-0.1c0,0-0.1,0-0.1,0c0,0-0.1,0-0.1,0v0.5c0,0,0.1,0,0.1,0
				s0.1,0,0.1,0c0.1,0,0.1,0,0.2,0s0.1,0,0.1-0.1c0,0,0-0.1,0.1-0.1C214.6,61.1,214.6,61.1,214.6,61z M215.1,61.5V60h0.3v1.6H215.1z
				"/>
			<path class="st14" d="M216,60v1.1l0.7-1.1h0.3v1.6h-0.3v-1.1l-0.7,1.1h-0.3V60H216z M216.8,59.3c0,0.1,0,0.1,0,0.2
				c0,0-0.1,0.1-0.1,0.1s-0.1,0.1-0.2,0.1c-0.1,0-0.1,0-0.2,0c-0.1,0-0.2,0-0.2,0c-0.1,0-0.1,0-0.1-0.1c0,0-0.1-0.1-0.1-0.1
				c0,0,0-0.1,0-0.2h0.2c0,0,0,0.1,0,0.1c0,0,0,0,0,0.1c0,0,0,0,0.1,0c0,0,0.1,0,0.1,0c0,0,0.1,0,0.1,0c0,0,0.1,0,0.1,0
				c0,0,0,0,0-0.1c0,0,0-0.1,0-0.1H216.8z"/>
			<path class="st14" d="M205.6,64h-0.3v-1.3h-0.7V64h-0.3v-1.6h1.3L205.6,64L205.6,64z"/>
			<path class="st14" d="M207.4,63.2c0,0.1,0,0.3-0.1,0.4c0,0.1-0.1,0.2-0.2,0.3c-0.1,0.1-0.1,0.1-0.2,0.2c-0.1,0-0.2,0.1-0.3,0.1
				c-0.1,0-0.1,0-0.1,0c0,0-0.1,0-0.1,0v0.7h-0.3v-2.2h0.2l0,0.3c0.1-0.1,0.2-0.2,0.2-0.2s0.2-0.1,0.3-0.1c0.1,0,0.2,0,0.2,0.1
				c0.1,0,0.1,0.1,0.2,0.2s0.1,0.2,0.1,0.2C207.4,63,207.4,63.1,207.4,63.2z M207.2,63.2c0-0.1,0-0.2,0-0.2c0-0.1,0-0.1-0.1-0.2
				c0,0-0.1-0.1-0.1-0.1c0,0-0.1,0-0.1,0c0,0-0.1,0-0.1,0c0,0-0.1,0-0.1,0.1c0,0-0.1,0.1-0.1,0.1c0,0-0.1,0.1-0.1,0.2v0.8
				c0.1,0,0.1,0,0.2,0s0.1,0,0.2,0c0.1,0,0.3,0,0.3-0.1S207.2,63.4,207.2,63.2z"/>
			<path class="st14" d="M209.2,63.2c0,0.1,0,0.2-0.1,0.3c0,0.1-0.1,0.2-0.1,0.3c-0.1,0.1-0.1,0.1-0.2,0.2c-0.1,0-0.2,0.1-0.3,0.1
				c-0.1,0-0.2,0-0.3-0.1c-0.1,0-0.2-0.1-0.2-0.2s-0.1-0.2-0.1-0.3s0-0.2,0-0.3c0-0.1,0-0.2,0.1-0.3c0-0.1,0.1-0.2,0.1-0.3
				c0.1-0.1,0.1-0.1,0.2-0.2c0.1,0,0.2-0.1,0.3-0.1c0.1,0,0.2,0,0.3,0.1c0.1,0,0.2,0.1,0.2,0.2c0.1,0.1,0.1,0.2,0.1,0.3
				S209.2,63.1,209.2,63.2z M208.9,63.3c0-0.1,0-0.2,0-0.3c0-0.1-0.1-0.1-0.1-0.2c0,0-0.1-0.1-0.1-0.1c-0.1,0-0.1,0-0.2,0
				c-0.1,0-0.1,0-0.2,0c-0.1,0-0.1,0.1-0.1,0.1S208.1,63,208,63s0,0.1,0,0.2c0,0.1,0,0.2,0,0.3s0.1,0.1,0.1,0.2c0,0,0.1,0.1,0.1,0.1
				s0.1,0,0.2,0c0.1,0,0.1,0,0.2,0c0.1,0,0.1-0.1,0.1-0.1s0.1-0.1,0.1-0.2C208.9,63.4,208.9,63.3,208.9,63.3z"/>
			<path class="st14" d="M211,63.8l0,0.6h-0.2V64h-1.1v0.4h-0.2l0-0.6h0c0,0,0.1,0,0.1,0s0.1,0,0.1-0.1c0,0,0.1-0.1,0.1-0.1
				s0-0.1,0.1-0.2c0-0.1,0-0.2,0.1-0.4c0-0.1,0-0.3,0-0.5h1v1.3C210.8,63.8,211,63.8,211,63.8z M210.5,62.7h-0.4c0,0.2,0,0.3,0,0.5
				s0,0.2-0.1,0.3c0,0.1,0,0.2-0.1,0.2c0,0.1-0.1,0.1-0.1,0.1h0.7L210.5,62.7L210.5,62.7z"/>
			<path class="st14" d="M212.7,62.5l-0.5,1.4c-0.1,0.1-0.1,0.3-0.2,0.4c-0.1,0.1-0.1,0.2-0.2,0.3c-0.1,0.1-0.1,0.1-0.2,0.1
				s-0.2,0-0.3,0c0,0-0.1,0-0.1,0c0,0,0,0-0.1,0v-0.2c0,0,0,0,0.1,0c0,0,0.1,0,0.1,0c0.1,0,0.1,0,0.1,0c0,0,0.1,0,0.1-0.1
				c0,0,0.1-0.1,0.1-0.1s0.1-0.1,0.1-0.2l-0.6-1.6h0.3l0.4,1l0.1,0.2l0.1-0.3l0.4-1L212.7,62.5L212.7,62.5z"/>
			<path class="st14" d="M214.5,64h-0.4l-0.7-0.8V64h-0.3v-1.6h0.3v0.7l0.7-0.7h0.4l-0.7,0.7L214.5,64z"/>
			<path class="st14" d="M216.2,62.7h-0.6V64h-0.3v-1.3h-0.6v-0.2h1.5V62.7z"/>
		</g>
		<polygon class="st4" points="172.1,65.7 155,65.7 151.6,62 155,58.3 172.1,58.3 175.5,62 		"/>
		<polygon class="st4" points="202.7,82.2 185.6,82.2 182.2,78.5 185.6,74.8 202.7,74.8 206.1,78.5 		"/>
		<polygon class="st4" points="154,82.2 136.9,82.2 133.5,78.5 136.9,74.8 154,74.8 157.4,78.5 		"/>
		<g>
			<rect x="135.9" y="75.8" class="st13" width="19.1" height="5.5"/>
			<path class="st14" d="M138.3,77.4c0,0.1,0,0.2-0.1,0.3s-0.1,0.1-0.2,0.2s-0.2,0.1-0.3,0.1s-0.2,0-0.3,0H137v-2h0.6
				c0.5,0,0.7,0.2,0.7,0.5c0,0.1,0,0.2-0.1,0.3c-0.1,0.1-0.1,0.1-0.3,0.2c0.1,0,0.1,0,0.2,0.1c0,0,0.1,0.1,0.1,0.1s0.1,0.1,0.1,0.1
				C138.3,77.2,138.3,77.3,138.3,77.4z M138,76.5c0,0,0-0.1,0-0.1c0,0,0-0.1-0.1-0.1c0,0-0.1,0-0.1-0.1s-0.1,0-0.2,0h-0.3v0.6h0.3
				c0.1,0,0.1,0,0.2,0c0.1,0,0.1,0,0.1-0.1s0.1-0.1,0.1-0.1C137.9,76.6,138,76.5,138,76.5z M138,77.4c0-0.1,0-0.1,0-0.1
				c0,0-0.1-0.1-0.1-0.1c0,0-0.1-0.1-0.2-0.1c-0.1,0-0.1,0-0.2,0h-0.3v0.7h0.3c0.2,0,0.3,0,0.4-0.1C138,77.6,138,77.5,138,77.4z"/>
			<path class="st14" d="M140,78h-0.3v-0.7H139V78h-0.3v-1.6h0.3v0.6h0.7v-0.6h0.3V78z"/>
			<path class="st14" d="M141.9,76.4l-0.5,1.4c-0.1,0.1-0.1,0.3-0.2,0.4c-0.1,0.1-0.1,0.2-0.2,0.3c-0.1,0.1-0.1,0.1-0.2,0.1
				s-0.2,0-0.3,0c0,0-0.1,0-0.1,0c0,0,0,0-0.1,0v-0.2c0,0,0,0,0.1,0c0,0,0.1,0,0.1,0c0.1,0,0.1,0,0.1,0c0,0,0.1,0,0.1-0.1
				c0,0,0.1-0.1,0.1-0.1s0.1-0.1,0.1-0.2l-0.6-1.6h0.3l0.4,1l0.1,0.2l0.1-0.3l0.4-1L141.9,76.4L141.9,76.4z"/>
			<path class="st14" d="M143.6,76.6H143V78h-0.3v-1.3h-0.6v-0.2h1.5V76.6z"/>
			<path class="st14" d="M145.3,77.2c0,0.1,0,0.3-0.1,0.4c0,0.1-0.1,0.2-0.2,0.3c-0.1,0.1-0.1,0.1-0.2,0.2c-0.1,0-0.2,0.1-0.3,0.1
				c-0.1,0-0.1,0-0.1,0c0,0-0.1,0-0.1,0v0.7H144v-2.2h0.2l0,0.3c0.1-0.1,0.2-0.2,0.2-0.2s0.2-0.1,0.3-0.1c0.1,0,0.2,0,0.2,0.1
				c0.1,0,0.1,0.1,0.2,0.2s0.1,0.2,0.1,0.2C145.3,76.9,145.3,77.1,145.3,77.2z M145,77.2c0-0.1,0-0.2,0-0.2c0-0.1,0-0.1-0.1-0.2
				c0,0-0.1-0.1-0.1-0.1c0,0-0.1,0-0.1,0c0,0-0.1,0-0.1,0c0,0-0.1,0-0.1,0.1c0,0-0.1,0.1-0.1,0.1c0,0-0.1,0.1-0.1,0.2v0.8
				c0.1,0,0.1,0,0.2,0s0.1,0,0.2,0c0.1,0,0.3-0.1,0.3-0.1S145,77.4,145,77.2z"/>
			<path class="st14" d="M147,77.1C147,77.2,147,77.2,147,77.1c0,0.1,0,0.1,0,0.2h-1.1c0,0.2,0,0.3,0.1,0.4c0.1,0.1,0.2,0.1,0.4,0.1
				c0,0,0.1,0,0.1,0c0,0,0.1,0,0.1,0s0.1,0,0.1,0s0.1,0,0.1,0v0.2c-0.1,0-0.2,0-0.2,0.1c-0.1,0-0.2,0-0.3,0c-0.1,0-0.2,0-0.3-0.1
				c-0.1,0-0.2-0.1-0.2-0.2s-0.1-0.2-0.1-0.3s0-0.2,0-0.3c0-0.1,0-0.2,0-0.3c0-0.1,0.1-0.2,0.1-0.3c0.1-0.1,0.1-0.1,0.2-0.2
				c0.1,0,0.2-0.1,0.3-0.1c0.1,0,0.2,0,0.3,0.1c0.1,0,0.2,0.1,0.2,0.1c0.1,0.1,0.1,0.1,0.1,0.2S147,77,147,77.1z M146.8,77.1
				c0-0.1,0-0.1,0-0.2c0-0.1,0-0.1-0.1-0.1c0,0-0.1-0.1-0.1-0.1c-0.1,0-0.1,0-0.2,0c-0.1,0-0.1,0-0.2,0c0,0-0.1,0.1-0.1,0.1
				s-0.1,0.1-0.1,0.2c0,0.1,0,0.1,0,0.2H146.8z"/>
			<path class="st14" d="M148.7,78h-0.3v-0.7h-0.7V78h-0.3v-1.6h0.3v0.6h0.7v-0.6h0.3V78z"/>
			<path class="st14" d="M150.5,78h-0.3v-0.7h-0.7V78h-0.3v-1.6h0.3v0.6h0.7v-0.6h0.3V78z"/>
			<path class="st14" d="M151.2,76.4v1.1l0.7-1.1h0.3V78h-0.3v-1.1l-0.7,1.1H151v-1.6H151.2z"/>
			<path class="st14" d="M153,76.4v1.1l0.7-1.1h0.3V78h-0.3v-1.1L153,78h-0.3v-1.6H153z M153.8,75.8c0,0.1,0,0.1,0,0.2
				c0,0-0.1,0.1-0.1,0.1c0,0-0.1,0.1-0.2,0.1c-0.1,0-0.1,0-0.2,0c-0.1,0-0.2,0-0.2,0c-0.1,0-0.1,0-0.1-0.1c0,0-0.1-0.1-0.1-0.1
				c0,0,0-0.1,0-0.2h0.2c0,0,0,0.1,0,0.1c0,0,0,0,0,0.1c0,0,0,0,0.1,0c0,0,0.1,0,0.1,0c0,0,0.1,0,0.1,0c0,0,0.1,0,0.1,0
				c0,0,0,0,0-0.1c0,0,0-0.1,0-0.1H153.8z"/>
			<path class="st14" d="M140.9,80.5h-0.3v-1.3h-0.7v1.3h-0.3v-1.6h1.3L140.9,80.5L140.9,80.5z"/>
			<path class="st14" d="M142.7,79.7c0,0.1,0,0.3-0.1,0.4c0,0.1-0.1,0.2-0.2,0.3c-0.1,0.1-0.1,0.1-0.2,0.2c-0.1,0-0.2,0.1-0.3,0.1
				c-0.1,0-0.1,0-0.1,0c0,0-0.1,0-0.1,0v0.7h-0.3v-2.2h0.2l0,0.3c0.1-0.1,0.2-0.2,0.2-0.2s0.2-0.1,0.3-0.1c0.1,0,0.2,0,0.2,0.1
				c0.1,0,0.1,0.1,0.2,0.2s0.1,0.2,0.1,0.2C142.7,79.5,142.7,79.6,142.7,79.7z M142.4,79.7c0-0.1,0-0.2,0-0.2c0-0.1,0-0.1-0.1-0.2
				c0,0-0.1-0.1-0.1-0.1c0,0-0.1,0-0.1,0c0,0-0.1,0-0.1,0c0,0-0.1,0-0.1,0.1c0,0-0.1,0.1-0.1,0.1c0,0-0.1,0.1-0.1,0.2v0.8
				c0.1,0,0.1,0,0.2,0s0.1,0,0.2,0c0.1,0,0.3-0.1,0.3-0.1S142.4,79.9,142.4,79.7z"/>
			<path class="st14" d="M144.5,79.7c0,0.1,0,0.2-0.1,0.3s-0.1,0.2-0.1,0.3c-0.1,0.1-0.1,0.1-0.2,0.2c-0.1,0-0.2,0.1-0.3,0.1
				c-0.1,0-0.2,0-0.3-0.1s-0.2-0.1-0.2-0.2s-0.1-0.2-0.1-0.3s0-0.2,0-0.3c0-0.1,0-0.2,0.1-0.3s0.1-0.2,0.1-0.3
				c0.1-0.1,0.1-0.1,0.2-0.2c0.1,0,0.2-0.1,0.3-0.1c0.1,0,0.2,0,0.3,0.1c0.1,0,0.2,0.1,0.2,0.2c0.1,0.1,0.1,0.2,0.1,0.3
				S144.5,79.6,144.5,79.7z M144.2,79.7c0-0.1,0-0.2,0-0.3c0-0.1-0.1-0.1-0.1-0.2c0,0-0.1-0.1-0.1-0.1c-0.1,0-0.1,0-0.2,0
				c-0.1,0-0.1,0-0.2,0c-0.1,0-0.1,0.1-0.1,0.1s-0.1,0.1-0.1,0.2s0,0.1,0,0.2c0,0.1,0,0.2,0,0.3s0.1,0.1,0.1,0.2
				c0,0,0.1,0.1,0.1,0.1s0.1,0,0.2,0c0.1,0,0.1,0,0.2,0c0.1,0,0.1-0.1,0.1-0.1s0.1-0.1,0.1-0.2C144.2,79.9,144.2,79.8,144.2,79.7z"
				/>
			<path class="st14" d="M146.3,80.3l0,0.6H146v-0.4h-1.1v0.4h-0.2l0-0.6h0c0,0,0.1,0,0.1,0s0.1,0,0.1-0.1c0,0,0.1-0.1,0.1-0.1
				s0-0.1,0.1-0.2c0-0.1,0-0.2,0.1-0.4s0-0.3,0-0.5h1v1.3H146.3z M145.8,79.2h-0.4c0,0.2,0,0.3,0,0.5s0,0.2-0.1,0.3
				c0,0.1,0,0.2-0.1,0.2c0,0.1-0.1,0.1-0.1,0.1h0.7L145.8,79.2L145.8,79.2z"/>
			<path class="st14" d="M148,78.9l-0.5,1.4c-0.1,0.1-0.1,0.3-0.2,0.4c-0.1,0.1-0.1,0.2-0.2,0.3c-0.1,0.1-0.1,0.1-0.2,0.1
				s-0.2,0-0.3,0c0,0-0.1,0-0.1,0c0,0,0,0-0.1,0v-0.2c0,0,0,0,0.1,0c0,0,0.1,0,0.1,0c0.1,0,0.1,0,0.1,0c0,0,0.1,0,0.1-0.1
				c0,0,0.1-0.1,0.1-0.1s0.1-0.1,0.1-0.2l-0.6-1.6h0.3l0.4,1l0.1,0.2l0.1-0.3l0.4-1L148,78.9L148,78.9z"/>
			<path class="st14" d="M149.7,80.5h-0.4l-0.7-0.8v0.8h-0.3v-1.6h0.3v0.7l0.7-0.7h0.4l-0.7,0.7L149.7,80.5z"/>
			<path class="st14" d="M151.4,79.2h-0.6v1.3h-0.3v-1.3H150v-0.2h1.5V79.2z"/>
		</g>
		<g>
			<rect x="184.6" y="75.8" class="st13" width="19.1" height="5.5"/>
			<path class="st14" d="M187,77.4c0,0.1,0,0.2-0.1,0.3s-0.1,0.1-0.2,0.2s-0.2,0.1-0.3,0.1s-0.2,0-0.3,0h-0.5v-2h0.6
				c0.5,0,0.7,0.2,0.7,0.5c0,0.1,0,0.2-0.1,0.3c-0.1,0.1-0.1,0.1-0.3,0.2c0.1,0,0.1,0,0.2,0.1c0,0,0.1,0.1,0.1,0.1s0.1,0.1,0.1,0.1
				C187,77.2,187,77.3,187,77.4z M186.6,76.5c0,0,0-0.1,0-0.1c0,0,0-0.1-0.1-0.1c0,0-0.1,0-0.1-0.1s-0.1,0-0.2,0h-0.3v0.6h0.3
				c0.1,0,0.1,0,0.2,0c0.1,0,0.1,0,0.1-0.1s0.1-0.1,0.1-0.1C186.6,76.6,186.6,76.5,186.6,76.5z M186.7,77.4c0-0.1,0-0.1,0-0.1
				c0,0-0.1-0.1-0.1-0.1c0,0-0.1-0.1-0.2-0.1c-0.1,0-0.1,0-0.2,0h-0.3v0.7h0.3c0.2,0,0.3,0,0.4-0.1
				C186.6,77.6,186.7,77.5,186.7,77.4z"/>
			<path class="st14" d="M188.6,78h-0.3v-0.7h-0.7V78h-0.3v-1.6h0.3V77h0.7v-0.6h0.3V78z"/>
			<path class="st14" d="M190.5,76.4l-0.5,1.4c-0.1,0.1-0.1,0.3-0.2,0.4c-0.1,0.1-0.1,0.2-0.2,0.3c-0.1,0.1-0.1,0.1-0.2,0.1
				s-0.2,0-0.3,0c0,0-0.1,0-0.1,0c0,0,0,0-0.1,0v-0.2c0,0,0,0,0.1,0c0,0,0.1,0,0.1,0c0.1,0,0.1,0,0.1,0c0,0,0.1,0,0.1-0.1
				c0,0,0.1-0.1,0.1-0.1s0.1-0.1,0.1-0.2l-0.6-1.6h0.3l0.4,1l0.1,0.2l0.1-0.3l0.4-1L190.5,76.4L190.5,76.4z"/>
			<path class="st14" d="M192.2,76.6h-0.6V78h-0.3v-1.3h-0.6v-0.2h1.5V76.6z"/>
			<path class="st14" d="M194,77.2c0,0.1,0,0.3-0.1,0.4c0,0.1-0.1,0.2-0.2,0.3c-0.1,0.1-0.1,0.1-0.2,0.2c-0.1,0-0.2,0.1-0.3,0.1
				c-0.1,0-0.1,0-0.1,0c0,0-0.1,0-0.1,0v0.7h-0.3v-2.2h0.2l0,0.3c0.1-0.1,0.2-0.2,0.2-0.2s0.2-0.1,0.3-0.1c0.1,0,0.2,0,0.2,0.1
				c0.1,0,0.1,0.1,0.2,0.2s0.1,0.2,0.1,0.2C194,76.9,194,77,194,77.2z M193.7,77.2c0-0.1,0-0.2,0-0.2c0-0.1,0-0.1-0.1-0.2
				c0,0-0.1-0.1-0.1-0.1c0,0-0.1,0-0.1,0c0,0-0.1,0-0.1,0c0,0-0.1,0-0.1,0.1c0,0-0.1,0.1-0.1,0.1c0,0-0.1,0.1-0.1,0.2v0.8
				c0.1,0,0.1,0,0.2,0s0.1,0,0.2,0c0.1,0,0.3-0.1,0.3-0.1S193.7,77.4,193.7,77.2z"/>
			<path class="st14" d="M195.7,77.1C195.7,77.1,195.7,77.2,195.7,77.1c0,0.1,0,0.1,0,0.2h-1.1c0,0.2,0,0.3,0.1,0.4
				c0.1,0.1,0.2,0.1,0.4,0.1c0,0,0.1,0,0.1,0c0,0,0.1,0,0.1,0s0.1,0,0.1,0s0.1,0,0.1,0v0.2c-0.1,0-0.2,0-0.2,0.1c-0.1,0-0.2,0-0.3,0
				c-0.1,0-0.2,0-0.3-0.1c-0.1,0-0.2-0.1-0.2-0.2s-0.1-0.2-0.1-0.3s0-0.2,0-0.3c0-0.1,0-0.2,0-0.3c0-0.1,0.1-0.2,0.1-0.3
				c0.1-0.1,0.1-0.1,0.2-0.2c0.1,0,0.2-0.1,0.3-0.1c0.1,0,0.2,0,0.3,0.1c0.1,0,0.2,0.1,0.2,0.1c0.1,0.1,0.1,0.1,0.1,0.2
				S195.7,77,195.7,77.1z M195.4,77.1c0-0.1,0-0.1,0-0.2c0-0.1,0-0.1-0.1-0.1c0,0-0.1-0.1-0.1-0.1c-0.1,0-0.1,0-0.2,0
				c-0.1,0-0.1,0-0.2,0c0,0-0.1,0.1-0.1,0.1s-0.1,0.1-0.1,0.2c0,0.1,0,0.1,0,0.2H195.4z"/>
			<path class="st14" d="M197.4,78h-0.3v-0.7h-0.7V78h-0.3v-1.6h0.3V77h0.7v-0.6h0.3V78z"/>
			<path class="st14" d="M199.1,78h-0.3v-0.7h-0.7V78h-0.3v-1.6h0.3V77h0.7v-0.6h0.3V78z"/>
			<path class="st14" d="M199.9,76.4v1.1l0.7-1.1h0.3V78h-0.3v-1.1l-0.7,1.1h-0.3v-1.6H199.9z"/>
			<path class="st14" d="M201.7,76.4v1.1l0.7-1.1h0.3V78h-0.3v-1.1l-0.7,1.1h-0.3v-1.6H201.7z M202.5,75.8c0,0.1,0,0.1,0,0.2
				c0,0-0.1,0.1-0.1,0.1c0,0-0.1,0.1-0.2,0.1c-0.1,0-0.1,0-0.2,0c-0.1,0-0.2,0-0.2,0c-0.1,0-0.1,0-0.1-0.1c0,0-0.1-0.1-0.1-0.1
				c0,0,0-0.1,0-0.2h0.2c0,0,0,0.1,0,0.1c0,0,0,0,0,0.1c0,0,0,0,0.1,0c0,0,0.1,0,0.1,0c0,0,0.1,0,0.1,0c0,0,0.1,0,0.1,0
				c0,0,0,0,0-0.1c0,0,0-0.1,0-0.1H202.5z"/>
			<path class="st14" d="M189.5,80.5h-0.3v-1.3h-0.7v1.3h-0.3v-1.6h1.3L189.5,80.5L189.5,80.5z"/>
			<path class="st14" d="M191.3,79.7c0,0.1,0,0.3-0.1,0.4c0,0.1-0.1,0.2-0.2,0.3c-0.1,0.1-0.1,0.1-0.2,0.2c-0.1,0-0.2,0.1-0.3,0.1
				c-0.1,0-0.1,0-0.1,0c0,0-0.1,0-0.1,0v0.7H190v-2.2h0.2l0,0.3c0.1-0.1,0.2-0.2,0.2-0.2s0.2-0.1,0.3-0.1c0.1,0,0.2,0,0.2,0.1
				c0.1,0,0.1,0.1,0.2,0.2s0.1,0.2,0.1,0.2C191.3,79.4,191.3,79.6,191.3,79.7z M191.1,79.7c0-0.1,0-0.2,0-0.2c0-0.1,0-0.1-0.1-0.2
				c0,0-0.1-0.1-0.1-0.1c0,0-0.1,0-0.1,0c0,0-0.1,0-0.1,0c0,0-0.1,0-0.1,0.1c0,0-0.1,0.1-0.1,0.1c0,0-0.1,0.1-0.1,0.2v0.8
				c0.1,0,0.1,0,0.2,0s0.1,0,0.2,0c0.1,0,0.3-0.1,0.3-0.1S191.1,79.9,191.1,79.7z"/>
			<path class="st14" d="M193.1,79.7c0,0.1,0,0.2-0.1,0.3s-0.1,0.2-0.1,0.3c-0.1,0.1-0.1,0.1-0.2,0.2c-0.1,0-0.2,0.1-0.3,0.1
				c-0.1,0-0.2,0-0.3-0.1s-0.2-0.1-0.2-0.2s-0.1-0.2-0.1-0.3s0-0.2,0-0.3c0-0.1,0-0.2,0.1-0.3s0.1-0.2,0.1-0.3
				c0.1-0.1,0.1-0.1,0.2-0.2c0.1,0,0.2-0.1,0.3-0.1c0.1,0,0.2,0,0.3,0.1c0.1,0,0.2,0.1,0.2,0.2c0.1,0.1,0.1,0.2,0.1,0.3
				S193.1,79.6,193.1,79.7z M192.8,79.7c0-0.1,0-0.2,0-0.3c0-0.1-0.1-0.1-0.1-0.2c0,0-0.1-0.1-0.1-0.1c-0.1,0-0.1,0-0.2,0
				c-0.1,0-0.1,0-0.2,0c-0.1,0-0.1,0.1-0.1,0.1s-0.1,0.1-0.1,0.2s0,0.1,0,0.2c0,0.1,0,0.2,0,0.3s0.1,0.1,0.1,0.2
				c0,0,0.1,0.1,0.1,0.1s0.1,0,0.2,0c0.1,0,0.1,0,0.2,0c0.1,0,0.1-0.1,0.1-0.1s0.1-0.1,0.1-0.2C192.8,79.9,192.8,79.8,192.8,79.7z"
				/>
			<path class="st14" d="M195,80.3l0,0.6h-0.2v-0.4h-1.1v0.4h-0.2l0-0.6h0c0,0,0.1,0,0.1,0s0.1,0,0.1-0.1c0,0,0.1-0.1,0.1-0.1
				s0-0.1,0.1-0.2c0-0.1,0-0.2,0.1-0.4s0-0.3,0-0.5h1v1.3H195z M194.5,79.2H194c0,0.2,0,0.3,0,0.5s0,0.2-0.1,0.3
				c0,0.1,0,0.2-0.1,0.2c0,0.1-0.1,0.1-0.1,0.1h0.7L194.5,79.2L194.5,79.2z"/>
			<path class="st14" d="M196.6,78.9l-0.5,1.4c-0.1,0.1-0.1,0.3-0.2,0.4c-0.1,0.1-0.1,0.2-0.2,0.3c-0.1,0.1-0.1,0.1-0.2,0.1
				s-0.2,0-0.3,0c0,0-0.1,0-0.1,0c0,0,0,0-0.1,0v-0.2c0,0,0,0,0.1,0c0,0,0.1,0,0.1,0c0.1,0,0.1,0,0.1,0c0,0,0.1,0,0.1-0.1
				c0,0,0.1-0.1,0.1-0.1s0.1-0.1,0.1-0.2l-0.6-1.6h0.3l0.4,1l0.1,0.2L196,80l0.4-1L196.6,78.9L196.6,78.9z"/>
			<path class="st14" d="M198.4,80.5H198l-0.7-0.8v0.8H197v-1.6h0.3v0.7l0.7-0.7h0.4l-0.7,0.7L198.4,80.5z"/>
			<path class="st14" d="M200.1,79.2h-0.6v1.3h-0.3v-1.3h-0.6v-0.2h1.5V79.2z"/>
		</g>
		<g>
			<rect x="156.7" y="48.4" class="st13" width="13.9" height="3.1"/>
			<path class="st14" d="M158.3,50.7H158v-1.8h-0.8v1.8h-0.3v-2h1.4V50.7z"/>
			<path class="st14" d="M160,49.8c0,0.1,0,0.3-0.1,0.4c0,0.1-0.1,0.2-0.2,0.3c-0.1,0.1-0.1,0.1-0.2,0.2c-0.1,0-0.2,0.1-0.3,0.1
				c-0.1,0-0.1,0-0.1,0c0,0-0.1,0-0.1,0v0.7h-0.3v-2.2h0.2l0,0.3c0.1-0.1,0.2-0.2,0.2-0.2s0.2-0.1,0.3-0.1c0.1,0,0.2,0,0.2,0.1
				c0.1,0,0.1,0.1,0.2,0.2s0.1,0.2,0.1,0.2C160,49.6,160,49.7,160,49.8z M159.8,49.8c0-0.1,0-0.2,0-0.2c0-0.1,0-0.1-0.1-0.2
				c0,0-0.1-0.1-0.1-0.1c0,0-0.1,0-0.1,0c0,0-0.1,0-0.1,0c0,0-0.1,0-0.1,0.1c0,0-0.1,0.1-0.1,0.1c0,0-0.1,0.1-0.1,0.2v0.8
				c0.1,0,0.1,0,0.2,0s0.1,0,0.2,0c0.1,0,0.3,0,0.3-0.1S159.8,50,159.8,49.8z"/>
			<path class="st14" d="M161.8,49.9c0,0.1,0,0.2-0.1,0.3c0,0.1-0.1,0.2-0.1,0.3c-0.1,0.1-0.1,0.1-0.2,0.2c-0.1,0-0.2,0.1-0.3,0.1
				c-0.1,0-0.2,0-0.3-0.1s-0.2-0.1-0.2-0.2s-0.1-0.2-0.1-0.3s0-0.2,0-0.3c0-0.1,0-0.2,0.1-0.3c0-0.1,0.1-0.2,0.1-0.3
				c0.1-0.1,0.1-0.1,0.2-0.2c0.1,0,0.2-0.1,0.3-0.1c0.1,0,0.2,0,0.3,0.1c0.1,0,0.2,0.1,0.2,0.2c0.1,0.1,0.1,0.2,0.1,0.3
				S161.8,49.7,161.8,49.9z M161.5,49.9c0-0.1,0-0.2,0-0.3c0-0.1-0.1-0.1-0.1-0.2c0,0-0.1-0.1-0.1-0.1c-0.1,0-0.1,0-0.2,0
				c-0.1,0-0.1,0-0.2,0c-0.1,0-0.1,0.1-0.1,0.1s-0.1,0.1-0.1,0.2s0,0.1,0,0.2c0,0.1,0,0.2,0,0.3s0.1,0.1,0.1,0.2
				c0,0,0.1,0.1,0.1,0.1s0.1,0,0.2,0c0.1,0,0.1,0,0.2,0c0.1,0,0.1-0.1,0.1-0.1s0.1-0.1,0.1-0.2C161.5,50,161.5,49.9,161.5,49.9z"/>
			<path class="st14" d="M163.6,50.4l0,0.6h-0.2v-0.4h-1.2v-1.6h0.3v1.3h0.7v-1.3h0.3v1.3L163.6,50.4L163.6,50.4z"/>
			<path class="st14" d="M165.3,49.8C165.3,49.8,165.3,49.9,165.3,49.8c0,0.1,0,0.1,0,0.2h-1.1c0,0.2,0,0.3,0.1,0.4
				c0.1,0.1,0.2,0.1,0.4,0.1c0,0,0.1,0,0.1,0c0,0,0.1,0,0.1,0s0.1,0,0.1,0s0.1,0,0.1,0v0.2c-0.1,0-0.2,0-0.2,0.1c-0.1,0-0.2,0-0.3,0
				c-0.1,0-0.2,0-0.3-0.1c-0.1,0-0.2-0.1-0.2-0.2s-0.1-0.2-0.1-0.3s0-0.2,0-0.3c0-0.1,0-0.2,0-0.3c0-0.1,0.1-0.2,0.1-0.3
				c0.1-0.1,0.1-0.1,0.2-0.2c0.1,0,0.2-0.1,0.3-0.1c0.1,0,0.2,0,0.3,0.1c0.1,0,0.2,0.1,0.2,0.1c0.1,0.1,0.1,0.1,0.1,0.2
				S165.3,49.7,165.3,49.8z M165,49.7c0-0.1,0-0.1,0-0.2c0-0.1,0-0.1-0.1-0.1c0,0-0.1-0.1-0.1-0.1c-0.1,0-0.1,0-0.2,0
				c-0.1,0-0.1,0-0.2,0c0,0-0.1,0.1-0.1,0.1s-0.1,0.1-0.1,0.2c0,0.1,0,0.1,0,0.2C164.2,49.7,165,49.7,165,49.7z"/>
			<path class="st14" d="M166.9,50.6c-0.1,0-0.1,0-0.2,0.1c-0.1,0-0.1,0-0.2,0c-0.2,0-0.4-0.1-0.6-0.2c-0.1-0.1-0.2-0.3-0.2-0.6
				c0-0.1,0-0.2,0.1-0.3c0-0.1,0.1-0.2,0.2-0.3s0.2-0.1,0.2-0.2s0.2-0.1,0.3-0.1c0.1,0,0.2,0,0.2,0s0.1,0,0.2,0.1v0.3
				c-0.1,0-0.1-0.1-0.2-0.1s-0.1,0-0.2,0c-0.1,0-0.1,0-0.2,0c-0.1,0-0.1,0.1-0.2,0.1c0,0-0.1,0.1-0.1,0.2c0,0.1,0,0.2,0,0.2
				c0,0.2,0,0.3,0.1,0.4c0.1,0.1,0.2,0.1,0.4,0.1c0.1,0,0.1,0,0.2,0c0.1,0,0.1,0,0.2-0.1L166.9,50.6L166.9,50.6z"/>
			<path class="st14" d="M168.6,50.6c-0.1,0-0.1,0-0.2,0.1c-0.1,0-0.1,0-0.2,0c-0.2,0-0.4-0.1-0.6-0.2c-0.1-0.1-0.2-0.3-0.2-0.6
				c0-0.1,0-0.2,0.1-0.3c0-0.1,0.1-0.2,0.2-0.3s0.2-0.1,0.2-0.2s0.2-0.1,0.3-0.1c0.1,0,0.2,0,0.2,0s0.1,0,0.2,0.1v0.3
				c-0.1,0-0.1-0.1-0.2-0.1s-0.1,0-0.2,0c-0.1,0-0.1,0-0.2,0c-0.1,0-0.1,0.1-0.2,0.1c0,0-0.1,0.1-0.1,0.2c0,0.1,0,0.2,0,0.2
				c0,0.2,0,0.3,0.1,0.4c0.1,0.1,0.2,0.1,0.4,0.1c0.1,0,0.1,0,0.2,0c0.1,0,0.1,0,0.2-0.1L168.6,50.6L168.6,50.6z"/>
		</g>
		<polygon class="st3" points="147.7,65.8 127.2,65.8 130.6,62 127.2,58.4 147.8,58.4 151.2,62 		"/>
		<g>
			<rect x="132.9" y="60.5" class="st13" width="13.9" height="3.1"/>
			<path class="st14" d="M134.4,62.7h-0.3v-1.8h-0.8v1.8h-0.3v-2h1.4V62.7z"/>
			<path class="st14" d="M136.2,61.9c0,0.1,0,0.3-0.1,0.4c0,0.1-0.1,0.2-0.2,0.3c-0.1,0.1-0.1,0.1-0.2,0.2c-0.1,0-0.2,0.1-0.3,0.1
				c-0.1,0-0.1,0-0.1,0c0,0-0.1,0-0.1,0v0.7h-0.3v-2.2h0.2l0,0.3c0.1-0.1,0.2-0.2,0.2-0.2s0.2-0.1,0.3-0.1c0.1,0,0.2,0,0.2,0.1
				c0.1,0,0.1,0.1,0.2,0.2s0.1,0.2,0.1,0.2C136.2,61.7,136.2,61.8,136.2,61.9z M135.9,61.9c0-0.1,0-0.2,0-0.2c0-0.1,0-0.1-0.1-0.2
				c0,0-0.1-0.1-0.1-0.1c0,0-0.1,0-0.1,0c0,0-0.1,0-0.1,0c0,0-0.1,0-0.1,0.1c0,0-0.1,0.1-0.1,0.1c0,0-0.1,0.1-0.1,0.2v0.8
				c0.1,0,0.1,0,0.2,0s0.1,0,0.2,0c0.1,0,0.3,0,0.3-0.1S135.9,62.1,135.9,61.9z"/>
			<path class="st14" d="M138,61.9c0,0.1,0,0.2-0.1,0.3c0,0.1-0.1,0.2-0.1,0.3c-0.1,0.1-0.1,0.1-0.2,0.2c-0.1,0-0.2,0.1-0.3,0.1
				c-0.1,0-0.2,0-0.3-0.1s-0.2-0.1-0.2-0.2s-0.1-0.2-0.1-0.3s0-0.2,0-0.3c0-0.1,0-0.2,0.1-0.3c0-0.1,0.1-0.2,0.1-0.3
				c0.1-0.1,0.1-0.1,0.2-0.2c0.1,0,0.2-0.1,0.3-0.1c0.1,0,0.2,0,0.3,0.1c0.1,0,0.2,0.1,0.2,0.2c0.1,0.1,0.1,0.2,0.1,0.3
				S138,61.8,138,61.9z M137.7,61.9c0-0.1,0-0.2,0-0.3c0-0.1-0.1-0.1-0.1-0.2c0,0-0.1-0.1-0.1-0.1c-0.1,0-0.1,0-0.2,0
				c-0.1,0-0.1,0-0.2,0c-0.1,0-0.1,0.1-0.1,0.1s-0.1,0.1-0.1,0.2s0,0.1,0,0.2c0,0.1,0,0.2,0,0.3s0.1,0.1,0.1,0.2
				c0,0,0.1,0.1,0.1,0.1s0.1,0,0.2,0c0.1,0,0.1,0,0.2,0c0.1,0,0.1-0.1,0.1-0.1s0.1-0.1,0.1-0.2C137.7,62.1,137.7,62,137.7,61.9z"/>
			<path class="st14" d="M139.8,62.5l0,0.6h-0.2v-0.4h-1.2v-1.6h0.3v1.3h0.7v-1.3h0.3v1.3H139.8z"/>
			<path class="st14" d="M141.4,61.8C141.4,61.9,141.4,61.9,141.4,61.8c0,0.1,0,0.1,0,0.2h-1.1c0,0.2,0,0.3,0.1,0.4
				c0.1,0.1,0.2,0.1,0.4,0.1c0,0,0.1,0,0.1,0c0,0,0.1,0,0.1,0s0.1,0,0.1,0s0.1,0,0.1,0v0.2c-0.1,0-0.2,0-0.2,0.1c-0.1,0-0.2,0-0.3,0
				c-0.1,0-0.2,0-0.3-0.1c-0.1,0-0.2-0.1-0.2-0.2s-0.1-0.2-0.1-0.3s0-0.2,0-0.3c0-0.1,0-0.2,0-0.3c0-0.1,0.1-0.2,0.1-0.3
				c0.1-0.1,0.1-0.1,0.2-0.2c0.1,0,0.2-0.1,0.3-0.1c0.1,0,0.2,0,0.3,0.1c0.1,0,0.2,0.1,0.2,0.1c0.1,0.1,0.1,0.1,0.1,0.2
				S141.4,61.7,141.4,61.8z M141.1,61.8c0-0.1,0-0.1,0-0.2c0-0.1,0-0.1-0.1-0.1c0,0-0.1-0.1-0.1-0.1c-0.1,0-0.1,0-0.2,0
				c-0.1,0-0.1,0-0.2,0c0,0-0.1,0.1-0.1,0.1s-0.1,0.1-0.1,0.2c0,0.1,0,0.1,0,0.2C140.3,61.8,141.1,61.8,141.1,61.8z"/>
			<path class="st14" d="M143.1,62.7c-0.1,0-0.1,0-0.2,0.1c-0.1,0-0.1,0-0.2,0c-0.2,0-0.4-0.1-0.6-0.2c-0.1-0.1-0.2-0.3-0.2-0.6
				c0-0.1,0-0.2,0.1-0.3c0-0.1,0.1-0.2,0.2-0.3s0.2-0.1,0.2-0.2s0.2-0.1,0.3-0.1c0.1,0,0.2,0,0.2,0s0.1,0,0.2,0.1v0.3
				c-0.1,0-0.1-0.1-0.2-0.1s-0.1,0-0.2,0c-0.1,0-0.1,0-0.2,0c-0.1,0-0.1,0.1-0.2,0.1c0,0-0.1,0.1-0.1,0.2c0,0.1,0,0.2,0,0.2
				c0,0.2,0,0.3,0.1,0.4c0.1,0.1,0.2,0.1,0.4,0.1c0.1,0,0.1,0,0.2,0c0.1,0,0.1,0,0.2-0.1L143.1,62.7L143.1,62.7z"/>
			<path class="st14" d="M144.8,62.7c-0.1,0-0.1,0-0.2,0.1c-0.1,0-0.1,0-0.2,0c-0.2,0-0.4-0.1-0.6-0.2c-0.1-0.1-0.2-0.3-0.2-0.6
				c0-0.1,0-0.2,0.1-0.3c0-0.1,0.1-0.2,0.2-0.3s0.2-0.1,0.2-0.2s0.2-0.1,0.3-0.1c0.1,0,0.2,0,0.2,0s0.1,0,0.2,0.1v0.3
				c-0.1,0-0.1-0.1-0.2-0.1s-0.1,0-0.2,0c-0.1,0-0.1,0-0.2,0c-0.1,0-0.1,0.1-0.2,0.1c0,0-0.1,0.1-0.1,0.2c0,0.1,0,0.2,0,0.2
				c0,0.2,0,0.3,0.1,0.4c0.1,0.1,0.2,0.1,0.4,0.1c0.1,0,0.1,0,0.2,0c0.1,0,0.1,0,0.2-0.1L144.8,62.7L144.8,62.7z"/>
		</g>
		<polygon class="st3" points="194.4,65.8 173.8,65.8 177.3,62 173.8,58.4 194.4,58.4 197.8,62 		"/>
		<g>
			<rect x="180" y="60.5" class="st13" width="12.7" height="4.1"/>
			<path class="st14" d="M181.6,62.7h-0.3v-1.8h-0.8v1.8h-0.3v-2h1.4V62.7z"/>
			<path class="st14" d="M183.4,61.9c0,0.1,0,0.3-0.1,0.4c0,0.1-0.1,0.2-0.2,0.3c-0.1,0.1-0.1,0.1-0.2,0.2c-0.1,0-0.2,0.1-0.3,0.1
				c-0.1,0-0.1,0-0.1,0c0,0-0.1,0-0.1,0v0.7H182v-2.2h0.2l0,0.3c0.1-0.1,0.2-0.2,0.2-0.2s0.2-0.1,0.3-0.1c0.1,0,0.2,0,0.2,0.1
				c0.1,0,0.1,0.1,0.2,0.2s0.1,0.2,0.1,0.2C183.4,61.7,183.4,61.8,183.4,61.9z M183.1,61.9c0-0.1,0-0.2,0-0.2c0-0.1,0-0.1-0.1-0.2
				c0,0-0.1-0.1-0.1-0.1c0,0-0.1,0-0.1,0c0,0-0.1,0-0.1,0c0,0-0.1,0-0.1,0.1c0,0-0.1,0.1-0.1,0.1c0,0-0.1,0.1-0.1,0.2v0.8
				c0.1,0,0.1,0,0.2,0s0.1,0,0.2,0c0.1,0,0.3,0,0.3-0.1S183.1,62.1,183.1,61.9z"/>
			<path class="st14" d="M185.1,61.9c0,0.1,0,0.2-0.1,0.3c0,0.1-0.1,0.2-0.1,0.3c-0.1,0.1-0.1,0.1-0.2,0.2c-0.1,0-0.2,0.1-0.3,0.1
				c-0.1,0-0.2,0-0.3-0.1s-0.2-0.1-0.2-0.2s-0.1-0.2-0.1-0.3s0-0.2,0-0.3c0-0.1,0-0.2,0.1-0.3c0-0.1,0.1-0.2,0.1-0.3
				c0.1-0.1,0.1-0.1,0.2-0.2c0.1,0,0.2-0.1,0.3-0.1c0.1,0,0.2,0,0.3,0.1c0.1,0,0.2,0.1,0.2,0.2c0.1,0.1,0.1,0.2,0.1,0.3
				S185.1,61.8,185.1,61.9z M184.9,61.9c0-0.1,0-0.2,0-0.3c0-0.1-0.1-0.1-0.1-0.2c0,0-0.1-0.1-0.1-0.1c-0.1,0-0.1,0-0.2,0
				c-0.1,0-0.1,0-0.2,0c-0.1,0-0.1,0.1-0.1,0.1s-0.1,0.1-0.1,0.2s0,0.1,0,0.2c0,0.1,0,0.2,0,0.3s0.1,0.1,0.1,0.2
				c0,0,0.1,0.1,0.1,0.1s0.1,0,0.2,0c0.1,0,0.1,0,0.2,0c0.1,0,0.1-0.1,0.1-0.1s0.1-0.1,0.1-0.2C184.9,62.1,184.9,62,184.9,61.9z"/>
			<path class="st14" d="M187,62.5l0,0.6h-0.2v-0.4h-1.2v-1.6h0.3v1.3h0.7v-1.3h0.3v1.3H187z"/>
			<path class="st14" d="M188.6,61.8C188.6,61.9,188.6,61.9,188.6,61.8c0,0.1,0,0.1,0,0.2h-1.1c0,0.2,0,0.3,0.1,0.4
				c0.1,0.1,0.2,0.1,0.4,0.1c0,0,0.1,0,0.1,0c0,0,0.1,0,0.1,0s0.1,0,0.1,0s0.1,0,0.1,0v0.2c-0.1,0-0.2,0-0.2,0.1c-0.1,0-0.2,0-0.3,0
				c-0.1,0-0.2,0-0.3-0.1c-0.1,0-0.2-0.1-0.2-0.2s-0.1-0.2-0.1-0.3s0-0.2,0-0.3c0-0.1,0-0.2,0-0.3c0-0.1,0.1-0.2,0.1-0.3
				c0.1-0.1,0.1-0.1,0.2-0.2c0.1,0,0.2-0.1,0.3-0.1c0.1,0,0.2,0,0.3,0.1c0.1,0,0.2,0.1,0.2,0.1c0.1,0.1,0.1,0.1,0.1,0.2
				S188.6,61.7,188.6,61.8z M188.3,61.8c0-0.1,0-0.1,0-0.2c0-0.1,0-0.1-0.1-0.1c0,0-0.1-0.1-0.1-0.1c-0.1,0-0.1,0-0.2,0
				c-0.1,0-0.1,0-0.2,0c0,0-0.1,0.1-0.1,0.1s-0.1,0.1-0.1,0.2c0,0.1,0,0.1,0,0.2C187.5,61.8,188.3,61.8,188.3,61.8z"/>
			<path class="st14" d="M190.2,62.7c-0.1,0-0.1,0-0.2,0.1c-0.1,0-0.1,0-0.2,0c-0.2,0-0.4-0.1-0.6-0.2c-0.1-0.1-0.2-0.3-0.2-0.6
				c0-0.1,0-0.2,0.1-0.3c0-0.1,0.1-0.2,0.2-0.3s0.2-0.1,0.2-0.2s0.2-0.1,0.3-0.1c0.1,0,0.2,0,0.2,0s0.1,0,0.2,0.1v0.3
				c-0.1,0-0.1-0.1-0.2-0.1s-0.1,0-0.2,0c-0.1,0-0.1,0-0.2,0c-0.1,0-0.1,0.1-0.2,0.1c0,0-0.1,0.1-0.1,0.2c0,0.1,0,0.2,0,0.2
				c0,0.2,0,0.3,0.1,0.4c0.1,0.1,0.2,0.1,0.4,0.1c0.1,0,0.1,0,0.2,0c0.1,0,0.1,0,0.2-0.1L190.2,62.7L190.2,62.7z"/>
			<path class="st14" d="M192,62.7c-0.1,0-0.1,0-0.2,0.1c-0.1,0-0.1,0-0.2,0c-0.2,0-0.4-0.1-0.6-0.2c-0.1-0.1-0.2-0.3-0.2-0.6
				c0-0.1,0-0.2,0.1-0.3c0-0.1,0.1-0.2,0.2-0.3s0.2-0.1,0.2-0.2s0.2-0.1,0.3-0.1c0.1,0,0.2,0,0.2,0s0.1,0,0.2,0.1v0.3
				c-0.1,0-0.1-0.1-0.2-0.1s-0.1,0-0.2,0c-0.1,0-0.1,0-0.2,0c-0.1,0-0.1,0.1-0.2,0.1c0,0-0.1,0.1-0.1,0.2c0,0.1,0,0.2,0,0.2
				c0,0.2,0,0.3,0.1,0.4c0.1,0.1,0.2,0.1,0.4,0.1c0.1,0,0.1,0,0.2,0c0.1,0,0.1,0,0.2-0.1L192,62.7L192,62.7z"/>
		</g>
		<line class="st6" x1="212.6" y1="39.4" x2="222.2" y2="62"/>
		<g>
			<rect x="155.4" y="60.4" class="st13" width="16.5" height="2.8"/>
			<path class="st14" d="M159.1,62.6h-0.3v-1.8H158v1.8h-0.3v-2h1.4V62.6z"/>
			<path class="st14" d="M160.8,61.8c0,0.1,0,0.3-0.1,0.4c0,0.1-0.1,0.2-0.2,0.3c-0.1,0.1-0.1,0.1-0.2,0.2c-0.1,0-0.2,0.1-0.3,0.1
				c-0.1,0-0.1,0-0.1,0c0,0-0.1,0-0.1,0v0.7h-0.3V61h0.2l0,0.3c0.1-0.1,0.2-0.2,0.2-0.2s0.2-0.1,0.3-0.1c0.1,0,0.2,0,0.2,0.1
				c0.1,0,0.1,0.1,0.2,0.2s0.1,0.2,0.1,0.2C160.8,61.6,160.8,61.7,160.8,61.8z M160.6,61.8c0-0.1,0-0.2,0-0.2c0-0.1,0-0.1-0.1-0.2
				c0,0-0.1-0.1-0.1-0.1c0,0-0.1,0-0.1,0c0,0-0.1,0-0.1,0c0,0-0.1,0-0.1,0.1c0,0-0.1,0.1-0.1,0.1c0,0-0.1,0.1-0.1,0.2v0.8
				c0.1,0,0.1,0,0.2,0s0.1,0,0.2,0c0.1,0,0.3,0,0.3-0.1S160.6,62,160.6,61.8z"/>
			<path class="st14" d="M162.6,61.8c0,0.1,0,0.2-0.1,0.3c0,0.1-0.1,0.2-0.1,0.3c-0.1,0.1-0.1,0.1-0.2,0.2c-0.1,0-0.2,0.1-0.3,0.1
				c-0.1,0-0.2,0-0.3-0.1s-0.2-0.1-0.2-0.2s-0.1-0.2-0.1-0.3s0-0.2,0-0.3c0-0.1,0-0.2,0.1-0.3c0-0.1,0.1-0.2,0.1-0.3
				c0.1-0.1,0.1-0.1,0.2-0.2c0.1,0,0.2-0.1,0.3-0.1c0.1,0,0.2,0,0.3,0.1c0.1,0,0.2,0.1,0.2,0.2c0.1,0.1,0.1,0.2,0.1,0.3
				S162.6,61.7,162.6,61.8z M162.3,61.8c0-0.1,0-0.2,0-0.3c0-0.1-0.1-0.1-0.1-0.2c0,0-0.1-0.1-0.1-0.1c-0.1,0-0.1,0-0.2,0
				c-0.1,0-0.1,0-0.2,0c-0.1,0-0.1,0.1-0.1,0.1s-0.1,0.1-0.1,0.2s0,0.1,0,0.2c0,0.1,0,0.2,0,0.3s0.1,0.1,0.1,0.2
				c0,0,0.1,0.1,0.1,0.1s0.1,0,0.2,0c0.1,0,0.1,0,0.2,0c0.1,0,0.1-0.1,0.1-0.1s0.1-0.1,0.1-0.2C162.3,62,162.3,61.9,162.3,61.8z"/>
			<path class="st14" d="M164.5,62.4l0,0.6h-0.2v-0.4h-1.1V63h-0.2l0-0.6h0c0,0,0.1,0,0.1,0s0.1,0,0.1-0.1c0,0,0.1-0.1,0.1-0.1
				s0-0.1,0.1-0.2c0-0.1,0-0.2,0.1-0.4c0-0.1,0-0.3,0-0.5h1v1.3C164.2,62.4,164.5,62.4,164.5,62.4z M164,61.3h-0.4
				c0,0.2,0,0.3,0,0.5s0,0.2-0.1,0.3c0,0.1,0,0.2-0.1,0.2c0,0.1-0.1,0.1-0.1,0.1h0.7L164,61.3L164,61.3z"/>
			<path class="st14" d="M166.1,61l-0.5,1.4c-0.1,0.1-0.1,0.3-0.2,0.4c-0.1,0.1-0.1,0.2-0.2,0.3c-0.1,0.1-0.1,0.1-0.2,0.1
				s-0.2,0-0.3,0c0,0-0.1,0-0.1,0c0,0,0,0-0.1,0V63c0,0,0,0,0.1,0c0,0,0.1,0,0.1,0c0.1,0,0.1,0,0.1,0c0,0,0.1,0,0.1-0.1
				c0,0,0.1-0.1,0.1-0.1s0.1-0.1,0.1-0.2l-0.6-1.6h0.3l0.4,1l0.1,0.2l0.1-0.3l0.4-1L166.1,61L166.1,61z"/>
			<path class="st14" d="M167.9,62.6h-0.4l-0.7-0.8v0.8h-0.3V61h0.3v0.7l0.7-0.7h0.4l-0.7,0.7L167.9,62.6z"/>
			<path class="st14" d="M169.6,61.3H169v1.3h-0.3v-1.3h-0.6V61h1.5V61.3z"/>
		</g>
		<line class="st6" x1="163.7" y1="40.3" x2="127.2" y2="58.4"/>
		<line class="st29" x1="173.8" y1="65.9" x2="107.5" y2="75.8"/>
		<line class="st30" x1="91" y1="70.3" x2="256.4" y2="70.3"/>
		<line class="st30" x1="91" y1="44.7" x2="256.4" y2="44.7"/>
		<line class="st30" x1="91" y1="85.4" x2="256.4" y2="85.4"/>
		<line class="st31" x1="107.2" y1="66.2" x2="107.2" y2="91.2"/>
		<polygon class="st32" points="93.4,74.7 105.7,74.7 104.1,82.4 92,82.4 		"/>
		<g>
			<rect x="92.2" y="76.8" class="st13" width="13.9" height="3.1"/>
			<path class="st33" d="M97.2,78.4c0,0.1,0,0.2-0.1,0.3s-0.1,0.1-0.2,0.2s-0.2,0.1-0.3,0.1s-0.2,0-0.3,0h-0.5v-2h0.6
				c0.5,0,0.7,0.2,0.7,0.5c0,0.1,0,0.2-0.1,0.3c-0.1,0.1-0.1,0.1-0.3,0.2c0.1,0,0.1,0,0.2,0.1c0,0,0.1,0.1,0.1,0.1s0.1,0.1,0.1,0.1
				C97.2,78.3,97.2,78.3,97.2,78.4z M96.9,77.5c0,0,0-0.1,0-0.1c0,0,0-0.1-0.1-0.1c0,0-0.1,0-0.1-0.1s-0.1,0-0.2,0h-0.3v0.6h0.3
				c0.1,0,0.1,0,0.2,0c0.1,0,0.1,0,0.1-0.1s0.1-0.1,0.1-0.1C96.9,77.6,96.9,77.5,96.9,77.5z M96.9,78.4c0-0.1,0-0.1,0-0.1
				c0,0-0.1-0.1-0.1-0.1c0,0-0.1-0.1-0.2-0.1c-0.1,0-0.1,0-0.2,0h-0.3v0.7h0.3c0.2,0,0.3,0,0.4-0.1C96.9,78.6,96.9,78.5,96.9,78.4z"
				/>
			<path class="st33" d="M99,79h-0.4l-0.4-0.6L97.9,79h-0.3l0.6-0.8l-0.6-0.8h0.3l0.4,0.6l0.4-0.6H99l-0.6,0.8L99,79z"/>
			<path class="st33" d="M100.7,78.2c0,0.1,0,0.2-0.1,0.3c0,0.1-0.1,0.2-0.1,0.3c-0.1,0.1-0.1,0.1-0.2,0.2c-0.1,0-0.2,0.1-0.3,0.1
				c-0.1,0-0.2,0-0.3-0.1c-0.1,0-0.2-0.1-0.2-0.2s-0.1-0.2-0.1-0.3s0-0.2,0-0.3c0-0.1,0-0.2,0.1-0.3c0-0.1,0.1-0.2,0.1-0.3
				s0.1-0.1,0.2-0.2c0.1,0,0.2-0.1,0.3-0.1c0.1,0,0.2,0,0.3,0.1c0.1,0,0.2,0.1,0.2,0.2s0.1,0.2,0.1,0.3S100.7,78.1,100.7,78.2z
				 M100.5,78.2c0-0.1,0-0.2,0-0.3c0-0.1-0.1-0.1-0.1-0.2c0,0-0.1-0.1-0.1-0.1c-0.1,0-0.1,0-0.2,0c-0.1,0-0.2,0-0.2,0
				c-0.1,0-0.1,0.1-0.1,0.1s-0.1,0.1-0.1,0.2s0,0.1,0,0.2c0,0.1,0,0.2,0,0.3c0,0.1,0.1,0.1,0.1,0.2c0,0,0.1,0.1,0.1,0.1s0.1,0,0.2,0
				c0.1,0,0.1,0,0.2,0c0.1,0,0.1-0.1,0.1-0.1s0.1-0.1,0.1-0.2C100.5,78.4,100.5,78.3,100.5,78.2z"/>
			<path class="st33" d="M102.6,78.8l0,0.6h-0.2V79h-1.1v0.4h-0.2l0-0.6h0c0,0,0.1,0,0.1,0c0,0,0.1,0,0.1-0.1c0,0,0.1-0.1,0.1-0.1
				s0-0.1,0.1-0.2c0-0.1,0-0.2,0.1-0.4s0-0.3,0-0.5h1v1.3H102.6z M102.1,77.7h-0.4c0,0.2,0,0.3,0,0.5s0,0.2-0.1,0.3
				c0,0.1,0,0.2-0.1,0.2c0,0.1-0.1,0.1-0.1,0.1h0.7V77.7z"/>
		</g>
	</g>
</g>
<rect x="2.7" y="1.9" class="st34" width="78.4" height="153.8"/>
<rect x="10.7" y="15.2" class="st34" width="62.5" height="140.5"/>
<rect x="14.3" y="74" class="st14" width="2.8" height="17"/>
<rect x="8.7" y="15.2" class="st14" width="1.9" height="140.5"/>
<rect x="8.7" y="15.2" class="st14" width="64.4" height="3.1"/>
<rect x="70.8" y="15.2" class="st14" width="2.4" height="140.5"/>
<g>
	<path class="st35" d="M213.8,107.9h4.2c1.6,0,2.9-1.3,2.9-2.9V87.9c0-1.6-1.3-2.9-2.9-2.9h-4.2c-1.6,0-2.9,1.3-2.9,2.9V105
		C210.9,106.6,212.2,107.9,213.8,107.9z"/>
	<g>
		<path class="st36" d="M192.8,85.2c0.5-1.2,0.2-2.4-0.6-2.8c0,0-0.3-0.2-0.8-0.5c-0.5-0.3-1.2-0.8-2-1.5c-0.7-0.7-1.6-1.6-2.3-2.7
			c-0.7-1.1-1.2-2.3-1.6-3.7c-0.7-2.7-0.6-5.6-0.1-7.7c0.2-1,0.5-1.9,0.7-2.5c0.2-0.6,0.4-0.9,0.4-0.9l-4.2-1.8c0,0-0.2,0.4-0.5,1.1
			c-0.3,0.7-0.6,1.8-0.9,3.1c-0.6,2.6-0.8,6.3,0.1,9.8c0.5,1.8,1.2,3.5,2.1,4.9c0.9,1.5,2,2.7,3,3.6c1,0.9,2,1.6,2.6,2
			c0.7,0.4,1.1,0.6,1.1,0.6C191,86.9,192.3,86.4,192.8,85.2z"/>
		<path class="st37" d="M187.1,64.5c0,0,0.1-0.2,0.2-0.4c0.1-0.3,0.3-0.7,0.5-1.1c0.4-0.9,1.1-2.1,1.9-3.1c0.8-1.1,1.8-2,2.5-2.6
			c0.4-0.3,0.7-0.5,0.9-0.7c0.2-0.1,0.4-0.2,0.4-0.2c0.5-0.3,0.8-0.9,0.9-1.6c0.1-0.7,0.1-1.7-0.3-2.5c-0.3-0.9-0.9-1.6-1.7-1.9
			c-0.8-0.4-1.7-0.3-2.5,0.2c0,0-0.2,0.1-0.6,0.4c-0.4,0.2-0.9,0.6-1.4,1c-1.1,0.9-2.6,2.2-3.7,3.8c-1.2,1.5-2.1,3.1-2.7,4.4
			c-0.3,0.6-0.5,1.2-0.7,1.6c-0.1,0.4-0.2,0.6-0.2,0.6L187.1,64.5z"/>
		<path class="st38" d="M188.5,61.7l-6-3.5c0,0-0.3,0.5-0.5,1c-0.2,0.5-0.5,1-0.5,1l6.3,2.9c0,0,0.2-0.4,0.3-0.7
			C188.3,62,188.5,61.7,188.5,61.7z"/>
	</g>
	<path class="st39" d="M194.6,135c0-1.4,1-2.6,2.4-2.6l0,0c1.3,0,2.4,1.1,2.4,2.5l0.2,18c0,1.4-1,2.6-2.4,2.6l0,0
		c-1.3,0-2.4-1.1-2.4-2.5L194.6,135z"/>
	<path class="st40" d="M201.9,150.3l-0.8-61.9c0-2.3-1.8-4.1-3.9-4l-1.7,0c-2.1,0-3.8,1.9-3.8,4.1l0.8,61.9L201.9,150.3z"/>
	
		<rect x="192.5" y="146.5" transform="matrix(0.9999 -1.250027e-002 1.250027e-002 0.9999 -1.8225 2.476)" class="st41" width="9.4" height="1"/>
	
		<rect x="192.4" y="143.4" transform="matrix(0.9999 -1.260026e-002 1.260026e-002 0.9999 -1.7981 2.4952)" class="st41" width="9.4" height="1"/>
	<path class="st37" d="M199,48.7c-2.8,0.3-5.6,0.7-8.2,1.4l0.8,12.1l0,25.7H216l0-25.7l0.8-12.1c-4.2-1.1-8.8-1.7-13-1.7L199,48.7z"
		/>
	<path class="st36" d="M199,48.7l4.8-0.2c1.4,0,2.9,0.1,4.3,0.2c-0.6,2-2.5,3.4-4.7,3.4c-2.2,0-4-1.4-4.7-3.4
		C198.9,48.7,198.9,48.7,199,48.7z"/>
	<path class="st41" d="M209,58.2v4.8h-2.6v-4.8c0-3.5,1.2-6.7,3.1-9.4c1,0.1,2,0.2,3,0.4C210.3,51.6,209,54.7,209,58.2z"/>
	<path class="st40" d="M191.7,89.8c0,4.1,3.3,7.4,7.4,7.4h9.6c4.1,0,7.4-3.3,7.4-7.4l0-11.8h-24.4V89.8z"/>
	<path class="st41" d="M209.9,97c-3.5-0.6-6.1-3.6-6.1-7.3l0-11.8H216l0,11.8C216,93.4,213.4,96.4,209.9,97z"/>
	<g>
		<g>
			<path class="st36" d="M203.8,36.8c1.5,0,2.8,1.2,2.8,2.7v9.2l-4.4,2.8l-1.1-2.8v-9.2C201.1,38,202.3,36.8,203.8,36.8z"/>
		</g>
	</g>
	<path class="st36" d="M192.7,25.3v11.9c0.3,2.9,1.6,5.5,3.7,7.3c0.3,0.1,4.9,0,5,0c5.1,0,9.2-4.1,9.2-9.2V25.3H192.7z"/>
	<g>
		<g>
			<g>
				<path class="st36" d="M211.5,32.3c1.4,0,2.6,1.1,2.6,2.6c0,1.4-1.1,2.6-2.6,2.6h-4.2l0.2-5.1C207.5,32.3,211.5,32.3,211.5,32.3z
					"/>
			</g>
		</g>
	</g>
	<path class="st42" d="M212.1,23.6v1.5c0,0,0,0,0,0.1v7.1h-1v1.8c0,0.8-0.7,1.5-1.5,1.5c-0.8,0-1.5-0.7-1.5-1.5V33
		c-0.2-1.1-1.2-2-2.4-2v-3c-0.2-1.1-1.2-2-2.4-2v0h-10.4c-1.7,0-3.1-1.3-3.2-2.9h4.2l1.1-4.4h10c2.4,0,4.5,1.1,5.8,2.9L212.1,23.6z"
		/>
	<g>
		<circle class="st42" cx="195.5" cy="32.1" r="0.8"/>
		<circle class="st42" cx="201.6" cy="32.1" r="0.8"/>
	</g>
	<path class="st43" d="M201.5,38.1c0,1.6-1.3,3-3,3c-1.6,0-3-1.3-3-3H201.5z"/>
	<path class="st40" d="M199.2,151.5h-6.4c-0.1,1.2-1.1,2.1-2.4,2.1l0,4.7h11.1v-4.4C201.6,152.5,200.6,151.5,199.2,151.5z"/>
	<path class="st41" d="M194.2,158.3v-1.7c0-1.7-1.4-3-3-3h-1.4c-1.7,0-3,1.4-3,3v1.7H194.2z"/>
	<path class="st41" d="M201.6,153.6c0,0.1,0,0.2,0,0.3v4.4h-3v-1.7C198.6,154.9,199.9,153.6,201.6,153.6z"/>
	<path class="st40" d="M197.1,151.6v-0.5c0-0.8-0.6-1.4-1.4-1.4h-1.5c-0.8,0-1.4,0.6-1.4,1.4v0.5H197.1z"/>
	<rect x="186.8" y="156.7" class="st40" width="14.8" height="1.6"/>
	<polygon class="st40" points="194.5,62.9 209,62.9 213.1,79.3 194.5,79.3 	"/>
	<path class="st39" d="M210.2,134.8c-0.1-1.4,1-2.6,2.3-2.6l0,0c1.3-0.1,2.4,1,2.5,2.4c0.3,6,0.5,11.9,0.9,17.9
		c0.1,1.4-0.9,2.6-2.3,2.7l0,0c-1.3,0.1-2.5-1-2.5-2.4C210.8,146.8,210.5,140.8,210.2,134.8z"/>
	<path class="st41" d="M218,149.8c-1.1-20.4-1.7-41-2.2-61.5c0-2.2-1.8-4-3.9-4l-1.7,0c-2.1,0-3.8,1.9-3.8,4.2
		c0.5,20.6,1.1,41.2,2.2,61.8L218,149.8z"/>
	<polygon class="st40" points="208.5,147.5 217.9,147 217.8,146 208.5,146.5 	"/>
	<polygon class="st40" points="208.4,144.4 217.7,144 217.7,142.9 208.3,143.4 	"/>
	<path class="st41" d="M209,62.9l4.2,16.4H204c-0.1-0.7-0.2-1.4-0.2-2.1l0-14.3L209,62.9L209,62.9z"/>
	<path class="st40" d="M215.4,151.5h-6.4c-0.1,1.2-1.1,2.1-2.4,2.1l0,4.7h11.1v-4.4C217.7,152.5,216.7,151.5,215.4,151.5z"/>
	<path class="st41" d="M210.3,158.3v-1.7c0-1.7-1.4-3-3-3h-1.4c-1.7,0-3,1.4-3,3v1.7H210.3z"/>
	<path class="st41" d="M217.7,153.6c0,0.1,0,0.2,0,0.3v4.4h-3v-1.7C214.7,154.9,216,153.6,217.7,153.6z"/>
	<path class="st40" d="M213.2,151.6v-0.5c0-0.8-0.6-1.4-1.4-1.4h-1.5c-0.8,0-1.4,0.6-1.4,1.4v0.5H213.2z"/>
	<rect x="202.9" y="156.7" class="st40" width="14.8" height="1.6"/>
	<g>
		<path class="st44" d="M206.4,61.1h2.6v1.9h-2.6V61.1 M205.6,60.3v0.7v1.9v0.7h0.7h2.6h0.7v-0.7v-1.9v-0.7H209h-2.6H205.6
			L205.6,60.3z"/>
	</g>
	<path class="st45" d="M195.7,66.3v5.2c0,2.7,2.2,4.9,4.9,4.9c2.7,0,4.9-2.2,4.9-4.9v-5.2H195.7z"/>
	<line class="st45" x1="203.6" y1="68.4" x2="195.7" y2="68.4"/>
	<path class="st45" d="M212.2,79.9v4c0,2.1,1.7,3.8,3.8,3.8"/>
	<line class="st45" x1="216" y1="79.9" x2="191.7" y2="79.9"/>
	<line class="st46" x1="201.2" y1="98.7" x2="197.3" y2="98.8"/>
	<line class="st46" x1="201.2" y1="101.3" x2="197.3" y2="101.3"/>
	<line class="st47" x1="211.1" y1="152" x2="209" y2="152"/>
	<line class="st47" x1="210.3" y1="153.2" x2="208.2" y2="153.2"/>
	<line class="st47" x1="194.8" y1="152" x2="192.7" y2="152"/>
	<line class="st47" x1="194" y1="153.2" x2="191.9" y2="153.2"/>
	<path class="st41" d="M197.1,51.8V65h-2.6V51.8c0-0.9,0.2-1.8,0.5-2.6c1.1-0.2,2.2-0.4,3.3-0.5C197.5,49.5,197.1,50.6,197.1,51.8z"
		/>
	<g>
		<path class="st44" d="M194.5,61.1h2.6v1.9h-2.6V61.1 M193.7,60.3v0.7v1.9v0.7h0.7h2.6h0.7v-0.7v-1.9v-0.7h-0.7h-2.6H193.7
			L193.7,60.3z"/>
	</g>
	<path class="st36" d="M189.7,86.1c0.4,0.5,1.6,1,2.2,0.9l0.3,0c0.7-0.1,1.8-0.1,2.5,0.1l0.6,0.1c0.7,0.2,1.4-0.3,1.6-1.1l0.1-0.4
		c0.2-0.8-0.1-1.8-0.5-2.3l-1.2-1.3c-0.5-0.5-1.5-0.8-2.1-0.7c0,0-0.4,0-1.7,0.2C189.1,82,188.5,84.6,189.7,86.1z"/>
	<g>
		
			<rect x="215.2" y="93.7" transform="matrix(0.8577 -0.5141 0.5141 0.8577 -21.9698 125.8028)" class="st48" width="2.1" height="17.9"/>
		<path class="st37" d="M232.1,94.8l-9.3,5.2c-2,1.2,0,6.9,1,8.6l-2.3,1.4l-9.2-15.3l2.3-1.4c1,1.7,5.2,6.1,7.1,4.9l9-5.7
			c1.2-0.8,2.2-0.7,2.6,0C233.7,93.1,233.4,94.1,232.1,94.8z"/>
	</g>
	<path class="st36" d="M227.7,99.8c0.8-0.2,1.6-0.9,1.8-1.5l0.6-1.7c0.2-0.7,0.1-1.7-0.3-2.2l-0.8-1.1c-0.4-0.6-1.6-4.1-1.6-4.1
		l-3.5,1.1c0,0-0.1,1.3-0.2,3.4c0,0.7,0.1,1.7,0.5,2.3l0.2,0.2c0.4,0.6,0.9,1.6,1.1,2.2l0.2,0.6c0.2,0.7,0.9,1.1,1.7,0.9L227.7,99.8
		z"/>
	<g>
		<path class="st36" d="M226.1,94c-1.3,0.1-2.3-0.7-2.4-1.8c0,0-0.1-1.7-0.4-4.3c-0.3-2.6-0.7-5.9-1.3-9.3c-0.6-3.4-1.4-6.7-2.1-9.1
			c-0.3-1.2-0.7-2.2-0.9-2.9c-0.2-0.7-0.4-1.1-0.4-1.1l4.3-1.4c0,0,0.1,0.4,0.4,1.2c0.2,0.7,0.6,1.8,0.9,3.1c0.7,2.6,1.5,6,2.2,9.5
			c0.6,3.5,1.1,7,1.4,9.6c0.3,2.6,0.4,4.4,0.4,4.4C228.3,92.9,227.3,93.9,226.1,94z"/>
		<path class="st37" d="M217.9,67.2c0,0-1-3.2-2.2-6.3c-1.3-3.1-2.8-6.1-2.8-6.1c-0.7-1.4,0-3.2,1.7-4.2c1.7-0.9,3.7-0.5,4.5,1
			c0,0,0.1,0.2,0.3,0.6c0.2,0.4,0.4,0.9,0.7,1.5c0.6,1.2,1.3,2.9,2,4.6c1.4,3.4,2.4,6.9,2.4,6.9L217.9,67.2z"/>
		<polygon class="st38" points="216.7,63.5 223.2,61.1 223.9,63.1 217.3,65.3 		"/>
	</g>
	<path class="st40" d="M220.5,24.6c0-1.2-1-2.2-2.2-2.2h-9.5c-1.2,0-2.2,1-2.2,2.2c0,0.7,0.6,1.3,1.3,1.3h11.3
		C219.9,25.9,220.5,25.3,220.5,24.6z"/>
	<rect x="193.9" y="24.2" class="st40" width="8.3" height="1.8"/>
	<path class="st41" d="M212.1,22.7c0-3.7-3-6.7-6.7-6.7h-6.2c-3.7,0-6.7,3-6.7,6.7V26h1.5v-1.2c0-1.9,1.6-3.5,3.5-3.5h0.9
		c1.9,0,3.5,1.6,3.5,3.5V26h10.1L212.1,22.7L212.1,22.7z"/>
	<line class="st45" x1="211.7" y1="24.3" x2="202.7" y2="24.3"/>
	<path class="st42" d="M194.3,24.1c-1.9-1.1-2.6-3.4-1.7-5.3l4.6,2.7L194.3,24.1z"/>
	<path class="st49" d="M216.9,85c1.7,0,3.1,1.1,3.7,2.6h-4.2c-1.7,0-3.1-1.1-3.7-2.6H216.9z"/>
</g>
</svg>
