<?xml version="1.0" encoding="utf-8"?>
<!-- Generator: Adobe Illustrator 19.2.1, SVG Export Plug-In . SVG Version: 6.00 Build 0)  -->
<svg version="1.1" id="Слой_1" xmlns="http://www.w3.org/2000/svg" xmlns:xlink="http://www.w3.org/1999/xlink" x="0px" y="0px"
	 viewBox="0 0 258.3 141.5" style="enable-background:new 0 0 258.3 141.5;" xml:space="preserve">
<style type="text/css">
	.st0{fill:#F5F6F6;}
	.st1{fill:#B9CEBF;}
	.st2{fill:none;stroke:#B9CEBF;stroke-miterlimit:10;}
	.st3{fill:#EB2227;}
	.st4{fill:#8F8F8E;stroke:#676767;stroke-width:0.3437;stroke-miterlimit:10;}
	.st5{fill:#8F8F8E;}
	.st6{fill:none;stroke:#676767;stroke-width:0.3437;stroke-miterlimit:10;}
	.st7{fill:none;stroke:#676767;stroke-width:0.3437;stroke-miterlimit:10;stroke-dasharray:1.6104,1.6104;}
	.st8{fill:none;stroke:#676767;stroke-width:0.3437;stroke-miterlimit:10;stroke-dasharray:1.8524,1.8524;}
	.st9{fill:none;stroke:#676767;stroke-width:0.3437;stroke-miterlimit:10;stroke-dasharray:2.0634,2.0634;}
	.st10{fill:none;stroke:#676767;stroke-width:0.3437;stroke-miterlimit:10;stroke-dasharray:1.8676,1.8676;}
	.st11{fill:none;stroke:#676767;stroke-width:0.3437;stroke-miterlimit:10;stroke-dasharray:2.0564,2.0564;}
	.st12{fill:none;}
	.st13{fill:#FFFFFF;}
	.st14{fill:none;stroke:#676767;stroke-width:0.3437;stroke-miterlimit:10;stroke-dasharray:1.8528,1.8528;}
	.st15{fill:none;stroke:#676767;stroke-width:0.3437;stroke-miterlimit:10;stroke-dasharray:2.0629,2.0629;}
	.st16{fill:none;stroke:#676767;stroke-width:0.3437;stroke-miterlimit:10;stroke-dasharray:1.8681,1.8681;}
	.st17{fill:none;stroke:#676767;stroke-width:0.3437;stroke-miterlimit:10;stroke-dasharray:1.6105,1.6105;}
	.st18{fill:none;stroke:#676767;stroke-width:0.3437;stroke-miterlimit:10;stroke-dasharray:1.9536,1.9536;}
	.st19{fill:none;stroke:#676767;stroke-width:0.3437;stroke-miterlimit:10;stroke-dasharray:1.9596,1.9596;}
	.st20{fill:none;stroke:#676767;stroke-width:0.3437;stroke-miterlimit:10;stroke-dasharray:1.9415,1.9415;}
	.st21{fill:none;stroke:#676767;stroke-width:0.3437;stroke-miterlimit:10;stroke-dasharray:1.9796,1.9796;}
	.st22{fill:none;stroke:#676767;stroke-width:0.3437;stroke-miterlimit:10;stroke-dasharray:1.9538,1.9538;}
	.st23{fill:none;stroke:#676767;stroke-width:0.3437;stroke-miterlimit:10;stroke-dasharray:1.9591,1.9591;}
	.st24{fill:none;stroke:#676767;stroke-width:0.3437;stroke-miterlimit:10;stroke-dasharray:1.9803,1.9803;}
	.st25{fill:none;stroke:#676767;stroke-width:0.3445;stroke-miterlimit:10;}
	.st26{fill:none;stroke:#929497;stroke-width:0.5294;stroke-miterlimit:10;stroke-dasharray:3.36;}
	.st27{fill:none;stroke:#EB2227;stroke-miterlimit:10;stroke-dasharray:4;}
	.st28{fill:#E7E7E7;stroke:#8F8F8E;stroke-width:0.3187;stroke-miterlimit:10;}
	.st29{fill:#010101;}
	.st30{fill:#F9AD8E;}
	.st31{fill:none;stroke:#F8A687;stroke-width:3.9;stroke-linecap:round;stroke-miterlimit:10;}
	.st32{fill:#3B2518;}
	.st33{fill:#F8A687;}
	.st34{fill:#D05028;}
	.st35{fill:#A97E52;}
	.st36{fill:#852931;}
</style>
<g id="base">
</g>
<g id="plashki">
</g>
<g id="lines">
</g>
<g id="image">
</g>
<g id="_x31_">
</g>
<g id="символы">
</g>
<g id="Layer_1_4_">
</g>
<g>
	<g>
		<g>
			<rect x="1.4" y="4.5" class="st0" width="255.6" height="130.8"/>
			<rect x="1.4" y="4.5" class="st1" width="255.6" height="14.6"/>
			<rect x="1.4" y="120.9" class="st1" width="255.6" height="14.6"/>
			<line class="st2" x1="1.5" y1="5.7" x2="1.5" y2="135.7"/>
			<line class="st2" x1="256.5" y1="5.7" x2="256.5" y2="135.7"/>
		</g>
		<g>
			<polygon class="st3" points="136.4,109.1 102,109.1 107.2,103.5 102,97.9 136.5,97.9 141.6,103.5 			"/>
			<polygon class="st4" points="246.9,109.1 221,109.1 215.9,103.5 221,97.9 246.9,97.9 252,103.5 			"/>
			<polygon class="st3" points="145.2,45.7 114.2,45.7 114.2,34.4 145.3,34.4 150.4,39.7 			"/>
			<g>
				<polygon class="st5" points="183,37.7 157.1,37.7 152,32.6 157.2,26.6 183,26.6 188.2,31.8 				"/>
				<g>
					<polyline class="st6" points="183.6,37.1 183,37.7 182.2,37.7 					"/>
					<line class="st7" x1="180.6" y1="37.7" x2="158.8" y2="37.7"/>
					<polyline class="st6" points="158,37.7 157.1,37.7 156.5,37.1 					"/>
					<line class="st8" x1="155.2" y1="35.8" x2="153.3" y2="33.8"/>
					<polyline class="st6" points="152.6,33.2 152,32.6 152.6,31.9 					"/>
					<line class="st9" x1="153.9" y1="30.3" x2="155.9" y2="28"/>
					<polyline class="st6" points="156.6,27.2 157.2,26.6 158,26.6 					"/>
					<line class="st7" x1="159.6" y1="26.6" x2="181.4" y2="26.6"/>
					<polyline class="st6" points="182.2,26.6 183,26.6 183.6,27.2 					"/>
					<line class="st10" x1="185" y1="28.5" x2="186.9" y2="30.5"/>
					<polyline class="st6" points="187.6,31.2 188.2,31.8 187.6,32.4 					"/>
					<line class="st11" x1="186.3" y1="34" x2="184.3" y2="36.3"/>
				</g>
			</g>
			<polygon class="st3" points="126.1,66 95.1,66 100.3,60.3 95.1,54.8 126.2,54.8 131.3,60.3 			"/>
			<g>
				<rect x="115.8" y="37.7" class="st12" width="32.9" height="4.7"/>
				<path class="st13" d="M118.4,41H118l-0.1-1.9l0-0.7l-0.1,0.4l-0.5,1.2H117l-0.4-1.2l-0.1-0.5l0,0.8l-0.1,1.9H116l0.1-3.1h0.5
					l0.4,1.2l0.1,0.4l0.1-0.4l0.4-1.2h0.5L118.4,41z"/>
				<path class="st13" d="M120.4,41l0-0.3c-0.1,0.1-0.3,0.2-0.4,0.3c-0.1,0.1-0.3,0.1-0.4,0.1c-0.1,0-0.3,0-0.3-0.1
					c-0.1,0-0.2-0.1-0.2-0.1s-0.1-0.1-0.1-0.2s0-0.2,0-0.3c0-0.2,0.1-0.4,0.3-0.6s0.4-0.2,0.8-0.2h0.5v-0.2c0-0.1,0-0.3-0.1-0.3
					c-0.1-0.1-0.2-0.1-0.4-0.1c-0.1,0-0.3,0-0.4,0c-0.1,0-0.3,0.1-0.4,0.1v-0.4c0.1,0,0.1,0,0.2-0.1s0.1,0,0.2,0c0.1,0,0.1,0,0.2,0
					c0.1,0,0.2,0,0.2,0c0.1,0,0.3,0,0.4,0c0.1,0,0.2,0.1,0.3,0.1c0.1,0.1,0.1,0.1,0.2,0.2c0,0.1,0.1,0.2,0.1,0.3V41L120.4,41
					L120.4,41z M120.3,40h-0.5c-0.1,0-0.2,0-0.3,0s-0.1,0-0.2,0.1s-0.1,0.1-0.1,0.1c0,0.1,0,0.1,0,0.2c0,0,0,0.1,0,0.1
					c0,0,0,0.1,0.1,0.1c0,0,0.1,0.1,0.1,0.1c0.1,0,0.1,0,0.2,0c0.1,0,0.2,0,0.3-0.1s0.2-0.1,0.4-0.3L120.3,40L120.3,40z"/>
				<path class="st13" d="M123.6,41h-0.6l-1.1-1.3V41h-0.4v-2.4h0.4v1.1l1.1-1.1h0.5l-1.1,1.1L123.6,41z"/>
				<path class="st13" d="M126.1,39.8c0,0.2,0,0.4-0.1,0.6s-0.1,0.3-0.2,0.4c-0.1,0.1-0.2,0.2-0.4,0.2s-0.3,0.1-0.5,0.1
					c-0.1,0-0.1,0-0.2,0s-0.1,0-0.2,0v1h-0.4v-3.3h0.4l0,0.4c0.1-0.2,0.2-0.3,0.4-0.3s0.3-0.1,0.4-0.1c0.1,0,0.3,0,0.4,0.1
					s0.2,0.1,0.3,0.2c0.1,0.1,0.1,0.2,0.2,0.4C126.1,39.5,126.1,39.6,126.1,39.8z M125.7,39.8c0-0.1,0-0.2,0-0.3
					c0-0.1,0-0.2-0.1-0.3s-0.1-0.1-0.2-0.2c-0.1,0-0.1-0.1-0.2-0.1c-0.1,0-0.1,0-0.2,0c-0.1,0-0.1,0-0.2,0.1c-0.1,0-0.1,0.1-0.2,0.2
					c-0.1,0.1-0.1,0.1-0.2,0.2v1.2c0.1,0,0.2,0.1,0.2,0.1s0.2,0,0.2,0c0.2,0,0.4-0.1,0.5-0.2S125.7,40.1,125.7,39.8z"/>
				<path class="st13" d="M128.8,39.8c0,0.2,0,0.4-0.1,0.5s-0.1,0.3-0.2,0.4c-0.1,0.1-0.2,0.2-0.4,0.3c-0.1,0.1-0.3,0.1-0.5,0.1
					c-0.2,0-0.3,0-0.5-0.1c-0.1-0.1-0.2-0.1-0.3-0.2s-0.2-0.2-0.2-0.4c0-0.2-0.1-0.3-0.1-0.5c0-0.2,0-0.4,0.1-0.5s0.1-0.3,0.2-0.4
					s0.2-0.2,0.4-0.3c0.1-0.1,0.3-0.1,0.5-0.1c0.2,0,0.3,0,0.5,0.1c0.1,0.1,0.2,0.1,0.3,0.2c0.1,0.1,0.2,0.2,0.2,0.4
					C128.8,39.5,128.8,39.6,128.8,39.8z M128.4,39.8c0-0.1,0-0.3,0-0.4s-0.1-0.2-0.1-0.3c-0.1-0.1-0.1-0.1-0.2-0.2
					c-0.1,0-0.2-0.1-0.3-0.1c-0.1,0-0.2,0-0.3,0.1c-0.1,0-0.2,0.1-0.2,0.2c-0.1,0.1-0.1,0.2-0.1,0.3c0,0.1,0,0.2,0,0.3
					c0,0.1,0,0.3,0,0.4s0.1,0.2,0.1,0.3c0.1,0.1,0.1,0.1,0.2,0.2c0.1,0,0.2,0.1,0.3,0.1c0.1,0,0.2,0,0.3-0.1c0.1,0,0.2-0.1,0.2-0.2
					s0.1-0.2,0.1-0.3C128.4,40.1,128.4,40,128.4,39.8z"/>
				<path class="st13" d="M131.3,41h-0.4v-2h-1.1v2h-0.4v-2.4h1.9L131.3,41L131.3,41z"/>
				<path class="st13" d="M134.1,39.8c0,0.2,0,0.4-0.1,0.6c-0.1,0.2-0.1,0.3-0.2,0.4c-0.1,0.1-0.2,0.2-0.4,0.2s-0.3,0.1-0.5,0.1
					c-0.1,0-0.1,0-0.2,0s-0.1,0-0.2,0v1h-0.4v-3.3h0.4l0,0.4c0.1-0.2,0.2-0.3,0.4-0.3s0.3-0.1,0.4-0.1c0.1,0,0.3,0,0.4,0.1
					s0.2,0.1,0.3,0.2c0.1,0.1,0.1,0.2,0.2,0.4C134,39.5,134.1,39.6,134.1,39.8z M133.6,39.8c0-0.1,0-0.2,0-0.3c0-0.1,0-0.2-0.1-0.3
					s-0.1-0.1-0.1-0.2c-0.1,0-0.1-0.1-0.2-0.1c-0.1,0-0.1,0-0.2,0c-0.1,0-0.1,0-0.2,0.1c-0.1,0-0.1,0.1-0.2,0.2
					c-0.1,0.1-0.1,0.1-0.2,0.2v1.2c0.1,0,0.2,0.1,0.2,0.1s0.2,0,0.2,0c0.2,0,0.4-0.1,0.5-0.2S133.6,40.1,133.6,39.8z"/>
				<path class="st13" d="M136.7,39.8c0,0.2,0,0.4-0.1,0.5s-0.1,0.3-0.2,0.4c-0.1,0.1-0.2,0.2-0.4,0.3c-0.1,0.1-0.3,0.1-0.5,0.1
					c-0.2,0-0.3,0-0.5-0.1c-0.1-0.1-0.2-0.1-0.3-0.2s-0.2-0.2-0.2-0.4c0-0.2-0.1-0.3-0.1-0.5c0-0.2,0-0.4,0.1-0.5s0.1-0.3,0.2-0.4
					s0.2-0.2,0.4-0.3c0.1-0.1,0.3-0.1,0.5-0.1c0.2,0,0.3,0,0.5,0.1c0.1,0.1,0.2,0.1,0.3,0.2c0.1,0.1,0.2,0.2,0.2,0.4
					C136.7,39.5,136.7,39.6,136.7,39.8z M136.3,39.8c0-0.1,0-0.3,0-0.4s-0.1-0.2-0.1-0.3c-0.1-0.1-0.1-0.1-0.2-0.2
					c-0.1,0-0.2-0.1-0.3-0.1c-0.1,0-0.2,0-0.3,0.1c-0.1,0-0.2,0.1-0.2,0.2c-0.1,0.1-0.1,0.2-0.1,0.3c0,0.1,0,0.2,0,0.3
					c0,0.1,0,0.3,0,0.4s0.1,0.2,0.1,0.3c0.1,0.1,0.1,0.1,0.2,0.2c0.1,0,0.2,0.1,0.3,0.1c0.1,0,0.2,0,0.3-0.1c0.1,0,0.2-0.1,0.2-0.2
					s0.1-0.2,0.1-0.3C136.3,40.1,136.3,40,136.3,39.8z"/>
				<path class="st13" d="M139.5,40.7l0,1h-0.4V41h-1.8v-2.4h0.4v2h1.1v-2h0.4v2H139.5z"/>
				<path class="st13" d="M142,39.7c0,0.1,0,0.1,0,0.1c0,0,0,0.1,0,0.1h-1.7c0,0.2,0.1,0.4,0.2,0.6c0.1,0.1,0.3,0.2,0.6,0.2
					c0.1,0,0.1,0,0.2,0c0.1,0,0.1,0,0.2,0c0.1,0,0.1,0,0.2,0s0.1,0,0.2,0V41c-0.1,0-0.2,0.1-0.4,0.1c-0.1,0-0.3,0-0.4,0
					c-0.2,0-0.4,0-0.5-0.1c-0.1-0.1-0.3-0.1-0.4-0.2c-0.1-0.1-0.2-0.2-0.2-0.4c0-0.2-0.1-0.3-0.1-0.5c0-0.2,0-0.3,0.1-0.5
					s0.1-0.3,0.2-0.4c0.1-0.1,0.2-0.2,0.3-0.3s0.3-0.1,0.5-0.1c0.2,0,0.3,0,0.4,0.1c0.1,0.1,0.2,0.1,0.3,0.2
					c0.1,0.1,0.2,0.2,0.2,0.3C141.9,39.4,142,39.5,142,39.7z M141.5,39.7c0-0.1,0-0.2,0-0.3c0-0.1-0.1-0.2-0.1-0.2
					c-0.1-0.1-0.1-0.1-0.2-0.1s-0.2-0.1-0.3-0.1c-0.1,0-0.2,0-0.2,0.1c-0.1,0-0.1,0.1-0.2,0.1c-0.1,0.1-0.1,0.1-0.1,0.2
					c0,0.1-0.1,0.2-0.1,0.3C140.3,39.7,141.5,39.7,141.5,39.7z"/>
				<path class="st13" d="M144.4,40.9c-0.1,0-0.2,0.1-0.3,0.1c-0.1,0-0.2,0-0.3,0c-0.4,0-0.7-0.1-0.9-0.3c-0.2-0.2-0.3-0.5-0.3-0.9
					c0-0.2,0-0.4,0.1-0.5s0.1-0.3,0.2-0.4c0.1-0.1,0.2-0.2,0.4-0.3c0.1-0.1,0.3-0.1,0.5-0.1c0.1,0,0.2,0,0.3,0s0.2,0,0.3,0.1v0.4
					c-0.1-0.1-0.2-0.1-0.3-0.1s-0.2,0-0.3,0c-0.1,0-0.2,0-0.3,0.1c-0.1,0-0.2,0.1-0.2,0.2c-0.1,0.1-0.1,0.2-0.2,0.3
					c0,0.1-0.1,0.2-0.1,0.4c0,0.3,0.1,0.5,0.2,0.6c0.1,0.1,0.3,0.2,0.6,0.2c0.1,0,0.2,0,0.3,0c0.1,0,0.2-0.1,0.3-0.1L144.4,40.9
					L144.4,40.9z"/>
				<path class="st13" d="M147.1,40.9c-0.1,0-0.2,0.1-0.3,0.1c-0.1,0-0.2,0-0.3,0c-0.4,0-0.7-0.1-0.9-0.3c-0.2-0.2-0.3-0.5-0.3-0.9
					c0-0.2,0-0.4,0.1-0.5s0.1-0.3,0.2-0.4c0.1-0.1,0.2-0.2,0.4-0.3c0.1-0.1,0.3-0.1,0.5-0.1c0.1,0,0.2,0,0.3,0s0.2,0,0.3,0.1v0.4
					c-0.1-0.1-0.2-0.1-0.3-0.1s-0.2,0-0.3,0c-0.1,0-0.2,0-0.3,0.1c-0.1,0-0.2,0.1-0.2,0.2c-0.1,0.1-0.1,0.2-0.2,0.3
					c0,0.1-0.1,0.2-0.1,0.4c0,0.3,0.1,0.5,0.2,0.6c0.1,0.1,0.3,0.2,0.6,0.2c0.1,0,0.2,0,0.3,0c0.1,0,0.2-0.1,0.3-0.1L147.1,40.9
					L147.1,40.9z"/>
			</g>
			<polygon class="st3" points="62.6,109.6 31.5,109.6 31.5,98.4 62.6,98.4 67.8,103.6 			"/>
			<g>
				<rect x="33.2" y="101.6" class="st12" width="32.9" height="4.7"/>
				<path class="st13" d="M35.8,104.6l0,1h-0.4V105h-1.7v0.7h-0.4l0-1h0c0.1,0,0.1,0,0.2,0c0,0,0.1-0.1,0.1-0.2s0.1-0.2,0.1-0.3
					c0-0.1,0.1-0.3,0.1-0.5c0-0.2,0.1-0.4,0.1-0.7c0-0.3,0-0.6,0.1-1h1.5v2.7H35.8z M35,102.2h-0.7c0,0.3,0,0.6-0.1,0.9
					s-0.1,0.5-0.1,0.7c0,0.2-0.1,0.4-0.1,0.5c-0.1,0.1-0.1,0.2-0.2,0.3H35L35,102.2L35,102.2z"/>
				<path class="st13" d="M38.2,103.6c0,0.1,0,0.1,0,0.1c0,0,0,0.1,0,0.1h-1.7c0,0.2,0.1,0.4,0.2,0.6c0.1,0.1,0.3,0.2,0.6,0.2
					c0.1,0,0.1,0,0.2,0c0.1,0,0.1,0,0.2,0c0.1,0,0.1,0,0.2,0s0.1,0,0.2,0v0.3c-0.1,0-0.2,0.1-0.4,0.1c-0.1,0-0.3,0-0.4,0
					c-0.2,0-0.4,0-0.5-0.1c-0.1-0.1-0.3-0.1-0.4-0.2c-0.1-0.1-0.2-0.2-0.2-0.4c0-0.2-0.1-0.3-0.1-0.5c0-0.2,0-0.3,0.1-0.5
					s0.1-0.3,0.2-0.4c0.1-0.1,0.2-0.2,0.3-0.3c0.1-0.1,0.3-0.1,0.5-0.1c0.2,0,0.3,0,0.4,0.1c0.1,0.1,0.2,0.1,0.3,0.2
					c0.1,0.1,0.2,0.2,0.2,0.3C38.2,103.3,38.2,103.5,38.2,103.6z M37.8,103.6c0-0.1,0-0.2,0-0.3c0-0.1-0.1-0.2-0.1-0.2
					c-0.1-0.1-0.1-0.1-0.2-0.1s-0.2-0.1-0.3-0.1c-0.1,0-0.2,0-0.2,0.1c-0.1,0-0.1,0.1-0.2,0.1c-0.1,0.1-0.1,0.1-0.1,0.2
					c0,0.1-0.1,0.2-0.1,0.3H37.8z"/>
				<path class="st13" d="M39,104.3c0.1-0.1,0.1-0.2,0.2-0.3c0.1-0.1,0.1-0.1,0.2-0.1c-0.1,0-0.2-0.1-0.2-0.1
					c-0.1,0-0.1-0.1-0.2-0.1s-0.1-0.1-0.1-0.2c0-0.1,0-0.1,0-0.2c0-0.1,0-0.2,0.1-0.3c0-0.1,0.1-0.2,0.2-0.2
					c0.1-0.1,0.2-0.1,0.3-0.2s0.3-0.1,0.5-0.1c0.1,0,0.3,0,0.4,0c0.1,0,0.3,0,0.4,0v2.4h-0.4V104H40c-0.1,0-0.1,0-0.2,0
					c-0.1,0-0.1,0-0.2,0.1c0,0-0.1,0.1-0.1,0.1c0,0-0.1,0.1-0.1,0.2l-0.3,0.6h-0.5L39,104.3z M39.3,103.3c0,0.1,0,0.2,0.1,0.3
					c0.1,0.1,0.2,0.1,0.4,0.1h0.4v-0.8c-0.1,0-0.1,0-0.2,0s-0.1,0-0.2,0c-0.1,0-0.2,0-0.3,0c-0.1,0-0.1,0-0.2,0.1
					c0,0-0.1,0.1-0.1,0.1S39.3,103.2,39.3,103.3z"/>
				<path class="st13" d="M43.6,102.9h-0.9v2h-0.4v-2h-0.9v-0.4h2.2C43.6,102.6,43.6,102.9,43.6,102.9z"/>
				<path class="st13" d="M46.1,103.6c0,0.1,0,0.1,0,0.1c0,0,0,0.1,0,0.1h-1.7c0,0.2,0.1,0.4,0.2,0.6c0.1,0.1,0.3,0.2,0.6,0.2
					c0.1,0,0.1,0,0.2,0c0.1,0,0.1,0,0.2,0c0.1,0,0.1,0,0.2,0s0.1,0,0.2,0v0.3c-0.1,0-0.2,0.1-0.4,0.1c-0.1,0-0.3,0-0.4,0
					c-0.2,0-0.4,0-0.5-0.1c-0.1-0.1-0.3-0.1-0.4-0.2c-0.1-0.1-0.2-0.2-0.2-0.4c0-0.2-0.1-0.3-0.1-0.5c0-0.2,0-0.3,0.1-0.5
					s0.1-0.3,0.2-0.4c0.1-0.1,0.2-0.2,0.3-0.3c0.1-0.1,0.3-0.1,0.5-0.1c0.2,0,0.3,0,0.4,0.1c0.1,0.1,0.2,0.1,0.3,0.2
					c0.1,0.1,0.2,0.2,0.2,0.3C46.1,103.3,46.1,103.5,46.1,103.6z M45.7,103.6c0-0.1,0-0.2,0-0.3c0-0.1-0.1-0.2-0.1-0.2
					c-0.1-0.1-0.1-0.1-0.2-0.1s-0.2-0.1-0.3-0.1c-0.1,0-0.2,0-0.2,0.1c-0.1,0-0.1,0.1-0.2,0.1c-0.1,0.1-0.1,0.1-0.1,0.2
					c0,0.1-0.1,0.2-0.1,0.3H45.7z"/>
				<path class="st13" d="M48.7,105h-0.4v-2h-0.7c0,0.3,0,0.6-0.1,0.8c0,0.2-0.1,0.4-0.1,0.6c-0.1,0.2-0.1,0.3-0.2,0.4
					c-0.1,0.1-0.1,0.2-0.2,0.2c-0.1,0-0.2,0.1-0.2,0.1c-0.1,0-0.2,0-0.3,0l0-0.3c0.1,0,0.1,0,0.2,0s0.1,0,0.2-0.1
					c0,0,0.1-0.1,0.1-0.2c0-0.1,0.1-0.2,0.1-0.4s0.1-0.3,0.1-0.6s0-0.5,0.1-0.8h1.5C48.7,102.6,48.7,105,48.7,105z"/>
				<path class="st13" d="M49.9,103.5c0,0,0.1,0,0.1,0s0.1,0,0.1,0c0,0,0.1,0,0.1,0c0,0,0.1,0,0.1,0c0.4,0,0.6,0.1,0.8,0.2
					s0.3,0.3,0.3,0.6c0,0.3-0.1,0.5-0.3,0.6c-0.2,0.1-0.5,0.2-0.8,0.2c-0.2,0-0.3,0-0.5,0c-0.1,0-0.3,0-0.4,0v-2.4h0.4
					C49.9,102.6,49.9,103.5,49.9,103.5z M51,104.2c0-0.1,0-0.1,0-0.2c0-0.1-0.1-0.1-0.1-0.1s-0.1-0.1-0.2-0.1c-0.1,0-0.2,0-0.3,0
					c-0.1,0-0.2,0-0.2,0c-0.1,0-0.2,0-0.3,0v0.8c0.1,0,0.2,0,0.2,0s0.2,0,0.2,0c0.1,0,0.2,0,0.3,0s0.2,0,0.2-0.1
					c0.1,0,0.1-0.1,0.1-0.1C51,104.4,51,104.3,51,104.2z"/>
				<path class="st13" d="M54,105h-0.4v-1.1h-1.1v1.1h-0.4v-2.4h0.4v1h1.1v-1H54V105z"/>
				<path class="st13" d="M56.8,103.8c0,0.2,0,0.4-0.1,0.5c-0.1,0.2-0.1,0.3-0.2,0.4c-0.1,0.1-0.2,0.2-0.4,0.3
					c-0.1,0.1-0.3,0.1-0.5,0.1c-0.2,0-0.3,0-0.5-0.1c-0.1-0.1-0.2-0.1-0.3-0.2s-0.2-0.2-0.2-0.4c0-0.2-0.1-0.3-0.1-0.5
					c0-0.2,0-0.4,0.1-0.5s0.1-0.3,0.2-0.4s0.2-0.2,0.4-0.3c0.1-0.1,0.3-0.1,0.5-0.1c0.2,0,0.3,0,0.5,0.1c0.1,0.1,0.2,0.1,0.3,0.2
					c0.1,0.1,0.2,0.2,0.2,0.4C56.7,103.4,56.8,103.6,56.8,103.8z M56.3,103.8c0-0.1,0-0.3,0-0.4s-0.1-0.2-0.1-0.3
					c-0.1-0.1-0.1-0.1-0.2-0.2c-0.1,0-0.2-0.1-0.3-0.1c-0.1,0-0.2,0-0.3,0.1c-0.1,0-0.2,0.1-0.2,0.2c-0.1,0.1-0.1,0.2-0.1,0.3
					c0,0.1,0,0.2,0,0.3c0,0.1,0,0.3,0,0.4s0.1,0.2,0.1,0.3c0.1,0.1,0.1,0.1,0.2,0.2c0.1,0,0.2,0.1,0.3,0.1c0.1,0,0.2,0,0.3-0.1
					c0.1,0,0.2-0.1,0.2-0.2s0.1-0.2,0.1-0.3C56.3,104,56.3,103.9,56.3,103.8z"/>
				<path class="st13" d="M59.2,104.9c-0.1,0-0.2,0.1-0.3,0.1c-0.1,0-0.2,0-0.3,0c-0.4,0-0.7-0.1-0.9-0.3c-0.2-0.2-0.3-0.5-0.3-0.9
					c0-0.2,0-0.4,0.1-0.5c0.1-0.2,0.1-0.3,0.2-0.4c0.1-0.1,0.2-0.2,0.4-0.3c0.1-0.1,0.3-0.1,0.5-0.1c0.1,0,0.2,0,0.3,0
					s0.2,0,0.3,0.1v0.4c-0.1-0.1-0.2-0.1-0.3-0.1s-0.2,0-0.3,0c-0.1,0-0.2,0-0.3,0.1c-0.1,0-0.2,0.1-0.2,0.2
					c-0.1,0.1-0.1,0.2-0.2,0.3c0,0.1-0.1,0.2-0.1,0.4c0,0.3,0.1,0.5,0.2,0.6c0.1,0.1,0.3,0.2,0.6,0.2c0.1,0,0.2,0,0.3,0
					c0.1,0,0.2-0.1,0.3-0.1L59.2,104.9L59.2,104.9z"/>
				<path class="st13" d="M62,102.9h-0.9v2h-0.4v-2h-0.9v-0.4H62L62,102.9L62,102.9z"/>
				<path class="st13" d="M63.1,103.5c0,0,0.1,0,0.1,0s0.1,0,0.1,0c0,0,0.1,0,0.1,0c0,0,0.1,0,0.1,0c0.4,0,0.6,0.1,0.8,0.2
					s0.3,0.3,0.3,0.6c0,0.3-0.1,0.5-0.3,0.6c-0.2,0.1-0.5,0.2-0.8,0.2c-0.2,0-0.3,0-0.5,0c-0.1,0-0.3,0-0.4,0v-2.4h0.4V103.5z
					 M64.2,104.2c0-0.1,0-0.1,0-0.2c0-0.1-0.1-0.1-0.1-0.1c-0.1,0-0.1-0.1-0.2-0.1c-0.1,0-0.2,0-0.3,0c-0.1,0-0.2,0-0.2,0
					c-0.1,0-0.2,0-0.3,0v0.8c0.1,0,0.2,0,0.2,0s0.2,0,0.2,0c0.1,0,0.2,0,0.3,0s0.2,0,0.2-0.1c0.1,0,0.1-0.1,0.1-0.1
					C64.2,104.4,64.2,104.3,64.2,104.2z"/>
			</g>
			<g>
				<rect x="107.8" y="101.6" class="st12" width="32.9" height="4.7"/>
				<path class="st13" d="M110.4,104.6l0,1H110V105h-1.7v0.7h-0.4l0-1h0c0.1,0,0.1,0,0.2,0c0.1,0,0.1-0.1,0.1-0.2s0.1-0.2,0.1-0.3
					c0-0.1,0.1-0.3,0.1-0.5c0-0.2,0.1-0.4,0.1-0.7c0-0.3,0-0.6,0.1-1h1.5v2.7H110.4z M109.6,102.2h-0.7c0,0.3,0,0.6-0.1,0.9
					s-0.1,0.5-0.1,0.7c0,0.2-0.1,0.4-0.1,0.5c-0.1,0.1-0.1,0.2-0.2,0.3h1.1L109.6,102.2L109.6,102.2z"/>
				<path class="st13" d="M112.8,103.6c0,0.1,0,0.1,0,0.1c0,0,0,0.1,0,0.1h-1.7c0,0.2,0.1,0.4,0.2,0.6c0.1,0.1,0.3,0.2,0.6,0.2
					c0.1,0,0.1,0,0.2,0c0.1,0,0.1,0,0.2,0c0.1,0,0.1,0,0.2,0s0.1,0,0.2,0v0.3c-0.1,0-0.2,0.1-0.4,0.1c-0.1,0-0.3,0-0.4,0
					c-0.2,0-0.4,0-0.5-0.1c-0.1-0.1-0.3-0.1-0.4-0.2c-0.1-0.1-0.2-0.2-0.2-0.4c0-0.2-0.1-0.3-0.1-0.5c0-0.2,0-0.3,0.1-0.5
					s0.1-0.3,0.2-0.4c0.1-0.1,0.2-0.2,0.3-0.3c0.1-0.1,0.3-0.1,0.5-0.1c0.2,0,0.3,0,0.4,0.1c0.1,0.1,0.2,0.1,0.3,0.2
					c0.1,0.1,0.2,0.2,0.2,0.3C112.8,103.3,112.8,103.5,112.8,103.6z M112.4,103.6c0-0.1,0-0.2,0-0.3c0-0.1-0.1-0.2-0.1-0.2
					c-0.1-0.1-0.1-0.1-0.2-0.1s-0.2-0.1-0.3-0.1c-0.1,0-0.2,0-0.2,0.1c-0.1,0-0.1,0.1-0.2,0.1c-0.1,0.1-0.1,0.1-0.1,0.2
					c0,0.1-0.1,0.2-0.1,0.3H112.4z"/>
				<path class="st13" d="M113.6,104.3c0.1-0.1,0.1-0.2,0.2-0.3c0.1-0.1,0.1-0.1,0.2-0.1c-0.1,0-0.2-0.1-0.2-0.1
					c-0.1,0-0.1-0.1-0.2-0.1s-0.1-0.1-0.1-0.2c0-0.1,0-0.1,0-0.2c0-0.1,0-0.2,0.1-0.3c0-0.1,0.1-0.2,0.2-0.2
					c0.1-0.1,0.2-0.1,0.3-0.2s0.3-0.1,0.5-0.1c0.1,0,0.3,0,0.4,0c0.1,0,0.3,0,0.4,0v2.4h-0.4V104h-0.4c-0.1,0-0.1,0-0.2,0
					c-0.1,0-0.1,0-0.2,0.1s-0.1,0.1-0.1,0.1c0,0-0.1,0.1-0.1,0.2l-0.3,0.6h-0.5L113.6,104.3z M113.9,103.3c0,0.1,0,0.2,0.1,0.3
					c0.1,0.1,0.2,0.1,0.4,0.1h0.4v-0.8c-0.1,0-0.1,0-0.2,0s-0.1,0-0.2,0c-0.1,0-0.2,0-0.3,0c-0.1,0-0.1,0-0.2,0.1
					c0,0-0.1,0.1-0.1,0.1S113.9,103.2,113.9,103.3z"/>
				<path class="st13" d="M118.1,102.9h-0.9v2h-0.4v-2h-0.9v-0.4h2.2L118.1,102.9L118.1,102.9z"/>
				<path class="st13" d="M120.7,103.6c0,0.1,0,0.1,0,0.1c0,0,0,0.1,0,0.1h-1.7c0,0.2,0.1,0.4,0.2,0.6c0.1,0.1,0.3,0.2,0.6,0.2
					c0.1,0,0.1,0,0.2,0c0.1,0,0.1,0,0.2,0c0.1,0,0.1,0,0.2,0s0.1,0,0.2,0v0.3c-0.1,0-0.2,0.1-0.4,0.1c-0.1,0-0.3,0-0.4,0
					c-0.2,0-0.4,0-0.5-0.1c-0.1-0.1-0.3-0.1-0.4-0.2c-0.1-0.1-0.2-0.2-0.2-0.4c0-0.2-0.1-0.3-0.1-0.5c0-0.2,0-0.3,0.1-0.5
					s0.1-0.3,0.2-0.4c0.1-0.1,0.2-0.2,0.3-0.3c0.1-0.1,0.3-0.1,0.5-0.1c0.2,0,0.3,0,0.4,0.1c0.1,0.1,0.2,0.1,0.3,0.2
					c0.1,0.1,0.2,0.2,0.2,0.3C120.7,103.3,120.7,103.5,120.7,103.6z M120.3,103.6c0-0.1,0-0.2,0-0.3c0-0.1-0.1-0.2-0.1-0.2
					c-0.1-0.1-0.1-0.1-0.2-0.1s-0.2-0.1-0.3-0.1c-0.1,0-0.2,0-0.2,0.1c-0.1,0-0.1,0.1-0.2,0.1c-0.1,0.1-0.1,0.1-0.1,0.2
					c0,0.1-0.1,0.2-0.1,0.3H120.3z"/>
				<path class="st13" d="M123.2,105h-0.4v-2h-0.7c0,0.3,0,0.6-0.1,0.8c0,0.2-0.1,0.4-0.1,0.6c-0.1,0.2-0.1,0.3-0.2,0.4
					c-0.1,0.1-0.1,0.2-0.2,0.2c-0.1,0-0.2,0.1-0.2,0.1c-0.1,0-0.2,0-0.3,0l0-0.3c0.1,0,0.1,0,0.2,0s0.1,0,0.2-0.1
					c0,0,0.1-0.1,0.1-0.2c0-0.1,0.1-0.2,0.1-0.4s0.1-0.3,0.1-0.6s0-0.5,0.1-0.8h1.5V105z"/>
				<path class="st13" d="M124.4,103.5c0,0,0.1,0,0.1,0s0.1,0,0.1,0c0,0,0.1,0,0.1,0c0,0,0.1,0,0.1,0c0.4,0,0.6,0.1,0.8,0.2
					c0.2,0.1,0.3,0.3,0.3,0.6c0,0.3-0.1,0.5-0.3,0.6c-0.2,0.1-0.5,0.2-0.8,0.2c-0.2,0-0.3,0-0.5,0c-0.1,0-0.3,0-0.4,0v-2.4h0.4
					V103.5z M125.6,104.2c0-0.1,0-0.1,0-0.2c0-0.1-0.1-0.1-0.1-0.1c-0.1,0-0.1-0.1-0.2-0.1c-0.1,0-0.2,0-0.3,0c-0.1,0-0.2,0-0.2,0
					c-0.1,0-0.2,0-0.3,0v0.8c0.1,0,0.2,0,0.2,0s0.2,0,0.2,0c0.1,0,0.2,0,0.3,0s0.2,0,0.2-0.1c0.1,0,0.1-0.1,0.1-0.1
					C125.6,104.4,125.6,104.3,125.6,104.2z"/>
				<path class="st13" d="M128.5,105h-0.4v-1.1h-1.1v1.1h-0.4v-2.4h0.4v1h1.1v-1h0.4V105z"/>
				<path class="st13" d="M131.3,103.8c0,0.2,0,0.4-0.1,0.5c-0.1,0.2-0.1,0.3-0.2,0.4c-0.1,0.1-0.2,0.2-0.4,0.3
					c-0.1,0.1-0.3,0.1-0.5,0.1c-0.2,0-0.3,0-0.5-0.1c-0.1-0.1-0.2-0.1-0.3-0.2s-0.2-0.2-0.2-0.4c0-0.2-0.1-0.3-0.1-0.5
					c0-0.2,0-0.4,0.1-0.5s0.1-0.3,0.2-0.4s0.2-0.2,0.4-0.3c0.1-0.1,0.3-0.1,0.5-0.1c0.2,0,0.3,0,0.5,0.1c0.1,0.1,0.2,0.1,0.3,0.2
					c0.1,0.1,0.2,0.2,0.2,0.4C131.3,103.4,131.3,103.6,131.3,103.8z M130.9,103.8c0-0.1,0-0.3,0-0.4s-0.1-0.2-0.1-0.3
					c-0.1-0.1-0.1-0.1-0.2-0.2c-0.1,0-0.2-0.1-0.3-0.1c-0.1,0-0.2,0-0.3,0.1c-0.1,0-0.2,0.1-0.2,0.2c-0.1,0.1-0.1,0.2-0.1,0.3
					c0,0.1,0,0.2,0,0.3c0,0.1,0,0.3,0,0.4s0.1,0.2,0.1,0.3c0.1,0.1,0.1,0.1,0.2,0.2c0.1,0,0.2,0.1,0.3,0.1c0.1,0,0.2,0,0.3-0.1
					c0.1,0,0.2-0.1,0.2-0.2s0.1-0.2,0.1-0.3C130.9,104,130.9,103.9,130.9,103.8z"/>
				<path class="st13" d="M133.8,104.9c-0.1,0-0.2,0.1-0.3,0.1c-0.1,0-0.2,0-0.3,0c-0.4,0-0.7-0.1-0.9-0.3c-0.2-0.2-0.3-0.5-0.3-0.9
					c0-0.2,0-0.4,0.1-0.5s0.1-0.3,0.2-0.4c0.1-0.1,0.2-0.2,0.4-0.3c0.1-0.1,0.3-0.1,0.5-0.1c0.1,0,0.2,0,0.3,0s0.2,0,0.3,0.1v0.4
					c-0.1-0.1-0.2-0.1-0.3-0.1s-0.2,0-0.3,0c-0.1,0-0.2,0-0.3,0.1c-0.1,0-0.2,0.1-0.2,0.2c-0.1,0.1-0.1,0.2-0.2,0.3
					c0,0.1-0.1,0.2-0.1,0.4c0,0.3,0.1,0.5,0.2,0.6c0.1,0.1,0.3,0.2,0.6,0.2c0.1,0,0.2,0,0.3,0c0.1,0,0.2-0.1,0.3-0.1L133.8,104.9
					L133.8,104.9z"/>
				<path class="st13" d="M136.6,102.9h-0.9v2h-0.4v-2h-0.9v-0.4h2.2L136.6,102.9L136.6,102.9z"/>
				<path class="st13" d="M137.6,103.5c0,0,0.1,0,0.1,0s0.1,0,0.1,0c0,0,0.1,0,0.1,0c0,0,0.1,0,0.1,0c0.4,0,0.6,0.1,0.8,0.2
					s0.3,0.3,0.3,0.6c0,0.3-0.1,0.5-0.3,0.6c-0.2,0.1-0.5,0.2-0.8,0.2c-0.2,0-0.3,0-0.5,0c-0.1,0-0.3,0-0.4,0v-2.4h0.4L137.6,103.5
					L137.6,103.5z M138.8,104.2c0-0.1,0-0.1,0-0.2c0-0.1-0.1-0.1-0.1-0.1s-0.1-0.1-0.2-0.1c-0.1,0-0.2,0-0.3,0c-0.1,0-0.2,0-0.2,0
					c-0.1,0-0.2,0-0.3,0v0.8c0.1,0,0.2,0,0.2,0s0.2,0,0.2,0c0.1,0,0.2,0,0.3,0s0.2,0,0.2-0.1c0.1,0,0.1-0.1,0.1-0.1
					C138.8,104.4,138.8,104.3,138.8,104.2z"/>
			</g>
			<polygon class="st3" points="210,109.1 175.5,109.1 180.7,103.5 175.5,97.9 210,97.9 215.1,103.5 			"/>
			<g>
				<rect x="181.1" y="101.6" class="st12" width="32.9" height="4.7"/>
				<path class="st13" d="M183.6,104.6l0,1h-0.4V105h-1.7v0.7h-0.4l0-1h0c0.1,0,0.1,0,0.2,0c0.1,0,0.1-0.1,0.1-0.2s0.1-0.2,0.1-0.3
					c0-0.1,0.1-0.3,0.1-0.5c0-0.2,0.1-0.4,0.1-0.7c0-0.3,0-0.6,0.1-1h1.5v2.7H183.6z M182.9,102.2h-0.7c0,0.3,0,0.6-0.1,0.9
					s-0.1,0.5-0.1,0.7c0,0.2-0.1,0.4-0.1,0.5c-0.1,0.1-0.1,0.2-0.2,0.3h1.1L182.9,102.2L182.9,102.2z"/>
				<path class="st13" d="M186.1,103.6c0,0.1,0,0.1,0,0.1c0,0,0,0.1,0,0.1h-1.7c0,0.2,0.1,0.4,0.2,0.6c0.1,0.1,0.3,0.2,0.6,0.2
					c0.1,0,0.1,0,0.2,0c0.1,0,0.1,0,0.2,0c0.1,0,0.1,0,0.2,0s0.1,0,0.2,0v0.3c-0.1,0-0.2,0.1-0.4,0.1c-0.1,0-0.3,0-0.4,0
					c-0.2,0-0.4,0-0.5-0.1c-0.1-0.1-0.3-0.1-0.4-0.2c-0.1-0.1-0.2-0.2-0.2-0.4c0-0.2-0.1-0.3-0.1-0.5c0-0.2,0-0.3,0.1-0.5
					s0.1-0.3,0.2-0.4c0.1-0.1,0.2-0.2,0.3-0.3c0.1-0.1,0.3-0.1,0.5-0.1c0.2,0,0.3,0,0.4,0.1c0.1,0.1,0.2,0.1,0.3,0.2
					c0.1,0.1,0.2,0.2,0.2,0.3C186,103.3,186.1,103.5,186.1,103.6z M185.6,103.6c0-0.1,0-0.2,0-0.3c0-0.1-0.1-0.2-0.1-0.2
					c-0.1-0.1-0.1-0.1-0.2-0.1s-0.2-0.1-0.3-0.1c-0.1,0-0.2,0-0.2,0.1c-0.1,0-0.1,0.1-0.2,0.1c-0.1,0.1-0.1,0.1-0.1,0.2
					c0,0.1-0.1,0.2-0.1,0.3H185.6z"/>
				<path class="st13" d="M186.9,104.3c0.1-0.1,0.1-0.2,0.2-0.3c0.1-0.1,0.1-0.1,0.2-0.1c-0.1,0-0.2-0.1-0.2-0.1
					c-0.1,0-0.1-0.1-0.2-0.1s-0.1-0.1-0.1-0.2c0-0.1,0-0.1,0-0.2c0-0.1,0-0.2,0.1-0.3c0-0.1,0.1-0.2,0.2-0.2
					c0.1-0.1,0.2-0.1,0.3-0.2s0.3-0.1,0.5-0.1c0.1,0,0.3,0,0.4,0c0.1,0,0.3,0,0.4,0v2.4h-0.4V104h-0.4c-0.1,0-0.1,0-0.2,0
					c-0.1,0-0.1,0-0.2,0.1c0,0-0.1,0.1-0.1,0.1c0,0-0.1,0.1-0.1,0.2L187,105h-0.5L186.9,104.3z M187.2,103.3c0,0.1,0,0.2,0.1,0.3
					c0.1,0.1,0.2,0.1,0.4,0.1h0.4v-0.8c-0.1,0-0.1,0-0.2,0s-0.1,0-0.2,0c-0.1,0-0.2,0-0.3,0c-0.1,0-0.1,0-0.2,0.1
					c0,0-0.1,0.1-0.1,0.1S187.2,103.2,187.2,103.3z"/>
				<path class="st13" d="M191.4,102.9h-0.9v2h-0.4v-2h-0.9v-0.4h2.2L191.4,102.9L191.4,102.9z"/>
				<path class="st13" d="M194,103.6c0,0.1,0,0.1,0,0.1c0,0,0,0.1,0,0.1h-1.7c0,0.2,0.1,0.4,0.2,0.6c0.1,0.1,0.3,0.2,0.6,0.2
					c0.1,0,0.1,0,0.2,0c0.1,0,0.1,0,0.2,0c0.1,0,0.1,0,0.2,0s0.1,0,0.2,0v0.3c-0.1,0-0.2,0.1-0.4,0.1c-0.1,0-0.3,0-0.4,0
					c-0.2,0-0.4,0-0.5-0.1c-0.1-0.1-0.3-0.1-0.4-0.2c-0.1-0.1-0.2-0.2-0.2-0.4c0-0.2-0.1-0.3-0.1-0.5c0-0.2,0-0.3,0.1-0.5
					s0.1-0.3,0.2-0.4c0.1-0.1,0.2-0.2,0.3-0.3c0.1-0.1,0.3-0.1,0.5-0.1c0.2,0,0.3,0,0.4,0.1c0.1,0.1,0.2,0.1,0.3,0.2
					c0.1,0.1,0.2,0.2,0.2,0.3C194,103.3,194,103.5,194,103.6z M193.6,103.6c0-0.1,0-0.2,0-0.3c0-0.1-0.1-0.2-0.1-0.2
					c-0.1-0.1-0.1-0.1-0.2-0.1s-0.2-0.1-0.3-0.1c-0.1,0-0.2,0-0.2,0.1c-0.1,0-0.1,0.1-0.2,0.1c-0.1,0.1-0.1,0.1-0.1,0.2
					c0,0.1-0.1,0.2-0.1,0.3H193.6z"/>
				<path class="st13" d="M196.5,105h-0.4v-2h-0.7c0,0.3,0,0.6-0.1,0.8c0,0.2-0.1,0.4-0.1,0.6c-0.1,0.2-0.1,0.3-0.2,0.4
					c-0.1,0.1-0.1,0.2-0.2,0.2c-0.1,0-0.2,0.1-0.2,0.1c-0.1,0-0.2,0-0.3,0l0-0.3c0.1,0,0.1,0,0.2,0s0.1,0,0.2-0.1
					c0,0,0.1-0.1,0.1-0.2c0-0.1,0.1-0.2,0.1-0.4s0.1-0.3,0.1-0.6s0-0.5,0.1-0.8h1.5L196.5,105L196.5,105z"/>
				<path class="st13" d="M197.7,103.5c0,0,0.1,0,0.1,0s0.1,0,0.1,0c0,0,0.1,0,0.1,0c0,0,0.1,0,0.1,0c0.4,0,0.6,0.1,0.8,0.2
					s0.3,0.3,0.3,0.6c0,0.3-0.1,0.5-0.3,0.6c-0.2,0.1-0.5,0.2-0.8,0.2c-0.2,0-0.3,0-0.5,0c-0.1,0-0.3,0-0.4,0v-2.4h0.4L197.7,103.5
					L197.7,103.5z M198.9,104.2c0-0.1,0-0.1,0-0.2c0-0.1-0.1-0.1-0.1-0.1s-0.1-0.1-0.2-0.1c-0.1,0-0.2,0-0.3,0c-0.1,0-0.2,0-0.2,0
					c-0.1,0-0.2,0-0.3,0v0.8c0.1,0,0.2,0,0.2,0s0.2,0,0.2,0c0.1,0,0.2,0,0.3,0s0.2,0,0.2-0.1c0.1,0,0.1-0.1,0.1-0.1
					C198.8,104.4,198.9,104.3,198.9,104.2z"/>
				<path class="st13" d="M201.8,105h-0.4v-1.1h-1.1v1.1h-0.4v-2.4h0.4v1h1.1v-1h0.4V105z"/>
				<path class="st13" d="M204.6,103.8c0,0.2,0,0.4-0.1,0.5c-0.1,0.2-0.1,0.3-0.2,0.4c-0.1,0.1-0.2,0.2-0.4,0.3
					c-0.1,0.1-0.3,0.1-0.5,0.1c-0.2,0-0.3,0-0.5-0.1c-0.1-0.1-0.2-0.1-0.3-0.2s-0.2-0.2-0.2-0.4c0-0.2-0.1-0.3-0.1-0.5
					c0-0.2,0-0.4,0.1-0.5s0.1-0.3,0.2-0.4s0.2-0.2,0.4-0.3c0.1-0.1,0.3-0.1,0.5-0.1c0.2,0,0.3,0,0.5,0.1c0.1,0.1,0.2,0.1,0.3,0.2
					c0.1,0.1,0.2,0.2,0.2,0.4C204.6,103.4,204.6,103.6,204.6,103.8z M204.2,103.8c0-0.1,0-0.3,0-0.4s-0.1-0.2-0.1-0.3
					c-0.1-0.1-0.1-0.1-0.2-0.2c-0.1,0-0.2-0.1-0.3-0.1c-0.1,0-0.2,0-0.3,0.1c-0.1,0-0.2,0.1-0.2,0.2c-0.1,0.1-0.1,0.2-0.1,0.3
					c0,0.1,0,0.2,0,0.3c0,0.1,0,0.3,0,0.4s0.1,0.2,0.1,0.3c0.1,0.1,0.1,0.1,0.2,0.2c0.1,0,0.2,0.1,0.3,0.1c0.1,0,0.2,0,0.3-0.1
					c0.1,0,0.2-0.1,0.2-0.2s0.1-0.2,0.1-0.3C204.2,104,204.2,103.9,204.2,103.8z"/>
				<path class="st13" d="M207,104.9c-0.1,0-0.2,0.1-0.3,0.1c-0.1,0-0.2,0-0.3,0c-0.4,0-0.7-0.1-0.9-0.3c-0.2-0.2-0.3-0.5-0.3-0.9
					c0-0.2,0-0.4,0.1-0.5s0.1-0.3,0.2-0.4c0.1-0.1,0.2-0.2,0.4-0.3c0.1-0.1,0.3-0.1,0.5-0.1c0.1,0,0.2,0,0.3,0s0.2,0,0.3,0.1v0.4
					c-0.1-0.1-0.2-0.1-0.3-0.1s-0.2,0-0.3,0c-0.1,0-0.2,0-0.3,0.1c-0.1,0-0.2,0.1-0.2,0.2c-0.1,0.1-0.1,0.2-0.2,0.3
					c0,0.1-0.1,0.2-0.1,0.4c0,0.3,0.1,0.5,0.2,0.6c0.1,0.1,0.3,0.2,0.6,0.2c0.1,0,0.2,0,0.3,0c0.1,0,0.2-0.1,0.3-0.1L207,104.9
					L207,104.9z"/>
				<path class="st13" d="M209.9,102.9H209v2h-0.4v-2h-0.9v-0.4h2.2L209.9,102.9L209.9,102.9z"/>
				<path class="st13" d="M210.9,103.5c0,0,0.1,0,0.1,0s0.1,0,0.1,0c0,0,0.1,0,0.1,0c0,0,0.1,0,0.1,0c0.4,0,0.6,0.1,0.8,0.2
					s0.3,0.3,0.3,0.6c0,0.3-0.1,0.5-0.3,0.6c-0.2,0.1-0.5,0.2-0.8,0.2c-0.2,0-0.3,0-0.5,0c-0.1,0-0.3,0-0.4,0v-2.4h0.4L210.9,103.5
					L210.9,103.5z M212,104.2c0-0.1,0-0.1,0-0.2c0-0.1-0.1-0.1-0.1-0.1s-0.1-0.1-0.2-0.1c-0.1,0-0.2,0-0.3,0c-0.1,0-0.2,0-0.2,0
					c-0.1,0-0.2,0-0.3,0v0.8c0.1,0,0.2,0,0.2,0s0.2,0,0.2,0c0.1,0,0.2,0,0.3,0s0.2,0,0.2-0.1c0.1,0,0.1-0.1,0.1-0.1
					C212,104.4,212,104.3,212,104.2z"/>
			</g>
			<g>
				<rect x="157.1" y="28.1" class="st12" width="24.9" height="8"/>
				<path class="st13" d="M161.5,31.5H161l-1.1-1.5v1.5h-0.4v-3.1h0.4v1.4l1.1-1.4h0.5l-1.2,1.5L161.5,31.5z"/>
				<path class="st13" d="M164.1,30.3c0,0.2,0,0.4-0.1,0.5s-0.1,0.3-0.2,0.4c-0.1,0.1-0.2,0.2-0.4,0.3c-0.1,0.1-0.3,0.1-0.5,0.1
					c-0.2,0-0.3,0-0.5-0.1c-0.1-0.1-0.2-0.1-0.3-0.2S162,31,162,30.8c0-0.2-0.1-0.3-0.1-0.5c0-0.2,0-0.4,0.1-0.5s0.1-0.3,0.2-0.4
					s0.2-0.2,0.4-0.3c0.1-0.1,0.3-0.1,0.5-0.1c0.2,0,0.3,0,0.5,0.1c0.1,0.1,0.2,0.1,0.3,0.2c0.1,0.1,0.2,0.2,0.2,0.4
					C164.1,29.9,164.1,30.1,164.1,30.3z M163.7,30.3c0-0.1,0-0.3,0-0.4s-0.1-0.2-0.1-0.3c-0.1-0.1-0.1-0.1-0.2-0.2
					c-0.1,0-0.2-0.1-0.3-0.1c-0.1,0-0.2,0-0.3,0.1c-0.1,0-0.2,0.1-0.2,0.2c-0.1,0.1-0.1,0.2-0.1,0.3c0,0.1,0,0.2,0,0.3
					c0,0.1,0,0.3,0,0.4s0.1,0.2,0.1,0.3c0.1,0.1,0.1,0.1,0.2,0.2c0.1,0,0.2,0.1,0.3,0.1c0.1,0,0.2,0,0.3-0.1c0.1,0,0.2-0.1,0.2-0.2
					s0.1-0.2,0.1-0.3C163.7,30.5,163.7,30.4,163.7,30.3z"/>
				<path class="st13" d="M166.6,31.5h-0.4v-1.1h-1.1v1.1h-0.4v-2.4h0.4v1h1.1v-1h0.4V31.5z"/>
				<path class="st13" d="M169.3,30.2c0,0.1,0,0.1,0,0.1c0,0,0,0.1,0,0.1h-1.7c0,0.2,0.1,0.4,0.2,0.6c0.1,0.1,0.3,0.2,0.6,0.2
					c0.1,0,0.1,0,0.2,0c0.1,0,0.1,0,0.2,0c0.1,0,0.1,0,0.2,0s0.1,0,0.2,0v0.3c-0.1,0-0.2,0.1-0.4,0.1c-0.1,0-0.3,0-0.4,0
					c-0.2,0-0.4,0-0.5-0.1c-0.1-0.1-0.3-0.1-0.4-0.2c-0.1-0.1-0.2-0.2-0.2-0.4c0-0.2-0.1-0.3-0.1-0.5c0-0.2,0-0.3,0.1-0.5
					s0.1-0.3,0.2-0.4c0.1-0.1,0.2-0.2,0.3-0.3s0.3-0.1,0.5-0.1c0.2,0,0.3,0,0.4,0.1c0.1,0.1,0.2,0.1,0.3,0.2
					c0.1,0.1,0.2,0.2,0.2,0.3C169.3,29.9,169.3,30,169.3,30.2z M168.9,30.1c0-0.1,0-0.2,0-0.3c0-0.1-0.1-0.2-0.1-0.2
					c-0.1-0.1-0.1-0.1-0.2-0.1s-0.2-0.1-0.3-0.1c-0.1,0-0.2,0-0.2,0.1c-0.1,0-0.1,0.1-0.2,0.1c-0.1,0.1-0.1,0.1-0.1,0.2
					c0,0.1-0.1,0.2-0.1,0.3H168.9z"/>
				<path class="st13" d="M171.4,30.6H171c-0.4,0-0.6-0.1-0.8-0.2c-0.2-0.1-0.3-0.3-0.3-0.6v-0.7h0.4v0.6c0,0.1,0,0.2,0,0.2
					c0,0.1,0.1,0.1,0.1,0.2c0.1,0,0.1,0.1,0.2,0.1c0.1,0,0.2,0,0.3,0h0.4v-1.1h0.4v2.4h-0.4L171.4,30.6L171.4,30.6z"/>
				<path class="st13" d="M174.5,31.5h-0.4v-1.1H173v1.1h-0.4v-2.4h0.4v1h1.1v-1h0.4V31.5z"/>
				<path class="st13" d="M175.5,30c0.1,0,0.1,0,0.2,0c0,0,0.1,0,0.2,0c0.1,0,0.3,0,0.4,0.1c0.1,0,0.2,0.1,0.3,0.1
					c0.1,0.1,0.1,0.1,0.2,0.2c0,0.1,0.1,0.2,0.1,0.3c0,0.1,0,0.2-0.1,0.3s-0.1,0.2-0.2,0.2s-0.2,0.1-0.3,0.1s-0.2,0-0.4,0
					c-0.1,0-0.2,0-0.3,0c-0.1,0-0.2,0-0.3,0v-2.4h0.4L175.5,30L175.5,30z M176.2,30.8c0-0.1,0-0.2-0.1-0.3s-0.2-0.1-0.4-0.1
					c0,0-0.1,0-0.1,0s-0.1,0-0.1,0v0.8c0.1,0,0.1,0,0.1,0c0,0,0.1,0,0.1,0c0.1,0,0.2,0,0.2,0s0.1-0.1,0.1-0.1c0,0,0.1-0.1,0.1-0.1
					C176.2,30.9,176.2,30.8,176.2,30.8z M176.9,31.5v-2.4h0.4v2.4H176.9z"/>
				<path class="st13" d="M178.3,29.1v1.7l1-1.7h0.4v2.4h-0.4v-1.7l-1,1.7h-0.4v-2.4H178.3z M179.5,28.2c0,0.1,0,0.2-0.1,0.2
					s-0.1,0.1-0.1,0.2c-0.1,0.1-0.1,0.1-0.2,0.1c-0.1,0-0.2,0-0.3,0c-0.1,0-0.2,0-0.3,0c-0.1,0-0.2-0.1-0.2-0.1
					c-0.1-0.1-0.1-0.1-0.1-0.2s0-0.2,0-0.2h0.4c0,0,0,0.1,0,0.1c0,0,0,0.1,0.1,0.1c0,0,0.1,0.1,0.1,0.1c0,0,0.1,0,0.2,0
					c0.1,0,0.1,0,0.2,0c0,0,0.1,0,0.1-0.1c0,0,0-0.1,0.1-0.1c0,0,0-0.1,0-0.1H179.5z"/>
				<path class="st13" d="M162.6,35.3h-0.4v-2h-1.1v2h-0.4v-2.4h1.9L162.6,35.3L162.6,35.3z"/>
				<path class="st13" d="M165.4,34.1c0,0.2,0,0.4-0.1,0.6c-0.1,0.2-0.1,0.3-0.2,0.4c-0.1,0.1-0.2,0.2-0.4,0.2s-0.3,0.1-0.5,0.1
					c-0.1,0-0.1,0-0.2,0s-0.1,0-0.2,0v1h-0.4v-3.3h0.4l0,0.4c0.1-0.2,0.2-0.3,0.4-0.3s0.3-0.1,0.4-0.1c0.1,0,0.3,0,0.4,0.1
					s0.2,0.1,0.3,0.2c0.1,0.1,0.1,0.2,0.2,0.4C165.4,33.7,165.4,33.9,165.4,34.1z M165,34.1c0-0.1,0-0.2,0-0.3c0-0.1,0-0.2-0.1-0.3
					s-0.1-0.1-0.1-0.2c-0.1,0-0.1-0.1-0.2-0.1c-0.1,0-0.1,0-0.2,0c-0.1,0-0.1,0-0.2,0.1c-0.1,0-0.1,0.1-0.2,0.2
					c-0.1,0.1-0.1,0.1-0.2,0.2v1.2c0.1,0,0.2,0.1,0.2,0.1s0.2,0,0.2,0c0.2,0,0.4-0.1,0.5-0.2S165,34.4,165,34.1z"/>
				<path class="st13" d="M168,34.1c0,0.2,0,0.4-0.1,0.5s-0.1,0.3-0.2,0.4c-0.1,0.1-0.2,0.2-0.4,0.3c-0.1,0.1-0.3,0.1-0.5,0.1
					c-0.2,0-0.3,0-0.5-0.1c-0.1-0.1-0.2-0.1-0.3-0.2s-0.2-0.2-0.2-0.4c0-0.2-0.1-0.3-0.1-0.5c0-0.2,0-0.4,0.1-0.5s0.1-0.3,0.2-0.4
					s0.2-0.2,0.4-0.3c0.1-0.1,0.3-0.1,0.5-0.1c0.2,0,0.3,0,0.5,0.1c0.1,0.1,0.2,0.1,0.3,0.2c0.1,0.1,0.2,0.2,0.2,0.4
					C168,33.7,168,33.9,168,34.1z M167.6,34.1c0-0.1,0-0.3,0-0.4s-0.1-0.2-0.1-0.3c-0.1-0.1-0.1-0.1-0.2-0.2c-0.1,0-0.2-0.1-0.3-0.1
					c-0.1,0-0.2,0-0.3,0.1c-0.1,0-0.2,0.1-0.2,0.2c-0.1,0.1-0.1,0.2-0.1,0.3c0,0.1,0,0.2,0,0.3c0,0.1,0,0.3,0,0.4s0.1,0.2,0.1,0.3
					c0.1,0.1,0.1,0.1,0.2,0.2c0.1,0,0.2,0.1,0.3,0.1c0.1,0,0.2,0,0.3-0.1c0.1,0,0.2-0.1,0.2-0.2s0.1-0.2,0.1-0.3
					C167.6,34.3,167.6,34.2,167.6,34.1z"/>
				<path class="st13" d="M170.8,34.9l0,1h-0.4v-0.6h-1.7v0.6h-0.4l0-1h0c0.1,0,0.1,0,0.2,0c0.1,0,0.1-0.1,0.1-0.1
					c0-0.1,0.1-0.1,0.1-0.2s0.1-0.2,0.1-0.4c0-0.1,0.1-0.3,0.1-0.5c0-0.2,0-0.5,0.1-0.8h1.5v2C170.5,34.9,170.8,34.9,170.8,34.9z
					 M170.1,33.3h-0.7c0,0.3,0,0.5-0.1,0.7c0,0.2-0.1,0.4-0.1,0.5c0,0.1-0.1,0.2-0.1,0.3c0,0.1-0.1,0.1-0.1,0.2h1.1L170.1,33.3
					L170.1,33.3z"/>
				<path class="st13" d="M173.4,32.9l-0.8,2.1c-0.1,0.2-0.2,0.4-0.3,0.6c-0.1,0.2-0.2,0.3-0.3,0.4c-0.1,0.1-0.2,0.2-0.3,0.2
					c-0.1,0-0.3,0.1-0.4,0.1c0,0-0.1,0-0.1,0c0,0-0.1,0-0.1,0v-0.4c0,0,0.1,0,0.1,0c0,0,0.1,0,0.1,0c0.1,0,0.1,0,0.2,0
					c0.1,0,0.1-0.1,0.2-0.1s0.1-0.1,0.2-0.2c0.1-0.1,0.1-0.2,0.2-0.3l-0.9-2.4h0.5l0.6,1.6l0.1,0.4l0.1-0.4l0.6-1.6L173.4,32.9
					L173.4,32.9z"/>
				<path class="st13" d="M176,35.3h-0.6l-1.1-1.3v1.3H174v-2.4h0.4V34l1.1-1.1h0.5l-1.1,1.1L176,35.3z"/>
				<path class="st13" d="M178.6,33.3h-0.9v2h-0.4v-2h-0.9v-0.4h2.2L178.6,33.3L178.6,33.3z"/>
			</g>
			<g>
				<polygon class="st5" points="183,50.3 157.1,50.3 152,45.1 157.2,39.1 183,39.1 188.2,44.3 				"/>
				<g>
					<polyline class="st6" points="183.6,49.6 183,50.3 182.2,50.3 					"/>
					<line class="st7" x1="180.6" y1="50.3" x2="158.8" y2="50.3"/>
					<polyline class="st6" points="158,50.3 157.1,50.3 156.5,49.6 					"/>
					<line class="st14" x1="155.2" y1="48.3" x2="153.3" y2="46.3"/>
					<polyline class="st6" points="152.6,45.7 152,45.1 152.6,44.4 					"/>
					<line class="st15" x1="153.9" y1="42.9" x2="155.9" y2="40.5"/>
					<polyline class="st6" points="156.6,39.7 157.2,39.1 158,39.1 					"/>
					<line class="st7" x1="159.6" y1="39.1" x2="181.4" y2="39.1"/>
					<polyline class="st6" points="182.2,39.1 183,39.1 183.6,39.7 					"/>
					<line class="st16" x1="185" y1="41" x2="186.9" y2="43"/>
					<polyline class="st6" points="187.6,43.7 188.2,44.3 187.6,44.9 					"/>
					<line class="st11" x1="186.3" y1="46.5" x2="184.3" y2="48.8"/>
				</g>
			</g>
			<g>
				<rect x="157.1" y="40.7" class="st12" width="24.9" height="8"/>
				<path class="st13" d="M161.5,44H161l-1.1-1.5V44h-0.4v-3.1h0.4v1.4l1.1-1.4h0.5l-1.2,1.5L161.5,44z"/>
				<path class="st13" d="M164.1,42.8c0,0.2,0,0.4-0.1,0.5s-0.1,0.3-0.2,0.4c-0.1,0.1-0.2,0.2-0.4,0.3c-0.1,0.1-0.3,0.1-0.5,0.1
					c-0.2,0-0.3,0-0.5-0.1c-0.1-0.1-0.2-0.1-0.3-0.2s-0.2-0.2-0.2-0.4c0-0.2-0.1-0.3-0.1-0.5c0-0.2,0-0.4,0.1-0.5s0.1-0.3,0.2-0.4
					s0.2-0.2,0.4-0.3c0.1-0.1,0.3-0.1,0.5-0.1c0.2,0,0.3,0,0.5,0.1c0.1,0.1,0.2,0.1,0.3,0.2c0.1,0.1,0.2,0.2,0.2,0.4
					C164.1,42.4,164.1,42.6,164.1,42.8z M163.7,42.8c0-0.1,0-0.3,0-0.4s-0.1-0.2-0.1-0.3c-0.1-0.1-0.1-0.1-0.2-0.2
					c-0.1,0-0.2-0.1-0.3-0.1c-0.1,0-0.2,0-0.3,0.1c-0.1,0-0.2,0.1-0.2,0.2c-0.1,0.1-0.1,0.2-0.1,0.3c0,0.1,0,0.2,0,0.3
					c0,0.1,0,0.3,0,0.4s0.1,0.2,0.1,0.3c0.1,0.1,0.1,0.1,0.2,0.2c0.1,0,0.2,0.1,0.3,0.1c0.1,0,0.2,0,0.3-0.1c0.1,0,0.2-0.1,0.2-0.2
					s0.1-0.2,0.1-0.3C163.7,43,163.7,42.9,163.7,42.8z"/>
				<path class="st13" d="M166.6,44h-0.4V43h-1.1V44h-0.4v-2.4h0.4v1h1.1v-1h0.4V44z"/>
				<path class="st13" d="M169.3,42.7c0,0.1,0,0.1,0,0.1c0,0,0,0.1,0,0.1h-1.7c0,0.2,0.1,0.4,0.2,0.6c0.1,0.1,0.3,0.2,0.6,0.2
					c0.1,0,0.1,0,0.2,0c0.1,0,0.1,0,0.2,0c0.1,0,0.1,0,0.2,0s0.1,0,0.2,0v0.3c-0.1,0-0.2,0.1-0.4,0.1c-0.1,0-0.3,0-0.4,0
					c-0.2,0-0.4,0-0.5-0.1c-0.1-0.1-0.3-0.1-0.4-0.2c-0.1-0.1-0.2-0.2-0.2-0.4c0-0.2-0.1-0.3-0.1-0.5c0-0.2,0-0.3,0.1-0.5
					s0.1-0.3,0.2-0.4c0.1-0.1,0.2-0.2,0.3-0.3s0.3-0.1,0.5-0.1c0.2,0,0.3,0,0.4,0.1c0.1,0.1,0.2,0.1,0.3,0.2
					c0.1,0.1,0.2,0.2,0.2,0.3C169.3,42.4,169.3,42.5,169.3,42.7z M168.9,42.6c0-0.1,0-0.2,0-0.3c0-0.1-0.1-0.2-0.1-0.2
					c-0.1-0.1-0.1-0.1-0.2-0.1s-0.2-0.1-0.3-0.1c-0.1,0-0.2,0-0.2,0.1c-0.1,0-0.1,0.1-0.2,0.1c-0.1,0.1-0.1,0.1-0.1,0.2
					c0,0.1-0.1,0.2-0.1,0.3C167.6,42.6,168.9,42.6,168.9,42.6z"/>
				<path class="st13" d="M171.4,43.1H171c-0.4,0-0.6-0.1-0.8-0.2c-0.2-0.1-0.3-0.3-0.3-0.6v-0.7h0.4v0.6c0,0.1,0,0.2,0,0.2
					c0,0.1,0.1,0.1,0.1,0.2c0.1,0,0.1,0.1,0.2,0.1c0.1,0,0.2,0,0.3,0h0.4v-1.1h0.4V44h-0.4L171.4,43.1L171.4,43.1z"/>
				<path class="st13" d="M174.5,44h-0.4V43H173V44h-0.4v-2.4h0.4v1h1.1v-1h0.4V44z"/>
				<path class="st13" d="M175.5,42.5c0.1,0,0.1,0,0.2,0c0,0,0.1,0,0.2,0c0.1,0,0.3,0,0.4,0.1c0.1,0,0.2,0.1,0.3,0.1
					c0.1,0.1,0.1,0.1,0.2,0.2c0,0.1,0.1,0.2,0.1,0.3c0,0.1,0,0.2-0.1,0.3s-0.1,0.2-0.2,0.2s-0.2,0.1-0.3,0.1s-0.2,0-0.4,0
					c-0.1,0-0.2,0-0.3,0c-0.1,0-0.2,0-0.3,0v-2.4h0.4L175.5,42.5L175.5,42.5z M176.2,43.3c0-0.1,0-0.2-0.1-0.3s-0.2-0.1-0.4-0.1
					c0,0-0.1,0-0.1,0s-0.1,0-0.1,0v0.8c0.1,0,0.1,0,0.1,0c0,0,0.1,0,0.1,0c0.1,0,0.2,0,0.2,0s0.1-0.1,0.1-0.1c0,0,0.1-0.1,0.1-0.1
					C176.2,43.4,176.2,43.3,176.2,43.3z M176.9,44v-2.4h0.4V44H176.9z"/>
				<path class="st13" d="M178.3,41.6v1.7l1-1.7h0.4V44h-0.4v-1.7l-1,1.7h-0.4v-2.4H178.3z M179.5,40.7c0,0.1,0,0.2-0.1,0.2
					s-0.1,0.1-0.1,0.2c-0.1,0.1-0.1,0.1-0.2,0.1c-0.1,0-0.2,0-0.3,0c-0.1,0-0.2,0-0.3,0c-0.1,0-0.2-0.1-0.2-0.1
					c-0.1-0.1-0.1-0.1-0.1-0.2s0-0.2,0-0.2h0.4c0,0,0,0.1,0,0.1c0,0,0,0.1,0.1,0.1c0,0,0.1,0.1,0.1,0.1c0,0,0.1,0,0.2,0
					c0.1,0,0.1,0,0.2,0c0,0,0.1,0,0.1-0.1c0,0,0-0.1,0.1-0.1c0,0,0-0.1,0-0.1H179.5z"/>
				<path class="st13" d="M162.6,47.8h-0.4v-2h-1.1v2h-0.4v-2.4h1.9L162.6,47.8L162.6,47.8z"/>
				<path class="st13" d="M165.4,46.6c0,0.2,0,0.4-0.1,0.6c-0.1,0.2-0.1,0.3-0.2,0.4c-0.1,0.1-0.2,0.2-0.4,0.2s-0.3,0.1-0.5,0.1
					c-0.1,0-0.1,0-0.2,0s-0.1,0-0.2,0v1h-0.4v-3.3h0.4l0,0.4c0.1-0.2,0.2-0.3,0.4-0.3s0.3-0.1,0.4-0.1c0.1,0,0.3,0,0.4,0.1
					s0.2,0.1,0.3,0.2c0.1,0.1,0.1,0.2,0.2,0.4C165.4,46.2,165.4,46.4,165.4,46.6z M165,46.6c0-0.1,0-0.2,0-0.3c0-0.1,0-0.2-0.1-0.3
					s-0.1-0.1-0.1-0.2c-0.1,0-0.1-0.1-0.2-0.1c-0.1,0-0.1,0-0.2,0c-0.1,0-0.1,0-0.2,0.1c-0.1,0-0.1,0.1-0.2,0.2
					c-0.1,0.1-0.1,0.1-0.2,0.2v1.2c0.1,0,0.2,0.1,0.2,0.1s0.2,0,0.2,0c0.2,0,0.4-0.1,0.5-0.2S165,46.9,165,46.6z"/>
				<path class="st13" d="M168,46.6c0,0.2,0,0.4-0.1,0.5s-0.1,0.3-0.2,0.4c-0.1,0.1-0.2,0.2-0.4,0.3c-0.1,0.1-0.3,0.1-0.5,0.1
					c-0.2,0-0.3,0-0.5-0.1c-0.1-0.1-0.2-0.1-0.3-0.2s-0.2-0.2-0.2-0.4c0-0.2-0.1-0.3-0.1-0.5c0-0.2,0-0.4,0.1-0.5s0.1-0.3,0.2-0.4
					s0.2-0.2,0.4-0.3c0.1-0.1,0.3-0.1,0.5-0.1c0.2,0,0.3,0,0.5,0.1c0.1,0.1,0.2,0.1,0.3,0.2c0.1,0.1,0.2,0.2,0.2,0.4
					C168,46.2,168,46.4,168,46.6z M167.6,46.6c0-0.1,0-0.3,0-0.4s-0.1-0.2-0.1-0.3c-0.1-0.1-0.1-0.1-0.2-0.2c-0.1,0-0.2-0.1-0.3-0.1
					c-0.1,0-0.2,0-0.3,0.1c-0.1,0-0.2,0.1-0.2,0.2c-0.1,0.1-0.1,0.2-0.1,0.3c0,0.1,0,0.2,0,0.3c0,0.1,0,0.3,0,0.4s0.1,0.2,0.1,0.3
					c0.1,0.1,0.1,0.1,0.2,0.2c0.1,0,0.2,0.1,0.3,0.1c0.1,0,0.2,0,0.3-0.1c0.1,0,0.2-0.1,0.2-0.2s0.1-0.2,0.1-0.3
					C167.6,46.9,167.6,46.7,167.6,46.6z"/>
				<path class="st13" d="M170.8,47.5l0,1h-0.4v-0.6h-1.7v0.6h-0.4l0-1h0c0.1,0,0.1,0,0.2,0c0.1,0,0.1-0.1,0.1-0.1
					c0-0.1,0.1-0.1,0.1-0.2s0.1-0.2,0.1-0.4c0-0.1,0.1-0.3,0.1-0.5c0-0.2,0-0.5,0.1-0.8h1.5v2C170.5,47.5,170.8,47.5,170.8,47.5z
					 M170.1,45.8h-0.7c0,0.3,0,0.5-0.1,0.7c0,0.2-0.1,0.4-0.1,0.5c0,0.1-0.1,0.2-0.1,0.3c0,0.1-0.1,0.1-0.1,0.2h1.1L170.1,45.8
					L170.1,45.8z"/>
				<path class="st13" d="M173.4,45.4l-0.8,2.1c-0.1,0.2-0.2,0.4-0.3,0.6c-0.1,0.2-0.2,0.3-0.3,0.4c-0.1,0.1-0.2,0.2-0.3,0.2
					c-0.1,0-0.3,0.1-0.4,0.1c0,0-0.1,0-0.1,0c0,0-0.1,0-0.1,0v-0.4c0,0,0.1,0,0.1,0c0,0,0.1,0,0.1,0c0.1,0,0.1,0,0.2,0
					c0.1,0,0.1-0.1,0.2-0.1s0.1-0.1,0.2-0.2c0.1-0.1,0.1-0.2,0.2-0.3l-0.9-2.4h0.5l0.6,1.6l0.1,0.4l0.1-0.4l0.6-1.6L173.4,45.4
					L173.4,45.4z"/>
				<path class="st13" d="M176,47.8h-0.6l-1.1-1.3v1.3H174v-2.4h0.4v1.1l1.1-1.1h0.5l-1.1,1.1L176,47.8z"/>
				<path class="st13" d="M178.6,45.8h-0.9v2h-0.4v-2h-0.9v-0.4h2.2L178.6,45.8L178.6,45.8z"/>
			</g>
			<g>
				<rect x="221.5" y="101.4" class="st12" width="24.9" height="4.3"/>
				<path class="st13" d="M227.1,104.7h-0.4V102h-1.3v2.7H225v-3.1h2.1L227.1,104.7L227.1,104.7z"/>
				<path class="st13" d="M229.8,103.5c0,0.2,0,0.4-0.1,0.6c-0.1,0.2-0.1,0.3-0.2,0.4c-0.1,0.1-0.2,0.2-0.4,0.2s-0.3,0.1-0.5,0.1
					c-0.1,0-0.1,0-0.2,0s-0.1,0-0.2,0v1h-0.4v-3.3h0.4l0,0.4c0.1-0.2,0.2-0.3,0.4-0.3s0.3-0.1,0.4-0.1c0.1,0,0.3,0,0.4,0.1
					s0.2,0.1,0.3,0.2c0.1,0.1,0.1,0.2,0.2,0.4C229.7,103.2,229.8,103.3,229.8,103.5z M229.3,103.5c0-0.1,0-0.2,0-0.3
					c0-0.1,0-0.2-0.1-0.3s-0.1-0.1-0.1-0.2c-0.1,0-0.1-0.1-0.2-0.1c-0.1,0-0.1,0-0.2,0s-0.1,0-0.2,0.1c-0.1,0-0.1,0.1-0.2,0.2
					c-0.1,0.1-0.1,0.1-0.2,0.2v1.2c0.1,0,0.2,0.1,0.2,0.1s0.2,0,0.2,0c0.2,0,0.4-0.1,0.5-0.2S229.3,103.8,229.3,103.5z"/>
				<path class="st13" d="M232.4,103.5c0,0.2,0,0.4-0.1,0.5c-0.1,0.2-0.1,0.3-0.2,0.4c-0.1,0.1-0.2,0.2-0.4,0.3
					c-0.1,0.1-0.3,0.1-0.5,0.1c-0.2,0-0.3,0-0.5-0.1c-0.1-0.1-0.2-0.1-0.3-0.2s-0.2-0.2-0.2-0.4c0-0.2-0.1-0.3-0.1-0.5
					c0-0.2,0-0.4,0.1-0.5s0.1-0.3,0.2-0.4s0.2-0.2,0.4-0.3c0.1-0.1,0.3-0.1,0.5-0.1c0.2,0,0.3,0,0.5,0.1c0.1,0.1,0.2,0.1,0.3,0.2
					c0.1,0.1,0.2,0.2,0.2,0.4C232.4,103.2,232.4,103.3,232.4,103.5z M232,103.5c0-0.1,0-0.3,0-0.4s-0.1-0.2-0.1-0.3
					c-0.1-0.1-0.1-0.1-0.2-0.2c-0.1,0-0.2-0.1-0.3-0.1c-0.1,0-0.2,0-0.3,0.1c-0.1,0-0.2,0.1-0.2,0.2c-0.1,0.1-0.1,0.2-0.1,0.3
					c0,0.1,0,0.2,0,0.3c0,0.1,0,0.3,0,0.4s0.1,0.2,0.1,0.3c0.1,0.1,0.1,0.1,0.2,0.2c0.1,0,0.2,0.1,0.3,0.1c0.1,0,0.2,0,0.3-0.1
					c0.1,0,0.2-0.1,0.2-0.2s0.1-0.2,0.1-0.3C232,103.8,232,103.7,232,103.5z"/>
				<path class="st13" d="M235.2,104.4l0,1h-0.4v-0.6h-1.7v0.6h-0.4l0-1h0c0.1,0,0.1,0,0.2,0c0.1,0,0.1-0.1,0.1-0.1
					c0-0.1,0.1-0.1,0.1-0.2s0.1-0.2,0.1-0.4c0-0.1,0.1-0.3,0.1-0.5c0-0.2,0-0.5,0.1-0.8h1.5v2H235.2z M234.5,102.7h-0.7
					c0,0.3,0,0.5-0.1,0.7c0,0.2-0.1,0.4-0.1,0.5c0,0.1-0.1,0.2-0.1,0.3c0,0.1-0.1,0.1-0.1,0.2h1.1L234.5,102.7L234.5,102.7z"/>
				<path class="st13" d="M237.8,102.4l-0.8,2.1c-0.1,0.2-0.2,0.4-0.3,0.6c-0.1,0.2-0.2,0.3-0.3,0.4c-0.1,0.1-0.2,0.2-0.3,0.2
					c-0.1,0-0.3,0.1-0.4,0.1c0,0-0.1,0-0.1,0c0,0-0.1,0-0.1,0v-0.4c0,0,0.1,0,0.1,0c0,0,0.1,0,0.1,0c0.1,0,0.1,0,0.2,0
					c0.1,0,0.1-0.1,0.2-0.1s0.1-0.1,0.2-0.2c0.1-0.1,0.1-0.2,0.2-0.3l-0.9-2.4h0.5l0.6,1.6l0.1,0.4l0.1-0.4l0.6-1.6L237.8,102.4
					L237.8,102.4z"/>
				<path class="st13" d="M240.4,104.7h-0.6l-1.1-1.3v1.3h-0.4v-2.4h0.4v1.1l1.1-1.1h0.5l-1.1,1.1L240.4,104.7z"/>
				<path class="st13" d="M243,102.7h-0.9v2h-0.4v-2h-0.9v-0.4h2.2L243,102.7L243,102.7z"/>
			</g>
			<g>
				<polygon class="st5" points="163.5,66 137.6,66 132.5,60.4 137.6,54.8 163.5,54.8 168.7,60.3 				"/>
				<g>
					<polyline class="st6" points="164.1,65.4 163.5,66 162.6,66 					"/>
					<line class="st17" x1="161" y1="66" x2="139.3" y2="66"/>
					<polyline class="st6" points="138.5,66 137.6,66 137,65.4 					"/>
					<line class="st18" x1="135.7" y1="63.9" x2="133.7" y2="61.8"/>
					<polyline class="st6" points="133.1,61 132.5,60.4 133.1,59.8 					"/>
					<line class="st19" x1="134.4" y1="58.3" x2="136.4" y2="56.2"/>
					<polyline class="st6" points="137.1,55.4 137.6,54.8 138.5,54.8 					"/>
					<line class="st17" x1="140.1" y1="54.8" x2="161.9" y2="54.8"/>
					<polyline class="st6" points="162.7,54.8 163.5,54.8 164.1,55.4 					"/>
					<line class="st20" x1="165.4" y1="56.9" x2="167.4" y2="59"/>
					<polyline class="st6" points="168.1,59.7 168.7,60.3 168.1,61 					"/>
					<line class="st21" x1="166.7" y1="62.4" x2="164.7" y2="64.6"/>
				</g>
			</g>
			<g>
				<rect x="138.1" y="56.4" class="st12" width="24.9" height="8"/>
				<path class="st13" d="M142.5,59.7H142l-1.1-1.5v1.5h-0.4v-3.1h0.4v1.4l1.1-1.4h0.5l-1.2,1.5L142.5,59.7z"/>
				<path class="st13" d="M145.1,58.5c0,0.2,0,0.4-0.1,0.5s-0.1,0.3-0.2,0.4c-0.1,0.1-0.2,0.2-0.4,0.3c-0.1,0.1-0.3,0.1-0.5,0.1
					c-0.2,0-0.3,0-0.5-0.1c-0.1-0.1-0.2-0.1-0.3-0.2s-0.2-0.2-0.2-0.4c0-0.2-0.1-0.3-0.1-0.5c0-0.2,0-0.4,0.1-0.5s0.1-0.3,0.2-0.4
					s0.2-0.2,0.4-0.3c0.1-0.1,0.3-0.1,0.5-0.1c0.2,0,0.3,0,0.5,0.1c0.1,0.1,0.2,0.1,0.3,0.2c0.1,0.1,0.2,0.2,0.2,0.4
					C145.1,58.2,145.1,58.3,145.1,58.5z M144.7,58.6c0-0.1,0-0.3,0-0.4s-0.1-0.2-0.1-0.3c-0.1-0.1-0.1-0.1-0.2-0.2
					c-0.1,0-0.2-0.1-0.3-0.1c-0.1,0-0.2,0-0.3,0.1c-0.1,0-0.2,0.1-0.2,0.2c-0.1,0.1-0.1,0.2-0.1,0.3c0,0.1,0,0.2,0,0.3
					c0,0.1,0,0.3,0,0.4s0.1,0.2,0.1,0.3c0.1,0.1,0.1,0.1,0.2,0.2c0.1,0,0.2,0.1,0.3,0.1c0.1,0,0.2,0,0.3-0.1c0.1,0,0.2-0.1,0.2-0.2
					s0.1-0.2,0.1-0.3C144.7,58.8,144.7,58.7,144.7,58.6z"/>
				<path class="st13" d="M147.6,59.7h-0.4v-1.1h-1.1v1.1h-0.4v-2.4h0.4v1h1.1v-1h0.4V59.7z"/>
				<path class="st13" d="M150.3,58.4c0,0.1,0,0.1,0,0.1c0,0,0,0.1,0,0.1h-1.7c0,0.2,0.1,0.4,0.2,0.6c0.1,0.1,0.3,0.2,0.6,0.2
					c0.1,0,0.1,0,0.2,0c0.1,0,0.1,0,0.2,0c0.1,0,0.1,0,0.2,0s0.1,0,0.2,0v0.3c-0.1,0-0.2,0.1-0.4,0.1c-0.1,0-0.3,0-0.4,0
					c-0.2,0-0.4,0-0.5-0.1c-0.1-0.1-0.3-0.1-0.4-0.2c-0.1-0.1-0.2-0.2-0.2-0.4c0-0.2-0.1-0.3-0.1-0.5c0-0.2,0-0.3,0.1-0.5
					s0.1-0.3,0.2-0.4c0.1-0.1,0.2-0.2,0.3-0.3s0.3-0.1,0.5-0.1c0.2,0,0.3,0,0.4,0.1c0.1,0.1,0.2,0.1,0.3,0.2
					c0.1,0.1,0.2,0.2,0.2,0.3C150.3,58.1,150.3,58.3,150.3,58.4z M149.9,58.4c0-0.1,0-0.2,0-0.3c0-0.1-0.1-0.2-0.1-0.2
					c-0.1-0.1-0.1-0.1-0.2-0.1s-0.2-0.1-0.3-0.1c-0.1,0-0.2,0-0.2,0.1c-0.1,0-0.1,0.1-0.2,0.1c-0.1,0.1-0.1,0.1-0.1,0.2
					c0,0.1-0.1,0.2-0.1,0.3C148.6,58.4,149.9,58.4,149.9,58.4z"/>
				<path class="st13" d="M152.4,58.8h-0.5c-0.4,0-0.6-0.1-0.8-0.2c-0.2-0.1-0.3-0.3-0.3-0.6v-0.7h0.4V58c0,0.1,0,0.2,0,0.2
					c0,0.1,0.1,0.1,0.1,0.2c0.1,0,0.1,0.1,0.2,0.1c0.1,0,0.2,0,0.3,0h0.4v-1.1h0.4v2.4h-0.4L152.4,58.8L152.4,58.8z"/>
				<path class="st13" d="M155.5,59.7h-0.4v-1.1H154v1.1h-0.4v-2.4h0.4v1h1.1v-1h0.4V59.7z"/>
				<path class="st13" d="M156.4,58.3c0.1,0,0.1,0,0.2,0c0,0,0.1,0,0.2,0c0.1,0,0.3,0,0.4,0.1c0.1,0,0.2,0.1,0.3,0.1
					c0.1,0.1,0.1,0.1,0.2,0.2c0,0.1,0.1,0.2,0.1,0.3c0,0.1,0,0.2-0.1,0.3s-0.1,0.2-0.2,0.2s-0.2,0.1-0.3,0.1s-0.2,0-0.4,0
					c-0.1,0-0.2,0-0.3,0c-0.1,0-0.2,0-0.3,0v-2.4h0.4L156.4,58.3L156.4,58.3z M157.2,59c0-0.1,0-0.2-0.1-0.3s-0.2-0.1-0.4-0.1
					c0,0-0.1,0-0.1,0s-0.1,0-0.1,0v0.8c0.1,0,0.1,0,0.1,0c0,0,0.1,0,0.1,0c0.1,0,0.2,0,0.2,0s0.1-0.1,0.1-0.1c0,0,0.1-0.1,0.1-0.1
					C157.2,59.1,157.2,59.1,157.2,59z M157.9,59.7v-2.4h0.4v2.4H157.9z"/>
				<path class="st13" d="M159.3,57.4V59l1-1.7h0.4v2.4h-0.4v-1.7l-1,1.7h-0.4v-2.4H159.3z M160.5,56.4c0,0.1,0,0.2-0.1,0.2
					s-0.1,0.1-0.1,0.2c-0.1,0.1-0.1,0.1-0.2,0.1c-0.1,0-0.2,0-0.3,0c-0.1,0-0.2,0-0.3,0c-0.1,0-0.2-0.1-0.2-0.1
					c-0.1-0.1-0.1-0.1-0.1-0.2s0-0.2,0-0.2h0.4c0,0,0,0.1,0,0.1c0,0,0,0.1,0.1,0.1c0,0,0.1,0.1,0.1,0.1c0,0,0.1,0,0.2,0
					c0.1,0,0.1,0,0.2,0c0,0,0.1,0,0.1-0.1c0,0,0-0.1,0.1-0.1c0,0,0-0.1,0-0.1H160.5z"/>
				<path class="st13" d="M143.6,63.5h-0.4v-2h-1.1v2h-0.4v-2.4h1.9L143.6,63.5L143.6,63.5z"/>
				<path class="st13" d="M146.4,62.3c0,0.2,0,0.4-0.1,0.6c-0.1,0.2-0.1,0.3-0.2,0.4c-0.1,0.1-0.2,0.2-0.4,0.2s-0.3,0.1-0.5,0.1
					c-0.1,0-0.1,0-0.2,0s-0.1,0-0.2,0v1h-0.4v-3.3h0.4l0,0.4c0.1-0.2,0.2-0.3,0.4-0.3s0.3-0.1,0.4-0.1c0.1,0,0.3,0,0.4,0.1
					s0.2,0.1,0.3,0.2c0.1,0.1,0.1,0.2,0.2,0.4C146.3,62,146.4,62.1,146.4,62.3z M145.9,62.3c0-0.1,0-0.2,0-0.3c0-0.1,0-0.2-0.1-0.3
					s-0.1-0.1-0.1-0.2c-0.1,0-0.1-0.1-0.2-0.1c-0.1,0-0.1,0-0.2,0c-0.1,0-0.1,0-0.2,0.1c-0.1,0-0.1,0.1-0.2,0.2
					c-0.1,0.1-0.1,0.1-0.2,0.2v1.2c0.1,0,0.2,0.1,0.2,0.1s0.2,0,0.2,0c0.2,0,0.4-0.1,0.5-0.2S145.9,62.6,145.9,62.3z"/>
				<path class="st13" d="M149,62.3c0,0.2,0,0.4-0.1,0.5s-0.1,0.3-0.2,0.4c-0.1,0.1-0.2,0.2-0.4,0.3c-0.1,0.1-0.3,0.1-0.5,0.1
					c-0.2,0-0.3,0-0.5-0.1c-0.1-0.1-0.2-0.1-0.3-0.2s-0.2-0.2-0.2-0.4c0-0.2-0.1-0.3-0.1-0.5c0-0.2,0-0.4,0.1-0.5s0.1-0.3,0.2-0.4
					s0.2-0.2,0.4-0.3c0.1-0.1,0.3-0.1,0.5-0.1c0.2,0,0.3,0,0.5,0.1c0.1,0.1,0.2,0.1,0.3,0.2c0.1,0.1,0.2,0.2,0.2,0.4
					C149,62,149,62.1,149,62.3z M148.6,62.4c0-0.1,0-0.3,0-0.4s-0.1-0.2-0.1-0.3c-0.1-0.1-0.1-0.1-0.2-0.2c-0.1,0-0.2-0.1-0.3-0.1
					c-0.1,0-0.2,0-0.3,0.1c-0.1,0-0.2,0.1-0.2,0.2c-0.1,0.1-0.1,0.2-0.1,0.3c0,0.1,0,0.2,0,0.3c0,0.1,0,0.3,0,0.4s0.1,0.2,0.1,0.3
					c0.1,0.1,0.1,0.1,0.2,0.2c0.1,0,0.2,0.1,0.3,0.1c0.1,0,0.2,0,0.3-0.1c0.1,0,0.2-0.1,0.2-0.2s0.1-0.2,0.1-0.3
					C148.6,62.6,148.6,62.5,148.6,62.4z"/>
				<path class="st13" d="M151.8,63.2l0,1h-0.4v-0.6h-1.7v0.6h-0.4l0-1h0c0.1,0,0.1,0,0.2,0c0.1,0,0.1-0.1,0.1-0.1
					c0-0.1,0.1-0.1,0.1-0.2s0.1-0.2,0.1-0.4c0-0.1,0.1-0.3,0.1-0.5c0-0.2,0-0.5,0.1-0.8h1.5v2C151.5,63.2,151.8,63.2,151.8,63.2z
					 M151.1,61.5h-0.7c0,0.3,0,0.5-0.1,0.7c0,0.2-0.1,0.4-0.1,0.5c0,0.1-0.1,0.2-0.1,0.3c0,0.1-0.1,0.1-0.1,0.2h1.1L151.1,61.5
					L151.1,61.5z"/>
				<path class="st13" d="M154.4,61.2l-0.8,2.1c-0.1,0.2-0.2,0.4-0.3,0.6c-0.1,0.2-0.2,0.3-0.3,0.4c-0.1,0.1-0.2,0.2-0.3,0.2
					c-0.1,0-0.3,0.1-0.4,0.1c0,0-0.1,0-0.1,0c0,0-0.1,0-0.1,0v-0.4c0,0,0.1,0,0.1,0c0,0,0.1,0,0.1,0c0.1,0,0.1,0,0.2,0
					c0.1,0,0.1-0.1,0.2-0.1s0.1-0.1,0.2-0.2c0.1-0.1,0.1-0.2,0.2-0.3l-0.9-2.4h0.5l0.6,1.6l0.1,0.4l0.1-0.4l0.6-1.6L154.4,61.2
					L154.4,61.2z"/>
				<path class="st13" d="M157,63.5h-0.6l-1.1-1.3v1.3H155v-2.4h0.4v1.1l1.1-1.1h0.5l-1.1,1.1L157,63.5z"/>
				<path class="st13" d="M159.6,61.5h-0.9v2h-0.4v-2h-0.9v-0.4h2.2L159.6,61.5L159.6,61.5z"/>
			</g>
			<g>
				<polygon class="st5" points="197.5,84.1 171.6,84.1 166.5,78.5 171.6,72.9 197.5,72.9 202.6,78.4 				"/>
				<g>
					<polyline class="st6" points="198,83.4 197.5,84.1 196.6,84.1 					"/>
					<line class="st7" x1="195" y1="84.1" x2="173.2" y2="84.1"/>
					<polyline class="st6" points="172.4,84.1 171.6,84.1 171,83.4 					"/>
					<line class="st22" x1="169.7" y1="82" x2="167.7" y2="79.8"/>
					<polyline class="st6" points="167,79.1 166.5,78.5 167,77.8 					"/>
					<line class="st23" x1="168.4" y1="76.4" x2="170.4" y2="74.2"/>
					<polyline class="st6" points="171,73.5 171.6,72.9 172.5,72.9 					"/>
					<line class="st17" x1="174.1" y1="72.9" x2="195.8" y2="72.9"/>
					<polyline class="st6" points="196.6,72.9 197.5,72.9 198.1,73.5 					"/>
					<line class="st20" x1="199.4" y1="74.9" x2="201.4" y2="77.1"/>
					<polyline class="st6" points="202,77.8 202.6,78.4 202,79 					"/>
					<line class="st24" x1="200.7" y1="80.5" x2="198.7" y2="82.7"/>
				</g>
			</g>
			<g>
				<rect x="172.1" y="74.5" class="st12" width="24.9" height="8"/>
				<path class="st13" d="M176.4,77.8h-0.5l-1.1-1.5v1.5h-0.4v-3.1h0.4v1.4l1.1-1.4h0.5l-1.2,1.5L176.4,77.8z"/>
				<path class="st13" d="M179,76.6c0,0.2,0,0.4-0.1,0.5c-0.1,0.2-0.1,0.3-0.2,0.4c-0.1,0.1-0.2,0.2-0.4,0.3
					c-0.1,0.1-0.3,0.1-0.5,0.1c-0.2,0-0.3,0-0.5-0.1c-0.1-0.1-0.2-0.1-0.3-0.2s-0.2-0.2-0.2-0.4c0-0.2-0.1-0.3-0.1-0.5
					c0-0.2,0-0.4,0.1-0.5s0.1-0.3,0.2-0.4s0.2-0.2,0.4-0.3c0.1-0.1,0.3-0.1,0.5-0.1c0.2,0,0.3,0,0.5,0.1c0.1,0.1,0.2,0.1,0.3,0.2
					c0.1,0.1,0.2,0.2,0.2,0.4C179,76.2,179,76.4,179,76.6z M178.6,76.6c0-0.1,0-0.3,0-0.4s-0.1-0.2-0.1-0.3
					c-0.1-0.1-0.1-0.1-0.2-0.2c-0.1,0-0.2-0.1-0.3-0.1c-0.1,0-0.2,0-0.3,0.1c-0.1,0-0.2,0.1-0.2,0.2c-0.1,0.1-0.1,0.2-0.1,0.3
					c0,0.1,0,0.2,0,0.3c0,0.1,0,0.3,0,0.4s0.1,0.2,0.1,0.3c0.1,0.1,0.1,0.1,0.2,0.2c0.1,0,0.2,0.1,0.3,0.1c0.1,0,0.2,0,0.3-0.1
					c0.1,0,0.2-0.1,0.2-0.2s0.1-0.2,0.1-0.3C178.6,76.9,178.6,76.7,178.6,76.6z"/>
				<path class="st13" d="M181.5,77.8h-0.4v-1.1H180v1.1h-0.4v-2.4h0.4v1h1.1v-1h0.4V77.8z"/>
				<path class="st13" d="M184.3,76.5c0,0.1,0,0.1,0,0.1c0,0,0,0.1,0,0.1h-1.7c0,0.2,0.1,0.4,0.2,0.6c0.1,0.1,0.3,0.2,0.6,0.2
					c0.1,0,0.1,0,0.2,0c0.1,0,0.1,0,0.2,0c0.1,0,0.1,0,0.2,0s0.1,0,0.2,0v0.3c-0.1,0-0.2,0.1-0.4,0.1c-0.1,0-0.3,0-0.4,0
					c-0.2,0-0.4,0-0.5-0.1c-0.1-0.1-0.3-0.1-0.4-0.2c-0.1-0.1-0.2-0.2-0.2-0.4c0-0.2-0.1-0.3-0.1-0.5c0-0.2,0-0.3,0.1-0.5
					s0.1-0.3,0.2-0.4c0.1-0.1,0.2-0.2,0.3-0.3c0.1-0.1,0.3-0.1,0.5-0.1c0.2,0,0.3,0,0.4,0.1c0.1,0.1,0.2,0.1,0.3,0.2
					c0.1,0.1,0.2,0.2,0.2,0.3C184.2,76.2,184.3,76.3,184.3,76.5z M183.8,76.4c0-0.1,0-0.2,0-0.3c0-0.1-0.1-0.2-0.1-0.2
					c-0.1-0.1-0.1-0.1-0.2-0.1s-0.2-0.1-0.3-0.1c-0.1,0-0.2,0-0.2,0.1c-0.1,0-0.1,0.1-0.2,0.1c-0.1,0.1-0.1,0.1-0.1,0.2
					c0,0.1-0.1,0.2-0.1,0.3H183.8z"/>
				<path class="st13" d="M186.4,76.9h-0.5c-0.4,0-0.6-0.1-0.8-0.2c-0.2-0.1-0.3-0.3-0.3-0.6v-0.7h0.4V76c0,0.1,0,0.2,0,0.2
					c0,0.1,0.1,0.1,0.1,0.2c0.1,0,0.1,0.1,0.2,0.1c0.1,0,0.2,0,0.3,0h0.4v-1.1h0.4v2.4h-0.4L186.4,76.9L186.4,76.9z"/>
				<path class="st13" d="M189.4,77.8H189v-1.1H188v1.1h-0.4v-2.4h0.4v1h1.1v-1h0.4V77.8z"/>
				<path class="st13" d="M190.4,76.4c0.1,0,0.1,0,0.2,0c0,0,0.1,0,0.2,0c0.1,0,0.3,0,0.4,0.1c0.1,0,0.2,0.1,0.3,0.1
					c0.1,0.1,0.1,0.1,0.2,0.2c0,0.1,0.1,0.2,0.1,0.3c0,0.1,0,0.2-0.1,0.3s-0.1,0.2-0.2,0.2s-0.2,0.1-0.3,0.1s-0.2,0.1-0.4,0.1
					c-0.1,0-0.2,0-0.3,0c-0.1,0-0.2,0-0.3,0v-2.4h0.4L190.4,76.4L190.4,76.4z M191.2,77.1c0-0.1,0-0.2-0.1-0.3s-0.2-0.1-0.4-0.1
					c0,0-0.1,0-0.1,0s-0.1,0-0.1,0v0.8c0.1,0,0.1,0,0.1,0c0,0,0.1,0,0.1,0c0.1,0,0.2,0,0.2,0s0.1-0.1,0.1-0.1c0,0,0.1-0.1,0.1-0.1
					C191.2,77.2,191.2,77.1,191.2,77.1z M191.9,77.8v-2.4h0.4v2.4H191.9z"/>
				<path class="st13" d="M193.3,75.4v1.7l1-1.7h0.4v2.4h-0.4v-1.7l-1,1.7h-0.4v-2.4H193.3z M194.5,74.5c0,0.1,0,0.2-0.1,0.2
					s-0.1,0.1-0.1,0.2c-0.1,0.1-0.1,0.1-0.2,0.1c-0.1,0-0.2,0-0.3,0c-0.1,0-0.2,0-0.3,0c-0.1,0-0.2-0.1-0.2-0.1
					c-0.1-0.1-0.1-0.1-0.1-0.2s0-0.2,0-0.2h0.4c0,0,0,0.1,0,0.1c0,0,0,0.1,0.1,0.1c0,0,0.1,0.1,0.1,0.1c0,0,0.1,0,0.2,0
					c0.1,0,0.1,0,0.2,0c0,0,0.1,0,0.1-0.1c0,0,0-0.1,0.1-0.1c0,0,0-0.1,0-0.1H194.5z"/>
				<path class="st13" d="M177.6,81.6h-0.4v-2h-1.1v2h-0.4v-2.4h1.9L177.6,81.6L177.6,81.6z"/>
				<path class="st13" d="M180.3,80.4c0,0.2,0,0.4-0.1,0.6c-0.1,0.2-0.1,0.3-0.2,0.4c-0.1,0.1-0.2,0.2-0.4,0.2s-0.3,0.1-0.5,0.1
					c-0.1,0-0.1,0-0.2,0s-0.1,0-0.2,0v1h-0.4v-3.3h0.4l0,0.4c0.1-0.2,0.2-0.3,0.4-0.3s0.3-0.1,0.4-0.1c0.1,0,0.3,0,0.4,0.1
					s0.2,0.1,0.3,0.2c0.1,0.1,0.1,0.2,0.2,0.4C180.3,80.1,180.3,80.2,180.3,80.4z M179.9,80.4c0-0.1,0-0.2,0-0.3
					c0-0.1,0-0.2-0.1-0.3s-0.1-0.1-0.1-0.2c-0.1,0-0.1-0.1-0.2-0.1c-0.1,0-0.1,0-0.2,0s-0.1,0-0.2,0.1c-0.1,0-0.1,0.1-0.2,0.2
					c-0.1,0.1-0.1,0.1-0.2,0.2v1.2c0.1,0,0.2,0.1,0.2,0.1s0.2,0,0.2,0c0.2,0,0.4-0.1,0.5-0.2S179.9,80.7,179.9,80.4z"/>
				<path class="st13" d="M183,80.4c0,0.2,0,0.4-0.1,0.5c-0.1,0.2-0.1,0.3-0.2,0.4c-0.1,0.1-0.2,0.2-0.4,0.3
					c-0.1,0.1-0.3,0.1-0.5,0.1c-0.2,0-0.3,0-0.5-0.1c-0.1-0.1-0.2-0.1-0.3-0.2s-0.2-0.2-0.2-0.4c0-0.2-0.1-0.3-0.1-0.5
					c0-0.2,0-0.4,0.1-0.5s0.1-0.3,0.2-0.4s0.2-0.2,0.4-0.3c0.1-0.1,0.3-0.1,0.5-0.1c0.2,0,0.3,0,0.5,0.1c0.1,0.1,0.2,0.1,0.3,0.2
					c0.1,0.1,0.2,0.2,0.2,0.4C183,80,183,80.2,183,80.4z M182.6,80.4c0-0.1,0-0.3,0-0.4s-0.1-0.2-0.1-0.3c-0.1-0.1-0.1-0.1-0.2-0.2
					c-0.1,0-0.2-0.1-0.3-0.1c-0.1,0-0.2,0-0.3,0.1c-0.1,0-0.2,0.1-0.2,0.2c-0.1,0.1-0.1,0.2-0.1,0.3c0,0.1,0,0.2,0,0.3
					c0,0.1,0,0.3,0,0.4s0.1,0.2,0.1,0.3c0.1,0.1,0.1,0.1,0.2,0.2c0.1,0,0.2,0.1,0.3,0.1c0.1,0,0.2,0,0.3-0.1c0.1,0,0.2-0.1,0.2-0.2
					s0.1-0.2,0.1-0.3C182.6,80.7,182.6,80.6,182.6,80.4z"/>
				<path class="st13" d="M185.8,81.3l0,1h-0.4v-0.6h-1.7v0.6h-0.4l0-1h0c0.1,0,0.1,0,0.2,0c0.1,0,0.1-0.1,0.1-0.1
					c0-0.1,0.1-0.1,0.1-0.2s0.1-0.2,0.1-0.4c0-0.1,0.1-0.3,0.1-0.5c0-0.2,0-0.5,0.1-0.8h1.5v2C185.4,81.3,185.8,81.3,185.8,81.3z
					 M185,79.6h-0.7c0,0.3,0,0.5-0.1,0.7c0,0.2-0.1,0.4-0.1,0.5c0,0.1-0.1,0.2-0.1,0.3c0,0.1-0.1,0.1-0.1,0.2h1.1L185,79.6L185,79.6
					z"/>
				<path class="st13" d="M188.3,79.2l-0.8,2.1c-0.1,0.2-0.2,0.4-0.3,0.6c-0.1,0.2-0.2,0.3-0.3,0.4c-0.1,0.1-0.2,0.2-0.3,0.2
					c-0.1,0-0.3,0.1-0.4,0.1c0,0-0.1,0-0.1,0c0,0-0.1,0-0.1,0v-0.4c0,0,0.1,0,0.1,0c0,0,0.1,0,0.1,0c0.1,0,0.1,0,0.2,0
					c0.1,0,0.1-0.1,0.2-0.1s0.1-0.1,0.2-0.2c0.1-0.1,0.1-0.2,0.2-0.3l-0.9-2.4h0.5l0.6,1.6l0.1,0.4l0.1-0.4l0.6-1.6L188.3,79.2
					L188.3,79.2z"/>
				<path class="st13" d="M191,81.6h-0.6l-1.1-1.3v1.3h-0.4v-2.4h0.4v1.1l1.1-1.1h0.5l-1.1,1.1L191,81.6z"/>
				<path class="st13" d="M193.6,79.6h-0.9v2h-0.4v-2h-0.9v-0.4h2.2L193.6,79.6L193.6,79.6z"/>
			</g>
			<polygon class="st4" points="126.9,84.2 101,84.2 95.9,78.6 101,73 126.9,73 132,78.5 			"/>
			<polygon class="st4" points="173.1,109.1 147.3,109.1 142.1,103.5 147.3,97.9 173.2,97.9 178.3,103.5 			"/>
			<polygon class="st4" points="99.6,109.1 73.7,109.1 68.6,103.5 73.7,97.9 99.6,97.9 104.7,103.5 			"/>
			<g>
				<rect x="72.2" y="99.4" class="st12" width="28.9" height="8.3"/>
				<path class="st13" d="M75.8,101.8c0,0.1,0,0.3-0.1,0.4c-0.1,0.1-0.1,0.2-0.2,0.3s-0.2,0.1-0.4,0.2s-0.3,0.1-0.5,0.1h-0.8v-3.1
					h0.9c0.7,0,1,0.3,1,0.8c0,0.2,0,0.3-0.1,0.4c-0.1,0.1-0.2,0.2-0.4,0.3c0.1,0,0.2,0,0.2,0.1s0.1,0.1,0.2,0.1
					c0.1,0.1,0.1,0.1,0.1,0.2C75.8,101.6,75.8,101.7,75.8,101.8z M75.3,100.4c0-0.1,0-0.1,0-0.2c0-0.1-0.1-0.1-0.1-0.1
					S75.1,100,75,100c-0.1,0-0.2,0-0.3,0h-0.4v1h0.4c0.1,0,0.2,0,0.3,0c0.1,0,0.1-0.1,0.2-0.1c0.1,0,0.1-0.1,0.1-0.2
					C75.3,100.6,75.3,100.5,75.3,100.4z M75.4,101.8c0-0.1,0-0.1-0.1-0.2c0-0.1-0.1-0.1-0.1-0.2c-0.1,0-0.1-0.1-0.2-0.1
					c-0.1,0-0.2,0-0.3,0h-0.4v1.1h0.4c0.2,0,0.4,0,0.5-0.1C75.3,102.1,75.4,102,75.4,101.8z"/>
				<path class="st13" d="M78.4,102.7H78v-1.1h-1.1v1.1h-0.4v-2.4h0.4v1H78v-1h0.4V102.7z"/>
				<path class="st13" d="M81.2,100.3l-0.8,2.1c-0.1,0.2-0.2,0.4-0.3,0.6c-0.1,0.2-0.2,0.3-0.3,0.4c-0.1,0.1-0.2,0.2-0.3,0.2
					c-0.1,0-0.3,0.1-0.4,0.1c0,0-0.1,0-0.1,0c0,0-0.1,0-0.1,0v-0.4c0,0,0.1,0,0.1,0c0,0,0.1,0,0.1,0c0.1,0,0.1,0,0.2,0
					c0.1,0,0.1-0.1,0.2-0.1s0.1-0.1,0.2-0.2c0.1-0.1,0.1-0.2,0.2-0.3l-0.9-2.4h0.5l0.6,1.6l0.1,0.4l0.1-0.4l0.6-1.6L81.2,100.3
					L81.2,100.3z"/>
				<path class="st13" d="M83.8,100.7h-0.9v2h-0.4v-2h-0.9v-0.4h2.2L83.8,100.7L83.8,100.7z"/>
				<path class="st13" d="M86.4,101.5c0,0.2,0,0.4-0.1,0.6s-0.1,0.3-0.2,0.4c-0.1,0.1-0.2,0.2-0.4,0.2s-0.3,0.1-0.5,0.1
					c-0.1,0-0.1,0-0.2,0s-0.1,0-0.2,0v1h-0.4v-3.3h0.4l0,0.4c0.1-0.2,0.2-0.3,0.4-0.3s0.3-0.1,0.4-0.1c0.1,0,0.3,0,0.4,0.1
					s0.2,0.1,0.3,0.2c0.1,0.1,0.1,0.2,0.2,0.4C86.4,101.1,86.4,101.3,86.4,101.5z M86,101.5c0-0.1,0-0.2,0-0.3c0-0.1,0-0.2-0.1-0.3
					s-0.1-0.1-0.2-0.2c-0.1,0-0.1-0.1-0.2-0.1c-0.1,0-0.1,0-0.2,0s-0.1,0-0.2,0.1c-0.1,0-0.1,0.1-0.2,0.2c-0.1,0.1-0.1,0.1-0.2,0.2
					v1.2c0.1,0,0.2,0.1,0.2,0.1s0.2,0,0.2,0c0.2,0,0.4-0.1,0.5-0.2S86,101.8,86,101.5z"/>
				<path class="st13" d="M89,101.4c0,0.1,0,0.1,0,0.1c0,0,0,0.1,0,0.1h-1.7c0,0.2,0.1,0.4,0.2,0.6c0.1,0.1,0.3,0.2,0.6,0.2
					c0.1,0,0.1,0,0.2,0c0.1,0,0.1,0,0.2,0c0.1,0,0.1,0,0.2,0s0.1,0,0.2,0v0.3c-0.1,0-0.2,0.1-0.4,0.1c-0.1,0-0.3,0-0.4,0
					c-0.2,0-0.4,0-0.5-0.1c-0.1-0.1-0.3-0.1-0.4-0.2c-0.1-0.1-0.2-0.2-0.2-0.4c0-0.2-0.1-0.3-0.1-0.5c0-0.2,0-0.3,0.1-0.5
					s0.1-0.3,0.2-0.4c0.1-0.1,0.2-0.2,0.3-0.3c0.1-0.1,0.3-0.1,0.5-0.1c0.2,0,0.3,0,0.4,0.1c0.1,0.1,0.2,0.1,0.3,0.2
					c0.1,0.1,0.2,0.2,0.2,0.3C89,101.1,89,101.2,89,101.4z M88.6,101.3c0-0.1,0-0.2,0-0.3c0-0.1-0.1-0.2-0.1-0.2
					c-0.1-0.1-0.1-0.1-0.2-0.1s-0.2-0.1-0.3-0.1c-0.1,0-0.2,0-0.2,0.1c-0.1,0-0.1,0.1-0.2,0.1c-0.1,0.1-0.1,0.1-0.1,0.2
					c0,0.1-0.1,0.2-0.1,0.3H88.6z"/>
				<path class="st13" d="M91.6,102.7h-0.4v-1.1h-1.1v1.1h-0.4v-2.4h0.4v1h1.1v-1h0.4V102.7z"/>
				<path class="st13" d="M94.2,102.7h-0.4v-1.1h-1.1v1.1h-0.4v-2.4h0.4v1h1.1v-1h0.4V102.7z"/>
				<path class="st13" d="M95.4,100.3v1.7l1-1.7h0.4v2.4h-0.4V101l-1,1.7H95v-2.4H95.4z"/>
				<path class="st13" d="M98,100.3v1.7l1-1.7h0.4v2.4H99V101l-1,1.7h-0.4v-2.4H98z M99.2,99.4c0,0.1,0,0.2-0.1,0.2
					s-0.1,0.1-0.1,0.2c-0.1,0.1-0.1,0.1-0.2,0.1c-0.1,0-0.2,0-0.3,0c-0.1,0-0.2,0-0.3,0c-0.1,0-0.2-0.1-0.2-0.1
					c-0.1-0.1-0.1-0.1-0.1-0.2s0-0.2,0-0.2h0.4c0,0,0,0.1,0,0.1c0,0,0,0.1,0.1,0.1c0,0,0.1,0.1,0.1,0.1c0,0,0.1,0,0.2,0
					c0.1,0,0.1,0,0.2,0c0,0,0.1,0,0.1-0.1c0,0,0-0.1,0.1-0.1c0,0,0-0.1,0-0.1H99.2z"/>
				<path class="st13" d="M79.7,106.5h-0.4v-2h-1.1v2h-0.4v-2.4h1.9L79.7,106.5L79.7,106.5z"/>
				<path class="st13" d="M82.4,105.3c0,0.2,0,0.4-0.1,0.6s-0.1,0.3-0.2,0.4c-0.1,0.1-0.2,0.2-0.4,0.2s-0.3,0.1-0.5,0.1
					c-0.1,0-0.1,0-0.2,0s-0.1,0-0.2,0v1h-0.4v-3.3h0.4l0,0.4c0.1-0.2,0.2-0.3,0.4-0.3s0.3-0.1,0.4-0.1c0.1,0,0.3,0,0.4,0.1
					s0.2,0.1,0.3,0.2c0.1,0.1,0.1,0.2,0.2,0.4C82.4,104.9,82.4,105.1,82.4,105.3z M82,105.3c0-0.1,0-0.2,0-0.3c0-0.1,0-0.2-0.1-0.3
					s-0.1-0.1-0.2-0.2c-0.1,0-0.1-0.1-0.2-0.1c-0.1,0-0.1,0-0.2,0s-0.1,0-0.2,0.1c-0.1,0-0.1,0.1-0.2,0.2c-0.1,0.1-0.1,0.1-0.2,0.2
					v1.2c0.1,0,0.2,0.1,0.2,0.1s0.2,0,0.2,0c0.2,0,0.4-0.1,0.5-0.2S82,105.6,82,105.3z"/>
				<path class="st13" d="M85.1,105.3c0,0.2,0,0.4-0.1,0.5c-0.1,0.2-0.1,0.3-0.2,0.4c-0.1,0.1-0.2,0.2-0.4,0.3
					c-0.1,0.1-0.3,0.1-0.5,0.1c-0.2,0-0.3,0-0.5-0.1c-0.1-0.1-0.2-0.1-0.3-0.2S83,106,83,105.9c0-0.2-0.1-0.3-0.1-0.5
					c0-0.2,0-0.4,0.1-0.5s0.1-0.3,0.2-0.4s0.2-0.2,0.4-0.3c0.1-0.1,0.3-0.1,0.5-0.1c0.2,0,0.3,0,0.5,0.1c0.1,0.1,0.2,0.1,0.3,0.2
					c0.1,0.1,0.2,0.2,0.2,0.4C85.1,104.9,85.1,105.1,85.1,105.3z M84.7,105.3c0-0.1,0-0.3,0-0.4s-0.1-0.2-0.1-0.3
					c-0.1-0.1-0.1-0.1-0.2-0.2c-0.1,0-0.2-0.1-0.3-0.1c-0.1,0-0.2,0-0.3,0.1c-0.1,0-0.2,0.1-0.2,0.2c-0.1,0.1-0.1,0.2-0.1,0.3
					c0,0.1,0,0.2,0,0.3c0,0.1,0,0.3,0,0.4s0.1,0.2,0.1,0.3c0.1,0.1,0.1,0.1,0.2,0.2c0.1,0,0.2,0.1,0.3,0.1c0.1,0,0.2,0,0.3-0.1
					c0.1,0,0.2-0.1,0.2-0.2s0.1-0.2,0.1-0.3C84.7,105.6,84.7,105.4,84.7,105.3z"/>
				<path class="st13" d="M87.9,106.2l0,1h-0.4v-0.6h-1.7v0.6h-0.4l0-1h0c0.1,0,0.1,0,0.2,0c0.1,0,0.1-0.1,0.1-0.1
					c0-0.1,0.1-0.1,0.1-0.2s0.1-0.2,0.1-0.4c0-0.1,0.1-0.3,0.1-0.5c0-0.2,0-0.5,0.1-0.8h1.5v2C87.6,106.2,87.9,106.2,87.9,106.2z
					 M87.1,104.5h-0.7c0,0.3,0,0.5-0.1,0.7c0,0.2-0.1,0.4-0.1,0.5c0,0.1-0.1,0.2-0.1,0.3c0,0.1-0.1,0.1-0.1,0.2h1.1L87.1,104.5
					L87.1,104.5z"/>
				<path class="st13" d="M90.4,104.1l-0.8,2.1c-0.1,0.2-0.2,0.4-0.3,0.6c-0.1,0.2-0.2,0.3-0.3,0.4c-0.1,0.1-0.2,0.2-0.3,0.2
					c-0.1,0-0.3,0.1-0.4,0.1c0,0-0.1,0-0.1,0c0,0-0.1,0-0.1,0v-0.4c0,0,0.1,0,0.1,0c0,0,0.1,0,0.1,0c0.1,0,0.1,0,0.2,0
					c0.1,0,0.1-0.1,0.2-0.1s0.1-0.1,0.2-0.2c0.1-0.1,0.1-0.2,0.2-0.3l-0.9-2.4h0.5l0.6,1.6l0.1,0.4l0.1-0.4l0.6-1.6L90.4,104.1
					L90.4,104.1z"/>
				<path class="st13" d="M93.1,106.5h-0.6l-1.1-1.3v1.3H91v-2.4h0.4v1.1l1.1-1.1H93l-1.1,1.1L93.1,106.5z"/>
				<path class="st13" d="M95.7,104.5h-0.9v2h-0.4v-2h-0.9v-0.4h2.2L95.7,104.5L95.7,104.5z"/>
			</g>
			<g>
				<rect x="145.8" y="99.3" class="st12" width="28.9" height="8.4"/>
				<path class="st13" d="M149.4,101.8c0,0.1,0,0.3-0.1,0.4c-0.1,0.1-0.1,0.2-0.2,0.3s-0.2,0.1-0.4,0.2s-0.3,0.1-0.5,0.1h-0.8v-3.1
					h0.9c0.7,0,1,0.3,1,0.8c0,0.2,0,0.3-0.1,0.4c-0.1,0.1-0.2,0.2-0.4,0.3c0.1,0,0.2,0,0.2,0.1s0.1,0.1,0.2,0.1
					c0.1,0.1,0.1,0.1,0.1,0.2C149.4,101.6,149.4,101.7,149.4,101.8z M148.9,100.4c0-0.1,0-0.1,0-0.2c0-0.1-0.1-0.1-0.1-0.1
					s-0.1-0.1-0.2-0.1c-0.1,0-0.2,0-0.3,0h-0.4v1h0.4c0.1,0,0.2,0,0.3,0c0.1,0,0.1-0.1,0.2-0.1c0.1,0,0.1-0.1,0.1-0.2
					C148.8,100.6,148.9,100.5,148.9,100.4z M149,101.8c0-0.1,0-0.1-0.1-0.2c0-0.1-0.1-0.1-0.1-0.2c-0.1,0-0.1-0.1-0.2-0.1
					c-0.1,0-0.2,0-0.3,0h-0.4v1.1h0.4c0.2,0,0.4,0,0.5-0.1C148.9,102.1,149,102,149,101.8z"/>
				<path class="st13" d="M151.9,102.7h-0.4v-1.1h-1.1v1.1H150v-2.4h0.4v1h1.1v-1h0.4V102.7z"/>
				<path class="st13" d="M154.8,100.3l-0.8,2.1c-0.1,0.2-0.2,0.4-0.3,0.6c-0.1,0.2-0.2,0.3-0.3,0.4c-0.1,0.1-0.2,0.2-0.3,0.2
					c-0.1,0-0.3,0.1-0.4,0.1c0,0-0.1,0-0.1,0c0,0-0.1,0-0.1,0v-0.4c0,0,0.1,0,0.1,0c0,0,0.1,0,0.1,0c0.1,0,0.1,0,0.2,0
					c0.1,0,0.1-0.1,0.2-0.1s0.1-0.1,0.2-0.2c0.1-0.1,0.1-0.2,0.2-0.3l-0.9-2.4h0.5l0.6,1.6l0.1,0.4l0.1-0.4l0.6-1.6L154.8,100.3
					L154.8,100.3z"/>
				<path class="st13" d="M157.4,100.7h-0.9v2h-0.4v-2h-0.9v-0.4h2.2L157.4,100.7L157.4,100.7z"/>
				<path class="st13" d="M160,101.5c0,0.2,0,0.4-0.1,0.6c-0.1,0.2-0.1,0.3-0.2,0.4c-0.1,0.1-0.2,0.2-0.4,0.2s-0.3,0.1-0.5,0.1
					c-0.1,0-0.1,0-0.2,0s-0.1,0-0.2,0v1H158v-3.3h0.4l0,0.4c0.1-0.2,0.2-0.3,0.4-0.3s0.3-0.1,0.4-0.1c0.1,0,0.3,0,0.4,0.1
					s0.2,0.1,0.3,0.2c0.1,0.1,0.1,0.2,0.2,0.4C159.9,101.1,160,101.3,160,101.5z M159.5,101.5c0-0.1,0-0.2,0-0.3
					c0-0.1,0-0.2-0.1-0.3s-0.1-0.1-0.1-0.2c-0.1,0-0.1-0.1-0.2-0.1c-0.1,0-0.1,0-0.2,0s-0.1,0-0.2,0.1c-0.1,0-0.1,0.1-0.2,0.2
					c-0.1,0.1-0.1,0.1-0.2,0.2v1.2c0.1,0,0.2,0.1,0.2,0.1s0.2,0,0.2,0c0.2,0,0.4-0.1,0.5-0.2S159.5,101.8,159.5,101.5z"/>
				<path class="st13" d="M162.6,101.4c0,0.1,0,0.1,0,0.1c0,0,0,0.1,0,0.1h-1.7c0,0.2,0.1,0.4,0.2,0.6c0.1,0.1,0.3,0.2,0.6,0.2
					c0.1,0,0.1,0,0.2,0c0.1,0,0.1,0,0.2,0c0.1,0,0.1,0,0.2,0s0.1,0,0.2,0v0.3c-0.1,0-0.2,0.1-0.4,0.1c-0.1,0-0.3,0-0.4,0
					c-0.2,0-0.4,0-0.5-0.1c-0.1-0.1-0.3-0.1-0.4-0.2c-0.1-0.1-0.2-0.2-0.2-0.4c0-0.2-0.1-0.3-0.1-0.5c0-0.2,0-0.3,0.1-0.5
					s0.1-0.3,0.2-0.4c0.1-0.1,0.2-0.2,0.3-0.3c0.1-0.1,0.3-0.1,0.5-0.1c0.2,0,0.3,0,0.4,0.1c0.1,0.1,0.2,0.1,0.3,0.2
					c0.1,0.1,0.2,0.2,0.2,0.3C162.6,101,162.6,101.2,162.6,101.4z M162.2,101.3c0-0.1,0-0.2,0-0.3c0-0.1-0.1-0.2-0.1-0.2
					c-0.1-0.1-0.1-0.1-0.2-0.1s-0.2-0.1-0.3-0.1c-0.1,0-0.2,0-0.2,0.1c-0.1,0-0.1,0.1-0.2,0.1c-0.1,0.1-0.1,0.1-0.1,0.2
					c0,0.1-0.1,0.2-0.1,0.3H162.2z"/>
				<path class="st13" d="M165.1,102.7h-0.4v-1.1h-1.1v1.1h-0.4v-2.4h0.4v1h1.1v-1h0.4V102.7z"/>
				<path class="st13" d="M167.8,102.7h-0.4v-1.1h-1.1v1.1h-0.4v-2.4h0.4v1h1.1v-1h0.4V102.7z"/>
				<path class="st13" d="M168.9,100.3v1.7l1-1.7h0.4v2.4H170V101l-1,1.7h-0.4v-2.4H168.9z"/>
				<path class="st13" d="M171.6,100.3v1.7l1-1.7h0.4v2.4h-0.4V101l-1,1.7h-0.4v-2.4H171.6z M172.8,99.4c0,0.1,0,0.2-0.1,0.2
					s-0.1,0.1-0.1,0.2c-0.1,0.1-0.1,0.1-0.2,0.1c-0.1,0-0.2,0-0.3,0c-0.1,0-0.2,0-0.3,0c-0.1,0-0.2-0.1-0.2-0.1
					c-0.1-0.1-0.1-0.1-0.1-0.2s0-0.2,0-0.2h0.4c0,0,0,0.1,0,0.1c0,0,0,0.1,0.1,0.1c0,0,0.1,0.1,0.1,0.1c0,0,0.1,0,0.2,0
					c0.1,0,0.1,0,0.2,0c0,0,0.1,0,0.1-0.1c0,0,0-0.1,0.1-0.1c0,0,0-0.1,0-0.1H172.8z"/>
				<path class="st13" d="M153.3,106.5h-0.4v-2h-1.1v2h-0.4v-2.4h1.9L153.3,106.5L153.3,106.5z"/>
				<path class="st13" d="M156,105.3c0,0.2,0,0.4-0.1,0.6c-0.1,0.2-0.1,0.3-0.2,0.4c-0.1,0.1-0.2,0.2-0.4,0.2s-0.3,0.1-0.5,0.1
					c-0.1,0-0.1,0-0.2,0s-0.1,0-0.2,0v1H154v-3.3h0.4l0,0.4c0.1-0.2,0.2-0.3,0.4-0.3s0.3-0.1,0.4-0.1c0.1,0,0.3,0,0.4,0.1
					s0.2,0.1,0.3,0.2c0.1,0.1,0.1,0.2,0.2,0.4C156,104.9,156,105.1,156,105.3z M155.6,105.3c0-0.1,0-0.2,0-0.3c0-0.1,0-0.2-0.1-0.3
					s-0.1-0.1-0.1-0.2c-0.1,0-0.1-0.1-0.2-0.1c-0.1,0-0.1,0-0.2,0s-0.1,0-0.2,0.1c-0.1,0-0.1,0.1-0.2,0.2c-0.1,0.1-0.1,0.1-0.2,0.2
					v1.2c0.1,0,0.2,0.1,0.2,0.1s0.2,0,0.2,0c0.2,0,0.4-0.1,0.5-0.2S155.6,105.6,155.6,105.3z"/>
				<path class="st13" d="M158.7,105.3c0,0.2,0,0.4-0.1,0.5c-0.1,0.2-0.1,0.3-0.2,0.4c-0.1,0.1-0.2,0.2-0.4,0.3
					c-0.1,0.1-0.3,0.1-0.5,0.1c-0.2,0-0.3,0-0.5-0.1c-0.1-0.1-0.2-0.1-0.3-0.2s-0.2-0.2-0.2-0.4c0-0.2-0.1-0.3-0.1-0.5
					c0-0.2,0-0.4,0.1-0.5s0.1-0.3,0.2-0.4s0.2-0.2,0.4-0.3c0.1-0.1,0.3-0.1,0.5-0.1c0.2,0,0.3,0,0.5,0.1c0.1,0.1,0.2,0.1,0.3,0.2
					c0.1,0.1,0.2,0.2,0.2,0.4C158.7,104.9,158.7,105.1,158.7,105.3z M158.3,105.3c0-0.1,0-0.3,0-0.4s-0.1-0.2-0.1-0.3
					c-0.1-0.1-0.1-0.1-0.2-0.2c-0.1,0-0.2-0.1-0.3-0.1c-0.1,0-0.2,0-0.3,0.1c-0.1,0-0.2,0.1-0.2,0.2c-0.1,0.1-0.1,0.2-0.1,0.3
					c0,0.1,0,0.2,0,0.3c0,0.1,0,0.3,0,0.4s0.1,0.2,0.1,0.3c0.1,0.1,0.1,0.1,0.2,0.2c0.1,0,0.2,0.1,0.3,0.1c0.1,0,0.2,0,0.3-0.1
					c0.1,0,0.2-0.1,0.2-0.2s0.1-0.2,0.1-0.3C158.3,105.5,158.3,105.4,158.3,105.3z"/>
				<path class="st13" d="M161.5,106.1l0,1h-0.4v-0.6h-1.7v0.6H159l0-1h0c0.1,0,0.1,0,0.2,0c0.1,0,0.1-0.1,0.1-0.1
					c0-0.1,0.1-0.1,0.1-0.2s0.1-0.2,0.1-0.4c0-0.1,0.1-0.3,0.1-0.5c0-0.2,0-0.5,0.1-0.8h1.5v2H161.5z M160.7,104.5h-0.7
					c0,0.3,0,0.5-0.1,0.7c0,0.2-0.1,0.4-0.1,0.5c0,0.1-0.1,0.2-0.1,0.3c0,0.1-0.1,0.1-0.1,0.2h1.1L160.7,104.5L160.7,104.5z"/>
				<path class="st13" d="M164,104.1l-0.8,2.1c-0.1,0.2-0.2,0.4-0.3,0.6c-0.1,0.2-0.2,0.3-0.3,0.4c-0.1,0.1-0.2,0.2-0.3,0.2
					c-0.1,0-0.3,0.1-0.4,0.1c0,0-0.1,0-0.1,0c0,0-0.1,0-0.1,0v-0.4c0,0,0.1,0,0.1,0c0,0,0.1,0,0.1,0c0.1,0,0.1,0,0.2,0
					c0.1,0,0.1-0.1,0.2-0.1s0.1-0.1,0.2-0.2c0.1-0.1,0.1-0.2,0.2-0.3l-0.9-2.4h0.5l0.6,1.6l0.1,0.4l0.1-0.4l0.6-1.6L164,104.1
					L164,104.1z"/>
				<path class="st13" d="M166.7,106.5h-0.6l-1.1-1.3v1.3h-0.4v-2.4h0.4v1.1l1.1-1.1h0.5l-1.1,1.1L166.7,106.5z"/>
				<path class="st13" d="M169.2,104.5h-0.9v2h-0.4v-2H167v-0.4h2.2L169.2,104.5L169.2,104.5z"/>
			</g>
			<g>
				<rect x="103.7" y="58" class="st12" width="21" height="4.7"/>
				<path class="st13" d="M106,61.4h-0.4v-2.7h-1.3v2.7h-0.4v-3.1h2.1V61.4z"/>
				<path class="st13" d="M108.7,60.2c0,0.2,0,0.4-0.1,0.6s-0.1,0.3-0.2,0.4c-0.1,0.1-0.2,0.2-0.4,0.2s-0.3,0.1-0.5,0.1
					c-0.1,0-0.1,0-0.2,0s-0.1,0-0.2,0v1h-0.4V59h0.4l0,0.4c0.1-0.2,0.2-0.3,0.4-0.3s0.3-0.1,0.4-0.1c0.1,0,0.3,0,0.4,0.1
					s0.2,0.1,0.3,0.2c0.1,0.1,0.1,0.2,0.2,0.4C108.7,59.8,108.7,60,108.7,60.2z M108.3,60.2c0-0.1,0-0.2,0-0.3c0-0.1,0-0.2-0.1-0.3
					s-0.1-0.1-0.2-0.2c-0.1,0-0.1-0.1-0.2-0.1c-0.1,0-0.1,0-0.2,0c-0.1,0-0.1,0-0.2,0.1c-0.1,0-0.1,0.1-0.2,0.2
					c-0.1,0.1-0.1,0.1-0.2,0.2V61c0.1,0,0.2,0.1,0.2,0.1s0.2,0,0.2,0c0.2,0,0.4-0.1,0.5-0.2S108.3,60.5,108.3,60.2z"/>
				<path class="st13" d="M111.4,60.2c0,0.2,0,0.4-0.1,0.5s-0.1,0.3-0.2,0.4c-0.1,0.1-0.2,0.2-0.4,0.3c-0.1,0.1-0.3,0.1-0.5,0.1
					c-0.2,0-0.3,0-0.5-0.1c-0.1-0.1-0.2-0.1-0.3-0.2s-0.2-0.2-0.2-0.4c0-0.2-0.1-0.3-0.1-0.5c0-0.2,0-0.4,0.1-0.5s0.1-0.3,0.2-0.4
					s0.2-0.2,0.4-0.3c0.1-0.1,0.3-0.1,0.5-0.1c0.2,0,0.3,0,0.5,0.1c0.1,0.1,0.2,0.1,0.3,0.2c0.1,0.1,0.2,0.2,0.2,0.4
					C111.3,59.8,111.4,60,111.4,60.2z M110.9,60.2c0-0.1,0-0.3,0-0.4s-0.1-0.2-0.1-0.3c-0.1-0.1-0.1-0.1-0.2-0.2
					c-0.1,0-0.2-0.1-0.3-0.1c-0.1,0-0.2,0-0.3,0.1c-0.1,0-0.2,0.1-0.2,0.2c-0.1,0.1-0.1,0.2-0.1,0.3c0,0.1,0,0.2,0,0.3
					c0,0.1,0,0.3,0,0.4s0.1,0.2,0.1,0.3c0.1,0.1,0.1,0.1,0.2,0.2c0.1,0,0.2,0.1,0.3,0.1c0.1,0,0.2,0,0.3-0.1c0.1,0,0.2-0.1,0.2-0.2
					s0.1-0.2,0.1-0.3C110.9,60.4,110.9,60.3,110.9,60.2z"/>
				<path class="st13" d="M114.1,61l0,1h-0.4v-0.6h-1.8V59h0.4v2h1.1v-2h0.4v2H114.1z"/>
				<path class="st13" d="M116.6,60.1c0,0.1,0,0.1,0,0.1c0,0,0,0.1,0,0.1h-1.7c0,0.2,0.1,0.4,0.2,0.6c0.1,0.1,0.3,0.2,0.6,0.2
					c0.1,0,0.1,0,0.2,0c0.1,0,0.1,0,0.2,0c0.1,0,0.1,0,0.2,0s0.1,0,0.2,0v0.3c-0.1,0-0.2,0.1-0.4,0.1c-0.1,0-0.3,0-0.4,0
					c-0.2,0-0.4,0-0.5-0.1c-0.1-0.1-0.3-0.1-0.4-0.2c-0.1-0.1-0.2-0.2-0.2-0.4c0-0.2-0.1-0.3-0.1-0.5c0-0.2,0-0.3,0.1-0.5
					s0.1-0.3,0.2-0.4c0.1-0.1,0.2-0.2,0.3-0.3c0.1-0.1,0.3-0.1,0.5-0.1c0.2,0,0.3,0,0.4,0.1c0.1,0.1,0.2,0.1,0.3,0.2
					c0.1,0.1,0.2,0.2,0.2,0.3C116.6,59.7,116.6,59.9,116.6,60.1z M116.2,60c0-0.1,0-0.2,0-0.3c0-0.1-0.1-0.2-0.1-0.2
					c-0.1-0.1-0.1-0.1-0.2-0.1s-0.2-0.1-0.3-0.1c-0.1,0-0.2,0-0.2,0.1c-0.1,0-0.1,0.1-0.2,0.1c-0.1,0.1-0.1,0.1-0.1,0.2
					c0,0.1-0.1,0.2-0.1,0.3C114.9,60,116.2,60,116.2,60z"/>
				<path class="st13" d="M119.1,61.3c-0.1,0-0.2,0.1-0.3,0.1c-0.1,0-0.2,0-0.3,0c-0.4,0-0.7-0.1-0.9-0.3c-0.2-0.2-0.3-0.5-0.3-0.9
					c0-0.2,0-0.4,0.1-0.5s0.1-0.3,0.2-0.4c0.1-0.1,0.2-0.2,0.4-0.3c0.1-0.1,0.3-0.1,0.5-0.1c0.1,0,0.2,0,0.3,0s0.2,0,0.3,0.1v0.4
					c-0.1-0.1-0.2-0.1-0.3-0.1s-0.2,0-0.3,0c-0.1,0-0.2,0-0.3,0.1c-0.1,0-0.2,0.1-0.2,0.2c-0.1,0.1-0.1,0.2-0.2,0.3
					c0,0.1-0.1,0.2-0.1,0.4c0,0.3,0.1,0.5,0.2,0.6c0.1,0.1,0.3,0.2,0.6,0.2c0.1,0,0.2,0,0.3,0c0.1,0,0.2-0.1,0.3-0.1L119.1,61.3
					L119.1,61.3z"/>
				<path class="st13" d="M121.7,61.3c-0.1,0-0.2,0.1-0.3,0.1c-0.1,0-0.2,0-0.3,0c-0.4,0-0.7-0.1-0.9-0.3c-0.2-0.2-0.3-0.5-0.3-0.9
					c0-0.2,0-0.4,0.1-0.5s0.1-0.3,0.2-0.4c0.1-0.1,0.2-0.2,0.4-0.3c0.1-0.1,0.3-0.1,0.5-0.1c0.1,0,0.2,0,0.3,0s0.2,0,0.3,0.1v0.4
					c-0.1-0.1-0.2-0.1-0.3-0.1s-0.2,0-0.3,0c-0.1,0-0.2,0-0.3,0.1c-0.1,0-0.2,0.1-0.2,0.2c-0.1,0.1-0.1,0.2-0.2,0.3
					c0,0.1-0.1,0.2-0.1,0.4c0,0.3,0.1,0.5,0.2,0.6c0.1,0.1,0.3,0.2,0.6,0.2c0.1,0,0.2,0,0.3,0c0.1,0,0.2-0.1,0.3-0.1L121.7,61.3
					L121.7,61.3z"/>
			</g>
			<polygon class="st3" points="90.1,84.2 59,84.2 64.3,78.6 59,73 90.1,73 95.3,78.6 			"/>
			<g>
				<rect x="67.6" y="76.3" class="st12" width="21" height="4.7"/>
				<path class="st13" d="M70,79.6h-0.4v-2.7h-1.3v2.7h-0.4v-3.1H70V79.6z"/>
				<path class="st13" d="M72.6,78.4c0,0.2,0,0.4-0.1,0.6s-0.1,0.3-0.2,0.4c-0.1,0.1-0.2,0.2-0.4,0.2s-0.3,0.1-0.5,0.1
					c-0.1,0-0.1,0-0.2,0s-0.1,0-0.2,0v1h-0.4v-3.3H71l0,0.4c0.1-0.2,0.2-0.3,0.4-0.3s0.3-0.1,0.4-0.1c0.1,0,0.3,0,0.4,0.1
					s0.2,0.1,0.3,0.2c0.1,0.1,0.1,0.2,0.2,0.4C72.6,78,72.6,78.2,72.6,78.4z M72.2,78.4c0-0.1,0-0.2,0-0.3c0-0.1,0-0.2-0.1-0.3
					S72,77.7,72,77.6c-0.1,0-0.1-0.1-0.2-0.1c-0.1,0-0.1,0-0.2,0s-0.1,0-0.2,0.1c-0.1,0-0.1,0.1-0.2,0.2c-0.1,0.1-0.1,0.1-0.2,0.2
					v1.2c0.1,0,0.2,0.1,0.2,0.1s0.2,0,0.2,0c0.2,0,0.4-0.1,0.5-0.2S72.2,78.7,72.2,78.4z"/>
				<path class="st13" d="M75.3,78.4c0,0.2,0,0.4-0.1,0.5c-0.1,0.2-0.1,0.3-0.2,0.4c-0.1,0.1-0.2,0.2-0.4,0.3
					c-0.1,0.1-0.3,0.1-0.5,0.1c-0.2,0-0.3,0-0.5-0.1c-0.1-0.1-0.2-0.1-0.3-0.2s-0.2-0.2-0.2-0.4c0-0.2-0.1-0.3-0.1-0.5
					c0-0.2,0-0.4,0.1-0.5s0.1-0.3,0.2-0.4s0.2-0.2,0.4-0.3c0.1-0.1,0.3-0.1,0.5-0.1c0.2,0,0.3,0,0.5,0.1c0.1,0.1,0.2,0.1,0.3,0.2
					c0.1,0.1,0.2,0.2,0.2,0.4C75.3,78,75.3,78.2,75.3,78.4z M74.9,78.4c0-0.1,0-0.3,0-0.4s-0.1-0.2-0.1-0.3
					c-0.1-0.1-0.1-0.1-0.2-0.2c-0.1,0-0.2-0.1-0.3-0.1c-0.1,0-0.2,0-0.3,0.1c-0.1,0-0.2,0.1-0.2,0.2c-0.1,0.1-0.1,0.2-0.1,0.3
					c0,0.1,0,0.2,0,0.3c0,0.1,0,0.3,0,0.4s0.1,0.2,0.1,0.3c0.1,0.1,0.1,0.1,0.2,0.2c0.1,0,0.2,0.1,0.3,0.1c0.1,0,0.2,0,0.3-0.1
					c0.1,0,0.2-0.1,0.2-0.2s0.1-0.2,0.1-0.3C74.9,78.7,74.9,78.6,74.9,78.4z"/>
				<path class="st13" d="M78.1,79.3l0,1h-0.4v-0.6h-1.8v-2.4h0.4v2h1.1v-2h0.4v2C77.8,79.3,78.1,79.3,78.1,79.3z"/>
				<path class="st13" d="M80.5,78.3c0,0.1,0,0.1,0,0.1c0,0,0,0.1,0,0.1h-1.7c0,0.2,0.1,0.4,0.2,0.6c0.1,0.1,0.3,0.2,0.6,0.2
					c0.1,0,0.1,0,0.2,0c0.1,0,0.1,0,0.2,0c0.1,0,0.1,0,0.2,0s0.1,0,0.2,0v0.3c-0.1,0-0.2,0.1-0.4,0.1c-0.1,0-0.3,0-0.4,0
					c-0.2,0-0.4,0-0.5-0.1c-0.1-0.1-0.3-0.1-0.4-0.2c-0.1-0.1-0.2-0.2-0.2-0.4c0-0.2-0.1-0.3-0.1-0.5c0-0.2,0-0.3,0.1-0.5
					s0.1-0.3,0.2-0.4c0.1-0.1,0.2-0.2,0.3-0.3c0.1-0.1,0.3-0.1,0.5-0.1c0.2,0,0.3,0,0.4,0.1c0.1,0.1,0.2,0.1,0.3,0.2
					c0.1,0.1,0.2,0.2,0.2,0.3C80.5,78,80.5,78.1,80.5,78.3z M80.1,78.2c0-0.1,0-0.2,0-0.3c0-0.1-0.1-0.2-0.1-0.2
					c-0.1-0.1-0.1-0.1-0.2-0.1s-0.2-0.1-0.3-0.1c-0.1,0-0.2,0-0.2,0.1c-0.1,0-0.1,0.1-0.2,0.1C79,77.8,79,77.9,78.9,78
					c0,0.1-0.1,0.2-0.1,0.3H80.1z"/>
				<path class="st13" d="M83,79.5c-0.1,0-0.2,0.1-0.3,0.1c-0.1,0-0.2,0-0.3,0c-0.4,0-0.7-0.1-0.9-0.3c-0.2-0.2-0.3-0.5-0.3-0.9
					c0-0.2,0-0.4,0.1-0.5s0.1-0.3,0.2-0.4c0.1-0.1,0.2-0.2,0.4-0.3c0.1-0.1,0.3-0.1,0.5-0.1c0.1,0,0.2,0,0.3,0s0.2,0,0.3,0.1v0.4
					c-0.1-0.1-0.2-0.1-0.3-0.1s-0.2,0-0.3,0c-0.1,0-0.2,0-0.3,0.1c-0.1,0-0.2,0.1-0.2,0.2c-0.1,0.1-0.1,0.2-0.2,0.3
					c0,0.1-0.1,0.2-0.1,0.4c0,0.3,0.1,0.5,0.2,0.6c0.1,0.1,0.3,0.2,0.6,0.2c0.1,0,0.2,0,0.3,0c0.1,0,0.2-0.1,0.3-0.1L83,79.5
					L83,79.5z"/>
				<path class="st13" d="M85.6,79.5c-0.1,0-0.2,0.1-0.3,0.1c-0.1,0-0.2,0-0.3,0c-0.4,0-0.7-0.1-0.9-0.3c-0.2-0.2-0.3-0.5-0.3-0.9
					c0-0.2,0-0.4,0.1-0.5s0.1-0.3,0.2-0.4c0.1-0.1,0.2-0.2,0.4-0.3c0.1-0.1,0.3-0.1,0.5-0.1c0.1,0,0.2,0,0.3,0s0.2,0,0.3,0.1v0.4
					c-0.1-0.1-0.2-0.1-0.3-0.1s-0.2,0-0.3,0c-0.1,0-0.2,0-0.3,0.1c-0.1,0-0.2,0.1-0.2,0.2c-0.1,0.1-0.1,0.2-0.2,0.3
					c0,0.1-0.1,0.2-0.1,0.4c0,0.3,0.1,0.5,0.2,0.6c0.1,0.1,0.3,0.2,0.6,0.2c0.1,0,0.2,0,0.3,0c0.1,0,0.2-0.1,0.3-0.1L85.6,79.5
					L85.6,79.5z"/>
			</g>
			<polygon class="st3" points="160.6,84.2 129.5,84.2 134.7,78.6 129.5,73 160.6,73 165.8,78.6 			"/>
			<g>
				<rect x="138.9" y="76.3" class="st12" width="19.1" height="6.2"/>
				<path class="st13" d="M141.3,79.6h-0.4v-2.7h-1.3v2.7h-0.4v-3.1h2.1L141.3,79.6L141.3,79.6z"/>
				<path class="st13" d="M143.9,78.4c0,0.2,0,0.4-0.1,0.6c-0.1,0.2-0.1,0.3-0.2,0.4c-0.1,0.1-0.2,0.2-0.4,0.2s-0.3,0.1-0.5,0.1
					c-0.1,0-0.1,0-0.2,0s-0.1,0-0.2,0v1h-0.4v-3.3h0.4l0,0.4c0.1-0.2,0.2-0.3,0.4-0.3s0.3-0.1,0.4-0.1c0.1,0,0.3,0,0.4,0.1
					s0.2,0.1,0.3,0.2c0.1,0.1,0.1,0.2,0.2,0.4C143.9,78,143.9,78.2,143.9,78.4z M143.5,78.4c0-0.1,0-0.2,0-0.3c0-0.1,0-0.2-0.1-0.3
					s-0.1-0.1-0.1-0.2c-0.1,0-0.1-0.1-0.2-0.1c-0.1,0-0.1,0-0.2,0s-0.1,0-0.2,0.1c-0.1,0-0.1,0.1-0.2,0.2c-0.1,0.1-0.1,0.1-0.2,0.2
					v1.2c0.1,0,0.2,0.1,0.2,0.1s0.2,0,0.2,0c0.2,0,0.4-0.1,0.5-0.2S143.5,78.7,143.5,78.4z"/>
				<path class="st13" d="M146.6,78.4c0,0.2,0,0.4-0.1,0.5c-0.1,0.2-0.1,0.3-0.2,0.4c-0.1,0.1-0.2,0.2-0.4,0.3
					c-0.1,0.1-0.3,0.1-0.5,0.1c-0.2,0-0.3,0-0.5-0.1c-0.1-0.1-0.2-0.1-0.3-0.2s-0.2-0.2-0.2-0.4c0-0.2-0.1-0.3-0.1-0.5
					c0-0.2,0-0.4,0.1-0.5s0.1-0.3,0.2-0.4s0.2-0.2,0.4-0.3c0.1-0.1,0.3-0.1,0.5-0.1c0.2,0,0.3,0,0.5,0.1c0.1,0.1,0.2,0.1,0.3,0.2
					c0.1,0.1,0.2,0.2,0.2,0.4C146.6,78,146.6,78.2,146.6,78.4z M146.2,78.4c0-0.1,0-0.3,0-0.4s-0.1-0.2-0.1-0.3
					c-0.1-0.1-0.1-0.1-0.2-0.2c-0.1,0-0.2-0.1-0.3-0.1c-0.1,0-0.2,0-0.3,0.1c-0.1,0-0.2,0.1-0.2,0.2c-0.1,0.1-0.1,0.2-0.1,0.3
					c0,0.1,0,0.2,0,0.3c0,0.1,0,0.3,0,0.4s0.1,0.2,0.1,0.3c0.1,0.1,0.1,0.1,0.2,0.2c0.1,0,0.2,0.1,0.3,0.1c0.1,0,0.2,0,0.3-0.1
					c0.1,0,0.2-0.1,0.2-0.2s0.1-0.2,0.1-0.3C146.2,78.7,146.2,78.6,146.2,78.4z"/>
				<path class="st13" d="M149.4,79.3l0,1H149v-0.6h-1.8v-2.4h0.4v2h1.1v-2h0.4v2C149.1,79.3,149.4,79.3,149.4,79.3z"/>
				<path class="st13" d="M151.8,78.3c0,0.1,0,0.1,0,0.1c0,0,0,0.1,0,0.1h-1.7c0,0.2,0.1,0.4,0.2,0.6c0.1,0.1,0.3,0.2,0.6,0.2
					c0.1,0,0.1,0,0.2,0c0.1,0,0.1,0,0.2,0c0.1,0,0.1,0,0.2,0s0.1,0,0.2,0v0.3c-0.1,0-0.2,0.1-0.4,0.1c-0.1,0-0.3,0-0.4,0
					c-0.2,0-0.4,0-0.5-0.1c-0.1-0.1-0.3-0.1-0.4-0.2c-0.1-0.1-0.2-0.2-0.2-0.4c0-0.2-0.1-0.3-0.1-0.5c0-0.2,0-0.3,0.1-0.5
					s0.1-0.3,0.2-0.4c0.1-0.1,0.2-0.2,0.3-0.3c0.1-0.1,0.3-0.1,0.5-0.1c0.2,0,0.3,0,0.4,0.1c0.1,0.1,0.2,0.1,0.3,0.2
					c0.1,0.1,0.2,0.2,0.2,0.3C151.8,78,151.8,78.1,151.8,78.3z M151.4,78.2c0-0.1,0-0.2,0-0.3c0-0.1-0.1-0.2-0.1-0.2
					c-0.1-0.1-0.1-0.1-0.2-0.1s-0.2-0.1-0.3-0.1c-0.1,0-0.2,0-0.2,0.1c-0.1,0-0.1,0.1-0.2,0.1c-0.1,0.1-0.1,0.1-0.1,0.2
					c0,0.1-0.1,0.2-0.1,0.3H151.4z"/>
				<path class="st13" d="M154.3,79.5c-0.1,0-0.2,0.1-0.3,0.1c-0.1,0-0.2,0-0.3,0c-0.4,0-0.7-0.1-0.9-0.3c-0.2-0.2-0.3-0.5-0.3-0.9
					c0-0.2,0-0.4,0.1-0.5s0.1-0.3,0.2-0.4c0.1-0.1,0.2-0.2,0.4-0.3c0.1-0.1,0.3-0.1,0.5-0.1c0.1,0,0.2,0,0.3,0s0.2,0,0.3,0.1v0.4
					c-0.1-0.1-0.2-0.1-0.3-0.1s-0.2,0-0.3,0c-0.1,0-0.2,0-0.3,0.1c-0.1,0-0.2,0.1-0.2,0.2c-0.1,0.1-0.1,0.2-0.2,0.3
					c0,0.1-0.1,0.2-0.1,0.4c0,0.3,0.1,0.5,0.2,0.6c0.1,0.1,0.3,0.2,0.6,0.2c0.1,0,0.2,0,0.3,0c0.1,0,0.2-0.1,0.3-0.1L154.3,79.5
					L154.3,79.5z"/>
				<path class="st13" d="M157,79.5c-0.1,0-0.2,0.1-0.3,0.1c-0.1,0-0.2,0-0.3,0c-0.4,0-0.7-0.1-0.9-0.3c-0.2-0.2-0.3-0.5-0.3-0.9
					c0-0.2,0-0.4,0.1-0.5s0.1-0.3,0.2-0.4c0.1-0.1,0.2-0.2,0.4-0.3c0.1-0.1,0.3-0.1,0.5-0.1c0.1,0,0.2,0,0.3,0s0.2,0,0.3,0.1v0.4
					c-0.1-0.1-0.2-0.1-0.3-0.1s-0.2,0-0.3,0c-0.1,0-0.2,0-0.3,0.1c-0.1,0-0.2,0.1-0.2,0.2c-0.1,0.1-0.1,0.2-0.2,0.3
					c0,0.1-0.1,0.2-0.1,0.4c0,0.3,0.1,0.5,0.2,0.6c0.1,0.1,0.3,0.2,0.6,0.2c0.1,0,0.2,0,0.3,0c0.1,0,0.2-0.1,0.3-0.1L157,79.5
					L157,79.5z"/>
			</g>
			<line class="st6" x1="188.2" y1="44.4" x2="202.6" y2="78.5"/>
			<g>
				<rect x="101.7" y="76.1" class="st12" width="24.9" height="4.2"/>
				<path class="st13" d="M107.2,79.5h-0.4v-2.7h-1.3v2.7h-0.4v-3.1h2.1V79.5z"/>
				<path class="st13" d="M109.9,78.2c0,0.2,0,0.4-0.1,0.6s-0.1,0.3-0.2,0.4c-0.1,0.1-0.2,0.2-0.4,0.2s-0.3,0.1-0.5,0.1
					c-0.1,0-0.1,0-0.2,0s-0.1,0-0.2,0v1h-0.4v-3.3h0.4l0,0.4c0.1-0.2,0.2-0.3,0.4-0.3s0.3-0.1,0.4-0.1c0.1,0,0.3,0,0.4,0.1
					s0.2,0.1,0.3,0.2c0.1,0.1,0.1,0.2,0.2,0.4C109.9,77.9,109.9,78.1,109.9,78.2z M109.5,78.3c0-0.1,0-0.2,0-0.3
					c0-0.1,0-0.2-0.1-0.3s-0.1-0.1-0.2-0.2c-0.1,0-0.1-0.1-0.2-0.1c-0.1,0-0.1,0-0.2,0s-0.1,0-0.2,0.1c-0.1,0-0.1,0.1-0.2,0.2
					c-0.1,0.1-0.1,0.1-0.2,0.2v1.2c0.1,0,0.2,0.1,0.2,0.1s0.2,0,0.2,0c0.2,0,0.4-0.1,0.5-0.2S109.5,78.6,109.5,78.3z"/>
				<path class="st13" d="M112.6,78.3c0,0.2,0,0.4-0.1,0.5c-0.1,0.2-0.1,0.3-0.2,0.4c-0.1,0.1-0.2,0.2-0.4,0.3
					c-0.1,0.1-0.3,0.1-0.5,0.1c-0.2,0-0.3,0-0.5-0.1c-0.1-0.1-0.2-0.1-0.3-0.2s-0.2-0.2-0.2-0.4c0-0.2-0.1-0.3-0.1-0.5
					c0-0.2,0-0.4,0.1-0.5s0.1-0.3,0.2-0.4s0.2-0.2,0.4-0.3c0.1-0.1,0.3-0.1,0.5-0.1c0.2,0,0.3,0,0.5,0.1c0.1,0.1,0.2,0.1,0.3,0.2
					c0.1,0.1,0.2,0.2,0.2,0.4C112.6,77.9,112.6,78.1,112.6,78.3z M112.2,78.3c0-0.1,0-0.3,0-0.4s-0.1-0.2-0.1-0.3
					c-0.1-0.1-0.1-0.1-0.2-0.2c-0.1,0-0.2-0.1-0.3-0.1c-0.1,0-0.2,0-0.3,0.1c-0.1,0-0.2,0.1-0.2,0.2c-0.1,0.1-0.1,0.2-0.1,0.3
					c0,0.1,0,0.2,0,0.3c0,0.1,0,0.3,0,0.4s0.1,0.2,0.1,0.3c0.1,0.1,0.1,0.1,0.2,0.2c0.1,0,0.2,0.1,0.3,0.1c0.1,0,0.2,0,0.3-0.1
					c0.1,0,0.2-0.1,0.2-0.2s0.1-0.2,0.1-0.3C112.2,78.5,112.2,78.4,112.2,78.3z"/>
				<path class="st13" d="M115.4,79.1l0,1H115v-0.6h-1.7v0.6h-0.4l0-1h0c0.1,0,0.1,0,0.2,0c0.1,0,0.1-0.1,0.1-0.1
					c0-0.1,0.1-0.1,0.1-0.2s0.1-0.2,0.1-0.4c0-0.1,0.1-0.3,0.1-0.5c0-0.2,0-0.5,0.1-0.8h1.5v2C115,79.1,115.4,79.1,115.4,79.1z
					 M114.6,77.5H114c0,0.3,0,0.5-0.1,0.7c0,0.2-0.1,0.4-0.1,0.5c0,0.1-0.1,0.2-0.1,0.3c0,0.1-0.1,0.1-0.1,0.2h1.1L114.6,77.5
					L114.6,77.5z"/>
				<path class="st13" d="M117.9,77.1l-0.8,2.1c-0.1,0.2-0.2,0.4-0.3,0.6c-0.1,0.2-0.2,0.3-0.3,0.4c-0.1,0.1-0.2,0.2-0.3,0.2
					c-0.1,0-0.3,0.1-0.4,0.1c0,0-0.1,0-0.1,0c0,0-0.1,0-0.1,0v-0.4c0,0,0.1,0,0.1,0c0,0,0.1,0,0.1,0c0.1,0,0.1,0,0.2,0
					c0.1,0,0.1-0.1,0.2-0.1s0.1-0.1,0.2-0.2c0.1-0.1,0.1-0.2,0.2-0.3l-0.9-2.4h0.5l0.6,1.6l0.1,0.4l0.1-0.4l0.6-1.6L117.9,77.1
					L117.9,77.1z"/>
				<path class="st13" d="M120.6,79.5H120l-1.1-1.3v1.3h-0.4v-2.4h0.4v1.1l1.1-1.1h0.5l-1.1,1.1L120.6,79.5z"/>
				<path class="st13" d="M123.1,77.5h-0.9v2h-0.4v-2h-0.9v-0.4h2.2L123.1,77.5L123.1,77.5z"/>
			</g>
			<line class="st6" x1="114.2" y1="45.8" x2="59" y2="73.2"/>
			<line class="st25" x1="129.5" y1="84.4" x2="29.2" y2="99.5"/>
			<line class="st26" x1="4.3" y1="91.1" x2="254.4" y2="91.1"/>
			<line class="st26" x1="4.3" y1="52.4" x2="254.4" y2="52.4"/>
			<line class="st26" x1="4.3" y1="114" x2="254.4" y2="114"/>
			<line class="st27" x1="28.5" y1="84.7" x2="28.5" y2="122.7"/>
			<polygon class="st28" points="8,97.7 26.5,97.7 24.2,109.3 5.8,109.3 			"/>
			<g>
				<rect x="6.1" y="100.9" class="st12" width="21" height="4.7"/>
				<path class="st29" d="M13.7,103.3c0,0.1,0,0.3-0.1,0.4c-0.1,0.1-0.1,0.2-0.2,0.3s-0.2,0.1-0.4,0.2s-0.3,0.1-0.5,0.1h-0.8v-3.1
					h0.9c0.7,0,1,0.3,1,0.8c0,0.2,0,0.3-0.1,0.4c-0.1,0.1-0.2,0.2-0.4,0.3c0.1,0,0.2,0,0.2,0.1s0.1,0.1,0.2,0.1
					c0.1,0.1,0.1,0.1,0.1,0.2C13.7,103.1,13.7,103.2,13.7,103.3z M13.2,101.9c0-0.1,0-0.1,0-0.2c0-0.1-0.1-0.1-0.1-0.1
					s-0.1-0.1-0.2-0.1c-0.1,0-0.2,0-0.3,0h-0.4v1h0.4c0.1,0,0.2,0,0.3,0c0.1,0,0.1-0.1,0.2-0.1c0.1,0,0.1-0.1,0.1-0.2
					C13.2,102.1,13.2,102,13.2,101.9z M13.3,103.3c0-0.1,0-0.1-0.1-0.2c0-0.1-0.1-0.1-0.1-0.2c-0.1,0-0.1-0.1-0.2-0.1
					c-0.1,0-0.2,0-0.3,0h-0.4v1.1h0.4c0.2,0,0.4,0,0.5-0.1C13.2,103.7,13.3,103.5,13.3,103.3z"/>
				<path class="st29" d="M16.5,104.2h-0.5l-0.6-0.9l-0.6,0.9h-0.5l0.9-1.2l-0.9-1.2h0.5l0.6,0.9l0.6-0.9h0.5l-0.9,1.2L16.5,104.2z"
					/>
				<path class="st29" d="M19,103c0,0.2,0,0.4-0.1,0.5c-0.1,0.2-0.1,0.3-0.2,0.4c-0.1,0.1-0.2,0.2-0.4,0.3c-0.1,0.1-0.3,0.1-0.5,0.1
					c-0.2,0-0.3,0-0.5-0.1c-0.1-0.1-0.2-0.1-0.3-0.2s-0.2-0.2-0.2-0.4c0-0.2-0.1-0.3-0.1-0.5c0-0.2,0-0.4,0.1-0.5s0.1-0.3,0.2-0.4
					s0.2-0.2,0.4-0.3c0.1-0.1,0.3-0.1,0.5-0.1c0.2,0,0.3,0,0.5,0.1c0.1,0.1,0.2,0.1,0.3,0.2c0.1,0.1,0.2,0.2,0.2,0.4
					C19,102.7,19,102.8,19,103z M18.6,103c0-0.1,0-0.3,0-0.4s-0.1-0.2-0.1-0.3c-0.1-0.1-0.1-0.1-0.2-0.2c-0.1,0-0.2-0.1-0.3-0.1
					c-0.1,0-0.2,0-0.3,0.1c-0.1,0-0.2,0.1-0.2,0.2c-0.1,0.1-0.1,0.2-0.1,0.3c0,0.1,0,0.2,0,0.3c0,0.1,0,0.3,0,0.4s0.1,0.2,0.1,0.3
					c0.1,0.1,0.1,0.1,0.2,0.2c0.1,0,0.2,0.1,0.3,0.1c0.1,0,0.2,0,0.3-0.1c0.1,0,0.2-0.1,0.2-0.2s0.1-0.2,0.1-0.3
					C18.6,103.3,18.6,103.2,18.6,103z"/>
				<path class="st29" d="M21.8,103.9l0,1h-0.4v-0.6h-1.7v0.6h-0.4l0-1h0c0.1,0,0.1,0,0.2,0c0.1,0,0.1-0.1,0.1-0.1
					c0-0.1,0.1-0.1,0.1-0.2s0.1-0.2,0.1-0.4c0-0.1,0.1-0.3,0.1-0.5c0-0.2,0-0.5,0.1-0.8h1.5v2C21.5,103.9,21.8,103.9,21.8,103.9z
					 M21.1,102.2h-0.7c0,0.3,0,0.5-0.1,0.7c0,0.2-0.1,0.4-0.1,0.5c0,0.1-0.1,0.2-0.1,0.3c0,0.1-0.1,0.1-0.1,0.2h1.1L21.1,102.2
					L21.1,102.2z"/>
			</g>
		</g>
	</g>
	<g>
		<g>
			<path class="st30" d="M69.2,64.4c0,1.4,0.6,2.6,1.6,3.5c1,0.9,2.2,1.4,3.6,1.3c1.4,0,2.5-0.6,3.5-1.6c1-1,1.4-2.2,1.4-3.6
				l-0.6-16.7C78.5,46.1,78,45,77,44c-1-0.9-2.2-1.4-3.6-1.4c-1.4,0.1-2.5,0.6-3.4,1.6c-1,1-1.4,2.2-1.4,3.6L69.2,64.4z"/>
		</g>
		<line class="st31" x1="77.2" y1="58.4" x2="90.6" y2="64"/>
		<line class="st31" x1="69.6" y1="58.4" x2="56.1" y2="64"/>
		<path class="st32" d="M96.2,44.5V19H81.4v20c0,1.5,0.5,2.8,1.6,3.9c1.1,1.1,2.4,1.6,3.9,1.6H96.2z"/>
		<path class="st33" d="M142.6,58.3l5.2,3.1l4.9-4.1c1.5-1.3,2.3-2.4,2.6-3.4l0.2-0.5c0.3-1.4,1-2.8,1.9-4.2l-7.4-3.8
			c-0.6,0.3-1.2,0.7-1.7,1.4c-0.6,0.6-0.9,1.2-1.1,1.8l-0.7,2.4C146.4,51.9,145.1,54.3,142.6,58.3z"/>
		<path class="st33" d="M155.4,51.7c0.7,0,1.3-0.3,1.8-0.8c0.5-0.5,0.7-1.2,0.7-1.9c0-0.7-0.3-1.3-0.8-1.8l-3-2.7
			c-0.5-0.5-1.1-0.7-1.8-0.7c-0.7,0-1.3,0.3-1.8,0.8c-0.5,0.5-0.7,1.2-0.7,1.8c0,0.7,0.3,1.3,0.8,1.8l3,2.8
			C154.1,51.4,154.7,51.7,155.4,51.7z"/>
		<path class="st32" d="M64.7,41.1c1.3,0.6,2.9,1.1,5.1,1.4c2,0.3,4.1,0.3,6.3,0L74.4,36c-2.4-0.7-5.1-2.1-7.9-4.2
			c-2.9-2.2-5-4.4-6.2-6.6c-1,1.7-1.4,3.7-1.1,6.1c0.2,2,0.9,4.1,2,6.1C61.9,39,63.2,40.3,64.7,41.1z"/>
		<g>
			<path class="st30" d="M68.6,55.7c0,1.4,0.6,2.6,1.6,3.5c1,0.9,2.2,1.4,3.6,1.3c1.4,0,2.5-0.6,3.4-1.6c0.9-1,1.4-2.2,1.4-3.6
				L78,38.8c-0.1-1.4-0.6-2.5-1.6-3.5c-1-1-2.2-1.4-3.6-1.4c-1.4,0.1-2.5,0.6-3.5,1.6c-0.9,1-1.4,2.2-1.4,3.6L68.6,55.7z"/>
		</g>
		<path class="st30" d="M64.4,10c-1.4,2.4-2,5-2,7.9l0,12.9c0,4.7,2.2,9,6.7,12.7c4.7,3.9,10.1,5.9,16.4,5.9c3-1.5,5.2-3.3,6.6-5.4
			c1.4-2.3,2.2-5.6,2.5-9.7c0.1-1.7,0.1-4.9,0.1-9.6L94.5,18c0-2.9-0.6-5.5-1.7-7.9L64.4,10z"/>
		<path class="st30" d="M61.6,25.1c-1.3,0-2.4,0.5-3.3,1.4c-0.9,0.9-1.4,2-1.4,3.3c0,1.3,0.5,2.4,1.4,3.2c0.9,0.9,2,1.4,3.3,1.4h4.6
			v-4.6c0-1.3-0.5-2.4-1.4-3.3C64,25.6,62.9,25.1,61.6,25.1z"/>
		<g>
			<path class="st33" d="M46.5,99.9l1.6-5.3l-6.5-2l-1.6,5.3c-1.8,5.7-3,9.5-3.7,11.4c-1.6,4.3-3.2,7.7-4.8,10.1
				c-1,1.2-1.7,1.9-2.1,2.2l-0.6,0.5l-0.2,0.1c-0.2,0.1-0.4,0.3-0.6,0.6c-0.2,0.2-0.3,0.5-0.4,0.9c-0.3,0.9-0.5,1.8-0.4,2.5
				c0.1,1.1,0.5,1.8,1.4,2.2c0.4,0.2,1,0.3,1.6,0.3c0.5,0,1.1-0.2,1.7-0.6l0.5-0.3l1.2-0.9c1-0.7,2.1-1.9,3.4-3.6
				c2-2.8,3.9-6.8,5.7-11.7C43.5,109.4,44.8,105.5,46.5,99.9z"/>
			<path class="st34" d="M56.9,61.4c-0.7,0-1.4,0.1-2.2,0.4c-0.5,0.2-0.8,0.4-1.1,0.6l-0.9,0.8l-1.1,1.3c-0.9,1.1-1.7,2.3-2.4,3.5
				c-1.9,3.1-3.5,6.7-5,10.9c-1.4,3.7-2.6,7.3-3.6,10.8l-1.5,4.8l9.9,2.9l1.5-4.8c1.3-4.2,2.4-7.5,3.4-10.2c1.4-3.9,2.8-6.9,4.2-9.1
				c0.5-0.9,1.1-1.8,1.7-2.5l0.7-0.8l0.4-0.6l0.3-0.7c0.1-0.5,0.1-1,0.1-1.6c-0.1-1.5-0.4-2.7-1.1-3.7
				C59.4,62.2,58.3,61.5,56.9,61.4z"/>
		</g>
		<path class="st33" d="M29.2,128.9c1.5,0,2.7-0.5,3.8-1.6c1-1.1,1.6-2.3,1.6-3.8c0-1.5-0.5-2.8-1.6-3.8c-1-1.1-2.3-1.6-3.8-1.6
			c-1.5,0-2.8,0.5-3.8,1.6c-1.1,1-1.6,2.3-1.6,3.8c0,1.5,0.5,2.8,1.6,3.8C26.5,128.4,27.7,128.9,29.2,128.9z"/>
		<path class="st33" d="M30.3,119c-0.8-0.8-1.7-1.2-2.8-1.3c-1.1,0-2.1,0.3-2.9,1.1c-0.8,0.8-1.3,1.7-1.3,2.8l0,5.2
			c0,1.1,0.3,2.1,1.1,2.9c0.8,0.8,1.7,1.3,2.8,1.3c1.1,0,2.1-0.3,2.9-1.1c0.8-0.7,1.3-1.7,1.3-2.8l0-5.1
			C31.4,120.8,31.1,119.8,30.3,119z"/>
		<path class="st34" d="M53.4,63c1.3-2.4,3.4-3.4,6.2-2.8c9.5,1.9,19.4,1.9,29.6,0c2.1-0.3,4.1,0.6,6.2,2.8l-5.7,55l-15.4,1.6
			l-15.4-1.6L53.4,63z"/>
		<path class="st35" d="M92.8,8.6c2.7,3.1,4.1,6.7,4.2,10.8v28.9c0,1.5-0.5,2.9-1.6,3.9C94.3,53.4,93,54,91.5,54h-7.9
			c-2.2,0.2-4.7,0.3-7.6,0.2c-0.3,0-0.6,0-1,0c-1.9-0.1-4-0.1-6.2-0.2h-9.3c-1.5,0-2.8-0.6-3.9-1.7c-1.1-1.1-1.6-2.4-1.6-3.9V19.4
			c0.1-4.1,1.4-7.7,4.2-10.8c2.7-3,6-5,10.1-5.8c1.7-0.3,3.5-0.5,5.3-0.4c-0.2-0.1-0.3-0.1-0.3-0.2c-0.5-0.2,0.1-0.1,1.8,0.2
			c0.3,0,0.6,0.1,1,0.2V2.6c1.7-0.4,2.3-0.5,1.8-0.2c-0.1,0.1-0.2,0.1-0.3,0.2c1.8-0.1,3.6,0.1,5.3,0.4C86.8,3.7,90.2,5.6,92.8,8.6z
			"/>
		<g>
			<g>
				<path class="st33" d="M151.8,52.5c0.7,0.6,1.1,1.5,1.1,2.5c0.1,0.9-0.2,1.8-0.9,2.4l-5,5.2c-3.3,3.6-6.9,7.3-11,11.2
					c-1.2,1.2-2.5,2.5-3.8,3.7c-3.1,2.9-5.7,2.3-8-1.8c2.6-2.3,5-4.6,7.2-6.9c5.3-5,10.5-10.4,15.7-16c0.5-0.7,1.3-1.1,2.2-1.2
					C150.3,51.7,151.1,51.9,151.8,52.5z"/>
			</g>
			<path class="st33" d="M116.2,76.6l1.8-6.6l6.7,1.7c1.5,0.3,2.9,0.7,4.3,1.1v7c-2-0.5-4-0.9-5.9-1.4L116.2,76.6z"/>
			<path class="st34" d="M87.9,70.1c0.6,1.3,1.6,2.1,3,2.6l13.1,4c4.4,1.3,8.8,2.5,13.3,3.6l2.5-10c-4.3-1.1-8.6-2.2-12.9-3.5
				l-12.8-4c-1.3-0.5-2.6-0.4-3.9,0.3c-1.3,0.7-2.1,1.7-2.6,3C87.2,67.5,87.3,68.8,87.9,70.1z"/>
		</g>
		<polygon class="st36" points="103.6,141.5 46.5,141.5 59.1,118.1 89.8,118.1 		"/>
	</g>
</g>
</svg>
