<?xml version="1.0" encoding="utf-8"?>
<!-- Generator: Adobe Illustrator 19.2.1, SVG Export Plug-In . SVG Version: 6.00 Build 0)  -->
<svg version="1.1" id="Слой_1" xmlns="http://www.w3.org/2000/svg" xmlns:xlink="http://www.w3.org/1999/xlink" x="0px" y="0px"
	 viewBox="0 0 261.5 164.9" style="enable-background:new 0 0 261.5 164.9;" xml:space="preserve">
<style type="text/css">
	.st0{fill:#F5F6F6;}
	.st1{fill:#B9CEBF;}
	.st2{fill:none;stroke:#B9CEBF;stroke-miterlimit:10;}
	.st3{fill:#EB2227;}
	.st4{fill:#8F8F8E;stroke:#676767;stroke-width:0.3437;stroke-miterlimit:10;}
	.st5{fill:#8F8F8E;}
	.st6{fill:none;stroke:#676767;stroke-width:0.3437;stroke-miterlimit:10;}
	.st7{fill:none;stroke:#676767;stroke-width:0.3437;stroke-miterlimit:10;stroke-dasharray:1.6104,1.6104;}
	.st8{fill:none;stroke:#676767;stroke-width:0.3437;stroke-miterlimit:10;stroke-dasharray:1.8524,1.8524;}
	.st9{fill:none;stroke:#676767;stroke-width:0.3437;stroke-miterlimit:10;stroke-dasharray:2.0634,2.0634;}
	.st10{fill:none;stroke:#676767;stroke-width:0.3437;stroke-miterlimit:10;stroke-dasharray:1.8676,1.8676;}
	.st11{fill:none;stroke:#676767;stroke-width:0.3437;stroke-miterlimit:10;stroke-dasharray:2.0564,2.0564;}
	.st12{fill:none;}
	.st13{fill:#FFFFFF;}
	.st14{fill:none;stroke:#676767;stroke-width:0.3437;stroke-miterlimit:10;stroke-dasharray:1.8528,1.8528;}
	.st15{fill:none;stroke:#676767;stroke-width:0.3437;stroke-miterlimit:10;stroke-dasharray:2.0629,2.0629;}
	.st16{fill:none;stroke:#676767;stroke-width:0.3437;stroke-miterlimit:10;stroke-dasharray:1.8681,1.8681;}
	.st17{fill:none;stroke:#676767;stroke-width:0.3437;stroke-miterlimit:10;stroke-dasharray:1.6105,1.6105;}
	.st18{fill:none;stroke:#676767;stroke-width:0.3437;stroke-miterlimit:10;stroke-dasharray:1.9536,1.9536;}
	.st19{fill:none;stroke:#676767;stroke-width:0.3437;stroke-miterlimit:10;stroke-dasharray:1.9596,1.9596;}
	.st20{fill:none;stroke:#676767;stroke-width:0.3437;stroke-miterlimit:10;stroke-dasharray:1.9415,1.9415;}
	.st21{fill:none;stroke:#676767;stroke-width:0.3437;stroke-miterlimit:10;stroke-dasharray:1.9796,1.9796;}
	.st22{fill:none;stroke:#676767;stroke-width:0.3437;stroke-miterlimit:10;stroke-dasharray:1.9538,1.9538;}
	.st23{fill:none;stroke:#676767;stroke-width:0.3437;stroke-miterlimit:10;stroke-dasharray:1.9591,1.9591;}
	.st24{fill:none;stroke:#676767;stroke-width:0.3437;stroke-miterlimit:10;stroke-dasharray:1.9803,1.9803;}
	.st25{fill:none;stroke:#676767;stroke-width:0.3445;stroke-miterlimit:10;}
	.st26{fill:none;stroke:#929497;stroke-width:0.5294;stroke-miterlimit:10;stroke-dasharray:3.36;}
	.st27{fill:none;stroke:#EB2227;stroke-miterlimit:10;stroke-dasharray:4;}
	.st28{fill:#E7E7E7;stroke:#8F8F8E;stroke-width:0.3187;stroke-miterlimit:10;}
	.st29{fill:#010101;}
	.st30{fill:#675F53;}
	.st31{fill:#27383A;}
	.st32{fill:#95A8AF;}
	.st33{fill:#F8A586;}
	.st34{fill:#F9AC8D;}
	.st35{fill:#BACACD;}
	.st36{fill:#F8A586;stroke:#F8A586;stroke-miterlimit:10;}
	.st37{fill:#F8A586;stroke:#F8A586;stroke-width:1.3;stroke-miterlimit:10;}
	.st38{fill:none;stroke:#010101;stroke-miterlimit:10;}
</style>
<g id="base">
</g>
<g id="plashki">
</g>
<g id="lines">
</g>
<g id="image">
</g>
<g id="_x31_">
</g>
<g id="символы">
</g>
<g id="Layer_1_4_">
</g>
<g>
	<g>
		<rect x="3.4" y="1.9" class="st0" width="255.6" height="130.8"/>
		<rect x="3.4" y="1.9" class="st1" width="255.6" height="14.6"/>
		<rect x="3.4" y="118.3" class="st1" width="255.6" height="14.6"/>
		<line class="st2" x1="3.5" y1="3.1" x2="3.5" y2="133.1"/>
		<line class="st2" x1="258.5" y1="3.1" x2="258.5" y2="133.1"/>
	</g>
	<g>
		<polygon class="st3" points="138.4,106.5 104,106.5 109.2,100.8 104,95.3 138.5,95.3 143.6,100.8 		"/>
		<polygon class="st4" points="248.9,106.5 223,106.5 217.9,100.9 223,95.3 248.9,95.3 254,100.8 		"/>
		<polygon class="st3" points="147.2,43 116.2,43 116.2,31.8 147.3,31.8 152.4,37.1 		"/>
		<g>
			<polygon class="st5" points="185,35.1 159.1,35.1 154,30 159.2,23.9 185,23.9 190.2,29.2 			"/>
			<g>
				<polyline class="st6" points="185.6,34.5 185,35.1 184.2,35.1 				"/>
				<line class="st7" x1="182.6" y1="35.1" x2="160.8" y2="35.1"/>
				<polyline class="st6" points="160,35.1 159.1,35.1 158.5,34.5 				"/>
				<line class="st8" x1="157.2" y1="33.2" x2="155.3" y2="31.2"/>
				<polyline class="st6" points="154.6,30.6 154,30 154.6,29.3 				"/>
				<line class="st9" x1="155.9" y1="27.7" x2="157.9" y2="25.4"/>
				<polyline class="st6" points="158.6,24.6 159.2,23.9 160,23.9 				"/>
				<line class="st7" x1="161.6" y1="23.9" x2="183.4" y2="23.9"/>
				<polyline class="st6" points="184.2,23.9 185,23.9 185.6,24.6 				"/>
				<line class="st10" x1="187" y1="25.9" x2="188.9" y2="27.9"/>
				<polyline class="st6" points="189.6,28.5 190.2,29.2 189.6,29.8 				"/>
				<line class="st11" x1="188.3" y1="31.4" x2="186.3" y2="33.7"/>
			</g>
		</g>
		<polygon class="st3" points="128.1,63.4 97.1,63.4 102.3,57.7 97.1,52.2 128.2,52.2 133.3,57.7 		"/>
		<g>
			<rect x="117.8" y="35.1" class="st12" width="32.9" height="4.7"/>
			<path class="st13" d="M120.4,38.4H120l-0.1-1.9l0-0.7l-0.1,0.4l-0.5,1.2H119l-0.4-1.2l-0.1-0.5l0,0.8l-0.1,1.9H118l0.1-3.1h0.5
				l0.4,1.2l0.1,0.4l0.1-0.4l0.4-1.2h0.5L120.4,38.4z"/>
			<path class="st13" d="M122.4,38.4l0-0.3c-0.1,0.1-0.3,0.2-0.4,0.3c-0.1,0.1-0.3,0.1-0.4,0.1c-0.1,0-0.3,0-0.3-0.1
				c-0.1,0-0.2-0.1-0.2-0.1s-0.1-0.1-0.1-0.2s0-0.2,0-0.3c0-0.2,0.1-0.4,0.3-0.6s0.4-0.2,0.8-0.2h0.5v-0.2c0-0.1,0-0.3-0.1-0.3
				c-0.1-0.1-0.2-0.1-0.4-0.1c-0.1,0-0.3,0-0.4,0c-0.1,0-0.3,0.1-0.4,0.1v-0.4c0.1,0,0.1,0,0.2-0.1s0.1,0,0.2,0c0.1,0,0.1,0,0.2,0
				c0.1,0,0.2,0,0.2,0c0.1,0,0.3,0,0.4,0c0.1,0,0.2,0.1,0.3,0.1c0.1,0.1,0.1,0.1,0.2,0.2c0,0.1,0.1,0.2,0.1,0.3v1.6
				C122.7,38.4,122.4,38.4,122.4,38.4z M122.3,37.3h-0.5c-0.1,0-0.2,0-0.3,0s-0.1,0-0.2,0.1s-0.1,0.1-0.1,0.1c0,0.1,0,0.1,0,0.2
				c0,0,0,0.1,0,0.1c0,0,0,0.1,0.1,0.1c0,0,0.1,0.1,0.1,0.1c0.1,0,0.1,0,0.2,0c0.1,0,0.2,0,0.3-0.1s0.2-0.1,0.4-0.3L122.3,37.3
				L122.3,37.3z"/>
			<path class="st13" d="M125.6,38.4h-0.6l-1.1-1.3v1.3h-0.4V36h0.4v1.1L125,36h0.5l-1.1,1.1L125.6,38.4z"/>
			<path class="st13" d="M128.1,37.2c0,0.2,0,0.4-0.1,0.6c-0.1,0.2-0.1,0.3-0.2,0.4c-0.1,0.1-0.2,0.2-0.4,0.2s-0.3,0.1-0.5,0.1
				c-0.1,0-0.1,0-0.2,0s-0.1,0-0.2,0v1h-0.4V36h0.4l0,0.4c0.1-0.2,0.2-0.3,0.4-0.3s0.3-0.1,0.4-0.1c0.1,0,0.3,0,0.4,0.1
				s0.2,0.1,0.3,0.2c0.1,0.1,0.1,0.2,0.2,0.4C128.1,36.8,128.1,37,128.1,37.2z M127.7,37.2c0-0.1,0-0.2,0-0.3c0-0.1,0-0.2-0.1-0.3
				s-0.1-0.1-0.2-0.2c-0.1,0-0.1-0.1-0.2-0.1c-0.1,0-0.1,0-0.2,0c-0.1,0-0.1,0-0.2,0.1c-0.1,0-0.1,0.1-0.2,0.2
				c-0.1,0.1-0.1,0.1-0.2,0.2V38c0.1,0,0.2,0.1,0.2,0.1s0.2,0,0.2,0c0.2,0,0.4-0.1,0.5-0.2S127.7,37.5,127.7,37.2z"/>
			<path class="st13" d="M130.8,37.2c0,0.2,0,0.4-0.1,0.5s-0.1,0.3-0.2,0.4c-0.1,0.1-0.2,0.2-0.4,0.3c-0.1,0.1-0.3,0.1-0.5,0.1
				c-0.2,0-0.3,0-0.5-0.1c-0.1-0.1-0.2-0.1-0.3-0.2s-0.2-0.2-0.2-0.4c0-0.2-0.1-0.3-0.1-0.5c0-0.2,0-0.4,0.1-0.5s0.1-0.3,0.2-0.4
				s0.2-0.2,0.4-0.3c0.1-0.1,0.3-0.1,0.5-0.1c0.2,0,0.3,0,0.5,0.1c0.1,0.1,0.2,0.1,0.3,0.2c0.1,0.1,0.2,0.2,0.2,0.4
				C130.8,36.8,130.8,37,130.8,37.2z M130.4,37.2c0-0.1,0-0.3,0-0.4s-0.1-0.2-0.1-0.3c-0.1-0.1-0.1-0.1-0.2-0.2
				c-0.1,0-0.2-0.1-0.3-0.1c-0.1,0-0.2,0-0.3,0.1c-0.1,0-0.2,0.1-0.2,0.2c-0.1,0.1-0.1,0.2-0.1,0.3c0,0.1,0,0.2,0,0.3
				c0,0.1,0,0.3,0,0.4s0.1,0.2,0.1,0.3c0.1,0.1,0.1,0.1,0.2,0.2c0.1,0,0.2,0.1,0.3,0.1c0.1,0,0.2,0,0.3-0.1c0.1,0,0.2-0.1,0.2-0.2
				s0.1-0.2,0.1-0.3C130.4,37.5,130.4,37.3,130.4,37.2z"/>
			<path class="st13" d="M133.3,38.4h-0.4v-2h-1.1v2h-0.4V36h1.9L133.3,38.4L133.3,38.4z"/>
			<path class="st13" d="M136.1,37.2c0,0.2,0,0.4-0.1,0.6c-0.1,0.2-0.1,0.3-0.2,0.4c-0.1,0.1-0.2,0.2-0.4,0.2s-0.3,0.1-0.5,0.1
				c-0.1,0-0.1,0-0.2,0s-0.1,0-0.2,0v1h-0.4V36h0.4l0,0.4c0.1-0.2,0.2-0.3,0.4-0.3s0.3-0.1,0.4-0.1c0.1,0,0.3,0,0.4,0.1
				s0.2,0.1,0.3,0.2c0.1,0.1,0.1,0.2,0.2,0.4C136,36.8,136.1,37,136.1,37.2z M135.6,37.2c0-0.1,0-0.2,0-0.3c0-0.1,0-0.2-0.1-0.3
				s-0.1-0.1-0.1-0.2c-0.1,0-0.1-0.1-0.2-0.1c-0.1,0-0.1,0-0.2,0c-0.1,0-0.1,0-0.2,0.1c-0.1,0-0.1,0.1-0.2,0.2
				c-0.1,0.1-0.1,0.1-0.2,0.2V38c0.1,0,0.2,0.1,0.2,0.1s0.2,0,0.2,0c0.2,0,0.4-0.1,0.5-0.2S135.6,37.5,135.6,37.2z"/>
			<path class="st13" d="M138.7,37.2c0,0.2,0,0.4-0.1,0.5s-0.1,0.3-0.2,0.4c-0.1,0.1-0.2,0.2-0.4,0.3c-0.1,0.1-0.3,0.1-0.5,0.1
				c-0.2,0-0.3,0-0.5-0.1c-0.1-0.1-0.2-0.1-0.3-0.2s-0.2-0.2-0.2-0.4c0-0.2-0.1-0.3-0.1-0.5c0-0.2,0-0.4,0.1-0.5s0.1-0.3,0.2-0.4
				s0.2-0.2,0.4-0.3c0.1-0.1,0.3-0.1,0.5-0.1c0.2,0,0.3,0,0.5,0.1c0.1,0.1,0.2,0.1,0.3,0.2c0.1,0.1,0.2,0.2,0.2,0.4
				C138.7,36.8,138.7,37,138.7,37.2z M138.3,37.2c0-0.1,0-0.3,0-0.4s-0.1-0.2-0.1-0.3c-0.1-0.1-0.1-0.1-0.2-0.2
				c-0.1,0-0.2-0.1-0.3-0.1c-0.1,0-0.2,0-0.3,0.1c-0.1,0-0.2,0.1-0.2,0.2c-0.1,0.1-0.1,0.2-0.1,0.3c0,0.1,0,0.2,0,0.3
				c0,0.1,0,0.3,0,0.4s0.1,0.2,0.1,0.3c0.1,0.1,0.1,0.1,0.2,0.2c0.1,0,0.2,0.1,0.3,0.1c0.1,0,0.2,0,0.3-0.1c0.1,0,0.2-0.1,0.2-0.2
				s0.1-0.2,0.1-0.3C138.3,37.5,138.3,37.3,138.3,37.2z"/>
			<path class="st13" d="M141.5,38.1l0,1h-0.4v-0.6h-1.8V36h0.4v2h1.1v-2h0.4v2H141.5z"/>
			<path class="st13" d="M144,37.1c0,0.1,0,0.1,0,0.1c0,0,0,0.1,0,0.1h-1.7c0,0.2,0.1,0.4,0.2,0.6c0.1,0.1,0.3,0.2,0.6,0.2
				c0.1,0,0.1,0,0.2,0c0.1,0,0.1,0,0.2,0c0.1,0,0.1,0,0.2,0s0.1,0,0.2,0v0.3c-0.1,0-0.2,0.1-0.4,0.1c-0.1,0-0.3,0-0.4,0
				c-0.2,0-0.4,0-0.5-0.1c-0.1-0.1-0.3-0.1-0.4-0.2c-0.1-0.1-0.2-0.2-0.2-0.4c0-0.2-0.1-0.3-0.1-0.5c0-0.2,0-0.3,0.1-0.5
				s0.1-0.3,0.2-0.4c0.1-0.1,0.2-0.2,0.3-0.3s0.3-0.1,0.5-0.1c0.2,0,0.3,0,0.4,0.1c0.1,0.1,0.2,0.1,0.3,0.2c0.1,0.1,0.2,0.2,0.2,0.3
				C143.9,36.8,144,36.9,144,37.1z M143.5,37c0-0.1,0-0.2,0-0.3c0-0.1-0.1-0.2-0.1-0.2c-0.1-0.1-0.1-0.1-0.2-0.1s-0.2-0.1-0.3-0.1
				c-0.1,0-0.2,0-0.2,0.1c-0.1,0-0.1,0.1-0.2,0.1c-0.1,0.1-0.1,0.1-0.1,0.2c0,0.1-0.1,0.2-0.1,0.3C142.3,37,143.5,37,143.5,37z"/>
			<path class="st13" d="M146.4,38.3c-0.1,0-0.2,0.1-0.3,0.1c-0.1,0-0.2,0-0.3,0c-0.4,0-0.7-0.1-0.9-0.3c-0.2-0.2-0.3-0.5-0.3-0.9
				c0-0.2,0-0.4,0.1-0.5s0.1-0.3,0.2-0.4c0.1-0.1,0.2-0.2,0.4-0.3c0.1-0.1,0.3-0.1,0.5-0.1c0.1,0,0.2,0,0.3,0s0.2,0,0.3,0.1v0.4
				c-0.1-0.1-0.2-0.1-0.3-0.1s-0.2,0-0.3,0c-0.1,0-0.2,0-0.3,0.1c-0.1,0-0.2,0.1-0.2,0.2c-0.1,0.1-0.1,0.2-0.2,0.3
				c0,0.1-0.1,0.2-0.1,0.4c0,0.3,0.1,0.5,0.2,0.6c0.1,0.1,0.3,0.2,0.6,0.2c0.1,0,0.2,0,0.3,0c0.1,0,0.2-0.1,0.3-0.1L146.4,38.3
				L146.4,38.3z"/>
			<path class="st13" d="M149.1,38.3c-0.1,0-0.2,0.1-0.3,0.1c-0.1,0-0.2,0-0.3,0c-0.4,0-0.7-0.1-0.9-0.3c-0.2-0.2-0.3-0.5-0.3-0.9
				c0-0.2,0-0.4,0.1-0.5s0.1-0.3,0.2-0.4c0.1-0.1,0.2-0.2,0.4-0.3c0.1-0.1,0.3-0.1,0.5-0.1c0.1,0,0.2,0,0.3,0s0.2,0,0.3,0.1v0.4
				c-0.1-0.1-0.2-0.1-0.3-0.1s-0.2,0-0.3,0c-0.1,0-0.2,0-0.3,0.1c-0.1,0-0.2,0.1-0.2,0.2c-0.1,0.1-0.1,0.2-0.2,0.3
				c0,0.1-0.1,0.2-0.1,0.4c0,0.3,0.1,0.5,0.2,0.6c0.1,0.1,0.3,0.2,0.6,0.2c0.1,0,0.2,0,0.3,0c0.1,0,0.2-0.1,0.3-0.1L149.1,38.3
				L149.1,38.3z"/>
		</g>
		<polygon class="st3" points="64.6,107 33.5,107 33.5,95.8 64.6,95.8 69.8,101 		"/>
		<g>
			<rect x="35.2" y="99" class="st12" width="32.9" height="4.7"/>
			<path class="st13" d="M37.8,102l0,1h-0.4v-0.7h-1.7v0.7h-0.4l0-1h0c0.1,0,0.1,0,0.2,0c0,0,0.1-0.1,0.1-0.2s0.1-0.2,0.1-0.3
				c0-0.1,0.1-0.3,0.1-0.5c0-0.2,0.1-0.4,0.1-0.7c0-0.3,0-0.6,0.1-1h1.5v2.7H37.8z M37,99.6h-0.7c0,0.3,0,0.6-0.1,0.9
				s-0.1,0.5-0.1,0.7c0,0.2-0.1,0.4-0.1,0.5c-0.1,0.1-0.1,0.2-0.2,0.3H37L37,99.6L37,99.6z"/>
			<path class="st13" d="M40.2,101c0,0.1,0,0.1,0,0.1c0,0,0,0.1,0,0.1h-1.7c0,0.2,0.1,0.4,0.2,0.6c0.1,0.1,0.3,0.2,0.6,0.2
				c0.1,0,0.1,0,0.2,0c0.1,0,0.1,0,0.2,0c0.1,0,0.1,0,0.2,0s0.1,0,0.2,0v0.3c-0.1,0-0.2,0.1-0.4,0.1c-0.1,0-0.3,0-0.4,0
				c-0.2,0-0.4,0-0.5-0.1c-0.1-0.1-0.3-0.1-0.4-0.2c-0.1-0.1-0.2-0.2-0.2-0.4c0-0.2-0.1-0.3-0.1-0.5c0-0.2,0-0.3,0.1-0.5
				s0.1-0.3,0.2-0.4c0.1-0.1,0.2-0.2,0.3-0.3c0.1-0.1,0.3-0.1,0.5-0.1c0.2,0,0.3,0,0.4,0.1c0.1,0.1,0.2,0.1,0.3,0.2
				c0.1,0.1,0.2,0.2,0.2,0.3C40.2,100.7,40.2,100.9,40.2,101z M39.8,101c0-0.1,0-0.2,0-0.3c0-0.1-0.1-0.2-0.1-0.2
				c-0.1-0.1-0.1-0.1-0.2-0.1s-0.2-0.1-0.3-0.1c-0.1,0-0.2,0-0.2,0.1c-0.1,0-0.1,0.1-0.2,0.1c-0.1,0.1-0.1,0.1-0.1,0.2
				c0,0.1-0.1,0.2-0.1,0.3H39.8z"/>
			<path class="st13" d="M41,101.7c0.1-0.1,0.1-0.2,0.2-0.3c0.1-0.1,0.1-0.1,0.2-0.1c-0.1,0-0.2-0.1-0.2-0.1c-0.1,0-0.1-0.1-0.2-0.1
				s-0.1-0.1-0.1-0.2c0-0.1,0-0.1,0-0.2c0-0.1,0-0.2,0.1-0.3c0-0.1,0.1-0.2,0.2-0.2c0.1-0.1,0.2-0.1,0.3-0.2s0.3-0.1,0.5-0.1
				c0.1,0,0.3,0,0.4,0c0.1,0,0.3,0,0.4,0v2.4h-0.4v-0.9H42c-0.1,0-0.1,0-0.2,0c-0.1,0-0.1,0-0.2,0.1c0,0-0.1,0.1-0.1,0.1
				c0,0-0.1,0.1-0.1,0.2l-0.3,0.6h-0.5L41,101.7z M41.3,100.7c0,0.1,0,0.2,0.1,0.3c0.1,0.1,0.2,0.1,0.4,0.1h0.4v-0.8
				c-0.1,0-0.1,0-0.2,0s-0.1,0-0.2,0c-0.1,0-0.2,0-0.3,0c-0.1,0-0.1,0-0.2,0.1c0,0-0.1,0.1-0.1,0.1S41.3,100.6,41.3,100.7z"/>
			<path class="st13" d="M45.6,100.3h-0.9v2h-0.4v-2h-0.9V100h2.2C45.6,100,45.6,100.3,45.6,100.3z"/>
			<path class="st13" d="M48.1,101c0,0.1,0,0.1,0,0.1c0,0,0,0.1,0,0.1h-1.7c0,0.2,0.1,0.4,0.2,0.6c0.1,0.1,0.3,0.2,0.6,0.2
				c0.1,0,0.1,0,0.2,0c0.1,0,0.1,0,0.2,0c0.1,0,0.1,0,0.2,0s0.1,0,0.2,0v0.3c-0.1,0-0.2,0.1-0.4,0.1c-0.1,0-0.3,0-0.4,0
				c-0.2,0-0.4,0-0.5-0.1c-0.1-0.1-0.3-0.1-0.4-0.2c-0.1-0.1-0.2-0.2-0.2-0.4c0-0.2-0.1-0.3-0.1-0.5c0-0.2,0-0.3,0.1-0.5
				s0.1-0.3,0.2-0.4c0.1-0.1,0.2-0.2,0.3-0.3c0.1-0.1,0.3-0.1,0.5-0.1c0.2,0,0.3,0,0.4,0.1c0.1,0.1,0.2,0.1,0.3,0.2
				c0.1,0.1,0.2,0.2,0.2,0.3C48.1,100.7,48.1,100.9,48.1,101z M47.7,101c0-0.1,0-0.2,0-0.3c0-0.1-0.1-0.2-0.1-0.2
				c-0.1-0.1-0.1-0.1-0.2-0.1s-0.2-0.1-0.3-0.1c-0.1,0-0.2,0-0.2,0.1c-0.1,0-0.1,0.1-0.2,0.1c-0.1,0.1-0.1,0.1-0.1,0.2
				c0,0.1-0.1,0.2-0.1,0.3H47.7z"/>
			<path class="st13" d="M50.7,102.3h-0.4v-2h-0.7c0,0.3,0,0.6-0.1,0.8c0,0.2-0.1,0.4-0.1,0.6c-0.1,0.2-0.1,0.3-0.2,0.4
				c-0.1,0.1-0.1,0.2-0.2,0.2c-0.1,0-0.2,0.1-0.2,0.1c-0.1,0-0.2,0-0.3,0l0-0.3c0.1,0,0.1,0,0.2,0s0.1,0,0.2-0.1
				c0,0,0.1-0.1,0.1-0.2c0-0.1,0.1-0.2,0.1-0.4s0.1-0.3,0.1-0.6s0-0.5,0.1-0.8h1.5C50.7,100,50.7,102.3,50.7,102.3z"/>
			<path class="st13" d="M51.9,100.9c0,0,0.1,0,0.1,0s0.1,0,0.1,0c0,0,0.1,0,0.1,0c0,0,0.1,0,0.1,0c0.4,0,0.6,0.1,0.8,0.2
				s0.3,0.3,0.3,0.6c0,0.3-0.1,0.5-0.3,0.6c-0.2,0.1-0.5,0.2-0.8,0.2c-0.2,0-0.3,0-0.5,0c-0.1,0-0.3,0-0.4,0V100h0.4
				C51.9,100,51.9,100.9,51.9,100.9z M53,101.6c0-0.1,0-0.1,0-0.2c0-0.1-0.1-0.1-0.1-0.1s-0.1-0.1-0.2-0.1c-0.1,0-0.2,0-0.3,0
				c-0.1,0-0.2,0-0.2,0c-0.1,0-0.2,0-0.3,0v0.8c0.1,0,0.2,0,0.2,0s0.2,0,0.2,0c0.1,0,0.2,0,0.3,0s0.2,0,0.2-0.1
				c0.1,0,0.1-0.1,0.1-0.1C53,101.7,53,101.7,53,101.6z"/>
			<path class="st13" d="M56,102.3h-0.4v-1.1h-1.1v1.1h-0.4V100h0.4v1h1.1v-1H56V102.3z"/>
			<path class="st13" d="M58.8,101.1c0,0.2,0,0.4-0.1,0.5c-0.1,0.2-0.1,0.3-0.2,0.4c-0.1,0.1-0.2,0.2-0.4,0.3
				c-0.1,0.1-0.3,0.1-0.5,0.1c-0.2,0-0.3,0-0.5-0.1c-0.1-0.1-0.2-0.1-0.3-0.2s-0.2-0.2-0.2-0.4c0-0.2-0.1-0.3-0.1-0.5
				c0-0.2,0-0.4,0.1-0.5s0.1-0.3,0.2-0.4s0.2-0.2,0.4-0.3c0.1-0.1,0.3-0.1,0.5-0.1c0.2,0,0.3,0,0.5,0.1c0.1,0.1,0.2,0.1,0.3,0.2
				c0.1,0.1,0.2,0.2,0.2,0.4C58.7,100.8,58.8,100.9,58.8,101.1z M58.3,101.2c0-0.1,0-0.3,0-0.4s-0.1-0.2-0.1-0.3
				c-0.1-0.1-0.1-0.1-0.2-0.2c-0.1,0-0.2-0.1-0.3-0.1c-0.1,0-0.2,0-0.3,0.1c-0.1,0-0.2,0.1-0.2,0.2c-0.1,0.1-0.1,0.2-0.1,0.3
				c0,0.1,0,0.2,0,0.3c0,0.1,0,0.3,0,0.4s0.1,0.2,0.1,0.3c0.1,0.1,0.1,0.1,0.2,0.2c0.1,0,0.2,0.1,0.3,0.1c0.1,0,0.2,0,0.3-0.1
				c0.1,0,0.2-0.1,0.2-0.2s0.1-0.2,0.1-0.3C58.3,101.4,58.3,101.3,58.3,101.2z"/>
			<path class="st13" d="M61.2,102.3c-0.1,0-0.2,0.1-0.3,0.1c-0.1,0-0.2,0-0.3,0c-0.4,0-0.7-0.1-0.9-0.3c-0.2-0.2-0.3-0.5-0.3-0.9
				c0-0.2,0-0.4,0.1-0.5c0.1-0.2,0.1-0.3,0.2-0.4c0.1-0.1,0.2-0.2,0.4-0.3c0.1-0.1,0.3-0.1,0.5-0.1c0.1,0,0.2,0,0.3,0s0.2,0,0.3,0.1
				v0.4c-0.1-0.1-0.2-0.1-0.3-0.1s-0.2,0-0.3,0c-0.1,0-0.2,0-0.3,0.1c-0.1,0-0.2,0.1-0.2,0.2c-0.1,0.1-0.1,0.2-0.2,0.3
				c0,0.1-0.1,0.2-0.1,0.4c0,0.3,0.1,0.5,0.2,0.6c0.1,0.1,0.3,0.2,0.6,0.2c0.1,0,0.2,0,0.3,0c0.1,0,0.2-0.1,0.3-0.1L61.2,102.3
				L61.2,102.3z"/>
			<path class="st13" d="M64,100.3h-0.9v2h-0.4v-2h-0.9V100H64L64,100.3L64,100.3z"/>
			<path class="st13" d="M65.1,100.9c0,0,0.1,0,0.1,0s0.1,0,0.1,0c0,0,0.1,0,0.1,0c0,0,0.1,0,0.1,0c0.4,0,0.6,0.1,0.8,0.2
				c0.2,0.1,0.3,0.3,0.3,0.6c0,0.3-0.1,0.5-0.3,0.6c-0.2,0.1-0.5,0.2-0.8,0.2c-0.2,0-0.3,0-0.5,0c-0.1,0-0.3,0-0.4,0V100h0.4V100.9z
				 M66.2,101.6c0-0.1,0-0.1,0-0.2c0-0.1-0.1-0.1-0.1-0.1c-0.1,0-0.1-0.1-0.2-0.1c-0.1,0-0.2,0-0.3,0c-0.1,0-0.2,0-0.2,0
				c-0.1,0-0.2,0-0.3,0v0.8c0.1,0,0.2,0,0.2,0s0.2,0,0.2,0c0.1,0,0.2,0,0.3,0s0.2,0,0.2-0.1c0.1,0,0.1-0.1,0.1-0.1
				C66.2,101.7,66.2,101.7,66.2,101.6z"/>
		</g>
		<g>
			<rect x="109.8" y="99" class="st12" width="32.9" height="4.7"/>
			<path class="st13" d="M112.4,102l0,1H112v-0.7h-1.7v0.7h-0.4l0-1h0c0.1,0,0.1,0,0.2,0c0.1,0,0.1-0.1,0.1-0.2s0.1-0.2,0.1-0.3
				c0-0.1,0.1-0.3,0.1-0.5c0-0.2,0.1-0.4,0.1-0.7c0-0.3,0-0.6,0.1-1h1.5v2.7H112.4z M111.6,99.6h-0.7c0,0.3,0,0.6-0.1,0.9
				s-0.1,0.5-0.1,0.7c0,0.2-0.1,0.4-0.1,0.5c-0.1,0.1-0.1,0.2-0.2,0.3h1.1L111.6,99.6L111.6,99.6z"/>
			<path class="st13" d="M114.8,101c0,0.1,0,0.1,0,0.1c0,0,0,0.1,0,0.1h-1.7c0,0.2,0.1,0.4,0.2,0.6c0.1,0.1,0.3,0.2,0.6,0.2
				c0.1,0,0.1,0,0.2,0c0.1,0,0.1,0,0.2,0c0.1,0,0.1,0,0.2,0s0.1,0,0.2,0v0.3c-0.1,0-0.2,0.1-0.4,0.1c-0.1,0-0.3,0-0.4,0
				c-0.2,0-0.4,0-0.5-0.1c-0.1-0.1-0.3-0.1-0.4-0.2c-0.1-0.1-0.2-0.2-0.2-0.4c0-0.2-0.1-0.3-0.1-0.5c0-0.2,0-0.3,0.1-0.5
				s0.1-0.3,0.2-0.4c0.1-0.1,0.2-0.2,0.3-0.3c0.1-0.1,0.3-0.1,0.5-0.1c0.2,0,0.3,0,0.4,0.1c0.1,0.1,0.2,0.1,0.3,0.2
				c0.1,0.1,0.2,0.2,0.2,0.3C114.8,100.7,114.8,100.9,114.8,101z M114.4,101c0-0.1,0-0.2,0-0.3c0-0.1-0.1-0.2-0.1-0.2
				c-0.1-0.1-0.1-0.1-0.2-0.1s-0.2-0.1-0.3-0.1c-0.1,0-0.2,0-0.2,0.1c-0.1,0-0.1,0.1-0.2,0.1c-0.1,0.1-0.1,0.1-0.1,0.2
				c0,0.1-0.1,0.2-0.1,0.3H114.4z"/>
			<path class="st13" d="M115.6,101.7c0.1-0.1,0.1-0.2,0.2-0.3c0.1-0.1,0.1-0.1,0.2-0.1c-0.1,0-0.2-0.1-0.2-0.1
				c-0.1,0-0.1-0.1-0.2-0.1s-0.1-0.1-0.1-0.2c0-0.1,0-0.1,0-0.2c0-0.1,0-0.2,0.1-0.3c0-0.1,0.1-0.2,0.2-0.2c0.1-0.1,0.2-0.1,0.3-0.2
				s0.3-0.1,0.5-0.1c0.1,0,0.3,0,0.4,0c0.1,0,0.3,0,0.4,0v2.4h-0.4v-0.9h-0.4c-0.1,0-0.1,0-0.2,0c-0.1,0-0.1,0-0.2,0.1
				s-0.1,0.1-0.1,0.1c0,0-0.1,0.1-0.1,0.2l-0.3,0.6h-0.5L115.6,101.7z M115.9,100.7c0,0.1,0,0.2,0.1,0.3c0.1,0.1,0.2,0.1,0.4,0.1
				h0.4v-0.8c-0.1,0-0.1,0-0.2,0s-0.1,0-0.2,0c-0.1,0-0.2,0-0.3,0c-0.1,0-0.1,0-0.2,0.1c0,0-0.1,0.1-0.1,0.1
				S115.9,100.6,115.9,100.7z"/>
			<path class="st13" d="M120.1,100.3h-0.9v2h-0.4v-2h-0.9V100h2.2L120.1,100.3L120.1,100.3z"/>
			<path class="st13" d="M122.7,101c0,0.1,0,0.1,0,0.1c0,0,0,0.1,0,0.1h-1.7c0,0.2,0.1,0.4,0.2,0.6c0.1,0.1,0.3,0.2,0.6,0.2
				c0.1,0,0.1,0,0.2,0c0.1,0,0.1,0,0.2,0c0.1,0,0.1,0,0.2,0s0.1,0,0.2,0v0.3c-0.1,0-0.2,0.1-0.4,0.1c-0.1,0-0.3,0-0.4,0
				c-0.2,0-0.4,0-0.5-0.1c-0.1-0.1-0.3-0.1-0.4-0.2c-0.1-0.1-0.2-0.2-0.2-0.4c0-0.2-0.1-0.3-0.1-0.5c0-0.2,0-0.3,0.1-0.5
				s0.1-0.3,0.2-0.4c0.1-0.1,0.2-0.2,0.3-0.3c0.1-0.1,0.3-0.1,0.5-0.1c0.2,0,0.3,0,0.4,0.1c0.1,0.1,0.2,0.1,0.3,0.2
				c0.1,0.1,0.2,0.2,0.2,0.3C122.7,100.7,122.7,100.9,122.7,101z M122.3,101c0-0.1,0-0.2,0-0.3c0-0.1-0.1-0.2-0.1-0.2
				c-0.1-0.1-0.1-0.1-0.2-0.1s-0.2-0.1-0.3-0.1c-0.1,0-0.2,0-0.2,0.1c-0.1,0-0.1,0.1-0.2,0.1c-0.1,0.1-0.1,0.1-0.1,0.2
				c0,0.1-0.1,0.2-0.1,0.3H122.3z"/>
			<path class="st13" d="M125.2,102.3h-0.4v-2h-0.7c0,0.3,0,0.6-0.1,0.8c0,0.2-0.1,0.4-0.1,0.6c-0.1,0.2-0.1,0.3-0.2,0.4
				c-0.1,0.1-0.1,0.2-0.2,0.2c-0.1,0-0.2,0.1-0.2,0.1c-0.1,0-0.2,0-0.3,0l0-0.3c0.1,0,0.1,0,0.2,0s0.1,0,0.2-0.1
				c0,0,0.1-0.1,0.1-0.2c0-0.1,0.1-0.2,0.1-0.4s0.1-0.3,0.1-0.6s0-0.5,0.1-0.8h1.5V102.3z"/>
			<path class="st13" d="M126.4,100.9c0,0,0.1,0,0.1,0s0.1,0,0.1,0c0,0,0.1,0,0.1,0c0,0,0.1,0,0.1,0c0.4,0,0.6,0.1,0.8,0.2
				c0.2,0.1,0.3,0.3,0.3,0.6c0,0.3-0.1,0.5-0.3,0.6c-0.2,0.1-0.5,0.2-0.8,0.2c-0.2,0-0.3,0-0.5,0c-0.1,0-0.3,0-0.4,0V100h0.4
				C126.4,100,126.4,100.9,126.4,100.9z M127.6,101.6c0-0.1,0-0.1,0-0.2c0-0.1-0.1-0.1-0.1-0.1c-0.1,0-0.1-0.1-0.2-0.1
				c-0.1,0-0.2,0-0.3,0c-0.1,0-0.2,0-0.2,0c-0.1,0-0.2,0-0.3,0v0.8c0.1,0,0.2,0,0.2,0s0.2,0,0.2,0c0.1,0,0.2,0,0.3,0s0.2,0,0.2-0.1
				c0.1,0,0.1-0.1,0.1-0.1C127.6,101.7,127.6,101.7,127.6,101.6z"/>
			<path class="st13" d="M130.5,102.3h-0.4v-1.1h-1.1v1.1h-0.4V100h0.4v1h1.1v-1h0.4V102.3z"/>
			<path class="st13" d="M133.3,101.1c0,0.2,0,0.4-0.1,0.5c-0.1,0.2-0.1,0.3-0.2,0.4c-0.1,0.1-0.2,0.2-0.4,0.3
				c-0.1,0.1-0.3,0.1-0.5,0.1c-0.2,0-0.3,0-0.5-0.1c-0.1-0.1-0.2-0.1-0.3-0.2s-0.2-0.2-0.2-0.4c0-0.2-0.1-0.3-0.1-0.5
				c0-0.2,0-0.4,0.1-0.5s0.1-0.3,0.2-0.4s0.2-0.2,0.4-0.3c0.1-0.1,0.3-0.1,0.5-0.1c0.2,0,0.3,0,0.5,0.1c0.1,0.1,0.2,0.1,0.3,0.2
				c0.1,0.1,0.2,0.2,0.2,0.4C133.3,100.8,133.3,100.9,133.3,101.1z M132.9,101.2c0-0.1,0-0.3,0-0.4s-0.1-0.2-0.1-0.3
				c-0.1-0.1-0.1-0.1-0.2-0.2c-0.1,0-0.2-0.1-0.3-0.1c-0.1,0-0.2,0-0.3,0.1c-0.1,0-0.2,0.1-0.2,0.2c-0.1,0.1-0.1,0.2-0.1,0.3
				c0,0.1,0,0.2,0,0.3c0,0.1,0,0.3,0,0.4s0.1,0.2,0.1,0.3c0.1,0.1,0.1,0.1,0.2,0.2c0.1,0,0.2,0.1,0.3,0.1c0.1,0,0.2,0,0.3-0.1
				c0.1,0,0.2-0.1,0.2-0.2s0.1-0.2,0.1-0.3C132.9,101.4,132.9,101.3,132.9,101.2z"/>
			<path class="st13" d="M135.8,102.3c-0.1,0-0.2,0.1-0.3,0.1c-0.1,0-0.2,0-0.3,0c-0.4,0-0.7-0.1-0.9-0.3c-0.2-0.2-0.3-0.5-0.3-0.9
				c0-0.2,0-0.4,0.1-0.5s0.1-0.3,0.2-0.4c0.1-0.1,0.2-0.2,0.4-0.3c0.1-0.1,0.3-0.1,0.5-0.1c0.1,0,0.2,0,0.3,0s0.2,0,0.3,0.1v0.4
				c-0.1-0.1-0.2-0.1-0.3-0.1s-0.2,0-0.3,0c-0.1,0-0.2,0-0.3,0.1c-0.1,0-0.2,0.1-0.2,0.2c-0.1,0.1-0.1,0.2-0.2,0.3
				c0,0.1-0.1,0.2-0.1,0.4c0,0.3,0.1,0.5,0.2,0.6c0.1,0.1,0.3,0.2,0.6,0.2c0.1,0,0.2,0,0.3,0c0.1,0,0.2-0.1,0.3-0.1L135.8,102.3
				L135.8,102.3z"/>
			<path class="st13" d="M138.6,100.3h-0.9v2h-0.4v-2h-0.9V100h2.2L138.6,100.3L138.6,100.3z"/>
			<path class="st13" d="M139.6,100.9c0,0,0.1,0,0.1,0s0.1,0,0.1,0c0,0,0.1,0,0.1,0c0,0,0.1,0,0.1,0c0.4,0,0.6,0.1,0.8,0.2
				s0.3,0.3,0.3,0.6c0,0.3-0.1,0.5-0.3,0.6c-0.2,0.1-0.5,0.2-0.8,0.2c-0.2,0-0.3,0-0.5,0c-0.1,0-0.3,0-0.4,0V100h0.4L139.6,100.9
				L139.6,100.9z M140.8,101.6c0-0.1,0-0.1,0-0.2c0-0.1-0.1-0.1-0.1-0.1s-0.1-0.1-0.2-0.1c-0.1,0-0.2,0-0.3,0c-0.1,0-0.2,0-0.2,0
				c-0.1,0-0.2,0-0.3,0v0.8c0.1,0,0.2,0,0.2,0s0.2,0,0.2,0c0.1,0,0.2,0,0.3,0s0.2,0,0.2-0.1c0.1,0,0.1-0.1,0.1-0.1
				C140.8,101.7,140.8,101.7,140.8,101.6z"/>
		</g>
		<polygon class="st3" points="212,106.5 177.5,106.5 182.7,100.8 177.5,95.3 212,95.3 217.1,100.8 		"/>
		<g>
			<rect x="183.1" y="99" class="st12" width="32.9" height="4.7"/>
			<path class="st13" d="M185.6,102l0,1h-0.4v-0.7h-1.7v0.7h-0.4l0-1h0c0.1,0,0.1,0,0.2,0c0.1,0,0.1-0.1,0.1-0.2s0.1-0.2,0.1-0.3
				c0-0.1,0.1-0.3,0.1-0.5c0-0.2,0.1-0.4,0.1-0.7c0-0.3,0-0.6,0.1-1h1.5v2.7H185.6z M184.9,99.6h-0.7c0,0.3,0,0.6-0.1,0.9
				s-0.1,0.5-0.1,0.7c0,0.2-0.1,0.4-0.1,0.5c-0.1,0.1-0.1,0.2-0.2,0.3h1.1L184.9,99.6L184.9,99.6z"/>
			<path class="st13" d="M188.1,101c0,0.1,0,0.1,0,0.1c0,0,0,0.1,0,0.1h-1.7c0,0.2,0.1,0.4,0.2,0.6c0.1,0.1,0.3,0.2,0.6,0.2
				c0.1,0,0.1,0,0.2,0c0.1,0,0.1,0,0.2,0c0.1,0,0.1,0,0.2,0s0.1,0,0.2,0v0.3c-0.1,0-0.2,0.1-0.4,0.1c-0.1,0-0.3,0-0.4,0
				c-0.2,0-0.4,0-0.5-0.1c-0.1-0.1-0.3-0.1-0.4-0.2c-0.1-0.1-0.2-0.2-0.2-0.4c0-0.2-0.1-0.3-0.1-0.5c0-0.2,0-0.3,0.1-0.5
				s0.1-0.3,0.2-0.4c0.1-0.1,0.2-0.2,0.3-0.3c0.1-0.1,0.3-0.1,0.5-0.1c0.2,0,0.3,0,0.4,0.1c0.1,0.1,0.2,0.1,0.3,0.2
				c0.1,0.1,0.2,0.2,0.2,0.3C188,100.7,188.1,100.9,188.1,101z M187.6,101c0-0.1,0-0.2,0-0.3c0-0.1-0.1-0.2-0.1-0.2
				c-0.1-0.1-0.1-0.1-0.2-0.1s-0.2-0.1-0.3-0.1c-0.1,0-0.2,0-0.2,0.1c-0.1,0-0.1,0.1-0.2,0.1c-0.1,0.1-0.1,0.1-0.1,0.2
				c0,0.1-0.1,0.2-0.1,0.3H187.6z"/>
			<path class="st13" d="M188.9,101.7c0.1-0.1,0.1-0.2,0.2-0.3c0.1-0.1,0.1-0.1,0.2-0.1c-0.1,0-0.2-0.1-0.2-0.1
				c-0.1,0-0.1-0.1-0.2-0.1s-0.1-0.1-0.1-0.2c0-0.1,0-0.1,0-0.2c0-0.1,0-0.2,0.1-0.3c0-0.1,0.1-0.2,0.2-0.2c0.1-0.1,0.2-0.1,0.3-0.2
				s0.3-0.1,0.5-0.1c0.1,0,0.3,0,0.4,0c0.1,0,0.3,0,0.4,0v2.4h-0.4v-0.9h-0.4c-0.1,0-0.1,0-0.2,0c-0.1,0-0.1,0-0.2,0.1
				c0,0-0.1,0.1-0.1,0.1c0,0-0.1,0.1-0.1,0.2l-0.3,0.6h-0.5L188.9,101.7z M189.2,100.7c0,0.1,0,0.2,0.1,0.3c0.1,0.1,0.2,0.1,0.4,0.1
				h0.4v-0.8c-0.1,0-0.1,0-0.2,0s-0.1,0-0.2,0c-0.1,0-0.2,0-0.3,0c-0.1,0-0.1,0-0.2,0.1c0,0-0.1,0.1-0.1,0.1
				S189.2,100.6,189.2,100.7z"/>
			<path class="st13" d="M193.4,100.3h-0.9v2h-0.4v-2h-0.9V100h2.2L193.4,100.3L193.4,100.3z"/>
			<path class="st13" d="M196,101c0,0.1,0,0.1,0,0.1c0,0,0,0.1,0,0.1h-1.7c0,0.2,0.1,0.4,0.2,0.6c0.1,0.1,0.3,0.2,0.6,0.2
				c0.1,0,0.1,0,0.2,0c0.1,0,0.1,0,0.2,0c0.1,0,0.1,0,0.2,0s0.1,0,0.2,0v0.3c-0.1,0-0.2,0.1-0.4,0.1c-0.1,0-0.3,0-0.4,0
				c-0.2,0-0.4,0-0.5-0.1c-0.1-0.1-0.3-0.1-0.4-0.2c-0.1-0.1-0.2-0.2-0.2-0.4c0-0.2-0.1-0.3-0.1-0.5c0-0.2,0-0.3,0.1-0.5
				s0.1-0.3,0.2-0.4c0.1-0.1,0.2-0.2,0.3-0.3c0.1-0.1,0.3-0.1,0.5-0.1c0.2,0,0.3,0,0.4,0.1c0.1,0.1,0.2,0.1,0.3,0.2
				c0.1,0.1,0.2,0.2,0.2,0.3C196,100.7,196,100.9,196,101z M195.6,101c0-0.1,0-0.2,0-0.3c0-0.1-0.1-0.2-0.1-0.2
				c-0.1-0.1-0.1-0.1-0.2-0.1s-0.2-0.1-0.3-0.1c-0.1,0-0.2,0-0.2,0.1c-0.1,0-0.1,0.1-0.2,0.1c-0.1,0.1-0.1,0.1-0.1,0.2
				c0,0.1-0.1,0.2-0.1,0.3H195.6z"/>
			<path class="st13" d="M198.5,102.3h-0.4v-2h-0.7c0,0.3,0,0.6-0.1,0.8c0,0.2-0.1,0.4-0.1,0.6c-0.1,0.2-0.1,0.3-0.2,0.4
				c-0.1,0.1-0.1,0.2-0.2,0.2c-0.1,0-0.2,0.1-0.2,0.1c-0.1,0-0.2,0-0.3,0l0-0.3c0.1,0,0.1,0,0.2,0s0.1,0,0.2-0.1
				c0,0,0.1-0.1,0.1-0.2c0-0.1,0.1-0.2,0.1-0.4s0.1-0.3,0.1-0.6s0-0.5,0.1-0.8h1.5L198.5,102.3L198.5,102.3z"/>
			<path class="st13" d="M199.7,100.9c0,0,0.1,0,0.1,0s0.1,0,0.1,0c0,0,0.1,0,0.1,0c0,0,0.1,0,0.1,0c0.4,0,0.6,0.1,0.8,0.2
				s0.3,0.3,0.3,0.6c0,0.3-0.1,0.5-0.3,0.6c-0.2,0.1-0.5,0.2-0.8,0.2c-0.2,0-0.3,0-0.5,0c-0.1,0-0.3,0-0.4,0V100h0.4L199.7,100.9
				L199.7,100.9z M200.9,101.6c0-0.1,0-0.1,0-0.2c0-0.1-0.1-0.1-0.1-0.1s-0.1-0.1-0.2-0.1c-0.1,0-0.2,0-0.3,0c-0.1,0-0.2,0-0.2,0
				c-0.1,0-0.2,0-0.3,0v0.8c0.1,0,0.2,0,0.2,0s0.2,0,0.2,0c0.1,0,0.2,0,0.3,0s0.2,0,0.2-0.1c0.1,0,0.1-0.1,0.1-0.1
				C200.8,101.7,200.9,101.7,200.9,101.6z"/>
			<path class="st13" d="M203.8,102.3h-0.4v-1.1h-1.1v1.1h-0.4V100h0.4v1h1.1v-1h0.4V102.3z"/>
			<path class="st13" d="M206.6,101.1c0,0.2,0,0.4-0.1,0.5c-0.1,0.2-0.1,0.3-0.2,0.4c-0.1,0.1-0.2,0.2-0.4,0.3
				c-0.1,0.1-0.3,0.1-0.5,0.1c-0.2,0-0.3,0-0.5-0.1c-0.1-0.1-0.2-0.1-0.3-0.2s-0.2-0.2-0.2-0.4c0-0.2-0.1-0.3-0.1-0.5
				c0-0.2,0-0.4,0.1-0.5s0.1-0.3,0.2-0.4s0.2-0.2,0.4-0.3c0.1-0.1,0.3-0.1,0.5-0.1c0.2,0,0.3,0,0.5,0.1c0.1,0.1,0.2,0.1,0.3,0.2
				c0.1,0.1,0.2,0.2,0.2,0.4C206.6,100.8,206.6,100.9,206.6,101.1z M206.2,101.2c0-0.1,0-0.3,0-0.4s-0.1-0.2-0.1-0.3
				c-0.1-0.1-0.1-0.1-0.2-0.2c-0.1,0-0.2-0.1-0.3-0.1c-0.1,0-0.2,0-0.3,0.1c-0.1,0-0.2,0.1-0.2,0.2c-0.1,0.1-0.1,0.2-0.1,0.3
				c0,0.1,0,0.2,0,0.3c0,0.1,0,0.3,0,0.4s0.1,0.2,0.1,0.3c0.1,0.1,0.1,0.1,0.2,0.2c0.1,0,0.2,0.1,0.3,0.1c0.1,0,0.2,0,0.3-0.1
				c0.1,0,0.2-0.1,0.2-0.2s0.1-0.2,0.1-0.3C206.2,101.4,206.2,101.3,206.2,101.2z"/>
			<path class="st13" d="M209,102.3c-0.1,0-0.2,0.1-0.3,0.1c-0.1,0-0.2,0-0.3,0c-0.4,0-0.7-0.1-0.9-0.3c-0.2-0.2-0.3-0.5-0.3-0.9
				c0-0.2,0-0.4,0.1-0.5s0.1-0.3,0.2-0.4c0.1-0.1,0.2-0.2,0.4-0.3c0.1-0.1,0.3-0.1,0.5-0.1c0.1,0,0.2,0,0.3,0s0.2,0,0.3,0.1v0.4
				c-0.1-0.1-0.2-0.1-0.3-0.1s-0.2,0-0.3,0c-0.1,0-0.2,0-0.3,0.1c-0.1,0-0.2,0.1-0.2,0.2c-0.1,0.1-0.1,0.2-0.2,0.3
				c0,0.1-0.1,0.2-0.1,0.4c0,0.3,0.1,0.5,0.2,0.6c0.1,0.1,0.3,0.2,0.6,0.2c0.1,0,0.2,0,0.3,0c0.1,0,0.2-0.1,0.3-0.1L209,102.3
				L209,102.3z"/>
			<path class="st13" d="M211.9,100.3H211v2h-0.4v-2h-0.9V100h2.2L211.9,100.3L211.9,100.3z"/>
			<path class="st13" d="M212.9,100.9c0,0,0.1,0,0.1,0s0.1,0,0.1,0c0,0,0.1,0,0.1,0c0,0,0.1,0,0.1,0c0.4,0,0.6,0.1,0.8,0.2
				s0.3,0.3,0.3,0.6c0,0.3-0.1,0.5-0.3,0.6c-0.2,0.1-0.5,0.2-0.8,0.2c-0.2,0-0.3,0-0.5,0c-0.1,0-0.3,0-0.4,0V100h0.4L212.9,100.9
				L212.9,100.9z M214,101.6c0-0.1,0-0.1,0-0.2c0-0.1-0.1-0.1-0.1-0.1s-0.1-0.1-0.2-0.1c-0.1,0-0.2,0-0.3,0c-0.1,0-0.2,0-0.2,0
				c-0.1,0-0.2,0-0.3,0v0.8c0.1,0,0.2,0,0.2,0s0.2,0,0.2,0c0.1,0,0.2,0,0.3,0s0.2,0,0.2-0.1c0.1,0,0.1-0.1,0.1-0.1
				C214,101.7,214,101.7,214,101.6z"/>
		</g>
		<g>
			<rect x="159.1" y="25.5" class="st12" width="24.9" height="8"/>
			<path class="st13" d="M163.5,28.9H163l-1.1-1.5v1.5h-0.4v-3.1h0.4v1.4l1.1-1.4h0.5l-1.2,1.5L163.5,28.9z"/>
			<path class="st13" d="M166.1,27.7c0,0.2,0,0.4-0.1,0.5s-0.1,0.3-0.2,0.4c-0.1,0.1-0.2,0.2-0.4,0.3c-0.1,0.1-0.3,0.1-0.5,0.1
				c-0.2,0-0.3,0-0.5-0.1c-0.1-0.1-0.2-0.1-0.3-0.2s-0.2-0.2-0.2-0.4c0-0.2-0.1-0.3-0.1-0.5c0-0.2,0-0.4,0.1-0.5s0.1-0.3,0.2-0.4
				s0.2-0.2,0.4-0.3c0.1-0.1,0.3-0.1,0.5-0.1c0.2,0,0.3,0,0.5,0.1c0.1,0.1,0.2,0.1,0.3,0.2c0.1,0.1,0.2,0.2,0.2,0.4
				C166.1,27.3,166.1,27.5,166.1,27.7z M165.7,27.7c0-0.1,0-0.3,0-0.4s-0.1-0.2-0.1-0.3c-0.1-0.1-0.1-0.1-0.2-0.2
				c-0.1,0-0.2-0.1-0.3-0.1c-0.1,0-0.2,0-0.3,0.1c-0.1,0-0.2,0.1-0.2,0.2c-0.1,0.1-0.1,0.2-0.1,0.3c0,0.1,0,0.2,0,0.3
				c0,0.1,0,0.3,0,0.4s0.1,0.2,0.1,0.3c0.1,0.1,0.1,0.1,0.2,0.2c0.1,0,0.2,0.1,0.3,0.1c0.1,0,0.2,0,0.3-0.1c0.1,0,0.2-0.1,0.2-0.2
				s0.1-0.2,0.1-0.3C165.7,27.9,165.7,27.8,165.7,27.7z"/>
			<path class="st13" d="M168.6,28.9h-0.4v-1.1h-1.1v1.1h-0.4v-2.4h0.4v1h1.1v-1h0.4V28.9z"/>
			<path class="st13" d="M171.3,27.6c0,0.1,0,0.1,0,0.1c0,0,0,0.1,0,0.1h-1.7c0,0.2,0.1,0.4,0.2,0.6c0.1,0.1,0.3,0.2,0.6,0.2
				c0.1,0,0.1,0,0.2,0c0.1,0,0.1,0,0.2,0c0.1,0,0.1,0,0.2,0s0.1,0,0.2,0v0.3c-0.1,0-0.2,0.1-0.4,0.1c-0.1,0-0.3,0-0.4,0
				c-0.2,0-0.4,0-0.5-0.1c-0.1-0.1-0.3-0.1-0.4-0.2c-0.1-0.1-0.2-0.2-0.2-0.4c0-0.2-0.1-0.3-0.1-0.5c0-0.2,0-0.3,0.1-0.5
				s0.1-0.3,0.2-0.4c0.1-0.1,0.2-0.2,0.3-0.3s0.3-0.1,0.5-0.1c0.2,0,0.3,0,0.4,0.1c0.1,0.1,0.2,0.1,0.3,0.2c0.1,0.1,0.2,0.2,0.2,0.3
				C171.3,27.2,171.3,27.4,171.3,27.6z M170.9,27.5c0-0.1,0-0.2,0-0.3c0-0.1-0.1-0.2-0.1-0.2c-0.1-0.1-0.1-0.1-0.2-0.1
				s-0.2-0.1-0.3-0.1c-0.1,0-0.2,0-0.2,0.1c-0.1,0-0.1,0.1-0.2,0.1c-0.1,0.1-0.1,0.1-0.1,0.2c0,0.1-0.1,0.2-0.1,0.3H170.9z"/>
			<path class="st13" d="M173.4,28H173c-0.4,0-0.6-0.1-0.8-0.2c-0.2-0.1-0.3-0.3-0.3-0.6v-0.7h0.4v0.6c0,0.1,0,0.2,0,0.2
				c0,0.1,0.1,0.1,0.1,0.2c0.1,0,0.1,0.1,0.2,0.1c0.1,0,0.2,0,0.3,0h0.4v-1.1h0.4v2.4h-0.4L173.4,28L173.4,28z"/>
			<path class="st13" d="M176.5,28.9h-0.4v-1.1H175v1.1h-0.4v-2.4h0.4v1h1.1v-1h0.4V28.9z"/>
			<path class="st13" d="M177.5,27.4c0.1,0,0.1,0,0.2,0c0,0,0.1,0,0.2,0c0.1,0,0.3,0,0.4,0.1c0.1,0,0.2,0.1,0.3,0.1
				c0.1,0.1,0.1,0.1,0.2,0.2c0,0.1,0.1,0.2,0.1,0.3c0,0.1,0,0.2-0.1,0.3s-0.1,0.2-0.2,0.2s-0.2,0.1-0.3,0.1s-0.2,0-0.4,0
				c-0.1,0-0.2,0-0.3,0c-0.1,0-0.2,0-0.3,0v-2.4h0.4L177.5,27.4L177.5,27.4z M178.2,28.1c0-0.1,0-0.2-0.1-0.3s-0.2-0.1-0.4-0.1
				c0,0-0.1,0-0.1,0s-0.1,0-0.1,0v0.8c0.1,0,0.1,0,0.1,0c0,0,0.1,0,0.1,0c0.1,0,0.2,0,0.2,0s0.1-0.1,0.1-0.1c0,0,0.1-0.1,0.1-0.1
				C178.2,28.3,178.2,28.2,178.2,28.1z M178.9,28.9v-2.4h0.4v2.4H178.9z"/>
			<path class="st13" d="M180.3,26.5v1.7l1-1.7h0.4v2.4h-0.4v-1.7l-1,1.7h-0.4v-2.4H180.3z M181.5,25.6c0,0.1,0,0.2-0.1,0.2
				s-0.1,0.1-0.1,0.2c-0.1,0.1-0.1,0.1-0.2,0.1c-0.1,0-0.2,0-0.3,0c-0.1,0-0.2,0-0.3,0c-0.1,0-0.2-0.1-0.2-0.1
				c-0.1-0.1-0.1-0.1-0.1-0.2s0-0.2,0-0.2h0.4c0,0,0,0.1,0,0.1c0,0,0,0.1,0.1,0.1c0,0,0.1,0.1,0.1,0.1c0,0,0.1,0,0.2,0
				c0.1,0,0.1,0,0.2,0c0,0,0.1,0,0.1-0.1c0,0,0-0.1,0.1-0.1c0,0,0-0.1,0-0.1H181.5z"/>
			<path class="st13" d="M164.6,32.7h-0.4v-2h-1.1v2h-0.4v-2.4h1.9L164.6,32.7L164.6,32.7z"/>
			<path class="st13" d="M167.4,31.5c0,0.2,0,0.4-0.1,0.6c-0.1,0.2-0.1,0.3-0.2,0.4c-0.1,0.1-0.2,0.2-0.4,0.2s-0.3,0.1-0.5,0.1
				c-0.1,0-0.1,0-0.2,0s-0.1,0-0.2,0v1h-0.4v-3.3h0.4l0,0.4c0.1-0.2,0.2-0.3,0.4-0.3s0.3-0.1,0.4-0.1c0.1,0,0.3,0,0.4,0.1
				s0.2,0.1,0.3,0.2c0.1,0.1,0.1,0.2,0.2,0.4C167.4,31.1,167.4,31.3,167.4,31.5z M167,31.5c0-0.1,0-0.2,0-0.3c0-0.1,0-0.2-0.1-0.3
				s-0.1-0.1-0.1-0.2c-0.1,0-0.1-0.1-0.2-0.1c-0.1,0-0.1,0-0.2,0c-0.1,0-0.1,0-0.2,0.1c-0.1,0-0.1,0.1-0.2,0.2
				c-0.1,0.1-0.1,0.1-0.2,0.2v1.2c0.1,0,0.2,0.1,0.2,0.1s0.2,0,0.2,0c0.2,0,0.4-0.1,0.5-0.2S167,31.8,167,31.5z"/>
			<path class="st13" d="M170,31.5c0,0.2,0,0.4-0.1,0.5c-0.1,0.2-0.1,0.3-0.2,0.4c-0.1,0.1-0.2,0.2-0.4,0.3
				c-0.1,0.1-0.3,0.1-0.5,0.1c-0.2,0-0.3,0-0.5-0.1c-0.1-0.1-0.2-0.1-0.3-0.2s-0.2-0.2-0.2-0.4c0-0.2-0.1-0.3-0.1-0.5
				c0-0.2,0-0.4,0.1-0.5s0.1-0.3,0.2-0.4c0.1-0.1,0.2-0.2,0.4-0.3c0.1-0.1,0.3-0.1,0.5-0.1c0.2,0,0.3,0,0.5,0.1
				c0.1,0.1,0.2,0.1,0.3,0.2c0.1,0.1,0.2,0.2,0.2,0.4C170,31.1,170,31.3,170,31.5z M169.6,31.5c0-0.1,0-0.3,0-0.4s-0.1-0.2-0.1-0.3
				c-0.1-0.1-0.1-0.1-0.2-0.2c-0.1,0-0.2-0.1-0.3-0.1c-0.1,0-0.2,0-0.3,0.1c-0.1,0-0.2,0.1-0.2,0.2c-0.1,0.1-0.1,0.2-0.1,0.3
				c0,0.1,0,0.2,0,0.3c0,0.1,0,0.3,0,0.4s0.1,0.2,0.1,0.3c0.1,0.1,0.1,0.1,0.2,0.2c0.1,0,0.2,0.1,0.3,0.1c0.1,0,0.2,0,0.3-0.1
				c0.1,0,0.2-0.1,0.2-0.2s0.1-0.2,0.1-0.3C169.6,31.7,169.6,31.6,169.6,31.5z"/>
			<path class="st13" d="M172.8,32.3l0,1h-0.4v-0.6h-1.7v0.6h-0.4l0-1h0c0.1,0,0.1,0,0.2,0c0.1,0,0.1-0.1,0.1-0.1
				c0-0.1,0.1-0.1,0.1-0.2s0.1-0.2,0.1-0.4c0-0.1,0.1-0.3,0.1-0.5c0-0.2,0-0.5,0.1-0.8h1.5v2C172.5,32.3,172.8,32.3,172.8,32.3z
				 M172.1,30.7h-0.7c0,0.3,0,0.5-0.1,0.7c0,0.2-0.1,0.4-0.1,0.5s-0.1,0.2-0.1,0.3c0,0.1-0.1,0.1-0.1,0.2h1.1L172.1,30.7L172.1,30.7
				z"/>
			<path class="st13" d="M175.4,30.3l-0.8,2.1c-0.1,0.2-0.2,0.4-0.3,0.6c-0.1,0.2-0.2,0.3-0.3,0.4c-0.1,0.1-0.2,0.2-0.3,0.2
				c-0.1,0-0.3,0.1-0.4,0.1c0,0-0.1,0-0.1,0c0,0-0.1,0-0.1,0v-0.4c0,0,0.1,0,0.1,0c0,0,0.1,0,0.1,0c0.1,0,0.1,0,0.2,0
				c0.1,0,0.1-0.1,0.2-0.1s0.1-0.1,0.2-0.2c0.1-0.1,0.1-0.2,0.2-0.3l-0.9-2.4h0.5l0.6,1.6l0.1,0.4l0.1-0.4l0.6-1.6L175.4,30.3
				L175.4,30.3z"/>
			<path class="st13" d="M178,32.7h-0.6l-1.1-1.3v1.3H176v-2.4h0.4v1.1l1.1-1.1h0.5l-1.1,1.1L178,32.7z"/>
			<path class="st13" d="M180.6,30.7h-0.9v2h-0.4v-2h-0.9v-0.4h2.2L180.6,30.7L180.6,30.7z"/>
		</g>
		<g>
			<polygon class="st5" points="185,47.6 159.1,47.6 154,42.5 159.2,36.5 185,36.5 190.2,41.7 			"/>
			<g>
				<polyline class="st6" points="185.6,47 185,47.6 184.2,47.6 				"/>
				<line class="st7" x1="182.6" y1="47.6" x2="160.8" y2="47.6"/>
				<polyline class="st6" points="160,47.6 159.1,47.6 158.5,47 				"/>
				<line class="st14" x1="157.2" y1="45.7" x2="155.3" y2="43.7"/>
				<polyline class="st6" points="154.6,43.1 154,42.5 154.6,41.8 				"/>
				<line class="st15" x1="155.9" y1="40.2" x2="157.9" y2="37.9"/>
				<polyline class="st6" points="158.6,37.1 159.2,36.5 160,36.5 				"/>
				<line class="st7" x1="161.6" y1="36.5" x2="183.4" y2="36.5"/>
				<polyline class="st6" points="184.2,36.5 185,36.5 185.6,37.1 				"/>
				<line class="st16" x1="187" y1="38.4" x2="188.9" y2="40.4"/>
				<polyline class="st6" points="189.6,41.1 190.2,41.7 189.6,42.3 				"/>
				<line class="st11" x1="188.3" y1="43.9" x2="186.3" y2="46.2"/>
			</g>
		</g>
		<g>
			<rect x="159.1" y="38" class="st12" width="24.9" height="8"/>
			<path class="st13" d="M163.5,41.4H163l-1.1-1.5v1.5h-0.4v-3.1h0.4v1.4l1.1-1.4h0.5l-1.2,1.5L163.5,41.4z"/>
			<path class="st13" d="M166.1,40.2c0,0.2,0,0.4-0.1,0.5s-0.1,0.3-0.2,0.4c-0.1,0.1-0.2,0.2-0.4,0.3c-0.1,0.1-0.3,0.1-0.5,0.1
				c-0.2,0-0.3,0-0.5-0.1c-0.1-0.1-0.2-0.1-0.3-0.2s-0.2-0.2-0.2-0.4c0-0.2-0.1-0.3-0.1-0.5c0-0.2,0-0.4,0.1-0.5s0.1-0.3,0.2-0.4
				s0.2-0.2,0.4-0.3c0.1-0.1,0.3-0.1,0.5-0.1c0.2,0,0.3,0,0.5,0.1c0.1,0.1,0.2,0.1,0.3,0.2c0.1,0.1,0.2,0.2,0.2,0.4
				C166.1,39.8,166.1,40,166.1,40.2z M165.7,40.2c0-0.1,0-0.3,0-0.4s-0.1-0.2-0.1-0.3c-0.1-0.1-0.1-0.1-0.2-0.2
				c-0.1,0-0.2-0.1-0.3-0.1c-0.1,0-0.2,0-0.3,0.1c-0.1,0-0.2,0.1-0.2,0.2c-0.1,0.1-0.1,0.2-0.1,0.3c0,0.1,0,0.2,0,0.3
				c0,0.1,0,0.3,0,0.4s0.1,0.2,0.1,0.3c0.1,0.1,0.1,0.1,0.2,0.2c0.1,0,0.2,0.1,0.3,0.1c0.1,0,0.2,0,0.3-0.1c0.1,0,0.2-0.1,0.2-0.2
				s0.1-0.2,0.1-0.3C165.7,40.4,165.7,40.3,165.7,40.2z"/>
			<path class="st13" d="M168.6,41.4h-0.4v-1.1h-1.1v1.1h-0.4V39h0.4v1h1.1v-1h0.4V41.4z"/>
			<path class="st13" d="M171.3,40.1c0,0.1,0,0.1,0,0.1c0,0,0,0.1,0,0.1h-1.7c0,0.2,0.1,0.4,0.2,0.6c0.1,0.1,0.3,0.2,0.6,0.2
				c0.1,0,0.1,0,0.2,0c0.1,0,0.1,0,0.2,0c0.1,0,0.1,0,0.2,0s0.1,0,0.2,0v0.3c-0.1,0-0.2,0.1-0.4,0.1c-0.1,0-0.3,0-0.4,0
				c-0.2,0-0.4,0-0.5-0.1c-0.1-0.1-0.3-0.1-0.4-0.2c-0.1-0.1-0.2-0.2-0.2-0.4c0-0.2-0.1-0.3-0.1-0.5c0-0.2,0-0.3,0.1-0.5
				s0.1-0.3,0.2-0.4c0.1-0.1,0.2-0.2,0.3-0.3s0.3-0.1,0.5-0.1c0.2,0,0.3,0,0.4,0.1c0.1,0.1,0.2,0.1,0.3,0.2c0.1,0.1,0.2,0.2,0.2,0.3
				C171.3,39.8,171.3,39.9,171.3,40.1z M170.9,40c0-0.1,0-0.2,0-0.3c0-0.1-0.1-0.2-0.1-0.2c-0.1-0.1-0.1-0.1-0.2-0.1
				s-0.2-0.1-0.3-0.1c-0.1,0-0.2,0-0.2,0.1c-0.1,0-0.1,0.1-0.2,0.1c-0.1,0.1-0.1,0.1-0.1,0.2c0,0.1-0.1,0.2-0.1,0.3
				C169.6,40,170.9,40,170.9,40z"/>
			<path class="st13" d="M173.4,40.5H173c-0.4,0-0.6-0.1-0.8-0.2c-0.2-0.1-0.3-0.3-0.3-0.6V39h0.4v0.6c0,0.1,0,0.2,0,0.2
				c0,0.1,0.1,0.1,0.1,0.2c0.1,0,0.1,0.1,0.2,0.1c0.1,0,0.2,0,0.3,0h0.4V39h0.4v2.4h-0.4L173.4,40.5L173.4,40.5z"/>
			<path class="st13" d="M176.5,41.4h-0.4v-1.1H175v1.1h-0.4V39h0.4v1h1.1v-1h0.4V41.4z"/>
			<path class="st13" d="M177.5,39.9c0.1,0,0.1,0,0.2,0c0,0,0.1,0,0.2,0c0.1,0,0.3,0,0.4,0.1c0.1,0,0.2,0.1,0.3,0.1
				c0.1,0.1,0.1,0.1,0.2,0.2c0,0.1,0.1,0.2,0.1,0.3c0,0.1,0,0.2-0.1,0.3s-0.1,0.2-0.2,0.2s-0.2,0.1-0.3,0.1s-0.2,0-0.4,0
				c-0.1,0-0.2,0-0.3,0c-0.1,0-0.2,0-0.3,0V39h0.4L177.5,39.9L177.5,39.9z M178.2,40.7c0-0.1,0-0.2-0.1-0.3s-0.2-0.1-0.4-0.1
				c0,0-0.1,0-0.1,0s-0.1,0-0.1,0v0.8c0.1,0,0.1,0,0.1,0c0,0,0.1,0,0.1,0c0.1,0,0.2,0,0.2,0s0.1-0.1,0.1-0.1c0,0,0.1-0.1,0.1-0.1
				C178.2,40.8,178.2,40.7,178.2,40.7z M178.9,41.4V39h0.4v2.4H178.9z"/>
			<path class="st13" d="M180.3,39v1.7l1-1.7h0.4v2.4h-0.4v-1.7l-1,1.7h-0.4V39H180.3z M181.5,38.1c0,0.1,0,0.2-0.1,0.2
				s-0.1,0.1-0.1,0.2c-0.1,0.1-0.1,0.1-0.2,0.1c-0.1,0-0.2,0-0.3,0c-0.1,0-0.2,0-0.3,0c-0.1,0-0.2-0.1-0.2-0.1
				c-0.1-0.1-0.1-0.1-0.1-0.2s0-0.2,0-0.2h0.4c0,0,0,0.1,0,0.1c0,0,0,0.1,0.1,0.1c0,0,0.1,0.1,0.1,0.1c0,0,0.1,0,0.2,0
				c0.1,0,0.1,0,0.2,0c0,0,0.1,0,0.1-0.1c0,0,0-0.1,0.1-0.1c0,0,0-0.1,0-0.1H181.5z"/>
			<path class="st13" d="M164.6,45.2h-0.4v-2h-1.1v2h-0.4v-2.4h1.9L164.6,45.2L164.6,45.2z"/>
			<path class="st13" d="M167.4,44c0,0.2,0,0.4-0.1,0.6c-0.1,0.2-0.1,0.3-0.2,0.4c-0.1,0.1-0.2,0.2-0.4,0.2s-0.3,0.1-0.5,0.1
				c-0.1,0-0.1,0-0.2,0s-0.1,0-0.2,0v1h-0.4v-3.3h0.4l0,0.4c0.1-0.2,0.2-0.3,0.4-0.3s0.3-0.1,0.4-0.1c0.1,0,0.3,0,0.4,0.1
				s0.2,0.1,0.3,0.2c0.1,0.1,0.1,0.2,0.2,0.4C167.4,43.6,167.4,43.8,167.4,44z M167,44c0-0.1,0-0.2,0-0.3c0-0.1,0-0.2-0.1-0.3
				s-0.1-0.1-0.1-0.2c-0.1,0-0.1-0.1-0.2-0.1c-0.1,0-0.1,0-0.2,0c-0.1,0-0.1,0-0.2,0.1c-0.1,0-0.1,0.1-0.2,0.2
				c-0.1,0.1-0.1,0.1-0.2,0.2v1.2c0.1,0,0.2,0.1,0.2,0.1s0.2,0,0.2,0c0.2,0,0.4-0.1,0.5-0.2S167,44.3,167,44z"/>
			<path class="st13" d="M170,44c0,0.2,0,0.4-0.1,0.5s-0.1,0.3-0.2,0.4c-0.1,0.1-0.2,0.2-0.4,0.3c-0.1,0.1-0.3,0.1-0.5,0.1
				c-0.2,0-0.3,0-0.5-0.1c-0.1-0.1-0.2-0.1-0.3-0.2s-0.2-0.2-0.2-0.4c0-0.2-0.1-0.3-0.1-0.5c0-0.2,0-0.4,0.1-0.5s0.1-0.3,0.2-0.4
				s0.2-0.2,0.4-0.3c0.1-0.1,0.3-0.1,0.5-0.1c0.2,0,0.3,0,0.5,0.1c0.1,0.1,0.2,0.1,0.3,0.2c0.1,0.1,0.2,0.2,0.2,0.4
				C170,43.6,170,43.8,170,44z M169.6,44c0-0.1,0-0.3,0-0.4s-0.1-0.2-0.1-0.3c-0.1-0.1-0.1-0.1-0.2-0.2c-0.1,0-0.2-0.1-0.3-0.1
				c-0.1,0-0.2,0-0.3,0.1c-0.1,0-0.2,0.1-0.2,0.2c-0.1,0.1-0.1,0.2-0.1,0.3c0,0.1,0,0.2,0,0.3c0,0.1,0,0.3,0,0.4s0.1,0.2,0.1,0.3
				c0.1,0.1,0.1,0.1,0.2,0.2c0.1,0,0.2,0.1,0.3,0.1c0.1,0,0.2,0,0.3-0.1c0.1,0,0.2-0.1,0.2-0.2s0.1-0.2,0.1-0.3
				C169.6,44.2,169.6,44.1,169.6,44z"/>
			<path class="st13" d="M172.8,44.8l0,1h-0.4v-0.6h-1.7v0.6h-0.4l0-1h0c0.1,0,0.1,0,0.2,0c0.1,0,0.1-0.1,0.1-0.1
				c0-0.1,0.1-0.1,0.1-0.2s0.1-0.2,0.1-0.4c0-0.1,0.1-0.3,0.1-0.5c0-0.2,0-0.5,0.1-0.8h1.5v2C172.5,44.8,172.8,44.8,172.8,44.8z
				 M172.1,43.2h-0.7c0,0.3,0,0.5-0.1,0.7c0,0.2-0.1,0.4-0.1,0.5c0,0.1-0.1,0.2-0.1,0.3c0,0.1-0.1,0.1-0.1,0.2h1.1L172.1,43.2
				L172.1,43.2z"/>
			<path class="st13" d="M175.4,42.8l-0.8,2.1c-0.1,0.2-0.2,0.4-0.3,0.6c-0.1,0.2-0.2,0.3-0.3,0.4c-0.1,0.1-0.2,0.2-0.3,0.2
				c-0.1,0-0.3,0.1-0.4,0.1c0,0-0.1,0-0.1,0c0,0-0.1,0-0.1,0v-0.4c0,0,0.1,0,0.1,0c0,0,0.1,0,0.1,0c0.1,0,0.1,0,0.2,0
				c0.1,0,0.1-0.1,0.2-0.1s0.1-0.1,0.2-0.2c0.1-0.1,0.1-0.2,0.2-0.3l-0.9-2.4h0.5l0.6,1.6l0.1,0.4l0.1-0.4l0.6-1.6L175.4,42.8
				L175.4,42.8z"/>
			<path class="st13" d="M178,45.2h-0.6l-1.1-1.3v1.3H176v-2.4h0.4v1.1l1.1-1.1h0.5l-1.1,1.1L178,45.2z"/>
			<path class="st13" d="M180.6,43.2h-0.9v2h-0.4v-2h-0.9v-0.4h2.2L180.6,43.2L180.6,43.2z"/>
		</g>
		<g>
			<rect x="223.5" y="98.8" class="st12" width="24.9" height="4.3"/>
			<path class="st13" d="M229.1,102.1h-0.4v-2.7h-1.3v2.7H227V99h2.1L229.1,102.1L229.1,102.1z"/>
			<path class="st13" d="M231.8,100.9c0,0.2,0,0.4-0.1,0.6c-0.1,0.2-0.1,0.3-0.2,0.4c-0.1,0.1-0.2,0.2-0.4,0.2s-0.3,0.1-0.5,0.1
				c-0.1,0-0.1,0-0.2,0s-0.1,0-0.2,0v1h-0.4v-3.3h0.4l0,0.4c0.1-0.2,0.2-0.3,0.4-0.3s0.3-0.1,0.4-0.1c0.1,0,0.3,0,0.4,0.1
				s0.2,0.1,0.3,0.2c0.1,0.1,0.1,0.2,0.2,0.4C231.7,100.5,231.8,100.7,231.8,100.9z M231.3,100.9c0-0.1,0-0.2,0-0.3
				c0-0.1,0-0.2-0.1-0.3s-0.1-0.1-0.1-0.2c-0.1,0-0.1-0.1-0.2-0.1c-0.1,0-0.1,0-0.2,0s-0.1,0-0.2,0.1c-0.1,0-0.1,0.1-0.2,0.2
				c-0.1,0.1-0.1,0.1-0.2,0.2v1.2c0.1,0,0.2,0.1,0.2,0.1s0.2,0,0.2,0c0.2,0,0.4-0.1,0.5-0.2S231.3,101.2,231.3,100.9z"/>
			<path class="st13" d="M234.4,100.9c0,0.2,0,0.4-0.1,0.5c-0.1,0.2-0.1,0.3-0.2,0.4c-0.1,0.1-0.2,0.2-0.4,0.3
				c-0.1,0.1-0.3,0.1-0.5,0.1c-0.2,0-0.3,0-0.5-0.1c-0.1-0.1-0.2-0.1-0.3-0.2s-0.2-0.2-0.2-0.4c0-0.2-0.1-0.3-0.1-0.5
				c0-0.2,0-0.4,0.1-0.5s0.1-0.3,0.2-0.4s0.2-0.2,0.4-0.3c0.1-0.1,0.3-0.1,0.5-0.1c0.2,0,0.3,0,0.5,0.1c0.1,0.1,0.2,0.1,0.3,0.2
				c0.1,0.1,0.2,0.2,0.2,0.4C234.4,100.5,234.4,100.7,234.4,100.9z M234,100.9c0-0.1,0-0.3,0-0.4s-0.1-0.2-0.1-0.3
				c-0.1-0.1-0.1-0.1-0.2-0.2c-0.1,0-0.2-0.1-0.3-0.1c-0.1,0-0.2,0-0.3,0.1c-0.1,0-0.2,0.1-0.2,0.2c-0.1,0.1-0.1,0.2-0.1,0.3
				c0,0.1,0,0.2,0,0.3c0,0.1,0,0.3,0,0.4s0.1,0.2,0.1,0.3c0.1,0.1,0.1,0.1,0.2,0.2c0.1,0,0.2,0.1,0.3,0.1c0.1,0,0.2,0,0.3-0.1
				c0.1,0,0.2-0.1,0.2-0.2s0.1-0.2,0.1-0.3C234,101.2,234,101.1,234,100.9z"/>
			<path class="st13" d="M237.2,101.8l0,1h-0.4v-0.6h-1.7v0.6h-0.4l0-1h0c0.1,0,0.1,0,0.2,0c0.1,0,0.1-0.1,0.1-0.1
				c0-0.1,0.1-0.1,0.1-0.2s0.1-0.2,0.1-0.4c0-0.1,0.1-0.3,0.1-0.5c0-0.2,0-0.5,0.1-0.8h1.5v2H237.2z M236.5,100.1h-0.7
				c0,0.3,0,0.5-0.1,0.7c0,0.2-0.1,0.4-0.1,0.5c0,0.1-0.1,0.2-0.1,0.3c0,0.1-0.1,0.1-0.1,0.2h1.1L236.5,100.1L236.5,100.1z"/>
			<path class="st13" d="M239.8,99.7l-0.8,2.1c-0.1,0.2-0.2,0.4-0.3,0.6c-0.1,0.2-0.2,0.3-0.3,0.4c-0.1,0.1-0.2,0.2-0.3,0.2
				c-0.1,0-0.3,0.1-0.4,0.1c0,0-0.1,0-0.1,0c0,0-0.1,0-0.1,0v-0.4c0,0,0.1,0,0.1,0c0,0,0.1,0,0.1,0c0.1,0,0.1,0,0.2,0
				c0.1,0,0.1-0.1,0.2-0.1s0.1-0.1,0.2-0.2c0.1-0.1,0.1-0.2,0.2-0.3l-0.9-2.4h0.5l0.6,1.6l0.1,0.4l0.1-0.4l0.6-1.6L239.8,99.7
				L239.8,99.7z"/>
			<path class="st13" d="M242.4,102.1h-0.6l-1.1-1.3v1.3h-0.4v-2.4h0.4v1.1l1.1-1.1h0.5l-1.1,1.1L242.4,102.1z"/>
			<path class="st13" d="M245,100.1h-0.9v2h-0.4v-2h-0.9v-0.4h2.2L245,100.1L245,100.1z"/>
		</g>
		<g>
			<polygon class="st5" points="165.5,63.4 139.6,63.4 134.5,57.8 139.6,52.2 165.5,52.2 170.7,57.7 			"/>
			<g>
				<polyline class="st6" points="166.1,62.7 165.5,63.4 164.6,63.4 				"/>
				<line class="st17" x1="163" y1="63.4" x2="141.3" y2="63.4"/>
				<polyline class="st6" points="140.5,63.4 139.6,63.4 139,62.7 				"/>
				<line class="st18" x1="137.7" y1="61.3" x2="135.7" y2="59.1"/>
				<polyline class="st6" points="135.1,58.4 134.5,57.8 135.1,57.2 				"/>
				<line class="st19" x1="136.4" y1="55.7" x2="138.4" y2="53.5"/>
				<polyline class="st6" points="139.1,52.8 139.6,52.2 140.5,52.2 				"/>
				<line class="st17" x1="142.1" y1="52.2" x2="163.9" y2="52.2"/>
				<polyline class="st6" points="164.7,52.2 165.5,52.2 166.1,52.8 				"/>
				<line class="st20" x1="167.4" y1="54.2" x2="169.4" y2="56.4"/>
				<polyline class="st6" points="170.1,57.1 170.7,57.7 170.1,58.4 				"/>
				<line class="st21" x1="168.7" y1="59.8" x2="166.7" y2="62"/>
			</g>
		</g>
		<g>
			<rect x="140.1" y="53.8" class="st12" width="24.9" height="8"/>
			<path class="st13" d="M144.5,57.1H144l-1.1-1.5v1.5h-0.4V54h0.4v1.4l1.1-1.4h0.5l-1.2,1.5L144.5,57.1z"/>
			<path class="st13" d="M147.1,55.9c0,0.2,0,0.4-0.1,0.5s-0.1,0.3-0.2,0.4c-0.1,0.1-0.2,0.2-0.4,0.3c-0.1,0.1-0.3,0.1-0.5,0.1
				c-0.2,0-0.3,0-0.5-0.1c-0.1-0.1-0.2-0.1-0.3-0.2s-0.2-0.2-0.2-0.4c0-0.2-0.1-0.3-0.1-0.5c0-0.2,0-0.4,0.1-0.5s0.1-0.3,0.2-0.4
				s0.2-0.2,0.4-0.3c0.1-0.1,0.3-0.1,0.5-0.1c0.2,0,0.3,0,0.5,0.1c0.1,0.1,0.2,0.1,0.3,0.2c0.1,0.1,0.2,0.2,0.2,0.4
				C147.1,55.5,147.1,55.7,147.1,55.9z M146.7,55.9c0-0.1,0-0.3,0-0.4s-0.1-0.2-0.1-0.3c-0.1-0.1-0.1-0.1-0.2-0.2
				c-0.1,0-0.2-0.1-0.3-0.1c-0.1,0-0.2,0-0.3,0.1c-0.1,0-0.2,0.1-0.2,0.2c-0.1,0.1-0.1,0.2-0.1,0.3c0,0.1,0,0.2,0,0.3
				c0,0.1,0,0.3,0,0.4s0.1,0.2,0.1,0.3c0.1,0.1,0.1,0.1,0.2,0.2c0.1,0,0.2,0.1,0.3,0.1c0.1,0,0.2,0,0.3-0.1c0.1,0,0.2-0.1,0.2-0.2
				s0.1-0.2,0.1-0.3C146.7,56.2,146.7,56.1,146.7,55.9z"/>
			<path class="st13" d="M149.6,57.1h-0.4v-1.1h-1.1v1.1h-0.4v-2.4h0.4v1h1.1v-1h0.4V57.1z"/>
			<path class="st13" d="M152.3,55.8c0,0.1,0,0.1,0,0.1c0,0,0,0.1,0,0.1h-1.7c0,0.2,0.1,0.4,0.2,0.6c0.1,0.1,0.3,0.2,0.6,0.2
				c0.1,0,0.1,0,0.2,0c0.1,0,0.1,0,0.2,0c0.1,0,0.1,0,0.2,0s0.1,0,0.2,0v0.3c-0.1,0-0.2,0.1-0.4,0.1c-0.1,0-0.3,0-0.4,0
				c-0.2,0-0.4,0-0.5-0.1c-0.1-0.1-0.3-0.1-0.4-0.2c-0.1-0.1-0.2-0.2-0.2-0.4c0-0.2-0.1-0.3-0.1-0.5c0-0.2,0-0.3,0.1-0.5
				s0.1-0.3,0.2-0.4c0.1-0.1,0.2-0.2,0.3-0.3s0.3-0.1,0.5-0.1c0.2,0,0.3,0,0.4,0.1c0.1,0.1,0.2,0.1,0.3,0.2c0.1,0.1,0.2,0.2,0.2,0.3
				C152.3,55.5,152.3,55.6,152.3,55.8z M151.9,55.8c0-0.1,0-0.2,0-0.3c0-0.1-0.1-0.2-0.1-0.2c-0.1-0.1-0.1-0.1-0.2-0.1
				s-0.2-0.1-0.3-0.1c-0.1,0-0.2,0-0.2,0.1c-0.1,0-0.1,0.1-0.2,0.1c-0.1,0.1-0.1,0.1-0.1,0.2c0,0.1-0.1,0.2-0.1,0.3
				C150.6,55.8,151.9,55.8,151.9,55.8z"/>
			<path class="st13" d="M154.4,56.2h-0.5c-0.4,0-0.6-0.1-0.8-0.2c-0.2-0.1-0.3-0.3-0.3-0.6v-0.7h0.4v0.6c0,0.1,0,0.2,0,0.2
				c0,0.1,0.1,0.1,0.1,0.2c0.1,0,0.1,0.1,0.2,0.1c0.1,0,0.2,0,0.3,0h0.4v-1.1h0.4v2.4h-0.4L154.4,56.2L154.4,56.2z"/>
			<path class="st13" d="M157.5,57.1h-0.4v-1.1H156v1.1h-0.4v-2.4h0.4v1h1.1v-1h0.4V57.1z"/>
			<path class="st13" d="M158.4,55.7c0.1,0,0.1,0,0.2,0c0,0,0.1,0,0.2,0c0.1,0,0.3,0,0.4,0.1c0.1,0,0.2,0.1,0.3,0.1
				c0.1,0.1,0.1,0.1,0.2,0.2c0,0.1,0.1,0.2,0.1,0.3c0,0.1,0,0.2-0.1,0.3s-0.1,0.2-0.2,0.2s-0.2,0.1-0.3,0.1s-0.2,0-0.4,0
				c-0.1,0-0.2,0-0.3,0c-0.1,0-0.2,0-0.3,0v-2.4h0.4L158.4,55.7L158.4,55.7z M159.2,56.4c0-0.1,0-0.2-0.1-0.3s-0.2-0.1-0.4-0.1
				c0,0-0.1,0-0.1,0s-0.1,0-0.1,0v0.8c0.1,0,0.1,0,0.1,0c0,0,0.1,0,0.1,0c0.1,0,0.2,0,0.2,0s0.1-0.1,0.1-0.1c0,0,0.1-0.1,0.1-0.1
				C159.2,56.5,159.2,56.5,159.2,56.4z M159.9,57.1v-2.4h0.4v2.4H159.9z"/>
			<path class="st13" d="M161.3,54.7v1.7l1-1.7h0.4v2.4h-0.4v-1.7l-1,1.7h-0.4v-2.4H161.3z M162.5,53.8c0,0.1,0,0.2-0.1,0.2
				s-0.1,0.1-0.1,0.2c-0.1,0.1-0.1,0.1-0.2,0.1c-0.1,0-0.2,0-0.3,0c-0.1,0-0.2,0-0.3,0c-0.1,0-0.2-0.1-0.2-0.1
				c-0.1-0.1-0.1-0.1-0.1-0.2s0-0.2,0-0.2h0.4c0,0,0,0.1,0,0.1c0,0,0,0.1,0.1,0.1c0,0,0.1,0.1,0.1,0.1c0,0,0.1,0,0.2,0
				c0.1,0,0.1,0,0.2,0c0,0,0.1,0,0.1-0.1c0,0,0-0.1,0.1-0.1c0,0,0-0.1,0-0.1H162.5z"/>
			<path class="st13" d="M145.6,60.9h-0.4v-2h-1.1v2h-0.4v-2.4h1.9L145.6,60.9L145.6,60.9z"/>
			<path class="st13" d="M148.4,59.7c0,0.2,0,0.4-0.1,0.6c-0.1,0.2-0.1,0.3-0.2,0.4c-0.1,0.1-0.2,0.2-0.4,0.2s-0.3,0.1-0.5,0.1
				c-0.1,0-0.1,0-0.2,0s-0.1,0-0.2,0v1h-0.4v-3.3h0.4l0,0.4c0.1-0.2,0.2-0.3,0.4-0.3s0.3-0.1,0.4-0.1c0.1,0,0.3,0,0.4,0.1
				s0.2,0.1,0.3,0.2c0.1,0.1,0.1,0.2,0.2,0.4C148.3,59.4,148.4,59.5,148.4,59.7z M147.9,59.7c0-0.1,0-0.2,0-0.3c0-0.1,0-0.2-0.1-0.3
				s-0.1-0.1-0.1-0.2c-0.1,0-0.1-0.1-0.2-0.1c-0.1,0-0.1,0-0.2,0c-0.1,0-0.1,0-0.2,0.1c-0.1,0-0.1,0.1-0.2,0.2
				c-0.1,0.1-0.1,0.1-0.2,0.2v1.2c0.1,0,0.2,0.1,0.2,0.1s0.2,0,0.2,0c0.2,0,0.4-0.1,0.5-0.2S147.9,60,147.9,59.7z"/>
			<path class="st13" d="M151,59.7c0,0.2,0,0.4-0.1,0.5s-0.1,0.3-0.2,0.4c-0.1,0.1-0.2,0.2-0.4,0.3c-0.1,0.1-0.3,0.1-0.5,0.1
				c-0.2,0-0.3,0-0.5-0.1c-0.1-0.1-0.2-0.1-0.3-0.2s-0.2-0.2-0.2-0.4c0-0.2-0.1-0.3-0.1-0.5c0-0.2,0-0.4,0.1-0.5s0.1-0.3,0.2-0.4
				s0.2-0.2,0.4-0.3c0.1-0.1,0.3-0.1,0.5-0.1c0.2,0,0.3,0,0.5,0.1c0.1,0.1,0.2,0.1,0.3,0.2c0.1,0.1,0.2,0.2,0.2,0.4
				C151,59.4,151,59.5,151,59.7z M150.6,59.7c0-0.1,0-0.3,0-0.4s-0.1-0.2-0.1-0.3c-0.1-0.1-0.1-0.1-0.2-0.2c-0.1,0-0.2-0.1-0.3-0.1
				c-0.1,0-0.2,0-0.3,0.1c-0.1,0-0.2,0.1-0.2,0.2c-0.1,0.1-0.1,0.2-0.1,0.3c0,0.1,0,0.2,0,0.3c0,0.1,0,0.3,0,0.4s0.1,0.2,0.1,0.3
				c0.1,0.1,0.1,0.1,0.2,0.2c0.1,0,0.2,0.1,0.3,0.1c0.1,0,0.2,0,0.3-0.1c0.1,0,0.2-0.1,0.2-0.2s0.1-0.2,0.1-0.3
				C150.6,60,150.6,59.9,150.6,59.7z"/>
			<path class="st13" d="M153.8,60.6l0,1h-0.4v-0.6h-1.7v0.6h-0.4l0-1h0c0.1,0,0.1,0,0.2,0c0.1,0,0.1-0.1,0.1-0.1
				c0-0.1,0.1-0.1,0.1-0.2s0.1-0.2,0.1-0.4c0-0.1,0.1-0.3,0.1-0.5c0-0.2,0-0.5,0.1-0.8h1.5v2C153.5,60.6,153.8,60.6,153.8,60.6z
				 M153.1,58.9h-0.7c0,0.3,0,0.5-0.1,0.7c0,0.2-0.1,0.4-0.1,0.5c0,0.1-0.1,0.2-0.1,0.3c0,0.1-0.1,0.1-0.1,0.2h1.1L153.1,58.9
				L153.1,58.9z"/>
			<path class="st13" d="M156.4,58.6l-0.8,2.1c-0.1,0.2-0.2,0.4-0.3,0.6c-0.1,0.2-0.2,0.3-0.3,0.4c-0.1,0.1-0.2,0.2-0.3,0.2
				c-0.1,0-0.3,0.1-0.4,0.1c0,0-0.1,0-0.1,0c0,0-0.1,0-0.1,0v-0.4c0,0,0.1,0,0.1,0c0,0,0.1,0,0.1,0c0.1,0,0.1,0,0.2,0
				c0.1,0,0.1-0.1,0.2-0.1s0.1-0.1,0.2-0.2c0.1-0.1,0.1-0.2,0.2-0.3l-0.9-2.4h0.5l0.6,1.6l0.1,0.4l0.1-0.4l0.6-1.6L156.4,58.6
				L156.4,58.6z"/>
			<path class="st13" d="M159,60.9h-0.6l-1.1-1.3v1.3H157v-2.4h0.4v1.1l1.1-1.1h0.5l-1.1,1.1L159,60.9z"/>
			<path class="st13" d="M161.6,58.9h-0.9v2h-0.4v-2h-0.9v-0.4h2.2L161.6,58.9L161.6,58.9z"/>
		</g>
		<g>
			<polygon class="st5" points="199.5,81.5 173.6,81.5 168.5,75.9 173.6,70.3 199.5,70.3 204.6,75.8 			"/>
			<g>
				<polyline class="st6" points="200,80.8 199.5,81.5 198.6,81.5 				"/>
				<line class="st7" x1="197" y1="81.5" x2="175.2" y2="81.5"/>
				<polyline class="st6" points="174.4,81.5 173.6,81.5 173,80.8 				"/>
				<line class="st22" x1="171.7" y1="79.4" x2="169.7" y2="77.2"/>
				<polyline class="st6" points="169,76.5 168.5,75.9 169,75.2 				"/>
				<line class="st23" x1="170.4" y1="73.8" x2="172.4" y2="71.6"/>
				<polyline class="st6" points="173,70.9 173.6,70.3 174.5,70.3 				"/>
				<line class="st17" x1="176.1" y1="70.3" x2="197.8" y2="70.3"/>
				<polyline class="st6" points="198.6,70.3 199.5,70.3 200.1,70.9 				"/>
				<line class="st20" x1="201.4" y1="72.3" x2="203.4" y2="74.5"/>
				<polyline class="st6" points="204,75.2 204.6,75.8 204,76.4 				"/>
				<line class="st24" x1="202.7" y1="77.9" x2="200.7" y2="80.1"/>
			</g>
		</g>
		<g>
			<rect x="174.1" y="71.9" class="st12" width="24.9" height="8"/>
			<path class="st13" d="M178.4,75.2h-0.5l-1.1-1.5v1.5h-0.4v-3.1h0.4v1.4l1.1-1.4h0.5l-1.2,1.5L178.4,75.2z"/>
			<path class="st13" d="M181,74c0,0.2,0,0.4-0.1,0.5c-0.1,0.2-0.1,0.3-0.2,0.4c-0.1,0.1-0.2,0.2-0.4,0.3c-0.1,0.1-0.3,0.1-0.5,0.1
				c-0.2,0-0.3,0-0.5-0.1c-0.1-0.1-0.2-0.1-0.3-0.2s-0.2-0.2-0.2-0.4c0-0.2-0.1-0.3-0.1-0.5c0-0.2,0-0.4,0.1-0.5s0.1-0.3,0.2-0.4
				s0.2-0.2,0.4-0.3c0.1-0.1,0.3-0.1,0.5-0.1c0.2,0,0.3,0,0.5,0.1c0.1,0.1,0.2,0.1,0.3,0.2c0.1,0.1,0.2,0.2,0.2,0.4
				C181,73.6,181,73.8,181,74z M180.6,74c0-0.1,0-0.3,0-0.4s-0.1-0.2-0.1-0.3c-0.1-0.1-0.1-0.1-0.2-0.2c-0.1,0-0.2-0.1-0.3-0.1
				c-0.1,0-0.2,0-0.3,0.1c-0.1,0-0.2,0.1-0.2,0.2c-0.1,0.1-0.1,0.2-0.1,0.3c0,0.1,0,0.2,0,0.3c0,0.1,0,0.3,0,0.4s0.1,0.2,0.1,0.3
				c0.1,0.1,0.1,0.1,0.2,0.2c0.1,0,0.2,0.1,0.3,0.1c0.1,0,0.2,0,0.3-0.1c0.1,0,0.2-0.1,0.2-0.2s0.1-0.2,0.1-0.3
				C180.6,74.2,180.6,74.1,180.6,74z"/>
			<path class="st13" d="M183.5,75.2h-0.4v-1.1H182v1.1h-0.4v-2.4h0.4v1h1.1v-1h0.4V75.2z"/>
			<path class="st13" d="M186.3,73.9c0,0.1,0,0.1,0,0.1c0,0,0,0.1,0,0.1h-1.7c0,0.2,0.1,0.4,0.2,0.6c0.1,0.1,0.3,0.2,0.6,0.2
				c0.1,0,0.1,0,0.2,0c0.1,0,0.1,0,0.2,0c0.1,0,0.1,0,0.2,0s0.1,0,0.2,0v0.3c-0.1,0-0.2,0.1-0.4,0.1c-0.1,0-0.3,0-0.4,0
				c-0.2,0-0.4,0-0.5-0.1c-0.1-0.1-0.3-0.1-0.4-0.2c-0.1-0.1-0.2-0.2-0.2-0.4c0-0.2-0.1-0.3-0.1-0.5c0-0.2,0-0.3,0.1-0.5
				s0.1-0.3,0.2-0.4c0.1-0.1,0.2-0.2,0.3-0.3c0.1-0.1,0.3-0.1,0.5-0.1c0.2,0,0.3,0,0.4,0.1c0.1,0.1,0.2,0.1,0.3,0.2
				c0.1,0.1,0.2,0.2,0.2,0.3C186.2,73.6,186.3,73.7,186.3,73.9z M185.8,73.8c0-0.1,0-0.2,0-0.3c0-0.1-0.1-0.2-0.1-0.2
				c-0.1-0.1-0.1-0.1-0.2-0.1s-0.2-0.1-0.3-0.1c-0.1,0-0.2,0-0.2,0.1c-0.1,0-0.1,0.1-0.2,0.1c-0.1,0.1-0.1,0.1-0.1,0.2
				c0,0.1-0.1,0.2-0.1,0.3H185.8z"/>
			<path class="st13" d="M188.4,74.3h-0.5c-0.4,0-0.6-0.1-0.8-0.2c-0.2-0.1-0.3-0.3-0.3-0.6v-0.7h0.4v0.6c0,0.1,0,0.2,0,0.2
				c0,0.1,0.1,0.1,0.1,0.2c0.1,0,0.1,0.1,0.2,0.1c0.1,0,0.2,0,0.3,0h0.4v-1.1h0.4v2.4h-0.4L188.4,74.3L188.4,74.3z"/>
			<path class="st13" d="M191.4,75.2H191v-1.1H190v1.1h-0.4v-2.4h0.4v1h1.1v-1h0.4V75.2z"/>
			<path class="st13" d="M192.4,73.7c0.1,0,0.1,0,0.2,0c0,0,0.1,0,0.2,0c0.1,0,0.3,0,0.4,0.1c0.1,0,0.2,0.1,0.3,0.1
				c0.1,0.1,0.1,0.1,0.2,0.2c0,0.1,0.1,0.2,0.1,0.3c0,0.1,0,0.2-0.1,0.3s-0.1,0.2-0.2,0.2s-0.2,0.1-0.3,0.1s-0.2,0.1-0.4,0.1
				c-0.1,0-0.2,0-0.3,0c-0.1,0-0.2,0-0.3,0v-2.4h0.4L192.4,73.7L192.4,73.7z M193.2,74.5c0-0.1,0-0.2-0.1-0.3s-0.2-0.1-0.4-0.1
				c0,0-0.1,0-0.1,0s-0.1,0-0.1,0v0.8c0.1,0,0.1,0,0.1,0c0,0,0.1,0,0.1,0c0.1,0,0.2,0,0.2,0s0.1-0.1,0.1-0.1c0,0,0.1-0.1,0.1-0.1
				C193.2,74.6,193.2,74.5,193.2,74.5z M193.9,75.2v-2.4h0.4v2.4H193.9z"/>
			<path class="st13" d="M195.3,72.8v1.7l1-1.7h0.4v2.4h-0.4v-1.7l-1,1.7h-0.4v-2.4H195.3z M196.5,71.9c0,0.1,0,0.2-0.1,0.2
				s-0.1,0.1-0.1,0.2c-0.1,0.1-0.1,0.1-0.2,0.1c-0.1,0-0.2,0-0.3,0c-0.1,0-0.2,0-0.3,0c-0.1,0-0.2-0.1-0.2-0.1
				c-0.1-0.1-0.1-0.1-0.1-0.2s0-0.2,0-0.2h0.4c0,0,0,0.1,0,0.1c0,0,0,0.1,0.1,0.1c0,0,0.1,0.1,0.1,0.1c0,0,0.1,0,0.2,0
				c0.1,0,0.1,0,0.2,0c0,0,0.1,0,0.1-0.1c0,0,0-0.1,0.1-0.1c0,0,0-0.1,0-0.1H196.5z"/>
			<path class="st13" d="M179.6,79h-0.4v-2h-1.1v2h-0.4v-2.4h1.9L179.6,79L179.6,79z"/>
			<path class="st13" d="M182.3,77.8c0,0.2,0,0.4-0.1,0.6c-0.1,0.2-0.1,0.3-0.2,0.4c-0.1,0.1-0.2,0.2-0.4,0.2s-0.3,0.1-0.5,0.1
				c-0.1,0-0.1,0-0.2,0s-0.1,0-0.2,0v1h-0.4v-3.3h0.4l0,0.4c0.1-0.2,0.2-0.3,0.4-0.3s0.3-0.1,0.4-0.1c0.1,0,0.3,0,0.4,0.1
				s0.2,0.1,0.3,0.2c0.1,0.1,0.1,0.2,0.2,0.4C182.3,77.4,182.3,77.6,182.3,77.8z M181.9,77.8c0-0.1,0-0.2,0-0.3c0-0.1,0-0.2-0.1-0.3
				s-0.1-0.1-0.1-0.2c-0.1,0-0.1-0.1-0.2-0.1c-0.1,0-0.1,0-0.2,0s-0.1,0-0.2,0.1c-0.1,0-0.1,0.1-0.2,0.2c-0.1,0.1-0.1,0.1-0.2,0.2
				v1.2c0.1,0,0.2,0.1,0.2,0.1s0.2,0,0.2,0c0.2,0,0.4-0.1,0.5-0.2S181.9,78.1,181.9,77.8z"/>
			<path class="st13" d="M185,77.8c0,0.2,0,0.4-0.1,0.5c-0.1,0.2-0.1,0.3-0.2,0.4c-0.1,0.1-0.2,0.2-0.4,0.3
				c-0.1,0.1-0.3,0.1-0.5,0.1c-0.2,0-0.3,0-0.5-0.1c-0.1-0.1-0.2-0.1-0.3-0.2s-0.2-0.2-0.2-0.4c0-0.2-0.1-0.3-0.1-0.5
				c0-0.2,0-0.4,0.1-0.5s0.1-0.3,0.2-0.4s0.2-0.2,0.4-0.3c0.1-0.1,0.3-0.1,0.5-0.1c0.2,0,0.3,0,0.5,0.1c0.1,0.1,0.2,0.1,0.3,0.2
				c0.1,0.1,0.2,0.2,0.2,0.4C185,77.4,185,77.6,185,77.8z M184.6,77.8c0-0.1,0-0.3,0-0.4s-0.1-0.2-0.1-0.3c-0.1-0.1-0.1-0.1-0.2-0.2
				c-0.1,0-0.2-0.1-0.3-0.1c-0.1,0-0.2,0-0.3,0.1c-0.1,0-0.2,0.1-0.2,0.2c-0.1,0.1-0.1,0.2-0.1,0.3c0,0.1,0,0.2,0,0.3
				c0,0.1,0,0.3,0,0.4s0.1,0.2,0.1,0.3c0.1,0.1,0.1,0.1,0.2,0.2c0.1,0,0.2,0.1,0.3,0.1c0.1,0,0.2,0,0.3-0.1c0.1,0,0.2-0.1,0.2-0.2
				s0.1-0.2,0.1-0.3C184.6,78.1,184.6,77.9,184.6,77.8z"/>
			<path class="st13" d="M187.8,78.7l0,1h-0.4V79h-1.7v0.6h-0.4l0-1h0c0.1,0,0.1,0,0.2,0c0.1,0,0.1-0.1,0.1-0.1
				c0-0.1,0.1-0.1,0.1-0.2s0.1-0.2,0.1-0.4c0-0.1,0.1-0.3,0.1-0.5c0-0.2,0-0.5,0.1-0.8h1.5v2H187.8z M187,77h-0.7
				c0,0.3,0,0.5-0.1,0.7c0,0.2-0.1,0.4-0.1,0.5c0,0.1-0.1,0.2-0.1,0.3c0,0.1-0.1,0.1-0.1,0.2h1.1L187,77L187,77z"/>
			<path class="st13" d="M190.3,76.6l-0.8,2.1c-0.1,0.2-0.2,0.4-0.3,0.6c-0.1,0.2-0.2,0.3-0.3,0.4c-0.1,0.1-0.2,0.2-0.3,0.2
				c-0.1,0-0.3,0.1-0.4,0.1c0,0-0.1,0-0.1,0c0,0-0.1,0-0.1,0v-0.4c0,0,0.1,0,0.1,0c0,0,0.1,0,0.1,0c0.1,0,0.1,0,0.2,0
				c0.1,0,0.1-0.1,0.2-0.1s0.1-0.1,0.2-0.2c0.1-0.1,0.1-0.2,0.2-0.3l-0.9-2.4h0.5l0.6,1.6l0.1,0.4l0.1-0.4l0.6-1.6
				C189.9,76.6,190.3,76.6,190.3,76.6z"/>
			<path class="st13" d="M193,79h-0.6l-1.1-1.3V79h-0.4v-2.4h0.4v1.1l1.1-1.1h0.5l-1.1,1.1L193,79z"/>
			<path class="st13" d="M195.6,77h-0.9v2h-0.4v-2h-0.9v-0.4h2.2L195.6,77L195.6,77z"/>
		</g>
		<polygon class="st4" points="128.9,81.6 103,81.6 97.9,76 103,70.4 128.9,70.4 134,75.9 		"/>
		<polygon class="st4" points="175.1,106.5 149.3,106.5 144.1,100.9 149.3,95.3 175.2,95.3 180.3,100.8 		"/>
		<polygon class="st4" points="101.6,106.5 75.7,106.5 70.6,100.9 75.7,95.3 101.6,95.3 106.7,100.8 		"/>
		<g>
			<rect x="74.2" y="96.7" class="st12" width="28.9" height="8.3"/>
			<path class="st13" d="M77.8,99.2c0,0.1,0,0.3-0.1,0.4c-0.1,0.1-0.1,0.2-0.2,0.3s-0.2,0.1-0.4,0.2s-0.3,0.1-0.5,0.1h-0.8V97h0.9
				c0.7,0,1,0.3,1,0.8c0,0.2,0,0.3-0.1,0.4c-0.1,0.1-0.2,0.2-0.4,0.3c0.1,0,0.2,0,0.2,0.1s0.1,0.1,0.2,0.1c0.1,0.1,0.1,0.1,0.1,0.2
				C77.8,99,77.8,99.1,77.8,99.2z M77.3,97.8c0-0.1,0-0.1,0-0.2c0-0.1-0.1-0.1-0.1-0.1s-0.1-0.1-0.2-0.1c-0.1,0-0.2,0-0.3,0h-0.4v1
				h0.4c0.1,0,0.2,0,0.3,0c0.1,0,0.1-0.1,0.2-0.1c0.1,0,0.1-0.1,0.1-0.2C77.3,98,77.3,97.9,77.3,97.8z M77.4,99.2
				c0-0.1,0-0.1-0.1-0.2c0-0.1-0.1-0.1-0.1-0.2c-0.1,0-0.1-0.1-0.2-0.1c-0.1,0-0.2,0-0.3,0h-0.4v1.1h0.4c0.2,0,0.4,0,0.5-0.1
				C77.3,99.5,77.4,99.4,77.4,99.2z"/>
			<path class="st13" d="M80.4,100.1H80V99h-1.1v1.1h-0.4v-2.4h0.4v1H80v-1h0.4V100.1z"/>
			<path class="st13" d="M83.2,97.7l-0.8,2.1c-0.1,0.2-0.2,0.4-0.3,0.6c-0.1,0.2-0.2,0.3-0.3,0.4c-0.1,0.1-0.2,0.2-0.3,0.2
				c-0.1,0-0.3,0.1-0.4,0.1c0,0-0.1,0-0.1,0c0,0-0.1,0-0.1,0v-0.4c0,0,0.1,0,0.1,0c0,0,0.1,0,0.1,0c0.1,0,0.1,0,0.2,0
				c0.1,0,0.1-0.1,0.2-0.1s0.1-0.1,0.2-0.2c0.1-0.1,0.1-0.2,0.2-0.3l-0.9-2.4h0.5l0.6,1.6l0.1,0.4l0.1-0.4l0.6-1.6L83.2,97.7
				L83.2,97.7z"/>
			<path class="st13" d="M85.8,98.1h-0.9v2h-0.4v-2h-0.9v-0.4h2.2L85.8,98.1L85.8,98.1z"/>
			<path class="st13" d="M88.4,98.9c0,0.2,0,0.4-0.1,0.6s-0.1,0.3-0.2,0.4c-0.1,0.1-0.2,0.2-0.4,0.2s-0.3,0.1-0.5,0.1
				c-0.1,0-0.1,0-0.2,0s-0.1,0-0.2,0v1h-0.4v-3.3h0.4l0,0.4c0.1-0.2,0.2-0.3,0.4-0.3s0.3-0.1,0.4-0.1c0.1,0,0.3,0,0.4,0.1
				s0.2,0.1,0.3,0.2c0.1,0.1,0.1,0.2,0.2,0.4C88.4,98.5,88.4,98.7,88.4,98.9z M88,98.9c0-0.1,0-0.2,0-0.3c0-0.1,0-0.2-0.1-0.3
				s-0.1-0.1-0.2-0.2c-0.1,0-0.1-0.1-0.2-0.1c-0.1,0-0.1,0-0.2,0s-0.1,0-0.2,0.1c-0.1,0-0.1,0.1-0.2,0.2c-0.1,0.1-0.1,0.1-0.2,0.2
				v1.2c0.1,0,0.2,0.1,0.2,0.1s0.2,0,0.2,0c0.2,0,0.4-0.1,0.5-0.2S88,99.2,88,98.9z"/>
			<path class="st13" d="M91,98.8c0,0.1,0,0.1,0,0.1c0,0,0,0.1,0,0.1h-1.7c0,0.2,0.1,0.4,0.2,0.6c0.1,0.1,0.3,0.2,0.6,0.2
				c0.1,0,0.1,0,0.2,0c0.1,0,0.1,0,0.2,0c0.1,0,0.1,0,0.2,0s0.1,0,0.2,0v0.3c-0.1,0-0.2,0.1-0.4,0.1c-0.1,0-0.3,0-0.4,0
				c-0.2,0-0.4,0-0.5-0.1c-0.1-0.1-0.3-0.1-0.4-0.2c-0.1-0.1-0.2-0.2-0.2-0.4c0-0.2-0.1-0.3-0.1-0.5c0-0.2,0-0.3,0.1-0.5
				s0.1-0.3,0.2-0.4c0.1-0.1,0.2-0.2,0.3-0.3c0.1-0.1,0.3-0.1,0.5-0.1c0.2,0,0.3,0,0.4,0.1c0.1,0.1,0.2,0.1,0.3,0.2
				c0.1,0.1,0.2,0.2,0.2,0.3C91,98.5,91,98.6,91,98.8z M90.6,98.7c0-0.1,0-0.2,0-0.3c0-0.1-0.1-0.2-0.1-0.2
				c-0.1-0.1-0.1-0.1-0.2-0.1S90.1,98,90,98c-0.1,0-0.2,0-0.2,0.1c-0.1,0-0.1,0.1-0.2,0.1c-0.1,0.1-0.1,0.1-0.1,0.2
				c0,0.1-0.1,0.2-0.1,0.3H90.6z"/>
			<path class="st13" d="M93.6,100.1h-0.4V99h-1.1v1.1h-0.4v-2.4h0.4v1h1.1v-1h0.4V100.1z"/>
			<path class="st13" d="M96.2,100.1h-0.4V99h-1.1v1.1h-0.4v-2.4h0.4v1h1.1v-1h0.4V100.1z"/>
			<path class="st13" d="M97.4,97.7v1.7l1-1.7h0.4v2.4h-0.4v-1.7l-1,1.7H97v-2.4H97.4z"/>
			<path class="st13" d="M100,97.7v1.7l1-1.7h0.4v2.4H101v-1.7l-1,1.7h-0.4v-2.4H100z M101.2,96.8c0,0.1,0,0.2-0.1,0.2
				s-0.1,0.1-0.1,0.2c-0.1,0.1-0.1,0.1-0.2,0.1c-0.1,0-0.2,0-0.3,0c-0.1,0-0.2,0-0.3,0c-0.1,0-0.2-0.1-0.2-0.1
				c-0.1-0.1-0.1-0.1-0.1-0.2s0-0.2,0-0.2h0.4c0,0,0,0.1,0,0.1c0,0,0,0.1,0.1,0.1c0,0,0.1,0.1,0.1,0.1c0,0,0.1,0,0.2,0
				c0.1,0,0.1,0,0.2,0c0,0,0.1,0,0.1-0.1c0,0,0-0.1,0.1-0.1c0,0,0-0.1,0-0.1H101.2z"/>
			<path class="st13" d="M81.7,103.9h-0.4v-2h-1.1v2h-0.4v-2.4h1.9L81.7,103.9L81.7,103.9z"/>
			<path class="st13" d="M84.4,102.7c0,0.2,0,0.4-0.1,0.6s-0.1,0.3-0.2,0.4c-0.1,0.1-0.2,0.2-0.4,0.2s-0.3,0.1-0.5,0.1
				c-0.1,0-0.1,0-0.2,0s-0.1,0-0.2,0v1h-0.4v-3.3h0.4l0,0.4c0.1-0.2,0.2-0.3,0.4-0.3s0.3-0.1,0.4-0.1c0.1,0,0.3,0,0.4,0.1
				s0.2,0.1,0.3,0.2c0.1,0.1,0.1,0.2,0.2,0.4C84.4,102.3,84.4,102.5,84.4,102.7z M84,102.7c0-0.1,0-0.2,0-0.3c0-0.1,0-0.2-0.1-0.3
				s-0.1-0.1-0.2-0.2c-0.1,0-0.1-0.1-0.2-0.1c-0.1,0-0.1,0-0.2,0s-0.1,0-0.2,0.1c-0.1,0-0.1,0.1-0.2,0.2c-0.1,0.1-0.1,0.1-0.2,0.2
				v1.2c0.1,0,0.2,0.1,0.2,0.1s0.2,0,0.2,0c0.2,0,0.4-0.1,0.5-0.2S84,103,84,102.7z"/>
			<path class="st13" d="M87.1,102.7c0,0.2,0,0.4-0.1,0.5c-0.1,0.2-0.1,0.3-0.2,0.4c-0.1,0.1-0.2,0.2-0.4,0.3
				c-0.1,0.1-0.3,0.1-0.5,0.1c-0.2,0-0.3,0-0.5-0.1c-0.1-0.1-0.2-0.1-0.3-0.2s-0.2-0.2-0.2-0.4c0-0.2-0.1-0.3-0.1-0.5
				c0-0.2,0-0.4,0.1-0.5s0.1-0.3,0.2-0.4s0.2-0.2,0.4-0.3c0.1-0.1,0.3-0.1,0.5-0.1c0.2,0,0.3,0,0.5,0.1c0.1,0.1,0.2,0.1,0.3,0.2
				c0.1,0.1,0.2,0.2,0.2,0.4C87.1,102.3,87.1,102.5,87.1,102.7z M86.7,102.7c0-0.1,0-0.3,0-0.4s-0.1-0.2-0.1-0.3
				c-0.1-0.1-0.1-0.1-0.2-0.2c-0.1,0-0.2-0.1-0.3-0.1c-0.1,0-0.2,0-0.3,0.1c-0.1,0-0.2,0.1-0.2,0.2c-0.1,0.1-0.1,0.2-0.1,0.3
				c0,0.1,0,0.2,0,0.3c0,0.1,0,0.3,0,0.4s0.1,0.2,0.1,0.3c0.1,0.1,0.1,0.1,0.2,0.2c0.1,0,0.2,0.1,0.3,0.1c0.1,0,0.2,0,0.3-0.1
				c0.1,0,0.2-0.1,0.2-0.2s0.1-0.2,0.1-0.3C86.7,102.9,86.7,102.8,86.7,102.7z"/>
			<path class="st13" d="M89.9,103.5l0,1h-0.4v-0.6h-1.7v0.6h-0.4l0-1h0c0.1,0,0.1,0,0.2,0c0.1,0,0.1-0.1,0.1-0.1
				c0-0.1,0.1-0.1,0.1-0.2s0.1-0.2,0.1-0.4c0-0.1,0.1-0.3,0.1-0.5c0-0.2,0-0.5,0.1-0.8h1.5v2H89.9z M89.1,101.9h-0.7
				c0,0.3,0,0.5-0.1,0.7c0,0.2-0.1,0.4-0.1,0.5c0,0.1-0.1,0.2-0.1,0.3c0,0.1-0.1,0.1-0.1,0.2h1.1L89.1,101.9L89.1,101.9z"/>
			<path class="st13" d="M92.4,101.5l-0.8,2.1c-0.1,0.2-0.2,0.4-0.3,0.6c-0.1,0.2-0.2,0.3-0.3,0.4c-0.1,0.1-0.2,0.2-0.3,0.2
				c-0.1,0-0.3,0.1-0.4,0.1c0,0-0.1,0-0.1,0c0,0-0.1,0-0.1,0v-0.4c0,0,0.1,0,0.1,0c0,0,0.1,0,0.1,0c0.1,0,0.1,0,0.2,0
				c0.1,0,0.1-0.1,0.2-0.1s0.1-0.1,0.2-0.2c0.1-0.1,0.1-0.2,0.2-0.3l-0.9-2.4h0.5l0.6,1.6l0.1,0.4l0.1-0.4l0.6-1.6L92.4,101.5
				L92.4,101.5z"/>
			<path class="st13" d="M95.1,103.9h-0.6l-1.1-1.3v1.3H93v-2.4h0.4v1.1l1.1-1.1H95l-1.1,1.1L95.1,103.9z"/>
			<path class="st13" d="M97.7,101.9h-0.9v2h-0.4v-2h-0.9v-0.4h2.2L97.7,101.9L97.7,101.9z"/>
		</g>
		<g>
			<rect x="147.8" y="96.7" class="st12" width="28.9" height="8.4"/>
			<path class="st13" d="M151.4,99.1c0,0.1,0,0.3-0.1,0.4c-0.1,0.1-0.1,0.2-0.2,0.3s-0.2,0.1-0.4,0.2s-0.3,0.1-0.5,0.1h-0.8V97h0.9
				c0.7,0,1,0.3,1,0.8c0,0.2,0,0.3-0.1,0.4c-0.1,0.1-0.2,0.2-0.4,0.3c0.1,0,0.2,0,0.2,0.1s0.1,0.1,0.2,0.1c0.1,0.1,0.1,0.1,0.1,0.2
				C151.4,98.9,151.4,99,151.4,99.1z M150.9,97.8c0-0.1,0-0.1,0-0.2c0-0.1-0.1-0.1-0.1-0.1s-0.1-0.1-0.2-0.1c-0.1,0-0.2,0-0.3,0
				h-0.4v1h0.4c0.1,0,0.2,0,0.3,0c0.1,0,0.1-0.1,0.2-0.1c0.1,0,0.1-0.1,0.1-0.2C150.8,97.9,150.9,97.9,150.9,97.8z M151,99.2
				c0-0.1,0-0.1-0.1-0.2c0-0.1-0.1-0.1-0.1-0.2c-0.1,0-0.1-0.1-0.2-0.1c-0.1,0-0.2,0-0.3,0h-0.4v1.1h0.4c0.2,0,0.4,0,0.5-0.1
				C150.9,99.5,151,99.3,151,99.2z"/>
			<path class="st13" d="M153.9,100.1h-0.4V99h-1.1v1.1H152v-2.4h0.4v1h1.1v-1h0.4V100.1z"/>
			<path class="st13" d="M156.8,97.7l-0.8,2.1c-0.1,0.2-0.2,0.4-0.3,0.6c-0.1,0.2-0.2,0.3-0.3,0.4c-0.1,0.1-0.2,0.2-0.3,0.2
				c-0.1,0-0.3,0.1-0.4,0.1c0,0-0.1,0-0.1,0c0,0-0.1,0-0.1,0v-0.4c0,0,0.1,0,0.1,0c0,0,0.1,0,0.1,0c0.1,0,0.1,0,0.2,0
				c0.1,0,0.1-0.1,0.2-0.1s0.1-0.1,0.2-0.2c0.1-0.1,0.1-0.2,0.2-0.3l-0.9-2.4h0.5l0.6,1.6l0.1,0.4l0.1-0.4l0.6-1.6L156.8,97.7
				L156.8,97.7z"/>
			<path class="st13" d="M159.4,98h-0.9v2h-0.4v-2h-0.9v-0.4h2.2L159.4,98L159.4,98z"/>
			<path class="st13" d="M162,98.8c0,0.2,0,0.4-0.1,0.6c-0.1,0.2-0.1,0.3-0.2,0.4c-0.1,0.1-0.2,0.2-0.4,0.2s-0.3,0.1-0.5,0.1
				c-0.1,0-0.1,0-0.2,0s-0.1,0-0.2,0v1H160v-3.3h0.4l0,0.4c0.1-0.2,0.2-0.3,0.4-0.3s0.3-0.1,0.4-0.1c0.1,0,0.3,0,0.4,0.1
				s0.2,0.1,0.3,0.2c0.1,0.1,0.1,0.2,0.2,0.4C161.9,98.5,162,98.7,162,98.8z M161.5,98.9c0-0.1,0-0.2,0-0.3c0-0.1,0-0.2-0.1-0.3
				s-0.1-0.1-0.1-0.2c-0.1,0-0.1-0.1-0.2-0.1c-0.1,0-0.1,0-0.2,0s-0.1,0-0.2,0.1c-0.1,0-0.1,0.1-0.2,0.2c-0.1,0.1-0.1,0.1-0.2,0.2
				v1.2c0.1,0,0.2,0.1,0.2,0.1s0.2,0,0.2,0c0.2,0,0.4-0.1,0.5-0.2S161.5,99.2,161.5,98.9z"/>
			<path class="st13" d="M164.6,98.8c0,0.1,0,0.1,0,0.1c0,0,0,0.1,0,0.1h-1.7c0,0.2,0.1,0.4,0.2,0.6c0.1,0.1,0.3,0.2,0.6,0.2
				c0.1,0,0.1,0,0.2,0c0.1,0,0.1,0,0.2,0c0.1,0,0.1,0,0.2,0s0.1,0,0.2,0v0.3c-0.1,0-0.2,0.1-0.4,0.1c-0.1,0-0.3,0-0.4,0
				c-0.2,0-0.4,0-0.5-0.1c-0.1-0.1-0.3-0.1-0.4-0.2c-0.1-0.1-0.2-0.2-0.2-0.4c0-0.2-0.1-0.3-0.1-0.5c0-0.2,0-0.3,0.1-0.5
				s0.1-0.3,0.2-0.4c0.1-0.1,0.2-0.2,0.3-0.3c0.1-0.1,0.3-0.1,0.5-0.1c0.2,0,0.3,0,0.4,0.1c0.1,0.1,0.2,0.1,0.3,0.2
				c0.1,0.1,0.2,0.2,0.2,0.3C164.6,98.4,164.6,98.6,164.6,98.8z M164.2,98.7c0-0.1,0-0.2,0-0.3c0-0.1-0.1-0.2-0.1-0.2
				c-0.1-0.1-0.1-0.1-0.2-0.1s-0.2-0.1-0.3-0.1c-0.1,0-0.2,0-0.2,0.1c-0.1,0-0.1,0.1-0.2,0.1c-0.1,0.1-0.1,0.1-0.1,0.2
				c0,0.1-0.1,0.2-0.1,0.3H164.2z"/>
			<path class="st13" d="M167.1,100.1h-0.4V99h-1.1v1.1h-0.4v-2.4h0.4v1h1.1v-1h0.4V100.1z"/>
			<path class="st13" d="M169.8,100.1h-0.4V99h-1.1v1.1h-0.4v-2.4h0.4v1h1.1v-1h0.4V100.1z"/>
			<path class="st13" d="M170.9,97.7v1.7l1-1.7h0.4v2.4H172v-1.7l-1,1.7h-0.4v-2.4H170.9z"/>
			<path class="st13" d="M173.6,97.7v1.7l1-1.7h0.4v2.4h-0.4v-1.7l-1,1.7h-0.4v-2.4H173.6z M174.8,96.8c0,0.1,0,0.2-0.1,0.2
				s-0.1,0.1-0.1,0.2c-0.1,0.1-0.1,0.1-0.2,0.1c-0.1,0-0.2,0-0.3,0c-0.1,0-0.2,0-0.3,0c-0.1,0-0.2-0.1-0.2-0.1
				c-0.1-0.1-0.1-0.1-0.1-0.2s0-0.2,0-0.2h0.4c0,0,0,0.1,0,0.1c0,0,0,0.1,0.1,0.1c0,0,0.1,0.1,0.1,0.1c0,0,0.1,0,0.2,0
				c0.1,0,0.1,0,0.2,0c0,0,0.1,0,0.1-0.1c0,0,0-0.1,0.1-0.1c0,0,0-0.1,0-0.1H174.8z"/>
			<path class="st13" d="M155.3,103.9h-0.4v-2h-1.1v2h-0.4v-2.4h1.9L155.3,103.9L155.3,103.9z"/>
			<path class="st13" d="M158,102.6c0,0.2,0,0.4-0.1,0.6c-0.1,0.2-0.1,0.3-0.2,0.4c-0.1,0.1-0.2,0.2-0.4,0.2s-0.3,0.1-0.5,0.1
				c-0.1,0-0.1,0-0.2,0s-0.1,0-0.2,0v1H156v-3.3h0.4l0,0.4c0.1-0.2,0.2-0.3,0.4-0.3s0.3-0.1,0.4-0.1c0.1,0,0.3,0,0.4,0.1
				s0.2,0.1,0.3,0.2c0.1,0.1,0.1,0.2,0.2,0.4C158,102.3,158,102.5,158,102.6z M157.6,102.7c0-0.1,0-0.2,0-0.3c0-0.1,0-0.2-0.1-0.3
				s-0.1-0.1-0.1-0.2c-0.1,0-0.1-0.1-0.2-0.1c-0.1,0-0.1,0-0.2,0s-0.1,0-0.2,0.1c-0.1,0-0.1,0.1-0.2,0.2c-0.1,0.1-0.1,0.1-0.2,0.2
				v1.2c0.1,0,0.2,0.1,0.2,0.1s0.2,0,0.2,0c0.2,0,0.4-0.1,0.5-0.2S157.6,103,157.6,102.7z"/>
			<path class="st13" d="M160.7,102.7c0,0.2,0,0.4-0.1,0.5c-0.1,0.2-0.1,0.3-0.2,0.4c-0.1,0.1-0.2,0.2-0.4,0.3
				c-0.1,0.1-0.3,0.1-0.5,0.1c-0.2,0-0.3,0-0.5-0.1c-0.1-0.1-0.2-0.1-0.3-0.2s-0.2-0.2-0.2-0.4c0-0.2-0.1-0.3-0.1-0.5
				c0-0.2,0-0.4,0.1-0.5s0.1-0.3,0.2-0.4s0.2-0.2,0.4-0.3c0.1-0.1,0.3-0.1,0.5-0.1c0.2,0,0.3,0,0.5,0.1c0.1,0.1,0.2,0.1,0.3,0.2
				c0.1,0.1,0.2,0.2,0.2,0.4C160.7,102.3,160.7,102.5,160.7,102.7z M160.3,102.7c0-0.1,0-0.3,0-0.4s-0.1-0.2-0.1-0.3
				c-0.1-0.1-0.1-0.1-0.2-0.2c-0.1,0-0.2-0.1-0.3-0.1c-0.1,0-0.2,0-0.3,0.1c-0.1,0-0.2,0.1-0.2,0.2c-0.1,0.1-0.1,0.2-0.1,0.3
				c0,0.1,0,0.2,0,0.3c0,0.1,0,0.3,0,0.4s0.1,0.2,0.1,0.3c0.1,0.1,0.1,0.1,0.2,0.2c0.1,0,0.2,0.1,0.3,0.1c0.1,0,0.2,0,0.3-0.1
				c0.1,0,0.2-0.1,0.2-0.2s0.1-0.2,0.1-0.3C160.3,102.9,160.3,102.8,160.3,102.7z"/>
			<path class="st13" d="M163.5,103.5l0,1h-0.4v-0.6h-1.7v0.6H161l0-1h0c0.1,0,0.1,0,0.2,0c0.1,0,0.1-0.1,0.1-0.1
				c0-0.1,0.1-0.1,0.1-0.2s0.1-0.2,0.1-0.4c0-0.1,0.1-0.3,0.1-0.5c0-0.2,0-0.5,0.1-0.8h1.5v2C163.1,103.5,163.5,103.5,163.5,103.5z
				 M162.7,101.9h-0.7c0,0.3,0,0.5-0.1,0.7c0,0.2-0.1,0.4-0.1,0.5c0,0.1-0.1,0.2-0.1,0.3c0,0.1-0.1,0.1-0.1,0.2h1.1L162.7,101.9
				L162.7,101.9z"/>
			<path class="st13" d="M166,101.5l-0.8,2.1c-0.1,0.2-0.2,0.4-0.3,0.6c-0.1,0.2-0.2,0.3-0.3,0.4c-0.1,0.1-0.2,0.2-0.3,0.2
				c-0.1,0-0.3,0.1-0.4,0.1c0,0-0.1,0-0.1,0c0,0-0.1,0-0.1,0v-0.4c0,0,0.1,0,0.1,0c0,0,0.1,0,0.1,0c0.1,0,0.1,0,0.2,0
				c0.1,0,0.1-0.1,0.2-0.1s0.1-0.1,0.2-0.2c0.1-0.1,0.1-0.2,0.2-0.3l-0.9-2.4h0.5l0.6,1.6l0.1,0.4l0.1-0.4l0.6-1.6L166,101.5
				L166,101.5z"/>
			<path class="st13" d="M168.7,103.9h-0.6l-1.1-1.3v1.3h-0.4v-2.4h0.4v1.1l1.1-1.1h0.5l-1.1,1.1L168.7,103.9z"/>
			<path class="st13" d="M171.2,101.9h-0.9v2h-0.4v-2H169v-0.4h2.2L171.2,101.9L171.2,101.9z"/>
		</g>
		<g>
			<rect x="105.7" y="55.4" class="st12" width="21" height="4.7"/>
			<path class="st13" d="M108,58.8h-0.4V56h-1.3v2.7h-0.4v-3.1h2.1V58.8z"/>
			<path class="st13" d="M110.7,57.5c0,0.2,0,0.4-0.1,0.6s-0.1,0.3-0.2,0.4c-0.1,0.1-0.2,0.2-0.4,0.2s-0.3,0.1-0.5,0.1
				c-0.1,0-0.1,0-0.2,0s-0.1,0-0.2,0v1h-0.4v-3.3h0.4l0,0.4c0.1-0.2,0.2-0.3,0.4-0.3s0.3-0.1,0.4-0.1c0.1,0,0.3,0,0.4,0.1
				s0.2,0.1,0.3,0.2c0.1,0.1,0.1,0.2,0.2,0.4C110.7,57.2,110.7,57.4,110.7,57.5z M110.3,57.6c0-0.1,0-0.2,0-0.3c0-0.1,0-0.2-0.1-0.3
				s-0.1-0.1-0.2-0.2c-0.1,0-0.1-0.1-0.2-0.1c-0.1,0-0.1,0-0.2,0c-0.1,0-0.1,0-0.2,0.1c-0.1,0-0.1,0.1-0.2,0.2
				c-0.1,0.1-0.1,0.1-0.2,0.2v1.2c0.1,0,0.2,0.1,0.2,0.1s0.2,0,0.2,0c0.2,0,0.4-0.1,0.5-0.2S110.3,57.9,110.3,57.6z"/>
			<path class="st13" d="M113.4,57.6c0,0.2,0,0.4-0.1,0.5s-0.1,0.3-0.2,0.4c-0.1,0.1-0.2,0.2-0.4,0.3c-0.1,0.1-0.3,0.1-0.5,0.1
				c-0.2,0-0.3,0-0.5-0.1c-0.1-0.1-0.2-0.1-0.3-0.2s-0.2-0.2-0.2-0.4c0-0.2-0.1-0.3-0.1-0.5c0-0.2,0-0.4,0.1-0.5s0.1-0.3,0.2-0.4
				s0.2-0.2,0.4-0.3c0.1-0.1,0.3-0.1,0.5-0.1c0.2,0,0.3,0,0.5,0.1c0.1,0.1,0.2,0.1,0.3,0.2c0.1,0.1,0.2,0.2,0.2,0.4
				C113.3,57.2,113.4,57.4,113.4,57.6z M112.9,57.6c0-0.1,0-0.3,0-0.4s-0.1-0.2-0.1-0.3c-0.1-0.1-0.1-0.1-0.2-0.2
				c-0.1,0-0.2-0.1-0.3-0.1c-0.1,0-0.2,0-0.3,0.1c-0.1,0-0.2,0.1-0.2,0.2c-0.1,0.1-0.1,0.2-0.1,0.3c0,0.1,0,0.2,0,0.3
				c0,0.1,0,0.3,0,0.4s0.1,0.2,0.1,0.3c0.1,0.1,0.1,0.1,0.2,0.2c0.1,0,0.2,0.1,0.3,0.1c0.1,0,0.2,0,0.3-0.1c0.1,0,0.2-0.1,0.2-0.2
				s0.1-0.2,0.1-0.3C112.9,57.8,112.9,57.7,112.9,57.6z"/>
			<path class="st13" d="M116.1,58.4l0,1h-0.4v-0.6h-1.8v-2.4h0.4v2h1.1v-2h0.4v2H116.1z"/>
			<path class="st13" d="M118.6,57.5c0,0.1,0,0.1,0,0.1c0,0,0,0.1,0,0.1h-1.7c0,0.2,0.1,0.4,0.2,0.6c0.1,0.1,0.3,0.2,0.6,0.2
				c0.1,0,0.1,0,0.2,0c0.1,0,0.1,0,0.2,0c0.1,0,0.1,0,0.2,0s0.1,0,0.2,0v0.3c-0.1,0-0.2,0.1-0.4,0.1c-0.1,0-0.3,0-0.4,0
				c-0.2,0-0.4,0-0.5-0.1c-0.1-0.1-0.3-0.1-0.4-0.2c-0.1-0.1-0.2-0.2-0.2-0.4c0-0.2-0.1-0.3-0.1-0.5c0-0.2,0-0.3,0.1-0.5
				s0.1-0.3,0.2-0.4c0.1-0.1,0.2-0.2,0.3-0.3c0.1-0.1,0.3-0.1,0.5-0.1c0.2,0,0.3,0,0.4,0.1c0.1,0.1,0.2,0.1,0.3,0.2
				c0.1,0.1,0.2,0.2,0.2,0.3C118.6,57.1,118.6,57.3,118.6,57.5z M118.2,57.4c0-0.1,0-0.2,0-0.3c0-0.1-0.1-0.2-0.1-0.2
				c-0.1-0.1-0.1-0.1-0.2-0.1s-0.2-0.1-0.3-0.1c-0.1,0-0.2,0-0.2,0.1c-0.1,0-0.1,0.1-0.2,0.1c-0.1,0.1-0.1,0.1-0.1,0.2
				c0,0.1-0.1,0.2-0.1,0.3C116.9,57.4,118.2,57.4,118.2,57.4z"/>
			<path class="st13" d="M121.1,58.7c-0.1,0-0.2,0.1-0.3,0.1c-0.1,0-0.2,0-0.3,0c-0.4,0-0.7-0.1-0.9-0.3c-0.2-0.2-0.3-0.5-0.3-0.9
				c0-0.2,0-0.4,0.1-0.5s0.1-0.3,0.2-0.4c0.1-0.1,0.2-0.2,0.4-0.3c0.1-0.1,0.3-0.1,0.5-0.1c0.1,0,0.2,0,0.3,0s0.2,0,0.3,0.1v0.4
				c-0.1-0.1-0.2-0.1-0.3-0.1s-0.2,0-0.3,0c-0.1,0-0.2,0-0.3,0.1c-0.1,0-0.2,0.1-0.2,0.2c-0.1,0.1-0.1,0.2-0.2,0.3
				c0,0.1-0.1,0.2-0.1,0.4c0,0.3,0.1,0.5,0.2,0.6c0.1,0.1,0.3,0.2,0.6,0.2c0.1,0,0.2,0,0.3,0c0.1,0,0.2-0.1,0.3-0.1L121.1,58.7
				L121.1,58.7z"/>
			<path class="st13" d="M123.7,58.7c-0.1,0-0.2,0.1-0.3,0.1c-0.1,0-0.2,0-0.3,0c-0.4,0-0.7-0.1-0.9-0.3c-0.2-0.2-0.3-0.5-0.3-0.9
				c0-0.2,0-0.4,0.1-0.5s0.1-0.3,0.2-0.4c0.1-0.1,0.2-0.2,0.4-0.3c0.1-0.1,0.3-0.1,0.5-0.1c0.1,0,0.2,0,0.3,0s0.2,0,0.3,0.1v0.4
				c-0.1-0.1-0.2-0.1-0.3-0.1s-0.2,0-0.3,0c-0.1,0-0.2,0-0.3,0.1c-0.1,0-0.2,0.1-0.2,0.2c-0.1,0.1-0.1,0.2-0.2,0.3
				c0,0.1-0.1,0.2-0.1,0.4c0,0.3,0.1,0.5,0.2,0.6c0.1,0.1,0.3,0.2,0.6,0.2c0.1,0,0.2,0,0.3,0c0.1,0,0.2-0.1,0.3-0.1L123.7,58.7
				L123.7,58.7z"/>
		</g>
		<polygon class="st3" points="92.1,81.6 61,81.6 66.3,76 61,70.4 92.1,70.4 97.3,76 		"/>
		<g>
			<rect x="69.6" y="73.7" class="st12" width="21" height="4.7"/>
			<path class="st13" d="M72,77h-0.4v-2.7h-1.3V77h-0.4v-3.1H72V77z"/>
			<path class="st13" d="M74.6,75.8c0,0.2,0,0.4-0.1,0.6s-0.1,0.3-0.2,0.4c-0.1,0.1-0.2,0.2-0.4,0.2S73.6,77,73.5,77
				c-0.1,0-0.1,0-0.2,0s-0.1,0-0.2,0v1h-0.4v-3.3H73l0,0.4c0.1-0.2,0.2-0.3,0.4-0.3s0.3-0.1,0.4-0.1c0.1,0,0.3,0,0.4,0.1
				s0.2,0.1,0.3,0.2c0.1,0.1,0.1,0.2,0.2,0.4C74.6,75.4,74.6,75.6,74.6,75.8z M74.2,75.8c0-0.1,0-0.2,0-0.3c0-0.1,0-0.2-0.1-0.3
				S74,75.1,74,75c-0.1,0-0.1-0.1-0.2-0.1c-0.1,0-0.1,0-0.2,0s-0.1,0-0.2,0.1c-0.1,0-0.1,0.1-0.2,0.2c-0.1,0.1-0.1,0.1-0.2,0.2v1.2
				c0.1,0,0.2,0.1,0.2,0.1s0.2,0,0.2,0c0.2,0,0.4-0.1,0.5-0.2S74.2,76.1,74.2,75.8z"/>
			<path class="st13" d="M77.3,75.8c0,0.2,0,0.4-0.1,0.5c-0.1,0.2-0.1,0.3-0.2,0.4c-0.1,0.1-0.2,0.2-0.4,0.3
				c-0.1,0.1-0.3,0.1-0.5,0.1c-0.2,0-0.3,0-0.5-0.1c-0.1-0.1-0.2-0.1-0.3-0.2s-0.2-0.2-0.2-0.4c0-0.2-0.1-0.3-0.1-0.5
				c0-0.2,0-0.4,0.1-0.5s0.1-0.3,0.2-0.4s0.2-0.2,0.4-0.3c0.1-0.1,0.3-0.1,0.5-0.1c0.2,0,0.3,0,0.5,0.1c0.1,0.1,0.2,0.1,0.3,0.2
				c0.1,0.1,0.2,0.2,0.2,0.4C77.3,75.4,77.3,75.6,77.3,75.8z M76.9,75.8c0-0.1,0-0.3,0-0.4s-0.1-0.2-0.1-0.3
				c-0.1-0.1-0.1-0.1-0.2-0.2c-0.1,0-0.2-0.1-0.3-0.1c-0.1,0-0.2,0-0.3,0.1c-0.1,0-0.2,0.1-0.2,0.2c-0.1,0.1-0.1,0.2-0.1,0.3
				c0,0.1,0,0.2,0,0.3c0,0.1,0,0.3,0,0.4s0.1,0.2,0.1,0.3c0.1,0.1,0.1,0.1,0.2,0.2c0.1,0,0.2,0.1,0.3,0.1c0.1,0,0.2,0,0.3-0.1
				c0.1,0,0.2-0.1,0.2-0.2s0.1-0.2,0.1-0.3C76.9,76,76.9,75.9,76.9,75.8z"/>
			<path class="st13" d="M80.1,76.7l0,1h-0.4V77h-1.8v-2.4h0.4v2h1.1v-2h0.4v2H80.1z"/>
			<path class="st13" d="M82.5,75.7c0,0.1,0,0.1,0,0.1c0,0,0,0.1,0,0.1h-1.7c0,0.2,0.1,0.4,0.2,0.6c0.1,0.1,0.3,0.2,0.6,0.2
				c0.1,0,0.1,0,0.2,0c0.1,0,0.1,0,0.2,0c0.1,0,0.1,0,0.2,0s0.1,0,0.2,0v0.3C82.3,77,82.2,77,82,77c-0.1,0-0.3,0-0.4,0
				c-0.2,0-0.4,0-0.5-0.1c-0.1-0.1-0.3-0.1-0.4-0.2c-0.1-0.1-0.2-0.2-0.2-0.4c0-0.2-0.1-0.3-0.1-0.5c0-0.2,0-0.3,0.1-0.5
				s0.1-0.3,0.2-0.4c0.1-0.1,0.2-0.2,0.3-0.3c0.1-0.1,0.3-0.1,0.5-0.1c0.2,0,0.3,0,0.4,0.1c0.1,0.1,0.2,0.1,0.3,0.2
				c0.1,0.1,0.2,0.2,0.2,0.3C82.5,75.4,82.5,75.5,82.5,75.7z M82.1,75.6c0-0.1,0-0.2,0-0.3c0-0.1-0.1-0.2-0.1-0.2
				c-0.1-0.1-0.1-0.1-0.2-0.1s-0.2-0.1-0.3-0.1c-0.1,0-0.2,0-0.2,0.1c-0.1,0-0.1,0.1-0.2,0.1c-0.1,0.1-0.1,0.1-0.1,0.2
				c0,0.1-0.1,0.2-0.1,0.3H82.1z"/>
			<path class="st13" d="M85,76.9c-0.1,0-0.2,0.1-0.3,0.1c-0.1,0-0.2,0-0.3,0c-0.4,0-0.7-0.1-0.9-0.3c-0.2-0.2-0.3-0.5-0.3-0.9
				c0-0.2,0-0.4,0.1-0.5s0.1-0.3,0.2-0.4c0.1-0.1,0.2-0.2,0.4-0.3c0.1-0.1,0.3-0.1,0.5-0.1c0.1,0,0.2,0,0.3,0s0.2,0,0.3,0.1v0.4
				C84.9,75,84.8,75,84.7,75s-0.2,0-0.3,0c-0.1,0-0.2,0-0.3,0.1c-0.1,0-0.2,0.1-0.2,0.2c-0.1,0.1-0.1,0.2-0.2,0.3
				c0,0.1-0.1,0.2-0.1,0.4c0,0.3,0.1,0.5,0.2,0.6c0.1,0.1,0.3,0.2,0.6,0.2c0.1,0,0.2,0,0.3,0c0.1,0,0.2-0.1,0.3-0.1L85,76.9L85,76.9
				z"/>
			<path class="st13" d="M87.6,76.9c-0.1,0-0.2,0.1-0.3,0.1c-0.1,0-0.2,0-0.3,0c-0.4,0-0.7-0.1-0.9-0.3c-0.2-0.2-0.3-0.5-0.3-0.9
				c0-0.2,0-0.4,0.1-0.5s0.1-0.3,0.2-0.4c0.1-0.1,0.2-0.2,0.4-0.3c0.1-0.1,0.3-0.1,0.5-0.1c0.1,0,0.2,0,0.3,0s0.2,0,0.3,0.1v0.4
				C87.5,75,87.4,75,87.3,75s-0.2,0-0.3,0c-0.1,0-0.2,0-0.3,0.1c-0.1,0-0.2,0.1-0.2,0.2c-0.1,0.1-0.1,0.2-0.2,0.3
				c0,0.1-0.1,0.2-0.1,0.4c0,0.3,0.1,0.5,0.2,0.6c0.1,0.1,0.3,0.2,0.6,0.2c0.1,0,0.2,0,0.3,0c0.1,0,0.2-0.1,0.3-0.1L87.6,76.9
				L87.6,76.9z"/>
		</g>
		<polygon class="st3" points="162.6,81.6 131.5,81.6 136.7,76 131.5,70.4 162.6,70.4 167.8,76 		"/>
		<g>
			<rect x="140.9" y="73.7" class="st12" width="19.1" height="6.2"/>
			<path class="st13" d="M143.3,77h-0.4v-2.7h-1.3V77h-0.4v-3.1h2.1L143.3,77L143.3,77z"/>
			<path class="st13" d="M145.9,75.8c0,0.2,0,0.4-0.1,0.6c-0.1,0.2-0.1,0.3-0.2,0.4c-0.1,0.1-0.2,0.2-0.4,0.2S145,77,144.8,77
				c-0.1,0-0.1,0-0.2,0s-0.1,0-0.2,0v1h-0.4v-3.3h0.4l0,0.4c0.1-0.2,0.2-0.3,0.4-0.3s0.3-0.1,0.4-0.1c0.1,0,0.3,0,0.4,0.1
				s0.2,0.1,0.3,0.2c0.1,0.1,0.1,0.2,0.2,0.4C145.9,75.4,145.9,75.6,145.9,75.8z M145.5,75.8c0-0.1,0-0.2,0-0.3c0-0.1,0-0.2-0.1-0.3
				s-0.1-0.1-0.1-0.2c-0.1,0-0.1-0.1-0.2-0.1c-0.1,0-0.1,0-0.2,0s-0.1,0-0.2,0.1c-0.1,0-0.1,0.1-0.2,0.2c-0.1,0.1-0.1,0.1-0.2,0.2
				v1.2c0.1,0,0.2,0.1,0.2,0.1s0.2,0,0.2,0c0.2,0,0.4-0.1,0.5-0.2S145.5,76.1,145.5,75.8z"/>
			<path class="st13" d="M148.6,75.8c0,0.2,0,0.4-0.1,0.5c-0.1,0.2-0.1,0.3-0.2,0.4c-0.1,0.1-0.2,0.2-0.4,0.3
				c-0.1,0.1-0.3,0.1-0.5,0.1c-0.2,0-0.3,0-0.5-0.1c-0.1-0.1-0.2-0.1-0.3-0.2s-0.2-0.2-0.2-0.4c0-0.2-0.1-0.3-0.1-0.5
				c0-0.2,0-0.4,0.1-0.5s0.1-0.3,0.2-0.4s0.2-0.2,0.4-0.3c0.1-0.1,0.3-0.1,0.5-0.1c0.2,0,0.3,0,0.5,0.1c0.1,0.1,0.2,0.1,0.3,0.2
				c0.1,0.1,0.2,0.2,0.2,0.4C148.6,75.4,148.6,75.6,148.6,75.8z M148.2,75.8c0-0.1,0-0.3,0-0.4s-0.1-0.2-0.1-0.3
				c-0.1-0.1-0.1-0.1-0.2-0.2c-0.1,0-0.2-0.1-0.3-0.1c-0.1,0-0.2,0-0.3,0.1c-0.1,0-0.2,0.1-0.2,0.2c-0.1,0.1-0.1,0.2-0.1,0.3
				c0,0.1,0,0.2,0,0.3c0,0.1,0,0.3,0,0.4s0.1,0.2,0.1,0.3c0.1,0.1,0.1,0.1,0.2,0.2c0.1,0,0.2,0.1,0.3,0.1c0.1,0,0.2,0,0.3-0.1
				c0.1,0,0.2-0.1,0.2-0.2s0.1-0.2,0.1-0.3C148.2,76,148.2,75.9,148.2,75.8z"/>
			<path class="st13" d="M151.4,76.7l0,1H151V77h-1.8v-2.4h0.4v2h1.1v-2h0.4v2H151.4z"/>
			<path class="st13" d="M153.8,75.7c0,0.1,0,0.1,0,0.1c0,0,0,0.1,0,0.1h-1.7c0,0.2,0.1,0.4,0.2,0.6c0.1,0.1,0.3,0.2,0.6,0.2
				c0.1,0,0.1,0,0.2,0c0.1,0,0.1,0,0.2,0c0.1,0,0.1,0,0.2,0s0.1,0,0.2,0v0.3c-0.1,0-0.2,0.1-0.4,0.1c-0.1,0-0.3,0-0.4,0
				c-0.2,0-0.4,0-0.5-0.1c-0.1-0.1-0.3-0.1-0.4-0.2c-0.1-0.1-0.2-0.2-0.2-0.4c0-0.2-0.1-0.3-0.1-0.5c0-0.2,0-0.3,0.1-0.5
				s0.1-0.3,0.2-0.4c0.1-0.1,0.2-0.2,0.3-0.3c0.1-0.1,0.3-0.1,0.5-0.1c0.2,0,0.3,0,0.4,0.1c0.1,0.1,0.2,0.1,0.3,0.2
				c0.1,0.1,0.2,0.2,0.2,0.3C153.8,75.4,153.8,75.5,153.8,75.7z M153.4,75.6c0-0.1,0-0.2,0-0.3c0-0.1-0.1-0.2-0.1-0.2
				c-0.1-0.1-0.1-0.1-0.2-0.1s-0.2-0.1-0.3-0.1c-0.1,0-0.2,0-0.2,0.1c-0.1,0-0.1,0.1-0.2,0.1c-0.1,0.1-0.1,0.1-0.1,0.2
				c0,0.1-0.1,0.2-0.1,0.3H153.4z"/>
			<path class="st13" d="M156.3,76.9c-0.1,0-0.2,0.1-0.3,0.1c-0.1,0-0.2,0-0.3,0c-0.4,0-0.7-0.1-0.9-0.3c-0.2-0.2-0.3-0.5-0.3-0.9
				c0-0.2,0-0.4,0.1-0.5s0.1-0.3,0.2-0.4c0.1-0.1,0.2-0.2,0.4-0.3c0.1-0.1,0.3-0.1,0.5-0.1c0.1,0,0.2,0,0.3,0s0.2,0,0.3,0.1v0.4
				c-0.1-0.1-0.2-0.1-0.3-0.1s-0.2,0-0.3,0c-0.1,0-0.2,0-0.3,0.1c-0.1,0-0.2,0.1-0.2,0.2c-0.1,0.1-0.1,0.2-0.2,0.3
				c0,0.1-0.1,0.2-0.1,0.4c0,0.3,0.1,0.5,0.2,0.6c0.1,0.1,0.3,0.2,0.6,0.2c0.1,0,0.2,0,0.3,0c0.1,0,0.2-0.1,0.3-0.1L156.3,76.9
				L156.3,76.9z"/>
			<path class="st13" d="M159,76.9c-0.1,0-0.2,0.1-0.3,0.1c-0.1,0-0.2,0-0.3,0c-0.4,0-0.7-0.1-0.9-0.3c-0.2-0.2-0.3-0.5-0.3-0.9
				c0-0.2,0-0.4,0.1-0.5s0.1-0.3,0.2-0.4c0.1-0.1,0.2-0.2,0.4-0.3c0.1-0.1,0.3-0.1,0.5-0.1c0.1,0,0.2,0,0.3,0s0.2,0,0.3,0.1v0.4
				c-0.1-0.1-0.2-0.1-0.3-0.1s-0.2,0-0.3,0c-0.1,0-0.2,0-0.3,0.1c-0.1,0-0.2,0.1-0.2,0.2c-0.1,0.1-0.1,0.2-0.2,0.3
				c0,0.1-0.1,0.2-0.1,0.4c0,0.3,0.1,0.5,0.2,0.6c0.1,0.1,0.3,0.2,0.6,0.2c0.1,0,0.2,0,0.3,0c0.1,0,0.2-0.1,0.3-0.1L159,76.9
				L159,76.9z"/>
		</g>
		<line class="st6" x1="190.2" y1="41.8" x2="204.6" y2="75.9"/>
		<g>
			<rect x="103.7" y="73.5" class="st12" width="24.9" height="4.2"/>
			<path class="st13" d="M109.2,76.9h-0.4v-2.7h-1.3v2.7h-0.4v-3.1h2.1V76.9z"/>
			<path class="st13" d="M111.9,75.6c0,0.2,0,0.4-0.1,0.6s-0.1,0.3-0.2,0.4c-0.1,0.1-0.2,0.2-0.4,0.2s-0.3,0.1-0.5,0.1
				c-0.1,0-0.1,0-0.2,0s-0.1,0-0.2,0v1h-0.4v-3.3h0.4l0,0.4c0.1-0.2,0.2-0.3,0.4-0.3s0.3-0.1,0.4-0.1c0.1,0,0.3,0,0.4,0.1
				s0.2,0.1,0.3,0.2c0.1,0.1,0.1,0.2,0.2,0.4C111.9,75.3,111.9,75.4,111.9,75.6z M111.5,75.6c0-0.1,0-0.2,0-0.3c0-0.1,0-0.2-0.1-0.3
				s-0.1-0.1-0.2-0.2c-0.1,0-0.1-0.1-0.2-0.1c-0.1,0-0.1,0-0.2,0s-0.1,0-0.2,0.1c-0.1,0-0.1,0.1-0.2,0.2c-0.1,0.1-0.1,0.1-0.2,0.2
				v1.2c0.1,0,0.2,0.1,0.2,0.1s0.2,0,0.2,0c0.2,0,0.4-0.1,0.5-0.2S111.5,75.9,111.5,75.6z"/>
			<path class="st13" d="M114.6,75.6c0,0.2,0,0.4-0.1,0.5c-0.1,0.2-0.1,0.3-0.2,0.4c-0.1,0.1-0.2,0.2-0.4,0.3
				c-0.1,0.1-0.3,0.1-0.5,0.1c-0.2,0-0.3,0-0.5-0.1c-0.1-0.1-0.2-0.1-0.3-0.2s-0.2-0.2-0.2-0.4c0-0.2-0.1-0.3-0.1-0.5
				c0-0.2,0-0.4,0.1-0.5s0.1-0.3,0.2-0.4s0.2-0.2,0.4-0.3c0.1-0.1,0.3-0.1,0.5-0.1c0.2,0,0.3,0,0.5,0.1c0.1,0.1,0.2,0.1,0.3,0.2
				c0.1,0.1,0.2,0.2,0.2,0.4C114.6,75.3,114.6,75.5,114.6,75.6z M114.2,75.7c0-0.1,0-0.3,0-0.4S114,75.1,114,75
				c-0.1-0.1-0.1-0.1-0.2-0.2c-0.1,0-0.2-0.1-0.3-0.1c-0.1,0-0.2,0-0.3,0.1c-0.1,0-0.2,0.1-0.2,0.2c-0.1,0.1-0.1,0.2-0.1,0.3
				c0,0.1,0,0.2,0,0.3c0,0.1,0,0.3,0,0.4s0.1,0.2,0.1,0.3c0.1,0.1,0.1,0.1,0.2,0.2c0.1,0,0.2,0.1,0.3,0.1c0.1,0,0.2,0,0.3-0.1
				c0.1,0,0.2-0.1,0.2-0.2s0.1-0.2,0.1-0.3C114.2,75.9,114.2,75.8,114.2,75.7z"/>
			<path class="st13" d="M117.4,76.5l0,1H117v-0.6h-1.7v0.6h-0.4l0-1h0c0.1,0,0.1,0,0.2,0c0.1,0,0.1-0.1,0.1-0.1
				c0-0.1,0.1-0.1,0.1-0.2s0.1-0.2,0.1-0.4c0-0.1,0.1-0.3,0.1-0.5c0-0.2,0-0.5,0.1-0.8h1.5v2H117.4z M116.6,74.8H116
				c0,0.3,0,0.5-0.1,0.7c0,0.2-0.1,0.4-0.1,0.5c0,0.1-0.1,0.2-0.1,0.3c0,0.1-0.1,0.1-0.1,0.2h1.1L116.6,74.8L116.6,74.8z"/>
			<path class="st13" d="M119.9,74.5l-0.8,2.1c-0.1,0.2-0.2,0.4-0.3,0.6c-0.1,0.2-0.2,0.3-0.3,0.4c-0.1,0.1-0.2,0.2-0.3,0.2
				c-0.1,0-0.3,0.1-0.4,0.1c0,0-0.1,0-0.1,0c0,0-0.1,0-0.1,0v-0.4c0,0,0.1,0,0.1,0c0,0,0.1,0,0.1,0c0.1,0,0.1,0,0.2,0
				c0.1,0,0.1-0.1,0.2-0.1s0.1-0.1,0.2-0.2c0.1-0.1,0.1-0.2,0.2-0.3l-0.9-2.4h0.5l0.6,1.6l0.1,0.4l0.1-0.4l0.6-1.6L119.9,74.5
				L119.9,74.5z"/>
			<path class="st13" d="M122.6,76.9H122l-1.1-1.3v1.3h-0.4v-2.4h0.4v1.1l1.1-1.1h0.5l-1.1,1.1L122.6,76.9z"/>
			<path class="st13" d="M125.1,74.8h-0.9v2h-0.4v-2h-0.9v-0.4h2.2L125.1,74.8L125.1,74.8z"/>
		</g>
		<line class="st6" x1="116.2" y1="43.2" x2="61" y2="70.5"/>
		<line class="st25" x1="131.5" y1="81.8" x2="31.2" y2="96.8"/>
		<line class="st26" x1="6.3" y1="88.5" x2="256.4" y2="88.5"/>
		<line class="st26" x1="6.3" y1="49.8" x2="256.4" y2="49.8"/>
		<line class="st26" x1="6.3" y1="111.4" x2="256.4" y2="111.4"/>
		<line class="st27" x1="30.5" y1="82.1" x2="30.5" y2="120.1"/>
		<polygon class="st28" points="10,95.1 28.5,95.1 26.2,106.7 7.8,106.7 		"/>
		<g>
			<rect x="8.1" y="98.3" class="st12" width="21" height="4.7"/>
			<path class="st29" d="M15.7,100.7c0,0.1,0,0.3-0.1,0.4c-0.1,0.1-0.1,0.2-0.2,0.3s-0.2,0.1-0.4,0.2s-0.3,0.1-0.5,0.1h-0.8v-3.1
				h0.9c0.7,0,1,0.3,1,0.8c0,0.2,0,0.3-0.1,0.4c-0.1,0.1-0.2,0.2-0.4,0.3c0.1,0,0.2,0,0.2,0.1s0.1,0.1,0.2,0.1
				c0.1,0.1,0.1,0.1,0.1,0.2C15.7,100.5,15.7,100.6,15.7,100.7z M15.2,99.3c0-0.1,0-0.1,0-0.2c0-0.1-0.1-0.1-0.1-0.1
				s-0.1-0.1-0.2-0.1c-0.1,0-0.2,0-0.3,0h-0.4v1h0.4c0.1,0,0.2,0,0.3,0c0.1,0,0.1-0.1,0.2-0.1c0.1,0,0.1-0.1,0.1-0.2
				C15.2,99.5,15.2,99.4,15.2,99.3z M15.3,100.7c0-0.1,0-0.1-0.1-0.2c0-0.1-0.1-0.1-0.1-0.2c-0.1,0-0.1-0.1-0.2-0.1
				c-0.1,0-0.2,0-0.3,0h-0.4v1.1h0.4c0.2,0,0.4,0,0.5-0.1C15.2,101,15.3,100.9,15.3,100.7z"/>
			<path class="st29" d="M18.5,101.6h-0.5l-0.6-0.9l-0.6,0.9h-0.5l0.9-1.2l-0.9-1.2h0.5l0.6,0.9l0.6-0.9h0.5l-0.9,1.2L18.5,101.6z"
				/>
			<path class="st29" d="M21,100.4c0,0.2,0,0.4-0.1,0.5c-0.1,0.2-0.1,0.3-0.2,0.4c-0.1,0.1-0.2,0.2-0.4,0.3
				c-0.1,0.1-0.3,0.1-0.5,0.1c-0.2,0-0.3,0-0.5-0.1c-0.1-0.1-0.2-0.1-0.3-0.2s-0.2-0.2-0.2-0.4c0-0.2-0.1-0.3-0.1-0.5
				c0-0.2,0-0.4,0.1-0.5s0.1-0.3,0.2-0.4s0.2-0.2,0.4-0.3c0.1-0.1,0.3-0.1,0.5-0.1c0.2,0,0.3,0,0.5,0.1c0.1,0.1,0.2,0.1,0.3,0.2
				c0.1,0.1,0.2,0.2,0.2,0.4C21,100,21,100.2,21,100.4z M20.6,100.4c0-0.1,0-0.3,0-0.4s-0.1-0.2-0.1-0.3c-0.1-0.1-0.1-0.1-0.2-0.2
				c-0.1,0-0.2-0.1-0.3-0.1c-0.1,0-0.2,0-0.3,0.1c-0.1,0-0.2,0.1-0.2,0.2c-0.1,0.1-0.1,0.2-0.1,0.3c0,0.1,0,0.2,0,0.3
				c0,0.1,0,0.3,0,0.4s0.1,0.2,0.1,0.3c0.1,0.1,0.1,0.1,0.2,0.2c0.1,0,0.2,0.1,0.3,0.1c0.1,0,0.2,0,0.3-0.1c0.1,0,0.2-0.1,0.2-0.2
				s0.1-0.2,0.1-0.3C20.6,100.7,20.6,100.5,20.6,100.4z"/>
			<path class="st29" d="M23.8,101.3l0,1h-0.4v-0.6h-1.7v0.6h-0.4l0-1h0c0.1,0,0.1,0,0.2,0c0.1,0,0.1-0.1,0.1-0.1
				c0-0.1,0.1-0.1,0.1-0.2s0.1-0.2,0.1-0.4c0-0.1,0.1-0.3,0.1-0.5c0-0.2,0-0.5,0.1-0.8h1.5v2C23.5,101.3,23.8,101.3,23.8,101.3z
				 M23.1,99.6h-0.7c0,0.3,0,0.5-0.1,0.7c0,0.2-0.1,0.4-0.1,0.5c0,0.1-0.1,0.2-0.1,0.3c0,0.1-0.1,0.1-0.1,0.2h1.1L23.1,99.6
				L23.1,99.6z"/>
		</g>
	</g>
</g>
<g>
	<polyline class="st30" points="237.1,163.7 237.3,149.4 195.7,149.4 195.7,163.7 	"/>
	<path class="st31" d="M226.3,164.9"/>
	<path class="st32" d="M185.9,101.9v0.5h9.9v47h41.6v3.2h9.9v-50.7h0c-0.3-8.6-4.1-16.2-9.9-21.7c-1.5-1.4-3.2-2.7-5-3.8
		c-0.5-0.3-1-0.6-1.6-0.9c0,0,0,0,0,0c-0.4-0.2-0.7-0.4-1.1-0.6c-0.2-0.1-0.4-0.2-0.6-0.3c-0.4-0.2-0.8-0.4-1.2-0.5
		c-3.5-1.4-7.3-2.2-11.3-2.2c-4.4,0-8.6,0.9-12.4,2.6c-0.4,0.2-0.7,0.3-1.1,0.5c-0.2,0.1-0.3,0.2-0.5,0.3c-0.1,0.1-0.2,0.1-0.3,0.2
		c-0.2,0.1-0.4,0.2-0.6,0.3c0,0-0.1,0-0.1,0.1c-0.3,0.1-0.5,0.3-0.7,0.4c-1.8,1.1-3.5,2.4-5,3.8l0,0
		C189.9,85.6,186.2,93.3,185.9,101.9L185.9,101.9L185.9,101.9z"/>
	<g>
		<g>
			<path class="st33" d="M216.3,54.4c3.4,0,6.2,1.7,6.2,3.9v13v3.6l-12.5,0V58.3C210,56.2,212.8,54.4,216.3,54.4z"/>
		</g>
	</g>
	<path class="st29" d="M202,34.6v20.6c0.4,5,3.5,8,6.9,11.1c0.5,0.1,7.3,1.5,7.4,1.5c8.4,0,15.2-7.1,15.2-15.8V34.6H202z"/>
	<g>
		<g>
			<g>
				<path class="st33" d="M234.4,46.6c1.1,0,1.9,2,1.9,4.4c0,2.4-0.9,4.4-1.9,4.4h-3.1l0.1-8.8H234.4z"/>
			</g>
		</g>
	</g>
	<g>
		<g>
			<g>
				<path class="st33" d="M199.4,46.4c-0.9,0-1.6,2-1.6,4.4c0,2.4,0.7,4.4,1.6,4.4h2.5l-0.1-8.8C201.8,46.4,199.4,46.4,199.4,46.4z"
					/>
			</g>
		</g>
	</g>
	<path class="st29" d="M231.6,31.6v2.7c0,0,0,0.1,0,0.1v12.3h-1.6v3.2c0,1.5-1,2.6-2.3,2.6c-1.3,0-2.3-1.2-2.3-2.6v-1.9
		c-0.3-2-1.9-3.5-3.7-3.5v-5.2c-0.3-2-1.8-3.5-3.7-3.5v0h-16c-2.6,0-4.7-2.2-5-5h6.4l1.8-7.6h15.3c3.7,0,6.9,2,8.9,5L231.6,31.6z"/>
	<path class="st29" d="M231.7,30.1c0-6.4-4.6-11.5-10.3-11.5h-9.5c-5.7,0-10.3,5.2-10.3,11.5v5.6h2.4v-2.1c0-3.3,2.4-6,5.4-6h1.4
		c3,0,5.4,2.7,5.4,6v2.1h15.6L231.7,30.1L231.7,30.1z"/>
	<polyline class="st34" points="247.2,163.9 247.2,149.4 237.3,149.4 237.1,163.7 	"/>
	<g>
		<line class="st12" x1="196.6" y1="91.3" x2="179.4" y2="130.5"/>
		<g>
			<path class="st32" d="M190,87.5c-5.7,13.1-11.5,26.1-17.2,39.2c-1.7,3.8-1.2,8.2,2.8,10.5c3.3,1.9,8.8,1.1,10.5-2.8
				c5.7-13.1,11.5-26.1,17.2-39.2c1.7-3.8,1.2-8.2-2.8-10.5C197.2,82.8,191.6,83.6,190,87.5L190,87.5z"/>
		</g>
	</g>
	<rect x="237" y="144.1" class="st35" width="10" height="9"/>
	<rect x="206" y="70.1" class="st35" width="19" height="5"/>
	<g>
		<path class="st36" d="M173.7,86.5l-4.3-16.4l0,0c-5.7,1.6-10,4.1-9.6,5.5l3.6,13.8L173.7,86.5z"/>
		<g>
			<line class="st12" x1="179.4" y1="135" x2="168.8" y2="87.2"/>
			<g>
				<path class="st32" d="M186.9,133c-3.6-15.9-7.1-31.9-10.7-47.8c-2.2-9.7-17-5.6-14.9,4.1c3.6,15.9,7.1,31.9,10.7,47.8
					C174.2,146.8,189,142.7,186.9,133L186.9,133z"/>
			</g>
		</g>
		<polygon class="st35" points="160.9,87.4 176.9,84 175.6,77.5 159.6,80.8 		"/>
		<g>
			<line class="st12" x1="163.4" y1="50.4" x2="165.9" y2="61.3"/>
			<g>
				<path class="st33" d="M161.6,51c0.8,3.6,1.6,7.2,2.4,10.8c0.6,2.5,4.3,1.4,3.8-1c-0.8-3.6-1.6-7.2-2.4-10.8
					C164.8,47.5,161,48.5,161.6,51L161.6,51z"/>
			</g>
		</g>
		<g>
			<line class="st12" x1="161" y1="58.7" x2="164.1" y2="69.4"/>
			<g>
				<path class="st33" d="M159.1,59.3c1,3.6,2.1,7.1,3.1,10.7c0.7,2.4,4.5,1.4,3.8-1c-1-3.6-2.1-7.1-3.1-10.7
					C162.1,55.8,158.4,56.8,159.1,59.3L159.1,59.3z"/>
			</g>
		</g>
		<g>
			<line class="st12" x1="155.7" y1="63.3" x2="158.7" y2="71.9"/>
			<g>
				<path class="st33" d="M153.8,63.8c1,2.9,2,5.7,3,8.6c0.8,2.4,4.6,1.3,3.8-1c-1-2.9-2-5.7-3-8.6C156.8,60.4,153,61.5,153.8,63.8
					L153.8,63.8z"/>
			</g>
		</g>
		<g>
			<line class="st12" x1="158.3" y1="61" x2="161.2" y2="71.7"/>
			<g>
				<path class="st33" d="M156.4,61.5c1,3.6,1.9,7.1,2.9,10.7c0.7,2.4,4.4,1.4,3.8-1c-1-3.6-1.9-7.1-2.9-10.7
					C159.5,58,155.8,59,156.4,61.5L156.4,61.5z"/>
			</g>
		</g>
		<path class="st36" d="M155.4,69.7c2,5.4,4,8.7,8,7.9c4-0.8,8.2-6.1,6.6-10.8c-1.7-5-4-8.7-8-7.9C157.9,59.6,153.7,65,155.4,69.7z"
			/>
		
			<ellipse transform="matrix(0.9806 -0.1962 0.1962 0.9806 -9.6111 34.3463)" class="st37" cx="168.6" cy="65.7" rx="2.6" ry="4.2"/>
	</g>
	<path class="st38" d="M206.4,54.4c1.4-1.2,8.5,0.2,8.5,2.5"/>
	<path class="st29" d="M202.7,33.5c-3.1-1.8-4.3-5.8-2.8-9.1l7.7,4.6L202.7,33.5z"/>
</g>
</svg>
