<?xml version="1.0" encoding="utf-8"?>
<!-- Generator: Adobe Illustrator 19.2.1, SVG Export Plug-In . SVG Version: 6.00 Build 0)  -->
<svg version="1.1" id="Слой_1" xmlns="http://www.w3.org/2000/svg" xmlns:xlink="http://www.w3.org/1999/xlink" x="0px" y="0px"
	 viewBox="0 0 263 145.3" style="enable-background:new 0 0 263 145.3;" xml:space="preserve">
<style type="text/css">
	.st0{fill:#F5F6F6;}
	.st1{fill:#B9CEBF;}
	.st2{fill:none;stroke:#B9CEBF;stroke-miterlimit:10;}
	.st3{fill:#EB2227;}
	.st4{fill:#8F8F8E;stroke:#676767;stroke-width:0.3437;stroke-miterlimit:10;}
	.st5{fill:#8F8F8E;}
	.st6{fill:none;stroke:#676767;stroke-width:0.3437;stroke-miterlimit:10;}
	.st7{fill:none;stroke:#676767;stroke-width:0.3437;stroke-miterlimit:10;stroke-dasharray:1.6104,1.6104;}
	.st8{fill:none;stroke:#676767;stroke-width:0.3437;stroke-miterlimit:10;stroke-dasharray:1.8524,1.8524;}
	.st9{fill:none;stroke:#676767;stroke-width:0.3437;stroke-miterlimit:10;stroke-dasharray:2.0634,2.0634;}
	.st10{fill:none;stroke:#676767;stroke-width:0.3437;stroke-miterlimit:10;stroke-dasharray:1.8676,1.8676;}
	.st11{fill:none;stroke:#676767;stroke-width:0.3437;stroke-miterlimit:10;stroke-dasharray:2.0564,2.0564;}
	.st12{fill:none;}
	.st13{fill:#FFFFFF;}
	.st14{fill:none;stroke:#676767;stroke-width:0.3437;stroke-miterlimit:10;stroke-dasharray:1.8528,1.8528;}
	.st15{fill:none;stroke:#676767;stroke-width:0.3437;stroke-miterlimit:10;stroke-dasharray:2.0629,2.0629;}
	.st16{fill:none;stroke:#676767;stroke-width:0.3437;stroke-miterlimit:10;stroke-dasharray:1.8681,1.8681;}
	.st17{fill:none;stroke:#676767;stroke-width:0.3437;stroke-miterlimit:10;stroke-dasharray:1.6105,1.6105;}
	.st18{fill:none;stroke:#676767;stroke-width:0.3437;stroke-miterlimit:10;stroke-dasharray:1.9536,1.9536;}
	.st19{fill:none;stroke:#676767;stroke-width:0.3437;stroke-miterlimit:10;stroke-dasharray:1.9596,1.9596;}
	.st20{fill:none;stroke:#676767;stroke-width:0.3437;stroke-miterlimit:10;stroke-dasharray:1.9415,1.9415;}
	.st21{fill:none;stroke:#676767;stroke-width:0.3437;stroke-miterlimit:10;stroke-dasharray:1.9796,1.9796;}
	.st22{fill:none;stroke:#676767;stroke-width:0.3437;stroke-miterlimit:10;stroke-dasharray:1.9538,1.9538;}
	.st23{fill:none;stroke:#676767;stroke-width:0.3437;stroke-miterlimit:10;stroke-dasharray:1.9591,1.9591;}
	.st24{fill:none;stroke:#676767;stroke-width:0.3437;stroke-miterlimit:10;stroke-dasharray:1.9803,1.9803;}
	.st25{fill:none;stroke:#676767;stroke-width:0.3445;stroke-miterlimit:10;}
	.st26{fill:none;stroke:#929497;stroke-width:0.5294;stroke-miterlimit:10;stroke-dasharray:3.36;}
	.st27{fill:none;stroke:#EB2227;stroke-miterlimit:10;stroke-dasharray:4;}
	.st28{fill:#E7E7E7;stroke:#8F8F8E;stroke-width:0.3187;stroke-miterlimit:10;}
	.st29{fill:#010101;}
	.st30{fill:#675F53;}
	.st31{fill:#27383A;}
	.st32{fill:#95A8AF;}
	.st33{fill:#F8A586;}
	.st34{fill:#F9AC8D;}
	.st35{fill:#BACACD;}
	.st36{fill:#F8A586;stroke:#F8A586;stroke-miterlimit:10;}
	.st37{fill:#F8A586;stroke:#F8A586;stroke-width:1.3;stroke-miterlimit:10;}
	.st38{fill:none;stroke:#010101;stroke-miterlimit:10;}
</style>
<g id="base">
</g>
<g id="plashki">
</g>
<g id="lines">
</g>
<g id="image">
</g>
<g id="_x31_">
</g>
<g id="символы">
</g>
<g id="Layer_1_4_">
</g>
<g>
	<g>
		<g>
			<rect x="4.9" y="5.3" class="st0" width="255.6" height="130.8"/>
			<rect x="4.9" y="5.3" class="st1" width="255.6" height="14.6"/>
			<rect x="4.9" y="121.7" class="st1" width="255.6" height="14.6"/>
			<line class="st2" x1="5" y1="6.4" x2="5" y2="136.4"/>
			<line class="st2" x1="260" y1="6.4" x2="260" y2="136.4"/>
		</g>
		<g>
			<polygon class="st3" points="139.9,109.9 105.5,109.9 110.7,104.2 105.5,98.7 140,98.7 145.1,104.2 			"/>
			<polygon class="st4" points="250.4,109.9 224.5,109.9 219.4,104.3 224.5,98.7 250.4,98.7 255.5,104.2 			"/>
			<polygon class="st3" points="148.7,46.4 117.7,46.4 117.7,35.2 148.8,35.2 153.9,40.5 			"/>
			<g>
				<polygon class="st5" points="186.5,38.5 160.6,38.5 155.5,33.3 160.7,27.3 186.5,27.3 191.7,32.6 				"/>
				<g>
					<polyline class="st6" points="187.1,37.9 186.5,38.5 185.7,38.5 					"/>
					<line class="st7" x1="184.1" y1="38.5" x2="162.3" y2="38.5"/>
					<polyline class="st6" points="161.5,38.5 160.6,38.5 160,37.9 					"/>
					<line class="st8" x1="158.7" y1="36.6" x2="156.8" y2="34.6"/>
					<polyline class="st6" points="156.1,34 155.5,33.3 156.1,32.7 					"/>
					<line class="st9" x1="157.4" y1="31.1" x2="159.4" y2="28.8"/>
					<polyline class="st6" points="160.1,28 160.7,27.3 161.5,27.3 					"/>
					<line class="st7" x1="163.1" y1="27.3" x2="184.9" y2="27.3"/>
					<polyline class="st6" points="185.7,27.3 186.5,27.3 187.1,28 					"/>
					<line class="st10" x1="188.5" y1="29.3" x2="190.4" y2="31.3"/>
					<polyline class="st6" points="191.1,31.9 191.7,32.6 191.1,33.2 					"/>
					<line class="st11" x1="189.8" y1="34.8" x2="187.8" y2="37.1"/>
				</g>
			</g>
			<polygon class="st3" points="129.6,66.8 98.6,66.8 103.8,61.1 98.6,55.6 129.7,55.6 134.8,61.1 			"/>
			<g>
				<rect x="119.3" y="38.5" class="st12" width="32.9" height="4.7"/>
				<path class="st13" d="M121.9,41.8h-0.4l-0.1-1.9l0-0.7l-0.1,0.4l-0.5,1.2h-0.3l-0.4-1.2l-0.1-0.5l0,0.8l-0.1,1.9h-0.4l0.1-3.1
					h0.5l0.4,1.2l0.1,0.4l0.1-0.4l0.4-1.2h0.5L121.9,41.8z"/>
				<path class="st13" d="M123.9,41.8l0-0.3c-0.1,0.1-0.3,0.2-0.4,0.3c-0.1,0.1-0.3,0.1-0.4,0.1c-0.1,0-0.3,0-0.3-0.1
					c-0.1,0-0.2-0.1-0.2-0.1s-0.1-0.1-0.1-0.2s0-0.2,0-0.3c0-0.2,0.1-0.4,0.3-0.6s0.4-0.2,0.8-0.2h0.5v-0.2c0-0.1,0-0.3-0.1-0.3
					c-0.1-0.1-0.2-0.1-0.4-0.1c-0.1,0-0.3,0-0.4,0c-0.1,0-0.3,0.1-0.4,0.1v-0.4c0.1,0,0.1,0,0.2-0.1s0.1,0,0.2,0c0.1,0,0.1,0,0.2,0
					c0.1,0,0.2,0,0.2,0c0.1,0,0.3,0,0.4,0c0.1,0,0.2,0.1,0.3,0.1c0.1,0.1,0.1,0.1,0.2,0.2c0,0.1,0.1,0.2,0.1,0.3v1.6L123.9,41.8
					L123.9,41.8z M123.8,40.7h-0.5c-0.1,0-0.2,0-0.3,0s-0.1,0-0.2,0.1s-0.1,0.1-0.1,0.1c0,0.1,0,0.1,0,0.2c0,0,0,0.1,0,0.1
					c0,0,0,0.1,0.1,0.1c0,0,0.1,0.1,0.1,0.1c0.1,0,0.1,0,0.2,0c0.1,0,0.2,0,0.3-0.1s0.2-0.1,0.4-0.3L123.8,40.7L123.8,40.7z"/>
				<path class="st13" d="M127.1,41.8h-0.6l-1.1-1.3v1.3H125v-2.4h0.4v1.1l1.1-1.1h0.5l-1.1,1.1L127.1,41.8z"/>
				<path class="st13" d="M129.6,40.6c0,0.2,0,0.4-0.1,0.6c-0.1,0.2-0.1,0.3-0.2,0.4c-0.1,0.1-0.2,0.2-0.4,0.2s-0.3,0.1-0.5,0.1
					c-0.1,0-0.1,0-0.2,0s-0.1,0-0.2,0v1h-0.4v-3.3h0.4l0,0.4c0.1-0.2,0.2-0.3,0.4-0.3s0.3-0.1,0.4-0.1c0.1,0,0.3,0,0.4,0.1
					s0.2,0.1,0.3,0.2c0.1,0.1,0.1,0.2,0.2,0.4C129.6,40.2,129.6,40.4,129.6,40.6z M129.2,40.6c0-0.1,0-0.2,0-0.3
					c0-0.1,0-0.2-0.1-0.3s-0.1-0.1-0.1-0.2c-0.1,0-0.1-0.1-0.2-0.1c-0.1,0-0.1,0-0.2,0c-0.1,0-0.1,0-0.2,0.1c-0.1,0-0.1,0.1-0.2,0.2
					c-0.1,0.1-0.1,0.1-0.2,0.2v1.2c0.1,0,0.2,0.1,0.2,0.1s0.2,0,0.2,0c0.2,0,0.4-0.1,0.5-0.2S129.2,40.9,129.2,40.6z"/>
				<path class="st13" d="M132.3,40.6c0,0.2,0,0.4-0.1,0.5s-0.1,0.3-0.2,0.4c-0.1,0.1-0.2,0.2-0.4,0.3c-0.1,0.1-0.3,0.1-0.5,0.1
					c-0.2,0-0.3,0-0.5-0.1c-0.1-0.1-0.2-0.1-0.3-0.2s-0.2-0.2-0.2-0.4c0-0.2-0.1-0.3-0.1-0.5c0-0.2,0-0.4,0.1-0.5s0.1-0.3,0.2-0.4
					s0.2-0.2,0.4-0.3c0.1-0.1,0.3-0.1,0.5-0.1c0.2,0,0.3,0,0.5,0.1c0.1,0.1,0.2,0.1,0.3,0.2c0.1,0.1,0.2,0.2,0.2,0.4
					C132.3,40.2,132.3,40.4,132.3,40.6z M131.9,40.6c0-0.1,0-0.3,0-0.4s-0.1-0.2-0.1-0.3c-0.1-0.1-0.1-0.1-0.2-0.2
					c-0.1,0-0.2-0.1-0.3-0.1c-0.1,0-0.2,0-0.3,0.1c-0.1,0-0.2,0.1-0.2,0.2c-0.1,0.1-0.1,0.2-0.1,0.3c0,0.1,0,0.2,0,0.3
					c0,0.1,0,0.3,0,0.4s0.1,0.2,0.1,0.3c0.1,0.1,0.1,0.1,0.2,0.2c0.1,0,0.2,0.1,0.3,0.1c0.1,0,0.2,0,0.3-0.1c0.1,0,0.2-0.1,0.2-0.2
					s0.1-0.2,0.1-0.3C131.9,40.9,131.9,40.7,131.9,40.6z"/>
				<path class="st13" d="M134.8,41.8h-0.4v-2h-1.1v2h-0.4v-2.4h1.9L134.8,41.8L134.8,41.8z"/>
				<path class="st13" d="M137.6,40.6c0,0.2,0,0.4-0.1,0.6c-0.1,0.2-0.1,0.3-0.2,0.4c-0.1,0.1-0.2,0.2-0.4,0.2s-0.3,0.1-0.5,0.1
					c-0.1,0-0.1,0-0.2,0s-0.1,0-0.2,0v1h-0.4v-3.3h0.4l0,0.4c0.1-0.2,0.2-0.3,0.4-0.3s0.3-0.1,0.4-0.1c0.1,0,0.3,0,0.4,0.1
					s0.2,0.1,0.3,0.2c0.1,0.1,0.1,0.2,0.2,0.4C137.5,40.2,137.6,40.4,137.6,40.6z M137.1,40.6c0-0.1,0-0.2,0-0.3
					c0-0.1,0-0.2-0.1-0.3s-0.1-0.1-0.1-0.2c-0.1,0-0.1-0.1-0.2-0.1c-0.1,0-0.1,0-0.2,0c-0.1,0-0.1,0-0.2,0.1c-0.1,0-0.1,0.1-0.2,0.2
					c-0.1,0.1-0.1,0.1-0.2,0.2v1.2c0.1,0,0.2,0.1,0.2,0.1s0.2,0,0.2,0c0.2,0,0.4-0.1,0.5-0.2S137.1,40.9,137.1,40.6z"/>
				<path class="st13" d="M140.2,40.6c0,0.2,0,0.4-0.1,0.5s-0.1,0.3-0.2,0.4c-0.1,0.1-0.2,0.2-0.4,0.3c-0.1,0.1-0.3,0.1-0.5,0.1
					c-0.2,0-0.3,0-0.5-0.1c-0.1-0.1-0.2-0.1-0.3-0.2s-0.2-0.2-0.2-0.4c0-0.2-0.1-0.3-0.1-0.5c0-0.2,0-0.4,0.1-0.5s0.1-0.3,0.2-0.4
					s0.2-0.2,0.4-0.3c0.1-0.1,0.3-0.1,0.5-0.1c0.2,0,0.3,0,0.5,0.1c0.1,0.1,0.2,0.1,0.3,0.2c0.1,0.1,0.2,0.2,0.2,0.4
					C140.2,40.2,140.2,40.4,140.2,40.6z M139.8,40.6c0-0.1,0-0.3,0-0.4s-0.1-0.2-0.1-0.3c-0.1-0.1-0.1-0.1-0.2-0.2
					c-0.1,0-0.2-0.1-0.3-0.1c-0.1,0-0.2,0-0.3,0.1c-0.1,0-0.2,0.1-0.2,0.2c-0.1,0.1-0.1,0.2-0.1,0.3c0,0.1,0,0.2,0,0.3
					c0,0.1,0,0.3,0,0.4s0.1,0.2,0.1,0.3c0.1,0.1,0.1,0.1,0.2,0.2c0.1,0,0.2,0.1,0.3,0.1c0.1,0,0.2,0,0.3-0.1c0.1,0,0.2-0.1,0.2-0.2
					s0.1-0.2,0.1-0.3C139.8,40.9,139.8,40.7,139.8,40.6z"/>
				<path class="st13" d="M143,41.5l0,1h-0.4v-0.6h-1.8v-2.4h0.4v2h1.1v-2h0.4v2H143z"/>
				<path class="st13" d="M145.5,40.5c0,0.1,0,0.1,0,0.1c0,0,0,0.1,0,0.1h-1.7c0,0.2,0.1,0.4,0.2,0.6c0.1,0.1,0.3,0.2,0.6,0.2
					c0.1,0,0.1,0,0.2,0c0.1,0,0.1,0,0.2,0c0.1,0,0.1,0,0.2,0s0.1,0,0.2,0v0.3c-0.1,0-0.2,0.1-0.4,0.1c-0.1,0-0.3,0-0.4,0
					c-0.2,0-0.4,0-0.5-0.1c-0.1-0.1-0.3-0.1-0.4-0.2c-0.1-0.1-0.2-0.2-0.2-0.4c0-0.2-0.1-0.3-0.1-0.5c0-0.2,0-0.3,0.1-0.5
					s0.1-0.3,0.2-0.4c0.1-0.1,0.2-0.2,0.3-0.3s0.3-0.1,0.5-0.1c0.2,0,0.3,0,0.4,0.1c0.1,0.1,0.2,0.1,0.3,0.2
					c0.1,0.1,0.2,0.2,0.2,0.3C145.4,40.2,145.5,40.3,145.5,40.5z M145,40.4c0-0.1,0-0.2,0-0.3c0-0.1-0.1-0.2-0.1-0.2
					c-0.1-0.1-0.1-0.1-0.2-0.1s-0.2-0.1-0.3-0.1c-0.1,0-0.2,0-0.2,0.1c-0.1,0-0.1,0.1-0.2,0.1c-0.1,0.1-0.1,0.1-0.1,0.2
					c0,0.1-0.1,0.2-0.1,0.3C143.8,40.4,145,40.4,145,40.4z"/>
				<path class="st13" d="M147.9,41.7c-0.1,0-0.2,0.1-0.3,0.1c-0.1,0-0.2,0-0.3,0c-0.4,0-0.7-0.1-0.9-0.3c-0.2-0.2-0.3-0.5-0.3-0.9
					c0-0.2,0-0.4,0.1-0.5s0.1-0.3,0.2-0.4c0.1-0.1,0.2-0.2,0.4-0.3c0.1-0.1,0.3-0.1,0.5-0.1c0.1,0,0.2,0,0.3,0s0.2,0,0.3,0.1v0.4
					c-0.1-0.1-0.2-0.1-0.3-0.1s-0.2,0-0.3,0c-0.1,0-0.2,0-0.3,0.1c-0.1,0-0.2,0.1-0.2,0.2c-0.1,0.1-0.1,0.2-0.2,0.3
					c0,0.1-0.1,0.2-0.1,0.4c0,0.3,0.1,0.5,0.2,0.6c0.1,0.1,0.3,0.2,0.6,0.2c0.1,0,0.2,0,0.3,0c0.1,0,0.2-0.1,0.3-0.1L147.9,41.7
					L147.9,41.7z"/>
				<path class="st13" d="M150.6,41.7c-0.1,0-0.2,0.1-0.3,0.1c-0.1,0-0.2,0-0.3,0c-0.4,0-0.7-0.1-0.9-0.3c-0.2-0.2-0.3-0.5-0.3-0.9
					c0-0.2,0-0.4,0.1-0.5s0.1-0.3,0.2-0.4c0.1-0.1,0.2-0.2,0.4-0.3c0.1-0.1,0.3-0.1,0.5-0.1c0.1,0,0.2,0,0.3,0s0.2,0,0.3,0.1v0.4
					c-0.1-0.1-0.2-0.1-0.3-0.1s-0.2,0-0.3,0c-0.1,0-0.2,0-0.3,0.1c-0.1,0-0.2,0.1-0.2,0.2c-0.1,0.1-0.1,0.2-0.2,0.3
					c0,0.1-0.1,0.2-0.1,0.4c0,0.3,0.1,0.5,0.2,0.6c0.1,0.1,0.3,0.2,0.6,0.2c0.1,0,0.2,0,0.3,0c0.1,0,0.2-0.1,0.3-0.1L150.6,41.7
					L150.6,41.7z"/>
			</g>
			<polygon class="st3" points="66.1,110.4 35,110.4 35,99.2 66.1,99.2 71.3,104.4 			"/>
			<g>
				<rect x="36.7" y="102.4" class="st12" width="32.9" height="4.7"/>
				<path class="st13" d="M39.3,105.4l0,1h-0.4v-0.7h-1.7v0.7h-0.4l0-1h0c0.1,0,0.1,0,0.2,0c0,0,0.1-0.1,0.1-0.2s0.1-0.2,0.1-0.3
					c0-0.1,0.1-0.3,0.1-0.5c0-0.2,0.1-0.4,0.1-0.7c0-0.3,0-0.6,0.1-1H39v2.7H39.3z M38.5,103h-0.7c0,0.3,0,0.6-0.1,0.9
					s-0.1,0.5-0.1,0.7c0,0.2-0.1,0.4-0.1,0.5c-0.1,0.1-0.1,0.2-0.2,0.3h1.1L38.5,103L38.5,103z"/>
				<path class="st13" d="M41.7,104.4c0,0.1,0,0.1,0,0.1c0,0,0,0.1,0,0.1h-1.7c0,0.2,0.1,0.4,0.2,0.6c0.1,0.1,0.3,0.2,0.6,0.2
					c0.1,0,0.1,0,0.2,0c0.1,0,0.1,0,0.2,0c0.1,0,0.1,0,0.2,0s0.1,0,0.2,0v0.3c-0.1,0-0.2,0.1-0.4,0.1c-0.1,0-0.3,0-0.4,0
					c-0.2,0-0.4,0-0.5-0.1c-0.1-0.1-0.3-0.1-0.4-0.2c-0.1-0.1-0.2-0.2-0.2-0.4c0-0.2-0.1-0.3-0.1-0.5c0-0.2,0-0.3,0.1-0.5
					s0.1-0.3,0.2-0.4c0.1-0.1,0.2-0.2,0.3-0.3c0.1-0.1,0.3-0.1,0.5-0.1c0.2,0,0.3,0,0.4,0.1c0.1,0.1,0.2,0.1,0.3,0.2
					c0.1,0.1,0.2,0.2,0.2,0.3C41.7,104.1,41.7,104.3,41.7,104.4z M41.3,104.4c0-0.1,0-0.2,0-0.3c0-0.1-0.1-0.2-0.1-0.2
					c-0.1-0.1-0.1-0.1-0.2-0.1s-0.2-0.1-0.3-0.1c-0.1,0-0.2,0-0.2,0.1c-0.1,0-0.1,0.1-0.2,0.1c-0.1,0.1-0.1,0.1-0.1,0.2
					c0,0.1-0.1,0.2-0.1,0.3H41.3z"/>
				<path class="st13" d="M42.5,105.1c0.1-0.1,0.1-0.2,0.2-0.3c0.1-0.1,0.1-0.1,0.2-0.1c-0.1,0-0.2-0.1-0.2-0.1
					c-0.1,0-0.1-0.1-0.2-0.1s-0.1-0.1-0.1-0.2c0-0.1,0-0.1,0-0.2c0-0.1,0-0.2,0.1-0.3c0-0.1,0.1-0.2,0.2-0.2
					c0.1-0.1,0.2-0.1,0.3-0.2s0.3-0.1,0.5-0.1c0.1,0,0.3,0,0.4,0c0.1,0,0.3,0,0.4,0v2.4h-0.4v-0.9h-0.4c-0.1,0-0.1,0-0.2,0
					c-0.1,0-0.1,0-0.2,0.1c0,0-0.1,0.1-0.1,0.1c0,0-0.1,0.1-0.1,0.2l-0.3,0.6h-0.5L42.5,105.1z M42.8,104.1c0,0.1,0,0.2,0.1,0.3
					c0.1,0.1,0.2,0.1,0.4,0.1h0.4v-0.8c-0.1,0-0.1,0-0.2,0s-0.1,0-0.2,0c-0.1,0-0.2,0-0.3,0c-0.1,0-0.1,0-0.2,0.1
					c0,0-0.1,0.1-0.1,0.1S42.8,104,42.8,104.1z"/>
				<path class="st13" d="M47.1,103.7h-0.9v2h-0.4v-2h-0.9v-0.4h2.2C47.1,103.4,47.1,103.7,47.1,103.7z"/>
				<path class="st13" d="M49.6,104.4c0,0.1,0,0.1,0,0.1c0,0,0,0.1,0,0.1H48c0,0.2,0.1,0.4,0.2,0.6c0.1,0.1,0.3,0.2,0.6,0.2
					c0.1,0,0.1,0,0.2,0c0.1,0,0.1,0,0.2,0c0.1,0,0.1,0,0.2,0s0.1,0,0.2,0v0.3c-0.1,0-0.2,0.1-0.4,0.1c-0.1,0-0.3,0-0.4,0
					c-0.2,0-0.4,0-0.5-0.1c-0.1-0.1-0.3-0.1-0.4-0.2c-0.1-0.1-0.2-0.2-0.2-0.4c0-0.2-0.1-0.3-0.1-0.5c0-0.2,0-0.3,0.1-0.5
					s0.1-0.3,0.2-0.4c0.1-0.1,0.2-0.2,0.3-0.3c0.1-0.1,0.3-0.1,0.5-0.1c0.2,0,0.3,0,0.4,0.1c0.1,0.1,0.2,0.1,0.3,0.2
					c0.1,0.1,0.2,0.2,0.2,0.3C49.6,104.1,49.6,104.3,49.6,104.4z M49.2,104.4c0-0.1,0-0.2,0-0.3c0-0.1-0.1-0.2-0.1-0.2
					c-0.1-0.1-0.1-0.1-0.2-0.1s-0.2-0.1-0.3-0.1c-0.1,0-0.2,0-0.2,0.1c-0.1,0-0.1,0.1-0.2,0.1c-0.1,0.1-0.1,0.1-0.1,0.2
					c0,0.1-0.1,0.2-0.1,0.3H49.2z"/>
				<path class="st13" d="M52.2,105.7h-0.4v-2h-0.7c0,0.3,0,0.6-0.1,0.8c0,0.2-0.1,0.4-0.1,0.6c-0.1,0.2-0.1,0.3-0.2,0.4
					c-0.1,0.1-0.1,0.2-0.2,0.2c-0.1,0-0.2,0.1-0.2,0.1c-0.1,0-0.2,0-0.3,0l0-0.3c0.1,0,0.1,0,0.2,0s0.1,0,0.2-0.1
					c0,0,0.1-0.1,0.1-0.2c0-0.1,0.1-0.2,0.1-0.4s0.1-0.3,0.1-0.6s0-0.5,0.1-0.8h1.5C52.2,103.4,52.2,105.7,52.2,105.7z"/>
				<path class="st13" d="M53.4,104.3c0,0,0.1,0,0.1,0s0.1,0,0.1,0c0,0,0.1,0,0.1,0c0,0,0.1,0,0.1,0c0.4,0,0.6,0.1,0.8,0.2
					s0.3,0.3,0.3,0.6c0,0.3-0.1,0.5-0.3,0.6c-0.2,0.1-0.5,0.2-0.8,0.2c-0.2,0-0.3,0-0.5,0c-0.1,0-0.3,0-0.4,0v-2.4h0.4
					C53.4,103.4,53.4,104.3,53.4,104.3z M54.5,105c0-0.1,0-0.1,0-0.2c0-0.1-0.1-0.1-0.1-0.1s-0.1-0.1-0.2-0.1c-0.1,0-0.2,0-0.3,0
					c-0.1,0-0.2,0-0.2,0c-0.1,0-0.2,0-0.3,0v0.8c0.1,0,0.2,0,0.2,0s0.2,0,0.2,0c0.1,0,0.2,0,0.3,0s0.2,0,0.2-0.1
					c0.1,0,0.1-0.1,0.1-0.1C54.5,105.1,54.5,105.1,54.5,105z"/>
				<path class="st13" d="M57.5,105.7h-0.4v-1.1H56v1.1h-0.4v-2.4H56v1h1.1v-1h0.4V105.7z"/>
				<path class="st13" d="M60.3,104.5c0,0.2,0,0.4-0.1,0.5c-0.1,0.2-0.1,0.3-0.2,0.4c-0.1,0.1-0.2,0.2-0.4,0.3
					c-0.1,0.1-0.3,0.1-0.5,0.1c-0.2,0-0.3,0-0.5-0.1c-0.1-0.1-0.2-0.1-0.3-0.2s-0.2-0.2-0.2-0.4c0-0.2-0.1-0.3-0.1-0.5
					c0-0.2,0-0.4,0.1-0.5s0.1-0.3,0.2-0.4s0.2-0.2,0.4-0.3c0.1-0.1,0.3-0.1,0.5-0.1c0.2,0,0.3,0,0.5,0.1c0.1,0.1,0.2,0.1,0.3,0.2
					c0.1,0.1,0.2,0.2,0.2,0.4C60.2,104.2,60.3,104.3,60.3,104.5z M59.8,104.6c0-0.1,0-0.3,0-0.4s-0.1-0.2-0.1-0.3
					c-0.1-0.1-0.1-0.1-0.2-0.2c-0.1,0-0.2-0.1-0.3-0.1c-0.1,0-0.2,0-0.3,0.1c-0.1,0-0.2,0.1-0.2,0.2c-0.1,0.1-0.1,0.2-0.1,0.3
					c0,0.1,0,0.2,0,0.3c0,0.1,0,0.3,0,0.4s0.1,0.2,0.1,0.3c0.1,0.1,0.1,0.1,0.2,0.2c0.1,0,0.2,0.1,0.3,0.1c0.1,0,0.2,0,0.3-0.1
					c0.1,0,0.2-0.1,0.2-0.2s0.1-0.2,0.1-0.3C59.8,104.8,59.8,104.7,59.8,104.6z"/>
				<path class="st13" d="M62.7,105.7c-0.1,0-0.2,0.1-0.3,0.1c-0.1,0-0.2,0-0.3,0c-0.4,0-0.7-0.1-0.9-0.3c-0.2-0.2-0.3-0.5-0.3-0.9
					c0-0.2,0-0.4,0.1-0.5c0.1-0.2,0.1-0.3,0.2-0.4c0.1-0.1,0.2-0.2,0.4-0.3c0.1-0.1,0.3-0.1,0.5-0.1c0.1,0,0.2,0,0.3,0
					s0.2,0,0.3,0.1v0.4c-0.1-0.1-0.2-0.1-0.3-0.1s-0.2,0-0.3,0c-0.1,0-0.2,0-0.3,0.1c-0.1,0-0.2,0.1-0.2,0.2
					c-0.1,0.1-0.1,0.2-0.2,0.3c0,0.1-0.1,0.2-0.1,0.4c0,0.3,0.1,0.5,0.2,0.6c0.1,0.1,0.3,0.2,0.6,0.2c0.1,0,0.2,0,0.3,0
					c0.1,0,0.2-0.1,0.3-0.1L62.7,105.7L62.7,105.7z"/>
				<path class="st13" d="M65.5,103.7h-0.9v2h-0.4v-2h-0.9v-0.4h2.2L65.5,103.7L65.5,103.7z"/>
				<path class="st13" d="M66.6,104.3c0,0,0.1,0,0.1,0s0.1,0,0.1,0c0,0,0.1,0,0.1,0c0,0,0.1,0,0.1,0c0.4,0,0.6,0.1,0.8,0.2
					c0.2,0.1,0.3,0.3,0.3,0.6c0,0.3-0.1,0.5-0.3,0.6c-0.2,0.1-0.5,0.2-0.8,0.2c-0.2,0-0.3,0-0.5,0c-0.1,0-0.3,0-0.4,0v-2.4h0.4
					V104.3z M67.7,105c0-0.1,0-0.1,0-0.2c0-0.1-0.1-0.1-0.1-0.1c-0.1,0-0.1-0.1-0.2-0.1c-0.1,0-0.2,0-0.3,0c-0.1,0-0.2,0-0.2,0
					c-0.1,0-0.2,0-0.3,0v0.8c0.1,0,0.2,0,0.2,0s0.2,0,0.2,0c0.1,0,0.2,0,0.3,0s0.2,0,0.2-0.1c0.1,0,0.1-0.1,0.1-0.1
					C67.7,105.1,67.7,105.1,67.7,105z"/>
			</g>
			<g>
				<rect x="111.3" y="102.4" class="st12" width="32.9" height="4.7"/>
				<path class="st13" d="M113.9,105.4l0,1h-0.4v-0.7h-1.7v0.7h-0.4l0-1h0c0.1,0,0.1,0,0.2,0c0.1,0,0.1-0.1,0.1-0.2s0.1-0.2,0.1-0.3
					c0-0.1,0.1-0.3,0.1-0.5c0-0.2,0.1-0.4,0.1-0.7c0-0.3,0-0.6,0.1-1h1.5v2.7H113.9z M113.1,103h-0.7c0,0.3,0,0.6-0.1,0.9
					s-0.1,0.5-0.1,0.7c0,0.2-0.1,0.4-0.1,0.5c-0.1,0.1-0.1,0.2-0.2,0.3h1.1L113.1,103L113.1,103z"/>
				<path class="st13" d="M116.3,104.4c0,0.1,0,0.1,0,0.1c0,0,0,0.1,0,0.1h-1.7c0,0.2,0.1,0.4,0.2,0.6c0.1,0.1,0.3,0.2,0.6,0.2
					c0.1,0,0.1,0,0.2,0c0.1,0,0.1,0,0.2,0c0.1,0,0.1,0,0.2,0s0.1,0,0.2,0v0.3c-0.1,0-0.2,0.1-0.4,0.1c-0.1,0-0.3,0-0.4,0
					c-0.2,0-0.4,0-0.5-0.1c-0.1-0.1-0.3-0.1-0.4-0.2c-0.1-0.1-0.2-0.2-0.2-0.4c0-0.2-0.1-0.3-0.1-0.5c0-0.2,0-0.3,0.1-0.5
					s0.1-0.3,0.2-0.4c0.1-0.1,0.2-0.2,0.3-0.3c0.1-0.1,0.3-0.1,0.5-0.1c0.2,0,0.3,0,0.4,0.1c0.1,0.1,0.2,0.1,0.3,0.2
					c0.1,0.1,0.2,0.2,0.2,0.3C116.3,104.1,116.3,104.3,116.3,104.4z M115.9,104.4c0-0.1,0-0.2,0-0.3c0-0.1-0.1-0.2-0.1-0.2
					c-0.1-0.1-0.1-0.1-0.2-0.1s-0.2-0.1-0.3-0.1c-0.1,0-0.2,0-0.2,0.1c-0.1,0-0.1,0.1-0.2,0.1c-0.1,0.1-0.1,0.1-0.1,0.2
					c0,0.1-0.1,0.2-0.1,0.3H115.9z"/>
				<path class="st13" d="M117.1,105.1c0.1-0.1,0.1-0.2,0.2-0.3c0.1-0.1,0.1-0.1,0.2-0.1c-0.1,0-0.2-0.1-0.2-0.1
					c-0.1,0-0.1-0.1-0.2-0.1s-0.1-0.1-0.1-0.2c0-0.1,0-0.1,0-0.2c0-0.1,0-0.2,0.1-0.3c0-0.1,0.1-0.2,0.2-0.2
					c0.1-0.1,0.2-0.1,0.3-0.2s0.3-0.1,0.5-0.1c0.1,0,0.3,0,0.4,0c0.1,0,0.3,0,0.4,0v2.4h-0.4v-0.9h-0.4c-0.1,0-0.1,0-0.2,0
					c-0.1,0-0.1,0-0.2,0.1s-0.1,0.1-0.1,0.1c0,0-0.1,0.1-0.1,0.2l-0.3,0.6h-0.5L117.1,105.1z M117.4,104.1c0,0.1,0,0.2,0.1,0.3
					c0.1,0.1,0.2,0.1,0.4,0.1h0.4v-0.8c-0.1,0-0.1,0-0.2,0s-0.1,0-0.2,0c-0.1,0-0.2,0-0.3,0c-0.1,0-0.1,0-0.2,0.1
					c0,0-0.1,0.1-0.1,0.1S117.4,104,117.4,104.1z"/>
				<path class="st13" d="M121.6,103.7h-0.9v2h-0.4v-2h-0.9v-0.4h2.2L121.6,103.7L121.6,103.7z"/>
				<path class="st13" d="M124.2,104.4c0,0.1,0,0.1,0,0.1c0,0,0,0.1,0,0.1h-1.7c0,0.2,0.1,0.4,0.2,0.6c0.1,0.1,0.3,0.2,0.6,0.2
					c0.1,0,0.1,0,0.2,0c0.1,0,0.1,0,0.2,0c0.1,0,0.1,0,0.2,0s0.1,0,0.2,0v0.3c-0.1,0-0.2,0.1-0.4,0.1c-0.1,0-0.3,0-0.4,0
					c-0.2,0-0.4,0-0.5-0.1c-0.1-0.1-0.3-0.1-0.4-0.2c-0.1-0.1-0.2-0.2-0.2-0.4c0-0.2-0.1-0.3-0.1-0.5c0-0.2,0-0.3,0.1-0.5
					s0.1-0.3,0.2-0.4c0.1-0.1,0.2-0.2,0.3-0.3c0.1-0.1,0.3-0.1,0.5-0.1c0.2,0,0.3,0,0.4,0.1c0.1,0.1,0.2,0.1,0.3,0.2
					c0.1,0.1,0.2,0.2,0.2,0.3C124.2,104.1,124.2,104.3,124.2,104.4z M123.8,104.4c0-0.1,0-0.2,0-0.3c0-0.1-0.1-0.2-0.1-0.2
					c-0.1-0.1-0.1-0.1-0.2-0.1s-0.2-0.1-0.3-0.1c-0.1,0-0.2,0-0.2,0.1c-0.1,0-0.1,0.1-0.2,0.1c-0.1,0.1-0.1,0.1-0.1,0.2
					c0,0.1-0.1,0.2-0.1,0.3H123.8z"/>
				<path class="st13" d="M126.7,105.7h-0.4v-2h-0.7c0,0.3,0,0.6-0.1,0.8c0,0.2-0.1,0.4-0.1,0.6c-0.1,0.2-0.1,0.3-0.2,0.4
					c-0.1,0.1-0.1,0.2-0.2,0.2c-0.1,0-0.2,0.1-0.2,0.1c-0.1,0-0.2,0-0.3,0l0-0.3c0.1,0,0.1,0,0.2,0s0.1,0,0.2-0.1
					c0,0,0.1-0.1,0.1-0.2c0-0.1,0.1-0.2,0.1-0.4s0.1-0.3,0.1-0.6s0-0.5,0.1-0.8h1.5V105.7z"/>
				<path class="st13" d="M127.9,104.3c0,0,0.1,0,0.1,0s0.1,0,0.1,0c0,0,0.1,0,0.1,0c0,0,0.1,0,0.1,0c0.4,0,0.6,0.1,0.8,0.2
					s0.3,0.3,0.3,0.6c0,0.3-0.1,0.5-0.3,0.6c-0.2,0.1-0.5,0.2-0.8,0.2c-0.2,0-0.3,0-0.5,0c-0.1,0-0.3,0-0.4,0v-2.4h0.4L127.9,104.3
					L127.9,104.3z M129.1,105c0-0.1,0-0.1,0-0.2c0-0.1-0.1-0.1-0.1-0.1s-0.1-0.1-0.2-0.1c-0.1,0-0.2,0-0.3,0c-0.1,0-0.2,0-0.2,0
					c-0.1,0-0.2,0-0.3,0v0.8c0.1,0,0.2,0,0.2,0s0.2,0,0.2,0c0.1,0,0.2,0,0.3,0s0.2,0,0.2-0.1c0.1,0,0.1-0.1,0.1-0.1
					C129.1,105.1,129.1,105.1,129.1,105z"/>
				<path class="st13" d="M132,105.7h-0.4v-1.1h-1.1v1.1h-0.4v-2.4h0.4v1h1.1v-1h0.4V105.7z"/>
				<path class="st13" d="M134.8,104.5c0,0.2,0,0.4-0.1,0.5c-0.1,0.2-0.1,0.3-0.2,0.4c-0.1,0.1-0.2,0.2-0.4,0.3
					c-0.1,0.1-0.3,0.1-0.5,0.1c-0.2,0-0.3,0-0.5-0.1c-0.1-0.1-0.2-0.1-0.3-0.2s-0.2-0.2-0.2-0.4c0-0.2-0.1-0.3-0.1-0.5
					c0-0.2,0-0.4,0.1-0.5s0.1-0.3,0.2-0.4s0.2-0.2,0.4-0.3c0.1-0.1,0.3-0.1,0.5-0.1c0.2,0,0.3,0,0.5,0.1c0.1,0.1,0.2,0.1,0.3,0.2
					c0.1,0.1,0.2,0.2,0.2,0.4C134.8,104.2,134.8,104.3,134.8,104.5z M134.4,104.6c0-0.1,0-0.3,0-0.4s-0.1-0.2-0.1-0.3
					c-0.1-0.1-0.1-0.1-0.2-0.2c-0.1,0-0.2-0.1-0.3-0.1c-0.1,0-0.2,0-0.3,0.1c-0.1,0-0.2,0.1-0.2,0.2c-0.1,0.1-0.1,0.2-0.1,0.3
					c0,0.1,0,0.2,0,0.3c0,0.1,0,0.3,0,0.4s0.1,0.2,0.1,0.3c0.1,0.1,0.1,0.1,0.2,0.2c0.1,0,0.2,0.1,0.3,0.1c0.1,0,0.2,0,0.3-0.1
					c0.1,0,0.2-0.1,0.2-0.2s0.1-0.2,0.1-0.3C134.4,104.8,134.4,104.7,134.4,104.6z"/>
				<path class="st13" d="M137.3,105.7c-0.1,0-0.2,0.1-0.3,0.1c-0.1,0-0.2,0-0.3,0c-0.4,0-0.7-0.1-0.9-0.3c-0.2-0.2-0.3-0.5-0.3-0.9
					c0-0.2,0-0.4,0.1-0.5s0.1-0.3,0.2-0.4c0.1-0.1,0.2-0.2,0.4-0.3c0.1-0.1,0.3-0.1,0.5-0.1c0.1,0,0.2,0,0.3,0s0.2,0,0.3,0.1v0.4
					c-0.1-0.1-0.2-0.1-0.3-0.1s-0.2,0-0.3,0c-0.1,0-0.2,0-0.3,0.1c-0.1,0-0.2,0.1-0.2,0.2c-0.1,0.1-0.1,0.2-0.2,0.3
					c0,0.1-0.1,0.2-0.1,0.4c0,0.3,0.1,0.5,0.2,0.6c0.1,0.1,0.3,0.2,0.6,0.2c0.1,0,0.2,0,0.3,0c0.1,0,0.2-0.1,0.3-0.1L137.3,105.7
					L137.3,105.7z"/>
				<path class="st13" d="M140.1,103.7h-0.9v2h-0.4v-2h-0.9v-0.4h2.2L140.1,103.7L140.1,103.7z"/>
				<path class="st13" d="M141.1,104.3c0,0,0.1,0,0.1,0s0.1,0,0.1,0c0,0,0.1,0,0.1,0c0,0,0.1,0,0.1,0c0.4,0,0.6,0.1,0.8,0.2
					s0.3,0.3,0.3,0.6c0,0.3-0.1,0.5-0.3,0.6c-0.2,0.1-0.5,0.2-0.8,0.2c-0.2,0-0.3,0-0.5,0c-0.1,0-0.3,0-0.4,0v-2.4h0.4L141.1,104.3
					L141.1,104.3z M142.3,105c0-0.1,0-0.1,0-0.2c0-0.1-0.1-0.1-0.1-0.1s-0.1-0.1-0.2-0.1c-0.1,0-0.2,0-0.3,0c-0.1,0-0.2,0-0.2,0
					c-0.1,0-0.2,0-0.3,0v0.8c0.1,0,0.2,0,0.2,0s0.2,0,0.2,0c0.1,0,0.2,0,0.3,0s0.2,0,0.2-0.1c0.1,0,0.1-0.1,0.1-0.1
					C142.3,105.1,142.3,105.1,142.3,105z"/>
			</g>
			<polygon class="st3" points="213.5,109.9 179,109.9 184.2,104.2 179,98.7 213.5,98.7 218.6,104.2 			"/>
			<g>
				<rect x="184.6" y="102.4" class="st12" width="32.9" height="4.7"/>
				<path class="st13" d="M187.1,105.4l0,1h-0.4v-0.7H185v0.7h-0.4l0-1h0c0.1,0,0.1,0,0.2,0c0.1,0,0.1-0.1,0.1-0.2s0.1-0.2,0.1-0.3
					c0-0.1,0.1-0.3,0.1-0.5c0-0.2,0.1-0.4,0.1-0.7c0-0.3,0-0.6,0.1-1h1.5v2.7H187.1z M186.4,103h-0.7c0,0.3,0,0.6-0.1,0.9
					s-0.1,0.5-0.1,0.7c0,0.2-0.1,0.4-0.1,0.5c-0.1,0.1-0.1,0.2-0.2,0.3h1.1L186.4,103L186.4,103z"/>
				<path class="st13" d="M189.6,104.4c0,0.1,0,0.1,0,0.1c0,0,0,0.1,0,0.1h-1.7c0,0.2,0.1,0.4,0.2,0.6c0.1,0.1,0.3,0.2,0.6,0.2
					c0.1,0,0.1,0,0.2,0c0.1,0,0.1,0,0.2,0c0.1,0,0.1,0,0.2,0s0.1,0,0.2,0v0.3c-0.1,0-0.2,0.1-0.4,0.1c-0.1,0-0.3,0-0.4,0
					c-0.2,0-0.4,0-0.5-0.1c-0.1-0.1-0.3-0.1-0.4-0.2c-0.1-0.1-0.2-0.2-0.2-0.4c0-0.2-0.1-0.3-0.1-0.5c0-0.2,0-0.3,0.1-0.5
					s0.1-0.3,0.2-0.4c0.1-0.1,0.2-0.2,0.3-0.3c0.1-0.1,0.3-0.1,0.5-0.1c0.2,0,0.3,0,0.4,0.1c0.1,0.1,0.2,0.1,0.3,0.2
					c0.1,0.1,0.2,0.2,0.2,0.3C189.5,104.1,189.6,104.3,189.6,104.4z M189.1,104.4c0-0.1,0-0.2,0-0.3c0-0.1-0.1-0.2-0.1-0.2
					c-0.1-0.1-0.1-0.1-0.2-0.1s-0.2-0.1-0.3-0.1c-0.1,0-0.2,0-0.2,0.1c-0.1,0-0.1,0.1-0.2,0.1c-0.1,0.1-0.1,0.1-0.1,0.2
					c0,0.1-0.1,0.2-0.1,0.3H189.1z"/>
				<path class="st13" d="M190.4,105.1c0.1-0.1,0.1-0.2,0.2-0.3c0.1-0.1,0.1-0.1,0.2-0.1c-0.1,0-0.2-0.1-0.2-0.1
					c-0.1,0-0.1-0.1-0.2-0.1s-0.1-0.1-0.1-0.2c0-0.1,0-0.1,0-0.2c0-0.1,0-0.2,0.1-0.3c0-0.1,0.1-0.2,0.2-0.2
					c0.1-0.1,0.2-0.1,0.3-0.2s0.3-0.1,0.5-0.1c0.1,0,0.3,0,0.4,0c0.1,0,0.3,0,0.4,0v2.4h-0.4v-0.9h-0.4c-0.1,0-0.1,0-0.2,0
					c-0.1,0-0.1,0-0.2,0.1c0,0-0.1,0.1-0.1,0.1c0,0-0.1,0.1-0.1,0.2l-0.3,0.6H190L190.4,105.1z M190.7,104.1c0,0.1,0,0.2,0.1,0.3
					c0.1,0.1,0.2,0.1,0.4,0.1h0.4v-0.8c-0.1,0-0.1,0-0.2,0s-0.1,0-0.2,0c-0.1,0-0.2,0-0.3,0c-0.1,0-0.1,0-0.2,0.1
					c0,0-0.1,0.1-0.1,0.1S190.7,104,190.7,104.1z"/>
				<path class="st13" d="M194.9,103.7H194v2h-0.4v-2h-0.9v-0.4h2.2L194.9,103.7L194.9,103.7z"/>
				<path class="st13" d="M197.5,104.4c0,0.1,0,0.1,0,0.1c0,0,0,0.1,0,0.1h-1.7c0,0.2,0.1,0.4,0.2,0.6c0.1,0.1,0.3,0.2,0.6,0.2
					c0.1,0,0.1,0,0.2,0c0.1,0,0.1,0,0.2,0c0.1,0,0.1,0,0.2,0s0.1,0,0.2,0v0.3c-0.1,0-0.2,0.1-0.4,0.1c-0.1,0-0.3,0-0.4,0
					c-0.2,0-0.4,0-0.5-0.1c-0.1-0.1-0.3-0.1-0.4-0.2c-0.1-0.1-0.2-0.2-0.2-0.4c0-0.2-0.1-0.3-0.1-0.5c0-0.2,0-0.3,0.1-0.5
					s0.1-0.3,0.2-0.4c0.1-0.1,0.2-0.2,0.3-0.3c0.1-0.1,0.3-0.1,0.5-0.1c0.2,0,0.3,0,0.4,0.1c0.1,0.1,0.2,0.1,0.3,0.2
					c0.1,0.1,0.2,0.2,0.2,0.3C197.5,104.1,197.5,104.3,197.5,104.4z M197.1,104.4c0-0.1,0-0.2,0-0.3c0-0.1-0.1-0.2-0.1-0.2
					c-0.1-0.1-0.1-0.1-0.2-0.1s-0.2-0.1-0.3-0.1c-0.1,0-0.2,0-0.2,0.1c-0.1,0-0.1,0.1-0.2,0.1c-0.1,0.1-0.1,0.1-0.1,0.2
					c0,0.1-0.1,0.2-0.1,0.3H197.1z"/>
				<path class="st13" d="M200,105.7h-0.4v-2h-0.7c0,0.3,0,0.6-0.1,0.8c0,0.2-0.1,0.4-0.1,0.6c-0.1,0.2-0.1,0.3-0.2,0.4
					c-0.1,0.1-0.1,0.2-0.2,0.2c-0.1,0-0.2,0.1-0.2,0.1c-0.1,0-0.2,0-0.3,0l0-0.3c0.1,0,0.1,0,0.2,0s0.1,0,0.2-0.1
					c0,0,0.1-0.1,0.1-0.2c0-0.1,0.1-0.2,0.1-0.4s0.1-0.3,0.1-0.6s0-0.5,0.1-0.8h1.5L200,105.7L200,105.7z"/>
				<path class="st13" d="M201.2,104.3c0,0,0.1,0,0.1,0s0.1,0,0.1,0c0,0,0.1,0,0.1,0c0,0,0.1,0,0.1,0c0.4,0,0.6,0.1,0.8,0.2
					s0.3,0.3,0.3,0.6c0,0.3-0.1,0.5-0.3,0.6c-0.2,0.1-0.5,0.2-0.8,0.2c-0.2,0-0.3,0-0.5,0c-0.1,0-0.3,0-0.4,0v-2.4h0.4L201.2,104.3
					L201.2,104.3z M202.4,105c0-0.1,0-0.1,0-0.2c0-0.1-0.1-0.1-0.1-0.1s-0.1-0.1-0.2-0.1c-0.1,0-0.2,0-0.3,0c-0.1,0-0.2,0-0.2,0
					c-0.1,0-0.2,0-0.3,0v0.8c0.1,0,0.2,0,0.2,0s0.2,0,0.2,0c0.1,0,0.2,0,0.3,0s0.2,0,0.2-0.1c0.1,0,0.1-0.1,0.1-0.1
					C202.3,105.1,202.4,105.1,202.4,105z"/>
				<path class="st13" d="M205.3,105.7h-0.4v-1.1h-1.1v1.1h-0.4v-2.4h0.4v1h1.1v-1h0.4V105.7z"/>
				<path class="st13" d="M208.1,104.5c0,0.2,0,0.4-0.1,0.5c-0.1,0.2-0.1,0.3-0.2,0.4c-0.1,0.1-0.2,0.2-0.4,0.3
					c-0.1,0.1-0.3,0.1-0.5,0.1c-0.2,0-0.3,0-0.5-0.1c-0.1-0.1-0.2-0.1-0.3-0.2s-0.2-0.2-0.2-0.4c0-0.2-0.1-0.3-0.1-0.5
					c0-0.2,0-0.4,0.1-0.5s0.1-0.3,0.2-0.4s0.2-0.2,0.4-0.3c0.1-0.1,0.3-0.1,0.5-0.1c0.2,0,0.3,0,0.5,0.1c0.1,0.1,0.2,0.1,0.3,0.2
					c0.1,0.1,0.2,0.2,0.2,0.4C208.1,104.2,208.1,104.3,208.1,104.5z M207.7,104.6c0-0.1,0-0.3,0-0.4s-0.1-0.2-0.1-0.3
					c-0.1-0.1-0.1-0.1-0.2-0.2c-0.1,0-0.2-0.1-0.3-0.1c-0.1,0-0.2,0-0.3,0.1c-0.1,0-0.2,0.1-0.2,0.2c-0.1,0.1-0.1,0.2-0.1,0.3
					c0,0.1,0,0.2,0,0.3c0,0.1,0,0.3,0,0.4s0.1,0.2,0.1,0.3c0.1,0.1,0.1,0.1,0.2,0.2c0.1,0,0.2,0.1,0.3,0.1c0.1,0,0.2,0,0.3-0.1
					c0.1,0,0.2-0.1,0.2-0.2s0.1-0.2,0.1-0.3C207.7,104.8,207.7,104.7,207.7,104.6z"/>
				<path class="st13" d="M210.5,105.7c-0.1,0-0.2,0.1-0.3,0.1c-0.1,0-0.2,0-0.3,0c-0.4,0-0.7-0.1-0.9-0.3c-0.2-0.2-0.3-0.5-0.3-0.9
					c0-0.2,0-0.4,0.1-0.5s0.1-0.3,0.2-0.4c0.1-0.1,0.2-0.2,0.4-0.3c0.1-0.1,0.3-0.1,0.5-0.1c0.1,0,0.2,0,0.3,0s0.2,0,0.3,0.1v0.4
					c-0.1-0.1-0.2-0.1-0.3-0.1s-0.2,0-0.3,0c-0.1,0-0.2,0-0.3,0.1c-0.1,0-0.2,0.1-0.2,0.2c-0.1,0.1-0.1,0.2-0.2,0.3
					c0,0.1-0.1,0.2-0.1,0.4c0,0.3,0.1,0.5,0.2,0.6c0.1,0.1,0.3,0.2,0.6,0.2c0.1,0,0.2,0,0.3,0c0.1,0,0.2-0.1,0.3-0.1L210.5,105.7
					L210.5,105.7z"/>
				<path class="st13" d="M213.4,103.7h-0.9v2h-0.4v-2h-0.9v-0.4h2.2L213.4,103.7L213.4,103.7z"/>
				<path class="st13" d="M214.4,104.3c0,0,0.1,0,0.1,0s0.1,0,0.1,0c0,0,0.1,0,0.1,0c0,0,0.1,0,0.1,0c0.4,0,0.6,0.1,0.8,0.2
					s0.3,0.3,0.3,0.6c0,0.3-0.1,0.5-0.3,0.6c-0.2,0.1-0.5,0.2-0.8,0.2c-0.2,0-0.3,0-0.5,0c-0.1,0-0.3,0-0.4,0v-2.4h0.4L214.4,104.3
					L214.4,104.3z M215.5,105c0-0.1,0-0.1,0-0.2c0-0.1-0.1-0.1-0.1-0.1s-0.1-0.1-0.2-0.1c-0.1,0-0.2,0-0.3,0c-0.1,0-0.2,0-0.2,0
					c-0.1,0-0.2,0-0.3,0v0.8c0.1,0,0.2,0,0.2,0s0.2,0,0.2,0c0.1,0,0.2,0,0.3,0s0.2,0,0.2-0.1c0.1,0,0.1-0.1,0.1-0.1
					C215.5,105.1,215.5,105.1,215.5,105z"/>
			</g>
			<g>
				<rect x="160.6" y="28.9" class="st12" width="24.9" height="8"/>
				<path class="st13" d="M165,32.3h-0.5l-1.1-1.5v1.5h-0.4v-3.1h0.4v1.4l1.1-1.4h0.5l-1.2,1.5L165,32.3z"/>
				<path class="st13" d="M167.6,31.1c0,0.2,0,0.4-0.1,0.5s-0.1,0.3-0.2,0.4c-0.1,0.1-0.2,0.2-0.4,0.3c-0.1,0.1-0.3,0.1-0.5,0.1
					c-0.2,0-0.3,0-0.5-0.1c-0.1-0.1-0.2-0.1-0.3-0.2s-0.2-0.2-0.2-0.4c0-0.2-0.1-0.3-0.1-0.5c0-0.2,0-0.4,0.1-0.5s0.1-0.3,0.2-0.4
					c0.1-0.1,0.2-0.2,0.4-0.3c0.1-0.1,0.3-0.1,0.5-0.1c0.2,0,0.3,0,0.5,0.1c0.1,0.1,0.2,0.1,0.3,0.2c0.1,0.1,0.2,0.2,0.2,0.4
					C167.6,30.7,167.6,30.9,167.6,31.1z M167.2,31.1c0-0.1,0-0.3,0-0.4s-0.1-0.2-0.1-0.3c-0.1-0.1-0.1-0.1-0.2-0.2
					c-0.1,0-0.2-0.1-0.3-0.1c-0.1,0-0.2,0-0.3,0.1c-0.1,0-0.2,0.1-0.2,0.2c-0.1,0.1-0.1,0.2-0.1,0.3c0,0.1,0,0.2,0,0.3
					c0,0.1,0,0.3,0,0.4s0.1,0.2,0.1,0.3c0.1,0.1,0.1,0.1,0.2,0.2c0.1,0,0.2,0.1,0.3,0.1c0.1,0,0.2,0,0.3-0.1c0.1,0,0.2-0.1,0.2-0.2
					s0.1-0.2,0.1-0.3C167.2,31.3,167.2,31.2,167.2,31.1z"/>
				<path class="st13" d="M170.1,32.3h-0.4v-1.1h-1.1v1.1h-0.4v-2.4h0.4v1h1.1v-1h0.4V32.3z"/>
				<path class="st13" d="M172.8,31c0,0.1,0,0.1,0,0.1c0,0,0,0.1,0,0.1h-1.7c0,0.2,0.1,0.4,0.2,0.6c0.1,0.1,0.3,0.2,0.6,0.2
					c0.1,0,0.1,0,0.2,0c0.1,0,0.1,0,0.2,0c0.1,0,0.1,0,0.2,0s0.1,0,0.2,0v0.3c-0.1,0-0.2,0.1-0.4,0.1c-0.1,0-0.3,0-0.4,0
					c-0.2,0-0.4,0-0.5-0.1c-0.1-0.1-0.3-0.1-0.4-0.2c-0.1-0.1-0.2-0.2-0.2-0.4c0-0.2-0.1-0.3-0.1-0.5c0-0.2,0-0.3,0.1-0.5
					s0.1-0.3,0.2-0.4c0.1-0.1,0.2-0.2,0.3-0.3s0.3-0.1,0.5-0.1c0.2,0,0.3,0,0.4,0.1c0.1,0.1,0.2,0.1,0.3,0.2
					c0.1,0.1,0.2,0.2,0.2,0.3C172.8,30.6,172.8,30.8,172.8,31z M172.4,30.9c0-0.1,0-0.2,0-0.3c0-0.1-0.1-0.2-0.1-0.2
					c-0.1-0.1-0.1-0.1-0.2-0.1s-0.2-0.1-0.3-0.1c-0.1,0-0.2,0-0.2,0.1c-0.1,0-0.1,0.1-0.2,0.1c-0.1,0.1-0.1,0.1-0.1,0.2
					c0,0.1-0.1,0.2-0.1,0.3H172.4z"/>
				<path class="st13" d="M174.9,31.4h-0.5c-0.4,0-0.6-0.1-0.8-0.2c-0.2-0.1-0.3-0.3-0.3-0.6v-0.7h0.4v0.6c0,0.1,0,0.2,0,0.2
					c0,0.1,0.1,0.1,0.1,0.2c0.1,0,0.1,0.1,0.2,0.1c0.1,0,0.2,0,0.3,0h0.4v-1.1h0.4v2.4h-0.4L174.9,31.4L174.9,31.4z"/>
				<path class="st13" d="M178,32.3h-0.4v-1.1h-1.1v1.1h-0.4v-2.4h0.4v1h1.1v-1h0.4V32.3z"/>
				<path class="st13" d="M179,30.8c0.1,0,0.1,0,0.2,0c0,0,0.1,0,0.2,0c0.1,0,0.3,0,0.4,0.1c0.1,0,0.2,0.1,0.3,0.1
					c0.1,0.1,0.1,0.1,0.2,0.2c0,0.1,0.1,0.2,0.1,0.3c0,0.1,0,0.2-0.1,0.3s-0.1,0.2-0.2,0.2s-0.2,0.1-0.3,0.1s-0.2,0-0.4,0
					c-0.1,0-0.2,0-0.3,0c-0.1,0-0.2,0-0.3,0v-2.4h0.4L179,30.8L179,30.8z M179.7,31.5c0-0.1,0-0.2-0.1-0.3s-0.2-0.1-0.4-0.1
					c0,0-0.1,0-0.1,0s-0.1,0-0.1,0v0.8c0.1,0,0.1,0,0.1,0c0,0,0.1,0,0.1,0c0.1,0,0.2,0,0.2,0s0.1-0.1,0.1-0.1c0,0,0.1-0.1,0.1-0.1
					C179.7,31.7,179.7,31.6,179.7,31.5z M180.4,32.3v-2.4h0.4v2.4H180.4z"/>
				<path class="st13" d="M181.8,29.9v1.7l1-1.7h0.4v2.4h-0.4v-1.7l-1,1.7h-0.4v-2.4H181.8z M183,29c0,0.1,0,0.2-0.1,0.2
					s-0.1,0.1-0.1,0.2c-0.1,0.1-0.1,0.1-0.2,0.1c-0.1,0-0.2,0-0.3,0c-0.1,0-0.2,0-0.3,0c-0.1,0-0.2-0.1-0.2-0.1
					c-0.1-0.1-0.1-0.1-0.1-0.2s0-0.2,0-0.2h0.4c0,0,0,0.1,0,0.1c0,0,0,0.1,0.1,0.1c0,0,0.1,0.1,0.1,0.1c0,0,0.1,0,0.2,0
					c0.1,0,0.1,0,0.2,0c0,0,0.1,0,0.1-0.1c0,0,0-0.1,0.1-0.1c0,0,0-0.1,0-0.1H183z"/>
				<path class="st13" d="M166.1,36.1h-0.4v-2h-1.1v2h-0.4v-2.4h1.9L166.1,36.1L166.1,36.1z"/>
				<path class="st13" d="M168.9,34.9c0,0.2,0,0.4-0.1,0.6c-0.1,0.2-0.1,0.3-0.2,0.4c-0.1,0.1-0.2,0.2-0.4,0.2s-0.3,0.1-0.5,0.1
					c-0.1,0-0.1,0-0.2,0s-0.1,0-0.2,0v1h-0.4v-3.3h0.4l0,0.4c0.1-0.2,0.2-0.3,0.4-0.3s0.3-0.1,0.4-0.1c0.1,0,0.3,0,0.4,0.1
					s0.2,0.1,0.3,0.2c0.1,0.1,0.1,0.2,0.2,0.4C168.9,34.5,168.9,34.7,168.9,34.9z M168.5,34.9c0-0.1,0-0.2,0-0.3
					c0-0.1,0-0.2-0.1-0.3s-0.1-0.1-0.1-0.2c-0.1,0-0.1-0.1-0.2-0.1c-0.1,0-0.1,0-0.2,0c-0.1,0-0.1,0-0.2,0.1c-0.1,0-0.1,0.1-0.2,0.2
					c-0.1,0.1-0.1,0.1-0.2,0.2v1.2c0.1,0,0.2,0.1,0.2,0.1s0.2,0,0.2,0c0.2,0,0.4-0.1,0.5-0.2S168.5,35.2,168.5,34.9z"/>
				<path class="st13" d="M171.5,34.9c0,0.2,0,0.4-0.1,0.5s-0.1,0.3-0.2,0.4c-0.1,0.1-0.2,0.2-0.4,0.3c-0.1,0.1-0.3,0.1-0.5,0.1
					c-0.2,0-0.3,0-0.5-0.1c-0.1-0.1-0.2-0.1-0.3-0.2s-0.2-0.2-0.2-0.4c0-0.2-0.1-0.3-0.1-0.5c0-0.2,0-0.4,0.1-0.5s0.1-0.3,0.2-0.4
					s0.2-0.2,0.4-0.3c0.1-0.1,0.3-0.1,0.5-0.1c0.2,0,0.3,0,0.5,0.1c0.1,0.1,0.2,0.1,0.3,0.2c0.1,0.1,0.2,0.2,0.2,0.4
					C171.5,34.5,171.5,34.7,171.5,34.9z M171.1,34.9c0-0.1,0-0.3,0-0.4s-0.1-0.2-0.1-0.3c-0.1-0.1-0.1-0.1-0.2-0.2
					c-0.1,0-0.2-0.1-0.3-0.1c-0.1,0-0.2,0-0.3,0.1c-0.1,0-0.2,0.1-0.2,0.2c-0.1,0.1-0.1,0.2-0.1,0.3c0,0.1,0,0.2,0,0.3
					c0,0.1,0,0.3,0,0.4s0.1,0.2,0.1,0.3c0.1,0.1,0.1,0.1,0.2,0.2c0.1,0,0.2,0.1,0.3,0.1c0.1,0,0.2,0,0.3-0.1c0.1,0,0.2-0.1,0.2-0.2
					s0.1-0.2,0.1-0.3C171.1,35.1,171.1,35,171.1,34.9z"/>
				<path class="st13" d="M174.3,35.7l0,1h-0.4v-0.6h-1.7v0.6h-0.4l0-1h0c0.1,0,0.1,0,0.2,0c0.1,0,0.1-0.1,0.1-0.1
					c0-0.1,0.1-0.1,0.1-0.2s0.1-0.2,0.1-0.4c0-0.1,0.1-0.3,0.1-0.5c0-0.2,0-0.5,0.1-0.8h1.5v2C174,35.7,174.3,35.7,174.3,35.7z
					 M173.6,34.1h-0.7c0,0.3,0,0.5-0.1,0.7c0,0.2-0.1,0.4-0.1,0.5c0,0.1-0.1,0.2-0.1,0.3c0,0.1-0.1,0.1-0.1,0.2h1.1L173.6,34.1
					L173.6,34.1z"/>
				<path class="st13" d="M176.9,33.7l-0.8,2.1c-0.1,0.2-0.2,0.4-0.3,0.6c-0.1,0.2-0.2,0.3-0.3,0.4c-0.1,0.1-0.2,0.2-0.3,0.2
					c-0.1,0-0.3,0.1-0.4,0.1c0,0-0.1,0-0.1,0c0,0-0.1,0-0.1,0v-0.4c0,0,0.1,0,0.1,0c0,0,0.1,0,0.1,0c0.1,0,0.1,0,0.2,0
					c0.1,0,0.1-0.1,0.2-0.1s0.1-0.1,0.2-0.2c0.1-0.1,0.1-0.2,0.2-0.3l-0.9-2.4h0.5l0.6,1.6l0.1,0.4l0.1-0.4l0.6-1.6L176.9,33.7
					L176.9,33.7z"/>
				<path class="st13" d="M179.5,36.1H179l-1.1-1.3v1.3h-0.4v-2.4h0.4v1.1l1.1-1.1h0.5l-1.1,1.1L179.5,36.1z"/>
				<path class="st13" d="M182.1,34.1h-0.9v2h-0.4v-2h-0.9v-0.4h2.2L182.1,34.1L182.1,34.1z"/>
			</g>
			<g>
				<polygon class="st5" points="186.5,51 160.6,51 155.5,45.9 160.7,39.9 186.5,39.9 191.7,45.1 				"/>
				<g>
					<polyline class="st6" points="187.1,50.4 186.5,51 185.7,51 					"/>
					<line class="st7" x1="184.1" y1="51" x2="162.3" y2="51"/>
					<polyline class="st6" points="161.5,51 160.6,51 160,50.4 					"/>
					<line class="st14" x1="158.7" y1="49.1" x2="156.8" y2="47.1"/>
					<polyline class="st6" points="156.1,46.5 155.5,45.9 156.1,45.2 					"/>
					<line class="st15" x1="157.4" y1="43.6" x2="159.4" y2="41.3"/>
					<polyline class="st6" points="160.1,40.5 160.7,39.9 161.5,39.9 					"/>
					<line class="st7" x1="163.1" y1="39.9" x2="184.9" y2="39.9"/>
					<polyline class="st6" points="185.7,39.9 186.5,39.9 187.1,40.5 					"/>
					<line class="st16" x1="188.5" y1="41.8" x2="190.4" y2="43.8"/>
					<polyline class="st6" points="191.1,44.5 191.7,45.1 191.1,45.7 					"/>
					<line class="st11" x1="189.8" y1="47.3" x2="187.8" y2="49.6"/>
				</g>
			</g>
			<g>
				<rect x="160.6" y="41.4" class="st12" width="24.9" height="8"/>
				<path class="st13" d="M165,44.8h-0.5l-1.1-1.5v1.5h-0.4v-3.1h0.4v1.4l1.1-1.4h0.5l-1.2,1.5L165,44.8z"/>
				<path class="st13" d="M167.6,43.6c0,0.2,0,0.4-0.1,0.5s-0.1,0.3-0.2,0.4c-0.1,0.1-0.2,0.2-0.4,0.3c-0.1,0.1-0.3,0.1-0.5,0.1
					c-0.2,0-0.3,0-0.5-0.1c-0.1-0.1-0.2-0.1-0.3-0.2s-0.2-0.2-0.2-0.4c0-0.2-0.1-0.3-0.1-0.5c0-0.2,0-0.4,0.1-0.5s0.1-0.3,0.2-0.4
					s0.2-0.2,0.4-0.3c0.1-0.1,0.3-0.1,0.5-0.1c0.2,0,0.3,0,0.5,0.1c0.1,0.1,0.2,0.1,0.3,0.2c0.1,0.1,0.2,0.2,0.2,0.4
					C167.6,43.2,167.6,43.4,167.6,43.6z M167.2,43.6c0-0.1,0-0.3,0-0.4S167,43,167,42.9c-0.1-0.1-0.1-0.1-0.2-0.2
					c-0.1,0-0.2-0.1-0.3-0.1c-0.1,0-0.2,0-0.3,0.1c-0.1,0-0.2,0.1-0.2,0.2c-0.1,0.1-0.1,0.2-0.1,0.3c0,0.1,0,0.2,0,0.3
					c0,0.1,0,0.3,0,0.4s0.1,0.2,0.1,0.3c0.1,0.1,0.1,0.1,0.2,0.2c0.1,0,0.2,0.1,0.3,0.1c0.1,0,0.2,0,0.3-0.1c0.1,0,0.2-0.1,0.2-0.2
					s0.1-0.2,0.1-0.3C167.2,43.8,167.2,43.7,167.2,43.6z"/>
				<path class="st13" d="M170.1,44.8h-0.4v-1.1h-1.1v1.1h-0.4v-2.4h0.4v1h1.1v-1h0.4V44.8z"/>
				<path class="st13" d="M172.8,43.5c0,0.1,0,0.1,0,0.1c0,0,0,0.1,0,0.1h-1.7c0,0.2,0.1,0.4,0.2,0.6c0.1,0.1,0.3,0.2,0.6,0.2
					c0.1,0,0.1,0,0.2,0c0.1,0,0.1,0,0.2,0c0.1,0,0.1,0,0.2,0s0.1,0,0.2,0v0.3c-0.1,0-0.2,0.1-0.4,0.1c-0.1,0-0.3,0-0.4,0
					c-0.2,0-0.4,0-0.5-0.1c-0.1-0.1-0.3-0.1-0.4-0.2c-0.1-0.1-0.2-0.2-0.2-0.4c0-0.2-0.1-0.3-0.1-0.5c0-0.2,0-0.3,0.1-0.5
					s0.1-0.3,0.2-0.4c0.1-0.1,0.2-0.2,0.3-0.3s0.3-0.1,0.5-0.1c0.2,0,0.3,0,0.4,0.1c0.1,0.1,0.2,0.1,0.3,0.2
					c0.1,0.1,0.2,0.2,0.2,0.3C172.8,43.2,172.8,43.3,172.8,43.5z M172.4,43.4c0-0.1,0-0.2,0-0.3c0-0.1-0.1-0.2-0.1-0.2
					c-0.1-0.1-0.1-0.1-0.2-0.1s-0.2-0.1-0.3-0.1c-0.1,0-0.2,0-0.2,0.1c-0.1,0-0.1,0.1-0.2,0.1c-0.1,0.1-0.1,0.1-0.1,0.2
					c0,0.1-0.1,0.2-0.1,0.3C171.1,43.4,172.4,43.4,172.4,43.4z"/>
				<path class="st13" d="M174.9,43.9h-0.5c-0.4,0-0.6-0.1-0.8-0.2c-0.2-0.1-0.3-0.3-0.3-0.6v-0.7h0.4V43c0,0.1,0,0.2,0,0.2
					c0,0.1,0.1,0.1,0.1,0.2c0.1,0,0.1,0.1,0.2,0.1c0.1,0,0.2,0,0.3,0h0.4v-1.1h0.4v2.4h-0.4L174.9,43.9L174.9,43.9z"/>
				<path class="st13" d="M178,44.8h-0.4v-1.1h-1.1v1.1h-0.4v-2.4h0.4v1h1.1v-1h0.4V44.8z"/>
				<path class="st13" d="M179,43.3c0.1,0,0.1,0,0.2,0c0,0,0.1,0,0.2,0c0.1,0,0.3,0,0.4,0.1c0.1,0,0.2,0.1,0.3,0.1
					c0.1,0.1,0.1,0.1,0.2,0.2c0,0.1,0.1,0.2,0.1,0.3c0,0.1,0,0.2-0.1,0.3s-0.1,0.2-0.2,0.2s-0.2,0.1-0.3,0.1s-0.2,0-0.4,0
					c-0.1,0-0.2,0-0.3,0c-0.1,0-0.2,0-0.3,0v-2.4h0.4L179,43.3L179,43.3z M179.7,44.1c0-0.1,0-0.2-0.1-0.3s-0.2-0.1-0.4-0.1
					c0,0-0.1,0-0.1,0s-0.1,0-0.1,0v0.8c0.1,0,0.1,0,0.1,0c0,0,0.1,0,0.1,0c0.1,0,0.2,0,0.2,0s0.1-0.1,0.1-0.1c0,0,0.1-0.1,0.1-0.1
					C179.7,44.2,179.7,44.1,179.7,44.1z M180.4,44.8v-2.4h0.4v2.4H180.4z"/>
				<path class="st13" d="M181.8,42.4v1.7l1-1.7h0.4v2.4h-0.4v-1.7l-1,1.7h-0.4v-2.4H181.8z M183,41.5c0,0.1,0,0.2-0.1,0.2
					s-0.1,0.1-0.1,0.2c-0.1,0.1-0.1,0.1-0.2,0.1c-0.1,0-0.2,0-0.3,0c-0.1,0-0.2,0-0.3,0c-0.1,0-0.2-0.1-0.2-0.1
					c-0.1-0.1-0.1-0.1-0.1-0.2s0-0.2,0-0.2h0.4c0,0,0,0.1,0,0.1c0,0,0,0.1,0.1,0.1c0,0,0.1,0.1,0.1,0.1c0,0,0.1,0,0.2,0
					c0.1,0,0.1,0,0.2,0c0,0,0.1,0,0.1-0.1c0,0,0-0.1,0.1-0.1c0,0,0-0.1,0-0.1H183z"/>
				<path class="st13" d="M166.1,48.6h-0.4v-2h-1.1v2h-0.4v-2.4h1.9L166.1,48.6L166.1,48.6z"/>
				<path class="st13" d="M168.9,47.4c0,0.2,0,0.4-0.1,0.6c-0.1,0.2-0.1,0.3-0.2,0.4c-0.1,0.1-0.2,0.2-0.4,0.2s-0.3,0.1-0.5,0.1
					c-0.1,0-0.1,0-0.2,0s-0.1,0-0.2,0v1h-0.4v-3.3h0.4l0,0.4c0.1-0.2,0.2-0.3,0.4-0.3s0.3-0.1,0.4-0.1c0.1,0,0.3,0,0.4,0.1
					s0.2,0.1,0.3,0.2c0.1,0.1,0.1,0.2,0.2,0.4C168.9,47,168.9,47.2,168.9,47.4z M168.5,47.4c0-0.1,0-0.2,0-0.3c0-0.1,0-0.2-0.1-0.3
					s-0.1-0.1-0.1-0.2c-0.1,0-0.1-0.1-0.2-0.1c-0.1,0-0.1,0-0.2,0c-0.1,0-0.1,0-0.2,0.1c-0.1,0-0.1,0.1-0.2,0.2
					c-0.1,0.1-0.1,0.1-0.2,0.2v1.2c0.1,0,0.2,0.1,0.2,0.1s0.2,0,0.2,0c0.2,0,0.4-0.1,0.5-0.2S168.5,47.7,168.5,47.4z"/>
				<path class="st13" d="M171.5,47.4c0,0.2,0,0.4-0.1,0.5s-0.1,0.3-0.2,0.4c-0.1,0.1-0.2,0.2-0.4,0.3c-0.1,0.1-0.3,0.1-0.5,0.1
					c-0.2,0-0.3,0-0.5-0.1c-0.1-0.1-0.2-0.1-0.3-0.2s-0.2-0.2-0.2-0.4c0-0.2-0.1-0.3-0.1-0.5c0-0.2,0-0.4,0.1-0.5s0.1-0.3,0.2-0.4
					s0.2-0.2,0.4-0.3c0.1-0.1,0.3-0.1,0.5-0.1c0.2,0,0.3,0,0.5,0.1c0.1,0.1,0.2,0.1,0.3,0.2c0.1,0.1,0.2,0.2,0.2,0.4
					C171.5,47,171.5,47.2,171.5,47.4z M171.1,47.4c0-0.1,0-0.3,0-0.4s-0.1-0.2-0.1-0.3c-0.1-0.1-0.1-0.1-0.2-0.2
					c-0.1,0-0.2-0.1-0.3-0.1c-0.1,0-0.2,0-0.3,0.1c-0.1,0-0.2,0.1-0.2,0.2c-0.1,0.1-0.1,0.2-0.1,0.3c0,0.1,0,0.2,0,0.3
					c0,0.1,0,0.3,0,0.4s0.1,0.2,0.1,0.3c0.1,0.1,0.1,0.1,0.2,0.2c0.1,0,0.2,0.1,0.3,0.1c0.1,0,0.2,0,0.3-0.1c0.1,0,0.2-0.1,0.2-0.2
					s0.1-0.2,0.1-0.3C171.1,47.6,171.1,47.5,171.1,47.4z"/>
				<path class="st13" d="M174.3,48.2l0,1h-0.4v-0.6h-1.7v0.6h-0.4l0-1h0c0.1,0,0.1,0,0.2,0c0.1,0,0.1-0.1,0.1-0.1
					c0-0.1,0.1-0.1,0.1-0.2s0.1-0.2,0.1-0.4c0-0.1,0.1-0.3,0.1-0.5c0-0.2,0-0.5,0.1-0.8h1.5v2C174,48.2,174.3,48.2,174.3,48.2z
					 M173.6,46.6h-0.7c0,0.3,0,0.5-0.1,0.7c0,0.2-0.1,0.4-0.1,0.5c0,0.1-0.1,0.2-0.1,0.3c0,0.1-0.1,0.1-0.1,0.2h1.1L173.6,46.6
					L173.6,46.6z"/>
				<path class="st13" d="M176.9,46.2l-0.8,2.1c-0.1,0.2-0.2,0.4-0.3,0.6c-0.1,0.2-0.2,0.3-0.3,0.4c-0.1,0.1-0.2,0.2-0.3,0.2
					c-0.1,0-0.3,0.1-0.4,0.1c0,0-0.1,0-0.1,0c0,0-0.1,0-0.1,0v-0.4c0,0,0.1,0,0.1,0c0,0,0.1,0,0.1,0c0.1,0,0.1,0,0.2,0
					c0.1,0,0.1-0.1,0.2-0.1s0.1-0.1,0.2-0.2c0.1-0.1,0.1-0.2,0.2-0.3l-0.9-2.4h0.5l0.6,1.6l0.1,0.4l0.1-0.4l0.6-1.6L176.9,46.2
					L176.9,46.2z"/>
				<path class="st13" d="M179.5,48.6H179l-1.1-1.3v1.3h-0.4v-2.4h0.4v1.1l1.1-1.1h0.5l-1.1,1.1L179.5,48.6z"/>
				<path class="st13" d="M182.1,46.6h-0.9v2h-0.4v-2h-0.9v-0.4h2.2L182.1,46.6L182.1,46.6z"/>
			</g>
			<g>
				<rect x="225" y="102.2" class="st12" width="24.9" height="4.3"/>
				<path class="st13" d="M230.6,105.5h-0.4v-2.7h-1.3v2.7h-0.4v-3.1h2.1L230.6,105.5L230.6,105.5z"/>
				<path class="st13" d="M233.3,104.3c0,0.2,0,0.4-0.1,0.6c-0.1,0.2-0.1,0.3-0.2,0.4c-0.1,0.1-0.2,0.2-0.4,0.2s-0.3,0.1-0.5,0.1
					c-0.1,0-0.1,0-0.2,0s-0.1,0-0.2,0v1h-0.4v-3.3h0.4l0,0.4c0.1-0.2,0.2-0.3,0.4-0.3s0.3-0.1,0.4-0.1c0.1,0,0.3,0,0.4,0.1
					s0.2,0.1,0.3,0.2c0.1,0.1,0.1,0.2,0.2,0.4C233.2,103.9,233.3,104.1,233.3,104.3z M232.8,104.3c0-0.1,0-0.2,0-0.3
					c0-0.1,0-0.2-0.1-0.3s-0.1-0.1-0.1-0.2c-0.1,0-0.1-0.1-0.2-0.1c-0.1,0-0.1,0-0.2,0s-0.1,0-0.2,0.1c-0.1,0-0.1,0.1-0.2,0.2
					c-0.1,0.1-0.1,0.1-0.2,0.2v1.2c0.1,0,0.2,0.1,0.2,0.1s0.2,0,0.2,0c0.2,0,0.4-0.1,0.5-0.2S232.8,104.6,232.8,104.3z"/>
				<path class="st13" d="M235.9,104.3c0,0.2,0,0.4-0.1,0.5c-0.1,0.2-0.1,0.3-0.2,0.4c-0.1,0.1-0.2,0.2-0.4,0.3
					c-0.1,0.1-0.3,0.1-0.5,0.1c-0.2,0-0.3,0-0.5-0.1c-0.1-0.1-0.2-0.1-0.3-0.2s-0.2-0.2-0.2-0.4c0-0.2-0.1-0.3-0.1-0.5
					c0-0.2,0-0.4,0.1-0.5s0.1-0.3,0.2-0.4s0.2-0.2,0.4-0.3c0.1-0.1,0.3-0.1,0.5-0.1c0.2,0,0.3,0,0.5,0.1c0.1,0.1,0.2,0.1,0.3,0.2
					c0.1,0.1,0.2,0.2,0.2,0.4C235.9,103.9,235.9,104.1,235.9,104.3z M235.5,104.3c0-0.1,0-0.3,0-0.4s-0.1-0.2-0.1-0.3
					c-0.1-0.1-0.1-0.1-0.2-0.2c-0.1,0-0.2-0.1-0.3-0.1c-0.1,0-0.2,0-0.3,0.1c-0.1,0-0.2,0.1-0.2,0.2c-0.1,0.1-0.1,0.2-0.1,0.3
					c0,0.1,0,0.2,0,0.3c0,0.1,0,0.3,0,0.4s0.1,0.2,0.1,0.3c0.1,0.1,0.1,0.1,0.2,0.2c0.1,0,0.2,0.1,0.3,0.1c0.1,0,0.2,0,0.3-0.1
					c0.1,0,0.2-0.1,0.2-0.2s0.1-0.2,0.1-0.3C235.5,104.6,235.5,104.4,235.5,104.3z"/>
				<path class="st13" d="M238.7,105.2l0,1h-0.4v-0.6h-1.7v0.6h-0.4l0-1h0c0.1,0,0.1,0,0.2,0c0.1,0,0.1-0.1,0.1-0.1
					c0-0.1,0.1-0.1,0.1-0.2s0.1-0.2,0.1-0.4c0-0.1,0.1-0.3,0.1-0.5c0-0.2,0-0.5,0.1-0.8h1.5v2C238.4,105.2,238.7,105.2,238.7,105.2z
					 M238,103.5h-0.7c0,0.3,0,0.5-0.1,0.7c0,0.2-0.1,0.4-0.1,0.5c0,0.1-0.1,0.2-0.1,0.3c0,0.1-0.1,0.1-0.1,0.2h1.1L238,103.5
					L238,103.5z"/>
				<path class="st13" d="M241.3,103.1l-0.8,2.1c-0.1,0.2-0.2,0.4-0.3,0.6c-0.1,0.2-0.2,0.3-0.3,0.4c-0.1,0.1-0.2,0.2-0.3,0.2
					c-0.1,0-0.3,0.1-0.4,0.1c0,0-0.1,0-0.1,0c0,0-0.1,0-0.1,0v-0.4c0,0,0.1,0,0.1,0c0,0,0.1,0,0.1,0c0.1,0,0.1,0,0.2,0
					c0.1,0,0.1-0.1,0.2-0.1s0.1-0.1,0.2-0.2c0.1-0.1,0.1-0.2,0.2-0.3l-0.9-2.4h0.5l0.6,1.6l0.1,0.4l0.1-0.4l0.6-1.6L241.3,103.1
					L241.3,103.1z"/>
				<path class="st13" d="M243.9,105.5h-0.6l-1.1-1.3v1.3h-0.4v-2.4h0.4v1.1l1.1-1.1h0.5l-1.1,1.1L243.9,105.5z"/>
				<path class="st13" d="M246.5,103.5h-0.9v2h-0.4v-2h-0.9v-0.4h2.2L246.5,103.5L246.5,103.5z"/>
			</g>
			<g>
				<polygon class="st5" points="167,66.8 141.1,66.8 136,61.2 141.1,55.6 167,55.6 172.2,61.1 				"/>
				<g>
					<polyline class="st6" points="167.6,66.1 167,66.8 166.1,66.8 					"/>
					<line class="st17" x1="164.5" y1="66.8" x2="142.8" y2="66.8"/>
					<polyline class="st6" points="142,66.8 141.1,66.8 140.5,66.1 					"/>
					<line class="st18" x1="139.2" y1="64.7" x2="137.2" y2="62.5"/>
					<polyline class="st6" points="136.6,61.8 136,61.2 136.6,60.5 					"/>
					<line class="st19" x1="137.9" y1="59.1" x2="139.9" y2="56.9"/>
					<polyline class="st6" points="140.6,56.2 141.1,55.6 142,55.6 					"/>
					<line class="st17" x1="143.6" y1="55.6" x2="165.4" y2="55.6"/>
					<polyline class="st6" points="166.2,55.6 167,55.6 167.6,56.2 					"/>
					<line class="st20" x1="168.9" y1="57.6" x2="170.9" y2="59.8"/>
					<polyline class="st6" points="171.6,60.5 172.2,61.1 171.6,61.8 					"/>
					<line class="st21" x1="170.2" y1="63.2" x2="168.2" y2="65.4"/>
				</g>
			</g>
			<g>
				<rect x="141.6" y="57.2" class="st12" width="24.9" height="8"/>
				<path class="st13" d="M146,60.5h-0.5l-1.1-1.5v1.5h-0.4v-3.1h0.4v1.4l1.1-1.4h0.5l-1.2,1.5L146,60.5z"/>
				<path class="st13" d="M148.6,59.3c0,0.2,0,0.4-0.1,0.5s-0.1,0.3-0.2,0.4c-0.1,0.1-0.2,0.2-0.4,0.3c-0.1,0.1-0.3,0.1-0.5,0.1
					c-0.2,0-0.3,0-0.5-0.1c-0.1-0.1-0.2-0.1-0.3-0.2s-0.2-0.2-0.2-0.4c0-0.2-0.1-0.3-0.1-0.5c0-0.2,0-0.4,0.1-0.5s0.1-0.3,0.2-0.4
					s0.2-0.2,0.4-0.3c0.1-0.1,0.3-0.1,0.5-0.1c0.2,0,0.3,0,0.5,0.1c0.1,0.1,0.2,0.1,0.3,0.2c0.1,0.1,0.2,0.2,0.2,0.4
					C148.6,58.9,148.6,59.1,148.6,59.3z M148.2,59.3c0-0.1,0-0.3,0-0.4s-0.1-0.2-0.1-0.3c-0.1-0.1-0.1-0.1-0.2-0.2
					c-0.1,0-0.2-0.1-0.3-0.1c-0.1,0-0.2,0-0.3,0.1c-0.1,0-0.2,0.1-0.2,0.2c-0.1,0.1-0.1,0.2-0.1,0.3c0,0.1,0,0.2,0,0.3
					c0,0.1,0,0.3,0,0.4s0.1,0.2,0.1,0.3c0.1,0.1,0.1,0.1,0.2,0.2c0.1,0,0.2,0.1,0.3,0.1c0.1,0,0.2,0,0.3-0.1c0.1,0,0.2-0.1,0.2-0.2
					s0.1-0.2,0.1-0.3C148.2,59.6,148.2,59.5,148.2,59.3z"/>
				<path class="st13" d="M151.1,60.5h-0.4v-1.1h-1.1v1.1h-0.4v-2.4h0.4v1h1.1v-1h0.4V60.5z"/>
				<path class="st13" d="M153.8,59.2c0,0.1,0,0.1,0,0.1c0,0,0,0.1,0,0.1h-1.7c0,0.2,0.1,0.4,0.2,0.6c0.1,0.1,0.3,0.2,0.6,0.2
					c0.1,0,0.1,0,0.2,0c0.1,0,0.1,0,0.2,0c0.1,0,0.1,0,0.2,0s0.1,0,0.2,0v0.3c-0.1,0-0.2,0.1-0.4,0.1c-0.1,0-0.3,0-0.4,0
					c-0.2,0-0.4,0-0.5-0.1c-0.1-0.1-0.3-0.1-0.4-0.2c-0.1-0.1-0.2-0.2-0.2-0.4c0-0.2-0.1-0.3-0.1-0.5c0-0.2,0-0.3,0.1-0.5
					s0.1-0.3,0.2-0.4c0.1-0.1,0.2-0.2,0.3-0.3s0.3-0.1,0.5-0.1c0.2,0,0.3,0,0.4,0.1c0.1,0.1,0.2,0.1,0.3,0.2
					c0.1,0.1,0.2,0.2,0.2,0.3C153.8,58.9,153.8,59,153.8,59.2z M153.4,59.2c0-0.1,0-0.2,0-0.3c0-0.1-0.1-0.2-0.1-0.2
					c-0.1-0.1-0.1-0.1-0.2-0.1s-0.2-0.1-0.3-0.1c-0.1,0-0.2,0-0.2,0.1c-0.1,0-0.1,0.1-0.2,0.1c-0.1,0.1-0.1,0.1-0.1,0.2
					c0,0.1-0.1,0.2-0.1,0.3C152.1,59.2,153.4,59.2,153.4,59.2z"/>
				<path class="st13" d="M155.9,59.6h-0.5c-0.4,0-0.6-0.1-0.8-0.2c-0.2-0.1-0.3-0.3-0.3-0.6v-0.7h0.4v0.6c0,0.1,0,0.2,0,0.2
					c0,0.1,0.1,0.1,0.1,0.2c0.1,0,0.1,0.1,0.2,0.1c0.1,0,0.2,0,0.3,0h0.4v-1.1h0.4v2.4h-0.4L155.9,59.6L155.9,59.6z"/>
				<path class="st13" d="M159,60.5h-0.4v-1.1h-1.1v1.1h-0.4v-2.4h0.4v1h1.1v-1h0.4V60.5z"/>
				<path class="st13" d="M159.9,59.1c0.1,0,0.1,0,0.2,0c0,0,0.1,0,0.2,0c0.1,0,0.3,0,0.4,0.1c0.1,0,0.2,0.1,0.3,0.1
					c0.1,0.1,0.1,0.1,0.2,0.2c0,0.1,0.1,0.2,0.1,0.3c0,0.1,0,0.2-0.1,0.3s-0.1,0.2-0.2,0.2s-0.2,0.1-0.3,0.1s-0.2,0-0.4,0
					c-0.1,0-0.2,0-0.3,0c-0.1,0-0.2,0-0.3,0v-2.4h0.4L159.9,59.1L159.9,59.1z M160.7,59.8c0-0.1,0-0.2-0.1-0.3s-0.2-0.1-0.4-0.1
					c0,0-0.1,0-0.1,0s-0.1,0-0.1,0v0.8c0.1,0,0.1,0,0.1,0c0,0,0.1,0,0.1,0c0.1,0,0.2,0,0.2,0s0.1-0.1,0.1-0.1c0,0,0.1-0.1,0.1-0.1
					C160.7,59.9,160.7,59.8,160.7,59.8z M161.4,60.5v-2.4h0.4v2.4H161.4z"/>
				<path class="st13" d="M162.8,58.1v1.7l1-1.7h0.4v2.4h-0.4v-1.7l-1,1.7h-0.4v-2.4H162.8z M164,57.2c0,0.1,0,0.2-0.1,0.2
					s-0.1,0.1-0.1,0.2c-0.1,0.1-0.1,0.1-0.2,0.1c-0.1,0-0.2,0-0.3,0c-0.1,0-0.2,0-0.3,0c-0.1,0-0.2-0.1-0.2-0.1
					c-0.1-0.1-0.1-0.1-0.1-0.2s0-0.2,0-0.2h0.4c0,0,0,0.1,0,0.1c0,0,0,0.1,0.1,0.1c0,0,0.1,0.1,0.1,0.1c0,0,0.1,0,0.2,0
					c0.1,0,0.1,0,0.2,0c0,0,0.1,0,0.1-0.1c0,0,0-0.1,0.1-0.1c0,0,0-0.1,0-0.1H164z"/>
				<path class="st13" d="M147.1,64.3h-0.4v-2h-1.1v2h-0.4V62h1.9L147.1,64.3L147.1,64.3z"/>
				<path class="st13" d="M149.9,63.1c0,0.2,0,0.4-0.1,0.6c-0.1,0.2-0.1,0.3-0.2,0.4c-0.1,0.1-0.2,0.2-0.4,0.2s-0.3,0.1-0.5,0.1
					c-0.1,0-0.1,0-0.2,0s-0.1,0-0.2,0v1h-0.4V62h0.4l0,0.4c0.1-0.2,0.2-0.3,0.4-0.3s0.3-0.1,0.4-0.1c0.1,0,0.3,0,0.4,0.1
					s0.2,0.1,0.3,0.2c0.1,0.1,0.1,0.2,0.2,0.4C149.8,62.8,149.9,62.9,149.9,63.1z M149.4,63.1c0-0.1,0-0.2,0-0.3
					c0-0.1,0-0.2-0.1-0.3s-0.1-0.1-0.1-0.2c-0.1,0-0.1-0.1-0.2-0.1c-0.1,0-0.1,0-0.2,0c-0.1,0-0.1,0-0.2,0.1c-0.1,0-0.1,0.1-0.2,0.2
					c-0.1,0.1-0.1,0.1-0.2,0.2v1.2c0.1,0,0.2,0.1,0.2,0.1c0.1,0,0.2,0,0.2,0c0.2,0,0.4-0.1,0.5-0.2S149.4,63.4,149.4,63.1z"/>
				<path class="st13" d="M152.5,63.1c0,0.2,0,0.4-0.1,0.5s-0.1,0.3-0.2,0.4c-0.1,0.1-0.2,0.2-0.4,0.3c-0.1,0.1-0.3,0.1-0.5,0.1
					c-0.2,0-0.3,0-0.5-0.1c-0.1-0.1-0.2-0.1-0.3-0.2s-0.2-0.2-0.2-0.4c0-0.2-0.1-0.3-0.1-0.5c0-0.2,0-0.4,0.1-0.5s0.1-0.3,0.2-0.4
					s0.2-0.2,0.4-0.3c0.1-0.1,0.3-0.1,0.5-0.1c0.2,0,0.3,0,0.5,0.1c0.1,0.1,0.2,0.1,0.3,0.2c0.1,0.1,0.2,0.2,0.2,0.4
					C152.5,62.8,152.5,62.9,152.5,63.1z M152.1,63.1c0-0.1,0-0.3,0-0.4s-0.1-0.2-0.1-0.3c-0.1-0.1-0.1-0.1-0.2-0.2
					c-0.1,0-0.2-0.1-0.3-0.1c-0.1,0-0.2,0-0.3,0.1c-0.1,0-0.2,0.1-0.2,0.2c-0.1,0.1-0.1,0.2-0.1,0.3c0,0.1,0,0.2,0,0.3
					c0,0.1,0,0.3,0,0.4s0.1,0.2,0.1,0.3c0.1,0.1,0.1,0.1,0.2,0.2c0.1,0,0.2,0.1,0.3,0.1c0.1,0,0.2,0,0.3-0.1c0.1,0,0.2-0.1,0.2-0.2
					s0.1-0.2,0.1-0.3C152.1,63.4,152.1,63.3,152.1,63.1z"/>
				<path class="st13" d="M155.3,64l0,1h-0.4v-0.6h-1.7v0.6h-0.4l0-1h0c0.1,0,0.1,0,0.2,0c0.1,0,0.1-0.1,0.1-0.1
					c0-0.1,0.1-0.1,0.1-0.2s0.1-0.2,0.1-0.4c0-0.1,0.1-0.3,0.1-0.5c0-0.2,0-0.5,0.1-0.8h1.5v2C155,64,155.3,64,155.3,64z
					 M154.6,62.3h-0.7c0,0.3,0,0.5-0.1,0.7c0,0.2-0.1,0.4-0.1,0.5c0,0.1-0.1,0.2-0.1,0.3c0,0.1-0.1,0.1-0.1,0.2h1.1L154.6,62.3
					L154.6,62.3z"/>
				<path class="st13" d="M157.9,62l-0.8,2.1c-0.1,0.2-0.2,0.4-0.3,0.6c-0.1,0.2-0.2,0.3-0.3,0.4c-0.1,0.1-0.2,0.2-0.3,0.2
					c-0.1,0-0.3,0.1-0.4,0.1c0,0-0.1,0-0.1,0c0,0-0.1,0-0.1,0v-0.4c0,0,0.1,0,0.1,0c0,0,0.1,0,0.1,0c0.1,0,0.1,0,0.2,0
					c0.1,0,0.1-0.1,0.2-0.1s0.1-0.1,0.2-0.2c0.1-0.1,0.1-0.2,0.2-0.3l-0.9-2.4h0.5l0.6,1.6l0.1,0.4l0.1-0.4l0.6-1.6L157.9,62
					L157.9,62z"/>
				<path class="st13" d="M160.5,64.3H160l-1.1-1.3v1.3h-0.4V62h0.4V63l1.1-1.1h0.5l-1.1,1.1L160.5,64.3z"/>
				<path class="st13" d="M163.1,62.3h-0.9v2h-0.4v-2h-0.9V62h2.2L163.1,62.3L163.1,62.3z"/>
			</g>
			<g>
				<polygon class="st5" points="201,84.8 175.1,84.8 170,79.3 175.1,73.7 201,73.7 206.1,79.2 				"/>
				<g>
					<polyline class="st6" points="201.5,84.2 201,84.8 200.1,84.8 					"/>
					<line class="st7" x1="198.5" y1="84.8" x2="176.7" y2="84.8"/>
					<polyline class="st6" points="175.9,84.8 175.1,84.8 174.5,84.2 					"/>
					<line class="st22" x1="173.2" y1="82.8" x2="171.2" y2="80.6"/>
					<polyline class="st6" points="170.5,79.9 170,79.3 170.5,78.6 					"/>
					<line class="st23" x1="171.9" y1="77.2" x2="173.9" y2="75"/>
					<polyline class="st6" points="174.5,74.3 175.1,73.7 176,73.7 					"/>
					<line class="st17" x1="177.6" y1="73.7" x2="199.3" y2="73.7"/>
					<polyline class="st6" points="200.1,73.7 201,73.7 201.6,74.3 					"/>
					<line class="st20" x1="202.9" y1="75.7" x2="204.9" y2="77.8"/>
					<polyline class="st6" points="205.5,78.6 206.1,79.2 205.5,79.8 					"/>
					<line class="st24" x1="204.2" y1="81.3" x2="202.2" y2="83.5"/>
				</g>
			</g>
			<g>
				<rect x="175.6" y="75.3" class="st12" width="24.9" height="8"/>
				<path class="st13" d="M179.9,78.6h-0.5l-1.1-1.5v1.5h-0.4v-3.1h0.4v1.4l1.1-1.4h0.5l-1.2,1.5L179.9,78.6z"/>
				<path class="st13" d="M182.5,77.4c0,0.2,0,0.4-0.1,0.5c-0.1,0.2-0.1,0.3-0.2,0.4c-0.1,0.1-0.2,0.2-0.4,0.3
					c-0.1,0.1-0.3,0.1-0.5,0.1c-0.2,0-0.3,0-0.5-0.1c-0.1-0.1-0.2-0.1-0.3-0.2s-0.2-0.2-0.2-0.4c0-0.2-0.1-0.3-0.1-0.5
					c0-0.2,0-0.4,0.1-0.5s0.1-0.3,0.2-0.4s0.2-0.2,0.4-0.3c0.1-0.1,0.3-0.1,0.5-0.1c0.2,0,0.3,0,0.5,0.1c0.1,0.1,0.2,0.1,0.3,0.2
					c0.1,0.1,0.2,0.2,0.2,0.4C182.5,77,182.5,77.2,182.5,77.4z M182.1,77.4c0-0.1,0-0.3,0-0.4s-0.1-0.2-0.1-0.3
					c-0.1-0.1-0.1-0.1-0.2-0.2c-0.1,0-0.2-0.1-0.3-0.1c-0.1,0-0.2,0-0.3,0.1c-0.1,0-0.2,0.1-0.2,0.2c-0.1,0.1-0.1,0.2-0.1,0.3
					c0,0.1,0,0.2,0,0.3c0,0.1,0,0.3,0,0.4s0.1,0.2,0.1,0.3c0.1,0.1,0.1,0.1,0.2,0.2c0.1,0,0.2,0.1,0.3,0.1c0.1,0,0.2,0,0.3-0.1
					c0.1,0,0.2-0.1,0.2-0.2s0.1-0.2,0.1-0.3C182.1,77.6,182.1,77.5,182.1,77.4z"/>
				<path class="st13" d="M185,78.6h-0.4v-1.1h-1.1v1.1h-0.4v-2.4h0.4v1h1.1v-1h0.4V78.6z"/>
				<path class="st13" d="M187.8,77.3c0,0.1,0,0.1,0,0.1c0,0,0,0.1,0,0.1h-1.7c0,0.2,0.1,0.4,0.2,0.6c0.1,0.1,0.3,0.2,0.6,0.2
					c0.1,0,0.1,0,0.2,0c0.1,0,0.1,0,0.2,0c0.1,0,0.1,0,0.2,0s0.1,0,0.2,0v0.3c-0.1,0-0.2,0.1-0.4,0.1c-0.1,0-0.3,0-0.4,0
					c-0.2,0-0.4,0-0.5-0.1c-0.1-0.1-0.3-0.1-0.4-0.2c-0.1-0.1-0.2-0.2-0.2-0.4c0-0.2-0.1-0.3-0.1-0.5c0-0.2,0-0.3,0.1-0.5
					s0.1-0.3,0.2-0.4c0.1-0.1,0.2-0.2,0.3-0.3c0.1-0.1,0.3-0.1,0.5-0.1c0.2,0,0.3,0,0.4,0.1c0.1,0.1,0.2,0.1,0.3,0.2
					c0.1,0.1,0.2,0.2,0.2,0.3C187.7,77,187.8,77.1,187.8,77.3z M187.3,77.2c0-0.1,0-0.2,0-0.3c0-0.1-0.1-0.2-0.1-0.2
					c-0.1-0.1-0.1-0.1-0.2-0.1s-0.2-0.1-0.3-0.1c-0.1,0-0.2,0-0.2,0.1c-0.1,0-0.1,0.1-0.2,0.1c-0.1,0.1-0.1,0.1-0.1,0.2
					c0,0.1-0.1,0.2-0.1,0.3H187.3z"/>
				<path class="st13" d="M189.9,77.7h-0.5c-0.4,0-0.6-0.1-0.8-0.2c-0.2-0.1-0.3-0.3-0.3-0.6v-0.7h0.4v0.6c0,0.1,0,0.2,0,0.2
					c0,0.1,0.1,0.1,0.1,0.2c0.1,0,0.1,0.1,0.2,0.1c0.1,0,0.2,0,0.3,0h0.4v-1.1h0.4v2.4h-0.4L189.9,77.7L189.9,77.7z"/>
				<path class="st13" d="M192.9,78.6h-0.4v-1.1h-1.1v1.1h-0.4v-2.4h0.4v1h1.1v-1h0.4V78.6z"/>
				<path class="st13" d="M193.9,77.1c0.1,0,0.1,0,0.2,0c0,0,0.1,0,0.2,0c0.1,0,0.3,0,0.4,0.1c0.1,0,0.2,0.1,0.3,0.1
					c0.1,0.1,0.1,0.1,0.2,0.2c0,0.1,0.1,0.2,0.1,0.3c0,0.1,0,0.2-0.1,0.3s-0.1,0.2-0.2,0.2s-0.2,0.1-0.3,0.1s-0.2,0.1-0.4,0.1
					c-0.1,0-0.2,0-0.3,0c-0.1,0-0.2,0-0.3,0v-2.4h0.4L193.9,77.1L193.9,77.1z M194.7,77.9c0-0.1,0-0.2-0.1-0.3s-0.2-0.1-0.4-0.1
					c0,0-0.1,0-0.1,0s-0.1,0-0.1,0v0.8c0.1,0,0.1,0,0.1,0c0,0,0.1,0,0.1,0c0.1,0,0.2,0,0.2,0s0.1-0.1,0.1-0.1c0,0,0.1-0.1,0.1-0.1
					C194.7,78,194.7,77.9,194.7,77.9z M195.4,78.6v-2.4h0.4v2.4H195.4z"/>
				<path class="st13" d="M196.8,76.2v1.7l1-1.7h0.4v2.4h-0.4v-1.7l-1,1.7h-0.4v-2.4H196.8z M198,75.3c0,0.1,0,0.2-0.1,0.2
					s-0.1,0.1-0.1,0.2c-0.1,0.1-0.1,0.1-0.2,0.1c-0.1,0-0.2,0-0.3,0c-0.1,0-0.2,0-0.3,0c-0.1,0-0.2-0.1-0.2-0.1
					c-0.1-0.1-0.1-0.1-0.1-0.2s0-0.2,0-0.2h0.4c0,0,0,0.1,0,0.1c0,0,0,0.1,0.1,0.1c0,0,0.1,0.1,0.1,0.1c0,0,0.1,0,0.2,0
					c0.1,0,0.1,0,0.2,0c0,0,0.1,0,0.1-0.1c0,0,0-0.1,0.1-0.1c0,0,0-0.1,0-0.1H198z"/>
				<path class="st13" d="M181.1,82.4h-0.4v-2h-1.1v2h-0.4V80h1.9L181.1,82.4L181.1,82.4z"/>
				<path class="st13" d="M183.8,81.2c0,0.2,0,0.4-0.1,0.6c-0.1,0.2-0.1,0.3-0.2,0.4c-0.1,0.1-0.2,0.2-0.4,0.2s-0.3,0.1-0.5,0.1
					c-0.1,0-0.1,0-0.2,0s-0.1,0-0.2,0v1h-0.4V80h0.4l0,0.4c0.1-0.2,0.2-0.3,0.4-0.3s0.3-0.1,0.4-0.1c0.1,0,0.3,0,0.4,0.1
					s0.2,0.1,0.3,0.2c0.1,0.1,0.1,0.2,0.2,0.4C183.8,80.8,183.8,81,183.8,81.2z M183.4,81.2c0-0.1,0-0.2,0-0.3c0-0.1,0-0.2-0.1-0.3
					s-0.1-0.1-0.1-0.2c-0.1,0-0.1-0.1-0.2-0.1c-0.1,0-0.1,0-0.2,0s-0.1,0-0.2,0.1c-0.1,0-0.1,0.1-0.2,0.2c-0.1,0.1-0.1,0.1-0.2,0.2
					V82c0.1,0,0.2,0.1,0.2,0.1s0.2,0,0.2,0c0.2,0,0.4-0.1,0.5-0.2S183.4,81.5,183.4,81.2z"/>
				<path class="st13" d="M186.5,81.2c0,0.2,0,0.4-0.1,0.5c-0.1,0.2-0.1,0.3-0.2,0.4c-0.1,0.1-0.2,0.2-0.4,0.3
					c-0.1,0.1-0.3,0.1-0.5,0.1c-0.2,0-0.3,0-0.5-0.1c-0.1-0.1-0.2-0.1-0.3-0.2s-0.2-0.2-0.2-0.4c0-0.2-0.1-0.3-0.1-0.5
					c0-0.2,0-0.4,0.1-0.5s0.1-0.3,0.2-0.4s0.2-0.2,0.4-0.3c0.1-0.1,0.3-0.1,0.5-0.1c0.2,0,0.3,0,0.5,0.1c0.1,0.1,0.2,0.1,0.3,0.2
					c0.1,0.1,0.2,0.2,0.2,0.4C186.5,80.8,186.5,81,186.5,81.2z M186.1,81.2c0-0.1,0-0.3,0-0.4s-0.1-0.2-0.1-0.3
					c-0.1-0.1-0.1-0.1-0.2-0.2c-0.1,0-0.2-0.1-0.3-0.1c-0.1,0-0.2,0-0.3,0.1c-0.1,0-0.2,0.1-0.2,0.2c-0.1,0.1-0.1,0.2-0.1,0.3
					c0,0.1,0,0.2,0,0.3c0,0.1,0,0.3,0,0.4s0.1,0.2,0.1,0.3C185,82,185,82,185.1,82c0.1,0,0.2,0.1,0.3,0.1c0.1,0,0.2,0,0.3-0.1
					c0.1,0,0.2-0.1,0.2-0.2s0.1-0.2,0.1-0.3C186.1,81.5,186.1,81.3,186.1,81.2z"/>
				<path class="st13" d="M189.3,82.1l0,1h-0.4v-0.6h-1.7V83h-0.4l0-1h0c0.1,0,0.1,0,0.2,0c0.1,0,0.1-0.1,0.1-0.1
					c0-0.1,0.1-0.1,0.1-0.2s0.1-0.2,0.1-0.4c0-0.1,0.1-0.3,0.1-0.5c0-0.2,0-0.5,0.1-0.8h1.5v2H189.3z M188.5,80.4h-0.7
					c0,0.3,0,0.5-0.1,0.7c0,0.2-0.1,0.4-0.1,0.5c0,0.1-0.1,0.2-0.1,0.3c0,0.1-0.1,0.1-0.1,0.2h1.1L188.5,80.4L188.5,80.4z"/>
				<path class="st13" d="M191.8,80l-0.8,2.1c-0.1,0.2-0.2,0.4-0.3,0.6c-0.1,0.2-0.2,0.3-0.3,0.4c-0.1,0.1-0.2,0.2-0.3,0.2
					c-0.1,0-0.3,0.1-0.4,0.1c0,0-0.1,0-0.1,0c0,0-0.1,0-0.1,0V83c0,0,0.1,0,0.1,0c0,0,0.1,0,0.1,0c0.1,0,0.1,0,0.2,0
					c0.1,0,0.1-0.1,0.2-0.1s0.1-0.1,0.2-0.2c0.1-0.1,0.1-0.2,0.2-0.3l-0.9-2.4h0.5l0.6,1.6l0.1,0.4l0.1-0.4l0.6-1.6L191.8,80
					L191.8,80z"/>
				<path class="st13" d="M194.5,82.4h-0.6l-1.1-1.3v1.3h-0.4V80h0.4v1.1l1.1-1.1h0.5l-1.1,1.1L194.5,82.4z"/>
				<path class="st13" d="M197.1,80.4h-0.9v2h-0.4v-2h-0.9V80h2.2L197.1,80.4L197.1,80.4z"/>
			</g>
			<polygon class="st4" points="130.4,85 104.5,85 99.4,79.4 104.5,73.8 130.4,73.8 135.5,79.3 			"/>
			<polygon class="st4" points="176.6,109.9 150.8,109.9 145.6,104.3 150.8,98.7 176.7,98.7 181.8,104.2 			"/>
			<polygon class="st4" points="103.1,109.9 77.2,109.9 72.1,104.3 77.2,98.7 103.1,98.7 108.2,104.2 			"/>
			<g>
				<rect x="75.7" y="100.1" class="st12" width="28.9" height="8.3"/>
				<path class="st13" d="M79.3,102.6c0,0.1,0,0.3-0.1,0.4c-0.1,0.1-0.1,0.2-0.2,0.3s-0.2,0.1-0.4,0.2s-0.3,0.1-0.5,0.1h-0.8v-3.1
					h0.9c0.7,0,1,0.3,1,0.8c0,0.2,0,0.3-0.1,0.4c-0.1,0.1-0.2,0.2-0.4,0.3c0.1,0,0.2,0,0.2,0.1s0.1,0.1,0.2,0.1
					c0.1,0.1,0.1,0.1,0.1,0.2C79.3,102.4,79.3,102.5,79.3,102.6z M78.8,101.2c0-0.1,0-0.1,0-0.2c0-0.1-0.1-0.1-0.1-0.1
					s-0.1-0.1-0.2-0.1c-0.1,0-0.2,0-0.3,0h-0.4v1h0.4c0.1,0,0.2,0,0.3,0c0.1,0,0.1-0.1,0.2-0.1c0.1,0,0.1-0.1,0.1-0.2
					C78.8,101.4,78.8,101.3,78.8,101.2z M78.9,102.6c0-0.1,0-0.1-0.1-0.2c0-0.1-0.1-0.1-0.1-0.2c-0.1,0-0.1-0.1-0.2-0.1
					c-0.1,0-0.2,0-0.3,0h-0.4v1.1h0.4c0.2,0,0.4,0,0.5-0.1C78.8,102.9,78.9,102.8,78.9,102.6z"/>
				<path class="st13" d="M81.9,103.5h-0.4v-1.1h-1.1v1.1H80v-2.4h0.4v1h1.1v-1h0.4V103.5z"/>
				<path class="st13" d="M84.7,101.1l-0.8,2.1c-0.1,0.2-0.2,0.4-0.3,0.6c-0.1,0.2-0.2,0.3-0.3,0.4c-0.1,0.1-0.2,0.2-0.3,0.2
					c-0.1,0-0.3,0.1-0.4,0.1c0,0-0.1,0-0.1,0c0,0-0.1,0-0.1,0v-0.4c0,0,0.1,0,0.1,0c0,0,0.1,0,0.1,0c0.1,0,0.1,0,0.2,0
					c0.1,0,0.1-0.1,0.2-0.1s0.1-0.1,0.2-0.2c0.1-0.1,0.1-0.2,0.2-0.3l-0.9-2.4h0.5l0.6,1.6l0.1,0.4l0.1-0.4l0.6-1.6L84.7,101.1
					L84.7,101.1z"/>
				<path class="st13" d="M87.3,101.5h-0.9v2H86v-2h-0.9v-0.4h2.2L87.3,101.5L87.3,101.5z"/>
				<path class="st13" d="M89.9,102.3c0,0.2,0,0.4-0.1,0.6s-0.1,0.3-0.2,0.4c-0.1,0.1-0.2,0.2-0.4,0.2s-0.3,0.1-0.5,0.1
					c-0.1,0-0.1,0-0.2,0s-0.1,0-0.2,0v1h-0.4v-3.3h0.4l0,0.4c0.1-0.2,0.2-0.3,0.4-0.3s0.3-0.1,0.4-0.1c0.1,0,0.3,0,0.4,0.1
					s0.2,0.1,0.3,0.2c0.1,0.1,0.1,0.2,0.2,0.4C89.9,101.9,89.9,102.1,89.9,102.3z M89.5,102.3c0-0.1,0-0.2,0-0.3
					c0-0.1,0-0.2-0.1-0.3s-0.1-0.1-0.2-0.2c-0.1,0-0.1-0.1-0.2-0.1c-0.1,0-0.1,0-0.2,0s-0.1,0-0.2,0.1c-0.1,0-0.1,0.1-0.2,0.2
					c-0.1,0.1-0.1,0.1-0.2,0.2v1.2c0.1,0,0.2,0.1,0.2,0.1s0.2,0,0.2,0c0.2,0,0.4-0.1,0.5-0.2S89.5,102.6,89.5,102.3z"/>
				<path class="st13" d="M92.5,102.2c0,0.1,0,0.1,0,0.1c0,0,0,0.1,0,0.1h-1.7c0,0.2,0.1,0.4,0.2,0.6c0.1,0.1,0.3,0.2,0.6,0.2
					c0.1,0,0.1,0,0.2,0c0.1,0,0.1,0,0.2,0c0.1,0,0.1,0,0.2,0s0.1,0,0.2,0v0.3c-0.1,0-0.2,0.1-0.4,0.1c-0.1,0-0.3,0-0.4,0
					c-0.2,0-0.4,0-0.5-0.1c-0.1-0.1-0.3-0.1-0.4-0.2c-0.1-0.1-0.2-0.2-0.2-0.4c0-0.2-0.1-0.3-0.1-0.5c0-0.2,0-0.3,0.1-0.5
					s0.1-0.3,0.2-0.4c0.1-0.1,0.2-0.2,0.3-0.3c0.1-0.1,0.3-0.1,0.5-0.1c0.2,0,0.3,0,0.4,0.1c0.1,0.1,0.2,0.1,0.3,0.2
					c0.1,0.1,0.2,0.2,0.2,0.3C92.5,101.8,92.5,102,92.5,102.2z M92.1,102.1c0-0.1,0-0.2,0-0.3c0-0.1-0.1-0.2-0.1-0.2
					c-0.1-0.1-0.1-0.1-0.2-0.1s-0.2-0.1-0.3-0.1c-0.1,0-0.2,0-0.2,0.1c-0.1,0-0.1,0.1-0.2,0.1c-0.1,0.1-0.1,0.1-0.1,0.2
					c0,0.1-0.1,0.2-0.1,0.3H92.1z"/>
				<path class="st13" d="M95.1,103.5h-0.4v-1.1h-1.1v1.1h-0.4v-2.4h0.4v1h1.1v-1h0.4V103.5z"/>
				<path class="st13" d="M97.7,103.5h-0.4v-1.1h-1.1v1.1h-0.4v-2.4h0.4v1h1.1v-1h0.4V103.5z"/>
				<path class="st13" d="M98.9,101.1v1.7l1-1.7h0.4v2.4h-0.4v-1.7l-1,1.7h-0.4v-2.4H98.9z"/>
				<path class="st13" d="M101.5,101.1v1.7l1-1.7h0.4v2.4h-0.4v-1.7l-1,1.7h-0.4v-2.4H101.5z M102.7,100.2c0,0.1,0,0.2-0.1,0.2
					s-0.1,0.1-0.1,0.2c-0.1,0.1-0.1,0.1-0.2,0.1c-0.1,0-0.2,0-0.3,0c-0.1,0-0.2,0-0.3,0c-0.1,0-0.2-0.1-0.2-0.1
					c-0.1-0.1-0.1-0.1-0.1-0.2s0-0.2,0-0.2h0.4c0,0,0,0.1,0,0.1c0,0,0,0.1,0.1,0.1c0,0,0.1,0.1,0.1,0.1c0,0,0.1,0,0.2,0
					c0.1,0,0.1,0,0.2,0c0,0,0.1,0,0.1-0.1c0,0,0-0.1,0.1-0.1c0,0,0-0.1,0-0.1H102.7z"/>
				<path class="st13" d="M83.2,107.3h-0.4v-2h-1.1v2h-0.4v-2.4h1.9L83.2,107.3L83.2,107.3z"/>
				<path class="st13" d="M85.9,106.1c0,0.2,0,0.4-0.1,0.6s-0.1,0.3-0.2,0.4c-0.1,0.1-0.2,0.2-0.4,0.2s-0.3,0.1-0.5,0.1
					c-0.1,0-0.1,0-0.2,0s-0.1,0-0.2,0v1h-0.4v-3.3h0.4l0,0.4c0.1-0.2,0.2-0.3,0.4-0.3s0.3-0.1,0.4-0.1c0.1,0,0.3,0,0.4,0.1
					s0.2,0.1,0.3,0.2c0.1,0.1,0.1,0.2,0.2,0.4C85.9,105.7,85.9,105.9,85.9,106.1z M85.5,106.1c0-0.1,0-0.2,0-0.3
					c0-0.1,0-0.2-0.1-0.3s-0.1-0.1-0.2-0.2c-0.1,0-0.1-0.1-0.2-0.1c-0.1,0-0.1,0-0.2,0s-0.1,0-0.2,0.1c-0.1,0-0.1,0.1-0.2,0.2
					c-0.1,0.1-0.1,0.1-0.2,0.2v1.2c0.1,0,0.2,0.1,0.2,0.1s0.2,0,0.2,0c0.2,0,0.4-0.1,0.5-0.2S85.5,106.4,85.5,106.1z"/>
				<path class="st13" d="M88.6,106.1c0,0.2,0,0.4-0.1,0.5c-0.1,0.2-0.1,0.3-0.2,0.4c-0.1,0.1-0.2,0.2-0.4,0.3
					c-0.1,0.1-0.3,0.1-0.5,0.1c-0.2,0-0.3,0-0.5-0.1c-0.1-0.1-0.2-0.1-0.3-0.2s-0.2-0.2-0.2-0.4c0-0.2-0.1-0.3-0.1-0.5
					c0-0.2,0-0.4,0.1-0.5s0.1-0.3,0.2-0.4s0.2-0.2,0.4-0.3c0.1-0.1,0.3-0.1,0.5-0.1c0.2,0,0.3,0,0.5,0.1c0.1,0.1,0.2,0.1,0.3,0.2
					c0.1,0.1,0.2,0.2,0.2,0.4C88.6,105.7,88.6,105.9,88.6,106.1z M88.2,106.1c0-0.1,0-0.3,0-0.4s-0.1-0.2-0.1-0.3
					c-0.1-0.1-0.1-0.1-0.2-0.2c-0.1,0-0.2-0.1-0.3-0.1c-0.1,0-0.2,0-0.3,0.1c-0.1,0-0.2,0.1-0.2,0.2c-0.1,0.1-0.1,0.2-0.1,0.3
					c0,0.1,0,0.2,0,0.3c0,0.1,0,0.3,0,0.4s0.1,0.2,0.1,0.3c0.1,0.1,0.1,0.1,0.2,0.2c0.1,0,0.2,0.1,0.3,0.1c0.1,0,0.2,0,0.3-0.1
					c0.1,0,0.2-0.1,0.2-0.2s0.1-0.2,0.1-0.3C88.2,106.3,88.2,106.2,88.2,106.1z"/>
				<path class="st13" d="M91.4,106.9l0,1H91v-0.6h-1.7v0.6h-0.4l0-1h0c0.1,0,0.1,0,0.2,0c0.1,0,0.1-0.1,0.1-0.1
					c0-0.1,0.1-0.1,0.1-0.2s0.1-0.2,0.1-0.4c0-0.1,0.1-0.3,0.1-0.5c0-0.2,0-0.5,0.1-0.8h1.5v2H91.4z M90.6,105.3H90
					c0,0.3,0,0.5-0.1,0.7c0,0.2-0.1,0.4-0.1,0.5c0,0.1-0.1,0.2-0.1,0.3c0,0.1-0.1,0.1-0.1,0.2h1.1L90.6,105.3L90.6,105.3z"/>
				<path class="st13" d="M93.9,104.9l-0.8,2.1c-0.1,0.2-0.2,0.4-0.3,0.6c-0.1,0.2-0.2,0.3-0.3,0.4c-0.1,0.1-0.2,0.2-0.3,0.2
					c-0.1,0-0.3,0.1-0.4,0.1c0,0-0.1,0-0.1,0c0,0-0.1,0-0.1,0v-0.4c0,0,0.1,0,0.1,0c0,0,0.1,0,0.1,0c0.1,0,0.1,0,0.2,0
					c0.1,0,0.1-0.1,0.2-0.1s0.1-0.1,0.2-0.2c0.1-0.1,0.1-0.2,0.2-0.3l-0.9-2.4h0.5l0.6,1.6l0.1,0.4l0.1-0.4l0.6-1.6L93.9,104.9
					L93.9,104.9z"/>
				<path class="st13" d="M96.6,107.3H96l-1.1-1.3v1.3h-0.4v-2.4h0.4v1.1l1.1-1.1h0.5l-1.1,1.1L96.6,107.3z"/>
				<path class="st13" d="M99.2,105.3h-0.9v2h-0.4v-2H97v-0.4h2.2L99.2,105.3L99.2,105.3z"/>
			</g>
			<g>
				<rect x="149.3" y="100.1" class="st12" width="28.9" height="8.4"/>
				<path class="st13" d="M152.9,102.5c0,0.1,0,0.3-0.1,0.4c-0.1,0.1-0.1,0.2-0.2,0.3s-0.2,0.1-0.4,0.2s-0.3,0.1-0.5,0.1h-0.8v-3.1
					h0.9c0.7,0,1,0.3,1,0.8c0,0.2,0,0.3-0.1,0.4c-0.1,0.1-0.2,0.2-0.4,0.3c0.1,0,0.2,0,0.2,0.1s0.1,0.1,0.2,0.1
					c0.1,0.1,0.1,0.1,0.1,0.2C152.9,102.3,152.9,102.4,152.9,102.5z M152.4,101.2c0-0.1,0-0.1,0-0.2c0-0.1-0.1-0.1-0.1-0.1
					s-0.1-0.1-0.2-0.1c-0.1,0-0.2,0-0.3,0h-0.4v1h0.4c0.1,0,0.2,0,0.3,0c0.1,0,0.1-0.1,0.2-0.1c0.1,0,0.1-0.1,0.1-0.2
					C152.3,101.3,152.4,101.3,152.4,101.2z M152.5,102.6c0-0.1,0-0.1-0.1-0.2c0-0.1-0.1-0.1-0.1-0.2c-0.1,0-0.1-0.1-0.2-0.1
					c-0.1,0-0.2,0-0.3,0h-0.4v1.1h0.4c0.2,0,0.4,0,0.5-0.1C152.4,102.9,152.5,102.7,152.5,102.6z"/>
				<path class="st13" d="M155.4,103.5H155v-1.1h-1.1v1.1h-0.4v-2.4h0.4v1h1.1v-1h0.4V103.5z"/>
				<path class="st13" d="M158.3,101.1l-0.8,2.1c-0.1,0.2-0.2,0.4-0.3,0.6c-0.1,0.2-0.2,0.3-0.3,0.4c-0.1,0.1-0.2,0.2-0.3,0.2
					c-0.1,0-0.3,0.1-0.4,0.1c0,0-0.1,0-0.1,0c0,0-0.1,0-0.1,0v-0.4c0,0,0.1,0,0.1,0c0,0,0.1,0,0.1,0c0.1,0,0.1,0,0.2,0
					c0.1,0,0.1-0.1,0.2-0.1s0.1-0.1,0.2-0.2c0.1-0.1,0.1-0.2,0.2-0.3l-0.9-2.4h0.5l0.6,1.6l0.1,0.4l0.1-0.4l0.6-1.6L158.3,101.1
					L158.3,101.1z"/>
				<path class="st13" d="M160.9,101.4H160v2h-0.4v-2h-0.9v-0.4h2.2L160.9,101.4L160.9,101.4z"/>
				<path class="st13" d="M163.5,102.2c0,0.2,0,0.4-0.1,0.6c-0.1,0.2-0.1,0.3-0.2,0.4c-0.1,0.1-0.2,0.2-0.4,0.2s-0.3,0.1-0.5,0.1
					c-0.1,0-0.1,0-0.2,0s-0.1,0-0.2,0v1h-0.4v-3.3h0.4l0,0.4c0.1-0.2,0.2-0.3,0.4-0.3s0.3-0.1,0.4-0.1c0.1,0,0.3,0,0.4,0.1
					s0.2,0.1,0.3,0.2c0.1,0.1,0.1,0.2,0.2,0.4C163.4,101.9,163.5,102.1,163.5,102.2z M163,102.3c0-0.1,0-0.2,0-0.3
					c0-0.1,0-0.2-0.1-0.3s-0.1-0.1-0.1-0.2c-0.1,0-0.1-0.1-0.2-0.1c-0.1,0-0.1,0-0.2,0s-0.1,0-0.2,0.1c-0.1,0-0.1,0.1-0.2,0.2
					c-0.1,0.1-0.1,0.1-0.2,0.2v1.2c0.1,0,0.2,0.1,0.2,0.1s0.2,0,0.2,0c0.2,0,0.4-0.1,0.5-0.2S163,102.6,163,102.3z"/>
				<path class="st13" d="M166.1,102.2c0,0.1,0,0.1,0,0.1c0,0,0,0.1,0,0.1h-1.7c0,0.2,0.1,0.4,0.2,0.6c0.1,0.1,0.3,0.2,0.6,0.2
					c0.1,0,0.1,0,0.2,0c0.1,0,0.1,0,0.2,0c0.1,0,0.1,0,0.2,0s0.1,0,0.2,0v0.3c-0.1,0-0.2,0.1-0.4,0.1c-0.1,0-0.3,0-0.4,0
					c-0.2,0-0.4,0-0.5-0.1c-0.1-0.1-0.3-0.1-0.4-0.2c-0.1-0.1-0.2-0.2-0.2-0.4c0-0.2-0.1-0.3-0.1-0.5c0-0.2,0-0.3,0.1-0.5
					s0.1-0.3,0.2-0.4c0.1-0.1,0.2-0.2,0.3-0.3c0.1-0.1,0.3-0.1,0.5-0.1c0.2,0,0.3,0,0.4,0.1c0.1,0.1,0.2,0.1,0.3,0.2
					c0.1,0.1,0.2,0.2,0.2,0.3C166.1,101.8,166.1,102,166.1,102.2z M165.7,102.1c0-0.1,0-0.2,0-0.3c0-0.1-0.1-0.2-0.1-0.2
					c-0.1-0.1-0.1-0.1-0.2-0.1s-0.2-0.1-0.3-0.1c-0.1,0-0.2,0-0.2,0.1c-0.1,0-0.1,0.1-0.2,0.1c-0.1,0.1-0.1,0.1-0.1,0.2
					c0,0.1-0.1,0.2-0.1,0.3H165.7z"/>
				<path class="st13" d="M168.6,103.5h-0.4v-1.1h-1.1v1.1h-0.4v-2.4h0.4v1h1.1v-1h0.4V103.5z"/>
				<path class="st13" d="M171.3,103.5h-0.4v-1.1h-1.1v1.1h-0.4v-2.4h0.4v1h1.1v-1h0.4V103.5z"/>
				<path class="st13" d="M172.4,101.1v1.7l1-1.7h0.4v2.4h-0.4v-1.7l-1,1.7H172v-2.4H172.4z"/>
				<path class="st13" d="M175.1,101.1v1.7l1-1.7h0.4v2.4h-0.4v-1.7l-1,1.7h-0.4v-2.4H175.1z M176.3,100.2c0,0.1,0,0.2-0.1,0.2
					s-0.1,0.1-0.1,0.2c-0.1,0.1-0.1,0.1-0.2,0.1c-0.1,0-0.2,0-0.3,0c-0.1,0-0.2,0-0.3,0c-0.1,0-0.2-0.1-0.2-0.1
					c-0.1-0.1-0.1-0.1-0.1-0.2s0-0.2,0-0.2h0.4c0,0,0,0.1,0,0.1c0,0,0,0.1,0.1,0.1c0,0,0.1,0.1,0.1,0.1c0,0,0.1,0,0.2,0
					c0.1,0,0.1,0,0.2,0c0,0,0.1,0,0.1-0.1c0,0,0-0.1,0.1-0.1c0,0,0-0.1,0-0.1H176.3z"/>
				<path class="st13" d="M156.8,107.3h-0.4v-2h-1.1v2h-0.4v-2.4h1.9L156.8,107.3L156.8,107.3z"/>
				<path class="st13" d="M159.5,106c0,0.2,0,0.4-0.1,0.6c-0.1,0.2-0.1,0.3-0.2,0.4c-0.1,0.1-0.2,0.2-0.4,0.2s-0.3,0.1-0.5,0.1
					c-0.1,0-0.1,0-0.2,0s-0.1,0-0.2,0v1h-0.4v-3.3h0.4l0,0.4c0.1-0.2,0.2-0.3,0.4-0.3s0.3-0.1,0.4-0.1c0.1,0,0.3,0,0.4,0.1
					s0.2,0.1,0.3,0.2c0.1,0.1,0.1,0.2,0.2,0.4C159.5,105.7,159.5,105.9,159.5,106z M159.1,106.1c0-0.1,0-0.2,0-0.3
					c0-0.1,0-0.2-0.1-0.3s-0.1-0.1-0.1-0.2c-0.1,0-0.1-0.1-0.2-0.1c-0.1,0-0.1,0-0.2,0s-0.1,0-0.2,0.1c-0.1,0-0.1,0.1-0.2,0.2
					c-0.1,0.1-0.1,0.1-0.2,0.2v1.2c0.1,0,0.2,0.1,0.2,0.1s0.2,0,0.2,0c0.2,0,0.4-0.1,0.5-0.2S159.1,106.4,159.1,106.1z"/>
				<path class="st13" d="M162.2,106.1c0,0.2,0,0.4-0.1,0.5c-0.1,0.2-0.1,0.3-0.2,0.4c-0.1,0.1-0.2,0.2-0.4,0.3
					c-0.1,0.1-0.3,0.1-0.5,0.1c-0.2,0-0.3,0-0.5-0.1c-0.1-0.1-0.2-0.1-0.3-0.2s-0.2-0.2-0.2-0.4c0-0.2-0.1-0.3-0.1-0.5
					c0-0.2,0-0.4,0.1-0.5s0.1-0.3,0.2-0.4s0.2-0.2,0.4-0.3c0.1-0.1,0.3-0.1,0.5-0.1c0.2,0,0.3,0,0.5,0.1c0.1,0.1,0.2,0.1,0.3,0.2
					c0.1,0.1,0.2,0.2,0.2,0.4C162.2,105.7,162.2,105.9,162.2,106.1z M161.8,106.1c0-0.1,0-0.3,0-0.4s-0.1-0.2-0.1-0.3
					c-0.1-0.1-0.1-0.1-0.2-0.2c-0.1,0-0.2-0.1-0.3-0.1c-0.1,0-0.2,0-0.3,0.1c-0.1,0-0.2,0.1-0.2,0.2c-0.1,0.1-0.1,0.2-0.1,0.3
					c0,0.1,0,0.2,0,0.3c0,0.1,0,0.3,0,0.4s0.1,0.2,0.1,0.3c0.1,0.1,0.1,0.1,0.2,0.2c0.1,0,0.2,0.1,0.3,0.1c0.1,0,0.2,0,0.3-0.1
					c0.1,0,0.2-0.1,0.2-0.2s0.1-0.2,0.1-0.3C161.8,106.3,161.8,106.2,161.8,106.1z"/>
				<path class="st13" d="M165,106.9l0,1h-0.4v-0.6h-1.7v0.6h-0.4l0-1h0c0.1,0,0.1,0,0.2,0c0.1,0,0.1-0.1,0.1-0.1
					c0-0.1,0.1-0.1,0.1-0.2s0.1-0.2,0.1-0.4c0-0.1,0.1-0.3,0.1-0.5c0-0.2,0-0.5,0.1-0.8h1.5v2H165z M164.2,105.3h-0.7
					c0,0.3,0,0.5-0.1,0.7c0,0.2-0.1,0.4-0.1,0.5c0,0.1-0.1,0.2-0.1,0.3c0,0.1-0.1,0.1-0.1,0.2h1.1L164.2,105.3L164.2,105.3z"/>
				<path class="st13" d="M167.5,104.9l-0.8,2.1c-0.1,0.2-0.2,0.4-0.3,0.6c-0.1,0.2-0.2,0.3-0.3,0.4c-0.1,0.1-0.2,0.2-0.3,0.2
					c-0.1,0-0.3,0.1-0.4,0.1c0,0-0.1,0-0.1,0c0,0-0.1,0-0.1,0v-0.4c0,0,0.1,0,0.1,0c0,0,0.1,0,0.1,0c0.1,0,0.1,0,0.2,0
					c0.1,0,0.1-0.1,0.2-0.1s0.1-0.1,0.2-0.2c0.1-0.1,0.1-0.2,0.2-0.3l-0.9-2.4h0.5l0.6,1.6l0.1,0.4l0.1-0.4l0.6-1.6L167.5,104.9
					L167.5,104.9z"/>
				<path class="st13" d="M170.2,107.3h-0.6l-1.1-1.3v1.3h-0.4v-2.4h0.4v1.1l1.1-1.1h0.5L169,106L170.2,107.3z"/>
				<path class="st13" d="M172.7,105.3h-0.9v2h-0.4v-2h-0.9v-0.4h2.2L172.7,105.3L172.7,105.3z"/>
			</g>
			<g>
				<rect x="107.2" y="58.8" class="st12" width="21" height="4.7"/>
				<path class="st13" d="M109.5,62.2h-0.4v-2.7h-1.3v2.7h-0.4v-3.1h2.1V62.2z"/>
				<path class="st13" d="M112.2,60.9c0,0.2,0,0.4-0.1,0.6s-0.1,0.3-0.2,0.4c-0.1,0.1-0.2,0.2-0.4,0.2s-0.3,0.1-0.5,0.1
					c-0.1,0-0.1,0-0.2,0s-0.1,0-0.2,0v1h-0.4v-3.3h0.4l0,0.4c0.1-0.2,0.2-0.3,0.4-0.3s0.3-0.1,0.4-0.1c0.1,0,0.3,0,0.4,0.1
					s0.2,0.1,0.3,0.2c0.1,0.1,0.1,0.2,0.2,0.4C112.2,60.6,112.2,60.8,112.2,60.9z M111.8,61c0-0.1,0-0.2,0-0.3c0-0.1,0-0.2-0.1-0.3
					s-0.1-0.1-0.2-0.2c-0.1,0-0.1-0.1-0.2-0.1c-0.1,0-0.1,0-0.2,0c-0.1,0-0.1,0-0.2,0.1c-0.1,0-0.1,0.1-0.2,0.2
					c-0.1,0.1-0.1,0.1-0.2,0.2v1.2c0.1,0,0.2,0.1,0.2,0.1s0.2,0,0.2,0c0.2,0,0.4-0.1,0.5-0.2S111.8,61.3,111.8,61z"/>
				<path class="st13" d="M114.9,61c0,0.2,0,0.4-0.1,0.5s-0.1,0.3-0.2,0.4c-0.1,0.1-0.2,0.2-0.4,0.3c-0.1,0.1-0.3,0.1-0.5,0.1
					c-0.2,0-0.3,0-0.5-0.1c-0.1-0.1-0.2-0.1-0.3-0.2s-0.2-0.2-0.2-0.4c0-0.2-0.1-0.3-0.1-0.5c0-0.2,0-0.4,0.1-0.5s0.1-0.3,0.2-0.4
					s0.2-0.2,0.4-0.3c0.1-0.1,0.3-0.1,0.5-0.1c0.2,0,0.3,0,0.5,0.1c0.1,0.1,0.2,0.1,0.3,0.2c0.1,0.1,0.2,0.2,0.2,0.4
					C114.8,60.6,114.9,60.8,114.9,61z M114.4,61c0-0.1,0-0.3,0-0.4s-0.1-0.2-0.1-0.3c-0.1-0.1-0.1-0.1-0.2-0.2
					c-0.1,0-0.2-0.1-0.3-0.1c-0.1,0-0.2,0-0.3,0.1c-0.1,0-0.2,0.1-0.2,0.2c-0.1,0.1-0.1,0.2-0.1,0.3c0,0.1,0,0.2,0,0.3
					c0,0.1,0,0.3,0,0.4s0.1,0.2,0.1,0.3c0.1,0.1,0.1,0.1,0.2,0.2c0.1,0,0.2,0.1,0.3,0.1c0.1,0,0.2,0,0.3-0.1c0.1,0,0.2-0.1,0.2-0.2
					s0.1-0.2,0.1-0.3C114.4,61.2,114.4,61.1,114.4,61z"/>
				<path class="st13" d="M117.6,61.8l0,1h-0.4v-0.6h-1.8v-2.4h0.4v2h1.1v-2h0.4v2L117.6,61.8L117.6,61.8z"/>
				<path class="st13" d="M120.1,60.9c0,0.1,0,0.1,0,0.1c0,0,0,0.1,0,0.1h-1.7c0,0.2,0.1,0.4,0.2,0.6c0.1,0.1,0.3,0.2,0.6,0.2
					c0.1,0,0.1,0,0.2,0c0.1,0,0.1,0,0.2,0c0.1,0,0.1,0,0.2,0s0.1,0,0.2,0v0.3c-0.1,0-0.2,0.1-0.4,0.1c-0.1,0-0.3,0-0.4,0
					c-0.2,0-0.4,0-0.5-0.1c-0.1-0.1-0.3-0.1-0.4-0.2c-0.1-0.1-0.2-0.2-0.2-0.4c0-0.2-0.1-0.3-0.1-0.5c0-0.2,0-0.3,0.1-0.5
					s0.1-0.3,0.2-0.4c0.1-0.1,0.2-0.2,0.3-0.3c0.1-0.1,0.3-0.1,0.5-0.1c0.2,0,0.3,0,0.4,0.1c0.1,0.1,0.2,0.1,0.3,0.2
					c0.1,0.1,0.2,0.2,0.2,0.3C120.1,60.5,120.1,60.7,120.1,60.9z M119.7,60.8c0-0.1,0-0.2,0-0.3c0-0.1-0.1-0.2-0.1-0.2
					c-0.1-0.1-0.1-0.1-0.2-0.1s-0.2-0.1-0.3-0.1c-0.1,0-0.2,0-0.2,0.1c-0.1,0-0.1,0.1-0.2,0.1c-0.1,0.1-0.1,0.1-0.1,0.2
					c0,0.1-0.1,0.2-0.1,0.3C118.4,60.8,119.7,60.8,119.7,60.8z"/>
				<path class="st13" d="M122.6,62.1c-0.1,0-0.2,0.1-0.3,0.1c-0.1,0-0.2,0-0.3,0c-0.4,0-0.7-0.1-0.9-0.3c-0.2-0.2-0.3-0.5-0.3-0.9
					c0-0.2,0-0.4,0.1-0.5s0.1-0.3,0.2-0.4c0.1-0.1,0.2-0.2,0.4-0.3c0.1-0.1,0.3-0.1,0.5-0.1c0.1,0,0.2,0,0.3,0s0.2,0,0.3,0.1v0.4
					c-0.1-0.1-0.2-0.1-0.3-0.1s-0.2,0-0.3,0c-0.1,0-0.2,0-0.3,0.1c-0.1,0-0.2,0.1-0.2,0.2c-0.1,0.1-0.1,0.2-0.2,0.3
					c0,0.1-0.1,0.2-0.1,0.4c0,0.3,0.1,0.5,0.2,0.6c0.1,0.1,0.3,0.2,0.6,0.2c0.1,0,0.2,0,0.3,0c0.1,0,0.2-0.1,0.3-0.1L122.6,62.1
					L122.6,62.1z"/>
				<path class="st13" d="M125.2,62.1c-0.1,0-0.2,0.1-0.3,0.1c-0.1,0-0.2,0-0.3,0c-0.4,0-0.7-0.1-0.9-0.3c-0.2-0.2-0.3-0.5-0.3-0.9
					c0-0.2,0-0.4,0.1-0.5s0.1-0.3,0.2-0.4c0.1-0.1,0.2-0.2,0.4-0.3c0.1-0.1,0.3-0.1,0.5-0.1c0.1,0,0.2,0,0.3,0s0.2,0,0.3,0.1v0.4
					c-0.1-0.1-0.2-0.1-0.3-0.1s-0.2,0-0.3,0c-0.1,0-0.2,0-0.3,0.1c-0.1,0-0.2,0.1-0.2,0.2c-0.1,0.1-0.1,0.2-0.2,0.3
					c0,0.1-0.1,0.2-0.1,0.4c0,0.3,0.1,0.5,0.2,0.6c0.1,0.1,0.3,0.2,0.6,0.2c0.1,0,0.2,0,0.3,0c0.1,0,0.2-0.1,0.3-0.1L125.2,62.1
					L125.2,62.1z"/>
			</g>
			<polygon class="st3" points="93.6,85 62.5,85 67.8,79.4 62.5,73.8 93.6,73.8 98.8,79.4 			"/>
			<g>
				<rect x="71.1" y="77.1" class="st12" width="21" height="4.7"/>
				<path class="st13" d="M73.5,80.4h-0.4v-2.7h-1.3v2.7h-0.4v-3.1h2.1V80.4z"/>
				<path class="st13" d="M76.1,79.2c0,0.2,0,0.4-0.1,0.6s-0.1,0.3-0.2,0.4c-0.1,0.1-0.2,0.2-0.4,0.2s-0.3,0.1-0.5,0.1
					c-0.1,0-0.1,0-0.2,0s-0.1,0-0.2,0v1h-0.4V78h0.4l0,0.4c0.1-0.2,0.2-0.3,0.4-0.3s0.3-0.1,0.4-0.1c0.1,0,0.3,0,0.4,0.1
					s0.2,0.1,0.3,0.2c0.1,0.1,0.1,0.2,0.2,0.4C76.1,78.8,76.1,79,76.1,79.2z M75.7,79.2c0-0.1,0-0.2,0-0.3c0-0.1,0-0.2-0.1-0.3
					s-0.1-0.1-0.2-0.2c-0.1,0-0.1-0.1-0.2-0.1c-0.1,0-0.1,0-0.2,0s-0.1,0-0.2,0.1c-0.1,0-0.1,0.1-0.2,0.2c-0.1,0.1-0.1,0.1-0.2,0.2
					V80c0.1,0,0.2,0.1,0.2,0.1s0.2,0,0.2,0c0.2,0,0.4-0.1,0.5-0.2S75.7,79.5,75.7,79.2z"/>
				<path class="st13" d="M78.8,79.2c0,0.2,0,0.4-0.1,0.5c-0.1,0.2-0.1,0.3-0.2,0.4c-0.1,0.1-0.2,0.2-0.4,0.3
					c-0.1,0.1-0.3,0.1-0.5,0.1c-0.2,0-0.3,0-0.5-0.1c-0.1-0.1-0.2-0.1-0.3-0.2s-0.2-0.2-0.2-0.4c0-0.2-0.1-0.3-0.1-0.5
					c0-0.2,0-0.4,0.1-0.5s0.1-0.3,0.2-0.4s0.2-0.2,0.4-0.3c0.1-0.1,0.3-0.1,0.5-0.1c0.2,0,0.3,0,0.5,0.1c0.1,0.1,0.2,0.1,0.3,0.2
					c0.1,0.1,0.2,0.2,0.2,0.4C78.8,78.8,78.8,79,78.8,79.2z M78.4,79.2c0-0.1,0-0.3,0-0.4s-0.1-0.2-0.1-0.3
					c-0.1-0.1-0.1-0.1-0.2-0.2c-0.1,0-0.2-0.1-0.3-0.1c-0.1,0-0.2,0-0.3,0.1c-0.1,0-0.2,0.1-0.2,0.2c-0.1,0.1-0.1,0.2-0.1,0.3
					c0,0.1,0,0.2,0,0.3c0,0.1,0,0.3,0,0.4s0.1,0.2,0.1,0.3c0.1,0.1,0.1,0.1,0.2,0.2c0.1,0,0.2,0.1,0.3,0.1c0.1,0,0.2,0,0.3-0.1
					c0.1,0,0.2-0.1,0.2-0.2s0.1-0.2,0.1-0.3C78.4,79.4,78.4,79.3,78.4,79.2z"/>
				<path class="st13" d="M81.6,80.1l0,1h-0.4v-0.6h-1.8V78h0.4v2h1.1v-2h0.4v2H81.6z"/>
				<path class="st13" d="M84,79.1c0,0.1,0,0.1,0,0.1c0,0,0,0.1,0,0.1h-1.7c0,0.2,0.1,0.4,0.2,0.6c0.1,0.1,0.3,0.2,0.6,0.2
					c0.1,0,0.1,0,0.2,0c0.1,0,0.1,0,0.2,0c0.1,0,0.1,0,0.2,0s0.1,0,0.2,0v0.3c-0.1,0-0.2,0.1-0.4,0.1c-0.1,0-0.3,0-0.4,0
					c-0.2,0-0.4,0-0.5-0.1c-0.1-0.1-0.3-0.1-0.4-0.2c-0.1-0.1-0.2-0.2-0.2-0.4c0-0.2-0.1-0.3-0.1-0.5c0-0.2,0-0.3,0.1-0.5
					s0.1-0.3,0.2-0.4c0.1-0.1,0.2-0.2,0.3-0.3C82.7,78,82.8,78,83,78c0.2,0,0.3,0,0.4,0.1c0.1,0.1,0.2,0.1,0.3,0.2
					c0.1,0.1,0.2,0.2,0.2,0.3C84,78.8,84,78.9,84,79.1z M83.6,79c0-0.1,0-0.2,0-0.3c0-0.1-0.1-0.2-0.1-0.2c-0.1-0.1-0.1-0.1-0.2-0.1
					s-0.2-0.1-0.3-0.1c-0.1,0-0.2,0-0.2,0.1c-0.1,0-0.1,0.1-0.2,0.1c-0.1,0.1-0.1,0.1-0.1,0.2c0,0.1-0.1,0.2-0.1,0.3H83.6z"/>
				<path class="st13" d="M86.5,80.3c-0.1,0-0.2,0.1-0.3,0.1c-0.1,0-0.2,0-0.3,0c-0.4,0-0.7-0.1-0.9-0.3c-0.2-0.2-0.3-0.5-0.3-0.9
					c0-0.2,0-0.4,0.1-0.5s0.1-0.3,0.2-0.4c0.1-0.1,0.2-0.2,0.4-0.3c0.1-0.1,0.3-0.1,0.5-0.1c0.1,0,0.2,0,0.3,0s0.2,0,0.3,0.1v0.4
					c-0.1-0.1-0.2-0.1-0.3-0.1s-0.2,0-0.3,0c-0.1,0-0.2,0-0.3,0.1c-0.1,0-0.2,0.1-0.2,0.2c-0.1,0.1-0.1,0.2-0.2,0.3
					c0,0.1-0.1,0.2-0.1,0.4c0,0.3,0.1,0.5,0.2,0.6c0.1,0.1,0.3,0.2,0.6,0.2c0.1,0,0.2,0,0.3,0c0.1,0,0.2-0.1,0.3-0.1L86.5,80.3
					L86.5,80.3z"/>
				<path class="st13" d="M89.1,80.3c-0.1,0-0.2,0.1-0.3,0.1c-0.1,0-0.2,0-0.3,0c-0.4,0-0.7-0.1-0.9-0.3c-0.2-0.2-0.3-0.5-0.3-0.9
					c0-0.2,0-0.4,0.1-0.5s0.1-0.3,0.2-0.4c0.1-0.1,0.2-0.2,0.4-0.3c0.1-0.1,0.3-0.1,0.5-0.1c0.1,0,0.2,0,0.3,0s0.2,0,0.3,0.1v0.4
					c-0.1-0.1-0.2-0.1-0.3-0.1s-0.2,0-0.3,0c-0.1,0-0.2,0-0.3,0.1c-0.1,0-0.2,0.1-0.2,0.2c-0.1,0.1-0.1,0.2-0.2,0.3
					c0,0.1-0.1,0.2-0.1,0.4c0,0.3,0.1,0.5,0.2,0.6c0.1,0.1,0.3,0.2,0.6,0.2c0.1,0,0.2,0,0.3,0c0.1,0,0.2-0.1,0.3-0.1L89.1,80.3
					L89.1,80.3z"/>
			</g>
			<polygon class="st3" points="164.1,85 133,85 138.2,79.4 133,73.8 164.1,73.8 169.3,79.4 			"/>
			<g>
				<rect x="142.4" y="77.1" class="st12" width="19.1" height="6.2"/>
				<path class="st13" d="M144.8,80.4h-0.4v-2.7h-1.3v2.7h-0.4v-3.1h2.1L144.8,80.4L144.8,80.4z"/>
				<path class="st13" d="M147.4,79.2c0,0.2,0,0.4-0.1,0.6c-0.1,0.2-0.1,0.3-0.2,0.4c-0.1,0.1-0.2,0.2-0.4,0.2s-0.3,0.1-0.5,0.1
					c-0.1,0-0.1,0-0.2,0s-0.1,0-0.2,0v1h-0.4V78h0.4l0,0.4c0.1-0.2,0.2-0.3,0.4-0.3s0.3-0.1,0.4-0.1c0.1,0,0.3,0,0.4,0.1
					s0.2,0.1,0.3,0.2c0.1,0.1,0.1,0.2,0.2,0.4C147.4,78.8,147.4,79,147.4,79.2z M147,79.2c0-0.1,0-0.2,0-0.3c0-0.1,0-0.2-0.1-0.3
					s-0.1-0.1-0.1-0.2c-0.1,0-0.1-0.1-0.2-0.1c-0.1,0-0.1,0-0.2,0s-0.1,0-0.2,0.1c-0.1,0-0.1,0.1-0.2,0.2c-0.1,0.1-0.1,0.1-0.2,0.2
					V80c0.1,0,0.2,0.1,0.2,0.1s0.2,0,0.2,0c0.2,0,0.4-0.1,0.5-0.2S147,79.5,147,79.2z"/>
				<path class="st13" d="M150.1,79.2c0,0.2,0,0.4-0.1,0.5c-0.1,0.2-0.1,0.3-0.2,0.4c-0.1,0.1-0.2,0.2-0.4,0.3
					c-0.1,0.1-0.3,0.1-0.5,0.1c-0.2,0-0.3,0-0.5-0.1c-0.1-0.1-0.2-0.1-0.3-0.2s-0.2-0.2-0.2-0.4c0-0.2-0.1-0.3-0.1-0.5
					c0-0.2,0-0.4,0.1-0.5s0.1-0.3,0.2-0.4s0.2-0.2,0.4-0.3c0.1-0.1,0.3-0.1,0.5-0.1c0.2,0,0.3,0,0.5,0.1c0.1,0.1,0.2,0.1,0.3,0.2
					c0.1,0.1,0.2,0.2,0.2,0.4C150.1,78.8,150.1,79,150.1,79.2z M149.7,79.2c0-0.1,0-0.3,0-0.4s-0.1-0.2-0.1-0.3
					c-0.1-0.1-0.1-0.1-0.2-0.2c-0.1,0-0.2-0.1-0.3-0.1c-0.1,0-0.2,0-0.3,0.1c-0.1,0-0.2,0.1-0.2,0.2c-0.1,0.1-0.1,0.2-0.1,0.3
					c0,0.1,0,0.2,0,0.3c0,0.1,0,0.3,0,0.4s0.1,0.2,0.1,0.3c0.1,0.1,0.1,0.1,0.2,0.2c0.1,0,0.2,0.1,0.3,0.1c0.1,0,0.2,0,0.3-0.1
					c0.1,0,0.2-0.1,0.2-0.2s0.1-0.2,0.1-0.3C149.7,79.4,149.7,79.3,149.7,79.2z"/>
				<path class="st13" d="M152.9,80.1l0,1h-0.4v-0.6h-1.8V78h0.4v2h1.1v-2h0.4v2H152.9z"/>
				<path class="st13" d="M155.3,79.1c0,0.1,0,0.1,0,0.1c0,0,0,0.1,0,0.1h-1.7c0,0.2,0.1,0.4,0.2,0.6c0.1,0.1,0.3,0.2,0.6,0.2
					c0.1,0,0.1,0,0.2,0c0.1,0,0.1,0,0.2,0c0.1,0,0.1,0,0.2,0s0.1,0,0.2,0v0.3c-0.1,0-0.2,0.1-0.4,0.1c-0.1,0-0.3,0-0.4,0
					c-0.2,0-0.4,0-0.5-0.1c-0.1-0.1-0.3-0.1-0.4-0.2c-0.1-0.1-0.2-0.2-0.2-0.4c0-0.2-0.1-0.3-0.1-0.5c0-0.2,0-0.3,0.1-0.5
					s0.1-0.3,0.2-0.4c0.1-0.1,0.2-0.2,0.3-0.3c0.1-0.1,0.3-0.1,0.5-0.1c0.2,0,0.3,0,0.4,0.1c0.1,0.1,0.2,0.1,0.3,0.2
					c0.1,0.1,0.2,0.2,0.2,0.3C155.3,78.8,155.3,78.9,155.3,79.1z M154.9,79c0-0.1,0-0.2,0-0.3c0-0.1-0.1-0.2-0.1-0.2
					c-0.1-0.1-0.1-0.1-0.2-0.1s-0.2-0.1-0.3-0.1c-0.1,0-0.2,0-0.2,0.1c-0.1,0-0.1,0.1-0.2,0.1c-0.1,0.1-0.1,0.1-0.1,0.2
					c0,0.1-0.1,0.2-0.1,0.3H154.9z"/>
				<path class="st13" d="M157.8,80.3c-0.1,0-0.2,0.1-0.3,0.1c-0.1,0-0.2,0-0.3,0c-0.4,0-0.7-0.1-0.9-0.3c-0.2-0.2-0.3-0.5-0.3-0.9
					c0-0.2,0-0.4,0.1-0.5s0.1-0.3,0.2-0.4c0.1-0.1,0.2-0.2,0.4-0.3c0.1-0.1,0.3-0.1,0.5-0.1c0.1,0,0.2,0,0.3,0s0.2,0,0.3,0.1v0.4
					c-0.1-0.1-0.2-0.1-0.3-0.1s-0.2,0-0.3,0c-0.1,0-0.2,0-0.3,0.1c-0.1,0-0.2,0.1-0.2,0.2c-0.1,0.1-0.1,0.2-0.2,0.3
					c0,0.1-0.1,0.2-0.1,0.4c0,0.3,0.1,0.5,0.2,0.6c0.1,0.1,0.3,0.2,0.6,0.2c0.1,0,0.2,0,0.3,0c0.1,0,0.2-0.1,0.3-0.1L157.8,80.3
					L157.8,80.3z"/>
				<path class="st13" d="M160.5,80.3c-0.1,0-0.2,0.1-0.3,0.1c-0.1,0-0.2,0-0.3,0c-0.4,0-0.7-0.1-0.9-0.3c-0.2-0.2-0.3-0.5-0.3-0.9
					c0-0.2,0-0.4,0.1-0.5s0.1-0.3,0.2-0.4c0.1-0.1,0.2-0.2,0.4-0.3c0.1-0.1,0.3-0.1,0.5-0.1c0.1,0,0.2,0,0.3,0s0.2,0,0.3,0.1v0.4
					c-0.1-0.1-0.2-0.1-0.3-0.1s-0.2,0-0.3,0c-0.1,0-0.2,0-0.3,0.1c-0.1,0-0.2,0.1-0.2,0.2c-0.1,0.1-0.1,0.2-0.2,0.3
					c0,0.1-0.1,0.2-0.1,0.4c0,0.3,0.1,0.5,0.2,0.6c0.1,0.1,0.3,0.2,0.6,0.2c0.1,0,0.2,0,0.3,0c0.1,0,0.2-0.1,0.3-0.1L160.5,80.3
					L160.5,80.3z"/>
			</g>
			<line class="st6" x1="191.7" y1="45.2" x2="206.1" y2="79.3"/>
			<g>
				<rect x="105.2" y="76.9" class="st12" width="24.9" height="4.2"/>
				<path class="st13" d="M110.7,80.3h-0.4v-2.7h-1.3v2.7h-0.4v-3.1h2.1V80.3z"/>
				<path class="st13" d="M113.4,79c0,0.2,0,0.4-0.1,0.6s-0.1,0.3-0.2,0.4c-0.1,0.1-0.2,0.2-0.4,0.2s-0.3,0.1-0.5,0.1
					c-0.1,0-0.1,0-0.2,0s-0.1,0-0.2,0v1h-0.4v-3.3h0.4l0,0.4c0.1-0.2,0.2-0.3,0.4-0.3s0.3-0.1,0.4-0.1c0.1,0,0.3,0,0.4,0.1
					s0.2,0.1,0.3,0.2c0.1,0.1,0.1,0.2,0.2,0.4C113.4,78.7,113.4,78.8,113.4,79z M113,79c0-0.1,0-0.2,0-0.3c0-0.1,0-0.2-0.1-0.3
					s-0.1-0.1-0.2-0.2c-0.1,0-0.1-0.1-0.2-0.1c-0.1,0-0.1,0-0.2,0s-0.1,0-0.2,0.1c-0.1,0-0.1,0.1-0.2,0.2c-0.1,0.1-0.1,0.1-0.2,0.2
					v1.2c0.1,0,0.2,0.1,0.2,0.1s0.2,0,0.2,0c0.2,0,0.4-0.1,0.5-0.2S113,79.3,113,79z"/>
				<path class="st13" d="M116.1,79c0,0.2,0,0.4-0.1,0.5c-0.1,0.2-0.1,0.3-0.2,0.4c-0.1,0.1-0.2,0.2-0.4,0.3
					c-0.1,0.1-0.3,0.1-0.5,0.1c-0.2,0-0.3,0-0.5-0.1c-0.1-0.1-0.2-0.1-0.3-0.2s-0.2-0.2-0.2-0.4c0-0.2-0.1-0.3-0.1-0.5
					c0-0.2,0-0.4,0.1-0.5s0.1-0.3,0.2-0.4s0.2-0.2,0.4-0.3c0.1-0.1,0.3-0.1,0.5-0.1c0.2,0,0.3,0,0.5,0.1c0.1,0.1,0.2,0.1,0.3,0.2
					c0.1,0.1,0.2,0.2,0.2,0.4C116.1,78.7,116.1,78.9,116.1,79z M115.7,79.1c0-0.1,0-0.3,0-0.4s-0.1-0.2-0.1-0.3
					c-0.1-0.1-0.1-0.1-0.2-0.2c-0.1,0-0.2-0.1-0.3-0.1c-0.1,0-0.2,0-0.3,0.1c-0.1,0-0.2,0.1-0.2,0.2c-0.1,0.1-0.1,0.2-0.1,0.3
					c0,0.1,0,0.2,0,0.3c0,0.1,0,0.3,0,0.4s0.1,0.2,0.1,0.3c0.1,0.1,0.1,0.1,0.2,0.2c0.1,0,0.2,0.1,0.3,0.1c0.1,0,0.2,0,0.3-0.1
					c0.1,0,0.2-0.1,0.2-0.2s0.1-0.2,0.1-0.3C115.7,79.3,115.7,79.2,115.7,79.1z"/>
				<path class="st13" d="M118.9,79.9l0,1h-0.4v-0.6h-1.7v0.6h-0.4l0-1h0c0.1,0,0.1,0,0.2,0c0.1,0,0.1-0.1,0.1-0.1
					c0-0.1,0.1-0.1,0.1-0.2s0.1-0.2,0.1-0.4c0-0.1,0.1-0.3,0.1-0.5c0-0.2,0-0.5,0.1-0.8h1.5v2H118.9z M118.1,78.2h-0.7
					c0,0.3,0,0.5-0.1,0.7c0,0.2-0.1,0.4-0.1,0.5c0,0.1-0.1,0.2-0.1,0.3c0,0.1-0.1,0.1-0.1,0.2h1.1L118.1,78.2L118.1,78.2z"/>
				<path class="st13" d="M121.4,77.9l-0.8,2.1c-0.1,0.2-0.2,0.4-0.3,0.6c-0.1,0.2-0.2,0.3-0.3,0.4c-0.1,0.1-0.2,0.2-0.3,0.2
					c-0.1,0-0.3,0.1-0.4,0.1c0,0-0.1,0-0.1,0c0,0-0.1,0-0.1,0v-0.4c0,0,0.1,0,0.1,0c0,0,0.1,0,0.1,0c0.1,0,0.1,0,0.2,0
					c0.1,0,0.1-0.1,0.2-0.1s0.1-0.1,0.2-0.2c0.1-0.1,0.1-0.2,0.2-0.3l-0.9-2.4h0.5l0.6,1.6l0.1,0.4l0.1-0.4l0.6-1.6L121.4,77.9
					L121.4,77.9z"/>
				<path class="st13" d="M124.1,80.3h-0.6l-1.1-1.3v1.3H122v-2.4h0.4V79l1.1-1.1h0.5l-1.1,1.1L124.1,80.3z"/>
				<path class="st13" d="M126.6,78.2h-0.9v2h-0.4v-2h-0.9v-0.4h2.2L126.6,78.2L126.6,78.2z"/>
			</g>
			<line class="st6" x1="117.7" y1="46.6" x2="62.5" y2="73.9"/>
			<line class="st25" x1="133" y1="85.2" x2="32.7" y2="100.2"/>
			<line class="st26" x1="7.8" y1="91.9" x2="257.9" y2="91.9"/>
			<line class="st26" x1="7.8" y1="53.2" x2="257.9" y2="53.2"/>
			<line class="st26" x1="7.8" y1="114.8" x2="257.9" y2="114.8"/>
			<line class="st27" x1="32" y1="85.4" x2="32" y2="123.4"/>
			<polygon class="st28" points="11.5,98.5 30,98.5 27.7,110.1 9.3,110.1 			"/>
			<g>
				<rect x="9.6" y="101.7" class="st12" width="21" height="4.7"/>
				<path class="st29" d="M17.2,104.1c0,0.1,0,0.3-0.1,0.4c-0.1,0.1-0.1,0.2-0.2,0.3s-0.2,0.1-0.4,0.2S16.2,105,16,105h-0.8v-3.1
					h0.9c0.7,0,1,0.3,1,0.8c0,0.2,0,0.3-0.1,0.4c-0.1,0.1-0.2,0.2-0.4,0.3c0.1,0,0.2,0,0.2,0.1s0.1,0.1,0.2,0.1
					c0.1,0.1,0.1,0.1,0.1,0.2C17.2,103.9,17.2,104,17.2,104.1z M16.7,102.7c0-0.1,0-0.1,0-0.2c0-0.1-0.1-0.1-0.1-0.1
					s-0.1-0.1-0.2-0.1c-0.1,0-0.2,0-0.3,0h-0.4v1h0.4c0.1,0,0.2,0,0.3,0c0.1,0,0.1-0.1,0.2-0.1c0.1,0,0.1-0.1,0.1-0.2
					C16.7,102.9,16.7,102.8,16.7,102.7z M16.8,104.1c0-0.1,0-0.1,0-0.2c0-0.1-0.1-0.1-0.1-0.2c-0.1,0-0.1-0.1-0.2-0.1
					c-0.1,0-0.2,0-0.3,0h-0.4v1.1h0.4c0.2,0,0.4,0,0.5-0.1C16.7,104.4,16.8,104.3,16.8,104.1z"/>
				<path class="st29" d="M20,105h-0.5l-0.6-0.9l-0.6,0.9h-0.5l0.9-1.2l-0.9-1.2h0.5l0.6,0.9l0.6-0.9h0.5l-0.9,1.2L20,105z"/>
				<path class="st29" d="M22.5,103.8c0,0.2,0,0.4-0.1,0.5c-0.1,0.2-0.1,0.3-0.2,0.4c-0.1,0.1-0.2,0.2-0.4,0.3
					c-0.1,0.1-0.3,0.1-0.5,0.1c-0.2,0-0.3,0-0.5-0.1c-0.1-0.1-0.2-0.1-0.3-0.2s-0.2-0.2-0.2-0.4c0-0.2-0.1-0.3-0.1-0.5
					c0-0.2,0-0.4,0.1-0.5s0.1-0.3,0.2-0.4s0.2-0.2,0.4-0.3c0.1-0.1,0.3-0.1,0.5-0.1c0.2,0,0.3,0,0.5,0.1c0.1,0.1,0.2,0.1,0.3,0.2
					c0.1,0.1,0.2,0.2,0.2,0.4C22.5,103.4,22.5,103.6,22.5,103.8z M22.1,103.8c0-0.1,0-0.3,0-0.4s-0.1-0.2-0.1-0.3
					c-0.1-0.1-0.1-0.1-0.2-0.2c-0.1,0-0.2-0.1-0.3-0.1c-0.1,0-0.2,0-0.3,0.1c-0.1,0-0.2,0.1-0.2,0.2c-0.1,0.1-0.1,0.2-0.1,0.3
					c0,0.1,0,0.2,0,0.3c0,0.1,0,0.3,0,0.4s0.1,0.2,0.1,0.3c0.1,0.1,0.1,0.1,0.2,0.2c0.1,0,0.2,0.1,0.3,0.1c0.1,0,0.2,0,0.3-0.1
					c0.1,0,0.2-0.1,0.2-0.2s0.1-0.2,0.1-0.3C22.1,104.1,22.1,103.9,22.1,103.8z"/>
				<path class="st29" d="M25.3,104.7l0,1h-0.4V105h-1.7v0.6h-0.4l0-1h0c0.1,0,0.1,0,0.2,0c0.1,0,0.1-0.1,0.1-0.1
					c0-0.1,0.1-0.1,0.1-0.2s0.1-0.2,0.1-0.4c0-0.1,0.1-0.3,0.1-0.5c0-0.2,0-0.5,0.1-0.8H25v2H25.3z M24.6,103h-0.7
					c0,0.3,0,0.5-0.1,0.7c0,0.2-0.1,0.4-0.1,0.5c0,0.1-0.1,0.2-0.1,0.3c0,0.1-0.1,0.1-0.1,0.2h1.1L24.6,103L24.6,103z"/>
			</g>
		</g>
	</g>
	<g>
		<g>
			<polyline class="st30" points="29.6,145.1 29.4,130.8 71,130.8 71,145.1 			"/>
			<path class="st31" d="M40.4,146.3"/>
			<path class="st32" d="M80.8,83.3v0.5H71v47H29.4v3.2h-9.9V83.3h0c0.3-8.6,4.1-16.2,9.9-21.7c1.5-1.4,3.2-2.7,5-3.8
				c0.5-0.3,1-0.6,1.5-0.9c0,0,0,0,0,0c0.4-0.2,0.7-0.4,1.1-0.5c0.2-0.1,0.4-0.2,0.6-0.3c0.4-0.2,0.8-0.4,1.2-0.5
				c3.5-1.4,7.3-2.2,11.3-2.2c4.4,0,8.6,0.9,12.4,2.6c0.4,0.2,0.7,0.3,1.1,0.5c0.2,0.1,0.3,0.2,0.5,0.3c0.1,0.1,0.2,0.1,0.3,0.2
				c0.2,0.1,0.4,0.2,0.6,0.3c0,0,0.1,0,0.1,0.1c0.3,0.1,0.5,0.3,0.7,0.4c1.8,1.1,3.5,2.4,5,3.8l0,0C76.8,67,80.5,74.7,80.8,83.3
				C80.8,83.3,80.8,83.3,80.8,83.3z"/>
			<g>
				<g>
					<path class="st33" d="M50.4,35.8c-3.4,0-6.2,1.7-6.2,3.9v13v3.6l12.5,0V39.7C56.6,37.6,53.8,35.8,50.4,35.8z"/>
				</g>
			</g>
			<path class="st29" d="M64.6,16v20.6c-0.4,5-3.5,8-6.9,11.1c-0.5,0.1-7.3,1.5-7.4,1.5c-8.4,0-15.2-7.1-15.2-15.8V16H64.6z"/>
			<g>
				<g>
					<g>
						<path class="st33" d="M32.2,28c-1.1,0-1.9,2-1.9,4.4c0,2.4,0.9,4.4,1.9,4.4h3.1L35.3,28C35.3,28,32.2,28,32.2,28z"/>
					</g>
				</g>
			</g>
			<g>
				<g>
					<g>
						<path class="st33" d="M67.3,27.8c0.9,0,1.6,2,1.6,4.4c0,2.4-0.7,4.4-1.6,4.4h-2.5l0.1-8.8C64.8,27.8,67.3,27.8,67.3,27.8z"/>
					</g>
				</g>
			</g>
			<path class="st29" d="M35.1,13v2.7c0,0,0,0.1,0,0.1v12.3h1.6v3.2c0,1.5,1,2.6,2.3,2.6c1.3,0,2.3-1.2,2.3-2.6v-1.9
				c0.3-2,1.9-3.5,3.7-3.5v-5.2c0.3-2,1.8-3.5,3.7-3.5v0h16c2.6,0,4.7-2.2,5-5h-6.4l-1.8-7.6H46.2c-3.7,0-6.9,2-8.9,5L35.1,13z"/>
			<path class="st29" d="M35,11.5C35,5.2,39.6,0,45.3,0h9.5c5.7,0,10.3,5.2,10.3,11.5v5.6h-2.4V15c0-3.3-2.4-6-5.4-6h-1.4
				c-3,0-5.4,2.7-5.4,6v2.1H35V11.5z"/>
			<polyline class="st34" points="19.5,145.3 19.5,130.8 29.4,130.8 29.6,145.1 			"/>
			<g>
				<line class="st12" x1="70.1" y1="72.7" x2="87.3" y2="111.9"/>
				<g>
					<path class="st32" d="M63.4,76.6c5.7,13.1,11.5,26.1,17.2,39.2c1.7,3.8,7.2,4.7,10.5,2.8c3.9-2.3,4.4-6.7,2.8-10.5
						C88.2,95,82.5,81.9,76.7,68.9c-1.7-3.8-7.2-4.7-10.5-2.8C62.3,68.4,61.7,72.8,63.4,76.6L63.4,76.6z"/>
				</g>
			</g>
			<rect x="19.5" y="125.4" class="st35" width="10" height="9"/>
			<rect x="41.5" y="51.5" class="st35" width="19" height="5"/>
			<g>
				<path class="st36" d="M93,67.9l4.3-16.4l0,0c5.7,1.6,10,4.1,9.6,5.5l-3.6,13.8L93,67.9z"/>
				<g>
					<line class="st12" x1="87.2" y1="116.4" x2="97.9" y2="68.6"/>
					<g>
						<path class="st32" d="M94.7,118.5c3.6-15.9,7.1-31.9,10.7-47.8c2.2-9.7-12.7-13.8-14.8-4.1c-3.6,15.9-7.1,31.9-10.7,47.8
							C77.7,124.1,92.5,128.2,94.7,118.5L94.7,118.5z"/>
					</g>
				</g>
				<polygon class="st35" points="105.8,68.8 89.8,65.4 91.1,58.9 107.1,62.2 				"/>
				<g>
					<line class="st12" x1="103.2" y1="31.8" x2="100.8" y2="42.7"/>
					<g>
						<path class="st33" d="M101.4,31.3c-0.8,3.6-1.6,7.2-2.4,10.8c-0.6,2.5,3.2,3.5,3.8,1c0.8-3.6,1.6-7.2,2.4-10.8
							C105.7,29.9,101.9,28.9,101.4,31.3L101.4,31.3z"/>
					</g>
				</g>
				<g>
					<line class="st12" x1="105.7" y1="40.1" x2="102.6" y2="50.8"/>
					<g>
						<path class="st33" d="M103.8,39.6c-1,3.6-2.1,7.1-3.1,10.7c-0.7,2.4,3.1,3.4,3.8,1c1-3.6,2.1-7.1,3.1-10.7
							C108.3,38.2,104.5,37.2,103.8,39.6L103.8,39.6z"/>
					</g>
				</g>
				<g>
					<line class="st12" x1="111" y1="44.7" x2="108" y2="53.3"/>
					<g>
						<path class="st33" d="M109.1,44.2c-1,2.9-2,5.7-3,8.6c-0.8,2.4,2.9,3.4,3.8,1c1-2.9,2-5.7,3-8.6
							C113.7,42.9,109.9,41.8,109.1,44.2L109.1,44.2z"/>
					</g>
				</g>
				<g>
					<line class="st12" x1="108.4" y1="42.3" x2="105.5" y2="53.1"/>
					<g>
						<path class="st33" d="M106.5,41.8c-1,3.6-1.9,7.1-2.9,10.7c-0.7,2.4,3.1,3.5,3.8,1c1-3.6,1.9-7.1,2.9-10.7
							C110.9,40.4,107.2,39.4,106.5,41.8L106.5,41.8z"/>
					</g>
				</g>
				<path class="st36" d="M111.3,51c-2,5.4-4,8.7-8,7.9c-4-0.8-8.2-6.1-6.6-10.8c1.7-5,4-8.7,8-7.9C108.7,41,113,46.4,111.3,51z"/>
				
					<ellipse transform="matrix(0.1962 -0.9806 0.9806 0.1962 32.7126 134.0601)" class="st37" cx="98.1" cy="47.1" rx="4.2" ry="2.6"/>
			</g>
			<path class="st38" d="M60.3,35.8c-1.4-1.2-8.5,0.2-8.5,2.5"/>
			<path class="st29" d="M64,14.9c3.1-1.8,4.3-5.8,2.8-9.1l-7.7,4.6L64,14.9z"/>
		</g>
	</g>
</g>
</svg>
