<?xml version="1.0" encoding="utf-8"?>
<!-- Generator: Adobe Illustrator 19.2.1, SVG Export Plug-In . SVG Version: 6.00 Build 0)  -->
<svg version="1.1" id="Слой_1" xmlns="http://www.w3.org/2000/svg" xmlns:xlink="http://www.w3.org/1999/xlink" x="0px" y="0px"
	 viewBox="0 0 256 126" style="enable-background:new 0 0 256 126;" xml:space="preserve">
<style type="text/css">
	.st0{clip-path:url(#SVGID_2_);}
	.st1{fill:#F5F6F6;}
	.st2{fill:#B9CEBF;}
	.st3{fill:none;stroke:#B9CEBF;stroke-miterlimit:10;}
	.st4{fill:#EB2227;}
	.st5{fill:#8F8F8E;stroke:#676767;stroke-width:0.5127;stroke-miterlimit:10;}
	.st6{fill:#8F8F8E;}
	.st7{fill:none;stroke:#676767;stroke-width:0.5127;stroke-miterlimit:10;}
	.st8{fill:none;stroke:#676767;stroke-width:0.5127;stroke-miterlimit:10;stroke-dasharray:2.5196,2.5196;}
	.st9{fill:none;stroke:#676767;stroke-width:0.5127;stroke-miterlimit:10;stroke-dasharray:3.093,3.093;}
	.st10{fill:none;stroke:#676767;stroke-width:0.5127;stroke-miterlimit:10;stroke-dasharray:2.5231,2.5231;}
	.st11{fill:none;stroke:#676767;stroke-width:0.5127;stroke-miterlimit:10;stroke-dasharray:3.0838,3.0838;}
	.st12{fill:none;}
	.st13{fill:#FFFFFF;}
	.st14{fill:none;stroke:#676767;stroke-width:0.5127;stroke-miterlimit:10;stroke-dasharray:2.5197,2.5197;}
	.st15{fill:none;stroke:#676767;stroke-width:0.5127;stroke-miterlimit:10;stroke-dasharray:3.0926,3.0926;}
	.st16{fill:none;stroke:#676767;stroke-width:0.5127;stroke-miterlimit:10;stroke-dasharray:2.5233,2.5233;}
	.st17{fill:none;stroke:#676767;stroke-width:0.5127;stroke-miterlimit:10;stroke-dasharray:2.4635,2.4635;}
	.st18{fill:none;stroke:#676767;stroke-width:0.5127;stroke-miterlimit:10;stroke-dasharray:2.9332,2.9332;}
	.st19{fill:none;stroke:#676767;stroke-width:0.5127;stroke-miterlimit:10;stroke-dasharray:2.942,2.942;}
	.st20{fill:none;stroke:#676767;stroke-width:0.5127;stroke-miterlimit:10;stroke-dasharray:2.9164,2.9164;}
	.st21{fill:none;stroke:#676767;stroke-width:0.5127;stroke-miterlimit:10;stroke-dasharray:2.9721,2.9721;}
	.st22{fill:none;stroke:#676767;stroke-width:0.5127;stroke-miterlimit:10;stroke-dasharray:2.4633,2.4633;}
	.st23{fill:none;stroke:#676767;stroke-width:0.5127;stroke-miterlimit:10;stroke-dasharray:2.9335,2.9335;}
	.st24{fill:none;stroke:#676767;stroke-width:0.5127;stroke-miterlimit:10;stroke-dasharray:2.9413,2.9413;}
	.st25{fill:none;stroke:#676767;stroke-width:0.5127;stroke-miterlimit:10;stroke-dasharray:2.9156,2.9156;}
	.st26{fill:none;stroke:#676767;stroke-width:0.5127;stroke-miterlimit:10;stroke-dasharray:2.9722,2.9722;}
	.st27{fill:none;stroke:#676767;stroke-width:0.5139;stroke-miterlimit:10;}
	.st28{fill:none;stroke:#929497;stroke-width:0.7897;stroke-miterlimit:10;stroke-dasharray:5.0124;}
	.st29{fill:none;stroke:#EB2227;stroke-miterlimit:10;stroke-dasharray:6;}
	.st30{fill:#E7E7E7;stroke:#8F8F8E;stroke-width:0.4755;stroke-miterlimit:10;}
	.st31{fill:#010101;}
	.st32{fill:none;stroke:#EB2227;stroke-width:1.2586;stroke-miterlimit:10;}
</style>
<g id="base">
</g>
<g id="plashki">
</g>
<g id="lines">
</g>
<g id="image">
</g>
<g id="_x31_">
</g>
<g id="символы">
</g>
<g id="Layer_1_4_">
</g>
<g>
	<g>
		<defs>
			<rect id="SVGID_1_" width="256" height="126"/>
		</defs>
		<clipPath id="SVGID_2_">
			<use xlink:href="#SVGID_1_"  style="overflow:visible;"/>
		</clipPath>
		<g class="st0">
			<g>
				<rect x="-133.3" y="-39.4" class="st1" width="390.3" height="193"/>
				<rect x="-133.3" y="-39.4" class="st2" width="390.3" height="21.6"/>
				<rect x="-133.3" y="132.4" class="st2" width="390.3" height="21.6"/>
				<line class="st3" x1="-132.5" y1="-37" x2="-132.5" y2="154"/>
				<line class="st3" x1="256.5" y1="-37" x2="256.5" y2="154"/>
			</g>
			<g>
				<polygon class="st4" points="72.9,115 20.2,115 28.2,106.7 20.2,98.5 72.9,98.5 80.8,106.7 				"/>
				<polygon class="st5" points="241.6,115 202,115 194.2,106.7 202.1,98.5 241.6,98.5 249.4,106.6 				"/>
				<polygon class="st4" points="86.3,21.4 38.9,21.4 38.9,4.8 86.4,4.8 94.2,12.5 				"/>
				<g>
					<polygon class="st6" points="144,9.7 104.5,9.7 96.7,2 104.5,-6.8 144.1,-6.8 151.9,0.9 					"/>
					<g>
						<polyline class="st7" points="144.9,8.7 144,9.7 142.7,9.7 						"/>
						<polyline class="st8" points="140.2,9.7 104.5,9.7 98.5,3.8 						"/>
						<polyline class="st7" points="97.6,2.9 96.7,2 97.5,1.1 						"/>
						<line class="st9" x1="99.6" y1="-1.2" x2="102.7" y2="-4.7"/>
						<polyline class="st7" points="103.7,-5.9 104.5,-6.8 105.8,-6.8 						"/>
						<polyline class="st10" points="108.4,-6.8 144.1,-6.8 150.1,-0.9 						"/>
						<polyline class="st7" points="151,0 151.9,0.9 151,1.8 						"/>
						<line class="st11" x1="149" y1="4.1" x2="145.9" y2="7.6"/>
					</g>
				</g>
				<polygon class="st4" points="57.2,51.4 9.7,51.4 17.7,43 9.7,34.9 57.2,34.9 65.1,43 				"/>
				<g>
					<rect x="41.4" y="9.6" class="st12" width="50.2" height="7"/>
					<path class="st13" d="M45.3,14.5h-0.6l-0.1-2.8l0-1.1l-0.2,0.6l-0.7,1.8h-0.4l-0.7-1.7l-0.2-0.7l0,1.1l-0.1,2.8h-0.6l0.2-4.6
						h0.8l0.6,1.7l0.2,0.6l0.2-0.6l0.7-1.7h0.8L45.3,14.5z"/>
					<path class="st13" d="M48.3,14.5l0-0.5c-0.2,0.2-0.4,0.3-0.6,0.4c-0.2,0.1-0.4,0.1-0.6,0.1c-0.2,0-0.4,0-0.5-0.1
						c-0.1-0.1-0.3-0.1-0.4-0.2c-0.1-0.1-0.2-0.2-0.2-0.3c0-0.1-0.1-0.3-0.1-0.4c0-0.4,0.1-0.6,0.4-0.8c0.3-0.2,0.7-0.3,1.2-0.3h0.7
						v-0.3c0-0.2-0.1-0.4-0.2-0.5s-0.3-0.2-0.6-0.2c-0.2,0-0.4,0-0.6,0.1s-0.4,0.1-0.6,0.2v-0.5c0.1,0,0.2-0.1,0.3-0.1
						s0.2-0.1,0.3-0.1c0.1,0,0.2,0,0.3-0.1s0.2,0,0.4,0c0.2,0,0.4,0,0.6,0.1c0.2,0,0.3,0.1,0.4,0.2c0.1,0.1,0.2,0.2,0.3,0.4
						c0.1,0.1,0.1,0.3,0.1,0.5v2.4L48.3,14.5L48.3,14.5z M48.3,12.9h-0.8c-0.2,0-0.3,0-0.4,0c-0.1,0-0.2,0.1-0.3,0.1
						c-0.1,0.1-0.1,0.1-0.2,0.2c0,0.1-0.1,0.2-0.1,0.3c0,0.1,0,0.1,0,0.2s0.1,0.1,0.1,0.2c0,0,0.1,0.1,0.2,0.1s0.2,0,0.3,0
						c0.1,0,0.3,0,0.5-0.1s0.4-0.2,0.6-0.4L48.3,12.9L48.3,12.9z"/>
					<path class="st13" d="M53.3,14.5h-0.9l-1.7-1.9v1.9h-0.6V11h0.6v1.6l1.6-1.6h0.8l-1.7,1.6L53.3,14.5z"/>
					<path class="st13" d="M57.2,12.7c0,0.3,0,0.6-0.1,0.8s-0.2,0.4-0.4,0.6c-0.2,0.2-0.3,0.3-0.6,0.3c-0.2,0.1-0.4,0.1-0.7,0.1
						c-0.1,0-0.2,0-0.3,0s-0.2,0-0.3-0.1V16h-0.6V11h0.6l0,0.6c0.2-0.2,0.4-0.4,0.6-0.5c0.2-0.1,0.4-0.1,0.7-0.1
						c0.2,0,0.4,0,0.5,0.1c0.2,0.1,0.3,0.2,0.4,0.4s0.2,0.3,0.2,0.6C57.1,12.2,57.2,12.5,57.2,12.7z M56.5,12.8c0-0.2,0-0.4,0-0.5
						c0-0.2-0.1-0.3-0.1-0.4c-0.1-0.1-0.1-0.2-0.2-0.3c-0.1-0.1-0.2-0.1-0.3-0.1c-0.1,0-0.2,0-0.2,0s-0.2,0.1-0.3,0.1
						c-0.1,0.1-0.2,0.1-0.3,0.2c-0.1,0.1-0.2,0.2-0.3,0.4v1.7c0.1,0,0.2,0.1,0.4,0.1c0.1,0,0.3,0,0.4,0c0.3,0,0.6-0.1,0.8-0.3
						C56.4,13.5,56.5,13.2,56.5,12.8z"/>
					<path class="st13" d="M61.3,12.8c0,0.3,0,0.5-0.1,0.7c-0.1,0.2-0.2,0.4-0.3,0.6c-0.1,0.2-0.3,0.3-0.5,0.4
						c-0.2,0.1-0.5,0.1-0.7,0.1c-0.3,0-0.5,0-0.7-0.1c-0.2-0.1-0.4-0.2-0.5-0.3s-0.3-0.3-0.3-0.6c-0.1-0.2-0.1-0.5-0.1-0.8
						c0-0.3,0-0.5,0.1-0.7s0.2-0.4,0.3-0.6s0.3-0.3,0.5-0.4c0.2-0.1,0.5-0.1,0.7-0.1c0.3,0,0.5,0,0.7,0.1s0.4,0.2,0.5,0.3
						c0.1,0.1,0.3,0.3,0.3,0.6C61.2,12.2,61.3,12.5,61.3,12.8z M60.6,12.8c0-0.2,0-0.4-0.1-0.6s-0.1-0.3-0.2-0.4
						c-0.1-0.1-0.2-0.2-0.3-0.2c-0.1-0.1-0.3-0.1-0.4-0.1c-0.2,0-0.3,0-0.5,0.1s-0.2,0.2-0.3,0.3c-0.1,0.1-0.1,0.3-0.2,0.4
						s-0.1,0.3-0.1,0.5c0,0.2,0,0.4,0.1,0.6s0.1,0.3,0.2,0.4S59,14,59.1,14s0.3,0.1,0.4,0.1c0.2,0,0.3,0,0.5-0.1
						c0.1-0.1,0.2-0.2,0.3-0.3s0.1-0.3,0.2-0.4C60.6,13.1,60.6,13,60.6,12.8z"/>
					<path class="st13" d="M65,14.5h-0.6v-3h-1.6v3h-0.6V11H65C65,11,65,14.5,65,14.5z"/>
					<path class="st13" d="M69.3,12.7c0,0.3,0,0.6-0.1,0.8c-0.1,0.2-0.2,0.4-0.4,0.6c-0.2,0.2-0.3,0.3-0.6,0.3s-0.4,0.1-0.7,0.1
						c-0.1,0-0.2,0-0.3,0s-0.2,0-0.3-0.1V16h-0.6V11h0.6l0,0.6c0.2-0.2,0.4-0.4,0.6-0.5C67.6,11,67.8,11,68,11c0.2,0,0.4,0,0.5,0.1
						s0.3,0.2,0.4,0.4s0.2,0.3,0.2,0.6C69.2,12.2,69.3,12.5,69.3,12.7z M68.6,12.8c0-0.2,0-0.4,0-0.5s-0.1-0.3-0.1-0.4
						c-0.1-0.1-0.1-0.2-0.2-0.3c-0.1-0.1-0.2-0.1-0.3-0.1c-0.1,0-0.2,0-0.2,0c-0.1,0-0.2,0.1-0.3,0.1s-0.2,0.1-0.3,0.2
						c-0.1,0.1-0.2,0.2-0.3,0.4v1.7c0.1,0,0.2,0.1,0.4,0.1c0.1,0,0.3,0,0.4,0c0.3,0,0.6-0.1,0.8-0.3S68.6,13.2,68.6,12.8z"/>
					<path class="st13" d="M73.3,12.8c0,0.3,0,0.5-0.1,0.7s-0.2,0.4-0.3,0.6c-0.1,0.2-0.3,0.3-0.5,0.4c-0.2,0.1-0.5,0.1-0.7,0.1
						c-0.3,0-0.5,0-0.7-0.1s-0.4-0.2-0.5-0.3c-0.1-0.2-0.3-0.3-0.3-0.6C70,13.4,70,13.1,70,12.8c0-0.3,0-0.5,0.1-0.7
						c0.1-0.2,0.2-0.4,0.3-0.6c0.1-0.2,0.3-0.3,0.5-0.4c0.2-0.1,0.5-0.1,0.7-0.1c0.3,0,0.5,0,0.7,0.1c0.2,0.1,0.4,0.2,0.5,0.3
						s0.3,0.3,0.3,0.6C73.3,12.2,73.3,12.5,73.3,12.8z M72.7,12.8c0-0.2,0-0.4-0.1-0.6s-0.1-0.3-0.2-0.4s-0.2-0.2-0.3-0.2
						s-0.3-0.1-0.4-0.1c-0.2,0-0.3,0-0.5,0.1c-0.1,0.1-0.2,0.2-0.3,0.3s-0.1,0.3-0.2,0.4c0,0.2-0.1,0.3-0.1,0.5c0,0.2,0,0.4,0.1,0.6
						c0,0.2,0.1,0.3,0.2,0.4c0.1,0.1,0.2,0.2,0.3,0.2s0.3,0.1,0.4,0.1c0.2,0,0.3,0,0.5-0.1c0.1-0.1,0.2-0.2,0.3-0.3
						c0.1-0.1,0.1-0.3,0.2-0.4C72.7,13.1,72.7,13,72.7,12.8z"/>
					<path class="st13" d="M77.5,14l0,1.4h-0.6v-0.9h-2.7V11h0.6v3h1.6v-3h0.6v3L77.5,14L77.5,14z"/>
					<path class="st13" d="M81.3,12.6c0,0.1,0,0.2,0,0.2s0,0.1,0,0.2h-2.5c0,0.4,0.1,0.6,0.3,0.8s0.5,0.3,0.9,0.3c0.1,0,0.2,0,0.3,0
						s0.2,0,0.3,0c0.1,0,0.2,0,0.3,0s0.2,0,0.2-0.1v0.5c-0.2,0-0.4,0.1-0.6,0.1c-0.2,0-0.4,0-0.7,0c-0.3,0-0.6,0-0.8-0.1
						c-0.2-0.1-0.4-0.2-0.5-0.4s-0.2-0.3-0.3-0.6c-0.1-0.2-0.1-0.5-0.1-0.8c0-0.2,0-0.5,0.1-0.7s0.2-0.4,0.3-0.6
						c0.1-0.2,0.3-0.3,0.5-0.4s0.4-0.1,0.7-0.1c0.3,0,0.5,0,0.7,0.1s0.4,0.2,0.5,0.3c0.1,0.1,0.2,0.3,0.3,0.5
						C81.3,12.1,81.3,12.4,81.3,12.6z M80.7,12.5c0-0.2,0-0.3,0-0.4c0-0.1-0.1-0.2-0.2-0.3c-0.1-0.1-0.2-0.2-0.3-0.2
						c-0.1-0.1-0.3-0.1-0.4-0.1c-0.1,0-0.3,0-0.4,0.1s-0.2,0.1-0.3,0.2s-0.1,0.2-0.2,0.3c-0.1,0.1-0.1,0.3-0.1,0.4
						C78.8,12.5,80.7,12.5,80.7,12.5z"/>
					<path class="st13" d="M85.1,14.4c-0.2,0.1-0.3,0.1-0.5,0.1c-0.2,0-0.3,0-0.5,0c-0.6,0-1-0.1-1.3-0.4s-0.5-0.7-0.5-1.3
						c0-0.3,0-0.5,0.1-0.8c0.1-0.2,0.2-0.4,0.4-0.6s0.4-0.3,0.6-0.4c0.2-0.1,0.5-0.1,0.7-0.1c0.2,0,0.4,0,0.5,0
						c0.2,0,0.3,0.1,0.5,0.1v0.6c-0.2-0.1-0.3-0.1-0.5-0.2c-0.2,0-0.3-0.1-0.5-0.1c-0.2,0-0.3,0-0.5,0.1c-0.1,0.1-0.3,0.1-0.4,0.3
						s-0.2,0.2-0.3,0.4C83,12.4,83,12.6,83,12.8c0,0.4,0.1,0.7,0.3,1c0.2,0.2,0.5,0.3,0.9,0.3c0.2,0,0.3,0,0.5-0.1s0.3-0.1,0.5-0.2
						L85.1,14.4L85.1,14.4z"/>
					<path class="st13" d="M89.1,14.4c-0.2,0.1-0.3,0.1-0.5,0.1c-0.2,0-0.3,0-0.5,0c-0.6,0-1-0.1-1.3-0.4s-0.5-0.7-0.5-1.3
						c0-0.3,0-0.5,0.1-0.8c0.1-0.2,0.2-0.4,0.4-0.6s0.4-0.3,0.6-0.4c0.2-0.1,0.5-0.1,0.7-0.1c0.2,0,0.4,0,0.5,0
						c0.2,0,0.3,0.1,0.5,0.1v0.6c-0.2-0.1-0.3-0.1-0.5-0.2c-0.2,0-0.3-0.1-0.5-0.1c-0.2,0-0.3,0-0.5,0.1c-0.1,0.1-0.3,0.1-0.4,0.3
						s-0.2,0.2-0.3,0.4S87,12.6,87,12.8c0,0.4,0.1,0.7,0.3,1c0.2,0.2,0.5,0.3,0.9,0.3c0.2,0,0.3,0,0.5-0.1c0.2,0,0.3-0.1,0.5-0.2
						L89.1,14.4L89.1,14.4z"/>
				</g>
				<polygon class="st4" points="-39.8,115.7 -87.3,115.7 -87.3,99.1 -39.8,99.1 -31.9,106.9 				"/>
				<g>
					<rect x="-84.7" y="103.9" class="st12" width="50.2" height="7"/>
					<path class="st13" d="M-80.8,108.3l0,1.5h-0.6v-1h-2.7v1h-0.6l0-1.5h0.1c0.1,0,0.2,0,0.2-0.1c0.1,0,0.2-0.1,0.2-0.2
						c0.1-0.1,0.1-0.3,0.2-0.5c0.1-0.2,0.1-0.4,0.2-0.7c0.1-0.3,0.1-0.7,0.1-1.1c0-0.4,0.1-0.9,0.1-1.5h2.3v4H-80.8z M-82,104.8h-1
						c0,0.5,0,0.9-0.1,1.3s-0.1,0.7-0.1,1c-0.1,0.3-0.1,0.5-0.2,0.7c-0.1,0.2-0.2,0.3-0.3,0.4h1.7L-82,104.8L-82,104.8z"/>
					<path class="st13" d="M-77.1,106.9c0,0.1,0,0.2,0,0.2s0,0.1,0,0.2h-2.5c0,0.4,0.1,0.6,0.3,0.8s0.5,0.3,0.9,0.3
						c0.1,0,0.2,0,0.3,0c0.1,0,0.2,0,0.3,0s0.2,0,0.3,0s0.2,0,0.2-0.1v0.5c-0.2,0-0.4,0.1-0.6,0.1c-0.2,0-0.4,0-0.7,0
						c-0.3,0-0.6,0-0.8-0.1c-0.2-0.1-0.4-0.2-0.5-0.4c-0.1-0.2-0.2-0.3-0.3-0.6s-0.1-0.5-0.1-0.8c0-0.2,0-0.5,0.1-0.7
						c0.1-0.2,0.2-0.4,0.3-0.6c0.1-0.2,0.3-0.3,0.5-0.4s0.4-0.1,0.7-0.1c0.3,0,0.5,0,0.7,0.1c0.2,0.1,0.4,0.2,0.5,0.3
						c0.1,0.1,0.2,0.3,0.3,0.5C-77.1,106.5-77.1,106.7-77.1,106.9z M-77.7,106.8c0-0.2,0-0.3,0-0.4c0-0.1-0.1-0.2-0.2-0.3
						s-0.2-0.2-0.3-0.2s-0.3-0.1-0.4-0.1c-0.1,0-0.3,0-0.4,0.1s-0.2,0.1-0.3,0.2s-0.1,0.2-0.2,0.3c-0.1,0.1-0.1,0.3-0.1,0.4H-77.7z"
						/>
					<path class="st13" d="M-75.9,107.9c0.1-0.2,0.2-0.3,0.3-0.4s0.2-0.1,0.4-0.2c-0.2,0-0.3-0.1-0.4-0.1c-0.1-0.1-0.2-0.1-0.2-0.2
						c-0.1-0.1-0.1-0.2-0.1-0.3s0-0.2,0-0.3c0-0.2,0-0.3,0.1-0.4c0.1-0.1,0.1-0.3,0.3-0.4c0.1-0.1,0.3-0.2,0.5-0.2s0.5-0.1,0.8-0.1
						c0.2,0,0.4,0,0.6,0c0.2,0,0.4,0,0.6,0v3.5h-0.6v-1.4h-0.5c-0.1,0-0.2,0-0.3,0c-0.1,0-0.2,0-0.2,0.1c-0.1,0-0.1,0.1-0.2,0.2
						c-0.1,0.1-0.1,0.1-0.2,0.2l-0.4,0.8h-0.7L-75.9,107.9z M-75.4,106.4c0,0.2,0.1,0.3,0.2,0.4c0.1,0.1,0.3,0.2,0.6,0.2h0.7v-1.2
						c-0.1,0-0.2,0-0.3,0c-0.1,0-0.2,0-0.3,0c-0.2,0-0.4,0-0.5,0s-0.2,0.1-0.3,0.1c-0.1,0.1-0.1,0.1-0.1,0.2
						C-75.4,106.2-75.4,106.3-75.4,106.4z"/>
					<path class="st13" d="M-68.9,105.9h-1.4v3h-0.6v-3h-1.4v-0.5h3.4C-68.9,105.4-68.9,105.9-68.9,105.9z"/>
					<path class="st13" d="M-65,106.9c0,0.1,0,0.2,0,0.2c0,0.1,0,0.1,0,0.2h-2.5c0,0.4,0.1,0.6,0.3,0.8s0.5,0.3,0.9,0.3
						c0.1,0,0.2,0,0.3,0s0.2,0,0.3,0s0.2,0,0.3,0c0.1,0,0.2,0,0.2-0.1v0.5c-0.2,0-0.4,0.1-0.6,0.1s-0.4,0-0.7,0
						c-0.3,0-0.6,0-0.8-0.1c-0.2-0.1-0.4-0.2-0.5-0.4c-0.1-0.2-0.2-0.3-0.3-0.6c-0.1-0.2-0.1-0.5-0.1-0.8c0-0.2,0-0.5,0.1-0.7
						c0.1-0.2,0.2-0.4,0.3-0.6c0.1-0.2,0.3-0.3,0.5-0.4c0.2-0.1,0.4-0.1,0.7-0.1c0.3,0,0.5,0,0.7,0.1c0.2,0.1,0.4,0.2,0.5,0.3
						c0.1,0.1,0.2,0.3,0.3,0.5C-65,106.5-65,106.7-65,106.9z M-65.6,106.8c0-0.2,0-0.3,0-0.4s-0.1-0.2-0.2-0.3s-0.2-0.2-0.3-0.2
						s-0.3-0.1-0.4-0.1c-0.1,0-0.3,0-0.4,0.1c-0.1,0.1-0.2,0.1-0.3,0.2c-0.1,0.1-0.1,0.2-0.2,0.3c-0.1,0.1-0.1,0.3-0.1,0.4H-65.6z"
						/>
					<path class="st13" d="M-61.2,108.9h-0.6v-3h-1c0,0.5-0.1,0.9-0.1,1.2c-0.1,0.3-0.1,0.6-0.2,0.9c-0.1,0.2-0.2,0.4-0.3,0.5
						c-0.1,0.1-0.2,0.2-0.3,0.3c-0.1,0.1-0.2,0.1-0.4,0.1c-0.1,0-0.3,0-0.4-0.1l0-0.5c0.1,0,0.2,0,0.3,0c0.1,0,0.2-0.1,0.2-0.1
						c0.1-0.1,0.1-0.2,0.2-0.3s0.1-0.3,0.2-0.5c0-0.2,0.1-0.5,0.1-0.8s0.1-0.7,0.1-1.2h2.2C-61.2,105.4-61.2,108.9-61.2,108.9z"/>
					<path class="st13" d="M-59.3,106.7c0.1,0,0.1,0,0.2,0c0.1,0,0.1,0,0.2,0s0.1,0,0.2,0c0.1,0,0.1,0,0.2,0c0.6,0,1,0.1,1.2,0.3
						s0.4,0.5,0.4,0.8c0,0.4-0.1,0.7-0.4,0.9c-0.3,0.2-0.7,0.3-1.3,0.3c-0.3,0-0.5,0-0.7,0c-0.2,0-0.4,0-0.6-0.1v-3.5h0.6
						C-59.3,105.4-59.3,106.7-59.3,106.7z M-57.6,107.8c0-0.1,0-0.2-0.1-0.3c0-0.1-0.1-0.1-0.2-0.2c-0.1-0.1-0.2-0.1-0.3-0.1
						c-0.1,0-0.3,0-0.5,0c-0.1,0-0.2,0-0.4,0c-0.1,0-0.3,0-0.4,0v1.2c0.1,0,0.2,0,0.4,0s0.2,0,0.4,0c0.2,0,0.4,0,0.5,0
						s0.2-0.1,0.3-0.1c0.1-0.1,0.1-0.1,0.2-0.2C-57.6,108-57.6,107.9-57.6,107.8z"/>
					<path class="st13" d="M-53.1,108.9h-0.6v-1.6h-1.6v1.6h-0.6v-3.5h0.6v1.4h1.6v-1.4h0.6V108.9z"/>
					<path class="st13" d="M-48.8,107.1c0,0.3,0,0.5-0.1,0.7c-0.1,0.2-0.2,0.4-0.3,0.6c-0.1,0.2-0.3,0.3-0.5,0.4
						c-0.2,0.1-0.5,0.1-0.7,0.1c-0.3,0-0.5,0-0.7-0.1c-0.2-0.1-0.4-0.2-0.5-0.3s-0.3-0.3-0.3-0.6c-0.1-0.2-0.1-0.5-0.1-0.8
						c0-0.3,0-0.5,0.1-0.7s0.2-0.4,0.3-0.6s0.3-0.3,0.5-0.4c0.2-0.1,0.5-0.1,0.7-0.1c0.3,0,0.5,0,0.7,0.1s0.4,0.2,0.5,0.3
						c0.1,0.2,0.3,0.3,0.3,0.6C-48.8,106.5-48.8,106.8-48.8,107.1z M-49.4,107.1c0-0.2,0-0.4-0.1-0.6s-0.1-0.3-0.2-0.4
						c-0.1-0.1-0.2-0.2-0.3-0.2c-0.1-0.1-0.3-0.1-0.4-0.1c-0.2,0-0.3,0-0.5,0.1s-0.2,0.2-0.3,0.3c-0.1,0.1-0.1,0.3-0.2,0.4
						s-0.1,0.3-0.1,0.5c0,0.2,0,0.4,0.1,0.6s0.1,0.3,0.2,0.4s0.2,0.2,0.3,0.2s0.3,0.1,0.4,0.1c0.2,0,0.3,0,0.5-0.1
						c0.1-0.1,0.2-0.2,0.3-0.3c0.1-0.1,0.1-0.3,0.2-0.4C-49.4,107.5-49.4,107.3-49.4,107.1z"/>
					<path class="st13" d="M-45.1,108.7c-0.2,0.1-0.3,0.1-0.5,0.1c-0.2,0-0.3,0-0.5,0c-0.6,0-1-0.2-1.3-0.4s-0.5-0.7-0.5-1.3
						c0-0.3,0-0.5,0.1-0.8s0.2-0.4,0.4-0.6s0.4-0.3,0.6-0.4c0.2-0.1,0.5-0.1,0.7-0.1c0.2,0,0.4,0,0.5,0c0.2,0,0.3,0.1,0.5,0.1v0.6
						c-0.2-0.1-0.3-0.1-0.5-0.2c-0.2,0-0.3-0.1-0.5-0.1c-0.2,0-0.3,0-0.5,0.1c-0.1,0.1-0.3,0.1-0.4,0.3s-0.2,0.2-0.3,0.4
						s-0.1,0.3-0.1,0.5c0,0.4,0.1,0.7,0.3,1c0.2,0.2,0.5,0.3,0.9,0.3c0.2,0,0.3,0,0.5-0.1c0.2,0,0.3-0.1,0.5-0.2L-45.1,108.7
						L-45.1,108.7z"/>
					<path class="st13" d="M-40.7,105.9h-1.4v3h-0.6v-3h-1.4v-0.5h3.4V105.9z"/>
					<path class="st13" d="M-39.2,106.7c0.1,0,0.1,0,0.2,0s0.1,0,0.2,0c0.1,0,0.1,0,0.2,0s0.1,0,0.2,0c0.6,0,1,0.1,1.2,0.3
						c0.3,0.2,0.4,0.5,0.4,0.8c0,0.4-0.1,0.7-0.4,0.9s-0.7,0.3-1.3,0.3c-0.3,0-0.5,0-0.7,0c-0.2,0-0.4,0-0.6-0.1v-3.5h0.6
						C-39.2,105.4-39.2,106.7-39.2,106.7z M-37.4,107.8c0-0.1,0-0.2-0.1-0.3c0-0.1-0.1-0.1-0.2-0.2c-0.1-0.1-0.2-0.1-0.3-0.1
						c-0.1,0-0.3,0-0.5,0c-0.1,0-0.2,0-0.4,0c-0.1,0-0.3,0-0.4,0v1.2c0.1,0,0.2,0,0.4,0s0.2,0,0.4,0c0.2,0,0.4,0,0.5,0
						c0.1,0,0.2-0.1,0.3-0.1c0.1-0.1,0.1-0.1,0.2-0.2S-37.4,107.9-37.4,107.8z"/>
				</g>
				<g>
					<rect x="29.2" y="103.9" class="st12" width="50.2" height="7"/>
					<path class="st13" d="M33.1,108.3l0,1.5h-0.6v-1h-2.7v1h-0.6l0-1.5h0.1c0.1,0,0.2,0,0.2-0.1c0.1,0,0.1-0.1,0.2-0.2
						c0.1-0.1,0.1-0.3,0.2-0.5c0.1-0.2,0.1-0.4,0.2-0.7c0.1-0.3,0.1-0.7,0.1-1.1c0-0.4,0.1-0.9,0.1-1.5h2.3v4H33.1z M31.9,104.8h-1
						c0,0.5,0,0.9-0.1,1.3s-0.1,0.7-0.1,1c-0.1,0.3-0.1,0.5-0.2,0.7c-0.1,0.2-0.2,0.3-0.3,0.4h1.7V104.8z"/>
					<path class="st13" d="M36.8,106.9c0,0.1,0,0.2,0,0.2s0,0.1,0,0.2h-2.5c0,0.4,0.1,0.6,0.3,0.8s0.5,0.3,0.9,0.3
						c0.1,0,0.2,0,0.3,0c0.1,0,0.2,0,0.3,0s0.2,0,0.3,0c0.1,0,0.2,0,0.2-0.1v0.5c-0.2,0-0.4,0.1-0.6,0.1c-0.2,0-0.4,0-0.7,0
						c-0.3,0-0.6,0-0.8-0.1c-0.2-0.1-0.4-0.2-0.5-0.4c-0.1-0.2-0.2-0.3-0.3-0.6s-0.1-0.5-0.1-0.8c0-0.2,0-0.5,0.1-0.7
						c0.1-0.2,0.2-0.4,0.3-0.6c0.1-0.2,0.3-0.3,0.5-0.4s0.4-0.1,0.7-0.1c0.3,0,0.5,0,0.7,0.1c0.2,0.1,0.4,0.2,0.5,0.3
						c0.1,0.1,0.2,0.3,0.3,0.5C36.8,106.5,36.8,106.7,36.8,106.9z M36.1,106.8c0-0.2,0-0.3,0-0.4c0-0.1-0.1-0.2-0.2-0.3
						s-0.2-0.2-0.3-0.2s-0.3-0.1-0.4-0.1c-0.1,0-0.3,0-0.4,0.1s-0.2,0.1-0.3,0.2s-0.1,0.2-0.2,0.3c-0.1,0.1-0.1,0.3-0.1,0.4H36.1z"
						/>
					<path class="st13" d="M38,107.9c0.1-0.2,0.2-0.3,0.3-0.4c0.1-0.1,0.2-0.1,0.4-0.2c-0.2,0-0.3-0.1-0.4-0.1
						c-0.1-0.1-0.2-0.1-0.2-0.2c-0.1-0.1-0.1-0.2-0.1-0.3c0-0.1,0-0.2,0-0.3c0-0.2,0-0.3,0.1-0.4c0.1-0.1,0.1-0.3,0.3-0.4
						c0.1-0.1,0.3-0.2,0.5-0.2s0.5-0.1,0.8-0.1c0.2,0,0.4,0,0.6,0c0.2,0,0.4,0,0.6,0v3.5H40v-1.4h-0.5c-0.1,0-0.2,0-0.3,0
						c-0.1,0-0.2,0-0.2,0.1c-0.1,0-0.1,0.1-0.2,0.2c-0.1,0.1-0.1,0.1-0.2,0.2l-0.4,0.8h-0.7L38,107.9z M38.5,106.4
						c0,0.2,0.1,0.3,0.2,0.4c0.1,0.1,0.3,0.2,0.6,0.2H40v-1.2c-0.1,0-0.2,0-0.3,0c-0.1,0-0.2,0-0.3,0c-0.2,0-0.4,0-0.5,0
						s-0.2,0.1-0.3,0.1c-0.1,0.1-0.1,0.1-0.1,0.2C38.5,106.2,38.5,106.3,38.5,106.4z"/>
					<path class="st13" d="M44.9,105.9h-1.4v3h-0.6v-3h-1.4v-0.5h3.4V105.9z"/>
					<path class="st13" d="M48.9,106.9c0,0.1,0,0.2,0,0.2c0,0.1,0,0.1,0,0.2h-2.5c0,0.4,0.1,0.6,0.3,0.8s0.5,0.3,0.9,0.3
						c0.1,0,0.2,0,0.3,0s0.2,0,0.3,0s0.2,0,0.3,0c0.1,0,0.2,0,0.2-0.1v0.5c-0.2,0-0.4,0.1-0.6,0.1s-0.4,0-0.7,0
						c-0.3,0-0.6,0-0.8-0.1c-0.2-0.1-0.4-0.2-0.5-0.4c-0.1-0.2-0.2-0.3-0.3-0.6c-0.1-0.2-0.1-0.5-0.1-0.8c0-0.2,0-0.5,0.1-0.7
						c0.1-0.2,0.2-0.4,0.3-0.6c0.1-0.2,0.3-0.3,0.5-0.4c0.2-0.1,0.4-0.1,0.7-0.1c0.3,0,0.5,0,0.7,0.1c0.2,0.1,0.4,0.2,0.5,0.3
						c0.1,0.1,0.2,0.3,0.3,0.5C48.9,106.5,48.9,106.7,48.9,106.9z M48.2,106.8c0-0.2,0-0.3,0-0.4s-0.1-0.2-0.2-0.3
						c-0.1-0.1-0.2-0.2-0.3-0.2s-0.3-0.1-0.4-0.1c-0.1,0-0.3,0-0.4,0.1c-0.1,0.1-0.2,0.1-0.3,0.2c-0.1,0.1-0.1,0.2-0.2,0.3
						s-0.1,0.3-0.1,0.4H48.2z"/>
					<path class="st13" d="M52.7,108.9h-0.6v-3h-1c0,0.5-0.1,0.9-0.1,1.2c-0.1,0.3-0.1,0.6-0.2,0.9c-0.1,0.2-0.2,0.4-0.3,0.5
						c-0.1,0.1-0.2,0.2-0.3,0.3c-0.1,0.1-0.2,0.1-0.4,0.1s-0.3,0-0.4-0.1l0-0.5c0.1,0,0.2,0,0.3,0c0.1,0,0.2-0.1,0.2-0.1
						c0.1-0.1,0.1-0.2,0.2-0.3s0.1-0.3,0.2-0.5c0-0.2,0.1-0.5,0.1-0.8s0.1-0.7,0.1-1.2h2.2V108.9z"/>
					<path class="st13" d="M54.6,106.7c0.1,0,0.1,0,0.2,0c0.1,0,0.1,0,0.2,0s0.1,0,0.2,0c0.1,0,0.1,0,0.2,0c0.6,0,1,0.1,1.2,0.3
						s0.4,0.5,0.4,0.8c0,0.4-0.1,0.7-0.4,0.9c-0.3,0.2-0.7,0.3-1.3,0.3c-0.3,0-0.5,0-0.7,0c-0.2,0-0.4,0-0.6-0.1v-3.5h0.6
						C54.6,105.4,54.6,106.7,54.6,106.7z M56.3,107.8c0-0.1,0-0.2-0.1-0.3c0-0.1-0.1-0.1-0.2-0.2c-0.1-0.1-0.2-0.1-0.3-0.1
						c-0.1,0-0.3,0-0.5,0c-0.1,0-0.2,0-0.4,0c-0.1,0-0.3,0-0.4,0v1.2c0.1,0,0.2,0,0.4,0s0.2,0,0.4,0c0.2,0,0.4,0,0.5,0
						s0.2-0.1,0.3-0.1c0.1-0.1,0.1-0.1,0.2-0.2C56.3,108,56.3,107.9,56.3,107.8z"/>
					<path class="st13" d="M60.8,108.9h-0.6v-1.6h-1.6v1.6h-0.6v-3.5h0.6v1.4h1.6v-1.4h0.6V108.9z"/>
					<path class="st13" d="M65.1,107.1c0,0.3,0,0.5-0.1,0.7c-0.1,0.2-0.2,0.4-0.3,0.6c-0.1,0.2-0.3,0.3-0.5,0.4
						c-0.2,0.1-0.5,0.1-0.7,0.1c-0.3,0-0.5,0-0.7-0.1c-0.2-0.1-0.4-0.2-0.5-0.3s-0.3-0.3-0.3-0.6c-0.1-0.2-0.1-0.5-0.1-0.8
						c0-0.3,0-0.5,0.1-0.7s0.2-0.4,0.3-0.6s0.3-0.3,0.5-0.4c0.2-0.1,0.5-0.1,0.7-0.1c0.3,0,0.5,0,0.7,0.1s0.4,0.2,0.5,0.3
						c0.1,0.2,0.3,0.3,0.3,0.6C65.1,106.5,65.1,106.8,65.1,107.1z M64.5,107.1c0-0.2,0-0.4-0.1-0.6s-0.1-0.3-0.2-0.4
						c-0.1-0.1-0.2-0.2-0.3-0.2c-0.1-0.1-0.3-0.1-0.4-0.1c-0.2,0-0.3,0-0.5,0.1s-0.2,0.2-0.3,0.3c-0.1,0.1-0.1,0.3-0.2,0.4
						s-0.1,0.3-0.1,0.5c0,0.2,0,0.4,0.1,0.6s0.1,0.3,0.2,0.4s0.2,0.2,0.3,0.2s0.3,0.1,0.4,0.1c0.2,0,0.3,0,0.5-0.1
						c0.1-0.1,0.2-0.2,0.3-0.3c0.1-0.1,0.1-0.3,0.2-0.4C64.4,107.5,64.5,107.3,64.5,107.1z"/>
					<path class="st13" d="M68.8,108.7c-0.2,0.1-0.3,0.1-0.5,0.1c-0.2,0-0.3,0-0.5,0c-0.6,0-1-0.2-1.3-0.4s-0.5-0.7-0.5-1.3
						c0-0.3,0-0.5,0.1-0.8c0.1-0.2,0.2-0.4,0.4-0.6s0.4-0.3,0.6-0.4c0.2-0.1,0.5-0.1,0.7-0.1c0.2,0,0.4,0,0.5,0
						c0.2,0,0.3,0.1,0.5,0.1v0.6c-0.2-0.1-0.3-0.1-0.5-0.2c-0.2,0-0.3-0.1-0.5-0.1c-0.2,0-0.3,0-0.5,0.1c-0.1,0.1-0.3,0.1-0.4,0.3
						s-0.2,0.2-0.3,0.4s-0.1,0.3-0.1,0.5c0,0.4,0.1,0.7,0.3,1c0.2,0.2,0.5,0.3,0.9,0.3c0.2,0,0.3,0,0.5-0.1c0.2,0,0.3-0.1,0.5-0.2
						L68.8,108.7L68.8,108.7z"/>
					<path class="st13" d="M73.1,105.9h-1.4v3h-0.6v-3h-1.4v-0.5h3.4C73.1,105.4,73.1,105.9,73.1,105.9z"/>
					<path class="st13" d="M74.7,106.7c0.1,0,0.1,0,0.2,0s0.1,0,0.2,0c0.1,0,0.1,0,0.2,0s0.1,0,0.2,0c0.6,0,1,0.1,1.2,0.3
						c0.3,0.2,0.4,0.5,0.4,0.8c0,0.4-0.1,0.7-0.4,0.9s-0.7,0.3-1.3,0.3c-0.3,0-0.5,0-0.7,0s-0.4,0-0.6-0.1v-3.5h0.6
						C74.7,105.4,74.7,106.7,74.7,106.7z M76.5,107.8c0-0.1,0-0.2-0.1-0.3c0-0.1-0.1-0.1-0.2-0.2c-0.1-0.1-0.2-0.1-0.3-0.1
						c-0.1,0-0.3,0-0.5,0c-0.1,0-0.2,0-0.4,0c-0.1,0-0.3,0-0.4,0v1.2c0.1,0,0.2,0,0.4,0s0.2,0,0.4,0c0.2,0,0.4,0,0.5,0
						c0.1,0,0.2-0.1,0.3-0.1c0.1-0.1,0.1-0.1,0.2-0.2S76.5,107.9,76.5,107.8z"/>
				</g>
				<polygon class="st4" points="185.2,115 132.5,115 140.5,106.7 132.5,98.5 185.2,98.5 193.1,106.7 				"/>
				<g>
					<rect x="141" y="103.9" class="st12" width="50.2" height="7"/>
					<path class="st13" d="M145,108.3l0,1.5h-0.6v-1h-2.7v1h-0.6l0-1.5h0.1c0.1,0,0.2,0,0.2-0.1s0.1-0.1,0.2-0.2
						c0.1-0.1,0.1-0.3,0.2-0.5c0.1-0.2,0.1-0.4,0.2-0.7c0.1-0.3,0.1-0.7,0.1-1.1c0-0.4,0.1-0.9,0.1-1.5h2.3v4H145z M143.8,104.8h-1
						c0,0.5,0,0.9-0.1,1.3s-0.1,0.7-0.1,1c-0.1,0.3-0.1,0.5-0.2,0.7c-0.1,0.2-0.2,0.3-0.3,0.4h1.7L143.8,104.8L143.8,104.8z"/>
					<path class="st13" d="M148.7,106.9c0,0.1,0,0.2,0,0.2s0,0.1,0,0.2h-2.5c0,0.4,0.1,0.6,0.3,0.8s0.5,0.3,0.9,0.3
						c0.1,0,0.2,0,0.3,0s0.2,0,0.3,0c0.1,0,0.2,0,0.3,0s0.2,0,0.2-0.1v0.5c-0.2,0-0.4,0.1-0.6,0.1c-0.2,0-0.4,0-0.7,0
						c-0.3,0-0.6,0-0.8-0.1c-0.2-0.1-0.4-0.2-0.5-0.4s-0.2-0.3-0.3-0.6c-0.1-0.2-0.1-0.5-0.1-0.8c0-0.2,0-0.5,0.1-0.7
						c0.1-0.2,0.2-0.4,0.3-0.6c0.1-0.2,0.3-0.3,0.5-0.4s0.4-0.1,0.7-0.1c0.3,0,0.5,0,0.7,0.1c0.2,0.1,0.4,0.2,0.5,0.3
						c0.1,0.1,0.2,0.3,0.3,0.5C148.6,106.5,148.7,106.7,148.7,106.9z M148,106.8c0-0.2,0-0.3,0-0.4c0-0.1-0.1-0.2-0.2-0.3
						c-0.1-0.1-0.2-0.2-0.3-0.2c-0.1-0.1-0.3-0.1-0.4-0.1c-0.1,0-0.3,0-0.4,0.1s-0.2,0.1-0.3,0.2s-0.1,0.2-0.2,0.3
						c-0.1,0.1-0.1,0.3-0.1,0.4H148z"/>
					<path class="st13" d="M149.9,107.9c0.1-0.2,0.2-0.3,0.3-0.4s0.2-0.1,0.4-0.2c-0.1,0-0.3-0.1-0.4-0.1s-0.2-0.1-0.2-0.2
						c-0.1-0.1-0.1-0.2-0.1-0.3c0-0.1,0-0.2,0-0.3c0-0.2,0-0.3,0.1-0.4s0.1-0.3,0.3-0.4s0.3-0.2,0.5-0.2c0.2-0.1,0.5-0.1,0.8-0.1
						c0.2,0,0.4,0,0.6,0c0.2,0,0.4,0,0.6,0v3.5h-0.6v-1.4h-0.5c-0.1,0-0.2,0-0.3,0s-0.2,0-0.2,0.1c-0.1,0-0.1,0.1-0.2,0.2
						c-0.1,0.1-0.1,0.1-0.2,0.2l-0.4,0.8h-0.7L149.9,107.9z M150.4,106.4c0,0.2,0.1,0.3,0.2,0.4c0.1,0.1,0.3,0.2,0.6,0.2h0.7v-1.2
						c-0.1,0-0.2,0-0.3,0c-0.1,0-0.2,0-0.3,0c-0.2,0-0.4,0-0.5,0s-0.2,0.1-0.3,0.1c-0.1,0.1-0.1,0.1-0.1,0.2
						C150.4,106.2,150.4,106.3,150.4,106.4z"/>
					<path class="st13" d="M156.8,105.9h-1.4v3h-0.6v-3h-1.4v-0.5h3.4V105.9z"/>
					<path class="st13" d="M160.8,106.9c0,0.1,0,0.2,0,0.2c0,0.1,0,0.1,0,0.2h-2.5c0,0.4,0.1,0.6,0.3,0.8s0.5,0.3,0.9,0.3
						c0.1,0,0.2,0,0.3,0c0.1,0,0.2,0,0.3,0c0.1,0,0.2,0,0.3,0c0.1,0,0.2,0,0.2-0.1v0.5c-0.2,0-0.4,0.1-0.6,0.1s-0.4,0-0.7,0
						c-0.3,0-0.6,0-0.8-0.1c-0.2-0.1-0.4-0.2-0.5-0.4c-0.1-0.2-0.2-0.3-0.3-0.6s-0.1-0.5-0.1-0.8c0-0.2,0-0.5,0.1-0.7
						c0.1-0.2,0.2-0.4,0.3-0.6c0.1-0.2,0.3-0.3,0.5-0.4c0.2-0.1,0.4-0.1,0.7-0.1c0.3,0,0.5,0,0.7,0.1c0.2,0.1,0.4,0.2,0.5,0.3
						c0.1,0.1,0.2,0.3,0.3,0.5C160.7,106.5,160.8,106.7,160.8,106.9z M160.1,106.8c0-0.2,0-0.3,0-0.4s-0.1-0.2-0.2-0.3
						c-0.1-0.1-0.2-0.2-0.3-0.2c-0.1-0.1-0.3-0.1-0.4-0.1c-0.1,0-0.3,0-0.4,0.1c-0.1,0.1-0.2,0.1-0.3,0.2c-0.1,0.1-0.1,0.2-0.2,0.3
						c-0.1,0.1-0.1,0.3-0.1,0.4H160.1z"/>
					<path class="st13" d="M164.6,108.9H164v-3h-1c0,0.5-0.1,0.9-0.1,1.2c-0.1,0.3-0.1,0.6-0.2,0.9c-0.1,0.2-0.2,0.4-0.3,0.5
						c-0.1,0.1-0.2,0.2-0.3,0.3c-0.1,0.1-0.2,0.1-0.4,0.1c-0.1,0-0.3,0-0.4-0.1l0-0.5c0.1,0,0.2,0,0.3,0c0.1,0,0.2-0.1,0.2-0.1
						c0.1-0.1,0.1-0.2,0.2-0.3s0.1-0.3,0.2-0.5c0-0.2,0.1-0.5,0.1-0.8s0.1-0.7,0.1-1.2h2.2V108.9z"/>
					<path class="st13" d="M166.4,106.7c0.1,0,0.1,0,0.2,0c0.1,0,0.1,0,0.2,0s0.1,0,0.2,0c0.1,0,0.1,0,0.2,0c0.6,0,1,0.1,1.2,0.3
						s0.4,0.5,0.4,0.8c0,0.4-0.1,0.7-0.4,0.9c-0.3,0.2-0.7,0.3-1.3,0.3c-0.3,0-0.5,0-0.7,0s-0.4,0-0.6-0.1v-3.5h0.6L166.4,106.7
						L166.4,106.7z M168.2,107.8c0-0.1,0-0.2-0.1-0.3c0-0.1-0.1-0.1-0.2-0.2c-0.1-0.1-0.2-0.1-0.3-0.1c-0.1,0-0.3,0-0.5,0
						c-0.1,0-0.2,0-0.4,0c-0.1,0-0.3,0-0.4,0v1.2c0.1,0,0.2,0,0.4,0s0.2,0,0.4,0c0.2,0,0.4,0,0.5,0s0.2-0.1,0.3-0.1
						c0.1-0.1,0.1-0.1,0.2-0.2C168.2,108,168.2,107.9,168.2,107.8z"/>
					<path class="st13" d="M172.7,108.9h-0.6v-1.6h-1.6v1.6h-0.6v-3.5h0.6v1.4h1.6v-1.4h0.6V108.9z"/>
					<path class="st13" d="M177,107.1c0,0.3,0,0.5-0.1,0.7c-0.1,0.2-0.2,0.4-0.3,0.6c-0.1,0.2-0.3,0.3-0.5,0.4
						c-0.2,0.1-0.5,0.1-0.7,0.1c-0.3,0-0.5,0-0.7-0.1c-0.2-0.1-0.4-0.2-0.5-0.3s-0.3-0.3-0.3-0.6c-0.1-0.2-0.1-0.5-0.1-0.8
						c0-0.3,0-0.5,0.1-0.7s0.2-0.4,0.3-0.6s0.3-0.3,0.5-0.4c0.2-0.1,0.5-0.1,0.7-0.1c0.3,0,0.5,0,0.7,0.1s0.4,0.2,0.5,0.3
						c0.1,0.2,0.3,0.3,0.3,0.6C176.9,106.5,177,106.8,177,107.1z M176.3,107.1c0-0.2,0-0.4-0.1-0.6s-0.1-0.3-0.2-0.4
						c-0.1-0.1-0.2-0.2-0.3-0.2c-0.1-0.1-0.3-0.1-0.4-0.1c-0.2,0-0.3,0-0.5,0.1s-0.2,0.2-0.3,0.3c-0.1,0.1-0.1,0.3-0.2,0.4
						s-0.1,0.3-0.1,0.5c0,0.2,0,0.4,0.1,0.6c0,0.2,0.1,0.3,0.2,0.4s0.2,0.2,0.3,0.2s0.3,0.1,0.4,0.1c0.2,0,0.3,0,0.5-0.1
						c0.1-0.1,0.2-0.2,0.3-0.3s0.1-0.3,0.2-0.4C176.3,107.5,176.3,107.3,176.3,107.1z"/>
					<path class="st13" d="M180.7,108.7c-0.2,0.1-0.3,0.1-0.5,0.1c-0.2,0-0.3,0-0.5,0c-0.6,0-1-0.2-1.3-0.4s-0.5-0.7-0.5-1.3
						c0-0.3,0-0.5,0.1-0.8s0.2-0.4,0.4-0.6c0.2-0.2,0.4-0.3,0.6-0.4s0.5-0.1,0.7-0.1c0.2,0,0.4,0,0.5,0c0.2,0,0.3,0.1,0.5,0.1v0.6
						c-0.2-0.1-0.3-0.1-0.5-0.2s-0.3-0.1-0.5-0.1c-0.2,0-0.3,0-0.5,0.1c-0.1,0.1-0.3,0.1-0.4,0.3s-0.2,0.2-0.3,0.4
						c-0.1,0.2-0.1,0.3-0.1,0.5c0,0.4,0.1,0.7,0.3,1c0.2,0.2,0.5,0.3,0.9,0.3c0.2,0,0.3,0,0.5-0.1c0.2,0,0.3-0.1,0.5-0.2
						L180.7,108.7L180.7,108.7z"/>
					<path class="st13" d="M185,105.9h-1.4v3H183v-3h-1.4v-0.5h3.4L185,105.9L185,105.9z"/>
					<path class="st13" d="M186.6,106.7c0.1,0,0.1,0,0.2,0c0.1,0,0.1,0,0.2,0c0.1,0,0.1,0,0.2,0c0.1,0,0.1,0,0.2,0
						c0.6,0,1,0.1,1.2,0.3c0.3,0.2,0.4,0.5,0.4,0.8c0,0.4-0.1,0.7-0.4,0.9c-0.3,0.2-0.7,0.3-1.3,0.3c-0.3,0-0.5,0-0.7,0
						c-0.2,0-0.4,0-0.6-0.1v-3.5h0.6V106.7z M188.4,107.8c0-0.1,0-0.2-0.1-0.3c0-0.1-0.1-0.1-0.2-0.2c-0.1-0.1-0.2-0.1-0.3-0.1
						c-0.1,0-0.3,0-0.5,0c-0.1,0-0.2,0-0.4,0c-0.1,0-0.3,0-0.4,0v1.2c0.1,0,0.2,0,0.4,0s0.2,0,0.4,0c0.2,0,0.4,0,0.5,0
						c0.1,0,0.2-0.1,0.3-0.1c0.1-0.1,0.1-0.1,0.2-0.2S188.4,107.9,188.4,107.8z"/>
				</g>
				<g>
					<rect x="104.5" y="-4.5" class="st12" width="38.1" height="11.8"/>
					<path class="st13" d="M111.1,0.5h-0.8l-1.8-2.2v2.2h-0.6v-4.6h0.6V-2l1.7-2.1h0.8l-1.8,2.2L111.1,0.5z"/>
					<path class="st13" d="M115.1-1.3c0,0.3,0,0.5-0.1,0.7c-0.1,0.2-0.2,0.4-0.3,0.6c-0.1,0.2-0.3,0.3-0.5,0.4
						c-0.2,0.1-0.5,0.1-0.7,0.1c-0.3,0-0.5,0-0.7-0.1c-0.2-0.1-0.4-0.2-0.5-0.3s-0.3-0.3-0.3-0.6c-0.1-0.2-0.1-0.5-0.1-0.8
						c0-0.3,0-0.5,0.1-0.7s0.2-0.4,0.3-0.6s0.3-0.3,0.5-0.4c0.2-0.1,0.5-0.1,0.7-0.1c0.3,0,0.5,0,0.7,0.1s0.4,0.2,0.5,0.3
						c0.1,0.2,0.3,0.3,0.3,0.6C115.1-1.9,115.1-1.6,115.1-1.3z M114.5-1.3c0-0.2,0-0.4-0.1-0.6s-0.1-0.3-0.2-0.4
						c-0.1-0.1-0.2-0.2-0.3-0.2c-0.1-0.1-0.3-0.1-0.4-0.1c-0.2,0-0.3,0-0.5,0.1s-0.2,0.2-0.3,0.3c-0.1,0.1-0.1,0.3-0.2,0.4
						s-0.1,0.3-0.1,0.5c0,0.2,0,0.4,0.1,0.6c0,0.2,0.1,0.3,0.2,0.4s0.2,0.2,0.3,0.2s0.3,0.1,0.4,0.1c0.2,0,0.3,0,0.5-0.1
						c0.1-0.1,0.2-0.2,0.3-0.3s0.1-0.3,0.2-0.4C114.5-0.9,114.5-1.1,114.5-1.3z"/>
					<path class="st13" d="M118.9,0.5h-0.6v-1.5h-1.6v1.5H116V-3h0.6v1.4h1.6V-3h0.6V0.5z"/>
					<path class="st13" d="M123.1-1.5c0,0.1,0,0.2,0,0.2c0,0.1,0,0.1,0,0.2h-2.5c0,0.4,0.1,0.6,0.3,0.8s0.5,0.3,0.9,0.3
						c0.1,0,0.2,0,0.3,0s0.2,0,0.3,0s0.2,0,0.3,0c0.1,0,0.2,0,0.2-0.1v0.5c-0.2,0-0.4,0.1-0.6,0.1c-0.2,0-0.4,0-0.7,0
						c-0.3,0-0.6,0-0.8-0.1c-0.2-0.1-0.4-0.2-0.5-0.4c-0.1-0.2-0.2-0.3-0.3-0.6c-0.1-0.2-0.1-0.5-0.1-0.8c0-0.2,0-0.5,0.1-0.7
						c0.1-0.2,0.2-0.4,0.3-0.6c0.1-0.2,0.3-0.3,0.5-0.4c0.2-0.1,0.4-0.1,0.7-0.1c0.3,0,0.5,0,0.7,0.1s0.4,0.2,0.5,0.3
						c0.1,0.1,0.2,0.3,0.3,0.5C123-1.9,123.1-1.7,123.1-1.5z M122.4-1.6c0-0.2,0-0.3,0-0.4s-0.1-0.2-0.2-0.3
						c-0.1-0.1-0.2-0.2-0.3-0.2s-0.3-0.1-0.4-0.1c-0.1,0-0.3,0-0.4,0.1c-0.1,0.1-0.2,0.1-0.3,0.2c-0.1,0.1-0.1,0.2-0.2,0.3
						c-0.1,0.1-0.1,0.3-0.1,0.4C120.5-1.6,122.4-1.6,122.4-1.6z"/>
					<path class="st13" d="M126.3-0.9h-0.7c-0.6,0-1-0.1-1.2-0.3c-0.3-0.2-0.4-0.5-0.4-0.9v-1h0.6v0.9c0,0.1,0,0.3,0.1,0.4
						s0.1,0.2,0.2,0.2c0.1,0.1,0.2,0.1,0.3,0.1c0.1,0,0.3,0,0.5,0h0.7V-3h0.6v3.5h-0.6V-0.9z"/>
					<path class="st13" d="M131,0.5h-0.6v-1.5h-1.6v1.5h-0.6V-3h0.6v1.4h1.6V-3h0.6V0.5z"/>
					<path class="st13" d="M132.5-1.7c0.1,0,0.2,0,0.2,0c0.1,0,0.2,0,0.2,0c0.2,0,0.4,0,0.6,0.1c0.2,0.1,0.3,0.1,0.4,0.2
						s0.2,0.2,0.3,0.3s0.1,0.3,0.1,0.4c0,0.2,0,0.3-0.1,0.5c-0.1,0.1-0.2,0.3-0.3,0.4c-0.1,0.1-0.3,0.2-0.4,0.2s-0.4,0.1-0.6,0.1
						c-0.2,0-0.3,0-0.5,0s-0.3,0-0.5-0.1V-3h0.6L132.5-1.7L132.5-1.7z M133.6-0.6c0-0.2-0.1-0.3-0.2-0.4s-0.3-0.2-0.6-0.2
						c-0.1,0-0.1,0-0.2,0c-0.1,0-0.1,0-0.2,0V0c0.1,0,0.1,0,0.2,0c0.1,0,0.1,0,0.2,0c0.1,0,0.3,0,0.4-0.1c0.1,0,0.2-0.1,0.2-0.1
						c0.1-0.1,0.1-0.1,0.1-0.2C133.6-0.5,133.6-0.5,133.6-0.6z M134.7,0.5V-3h0.6v3.5H134.7z"/>
					<path class="st13" d="M136.8-3v2.5l1.6-2.5h0.6v3.5h-0.6V-2l-1.6,2.5h-0.6V-3H136.8z M138.7-4.4c0,0.1,0,0.3-0.1,0.4
						s-0.1,0.2-0.2,0.3s-0.2,0.1-0.3,0.2c-0.1,0-0.3,0.1-0.5,0.1c-0.2,0-0.4,0-0.5-0.1c-0.1,0-0.2-0.1-0.3-0.2s-0.2-0.2-0.2-0.3
						s-0.1-0.2-0.1-0.4h0.6c0,0.1,0,0.1,0,0.2c0,0.1,0,0.1,0.1,0.2s0.1,0.1,0.2,0.1c0.1,0,0.1,0,0.3,0s0.2,0,0.3,0
						C137.9-4,138-4,138-4s0.1-0.1,0.1-0.2s0-0.1,0-0.2H138.7z"/>
					<path class="st13" d="M112.9,6.1h-0.6v-3h-1.6v3H110V2.6h2.9V6.1z"/>
					<path class="st13" d="M117.1,4.3c0,0.3,0,0.6-0.1,0.8c-0.1,0.2-0.2,0.4-0.4,0.6c-0.2,0.2-0.3,0.3-0.6,0.3s-0.4,0.1-0.7,0.1
						c-0.1,0-0.2,0-0.3,0s-0.2,0-0.3-0.1v1.5H114V2.6h0.6l0,0.6c0.2-0.2,0.4-0.4,0.6-0.5c0.2-0.1,0.4-0.1,0.7-0.1
						c0.2,0,0.4,0,0.5,0.1s0.3,0.2,0.4,0.4s0.2,0.3,0.2,0.6C117,3.8,117.1,4,117.1,4.3z M116.4,4.3c0-0.2,0-0.4,0-0.5
						c0-0.2-0.1-0.3-0.1-0.4c-0.1-0.1-0.1-0.2-0.2-0.3c-0.1-0.1-0.2-0.1-0.3-0.1c-0.1,0-0.2,0-0.2,0c-0.1,0-0.2,0.1-0.3,0.1
						s-0.2,0.1-0.3,0.2c-0.1,0.1-0.2,0.2-0.3,0.4v1.7c0.1,0,0.2,0.1,0.4,0.1s0.3,0,0.4,0c0.3,0,0.6-0.1,0.8-0.3S116.4,4.7,116.4,4.3
						z"/>
					<path class="st13" d="M121.2,4.3c0,0.3,0,0.5-0.1,0.7s-0.2,0.4-0.3,0.6c-0.1,0.2-0.3,0.3-0.5,0.4c-0.2,0.1-0.5,0.1-0.7,0.1
						c-0.3,0-0.5,0-0.7-0.1s-0.4-0.2-0.5-0.3c-0.1-0.2-0.3-0.3-0.3-0.6c-0.1-0.2-0.1-0.5-0.1-0.8c0-0.3,0-0.5,0.1-0.7
						c0.1-0.2,0.2-0.4,0.3-0.6c0.1-0.2,0.3-0.3,0.5-0.4c0.2-0.1,0.5-0.1,0.7-0.1c0.3,0,0.5,0,0.7,0.1c0.2,0.1,0.4,0.2,0.5,0.3
						s0.3,0.3,0.3,0.6C121.1,3.8,121.2,4,121.2,4.3z M120.5,4.3c0-0.2,0-0.4-0.1-0.6s-0.1-0.3-0.2-0.4s-0.2-0.2-0.3-0.2
						S119.6,3,119.5,3c-0.2,0-0.3,0-0.5,0.1c-0.1,0.1-0.2,0.2-0.3,0.3s-0.1,0.3-0.2,0.4c0,0.2-0.1,0.3-0.1,0.5c0,0.2,0,0.4,0.1,0.6
						c0,0.2,0.1,0.3,0.2,0.4c0.1,0.1,0.2,0.2,0.3,0.2s0.3,0.1,0.4,0.1c0.2,0,0.3,0,0.5-0.1c0.1-0.1,0.2-0.2,0.3-0.3
						c0.1-0.1,0.1-0.3,0.2-0.4C120.5,4.7,120.5,4.5,120.5,4.3z"/>
					<path class="st13" d="M125.4,5.6l0,1.4h-0.6V6.1h-2.6V7h-0.6l0-1.4h0c0.1,0,0.2,0,0.3,0c0.1,0,0.2-0.1,0.2-0.2
						c0.1-0.1,0.1-0.2,0.2-0.3c0.1-0.1,0.1-0.3,0.2-0.5c0-0.2,0.1-0.5,0.1-0.8c0-0.3,0.1-0.7,0.1-1.1h2.2v3H125.4z M124.3,3.1h-1
						c0,0.4-0.1,0.7-0.1,1s-0.1,0.5-0.1,0.7c-0.1,0.2-0.1,0.3-0.2,0.5c-0.1,0.1-0.1,0.2-0.2,0.3h1.6L124.3,3.1L124.3,3.1z"/>
					<path class="st13" d="M129.3,2.6l-1.2,3.1c-0.1,0.3-0.3,0.6-0.4,0.8c-0.1,0.2-0.3,0.4-0.4,0.6c-0.2,0.1-0.3,0.3-0.5,0.3
						c-0.2,0.1-0.4,0.1-0.6,0.1c-0.1,0-0.1,0-0.2,0c-0.1,0-0.1,0-0.2,0V7c0.1,0,0.1,0,0.2,0c0.1,0,0.1,0,0.2,0c0.1,0,0.2,0,0.3,0
						s0.2-0.1,0.3-0.2c0.1-0.1,0.2-0.2,0.3-0.3s0.2-0.3,0.2-0.4l-1.4-3.5h0.7l0.9,2.3l0.2,0.5l0.2-0.6l0.8-2.3L129.3,2.6L129.3,2.6z
						"/>
					<path class="st13" d="M133.3,6.1h-0.9l-1.7-1.9v1.9h-0.6V2.6h0.6v1.6l1.6-1.6h0.8l-1.7,1.6L133.3,6.1z"/>
					<path class="st13" d="M137.3,3.1h-1.4v3h-0.6v-3h-1.4V2.6h3.4V3.1z"/>
				</g>
				<g>
					<polygon class="st6" points="144,28.1 104.5,28.1 96.7,20.5 104.5,11.6 144.1,11.6 151.9,19.3 					"/>
					<g>
						<polyline class="st7" points="144.9,27.2 144,28.1 142.7,28.1 						"/>
						<polyline class="st14" points="140.2,28.1 104.5,28.1 98.5,22.3 						"/>
						<polyline class="st7" points="97.6,21.4 96.7,20.5 97.5,19.6 						"/>
						<line class="st15" x1="99.6" y1="17.2" x2="102.7" y2="13.8"/>
						<polyline class="st7" points="103.7,12.6 104.5,11.6 105.8,11.6 						"/>
						<polyline class="st16" points="108.4,11.6 144.1,11.6 150.1,17.6 						"/>
						<polyline class="st7" points="151,18.5 151.9,19.3 151,20.3 						"/>
						<line class="st11" x1="149" y1="22.6" x2="145.9" y2="26"/>
					</g>
				</g>
				<g>
					<rect x="104.5" y="14" class="st12" width="38.1" height="11.8"/>
					<path class="st13" d="M111.1,18.9h-0.8l-1.8-2.2v2.2h-0.6v-4.6h0.6v2.1l1.7-2.1h0.8l-1.8,2.2L111.1,18.9z"/>
					<path class="st13" d="M115.1,17.1c0,0.3,0,0.5-0.1,0.7c-0.1,0.2-0.2,0.4-0.3,0.6c-0.1,0.2-0.3,0.3-0.5,0.4
						c-0.2,0.1-0.5,0.1-0.7,0.1c-0.3,0-0.5,0-0.7-0.1c-0.2-0.1-0.4-0.2-0.5-0.3s-0.3-0.3-0.3-0.6c-0.1-0.2-0.1-0.5-0.1-0.8
						c0-0.3,0-0.5,0.1-0.7s0.2-0.4,0.3-0.6s0.3-0.3,0.5-0.4c0.2-0.1,0.5-0.1,0.7-0.1c0.3,0,0.5,0,0.7,0.1s0.4,0.2,0.5,0.3
						c0.1,0.1,0.3,0.3,0.3,0.6C115.1,16.6,115.1,16.9,115.1,17.1z M114.5,17.2c0-0.2,0-0.4-0.1-0.6s-0.1-0.3-0.2-0.4
						c-0.1-0.1-0.2-0.2-0.3-0.2c-0.1-0.1-0.3-0.1-0.4-0.1c-0.2,0-0.3,0-0.5,0.1c-0.1,0.1-0.2,0.2-0.3,0.3c-0.1,0.1-0.1,0.3-0.2,0.4
						s-0.1,0.3-0.1,0.5c0,0.2,0,0.4,0.1,0.6c0,0.2,0.1,0.3,0.2,0.4s0.2,0.2,0.3,0.2s0.3,0.1,0.4,0.1c0.2,0,0.3,0,0.5-0.1
						c0.1-0.1,0.2-0.2,0.3-0.3s0.1-0.3,0.2-0.4C114.5,17.5,114.5,17.3,114.5,17.2z"/>
					<path class="st13" d="M118.9,18.9h-0.6v-1.5h-1.6v1.5H116v-3.5h0.6v1.4h1.6v-1.4h0.6V18.9z"/>
					<path class="st13" d="M123.1,17c0,0.1,0,0.2,0,0.2c0,0.1,0,0.1,0,0.2h-2.5c0,0.4,0.1,0.6,0.3,0.8s0.5,0.3,0.9,0.3
						c0.1,0,0.2,0,0.3,0s0.2,0,0.3,0s0.2,0,0.3,0c0.1,0,0.2,0,0.2-0.1v0.5c-0.2,0-0.4,0.1-0.6,0.1c-0.2,0-0.4,0-0.7,0
						c-0.3,0-0.6,0-0.8-0.1c-0.2-0.1-0.4-0.2-0.5-0.4c-0.1-0.2-0.2-0.3-0.3-0.6c-0.1-0.2-0.1-0.5-0.1-0.8c0-0.2,0-0.5,0.1-0.7
						c0.1-0.2,0.2-0.4,0.3-0.6c0.1-0.2,0.3-0.3,0.5-0.4c0.2-0.1,0.4-0.1,0.7-0.1c0.3,0,0.5,0,0.7,0.1s0.4,0.2,0.5,0.3
						c0.1,0.1,0.2,0.3,0.3,0.5C123,16.5,123.1,16.7,123.1,17z M122.4,16.9c0-0.2,0-0.3,0-0.4s-0.1-0.2-0.2-0.3s-0.2-0.2-0.3-0.2
						s-0.3-0.1-0.4-0.1c-0.1,0-0.3,0-0.4,0.1c-0.1,0.1-0.2,0.1-0.3,0.2c-0.1,0.1-0.1,0.2-0.2,0.3c-0.1,0.1-0.1,0.3-0.1,0.4
						C120.5,16.9,122.4,16.9,122.4,16.9z"/>
					<path class="st13" d="M126.3,17.6h-0.7c-0.6,0-1-0.1-1.2-0.3c-0.3-0.2-0.4-0.5-0.4-0.9v-1h0.6v0.9c0,0.1,0,0.3,0.1,0.4
						s0.1,0.2,0.2,0.2c0.1,0.1,0.2,0.1,0.3,0.1c0.1,0,0.3,0,0.5,0h0.7v-1.6h0.6v3.5h-0.6V17.6z"/>
					<path class="st13" d="M131,18.9h-0.6v-1.5h-1.6v1.5h-0.6v-3.5h0.6v1.4h1.6v-1.4h0.6V18.9z"/>
					<path class="st13" d="M132.5,16.8c0.1,0,0.2,0,0.2,0c0.1,0,0.2,0,0.2,0c0.2,0,0.4,0,0.6,0.1c0.2,0.1,0.3,0.1,0.4,0.2
						s0.2,0.2,0.3,0.3s0.1,0.3,0.1,0.4c0,0.2,0,0.4-0.1,0.5c-0.1,0.1-0.2,0.3-0.3,0.4c-0.1,0.1-0.3,0.2-0.4,0.2s-0.4,0.1-0.6,0.1
						c-0.2,0-0.3,0-0.5,0s-0.3,0-0.5-0.1v-3.5h0.6L132.5,16.8L132.5,16.8z M133.6,17.9c0-0.2-0.1-0.3-0.2-0.4s-0.3-0.2-0.6-0.2
						c-0.1,0-0.1,0-0.2,0c-0.1,0-0.1,0-0.2,0v1.2c0.1,0,0.1,0,0.2,0c0.1,0,0.1,0,0.2,0c0.1,0,0.3,0,0.4,0c0.1,0,0.2-0.1,0.2-0.1
						c0.1-0.1,0.1-0.1,0.1-0.2C133.6,18,133.6,17.9,133.6,17.9z M134.7,18.9v-3.5h0.6v3.5H134.7z"/>
					<path class="st13" d="M136.8,15.4v2.5l1.6-2.5h0.6v3.5h-0.6v-2.5l-1.6,2.5h-0.6v-3.5C136.2,15.4,136.8,15.4,136.8,15.4z
						 M138.7,14.1c0,0.1,0,0.3-0.1,0.4s-0.1,0.2-0.2,0.3s-0.2,0.1-0.3,0.2c-0.1,0-0.3,0.1-0.5,0.1c-0.2,0-0.4,0-0.5-0.1
						c-0.1,0-0.2-0.1-0.3-0.2s-0.2-0.2-0.2-0.3s-0.1-0.2-0.1-0.4h0.6c0,0.1,0,0.1,0,0.2c0,0.1,0,0.1,0.1,0.2s0.1,0.1,0.2,0.1
						c0.1,0,0.1,0,0.3,0s0.2,0,0.3,0c0.1,0,0.1-0.1,0.2-0.1s0.1-0.1,0.1-0.2s0-0.1,0-0.2H138.7z"/>
					<path class="st13" d="M112.9,24.5h-0.6v-3h-1.6v3H110V21h2.9V24.5z"/>
					<path class="st13" d="M117.1,22.7c0,0.3,0,0.6-0.1,0.8c-0.1,0.2-0.2,0.4-0.4,0.6c-0.2,0.2-0.3,0.3-0.6,0.3s-0.4,0.1-0.7,0.1
						c-0.1,0-0.2,0-0.3,0s-0.2,0-0.3-0.1V26H114V21h0.6l0,0.6c0.2-0.2,0.4-0.4,0.6-0.5c0.2-0.1,0.4-0.1,0.7-0.1c0.2,0,0.4,0,0.5,0.1
						s0.3,0.2,0.4,0.4s0.2,0.3,0.2,0.6C117,22.2,117.1,22.5,117.1,22.7z M116.4,22.8c0-0.2,0-0.4,0-0.5s-0.1-0.3-0.1-0.4
						c-0.1-0.1-0.1-0.2-0.2-0.3c-0.1-0.1-0.2-0.1-0.3-0.1c-0.1,0-0.2,0-0.2,0c-0.1,0-0.2,0.1-0.3,0.1s-0.2,0.1-0.3,0.2
						c-0.1,0.1-0.2,0.2-0.3,0.4v1.7c0.1,0,0.2,0.1,0.4,0.1s0.3,0,0.4,0c0.3,0,0.6-0.1,0.8-0.3S116.4,23.2,116.4,22.8z"/>
					<path class="st13" d="M121.2,22.8c0,0.3,0,0.5-0.1,0.7s-0.2,0.4-0.3,0.6c-0.1,0.2-0.3,0.3-0.5,0.4c-0.2,0.1-0.5,0.1-0.7,0.1
						c-0.3,0-0.5,0-0.7-0.1c-0.2-0.1-0.4-0.2-0.5-0.3c-0.1-0.2-0.3-0.3-0.3-0.6c-0.1-0.2-0.1-0.5-0.1-0.8c0-0.3,0-0.5,0.1-0.7
						c0.1-0.2,0.2-0.4,0.3-0.6c0.1-0.2,0.3-0.3,0.5-0.4c0.2-0.1,0.5-0.1,0.7-0.1c0.3,0,0.5,0,0.7,0.1c0.2,0.1,0.4,0.2,0.5,0.3
						c0.1,0.1,0.3,0.3,0.3,0.6C121.1,22.2,121.2,22.5,121.2,22.8z M120.5,22.8c0-0.2,0-0.4-0.1-0.6s-0.1-0.3-0.2-0.4
						s-0.2-0.2-0.3-0.2s-0.3-0.1-0.4-0.1c-0.2,0-0.3,0-0.5,0.1c-0.1,0.1-0.2,0.2-0.3,0.3s-0.1,0.3-0.2,0.4c0,0.2-0.1,0.3-0.1,0.5
						c0,0.2,0,0.4,0.1,0.6c0,0.2,0.1,0.3,0.2,0.4c0.1,0.1,0.2,0.2,0.3,0.2s0.3,0.1,0.4,0.1c0.2,0,0.3,0,0.5-0.1
						c0.1-0.1,0.2-0.2,0.3-0.3c0.1-0.1,0.1-0.3,0.2-0.4C120.5,23.1,120.5,23,120.5,22.8z"/>
					<path class="st13" d="M125.4,24l0,1.4h-0.6v-0.9h-2.6v0.9h-0.6l0-1.4h0c0.1,0,0.2,0,0.3,0c0.1,0,0.2-0.1,0.2-0.2
						c0.1-0.1,0.1-0.2,0.2-0.3c0.1-0.1,0.1-0.3,0.2-0.5c0-0.2,0.1-0.5,0.1-0.8c0-0.3,0.1-0.7,0.1-1.1h2.2v3L125.4,24L125.4,24z
						 M124.3,21.6h-1c0,0.4-0.1,0.7-0.1,1s-0.1,0.5-0.1,0.7c-0.1,0.2-0.1,0.3-0.2,0.5c-0.1,0.1-0.1,0.2-0.2,0.3h1.6L124.3,21.6
						L124.3,21.6z"/>
					<path class="st13" d="M129.3,21l-1.2,3.1c-0.1,0.3-0.3,0.6-0.4,0.8c-0.1,0.2-0.3,0.4-0.4,0.6c-0.2,0.1-0.3,0.3-0.5,0.3
						c-0.2,0.1-0.4,0.1-0.6,0.1c-0.1,0-0.1,0-0.2,0c-0.1,0-0.1,0-0.2,0v-0.6c0.1,0,0.1,0,0.2,0c0.1,0,0.1,0,0.2,0c0.1,0,0.2,0,0.3,0
						s0.2-0.1,0.3-0.2c0.1-0.1,0.2-0.2,0.3-0.3s0.2-0.3,0.2-0.4l-1.4-3.5h0.7l0.9,2.3l0.2,0.5l0.2-0.6l0.8-2.3L129.3,21L129.3,21z"
						/>
					<path class="st13" d="M133.3,24.5h-0.9l-1.7-1.9v1.9h-0.6V21h0.6v1.6l1.6-1.6h0.8l-1.7,1.6L133.3,24.5z"/>
					<path class="st13" d="M137.3,21.6h-1.4v3h-0.6v-3h-1.4V21h3.4V21.6z"/>
				</g>
				<g>
					<rect x="202.8" y="103.6" class="st12" width="38.1" height="6.3"/>
					<path class="st13" d="M211.3,108.5h-0.6v-4h-1.9v4h-0.6V104h3.2L211.3,108.5L211.3,108.5z"/>
					<path class="st13" d="M215.4,106.7c0,0.3,0,0.6-0.1,0.8c-0.1,0.2-0.2,0.4-0.4,0.6s-0.3,0.3-0.6,0.3s-0.4,0.1-0.7,0.1
						c-0.1,0-0.2,0-0.3,0s-0.2,0-0.3-0.1v1.5h-0.6V105h0.6l0,0.6c0.2-0.2,0.4-0.4,0.6-0.5c0.2-0.1,0.4-0.1,0.7-0.1
						c0.2,0,0.4,0,0.5,0.1s0.3,0.2,0.4,0.4c0.1,0.2,0.2,0.3,0.2,0.6C215.4,106.2,215.4,106.5,215.4,106.7z M214.8,106.8
						c0-0.2,0-0.4,0-0.5s-0.1-0.3-0.1-0.4c-0.1-0.1-0.1-0.2-0.2-0.3s-0.2-0.1-0.3-0.1c-0.1,0-0.2,0-0.2,0c-0.1,0-0.2,0.1-0.3,0.1
						s-0.2,0.1-0.3,0.2c-0.1,0.1-0.2,0.2-0.3,0.4v1.7c0.1,0,0.2,0.1,0.4,0.1c0.1,0,0.3,0,0.4,0c0.3,0,0.6-0.1,0.8-0.3
						C214.7,107.5,214.8,107.2,214.8,106.8z"/>
					<path class="st13" d="M219.5,106.8c0,0.3,0,0.5-0.1,0.7c-0.1,0.2-0.2,0.4-0.3,0.6c-0.1,0.2-0.3,0.3-0.5,0.4
						c-0.2,0.1-0.5,0.1-0.7,0.1c-0.3,0-0.5,0-0.7-0.1c-0.2-0.1-0.4-0.2-0.5-0.3s-0.3-0.3-0.3-0.6c-0.1-0.2-0.1-0.5-0.1-0.8
						c0-0.3,0-0.5,0.1-0.7s0.2-0.4,0.3-0.6s0.3-0.3,0.5-0.4c0.2-0.1,0.5-0.1,0.7-0.1c0.3,0,0.5,0,0.7,0.1s0.4,0.2,0.5,0.3
						c0.1,0.2,0.3,0.3,0.3,0.6C219.4,106.2,219.5,106.5,219.5,106.8z M218.9,106.8c0-0.2,0-0.4-0.1-0.6s-0.1-0.3-0.2-0.4
						c-0.1-0.1-0.2-0.2-0.3-0.2c-0.1-0.1-0.3-0.1-0.4-0.1c-0.2,0-0.3,0-0.5,0.1s-0.2,0.2-0.3,0.3c-0.1,0.1-0.1,0.3-0.2,0.4
						s-0.1,0.3-0.1,0.5c0,0.2,0,0.4,0.1,0.6c0,0.2,0.1,0.3,0.2,0.4s0.2,0.2,0.3,0.2s0.3,0.1,0.4,0.1c0.2,0,0.3,0,0.5-0.1
						c0.1-0.1,0.2-0.2,0.3-0.3s0.1-0.3,0.2-0.4C218.8,107.1,218.9,107,218.9,106.8z"/>
					<path class="st13" d="M223.7,108l0,1.4h-0.6v-0.9h-2.6v0.9h-0.6l0-1.4h0.1c0.1,0,0.2,0,0.3,0c0.1,0,0.2-0.1,0.2-0.2
						c0.1-0.1,0.1-0.2,0.2-0.3c0.1-0.1,0.1-0.3,0.2-0.5c0-0.2,0.1-0.5,0.1-0.8c0-0.3,0.1-0.7,0.1-1.1h2.2v3L223.7,108L223.7,108z
						 M222.6,105.6h-1c0,0.4-0.1,0.7-0.1,1s-0.1,0.5-0.1,0.7c-0.1,0.2-0.1,0.3-0.2,0.5c-0.1,0.1-0.1,0.2-0.2,0.3h1.6L222.6,105.6
						L222.6,105.6z"/>
					<path class="st13" d="M227.6,105l-1.2,3.1c-0.1,0.3-0.3,0.6-0.4,0.8c-0.1,0.2-0.3,0.4-0.4,0.6c-0.2,0.1-0.3,0.3-0.5,0.3
						s-0.4,0.1-0.6,0.1c-0.1,0-0.1,0-0.2,0c-0.1,0-0.1,0-0.2,0v-0.6c0.1,0,0.1,0,0.2,0c0.1,0,0.1,0,0.2,0c0.1,0,0.2,0,0.3,0
						c0.1,0,0.2-0.1,0.3-0.2c0.1-0.1,0.2-0.2,0.3-0.3c0.1-0.1,0.2-0.3,0.2-0.4l-1.4-3.5h0.7l0.9,2.3l0.2,0.5l0.2-0.6l0.8-2.3
						L227.6,105L227.6,105z"/>
					<path class="st13" d="M231.7,108.5h-0.9l-1.7-1.9v1.9h-0.6V105h0.6v1.6l1.6-1.6h0.8l-1.7,1.6L231.7,108.5z"/>
					<path class="st13" d="M235.6,105.6h-1.4v3h-0.6v-3h-1.4V105h3.4L235.6,105.6L235.6,105.6z"/>
				</g>
				<g>
					<polygon class="st6" points="114.2,51.4 74.7,51.4 66.9,43.1 74.7,34.9 114.2,34.9 122.1,43 					"/>
					<g>
						<polyline class="st7" points="115.1,50.4 114.2,51.4 112.9,51.4 						"/>
						<line class="st17" x1="110.5" y1="51.4" x2="77.2" y2="51.4"/>
						<polyline class="st7" points="76,51.4 74.7,51.4 73.8,50.4 						"/>
						<line class="st18" x1="71.8" y1="48.3" x2="68.8" y2="45.1"/>
						<polyline class="st7" points="67.8,44 66.9,43.1 67.8,42.2 						"/>
						<line class="st19" x1="69.8" y1="40.1" x2="72.8" y2="36.9"/>
						<polyline class="st7" points="73.8,35.8 74.7,34.9 76,34.9 						"/>
						<line class="st17" x1="78.5" y1="34.9" x2="111.7" y2="34.9"/>
						<polyline class="st7" points="113,34.9 114.2,34.9 115.1,35.8 						"/>
						<line class="st20" x1="117.2" y1="37.9" x2="120.2" y2="41"/>
						<polyline class="st7" points="121.2,42.1 122.1,43 121.2,44 						"/>
						<line class="st21" x1="119.2" y1="46.1" x2="116.1" y2="49.4"/>
					</g>
				</g>
				<g>
					<rect x="75.5" y="37.2" class="st12" width="38" height="11.8"/>
					<path class="st13" d="M82.1,42.1h-0.8l-1.8-2.2v2.2h-0.6v-4.6h0.6v2.1l1.7-2.1H82l-1.8,2.2L82.1,42.1z"/>
					<path class="st13" d="M86.1,40.4c0,0.3,0,0.5-0.1,0.7c-0.1,0.2-0.2,0.4-0.3,0.6c-0.1,0.2-0.3,0.3-0.5,0.4
						c-0.2,0.1-0.5,0.1-0.7,0.1c-0.3,0-0.5,0-0.7-0.1c-0.2-0.1-0.4-0.2-0.5-0.3s-0.3-0.3-0.3-0.6c-0.1-0.2-0.1-0.5-0.1-0.8
						c0-0.3,0-0.5,0.1-0.7s0.2-0.4,0.3-0.6s0.3-0.3,0.5-0.4c0.2-0.1,0.5-0.1,0.7-0.1c0.3,0,0.5,0,0.7,0.1s0.4,0.2,0.5,0.3
						c0.1,0.2,0.3,0.3,0.3,0.6C86.1,39.8,86.1,40.1,86.1,40.4z M85.4,40.4c0-0.2,0-0.4-0.1-0.6s-0.1-0.3-0.2-0.4
						c-0.1-0.1-0.2-0.2-0.3-0.2c-0.1-0.1-0.3-0.1-0.4-0.1c-0.2,0-0.3,0-0.5,0.1s-0.2,0.2-0.3,0.3c-0.1,0.1-0.1,0.3-0.2,0.4
						s-0.1,0.3-0.1,0.5c0,0.2,0,0.4,0.1,0.6c0,0.2,0.1,0.3,0.2,0.4s0.2,0.2,0.3,0.2s0.3,0.1,0.4,0.1c0.2,0,0.3,0,0.5-0.1
						c0.1-0.1,0.2-0.2,0.3-0.3c0.1-0.1,0.1-0.3,0.2-0.4C85.4,40.7,85.4,40.6,85.4,40.4z"/>
					<path class="st13" d="M89.9,42.1h-0.6v-1.5h-1.6v1.5H87v-3.5h0.6v1.4h1.6v-1.4h0.6V42.1z"/>
					<path class="st13" d="M94.1,40.2c0,0.1,0,0.2,0,0.2c0,0.1,0,0.1,0,0.2h-2.5c0,0.4,0.1,0.6,0.3,0.8s0.5,0.3,0.9,0.3
						c0.1,0,0.2,0,0.3,0c0.1,0,0.2,0,0.3,0c0.1,0,0.2,0,0.3,0c0.1,0,0.2,0,0.2-0.1v0.5c-0.2,0-0.4,0.1-0.6,0.1s-0.4,0-0.7,0
						c-0.3,0-0.6,0-0.8-0.1c-0.2-0.1-0.4-0.2-0.5-0.4c-0.1-0.2-0.2-0.3-0.3-0.6s-0.1-0.5-0.1-0.8c0-0.2,0-0.5,0.1-0.7
						c0.1-0.2,0.2-0.4,0.3-0.6c0.1-0.2,0.3-0.3,0.5-0.4c0.2-0.1,0.4-0.1,0.7-0.1c0.3,0,0.5,0,0.7,0.1c0.2,0.1,0.4,0.2,0.5,0.3
						c0.1,0.1,0.2,0.3,0.3,0.5C94,39.7,94.1,40,94.1,40.2z M93.4,40.1c0-0.2,0-0.3,0-0.4s-0.1-0.2-0.2-0.3c-0.1-0.1-0.2-0.2-0.3-0.2
						c-0.1-0.1-0.3-0.1-0.4-0.1c-0.1,0-0.3,0-0.4,0.1c-0.1,0.1-0.2,0.1-0.3,0.2c-0.1,0.1-0.1,0.2-0.2,0.3c-0.1,0.1-0.1,0.3-0.1,0.4
						H93.4z"/>
					<path class="st13" d="M97.3,40.8h-0.7c-0.6,0-1-0.1-1.2-0.3C95.1,40.3,95,40,95,39.6v-1h0.6v0.9c0,0.1,0,0.3,0.1,0.4
						s0.1,0.2,0.2,0.2c0.1,0.1,0.2,0.1,0.3,0.1c0.1,0,0.3,0,0.5,0h0.7v-1.6h0.6v3.5h-0.6V40.8z"/>
					<path class="st13" d="M102,42.1h-0.6v-1.5h-1.6v1.5h-0.6v-3.5h0.6v1.4h1.6v-1.4h0.6V42.1z"/>
					<path class="st13" d="M103.4,40c0.1,0,0.2,0,0.2,0c0.1,0,0.2,0,0.2,0c0.2,0,0.4,0,0.6,0.1s0.3,0.1,0.4,0.2
						c0.1,0.1,0.2,0.2,0.3,0.3c0.1,0.1,0.1,0.3,0.1,0.4c0,0.2,0,0.3-0.1,0.5c-0.1,0.1-0.2,0.3-0.3,0.4c-0.1,0.1-0.3,0.2-0.4,0.2
						s-0.4,0.1-0.6,0.1c-0.2,0-0.3,0-0.5,0c-0.2,0-0.3,0-0.5-0.1v-3.5h0.6L103.4,40L103.4,40z M104.6,41.1c0-0.2-0.1-0.3-0.2-0.4
						s-0.3-0.2-0.6-0.2c-0.1,0-0.1,0-0.2,0c-0.1,0-0.1,0-0.2,0v1.2c0.1,0,0.1,0,0.2,0c0.1,0,0.1,0,0.2,0c0.1,0,0.3,0,0.4,0
						c0.1,0,0.2-0.1,0.2-0.1c0.1-0.1,0.1-0.1,0.1-0.2C104.6,41.2,104.6,41.2,104.6,41.1z M105.7,42.1v-3.5h0.6v3.5H105.7z"/>
					<path class="st13" d="M107.8,38.6v2.5l1.6-2.5h0.6v3.5h-0.6v-2.5l-1.6,2.5h-0.6v-3.5C107.2,38.6,107.8,38.6,107.8,38.6z
						 M109.7,37.3c0,0.1,0,0.3-0.1,0.4s-0.1,0.2-0.2,0.3s-0.2,0.1-0.3,0.2c-0.1,0-0.3,0.1-0.4,0.1c-0.2,0-0.4,0-0.5-0.1
						s-0.2-0.1-0.3-0.2c-0.1-0.1-0.2-0.2-0.2-0.3s-0.1-0.2-0.1-0.4h0.6c0,0.1,0,0.1,0,0.2c0,0.1,0,0.1,0.1,0.2c0,0,0.1,0.1,0.2,0.1
						c0.1,0,0.2,0,0.3,0c0.1,0,0.2,0,0.3,0c0.1,0,0.1-0.1,0.2-0.1s0.1-0.1,0.1-0.2s0-0.1,0-0.2H109.7z"/>
					<path class="st13" d="M83.8,47.8h-0.6v-3h-1.6v3h-0.6v-3.5h2.9V47.8z"/>
					<path class="st13" d="M88,46c0,0.3,0,0.6-0.1,0.8s-0.2,0.4-0.4,0.6s-0.3,0.3-0.6,0.3c-0.2,0.1-0.4,0.1-0.7,0.1
						c-0.1,0-0.2,0-0.3,0s-0.2,0-0.3-0.1v1.5H85v-4.9h0.6l0,0.6c0.2-0.2,0.4-0.4,0.6-0.5c0.2-0.1,0.4-0.1,0.7-0.1
						c0.2,0,0.4,0,0.5,0.1c0.2,0.1,0.3,0.2,0.4,0.4s0.2,0.3,0.2,0.6C88,45.4,88,45.7,88,46z M87.4,46c0-0.2,0-0.4,0-0.5
						c0-0.2-0.1-0.3-0.1-0.4c-0.1-0.1-0.1-0.2-0.2-0.3s-0.2-0.1-0.3-0.1c-0.1,0-0.2,0-0.2,0c-0.1,0-0.2,0.1-0.3,0.1
						c-0.1,0.1-0.2,0.1-0.3,0.2c-0.1,0.1-0.2,0.2-0.3,0.4v1.7c0.1,0,0.2,0.1,0.4,0.1s0.3,0,0.4,0c0.3,0,0.6-0.1,0.8-0.3
						S87.4,46.4,87.4,46z"/>
					<path class="st13" d="M92.1,46c0,0.3,0,0.5-0.1,0.7s-0.2,0.4-0.3,0.6c-0.1,0.2-0.3,0.3-0.5,0.4c-0.2,0.1-0.5,0.1-0.7,0.1
						c-0.3,0-0.5,0-0.7-0.1s-0.4-0.2-0.5-0.3c-0.1-0.2-0.3-0.3-0.3-0.6c-0.1-0.2-0.1-0.5-0.1-0.8c0-0.3,0-0.5,0.1-0.7
						c0.1-0.2,0.2-0.4,0.3-0.6c0.1-0.2,0.3-0.3,0.5-0.4c0.2-0.1,0.5-0.1,0.7-0.1c0.3,0,0.5,0,0.7,0.1c0.2,0.1,0.4,0.2,0.5,0.3
						c0.1,0.2,0.3,0.3,0.3,0.6C92.1,45.4,92.1,45.7,92.1,46z M91.5,46c0-0.2,0-0.4-0.1-0.6s-0.1-0.3-0.2-0.4
						c-0.1-0.1-0.2-0.2-0.3-0.2s-0.3-0.1-0.4-0.1c-0.2,0-0.3,0-0.5,0.1c-0.1,0.1-0.2,0.2-0.3,0.3s-0.1,0.3-0.2,0.4
						c0,0.2-0.1,0.3-0.1,0.5c0,0.2,0,0.4,0.1,0.6c0,0.2,0.1,0.3,0.2,0.4c0.1,0.1,0.2,0.2,0.3,0.2s0.3,0.1,0.4,0.1
						c0.2,0,0.3,0,0.5-0.1c0.1-0.1,0.2-0.2,0.3-0.3c0.1-0.1,0.1-0.3,0.2-0.4C91.5,46.4,91.5,46.2,91.5,46z"/>
					<path class="st13" d="M96.4,47.2l0,1.4h-0.6v-0.9h-2.6v0.9h-0.6l0-1.4h0.1c0.1,0,0.2,0,0.3,0c0.1,0,0.2-0.1,0.2-0.2
						s0.1-0.2,0.2-0.3c0.1-0.1,0.1-0.3,0.2-0.5c0-0.2,0.1-0.5,0.1-0.8c0-0.3,0.1-0.7,0.1-1.1h2.2v3H96.4z M95.2,44.8h-1
						c0,0.4-0.1,0.7-0.1,1s-0.1,0.5-0.1,0.7c-0.1,0.2-0.1,0.3-0.2,0.5s-0.1,0.2-0.2,0.3h1.6L95.2,44.8L95.2,44.8z"/>
					<path class="st13" d="M100.3,44.3L99,47.4c-0.1,0.3-0.3,0.6-0.4,0.8c-0.1,0.2-0.3,0.4-0.4,0.6c-0.2,0.1-0.3,0.3-0.5,0.3
						c-0.2,0.1-0.4,0.1-0.6,0.1c-0.1,0-0.1,0-0.2,0c-0.1,0-0.1,0-0.2,0v-0.6c0.1,0,0.1,0,0.2,0c0.1,0,0.1,0,0.2,0c0.1,0,0.2,0,0.3,0
						c0.1,0,0.2-0.1,0.3-0.2s0.2-0.2,0.3-0.3s0.2-0.3,0.2-0.4l-1.4-3.5h0.7l0.9,2.3l0.2,0.5l0.2-0.6l0.8-2.3L100.3,44.3L100.3,44.3z
						"/>
					<path class="st13" d="M104.3,47.8h-0.9l-1.7-1.9v1.9h-0.6v-3.5h0.6v1.6l1.6-1.6h0.8l-1.7,1.6L104.3,47.8z"/>
					<path class="st13" d="M108.2,44.8h-1.4v3h-0.6v-3h-1.4v-0.5h3.4C108.2,44.3,108.2,44.8,108.2,44.8z"/>
				</g>
				<g>
					<polygon class="st6" points="166.1,78 126.6,78 118.7,69.8 126.6,61.5 166.1,61.5 173.9,69.7 					"/>
					<g>
						<polyline class="st7" points="166.9,77.1 166.1,78 164.8,78 						"/>
						<line class="st22" x1="162.3" y1="78" x2="129.1" y2="78"/>
						<polyline class="st7" points="127.8,78 126.6,78 125.7,77.1 						"/>
						<line class="st23" x1="123.7" y1="75" x2="120.6" y2="71.8"/>
						<polyline class="st7" points="119.6,70.7 118.7,69.8 119.6,68.9 						"/>
						<line class="st24" x1="121.7" y1="66.7" x2="124.7" y2="63.5"/>
						<polyline class="st7" points="125.7,62.5 126.6,61.5 127.9,61.5 						"/>
						<line class="st17" x1="130.3" y1="61.5" x2="163.6" y2="61.5"/>
						<polyline class="st7" points="164.8,61.5 166.1,61.5 167,62.5 						"/>
						<line class="st25" x1="169" y1="64.6" x2="172" y2="67.7"/>
						<polyline class="st7" points="173.1,68.8 173.9,69.7 173.1,70.6 						"/>
						<line class="st26" x1="171" y1="72.8" x2="168" y2="76"/>
					</g>
				</g>
				<g>
					<rect x="127.3" y="63.9" class="st12" width="38.1" height="11.8"/>
					<path class="st13" d="M134,68.8h-0.8l-1.8-2.2v2.2h-0.6v-4.6h0.6v2.1l1.7-2.1h0.8l-1.8,2.2L134,68.8z"/>
					<path class="st13" d="M138,67c0,0.3,0,0.5-0.1,0.7c-0.1,0.2-0.2,0.4-0.3,0.6c-0.1,0.2-0.3,0.3-0.5,0.4
						c-0.2,0.1-0.5,0.1-0.7,0.1c-0.3,0-0.5,0-0.7-0.1c-0.2-0.1-0.4-0.2-0.5-0.3s-0.3-0.3-0.3-0.6c-0.1-0.2-0.1-0.5-0.1-0.8
						c0-0.3,0-0.5,0.1-0.7s0.2-0.4,0.3-0.6s0.3-0.3,0.5-0.4c0.2-0.1,0.5-0.1,0.7-0.1c0.3,0,0.5,0,0.7,0.1s0.4,0.2,0.5,0.3
						c0.1,0.2,0.3,0.3,0.3,0.6C137.9,66.5,138,66.8,138,67z M137.3,67.1c0-0.2,0-0.4-0.1-0.6s-0.1-0.3-0.2-0.4
						c-0.1-0.1-0.2-0.2-0.3-0.2c-0.1-0.1-0.3-0.1-0.4-0.1c-0.2,0-0.3,0-0.5,0.1s-0.2,0.2-0.3,0.3c-0.1,0.1-0.1,0.3-0.2,0.4
						s-0.1,0.3-0.1,0.5c0,0.2,0,0.4,0.1,0.6c0,0.2,0.1,0.3,0.2,0.4s0.2,0.2,0.3,0.2s0.3,0.1,0.4,0.1c0.2,0,0.3,0,0.5-0.1
						c0.1-0.1,0.2-0.2,0.3-0.3c0.1-0.1,0.1-0.3,0.2-0.4C137.3,67.4,137.3,67.2,137.3,67.1z"/>
					<path class="st13" d="M141.7,68.8h-0.6v-1.6h-1.6v1.6h-0.6v-3.5h0.6v1.4h1.6v-1.4h0.6V68.8z"/>
					<path class="st13" d="M145.9,66.9c0,0.1,0,0.2,0,0.2c0,0.1,0,0.1,0,0.2h-2.5c0,0.4,0.1,0.6,0.3,0.8s0.5,0.3,0.9,0.3
						c0.1,0,0.2,0,0.3,0c0.1,0,0.2,0,0.3,0c0.1,0,0.2,0,0.3,0c0.1,0,0.2,0,0.2-0.1v0.5c-0.2,0-0.4,0.1-0.6,0.1s-0.4,0-0.7,0
						c-0.3,0-0.6,0-0.8-0.1c-0.2-0.1-0.4-0.2-0.5-0.4c-0.1-0.2-0.2-0.3-0.3-0.6s-0.1-0.5-0.1-0.8c0-0.2,0-0.5,0.1-0.7
						c0.1-0.2,0.2-0.4,0.3-0.6c0.1-0.2,0.3-0.3,0.5-0.4c0.2-0.1,0.4-0.1,0.7-0.1c0.3,0,0.5,0,0.7,0.1c0.2,0.1,0.4,0.2,0.5,0.3
						c0.1,0.1,0.2,0.3,0.3,0.5C145.9,66.4,145.9,66.6,145.9,66.9z M145.3,66.8c0-0.2,0-0.3,0-0.4s-0.1-0.2-0.2-0.3
						c-0.1-0.1-0.2-0.2-0.3-0.2c-0.1-0.1-0.3-0.1-0.4-0.1c-0.1,0-0.3,0-0.4,0.1c-0.1,0.1-0.2,0.1-0.3,0.2c-0.1,0.1-0.1,0.2-0.2,0.3
						c-0.1,0.1-0.1,0.3-0.1,0.4H145.3z"/>
					<path class="st13" d="M149.2,67.5h-0.7c-0.6,0-1-0.1-1.2-0.3c-0.3-0.2-0.4-0.5-0.4-0.9v-1h0.6v0.9c0,0.1,0,0.3,0.1,0.4
						c0,0.1,0.1,0.2,0.2,0.2c0.1,0.1,0.2,0.1,0.3,0.1c0.1,0,0.3,0,0.5,0h0.7v-1.6h0.6v3.5h-0.6L149.2,67.5L149.2,67.5z"/>
					<path class="st13" d="M153.8,68.8h-0.6v-1.6h-1.6v1.6h-0.6v-3.5h0.6v1.4h1.6v-1.4h0.6V68.8z"/>
					<path class="st13" d="M155.3,66.7c0.1,0,0.2,0,0.2,0c0.1,0,0.2,0,0.2,0c0.2,0,0.4,0,0.6,0.1s0.3,0.1,0.4,0.2
						c0.1,0.1,0.2,0.2,0.3,0.3c0.1,0.1,0.1,0.3,0.1,0.4c0,0.2,0,0.3-0.1,0.5c-0.1,0.1-0.2,0.3-0.3,0.4c-0.1,0.1-0.3,0.2-0.4,0.2
						s-0.4,0.1-0.6,0.1c-0.2,0-0.3,0-0.5,0c-0.2,0-0.3,0-0.5-0.1v-3.5h0.6L155.3,66.7L155.3,66.7z M156.5,67.7
						c0-0.2-0.1-0.3-0.2-0.4s-0.3-0.2-0.6-0.2c-0.1,0-0.1,0-0.2,0c-0.1,0-0.1,0-0.2,0v1.2c0.1,0,0.1,0,0.2,0c0.1,0,0.1,0,0.2,0
						c0.1,0,0.3,0,0.4-0.1c0.1,0,0.2-0.1,0.2-0.1c0.1-0.1,0.1-0.1,0.1-0.2C156.5,67.9,156.5,67.8,156.5,67.7z M157.5,68.8v-3.5h0.6
						v3.5H157.5z"/>
					<path class="st13" d="M159.7,65.3v2.5l1.6-2.5h0.6v3.5h-0.6v-2.5l-1.6,2.5h-0.6v-3.5H159.7z M161.5,64c0,0.1,0,0.3-0.1,0.4
						s-0.1,0.2-0.2,0.3s-0.2,0.1-0.4,0.2c-0.1,0-0.3,0.1-0.4,0.1c-0.2,0-0.4,0-0.5-0.1s-0.2-0.1-0.3-0.2c-0.1-0.1-0.1-0.2-0.2-0.3
						s-0.1-0.2-0.1-0.4h0.6c0,0.1,0,0.1,0,0.2c0,0.1,0,0.1,0.1,0.2c0,0,0.1,0.1,0.2,0.1c0.1,0,0.1,0,0.3,0c0.1,0,0.2,0,0.3,0
						c0.1,0,0.1-0.1,0.2-0.1c0,0,0.1-0.1,0.1-0.2s0-0.1,0-0.2H161.5z"/>
					<path class="st13" d="M135.7,74.4h-0.6v-3h-1.6v3h-0.6v-3.5h2.9V74.4z"/>
					<path class="st13" d="M139.9,72.6c0,0.3,0,0.6-0.1,0.8s-0.2,0.4-0.4,0.6s-0.3,0.3-0.6,0.3c-0.2,0.1-0.4,0.1-0.7,0.1
						c-0.1,0-0.2,0-0.3,0s-0.2,0-0.3-0.1v1.5h-0.6v-4.9h0.6l0,0.6c0.2-0.2,0.4-0.4,0.6-0.5c0.2-0.1,0.4-0.1,0.7-0.1
						c0.2,0,0.4,0,0.5,0.1c0.2,0.1,0.3,0.2,0.4,0.4s0.2,0.3,0.2,0.6C139.9,72.1,139.9,72.4,139.9,72.6z M139.3,72.7
						c0-0.2,0-0.4,0-0.5c0-0.2-0.1-0.3-0.1-0.4c-0.1-0.1-0.1-0.2-0.2-0.3s-0.2-0.1-0.3-0.1c-0.1,0-0.2,0-0.2,0
						c-0.1,0-0.2,0.1-0.3,0.1c-0.1,0.1-0.2,0.1-0.3,0.2c-0.1,0.1-0.2,0.2-0.3,0.4v1.7c0.1,0,0.2,0.1,0.4,0.1c0.1,0,0.3,0,0.4,0
						c0.3,0,0.6-0.1,0.8-0.3S139.3,73.1,139.3,72.7z"/>
					<path class="st13" d="M144,72.7c0,0.3,0,0.5-0.1,0.7s-0.2,0.4-0.3,0.6s-0.3,0.3-0.5,0.4c-0.2,0.1-0.5,0.1-0.7,0.1
						c-0.3,0-0.5,0-0.7-0.1c-0.2-0.1-0.4-0.2-0.5-0.3c-0.1-0.2-0.3-0.3-0.3-0.6c-0.1-0.2-0.1-0.5-0.1-0.8c0-0.3,0-0.5,0.1-0.7
						c0.1-0.2,0.2-0.4,0.3-0.6c0.1-0.2,0.3-0.3,0.5-0.4c0.2-0.1,0.5-0.1,0.7-0.1c0.3,0,0.5,0,0.7,0.1c0.2,0.1,0.4,0.2,0.5,0.3
						s0.3,0.3,0.3,0.6C144,72.1,144,72.4,144,72.7z M143.4,72.7c0-0.2,0-0.4-0.1-0.6s-0.1-0.3-0.2-0.4s-0.2-0.2-0.3-0.2
						s-0.3-0.1-0.4-0.1c-0.2,0-0.3,0-0.5,0.1c-0.1,0.1-0.2,0.2-0.3,0.3s-0.1,0.3-0.2,0.4c0,0.2-0.1,0.3-0.1,0.5c0,0.2,0,0.4,0.1,0.6
						s0.1,0.3,0.2,0.4c0.1,0.1,0.2,0.2,0.3,0.2s0.3,0.1,0.4,0.1c0.2,0,0.3,0,0.5-0.1c0.1-0.1,0.2-0.2,0.3-0.3
						c0.1-0.1,0.1-0.3,0.2-0.4C143.3,73,143.4,72.9,143.4,72.7z"/>
					<path class="st13" d="M148.2,73.9l0,1.4h-0.6v-0.9H145v0.9h-0.6l0-1.4h0.1c0.1,0,0.2,0,0.3,0c0.1,0,0.2-0.1,0.2-0.2
						c0.1-0.1,0.1-0.2,0.2-0.3c0.1-0.1,0.1-0.3,0.2-0.5c0-0.2,0.1-0.5,0.1-0.8c0-0.3,0.1-0.7,0.1-1.1h2.2v3L148.2,73.9L148.2,73.9z
						 M147.1,71.5h-1c0,0.4-0.1,0.7-0.1,1s-0.1,0.5-0.1,0.7c-0.1,0.2-0.1,0.3-0.2,0.5s-0.1,0.2-0.2,0.3h1.6L147.1,71.5L147.1,71.5z"
						/>
					<path class="st13" d="M152.1,70.9l-1.2,3.1c-0.1,0.3-0.3,0.6-0.4,0.8c-0.1,0.2-0.3,0.4-0.4,0.6s-0.3,0.3-0.5,0.3
						c-0.2,0.1-0.4,0.1-0.6,0.1c-0.1,0-0.1,0-0.2,0c-0.1,0-0.1,0-0.2,0v-0.6c0.1,0,0.1,0,0.2,0c0.1,0,0.1,0,0.2,0c0.1,0,0.2,0,0.3,0
						c0.1,0,0.2-0.1,0.3-0.2s0.2-0.2,0.3-0.3s0.2-0.3,0.2-0.4l-1.4-3.5h0.7l0.9,2.3l0.2,0.5l0.2-0.6l0.8-2.3L152.1,70.9L152.1,70.9z
						"/>
					<path class="st13" d="M156.2,74.4h-0.9l-1.7-1.9v1.9H153v-3.5h0.6v1.6l1.6-1.6h0.8l-1.7,1.6L156.2,74.4z"/>
					<path class="st13" d="M160.1,71.5h-1.4v3h-0.6v-3h-1.4v-0.5h3.4L160.1,71.5L160.1,71.5z"/>
				</g>
				<polygon class="st5" points="58.3,78.2 18.8,78.2 11,70 18.8,61.7 58.3,61.7 66.2,69.9 				"/>
				<polygon class="st5" points="128.9,115 89.4,115 81.6,106.7 89.4,98.5 129,98.5 136.8,106.6 				"/>
				<polygon class="st5" points="16.6,115 -22.9,115 -30.7,106.7 -22.9,98.5 16.6,98.5 24.5,106.6 				"/>
				<g>
					<rect x="-25.2" y="100.6" class="st12" width="44.1" height="12.3"/>
					<path class="st13" d="M-19.7,104.2c0,0.2,0,0.4-0.1,0.6c-0.1,0.2-0.2,0.3-0.4,0.4c-0.2,0.1-0.4,0.2-0.6,0.3
						c-0.2,0.1-0.5,0.1-0.8,0.1h-1.2V101h1.3c1,0,1.6,0.4,1.6,1.1c0,0.2-0.1,0.5-0.2,0.6c-0.1,0.2-0.3,0.3-0.6,0.4
						c0.1,0,0.2,0.1,0.4,0.1s0.2,0.1,0.3,0.2s0.2,0.2,0.2,0.3S-19.7,104-19.7,104.2z M-20.5,102.2c0-0.1,0-0.2,0-0.3
						c0-0.1-0.1-0.2-0.1-0.2c-0.1-0.1-0.2-0.1-0.3-0.1c-0.1,0-0.3-0.1-0.5-0.1h-0.7v1.4h0.6c0.1,0,0.3,0,0.4,0s0.2-0.1,0.3-0.1
						c0.1-0.1,0.1-0.1,0.2-0.2S-20.5,102.3-20.5,102.2z M-20.3,104.2c0-0.1,0-0.2-0.1-0.3c0-0.1-0.1-0.2-0.2-0.2
						c-0.1-0.1-0.2-0.1-0.3-0.1c-0.1,0-0.3-0.1-0.5-0.1h-0.7v1.6h0.7c0.4,0,0.6-0.1,0.8-0.2C-20.4,104.7-20.3,104.5-20.3,104.2z"/>
					<path class="st13" d="M-15.8,105.5h-0.6V104h-1.6v1.6h-0.6V102h0.6v1.4h1.6V102h0.6C-15.8,102-15.8,105.5-15.8,105.5z"/>
					<path class="st13" d="M-11.5,102l-1.2,3.1c-0.1,0.3-0.3,0.6-0.4,0.8c-0.1,0.2-0.3,0.4-0.4,0.6c-0.2,0.1-0.3,0.3-0.5,0.3
						c-0.2,0.1-0.4,0.1-0.6,0.1c-0.1,0-0.1,0-0.2,0c-0.1,0-0.1,0-0.2,0v-0.6c0.1,0,0.1,0,0.2,0c0.1,0,0.1,0,0.2,0c0.1,0,0.2,0,0.3,0
						s0.2-0.1,0.3-0.2c0.1-0.1,0.2-0.2,0.3-0.3s0.2-0.3,0.2-0.4L-15,102h0.7l0.9,2.3l0.2,0.5l0.2-0.6l0.8-2.3L-11.5,102L-11.5,102z"
						/>
					<path class="st13" d="M-7.5,102.6h-1.4v3h-0.6v-3h-1.4V102h3.4C-7.5,102-7.5,102.6-7.5,102.6z"/>
					<path class="st13" d="M-3.5,103.7c0,0.3,0,0.6-0.1,0.8s-0.2,0.4-0.4,0.6c-0.2,0.2-0.3,0.3-0.6,0.3c-0.2,0.1-0.4,0.1-0.7,0.1
						c-0.1,0-0.2,0-0.3,0s-0.2,0-0.3-0.1v1.5h-0.6V102H-6l0,0.6c0.2-0.2,0.4-0.4,0.6-0.5C-5.2,102-5,102-4.8,102
						c0.2,0,0.4,0,0.5,0.1c0.2,0.1,0.3,0.2,0.4,0.4c0.1,0.2,0.2,0.3,0.2,0.6C-3.6,103.2-3.5,103.5-3.5,103.7z M-4.2,103.8
						c0-0.2,0-0.4,0-0.5c0-0.2-0.1-0.3-0.1-0.4c-0.1-0.1-0.1-0.2-0.2-0.3c-0.1-0.1-0.2-0.1-0.3-0.1c-0.1,0-0.2,0-0.2,0
						s-0.2,0.1-0.3,0.1c-0.1,0.1-0.2,0.1-0.3,0.2c-0.1,0.1-0.2,0.2-0.3,0.4v1.7c0.1,0,0.2,0.1,0.4,0.1c0.1,0,0.3,0,0.4,0
						c0.3,0,0.6-0.1,0.8-0.3C-4.3,104.5-4.2,104.2-4.2,103.8z"/>
					<path class="st13" d="M0.5,103.6c0,0.1,0,0.2,0,0.2c0,0.1,0,0.1,0,0.2h-2.5c0,0.4,0.1,0.6,0.3,0.8s0.5,0.3,0.9,0.3
						c0.1,0,0.2,0,0.3,0c0.1,0,0.2,0,0.3,0c0.1,0,0.2,0,0.3,0c0.1,0,0.2,0,0.2-0.1v0.5c-0.2,0-0.4,0.1-0.6,0.1s-0.4,0-0.7,0
						c-0.3,0-0.6,0-0.8-0.1c-0.2-0.1-0.4-0.2-0.5-0.4c-0.1-0.2-0.2-0.3-0.3-0.6s-0.1-0.5-0.1-0.8c0-0.2,0-0.5,0.1-0.7
						c0.1-0.2,0.2-0.4,0.3-0.6c0.1-0.2,0.3-0.3,0.5-0.4c0.2-0.1,0.4-0.1,0.7-0.1c0.3,0,0.5,0,0.7,0.1c0.2,0.1,0.4,0.2,0.5,0.3
						c0.1,0.1,0.2,0.3,0.3,0.5C0.4,103.1,0.5,103.4,0.5,103.6z M-0.2,103.5c0-0.2,0-0.3,0-0.4s-0.1-0.2-0.2-0.3
						c-0.1-0.1-0.2-0.2-0.3-0.2c-0.1-0.1-0.3-0.1-0.4-0.1c-0.1,0-0.3,0-0.4,0.1c-0.1,0.1-0.2,0.1-0.3,0.2c-0.1,0.1-0.1,0.2-0.2,0.3
						s-0.1,0.3-0.1,0.4H-0.2z"/>
					<path class="st13" d="M4.4,105.5H3.7V104H2.1v1.6H1.5V102h0.6v1.4h1.6V102h0.6V105.5z"/>
					<path class="st13" d="M8.4,105.5H7.8V104H6.1v1.6H5.5V102h0.6v1.4h1.6V102h0.6C8.4,102,8.4,105.5,8.4,105.5z"/>
					<path class="st13" d="M10.2,102v2.5l1.6-2.5h0.6v3.5h-0.6v-2.5l-1.6,2.5H9.6V102H10.2z"/>
					<path class="st13" d="M14.2,102v2.5l1.6-2.5h0.6v3.5h-0.6v-2.5l-1.6,2.5h-0.6V102H14.2z M16.1,100.7c0,0.1,0,0.3-0.1,0.4
						s-0.1,0.2-0.2,0.3s-0.2,0.1-0.4,0.2c-0.1,0-0.3,0.1-0.4,0.1c-0.2,0-0.4,0-0.5-0.1s-0.2-0.1-0.3-0.2c-0.1-0.1-0.1-0.2-0.2-0.3
						s-0.1-0.2-0.1-0.4h0.6c0,0.1,0,0.1,0,0.2c0,0.1,0,0.1,0.1,0.2c0,0,0.1,0.1,0.2,0.1c0.1,0,0.1,0,0.3,0c0.1,0,0.2,0,0.3,0
						c0.1,0,0.1-0.1,0.2-0.1c0,0,0.1-0.1,0.1-0.2s0-0.1,0-0.2H16.1z"/>
					<path class="st13" d="M-13.8,111.2h-0.6v-3H-16v3h-0.6v-3.5h2.9C-13.8,107.7-13.8,111.2-13.8,111.2z"/>
					<path class="st13" d="M-9.6,109.3c0,0.3,0,0.6-0.1,0.8s-0.2,0.4-0.4,0.6c-0.2,0.2-0.3,0.3-0.6,0.3c-0.2,0.1-0.4,0.1-0.7,0.1
						c-0.1,0-0.2,0-0.3,0s-0.2,0-0.3-0.1v1.5h-0.6v-4.9h0.6l0,0.6c0.2-0.2,0.4-0.4,0.6-0.5c0.2-0.1,0.4-0.1,0.7-0.1
						c0.2,0,0.4,0,0.5,0.1c0.2,0.1,0.3,0.2,0.4,0.4c0.1,0.2,0.2,0.3,0.2,0.6C-9.6,108.8-9.6,109.1-9.6,109.3z M-10.2,109.4
						c0-0.2,0-0.4,0-0.5c0-0.2-0.1-0.3-0.1-0.4c-0.1-0.1-0.1-0.2-0.2-0.3c-0.1-0.1-0.2-0.1-0.3-0.1c-0.1,0-0.2,0-0.2,0
						c-0.1,0-0.2,0.1-0.3,0.1c-0.1,0.1-0.2,0.1-0.3,0.2c-0.1,0.1-0.2,0.2-0.3,0.4v1.7c0.1,0,0.2,0.1,0.4,0.1c0.1,0,0.3,0,0.4,0
						c0.3,0,0.6-0.1,0.8-0.3C-10.3,110.2-10.2,109.8-10.2,109.4z"/>
					<path class="st13" d="M-5.5,109.4c0,0.3,0,0.5-0.1,0.7c-0.1,0.2-0.2,0.4-0.3,0.6c-0.1,0.2-0.3,0.3-0.5,0.4
						c-0.2,0.1-0.5,0.1-0.7,0.1c-0.3,0-0.5,0-0.7-0.1c-0.2-0.1-0.4-0.2-0.5-0.3s-0.3-0.3-0.3-0.6c-0.1-0.2-0.1-0.5-0.1-0.8
						c0-0.3,0-0.5,0.1-0.7s0.2-0.4,0.3-0.6s0.3-0.3,0.5-0.4c0.2-0.1,0.5-0.1,0.7-0.1c0.3,0,0.5,0,0.7,0.1s0.4,0.2,0.5,0.3
						c0.1,0.2,0.3,0.3,0.3,0.6C-5.5,108.8-5.5,109.1-5.5,109.4z M-6.1,109.4c0-0.2,0-0.4-0.1-0.6s-0.1-0.3-0.2-0.4
						c-0.1-0.1-0.2-0.2-0.3-0.2c-0.1-0.1-0.3-0.1-0.4-0.1c-0.2,0-0.3,0-0.5,0.1s-0.2,0.2-0.3,0.3c-0.1,0.1-0.1,0.3-0.2,0.4
						s-0.1,0.3-0.1,0.5c0,0.2,0,0.4,0.1,0.6c0,0.2,0.1,0.3,0.2,0.4s0.2,0.2,0.3,0.2s0.3,0.1,0.4,0.1c0.2,0,0.3,0,0.5-0.1
						c0.1-0.1,0.2-0.2,0.3-0.3s0.1-0.3,0.2-0.4C-6.1,109.7-6.1,109.6-6.1,109.4z"/>
					<path class="st13" d="M-1.2,110.6l0,1.4h-0.6v-0.9h-2.6v0.9H-5l0-1.4H-5c0.1,0,0.2,0,0.3,0s0.2-0.1,0.2-0.2
						c0.1-0.1,0.1-0.2,0.2-0.3c0.1-0.1,0.1-0.3,0.2-0.5c0-0.2,0.1-0.5,0.1-0.8c0-0.3,0.1-0.7,0.1-1.1h2.2v3L-1.2,110.6L-1.2,110.6z
						 M-2.4,108.2h-1c0,0.4-0.1,0.7-0.1,1c0,0.3-0.1,0.5-0.1,0.7s-0.1,0.3-0.2,0.5s-0.1,0.2-0.2,0.3h1.6L-2.4,108.2L-2.4,108.2z"/>
					<path class="st13" d="M2.6,107.7l-1.2,3.1c-0.1,0.3-0.3,0.6-0.4,0.8c-0.1,0.2-0.3,0.4-0.4,0.6s-0.3,0.3-0.5,0.3
						s-0.4,0.1-0.6,0.1c-0.1,0-0.1,0-0.2,0s-0.1,0-0.2,0V112c0.1,0,0.1,0,0.2,0s0.1,0,0.2,0c0.1,0,0.2,0,0.3,0
						c0.1,0,0.2-0.1,0.3-0.2c0.1-0.1,0.2-0.2,0.3-0.3c0.1-0.1,0.2-0.3,0.2-0.4l-1.4-3.5h0.7l0.9,2.3l0.2,0.5l0.2-0.6l0.8-2.3
						L2.6,107.7L2.6,107.7z"/>
					<path class="st13" d="M6.7,111.2H5.9l-1.7-1.9v1.9H3.6v-3.5h0.6v1.6l1.6-1.6h0.8l-1.7,1.6L6.7,111.2z"/>
					<path class="st13" d="M10.6,108.2H9.3v3H8.6v-3H7.3v-0.5h3.4L10.6,108.2L10.6,108.2z"/>
				</g>
				<g>
					<rect x="87.1" y="100.6" class="st12" width="44.1" height="12.3"/>
					<path class="st13" d="M92.7,104.1c0,0.2,0,0.4-0.1,0.6c-0.1,0.2-0.2,0.3-0.4,0.4c-0.2,0.1-0.4,0.2-0.6,0.3s-0.5,0.1-0.8,0.1
						h-1.2v-4.6H91c1,0,1.6,0.4,1.6,1.1c0,0.2-0.1,0.5-0.2,0.6s-0.3,0.3-0.6,0.4c0.1,0,0.2,0.1,0.4,0.1s0.2,0.1,0.3,0.2
						s0.2,0.2,0.2,0.3C92.7,103.9,92.7,104,92.7,104.1z M91.9,102.1c0-0.1,0-0.2,0-0.3s-0.1-0.2-0.1-0.2c-0.1-0.1-0.2-0.1-0.3-0.1
						c-0.1,0-0.3-0.1-0.5-0.1h-0.7v1.4h0.6c0.1,0,0.3,0,0.4,0c0.1,0,0.2-0.1,0.3-0.1c0.1-0.1,0.2-0.1,0.2-0.2S91.9,102.3,91.9,102.1
						z M92,104.2c0-0.1,0-0.2-0.1-0.3c-0.1-0.1-0.1-0.2-0.2-0.2s-0.2-0.1-0.3-0.1s-0.3-0.1-0.5-0.1h-0.7v1.6h0.7
						c0.4,0,0.6-0.1,0.8-0.2C91.9,104.7,92,104.4,92,104.2z"/>
					<path class="st13" d="M96.5,105.5h-0.6V104h-1.6v1.6h-0.6V102h0.6v1.4h1.6V102h0.6V105.5z"/>
					<path class="st13" d="M100.9,102l-1.2,3.1c-0.1,0.3-0.3,0.6-0.4,0.8c-0.1,0.2-0.3,0.4-0.4,0.6c-0.2,0.1-0.3,0.3-0.5,0.3
						s-0.4,0.1-0.6,0.1c-0.1,0-0.1,0-0.2,0c-0.1,0-0.1,0-0.2,0v-0.6c0.1,0,0.1,0,0.2,0s0.1,0,0.2,0c0.1,0,0.2,0,0.3,0
						c0.1,0,0.2-0.1,0.3-0.2s0.2-0.2,0.3-0.3c0.1-0.1,0.2-0.3,0.2-0.4l-1.4-3.5h0.7l0.9,2.3l0.2,0.5l0.2-0.6l0.8-2.3L100.9,102
						L100.9,102z"/>
					<path class="st13" d="M104.8,102.5h-1.4v3h-0.6v-3h-1.4V102h3.4C104.8,102,104.8,102.5,104.8,102.5z"/>
					<path class="st13" d="M108.8,103.7c0,0.3,0,0.6-0.1,0.8c-0.1,0.2-0.2,0.4-0.4,0.6c-0.2,0.2-0.3,0.3-0.6,0.3s-0.4,0.1-0.7,0.1
						c-0.1,0-0.2,0-0.3,0s-0.2,0-0.3-0.1v1.5h-0.6V102h0.6l0,0.6c0.2-0.2,0.4-0.4,0.6-0.5c0.2-0.1,0.4-0.1,0.7-0.1
						c0.2,0,0.4,0,0.5,0.1s0.3,0.2,0.4,0.4s0.2,0.3,0.2,0.6C108.8,103.2,108.8,103.4,108.8,103.7z M108.2,103.7c0-0.2,0-0.4,0-0.5
						s-0.1-0.3-0.1-0.4c-0.1-0.1-0.1-0.2-0.2-0.3c-0.1-0.1-0.2-0.1-0.3-0.1c-0.1,0-0.2,0-0.2,0c-0.1,0-0.2,0.1-0.3,0.1
						s-0.2,0.1-0.3,0.2c-0.1,0.1-0.2,0.2-0.3,0.4v1.7c0.1,0,0.2,0.1,0.4,0.1s0.3,0,0.4,0c0.3,0,0.6-0.1,0.8-0.3
						S108.2,104.2,108.2,103.7z"/>
					<path class="st13" d="M112.8,103.6c0,0.1,0,0.2,0,0.2s0,0.1,0,0.2h-2.5c0,0.4,0.1,0.6,0.3,0.8s0.5,0.3,0.9,0.3
						c0.1,0,0.2,0,0.3,0c0.1,0,0.2,0,0.3,0s0.2,0,0.3,0s0.2,0,0.2-0.1v0.5c-0.2,0-0.4,0.1-0.6,0.1c-0.2,0-0.4,0-0.7,0
						c-0.3,0-0.6,0-0.8-0.1c-0.2-0.1-0.4-0.2-0.5-0.4c-0.1-0.2-0.2-0.3-0.3-0.6s-0.1-0.5-0.1-0.8c0-0.2,0-0.5,0.1-0.7
						c0.1-0.2,0.2-0.4,0.3-0.6c0.1-0.2,0.3-0.3,0.5-0.4s0.4-0.1,0.7-0.1c0.3,0,0.5,0,0.7,0.1c0.2,0.1,0.4,0.2,0.5,0.3
						c0.1,0.1,0.2,0.3,0.3,0.5C112.8,103.1,112.8,103.3,112.8,103.6z M112.2,103.5c0-0.2,0-0.3,0-0.4c0-0.1-0.1-0.2-0.2-0.3
						s-0.2-0.2-0.3-0.2s-0.3-0.1-0.4-0.1c-0.1,0-0.3,0-0.4,0.1s-0.2,0.1-0.3,0.2s-0.1,0.2-0.2,0.3c-0.1,0.1-0.1,0.3-0.1,0.4H112.2z"
						/>
					<path class="st13" d="M116.7,105.5h-0.6V104h-1.6v1.6h-0.6V102h0.6v1.4h1.6V102h0.6V105.5z"/>
					<path class="st13" d="M120.7,105.5h-0.6V104h-1.6v1.6h-0.6V102h0.6v1.4h1.6V102h0.6V105.5z"/>
					<path class="st13" d="M122.5,102v2.5l1.6-2.5h0.6v3.5h-0.6V103l-1.6,2.5h-0.6V102H122.5z"/>
					<path class="st13" d="M126.6,102v2.5l1.6-2.5h0.6v3.5h-0.6V103l-1.6,2.5h-0.6V102H126.6z M128.4,100.7c0,0.1,0,0.3-0.1,0.4
						c-0.1,0.1-0.1,0.2-0.2,0.3c-0.1,0.1-0.2,0.1-0.3,0.2c-0.1,0-0.3,0.1-0.5,0.1c-0.2,0-0.4,0-0.5-0.1s-0.2-0.1-0.3-0.2
						c-0.1-0.1-0.2-0.2-0.2-0.3c0-0.1-0.1-0.2-0.1-0.4h0.6c0,0.1,0,0.1,0,0.2c0,0.1,0,0.1,0.1,0.2s0.1,0.1,0.2,0.1
						c0.1,0,0.2,0,0.3,0c0.1,0,0.2,0,0.3,0c0.1,0,0.1-0.1,0.2-0.1c0,0,0.1-0.1,0.1-0.2c0-0.1,0-0.1,0-0.2H128.4z"/>
					<path class="st13" d="M98.6,111.1h-0.6v-3h-1.6v3h-0.6v-3.5h2.9V111.1z"/>
					<path class="st13" d="M102.8,109.3c0,0.3,0,0.6-0.1,0.8c-0.1,0.2-0.2,0.4-0.4,0.6c-0.2,0.2-0.3,0.3-0.6,0.3s-0.4,0.1-0.7,0.1
						c-0.1,0-0.2,0-0.3,0s-0.2,0-0.3-0.1v1.5h-0.6v-4.9h0.6l0,0.6c0.2-0.2,0.4-0.4,0.6-0.5c0.2-0.1,0.4-0.1,0.7-0.1
						c0.2,0,0.4,0,0.5,0.1s0.3,0.2,0.4,0.4s0.2,0.3,0.2,0.6C102.7,108.8,102.8,109,102.8,109.3z M102.1,109.3c0-0.2,0-0.4,0-0.5
						s-0.1-0.3-0.1-0.4c-0.1-0.1-0.1-0.2-0.2-0.3c-0.1-0.1-0.2-0.1-0.3-0.1c-0.1,0-0.2,0-0.2,0c-0.1,0-0.2,0.1-0.3,0.1
						s-0.2,0.1-0.3,0.2c-0.1,0.1-0.2,0.2-0.3,0.4v1.7c0.1,0,0.2,0.1,0.4,0.1s0.3,0,0.4,0c0.3,0,0.6-0.1,0.8-0.3
						S102.1,109.8,102.1,109.3z"/>
					<path class="st13" d="M106.9,109.3c0,0.3,0,0.5-0.1,0.7s-0.2,0.4-0.3,0.6c-0.1,0.2-0.3,0.3-0.5,0.4c-0.2,0.1-0.5,0.1-0.7,0.1
						c-0.3,0-0.5,0-0.7-0.1c-0.2-0.1-0.4-0.2-0.5-0.3c-0.1-0.2-0.3-0.3-0.3-0.6c-0.1-0.2-0.1-0.5-0.1-0.8c0-0.3,0-0.5,0.1-0.7
						c0.1-0.2,0.2-0.4,0.3-0.6c0.1-0.2,0.3-0.3,0.5-0.4c0.2-0.1,0.5-0.1,0.7-0.1c0.3,0,0.5,0,0.7,0.1c0.2,0.1,0.4,0.2,0.5,0.3
						s0.3,0.3,0.3,0.6C106.8,108.8,106.9,109.1,106.9,109.3z M106.2,109.4c0-0.2,0-0.4-0.1-0.6s-0.1-0.3-0.2-0.4s-0.2-0.2-0.3-0.2
						s-0.3-0.1-0.4-0.1c-0.2,0-0.3,0-0.5,0.1c-0.1,0.1-0.2,0.2-0.3,0.3s-0.1,0.3-0.2,0.4c0,0.2-0.1,0.3-0.1,0.5c0,0.2,0,0.4,0.1,0.6
						c0,0.2,0.1,0.3,0.2,0.4c0.1,0.1,0.2,0.2,0.3,0.2s0.3,0.1,0.4,0.1c0.2,0,0.3,0,0.5-0.1c0.1-0.1,0.2-0.2,0.3-0.3
						c0.1-0.1,0.1-0.3,0.2-0.4C106.2,109.7,106.2,109.6,106.2,109.4z"/>
					<path class="st13" d="M111.1,110.6l0,1.4h-0.6v-0.9h-2.6v0.9h-0.6l0-1.4h0c0.1,0,0.2,0,0.3,0c0.1,0,0.2-0.1,0.2-0.2
						c0.1-0.1,0.1-0.2,0.2-0.3c0.1-0.1,0.1-0.3,0.2-0.5c0-0.2,0.1-0.5,0.1-0.8c0-0.3,0.1-0.7,0.1-1.1h2.2v3L111.1,110.6L111.1,110.6
						z M110,108.1h-1c0,0.4-0.1,0.7-0.1,1s-0.1,0.5-0.1,0.7c-0.1,0.2-0.1,0.3-0.2,0.5c-0.1,0.1-0.1,0.2-0.2,0.3h1.6L110,108.1
						L110,108.1z"/>
					<path class="st13" d="M115,107.6l-1.2,3.1c-0.1,0.3-0.3,0.6-0.4,0.8c-0.1,0.2-0.3,0.4-0.4,0.6c-0.2,0.1-0.3,0.3-0.5,0.3
						c-0.2,0.1-0.4,0.1-0.6,0.1c-0.1,0-0.1,0-0.2,0c-0.1,0-0.1,0-0.2,0V112c0.1,0,0.1,0,0.2,0c0.1,0,0.1,0,0.2,0c0.1,0,0.2,0,0.3,0
						s0.2-0.1,0.3-0.2c0.1-0.1,0.2-0.2,0.3-0.3s0.2-0.3,0.2-0.4l-1.4-3.5h0.7l0.9,2.3l0.2,0.5l0.2-0.6l0.8-2.3L115,107.6L115,107.6z
						"/>
					<path class="st13" d="M119.1,111.1h-0.9l-1.7-1.9v1.9h-0.6v-3.5h0.6v1.6l1.6-1.6h0.8l-1.7,1.6L119.1,111.1z"/>
					<path class="st13" d="M123,108.1h-1.4v3H121v-3h-1.4v-0.5h3.4C123,107.6,123,108.1,123,108.1z"/>
				</g>
				<g>
					<rect x="22.8" y="39.6" class="st12" width="32" height="7"/>
					<path class="st13" d="M26.4,44.6h-0.6v-4h-1.9v4h-0.6V40h3.2L26.4,44.6L26.4,44.6z"/>
					<path class="st13" d="M30.5,42.8c0,0.3,0,0.6-0.1,0.8S30.2,44,30,44.2c-0.2,0.2-0.3,0.3-0.6,0.3c-0.2,0.1-0.4,0.1-0.7,0.1
						c-0.1,0-0.2,0-0.3,0s-0.2,0-0.3-0.1V46h-0.6v-4.9H28l0,0.6c0.2-0.2,0.4-0.4,0.6-0.5c0.2-0.1,0.4-0.1,0.7-0.1
						c0.2,0,0.4,0,0.5,0.1c0.2,0.1,0.3,0.2,0.4,0.4s0.2,0.3,0.2,0.6C30.5,42.3,30.5,42.5,30.5,42.8z M29.9,42.8c0-0.2,0-0.4,0-0.5
						c0-0.2-0.1-0.3-0.1-0.4c-0.1-0.1-0.1-0.2-0.2-0.3c-0.1-0.1-0.2-0.1-0.3-0.1c-0.1,0-0.2,0-0.2,0c-0.1,0-0.2,0.1-0.3,0.1
						c-0.1,0.1-0.2,0.1-0.3,0.2c-0.1,0.1-0.2,0.2-0.3,0.4V44c0.1,0,0.2,0.1,0.4,0.1c0.1,0,0.3,0,0.4,0c0.3,0,0.6-0.1,0.8-0.3
						C29.8,43.6,29.9,43.2,29.9,42.8z"/>
					<path class="st13" d="M34.6,42.8c0,0.3,0,0.5-0.1,0.7c-0.1,0.2-0.2,0.4-0.3,0.6c-0.1,0.2-0.3,0.3-0.5,0.4
						c-0.2,0.1-0.5,0.1-0.7,0.1c-0.3,0-0.5,0-0.7-0.1c-0.2-0.1-0.4-0.2-0.5-0.3s-0.3-0.3-0.3-0.6c-0.1-0.2-0.1-0.5-0.1-0.8
						c0-0.3,0-0.5,0.1-0.7s0.2-0.4,0.3-0.6s0.3-0.3,0.5-0.4c0.2-0.1,0.5-0.1,0.7-0.1c0.3,0,0.5,0,0.7,0.1s0.4,0.2,0.5,0.3
						c0.1,0.2,0.3,0.3,0.3,0.6C34.6,42.2,34.6,42.5,34.6,42.8z M34,42.8c0-0.2,0-0.4-0.1-0.6s-0.1-0.3-0.2-0.4
						c-0.1-0.1-0.2-0.2-0.3-0.2c-0.1-0.1-0.3-0.1-0.4-0.1c-0.2,0-0.3,0-0.5,0.1s-0.2,0.2-0.3,0.3C32,42,32,42.2,31.9,42.3
						s-0.1,0.3-0.1,0.5c0,0.2,0,0.4,0.1,0.6c0,0.2,0.1,0.3,0.2,0.4s0.2,0.2,0.3,0.2s0.3,0.1,0.4,0.1c0.2,0,0.3,0,0.5-0.1
						c0.1-0.1,0.2-0.2,0.3-0.3s0.1-0.3,0.2-0.4C33.9,43.2,34,43,34,42.8z"/>
					<path class="st13" d="M38.8,44l0,1.4h-0.6v-0.9h-2.7v-3.5h0.6v3h1.6v-3h0.6v3L38.8,44L38.8,44z"/>
					<path class="st13" d="M42.6,42.6c0,0.1,0,0.2,0,0.2c0,0.1,0,0.1,0,0.2H40c0,0.4,0.1,0.6,0.3,0.8s0.5,0.3,0.9,0.3
						c0.1,0,0.2,0,0.3,0s0.2,0,0.3,0s0.2,0,0.3,0c0.1,0,0.2,0,0.2-0.1v0.5c-0.2,0-0.4,0.1-0.6,0.1s-0.4,0-0.7,0
						c-0.3,0-0.6,0-0.8-0.1c-0.2-0.1-0.4-0.2-0.5-0.4c-0.1-0.2-0.2-0.3-0.3-0.6c-0.1-0.2-0.1-0.5-0.1-0.8c0-0.2,0-0.5,0.1-0.7
						c0.1-0.2,0.2-0.4,0.3-0.6c0.1-0.2,0.3-0.3,0.5-0.4c0.2-0.1,0.4-0.1,0.7-0.1c0.3,0,0.5,0,0.7,0.1c0.2,0.1,0.4,0.2,0.5,0.3
						c0.1,0.1,0.2,0.3,0.3,0.5C42.5,42.2,42.6,42.4,42.6,42.6z M41.9,42.5c0-0.2,0-0.3,0-0.4s-0.1-0.2-0.2-0.3
						c-0.1-0.1-0.2-0.2-0.3-0.2s-0.3-0.1-0.4-0.1c-0.1,0-0.3,0-0.4,0.1c-0.1,0.1-0.2,0.1-0.3,0.2c-0.1,0.1-0.1,0.2-0.2,0.3
						c0,0.1-0.1,0.3-0.1,0.4H41.9z"/>
					<path class="st13" d="M46.3,44.4c-0.2,0.1-0.3,0.1-0.5,0.1c-0.2,0-0.3,0-0.5,0c-0.6,0-1-0.2-1.3-0.5s-0.5-0.7-0.5-1.3
						c0-0.3,0-0.5,0.1-0.8s0.2-0.4,0.4-0.6s0.4-0.3,0.6-0.4c0.2-0.1,0.5-0.1,0.7-0.1c0.2,0,0.4,0,0.5,0c0.2,0,0.3,0.1,0.5,0.1v0.6
						c-0.2-0.1-0.3-0.1-0.5-0.2s-0.3-0.1-0.5-0.1c-0.2,0-0.3,0-0.5,0.1c-0.1,0.1-0.3,0.1-0.4,0.3s-0.2,0.2-0.3,0.4s-0.1,0.3-0.1,0.5
						c0,0.4,0.1,0.7,0.3,1c0.2,0.2,0.5,0.3,0.9,0.3c0.2,0,0.3,0,0.5-0.1c0.2,0,0.3-0.1,0.5-0.2L46.3,44.4L46.3,44.4z"/>
					<path class="st13" d="M50.4,44.4c-0.2,0.1-0.3,0.1-0.5,0.1c-0.2,0-0.3,0-0.5,0c-0.6,0-1-0.2-1.3-0.5s-0.5-0.7-0.5-1.3
						c0-0.3,0-0.5,0.1-0.8c0.1-0.2,0.2-0.4,0.4-0.6c0.2-0.2,0.4-0.3,0.6-0.4c0.2-0.1,0.5-0.1,0.7-0.1c0.2,0,0.4,0,0.5,0
						c0.2,0,0.3,0.1,0.5,0.1v0.6c-0.2-0.1-0.3-0.1-0.5-0.2c-0.2,0-0.3-0.1-0.5-0.1c-0.2,0-0.3,0-0.5,0.1c-0.1,0.1-0.3,0.1-0.4,0.3
						s-0.2,0.2-0.3,0.4s-0.1,0.3-0.1,0.5c0,0.4,0.1,0.7,0.3,1c0.2,0.2,0.5,0.3,0.9,0.3c0.2,0,0.3,0,0.5-0.1s0.3-0.1,0.5-0.2
						L50.4,44.4L50.4,44.4z"/>
				</g>
				<polygon class="st4" points="2.1,78.3 -45.4,78.3 -37.4,69.9 -45.4,61.8 2.1,61.8 10,69.9 				"/>
				<g>
					<rect x="-32.2" y="66.5" class="st12" width="32" height="7"/>
					<path class="st13" d="M-28.6,71.5h-0.6v-4h-1.9v4h-0.6v-4.6h3.2L-28.6,71.5L-28.6,71.5z"/>
					<path class="st13" d="M-24.5,69.7c0,0.3,0,0.6-0.1,0.8c-0.1,0.2-0.2,0.4-0.4,0.6c-0.2,0.2-0.3,0.3-0.6,0.3s-0.4,0.1-0.7,0.1
						c-0.1,0-0.2,0-0.3,0s-0.2,0-0.3-0.1v1.5h-0.6V68h0.6l0,0.6c0.2-0.2,0.4-0.4,0.6-0.5c0.2-0.1,0.4-0.1,0.7-0.1
						c0.2,0,0.4,0,0.5,0.1c0.2,0.1,0.3,0.2,0.4,0.4c0.1,0.2,0.2,0.3,0.2,0.6C-24.6,69.2-24.5,69.4-24.5,69.7z M-25.2,69.7
						c0-0.2,0-0.4,0-0.5s-0.1-0.3-0.1-0.4c-0.1-0.1-0.1-0.2-0.2-0.3c-0.1-0.1-0.2-0.1-0.3-0.1c-0.1,0-0.2,0-0.2,0s-0.2,0.1-0.3,0.1
						c-0.1,0.1-0.2,0.1-0.3,0.2c-0.1,0.1-0.2,0.2-0.3,0.4v1.7c0.1,0,0.2,0.1,0.4,0.1c0.1,0,0.3,0,0.4,0c0.3,0,0.6-0.1,0.8-0.3
						C-25.3,70.5-25.2,70.1-25.2,69.7z"/>
					<path class="st13" d="M-20.5,69.7c0,0.3,0,0.5-0.1,0.7c-0.1,0.2-0.2,0.4-0.3,0.6c-0.1,0.2-0.3,0.3-0.5,0.4
						c-0.2,0.1-0.5,0.1-0.7,0.1c-0.3,0-0.5,0-0.7-0.1c-0.2-0.1-0.4-0.2-0.5-0.3s-0.3-0.3-0.3-0.6c-0.1-0.2-0.1-0.5-0.1-0.8
						c0-0.3,0-0.5,0.1-0.7s0.2-0.4,0.3-0.6s0.3-0.3,0.5-0.4c0.2-0.1,0.5-0.1,0.7-0.1c0.3,0,0.5,0,0.7,0.1s0.4,0.2,0.5,0.3
						c0.1,0.2,0.3,0.3,0.3,0.6C-20.5,69.2-20.5,69.4-20.5,69.7z M-21.1,69.7c0-0.2,0-0.4-0.1-0.6s-0.1-0.3-0.2-0.4
						c-0.1-0.1-0.2-0.2-0.3-0.2c-0.1-0.1-0.3-0.1-0.4-0.1c-0.2,0-0.3,0-0.5,0.1s-0.2,0.2-0.3,0.3c-0.1,0.1-0.1,0.3-0.2,0.4
						s-0.1,0.3-0.1,0.5c0,0.2,0,0.4,0.1,0.6s0.1,0.3,0.2,0.4s0.2,0.2,0.3,0.2s0.3,0.1,0.4,0.1c0.2,0,0.3,0,0.5-0.1
						c0.1-0.1,0.2-0.2,0.3-0.3c0.1-0.1,0.1-0.3,0.2-0.4C-21.1,70.1-21.1,69.9-21.1,69.7z"/>
					<path class="st13" d="M-16.3,71l0,1.4h-0.6v-0.9h-2.7V68h0.6v3h1.6v-3h0.6v3L-16.3,71L-16.3,71z"/>
					<path class="st13" d="M-12.5,69.5c0,0.1,0,0.2,0,0.2c0,0.1,0,0.1,0,0.2H-15c0,0.4,0.1,0.6,0.3,0.8s0.5,0.3,0.9,0.3
						c0.1,0,0.2,0,0.3,0c0.1,0,0.2,0,0.3,0c0.1,0,0.2,0,0.3,0c0.1,0,0.2,0,0.2-0.1v0.5c-0.2,0-0.4,0.1-0.6,0.1c-0.2,0-0.4,0-0.7,0
						c-0.3,0-0.6,0-0.8-0.1c-0.2-0.1-0.4-0.2-0.5-0.4c-0.1-0.2-0.2-0.3-0.3-0.6s-0.1-0.5-0.1-0.8c0-0.2,0-0.5,0.1-0.7
						c0.1-0.2,0.2-0.4,0.3-0.6c0.1-0.2,0.3-0.3,0.5-0.4c0.2-0.1,0.4-0.1,0.7-0.1c0.3,0,0.5,0,0.7,0.1c0.2,0.1,0.4,0.2,0.5,0.3
						c0.1,0.1,0.2,0.3,0.3,0.5C-12.5,69.1-12.5,69.3-12.5,69.5z M-13.1,69.5c0-0.2,0-0.3,0-0.4s-0.1-0.2-0.2-0.3
						c-0.1-0.1-0.2-0.2-0.3-0.2c-0.1-0.1-0.3-0.1-0.4-0.1c-0.1,0-0.3,0-0.4,0.1c-0.1,0.1-0.2,0.1-0.3,0.2c-0.1,0.1-0.1,0.2-0.2,0.3
						s-0.1,0.3-0.1,0.4H-13.1z"/>
					<path class="st13" d="M-8.7,71.4c-0.2,0.1-0.3,0.1-0.5,0.1c-0.2,0-0.3,0-0.5,0c-0.6,0-1-0.2-1.3-0.4s-0.5-0.7-0.5-1.3
						c0-0.3,0-0.5,0.1-0.8s0.2-0.4,0.4-0.6c0.2-0.2,0.4-0.3,0.6-0.4s0.5-0.1,0.7-0.1c0.2,0,0.4,0,0.5,0c0.2,0,0.3,0.1,0.5,0.1v0.6
						c-0.2-0.1-0.3-0.1-0.5-0.2s-0.3-0.1-0.5-0.1c-0.2,0-0.3,0-0.5,0.1c-0.1,0.1-0.3,0.1-0.4,0.3s-0.2,0.2-0.3,0.4
						c-0.1,0.2-0.1,0.3-0.1,0.5c0,0.4,0.1,0.7,0.3,1c0.2,0.2,0.5,0.3,0.9,0.3c0.2,0,0.3,0,0.5-0.1c0.2,0,0.3-0.1,0.5-0.2L-8.7,71.4
						L-8.7,71.4z"/>
					<path class="st13" d="M-4.7,71.4c-0.2,0.1-0.3,0.1-0.5,0.1c-0.2,0-0.3,0-0.5,0c-0.6,0-1-0.2-1.3-0.4s-0.5-0.7-0.5-1.3
						c0-0.3,0-0.5,0.1-0.8c0.1-0.2,0.2-0.4,0.4-0.6s0.4-0.3,0.6-0.4c0.2-0.1,0.5-0.1,0.7-0.1c0.2,0,0.4,0,0.5,0
						c0.2,0,0.3,0.1,0.5,0.1v0.6c-0.2-0.1-0.3-0.1-0.5-0.2c-0.2,0-0.3-0.1-0.5-0.1c-0.2,0-0.3,0-0.5,0.1s-0.3,0.1-0.4,0.3
						s-0.2,0.2-0.3,0.4c-0.1,0.2-0.1,0.3-0.1,0.5c0,0.4,0.1,0.7,0.3,1C-6.3,70.9-6,71-5.6,71c0.2,0,0.3,0,0.5-0.1s0.3-0.1,0.5-0.2
						L-4.7,71.4L-4.7,71.4z"/>
				</g>
				<polygon class="st4" points="109.8,78.3 62.3,78.3 70.3,69.9 62.3,61.8 109.8,61.8 117.7,69.9 				"/>
				<g>
					<rect x="76.7" y="66.5" class="st12" width="29.2" height="9.1"/>
					<path class="st13" d="M80.3,71.5h-0.6v-4h-1.9v4h-0.6v-4.6h3.2L80.3,71.5L80.3,71.5z"/>
					<path class="st13" d="M84.3,69.7c0,0.3,0,0.6-0.1,0.8s-0.2,0.4-0.4,0.6c-0.2,0.2-0.3,0.3-0.6,0.3c-0.2,0.1-0.4,0.1-0.7,0.1
						c-0.1,0-0.2,0-0.3,0s-0.2,0-0.3-0.1v1.5h-0.6V68h0.6l0,0.6c0.2-0.2,0.4-0.4,0.6-0.5c0.2-0.1,0.4-0.1,0.7-0.1
						c0.2,0,0.4,0,0.5,0.1c0.2,0.1,0.3,0.2,0.4,0.4c0.1,0.2,0.2,0.3,0.2,0.6C84.3,69.2,84.3,69.4,84.3,69.7z M83.7,69.7
						c0-0.2,0-0.4,0-0.5c0-0.2-0.1-0.3-0.1-0.4c-0.1-0.1-0.1-0.2-0.2-0.3c-0.1-0.1-0.2-0.1-0.3-0.1c-0.1,0-0.2,0-0.2,0
						s-0.2,0.1-0.3,0.1c-0.1,0.1-0.2,0.1-0.3,0.2c-0.1,0.1-0.2,0.2-0.3,0.4v1.7c0.1,0,0.2,0.1,0.4,0.1c0.1,0,0.3,0,0.4,0
						c0.3,0,0.6-0.1,0.8-0.3C83.6,70.5,83.7,70.1,83.7,69.7z"/>
					<path class="st13" d="M88.4,69.7c0,0.3,0,0.5-0.1,0.7c-0.1,0.2-0.2,0.4-0.3,0.6c-0.1,0.2-0.3,0.3-0.5,0.4
						c-0.2,0.1-0.5,0.1-0.7,0.1c-0.3,0-0.5,0-0.7-0.1c-0.2-0.1-0.4-0.2-0.5-0.3s-0.3-0.3-0.3-0.6c-0.1-0.2-0.1-0.5-0.1-0.8
						c0-0.3,0-0.5,0.1-0.7s0.2-0.4,0.3-0.6s0.3-0.3,0.5-0.4c0.2-0.1,0.5-0.1,0.7-0.1c0.3,0,0.5,0,0.7,0.1s0.4,0.2,0.5,0.3
						c0.1,0.2,0.3,0.3,0.3,0.6C88.4,69.2,88.4,69.4,88.4,69.7z M87.8,69.7c0-0.2,0-0.4-0.1-0.6s-0.1-0.3-0.2-0.4
						c-0.1-0.1-0.2-0.2-0.3-0.2c-0.1-0.1-0.3-0.1-0.4-0.1c-0.2,0-0.3,0-0.5,0.1s-0.2,0.2-0.3,0.3c-0.1,0.1-0.1,0.3-0.2,0.4
						s-0.1,0.3-0.1,0.5c0,0.2,0,0.4,0.1,0.6c0,0.2,0.1,0.3,0.2,0.4s0.2,0.2,0.3,0.2s0.3,0.1,0.4,0.1c0.2,0,0.3,0,0.5-0.1
						c0.1-0.1,0.2-0.2,0.3-0.3s0.1-0.3,0.2-0.4C87.8,70.1,87.8,69.9,87.8,69.7z"/>
					<path class="st13" d="M92.6,71l0,1.4H92v-0.9h-2.7V68h0.6v3h1.6v-3h0.6v3L92.6,71L92.6,71z"/>
					<path class="st13" d="M96.4,69.5c0,0.1,0,0.2,0,0.2c0,0.1,0,0.1,0,0.2h-2.5c0,0.4,0.1,0.6,0.3,0.8s0.5,0.3,0.9,0.3
						c0.1,0,0.2,0,0.3,0s0.2,0,0.3,0s0.2,0,0.3,0c0.1,0,0.2,0,0.2-0.1v0.5c-0.2,0-0.4,0.1-0.6,0.1s-0.4,0-0.7,0
						c-0.3,0-0.6,0-0.8-0.1c-0.2-0.1-0.4-0.2-0.5-0.4c-0.1-0.2-0.2-0.3-0.3-0.6c-0.1-0.2-0.1-0.5-0.1-0.8c0-0.2,0-0.5,0.1-0.7
						c0.1-0.2,0.2-0.4,0.3-0.6c0.1-0.2,0.3-0.3,0.5-0.4c0.2-0.1,0.4-0.1,0.7-0.1c0.3,0,0.5,0,0.7,0.1c0.2,0.1,0.4,0.2,0.5,0.3
						c0.1,0.1,0.2,0.3,0.3,0.5C96.4,69.1,96.4,69.3,96.4,69.5z M95.8,69.5c0-0.2,0-0.3,0-0.4s-0.1-0.2-0.2-0.3s-0.2-0.2-0.3-0.2
						s-0.3-0.1-0.4-0.1c-0.1,0-0.3,0-0.4,0.1c-0.1,0.1-0.2,0.1-0.3,0.2C94.1,68.8,94,68.9,94,69c-0.1,0.1-0.1,0.3-0.1,0.4H95.8z"/>
					<path class="st13" d="M100.2,71.4c-0.2,0.1-0.3,0.1-0.5,0.1c-0.2,0-0.3,0-0.5,0c-0.6,0-1-0.2-1.3-0.4s-0.5-0.7-0.5-1.3
						c0-0.3,0-0.5,0.1-0.8c0.1-0.2,0.2-0.4,0.4-0.6s0.4-0.3,0.6-0.4c0.2-0.1,0.5-0.1,0.7-0.1c0.2,0,0.4,0,0.5,0
						c0.2,0,0.3,0.1,0.5,0.1v0.6c-0.2-0.1-0.3-0.1-0.5-0.2c-0.2,0-0.3-0.1-0.5-0.1c-0.2,0-0.3,0-0.5,0.1c-0.1,0.1-0.3,0.1-0.4,0.3
						s-0.2,0.2-0.3,0.4S98,69.5,98,69.7c0,0.4,0.1,0.7,0.3,1c0.2,0.2,0.5,0.3,0.9,0.3c0.2,0,0.3,0,0.5-0.1c0.2,0,0.3-0.1,0.5-0.2
						L100.2,71.4L100.2,71.4z"/>
					<path class="st13" d="M104.2,71.4c-0.2,0.1-0.3,0.1-0.5,0.1c-0.2,0-0.3,0-0.5,0c-0.6,0-1-0.2-1.3-0.4s-0.5-0.7-0.5-1.3
						c0-0.3,0-0.5,0.1-0.8c0.1-0.2,0.2-0.4,0.4-0.6c0.2-0.2,0.4-0.3,0.6-0.4c0.2-0.1,0.5-0.1,0.7-0.1c0.2,0,0.4,0,0.5,0
						c0.2,0,0.3,0.1,0.5,0.1v0.6c-0.2-0.1-0.3-0.1-0.5-0.2c-0.2,0-0.3-0.1-0.5-0.1c-0.2,0-0.3,0-0.5,0.1c-0.1,0.1-0.3,0.1-0.4,0.3
						s-0.2,0.2-0.3,0.4s-0.1,0.3-0.1,0.5c0,0.4,0.1,0.7,0.3,1c0.2,0.2,0.5,0.3,0.9,0.3c0.2,0,0.3,0,0.5-0.1s0.3-0.1,0.5-0.2
						L104.2,71.4L104.2,71.4z"/>
				</g>
				<line class="st7" x1="151.9" y1="19.5" x2="173.9" y2="69.9"/>
				<g>
					<rect x="19.8" y="66.3" class="st12" width="38.1" height="6.2"/>
					<path class="st13" d="M28.3,71.3h-0.6v-4h-1.9v4h-0.6v-4.6h3.2L28.3,71.3L28.3,71.3z"/>
					<path class="st13" d="M32.4,69.4c0,0.3,0,0.6-0.1,0.8c-0.1,0.2-0.2,0.4-0.4,0.6c-0.2,0.2-0.3,0.3-0.6,0.3s-0.4,0.1-0.7,0.1
						c-0.1,0-0.2,0-0.3,0s-0.2,0-0.3-0.1v1.5h-0.6v-4.9h0.6l0,0.6c0.2-0.2,0.4-0.4,0.6-0.5c0.2-0.1,0.4-0.1,0.7-0.1
						c0.2,0,0.4,0,0.5,0.1s0.3,0.2,0.4,0.4c0.1,0.2,0.2,0.3,0.2,0.6C32.3,68.9,32.4,69.2,32.4,69.4z M31.7,69.5c0-0.2,0-0.4,0-0.5
						s-0.1-0.3-0.1-0.4c-0.1-0.1-0.1-0.2-0.2-0.3c-0.1-0.1-0.2-0.1-0.3-0.1c-0.1,0-0.2,0-0.2,0c-0.1,0-0.2,0.1-0.3,0.1
						s-0.2,0.1-0.3,0.2c-0.1,0.1-0.2,0.2-0.3,0.4v1.7c0.1,0,0.2,0.1,0.4,0.1s0.3,0,0.4,0c0.3,0,0.6-0.1,0.8-0.3S31.7,69.9,31.7,69.5
						z"/>
					<path class="st13" d="M36.5,69.5c0,0.3,0,0.5-0.1,0.7s-0.2,0.4-0.3,0.6c-0.1,0.2-0.3,0.3-0.5,0.4c-0.2,0.1-0.5,0.1-0.7,0.1
						c-0.3,0-0.5,0-0.7-0.1c-0.2-0.1-0.4-0.2-0.5-0.3c-0.1-0.2-0.3-0.3-0.3-0.6c-0.1-0.2-0.1-0.5-0.1-0.8c0-0.3,0-0.5,0.1-0.7
						c0.1-0.2,0.2-0.4,0.3-0.6s0.3-0.3,0.5-0.4c0.2-0.1,0.5-0.1,0.7-0.1c0.3,0,0.5,0,0.7,0.1c0.2,0.1,0.4,0.2,0.5,0.3
						c0.1,0.2,0.3,0.3,0.3,0.6C36.4,68.9,36.5,69.2,36.5,69.5z M35.8,69.5c0-0.2,0-0.4-0.1-0.6s-0.1-0.3-0.2-0.4s-0.2-0.2-0.3-0.2
						s-0.3-0.1-0.4-0.1c-0.2,0-0.3,0-0.5,0.1c-0.1,0.1-0.2,0.2-0.3,0.3s-0.1,0.3-0.2,0.4c0,0.2-0.1,0.3-0.1,0.5c0,0.2,0,0.4,0.1,0.6
						c0,0.2,0.1,0.3,0.2,0.4c0.1,0.1,0.2,0.2,0.3,0.2s0.3,0.1,0.4,0.1c0.2,0,0.3,0,0.5-0.1c0.1-0.1,0.2-0.2,0.3-0.3
						c0.1-0.1,0.1-0.3,0.2-0.4C35.8,69.9,35.8,69.7,35.8,69.5z"/>
					<path class="st13" d="M40.7,70.7l0,1.4h-0.6v-0.9h-2.6v0.9h-0.6l0-1.4h0c0.1,0,0.2,0,0.3,0c0.1,0,0.2-0.1,0.2-0.2
						c0.1-0.1,0.1-0.2,0.2-0.3c0.1-0.1,0.1-0.3,0.2-0.5c0-0.2,0.1-0.5,0.1-0.8c0-0.3,0.1-0.7,0.1-1.1h2.2v3L40.7,70.7L40.7,70.7z
						 M39.6,68.3h-1c0,0.4-0.1,0.7-0.1,1s-0.1,0.5-0.1,0.7c-0.1,0.2-0.1,0.3-0.2,0.5c-0.1,0.1-0.1,0.2-0.2,0.3h1.6L39.6,68.3
						L39.6,68.3z"/>
					<path class="st13" d="M44.6,67.8l-1.2,3.1c-0.1,0.3-0.3,0.6-0.4,0.8c-0.1,0.2-0.3,0.4-0.4,0.6c-0.2,0.1-0.3,0.3-0.5,0.3
						c-0.2,0.1-0.4,0.1-0.6,0.1c-0.1,0-0.1,0-0.2,0c0,0-0.1,0-0.2,0v-0.6c0.1,0,0.1,0,0.2,0c0.1,0,0.1,0,0.2,0c0.1,0,0.2,0,0.3,0
						S41.9,72,42,72c0.1-0.1,0.2-0.2,0.3-0.3s0.2-0.3,0.2-0.4L41,67.8h0.7l0.9,2.3l0.2,0.5l0.2-0.6l0.8-2.3L44.6,67.8L44.6,67.8z"/>
					<path class="st13" d="M48.6,71.3h-0.9l-1.7-1.9v1.9h-0.6v-3.5h0.6v1.6l1.6-1.6h0.8l-1.7,1.6L48.6,71.3z"/>
					<path class="st13" d="M52.6,68.3h-1.4v3h-0.6v-3h-1.4v-0.5h3.4V68.3z"/>
				</g>
				<line class="st7" x1="38.9" y1="21.5" x2="-45.4" y2="61.9"/>
				<line class="st27" x1="62.3" y1="78.5" x2="-90.8" y2="100.8"/>
				<line class="st28" x1="-128.9" y1="88.5" x2="253" y2="88.5"/>
				<line class="st28" x1="-128.9" y1="31.3" x2="253" y2="31.3"/>
				<line class="st28" x1="-128.9" y1="122.2" x2="253" y2="122.2"/>
				<line class="st29" x1="-91.5" y1="79" x2="-91.5" y2="135"/>
				<polygon class="st30" points="-123.3,98.2 -95,98.2 -98.5,115.3 -126.6,115.3 				"/>
				<g>
					<rect x="-126.1" y="102.9" class="st12" width="32" height="7"/>
					<path class="st31" d="M-114.5,106.4c0,0.2,0,0.4-0.1,0.6c-0.1,0.2-0.2,0.3-0.4,0.4c-0.2,0.1-0.4,0.2-0.6,0.3
						c-0.2,0.1-0.5,0.1-0.8,0.1h-1.2v-4.6h1.3c1,0,1.6,0.4,1.6,1.1c0,0.2-0.1,0.5-0.2,0.6c-0.1,0.2-0.3,0.3-0.6,0.4
						c0.1,0,0.2,0.1,0.4,0.1s0.2,0.1,0.3,0.2s0.2,0.2,0.2,0.3C-114.5,106.1-114.5,106.3-114.5,106.4z M-115.3,104.4
						c0-0.1,0-0.2,0-0.3c0-0.1-0.1-0.2-0.1-0.2c-0.1-0.1-0.2-0.1-0.3-0.1c-0.1,0-0.3-0.1-0.5-0.1h-0.7v1.4h0.6c0.1,0,0.3,0,0.4,0
						s0.2-0.1,0.3-0.1c0.1-0.1,0.2-0.1,0.2-0.2C-115.4,104.7-115.3,104.6-115.3,104.4z M-115.2,106.5c0-0.1,0-0.2-0.1-0.3
						c-0.1-0.1-0.1-0.2-0.2-0.2s-0.2-0.1-0.3-0.1c-0.1,0-0.3-0.1-0.5-0.1h-0.7v1.6h0.7c0.4,0,0.6-0.1,0.8-0.2
						C-115.3,106.9-115.2,106.7-115.2,106.5z"/>
					<path class="st31" d="M-110.3,107.8h-0.8l-1-1.3l-1,1.3h-0.8l1.4-1.8l-1.3-1.7h0.8l0.9,1.3l0.9-1.3h0.8l-1.3,1.8L-110.3,107.8z
						"/>
					<path class="st31" d="M-106.4,106c0,0.3,0,0.5-0.1,0.7s-0.2,0.4-0.3,0.6c-0.1,0.2-0.3,0.3-0.5,0.4c-0.2,0.1-0.5,0.1-0.7,0.1
						c-0.3,0-0.5,0-0.7-0.1c-0.2-0.1-0.4-0.2-0.5-0.3c-0.1-0.2-0.3-0.3-0.3-0.6c-0.1-0.2-0.1-0.5-0.1-0.8c0-0.3,0-0.5,0.1-0.7
						c0.1-0.2,0.2-0.4,0.3-0.6c0.1-0.2,0.3-0.3,0.5-0.4c0.2-0.1,0.5-0.1,0.7-0.1c0.3,0,0.5,0,0.7,0.1c0.2,0.1,0.4,0.2,0.5,0.3
						s0.3,0.3,0.3,0.6C-106.4,105.5-106.4,105.7-106.4,106z M-107,106c0-0.2,0-0.4-0.1-0.6s-0.1-0.3-0.2-0.4s-0.2-0.2-0.3-0.2
						s-0.3-0.1-0.4-0.1c-0.2,0-0.3,0-0.5,0.1c-0.1,0.1-0.2,0.2-0.3,0.3s-0.1,0.3-0.2,0.4c0,0.2-0.1,0.3-0.1,0.5c0,0.2,0,0.4,0.1,0.6
						c0,0.2,0.1,0.3,0.2,0.4c0.1,0.1,0.2,0.2,0.3,0.2s0.3,0.1,0.4,0.1c0.2,0,0.3,0,0.5-0.1c0.1-0.1,0.2-0.2,0.3-0.3
						c0.1-0.1,0.1-0.3,0.2-0.4C-107,106.4-107,106.2-107,106z"/>
					<path class="st31" d="M-102.1,107.3l0,1.4h-0.6v-0.9h-2.6v0.9h-0.6l0-1.4h0c0.1,0,0.2,0,0.3,0c0.1,0,0.2-0.1,0.2-0.2
						c0.1-0.1,0.1-0.2,0.2-0.3c0.1-0.1,0.1-0.3,0.2-0.5c0-0.2,0.1-0.5,0.1-0.8c0-0.3,0.1-0.7,0.1-1.1h2.2v3
						C-102.7,107.3-102.1,107.3-102.1,107.3z M-103.3,104.8h-1c0,0.4-0.1,0.7-0.1,1s-0.1,0.5-0.1,0.7c-0.1,0.2-0.1,0.3-0.2,0.5
						c-0.1,0.1-0.1,0.2-0.2,0.3h1.6L-103.3,104.8L-103.3,104.8z"/>
				</g>
			</g>
			<path class="st32" d="M249.9,107.4c0,9.3-12.7,16.8-28.4,16.8c-15.7,0-28.4-7.5-28.4-16.8c0-9.3,12.7-16.8,28.4-16.8
				C237.2,90.6,249.9,98.1,249.9,107.4z"/>
			<path class="st32" d="M66.6,71.6c0,9.3-12.7,16.8-28.4,16.8c-15.7,0-28.4-7.5-28.4-16.8c0-9.3,12.7-16.8,28.4-16.8
				C53.9,54.8,66.6,62.3,66.6,71.6z"/>
			<ellipse class="st32" cx="123.8" cy="21" rx="28.4" ry="16.8"/>
		</g>
	</g>
</g>
</svg>
