<?xml version="1.0" encoding="utf-8"?>
<!-- Generator: Adobe Illustrator 19.2.1, SVG Export Plug-In . SVG Version: 6.00 Build 0)  -->
<svg version="1.1" id="Слой_1" xmlns="http://www.w3.org/2000/svg" xmlns:xlink="http://www.w3.org/1999/xlink" x="0px" y="0px"
	 viewBox="0 0 259 146.9" style="enable-background:new 0 0 259 146.9;" xml:space="preserve">
<style type="text/css">
	.st0{fill:#F5F6F6;}
	.st1{fill:#B9CEBF;}
	.st2{fill:none;stroke:#B9CEBF;stroke-miterlimit:10;}
	.st3{fill:#EB2227;}
	.st4{fill:#8F8F8E;stroke:#676767;stroke-width:0.3437;stroke-miterlimit:10;}
	.st5{fill:#8F8F8E;}
	.st6{fill:none;stroke:#676767;stroke-width:0.3437;stroke-miterlimit:10;}
	.st7{fill:none;stroke:#676767;stroke-width:0.3437;stroke-miterlimit:10;stroke-dasharray:1.6104,1.6104;}
	.st8{fill:none;stroke:#676767;stroke-width:0.3437;stroke-miterlimit:10;stroke-dasharray:1.8524,1.8524;}
	.st9{fill:none;stroke:#676767;stroke-width:0.3437;stroke-miterlimit:10;stroke-dasharray:2.0634,2.0634;}
	.st10{fill:none;stroke:#676767;stroke-width:0.3437;stroke-miterlimit:10;stroke-dasharray:1.8676,1.8676;}
	.st11{fill:none;stroke:#676767;stroke-width:0.3437;stroke-miterlimit:10;stroke-dasharray:2.0564,2.0564;}
	.st12{fill:none;}
	.st13{fill:#FFFFFF;}
	.st14{fill:none;stroke:#676767;stroke-width:0.3437;stroke-miterlimit:10;stroke-dasharray:1.8528,1.8528;}
	.st15{fill:none;stroke:#676767;stroke-width:0.3437;stroke-miterlimit:10;stroke-dasharray:2.0629,2.0629;}
	.st16{fill:none;stroke:#676767;stroke-width:0.3437;stroke-miterlimit:10;stroke-dasharray:1.8681,1.8681;}
	.st17{fill:none;stroke:#676767;stroke-width:0.3437;stroke-miterlimit:10;stroke-dasharray:1.6105,1.6105;}
	.st18{fill:none;stroke:#676767;stroke-width:0.3437;stroke-miterlimit:10;stroke-dasharray:1.9536,1.9536;}
	.st19{fill:none;stroke:#676767;stroke-width:0.3437;stroke-miterlimit:10;stroke-dasharray:1.9596,1.9596;}
	.st20{fill:none;stroke:#676767;stroke-width:0.3437;stroke-miterlimit:10;stroke-dasharray:1.9415,1.9415;}
	.st21{fill:none;stroke:#676767;stroke-width:0.3437;stroke-miterlimit:10;stroke-dasharray:1.9796,1.9796;}
	.st22{fill:none;stroke:#676767;stroke-width:0.3437;stroke-miterlimit:10;stroke-dasharray:1.9538,1.9538;}
	.st23{fill:none;stroke:#676767;stroke-width:0.3437;stroke-miterlimit:10;stroke-dasharray:1.9591,1.9591;}
	.st24{fill:none;stroke:#676767;stroke-width:0.3437;stroke-miterlimit:10;stroke-dasharray:1.9803,1.9803;}
	.st25{fill:none;stroke:#676767;stroke-width:0.3445;stroke-miterlimit:10;}
	.st26{fill:none;stroke:#929497;stroke-width:0.5294;stroke-miterlimit:10;stroke-dasharray:3.36;}
	.st27{fill:none;stroke:#EB2227;stroke-miterlimit:10;stroke-dasharray:4;}
	.st28{fill:#E7E7E7;stroke:#8F8F8E;stroke-width:0.3187;stroke-miterlimit:10;}
	.st29{fill:#010101;}
	.st30{clip-path:url(#SVGID_2_);}
	.st31{fill:#8B5E3C;}
	.st32{fill:#4BACC0;}
	.st33{fill:#3B2518;}
	.st34{fill:#F9AD8E;}
	.st35{fill:#754C29;}
	.st36{fill:#1D193D;}
	.st37{fill:#216A83;}
	.st38{fill:#F8A687;}
	.st39{fill:#723A21;}
	.st40{fill:#F9B49D;}
	.st41{fill:#F79871;}
	.st42{clip-path:url(#SVGID_4_);}
	.st43{fill:#F69320;}
	.st44{fill:#F8A586;}
	.st45{fill:#4DACB4;}
	.st46{opacity:0.55;fill:#51A8B7;enable-background:new    ;}
	.st47{fill:#EBE5E1;}
	.st48{fill:#D8D1BD;}
	.st49{fill:#11122D;}
	.st50{fill:#F5E7E6;}
	.st51{fill:#363636;}
	.st52{fill:none;stroke:#020304;stroke-width:1.3653;}
	.st53{fill:none;stroke:#EBE5E1;stroke-width:1.3653;}
	.st54{fill:#1A171C;}
	.st55{fill:#FFC231;}
</style>
<g id="base">
</g>
<g id="plashki">
</g>
<g id="lines">
</g>
<g id="image">
</g>
<g id="_x31_">
</g>
<g id="символы">
</g>
<g id="Layer_1_4_">
</g>
<g>
	<g>
		<g>
			<rect x="2.1" y="1.5" class="st0" width="255.6" height="130.8"/>
			<rect x="2.1" y="1.5" class="st1" width="255.6" height="14.6"/>
			<rect x="2.1" y="117.9" class="st1" width="255.6" height="14.6"/>
			<line class="st2" x1="2.2" y1="2.7" x2="2.2" y2="132.7"/>
			<line class="st2" x1="257.2" y1="2.7" x2="257.2" y2="132.7"/>
		</g>
		<g>
			<polygon class="st3" points="137.1,106.1 102.6,106.1 107.9,100.5 102.6,94.9 137.1,94.9 142.3,100.5 			"/>
			<polygon class="st4" points="247.6,106.1 221.7,106.1 216.6,100.5 221.7,94.9 247.6,94.9 252.7,100.5 			"/>
			<polygon class="st3" points="145.9,42.7 114.8,42.7 114.8,31.4 145.9,31.4 151.1,36.7 			"/>
			<g>
				<polygon class="st5" points="183.7,34.7 157.8,34.7 152.7,29.6 157.8,23.6 183.7,23.6 188.8,28.8 				"/>
				<g>
					<polyline class="st6" points="184.2,34.1 183.7,34.7 182.8,34.7 					"/>
					<line class="st7" x1="181.2" y1="34.7" x2="159.5" y2="34.7"/>
					<polyline class="st6" points="158.7,34.7 157.8,34.7 157.2,34.1 					"/>
					<line class="st8" x1="155.9" y1="32.8" x2="154" y2="30.8"/>
					<polyline class="st6" points="153.3,30.2 152.7,29.6 153.3,28.9 					"/>
					<line class="st9" x1="154.6" y1="27.3" x2="156.6" y2="25"/>
					<polyline class="st6" points="157.3,24.2 157.8,23.6 158.7,23.6 					"/>
					<line class="st7" x1="160.3" y1="23.6" x2="182" y2="23.6"/>
					<polyline class="st6" points="182.9,23.6 183.7,23.6 184.3,24.2 					"/>
					<line class="st10" x1="185.6" y1="25.5" x2="187.6" y2="27.5"/>
					<polyline class="st6" points="188.2,28.2 188.8,28.8 188.3,29.4 					"/>
					<line class="st11" x1="186.9" y1="31" x2="184.9" y2="33.3"/>
				</g>
			</g>
			<polygon class="st3" points="126.8,63 95.7,63 101,57.3 95.7,51.8 126.8,51.8 132,57.3 			"/>
			<g>
				<rect x="116.5" y="34.7" class="st12" width="32.9" height="4.7"/>
				<path class="st13" d="M119,38h-0.4l-0.1-1.9l0-0.7l-0.1,0.4l-0.5,1.2h-0.3l-0.4-1.2l-0.1-0.5l0,0.8L117,38h-0.4l0.1-3.1h0.5
					l0.4,1.2l0.1,0.4l0.1-0.4l0.4-1.2h0.5L119,38z"/>
				<path class="st13" d="M121,38l0-0.3c-0.1,0.1-0.3,0.2-0.4,0.3c-0.1,0.1-0.3,0.1-0.4,0.1c-0.1,0-0.3,0-0.3-0.1
					c-0.1,0-0.2-0.1-0.2-0.1s-0.1-0.1-0.1-0.2s0-0.2,0-0.3c0-0.2,0.1-0.4,0.3-0.6s0.4-0.2,0.8-0.2h0.5v-0.2c0-0.1,0-0.3-0.1-0.3
					c-0.1-0.1-0.2-0.1-0.4-0.1c-0.1,0-0.3,0-0.4,0c-0.1,0-0.3,0.1-0.4,0.1v-0.4c0.1,0,0.1,0,0.2-0.1s0.1,0,0.2,0c0.1,0,0.1,0,0.2,0
					c0.1,0,0.2,0,0.2,0c0.1,0,0.3,0,0.4,0c0.1,0,0.2,0.1,0.3,0.1c0.1,0.1,0.1,0.1,0.2,0.2c0,0.1,0.1,0.2,0.1,0.3V38L121,38L121,38z
					 M121,37h-0.5c-0.1,0-0.2,0-0.3,0s-0.1,0-0.2,0.1s-0.1,0.1-0.1,0.1c0,0.1,0,0.1,0,0.2c0,0,0,0.1,0,0.1c0,0,0,0.1,0.1,0.1
					c0,0,0.1,0.1,0.1,0.1c0.1,0,0.1,0,0.2,0c0.1,0,0.2,0,0.3-0.1s0.2-0.1,0.4-0.3L121,37L121,37z"/>
				<path class="st13" d="M124.3,38h-0.6l-1.1-1.3V38h-0.4v-2.4h0.4v1.1l1.1-1.1h0.5l-1.1,1.1L124.3,38z"/>
				<path class="st13" d="M126.8,36.8c0,0.2,0,0.4-0.1,0.6s-0.1,0.3-0.2,0.4c-0.1,0.1-0.2,0.2-0.4,0.2s-0.3,0.1-0.5,0.1
					c-0.1,0-0.1,0-0.2,0s-0.1,0-0.2,0v1h-0.4v-3.3h0.4l0,0.4c0.1-0.2,0.2-0.3,0.4-0.3s0.3-0.1,0.4-0.1c0.1,0,0.3,0,0.4,0.1
					s0.2,0.1,0.3,0.2c0.1,0.1,0.1,0.2,0.2,0.4C126.8,36.5,126.8,36.6,126.8,36.8z M126.4,36.8c0-0.1,0-0.2,0-0.3
					c0-0.1,0-0.2-0.1-0.3s-0.1-0.1-0.2-0.2c-0.1,0-0.1-0.1-0.2-0.1c-0.1,0-0.1,0-0.2,0c-0.1,0-0.1,0-0.2,0.1c-0.1,0-0.1,0.1-0.2,0.2
					c-0.1,0.1-0.1,0.1-0.2,0.2v1.2c0.1,0,0.2,0.1,0.2,0.1s0.2,0,0.2,0c0.2,0,0.4-0.1,0.5-0.2S126.4,37.1,126.4,36.8z"/>
				<path class="st13" d="M129.5,36.8c0,0.2,0,0.4-0.1,0.5s-0.1,0.3-0.2,0.4c-0.1,0.1-0.2,0.2-0.4,0.3c-0.1,0.1-0.3,0.1-0.5,0.1
					c-0.2,0-0.3,0-0.5-0.1c-0.1-0.1-0.2-0.1-0.3-0.2s-0.2-0.2-0.2-0.4c0-0.2-0.1-0.3-0.1-0.5c0-0.2,0-0.4,0.1-0.5s0.1-0.3,0.2-0.4
					s0.2-0.2,0.4-0.3c0.1-0.1,0.3-0.1,0.5-0.1c0.2,0,0.3,0,0.5,0.1c0.1,0.1,0.2,0.1,0.3,0.2c0.1,0.1,0.2,0.2,0.2,0.4
					C129.5,36.5,129.5,36.6,129.5,36.8z M129.1,36.8c0-0.1,0-0.3,0-0.4s-0.1-0.2-0.1-0.3c-0.1-0.1-0.1-0.1-0.2-0.2
					c-0.1,0-0.2-0.1-0.3-0.1c-0.1,0-0.2,0-0.3,0.1c-0.1,0-0.2,0.1-0.2,0.2c-0.1,0.1-0.1,0.2-0.1,0.3c0,0.1,0,0.2,0,0.3
					c0,0.1,0,0.3,0,0.4s0.1,0.2,0.1,0.3c0.1,0.1,0.1,0.1,0.2,0.2c0.1,0,0.2,0.1,0.3,0.1c0.1,0,0.2,0,0.3-0.1c0.1,0,0.2-0.1,0.2-0.2
					s0.1-0.2,0.1-0.3C129.1,37.1,129.1,37,129.1,36.8z"/>
				<path class="st13" d="M132,38h-0.4v-2h-1.1v2h-0.4v-2.4h1.9L132,38L132,38z"/>
				<path class="st13" d="M134.7,36.8c0,0.2,0,0.4-0.1,0.6c-0.1,0.2-0.1,0.3-0.2,0.4c-0.1,0.1-0.2,0.2-0.4,0.2s-0.3,0.1-0.5,0.1
					c-0.1,0-0.1,0-0.2,0s-0.1,0-0.2,0v1h-0.4v-3.3h0.4l0,0.4c0.1-0.2,0.2-0.3,0.4-0.3s0.3-0.1,0.4-0.1c0.1,0,0.3,0,0.4,0.1
					s0.2,0.1,0.3,0.2c0.1,0.1,0.1,0.2,0.2,0.4C134.7,36.5,134.7,36.6,134.7,36.8z M134.3,36.8c0-0.1,0-0.2,0-0.3
					c0-0.1,0-0.2-0.1-0.3s-0.1-0.1-0.1-0.2c-0.1,0-0.1-0.1-0.2-0.1c-0.1,0-0.1,0-0.2,0c-0.1,0-0.1,0-0.2,0.1c-0.1,0-0.1,0.1-0.2,0.2
					c-0.1,0.1-0.1,0.1-0.2,0.2v1.2c0.1,0,0.2,0.1,0.2,0.1s0.2,0,0.2,0c0.2,0,0.4-0.1,0.5-0.2S134.3,37.1,134.3,36.8z"/>
				<path class="st13" d="M137.4,36.8c0,0.2,0,0.4-0.1,0.5s-0.1,0.3-0.2,0.4c-0.1,0.1-0.2,0.2-0.4,0.3c-0.1,0.1-0.3,0.1-0.5,0.1
					c-0.2,0-0.3,0-0.5-0.1c-0.1-0.1-0.2-0.1-0.3-0.2s-0.2-0.2-0.2-0.4c0-0.2-0.1-0.3-0.1-0.5c0-0.2,0-0.4,0.1-0.5s0.1-0.3,0.2-0.4
					s0.2-0.2,0.4-0.3c0.1-0.1,0.3-0.1,0.5-0.1c0.2,0,0.3,0,0.5,0.1c0.1,0.1,0.2,0.1,0.3,0.2c0.1,0.1,0.2,0.2,0.2,0.4
					C137.4,36.5,137.4,36.6,137.4,36.8z M137,36.8c0-0.1,0-0.3,0-0.4s-0.1-0.2-0.1-0.3c-0.1-0.1-0.1-0.1-0.2-0.2
					c-0.1,0-0.2-0.1-0.3-0.1c-0.1,0-0.2,0-0.3,0.1c-0.1,0-0.2,0.1-0.2,0.2c-0.1,0.1-0.1,0.2-0.1,0.3c0,0.1,0,0.2,0,0.3
					c0,0.1,0,0.3,0,0.4s0.1,0.2,0.1,0.3c0.1,0.1,0.1,0.1,0.2,0.2c0.1,0,0.2,0.1,0.3,0.1c0.1,0,0.2,0,0.3-0.1c0.1,0,0.2-0.1,0.2-0.2
					s0.1-0.2,0.1-0.3C137,37.1,137,37,137,36.8z"/>
				<path class="st13" d="M140.1,37.7l0,1h-0.4V38H138v-2.4h0.4v2h1.1v-2h0.4v2H140.1z"/>
				<path class="st13" d="M142.6,36.7c0,0.1,0,0.1,0,0.1c0,0,0,0.1,0,0.1H141c0,0.2,0.1,0.4,0.2,0.6c0.1,0.1,0.3,0.2,0.6,0.2
					c0.1,0,0.1,0,0.2,0c0.1,0,0.1,0,0.2,0c0.1,0,0.1,0,0.2,0s0.1,0,0.2,0V38c-0.1,0-0.2,0.1-0.4,0.1c-0.1,0-0.3,0-0.4,0
					c-0.2,0-0.4,0-0.5-0.1c-0.1-0.1-0.3-0.1-0.4-0.2c-0.1-0.1-0.2-0.2-0.2-0.4c0-0.2-0.1-0.3-0.1-0.5c0-0.2,0-0.3,0.1-0.5
					s0.1-0.3,0.2-0.4c0.1-0.1,0.2-0.2,0.3-0.3s0.3-0.1,0.5-0.1c0.2,0,0.3,0,0.4,0.1c0.1,0.1,0.2,0.1,0.3,0.2
					c0.1,0.1,0.2,0.2,0.2,0.3C142.6,36.4,142.6,36.5,142.6,36.7z M142.2,36.7c0-0.1,0-0.2,0-0.3c0-0.1-0.1-0.2-0.1-0.2
					c-0.1-0.1-0.1-0.1-0.2-0.1s-0.2-0.1-0.3-0.1c-0.1,0-0.2,0-0.2,0.1c-0.1,0-0.1,0.1-0.2,0.1c-0.1,0.1-0.1,0.1-0.1,0.2
					c0,0.1-0.1,0.2-0.1,0.3C141,36.7,142.2,36.7,142.2,36.7z"/>
				<path class="st13" d="M145.1,37.9c-0.1,0-0.2,0.1-0.3,0.1c-0.1,0-0.2,0-0.3,0c-0.4,0-0.7-0.1-0.9-0.3c-0.2-0.2-0.3-0.5-0.3-0.9
					c0-0.2,0-0.4,0.1-0.5s0.1-0.3,0.2-0.4c0.1-0.1,0.2-0.2,0.4-0.3c0.1-0.1,0.3-0.1,0.5-0.1c0.1,0,0.2,0,0.3,0s0.2,0,0.3,0.1v0.4
					c-0.1-0.1-0.2-0.1-0.3-0.1s-0.2,0-0.3,0c-0.1,0-0.2,0-0.3,0.1c-0.1,0-0.2,0.1-0.2,0.2c-0.1,0.1-0.1,0.2-0.2,0.3
					c0,0.1-0.1,0.2-0.1,0.4c0,0.3,0.1,0.5,0.2,0.6c0.1,0.1,0.3,0.2,0.6,0.2c0.1,0,0.2,0,0.3,0c0.1,0,0.2-0.1,0.3-0.1L145.1,37.9
					L145.1,37.9z"/>
				<path class="st13" d="M147.7,37.9c-0.1,0-0.2,0.1-0.3,0.1c-0.1,0-0.2,0-0.3,0c-0.4,0-0.7-0.1-0.9-0.3c-0.2-0.2-0.3-0.5-0.3-0.9
					c0-0.2,0-0.4,0.1-0.5s0.1-0.3,0.2-0.4c0.1-0.1,0.2-0.2,0.4-0.3c0.1-0.1,0.3-0.1,0.5-0.1c0.1,0,0.2,0,0.3,0s0.2,0,0.3,0.1v0.4
					c-0.1-0.1-0.2-0.1-0.3-0.1s-0.2,0-0.3,0c-0.1,0-0.2,0-0.3,0.1c-0.1,0-0.2,0.1-0.2,0.2c-0.1,0.1-0.1,0.2-0.2,0.3
					c0,0.1-0.1,0.2-0.1,0.4c0,0.3,0.1,0.5,0.2,0.6c0.1,0.1,0.3,0.2,0.6,0.2c0.1,0,0.2,0,0.3,0c0.1,0,0.2-0.1,0.3-0.1L147.7,37.9
					L147.7,37.9z"/>
			</g>
			<polygon class="st3" points="63.3,106.6 32.2,106.6 32.2,95.4 63.3,95.4 68.5,100.6 			"/>
			<g>
				<rect x="33.9" y="98.6" class="st12" width="32.9" height="4.7"/>
				<path class="st13" d="M36.5,101.6l0,1h-0.4V102h-1.7v0.7H34l0-1h0c0.1,0,0.1,0,0.2,0c0,0,0.1-0.1,0.1-0.2s0.1-0.2,0.1-0.3
					c0-0.1,0.1-0.3,0.1-0.5c0-0.2,0.1-0.4,0.1-0.7c0-0.3,0-0.6,0.1-1h1.5v2.7H36.5z M35.7,99.2H35c0,0.3,0,0.6-0.1,0.9
					s-0.1,0.5-0.1,0.7c0,0.2-0.1,0.4-0.1,0.5c-0.1,0.1-0.1,0.2-0.2,0.3h1.1L35.7,99.2L35.7,99.2z"/>
				<path class="st13" d="M38.9,100.6c0,0.1,0,0.1,0,0.1c0,0,0,0.1,0,0.1h-1.7c0,0.2,0.1,0.4,0.2,0.6c0.1,0.1,0.3,0.2,0.6,0.2
					c0.1,0,0.1,0,0.2,0c0.1,0,0.1,0,0.2,0c0.1,0,0.1,0,0.2,0s0.1,0,0.2,0v0.3c-0.1,0-0.2,0.1-0.4,0.1c-0.1,0-0.3,0-0.4,0
					c-0.2,0-0.4,0-0.5-0.1c-0.1-0.1-0.3-0.1-0.4-0.2c-0.1-0.1-0.2-0.2-0.2-0.4c0-0.2-0.1-0.3-0.1-0.5c0-0.2,0-0.3,0.1-0.5
					s0.1-0.3,0.2-0.4c0.1-0.1,0.2-0.2,0.3-0.3c0.1-0.1,0.3-0.1,0.5-0.1c0.2,0,0.3,0,0.4,0.1c0.1,0.1,0.2,0.1,0.3,0.2
					c0.1,0.1,0.2,0.2,0.2,0.3C38.9,100.3,38.9,100.5,38.9,100.6z M38.5,100.6c0-0.1,0-0.2,0-0.3c0-0.1-0.1-0.2-0.1-0.2
					c-0.1-0.1-0.1-0.1-0.2-0.1s-0.2-0.1-0.3-0.1c-0.1,0-0.2,0-0.2,0.1c-0.1,0-0.1,0.1-0.2,0.1c-0.1,0.1-0.1,0.1-0.1,0.2
					c0,0.1-0.1,0.2-0.1,0.3H38.5z"/>
				<path class="st13" d="M39.7,101.3c0.1-0.1,0.1-0.2,0.2-0.3c0.1-0.1,0.1-0.1,0.2-0.1c-0.1,0-0.2-0.1-0.2-0.1
					c-0.1,0-0.1-0.1-0.2-0.1s-0.1-0.1-0.1-0.2c0-0.1,0-0.1,0-0.2c0-0.1,0-0.2,0.1-0.3c0-0.1,0.1-0.2,0.2-0.2
					c0.1-0.1,0.2-0.1,0.3-0.2s0.3-0.1,0.5-0.1c0.1,0,0.3,0,0.4,0c0.1,0,0.3,0,0.4,0v2.4H41V101h-0.4c-0.1,0-0.1,0-0.2,0
					c-0.1,0-0.1,0-0.2,0.1c0,0-0.1,0.1-0.1,0.1c0,0-0.1,0.1-0.1,0.2l-0.3,0.6h-0.5L39.7,101.3z M40,100.3c0,0.1,0,0.2,0.1,0.3
					c0.1,0.1,0.2,0.1,0.4,0.1H41v-0.8c-0.1,0-0.1,0-0.2,0s-0.1,0-0.2,0c-0.1,0-0.2,0-0.3,0c-0.1,0-0.1,0-0.2,0.1
					c0,0-0.1,0.1-0.1,0.1S40,100.2,40,100.3z"/>
				<path class="st13" d="M44.2,99.9h-0.9v2h-0.4v-2H42v-0.4h2.2L44.2,99.9L44.2,99.9z"/>
				<path class="st13" d="M46.8,100.6c0,0.1,0,0.1,0,0.1c0,0,0,0.1,0,0.1h-1.7c0,0.2,0.1,0.4,0.2,0.6c0.1,0.1,0.3,0.2,0.6,0.2
					c0.1,0,0.1,0,0.2,0c0.1,0,0.1,0,0.2,0c0.1,0,0.1,0,0.2,0s0.1,0,0.2,0v0.3c-0.1,0-0.2,0.1-0.4,0.1c-0.1,0-0.3,0-0.4,0
					c-0.2,0-0.4,0-0.5-0.1c-0.1-0.1-0.3-0.1-0.4-0.2c-0.1-0.1-0.2-0.2-0.2-0.4c0-0.2-0.1-0.3-0.1-0.5c0-0.2,0-0.3,0.1-0.5
					s0.1-0.3,0.2-0.4c0.1-0.1,0.2-0.2,0.3-0.3c0.1-0.1,0.3-0.1,0.5-0.1c0.2,0,0.3,0,0.4,0.1c0.1,0.1,0.2,0.1,0.3,0.2
					c0.1,0.1,0.2,0.2,0.2,0.3C46.8,100.3,46.8,100.5,46.8,100.6z M46.4,100.6c0-0.1,0-0.2,0-0.3c0-0.1-0.1-0.2-0.1-0.2
					c-0.1-0.1-0.1-0.1-0.2-0.1s-0.2-0.1-0.3-0.1c-0.1,0-0.2,0-0.2,0.1c-0.1,0-0.1,0.1-0.2,0.1c-0.1,0.1-0.1,0.1-0.1,0.2
					c0,0.1-0.1,0.2-0.1,0.3H46.4z"/>
				<path class="st13" d="M49.3,102h-0.4v-2h-0.7c0,0.3,0,0.6-0.1,0.8c0,0.2-0.1,0.4-0.1,0.6c-0.1,0.2-0.1,0.3-0.2,0.4
					c-0.1,0.1-0.1,0.2-0.2,0.2c-0.1,0-0.2,0.1-0.2,0.1c-0.1,0-0.2,0-0.3,0l0-0.3c0.1,0,0.1,0,0.2,0s0.1,0,0.2-0.1
					c0,0,0.1-0.1,0.1-0.2c0-0.1,0.1-0.2,0.1-0.4s0.1-0.3,0.1-0.6s0-0.5,0.1-0.8h1.5C49.3,99.6,49.3,102,49.3,102z"/>
				<path class="st13" d="M50.5,100.5c0,0,0.1,0,0.1,0s0.1,0,0.1,0c0,0,0.1,0,0.1,0c0,0,0.1,0,0.1,0c0.4,0,0.6,0.1,0.8,0.2
					s0.3,0.3,0.3,0.6c0,0.3-0.1,0.5-0.3,0.6c-0.2,0.1-0.5,0.2-0.8,0.2c-0.2,0-0.3,0-0.5,0c-0.1,0-0.3,0-0.4,0v-2.4h0.4
					C50.5,99.6,50.5,100.5,50.5,100.5z M51.7,101.2c0-0.1,0-0.1,0-0.2c0-0.1-0.1-0.1-0.1-0.1s-0.1-0.1-0.2-0.1c-0.1,0-0.2,0-0.3,0
					c-0.1,0-0.2,0-0.2,0c-0.1,0-0.2,0-0.3,0v0.8c0.1,0,0.2,0,0.2,0s0.2,0,0.2,0c0.1,0,0.2,0,0.3,0s0.2,0,0.2-0.1
					c0.1,0,0.1-0.1,0.1-0.1C51.7,101.4,51.7,101.3,51.7,101.2z"/>
				<path class="st13" d="M54.6,102h-0.4v-1.1h-1.1v1.1h-0.4v-2.4h0.4v1h1.1v-1h0.4V102z"/>
				<path class="st13" d="M57.4,100.8c0,0.2,0,0.4-0.1,0.5c-0.1,0.2-0.1,0.3-0.2,0.4c-0.1,0.1-0.2,0.2-0.4,0.3
					c-0.1,0.1-0.3,0.1-0.5,0.1c-0.2,0-0.3,0-0.5-0.1c-0.1-0.1-0.2-0.1-0.3-0.2s-0.2-0.2-0.2-0.4c0-0.2-0.1-0.3-0.1-0.5
					c0-0.2,0-0.4,0.1-0.5s0.1-0.3,0.2-0.4s0.2-0.2,0.4-0.3c0.1-0.1,0.3-0.1,0.5-0.1c0.2,0,0.3,0,0.5,0.1c0.1,0.1,0.2,0.1,0.3,0.2
					c0.1,0.1,0.2,0.2,0.2,0.4C57.4,100.4,57.4,100.6,57.4,100.8z M57,100.8c0-0.1,0-0.3,0-0.4s-0.1-0.2-0.1-0.3
					c-0.1-0.1-0.1-0.1-0.2-0.2c-0.1,0-0.2-0.1-0.3-0.1c-0.1,0-0.2,0-0.3,0.1c-0.1,0-0.2,0.1-0.2,0.2c-0.1,0.1-0.1,0.2-0.1,0.3
					c0,0.1,0,0.2,0,0.3c0,0.1,0,0.3,0,0.4s0.1,0.2,0.1,0.3c0.1,0.1,0.1,0.1,0.2,0.2c0.1,0,0.2,0.1,0.3,0.1c0.1,0,0.2,0,0.3-0.1
					c0.1,0,0.2-0.1,0.2-0.2s0.1-0.2,0.1-0.3C57,101,57,100.9,57,100.8z"/>
				<path class="st13" d="M59.8,101.9c-0.1,0-0.2,0.1-0.3,0.1c-0.1,0-0.2,0-0.3,0c-0.4,0-0.7-0.1-0.9-0.3c-0.2-0.2-0.3-0.5-0.3-0.9
					c0-0.2,0-0.4,0.1-0.5c0.1-0.2,0.1-0.3,0.2-0.4c0.1-0.1,0.2-0.2,0.4-0.3c0.1-0.1,0.3-0.1,0.5-0.1c0.1,0,0.2,0,0.3,0
					s0.2,0,0.3,0.1v0.4c-0.1-0.1-0.2-0.1-0.3-0.1s-0.2,0-0.3,0c-0.1,0-0.2,0-0.3,0.1c-0.1,0-0.2,0.1-0.2,0.2
					c-0.1,0.1-0.1,0.2-0.2,0.3c0,0.1-0.1,0.2-0.1,0.4c0,0.3,0.1,0.5,0.2,0.6c0.1,0.1,0.3,0.2,0.6,0.2c0.1,0,0.2,0,0.3,0
					c0.1,0,0.2-0.1,0.3-0.1L59.8,101.9L59.8,101.9z"/>
				<path class="st13" d="M62.7,99.9h-0.9v2h-0.4v-2h-0.9v-0.4h2.2L62.7,99.9L62.7,99.9z"/>
				<path class="st13" d="M63.7,100.5c0,0,0.1,0,0.1,0s0.1,0,0.1,0c0,0,0.1,0,0.1,0c0,0,0.1,0,0.1,0c0.4,0,0.6,0.1,0.8,0.2
					c0.2,0.1,0.3,0.3,0.3,0.6c0,0.3-0.1,0.5-0.3,0.6c-0.2,0.1-0.5,0.2-0.8,0.2c-0.2,0-0.3,0-0.5,0c-0.1,0-0.3,0-0.4,0v-2.4h0.4
					V100.5z M64.9,101.2c0-0.1,0-0.1,0-0.2c0-0.1-0.1-0.1-0.1-0.1c-0.1,0-0.1-0.1-0.2-0.1c-0.1,0-0.2,0-0.3,0c-0.1,0-0.2,0-0.2,0
					c-0.1,0-0.2,0-0.3,0v0.8c0.1,0,0.2,0,0.2,0c0.1,0,0.2,0,0.2,0c0.1,0,0.2,0,0.3,0s0.2,0,0.2-0.1c0.1,0,0.1-0.1,0.1-0.1
					C64.9,101.4,64.9,101.3,64.9,101.2z"/>
			</g>
			<g>
				<rect x="108.5" y="98.6" class="st12" width="32.9" height="4.7"/>
				<path class="st13" d="M111,101.6l0,1h-0.4V102h-1.7v0.7h-0.4l0-1h0c0.1,0,0.1,0,0.2,0c0.1,0,0.1-0.1,0.1-0.2s0.1-0.2,0.1-0.3
					c0-0.1,0.1-0.3,0.1-0.5c0-0.2,0.1-0.4,0.1-0.7c0-0.3,0-0.6,0.1-1h1.5v2.7H111z M110.3,99.2h-0.7c0,0.3,0,0.6-0.1,0.9
					s-0.1,0.5-0.1,0.7c0,0.2-0.1,0.4-0.1,0.5c-0.1,0.1-0.1,0.2-0.2,0.3h1.1L110.3,99.2L110.3,99.2z"/>
				<path class="st13" d="M113.5,100.6c0,0.1,0,0.1,0,0.1c0,0,0,0.1,0,0.1h-1.7c0,0.2,0.1,0.4,0.2,0.6c0.1,0.1,0.3,0.2,0.6,0.2
					c0.1,0,0.1,0,0.2,0c0.1,0,0.1,0,0.2,0c0.1,0,0.1,0,0.2,0s0.1,0,0.2,0v0.3c-0.1,0-0.2,0.1-0.4,0.1c-0.1,0-0.3,0-0.4,0
					c-0.2,0-0.4,0-0.5-0.1c-0.1-0.1-0.3-0.1-0.4-0.2c-0.1-0.1-0.2-0.2-0.2-0.4c0-0.2-0.1-0.3-0.1-0.5c0-0.2,0-0.3,0.1-0.5
					s0.1-0.3,0.2-0.4c0.1-0.1,0.2-0.2,0.3-0.3c0.1-0.1,0.3-0.1,0.5-0.1c0.2,0,0.3,0,0.4,0.1c0.1,0.1,0.2,0.1,0.3,0.2
					c0.1,0.1,0.2,0.2,0.2,0.3C113.4,100.3,113.5,100.5,113.5,100.6z M113,100.6c0-0.1,0-0.2,0-0.3c0-0.1-0.1-0.2-0.1-0.2
					c-0.1-0.1-0.1-0.1-0.2-0.1s-0.2-0.1-0.3-0.1c-0.1,0-0.2,0-0.2,0.1c-0.1,0-0.1,0.1-0.2,0.1c-0.1,0.1-0.1,0.1-0.1,0.2
					c0,0.1-0.1,0.2-0.1,0.3H113z"/>
				<path class="st13" d="M114.3,101.3c0.1-0.1,0.1-0.2,0.2-0.3c0.1-0.1,0.1-0.1,0.2-0.1c-0.1,0-0.2-0.1-0.2-0.1
					c-0.1,0-0.1-0.1-0.2-0.1s-0.1-0.1-0.1-0.2c0-0.1,0-0.1,0-0.2c0-0.1,0-0.2,0.1-0.3c0-0.1,0.1-0.2,0.2-0.2
					c0.1-0.1,0.2-0.1,0.3-0.2s0.3-0.1,0.5-0.1c0.1,0,0.3,0,0.4,0c0.1,0,0.3,0,0.4,0v2.4h-0.4V101h-0.4c-0.1,0-0.1,0-0.2,0
					c-0.1,0-0.1,0-0.2,0.1s-0.1,0.1-0.1,0.1c0,0-0.1,0.1-0.1,0.2l-0.3,0.6H114L114.3,101.3z M114.6,100.3c0,0.1,0,0.2,0.1,0.3
					c0.1,0.1,0.2,0.1,0.4,0.1h0.4v-0.8c-0.1,0-0.1,0-0.2,0s-0.1,0-0.2,0c-0.1,0-0.2,0-0.3,0c-0.1,0-0.1,0-0.2,0.1
					c0,0-0.1,0.1-0.1,0.1S114.6,100.2,114.6,100.3z"/>
				<path class="st13" d="M118.8,99.9h-0.9v2h-0.4v-2h-0.9v-0.4h2.2L118.8,99.9L118.8,99.9z"/>
				<path class="st13" d="M121.4,100.6c0,0.1,0,0.1,0,0.1c0,0,0,0.1,0,0.1h-1.7c0,0.2,0.1,0.4,0.2,0.6c0.1,0.1,0.3,0.2,0.6,0.2
					c0.1,0,0.1,0,0.2,0c0.1,0,0.1,0,0.2,0c0.1,0,0.1,0,0.2,0s0.1,0,0.2,0v0.3c-0.1,0-0.2,0.1-0.4,0.1c-0.1,0-0.3,0-0.4,0
					c-0.2,0-0.4,0-0.5-0.1c-0.1-0.1-0.3-0.1-0.4-0.2c-0.1-0.1-0.2-0.2-0.2-0.4c0-0.2-0.1-0.3-0.1-0.5c0-0.2,0-0.3,0.1-0.5
					s0.1-0.3,0.2-0.4c0.1-0.1,0.2-0.2,0.3-0.3c0.1-0.1,0.3-0.1,0.5-0.1c0.2,0,0.3,0,0.4,0.1c0.1,0.1,0.2,0.1,0.3,0.2
					c0.1,0.1,0.2,0.2,0.2,0.3C121.4,100.3,121.4,100.5,121.4,100.6z M121,100.6c0-0.1,0-0.2,0-0.3c0-0.1-0.1-0.2-0.1-0.2
					c-0.1-0.1-0.1-0.1-0.2-0.1s-0.2-0.1-0.3-0.1c-0.1,0-0.2,0-0.2,0.1c-0.1,0-0.1,0.1-0.2,0.1c-0.1,0.1-0.1,0.1-0.1,0.2
					c0,0.1-0.1,0.2-0.1,0.3H121z"/>
				<path class="st13" d="M123.9,102h-0.4v-2h-0.7c0,0.3,0,0.6-0.1,0.8c0,0.2-0.1,0.4-0.1,0.6c-0.1,0.2-0.1,0.3-0.2,0.4
					c-0.1,0.1-0.1,0.2-0.2,0.2c-0.1,0-0.2,0.1-0.2,0.1c-0.1,0-0.2,0-0.3,0l0-0.3c0.1,0,0.1,0,0.2,0s0.1,0,0.2-0.1
					c0,0,0.1-0.1,0.1-0.2c0-0.1,0.1-0.2,0.1-0.4s0.1-0.3,0.1-0.6s0-0.5,0.1-0.8h1.5V102z"/>
				<path class="st13" d="M125.1,100.5c0,0,0.1,0,0.1,0s0.1,0,0.1,0c0,0,0.1,0,0.1,0c0,0,0.1,0,0.1,0c0.4,0,0.6,0.1,0.8,0.2
					c0.2,0.1,0.3,0.3,0.3,0.6c0,0.3-0.1,0.5-0.3,0.6c-0.2,0.1-0.5,0.2-0.8,0.2c-0.2,0-0.3,0-0.5,0c-0.1,0-0.3,0-0.4,0v-2.4h0.4
					V100.5z M126.3,101.2c0-0.1,0-0.1,0-0.2c0-0.1-0.1-0.1-0.1-0.1c-0.1,0-0.1-0.1-0.2-0.1c-0.1,0-0.2,0-0.3,0c-0.1,0-0.2,0-0.2,0
					c-0.1,0-0.2,0-0.3,0v0.8c0.1,0,0.2,0,0.2,0s0.2,0,0.2,0c0.1,0,0.2,0,0.3,0s0.2,0,0.2-0.1c0.1,0,0.1-0.1,0.1-0.1
					C126.3,101.4,126.3,101.3,126.3,101.2z"/>
				<path class="st13" d="M129.2,102h-0.4v-1.1h-1.1v1.1h-0.4v-2.4h0.4v1h1.1v-1h0.4L129.2,102L129.2,102z"/>
				<path class="st13" d="M132,100.8c0,0.2,0,0.4-0.1,0.5c-0.1,0.2-0.1,0.3-0.2,0.4c-0.1,0.1-0.2,0.2-0.4,0.3
					c-0.1,0.1-0.3,0.1-0.5,0.1c-0.2,0-0.3,0-0.5-0.1c-0.1-0.1-0.2-0.1-0.3-0.2s-0.2-0.2-0.2-0.4c0-0.2-0.1-0.3-0.1-0.5
					c0-0.2,0-0.4,0.1-0.5s0.1-0.3,0.2-0.4s0.2-0.2,0.4-0.3c0.1-0.1,0.3-0.1,0.5-0.1c0.2,0,0.3,0,0.5,0.1c0.1,0.1,0.2,0.1,0.3,0.2
					c0.1,0.1,0.2,0.2,0.2,0.4C132,100.4,132,100.6,132,100.8z M131.6,100.8c0-0.1,0-0.3,0-0.4s-0.1-0.2-0.1-0.3
					c-0.1-0.1-0.1-0.1-0.2-0.2c-0.1,0-0.2-0.1-0.3-0.1c-0.1,0-0.2,0-0.3,0.1c-0.1,0-0.2,0.1-0.2,0.2c-0.1,0.1-0.1,0.2-0.1,0.3
					c0,0.1,0,0.2,0,0.3c0,0.1,0,0.3,0,0.4s0.1,0.2,0.1,0.3c0.1,0.1,0.1,0.1,0.2,0.2c0.1,0,0.2,0.1,0.3,0.1c0.1,0,0.2,0,0.3-0.1
					c0.1,0,0.2-0.1,0.2-0.2s0.1-0.2,0.1-0.3C131.6,101,131.6,100.9,131.6,100.8z"/>
				<path class="st13" d="M134.4,101.9c-0.1,0-0.2,0.1-0.3,0.1c-0.1,0-0.2,0-0.3,0c-0.4,0-0.7-0.1-0.9-0.3c-0.2-0.2-0.3-0.5-0.3-0.9
					c0-0.2,0-0.4,0.1-0.5s0.1-0.3,0.2-0.4c0.1-0.1,0.2-0.2,0.4-0.3c0.1-0.1,0.3-0.1,0.5-0.1c0.1,0,0.2,0,0.3,0s0.2,0,0.3,0.1v0.4
					c-0.1-0.1-0.2-0.1-0.3-0.1s-0.2,0-0.3,0c-0.1,0-0.2,0-0.3,0.1c-0.1,0-0.2,0.1-0.2,0.2c-0.1,0.1-0.1,0.2-0.2,0.3
					c0,0.1-0.1,0.2-0.1,0.4c0,0.3,0.1,0.5,0.2,0.6c0.1,0.1,0.3,0.2,0.6,0.2c0.1,0,0.2,0,0.3,0c0.1,0,0.2-0.1,0.3-0.1L134.4,101.9
					L134.4,101.9z"/>
				<path class="st13" d="M137.3,99.9h-0.9v2H136v-2h-0.9v-0.4h2.2L137.3,99.9L137.3,99.9z"/>
				<path class="st13" d="M138.3,100.5c0,0,0.1,0,0.1,0s0.1,0,0.1,0c0,0,0.1,0,0.1,0c0,0,0.1,0,0.1,0c0.4,0,0.6,0.1,0.8,0.2
					s0.3,0.3,0.3,0.6c0,0.3-0.1,0.5-0.3,0.6c-0.2,0.1-0.5,0.2-0.8,0.2c-0.2,0-0.3,0-0.5,0c-0.1,0-0.3,0-0.4,0v-2.4h0.4L138.3,100.5
					L138.3,100.5z M139.5,101.2c0-0.1,0-0.1,0-0.2c0-0.1-0.1-0.1-0.1-0.1s-0.1-0.1-0.2-0.1c-0.1,0-0.2,0-0.3,0c-0.1,0-0.2,0-0.2,0
					c-0.1,0-0.2,0-0.3,0v0.8c0.1,0,0.2,0,0.2,0s0.2,0,0.2,0c0.1,0,0.2,0,0.3,0s0.2,0,0.2-0.1c0.1,0,0.1-0.1,0.1-0.1
					C139.4,101.4,139.5,101.3,139.5,101.2z"/>
			</g>
			<polygon class="st3" points="210.6,106.1 176.1,106.1 181.4,100.5 176.1,94.9 210.6,94.9 215.8,100.5 			"/>
			<g>
				<rect x="181.7" y="98.6" class="st12" width="32.9" height="4.7"/>
				<path class="st13" d="M184.3,101.6l0,1h-0.4V102h-1.7v0.7h-0.4l0-1h0c0.1,0,0.1,0,0.2,0c0.1,0,0.1-0.1,0.1-0.2s0.1-0.2,0.1-0.3
					c0-0.1,0.1-0.3,0.1-0.5c0-0.2,0.1-0.4,0.1-0.7c0-0.3,0-0.6,0.1-1h1.5v2.7H184.3z M183.5,99.2h-0.7c0,0.3,0,0.6-0.1,0.9
					s-0.1,0.5-0.1,0.7c0,0.2-0.1,0.4-0.1,0.5c-0.1,0.1-0.1,0.2-0.2,0.3h1.1L183.5,99.2L183.5,99.2z"/>
				<path class="st13" d="M186.7,100.6c0,0.1,0,0.1,0,0.1c0,0,0,0.1,0,0.1h-1.7c0,0.2,0.1,0.4,0.2,0.6c0.1,0.1,0.3,0.2,0.6,0.2
					c0.1,0,0.1,0,0.2,0c0.1,0,0.1,0,0.2,0c0.1,0,0.1,0,0.2,0s0.1,0,0.2,0v0.3c-0.1,0-0.2,0.1-0.4,0.1c-0.1,0-0.3,0-0.4,0
					c-0.2,0-0.4,0-0.5-0.1c-0.1-0.1-0.3-0.1-0.4-0.2c-0.1-0.1-0.2-0.2-0.2-0.4c0-0.2-0.1-0.3-0.1-0.5c0-0.2,0-0.3,0.1-0.5
					s0.1-0.3,0.2-0.4c0.1-0.1,0.2-0.2,0.3-0.3c0.1-0.1,0.3-0.1,0.5-0.1c0.2,0,0.3,0,0.4,0.1c0.1,0.1,0.2,0.1,0.3,0.2
					c0.1,0.1,0.2,0.2,0.2,0.3C186.7,100.3,186.7,100.5,186.7,100.6z M186.3,100.6c0-0.1,0-0.2,0-0.3c0-0.1-0.1-0.2-0.1-0.2
					c-0.1-0.1-0.1-0.1-0.2-0.1s-0.2-0.1-0.3-0.1c-0.1,0-0.2,0-0.2,0.1c-0.1,0-0.1,0.1-0.2,0.1c-0.1,0.1-0.1,0.1-0.1,0.2
					c0,0.1-0.1,0.2-0.1,0.3H186.3z"/>
				<path class="st13" d="M187.5,101.3c0.1-0.1,0.1-0.2,0.2-0.3c0.1-0.1,0.1-0.1,0.2-0.1c-0.1,0-0.2-0.1-0.2-0.1
					c-0.1,0-0.1-0.1-0.2-0.1s-0.1-0.1-0.1-0.2c0-0.1,0-0.1,0-0.2c0-0.1,0-0.2,0.1-0.3c0-0.1,0.1-0.2,0.2-0.2
					c0.1-0.1,0.2-0.1,0.3-0.2s0.3-0.1,0.5-0.1c0.1,0,0.3,0,0.4,0c0.1,0,0.3,0,0.4,0v2.4h-0.4V101h-0.4c-0.1,0-0.1,0-0.2,0
					c-0.1,0-0.1,0-0.2,0.1c0,0-0.1,0.1-0.1,0.1c0,0-0.1,0.1-0.1,0.2l-0.3,0.6h-0.5L187.5,101.3z M187.9,100.3c0,0.1,0,0.2,0.1,0.3
					c0.1,0.1,0.2,0.1,0.4,0.1h0.4v-0.8c-0.1,0-0.1,0-0.2,0s-0.1,0-0.2,0c-0.1,0-0.2,0-0.3,0c-0.1,0-0.1,0-0.2,0.1
					c0,0-0.1,0.1-0.1,0.1S187.9,100.2,187.9,100.3z"/>
				<path class="st13" d="M192.1,99.9h-0.9v2h-0.4v-2h-0.9v-0.4h2.2L192.1,99.9L192.1,99.9z"/>
				<path class="st13" d="M194.6,100.6c0,0.1,0,0.1,0,0.1c0,0,0,0.1,0,0.1H193c0,0.2,0.1,0.4,0.2,0.6c0.1,0.1,0.3,0.2,0.6,0.2
					c0.1,0,0.1,0,0.2,0c0.1,0,0.1,0,0.2,0c0.1,0,0.1,0,0.2,0s0.1,0,0.2,0v0.3c-0.1,0-0.2,0.1-0.4,0.1c-0.1,0-0.3,0-0.4,0
					c-0.2,0-0.4,0-0.5-0.1c-0.1-0.1-0.3-0.1-0.4-0.2c-0.1-0.1-0.2-0.2-0.2-0.4c0-0.2-0.1-0.3-0.1-0.5c0-0.2,0-0.3,0.1-0.5
					s0.1-0.3,0.2-0.4c0.1-0.1,0.2-0.2,0.3-0.3c0.1-0.1,0.3-0.1,0.5-0.1c0.2,0,0.3,0,0.4,0.1c0.1,0.1,0.2,0.1,0.3,0.2
					c0.1,0.1,0.2,0.2,0.2,0.3C194.6,100.3,194.6,100.5,194.6,100.6z M194.2,100.6c0-0.1,0-0.2,0-0.3c0-0.1-0.1-0.2-0.1-0.2
					c-0.1-0.1-0.1-0.1-0.2-0.1s-0.2-0.1-0.3-0.1c-0.1,0-0.2,0-0.2,0.1c-0.1,0-0.1,0.1-0.2,0.1c-0.1,0.1-0.1,0.1-0.1,0.2
					c0,0.1-0.1,0.2-0.1,0.3H194.2z"/>
				<path class="st13" d="M197.2,102h-0.4v-2h-0.7c0,0.3,0,0.6-0.1,0.8c0,0.2-0.1,0.4-0.1,0.6c-0.1,0.2-0.1,0.3-0.2,0.4
					c-0.1,0.1-0.1,0.2-0.2,0.2c-0.1,0-0.2,0.1-0.2,0.1c-0.1,0-0.2,0-0.3,0l0-0.3c0.1,0,0.1,0,0.2,0s0.1,0,0.2-0.1
					c0,0,0.1-0.1,0.1-0.2c0-0.1,0.1-0.2,0.1-0.4s0.1-0.3,0.1-0.6s0-0.5,0.1-0.8h1.5L197.2,102L197.2,102z"/>
				<path class="st13" d="M198.4,100.5c0,0,0.1,0,0.1,0s0.1,0,0.1,0c0,0,0.1,0,0.1,0c0,0,0.1,0,0.1,0c0.4,0,0.6,0.1,0.8,0.2
					s0.3,0.3,0.3,0.6c0,0.3-0.1,0.5-0.3,0.6c-0.2,0.1-0.5,0.2-0.8,0.2c-0.2,0-0.3,0-0.5,0c-0.1,0-0.3,0-0.4,0v-2.4h0.4L198.4,100.5
					L198.4,100.5z M199.5,101.2c0-0.1,0-0.1,0-0.2c0-0.1-0.1-0.1-0.1-0.1s-0.1-0.1-0.2-0.1c-0.1,0-0.2,0-0.3,0c-0.1,0-0.2,0-0.2,0
					c-0.1,0-0.2,0-0.3,0v0.8c0.1,0,0.2,0,0.2,0s0.2,0,0.2,0c0.1,0,0.2,0,0.3,0s0.2,0,0.2-0.1c0.1,0,0.1-0.1,0.1-0.1
					C199.5,101.4,199.5,101.3,199.5,101.2z"/>
				<path class="st13" d="M202.5,102h-0.4v-1.1H201v1.1h-0.4v-2.4h0.4v1h1.1v-1h0.4V102z"/>
				<path class="st13" d="M205.3,100.8c0,0.2,0,0.4-0.1,0.5c-0.1,0.2-0.1,0.3-0.2,0.4c-0.1,0.1-0.2,0.2-0.4,0.3
					c-0.1,0.1-0.3,0.1-0.5,0.1c-0.2,0-0.3,0-0.5-0.1c-0.1-0.1-0.2-0.1-0.3-0.2s-0.2-0.2-0.2-0.4c0-0.2-0.1-0.3-0.1-0.5
					c0-0.2,0-0.4,0.1-0.5s0.1-0.3,0.2-0.4s0.2-0.2,0.4-0.3c0.1-0.1,0.3-0.1,0.5-0.1c0.2,0,0.3,0,0.5,0.1c0.1,0.1,0.2,0.1,0.3,0.2
					c0.1,0.1,0.2,0.2,0.2,0.4C205.2,100.4,205.3,100.6,205.3,100.8z M204.8,100.8c0-0.1,0-0.3,0-0.4s-0.1-0.2-0.1-0.3
					c-0.1-0.1-0.1-0.1-0.2-0.2c-0.1,0-0.2-0.1-0.3-0.1c-0.1,0-0.2,0-0.3,0.1c-0.1,0-0.2,0.1-0.2,0.2c-0.1,0.1-0.1,0.2-0.1,0.3
					c0,0.1,0,0.2,0,0.3c0,0.1,0,0.3,0,0.4s0.1,0.2,0.1,0.3c0.1,0.1,0.1,0.1,0.2,0.2c0.1,0,0.2,0.1,0.3,0.1c0.1,0,0.2,0,0.3-0.1
					c0.1,0,0.2-0.1,0.2-0.2s0.1-0.2,0.1-0.3C204.8,101,204.8,100.9,204.8,100.8z"/>
				<path class="st13" d="M207.7,101.9c-0.1,0-0.2,0.1-0.3,0.1c-0.1,0-0.2,0-0.3,0c-0.4,0-0.7-0.1-0.9-0.3c-0.2-0.2-0.3-0.5-0.3-0.9
					c0-0.2,0-0.4,0.1-0.5s0.1-0.3,0.2-0.4c0.1-0.1,0.2-0.2,0.4-0.3c0.1-0.1,0.3-0.1,0.5-0.1c0.1,0,0.2,0,0.3,0s0.2,0,0.3,0.1v0.4
					c-0.1-0.1-0.2-0.1-0.3-0.1s-0.2,0-0.3,0c-0.1,0-0.2,0-0.3,0.1c-0.1,0-0.2,0.1-0.2,0.2c-0.1,0.1-0.1,0.2-0.2,0.3
					c0,0.1-0.1,0.2-0.1,0.4c0,0.3,0.1,0.5,0.2,0.6c0.1,0.1,0.3,0.2,0.6,0.2c0.1,0,0.2,0,0.3,0c0.1,0,0.2-0.1,0.3-0.1L207.7,101.9
					L207.7,101.9z"/>
				<path class="st13" d="M210.5,99.9h-0.9v2h-0.4v-2h-0.9v-0.4h2.2L210.5,99.9L210.5,99.9z"/>
				<path class="st13" d="M211.6,100.5c0,0,0.1,0,0.1,0s0.1,0,0.1,0c0,0,0.1,0,0.1,0c0,0,0.1,0,0.1,0c0.4,0,0.6,0.1,0.8,0.2
					s0.3,0.3,0.3,0.6c0,0.3-0.1,0.5-0.3,0.6c-0.2,0.1-0.5,0.2-0.8,0.2c-0.2,0-0.3,0-0.5,0c-0.1,0-0.3,0-0.4,0v-2.4h0.4L211.6,100.5
					L211.6,100.5z M212.7,101.2c0-0.1,0-0.1,0-0.2c0-0.1-0.1-0.1-0.1-0.1s-0.1-0.1-0.2-0.1c-0.1,0-0.2,0-0.3,0c-0.1,0-0.2,0-0.2,0
					c-0.1,0-0.2,0-0.3,0v0.8c0.1,0,0.2,0,0.2,0s0.2,0,0.2,0c0.1,0,0.2,0,0.3,0s0.2,0,0.2-0.1c0.1,0,0.1-0.1,0.1-0.1
					C212.7,101.4,212.7,101.3,212.7,101.2z"/>
			</g>
			<g>
				<rect x="157.8" y="25.1" class="st12" width="24.9" height="8"/>
				<path class="st13" d="M162.1,28.5h-0.5l-1.1-1.5v1.5h-0.4v-3.1h0.4v1.4l1.1-1.4h0.5l-1.2,1.5L162.1,28.5z"/>
				<path class="st13" d="M164.8,27.3c0,0.2,0,0.4-0.1,0.5s-0.1,0.3-0.2,0.4c-0.1,0.1-0.2,0.2-0.4,0.3c-0.1,0.1-0.3,0.1-0.5,0.1
					c-0.2,0-0.3,0-0.5-0.1c-0.1-0.1-0.2-0.1-0.3-0.2s-0.2-0.2-0.2-0.4c0-0.2-0.1-0.3-0.1-0.5c0-0.2,0-0.4,0.1-0.5s0.1-0.3,0.2-0.4
					s0.2-0.2,0.4-0.3c0.1-0.1,0.3-0.1,0.5-0.1c0.2,0,0.3,0,0.5,0.1c0.1,0.1,0.2,0.1,0.3,0.2c0.1,0.1,0.2,0.2,0.2,0.4
					C164.7,26.9,164.8,27.1,164.8,27.3z M164.3,27.3c0-0.1,0-0.3,0-0.4s-0.1-0.2-0.1-0.3c-0.1-0.1-0.1-0.1-0.2-0.2
					c-0.1,0-0.2-0.1-0.3-0.1c-0.1,0-0.2,0-0.3,0.1c-0.1,0-0.2,0.1-0.2,0.2c-0.1,0.1-0.1,0.2-0.1,0.3c0,0.1,0,0.2,0,0.3
					c0,0.1,0,0.3,0,0.4s0.1,0.2,0.1,0.3c0.1,0.1,0.1,0.1,0.2,0.2c0.1,0,0.2,0.1,0.3,0.1c0.1,0,0.2,0,0.3-0.1c0.1,0,0.2-0.1,0.2-0.2
					s0.1-0.2,0.1-0.3C164.3,27.5,164.3,27.4,164.3,27.3z"/>
				<path class="st13" d="M167.2,28.5h-0.4v-1.1h-1.1v1.1h-0.4v-2.4h0.4v1h1.1v-1h0.4V28.5z"/>
				<path class="st13" d="M170,27.2c0,0.1,0,0.1,0,0.1c0,0,0,0.1,0,0.1h-1.7c0,0.2,0.1,0.4,0.2,0.6c0.1,0.1,0.3,0.2,0.6,0.2
					c0.1,0,0.1,0,0.2,0c0.1,0,0.1,0,0.2,0c0.1,0,0.1,0,0.2,0s0.1,0,0.2,0v0.3c-0.1,0-0.2,0.1-0.4,0.1c-0.1,0-0.3,0-0.4,0
					c-0.2,0-0.4,0-0.5-0.1c-0.1-0.1-0.3-0.1-0.4-0.2c-0.1-0.1-0.2-0.2-0.2-0.4c0-0.2-0.1-0.3-0.1-0.5c0-0.2,0-0.3,0.1-0.5
					s0.1-0.3,0.2-0.4c0.1-0.1,0.2-0.2,0.3-0.3s0.3-0.1,0.5-0.1c0.2,0,0.3,0,0.4,0.1c0.1,0.1,0.2,0.1,0.3,0.2
					c0.1,0.1,0.2,0.2,0.2,0.3C169.9,26.9,170,27,170,27.2z M169.5,27.1c0-0.1,0-0.2,0-0.3c0-0.1-0.1-0.2-0.1-0.2
					c-0.1-0.1-0.1-0.1-0.2-0.1s-0.2-0.1-0.3-0.1c-0.1,0-0.2,0-0.2,0.1c-0.1,0-0.1,0.1-0.2,0.1c-0.1,0.1-0.1,0.1-0.1,0.2
					c0,0.1-0.1,0.2-0.1,0.3H169.5z"/>
				<path class="st13" d="M172.1,27.6h-0.5c-0.4,0-0.6-0.1-0.8-0.2c-0.2-0.1-0.3-0.3-0.3-0.6v-0.7h0.4v0.6c0,0.1,0,0.2,0,0.2
					c0,0.1,0.1,0.1,0.1,0.2c0.1,0,0.1,0.1,0.2,0.1c0.1,0,0.2,0,0.3,0h0.4v-1.1h0.4v2.4h-0.4L172.1,27.6L172.1,27.6z"/>
				<path class="st13" d="M175.2,28.5h-0.4v-1.1h-1.1v1.1h-0.4v-2.4h0.4v1h1.1v-1h0.4V28.5z"/>
				<path class="st13" d="M176.1,27c0.1,0,0.1,0,0.2,0c0,0,0.1,0,0.2,0c0.1,0,0.3,0,0.4,0.1c0.1,0,0.2,0.1,0.3,0.1
					c0.1,0.1,0.1,0.1,0.2,0.2c0,0.1,0.1,0.2,0.1,0.3c0,0.1,0,0.2-0.1,0.3s-0.1,0.2-0.2,0.2s-0.2,0.1-0.3,0.1s-0.2,0-0.4,0
					c-0.1,0-0.2,0-0.3,0c-0.1,0-0.2,0-0.3,0v-2.4h0.4L176.1,27L176.1,27z M176.9,27.8c0-0.1,0-0.2-0.1-0.3s-0.2-0.1-0.4-0.1
					c0,0-0.1,0-0.1,0s-0.1,0-0.1,0v0.8c0.1,0,0.1,0,0.1,0c0,0,0.1,0,0.1,0c0.1,0,0.2,0,0.2,0s0.1-0.1,0.1-0.1c0,0,0.1-0.1,0.1-0.1
					C176.9,27.9,176.9,27.8,176.9,27.8z M177.6,28.5v-2.4h0.4v2.4H177.6z"/>
				<path class="st13" d="M179,26.1v1.7l1-1.7h0.4v2.4H180v-1.7l-1,1.7h-0.4v-2.4H179z M180.2,25.2c0,0.1,0,0.2-0.1,0.2
					s-0.1,0.1-0.1,0.2c-0.1,0.1-0.1,0.1-0.2,0.1c-0.1,0-0.2,0-0.3,0c-0.1,0-0.2,0-0.3,0c-0.1,0-0.2-0.1-0.2-0.1
					c-0.1-0.1-0.1-0.1-0.1-0.2s0-0.2,0-0.2h0.4c0,0,0,0.1,0,0.1c0,0,0,0.1,0.1,0.1c0,0,0.1,0.1,0.1,0.1c0,0,0.1,0,0.2,0
					c0.1,0,0.1,0,0.2,0c0,0,0.1,0,0.1-0.1c0,0,0-0.1,0.1-0.1c0,0,0-0.1,0-0.1H180.2z"/>
				<path class="st13" d="M163.3,32.3h-0.4v-2h-1.1v2h-0.4v-2.4h1.9L163.3,32.3L163.3,32.3z"/>
				<path class="st13" d="M166,31.1c0,0.2,0,0.4-0.1,0.6c-0.1,0.2-0.1,0.3-0.2,0.4c-0.1,0.1-0.2,0.2-0.4,0.2s-0.3,0.1-0.5,0.1
					c-0.1,0-0.1,0-0.2,0s-0.1,0-0.2,0v1H164v-3.3h0.4l0,0.4c0.1-0.2,0.2-0.3,0.4-0.3s0.3-0.1,0.4-0.1c0.1,0,0.3,0,0.4,0.1
					s0.2,0.1,0.3,0.2c0.1,0.1,0.1,0.2,0.2,0.4C166,30.7,166,30.9,166,31.1z M165.6,31.1c0-0.1,0-0.2,0-0.3c0-0.1,0-0.2-0.1-0.3
					s-0.1-0.1-0.1-0.2c-0.1,0-0.1-0.1-0.2-0.1c-0.1,0-0.1,0-0.2,0c-0.1,0-0.1,0-0.2,0.1c-0.1,0-0.1,0.1-0.2,0.2
					c-0.1,0.1-0.1,0.1-0.2,0.2v1.2c0.1,0,0.2,0.1,0.2,0.1c0.1,0,0.2,0,0.2,0c0.2,0,0.4-0.1,0.5-0.2S165.6,31.4,165.6,31.1z"/>
				<path class="st13" d="M168.7,31.1c0,0.2,0,0.4-0.1,0.5s-0.1,0.3-0.2,0.4c-0.1,0.1-0.2,0.2-0.4,0.3c-0.1,0.1-0.3,0.1-0.5,0.1
					c-0.2,0-0.3,0-0.5-0.1c-0.1-0.1-0.2-0.1-0.3-0.2s-0.2-0.2-0.2-0.4c0-0.2-0.1-0.3-0.1-0.5c0-0.2,0-0.4,0.1-0.5s0.1-0.3,0.2-0.4
					c0.1-0.1,0.2-0.2,0.4-0.3c0.1-0.1,0.3-0.1,0.5-0.1c0.2,0,0.3,0,0.5,0.1c0.1,0.1,0.2,0.1,0.3,0.2c0.1,0.1,0.2,0.2,0.2,0.4
					C168.7,30.7,168.7,30.9,168.7,31.1z M168.3,31.1c0-0.1,0-0.3,0-0.4s-0.1-0.2-0.1-0.3c-0.1-0.1-0.1-0.1-0.2-0.2
					c-0.1,0-0.2-0.1-0.3-0.1c-0.1,0-0.2,0-0.3,0.1c-0.1,0-0.2,0.1-0.2,0.2c-0.1,0.1-0.1,0.2-0.1,0.3c0,0.1,0,0.2,0,0.3
					c0,0.1,0,0.3,0,0.4s0.1,0.2,0.1,0.3c0.1,0.1,0.1,0.1,0.2,0.2c0.1,0,0.2,0.1,0.3,0.1c0.1,0,0.2,0,0.3-0.1c0.1,0,0.2-0.1,0.2-0.2
					s0.1-0.2,0.1-0.3S168.3,31.2,168.3,31.1z"/>
				<path class="st13" d="M171.5,31.9l0,1h-0.4v-0.6h-1.7v0.6H169l0-1h0c0.1,0,0.1,0,0.2,0c0.1,0,0.1-0.1,0.1-0.1
					c0-0.1,0.1-0.1,0.1-0.2s0.1-0.2,0.1-0.4c0-0.1,0.1-0.3,0.1-0.5c0-0.2,0-0.5,0.1-0.8h1.5v2C171.2,31.9,171.5,31.9,171.5,31.9z
					 M170.7,30.3h-0.7c0,0.3,0,0.5-0.1,0.7c0,0.2-0.1,0.4-0.1,0.5s-0.1,0.2-0.1,0.3c0,0.1-0.1,0.1-0.1,0.2h1.1L170.7,30.3
					L170.7,30.3z"/>
				<path class="st13" d="M174,29.9l-0.8,2.1c-0.1,0.2-0.2,0.4-0.3,0.6c-0.1,0.2-0.2,0.3-0.3,0.4c-0.1,0.1-0.2,0.2-0.3,0.2
					c-0.1,0-0.3,0.1-0.4,0.1c0,0-0.1,0-0.1,0c0,0-0.1,0-0.1,0v-0.4c0,0,0.1,0,0.1,0c0,0,0.1,0,0.1,0c0.1,0,0.1,0,0.2,0
					c0.1,0,0.1-0.1,0.2-0.1s0.1-0.1,0.2-0.2c0.1-0.1,0.1-0.2,0.2-0.3l-0.9-2.4h0.5l0.6,1.6l0.1,0.4l0.1-0.4l0.6-1.6L174,29.9
					L174,29.9z"/>
				<path class="st13" d="M176.7,32.3h-0.6L175,31v1.3h-0.4v-2.4h0.4V31l1.1-1.1h0.5l-1.1,1.1L176.7,32.3z"/>
				<path class="st13" d="M179.3,30.3h-0.9v2H178v-2h-0.9v-0.4h2.2L179.3,30.3L179.3,30.3z"/>
			</g>
			<g>
				<polygon class="st5" points="183.7,47.3 157.8,47.3 152.7,42.1 157.8,36.1 183.7,36.1 188.8,41.3 				"/>
				<g>
					<polyline class="st6" points="184.2,46.6 183.7,47.3 182.8,47.3 					"/>
					<line class="st7" x1="181.2" y1="47.3" x2="159.5" y2="47.3"/>
					<polyline class="st6" points="158.7,47.3 157.8,47.3 157.2,46.6 					"/>
					<line class="st14" x1="155.9" y1="45.3" x2="154" y2="43.3"/>
					<polyline class="st6" points="153.3,42.7 152.7,42.1 153.3,41.4 					"/>
					<line class="st15" x1="154.6" y1="39.9" x2="156.6" y2="37.5"/>
					<polyline class="st6" points="157.3,36.7 157.8,36.1 158.7,36.1 					"/>
					<line class="st7" x1="160.3" y1="36.1" x2="182" y2="36.1"/>
					<polyline class="st6" points="182.9,36.1 183.7,36.1 184.3,36.7 					"/>
					<line class="st16" x1="185.6" y1="38" x2="187.6" y2="40"/>
					<polyline class="st6" points="188.2,40.7 188.8,41.3 188.3,41.9 					"/>
					<line class="st11" x1="186.9" y1="43.5" x2="184.9" y2="45.8"/>
				</g>
			</g>
			<g>
				<rect x="157.8" y="37.7" class="st12" width="24.9" height="8"/>
				<path class="st13" d="M162.1,41h-0.5l-1.1-1.5V41h-0.4v-3.1h0.4v1.4l1.1-1.4h0.5l-1.2,1.5L162.1,41z"/>
				<path class="st13" d="M164.8,39.8c0,0.2,0,0.4-0.1,0.5s-0.1,0.3-0.2,0.4c-0.1,0.1-0.2,0.2-0.4,0.3c-0.1,0.1-0.3,0.1-0.5,0.1
					c-0.2,0-0.3,0-0.5-0.1c-0.1-0.1-0.2-0.1-0.3-0.2s-0.2-0.2-0.2-0.4c0-0.2-0.1-0.3-0.1-0.5c0-0.2,0-0.4,0.1-0.5s0.1-0.3,0.2-0.4
					s0.2-0.2,0.4-0.3c0.1-0.1,0.3-0.1,0.5-0.1c0.2,0,0.3,0,0.5,0.1c0.1,0.1,0.2,0.1,0.3,0.2c0.1,0.1,0.2,0.2,0.2,0.4
					C164.7,39.4,164.8,39.6,164.8,39.8z M164.3,39.8c0-0.1,0-0.3,0-0.4s-0.1-0.2-0.1-0.3c-0.1-0.1-0.1-0.1-0.2-0.2
					c-0.1,0-0.2-0.1-0.3-0.1c-0.1,0-0.2,0-0.3,0.1c-0.1,0-0.2,0.1-0.2,0.2c-0.1,0.1-0.1,0.2-0.1,0.3c0,0.1,0,0.2,0,0.3
					c0,0.1,0,0.3,0,0.4s0.1,0.2,0.1,0.3c0.1,0.1,0.1,0.1,0.2,0.2c0.1,0,0.2,0.1,0.3,0.1c0.1,0,0.2,0,0.3-0.1c0.1,0,0.2-0.1,0.2-0.2
					s0.1-0.2,0.1-0.3C164.3,40,164.3,39.9,164.3,39.8z"/>
				<path class="st13" d="M167.2,41h-0.4V40h-1.1V41h-0.4v-2.4h0.4v1h1.1v-1h0.4V41z"/>
				<path class="st13" d="M170,39.7c0,0.1,0,0.1,0,0.1c0,0,0,0.1,0,0.1h-1.7c0,0.2,0.1,0.4,0.2,0.6c0.1,0.1,0.3,0.2,0.6,0.2
					c0.1,0,0.1,0,0.2,0c0.1,0,0.1,0,0.2,0c0.1,0,0.1,0,0.2,0s0.1,0,0.2,0v0.3c-0.1,0-0.2,0.1-0.4,0.1c-0.1,0-0.3,0-0.4,0
					c-0.2,0-0.4,0-0.5-0.1c-0.1-0.1-0.3-0.1-0.4-0.2c-0.1-0.1-0.2-0.2-0.2-0.4c0-0.2-0.1-0.3-0.1-0.5c0-0.2,0-0.3,0.1-0.5
					s0.1-0.3,0.2-0.4c0.1-0.1,0.2-0.2,0.3-0.3s0.3-0.1,0.5-0.1c0.2,0,0.3,0,0.4,0.1c0.1,0.1,0.2,0.1,0.3,0.2
					c0.1,0.1,0.2,0.2,0.2,0.3C169.9,39.4,170,39.5,170,39.7z M169.5,39.6c0-0.1,0-0.2,0-0.3c0-0.1-0.1-0.2-0.1-0.2
					c-0.1-0.1-0.1-0.1-0.2-0.1s-0.2-0.1-0.3-0.1c-0.1,0-0.2,0-0.2,0.1c-0.1,0-0.1,0.1-0.2,0.1c-0.1,0.1-0.1,0.1-0.1,0.2
					c0,0.1-0.1,0.2-0.1,0.3C168.3,39.6,169.5,39.6,169.5,39.6z"/>
				<path class="st13" d="M172.1,40.1h-0.5c-0.4,0-0.6-0.1-0.8-0.2c-0.2-0.1-0.3-0.3-0.3-0.6v-0.7h0.4v0.6c0,0.1,0,0.2,0,0.2
					c0,0.1,0.1,0.1,0.1,0.2c0.1,0,0.1,0.1,0.2,0.1c0.1,0,0.2,0,0.3,0h0.4v-1.1h0.4V41h-0.4L172.1,40.1L172.1,40.1z"/>
				<path class="st13" d="M175.2,41h-0.4V40h-1.1V41h-0.4v-2.4h0.4v1h1.1v-1h0.4V41z"/>
				<path class="st13" d="M176.1,39.5c0.1,0,0.1,0,0.2,0c0,0,0.1,0,0.2,0c0.1,0,0.3,0,0.4,0.1c0.1,0,0.2,0.1,0.3,0.1
					c0.1,0.1,0.1,0.1,0.2,0.2c0,0.1,0.1,0.2,0.1,0.3c0,0.1,0,0.2-0.1,0.3s-0.1,0.2-0.2,0.2s-0.2,0.1-0.3,0.1s-0.2,0-0.4,0
					c-0.1,0-0.2,0-0.3,0c-0.1,0-0.2,0-0.3,0v-2.4h0.4L176.1,39.5L176.1,39.5z M176.9,40.3c0-0.1,0-0.2-0.1-0.3s-0.2-0.1-0.4-0.1
					c0,0-0.1,0-0.1,0s-0.1,0-0.1,0v0.8c0.1,0,0.1,0,0.1,0c0,0,0.1,0,0.1,0c0.1,0,0.2,0,0.2,0s0.1-0.1,0.1-0.1c0,0,0.1-0.1,0.1-0.1
					C176.9,40.4,176.9,40.3,176.9,40.3z M177.6,41v-2.4h0.4V41H177.6z"/>
				<path class="st13" d="M179,38.6v1.7l1-1.7h0.4V41H180v-1.7l-1,1.7h-0.4v-2.4H179z M180.2,37.7c0,0.1,0,0.2-0.1,0.2
					s-0.1,0.1-0.1,0.2c-0.1,0.1-0.1,0.1-0.2,0.1c-0.1,0-0.2,0-0.3,0c-0.1,0-0.2,0-0.3,0c-0.1,0-0.2-0.1-0.2-0.1
					c-0.1-0.1-0.1-0.1-0.1-0.2s0-0.2,0-0.2h0.4c0,0,0,0.1,0,0.1c0,0,0,0.1,0.1,0.1c0,0,0.1,0.1,0.1,0.1c0,0,0.1,0,0.2,0
					c0.1,0,0.1,0,0.2,0c0,0,0.1,0,0.1-0.1c0,0,0-0.1,0.1-0.1c0,0,0-0.1,0-0.1H180.2z"/>
				<path class="st13" d="M163.3,44.8h-0.4v-2h-1.1v2h-0.4v-2.4h1.9L163.3,44.8L163.3,44.8z"/>
				<path class="st13" d="M166,43.6c0,0.2,0,0.4-0.1,0.6c-0.1,0.2-0.1,0.3-0.2,0.4c-0.1,0.1-0.2,0.2-0.4,0.2s-0.3,0.1-0.5,0.1
					c-0.1,0-0.1,0-0.2,0s-0.1,0-0.2,0v1H164v-3.3h0.4l0,0.4c0.1-0.2,0.2-0.3,0.4-0.3s0.3-0.1,0.4-0.1c0.1,0,0.3,0,0.4,0.1
					s0.2,0.1,0.3,0.2c0.1,0.1,0.1,0.2,0.2,0.4C166,43.2,166,43.4,166,43.6z M165.6,43.6c0-0.1,0-0.2,0-0.3c0-0.1,0-0.2-0.1-0.3
					s-0.1-0.1-0.1-0.2c-0.1,0-0.1-0.1-0.2-0.1c-0.1,0-0.1,0-0.2,0c-0.1,0-0.1,0-0.2,0.1c-0.1,0-0.1,0.1-0.2,0.2
					c-0.1,0.1-0.1,0.1-0.2,0.2v1.2c0.1,0,0.2,0.1,0.2,0.1s0.2,0,0.2,0c0.2,0,0.4-0.1,0.5-0.2S165.6,43.9,165.6,43.6z"/>
				<path class="st13" d="M168.7,43.6c0,0.2,0,0.4-0.1,0.5s-0.1,0.3-0.2,0.4c-0.1,0.1-0.2,0.2-0.4,0.3c-0.1,0.1-0.3,0.1-0.5,0.1
					c-0.2,0-0.3,0-0.5-0.1c-0.1-0.1-0.2-0.1-0.3-0.2s-0.2-0.2-0.2-0.4c0-0.2-0.1-0.3-0.1-0.5c0-0.2,0-0.4,0.1-0.5s0.1-0.3,0.2-0.4
					s0.2-0.2,0.4-0.3c0.1-0.1,0.3-0.1,0.5-0.1c0.2,0,0.3,0,0.5,0.1c0.1,0.1,0.2,0.1,0.3,0.2c0.1,0.1,0.2,0.2,0.2,0.4
					C168.7,43.2,168.7,43.4,168.7,43.6z M168.3,43.6c0-0.1,0-0.3,0-0.4s-0.1-0.2-0.1-0.3c-0.1-0.1-0.1-0.1-0.2-0.2
					c-0.1,0-0.2-0.1-0.3-0.1c-0.1,0-0.2,0-0.3,0.1c-0.1,0-0.2,0.1-0.2,0.2c-0.1,0.1-0.1,0.2-0.1,0.3c0,0.1,0,0.2,0,0.3
					c0,0.1,0,0.3,0,0.4s0.1,0.2,0.1,0.3c0.1,0.1,0.1,0.1,0.2,0.2c0.1,0,0.2,0.1,0.3,0.1c0.1,0,0.2,0,0.3-0.1c0.1,0,0.2-0.1,0.2-0.2
					s0.1-0.2,0.1-0.3C168.3,43.9,168.3,43.7,168.3,43.6z"/>
				<path class="st13" d="M171.5,44.5l0,1h-0.4v-0.6h-1.7v0.6H169l0-1h0c0.1,0,0.1,0,0.2,0c0.1,0,0.1-0.1,0.1-0.1
					c0-0.1,0.1-0.1,0.1-0.2s0.1-0.2,0.1-0.4c0-0.1,0.1-0.3,0.1-0.5c0-0.2,0-0.5,0.1-0.8h1.5v2C171.2,44.5,171.5,44.5,171.5,44.5z
					 M170.7,42.8h-0.7c0,0.3,0,0.5-0.1,0.7c0,0.2-0.1,0.4-0.1,0.5c0,0.1-0.1,0.2-0.1,0.3c0,0.1-0.1,0.1-0.1,0.2h1.1L170.7,42.8
					L170.7,42.8z"/>
				<path class="st13" d="M174,42.4l-0.8,2.1c-0.1,0.2-0.2,0.4-0.3,0.6c-0.1,0.2-0.2,0.3-0.3,0.4c-0.1,0.1-0.2,0.2-0.3,0.2
					c-0.1,0-0.3,0.1-0.4,0.1c0,0-0.1,0-0.1,0c0,0-0.1,0-0.1,0v-0.4c0,0,0.1,0,0.1,0c0,0,0.1,0,0.1,0c0.1,0,0.1,0,0.2,0
					c0.1,0,0.1-0.1,0.2-0.1s0.1-0.1,0.2-0.2c0.1-0.1,0.1-0.2,0.2-0.3l-0.9-2.4h0.5l0.6,1.6l0.1,0.4L173,44l0.6-1.6
					C173.6,42.4,174,42.4,174,42.4z"/>
				<path class="st13" d="M176.7,44.8h-0.6l-1.1-1.3v1.3h-0.4v-2.4h0.4v1.1l1.1-1.1h0.5l-1.1,1.1L176.7,44.8z"/>
				<path class="st13" d="M179.3,42.8h-0.9v2H178v-2h-0.9v-0.4h2.2L179.3,42.8L179.3,42.8z"/>
			</g>
			<g>
				<rect x="222.2" y="98.4" class="st12" width="24.9" height="4.3"/>
				<path class="st13" d="M227.8,101.7h-0.4V99h-1.3v2.7h-0.4v-3.1h2.1L227.8,101.7L227.8,101.7z"/>
				<path class="st13" d="M230.4,100.5c0,0.2,0,0.4-0.1,0.6c-0.1,0.2-0.1,0.3-0.2,0.4c-0.1,0.1-0.2,0.2-0.4,0.2s-0.3,0.1-0.5,0.1
					c-0.1,0-0.1,0-0.2,0s-0.1,0-0.2,0v1h-0.4v-3.3h0.4l0,0.4c0.1-0.2,0.2-0.3,0.4-0.3s0.3-0.1,0.4-0.1c0.1,0,0.3,0,0.4,0.1
					s0.2,0.1,0.3,0.2c0.1,0.1,0.1,0.2,0.2,0.4C230.4,100.2,230.4,100.3,230.4,100.5z M230,100.5c0-0.1,0-0.2,0-0.3
					c0-0.1,0-0.2-0.1-0.3s-0.1-0.1-0.1-0.2c-0.1,0-0.1-0.1-0.2-0.1c-0.1,0-0.1,0-0.2,0s-0.1,0-0.2,0.1c-0.1,0-0.1,0.1-0.2,0.2
					c-0.1,0.1-0.1,0.1-0.2,0.2v1.2c0.1,0,0.2,0.1,0.2,0.1s0.2,0,0.2,0c0.2,0,0.4-0.1,0.5-0.2S230,100.8,230,100.5z"/>
				<path class="st13" d="M233.1,100.5c0,0.2,0,0.4-0.1,0.5c-0.1,0.2-0.1,0.3-0.2,0.4c-0.1,0.1-0.2,0.2-0.4,0.3
					c-0.1,0.1-0.3,0.1-0.5,0.1c-0.2,0-0.3,0-0.5-0.1c-0.1-0.1-0.2-0.1-0.3-0.2s-0.2-0.2-0.2-0.4c0-0.2-0.1-0.3-0.1-0.5
					c0-0.2,0-0.4,0.1-0.5s0.1-0.3,0.2-0.4s0.2-0.2,0.4-0.3c0.1-0.1,0.3-0.1,0.5-0.1c0.2,0,0.3,0,0.5,0.1c0.1,0.1,0.2,0.1,0.3,0.2
					c0.1,0.1,0.2,0.2,0.2,0.4C233.1,100.2,233.1,100.3,233.1,100.5z M232.7,100.5c0-0.1,0-0.3,0-0.4s-0.1-0.2-0.1-0.3
					c-0.1-0.1-0.1-0.1-0.2-0.2c-0.1,0-0.2-0.1-0.3-0.1c-0.1,0-0.2,0-0.3,0.1c-0.1,0-0.2,0.1-0.2,0.2c-0.1,0.1-0.1,0.2-0.1,0.3
					c0,0.1,0,0.2,0,0.3c0,0.1,0,0.3,0,0.4s0.1,0.2,0.1,0.3c0.1,0.1,0.1,0.1,0.2,0.2c0.1,0,0.2,0.1,0.3,0.1c0.1,0,0.2,0,0.3-0.1
					c0.1,0,0.2-0.1,0.2-0.2s0.1-0.2,0.1-0.3C232.7,100.8,232.7,100.7,232.7,100.5z"/>
				<path class="st13" d="M235.9,101.4l0,1h-0.4v-0.6h-1.7v0.6h-0.4l0-1h0c0.1,0,0.1,0,0.2,0c0.1,0,0.1-0.1,0.1-0.1
					c0-0.1,0.1-0.1,0.1-0.2s0.1-0.2,0.1-0.4c0-0.1,0.1-0.3,0.1-0.5c0-0.2,0-0.5,0.1-0.8h1.5v2H235.9z M235.1,99.7h-0.7
					c0,0.3,0,0.5-0.1,0.7c0,0.2-0.1,0.4-0.1,0.5c0,0.1-0.1,0.2-0.1,0.3c0,0.1-0.1,0.1-0.1,0.2h1.1L235.1,99.7L235.1,99.7z"/>
				<path class="st13" d="M238.4,99.4l-0.8,2.1c-0.1,0.2-0.2,0.4-0.3,0.6c-0.1,0.2-0.2,0.3-0.3,0.4c-0.1,0.1-0.2,0.2-0.3,0.2
					c-0.1,0-0.3,0.1-0.4,0.1c0,0-0.1,0-0.1,0c0,0-0.1,0-0.1,0v-0.4c0,0,0.1,0,0.1,0c0,0,0.1,0,0.1,0c0.1,0,0.1,0,0.2,0
					c0.1,0,0.1-0.1,0.2-0.1s0.1-0.1,0.2-0.2c0.1-0.1,0.1-0.2,0.2-0.3l-0.9-2.4h0.5l0.6,1.6l0.1,0.4l0.1-0.4l0.6-1.6L238.4,99.4
					L238.4,99.4z"/>
				<path class="st13" d="M241.1,101.7h-0.6l-1.1-1.3v1.3H239v-2.4h0.4v1.1l1.1-1.1h0.5l-1.1,1.1L241.1,101.7z"/>
				<path class="st13" d="M243.7,99.7h-0.9v2h-0.4v-2h-0.9v-0.4h2.2L243.7,99.7L243.7,99.7z"/>
			</g>
			<g>
				<polygon class="st5" points="164.2,63 138.3,63 133.2,57.4 138.3,51.8 164.2,51.8 169.3,57.3 				"/>
				<g>
					<polyline class="st6" points="164.7,62.4 164.2,63 163.3,63 					"/>
					<line class="st17" x1="161.7" y1="63" x2="139.9" y2="63"/>
					<polyline class="st6" points="139.1,63 138.3,63 137.7,62.4 					"/>
					<line class="st18" x1="136.4" y1="60.9" x2="134.4" y2="58.8"/>
					<polyline class="st6" points="133.7,58 133.2,57.4 133.8,56.8 					"/>
					<line class="st19" x1="135.1" y1="55.3" x2="137.1" y2="53.2"/>
					<polyline class="st6" points="137.7,52.4 138.3,51.8 139.2,51.8 					"/>
					<line class="st17" x1="140.8" y1="51.8" x2="162.5" y2="51.8"/>
					<polyline class="st6" points="163.3,51.8 164.2,51.8 164.8,52.4 					"/>
					<line class="st20" x1="166.1" y1="53.9" x2="168.1" y2="56"/>
					<polyline class="st6" points="168.7,56.7 169.3,57.3 168.7,58 					"/>
					<line class="st21" x1="167.4" y1="59.4" x2="165.4" y2="61.6"/>
				</g>
			</g>
			<g>
				<rect x="138.8" y="53.4" class="st12" width="24.9" height="8"/>
				<path class="st13" d="M143.1,56.7h-0.5l-1.1-1.5v1.5h-0.4v-3.1h0.4v1.4l1.1-1.4h0.5l-1.2,1.5L143.1,56.7z"/>
				<path class="st13" d="M145.8,55.5c0,0.2,0,0.4-0.1,0.5s-0.1,0.3-0.2,0.4c-0.1,0.1-0.2,0.2-0.4,0.3c-0.1,0.1-0.3,0.1-0.5,0.1
					c-0.2,0-0.3,0-0.5-0.1c-0.1-0.1-0.2-0.1-0.3-0.2s-0.2-0.2-0.2-0.4c0-0.2-0.1-0.3-0.1-0.5c0-0.2,0-0.4,0.1-0.5s0.1-0.3,0.2-0.4
					s0.2-0.2,0.4-0.3c0.1-0.1,0.3-0.1,0.5-0.1c0.2,0,0.3,0,0.5,0.1c0.1,0.1,0.2,0.1,0.3,0.2c0.1,0.1,0.2,0.2,0.2,0.4
					C145.7,55.2,145.8,55.3,145.8,55.5z M145.3,55.6c0-0.1,0-0.3,0-0.4s-0.1-0.2-0.1-0.3c-0.1-0.1-0.1-0.1-0.2-0.2
					c-0.1,0-0.2-0.1-0.3-0.1c-0.1,0-0.2,0-0.3,0.1c-0.1,0-0.2,0.1-0.2,0.2c-0.1,0.1-0.1,0.2-0.1,0.3c0,0.1,0,0.2,0,0.3
					c0,0.1,0,0.3,0,0.4s0.1,0.2,0.1,0.3c0.1,0.1,0.1,0.1,0.2,0.2c0.1,0,0.2,0.1,0.3,0.1c0.1,0,0.2,0,0.3-0.1c0.1,0,0.2-0.1,0.2-0.2
					s0.1-0.2,0.1-0.3C145.3,55.8,145.3,55.7,145.3,55.6z"/>
				<path class="st13" d="M148.2,56.7h-0.4v-1.1h-1.1v1.1h-0.4v-2.4h0.4v1h1.1v-1h0.4V56.7z"/>
				<path class="st13" d="M151,55.4c0,0.1,0,0.1,0,0.1c0,0,0,0.1,0,0.1h-1.7c0,0.2,0.1,0.4,0.2,0.6c0.1,0.1,0.3,0.2,0.6,0.2
					c0.1,0,0.1,0,0.2,0c0.1,0,0.1,0,0.2,0c0.1,0,0.1,0,0.2,0s0.1,0,0.2,0v0.3c-0.1,0-0.2,0.1-0.4,0.1c-0.1,0-0.3,0-0.4,0
					c-0.2,0-0.4,0-0.5-0.1c-0.1-0.1-0.3-0.1-0.4-0.2c-0.1-0.1-0.2-0.2-0.2-0.4c0-0.2-0.1-0.3-0.1-0.5c0-0.2,0-0.3,0.1-0.5
					s0.1-0.3,0.2-0.4c0.1-0.1,0.2-0.2,0.3-0.3s0.3-0.1,0.5-0.1c0.2,0,0.3,0,0.4,0.1c0.1,0.1,0.2,0.1,0.3,0.2
					c0.1,0.1,0.2,0.2,0.2,0.3C150.9,55.1,151,55.3,151,55.4z M150.5,55.4c0-0.1,0-0.2,0-0.3c0-0.1-0.1-0.2-0.1-0.2
					c-0.1-0.1-0.1-0.1-0.2-0.1s-0.2-0.1-0.3-0.1c-0.1,0-0.2,0-0.2,0.1c-0.1,0-0.1,0.1-0.2,0.1c-0.1,0.1-0.1,0.1-0.1,0.2
					c0,0.1-0.1,0.2-0.1,0.3C149.3,55.4,150.5,55.4,150.5,55.4z"/>
				<path class="st13" d="M153.1,55.8h-0.5c-0.4,0-0.6-0.1-0.8-0.2c-0.2-0.1-0.3-0.3-0.3-0.6v-0.7h0.4V55c0,0.1,0,0.2,0,0.2
					c0,0.1,0.1,0.1,0.1,0.2c0.1,0,0.1,0.1,0.2,0.1c0.1,0,0.2,0,0.3,0h0.4v-1.1h0.4v2.4h-0.4L153.1,55.8L153.1,55.8z"/>
				<path class="st13" d="M156.1,56.7h-0.4v-1.1h-1.1v1.1h-0.4v-2.4h0.4v1h1.1v-1h0.4V56.7z"/>
				<path class="st13" d="M157.1,55.3c0.1,0,0.1,0,0.2,0c0,0,0.1,0,0.2,0c0.1,0,0.3,0,0.4,0.1c0.1,0,0.2,0.1,0.3,0.1
					c0.1,0.1,0.1,0.1,0.2,0.2c0,0.1,0.1,0.2,0.1,0.3c0,0.1,0,0.2-0.1,0.3s-0.1,0.2-0.2,0.2s-0.2,0.1-0.3,0.1s-0.2,0-0.4,0
					c-0.1,0-0.2,0-0.3,0c-0.1,0-0.2,0-0.3,0v-2.4h0.4L157.1,55.3L157.1,55.3z M157.9,56c0-0.1,0-0.2-0.1-0.3s-0.2-0.1-0.4-0.1
					c0,0-0.1,0-0.1,0s-0.1,0-0.1,0v0.8c0.1,0,0.1,0,0.1,0c0,0,0.1,0,0.1,0c0.1,0,0.2,0,0.2,0s0.1-0.1,0.1-0.1c0,0,0.1-0.1,0.1-0.1
					C157.9,56.1,157.9,56.1,157.9,56z M158.6,56.7v-2.4h0.4v2.4H158.6z"/>
				<path class="st13" d="M160,54.4V56l1-1.7h0.4v2.4H161v-1.7l-1,1.7h-0.4v-2.4H160z M161.2,53.4c0,0.1,0,0.2-0.1,0.2
					s-0.1,0.1-0.1,0.2c-0.1,0.1-0.1,0.1-0.2,0.1c-0.1,0-0.2,0-0.3,0c-0.1,0-0.2,0-0.3,0c-0.1,0-0.2-0.1-0.2-0.1
					c-0.1-0.1-0.1-0.1-0.1-0.2s0-0.2,0-0.2h0.4c0,0,0,0.1,0,0.1c0,0,0,0.1,0.1,0.1c0,0,0.1,0.1,0.1,0.1c0,0,0.1,0,0.2,0
					c0.1,0,0.1,0,0.2,0c0,0,0.1,0,0.1-0.1c0,0,0-0.1,0.1-0.1c0,0,0-0.1,0-0.1H161.2z"/>
				<path class="st13" d="M144.3,60.5h-0.4v-2h-1.1v2h-0.4v-2.4h1.9L144.3,60.5L144.3,60.5z"/>
				<path class="st13" d="M147,59.3c0,0.2,0,0.4-0.1,0.6c-0.1,0.2-0.1,0.3-0.2,0.4c-0.1,0.1-0.2,0.2-0.4,0.2s-0.3,0.1-0.5,0.1
					c-0.1,0-0.1,0-0.2,0s-0.1,0-0.2,0v1H145v-3.3h0.4l0,0.4c0.1-0.2,0.2-0.3,0.4-0.3s0.3-0.1,0.4-0.1c0.1,0,0.3,0,0.4,0.1
					s0.2,0.1,0.3,0.2c0.1,0.1,0.1,0.2,0.2,0.4C147,59,147,59.1,147,59.3z M146.6,59.3c0-0.1,0-0.2,0-0.3c0-0.1,0-0.2-0.1-0.3
					s-0.1-0.1-0.1-0.2c-0.1,0-0.1-0.1-0.2-0.1c-0.1,0-0.1,0-0.2,0c-0.1,0-0.1,0-0.2,0.1c-0.1,0-0.1,0.1-0.2,0.2
					c-0.1,0.1-0.1,0.1-0.2,0.2v1.2c0.1,0,0.2,0.1,0.2,0.1s0.2,0,0.2,0c0.2,0,0.4-0.1,0.5-0.2S146.6,59.6,146.6,59.3z"/>
				<path class="st13" d="M149.7,59.3c0,0.2,0,0.4-0.1,0.5s-0.1,0.3-0.2,0.4c-0.1,0.1-0.2,0.2-0.4,0.3c-0.1,0.1-0.3,0.1-0.5,0.1
					c-0.2,0-0.3,0-0.5-0.1c-0.1-0.1-0.2-0.1-0.3-0.2s-0.2-0.2-0.2-0.4c0-0.2-0.1-0.3-0.1-0.5c0-0.2,0-0.4,0.1-0.5s0.1-0.3,0.2-0.4
					s0.2-0.2,0.4-0.3c0.1-0.1,0.3-0.1,0.5-0.1c0.2,0,0.3,0,0.5,0.1c0.1,0.1,0.2,0.1,0.3,0.2c0.1,0.1,0.2,0.2,0.2,0.4
					C149.7,59,149.7,59.1,149.7,59.3z M149.3,59.4c0-0.1,0-0.3,0-0.4s-0.1-0.2-0.1-0.3c-0.1-0.1-0.1-0.1-0.2-0.2
					c-0.1,0-0.2-0.1-0.3-0.1c-0.1,0-0.2,0-0.3,0.1c-0.1,0-0.2,0.1-0.2,0.2c-0.1,0.1-0.1,0.2-0.1,0.3c0,0.1,0,0.2,0,0.3
					c0,0.1,0,0.3,0,0.4s0.1,0.2,0.1,0.3c0.1,0.1,0.1,0.1,0.2,0.2c0.1,0,0.2,0.1,0.3,0.1c0.1,0,0.2,0,0.3-0.1c0.1,0,0.2-0.1,0.2-0.2
					s0.1-0.2,0.1-0.3C149.3,59.6,149.3,59.5,149.3,59.4z"/>
				<path class="st13" d="M152.5,60.2l0,1h-0.4v-0.6h-1.7v0.6H150l0-1h0c0.1,0,0.1,0,0.2,0c0.1,0,0.1-0.1,0.1-0.1
					c0-0.1,0.1-0.1,0.1-0.2s0.1-0.2,0.1-0.4c0-0.1,0.1-0.3,0.1-0.5c0-0.2,0-0.5,0.1-0.8h1.5v2C152.1,60.2,152.5,60.2,152.5,60.2z
					 M151.7,58.5h-0.7c0,0.3,0,0.5-0.1,0.7c0,0.2-0.1,0.4-0.1,0.5c0,0.1-0.1,0.2-0.1,0.3c0,0.1-0.1,0.1-0.1,0.2h1.1L151.7,58.5
					L151.7,58.5z"/>
				<path class="st13" d="M155,58.2l-0.8,2.1c-0.1,0.2-0.2,0.4-0.3,0.6c-0.1,0.2-0.2,0.3-0.3,0.4c-0.1,0.1-0.2,0.2-0.3,0.2
					c-0.1,0-0.3,0.1-0.4,0.1c0,0-0.1,0-0.1,0c0,0-0.1,0-0.1,0v-0.4c0,0,0.1,0,0.1,0c0,0,0.1,0,0.1,0c0.1,0,0.1,0,0.2,0
					c0.1,0,0.1-0.1,0.2-0.1s0.1-0.1,0.2-0.2c0.1-0.1,0.1-0.2,0.2-0.3l-0.9-2.4h0.5l0.6,1.6l0.1,0.4l0.1-0.4l0.6-1.6L155,58.2
					L155,58.2z"/>
				<path class="st13" d="M157.7,60.5h-0.6l-1.1-1.3v1.3h-0.4v-2.4h0.4v1.1l1.1-1.1h0.5l-1.1,1.1L157.7,60.5z"/>
				<path class="st13" d="M160.3,58.5h-0.9v2H159v-2h-0.9v-0.4h2.2L160.3,58.5L160.3,58.5z"/>
			</g>
			<g>
				<polygon class="st5" points="198.1,81.1 172.2,81.1 167.1,75.5 172.3,69.9 198.1,69.9 203.3,75.4 				"/>
				<g>
					<polyline class="st6" points="198.7,80.4 198.1,81.1 197.3,81.1 					"/>
					<line class="st7" x1="195.7" y1="81.1" x2="173.9" y2="81.1"/>
					<polyline class="st6" points="173.1,81.1 172.2,81.1 171.7,80.4 					"/>
					<line class="st22" x1="170.3" y1="79" x2="168.4" y2="76.8"/>
					<polyline class="st6" points="167.7,76.1 167.1,75.5 167.7,74.8 					"/>
					<line class="st23" x1="169" y1="73.4" x2="171" y2="71.2"/>
					<polyline class="st6" points="171.7,70.5 172.3,69.9 173.1,69.9 					"/>
					<line class="st17" x1="174.7" y1="69.9" x2="196.5" y2="69.9"/>
					<polyline class="st6" points="197.3,69.9 198.1,69.9 198.7,70.5 					"/>
					<line class="st20" x1="200.1" y1="71.9" x2="202" y2="74.1"/>
					<polyline class="st6" points="202.7,74.8 203.3,75.4 202.7,76 					"/>
					<line class="st24" x1="201.4" y1="77.5" x2="199.4" y2="79.7"/>
				</g>
			</g>
			<g>
				<rect x="172.7" y="71.5" class="st12" width="24.9" height="8"/>
				<path class="st13" d="M177.1,74.8h-0.5l-1.1-1.5v1.5H175v-3.1h0.4v1.4l1.1-1.4h0.5l-1.2,1.5L177.1,74.8z"/>
				<path class="st13" d="M179.7,73.6c0,0.2,0,0.4-0.1,0.5c-0.1,0.2-0.1,0.3-0.2,0.4c-0.1,0.1-0.2,0.2-0.4,0.3
					c-0.1,0.1-0.3,0.1-0.5,0.1c-0.2,0-0.3,0-0.5-0.1c-0.1-0.1-0.2-0.1-0.3-0.2s-0.2-0.2-0.2-0.4c0-0.2-0.1-0.3-0.1-0.5
					c0-0.2,0-0.4,0.1-0.5s0.1-0.3,0.2-0.4s0.2-0.2,0.4-0.3c0.1-0.1,0.3-0.1,0.5-0.1c0.2,0,0.3,0,0.5,0.1c0.1,0.1,0.2,0.1,0.3,0.2
					c0.1,0.1,0.2,0.2,0.2,0.4C179.7,73.2,179.7,73.4,179.7,73.6z M179.3,73.6c0-0.1,0-0.3,0-0.4s-0.1-0.2-0.1-0.3
					c-0.1-0.1-0.1-0.1-0.2-0.2c-0.1,0-0.2-0.1-0.3-0.1c-0.1,0-0.2,0-0.3,0.1c-0.1,0-0.2,0.1-0.2,0.2c-0.1,0.1-0.1,0.2-0.1,0.3
					c0,0.1,0,0.2,0,0.3c0,0.1,0,0.3,0,0.4s0.1,0.2,0.1,0.3c0.1,0.1,0.1,0.1,0.2,0.2c0.1,0,0.2,0.1,0.3,0.1c0.1,0,0.2,0,0.3-0.1
					c0.1,0,0.2-0.1,0.2-0.2s0.1-0.2,0.1-0.3C179.3,73.9,179.3,73.7,179.3,73.6z"/>
				<path class="st13" d="M182.2,74.8h-0.4v-1.1h-1.1v1.1h-0.4v-2.4h0.4v1h1.1v-1h0.4V74.8z"/>
				<path class="st13" d="M184.9,73.5c0,0.1,0,0.1,0,0.1c0,0,0,0.1,0,0.1h-1.7c0,0.2,0.1,0.4,0.2,0.6c0.1,0.1,0.3,0.2,0.6,0.2
					c0.1,0,0.1,0,0.2,0c0.1,0,0.1,0,0.2,0c0.1,0,0.1,0,0.2,0s0.1,0,0.2,0v0.3c-0.1,0-0.2,0.1-0.4,0.1c-0.1,0-0.3,0-0.4,0
					c-0.2,0-0.4,0-0.5-0.1c-0.1-0.1-0.3-0.1-0.4-0.2c-0.1-0.1-0.2-0.2-0.2-0.4c0-0.2-0.1-0.3-0.1-0.5c0-0.2,0-0.3,0.1-0.5
					s0.1-0.3,0.2-0.4c0.1-0.1,0.2-0.2,0.3-0.3c0.1-0.1,0.3-0.1,0.5-0.1c0.2,0,0.3,0,0.4,0.1c0.1,0.1,0.2,0.1,0.3,0.2
					c0.1,0.1,0.2,0.2,0.2,0.3C184.9,73.2,184.9,73.3,184.9,73.5z M184.5,73.4c0-0.1,0-0.2,0-0.3c0-0.1-0.1-0.2-0.1-0.2
					c-0.1-0.1-0.1-0.1-0.2-0.1s-0.2-0.1-0.3-0.1c-0.1,0-0.2,0-0.2,0.1c-0.1,0-0.1,0.1-0.2,0.1c-0.1,0.1-0.1,0.1-0.1,0.2
					c0,0.1-0.1,0.2-0.1,0.3H184.5z"/>
				<path class="st13" d="M187.1,73.9h-0.5c-0.4,0-0.6-0.1-0.8-0.2c-0.2-0.1-0.3-0.3-0.3-0.6v-0.7h0.4V73c0,0.1,0,0.2,0,0.2
					c0,0.1,0.1,0.1,0.1,0.2c0.1,0,0.1,0.1,0.2,0.1c0.1,0,0.2,0,0.3,0h0.4v-1.1h0.4v2.4h-0.4L187.1,73.9L187.1,73.9z"/>
				<path class="st13" d="M190.1,74.8h-0.4v-1.1h-1.1v1.1h-0.4v-2.4h0.4v1h1.1v-1h0.4V74.8z"/>
				<path class="st13" d="M191.1,73.4c0.1,0,0.1,0,0.2,0c0,0,0.1,0,0.2,0c0.1,0,0.3,0,0.4,0.1c0.1,0,0.2,0.1,0.3,0.1
					c0.1,0.1,0.1,0.1,0.2,0.2c0,0.1,0.1,0.2,0.1,0.3c0,0.1,0,0.2-0.1,0.3s-0.1,0.2-0.2,0.2s-0.2,0.1-0.3,0.1s-0.2,0.1-0.4,0.1
					c-0.1,0-0.2,0-0.3,0c-0.1,0-0.2,0-0.3,0v-2.4h0.4L191.1,73.4L191.1,73.4z M191.8,74.1c0-0.1,0-0.2-0.1-0.3s-0.2-0.1-0.4-0.1
					c0,0-0.1,0-0.1,0s-0.1,0-0.1,0v0.8c0.1,0,0.1,0,0.1,0c0,0,0.1,0,0.1,0c0.1,0,0.2,0,0.2,0s0.1-0.1,0.1-0.1c0,0,0.1-0.1,0.1-0.1
					C191.8,74.2,191.8,74.1,191.8,74.1z M192.5,74.8v-2.4h0.4v2.4H192.5z"/>
				<path class="st13" d="M193.9,72.4v1.7l1-1.7h0.4v2.4h-0.4v-1.7l-1,1.7h-0.4v-2.4H193.9z M195.2,71.5c0,0.1,0,0.2-0.1,0.2
					S195,71.9,195,72c-0.1,0.1-0.1,0.1-0.2,0.1c-0.1,0-0.2,0-0.3,0c-0.1,0-0.2,0-0.3,0c-0.1,0-0.2-0.1-0.2-0.1
					c-0.1-0.1-0.1-0.1-0.1-0.2s0-0.2,0-0.2h0.4c0,0,0,0.1,0,0.1c0,0,0,0.1,0.1,0.1c0,0,0.1,0.1,0.1,0.1c0,0,0.1,0,0.2,0
					c0.1,0,0.1,0,0.2,0c0,0,0.1,0,0.1-0.1c0,0,0-0.1,0.1-0.1c0,0,0-0.1,0-0.1H195.2z"/>
				<path class="st13" d="M178.2,78.6h-0.4v-2h-1.1v2h-0.4v-2.4h1.9L178.2,78.6L178.2,78.6z"/>
				<path class="st13" d="M181,77.4c0,0.2,0,0.4-0.1,0.6c-0.1,0.2-0.1,0.3-0.2,0.4c-0.1,0.1-0.2,0.2-0.4,0.2s-0.3,0.1-0.5,0.1
					c-0.1,0-0.1,0-0.2,0s-0.1,0-0.2,0v1H179v-3.3h0.4l0,0.4c0.1-0.2,0.2-0.3,0.4-0.3s0.3-0.1,0.4-0.1c0.1,0,0.3,0,0.4,0.1
					s0.2,0.1,0.3,0.2c0.1,0.1,0.1,0.2,0.2,0.4C181,77.1,181,77.2,181,77.4z M180.6,77.4c0-0.1,0-0.2,0-0.3c0-0.1,0-0.2-0.1-0.3
					s-0.1-0.1-0.1-0.2c-0.1,0-0.1-0.1-0.2-0.1c-0.1,0-0.1,0-0.2,0s-0.1,0-0.2,0.1c-0.1,0-0.1,0.1-0.2,0.2c-0.1,0.1-0.1,0.1-0.2,0.2
					v1.2c0.1,0,0.2,0.1,0.2,0.1s0.2,0,0.2,0c0.2,0,0.4-0.1,0.5-0.2S180.6,77.7,180.6,77.4z"/>
				<path class="st13" d="M183.7,77.4c0,0.2,0,0.4-0.1,0.5c-0.1,0.2-0.1,0.3-0.2,0.4c-0.1,0.1-0.2,0.2-0.4,0.3
					c-0.1,0.1-0.3,0.1-0.5,0.1c-0.2,0-0.3,0-0.5-0.1c-0.1-0.1-0.2-0.1-0.3-0.2s-0.2-0.2-0.2-0.4c0-0.2-0.1-0.3-0.1-0.5
					c0-0.2,0-0.4,0.1-0.5s0.1-0.3,0.2-0.4s0.2-0.2,0.4-0.3c0.1-0.1,0.3-0.1,0.5-0.1c0.2,0,0.3,0,0.5,0.1c0.1,0.1,0.2,0.1,0.3,0.2
					c0.1,0.1,0.2,0.2,0.2,0.4C183.6,77,183.7,77.2,183.7,77.4z M183.3,77.4c0-0.1,0-0.3,0-0.4s-0.1-0.2-0.1-0.3
					c-0.1-0.1-0.1-0.1-0.2-0.2c-0.1,0-0.2-0.1-0.3-0.1c-0.1,0-0.2,0-0.3,0.1c-0.1,0-0.2,0.1-0.2,0.2c-0.1,0.1-0.1,0.2-0.1,0.3
					c0,0.1,0,0.2,0,0.3c0,0.1,0,0.3,0,0.4s0.1,0.2,0.1,0.3c0.1,0.1,0.1,0.1,0.2,0.2c0.1,0,0.2,0.1,0.3,0.1c0.1,0,0.2,0,0.3-0.1
					c0.1,0,0.2-0.1,0.2-0.2s0.1-0.2,0.1-0.3C183.2,77.7,183.3,77.6,183.3,77.4z"/>
				<path class="st13" d="M186.4,78.3l0,1H186v-0.6h-1.7v0.6H184l0-1h0c0.1,0,0.1,0,0.2,0c0.1,0,0.1-0.1,0.1-0.1
					c0-0.1,0.1-0.1,0.1-0.2s0.1-0.2,0.1-0.4c0-0.1,0.1-0.3,0.1-0.5c0-0.2,0-0.5,0.1-0.8h1.5v2C186.1,78.3,186.4,78.3,186.4,78.3z
					 M185.7,76.6H185c0,0.3,0,0.5-0.1,0.7c0,0.2-0.1,0.4-0.1,0.5c0,0.1-0.1,0.2-0.1,0.3c0,0.1-0.1,0.1-0.1,0.2h1.1L185.7,76.6
					L185.7,76.6z"/>
				<path class="st13" d="M189,76.2l-0.8,2.1c-0.1,0.2-0.2,0.4-0.3,0.6c-0.1,0.2-0.2,0.3-0.3,0.4c-0.1,0.1-0.2,0.2-0.3,0.2
					c-0.1,0-0.3,0.1-0.4,0.1c0,0-0.1,0-0.1,0c0,0-0.1,0-0.1,0v-0.4c0,0,0.1,0,0.1,0c0,0,0.1,0,0.1,0c0.1,0,0.1,0,0.2,0
					c0.1,0,0.1-0.1,0.2-0.1s0.1-0.1,0.2-0.2c0.1-0.1,0.1-0.2,0.2-0.3l-0.9-2.4h0.5l0.6,1.6l0.1,0.4l0.1-0.4l0.6-1.6L189,76.2
					L189,76.2z"/>
				<path class="st13" d="M191.7,78.6h-0.6l-1.1-1.3v1.3h-0.4v-2.4h0.4v1.1l1.1-1.1h0.5l-1.1,1.1L191.7,78.6z"/>
				<path class="st13" d="M194.2,76.6h-0.9v2h-0.4v-2H192v-0.4h2.2L194.2,76.6L194.2,76.6z"/>
			</g>
			<polygon class="st4" points="127.5,81.2 101.7,81.2 96.6,75.6 101.7,70 127.6,70 132.7,75.5 			"/>
			<polygon class="st4" points="173.8,106.1 147.9,106.1 142.8,100.5 147.9,94.9 173.8,94.9 179,100.5 			"/>
			<polygon class="st4" points="100.2,106.1 74.4,106.1 69.2,100.5 74.4,94.9 100.3,94.9 105.4,100.5 			"/>
			<g>
				<rect x="72.9" y="96.4" class="st12" width="28.9" height="8.3"/>
				<path class="st13" d="M76.5,98.8c0,0.1,0,0.3-0.1,0.4c-0.1,0.1-0.1,0.2-0.2,0.3s-0.2,0.1-0.4,0.2s-0.3,0.1-0.5,0.1h-0.8v-3.1
					h0.9c0.7,0,1,0.3,1,0.8c0,0.2,0,0.3-0.1,0.4c-0.1,0.1-0.2,0.2-0.4,0.3c0.1,0,0.2,0,0.2,0.1s0.1,0.1,0.2,0.1
					c0.1,0.1,0.1,0.1,0.1,0.2C76.5,98.6,76.5,98.7,76.5,98.8z M76,97.4c0-0.1,0-0.1,0-0.2c0-0.1-0.1-0.1-0.1-0.1S75.7,97,75.6,97
					c-0.1,0-0.2,0-0.3,0h-0.4v1h0.4c0.1,0,0.2,0,0.3,0c0.1,0,0.1-0.1,0.2-0.1c0.1,0,0.1-0.1,0.1-0.2C75.9,97.6,76,97.5,76,97.4z
					 M76.1,98.8c0-0.1,0-0.1-0.1-0.2c0-0.1-0.1-0.1-0.1-0.2c-0.1,0-0.1-0.1-0.2-0.1c-0.1,0-0.2,0-0.3,0h-0.4v1.1h0.4
					c0.2,0,0.4,0,0.5-0.1C76,99.1,76.1,99,76.1,98.8z"/>
				<path class="st13" d="M79,99.7h-0.4v-1.1h-1.1v1.1h-0.4v-2.4h0.4v1h1.1v-1H79V99.7z"/>
				<path class="st13" d="M81.9,97.3l-0.8,2.1c-0.1,0.2-0.2,0.4-0.3,0.6c-0.1,0.2-0.2,0.3-0.3,0.4c-0.1,0.1-0.2,0.2-0.3,0.2
					c-0.1,0-0.3,0.1-0.4,0.1c0,0-0.1,0-0.1,0c0,0-0.1,0-0.1,0v-0.4c0,0,0.1,0,0.1,0c0,0,0.1,0,0.1,0c0.1,0,0.1,0,0.2,0
					c0.1,0,0.1-0.1,0.2-0.1s0.1-0.1,0.2-0.2c0.1-0.1,0.1-0.2,0.2-0.3l-0.9-2.4H80l0.6,1.6l0.1,0.4l0.1-0.4l0.6-1.6L81.9,97.3
					L81.9,97.3z"/>
				<path class="st13" d="M84.5,97.7h-0.9v2h-0.4v-2h-0.9v-0.4h2.2L84.5,97.7L84.5,97.7z"/>
				<path class="st13" d="M87.1,98.5c0,0.2,0,0.4-0.1,0.6s-0.1,0.3-0.2,0.4c-0.1,0.1-0.2,0.2-0.4,0.2s-0.3,0.1-0.5,0.1
					c-0.1,0-0.1,0-0.2,0s-0.1,0-0.2,0v1h-0.4v-3.3h0.4l0,0.4c0.1-0.2,0.2-0.3,0.4-0.3s0.3-0.1,0.4-0.1c0.1,0,0.3,0,0.4,0.1
					s0.2,0.1,0.3,0.2c0.1,0.1,0.1,0.2,0.2,0.4C87.1,98.1,87.1,98.3,87.1,98.5z M86.7,98.5c0-0.1,0-0.2,0-0.3c0-0.1,0-0.2-0.1-0.3
					s-0.1-0.1-0.2-0.2c-0.1,0-0.1-0.1-0.2-0.1c-0.1,0-0.1,0-0.2,0s-0.1,0-0.2,0.1c-0.1,0-0.1,0.1-0.2,0.2c-0.1,0.1-0.1,0.1-0.2,0.2
					v1.2c0.1,0,0.2,0.1,0.2,0.1s0.2,0,0.2,0c0.2,0,0.4-0.1,0.5-0.2S86.7,98.8,86.7,98.5z"/>
				<path class="st13" d="M89.7,98.4c0,0.1,0,0.1,0,0.1c0,0,0,0.1,0,0.1H88c0,0.2,0.1,0.4,0.2,0.6c0.1,0.1,0.3,0.2,0.6,0.2
					c0.1,0,0.1,0,0.2,0c0.1,0,0.1,0,0.2,0c0.1,0,0.1,0,0.2,0s0.1,0,0.2,0v0.3c-0.1,0-0.2,0.1-0.4,0.1c-0.1,0-0.3,0-0.4,0
					c-0.2,0-0.4,0-0.5-0.1c-0.1-0.1-0.3-0.1-0.4-0.2c-0.1-0.1-0.2-0.2-0.2-0.4c0-0.2-0.1-0.3-0.1-0.5c0-0.2,0-0.3,0.1-0.5
					s0.1-0.3,0.2-0.4c0.1-0.1,0.2-0.2,0.3-0.3c0.1-0.1,0.3-0.1,0.5-0.1c0.2,0,0.3,0,0.4,0.1c0.1,0.1,0.2,0.1,0.3,0.2
					c0.1,0.1,0.2,0.2,0.2,0.3C89.7,98.1,89.7,98.2,89.7,98.4z M89.3,98.3c0-0.1,0-0.2,0-0.3c0-0.1-0.1-0.2-0.1-0.2
					c-0.1-0.1-0.1-0.1-0.2-0.1s-0.2-0.1-0.3-0.1c-0.1,0-0.2,0-0.2,0.1c-0.1,0-0.1,0.1-0.2,0.1c-0.1,0.1-0.1,0.1-0.1,0.2
					c0,0.1-0.1,0.2-0.1,0.3H89.3z"/>
				<path class="st13" d="M92.2,99.7h-0.4v-1.1h-1.1v1.1h-0.4v-2.4h0.4v1h1.1v-1h0.4V99.7z"/>
				<path class="st13" d="M94.9,99.7h-0.4v-1.1h-1.1v1.1H93v-2.4h0.4v1h1.1v-1h0.4V99.7z"/>
				<path class="st13" d="M96.1,97.3V99l1-1.7h0.4v2.4h-0.4V98l-1,1.7h-0.4v-2.4H96.1z"/>
				<path class="st13" d="M98.7,97.3V99l1-1.7h0.4v2.4h-0.4V98l-1,1.7h-0.4v-2.4H98.7z M99.9,96.4c0,0.1,0,0.2-0.1,0.2
					s-0.1,0.1-0.1,0.2c-0.1,0.1-0.1,0.1-0.2,0.1c-0.1,0-0.2,0-0.3,0c-0.1,0-0.2,0-0.3,0c-0.1,0-0.2-0.1-0.2-0.1
					c-0.1-0.1-0.1-0.1-0.1-0.2s0-0.2,0-0.2h0.4c0,0,0,0.1,0,0.1c0,0,0,0.1,0.1,0.1c0,0,0.1,0.1,0.1,0.1c0,0,0.1,0,0.2,0
					c0.1,0,0.1,0,0.2,0c0,0,0.1,0,0.1-0.1c0,0,0-0.1,0.1-0.1c0,0,0-0.1,0-0.1H99.9z"/>
				<path class="st13" d="M80.4,103.5h-0.4v-2h-1.1v2h-0.4v-2.4h1.9L80.4,103.5L80.4,103.5z"/>
				<path class="st13" d="M83.1,102.3c0,0.2,0,0.4-0.1,0.6s-0.1,0.3-0.2,0.4c-0.1,0.1-0.2,0.2-0.4,0.2s-0.3,0.1-0.5,0.1
					c-0.1,0-0.1,0-0.2,0s-0.1,0-0.2,0v1h-0.4v-3.3h0.4l0,0.4c0.1-0.2,0.2-0.3,0.4-0.3s0.3-0.1,0.4-0.1c0.1,0,0.3,0,0.4,0.1
					s0.2,0.1,0.3,0.2c0.1,0.1,0.1,0.2,0.2,0.4C83.1,101.9,83.1,102.1,83.1,102.3z M82.7,102.3c0-0.1,0-0.2,0-0.3
					c0-0.1,0-0.2-0.1-0.3s-0.1-0.1-0.2-0.2c-0.1,0-0.1-0.1-0.2-0.1c-0.1,0-0.1,0-0.2,0s-0.1,0-0.2,0.1c-0.1,0-0.1,0.1-0.2,0.2
					c-0.1,0.1-0.1,0.1-0.2,0.2v1.2c0.1,0,0.2,0.1,0.2,0.1s0.2,0,0.2,0c0.2,0,0.4-0.1,0.5-0.2S82.7,102.6,82.7,102.3z"/>
				<path class="st13" d="M85.8,102.3c0,0.2,0,0.4-0.1,0.5c-0.1,0.2-0.1,0.3-0.2,0.4c-0.1,0.1-0.2,0.2-0.4,0.3
					c-0.1,0.1-0.3,0.1-0.5,0.1c-0.2,0-0.3,0-0.5-0.1c-0.1-0.1-0.2-0.1-0.3-0.2s-0.2-0.2-0.2-0.4c0-0.2-0.1-0.3-0.1-0.5
					c0-0.2,0-0.4,0.1-0.5s0.1-0.3,0.2-0.4s0.2-0.2,0.4-0.3c0.1-0.1,0.3-0.1,0.5-0.1c0.2,0,0.3,0,0.5,0.1c0.1,0.1,0.2,0.1,0.3,0.2
					c0.1,0.1,0.2,0.2,0.2,0.4C85.8,101.9,85.8,102.1,85.8,102.3z M85.4,102.3c0-0.1,0-0.3,0-0.4s-0.1-0.2-0.1-0.3
					c-0.1-0.1-0.1-0.1-0.2-0.2c-0.1,0-0.2-0.1-0.3-0.1c-0.1,0-0.2,0-0.3,0.1c-0.1,0-0.2,0.1-0.2,0.2c-0.1,0.1-0.1,0.2-0.1,0.3
					c0,0.1,0,0.2,0,0.3c0,0.1,0,0.3,0,0.4s0.1,0.2,0.1,0.3c0.1,0.1,0.1,0.1,0.2,0.2c0.1,0,0.2,0.1,0.3,0.1c0.1,0,0.2,0,0.3-0.1
					c0.1,0,0.2-0.1,0.2-0.2s0.1-0.2,0.1-0.3C85.4,102.6,85.4,102.4,85.4,102.3z"/>
				<path class="st13" d="M88.6,103.2l0,1h-0.4v-0.6h-1.7v0.6h-0.4l0-1h0c0.1,0,0.1,0,0.2,0c0.1,0,0.1-0.1,0.1-0.1
					c0-0.1,0.1-0.1,0.1-0.2s0.1-0.2,0.1-0.4c0-0.1,0.1-0.3,0.1-0.5c0-0.2,0-0.5,0.1-0.8h1.5v2C88.2,103.2,88.6,103.2,88.6,103.2z
					 M87.8,101.5h-0.7c0,0.3,0,0.5-0.1,0.7c0,0.2-0.1,0.4-0.1,0.5c0,0.1-0.1,0.2-0.1,0.3c0,0.1-0.1,0.1-0.1,0.2h1.1L87.8,101.5
					L87.8,101.5z"/>
				<path class="st13" d="M91.1,101.1l-0.8,2.1c-0.1,0.2-0.2,0.4-0.3,0.6c-0.1,0.2-0.2,0.3-0.3,0.4c-0.1,0.1-0.2,0.2-0.3,0.2
					c-0.1,0-0.3,0.1-0.4,0.1c0,0-0.1,0-0.1,0c0,0-0.1,0-0.1,0v-0.4c0,0,0.1,0,0.1,0c0,0,0.1,0,0.1,0c0.1,0,0.1,0,0.2,0
					c0.1,0,0.1-0.1,0.2-0.1s0.1-0.1,0.2-0.2c0.1-0.1,0.1-0.2,0.2-0.3l-0.9-2.4h0.5l0.6,1.6l0.1,0.4l0.1-0.4l0.6-1.6L91.1,101.1
					L91.1,101.1z"/>
				<path class="st13" d="M93.8,103.5h-0.6l-1.1-1.3v1.3h-0.4v-2.4h0.4v1.1l1.1-1.1h0.5l-1.1,1.1L93.8,103.5z"/>
				<path class="st13" d="M96.3,101.5h-0.9v2H95v-2h-0.9v-0.4h2.2L96.3,101.5L96.3,101.5z"/>
			</g>
			<g>
				<rect x="146.4" y="96.3" class="st12" width="28.9" height="8.4"/>
				<path class="st13" d="M150.1,98.8c0,0.1,0,0.3-0.1,0.4c-0.1,0.1-0.1,0.2-0.2,0.3s-0.2,0.1-0.4,0.2s-0.3,0.1-0.5,0.1h-0.8v-3.1
					h0.9c0.7,0,1,0.3,1,0.8c0,0.2,0,0.3-0.1,0.4c-0.1,0.1-0.2,0.2-0.4,0.3c0.1,0,0.2,0,0.2,0.1s0.1,0.1,0.2,0.1
					c0.1,0.1,0.1,0.1,0.1,0.2C150.1,98.6,150.1,98.7,150.1,98.8z M149.5,97.4c0-0.1,0-0.1,0-0.2c0-0.1-0.1-0.1-0.1-0.1
					s-0.1-0.1-0.2-0.1c-0.1,0-0.2,0-0.3,0h-0.4v1h0.4c0.1,0,0.2,0,0.3,0c0.1,0,0.1-0.1,0.2-0.1c0.1,0,0.1-0.1,0.1-0.2
					C149.5,97.6,149.5,97.5,149.5,97.4z M149.6,98.8c0-0.1,0-0.1-0.1-0.2c0-0.1-0.1-0.1-0.1-0.2c-0.1,0-0.1-0.1-0.2-0.1
					c-0.1,0-0.2,0-0.3,0h-0.4v1.1h0.4c0.2,0,0.4,0,0.5-0.1C149.6,99.1,149.6,99,149.6,98.8z"/>
				<path class="st13" d="M152.6,99.7h-0.4v-1.1h-1.1v1.1h-0.4v-2.4h0.4v1h1.1v-1h0.4V99.7z"/>
				<path class="st13" d="M155.4,97.3l-0.8,2.1c-0.1,0.2-0.2,0.4-0.3,0.6c-0.1,0.2-0.2,0.3-0.3,0.4c-0.1,0.1-0.2,0.2-0.3,0.2
					c-0.1,0-0.3,0.1-0.4,0.1c0,0-0.1,0-0.1,0c0,0-0.1,0-0.1,0v-0.4c0,0,0.1,0,0.1,0c0,0,0.1,0,0.1,0c0.1,0,0.1,0,0.2,0
					c0.1,0,0.1-0.1,0.2-0.1s0.1-0.1,0.2-0.2c0.1-0.1,0.1-0.2,0.2-0.3l-0.9-2.4h0.5l0.6,1.6l0.1,0.4l0.1-0.4l0.6-1.6L155.4,97.3
					L155.4,97.3z"/>
				<path class="st13" d="M158,97.7h-0.9v2h-0.4v-2h-0.9v-0.4h2.2L158,97.7L158,97.7z"/>
				<path class="st13" d="M160.6,98.5c0,0.2,0,0.4-0.1,0.6c-0.1,0.2-0.1,0.3-0.2,0.4c-0.1,0.1-0.2,0.2-0.4,0.2s-0.3,0.1-0.5,0.1
					c-0.1,0-0.1,0-0.2,0s-0.1,0-0.2,0v1h-0.4v-3.3h0.4l0,0.4c0.1-0.2,0.2-0.3,0.4-0.3s0.3-0.1,0.4-0.1c0.1,0,0.3,0,0.4,0.1
					s0.2,0.1,0.3,0.2c0.1,0.1,0.1,0.2,0.2,0.4C160.6,98.1,160.6,98.3,160.6,98.5z M160.2,98.5c0-0.1,0-0.2,0-0.3
					c0-0.1,0-0.2-0.1-0.3s-0.1-0.1-0.1-0.2c-0.1,0-0.1-0.1-0.2-0.1c-0.1,0-0.1,0-0.2,0s-0.1,0-0.2,0.1c-0.1,0-0.1,0.1-0.2,0.2
					c-0.1,0.1-0.1,0.1-0.2,0.2v1.2c0.1,0,0.2,0.1,0.2,0.1s0.2,0,0.2,0c0.2,0,0.4-0.1,0.5-0.2S160.2,98.8,160.2,98.5z"/>
				<path class="st13" d="M163.2,98.4c0,0.1,0,0.1,0,0.1c0,0,0,0.1,0,0.1h-1.7c0,0.2,0.1,0.4,0.2,0.6c0.1,0.1,0.3,0.2,0.6,0.2
					c0.1,0,0.1,0,0.2,0c0.1,0,0.1,0,0.2,0c0.1,0,0.1,0,0.2,0s0.1,0,0.2,0v0.3c-0.1,0-0.2,0.1-0.4,0.1c-0.1,0-0.3,0-0.4,0
					c-0.2,0-0.4,0-0.5-0.1c-0.1-0.1-0.3-0.1-0.4-0.2c-0.1-0.1-0.2-0.2-0.2-0.4c0-0.2-0.1-0.3-0.1-0.5c0-0.2,0-0.3,0.1-0.5
					s0.1-0.3,0.2-0.4c0.1-0.1,0.2-0.2,0.3-0.3c0.1-0.1,0.3-0.1,0.5-0.1c0.2,0,0.3,0,0.4,0.1c0.1,0.1,0.2,0.1,0.3,0.2
					c0.1,0.1,0.2,0.2,0.2,0.3C163.2,98,163.2,98.2,163.2,98.4z M162.8,98.3c0-0.1,0-0.2,0-0.3c0-0.1-0.1-0.2-0.1-0.2
					c-0.1-0.1-0.1-0.1-0.2-0.1s-0.2-0.1-0.3-0.1c-0.1,0-0.2,0-0.2,0.1c-0.1,0-0.1,0.1-0.2,0.1c-0.1,0.1-0.1,0.1-0.1,0.2
					c0,0.1-0.1,0.2-0.1,0.3H162.8z"/>
				<path class="st13" d="M165.8,99.7h-0.4v-1.1h-1.1v1.1h-0.4v-2.4h0.4v1h1.1v-1h0.4V99.7z"/>
				<path class="st13" d="M168.4,99.7H168v-1.1h-1.1v1.1h-0.4v-2.4h0.4v1h1.1v-1h0.4V99.7z"/>
				<path class="st13" d="M169.6,97.3V99l1-1.7h0.4v2.4h-0.4V98l-1,1.7h-0.4v-2.4H169.6z"/>
				<path class="st13" d="M172.3,97.3V99l1-1.7h0.4v2.4h-0.4V98l-1,1.7h-0.4v-2.4H172.3z M173.5,96.4c0,0.1,0,0.2-0.1,0.2
					s-0.1,0.1-0.1,0.2c-0.1,0.1-0.1,0.1-0.2,0.1c-0.1,0-0.2,0-0.3,0c-0.1,0-0.2,0-0.3,0c-0.1,0-0.2-0.1-0.2-0.1
					c-0.1-0.1-0.1-0.1-0.1-0.2s0-0.2,0-0.2h0.4c0,0,0,0.1,0,0.1c0,0,0,0.1,0.1,0.1c0,0,0.1,0.1,0.1,0.1c0,0,0.1,0,0.2,0
					c0.1,0,0.1,0,0.2,0c0,0,0.1,0,0.1-0.1c0,0,0-0.1,0.1-0.1c0,0,0-0.1,0-0.1H173.5z"/>
				<path class="st13" d="M153.9,103.5h-0.4v-2h-1.1v2H152v-2.4h1.9L153.9,103.5L153.9,103.5z"/>
				<path class="st13" d="M156.7,102.3c0,0.2,0,0.4-0.1,0.6c-0.1,0.2-0.1,0.3-0.2,0.4c-0.1,0.1-0.2,0.2-0.4,0.2s-0.3,0.1-0.5,0.1
					c-0.1,0-0.1,0-0.2,0s-0.1,0-0.2,0v1h-0.4v-3.3h0.4l0,0.4c0.1-0.2,0.2-0.3,0.4-0.3s0.3-0.1,0.4-0.1c0.1,0,0.3,0,0.4,0.1
					s0.2,0.1,0.3,0.2c0.1,0.1,0.1,0.2,0.2,0.4C156.7,101.9,156.7,102.1,156.7,102.3z M156.3,102.3c0-0.1,0-0.2,0-0.3
					c0-0.1,0-0.2-0.1-0.3s-0.1-0.1-0.1-0.2c-0.1,0-0.1-0.1-0.2-0.1c-0.1,0-0.1,0-0.2,0s-0.1,0-0.2,0.1c-0.1,0-0.1,0.1-0.2,0.2
					c-0.1,0.1-0.1,0.1-0.2,0.2v1.2c0.1,0,0.2,0.1,0.2,0.1s0.2,0,0.2,0c0.2,0,0.4-0.1,0.5-0.2S156.3,102.6,156.3,102.3z"/>
				<path class="st13" d="M159.4,102.3c0,0.2,0,0.4-0.1,0.5c-0.1,0.2-0.1,0.3-0.2,0.4c-0.1,0.1-0.2,0.2-0.4,0.3
					c-0.1,0.1-0.3,0.1-0.5,0.1c-0.2,0-0.3,0-0.5-0.1c-0.1-0.1-0.2-0.1-0.3-0.2s-0.2-0.2-0.2-0.4c0-0.2-0.1-0.3-0.1-0.5
					c0-0.2,0-0.4,0.1-0.5s0.1-0.3,0.2-0.4s0.2-0.2,0.4-0.3c0.1-0.1,0.3-0.1,0.5-0.1c0.2,0,0.3,0,0.5,0.1c0.1,0.1,0.2,0.1,0.3,0.2
					c0.1,0.1,0.2,0.2,0.2,0.4C159.3,101.9,159.4,102.1,159.4,102.3z M158.9,102.3c0-0.1,0-0.3,0-0.4s-0.1-0.2-0.1-0.3
					c-0.1-0.1-0.1-0.1-0.2-0.2c-0.1,0-0.2-0.1-0.3-0.1c-0.1,0-0.2,0-0.3,0.1c-0.1,0-0.2,0.1-0.2,0.2c-0.1,0.1-0.1,0.2-0.1,0.3
					c0,0.1,0,0.2,0,0.3c0,0.1,0,0.3,0,0.4s0.1,0.2,0.1,0.3c0.1,0.1,0.1,0.1,0.2,0.2c0.1,0,0.2,0.1,0.3,0.1c0.1,0,0.2,0,0.3-0.1
					c0.1,0,0.2-0.1,0.2-0.2s0.1-0.2,0.1-0.3C158.9,102.5,158.9,102.4,158.9,102.3z"/>
				<path class="st13" d="M162.1,103.1l0,1h-0.4v-0.6H160v0.6h-0.4l0-1h0c0.1,0,0.1,0,0.2,0c0.1,0,0.1-0.1,0.1-0.1
					c0-0.1,0.1-0.1,0.1-0.2s0.1-0.2,0.1-0.4c0-0.1,0.1-0.3,0.1-0.5c0-0.2,0-0.5,0.1-0.8h1.5v2C161.8,103.1,162.1,103.1,162.1,103.1z
					 M161.4,101.5h-0.7c0,0.3,0,0.5-0.1,0.7c0,0.2-0.1,0.4-0.1,0.5c0,0.1-0.1,0.2-0.1,0.3c0,0.1-0.1,0.1-0.1,0.2h1.1L161.4,101.5
					L161.4,101.5z"/>
				<path class="st13" d="M164.7,101.1l-0.8,2.1c-0.1,0.2-0.2,0.4-0.3,0.6c-0.1,0.2-0.2,0.3-0.3,0.4c-0.1,0.1-0.2,0.2-0.3,0.2
					c-0.1,0-0.3,0.1-0.4,0.1c0,0-0.1,0-0.1,0c0,0-0.1,0-0.1,0v-0.4c0,0,0.1,0,0.1,0c0,0,0.1,0,0.1,0c0.1,0,0.1,0,0.2,0
					c0.1,0,0.1-0.1,0.2-0.1s0.1-0.1,0.2-0.2c0.1-0.1,0.1-0.2,0.2-0.3l-0.9-2.4h0.5l0.6,1.6l0.1,0.4l0.1-0.4l0.6-1.6L164.7,101.1
					L164.7,101.1z"/>
				<path class="st13" d="M167.3,103.5h-0.6l-1.1-1.3v1.3h-0.4v-2.4h0.4v1.1l1.1-1.1h0.5l-1.1,1.1L167.3,103.5z"/>
				<path class="st13" d="M169.9,101.5H169v2h-0.4v-2h-0.9v-0.4h2.2L169.9,101.5L169.9,101.5z"/>
			</g>
			<g>
				<rect x="104.3" y="55" class="st12" width="21" height="4.7"/>
				<path class="st13" d="M106.7,58.4h-0.4v-2.7H105v2.7h-0.4v-3.1h2.1V58.4z"/>
				<path class="st13" d="M109.4,57.2c0,0.2,0,0.4-0.1,0.6s-0.1,0.3-0.2,0.4c-0.1,0.1-0.2,0.2-0.4,0.2s-0.3,0.1-0.5,0.1
					c-0.1,0-0.1,0-0.2,0s-0.1,0-0.2,0v1h-0.4V56h0.4l0,0.4c0.1-0.2,0.2-0.3,0.4-0.3s0.3-0.1,0.4-0.1c0.1,0,0.3,0,0.4,0.1
					s0.2,0.1,0.3,0.2c0.1,0.1,0.1,0.2,0.2,0.4C109.3,56.8,109.4,57,109.4,57.2z M108.9,57.2c0-0.1,0-0.2,0-0.3c0-0.1,0-0.2-0.1-0.3
					s-0.1-0.1-0.2-0.2c-0.1,0-0.1-0.1-0.2-0.1c-0.1,0-0.1,0-0.2,0c-0.1,0-0.1,0-0.2,0.1c-0.1,0-0.1,0.1-0.2,0.2
					c-0.1,0.1-0.1,0.1-0.2,0.2V58c0.1,0,0.2,0.1,0.2,0.1s0.2,0,0.2,0c0.2,0,0.4-0.1,0.5-0.2S108.9,57.5,108.9,57.2z"/>
				<path class="st13" d="M112,57.2c0,0.2,0,0.4-0.1,0.5s-0.1,0.3-0.2,0.4c-0.1,0.1-0.2,0.2-0.4,0.3c-0.1,0.1-0.3,0.1-0.5,0.1
					c-0.2,0-0.3,0-0.5-0.1c-0.1-0.1-0.2-0.1-0.3-0.2s-0.2-0.2-0.2-0.4c0-0.2-0.1-0.3-0.1-0.5c0-0.2,0-0.4,0.1-0.5s0.1-0.3,0.2-0.4
					s0.2-0.2,0.4-0.3c0.1-0.1,0.3-0.1,0.5-0.1c0.2,0,0.3,0,0.5,0.1c0.1,0.1,0.2,0.1,0.3,0.2c0.1,0.1,0.2,0.2,0.2,0.4
					C112,56.8,112,57,112,57.2z M111.6,57.2c0-0.1,0-0.3,0-0.4s-0.1-0.2-0.1-0.3c-0.1-0.1-0.1-0.1-0.2-0.2c-0.1,0-0.2-0.1-0.3-0.1
					c-0.1,0-0.2,0-0.3,0.1c-0.1,0-0.2,0.1-0.2,0.2c-0.1,0.1-0.1,0.2-0.1,0.3c0,0.1,0,0.2,0,0.3c0,0.1,0,0.3,0,0.4s0.1,0.2,0.1,0.3
					c0.1,0.1,0.1,0.1,0.2,0.2c0.1,0,0.2,0.1,0.3,0.1c0.1,0,0.2,0,0.3-0.1c0.1,0,0.2-0.1,0.2-0.2s0.1-0.2,0.1-0.3
					C111.6,57.4,111.6,57.3,111.6,57.2z"/>
				<path class="st13" d="M114.8,58l0,1h-0.4v-0.6h-1.8V56h0.4v2h1.1v-2h0.4v2H114.8z"/>
				<path class="st13" d="M117.2,57.1c0,0.1,0,0.1,0,0.1c0,0,0,0.1,0,0.1h-1.7c0,0.2,0.1,0.4,0.2,0.6c0.1,0.1,0.3,0.2,0.6,0.2
					c0.1,0,0.1,0,0.2,0c0.1,0,0.1,0,0.2,0c0.1,0,0.1,0,0.2,0s0.1,0,0.2,0v0.3c-0.1,0-0.2,0.1-0.4,0.1c-0.1,0-0.3,0-0.4,0
					c-0.2,0-0.4,0-0.5-0.1c-0.1-0.1-0.3-0.1-0.4-0.2c-0.1-0.1-0.2-0.2-0.2-0.4c0-0.2-0.1-0.3-0.1-0.5c0-0.2,0-0.3,0.1-0.5
					s0.1-0.3,0.2-0.4c0.1-0.1,0.2-0.2,0.3-0.3c0.1-0.1,0.3-0.1,0.5-0.1c0.2,0,0.3,0,0.4,0.1c0.1,0.1,0.2,0.1,0.3,0.2
					c0.1,0.1,0.2,0.2,0.2,0.3C117.2,56.7,117.2,56.9,117.2,57.1z M116.8,57c0-0.1,0-0.2,0-0.3c0-0.1-0.1-0.2-0.1-0.2
					c-0.1-0.1-0.1-0.1-0.2-0.1s-0.2-0.1-0.3-0.1c-0.1,0-0.2,0-0.2,0.1c-0.1,0-0.1,0.1-0.2,0.1c-0.1,0.1-0.1,0.1-0.1,0.2
					c0,0.1-0.1,0.2-0.1,0.3C115.6,57,116.8,57,116.8,57z"/>
				<path class="st13" d="M119.7,58.3c-0.1,0-0.2,0.1-0.3,0.1c-0.1,0-0.2,0-0.3,0c-0.4,0-0.7-0.1-0.9-0.3c-0.2-0.2-0.3-0.5-0.3-0.9
					c0-0.2,0-0.4,0.1-0.5s0.1-0.3,0.2-0.4c0.1-0.1,0.2-0.2,0.4-0.3c0.1-0.1,0.3-0.1,0.5-0.1c0.1,0,0.2,0,0.3,0s0.2,0,0.3,0.1v0.4
					c-0.1-0.1-0.2-0.1-0.3-0.1s-0.2,0-0.3,0c-0.1,0-0.2,0-0.3,0.1c-0.1,0-0.2,0.1-0.2,0.2c-0.1,0.1-0.1,0.2-0.2,0.3
					c0,0.1-0.1,0.2-0.1,0.4c0,0.3,0.1,0.5,0.2,0.6c0.1,0.1,0.3,0.2,0.6,0.2c0.1,0,0.2,0,0.3,0c0.1,0,0.2-0.1,0.3-0.1L119.7,58.3
					L119.7,58.3z"/>
				<path class="st13" d="M122.4,58.3c-0.1,0-0.2,0.1-0.3,0.1c-0.1,0-0.2,0-0.3,0c-0.4,0-0.7-0.1-0.9-0.3c-0.2-0.2-0.3-0.5-0.3-0.9
					c0-0.2,0-0.4,0.1-0.5s0.1-0.3,0.2-0.4c0.1-0.1,0.2-0.2,0.4-0.3c0.1-0.1,0.3-0.1,0.5-0.1c0.1,0,0.2,0,0.3,0s0.2,0,0.3,0.1v0.4
					c-0.1-0.1-0.2-0.1-0.3-0.1s-0.2,0-0.3,0c-0.1,0-0.2,0-0.3,0.1c-0.1,0-0.2,0.1-0.2,0.2c-0.1,0.1-0.1,0.2-0.2,0.3
					c0,0.1-0.1,0.2-0.1,0.4c0,0.3,0.1,0.5,0.2,0.6c0.1,0.1,0.3,0.2,0.6,0.2c0.1,0,0.2,0,0.3,0c0.1,0,0.2-0.1,0.3-0.1L122.4,58.3
					L122.4,58.3z"/>
			</g>
			<polygon class="st3" points="90.8,81.2 59.7,81.2 64.9,75.6 59.7,70 90.8,70 95.9,75.6 			"/>
			<g>
				<rect x="68.3" y="73.3" class="st12" width="21" height="4.7"/>
				<path class="st13" d="M70.6,76.6h-0.4v-2.7H69v2.7h-0.4v-3.1h2.1V76.6z"/>
				<path class="st13" d="M73.3,75.4c0,0.2,0,0.4-0.1,0.6s-0.1,0.3-0.2,0.4c-0.1,0.1-0.2,0.2-0.4,0.2s-0.3,0.1-0.5,0.1
					c-0.1,0-0.1,0-0.2,0s-0.1,0-0.2,0v1h-0.4v-3.3h0.4l0,0.4c0.1-0.2,0.2-0.3,0.4-0.3s0.3-0.1,0.4-0.1c0.1,0,0.3,0,0.4,0.1
					s0.2,0.1,0.3,0.2c0.1,0.1,0.1,0.2,0.2,0.4C73.3,75,73.3,75.2,73.3,75.4z M72.9,75.4c0-0.1,0-0.2,0-0.3c0-0.1,0-0.2-0.1-0.3
					s-0.1-0.1-0.2-0.2c-0.1,0-0.1-0.1-0.2-0.1c-0.1,0-0.1,0-0.2,0s-0.1,0-0.2,0.1c-0.1,0-0.1,0.1-0.2,0.2c-0.1,0.1-0.1,0.1-0.2,0.2
					v1.2c0.1,0,0.2,0.1,0.2,0.1s0.2,0,0.2,0c0.2,0,0.4-0.1,0.5-0.2S72.9,75.7,72.9,75.4z"/>
				<path class="st13" d="M76,75.4c0,0.2,0,0.4-0.1,0.5c-0.1,0.2-0.1,0.3-0.2,0.4c-0.1,0.1-0.2,0.2-0.4,0.3
					c-0.1,0.1-0.3,0.1-0.5,0.1c-0.2,0-0.3,0-0.5-0.1c-0.1-0.1-0.2-0.1-0.3-0.2s-0.2-0.2-0.2-0.4c0-0.2-0.1-0.3-0.1-0.5
					c0-0.2,0-0.4,0.1-0.5s0.1-0.3,0.2-0.4s0.2-0.2,0.4-0.3c0.1-0.1,0.3-0.1,0.5-0.1c0.2,0,0.3,0,0.5,0.1c0.1,0.1,0.2,0.1,0.3,0.2
					c0.1,0.1,0.2,0.2,0.2,0.4C76,75,76,75.2,76,75.4z M75.6,75.4c0-0.1,0-0.3,0-0.4s-0.1-0.2-0.1-0.3c-0.1-0.1-0.1-0.1-0.2-0.2
					c-0.1,0-0.2-0.1-0.3-0.1c-0.1,0-0.2,0-0.3,0.1c-0.1,0-0.2,0.1-0.2,0.2c-0.1,0.1-0.1,0.2-0.1,0.3c0,0.1,0,0.2,0,0.3
					c0,0.1,0,0.3,0,0.4s0.1,0.2,0.1,0.3c0.1,0.1,0.1,0.1,0.2,0.2c0.1,0,0.2,0.1,0.3,0.1c0.1,0,0.2,0,0.3-0.1c0.1,0,0.2-0.1,0.2-0.2
					s0.1-0.2,0.1-0.3C75.5,75.7,75.6,75.6,75.6,75.4z"/>
				<path class="st13" d="M78.7,76.3l0,1h-0.4v-0.6h-1.8v-2.4H77v2H78v-2h0.4v2H78.7z"/>
				<path class="st13" d="M81.2,75.3c0,0.1,0,0.1,0,0.1c0,0,0,0.1,0,0.1h-1.7c0,0.2,0.1,0.4,0.2,0.6c0.1,0.1,0.3,0.2,0.6,0.2
					c0.1,0,0.1,0,0.2,0c0.1,0,0.1,0,0.2,0c0.1,0,0.1,0,0.2,0s0.1,0,0.2,0v0.3c-0.1,0-0.2,0.1-0.4,0.1c-0.1,0-0.3,0-0.4,0
					c-0.2,0-0.4,0-0.5-0.1c-0.1-0.1-0.3-0.1-0.4-0.2c-0.1-0.1-0.2-0.2-0.2-0.4c0-0.2-0.1-0.3-0.1-0.5c0-0.2,0-0.3,0.1-0.5
					s0.1-0.3,0.2-0.4c0.1-0.1,0.2-0.2,0.3-0.3c0.1-0.1,0.3-0.1,0.5-0.1c0.2,0,0.3,0,0.4,0.1c0.1,0.1,0.2,0.1,0.3,0.2
					c0.1,0.1,0.2,0.2,0.2,0.3C81.2,75,81.2,75.1,81.2,75.3z M80.8,75.2c0-0.1,0-0.2,0-0.3c0-0.1-0.1-0.2-0.1-0.2
					c-0.1-0.1-0.1-0.1-0.2-0.1s-0.2-0.1-0.3-0.1c-0.1,0-0.2,0-0.2,0.1c-0.1,0-0.1,0.1-0.2,0.1c-0.1,0.1-0.1,0.1-0.1,0.2
					c0,0.1-0.1,0.2-0.1,0.3H80.8z"/>
				<path class="st13" d="M83.7,76.5c-0.1,0-0.2,0.1-0.3,0.1c-0.1,0-0.2,0-0.3,0c-0.4,0-0.7-0.1-0.9-0.3c-0.2-0.2-0.3-0.5-0.3-0.9
					c0-0.2,0-0.4,0.1-0.5s0.1-0.3,0.2-0.4c0.1-0.1,0.2-0.2,0.4-0.3c0.1-0.1,0.3-0.1,0.5-0.1c0.1,0,0.2,0,0.3,0s0.2,0,0.3,0.1v0.4
					c-0.1-0.1-0.2-0.1-0.3-0.1s-0.2,0-0.3,0c-0.1,0-0.2,0-0.3,0.1c-0.1,0-0.2,0.1-0.2,0.2c-0.1,0.1-0.1,0.2-0.2,0.3
					c0,0.1-0.1,0.2-0.1,0.4c0,0.3,0.1,0.5,0.2,0.6c0.1,0.1,0.3,0.2,0.6,0.2c0.1,0,0.2,0,0.3,0c0.1,0,0.2-0.1,0.3-0.1L83.7,76.5
					L83.7,76.5z"/>
				<path class="st13" d="M86.3,76.5c-0.1,0-0.2,0.1-0.3,0.1c-0.1,0-0.2,0-0.3,0c-0.4,0-0.7-0.1-0.9-0.3c-0.2-0.2-0.3-0.5-0.3-0.9
					c0-0.2,0-0.4,0.1-0.5s0.1-0.3,0.2-0.4c0.1-0.1,0.2-0.2,0.4-0.3c0.1-0.1,0.3-0.1,0.5-0.1c0.1,0,0.2,0,0.3,0s0.2,0,0.3,0.1v0.4
					c-0.1-0.1-0.2-0.1-0.3-0.1s-0.2,0-0.3,0c-0.1,0-0.2,0-0.3,0.1c-0.1,0-0.2,0.1-0.2,0.2C85.1,74.9,85,75,85,75.1
					c0,0.1-0.1,0.2-0.1,0.4c0,0.3,0.1,0.5,0.2,0.6c0.1,0.1,0.3,0.2,0.6,0.2c0.1,0,0.2,0,0.3,0c0.1,0,0.2-0.1,0.3-0.1L86.3,76.5
					L86.3,76.5z"/>
			</g>
			<polygon class="st3" points="161.3,81.2 130.2,81.2 135.4,75.6 130.2,70 161.3,70 166.4,75.6 			"/>
			<g>
				<rect x="139.6" y="73.3" class="st12" width="19.1" height="6.2"/>
				<path class="st13" d="M142,76.6h-0.4v-2.7h-1.3v2.7h-0.4v-3.1h2.1L142,76.6L142,76.6z"/>
				<path class="st13" d="M144.6,75.4c0,0.2,0,0.4-0.1,0.6c-0.1,0.2-0.1,0.3-0.2,0.4c-0.1,0.1-0.2,0.2-0.4,0.2s-0.3,0.1-0.5,0.1
					c-0.1,0-0.1,0-0.2,0s-0.1,0-0.2,0v1h-0.4v-3.3h0.4l0,0.4c0.1-0.2,0.2-0.3,0.4-0.3s0.3-0.1,0.4-0.1c0.1,0,0.3,0,0.4,0.1
					s0.2,0.1,0.3,0.2c0.1,0.1,0.1,0.2,0.2,0.4C144.6,75,144.6,75.2,144.6,75.4z M144.2,75.4c0-0.1,0-0.2,0-0.3c0-0.1,0-0.2-0.1-0.3
					s-0.1-0.1-0.1-0.2c-0.1,0-0.1-0.1-0.2-0.1c-0.1,0-0.1,0-0.2,0s-0.1,0-0.2,0.1c-0.1,0-0.1,0.1-0.2,0.2c-0.1,0.1-0.1,0.1-0.2,0.2
					v1.2c0.1,0,0.2,0.1,0.2,0.1s0.2,0,0.2,0c0.2,0,0.4-0.1,0.5-0.2S144.2,75.7,144.2,75.4z"/>
				<path class="st13" d="M147.3,75.4c0,0.2,0,0.4-0.1,0.5c-0.1,0.2-0.1,0.3-0.2,0.4c-0.1,0.1-0.2,0.2-0.4,0.3
					c-0.1,0.1-0.3,0.1-0.5,0.1c-0.2,0-0.3,0-0.5-0.1c-0.1-0.1-0.2-0.1-0.3-0.2s-0.2-0.2-0.2-0.4c0-0.2-0.1-0.3-0.1-0.5
					c0-0.2,0-0.4,0.1-0.5s0.1-0.3,0.2-0.4s0.2-0.2,0.4-0.3c0.1-0.1,0.3-0.1,0.5-0.1c0.2,0,0.3,0,0.5,0.1c0.1,0.1,0.2,0.1,0.3,0.2
					c0.1,0.1,0.2,0.2,0.2,0.4C147.3,75,147.3,75.2,147.3,75.4z M146.9,75.4c0-0.1,0-0.3,0-0.4s-0.1-0.2-0.1-0.3
					c-0.1-0.1-0.1-0.1-0.2-0.2c-0.1,0-0.2-0.1-0.3-0.1c-0.1,0-0.2,0-0.3,0.1c-0.1,0-0.2,0.1-0.2,0.2c-0.1,0.1-0.1,0.2-0.1,0.3
					c0,0.1,0,0.2,0,0.3c0,0.1,0,0.3,0,0.4s0.1,0.2,0.1,0.3c0.1,0.1,0.1,0.1,0.2,0.2c0.1,0,0.2,0.1,0.3,0.1c0.1,0,0.2,0,0.3-0.1
					c0.1,0,0.2-0.1,0.2-0.2s0.1-0.2,0.1-0.3C146.9,75.7,146.9,75.6,146.9,75.4z"/>
				<path class="st13" d="M150,76.3l0,1h-0.4v-0.6h-1.8v-2.4h0.4v2h1.1v-2h0.4v2H150z"/>
				<path class="st13" d="M152.5,75.3c0,0.1,0,0.1,0,0.1c0,0,0,0.1,0,0.1h-1.7c0,0.2,0.1,0.4,0.2,0.6c0.1,0.1,0.3,0.2,0.6,0.2
					c0.1,0,0.1,0,0.2,0c0.1,0,0.1,0,0.2,0c0.1,0,0.1,0,0.2,0s0.1,0,0.2,0v0.3c-0.1,0-0.2,0.1-0.4,0.1c-0.1,0-0.3,0-0.4,0
					c-0.2,0-0.4,0-0.5-0.1c-0.1-0.1-0.3-0.1-0.4-0.2c-0.1-0.1-0.2-0.2-0.2-0.4c0-0.2-0.1-0.3-0.1-0.5c0-0.2,0-0.3,0.1-0.5
					s0.1-0.3,0.2-0.4c0.1-0.1,0.2-0.2,0.3-0.3c0.1-0.1,0.3-0.1,0.5-0.1c0.2,0,0.3,0,0.4,0.1c0.1,0.1,0.2,0.1,0.3,0.2
					c0.1,0.1,0.2,0.2,0.2,0.3C152.5,75,152.5,75.1,152.5,75.3z M152.1,75.2c0-0.1,0-0.2,0-0.3c0-0.1-0.1-0.2-0.1-0.2
					c-0.1-0.1-0.1-0.1-0.2-0.1s-0.2-0.1-0.3-0.1c-0.1,0-0.2,0-0.2,0.1c-0.1,0-0.1,0.1-0.2,0.1c-0.1,0.1-0.1,0.1-0.1,0.2
					c0,0.1-0.1,0.2-0.1,0.3H152.1z"/>
				<path class="st13" d="M155,76.5c-0.1,0-0.2,0.1-0.3,0.1c-0.1,0-0.2,0-0.3,0c-0.4,0-0.7-0.1-0.9-0.3c-0.2-0.2-0.3-0.5-0.3-0.9
					c0-0.2,0-0.4,0.1-0.5s0.1-0.3,0.2-0.4c0.1-0.1,0.2-0.2,0.4-0.3c0.1-0.1,0.3-0.1,0.5-0.1c0.1,0,0.2,0,0.3,0s0.2,0,0.3,0.1v0.4
					c-0.1-0.1-0.2-0.1-0.3-0.1s-0.2,0-0.3,0c-0.1,0-0.2,0-0.3,0.1c-0.1,0-0.2,0.1-0.2,0.2c-0.1,0.1-0.1,0.2-0.2,0.3
					c0,0.1-0.1,0.2-0.1,0.4c0,0.3,0.1,0.5,0.2,0.6c0.1,0.1,0.3,0.2,0.6,0.2c0.1,0,0.2,0,0.3,0c0.1,0,0.2-0.1,0.3-0.1L155,76.5
					L155,76.5z"/>
				<path class="st13" d="M157.6,76.5c-0.1,0-0.2,0.1-0.3,0.1c-0.1,0-0.2,0-0.3,0c-0.4,0-0.7-0.1-0.9-0.3c-0.2-0.2-0.3-0.5-0.3-0.9
					c0-0.2,0-0.4,0.1-0.5s0.1-0.3,0.2-0.4c0.1-0.1,0.2-0.2,0.4-0.3c0.1-0.1,0.3-0.1,0.5-0.1c0.1,0,0.2,0,0.3,0s0.2,0,0.3,0.1v0.4
					c-0.1-0.1-0.2-0.1-0.3-0.1s-0.2,0-0.3,0c-0.1,0-0.2,0-0.3,0.1c-0.1,0-0.2,0.1-0.2,0.2c-0.1,0.1-0.1,0.2-0.2,0.3
					c0,0.1-0.1,0.2-0.1,0.4c0,0.3,0.1,0.5,0.2,0.6c0.1,0.1,0.3,0.2,0.6,0.2c0.1,0,0.2,0,0.3,0c0.1,0,0.2-0.1,0.3-0.1L157.6,76.5
					L157.6,76.5z"/>
			</g>
			<line class="st6" x1="188.8" y1="41.4" x2="203.3" y2="75.5"/>
			<g>
				<rect x="102.3" y="73.1" class="st12" width="24.9" height="4.2"/>
				<path class="st13" d="M107.9,76.5h-0.4v-2.7h-1.3v2.7h-0.4v-3.1h2.1V76.5z"/>
				<path class="st13" d="M110.6,75.2c0,0.2,0,0.4-0.1,0.6s-0.1,0.3-0.2,0.4c-0.1,0.1-0.2,0.2-0.4,0.2s-0.3,0.1-0.5,0.1
					c-0.1,0-0.1,0-0.2,0s-0.1,0-0.2,0v1h-0.4v-3.3h0.4l0,0.4c0.1-0.2,0.2-0.3,0.4-0.3s0.3-0.1,0.4-0.1c0.1,0,0.3,0,0.4,0.1
					s0.2,0.1,0.3,0.2c0.1,0.1,0.1,0.2,0.2,0.4C110.6,74.9,110.6,75.1,110.6,75.2z M110.2,75.3c0-0.1,0-0.2,0-0.3
					c0-0.1,0-0.2-0.1-0.3s-0.1-0.1-0.2-0.2c-0.1,0-0.1-0.1-0.2-0.1c-0.1,0-0.1,0-0.2,0s-0.1,0-0.2,0.1c-0.1,0-0.1,0.1-0.2,0.2
					c-0.1,0.1-0.1,0.1-0.2,0.2v1.2c0.1,0,0.2,0.1,0.2,0.1s0.2,0,0.2,0c0.2,0,0.4-0.1,0.5-0.2S110.2,75.6,110.2,75.3z"/>
				<path class="st13" d="M113.2,75.3c0,0.2,0,0.4-0.1,0.5c-0.1,0.2-0.1,0.3-0.2,0.4c-0.1,0.1-0.2,0.2-0.4,0.3
					c-0.1,0.1-0.3,0.1-0.5,0.1c-0.2,0-0.3,0-0.5-0.1c-0.1-0.1-0.2-0.1-0.3-0.2s-0.2-0.2-0.2-0.4c0-0.2-0.1-0.3-0.1-0.5
					c0-0.2,0-0.4,0.1-0.5s0.1-0.3,0.2-0.4s0.2-0.2,0.4-0.3c0.1-0.1,0.3-0.1,0.5-0.1c0.2,0,0.3,0,0.5,0.1c0.1,0.1,0.2,0.1,0.3,0.2
					c0.1,0.1,0.2,0.2,0.2,0.4C113.2,74.9,113.2,75.1,113.2,75.3z M112.8,75.3c0-0.1,0-0.3,0-0.4s-0.1-0.2-0.1-0.3
					c-0.1-0.1-0.1-0.1-0.2-0.2c-0.1,0-0.2-0.1-0.3-0.1c-0.1,0-0.2,0-0.3,0.1c-0.1,0-0.2,0.1-0.2,0.2c-0.1,0.1-0.1,0.2-0.1,0.3
					c0,0.1,0,0.2,0,0.3c0,0.1,0,0.3,0,0.4s0.1,0.2,0.1,0.3c0.1,0.1,0.1,0.1,0.2,0.2c0.1,0,0.2,0.1,0.3,0.1c0.1,0,0.2,0,0.3-0.1
					c0.1,0,0.2-0.1,0.2-0.2s0.1-0.2,0.1-0.3C112.8,75.5,112.8,75.4,112.8,75.3z"/>
				<path class="st13" d="M116,76.1l0,1h-0.4v-0.6h-1.7v0.6h-0.4l0-1h0c0.1,0,0.1,0,0.2,0c0.1,0,0.1-0.1,0.1-0.1
					c0-0.1,0.1-0.1,0.1-0.2s0.1-0.2,0.1-0.4c0-0.1,0.1-0.3,0.1-0.5c0-0.2,0-0.5,0.1-0.8h1.5v2C115.7,76.1,116,76.1,116,76.1z
					 M115.3,74.5h-0.7c0,0.3,0,0.5-0.1,0.7c0,0.2-0.1,0.4-0.1,0.5c0,0.1-0.1,0.2-0.1,0.3c0,0.1-0.1,0.1-0.1,0.2h1.1L115.3,74.5
					L115.3,74.5z"/>
				<path class="st13" d="M118.6,74.1l-0.8,2.1c-0.1,0.2-0.2,0.4-0.3,0.6c-0.1,0.2-0.2,0.3-0.3,0.4c-0.1,0.1-0.2,0.2-0.3,0.2
					c-0.1,0-0.3,0.1-0.4,0.1c0,0-0.1,0-0.1,0c0,0-0.1,0-0.1,0v-0.4c0,0,0.1,0,0.1,0c0,0,0.1,0,0.1,0c0.1,0,0.1,0,0.2,0
					c0.1,0,0.1-0.1,0.2-0.1s0.1-0.1,0.2-0.2c0.1-0.1,0.1-0.2,0.2-0.3l-0.9-2.4h0.5l0.6,1.6l0.1,0.4l0.1-0.4l0.6-1.6L118.6,74.1
					L118.6,74.1z"/>
				<path class="st13" d="M121.2,76.5h-0.6l-1.1-1.3v1.3h-0.4v-2.4h0.4v1.1l1.1-1.1h0.5l-1.1,1.1L121.2,76.5z"/>
				<path class="st13" d="M123.8,74.5h-0.9v2h-0.4v-2h-0.9v-0.4h2.2V74.5z"/>
			</g>
			<line class="st6" x1="114.8" y1="42.8" x2="59.7" y2="70.2"/>
			<line class="st25" x1="130.2" y1="81.4" x2="29.9" y2="96.5"/>
			<line class="st26" x1="4.9" y1="88.1" x2="255.1" y2="88.1"/>
			<line class="st26" x1="4.9" y1="49.4" x2="255.1" y2="49.4"/>
			<line class="st26" x1="4.9" y1="111" x2="255.1" y2="111"/>
			<line class="st27" x1="29.2" y1="81.7" x2="29.2" y2="119.7"/>
			<polygon class="st28" points="8.6,94.7 27.2,94.7 24.9,106.3 6.5,106.3 			"/>
			<g>
				<rect x="6.8" y="97.9" class="st12" width="21" height="4.7"/>
				<path class="st29" d="M14.4,100.3c0,0.1,0,0.3-0.1,0.4c-0.1,0.1-0.1,0.2-0.2,0.3s-0.2,0.1-0.4,0.2s-0.3,0.1-0.5,0.1h-0.8v-3.1
					h0.9c0.7,0,1,0.3,1,0.8c0,0.2,0,0.3-0.1,0.4c-0.1,0.1-0.2,0.2-0.4,0.3c0.1,0,0.2,0,0.2,0.1s0.1,0.1,0.2,0.1
					c0.1,0.1,0.1,0.1,0.1,0.2C14.4,100.1,14.4,100.2,14.4,100.3z M13.9,98.9c0-0.1,0-0.1,0-0.2c0-0.1-0.1-0.1-0.1-0.1
					s-0.1-0.1-0.2-0.1c-0.1,0-0.2,0-0.3,0h-0.4v1h0.4c0.1,0,0.2,0,0.3,0c0.1,0,0.1-0.1,0.2-0.1c0.1,0,0.1-0.1,0.1-0.2
					C13.8,99.1,13.9,99,13.9,98.9z M14,100.3c0-0.1,0-0.1-0.1-0.2c0-0.1-0.1-0.1-0.1-0.2c-0.1,0-0.1-0.1-0.2-0.1c-0.1,0-0.2,0-0.3,0
					h-0.4v1.1h0.4c0.2,0,0.4,0,0.5-0.1C13.9,100.7,14,100.5,14,100.3z"/>
				<path class="st29" d="M17.2,101.2h-0.5l-0.6-0.9l-0.6,0.9h-0.5l0.9-1.2l-0.9-1.2h0.5l0.6,0.9l0.6-0.9h0.5l-0.9,1.2L17.2,101.2z"
					/>
				<path class="st29" d="M19.7,100c0,0.2,0,0.4-0.1,0.5c-0.1,0.2-0.1,0.3-0.2,0.4c-0.1,0.1-0.2,0.2-0.4,0.3
					c-0.1,0.1-0.3,0.1-0.5,0.1c-0.2,0-0.3,0-0.5-0.1c-0.1-0.1-0.2-0.1-0.3-0.2s-0.2-0.2-0.2-0.4c0-0.2-0.1-0.3-0.1-0.5
					c0-0.2,0-0.4,0.1-0.5s0.1-0.3,0.2-0.4s0.2-0.2,0.4-0.3c0.1-0.1,0.3-0.1,0.5-0.1c0.2,0,0.3,0,0.5,0.1c0.1,0.1,0.2,0.1,0.3,0.2
					c0.1,0.1,0.2,0.2,0.2,0.4C19.7,99.7,19.7,99.8,19.7,100z M19.3,100c0-0.1,0-0.3,0-0.4s-0.1-0.2-0.1-0.3
					c-0.1-0.1-0.1-0.1-0.2-0.2c-0.1,0-0.2-0.1-0.3-0.1c-0.1,0-0.2,0-0.3,0.1c-0.1,0-0.2,0.1-0.2,0.2C18,99.5,18,99.6,18,99.7
					c0,0.1,0,0.2,0,0.3c0,0.1,0,0.3,0,0.4s0.1,0.2,0.1,0.3c0.1,0.1,0.1,0.1,0.2,0.2c0.1,0,0.2,0.1,0.3,0.1c0.1,0,0.2,0,0.3-0.1
					c0.1,0,0.2-0.1,0.2-0.2s0.1-0.2,0.1-0.3C19.3,100.3,19.3,100.2,19.3,100z"/>
				<path class="st29" d="M22.5,100.9l0,1h-0.4v-0.6h-1.7v0.6H20l0-1h0c0.1,0,0.1,0,0.2,0c0.1,0,0.1-0.1,0.1-0.1
					c0-0.1,0.1-0.1,0.1-0.2s0.1-0.2,0.1-0.4c0-0.1,0.1-0.3,0.1-0.5c0-0.2,0-0.5,0.1-0.8h1.5v2H22.5z M21.7,99.2h-0.7
					c0,0.3,0,0.5-0.1,0.7c0,0.2-0.1,0.4-0.1,0.5c0,0.1-0.1,0.2-0.1,0.3c0,0.1-0.1,0.1-0.1,0.2h1.1L21.7,99.2L21.7,99.2z"/>
			</g>
		</g>
	</g>
	<g>
		<g>
			<defs>
				<rect id="SVGID_1_" x="-26.3" y="-17.3" width="322" height="161.9"/>
			</defs>
			<clipPath id="SVGID_2_">
				<use xlink:href="#SVGID_1_"  style="overflow:visible;"/>
			</clipPath>
			<g class="st30">
				<path class="st31" d="M71.8,53.9c-1.7,0.2-3.1-0.2-4.5-1.3c-1.3-1.1-2.1-2.4-2.3-4.1l-2.4-21.8L78.8,25l3.1,27.8L71.8,53.9z"/>
				<g>
					<path class="st32" d="M70.9,83.1c-0.5-1.5-0.4-2.9,0.3-4.3c0.7-1.4,1.8-2.4,3.2-2.9c1.5-0.5,3.2-1,4.6-0.3l3.8,3.1
						c3.1,2.7,5.5,4,8.3,5.3c2.8,1.3,6.1,3.8,9.7,4c1.8,0.1,3.3,2.1,4.6,1.9l-4.2,8.5c-1.3,0-2.7,0.8-4.6,0.6
						c-3.8-0.5-7.4-2.1-10.2-3.4c-2.9-1.3-5.8-3.2-8.9-5.7l-3.8-3.5C72.3,85.7,71.4,84.6,70.9,83.1z"/>
				</g>
				<path class="st33" d="M42.7,49.3c-1.4-2.1-2.4-4.2-2.9-6.4c-0.6-2.6-0.5-4.9,0.5-6.8c1.6,2.2,4.2,4.4,7.6,6.4
					c3.4,2,6.4,3.2,9.2,3.6l2.7,6.9c-2.4,0.6-4.7,0.9-6.9,0.8c-2.4-0.1-4.3-0.4-5.7-0.9C45.4,52.2,43.9,51,42.7,49.3z"/>
				<path class="st32" d="M77.1,85.2l1.6,6.4c0.7,2.6,0.5,5.2-0.6,7.7c-1,2.4-2.5,4.4-4.6,5.8l-1.4,7.8L69.9,139l-33.5-6.3L35.2,72
					l22.7-8.1l21.1,11.7L77.1,85.2z"/>
				<g>
					<path class="st34" d="M48.8,50.5c-0.2-1.5,0.1-2.9,1.1-4c0.9-1.2,2.1-1.9,3.6-2.1c1.5-0.2,2.9,0.1,4,1.1
						c1.2,0.9,1.9,2.1,2.1,3.6l2.6,18.1c0.2,1.5-0.2,2.8-1.1,4c-0.9,1.2-2.1,1.9-3.6,2.1c-1.5,0.2-2.8-0.1-4-1
						c-1.2-0.9-1.9-2.1-2.1-3.6L48.8,50.5z"/>
				</g>
				<path class="st34" d="M74.1,15.7c1.5,2.5,2.5,5.3,2.8,8.4l0.9,7.2c0.6,5.2,0.9,8.7,1.1,10.5c0.3,4.6-0.3,8.3-1.5,10.9
					c-1.2,2.5-3.3,4.8-6.5,6.7c-6.8,0.8-13-0.7-18.6-4.4c-5.4-3.6-8.3-8-8.9-13.1l-1.5-14.1c-0.3-3.1,0.1-6,1.3-8.8L74.1,15.7z"/>
				<g>
					<path class="st0" d="M74.5,48.2c-0.1,1.4-0.6,2.6-1.6,3.7c-0.9,1-2.1,1.7-3.5,1.8c-1.4,0.2-2.7-0.2-3.9-1
						c-1.2-0.8-2-1.9-2.4-3.2L74.5,48.2z"/>
				</g>
				<path class="st31" d="M69.9,10.9c5.2,1.4,8.5,3.6,9.8,6.7c0.8,2,1,4,0.8,6c-0.3,2.2-1.3,4.1-2.8,5.8c-1-2.4-2.9-4.8-5.6-7.3
					c-2.6-2.4-5.2-4.1-7.6-5l-1-6.7C65.7,10.2,67.8,10.4,69.9,10.9z"/>
				<path class="st35" d="M34.6,29.9c-0.4-4.5,0.7-8.6,3.2-12.3c2.5-3.6,6-6.2,10.3-7.5C51.7,9,55.6,8.6,59.8,9
					c3.1,0.3,6.9,1,11.5,2.3c-0.5,1.4-1.3,3.4-2.5,6c-1.6,4-4.1,7.7-7.5,11c-3.2,3.2-7,5.9-11.2,8l0.2,2.1c0.1,0.9-0.1,1.7-0.6,2.4
					c-0.6,0.7-1.3,1-2.1,1.1l-5.1,0.6l-4.3-2.7C36,35.2,34.8,31.9,34.6,29.9z"/>
				<path class="st36" d="M61.1,38c-0.3,0.4-0.6,0.6-1,0.6c-0.4,0-0.9-0.1-1.2-0.4c-0.3-0.3-0.5-0.6-0.6-1.1c0-0.4,0.1-0.8,0.3-1.2
					c0.3-0.4,0.7-0.6,1.1-0.6c0.4,0,0.8,0.1,1.2,0.4c0.4,0.3,0.6,0.6,0.6,1.1C61.6,37.3,61.4,37.7,61.1,38z"/>
				<path class="st36" d="M74.2,36.1c-0.3,0.4-0.6,0.6-1.1,0.6c-0.4,0-0.8-0.1-1.2-0.4c-0.3-0.3-0.5-0.6-0.6-1.1
					c-0.1-0.4,0.1-0.8,0.3-1.2c0.3-0.4,0.7-0.6,1.1-0.6c0.4,0,0.8,0.1,1.2,0.4c0.4,0.3,0.6,0.6,0.6,1.1
					C74.7,35.4,74.5,35.8,74.2,36.1z"/>
				<path class="st34" d="M45.6,36.9c1.1,0.9,1.7,2,1.9,3.4l0.6,5L43,46c-1.4,0.2-2.6-0.2-3.7-1.1c-1.1-0.8-1.7-2-1.9-3.4
					c-0.2-1.4,0.2-2.7,1.1-3.8c0.9-1.1,2-1.7,3.4-1.9C43.3,35.7,44.5,36,45.6,36.9z"/>
				<path class="st37" d="M70.8,128.8l1.5,22.9c0.1,3.9-1.3,7.3-4.1,10.1c-2.7,2.8-6,4.3-10,4.3l-15.6,0.2
					c-5.2,0.1-8.6-0.4-10.1-1.3c-2.8-1.8-4.3-6-4.3-12.8c0-6.3,1.3-12,4.1-17.2l4.2-5.8L70.8,128.8z"/>
				<path class="st35" d="M50.8,28.1l3.1,27.8L43.8,57c-1.7,0.2-3.1-0.2-4.5-1.3s-2.1-2.4-2.2-4.1l-2.4-21.8L50.8,28.1z"/>
				<g>
					<path class="st32" d="M46,75.3c-0.1,1.3-0.5,2.7-1.3,4c-0.3,0.5-0.7,1-1.1,1.4L43,81.1l-0.7,0.3l-1.1,0.3c-1,0.3-2,0.7-3.1,1.2
						c-2.6,1.1-5.8,3-9.5,5.6c-2.5,1.7-5.7,4.1-9.4,7l-4.3,3.4l-7.1-8.8l4.3-3.4c3.1-2.5,6.4-5.1,10-7.5c3.9-2.8,7.7-5.1,11.3-6.7
						c1.4-0.6,2.9-1.2,4.4-1.6l1.8-0.5l1.3-0.2c0.3,0,0.8,0,1.3,0.2c0.9,0.2,1.6,0.5,2.2,1C45.6,72.3,46.1,73.6,46,75.3z"/>
				</g>
				<g>
					<path class="st38" d="M45.5,290.4C45.8,289.9,46.5,290.7,45.5,290.4c-1.3-0.5-0.3-1.6-0.9-1.6c-1.7-3.1-3.6-7.1-4.5-10.7
						c-1.8-7.2,2.6-33.3,3.2-38c0.3-2.4,1.4-17.1,2.4-28.2c0.1-0.5,0.2-1,0.2-1.5c0-3.9-2.9-7.1-6.5-7.1c-3.6,0-6.5,3.2-6.5,7.1
						c0,0.5,0,0.9,0.1,1.3l-0.2,0c0.3,3.1,0,6-0.5,7.1c-2,4.4-4.2,13.1-3.5,22.8l4,27.1l-1.1,2.7c0,0,0,0-0.1,0.1
						c-0.4,0.5-0.9,0.5-0.7,1.8l-1.2,2.8l2.8,3.7c1.2,5.7,1.3,13.7,8.6,13l0.1,0.1l3.5,1.1l1.7-0.3l1.2,0.1
						C47.6,293.9,46.7,292.5,45.5,290.4z"/>
					<path class="st39" d="M50.4,292.6c-1.8-1.6-5.6-3.5-5.6-3.5s-3.9,5-7.5,0.5c-3.5-4.4-1.9-9.1-4.9-14c-1.6-2.7-0.8-3.8-0.7-4.2
						c-1.5,0.6-4.3,2.4-3.1,7.7l0.2,0.3l0.8,14.4h1.1l0.4-11c0.6,0.4,1.8,1.9,2.7,7.3c0.8,4.8,4.5,5.1,4.5,5.1s8.9,0.4,11.9-0.6
						C50.2,294.5,52.2,294.2,50.4,292.6z"/>
				</g>
				<g>
					<path class="st38" d="M76.1,289c-0.1-0.1-0.3-0.3-0.4-0.4c-0.1-0.3,0-0.7-0.2-1c-0.9-1.5-2.1-3-3-4.7c-1-1.9-1.9-3.8-2.6-5.9
						c-2.3-7.1,0-33.4,0.3-38.1c0.2-2.4,0.1-17.2,0.2-28.3c0.1-0.5,0.1-1,0-1.5c-0.3-3.9-3.4-6.8-7-6.6c-3.6,0.2-6.2,3.6-5.9,7.5
						c0,0.4,0.1,0.9,0.2,1.3l-0.2,0c0.5,3.1,0.4,6,0,7.1c-1.6,4.5-3.1,13.4-1.8,23l6.1,26.8l-0.9,2.8c0,0,0,0-0.1,0.1
						c-0.4,0.5-0.8,0.5-0.6,1.8l-1,2.9l3.1,3.5c1.7,5.6,2.4,13.6,9.5,12.4l0.1,0.1l3.6,0.8l1.7-0.4l1.2,0c-0.5,0-1.1-1.3-1.4-1.7
						c-0.2-0.4-0.4-0.8-0.7-1.2C76.5,289.3,76.3,289.2,76.1,289z"/>
					<path class="st39" d="M81.3,290.8c-2-1.5-5.8-3.1-5.8-3.1s-3.5,5.2-7.4,1c-3.8-4.1-2.6-8.9-6-13.7c-1.9-2.6-1-3.7-1-4.1
						c-1.5,0.7-4.1,2.7-2.5,7.8l0.2,0.3l1.9,14.4l1.1-0.1l-0.5-11c0.6,0.4,2,1.8,3.2,7.1c1.1,4.8,4.9,4.8,4.9,4.8s9-0.2,11.9-1.5
						C81.3,292.7,83.3,292.2,81.3,290.8z"/>
				</g>
				<polygon class="st37" points="77.4,222.1 26.9,222.1 29.1,147.6 71.8,149.1 				"/>
				<g>
					<path class="st40" d="M22.1,124.6c0,0-0.1,5.4,2.1,9.1c0,0,0.6,2,0.4,3.4c0,0,2.6-0.9,1.9-3.3c0,0-1.6-2.4,0.2-4.6
						c0,0,1-2.8,0.1-4.9c-0.9-2.1-2.3-2.6-3.2-2.6C23.6,121.6,22.1,123,22.1,124.6z"/>
					<g>
						<path class="st40" d="M29.4,133.3c-0.6-0.6-0.6-1.5-0.1-1.9l0,0c0.5-0.4,1.3-0.3,1.9,0.3l4.5,5c0.6,0.6,0.6,1.5,0.1,1.9l0,0
							c-0.5,0.4-1.3,0.3-1.9-0.3L29.4,133.3z"/>
						<path class="st40" d="M30.8,130.6c-0.6-0.7-0.8-1.6-0.3-2.1l0,0c0.5-0.4,1.4-0.2,2,0.5l5,5.5c0.6,0.7,0.7,1.6,0.3,2.1l0,0
							c-0.5,0.4-1.4,0.2-2-0.5L30.8,130.6z"/>
						<path class="st40" d="M32.3,128.3c-0.5-0.5-0.5-1.3,0-1.8l0,0c0.5-0.4,1.3-0.4,1.8,0.2l3.9,4.3c0.5,0.5,0.5,1.3,0,1.8l0,0
							c-0.5,0.4-1.3,0.4-1.8-0.2L32.3,128.3z"/>
						<path class="st40" d="M32.7,125c-0.4-0.5-0.3-1.2,0.2-1.6l0,0c0.5-0.4,1.2-0.4,1.6,0l3.2,3.5c0.4,0.4,0.3,1.2-0.2,1.6l0,0
							c-0.5,0.4-1.2,0.4-1.6,0L32.7,125z"/>
					</g>
					<path class="st40" d="M22.1,124.6c0,0-0.1-3-0.2-5c-0.1-0.8-0.9-4.8-1.2-6.3l0,0c-1.8-2.4-7.6-11-11.2-16.7
						c-0.3-0.3-0.6-0.7-0.9-1.1c-1.8-2.7-1-6.3,1.7-8.1c2.7-1.8,6.3-1,8.1,1.7c0.4,0.6,0.7,1.3,0.8,2c2.5,5.5,6,16.2,7.3,20.1l0,0
						c0.1,0.2,2.7,5.7,2.7,5.7s0,0,1.1,1.5c1.1,1.5,3.9,4.1,4.3,5.7c0.4,1.5-4,10.4-4,10.4C27.2,132.3,22.1,124.6,22.1,124.6z"/>
				</g>
				<g>
					<path class="st40" d="M121.6,67.6c0,0,2.4-4.9,5.9-7.2c0,0,1.4-1.6,1.9-2.8c0,0,1.9,2,0.2,3.8c0,0-2.5,1.4-1.9,4.2
						c0,0-0.4,3-2.2,4.4c-1.8,1.5-3.2,1.3-4,0.9C121.6,70.9,120.8,69.1,121.6,67.6z"/>
					<g>
						<path class="st40" d="M132,63c-0.8,0.3-1.2,1.1-1,1.7l0,0c0.2,0.6,1.1,0.9,1.9,0.6l6.2-2.4c0.8-0.3,1.2-1.1,1-1.7l0,0
							c-0.2-0.6-1.1-0.9-1.9-0.6L132,63z"/>
						<path class="st40" d="M132,66.2c-0.9,0.3-1.4,1.1-1.2,1.7l0,0c0.2,0.6,1.1,0.8,2,0.5l6.9-2.7c0.9-0.3,1.4-1.1,1.2-1.7l0,0
							c-0.2-0.6-1.1-0.8-2-0.5L132,66.2z"/>
						<path class="st40" d="M132.3,68.9c-0.7,0.3-1,1-0.8,1.6l0,0c0.2,0.6,1,0.9,1.7,0.6l5.4-2.1c0.7-0.3,1-1,0.8-1.6l0,0
							c-0.2-0.6-1-0.9-1.7-0.6L132.3,68.9z"/>
						<path class="st40" d="M131.2,72c-0.6,0.2-0.8,0.9-0.6,1.5l0,0c0.2,0.6,0.9,0.9,1.5,0.7l4.4-1.7c0.6-0.2,0.8-0.9,0.6-1.5l0,0
							c-0.2-0.6-0.9-0.9-1.5-0.7L131.2,72z"/>
					</g>
					<path class="st40" d="M121.6,67.6c0,0-1.4,2.7-2.4,4.4c-0.4,0.7-2.9,3.9-3.9,5.1l0,0c-2.6,1.3-11.8,6.4-17.5,9.9
						c-0.4,0.1-0.9,0.3-1.3,0.6c-2.8,1.6-3.7,5.2-2.1,8c1.6,2.8,5.2,3.7,8,2.1c0.6-0.4,1.2-0.9,1.6-1.4c4.7-3.8,12.6-11.7,15.5-14.7
						l0,0c0.1-0.1,4.9-3.9,4.9-3.9s0,0,1.7-0.8c1.7-0.8,5.3-2,6.4-3.1c1.1-1.2,1.1-11.1,1.1-11.1C129.6,63,121.6,67.6,121.6,67.6z"
						/>
				</g>
				<path class="st41" d="M73,42.3c0.2,0.9,1.4,1.5,2.8,1.2c1.4-0.3,2.3-1.2,2.2-2.2c-0.2-0.9-1.4-1.4-2.8-1.2
					C73.8,40.4,72.9,41.3,73,42.3z"/>
				<path class="st41" d="M57.3,45.3c0.2,0.9,1.7,1.4,3.3,1.1c1.7-0.3,2.9-1.3,2.7-2.3c-0.2-0.9-1.7-1.4-3.4-1.1
					C58.4,43.4,57.2,44.4,57.3,45.3z"/>
			</g>
		</g>
		<g>
			<defs>
				<rect id="SVGID_3_" x="-26.3" y="-17.3" width="322" height="161.9"/>
			</defs>
			<clipPath id="SVGID_4_">
				<use xlink:href="#SVGID_3_"  style="overflow:visible;"/>
			</clipPath>
			<g class="st42">
				<path class="st43" d="M226,174.7h7.7c3,0,5.4-2.4,5.4-5.4v-31.6c0-3-2.4-5.4-5.4-5.4H226c-3,0-5.4,2.4-5.4,5.4v31.6
					C220.6,172.3,223,174.7,226,174.7z"/>
				<g>
					<path class="st44" d="M187.1,132.8c0.9-2.2,0.4-4.4-1.1-5.2c0,0-0.6-0.3-1.5-0.9c-0.9-0.6-2.3-1.5-3.7-2.8
						c-1.4-1.3-2.9-2.9-4.2-4.9c-1.3-2-2.3-4.3-2.9-6.8c-1.3-4.9-1.1-10.3-0.2-14.2c0.4-1.9,1-3.5,1.3-4.6c0.4-1.1,0.7-1.7,0.7-1.7
						l-7.7-3.3c0,0-0.3,0.8-0.9,2.1c-0.5,1.4-1.2,3.3-1.7,5.7c-1.1,4.8-1.5,11.6,0.2,18.1c0.9,3.3,2.2,6.4,4,9.1
						c1.7,2.7,3.8,4.9,5.6,6.6c1.9,1.7,3.6,2.9,4.9,3.7c1.3,0.7,2,1.1,2,1.1C183.9,136,186.2,134.9,187.1,132.8z"/>
					<path class="st45" d="M176.7,94.6c0,0,0.1-0.3,0.3-0.8c0.2-0.5,0.5-1.2,0.9-2.1c0.8-1.7,2-3.9,3.5-5.8c1.5-2,3.3-3.6,4.7-4.7
						c0.7-0.5,1.3-1,1.7-1.2c0.4-0.3,0.7-0.4,0.7-0.4c0.9-0.5,1.4-1.6,1.7-3c0.2-1.4,0.1-3.1-0.5-4.7c-0.6-1.6-1.7-2.9-3.2-3.5
						c-1.4-0.7-3.1-0.6-4.6,0.3c0,0-0.4,0.2-1.1,0.7c-0.7,0.4-1.6,1.1-2.7,1.9c-2.1,1.7-4.7,4.1-6.9,6.9c-2.2,2.8-3.9,5.8-5,8.2
						c-0.6,1.2-0.9,2.2-1.2,2.9c-0.3,0.7-0.4,1.1-0.4,1.1L176.7,94.6z"/>
					<path class="st46" d="M179.2,89.3l-11-6.4c0,0-0.5,0.9-1,1.8c-0.4,0.9-0.9,1.8-0.9,1.8l11.6,5.4c0,0,0.3-0.7,0.6-1.3
						C178.8,89.9,179.2,89.3,179.2,89.3z"/>
				</g>
				<path class="st45" d="M198.6,65.4c-5.1,0.5-10.3,1.4-15.1,2.6l1.5,22.3l0,47.5h45l0-47.5l1.5-22.3c-7.7-2-16.3-3.1-24-3.1
					L198.6,65.4z"/>
				<path class="st44" d="M198.6,65.4l8.9-0.4c2.6,0,5.3,0.1,8,0.4c-1.2,3.7-4.6,6.3-8.7,6.3c-4,0-7.4-2.6-8.6-6.2
					C198.4,65.4,198.5,65.4,198.6,65.4z"/>
				<path class="st47" d="M217,82.8v8.8h-4.7v-8.8c0-6.5,2.1-12.4,5.7-17.3c1.8,0.2,3.7,0.5,5.5,0.8C219.5,70.6,217,76.4,217,82.8z"
					/>
				<path class="st48" d="M185,141.2c0,7.5,6.1,13.7,13.7,13.7h17.7c7.5,0,13.7-6.1,13.7-13.7l0-21.8h-45L185,141.2L185,141.2z"/>
				<path class="st47" d="M218.8,154.6c-6.4-1.1-11.2-6.7-11.2-13.4l0-21.8H230l0,21.8C230,147.9,225.2,153.5,218.8,154.6z"/>
				<g>
					<g>
						<path class="st44" d="M207.5,43.3c2.8,0,5.1,2.3,5.1,5.1v17l-8.1,5.1l-2.1-5.1v-17C202.5,45.6,204.7,43.3,207.5,43.3z"/>
					</g>
				</g>
				<path class="st44" d="M187.1,22.2v22.1c0.5,5.3,3,10.2,6.8,13.5c0.6,0.1,9,0,9.2,0c9.4,0,16.9-7.6,16.9-16.9V22.2L187.1,22.2z"
					/>
				<g>
					<g>
						<g>
							<path class="st44" d="M221.7,35c2.6,0,4.7,2.1,4.7,4.7c0,2.6-2.1,4.7-4.7,4.7H214l0.3-9.5L221.7,35L221.7,35z"/>
						</g>
					</g>
				</g>
				<path class="st49" d="M222.7,19v2.9c0,0,0,0.1,0,0.1V35h-1.9v3.4c0,1.6-1.3,2.8-2.8,2.8c-1.6,0-2.8-1.3-2.8-2.8v-2
					c-0.4-2.1-2.2-3.7-4.5-3.7v-5.6c-0.4-2.1-2.2-3.7-4.4-3.7v0H187c-3.1,0-5.7-2.4-6-5.4h7.7l2.1-8.1h18.4c4.4,0,8.3,2.1,10.7,5.4
					L222.7,19z"/>
				<g>
					<path class="st49" d="M192.1,36.1c0.8,0,1.4-0.6,1.4-1.4c0-0.8-0.6-1.4-1.4-1.4c-0.8,0-1.4,0.6-1.4,1.4
						C190.7,35.5,191.3,36.1,192.1,36.1z"/>
					<circle class="st49" cx="203.5" cy="34.7" r="1.4"/>
				</g>
				<path class="st50" d="M203.3,45.7c0,3-2.4,5.5-5.5,5.5c-3,0-5.5-2.4-5.5-5.5H203.3z"/>
				<polygon class="st48" points="190.2,91.7 217,91.7 224.7,121.9 190.2,121.9 				"/>
				<path class="st47" d="M217,91.7l7.7,30.2h-16.9c-0.2-1.2-0.3-2.5-0.3-3.9l0-26.4L217,91.7L217,91.7z"/>
				<g>
					<path class="st51" d="M212.2,88.2h4.8v3.5h-4.8V88.2 M210.9,86.8v1.4v3.5V93h1.4h4.8h1.4v-1.4v-3.5v-1.4H217h-4.8H210.9
						L210.9,86.8z"/>
				</g>
				<path class="st52" d="M192.5,97.8v9.6c0,5,4.1,9.1,9.1,9.1s9.1-4.1,9.1-9.1v-9.6H192.5z"/>
				<line class="st52" x1="207.2" y1="101.7" x2="192.5" y2="101.7"/>
				<path class="st52" d="M223.1,122.9v7.3c0,3.8,3.1,7,7,7"/>
				<line class="st52" x1="230" y1="122.9" x2="185" y2="122.9"/>
				<line class="st53" x1="202.7" y1="157.7" x2="195.4" y2="157.8"/>
				<line class="st53" x1="202.7" y1="162.5" x2="195.4" y2="162.6"/>
				<path class="st47" d="M195,71.1v24.4h-4.8V71.1c0-1.7,0.3-3.3,0.9-4.8c2-0.4,4.1-0.7,6.2-1C195.9,66.9,195,68.9,195,71.1z"/>
				<g>
					<path class="st51" d="M190.2,88.2h4.8v3.5h-4.8V88.2 M188.9,86.8v1.4v3.5V93h1.4h4.8h1.4v-1.4v-3.5v-1.4H195h-4.8H188.9
						L188.9,86.8z"/>
				</g>
				<path class="st44" d="M181.4,134.5c0.7,0.9,2.9,1.9,4.1,1.7l0.5-0.1c1.3-0.2,3.3-0.1,4.6,0.1l1.1,0.3c1.2,0.3,2.5-0.6,2.9-2
					l0.2-0.8c0.3-1.4-0.1-3.3-1-4.3l-2.3-2.4c-0.9-1-2.7-1.6-4-1.4c0,0-0.7,0-3.1,0.4C180.4,126.8,179.2,131.6,181.4,134.5z"/>
				<g>
					<polygon class="st54" points="240.7,178 223.8,149.7 220.4,151.8 237.3,180 					"/>
					<path class="st45" d="M259.7,150.4l-17.2,9.6c-3.6,2.2,0,12.8,1.8,15.9l-4.3,2.6l-16.9-28.3l4.3-2.6c1.8,3.1,9.6,11.2,13.2,9.1
						l16.6-10.6c2.3-1.5,4.1-1.2,4.8,0.1C262.7,147.4,262.1,149.1,259.7,150.4z"/>
				</g>
				<path class="st44" d="M251.6,159.7c1.4-0.3,2.9-1.6,3.3-2.9l1.1-3.1c0.4-1.2,0.2-3.1-0.6-4.1l-1.5-2c-0.8-1-3-7.6-3-7.6
					l-6.5,2.1c0,0-0.2,2.5-0.3,6.3c0,1.3,0.1,3.2,0.9,4.2l0.3,0.4c0.8,1,1.7,2.9,2,4.1l0.3,1.1c0.3,1.2,1.7,2,3.1,1.6L251.6,159.7z"
					/>
				<g>
					<path class="st44" d="M248.6,149c-2.3,0.2-4.3-1.3-4.5-3.4c0,0-0.3-3.2-0.8-7.9c-0.5-4.7-1.3-11-2.5-17.2
						c-1.1-6.2-2.5-12.3-3.8-16.8c-0.6-2.3-1.2-4.1-1.6-5.4c-0.4-1.3-0.6-2-0.6-2l8-2.6c0,0,0.3,0.8,0.7,2.2
						c0.4,1.4,1.1,3.3,1.7,5.7c1.4,4.7,2.8,11.1,4,17.6c1.2,6.4,2,12.9,2.5,17.7c0.5,4.8,0.8,8.1,0.8,8.1
						C252.7,146.9,250.9,148.8,248.6,149z"/>
					<path class="st45" d="M233.6,99.5c0,0-1.8-6-4.1-11.7c-2.3-5.7-5.1-11.3-5.1-11.3c-1.3-2.5,0.1-6,3.1-7.7
						c3.1-1.7,6.7-0.9,8.2,1.9c0,0,0.2,0.4,0.5,1c0.3,0.7,0.8,1.6,1.3,2.8c1.1,2.3,2.4,5.4,3.7,8.5c2.5,6.2,4.5,12.7,4.5,12.7
						L233.6,99.5z"/>
					<polygon class="st46" points="231.3,92.6 243.2,88.3 244.5,92 232.4,96 					"/>
				</g>
				<path class="st48" d="M238.3,20.9c0-2.2-1.8-4-4-4h-17.6c-2.2,0-4,1.8-4,4c0,1.3,1.1,2.4,2.4,2.4h20.8
					C237.3,23.3,238.3,22.2,238.3,20.9z"/>
				<rect x="189.2" y="20.1" class="st48" width="15.4" height="3.3"/>
				<path class="st47" d="M222.8,17.3c0-6.8-5.5-12.3-12.3-12.3h-11.4c-6.8,0-12.3,5.5-12.3,12.3v6h2.8v-2.3c0-3.5,2.9-6.4,6.4-6.4
					h1.7c3.5,0,6.4,2.9,6.4,6.4v2.3h18.6V17.3z"/>
				<line class="st52" x1="222.1" y1="20.3" x2="205.5" y2="20.3"/>
				<path class="st49" d="M189.9,19.9c-3.4-2-4.7-6.2-3.1-9.7l8.5,4.9L189.9,19.9z"/>
				<path class="st55" d="M231.7,132.3c3.1,0,5.8,2,6.8,4.8h-7.7c-3.1,0-5.8-2-6.8-4.8H231.7z"/>
			</g>
		</g>
	</g>
</g>
</svg>
