<?xml version="1.0" encoding="utf-8"?>
<!-- Generator: Adobe Illustrator 15.1.0, SVG Export Plug-In . SVG Version: 6.00 Build 0)  -->
<!DOCTYPE svg PUBLIC "-//W3C//DTD SVG 1.1//EN" "http://www.w3.org/Graphics/SVG/1.1/DTD/svg11.dtd">
<svg version="1.1" id="Layer_1" xmlns="http://www.w3.org/2000/svg" xmlns:xlink="http://www.w3.org/1999/xlink" x="0px" y="0px"
	 width="465px" height="328.332px" viewBox="0 0 465 328.332" enable-background="new 0 0 465 328.332" xml:space="preserve">
<rect x="75.41" y="2.333" fill="#A7A9AC" width="388" height="45.528"/>
<rect x="75.41" y="141.688" fill="#D1D3D4" width="388" height="45.528"/>
<rect x="75.41" y="281.804" fill="#E6E7E8" width="388" height="45.527"/>
<rect x="201.77" y="17.307" fill="none" width="135.281" height="49.188"/>
<g enable-background="new    ">
	<path d="M263.683,19.971h-4.624v9.063h-2.034v-10.85h6.658V19.971z"/>
	<path d="M273.486,24.752c0,0.664-0.094,1.271-0.282,1.822c-0.188,0.551-0.46,1.022-0.813,1.415
		c-0.354,0.393-0.789,0.697-1.304,0.913c-0.516,0.216-1.102,0.324-1.76,0.324c-0.626,0-1.185-0.092-1.678-0.274
		c-0.492-0.183-0.91-0.455-1.253-0.816c-0.343-0.362-0.606-0.816-0.788-1.361c-0.185-0.545-0.274-1.181-0.274-1.905
		c0-0.67,0.097-1.278,0.286-1.826c0.191-0.548,0.465-1.016,0.822-1.402c0.355-0.388,0.793-0.688,1.307-0.9
		c0.517-0.213,1.097-0.319,1.744-0.319c0.631,0,1.191,0.094,1.686,0.278c0.493,0.185,0.909,0.461,1.253,0.826
		s0.604,0.816,0.784,1.355S273.486,24.044,273.486,24.752z M271.378,24.802c0-0.874-0.165-1.531-0.494-1.973
		c-0.328-0.438-0.813-0.66-1.455-0.66c-0.354,0-0.656,0.069-0.905,0.208c-0.249,0.14-0.454,0.328-0.614,0.568
		c-0.16,0.241-0.278,0.521-0.353,0.843c-0.075,0.321-0.112,0.664-0.112,1.029c0,0.88,0.178,1.543,0.531,1.988
		c0.353,0.444,0.838,0.668,1.453,0.668c0.337,0,0.631-0.067,0.879-0.203c0.25-0.136,0.45-0.324,0.605-0.564
		c0.155-0.241,0.271-0.523,0.35-0.852C271.34,25.53,271.378,25.178,271.378,24.802z"/>
	<path d="M283.281,27.334l-0.1,3.826h-1.876v-2.125h-5.113v2.125h-1.868l-0.107-3.826h0.207c0.211,0,0.406-0.03,0.586-0.092
		c0.181-0.061,0.349-0.177,0.503-0.349c0.153-0.172,0.293-0.412,0.415-0.723c0.121-0.311,0.231-0.715,0.331-1.213
		c0.101-0.498,0.186-1.104,0.254-1.816c0.068-0.714,0.126-1.562,0.17-2.54h5.711v6.731L283.281,27.334L283.281,27.334z
		 M280.409,22.303h-1.884c-0.056,0.729-0.111,1.37-0.166,1.922c-0.056,0.551-0.128,1.025-0.217,1.428
		c-0.088,0.401-0.204,0.739-0.349,1.013c-0.145,0.274-0.282,0.497-0.416,0.669h3.03L280.409,22.303L280.409,22.303z"/>
</g>
<rect x="-42.23" y="3.307" fill="none" width="135.279" height="49.188"/>
<g enable-background="new    ">
	<path d="M3.115,15.035V4.186h3.503c1.234,0,2.16,0.217,2.777,0.647c0.617,0.433,0.925,1.084,0.925,1.959
		c0,0.271-0.032,0.535-0.095,0.792c-0.064,0.259-0.162,0.494-0.295,0.71c-0.134,0.217-0.3,0.406-0.499,0.572
		c-0.2,0.166-0.435,0.297-0.705,0.391C8.997,9.302,9.256,9.39,9.502,9.52c0.247,0.13,0.462,0.299,0.647,0.506
		c0.186,0.208,0.332,0.453,0.439,0.734c0.107,0.282,0.162,0.598,0.162,0.946c0,1.106-0.371,1.938-1.111,2.494
		c-0.742,0.556-1.813,0.834-3.212,0.834H3.115z M8.195,7.15c0-0.205-0.033-0.39-0.1-0.556C8.028,6.428,7.922,6.286,7.775,6.17
		C7.629,6.054,7.441,5.964,7.211,5.9C6.981,5.837,6.703,5.805,6.377,5.805H5.14v2.872h1.236c0.332,0,0.613-0.04,0.844-0.12
		c0.229-0.08,0.417-0.191,0.563-0.332C7.93,8.083,8.035,7.922,8.099,7.739C8.163,7.557,8.195,7.36,8.195,7.15z M6.568,13.367
		c0.327,0,0.613-0.042,0.859-0.125s0.452-0.198,0.618-0.345c0.166-0.147,0.292-0.319,0.377-0.52c0.086-0.198,0.13-0.412,0.13-0.639
		c0-0.471-0.177-0.839-0.527-1.104c-0.352-0.267-0.889-0.398-1.614-0.398H5.14v3.13H6.568z"/>
	<path d="M20.131,10.669c0,0.774-0.108,1.444-0.327,2.01c-0.22,0.563-0.523,1.032-0.913,1.406c-0.392,0.373-0.852,0.65-1.383,0.83
		c-0.53,0.181-1.108,0.271-1.734,0.271c-0.21,0-0.42-0.015-0.631-0.042c-0.21-0.027-0.401-0.063-0.573-0.107v3.295h-2.025V6.602
		h1.751l0.051,1.245c0.171-0.217,0.35-0.412,0.534-0.59c0.187-0.178,0.387-0.327,0.603-0.452c0.216-0.124,0.448-0.221,0.697-0.286
		c0.249-0.066,0.527-0.101,0.838-0.101c0.498,0,0.94,0.101,1.328,0.3c0.387,0.198,0.712,0.481,0.976,0.851
		c0.263,0.368,0.463,0.813,0.602,1.337C20.062,9.428,20.131,10.016,20.131,10.669z M18.006,10.752c0-0.465-0.032-0.859-0.1-1.188
		C17.84,9.239,17.745,8.97,17.62,8.76c-0.124-0.211-0.275-0.364-0.456-0.462c-0.18-0.097-0.386-0.145-0.619-0.145
		c-0.343,0-0.671,0.138-0.983,0.414c-0.313,0.277-0.644,0.653-0.992,1.129v3.686c0.161,0.063,0.358,0.111,0.593,0.15
		c0.235,0.038,0.476,0.058,0.718,0.058c0.321,0,0.613-0.065,0.875-0.198c0.264-0.134,0.487-0.321,0.674-0.564
		c0.185-0.243,0.327-0.541,0.427-0.893C17.954,11.583,18.006,11.19,18.006,10.752z"/>
	<path d="M29.237,10.171c0,0.14-0.004,0.318-0.013,0.54s-0.021,0.43-0.037,0.622h-5.545c0,0.371,0.057,0.697,0.17,0.979
		s0.273,0.519,0.48,0.71c0.208,0.189,0.457,0.336,0.747,0.436c0.291,0.101,0.613,0.149,0.967,0.149c0.41,0,0.849-0.032,1.316-0.096
		c0.467-0.063,0.953-0.167,1.457-0.312v1.609c-0.216,0.062-0.451,0.117-0.706,0.166c-0.254,0.051-0.515,0.095-0.78,0.133
		c-0.266,0.039-0.534,0.068-0.805,0.088c-0.271,0.02-0.534,0.029-0.789,0.029c-0.642,0-1.217-0.093-1.727-0.274
		c-0.511-0.182-0.941-0.452-1.295-0.81c-0.354-0.356-0.625-0.798-0.813-1.324c-0.188-0.525-0.282-1.134-0.282-1.826
		c0-0.686,0.095-1.31,0.282-1.871c0.188-0.561,0.454-1.043,0.797-1.443c0.343-0.401,0.76-0.712,1.249-0.931
		c0.49-0.219,1.037-0.328,1.64-0.328c0.599,0,1.127,0.094,1.586,0.278s0.844,0.443,1.153,0.775C28.6,7.803,28.835,8.2,28.996,8.659
		S29.237,9.623,29.237,10.171z M27.178,9.881c0.005-0.332-0.036-0.622-0.125-0.867c-0.09-0.246-0.209-0.449-0.361-0.61
		c-0.152-0.16-0.33-0.279-0.531-0.356S25.742,7.93,25.51,7.93c-0.509,0-0.927,0.17-1.253,0.511c-0.326,0.34-0.52,0.82-0.581,1.439
		H27.178z"/>
	<path d="M37.256,15.035l-0.198-4.44l-0.075-2.051l-0.523,1.411l-1.204,3.104h-1.277L32.89,9.955l-0.457-1.411l-0.059,2.018
		l-0.183,4.475h-1.735l0.531-8.434h2.308l0.955,2.623l0.457,1.461l0.457-1.396l1.004-2.688h2.35l0.54,8.434L37.256,15.035
		L37.256,15.035z"/>
	<path d="M41.099,12.637c0.171-0.395,0.379-0.681,0.623-0.859c0.243-0.179,0.494-0.295,0.755-0.345
		c-0.277-0.044-0.53-0.126-0.76-0.245s-0.428-0.272-0.594-0.461s-0.295-0.403-0.386-0.646c-0.092-0.244-0.137-0.513-0.137-0.806
		c0-0.504,0.09-0.935,0.27-1.291s0.447-0.647,0.801-0.871c0.354-0.225,0.795-0.388,1.324-0.49c0.528-0.103,1.142-0.152,1.838-0.152
		c0.487,0,0.972,0.011,1.453,0.032c0.482,0.022,0.96,0.057,1.437,0.101v8.434h-1.984V11.94h-0.797c-0.244,0-0.461,0.019-0.651,0.058
		s-0.365,0.101-0.522,0.184s-0.296,0.198-0.415,0.349c-0.119,0.149-0.208,0.315-0.271,0.498l-0.729,2.009h-2.274L41.099,12.637z
		 M42.742,9.241c0,0.238,0.045,0.436,0.137,0.589c0.092,0.155,0.226,0.28,0.402,0.374s0.396,0.16,0.656,0.199
		s0.559,0.058,0.896,0.058h0.905V8.013c-0.161-0.018-0.325-0.026-0.494-0.029c-0.168-0.003-0.35-0.004-0.543-0.004
		c-0.786,0-1.309,0.104-1.569,0.314C42.872,8.505,42.742,8.821,42.742,9.241z"/>
</g>
<rect x="201.77" y="157.307" fill="none" width="135.281" height="49.188"/>
<g enable-background="new    ">
	<path d="M238.431,169.035l-3.263-5.246v5.246h-2.074v-10.85h2.074v4.938l3.246-4.938h2.465l-3.686,5.172l3.877,5.678H238.431
		L238.431,169.035z"/>
	<path d="M245.736,169.185c-0.564,0-1.121-0.021-1.672-0.063c-0.551-0.041-1.104-0.104-1.656-0.187v-8.251
		c1.168-0.155,2.336-0.232,3.503-0.232c1.272,0,2.208,0.176,2.806,0.527c0.599,0.351,0.896,0.867,0.896,1.548
		c0,0.222-0.031,0.436-0.096,0.644c-0.063,0.207-0.162,0.398-0.295,0.572c-0.134,0.175-0.3,0.335-0.498,0.481
		c-0.199,0.146-0.438,0.265-0.713,0.354c0.275,0.033,0.535,0.101,0.778,0.199c0.244,0.1,0.459,0.229,0.646,0.39
		c0.185,0.16,0.332,0.355,0.438,0.585c0.107,0.23,0.162,0.486,0.162,0.769c0,0.908-0.367,1.579-1.1,2.014
		C248.203,168.969,247.136,169.185,245.736,169.185z M247.521,162.901c0-0.311-0.136-0.543-0.406-0.701
		c-0.271-0.157-0.676-0.236-1.213-0.236c-0.337,0-0.617,0.005-0.838,0.014c-0.221,0.008-0.443,0.025-0.664,0.054v1.959h1.436
		c0.354,0,0.631-0.026,0.83-0.079s0.361-0.124,0.486-0.216c0.125-0.091,0.217-0.204,0.277-0.34
		C247.491,163.219,247.521,163.067,247.521,162.901z M245.994,167.657c0.625,0,1.096-0.104,1.411-0.315
		c0.315-0.21,0.474-0.494,0.474-0.854c0-0.343-0.149-0.609-0.448-0.801c-0.3-0.19-0.779-0.286-1.443-0.286H244.4v2.142
		c0.266,0.044,0.522,0.074,0.771,0.093C245.422,167.649,245.695,167.657,245.994,167.657z"/>
	<path d="M257.158,169.035l-0.049-1.104c-0.178,0.188-0.363,0.359-0.558,0.519c-0.192,0.157-0.405,0.294-0.639,0.411
		c-0.231,0.115-0.486,0.206-0.76,0.27c-0.274,0.064-0.574,0.097-0.9,0.097c-0.432,0-0.811-0.064-1.138-0.191
		s-0.601-0.305-0.821-0.531c-0.222-0.227-0.389-0.501-0.502-0.821s-0.171-0.676-0.171-1.063c0-0.397,0.085-0.766,0.253-1.104
		c0.169-0.338,0.426-0.628,0.771-0.871c0.347-0.244,0.777-0.436,1.295-0.573c0.518-0.139,1.125-0.208,1.822-0.208h1.104v-0.506
		c0-0.216-0.03-0.411-0.091-0.585c-0.063-0.175-0.16-0.322-0.295-0.444c-0.137-0.122-0.313-0.216-0.527-0.282
		c-0.215-0.065-0.48-0.1-0.797-0.1c-0.498,0-0.989,0.057-1.473,0.17c-0.484,0.113-0.954,0.272-1.408,0.479v-1.619
		c0.404-0.16,0.871-0.293,1.397-0.398c0.529-0.104,1.078-0.157,1.648-0.157c0.625,0,1.162,0.061,1.61,0.18
		c0.447,0.119,0.816,0.297,1.107,0.535c0.291,0.237,0.505,0.534,0.644,0.893c0.139,0.355,0.208,0.772,0.208,1.249v5.761h-1.732
		V169.035z M256.868,165.309h-1.237c-0.343,0-0.633,0.033-0.87,0.1c-0.238,0.067-0.433,0.157-0.581,0.273
		c-0.149,0.115-0.26,0.25-0.327,0.401c-0.07,0.152-0.104,0.314-0.104,0.486c0,0.343,0.11,0.604,0.332,0.784
		c0.223,0.18,0.522,0.27,0.905,0.27c0.281,0,0.575-0.103,0.879-0.308c0.305-0.204,0.64-0.498,1.005-0.879L256.868,165.309
		L256.868,165.309z"/>
	<path d="M268.804,164.669c0,0.774-0.109,1.444-0.328,2.01c-0.22,0.564-0.523,1.032-0.912,1.406c-0.392,0.373-0.853,0.65-1.383,0.83
		c-0.531,0.181-1.109,0.271-1.734,0.271c-0.211,0-0.421-0.015-0.631-0.042c-0.211-0.027-0.402-0.063-0.573-0.107v3.295h-2.025
		v-11.729h1.752l0.051,1.245c0.171-0.217,0.35-0.412,0.535-0.59s0.386-0.327,0.602-0.452c0.216-0.124,0.448-0.221,0.697-0.286
		c0.249-0.066,0.527-0.101,0.838-0.101c0.498,0,0.94,0.101,1.328,0.3c0.388,0.198,0.713,0.481,0.977,0.851
		c0.262,0.368,0.463,0.813,0.603,1.337C268.735,163.428,268.804,164.016,268.804,164.669z M266.679,164.752
		c0-0.465-0.033-0.859-0.101-1.188c-0.065-0.326-0.162-0.595-0.287-0.805c-0.123-0.211-0.274-0.364-0.455-0.462
		c-0.181-0.097-0.387-0.145-0.618-0.145c-0.345,0-0.672,0.138-0.984,0.414c-0.313,0.277-0.644,0.653-0.991,1.129v3.686
		c0.161,0.063,0.358,0.111,0.593,0.15c0.236,0.038,0.476,0.058,0.72,0.058c0.319,0,0.612-0.065,0.875-0.198
		c0.264-0.134,0.487-0.321,0.674-0.564c0.185-0.243,0.327-0.541,0.427-0.893C266.631,165.582,266.679,165.19,266.679,164.752z"/>
	<path d="M275.113,162.303v6.731h-2.059v-6.731h-2.938v-1.701h7.937v1.701H275.113z"/>
	<path d="M285.199,169.035l-0.051-1.104c-0.177,0.188-0.361,0.359-0.557,0.519c-0.193,0.157-0.406,0.294-0.64,0.411
		c-0.231,0.115-0.484,0.206-0.76,0.27c-0.273,0.063-0.573,0.097-0.9,0.097c-0.432,0-0.811-0.064-1.137-0.191
		s-0.601-0.305-0.822-0.531c-0.221-0.227-0.389-0.501-0.502-0.821s-0.17-0.676-0.17-1.063c0-0.397,0.084-0.766,0.254-1.104
		c0.168-0.338,0.426-0.628,0.771-0.871c0.346-0.244,0.776-0.436,1.295-0.573c0.518-0.138,1.125-0.208,1.822-0.208h1.104v-0.506
		c0-0.216-0.03-0.411-0.092-0.585c-0.062-0.175-0.158-0.322-0.295-0.444c-0.136-0.122-0.312-0.216-0.526-0.282
		c-0.215-0.065-0.48-0.1-0.797-0.1c-0.498,0-0.989,0.057-1.474,0.17c-0.485,0.113-0.953,0.272-1.406,0.479v-1.619
		c0.403-0.16,0.869-0.293,1.397-0.398c0.528-0.104,1.078-0.157,1.647-0.157c0.626,0,1.162,0.061,1.61,0.18
		c0.447,0.119,0.817,0.297,1.106,0.535c0.291,0.237,0.506,0.534,0.646,0.893c0.138,0.355,0.207,0.772,0.207,1.249v5.761h-1.732
		V169.035z M284.908,165.309h-1.236c-0.344,0-0.635,0.033-0.872,0.1c-0.236,0.067-0.432,0.157-0.58,0.273
		c-0.149,0.115-0.26,0.25-0.328,0.401c-0.068,0.152-0.104,0.314-0.104,0.486c0,0.343,0.111,0.604,0.332,0.784
		c0.221,0.18,0.523,0.27,0.904,0.27c0.283,0,0.576-0.103,0.881-0.308c0.304-0.204,0.639-0.498,1.004-0.879V165.309z"/>
	<path d="M288.311,167.25c0.228,0.006,0.437-0.008,0.631-0.041c0.194-0.032,0.37-0.123,0.526-0.27
		c0.157-0.146,0.299-0.365,0.424-0.656c0.125-0.29,0.234-0.684,0.332-1.179s0.182-1.109,0.254-1.843
		c0.07-0.733,0.129-1.62,0.174-2.66h5.711v8.434h-1.984v-6.731h-1.893c-0.049,1.058-0.131,1.965-0.244,2.723
		c-0.113,0.759-0.259,1.396-0.436,1.918c-0.179,0.521-0.386,0.933-0.623,1.236c-0.238,0.305-0.506,0.528-0.806,0.673
		c-0.299,0.144-0.627,0.219-0.983,0.224c-0.357,0.006-0.742-0.03-1.158-0.106L288.311,167.25z"/>
	<path d="M300.521,163.764c0.615,0,1.139,0.065,1.574,0.198c0.434,0.134,0.777,0.314,1.032,0.544
		c0.254,0.229,0.438,0.505,0.552,0.822c0.113,0.318,0.171,0.662,0.171,1.033c0,0.432-0.067,0.82-0.204,1.166
		c-0.136,0.346-0.345,0.641-0.626,0.884c-0.282,0.244-0.646,0.432-1.091,0.562c-0.446,0.13-0.969,0.194-1.565,0.194
		c-0.398,0-0.81-0.018-1.233-0.054c-0.422-0.036-0.809-0.079-1.156-0.129v-8.384h1.9v3.194c0.115-0.011,0.228-0.019,0.332-0.023
		S300.417,163.764,300.521,163.764z M300.506,167.74c0.453,0,0.783-0.103,0.987-0.307c0.204-0.205,0.309-0.549,0.309-1.029
		c0-0.15-0.021-0.301-0.06-0.453s-0.105-0.286-0.203-0.402c-0.098-0.115-0.229-0.204-0.397-0.266
		c-0.169-0.061-0.388-0.092-0.652-0.092c-0.11,0-0.219,0.003-0.323,0.009c-0.104,0.006-0.202,0.014-0.29,0.024v2.466
		C300.085,167.724,300.295,167.74,300.506,167.74z M304.373,169.035v-8.434h1.901v8.434H304.373z"/>
</g>
<rect x="201.77" y="298.307" fill="none" width="135.281" height="49.188"/>
<g enable-background="new    ">
	<path d="M248.543,310.035l-0.198-6.135l-0.075-2.448l-0.522,1.66l-1.204,3.694h-1.277l-1.088-3.694l-0.456-1.66l-0.059,2.399
		l-0.184,6.184h-1.734l0.531-10.85h2.308l0.954,3.08l0.457,1.733l0.457-1.635l1.004-3.18h2.351l0.539,10.85L248.543,310.035
		L248.543,310.035z"/>
	<path d="M259.217,305.172c0,0.139-0.004,0.317-0.012,0.54c-0.008,0.221-0.021,0.429-0.037,0.621h-5.545
		c0,0.371,0.058,0.697,0.17,0.979c0.113,0.282,0.273,0.519,0.48,0.71c0.209,0.19,0.457,0.336,0.748,0.436
		c0.291,0.101,0.613,0.149,0.967,0.149c0.41,0,0.848-0.032,1.316-0.096c0.467-0.063,0.952-0.167,1.456-0.312v1.609
		c-0.217,0.062-0.451,0.117-0.706,0.166c-0.255,0.051-0.515,0.095-0.779,0.133c-0.266,0.039-0.535,0.068-0.806,0.088
		c-0.271,0.021-0.534,0.029-0.788,0.029c-0.644,0-1.219-0.092-1.728-0.274c-0.51-0.183-0.94-0.452-1.295-0.81
		c-0.354-0.356-0.626-0.798-0.813-1.324c-0.188-0.525-0.281-1.134-0.281-1.826c0-0.686,0.094-1.31,0.281-1.871
		s0.453-1.043,0.797-1.443c0.344-0.401,0.76-0.711,1.25-0.931c0.489-0.219,1.036-0.327,1.639-0.327c0.598,0,1.127,0.093,1.586,0.277
		c0.459,0.186,0.844,0.443,1.154,0.775c0.31,0.332,0.545,0.729,0.705,1.188S259.217,304.623,259.217,305.172z M257.158,304.882
		c0.006-0.332-0.035-0.622-0.124-0.868s-0.209-0.449-0.36-0.61c-0.151-0.16-0.329-0.279-0.53-0.355
		c-0.203-0.077-0.42-0.116-0.652-0.116c-0.51,0-0.927,0.17-1.254,0.511c-0.326,0.34-0.521,0.82-0.58,1.44L257.158,304.882
		L257.158,304.882z"/>
	<path d="M268.041,309.712c-0.397,0.16-0.811,0.279-1.235,0.356c-0.428,0.077-0.872,0.116-1.338,0.116
		c-0.669,0-1.271-0.091-1.802-0.274c-0.531-0.182-0.981-0.453-1.353-0.813c-0.37-0.36-0.654-0.806-0.852-1.337
		c-0.196-0.531-0.295-1.146-0.295-1.843c0-0.676,0.106-1.287,0.32-1.835c0.213-0.549,0.513-1.016,0.9-1.402
		c0.387-0.389,0.854-0.688,1.397-0.896s1.152-0.314,1.822-0.314c0.547,0,1.008,0.028,1.381,0.087c0.375,0.059,0.711,0.132,1.01,0.22
		v1.968c-0.344-0.172-0.716-0.305-1.117-0.397c-0.399-0.094-0.78-0.143-1.141-0.143c-0.377,0-0.715,0.064-1.014,0.191
		c-0.3,0.127-0.552,0.305-0.755,0.531c-0.204,0.226-0.36,0.502-0.471,0.826c-0.106,0.322-0.161,0.679-0.161,1.065
		c0,0.404,0.059,0.768,0.176,1.088c0.114,0.32,0.279,0.593,0.493,0.817c0.214,0.224,0.47,0.396,0.769,0.515s0.631,0.179,0.996,0.179
		c0.177,0,0.362-0.013,0.561-0.037c0.195-0.024,0.394-0.062,0.588-0.107c0.197-0.047,0.392-0.102,0.582-0.162
		c0.191-0.06,0.369-0.127,0.535-0.199v1.801H268.041z"/>
	<path d="M271.079,307.637c0.171-0.395,0.379-0.681,0.622-0.859c0.244-0.18,0.496-0.295,0.756-0.345
		c-0.276-0.044-0.528-0.126-0.76-0.245c-0.229-0.119-0.428-0.272-0.594-0.461s-0.295-0.403-0.385-0.646
		c-0.093-0.243-0.139-0.513-0.139-0.806c0-0.504,0.09-0.934,0.271-1.291c0.18-0.355,0.445-0.646,0.801-0.871
		c0.354-0.225,0.795-0.388,1.324-0.49c0.526-0.103,1.141-0.152,1.838-0.152c0.485,0,0.971,0.011,1.453,0.033
		c0.479,0.021,0.959,0.056,1.436,0.1v8.434h-1.983v-3.096h-0.798c-0.242,0-0.461,0.02-0.649,0.058
		c-0.191,0.039-0.365,0.101-0.523,0.184s-0.297,0.199-0.416,0.349c-0.118,0.149-0.208,0.315-0.27,0.498l-0.73,2.009h-2.272
		L271.079,307.637z M272.722,304.241c0,0.238,0.045,0.436,0.137,0.589c0.092,0.155,0.226,0.28,0.402,0.374
		c0.178,0.095,0.396,0.16,0.655,0.199c0.261,0.039,0.56,0.059,0.896,0.059h0.903v-2.448c-0.159-0.018-0.323-0.026-0.493-0.029
		c-0.168-0.003-0.351-0.004-0.543-0.004c-0.785,0-1.31,0.105-1.568,0.315C272.852,303.506,272.722,303.821,272.722,304.241z"/>
	<path d="M287.747,312.16h-1.868v-2.125h-6.149v-8.434h1.992v6.731h3.138v-6.731h1.992v6.731h1.005L287.747,312.16z"/>
	<path d="M291.176,304.764c0.613,0,1.14,0.065,1.572,0.199c0.436,0.133,0.779,0.313,1.033,0.544
		c0.255,0.229,0.439,0.504,0.553,0.821c0.114,0.318,0.17,0.662,0.17,1.033c0,0.433-0.067,0.82-0.203,1.166s-0.345,0.642-0.627,0.884
		c-0.281,0.244-0.646,0.432-1.092,0.562s-0.967,0.195-1.563,0.195c-0.398,0-0.81-0.019-1.232-0.055s-0.81-0.079-1.158-0.129v-8.384
		h1.9v3.195c0.117-0.012,0.228-0.02,0.332-0.024S291.07,304.764,291.176,304.764z M291.158,308.74c0.454,0,0.783-0.103,0.988-0.307
		c0.205-0.205,0.307-0.549,0.307-1.029c0-0.149-0.02-0.301-0.058-0.453c-0.038-0.151-0.106-0.286-0.204-0.401
		c-0.096-0.116-0.229-0.205-0.398-0.267c-0.168-0.061-0.385-0.092-0.649-0.092c-0.111,0-0.22,0.003-0.324,0.009
		c-0.105,0.006-0.202,0.015-0.291,0.024v2.466C290.738,308.724,290.948,308.74,291.158,308.74z M295.027,310.035v-8.434h1.9v8.434
		H295.027z"/>
</g>
<g>
	<g>
		<line fill="none" stroke="#A7A9AC" stroke-width="2" stroke-miterlimit="10" x1="244" y1="60.333" x2="97.945" y2="128.244"/>
		<g>
			<path fill="#A7A9AC" d="M87,133.333c4.264-4.307,9.138-10.537,11.49-15.832l0.891,10.075l7.132,7.173
				C100.943,133.137,93.038,132.848,87,133.333z"/>
		</g>
	</g>
</g>
<g>
	<g>
		<line fill="none" stroke="#A7A9AC" stroke-width="2" stroke-miterlimit="10" x1="252" y1="70.333" x2="212.679" y2="118.021"/>
		<g>
			<path fill="#A7A9AC" d="M205,127.333c1.987-5.724,3.696-13.446,3.537-19.239l5.149,8.704l9.524,3.396
				C217.495,121.142,210.238,124.29,205,127.333z"/>
		</g>
	</g>
</g>
<g>
	<g>
		<line fill="none" stroke="#A7A9AC" stroke-width="2" stroke-miterlimit="10" x1="115" y1="197.333" x2="90.206" y2="264.02"/>
		<g>
			<path fill="#A7A9AC" d="M86,275.333c0.004-6.06-0.91-13.916-2.958-19.338l7.716,6.539l10.113,0.09
				C95.779,265.392,89.953,270.743,86,275.333z"/>
		</g>
	</g>
</g>
<g>
	<g>
		<line fill="none" stroke="#A7A9AC" stroke-width="2" stroke-miterlimit="10" x1="142" y1="197.333" x2="117.206" y2="264.02"/>
		<g>
			<path fill="#A7A9AC" d="M113,275.333c0.004-6.06-0.91-13.916-2.958-19.338l7.716,6.539l10.113,0.09
				C122.779,265.392,116.953,270.743,113,275.333z"/>
		</g>
	</g>
</g>
<g>
	<g>
		<line fill="none" stroke="#A7A9AC" stroke-width="2" stroke-miterlimit="10" x1="170" y1="197.333" x2="145.206" y2="264.02"/>
		<g>
			<path fill="#A7A9AC" d="M141,275.333c0.004-6.06-0.91-13.916-2.958-19.338l7.716,6.539l10.113,0.09
				C150.779,265.392,144.953,270.743,141,275.333z"/>
		</g>
	</g>
</g>
<g>
	<g>
		
			<line fill="none" stroke="#A7A9AC" stroke-width="2" stroke-miterlimit="10" x1="197.333" y1="197.333" x2="172.539" y2="264.02"/>
		<g>
			<path fill="#A7A9AC" d="M168.333,275.333c0.004-6.06-0.91-13.916-2.958-19.338l7.716,6.539l10.113,0.09
				C178.113,265.392,172.286,270.743,168.333,275.333z"/>
		</g>
	</g>
</g>
<g>
	<g>
		
			<line fill="none" stroke="#A7A9AC" stroke-width="2" stroke-miterlimit="10" x1="423.036" y1="196.333" x2="446.927" y2="262.971"/>
		<g>
			<path fill="#A7A9AC" d="M451,274.333c-3.898-4.636-9.661-10.056-14.723-12.882l10.114,0.027l7.791-6.446
				C452.072,260.429,451.065,268.276,451,274.333z"/>
		</g>
	</g>
</g>
<g>
	<g>
		<line fill="none" stroke="#A7A9AC" stroke-width="2" stroke-miterlimit="10" x1="397" y1="196.333" x2="420.892" y2="262.971"/>
		<g>
			<path fill="#A7A9AC" d="M424.965,274.333c-3.898-4.636-9.664-10.056-14.723-12.882l10.114,0.027l7.791-6.446
				C426.036,260.429,425.03,268.276,424.965,274.333z"/>
		</g>
	</g>
</g>
<g>
	<g>
		<line fill="none" stroke="#A7A9AC" stroke-width="2" stroke-miterlimit="10" x1="370" y1="196.333" x2="393.892" y2="262.971"/>
		<g>
			<path fill="#A7A9AC" d="M397.965,274.333c-3.898-4.636-9.664-10.056-14.723-12.882l10.114,0.027l7.791-6.446
				C399.036,260.429,398.03,268.276,397.965,274.333z"/>
		</g>
	</g>
</g>
<g>
	<g>
		
			<line fill="none" stroke="#A7A9AC" stroke-width="2" stroke-miterlimit="10" x1="343.667" y1="196.333" x2="367.559" y2="262.971"/>
		<g>
			<path fill="#A7A9AC" d="M371.632,274.333c-3.898-4.636-9.664-10.056-14.723-12.882l10.114,0.027l7.791-6.446
				C372.703,260.429,371.697,268.276,371.632,274.333z"/>
		</g>
	</g>
</g>
<g>
	<g>
		<line fill="none" stroke="#A7A9AC" stroke-width="2" stroke-miterlimit="10" x1="292" y1="69.333" x2="333.132" y2="117.18"/>
		<g>
			<path fill="#A7A9AC" d="M341,126.333c-5.301-2.935-12.621-5.935-18.354-6.764l9.455-3.592l4.969-8.809
				C337.027,112.966,338.895,120.653,341,126.333z"/>
		</g>
	</g>
</g>
<g>
	<g>
		<line fill="none" stroke="#A7A9AC" stroke-width="2" stroke-miterlimit="10" x1="299" y1="59.333" x2="437.248" y2="129.849"/>
		<g>
			<path fill="#A7A9AC" d="M448,135.333c-6.018-0.703-13.929-0.702-19.55,0.705l7.389-6.909l1.256-10.033
				C439.256,124.472,443.897,130.877,448,135.333z"/>
		</g>
	</g>
</g>
<g>
	<g>
		<line fill="none" stroke="#A7A9AC" stroke-width="2" stroke-miterlimit="10" x1="232" y1="196.333" x2="232" y2="264.263"/>
		<g>
			<path fill="#A7A9AC" d="M232,276.333c-2.105-5.681-5.703-12.728-9.512-17.096l9.512,3.44l9.512-3.44
				C237.701,263.606,234.105,270.653,232,276.333z"/>
		</g>
	</g>
</g>
<g>
	<g>
		<line fill="none" stroke="#A7A9AC" stroke-width="2" stroke-miterlimit="10" x1="257" y1="196.333" x2="257" y2="264.263"/>
		<g>
			<path fill="#A7A9AC" d="M257,276.333c-2.105-5.681-5.703-12.728-9.512-17.096l9.512,3.44l9.512-3.44
				C262.701,263.606,259.105,270.653,257,276.333z"/>
		</g>
	</g>
</g>
<g>
	<g>
		<line fill="none" stroke="#A7A9AC" stroke-width="2" stroke-miterlimit="10" x1="284" y1="196.333" x2="284" y2="264.263"/>
		<g>
			<path fill="#A7A9AC" d="M284,276.333c-2.105-5.681-5.703-12.728-9.512-17.096l9.512,3.44l9.512-3.44
				C289.701,263.606,286.105,270.653,284,276.333z"/>
		</g>
	</g>
</g>
<g>
	<g>
		<line fill="none" stroke="#A7A9AC" stroke-width="2" stroke-miterlimit="10" x1="309" y1="196.333" x2="309" y2="264.263"/>
		<g>
			<path fill="#A7A9AC" d="M309,276.333c-2.105-5.681-5.703-12.728-9.512-17.096l9.512,3.44l9.512-3.44
				C314.701,263.606,311.105,270.653,309,276.333z"/>
		</g>
	</g>
</g>
<g>
	<g>
		<line fill="none" stroke="#A7A9AC" stroke-width="2" stroke-miterlimit="10" x1="54" y1="2.333" x2="54" y2="313.263"/>
		<g>
			<path fill="#A7A9AC" d="M54,325.332c-2.105-5.68-5.703-12.727-9.512-17.095l9.512,3.44l9.512-3.44
				C59.701,312.606,56.105,319.653,54,325.332z"/>
		</g>
	</g>
</g>
</svg>
