<?xml version="1.0" encoding="utf-8"?>
<!-- Generator: Adobe Illustrator 15.1.0, SVG Export Plug-In . SVG Version: 6.00 Build 0)  -->
<!DOCTYPE svg PUBLIC "-//W3C//DTD SVG 1.1//EN" "http://www.w3.org/Graphics/SVG/1.1/DTD/svg11.dtd">
<svg version="1.1" id="Layer_1" xmlns="http://www.w3.org/2000/svg" xmlns:xlink="http://www.w3.org/1999/xlink" x="0px" y="0px"
	 width="541px" height="432px" viewBox="369.5 164 541 432" enable-background="new 369.5 164 541 432" xml:space="preserve">
<g id="Layer_4">
	<rect x="364.737" y="156.652" fill="#F0EEEE" width="570.75" height="456.774"/>
</g>
<g id="Layer_5">
</g>
<g id="Layer_6">
</g>
<g>
	<g>
		<defs>
			<rect id="SVGID_1_" x="411.427" y="230.738" width="626.812" height="354.895"/>
		</defs>
		<clipPath id="SVGID_2_">
			<use xlink:href="#SVGID_1_"  overflow="visible"/>
		</clipPath>
		<g id="Layer_1_41_" clip-path="url(#SVGID_2_)">
			<g>
				<path fill="#ECBA7C" d="M974.099,605.84H478.336h-13.285c-0.929,0-1.704-0.861-2.327-2.522
					c-0.672-1.687-1.008-3.592-1.008-5.678V471.42c0-5.899,1.112-8.823,3.334-8.823h522.4c2.228,0,3.339,2.924,3.339,8.823v126.22
					c0,5.454-1.111,8.2-3.339,8.2H974.099z"/>
			</g>
		</g>
	</g>
	<g>
		<defs>
			<rect id="SVGID_3_" x="411.427" y="230.738" width="626.812" height="354.895"/>
		</defs>
		<clipPath id="SVGID_4_">
			<use xlink:href="#SVGID_3_"  overflow="visible"/>
		</clipPath>
		<rect x="461.032" y="570.714" clip-path="url(#SVGID_4_)" fill="#C69B6B" width="530.815" height="35.987"/>
	</g>
	<g>
		<defs>
			<rect id="SVGID_5_" x="411.427" y="230.738" width="626.812" height="354.895"/>
		</defs>
		<clipPath id="SVGID_6_">
			<use xlink:href="#SVGID_5_"  overflow="visible"/>
		</clipPath>
		<rect x="509.015" y="588.209" clip-path="url(#SVGID_6_)" fill="#C69B6B" width="40.485" height="191.932"/>
	</g>
	<g>
		<defs>
			<rect id="SVGID_7_" x="411.427" y="230.738" width="626.812" height="354.895"/>
		</defs>
		<clipPath id="SVGID_8_">
			<use xlink:href="#SVGID_7_"  overflow="visible"/>
		</clipPath>
		<rect x="919.873" y="588.209" clip-path="url(#SVGID_8_)" fill="#C69B6B" width="40.485" height="191.932"/>
	</g>
</g>
<g id="Layer_9">
	<g id="Layer_2">
		<g>
			<rect x="697.35" y="448.673" fill="#292929" width="110.966" height="17.995"/>
			<path fill="#FFFFFF" d="M786.907,413.428h-1.928v-39.953c0.003-0.14-0.043-0.259-0.139-0.358
				c-0.099-0.094-0.218-0.141-0.357-0.137c-0.14-0.004-0.258,0.043-0.356,0.137c-0.095,0.1-0.142,0.219-0.139,0.358v40.448
				c-0.003,0.141,0.044,0.262,0.139,0.359c0.099,0.096,0.217,0.139,0.356,0.136h53.95c0.142,0.003,0.26-0.04,0.359-0.136
				c0.096-0.1,0.139-0.219,0.136-0.359c0.003-0.14-0.04-0.259-0.136-0.356c-0.1-0.096-0.218-0.141-0.359-0.139h-50.146l7.356-9.038
				h5.099c0.13,0.005,0.252-0.03,0.357-0.109l12.813-9.588h9.146c0.107-0.003,0.211-0.029,0.305-0.083
				c0.09-0.048,0.163-0.109,0.221-0.192l7.878-12.399c0.082-0.146,0.102-0.303,0.056-0.468c-0.027-0.165-0.113-0.293-0.245-0.387
				c-0.146-0.083-0.305-0.099-0.471-0.057c-0.166,0.03-0.292,0.115-0.385,0.25l-7.716,12.123h-9.01
				c-0.131-0.005-0.252,0.033-0.357,0.111l-12.813,9.587h-5.183c-0.082,0-0.165,0.018-0.245,0.057
				c-0.086,0.039-0.162,0.095-0.22,0.166l-7.828,9.643C786.951,413.159,786.905,413.287,786.907,413.428z M835.405,355.51v-3.032
				h-44.196v3.032H835.405z M835.405,365.485v-4.519h-44.196v4.519H835.405z M835.405,373.091v-4.521h-44.196v4.521H835.405z
				 M824.383,341.515v-3.749H680.11v3.749H824.383z M781.949,424.616v4.519h57.589v-4.519H781.949z M782.06,418.883v4.52h57.588
				v-4.52H782.06z M781.949,430.125v4.519h57.589v-4.519H781.949z M837.553,335.396v-6.724H668.209v6.724H837.553z M672.093,352.122
				c-0.106,0.098-0.161,0.217-0.166,0.356v59.517c0.005,0.142,0.06,0.262,0.166,0.359c0.098,0.104,0.218,0.159,0.357,0.164h106.028
				c0.14-0.005,0.258-0.061,0.357-0.164c0.106-0.099,0.16-0.221,0.166-0.359v-59.517c-0.006-0.14-0.06-0.259-0.166-0.356
				c-0.1-0.104-0.218-0.161-0.357-0.166H672.45C672.31,351.961,672.19,352.016,672.093,352.122z M686.529,364.686h32.021v7.551
				h-32.021V364.686z M685.484,363.638h-12.51v-2.036h12.51V363.638z M686.529,361.602h32.021v2.036h-32.021V361.602z
				 M672.974,385.736h12.51v2.043h-12.51V385.736z M686.529,376.368h32.021v8.32h-32.021V376.368z M686.529,385.736h32.021v2.043
				h-32.021V385.736z M672.974,375.322v-2.038h12.51v2.038H672.974z M686.529,373.283h32.021v2.038h-32.021V373.283z
				 M686.529,388.823h32.021v9.039h-32.021V388.823z M686.529,398.907h32.021v2.038h-32.021V398.907z M685.484,400.946h-12.51
				v-2.038h12.51V400.946z M686.529,401.994h32.021v9.478h-32.021V401.994z M672.45,415.082v10.526h106.028v-10.526H672.45z
				 M672.45,428.695v4.354h106.028v-4.354H672.45L672.45,428.695z M754.342,363.638h-34.746v-2.036h34.719L754.342,363.638z
				 M755.359,361.602h22.595v2.036h-22.595V361.602z M754.368,372.236h-34.774v-7.55h34.745L754.368,372.236z M755.359,364.686
				h22.595v7.551h-22.539L755.359,364.686z M755.523,385.736h22.431v2.043h-22.431V385.736z M754.396,376.397h0.025l0.059,8.292
				h-34.887v-8.32h34.802L754.396,376.397L754.396,376.397z M755.472,376.397h0.025v-0.028h22.456v8.32h-22.431L755.472,376.397z
				 M754.48,387.779h-34.887v-2.043h34.887V387.779z M754.396,373.283v2.038h-34.801v-2.038H754.396z M755.498,375.322v-2.038
				h22.456v2.038H755.498z M719.594,401.994h34.994l0.057,9.478h-35.051V401.994z M719.594,388.823h34.887l0.081,9.039h-34.966
				v-9.039H719.594z M719.594,398.907h34.967l0.027,2.038h-34.994V398.907L719.594,398.907z M777.954,411.472H755.69l-0.081-9.478
				h22.345V411.472z M777.954,397.862h-22.373l-0.056-9.038h22.429V397.862z M777.954,400.946h-22.345l-0.029-2.038h22.373
				L777.954,400.946L777.954,400.946z M734.336,510.694l17.192-0.109l-0.384,4.572v0.056l-17.47,0.055l0.661-4.518V510.694z
				 M735.135,503.996l16.947-0.081l-0.303,3.884v0.083l-17.166,0.109l0.521-3.94V503.996L735.135,503.996z M733.29,518.132v-0.057
				l17.662-0.054l-0.467,4.904v0.056l-17.72,0.053L733.29,518.132z M709.044,529.321l-2.042,9.477c-0.002,0.02-0.002,0.038,0,0.056
				h-6.723l0.799-9.423L709.044,529.321z M711.164,519.454l-1.683,7.801c-0.068-0.02-0.143-0.029-0.222-0.029l-8.017,0.109
				l0.661-7.77L711.164,519.454z M712.927,511.189l-1.324,6.198c-0.063-0.017-0.127-0.028-0.19-0.028l-9.313,0.112l0.523-6.228
				L712.927,511.189z M699.976,517.471l-27.471,0.302l1.295-6.476l26.699-0.054L699.976,517.471z M698.161,538.853h-29.87
				l1.818-9.094l28.878-0.329L698.161,538.853z M732.326,526.013v-0.055l17.993-0.03l-0.525,5.208l-18.103,0.056L732.326,526.013z
				 M699.149,527.335l-28.544,0.333l1.735-7.771l27.47-0.331L699.149,527.335z M775.5,510.5l65.8-0.304
				c-0.038,0-0.038,0.036,0,0.109l0.717,4.521L775.28,515.1L775.5,510.5z M774.288,515.1l-22.126,0.084l0.415-4.49
				c0-0.038,0-0.072,0-0.109l21.934-0.057L774.288,515.1z M775.144,517.939l27.468-0.108l0.058,5.097l-27.746,0.058L775.144,517.939
				z M773.931,522.982l-22.403,0.056l0.442-4.96l-0.028-0.056l22.21-0.083L773.931,522.982z M775.805,503.777l26.449-0.248
				l0.084,4.077l-26.752,0.111L775.805,503.777z M774.593,507.717l-21.794,0.138l0.303-3.884v-0.058l21.658-0.108L774.593,507.717z
				 M735.961,498.048l103.189-0.498v0.058l0.442,3.084l-104.182,0.688l0.55-3.221V498.048L735.961,498.048z M751.089,531.137
				l0.496-5.124v-0.055l22.207-0.058h0.276l-0.221,5.291h-22.759V531.137L751.089,531.137z M774.784,525.82l27.995-0.058
				l0.058,5.374h-28.244L774.784,525.82z M803.605,517.83l38.906-0.165c-0.037,0.036-0.037,0.07,0,0.107l0.802,5.099l-39.65,0.056
				L803.605,517.83z M803.276,503.584l36.864-0.276c-0.035,0-0.035,0.02,0,0.057l0.608,4.024l-37.39,0.191L803.276,503.584z
				 M803.771,525.762l40.201-0.053c-0.035-0.003-0.035,0.035,0,0.11l0.854,5.292l-40.973,0.022L803.771,525.762z M845.159,323.272
				v122.835H659.721V323.272H845.159z"/>
			<path fill="#6699CC" d="M835.405,373.091h-44.196v-4.521h44.196V373.091z M835.405,365.485h-44.196v-4.519h44.196V365.485z
				 M835.405,355.51h-44.196v-3.032h44.196V355.51z M781.949,430.125h57.589v4.519h-57.589V430.125z M782.06,418.883h57.588v4.52
				H782.06V418.883z M781.949,424.616h57.589v4.519h-57.589V424.616z M725.849,489.752l56.596,0.275v2.864h-57.092L725.849,489.752z
				 M726.54,485.729h55.905v2.864h-56.404L726.54,485.729z M727.254,481.541h55.191v2.698h-55.659L727.254,481.541z
				 M727.888,477.959h54.557v1.928h-54.888L727.888,477.959z M706.753,540.836l9.673-0.057l28.932,0.112
				c0.1,0.037,0.208,0.055,0.332,0.055h36.728l0.8,7.659h-83.818l0.69-7.659h6.64L706.753,540.836z M697.275,548.609h-30.94
				l1.568-7.662h30.063L697.275,548.609z"/>
			<path fill="#009900" d="M788.287,413.428l-0.303,0.386c-0.108,0.13-0.247,0.202-0.413,0.22s-0.312-0.027-0.442-0.137
				c-0.128-0.106-0.201-0.245-0.219-0.41v-0.059c-0.003-0.142,0.041-0.269,0.139-0.385l7.823-9.644
				c0.06-0.071,0.136-0.126,0.222-0.166c0.08-0.038,0.16-0.058,0.245-0.058h5.183l12.813-9.589c0.104-0.074,0.227-0.112,0.357-0.107
				h9.01l7.716-12.125c0.093-0.135,0.219-0.219,0.385-0.248c0.166-0.043,0.324-0.026,0.467,0.055
				c0.136,0.092,0.22,0.224,0.249,0.387c0.044,0.166,0.026,0.322-0.056,0.469l-7.881,12.4c-0.055,0.083-0.128,0.145-0.218,0.191
				c-0.096,0.052-0.197,0.08-0.305,0.083h-9.146l-12.813,9.588c-0.109,0.077-0.228,0.114-0.36,0.11h-5.096L788.287,413.428z"/>
			<path fill="#4E7E9C" d="M824.383,341.515H680.11v-3.749h144.272V341.515L824.383,341.515z M837.553,335.396H668.209v-6.724
				h169.345V335.396z"/>
			<path fill="#333333" d="M788.287,413.428h50.146c0.142-0.002,0.26,0.043,0.359,0.139c0.096,0.099,0.139,0.218,0.136,0.356
				c0.003,0.141-0.04,0.262-0.136,0.359c-0.1,0.096-0.218,0.139-0.359,0.136h-53.95c-0.14,0.003-0.258-0.04-0.356-0.136
				c-0.095-0.1-0.142-0.219-0.139-0.359v-40.448c-0.002-0.14,0.044-0.259,0.139-0.358c0.099-0.094,0.218-0.141,0.356-0.137
				c0.141-0.004,0.259,0.043,0.357,0.137c0.096,0.1,0.142,0.219,0.139,0.358v39.953h1.928v0.055
				c0.018,0.169,0.091,0.308,0.222,0.414c0.128,0.106,0.274,0.152,0.44,0.137c0.168-0.019,0.304-0.09,0.415-0.22L788.287,413.428z
				 M845.872,531.854c-0.034,0.036-0.072,0.072-0.107,0.11c-0.11,0.074-0.222,0.129-0.329,0.166l-114.349,0.108
				c-0.108,0-0.202-0.037-0.274-0.108l4.655-35.05l0.028-0.111l103.739-0.467L845.872,531.854z M733.29,518.132l-0.524,4.902
				l17.72-0.053v-0.056l0.467-4.904l-17.662,0.054V518.132z M735.135,503.996v0.057l-0.522,3.941l17.165-0.111v-0.08l0.302-3.888
				L735.135,503.996z M734.336,510.694v0.056l-0.661,4.518l17.47-0.055v-0.056l0.384-4.572L734.336,510.694z M699.976,517.471
				l0.523-6.228l-26.699,0.056l-1.295,6.474L699.976,517.471z M712.927,511.189l-10.306,0.055l-0.524,6.228l9.314-0.111
				c0.063,0,0.128,0.013,0.19,0.028h0.028l-0.438,2.066h-0.028l-9.258,0.109l-0.661,7.771l8.017-0.108
				c0.078,0,0.154,0.01,0.222,0.027h0.025l-0.439,2.066h-0.025l-7.963,0.109l-0.8,9.422h6.722l-0.412,1.985h0.164l-0.026,0.108
				h-6.64l-0.69,7.661h83.818l-0.8-7.661h-36.728c-0.124,0-0.232-0.018-0.332-0.053l-28.932-0.112l67.977-1.156
				c0.012,0.052,0.021,0.104,0.027,0.167l0.989,9.752c0.021,0.203-0.018,0.396-0.107,0.58c-0.088,0.173-0.216,0.313-0.386,0.412
				c-0.168,0.107-0.354,0.163-0.551,0.164H665.068c-0.211,0.008-0.404-0.049-0.58-0.164c-0.177-0.125-0.306-0.291-0.385-0.495
				c-0.08-0.198-0.099-0.4-0.056-0.605l1.956-9.479v-0.054c0-0.077,0.009-0.151,0.027-0.224c0.008-0.037,0.018-0.07,0.029-0.107
				l2.148-10.855c0-0.167,0.037-0.323,0.109-0.471l1.93-9.038c-0.04-0.116-0.058-0.236-0.055-0.354c0-0.072,0.012-0.145,0.027-0.223
				l1.707-8.596c0.047-0.236,0.168-0.429,0.36-0.578c0.19-0.161,0.413-0.247,0.66-0.248l28.71-0.058
				c0.026-0.001,0.057-0.001,0.083,0l11.434-0.054c0.068,0,0.132,0.01,0.192,0.026h0.028l-0.441,2.065L712.927,511.189
				L712.927,511.189z M697.275,548.609l0.689-7.662h-30.062l-1.569,7.662H697.275z M732.326,526.013l-0.636,5.179l18.104-0.056
				l0.523-5.208l-17.992,0.03L732.326,526.013L732.326,526.013z M698.161,538.853l0.826-9.423l-28.878,0.329l-1.818,9.094H698.161z
				 M699.149,527.335l0.661-7.77l-27.47,0.331l-1.735,7.771L699.149,527.335z M735.961,498.048v0.11l-0.55,3.221l104.182-0.688
				l-0.442-3.084v-0.058L735.961,498.048z M774.593,507.717l0.167-3.912l-21.658,0.108v0.058l-0.303,3.884L774.593,507.717z
				 M775.805,503.777l-0.221,3.94l26.754-0.111l-0.084-4.077L775.805,503.777z M773.931,522.982l0.221-5.043l-22.21,0.083
				l0.028,0.056l-0.442,4.96L773.931,522.982z M775.144,517.939l-0.221,5.043l27.746-0.055l-0.058-5.099L775.144,517.939z
				 M774.288,515.1l0.223-4.572l-21.934,0.057c0,0.037,0,0.072,0,0.109l-0.415,4.49L774.288,515.1z M775.5,510.5l-0.218,4.604
				l66.734-0.276l-0.717-4.52c-0.038-0.075-0.038-0.109,0-0.109L775.5,510.5z M774.784,525.82l-0.191,5.316h28.244l-0.058-5.374
				L774.784,525.82z M751.089,531.137v0.059h22.759l0.221-5.294h-0.276v-0.08l-22.51,0.08v0.057l-0.468,5.179H751.089
				L751.089,531.137z M792.172,466.111h-1.239c-0.292,0.001-0.541-0.099-0.744-0.302c-0.04-0.043-0.078-0.088-0.11-0.138
				c-0.021,0.033-0.051,0.07-0.083,0.107l-0.025,0.028c-0.166,0.163-0.357,0.265-0.581,0.302v27.003
				c0.003,0.291-0.098,0.54-0.302,0.743c-0.205,0.204-0.452,0.304-0.741,0.304c-0.292,0-0.541-0.1-0.744-0.304
				c-0.204-0.203-0.304-0.454-0.302-0.743v-28.049c-0.002-0.292,0.098-0.538,0.302-0.744c0.207-0.204,0.452-0.305,0.744-0.303h0.88
				c0.291-0.002,0.538,0.099,0.744,0.303c0.041,0.041,0.077,0.088,0.11,0.137c0.033-0.049,0.068-0.096,0.11-0.137
				c0.204-0.204,0.453-0.305,0.742-0.303H835.9c0.291-0.002,0.54,0.099,0.744,0.303c0.203,0.206,0.304,0.455,0.304,0.744
				c0,0.291-0.101,0.537-0.304,0.744c-0.204,0.203-0.453,0.304-0.744,0.302L792.172,466.111L792.172,466.111z M803.771,525.762
				l0.083,5.374l40.973-0.024l-0.854-5.292c-0.035-0.072-0.035-0.113,0-0.108L803.771,525.762z M803.276,503.584l0.083,3.996
				l37.388-0.191l-0.606-4.024c-0.035-0.037-0.035-0.057,0-0.057L803.276,503.584z M803.605,517.83l0.058,5.097l39.65-0.056
				l-0.799-5.099c-0.04-0.037-0.04-0.071,0-0.107L803.605,517.83z"/>
			<path fill="#292929" d="M855.243,455.477l-0.084-0.303c-0.077-0.284-0.243-0.494-0.494-0.636
				c-0.265-0.141-0.541-0.17-0.828-0.083c-0.281,0.077-0.492,0.243-0.634,0.496c-0.09,0.169-0.136,0.345-0.138,0.523H727.09
				c0.006-0.204-0.049-0.396-0.164-0.577c-0.167-0.251-0.397-0.409-0.688-0.469c-0.287-0.065-0.556-0.021-0.8,0.138
				c-0.249,0.166-0.406,0.395-0.47,0.688l-0.056,0.221h-67.23c-5.621,0-8.43-2.812-8.43-8.432V321.564
				c0-5.619,2.809-8.429,8.43-8.429H862.57c5.623,0,8.436,2.811,8.436,8.429v125.48c0,5.62-2.813,8.433-8.436,8.433H855.243
				L855.243,455.477z M845.159,323.272H659.721v122.835h185.438V323.272L845.159,323.272z"/>
			<path fill="#666666" d="M672.093,352.122c0.098-0.104,0.218-0.161,0.357-0.166h106.028c0.14,0.004,0.258,0.061,0.357,0.166
				c0.106,0.098,0.16,0.217,0.166,0.356v59.517c-0.006,0.142-0.06,0.262-0.166,0.359c-0.1,0.104-0.218,0.159-0.357,0.164H672.45
				c-0.141-0.005-0.261-0.061-0.357-0.164c-0.106-0.099-0.161-0.221-0.166-0.359v-59.517
				C671.931,352.339,671.985,352.221,672.093,352.122z M685.484,372.236v-7.55h-12.51v7.55H685.484z M672.974,353.004v7.55h45.575
				v-7.55H672.974z M686.529,361.602v2.036h32.021v-2.036H686.529z M685.484,363.638v-2.036h-12.51v2.036H685.484z M686.529,364.686
				v7.551h32.021v-7.551H686.529z M672.974,376.368v8.32h12.51v-8.32H672.974z M686.529,373.283v2.038h32.021v-2.038H686.529z
				 M672.974,375.322h12.51v-2.038h-12.51V375.322z M686.529,385.736v2.043h32.021v-2.043H686.529z M686.529,376.368v8.32h32.021
				v-8.32H686.529z M672.974,385.736v2.043h12.51v-2.043H672.974z M685.484,397.862v-9.039h-12.51v9.039H685.484L685.484,397.862z
				 M685.484,400.946v-2.038h-12.51v2.038H685.484z M686.529,398.907v2.038h32.021v-2.038H686.529z M686.529,388.823v9.039h32.021
				v-9.039H686.529z M672.974,401.994v9.478h12.51v-9.478H672.974z M686.529,401.994v9.478h32.021v-9.478H686.529z M754.313,360.553
				l-0.057-7.55h-34.663v7.55H754.313z M777.954,360.553v-7.55h-22.648l0.054,7.55H777.954z M755.523,385.736v2.043h22.431v-2.043
				H755.523z M755.359,364.686l0.056,7.551h22.538v-7.551H755.359z M754.368,372.236l-0.026-7.55h-34.746v7.55H754.368z
				 M755.359,361.602v2.036h22.595v-2.036H755.359z M754.342,363.638l-0.027-2.036h-34.719v2.036H754.342z M754.396,376.397v-0.028
				h-34.801v8.32h34.885l-0.059-8.292H754.396L754.396,376.397z M754.48,387.779v-2.043h-34.887v2.043H754.48z M755.472,376.397
				l0.053,8.292h22.43v-8.32h-22.454v0.028H755.472L755.472,376.397z M755.498,375.322h22.456v-2.038h-22.456V375.322z
				 M754.396,373.283h-34.801v2.038h34.801V373.283z M777.954,400.946v-2.038h-22.373l0.028,2.038H777.954z M777.954,397.862v-9.039
				h-22.431l0.057,9.039H777.954L777.954,397.862z M777.954,411.472v-9.478h-22.345l0.081,9.478H777.954z M719.594,398.907v2.038
				h34.994l-0.027-2.038H719.594z M719.594,388.823v9.039h34.967l-0.082-9.039H719.594z M719.594,401.994v9.478h35.051l-0.057-9.478
				H719.594z"/>
			<path fill="#66FFFF" d="M672.974,353.004h45.575v7.55h-45.575V353.004z M685.484,372.236h-12.51v-7.55h12.51V372.236z
				 M672.974,376.368h12.51v8.32h-12.51V376.368z M685.484,397.862h-12.51v-9.039h12.51V397.862z M672.974,401.994h12.51v9.478
				h-12.51V401.994z M777.954,360.553h-22.595l-0.054-7.55h22.648V360.553z M754.313,360.553h-34.72v-7.55h34.663L754.313,360.553z"
				/>
			<path fill="#999999" d="M855.243,455.477l24.274,82.136c0.07,0.222,0.07,0.44,0,0.664c-0.073,0.214-0.201,0.387-0.385,0.521
				c-0.191,0.128-0.402,0.193-0.634,0.191l-73.599,0.497l2.48,19.561c0.021,0.212-0.018,0.413-0.109,0.607
				c-0.086,0.188-0.214,0.333-0.388,0.439c-0.177,0.112-0.37,0.166-0.576,0.166h-163.78c-0.223,0.003-0.425-0.062-0.604-0.192
				c-0.192-0.133-0.33-0.307-0.413-0.524c-0.079-0.219-0.088-0.438-0.028-0.661l25.901-92.248c0.066-0.225,0.195-0.407,0.385-0.552
				c0.188-0.145,0.4-0.217,0.635-0.222l54.556-1.128l1.957-9.258l0.054-0.221c0.063-0.295,0.221-0.523,0.47-0.688
				c0.245-0.157,0.513-0.203,0.799-0.139c0.294,0.063,0.521,0.22,0.688,0.47c0.115,0.183,0.17,0.375,0.166,0.578
				c-0.003,0.071-0.011,0.146-0.028,0.221l-2.178,10.193c-0.011,0.03-0.021,0.057-0.027,0.082v0.084l-15.487,71.888l94.152-0.604
				c0.088-0.01,0.17-0.01,0.248,0l73.292-0.497l-23.942-81.064c-0.03-0.101-0.051-0.203-0.056-0.301
				c0.002-0.182,0.048-0.354,0.138-0.523c0.142-0.255,0.351-0.419,0.632-0.496c0.289-0.087,0.563-0.058,0.83,0.083
				c0.251,0.142,0.417,0.352,0.494,0.635L855.243,455.477z M672.45,428.695h106.028v4.354H672.45V428.695z M672.45,415.082h106.028
				v10.526H672.45V415.082z M845.433,532.13c0.14,0.002,0.259-0.043,0.358-0.139c0.03-0.031,0.059-0.067,0.08-0.11l0.167,0.8H719.29
				l6.338-35.598h9.837l-4.655,35.049c0.072,0.07,0.165,0.107,0.275,0.107L845.433,532.13z M713.367,509.124l9.122-42.239
				l-53.234,1.101l-25.294,90.129h161.104l-2.37-18.627l-18.293,0.14l-67.977,1.153l-9.673,0.056h-0.163l0.412-1.983
				c-0.002-0.018-0.002-0.035,0-0.055l2.042-9.476h0.025l0.439-2.067h-0.025l1.681-7.801h0.029l0.44-2.066h-0.03l1.324-6.199h0.027
				l0.441-2.063L713.367,509.124L713.367,509.124z M715.103,498.679h-39.898l3.361-18.242h37.53L715.103,498.679z M850.171,465.118
				h-6.39l-0.963-3.636h6.419L850.171,465.118z M835.018,462.419h-48.936l-0.163-4.904h47.83L835.018,462.419z M846.039,473.771
				l-0.88-3.417l6.362,0.055l0.852,3.362H846.039L846.039,473.771z M854.828,483.306h-6.283l-1.129-4.271l6.311-0.027
				L854.828,483.306z M858.191,496.42l0.936,3.637h-6.172l-0.963-3.637H858.191z M850.724,491.625l-0.965-3.69h6.254l0.936,3.69
				H850.724z M858.604,521.606l-1.21-4.632h6.089l1.182,4.632H858.604z M861.882,510.805h-6.114l-1.214-4.632h6.144L861.882,510.805
				z M867.447,532.406h-6.006l-1.155-4.408h6.032L867.447,532.406z"/>
			<path fill="#FFCC33" d="M744.477,458.728h4.188l-1.434,16.313h-4.573L744.477,458.728z M762.223,458.728l-0.39,7.66h-4.571
				l0.77-7.66H762.223z M768.447,462.143h-4.188v-3.414h4.188V462.143z M742.658,458.728l-1.433,14.492h-4.574l1.817-14.492H742.658
				z M751.2,458.728h4.188l-0.938,13.556h-4.573L751.2,458.728z"/>
			<path fill="#CCFFCC" d="M853.065,455.477c0.005,0.098,0.025,0.201,0.058,0.3l23.943,81.064l-73.295,0.496
				c-0.078-0.01-0.16-0.01-0.246,0l-94.154,0.604l15.487-71.887v-0.083c0.007-0.026,0.017-0.053,0.027-0.083l2.178-10.193
				c0.018-0.074,0.025-0.149,0.028-0.221L853.065,455.477L853.065,455.477z M768.447,462.143v-3.414h-4.188v3.414H768.447z
				 M762.223,458.728h-4.191l-0.77,7.66h4.571L762.223,458.728z M744.477,458.728l-1.819,16.313h4.573l1.434-16.313H744.477z
				 M742.658,458.728h-4.189l-1.817,14.492h4.574L742.658,458.728z M751.2,458.728l-1.323,13.556h4.574l0.938-13.556H751.2z
				 M845.872,531.881v-0.026l-6.639-35.352l-103.739,0.468l-0.029,0.112h-9.837l-6.338,35.598h126.749L845.872,531.881z
				 M727.888,477.959l-0.331,1.928h54.888v-1.928H727.888z M727.254,481.541l-0.466,2.698h55.657v-2.698H727.254z M726.54,485.729
				l-0.499,2.864h56.404v-2.864H726.54z M725.849,489.752l-0.496,3.141h57.092v-2.862L725.849,489.752z M850.171,465.118
				l-0.934-3.636h-6.419l0.963,3.636H850.171z M789.992,465.781l8.93,7.824h5.399l12.952,6.725h9.367l9.755,10.802l0.273-1.488
				l-9.754-10.802h-9.367l-12.949-6.724h-5.402l-7.027-6.007h43.729c0.294,0.001,0.541-0.099,0.744-0.302
				c0.206-0.208,0.307-0.455,0.304-0.744c0-0.291-0.1-0.54-0.304-0.745c-0.203-0.202-0.452-0.306-0.744-0.303h-44.965
				c-0.292-0.003-0.541,0.101-0.744,0.303c-0.04,0.041-0.078,0.088-0.11,0.137c-0.033-0.049-0.067-0.096-0.111-0.137
				c-0.205-0.202-0.455-0.306-0.744-0.303h-0.88c-0.291-0.003-0.54,0.101-0.743,0.303c-0.204,0.206-0.306,0.454-0.302,0.745v28.049
				c-0.004,0.29,0.098,0.539,0.302,0.744c0.205,0.201,0.452,0.304,0.743,0.304c0.29,0,0.539-0.103,0.744-0.304
				c0.202-0.205,0.302-0.455,0.302-0.744v-27.003c0.219-0.038,0.413-0.138,0.578-0.302L789.992,465.781z M835.018,462.419
				l-1.269-4.904h-47.833l0.166,4.904H835.018z M846.039,473.771h6.334l-0.852-3.362l-6.362-0.055L846.039,473.771z M858.191,496.42
				h-6.199l0.963,3.637h6.172L858.191,496.42z M854.828,483.306l-1.102-4.299l-6.311,0.026l1.129,4.272H854.828L854.828,483.306z
				 M850.724,491.625h6.225l-0.936-3.69h-6.254L850.724,491.625z M858.604,521.606h6.061l-1.182-4.632h-6.089L858.604,521.606z
				 M861.882,510.805l-1.185-4.632h-6.144l1.214,4.632H861.882z M867.447,532.406l-1.129-4.408h-6.032l1.155,4.408H867.447z"/>
			<path fill="#99CCCC" d="M784.402,539.623l18.293-0.138l2.37,18.627H643.961l25.294-90.127l53.234-1.104l-9.122,42.239
				c-0.06-0.02-0.124-0.026-0.191-0.026l-11.434,0.055c-0.027-0.002-0.057-0.002-0.083,0l-28.71,0.057
				c-0.249,0.001-0.469,0.087-0.661,0.248c-0.191,0.149-0.313,0.343-0.358,0.578l-1.708,8.596c-0.016,0.074-0.026,0.148-0.028,0.223
				c-0.002,0.118,0.017,0.241,0.056,0.357l-1.931,9.035c-0.072,0.147-0.107,0.305-0.107,0.471l-2.149,10.855
				c-0.012,0.037-0.021,0.072-0.029,0.107c-0.019,0.07-0.027,0.146-0.027,0.224v0.054l-1.956,9.479
				c-0.042,0.209-0.024,0.41,0.055,0.605c0.081,0.204,0.21,0.37,0.385,0.495c0.179,0.115,0.369,0.172,0.58,0.164h119.306
				c0.196-0.001,0.382-0.056,0.552-0.164c0.17-0.099,0.298-0.239,0.386-0.412c0.09-0.185,0.125-0.377,0.107-0.577l-0.989-9.755
				C784.422,539.73,784.411,539.675,784.402,539.623z M715.103,498.679l0.992-18.242h-37.529l-3.361,18.242H715.103z"/>
			<path fill="#00CC33" d="M792.172,466.111l7.026,6.007h5.4l12.949,6.724h9.37l9.754,10.802l-0.276,1.488l-9.755-10.803h-9.367
				l-12.952-6.724h-5.397l-8.929-7.824c0.032-0.039,0.062-0.075,0.083-0.109c0.032,0.05,0.07,0.095,0.11,0.138
				c0.206,0.204,0.455,0.304,0.744,0.302H792.172L792.172,466.111z"/>
		</g>
	</g>
</g>
<g>
	<rect x="441.713" y="547.779" fill="#2C3D5B" width="141.958" height="77.31"/>
	<rect x="441.713" y="538.781" fill="#304779" width="141.958" height="47.818"/>
	<path fill="#F8A586" d="M530.212,358.986c-1.466,4.638-4.166,8.418-8.098,11.353c-3.989,3.052-8.536,4.575-13.64,4.575
		c-4.926,0-9.385-1.469-13.372-4.402c-3.815-2.813-6.542-6.569-8.186-11.263l23.32-1.229
		C516.102,358.02,522.76,358.342,530.212,358.986z"/>
	<g>
		<g>
			<path fill="#F8A586" d="M510.235,304.074c3.638,0,6.63,1.262,8.978,3.787c2.521,2.347,3.782,5.309,3.782,8.886v42.505
				l-20.239,12.761l-5.192-12.763v-42.503c0-3.519,1.231-6.481,3.694-8.886C503.723,305.335,506.717,304.074,510.235,304.074z"/>
		</g>
	</g>
	<g>
		<path fill="#11132D" d="M471.693,286.127c-0.938,0-1.818-0.352-2.638-1.057c-0.646-0.764-0.971-1.645-0.971-2.643
			c0-0.88,0.324-1.699,0.971-2.462c0.7-0.645,1.582-0.969,2.638-0.969c1.055,0,1.907,0.324,2.551,0.969
			c0.704,0.704,1.057,1.526,1.057,2.462c0,1.06-0.353,1.938-1.057,2.643C473.542,285.775,472.691,286.127,471.693,286.127z"/>
		<path fill="#11132D" d="M500.115,286.127c-0.998,0-1.847-0.352-2.551-1.057c-0.646-0.764-0.967-1.645-0.967-2.643
			c0-0.88,0.321-1.699,0.967-2.462c0.646-0.645,1.495-0.969,2.551-0.969c1.057,0,1.877,0.324,2.466,0.969
			c0.761,0.704,1.142,1.526,1.142,2.462c0,1.06-0.38,1.938-1.142,2.643C501.992,285.775,501.172,286.127,500.115,286.127z"/>
	</g>
	<path fill="#F5E7E7" d="M476.181,319.565c-2.639-2.642-3.958-5.839-3.958-9.593h27.367c0,3.754-1.321,6.952-3.961,9.593
		c-2.698,2.699-5.923,4.047-9.679,4.047C482.137,323.613,478.879,322.264,476.181,319.565z"/>
	<path fill="#6D3E3E" d="M472.838,245.47c-4.282-2.462-7.157-6.013-8.624-10.646c-1.466-4.636-1.231-9.211,0.703-13.728
		l21.296,12.318L472.838,245.47z"/>
	<path fill="#FFD39B" d="M519.917,364.706c-2.699,2.697-5.984,4.047-9.855,4.047c-3.931,0-7.248-1.35-9.945-4.047
		c-2.757-2.759-4.135-6.071-4.135-9.942v-19.801h28.071v19.801C524.052,358.635,522.674,361.948,519.917,364.706z"/>
	<path fill="#FFD39B" d="M533.379,281.373c0-4.398,1.437-8.153,4.311-11.264c3.051-3.11,6.603-4.663,10.648-4.663
		c4.108,0,7.626,1.553,10.56,4.663c2.934,3.228,4.4,6.982,4.4,11.264c0,4.343-1.467,8.125-4.4,11.353
		c-2.934,3.11-6.452,4.663-10.56,4.663c-4.046,0-7.597-1.553-10.648-4.663C534.815,289.616,533.379,285.832,533.379,281.373z"/>
	<path fill="#FFD39B" d="M483.659,217.75c6.631-5.218,15.021-7.832,25.171-7.832h2.64c10.208,0,18.623,2.614,25.252,7.832
		c6.984,5.634,10.471,13.172,10.471,22.618v68.286c0,9.795-3.486,18.214-10.471,25.253c-6.98,6.923-15.399,10.385-25.252,10.385
		h-2.64c-9.858,0-18.246-3.462-25.171-10.385c-6.979-6.979-10.47-15.399-10.47-25.253v-68.286
		C473.19,230.864,476.678,223.325,483.659,217.75z"/>
	<path fill="#FFD39B" d="M483.659,268.349c2.937,3.229,4.401,7.012,4.401,11.352c0,4.282-1.465,8.037-4.401,11.264
		c-2.931,3.108-6.452,4.664-10.557,4.664c-4.046,0-7.599-1.555-10.647-4.664c-2.876-3.108-4.312-6.864-4.312-11.264
		c0-4.458,1.438-8.242,4.312-11.352c3.048-3.107,6.602-4.66,10.647-4.66C477.208,263.689,480.728,265.241,483.659,268.349z"/>
	<path fill="#844B4B" d="M545.079,262.63c2.291,2.465,3.521,11.294,3.698,26.488c0.177,7.627,0.09,14.988-0.265,22.088
		c0.176,15.194-2.583,25.637-8.27,31.327c-2.641,2.642-6.044,4.488-10.208,5.541c-3.519,0.942-8.126,1.411-13.816,1.411h-11
		c-5.456,0-10.031-0.499-13.726-1.496c-3.991-1.117-7.363-3.082-10.121-5.896c-5.515-5.868-8.359-16.721-8.535-32.558
		c-0.234-6.864-0.321-13.962-0.263-21.296c0.292-14.61,1.525-23.144,3.695-25.609v31.15c0,5.456,1.875,10.211,5.631,14.259
		c3.696,3.93,8.154,5.896,13.375,5.896h30.886c5.222,0,9.68-1.966,13.375-5.896c3.696-3.933,5.542-8.683,5.542-14.259V262.63
		L545.079,262.63z"/>
	<path fill="#844B4B" d="M539.537,239.4c-3.695-4.342-8.154-6.512-13.375-6.512h-30.886c-5.22,0-9.68,2.17-13.375,6.512
		c-3.755,4.398-5.631,9.561-5.631,15.488v33.879c-2.17-2.521-3.695-13.199-4.577-32.031c-0.235-5.867-0.412-12.202-0.528-19.008
		l-0.086-8.45c0-4.457,0.645-7.742,1.936-9.853c1.173-1.761,2.96-2.728,5.369-2.906c1.817-0.118,4.691,0.119,8.623,0.706
		c4.811,0.645,8.566,0.967,11.264,0.967l25.256-13.462c8.975,0,15.515,1.67,19.622,5.014c4.751,3.873,7.128,10.387,7.128,19.536
		l-0.528,27.456c-0.878,18.891-2.433,29.566-4.668,32.032v-33.879C545.079,248.901,543.233,243.74,539.537,239.4z"/>
	<path fill="#844B4B" d="M529.418,299.941c5.166,2.287,7.746,6.717,7.746,13.287c0,7.217-2.58,13.435-7.746,18.658
		c-5.163,5.1-11.409,7.653-18.742,7.653c-7.217,0-13.436-2.555-18.656-7.653c-5.163-5.164-7.745-11.383-7.745-18.658
		c0-6.57,2.582-11,7.745-13.287c3.755-1.701,9.972-2.552,18.656-2.552C519.417,297.388,525.668,298.24,529.418,299.941z"/>
	<path fill="#FFD39B" d="M526.251,314.549l2.024,0.086c0,1.938-1.615,3.549-4.841,4.839c-3.109,1.292-6.982,1.938-11.615,1.938
		c-4.578,0-8.45-0.645-11.616-1.938c-3.168-1.29-4.751-2.902-4.751-4.839c2.229,0,4.575-0.262,7.039-0.79
		c4.928-1.117,8.035-3.081,9.328-5.896c1.642,2.756,4.896,4.723,9.768,5.896C523.289,314.254,524.842,314.49,526.251,314.549z"/>
	<path fill="#6D3E3E" d="M480.405,199.802c2.756-0.765,5.689-1.202,8.798-1.32c6.514-0.177,10.884,1.377,13.112,4.664
		c0.47-2.347,0.03-5.162-1.318-8.447l-2.111-4.225c2.58-0.058,5.367,0.294,8.356,1.058c5.986,1.583,9.887,4.429,11.706,8.534
		c1.525-0.35,2.815-1.233,3.872-2.636l1.232-2.027c0.761,0.236,2.11,0.824,4.048,1.763c3.521,1.699,7.39,4.225,11.613,7.567
		c4.696,3.696,7.863,8.39,9.506,14.081c0.823,2.872,1.145,5.337,0.968,7.388l-0.264,23.32l-0.616-1.581
		c-0.706-1.467-1.5-2.727-2.376-3.786c-2.933-3.871-6.862-6.187-11.792-6.951c-4.988-0.88-10.353-0.146-16.1,2.202
		c-2.818,1.113-5.225,2.347-7.217,3.695c-13.083-6.747-23.761-7.889-32.031-3.434c-2.642,1.466-4.811,3.376-6.512,5.721
		c-0.882,1.116-1.498,2.141-1.848,3.079l-5.106-37.045c1.353-0.82,3.11-1.232,5.28-1.232c4.399,0,8.743,2.026,13.025,6.072
		c-0.764-3.755-1.73-7.627-2.904-11.616L480.405,199.802z"/>
	<path fill="#020303" d="M525.459,268.174c-0.646-0.528-0.967-1.232-0.967-2.111c0-0.822,0.322-1.558,0.967-2.202
		c0.526-0.525,1.203-0.792,2.025-0.792c0.936,0,1.701,0.267,2.289,0.792c0.524,0.645,0.791,1.38,0.791,2.202
		c0,0.878-0.266,1.583-0.791,2.111c-0.647,0.646-1.408,0.967-2.289,0.967C526.661,269.141,525.985,268.82,525.459,268.174z"/>
	<path fill="#020303" d="M491.053,268.174c-0.646-0.528-0.967-1.232-0.967-2.111c0-0.822,0.322-1.558,0.967-2.202
		c0.526-0.525,1.202-0.792,2.024-0.792c0.938,0,1.699,0.267,2.287,0.792c0.47,0.527,0.705,1.263,0.705,2.202
		c0,0.937-0.234,1.643-0.705,2.111c-0.645,0.646-1.41,0.967-2.287,0.967C492.256,269.141,491.579,268.82,491.053,268.174z"/>
	<g>
		<path fill="#304779" d="M574.073,368.162c7.602,7.787,11.406,17.002,11.406,27.637l-2.456,159.692H442.526l-3.754-159.692
			c0-10.756,3.831-19.97,11.498-27.636c7.727-7.604,16.938-11.406,27.635-11.406h68.533
			C557.132,356.757,566.343,360.56,574.073,368.162z"/>
		<polygon fill="#455A7D" points="549.312,385.408 538.834,399.509 553.391,411.471 514.071,534.812 533.55,357.775 		"/>
		<polygon fill="#455A7D" points="483.931,399.532 473.461,385.449 489.302,357.821 514.115,534.781 469.413,411.5 		"/>
		<polygon fill="#EBF7FE" points="486.66,357.821 533.561,357.821 514.115,534.781 		"/>
		<polygon fill="#FFFFFF" points="526.082,349.022 541.131,363.715 525.819,390.467 509.802,373.746 		"/>
		<polygon fill="#FFFFFF" points="494.667,349.37 509.802,373.746 494.139,390.467 479.62,363.977 		"/>
		<polygon fill="#CA6959" points="522.827,455.759 514.115,534.781 501.883,455.67 509.802,373.746 		"/>
		<polygon fill="#CA6959" points="522.474,386.947 511.034,401.994 498.012,386.331 509.802,373.746 		"/>
	</g>
	<g>
		<path fill="#666666" d="M451.103,407.576c0.061-4.082,2.133-6.091,6.212-6.028l118.055,1.112c4.082,0,6.088,2.043,6.027,6.12
			l-1.48,161.179c-0.065,4.081-2.138,6.122-6.213,6.122l-118.057-1.114c-4.081-0.063-6.09-2.134-6.027-6.211L451.103,407.576z"/>
		<path fill="#999999" d="M571.556,403.225c4.082,0.04,6.103,2.104,6.064,6.188l-1.557,161.079c-0.04,4.086-2.1,6.107-6.181,6.066
			l-117.915-1.138c-4.082-0.041-6.103-2.1-6.065-6.186l1.558-161.085c0.04-4.085,2.101-6.104,6.183-6.064L571.556,403.225z"/>
		
			<rect x="457.254" y="411.974" transform="matrix(-1 -0.0097 0.0097 -1 1020.1355 978.0882)" fill="#FFFFFF" width="110.365" height="149.198"/>
		
			<rect x="475.542" y="519.999" transform="matrix(1 0.0096 -0.0096 1 5.0258 -4.6131)" fill="#999999" width="17.543" height="5.198"/>
		
			<rect x="474.561" y="531.399" transform="matrix(1 0.0096 -0.0096 1 5.1352 -4.6035)" fill="#999999" width="17.542" height="5.202"/>
		
			<rect x="474.189" y="541.133" transform="matrix(1 0.0094 -0.0094 1 5.1364 -4.5193)" fill="#999999" width="17.544" height="5.202"/>
		<path fill="#333333" d="M464.494,456.056c-0.257,0-0.481-0.09-0.667-0.278c-0.19-0.188-0.291-0.413-0.295-0.671
			c-0.001-0.262,0.091-0.484,0.277-0.67c0.185-0.19,0.41-0.291,0.673-0.294l24.722-0.337c0.14-0.004,0.274,0.024,0.4,0.085
			c0.134,0.059,0.25,0.145,0.348,0.255l4.54,5.502c0.17,0.205,0.24,0.438,0.218,0.705c-0.025,0.262-0.14,0.48-0.342,0.648
			c-0.205,0.168-0.438,0.239-0.705,0.214c-0.261-0.021-0.479-0.137-0.649-0.337l-4.257-5.146L464.494,456.056z"/>
		<path fill="#333333" d="M553.913,444.443c0.264,0,0.495,0.092,0.682,0.277c0.188,0.188,0.283,0.408,0.283,0.673
			c0,0.269-0.094,0.493-0.28,0.684c-0.184,0.187-0.408,0.281-0.671,0.281l-24.066,0.052l-4.347,4.267
			c-0.188,0.189-0.409,0.28-0.673,0.28c-0.259-0.006-0.483-0.1-0.667-0.296c-0.188-0.184-0.28-0.406-0.28-0.668
			c0.004-0.262,0.102-0.486,0.292-0.67l4.639-4.547c0.182-0.186,0.4-0.28,0.656-0.281L553.913,444.443z"/>
		<path fill="#333333" d="M544.26,504.365l-0.292,10.209l16.237,0.249c0.25-0.018,0.477,0.08,0.667,0.296
			c0.165,0.192,0.248,0.417,0.248,0.672c-0.003,0.255-0.09,0.479-0.261,0.668c-0.216,0.189-0.451,0.284-0.708,0.281l-17.253-0.263
			c-0.17,0-0.33-0.037-0.479-0.102c-0.147-0.106-0.25-0.238-0.314-0.386c-0.084-0.149-0.126-0.312-0.126-0.48l0.367-11.195
			c0.045-0.32,0.155-0.55,0.324-0.699c0.218-0.166,0.452-0.249,0.706-0.247c0.274,0.001,0.491,0.101,0.634,0.293
			C544.178,503.877,544.26,504.111,544.26,504.365z"/>
		<path fill="#333333" d="M564.153,465.809c0.185,0.183,0.28,0.406,0.28,0.67c0,0.268-0.09,0.495-0.28,0.685
			c-0.182,0.188-0.407,0.283-0.672,0.283l-22.102,0.072c-0.267,0-0.497-0.095-0.687-0.28c-0.188-0.184-0.28-0.408-0.28-0.672
			c-0.002-0.271,0.093-0.495,0.277-0.683c0.186-0.189,0.41-0.281,0.674-0.281l22.104-0.075
			C563.737,465.528,563.961,465.619,564.153,465.809z"/>
		<path fill="#333333" d="M502.431,528.575c-0.003-0.257,0.092-0.477,0.277-0.667c0.185-0.19,0.409-0.29,0.674-0.294
			c0.259-0.003,0.479,0.09,0.667,0.276c0.191,0.188,0.291,0.412,0.296,0.673l0.315,24.938l53.088,0.517
			c0.261,0.002,0.483,0.1,0.667,0.291c0.188,0.188,0.28,0.409,0.28,0.671c-0.004,0.265-0.103,0.482-0.294,0.666
			c-0.185,0.191-0.412,0.282-0.673,0.282l-54.028-0.521c-0.258-0.003-0.482-0.099-0.666-0.282c-0.186-0.186-0.279-0.407-0.279-0.668
			L502.431,528.575z"/>
		
			<rect x="474.15" y="550.323" transform="matrix(1 0.0096 -0.0096 1 5.3155 -4.5979)" fill="#999999" width="17.545" height="5.199"/>
		
			<rect x="464.477" y="459.475" transform="matrix(1 0.0097 -0.0097 1 4.5379 -4.5882)" fill="#999999" width="17.543" height="8.102"/>
		<polygon fill="#999999" points="536.197,448.665 553.741,448.833 553.658,456.934 536.119,456.763 		"/>
		
			<rect x="546.145" y="469.592" transform="matrix(1 0.0096 -0.0096 1 4.5864 -5.3213)" fill="#999999" width="17.546" height="8.098"/>
		
			<rect x="541.443" y="519.567" transform="matrix(1 0.0097 -0.0097 1 5.1263 -5.3345)" fill="#999999" width="17.545" height="8.095"/>
		<path fill="#CC3333" d="M533.775,516.721l-18.546-23.375l29.57-11.727c0.844,3.016,1.25,6.203,1.215,9.566
			c-0.087,9.211-3.418,17.039-9.986,23.483C535.292,515.391,534.539,516.073,533.775,516.721z"/>
		<path fill="#FFCC33" d="M503.492,458.724l8.476,33.858l20.167,25.559c-6.175,4.107-12.763,6.132-19.774,6.063
			c-9.205-0.089-17.03-3.419-23.473-9.989c-6.444-6.575-9.621-14.464-9.531-23.675c0.088-9.208,3.417-17.034,9.988-23.48
			C493.526,462.957,498.241,460.179,503.492,458.724z"/>
		<path fill="#33CC99" d="M535.108,466.179c0.465,0.432,0.924,0.876,1.373,1.338c3.562,3.628,6.121,7.663,7.686,12.1l-30.18,11.896
			l20.234-26.125C534.52,465.647,534.815,465.908,535.108,466.179z"/>
		<path fill="#6666CC" d="M514.09,454.57c7.57,0.071,14,2.186,19.298,6.344l-19.386,25.563l-7.673-31.121
			C508.802,454.802,511.388,454.54,514.09,454.57z"/>
		
			<polyline fill="none" stroke="#66CC00" stroke-width="3" stroke-linecap="round" stroke-linejoin="round" stroke-miterlimit="3" points="
			504.004,554.134 512.965,534.374 524.013,539.681 535.462,533.285 545.864,536.32 557.938,534.456 		"/>
		<path fill="#FF3300" d="M504.015,552.826c0.059-0.068,0.138-0.128,0.225-0.174l4.393-2.32l7.694-4.072
			c0.163-0.088,0.332-0.12,0.511-0.104c0.188,0.014,0.358,0.082,0.511,0.195l8.264,6.237l12.689-6.066l0.77-0.378h-0.017
			l0.962-0.467l4.361-2.097c0.167-0.08,0.342-0.11,0.525-0.09l5.003,0.574l2.23,0.242l5.48,0.613
			c0.266,0.028,0.483,0.148,0.65,0.357c0.163,0.206,0.229,0.441,0.201,0.704c-0.031,0.266-0.151,0.482-0.358,0.65
			c-0.208,0.164-0.444,0.229-0.704,0.199l-6.627-0.75l-2.231-0.243l-3.585-0.402l-4.313,2.078l-0.751,0.363h-0.016l-0.964,0.452
			l-13.008,6.24c-0.157,0.075-0.32,0.105-0.496,0.09c-0.181-0.021-0.345-0.088-0.492-0.198l-8.251-6.22l-11.539,6.091l-0.018,0.02
			c-0.041,0.023-0.083,0.04-0.127,0.063c-0.08,0.022-0.157,0.035-0.24,0.046c-0.116,0.005-0.232-0.016-0.352-0.056
			c-0.125-0.038-0.24-0.096-0.333-0.179c-0.08-0.064-0.147-0.144-0.204-0.224c-0.01-0.021-0.02-0.042-0.032-0.063
			c-0.06-0.113-0.094-0.234-0.106-0.37c-0.005-0.112,0.011-0.231,0.05-0.35c0.039-0.128,0.101-0.239,0.177-0.334L504.015,552.826z"
			/>
		<path fill="#660099" d="M540.016,545.677l-0.963,0.467h0.018l-0.771,0.378l-1.565-4.531l-12.174,3.808
			c-0.203,0.064-0.405,0.064-0.605-0.006l-8.788-3.132l-6.534,7.672l-4.393,2.32c-0.087,0.046-0.167,0.105-0.225,0.174
			l10.129-11.901c0.129-0.153,0.292-0.256,0.483-0.312c0.192-0.053,0.383-0.048,0.57,0.022l9.127,3.246l12.734-3.993
			c0.24-0.078,0.476-0.063,0.701,0.053c0.231,0.123,0.386,0.306,0.471,0.551L540.016,545.677z M503.948,552.89
			c-0.078,0.092-0.139,0.205-0.178,0.331c-0.039,0.118-0.056,0.237-0.05,0.35C503.7,553.315,503.776,553.085,503.948,552.89z
			 M549.904,544.065c1.35-1.777,2.671-3.549,3.959-5.324c0.151-0.209,0.354-0.333,0.609-0.374l3.581-0.606
			c0.26-0.04,0.5,0.016,0.712,0.17c0.217,0.146,0.35,0.354,0.394,0.608c0.043,0.262-0.011,0.5-0.167,0.715
			c-0.148,0.22-0.351,0.35-0.606,0.396l-3.195,0.543c-1.005,1.37-2.026,2.742-3.055,4.117L549.904,544.065z M550.778,546.084
			c-0.283,0.367-0.563,0.729-0.845,1.091c-4.028,5.254-6.424,7.806-7.186,7.655c-0.888,0.146-2.167-2.019-3.829-6.501l0.964-0.452
			h0.016l0.751-0.359c1.256,3.459,1.965,5.259,2.117,5.395c0.344-0.134,2.228-2.437,5.65-6.898c0.044-0.058,0.089-0.118,0.129-0.176
			L550.778,546.084z M504.75,554.461c-0.26,0.021-0.487-0.056-0.687-0.231c0.094,0.08,0.208,0.141,0.334,0.178
			C504.517,554.448,504.634,554.466,504.75,554.461z"/>
		<g>
			<path fill="#006600" d="M469.652,517.192c0.185,0,0.493,0.031,0.926,0.092c0.372,0,0.773,0.063,1.207,0.184l0.558,0.095
				l-5.472,8.351c-0.125,0.184-0.277,0.339-0.466,0.463c-0.248,0.061-0.493,0.061-0.74,0c-0.185-0.124-0.34-0.279-0.463-0.463
				l-2.412-4.639c-0.061-0.126,0.032-0.219,0.28-0.277c0.185-0.125,0.4-0.221,0.647-0.28c0.247-0.122,0.495-0.154,0.743-0.091
				c0.247,0.063,0.432,0.246,0.557,0.556l1.111,2.227l3.061-5.749C469.31,517.407,469.466,517.253,469.652,517.192z"/>
		</g>
		<g>
			<path fill="#006600" d="M464.921,531.289l1.113,2.227l3.06-5.754c0.061-0.246,0.185-0.37,0.371-0.37
				c0.187-0.058,0.494-0.058,0.927,0c0.434,0.064,0.867,0.124,1.299,0.187c0.371,0.063,0.526,0.126,0.465,0.184l-5.38,8.254
				c-0.124,0.249-0.309,0.405-0.555,0.465c-0.25,0.063-0.466,0.063-0.65,0c-0.247-0.06-0.432-0.216-0.555-0.465l-2.411-4.635
				c-0.064-0.123,0.031-0.218,0.277-0.278c0.247-0.062,0.495-0.153,0.742-0.275c0.246-0.126,0.494-0.126,0.741,0
				C464.611,530.887,464.797,531.041,464.921,531.289z"/>
		</g>
		<g>
			<path fill="#006600" d="M469.002,536.944c0.062-0.247,0.186-0.402,0.371-0.463c0.187,0,0.495,0.032,0.929,0.095
				c0.432,0,0.864,0.06,1.297,0.184l0.463,0.097l-5.379,8.346c-0.124,0.184-0.311,0.338-0.556,0.463
				c-0.247,0.061-0.463,0.061-0.648,0c-0.247-0.125-0.434-0.279-0.557-0.463l-2.411-4.638c-0.063-0.126,0.029-0.219,0.278-0.279
				c0.248-0.063,0.495-0.155,0.744-0.276c0.246-0.125,0.493-0.125,0.74,0c0.249,0.059,0.433,0.217,0.558,0.462l1.112,2.225
				L469.002,536.944z"/>
		</g>
		<g>
			<path fill="#006600" d="M468.814,546.774c0.124-0.247,0.28-0.4,0.465-0.463c0.186,0,0.463,0.032,0.834,0.096
				c0.432,0,0.865,0.06,1.297,0.184l0.559,0.092l-5.472,8.347c-0.125,0.187-0.31,0.339-0.558,0.465
				c-0.186,0.062-0.401,0.062-0.649,0c-0.247-0.126-0.401-0.278-0.462-0.465l-2.504-4.638c-0.061-0.124,0.033-0.216,0.279-0.277
				c0.247-0.061,0.495-0.152,0.741-0.275c0.247-0.126,0.492-0.126,0.742,0c0.247,0.06,0.433,0.215,0.556,0.465l1.111,2.222
				L468.814,546.774z"/>
		</g>
		<g>
			<path fill="#666666" d="M508.321,431.964c-0.679-0.617-1.021-1.514-1.021-2.688l0.092-7.884h6.123v7.423
				c-0.063,0.612,0,1.048,0.185,1.296c0.186,0.244,0.433,0.368,0.742,0.368c0.987,0,1.515-0.557,1.577-1.664v-7.423l6.122,0.093
				l-0.096,16.506l-6.12-0.091v-6.306c-0.559,0.367-1.237,0.647-2.042,0.833c-0.74,0.187-1.544,0.278-2.412,0.278
				C509.991,432.708,508.941,432.461,508.321,431.964z M496.359,424.547h-3.617v-3.34l13.448,0.094v3.338h-3.709l-0.095,13.169
				l-6.118-0.095L496.359,424.547z M491.258,424.455c0.125,0.68,0.186,1.883,0.186,3.616l-0.091,2.781
				c0,1.67-0.064,2.845-0.188,3.523c-0.062,0.681-0.401,1.297-1.019,1.857c-0.619,0.553-1.424,0.956-2.413,1.204
				c-0.988,0.309-2.164,0.463-3.525,0.463c-1.235,0-2.347-0.154-3.336-0.463c-1.051-0.248-1.886-0.651-2.504-1.204
				c-0.619-0.684-0.991-1.362-1.111-2.044c-0.125-0.678-0.187-1.853-0.187-3.522l0.092-2.779c0-1.673,0.065-2.847,0.187-3.524
				c0.125-0.683,0.494-1.27,1.113-1.765c0.556-0.554,1.329-0.987,2.318-1.298c1.05-0.307,2.225-0.463,3.523-0.463
				c1.299,0,2.442,0.12,3.432,0.369c0.988,0.372,1.792,0.838,2.412,1.392C490.763,423.156,491.135,423.775,491.258,424.455z
				 M485.137,423.897c-0.123-0.184-0.372-0.275-0.741-0.275c-0.37,0-0.62,0.095-0.743,0.275c-0.185,0.126-0.279,0.619-0.279,1.483
				l-0.091,7.698c0,0.927,0.06,1.514,0.186,1.762c0.125,0.188,0.371,0.277,0.739,0.277c0.434,0,0.712-0.125,0.834-0.369
				c0.125-0.248,0.187-0.866,0.187-1.856l0.093-7.512C485.323,424.639,485.261,424.147,485.137,423.897z M545.788,425.104
				l-0.096,13.169l-6.117-0.094l0.09-13.171h-3.617v-3.335l13.448,0.092v3.339H545.788z M534.938,424.918h-4.174v3.06h3.894
				l-0.091,3.155h-3.895v3.615h4.544v3.341l-10.665-0.098l0.091-16.507l10.295,0.095L534.938,424.918L534.938,424.918z"/>
		</g>
	</g>
	<path fill="#FFD39B" d="M463.924,545.896l14.035,7.188c4.103,2.167,6.745,4.572,7.928,7.22l0.638,1.182
		c1.396,3.447,3.521,6.569,6.376,9.372l2.163,2.063c1.065,1.091,1.583,2.535,1.553,4.349c-0.082,1.779-0.725,3.308-1.933,4.575
		l-1.425,1.413c-1.344,1.393-2.997,2.438-4.957,3.134c-1.931,0.645-3.772,0.838-5.517,0.574l-8.069-1.512
		c-1.637-0.331-3.228-1.151-4.778-2.45c-1.632-1.284-2.758-2.678-3.379-4.187l-2.494-5.709c-0.909-1.948-5.165-7.247-12.765-15.906
		L463.924,545.896z"/>
	<g>
		<path fill="#304779" d="M442.201,425.288c-2.741-1.577-6.015,7.22-9.831,26.384c-4.074,20.436,9.093,48.735,39.508,84.904
			l-21.792,26.147c-46.265-56.944-63.437-101.316-51.52-133.122c11.919-31.805,30.761-54.016,56.525-66.631L442.201,425.288z"/>
	</g>
	<g>
		<path fill="#304779" d="M579.916,425.288c2.738-1.577,6.013,7.22,9.829,26.384c4.074,20.436-9.091,48.735-39.506,84.904
			l21.794,26.147c46.261-56.946,63.435-101.316,51.516-133.122c-11.918-31.805-30.758-54.016-56.524-66.631L579.916,425.288z"/>
	</g>
	<path fill="#FFD39B" d="M558.098,545.896l-14.037,7.188c-4.102,2.167-6.743,4.572-7.923,7.22l-0.641,1.182
		c-1.395,3.447-3.52,6.569-6.377,9.372l-2.16,2.063c-1.065,1.091-1.585,2.535-1.551,4.349c0.081,1.779,0.725,3.308,1.931,4.575
		l1.424,1.413c1.346,1.393,2.996,2.438,4.959,3.134c1.929,0.645,3.769,0.838,5.515,0.574l8.067-1.512
		c1.638-0.331,3.231-1.151,4.78-2.45c1.633-1.284,2.758-2.678,3.381-4.187l2.492-5.709c0.907-1.948,5.166-7.247,12.763-15.906
		L558.098,545.896z"/>
</g>
<g>
	<g>
		<polygon fill="#434C99" points="824.988,192.518 851.574,199.877 844.155,226.266 817.7,218.845 		"/>
		<g>
			<rect x="836.453" y="197.871" fill="#272622" width="0.564" height="2.523"/>
			<path fill="#2F398E" d="M838.972,197.139c0,0.759-0.733,1.139-2.198,1.139c-1.463,0-2.196-0.381-2.196-1.139
				c0-0.271,0.219-0.516,0.649-0.731c0.434-0.217,0.952-0.326,1.547-0.326C838.239,196.081,838.972,196.436,838.972,197.139z"/>
			<rect x="834.578" y="193.641" fill="#2F398E" width="4.395" height="3.662"/>
			<path fill="#272661" d="M838.972,193.885c0,0.326-0.221,0.624-0.653,0.896c-0.433,0.216-0.946,0.323-1.545,0.323
				c-0.595,0-1.113-0.106-1.547-0.323c-0.431-0.272-0.649-0.57-0.649-0.896c0-0.378,0.219-0.677,0.649-0.896
				c0.434-0.269,0.952-0.408,1.547-0.408c0.599,0,1.112,0.139,1.545,0.408C838.752,193.208,838.972,193.507,838.972,193.885z"/>
		</g>
	</g>
	<g>
		<polygon fill="#B6C5C5" points="798.705,229.745 833.677,235.725 827.696,270.451 792.72,264.387 		"/>
		<g>
			<rect x="815.664" y="236.611" fill="#272622" width="0.631" height="3.144"/>
			<path fill="#BE212F" d="M813.154,235.667c0-0.976,0.941-1.466,2.825-1.466c0.772,0,1.433,0.14,1.991,0.418
				c0.557,0.281,0.839,0.629,0.839,1.047c0,0.349-0.282,0.666-0.839,0.943c-0.559,0.278-1.219,0.42-1.991,0.42
				C814.095,237.031,813.154,236.575,813.154,235.667z"/>
			<rect x="813.154" y="231.165" fill="#BE212F" width="5.655" height="4.712"/>
			<path fill="#EE4237" d="M813.154,231.374c0-0.418,0.275-0.768,0.837-1.047c0.559-0.349,1.223-0.523,1.988-0.523
				c0.772,0,1.433,0.175,1.991,0.523c0.557,0.279,0.839,0.629,0.839,1.047c0,0.421-0.282,0.803-0.839,1.154
				c-0.559,0.278-1.219,0.419-1.991,0.419c-0.766,0-1.43-0.141-1.988-0.419C813.429,232.177,813.154,231.795,813.154,231.374z"/>
		</g>
	</g>
	<g>
		<polygon fill="#434C99" points="858.184,271.865 848.631,237.886 882.858,228.415 892.248,262.312 		"/>
		<g>
			<rect x="866.869" y="235.249" fill="#272622" width="0.736" height="3.245"/>
			<path fill="#2F398E" d="M864.353,234.306c0-0.35,0.281-0.663,0.841-0.941c0.56-0.277,1.22-0.418,1.993-0.418
				c0.765,0,1.426,0.141,1.984,0.418c0.558,0.278,0.836,0.592,0.836,0.941c0,0.979-0.942,1.467-2.82,1.467
				C865.299,235.774,864.353,235.285,864.353,234.306z"/>
			<rect x="864.353" y="229.804" fill="#2F398E" width="5.654" height="4.712"/>
			<path fill="#272661" d="M864.353,230.119c0-1.048,0.945-1.571,2.834-1.571c1.878,0,2.82,0.523,2.82,1.571
				c0,0.418-0.278,0.8-0.836,1.152c-0.555,0.278-1.22,0.418-1.984,0.418c-0.773,0-1.434-0.14-1.993-0.418
				C864.635,230.919,864.353,230.537,864.353,230.119z"/>
		</g>
	</g>
	<g>
		<polygon fill="#BBD76B" points="787.696,223.879 757.875,228.693 753.042,199.131 782.827,194.253 		"/>
		<g>
			
				<rect x="766.132" y="199.857" transform="matrix(-0.8658 0.5004 -0.5004 -0.8658 1530.7134 -8.1025)" fill="#272622" width="0.623" height="2.675"/>
			<path fill="#F9EC21" d="M767.466,198.029c0.421,0.722-0.069,1.483-1.456,2.287c-1.394,0.805-2.297,0.847-2.713,0.126
				c-0.151-0.258-0.075-0.609,0.219-1.052c0.29-0.444,0.72-0.831,1.283-1.159c0.567-0.326,1.116-0.506,1.648-0.539
				C766.978,197.659,767.318,197.771,767.466,198.029z"/>
			<polygon fill="#F9EC21" points="767.601,198.26 763.431,200.673 761.372,197.121 765.548,194.705 			"/>
			<path fill="#D9C825" d="M765.679,194.94c0.179,0.309,0.135,0.711-0.125,1.206c-0.294,0.445-0.724,0.831-1.287,1.158
				c-0.571,0.33-1.118,0.51-1.649,0.542c-0.558-0.019-0.929-0.183-1.105-0.492c-0.45-0.771,0.021-1.561,1.412-2.363
				C764.313,194.183,765.232,194.167,765.679,194.94z"/>
		</g>
	</g>
</g>
<g id="Layer_1_1_">
</g>
</svg>
