<?xml version="1.0" encoding="utf-8"?>
<!-- Generator: Adobe Illustrator 15.1.0, SVG Export Plug-In . SVG Version: 6.00 Build 0)  -->
<!DOCTYPE svg PUBLIC "-//W3C//DTD SVG 1.1//EN" "http://www.w3.org/Graphics/SVG/1.1/DTD/svg11.dtd">
<svg version="1.1" xmlns="http://www.w3.org/2000/svg" xmlns:xlink="http://www.w3.org/1999/xlink" x="0px" y="0px"
	 width="795.612px" height="294.176px" viewBox="0 0 795.612 294.176" enable-background="new 0 0 795.612 294.176"
	 xml:space="preserve">
<g id="Layer_2_1_">
	<g>
		<g id="Layer_2_2_">
			<g>
				<rect x="598.323" y="1.105" fill="#8E95A5" width="195.617" height="200.454"/>
			</g>
			<g>
			</g>
		</g>
	</g>
</g>
<g id="Layer_3">
	<g>
		<g>
			<g>
				<rect x="606.594" y="7.669" fill-rule="evenodd" clip-rule="evenodd" fill="#EAEAEB" width="180.689" height="187.455"/>
			</g>
			<rect x="610.569" y="12.766" fill="#FFFFFF" width="172.738" height="180.696"/>
			<g>
				<path fill-rule="evenodd" clip-rule="evenodd" fill="#089848" d="M780.178,36.563L736.315,94.65
					c-0.207,0.25-0.446,0.45-0.721,0.6c-0.273,0.15-0.573,0.225-0.894,0.225h-12.896l-15.194,36.833
					c-0.184,0.4-0.446,0.725-0.788,0.976c-0.344,0.249-0.721,0.374-1.134,0.374h-17.011l-12.692,15.829
					c-0.205,0.249-0.445,0.45-0.719,0.601c-0.275,0.124-0.559,0.187-0.858,0.187h-26.752l-17.528,20.03
					c-0.412,0.45-0.903,0.687-1.475,0.712c-0.572,0.024-1.063-0.187-1.475-0.638c-0.116-0.1-0.207-0.212-0.275-0.338v-2.625
					c0.068-0.1,0.138-0.187,0.206-0.262l18.145-20.742c0.207-0.227,0.433-0.4,0.687-0.525c0.274-0.125,0.549-0.187,0.823-0.187
					h26.719l12.655-15.83c0.207-0.249,0.447-0.438,0.721-0.562c0.275-0.15,0.562-0.226,0.859-0.226h16.633l15.197-36.833
					c0.158-0.4,0.411-0.726,0.754-0.976c0.343-0.25,0.721-0.375,1.133-0.375h13.273l43.246-57.261"/>
				<path fill-rule="evenodd" clip-rule="evenodd" fill="#0398CC" d="M625.904,170.04v6.414h21.026l-0.138-2.214
					c-0.023-0.523,0.125-0.986,0.446-1.387c0.297-0.401,0.696-0.625,1.2-0.675c0.48-0.025,0.904,0.137,1.27,0.487
					c0.342,0.324,0.536,0.763,0.583,1.313l0.171,2.476h27.303v-2.363c0-0.525,0.171-0.976,0.514-1.35
					c0.344-0.376,0.756-0.563,1.236-0.563c0.479,0,0.892,0.187,1.234,0.563c0.342,0.374,0.515,0.824,0.515,1.35v2.363h25.654v-2.699
					c0-0.525,0.173-0.977,0.517-1.353c0.342-0.373,0.754-0.561,1.234-0.561c0.479,0,0.891,0.188,1.234,0.561
					c0.345,0.376,0.515,0.827,0.515,1.353v2.699h27.474v-2.363c0-0.525,0.172-0.976,0.515-1.35c0.344-0.376,0.755-0.563,1.234-0.563
					c0.481,0,0.892,0.187,1.235,0.563c0.342,0.374,0.515,0.824,0.515,1.35v2.363h29.771l-0.172-2.852
					c-0.023-0.522,0.127-0.986,0.446-1.387c0.297-0.398,0.688-0.625,1.165-0.675c0.48-0.025,0.905,0.137,1.271,0.488
					c0.365,0.325,0.571,0.749,0.616,1.274l0.206,3.15h5.557c0.479,0,0.892,0.188,1.236,0.563c0.344,0.376,0.515,0.826,0.515,1.35
					c0,0.527-0.171,0.977-0.515,1.352c-0.345,0.374-0.757,0.563-1.236,0.563h-7.065c-0.046,0-0.091,0-0.138,0H648.953
					c-0.091,0-0.182,0-0.272,0h-22.776v9.602c0,0.525-0.17,0.974-0.515,1.35c-0.342,0.376-0.753,0.563-1.234,0.563
					c-0.479,0-0.891-0.187-1.234-0.563c-0.343-0.376-0.515-0.824-0.515-1.35v-9.602h-8.781c-0.479,0-0.891-0.189-1.233-0.563
					c-0.343-0.375-0.517-0.824-0.517-1.352c0-0.523,0.174-0.974,0.517-1.35c0.343-0.374,0.754-0.563,1.233-0.563h8.781V29.723
					c0-0.525,0.172-0.976,0.515-1.35c0.344-0.375,0.755-0.563,1.234-0.563c0.481,0,0.893,0.188,1.234,0.563
					c0.345,0.375,0.515,0.825,0.515,1.35v4.313h2.778c0.481,0,0.892,0.188,1.235,0.563s0.515,0.826,0.515,1.351
					s-0.171,0.975-0.515,1.35c-0.344,0.375-0.754,0.563-1.235,0.563h-2.778v20.854h2.778c0.481,0,0.892,0.188,1.235,0.563
					c0.344,0.375,0.515,0.825,0.515,1.35c0,0.525-0.171,0.976-0.515,1.351s-0.754,0.563-1.235,0.563h-2.778v19.542h3.362
					c0.48,0,0.892,0.188,1.233,0.562c0.345,0.375,0.515,0.826,0.515,1.351c0,0.524-0.17,0.975-0.515,1.35
					c-0.342,0.375-0.753,0.563-1.233,0.563h-3.362v25.43h2.162c0.479,0,0.891,0.188,1.235,0.563
					c0.342,0.375,0.513,0.826,0.513,1.351c0,0.524-0.171,0.975-0.513,1.35c-0.345,0.375-0.757,0.563-1.235,0.563h-2.162v29.068h3.98
					c0.479,0,0.89,0.188,1.233,0.563c0.342,0.376,0.513,0.824,0.513,1.35s-0.171,0.976-0.513,1.352
					c-0.344,0.374-0.755,0.563-1.233,0.563h-3.98v19.354V170.04z"/>
				<polyline fill-rule="evenodd" clip-rule="evenodd" fill="#089848" points="767.24,37.721 779.429,45.893 782.003,30.775 				"/>
			</g>
		</g>
	</g>
</g>
<g id="Layer_1">
	<g id="Layer_1_2_">
		<rect x="86.375" y="250.689" fill="#7D838F" width="525.5" height="37.844"/>
		<path opacity="0.97" fill="#234461" enable-background="new    " d="M243.374,75.143h-98.226V25.953h81.663
			c9.147,0,16.563,7.415,16.563,16.562V75.143z"/>
		<g>
			<g>
				<rect x="158.275" y="30.461" fill="#E0914B" width="9.45" height="44.683"/>
				<rect x="159.849" y="36.073" fill="#FFFFFF" width="6.458" height="18.422"/>
				<circle fill="#FFFFFF" cx="163" cy="65.426" r="2.389"/>
				<rect x="157.566" y="30.461" fill="#A85D1B" width="0.709" height="44.683"/>
				<rect x="147.485" y="30.461" fill="#A85D1B" width="0.708" height="44.683"/>
				<rect x="148.194" y="30.461" fill="#E0914B" width="9.45" height="44.683"/>
				<rect x="149.768" y="36.073" fill="#FFFFFF" width="6.458" height="18.422"/>
				<circle fill="#FFFFFF" cx="152.918" cy="65.426" r="2.389"/>
				<rect x="138.034" y="30.461" fill="#E0914B" width="9.451" height="44.683"/>
				<rect x="139.61" y="36.073" fill="#FFFFFF" width="6.458" height="18.422"/>
				<circle fill="#FFFFFF" cx="142.759" cy="65.426" r="2.389"/>
			</g>
			<g>
				<rect x="178.514" y="30.461" fill="#E0914B" width="9.451" height="44.683"/>
				<rect x="180.089" y="36.073" fill="#FFFFFF" width="6.458" height="18.422"/>
				<circle fill="#FFFFFF" cx="183.24" cy="65.426" r="2.389"/>
				<rect x="177.806" y="30.461" fill="#A85D1B" width="0.708" height="44.683"/>
				<rect x="167.725" y="30.461" fill="#A85D1B" width="0.709" height="44.683"/>
				<rect x="168.434" y="30.461" fill="#E0914B" width="9.451" height="44.683"/>
				<rect x="170.009" y="36.073" fill="#FFFFFF" width="6.458" height="18.422"/>
				<circle fill="#FFFFFF" cx="173.159" cy="65.426" r="2.389"/>
			</g>
			<g>
				<rect x="198.754" y="30.461" fill="#E0914B" width="9.451" height="44.683"/>
				<rect x="200.33" y="36.073" fill="#FFFFFF" width="6.458" height="18.422"/>
				<circle fill="#FFFFFF" cx="203.481" cy="65.426" r="2.389"/>
				<rect x="198.046" y="30.461" fill="#A85D1B" width="0.708" height="44.683"/>
				<rect x="187.965" y="30.461" fill="#A85D1B" width="0.709" height="44.683"/>
				<rect x="188.674" y="30.461" fill="#E0914B" width="9.451" height="44.683"/>
				<rect x="190.249" y="36.073" fill="#FFFFFF" width="6.458" height="18.422"/>
				<circle fill="#FFFFFF" cx="193.4" cy="65.426" r="2.389"/>
			</g>
			<g>
				<rect x="218.995" y="30.461" fill="#E0914B" width="9.451" height="44.683"/>
				<rect x="220.571" y="36.073" fill="#FFFFFF" width="6.458" height="18.422"/>
				<circle fill="#FFFFFF" cx="223.72" cy="65.426" r="2.389"/>
				<rect x="218.286" y="30.461" fill="#A85D1B" width="0.709" height="44.683"/>
				<rect x="208.206" y="30.461" fill="#A85D1B" width="0.708" height="44.683"/>
				<rect x="208.914" y="30.461" fill="#E0914B" width="9.451" height="44.683"/>
				<rect x="210.49" y="36.073" fill="#FFFFFF" width="6.458" height="18.422"/>
				<circle fill="#FFFFFF" cx="213.64" cy="65.426" r="2.389"/>
			</g>
		</g>
		<g>
			<rect x="129.17" y="76.893" fill="#ECEBE2" width="126.826" height="5.17"/>
		</g>
		<rect x="50.68" y="272.865" opacity="0.22" fill="#181616" enable-background="new    " width="436.673" height="15.667"/>
		<rect x="129.17" y="31.6" fill="#E4E9F2" width="6" height="169.958"/>
		<path opacity="0.43" fill="#234461" enable-background="new    " d="M140.874,158.53h8.917V99.967h-2.47
			c-3.561,0-6.447,2.888-6.447,6.447V158.53z"/>
		<path opacity="0.43" fill="#234461" enable-background="new    " d="M348.611,158.53h8.916V99.967h-2.47
			c-3.561,0-6.446,2.888-6.446,6.447V158.53L348.611,158.53z"/>
		<g>
			<g>
				<g>
					<path fill="#1E1D23" d="M233.299,96.767h-0.004c-0.217-0.05-0.443-0.074-0.676-0.077c-0.019-0.002-0.031-0.002-0.05-0.002
						h-79.973c-1.839,0-3.331,1.49-3.331,3.329v52.674c0,1.598,1.126,2.933,2.626,3.255c0.227,0.05,0.461,0.076,0.704,0.076h79.973
						c1.841,0,3.332-1.491,3.332-3.331v-52.674C235.903,98.427,234.787,97.099,233.299,96.767z"/>
				</g>
			</g>
			<g>
				<g>
					<rect x="153.097" y="100.842" fill="#6C777E" width="79.413" height="42.215"/>
				</g>
			</g>
			<g>
				<g>
					<polygon fill="#D9D9D9" points="187.206,156.021 185.394,166.518 202.104,166.518 200.194,156.021 					"/>
				</g>
			</g>
			<g>
				<g>
					<path fill="#EEEEEE" d="M202.104,166.518h-16.71c0,0-5.386,2.607-2.922,5.216h21.867
						C208.103,169.93,202.104,166.518,202.104,166.518z"/>
				</g>
			</g>
			<path fill="#EEEEEE" d="M149.267,152.692c0,1.839,1.487,3.329,3.321,3.329h79.752c1.834,0,3.32-1.49,3.32-3.329v-5.53h-86.394
				V152.692L149.267,152.692z"/>
			<polygon opacity="0.26" fill="#101010" enable-background="new    " points="187.206,156.021 186.749,158.666 201.513,163.271 
				200.194,156.021 			"/>
			<path opacity="0.17" fill="#FFFFFF" enable-background="new    " d="M232.619,96.69c-0.019-0.002-0.031-0.002-0.05-0.002h-79.973
				c-1.839,0-3.331,1.49-3.331,3.329v52.674c0,1.598,1.126,2.933,2.626,3.255c0.227,0.05,0.461,0.076,0.704,0.076h2.096
				l78.607-59.255h-0.004L232.619,96.69z"/>
		</g>
		<g>
			<g>
				<g>
					<path fill="#1E1D23" d="M440.017,96.767h-0.004c-0.217-0.05-0.441-0.074-0.676-0.077c-0.018-0.002-0.031-0.002-0.047-0.002
						h-79.974c-1.841,0-3.33,1.49-3.33,3.329v52.674c0,1.598,1.125,2.933,2.627,3.255c0.225,0.05,0.461,0.076,0.703,0.076h79.974
						c1.84,0,3.33-1.491,3.33-3.331v-52.674C442.621,98.427,441.506,97.099,440.017,96.767z"/>
				</g>
			</g>
			<g>
				<g>
					<rect x="359.818" y="100.842" fill="#6C777E" width="79.411" height="42.215"/>
				</g>
			</g>
			<g>
				<g>
					<polygon fill="#D9D9D9" points="393.924,156.021 392.115,166.518 408.824,166.518 406.912,156.021 					"/>
				</g>
			</g>
			<g>
				<g>
					<path fill="#EEEEEE" d="M408.824,166.518h-16.709c0,0-5.388,2.607-2.925,5.216h21.867
						C414.824,169.93,408.824,166.518,408.824,166.518z"/>
				</g>
			</g>
			<path fill="#EEEEEE" d="M355.988,152.692c0,1.839,1.485,3.329,3.319,3.329h79.751c1.834,0,3.32-1.49,3.32-3.329v-5.53h-86.392
				L355.988,152.692L355.988,152.692z"/>
			<polygon opacity="0.26" fill="#101010" enable-background="new    " points="393.924,156.021 393.467,158.666 408.23,163.271 
				406.912,156.021 			"/>
			<path opacity="0.17" fill="#FFFFFF" enable-background="new    " d="M439.338,96.69c-0.018-0.002-0.031-0.002-0.047-0.002
				h-79.974c-1.841,0-3.33,1.49-3.33,3.329v52.674c0,1.598,1.125,2.933,2.627,3.255c0.225,0.05,0.461,0.076,0.703,0.076h2.096
				l78.605-59.255h-0.004L439.338,96.69z"/>
		</g>
		<rect x="72.041" y="171.734" fill="#ECEBE2" width="430.5" height="7.651"/>
		<rect x="91.207" y="179.385" fill="#F1E1BB" width="392.75" height="8"/>
		<rect x="91.207" y="187.385" opacity="0.22" fill="#181616" enable-background="new    " width="392.75" height="18.5"/>
		<rect x="81.541" y="179.385" fill="#ECEBE2" width="9.667" height="109.167"/>
		<rect x="282.457" y="179.385" fill="#ECEBE2" width="9.666" height="109.167"/>
		<rect x="483.957" y="179.385" fill="#ECEBE2" width="9.666" height="109.167"/>
		<rect x="81.541" y="179.385" opacity="0.22" fill="#181616" enable-background="new    " width="412.087" height="3.834"/>
		<rect x="81.541" y="285.885" fill="#764B4B" width="9.667" height="2.667"/>
		<rect x="282.457" y="285.885" fill="#764B4B" width="9.666" height="2.667"/>
		<rect x="483.957" y="285.885" fill="#764B4B" width="9.666" height="2.667"/>
		<path fill="#F2D26F" d="M170.019,239.885h-43.67c-8.986,0-15.526-8.231-14.646-17.955l7.501-77.142
			c0.531-5.881,6.308-10.492,12.919-10.492h32.124c6.609,0,12.386,4.611,12.918,10.492l7.501,77.142
			C185.545,231.654,179.005,239.885,170.019,239.885z"/>
		<g>
			<rect x="113.973" y="232.296" fill="#ECEBE2" width="3.817" height="56.257"/>
			<rect x="176.791" y="232.296" fill="#ECEBE2" width="3.816" height="56.257"/>
			<path fill="#E5B515" d="M170.291,245.135h-46c-3.59,0-6.5-2.91-6.5-6.5v-6c0-3.59,2.91-6.5,6.5-6.5h46c3.59,0,6.5,2.91,6.5,6.5v6
				C176.791,242.225,173.881,245.135,170.291,245.135z"/>
			<path fill="#F2C22E" d="M170.019,239.885h-43.67c-8.986,0-15.526-7.906-14.646-17.246l7.501-74.095
				c0.531-5.647,6.308-10.077,12.919-10.077h32.124c6.609,0,12.386,4.43,12.918,10.077l7.501,74.095
				C185.545,231.979,179.005,239.885,170.019,239.885z"/>
		</g>
		<g>
			<rect x="317.774" y="232.296" fill="#ECEBE2" width="3.818" height="56.257"/>
			<rect x="380.592" y="232.296" fill="#ECEBE2" width="3.816" height="56.257"/>
			<path fill="#B5693C" d="M374.092,245.135h-46c-3.59,0-6.5-2.91-6.5-6.5v-6c0-3.59,2.91-6.5,6.5-6.5h46c3.59,0,6.5,2.91,6.5,6.5v6
				C380.592,242.225,377.682,245.135,374.092,245.135z"/>
			<path fill="#EBA072" d="M373.82,239.885h-43.671c-8.985,0-15.524-8.571-14.646-18.695l7.502-80.323
				c0.531-6.124,6.309-10.925,12.918-10.925h32.123c6.611,0,12.387,4.801,12.92,10.925l7.5,80.323
				C389.346,231.314,382.805,239.885,373.82,239.885z"/>
			<path fill="#E4854B" d="M373.82,239.885h-43.671c-8.985,0-15.524-8.231-14.646-17.955l7.502-77.142
				c0.531-5.881,6.309-10.492,12.918-10.492h32.123c6.611,0,12.387,4.611,12.92,10.492l7.5,77.142
				C389.346,231.654,382.805,239.885,373.82,239.885z"/>
		</g>
		<g>
			<rect x="514.945" y="164.126" fill="#EBDEDB" width="96.32" height="124.427"/>
			<rect x="507.967" y="164.126" fill="#FFFFFF" width="109.135" height="11.079"/>
			<rect x="514.945" y="208.979" fill="#C4BEB7" width="96.32" height="3.608"/>
			<rect x="514.945" y="175.205" fill="#C4BEB7" width="96.32" height="3.609"/>
			<rect x="514.945" y="246.23" fill="#C4BEB7" width="96.32" height="3.608"/>
			<rect x="555.474" y="191.802" fill="#FFFFFF" width="15.258" height="3.321"/>
			<rect x="555.474" y="226.339" fill="#FFFFFF" width="15.258" height="3.321"/>
			<rect x="554.908" y="265.675" fill="#FFFFFF" width="15.256" height="3.321"/>
		</g>
		<rect x="551.621" y="146.03" fill="#625551" width="13.617" height="18.097"/>
		<rect x="539.422" y="141.523" fill="#ED866F" width="16.992" height="22.604"/>
		<rect x="551.621" y="156.265" fill="#C25548" width="18.242" height="7.86"/>
		<g>
			<polygon fill="#B44027" points="250.166,156.124 274.157,156.124 274.157,155.247 274.012,155.247 274.012,151.217 
				274.157,151.217 274.157,150.293 250.166,150.293 			"/>
			<rect x="251.174" y="151.217" fill="#F2E3D5" width="22.838" height="4.03"/>
			<polygon fill="#EEAD61" points="247.649,160.934 272.991,160.934 272.991,160.211 272.836,160.211 272.836,156.886 
				272.991,156.886 272.991,156.124 247.649,156.124 			"/>
			<rect x="248.713" y="156.886" fill="#E5E5E5" width="24.123" height="3.324"/>
			<polygon fill="#6274A4" points="248.104,164.566 277.657,164.566 277.657,164.019 277.477,164.019 277.477,161.509 
				277.657,161.509 277.657,160.934 248.104,160.934 			"/>
			<rect x="249.346" y="161.509" fill="#F2E3D5" width="28.131" height="2.51"/>
			<polygon fill="#790C29" points="245.791,171.73 276.326,171.73 276.326,170.653 276.141,170.653 276.141,165.701 
				276.326,165.701 276.326,164.566 245.791,164.566 			"/>
			<rect x="247.166" y="165.701" fill="#E5E5E5" width="28.975" height="4.951"/>
			
				<rect x="242.898" y="145.501" transform="matrix(0.9768 0.2143 -0.2143 0.9768 39.6667 -48.8157)" fill="#EDB258" width="4.165" height="26.084"/>
			
				<rect x="244.917" y="147.497" transform="matrix(0.9768 0.2142 -0.2142 0.9768 37.7293 -49.4335)" opacity="0.28" fill="#282828" enable-background="new    " width="4.163" height="3.81"/>
		</g>
		<g>
			<g>
				
					<rect x="457.142" y="141.685" transform="matrix(0.9923 0.124 -0.124 0.9923 22.4341 -55.5956)" fill="#4B626D" width="1.142" height="21.376"/>
				
					<rect x="458.525" y="140.407" transform="matrix(0.9924 0.1234 -0.1234 0.9924 20.9197 -55.5747)" fill="#F1E1BB" width="1.14" height="1.366"/>
				
					<rect x="458.665" y="139.5" transform="matrix(0.9924 0.1232 -0.1232 0.9924 20.7399 -55.5083)" fill="#ED866F" width="1.142" height="0.917"/>
			</g>
			<g>
				
					<rect x="441.016" y="150.367" transform="matrix(0.0976 0.9952 -0.9952 0.0976 557.8385 -313.3422)" fill="#EEAD61" width="21.375" height="1.136"/>
				
					<rect x="449.913" y="139.01" transform="matrix(0.0972 0.9953 -0.9953 0.0972 545.7318 -322.4472)" fill="#F1E1BB" width="1.367" height="1.14"/>
				
					<rect x="450.06" y="137.891" transform="matrix(0.0979 0.9952 -0.9952 0.0979 544.1975 -323.4509)" fill="#ED866F" width="0.917" height="1.14"/>
			</g>
			
				<rect x="452.783" y="152.585" transform="matrix(0.985 0.1728 -0.1728 0.985 33.9593 -76.2198)" fill="#181616" width="3.752" height="8.622"/>
			
				<rect x="453.938" y="148.179" transform="matrix(0.985 0.1726 -0.1726 0.985 32.7983 -76.4086)" fill="#93F1E2" width="3.752" height="4.471"/>
			<g>
				<rect x="448.174" y="156.842" fill="#F1E1BB" width="10.061" height="14.893"/>
				<rect x="448.174" y="156.842" fill="#E8DEBB" width="2.326" height="14.893"/>
			</g>
		</g>
		<g>
			<rect x="590.551" y="120.928" fill="#48A0D8" width="9.145" height="43.225"/>
			<rect x="592.076" y="126.357" fill="#FFFFFF" width="6.246" height="17.82"/>
			<circle fill="#FFFFFF" cx="595.123" cy="154.753" r="2.311"/>
			<rect x="589.867" y="120.928" fill="#0763A8" width="0.686" height="43.225"/>
			<rect x="580.115" y="120.928" fill="#0763A8" width="0.688" height="43.225"/>
			<rect x="580.801" y="120.928" fill="#48A0D8" width="9.141" height="43.225"/>
			<rect x="582.326" y="126.357" fill="#FFFFFF" width="6.246" height="17.82"/>
			<circle fill="#FFFFFF" cx="585.371" cy="154.753" r="2.311"/>
			<rect x="570.97" y="120.928" fill="#48A0D8" width="9.145" height="43.225"/>
			<rect x="572.496" y="126.357" fill="#FFFFFF" width="6.246" height="17.82"/>
			<circle fill="#FFFFFF" cx="575.543" cy="154.753" r="2.311"/>
		</g>
		<rect x="22.747" y="129.874" fill="#ECEBE2" width="32.392" height="8.336"/>
		<g>
			<g id="Layer_1_1_">
				<path fill="#1B587A" d="M530.883,242.879c0.908,0.978,1.344,2.147,1.309,3.509l-0.418,34.83
					c-0.035,1.361-0.506,2.531-1.414,3.511c-0.908,0.942-2.008,1.413-3.301,1.413c-1.291-0.034-2.375-0.54-3.246-1.52
					c-0.908-0.979-1.361-2.146-1.361-3.508l0.471-34.831c0-1.362,0.471-2.515,1.414-3.458c0.908-0.978,2.008-1.466,3.301-1.466
					C528.927,241.395,530.01,241.901,530.883,242.879z"/>
				<path fill="#3E5171" d="M537.797,156.508l-1.521,119.733l-18.174-0.209l1.52-119.735c0.035-2.199,0.785-4.066,2.252-5.604
					s3.213-2.287,5.238-2.252l3.352,0.052c2.061,0.035,3.807,0.839,5.238,2.409C537.133,152.475,537.832,154.342,537.797,156.508z"
					/>
				<polygon fill="#44597C" points="536.33,270.847 518.156,270.585 518.207,268.595 536.383,268.805 				"/>
				<polygon fill="none" stroke="#44597C" stroke-width="0.1" stroke-linecap="round" stroke-miterlimit="10" points="
					536.33,270.847 518.156,270.585 518.207,268.595 536.383,268.805 				"/>
				<polygon fill="#44597C" points="536.433,264.877 518.26,264.667 518.26,262.624 536.433,262.834 				"/>
				<polygon fill="none" stroke="#44597C" stroke-width="0.1" stroke-linecap="round" stroke-miterlimit="10" points="
					536.433,264.877 518.26,264.667 518.26,262.624 536.433,262.834 				"/>
				<path fill="#4DACB5" d="M539.525,82.289l-1.625,23.36v49.707h-47.086V105.65l-1.625-23.36
					c8.348-2.165,16.744-3.248,25.193-3.248l9.271,0.472C529.207,80.037,534.496,80.962,539.525,82.289z"/>
				<path fill="#FFA685" d="M506.004,79.461c3.002-0.279,5.795-0.419,8.379-0.419l9.742,0.524c-0.629,1.92-1.762,3.491-3.404,4.714
					c-1.676,1.222-3.543,1.833-5.604,1.833c-2.129,0-4.033-0.628-5.709-1.885C507.767,83.005,506.631,81.416,506.004,79.461z"/>
				<path fill="#3E5171" d="M490.814,136.133H537.9v22.784c0,3.946-1.395,7.315-4.189,10.109c-2.793,2.794-6.162,4.188-10.107,4.188
					h-18.488c-3.945,0-7.316-1.396-10.109-4.188c-2.793-2.794-4.189-6.163-4.189-10.109v-22.784H490.814z"/>
				<path fill="#44597C" d="M502.599,173.007c-3.389-0.594-6.182-2.199-8.381-4.817c-2.27-2.689-3.404-5.779-3.404-9.271v-22.784
					h23.568v22.784c0,3.492-1.117,6.582-3.352,9.271C508.797,170.807,505.986,172.413,502.599,173.007z"/>
				<g>
					<g>
						<path fill="#FFA685" d="M514.383,56.467c1.467,0,2.725,0.523,3.771,1.571c1.014,1.012,1.52,2.252,1.52,3.718v17.81
							l-2.146,5.342l-8.484-5.342V61.757c0-1.466,0.521-2.706,1.57-3.718C511.625,56.991,512.883,56.467,514.383,56.467z"/>
					</g>
				</g>
				<g>
					<path fill="#0E0F2D" d="M530.515,48.925c-0.418,0-0.768-0.14-1.047-0.419c-0.314-0.313-0.473-0.681-0.473-1.1
						s0.158-0.769,0.473-1.047c0.279-0.279,0.629-0.419,1.047-0.419c0.42,0,0.785,0.14,1.102,0.419
						c0.277,0.279,0.418,0.628,0.418,1.047s-0.141,0.786-0.418,1.1C531.301,48.785,530.935,48.925,530.515,48.925z"/>
					<path fill="#0E0F2D" d="M518.627,48.925c-0.42,0-0.77-0.14-1.049-0.419c-0.314-0.313-0.473-0.681-0.473-1.1
						s0.158-0.769,0.473-1.047c0.279-0.279,0.629-0.419,1.049-0.419c0.418,0,0.768,0.14,1.047,0.419s0.418,0.628,0.418,1.047
						s-0.139,0.786-0.418,1.1C519.394,48.785,519.045,48.925,518.627,48.925z"/>
				</g>
				<path fill="#F6E8E7" d="M530.306,58.928c0,1.571-0.559,2.916-1.676,4.033c-1.117,1.118-2.48,1.676-4.086,1.676
					c-1.572,0-2.916-0.559-4.033-1.676s-1.676-2.462-1.676-4.033H530.306z"/>
				<path fill="#D8D0BC" d="M540.258,282.37l-0.104,9.113h-21.527v-8.591c0-1.256,0.453-2.34,1.361-3.245
					c0.908-0.908,1.99-1.362,3.248-1.362h12.465c0.141,1.152,0.646,2.13,1.52,2.933C538.058,281.986,539.072,282.37,540.258,282.37z
					"/>
				<path fill="#ECE6E1" d="M547.328,288.238v3.246h-14.299v-3.246c0-1.607,0.576-2.986,1.729-4.14
					c1.117-1.151,2.48-1.729,4.086-1.729h2.619c1.641,0,3.021,0.576,4.137,1.729C546.752,285.251,547.328,286.63,547.328,288.238z"
					/>
				<path fill="#ECE6E1" d="M522.816,284.152c1.117,1.116,1.678,2.479,1.678,4.086v3.246h-5.867v-8.591l0.053-0.522
					C520.285,282.406,521.664,282.999,522.816,284.152z"/>
				<path fill="#D8D0BC" d="M527.373,278.599v-1.048c0-0.732,0.279-1.36,0.838-1.885c0.523-0.559,1.152-0.838,1.887-0.838h2.881
					c0.768,0,1.412,0.279,1.938,0.838c0.523,0.523,0.785,1.151,0.785,1.885v1.048H527.373z"/>
				<rect x="518.627" y="288.447" fill="#D8D0BC" width="28.701" height="3.037"/>
				<path fill="#1B587A" d="M500.818,242.564c0.873,1.013,1.273,2.199,1.205,3.563c-0.697,15.434-1.275,27.009-1.729,34.728
					c-0.07,1.36-0.594,2.495-1.572,3.403c-0.941,0.906-2.061,1.326-3.352,1.256c-1.293-0.069-2.357-0.61-3.195-1.623
					c-0.838-1.014-1.223-2.198-1.152-3.563c0.559-9.671,1.117-21.212,1.678-34.621c0.068-1.327,0.576-2.461,1.518-3.404
					c0.979-0.906,2.096-1.345,3.354-1.31C498.863,241.063,499.945,241.587,500.818,242.564z"/>
				<path fill="#44597C" d="M509.25,156.56c-1.047,46.371-2.461,86.214-4.242,119.524l-18.121-0.994
					c1.744-33.208,3.143-72.841,4.189-118.896c0.068-2.166,0.838-3.998,2.305-5.5c1.467-1.537,3.23-2.287,5.289-2.252l3.301,0.052
					c2.061,0.07,3.807,0.891,5.238,2.462C508.638,152.528,509.322,154.396,509.25,156.56z"/>
				<polygon fill="#4D658C" points="505.322,270.691 487.148,269.748 487.252,267.758 505.427,268.648 				"/>
				<polygon fill="#4D658C" points="505.636,264.719 487.461,263.829 487.568,261.839 505.689,262.676 				"/>
				<path fill="#D8D0BC" d="M492.072,278.285h12.465c0.104,1.152,0.594,2.13,1.467,2.933c0.873,0.769,1.904,1.152,3.09,1.152
					l-0.104,9.113h-21.527v-8.59c0-1.257,0.455-2.341,1.363-3.246C489.697,278.74,490.779,278.285,492.072,278.285z"/>
				<path fill="#ECE6E1" d="M516.164,288.238v3.246h-14.352v-3.246c0-1.607,0.576-2.986,1.729-4.14
					c1.154-1.152,2.531-1.729,4.139-1.729h2.619c1.641,0,3.021,0.576,4.137,1.729C515.588,285.251,516.164,286.63,516.164,288.238z"
					/>
				<path fill="#ECE6E1" d="M487.513,282.37c1.607,0.035,2.986,0.629,4.139,1.781c1.117,1.116,1.676,2.479,1.676,4.086v3.246h-5.865
					v-8.591L487.513,282.37z"/>
				<path fill="#D8D0BC" d="M496.209,278.599v-1.048c0-0.732,0.262-1.36,0.785-1.885c0.523-0.559,1.17-0.838,1.938-0.838h2.881
					c0.734,0,1.381,0.279,1.939,0.838c0.523,0.523,0.785,1.151,0.785,1.885v1.048H496.209z"/>
				<rect x="487.461" y="288.447" fill="#D8D0BC" width="28.703" height="3.037"/>
				<path fill="none" stroke="#1A171C" stroke-width="1.35" d="M498.094,139.8v7.699c0,2.025-0.715,3.736-2.146,5.133
					c-1.396,1.433-3.107,2.147-5.133,2.147"/>
				<line fill="none" stroke="#1A171C" stroke-width="1.35" x1="490.814" y1="139.8" x2="537.902" y2="139.8"/>
				<line fill="none" stroke="#44597C" stroke-width="1.35" x1="519.412" y1="176.254" x2="527.058" y2="176.411"/>
				<line fill="none" stroke="#44597C" stroke-width="1.35" x1="519.412" y1="181.23" x2="527.058" y2="181.335"/>
				
					<line fill="none" stroke="#000003" stroke-width="1.35" stroke-linecap="round" x1="500.345" y1="279.384" x2="504.431" y2="279.384"/>
				
					<line fill="none" stroke="#000003" stroke-width="1.35" stroke-linecap="round" x1="501.812" y1="281.637" x2="505.898" y2="281.637"/>
				
					<line fill="none" stroke="#000003" stroke-width="1.35" stroke-linecap="round" x1="531.877" y1="279.384" x2="535.963" y2="279.384"/>
				
					<line fill="none" stroke="#000003" stroke-width="1.35" stroke-linecap="round" x1="533.344" y1="281.637" x2="537.429" y2="281.637"/>
				<path fill="#FFA685" d="M541.777,151.951c-0.385,0.523-1.029,0.978-1.938,1.362c-0.943,0.384-1.746,0.522-2.41,0.418
					l-0.521-0.104c-0.664-0.104-1.469-0.141-2.41-0.104c-0.943,0.034-1.746,0.123-2.408,0.262l-1.205,0.262
					c-0.629,0.175-1.24,0.053-1.834-0.366s-0.977-0.995-1.152-1.729l-0.262-0.839c-0.174-0.732-0.139-1.535,0.105-2.409
					c0.209-0.908,0.541-1.606,0.994-2.095l2.355-2.515c0.455-0.488,1.102-0.873,1.939-1.151c0.803-0.279,1.535-0.367,2.199-0.263
					l3.301,0.419c2.059,0.385,3.422,1.571,4.084,3.563C543.244,148.616,542.965,150.38,541.777,151.951z"/>
				<path fill="#6D3D3D" d="M524.617,26.874l8.902-5.186c0.838,1.885,0.943,3.806,0.314,5.761c-0.629,1.956-1.832,3.438-3.613,4.452
					L524.617,26.874z"/>
				<path fill="#FFC230" d="M488.98,149.699h8.066c-0.559,1.501-1.484,2.706-2.775,3.614c-1.293,0.906-2.76,1.36-4.4,1.36h-8.014
					c0.523-1.467,1.432-2.654,2.725-3.563C485.908,150.171,487.375,149.699,488.98,149.699z"/>
				<path fill="#FFD39A" d="M510.379,82.078c-1.146-1.153-1.717-2.54-1.717-4.16v-8.286h11.744v8.286
					c0,1.628-0.572,3.015-1.719,4.16c-1.145,1.145-2.531,1.718-4.16,1.718C512.908,83.796,511.525,83.223,510.379,82.078z"/>
				<path fill="#FFD39A" d="M498.494,40.521c1.729,0,3.207,0.65,4.43,1.951c1.223,1.302,1.834,2.875,1.834,4.723
					c0,1.838-0.611,3.413-1.834,4.722c-1.223,1.301-2.699,1.951-4.43,1.951c-1.736,0-3.219-0.65-4.441-1.951
					c-1.223-1.309-1.834-2.883-1.834-4.722c0-1.848,0.611-3.42,1.834-4.723C495.277,41.171,496.758,40.521,498.494,40.521z"/>
				<path fill="#FFD39A" d="M525.584,20.535c2.93,2.337,4.395,5.493,4.395,9.466v28.598c0,4.113-1.465,7.636-4.395,10.565
					c-2.93,2.921-6.451,4.382-10.564,4.382h-1.109c-4.105,0-7.623-1.461-10.555-4.382c-2.93-2.93-4.395-6.452-4.395-10.565V30.002
					c0-3.973,1.465-7.129,4.395-9.466c2.75-2.197,6.27-3.295,10.555-3.295h1.109C519.304,17.24,522.826,18.339,525.584,20.535z"/>
				<path fill="#FFD39A" d="M534.443,41.736c1.223,1.309,1.834,2.883,1.834,4.722c0,1.847-0.611,3.424-1.834,4.733
					c-1.225,1.301-2.703,1.951-4.441,1.951c-1.729,0-3.205-0.65-4.43-1.951c-1.223-1.31-1.834-2.887-1.834-4.733
					c0-1.839,0.611-3.413,1.834-4.722c1.225-1.302,2.699-1.952,4.43-1.952C531.74,39.783,533.219,40.434,534.443,41.736z"/>
				<path fill="#834A4A" d="M499.838,52.382c0,2.322,0.779,4.313,2.338,5.973c1.551,1.651,3.416,2.478,5.598,2.478h12.949
					c2.182,0,4.047-0.826,5.598-2.478c1.559-1.66,2.338-3.65,2.338-5.973V39.328c0.936,1.013,1.457,4.589,1.564,10.729
					c0.047,3.069,0.004,6.038-0.127,8.905c-0.055,6.638-1.244,11.188-3.564,13.65c-1.092,1.152-2.5,1.971-4.23,2.454
					c-1.504,0.429-3.42,0.643-5.75,0.643h-4.604c-2.354,0-4.281-0.195-5.785-0.584c-1.76-0.459-3.189-1.235-4.289-2.326
					c-2.375-2.36-3.533-6.73-3.471-13.111c-0.133-2.984-0.172-6.073-0.117-9.269c0.102-6.381,0.619-10.078,1.555-11.091v13.054
					H499.838z"/>
				<path fill="#834A4A" d="M524.181,20.302c1.752-0.242,2.949-0.339,3.588-0.292c1.043,0.078,1.801,0.483,2.268,1.216
					c0.529,0.833,0.795,2.213,0.795,4.138l-0.023,3.529c-0.039,2.837-0.111,5.485-0.223,7.947
					c-0.352,7.869-0.992,12.354-1.928,13.452V36.079c0-2.532-0.779-4.698-2.338-6.498c-1.551-1.8-3.416-2.7-5.598-2.7h-12.949
					c-2.182,0-4.047,0.9-5.598,2.7c-1.559,1.8-2.338,3.966-2.338,6.498V50.29c-0.936-1.099-1.578-5.583-1.928-13.452
					c-0.109-2.462-0.184-5.111-0.223-7.947l-0.023-3.529c0-3.833,0.998-6.561,2.992-8.182c1.744-1.409,4.482-2.114,8.215-2.114
					l10.6,5.645C520.672,20.711,522.242,20.574,524.181,20.302z"/>
				<path fill="#834A4A" d="M506.418,54.942c1.543-0.693,4.152-1.04,7.83-1.04s6.287,0.347,7.83,1.04
					c2.158,0.966,3.236,2.829,3.236,5.586c0,3.046-1.078,5.645-3.236,7.795c-2.166,2.149-4.775,3.226-7.83,3.226
					s-5.664-1.075-7.83-3.226c-2.158-2.15-3.236-4.749-3.236-7.795C503.181,57.771,504.26,55.907,506.418,54.942z"/>
				<path fill="#FFD39A" d="M517.695,60.774c1.037,0.233,2.02,0.351,2.945,0.351c0,0.779-0.67,1.445-2.01,1.998
					s-2.961,0.83-4.861,0.83s-3.521-0.277-4.861-0.83c-1.342-0.553-2.012-1.219-2.012-1.998l0.844-0.047
					c0.686-0.055,1.34-0.156,1.963-0.304c2.018-0.468,3.373-1.289,4.066-2.467C514.322,59.485,515.631,60.305,517.695,60.774z"/>
				<path fill="#6D3D3D" d="M532.818,17.871l-2.104,15.532c-0.156-0.381-0.422-0.822-0.795-1.32
					c-0.748-0.998-1.66-1.792-2.734-2.384c-3.459-1.894-7.932-1.41-13.416,1.449c-0.803-0.554-1.809-1.075-3.016-1.566
					c-2.432-0.974-4.68-1.282-6.744-0.923c-2.057,0.357-3.709,1.329-4.955,2.91c-0.389,0.499-0.717,1.027-0.98,1.589
					c-0.125,0.28-0.213,0.51-0.27,0.688l-0.104-9.77c-0.057-0.88,0.086-1.917,0.42-3.109c0.678-2.384,2.002-4.351,3.975-5.901
					c1.736-1.363,3.354-2.419,4.85-3.167c0.748-0.383,1.32-0.624,1.719-0.726l0.49,0.841c0.453,0.593,1.002,0.962,1.646,1.11
					c0.764-1.745,2.393-2.941,4.885-3.588c1.248-0.319,2.42-0.463,3.52-0.432l-0.889,1.753c-0.555,1.371-0.744,2.551-0.572,3.541
					c0.99-1.379,2.818-2.026,5.492-1.94c1.332,0.047,2.566,0.23,3.703,0.549l-0.57,2.021c-0.451,1.66-0.854,3.279-1.203,4.861
					c1.822-1.697,3.645-2.544,5.469-2.535C531.545,17.358,532.273,17.529,532.818,17.871z"/>
				<path d="M507.933,41.968c-0.207,0.264-0.496,0.394-0.861,0.394c-0.367,0-0.684-0.13-0.943-0.394
					c-0.211-0.209-0.314-0.497-0.314-0.863c0-0.367,0.104-0.682,0.314-0.943c0.262-0.209,0.576-0.314,0.943-0.314
					c0.365,0,0.654,0.104,0.861,0.314c0.264,0.263,0.395,0.576,0.395,0.943C508.328,41.471,508.197,41.758,507.933,41.968z"/>
				<path d="M522.683,41.968c-0.209,0.264-0.496,0.394-0.863,0.394c-0.365,0-0.682-0.13-0.941-0.394
					c-0.211-0.209-0.314-0.497-0.314-0.863c0-0.367,0.104-0.682,0.314-0.943c0.262-0.209,0.576-0.314,0.941-0.314
					c0.367,0,0.654,0.104,0.863,0.314c0.264,0.263,0.395,0.576,0.395,0.943C523.078,41.471,522.947,41.758,522.683,41.968z"/>
				<path fill="#FFA685" d="M554.263,159.313l-0.314,6.6c-0.07,1.99,0.244,3.457,0.941,4.399l0.314,0.472
					c0.979,1.292,1.66,2.724,2.043,4.295l0.314,1.204c0.176,0.629,0.594,1.118,1.258,1.467c0.629,0.35,1.309,0.437,2.043,0.262
					l0.838-0.209c0.732-0.175,1.449-0.559,2.146-1.151c0.662-0.595,1.117-1.223,1.361-1.887l1.152-3.247
					c0.209-0.662,0.244-1.413,0.104-2.252c-0.104-0.839-0.367-1.536-0.785-2.096l-1.57-2.095c-0.523-0.733-1.555-3.387-3.092-7.962
					L554.263,159.313z"/>
				<g>
					<path fill="#2F4678" d="M487.953,84.089c3.195-3.196,7.047-4.794,11.551-4.794h28.684c4.559,0,8.436,1.598,11.631,4.794
						c3.195,3.195,4.793,7.046,4.793,11.552l-1.887,81.333h-58.307l-1.258-81.333C483.16,91.135,484.758,87.284,487.953,84.089z"/>
					<polygon fill="#44597C" points="502.06,97.009 497.679,91.1 504.283,79.518 512.439,153.641 495.98,101.99 					"/>
					<polygon fill="#44597C" points="525.068,97.009 531.146,101.99 512.439,153.641 522.845,79.518 529.449,91.1 					"/>
					<polygon fill="#EBF9FF" points="504.283,79.518 523.918,79.518 512.439,153.641 					"/>
					<polygon fill="#FFFFFF" points="507.408,75.844 514.244,86.185 507.537,93.193 501.105,81.975 					"/>
					<polygon fill="#FFFFFF" points="520.584,75.975 526.885,82.107 520.806,93.193 514.244,86.185 					"/>
					<polygon fill="#CA6959" points="514.244,86.185 517.564,120.515 512.439,153.641 508.793,120.541 					"/>
					<polygon fill="#CA6959" points="514.244,86.185 519.199,91.48 513.707,98.016 508.935,91.702 					"/>
					<g>
						<path fill="#2F4678" d="M538.119,82.651c-1.875-1.203-3.471-2.019-4.785-2.445l-4.027,12.066c0.848,0.33,1.879,0.94,3.1,1.829
							c2.432,1.77,4.693,4.102,6.785,6.994c6.648,9.195,10.389,22.215,11.217,39.063c0.34,6.99,0.467,13.744,0.379,20.264h12.732
							c0.088-6.843-0.049-13.801-0.404-20.878c-1.021-20.777-6.148-36.827-15.389-48.147
							C544.789,87.788,541.586,84.872,538.119,82.651z"/>
					</g>
				</g>
				<g>
					<path fill="#FFA685" d="M475.625,159.913l0.313,6.599c0.07,1.99-0.244,3.457-0.941,4.4l-0.314,0.471
						c-0.979,1.292-1.658,2.725-2.043,4.295l-0.313,1.205c-0.176,0.629-0.596,1.117-1.258,1.467
						c-0.629,0.35-1.311,0.438-2.043,0.263l-0.838-0.21c-0.732-0.176-1.449-0.559-2.146-1.152c-0.664-0.594-1.117-1.222-1.363-1.885
						l-1.152-3.248c-0.209-0.663-0.242-1.414-0.104-2.252c0.104-0.838,0.367-1.536,0.785-2.096l1.57-2.096
						c0.525-0.732,1.557-3.387,3.092-7.961L475.625,159.913z"/>
					<g>
						<path fill="#2F4678" d="M488.869,83.1c1.873-1.202,3.469-2.018,4.785-2.444l4.025,12.065c-0.846,0.331-1.879,0.941-3.1,1.83
							c-2.432,1.77-4.693,4.102-6.785,6.994c-6.648,9.195-10.387,22.215-11.215,39.063c-0.34,6.989-0.467,13.744-0.379,20.263
							h-12.734c-0.086-6.842,0.049-13.801,0.406-20.877c1.02-20.777,6.146-36.827,15.387-48.148
							C482.199,88.238,485.4,85.323,488.869,83.1z"/>
					</g>
				</g>
			</g>
		</g>
		<path fill="#CC6600" d="M32.665,46.856v9.034l1.854,2.25c0-3.956-0.049-8.622-0.146-14c-0.098-5.401,1.6-7.535,5.089-6.397
			c3.466,1.138,7.828,1.603,13.085,1.396c1.115-0.052,3.176-0.388,6.18-1.008l4.217-0.893c-1.793-0.646-2.957-1.978-3.489-3.993
			l3.198,1.356c2.254,1.268,3.405,3.93,3.454,7.988c0,2.042,0.024,5.028,0.073,8.958c0.05,3.671,0.085,5.714,0.108,6.127l1.526-2.21
			c0.024-2.844,0.05-5.83,0.074-8.958c0-0.568,0.025-1.138,0.073-1.706c0.097-7.937-0.376-13.055-1.418-15.355
			c-1.066-2.275-2.277-4.099-3.635-5.469c-0.8-0.826-2.023-1.551-3.671-2.172c-1.964-0.774-4.193-1.253-6.689-1.435
			c-1.355-0.104-3.162-0.026-5.415,0.232c-2.109,0.233-3.623,0.491-4.545,0.775c-1.623,0.543-3.065,1.229-4.325,2.055
			c-1.31,0.88-2.303,1.836-2.982,2.87c-0.508,0.646-1.102,1.577-1.779,2.792c-0.654,1.241-0.98,2.999-0.98,5.274
			C32.522,36.643,32.569,40.805,32.665,46.856z"/>
		<path d="M61.201,46.971c-0.34-0.336-0.728-0.504-1.163-0.504c-0.437,0-0.824,0.168-1.164,0.504
			c-0.315,0.389-0.474,0.814-0.474,1.28c0,0.491,0.158,0.905,0.474,1.241c0.339,0.336,0.728,0.504,1.164,0.504
			c0.436,0,0.823-0.168,1.163-0.504c0.339-0.336,0.51-0.75,0.51-1.241C61.711,47.785,61.54,47.36,61.201,46.971z M42.917,47.243
			c-0.461,0-0.849,0.167-1.164,0.504l-0.036,0.039c-0.123,0.129-0.206,0.297-0.256,0.503c-0.096,0.208-0.146,0.44-0.146,0.699
			c0,0.491,0.146,0.904,0.437,1.241c0.315,0.311,0.703,0.465,1.164,0.465s0.849-0.154,1.164-0.465
			c0.313-0.337,0.472-0.75,0.472-1.241s-0.158-0.905-0.472-1.241C43.765,47.41,43.378,47.243,42.917,47.243z"/>
		<path fill="#FF9966" d="M32.665,46.856c-1.235,0.154-2.229,0.504-2.98,1.046c-0.872,0.621-1.333,1.435-1.382,2.442
			c-0.12,2.921,0.316,5.003,1.31,6.243c0.703,0.879,1.902,1.448,3.6,1.707c0.416,5.678,0.992,9.569,1.727,11.672
			s2.081,3.988,4.036,5.662c0.35,0.312,1.387,0.944,3.107,1.9c1.526,0.854,2.44,1.338,2.744,1.454l1.511,0.64
			c0.12,0.051,0.24,0.104,0.362,0.155l6.579,4.07l3.163-4.265c0.291-0.129,0.581-0.271,0.872-0.427
			c0.098-0.051,0.56-0.336,1.382-0.854c1.331-0.801,2.708-1.866,4.125-3.198c2.521-2.367,3.92-8.088,4.199-17.159
			c1.502,0,2.533-0.183,3.09-0.543c1.601-1.085,2.338-3.542,2.219-7.368c-0.024-1.034-0.485-1.861-1.383-2.481
			c-0.773-0.543-1.793-0.893-3.053-1.047c-0.023,3.128-0.049,6.114-0.074,8.958l-1.526,2.21c-0.023-0.413-0.06-2.456-0.108-6.127
			c-0.048-3.93-0.073-6.915-0.073-8.958c-0.049-4.059-1.199-6.722-3.454-7.988l-3.198-1.356c0.533,2.016,1.696,3.347,3.489,3.993
			l-4.217,0.893c-3.004,0.62-5.064,0.956-6.18,1.008c-5.258,0.207-9.619-0.258-13.085-1.396c-3.489-1.138-5.187,0.996-5.089,6.397
			c0.097,5.378,0.146,10.043,0.146,14l-1.854-2.25v-9.034H32.665z M61.201,46.971c0.339,0.389,0.51,0.814,0.51,1.28
			c0,0.491-0.17,0.905-0.51,1.241s-0.728,0.504-1.163,0.504c-0.437,0-0.824-0.168-1.164-0.504c-0.315-0.336-0.474-0.75-0.474-1.241
			c0-0.465,0.158-0.892,0.474-1.28c0.339-0.336,0.728-0.504,1.164-0.504C60.474,46.467,60.862,46.634,61.201,46.971z M59.638,64.033
			c0.267,1.706,0.023,3.593-0.727,5.662c-0.462,0.853-1.115,1.524-1.963,2.017c-1.673,0.982-3.344,1.486-5.017,1.512
			c-1.211,0.053-2.617-0.297-4.216-1.047c-0.728-0.36-1.443-1.085-2.146-2.172c-0.75-1.68-0.979-3.645-0.689-5.894
			C50.041,66.929,54.961,66.904,59.638,64.033z M42.917,47.243c0.461,0,0.849,0.167,1.164,0.504c0.313,0.336,0.472,0.75,0.472,1.241
			s-0.158,0.904-0.472,1.241c-0.315,0.311-0.703,0.465-1.164,0.465s-0.849-0.154-1.164-0.465c-0.292-0.337-0.437-0.75-0.437-1.241
			c0-0.258,0.049-0.491,0.146-0.699c0.05-0.206,0.133-0.374,0.256-0.503l0.036-0.039C42.069,47.41,42.456,47.243,42.917,47.243z
			 M13.109,154.425c5.163,7.729,10.518,7.872,16.067,0.427c0.049-1.423,0.036-2.158-0.037-2.211
			c-2.229-0.052-4.083-0.763-5.562-2.133c1.841-1.706,2.145-3.102,0.907-4.188c-0.799,0.646-1.296,1.086-1.488,1.318v0.311
			L13.109,154.425z"/>
		<path fill="#FFFFFF" d="M52.731,119.758l0.909-25.167l-3.052-3.023l2.688-7.718l4.035,7.059l-2.617,3.49l4.98,25.671l1.09-33.621
			l0.799-2.056l-4.252-5.235c-0.291,0.155-0.582,0.298-0.872,0.427l-3.163,4.265l-6.579-4.07c-0.124-0.053-0.242-0.104-0.362-0.155
			l-3.2,6.98l1.598,1.513L52.731,119.758z M59.638,64.033c-4.677,2.869-9.597,2.896-14.758,0.078
			c-0.291,2.249-0.062,4.214,0.689,5.894c0.703,1.086,1.419,1.812,2.146,2.172c1.599,0.75,3.005,1.1,4.216,1.047
			c1.672-0.025,3.343-0.529,5.017-1.512c0.849-0.491,1.501-1.164,1.963-2.017C59.661,67.627,59.905,65.74,59.638,64.033z"/>
		<path fill="#333366" d="M59.675,120.069v17.604l-6.944-17.916l-7.998-31.643l-1.598-1.514l3.2-6.979l-1.512-0.64l-3.979,2.617
			l-0.398,3.297l-1.854,14.348l7.415,1.59l-4.469,7.213l18.139,29.626l7.307-34.163l-5.815-3.762l7.377-4.11l-4.471-12.138
			l-1.926-3.722l-3.454-1.475c-0.822,0.518-1.284,0.803-1.382,0.854l4.252,5.235l-0.799,2.056L59.675,120.069z M68.145,273.96
			l3.635,0.019h2.145l1.563-92.872H57.82v92.872h1.928L68.145,273.96z M34.556,273.551h8.397h3.635h2.144v-91.71H47.97
			l-15.341,0.233v91.477H34.556z"/>
		<polygon fill="#FFCC00" points="52.731,119.758 59.675,137.673 59.675,120.069 54.695,94.398 57.312,90.906 53.277,83.849 
			50.588,91.567 53.64,94.591 		"/>
		<path fill="#999999" d="M67.418,289.721l9.997,0.506c2.01-0.025,3.538-0.245,4.579-0.659c0.969-0.44,2.146-1.422,3.526-2.947
			c0.899-1.11,1.372-2.391,1.418-3.839v-0.116c0.023-0.052-1.492-0.75-4.545-2.095c-3.004-1.318-5.088-2.21-6.252-2.675l-1.563,4.42
			l-1.636-0.854l1.854-4.072c-0.099-0.052-0.183-0.075-0.256-0.075c-0.241-0.104-0.472-0.208-0.689-0.313
			c-1.383,2.898-2.061,4.37-2.036,4.422l-1.563-0.621l2.688-4.886l-1.163-1.938l-3.635-0.019c-0.219,0.063-0.521,0.379-0.909,0.948
			c-0.362,0.519-0.558,0.853-0.582,1.009c-0.071,0.206-0.168,0.323-0.292,0.352c-0.096,0-0.872,0.179-2.324,0.54
			c-1.504,0.284-3.066,0.389-4.69,0.313v2.132c1.842,0.39,3.537,1.37,5.091,2.947C66.012,283.751,67.005,286.258,67.418,289.721z
			 M61.747,282.239c0.018-0.039-0.807-0.426-2.473-1.164c-0.583-0.271-1.272-0.579-2.072-0.93c-3.005-1.32-5.089-2.212-6.251-2.678
			l-1.564,4.422l-1.636-0.853l1.854-4.071c-0.097-0.054-0.182-0.081-0.254-0.081c-0.243-0.102-0.473-0.204-0.691-0.308
			c-1.383,2.894-2.059,4.37-2.035,4.42l-1.563-0.62l2.689-4.885l-1.163-1.94h-3.635c-0.22,0.054-0.521,0.362-0.908,0.931
			c-0.364,0.518-0.56,0.853-0.583,1.011c-0.072,0.205-0.168,0.321-0.29,0.346c-0.099,0-0.873,0.184-2.327,0.545
			c-1.502,0.284-3.066,0.39-4.688,0.311v2.132c1.843,0.389,3.538,1.372,5.09,2.948c1.574,1.551,2.566,4.059,2.979,7.521l9.997,0.505
			c2.012-0.024,3.538-0.245,4.581-0.658c0.653-0.297,1.398-0.839,2.235-1.628c0.409-0.381,0.841-0.821,1.29-1.319
			c0.896-1.11,1.368-2.391,1.418-3.839V282.239L61.747,282.239z"/>
		<path fill="#CCCCCC" d="M68.145,273.96l-8.397,0.019l-0.399,3.143c1.624,0.076,3.188-0.027,4.69-0.313
			c1.452-0.36,2.229-0.54,2.324-0.54c0.123-0.026,0.22-0.145,0.292-0.351c0.024-0.156,0.22-0.49,0.582-1.009
			C67.624,274.339,67.926,274.024,68.145,273.96z M42.226,289.294l-8.433-0.542v3.063c8.409,0.544,15.958,0.905,22.646,1.087
			c0.794,0.135,1.643-0.111,2.544-0.737v0.079c8.41,0.541,15.958,0.902,22.646,1.083c1.056,0.17,2.22-0.332,3.491-1.512
			c1.274-1.17,2.056-2.341,2.344-3.509c0.281-1.176,0.408-2.614,0.381-4.323l-0.907-1.318v0.116
			c-0.046,1.448-0.519,2.729-1.418,3.839c-1.381,1.525-2.558,2.507-3.526,2.947c-1.041,0.414-2.569,0.634-4.579,0.66l-9.997-0.507
			l-5.763-0.366c0.289-0.487,0.49-0.972,0.602-1.455c0.29-1.189,0.423-2.638,0.397-4.344l-0.907-1.317v0.115
			c-0.05,1.448-0.521,2.729-1.418,3.839c-0.449,0.498-0.881,0.938-1.29,1.319c-0.836,0.789-1.582,1.331-2.235,1.628
			c-1.043,0.413-2.569,0.634-4.581,0.658L42.226,289.294z M42.953,273.551h-8.397l-0.399,3.142c1.623,0.079,3.188-0.025,4.688-0.311
			c1.454-0.361,2.229-0.545,2.327-0.545c0.121-0.023,0.217-0.141,0.29-0.346c0.023-0.158,0.219-0.493,0.583-1.011
			C42.432,273.914,42.734,273.605,42.953,273.551z"/>
		<path fill="#666666" d="M34.156,278.824l-0.363,9.928l8.433,0.542c-0.413-3.463-1.405-5.971-2.979-7.521
			C37.695,280.197,35.998,279.213,34.156,278.824z M49.606,276.966l-1.854,4.071l1.636,0.853l1.564-4.422
			C50.49,277.287,50.041,277.12,49.606,276.966z M48.66,276.577c-0.363-0.311-0.666-0.674-0.909-1.085l-2.689,4.885l1.563,0.62
			C46.602,280.948,47.278,279.47,48.66,276.577z M67.418,289.721c-0.413-3.464-1.406-5.971-2.979-7.521
			c-1.554-1.577-3.249-2.56-5.091-2.947l-0.073,1.822c1.667,0.738,2.49,1.125,2.473,1.164l0.907,1.317
			c0.024,1.706-0.108,3.153-0.397,4.344c-0.111,0.483-0.313,0.968-0.602,1.454L67.418,289.721z M72.943,275.917l-2.688,4.886
			l1.563,0.621c-0.023-0.052,0.653-1.522,2.036-4.422C73.489,276.693,73.185,276.331,72.943,275.917z M76.142,277.896
			c-0.46-0.183-0.908-0.35-1.345-0.506l-1.854,4.072l1.636,0.854L76.142,277.896z"/>
		<path fill="#304779" d="M13.109,154.425l9.89-6.476v-0.311l-8.543-19.429l14.283-21.367l0.401,45.797
			c0.073,0.053,0.085,0.788,0.037,2.211l0.182,27.224h3.271l15.341-0.233l9.85-0.735h17.667h5.452
			c-2.2-11.301-3.563-22.152-4.088-32.555l-0.019,0.02c-0.484-15.435-0.23-27.637,0.764-36.607
			c0.744,6.271,3.968,12.074,9.668,17.412c5.162,4.841,12.069,7.827,20.72,8.958v-10.431c-8.098-1.979-14.653-6.956-19.665-14.93
			c-5.72-9.049-10.227-17.27-13.521-24.663c-0.728-1.836-2.062-3.153-3.998-3.955l-6.727-0.854l4.471,12.138l-7.377,4.11
			l5.815,3.762l-7.307,34.163l-18.139-29.626l4.469-7.213l-7.415-1.59l1.854-14.348c-1.154,0.204-3.014,0.631-5.58,1.279
			s-4.184,1.27-4.854,1.861c-0.847,0.672-2.313,2.728-4.396,6.166c-2.229,3.621-8.564,11.816-19.012,24.585
			c-4.265,3.671-6.095,7.342-5.49,11.014l9.997,25.941L13.109,154.425z"/>
		<g>
			<path fill="#FF9966" d="M121.29,138.759c-2.049-2.18-3.417-5.373-4.107-9.578c2.423-1.707,2.98-3.102,1.672-4.188
				c-1.066,0.646-1.721,1.086-1.965,1.317l-8.795,3.024v7.33C114.298,140.543,118.696,141.24,121.29,138.759z"/>
		</g>
	</g>
	<g id="Layer_2">
	</g>
</g>
</svg>
