<?xml version="1.0" encoding="utf-8"?>
<!-- Generator: Adobe Illustrator 15.1.0, SVG Export Plug-In . SVG Version: 6.00 Build 0)  -->
<!DOCTYPE svg PUBLIC "-//W3C//DTD SVG 1.1//EN" "http://www.w3.org/Graphics/SVG/1.1/DTD/svg11.dtd">
<svg version="1.1" id="Layer_1" xmlns="http://www.w3.org/2000/svg" xmlns:xlink="http://www.w3.org/1999/xlink" x="0px" y="0px"
	 width="183px" height="183px" viewBox="0 0 183 183" enable-background="new 0 0 183 183" xml:space="preserve">
<symbol  id="Duplicate_Items_Folder_x2F_arhiv" viewBox="-61.902 -79.503 123.805 159.006">
	<g id="Layer_2_4_">
		
			<use xlink:href="#arhi"  width="94.604" height="122.467" x="-47.302" y="-61.233" transform="matrix(1.3304 0.0525 -0.0525 1.3304 1.877 -0.1533)" overflow="visible"/>
	</g>
	<g id="text_4_">
		<polygon fill="#FFFFFF" points="50.839,2.156 50.839,-54.744 -28.062,-54.744 -28.062,2.156 		"/>
		
			<polygon fill="none" stroke="#FFFFFF" stroke-width="2" stroke-linecap="round" stroke-linejoin="round" stroke-miterlimit="3" points="
			50.839,2.156 50.839,-54.744 -28.062,-54.744 -28.062,2.156 		"/>
	</g>
	<g id="arh_4_">
		<g>
			<polygon fill="none" points="47.839,-53.313 -27.711,-53.313 -27.711,-2.213 47.839,-2.213 			"/>
		</g>
		<g enable-background="new    ">
			<path fill="#594A37" d="M-9.994-13.271c-0.34-3.501-1.9-5.342-5.241-5.342c-3.46,0-5.621,1.98-5.621,7.142
				c0,3.461,0.98,7.662,5.541,7.662c4.761,0,5.161-3.881,5.181-5.161h-2.86c-0.2,1.98-1.06,2.44-2.201,2.44
				c-0.9,0-2.541-0.38-2.541-4.821c0-4.101,1.701-4.541,2.621-4.541c1.22,0,1.98,0.601,2.221,2.621H-9.994z"/>
			<path fill="#594A37" d="M-8.956-16.173c1.08,1.94,1.26,4.642,1.26,6.242v1.88h7.241v-8.122h1.34l-0.12-4.681h-2.361v2.641h-5.961
				v-2.641h-2.361l-0.12,4.681H-8.956z M-5.175-10.091l-0.02-1.061c-0.06-2.74-0.58-4.221-0.98-5.021h3.001v6.082H-5.175z"/>
			<path fill="#594A37" d="M1.824-11.331c0.02,1.38,0.64,3.66,3.961,3.66c3.841,0,3.901-2.66,3.88-3.801l-0.06-4.641
				c-0.021-1.54,0.16-1.86,0.479-1.961v-0.14h-2.74l-0.1,1h-0.08c-0.641-0.96-1.72-1.38-2.741-1.38c-2.48,0-3,1.641-3,2.94
				c0,2.4,1.72,3.021,3.681,3.261c1.4,0.18,1.82,0.2,1.84,1.061c0,0.1,0,0.18,0,0.279c0,0.44-0.06,1.341-1.16,1.341
				c-0.46,0-1.36-0.12-1.36-1.62H1.824z M6.965-13.512c-0.2-0.061-0.26-0.101-0.399-0.141c-0.4-0.14-0.661-0.18-1.041-0.26
				c-0.561-0.12-1.3-0.32-1.3-1.46c0-1.021,0.62-1.181,1.1-1.181c0.36,0,1.64,0.34,1.64,2.541V-13.512z"/>
			<path fill="#594A37" d="M10.483-10.091v2.04h8.082v-2.04h-2.681v-8.122h-2.721v8.122H10.483z"/>
			<path fill="#594A37" d="M22.185-8.051v-3.601h1.38c1.62,0,3.661-0.22,3.661-3.44c0-1.781-0.68-3.121-3.102-3.121h-4.66v10.162
				H22.185z M22.185-16.173h0.96c0.64,0,1.28,0.16,1.28,1.181c0,1.26-0.76,1.3-1.34,1.3h-0.9V-16.173z"/>
			<path fill="#594A37" d="M37.644-8.051c1.461,0,3.161-0.12,3.161-2.461c0-1.64-1.021-2.2-1.78-2.36v-0.1
				c1.961-0.42,2.08-1.82,2.08-2.641c0-1.48-0.699-2.601-3.461-2.601h-4.58v10.162H37.644z M35.784-12.031h1.12
				c0.72,0,1.181,0.22,1.181,0.979c0,0.881-0.521,0.961-1.141,0.961h-1.16V-12.031z M35.784-16.173h1.18
				c1.061,0,1.42,0.32,1.42,1.041c0,0.92-0.5,1.2-1.459,1.2h-1.141V-16.173z"/>
		</g>
		<g enable-background="new    ">
			<path fill="#594A37" d="M-13.166-35.882c0.02,1.38,0.64,3.66,3.961,3.66c3.841,0,3.901-2.66,3.881-3.801l-0.06-4.641
				c-0.02-1.54,0.16-1.86,0.48-1.961v-0.14h-2.74l-0.1,1h-0.08c-0.64-0.96-1.72-1.38-2.741-1.38c-2.48,0-3,1.641-3,2.94
				c0,2.4,1.72,3.021,3.681,3.261c1.4,0.18,1.82,0.2,1.84,1.061c0,0.1,0,0.18,0,0.279c0,0.44-0.06,1.341-1.16,1.341
				c-0.46,0-1.36-0.12-1.36-1.62H-13.166z M-8.025-38.063c-0.2-0.061-0.26-0.101-0.4-0.141c-0.4-0.14-0.66-0.18-1.04-0.26
				c-0.561-0.12-1.3-0.32-1.3-1.46c0-1.021,0.62-1.181,1.1-1.181c0.36,0,1.64,0.34,1.64,2.541V-38.063z"/>
			<path fill="#594A37" d="M-0.985-32.602v-1.22h0.06c0.22,0.699,0.82,1.6,2.461,1.6c3.741,0,3.841-4.601,3.841-5.48
				c0-3.841-1.761-5.441-3.881-5.441c-1.061,0-1.82,0.439-2.321,0.98v-4.302h-2.72v13.863H-0.985z M0.815-41.104
				c1.64,0,1.76,2.44,1.76,3.441c0,2.84-1.02,3.4-1.76,3.4s-1.761-0.561-1.761-3.4C-0.945-39.263-0.625-41.104,0.815-41.104z"/>
			<path fill="#594A37" d="M11.515-32.602h3.061l-2.9-4.901l3.041-5.261h-3.041l-1.541,3.461l-1.539-3.461H5.553l3.042,5.261
				l-2.901,4.901h3.061l1.38-3.301L11.515-32.602z"/>
			<path fill="#594A37" d="M21.115-32.602h2.841v-10.162h-2.721v6.081l-3.061-6.081h-2.841v10.162h2.72v-6.081L21.115-32.602z"/>
			<path fill="#594A37" d="M30.454-32.602c1.461,0,3.161-0.12,3.161-2.461c0-1.64-1.021-2.2-1.78-2.36v-0.1
				c1.961-0.42,2.08-1.82,2.08-2.641c0-1.48-0.699-2.601-3.461-2.601h-4.58v10.162H30.454z M28.595-36.582h1.12
				c0.72,0,1.181,0.22,1.181,0.979c0,0.881-0.521,0.961-1.141,0.961h-1.16V-36.582z M28.595-40.724h1.18
				c1.061,0,1.42,0.32,1.42,1.041c0,0.92-0.5,1.2-1.459,1.2h-1.141V-40.724z"/>
		</g>
	</g>
</symbol>
<symbol  id="arhi" viewBox="-47.302 -61.233 94.604 122.467">
	<g id="Layer_1_1_">
		<polygon fill="#FFFFFF" points="-31.448,58.467 -17.648,57.967 -18.748,30.617 -30.398,8.816 -32.798,-53.333 -35.698,-53.184 		
			"/>
		<path fill="#FFA538" d="M-31.448,58.467l-4.25-111.65l2.9-0.149l2.4,62.149l11.65,21.801l1.1,27.35L-31.448,58.467z
			 M-45.798,53.767c-0.033,2.133,0.85,3.95,2.65,5.45c1.667,1.467,3.65,2.133,5.95,2l19.65-0.75v0.1l64.85-2.6l-4.6-119.2
			l-82.25,3.15l2.45,66.05l-2.05,0.05c-2.3,0.101-4.217,0.967-5.75,2.601c-1.667,1.6-2.467,3.482-2.4,5.649L-45.798,53.767z"/>
	</g>
</symbol>
<symbol  id="plashka" viewBox="-108.525 -91.176 217.05 182.351">
	<g id="Layer_4_2_">
		<polygon fill="#FFFFFF" points="107.525,-90.176 -107.525,-90.176 -107.525,90.175 107.525,90.175 		"/>
		<polygon fill="none" stroke="#FFFFFF" stroke-width="2" stroke-miterlimit="10" points="107.525,-90.176 -107.525,-90.176 
			-107.525,90.175 107.525,90.175 		"/>
	</g>
</symbol>
<g id="plashki">
	
		<use xlink:href="#plashka"  width="217.05" height="182.351" x="-108.525" y="-91.176" transform="matrix(0.8424 0 0 -1 91.6694 90.8257)" overflow="visible"/>
</g>
<g id="papka">
	<g>
		<g id="Layer_2_2_">
			
				<use xlink:href="#arhi"  width="94.604" height="122.467" x="-47.302" y="-61.233" transform="matrix(1.3304 -0.0525 -0.0525 -1.3304 87.3882 92.959)" overflow="visible"/>
		</g>
		<g id="text_1_">
			<polygon fill="#FFFFFF" points="136.35,90.65 136.35,147.551 57.45,147.551 57.45,90.65 			"/>
			
				<polygon fill="none" stroke="#FFFFFF" stroke-width="2" stroke-linecap="round" stroke-linejoin="round" stroke-miterlimit="3" points="
				136.35,90.65 136.35,147.551 57.45,147.551 57.45,90.65 			"/>
		</g>
		<g id="arh_1_">
			<polygon fill="none" points="133.35,146.119 57.8,146.119 57.8,95.02 133.35,95.02 			"/>
			<text transform="matrix(1 0 0 1 64.1152 111.0186)" fill="#594A37" font-family="'PragmaticaCondC-Bold'" font-size="20">Сдать в </text>
			<text transform="matrix(1 0 0 1 71.3052 135.5693)" fill="#594A37" font-family="'PragmaticaCondC-Bold'" font-size="20">архив</text>
		</g>
	</g>
	
		<use xlink:href="#Duplicate_Items_Folder_x2F_arhiv"  width="123.805" height="159.006" id="XMLID_1_" x="-61.902" y="-79.503" transform="matrix(1 0 0 -1 85.5083 92.8066)" overflow="visible"/>
</g>
</svg>
