<?xml version="1.0" encoding="utf-8"?>
<!-- Generator: Adobe Illustrator 15.1.0, SVG Export Plug-In . SVG Version: 6.00 Build 0)  -->
<!DOCTYPE svg PUBLIC "-//W3C//DTD SVG 1.1//EN" "http://www.w3.org/Graphics/SVG/1.1/DTD/svg11.dtd">
<svg version="1.1" xmlns="http://www.w3.org/2000/svg" xmlns:xlink="http://www.w3.org/1999/xlink" x="0px" y="0px" width="183px"
	 height="183px" viewBox="0 0 183 183" enable-background="new 0 0 183 183" xml:space="preserve">
<symbol  id="Duplicate_Items_Folder_x2F_plant" viewBox="-6.45 -126.435 167.733 162.422">
	<g id="Layer_1_3_">
		
			<use xlink:href="#gorshok"  width="89.65" height="68" y="-68" transform="matrix(1.3918 0 0 1.3918 -6.4502 -8.7998)" overflow="visible"/>
	</g>
	<g id="leaves_1_">
		<path fill-rule="evenodd" clip-rule="evenodd" fill="#996F39" d="M147.85-24.7c1.9-0.466,3.566-1.333,5-2.6
			c0.767-0.7,1.183-1.95,1.25-3.75c0.033-0.267-0.017-2.117-0.15-5.55c-0.2-5.433,0.933-9.35,3.4-11.75
			c0.933-0.933,1.167-2.083,0.7-3.45c-0.267-0.7-0.633-1.483-1.1-2.35c-0.434,0.333-0.9,0.667-1.4,1
			c-3.445,2.679-6.312,5.304-8.6,7.875c1.633-6.383,0.283-11.825-4.05-16.325c-2.733-2.833-8.566-6.65-17.5-11.45
			c-2-1.067-2.917-2.367-2.75-3.9c0.167-1.633,0.217-2.483,0.15-2.55c-1.267,1.8-2.283,3.617-3.05,5.45
			c-1.5,3.633-1.1,6.867,1.2,9.7c1.433,1.733,2.167,3.633,2.2,5.7c0,1.267-0.333,3.133-1,5.6c-0.667,2.533-1.017,4.45-1.05,5.75
			c-0.067,2.267,0.525,4.383,1.775,6.35c2.317,3.633,4.608,6.45,6.875,8.45c3.033,2.733,6.742,4.767,11.125,6.1
			c0.267,0.911,0.625,1.811,1.075,2.7C143.483-24,145.45-24.333,147.85-24.7z M144.05-10.15c-0.066-1-0.167-2.033-0.3-3.1
			c-0.533,0.4-1.083,0.783-1.65,1.15C125.4,0,120.15,11.617,126.35,22.75C139.45,20.917,145.35,9.95,144.05-10.15z M140.875-26.4
			c-1.807-5.957,0.218-12.248,6.075-18.875C141.093-38.648,139.068-32.356,140.875-26.4z M111.3-95.4c1.434-1.267,3.867-2.1,7.3-2.5
			c4.167-0.5,7.167-1.167,9-2c0.6-0.267,1.233-0.567,1.9-0.9c-0.3-0.1-3.617-0.934-9.95-2.5c-6.633-1.967-11.3-2.55-14-1.75
			c-1.6,0.466-3.883,2.383-6.85,5.75c2.433,2.1,4.466,3.517,6.1,4.25C107.467-93.783,109.633-93.9,111.3-95.4z M92.5-107.75
			c0.083-0.114,0.167-0.23,0.25-0.35l0.025-0.05l-0.025,0.05C92.667-107.98,92.583-107.864,92.5-107.75v0.05
			c0.267-0.133,0.533-0.283,0.8-0.45h-0.525l1.775-4.8c1.7-3.033,3.817-4.066,6.35-3.1c0.367,0.133,0.717-0.117,1.05-0.75
			c0.2-0.367,0.483-0.9,0.85-1.6c-2.833-0.467-4.966-1.483-6.4-3.05c-1.367-1.5-2.783-2.15-4.25-1.95c-1,0.133-2.333,0.783-4,1.95
			c-2.033,1.434-3.45,2.333-4.25,2.7c-1.7,0.733-3.35,0.783-4.95,0.15c-3.167-1.233-6.117-0.217-8.85,3.05
			c-2.167,2.566-3.85,5.983-5.05,10.25c1.9,0.733,4.517,1.816,7.85,3.25c2.767,1.1,5.05,1.716,6.85,1.85
			C84.352-99.776,88.602-102.292,92.5-107.75z"/>
		
			<path fill-rule="evenodd" clip-rule="evenodd" fill="none" stroke="#996F39" stroke-width="6" stroke-linecap="round" stroke-linejoin="round" stroke-miterlimit="3" d="
			M147.85-24.7c1.9-0.466,3.566-1.333,5-2.6c0.767-0.7,1.183-1.95,1.25-3.75c0.033-0.267-0.017-2.117-0.15-5.55
			c-0.2-5.433,0.933-9.35,3.4-11.75c0.933-0.933,1.167-2.083,0.7-3.45c-0.267-0.7-0.633-1.483-1.1-2.35
			c-0.434,0.333-0.9,0.667-1.4,1c-3.445,2.679-6.312,5.304-8.6,7.875c1.633-6.383,0.283-11.825-4.05-16.325
			c-2.733-2.833-8.566-6.65-17.5-11.45c-2-1.067-2.917-2.367-2.75-3.9c0.167-1.633,0.217-2.483,0.15-2.55
			c-1.267,1.8-2.283,3.617-3.05,5.45c-1.5,3.633-1.1,6.867,1.2,9.7c1.433,1.733,2.167,3.633,2.2,5.7c0,1.267-0.333,3.133-1,5.6
			c-0.667,2.533-1.017,4.45-1.05,5.75c-0.067,2.267,0.525,4.383,1.775,6.35c2.317,3.633,4.608,6.45,6.875,8.45
			c3.033,2.733,6.742,4.767,11.125,6.1c0.267,0.911,0.625,1.811,1.075,2.7C143.483-24,145.45-24.333,147.85-24.7z M144.05-10.15
			c1.3,20.1-4.6,31.066-17.7,32.9C120.15,11.617,125.4,0,142.1-12.1c0.566-0.367,1.117-0.75,1.65-1.15
			C143.883-12.183,143.983-11.15,144.05-10.15z M140.875-26.4c-1.807-5.957,0.218-12.248,6.075-18.875 M111.3-95.4
			c-1.667,1.5-3.833,1.617-6.5,0.35c-1.633-0.733-3.667-2.15-6.1-4.25c2.966-3.367,5.25-5.284,6.85-5.75
			c2.7-0.8,7.367-0.217,14,1.75c6.333,1.566,9.65,2.4,9.95,2.5c-0.667,0.333-1.3,0.633-1.9,0.9c-1.833,0.833-4.833,1.5-9,2
			C115.167-97.5,112.733-96.667,111.3-95.4z M92.775-108.15l1.775-4.8c1.7-3.033,3.817-4.066,6.35-3.1
			c0.367,0.133,0.717-0.117,1.05-0.75c0.2-0.367,0.483-0.9,0.85-1.6c-2.833-0.467-4.966-1.483-6.4-3.05
			c-1.367-1.5-2.783-2.15-4.25-1.95c-1,0.133-2.333,0.783-4,1.95c-2.033,1.434-3.45,2.333-4.25,2.7c-1.7,0.733-3.35,0.783-4.95,0.15
			c-3.167-1.233-6.117-0.217-8.85,3.05c-2.167,2.566-3.85,5.983-5.05,10.25c1.9,0.733,4.517,1.816,7.85,3.25
			c2.767,1.1,5.05,1.716,6.85,1.85c4.602,0.424,8.852-2.092,12.75-7.55c0.083-0.114,0.167-0.23,0.25-0.35L92.775-108.15z"/>
	</g>
	<g id="plant_1_">
		
			<path fill-rule="evenodd" clip-rule="evenodd" fill="none" stroke="#BAA632" stroke-width="6" stroke-linecap="round" stroke-linejoin="round" stroke-miterlimit="3" d="
			M56.1-7.4c5.1,37.333,24.816,48.783,59.15,34.35c9.711-5.366,16.745-17.116,21.1-35.25c4.349-18.134,4.082-31.167-0.8-39.1"/>
	</g>
</symbol>
<symbol  id="gorshok" viewBox="0 -68 89.65 68">
	<g id="Layer_1_2_">
		<path fill-rule="evenodd" clip-rule="evenodd" fill="#F4C771" d="M0,0h44.9v-68H23.7C13.533-60.167,6.517-46.5,2.65-27L0,0z"/>
		<path fill-rule="evenodd" clip-rule="evenodd" fill="#EDA51F" d="M86.95-27c-3.7-19.5-10.633-33.167-20.8-41H44.9V0h44.75
			L86.95-27z"/>
	</g>
</symbol>
<symbol  id="plashka" viewBox="3.5 -184.9 217.05 182.35">
	<g id="Layer_4_1_">
		<polygon fill-rule="evenodd" clip-rule="evenodd" fill="#FFFFFF" points="219.55,-183.9 4.5,-183.9 4.5,-3.55 219.55,-3.55 		"/>
		<polygon fill-rule="evenodd" clip-rule="evenodd" fill="none" stroke="#FFFFFF" stroke-width="2" stroke-miterlimit="10" points="
			219.55,-183.9 4.5,-183.9 4.5,-3.55 219.55,-3.55 		"/>
	</g>
</symbol>
<g id="plashki">
	
		<use xlink:href="#plashka"  width="217.05" height="182.35" x="3.5" y="-184.9" transform="matrix(0.8424 0 0 -1 -2.7002 -2.8999)" overflow="visible"/>
</g>
<g id="papka">
	
		<use xlink:href="#Duplicate_Items_Folder_x2F_plant"  width="167.733" height="162.422" x="-6.45" y="-126.435" transform="matrix(0.7164 0 0 -0.7164 48.1001 79.5498)" overflow="visible"/>
</g>
</svg>
