<?xml version="1.0" encoding="utf-8"?>
<!-- Generator: Adobe Illustrator 15.1.0, SVG Export Plug-In . SVG Version: 6.00 Build 0)  -->
<!DOCTYPE svg PUBLIC "-//W3C//DTD SVG 1.1//EN" "http://www.w3.org/Graphics/SVG/1.1/DTD/svg11.dtd">
<svg version="1.1" xmlns="http://www.w3.org/2000/svg" xmlns:xlink="http://www.w3.org/1999/xlink" x="0px" y="0px" width="183px"
	 height="183px" viewBox="0 0 183 183" enable-background="new 0 0 183 183" xml:space="preserve">
<symbol  id="Duplicate_Items_Folder_x2F_doki_new" viewBox="-43.8 -141.35 239.65 149.676">
	<g id="lotok_1_">
		<polygon fill-rule="evenodd" clip-rule="evenodd" fill="#B3B7B9" points="-42.05,-139.6 -42.05,-104.1 -12.85,-13.2 
			-12.85,-112.05 		"/>
		<polygon fill-rule="evenodd" clip-rule="evenodd" fill="#7C8589" points="-12.85,-112.05 -12.85,-13.2 194.1,-13.2 164.95,-104.1 
			164.95,-112.05 -12.85,-112.05 164.95,-112.05 164.95,-139.6 -42.05,-139.6 		"/>
		
			<polyline fill-rule="evenodd" clip-rule="evenodd" fill="none" stroke="#B3B7B9" stroke-width="3.5" stroke-linecap="round" stroke-linejoin="round" stroke-miterlimit="3" points="
			-42.05,-139.6 -42.05,-104.1 -12.85,-13.2 		"/>
		
			<path fill-rule="evenodd" clip-rule="evenodd" fill="none" stroke="#7C8589" stroke-width="3.5" stroke-linecap="round" stroke-linejoin="round" stroke-miterlimit="3" d="
			M-42.05-139.6h207v27.55h-177.8L-42.05-139.6z M164.95-112.05v7.95l29.15,90.9H-12.85v-98.85"/>
	</g>
	<g id="Layer_1_2_">
		<polygon fill-rule="evenodd" clip-rule="evenodd" fill="#FFAB43" points="-9.201,-23.492 -9.201,-122.619 -23.089,-122.619 
			-23.089,-23.492 		"/>
		<polygon fill-rule="evenodd" clip-rule="evenodd" fill="#EC4F2C" points="4.688,-47.083 4.688,-122.619 -9.201,-122.619 
			-9.201,-47.083 		"/>
		<polygon fill-rule="evenodd" clip-rule="evenodd" fill="#BCDF67" points="11.75,-29.95 11.75,-122.6 4.3,-122.6 4.3,-29.95 		"/>
		<polygon fill-rule="evenodd" clip-rule="evenodd" fill="#7EC5BA" points="57.363,-122.576 42.523,-122.576 42.523,-16.028 
			57.363,-16.028 		"/>
		<polygon fill-rule="evenodd" clip-rule="evenodd" fill="#E36036" points="65.165,-122.576 57.174,-122.576 57.174,8.326 
			65.165,8.326 		"/>
		<polygon fill-rule="evenodd" clip-rule="evenodd" fill="#FFAB43" points="79.816,-122.576 64.784,-122.576 64.784,-52.178 
			79.816,-52.178 		"/>
		<g>
			<polygon fill-rule="evenodd" clip-rule="evenodd" fill="#A6E1EA" points="38.8,4.5 38.8,-121.65 15.75,-121.65 15.75,4.5 			"/>
			<polygon fill-rule="evenodd" clip-rule="evenodd" fill="#E8E1CB" points="38.776,-13.411 15.753,-13.411 15.753,-9.225 
				38.776,-9.225 			"/>
			<polygon fill-rule="evenodd" clip-rule="evenodd" fill="#E8E1CB" points="38.776,-107.781 15.753,-107.781 15.753,-103.595 
				38.776,-103.595 			"/>
			<path fill-rule="evenodd" clip-rule="evenodd" fill="#E8E1CB" d="M36.683-93.892c0-1.776-0.444-3.298-1.331-4.565
				c-0.888-1.269-1.968-1.902-3.235-1.902h-9.705c-1.267,0-2.347,0.633-3.233,1.902c-0.888,1.267-1.333,2.789-1.333,4.565v1.143
				c0,1.648,0.444,3.106,1.333,4.375c0.886,1.268,1.966,1.903,3.233,1.903h9.705c1.267,0,2.347-0.635,3.235-1.903
				c0.886-1.269,1.331-2.728,1.331-4.375V-93.892z"/>
		</g>
		<g>
			<polygon fill-rule="evenodd" clip-rule="evenodd" fill="#BCDF67" points="102.85,4.5 102.85,-121.65 79.8,-121.65 79.8,4.5 			
				"/>
			<polygon fill-rule="evenodd" clip-rule="evenodd" fill="#E8E1CB" points="79.82,-9.225 102.843,-9.225 102.843,-13.411 
				79.82,-13.411 			"/>
			<polygon fill-rule="evenodd" clip-rule="evenodd" fill="#E8E1CB" points="79.82,-103.595 102.843,-103.595 102.843,-107.781 
				79.82,-107.781 			"/>
			<path fill-rule="evenodd" clip-rule="evenodd" fill="#E8E1CB" d="M95.992-86.471c1.269,0,2.41-0.635,3.424-1.903
				c0.888-1.143,1.333-2.601,1.333-4.375v-1.143c0-1.776-0.444-3.298-1.333-4.565c-0.886-1.269-2.029-1.902-3.424-1.902h-9.513
				c-1.267,0-2.347,0.633-3.235,1.902c-0.886,1.267-1.33,2.789-1.33,4.565v1.143c0,1.648,0.444,3.106,1.33,4.375
				c0.888,1.268,1.968,1.903,3.235,1.903H95.992z"/>
		</g>
		<g>
			<polygon fill-rule="evenodd" clip-rule="evenodd" fill="#90D2D8" points="128.908,4.475 128.908,-121.67 105.886,-121.67 
				105.886,4.475 			"/>
			<polygon fill-rule="evenodd" clip-rule="evenodd" fill="#E8E1CB" points="128.908,-13.411 105.886,-13.411 105.886,-9.225 
				128.908,-9.225 			"/>
			<polygon fill-rule="evenodd" clip-rule="evenodd" fill="#E8E1CB" points="128.908,-107.781 105.886,-107.781 105.886,-103.595 
				128.908,-103.595 			"/>
			<path fill-rule="evenodd" clip-rule="evenodd" fill="#E8E1CB" d="M126.815-93.892c0-1.776-0.444-3.298-1.332-4.565
				c-0.888-1.269-2.029-1.902-3.424-1.902h-9.513c-1.269,0-2.347,0.633-3.235,1.902c-0.888,1.267-1.333,2.789-1.333,4.565v1.143
				c0,1.648,0.444,3.106,1.333,4.375c0.888,1.268,1.966,1.903,3.235,1.903h9.513c1.269,0,2.41-0.635,3.424-1.903
				c0.888-1.143,1.332-2.601,1.332-4.375V-93.892z"/>
		</g>
		<g>
			<polygon fill-rule="evenodd" clip-rule="evenodd" fill="#90D2D8" points="154.404,5.426 181.23,-117.865 158.779,-122.622 
				131.762,0.48 			"/>
			<polygon fill-rule="evenodd" clip-rule="evenodd" fill="#E8E1CB" points="158.209,-12.079 135.567,-17.025 134.807,-12.838 
				157.258,-7.893 			"/>
			<polygon fill-rule="evenodd" clip-rule="evenodd" fill="#E8E1CB" points="178.187,-104.166 155.736,-109.113 154.785,-104.927 
				177.425,-99.981 			"/>
			<path fill-rule="evenodd" clip-rule="evenodd" fill="#E8E1CB" d="M173.241-91.038c0.379-1.776,0.252-3.361-0.381-4.757
				c-0.636-1.396-1.587-2.218-2.854-2.473l-9.324-2.092c-1.267-0.255-2.473,0.126-3.614,1.141c-1.143,1.015-1.903,2.347-2.284,3.995
				l-0.191,1.143c-0.379,1.648-0.252,3.235,0.381,4.756c0.636,1.396,1.587,2.219,2.854,2.473l9.324,2.092
				c1.267,0.128,2.473-0.316,3.614-1.331c1.143-1.016,1.903-2.347,2.284-3.997L173.241-91.038z"/>
		</g>
	</g>
	<g id="bok_1_">
		<polygon fill-rule="evenodd" clip-rule="evenodd" fill="#B3B7B9" points="164.95,-104.1 194.1,-13.2 194.1,-112.05 164.95,-139.6 
					"/>
		
			<polygon fill-rule="evenodd" clip-rule="evenodd" fill="none" stroke="#B3B7B9" stroke-width="3.5" stroke-linecap="round" stroke-linejoin="round" stroke-miterlimit="3" points="
			164.95,-104.1 194.1,-13.2 194.1,-112.05 164.95,-139.6 		"/>
	</g>
</symbol>
<symbol  id="plashka" viewBox="3.5 -184.9 217.05 182.35">
	<g id="Layer_4_1_">
		<polygon fill-rule="evenodd" clip-rule="evenodd" fill="#FFFFFF" points="219.55,-183.9 4.5,-183.9 4.5,-3.55 219.55,-3.55 		"/>
		<polygon fill-rule="evenodd" clip-rule="evenodd" fill="none" stroke="#FFFFFF" stroke-width="2" stroke-miterlimit="10" points="
			219.55,-183.9 4.5,-183.9 4.5,-3.55 219.55,-3.55 		"/>
	</g>
</symbol>
<g id="plashki">
	
		<use xlink:href="#plashka"  width="217.05" height="182.35" x="3.5" y="-184.9" transform="matrix(0.8424 0 0 -1 -2.7002 -2.8999)" overflow="visible"/>
</g>
<g id="papka">
	
		<use xlink:href="#Duplicate_Items_Folder_x2F_doki_new"  width="239.65" height="149.676" x="-43.8" y="-141.35" transform="matrix(0.6275 0 0 -0.6275 43.7998 46.7998)" overflow="visible"/>
</g>
</svg>
