<?xml version="1.0" encoding="utf-8"?>
<!-- Generator: Adobe Illustrator 15.1.0, SVG Export Plug-In . SVG Version: 6.00 Build 0)  -->
<!DOCTYPE svg PUBLIC "-//W3C//DTD SVG 1.1//EN" "http://www.w3.org/Graphics/SVG/1.1/DTD/svg11.dtd">
<svg version="1.1" xmlns="http://www.w3.org/2000/svg" xmlns:xlink="http://www.w3.org/1999/xlink" x="0px" y="0px" width="183px"
	 height="183px" viewBox="0 0 183 183" enable-background="new 0 0 183 183" xml:space="preserve">
<symbol  id="Duplicate_Items_Folder_x2F_banka" viewBox="-1.9 -95 61 115.8">
	<g id="base_1_">
		<path fill-rule="evenodd" clip-rule="evenodd" fill="#FFFFFF" d="M56.25,0c-0.721-3.773-3.438-7.056-8.15-9.85
			c-5.5-3.333-12.15-5-19.95-5c-7.8,0-14.483,1.667-20.05,5C3.444-7.056,0.761-3.773,0.05,0c-0.133,0.684-0.2,1.384-0.2,2.1
			c0,4.667,2.75,8.667,8.25,12c5.566,3.3,12.25,4.95,20.05,4.95c7.8,0,14.45-1.65,19.95-4.95c5.566-3.333,8.35-7.333,8.35-12
			C56.45,1.384,56.383,0.684,56.25,0z"/>
		<path fill-rule="evenodd" clip-rule="evenodd" fill="#FA854F" d="M0.05,0C0.761-3.773,3.444-7.056,8.1-9.85
			c5.566-3.333,12.25-5,20.05-5c7.8,0,14.45,1.667,19.95,5c4.712,2.794,7.429,6.077,8.15,9.85h0.25v-79.6
			c-0.9-2.967-3.7-5.85-8.4-8.65c-5.5-3.333-12.15-5-19.95-5c-5.691,0-10.791,0.883-15.3,2.65c-1.662,0.666-3.245,1.449-4.75,2.35
			c-4.667,2.8-7.367,6.083-8.1,9.85V0H0.05z"/>
		
			<path fill-rule="evenodd" clip-rule="evenodd" fill="none" stroke="#FA854F" stroke-width="3.5" stroke-linecap="round" stroke-linejoin="round" stroke-miterlimit="3" d="
			M0.05,0c-0.133,0.684-0.2,1.384-0.2,2.1c0,4.667,2.75,8.667,8.25,12c5.566,3.3,12.25,4.95,20.05,4.95c7.8,0,14.45-1.65,19.95-4.95
			c5.566-3.333,8.35-7.333,8.35-12c0-0.716-0.067-1.416-0.2-2.1h0.25v-79.6c-0.9-2.967-3.7-5.85-8.4-8.65
			c-5.5-3.333-12.15-5-19.95-5c-5.691,0-10.791,0.883-15.3,2.65c-1.662,0.666-3.245,1.449-4.75,2.35
			c-4.667,2.8-7.367,6.083-8.1,9.85V0H0.05z M56.25,0c-0.721-3.773-3.438-7.056-8.15-9.85c-5.5-3.333-12.15-5-19.95-5
			c-7.8,0-14.483,1.667-20.05,5C3.444-7.056,0.761-3.773,0.05,0"/>
	</g>
	<g id="krisha_1_">
		<path fill-rule="evenodd" clip-rule="evenodd" fill="#FFFFFF" d="M29.5,6.85c2.149,1.364,4.749,2.048,7.8,2.05
			c3.051-0.002,5.651-0.686,7.8-2.05c1.958-1.244,2.958-2.744,3-4.5c-0.042-1.756-1.042-3.256-3-4.5
			c-2.149-1.364-4.75-2.048-7.8-2.05c-3.051,0.002-5.651,0.686-7.8,2.05c-1.958,1.244-2.958,2.744-3,4.5
			C26.542,4.106,27.542,5.606,29.5,6.85z M36.275,7.3c-0.154,0.148-0.337,0.24-0.55,0.275c-0.207,0.039-0.407,0.014-0.6-0.075
			c-3.452-1.591-5.11-3.199-4.975-4.825c-0.139-1.65,1.536-3.167,5.025-4.55c0.214-0.09,0.431-0.106,0.65-0.05
			c0.215,0.065,0.391,0.19,0.525,0.375c0.136,0.187,0.203,0.395,0.2,0.625c-0.006,0.223-0.081,0.423-0.225,0.6
			C35.087,1.332,35.128,3.49,36.45,6.15c0.097,0.192,0.13,0.392,0.1,0.6C36.516,6.961,36.424,7.145,36.275,7.3z M38.5,0.15
			c0.882-0.76,1.933-1.143,3.15-1.15c1.218,0.007,2.268,0.39,3.15,1.15c0.945,0.807,1.412,1.773,1.4,2.9
			c0.011,1.127-0.456,2.094-1.4,2.9c-0.882,0.76-1.932,1.143-3.15,1.15c-1.217-0.007-2.268-0.39-3.15-1.15
			c-0.945-0.807-1.411-1.773-1.4-2.9C37.089,1.923,37.555,0.957,38.5,0.15z"/>
		<path fill-rule="evenodd" clip-rule="evenodd" fill="#FA854F" d="M24.5,2.35c-0.042,2.443,1.257,4.51,3.9,6.2
			c2.451,1.569,5.417,2.353,8.9,2.35c3.483,0.002,6.449-0.781,8.9-2.35c2.642-1.689,3.942-3.756,3.9-6.2
			c0.042-2.443-1.258-4.51-3.9-6.2c-2.451-1.569-5.417-2.352-8.9-2.35c-3.482-0.002-6.449,0.781-8.9,2.35
			C25.757-2.16,24.458-0.093,24.5,2.35z M38.5,0.15c-0.945,0.807-1.411,1.773-1.4,2.9c-0.011,1.127,0.455,2.094,1.4,2.9
			c0.882,0.76,1.933,1.143,3.15,1.15c1.218-0.007,2.268-0.39,3.15-1.15c0.945-0.807,1.412-1.773,1.4-2.9
			c0.011-1.126-0.456-2.093-1.4-2.9C43.917-0.61,42.868-0.993,41.65-1C40.433-0.993,39.382-0.61,38.5,0.15z M36.275,7.3
			c0.149-0.155,0.241-0.338,0.275-0.55c0.031-0.208-0.002-0.408-0.1-0.6c-1.322-2.66-1.363-4.818-0.125-6.475
			c0.144-0.176,0.219-0.376,0.225-0.6c0.003-0.23-0.063-0.438-0.2-0.625c-0.134-0.185-0.31-0.31-0.525-0.375
			c-0.219-0.057-0.436-0.04-0.65,0.05c-3.489,1.383-5.164,2.899-5.025,4.55c-0.135,1.626,1.523,3.234,4.975,4.825
			c0.193,0.089,0.393,0.114,0.6,0.075C35.938,7.54,36.121,7.448,36.275,7.3z M29.5,6.85c-1.958-1.244-2.958-2.744-3-4.5
			c0.042-1.756,1.042-3.256,3-4.5c2.149-1.364,4.749-2.048,7.8-2.05c3.051,0.002,5.651,0.686,7.8,2.05
			c1.958,1.244,2.958,2.744,3,4.5c-0.042,1.756-1.042,3.256-3,4.5c-2.149,1.364-4.75,2.048-7.8,2.05
			C34.249,8.898,31.649,8.214,29.5,6.85z"/>
	</g>
	<g id="orange_1_">
		<path fill-rule="evenodd" clip-rule="evenodd" fill="#FA854F" d="M58.1-72.8V-79c-0.267,0-0.533-0.067-0.8-0.2
			c-3.7-1.633-7.716-2.466-12.05-2.5c-8.267-0.1-15.333,2.767-21.2,8.6c-5.9,5.867-8.85,12.934-8.85,21.2s2.95,15.35,8.85,21.25
			c5.867,5.933,12.934,8.95,21.2,9.05c4.333,0.033,8.35-0.75,12.05-2.35c0.267-0.1,0.534-0.15,0.8-0.15v-6v-15.2l-12.35-5.5
			l9.4,21.5c0.167-0.067,0.35-0.083,0.55-0.05c0.833-0.167,1.633-0.417,2.4-0.75c-0.767,0.333-1.567,0.583-2.4,0.75
			c-0.2-0.033-0.383-0.017-0.55,0.05l-9.4-21.5l12.35,5.5v-1.25l-12.35-4.9L58.1-56.2v-1.35l-12.3,5.3l9.4-21.4
			C56.233-73.45,57.2-73.167,58.1-72.8z M53.9-28.6l-8.55-21.85l-8.5,21.7c2.167,1.5,4.35,2.4,6.55,2.7
			C46.9-25.483,50.4-26.333,53.9-28.6c-3.5,2.267-7,3.117-10.5,2.55c-2.2-0.3-4.383-1.2-6.55-2.7l8.5-21.7L53.9-28.6z M23.3-41.25
			c0.667,2.767,1.784,5.067,3.35,6.9c1.233,1.4,2.7,2.517,4.4,3.35c1.3,0.6,2.717,1.05,4.25,1.35L44.7-51l-21.45,9.2
			C23.317-41.633,23.333-41.45,23.3-41.25c0.034-0.2,0.017-0.383-0.05-0.55L44.7-51l-9.4,21.35c-1.533-0.3-2.95-0.75-4.25-1.35
			c-1.7-0.833-3.167-1.95-4.4-3.35C25.083-36.183,23.967-38.483,23.3-41.25z M20.6-56.6c-1.7,4.467-1.083,8.934,1.85,13.4l21.8-8.45
			l-21.8-8.6C21.65-59.017,21.033-57.8,20.6-56.6c0.433-1.2,1.05-2.417,1.85-3.65l21.8,8.6l-21.8,8.45
			C19.517-47.667,18.9-52.133,20.6-56.6z M24.75-66.05c-0.567,1.3-1.017,2.7-1.35,4.2l21.45,9.55l-9.4-21.5
			c-0.167,0.1-0.35,0.133-0.55,0.1c-2.767,0.633-5.05,1.733-6.85,3.3C26.683-69.233,25.583-67.783,24.75-66.05
			c0.833-1.733,1.933-3.184,3.3-4.35c1.8-1.567,4.083-2.667,6.85-3.3c0.2,0.034,0.383,0,0.55-0.1l9.4,21.5L23.4-61.85
			C23.733-63.35,24.183-64.75,24.75-66.05z M58.1-46.55v-9.65l-12.35,4.75L58.1-46.55z M53.9-74.3
			c-5.7-3.767-11.383-3.817-17.05-0.15l8.55,21.9L53.9-74.3l-8.5,21.75l-8.55-21.9C42.517-78.117,48.2-78.067,53.9-74.3z"/>
		<path fill-rule="evenodd" clip-rule="evenodd" fill="#FFFFFF" d="M58.1-79v-4.2c-3.967-1.633-8.25-2.466-12.85-2.5
			c-9.4-0.1-17.417,3.15-24.05,9.75c-6.667,6.6-10,14.6-10,24c0,9.4,3.333,17.45,10,24.15c6.633,6.7,14.65,10.1,24.05,10.2
			c4.6,0.033,8.883-0.75,12.85-2.35v-4.15c-0.267,0-0.533,0.05-0.8,0.15c-3.7,1.6-7.716,2.383-12.05,2.35
			c-8.267-0.1-15.333-3.117-21.2-9.05c-5.9-5.9-8.85-12.983-8.85-21.25s2.95-15.333,8.85-21.2c5.867-5.833,12.934-8.7,21.2-8.6
			c4.333,0.034,8.35,0.867,12.05,2.5C57.567-79.067,57.833-79,58.1-79z"/>
		
			<path fill-rule="evenodd" clip-rule="evenodd" fill="none" stroke="#FFFFFF" stroke-width="2" stroke-linecap="round" stroke-linejoin="round" stroke-miterlimit="3" d="
			M58.1-30.1c-0.767,0.333-1.567,0.583-2.4,0.75c-0.2-0.033-0.383-0.017-0.55,0.05l-9.4-21.5l12.35,5.5 M53.9-28.6l-8.55-21.85
			l-8.5,21.7c2.167,1.5,4.35,2.4,6.55,2.7C46.9-25.483,50.4-26.333,53.9-28.6z M23.3-41.25c0.667,2.767,1.784,5.067,3.35,6.9
			c1.233,1.4,2.7,2.517,4.4,3.35c1.3,0.6,2.717,1.05,4.25,1.35L44.7-51l-21.45,9.2C23.317-41.633,23.333-41.45,23.3-41.25z
			 M20.6-56.6c-1.7,4.467-1.083,8.934,1.85,13.4l21.8-8.45l-21.8-8.6C21.65-59.017,21.033-57.8,20.6-56.6z M24.75-66.05
			c-0.567,1.3-1.017,2.7-1.35,4.2l21.45,9.55l-9.4-21.5c-0.167,0.1-0.35,0.133-0.55,0.1c-2.767,0.633-5.05,1.733-6.85,3.3
			C26.683-69.233,25.583-67.783,24.75-66.05z M58.1-56.2l-12.35,4.75l12.35,4.9 M58.1-72.8c-0.9-0.367-1.867-0.65-2.9-0.85
			l-9.4,21.4l12.3-5.3 M53.9-74.3c-5.7-3.767-11.383-3.817-17.05-0.15l8.55,21.9L53.9-74.3z"/>
	</g>
</symbol>
<symbol  id="plashka" viewBox="3.5 -184.9 217.05 182.35">
	<g id="Layer_4_1_">
		<polygon fill-rule="evenodd" clip-rule="evenodd" fill="#FFFFFF" points="219.55,-183.9 4.5,-183.9 4.5,-3.55 219.55,-3.55 		"/>
		<polygon fill-rule="evenodd" clip-rule="evenodd" fill="none" stroke="#FFFFFF" stroke-width="2" stroke-miterlimit="10" points="
			219.55,-183.9 4.5,-183.9 4.5,-3.55 219.55,-3.55 		"/>
	</g>
</symbol>
<g id="plashki">
	
		<use xlink:href="#plashka"  width="217.05" height="182.35" x="3.5" y="-184.9" transform="matrix(0.8424 0 0 -1 -2.7002 -2.8999)" overflow="visible"/>
</g>
<g id="papka">
	
		<use xlink:href="#Duplicate_Items_Folder_x2F_banka"  width="61" height="115.8" x="-1.9" y="-95" transform="matrix(0.7649 0 0 -0.7649 70.6001 66.7998)" overflow="visible"/>
</g>
</svg>
