<?xml version="1.0" encoding="utf-8"?>
<!-- Generator: Adobe Illustrator 15.1.0, SVG Export Plug-In . SVG Version: 6.00 Build 0)  -->
<!DOCTYPE svg PUBLIC "-//W3C//DTD SVG 1.1//EN" "http://www.w3.org/Graphics/SVG/1.1/DTD/svg11.dtd">
<svg version="1.1" id="label" xmlns="http://www.w3.org/2000/svg" xmlns:xlink="http://www.w3.org/1999/xlink" x="0px" y="0px"
	 width="183px" height="183px" viewBox="0 0 183 183" enable-background="new 0 0 183 183" xml:space="preserve">
<symbol  id="label_1_" viewBox="-8.85 -55.528 56.8 66.428">
	<g id="base_1_">
		<path fill-rule="evenodd" clip-rule="evenodd" fill="#DE4653" d="M46.95,0.5C42.317-43.567,29.3-61.167,7.9-52.3
			c6.8,1.667,10.15,6.767,10.05,15.3c-8.467-6.9-17.067-7.383-25.8-1.45C3.383-38.517,9.933-22.4,11.8,9.9L46.95,0.5z"/>
		
			<path fill-rule="evenodd" clip-rule="evenodd" fill="none" stroke="#DE4653" stroke-width="2" stroke-linecap="round" stroke-linejoin="round" stroke-miterlimit="3" d="
			M46.95,0.5C42.317-43.567,29.3-61.167,7.9-52.3c6.8,1.667,10.15,6.767,10.05,15.3c-8.467-6.9-17.067-7.383-25.8-1.45
			C3.383-38.517,9.933-22.4,11.8,9.9L46.95,0.5z"/>
	</g>
	<g id="text_1_">
		
			<path fill-rule="evenodd" clip-rule="evenodd" fill="none" stroke="#FFFFFF" stroke-width="5" stroke-linecap="round" stroke-linejoin="round" stroke-miterlimit="3" d="
			M15.35-12.55l21.75-5.9 M12.85-21.8l21.8-6 M16.65-3.2L38.4-9.15"/>
	</g>
</symbol>
<use xlink:href="#label_1_"  width="56.8" height="66.428" x="-8.85" y="-55.528" transform="matrix(0.9659 -0.2588 -0.2588 -0.9659 7.2002 14)" overflow="visible"/>
</svg>
