<?xml version="1.0" encoding="utf-8"?>
<!-- Generator: Adobe Illustrator 15.1.0, SVG Export Plug-In . SVG Version: 6.00 Build 0)  -->
<!DOCTYPE svg PUBLIC "-//W3C//DTD SVG 1.1//EN" "http://www.w3.org/Graphics/SVG/1.1/DTD/svg11.dtd">
<svg version="1.1" id="Layer_1" xmlns="http://www.w3.org/2000/svg" xmlns:xlink="http://www.w3.org/1999/xlink" x="0px" y="0px"
	 width="921.725px" height="347.965px" viewBox="0 0 921.725 347.965" enable-background="new 0 0 921.725 347.965"
	 xml:space="preserve">
<g id="Layer_1_2_">
	<g>
		<g id="Layer_1_1_">
			<g>
				<g>
					<path fill="#63747D" d="M227.396,343.909h-18.918c0.257-2.444,1.291-4.503,3.088-6.18c1.803-1.676,3.925-2.508,6.371-2.508
						c2.443,0,4.634,0.831,6.564,2.508C226.304,339.406,227.264,341.464,227.396,343.909z"/>
					<g>
						<rect x="226.236" y="240.833" fill="#63747D" width="106.74" height="6.759"/>
						<path fill="#4A889D" d="M337.993,235.435c0,1.415-0.641,2.702-1.931,3.854c-1.29,1.029-2.771,1.545-4.438,1.545H226.624
							c-1.802,0-3.348-0.516-4.629-1.545c-1.288-1.155-1.933-2.438-1.933-3.854c0-1.545,0.646-2.831,1.933-3.859
							c1.285-1.159,2.831-1.734,4.629-1.734h105.001c1.797,0,3.279,0.58,4.438,1.734
							C337.353,232.604,337.993,233.89,337.993,235.435z"/>
						<path fill="#63747D" d="M237.82,248.561l-14.092,91.486c-0.128,1.024-0.58,1.867-1.353,2.506
							c-0.9,0.651-1.865,0.839-2.896,0.589c-1.025-0.132-1.865-0.647-2.506-1.547c-0.521-0.774-0.708-1.676-0.586-2.71l14.093-91.49
							c0.252-1.023,0.773-1.864,1.543-2.506c0.773-0.521,1.668-0.709,2.702-0.582c1.026,0.127,1.865,0.582,2.506,1.356
							C237.884,246.562,238.076,247.53,237.82,248.561z"/>
						<path fill="#63747D" d="M318.5,248.561c-0.129-1.03,0.129-1.999,0.773-2.895c0.512-0.774,1.285-1.229,2.315-1.355
							c1.024-0.128,1.993,0.06,2.896,0.581c0.895,0.643,1.417,1.479,1.544,2.506l14.09,91.491c0.132,1.029-0.129,1.936-0.77,2.71
							c-0.644,0.899-1.482,1.413-2.507,1.546c-0.9,0.25-1.803,0.063-2.706-0.588c-0.773-0.643-1.285-1.479-1.542-2.506
							L318.5,248.561z"/>
					</g>
					<path fill="#63747D" d="M327.957,343.909c0.255-2.444,1.285-4.503,3.088-6.18c1.801-1.676,3.92-2.508,6.371-2.508
						c2.438,0,4.625,0.831,6.559,2.508c1.801,1.672,2.766,3.73,2.896,6.18H327.957z"/>
					<path fill="#4A889D" d="M220.833,117.502c0-2.705,1.029-5.02,3.087-6.95c2.188-1.93,4.762-2.894,7.72-2.894h93.032
						c2.96,0,5.539,0.964,7.725,2.894c2.063,1.931,3.087,4.245,3.087,6.95l-13.51,102.297c0,2.707-1.025,5.021-3.091,6.951
						c-2.184,1.931-4.761,2.897-7.72,2.897h-66.009c-2.96,0-5.475-0.967-7.529-2.897c-2.058-1.934-3.088-4.244-3.088-6.951
						L220.833,117.502z"/>
				</g>
				<g>
					<g>
						<g>
							<g>
								<path fill="#F9C3A5" d="M140.151,233.505c1.29-1.416,2.254-4.636,2.896-9.651h0.387l0.192-1.931
									c0.513-2.707,1.93-4.829,4.245-6.375c2.317-1.414,4.829-1.867,7.527-1.352c2.704,0.646,4.826,2.06,6.371,4.245
									c1.543,2.317,1.993,4.833,1.349,7.529l-0.581,2.123c-3.213,10.039-7.14,22.843-11.774,38.41
									c-5.402,14.54-8.428,22.581-9.069,24.123c-4.766,13.899-7.016,23.031-6.756,27.409c0.257,4.123,1.479,9.519,3.669,16.212
									c0.512,0,0.77,0.837,0.77,2.506l2.319,5.408l-1.738-0.39l-2.702-0.188l-4.826-2.51l-0.192-0.195
									c-4.767-0.51-7.594-3.08-8.493-7.718c-0.257-0.643-0.454-5.02-0.582-13.125l-3.283-5.981l2.507-3.475
									c0.129-0.773,0.321-1.354,0.581-1.733c0.256-0.129,0.581-0.322,0.96-0.583h0.197l2.506-3.474l1.735-38.797
									c0.773-6.178,2.447-12.29,5.018-18.331C135.453,240.903,137.707,236.85,140.151,233.505z"/>
								<path fill="#2A4551" d="M117.569,316.114l-0.191-0.387c-0.255-5.791,1.998-9.074,6.756-9.849
									c0,0.258-0.26,0.837-0.773,1.738c-0.251,1.159,0,2.639,0.773,4.436c0.902,2.442,1.349,5.981,1.349,10.616
									c-0.129,4.251,0.517,7.658,1.929,10.234c1.676,3.08,4.058,4.307,7.145,3.665c1.669-0.255,3.088-0.9,4.249-1.936l7.332,6.566
									c1.542,1.934,1.29,2.831-0.77,2.698c-2.066,0.258-5.667-0.124-10.812-1.159L127.223,341c-0.9-0.25-1.803-0.763-2.701-1.535
									c-1.936-1.676-2.836-3.991-2.709-6.954c0.257-5.788-0.384-9.456-1.929-11.003l-3.668,15.247l-1.542-0.383L117.569,316.114z"
									/>
							</g>
							<g>
								<path fill="#EFB394" d="M146.521,234.084c0.257-2.317-0.644-5.538-2.702-9.65l0.384-0.196l-0.77-1.73
									c-0.895-2.577-0.772-5.085,0.389-7.525c1.025-2.442,2.831-4.186,5.406-5.215c2.574-0.896,5.144-0.764,7.723,0.389
									c2.571,1.159,4.309,3.023,5.207,5.599l0.583,1.937c2.571,10.284,5.98,23.221,10.224,38.794
									c0.521,2.186,2.255,10.616,5.213,25.284c3.348,14.413,6.243,23.415,8.687,27.02c2.576,3.602,6.496,7.525,11.773,11.771
									c0.901-0.511,1.542-0.576,1.929-0.192c0.256,0.258,0.256,0.838,0,1.738l4.831,3.474l-1.738,0.579l-2.314,1.164l-5.597,0.579
									l-0.192-0.191c-4.248,2.059-8.045,1.413-11.388-1.931c-0.251-0.39-2.702-3.993-7.335-10.811l-5.978-3.286l0.384-4.438
									c-0.384-0.765-0.32-1.669,0.197-2.699v-0.199l0.384-4.245l-19.105-33.967c-2.576-5.663-4.374-11.707-5.406-18.141
									C146.394,242.707,146.134,238.073,146.521,234.084z"/>
								<path fill="#2A4551" d="M171.614,302.409c0.129,0.261,0.193,0.837,0.193,1.737c0.389,1.158,1.285,2.316,2.704,3.477
									c2.185,1.676,4.437,4.564,6.754,8.685c2.058,3.856,4.31,6.5,6.756,7.914c3.082,1.801,5.791,1.609,8.104-0.579
									c1.291-1.164,2.184-2.443,2.705-3.861l3.669,0.579c2.571,0.517,4.564,1.03,5.978,1.547c2.314,0.768,2.511,1.606,0.584,2.509
									c-1.546,1.158-4.894,2.638-10.039,4.438l-7.146,2.314c-0.896,0.255-1.929,0.255-3.083,0
									c-2.447-0.513-4.377-2.06-5.791-4.631c-2.96-5.404-5.342-8.23-7.144-8.494l4.439,14.868l-1.543,0.579l-7.725-18.915
									l-0.384-0.388C167.429,309.418,167.755,305.5,171.614,302.409z"/>
							</g>
							<path fill="#4DA1B0" d="M156.749,209.956c0.26,3.216-1.733,8.814-5.983,16.79c-2.314,4.378-4.569,7.914-6.751,10.618
								c-2.188,2.578-3.733,3.603-4.634,3.087l-0.193-0.192H87.461c-0.644,0.129-1.738,0.192-3.286,0.192
								c-7.328,0-13.703-2.508-19.106-7.529c-5.405-5.017-8.489-11.192-9.263-18.529v-6.563l6.175-22.197l36.289-6.18l5.018,9.651
								c1.414,1.285,2.767,2.769,4.053,4.44l49.031,16.02l-0.192,0.187L156.749,209.956z"/>
						</g>
						<g>
							<path fill="#F9C3A5" d="M145.75,26.977c5.538,4.629,7.724,9.46,6.564,14.478c-1.546,6.947-4.506,11.324-8.878,13.122
								l-0.773,4.25c-0.251,3.475,0.257,6.687,1.542,9.646c-0.384,1.935-2.187,2.447-5.402,1.546
								c-0.389-0.133-1.611,1.478-3.668,4.826c-2.188,3.348-3.992,5.146-5.407,5.405c-1.414,0.129-3.407-0.192-5.978-0.963
								c-2.314-0.643-4.058-1.414-5.21-2.314c-1.162,2.185-1.935,4.372-2.319,6.563c-0.385,1.935-0.449,3.992-0.192,6.18
								c0.129,1.414,1.995,7.271,5.603,17.559L93.056,87.971v-0.386h0.389c2.702-2.447,4.889-5.662,6.564-9.652
								c0.765-1.801,2.058-5.725,3.855-11.772c-4.121-3.728-6.178-8.877-6.178-15.438c0-6.564,2.187-12.935,6.564-19.109
								c4.499-6.435,10.034-10.744,16.598-12.934c6.562-2.316,12.226-1.798,16.987,1.546c1.03,0.773,1.738,1.414,2.122,1.93
								L145.75,26.977z"/>
							<path fill="#60362E" d="M148.064,29.099c3.861,2.704,5.597,5.978,5.213,9.844c-0.127,2.061-0.708,3.796-1.738,5.213
								l-0.384,1.157c-5.667-1.025-10.876-0.896-15.642,0.389c-4.116,1.161-7.011,2.19-8.686,3.086
								c-1.414,0.646-3.537,2-6.367,4.058c-1.417-3.088-2.831-4.116-4.249-3.088c-0.64,0.389-1.22,1.285-1.735,2.699
								c-0.255,0.773-0.58,1.871-0.96,3.286c-1.673,4.116-2.511,6.238-2.511,6.367c-1.668,3.349-3.082,4.826-4.245,4.442
								c-6.692-1.547-11.645-6.821-14.865-15.826c-1.03-3.22-1.479-7.014-1.349-11.388c0.125-8.498,3.083-15.186,8.874-20.08
								l-0.96-2.123c-0.649-2.441,0.124-4.888,2.311-7.334c2.32-2.442,5.342-4.183,9.078-5.208c3.733-0.9,7.205-0.838,10.419,0.192
								c3.088,1.026,4.958,2.768,5.599,5.206l0.192,1.353c6.953,0.516,12.743,3.668,17.371,9.458
								C145.621,23.629,147.162,26.393,148.064,29.099z"/>
						</g>
						<path fill="#2A4551" d="M121.238,102.637c0.77,2.96,2.576,6.954,5.405,11.97c2.96,5.274,4.824,9.14,5.598,11.582
							c2.187,6.303,1.157,12.221-3.088,17.76c-3.988,4.377-6.816,7.657-8.493,9.844c-1.414,1.674-2.639,3.796-3.669,6.37
							c-2.443,6.954-5.918,18.272-10.424,33.97c-5.659,12.228-14.925,18.469-27.792,18.728c-7.72,0.255-14.348-1.162-19.884-4.251
							c-5.662-2.958-8.622-6.692-8.874-11.191c-0.129-3.219,1.222-6.25,4.053-9.078l1.163-1.155
							c2.187-3.215,5.597-8.043,10.228-14.476c3.86-5.791,6.564-11.001,8.105-15.639c1.417-4.5,2.319-10.867,2.703-19.106
							c0.257-9.135,0.838-15.577,1.738-19.303c1.414-6.434,2.443-10.746,3.088-12.929c1.414-4.634,3.344-8.817,5.791-12.546
							c1.802-2.706,5.533-6.953,11.195-12.744l0.576,0.192C104.059,90.287,111.587,97.621,121.238,102.637z"/>
					</g>
					<g>
						<path fill="#63747D" d="M32.836,342.552H13.918c0.255-2.442,1.29-4.497,3.086-6.175c1.803-1.673,3.925-2.51,6.372-2.51
							c2.442,0,4.628,0.837,6.564,2.51C31.741,338.055,32.708,340.11,32.836,342.552z"/>
						<g>
							<rect x="31.485" y="239.487" fill="#63747D" width="106.741" height="6.755"/>
							<path fill="#4A889D" d="M143.239,233.89c0,1.545-0.582,2.894-1.735,4.056c-1.288,1.029-2.831,1.542-4.634,1.542h-105
								c-1.803,0-3.284-0.513-4.44-1.542c-1.285-1.162-1.931-2.507-1.931-4.056c0-1.544,0.645-2.831,1.931-3.861
								c1.161-1.024,2.639-1.542,4.44-1.542h105c1.803,0,3.349,0.518,4.634,1.542C142.661,231.059,143.239,232.345,143.239,233.89z"
								/>
							<path fill="#63747D" d="M43.258,247.201l-14.091,91.496c-0.129,1.024-0.641,1.867-1.543,2.509
								c-0.9,0.639-1.803,0.83-2.702,0.576c-2.447-0.385-3.544-1.802-3.286-4.246l14.284-91.49c0.129-1.024,0.581-1.867,1.353-2.506
								c0.902-0.518,1.871-0.705,2.896-0.584c1.029,0.129,1.871,0.584,2.508,1.352C43.322,245.209,43.515,246.18,43.258,247.201z"/>
							<path fill="#63747D" d="M123.937,247.201c-0.127-1.022,0.065-1.992,0.586-2.888c0.644-0.772,1.479-1.228,2.507-1.356
								c1.029-0.121,1.993,0.066,2.896,0.584c0.769,0.643,1.22,1.48,1.349,2.508l14.093,91.49c0.252,1.028,0.065,1.935-0.584,2.706
								c-0.644,0.896-1.482,1.414-2.507,1.538c-1.029,0.255-1.993,0.063-2.896-0.576c-0.77-0.646-1.222-1.482-1.349-2.508
								L123.937,247.201z"/>
						</g>
						<path fill="#63747D" d="M133.395,342.552c0.256-2.442,1.29-4.497,3.087-6.175c1.802-1.673,3.92-2.51,6.371-2.51
							s4.634,0.837,6.564,2.51c1.803,1.672,2.766,3.729,2.896,6.175H133.395z"/>
						<path fill="#4A889D" d="M22.219,113.252c1.162-0.257,2.447,2.831,3.86,9.266L44.8,222.886
							c1.417,6.436,1.546,9.783,0.387,10.035l-11,2.321c-1.029,0.254-2.251-2.835-3.666-9.268L7.165,126.379
							c-1.414-6.435-1.479-9.784-0.193-10.036l7.529-1.546h0.194L22.219,113.252z"/>
					</g>
				</g>
				<g>
					<g>
						<g>
							<path fill="#F0CCAD" d="M815.326,16.552c4.498,3.475,6.5,8.493,5.979,15.057c-0.898,10.423-1.283,19.558-1.156,27.407
								c-0.389,1.936-0.256,4.058,0.385,6.371c0.389,1.29,1.293,3.733,2.707,7.333l2.896,12.547
								c2.057,8.62,3.727,13.833,5.018,15.636l-24.9,5.018c0.521-7.079,0.645-13.899,0.389-20.454
								c-0.521-13.126-2.771-18.145-6.756-15.062c-3.088,3.861-5.855,6.047-8.299,6.564c-1.674-0.897-3.605-2.96-5.791-6.18
								l-2.709-4.245c-3.082-1.673-5.268-2.187-6.559-1.546c-0.896,0.387-1.16-0.256-0.773-1.93
								c0.256-1.291,1.227-4.121,2.896-8.495c0.129-0.773-1.094-3.15-3.664-7.144c-1.672-2.571-2.895-5.918-3.668-10.034
								l-0.773-5.598l3.086,0.192c2.445-0.129,4.252-1.096,5.406-2.896c5.016-7.079,10.23-12.221,15.633-15.441
								c5.922-3.471,10.49-3.536,13.707-0.191L815.326,16.552z"/>
							<g>
								<path fill="#2A3D43" d="M760.314,249.912l-7.145-27.796l63.113-31.458c0.258,0,7.018-0.838,20.268-2.514
									c13.516,0,21.299,4.058,23.355,12.167c2.186,8.489,1.412,15.305-2.314,20.453c-1.418,2.189-5.275,5.542-11.582,10.037
									C840.992,234.403,812.434,240.771,760.314,249.912z"/>
								<path fill="#2A424B" d="M689.477,325.572l52.502-97.473l0.389,0.194c2.32-3.218,5.404-5.148,9.268-5.791
									c3.863-0.642,7.395,0.129,10.615,2.314c2.576,1.801,4.373,4.182,5.404,7.142c0.898,2.961,0.898,5.923,0,8.875l0.773,0.39
									l-61.959,92.842L689.477,325.572z"/>
								<path fill="#383635" d="M669.787,322.674l22.781-8.685l3.664,5.6l-0.768,3.481l16.209,3.277
									c0.773,1.159,1.029,2.447,0.773,3.86l-0.773,3.67c-0.127,1.158-0.768,2.18-1.93,3.08l-0.77,4.058l-17.76-3.662l0.389-2.317
									c-2.961,0-5.471,0.255-7.525,0.771h-0.191l-27.604-5.6c-2.703-1.289-4.244-2.124-4.627-2.507
									c-2.186-1.547,0.186-2.831,7.143-3.861C662.266,323.319,665.932,322.937,669.787,322.674z"/>
							</g>
							<path fill="#2A3D43" d="M754.33,241.223l-0.963-28.572c45.033-11.32,67.877-16.982,68.52-16.982
								c0.256,0,7.016,0.643,20.268,1.931c13.123,2.96,19.814,8.622,20.074,16.987c0.387,8.751-1.805,15.251-6.561,19.498
								c-1.934,1.798-6.434,4.245-13.514,7.335C836.363,243.86,807.086,243.797,754.33,241.223z"/>
							<path fill="#2A3D43" d="M762.244,210.724c3.99,0.262,7.268,1.804,9.844,4.635c2.578,2.952,3.73,6.435,3.48,10.418v0.39h0.385
								l-2.316,16.405v-0.191l-12.742,94.385l-19.105-0.188l3.473-72c-1.027-13.762-1.162-24.636-0.389-32.615
								C746.285,217.161,752.076,210.086,762.244,210.724z"/>
							<g>
								<path fill="#635650" d="M825.363,43.575c-0.641,1.931-1.162,4.441-1.541,7.525c-0.646,3.347-1.803,7.849-3.477,13.516
									c-2.188-0.773-3.924-2.314-5.211-4.634l-1.352-3.087c-0.129-0.516,0.186-3.087,0.961-7.719
									c0.643-3.733,0.189-6.18-1.352-7.337c-2.316-1.929-4.184-1.221-5.598,2.125c-1.158,2.698-1.674,5.405-1.547,8.105
									c-1.412-0.902-2.57-2.058-3.473-3.475l-0.191-0.194c-0.773-1.029-1.604-3.731-2.506-8.105
									c-0.9-4.248-1.736-6.883-2.51-7.913c-1.023-1.288-3.082-1.733-6.174-1.353c-2.447,0.257-4.699,0.773-6.756,1.547
									c-3.084,1.675-5.404,2.831-6.949,3.472c-2.959,1.417-5.475,1.546-7.527,0.389c-1.025-0.521-2.123-1.482-3.279-2.896
									c-1.15-1.534-1.732-2.884-1.738-4.058c0.043,1.747,4.486-2.566,13.318-12.933c4.76-3.988,10.291-6.949,16.598-8.878
									c14.02-4.245,23.549-0.96,28.564,9.849C827.617,26.268,828.191,34.953,825.363,43.575z"/>
							</g>
							<path fill="#E8F5F6" d="M800.076,95.111c3.604-6.816,5.598-11.063,5.98-12.744c1.543-0.768,2.316-1.223,2.316-1.347
								c-0.258-0.129,0.254-0.775,1.541-1.936c2.959-2.705,7.336-6.751,13.125-12.162l0.773,0.773l4.438,1.738
								c3.729,1.669,7.461,3.92,11.195,6.749c3.732,2.832,6.498,6.956,8.301,12.356c1.16,3.604,2.063,8.494,2.703,14.667
								c0.9,9.647,1.865,24.255,2.895,43.813c0.254,4.248,1.158,10.617,2.703,19.109c0.389,1.801,1.285,6.372,2.703,13.703
								c1.291,6.815,1.871,11.323,1.738,13.512c-0.26,5.923-9.076,9.976-26.445,12.161c-18.273,1.285-28.438,2.06-30.494,2.314
								l-8.883-99.403C794.801,105.852,796.604,101.41,800.076,95.111z"/>
						</g>
						<path fill="#383635" d="M721.902,328.465l21.039-12.545l4.438,4.829l-0.191,3.668l16.6,0.388
							c0.9,0.901,1.352,2.123,1.352,3.663v3.668c-0.254,1.417-0.709,2.575-1.352,3.477l-0.195,4.053l-18.143-0.579l0.195-2.318
							c-2.441,0.521-4.891,1.227-7.336,2.125l-28.365-0.77c-1.805-0.389-3.543-0.9-5.217-1.542
							c-2.314-1.161-0.127-2.894,6.564-5.212C714.631,330.328,718.17,329.367,721.902,328.465z"/>
					</g>
					<g>
						<path fill="#63747D" d="M894.268,337.732c1.803-1.676,3.926-2.507,6.365-2.507c2.449,0,4.635,0.829,6.564,2.507
							c1.805,1.671,2.77,3.731,2.896,6.179h-18.918C891.438,341.464,892.469,339.406,894.268,337.732z"/>
						<g>
							<rect x="785.789" y="240.833" fill="#63747D" width="106.744" height="6.759"/>
							<path fill="#4A889D" d="M896.58,231.573c1.287,1.03,1.932,2.314,1.932,3.861c0,1.413-0.645,2.702-1.932,3.852
								c-1.283,1.03-2.766,1.547-4.438,1.547H787.145c-1.674,0-3.156-0.517-4.443-1.547c-1.283-1.155-1.934-2.438-1.934-3.852
								c0-1.547,0.65-2.831,1.934-3.861c1.158-1.158,2.641-1.732,4.443-1.732h104.998
								C893.947,229.837,895.43,230.417,896.58,231.573z"/>
							<path fill="#63747D" d="M880.758,248.561c-0.133-1.03,0.129-1.999,0.77-2.895c0.645-0.774,1.48-1.229,2.51-1.355
								c1.025-0.128,1.932,0.06,2.703,0.581c0.9,0.643,1.414,1.479,1.543,2.506l14.092,91.491c0.256,0.903,0.063,1.804-0.582,2.71
								c-0.641,0.899-1.477,1.413-2.508,1.546c-1.025,0.12-1.994-0.066-2.896-0.588c-0.773-0.643-1.289-1.479-1.545-2.506
								L880.758,248.561z"/>
							<path fill="#63747D" d="M800.266,248.561l-14.086,91.486c-0.262,1.024-0.773,1.867-1.547,2.506
								c-0.9,0.521-1.865,0.71-2.896,0.589c-1.021-0.132-1.801-0.647-2.314-1.547c-0.645-0.9-0.895-1.803-0.773-2.71l14.096-91.49
								c0.26-1.023,0.771-1.864,1.545-2.506c0.771-0.521,1.668-0.709,2.701-0.582c1.031,0.127,1.871,0.582,2.51,1.356
								C800.143,246.562,800.395,247.53,800.266,248.561z"/>
						</g>
						<path fill="#63747D" d="M790.813,343.909H771.9c0.25-2.444,1.283-4.503,3.082-6.18c1.803-1.676,3.924-2.508,6.377-2.508
							c2.438,0,4.625,0.831,6.559,2.508C789.715,339.406,790.682,341.464,790.813,343.909z"/>
						<path fill="#4A889D" d="M917.045,117.696c0.518,0.127,0.773,1.155,0.773,3.085c-0.127,2.06-0.453,4.377-0.965,6.948
							l-23.162,99.6c-1.414,6.432-2.701,9.521-3.855,9.261l-10.809-2.312c-0.521-0.127-0.773-1.158-0.773-3.083
							c0.125-1.935,0.449-4.186,0.963-6.758l18.916-100.563c0.514-2.572,1.158-4.828,1.932-6.753
							c0.639-1.803,1.225-2.633,1.732-2.508L917.045,117.696z"/>
					</g>
				</g>
				<g>
					<g>
						<path fill="#306779" d="M337.799,110.161l10.036,35.324c-3.601,1.542-9.134,3.477-16.6,5.789l-20.843-43.422
							c-2.062-2.831-3.475-6.048-4.248-9.652c-1.543-7.335,0.837-13,7.143-16.985l7.141-1.543
							c5.407,0.384,9.522,4.182,12.355,11.385C334.841,96.078,336.515,102.443,337.799,110.161z"/>
						<path fill="#306779" d="M339.734,157.646c-2.447,0-4.504-0.9-6.18-2.704c-1.801-1.668-2.702-3.726-2.702-6.178
							c0-2.444,0.901-4.501,2.702-6.18c1.67-1.668,3.729-2.506,6.18-2.506c2.444,0,4.5,0.836,6.175,2.506
							c1.801,1.674,2.702,3.732,2.702,6.18c0,2.443-0.897,4.504-2.702,6.178C344.234,156.746,342.176,157.646,339.734,157.646z"/>
					</g>
					<path fill="#2E5D6E" d="M325.259,217.87c0,2.701-1.738,5.017-5.209,6.951c-3.353,1.93-7.465,2.896-12.356,2.896h-47.097
						c-4.889,0-9.069-0.967-12.54-2.896c-3.48-1.935-5.211-4.25-5.211-6.951c0-2.702,1.73-5.017,5.211-6.947
						c3.474-1.93,7.655-2.896,12.54-2.896h47.097c4.889,0,9.007,0.967,12.356,2.896C323.517,212.853,325.259,215.168,325.259,217.87
						z"/>
					<g>
						<path fill="#306779" d="M228.361,110.161c1.285-7.721,2.96-14.088,5.018-19.106c2.96-7.203,7.076-11.001,12.354-11.385
							c2.699-0.132,5.083,0.384,7.141,1.538c6.307,3.992,8.687,9.65,7.14,16.989c-0.77,3.604-2.187,6.819-4.244,9.652l-21.04,43.422
							c-6.946-2.185-12.418-4.116-16.407-5.789L228.361,110.161z"/>
						<path fill="#306779" d="M226.435,157.646c-2.447,0-4.57-0.9-6.376-2.704c-1.669-1.668-2.506-3.726-2.506-6.178
							c0-2.444,0.901-4.501,2.702-6.18c1.673-1.668,3.733-2.506,6.181-2.506c2.438,0,4.497,0.836,6.175,2.506
							c1.803,1.674,2.704,3.732,2.704,6.18c-0.126,2.443-1.025,4.504-2.704,6.178C230.933,156.746,228.875,157.646,226.435,157.646z
							"/>
					</g>
					<g>
						<path fill="#50433F" d="M296.884,64.229c-1.804,0.129-2.96,0.129-3.475,0c1.284,0.641,2.766,1.67,4.441,3.088
							c-2.96-1.03-5.215-1.803-6.756-2.32c-2.704-1.029-4.957-1.606-6.757-1.735l2.317-7.524c0.644,0.251,1.993,1.093,4.057,2.507
							c1.669,1.029,3.083,1.673,4.248,1.934c0.252,0.387,2.058,1.866,5.402,4.44C299.453,64.229,298.297,64.097,296.884,64.229z"/>
						<path fill="#50433F" d="M264.455,67.318c1.672-1.417,3.152-2.447,4.441-3.087c-3.092-0.388-5.407-0.26-6.956,0.384
							c3.352-2.575,5.15-4.052,5.407-4.437c2.058-0.517,4.824-1.998,8.299-4.437l2.316,7.524c-1.801,0.129-4.053,0.705-6.754,1.735
							C268.122,66.156,265.869,66.928,264.455,67.318z"/>
						<path fill="#EDD3B2" d="M300.343,38.609L295.85,61.07l-3.051,1.445c-0.588,3.799,0.063,8.745,1.95,14.833l20.088,1.354
							l4.238,3.477h-73.569l4.323-3.477l20.004-1.354c1.397-3.391,2.385-8.167,2.966-14.327l-4.323-1.864
							c-2.44-10.982-3.894-17.519-4.365-19.623c-0.475-2.161-0.319-6.682,0.464-13.562c0.771-6.89,1.619-11.215,2.542-12.969
							c0.912-1.725,12.144-0.696,33.693,3.094L300.343,38.609z"/>
						<path fill="#50433F" d="M279.661,1.487c3.786,0,8.108,0.96,12.969,2.882c5.255,2.086,8.787,4.549,10.595,7.374
							c2.487,3.616,2.571,9.069,0.25,16.36c-1.582,4.628-2.485,7.657-2.712,9.069l-1.187,7.289c-0.283-4.69-0.537-8.08-0.764-10.171
							l-0.424-4.064c-0.107-1.645-0.366-2.967-0.758-3.988l-1.059,3.094c-0.53-4.283-3.765-6.867-9.709-7.756
							c-1.412,0-2.459-0.057-3.136-0.169c-3.563-0.284-6.188-0.679-7.883-1.188c-2.826-0.903-4.182-2.826-4.064-5.764l-0.339,1.695
							c-1.808,2.826-3.107,5.034-3.899,6.612c-1.416,2.543-2.119,4.917-2.119,7.12c-0.1,1.608-0.029,6.392,0.212,14.367
							c-0.033,0.384-0.043,1.467-0.043,3.263c-0.735-4.572-2.26-9.691-4.577-15.341c-2.204-5.76-3.362-10.139-3.475-13.139
							c-0.169-5.142,0.903-8.984,3.221-11.527c2.712-3.221,6.159-3.871,10.341-1.95C272.738,2.842,275.597,1.487,279.661,1.487z"/>
					</g>
					<g>
						<polygon fill="#D4E1E2" points="295.529,75.038 295.529,194.707 270.244,194.707 270.244,75.038 282.79,87.394 						"/>
						<polygon fill="#9B529D" points="285.497,86.812 280.28,86.812 277.585,82.176 280.28,77.546 285.497,77.546 288.197,82.176 
													"/>
						<polygon fill="#9B529D" points="280.28,86.812 285.497,86.812 288,170.965 282.79,187.953 277.585,170.965 						"/>
						<g>
							<polygon fill="#FFFFFF" points="295.529,75.038 286.071,85.074 282.982,77.546 292.061,68.279 							"/>
							<polygon fill="#FFFFFF" points="279.512,85.074 270.244,75.038 273.524,68.279 282.79,77.546 							"/>
						</g>
					</g>
					<path fill="#2C607E" d="M323.136,125.224l-3.668,24.511c-1.935,18.137-1.414,31.904,1.544,41.302
						c3.598,11.062,4.955,18.337,4.055,21.813c-0.517,1.804-1.353,2.44-2.511,1.927c-5.535,2.318-11.324,3.798-17.372,4.44
						c-12.221,1.026-19.682-2.896-22.389-11.769v-82.224c3.088-6.182,5.855-13.064,8.302-20.662
						c5.017-15.052,6.177-25.991,3.472-32.809l28.572,8.493l-3.088,13.512C318.626,104.7,319.657,115.179,323.136,125.224z"/>
					<path fill="#2C607E" d="M242.261,125.224c3.475-10.044,4.501-20.524,3.083-31.468l-3.083-13.512l28.76-8.493
						c-2.705,6.815-1.546,17.76,3.472,32.809c2.442,7.592,5.213,14.476,8.299,20.661v82.224
						c-2.831,8.872-10.355,12.802-22.576,11.769l-17.371-4.439c-0.389-0.124-0.645-1.225-0.773-3.281
						c-0.256-4.119,0.512-10.936,2.314-20.459c1.801-9.78,1.995-23.678,0.581-41.692L242.261,125.224z"/>
					<g>
						<rect x="291.476" y="182.348" fill="#5F7279" width="26.447" height="2.126"/>
						<rect x="291.476" y="181.198" fill="#6A7F89" width="26.447" height="2.123"/>
					</g>
					<g>
						<rect x="248.052" y="182.348" fill="#5F7279" width="26.442" height="2.126"/>
						<rect x="248.052" y="181.198" fill="#8EA4AC" width="26.442" height="2.123"/>
					</g>
					<g>
						<g>
							<path fill="#6A7F89" d="M275.843,132.171c0-1.675,0.838-2.511,2.508-2.511c1.668,0,2.506,0.836,2.506,2.511
								c0,1.672-0.838,2.506-2.506,2.506C276.681,134.678,275.843,133.843,275.843,132.171z"/>
							<path fill="#6A7F89" d="M275.843,148.77c0-1.673,0.838-2.508,2.508-2.508c1.668,0,2.506,0.833,2.506,2.508
								s-0.838,2.506-2.506,2.506C276.681,151.276,275.843,150.443,275.843,148.77z"/>
							<path fill="#6A7F89" d="M275.843,165.174c0-1.543,0.838-2.314,2.508-2.314c1.668,0,2.506,0.771,2.506,2.314
								c0,1.674-0.838,2.51-2.506,2.51C276.681,167.685,275.843,166.849,275.843,165.174z"/>
						</g>
						<g>
							<path fill="#6A7F89" d="M275.843,165.368c0-1.669,0.838-2.508,2.508-2.508c1.668,0,2.506,0.838,2.506,2.508
								c0,1.674-0.838,2.506-2.506,2.506C276.681,167.874,275.843,167.042,275.843,165.368z"/>
							<path fill="#6A7F89" d="M275.843,181.969c0-1.672,0.838-2.51,2.508-2.51c1.668,0,2.506,0.838,2.506,2.51
								s-0.838,2.506-2.506,2.506C276.681,184.475,275.843,183.641,275.843,181.969z"/>
							<path fill="#6A7F89" d="M275.843,198.374c0-1.543,0.838-2.317,2.508-2.317c1.668,0,2.506,0.774,2.506,2.317
								c0,1.673-0.838,2.51-2.506,2.51C276.681,200.885,275.843,200.047,275.843,198.374z"/>
						</g>
					</g>
					<path fill="#26B4CD" d="M282.602,128.119c2.831-8.498,5.333-17.249,7.524-26.25c4.374-18.273,5.082-29.018,2.122-32.236
						l3.087,0.387c2.831,0.77,6.564,2.831,11.196,6.174c4.245,3.089,1.538,12.68-8.109,28.766L282.602,128.119z"/>
					<path fill="#26B4CD" d="M267.351,104.957c-9.395-15.958-12.031-25.48-7.914-28.573c7.332-5.268,12.094-7.463,14.284-6.563
						c-2.96,3.22-2.318,13.899,1.93,32.044c2.058,9.135,4.438,17.883,7.14,26.247C277.256,120.781,272.11,113.057,267.351,104.957z"
						/>
					<g>
						<path fill="#636260" d="M329.115,196.249c0,1.546-0.709,2.317-2.123,2.317h-87.049c-1.546,0-2.319-0.771-2.319-2.317v-49.795
							c0-1.546,0.773-2.317,2.319-2.317h87.049c1.414,0,2.123,0.771,2.123,2.317V196.249z"/>
						<path fill="#696967" d="M326.031,192.972c0,1.284-0.712,1.93-2.126,1.93h-81.063c-1.292,0-1.934-0.646-1.934-1.93v-45.946
							c0-1.414,0.639-2.122,1.934-2.122h81.063c1.415,0,2.126,0.708,2.126,2.122V192.972z"/>
						<g>
							<path fill="#636260" d="M329.115,178.878c0,0.9-0.709,1.351-2.123,1.351h-87.049c-1.546,0-2.319-0.45-2.319-1.351v-33.971
								c0-1.025,0.773-1.543,2.319-1.543h87.049c1.414,0,2.123,0.518,2.123,1.543V178.878z"/>
							<path fill="#956950" d="M326.031,176.56c0,0.9-0.712,1.349-2.126,1.349h-81.063c-1.292,0-1.934-0.448-1.934-1.349v-31.264
								c0-0.9,0.639-1.352,1.934-1.352h81.063c1.415,0,2.126,0.452,2.126,1.352V176.56z"/>
						</g>
						<path fill="#FDE9CA" d="M246.89,197.602v0.964h-6.948c-1.546,0-2.319-0.771-2.319-2.317v-4.824h1.353v4.056
							c0,1.414,0.706,2.122,2.123,2.122H246.89z"/>
						<path fill="#FDE9CA" d="M328.341,191.425h1.353v4.824c0,1.547-0.708,2.317-2.126,2.317h-5.018v-0.963h3.668
							c1.415,0,2.123-0.708,2.123-2.122V191.425L328.341,191.425z"/>
						<path fill="#956950" d="M269.473,136.415c-1.157,0-1.738,0.771-1.738,2.317v25.479h-2.122c-1.415,0-2.123-0.713-2.123-2.127
							v-28.762c0-1.54,0.708-2.313,2.123-2.313h35.515c1.546,0,2.314,0.773,2.314,2.313v28.762c0,1.414-0.77,2.127-2.314,2.127
							h-2.122v-25.477c0-1.546-0.517-2.318-1.546-2.318L269.473,136.415L269.473,136.415z"/>
					</g>
					<g>
						<path fill="#635553" d="M302.477,331.363c-1.024-0.514-1.67-1.996-1.93-4.438v-3.668l23.353-5.019l5.982,11.773l5.21,5.403
							c3.085,3.599,3.412,5.791,0.96,6.559c-3.213,1.03-7.592,1.097-13.118,0.196c-6.051-0.901-9.784-2.579-11.196-5.021
							c-1.157-2.059-2.766-3.473-4.824-4.244C304.859,332.388,303.378,331.877,302.477,331.363z"/>
						<g>
							<path fill="#2E5D6E" d="M304.603,193.93c4.63-0.384,8.751,1.352,12.35,5.212c3.604,3.86,5.662,8.747,6.182,14.671v4.625
								h0.576l4.056,102.883l-26.445,2.122l-10.807-101.719c-0.389-1.163-0.709-2.96-0.965-5.406
								c-0.516-5.791,0.709-10.87,3.669-15.247C296.175,196.698,299.974,194.32,304.603,193.93z"/>
							<path fill="#2B5366" d="M303.83,193.93h0.773l9.847,128.548l-14.093,0.966l-10.809-101.717
								c-0.384-1.165-0.708-2.898-0.965-5.215c-0.515-5.917,0.712-11.063,3.669-15.44C295.208,196.698,299.068,194.32,303.83,193.93
								z"/>
						</g>
					</g>
					<g>
						<path fill="#635553" d="M273.332,330.394c-1.801,0.774-3.281,1.417-4.434,1.936c-1.935,0.896-3.417,2.441-4.442,4.627
							c-1.284,2.579-4.889,4.507-10.807,5.791c-5.407,1.291-9.784,1.547-13.126,0.774c-2.443-0.516-2.316-2.704,0.387-6.565
							c1.416-1.927,3.021-3.852,4.828-5.788l5.209-12.158l23.742,3.087C275.327,326.729,274.878,329.491,273.332,330.394z"/>
						<g>
							<path fill="#2E5D6E" d="M277.192,214.776l-3.471,107.702h-26.445l-3.861-103.069h0.58l-0.387-4.633
								c0-5.914,1.668-10.934,5.021-15.055c3.213-4.115,7.141-6.175,11.774-6.175c4.629,0,8.622,2.06,11.965,6.175
								C275.586,203.842,277.192,208.862,277.192,214.776z"/>
							<path fill="#2B5366" d="M273.332,199.721c3.218,4.121,4.829,9.141,4.829,15.055c0,1.937-0.192,3.666-0.576,5.213
								l-2.896,102.489h-14.093V193.546h0.773C266.003,193.551,269.988,195.609,273.332,199.721z"/>
						</g>
					</g>
					<g>
						<g>
							<path fill="#FCC491" d="M274.491,197.412c-1.029-2.317-2.699-3.092-5.018-2.317c-2.316-0.258-3.992-1.227-5.018-2.897
								c-1.285-2.185-1.546-4.058-0.773-5.601l1.352-0.388c1.03-0.255,1.868-0.191,2.508,0.192l3.283,2.318
								c2.314,1.801,3.925,3.726,4.824,5.791l3.285,2.508C277.256,198.826,275.779,198.95,274.491,197.412z"/>
							<path fill="#FCC491" d="M251.135,184.284l5.792-5.979l5.599,5.017l5.02,3.085l2.508,6.374
								c1.673,4.632,2.571,8.105,2.703,10.423c-7.852,0.385-12.226,0.059-13.121-0.967c-0.522-0.517-1.163-1.869-1.936-4.061
								c-0.644-2.438-1.093-4.053-1.349-4.824l-0.963-2.314L251.135,184.284z"/>
							<g>
								<path fill="#FCC491" d="M272.367,200.885l2.506,8.685c0.257,1.288,0,2.186-0.773,2.702c-1.025,0.258-1.668-0.192-1.93-1.348
									l-2.507-8.688c-0.389-1.287-0.129-2.188,0.771-2.701C271.21,199.146,271.859,199.592,272.367,200.885z"/>
								<path fill="#FCC491" d="M270.628,213.621c-0.77,0.39-1.414-0.129-1.93-1.542L266,202.431
									c-0.522-1.543-0.325-2.51,0.576-2.894c0.902-0.521,1.611,0,2.123,1.538l2.703,9.648
									C271.918,212.141,271.658,213.109,270.628,213.621z"/>
								<path fill="#FCC491" d="M265.419,201.657l2.127,7.332c0.251,1.289-0.064,2.127-0.965,2.508
									c-0.256,0.255-0.577,0.255-0.965,0c-0.384-0.258-0.641-0.642-0.773-1.158l-2.123-7.334c-0.512-1.164-0.251-2.002,0.773-2.51
									C264.262,200.111,264.902,200.496,265.419,201.657z"/>
								<path fill="#FCC491" d="M261.755,200.301l1.733,5.982c0.256,1.03-0.064,1.738-0.961,2.123
									c-0.647,0.521-1.224,0.258-1.737-0.772l-1.738-6.175c-0.252-0.9,0.064-1.546,0.965-1.931
									C260.917,199.014,261.495,199.279,261.755,200.301z"/>
							</g>
						</g>
						<g>
							<path fill="#306779" d="M236.081,149.348c3.088,3.217,6.561,7.529,10.42,12.931l18.532,22.586l-8.687,8.685l-29.341-26.637
								c-2.443-1.676-4.569-3.732-6.369-6.18c-3.731-5.149-4.187-9.912-1.355-14.284l4.253-2.704
								C227.264,142.849,231.453,144.717,236.081,149.348z"/>
							<path fill="#306B86" d="M264.839,185.058l-8.49,8.298l-0.387-0.967c-0.901-1.664-1.096-3.344-0.582-5.017
								c0.517-1.67,1.608-2.831,3.285-3.474C260.722,183.256,262.78,183.641,264.839,185.058z"/>
						</g>
					</g>
					<g>
						<g>
							<path fill="#FCC491" d="M298.424,186.406c1.157-0.639,2.507-0.576,4.053,0.19c0.773,1.543,0.517,3.416-0.77,5.601
								c-1.025,1.671-2.766,2.64-5.213,2.897c-1.415-0.519-2.639-0.258-3.667,0.771l-1.159,1.544
								c-0.9,1.027-1.929,1.287-3.088,0.766l-1.349-1.156c0.901-0.384,1.936-1.222,3.088-2.506c1.028-2.068,2.702-3.993,5.018-5.791
								C296.495,187.696,297.524,186.921,298.424,186.406z"/>
							<path fill="#FCC491" d="M309.04,178.302l5.983,5.979l-4.245,6.753l-0.965,2.314c-1.285,5.02-2.379,7.979-3.279,8.88
								c-0.901,1.025-5.278,1.352-13.127,0.962c0.129-2.313,0.96-5.791,2.507-10.418l2.507-6.374l5.213-3.085L309.04,178.302z"/>
							<g>
								<path fill="#FCC491" d="M293.791,200.885c0.517-1.293,1.166-1.738,1.931-1.351c0.902,0.513,1.166,1.414,0.773,2.701
									l-2.506,8.688c-0.26,1.155-0.901,1.605-1.929,1.348c-0.773-0.39-1.03-1.285-0.773-2.702L293.791,200.885z"/>
								<path fill="#FCC491" d="M297.459,201.072c0.517-1.537,1.22-2.06,2.122-1.537c0.901,0.513,1.098,1.471,0.58,2.894
									l-2.702,9.646c-0.513,1.414-1.157,1.936-1.931,1.543c-1.029-0.513-1.284-1.48-0.772-2.896L297.459,201.072z"/>
								<path fill="#FCC491" d="M300.747,201.657c0.252-1.29,0.896-1.676,1.929-1.164c0.77,0.513,1.025,1.351,0.77,2.51
									l-2.122,7.334c-0.257,1.288-0.901,1.67-1.934,1.159c-0.771-0.514-1.024-1.351-0.771-2.509L300.747,201.657z"/>
								<path fill="#FCC491" d="M304.406,200.301c0.261-1.023,0.838-1.289,1.738-0.767c0.9,0.384,1.22,1.024,0.965,1.93
									l-1.738,6.176c-0.512,0.9-1.157,1.16-1.93,0.771c-0.901-0.642-1.162-1.348-0.77-2.122L304.406,200.301z"/>
							</g>
						</g>
						<g>
							<path fill="#306779" d="M345.712,160.734l-35.899,32.813l-8.686-8.686l22.005-27.219c2.571-3.475,4.889-6.243,6.946-8.301
								c4.634-4.629,8.814-6.498,12.547-5.597c1.93,0.516,3.342,1.414,4.245,2.703C349.833,150.826,349.446,155.585,345.712,160.734
								z"/>
							<path fill="#306B86" d="M301.32,185.058c2.058-1.417,4.117-1.802,6.178-1.163c1.67,0.643,2.763,1.802,3.285,3.473
								c0.517,1.546,0.317,3.219-0.583,5.017l-0.386,0.967L301.32,185.058z"/>
						</g>
					</g>
				</g>
				<g>
					<g>
						<path fill="#4A889D" d="M579.045,226.78c-2.032-1.978-3.057-4.29-3.057-6.95l-2.028-15.427h91.713l-2.035,15.427
							c0,2.655-1.045,4.973-3.135,6.95c-2.152,1.929-4.721,2.883-7.715,2.883h-66.028
							C583.817,229.667,581.248,228.708,579.045,226.78z M674.063,110.575c2.033,1.92,3.051,4.238,3.051,6.955l-4.111,31.188
							H566.626l-4.112-31.188c0-2.717,1.018-5.035,3.053-6.955c2.203-1.922,4.77-2.882,7.713-2.882h93.068
							C669.283,107.689,671.861,108.655,674.063,110.575z"/>
						<path fill="#63747D" d="M688.473,343.928H669.57c0.281-2.435,1.326-4.492,3.135-6.188c1.809-1.696,3.928-2.544,6.357-2.544
							c2.434,0,4.611,0.848,6.533,2.544C687.4,339.433,688.355,341.494,688.473,343.928z M559.55,335.195
							c2.486,0,4.69,0.848,6.607,2.543c1.808,1.695,2.77,3.758,2.883,6.188h-18.902c0.23-2.436,1.242-4.493,3.055-6.188
							C554.998,336.042,557.117,335.195,559.55,335.195z"/>
						<rect x="567.686" y="240.833" fill="#63747D" width="106.74" height="6.759"/>
						<path fill="#4A889D" d="M679.637,235.435c0,1.415-0.641,2.702-1.936,3.854c-1.285,1.029-2.83,1.545-4.629,1.545h-105
							c-1.671,0-3.15-0.516-4.44-1.545c-1.287-1.155-1.93-2.438-1.93-3.854c0-1.545,0.643-2.831,1.93-3.859
							c1.162-1.159,2.644-1.734,4.44-1.734h105c1.801,0,3.348,0.58,4.629,1.734C678.996,232.604,679.637,233.89,679.637,235.435z"/>
						<path fill="#63747D" d="M579.455,248.561l-14.086,91.486c-0.257,1.024-0.773,1.867-1.547,2.506
							c-0.773,0.521-1.674,0.71-2.703,0.589c-1.028-0.132-1.871-0.647-2.509-1.547c-0.517-0.774-0.708-1.676-0.58-2.71l14.093-91.49
							c0.124-1.023,0.578-1.864,1.349-2.506c0.898-0.521,1.867-0.709,2.896-0.582c1.024,0.127,1.865,0.582,2.506,1.356
							C579.519,246.562,579.714,247.53,579.455,248.561z"/>
						<path fill="#63747D" d="M660.143,248.561c-0.129-1.03,0.063-1.999,0.58-2.895c0.641-0.774,1.479-1.229,2.506-1.355
							c1.029-0.128,1.998,0.06,2.896,0.581c0.77,0.643,1.225,1.479,1.355,2.506l14.09,91.491c0.256,1.029,0.063,1.936-0.578,2.71
							c-0.645,0.899-1.48,1.413-2.51,1.546c-2.311,0.384-3.73-0.647-4.244-3.093L660.143,248.561z"/>
					</g>
					<g>
						<path fill="#6B8289" d="M592.972,204.63h47.091c4.894,0,9.009,1.101,12.355,3.32c3.48,2.216,5.209,4.871,5.209,7.97
							c0,3.095-1.73,5.754-5.209,7.965c-3.346,2.22-7.461,3.32-12.355,3.32h-47.091c-4.896,0-9.076-1.101-12.547-3.32
							c-3.473-2.215-5.211-4.87-5.211-7.965c0-3.099,1.738-5.758,5.211-7.97C583.896,205.731,588.077,204.63,592.972,204.63z"/>
						<g>
							<path fill="#292929" d="M609.375,328.077c-1.802,1.29-3.088,3.089-3.859,5.406c-0.896,2.57-4.184,4.954-9.844,7.14
								c-5.276,2.059-9.588,2.96-12.931,2.704c-2.447-0.124-2.639-2.378-0.581-6.752l4.053-6.372l3.475-12.741l23.936-0.191
								c1.285,4.499,1.222,7.33-0.191,8.497C611.76,326.664,610.401,327.431,609.375,328.077z"/>
							<g>
								<path fill="#6B8289" d="M594.517,196.445c3.729,3.603,5.978,8.364,6.751,14.28c0.257,1.167,0.389,2.897,0.389,5.216
									l11,101.718l-26.054,3.669L568.46,219.994h0.58l-0.967-4.628c-0.895-5.791,0-11.002,2.705-15.64
									c2.703-4.501,6.371-7.075,11-7.721C586.408,191.363,590.653,192.843,594.517,196.445z"/>
								<path fill="#7D939C" d="M595.287,196.445c3.858,3.603,6.178,8.298,6.951,14.089c0.385,1.546,0.448,3.352,0.192,5.407
									l11.194,101.718l-13.899,1.931l-17.756-127.584l0.773-0.192C587.247,191.296,591.425,192.843,595.287,196.445z"/>
							</g>
						</g>
						<g>
							<path fill="#292929" d="M629.067,329.047c-1.935-0.901-3.286-1.676-4.058-2.314c-0.895-0.775-1.225-2.379-0.96-4.828
								l0.77-3.669l23.742-0.191l3.668,12.746l4.053,6.367c2.188,4.247,2.059,6.495-0.387,6.753
								c-3.477,0.389-7.855-0.455-13.123-2.507c-5.667-2.06-8.944-4.444-9.848-7.145
								C632.15,331.941,630.865,330.199,629.067,329.047z"/>
							<g>
								<path fill="#6B8289" d="M669.207,215.747c-0.127,1.543-0.512,3.086-1.158,4.629h0.773l-16.988,101.722l-26.249-3.477
									l10.044-101.91c-0.259-1.936-0.196-3.665,0.188-5.212c0.64-5.92,2.896-10.682,6.753-14.283
									c3.734-3.604,7.914-5.146,12.547-4.629c4.629,0.639,8.299,3.215,10.996,7.723
									C668.828,204.807,669.852,209.956,669.207,215.747z"/>
								<path fill="#7D939C" d="M654.156,192.384l0.773,0.198l-16.214,127.772l-14.091-1.733l10.038-101.909
									c-0.132-1.026-0.064-2.831,0.192-5.406c0.641-5.791,2.896-10.552,6.75-14.283
									C645.34,193.417,649.521,191.877,654.156,192.384z"/>
							</g>
						</g>
						<g>
							<g>
								<path fill="#EDD3B2" d="M602.522,15.218c2.995-3.616,5.791-5.17,8.393-4.662c2.649,0.508,7.313,0.141,13.985-1.098
									c6.667-1.243,10.029,6.641,10.086,23.644c0.052,7.294-2.092,15.936-6.447,25.942l-2.627,1.606l1.611,14.075l17.459,1.865
									l2.375,1.95c1.75,1.639,3.16,3.357,4.238,5.171c1.803,2.825,2.768,5.536,2.875,8.135h-75.014
									c0.114-0.677,0.284-1.525,0.515-2.542c0.451-1.921,1.213-3.785,2.287-5.593c1.695-2.828,3.899-5.2,6.613-7.122l18.815-1.99
									c0.976-2.413,1.569-6.952,1.78-13.607l-3.391-1.356c-5.029-12.998-7.628-22.745-7.798-29.243
									C598.06,23.835,599.472,18.779,602.522,15.218z M627.527,74.722c-0.507-0.457-0.451-0.284,0.17,0.51l0.254,0.083
									C627.784,75.033,627.643,74.833,627.527,74.722z"/>
								<path fill="#AA805B" d="M630.921,5.975c3.407,2.826,5.679,6.921,6.815,12.291c0.599,4.013,0.599,7.944,0,11.782
									c-0.266,1.413-0.834,3.166-1.705,5.26c-0.953,2.114-1.5,3.767-1.622,4.958c0.215-2.693,0.27-4.741,0.167-6.145
									c-0.037-0.82-0.062-1.445-0.081-1.869c-1.027-2.294-1.541-4.305-1.541-6.018c0-2.826-0.325-4.771-0.975-5.849
									c-1.26-1.584-2.613-2.545-4.057-2.877c-0.701,0.107-1.676,0.107-2.926,0c-2.486,0-4.164-0.904-5.027-2.717
									c-1.681,0.204-3.264,0.177-4.746-0.084c0.034-0.078,0.075-0.163,0.12-0.256c-3.197,0.613-7.034,4.262-11.52,10.935h-0.04
									c-0.51,1.357-1.096,2.967-1.744,4.836c-0.881-1.712-1.447-3.291-1.705-4.751c-0.032,0.411-0.059,0.834-0.081,1.271
									c-0.378,6.839-0.704,10.654-0.972,11.443c-0.865-0.79-1.729-2.65-2.595-5.594c-0.7-2.599-1.137-4.803-1.301-6.606
									c-0.486-5.26-0.105-9.099,1.136-11.533c3.571-7.232,9.06-11.212,16.469-11.951c2.438-0.283,5.519-0.109,9.248,0.513
									C626.406,3.69,629.299,4.678,630.921,5.975z"/>
							</g>
							<path fill="#7D939C" d="M580.228,79.129c2.599-0.169,4.916,0.341,6.957,1.526c6.441,3.957,8.899,9.607,7.373,16.952
								c-0.792,3.616-2.227,6.833-4.323,9.659l-21.021,43.404c-7.453-2.318-12.907-4.239-16.353-5.765l9.996-35.345
								c1.304-7.686,2.967-14.043,5.001-19.071C570.853,83.25,574.975,79.47,580.228,79.129z"/>
							<path fill="#7D939C" d="M554.561,154.367c-1.674-1.676-2.512-3.733-2.512-6.176c0-2.446,0.902-4.506,2.709-6.181
								c1.669-1.67,3.727-2.506,6.174-2.506c2.449,0,4.505,0.829,6.183,2.506c1.665,1.672,2.506,3.731,2.506,6.181
								c0,2.437-0.837,4.496-2.506,6.176c-1.674,1.803-3.732,2.702-6.183,2.702C558.485,157.065,556.357,156.17,554.561,154.367z"/>
							<path fill="#7D939C" d="M640.649,97.621c-1.547-7.334,0.833-12.996,7.138-16.989l7.145-1.544
								c5.402,0.389,9.52,4.185,12.352,11.391c1.93,5.02,3.605,11.39,5.021,19.106l10.035,35.319
								c-3.604,1.546-9.135,3.476-16.6,5.791l-20.848-43.429C642.834,104.435,641.42,101.223,640.649,97.621z"/>
							<path fill="#7D939C" d="M680.41,154.367c-1.674,1.803-3.734,2.702-6.18,2.702s-4.508-0.896-6.182-2.702
								c-1.803-1.676-2.705-3.733-2.705-6.176c0-2.446,0.9-4.506,2.705-6.181c1.67-1.67,3.729-2.506,6.182-2.506
								c2.441,0,4.5,0.829,6.18,2.506c1.668,1.672,2.574,3.731,2.701,6.181C683.109,150.63,682.207,152.688,680.41,154.367z"/>
							<g>
								<path fill="#D4E1E2" d="M613.119,149.905h-7.969V74.467l7.374,7.289l2.634,4.493L613.119,149.905z M622.442,149.905
									l-2.034-63.654l2.711-4.662v-0.043l7.297-7.078v75.438L622.442,149.905L622.442,149.905z"/>
								<polygon fill="#6B8289" points="623.123,81.544 623.123,81.589 620.406,86.25 622.442,149.905 613.119,149.905 
									615.153,86.25 612.528,81.756 612.438,81.589 615.153,77.01 620.406,77.01 								"/>
								<polygon fill="#FFFFFF" points="605.13,74.458 608.604,67.701 617.674,76.965 614.395,84.498 								"/>
								<polygon fill="#FFFFFF" points="626.944,67.701 630.413,74.458 620.955,84.498 617.866,76.965 								"/>
							</g>
							<g>
								<path fill="#6B8289" d="M580.652,93.199l-3.302-13.562l28.73-8.476c-2.712,6.838-1.553,17.771,3.479,32.807
									c2.596,7.628,5.367,14.517,8.302,20.677c3.107-6.16,5.877-13.049,8.308-20.677c5.028-15.032,6.183-25.965,3.476-32.807
									l28.736,8.476l-3.057,13.562c-1.408,10.912-0.393,21.388,3.057,31.446l-2.719,24.157c-0.078,1.007-0.148,1.997-0.213,2.967
									h-74.04c-0.073-0.866-0.156-1.737-0.252-2.627l-3.813-24.497C580.965,114.588,582.066,104.107,580.652,93.199z"/>
							</g>
							<g>
								<path fill="#F4F5F5" d="M594.128,75.656c7.347-5.313,12.095-7.521,14.242-6.614c-2.939,3.222-2.208,13.958,2.202,32.21
									c2.123,8.94,4.525,17.6,7.206,25.978c2.678-8.264,5.08-16.923,7.204-25.978c4.238-18.14,4.888-28.819,1.947-32.036
									l2.879,0.424c2.999,0.792,6.814,2.854,11.443,6.184c4.238,3.051,1.588,12.572-7.965,28.569l-15.469,22.972
									c0.013,0.056,0.027,0.108,0.04,0.169c-0.027-0.035-0.055-0.08-0.085-0.127l-0.084,0.127
									c0.017-0.051,0.029-0.106,0.036-0.169c-5.599-7.403-10.755-15.06-15.469-22.972
									C592.716,88.284,590.007,78.705,594.128,75.656z"/>
							</g>
						</g>
						<g>
							<g>
								<path fill="#FCC491" d="M619.632,138.471c-1.208,0.162-2.449-0.212-3.712-1.109l-1.522-1.278
									c-0.539-1.283-1.565-2.073-3.083-2.366l-1.961,0.013c-1.169-0.091-1.949-0.769-2.363-2.026l-0.051-1.782
									c0.941,0.573,2.253,0.895,3.94,0.959c3.656-0.601,7.421-0.071,11.291,1.591c1.217,0.495,1.994,1.564,2.329,3.205
									C623.909,137.396,622.284,138.33,619.632,138.471z"/>
								<path fill="#FCC491" d="M634.055,144.205l-7.983,0.618l-2.303,0.742c-1.984,0.795-3.551,1.406-4.684,1.844
									c-2.115,0.773-3.563,1.146-4.345,1.126c-0.784-0.021-2.497-1.662-5.141-4.927l-3.777-4.857
									c3.061-2.291,8.511-4.382,16.348-6.272l5.729,1.891l7.39,1.429L634.055,144.205z"/>
								<g>
									<path fill="#FCC491" d="M608.01,137.603c1.255-0.412,2.007-0.203,2.231,0.627c0.058,1.06-0.479,1.803-1.611,2.237
										l-8.303,3.31c-0.576,0.283-1.058,0.389-1.438,0.317c-0.479-0.224-0.745-0.536-0.802-0.945
										c-0.336-0.983,0.203-1.729,1.613-2.236L608.01,137.603z"/>
									<path fill="#FCC491" d="M610.184,140.578c1.408-0.516,2.224-0.294,2.431,0.664c0.08,0.937-0.532,1.733-1.84,2.397
										l-9.363,3.702c-1.408,0.514-2.219,0.292-2.429-0.67c-0.235-0.833,0.381-1.632,1.842-2.397L610.184,140.578z"/>
									<path fill="#FCC491" d="M611.603,143.407c1.236-0.288,1.895,0.037,1.973,0.969c0.208,0.953-0.249,1.655-1.382,2.089
										l-7.028,2.773c-1.133,0.438-1.802,0.176-2.011-0.781c-0.206-0.958,0.254-1.659,1.386-2.093L611.603,143.407z"/>
									<path fill="#FCC491" d="M614.945,145.429c0.955-0.206,1.555,0.105,1.785,0.937c0.061,1.06-0.34,1.769-1.193,2.125
										l-5.968,2.388c-0.735,0.381-1.247,0.02-1.56-1.095c-0.356-0.856-0.036-1.515,0.969-1.973L614.945,145.429z"/>
								</g>
							</g>
							<g>
								<path fill="#7D939C" d="M683.016,141.091c0.842,1.736,0.979,3.402,0.408,4.995c-1.76,5.032-5.729,7.606-11.904,7.725
									l-47.787-8.059l1.397-12.313l34.831,0.836c4.469-0.053,8.113,0.06,10.941,0.344
									C677.443,135.363,681.48,137.522,683.016,141.091z"/>
								<path fill="#7D939C" d="M625.054,133.817c2.479,0.743,4.039,2.16,4.684,4.25c0.616,1.56,0.453,3.101-0.501,4.627
									c-1.049,1.367-2.534,2.258-4.449,2.675l-1.021,0.193L625.054,133.817z"/>
							</g>
						</g>
						<g>
							<g>
								<path fill="#FCC491" d="M604.981,119.222l-7.968-9.238l4.237-5.595c1.921-2.152,3.927-3.621,6.019-4.412l2.712-3.135
									c1.753,1.803,1.81,3.333,0.175,4.576c-1.922,0.673-2.855,1.803-2.797,3.39c3.673-0.904,6.499-1.36,8.476-1.36
									c-0.107,7.804-0.705,12.12-1.78,12.968c-0.564,0.453-1.945,1.018-4.152,1.695
									C607.352,118.568,605.713,118.94,604.981,119.222z"/>
								<path fill="#7D939C" d="M604.981,119.222l0.169,0.168l-28.311,27.548c-1.864,2.262-4.063,4.212-6.605,5.851
									c-5.369,3.447-10.172,3.616-14.409,0.507l-2.375-4.407c-0.674-3.729,1.445-7.77,6.357-12.122
									c3.446-2.938,7.968-6.159,13.563-9.662l23.648-17.122L604.981,119.222z"/>
								<path fill="#FCC491" d="M614.683,103.628l8.813-1.966c1.425-0.174,2.304,0.205,2.633,1.127
									c0.203,0.914-0.284,1.461-1.447,1.646l-8.813,1.97c-1.309,0.304-2.189-0.005-2.651-0.936
									C612.893,104.548,613.379,103.935,614.683,103.628z"/>
								<path fill="#FCC491" d="M614.64,107.484l9.798-2.294c1.553-0.159,2.504,0.155,2.838,0.95
									c0.453,1.056-0.101,1.669-1.659,1.828l-9.799,2.296c-1.552,0.163-2.5-0.152-2.839-0.952
									C612.536,108.256,613.082,107.65,614.64,107.484z"/>
								<path fill="#FCC491" d="M615.025,110.604l7.445-1.667c1.303-0.177,2.112,0.194,2.443,1.118
									c0.457,0.929,0.034,1.483-1.263,1.659l-7.442,1.667c-1.186,0.444-2.008,0.132-2.455-0.925
									C613.416,111.666,613.838,111.047,615.025,110.604z"/>
								<path fill="#FCC491" d="M613.458,114.174l6.071-1.364c1.035-0.192,1.728,0.169,2.055,1.093
									c0.459,0.929,0.17,1.491-0.876,1.686l-6.264,1.354c-0.914,0.198-1.533-0.159-1.869-1.083
									C612.121,114.933,612.413,114.37,613.458,114.174z"/>
							</g>
						</g>
					</g>
				</g>
				<g>
					<g>
						<path fill="#63747D" d="M399.569,343.909h-18.917c0.262-2.444,1.29-4.503,3.092-6.18c1.798-1.676,3.92-2.508,6.368-2.508
							c2.442,0,4.629,0.831,6.563,2.508C398.472,339.406,399.437,341.464,399.569,343.909z"/>
						<g>
							<rect x="398.214" y="240.833" fill="#63747D" width="106.741" height="6.759"/>
							<path fill="#4A889D" d="M398.601,229.837h105.004c1.801,0,3.279,0.579,4.431,1.732c1.295,1.029,1.937,2.315,1.937,3.861
								c0,1.414-0.642,2.702-1.937,3.853c-1.286,1.028-2.763,1.546-4.431,1.546H398.601c-1.673,0-3.152-0.518-4.442-1.546
								c-1.284-1.156-1.93-2.438-1.93-3.853c0-1.546,0.645-2.832,1.93-3.861C395.325,230.417,396.8,229.837,398.601,229.837z"/>
							<path fill="#63747D" d="M409.988,248.561l-14.091,91.486c-0.128,1.024-0.641,1.867-1.541,2.506
								c-0.902,0.651-1.803,0.839-2.704,0.589c-2.448-0.391-3.54-1.805-3.287-4.257l14.093-91.49
								c0.252-1.023,0.773-1.864,1.547-2.506c0.896-0.521,1.865-0.709,2.89-0.583c1.03,0.128,1.871,0.583,2.508,1.357
								C410.053,246.562,410.246,247.53,409.988,248.561z"/>
							<path fill="#63747D" d="M490.48,248.561c-0.129-1.03,0.125-1.999,0.773-2.895c0.645-0.774,1.48-1.229,2.508-1.355
								c1.028-0.128,1.93,0.06,2.699,0.581c0.9,0.643,1.419,1.479,1.545,2.506l14.093,91.491c0.252,0.903,0.064,1.804-0.578,2.71
								c-0.651,0.899-1.482,1.413-2.513,1.546c-1.029,0.25-1.994,0.063-2.896-0.588c-0.768-0.643-1.222-1.479-1.349-2.506
								L490.48,248.561z"/>
						</g>
						<path fill="#63747D" d="M499.939,343.909c0.252-2.444,1.286-4.503,3.083-6.18c1.802-1.676,3.925-2.508,6.37-2.508
							c2.443,0,4.634,0.831,6.563,2.508c1.804,1.672,2.833,3.73,3.088,6.18H499.939z"/>
						<path fill="#4A889D" d="M496.847,107.66c2.96,0,5.535,0.964,7.723,2.894c2.058,1.931,3.088,4.245,3.088,6.95l-13.705,102.303
							c0,2.701-1.028,5.017-3.088,6.946c-2.062,1.931-4.563,2.897-7.522,2.897h-66.02c-2.96,0-5.531-0.967-7.722-2.897
							c-2.058-1.93-3.086-4.245-3.086-6.946l-13.511-102.303c0-2.705,1.024-5.019,3.082-6.95c2.067-1.93,4.569-2.894,7.529-2.894
							H496.847z"/>
					</g>
					<g>
						<path fill="#EEB7A1" d="M470.884,203.814c-0.05,0.136-0.105,0.277-0.168,0.424c-0.163,0.396-0.39,0.82-0.68,1.271
							l-8.137,37.802c-0.105,0.879-0.953,3.915-2.543,9.112c-0.056,0.179-0.107,0.361-0.171,0.553
							c-1.412,5.312-2.631,10.453-3.643,15.432c-1.695,9.43-3.25,17.427-4.663,23.982c-1.414,8.982-2.119,18.506-2.119,28.569
							c-0.51,6.95-3.844,13.756-9.997,20.43l-3.904-13.139c-0.391-2.435-0.707-5.121-0.932-8.052
							c-0.39-5.934-0.199-10.064,0.598-12.378c0.733-2.21,1.183-4.269,1.356-6.188c0-1.808,0.051-3.078,0.168-3.813
							c0.506-3.222,0.707-6.129,0.595-8.73l-1.019-38.226c0.564-8.083,1.667-15.79,3.306-23.137c0.202-0.736,0.4-1.442,0.592-2.119
							c0.243-0.883,0.464-1.713,0.679-2.505c1.197-4.456,1.987-7.604,2.374-9.453c1.091-3.887,1.939-7.022,2.543-9.406
							c0.035-0.146,0.082-0.285,0.121-0.424L470.884,203.814L470.884,203.814z"/>
						<path fill="#F9C3A5" d="M498.946,307.648c0.136,0.204,0.281,0.404,0.424,0.597c0.046,0.152,0.105,0.31,0.171,0.462
							C499.329,308.349,499.132,307.996,498.946,307.648z M492.075,294.978l-0.424,0.295l7.545,15.598
							c2.034,4.01,2.151,7.629,0.339,10.842c-1.13,0.515-2.486,0.567-4.069,0.177c-3.051-0.622-5.617-2.938-7.713-6.958
							c-1.639-2.824-2.91-5.05-3.814-6.689c-1.695-3.109-2.793-5.423-3.306-6.955l-0.932-0.848c-1.375-2.58-2.165-4.251-2.37-5.003
							c-0.903-3.616-1.807-6.383-2.716-8.299c-1.412-3.446-3.392-7.827-5.933-13.139l-9.325-21.579
							c1.591-5.196,2.438-8.233,2.543-9.112l8.137-37.802c0.292-0.45,0.521-0.874,0.68-1.271c0.058-0.146,0.114-0.288,0.168-0.424
							h2.331c0.038,0.14,0.08,0.281,0.128,0.424c1.376,4.037,2.504,8.529,3.391,13.477l1.567,7.884l1.907,9.656
							c0.175,0.515,0.622,3.905,1.36,10.172c0.674,5.318,1.521,10.54,2.543,15.681l4.997,24.157
							C489.912,288.697,490.9,291.932,492.075,294.978z M438.718,203.814h6.526c-0.041,0.139-0.088,0.277-0.121,0.424
							c-0.605,2.384-1.453,5.52-2.543,9.406c-0.389,1.844-1.178,4.996-2.375,9.453c-3.797,0.24-6.849-0.232-9.154-1.4
							c-0.791-0.333,1.385-5.536,6.531-15.59c0.317-0.639,0.63-1.262,0.931-1.869C438.579,204.095,438.648,203.953,438.718,203.814z
							"/>
						<path fill="#FCBF65" d="M439.521,225.598h-13.729c-6.407-6.104-9.908-13.222-10.511-21.364
							c-0.008-0.143-0.023-0.281-0.038-0.424h23.479c-0.07,0.14-0.139,0.281-0.212,0.424c-0.301,0.603-0.612,1.23-0.933,1.87
							c-5.142,10.059-7.317,15.257-6.531,15.589c2.306,1.17,5.358,1.642,9.155,1.4C439.986,223.885,439.762,224.719,439.521,225.598
							z M473.215,203.814h19.161c-0.023,0.142-0.037,0.281-0.042,0.424c-0.6,8.142-4.104,15.261-10.51,21.364h-3.519l-1.568-7.884
							c-0.887-4.947-2.015-9.439-3.391-13.476C473.295,204.095,473.255,203.953,473.215,203.814z"/>
						<path fill="#E95A5B" d="M492.075,294.978l0.176-0.129l2.712,6.02c0.531,0.813,1.857,3.074,3.986,6.78
							c0.188,0.348,0.387,0.703,0.596,1.061c1.144,2.032,2.498,4.45,4.066,7.247c2.313,5.255,2.878,10.396,1.695,15.426
							c-0.512,2.543-1.271,4.605-2.291,6.188c-2.431-0.903-5.002-2.404-7.713-4.493c-5.426-3.956-8.9-8.701-10.428-14.235
							c-2.711-8.144-4.181-12.97-4.406-14.5l-0.763-2.877c-0.284-1.021-0.284-1.362,0-1.021l0.933,0.848
							c0.511,1.526,1.61,3.845,3.306,6.955c0.903,1.638,2.175,3.865,3.813,6.689c2.091,4.014,4.662,6.33,7.713,6.958
							c1.587,0.39,2.939,0.338,4.07-0.178c1.805-3.213,1.694-6.831-0.341-10.841l-7.543-15.6L492.075,294.978z"/>
						<g>
							<path fill="#6B6353" d="M456.311,28.523c-0.389-2.19,0.321-4.19,2.124-5.988c1.803-1.934,4.18-3.022,7.141-3.284
								c2.96-0.384,5.661,0.065,8.108,1.349c2.315,1.417,3.669,3.22,4.053,5.406c0.389,2.187-0.318,4.244-2.123,6.175
								c-1.801,1.803-4.183,2.831-7.144,3.092c-2.957,0.389-5.66-0.064-8.106-1.353C458.054,32.511,456.696,30.71,456.311,28.523z"
								/>
							<path fill="#6B6353" d="M457.283,36.625c-0.389-2.188,0.318-4.181,2.123-5.979c1.93-1.935,4.307-3.025,7.139-3.286
								c2.96-0.384,5.663,0.064,8.109,1.353c2.31,1.414,3.668,3.216,4.053,5.405c0.517,2.19-0.128,4.248-1.93,6.178
								c-1.937,1.803-4.376,2.832-7.336,3.088c-2.831,0.384-5.472-0.065-7.914-1.349C459.208,40.616,457.792,38.813,457.283,36.625z
								"/>
							<path fill="#6B6353" d="M460.558,46.084c-0.386-2.187,0.323-4.183,2.123-5.981c1.802-1.801,4.186-2.896,7.145-3.284
								c2.959-0.384,5.668,0.065,8.104,1.353c2.319,1.412,3.669,3.215,4.058,5.405c0.388,2.187-0.319,4.248-2.125,6.178
								c-1.801,1.803-4.182,2.896-7.142,3.285c-2.954,0.252-5.598-0.257-7.911-1.546C462.366,50.075,460.951,48.272,460.558,46.084z
								"/>
							<path fill="#6B6353" d="M459.208,56.698c-0.389-2.182,0.319-4.183,2.124-5.978c1.93-1.935,4.309-3.028,7.139-3.286
								c2.961-0.384,5.662,0.064,8.109,1.352c2.313,1.414,3.668,3.217,4.053,5.406c0.521,2.187-0.122,4.183-1.931,5.982
								c-1.93,1.802-4.376,2.896-7.336,3.284c-2.83,0.389-5.466-0.065-7.913-1.353C461.014,60.689,459.593,58.883,459.208,56.698z"
								/>
							<path fill="#6B6353" d="M467.703,65.578c-0.388-2.187,0.319-4.18,2.122-5.983c1.803-1.801,4.183-2.895,7.139-3.283
								c2.96-0.384,5.604,0.065,7.914,1.353c2.446,1.414,3.86,3.217,4.254,5.405c0.384,2.191-0.324,4.249-2.122,6.179
								c-1.804,1.803-4.19,2.896-7.15,3.285c-2.958,0.252-5.661-0.257-8.101-1.543C469.438,69.568,468.09,67.766,467.703,65.578z"/>
						</g>
						<g>
							<path fill="#F2716A" d="M458.629,29.872c-0.512,2.187-2.187,3.856-5.018,5.018c-2.831,1.288-5.982,1.604-9.459,0.96
								c-3.47-0.513-6.238-1.733-8.301-3.668c-2.061-1.929-2.831-3.988-2.315-6.175c0.646-2.187,2.315-3.86,5.017-5.016
								c2.834-1.161,5.985-1.481,9.455-0.965c3.481,0.516,6.25,1.738,8.301,3.668C458.501,25.628,459.273,27.686,458.629,29.872z"/>
							<path fill="#6B6353" d="M457.088,37.973c-0.517,2.19-2.192,3.861-5.023,5.021c-2.831,1.29-5.983,1.605-9.453,0.965
								c-3.477-0.517-6.243-1.801-8.299-3.86c-2.063-1.929-2.834-3.99-2.314-6.179c0.511-2.187,2.187-3.861,5.018-5.018
								c2.832-1.158,5.983-1.481,9.458-0.965c3.471,0.644,6.239,1.935,8.297,3.86C456.953,33.728,457.725,35.786,457.088,37.973z"/>
							<path fill="#6B6353" d="M453.035,47.432c-0.646,2.187-2.38,3.861-5.212,5.018c-2.831,1.166-5.982,1.417-9.458,0.773
								c-3.472-0.513-6.238-1.733-8.299-3.669c-2.063-1.93-2.833-3.987-2.315-6.175c0.643-2.187,2.377-3.86,5.209-5.018
								c2.836-1.162,5.984-1.481,9.455-0.965c3.48,0.511,6.249,1.738,8.3,3.668C452.772,43.123,453.548,45.246,453.035,47.432z"/>
							<path fill="#6B6353" d="M454.19,58.051c-0.517,2.187-2.189,3.856-5.02,5.018c-2.831,1.161-5.982,1.482-9.456,0.96
								c-3.476-0.512-6.241-1.798-8.299-3.855c-2.062-1.934-2.835-3.992-2.314-6.18c0.641-2.187,2.314-3.861,5.018-5.017
								c2.831-1.157,5.981-1.481,9.458-0.965c3.474,0.646,6.239,1.935,8.297,3.86C454.058,53.808,454.831,55.865,454.19,58.051z"/>
							<path fill="#6B6353" d="M443.958,66.352c-0.517,2.187-2.186,3.861-5.017,5.018c-2.831,1.285-5.982,1.609-9.459,0.965
								c-3.475-0.521-6.24-1.803-8.3-3.86c-2.058-1.931-2.831-3.988-2.314-6.175c0.517-2.19,2.251-3.861,5.21-5.021
								c2.831-1.163,5.981-1.479,9.459-0.966c3.474,0.645,6.242,1.931,8.299,3.861C443.895,62.102,444.604,64.165,443.958,66.352z"
								/>
						</g>
						<path fill="#F0B598" d="M493.179,89.319l-38.412,12.742v0.187h-6.756l-31.653-12.929c0-0.646,0.132-1.417,0.389-2.32
							c0.511-1.929,1.35-3.727,2.506-5.402c1.03-1.673,2.96-3.093,5.791-4.248c1.418-0.517,2.707-0.9,3.861-1.164l14.672-2.702
							c3.473-4.374,4.309-9.713,2.507-16.019l-3.854-8.107h25.092l-3.86,8.107c-1.801,6.306-1.025,11.645,2.319,16.019l14.86,2.702
							l3.86,1.164c2.703,1.155,4.635,2.575,5.791,4.248C491.962,84.168,492.922,86.748,493.179,89.319z"/>
						<path fill="#6B6353" d="M473.492,34.313l-38.219-0.389c-4.116-5.919-5.083-11.583-2.896-16.983l4.635-6.182
							c7.849-6.564,15.503-8.937,22.968-7.139c3.729,1.03,6.694,2.639,8.881,4.824c5.913,4.501,8.493,10.163,7.72,16.987
							C476.193,28.907,475.164,31.865,473.492,34.313z"/>
						<path fill="#6B6353" d="M461.72,16.552l0.098-0.095c-2.914,1.108-5.973,2.876-9.168,5.308
							c-7.592,5.658-12.481,13.247-14.67,22.773c-1.023-2.704-1.994-5.597-2.89-8.687c-1.544-5.92-1.737-9.582-0.585-10.996
							c1.547-2.063,4.188-4.377,7.914-6.952c4.375-2.96,7.786-4.442,10.231-4.442c3.217-0.124,6.691,0.521,10.424,1.936
							c4.245,1.668,7.327,3.791,9.263,6.37c1.931,2.699,2.441,7.397,1.544,14.088c-0.646,4.504-1.608,8.433-2.894,11.774
							c0.517-4.244,0.579-8.687,0.187-13.313c-0.64-9.144-2.954-14.411-6.947-15.833C461.911,17.706,461.074,17.065,461.72,16.552z"
							/>
						<path fill="#6B6353" d="M466.349,12.688c-2.5,7.009-4.819,10.42-6.949,10.231c-2.995,2.831-4.92,4.057-5.791,3.668
							l4.245-4.248c-9.263,8.109-14.989,11.709-17.174,10.807c4.115-2.831,5.467-4.374,4.053-4.625
							c-0.902-0.132,2.314-2.771,9.65-7.922C461.72,15.332,465.708,12.688,466.349,12.688z"/>
						<g>
							<path fill="#336269" d="M457.47,101.096c0-0.9,0.389-1.353,1.163-1.353c0.9,0,1.353,0.452,1.353,1.353
								c0,0.773-0.454,1.157-1.353,1.157C457.855,102.248,457.47,101.869,457.47,101.096z"/>
							<path fill="#336269" d="M457.662,111.129c0-0.772,0.389-1.157,1.158-1.157c0.902,0,1.357,0.385,1.357,1.157
								c0,0.773-0.455,1.157-1.357,1.157C458.054,112.547,457.662,112.16,457.662,111.129z"/>
							<path fill="#336269" d="M457.855,121.362c0-0.9,0.388-1.352,1.162-1.352c0.769,0,1.16,0.387,1.16,1.161
								c0,0.9-0.389,1.349-1.16,1.349C458.241,122.517,457.855,122.136,457.855,121.362z"/>
							<path fill="#336269" d="M457.855,131.398c0-0.773,0.454-1.157,1.354-1.157c0.772,0,1.155,0.384,1.155,1.157
								c0,0.773-0.383,1.157-1.155,1.157C458.564,132.55,458.12,132.171,457.855,131.398z"/>
							<path fill="#336269" d="M460.558,141.436c0,0.9-0.386,1.349-1.158,1.349c-0.9,0-1.351-0.384-1.351-1.157
								c0-0.902,0.451-1.353,1.351-1.353C460.177,140.277,460.558,140.663,460.558,141.436z"/>
						</g>
						<g>
							<rect x="443.958" y="100.515" fill="#336269" width="2.897" height="1.354"/>
							<rect x="443.958" y="110.746" fill="#336269" width="2.897" height="1.159"/>
							<rect x="443.958" y="120.781" fill="#336269" width="2.897" height="1.354"/>
							<rect x="443.958" y="131.008" fill="#336269" width="2.897" height="1.164"/>
							<rect x="443.958" y="141.048" fill="#336269" width="2.897" height="1.159"/>
						</g>
						<g>
							<path fill="#E95A5B" d="M449.268,149.223h-21.569c0.016-0.084,0.029-0.169,0.043-0.248
								c0.791-5.934-0.231-12.631-3.056-20.095l-3.726-9.235l0.637-4.152l-5.638,14.324h-17.974l11.443-42.805l5.341-7.119
								c4.297-3.659,9.552-5.171,15.766-4.536l4.154-1.06l0.043,0.25l0.296,1.609h0.085l-0.043,0.17l0.55,3.143
								c2.202,4.011,7.096,7.374,14.665,10.085L449.268,149.223z M456.518,149.223l-1.144-60.516
								c7.571-2.655,12.461-6.046,14.66-10.171c0.838-1.584,1.189-3.054,1.06-4.412c-0.015-0.283-0.052-0.566-0.123-0.847
								l7.54,2.119c0.057,0.389,0.114,0.765,0.176,1.144c5.688,0.478,10.066,2.158,13.138,5.05c1.92,1.803,3.022,3.616,3.304,5.423
								l11.189,42.805h-17.799l-3.985-10.172l-3.48,8.9c-2.876,7.455-3.922,14.128-3.136,20.005c0.03,0.229,0.059,0.455,0.085,0.672
								H456.518L456.518,149.223z M442.064,110.746V96.67h-19.32v14.075c0,2.594,0.957,4.856,2.882,6.781
								c1.802,1.92,4.064,2.877,6.78,2.877c2.543,0,4.77-0.957,6.69-2.877C441.077,115.602,442.064,113.34,442.064,110.746z"/>
							<path fill="#F4F5F5" d="M471.097,74.127c0.13,1.357-0.224,2.828-1.061,4.412c-2.202,4.125-7.094,7.516-14.659,10.171
								l1.144,60.515h-7.247l1.023-59.667c-7.572-2.717-12.466-6.074-14.665-10.085l-0.551-3.143l0.043-0.17h-0.084l-0.299-1.609
								l4.027-1.271c5.539,5.542,10.366,8.309,14.495,8.309c2.652,0,5.334-0.962,8.053-2.884c1.58-1.129,3.59-2.993,6.019-5.593
								L471.097,74.127z M442.064,110.746c0,2.594-0.987,4.856-2.967,6.781c-1.92,1.92-4.147,2.877-6.69,2.877
								c-2.716,0-4.978-0.957-6.78-2.877c-1.925-1.925-2.882-4.187-2.882-6.781V96.67h19.32V110.746L442.064,110.746z"/>
						</g>
						<g>
							<path fill="#F0B598" d="M478.345,144.138c4.747-7.572,7.883-12.257,9.408-14.071c2.317-2.711,5.143-4.577,8.478-5.595
								c1.412-0.394,3.107,0.227,5.085,1.866c1.64,1.469,2.655,3.023,3.052,4.662c0.507,1.808,0.056,3.674-1.356,5.599
								c-0.227,0.283-1.695,1.781-4.407,4.488c-2.718,2.937-5.284,5.423-7.714,7.459l-1.186,1.017h-14.749
								C475.929,147.998,477.06,146.186,478.345,144.138z"/>
						</g>
						<g>
							<path fill="#6F4637" d="M427.775,107.264l32.207-11.376l17.227,48.768L445,156.034c-0.849,0.298-1.728,0.336-2.619,0.105
								c-0.949-0.347-1.547-0.882-1.803-1.615l-15.229-43.12c-0.306-0.848-0.174-1.646,0.386-2.391
								C426.128,108.191,426.805,107.612,427.775,107.264z"/>
							<g>
								<path fill="#9B5B47" d="M432.137,108.595l2.366-0.836l0.131,0.366l-2.367,0.836L432.137,108.595z M435.593,107.375
									l2.185-0.772l0.124,0.368l-2.177,0.77L435.593,107.375z M438.863,106.215l2.187-0.767l0.13,0.364l-2.188,0.773
									L438.863,106.215z M444.321,104.29l0.13,0.366l-2.182,0.771l-0.129-0.368L444.321,104.29z M447.603,103.134l0.124,0.366
									l-2.177,0.77l-0.129-0.365L447.603,103.134z M448.688,102.743l2.186-0.773l0.129,0.373l-2.184,0.771L448.688,102.743z
									 M454.147,100.818l0.129,0.368l-2.182,0.77l-0.129-0.366L454.147,100.818z M458.696,99.208l2.185-0.771l0.129,0.369
									l-2.184,0.767L458.696,99.208z M455.424,100.369l2.182-0.772l0.129,0.368l-2.182,0.77L455.424,100.369z M431.878,118.308
									l0.186-0.066l0.707,2.001l-0.186,0.064L431.878,118.308z M432.975,121.396l0.181-0.066l0.706,2.005l-0.18,0.066
									L432.975,121.396z M436.25,130.678l0.186-0.066l0.708,2.002l-0.186,0.064L436.25,130.678z M438.622,136.795l0.708,2.005
									l-0.186,0.066l-0.706-2.006L438.622,136.795z M440.745,142.8l0.768,2.182l-0.183,0.064l-0.771-2.182L440.745,142.8z
									 M443.449,151.054l-0.708-2.003l0.186-0.066l0.708,2.005L443.449,151.054z M444.315,151.77
									c0.533,0.356,1.271,0.511,2.205,0.453l-0.111,0.245c-0.651,0.098-1.387-0.058-2.206-0.448L444.315,151.77z M447.743,152.195
									l-0.063-0.177l2.186-0.772l0.063,0.183L447.743,152.195z M459.684,147.776l0.065,0.177l-2.182,0.77l-0.064-0.176
									L459.684,147.776z"/>
							</g>
							<path fill="#9B5B47" d="M432.913,135.13c-0.821-0.389-1.401-1.071-1.744-2.042c-0.812-2.308-0.07-3.864,2.233-4.678
								l4.187-1.479c0.971-0.342,1.865-0.319,2.687,0.074c0.863,0.513,1.469,1.255,1.809,2.225c0.345,0.97,0.317,1.873-0.074,2.686
								c-0.472,0.987-1.13,1.629-1.981,1.935l-4.188,1.48C434.874,135.663,433.899,135.597,432.913,135.13z"/>
						</g>
						<g>
							<path fill="#F0B598" d="M455.806,121.528l3.328-1.587c2.583-1.184,4.852-1.713,6.807-1.589l3.697-1.711
								c0.118,2.274-0.749,3.673-2.611,4.195c-2.119-0.2-3.667,0.821-4.644,3.075c-1.679,1.824-3.369,2.829-5.073,3.022
								c-2.116,0.2-3.45-0.488-4.004-2.066l0.592-1.235C454.479,122.609,455.12,121.907,455.806,121.528z"/>
							<path fill="#F0B598" d="M444.85,126.424c0.812,4.625,0.959,7.367,0.451,8.228c-3.494,0.144-5.933,0.39-7.309,0.743
								l-26.833,8.042c-2.637,0.664-4.599,1.083-5.899,1.265c-2.519,0.205-4.419-0.348-5.706-1.666
								c-1.116-1.238-1.863-2.955-2.225-5.144c-0.452-2.438-0.114-4.191,1.004-5.267l2.655-1.752c2.133-1.308,4.29-2.139,6.481-2.5
								c2.313-0.411,7.964-0.631,16.953-0.669c8.506-0.275,13.401-0.307,14.714-0.081
								C440.719,127.88,442.625,127.475,444.85,126.424z"/>
							<path fill="#F0B598" d="M443.388,126.94l7.101-2.508l5.32-2.902l5.563,0.692c3.964,0.788,6.744,1.712,8.351,2.783
								c-4.801,6.884-7.829,10.48-9.083,10.779c-0.651,0.093-1.851-0.026-3.609-0.361c-1.917-0.414-3.248-0.695-3.979-0.844
								l-2.205-0.45l-6.953,0.609L443.388,126.94z"/>
							<g>
								<path fill="#F0B598" d="M467.998,124.182l6.989,1.828c1.063,0.304,1.445,0.99,1.136,2.052
									c-0.182,1.021-0.89,1.338-2.12,0.954l-6.988-1.828c-1.065-0.305-1.442-0.99-1.135-2.054
									C466.062,124.114,466.769,123.791,467.998,124.182z"/>
								<path fill="#F0B598" d="M465.681,127.455l7.911,2.118c1.228,0.389,1.659,1.046,1.31,1.988
									c-0.347,0.949-1.115,1.281-2.294,1.022l-7.735-2.179c-1.184-0.265-1.688-0.905-1.499-1.927
									C463.849,127.486,464.617,127.149,465.681,127.455z"/>
								<path fill="#F0B598" d="M463.9,130.538l6.067,1.542c0.948,0.351,1.305,0.968,1.072,1.871
									c-0.428,1.107-1.047,1.465-1.87,1.076l-6.071-1.538c-0.821-0.392-1.177-1.018-1.069-1.873
									C462.5,130.623,463.119,130.269,463.9,130.538z"/>
								<path fill="#F0B598" d="M460.83,132.854l5.03,1.497c0.739,0.149,0.955,0.75,0.642,1.821
									c-0.304,1.063-0.787,1.437-1.443,1.114l-5.212-1.431c-0.66-0.311-0.875-0.918-0.645-1.819
									C459.676,133.05,460.211,132.66,460.83,132.854z"/>
							</g>
						</g>
						<path fill="#E95A5B" d="M449.17,302.607l1.353-6.183l-0.965,11.771l0.581,16.987c-0.517,5.666-2.508,10.49-5.983,14.476
							l-5.017,4.25c-1.674-1.936-3.283-4.374-4.826-7.334c-2.96-5.917-3.732-11.646-2.314-17.179l2.896-14.667
							c0.513-1.417,1.093-5.082,1.73-11.006v6.563l-0.96,7.146c-0.77,5.274-1.163,9.008-1.163,11.196
							c0,2.704,1.03,5.209,3.088,7.523c0.9,1.164,1.868,1.996,2.895,2.51l4.06-2.316c2.572-2.186,3.857-4.698,3.857-7.527
							L449.17,302.607z"/>
						<g>
							<path fill="#F0B598" d="M471.822,35.731l-5.176,22.039l-2.791,1.44c-2.04,0.438-1.955,4.563,0.249,12.375l-19.497,0.932
								c2.435-3.846,2.915-8,1.447-12.459l-3.644-1.779c-3.497-12.484-5.296-20.057-5.383-22.717
								c-0.086-2.654,1.073-6.445,3.477-11.358c2.4-4.909,4.887-7.581,7.458-8.009c2.567-0.424,6.721-0.411,12.461,0.043
								C466.155,16.688,469.954,23.188,471.822,35.731z"/>
						</g>
					</g>
				</g>
				<g>
					<rect x="172" y="193.159" fill="#2B505C" width="13.703" height="150.75"/>
					<rect x="730.781" y="193.159" fill="#2B505C" width="13.705" height="150.75"/>
					<rect x="172" y="160.352" fill="#2B505C" width="572.487" height="44.391"/>
					<rect x="172" y="163.825" fill="#2C3234" width="572.487" height="1.542"/>
					<g>
						<path fill="#2B505C" d="M165.632,162.279c-2.446,0-3.668-0.251-3.668-0.773v-12.35c0-0.517,1.22-0.771,3.668-0.771h581.364
							c2.447,0,3.668,0.255,3.668,0.771v12.35c0,0.522-1.221,0.773-3.668,0.773H165.632z"/>
					</g>
					<rect x="185.511" y="167.494" fill="#2B505C" width="272.73" height="34.742"/>
					<g>
						<g>
							
								<rect x="194.389" y="170.965" fill="none" stroke="#393737" stroke-width="0.65" stroke-miterlimit="10" width="123.725" height="27.601"/>
							<g>
								<g>
									<rect x="247.084" y="181.577" fill="#E1E1E0" width="17.371" height="2.897"/>
									<rect x="247.084" y="180.226" fill="#F4F7F7" width="17.371" height="2.71"/>
								</g>
								<path fill="#76726C" d="M264.262,179.65c1.414,0.258,2.122,1.159,2.122,2.702c0,1.675-0.708,2.513-2.122,2.513V179.65z"/>
								<path fill="#76726C" d="M248.052,179.65v5.215c-1.414,0-2.124-0.838-2.124-2.513
									C245.93,180.805,246.639,179.91,248.052,179.65z"/>
								<polygon fill="#76726C" points="267.546,182.348 267.157,182.741 266.003,182.741 265.804,182.348 266.003,181.969 
									267.157,181.969 								"/>
								<polygon fill="#76726C" points="246.89,182.348 246.506,182.741 245.344,182.741 245.157,182.348 245.344,181.969 
									246.506,181.969 								"/>
							</g>
						</g>
						<g>
							
								<rect x="325.446" y="170.965" fill="none" stroke="#393737" stroke-width="0.65" stroke-miterlimit="10" width="123.724" height="27.601"/>
							<g>
								<g>
									<rect x="378.141" y="181.577" fill="#E1E1E0" width="17.371" height="2.897"/>
									<rect x="378.141" y="180.226" fill="#F4F7F7" width="17.371" height="2.71"/>
								</g>
								<path fill="#76726C" d="M395.325,179.65c1.536,0.258,2.31,1.159,2.31,2.702c0,1.675-0.773,2.513-2.31,2.513V179.65z"/>
								<path fill="#76726C" d="M379.301,179.65v5.215c-1.546,0-2.314-0.838-2.314-2.513
									C376.986,180.805,377.753,179.91,379.301,179.65z"/>
								<polygon fill="#76726C" points="398.601,182.348 398.214,182.741 397.25,182.741 396.861,182.348 397.25,181.969 
									398.214,181.969 								"/>
								<polygon fill="#76726C" points="377.953,182.348 377.56,182.741 376.406,182.741 376.21,182.348 376.406,181.969 
									377.56,181.969 								"/>
							</g>
						</g>
					</g>
					<rect x="458.241" y="167.494" fill="#2B505C" width="272.544" height="34.742"/>
					<g>
						<g>
							
								<rect x="467.122" y="170.965" fill="none" stroke="#393737" stroke-width="0.65" stroke-miterlimit="10" width="123.721" height="27.601"/>
							<g>
								<g>
									<rect x="519.817" y="181.577" fill="#E1E1E0" width="17.175" height="2.897"/>
									<rect x="519.817" y="180.226" fill="#F4F7F7" width="17.175" height="2.71"/>
								</g>
								<path fill="#76726C" d="M536.992,179.65c1.418,0.258,2.126,1.159,2.126,2.702c0,1.675-0.708,2.513-2.126,2.513V179.65z"/>
								<path fill="#76726C" d="M520.783,179.65v5.215c-1.417,0-2.126-0.838-2.126-2.513
									C518.659,180.805,519.37,179.91,520.783,179.65z"/>
								<polygon fill="#76726C" points="540.279,182.348 539.886,182.741 538.731,182.741 538.345,182.348 538.731,181.969 
									539.886,181.969 								"/>
								<polygon fill="#76726C" points="519.432,182.348 519.237,182.741 518.079,182.741 517.691,182.348 518.079,181.969 
									519.237,181.969 								"/>
							</g>
						</g>
						<g>
							
								<rect x="598.18" y="170.965" fill="none" stroke="#393737" stroke-width="0.65" stroke-miterlimit="10" width="123.722" height="27.601"/>
							<g>
								<g>
									<rect x="650.871" y="181.577" fill="#E1E1E0" width="17.184" height="2.897"/>
									<rect x="650.871" y="180.226" fill="#F4F7F7" width="17.184" height="2.71"/>
								</g>
								<path fill="#76726C" d="M668.055,179.65c1.418,0.258,2.123,1.159,2.123,2.702c0,1.675-0.705,2.513-2.123,2.513V179.65z"/>
								<path fill="#76726C" d="M651.836,179.65v5.215c-1.414,0-2.123-0.838-2.123-2.513
									C649.713,180.805,650.422,179.91,651.836,179.65z"/>
								<polygon fill="#76726C" points="671.334,182.348 670.951,182.741 669.787,182.741 669.602,182.348 669.787,181.969 
									670.951,181.969 								"/>
								<polygon fill="#76726C" points="650.488,182.348 650.295,182.741 649.139,182.741 648.748,182.348 649.139,181.969 
									650.295,181.969 								"/>
							</g>
						</g>
					</g>
				</g>
				<g>
					<path fill="#313232" d="M664.963,144.132c0-2.188,1.158-3.281,3.477-3.281h53.463c2.189,0,3.283,1.093,3.283,3.281
						c0,0.901-0.318,1.672-0.961,2.318c-0.641,0.641-1.414,0.963-2.316,0.963h-53.469c-0.9,0-1.732-0.323-2.506-0.963
						C665.285,145.809,664.963,145.037,664.963,144.132z"/>
					<polygon fill="#313232" points="658.207,101.096 662.068,100.321 673.266,145.681 666.705,147.225 					"/>
				</g>
				<g>
					<g>
						<path fill="#EFC384" d="M706.461,127.346c0.9,0.773,2.314,1.54,4.25,2.309c4.373,0.131,8.557,1.674,12.541,4.634
							c1.289,0.901,1.871,2.382,1.738,4.44c-1.285,1.669-3.41,2.314-6.367,1.931c-1.418-0.251-2.707-1.025-3.859-2.318l-1.547-1.931
							c-0.129-1.669-1.025-2.83-2.703-3.473l-2.314-0.579c-1.418-0.519-2.123-1.479-2.123-2.896L706.461,127.346z"/>
						<path fill="#EFC384" d="M729.24,138.341l8.105,3.48l-3.861,9.266l-9.264-1.353l-2.896,0.187
							c-2.443,0.26-4.373,0.457-5.791,0.581c-2.576,0.255-4.311,0.255-5.209,0c-0.902-0.252-2.447-2.576-4.629-6.948l-2.895-6.564
							c4.115-1.668,10.934-2.574,20.453-2.702L729.24,138.341z"/>
						<g>
							<path fill="#EFC384" d="M705.498,136.221c0.645-0.13,1.221,0,1.732,0.389c0.518,0.251,0.709,0.641,0.582,1.157
								c0,1.162-0.768,1.871-2.314,2.122l-10.424,1.35c-1.672,0.261-2.506-0.187-2.506-1.35c0.25-1.157,1.092-1.865,2.506-2.122
								L705.498,136.221z"/>
							<path fill="#EFC384" d="M695.465,142.012l11.58-1.543c1.797-0.387,2.699,0.063,2.699,1.354c0,1.157-0.902,1.866-2.699,2.123
								l-11.58,1.733c-1.803,0.257-2.707-0.251-2.707-1.544C692.758,142.979,693.658,142.27,695.465,142.012z"/>
							<path fill="#EFC384" d="M708.199,144.132c1.285-0.253,1.93,0.195,1.93,1.353c0,1.162-0.707,1.871-2.123,2.127l-9.072,1.349
								c-1.287,0.255-1.936-0.256-1.936-1.542c0-1.161,0.713-1.869,2.125-2.123L708.199,144.132z"/>
							<path fill="#EFC384" d="M711.289,147.225c1.156,0,1.732,0.513,1.732,1.543c0,1.157-0.582,1.866-1.732,2.122l-7.527,0.965
								c-1.025,0.255-1.543-0.257-1.543-1.541c0-1.03,0.582-1.676,1.734-1.935L711.289,147.225z"/>
						</g>
					</g>
					<path fill="#CBE9EC" d="M821.305,120.396l-28.367,31.849c-4.123-2.96-8.619-6.437-13.516-10.419l29.918-48.637
						c5.146-5.15,11.063-6.18,17.756-3.093l5.018,5.023c2.449,4.5,1.547,9.782-2.703,15.823
						C827.617,113.643,824.91,116.792,821.305,120.396z"/>
					<polygon fill="#CBE9EC" points="729.623,136.221 785.98,138.54 788.109,155.332 728.85,153.21 					"/>
					<path fill="#CBE9EC" d="M781.158,140.277c1.93-1.414,4.057-1.936,6.371-1.543c2.314,0.251,4.18,1.351,5.6,3.281
						c1.412,1.933,1.934,4.056,1.541,6.371c-0.385,2.314-1.541,4.185-3.471,5.602c-1.932,1.414-4.053,1.93-6.373,1.541
						c-2.314-0.389-4.182-1.541-5.598-3.475c-1.412-1.93-1.934-4.057-1.543-6.372C778.07,143.361,779.232,141.565,781.158,140.277z"
						/>
				</g>
				<g>
					<path fill="#313232" d="M244.188,144.132c0,0.901-0.321,1.672-0.965,2.318c-0.773,0.641-1.608,0.963-2.507,0.963h-53.465
						c-2.187,0-3.285-1.096-3.285-3.286s1.096-3.281,3.285-3.281h53.465C243.029,140.856,244.188,141.944,244.188,144.132z"/>
					<polygon fill="#313232" points="250.946,101.096 242.45,147.225 235.886,145.681 247.084,100.321 					"/>
				</g>
				<g>
					<g>
						<path fill="#F9C3A5" d="M168.72,134.872c2.186,0.9,3.731,2.379,4.632,4.437c0.9,2.192,0.9,4.377,0,6.564
							c-0.901,2.187-2.382,3.733-4.442,4.633c-2.187,0.896-4.377,0.896-6.564,0l-0.187-0.191l-56.365-20.075l8.105-19.688
							L168.72,134.872z"/>
						<g>
							<path fill="#F3C8B3" d="M211.959,127.152l3.856-2.122c2.96-1.544,5.658-2.381,8.104-2.51l1.547-0.58
								c1.157-0.642,1.993-1.222,2.506-1.729c0.645,2.438-0.124,4.053-2.309,4.824c-0.649,0-1.357,0.194-2.122,0.579
								c-1.547,0.644-2.512,1.737-2.896,3.286c-1.546,2.189-3.353,3.475-5.407,3.857c-2.574,0.513-4.377,0-5.405-1.546
								c0.128-0.384,0.258-0.896,0.389-1.544C210.602,128.503,211.186,127.663,211.959,127.152z"/>
							<g>
								<path fill="#F9C3A5" d="M227.59,128.503l9.069,1.157c1.294,0.26,1.935,0.902,1.935,1.935
									c-0.257,1.161-1.029,1.611-2.314,1.353l-9.077-1.156c-1.54-0.261-2.189-0.902-1.933-1.935
									C225.271,128.95,226.042,128.503,227.59,128.503z"/>
								<path fill="#F9C3A5" d="M225.468,132.363l10.228,1.354c1.417,0,2.122,0.639,2.122,1.928
									c-0.257,1.03-1.096,1.414-2.508,1.163l-10.232-1.163c-1.413-0.259-2.123-0.9-2.123-1.928
									C223.213,132.55,224.049,132.107,225.468,132.363z"/>
								<path fill="#F9C3A5" d="M224.115,135.84l7.912,0.958c1.29,0.256,1.802,0.837,1.546,1.738
									c-0.256,1.029-0.9,1.542-1.935,1.542l-7.912-0.966c-1.29-0.25-1.801-0.901-1.546-1.931
									C222.184,136.032,222.832,135.58,224.115,135.84z"/>
								<path fill="#F9C3A5" d="M220.833,138.734l6.367,0.96c1.165,0,1.609,0.583,1.357,1.738c-0.257,1.028-0.838,1.479-1.738,1.349
									l-6.371-0.771c-0.901,0-1.349-0.578-1.349-1.733C219.351,139.246,219.932,138.734,220.833,138.734z"/>
							</g>
							<path fill="#F9C3A5" d="M211.959,127.152l6.948,0.194c5.146,0.384,8.813,1.023,11.001,1.93
								c-4.375,7.849-7.205,12.029-8.496,12.546c-0.898,0.385-2.507,0.448-4.826,0.188c-2.438-0.253-4.117-0.451-5.018-0.578h-2.507
								l-8.498,1.349c-11.832,3.732-21.294,6.244-28.37,7.53l-2.896,0.771c-2.187,0-4.122-0.771-5.791-2.318
								c-1.67-1.542-2.508-3.407-2.508-5.599c-0.129-2.185,0.577-4.121,2.123-5.791c1.546-1.54,3.413-2.377,5.602-2.508l1.93,0.192
								c9.134-0.389,18.333-0.58,27.599-0.58l7.917-3.479L211.959,127.152z"/>
						</g>
					</g>
					<path fill="#2B4A55" d="M124.132,142.402l-0.965-0.195l-24.123-9.844c-4.121-1.675-7.079-4.309-8.882-7.913
						c-1.93-3.604-2.187-7.141-0.77-10.62c1.414-3.477,4.058-5.855,7.912-7.142c3.733-1.288,7.661-1.094,11.774,0.578l25.093,10.232
						L124.132,142.402z"/>
				</g>
			</g>
		</g>
		<ellipse fill="#020202" cx="137.327" cy="54.012" rx="1.204" ry="1.575"/>
	</g>
	<ellipse fill="#020202" cx="289.682" cy="32.984" rx="1.467" ry="1.377"/>
	<ellipse fill="#020202" cx="273.91" cy="32.984" rx="1.464" ry="1.377"/>
	<ellipse fill="#020202" cx="462.658" cy="34.679" rx="1.466" ry="1.377"/>
	<ellipse fill="#020202" cx="446.884" cy="34.679" rx="1.464" ry="1.377"/>
	<ellipse fill="#020202" cx="625.34" cy="34.679" rx="1.467" ry="1.377"/>
	<ellipse fill="#020202" cx="609.57" cy="34.679" rx="1.464" ry="1.377"/>
	<ellipse fill="#020202" cx="782.236" cy="50.589" rx="1.465" ry="1.377"/>
</g>
</svg>
