<?xml version="1.0" encoding="utf-8"?>
<!-- Generator: Adobe Illustrator 15.1.0, SVG Export Plug-In . SVG Version: 6.00 Build 0)  -->
<!DOCTYPE svg PUBLIC "-//W3C//DTD SVG 1.1//EN" "http://www.w3.org/Graphics/SVG/1.1/DTD/svg11.dtd">
<svg version="1.1" id="Layer_1" xmlns="http://www.w3.org/2000/svg" xmlns:xlink="http://www.w3.org/1999/xlink" x="0px" y="0px"
	 width="914px" height="381px" viewBox="0 0 914 381" enable-background="new 0 0 914 381" xml:space="preserve">
<rect x="-1.344" y="328.64" fill="#E8EDD1" width="445.764" height="52.298"/>
<rect x="-0.249" y="101.826" fill="#E8EDD1" stroke="#E8EED3" stroke-miterlimit="10" width="444.697" height="52.302"/>
<rect x="-0.249" y="156.794" fill="#E9EBE4" width="444.697" height="42.642"/>
<rect x="-0.249" y="202.091" fill="#E8EDD1" stroke="#E8EED3" stroke-miterlimit="10" width="444.697" height="43.462"/>
<rect x="-0.249" y="248.214" fill="#E9EBE4" width="444.697" height="77.782"/>
<rect x="-0.195" fill="#E9EBE4" width="444.815" height="99.154"/>
<rect x="449.047" y="28.416" fill="#E9EBE4" width="153.227" height="70.806"/>
<rect x="604.963" y="28.416" fill="#E9EBE4" width="153.229" height="70.806"/>
<rect x="760.883" y="28.416" fill="#E9EBE4" width="153.226" height="70.806"/>
<rect x="448.919" fill="#E9EBE4" width="465.287" height="25.26"/>
<rect x="4.097" y="9.923" fill="none" width="361.894" height="88.472"/>
<rect x="426.048" y="6.854" fill="none" width="488.608" height="20.633"/>
<text transform="matrix(1 0 0 1 619.3008 17.6924)" fill="#030303" font-family="'Consolas'" font-size="13.8542">Ответственность</text>
<rect x="448.908" y="39.856" fill="none" width="152.989" height="53.982"/>
<text transform="matrix(1 0 0 1 473.4512 51.6953)" fill="#030303" font-family="'Consolas'" font-size="13.8542">Директор Бизнес </text>
<text transform="matrix(1 0 0 1 485.752 68.3706)" fill="#030303" font-family="'Consolas'" font-size="13.8542">направления</text>
<text transform="matrix(1 0 0 1 469.8779 85.0444)" fill="#030303" font-family="'Consolas'" font-size="13.8542">(Директор завода)</text>
<rect x="606.843" y="39.856" fill="none" width="151.358" height="53.982"/>
<text transform="matrix(1 0 0 1 642.001 51.6953)" fill="#030303" font-family="'Consolas'" font-size="13.8542">Координатор </text>
<text transform="matrix(1 0 0 1 646.9463 68.3706)" fill="#030303" font-family="'Consolas'" font-size="13.8542">Программы </text>
<text transform="matrix(1 0 0 1 658.2939 85.0444)" fill="#030303" font-family="'Consolas'" font-size="13.8542">Эверест</text>
<rect x="764.039" y="28.526" fill="none" width="149.676" height="70.657"/>
<text transform="matrix(1 0 0 1 800.8438 40.3628)" fill="#030303" font-family="'Consolas'" font-size="13.8542">Менеджеры, </text>
<text transform="matrix(1 0 0 1 794.9346 57.0391)" fill="#030303" font-family="'Consolas'" font-size="13.8542">Руководители, </text>
<text transform="matrix(1 0 0 1 798.2344 73.7129)" fill="#030303" font-family="'Consolas'" font-size="13.8542">специалисты,</text>
<text transform="matrix(1 0 0 1 803.9121 90.3867)" fill="#030303" font-family="'Consolas'" font-size="13.8542"> операторы</text>
<rect x="448.899" y="328.689" fill="#F5F6F6" width="153.226" height="52.301"/>
<rect x="604.816" y="328.689" fill="#F5F6F6" width="153.228" height="52.301"/>
<rect x="760.73" y="328.689" fill="#F5F6F6" width="153.229" height="52.301"/>
<rect x="448.97" y="102.271" fill="#F5F6F6" width="153.227" height="52.298"/>
<rect x="604.889" y="102.271" fill="#F5F6F6" width="153.227" height="52.298"/>
<rect x="760.802" y="102.271" fill="#F5F6F6" width="153.229" height="52.298"/>
<rect x="448.899" y="157.14" fill="#E9EBE4" width="153.226" height="42.642"/>
<rect x="604.816" y="157.14" fill="#E9EBE4" width="153.228" height="42.642"/>
<rect x="760.73" y="157.14" fill="#E9EBE4" width="153.229" height="42.642"/>
<rect x="448.899" y="202.34" fill="#F5F6F6" width="153.226" height="43.462"/>
<rect x="604.816" y="202.34" fill="#F5F6F6" width="153.228" height="43.462"/>
<rect x="760.802" y="202.34" fill="#F5F6F6" width="153.229" height="43.462"/>
<rect x="448.899" y="248.362" fill="#E9EBE4" width="153.226" height="77.784"/>
<rect x="604.816" y="248.362" fill="#E9EBE4" width="153.228" height="77.784"/>
<rect x="760.73" y="248.362" fill="#E9EBE4" width="153.229" height="77.784"/>
<rect x="4.097" y="103.983" fill="none" width="387.423" height="53.982"/>
<rect x="4.097" y="161.974" fill="none" width="388.214" height="37.306"/>
<rect x="4.097" y="207.297" fill="none" width="385.743" height="37.308"/>
<rect x="4.097" y="253.856" fill="none" width="387.423" height="70.657"/>
<rect x="4.097" y="329.76" fill="none" width="387.423" height="53.98"/>
<text transform="matrix(1 0 0 1 516.2002 130.5151)" fill="#030303" font-family="'Consolas'" font-size="13.8542">A,R</text>
<text transform="matrix(1 0 0 1 521.3613 180.4902)" fill="#030303" font-family="'Consolas'" font-size="13.8542">A</text>
<text transform="matrix(1 0 0 1 516.2002 226.0098)" fill="#030303" font-family="'Consolas'" font-size="13.8542">R,A</text>
<text transform="matrix(1 0 0 1 516.2002 289.7881)" fill="#030303" font-family="'Consolas'" font-size="13.8542">R,A</text>
<text transform="matrix(1 0 0 1 677.3379 180.4902)" fill="#030303" font-family="'Consolas'" font-size="13.8542">R</text>
<rect x="667.355" y="214.173" fill="none" width="24.069" height="20.633"/>
<text transform="matrix(1 0 0 1 677.3379 226.0098)" fill="#030303" font-family="'Consolas'" font-size="13.8542">R</text>
<text transform="matrix(1 0 0 1 671.8867 289.7881)" fill="#030303" font-family="'Consolas'" font-size="13.8542">R,C</text>
<text transform="matrix(1 0 0 1 676.8262 357.0313)" fill="#030303" font-family="'Consolas'" font-size="13.8542">A</text>
<text transform="matrix(1 0 0 1 833.4941 289.7881)" fill="#030303" font-family="'Consolas'" font-size="13.8542">R</text>
<text transform="matrix(1 0 0 1 833.4941 226.0098)" fill="#030303" font-family="'Consolas'" font-size="13.8542">R</text>
<text transform="matrix(1 0 0 1 833.4941 357.0313)" fill="#030303" font-family="'Consolas'" font-size="13.8542">R</text>
<text transform="matrix(1 0 0 1 833.2031 180.4902)" fill="#030303" font-family="'Consolas'" font-size="13.8542">С</text>
<rect x="2.861" y="11.424" fill="none" width="361.891" height="88.472"/>
<text transform="matrix(1 0 0 1 4.8633 20.2632)" fill="#030303" font-family="'Consolas'" font-size="13.8542">R – responsible (ответственный за процесс, исполнитель)</text>
<text transform="matrix(1 0 0 1 4.8633 42.8755)" fill="#030303" font-family="'Consolas'" font-size="13.8542">A – accountable (ответсвенный за результат, ответсвенный)</text>
<text transform="matrix(1 0 0 1 4.8633 65.4868)" fill="#030303" font-family="'Consolas'" font-size="13.8542">С – consulted (с кем консультируются в процессе)</text>
<text transform="matrix(1 0 0 1 4.8633 88.0981)" fill="#030303" font-family="'Consolas'" font-size="13.8542">I – informed (кого информируют о результате)</text>
<rect x="2.861" y="105.484" fill="none" width="387.421" height="53.982"/>
<text transform="matrix(1 0 0 1 4.8633 117.3223)" fill="#010101" font-family="'Consolas'" font-size="13.8542">Проводить ежедневный обход подразделения (действие из </text>
<text transform="matrix(1 0 0 1 4.8633 133.9976)" fill="#010101" font-family="'Consolas'" font-size="13.8542">Чек Листа по менеджменту) и давать обратную связь </text>
<text transform="matrix(1 0 0 1 4.8633 150.6714)" fill="#010101" font-family="'Consolas'" font-size="13.8542">ответственным за объекты</text>
<rect x="2.861" y="163.475" fill="none" width="388.212" height="37.306"/>
<text transform="matrix(1 0 0 1 4.8633 220.6348)" fill="#010101" font-family="'Consolas'" font-size="13.8542">Поддерживать соответсвие своего рабочего места и </text>
<text transform="matrix(1 0 0 1 4.8633 237.3086)" fill="#010101" font-family="'Consolas'" font-size="13.8542">закрепленных объектов правилам 5S</text>
<rect x="2.861" y="255.357" fill="none" width="387.421" height="70.656"/>
<text transform="matrix(1 0 0 1 4.8633 267.1934)" fill="#010101" font-family="'Consolas'" font-size="13.8542">Проводить внутренние аудиты рабочих мест по графику (в </text>
<text transform="matrix(1 0 0 1 4.8633 283.8682)" fill="#010101" font-family="'Consolas'" font-size="13.8542">том числе как неотъемлемая часть аудита: вносить оценки в </text>
<text transform="matrix(1 0 0 1 4.8633 300.543)" fill="#010101" font-family="'Consolas'" font-size="13.8542">файл мониторинга, давать обратную связь ответственному,  </text>
<text transform="matrix(1 0 0 1 4.8633 317.2158)" fill="#010101" font-family="'Consolas'" font-size="13.8542">вносить обнаруженные несоответсвия в Action Log)</text>
<rect x="2.861" y="331.261" fill="none" width="387.421" height="53.979"/>
<text transform="matrix(1 0 0 1 4.8633 343.0967)" fill="#010101" font-family="'Consolas'" font-size="13.8542">Проводить перекрестные проверки в подразделениях </text>
<text transform="matrix(1 0 0 1 4.8633 359.7715)" fill="#010101" font-family="'Consolas'" font-size="13.8542">согласно установленной очередности (по порядку </text>
<text transform="matrix(1 0 0 1 4.8633 376.4463)" fill="#010101" font-family="'Consolas'" font-size="13.8542">расположения рабочих мест по часовой стрелке)</text>
<text transform="matrix(1 0 0 1 4.0977 172.2891)" fill="#010101" font-family="'Consolas'" font-size="13.8542">Составить и поддерживать график перекрестных проверок, </text>
<text transform="matrix(1 0 0 1 4.0977 188.9629)" fill="#010101" font-family="'Consolas'" font-size="13.8542">RACI и другие документы в актуальном виде</text>
</svg>
