<?xml version="1.0" encoding="utf-8"?>
<!-- Generator: Adobe Illustrator 15.1.0, SVG Export Plug-In . SVG Version: 6.00 Build 0)  -->
<!DOCTYPE svg PUBLIC "-//W3C//DTD SVG 1.1//EN" "http://www.w3.org/Graphics/SVG/1.1/DTD/svg11.dtd">
<svg version="1.1" id="Layer_1" xmlns="http://www.w3.org/2000/svg" xmlns:xlink="http://www.w3.org/1999/xlink" x="0px" y="0px"
	 width="629.973px" height="387.795px" viewBox="0 0 629.973 387.795" enable-background="new 0 0 629.973 387.795"
	 xml:space="preserve">
<g>
	<g>
		<rect x="180.23" y="0.352" fill="#EBEBEC" stroke="#DCDDDE" stroke-miterlimit="10" width="304.581" height="336.302"/>
		<rect x="180.23" y="311.667" fill="#DADBDC" stroke="#DCDDDE" stroke-miterlimit="10" width="304.581" height="33.367"/>
		<path fill="#FFFFFF" stroke="#DCDDDE" stroke-miterlimit="10" d="M397.72,299.334c0-6.811,5.166-12.331,11.539-12.331h54.695
			c6.373,0,11.537,5.521,11.537,12.331l0,0c0,6.813-5.164,12.333-11.537,12.333h-54.695
			C402.886,311.667,397.72,306.147,397.72,299.334L397.72,299.334z"/>
		<rect x="180.23" y="345.034" fill="#C9CACC" width="14.438" height="41.705"/>
		<rect x="470.372" y="345.034" fill="#C9CACC" width="14.438" height="41.705"/>
		<g>
			
				<rect x="291.162" y="271.455" transform="matrix(-0.0036 -1 1 -0.0036 -14.3305 601.7914)" fill="#34556C" width="2.949" height="73.161"/>
			
				<rect x="291.771" y="273.828" transform="matrix(-0.0044 -1 1 -0.0044 -16.4561 604.4303)" fill="#34556C" width="1.771" height="73.159"/>
			<polygon points="333.85,306.371 333.863,309.322 329.22,311.115 329.191,304.622 			"/>
			
				<rect x="291.746" y="269.101" transform="matrix(-0.0066 -1 1 -0.0066 -11.1094 600.3306)" fill="#34556C" width="1.772" height="73.165"/>
			<path fill="#34556C" d="M333.863,309.322c0,0,5.28,0.846,4.938-1.466c-0.341-2.313-4.95-1.484-4.95-1.484"/>
		</g>
	</g>
</g>
<g>
	<g>
		<path fill="#F8A586" d="M627.859,205.33l0.424,8.953c0.098,2.698-0.33,4.688-1.275,5.969l-0.43,0.642
			c-1.324,1.752-2.25,3.694-2.77,5.828l-0.428,1.633c-0.236,0.853-0.807,1.517-1.703,1.99c-0.854,0.473-1.777,0.59-2.771,0.354
			l-1.139-0.285c-0.994-0.238-1.965-0.761-2.912-1.563c-0.902-0.806-1.516-1.658-1.848-2.56l-1.564-4.405
			c-0.283-0.9-0.332-1.919-0.143-3.056c0.143-1.138,0.498-2.086,1.064-2.843l2.131-2.842c0.712-0.998,2.107-4.596,4.193-10.806
			L627.859,205.33z"/>
		<path fill="#1C597B" d="M535.539,321.851c-1.229,1.33-1.82,2.916-1.773,4.764l0.567,47.254c0.048,1.848,0.688,3.436,1.921,4.762
			c1.229,1.277,2.725,1.918,4.475,1.918c1.754-0.047,3.223-0.734,4.408-2.063c1.229-1.326,1.846-2.914,1.846-4.76l-0.641-47.254
			c0-1.85-0.641-3.412-1.92-4.689c-1.229-1.328-2.725-1.986-4.477-1.986C538.193,319.84,536.724,320.527,535.539,321.851z"/>
		<path fill="#3F5272" d="M530.908,204.679l2.063,162.438l24.656-0.287l-2.063-162.438c-0.047-2.981-1.064-5.517-3.057-7.603
			c-1.988-2.086-4.357-3.103-7.105-3.056l-4.547,0.07c-2.795,0.047-5.164,1.139-7.105,3.271
			C531.808,199.208,530.861,201.74,530.908,204.679z"/>
		<path fill="#4DACB5" d="M528.564,103.989l2.203,31.691v67.437h63.881V135.68l2.203-31.691
			c-11.322-2.938-22.715-4.406-34.178-4.406l-12.576,0.643C542.564,100.934,535.386,102.189,528.564,103.989z"/>
		<path fill="#F8A586" d="M574.039,100.152c-4.07-0.381-7.859-0.569-11.365-0.569l-13.219,0.713
			c0.854,2.604,2.395,4.735,4.617,6.396c2.275,1.657,4.813,2.487,7.605,2.487c2.889,0,5.471-0.854,7.744-2.56
			C571.648,104.96,573.189,102.806,574.039,100.152z"/>
		<path fill="#3F5272" d="M594.648,177.036h-63.881v30.91c0,5.354,1.895,9.927,5.684,13.716c3.791,3.791,8.363,5.685,13.717,5.685
			h25.084c5.354,0,9.924-1.894,13.715-5.685c3.789-3.789,5.684-8.361,5.684-13.716L594.648,177.036L594.648,177.036z"/>
		<path fill="#455A7D" d="M578.658,227.06c4.598-0.806,8.389-2.983,11.371-6.535c3.078-3.647,4.617-7.842,4.617-12.578v-30.91
			h-31.975v30.91c0,4.736,1.516,8.931,4.547,12.578C570.251,224.076,574.066,226.255,578.658,227.06z"/>
		<g>
			<g>
				<path fill="#F8A586" d="M562.673,68.958c-1.988,0-3.693,0.711-5.117,2.131c-1.371,1.374-2.063,3.057-2.063,5.045v24.161
					l2.914,7.246l11.512-7.246v-24.16c0-1.989-0.709-3.672-2.135-5.046C566.414,69.669,564.708,68.958,562.673,68.958z"/>
			</g>
		</g>
		<g>
			<path fill="#11132D" d="M540.787,58.726c0.566,0,1.041-0.189,1.419-0.57c0.429-0.424,0.642-0.924,0.642-1.489
				c0-0.569-0.213-1.042-0.642-1.423c-0.378-0.379-0.853-0.566-1.419-0.566c-0.57,0-1.066,0.188-1.492,0.566
				c-0.38,0.381-0.568,0.854-0.568,1.423c0,0.565,0.188,1.065,0.568,1.489C539.72,58.535,540.216,58.726,540.787,58.726z"/>
			<path fill="#11132D" d="M556.919,58.726c0.564,0,1.041-0.189,1.418-0.57c0.428-0.424,0.643-0.924,0.643-1.489
				c0-0.569-0.215-1.042-0.643-1.423c-0.377-0.379-0.854-0.566-1.418-0.566c-0.57,0-1.045,0.188-1.426,0.566
				c-0.377,0.381-0.564,0.854-0.564,1.423c0,0.565,0.188,1.065,0.564,1.489C555.874,58.535,556.349,58.726,556.919,58.726z"/>
		</g>
		<path fill="#F5E7E7" d="M541.072,72.296c0,2.134,0.758,3.957,2.273,5.474c1.515,1.518,3.365,2.272,5.543,2.272
			c2.133,0,3.955-0.757,5.471-2.272c1.518-1.517,2.275-3.34,2.275-5.474H541.072z"/>
		<path fill="#1C597B" d="M577.412,321.427c-1.184,1.373-1.729,2.982-1.633,4.832c0.945,20.938,1.729,36.641,2.345,47.107
			c0.095,1.852,0.806,3.391,2.132,4.621c1.277,1.23,2.795,1.799,4.549,1.705c1.752-0.096,3.194-0.832,4.334-2.203
			c1.137-1.375,1.658-2.982,1.563-4.832c-0.76-13.123-1.518-28.777-2.273-46.969c-0.097-1.801-0.781-3.34-2.063-4.621
			c-1.325-1.229-2.842-1.822-4.547-1.773C580.066,319.39,578.597,320.101,577.412,321.427z"/>
		<path fill="#455A7D" d="M569.636,204.75c1.422,62.91,3.338,116.96,5.756,162.153l24.586-1.352
			c-2.369-45.049-4.266-98.816-5.684-161.302c-0.098-2.937-1.141-5.424-3.131-7.461c-1.986-2.086-4.381-3.103-7.176-3.056
			l-4.477,0.07c-2.795,0.096-5.162,1.209-7.105,3.342C570.464,199.277,569.539,201.812,569.636,204.75z"/>
		<path fill="none" stroke="#1B181D" stroke-width="1.35" d="M584.771,182.012v10.442c0,2.75,0.973,5.069,2.912,6.965
			c1.896,1.942,4.219,2.912,6.965,2.912"/>
		<line fill="none" stroke="#1B181D" stroke-width="1.35" x1="594.648" y1="182.012" x2="530.767" y2="182.012"/>
		<line fill="none" stroke="#455A7D" stroke-width="1.35" x1="555.851" y1="231.469" x2="545.478" y2="231.681"/>
		<line fill="none" stroke="#455A7D" stroke-width="1.35" x1="555.851" y1="238.216" x2="545.478" y2="238.359"/>
		<path fill="#F8A586" d="M525.509,198.496c0.52,0.713,1.396,1.325,2.631,1.849c1.275,0.52,2.367,0.713,3.268,0.569l0.711-0.146
			c0.9-0.144,1.99-0.188,3.27-0.144c1.277,0.047,2.369,0.168,3.27,0.356l1.633,0.354c0.854,0.238,1.684,0.072,2.488-0.496
			c0.805-0.569,1.326-1.353,1.563-2.346l0.354-1.138c0.236-0.996,0.189-2.084-0.141-3.269c-0.287-1.231-0.736-2.178-1.354-2.842
			l-3.193-3.412c-0.617-0.664-1.494-1.185-2.633-1.563c-1.088-0.381-2.084-0.498-2.982-0.354l-4.479,0.565
			c-2.795,0.521-4.643,2.133-5.541,4.832C523.519,193.972,523.9,196.363,525.509,198.496z"/>
		<path fill="#6D3E3E" d="M549.033,28.81l-12.08-7.035c-1.133,2.56-1.275,5.164-0.424,7.815c0.854,2.652,2.486,4.666,4.902,6.039
			L549.033,28.81z"/>
		<path fill="#FFD39B" d="M568.193,103.391c1.553-1.564,2.328-3.446,2.328-5.646V86.507h-15.93v11.239
			c0,2.208,0.775,4.089,2.328,5.646c1.555,1.552,3.436,2.328,5.645,2.328C564.763,105.719,566.638,104.942,568.193,103.391z"/>
		<path fill="#FFD39B" d="M584.314,47.019c-2.346,0-4.352,0.883-6.008,2.647c-1.658,1.765-2.49,3.897-2.49,6.402
			c0,2.495,0.832,4.629,2.49,6.403c1.656,1.767,3.662,2.647,6.008,2.647c2.355,0,4.365-0.883,6.023-2.647
			c1.658-1.774,2.486-3.908,2.486-6.403c0-2.505-0.828-4.64-2.486-6.402C588.679,47.901,586.669,47.019,584.314,47.019z"/>
		<path fill="#FFD39B" d="M547.57,19.912c-3.975,3.169-5.963,7.449-5.963,12.839v38.793c0,5.578,1.988,10.354,5.963,14.33
			c3.971,3.962,8.748,5.943,14.33,5.943h1.506c5.568,0,10.34-1.981,14.313-5.943c3.975-3.976,5.961-8.752,5.961-14.33V32.751
			c0-5.39-1.986-9.67-5.961-12.839c-3.73-2.979-8.502-4.472-14.313-4.472H561.9C556.085,15.441,551.31,16.932,547.57,19.912z"/>
		<path fill="#FFD39B" d="M535.552,48.667c-1.658,1.774-2.488,3.91-2.488,6.403c0,2.506,0.83,4.646,2.488,6.42
			c1.66,1.767,3.668,2.647,6.021,2.647c2.348,0,4.352-0.883,6.009-2.646c1.659-1.775,2.487-3.915,2.487-6.421
			c0-2.493-0.828-4.629-2.487-6.403c-1.657-1.765-3.661-2.646-6.009-2.646C539.22,46.021,537.212,46.903,535.552,48.667z"/>
		<path fill="#844C4B" d="M582.49,63.108c0,3.148-1.061,5.851-3.172,8.101c-2.104,2.24-4.635,3.359-7.592,3.359h-17.564
			c-2.959,0-5.488-1.119-7.594-3.359c-2.112-2.25-3.172-4.95-3.172-8.101V45.401c-1.266,1.374-1.975,6.227-2.123,14.554
			c-0.063,4.164-0.006,8.189,0.176,12.08c0.072,9.004,1.688,15.176,4.834,18.514c1.479,1.564,3.395,2.676,5.738,3.331
			c2.039,0.58,4.641,0.872,7.799,0.872h6.246c3.189,0,5.808-0.267,7.846-0.793c2.393-0.624,4.328-1.675,5.818-3.153
			c3.223-3.203,4.793-9.132,4.709-17.787c0.18-4.048,0.23-8.238,0.158-12.572c-0.137-8.652-0.84-13.669-2.107-15.043V63.108z"/>
		<path fill="#844C4B" d="M549.47,19.595c-2.377-0.328-3.998-0.46-4.865-0.397c-1.418,0.106-2.441,0.656-3.076,1.649
			c-0.719,1.132-1.078,3.001-1.078,5.61l0.033,4.788c0.051,3.848,0.152,7.439,0.301,10.777c0.477,10.676,1.35,16.757,2.613,18.246
			V40.995c0-3.437,1.059-6.373,3.172-8.813c2.104-2.442,4.635-3.664,7.594-3.664h17.564c2.957,0,5.488,1.222,7.592,3.664
			c2.111,2.438,3.172,5.377,3.172,8.813V60.27c1.27-1.489,2.141-7.569,2.615-18.246c0.148-3.338,0.248-6.933,0.299-10.777
			l0.033-4.788c0-5.199-1.354-8.896-4.059-11.097c-2.367-1.911-6.082-2.868-11.146-2.868l-14.375,7.655
			C554.23,20.149,552.101,19.964,549.47,19.595z"/>
		<path fill="#844C4B" d="M573.566,66.581c-2.092-0.94-5.635-1.412-10.619-1.412c-4.99,0-8.529,0.472-10.621,1.412
			c-2.93,1.31-4.393,3.836-4.393,7.575c0,4.134,1.463,7.658,4.393,10.574c2.938,2.916,6.479,4.374,10.621,4.374
			s7.68-1.458,10.619-4.374c2.926-2.916,4.391-6.44,4.391-10.574C577.955,70.417,576.49,67.89,573.566,66.581z"/>
		<path fill="#FFD39B" d="M558.269,74.49c-1.404,0.317-2.738,0.479-3.996,0.479c0,1.055,0.908,1.959,2.729,2.709
			c1.816,0.752,4.014,1.125,6.592,1.125c2.58,0,4.777-0.373,6.596-1.125c1.818-0.75,2.729-1.654,2.729-2.709l-1.143-0.065
			c-0.93-0.072-1.817-0.21-2.664-0.411c-2.734-0.635-4.576-1.749-5.518-3.345C562.845,72.74,561.07,73.856,558.269,74.49z"/>
		<path fill="#6D3E3E" d="M537.755,16.297l2.854,21.067c0.211-0.519,0.57-1.114,1.076-1.791c1.014-1.354,2.252-2.432,3.711-3.234
			c4.691-2.565,10.758-1.911,18.195,1.968c1.09-0.75,2.453-1.458,4.09-2.123c3.301-1.322,6.348-1.74,9.146-1.254
			c2.791,0.485,5.031,1.803,6.723,3.946c0.525,0.677,0.973,1.396,1.33,2.155c0.17,0.38,0.293,0.691,0.365,0.935l0.145-13.252
			c0.074-1.192-0.117-2.599-0.572-4.215c-0.918-3.233-2.715-5.902-5.391-8.006c-2.354-1.851-4.547-3.281-6.578-4.298
			c-1.014-0.516-1.789-0.846-2.33-0.981l-0.666,1.143c-0.611,0.805-1.357,1.307-2.234,1.505c-1.033-2.365-3.24-3.987-6.625-4.864
			c-1.689-0.435-3.279-0.629-4.771-0.588l1.205,2.379c0.75,1.858,1.01,3.461,0.773,4.803c-1.34-1.87-3.822-2.746-7.447-2.632
			c-1.809,0.063-3.482,0.313-5.025,0.745l0.775,2.741c0.613,2.252,1.157,4.449,1.633,6.597c-2.474-2.305-4.945-3.451-7.416-3.44
			C539.484,15.599,538.494,15.833,537.755,16.297z"/>
		<path fill="#010101" d="M571.326,48.542c0.287,0.354,0.68,0.531,1.178,0.531c0.495,0,0.92-0.177,1.275-0.531
			c0.285-0.284,0.429-0.674,0.429-1.172c0-0.496-0.144-0.923-0.429-1.279c-0.355-0.282-0.78-0.426-1.275-0.426
			c-0.498,0-0.891,0.144-1.178,0.426c-0.354,0.356-0.529,0.783-0.529,1.279C570.796,47.868,570.974,48.258,571.326,48.542z"/>
		<path fill="#010101" d="M551.775,48.542c0.283,0.354,0.676,0.531,1.172,0.531c0.498,0,0.924-0.177,1.279-0.531
			c0.283-0.284,0.424-0.674,0.424-1.172c0-0.496-0.141-0.923-0.424-1.279c-0.355-0.282-0.781-0.426-1.279-0.426
			c-0.496,0-0.889,0.144-1.172,0.426c-0.354,0.356-0.533,0.783-0.533,1.279C551.24,47.868,551.419,48.258,551.775,48.542z"/>
		<path fill="#F8A586" d="M509.698,207.724l0.427,8.953c0.097,2.7-0.332,4.688-1.276,5.971l-0.428,0.64
			c-1.326,1.752-2.25,3.694-2.771,5.827l-0.428,1.634c-0.236,0.853-0.809,1.517-1.705,1.989c-0.854,0.476-1.775,0.593-2.771,0.355
			l-1.137-0.283c-0.996-0.24-1.965-0.763-2.914-1.563c-0.898-0.806-1.514-1.658-1.848-2.56l-1.563-4.403
			c-0.281-0.902-0.334-1.919-0.143-3.058c0.143-1.138,0.498-2.084,1.064-2.843l2.133-2.842c0.711-0.996,2.105-4.597,4.191-10.804
			L509.698,207.724z"/>
		<g>
			<path fill="#304779" d="M599.808,105.656c-4.332-4.331-9.555-6.502-15.664-6.502h-38.896c-6.182,0-11.439,2.171-15.771,6.502
				c-4.334,4.333-6.502,9.556-6.502,15.664l2.561,110.288h79.072l1.703-110.288C606.31,115.212,604.144,109.99,599.808,105.656z"/>
			<polygon fill="#455A7D" points="579.851,123.469 585.792,115.455 576.837,99.747 565.773,200.271 588.095,130.224 			"/>
			<polygon fill="#455A7D" points="548.646,123.469 540.402,130.224 565.773,200.271 551.656,99.747 542.705,115.455 			"/>
			<polygon fill="#EBF7FE" points="576.837,99.747 550.203,99.747 565.773,200.271 			"/>
			<polygon fill="#FFFFFF" points="572.599,94.766 563.324,108.789 572.423,118.293 581.146,103.08 			"/>
			<polygon fill="#FFFFFF" points="554.728,94.942 546.181,103.257 554.425,118.293 563.324,108.789 			"/>
			<polygon fill="#CA695A" points="563.324,108.789 558.822,155.345 565.773,200.271 570.72,155.382 			"/>
			<polygon fill="#CA695A" points="563.324,108.789 556.607,115.97 564.052,124.834 570.527,116.271 			"/>
			<g>
				<path fill="#304779" d="M530.482,103.977c2.541-1.63,4.705-2.734,6.49-3.314l5.461,16.363c-1.146,0.45-2.547,1.275-4.203,2.479
					c-3.297,2.399-6.363,5.563-9.201,9.485c-9.02,12.47-14.09,30.129-15.215,52.976c-0.459,9.479-0.631,18.639-0.514,27.479H496.03
					c-0.119-9.278,0.064-18.715,0.549-28.313c1.385-28.18,8.342-49.941,20.869-65.298
					C521.435,110.942,525.777,106.99,530.482,103.977z"/>
			</g>
			<g>
				<path fill="#304779" d="M595.486,103.453c-2.539-1.631-4.703-2.734-6.49-3.314l-5.459,16.363
					c1.146,0.449,2.549,1.274,4.203,2.479c3.295,2.399,6.363,5.563,9.201,9.486c9.021,12.469,14.09,30.128,15.215,52.975
					c0.459,9.479,0.631,18.639,0.516,27.479h17.27c0.117-9.278-0.064-18.715-0.549-28.313c-1.383-28.18-8.342-49.941-20.869-65.298
					C604.533,110.419,600.193,106.469,595.486,103.453z"/>
			</g>
		</g>
		<path fill="#D9D1BD" d="M605.386,375.431l-0.143,12.363h-29.205v-11.652c0-1.707,0.617-3.176,1.85-4.406
			c1.232-1.229,2.703-1.846,4.406-1.846h16.91c0.189,1.561,0.875,2.887,2.063,3.979
			C602.402,374.909,603.777,375.431,605.386,375.431z"/>
		<path fill="#ECE5E1" d="M613.847,383.39v4.404h-19.398v-4.404c0-2.18,0.781-4.053,2.344-5.613c1.52-1.564,3.365-2.346,5.547-2.346
			h3.551c2.229,0,4.098,0.779,5.612,2.346C613.066,379.338,613.847,381.211,613.847,383.39z"/>
		<path fill="#ECE5E1" d="M581.724,377.847c1.518,1.516,2.275,3.363,2.275,5.543v4.404h-7.959v-11.652l0.068-0.711
			C578.289,375.48,580.16,376.284,581.724,377.847z"/>
		<path fill="#D9D1BD" d="M587.906,370.314v-1.42c0-0.994,0.381-1.848,1.139-2.559c0.711-0.76,1.563-1.139,2.561-1.139h3.906
			c1.043,0,1.916,0.379,2.629,1.139c0.711,0.711,1.064,1.563,1.064,2.559v1.42H587.906z"/>
		<rect x="576.039" y="383.674" fill="#D9D1BD" width="38.939" height="4.121"/>
		<path fill="#D9D1BD" d="M540.015,369.89h16.91c0.143,1.561,0.807,2.887,1.992,3.979c1.184,1.041,2.58,1.563,4.189,1.563
			l-0.145,12.363H533.76v-11.652c0-1.707,0.616-3.176,1.848-4.406C536.792,370.506,538.261,369.89,540.015,369.89z"/>
		<path fill="#ECE5E1" d="M572.701,383.39v4.404h-19.471v-4.404c0-2.18,0.781-4.053,2.346-5.613
			c1.563-1.564,3.436-2.346,5.611-2.346h3.555c2.229,0,4.1,0.779,5.613,2.346C571.919,379.338,572.701,381.211,572.701,383.39z"/>
		<path fill="#ECE5E1" d="M533.833,375.431c2.178,0.049,4.051,0.854,5.611,2.416c1.518,1.516,2.273,3.363,2.273,5.543v4.404h-7.959
			v-11.652L533.833,375.431z"/>
		<path fill="#D9D1BD" d="M545.628,370.314v-1.42c0-0.994,0.354-1.848,1.064-2.559c0.711-0.76,1.586-1.139,2.629-1.139h3.908
			c0.994,0,1.871,0.379,2.631,1.139c0.709,0.711,1.063,1.563,1.063,2.559v1.42H545.628z"/>
		<rect x="533.761" y="383.674" fill="#D9D1BD" width="38.939" height="4.121"/>
		
			<line fill="none" stroke="#040406" stroke-width="1.35" stroke-linecap="round" x1="551.24" y1="371.379" x2="556.785" y2="371.379"/>
		
			<line fill="none" stroke="#040406" stroke-width="1.35" stroke-linecap="round" x1="553.232" y1="374.435" x2="558.775" y2="374.435"/>
		
			<line fill="none" stroke="#040406" stroke-width="1.35" stroke-linecap="round" x1="594.019" y1="371.379" x2="599.56" y2="371.379"/>
		
			<line fill="none" stroke="#040406" stroke-width="1.35" stroke-linecap="round" x1="596.007" y1="374.435" x2="601.552" y2="374.435"/>
	</g>
</g>
<g>
	<path fill="#3B2518" d="M108.812,82.294c-2.116-0.17-3.871-1.082-5.253-2.709c-1.386-1.637-1.992-3.512-1.813-5.639l2.296-27.783
		l20.649,1.708l-2.934,35.493L108.812,82.294z"/>
	<g>
		<path fill="#EC7169" d="M106.953,118.048c-1.424-1.403-2.12-3.103-2.088-5.086c0.027-1.974,0.727-3.678,2.091-5.104
			c1.41-1.423,3.076-2.118,5.012-2.09l6.372,2.172c5.049,1.445,9.515,2.104,13.386,1.97c3.875-0.092,7.94-1.018,12.202-2.775
			c2.134-0.905,3.859-1.788,5.188-2.647l1.011,14.358c-1.509,0.752-3.4,1.535-5.666,2.335c-4.627,1.594-8.922,2.458-12.896,2.591
			c-3.971,0.127-8.413-0.44-13.334-1.688l-6.248-1.879C110.003,120.169,108.328,119.454,106.953,118.048z"/>
	</g>
	<path fill="#3B2518" d="M73.64,69.421c-1.271-2.95-1.957-5.859-2.054-8.712c-0.148-3.433,0.604-6.24,2.259-8.431
		c1.494,3.211,4.138,6.515,7.94,9.911c3.709,3.296,7.227,5.56,10.548,6.783l1.657,9.249c-3.15,0.167-6.072-0.048-8.777-0.651
		c-2.938-0.669-5.235-1.521-6.905-2.56C76.232,73.694,74.674,71.837,73.64,69.421z"/>
	<path fill="#EC7169" d="M112.402,119.235l2.021,8.127c0.844,3.356,0.604,6.627-0.699,9.808c-1.229,3.118-3.188,5.569-5.879,7.366
		l-1.826,9.94l-2.743,33.186l-42.626-8.005l-1.578-77.277l28.884-10.288l26.803,14.887L112.402,119.235z"/>
	<g>
		<path fill="#F9AD8E" d="M80.954,72.478c0.111-1.937,0.885-3.535,2.313-4.792c1.437-1.26,3.104-1.854,4.99-1.794
			c1.936,0.11,3.534,0.887,4.794,2.32c1.254,1.434,1.851,3.092,1.792,4.988l-1.142,23.247c-0.11,1.887-0.883,3.49-2.32,4.792
			c-1.39,1.306-3.049,1.901-4.986,1.791c-1.895-0.058-3.492-0.808-4.8-2.243c-1.301-1.436-1.9-3.123-1.782-5.061L80.954,72.478z"/>
	</g>
	<path fill="#F9AD8E" d="M120.98,35.098c1.321,3.476,1.82,7.226,1.488,11.229l-0.689,9.197c-0.54,6.604-0.962,11.073-1.248,13.432
		c-0.813,5.813-2.344,10.244-4.587,13.287c-2.09,2.864-5.341,5.133-9.75,6.815c-8.724-0.727-16.106-4.089-22.16-10.092
		c-5.836-5.8-8.454-11.975-7.871-18.521l1.563-18.027c0.327-3.965,1.573-7.536,3.733-10.725L120.98,35.098z"/>
	<path fill="#3B2518" d="M116.994,28.149c6.208,2.982,9.73,6.545,10.574,10.7c0.491,2.698,0.328,5.248-0.486,7.653
		c-0.93,2.626-2.58,4.791-4.948,6.49c-0.688-3.186-2.421-6.678-5.19-10.467c-2.687-3.688-5.429-6.405-8.223-8.153l0.417-8.583
		C111.907,26.165,114.526,26.948,116.994,28.149z"/>
	<path fill="#5B351F" d="M68.254,43.209c0.565-5.694,2.917-10.532,7.04-14.517c4.075-3.935,8.985-6.233,14.735-6.896
		c4.694-0.516,9.614-0.011,14.757,1.505c3.805,1.069,8.42,2.969,13.841,5.697c-0.984,1.585-2.505,3.875-4.556,6.889
		c-3.034,4.592-7.046,8.576-12.023,11.964c-4.82,3.21-10.147,5.615-15.973,7.225l-0.292,2.68c-0.096,1.128-0.551,2.064-1.37,2.804
		c-0.862,0.686-1.842,0.988-2.928,0.896l-6.571-0.544L70.15,56.53C68.634,50.143,68.007,45.7,68.254,43.209z"/>
	<path fill="#1D193D" d="M106.156,59.235c-0.41,0.395-0.897,0.573-1.467,0.529c-0.563-0.054-1.042-0.313-1.429-0.768
		c-0.345-0.402-0.5-0.918-0.445-1.534c0.045-0.564,0.271-1.021,0.684-1.365c0.46-0.391,0.968-0.563,1.536-0.52
		c0.565,0.05,1.021,0.302,1.362,0.758c0.389,0.415,0.568,0.902,0.52,1.47C106.863,58.416,106.611,58.895,106.156,59.235z"/>
	<path fill="#1D193D" d="M119.572,61.94c-0.406,0.396-0.898,0.571-1.467,0.525c-0.56-0.046-1.04-0.304-1.431-0.761
		c-0.34-0.408-0.495-0.917-0.44-1.528c0.045-0.568,0.277-1.025,0.684-1.369c0.458-0.389,0.972-0.567,1.537-0.519
		c0.563,0.048,1.021,0.301,1.361,0.758c0.393,0.413,0.568,0.902,0.52,1.469C120.279,61.12,120.032,61.601,119.572,61.94z"/>
	<path fill="#F9AD8E" d="M80.2,54.656c1.163,1.379,1.678,2.969,1.523,4.761l-0.527,6.433l-6.434-0.533
		c-1.793-0.148-3.252-0.91-4.37-2.276c-1.174-1.331-1.682-2.898-1.535-4.688c0.144-1.793,0.91-3.273,2.286-4.442
		c1.331-1.167,2.896-1.685,4.688-1.527C77.624,52.521,79.081,53.285,80.2,54.656z"/>
	<path fill="#FBB326" d="M104.347,174.727l1.939,29.208c0.062,5.015-1.654,9.315-5.157,12.914
		c-3.456,3.594-7.692,5.422-12.706,5.487l-19.865,0.252c-6.667,0.086-10.96-0.471-12.866-1.68
		c-3.626-2.272-5.473-7.688-5.527-16.248c-0.061-8.039,1.671-15.327,5.179-21.854l5.3-7.445L104.347,174.727z"/>
	<path fill="#5B351F" d="M88.908,44.909l-2.935,35.502l-12.941-1.072c-2.118-0.175-3.872-1.077-5.26-2.71
		c-1.384-1.635-1.987-3.512-1.81-5.633l2.29-27.793L88.908,44.909z"/>
	<g>
		<path fill="#EC7169" d="M70.925,104.621c0.43,1.617,0.401,3.417-0.118,5.383c-0.179,0.737-0.44,1.419-0.785,2.062l-0.61,0.774
			l-0.794,0.644l-1.281,0.786c-1.066,0.71-2.152,1.583-3.271,2.626c-2.763,2.355-5.896,5.838-9.41,10.438
			c-2.436,3.059-5.349,7.103-8.741,12.138l-3.943,5.756l-11.987-8.023l3.967-5.826c2.808-4.275,5.903-8.588,9.287-12.936
			c3.715-4.931,7.445-9.067,11.208-12.412c1.5-1.314,3.066-2.531,4.699-3.662l2.044-1.29l1.481-0.729
			c0.39-0.125,0.938-0.229,1.66-0.302c1.115-0.101,2.145,0.021,3.083,0.36C69.266,101.135,70.433,102.538,70.925,104.621z"/>
	</g>
	<g>
		<path fill="#F8A687" d="M72.162,380.357C72.527,379.823,73.446,380.84,72.162,380.357c-1.601-0.605-0.414-2.092-1.092-1.977
			c-2.141-3.949-4.598-9.094-5.68-13.563c-2.245-9.162,3.256-42.396,4.103-48.322c0.435-3.002,1.789-21.794,3.068-35.909
			c0.121-0.625,0.197-1.271,0.197-1.937c0-4.963-3.699-8.978-8.261-8.978c-4.567,0-8.266,4.015-8.266,8.978
			c0,0.576,0.056,1.142,0.15,1.687l-0.284,0.021c0.332,3.944-0.044,7.625-0.653,8.981c-2.502,5.556-5.296,16.708-4.472,29.021
			l3.653,38.023c-0.038,0.021-0.058,0.049-0.083,0.072c-0.507,0.588-1.083,0.613-0.896,2.281l-1.482,3.576l3.619,4.666
			c1.554,7.313,1.67,17.479,10.903,16.545l0.104,0.16l4.461,1.373l2.149-0.326l1.475,0.135
			C74.878,384.866,73.708,383.066,72.162,380.357z"/>
		<path fill="#723A21" d="M78.397,383.176c-2.345-2.035-7.116-4.461-7.116-4.461s-5.005,6.338-9.521,0.588
			c-4.41-5.607-2.366-11.592-6.23-17.891c-2.1-3.436-0.957-4.829-0.908-5.303c-1.921,0.729-5.521,3.021-3.888,9.752l0.198,0.34
			l1.022,18.395h1.389l0.475-13.992c0.755,0.541,2.312,2.459,3.404,9.324c0.979,6.17,5.735,6.492,5.735,6.492
			s11.383,0.547,15.193-0.814C78.152,385.605,80.749,385.202,78.397,383.176z"/>
	</g>
	<g>
		<path fill="#F8A687" d="M111.187,378.652c-0.184-0.164-0.354-0.338-0.453-0.547c-0.186-0.381-0.022-0.873-0.227-1.229
			c-1.117-1.955-2.677-3.857-3.799-5.932c-1.288-2.381-2.481-4.848-3.319-7.447c-2.945-8.98-0.004-42.496,0.39-48.455
			c0.203-3.023,0.121-21.857,0.313-36.007c0.073-0.629,0.103-1.277,0.054-1.947c-0.383-4.937-4.377-8.694-8.938-8.385
			c-4.555,0.31-7.938,4.573-7.557,9.519c0.05,0.569,0.141,1.137,0.276,1.678l-0.277,0.031c0.636,3.907,0.539,7.604,0.032,9
			c-2.063,5.709-4.001,17.016-2.231,29.233l7.729,34.077l-1.184,3.586c-0.027,0.021-0.057,0.041-0.075,0.074
			c-0.463,0.623-1.037,0.684-0.713,2.328l-1.216,3.664l3.974,4.414c2.1,7.184,3.006,17.311,12.139,15.742l0.115,0.164l4.559,1.053
			l2.12-0.471l1.481,0.034c-0.605-0.021-1.452-1.677-1.739-2.132c-0.302-0.465-0.548-1.018-0.872-1.467
			C111.618,379.017,111.394,378.842,111.187,378.652z"/>
		<path fill="#723A21" d="M117.767,380.909c-2.501-1.865-7.445-3.971-7.445-3.971s-4.508,6.666-9.459,1.242
			c-4.823-5.283-3.25-11.395-7.578-17.41c-2.367-3.273-1.328-4.752-1.322-5.227c-1.858,0.861-5.276,3.391-3.129,9.982l0.227,0.336
			l2.425,18.27l1.389-0.105l-0.589-13.971c0.777,0.488,2.482,2.285,4.103,9.061c1.45,6.08,6.22,6.07,6.22,6.07
			s11.404-0.221,15.104-1.844C117.707,383.344,120.262,382.763,117.767,380.909z"/>
	</g>
	<polygon fill="#FBB326" points="112.76,293.517 48.457,293.517 51.328,198.66 105.631,200.556 	"/>
	<g>
		<path fill="#F8A687" d="M25.977,182.484c0,0,0.192,7.075-2.482,11.513c0,0-0.655,2.592-0.424,4.332c0,0-3.258-1.521-2.443-4.567
			c0,0,1.999-2.927-0.361-5.974c0,0-1.291-3.808-0.167-6.412c1.12-2.61,2.79-3.079,3.958-2.951
			C24.057,178.426,25.973,180.346,25.977,182.484z"/>
		<g>
			<path fill="#F8A687" d="M16.987,192.942c0.702-0.749,0.77-1.873,0.146-2.508l0,0c-0.623-0.629-1.697-0.54-2.407,0.21l-5.514,5.88
				c-0.708,0.753-0.771,1.874-0.147,2.507l0,0c0.626,0.635,1.696,0.537,2.399-0.207L16.987,192.942z"/>
			<path fill="#F8A687" d="M15.125,189.148c0.784-0.833,0.913-2.021,0.286-2.657l0,0c-0.622-0.635-1.76-0.474-2.546,0.365
				l-6.143,6.542c-0.785,0.833-0.911,2.029-0.292,2.662l0,0c0.626,0.63,1.764,0.472,2.545-0.363L15.125,189.148z"/>
			<path fill="#F8A687" d="M13.257,185.993c0.6-0.645,0.586-1.682-0.029-2.316l0,0c-0.626-0.639-1.624-0.624-2.234,0.025
				l-4.769,5.077c-0.605,0.652-0.593,1.687,0.03,2.32l0,0c0.624,0.636,1.621,0.625,2.23-0.021L13.257,185.993z"/>
			<path fill="#F8A687" d="M12.671,181.74c0.503-0.537,0.4-1.48-0.226-2.116l0,0c-0.625-0.639-1.534-0.716-2.036-0.183l-3.925,4.186
				c-0.501,0.535-0.399,1.478,0.225,2.115l0,0c0.62,0.633,1.53,0.714,2.03,0.184L12.671,181.74z"/>
		</g>
		<path fill="#F8A687" d="M25.977,182.484c0,0,0.02-3.893,0.15-6.488c0.053-1.024,0.982-6.134,1.376-8.038l-0.017-0.006
			c2.169-2.886,9.378-13.378,13.759-20.314c0.421-0.376,0.802-0.816,1.13-1.316c2.156-3.318,1.108-8.129-2.342-10.744
			c-3.446-2.621-7.995-2.058-10.155,1.259c-0.501,0.773-0.824,1.628-0.992,2.514c-3.069,6.858-7.282,20.253-8.819,25.234
			l-0.015-0.01c-0.068,0.244-3.262,7.03-3.262,7.03s0,0-1.389,1.803c-1.383,1.805-4.811,4.909-5.31,6.841
			c-0.494,1.938,5.243,13.985,5.243,13.985C19.667,191.922,25.977,182.484,25.977,182.484z"/>
	</g>
	<g>
		<path fill="#F8A687" d="M189.065,97.243c0,0,5.561-4.124,10.925-4.574c0,0,2.524-0.952,3.767-2.106c0,0,0.965,3.354-2.03,4.437
			c0,0-3.698,0.116-4.562,3.641c0,0-2.193,3.13-5.041,3.734c-2.854,0.604-4.354-0.41-5.031-1.379
			C187.092,100.994,187.351,98.451,189.065,97.243z"/>
		<g>
			<path fill="#F8A687" d="M203.509,98.25c-1.073-0.113-2.021,0.463-2.108,1.294l0,0c-0.089,0.837,0.706,1.607,1.782,1.729
				l8.436,0.916c1.077,0.124,2.02-0.463,2.112-1.291l0,0c0.091-0.84-0.705-1.604-1.776-1.724L203.509,98.25z"/>
			<path fill="#F8A687" d="M201.713,101.809c-1.195-0.131-2.24,0.438-2.329,1.273l0,0c-0.091,0.832,0.803,1.614,2.003,1.75
				l9.391,1.023c1.194,0.129,2.24-0.439,2.331-1.276l0,0c0.087-0.831-0.802-1.611-1.999-1.744L201.713,101.809z"/>
			<path fill="#F8A687" d="M200.432,105.013c-0.925-0.1-1.748,0.499-1.843,1.328l0,0c-0.091,0.838,0.591,1.592,1.52,1.695
				l7.285,0.797c0.934,0.1,1.755-0.497,1.849-1.329l0,0c0.091-0.835-0.588-1.591-1.518-1.694L200.432,105.013z"/>
			<path fill="#F8A687" d="M197.403,107.858c-0.767-0.087-1.456,0.521-1.55,1.356l0,0c-0.089,0.835,0.456,1.578,1.224,1.663
				l6.002,0.653c0.768,0.082,1.461-0.525,1.55-1.359l0,0c0.09-0.832-0.454-1.576-1.218-1.659L197.403,107.858z"/>
		</g>
		<path fill="#F8A687" d="M189.065,97.243c0,0-3.142,2.176-5.319,3.534c-0.856,0.535-5.589,2.695-7.389,3.465l0.004,0.019
			c-3.771-0.038-17.05,0.339-25.568,0.885c-0.585-0.115-1.197-0.159-1.82-0.125c-4.116,0.211-7.278,3.719-7.063,7.834
			c0.209,4.112,3.718,7.281,7.834,7.069c0.959-0.049,1.858-0.282,2.688-0.655c7.569-1.506,21.172-5.81,26.206-7.433l0.004,0.015
			c0.24-0.083,7.841-1.449,7.841-1.449s0,0,2.389,0.046c2.378,0.046,7.179,0.93,9.063,0.222c1.886-0.712,7.722-11.88,7.722-11.88
			C200.892,96.769,189.065,97.243,189.065,97.243z"/>
	</g>
	<path fill="#F79871" d="M113.202,70.213c0,1.193,1.444,2.168,3.224,2.168c1.785,0,3.225-0.975,3.225-2.168
		c0-1.191-1.438-2.161-3.225-2.161C114.648,68.052,113.202,69.021,113.202,70.213z"/>
	<path fill="#F79871" d="M97.227,63.099c-0.663,0.994,0.26,2.778,2.061,3.979c1.803,1.202,3.81,1.37,4.473,0.377
		c0.662-0.992-0.267-2.775-2.071-3.979C99.889,62.275,97.889,62.107,97.227,63.099z"/>
	<circle fill="#F5F6F6" cx="106.853" cy="78.309" r="3.75"/>
</g>
<g>
	<rect x="213.063" y="79.285" fill="none" width="238.914" height="141.531"/>
	<path d="M248.705,91.76c0,0.767-0.147,1.442-0.444,2.033c-0.298,0.59-0.722,1.088-1.271,1.495c-0.551,0.407-1.213,0.716-1.99,0.928
		c-0.776,0.212-1.642,0.317-2.594,0.317h-4.176V80.579h4.564c3.557,0,5.335,1.294,5.335,3.882c0,0.863-0.206,1.604-0.617,2.224
		c-0.411,0.618-1.08,1.078-2.008,1.379c0.431,0.082,0.84,0.22,1.228,0.415c0.387,0.193,0.727,0.446,1.02,0.757
		c0.293,0.31,0.525,0.676,0.696,1.099C248.62,90.756,248.705,91.232,248.705,91.76z M245.873,84.754
		c0-0.323-0.049-0.633-0.146-0.921c-0.099-0.289-0.27-0.537-0.513-0.745c-0.244-0.207-0.574-0.372-0.989-0.494
		c-0.415-0.12-0.939-0.183-1.575-0.183h-2.245v4.993h2.173c0.496,0,0.945-0.053,1.35-0.159c0.402-0.104,0.749-0.269,1.038-0.488
		c0.288-0.219,0.513-0.493,0.671-0.822C245.794,85.603,245.873,85.211,245.873,84.754z M246.399,91.835
		c0-0.407-0.085-0.771-0.256-1.099c-0.171-0.325-0.419-0.602-0.745-0.824c-0.325-0.224-0.722-0.396-1.189-0.519
		c-0.467-0.123-0.994-0.185-1.581-0.185h-2.222v5.493h2.295c1.245,0,2.173-0.23,2.783-0.696
		C246.093,93.543,246.399,92.819,246.399,91.835z"/>
	<path d="M253.15,89.015c0.294-0.01,0.567-0.016,0.824-0.021c0.256-0.004,0.521-0.006,0.799-0.006c0.766,0,1.435,0.092,2.009,0.274
		c0.572,0.184,1.051,0.438,1.435,0.77c0.382,0.329,0.667,0.724,0.854,1.184c0.188,0.461,0.28,0.958,0.28,1.496
		c0,0.651-0.109,1.225-0.33,1.717c-0.22,0.49-0.532,0.903-0.939,1.237c-0.406,0.334-0.904,0.586-1.495,0.757
		c-0.59,0.173-1.292,0.258-2.105,0.258c-0.521,0-1.071-0.016-1.653-0.043c-0.582-0.028-1.174-0.089-1.775-0.179V84.277h2.101v4.738
		H253.15z M257.154,92.774c0-0.645-0.201-1.144-0.604-1.495c-0.402-0.354-1.043-0.531-1.923-0.531c-0.235,0-0.476,0.004-0.72,0.012
		c-0.244,0.01-0.497,0.021-0.757,0.037v4.028c0.26,0.041,0.508,0.067,0.744,0.079c0.235,0.013,0.473,0.019,0.708,0.019
		c0.496,0,0.907-0.059,1.232-0.177s0.584-0.273,0.775-0.47c0.19-0.195,0.328-0.423,0.415-0.686
		C257.111,93.332,257.154,93.06,257.154,92.774z M260.694,96.534V84.278h2.1v12.256H260.694z"/>
	<path d="M290.394,84.278l-4.177,10.962c-0.432,1.115-0.877,2.075-1.336,2.881c-0.46,0.806-0.963,1.467-1.508,1.983
		c-0.545,0.516-1.144,0.896-1.794,1.142c-0.651,0.244-1.379,0.366-2.185,0.366c-0.212,0-0.403-0.004-0.574-0.012
		c-0.171-0.01-0.358-0.021-0.563-0.037v-1.931c0.181,0.024,0.374,0.049,0.586,0.067c0.213,0.021,0.437,0.03,0.672,0.03
		c0.392,0,0.756-0.059,1.094-0.171c0.337-0.114,0.656-0.301,0.958-0.558c0.301-0.256,0.59-0.588,0.866-0.995
		c0.275-0.405,0.546-0.897,0.807-1.477l-4.896-12.256h2.417l3.103,8.104l0.623,1.904l0.708-1.953l2.869-8.057h2.329v0.006H290.394z"
		/>
	<path d="M291.359,84.278h2.1l3.725,5.908v-5.908h1.951v5.908l3.725-5.908h2.1l-3.943,5.908l4.041,6.348h-2.317l-3.603-6.226v6.226
		h-1.952v-6.226l-3.602,6.226h-2.319l4.055-6.348L291.359,84.278z"/>
	<path d="M317.333,89.759c0,0.303-0.004,0.556-0.012,0.759c-0.008,0.202-0.021,0.395-0.037,0.572h-8.605
		c0,1.253,0.351,2.218,1.051,2.889c0.699,0.672,1.709,1.007,3.025,1.007c0.358,0,0.717-0.016,1.074-0.042
		c0.358-0.029,0.704-0.067,1.038-0.116c0.333-0.049,0.653-0.104,0.958-0.165c0.306-0.061,0.588-0.128,0.849-0.201v1.746
		c-0.577,0.163-1.229,0.295-1.959,0.397c-0.729,0.102-1.481,0.15-2.265,0.15c-1.05,0-1.953-0.143-2.71-0.427
		s-1.377-0.698-1.861-1.239c-0.482-0.542-0.843-1.205-1.073-1.988c-0.231-0.785-0.349-1.676-0.349-2.667
		c0-0.862,0.124-1.681,0.373-2.447c0.248-0.771,0.61-1.445,1.086-2.026c0.479-0.582,1.062-1.044,1.752-1.386
		c0.691-0.342,1.479-0.513,2.356-0.513c0.854,0,1.609,0.134,2.271,0.401c0.66,0.271,1.214,0.649,1.667,1.143
		c0.451,0.493,0.793,1.091,1.025,1.795C317.217,88.101,317.333,88.889,317.333,89.759z M315.124,89.454
		c0.024-0.545-0.029-1.044-0.159-1.495c-0.13-0.452-0.332-0.84-0.604-1.166c-0.272-0.325-0.612-0.58-1.021-0.763
		c-0.405-0.184-0.879-0.275-1.416-0.275c-0.464,0-0.887,0.092-1.27,0.271s-0.712,0.432-0.989,0.757
		c-0.276,0.326-0.5,0.716-0.671,1.172s-0.277,0.957-0.316,1.501L315.124,89.454L315.124,89.454z"/>
	<path d="M345.143,90.309c0,0.95-0.137,1.823-0.402,2.616c-0.271,0.796-0.655,1.475-1.16,2.039
		c-0.505,0.565-1.119,1.007-1.844,1.318c-0.726,0.313-1.546,0.47-2.465,0.47c-0.879,0-1.667-0.136-2.362-0.409
		c-0.696-0.271-1.286-0.673-1.771-1.2c-0.482-0.529-0.854-1.186-1.108-1.967c-0.257-0.779-0.385-1.68-0.385-2.696
		c0-0.952,0.134-1.821,0.401-2.606c0.271-0.785,0.655-1.46,1.16-2.024c0.504-0.565,1.119-1.007,1.843-1.318
		c0.726-0.313,1.546-0.47,2.468-0.47c0.879,0,1.666,0.136,2.36,0.407c0.696,0.272,1.286,0.673,1.771,1.196
		c0.481,0.524,0.854,1.178,1.108,1.959C345.013,88.404,345.143,89.3,345.143,90.309z M342.968,90.406
		c0-0.757-0.084-1.418-0.25-1.983c-0.167-0.564-0.403-1.038-0.714-1.416c-0.31-0.379-0.687-0.664-1.13-0.854
		c-0.443-0.191-0.938-0.287-1.481-0.287c-0.637,0-1.18,0.124-1.631,0.372c-0.45,0.249-0.82,0.58-1.109,0.995s-0.5,0.896-0.635,1.444
		c-0.136,0.552-0.201,1.125-0.201,1.729c0,0.757,0.083,1.42,0.25,1.99c0.167,0.568,0.403,1.043,0.714,1.422
		c0.309,0.378,0.684,0.663,1.123,0.854c0.438,0.191,0.936,0.287,1.489,0.287c0.634,0,1.178-0.124,1.629-0.373
		c0.45-0.248,0.82-0.58,1.109-0.995c0.288-0.415,0.5-0.896,0.636-1.445C342.902,91.597,342.968,91.017,342.968,90.406z"/>
	<path d="M358.07,96.534h-2.125v-10.4h-5.604v10.4h-2.124V84.278h9.854V96.534z"/>
	<path d="M364.257,84.278v8.63l5.349-8.63h2.024v12.256h-2.124v-8.63l-5.347,8.63h-2.026V84.278H364.257z"/>
	<path d="M385.231,96.083c-0.556,0.212-1.121,0.368-1.703,0.47c-0.582,0.104-1.184,0.152-1.801,0.152
		c-1.938,0-3.43-0.523-4.476-1.575c-1.046-1.05-1.567-2.583-1.567-4.602c0-0.968,0.149-1.847,0.451-2.637
		c0.303-0.789,0.726-1.467,1.271-2.026c0.545-0.563,1.195-0.995,1.953-1.3c0.756-0.308,1.591-0.458,2.502-0.458
		c0.635,0,1.229,0.045,1.782,0.134c0.554,0.09,1.081,0.236,1.587,0.439v2.024c-0.529-0.274-1.068-0.478-1.617-0.604
		c-0.55-0.126-1.117-0.189-1.703-0.189c-0.545,0-1.061,0.104-1.544,0.313c-0.484,0.207-0.909,0.506-1.276,0.896
		c-0.364,0.393-0.652,0.867-0.866,1.428c-0.212,0.563-0.315,1.196-0.315,1.904c0,1.481,0.359,2.59,1.08,3.326
		c0.721,0.737,1.72,1.104,2.997,1.104c0.578,0,1.137-0.063,1.679-0.193c0.541-0.13,1.063-0.325,1.568-0.586L385.231,96.083
		L385.231,96.083z"/>
	<path d="M397.327,96.534l-0.049-1.648c-0.668,0.659-1.346,1.137-2.033,1.43s-1.41,0.438-2.166,0.438c-0.7,0-1.299-0.09-1.795-0.269
		s-0.905-0.425-1.227-0.738c-0.322-0.313-0.56-0.682-0.709-1.104c-0.15-0.425-0.227-0.885-0.227-1.379
		c0-1.229,0.457-2.191,1.373-2.889c0.915-0.694,2.269-1.044,4.059-1.044h2.539v-1.074c0-0.724-0.23-1.304-0.693-1.737
		c-0.465-0.438-1.172-0.653-2.125-0.653c-0.691,0-1.373,0.078-2.044,0.232c-0.673,0.153-1.365,0.375-2.081,0.657v-1.917
		c0.268-0.098,0.565-0.191,0.896-0.287c0.33-0.093,0.679-0.177,1.044-0.25c0.366-0.071,0.749-0.132,1.147-0.177
		c0.396-0.045,0.802-0.065,1.209-0.065c0.739,0,1.407,0.082,2.002,0.242c0.594,0.163,1.096,0.411,1.507,0.745
		s0.727,0.753,0.946,1.257c0.22,0.507,0.33,1.101,0.33,1.782v8.447L397.327,96.534L397.327,96.534z M397.094,90.956h-2.695
		c-0.529,0-0.985,0.053-1.367,0.159c-0.383,0.106-0.696,0.256-0.94,0.452s-0.426,0.429-0.543,0.702
		c-0.117,0.271-0.177,0.58-0.177,0.922c0,0.234,0.036,0.462,0.109,0.678c0.071,0.215,0.189,0.407,0.354,0.573
		c0.163,0.167,0.375,0.299,0.635,0.396c0.263,0.1,0.578,0.146,0.953,0.146c0.488,0,1.047-0.148,1.679-0.446
		c0.632-0.297,1.297-0.767,1.995-1.41L397.094,90.956L397.094,90.956z"/>
	<path d="M412.941,96.534h-2.124V86.109h-3.418c-0.1,1.677-0.242,3.113-0.436,4.309c-0.19,1.196-0.421,2.195-0.688,2.997
		c-0.271,0.802-0.574,1.435-0.916,1.895c-0.344,0.459-0.71,0.793-1.104,1.001c-0.395,0.207-0.812,0.309-1.251,0.305
		c-0.438-0.004-0.891-0.063-1.354-0.177l0.098-1.758c0.326,0.031,0.631,0.017,0.916-0.051c0.285-0.063,0.549-0.222,0.793-0.47
		c0.244-0.249,0.466-0.604,0.666-1.074c0.199-0.468,0.38-1.093,0.543-1.874c0.163-0.779,0.303-1.737,0.421-2.875
		c0.118-1.135,0.214-2.486,0.287-4.059h7.568L412.941,96.534L412.941,96.534z"/>
	<path d="M419.239,84.278v8.63l5.347-8.63h2.026v12.256h-2.124v-8.63l-5.349,8.63h-2.024V84.278H419.239z"/>
	<path d="M263.378,124.703l-0.134,4.956h-1.94v-3.125h-8.937v3.125h-1.917l-0.122-4.956h0.171c0.31,0,0.603-0.049,0.879-0.146
		c0.276-0.1,0.533-0.283,0.77-0.558c0.236-0.271,0.454-0.649,0.653-1.135c0.198-0.485,0.378-1.111,0.536-1.88
		c0.158-0.771,0.298-1.703,0.415-2.802c0.118-1.101,0.218-2.4,0.3-3.906h7.567v10.426H263.378z M259.496,116.109h-3.418
		c-0.082,1.398-0.188,2.592-0.316,3.577c-0.13,0.983-0.283,1.811-0.458,2.478c-0.176,0.667-0.376,1.201-0.604,1.601
		c-0.229,0.397-0.479,0.712-0.757,0.938h5.554V116.109z"/>
	<path d="M276.099,119.759c0,0.303-0.004,0.556-0.013,0.759c-0.008,0.202-0.021,0.395-0.036,0.572h-8.605
		c0,1.253,0.35,2.218,1.05,2.889c0.7,0.672,1.709,1.007,3.026,1.007c0.357,0,0.717-0.016,1.074-0.042
		c0.357-0.029,0.704-0.067,1.038-0.116c0.333-0.049,0.652-0.104,0.958-0.165c0.306-0.061,0.588-0.128,0.849-0.201v1.746
		c-0.577,0.163-1.23,0.295-1.959,0.397c-0.729,0.102-1.482,0.15-2.265,0.15c-1.051,0-1.953-0.143-2.711-0.427
		c-0.757-0.284-1.377-0.698-1.86-1.239c-0.483-0.542-0.843-1.205-1.073-1.988c-0.231-0.785-0.349-1.676-0.349-2.667
		c0-0.862,0.124-1.681,0.373-2.447c0.248-0.771,0.609-1.445,1.086-2.026c0.478-0.582,1.061-1.044,1.752-1.386
		c0.69-0.342,1.478-0.513,2.355-0.513c0.854,0,1.611,0.134,2.271,0.401c0.66,0.271,1.214,0.649,1.667,1.143
		c0.451,0.493,0.793,1.091,1.024,1.795C275.983,118.101,276.099,118.889,276.099,119.759z M273.89,119.454
		c0.023-0.545-0.028-1.044-0.159-1.495c-0.13-0.452-0.332-0.84-0.604-1.166c-0.271-0.325-0.611-0.58-1.02-0.763
		c-0.406-0.184-0.879-0.275-1.415-0.275c-0.465,0-0.888,0.09-1.271,0.271c-0.383,0.179-0.712,0.432-0.988,0.757
		c-0.276,0.326-0.5,0.716-0.671,1.172s-0.276,0.957-0.316,1.501L273.89,119.454L273.89,119.454z"/>
	<path d="M280.261,122.994c0.271-0.569,0.563-1.001,0.887-1.294c0.319-0.293,0.726-0.488,1.214-0.586
		c-0.515-0.098-0.938-0.256-1.271-0.476c-0.334-0.222-0.6-0.476-0.799-0.765c-0.2-0.289-0.338-0.596-0.415-0.921
		c-0.078-0.325-0.116-0.646-0.116-0.964c0-0.537,0.089-1.042,0.271-1.514c0.179-0.474,0.468-0.885,0.867-1.233
		c0.396-0.35,0.921-0.626,1.567-0.83c0.646-0.203,1.572-0.305,2.777-0.305c0.675,0,1.343,0.021,2.002,0.065
		c0.659,0.044,1.306,0.102,1.941,0.165v12.195h-2.124v-4.749h-1.845c-0.284,0-0.575,0.026-0.873,0.08
		c-0.297,0.053-0.566,0.15-0.812,0.293c-0.244,0.142-0.466,0.328-0.666,0.555c-0.199,0.229-0.376,0.519-0.531,0.867l-1.343,2.954
		h-2.405L280.261,122.994z M281.935,117.965c0,0.7,0.236,1.227,0.714,1.575c0.477,0.352,1.182,0.525,2.116,0.525h2.297v-4.104
		c-0.352-0.03-0.688-0.057-1.015-0.071c-0.325-0.018-0.667-0.024-1.023-0.024c-0.7,0-1.233,0.047-1.601,0.141
		c-0.365,0.095-0.653,0.229-0.867,0.402c-0.212,0.175-0.366,0.389-0.47,0.641C281.985,117.302,281.935,117.607,281.935,117.965z"/>
	<path d="M303.881,116.109h-4.649v10.425h-2.148v-10.425h-4.65v-1.831h11.449L303.881,116.109L303.881,116.109z"/>
	<path d="M317.333,119.759c0,0.303-0.004,0.556-0.012,0.759c-0.008,0.202-0.021,0.395-0.037,0.572h-8.605
		c0,1.253,0.351,2.218,1.051,2.889c0.699,0.672,1.709,1.007,3.025,1.007c0.358,0,0.717-0.016,1.074-0.042
		c0.358-0.029,0.704-0.067,1.038-0.116c0.333-0.049,0.653-0.104,0.958-0.165c0.306-0.061,0.588-0.128,0.849-0.201v1.746
		c-0.577,0.163-1.229,0.295-1.959,0.397c-0.729,0.102-1.481,0.15-2.265,0.15c-1.05,0-1.953-0.143-2.71-0.427
		s-1.377-0.698-1.861-1.239c-0.482-0.542-0.843-1.205-1.073-1.988c-0.231-0.785-0.349-1.676-0.349-2.667
		c0-0.862,0.124-1.681,0.373-2.447c0.248-0.771,0.61-1.445,1.086-2.026c0.479-0.582,1.062-1.044,1.752-1.386
		c0.691-0.342,1.479-0.513,2.356-0.513c0.854,0,1.609,0.134,2.271,0.401c0.66,0.271,1.214,0.649,1.667,1.143
		c0.451,0.493,0.793,1.091,1.025,1.795C317.217,118.101,317.333,118.889,317.333,119.759z M315.124,119.454
		c0.024-0.545-0.029-1.044-0.159-1.495c-0.13-0.452-0.332-0.84-0.604-1.166c-0.272-0.325-0.612-0.58-1.021-0.763
		c-0.405-0.184-0.879-0.275-1.416-0.275c-0.464,0-0.887,0.09-1.27,0.271c-0.383,0.179-0.712,0.432-0.989,0.757
		c-0.276,0.326-0.5,0.716-0.671,1.172s-0.277,0.957-0.316,1.501L315.124,119.454L315.124,119.454z"/>
	<path d="M330.468,126.534h-2.124v-10.425h-3.418c-0.098,1.677-0.24,3.113-0.434,4.309c-0.191,1.196-0.421,2.195-0.689,2.997
		c-0.268,0.802-0.572,1.435-0.915,1.895c-0.343,0.459-0.711,0.793-1.104,1.001c-0.396,0.207-0.813,0.309-1.251,0.305
		c-0.439-0.004-0.893-0.063-1.355-0.177l0.1-1.758c0.324,0.031,0.63,0.017,0.916-0.051c0.285-0.063,0.549-0.222,0.793-0.47
		c0.244-0.249,0.466-0.604,0.666-1.074c0.199-0.468,0.38-1.093,0.543-1.874c0.163-0.779,0.303-1.737,0.421-2.875
		c0.118-1.135,0.214-2.486,0.287-4.059h7.566L330.468,126.534L330.468,126.534z"/>
	<path d="M336.669,118.905c0.203-0.008,0.407-0.014,0.61-0.02c0.203-0.004,0.411-0.008,0.623-0.013
		c0.211-0.004,0.435-0.008,0.671-0.012s0.492-0.006,0.769-0.006c1.89,0,3.29,0.324,4.206,0.97c0.915,0.647,1.373,1.593,1.373,2.838
		c0,1.335-0.482,2.337-1.452,3.009c-0.969,0.671-2.434,1.009-4.395,1.009c-0.887,0-1.691-0.021-2.411-0.057
		c-0.721-0.037-1.427-0.1-2.118-0.188v-12.158h2.124V118.905L336.669,118.905z M342.724,122.713c0-0.342-0.063-0.641-0.188-0.896
		c-0.126-0.257-0.327-0.474-0.604-0.647c-0.275-0.175-0.636-0.307-1.073-0.396c-0.439-0.089-0.968-0.134-1.586-0.134
		c-0.393,0-0.818,0.004-1.282,0.012s-0.903,0.021-1.318,0.037v4.089c0.415,0.041,0.816,0.071,1.202,0.092
		c0.387,0.021,0.813,0.03,1.276,0.03c0.683,0,1.253-0.043,1.708-0.128c0.456-0.086,0.821-0.216,1.1-0.393
		c0.276-0.175,0.475-0.399,0.592-0.678C342.664,123.426,342.724,123.097,342.724,122.713z"/>
	<path d="M358.07,126.534h-2.125v-5.42h-5.604v5.42h-2.124v-12.256h2.124v4.979h5.604v-4.979h2.125V126.534z"/>
	<path d="M372.631,120.309c0,0.95-0.135,1.823-0.4,2.616c-0.271,0.796-0.655,1.475-1.16,2.039c-0.505,0.565-1.119,1.007-1.844,1.318
		c-0.726,0.313-1.548,0.47-2.466,0.47c-0.88,0-1.668-0.136-2.361-0.409c-0.696-0.271-1.286-0.673-1.771-1.2
		c-0.482-0.529-0.854-1.186-1.108-1.967c-0.257-0.779-0.387-1.68-0.387-2.696c0-0.952,0.136-1.821,0.403-2.606
		s0.654-1.46,1.159-2.024c0.505-0.565,1.119-1.007,1.843-1.318c0.727-0.313,1.547-0.47,2.467-0.47c0.879,0,1.666,0.136,2.361,0.407
		c0.696,0.272,1.286,0.673,1.771,1.196c0.482,0.524,0.854,1.178,1.109,1.959C372.503,118.404,372.631,119.3,372.631,120.309z
		 M370.458,120.406c0-0.757-0.084-1.418-0.25-1.983c-0.167-0.564-0.405-1.038-0.714-1.416c-0.31-0.379-0.687-0.664-1.13-0.854
		c-0.443-0.191-0.938-0.287-1.483-0.287c-0.635,0-1.178,0.124-1.629,0.372c-0.452,0.249-0.821,0.58-1.109,0.995
		c-0.289,0.415-0.5,0.896-0.637,1.444c-0.134,0.552-0.2,1.125-0.2,1.729c0,0.757,0.082,1.42,0.25,1.99
		c0.166,0.568,0.404,1.043,0.716,1.422c0.309,0.378,0.684,0.663,1.123,0.854c0.438,0.191,0.936,0.287,1.486,0.287
		c0.636,0,1.181-0.124,1.63-0.373c0.452-0.248,0.822-0.58,1.111-0.995c0.288-0.415,0.5-0.896,0.635-1.445
		C370.393,121.597,370.458,121.017,370.458,120.406z"/>
	<path d="M385.231,126.083c-0.556,0.212-1.121,0.368-1.703,0.47c-0.582,0.104-1.184,0.152-1.801,0.152
		c-1.938,0-3.43-0.523-4.476-1.575c-1.046-1.05-1.567-2.583-1.567-4.602c0-0.968,0.149-1.847,0.451-2.637
		c0.303-0.789,0.726-1.467,1.271-2.026c0.545-0.563,1.195-0.995,1.953-1.3c0.756-0.308,1.591-0.458,2.502-0.458
		c0.635,0,1.229,0.045,1.782,0.134c0.554,0.09,1.081,0.236,1.587,0.439v2.024c-0.529-0.274-1.068-0.478-1.617-0.604
		c-0.55-0.126-1.117-0.189-1.703-0.189c-0.545,0-1.061,0.104-1.544,0.313c-0.484,0.207-0.909,0.506-1.276,0.896
		c-0.364,0.393-0.652,0.867-0.866,1.428c-0.212,0.563-0.315,1.196-0.315,1.904c0,1.481,0.359,2.59,1.08,3.326
		c0.721,0.737,1.72,1.104,2.997,1.104c0.578,0,1.137-0.063,1.679-0.193c0.541-0.13,1.063-0.325,1.568-0.586L385.231,126.083
		L385.231,126.083z"/>
	<path d="M400.097,116.109h-4.649v10.425h-2.148v-10.425h-4.648v-1.831h11.45v1.831H400.097z"/>
	<path d="M405.397,118.905c0.203-0.008,0.405-0.014,0.608-0.02c0.203-0.004,0.411-0.008,0.622-0.013
		c0.212-0.004,0.438-0.008,0.672-0.012c0.236-0.004,0.492-0.006,0.771-0.006c1.888,0,3.289,0.324,4.205,0.97
		c0.915,0.647,1.373,1.593,1.373,2.838c0,1.335-0.484,2.337-1.453,3.009c-0.968,0.671-2.435,1.009-4.396,1.009
		c-0.887,0-1.688-0.021-2.408-0.057c-0.723-0.037-1.429-0.1-2.118-0.188v-12.158h2.124V118.905L405.397,118.905z M411.45,122.713
		c0-0.342-0.063-0.641-0.189-0.896c-0.126-0.257-0.325-0.474-0.604-0.647s-0.635-0.307-1.074-0.396
		c-0.438-0.089-0.969-0.134-1.588-0.134c-0.391,0-0.817,0.004-1.281,0.012s-0.901,0.021-1.316,0.037v4.089
		c0.415,0.041,0.813,0.071,1.201,0.092c0.388,0.021,0.813,0.03,1.275,0.03c0.686,0,1.253-0.043,1.709-0.128
		c0.455-0.086,0.821-0.216,1.098-0.393c0.277-0.175,0.477-0.399,0.595-0.678C411.39,123.426,411.45,123.097,411.45,122.713z"/>
	<path d="M248.108,156.535h-2.123v-10.401h-5.604v10.401h-2.124v-12.257h9.852L248.108,156.535L248.108,156.535z"/>
	<path d="M262.67,150.309c0,0.95-0.134,1.823-0.402,2.616c-0.27,0.797-0.654,1.475-1.16,2.039c-0.505,0.566-1.118,1.008-1.843,1.318
		c-0.726,0.314-1.546,0.471-2.466,0.471c-0.88,0-1.667-0.137-2.362-0.41c-0.695-0.27-1.285-0.672-1.771-1.199
		c-0.483-0.529-0.854-1.186-1.109-1.967c-0.257-0.779-0.386-1.68-0.386-2.697c0-0.952,0.135-1.821,0.403-2.606
		c0.27-0.785,0.654-1.46,1.16-2.024c0.504-0.565,1.118-1.007,1.843-1.318c0.725-0.313,1.546-0.47,2.466-0.47
		c0.88,0,1.667,0.136,2.362,0.407c0.695,0.272,1.286,0.673,1.771,1.196c0.484,0.524,0.854,1.178,1.109,1.959
		C262.542,148.404,262.67,149.3,262.67,150.309z M260.497,150.406c0-0.757-0.083-1.418-0.25-1.983
		c-0.167-0.564-0.404-1.038-0.714-1.416c-0.311-0.379-0.687-0.664-1.129-0.854c-0.443-0.191-0.938-0.287-1.482-0.287
		c-0.636,0-1.179,0.124-1.63,0.372c-0.451,0.249-0.821,0.58-1.11,0.995s-0.5,0.896-0.635,1.444
		c-0.135,0.552-0.201,1.125-0.201,1.729c0,0.757,0.083,1.421,0.25,1.991c0.167,0.568,0.404,1.043,0.714,1.422
		c0.31,0.377,0.685,0.662,1.123,0.854s0.937,0.287,1.489,0.287c0.635,0,1.178-0.125,1.629-0.373s0.821-0.58,1.11-0.996
		c0.289-0.414,0.5-0.895,0.636-1.445C260.431,151.597,260.497,151.017,260.497,150.406z"/>
	<path d="M277.123,154.703l-0.134,4.957h-1.94v-3.125h-8.937v3.125h-1.917l-0.122-4.957h0.171c0.31,0,0.603-0.049,0.879-0.145
		c0.275-0.1,0.533-0.283,0.77-0.559c0.235-0.27,0.454-0.648,0.652-1.135c0.199-0.484,0.379-1.111,0.537-1.879
		c0.158-0.772,0.297-1.704,0.415-2.803c0.118-1.101,0.218-2.4,0.299-3.906h7.568v10.426H277.123z M273.242,146.109h-3.418
		c-0.082,1.398-0.188,2.592-0.316,3.577c-0.131,0.983-0.283,1.812-0.458,2.478c-0.176,0.668-0.376,1.201-0.604,1.602
		c-0.229,0.396-0.479,0.711-0.758,0.938h5.555V146.109z"/>
	<path d="M289.965,150.187c0,1.092-0.15,2.043-0.458,2.855c-0.305,0.814-0.726,1.488-1.263,2.025s-1.172,0.939-1.904,1.209
		c-0.73,0.268-1.524,0.402-2.38,0.402c-0.391,0-0.779-0.021-1.166-0.063c-0.386-0.041-0.779-0.109-1.178-0.207v5.127h-2.124v-17.262
		h1.892l0.136,2.051c0.608-0.838,1.261-1.426,1.952-1.764c0.69-0.338,1.439-0.507,2.245-0.507c0.7,0,1.314,0.146,1.845,0.438
		c0.527,0.293,0.972,0.706,1.331,1.239c0.356,0.533,0.626,1.176,0.806,1.929C289.875,148.419,289.965,149.259,289.965,150.187z
		 M287.792,150.284c0-0.643-0.047-1.233-0.141-1.77c-0.093-0.537-0.242-0.997-0.445-1.381c-0.204-0.382-0.464-0.682-0.781-0.896
		c-0.315-0.215-0.694-0.323-1.135-0.323c-0.269,0-0.542,0.043-0.818,0.128c-0.275,0.086-0.563,0.229-0.858,0.43
		c-0.297,0.197-0.61,0.464-0.94,0.793c-0.329,0.328-0.682,0.737-1.056,1.227v5.945c0.391,0.164,0.801,0.291,1.231,0.385
		c0.433,0.094,0.854,0.141,1.271,0.141c1.146,0,2.046-0.389,2.698-1.166C287.467,153.017,287.792,151.847,287.792,150.284z"/>
	<path d="M301.111,156.535l-0.049-1.648c-0.667,0.658-1.347,1.137-2.033,1.43c-0.688,0.293-1.41,0.438-2.167,0.438
		c-0.7,0-1.298-0.09-1.794-0.27c-0.497-0.178-0.905-0.424-1.229-0.738c-0.32-0.313-0.558-0.682-0.708-1.104
		c-0.149-0.424-0.226-0.885-0.226-1.381c0-1.229,0.458-2.189,1.374-2.887c0.915-0.694,2.268-1.044,4.059-1.044h2.539v-1.074
		c0-0.724-0.23-1.304-0.694-1.737c-0.466-0.438-1.174-0.653-2.125-0.653c-0.691,0-1.373,0.078-2.045,0.232
		c-0.672,0.153-1.364,0.375-2.08,0.657v-1.917c0.269-0.098,0.566-0.191,0.896-0.287c0.33-0.093,0.678-0.177,1.044-0.25
		c0.366-0.071,0.749-0.132,1.147-0.177c0.396-0.045,0.801-0.065,1.208-0.065c0.738,0,1.406,0.082,2.002,0.242
		c0.594,0.163,1.097,0.411,1.507,0.745c0.411,0.334,0.727,0.753,0.944,1.257c0.222,0.507,0.33,1.101,0.33,1.782v8.447
		L301.111,156.535L301.111,156.535z M300.878,150.957h-2.697c-0.528,0-0.984,0.053-1.366,0.158c-0.384,0.107-0.696,0.256-0.94,0.453
		c-0.244,0.195-0.425,0.428-0.543,0.701c-0.118,0.271-0.177,0.58-0.177,0.922c0,0.234,0.037,0.463,0.108,0.678
		c0.073,0.215,0.191,0.408,0.354,0.574s0.374,0.299,0.635,0.395c0.261,0.1,0.578,0.146,0.952,0.146c0.488,0,1.048-0.148,1.678-0.445
		c0.631-0.297,1.296-0.768,1.996-1.41V150.957z"/>
	<path d="M306.653,154.338c0.356,0.1,0.74,0.184,1.146,0.256c0.407,0.072,0.812,0.141,1.208,0.195
		c0.398,0.057,0.783,0.102,1.153,0.127c0.371,0.029,0.702,0.043,0.995,0.043c0.69,0,1.268-0.045,1.728-0.135
		c0.459-0.088,0.826-0.217,1.101-0.385c0.271-0.166,0.465-0.369,0.58-0.609c0.112-0.24,0.171-0.51,0.171-0.813
		c0-0.293-0.051-0.561-0.153-0.801c-0.102-0.238-0.285-0.447-0.549-0.629c-0.265-0.178-0.625-0.314-1.081-0.414
		c-0.456-0.098-1.038-0.146-1.746-0.146h-3.003v-1.648h2.991c0.618,0,1.125-0.041,1.52-0.122c0.396-0.081,0.706-0.197,0.936-0.354
		c0.228-0.154,0.382-0.342,0.464-0.563c0.081-0.22,0.122-0.472,0.122-0.757c0-0.274-0.053-0.521-0.152-0.737
		c-0.102-0.217-0.271-0.398-0.507-0.551c-0.236-0.149-0.549-0.267-0.94-0.348c-0.391-0.081-0.875-0.122-1.453-0.122
		c-0.635,0-1.33,0.045-2.087,0.134c-0.757,0.09-1.514,0.222-2.271,0.393v-1.794c0.333-0.073,0.693-0.144,1.081-0.208
		c0.386-0.065,0.778-0.118,1.178-0.159s0.795-0.073,1.19-0.1c0.395-0.022,0.771-0.035,1.129-0.035c0.96,0,1.762,0.077,2.403,0.236
		c0.645,0.158,1.16,0.38,1.552,0.665c0.391,0.285,0.667,0.623,0.829,1.015c0.163,0.391,0.243,0.816,0.243,1.28
		c0,0.344-0.049,0.665-0.146,0.973c-0.099,0.305-0.249,0.58-0.452,0.822c-0.204,0.244-0.462,0.452-0.775,0.623
		c-0.313,0.171-0.688,0.293-1.129,0.366c0.439,0.065,0.848,0.173,1.223,0.323c0.374,0.15,0.696,0.349,0.97,0.6
		c0.272,0.248,0.488,0.543,0.646,0.885c0.158,0.344,0.238,0.732,0.238,1.174c0,0.537-0.104,1.033-0.311,1.494
		c-0.208,0.461-0.548,0.854-1.021,1.186c-0.472,0.328-1.095,0.588-1.868,0.775c-0.771,0.186-1.721,0.279-2.844,0.279
		c-0.301,0-0.633-0.01-0.995-0.029c-0.36-0.021-0.734-0.051-1.123-0.086c-0.386-0.035-0.767-0.08-1.141-0.135
		c-0.375-0.053-0.725-0.115-1.05-0.188L306.653,154.338L306.653,154.338z"/>
	<path d="M332.106,154.703l-0.136,4.957h-1.939v-3.125h-8.938v3.125h-1.917l-0.122-4.957h0.173c0.309,0,0.602-0.049,0.879-0.145
		c0.274-0.1,0.531-0.283,0.769-0.559c0.236-0.27,0.454-0.648,0.653-1.135c0.199-0.484,0.378-1.111,0.537-1.879
		c0.157-0.772,0.297-1.704,0.415-2.803c0.117-1.101,0.217-2.4,0.299-3.906h7.566v10.426H332.106z M328.222,146.109h-3.418
		c-0.082,1.398-0.188,2.592-0.315,3.577c-0.13,0.983-0.283,1.812-0.458,2.478c-0.175,0.668-0.376,1.201-0.604,1.602
		c-0.228,0.396-0.479,0.711-0.757,0.938h5.555v-8.594H328.222z"/>
	<path d="M344.824,149.759c0,0.303-0.004,0.556-0.013,0.759c-0.01,0.203-0.021,0.395-0.036,0.572h-8.606
		c0,1.254,0.352,2.219,1.05,2.889c0.7,0.672,1.709,1.008,3.028,1.008c0.357,0,0.716-0.016,1.074-0.043
		c0.355-0.029,0.703-0.066,1.037-0.115s0.651-0.104,0.958-0.166c0.306-0.061,0.588-0.127,0.849-0.201v1.746
		c-0.578,0.164-1.229,0.295-1.959,0.398c-0.729,0.102-1.482,0.15-2.265,0.15c-1.05,0-1.953-0.143-2.71-0.428
		c-0.758-0.283-1.377-0.697-1.861-1.238c-0.484-0.543-0.843-1.205-1.074-1.988c-0.23-0.785-0.348-1.676-0.348-2.668
		c0-0.862,0.124-1.681,0.373-2.447c0.248-0.771,0.609-1.445,1.086-2.026c0.477-0.582,1.06-1.044,1.752-1.386
		c0.691-0.342,1.477-0.513,2.355-0.513c0.854,0,1.611,0.134,2.271,0.401c0.66,0.271,1.215,0.649,1.667,1.143
		c0.451,0.493,0.793,1.091,1.025,1.795C344.707,148.101,344.824,148.889,344.824,149.759z M342.615,149.454
		c0.025-0.545-0.028-1.044-0.158-1.495c-0.13-0.452-0.332-0.84-0.604-1.166c-0.272-0.325-0.612-0.58-1.021-0.763
		c-0.407-0.184-0.879-0.275-1.417-0.275c-0.464,0-0.887,0.09-1.27,0.271c-0.385,0.179-0.712,0.432-0.989,0.757
		c-0.277,0.326-0.5,0.716-0.671,1.172s-0.277,0.957-0.317,1.501L342.615,149.454L342.615,149.454z"/>
	<path d="M357.958,156.535h-2.124v-10.426h-3.418c-0.098,1.677-0.242,3.113-0.434,4.309c-0.192,1.197-0.421,2.195-0.689,2.998
		c-0.268,0.801-0.574,1.434-0.916,1.895c-0.342,0.459-0.71,0.793-1.104,1c-0.396,0.207-0.813,0.309-1.251,0.305
		c-0.439-0.004-0.893-0.063-1.355-0.176l0.098-1.758c0.326,0.031,0.633,0.016,0.916-0.051c0.285-0.064,0.551-0.223,0.793-0.471
		c0.244-0.248,0.468-0.604,0.666-1.074c0.199-0.467,0.382-1.092,0.543-1.873c0.163-0.78,0.305-1.738,0.423-2.876
		c0.116-1.135,0.214-2.486,0.286-4.059h7.567L357.958,156.535L357.958,156.535z"/>
	<path d="M372.316,149.759c0,0.303-0.004,0.556-0.015,0.759c-0.008,0.203-0.02,0.395-0.036,0.572h-8.604
		c0,1.254,0.351,2.219,1.051,2.889c0.699,0.672,1.709,1.008,3.027,1.008c0.355,0,0.716-0.016,1.074-0.043
		c0.355-0.029,0.702-0.066,1.036-0.115s0.652-0.104,0.957-0.166c0.308-0.061,0.59-0.127,0.851-0.201v1.746
		c-0.578,0.164-1.231,0.295-1.959,0.398c-0.729,0.102-1.483,0.15-2.267,0.15c-1.05,0-1.951-0.143-2.709-0.428
		c-0.758-0.283-1.379-0.697-1.86-1.238c-0.484-0.543-0.843-1.205-1.074-1.988c-0.232-0.785-0.348-1.676-0.348-2.668
		c0-0.862,0.123-1.681,0.372-2.447c0.248-0.771,0.608-1.445,1.086-2.026c0.477-0.582,1.061-1.044,1.752-1.386
		c0.689-0.342,1.478-0.513,2.354-0.513c0.854,0,1.611,0.134,2.271,0.401c0.66,0.271,1.215,0.649,1.667,1.143
		c0.451,0.493,0.793,1.091,1.023,1.795C372.198,148.101,372.316,148.889,372.316,149.759z M370.106,149.454
		c0.023-0.545-0.028-1.044-0.158-1.495c-0.13-0.452-0.332-0.84-0.604-1.166c-0.271-0.325-0.61-0.58-1.019-0.763
		c-0.407-0.184-0.879-0.275-1.416-0.275c-0.465,0-0.888,0.09-1.271,0.271c-0.384,0.179-0.714,0.432-0.988,0.757
		c-0.276,0.326-0.501,0.716-0.671,1.172c-0.173,0.456-0.277,0.957-0.318,1.501L370.106,149.454L370.106,149.454z"/>
	<path d="M385.561,156.535h-2.125v-5.42h-5.604v5.42h-2.124v-12.257h2.124v4.979h5.604v-4.979h2.125V156.535z"/>
	<path d="M391.747,144.278v8.63l5.347-8.63h2.026v12.257h-2.124v-8.631l-5.347,8.631h-2.026v-12.257H391.747z"/>
	<path d="M403.967,152.994c0.27-0.568,0.563-1,0.887-1.293c0.319-0.293,0.727-0.488,1.215-0.586
		c-0.515-0.098-0.938-0.256-1.271-0.477c-0.334-0.221-0.601-0.475-0.8-0.764c-0.2-0.289-0.338-0.596-0.415-0.921
		c-0.078-0.325-0.116-0.646-0.116-0.964c0-0.537,0.092-1.042,0.271-1.514c0.179-0.474,0.468-0.885,0.867-1.233
		c0.396-0.35,0.921-0.626,1.566-0.83c0.646-0.203,1.572-0.305,2.777-0.305c0.675,0,1.342,0.021,2.002,0.065
		c0.658,0.044,1.306,0.102,1.94,0.165v12.195h-2.125v-4.748h-1.845c-0.284,0-0.575,0.025-0.872,0.08
		c-0.298,0.053-0.565,0.15-0.812,0.293c-0.244,0.141-0.467,0.328-0.666,0.555c-0.199,0.229-0.376,0.518-0.531,0.867l-1.342,2.953
		h-2.405L403.967,152.994z M405.64,147.965c0,0.7,0.237,1.227,0.715,1.575c0.477,0.352,1.183,0.525,2.116,0.525h2.297v-4.104
		c-0.352-0.03-0.688-0.057-1.016-0.071c-0.325-0.018-0.667-0.024-1.023-0.024c-0.699,0-1.232,0.047-1.601,0.141
		c-0.366,0.095-0.654,0.229-0.866,0.402c-0.212,0.175-0.367,0.389-0.471,0.641C405.692,147.302,405.64,147.607,405.64,147.965z"/>
	<path d="M426.244,144.706c0,1.318-0.366,2.317-1.099,2.997c-0.733,0.68-1.794,1.064-3.188,1.154l-0.098,3.004h-1.818l-0.158-4.676
		h1.43c0.495,0,0.909-0.055,1.243-0.159c0.335-0.105,0.604-0.256,0.808-0.452s0.35-0.434,0.438-0.714
		c0.092-0.281,0.137-0.596,0.137-0.946c0-0.594-0.123-1.123-0.367-1.587s-0.586-0.854-1.025-1.172
		c-0.438-0.318-0.962-0.557-1.566-0.72c-0.606-0.163-1.27-0.244-1.983-0.244h-0.306v-1.904h0.33c0.82,0,1.57,0.078,2.252,0.232
		c0.68,0.153,1.284,0.362,1.817,0.629c0.532,0.264,0.996,0.576,1.394,0.934c0.395,0.358,0.724,0.737,0.986,1.135
		c0.267,0.399,0.46,0.813,0.586,1.239S426.244,144.299,426.244,144.706z M420.936,153.531c0.229,0,0.438,0.043,0.635,0.129
		c0.195,0.086,0.364,0.201,0.507,0.348s0.255,0.318,0.336,0.52c0.081,0.199,0.122,0.41,0.122,0.629s-0.041,0.426-0.122,0.623
		c-0.081,0.195-0.193,0.363-0.336,0.506s-0.312,0.256-0.507,0.342s-0.406,0.129-0.635,0.129c-0.221,0-0.429-0.043-0.622-0.129
		c-0.195-0.086-0.366-0.199-0.515-0.342c-0.146-0.143-0.261-0.311-0.342-0.506s-0.122-0.404-0.122-0.623
		c0-0.221,0.041-0.43,0.122-0.629s0.195-0.373,0.342-0.52c0.147-0.146,0.317-0.262,0.515-0.348
		C420.507,153.574,420.715,153.531,420.936,153.531z"/>
</g>
</svg>
