<?xml version="1.0" encoding="utf-8"?>
<!-- Generator: Adobe Illustrator 15.1.0, SVG Export Plug-In . SVG Version: 6.00 Build 0)  -->
<!DOCTYPE svg PUBLIC "-//W3C//DTD SVG 1.1//EN" "http://www.w3.org/Graphics/SVG/1.1/DTD/svg11.dtd">
<svg version="1.1" id="Layer_1" xmlns="http://www.w3.org/2000/svg" xmlns:xlink="http://www.w3.org/1999/xlink" x="0px" y="0px"
	 width="629.973px" height="387.795px" viewBox="0 0 629.973 387.795" enable-background="new 0 0 629.973 387.795"
	 xml:space="preserve">
<g>
	<g>
		<rect x="180.23" y="0.352" fill="#EBEBEC" stroke="#DCDDDE" stroke-miterlimit="10" width="304.581" height="336.302"/>
		<rect x="180.23" y="311.666" fill="#DADBDC" stroke="#DCDDDE" stroke-miterlimit="10" width="304.581" height="33.367"/>
		<path fill="#FFFFFF" stroke="#DCDDDE" stroke-miterlimit="10" d="M397.72,299.334c0-6.812,5.166-12.331,11.539-12.331h54.694
			c6.373,0,11.537,5.521,11.537,12.331l0,0c0,6.813-5.164,12.333-11.537,12.333h-54.694
			C402.886,311.666,397.72,306.147,397.72,299.334L397.72,299.334z"/>
		<rect x="180.23" y="345.033" fill="#C9CACC" width="14.438" height="41.705"/>
		<rect x="470.371" y="345.033" fill="#C9CACC" width="14.438" height="41.705"/>
		<g>
			
				<rect x="291.177" y="271.465" transform="matrix(0.0036 1 -1 0.0036 599.6289 14.2736)" fill="#34556C" width="2.948" height="73.162"/>
			
				<rect x="291.778" y="273.828" transform="matrix(0.0044 1 -1 0.0044 601.7781 16.3781)" fill="#34556C" width="1.772" height="73.16"/>
			<polygon points="333.85,306.37 333.863,309.322 329.22,311.115 329.191,304.621 			"/>
			
				<rect x="291.757" y="269.097" transform="matrix(0.0066 1 -1 0.0066 596.3802 11.0224)" fill="#34556C" width="1.772" height="73.167"/>
			<path fill="#34556C" d="M333.863,309.322c0,0,5.28,0.847,4.938-1.466c-0.341-2.313-4.95-1.484-4.95-1.484"/>
		</g>
	</g>
</g>
<g>
	<g>
		<path fill="#F8A586" d="M627.859,205.33l0.424,8.953c0.099,2.697-0.33,4.688-1.274,5.969l-0.431,0.642
			c-1.323,1.752-2.25,3.694-2.77,5.828l-0.428,1.633c-0.236,0.854-0.808,1.518-1.703,1.99c-0.854,0.473-1.777,0.59-2.771,0.354
			l-1.139-0.285c-0.994-0.238-1.965-0.762-2.912-1.563c-0.902-0.806-1.516-1.658-1.848-2.56l-1.564-4.405
			c-0.283-0.9-0.332-1.919-0.143-3.056c0.143-1.139,0.498-2.086,1.063-2.844l2.131-2.842c0.712-0.998,2.107-4.596,4.193-10.806
			L627.859,205.33z"/>
		<path fill="#1C597B" d="M535.538,321.851c-1.229,1.33-1.819,2.916-1.772,4.764l0.567,47.254c0.048,1.849,0.688,3.437,1.921,4.763
			c1.229,1.276,2.725,1.918,4.475,1.918c1.754-0.047,3.223-0.734,4.408-2.063c1.229-1.326,1.846-2.914,1.846-4.76l-0.641-47.254
			c0-1.851-0.642-3.412-1.92-4.689c-1.229-1.328-2.726-1.985-4.478-1.985C538.193,319.84,536.724,320.527,535.538,321.851z"/>
		<path fill="#3F5272" d="M530.907,204.679l2.063,162.438l24.656-0.287l-2.063-162.438c-0.047-2.98-1.064-5.517-3.057-7.603
			c-1.988-2.086-4.357-3.104-7.105-3.057l-4.547,0.07c-2.795,0.047-5.164,1.139-7.104,3.271
			C531.808,199.208,530.861,201.74,530.907,204.679z"/>
		<path fill="#4DACB5" d="M528.564,103.989l2.203,31.691v67.438h63.881V135.68l2.203-31.691
			c-11.322-2.938-22.715-4.405-34.178-4.405l-12.576,0.643C542.564,100.934,535.386,102.189,528.564,103.989z"/>
		<path fill="#F8A586" d="M574.038,100.152c-4.069-0.381-7.858-0.568-11.364-0.568l-13.22,0.713
			c0.854,2.604,2.396,4.734,4.617,6.396c2.275,1.657,4.813,2.487,7.605,2.487c2.889,0,5.471-0.854,7.744-2.56
			C571.648,104.96,573.189,102.806,574.038,100.152z"/>
		<path fill="#3F5272" d="M594.648,177.036h-63.881v30.909c0,5.354,1.895,9.928,5.684,13.717c3.791,3.791,8.363,5.685,13.718,5.685
			h25.084c5.354,0,9.924-1.894,13.715-5.685c3.789-3.789,5.684-8.361,5.684-13.717L594.648,177.036L594.648,177.036z"/>
		<path fill="#455A7D" d="M578.657,227.06c4.599-0.806,8.39-2.982,11.371-6.535c3.078-3.646,4.617-7.842,4.617-12.578v-30.909
			h-31.975v30.909c0,4.736,1.516,8.932,4.547,12.578C570.251,224.076,574.066,226.255,578.657,227.06z"/>
		<g>
			<g>
				<path fill="#F8A586" d="M562.673,68.958c-1.988,0-3.693,0.711-5.117,2.131c-1.371,1.374-2.063,3.057-2.063,5.045v24.161
					l2.914,7.246l11.513-7.246v-24.16c0-1.989-0.709-3.672-2.136-5.046C566.413,69.669,564.708,68.958,562.673,68.958z"/>
			</g>
		</g>
		<g>
			<path fill="#11132D" d="M540.786,58.726c0.566,0,1.041-0.188,1.419-0.57c0.43-0.424,0.643-0.924,0.643-1.488
				c0-0.569-0.213-1.042-0.643-1.423c-0.378-0.38-0.853-0.566-1.419-0.566c-0.569,0-1.065,0.188-1.491,0.566
				c-0.381,0.381-0.568,0.854-0.568,1.423c0,0.564,0.188,1.064,0.568,1.488C539.72,58.535,540.216,58.726,540.786,58.726z"/>
			<path fill="#11132D" d="M556.919,58.726c0.563,0,1.041-0.188,1.418-0.57c0.428-0.424,0.643-0.924,0.643-1.488
				c0-0.569-0.215-1.042-0.643-1.423c-0.377-0.38-0.854-0.566-1.418-0.566c-0.57,0-1.045,0.188-1.427,0.566
				c-0.377,0.381-0.563,0.854-0.563,1.423c0,0.564,0.188,1.064,0.563,1.488C555.874,58.535,556.349,58.726,556.919,58.726z"/>
		</g>
		<path fill="#F5E7E7" d="M541.072,72.296c0,2.134,0.758,3.957,2.273,5.474c1.515,1.519,3.365,2.272,5.543,2.272
			c2.133,0,3.955-0.757,5.471-2.272c1.519-1.517,2.275-3.34,2.275-5.474H541.072z"/>
		<path fill="#1C597B" d="M577.411,321.427c-1.184,1.373-1.729,2.981-1.633,4.832c0.945,20.938,1.729,36.641,2.345,47.106
			c0.096,1.853,0.807,3.392,2.133,4.621c1.276,1.23,2.795,1.799,4.549,1.705c1.752-0.096,3.193-0.832,4.334-2.203
			c1.137-1.375,1.658-2.981,1.563-4.832c-0.76-13.123-1.518-28.776-2.272-46.969c-0.098-1.801-0.781-3.34-2.063-4.621
			c-1.325-1.229-2.842-1.822-4.547-1.772C580.066,319.39,578.597,320.101,577.411,321.427z"/>
		<path fill="#455A7D" d="M569.636,204.75c1.422,62.91,3.338,116.96,5.756,162.152l24.586-1.352
			c-2.369-45.049-4.266-98.816-5.684-161.302c-0.099-2.938-1.142-5.424-3.132-7.461c-1.985-2.086-4.381-3.104-7.176-3.057
			l-4.477,0.07c-2.795,0.096-5.162,1.209-7.105,3.342C570.464,199.277,569.538,201.812,569.636,204.75z"/>
		<path fill="none" stroke="#1B181D" stroke-width="1.35" d="M584.771,182.012v10.442c0,2.75,0.973,5.068,2.912,6.965
			c1.896,1.941,4.219,2.912,6.965,2.912"/>
		<line fill="none" stroke="#1B181D" stroke-width="1.35" x1="594.648" y1="182.012" x2="530.767" y2="182.012"/>
		<line fill="none" stroke="#455A7D" stroke-width="1.35" x1="555.851" y1="231.469" x2="545.478" y2="231.681"/>
		<line fill="none" stroke="#455A7D" stroke-width="1.35" x1="555.851" y1="238.216" x2="545.478" y2="238.359"/>
		<path fill="#F8A586" d="M525.509,198.496c0.52,0.713,1.396,1.324,2.631,1.849c1.274,0.52,2.367,0.713,3.268,0.569l0.711-0.146
			c0.9-0.144,1.99-0.188,3.271-0.144c1.276,0.047,2.369,0.168,3.27,0.355l1.634,0.354c0.854,0.237,1.684,0.071,2.487-0.496
			c0.806-0.569,1.326-1.354,1.563-2.346l0.354-1.139c0.236-0.996,0.189-2.084-0.141-3.269c-0.287-1.231-0.736-2.178-1.354-2.842
			l-3.192-3.412c-0.617-0.664-1.494-1.186-2.633-1.563c-1.089-0.381-2.084-0.498-2.982-0.354l-4.479,0.564
			c-2.795,0.521-4.643,2.133-5.541,4.832C523.519,193.972,523.9,196.363,525.509,198.496z"/>
		<path fill="#6D3E3E" d="M549.032,28.81l-12.08-7.035c-1.133,2.561-1.274,5.164-0.424,7.815c0.854,2.652,2.486,4.666,4.902,6.039
			L549.032,28.81z"/>
		<path fill="#FFD39B" d="M568.193,103.391c1.553-1.563,2.328-3.446,2.328-5.646V86.507h-15.93v11.239
			c0,2.208,0.774,4.089,2.328,5.646c1.555,1.552,3.436,2.328,5.645,2.328C564.763,105.719,566.638,104.942,568.193,103.391z"/>
		<path fill="#FFD39B" d="M584.314,47.019c-2.346,0-4.352,0.883-6.008,2.647c-1.658,1.765-2.49,3.896-2.49,6.401
			c0,2.495,0.832,4.629,2.49,6.403c1.656,1.767,3.662,2.647,6.008,2.647c2.355,0,4.365-0.884,6.023-2.647
			c1.657-1.774,2.485-3.908,2.485-6.403c0-2.505-0.828-4.64-2.485-6.401C588.679,47.901,586.669,47.019,584.314,47.019z"/>
		<path fill="#FFD39B" d="M547.57,19.912c-3.975,3.169-5.963,7.448-5.963,12.839v38.793c0,5.578,1.988,10.354,5.963,14.33
			c3.971,3.962,8.748,5.942,14.33,5.942h1.506c5.568,0,10.34-1.98,14.313-5.942c3.975-3.977,5.961-8.752,5.961-14.33V32.751
			c0-5.391-1.986-9.67-5.961-12.839c-3.73-2.979-8.502-4.473-14.313-4.473H561.9C556.085,15.441,551.31,16.932,547.57,19.912z"/>
		<path fill="#FFD39B" d="M535.552,48.667c-1.658,1.773-2.488,3.91-2.488,6.402c0,2.507,0.83,4.646,2.488,6.42
			c1.66,1.768,3.668,2.647,6.021,2.647c2.349,0,4.353-0.883,6.009-2.646c1.659-1.775,2.487-3.915,2.487-6.422
			c0-2.492-0.828-4.629-2.487-6.402c-1.656-1.766-3.66-2.646-6.009-2.646C539.22,46.021,537.212,46.903,535.552,48.667z"/>
		<path fill="#844C4B" d="M582.49,63.108c0,3.148-1.061,5.852-3.172,8.102c-2.104,2.239-4.635,3.358-7.592,3.358h-17.564
			c-2.959,0-5.487-1.119-7.594-3.358c-2.112-2.25-3.172-4.95-3.172-8.102V45.401c-1.266,1.374-1.975,6.228-2.123,14.555
			c-0.063,4.164-0.006,8.188,0.176,12.08c0.072,9.004,1.688,15.176,4.834,18.514c1.479,1.563,3.396,2.676,5.738,3.331
			c2.039,0.58,4.641,0.872,7.799,0.872h6.246c3.189,0,5.808-0.268,7.846-0.793c2.394-0.624,4.328-1.675,5.818-3.153
			c3.223-3.203,4.793-9.132,4.709-17.787c0.18-4.048,0.23-8.238,0.158-12.572c-0.137-8.651-0.84-13.669-2.107-15.043V63.108z"/>
		<path fill="#844C4B" d="M549.47,19.595c-2.377-0.328-3.998-0.46-4.865-0.397c-1.418,0.106-2.441,0.656-3.076,1.649
			c-0.719,1.132-1.078,3.001-1.078,5.61l0.033,4.788c0.051,3.848,0.152,7.438,0.301,10.776c0.478,10.676,1.351,16.757,2.613,18.246
			V40.995c0-3.438,1.059-6.373,3.172-8.813c2.104-2.442,4.635-3.664,7.594-3.664h17.564c2.957,0,5.488,1.222,7.592,3.664
			c2.111,2.438,3.172,5.377,3.172,8.813V60.27c1.271-1.489,2.142-7.568,2.615-18.246c0.148-3.338,0.248-6.933,0.299-10.776
			l0.033-4.788c0-5.199-1.354-8.896-4.059-11.098c-2.367-1.91-6.082-2.867-11.146-2.867l-14.375,7.654
			C554.23,20.149,552.101,19.964,549.47,19.595z"/>
		<path fill="#844C4B" d="M573.566,66.581c-2.092-0.94-5.635-1.412-10.619-1.412c-4.99,0-8.529,0.472-10.621,1.412
			c-2.93,1.31-4.393,3.836-4.393,7.574c0,4.135,1.463,7.658,4.393,10.574c2.938,2.916,6.479,4.374,10.621,4.374
			c4.143,0,7.68-1.458,10.619-4.374c2.926-2.916,4.391-6.439,4.391-10.574C577.954,70.417,576.49,67.89,573.566,66.581z"/>
		<path fill="#FFD39B" d="M558.269,74.49c-1.404,0.317-2.738,0.479-3.996,0.479c0,1.055,0.908,1.959,2.729,2.709
			c1.815,0.752,4.014,1.125,6.592,1.125c2.58,0,4.776-0.373,6.596-1.125c1.818-0.75,2.729-1.654,2.729-2.709l-1.144-0.065
			c-0.93-0.071-1.817-0.21-2.664-0.41c-2.733-0.636-4.576-1.749-5.518-3.346C562.845,72.74,561.07,73.856,558.269,74.49z"/>
		<path fill="#6D3E3E" d="M537.755,16.297l2.854,21.066c0.211-0.519,0.57-1.113,1.076-1.791c1.014-1.354,2.252-2.432,3.711-3.233
			c4.691-2.565,10.758-1.911,18.195,1.968c1.09-0.75,2.453-1.458,4.09-2.123c3.301-1.322,6.348-1.74,9.146-1.254
			c2.791,0.485,5.031,1.803,6.724,3.946c0.524,0.677,0.973,1.396,1.33,2.154c0.17,0.381,0.293,0.691,0.364,0.936l0.146-13.252
			c0.074-1.192-0.117-2.6-0.572-4.215c-0.918-3.233-2.715-5.902-5.391-8.006c-2.354-1.852-4.547-3.281-6.578-4.299
			c-1.014-0.516-1.789-0.846-2.33-0.98l-0.666,1.143c-0.611,0.806-1.357,1.308-2.234,1.505c-1.032-2.364-3.239-3.986-6.625-4.863
			c-1.688-0.436-3.278-0.629-4.771-0.588l1.205,2.379c0.75,1.857,1.01,3.461,0.772,4.803c-1.34-1.87-3.821-2.746-7.446-2.632
			c-1.81,0.063-3.482,0.313-5.025,0.745l0.775,2.74c0.612,2.252,1.156,4.449,1.633,6.598c-2.475-2.306-4.945-3.451-7.416-3.44
			C539.484,15.599,538.493,15.833,537.755,16.297z"/>
		<path fill="#010101" d="M571.325,48.542c0.287,0.354,0.681,0.53,1.179,0.53c0.494,0,0.92-0.177,1.274-0.53
			c0.285-0.284,0.43-0.674,0.43-1.172c0-0.496-0.145-0.924-0.43-1.279c-0.354-0.282-0.78-0.426-1.274-0.426
			c-0.498,0-0.892,0.144-1.179,0.426c-0.354,0.355-0.528,0.783-0.528,1.279C570.796,47.868,570.974,48.258,571.325,48.542z"/>
		<path fill="#010101" d="M551.775,48.542c0.283,0.354,0.676,0.53,1.172,0.53c0.498,0,0.924-0.177,1.279-0.53
			c0.283-0.284,0.424-0.674,0.424-1.172c0-0.496-0.141-0.924-0.424-1.279c-0.355-0.282-0.781-0.426-1.279-0.426
			c-0.496,0-0.889,0.144-1.172,0.426c-0.354,0.355-0.533,0.783-0.533,1.279C551.24,47.868,551.419,48.258,551.775,48.542z"/>
		<path fill="#F8A586" d="M509.698,207.724l0.427,8.953c0.098,2.7-0.332,4.688-1.275,5.971l-0.428,0.641
			c-1.326,1.752-2.25,3.693-2.771,5.826l-0.428,1.635c-0.236,0.853-0.81,1.517-1.705,1.988c-0.854,0.477-1.775,0.594-2.771,0.355
			l-1.137-0.283c-0.996-0.24-1.965-0.763-2.914-1.563c-0.897-0.807-1.514-1.658-1.848-2.561l-1.563-4.402
			c-0.28-0.902-0.334-1.92-0.143-3.059c0.143-1.138,0.498-2.084,1.063-2.843l2.134-2.842c0.711-0.996,2.104-4.598,4.19-10.805
			L509.698,207.724z"/>
		<g>
			<path fill="#304779" d="M599.808,105.656c-4.332-4.33-9.555-6.502-15.664-6.502h-38.896c-6.182,0-11.438,2.172-15.771,6.502
				c-4.334,4.333-6.502,9.557-6.502,15.664l2.561,110.288h79.072l1.703-110.288C606.31,115.212,604.144,109.99,599.808,105.656z"/>
			<polygon fill="#455A7D" points="579.851,123.469 585.792,115.455 576.837,99.747 565.773,200.271 588.095,130.224 			"/>
			<polygon fill="#455A7D" points="548.646,123.469 540.402,130.224 565.773,200.271 551.656,99.747 542.704,115.455 			"/>
			<polygon fill="#EBF7FE" points="576.837,99.747 550.202,99.747 565.773,200.271 			"/>
			<polygon fill="#FFFFFF" points="572.599,94.766 563.323,108.789 572.423,118.293 581.146,103.08 			"/>
			<polygon fill="#FFFFFF" points="554.728,94.942 546.181,103.257 554.425,118.293 563.323,108.789 			"/>
			<polygon fill="#CA695A" points="563.323,108.789 558.822,155.345 565.773,200.271 570.72,155.382 			"/>
			<polygon fill="#CA695A" points="563.323,108.789 556.607,115.97 564.052,124.834 570.527,116.271 			"/>
			<g>
				<path fill="#304779" d="M530.482,103.977c2.541-1.63,4.705-2.733,6.49-3.313l5.461,16.362c-1.146,0.45-2.547,1.275-4.203,2.479
					c-3.297,2.398-6.363,5.563-9.201,9.484c-9.02,12.471-14.09,30.13-15.215,52.977c-0.459,9.479-0.631,18.639-0.514,27.479H496.03
					c-0.119-9.277,0.064-18.715,0.549-28.313c1.386-28.18,8.343-49.941,20.869-65.298
					C521.435,110.942,525.777,106.99,530.482,103.977z"/>
			</g>
			<g>
				<path fill="#304779" d="M595.486,103.453c-2.539-1.632-4.703-2.734-6.49-3.314l-5.459,16.363
					c1.146,0.449,2.55,1.273,4.203,2.479c3.295,2.399,6.363,5.563,9.201,9.486c9.021,12.469,14.09,30.128,15.215,52.975
					c0.459,9.479,0.631,18.64,0.517,27.479h17.27c0.117-9.278-0.063-18.715-0.549-28.313c-1.383-28.18-8.342-49.94-20.869-65.298
					C604.532,110.419,600.193,106.469,595.486,103.453z"/>
			</g>
		</g>
		<path fill="#D9D1BD" d="M605.386,375.431l-0.144,12.363h-29.205v-11.652c0-1.707,0.617-3.176,1.851-4.406
			c1.231-1.229,2.703-1.846,4.406-1.846h16.909c0.189,1.561,0.875,2.887,2.063,3.979
			C602.402,374.908,603.777,375.431,605.386,375.431z"/>
		<path fill="#ECE5E1" d="M613.847,383.39v4.404h-19.398v-4.404c0-2.18,0.781-4.053,2.344-5.613
			c1.521-1.563,3.365-2.346,5.548-2.346h3.551c2.229,0,4.098,0.779,5.612,2.346C613.066,379.338,613.847,381.211,613.847,383.39z"/>
		<path fill="#ECE5E1" d="M581.724,377.847c1.518,1.516,2.275,3.363,2.275,5.543v4.404h-7.959v-11.652l0.067-0.711
			C578.288,375.48,580.159,376.283,581.724,377.847z"/>
		<path fill="#D9D1BD" d="M587.906,370.314v-1.42c0-0.994,0.381-1.848,1.14-2.559c0.711-0.761,1.563-1.14,2.561-1.14h3.906
			c1.043,0,1.916,0.379,2.629,1.14c0.711,0.711,1.063,1.563,1.063,2.559v1.42H587.906z"/>
		<rect x="576.038" y="383.674" fill="#D9D1BD" width="38.939" height="4.121"/>
		<path fill="#D9D1BD" d="M540.015,369.89h16.91c0.143,1.561,0.807,2.887,1.992,3.979c1.184,1.041,2.579,1.563,4.188,1.563
			l-0.145,12.363H533.76v-11.652c0-1.707,0.616-3.176,1.848-4.406C536.792,370.506,538.261,369.89,540.015,369.89z"/>
		<path fill="#ECE5E1" d="M572.7,383.39v4.404H553.23v-4.404c0-2.18,0.781-4.053,2.346-5.613c1.563-1.563,3.437-2.346,5.611-2.346
			h3.555c2.229,0,4.101,0.779,5.613,2.346C571.919,379.338,572.7,381.211,572.7,383.39z"/>
		<path fill="#ECE5E1" d="M533.833,375.431c2.178,0.049,4.051,0.854,5.61,2.416c1.519,1.516,2.273,3.363,2.273,5.543v4.404h-7.959
			v-11.652L533.833,375.431z"/>
		<path fill="#D9D1BD" d="M545.628,370.314v-1.42c0-0.994,0.354-1.848,1.063-2.559c0.711-0.761,1.586-1.14,2.629-1.14h3.908
			c0.994,0,1.871,0.379,2.631,1.14c0.709,0.711,1.063,1.563,1.063,2.559v1.42H545.628z"/>
		<rect x="533.761" y="383.674" fill="#D9D1BD" width="38.938" height="4.121"/>
		
			<line fill="none" stroke="#040406" stroke-width="1.35" stroke-linecap="round" x1="551.24" y1="371.379" x2="556.784" y2="371.379"/>
		
			<line fill="none" stroke="#040406" stroke-width="1.35" stroke-linecap="round" x1="553.232" y1="374.435" x2="558.775" y2="374.435"/>
		
			<line fill="none" stroke="#040406" stroke-width="1.35" stroke-linecap="round" x1="594.019" y1="371.379" x2="599.56" y2="371.379"/>
		
			<line fill="none" stroke="#040406" stroke-width="1.35" stroke-linecap="round" x1="596.007" y1="374.435" x2="601.552" y2="374.435"/>
	</g>
</g>
<g>
	<path fill="#3B2518" d="M108.812,82.294c-2.116-0.17-3.871-1.082-5.253-2.709c-1.386-1.638-1.992-3.513-1.813-5.64l2.296-27.782
		l20.648,1.708l-2.934,35.492L108.812,82.294z"/>
	<g>
		<path fill="#EC7169" d="M106.953,118.048c-1.425-1.403-2.12-3.104-2.088-5.086c0.026-1.975,0.727-3.678,2.091-5.104
			c1.41-1.423,3.076-2.118,5.012-2.09l6.372,2.172c5.049,1.445,9.515,2.104,13.386,1.971c3.875-0.093,7.94-1.019,12.202-2.775
			c2.134-0.905,3.859-1.788,5.188-2.647l1.011,14.358c-1.509,0.752-3.4,1.535-5.666,2.335c-4.627,1.594-8.922,2.458-12.896,2.591
			c-3.971,0.127-8.413-0.439-13.334-1.688l-6.248-1.879C110.003,120.169,108.328,119.454,106.953,118.048z"/>
	</g>
	<path fill="#3B2518" d="M73.64,69.421c-1.271-2.95-1.957-5.859-2.054-8.712c-0.148-3.434,0.604-6.24,2.259-8.432
		c1.494,3.211,4.138,6.516,7.94,9.911c3.709,3.296,7.227,5.561,10.548,6.783l1.657,9.249c-3.15,0.167-6.072-0.048-8.777-0.651
		c-2.938-0.669-5.235-1.521-6.905-2.56C76.232,73.694,74.674,71.837,73.64,69.421z"/>
	<path fill="#EC7169" d="M112.402,119.235l2.021,8.127c0.844,3.356,0.604,6.627-0.699,9.809c-1.229,3.118-3.188,5.568-5.879,7.366
		l-1.826,9.939l-2.743,33.187l-42.626-8.006l-1.578-77.276l28.885-10.288l26.803,14.887L112.402,119.235z"/>
	<g>
		<path fill="#F9AD8E" d="M80.954,72.478c0.11-1.937,0.885-3.535,2.313-4.792c1.438-1.26,3.104-1.854,4.99-1.794
			c1.936,0.11,3.534,0.887,4.794,2.32c1.254,1.434,1.851,3.092,1.792,4.988l-1.142,23.246c-0.11,1.888-0.884,3.49-2.32,4.792
			c-1.39,1.307-3.049,1.901-4.986,1.791c-1.895-0.058-3.492-0.808-4.8-2.242c-1.301-1.437-1.9-3.123-1.782-5.062L80.954,72.478z"/>
	</g>
	<path fill="#F9AD8E" d="M120.98,35.098c1.321,3.476,1.82,7.226,1.488,11.229l-0.689,9.196c-0.54,6.604-0.962,11.073-1.248,13.433
		c-0.813,5.813-2.344,10.244-4.587,13.287c-2.09,2.863-5.341,5.133-9.75,6.814c-8.724-0.727-16.105-4.089-22.159-10.092
		c-5.837-5.8-8.454-11.975-7.871-18.521l1.563-18.026c0.327-3.965,1.573-7.536,3.733-10.726L120.98,35.098z"/>
	<path fill="#3B2518" d="M116.994,28.149c6.208,2.982,9.729,6.545,10.573,10.7c0.491,2.698,0.328,5.248-0.485,7.653
		c-0.931,2.626-2.58,4.791-4.948,6.49c-0.688-3.187-2.421-6.679-5.19-10.468c-2.687-3.688-5.429-6.404-8.223-8.152l0.417-8.583
		C111.907,26.165,114.526,26.948,116.994,28.149z"/>
	<path fill="#5B351F" d="M68.254,43.209c0.564-5.694,2.917-10.532,7.04-14.518c4.075-3.935,8.984-6.232,14.734-6.896
		c4.694-0.517,9.614-0.011,14.758,1.505c3.805,1.069,8.42,2.969,13.841,5.697c-0.984,1.585-2.505,3.875-4.557,6.889
		c-3.033,4.592-7.046,8.576-12.022,11.964c-4.82,3.21-10.147,5.615-15.973,7.226l-0.292,2.68c-0.097,1.128-0.552,2.063-1.37,2.804
		c-0.862,0.687-1.843,0.988-2.929,0.896l-6.57-0.544L70.15,56.53C68.634,50.143,68.007,45.7,68.254,43.209z"/>
	<path fill="#1D193D" d="M106.156,59.235c-0.409,0.396-0.896,0.573-1.467,0.529c-0.563-0.054-1.042-0.313-1.429-0.768
		c-0.345-0.402-0.5-0.918-0.445-1.534c0.045-0.564,0.271-1.021,0.685-1.365c0.46-0.391,0.968-0.563,1.536-0.52
		c0.564,0.05,1.021,0.302,1.361,0.758c0.39,0.415,0.568,0.901,0.521,1.47C106.863,58.416,106.611,58.895,106.156,59.235z"/>
	<path fill="#1D193D" d="M119.572,61.94c-0.405,0.396-0.897,0.571-1.467,0.525c-0.56-0.046-1.04-0.304-1.431-0.761
		c-0.34-0.408-0.495-0.917-0.44-1.528c0.045-0.568,0.277-1.025,0.685-1.369c0.458-0.389,0.972-0.567,1.537-0.519
		c0.563,0.048,1.021,0.301,1.36,0.758c0.394,0.413,0.568,0.901,0.521,1.469C120.279,61.12,120.032,61.601,119.572,61.94z"/>
	<path fill="#F9AD8E" d="M80.2,54.656c1.162,1.38,1.678,2.97,1.522,4.762l-0.527,6.433l-6.434-0.533
		c-1.793-0.147-3.252-0.91-4.37-2.275c-1.174-1.331-1.682-2.898-1.535-4.688c0.145-1.793,0.91-3.272,2.286-4.441
		c1.331-1.167,2.896-1.686,4.688-1.527C77.624,52.521,79.081,53.285,80.2,54.656z"/>
	<path fill="#FBB326" d="M104.347,174.727l1.939,29.208c0.062,5.016-1.654,9.315-5.157,12.914
		c-3.456,3.594-7.692,5.422-12.706,5.487l-19.865,0.252c-6.667,0.086-10.96-0.471-12.866-1.68
		c-3.626-2.272-5.473-7.688-5.526-16.248c-0.062-8.039,1.671-15.327,5.179-21.854l5.3-7.445L104.347,174.727z"/>
	<path fill="#5B351F" d="M88.908,44.909l-2.936,35.502l-12.94-1.072c-2.118-0.175-3.872-1.077-5.261-2.71
		c-1.384-1.635-1.986-3.512-1.81-5.633l2.29-27.793L88.908,44.909z"/>
	<g>
		<path fill="#EC7169" d="M70.925,104.621c0.43,1.616,0.401,3.417-0.118,5.383c-0.179,0.737-0.439,1.419-0.785,2.062l-0.609,0.774
			l-0.794,0.644l-1.281,0.786c-1.066,0.71-2.152,1.583-3.271,2.626c-2.763,2.355-5.896,5.838-9.41,10.438
			c-2.436,3.059-5.349,7.103-8.74,12.138l-3.943,5.756l-11.987-8.022l3.968-5.826c2.808-4.275,5.902-8.588,9.286-12.937
			c3.716-4.931,7.445-9.066,11.208-12.412c1.5-1.313,3.066-2.53,4.699-3.661l2.044-1.29l1.481-0.729
			c0.39-0.125,0.938-0.229,1.66-0.302c1.114-0.102,2.145,0.021,3.083,0.36C69.266,101.135,70.433,102.538,70.925,104.621z"/>
	</g>
	<g>
		<path fill="#F8A687" d="M72.162,380.357C72.527,379.823,73.446,380.84,72.162,380.357c-1.602-0.604-0.414-2.092-1.093-1.977
			c-2.141-3.949-4.598-9.095-5.68-13.563c-2.245-9.162,3.256-42.396,4.104-48.322c0.435-3.002,1.789-21.793,3.067-35.908
			c0.121-0.625,0.197-1.271,0.197-1.938c0-4.963-3.699-8.978-8.261-8.978c-4.567,0-8.267,4.015-8.267,8.978
			c0,0.576,0.057,1.143,0.15,1.688l-0.284,0.021c0.332,3.944-0.044,7.625-0.653,8.981c-2.502,5.556-5.296,16.708-4.472,29.021
			l3.653,38.023c-0.038,0.021-0.059,0.049-0.083,0.071c-0.507,0.589-1.083,0.613-0.896,2.281l-1.481,3.576l3.619,4.666
			c1.554,7.313,1.67,17.479,10.902,16.545l0.104,0.16l4.461,1.373l2.148-0.326l1.476,0.135
			C74.878,384.865,73.708,383.066,72.162,380.357z"/>
		<path fill="#723A21" d="M78.397,383.176c-2.345-2.035-7.116-4.461-7.116-4.461s-5.005,6.338-9.521,0.588
			c-4.41-5.607-2.366-11.592-6.23-17.892c-2.1-3.436-0.957-4.829-0.907-5.303c-1.921,0.729-5.521,3.021-3.889,9.752l0.198,0.34
			l1.022,18.396h1.389l0.475-13.992c0.755,0.541,2.313,2.459,3.404,9.324c0.979,6.17,5.735,6.492,5.735,6.492
			s11.383,0.547,15.192-0.814C78.152,385.605,80.749,385.201,78.397,383.176z"/>
	</g>
	<g>
		<path fill="#F8A687" d="M111.187,378.652c-0.184-0.164-0.354-0.338-0.453-0.547c-0.186-0.381-0.021-0.873-0.227-1.229
			c-1.117-1.955-2.677-3.857-3.799-5.933c-1.288-2.381-2.481-4.848-3.319-7.447c-2.945-8.979-0.004-42.495,0.39-48.455
			c0.203-3.022,0.121-21.856,0.313-36.006c0.073-0.63,0.103-1.277,0.054-1.947c-0.383-4.938-4.377-8.694-8.938-8.385
			c-4.556,0.31-7.938,4.572-7.558,9.519c0.051,0.569,0.142,1.137,0.276,1.678l-0.277,0.031c0.637,3.907,0.539,7.604,0.032,9
			c-2.063,5.709-4.001,17.016-2.23,29.232l7.729,34.077l-1.184,3.586c-0.027,0.021-0.058,0.041-0.075,0.074
			c-0.463,0.623-1.037,0.685-0.713,2.328l-1.216,3.664l3.974,4.414c2.1,7.184,3.006,17.311,12.139,15.742l0.115,0.164l4.559,1.053
			l2.12-0.471l1.481,0.033c-0.605-0.021-1.452-1.677-1.739-2.132c-0.302-0.465-0.548-1.018-0.872-1.467
			C111.618,379.017,111.394,378.842,111.187,378.652z"/>
		<path fill="#723A21" d="M117.767,380.908c-2.501-1.864-7.445-3.971-7.445-3.971s-4.508,6.666-9.459,1.242
			c-4.822-5.283-3.25-11.396-7.577-17.41c-2.367-3.273-1.328-4.752-1.322-5.227c-1.858,0.86-5.276,3.391-3.129,9.981l0.227,0.336
			l2.425,18.271l1.39-0.105l-0.589-13.971c0.776,0.488,2.481,2.285,4.103,9.061c1.45,6.08,6.22,6.07,6.22,6.07
			s11.404-0.221,15.104-1.844C117.707,383.344,120.262,382.763,117.767,380.908z"/>
	</g>
	<polygon fill="#FBB326" points="112.76,293.517 48.457,293.517 51.328,198.66 105.631,200.556 	"/>
	<g>
		<path fill="#F8A687" d="M25.977,182.484c0,0,0.192,7.075-2.481,11.514c0,0-0.655,2.592-0.425,4.332c0,0-3.258-1.521-2.442-4.567
			c0,0,1.999-2.927-0.361-5.974c0,0-1.291-3.809-0.167-6.412c1.12-2.61,2.79-3.079,3.958-2.951
			C24.057,178.426,25.973,180.346,25.977,182.484z"/>
		<g>
			<path fill="#F8A687" d="M16.987,192.942c0.702-0.749,0.771-1.873,0.146-2.508l0,0c-0.623-0.629-1.697-0.54-2.407,0.21
				l-5.514,5.88c-0.708,0.753-0.771,1.874-0.147,2.507l0,0c0.626,0.636,1.696,0.537,2.399-0.206L16.987,192.942z"/>
			<path fill="#F8A687" d="M15.125,189.148c0.784-0.833,0.913-2.021,0.286-2.656l0,0c-0.622-0.636-1.761-0.475-2.546,0.364
				l-6.144,6.542c-0.785,0.833-0.911,2.029-0.292,2.662l0,0c0.626,0.63,1.764,0.473,2.545-0.363L15.125,189.148z"/>
			<path fill="#F8A687" d="M13.257,185.993c0.6-0.646,0.586-1.683-0.029-2.316l0,0c-0.626-0.639-1.624-0.624-2.233,0.025
				l-4.77,5.076c-0.604,0.652-0.593,1.688,0.03,2.32l0,0c0.624,0.636,1.621,0.625,2.229-0.021L13.257,185.993z"/>
			<path fill="#F8A687" d="M12.671,181.74c0.503-0.536,0.399-1.479-0.227-2.115l0,0c-0.625-0.64-1.533-0.716-2.035-0.184
				l-3.926,4.187c-0.501,0.535-0.398,1.478,0.226,2.115l0,0c0.62,0.633,1.529,0.714,2.029,0.184L12.671,181.74z"/>
		</g>
		<path fill="#F8A687" d="M25.977,182.484c0,0,0.021-3.893,0.15-6.487c0.053-1.024,0.981-6.135,1.376-8.038l-0.018-0.006
			c2.169-2.887,9.378-13.379,13.76-20.314c0.421-0.376,0.802-0.816,1.13-1.316c2.155-3.317,1.107-8.129-2.342-10.743
			c-3.446-2.621-7.995-2.059-10.155,1.259c-0.501,0.772-0.824,1.628-0.992,2.514c-3.069,6.858-7.282,20.253-8.819,25.234
			l-0.015-0.01c-0.068,0.243-3.262,7.029-3.262,7.029s0,0-1.39,1.804c-1.383,1.805-4.811,4.908-5.31,6.841
			c-0.494,1.938,5.243,13.984,5.243,13.984C19.667,191.922,25.977,182.484,25.977,182.484z"/>
	</g>
	<g>
		<path fill="#F8A687" d="M189.065,97.243c0,0,5.562-4.124,10.925-4.574c0,0,2.524-0.952,3.768-2.106c0,0,0.965,3.354-2.03,4.438
			c0,0-3.698,0.115-4.562,3.641c0,0-2.193,3.13-5.041,3.734c-2.854,0.604-4.354-0.41-5.031-1.379
			C187.092,100.994,187.351,98.451,189.065,97.243z"/>
		<g>
			<path fill="#F8A687" d="M203.509,98.25c-1.073-0.113-2.021,0.463-2.108,1.294l0,0c-0.089,0.837,0.706,1.606,1.782,1.729
				l8.437,0.916c1.076,0.124,2.02-0.463,2.111-1.291l0,0c0.091-0.84-0.705-1.604-1.775-1.724L203.509,98.25z"/>
			<path fill="#F8A687" d="M201.713,101.809c-1.195-0.131-2.24,0.438-2.329,1.273l0,0c-0.091,0.832,0.803,1.613,2.003,1.75
				l9.391,1.022c1.194,0.129,2.24-0.438,2.331-1.275l0,0c0.087-0.831-0.802-1.611-1.999-1.744L201.713,101.809z"/>
			<path fill="#F8A687" d="M200.432,105.013c-0.925-0.1-1.748,0.499-1.843,1.328l0,0c-0.091,0.838,0.591,1.592,1.52,1.695
				l7.285,0.797c0.935,0.1,1.755-0.497,1.85-1.329l0,0c0.091-0.835-0.589-1.591-1.519-1.694L200.432,105.013z"/>
			<path fill="#F8A687" d="M197.403,107.858c-0.767-0.087-1.456,0.521-1.55,1.356l0,0c-0.089,0.835,0.456,1.578,1.225,1.663
				l6.002,0.652c0.768,0.082,1.461-0.524,1.55-1.358l0,0c0.09-0.832-0.454-1.576-1.218-1.659L197.403,107.858z"/>
		</g>
		<path fill="#F8A687" d="M189.065,97.243c0,0-3.142,2.176-5.318,3.533c-0.856,0.535-5.59,2.695-7.39,3.466l0.004,0.019
			c-3.771-0.038-17.05,0.339-25.567,0.885c-0.585-0.115-1.197-0.159-1.82-0.125c-4.116,0.211-7.278,3.719-7.063,7.834
			c0.209,4.112,3.718,7.281,7.834,7.069c0.959-0.049,1.857-0.282,2.688-0.655c7.569-1.506,21.172-5.81,26.206-7.433l0.004,0.015
			c0.24-0.083,7.841-1.449,7.841-1.449s0,0,2.39,0.046c2.378,0.047,7.179,0.931,9.063,0.223c1.886-0.712,7.722-11.88,7.722-11.88
			C200.892,96.769,189.065,97.243,189.065,97.243z"/>
	</g>
	<path fill="#F79871" d="M113.202,70.213c0,1.192,1.443,2.168,3.224,2.168c1.785,0,3.225-0.976,3.225-2.168
		c0-1.191-1.438-2.161-3.225-2.161C114.648,68.052,113.202,69.021,113.202,70.213z"/>
	<path fill="#F79871" d="M97.227,63.099c-0.663,0.994,0.26,2.778,2.062,3.979c1.803,1.201,3.81,1.369,4.473,0.377
		c0.662-0.992-0.267-2.775-2.071-3.979C99.889,62.275,97.889,62.107,97.227,63.099z"/>
	<circle fill="#F5F6F6" cx="106.853" cy="78.309" r="3.75"/>
</g>
<g>
	<rect x="212.368" y="78.48" fill="none" width="238.913" height="141.529"/>
	<path d="M276.172,87.649c0,1.434-0.17,2.669-0.507,3.711c-0.338,1.042-0.794,1.901-1.366,2.582
		c-0.574,0.68-1.245,1.185-2.016,1.515c-0.77,0.329-1.581,0.493-2.436,0.493c-1.024,0-1.918-0.186-2.68-0.556
		c-0.761-0.37-1.392-0.905-1.893-1.604c-0.5-0.7-0.873-1.553-1.117-2.558s-0.366-2.139-0.366-3.399c0-1.416,0.167-2.646,0.5-3.688
		s0.787-1.901,1.361-2.582c0.572-0.681,1.242-1.186,2.008-1.515c0.766-0.33,1.575-0.495,2.43-0.495c1.024,0,1.918,0.188,2.679,0.563
		c0.762,0.375,1.395,0.91,1.897,1.604c0.505,0.696,0.882,1.544,1.13,2.545C276.048,85.268,276.172,86.396,276.172,87.649z
		 M273.914,87.806c0-0.936-0.07-1.792-0.214-2.569c-0.143-0.776-0.372-1.445-0.688-2.008s-0.728-0.997-1.228-1.307
		c-0.501-0.31-1.104-0.464-1.813-0.464c-0.685,0-1.271,0.165-1.765,0.495c-0.491,0.328-0.896,0.776-1.214,1.343
		c-0.316,0.564-0.555,1.229-0.708,1.989c-0.154,0.761-0.231,1.568-0.231,2.423c0,0.943,0.072,1.805,0.221,2.582
		c0.146,0.776,0.376,1.444,0.688,2.002c0.313,0.559,0.718,0.99,1.215,1.3c0.496,0.311,1.094,0.464,1.794,0.464
		c0.685,0,1.272-0.164,1.771-0.494c0.496-0.329,0.904-0.776,1.228-1.344c0.321-0.564,0.561-1.228,0.714-1.982
		C273.836,89.48,273.914,88.671,273.914,87.806z"/>
	<path d="M288.648,95.73h-2.123V85.331h-5.604V95.73h-2.124V83.473h9.852L288.648,95.73L288.648,95.73z"/>
	<path d="M303.015,89.383c0,1.091-0.151,2.043-0.458,2.855c-0.306,0.813-0.727,1.489-1.264,2.025
		c-0.536,0.537-1.172,0.94-1.903,1.208c-0.731,0.269-1.525,0.403-2.38,0.403c-0.392,0-0.779-0.021-1.166-0.062
		c-0.387-0.041-0.779-0.109-1.179-0.208v5.127h-2.124v-17.26h1.893l0.135,2.053c0.609-0.838,1.261-1.427,1.952-1.765
		s1.439-0.507,2.246-0.507c0.7,0,1.313,0.146,1.844,0.438c0.529,0.293,0.972,0.706,1.331,1.238c0.357,0.533,0.626,1.177,0.806,1.93
		S303.015,88.455,303.015,89.383z M300.843,89.48c0-0.644-0.047-1.232-0.142-1.771c-0.093-0.537-0.242-0.997-0.444-1.379
		c-0.204-0.383-0.465-0.683-0.781-0.896c-0.316-0.216-0.695-0.323-1.135-0.323c-0.27,0-0.542,0.043-0.818,0.128
		c-0.276,0.086-0.563,0.229-0.859,0.429c-0.297,0.198-0.609,0.464-0.939,0.793c-0.329,0.33-0.683,0.738-1.057,1.228v5.944
		c0.392,0.163,0.802,0.291,1.233,0.386c0.431,0.093,0.854,0.14,1.27,0.14c1.147,0,2.047-0.389,2.698-1.166
		C300.517,92.213,300.843,91.043,300.843,89.48z"/>
	<path d="M316.64,88.956c0,0.301-0.006,0.554-0.014,0.757c-0.008,0.204-0.021,0.396-0.037,0.574h-8.604
		c0,1.253,0.35,2.216,1.05,2.887c0.7,0.672,1.709,1.007,3.027,1.007c0.356,0,0.716-0.014,1.072-0.042
		c0.358-0.028,0.704-0.066,1.038-0.115c0.333-0.05,0.653-0.104,0.958-0.165c0.308-0.062,0.589-0.128,0.851-0.201v1.746
		c-0.578,0.163-1.231,0.295-1.959,0.396c-0.729,0.103-1.483,0.152-2.267,0.152c-1.05,0-1.953-0.144-2.71-0.428
		s-1.377-0.697-1.86-1.238c-0.483-0.542-0.843-1.205-1.073-1.99c-0.231-0.785-0.349-1.674-0.349-2.667
		c0-0.861,0.124-1.68,0.373-2.447c0.248-0.77,0.609-1.444,1.086-2.025c0.478-0.582,1.061-1.044,1.753-1.386
		c0.689-0.343,1.477-0.514,2.354-0.514c0.854,0,1.611,0.134,2.271,0.403c0.658,0.269,1.214,0.648,1.667,1.141
		c0.449,0.493,0.793,1.092,1.023,1.795C316.523,87.297,316.64,88.085,316.64,88.956z M314.428,88.65
		c0.024-0.545-0.027-1.044-0.157-1.495c-0.131-0.451-0.332-0.84-0.604-1.166c-0.271-0.324-0.612-0.58-1.019-0.763
		c-0.407-0.185-0.879-0.274-1.416-0.274c-0.464,0-0.889,0.09-1.271,0.269c-0.383,0.18-0.712,0.433-0.988,0.758
		s-0.5,0.716-0.672,1.172c-0.171,0.456-0.275,0.957-0.315,1.501L314.428,88.65L314.428,88.65z"/>
	<path d="M331.409,93.899l-0.134,4.956h-1.941V95.73h-8.936v3.125h-1.917l-0.122-4.956h0.171c0.309,0,0.602-0.049,0.879-0.146
		c0.276-0.099,0.533-0.283,0.769-0.557c0.236-0.271,0.454-0.65,0.653-1.135c0.199-0.483,0.378-1.11,0.537-1.881
		c0.158-0.77,0.297-1.702,0.415-2.802s0.217-2.399,0.299-3.906h7.568v10.426H331.409z M327.528,85.305h-3.418
		c-0.082,1.4-0.188,2.593-0.317,3.577c-0.13,0.984-0.283,1.812-0.458,2.479s-0.376,1.201-0.604,1.6
		c-0.229,0.398-0.48,0.712-0.757,0.939h5.554V85.305z"/>
	<path d="M344.128,88.956c0,0.301-0.004,0.554-0.013,0.757c-0.008,0.204-0.021,0.396-0.036,0.574h-8.605
		c0,1.253,0.351,2.216,1.051,2.887c0.699,0.672,1.709,1.007,3.026,1.007c0.357,0,0.718-0.014,1.074-0.042
		c0.357-0.028,0.703-0.066,1.037-0.115c0.334-0.05,0.653-0.104,0.958-0.165c0.306-0.062,0.588-0.128,0.849-0.201v1.746
		c-0.576,0.163-1.229,0.295-1.959,0.396c-0.729,0.103-1.481,0.152-2.265,0.152c-1.05,0-1.953-0.144-2.71-0.428
		s-1.377-0.697-1.861-1.238c-0.482-0.542-0.843-1.205-1.072-1.99c-0.232-0.785-0.35-1.674-0.35-2.667
		c0-0.861,0.124-1.68,0.373-2.447c0.248-0.77,0.61-1.444,1.086-2.025c0.479-0.582,1.062-1.044,1.752-1.386
		c0.691-0.343,1.479-0.514,2.356-0.514c0.854,0,1.611,0.134,2.27,0.403c0.66,0.269,1.216,0.648,1.667,1.141
		c0.451,0.493,0.793,1.092,1.025,1.795C344.013,87.297,344.128,88.085,344.128,88.956z M341.919,88.65
		c0.025-0.545-0.026-1.044-0.158-1.495c-0.13-0.451-0.332-0.84-0.604-1.166c-0.272-0.324-0.612-0.58-1.02-0.763
		c-0.406-0.185-0.88-0.274-1.416-0.274c-0.466,0-0.889,0.09-1.271,0.269c-0.383,0.18-0.712,0.433-0.989,0.758
		c-0.275,0.325-0.5,0.716-0.671,1.172s-0.275,0.957-0.315,1.501L341.919,88.65L341.919,88.65z"/>
	<path d="M357.265,95.73h-2.125V85.305h-3.418c-0.099,1.678-0.241,3.113-0.435,4.31c-0.19,1.196-0.421,2.195-0.688,2.997
		c-0.271,0.803-0.574,1.434-0.916,1.894c-0.344,0.459-0.71,0.793-1.104,1.001c-0.395,0.207-0.812,0.31-1.251,0.306
		c-0.438-0.005-0.891-0.063-1.354-0.178l0.098-1.758c0.326,0.032,0.631,0.018,0.916-0.049c0.285-0.065,0.549-0.223,0.793-0.471
		c0.244-0.249,0.466-0.605,0.666-1.074c0.199-0.468,0.38-1.093,0.543-1.874c0.163-0.78,0.303-1.738,0.421-2.875
		c0.118-1.135,0.214-2.487,0.287-4.06h7.566V95.73L357.265,95.73z"/>
	<path d="M363.563,83.473v8.631l5.347-8.631h2.026V95.73h-2.124V87.1l-5.349,8.63h-2.024V83.473H363.563z"/>
	<path d="M384.753,95.73h-2.124V85.305h-3.418c-0.098,1.678-0.242,3.113-0.434,4.31c-0.192,1.196-0.421,2.195-0.689,2.997
		c-0.268,0.803-0.572,1.434-0.916,1.894c-0.342,0.459-0.71,0.793-1.104,1.001c-0.396,0.207-0.813,0.31-1.251,0.306
		c-0.439-0.005-0.893-0.063-1.355-0.178l0.1-1.758c0.326,0.032,0.631,0.018,0.916-0.049c0.285-0.065,0.549-0.223,0.793-0.471
		c0.244-0.249,0.466-0.605,0.666-1.074c0.197-0.468,0.38-1.093,0.543-1.874c0.163-0.78,0.303-1.738,0.421-2.875
		c0.118-1.135,0.214-2.487,0.287-4.06h7.566L384.753,95.73L384.753,95.73z"/>
	<path d="M391.052,83.473v8.631l5.349-8.631h2.024V95.73h-2.124V87.1l-5.347,8.63h-2.026V83.473H391.052z"/>
	<path d="M282.948,125.73h-2.917l-5.713-6.566v6.566h-2.124v-12.257h2.124v5.604l5.505-5.604h2.809l-5.75,5.652L282.948,125.73z"/>
	<path d="M296.142,119.383c0,1.091-0.151,2.043-0.458,2.855c-0.305,0.813-0.727,1.489-1.263,2.025
		c-0.537,0.537-1.173,0.94-1.904,1.208c-0.731,0.269-1.525,0.403-2.38,0.403c-0.392,0-0.778-0.021-1.166-0.062
		c-0.387-0.041-0.778-0.109-1.179-0.208v5.127h-2.124v-17.26h1.893l0.135,2.053c0.609-0.838,1.261-1.427,1.952-1.765
		s1.44-0.507,2.246-0.507c0.7,0,1.313,0.146,1.844,0.438c0.529,0.293,0.972,0.706,1.331,1.238c0.357,0.533,0.626,1.177,0.806,1.93
		S296.142,118.455,296.142,119.383z M293.97,119.48c0-0.644-0.047-1.232-0.142-1.771c-0.093-0.537-0.242-0.997-0.444-1.379
		c-0.204-0.383-0.465-0.683-0.781-0.896c-0.316-0.216-0.695-0.323-1.135-0.323c-0.27,0-0.542,0.043-0.817,0.128
		c-0.277,0.086-0.563,0.229-0.86,0.429c-0.297,0.198-0.609,0.464-0.939,0.793c-0.329,0.33-0.683,0.738-1.057,1.228v5.944
		c0.392,0.163,0.802,0.291,1.233,0.386c0.431,0.093,0.854,0.14,1.271,0.14c1.146,0,2.046-0.389,2.697-1.166
		C293.644,122.213,293.97,121.043,293.97,119.48z"/>
	<path d="M301.709,113.473v8.631l5.348-8.631h2.025v12.257h-2.124v-8.63l-5.347,8.63h-2.026v-12.257H301.709z"/>
	<path d="M323.803,115.305h-4.649v10.426h-2.148v-10.426h-4.649v-1.831h11.448L323.803,115.305L323.803,115.305z"/>
	<path d="M329.199,113.473v8.631l5.347-8.631h2.026v12.257h-2.124v-8.63l-5.347,8.63h-2.026v-12.257H329.199z"/>
	<path d="M348.376,120.981h-2.524c-1.896,0-3.288-0.354-4.177-1.063c-0.887-0.708-1.33-1.737-1.33-3.088v-3.357h2.148v3.076
		c0,0.488,0.064,0.898,0.195,1.232c0.13,0.334,0.339,0.604,0.628,0.813c0.289,0.207,0.659,0.355,1.109,0.445
		c0.451,0.09,0.999,0.134,1.644,0.134h2.307v-5.701h2.125v12.257h-2.125V120.981L348.376,120.981z"/>
	<path d="M364.245,125.73h-2.123v-5.42h-5.604v5.42h-2.124v-12.257h2.124v4.98h5.604v-4.98h2.123V125.73z"/>
	<path d="M369.287,118.211c0.293-0.008,0.567-0.015,0.824-0.02c0.256-0.004,0.521-0.006,0.8-0.006c0.765,0,1.434,0.092,2.008,0.273
		c0.573,0.185,1.053,0.438,1.436,0.771c0.383,0.329,0.668,0.725,0.854,1.185c0.188,0.46,0.28,0.958,0.28,1.496
		c0,0.65-0.11,1.223-0.329,1.715c-0.221,0.491-0.533,0.904-0.94,1.238c-0.405,0.334-0.903,0.586-1.495,0.758
		c-0.591,0.171-1.29,0.256-2.104,0.256c-0.521,0-1.073-0.015-1.654-0.043c-0.582-0.028-1.174-0.087-1.774-0.178v-12.183h2.1v4.736
		L369.287,118.211L369.287,118.211z M373.291,121.97c0-0.643-0.201-1.142-0.604-1.494c-0.402-0.354-1.043-0.531-1.923-0.531
		c-0.235,0-0.478,0.004-0.722,0.013c-0.244,0.008-0.496,0.021-0.757,0.037v4.027c0.261,0.041,0.509,0.066,0.745,0.079
		c0.235,0.013,0.472,0.02,0.707,0.02c0.497,0,0.908-0.06,1.231-0.178c0.325-0.118,0.584-0.274,0.775-0.471
		c0.19-0.194,0.329-0.423,0.415-0.684C373.246,122.527,373.291,122.256,373.291,121.97z M376.831,125.73v-12.257h2.1v12.257H376.831
		z"/>
	<path d="M392.237,118.956c0,0.301-0.004,0.554-0.013,0.757c-0.01,0.204-0.021,0.396-0.036,0.574h-8.606
		c0,1.253,0.353,2.216,1.051,2.887c0.699,0.672,1.709,1.007,3.027,1.007c0.357,0,0.716-0.014,1.074-0.042
		c0.355-0.028,0.703-0.066,1.037-0.115c0.334-0.05,0.651-0.104,0.958-0.165c0.306-0.062,0.588-0.128,0.849-0.201v1.746
		c-0.578,0.163-1.23,0.295-1.959,0.396c-0.729,0.103-1.483,0.152-2.265,0.152c-1.052,0-1.953-0.144-2.71-0.428
		c-0.759-0.284-1.379-0.697-1.861-1.238c-0.484-0.542-0.843-1.205-1.074-1.99c-0.23-0.785-0.348-1.674-0.348-2.667
		c0-0.861,0.123-1.68,0.372-2.447c0.248-0.77,0.608-1.444,1.086-2.025c0.477-0.582,1.061-1.044,1.752-1.386
		c0.689-0.343,1.478-0.514,2.354-0.514c0.854,0,1.611,0.134,2.271,0.403c0.66,0.269,1.215,0.648,1.667,1.141
		c0.451,0.493,0.793,1.092,1.024,1.795C392.12,117.297,392.237,118.085,392.237,118.956z M390.027,118.65
		c0.023-0.545-0.028-1.044-0.158-1.495s-0.332-0.84-0.604-1.166c-0.272-0.324-0.612-0.58-1.021-0.763
		c-0.407-0.185-0.879-0.274-1.416-0.274c-0.465,0-0.888,0.09-1.27,0.269c-0.385,0.18-0.714,0.433-0.989,0.758
		c-0.276,0.325-0.501,0.716-0.671,1.172c-0.172,0.456-0.277,0.957-0.318,1.501L390.027,118.65L390.027,118.65z"/>
	<path d="M281.776,155.73h-2.124v-10.399h-5.604v10.399h-2.124v-12.257h9.852V155.73L281.776,155.73z"/>
	<path d="M296.142,149.383c0,1.091-0.151,2.043-0.458,2.855c-0.305,0.813-0.727,1.489-1.263,2.025
		c-0.537,0.537-1.173,0.94-1.904,1.208c-0.731,0.269-1.525,0.403-2.38,0.403c-0.392,0-0.778-0.021-1.166-0.062
		c-0.387-0.041-0.778-0.109-1.179-0.208v5.127h-2.124V143.47h1.893l0.135,2.052c0.609-0.838,1.261-1.427,1.953-1.765
		c0.69-0.338,1.439-0.507,2.245-0.507c0.7,0,1.313,0.146,1.844,0.438c0.529,0.293,0.972,0.706,1.331,1.238
		c0.357,0.533,0.626,1.177,0.806,1.93C296.053,147.614,296.142,148.455,296.142,149.383z M293.97,149.48
		c0-0.644-0.047-1.232-0.142-1.771c-0.093-0.537-0.242-0.997-0.444-1.379c-0.204-0.383-0.465-0.683-0.781-0.896
		c-0.316-0.216-0.695-0.323-1.135-0.323c-0.27,0-0.542,0.043-0.817,0.128c-0.277,0.086-0.563,0.229-0.86,0.429
		c-0.297,0.198-0.609,0.464-0.939,0.793c-0.329,0.33-0.683,0.738-1.057,1.228v5.944c0.392,0.163,0.802,0.291,1.233,0.386
		c0.431,0.093,0.854,0.14,1.271,0.14c1.146,0,2.046-0.389,2.697-1.166C293.644,152.213,293.97,151.043,293.97,149.48z"/>
	<path d="M310.083,149.505c0,0.952-0.134,1.825-0.402,2.618c-0.27,0.794-0.654,1.473-1.159,2.039
		c-0.507,0.564-1.119,1.005-1.844,1.317c-0.726,0.313-1.546,0.47-2.467,0.47c-0.879,0-1.667-0.136-2.361-0.408
		c-0.695-0.271-1.286-0.674-1.771-1.202c-0.483-0.528-0.854-1.185-1.109-1.965c-0.258-0.781-0.386-1.681-0.386-2.698
		c0-0.952,0.135-1.82,0.403-2.605c0.27-0.784,0.654-1.46,1.159-2.025c0.505-0.564,1.119-1.005,1.844-1.317s1.546-0.471,2.466-0.471
		c0.879,0,1.667,0.137,2.362,0.409c0.694,0.271,1.286,0.671,1.771,1.195c0.484,0.523,0.854,1.179,1.11,1.959
		S310.083,148.496,310.083,149.505z M307.91,149.602c0-0.758-0.083-1.418-0.25-1.982c-0.167-0.566-0.405-1.038-0.714-1.416
		c-0.311-0.38-0.687-0.664-1.129-0.854c-0.443-0.189-0.938-0.286-1.483-0.286c-0.635,0-1.178,0.124-1.629,0.372
		c-0.452,0.249-0.821,0.579-1.11,0.994s-0.5,0.897-0.636,1.446c-0.134,0.55-0.2,1.125-0.2,1.729c0,0.757,0.083,1.42,0.25,1.989
		c0.167,0.57,0.404,1.043,0.714,1.422s0.685,0.663,1.123,0.854c0.438,0.19,0.937,0.286,1.488,0.286c0.636,0,1.179-0.124,1.63-0.373
		c0.451-0.247,0.821-0.579,1.11-0.994s0.5-0.896,0.635-1.447C307.842,150.793,307.91,150.213,307.91,149.602z"/>
	<path d="M324.377,153.899l-0.122,4.956h-1.929v-3.125h-9.265v-12.257h2.124v10.426h5.591v-10.426h2.124v10.426H324.377
		L324.377,153.899z"/>
	<path d="M337.255,148.956c0,0.301-0.004,0.554-0.012,0.757c-0.008,0.204-0.021,0.396-0.037,0.574h-8.604
		c0,1.253,0.35,2.216,1.05,2.887c0.7,0.672,1.709,1.007,3.026,1.007c0.357,0,0.717-0.014,1.073-0.042
		c0.358-0.028,0.704-0.066,1.038-0.115c0.333-0.05,0.653-0.104,0.958-0.165c0.306-0.062,0.588-0.128,0.85-0.201v1.746
		c-0.577,0.163-1.23,0.295-1.96,0.396c-0.729,0.103-1.481,0.151-2.265,0.151c-1.05,0-1.953-0.144-2.71-0.427
		c-0.757-0.284-1.377-0.698-1.861-1.238c-0.482-0.543-0.843-1.205-1.072-1.99c-0.232-0.785-0.35-1.674-0.35-2.667
		c0-0.862,0.124-1.68,0.373-2.447c0.248-0.77,0.61-1.444,1.086-2.025c0.479-0.582,1.062-1.044,1.752-1.386
		c0.691-0.343,1.479-0.514,2.356-0.514c0.854,0,1.611,0.134,2.271,0.402c0.66,0.27,1.216,0.648,1.667,1.142s0.793,1.091,1.025,1.795
		C337.14,147.297,337.255,148.085,337.255,148.956z M335.045,148.65c0.024-0.545-0.027-1.044-0.157-1.495
		c-0.132-0.451-0.332-0.84-0.604-1.166c-0.272-0.324-0.612-0.58-1.019-0.763c-0.407-0.185-0.881-0.274-1.416-0.274
		c-0.466,0-0.889,0.09-1.271,0.269c-0.383,0.18-0.712,0.433-0.989,0.758c-0.275,0.325-0.5,0.716-0.671,1.172
		s-0.275,0.957-0.315,1.501L335.045,148.65L335.045,148.65z"/>
	<path d="M350.17,155.278c-0.554,0.212-1.121,0.368-1.703,0.471s-1.182,0.151-1.801,0.151c-1.937,0-3.428-0.524-4.474-1.575
		c-1.046-1.05-1.568-2.582-1.568-4.603c0-0.968,0.15-1.847,0.452-2.637c0.301-0.789,0.724-1.465,1.271-2.025
		c0.546-0.563,1.194-0.995,1.952-1.301c0.757-0.306,1.593-0.458,2.502-0.458c0.637,0,1.229,0.045,1.782,0.135
		c0.555,0.09,1.082,0.235,1.587,0.438v2.025c-0.527-0.275-1.066-0.479-1.616-0.604c-0.551-0.125-1.116-0.188-1.702-0.188
		c-0.546,0-1.063,0.104-1.544,0.313c-0.484,0.207-0.909,0.506-1.276,0.896c-0.365,0.392-0.654,0.867-0.866,1.429
		c-0.212,0.561-0.315,1.195-0.315,1.903c0,1.48,0.358,2.59,1.079,3.326c0.722,0.736,1.721,1.104,2.996,1.104
		c0.578,0,1.139-0.065,1.681-0.195c0.541-0.13,1.063-0.324,1.566-0.586L350.17,155.278L350.17,155.278z"/>
	<path d="M363.916,155.278c-0.554,0.212-1.121,0.368-1.703,0.471s-1.182,0.151-1.8,0.151c-1.938,0-3.429-0.524-4.475-1.575
		c-1.046-1.05-1.568-2.582-1.568-4.603c0-0.968,0.15-1.847,0.451-2.637c0.302-0.789,0.725-1.465,1.27-2.025
		c0.546-0.563,1.197-0.995,1.953-1.301c0.758-0.306,1.592-0.458,2.503-0.458c0.636,0,1.229,0.045,1.782,0.135
		c0.554,0.09,1.082,0.235,1.587,0.438v2.025c-0.528-0.275-1.066-0.479-1.617-0.604c-0.55-0.125-1.115-0.188-1.702-0.188
		c-0.546,0-1.062,0.104-1.545,0.313c-0.482,0.207-0.908,0.506-1.273,0.896c-0.367,0.392-0.655,0.867-0.867,1.429
		c-0.212,0.561-0.317,1.195-0.317,1.903c0,1.48,0.36,2.59,1.08,3.326c0.723,0.736,1.722,1.104,2.997,1.104
		c0.578,0,1.139-0.065,1.68-0.195s1.063-0.324,1.567-0.586L363.916,155.278L363.916,155.278z"/>
	<path d="M369.287,148.211c0.293-0.008,0.567-0.015,0.824-0.02c0.256-0.004,0.521-0.006,0.8-0.006c0.765,0,1.434,0.092,2.008,0.273
		c0.573,0.185,1.053,0.438,1.436,0.771c0.383,0.329,0.668,0.725,0.854,1.185c0.188,0.46,0.28,0.958,0.28,1.496
		c0,0.65-0.11,1.223-0.329,1.715c-0.221,0.491-0.533,0.904-0.94,1.238c-0.405,0.334-0.903,0.586-1.495,0.758
		c-0.591,0.171-1.29,0.256-2.104,0.256c-0.521,0-1.073-0.015-1.654-0.043c-0.582-0.028-1.174-0.087-1.774-0.178v-12.184h2.1v4.737
		L369.287,148.211L369.287,148.211z M373.291,151.97c0-0.643-0.201-1.142-0.604-1.494c-0.402-0.354-1.043-0.531-1.923-0.531
		c-0.235,0-0.478,0.004-0.722,0.013c-0.244,0.008-0.496,0.021-0.757,0.037v4.027c0.261,0.041,0.509,0.066,0.745,0.079
		c0.235,0.013,0.472,0.02,0.707,0.02c0.497,0,0.908-0.06,1.231-0.178c0.325-0.118,0.584-0.274,0.775-0.471
		c0.19-0.194,0.329-0.423,0.415-0.684C373.246,152.527,373.291,152.256,373.291,151.97z M376.831,155.73v-12.257h2.1v12.257H376.831
		z"/>
	<path d="M391.187,143.901c0,1.317-0.366,2.316-1.101,2.997c-0.73,0.681-1.794,1.063-3.187,1.153l-0.1,3.003h-1.816l-0.158-4.675
		h1.428c0.496,0,0.911-0.053,1.245-0.159c0.334-0.104,0.604-0.256,0.808-0.451c0.201-0.196,0.35-0.435,0.438-0.715
		c0.09-0.28,0.135-0.596,0.135-0.945c0-0.595-0.123-1.123-0.365-1.587c-0.244-0.464-0.588-0.854-1.025-1.172
		c-0.439-0.318-0.962-0.558-1.568-0.721c-0.604-0.163-1.268-0.244-1.981-0.244h-0.308v-1.903h0.33c0.822,0,1.572,0.078,2.252,0.231
		c0.682,0.155,1.286,0.364,1.819,0.629c0.532,0.265,0.996,0.576,1.392,0.935c0.396,0.357,0.726,0.736,0.988,1.136
		c0.265,0.398,0.46,0.812,0.586,1.238S391.187,143.495,391.187,143.901z M385.876,152.727c0.229,0,0.439,0.043,0.635,0.128
		c0.195,0.086,0.364,0.201,0.509,0.349c0.143,0.146,0.255,0.318,0.336,0.519s0.122,0.409,0.122,0.629
		c0,0.219-0.041,0.427-0.122,0.622c-0.081,0.196-0.193,0.364-0.336,0.508c-0.145,0.143-0.313,0.256-0.509,0.342
		c-0.193,0.085-0.404,0.129-0.635,0.129c-0.219,0-0.427-0.044-0.622-0.129c-0.193-0.086-0.366-0.199-0.513-0.342
		c-0.146-0.144-0.261-0.313-0.342-0.508c-0.081-0.194-0.122-0.402-0.122-0.622c0-0.221,0.041-0.43,0.122-0.629
		s0.193-0.373,0.342-0.519c0.146-0.146,0.316-0.263,0.513-0.349C385.449,152.77,385.657,152.727,385.876,152.727z"/>
</g>
</svg>
