<?xml version="1.0" encoding="utf-8"?>
<!-- Generator: Adobe Illustrator 15.1.0, SVG Export Plug-In . SVG Version: 6.00 Build 0)  -->
<!DOCTYPE svg PUBLIC "-//W3C//DTD SVG 1.1//EN" "http://www.w3.org/Graphics/SVG/1.1/DTD/svg11.dtd">
<svg version="1.1" id="Layer_1" xmlns="http://www.w3.org/2000/svg" xmlns:xlink="http://www.w3.org/1999/xlink" x="0px" y="0px"
	 width="629.973px" height="387.795px" viewBox="0 0 629.973 387.795" enable-background="new 0 0 629.973 387.795"
	 xml:space="preserve">
<g>
	<g>
		<rect x="180.23" y="0.352" fill="#EBEBEC" stroke="#DCDDDE" stroke-miterlimit="10" width="304.581" height="336.302"/>
		<rect x="180.23" y="311.666" fill="#DADBDC" stroke="#DCDDDE" stroke-miterlimit="10" width="304.581" height="33.367"/>
		<path fill="#FFFFFF" stroke="#DCDDDE" stroke-miterlimit="10" d="M397.72,299.334c0-6.812,5.166-12.331,11.539-12.331h54.694
			c6.373,0,11.537,5.521,11.537,12.331l0,0c0,6.813-5.164,12.333-11.537,12.333h-54.694
			C402.886,311.666,397.72,306.147,397.72,299.334L397.72,299.334z"/>
		<rect x="180.23" y="345.033" fill="#C9CACC" width="14.438" height="41.705"/>
		<rect x="470.371" y="345.033" fill="#C9CACC" width="14.438" height="41.705"/>
		<g>
			
				<rect x="291.177" y="271.465" transform="matrix(0.0036 1 -1 0.0036 599.6289 14.2736)" fill="#34556C" width="2.948" height="73.162"/>
			
				<rect x="291.778" y="273.828" transform="matrix(0.0044 1 -1 0.0044 601.7781 16.3781)" fill="#34556C" width="1.772" height="73.16"/>
			<polygon points="333.85,306.37 333.863,309.322 329.22,311.115 329.191,304.621 			"/>
			
				<rect x="291.757" y="269.097" transform="matrix(0.0066 1 -1 0.0066 596.3802 11.0224)" fill="#34556C" width="1.772" height="73.167"/>
			<path fill="#34556C" d="M333.863,309.322c0,0,5.28,0.847,4.938-1.466c-0.341-2.313-4.95-1.484-4.95-1.484"/>
		</g>
	</g>
</g>
<g>
	<g>
		<path fill="#F8A586" d="M627.859,205.33l0.424,8.953c0.099,2.697-0.33,4.688-1.274,5.969l-0.431,0.642
			c-1.323,1.752-2.25,3.694-2.77,5.828l-0.428,1.633c-0.236,0.854-0.808,1.518-1.703,1.99c-0.854,0.473-1.777,0.59-2.771,0.354
			l-1.139-0.285c-0.994-0.238-1.965-0.762-2.912-1.563c-0.902-0.806-1.516-1.658-1.848-2.56l-1.564-4.405
			c-0.283-0.9-0.332-1.919-0.143-3.056c0.143-1.139,0.498-2.086,1.063-2.844l2.131-2.842c0.712-0.998,2.107-4.596,4.193-10.806
			L627.859,205.33z"/>
		<path fill="#1C597B" d="M535.538,321.851c-1.229,1.33-1.819,2.916-1.772,4.764l0.567,47.254c0.048,1.849,0.688,3.437,1.921,4.763
			c1.229,1.276,2.725,1.918,4.475,1.918c1.754-0.047,3.223-0.734,4.408-2.063c1.229-1.326,1.846-2.914,1.846-4.76l-0.641-47.254
			c0-1.851-0.642-3.412-1.92-4.689c-1.229-1.328-2.726-1.985-4.478-1.985C538.193,319.84,536.724,320.527,535.538,321.851z"/>
		<path fill="#3F5272" d="M530.907,204.679l2.063,162.438l24.656-0.287l-2.063-162.438c-0.047-2.98-1.064-5.517-3.057-7.603
			c-1.988-2.086-4.357-3.104-7.105-3.057l-4.547,0.07c-2.795,0.047-5.164,1.139-7.104,3.271
			C531.808,199.208,530.861,201.74,530.907,204.679z"/>
		<path fill="#4DACB5" d="M528.564,103.989l2.203,31.691v67.438h63.881V135.68l2.203-31.691
			c-11.322-2.938-22.715-4.405-34.178-4.405l-12.576,0.643C542.564,100.934,535.386,102.189,528.564,103.989z"/>
		<path fill="#F8A586" d="M574.038,100.152c-4.069-0.381-7.858-0.568-11.364-0.568l-13.22,0.713
			c0.854,2.604,2.396,4.734,4.617,6.396c2.275,1.657,4.813,2.487,7.605,2.487c2.889,0,5.471-0.854,7.744-2.56
			C571.648,104.96,573.189,102.806,574.038,100.152z"/>
		<path fill="#3F5272" d="M594.648,177.036h-63.881v30.909c0,5.354,1.895,9.928,5.684,13.717c3.791,3.791,8.363,5.685,13.718,5.685
			h25.084c5.354,0,9.924-1.894,13.715-5.685c3.789-3.789,5.684-8.361,5.684-13.717L594.648,177.036L594.648,177.036z"/>
		<path fill="#455A7D" d="M578.657,227.06c4.599-0.806,8.39-2.982,11.371-6.535c3.078-3.646,4.617-7.842,4.617-12.578v-30.909
			h-31.975v30.909c0,4.736,1.516,8.932,4.547,12.578C570.251,224.076,574.066,226.255,578.657,227.06z"/>
		<g>
			<g>
				<path fill="#F8A586" d="M562.673,68.958c-1.988,0-3.693,0.711-5.117,2.131c-1.371,1.374-2.063,3.057-2.063,5.045v24.161
					l2.914,7.246l11.513-7.246v-24.16c0-1.989-0.709-3.672-2.136-5.046C566.413,69.669,564.708,68.958,562.673,68.958z"/>
			</g>
		</g>
		<g>
			<path fill="#11132D" d="M540.786,58.726c0.566,0,1.041-0.188,1.419-0.57c0.43-0.424,0.643-0.924,0.643-1.488
				c0-0.569-0.213-1.042-0.643-1.423c-0.378-0.38-0.853-0.566-1.419-0.566c-0.569,0-1.065,0.188-1.491,0.566
				c-0.381,0.381-0.568,0.854-0.568,1.423c0,0.564,0.188,1.064,0.568,1.488C539.72,58.535,540.216,58.726,540.786,58.726z"/>
			<path fill="#11132D" d="M556.919,58.726c0.563,0,1.041-0.188,1.418-0.57c0.428-0.424,0.643-0.924,0.643-1.488
				c0-0.569-0.215-1.042-0.643-1.423c-0.377-0.38-0.854-0.566-1.418-0.566c-0.57,0-1.045,0.188-1.427,0.566
				c-0.377,0.381-0.563,0.854-0.563,1.423c0,0.564,0.188,1.064,0.563,1.488C555.874,58.535,556.349,58.726,556.919,58.726z"/>
		</g>
		<path fill="#F5E7E7" d="M541.072,72.296c0,2.134,0.758,3.957,2.273,5.474c1.515,1.519,3.365,2.272,5.543,2.272
			c2.133,0,3.955-0.757,5.471-2.272c1.519-1.517,2.275-3.34,2.275-5.474H541.072z"/>
		<path fill="#1C597B" d="M577.411,321.427c-1.184,1.373-1.729,2.981-1.633,4.832c0.945,20.938,1.729,36.641,2.345,47.106
			c0.096,1.853,0.807,3.392,2.133,4.621c1.276,1.23,2.795,1.799,4.549,1.705c1.752-0.096,3.193-0.832,4.334-2.203
			c1.137-1.375,1.658-2.981,1.563-4.832c-0.76-13.123-1.518-28.776-2.272-46.969c-0.098-1.801-0.781-3.34-2.063-4.621
			c-1.325-1.229-2.842-1.822-4.547-1.772C580.066,319.39,578.597,320.101,577.411,321.427z"/>
		<path fill="#455A7D" d="M569.636,204.75c1.422,62.91,3.338,116.96,5.756,162.152l24.586-1.352
			c-2.369-45.049-4.266-98.816-5.684-161.302c-0.099-2.938-1.142-5.424-3.132-7.461c-1.985-2.086-4.381-3.104-7.176-3.057
			l-4.477,0.07c-2.795,0.096-5.162,1.209-7.105,3.342C570.464,199.277,569.538,201.812,569.636,204.75z"/>
		<path fill="none" stroke="#1B181D" stroke-width="1.35" d="M584.771,182.012v10.442c0,2.75,0.973,5.068,2.912,6.965
			c1.896,1.941,4.219,2.912,6.965,2.912"/>
		<line fill="none" stroke="#1B181D" stroke-width="1.35" x1="594.648" y1="182.012" x2="530.767" y2="182.012"/>
		<line fill="none" stroke="#455A7D" stroke-width="1.35" x1="555.851" y1="231.469" x2="545.478" y2="231.681"/>
		<line fill="none" stroke="#455A7D" stroke-width="1.35" x1="555.851" y1="238.216" x2="545.478" y2="238.359"/>
		<path fill="#F8A586" d="M525.509,198.496c0.52,0.713,1.396,1.324,2.631,1.849c1.274,0.52,2.367,0.713,3.268,0.569l0.711-0.146
			c0.9-0.144,1.99-0.188,3.271-0.144c1.276,0.047,2.369,0.168,3.27,0.355l1.634,0.354c0.854,0.237,1.684,0.071,2.487-0.496
			c0.806-0.569,1.326-1.354,1.563-2.346l0.354-1.139c0.236-0.996,0.189-2.084-0.141-3.269c-0.287-1.231-0.736-2.178-1.354-2.842
			l-3.192-3.412c-0.617-0.664-1.494-1.186-2.633-1.563c-1.089-0.381-2.084-0.498-2.982-0.354l-4.479,0.564
			c-2.795,0.521-4.643,2.133-5.541,4.832C523.519,193.972,523.9,196.363,525.509,198.496z"/>
		<path fill="#6D3E3E" d="M549.032,28.81l-12.08-7.035c-1.133,2.561-1.274,5.164-0.424,7.815c0.854,2.652,2.486,4.666,4.902,6.039
			L549.032,28.81z"/>
		<path fill="#FFD39B" d="M568.193,103.391c1.553-1.563,2.328-3.446,2.328-5.646V86.507h-15.93v11.239
			c0,2.208,0.774,4.089,2.328,5.646c1.555,1.552,3.436,2.328,5.645,2.328C564.763,105.719,566.638,104.942,568.193,103.391z"/>
		<path fill="#FFD39B" d="M584.314,47.019c-2.346,0-4.352,0.883-6.008,2.647c-1.658,1.765-2.49,3.896-2.49,6.401
			c0,2.495,0.832,4.629,2.49,6.403c1.656,1.767,3.662,2.647,6.008,2.647c2.355,0,4.365-0.884,6.023-2.647
			c1.657-1.774,2.485-3.908,2.485-6.403c0-2.505-0.828-4.64-2.485-6.401C588.679,47.901,586.669,47.019,584.314,47.019z"/>
		<path fill="#FFD39B" d="M547.57,19.912c-3.975,3.169-5.963,7.448-5.963,12.839v38.793c0,5.578,1.988,10.354,5.963,14.33
			c3.971,3.962,8.748,5.942,14.33,5.942h1.506c5.568,0,10.34-1.98,14.313-5.942c3.975-3.977,5.961-8.752,5.961-14.33V32.751
			c0-5.391-1.986-9.67-5.961-12.839c-3.73-2.979-8.502-4.473-14.313-4.473H561.9C556.085,15.441,551.31,16.932,547.57,19.912z"/>
		<path fill="#FFD39B" d="M535.552,48.667c-1.658,1.773-2.488,3.91-2.488,6.402c0,2.507,0.83,4.646,2.488,6.42
			c1.66,1.768,3.668,2.647,6.021,2.647c2.349,0,4.353-0.883,6.009-2.646c1.659-1.775,2.487-3.915,2.487-6.422
			c0-2.492-0.828-4.629-2.487-6.402c-1.656-1.766-3.66-2.646-6.009-2.646C539.22,46.021,537.212,46.903,535.552,48.667z"/>
		<path fill="#844C4B" d="M582.49,63.108c0,3.148-1.061,5.852-3.172,8.102c-2.104,2.239-4.635,3.358-7.592,3.358h-17.564
			c-2.959,0-5.487-1.119-7.594-3.358c-2.112-2.25-3.172-4.95-3.172-8.102V45.401c-1.266,1.374-1.975,6.228-2.123,14.555
			c-0.063,4.164-0.006,8.188,0.176,12.08c0.072,9.004,1.688,15.176,4.834,18.514c1.479,1.563,3.396,2.676,5.738,3.331
			c2.039,0.58,4.641,0.872,7.799,0.872h6.246c3.189,0,5.808-0.268,7.846-0.793c2.394-0.624,4.328-1.675,5.818-3.153
			c3.223-3.203,4.793-9.132,4.709-17.787c0.18-4.048,0.23-8.238,0.158-12.572c-0.137-8.651-0.84-13.669-2.107-15.043V63.108z"/>
		<path fill="#844C4B" d="M549.47,19.595c-2.377-0.328-3.998-0.46-4.865-0.397c-1.418,0.106-2.441,0.656-3.076,1.649
			c-0.719,1.132-1.078,3.001-1.078,5.61l0.033,4.788c0.051,3.848,0.152,7.438,0.301,10.776c0.478,10.676,1.351,16.757,2.613,18.246
			V40.995c0-3.438,1.059-6.373,3.172-8.813c2.104-2.442,4.635-3.664,7.594-3.664h17.564c2.957,0,5.488,1.222,7.592,3.664
			c2.111,2.438,3.172,5.377,3.172,8.813V60.27c1.271-1.489,2.142-7.568,2.615-18.246c0.148-3.338,0.248-6.933,0.299-10.776
			l0.033-4.788c0-5.199-1.354-8.896-4.059-11.098c-2.367-1.91-6.082-2.867-11.146-2.867l-14.375,7.654
			C554.23,20.149,552.101,19.964,549.47,19.595z"/>
		<path fill="#844C4B" d="M573.566,66.581c-2.092-0.94-5.635-1.412-10.619-1.412c-4.99,0-8.529,0.472-10.621,1.412
			c-2.93,1.31-4.393,3.836-4.393,7.574c0,4.135,1.463,7.658,4.393,10.574c2.938,2.916,6.479,4.374,10.621,4.374
			c4.143,0,7.68-1.458,10.619-4.374c2.926-2.916,4.391-6.439,4.391-10.574C577.954,70.417,576.49,67.89,573.566,66.581z"/>
		<path fill="#FFD39B" d="M558.269,74.49c-1.404,0.317-2.738,0.479-3.996,0.479c0,1.055,0.908,1.959,2.729,2.709
			c1.815,0.752,4.014,1.125,6.592,1.125c2.58,0,4.776-0.373,6.596-1.125c1.818-0.75,2.729-1.654,2.729-2.709l-1.144-0.065
			c-0.93-0.071-1.817-0.21-2.664-0.41c-2.733-0.636-4.576-1.749-5.518-3.346C562.845,72.74,561.07,73.856,558.269,74.49z"/>
		<path fill="#6D3E3E" d="M537.755,16.297l2.854,21.066c0.211-0.519,0.57-1.113,1.076-1.791c1.014-1.354,2.252-2.432,3.711-3.233
			c4.691-2.565,10.758-1.911,18.195,1.968c1.09-0.75,2.453-1.458,4.09-2.123c3.301-1.322,6.348-1.74,9.146-1.254
			c2.791,0.485,5.031,1.803,6.724,3.946c0.524,0.677,0.973,1.396,1.33,2.154c0.17,0.381,0.293,0.691,0.364,0.936l0.146-13.252
			c0.074-1.192-0.117-2.6-0.572-4.215c-0.918-3.233-2.715-5.902-5.391-8.006c-2.354-1.852-4.547-3.281-6.578-4.299
			c-1.014-0.516-1.789-0.846-2.33-0.98l-0.666,1.143c-0.611,0.806-1.357,1.308-2.234,1.505c-1.032-2.364-3.239-3.986-6.625-4.863
			c-1.688-0.436-3.278-0.629-4.771-0.588l1.205,2.379c0.75,1.857,1.01,3.461,0.772,4.803c-1.34-1.87-3.821-2.746-7.446-2.632
			c-1.81,0.063-3.482,0.313-5.025,0.745l0.775,2.74c0.612,2.252,1.156,4.449,1.633,6.598c-2.475-2.306-4.945-3.451-7.416-3.44
			C539.484,15.599,538.493,15.833,537.755,16.297z"/>
		<path fill="#010101" d="M571.325,48.542c0.287,0.354,0.681,0.53,1.179,0.53c0.494,0,0.92-0.177,1.274-0.53
			c0.285-0.284,0.43-0.674,0.43-1.172c0-0.496-0.145-0.924-0.43-1.279c-0.354-0.282-0.78-0.426-1.274-0.426
			c-0.498,0-0.892,0.144-1.179,0.426c-0.354,0.355-0.528,0.783-0.528,1.279C570.796,47.868,570.974,48.258,571.325,48.542z"/>
		<path fill="#010101" d="M551.775,48.542c0.283,0.354,0.676,0.53,1.172,0.53c0.498,0,0.924-0.177,1.279-0.53
			c0.283-0.284,0.424-0.674,0.424-1.172c0-0.496-0.141-0.924-0.424-1.279c-0.355-0.282-0.781-0.426-1.279-0.426
			c-0.496,0-0.889,0.144-1.172,0.426c-0.354,0.355-0.533,0.783-0.533,1.279C551.24,47.868,551.419,48.258,551.775,48.542z"/>
		<path fill="#F8A586" d="M509.698,207.724l0.427,8.953c0.098,2.7-0.332,4.688-1.275,5.971l-0.428,0.641
			c-1.326,1.752-2.25,3.693-2.771,5.826l-0.428,1.635c-0.236,0.853-0.81,1.517-1.705,1.988c-0.854,0.477-1.775,0.594-2.771,0.355
			l-1.137-0.283c-0.996-0.24-1.965-0.763-2.914-1.563c-0.897-0.807-1.514-1.658-1.848-2.561l-1.563-4.402
			c-0.28-0.902-0.334-1.92-0.143-3.059c0.143-1.138,0.498-2.084,1.063-2.843l2.134-2.842c0.711-0.996,2.104-4.598,4.19-10.805
			L509.698,207.724z"/>
		<g>
			<path fill="#304779" d="M599.808,105.656c-4.332-4.33-9.555-6.502-15.664-6.502h-38.896c-6.182,0-11.438,2.172-15.771,6.502
				c-4.334,4.333-6.502,9.557-6.502,15.664l2.561,110.288h79.072l1.703-110.288C606.31,115.212,604.144,109.99,599.808,105.656z"/>
			<polygon fill="#455A7D" points="579.851,123.469 585.792,115.455 576.837,99.747 565.773,200.271 588.095,130.224 			"/>
			<polygon fill="#455A7D" points="548.646,123.469 540.402,130.224 565.773,200.271 551.656,99.747 542.704,115.455 			"/>
			<polygon fill="#EBF7FE" points="576.837,99.747 550.202,99.747 565.773,200.271 			"/>
			<polygon fill="#FFFFFF" points="572.599,94.766 563.323,108.789 572.423,118.293 581.146,103.08 			"/>
			<polygon fill="#FFFFFF" points="554.728,94.942 546.181,103.257 554.425,118.293 563.323,108.789 			"/>
			<polygon fill="#CA695A" points="563.323,108.789 558.822,155.345 565.773,200.271 570.72,155.382 			"/>
			<polygon fill="#CA695A" points="563.323,108.789 556.607,115.97 564.052,124.834 570.527,116.271 			"/>
			<g>
				<path fill="#304779" d="M530.482,103.977c2.541-1.63,4.705-2.733,6.49-3.313l5.461,16.362c-1.146,0.45-2.547,1.275-4.203,2.479
					c-3.297,2.398-6.363,5.563-9.201,9.484c-9.02,12.471-14.09,30.13-15.215,52.977c-0.459,9.479-0.631,18.639-0.514,27.479H496.03
					c-0.119-9.277,0.064-18.715,0.549-28.313c1.386-28.18,8.343-49.941,20.869-65.298
					C521.435,110.942,525.777,106.99,530.482,103.977z"/>
			</g>
			<g>
				<path fill="#304779" d="M595.486,103.453c-2.539-1.632-4.703-2.734-6.49-3.314l-5.459,16.363
					c1.146,0.449,2.55,1.273,4.203,2.479c3.295,2.399,6.363,5.563,9.201,9.486c9.021,12.469,14.09,30.128,15.215,52.975
					c0.459,9.479,0.631,18.64,0.517,27.479h17.27c0.117-9.278-0.063-18.715-0.549-28.313c-1.383-28.18-8.342-49.94-20.869-65.298
					C604.532,110.419,600.193,106.469,595.486,103.453z"/>
			</g>
		</g>
		<path fill="#D9D1BD" d="M605.386,375.431l-0.144,12.363h-29.205v-11.652c0-1.707,0.617-3.176,1.851-4.406
			c1.231-1.229,2.703-1.846,4.406-1.846h16.909c0.189,1.561,0.875,2.887,2.063,3.979
			C602.402,374.908,603.777,375.431,605.386,375.431z"/>
		<path fill="#ECE5E1" d="M613.847,383.39v4.404h-19.398v-4.404c0-2.18,0.781-4.053,2.344-5.613
			c1.521-1.563,3.365-2.346,5.548-2.346h3.551c2.229,0,4.098,0.779,5.612,2.346C613.066,379.338,613.847,381.211,613.847,383.39z"/>
		<path fill="#ECE5E1" d="M581.724,377.847c1.518,1.516,2.275,3.363,2.275,5.543v4.404h-7.959v-11.652l0.067-0.711
			C578.288,375.48,580.159,376.283,581.724,377.847z"/>
		<path fill="#D9D1BD" d="M587.906,370.314v-1.42c0-0.994,0.381-1.848,1.14-2.559c0.711-0.761,1.563-1.14,2.561-1.14h3.906
			c1.043,0,1.916,0.379,2.629,1.14c0.711,0.711,1.063,1.563,1.063,2.559v1.42H587.906z"/>
		<rect x="576.038" y="383.674" fill="#D9D1BD" width="38.939" height="4.121"/>
		<path fill="#D9D1BD" d="M540.015,369.89h16.91c0.143,1.561,0.807,2.887,1.992,3.979c1.184,1.041,2.579,1.563,4.188,1.563
			l-0.145,12.363H533.76v-11.652c0-1.707,0.616-3.176,1.848-4.406C536.792,370.506,538.261,369.89,540.015,369.89z"/>
		<path fill="#ECE5E1" d="M572.7,383.39v4.404H553.23v-4.404c0-2.18,0.781-4.053,2.346-5.613c1.563-1.563,3.437-2.346,5.611-2.346
			h3.555c2.229,0,4.101,0.779,5.613,2.346C571.919,379.338,572.7,381.211,572.7,383.39z"/>
		<path fill="#ECE5E1" d="M533.833,375.431c2.178,0.049,4.051,0.854,5.61,2.416c1.519,1.516,2.273,3.363,2.273,5.543v4.404h-7.959
			v-11.652L533.833,375.431z"/>
		<path fill="#D9D1BD" d="M545.628,370.314v-1.42c0-0.994,0.354-1.848,1.063-2.559c0.711-0.761,1.586-1.14,2.629-1.14h3.908
			c0.994,0,1.871,0.379,2.631,1.14c0.709,0.711,1.063,1.563,1.063,2.559v1.42H545.628z"/>
		<rect x="533.761" y="383.674" fill="#D9D1BD" width="38.938" height="4.121"/>
		
			<line fill="none" stroke="#040406" stroke-width="1.35" stroke-linecap="round" x1="551.24" y1="371.379" x2="556.784" y2="371.379"/>
		
			<line fill="none" stroke="#040406" stroke-width="1.35" stroke-linecap="round" x1="553.232" y1="374.435" x2="558.775" y2="374.435"/>
		
			<line fill="none" stroke="#040406" stroke-width="1.35" stroke-linecap="round" x1="594.019" y1="371.379" x2="599.56" y2="371.379"/>
		
			<line fill="none" stroke="#040406" stroke-width="1.35" stroke-linecap="round" x1="596.007" y1="374.435" x2="601.552" y2="374.435"/>
	</g>
</g>
<g>
	<path fill="#3B2518" d="M108.812,82.294c-2.116-0.17-3.871-1.082-5.253-2.709c-1.386-1.638-1.992-3.513-1.813-5.64l2.296-27.782
		l20.648,1.708l-2.934,35.492L108.812,82.294z"/>
	<g>
		<path fill="#EC7169" d="M106.953,118.048c-1.425-1.403-2.12-3.104-2.088-5.086c0.026-1.975,0.727-3.678,2.091-5.104
			c1.41-1.423,3.076-2.118,5.012-2.09l6.372,2.172c5.049,1.445,9.515,2.104,13.386,1.971c3.875-0.093,7.94-1.019,12.202-2.775
			c2.134-0.905,3.859-1.788,5.188-2.647l1.011,14.358c-1.509,0.752-3.4,1.535-5.666,2.335c-4.627,1.594-8.922,2.458-12.896,2.591
			c-3.971,0.127-8.413-0.439-13.334-1.688l-6.248-1.879C110.003,120.169,108.328,119.454,106.953,118.048z"/>
	</g>
	<path fill="#3B2518" d="M73.64,69.421c-1.271-2.95-1.957-5.859-2.054-8.712c-0.148-3.434,0.604-6.24,2.259-8.432
		c1.494,3.211,4.138,6.516,7.94,9.911c3.709,3.296,7.227,5.561,10.548,6.783l1.657,9.249c-3.15,0.167-6.072-0.048-8.777-0.651
		c-2.938-0.669-5.235-1.521-6.905-2.56C76.232,73.694,74.674,71.837,73.64,69.421z"/>
	<path fill="#EC7169" d="M112.402,119.235l2.021,8.127c0.844,3.356,0.604,6.627-0.699,9.809c-1.229,3.118-3.188,5.568-5.879,7.366
		l-1.826,9.939l-2.743,33.187l-42.626-8.006l-1.578-77.276l28.885-10.288l26.803,14.887L112.402,119.235z"/>
	<g>
		<path fill="#F9AD8E" d="M80.954,72.478c0.11-1.937,0.885-3.535,2.313-4.792c1.438-1.26,3.104-1.854,4.99-1.794
			c1.936,0.11,3.534,0.887,4.794,2.32c1.254,1.434,1.851,3.092,1.792,4.988l-1.142,23.246c-0.11,1.888-0.884,3.49-2.32,4.792
			c-1.39,1.307-3.049,1.901-4.986,1.791c-1.895-0.058-3.492-0.808-4.8-2.242c-1.301-1.437-1.9-3.123-1.782-5.062L80.954,72.478z"/>
	</g>
	<path fill="#F9AD8E" d="M120.98,35.098c1.321,3.476,1.82,7.226,1.488,11.229l-0.689,9.196c-0.54,6.604-0.962,11.073-1.248,13.433
		c-0.813,5.813-2.344,10.244-4.587,13.287c-2.09,2.863-5.341,5.133-9.75,6.814c-8.724-0.727-16.105-4.089-22.159-10.092
		c-5.837-5.8-8.454-11.975-7.871-18.521l1.563-18.026c0.327-3.965,1.573-7.536,3.733-10.726L120.98,35.098z"/>
	<path fill="#3B2518" d="M116.994,28.149c6.208,2.982,9.729,6.545,10.573,10.7c0.491,2.698,0.328,5.248-0.485,7.653
		c-0.931,2.626-2.58,4.791-4.948,6.49c-0.688-3.187-2.421-6.679-5.19-10.468c-2.687-3.688-5.429-6.404-8.223-8.152l0.417-8.583
		C111.907,26.165,114.526,26.948,116.994,28.149z"/>
	<path fill="#5B351F" d="M68.254,43.209c0.564-5.694,2.917-10.532,7.04-14.518c4.075-3.935,8.984-6.232,14.734-6.896
		c4.694-0.517,9.614-0.011,14.758,1.505c3.805,1.069,8.42,2.969,13.841,5.697c-0.984,1.585-2.505,3.875-4.557,6.889
		c-3.033,4.592-7.046,8.576-12.022,11.964c-4.82,3.21-10.147,5.615-15.973,7.226l-0.292,2.68c-0.097,1.128-0.552,2.063-1.37,2.804
		c-0.862,0.687-1.843,0.988-2.929,0.896l-6.57-0.544L70.15,56.53C68.634,50.143,68.007,45.7,68.254,43.209z"/>
	<path fill="#1D193D" d="M106.156,59.235c-0.409,0.396-0.896,0.573-1.467,0.529c-0.563-0.054-1.042-0.313-1.429-0.768
		c-0.345-0.402-0.5-0.918-0.445-1.534c0.045-0.564,0.271-1.021,0.685-1.365c0.46-0.391,0.968-0.563,1.536-0.52
		c0.564,0.05,1.021,0.302,1.361,0.758c0.39,0.415,0.568,0.901,0.521,1.47C106.863,58.416,106.611,58.895,106.156,59.235z"/>
	<path fill="#1D193D" d="M119.572,61.94c-0.405,0.396-0.897,0.571-1.467,0.525c-0.56-0.046-1.04-0.304-1.431-0.761
		c-0.34-0.408-0.495-0.917-0.44-1.528c0.045-0.568,0.277-1.025,0.685-1.369c0.458-0.389,0.972-0.567,1.537-0.519
		c0.563,0.048,1.021,0.301,1.36,0.758c0.394,0.413,0.568,0.901,0.521,1.469C120.279,61.12,120.032,61.601,119.572,61.94z"/>
	<path fill="#F9AD8E" d="M80.2,54.656c1.162,1.38,1.678,2.97,1.522,4.762l-0.527,6.433l-6.434-0.533
		c-1.793-0.147-3.252-0.91-4.37-2.275c-1.174-1.331-1.682-2.898-1.535-4.688c0.145-1.793,0.91-3.272,2.286-4.441
		c1.331-1.167,2.896-1.686,4.688-1.527C77.624,52.521,79.081,53.285,80.2,54.656z"/>
	<path fill="#FBB326" d="M104.347,174.727l1.939,29.208c0.062,5.016-1.654,9.315-5.157,12.914
		c-3.456,3.594-7.692,5.422-12.706,5.487l-19.865,0.252c-6.667,0.086-10.96-0.471-12.866-1.68
		c-3.626-2.272-5.473-7.688-5.526-16.248c-0.062-8.039,1.671-15.327,5.179-21.854l5.3-7.445L104.347,174.727z"/>
	<path fill="#5B351F" d="M88.908,44.909l-2.936,35.502l-12.94-1.072c-2.118-0.175-3.872-1.077-5.261-2.71
		c-1.384-1.635-1.986-3.512-1.81-5.633l2.29-27.793L88.908,44.909z"/>
	<g>
		<path fill="#EC7169" d="M70.925,104.621c0.43,1.616,0.401,3.417-0.118,5.383c-0.179,0.737-0.439,1.419-0.785,2.062l-0.609,0.774
			l-0.794,0.644l-1.281,0.786c-1.066,0.71-2.152,1.583-3.271,2.626c-2.763,2.355-5.896,5.838-9.41,10.438
			c-2.436,3.059-5.349,7.103-8.74,12.138l-3.943,5.756l-11.987-8.022l3.968-5.826c2.808-4.275,5.902-8.588,9.286-12.937
			c3.716-4.931,7.445-9.066,11.208-12.412c1.5-1.313,3.066-2.53,4.699-3.661l2.044-1.29l1.481-0.729
			c0.39-0.125,0.938-0.229,1.66-0.302c1.114-0.102,2.145,0.021,3.083,0.36C69.266,101.135,70.433,102.538,70.925,104.621z"/>
	</g>
	<g>
		<path fill="#F8A687" d="M72.162,380.357C72.527,379.823,73.446,380.84,72.162,380.357c-1.602-0.604-0.414-2.092-1.093-1.977
			c-2.141-3.949-4.598-9.095-5.68-13.563c-2.245-9.162,3.256-42.396,4.104-48.322c0.435-3.002,1.789-21.793,3.067-35.908
			c0.121-0.625,0.197-1.271,0.197-1.938c0-4.963-3.699-8.978-8.261-8.978c-4.567,0-8.267,4.015-8.267,8.978
			c0,0.576,0.057,1.143,0.15,1.688l-0.284,0.021c0.332,3.944-0.044,7.625-0.653,8.981c-2.502,5.556-5.296,16.708-4.472,29.021
			l3.653,38.023c-0.038,0.021-0.059,0.049-0.083,0.071c-0.507,0.589-1.083,0.613-0.896,2.281l-1.481,3.576l3.619,4.666
			c1.554,7.313,1.67,17.479,10.902,16.545l0.104,0.16l4.461,1.373l2.148-0.326l1.476,0.135
			C74.878,384.865,73.708,383.066,72.162,380.357z"/>
		<path fill="#723A21" d="M78.397,383.176c-2.345-2.035-7.116-4.461-7.116-4.461s-5.005,6.338-9.521,0.588
			c-4.41-5.607-2.366-11.592-6.23-17.892c-2.1-3.436-0.957-4.829-0.907-5.303c-1.921,0.729-5.521,3.021-3.889,9.752l0.198,0.34
			l1.022,18.396h1.389l0.475-13.992c0.755,0.541,2.313,2.459,3.404,9.324c0.979,6.17,5.735,6.492,5.735,6.492
			s11.383,0.547,15.192-0.814C78.152,385.605,80.749,385.201,78.397,383.176z"/>
	</g>
	<g>
		<path fill="#F8A687" d="M111.187,378.652c-0.184-0.164-0.354-0.338-0.453-0.547c-0.186-0.381-0.021-0.873-0.227-1.229
			c-1.117-1.955-2.677-3.857-3.799-5.933c-1.288-2.381-2.481-4.848-3.319-7.447c-2.945-8.979-0.004-42.495,0.39-48.455
			c0.203-3.022,0.121-21.856,0.313-36.006c0.073-0.63,0.103-1.277,0.054-1.947c-0.383-4.938-4.377-8.694-8.938-8.385
			c-4.556,0.31-7.938,4.572-7.558,9.519c0.051,0.569,0.142,1.137,0.276,1.678l-0.277,0.031c0.637,3.907,0.539,7.604,0.032,9
			c-2.063,5.709-4.001,17.016-2.23,29.232l7.729,34.077l-1.184,3.586c-0.027,0.021-0.058,0.041-0.075,0.074
			c-0.463,0.623-1.037,0.685-0.713,2.328l-1.216,3.664l3.974,4.414c2.1,7.184,3.006,17.311,12.139,15.742l0.115,0.164l4.559,1.053
			l2.12-0.471l1.481,0.033c-0.605-0.021-1.452-1.677-1.739-2.132c-0.302-0.465-0.548-1.018-0.872-1.467
			C111.618,379.017,111.394,378.842,111.187,378.652z"/>
		<path fill="#723A21" d="M117.767,380.908c-2.501-1.864-7.445-3.971-7.445-3.971s-4.508,6.666-9.459,1.242
			c-4.822-5.283-3.25-11.396-7.577-17.41c-2.367-3.273-1.328-4.752-1.322-5.227c-1.858,0.86-5.276,3.391-3.129,9.981l0.227,0.336
			l2.425,18.271l1.39-0.105l-0.589-13.971c0.776,0.488,2.481,2.285,4.103,9.061c1.45,6.08,6.22,6.07,6.22,6.07
			s11.404-0.221,15.104-1.844C117.707,383.344,120.262,382.763,117.767,380.908z"/>
	</g>
	<polygon fill="#FBB326" points="112.76,293.517 48.457,293.517 51.328,198.66 105.631,200.556 	"/>
	<g>
		<path fill="#F8A687" d="M25.977,182.484c0,0,0.192,7.075-2.481,11.514c0,0-0.655,2.592-0.425,4.332c0,0-3.258-1.521-2.442-4.567
			c0,0,1.999-2.927-0.361-5.974c0,0-1.291-3.809-0.167-6.412c1.12-2.61,2.79-3.079,3.958-2.951
			C24.057,178.426,25.973,180.346,25.977,182.484z"/>
		<g>
			<path fill="#F8A687" d="M16.987,192.942c0.702-0.749,0.771-1.873,0.146-2.508l0,0c-0.623-0.629-1.697-0.54-2.407,0.21
				l-5.514,5.88c-0.708,0.753-0.771,1.874-0.147,2.507l0,0c0.626,0.636,1.696,0.537,2.399-0.206L16.987,192.942z"/>
			<path fill="#F8A687" d="M15.125,189.148c0.784-0.833,0.913-2.021,0.286-2.656l0,0c-0.622-0.636-1.761-0.475-2.546,0.364
				l-6.144,6.542c-0.785,0.833-0.911,2.029-0.292,2.662l0,0c0.626,0.63,1.764,0.473,2.545-0.363L15.125,189.148z"/>
			<path fill="#F8A687" d="M13.257,185.993c0.6-0.646,0.586-1.683-0.029-2.316l0,0c-0.626-0.639-1.624-0.624-2.233,0.025
				l-4.77,5.076c-0.604,0.652-0.593,1.688,0.03,2.32l0,0c0.624,0.636,1.621,0.625,2.229-0.021L13.257,185.993z"/>
			<path fill="#F8A687" d="M12.671,181.74c0.503-0.536,0.399-1.479-0.227-2.115l0,0c-0.625-0.64-1.533-0.716-2.035-0.184
				l-3.926,4.187c-0.501,0.535-0.398,1.478,0.226,2.115l0,0c0.62,0.633,1.529,0.714,2.029,0.184L12.671,181.74z"/>
		</g>
		<path fill="#F8A687" d="M25.977,182.484c0,0,0.021-3.893,0.15-6.487c0.053-1.024,0.981-6.135,1.376-8.038l-0.018-0.006
			c2.169-2.887,9.378-13.379,13.76-20.314c0.421-0.376,0.802-0.816,1.13-1.316c2.155-3.317,1.107-8.129-2.342-10.743
			c-3.446-2.621-7.995-2.059-10.155,1.259c-0.501,0.772-0.824,1.628-0.992,2.514c-3.069,6.858-7.282,20.253-8.819,25.234
			l-0.015-0.01c-0.068,0.243-3.262,7.029-3.262,7.029s0,0-1.39,1.804c-1.383,1.805-4.811,4.908-5.31,6.841
			c-0.494,1.938,5.243,13.984,5.243,13.984C19.667,191.922,25.977,182.484,25.977,182.484z"/>
	</g>
	<g>
		<path fill="#F8A687" d="M189.065,97.243c0,0,5.562-4.124,10.925-4.574c0,0,2.524-0.952,3.768-2.106c0,0,0.965,3.354-2.03,4.438
			c0,0-3.698,0.115-4.562,3.641c0,0-2.193,3.13-5.041,3.734c-2.854,0.604-4.354-0.41-5.031-1.379
			C187.092,100.994,187.351,98.451,189.065,97.243z"/>
		<g>
			<path fill="#F8A687" d="M203.509,98.25c-1.073-0.113-2.021,0.463-2.108,1.294l0,0c-0.089,0.837,0.706,1.606,1.782,1.729
				l8.437,0.916c1.076,0.124,2.02-0.463,2.111-1.291l0,0c0.091-0.84-0.705-1.604-1.775-1.724L203.509,98.25z"/>
			<path fill="#F8A687" d="M201.713,101.809c-1.195-0.131-2.24,0.438-2.329,1.273l0,0c-0.091,0.832,0.803,1.613,2.003,1.75
				l9.391,1.022c1.194,0.129,2.24-0.438,2.331-1.275l0,0c0.087-0.831-0.802-1.611-1.999-1.744L201.713,101.809z"/>
			<path fill="#F8A687" d="M200.432,105.013c-0.925-0.1-1.748,0.499-1.843,1.328l0,0c-0.091,0.838,0.591,1.592,1.52,1.695
				l7.285,0.797c0.935,0.1,1.755-0.497,1.85-1.329l0,0c0.091-0.835-0.589-1.591-1.519-1.694L200.432,105.013z"/>
			<path fill="#F8A687" d="M197.403,107.858c-0.767-0.087-1.456,0.521-1.55,1.356l0,0c-0.089,0.835,0.456,1.578,1.225,1.663
				l6.002,0.652c0.768,0.082,1.461-0.524,1.55-1.358l0,0c0.09-0.832-0.454-1.576-1.218-1.659L197.403,107.858z"/>
		</g>
		<path fill="#F8A687" d="M189.065,97.243c0,0-3.142,2.176-5.318,3.533c-0.856,0.535-5.59,2.695-7.39,3.466l0.004,0.019
			c-3.771-0.038-17.05,0.339-25.567,0.885c-0.585-0.115-1.197-0.159-1.82-0.125c-4.116,0.211-7.278,3.719-7.063,7.834
			c0.209,4.112,3.718,7.281,7.834,7.069c0.959-0.049,1.857-0.282,2.688-0.655c7.569-1.506,21.172-5.81,26.206-7.433l0.004,0.015
			c0.24-0.083,7.841-1.449,7.841-1.449s0,0,2.39,0.046c2.378,0.047,7.179,0.931,9.063,0.223c1.886-0.712,7.722-11.88,7.722-11.88
			C200.892,96.769,189.065,97.243,189.065,97.243z"/>
	</g>
	<path fill="#F79871" d="M113.202,70.213c0,1.192,1.443,2.168,3.224,2.168c1.785,0,3.225-0.976,3.225-2.168
		c0-1.191-1.438-2.161-3.225-2.161C114.648,68.052,113.202,69.021,113.202,70.213z"/>
	<path fill="#F79871" d="M97.227,63.099c-0.663,0.994,0.26,2.778,2.062,3.979c1.803,1.201,3.81,1.369,4.473,0.377
		c0.662-0.992-0.267-2.775-2.071-3.979C99.889,62.275,97.889,62.107,97.227,63.099z"/>
	<circle fill="#F5F6F6" cx="106.853" cy="78.309" r="3.75"/>
</g>
<g>
	<rect x="208.998" y="78.148" fill="none" width="238.913" height="141.528"/>
	<path d="M290.845,94.152c0,0.193-0.037,0.383-0.108,0.562c-0.073,0.181-0.173,0.336-0.299,0.47
		c-0.126,0.137-0.279,0.24-0.458,0.317c-0.181,0.078-0.375,0.116-0.588,0.116c-0.212,0-0.405-0.039-0.586-0.116
		c-0.179-0.077-0.332-0.181-0.457-0.311c-0.127-0.13-0.227-0.285-0.3-0.466c-0.073-0.179-0.108-0.368-0.108-0.572
		c0-0.203,0.035-0.396,0.108-0.574s0.173-0.335,0.3-0.47c0.125-0.136,0.278-0.24,0.457-0.317c0.181-0.077,0.374-0.116,0.586-0.116
		c0.213,0,0.407,0.039,0.588,0.116c0.179,0.078,0.332,0.182,0.458,0.313c0.126,0.13,0.226,0.285,0.299,0.47
		C290.808,93.755,290.845,93.948,290.845,94.152z M295.544,94.152c0,0.193-0.037,0.383-0.108,0.562
		c-0.073,0.181-0.175,0.336-0.301,0.47c-0.126,0.137-0.277,0.24-0.458,0.317c-0.179,0.078-0.375,0.116-0.586,0.116
		c-0.212,0-0.405-0.039-0.586-0.116c-0.179-0.077-0.332-0.181-0.458-0.311s-0.226-0.285-0.299-0.466
		c-0.073-0.179-0.11-0.368-0.11-0.572c0-0.203,0.037-0.396,0.11-0.574s0.173-0.335,0.299-0.47c0.126-0.136,0.278-0.24,0.458-0.317
		c0.181-0.077,0.374-0.116,0.586-0.116c0.211,0,0.407,0.039,0.586,0.116c0.181,0.078,0.332,0.182,0.458,0.313
		c0.126,0.13,0.228,0.285,0.301,0.47C295.508,93.755,295.544,93.948,295.544,94.152z M300.244,94.152
		c0,0.193-0.037,0.383-0.11,0.562c-0.071,0.181-0.173,0.336-0.299,0.47c-0.126,0.137-0.279,0.24-0.458,0.317
		c-0.179,0.078-0.375,0.116-0.586,0.116c-0.212,0-0.407-0.039-0.586-0.116s-0.332-0.181-0.458-0.311s-0.226-0.285-0.299-0.466
		c-0.073-0.179-0.11-0.368-0.11-0.572c0-0.203,0.037-0.396,0.11-0.574s0.173-0.335,0.299-0.47c0.126-0.136,0.279-0.24,0.458-0.317
		s0.374-0.116,0.586-0.116c0.211,0,0.407,0.039,0.586,0.116c0.179,0.078,0.332,0.182,0.458,0.313c0.126,0.13,0.228,0.285,0.299,0.47
		C300.207,93.755,300.244,93.948,300.244,94.152z"/>
	<path d="M313.66,81.297h-4.724v14.101h-2.197V81.297h-4.725v-1.854h11.646V81.297L313.66,81.297z"/>
	<path d="M327.331,89.171c0,0.952-0.134,1.825-0.403,2.618c-0.269,0.794-0.653,1.473-1.158,2.039
		c-0.507,0.565-1.119,1.005-1.845,1.318c-0.725,0.313-1.546,0.47-2.466,0.47c-0.879,0-1.667-0.136-2.362-0.409
		c-0.694-0.271-1.284-0.673-1.771-1.202c-0.484-0.527-0.854-1.184-1.11-1.965c-0.257-0.781-0.385-1.68-0.385-2.698
		c0-0.952,0.134-1.819,0.403-2.604c0.269-0.785,0.655-1.46,1.16-2.026c0.504-0.563,1.118-1.005,1.843-1.316
		c0.724-0.313,1.546-0.472,2.466-0.472c0.879,0,1.667,0.137,2.362,0.409c0.694,0.272,1.286,0.671,1.771,1.196
		c0.484,0.522,0.854,1.178,1.11,1.959C327.203,87.268,327.331,88.162,327.331,89.171z M325.159,89.27
		c0-0.759-0.083-1.418-0.25-1.983c-0.167-0.566-0.405-1.038-0.714-1.416c-0.312-0.379-0.688-0.664-1.129-0.854
		c-0.443-0.189-0.938-0.285-1.483-0.285c-0.635,0-1.178,0.124-1.629,0.372c-0.452,0.247-0.822,0.578-1.111,0.993
		s-0.5,0.897-0.635,1.446c-0.134,0.55-0.201,1.125-0.201,1.729c0,0.757,0.083,1.42,0.25,1.988c0.167,0.57,0.405,1.043,0.715,1.422
		c0.31,0.38,0.685,0.663,1.122,0.854c0.439,0.191,0.938,0.287,1.489,0.287c0.635,0,1.178-0.124,1.629-0.373
		c0.452-0.248,0.822-0.58,1.111-0.995s0.5-0.897,0.635-1.447C325.091,90.459,325.159,89.879,325.159,89.27z"/>
	<path d="M333.558,84.972v10.427h-2.147V83.141h8.875v1.831H333.558L333.558,84.972z"/>
	<path d="M355.531,93.567l-0.135,4.956h-1.94v-3.125h-8.936v3.125h-1.917l-0.121-4.956h0.17c0.31,0,0.603-0.049,0.879-0.146
		c0.277-0.098,0.533-0.283,0.77-0.556c0.237-0.273,0.453-0.651,0.653-1.135c0.199-0.484,0.378-1.111,0.537-1.882
		c0.158-0.77,0.297-1.701,0.415-2.802c0.117-1.099,0.218-2.398,0.299-3.906h7.568v10.427H355.531z M351.65,84.972h-3.418
		c-0.081,1.4-0.188,2.594-0.317,3.577c-0.13,0.985-0.283,1.813-0.458,2.479s-0.376,1.201-0.604,1.599
		c-0.229,0.399-0.479,0.712-0.757,0.94h5.556L351.65,84.972L351.65,84.972z"/>
	<path d="M365.774,95.398l-0.05-1.648c-0.669,0.659-1.347,1.135-2.032,1.428c-0.688,0.293-1.41,0.439-2.166,0.439
		c-0.7,0-1.3-0.09-1.795-0.271c-0.496-0.179-0.905-0.425-1.229-0.736c-0.322-0.313-0.558-0.684-0.708-1.105
		s-0.226-0.883-0.226-1.379c0-1.229,0.457-2.189,1.373-2.887c0.915-0.696,2.269-1.044,4.059-1.044h2.539V87.12
		c0-0.724-0.231-1.304-0.695-1.739c-0.465-0.436-1.172-0.651-2.125-0.651c-0.689,0-1.373,0.076-2.044,0.23
		c-0.672,0.155-1.363,0.375-2.081,0.659v-1.917c0.27-0.098,0.567-0.193,0.896-0.287c0.33-0.093,0.678-0.177,1.044-0.25
		s0.749-0.132,1.146-0.177c0.398-0.045,0.804-0.067,1.209-0.067c0.74,0,1.407,0.082,2.002,0.244
		c0.596,0.163,1.098,0.411,1.509,0.745c0.41,0.334,0.727,0.753,0.944,1.257c0.222,0.505,0.33,1.099,0.33,1.782v8.447L365.774,95.398
		L365.774,95.398z M365.539,89.819h-2.697c-0.527,0-0.983,0.053-1.366,0.159c-0.384,0.104-0.695,0.256-0.939,0.45
		c-0.244,0.196-0.426,0.431-0.543,0.702c-0.118,0.273-0.177,0.58-0.177,0.922c0,0.236,0.034,0.462,0.107,0.68
		c0.073,0.215,0.191,0.405,0.354,0.571c0.163,0.167,0.375,0.301,0.635,0.397c0.261,0.098,0.578,0.146,0.953,0.146
		c0.488,0,1.047-0.146,1.678-0.444c0.631-0.297,1.296-0.769,1.996-1.41L365.539,89.819L365.539,89.819z"/>
	<path d="M250.915,125.398h-2.124v-10.4h-5.604v10.4h-2.124V113.14h9.853V125.398L250.915,125.398z"/>
	<path d="M265.283,119.049c0,1.091-0.152,2.043-0.458,2.856c-0.305,0.813-0.727,1.489-1.263,2.024
		c-0.537,0.537-1.173,0.94-1.904,1.208c-0.732,0.27-1.526,0.403-2.38,0.403c-0.393,0-0.779-0.021-1.166-0.061
		c-0.386-0.041-0.779-0.11-1.178-0.208v5.127h-2.126v-17.261h1.894l0.134,2.053c0.61-0.838,1.261-1.428,1.953-1.766
		c0.691-0.338,1.44-0.507,2.246-0.507c0.7,0,1.313,0.146,1.843,0.439c0.53,0.293,0.974,0.706,1.331,1.237
		c0.358,0.533,0.626,1.178,0.806,1.931C265.194,117.281,265.283,118.121,265.283,119.049z M263.111,119.148
		c0-0.645-0.047-1.233-0.143-1.771c-0.093-0.537-0.24-0.997-0.443-1.379c-0.204-0.382-0.464-0.682-0.781-0.896
		c-0.317-0.217-0.696-0.323-1.135-0.323c-0.271,0-0.542,0.043-0.818,0.128c-0.277,0.086-0.563,0.228-0.859,0.428
		c-0.298,0.199-0.609,0.464-0.939,0.793c-0.329,0.33-0.684,0.739-1.056,1.229v5.943c0.391,0.163,0.801,0.291,1.231,0.387
		c0.432,0.093,0.854,0.14,1.271,0.14c1.146,0,2.046-0.389,2.696-1.166C262.784,121.879,263.111,120.709,263.111,119.148z"/>
	<path d="M270.849,113.14v8.632l5.349-8.632h2.024v12.258h-2.123v-8.63l-5.348,8.63h-2.024V113.14H270.849z"/>
	<path d="M291.822,124.946c-0.554,0.212-1.121,0.368-1.703,0.47c-0.582,0.104-1.182,0.152-1.8,0.152
		c-1.938,0-3.429-0.525-4.476-1.575c-1.045-1.05-1.566-2.583-1.566-4.604c0-0.968,0.148-1.847,0.452-2.637
		c0.301-0.789,0.724-1.465,1.27-2.024c0.545-0.563,1.196-0.995,1.953-1.302c0.757-0.306,1.591-0.458,2.502-0.458
		c0.635,0,1.229,0.045,1.782,0.136c0.553,0.09,1.082,0.234,1.587,0.438v2.026c-0.529-0.276-1.068-0.479-1.617-0.604
		c-0.55-0.126-1.117-0.188-1.703-0.188c-0.545,0-1.06,0.104-1.544,0.312c-0.484,0.207-0.91,0.506-1.274,0.897
		c-0.366,0.391-0.655,0.867-0.867,1.428c-0.212,0.562-0.317,1.196-0.317,1.904c0,1.479,0.36,2.59,1.08,3.326
		c0.721,0.735,1.719,1.104,2.997,1.104c0.578,0,1.137-0.065,1.679-0.195c0.541-0.13,1.063-0.323,1.568-0.586L291.822,124.946
		L291.822,124.946z"/>
	<path d="M306.691,114.972h-4.651v10.427h-2.147v-10.427h-4.65v-1.829h11.45L306.691,114.972L306.691,114.972z"/>
	<path d="M320.692,113.14l-4.177,10.964c-0.432,1.113-0.877,2.073-1.336,2.881c-0.46,0.806-0.963,1.467-1.508,1.981
		c-0.545,0.519-1.144,0.897-1.794,1.144c-0.649,0.244-1.379,0.366-2.185,0.366c-0.212,0-0.403-0.006-0.574-0.014
		s-0.358-0.021-0.563-0.037v-1.929c0.18,0.024,0.373,0.047,0.586,0.067c0.212,0.02,0.436,0.028,0.672,0.028
		c0.391,0,0.755-0.057,1.093-0.171c0.337-0.113,0.657-0.299,0.958-0.556c0.301-0.256,0.59-0.588,0.867-0.995
		c0.274-0.407,0.545-0.899,0.806-1.477l-4.896-12.258h2.418l3.101,8.105l0.623,1.904l0.708-1.953l2.869-8.059h2.33L320.692,113.14
		L320.692,113.14z"/>
	<path d="M333.386,125.398h-2.124v-10.4h-5.603v10.4h-2.124V113.14h9.851V125.398L333.386,125.398z"/>
	<path d="M345.154,125.398l-0.049-1.648c-0.667,0.659-1.347,1.135-2.032,1.428c-0.688,0.293-1.409,0.439-2.167,0.439
		c-0.699,0-1.298-0.09-1.794-0.271c-0.496-0.179-0.905-0.425-1.229-0.736c-0.32-0.313-0.558-0.684-0.708-1.105
		c-0.149-0.422-0.227-0.883-0.227-1.379c0-1.229,0.458-2.189,1.374-2.887c0.915-0.696,2.269-1.044,4.059-1.044h2.539v-1.074
		c0-0.724-0.229-1.304-0.694-1.739s-1.174-0.651-2.123-0.651c-0.692,0-1.374,0.076-2.045,0.23c-0.674,0.155-1.365,0.375-2.082,0.659
		v-1.917c0.27-0.098,0.566-0.193,0.896-0.287c0.33-0.093,0.678-0.177,1.044-0.25s0.749-0.132,1.147-0.177
		c0.396-0.045,0.802-0.067,1.208-0.067c0.739,0,1.406,0.082,2.002,0.244c0.595,0.163,1.097,0.411,1.508,0.745
		s0.727,0.753,0.946,1.257c0.22,0.505,0.327,1.099,0.327,1.782v8.447L345.154,125.398L345.154,125.398z M344.921,119.819h-2.697
		c-0.527,0-0.983,0.053-1.366,0.159c-0.384,0.104-0.695,0.256-0.939,0.45c-0.244,0.196-0.426,0.431-0.543,0.702
		c-0.118,0.273-0.178,0.58-0.178,0.922c0,0.236,0.037,0.462,0.108,0.68c0.073,0.215,0.191,0.405,0.354,0.571
		c0.162,0.167,0.374,0.301,0.635,0.397s0.577,0.146,0.951,0.146c0.488,0,1.048-0.146,1.679-0.444
		c0.631-0.297,1.296-0.769,1.996-1.41V119.819z"/>
	<path d="M353.321,113.14v8.632l5.347-8.632h2.026v12.258h-2.124v-8.63l-5.349,8.63h-2.024V113.14H353.321z M359.693,108.417
		c0,0.48-0.092,0.908-0.274,1.282c-0.184,0.375-0.438,0.694-0.77,0.958c-0.329,0.265-0.728,0.466-1.19,0.604
		c-0.463,0.141-0.977,0.208-1.537,0.208c-0.649,0-1.209-0.067-1.673-0.208c-0.464-0.138-0.845-0.34-1.142-0.604
		s-0.517-0.583-0.652-0.958c-0.139-0.374-0.208-0.801-0.208-1.282h1.929c0,0.236,0.028,0.456,0.086,0.659
		c0.059,0.204,0.152,0.384,0.286,0.543c0.137,0.158,0.315,0.283,0.544,0.372c0.229,0.09,0.514,0.134,0.854,0.134
		c0.351,0,0.642-0.044,0.873-0.134c0.23-0.089,0.417-0.214,0.556-0.372c0.139-0.159,0.236-0.34,0.293-0.543
		c0.059-0.203,0.085-0.423,0.085-0.659H359.693z"/>
	<path d="M375.414,114.972h-4.65v10.427h-2.146v-10.427h-4.652v-1.829h11.45L375.414,114.972L375.414,114.972z"/>
	<path d="M388.867,118.622c0,0.301-0.004,0.554-0.013,0.757c-0.01,0.204-0.021,0.396-0.036,0.574h-8.606
		c0,1.253,0.353,2.216,1.051,2.887c0.699,0.672,1.709,1.007,3.027,1.007c0.357,0,0.716-0.014,1.074-0.042
		c0.355-0.027,0.703-0.065,1.037-0.114c0.334-0.051,0.651-0.104,0.958-0.165c0.306-0.063,0.588-0.128,0.849-0.201v1.746
		c-0.578,0.163-1.229,0.295-1.959,0.396c-0.729,0.104-1.482,0.152-2.265,0.152c-1.05,0-1.953-0.144-2.71-0.427
		c-0.759-0.284-1.378-0.698-1.861-1.239c-0.484-0.542-0.843-1.205-1.074-1.99c-0.23-0.785-0.348-1.674-0.348-2.667
		c0-0.862,0.123-1.679,0.372-2.447c0.248-0.77,0.608-1.443,1.086-2.024c0.477-0.582,1.061-1.044,1.752-1.386
		c0.689-0.344,1.478-0.515,2.354-0.515c0.854,0,1.611,0.134,2.271,0.403c0.66,0.269,1.215,0.647,1.667,1.141
		c0.451,0.493,0.793,1.091,1.024,1.795C388.75,116.963,388.867,117.751,388.867,118.622z M386.657,118.318
		c0.025-0.545-0.028-1.044-0.158-1.495c-0.13-0.452-0.332-0.84-0.604-1.166c-0.272-0.325-0.612-0.58-1.021-0.763
		c-0.407-0.186-0.879-0.275-1.416-0.275c-0.465,0-0.888,0.09-1.27,0.269c-0.384,0.181-0.714,0.434-0.989,0.759
		c-0.276,0.324-0.501,0.716-0.671,1.172c-0.172,0.456-0.277,0.957-0.318,1.501L386.657,118.318L386.657,118.318z"/>
	<path d="M417.029,125.398h-2.917l-5.713-6.567v6.567h-2.124V113.14h2.124v5.604l5.505-5.604h2.809l-5.75,5.652L417.029,125.398z"/>
	<path d="M237.792,149.049c0,1.091-0.152,2.043-0.458,2.856c-0.305,0.813-0.728,1.489-1.263,2.024
		c-0.537,0.537-1.174,0.94-1.904,1.208c-0.732,0.27-1.526,0.403-2.38,0.403c-0.393,0-0.779-0.021-1.166-0.061
		c-0.386-0.041-0.779-0.11-1.178-0.208v5.127h-2.124v-17.261h1.892l0.134,2.053c0.61-0.838,1.261-1.428,1.953-1.766
		c0.691-0.338,1.44-0.507,2.246-0.507c0.7,0,1.314,0.146,1.843,0.439c0.529,0.293,0.974,0.706,1.331,1.237
		c0.358,0.533,0.626,1.178,0.806,1.931C237.703,147.281,237.792,148.121,237.792,149.049z M235.619,149.148
		c0-0.645-0.047-1.233-0.143-1.771c-0.093-0.537-0.24-0.997-0.443-1.379c-0.204-0.382-0.464-0.682-0.781-0.896
		c-0.317-0.217-0.696-0.323-1.135-0.323c-0.271,0-0.542,0.043-0.818,0.128c-0.277,0.086-0.563,0.228-0.86,0.428
		c-0.297,0.199-0.608,0.464-0.938,0.793c-0.329,0.33-0.682,0.739-1.056,1.229v5.943c0.391,0.163,0.801,0.291,1.231,0.387
		c0.431,0.093,0.854,0.14,1.271,0.14c1.146,0,2.046-0.389,2.696-1.166C235.294,151.879,235.619,150.709,235.619,149.148z"/>
	<path d="M243.36,143.14v8.632l5.347-8.632h2.024v12.258h-2.124v-8.63l-5.347,8.63h-2.024V143.14H243.36z"/>
	<path d="M264.33,154.946c-0.554,0.212-1.121,0.368-1.703,0.47c-0.582,0.104-1.182,0.152-1.8,0.152
		c-1.938,0-3.428-0.525-4.476-1.575c-1.045-1.05-1.566-2.583-1.566-4.604c0-0.968,0.148-1.847,0.452-2.637
		c0.301-0.789,0.724-1.465,1.27-2.024c0.545-0.563,1.196-0.995,1.953-1.302c0.757-0.306,1.591-0.458,2.502-0.458
		c0.635,0,1.229,0.045,1.782,0.136c0.553,0.09,1.082,0.234,1.587,0.438v2.026c-0.529-0.276-1.068-0.479-1.617-0.604
		c-0.55-0.126-1.117-0.188-1.703-0.188c-0.545,0-1.06,0.104-1.544,0.312c-0.482,0.207-0.908,0.506-1.274,0.897
		c-0.366,0.391-0.655,0.867-0.867,1.428c-0.212,0.562-0.317,1.196-0.317,1.904c0,1.479,0.36,2.59,1.08,3.326
		c0.723,0.735,1.72,1.104,2.997,1.104c0.578,0,1.139-0.065,1.68-0.195s1.063-0.323,1.567-0.586L264.33,154.946L264.33,154.946z"/>
	<path d="M279.224,149.171c0,0.952-0.135,1.825-0.402,2.618c-0.271,0.794-0.655,1.473-1.16,2.039
		c-0.505,0.565-1.119,1.005-1.843,1.318c-0.727,0.313-1.546,0.47-2.466,0.47c-0.881,0-1.667-0.136-2.362-0.409
		c-0.696-0.271-1.286-0.673-1.771-1.202c-0.482-0.527-0.854-1.184-1.108-1.965c-0.257-0.781-0.385-1.68-0.385-2.698
		c0-0.952,0.134-1.819,0.401-2.604c0.271-0.785,0.655-1.46,1.16-2.026c0.504-0.563,1.119-1.005,1.843-1.316
		c0.726-0.313,1.546-0.472,2.466-0.472c0.88,0,1.667,0.138,2.362,0.409c0.696,0.272,1.286,0.671,1.771,1.196
		c0.482,0.522,0.854,1.178,1.108,1.959C279.095,147.268,279.224,148.162,279.224,149.171z M277.05,149.27
		c0-0.759-0.083-1.418-0.25-1.983c-0.167-0.566-0.403-1.038-0.714-1.416c-0.31-0.379-0.686-0.664-1.129-0.854
		c-0.442-0.189-0.938-0.285-1.483-0.285c-0.635,0-1.178,0.124-1.629,0.372c-0.45,0.248-0.82,0.578-1.109,0.993
		s-0.5,0.897-0.636,1.446c-0.135,0.55-0.2,1.125-0.2,1.729c0,0.757,0.083,1.42,0.25,1.988c0.167,0.57,0.403,1.043,0.714,1.422
		c0.309,0.38,0.684,0.663,1.123,0.854c0.438,0.191,0.936,0.287,1.487,0.287c0.637,0,1.18-0.124,1.631-0.373
		c0.451-0.248,0.82-0.58,1.109-0.995s0.5-0.896,0.635-1.447C276.985,150.459,277.05,149.879,277.05,149.27z"/>
	<path d="M292.823,151.821c0,0.562-0.118,1.074-0.354,1.538c-0.234,0.464-0.603,0.859-1.099,1.188
		c-0.497,0.33-1.125,0.586-1.886,0.771c-0.762,0.183-1.666,0.272-2.716,0.272c-0.692,0-1.43-0.024-2.21-0.079
		c-0.78-0.053-1.533-0.124-2.259-0.214v-12.097c0.767-0.089,1.54-0.159,2.325-0.208c0.786-0.049,1.634-0.073,2.545-0.073
		c1.652,0,2.907,0.271,3.768,0.813c0.856,0.542,1.287,1.319,1.287,2.338c0,0.69-0.199,1.286-0.599,1.782
		c-0.397,0.496-1.001,0.861-1.807,1.099c0.391,0.065,0.767,0.173,1.129,0.323c0.362,0.149,0.682,0.346,0.958,0.586
		c0.275,0.24,0.499,0.521,0.666,0.849C292.739,151.035,292.823,151.406,292.823,151.821z M290.051,146.498
		c0-0.285-0.057-0.541-0.171-0.769c-0.112-0.229-0.295-0.425-0.543-0.586c-0.248-0.163-0.572-0.287-0.977-0.372
		c-0.402-0.086-0.889-0.128-1.458-0.128c-0.513,0-0.96,0.01-1.343,0.029c-0.385,0.021-0.763,0.057-1.137,0.104v3.54h2.467
		C288.996,148.318,290.051,147.711,290.051,146.498z M290.576,151.869c0-0.635-0.287-1.113-0.86-1.434
		c-0.572-0.322-1.467-0.482-2.68-0.482h-2.612v3.748c0.398,0.063,0.793,0.11,1.186,0.134c0.391,0.024,0.838,0.037,1.343,0.037
		c0.724,0,1.32-0.049,1.789-0.146c0.468-0.1,0.838-0.236,1.11-0.415c0.271-0.181,0.462-0.393,0.566-0.637
		C290.524,152.43,290.576,152.162,290.576,151.869z"/>
	<path d="M303.918,155.398l-0.049-1.648c-0.667,0.659-1.345,1.135-2.033,1.428c-0.688,0.293-1.41,0.439-2.167,0.439
		c-0.7,0-1.298-0.09-1.794-0.271c-0.497-0.179-0.905-0.425-1.227-0.736c-0.322-0.313-0.56-0.684-0.708-1.105
		c-0.151-0.423-0.228-0.883-0.228-1.379c0-1.229,0.458-2.189,1.374-2.887c0.915-0.696,2.27-1.044,4.061-1.044h2.539v-1.074
		c0-0.724-0.232-1.304-0.696-1.739c-0.464-0.435-1.172-0.651-2.124-0.651c-0.692,0-1.374,0.076-2.044,0.23
		c-0.672,0.155-1.366,0.375-2.082,0.659v-1.917c0.269-0.098,0.567-0.193,0.896-0.287c0.33-0.093,0.68-0.177,1.045-0.25
		s0.748-0.132,1.146-0.177s0.801-0.067,1.208-0.067c0.74,0,1.408,0.082,2.002,0.244c0.594,0.163,1.097,0.411,1.507,0.745
		c0.411,0.334,0.729,0.753,0.946,1.257c0.22,0.505,0.33,1.099,0.33,1.782v8.447L303.918,155.398L303.918,155.398z M303.688,149.819
		h-2.698c-0.529,0-0.985,0.053-1.367,0.159c-0.383,0.104-0.696,0.256-0.939,0.45c-0.243,0.196-0.426,0.431-0.543,0.702
		c-0.117,0.273-0.178,0.58-0.178,0.922c0,0.236,0.037,0.462,0.11,0.68c0.073,0.215,0.189,0.405,0.354,0.571
		c0.163,0.167,0.374,0.301,0.637,0.397c0.26,0.098,0.576,0.146,0.95,0.146c0.488,0,1.05-0.146,1.68-0.444
		c0.631-0.297,1.296-0.769,1.996-1.41L303.688,149.819L303.688,149.819z"/>
	<path d="M319.64,155.398h-2.122v-5.42h-5.604v5.42h-2.124V143.14h2.124v4.98h5.604v-4.98h2.122V155.398z"/>
	<path d="M325.829,143.14v8.632l5.347-8.632h2.026v12.258h-2.124v-8.63l-5.347,8.63h-2.026V143.14H325.829z"/>
	<path d="M340.576,148.318c0.049-0.952,0.165-1.77,0.348-2.447c0.186-0.68,0.446-1.237,0.788-1.673
		c0.342-0.437,0.762-0.757,1.257-0.964c0.496-0.208,1.074-0.313,1.733-0.313c0.74,0,1.359,0.124,1.855,0.372
		c0.494,0.249,0.896,0.629,1.194,1.144c0.3,0.513,0.519,1.162,0.647,1.951c0.13,0.79,0.193,1.728,0.193,2.81
		c0,2.197-0.324,3.815-0.977,4.856c-0.651,1.042-1.705,1.563-3.162,1.563c-0.771,0-1.408-0.13-1.904-0.392s-0.891-0.64-1.184-1.136
		s-0.497-1.099-0.611-1.807c-0.111-0.708-0.175-1.515-0.183-2.417h-2.222v5.53h-2.002v-12.258h2.002v5.178h2.226V148.318z
		 M346.581,149.27c0-1.692-0.146-2.899-0.438-3.619c-0.295-0.723-0.813-1.081-1.563-1.081c-0.334,0-0.625,0.078-0.873,0.23
		c-0.248,0.155-0.456,0.415-0.622,0.781c-0.167,0.366-0.293,0.853-0.379,1.453c-0.085,0.603-0.128,1.347-0.128,2.234
		c0,0.969,0.043,1.756,0.128,2.36c0.086,0.606,0.214,1.084,0.385,1.436c0.172,0.35,0.381,0.588,0.629,0.714s0.535,0.188,0.86,0.188
		c0.351,0,0.651-0.076,0.903-0.23s0.46-0.415,0.623-0.781c0.162-0.366,0.281-0.85,0.357-1.453
		C346.542,150.902,346.581,150.156,346.581,149.27z"/>
	<path d="M375.793,155.398h-2.918l-5.713-6.567v6.567h-2.124V143.14h2.124v5.604l5.506-5.604h2.808l-5.75,5.652L375.793,155.398z"/>
	<path d="M386.39,155.398l-0.05-1.648c-0.668,0.659-1.346,1.135-2.031,1.428c-0.688,0.293-1.41,0.439-2.166,0.439
		c-0.7,0-1.301-0.09-1.797-0.271c-0.494-0.179-0.903-0.425-1.227-0.736c-0.322-0.313-0.558-0.684-0.708-1.105
		c-0.151-0.423-0.226-0.883-0.226-1.379c0-1.229,0.456-2.189,1.372-2.887c0.914-0.696,2.27-1.044,4.06-1.044h2.539v-1.074
		c0-0.724-0.232-1.304-0.695-1.739c-0.465-0.436-1.172-0.651-2.125-0.651c-0.689,0-1.373,0.076-2.044,0.23
		c-0.672,0.155-1.365,0.375-2.081,0.659v-1.917c0.27-0.098,0.567-0.193,0.896-0.287c0.33-0.093,0.678-0.177,1.044-0.25
		s0.749-0.132,1.146-0.177c0.398-0.045,0.804-0.067,1.209-0.067c0.74,0,1.407,0.082,2.002,0.244
		c0.596,0.163,1.098,0.411,1.509,0.745c0.409,0.334,0.727,0.753,0.944,1.257c0.22,0.505,0.33,1.099,0.33,1.782v8.447L386.39,155.398
		L386.39,155.398z M386.157,149.819h-2.697c-0.529,0-0.983,0.053-1.367,0.159c-0.383,0.104-0.694,0.256-0.938,0.45
		c-0.244,0.196-0.426,0.431-0.543,0.702c-0.118,0.273-0.179,0.58-0.179,0.922c0,0.236,0.036,0.462,0.109,0.68
		c0.073,0.215,0.191,0.405,0.354,0.571c0.163,0.167,0.375,0.301,0.635,0.397c0.261,0.098,0.578,0.146,0.953,0.146
		c0.486,0,1.047-0.146,1.678-0.444c0.631-0.297,1.296-0.769,1.996-1.41L386.157,149.819L386.157,149.819z"/>
	<path d="M402.735,149.049c0,1.091-0.152,2.043-0.458,2.856c-0.307,0.813-0.729,1.489-1.266,2.024
		c-0.535,0.537-1.172,0.94-1.902,1.208c-0.732,0.27-1.525,0.403-2.38,0.403c-0.393,0-0.779-0.021-1.166-0.061
		c-0.389-0.041-0.779-0.11-1.18-0.208v5.127h-2.124v-17.261h1.895l0.134,2.053c0.61-0.838,1.262-1.428,1.953-1.766
		c0.689-0.338,1.438-0.507,2.246-0.507c0.699,0,1.313,0.146,1.843,0.439s0.973,0.706,1.331,1.237
		c0.357,0.533,0.627,1.178,0.806,1.931C402.646,147.281,402.735,148.121,402.735,149.049z M400.563,149.148
		c0-0.645-0.048-1.233-0.143-1.771c-0.094-0.537-0.242-0.997-0.443-1.379c-0.203-0.382-0.466-0.682-0.781-0.896
		c-0.317-0.217-0.695-0.323-1.135-0.323c-0.271,0-0.542,0.043-0.818,0.128c-0.276,0.086-0.563,0.228-0.86,0.428
		c-0.298,0.199-0.608,0.464-0.938,0.793c-0.329,0.33-0.684,0.739-1.058,1.229v5.943c0.393,0.163,0.804,0.291,1.233,0.387
		c0.431,0.093,0.854,0.14,1.27,0.14c1.146,0,2.048-0.389,2.697-1.166C400.237,151.879,400.563,150.709,400.563,149.148z"/>
	<path d="M416.651,144.972h-4.651v10.427h-2.146v-10.427h-4.65v-1.829h11.45L416.651,144.972L416.651,144.972z"/>
	<path d="M420.9,147.877c0.293-0.008,0.565-0.014,0.822-0.019c0.258-0.004,0.522-0.006,0.802-0.006c0.765,0,1.434,0.092,2.008,0.272
		c0.573,0.186,1.052,0.439,1.434,0.771c0.384,0.329,0.668,0.724,0.855,1.184c0.187,0.46,0.278,0.958,0.278,1.496
		c0,0.651-0.108,1.223-0.327,1.715c-0.223,0.492-0.533,0.905-0.94,1.239s-0.905,0.586-1.495,0.757
		c-0.591,0.171-1.292,0.256-2.104,0.256c-0.521,0-1.073-0.014-1.654-0.043c-0.582-0.028-1.174-0.087-1.776-0.177v-12.185h2.102
		v4.737L420.9,147.877L420.9,147.877z M424.903,151.637c0-0.643-0.201-1.142-0.604-1.493c-0.4-0.354-1.043-0.531-1.922-0.531
		c-0.236,0-0.477,0.004-0.721,0.012s-0.496,0.021-0.757,0.037v4.028c0.261,0.041,0.509,0.065,0.745,0.079
		c0.233,0.013,0.472,0.019,0.707,0.019c0.495,0,0.906-0.059,1.231-0.177s0.584-0.275,0.775-0.472
		c0.188-0.193,0.329-0.423,0.415-0.684S424.903,151.922,424.903,151.637z M428.443,155.398V143.14h2.1v12.258H428.443z"/>
	<path d="M271.533,185.398h-2.124v-10.4h-5.604v10.4h-2.123V173.14h9.851V185.398L271.533,185.398z"/>
	<path d="M285.902,179.049c0,1.091-0.152,2.043-0.458,2.856c-0.307,0.813-0.728,1.489-1.265,2.024
		c-0.535,0.537-1.172,0.94-1.902,1.208c-0.732,0.27-1.526,0.403-2.38,0.403c-0.393,0-0.779-0.021-1.166-0.061
		c-0.388-0.041-0.779-0.11-1.18-0.208v5.127h-2.124v-17.261h1.894l0.134,2.053c0.61-0.838,1.261-1.428,1.953-1.766
		c0.691-0.338,1.438-0.507,2.246-0.507c0.7,0,1.313,0.146,1.843,0.439s0.972,0.706,1.331,1.237c0.358,0.533,0.626,1.178,0.806,1.931
		C285.813,177.281,285.902,178.121,285.902,179.049z M283.73,179.148c0-0.645-0.049-1.233-0.143-1.771
		c-0.093-0.537-0.242-0.997-0.443-1.379c-0.204-0.382-0.466-0.682-0.781-0.896c-0.317-0.217-0.696-0.323-1.135-0.323
		c-0.271,0-0.542,0.043-0.818,0.128c-0.277,0.086-0.563,0.228-0.86,0.428c-0.297,0.199-0.608,0.464-0.938,0.793
		c-0.329,0.33-0.684,0.739-1.058,1.229v5.943c0.393,0.163,0.803,0.291,1.233,0.387c0.431,0.093,0.854,0.14,1.271,0.14
		c1.146,0,2.046-0.389,2.696-1.166C283.403,181.879,283.73,180.709,283.73,179.148z"/>
	<path d="M299.841,179.171c0,0.952-0.134,1.825-0.401,2.618c-0.271,0.794-0.655,1.473-1.16,2.039
		c-0.505,0.565-1.119,1.005-1.843,1.318c-0.727,0.313-1.547,0.47-2.468,0.47c-0.879,0-1.667-0.136-2.36-0.409
		c-0.696-0.271-1.286-0.673-1.771-1.202c-0.482-0.527-0.854-1.184-1.108-1.965c-0.259-0.781-0.387-1.68-0.387-2.698
		c0-0.952,0.136-1.819,0.403-2.604s0.655-1.46,1.16-2.026c0.504-0.563,1.119-1.005,1.843-1.316c0.724-0.313,1.546-0.472,2.466-0.472
		c0.879,0,1.667,0.138,2.362,0.409c0.696,0.272,1.286,0.671,1.771,1.196c0.484,0.522,0.854,1.178,1.11,1.959
		C299.713,177.268,299.841,178.162,299.841,179.171z M297.668,179.27c0-0.759-0.083-1.418-0.25-1.983
		c-0.167-0.566-0.405-1.038-0.714-1.416c-0.31-0.379-0.686-0.664-1.129-0.854c-0.443-0.189-0.938-0.285-1.483-0.285
		c-0.635,0-1.178,0.124-1.629,0.372c-0.452,0.248-0.82,0.578-1.109,0.993s-0.5,0.897-0.637,1.446
		c-0.134,0.55-0.199,1.125-0.199,1.729c0,0.757,0.083,1.42,0.25,1.988c0.167,0.57,0.403,1.043,0.714,1.422
		c0.309,0.38,0.684,0.663,1.123,0.854c0.438,0.191,0.936,0.287,1.487,0.287c0.637,0,1.18-0.124,1.63-0.373
		c0.451-0.248,0.821-0.58,1.11-0.995s0.5-0.896,0.635-1.447C297.603,180.459,297.668,179.879,297.668,179.27z"/>
	<path d="M314.136,183.567l-0.121,4.956h-1.93v-3.125h-9.265V173.14h2.124v10.427h5.591V173.14h2.124v10.427H314.136
		L314.136,183.567z"/>
	<path d="M327.015,178.622c0,0.301-0.005,0.554-0.013,0.757c-0.008,0.204-0.021,0.396-0.037,0.574h-8.604
		c0,1.253,0.35,2.216,1.05,2.887c0.7,0.672,1.709,1.007,3.027,1.007c0.356,0,0.716-0.014,1.072-0.042
		c0.358-0.027,0.704-0.065,1.038-0.114c0.333-0.051,0.653-0.104,0.958-0.165c0.308-0.063,0.588-0.128,0.851-0.201v1.746
		c-0.578,0.163-1.231,0.295-1.959,0.396c-0.729,0.104-1.483,0.152-2.267,0.152c-1.05,0-1.953-0.144-2.71-0.427
		c-0.757-0.284-1.377-0.698-1.859-1.239c-0.484-0.542-0.845-1.205-1.074-1.99c-0.232-0.785-0.35-1.674-0.35-2.667
		c0-0.862,0.124-1.679,0.373-2.447c0.248-0.77,0.61-1.443,1.086-2.024c0.479-0.582,1.062-1.044,1.752-1.386
		c0.691-0.344,1.479-0.515,2.356-0.515c0.854,0,1.611,0.134,2.271,0.403c0.658,0.269,1.214,0.647,1.667,1.141
		c0.449,0.493,0.793,1.091,1.023,1.795C326.9,176.963,327.015,177.751,327.015,178.622z M324.806,178.318
		c0.023-0.545-0.028-1.044-0.158-1.495c-0.131-0.452-0.332-0.84-0.604-1.166c-0.271-0.325-0.61-0.58-1.019-0.763
		c-0.407-0.186-0.879-0.275-1.416-0.275c-0.464,0-0.889,0.09-1.271,0.269c-0.383,0.181-0.712,0.434-0.988,0.759
		c-0.276,0.324-0.5,0.716-0.672,1.172c-0.171,0.456-0.275,0.957-0.315,1.501L324.806,178.318L324.806,178.318z"/>
	<path d="M339.929,184.946c-0.554,0.212-1.121,0.368-1.701,0.47c-0.582,0.104-1.184,0.152-1.802,0.152
		c-1.938,0-3.429-0.525-4.475-1.575c-1.045-1.05-1.568-2.583-1.568-4.604c0-0.968,0.15-1.847,0.452-2.637
		c0.301-0.789,0.726-1.465,1.271-2.024c0.545-0.563,1.194-0.995,1.951-1.302c0.759-0.306,1.593-0.458,2.504-0.458
		c0.635,0,1.229,0.045,1.78,0.136c0.556,0.09,1.082,0.234,1.587,0.438v2.026c-0.527-0.276-1.066-0.479-1.615-0.604
		c-0.551-0.126-1.117-0.188-1.703-0.188c-0.545,0-1.062,0.104-1.544,0.312c-0.484,0.207-0.91,0.506-1.276,0.897
		c-0.366,0.391-0.655,0.867-0.867,1.428c-0.212,0.562-0.315,1.196-0.315,1.904c0,1.479,0.358,2.59,1.08,3.326
		c0.721,0.735,1.719,1.104,2.997,1.104c0.576,0,1.137-0.065,1.679-0.195c0.541-0.13,1.063-0.323,1.566-0.586L339.929,184.946
		L339.929,184.946z"/>
	<path d="M353.674,184.946c-0.554,0.212-1.121,0.368-1.703,0.47c-0.581,0.104-1.182,0.152-1.801,0.152
		c-1.937,0-3.428-0.525-4.474-1.575s-1.568-2.583-1.568-4.604c0-0.968,0.15-1.847,0.452-2.637c0.301-0.789,0.724-1.465,1.271-2.024
		c0.546-0.563,1.194-0.995,1.952-1.302c0.758-0.306,1.593-0.458,2.502-0.458c0.637,0,1.229,0.045,1.782,0.136
		c0.555,0.09,1.082,0.234,1.587,0.438v2.026c-0.527-0.276-1.066-0.479-1.617-0.604c-0.55-0.125-1.115-0.188-1.701-0.188
		c-0.546,0-1.063,0.104-1.546,0.312c-0.482,0.207-0.907,0.506-1.274,0.897c-0.365,0.391-0.654,0.867-0.866,1.428
		s-0.316,1.196-0.316,1.904c0,1.479,0.359,2.59,1.079,3.326c0.723,0.735,1.722,1.104,2.997,1.104c0.578,0,1.139-0.065,1.681-0.195
		c0.541-0.13,1.063-0.323,1.566-0.586L353.674,184.946L353.674,184.946z"/>
	<path d="M368.568,179.171c0,0.952-0.135,1.825-0.402,2.618c-0.27,0.794-0.655,1.473-1.16,2.039
		c-0.505,0.565-1.119,1.005-1.844,1.318c-0.724,0.313-1.546,0.47-2.465,0.47c-0.879,0-1.667-0.136-2.362-0.409
		c-0.696-0.271-1.286-0.673-1.771-1.202c-0.484-0.527-0.854-1.184-1.11-1.965c-0.257-0.781-0.385-1.68-0.385-2.698
		c0-0.952,0.134-1.819,0.403-2.604c0.268-0.785,0.652-1.46,1.157-2.026c0.505-0.563,1.119-1.005,1.845-1.316
		c0.725-0.313,1.547-0.472,2.467-0.472c0.879,0,1.666,0.138,2.359,0.409c0.696,0.272,1.286,0.671,1.771,1.196
		c0.482,0.522,0.854,1.178,1.109,1.959C368.438,177.269,368.568,178.162,368.568,179.171z M366.396,179.27
		c0-0.759-0.084-1.418-0.25-1.983c-0.167-0.566-0.405-1.038-0.715-1.416c-0.311-0.379-0.688-0.664-1.131-0.854
		c-0.441-0.189-0.938-0.285-1.481-0.285c-0.635,0-1.178,0.124-1.629,0.372c-0.452,0.248-0.822,0.578-1.111,0.993
		s-0.5,0.897-0.635,1.446c-0.134,0.55-0.201,1.125-0.201,1.729c0,0.757,0.083,1.42,0.25,1.988c0.167,0.57,0.405,1.043,0.715,1.422
		c0.311,0.38,0.686,0.663,1.123,0.854c0.439,0.191,0.937,0.287,1.488,0.287c0.635,0,1.179-0.124,1.63-0.373
		c0.452-0.248,0.822-0.58,1.111-0.995c0.287-0.415,0.5-0.896,0.635-1.447C366.327,180.459,366.396,179.879,366.396,179.27z"/>
	<path d="M382.165,181.821c0,0.562-0.118,1.074-0.354,1.538c-0.236,0.464-0.604,0.859-1.1,1.188
		c-0.497,0.33-1.126,0.586-1.887,0.771c-0.761,0.183-1.666,0.272-2.716,0.272c-0.691,0-1.431-0.024-2.21-0.079
		c-0.781-0.053-1.533-0.124-2.26-0.214v-12.097c0.767-0.089,1.54-0.159,2.325-0.208s1.634-0.073,2.546-0.073
		c1.651,0,2.906,0.271,3.768,0.813c0.856,0.542,1.287,1.319,1.287,2.338c0,0.69-0.199,1.286-0.6,1.782
		c-0.396,0.496-1.001,0.861-1.807,1.099c0.391,0.065,0.767,0.173,1.129,0.323c0.362,0.149,0.682,0.346,0.959,0.586
		c0.276,0.24,0.498,0.521,0.665,0.849C382.081,181.035,382.165,181.406,382.165,181.821z M379.397,176.498
		c0-0.285-0.06-0.541-0.173-0.769c-0.112-0.229-0.296-0.425-0.544-0.586c-0.247-0.163-0.571-0.287-0.977-0.372
		c-0.402-0.086-0.889-0.128-1.459-0.128c-0.512,0-0.96,0.01-1.342,0.029c-0.383,0.021-0.763,0.057-1.136,0.104v3.54h2.466
		C378.34,178.318,379.397,177.711,379.397,176.498z M379.919,181.869c0-0.635-0.287-1.113-0.858-1.434
		c-0.574-0.322-1.469-0.482-2.682-0.482h-2.61v3.748c0.396,0.063,0.794,0.11,1.185,0.134c0.391,0.024,0.838,0.037,1.342,0.037
		c0.727,0,1.32-0.049,1.789-0.146c0.468-0.1,0.838-0.236,1.11-0.415c0.271-0.181,0.462-0.393,0.565-0.637
		C379.867,182.43,379.919,182.162,379.919,181.869z"/>
	<path d="M390.209,181.551c0.277,0,0.539,0.055,0.788,0.159c0.248,0.106,0.464,0.252,0.646,0.439
		c0.184,0.188,0.326,0.403,0.434,0.651c0.105,0.248,0.159,0.517,0.159,0.801c0,0.275-0.054,0.535-0.159,0.779
		s-0.25,0.458-0.434,0.643c-0.185,0.183-0.398,0.328-0.646,0.433c-0.249,0.105-0.511,0.159-0.788,0.159
		c-0.284,0-0.549-0.053-0.793-0.159c-0.244-0.104-0.458-0.25-0.641-0.433c-0.186-0.186-0.328-0.397-0.436-0.643
		c-0.104-0.244-0.158-0.504-0.158-0.779c0-0.285,0.055-0.553,0.158-0.801c0.105-0.249,0.25-0.466,0.436-0.651
		c0.183-0.188,0.396-0.333,0.641-0.439C389.661,181.606,389.925,181.551,390.209,181.551z"/>
</g>
</svg>
