<?xml version="1.0" encoding="utf-8"?>
<!-- Generator: Adobe Illustrator 15.1.0, SVG Export Plug-In . SVG Version: 6.00 Build 0)  -->
<!DOCTYPE svg PUBLIC "-//W3C//DTD SVG 1.1//EN" "http://www.w3.org/Graphics/SVG/1.1/DTD/svg11.dtd">
<svg version="1.1" id="Layer_1" xmlns="http://www.w3.org/2000/svg" xmlns:xlink="http://www.w3.org/1999/xlink" x="0px" y="0px"
	 width="484px" height="184px" viewBox="0 0 484 184" enable-background="new 0 0 484 184" xml:space="preserve">
<rect x="-666.206" y="-112.047" fill-rule="evenodd" clip-rule="evenodd" fill="none" width="1210.825" height="22.188"/>
<text transform="matrix(1.0391 0 0 1 -666.2061 -100.3174)" display="none" fill="#231F20" font-family="'Consolas'" font-size="17">R – Responsible – сотрудник, ответственный за фактическое исполнение KPI.</text>
<rect x="-708.206" y="-119.047" fill-rule="evenodd" clip-rule="evenodd" fill="none" width="1210.825" height="22.188"/>
<text transform="matrix(1.0391 0 0 1 -708.2061 -107.3174)" display="none" fill="#231F20" font-family="'Consolas'" font-size="17">R – Responsible – сотрудник, ответственный за фактическое исполнение KPI.</text>
<g>
	<g>
		<path fill="#5A6D77" d="M123.031,177.655c-0.203-2.48-2.276-4.433-4.809-4.433s-4.609,1.953-4.809,4.433H123.031z"/>
		<g>
			<rect x="122.369" y="125.367" fill="#5A6D77" width="54.155" height="3.38"/>
			<path fill="#3A8399" d="M179.08,122.553c0,1.553-1.453,2.813-3.248,2.813h-53.279c-1.794,0-3.247-1.26-3.247-2.813l0,0
				c0-1.556,1.453-2.816,3.247-2.816h53.279C177.627,119.737,179.08,120.998,179.08,122.553L179.08,122.553z"/>
			<path fill="#5A6D77" d="M121.161,175.652c-0.161,1.043-1.136,1.759-2.182,1.596l0,0c-1.043-0.161-1.755-1.136-1.595-2.18
				l7.158-46.394c0.16-1.041,1.136-1.756,2.18-1.596l0,0c1.04,0.162,1.757,1.137,1.595,2.179L121.161,175.652z"/>
			<path fill="#5A6D77" d="M176.367,175.652c0.161,1.043,1.133,1.759,2.178,1.596l0,0c1.044-0.161,1.759-1.136,1.595-2.18
				l-7.153-46.394c-0.162-1.041-1.137-1.756-2.18-1.596l0,0c-1.041,0.162-1.756,1.137-1.596,2.179L176.367,175.652z"/>
		</g>
		<path fill="#5A6D77" d="M174,177.655c0.198-2.48,2.271-4.433,4.804-4.433c2.533,0,4.61,1.953,4.806,4.433H174z"/>
		<path fill="#3A8399" d="M172.386,57.783h-23.591h-0.061H125.14c-3.015,0-5.455,2.234-5.455,4.991l6.885,51.883
			c0,2.754,2.445,4.988,5.459,4.988h16.706h0.061H165.5c3.015,0,5.458-2.234,5.458-4.988l6.887-51.883
			C177.845,60.017,175.399,57.783,172.386,57.783z"/>
	</g>
	<g>
		<path fill="#F7BFA0" d="M78.375,173.976C78.653,173.729,78.409,174.168,78.375,173.976c-0.07-0.413-0.013-1.208-0.432-1.227
			c-0.831-2.451-1.719-5.595-1.853-8.201c-0.303-5.344,6.803-23.032,7.99-26.204c0.602-1.603,3.569-11.827,5.953-19.463
			c0.145-0.329,0.263-0.681,0.34-1.048c0.565-2.743-1.192-5.424-3.936-5.991c-2.743-0.566-5.421,1.194-5.987,3.935
			c-0.068,0.319-0.1,0.639-0.106,0.956l-0.169-0.028c-0.256,2.221-0.902,4.21-1.423,4.885c-2.134,2.758-5.092,8.575-6.005,15.485
			l-0.888,19.72l-1.273,1.751l-0.058,0.03c-0.367,0.263-0.72,0.204-0.797,1.149l-1.299,1.792l1.636,3.03
			c0.096,4.237-0.995,9.871,4.656,10.5l0.041,0.105l2.524,1.308l1.328,0.087l0.868,0.257
			C79.487,176.804,78.99,175.668,78.375,173.976z"/>
		<path fill="#003645" d="M81.799,176.307c-1.18-1.408-3.765-3.347-3.765-3.347s-3.729,2.878-5.787-0.86
			c-2.006-3.644-0.097-6.701-1.69-10.661c-0.874-2.159-0.027-2.793,0.052-3.046c-1.231,0.164-3.657,0.981-3.446,4.906l0.08,0.214
			l-1.492,10.293l0.838,0.172l1.883-7.67c0.391,0.391,1.105,1.643,0.979,5.578c-0.113,3.527,2.701,4.295,2.701,4.295
			s6.775,1.722,9.22,1.442C81.37,177.622,82.977,177.722,81.799,176.307z"/>
		<path fill="#F1B190" d="M109.364,166.567c0.106-0.359,0.156-0.689,0.026-0.833c-0.279-0.311-0.674-0.188-1.037,0.018
			c-2.005-1.641-4.419-3.841-5.914-5.98c-3.079-4.376-6.399-23.149-7.064-26.466c-0.342-1.679-3.226-11.928-5.241-19.667
			c-0.051-0.361-0.135-0.717-0.265-1.074c-0.968-2.627-3.879-3.97-6.506-3.002c-2.628,0.968-3.971,3.878-3.003,6.506
			c0.11,0.307,0.251,0.592,0.416,0.865L80.616,117c0.96,2.019,1.461,4.049,1.374,4.899c-0.353,3.469,0.213,9.97,3.095,16.316
			l9.666,17.209l-0.153,2.165l-0.034,0.051c-0.173,0.418-0.501,0.552-0.069,1.395l-0.157,2.211l2.991,1.706
			c2.318,3.546,4.377,8.906,9.503,6.452l0.096,0.069l2.834-0.224l1.175-0.627l0.871-0.241
			C111.807,168.381,110.783,167.677,109.364,166.567z"/>
		<path fill="#003645" d="M113.403,166.442c-1.729-0.629-4.942-0.999-4.942-0.999s-1.771,4.368-5.433,2.173
			c-3.567-2.138-3.458-5.739-6.832-8.354c-1.84-1.428-1.427-2.402-1.487-2.659c-0.983,0.763-2.663,2.688-0.505,5.973l0.18,0.146
			l3.894,9.642l0.811-0.272l-2.236-7.578c0.53,0.141,1.786,0.864,3.652,4.324c1.68,3.107,4.502,2.352,4.502,2.352
			s6.718-1.924,8.688-3.399C113.694,167.79,115.132,167.065,113.403,166.442z"/>
		<path fill="#3E9DAE" d="M87.104,109.646l-0.249-0.02l0.087-0.154l-24.879-8.074c-0.597-0.833-1.273-1.597-2.023-2.285
			l-2.537-4.938l-18.476,3.112l-3.109,11.314c-0.059,0.542-0.093,1.089-0.093,1.647c0,0.555,0.034,1.104,0.093,1.645v0.015
			c0.803,7.462,6.961,13.267,14.443,13.267c0.562,0,1.118-0.035,1.664-0.1h26.203l0.031-0.057l0.084,0.08
			c0.85,0.614,3.443-2.471,5.791-6.896C86.102,114.505,87.275,111.04,87.104,109.646z"/>
		<path fill="#F7BFA0" d="M80.753,37.853c-1.502-3.623-0.412-6.968-0.412-6.968c2.616-1.134,3.948-4.125,4.544-6.715
			c0.644-2.815-1.116-5.481-3.309-7.341c-0.86-0.73-1.645-1.387-2.906-2.458c-0.333-0.343-0.693-0.667-1.095-0.944
			c-4.843-3.381-12.49-0.801-17.073,5.771c-4.356,6.246-4.375,13.833-0.205,17.475c-1.236,4.403-2.101,8.092-5.275,10.939
			l-0.161-0.05l-0.081,0.255l14.582,9.806c-0.244-1.008-2.773-7.917-2.88-8.938c-0.107-1.035-0.077-2.091,0.087-3.112
			c0.165-0.987,0.479-1.953,1.206-3.387c1.099,0.826,4.093,1.922,5.7,1.701c1.901-0.267,3.791-5.423,4.518-5.216
			C80.52,39.381,80.753,37.853,80.753,37.853z"/>
		<path fill="#571E0C" d="M82.754,17.954c0,0-2.635-8.392-11.231-9.083c-0.01-0.202-0.033-0.405-0.087-0.606
			c-0.644-2.517-4.273-3.762-8.114-2.781c-3.833,0.979-6.422,3.818-5.779,6.335c0.106,0.413,0.298,0.788,0.551,1.125
			c-7.127,5.96-3.894,15.968-3.894,15.968c2.068,5.806,5.424,7.539,7.611,8.032c1.462,0.329,3.027-4.576,3.389-5.489
			c0.311-0.769,0.628-2.621,1.351-3.087c1.137-0.735,2.319,1.509,2.169,1.612c2.721-1.93,3.366-2.411,7.685-3.623
			c2.502-0.701,5.241-0.701,7.882-0.176c0.076-0.21,0.145-0.431,0.198-0.671C84.483,25.509,87.417,21.17,82.754,17.954z"/>
		<path fill="#003645" d="M69.113,55.243c-4.896-2.542-8.848-6.487-11.484-11.178l-0.268-0.073c-2.479,2.919-4.28,4.344-5.669,6.427
			c-2.888,4.323-3.522,8.328-4.536,12.96c-1.4,6.4-0.191,13.164-2.249,19.44c-1.875,5.725-5.946,10.319-9.27,15.313
			c-0.256,0.17-0.439,0.368-0.547,0.589c-1.412,1.315-2.188,2.88-2.092,4.548c0.26,4.498,6.771,8.027,14.536,7.88
			c15.562-0.291,15.591-16.127,19.432-26.701c0.479-1.318,1.106-2.358,1.822-3.282c1.309-1.699,2.895-3.019,4.349-4.958
			c2.459-3.276,2.514-6.205,1.595-9.036C73.463,63.238,70.315,59.487,69.113,55.243z"/>
		<path fill="#5A6D77" d="M24.284,176.951c-0.199-2.479-2.275-4.433-4.809-4.433c-2.532,0-4.609,1.953-4.808,4.433H24.284z"/>
		<rect x="23.623" y="124.665" fill="#5A6D77" width="54.158" height="3.377"/>
		<path fill="#3A8399" d="M80.334,121.85c0,1.553-1.454,2.815-3.248,2.815H23.81c-1.799,0-3.247-1.263-3.247-2.815
			c0-1.555,1.448-2.813,3.247-2.813h53.276C78.88,119.036,80.334,120.294,80.334,121.85z"/>
		<path fill="#5A6D77" d="M22.414,174.949c-0.161,1.042-1.137,1.76-2.178,1.597c-1.043-0.163-1.759-1.137-1.594-2.179l7.153-46.393
			c0.16-1.045,1.136-1.759,2.18-1.6c1.045,0.16,1.761,1.14,1.596,2.178L22.414,174.949z"/>
		<path fill="#5A6D77" d="M77.62,174.949c0.161,1.042,1.137,1.76,2.177,1.597c1.046-0.163,1.76-1.137,1.6-2.179l-7.153-46.393
			c-0.161-1.045-1.141-1.759-2.185-1.6c-1.04,0.16-1.756,1.14-1.595,2.178L77.62,174.949z"/>
		<path fill="#5A6D77" d="M75.253,176.951c0.199-2.479,2.272-4.433,4.806-4.433c2.534,0,4.608,1.953,4.808,4.433H75.253z"/>
		<path fill="#3A8399" d="M18.903,60.571l-3.876,0.815l-0.011,0.001l-3.872,0.813c-0.498,0.105-0.437,2.375,0.126,5.072
			l11.802,50.538c0.57,2.698,1.427,4.798,1.924,4.692l2.743-0.573l0.007-0.003l2.747-0.578c0.497-0.104,0.437-2.372-0.127-5.069
			l-9.54-51.014C20.261,62.568,19.399,60.468,18.903,60.571z"/>
		<g>
			<path fill="#F5F5F5" d="M74.516,38.642c-0.18,1.817,0.255,3.304,1.071,3.442c0.816,0.142,1.727-1.114,2.165-2.884L74.516,38.642z
				"/>
		</g>
		<path fill="#1D183C" d="M77.912,31.669c0,0.53-0.406,0.961-0.911,0.961c-0.503,0-0.914-0.431-0.914-0.961
			c0-0.534,0.411-0.966,0.914-0.966C77.506,30.703,77.912,31.135,77.912,31.669z"/>
		<path fill="none" stroke="#571E0C" stroke-linecap="round" stroke-miterlimit="10" d="M74.832,28.704
			c0.693-1.161,4.051-1.5,4.834,0"/>
	</g>
	<g>
		<path fill="#F0C9A9" d="M416.693,56.884c0,0,1.515-21.776-3.273-18.017c0,0-2.334,2.947-4.209,3.288c0,0-1.293-0.679-2.948-3.066
			l2.038-1.394l-2.038,1.394l-1.306-2.203c0,0-2.371-1.198-3.399-0.746c-0.908,0.405-0.434-1.183,1.063-5.329
			c0,0,0.152-0.599-1.787-3.569c-2.062-3.171-2.249-7.999-2.249-7.999s2.797,0.8,4.296-1.354
			c4.693-6.767,11.488-11.529,14.854-7.872c0,0,7.264,1.151,6.572,9.143c-0.681,7.977-0.352,12.112-0.627,13.889
			c-0.322,2.165,0.462,4.043,1.563,6.989c0,0,2.513,12.161,4.07,14.341L416.693,56.884z"/>
		<path fill="#002A35" d="M393.363,129.925c0,0,39.68-6.886,43.498-9.633c3.81-2.75,9.613-5.613,7.068-15.488
			c-2.544-9.877-21.754-5.042-22.171-4.935c-0.41,0.11-32.019,15.991-32.019,15.991L393.363,129.925z"/>
		<path fill="#03323D" d="M384.264,118.985c2.307-3.237,6.801-4.016,10.063-1.727c2.659,1.862,3.688,5.19,2.758,8.132l0.399,0.198
			c-1.538,2.333-3.109,4.633-4.694,6.923l-0.042-0.027l-2.019,3.041c-0.437,0.628-0.866,1.259-1.298,1.887
			c-1.067,1.571-2.1,3.163-3.121,4.757l-20.267,30.485l-8.638-4.317l17.485-32.047l9.181-17.401L384.264,118.985z"/>
		<path fill="#231F20" d="M347.448,166.862l11.563-4.36l1.811,2.777l-0.361,1.771l8.24,1.683c0.355,0.619,0.498,1.296,0.363,1.97
			l-0.382,1.859c-0.123,0.622-0.478,1.151-0.976,1.568l-0.412,2.02l-8.987-1.836l0.238-1.165c-1.057-0.056-2.296,0.021-3.834,0.385
			l-0.106,0.022l-13.998-2.861c-1.024-0.458-1.862-0.909-2.4-1.308C335.593,167.443,347.448,166.862,347.448,166.862z"/>
		<path fill="#002A35" d="M390.299,125.556c0,0,40.228,1.912,44.547,0.061c4.322-1.854,10.604-3.385,10.27-13.579
			c-0.332-10.191-20.139-9.651-20.56-9.638c-0.433,0.014-34.73,8.64-34.73,8.64L390.299,125.556z"/>
		<path fill="#002A35" d="M394.339,110.021c4.001,0.237,7.043,3.672,6.81,7.673l-0.02,0.208l0.187,0.002
			c-0.358,2.766-0.772,5.524-1.188,8.274l-0.054-0.007l-0.489,3.619c-0.111,0.755-0.227,1.51-0.338,2.266
			c-0.274,1.88-0.509,3.762-0.729,5.642l-4.904,36.276l-9.659-0.105l1.725-36.469C385.903,130.485,382.124,109.291,394.339,110.021z
			"/>
		<path fill="#2B2726" d="M405.861,19.585"/>
		<path fill="#5B4B43" d="M395.77,18.159c0.065,1.316,6.461-6.391,6.781-6.655c2.506-2.042,5.211-3.461,8.405-4.449
			c16.276-5.039,17.336,12.321,15.454,18.174c-1.204,3.758-0.237,3.007-2.556,10.72c-2.731-1.018-3.358-3.972-3.358-3.972
			c-0.37-1.722,1.714-6.104-0.161-7.602c-2.78-2.23-3.794,3.416-3.702,5.171c-0.631-0.394-1.37-1.029-1.726-1.706l-0.062-0.087
			c-1.182-1.668-1.373-6.596-2.59-8.167c-1.128-1.461-5.106-0.448-6.574,0.09c-2.266,0.828-4.786,3.291-7.289,1.995
			C397.422,21.17,395.831,19.347,395.77,18.159z"/>
		<path fill="#E7F4F7" d="M411.912,68.149c-0.161-1.465-0.326-2.93-0.485-4.395c-0.203-1.847-0.406-3.7-0.608-5.543
			c0.187-3.681,5.076-10.163,5.727-13.25c2.346-1.293,0,0,1.97-1.714c2.288-1.989,4.388-4.208,6.718-6.147l0.344,0.417
			c0,0,3.336,0.78,7.903,4.269c4.204,3.224,5.118,9.04,5.593,13.751c0.734,7.342,0.841,14.82,1.445,22.168
			c0.268,3.237,0.805,6.54,1.405,9.728c0.508,2.739,2.363,11.082,2.256,13.8c-0.294,7.198-25.736,6.918-28.923,7.37L411.912,68.149z
			"/>
		<path fill="#231F20" d="M373.869,169.778l10.638-6.302l2.262,2.419l-0.054,1.807l8.416,0.223c0.455,0.551,0.716,1.194,0.696,1.879
			l-0.055,1.897c-0.015,0.633-0.271,1.216-0.691,1.718l-0.054,2.058l-9.166-0.245l0.031-1.19c-1.048,0.129-2.257,0.421-3.703,1.044
			l-0.107,0.042l-14.279-0.382c-1.087-0.273-1.997-0.575-2.593-0.873C362.293,172.415,373.869,169.778,373.869,169.778z"/>
		<path fill="#5A6D77" d="M459.783,177.655c0.202-2.48,2.276-4.433,4.811-4.433c2.53,0,4.607,1.953,4.806,4.433H459.783z"/>
		<rect x="406.289" y="125.367" fill="#5A6D77" width="54.154" height="3.38"/>
		<path fill="#3A8399" d="M403.733,122.553c0,1.553,1.457,2.813,3.248,2.813h53.278c1.795,0,3.248-1.26,3.248-2.813
			c0-1.556-1.453-2.816-3.248-2.816h-53.278C405.19,119.737,403.733,120.998,403.733,122.553z"/>
		<path fill="#5A6D77" d="M461.65,175.652c0.163,1.043,1.139,1.759,2.182,1.596c1.046-0.161,1.757-1.136,1.597-2.18l-7.154-46.394
			c-0.163-1.041-1.135-1.756-2.18-1.596c-1.045,0.162-1.759,1.137-1.599,2.179L461.65,175.652z"/>
		<path fill="#5A6D77" d="M406.446,175.652c-0.161,1.043-1.138,1.759-2.177,1.596c-1.045-0.161-1.76-1.136-1.599-2.18l7.157-46.394
			c0.16-1.041,1.139-1.756,2.18-1.596c1.045,0.162,1.756,1.137,1.6,2.179L406.446,175.652z"/>
		<path fill="#5A6D77" d="M408.818,177.655c-0.203-2.48-2.276-4.433-4.809-4.433c-2.534,0-4.609,1.953-4.809,4.433H408.818z"/>
		<path fill="#3A8399" d="M465.164,61.275l3.876,0.815h0.008l3.874,0.814c0.498,0.104,0.441,2.373-0.125,5.071l-11.801,50.538
			c-0.567,2.699-1.428,4.796-1.921,4.694l-2.747-0.574l-0.008-0.004l-2.746-0.578c-0.493-0.103-0.437-2.371,0.126-5.068l9.54-51.014
			C463.811,63.271,464.671,61.171,465.164,61.275z"/>
		<g>
			<path fill="#F5F5F5" d="M404.52,36.995c0.865,1.607,1.969,2.628,2.601,2.334c0.633-0.292,0.569-1.797-0.093-3.494L404.52,36.995z
				"/>
		</g>
		<path fill="#1D183C" d="M406.412,28.002c0,0.53-0.408,0.961-0.916,0.961c-0.505,0-0.911-0.431-0.911-0.961
			c0-0.534,0.406-0.966,0.911-0.966C406.004,27.037,406.412,27.469,406.412,28.002z"/>
		<path fill="none" stroke="#43322D" stroke-linecap="round" stroke-miterlimit="10" d="M402.666,25.333
			c0.693-1.161,4.051-1.5,4.834,0"/>
	</g>
	<g>
		<g>
			<path fill="#055E73" d="M175.706,79.931l-8.564-17.917l-2.073-4.158c0,0-6.243-8.641,1.529-13.482c0,0,6.347-3.7,9.848,4.965
				c1.529,3.797,2.562,9.72,2.562,9.72l5.097,17.943C181.371,78.156,178.54,79.069,175.706,79.931z"/>
			<path fill="#055E73" d="M179.99,83.092c2.472,0,4.468-1.995,4.464-4.457c-0.007-2.464-2.02-4.453-4.49-4.449
				c-2.472,0-4.469,1.997-4.46,4.452C175.511,81.102,177.52,83.095,179.99,83.092z"/>
		</g>
		<path fill="#085368" d="M172.664,113.709c0,2.747-4.016,4.975-8.973,4.975H139.84c-4.958,0-8.974-2.228-8.974-4.975l0,0
			c0-2.75,4.016-4.98,8.974-4.98h23.852C168.648,108.729,172.664,110.958,172.664,113.709L172.664,113.709z"/>
		<g>
			<path fill="#055E73" d="M126.754,79.931l8.56-17.917l2.075-4.158c0,0,6.247-8.641-1.527-13.482c0,0-6.35-3.7-9.85,4.965
				c-1.526,3.797-2.563,9.72-2.563,9.72l-5.095,17.943C121.084,78.156,123.91,79.069,126.754,79.931z"/>
			<path fill="#055E73" d="M122.469,83.092c-2.475,0-4.468-1.995-4.465-4.457c0.006-2.464,2.017-4.453,4.488-4.449
				c2.471,0,4.468,1.997,4.46,4.452C126.948,81.102,124.936,83.095,122.469,83.092z"/>
		</g>
		<g>
			<ellipse fill="#EDD3AF" cx="140.917" cy="23.25" rx="3.083" ry="4.25"/>
			<ellipse fill="#EDD3AF" cx="161.416" cy="23.25" rx="3.083" ry="4.25"/>
			<ellipse fill="#EDD3AF" cx="151" cy="21.75" rx="11.167" ry="14.417"/>
			<path fill="#EDD3AF" d="M167.375,43.095c0,0,1.009,0.668,2.126,1.766H132.2c1.116-1.098,2.123-1.766,2.123-1.766l10.191-0.73
				c4.697-5.988-0.842-13.907-0.842-13.907h14.353c0,0-5.539,7.918-0.838,13.907L167.375,43.095z"/>
			<path fill="#43322D" d="M144.892,7.113c0.875-2.093,2.205-3.187,4.804-3.173c3.942,0.018,11.346,2.121,13.665,5.164
				c1.938,2.54,1.103,5.614,0.115,8.302c-0.563,1.53-1.296,3.021-1.599,4.611c-0.194,1.038-0.026,2.149,0.049,3.193
				c-0.278-1.556-0.888-3.11-1.174-4.685c-0.245-1.362-0.088-2.794-0.614-4.098c-0.069,0.205-0.175,0.41-0.322,0.617
				c-0.014-0.05-0.033-0.099-0.053-0.153c-0.227,0.474-0.47,1.005-0.766,1.428c-0.491-1.335,0.253-2.644-1.518-3.667
				c-0.117-0.067-0.244-0.123-0.37-0.174c0.674,1.31,0.639,2.89-0.354,4.104c0.744-1.781-1.069-3.467-2.949-4.509
				c-0.621-0.006-1.231-0.016-1.766-0.089c-2.799-0.376-7.118,0.011-6.83-3.495l-0.236,0.821c-1.378,2.223-3.437,4.315-3.52,7.018
				c-0.048,1.467,0.313,2.83,0.234,4.286c-0.066,1.2-0.54,2.474-0.888,3.594c0.077-4.743-3.78-8.66-3.872-13.359
				C136.852,8.518,139.414,3.238,144.892,7.113z"/>
			<g>
				<path fill="#F5F5F5" d="M147.684,28.879c0.298,1.82,1.794,3.202,3.604,3.189c1.81-0.01,3.294-1.411,3.571-3.23L147.684,28.879z"
					/>
			</g>
			<path fill="#1D183C" d="M148.08,21.169c0,0.53-0.406,0.961-0.911,0.961c-0.503,0-0.914-0.431-0.914-0.961
				c0-0.534,0.411-0.966,0.914-0.966C147.674,20.203,148.08,20.635,148.08,21.169z"/>
			<path fill="#1D183C" d="M156.58,21.169c0,0.53-0.408,0.961-0.916,0.961c-0.505,0-0.911-0.431-0.911-0.961
				c0-0.534,0.406-0.966,0.911-0.966C156.172,20.203,156.58,20.635,156.58,21.169z"/>
			<path fill="none" stroke="#43322D" stroke-linecap="round" stroke-miterlimit="10" d="M154.001,18.167
				c0.693-1.161,4.051-1.5,4.834,0"/>
			<path fill="none" stroke="#43322D" stroke-linecap="round" stroke-miterlimit="10" d="M144.168,18.167
				c0.693-1.161,4.051-1.5,4.834,0"/>
		</g>
		<g>
			<polygon fill="#D3E1E1" points="151.116,47.462 157.506,41.211 157.506,101.895 151.357,101.895 150.88,101.895 144.726,101.895 
				144.726,41.211 			"/>
			<polygon fill="#95479A" points="152.456,47.198 153.795,44.865 152.456,42.527 149.777,42.527 148.435,44.865 149.777,47.198 			
				"/>
			<polygon fill="#95479A" points="151.079,98.521 153.775,89.87 152.447,47.198 149.793,47.198 148.462,89.87 151.079,98.521 			
				"/>
			<g>
				<polygon fill="#FFFFFF" points="157.506,41.211 152.789,46.272 151.155,42.527 155.812,37.843 				"/>
				<polygon fill="#FFFFFF" points="146.427,37.843 151.079,42.527 149.449,46.272 144.726,41.211 				"/>
			</g>
		</g>
		<path fill="#025677" d="M171.598,66.719c0,0-4.747,21.885-1.114,33.372c4.281,13.549,0.743,12.027,0.743,12.027
			s-16.839,7.115-20.183-3.684V66.719c0,0,9.219-18.792,5.976-27.137l14.578,4.317C171.598,43.899,167.336,54.45,171.598,66.719z"/>
		<path fill="#025677" d="M130.495,66.719c0,0,3.281,21.52,1.112,33.372c-2.135,11.635-0.741,12.027-0.741,12.027
			s16.831,7.115,20.178-3.684V66.719c0,0-9.212-18.792-5.971-27.137l-14.578,4.317C130.495,43.899,134.752,54.45,130.495,66.719z"/>
		<g>
			<rect x="155.528" y="95.638" fill="#556973" width="13.392" height="1.117"/>
			<rect x="155.528" y="95.08" fill="#627883" width="13.392" height="1.113"/>
		</g>
		<g>
			<rect x="133.475" y="95.638" fill="#556973" width="13.393" height="1.117"/>
			<rect x="133.475" y="95.08" fill="#8AA1AA" width="13.393" height="1.113"/>
		</g>
		<g>
			<g>
				<path fill="#627883" d="M147.552,70.239c0,0.692,0.563,1.258,1.255,1.258s1.259-0.566,1.259-1.258
					c0-0.695-0.566-1.259-1.259-1.259S147.552,69.543,147.552,70.239z"/>
				<circle fill="#627883" cx="148.809" cy="78.617" r="1.257"/>
				<path fill="#627883" d="M147.552,86.998c0,0.691,0.563,1.26,1.255,1.26s1.259-0.568,1.259-1.26c0-0.693-0.566-1.256-1.259-1.256
					S147.552,86.305,147.552,86.998z"/>
			</g>
			<g>
				<circle fill="#627883" cx="148.809" cy="87.077" r="1.257"/>
				<path fill="#627883" d="M147.552,95.461c0,0.69,0.563,1.257,1.255,1.257s1.259-0.567,1.259-1.257
					c0-0.701-0.566-1.262-1.259-1.262S147.552,94.76,147.552,95.461z"/>
				<path fill="#627883" d="M147.552,103.84c0,0.695,0.563,1.254,1.255,1.254s1.259-0.559,1.259-1.254
					c0-0.697-0.566-1.256-1.259-1.256S147.552,103.143,147.552,103.84z"/>
			</g>
		</g>
		<path fill="#00B3CD" d="M151.029,68.153c0,0,8.473-25.764,4.858-29.624c0,0,1.618-0.723,7.248,3.324
			C168.192,45.484,151.029,68.153,151.029,68.153z"/>
		<path fill="#00B3CD" d="M151.116,68.153c0,0-8.277-25.699-4.636-29.585c0,0-1.613-0.71-7.276,3.38
			C134.121,45.62,151.116,68.153,151.116,68.153z"/>
		<g>
			<path fill="#595856" d="M174.594,102.753c0,0.613-0.494,1.102-1.099,1.102h-44.183c-0.605,0-1.098-0.489-1.098-1.102V77.409
				c0-0.606,0.492-1.1,1.098-1.1h44.183c0.604,0,1.099,0.494,1.099,1.1V102.753z"/>
			<path fill="#63605F" d="M172.989,101.035c0,0.559-0.458,1.015-1.028,1.015h-41.118c-0.566,0-1.026-0.456-1.026-1.015V77.713
				c0-0.557,0.46-1.01,1.026-1.01h41.118c0.57,0,1.028,0.453,1.028,1.01V101.035z"/>
			<g>
				<path fill="#595856" d="M174.594,93.873c0,0.411-0.494,0.747-1.099,0.747h-44.183c-0.605,0-1.098-0.336-1.098-0.747V76.665
					c0-0.413,0.492-0.749,1.098-0.749h44.183c0.604,0,1.099,0.336,1.099,0.749V93.873z"/>
				<path fill="#906143" d="M172.989,92.708c0,0.376-0.458,0.684-1.028,0.684h-41.118c-0.566,0-1.026-0.307-1.026-0.684V76.871
					c0-0.379,0.46-0.688,1.026-0.688h41.118c0.57,0,1.028,0.309,1.028,0.688V92.708z"/>
			</g>
			<path fill="#FFE9C8" d="M132.862,103.415h-2.919c-0.592,0-1.067-0.493-1.067-1.098v-2.077h-0.661v2.513
				c0,0.613,0.492,1.102,1.098,1.102h3.55V103.415z"/>
			<path fill="#FFE9C8" d="M174.222,100.24v2.077c0,0.604-0.478,1.098-1.067,1.098h-1.9v0.44h2.527c0.608,0,1.103-0.489,1.103-1.102
				v-2.513H174.222z"/>
			<path fill="#906143" d="M160.431,69.653h-18.055c-0.607,0-1.102,0.489-1.102,1.102v14.624c0,0.608,0.494,1.098,1.102,1.098h1.078
				V73.501c0-0.605,0.387-1.1,0.861-1.1h14.177c0.479,0,0.861,0.495,0.861,1.1v12.975h1.077c0.605,0,1.103-0.489,1.103-1.098V70.755
				C161.533,70.143,161.036,69.653,160.431,69.653z"/>
		</g>
		<g>
			<path fill="#584947" d="M175.029,170.561l-3.113-5.949l-11.863,2.523c0,0-0.218,3.574,1.018,4.183
				c1.232,0.604,3.213,0.301,4.751,2.927c1.541,2.62,9.375,3.301,12.334,2.421C181.104,175.794,175.029,170.561,175.029,170.561z"/>
			<g>
				<path fill="#085368" d="M162.195,101.552c4.706-0.367,8.894,4.14,9.354,10.063c0.06,0.823,0.049,1.627-0.032,2.408l0.318-0.022
					l2.026,52.216l-13.35,1.041l-5.527-51.653c-0.245-0.846-0.409-1.737-0.482-2.664
					C154.043,107.015,157.485,101.916,162.195,101.552z"/>
				<path fill="#03465F" d="M161.725,101.587c0.126-0.01,0.261-0.016,0.39-0.017l5.064,65.166l-7.137,0.555l-5.532-51.652
					c-0.241-0.842-0.405-1.739-0.478-2.661C153.568,107.053,157.013,101.956,161.725,101.587z"/>
			</g>
		</g>
		<g>
			<path fill="#584947" d="M132.289,171.162l2.643-6.177l12.023,1.599c0,0,0.489,3.546-0.692,4.246
				c-1.178,0.7-3.184,0.551-4.511,3.29c-1.334,2.731-9.093,4.017-12.107,3.37C126.635,176.846,132.289,171.162,132.289,171.162z"/>
			<g>
				<path fill="#085368" d="M139.732,101.361c-4.72,0-8.541,4.816-8.541,10.759c0,0.824,0.075,1.627,0.214,2.4h-0.317l2.027,52.216
					h13.389l1.511-51.925c0.18-0.86,0.271-1.763,0.271-2.69C148.286,106.177,144.457,101.361,139.732,101.361z"/>
				<path fill="#03465F" d="M140.207,101.361c-0.129,0-0.264,0.004-0.395,0.011v65.364h7.165l1.511-51.925
					c0.177-0.86,0.269-1.763,0.269-2.69C148.757,106.177,144.932,101.361,140.207,101.361z"/>
			</g>
		</g>
		<g>
			<g>
				<path fill="#FBC28B" d="M143.402,97.761c0,0,2.872,1.588,4.106,4.079c0,0,0.908,0.974,1.653,1.266c0,0-1.266,1.388-2.322,0.222
					c0,0-0.765-1.773-2.459-1.232c0,0-1.782-0.203-2.602-1.435c-0.819-1.224-0.666-2.238-0.386-2.834
					C141.394,97.827,142.544,97.257,143.402,97.761z"/>
				<path fill="#FBC28B" d="M135.055,96.671c0.076,0.096,2.153,3.434,2.153,3.434s0,0,0.444,1.176
					c0.443,1.179,0.998,3.762,1.675,4.492c0.678,0.729,6.646,0.516,6.646,0.516c-0.059-2.881-2.57-8.528-2.57-8.528
					s-1.555-0.937-2.564-1.631c-0.401-0.274-2.146-1.888-2.83-2.555L135.055,96.671z"/>
				<g>
					<path fill="#FBC28B" d="M145.783,105.094c-0.156-0.559-0.592-0.862-0.967-0.674l0,0c-0.382,0.183-0.559,0.784-0.401,1.344
						l1.247,4.367c0.16,0.563,0.597,0.863,0.976,0.675l0,0c0.378-0.183,0.559-0.78,0.397-1.339L145.783,105.094z"/>
					<path fill="#FBC28B" d="M143.898,105.191c-0.18-0.619-0.628-0.974-1.006-0.792l0,0c-0.382,0.187-0.544,0.837-0.364,1.457
						l1.385,4.866c0.182,0.619,0.632,0.979,1.007,0.792l0,0c0.379-0.18,0.543-0.833,0.371-1.458L143.898,105.191z"/>
					<path fill="#FBC28B" d="M142.258,105.445c-0.135-0.48-0.555-0.721-0.934-0.534l0,0c-0.379,0.18-0.57,0.721-0.432,1.203
						l1.077,3.772c0.139,0.49,0.556,0.727,0.935,0.541l0,0c0.378-0.188,0.573-0.723,0.436-1.205L142.258,105.445z"/>
					<path fill="#FBC28B" d="M140.437,104.747c-0.111-0.402-0.509-0.574-0.883-0.391l0,0c-0.383,0.188-0.598,0.654-0.483,1.056
						l0.888,3.11c0.115,0.394,0.509,0.568,0.892,0.382l0,0c0.375-0.182,0.589-0.654,0.479-1.052L140.437,104.747z"/>
				</g>
			</g>
			<g>
				<path fill="#055E73" d="M142.098,96.908l-9.441-11.4c0,0-2.869-4.14-5.298-6.597c-5.547-5.608-8.509-1.427-8.509-1.427
					c-3.503,5.348,3.902,10.314,3.902,10.314l2.931,2.604l11.947,10.909L142.098,96.908z"/>
				<path fill="#046380" d="M141.989,97.017c-0.968-0.643-2.13-0.881-3.145-0.539c-1.68,0.564-2.302,2.492-1.398,4.307
					c0.075,0.158,0.167,0.306,0.259,0.45L141.989,97.017z"/>
			</g>
		</g>
		<g>
			<g>
				<path fill="#FBC28B" d="M159.054,97.761c0,0-2.868,1.588-4.107,4.079c0,0-0.91,0.974-1.649,1.266c0,0,1.263,1.388,2.318,0.222
					c0,0,0.766-1.773,2.465-1.232c0,0,1.781-0.203,2.597-1.435c0.818-1.224,0.669-2.238,0.386-2.834
					C161.063,97.827,159.915,97.257,159.054,97.761z"/>
				<path fill="#FBC28B" d="M167.405,96.671c-0.08,0.096-2.157,3.434-2.157,3.434s0,0-0.444,1.176
					c-0.447,1.179-1.002,3.762-1.676,4.492c-0.677,0.729-6.645,0.516-6.645,0.516c0.058-2.881,2.57-8.528,2.57-8.528
					s1.554-0.937,2.567-1.631c0.398-0.274,2.143-1.888,2.827-2.555L167.405,96.671z"/>
				<g>
					<path fill="#FBC28B" d="M156.672,105.094c0.16-0.559,0.592-0.862,0.972-0.674l0,0c0.378,0.183,0.558,0.784,0.394,1.344
						l-1.243,4.367c-0.161,0.563-0.597,0.863-0.976,0.675l0,0c-0.379-0.183-0.555-0.78-0.398-1.339L156.672,105.094z"/>
					<path fill="#FBC28B" d="M158.561,105.191c0.177-0.619,0.627-0.974,1.008-0.792l0,0c0.377,0.187,0.537,0.837,0.358,1.457
						l-1.386,4.866c-0.179,0.619-0.626,0.979-1.005,0.792l0,0c-0.379-0.18-0.543-0.833-0.368-1.458L158.561,105.191z"/>
					<path fill="#FBC28B" d="M160.194,105.445c0.143-0.48,0.559-0.721,0.938-0.534l0,0c0.379,0.18,0.573,0.721,0.436,1.203
						l-1.082,3.772c-0.133,0.49-0.555,0.727-0.93,0.541l0,0c-0.383-0.188-0.577-0.723-0.439-1.205L160.194,105.445z"/>
					<path fill="#FBC28B" d="M162.016,104.747c0.114-0.402,0.514-0.574,0.887-0.391l0,0c0.383,0.188,0.601,0.654,0.486,1.056
						l-0.888,3.11c-0.114,0.394-0.514,0.568-0.895,0.382l0,0c-0.376-0.182-0.589-0.654-0.479-1.052L162.016,104.747z"/>
				</g>
			</g>
			<g>
				<path fill="#055E73" d="M160.358,96.908l9.441-11.4c0,0,2.869-4.14,5.298-6.597c5.551-5.608,8.507-1.427,8.507-1.427
					c3.504,5.348-3.901,10.314-3.901,10.314l-2.931,2.604l-11.946,10.909L160.358,96.908z"/>
				<path fill="#046380" d="M160.471,97.017c0.963-0.643,2.126-0.881,3.139-0.539c1.68,0.564,2.308,2.492,1.401,4.307
					c-0.076,0.158-0.169,0.306-0.26,0.45L160.471,97.017z"/>
			</g>
		</g>
	</g>
	<g>
		<g>
			<path fill="#5A6D77" d="M296.338,177.655c-0.198-2.48-2.276-4.433-4.809-4.433s-4.61,1.953-4.809,4.433H296.338z"/>
			<g>
				<rect x="295.676" y="125.367" fill="#5A6D77" width="54.155" height="3.38"/>
				<path fill="#3A8399" d="M352.386,122.553c0,1.553-1.457,2.813-3.247,2.813h-53.279c-1.793,0-3.248-1.26-3.248-2.813l0,0
					c0-1.556,1.455-2.816,3.248-2.816h53.279C350.929,119.737,352.386,120.998,352.386,122.553L352.386,122.553z"/>
				<path fill="#5A6D77" d="M294.471,175.652c-0.164,1.043-1.141,1.759-2.185,1.596l0,0c-1.04-0.161-1.751-1.136-1.594-2.18
					l7.156-46.394c0.161-1.041,1.141-1.756,2.177-1.596l0,0c1.045,0.162,1.76,1.137,1.595,2.179L294.471,175.652z"/>
				<path fill="#5A6D77" d="M349.674,175.652c0.161,1.043,1.137,1.759,2.181,1.596l0,0c1.04-0.161,1.756-1.136,1.596-2.18
					l-7.157-46.394c-0.156-1.041-1.137-1.756-2.177-1.596l0,0c-1.048,0.162-1.764,1.137-1.6,2.179L349.674,175.652z"/>
			</g>
			<path fill="#5A6D77" d="M347.307,177.655c0.197-2.48,2.271-4.433,4.804-4.433c2.533,0,4.61,1.953,4.809,4.433H347.307z"/>
			<path fill="#3A8399" d="M345.691,57.783h-23.59h-0.062h-23.592c-3.014,0-5.458,2.234-5.458,4.991l6.887,51.883
				c0,2.754,2.443,4.988,5.458,4.988h16.705h0.062h16.705c3.018,0,5.458-2.234,5.458-4.988l6.89-51.883
				C351.154,60.017,348.711,57.783,345.691,57.783z"/>
		</g>
		<g>
			<ellipse fill="#EDD3AF" cx="322" cy="20.583" rx="9.5" ry="14.417"/>
			<path fill="#EDD3AF" d="M341.099,45.653c-1.404-2.156-3.632-3.634-3.632-3.634l-9.481-0.676
				c-4.369-5.574,0.784-12.94,0.784-12.94h-6.5h-0.353h-6.499c0,0,5.152,7.366,0.781,12.94l-9.476,0.676
				c0,0-2.229,1.478-3.638,3.634c-1.4,2.153-1.557,4.135-1.557,4.135h20.388h0.353h20.389
				C342.658,49.788,342.506,47.806,341.099,45.653z"/>
			<path fill="#A87C51" d="M324.213,10.716c-1.753-0.13-3.695,1.861-4.23,3.581c-0.203-1.312,0.681-2.796,1.189-3.836
				c-2.073,1.791-3.944,4.6-5.038,7.67c0.069-2.024,1.615-3.885,1.526-5.907c-1.828,1.03-2.759,4.319-3.542,6.32
				c0.432-2.266,0.897-4.403,1.235-6.754c-3.32,2.216-1.579,7.473-2.654,10.713c-1.129-0.834-1.974-4.641-2.124-6.163
				c-0.187-1.926-0.214-4.196,0.627-5.841c2.141-4.158,4.908-5.685,8.715-6.101c2.157-0.238,7.654,0.34,9.46,1.74
				c1.767,1.374,3.171,4.025,3.619,6.293c0.382,1.926,0.29,4.12,0.038,5.959c-0.279,2.082-1.442,3.343-1.726,5.251
				c0.008-1.39,0.696-5.411-1.124-4.956l0.016,0.592c0.367-1.195,0.488-4.604-0.227-5.771c-0.409,0.466-1.075,0.579-1.522,0.828
				c-0.556-3.135-0.267-2.162-2.173-2.266c-1.239-0.069-2.176-0.429-2.644-1.351"/>
			<path fill="#778E9A" d="M296.452,79.637l8.562-17.918l2.077-4.16c0,0,6.239-8.639-1.53-13.478c0,0-6.351-3.701-9.851,4.963
				c-1.529,3.795-2.563,9.721-2.563,9.721l-5.094,17.941C290.783,77.86,293.615,78.774,296.452,79.637z"/>
			<path fill="#778E9A" d="M292.168,82.796c-2.476,0-4.467-1.995-4.465-4.46c0.008-2.459,2.021-4.448,4.488-4.444
				c2.471,0,4.468,1.995,4.464,4.453C296.65,80.808,294.639,82.796,292.168,82.796z"/>
			<path fill="#637D84" d="M299.49,113.415c0,2.749,4.017,4.973,8.978,4.973h23.847c4.958,0,8.974-2.224,8.974-4.973
				c0-2.754-4.016-4.98-8.974-4.98h-23.847C303.507,108.434,299.49,110.661,299.49,113.415z"/>
			<path fill="#778E9A" d="M345.4,79.637l-8.556-17.918l-2.074-4.16c0,0-6.25-8.639,1.522-13.478c0,0,6.35-3.701,9.847,4.963
				c1.534,3.795,2.563,9.721,2.563,9.721l5.1,17.941C351.07,77.86,348.243,78.774,345.4,79.637z"/>
			<path fill="#778E9A" d="M349.686,82.796c2.472,0,4.473-1.995,4.468-4.46c-0.011-2.459-2.02-4.448-4.487-4.444
				c-2.47,0-4.468,1.995-4.468,4.453C345.207,80.808,347.219,82.796,349.686,82.796z"/>
			<polygon fill="#D3E1E1" points="321.038,47.166 314.65,40.917 314.65,101.598 320.801,101.598 321.282,101.598 327.43,101.598 
				327.43,40.917 			"/>
			<polygon fill="#637D84" points="319.702,46.903 318.359,44.566 319.702,42.233 322.377,42.233 323.72,44.566 322.377,46.903 			
				"/>
			<polygon fill="#637D84" points="321.076,98.224 318.383,89.573 319.711,46.903 322.362,46.903 323.696,89.573 			"/>
			<polygon fill="#FFFFFF" points="314.65,40.917 319.37,45.978 321,42.233 316.344,37.551 			"/>
			<polygon fill="#FFFFFF" points="325.728,37.551 321.076,42.233 322.707,45.978 327.43,40.917 			"/>
			<path fill="#637D84" d="M300.562,66.424c0,0,4.739,21.881,1.112,33.371c-4.283,13.551-0.742,12.028-0.742,12.028
				s16.836,7.116,20.179-3.683V66.424c0,0-9.219-18.792-5.976-27.135l-14.573,4.313C300.562,43.602,304.822,54.153,300.562,66.424z"
				/>
			<path fill="#637D84" d="M341.664,66.424c0,0-3.287,21.518-1.116,33.371c2.134,11.638,0.74,12.028,0.74,12.028
				s-16.826,7.116-20.178-3.683V66.424c0,0,9.216-18.792,5.976-27.135l14.578,4.313C341.664,43.602,337.403,54.153,341.664,66.424z"
				/>
			<rect x="303.235" y="95.342" fill="#556973" width="13.396" height="1.119"/>
			<rect x="303.235" y="94.785" fill="#627883" width="13.396" height="1.111"/>
			<rect x="325.286" y="95.342" fill="#556973" width="13.398" height="1.119"/>
			<rect x="325.286" y="94.785" fill="#8AA1AA" width="13.398" height="1.111"/>
			<path fill="#627883" d="M324.607,69.942c0,0.693-0.563,1.256-1.26,1.256c-0.695,0-1.254-0.563-1.254-1.256
				c0-0.691,0.559-1.257,1.254-1.257C324.045,68.685,324.607,69.251,324.607,69.942z"/>
			<path fill="#627883" d="M324.607,78.32c0,0.697-0.563,1.259-1.26,1.259c-0.695,0-1.254-0.562-1.254-1.259
				c0-0.692,0.559-1.254,1.254-1.254C324.045,77.066,324.607,77.628,324.607,78.32z"/>
			<path fill="#627883" d="M324.607,86.703c0,0.692-0.563,1.258-1.26,1.258c-0.695,0-1.254-0.566-1.254-1.258
				c0-0.693,0.559-1.255,1.254-1.255C324.045,85.448,324.607,86.01,324.607,86.703z"/>
			<path fill="#627883" d="M324.607,86.785c0,0.696-0.563,1.254-1.26,1.254c-0.695,0-1.254-0.558-1.254-1.254
				c0-0.697,0.559-1.259,1.254-1.259C324.045,85.526,324.607,86.088,324.607,86.785z"/>
			<path fill="#627883" d="M324.607,95.166c0,0.692-0.563,1.256-1.26,1.256c-0.695,0-1.254-0.564-1.254-1.256
				c0-0.7,0.559-1.261,1.254-1.261C324.045,93.905,324.607,94.466,324.607,95.166z"/>
			<path fill="#627883" d="M324.607,103.545c0,0.697-0.563,1.256-1.26,1.256c-0.695,0-1.254-0.559-1.254-1.256
				c0-0.696,0.559-1.254,1.254-1.254C324.045,102.291,324.607,102.849,324.607,103.545z"/>
			<path fill="#F4F5F5" d="M321.126,67.857c0,0-8.469-25.762-4.859-29.623c0,0-1.616-0.723-7.244,3.327
				C303.965,45.19,321.126,67.857,321.126,67.857z"/>
			<path fill="#F4F5F5" d="M321.038,67.857c0,0,8.28-25.697,4.64-29.584c0,0,1.609-0.712,7.272,3.378
				C338.033,45.326,321.038,67.857,321.038,67.857z"/>
			
				<linearGradient id="SVGID_1_" gradientUnits="userSpaceOnUse" x1="-692.0068" y1="-76.0112" x2="-691.0062" y2="-76.0112" gradientTransform="matrix(-34.2854 -13.8569 -13.8569 34.2854 -24439.3574 -6888.2959)">
				<stop  offset="0" style="stop-color:#F0D4A8"/>
				<stop  offset="0.2242" style="stop-color:#F0D4A8"/>
				<stop  offset="0.8061" style="stop-color:#C7A26F"/>
				<stop  offset="1" style="stop-color:#C7A26F"/>
			</linearGradient>
			<path fill="url(#SVGID_1_)" d="M336.699,91.239l0.573,0.226c1.252,0.499,2.671-0.119,3.171-1.372l4.273-10.796
				c0.497-1.254-0.119-2.678-1.374-3.171l-3.736-1.48l-3.183-1.262l-15.879-6.282l-13.611,34.386l22.229,8.798L336.699,91.239z"/>
			<path fill="#C7A26F" d="M336.699,91.239l-0.007,0.017l0.573,0.226c0.297,0.118,0.603,0.174,0.904,0.174
				c0.979,0,1.905-0.591,2.29-1.557l4.273-10.796c0.118-0.297,0.174-0.604,0.174-0.905c0-0.981-0.591-1.91-1.558-2.29l-3.736-1.48
				l-3.183-1.262l-15.896-6.289l-13.624,34.42l22.264,8.812l7.542-19.064L336.699,91.239l-0.007,0.017L336.699,91.239l-0.018-0.007
				l-7.529,19.03l-22.195-8.785l13.598-34.352l15.862,6.275l3.183,1.262l3.736,1.48c0.952,0.375,1.534,1.289,1.534,2.256
				c0,0.297-0.055,0.599-0.171,0.891l-4.273,10.796c-0.379,0.951-1.292,1.534-2.256,1.534c-0.297,0-0.599-0.055-0.891-0.172
				l-0.573-0.226l-0.018-0.007l-0.007,0.017L336.699,91.239z"/>
			
				<rect x="308.054" y="78.056" transform="matrix(-0.368 0.9298 -0.9298 -0.368 527.4281 -181.497)" fill="#FFFFFF" width="34.686" height="20.891"/>
			
				<linearGradient id="SVGID_2_" gradientUnits="userSpaceOnUse" x1="-691.9941" y1="-76.0059" x2="-690.9941" y2="-76.0059" gradientTransform="matrix(-21.0967 -7.7638 -7.7638 21.0967 -14854.5664 -3676.8689)">
				<stop  offset="0" style="stop-color:#F0D4A8"/>
				<stop  offset="0.2242" style="stop-color:#F0D4A8"/>
				<stop  offset="0.8061" style="stop-color:#C7A26F"/>
				<stop  offset="1" style="stop-color:#C7A26F"/>
			</linearGradient>
			<polygon fill="url(#SVGID_2_)" points="335.031,90.225 334.652,82.675 338.072,74.037 320.545,67.102 306.934,101.487 
				327.372,109.578 			"/>
			<polygon fill="#C7A26F" points="335.031,90.225 335.05,90.224 334.671,82.678 338.096,74.027 320.534,67.078 306.91,101.498 
				327.382,109.602 335.05,90.228 335.05,90.224 335.031,90.225 335.014,90.218 327.361,109.554 306.957,101.477 320.555,67.125 
				338.049,74.047 334.634,82.671 335.013,90.226 335.031,90.225 335.014,90.218 			"/>
			<path fill="#FBC28B" d="M322.599,78.803c0,0-3.201-0.704-5.773,0.356c0,0-1.325,0.13-2.084-0.138c0,0,0.042,1.875,1.599,1.698
				c0,0,1.745-0.828,2.665,0.697c0,0,1.479,1.019,2.901,0.635c1.423-0.38,1.978-1.243,2.161-1.877
				C324.067,80.174,323.578,78.989,322.599,78.803z"/>
			<path fill="#FBC28B" d="M329.595,83.489c-0.121,0.017-3.887,1.159-3.887,1.159s0,0-1.109,0.589
				c-1.109,0.596-3.228,2.169-4.219,2.274c-0.99,0.098-5.337-3.994-5.337-3.994c1.944-2.127,7.556-4.714,7.556-4.714
				s1.786,0.317,3.007,0.463c0.482,0.061,2.854-0.006,3.811-0.054L329.595,83.489z"/>
			<path fill="#FBC28B" d="M315.97,82.743c0.493-0.317,1.018-0.258,1.178,0.134c0.169,0.389-0.1,0.954-0.59,1.266l-3.815,2.464
				c-0.49,0.316-1.016,0.255-1.181-0.133c-0.159-0.389,0.1-0.955,0.586-1.268L315.97,82.743z"/>
			<path fill="#FBC28B" d="M317.332,84.059c0.534-0.348,1.108-0.317,1.276,0.069c0.161,0.39-0.152,0.987-0.692,1.333l-4.246,2.749
				c-0.546,0.344-1.121,0.317-1.281-0.073c-0.164-0.387,0.142-0.987,0.686-1.335L317.332,84.059z"/>
			<path fill="#FBC28B" d="M318.387,85.331c0.425-0.273,0.896-0.178,1.061,0.212c0.164,0.387-0.047,0.922-0.467,1.194l-3.302,2.123
				c-0.421,0.276-0.892,0.18-1.056-0.207c-0.165-0.392,0.042-0.925,0.467-1.197L318.387,85.331z"/>
			<path fill="#FBC28B" d="M320.223,86.004c0.348-0.224,0.762-0.09,0.923,0.292c0.164,0.394,0.019,0.885-0.333,1.115l-2.721,1.749
				c-0.348,0.22-0.757,0.092-0.926-0.298c-0.159-0.385-0.011-0.882,0.337-1.107L320.223,86.004z"/>
			<path fill="#778E9A" d="M324.145,79.021l14.612-2.341c0,0,4.89-1.224,8.335-1.468c7.873-0.557,7.338,4.537,7.338,4.537
				c-0.896,6.331-9.736,5.183-9.736,5.183l-3.921,0.023l-16.174,0.321L324.145,79.021z"/>
			<path fill="#778E9A" d="M324.155,79.174c1.148,0.152,2.182,0.742,2.716,1.67c0.892,1.528,0.088,3.39-1.79,4.16
				c-0.16,0.065-0.325,0.119-0.489,0.164L324.155,79.174z"/>
			<path d="M305.018,170.71l1.763-6.48l12.135-0.076c0,0,0.976,3.442-0.1,4.301c-1.071,0.855-3.075,0.985-4.017,3.879
				c-0.94,2.888-8.45,5.232-11.526,5.009C300.201,177.121,305.018,170.71,305.018,170.71z"/>
			<path fill="#637D84" d="M302.768,100.548c-4.678,0.654-7.8,5.951-6.98,11.837c0.114,0.817,0.298,1.601,0.543,2.345l-0.314,0.042
				l9.213,51.441l13.258-1.847l-5.666-51.635c0.058-0.877,0.028-1.784-0.103-2.704C311.899,104.138,307.447,99.897,302.768,100.548z
				"/>
			<path fill="#778E9A" d="M303.235,100.485c-0.131,0.019-0.256,0.042-0.391,0.069l9.02,64.736l7.093-0.989l-5.665-51.636
				c0.053-0.875,0.022-1.783-0.104-2.704C312.366,104.077,307.913,99.835,303.235,100.485z"/>
			<path d="M338.538,171.021l-1.839-6.458l-12.127,0.057c0,0-0.938,3.454,0.146,4.3c1.079,0.846,3.087,0.953,4.059,3.833
				c0.979,2.88,8.507,5.141,11.583,4.881C343.432,177.378,338.538,171.021,338.538,171.021z"/>
			<path fill="#637D84" d="M340.005,100.841c4.682,0.599,7.863,5.86,7.11,11.755c-0.104,0.818-0.279,1.602-0.517,2.352l0.317,0.041
				l-8.633,51.537l-13.282-1.695l5.084-51.7c-0.064-0.875-0.042-1.782,0.072-2.702C330.911,104.534,335.317,100.24,340.005,100.841z
				"/>
			<path fill="#778E9A" d="M339.533,100.779c0.134,0.018,0.265,0.039,0.391,0.062l-8.289,64.838l-7.104-0.91l5.084-51.697
				c-0.065-0.877-0.043-1.781,0.072-2.704C330.44,104.471,334.847,100.18,339.533,100.779z"/>
			<path fill="#FBC28B" d="M313.101,97.467c0,0,2.873,1.587,4.112,4.077c0,0,0.906,0.972,1.649,1.27c0,0-1.268,1.384-2.319,0.215
				c0,0-0.769-1.768-2.463-1.228c0,0-1.783-0.207-2.598-1.435c-0.819-1.224-0.67-2.238-0.39-2.834
				C311.093,97.532,312.242,96.959,313.101,97.467z"/>
			<path fill="#FBC28B" d="M304.754,96.378c0.076,0.094,2.152,3.431,2.152,3.431s0,0,0.445,1.172
				c0.446,1.181,1.001,3.765,1.676,4.499c0.68,0.725,6.644,0.513,6.644,0.513c-0.054-2.881-2.57-8.526-2.57-8.526
				s-1.554-0.941-2.563-1.634c-0.404-0.271-2.143-1.887-2.835-2.553L304.754,96.378z"/>
			<path fill="#FBC28B" d="M315.483,104.802c-0.158-0.563-0.593-0.867-0.972-0.676c-0.374,0.182-0.559,0.781-0.394,1.339l1.246,4.37
				c0.158,0.559,0.595,0.863,0.973,0.676c0.378-0.184,0.559-0.783,0.401-1.341L315.483,104.802z"/>
			<path fill="#FBC28B" d="M313.594,104.897c-0.173-0.622-0.624-0.976-1.007-0.794c-0.374,0.184-0.535,0.838-0.358,1.457
				l1.384,4.868c0.181,0.618,0.632,0.978,1.006,0.79c0.382-0.179,0.549-0.838,0.368-1.457L313.594,104.897z"/>
			<path fill="#FBC28B" d="M311.96,105.15c-0.133-0.481-0.558-0.723-0.934-0.538c-0.383,0.182-0.573,0.723-0.435,1.205l1.078,3.774
				c0.134,0.488,0.555,0.725,0.93,0.539c0.385-0.185,0.576-0.722,0.439-1.205L311.96,105.15z"/>
			<path fill="#FBC28B" d="M310.135,104.451c-0.11-0.403-0.508-0.572-0.883-0.389c-0.383,0.188-0.597,0.649-0.482,1.058l0.892,3.106
				c0.11,0.396,0.509,0.568,0.889,0.384c0.374-0.183,0.593-0.656,0.477-1.049L310.135,104.451z"/>
			<path fill="#778E9A" d="M311.797,96.614l-9.442-11.399c0,0-2.869-4.141-5.294-6.597c-5.551-5.611-8.508-1.432-8.508-1.432
				c-3.504,5.351,3.902,10.318,3.902,10.318l2.93,2.602l11.946,10.909L311.797,96.614z"/>
			<path fill="#778E9A" d="M311.688,96.72c-0.963-0.642-2.131-0.881-3.144-0.54c-1.68,0.563-2.308,2.495-1.4,4.312
				c0.076,0.155,0.168,0.305,0.261,0.446L311.688,96.72z"/>
			<g>
				<path fill="#F5F5F5" d="M318.35,27.879c0.298,1.82,1.794,3.202,3.604,3.189c1.81-0.01,3.294-1.411,3.571-3.23L318.35,27.879z"/>
			</g>
			<path fill="#1D183C" d="M318.746,20.169c0,0.53-0.406,0.961-0.911,0.961c-0.503,0-0.914-0.431-0.914-0.961
				c0-0.534,0.411-0.966,0.914-0.966C318.34,19.203,318.746,19.635,318.746,20.169z"/>
			<path fill="#1D183C" d="M327.246,20.169c0,0.53-0.408,0.961-0.916,0.961c-0.505,0-0.911-0.431-0.911-0.961
				c0-0.534,0.406-0.966,0.911-0.966C326.838,19.203,327.246,19.635,327.246,20.169z"/>
			<ellipse fill="#EDD3AF" cx="312.833" cy="23" rx="2.333" ry="3.167"/>
			<ellipse fill="#EDD3AF" cx="331.667" cy="22.667" rx="2.333" ry="3.167"/>
			<path fill="none" stroke="#A87C51" stroke-linecap="round" stroke-miterlimit="10" d="M324.667,17.167
				c0.693-1.161,4.051-1.5,4.834,0"/>
			<path fill="none" stroke="#A87C51" stroke-linecap="round" stroke-miterlimit="10" d="M314.834,17.167
				c0.693-1.161,4.051-1.5,4.834,0"/>
		</g>
	</g>
	<g>
		<g>
			<path fill="#5A6D77" d="M210.321,177.655c-0.198-2.48-2.271-4.433-4.809-4.433c-2.531,0-4.604,1.953-4.805,4.433H210.321z"/>
			<g>
				<rect x="209.664" y="125.367" fill="#5A6D77" width="54.154" height="3.38"/>
				<path fill="#3A8399" d="M266.375,122.553c0,1.553-1.458,2.813-3.248,2.813h-53.28c-1.794,0-3.247-1.26-3.247-2.813l0,0
					c0-1.556,1.453-2.816,3.247-2.816h53.28C264.917,119.737,266.375,120.998,266.375,122.553L266.375,122.553z"/>
				<path fill="#5A6D77" d="M208.454,175.652c-0.16,1.043-1.135,1.759-2.18,1.596l0,0c-1.041-0.161-1.756-1.136-1.596-2.18
					l7.157-46.394c0.162-1.041,1.136-1.756,2.177-1.596l0,0c1.045,0.162,1.761,1.137,1.6,2.179L208.454,175.652z"/>
				<path fill="#5A6D77" d="M263.657,175.652c0.161,1.043,1.138,1.759,2.181,1.596l0,0c1.045-0.161,1.76-1.136,1.596-2.18
					l-7.154-46.394c-0.16-1.041-1.14-1.756-2.18-1.596l0,0c-1.041,0.162-1.759,1.137-1.6,2.179L263.657,175.652z"/>
			</g>
			<path fill="#5A6D77" d="M261.29,177.655c0.199-2.48,2.275-4.433,4.809-4.433c2.527,0,4.605,1.953,4.809,4.433H261.29z"/>
			<path fill="#3A8399" d="M259.681,57.783h-23.596h-0.058h-23.595c-3.01,0-5.458,2.234-5.458,4.991l6.885,51.883
				c0,2.754,2.445,4.988,5.459,4.988h16.709h0.058h16.709c3.015,0,5.459-2.234,5.459-4.988l6.885-51.883
				C265.138,60.017,262.69,57.783,259.681,57.783z"/>
		</g>
		<g>
			<path fill="#FCBD5C" d="M252.093,117.595h-28.468c-3.297-3.156-5.319-7.406-5.319-12.082c0-9.741,8.752-17.636,19.555-17.636
				c10.799,0,19.551,7.895,19.551,17.636C257.411,110.189,255.388,114.439,252.093,117.595z"/>
			<g>
				<path fill="#625A46" d="M239.114,17.625c0.409,2.257,3.176,3.802,6.178,3.45c3.008-0.352,5.111-2.468,4.701-4.724
					c-0.412-2.257-3.175-3.803-6.182-3.451C240.809,13.253,238.704,15.368,239.114,17.625z"/>
				<path fill="#625A46" d="M239.654,21.736c0.409,2.257,3.175,3.803,6.178,3.447c3.002-0.351,5.111-2.465,4.702-4.72
					c-0.41-2.261-3.177-3.802-6.183-3.45C241.349,17.364,239.245,19.479,239.654,21.736z"/>
				<path fill="#625A46" d="M241.303,26.564c0.41,2.257,3.179,3.802,6.182,3.45s5.107-2.468,4.698-4.725
					c-0.41-2.259-3.176-3.802-6.179-3.45C242.997,22.192,240.894,24.307,241.303,26.564z"/>
				<path fill="#625A46" d="M240.618,31.903c0.409,2.259,3.179,3.804,6.181,3.452c3.004-0.355,5.111-2.468,4.698-4.726
					c-0.409-2.258-3.171-3.8-6.177-3.448C242.316,27.53,240.208,29.646,240.618,31.903z"/>
				<path fill="#625A46" d="M244.879,36.453c0.409,2.257,3.18,3.803,6.186,3.45c3.004-0.352,5.108-2.467,4.694-4.724
					c-0.405-2.259-3.175-3.802-6.178-3.45C246.574,32.08,244.471,34.195,244.879,36.453z"/>
			</g>
			<g>
				<path fill="#F16C64" d="M240.313,18.355c-0.557,2.235-3.863,3.588-7.383,3.021c-3.523-0.566-5.93-2.837-5.375-5.076
					c0.559-2.238,3.863-3.591,7.387-3.022C238.464,13.845,240.867,16.118,240.313,18.355z"/>
				<path fill="#625A46" d="M239.539,22.441c-0.554,2.237-3.859,3.589-7.387,3.025c-3.523-0.568-5.926-2.843-5.371-5.075
					c0.559-2.239,3.864-3.593,7.387-3.027C237.691,17.935,240.098,20.204,239.539,22.441z"/>
				<path fill="#625A46" d="M237.435,27.173c-0.554,2.233-3.859,3.588-7.382,3.021c-3.523-0.566-5.929-2.838-5.371-5.076
					c0.555-2.238,3.863-3.589,7.383-3.023C235.588,22.663,237.993,24.935,237.435,27.173z"/>
				<path fill="#625A46" d="M238.063,32.58c-0.556,2.236-3.863,3.59-7.384,3.024c-3.522-0.568-5.929-2.84-5.37-5.077
					c0.555-2.237,3.863-3.591,7.382-3.023C236.215,28.069,238.622,30.344,238.063,32.58z"/>
				<path fill="#625A46" d="M232.898,36.843c-0.555,2.238-3.863,3.591-7.387,3.022c-3.523-0.566-5.925-2.839-5.371-5.077
					c0.559-2.234,3.863-3.589,7.387-3.021C231.051,32.333,233.453,34.606,232.898,36.843z"/>
			</g>
			<path fill="#F2B495" d="M238.307,55.032h-3.361l-16.105-6.606c0,0,0.146-1.869,1.473-3.906c1.332-2.035,4.87-2.717,4.87-2.717
				l7.517-1.356c4.128-5.26-0.733-12.223-0.733-12.223h12.715c0,0-4.866,6.962-0.738,12.223l7.521,1.356
				c0,0,3.542,0.682,4.866,2.717c1.331,2.037,1.477,3.906,1.477,3.906l-19.483,6.488L238.307,55.032z"/>
			<path fill="#625A46" d="M247.794,20.58c0,0,4.977-7.676-2.272-13.15c0,0-6.625-6.832-16.229,1.148c0,0-5.819,4.538-0.819,11.805
				L247.794,20.58z"/>
			<path fill="#625A46" d="M246.596,27.333c0,0,1.347-13.03-3.48-14.793c-2.817-1.033-0.462-1.323-0.462-1.323
				s-10.16,2.93-12.853,14.574c0,0-3.168-8.344-1.783-10.067c1.274-1.585,6.499-5.767,9.287-5.778
				c2.793-0.017,7.893,1.45,9.958,4.284C249.623,17.463,247.213,25.528,246.596,27.333z"/>
			<path fill="#625A46" d="M244.264,9.591c0,0-2.031,5.524-3.657,5.237l1.733-1.693c0,0-3.676,3.866-4.629,3.518l2.22-2.145
				c0,0-7.051,6.169-8.739,5.438c0,0,3.176-2.138,2.086-2.304C232.187,17.483,243.747,9.583,244.264,9.591z"/>
			<polygon fill="#21B14B" points="232.363,40.24 232.003,40.303 231.908,40.254 			"/>
			<path fill="#818B37" d="M252.862,65.263l-0.004-0.001C253.054,64.71,252.862,65.263,252.862,65.263z"/>
			<path fill="#818B37" d="M222.398,65.262L222.398,65.262C222.398,65.263,222.21,64.71,222.398,65.262z"/>
			<path fill="#F4F5F5" d="M230.247,40.309c1.71,1.767,4.289,4.269,7.359,4.269c3.073,0,5.43-2.57,7.143-4.337l5.08,1.381
				l-3.813,57.181l-8.526,1.062h-9.827l-1.477-58.258L230.247,40.309z"/>
			<path fill="#E94F51" d="M260.15,104.488h-20.473l-1.003-56.314c9.203-3.358,7.94-7.793,7.94-7.793l3.73,1.054
				c2.149,14.188,3.164,22.114,3.171,22.169c-0.168,0.449-0.646,1.674-1.809,4.718c-3.47,9.045-0.632,13.671-0.632,13.671
				c3.769,5.846,5.146,10.795,5.406,11.796c0.025,0.042,0.042,0.087,0.042,0.132c0,0.011-0.004,0.017-0.004,0.03
				c0.004,0.012,0.004,0.021,0.004,0.021L260.15,104.488z"/>
			<path fill="#E94F51" d="M214.609,104.488l3.611-10.42c0,0,0-0.008,0-0.025c0-0.012,0-0.017,0-0.027
				c0-0.045,0.016-0.087,0.043-0.134c0.256-0.991,1.637-5.912,5.4-11.724c0,0,2.843-4.601-0.631-13.593
				c-1.162-3.021-1.637-4.244-1.811-4.689c0.013-0.056,1.026-7.936,3.176-22.04l3.726-1.048c0,0-1.258,4.409,7.941,7.75
				l-1.001,55.949H214.609z"/>
			<g>
				<path fill="#185A61" d="M239.72,54.419c0.003,0.347,0.286,0.621,0.63,0.615c0.346-0.006,0.62-0.289,0.617-0.633
					c-0.009-0.346-0.287-0.622-0.636-0.616C239.987,53.791,239.712,54.072,239.72,54.419z"/>
				<path fill="#185A61" d="M239.796,59.555c0.003,0.347,0.286,0.62,0.634,0.614c0.345-0.003,0.621-0.286,0.613-0.63
					c-0.005-0.346-0.288-0.622-0.636-0.617C240.063,58.926,239.791,59.209,239.796,59.555z"/>
				<path fill="#185A61" d="M239.876,64.695c0,0.344,0.287,0.62,0.632,0.614c0.344-0.006,0.622-0.289,0.615-0.635
					c-0.005-0.342-0.291-0.622-0.636-0.616C240.144,64.064,239.868,64.349,239.876,64.695z"/>
				<path fill="#185A61" d="M239.953,69.833c0.007,0.344,0.29,0.618,0.635,0.612c0.347-0.003,0.619-0.289,0.615-0.631
					c-0.008-0.347-0.29-0.625-0.635-0.619S239.948,69.486,239.953,69.833z"/>
				<path fill="#185A61" d="M240.032,74.968c0.005,0.346,0.288,0.62,0.632,0.618c0.348-0.009,0.623-0.292,0.614-0.637
					c-0.002-0.346-0.286-0.622-0.63-0.614C240.301,74.338,240.029,74.622,240.032,74.968z"/>
			</g>
			<g>
				<path fill="#185A61" d="M240.469,81.313c0.005,0.332,0.279,0.597,0.608,0.593c0.333-0.006,0.597-0.278,0.597-0.612
					c-0.008-0.333-0.279-0.598-0.615-0.592C240.726,80.706,240.461,80.979,240.469,81.313z"/>
				<path fill="#185A61" d="M240.546,86.266c0,0.33,0.275,0.597,0.611,0.592c0.329-0.004,0.593-0.277,0.589-0.615
					c-0.003-0.329-0.279-0.596-0.611-0.588C240.802,85.658,240.538,85.931,240.546,86.266z"/>
				<path fill="#185A61" d="M240.618,91.216c0.005,0.333,0.278,0.598,0.608,0.591c0.336-0.004,0.6-0.277,0.596-0.608
					c-0.002-0.335-0.277-0.599-0.611-0.595C240.879,90.61,240.614,90.883,240.618,91.216z"/>
				<path fill="#185A61" d="M240.695,96.167c0.007,0.332,0.278,0.599,0.611,0.592c0.332-0.004,0.597-0.277,0.593-0.608
					c-0.008-0.334-0.279-0.601-0.612-0.595C240.954,95.562,240.687,95.833,240.695,96.167z"/>
				<path fill="#185A61" d="M240.767,101.12c0.008,0.333,0.284,0.6,0.617,0.594c0.332-0.008,0.597-0.28,0.593-0.613
					c-0.008-0.331-0.28-0.598-0.612-0.594C241.031,100.514,240.767,100.787,240.767,101.12z"/>
			</g>
			<g>
				<rect x="232.888" y="54.17" fill="#185A61" width="1.479" height="0.625"/>
				<rect x="232.888" y="59.31" fill="#185A61" width="1.479" height="0.624"/>
				<rect x="232.888" y="64.447" fill="#185A61" width="1.479" height="0.624"/>
				<rect x="232.888" y="69.584" fill="#185A61" width="1.479" height="0.624"/>
				<rect x="232.888" y="74.721" fill="#185A61" width="1.479" height="0.625"/>
			</g>
			<g>
				<rect x="233.885" y="81.002" fill="#185A61" width="1.423" height="0.601"/>
				<rect x="233.885" y="85.952" fill="#185A61" width="1.423" height="0.603"/>
				<rect x="233.885" y="90.906" fill="#185A61" width="1.423" height="0.601"/>
				<rect x="233.885" y="95.858" fill="#185A61" width="1.423" height="0.603"/>
				<rect x="233.885" y="100.811" fill="#185A61" width="1.423" height="0.6"/>
			</g>
			<g>
				<path fill="#683620" d="M230.53,71.917h17.296V98.14H230.53c-1.029,0-1.862-0.675-1.862-1.515V73.434
					C228.668,72.595,229.501,71.917,230.53,71.917z"/>
				<g>
					<path fill="#975036" d="M232.421,96.776l0.004-0.109h1.186v0.109h-1.163H232.421z M234.2,96.667h1.185v0.109H234.2V96.667z
						 M235.978,96.667h1.183v0.109h-1.183V96.667z M237.753,96.667h1.186v0.109h-1.186V96.667z M239.531,96.667h1.182v0.109h-1.182
						V96.667z M241.307,96.667h1.188v0.109h-1.188V96.667z M243.086,96.667h1.186v0.109h-1.186V96.667z M244.865,96.667h1.185v0.109
						h-1.185V96.667z M246.639,96.667h1.188v0.109h-1.188V96.667z M230.837,96.055l0.1-0.065c0.203,0.278,0.523,0.49,0.918,0.597
						l-0.035,0.108C231.402,96.577,231.051,96.351,230.837,96.055z M230.607,95.37v-0.959h0.117v0.959c0,0.045,0,0.088,0.009,0.134
						l-0.118,0.016C230.607,95.471,230.607,95.418,230.607,95.37z M230.607,92.756h0.117v1.099h-0.117V92.756z M230.607,91.101
						h0.117v1.102h-0.117V91.101z M230.607,89.445h0.117v1.105h-0.117V89.445z M230.607,87.789h0.117v1.102h-0.117V87.789z
						 M230.607,86.132h0.117v1.106h-0.117V86.132z M230.607,84.479h0.117v1.102h-0.117V84.479z M230.607,82.824h0.117v1.104h-0.117
						V82.824z M230.607,81.171h0.117v1.102h-0.117V81.171z M230.607,79.515h0.117v1.104h-0.117V79.515z M230.607,77.86h0.117v1.104
						h-0.117V77.86z M230.607,76.202h0.117v1.107h-0.117V76.202z M230.607,74.689c0-0.048,0-0.098,0.008-0.146l0.118,0.013
						c-0.009,0.042-0.009,0.089-0.009,0.132v0.965h-0.117V74.689z M230.833,74.008c0.218-0.296,0.566-0.526,0.986-0.64l0.031,0.103
						c-0.391,0.111-0.717,0.323-0.918,0.598L230.833,74.008z M232.418,73.283h1.188v0.111h-1.159h-0.029V73.283z M234.195,73.283
						h1.186v0.111h-1.186V73.283z M235.975,73.283h1.182v0.111h-1.182V73.283z M237.748,73.283h1.188v0.111h-1.188V73.283z
						 M239.528,73.283h1.185v0.111h-1.185V73.283z M241.303,73.283h1.187v0.111h-1.187V73.283z M243.081,73.283h1.187v0.111h-1.187
						V73.283z M244.86,73.283h1.186v0.111h-1.186V73.283z M246.639,73.283h1.183v0.111h-1.183V73.283z"/>
				</g>
				<path fill="#975036" d="M227.737,84.78c0,1.028,0.835,1.861,1.864,1.861h2.229c1.025,0,1.86-0.833,1.86-1.861l0,0
					c0-1.025-0.835-1.856-1.86-1.856h-2.229C228.572,82.923,227.737,83.755,227.737,84.78L227.737,84.78z"/>
			</g>
			<g>
				<path fill="#F2B495" d="M239.688,73.507c0,0,3.244-0.694,5.447,0.184c0,0,1.243,0.089,2.027-0.168c0,0-0.501,1.671-1.951,1.543
					c0,0-1.473-0.688-2.728,0.683c0,0-1.672,0.933-2.945,0.629c-1.266-0.304-1.588-1.056-1.6-1.618
					C237.939,74.76,238.701,73.691,239.688,73.507z"/>
				<path fill="#F2B495" d="M232.508,78.061c0,0-2.59-0.837-3.622-0.873c-2.915-0.107-5.825-0.102-8.737-0.256
					c-1.84-0.097-3.668-0.252-5.492-0.483c-1.906-0.247-4.521-0.092-5.494-2.148c-0.615-1.308-0.421-4.525,1.163-5.168
					c0.005,0,2.388-0.965,5.085-0.475c2.695,0.492,14.271,4.492,15.342,5.016c1.067,0.52,2.85,0.319,2.85,0.319
					S233.098,77.603,232.508,78.061z"/>
				<path fill="#F2B495" d="M231.816,77.835c0.118,0.012,3.435,0.938,3.435,0.938s0,0,0.918,0.497
					c0.919,0.501,2.563,1.855,3.485,1.927c0.914,0.068,6.105-3.671,6.105-3.671c-1.331-1.847-6.071-4.019-6.071-4.019
					s-1.79,0.327-2.995,0.485c-0.475,0.062-2.889,0.06-3.787,0.038L231.816,77.835z"/>
				<g>
					<path fill="#F2B495" d="M245.063,76.854c-0.391-0.267-0.907-0.199-1.159,0.147l0,0c-0.257,0.348-0.146,0.845,0.244,1.115
						l3.049,2.098c0.391,0.272,0.91,0.205,1.164-0.138l0,0c0.256-0.352,0.142-0.849-0.245-1.121L245.063,76.854z"/>
					<path fill="#F2B495" d="M243.435,78.059c-0.438-0.296-0.992-0.257-1.245,0.094l0,0c-0.251,0.345-0.102,0.869,0.33,1.167
						l3.396,2.341c0.432,0.298,0.99,0.26,1.244-0.091l0,0c0.248-0.348,0.103-0.874-0.326-1.175L243.435,78.059z"/>
					<path fill="#F2B495" d="M242.098,79.212c-0.332-0.233-0.811-0.137-1.066,0.21l0,0c-0.248,0.348-0.18,0.821,0.153,1.048
						l2.639,1.821c0.338,0.226,0.812,0.133,1.067-0.215l0,0c0.245-0.35,0.18-0.822-0.153-1.051L242.098,79.212z"/>
					<path fill="#F2B495" d="M240.178,79.851c-0.279-0.195-0.707-0.061-0.96,0.285l0,0c-0.252,0.35-0.232,0.786,0.042,0.977
						l2.173,1.496c0.275,0.188,0.704,0.062,0.96-0.287l0,0c0.253-0.348,0.233-0.784-0.041-0.976L240.178,79.851z"/>
				</g>
			</g>
			<g>
				<path fill="#F2B495" d="M239.324,88.227c0,0-2.956,1.505-4.111,3.578c0,0-0.906,0.852-1.676,1.148c0,0,1.442,0.984,2.482-0.032
					c0,0,0.708-1.463,2.548-1.191c0,0,1.891-0.33,2.682-1.37c0.796-1.037,0.571-1.821,0.226-2.264
					C241.475,88.095,240.208,87.747,239.324,88.227z"/>
				<path fill="#F2B495" d="M247.771,87.23c0,0,1.48-2.284,2.261-2.965c2.195-1.916,4.457-3.75,6.617-5.708
					c1.365-1.234,2.69-2.508,3.956-3.839c1.327-1.392,3.453-2.924,2.908-5.135c-0.35-1.4-2.529-3.771-4.163-3.274
					c0,0-2.46,0.758-4.246,2.84c-1.778,2.083-8.24,12.484-8.737,13.568c-0.5,1.073-2.016,2.045-2.016,2.045
					S247.021,87.246,247.771,87.23z"/>
				<path fill="#F2B495" d="M248.166,86.618c-0.085,0.081-2.078,2.896-2.078,2.896s0,0-0.395,0.964
					c-0.397,0.967-0.821,3.052-1.488,3.688c-0.672,0.633-7.057,1.004-7.057,1.004c-0.131-2.272,2.176-6.944,2.176-6.944
					s1.6-0.879,2.633-1.513c0.406-0.252,2.279-1.773,2.964-2.36L248.166,86.618z"/>
				<g>
					<path fill="#F2B495" d="M237.267,94.215c0.134-0.455,0.578-0.73,0.991-0.619l0,0c0.421,0.113,0.646,0.566,0.517,1.021
						l-1.044,3.55c-0.131,0.457-0.574,0.735-0.994,0.626l0,0c-0.414-0.112-0.645-0.57-0.514-1.021L237.267,94.215z"/>
					<path fill="#F2B495" d="M239.291,94.12c0.148-0.503,0.607-0.825,1.021-0.712l0,0c0.417,0.111,0.631,0.608,0.485,1.112
						l-1.163,3.964c-0.146,0.501-0.601,0.818-1.021,0.708l0,0c-0.413-0.11-0.631-0.612-0.485-1.113L239.291,94.12z"/>
					<path fill="#F2B495" d="M241.055,94.172c0.114-0.39,0.542-0.615,0.959-0.51l0,0c0.418,0.113,0.659,0.522,0.544,0.912
						l-0.899,3.072c-0.113,0.39-0.547,0.62-0.96,0.509l0,0c-0.417-0.111-0.661-0.52-0.547-0.91L241.055,94.172z"/>
					<path fill="#F2B495" d="M242.947,93.456c0.096-0.324,0.513-0.494,0.926-0.381l0,0c0.417,0.109,0.673,0.459,0.578,0.783
						l-0.739,2.534c-0.091,0.318-0.504,0.49-0.925,0.378l0,0c-0.414-0.11-0.673-0.46-0.582-0.783L242.947,93.456z"/>
				</g>
			</g>
			<path fill="#E94F51" d="M255.464,69.014l-5.282-13.479c0,0-2.284-4.489-2.785-7.685c-0.493-3.196,0.707-5.965,0.707-5.965
				c9.702-0.069,10.688,5.441,10.688,5.441l0.868,3.525l4.874,18.163H255.464z"/>
			<path fill="#E94F51" d="M223.921,55.535l-5.279,13.479h-9.077l4.876-18.163l0.866-3.525c0,0,2.939-7.95,13.074-5.56
				c0,0-1.182,2.888-1.676,6.084C226.204,51.046,223.921,55.535,223.921,55.535z"/>
			<path fill="#F4F5F5" d="M231.839,52.223c0.003,0.093,0.012,0.184,0.012,0.277v6.838c0,2.694-2.184,4.882-4.882,4.882
				c-2.696,0-4.885-2.188-4.885-4.882V52.5c0-0.093,0.008-0.184,0.02-0.277H231.839z"/>
			<g>
				<g>
					<path fill="#EEB69E" d="M234.474,102.642c0.72-2.391,4.007-3.488,7.361-2.451c3.347,1.036,5.478,3.813,4.77,6.201
						c-0.11,0.396-0.306,0.75-0.555,1.067c-0.397,1.718-0.769,3.453-1.036,5.117c-0.387,1.765-0.822,3.278-1.255,5.2
						c-0.421,1.94-1.201,6.094-1.81,8.841c-0.604,2.75-1.981,6.204-3.172,12.771c-1.288,7.092-2.359,12.137-2.359,12.137
						c-1.105,6.862-1.112,14.482-1.112,14.482c-0.349,4.977-3.903,9.106-5.063,10.4l-1.989-6.664c0,0-1.182-7.629-0.218-10.393
						c0.964-2.768,0.62-4.005,0.796-5.16c0.184-1.143,0.436-2.797,0.306-4.35c-0.035-0.429,0.004-2.808-0.238-7.176
						c-0.235-4.376-0.239-12.178-0.239-12.178c0.539-9.927,2.636-15.352,3.546-18.911c0.91-3.562,0.674-2.035,1.768-6.737
						c0.156-0.692,0.286-1.286,0.394-1.817l0.027,0.008C234.417,102.896,234.44,102.766,234.474,102.642z"/>
					<path fill="#E94F51" d="M235.948,168.184c0,0-0.174-7.484-0.249-8.678c-0.077-1.191,0.489-5.988,0.489-5.988l-0.72,3.177
						c0,0-0.344,5.233-0.34,8.188c0,3.414-4.059,5.014-4.059,5.014s-2.984-1.752-2.991-5.054c0.003-2.65,1.097-9.356,1.097-9.356
						l-0.075-3.334c0,0-0.429,4.561-0.866,5.651c-0.427,1.094-1.487,7.446-1.487,7.446c-1.579,6.658,3.703,12.405,3.703,12.405
						S235.435,175.041,235.948,168.184z"/>
				</g>
				<path fill="#F7BFA0" d="M226.258,115.675c-0.792-0.396,7.023-15.384,8.061-16.399c9.177-8.988,14.008,7.664,15.22,14.326
					c0.361,1.966,1.231,6.15,1.729,8.947c0.505,2.793,0.558,6.523,1.989,13.118c1.534,7.117,2.49,12.232,2.49,12.232
					c1.614,6.84,5.18,11.648,5.18,11.648c1.591,4.797,1.129,10.397,0.563,12.02l-6.266-3.686c0,0-1.998-8.135-3.394-10.726
					c-0.849-1.583-1.764-2.959-2.039-4.102c-0.283-1.138-0.688-2.782-1.399-4.2c-0.191-0.386-1.075-2.643-2.973-6.67
					c-1.901-4.031-4.893-11.372-4.893-11.372c-2.44-7.004-3.171-12.008-3.597-15.626
					C233.381,116.26,229.026,117.047,226.258,115.675z"/>
				<path fill="#E94F51" d="M251.421,156.031c0.681,1.886,2.716,5.078,3.664,6.906c2.506,4.834,5.983,3.453,5.983,3.453
					s1.411-2.484-0.233-5.533c-1.423-2.647-2.089-4.18-2.089-4.18l-1.655-3.685c0.087-0.074,0.171-0.149,0.26-0.226
					c0.516,1.224,1.094,2.532,1.399,3.03c0.646,1.029,4.388,7.654,4.388,7.654c2.851,6.358-0.275,10.912-0.275,10.912
					s-7.401-2.803-9.22-9.461c0,0-2.122-6.15-2.268-7.321c-0.035-0.307-0.188-0.835-0.394-1.439
					C250.549,154.855,251.279,156.071,251.421,156.031z"/>
			</g>
			<ellipse fill="#F2B495" cx="238.5" cy="23.083" rx="9.5" ry="12.917"/>
			
				<ellipse transform="matrix(0.7867 -0.6173 0.6173 0.7867 42.9364 152.9502)" fill="#625A46" cx="242.832" cy="14.333" rx="5.5" ry="7.667"/>
			
				<ellipse transform="matrix(0.756 0.6546 -0.6546 0.756 66.3658 -149.3544)" fill="#625A46" cx="233.499" cy="14.333" rx="5.5" ry="7.667"/>
			<ellipse fill="#625A46" cx="248.416" cy="21.75" rx="3.25" ry="3.417"/>
			<ellipse fill="#625A46" cx="228.75" cy="21.417" rx="2.75" ry="3.083"/>
			<g>
				<path fill="#F5F5F5" d="M234.982,29.05c0.298,1.82,1.794,3.202,3.604,3.189c1.81-0.01,3.294-1.411,3.571-3.23L234.982,29.05z"/>
			</g>
			<path fill="#1D183C" d="M235.294,22.044c0,0.53-0.406,0.961-0.911,0.961c-0.503,0-0.914-0.431-0.914-0.961
				c0-0.534,0.411-0.966,0.914-0.966C234.888,21.078,235.294,21.51,235.294,22.044z"/>
			<path fill="#1D183C" d="M242.968,22.169c0,0.53-0.408,0.961-0.916,0.961c-0.505,0-0.911-0.431-0.911-0.961
				c0-0.534,0.406-0.966,0.911-0.966C242.56,21.203,242.968,21.635,242.968,22.169z"/>
		</g>
	</g>
	<g>
		<rect x="94.899" y="101.154" fill="#004352" width="6.928" height="76.501"/>
		<rect x="378.407" y="101.154" fill="#004352" width="6.928" height="76.501"/>
		<rect x="94.847" y="84.487" fill="#004352" width="290.488" height="22.558"/>
		<rect x="94.847" y="86.273" fill="#08171D" width="290.488" height="0.804"/>
		<g>
			<path fill="#004352" d="M91.659,85.452h294.93c1.041,0,1.89-0.18,1.89-0.394V78.81c0-0.221-0.849-0.397-1.89-0.397H91.659
				c-1.04,0-1.893,0.176-1.893,0.397v6.248C89.767,85.272,90.619,85.452,91.659,85.452z"/>
			<path fill="#004352" d="M89.717,85.058V78.81c0-0.223,0.872-0.405,1.942-0.405h294.93c1.074,0,1.943,0.182,1.943,0.405v6.248
				c0,0.224-0.869,0.401-1.943,0.401H91.659C90.589,85.459,89.717,85.281,89.717,85.058z M91.659,78.423
				c-1.018,0-1.847,0.175-1.847,0.387v6.248c0,0.21,0.829,0.386,1.847,0.386h294.93c1.014,0,1.839-0.176,1.839-0.386V78.81
				c0-0.212-0.825-0.387-1.839-0.387H91.659z"/>
		</g>
		<polygon fill="#004352" points="105.474,88.166 101.72,88.166 101.72,93.813 101.72,105.766 105.474,105.766 240.063,105.766 
			240.063,93.813 240.063,88.166 		"/>
		<g>
			<g>
				<polygon fill="none" stroke="#242121" stroke-width="0.6986" stroke-miterlimit="10" points="107.979,89.853 106.276,89.853 
					106.276,94.351 106.276,103.867 107.979,103.867 169.004,103.867 169.004,94.351 169.004,89.853 				"/>
				<g>
					<g>
						<rect x="133.004" y="95.271" fill="#E0E0E0" width="8.737" height="1.462"/>
						<rect x="133.004" y="94.548" fill="#F4F7F6" width="8.737" height="1.454"/>
					</g>
					<path fill="#706B64" d="M141.699,94.347v2.581c0.616-0.017,1.112-0.585,1.112-1.291
						C142.812,94.934,142.315,94.361,141.699,94.347z"/>
					<path fill="#706B64" d="M133.501,94.347v2.581c-0.616-0.017-1.113-0.585-1.113-1.291
						C132.388,94.934,132.885,94.361,133.501,94.347z"/>
					<path fill="#706B64" d="M143.333,95.638c0,0.102-0.073,0.182-0.162,0.182h-0.562c-0.084,0-0.161-0.08-0.161-0.182l0,0
						c0-0.099,0.077-0.179,0.161-0.179h0.562C143.26,95.458,143.333,95.539,143.333,95.638L143.333,95.638z"/>
					<path fill="#706B64" d="M132.828,95.638c0,0.102-0.064,0.182-0.156,0.182h-0.563c-0.093,0-0.161-0.08-0.161-0.182l0,0
						c0-0.099,0.068-0.179,0.161-0.179h0.563C132.764,95.458,132.828,95.539,132.828,95.638L132.828,95.638z"/>
				</g>
			</g>
			<g>
				<polygon fill="none" stroke="#242121" stroke-width="0.6986" stroke-miterlimit="10" points="174.481,89.853 172.78,89.853 
					172.78,94.351 172.78,103.867 174.481,103.867 235.506,103.867 235.506,94.351 235.506,89.853 				"/>
				<g>
					<g>
						<rect x="199.507" y="95.271" fill="#E0E0E0" width="8.737" height="1.462"/>
						<rect x="199.507" y="94.548" fill="#F4F7F6" width="8.737" height="1.454"/>
					</g>
					<path fill="#706B64" d="M208.202,94.347v2.581c0.62-0.017,1.113-0.585,1.113-1.291
						C209.315,94.934,208.822,94.361,208.202,94.347z"/>
					<path fill="#706B64" d="M200.005,94.347v2.581c-0.619-0.017-1.113-0.585-1.113-1.291
						C198.892,94.934,199.386,94.361,200.005,94.347z"/>
					<path fill="#706B64" d="M209.836,95.638c0,0.102-0.072,0.182-0.161,0.182h-0.562c-0.085,0-0.161-0.08-0.161-0.182l0,0
						c0-0.099,0.076-0.179,0.161-0.179h0.562C209.764,95.458,209.836,95.539,209.836,95.638L209.836,95.638z"/>
					<path fill="#706B64" d="M199.331,95.638c0,0.102-0.064,0.182-0.157,0.182h-0.562c-0.096,0-0.161-0.08-0.161-0.182l0,0
						c0-0.099,0.065-0.179,0.161-0.179h0.562C199.267,95.458,199.331,95.539,199.331,95.638L199.331,95.638z"/>
				</g>
			</g>
		</g>
		<polygon fill="#004352" points="243.82,88.166 240.063,88.166 240.063,93.813 240.063,105.766 243.82,105.766 378.407,105.766 
			378.407,93.813 378.407,88.166 		"/>
		<g>
			<g>
				<polygon fill="none" stroke="#242121" stroke-width="0.6986" stroke-miterlimit="10" points="246.321,89.853 244.619,89.853 
					244.619,94.351 244.619,103.867 246.321,103.867 307.348,103.867 307.348,94.351 307.348,89.853 				"/>
				<g>
					<g>
						<rect x="271.352" y="95.271" fill="#E0E0E0" width="8.731" height="1.462"/>
						<rect x="271.352" y="94.548" fill="#F4F7F6" width="8.731" height="1.454"/>
					</g>
					<path fill="#706B64" d="M280.041,94.347v2.581c0.616-0.017,1.114-0.585,1.114-1.291
						C281.155,94.934,280.657,94.361,280.041,94.347z"/>
					<path fill="#706B64" d="M271.844,94.347v2.581c-0.618-0.017-1.109-0.585-1.109-1.291
						C270.734,94.934,271.226,94.361,271.844,94.347z"/>
					<path fill="#706B64" d="M281.68,95.638c0,0.102-0.077,0.182-0.161,0.182h-0.565c-0.085,0-0.162-0.08-0.162-0.182l0,0
						c0-0.099,0.077-0.179,0.162-0.179h0.565C281.603,95.458,281.68,95.539,281.68,95.638L281.68,95.638z"/>
					<path fill="#706B64" d="M271.171,95.638c0,0.102-0.064,0.182-0.157,0.182h-0.558c-0.097,0-0.164-0.08-0.164-0.182l0,0
						c0-0.099,0.067-0.179,0.164-0.179h0.558C271.106,95.458,271.171,95.539,271.171,95.638L271.171,95.638z"/>
				</g>
			</g>
			<g>
				<polygon fill="none" stroke="#242121" stroke-width="0.6986" stroke-miterlimit="10" points="312.82,89.853 311.123,89.853 
					311.123,94.351 311.123,103.867 312.82,103.867 373.854,103.867 373.854,94.351 373.854,89.853 				"/>
				<g>
					<g>
						<rect x="337.854" y="95.271" fill="#E0E0E0" width="8.734" height="1.462"/>
						<rect x="337.854" y="94.548" fill="#F4F7F6" width="8.734" height="1.454"/>
					</g>
					<path fill="#706B64" d="M346.541,94.347v2.581c0.623-0.017,1.117-0.585,1.117-1.291
						C347.658,94.934,347.164,94.361,346.541,94.347z"/>
					<path fill="#706B64" d="M338.351,94.347v2.581c-0.619-0.017-1.117-0.585-1.117-1.291
						C337.233,94.934,337.731,94.361,338.351,94.347z"/>
					<path fill="#706B64" d="M348.183,95.638c0,0.102-0.072,0.182-0.165,0.182h-0.562c-0.089,0-0.16-0.08-0.16-0.182l0,0
						c0-0.099,0.071-0.179,0.16-0.179h0.562C348.11,95.458,348.183,95.539,348.183,95.638L348.183,95.638z"/>
					<path fill="#706B64" d="M337.679,95.638c0,0.102-0.073,0.182-0.162,0.182h-0.562c-0.092,0-0.164-0.08-0.164-0.182l0,0
						c0-0.099,0.072-0.179,0.164-0.179h0.562C337.605,95.458,337.679,95.539,337.679,95.638L337.679,95.638z"/>
				</g>
			</g>
		</g>
	</g>
	<g>
		<path fill="#141818" d="M345.012,77.273c0,0.935,0.764,1.696,1.706,1.696h27.133c0.937,0,1.702-0.761,1.702-1.696l0,0
			c0-0.936-0.766-1.693-1.702-1.693h-27.133C345.775,75.58,345.012,76.337,345.012,77.273L345.012,77.273z"/>
		<polygon fill="#141818" points="345.864,78.866 349.215,78.044 343.511,55.015 341.572,55.489 		"/>
	</g>
	<g>
		<g>
			<path fill="#E7E6E6" d="M97.148,57.14l0.043-1.167l5.24,0.303v0.026c1.473,0.126,1.148,2.067,1.148,2.067v11.208h-0.941V58.37
				c0-0.692-0.359-0.908-0.359-0.908v-0.027L97.148,57.14z"/>
			<g>
				<path fill="#FFFFFF" d="M102.593,57.98c0.015,0.053,0.241,0.017,0.508-0.078c0.272-0.095,0.479-0.218,0.467-0.269
					c-0.011-0.054-0.241-0.019-0.508,0.08C102.792,57.81,102.586,57.926,102.593,57.98z"/>
				<path fill="#231F20" d="M102.586,57.983c0-0.014-0.009-0.048,0.133-0.131c0.088-0.05,0.211-0.104,0.341-0.151
					c0.176-0.063,0.344-0.102,0.44-0.102c0.045,0,0.071,0.009,0.08,0.03c0,0.01,0,0.016-0.004,0.027
					c-0.031,0.061-0.226,0.168-0.471,0.256c-0.176,0.065-0.345,0.104-0.44,0.104C102.615,58.016,102.593,58.004,102.586,57.983z
					 M103.063,57.722c-0.13,0.046-0.249,0.1-0.336,0.151c-0.104,0.06-0.124,0.094-0.124,0.104c0,0,0.008,0.016,0.062,0.016
					c0.092,0,0.261-0.038,0.436-0.1c0.268-0.097,0.437-0.198,0.456-0.248c0.003-0.003,0.003-0.005,0.003-0.01
					c0,0-0.008-0.015-0.06-0.015C103.403,57.621,103.239,57.661,103.063,57.722z"/>
			</g>
			<g>
				<path fill="#FFFFFF" d="M102.527,57.81c0.016,0.05,0.253,0.004,0.536-0.107c0.282-0.111,0.501-0.241,0.485-0.295
					c-0.008-0.052-0.252-0.004-0.535,0.106C102.734,57.626,102.516,57.756,102.527,57.81z"/>
				<path fill="#231F20" d="M102.52,57.812c-0.004-0.011-0.011-0.046,0.138-0.14c0.093-0.054,0.219-0.114,0.356-0.168
					c0.198-0.079,0.383-0.125,0.479-0.125c0.041,0,0.059,0.007,0.066,0.028c0,0.009,0.012,0.047-0.137,0.139
					c-0.092,0.056-0.222,0.115-0.356,0.167c-0.202,0.081-0.386,0.127-0.48,0.127C102.548,57.84,102.523,57.833,102.52,57.812z
					 M103.018,57.525c-0.135,0.052-0.261,0.113-0.353,0.17c-0.138,0.081-0.13,0.111-0.13,0.111c0,0.001,0.008,0.016,0.051,0.016
					c0.091,0,0.278-0.052,0.474-0.126c0.138-0.053,0.264-0.115,0.356-0.168c0.133-0.084,0.129-0.111,0.129-0.115
					c0,0-0.004-0.014-0.052-0.014C103.4,57.398,103.212,57.449,103.018,57.525z"/>
			</g>
			<g>
				<path fill="#FFFFFF" d="M102.463,57.649c0.015,0.049,0.252-0.014,0.531-0.142c0.275-0.129,0.49-0.277,0.474-0.33
					c-0.015-0.051-0.256,0.012-0.531,0.142C102.657,57.45,102.447,57.597,102.463,57.649z"/>
				<path fill="#231F20" d="M102.459,57.652c-0.008-0.007-0.004-0.017,0-0.024c0.022-0.068,0.222-0.201,0.478-0.319
					c0.206-0.096,0.401-0.159,0.486-0.159c0.03,0,0.05,0.01,0.054,0.025c0,0.007,0,0.015,0,0.022
					c-0.027,0.069-0.226,0.201-0.482,0.318c-0.207,0.099-0.397,0.163-0.485,0.163C102.478,57.678,102.459,57.668,102.459,57.652z
					 M102.94,57.332c-0.267,0.124-0.45,0.252-0.467,0.303c-0.003,0.004-0.003,0.006-0.003,0.01c0.003,0.007,0.015,0.012,0.038,0.012
					c0.084,0,0.278-0.065,0.481-0.161c0.271-0.126,0.452-0.254,0.468-0.306c0.003,0,0.003-0.007,0.003-0.007
					c-0.003-0.004-0.016-0.011-0.038-0.011C103.338,57.171,103.143,57.236,102.94,57.332z"/>
			</g>
			<g>
				<path fill="#FFFFFF" d="M102.417,57.55c0.022,0.049,0.248-0.054,0.513-0.224c0.26-0.173,0.454-0.352,0.436-0.402
					c-0.02-0.047-0.249,0.052-0.508,0.226C102.593,57.322,102.393,57.5,102.417,57.55z"/>
				<path fill="#231F20" d="M102.412,57.553c-0.003-0.005-0.003-0.014-0.003-0.022c0.019-0.069,0.202-0.234,0.439-0.391
					c0.218-0.143,0.418-0.237,0.489-0.237c0.02,0,0.03,0.006,0.035,0.016c0.004,0.012,0.004,0.019,0,0.026
					c-0.016,0.069-0.203,0.233-0.439,0.391c-0.219,0.141-0.414,0.236-0.486,0.236C102.428,57.572,102.417,57.566,102.412,57.553z
					 M102.859,57.16c-0.267,0.176-0.42,0.325-0.435,0.378c0,0,0,0.006,0,0.007c0.003,0.002,0.007,0.007,0.022,0.007
					c0.072,0,0.268-0.099,0.479-0.237c0.252-0.168,0.42-0.325,0.432-0.378c0,0,0-0.006,0-0.007c0-0.004-0.007-0.008-0.02-0.008
					C103.267,56.922,103.071,57.02,102.859,57.16z"/>
			</g>
			<g>
				<path fill="#FFFFFF" d="M102.354,57.444c0.028,0.044,0.242-0.093,0.479-0.313c0.241-0.218,0.417-0.431,0.391-0.475
					c-0.027-0.044-0.242,0.097-0.482,0.315C102.501,57.189,102.332,57.402,102.354,57.444z"/>
				<path fill="#231F20" d="M102.351,57.452c-0.003-0.007-0.007-0.013-0.003-0.025c0.007-0.071,0.172-0.264,0.391-0.462
					c0.206-0.191,0.401-0.326,0.466-0.326c0.013,0,0.021,0.005,0.027,0.012c0.004,0.006,0.004,0.015,0.004,0.024
					c-0.011,0.069-0.176,0.266-0.395,0.465c-0.21,0.192-0.401,0.323-0.466,0.323C102.359,57.463,102.354,57.459,102.351,57.452z
					 M102.745,56.979c-0.24,0.218-0.378,0.399-0.386,0.451c0,0.004,0,0.008,0.004,0.008c0,0.004,0.004,0.004,0.012,0.004
					c0.061,0,0.253-0.134,0.454-0.321c0.234-0.21,0.379-0.394,0.388-0.45c0-0.002,0-0.005,0-0.008
					c-0.005-0.002-0.009-0.005-0.013-0.005C103.143,56.658,102.948,56.795,102.745,56.979z"/>
			</g>
			<g>
				<path fill="#FFFFFF" d="M102.313,57.458c0.034,0.036,0.21-0.155,0.397-0.421c0.188-0.269,0.311-0.516,0.275-0.555
					c-0.03-0.034-0.211,0.154-0.397,0.423C102.405,57.175,102.279,57.421,102.313,57.458z"/>
				<path fill="#231F20" d="M102.306,57.466c-0.004-0.006-0.004-0.014-0.008-0.023c-0.004-0.073,0.119-0.3,0.288-0.543
					c0.171-0.248,0.336-0.432,0.393-0.432c0.008,0,0.012,0.003,0.016,0.008c0.005,0.006,0.007,0.013,0.007,0.024
					c0.008,0.071-0.114,0.301-0.286,0.543c-0.146,0.212-0.329,0.43-0.39,0.43C102.317,57.473,102.311,57.471,102.306,57.466z
					 M102.597,56.913c-0.188,0.269-0.283,0.473-0.279,0.529c0,0,0,0.004,0,0.008c0,0,0.004,0.001,0.008,0.001
					c0.038,0,0.194-0.158,0.383-0.423c0.183-0.271,0.278-0.475,0.278-0.53c0,0,0-0.005-0.004-0.009h-0.004
					C102.937,56.49,102.78,56.648,102.597,56.913z"/>
			</g>
		</g>
		<g>
			<polygon fill="#E7E6E6" points="107.934,62.57 109.245,62.57 107.934,77.973 104.762,77.973 104.762,62.57 			"/>
			<polygon fill="#F1F1F1" points="101.598,62.57 100.281,62.57 101.598,77.973 104.77,77.973 104.77,62.57 			"/>
			<polygon fill="#AD2724" points="104.762,71.329 108.486,71.329 108.958,65.942 104.762,65.942 			"/>
			<polygon fill="#E46D26" points="104.762,71.329 101.024,71.329 100.58,65.942 104.762,65.942 			"/>
			<rect x="100.083" y="61.993" fill="#AD2724" width="9.357" height="0.782"/>
			<path fill="#AD2724" d="M100.558,61.388c0-0.097,1.886-0.178,4.212-0.178c2.325,0,4.211,0.081,4.211,0.178v0.003l0,0v0.708
				h-8.423v-0.708l0,0V61.388z"/>
		</g>
	</g>
	<g>
		
			<linearGradient id="SVGID_3_" gradientUnits="userSpaceOnUse" x1="678.6729" y1="78.3286" x2="687.2354" y2="78.3286" gradientTransform="matrix(-1 0 0 1 1018.5645 0)">
			<stop  offset="0.0182" style="stop-color:#F1F1F1"/>
			<stop  offset="0.0575" style="stop-color:#F0D8D8"/>
			<stop  offset="0.1858" style="stop-color:#EF8B8D"/>
			<stop  offset="0.2918" style="stop-color:#ED5256"/>
			<stop  offset="0.3701" style="stop-color:#EC2F34"/>
			<stop  offset="0.4121" style="stop-color:#EC2227"/>
			<stop  offset="0.7879" style="stop-color:#BE202E"/>
		</linearGradient>
		<path opacity="0.79" fill="url(#SVGID_3_)" d="M339.87,78.973c-0.211-0.725-2.043-1.289-4.261-1.289
			c-2.228,0-4.049,0.564-4.259,1.289H339.87z"/>
		
			<linearGradient id="SVGID_4_" gradientUnits="userSpaceOnUse" x1="580.4893" y1="665.4316" x2="577.9779" y2="667.7141" gradientTransform="matrix(-1.4645 -1.1327 0.7355 -1.2315 688.1627 1550.1992)">
			<stop  offset="0.0182" style="stop-color:#F1F1F1"/>
			<stop  offset="0.0575" style="stop-color:#F0D8D8"/>
			<stop  offset="0.1858" style="stop-color:#EF8B8D"/>
			<stop  offset="0.2918" style="stop-color:#ED5256"/>
			<stop  offset="0.3701" style="stop-color:#EC2F34"/>
			<stop  offset="0.4121" style="stop-color:#EC2227"/>
			<stop  offset="0.7879" style="stop-color:#BE202E"/>
		</linearGradient>
		<path fill="url(#SVGID_4_)" d="M329.243,69.855c0,0,1.021-0.779,2.991-0.229v1.167c-0.948-0.251-2.499-0.462-2.991,0.69
			c0,0-0.429,0.987,0.165,2.746c0.593,1.764,1.025,1.596,1.243,1.484c0.218-0.11,0.534-1.484,0.78-1.832
			c0,0,0.068-0.561,0.523-0.262c0.156,0.107,0.241,0.282,0.279,0.461v0.692c-0.031,0.111-1.159,4.64-3.354,0.492
			C326.657,71.063,329.243,69.855,329.243,69.855z"/>
		
			<linearGradient id="SVGID_5_" gradientUnits="userSpaceOnUse" x1="677.2119" y1="73.3115" x2="688.4899" y2="73.3115" gradientTransform="matrix(-1 0 0 1 1018.5645 0)">
			<stop  offset="0.0182" style="stop-color:#F1F1F1"/>
			<stop  offset="0.0575" style="stop-color:#F0D8D8"/>
			<stop  offset="0.1858" style="stop-color:#EF8B8D"/>
			<stop  offset="0.2918" style="stop-color:#ED5256"/>
			<stop  offset="0.3701" style="stop-color:#EC2F34"/>
			<stop  offset="0.4121" style="stop-color:#EC2227"/>
			<stop  offset="0.7879" style="stop-color:#BE202E"/>
		</linearGradient>
		<path fill="url(#SVGID_5_)" d="M339.981,67.649h-8.783v11.324h8.783v-0.014c0-0.02,0-0.036,0-0.055c0-0.019,0-0.04,0-0.057V67.649
			z"/>
		
			<linearGradient id="SVGID_6_" gradientUnits="userSpaceOnUse" x1="678.5811" y1="67.9805" x2="687.3716" y2="67.9805" gradientTransform="matrix(-1 0 0 1 1018.5645 0)">
			<stop  offset="0.0182" style="stop-color:#F1F1F1"/>
			<stop  offset="0.0575" style="stop-color:#F0D8D8"/>
			<stop  offset="0.1858" style="stop-color:#EF8B8D"/>
			<stop  offset="0.2918" style="stop-color:#ED5256"/>
			<stop  offset="0.3701" style="stop-color:#EC2F34"/>
			<stop  offset="0.4121" style="stop-color:#EC2227"/>
			<stop  offset="0.7879" style="stop-color:#BE202E"/>
		</linearGradient>
		<path fill="url(#SVGID_6_)" d="M332.111,67.649c0.804,0.406,2.063,0.662,3.479,0.662c1.419,0,2.674-0.256,3.477-0.662H332.111z"/>
		
			<linearGradient id="SVGID_7_" gradientUnits="userSpaceOnUse" x1="676.7637" y1="67.9502" x2="689.1107" y2="67.9502" gradientTransform="matrix(-1 0 0 1 1018.5645 0)">
			<stop  offset="0.0182" style="stop-color:#F1F1F1"/>
			<stop  offset="0.0575" style="stop-color:#F0D8D8"/>
			<stop  offset="0.1858" style="stop-color:#EF8B8D"/>
			<stop  offset="0.2918" style="stop-color:#ED5256"/>
			<stop  offset="0.3701" style="stop-color:#EC2F34"/>
			<stop  offset="0.4121" style="stop-color:#EC2227"/>
			<stop  offset="0.7879" style="stop-color:#BE202E"/>
		</linearGradient>
		<path fill="url(#SVGID_7_)" d="M332.251,67.649c0.806,0.368,2.001,0.601,3.334,0.601c1.335,0,2.53-0.233,3.336-0.601H332.251z"/>
		
			<linearGradient id="SVGID_8_" gradientUnits="userSpaceOnUse" x1="678.8203" y1="67.8354" x2="687.1513" y2="67.8354" gradientTransform="matrix(-1 0 0 1 1018.5645 0)">
			<stop  offset="0.0182" style="stop-color:#F1F1F1"/>
			<stop  offset="0.0575" style="stop-color:#F0D8D8"/>
			<stop  offset="0.1858" style="stop-color:#EF8B8D"/>
			<stop  offset="0.2918" style="stop-color:#ED5256"/>
			<stop  offset="0.3701" style="stop-color:#EC2F34"/>
			<stop  offset="0.4121" style="stop-color:#EC2227"/>
			<stop  offset="0.7879" style="stop-color:#BE202E"/>
		</linearGradient>
		<path fill="url(#SVGID_8_)" d="M332.836,67.649c0.733,0.23,1.689,0.372,2.742,0.372c1.052,0,2.013-0.142,2.743-0.372H332.836z"/>
		
			<linearGradient id="SVGID_9_" gradientUnits="userSpaceOnUse" x1="679.5088" y1="70.1973" x2="686.46" y2="70.1973" gradientTransform="matrix(-1 0 0 0.9272 1018.5645 2.7489)">
			<stop  offset="0.0182" style="stop-color:#F1F1F1"/>
			<stop  offset="0.0575" style="stop-color:#F0D8D8"/>
			<stop  offset="0.1858" style="stop-color:#EF8B8D"/>
			<stop  offset="0.2918" style="stop-color:#ED5256"/>
			<stop  offset="0.3701" style="stop-color:#EC2F34"/>
			<stop  offset="0.4121" style="stop-color:#EC2227"/>
			<stop  offset="0.7879" style="stop-color:#BE202E"/>
		</linearGradient>
		<path fill="url(#SVGID_9_)" d="M332.717,67.649c0.691,0.246,1.684,0.372,2.861,0.372c1.158,0,2.092-0.138,2.793-0.372H332.717z"/>
	</g>
	<g>
		
			<linearGradient id="SVGID_10_" gradientUnits="userSpaceOnUse" x1="721.127" y1="78.3286" x2="729.6915" y2="78.3286" gradientTransform="matrix(-1 0 0 1 1018.5645 0)">
			<stop  offset="0.0182" style="stop-color:#F1F1F1"/>
			<stop  offset="0.0575" style="stop-color:#F0D8D8"/>
			<stop  offset="0.1858" style="stop-color:#EF8B8D"/>
			<stop  offset="0.2918" style="stop-color:#ED5256"/>
			<stop  offset="0.3701" style="stop-color:#EC2F34"/>
			<stop  offset="0.4121" style="stop-color:#EC2227"/>
			<stop  offset="0.7879" style="stop-color:#BE202E"/>
		</linearGradient>
		<path opacity="0.79" fill="url(#SVGID_10_)" d="M297.416,78.973c-0.21-0.725-2.035-1.289-4.261-1.289
			c-2.223,0-4.048,0.564-4.261,1.289H297.416z"/>
		
			<linearGradient id="SVGID_11_" gradientUnits="userSpaceOnUse" x1="600.3184" y1="647.1943" x2="597.8073" y2="649.4764" gradientTransform="matrix(-1.4645 -1.1327 0.7355 -1.2315 688.1627 1550.1992)">
			<stop  offset="0.0182" style="stop-color:#F1F1F1"/>
			<stop  offset="0.0575" style="stop-color:#F0D8D8"/>
			<stop  offset="0.1858" style="stop-color:#EF8B8D"/>
			<stop  offset="0.2918" style="stop-color:#ED5256"/>
			<stop  offset="0.3701" style="stop-color:#EC2F34"/>
			<stop  offset="0.4121" style="stop-color:#EC2227"/>
			<stop  offset="0.7879" style="stop-color:#BE202E"/>
		</linearGradient>
		<path fill="url(#SVGID_11_)" d="M286.79,69.855c0,0,1.02-0.779,2.991-0.229v1.167c-0.949-0.251-2.498-0.462-2.991,0.69
			c0,0-0.429,0.987,0.168,2.746c0.594,1.764,1.021,1.596,1.239,1.484c0.223-0.11,0.539-1.484,0.78-1.832
			c0,0,0.073-0.561,0.524-0.262c0.156,0.107,0.237,0.282,0.279,0.461v0.692c-0.027,0.111-1.155,4.64-3.351,0.492
			C284.199,71.063,286.79,69.855,286.79,69.855z"/>
		
			<linearGradient id="SVGID_12_" gradientUnits="userSpaceOnUse" x1="719.6602" y1="73.3115" x2="730.9444" y2="73.3115" gradientTransform="matrix(-1 0 0 1 1018.5645 0)">
			<stop  offset="0.0182" style="stop-color:#F1F1F1"/>
			<stop  offset="0.0575" style="stop-color:#F0D8D8"/>
			<stop  offset="0.1858" style="stop-color:#EF8B8D"/>
			<stop  offset="0.2918" style="stop-color:#ED5256"/>
			<stop  offset="0.3701" style="stop-color:#EC2F34"/>
			<stop  offset="0.4121" style="stop-color:#EC2227"/>
			<stop  offset="0.7879" style="stop-color:#BE202E"/>
		</linearGradient>
		<path fill="url(#SVGID_12_)" d="M297.527,67.649h-8.783v11.324h8.783v-0.014c0-0.02,0.005-0.036,0.005-0.055
			c0-0.019-0.005-0.04-0.005-0.057V67.649z"/>
		
			<linearGradient id="SVGID_13_" gradientUnits="userSpaceOnUse" x1="721.0342" y1="67.9805" x2="729.8248" y2="67.9805" gradientTransform="matrix(-1 0 0 1 1018.5645 0)">
			<stop  offset="0.0182" style="stop-color:#F1F1F1"/>
			<stop  offset="0.0575" style="stop-color:#F0D8D8"/>
			<stop  offset="0.1858" style="stop-color:#EF8B8D"/>
			<stop  offset="0.2918" style="stop-color:#ED5256"/>
			<stop  offset="0.3701" style="stop-color:#EC2F34"/>
			<stop  offset="0.4121" style="stop-color:#EC2227"/>
			<stop  offset="0.7879" style="stop-color:#BE202E"/>
		</linearGradient>
		<path fill="url(#SVGID_13_)" d="M289.658,67.649c0.808,0.406,2.063,0.662,3.478,0.662s2.674-0.256,3.478-0.662H289.658z"/>
		
			<linearGradient id="SVGID_14_" gradientUnits="userSpaceOnUse" x1="719.2178" y1="67.9502" x2="731.5666" y2="67.9502" gradientTransform="matrix(-1 0 0 1 1018.5645 0)">
			<stop  offset="0.0182" style="stop-color:#F1F1F1"/>
			<stop  offset="0.0575" style="stop-color:#F0D8D8"/>
			<stop  offset="0.1858" style="stop-color:#EF8B8D"/>
			<stop  offset="0.2918" style="stop-color:#ED5256"/>
			<stop  offset="0.3701" style="stop-color:#EC2F34"/>
			<stop  offset="0.4121" style="stop-color:#EC2227"/>
			<stop  offset="0.7879" style="stop-color:#BE202E"/>
		</linearGradient>
		<path fill="url(#SVGID_14_)" d="M289.796,67.649c0.808,0.368,2.004,0.601,3.336,0.601c1.339,0,2.533-0.233,3.335-0.601H289.796z"
			/>
		
			<linearGradient id="SVGID_15_" gradientUnits="userSpaceOnUse" x1="721.2773" y1="67.8354" x2="729.5964" y2="67.8354" gradientTransform="matrix(-1 0 0 1 1018.5645 0)">
			<stop  offset="0.0182" style="stop-color:#F1F1F1"/>
			<stop  offset="0.0575" style="stop-color:#F0D8D8"/>
			<stop  offset="0.1858" style="stop-color:#EF8B8D"/>
			<stop  offset="0.2918" style="stop-color:#ED5256"/>
			<stop  offset="0.3701" style="stop-color:#EC2F34"/>
			<stop  offset="0.4121" style="stop-color:#EC2227"/>
			<stop  offset="0.7879" style="stop-color:#BE202E"/>
		</linearGradient>
		<path fill="url(#SVGID_15_)" d="M290.389,67.649c0.73,0.23,1.688,0.372,2.739,0.372c1.048,0,2.009-0.142,2.738-0.372H290.389z"/>
		
			<linearGradient id="SVGID_16_" gradientUnits="userSpaceOnUse" x1="721.9639" y1="70.1973" x2="728.9139" y2="70.1973" gradientTransform="matrix(-1 0 0 0.9272 1018.5645 2.7489)">
			<stop  offset="0.0182" style="stop-color:#F1F1F1"/>
			<stop  offset="0.0575" style="stop-color:#F0D8D8"/>
			<stop  offset="0.1858" style="stop-color:#EF8B8D"/>
			<stop  offset="0.2918" style="stop-color:#ED5256"/>
			<stop  offset="0.3701" style="stop-color:#EC2F34"/>
			<stop  offset="0.4121" style="stop-color:#EC2227"/>
			<stop  offset="0.7879" style="stop-color:#BE202E"/>
		</linearGradient>
		<path fill="url(#SVGID_16_)" d="M290.263,67.649c0.697,0.246,1.688,0.372,2.865,0.372c1.155,0,2.093-0.138,2.788-0.372H290.263z"
			/>
	</g>
	<g>
		
			<linearGradient id="SVGID_17_" gradientUnits="userSpaceOnUse" x1="791.4316" y1="78.3286" x2="799.9971" y2="78.3286" gradientTransform="matrix(-1 0 0 1 1018.5645 0)">
			<stop  offset="0.0182" style="stop-color:#F1F1F1"/>
			<stop  offset="0.0575" style="stop-color:#F0D8D8"/>
			<stop  offset="0.1858" style="stop-color:#EF8B8D"/>
			<stop  offset="0.2918" style="stop-color:#ED5256"/>
			<stop  offset="0.3701" style="stop-color:#EC2F34"/>
			<stop  offset="0.4121" style="stop-color:#EC2227"/>
			<stop  offset="0.7879" style="stop-color:#BE202E"/>
		</linearGradient>
		<path opacity="0.79" fill="url(#SVGID_17_)" d="M227.111,78.973c-0.215-0.725-2.04-1.289-4.262-1.289
			c-2.227,0-4.052,0.564-4.261,1.289H227.111z"/>
		
			<linearGradient id="SVGID_18_" gradientUnits="userSpaceOnUse" x1="633.1563" y1="616.9902" x2="630.6465" y2="619.2712" gradientTransform="matrix(-1.4645 -1.1327 0.7355 -1.2315 688.1627 1550.1992)">
			<stop  offset="0.0182" style="stop-color:#F1F1F1"/>
			<stop  offset="0.0575" style="stop-color:#F0D8D8"/>
			<stop  offset="0.1858" style="stop-color:#EF8B8D"/>
			<stop  offset="0.2918" style="stop-color:#ED5256"/>
			<stop  offset="0.3701" style="stop-color:#EC2F34"/>
			<stop  offset="0.4121" style="stop-color:#EC2227"/>
			<stop  offset="0.7879" style="stop-color:#BE202E"/>
		</linearGradient>
		<path fill="url(#SVGID_18_)" d="M216.48,69.855c0,0,1.025-0.779,2.991-0.229v1.167c-0.945-0.251-2.494-0.462-2.987,0.69
			c0,0-0.433,0.987,0.163,2.746c0.594,1.764,1.026,1.596,1.244,1.484c0.218-0.11,0.536-1.484,0.78-1.832c0,0,0.068-0.561,0.52-0.262
			c0.158,0.107,0.241,0.282,0.28,0.461v0.692c-0.026,0.111-1.155,4.64-3.351,0.492C213.897,71.063,216.48,69.855,216.48,69.855z"/>
		
			<linearGradient id="SVGID_19_" gradientUnits="userSpaceOnUse" x1="789.9717" y1="73.3115" x2="801.2534" y2="73.3115" gradientTransform="matrix(-1 0 0 1 1018.5645 0)">
			<stop  offset="0.0182" style="stop-color:#F1F1F1"/>
			<stop  offset="0.0575" style="stop-color:#F0D8D8"/>
			<stop  offset="0.1858" style="stop-color:#EF8B8D"/>
			<stop  offset="0.2918" style="stop-color:#ED5256"/>
			<stop  offset="0.3701" style="stop-color:#EC2F34"/>
			<stop  offset="0.4121" style="stop-color:#EC2227"/>
			<stop  offset="0.7879" style="stop-color:#BE202E"/>
		</linearGradient>
		<path fill="url(#SVGID_19_)" d="M227.222,67.649h-8.786v11.324h8.786v-0.014c0-0.02,0-0.036,0-0.055c0-0.019,0-0.04,0-0.057
			V67.649z"/>
		
			<linearGradient id="SVGID_20_" gradientUnits="userSpaceOnUse" x1="791.3438" y1="67.9805" x2="800.1282" y2="67.9805" gradientTransform="matrix(-1 0 0 1 1018.5645 0)">
			<stop  offset="0.0182" style="stop-color:#F1F1F1"/>
			<stop  offset="0.0575" style="stop-color:#F0D8D8"/>
			<stop  offset="0.1858" style="stop-color:#EF8B8D"/>
			<stop  offset="0.2918" style="stop-color:#ED5256"/>
			<stop  offset="0.3701" style="stop-color:#EC2F34"/>
			<stop  offset="0.4121" style="stop-color:#EC2227"/>
			<stop  offset="0.7879" style="stop-color:#BE202E"/>
		</linearGradient>
		<path fill="url(#SVGID_20_)" d="M219.354,67.649c0.803,0.406,2.058,0.662,3.474,0.662c1.419,0,2.677-0.256,3.477-0.662H219.354z"
			/>
		
			<linearGradient id="SVGID_21_" gradientUnits="userSpaceOnUse" x1="789.5273" y1="67.9502" x2="801.8707" y2="67.9502" gradientTransform="matrix(-1 0 0 1 1018.5645 0)">
			<stop  offset="0.0182" style="stop-color:#F1F1F1"/>
			<stop  offset="0.0575" style="stop-color:#F0D8D8"/>
			<stop  offset="0.1858" style="stop-color:#EF8B8D"/>
			<stop  offset="0.2918" style="stop-color:#ED5256"/>
			<stop  offset="0.3701" style="stop-color:#EC2F34"/>
			<stop  offset="0.4121" style="stop-color:#EC2227"/>
			<stop  offset="0.7879" style="stop-color:#BE202E"/>
		</linearGradient>
		<path fill="url(#SVGID_21_)" d="M219.49,67.649c0.807,0.368,2.001,0.601,3.337,0.601c1.334,0,2.527-0.233,3.331-0.601H219.49z"/>
		
			<linearGradient id="SVGID_22_" gradientUnits="userSpaceOnUse" x1="791.5801" y1="67.8354" x2="799.9111" y2="67.8354" gradientTransform="matrix(-1 0 0 1 1018.5645 0)">
			<stop  offset="0.0182" style="stop-color:#F1F1F1"/>
			<stop  offset="0.0575" style="stop-color:#F0D8D8"/>
			<stop  offset="0.1858" style="stop-color:#EF8B8D"/>
			<stop  offset="0.2918" style="stop-color:#ED5256"/>
			<stop  offset="0.3701" style="stop-color:#EC2F34"/>
			<stop  offset="0.4121" style="stop-color:#EC2227"/>
			<stop  offset="0.7879" style="stop-color:#BE202E"/>
		</linearGradient>
		<path fill="url(#SVGID_22_)" d="M220.076,67.649c0.734,0.23,1.69,0.372,2.743,0.372c1.052,0,2.012-0.142,2.742-0.372H220.076z"/>
		
			<linearGradient id="SVGID_23_" gradientUnits="userSpaceOnUse" x1="792.2676" y1="70.1973" x2="799.2236" y2="70.1973" gradientTransform="matrix(-1 0 0 0.9272 1018.5645 2.7489)">
			<stop  offset="0.0182" style="stop-color:#F1F1F1"/>
			<stop  offset="0.0575" style="stop-color:#F0D8D8"/>
			<stop  offset="0.1858" style="stop-color:#EF8B8D"/>
			<stop  offset="0.2918" style="stop-color:#ED5256"/>
			<stop  offset="0.3701" style="stop-color:#EC2F34"/>
			<stop  offset="0.4121" style="stop-color:#EC2227"/>
			<stop  offset="0.7879" style="stop-color:#BE202E"/>
		</linearGradient>
		<path fill="url(#SVGID_23_)" d="M219.954,67.649c0.695,0.246,1.686,0.372,2.865,0.372c1.155,0,2.091-0.138,2.793-0.372H219.954z"
			/>
	</g>
	<g>
		
			<linearGradient id="SVGID_24_" gradientUnits="userSpaceOnUse" x1="843.1543" y1="77.3286" x2="851.7198" y2="77.3286" gradientTransform="matrix(-1 0 0 1 1018.5645 0)">
			<stop  offset="0.0182" style="stop-color:#F1F1F1"/>
			<stop  offset="0.0575" style="stop-color:#F0D8D8"/>
			<stop  offset="0.1858" style="stop-color:#EF8B8D"/>
			<stop  offset="0.2918" style="stop-color:#ED5256"/>
			<stop  offset="0.3701" style="stop-color:#EC2F34"/>
			<stop  offset="0.4121" style="stop-color:#EC2227"/>
			<stop  offset="0.7879" style="stop-color:#BE202E"/>
		</linearGradient>
		<path opacity="0.79" fill="url(#SVGID_24_)" d="M175.389,77.973c-0.21-0.725-2.039-1.289-4.257-1.289
			c-2.228,0-4.052,0.564-4.266,1.289H175.389z"/>
		
			<linearGradient id="SVGID_25_" gradientUnits="userSpaceOnUse" x1="657.5928" y1="595.3252" x2="655.083" y2="597.6061" gradientTransform="matrix(-1.4645 -1.1327 0.7355 -1.2315 688.1627 1550.1992)">
			<stop  offset="0.0182" style="stop-color:#F1F1F1"/>
			<stop  offset="0.0575" style="stop-color:#F0D8D8"/>
			<stop  offset="0.1858" style="stop-color:#EF8B8D"/>
			<stop  offset="0.2918" style="stop-color:#ED5256"/>
			<stop  offset="0.3701" style="stop-color:#EC2F34"/>
			<stop  offset="0.4121" style="stop-color:#EC2227"/>
			<stop  offset="0.7879" style="stop-color:#BE202E"/>
		</linearGradient>
		<path fill="url(#SVGID_25_)" d="M164.762,68.855c0,0,1.021-0.779,2.988-0.229v1.167c-0.941-0.251-2.494-0.462-2.988,0.69
			c0,0-0.428,0.987,0.167,2.746c0.594,1.764,1.022,1.596,1.241,1.484c0.223-0.11,0.54-1.484,0.78-1.832c0,0,0.072-0.561,0.523-0.262
			c0.157,0.107,0.241,0.282,0.276,0.461v0.692c-0.028,0.111-1.152,4.64-3.352,0.492C162.177,70.063,164.762,68.855,164.762,68.855z"
			/>
		
			<linearGradient id="SVGID_26_" gradientUnits="userSpaceOnUse" x1="841.6895" y1="72.3115" x2="852.9725" y2="72.3115" gradientTransform="matrix(-1 0 0 1 1018.5645 0)">
			<stop  offset="0.0182" style="stop-color:#F1F1F1"/>
			<stop  offset="0.0575" style="stop-color:#F0D8D8"/>
			<stop  offset="0.1858" style="stop-color:#EF8B8D"/>
			<stop  offset="0.2918" style="stop-color:#ED5256"/>
			<stop  offset="0.3701" style="stop-color:#EC2F34"/>
			<stop  offset="0.4121" style="stop-color:#EC2227"/>
			<stop  offset="0.7879" style="stop-color:#BE202E"/>
		</linearGradient>
		<path fill="url(#SVGID_26_)" d="M175.5,66.649h-8.783v11.324h8.783v-0.014c0-0.02,0.004-0.036,0.004-0.055
			c0-0.019-0.004-0.04-0.004-0.057V66.649z"/>
		
			<linearGradient id="SVGID_27_" gradientUnits="userSpaceOnUse" x1="843.0674" y1="66.9805" x2="851.8469" y2="66.9805" gradientTransform="matrix(-1 0 0 1 1018.5645 0)">
			<stop  offset="0.0182" style="stop-color:#F1F1F1"/>
			<stop  offset="0.0575" style="stop-color:#F0D8D8"/>
			<stop  offset="0.1858" style="stop-color:#EF8B8D"/>
			<stop  offset="0.2918" style="stop-color:#ED5256"/>
			<stop  offset="0.3701" style="stop-color:#EC2F34"/>
			<stop  offset="0.4121" style="stop-color:#EC2227"/>
			<stop  offset="0.7879" style="stop-color:#BE202E"/>
		</linearGradient>
		<path fill="url(#SVGID_27_)" d="M167.635,66.649c0.803,0.406,2.058,0.662,3.474,0.662c1.419,0,2.673-0.256,3.473-0.662H167.635z"
			/>
		
			<linearGradient id="SVGID_28_" gradientUnits="userSpaceOnUse" x1="841.2432" y1="66.9502" x2="853.5938" y2="66.9502" gradientTransform="matrix(-1 0 0 1 1018.5645 0)">
			<stop  offset="0.0182" style="stop-color:#F1F1F1"/>
			<stop  offset="0.0575" style="stop-color:#F0D8D8"/>
			<stop  offset="0.1858" style="stop-color:#EF8B8D"/>
			<stop  offset="0.2918" style="stop-color:#ED5256"/>
			<stop  offset="0.3701" style="stop-color:#EC2F34"/>
			<stop  offset="0.4121" style="stop-color:#EC2227"/>
			<stop  offset="0.7879" style="stop-color:#BE202E"/>
		</linearGradient>
		<path fill="url(#SVGID_28_)" d="M167.769,66.649c0.807,0.368,2.001,0.601,3.34,0.601c1.334,0,2.527-0.233,3.332-0.601H167.769z"/>
		
			<linearGradient id="SVGID_29_" gradientUnits="userSpaceOnUse" x1="843.3027" y1="66.8354" x2="851.6293" y2="66.8354" gradientTransform="matrix(-1 0 0 1 1018.5645 0)">
			<stop  offset="0.0182" style="stop-color:#F1F1F1"/>
			<stop  offset="0.0575" style="stop-color:#F0D8D8"/>
			<stop  offset="0.1858" style="stop-color:#EF8B8D"/>
			<stop  offset="0.2918" style="stop-color:#ED5256"/>
			<stop  offset="0.3701" style="stop-color:#EC2F34"/>
			<stop  offset="0.4121" style="stop-color:#EC2227"/>
			<stop  offset="0.7879" style="stop-color:#BE202E"/>
		</linearGradient>
		<path fill="url(#SVGID_29_)" d="M168.357,66.649c0.73,0.23,1.688,0.372,2.743,0.372c1.052,0,2.009-0.142,2.739-0.372H168.357z"/>
		
			<linearGradient id="SVGID_30_" gradientUnits="userSpaceOnUse" x1="843.9863" y1="69.1187" x2="850.9435" y2="69.1187" gradientTransform="matrix(-1 0 0 0.9272 1018.5645 2.7489)">
			<stop  offset="0.0182" style="stop-color:#F1F1F1"/>
			<stop  offset="0.0575" style="stop-color:#F0D8D8"/>
			<stop  offset="0.1858" style="stop-color:#EF8B8D"/>
			<stop  offset="0.2918" style="stop-color:#ED5256"/>
			<stop  offset="0.3701" style="stop-color:#EC2F34"/>
			<stop  offset="0.4121" style="stop-color:#EC2227"/>
			<stop  offset="0.7879" style="stop-color:#BE202E"/>
		</linearGradient>
		<path fill="url(#SVGID_30_)" d="M168.234,66.649c0.693,0.246,1.688,0.372,2.866,0.372c1.155,0,2.092-0.138,2.793-0.372H168.234z"
			/>
	</g>
	<g>
		<g>
			<path fill="#F0C380" d="M374.581,71.333c0,0-3.076-2.315-6.351-2.443c0,0-1.477-0.507-2.152-1.162c0,0-0.882,2.023,0.879,2.592
				c0,0,2.27-0.027,2.505,2.049c0,0,1.083,1.813,2.793,2.102c1.71,0.286,2.724-0.358,3.226-0.951
				C375.48,73.521,375.54,72.007,374.581,71.333z"/>
			<path fill="#F0C380" d="M379.768,79.767c-0.142-0.042-4.716-0.662-4.716-0.662s0,0-1.477,0.089
				c-1.478,0.089-4.514,0.737-5.623,0.367c-1.105-0.375-3.75-6.878-3.75-6.878c3.117-1.33,10.379-1.35,10.379-1.35
				s1.755,1.216,2.984,1.969c0.489,0.294,3.059,1.388,4.107,1.801L379.768,79.767z"/>
			<g>
				<path fill="#F0C380" d="M365.572,72.305c0.67-0.097,1.209,0.221,1.189,0.721l0,0c-0.015,0.493-0.57,0.973-1.251,1.069
					l-5.286,0.767c-0.674,0.098-1.209-0.223-1.193-0.722l0,0c0.015-0.493,0.577-0.975,1.246-1.07L365.572,72.305z"/>
				<path fill="#F0C380" d="M366.38,74.381c0.745-0.11,1.342,0.203,1.327,0.692l0,0c-0.02,0.5-0.639,0.987-1.386,1.097l-5.887,0.854
					c-0.753,0.107-1.354-0.207-1.331-0.702l0,0c0.012-0.496,0.635-0.986,1.381-1.093L366.38,74.381z"/>
				<path fill="#F0C380" d="M366.888,76.255c0.586-0.084,1.045,0.249,1.034,0.747l0,0c-0.017,0.493-0.506,0.959-1.087,1.044
					l-4.571,0.662c-0.586,0.084-1.041-0.249-1.029-0.744l0,0c0.022-0.494,0.506-0.962,1.09-1.049L366.888,76.255z"/>
				<path fill="#F0C380" d="M368.521,77.869c0.481-0.068,0.857,0.275,0.838,0.769l0,0c-0.015,0.497-0.413,0.953-0.895,1.024
					l-3.765,0.544c-0.479,0.069-0.861-0.275-0.843-0.772l0,0c0.016-0.494,0.418-0.948,0.896-1.018L368.521,77.869z"/>
			</g>
		</g>
		<path fill="#CBE9EC" d="M403.073,75.123l10.06-16.461l2.294-3.893c0,0,3.727-9.652,11.806-5.932c0,0,6.382,3.176,1.175,10.621
			c-2.28,3.259-6.558,7.245-6.558,7.245l-11.93,13.672C407.531,78.776,405.287,76.967,403.073,75.123z"/>
		<polygon fill="#CBE9EC" points="406.4,73.471 407.506,81.99 399.27,81.75 377.434,80.855 377.79,72.295 		"/>
		<path fill="#CBE9EC" d="M402.207,77.083c-0.378,2.362,1.226,4.589,3.589,4.971c2.364,0.38,4.59-1.226,4.976-3.588
			c0.376-2.362-1.227-4.59-3.587-4.973C404.815,73.113,402.59,74.721,402.207,77.083z"/>
	</g>
	<g>
		<path fill="#141818" d="M131.462,77.273c0,0.935-0.764,1.696-1.702,1.696h-27.137c-0.941,0-1.703-0.761-1.703-1.696l0,0
			c0-0.936,0.762-1.693,1.703-1.693h27.137C130.698,75.58,131.462,76.337,131.462,77.273L131.462,77.273z"/>
		<polygon fill="#141818" points="130.608,78.866 127.254,78.044 132.958,55.015 134.901,55.489 		"/>
	</g>
	<g>
		<g>
			<path fill="#F7BFA0" d="M61.299,69.251c2.91,1.058,5.45,1.798,5.45,1.798l23.166,8.376c0.038,0.013,0.073,0.033,0.112,0.047
				c2.18,0.887,4.661-0.164,5.551-2.344c0.882-2.173-0.162-4.656-2.335-5.548l0,0l-22.432-9.854l-4.774-2.223
				c0,0-0.239-0.107-0.665-0.284L61.299,69.251z"/>
			<g>
				<path fill="#F3C4AE" d="M115.174,67.703c0,0,3.072-2.208,6.011-2.404c0,0,1.392-0.502,2.079-1.12c0,0,0.498,1.842-1.146,2.406
					c0,0-2.023,0.034-2.528,1.951c0,0-1.225,1.696-2.79,2c-1.563,0.306-2.375-0.26-2.738-0.796
					C114.061,69.741,114.225,68.348,115.174,67.703z"/>
				<g>
					<path fill="#F7BFA0" d="M123.065,68.381c-0.588-0.073-1.113,0.235-1.166,0.691l0,0c-0.058,0.459,0.37,0.884,0.96,0.959
						l4.602,0.575c0.59,0.074,1.109-0.234,1.167-0.691l0,0c0.057-0.455-0.372-0.886-0.961-0.959L123.065,68.381z"/>
					<path fill="#F7BFA0" d="M122.048,70.311c-0.654-0.082-1.228,0.222-1.28,0.678l0,0c-0.059,0.45,0.42,0.891,1.074,0.975
						l5.13,0.639c0.649,0.082,1.228-0.223,1.284-0.676l0,0c0.054-0.457-0.424-0.893-1.078-0.973L122.048,70.311z"/>
					<path fill="#F7BFA0" d="M121.321,72.052c-0.505-0.062-0.96,0.255-1.021,0.711l0,0c-0.054,0.456,0.311,0.876,0.814,0.941
						l3.982,0.497c0.505,0.063,0.964-0.256,1.019-0.711l0,0c0.057-0.454-0.307-0.877-0.815-0.94L121.321,72.052z"/>
					<path fill="#F7BFA0" d="M119.639,73.582c-0.413-0.053-0.8,0.272-0.858,0.727l0,0c-0.057,0.459,0.238,0.869,0.655,0.922
						l3.274,0.409c0.421,0.054,0.804-0.274,0.86-0.73l0,0c0.058-0.453-0.236-0.864-0.653-0.918L119.639,73.582z"/>
				</g>
				<path fill="#F7BFA0" d="M115.174,67.703c0,0-1.74,1.166-2.941,1.888c-0.475,0.285-3.079,1.423-4.07,1.829l0.004,0.01
					c-2.065-0.054-9.326,0.038-13.989,0.262c-0.32-0.066-0.653-0.1-0.995-0.084c-2.249,0.077-4.012,1.97-3.932,4.221
					c0.08,2.251,1.97,4.016,4.224,3.935c0.524-0.019,1.021-0.137,1.472-0.333c4.155-0.757,11.63-2.992,14.399-3.841l0.003,0.013
					c0.131-0.044,4.296-0.724,4.296-0.724s0,0,1.305,0.042c1.301,0.048,3.917,0.572,4.957,0.203c1.037-0.371,4.328-6.43,4.328-6.43
					C121.646,67.548,115.174,67.703,115.174,67.703z"/>
			</g>
		</g>
		<path fill="#013C49" d="M75.682,62.81c-0.156-0.075-0.306-0.15-0.463-0.214l-12.233-4.969c-4.14-1.682-8.646-0.21-10.064,3.286
			c-1.423,3.496,0.78,7.69,4.923,9.376l12.229,4.967c0.16,0.067,0.317,0.117,0.479,0.174L75.682,62.81z"/>
	</g>
</g>
</svg>
