<?xml version="1.0" encoding="utf-8"?>
<!-- Generator: Adobe Illustrator 15.1.0, SVG Export Plug-In . SVG Version: 6.00 Build 0)  -->
<!DOCTYPE svg PUBLIC "-//W3C//DTD SVG 1.1//EN" "http://www.w3.org/Graphics/SVG/1.1/DTD/svg11.dtd">
<svg version="1.1" id="Layer_1" xmlns="http://www.w3.org/2000/svg" xmlns:xlink="http://www.w3.org/1999/xlink" x="0px" y="0px"
	 width="499.987px" height="215px" viewBox="0 4.494 499.987 215" enable-background="new 0 4.494 499.987 215"
	 xml:space="preserve">
<text transform="matrix(1.0391 0 0 1 -672.7942 -309.9128)" display="none" fill="#231F20" enable-background="new    " font-family="'Consolas'" font-size="17">R – Responsible – сотрудник, ответственный за фактическое исполнение KPI.</text>
<text transform="matrix(1.0391 0 0 1 -714.7942 -316.9128)" display="none" fill="#231F20" enable-background="new    " font-family="'Consolas'" font-size="17">R – Responsible – сотрудник, ответственный за фактическое исполнение KPI.</text>
<g>
	<g>
		<defs>
			<rect id="SVGID_1_" x="-84.588" y="-8.595" width="647.999" height="229.001"/>
		</defs>
		<clipPath id="SVGID_2_">
			<use xlink:href="#SVGID_1_"  overflow="visible"/>
		</clipPath>
		<g clip-path="url(#SVGID_2_)">
			<g>
				<g>
					
						<rect x="5.03" y="9.526" fill="#FFFFFF" stroke="#A6A8AB" stroke-width="5" stroke-miterlimit="10" width="320.001" height="353.332"/>
					<rect x="5.03" y="336.601" fill="#D9DBDC" stroke="#DBDCDD" stroke-miterlimit="10" width="320.001" height="35.057"/>
					<path fill="#FFFFFF" stroke="#DBDCDD" stroke-miterlimit="10" d="M96.529,323.648c0-7.154-5.429-12.956-12.126-12.956H26.939
						c-6.692,0-12.119,5.802-12.119,12.956l0,0c0,7.155,5.427,12.953,12.119,12.953h57.464
						C91.101,336.601,96.529,330.803,96.529,323.648L96.529,323.648z"/>
					<rect x="309.863" y="371.657" fill="#C8CACB" width="15.168" height="43.822"/>
					<rect x="5.03" y="371.657" fill="#C8CACB" width="15.168" height="43.822"/>
				</g>
			</g>
			<path fill="#6699CC" d="M193.069,72.4h-44.396v-4.542h44.396V72.4z M193.069,64.76h-44.396v-4.539h44.396V64.76z M193.069,54.739
				h-44.396v-3.044h44.396V54.739z M139.374,129.692h57.847v4.538h-57.847V129.692z M139.484,118.399h57.849v4.539h-57.849V118.399
				L139.484,118.399z M139.374,124.156h57.847v4.539h-57.847V124.156z"/>
			<path fill="#009900" d="M145.741,112.918l-0.305,0.387c-0.108,0.131-0.249,0.204-0.416,0.222
				c-0.166,0.019-0.313-0.028-0.441-0.138c-0.13-0.107-0.205-0.246-0.223-0.414v-0.057c-0.004-0.144,0.043-0.271,0.141-0.388
				l7.858-9.687c0.061-0.072,0.136-0.128,0.222-0.167c0.078-0.039,0.162-0.057,0.248-0.057h5.203l12.87-9.631
				c0.105-0.077,0.229-0.114,0.359-0.11h9.051l7.75-12.178c0.094-0.136,0.221-0.221,0.387-0.25c0.168-0.043,0.324-0.026,0.471,0.055
				c0.136,0.093,0.22,0.223,0.252,0.388c0.043,0.167,0.024,0.323-0.059,0.471l-7.916,12.456c-0.057,0.083-0.13,0.146-0.222,0.193
				c-0.094,0.053-0.196,0.08-0.304,0.083h-9.188l-12.872,9.631c-0.104,0.078-0.225,0.115-0.357,0.112h-5.12L145.741,112.918z"/>
			<path fill="#4E7E9C" d="M181.998,40.681H37.078v-3.765h144.92V40.681L181.998,40.681z M195.229,34.537H25.121v-6.754h170.106
				L195.229,34.537L195.229,34.537z"/>
			<path fill="#333333" d="M145.741,112.918h50.372c0.141-0.002,0.261,0.044,0.359,0.139c0.096,0.1,0.142,0.219,0.138,0.359
				c0.004,0.14-0.042,0.261-0.138,0.358c-0.1,0.098-0.22,0.142-0.359,0.14H141.92c-0.142,0.002-0.26-0.042-0.358-0.14
				c-0.096-0.099-0.142-0.22-0.139-0.358v-40.63c-0.003-0.142,0.043-0.261,0.139-0.36c0.1-0.094,0.218-0.141,0.358-0.137
				c0.142-0.004,0.26,0.043,0.359,0.137c0.096,0.101,0.143,0.22,0.139,0.36v40.133h1.938v0.056c0.017,0.167,0.091,0.307,0.222,0.415
				c0.13,0.107,0.275,0.153,0.441,0.138c0.168-0.019,0.308-0.092,0.415-0.222L145.741,112.918z"/>
			<path fill="#666666" d="M29.023,51.336c0.099-0.106,0.22-0.162,0.36-0.167h106.504c0.141,0.005,0.261,0.061,0.359,0.167
				c0.104,0.098,0.159,0.218,0.167,0.357v59.784c-0.008,0.143-0.063,0.265-0.167,0.361c-0.1,0.104-0.22,0.162-0.359,0.166H29.384
				c-0.142-0.004-0.263-0.062-0.36-0.166c-0.105-0.099-0.161-0.22-0.166-0.361V51.694C28.861,51.554,28.917,51.435,29.023,51.336z
				 M42.476,71.541v-7.583H29.91v7.583H42.476z M29.91,52.222v7.583h45.777v-7.583H29.91z M43.525,60.858v2.047h32.163v-2.047
				H43.525z M42.476,62.905v-2.047H29.91v2.047H42.476z M43.525,63.958v7.583h32.163v-7.583H43.525z M29.91,75.692v8.358h12.564
				v-8.358H29.91z M43.525,72.592v2.047h32.163v-2.047H43.525z M29.91,74.64h12.564v-2.047H29.91V74.64z M43.525,85.103v2.049
				h32.163v-2.049H43.525z M43.525,75.692v8.358h32.163v-8.358H43.525z M29.91,85.103v2.049h12.564v-2.049H29.91z M42.476,97.281
				v-9.079H29.91v9.079H42.476L42.476,97.281z M42.476,100.38v-2.049H29.91v2.049H42.476z M43.525,98.332v2.049h32.163v-2.049
				H43.525z M43.525,88.201v9.079h32.163v-9.079H43.525z M29.91,101.433v9.521h12.564v-9.521H29.91z M43.525,101.433v9.521h32.163
				v-9.521H43.525z M111.614,59.805l-0.055-7.583H76.741v7.583H111.614z M135.361,59.805v-7.583h-22.75l0.056,7.583H135.361z
				 M112.83,85.103v2.049h22.53v-2.049H112.83z M112.666,63.958l0.055,7.583h22.641v-7.583H112.666z M111.67,71.541l-0.027-7.583
				H76.741v7.583H111.67z M112.666,60.858v2.047h22.694v-2.047H112.666z M111.643,62.905l-0.028-2.047H76.741v2.047H111.643z
				 M111.697,75.72v-0.028H76.741v8.358h35.039l-0.057-8.33H111.697z M111.781,87.151v-2.049H76.739v2.049H111.781z M112.776,75.72
				l0.055,8.33h22.53v-8.358h-22.557v0.028H112.776z M112.805,74.64h22.557v-2.047h-22.557V74.64z M111.697,72.592H76.741v2.047
				h34.955V72.592z M135.361,100.38v-2.049h-22.474l0.027,2.049H135.361z M135.361,97.281v-9.079h-22.53l0.058,9.079H135.361
				L135.361,97.281z M135.361,110.954v-9.521h-22.445l0.082,9.521H135.361z M76.739,98.332v2.049h35.151l-0.028-2.049H76.739z
				 M76.739,88.201v9.079h35.123l-0.081-9.079H76.739z M76.739,101.433v9.521h35.206l-0.055-9.521H76.739z"/>
			<path fill="#66FFFF" d="M29.91,52.222h45.777v7.583H29.91V52.222z M42.476,71.541H29.91v-7.583h12.564L42.476,71.541
				L42.476,71.541z M29.91,75.692h12.564v8.358H29.91V75.692z M42.476,97.281H29.91v-9.079h12.564L42.476,97.281L42.476,97.281z
				 M29.91,101.433h12.564v9.521H29.91V101.433z M135.361,59.805h-22.694l-0.056-7.583h22.75V59.805z M111.614,59.805H76.741v-7.583
				h34.817L111.614,59.805z"/>
			<path fill="#999999" d="M29.384,128.252h106.504v4.375H29.384V128.252z M29.384,114.579h106.504v10.573H29.384V114.579z"/>
			<g>
				<g>
					<path fill="#CE4F27" d="M169.57,173.17c0.06,11.255-9.029,20.434-20.285,20.492c-11.264,0.058-20.438-9.025-20.496-20.282
						c-0.06-11.266,9.022-20.438,20.288-20.494C160.331,152.827,169.514,161.906,169.57,173.17z"/>
					<path fill="#7CA78C" d="M190.055,173.064c0.06,11.257-9.021,20.436-20.278,20.494c-11.264,0.057-20.432-9.027-20.489-20.285
						c-0.06-11.262,9.016-20.438,20.279-20.493C180.822,152.722,189.998,161.8,190.055,173.064z"/>
					<path fill="#53ACB0" d="M149.286,173.273c0.04,7.517,4.147,14.073,10.23,17.573c6.042-3.563,10.092-10.162,10.053-17.676
						c-0.038-7.525-4.154-14.085-10.233-17.586C153.289,159.15,149.249,165.749,149.286,173.273z"/>
				</g>
				<g>
					<path fill="#CE4F27" d="M63.793,282.925c0.048,9.092-7.288,16.501-16.381,16.548s-16.497-7.284-16.543-16.379
						c-0.049-9.098,7.281-16.502,16.373-16.55C56.336,266.497,63.747,273.83,63.793,282.925z"/>
					<path fill="#A3CCB5" d="M80.347,282.84c0.049,9.092-7.29,16.501-16.377,16.548c-9.097,0.047-16.505-7.286-16.551-16.378
						c-0.048-9.1,7.284-16.503,16.381-16.551C72.888,266.412,80.302,273.742,80.347,282.84z"/>
					<path fill="#6A9A7E" d="M71.999,268.644c0.05,9.093-7.288,16.507-16.383,16.552c-9.097,0.047-16.505-7.29-16.552-16.382
						c-0.048-9.097,7.287-16.505,16.382-16.553C64.539,252.213,71.954,259.549,71.999,268.644z"/>
					<path fill="#E98469" d="M63.8,266.459c2.979-0.017,5.78,0.758,8.201,2.137c-0.002,0.012-0.002,0.028-0.002,0.048
						c0.05,9.093-7.288,16.507-16.383,16.552c-2.981,0.015-5.783-0.766-8.199-2.134c0-0.021-0.001-0.039,0.002-0.052
						C47.371,273.911,54.703,266.507,63.8,266.459z"/>
					<path fill="#3BA4A4" d="M47.242,266.544c-2.979,0.017-5.769,0.817-8.178,2.22c-0.002,0.014,0,0.028,0,0.05
						c0.047,9.092,7.455,16.429,16.552,16.382c2.986-0.015,5.774-0.824,8.178-2.221c0-0.019,0-0.037-0.001-0.05
						C63.747,273.83,56.336,266.497,47.242,266.544z"/>
					<path fill="#93D5DF" d="M47.419,283.01c0.028,6.067,3.352,11.365,8.259,14.19c4.887-2.876,8.147-8.207,8.115-14.275
						c-0.029-6.08-3.344-11.37-8.263-14.196C50.654,271.607,47.387,276.93,47.419,283.01z"/>
					<path fill="#F4F5F5" d="M55.531,268.729c-4.877,2.878-8.145,8.201-8.111,14.281c-0.003,0.013-0.002,0.031-0.002,0.052
						c2.416,1.368,5.218,2.147,8.199,2.134c2.986-0.015,5.774-0.824,8.178-2.221c0-0.019,0-0.037-0.001-0.05
						C63.764,276.845,60.449,271.555,55.531,268.729z"/>
				</g>
				<g>
					<path fill="#F4F5F5" d="M116.854,173.441c0.061,11.257-9.022,20.437-20.278,20.494c-11.261,0.059-20.439-9.026-20.497-20.284
						c-0.059-11.264,9.025-20.437,20.286-20.495C107.62,153.099,116.796,162.177,116.854,173.441z"/>
					<path fill="#6A9A7E" d="M96.574,193.895c-3.784,0.022-7.491-1.018-10.71-2.979l10.528-17.241
						c0.021,0.01,0.032,0.021,0.076,0.021c0.029,0,0.072-0.002,0.121-0.07l16.142,12.149c-1.843,2.448-4.255,4.48-6.977,5.877
						C102.934,193.1,99.759,193.878,96.574,193.895z"/>
					<path fill="#B9CBC0" d="M85.457,190.664c-1.772-1.145-3.361-2.555-4.708-4.195c-1.363-1.654-2.45-3.503-3.23-5.494
						l18.808-7.378c0.007,0.026,0.035,0.06,0.067,0.079L85.457,190.664z"/>
					<path fill="#CE4F27" d="M113.011,185.395l-16.419-11.773c0.021-0.024,0.027-0.037,0.026-0.075
						c-0.002-0.119-0.109-0.146-0.109-0.146l4.49-19.697c4.411,1.003,8.411,3.491,11.271,7.021
						c2.905,3.576,4.521,8.095,4.546,12.716C116.84,177.752,115.521,181.894,113.011,185.395z"/>
					<path fill="#93D5DF" d="M77.353,180.531c-0.81-2.204-1.226-4.521-1.239-6.881c-0.02-3.932,1.078-7.747,3.191-11.048
						c2.039-3.198,4.928-5.762,8.348-7.404l8.756,18.207c-0.027,0.012-0.096,0.05-0.096,0.142c0.002,0.028,0.016,0.04,0.014,0.045
						L77.353,180.531z"/>
					<path fill="#53ACB0" d="M96.412,173.405l-8.335-18.4c2.615-1.188,5.4-1.801,8.285-1.815c1.4-0.008,2.811,0.133,4.175,0.411
						l-4.032,19.791c-0.007,0-0.022,0-0.037,0.002C96.425,173.39,96.418,173.401,96.412,173.405z"/>
				</g>
				<g>
					<g>
						<path fill="#F4F5F5" d="M64.411,173.709c0.059,11.257-9.026,20.436-20.286,20.496c-11.257,0.056-20.434-9.029-20.491-20.286
							c-0.057-11.265,9.024-20.437,20.281-20.492C55.175,153.369,64.353,162.448,64.411,173.709z"/>
						<path fill="#93D5DF" d="M44.125,194.281L44.125,194.281c-3.532,0.02-7.02-0.878-10.093-2.601l9.322-16.647
							c0.204,0.112,0.426,0.161,0.672,0.163c0.149-0.003,0.294-0.02,0.437-0.067l6.029,18.113
							C48.434,193.918,46.292,194.27,44.125,194.281z"/>
						<path fill="#7CA78C" d="M33.88,191.598c-3.063-1.749-5.637-4.271-7.445-7.302c-1.867-3.129-2.869-6.718-2.887-10.374
							c-0.008-1.356,0.124-2.714,0.377-4.027l18.735,3.644c-0.022,0.087-0.025,0.181-0.025,0.285
							c0.002,0.744,0.54,1.107,0.698,1.201L33.88,191.598z"/>
						<path fill="#B9CBC0" d="M42.661,173.526l-18.703-3.805c1.143-5.61,4.624-10.528,9.551-13.479l9.812,16.371
							C42.981,172.818,42.738,173.154,42.661,173.526z"/>
						<path fill="#53ACB0" d="M44.927,172.764c-0.259-0.227-0.569-0.34-0.914-0.338c-0.255,0-0.478,0.059-0.692,0.186l-9.657-16.458
							c3.098-1.82,6.646-2.797,10.253-2.815c4.98-0.025,9.788,1.762,13.541,5.031L44.927,172.764z"/>
						<path fill="#CE4F27" d="M64.492,173.6c0-0.036-0.003-0.07-0.005-0.108l0,0c-0.044-2.921-0.695-5.731-1.933-8.372
							c-1.189-2.542-2.864-4.776-4.971-6.642l-12.648,14.293c0.212,0.188,0.464,0.518,0.475,1.017l0.002,0.021
							c0.004,0.689-0.471,1.16-0.939,1.319l6.175,18.056c8.329-2.845,13.893-10.674,13.847-19.473v-0.032H64.49
							C64.493,173.656,64.493,173.626,64.492,173.6z"/>
					</g>
					<path fill="#F4F5F5" d="M58.887,173.74c0.042,8.203-6.58,14.896-14.79,14.938c-8.212,0.042-14.908-6.583-14.95-14.786
						c-0.041-8.214,6.584-14.9,14.797-14.944C52.153,158.906,58.844,165.525,58.887,173.74z"/>
				</g>
				<g>
					
						<rect x="32.176" y="199.881" transform="matrix(-1 0.0049 -0.0049 -1 68.7074 402.9479)" fill="#CE4F27" width="3.358" height="3.356"/>
					
						<rect x="32.213" y="206.898" transform="matrix(-1 0.0052 -0.0052 -1 68.8759 416.9843)" fill="#53ACB0" width="3.358" height="3.369"/>
					
						<rect x="32.251" y="213.933" transform="matrix(-1 0.0055 -0.0055 -1 69.0499 431.0333)" fill="#B9CBC0" width="3.357" height="3.357"/>
					
						<rect x="32.287" y="220.952" transform="matrix(-1 0.0055 -0.0055 -1 69.1604 445.0789)" fill="#7CA78C" width="3.356" height="3.366"/>
					<g>
						<path fill="#F4F5F5" d="M38.685,200.155l0.275-0.002l0.009,1.898l0.912-0.006l0.002,0.23l-1.188,0.008L38.685,200.155z"/>
						<path fill="#F4F5F5" d="M41.522,201.495c0.001,0.563-0.399,0.814-0.764,0.814c-0.41,0.003-0.732-0.301-0.734-0.787
							c-0.003-0.509,0.332-0.808,0.749-0.81C41.214,200.71,41.519,201.026,41.522,201.495z M40.308,201.517
							c0.002,0.335,0.188,0.582,0.467,0.582c0.259-0.001,0.46-0.252,0.458-0.597c-0.002-0.255-0.142-0.585-0.465-0.583
							C40.442,200.92,40.306,201.223,40.308,201.517z"/>
						<path fill="#F4F5F5" d="M41.864,201.213c0-0.179-0.004-0.333-0.015-0.476l0.244-0.003l0.013,0.309h0.013
							c0.063-0.205,0.242-0.34,0.422-0.34c0.029,0,0.052-0.001,0.08,0.006l0.001,0.264c-0.032-0.007-0.059-0.008-0.094-0.008
							c-0.2,0.001-0.34,0.149-0.382,0.36c0,0.035-0.005,0.081-0.005,0.121l0.004,0.819h-0.272L41.864,201.213z"/>
						<path fill="#F4F5F5" d="M43.021,201.547c0.01,0.374,0.251,0.53,0.526,0.531c0.199-0.003,0.329-0.036,0.426-0.082l0.057,0.198
							c-0.101,0.044-0.271,0.1-0.518,0.104c-0.472,0-0.755-0.313-0.758-0.774c-0.001-0.462,0.271-0.821,0.711-0.822
							c0.506-0.004,0.641,0.432,0.642,0.713c0.002,0.059-0.002,0.098-0.01,0.127L43.021,201.547z M43.837,201.34
							c-0.002-0.168-0.076-0.445-0.39-0.445c-0.282,0.002-0.402,0.261-0.421,0.447L43.837,201.34z"/>
						<path fill="#F4F5F5" d="M44.446,201.138c0-0.16-0.008-0.286-0.014-0.411l0.244-0.004l0.016,0.247h0.008
							c0.087-0.14,0.225-0.279,0.481-0.279c0.211-0.001,0.368,0.122,0.429,0.307l0.007-0.002c0.049-0.091,0.114-0.155,0.18-0.204
							c0.092-0.067,0.188-0.104,0.332-0.105c0.201,0,0.508,0.136,0.511,0.661l0.005,0.896l-0.277,0.003l-0.005-0.858
							c-0.001-0.304-0.106-0.478-0.325-0.475c-0.165,0-0.285,0.117-0.335,0.251c-0.012,0.041-0.021,0.089-0.021,0.146l0.004,0.939
							h-0.27l-0.004-0.918c-0.002-0.241-0.111-0.415-0.325-0.417c-0.169,0.004-0.299,0.144-0.341,0.28
							c-0.018,0.043-0.021,0.099-0.022,0.141l0.007,0.919h-0.273L44.446,201.138z"/>
						<path fill="#F4F5F5" d="M48.731,200.276c0,0.097-0.067,0.167-0.178,0.168c-0.102,0.002-0.17-0.069-0.17-0.167
							c-0.001-0.096,0.067-0.173,0.173-0.174C48.656,200.102,48.731,200.175,48.731,200.276z M48.43,202.233l-0.007-1.529
							l0.28-0.001l0.009,1.529L48.43,202.233z"/>
						<path fill="#F4F5F5" d="M49.164,201.206c0-0.198-0.013-0.357-0.014-0.505l0.244-0.003l0.017,0.264l0.004,0.001
							c0.11-0.192,0.299-0.294,0.543-0.297c0.376-0.001,0.655,0.308,0.657,0.772c0.003,0.546-0.333,0.825-0.696,0.825
							c-0.196,0-0.374-0.09-0.47-0.241h-0.005l0.007,0.83l-0.278,0.003L49.164,201.206z M49.443,201.604
							c0.001,0.045,0.001,0.087,0.01,0.117c0.05,0.191,0.224,0.325,0.42,0.322c0.296,0,0.464-0.243,0.463-0.589
							c-0.001-0.309-0.166-0.57-0.461-0.57c-0.189,0.001-0.36,0.137-0.417,0.343c-0.013,0.039-0.017,0.081-0.015,0.113V201.604z"/>
						<path fill="#F4F5F5" d="M50.93,201.942c0.086,0.047,0.226,0.104,0.371,0.103c0.198,0,0.296-0.099,0.294-0.229
							c-0.001-0.131-0.086-0.198-0.285-0.271c-0.277-0.104-0.409-0.251-0.409-0.433c-0.003-0.249,0.198-0.45,0.524-0.452
							c0.156-0.001,0.289,0.039,0.374,0.091l-0.072,0.205c-0.057-0.039-0.164-0.096-0.31-0.095c-0.162,0-0.25,0.098-0.25,0.216
							c-0.002,0.127,0.09,0.18,0.29,0.257c0.258,0.1,0.401,0.228,0.401,0.46c0.002,0.273-0.204,0.464-0.567,0.464
							c-0.164,0.003-0.32-0.041-0.43-0.106L50.93,201.942z"/>
						<path fill="#F4F5F5" d="M53.496,201.792c0,0.155,0.001,0.295,0.02,0.417h-0.253l-0.015-0.246l-0.008-0.001
							c-0.067,0.12-0.229,0.286-0.507,0.287c-0.24,0.003-0.523-0.129-0.525-0.672l-0.006-0.893l0.273-0.002l0.005,0.846
							c0.003,0.291,0.098,0.49,0.349,0.486c0.185,0.002,0.312-0.131,0.359-0.253c0.016-0.043,0.028-0.09,0.028-0.148l-0.005-0.935
							l0.277-0.001L53.496,201.792z"/>
						<path fill="#F4F5F5" d="M53.952,201.089c-0.003-0.161-0.003-0.285-0.015-0.414h0.246l0.007,0.245l0.017,0.001
							c0.081-0.141,0.227-0.279,0.48-0.28c0.201,0,0.365,0.123,0.429,0.304l0.012,0.001c0.041-0.089,0.104-0.154,0.166-0.203
							c0.094-0.068,0.192-0.104,0.34-0.105c0.206,0.001,0.512,0.135,0.513,0.662l0.005,0.895l-0.274,0.005l-0.005-0.86
							c-0.002-0.303-0.117-0.478-0.335-0.478c-0.161,0.001-0.283,0.121-0.328,0.255c-0.017,0.042-0.021,0.09-0.021,0.146
							l0.005,0.939l-0.273,0.001l-0.006-0.918c0-0.244-0.104-0.418-0.323-0.415c-0.17-0.002-0.299,0.141-0.34,0.279
							c-0.017,0.042-0.022,0.095-0.023,0.141l0.008,0.917l-0.274,0.001L53.952,201.089z"/>
					</g>
					<g>
						<path fill="#F4F5F5" d="M38.722,207.177l0.274-0.002l0.01,1.897l0.913-0.004l0.001,0.238l-1.188,0.008L38.722,207.177z"/>
						<path fill="#F4F5F5" d="M41.557,208.517c0.004,0.57-0.398,0.814-0.762,0.817c-0.41,0.002-0.732-0.3-0.733-0.787
							c-0.003-0.504,0.331-0.809,0.748-0.811C41.251,207.734,41.555,208.056,41.557,208.517z M40.345,208.542
							c0.001,0.333,0.188,0.589,0.465,0.587c0.261-0.002,0.461-0.254,0.458-0.6c0-0.264-0.141-0.583-0.465-0.58
							C40.479,207.949,40.342,208.255,40.345,208.542z"/>
						<path fill="#F4F5F5" d="M41.902,208.243c0-0.186-0.006-0.333-0.016-0.479l0.244-0.003l0.012,0.303h0.011
							c0.064-0.21,0.245-0.335,0.426-0.335c0.027,0,0.05,0.003,0.079,0.001v0.266c-0.03-0.002-0.058-0.003-0.095,0
							c-0.201,0.001-0.337,0.142-0.38,0.354c0,0.036-0.009,0.088-0.006,0.131l0.004,0.819l-0.273,0.001L41.902,208.243z"/>
						<path fill="#F4F5F5" d="M43.058,208.574c0.009,0.381,0.249,0.525,0.526,0.526c0.198-0.004,0.327-0.037,0.427-0.084
							l0.054,0.201c-0.101,0.044-0.271,0.101-0.517,0.102c-0.472,0.003-0.754-0.311-0.757-0.771
							c-0.002-0.462,0.27-0.821,0.711-0.822c0.505-0.005,0.64,0.433,0.641,0.711c0.002,0.062-0.002,0.104-0.01,0.132L43.058,208.574
							z M43.871,208.37c0.001-0.177-0.074-0.446-0.387-0.445c-0.284,0.003-0.403,0.258-0.421,0.449L43.871,208.37z"/>
						<path fill="#F4F5F5" d="M44.483,208.161c0-0.157-0.007-0.283-0.015-0.411l0.244-0.001l0.017,0.253l0.008,0.002
							c0.084-0.148,0.226-0.288,0.481-0.288c0.21-0.002,0.368,0.122,0.428,0.308l0.008,0.001c0.05-0.092,0.114-0.152,0.178-0.202
							c0.093-0.066,0.188-0.111,0.332-0.111c0.204-0.001,0.51,0.134,0.513,0.659l0.004,0.904l-0.275,0.002l-0.007-0.869
							c-0.001-0.298-0.105-0.469-0.326-0.467c-0.164-0.001-0.284,0.117-0.335,0.249c-0.012,0.039-0.021,0.09-0.021,0.141
							l0.005,0.949l-0.271,0.004l-0.006-0.927c0-0.242-0.109-0.412-0.323-0.411c-0.169,0-0.299,0.138-0.342,0.276
							c-0.018,0.041-0.021,0.092-0.021,0.139l0.003,0.926l-0.273,0.002L44.483,208.161z"/>
						<path fill="#F4F5F5" d="M48.768,207.295c-0.002,0.098-0.067,0.176-0.178,0.178c-0.103,0-0.169-0.077-0.17-0.177
							c-0.001-0.089,0.065-0.171,0.173-0.17C48.692,207.125,48.765,207.198,48.768,207.295z M48.466,209.266l-0.008-1.536
							l0.28-0.002l0.01,1.535L48.466,209.266z"/>
						<path fill="#F4F5F5" d="M49.2,208.226c-0.003-0.198-0.015-0.354-0.015-0.501l0.245-0.001l0.016,0.264l0.006,0.001
							c0.112-0.187,0.299-0.297,0.542-0.298c0.376-0.004,0.654,0.313,0.658,0.771c0.002,0.546-0.335,0.822-0.695,0.825
							c-0.198,0-0.376-0.084-0.471-0.242l-0.004,0.002l0.004,0.835l-0.277,0.003L49.2,208.226z M49.48,208.632
							c-0.001,0.037,0,0.08,0.007,0.116c0.054,0.187,0.228,0.319,0.421,0.318c0.298-0.003,0.467-0.238,0.464-0.59
							c-0.001-0.304-0.166-0.563-0.464-0.562c-0.188,0.002-0.358,0.129-0.414,0.343c-0.01,0.032-0.015,0.073-0.015,0.105
							L49.48,208.632z"/>
						<path fill="#F4F5F5" d="M50.965,208.968c0.087,0.044,0.228,0.107,0.373,0.107c0.196-0.004,0.295-0.103,0.295-0.234
							c-0.002-0.132-0.089-0.199-0.289-0.277c-0.276-0.096-0.407-0.245-0.407-0.427c-0.002-0.246,0.198-0.453,0.523-0.454
							c0.158-0.002,0.288,0.042,0.376,0.098l-0.072,0.196c-0.058-0.036-0.165-0.089-0.311-0.089
							c-0.162,0.002-0.251,0.099-0.251,0.216c0,0.118,0.092,0.18,0.29,0.256c0.26,0.098,0.4,0.229,0.402,0.455
							c0.001,0.273-0.202,0.464-0.568,0.468c-0.161,0-0.32-0.043-0.429-0.107L50.965,208.968z"/>
						<path fill="#F4F5F5" d="M53.533,208.811c0,0.165,0,0.301,0.017,0.429l-0.249,0.003l-0.016-0.258l-0.009-0.001
							c-0.067,0.128-0.229,0.287-0.507,0.29c-0.241,0.001-0.521-0.132-0.524-0.666l-0.006-0.896l0.275-0.004l0.002,0.851
							c0,0.285,0.096,0.482,0.351,0.479c0.183,0.002,0.312-0.127,0.356-0.252c0.015-0.038,0.031-0.094,0.031-0.144l-0.006-0.938
							h0.276L53.533,208.811z"/>
						<path fill="#F4F5F5" d="M53.988,208.11c-0.003-0.153-0.002-0.28-0.012-0.409h0.244l0.007,0.255l0.015-0.002
							c0.083-0.146,0.228-0.284,0.481-0.285c0.202-0.003,0.366,0.121,0.428,0.308l0.012-0.003c0.043-0.089,0.108-0.15,0.168-0.198
							c0.094-0.068,0.192-0.112,0.339-0.114c0.207,0.002,0.51,0.136,0.512,0.66l0.007,0.906h-0.273l-0.005-0.87
							c-0.004-0.295-0.118-0.466-0.335-0.466c-0.163,0.001-0.284,0.119-0.329,0.251c-0.017,0.038-0.022,0.087-0.022,0.138
							l0.006,0.953l-0.273-0.001l-0.005-0.925c0-0.241-0.105-0.411-0.324-0.41c-0.169,0-0.298,0.139-0.339,0.277
							c-0.017,0.038-0.021,0.091-0.023,0.136l0.006,0.929l-0.272,0.001L53.988,208.11z"/>
					</g>
					<g>
						<path fill="#F4F5F5" d="M38.758,214.205l0.274-0.001l0.01,1.898l0.912-0.004l0.002,0.231l-1.188,0.007L38.758,214.205z"/>
						<path fill="#F4F5F5" d="M41.593,215.543c0.003,0.563-0.4,0.816-0.762,0.818c-0.41,0.001-0.731-0.303-0.734-0.781
							c-0.004-0.516,0.33-0.816,0.75-0.82C41.285,214.76,41.592,215.077,41.593,215.543z M40.381,215.562
							c0.001,0.343,0.188,0.59,0.466,0.589c0.257-0.002,0.459-0.253,0.458-0.598c-0.001-0.256-0.142-0.583-0.466-0.579
							C40.515,214.974,40.379,215.278,40.381,215.562z"/>
						<path fill="#F4F5F5" d="M41.939,215.261c-0.003-0.177-0.005-0.331-0.019-0.471h0.245l0.013,0.3h0.01
							c0.066-0.202,0.245-0.336,0.425-0.338c0.028,0,0.051,0.004,0.08,0.008v0.263c-0.032-0.005-0.058-0.008-0.093-0.006
							c-0.202,0-0.34,0.146-0.381,0.354c0.002,0.038-0.008,0.088-0.006,0.138l0.004,0.809l-0.273,0.004L41.939,215.261z"/>
						<path fill="#F4F5F5" d="M43.094,215.6c0.011,0.373,0.25,0.526,0.526,0.524c0.197-0.001,0.33-0.033,0.425-0.079l0.057,0.196
							c-0.102,0.048-0.271,0.107-0.518,0.106c-0.472,0.004-0.755-0.313-0.757-0.775c-0.002-0.459,0.27-0.822,0.711-0.825
							c0.504-0.001,0.64,0.437,0.641,0.717c0,0.057-0.002,0.098-0.009,0.13L43.094,215.6z M43.908,215.394
							c0-0.17-0.075-0.451-0.388-0.448c-0.283,0.001-0.404,0.265-0.423,0.453L43.908,215.394z"/>
						<path fill="#F4F5F5" d="M44.52,215.189c0-0.161-0.007-0.285-0.015-0.412l0.244-0.001l0.016,0.251h0.008
							c0.086-0.146,0.228-0.287,0.479-0.287c0.214-0.001,0.372,0.121,0.429,0.305h0.008c0.051-0.09,0.116-0.15,0.18-0.199
							c0.095-0.068,0.188-0.108,0.334-0.108c0.201-0.001,0.507,0.128,0.51,0.659l0.005,0.899l-0.275,0.003l-0.005-0.86
							c0-0.302-0.107-0.476-0.33-0.474c-0.165,0-0.281,0.119-0.332,0.25c-0.012,0.041-0.021,0.093-0.022,0.142l0.007,0.945
							l-0.27,0.002l-0.007-0.916c0-0.245-0.109-0.419-0.322-0.417c-0.169,0-0.3,0.139-0.343,0.279
							c-0.019,0.038-0.021,0.085-0.021,0.136l0.004,0.921l-0.273,0.002L44.52,215.189z"/>
						<path fill="#F4F5F5" d="M48.804,214.326c0,0.09-0.067,0.168-0.177,0.168c-0.103,0.002-0.173-0.075-0.171-0.167
							c0-0.096,0.065-0.178,0.172-0.178C48.729,214.15,48.802,214.228,48.804,214.326z M48.504,216.285l-0.01-1.528h0.28l0.01,1.528
							H48.504z"/>
						<path fill="#F4F5F5" d="M49.235,215.25c-0.001-0.198-0.011-0.352-0.013-0.498l0.246-0.001l0.016,0.262l0.003-0.003
							c0.111-0.187,0.301-0.292,0.544-0.295c0.377-0.003,0.655,0.311,0.657,0.771c0.003,0.553-0.333,0.827-0.694,0.829
							c-0.199,0-0.376-0.091-0.472-0.242l-0.004,0.002l0.003,0.825l-0.277,0.004L49.235,215.25z M49.517,215.656
							c0,0.039,0,0.075,0.008,0.113c0.054,0.195,0.226,0.324,0.421,0.322c0.296-0.002,0.465-0.24,0.463-0.596
							c-0.001-0.304-0.166-0.563-0.463-0.56c-0.187-0.001-0.358,0.138-0.416,0.343c-0.012,0.036-0.015,0.079-0.015,0.115
							L49.517,215.656z"/>
						<path fill="#F4F5F5" d="M51.002,215.994c0.086,0.049,0.228,0.104,0.369,0.104c0.2-0.002,0.296-0.103,0.298-0.229
							c-0.002-0.135-0.088-0.206-0.289-0.275c-0.277-0.105-0.408-0.248-0.41-0.43c0-0.25,0.202-0.454,0.526-0.457
							c0.157-0.001,0.288,0.039,0.374,0.092l-0.07,0.206c-0.061-0.042-0.165-0.092-0.309-0.093
							c-0.165,0.002-0.254,0.095-0.255,0.212c0.001,0.129,0.093,0.182,0.291,0.259c0.261,0.1,0.401,0.229,0.402,0.462
							c0.003,0.266-0.202,0.464-0.567,0.464c-0.161,0.002-0.319-0.048-0.43-0.106L51.002,215.994z"/>
						<path fill="#F4F5F5" d="M53.569,215.836c0,0.159,0,0.303,0.017,0.425l-0.248,0.001l-0.017-0.257l-0.007,0.001
							c-0.067,0.129-0.229,0.294-0.508,0.298c-0.241-0.002-0.521-0.141-0.525-0.675l-0.005-0.893l0.275-0.002l0.002,0.843
							c0.002,0.294,0.097,0.493,0.35,0.492c0.186-0.003,0.312-0.137,0.356-0.266c0.015-0.033,0.032-0.083,0.03-0.138l-0.004-0.937
							l0.277-0.001L53.569,215.836z"/>
						<path fill="#F4F5F5" d="M54.023,215.14c-0.001-0.161-0.001-0.286-0.013-0.412l0.245-0.001l0.009,0.251l0.014-0.001
							c0.083-0.147,0.228-0.285,0.481-0.286c0.204-0.001,0.366,0.122,0.429,0.304h0.012c0.042-0.09,0.107-0.15,0.168-0.198
							c0.095-0.065,0.189-0.109,0.339-0.109c0.205-0.002,0.51,0.129,0.511,0.661l0.004,0.901H55.95l-0.005-0.861
							c-0.004-0.299-0.117-0.474-0.337-0.473c-0.164,0.002-0.281,0.12-0.328,0.25c-0.016,0.043-0.021,0.093-0.021,0.139l0.004,0.949
							l-0.273,0.002l-0.006-0.919c-0.003-0.243-0.104-0.418-0.322-0.415c-0.169,0.001-0.3,0.14-0.341,0.276
							c-0.016,0.04-0.022,0.088-0.021,0.138l0.003,0.923l-0.273,0.001L54.023,215.14z"/>
					</g>
					<g>
						<path fill="#F4F5F5" d="M38.794,221.233l0.272-0.002l0.011,1.898l0.915-0.005v0.224l-1.188,0.008L38.794,221.233z"/>
						<path fill="#F4F5F5" d="M41.63,222.569c0.003,0.563-0.399,0.816-0.763,0.819c-0.411,0.001-0.732-0.303-0.736-0.791
							c-0.001-0.509,0.333-0.808,0.75-0.81C41.32,221.786,41.628,222.103,41.63,222.569z M40.418,222.593
							c0.001,0.334,0.186,0.584,0.465,0.58c0.257,0,0.459-0.251,0.458-0.59c-0.001-0.265-0.141-0.588-0.465-0.586
							C40.551,222,40.417,222.301,40.418,222.593z"/>
						<path fill="#F4F5F5" d="M41.974,222.293c-0.001-0.184-0.005-0.336-0.015-0.479l0.243-0.001l0.013,0.301l0.012,0.002
							c0.063-0.212,0.241-0.336,0.421-0.336c0.032-0.002,0.054-0.003,0.079,0.006l0.003,0.263c-0.032-0.007-0.058-0.008-0.092-0.007
							c-0.203,0-0.341,0.146-0.383,0.359c0.002,0.036-0.006,0.079-0.006,0.126l0.004,0.81l-0.272,0.003L41.974,222.293z"/>
						<path fill="#F4F5F5" d="M43.13,222.621c0.009,0.377,0.247,0.529,0.525,0.528c0.198-0.003,0.328-0.037,0.426-0.081l0.057,0.203
							c-0.102,0.043-0.271,0.101-0.517,0.102c-0.473,0.003-0.758-0.313-0.76-0.775c-0.002-0.459,0.271-0.82,0.713-0.822
							c0.504-0.004,0.64,0.435,0.641,0.716c0.001,0.05-0.001,0.095-0.011,0.127L43.13,222.621z M43.944,222.415
							c0-0.168-0.075-0.442-0.389-0.441c-0.281,0.004-0.402,0.259-0.419,0.445L43.944,222.415z"/>
						<path fill="#F4F5F5" d="M44.558,222.212c-0.003-0.158-0.008-0.283-0.019-0.41l0.245-0.001l0.017,0.247h0.009
							c0.085-0.145,0.227-0.281,0.481-0.282c0.208-0.001,0.366,0.121,0.427,0.298l0.008,0.001c0.049-0.084,0.115-0.143,0.178-0.193
							c0.097-0.071,0.188-0.109,0.331-0.111c0.204,0,0.511,0.135,0.514,0.661l0.004,0.895h-0.274l-0.007-0.857
							c-0.001-0.297-0.104-0.473-0.327-0.473c-0.166-0.001-0.284,0.122-0.333,0.259c-0.013,0.041-0.021,0.087-0.021,0.142
							l0.005,0.937l-0.271,0.002l-0.004-0.915c-0.002-0.241-0.112-0.42-0.323-0.417c-0.171,0-0.298,0.144-0.342,0.281
							c-0.02,0.041-0.021,0.089-0.021,0.14l0.006,0.913l-0.275,0.002L44.558,222.212z"/>
						<path fill="#F4F5F5" d="M48.84,221.346c0,0.096-0.07,0.17-0.177,0.168c-0.103,0.001-0.171-0.069-0.173-0.166
							c0.002-0.089,0.067-0.166,0.174-0.165C48.765,221.18,48.838,221.251,48.84,221.346z M48.538,223.304l-0.009-1.522h0.281
							l0.008,1.521L48.538,223.304z"/>
						<path fill="#F4F5F5" d="M49.271,222.275c0-0.195-0.01-0.354-0.01-0.497l0.242-0.003l0.015,0.26l0.006-0.001
							c0.11-0.18,0.297-0.291,0.543-0.291c0.375-0.002,0.655,0.314,0.657,0.766c0.003,0.554-0.336,0.83-0.696,0.832
							c-0.197,0.004-0.375-0.091-0.47-0.243h-0.004l0.003,0.834l-0.278,0.001L49.271,222.275z M49.553,222.684
							c0,0.037,0,0.078,0.008,0.109c0.051,0.195,0.225,0.325,0.419,0.324c0.299-0.004,0.466-0.242,0.465-0.591
							c-0.002-0.304-0.166-0.569-0.462-0.566c-0.188-0.001-0.359,0.137-0.416,0.351c-0.012,0.026-0.016,0.071-0.014,0.109V222.684
							L49.553,222.684z"/>
						<path fill="#F4F5F5" d="M51.038,223.018c0.086,0.05,0.225,0.102,0.37,0.102c0.197,0,0.296-0.102,0.298-0.228
							c-0.002-0.132-0.089-0.198-0.29-0.279c-0.276-0.098-0.409-0.244-0.409-0.427c0.001-0.25,0.201-0.451,0.525-0.452
							c0.158-0.001,0.287,0.041,0.373,0.097l-0.069,0.198c-0.059-0.041-0.166-0.086-0.31-0.086
							c-0.164-0.002-0.254,0.089-0.253,0.203c0,0.13,0.09,0.183,0.291,0.264c0.26,0.093,0.4,0.23,0.403,0.458
							c0.001,0.271-0.204,0.465-0.569,0.466c-0.163,0-0.319-0.044-0.43-0.108L51.038,223.018z"/>
						<path fill="#F4F5F5" d="M53.604,222.866c0.002,0.155,0.001,0.293,0.019,0.413l-0.249-0.001l-0.017-0.24l-0.007-0.001
							c-0.07,0.121-0.23,0.286-0.507,0.288c-0.243,0.001-0.525-0.139-0.528-0.673l-0.002-0.892h0.271l0.004,0.838
							c0.002,0.295,0.098,0.495,0.352,0.495c0.185-0.002,0.311-0.129,0.358-0.26c0.016-0.04,0.03-0.092,0.028-0.144l-0.006-0.935
							l0.275-0.002L53.604,222.866z"/>
						<path fill="#F4F5F5" d="M54.06,222.164c-0.001-0.158-0.002-0.285-0.013-0.41l0.245-0.001L54.301,222h0.014
							c0.083-0.146,0.228-0.279,0.483-0.283c0.2,0,0.365,0.122,0.426,0.3h0.013c0.041-0.084,0.106-0.144,0.167-0.191
							c0.094-0.071,0.19-0.111,0.34-0.113c0.206,0,0.51,0.136,0.513,0.66l0.004,0.896l-0.274-0.002l-0.004-0.857
							c-0.001-0.297-0.118-0.473-0.336-0.471c-0.162,0-0.283,0.121-0.328,0.257c-0.015,0.041-0.021,0.087-0.021,0.141l0.002,0.936
							l-0.272,0.004l-0.004-0.916c-0.001-0.241-0.105-0.417-0.323-0.417c-0.171,0.003-0.301,0.146-0.34,0.284
							c-0.016,0.041-0.022,0.089-0.022,0.136l0.006,0.915l-0.274,0.002L54.06,222.164z"/>
					</g>
					
						<rect x="32.326" y="228.381" transform="matrix(-1 0.0055 -0.0055 -1 69.2818 459.9351)" fill="#93D5DF" width="3.358" height="3.365"/>
					<g>
						<path fill="#F4F5F5" d="M38.832,228.658l0.272,0.001l0.012,1.897l0.911-0.005l0.001,0.232l-1.187,0.004L38.832,228.658z"/>
						<path fill="#F4F5F5" d="M41.666,229.999c0.006,0.562-0.398,0.813-0.762,0.814c-0.409,0.002-0.73-0.298-0.733-0.784
							c-0.003-0.51,0.331-0.81,0.75-0.812C41.36,229.217,41.665,229.531,41.666,229.999z M40.455,230.024
							c0.001,0.334,0.187,0.582,0.465,0.579c0.259,0,0.46-0.247,0.46-0.593c-0.003-0.258-0.142-0.589-0.467-0.586
							C40.591,229.427,40.453,229.728,40.455,230.024z"/>
						<path fill="#F4F5F5" d="M42.012,229.722c0-0.184-0.004-0.335-0.017-0.479l0.247-0.001l0.01,0.301h0.012
							c0.064-0.202,0.244-0.332,0.425-0.334c0.027-0.002,0.05,0,0.078,0.009l0.002,0.255c-0.032-0.003-0.059-0.004-0.095-0.004
							c-0.202,0.001-0.337,0.146-0.379,0.354c-0.002,0.044-0.007,0.092-0.008,0.133l0.005,0.814l-0.274,0.001L42.012,229.722z"/>
						<path fill="#F4F5F5" d="M43.169,230.051c0.007,0.376,0.249,0.534,0.523,0.534c0.198-0.003,0.328-0.043,0.428-0.086
							l0.058,0.199c-0.104,0.041-0.273,0.102-0.521,0.103c-0.471,0.002-0.754-0.313-0.756-0.773
							c-0.003-0.453,0.271-0.82,0.709-0.822c0.508-0.003,0.642,0.426,0.645,0.713c0,0.062-0.004,0.095-0.012,0.129L43.169,230.051z
							 M43.981,229.853c0-0.181-0.073-0.449-0.389-0.448c-0.281,0-0.401,0.258-0.418,0.451L43.981,229.853z"/>
						<path fill="#F4F5F5" d="M44.596,229.647c-0.003-0.162-0.01-0.291-0.017-0.416l0.243-0.002l0.019,0.249h0.006
							c0.086-0.145,0.226-0.283,0.481-0.281c0.21-0.002,0.367,0.126,0.429,0.302l0.008,0.002c0.048-0.089,0.113-0.151,0.178-0.197
							c0.094-0.075,0.188-0.111,0.33-0.112c0.204-0.002,0.513,0.133,0.514,0.66l0.004,0.898l-0.275,0.002l-0.005-0.862
							c-0.002-0.299-0.107-0.467-0.327-0.465c-0.166,0-0.283,0.115-0.335,0.24c-0.012,0.048-0.021,0.096-0.021,0.142l0.005,0.949
							l-0.271,0.002l-0.004-0.92c-0.001-0.243-0.11-0.411-0.321-0.409c-0.173,0.001-0.299,0.14-0.343,0.279
							c-0.018,0.037-0.021,0.09-0.021,0.135l0.005,0.916L44.6,230.76L44.596,229.647z"/>
						<path fill="#F4F5F5" d="M48.878,228.778c0.001,0.094-0.066,0.17-0.176,0.17c-0.104,0.003-0.173-0.074-0.173-0.168
							c-0.001-0.1,0.068-0.171,0.174-0.171C48.804,228.609,48.877,228.678,48.878,228.778z M48.577,230.739l-0.011-1.527
							l0.283-0.002l0.01,1.529H48.577z"/>
						<path fill="#F4F5F5" d="M49.311,229.71c0.001-0.205-0.013-0.36-0.013-0.505l0.244-0.001l0.017,0.26h0.003
							c0.112-0.181,0.299-0.292,0.545-0.294c0.374-0.002,0.653,0.313,0.656,0.775c0.002,0.542-0.334,0.818-0.695,0.821
							c-0.198,0-0.377-0.09-0.473-0.24h-0.002l0.005,0.828l-0.278,0.004L49.311,229.71z M49.59,230.107
							c0.001,0.049,0.001,0.086,0.009,0.126c0.052,0.188,0.226,0.32,0.419,0.319c0.297-0.002,0.464-0.243,0.464-0.599
							c-0.001-0.299-0.164-0.567-0.461-0.565c-0.188,0.002-0.359,0.141-0.418,0.351c-0.01,0.033-0.014,0.073-0.013,0.107V230.107z"
							/>
						<path fill="#F4F5F5" d="M51.075,230.445c0.086,0.053,0.228,0.105,0.371,0.104c0.198,0,0.297-0.1,0.296-0.228
							c0-0.132-0.09-0.2-0.287-0.272c-0.277-0.104-0.408-0.252-0.408-0.435c-0.003-0.247,0.199-0.448,0.524-0.45
							c0.156,0,0.288,0.039,0.374,0.096l-0.071,0.201c-0.059-0.039-0.166-0.09-0.31-0.092c-0.163,0.002-0.255,0.095-0.255,0.21
							c0.003,0.126,0.093,0.183,0.292,0.258c0.262,0.104,0.403,0.234,0.404,0.459c0,0.27-0.204,0.464-0.568,0.465
							c-0.162,0.003-0.32-0.04-0.431-0.104L51.075,230.445z"/>
						<path fill="#F4F5F5" d="M53.643,230.292c0.002,0.166,0.002,0.299,0.02,0.421l-0.25,0.002l-0.018-0.247l-0.008-0.002
							c-0.067,0.12-0.229,0.287-0.505,0.289c-0.241,0.001-0.523-0.134-0.527-0.669l-0.005-0.896l0.275-0.001l0.004,0.842
							c0.002,0.291,0.097,0.491,0.349,0.49c0.185-0.001,0.312-0.126,0.359-0.263c0.014-0.036,0.028-0.085,0.028-0.14l-0.007-0.936
							l0.278,0.001L53.643,230.292z"/>
						<path fill="#F4F5F5" d="M54.099,229.598c0-0.161-0.003-0.29-0.012-0.416l0.244-0.002l0.008,0.249h0.015
							c0.082-0.147,0.227-0.28,0.481-0.284c0.204,0,0.366,0.128,0.429,0.305h0.01c0.044-0.089,0.108-0.149,0.168-0.197
							c0.095-0.071,0.192-0.109,0.338-0.11c0.207,0,0.512,0.132,0.515,0.66l0.004,0.899h-0.274l-0.004-0.86
							c-0.002-0.302-0.118-0.469-0.334-0.468c-0.162,0.002-0.285,0.119-0.331,0.24c-0.015,0.05-0.021,0.096-0.021,0.143l0.006,0.949
							l-0.275,0.002l-0.005-0.919c-0.001-0.242-0.105-0.411-0.321-0.409c-0.172,0.001-0.302,0.14-0.343,0.279
							c-0.015,0.035-0.021,0.089-0.021,0.134l0.005,0.919l-0.274-0.002L54.099,229.598z"/>
					</g>
				</g>
				<g>
					
						<rect x="84.622" y="199.611" transform="matrix(-1 0.0052 -0.0052 -1 173.6581 402.1237)" fill="#CE4F27" width="3.362" height="3.356"/>
					
						<rect x="84.655" y="206.631" transform="matrix(-1 0.0046 -0.0046 -1 173.6392 416.2261)" fill="#53ACB0" width="3.363" height="3.367"/>
					
						<rect x="84.697" y="213.662" transform="matrix(-1 0.0055 -0.0055 -1 173.9446 430.2025)" fill="#B9CBC0" width="3.364" height="3.358"/>
					
						<rect x="84.725" y="220.688" transform="matrix(-1 0.0046 -0.0046 -1 173.8438 444.3347)" fill="#7CA78C" width="3.361" height="3.363"/>
					<g>
						<path fill="#F4F5F5" d="M91.128,199.884l0.282-0.001l0.009,1.896l0.909-0.004l0.002,0.23l-1.191,0.007L91.128,199.884z"/>
						<path fill="#F4F5F5" d="M93.964,201.223c0.004,0.566-0.394,0.815-0.757,0.817c-0.413,0.003-0.733-0.302-0.737-0.788
							c-0.003-0.507,0.334-0.808,0.753-0.811C93.664,200.44,93.963,200.758,93.964,201.223z M92.751,201.246
							c0.002,0.336,0.191,0.583,0.465,0.582c0.268-0.001,0.469-0.25,0.466-0.599c0-0.253-0.138-0.584-0.462-0.581
							C92.893,200.649,92.75,200.954,92.751,201.246z"/>
						<path fill="#F4F5F5" d="M94.308,200.945c0-0.182-0.001-0.335-0.013-0.477l0.241-0.002l0.018,0.308l0.01-0.002
							c0.068-0.204,0.239-0.337,0.42-0.338c0.032-0.002,0.056,0.001,0.08,0.005l0.002,0.265c-0.028-0.009-0.059-0.009-0.095-0.007
							c-0.194,0-0.339,0.148-0.374,0.361c-0.006,0.033-0.01,0.078-0.01,0.119l0.005,0.819l-0.276,0.001L94.308,200.945z"/>
						<path fill="#F4F5F5" d="M95.47,201.277c0.008,0.376,0.246,0.533,0.525,0.53c0.206,0,0.323-0.035,0.425-0.08l0.053,0.198
							c-0.096,0.044-0.27,0.102-0.513,0.102c-0.47,0.004-0.752-0.313-0.755-0.771c-0.002-0.465,0.266-0.824,0.714-0.826
							c0.501-0.006,0.635,0.431,0.636,0.71c0,0.063-0.009,0.102-0.008,0.13L95.47,201.277z M96.279,201.071
							c0.008-0.169-0.073-0.444-0.384-0.443c-0.283,0-0.396,0.261-0.425,0.447L96.279,201.071z"/>
						<path fill="#F4F5F5" d="M96.891,200.869c-0.001-0.162-0.001-0.285-0.008-0.414l0.242-0.002l0.012,0.249l0.013-0.001
							c0.082-0.142,0.224-0.277,0.482-0.281c0.203,0,0.36,0.124,0.429,0.306h0.007c0.051-0.088,0.114-0.155,0.171-0.206
							c0.095-0.065,0.19-0.104,0.341-0.104c0.2,0,0.502,0.137,0.503,0.663l0.007,0.896l-0.271,0.001l-0.004-0.855
							c-0.001-0.306-0.109-0.479-0.331-0.479c-0.166,0.001-0.288,0.118-0.335,0.252c-0.014,0.041-0.021,0.091-0.021,0.146
							l0.006,0.939l-0.271,0.002l-0.004-0.918c-0.003-0.245-0.114-0.417-0.324-0.418c-0.173,0.001-0.299,0.142-0.346,0.284
							c-0.01,0.041-0.021,0.094-0.021,0.136l0.005,0.92l-0.273,0.001L96.891,200.869z"/>
						<path fill="#F4F5F5" d="M101.174,200.005c-0.001,0.097-0.063,0.168-0.174,0.168c-0.101,0.002-0.173-0.069-0.173-0.168
							c-0.002-0.093,0.072-0.172,0.18-0.173C101.107,199.833,101.173,199.905,101.174,200.005z M100.873,201.964l-0.01-1.529
							l0.28-0.003l0.009,1.529L100.873,201.964z"/>
						<path fill="#F4F5F5" d="M101.609,200.937c0-0.199-0.008-0.359-0.008-0.507h0.242l0.012,0.261h0.015
							c0.104-0.189,0.286-0.295,0.539-0.295c0.371-0.002,0.652,0.311,0.653,0.772c0.003,0.547-0.335,0.824-0.693,0.826
							c-0.204,0.002-0.38-0.091-0.473-0.241l-0.008-0.002l0.005,0.832l-0.274,0.002L101.609,200.937z M101.888,201.333
							c-0.002,0.045,0.004,0.088,0.014,0.117c0.048,0.19,0.216,0.324,0.421,0.322c0.291,0,0.461-0.245,0.461-0.59
							c-0.005-0.309-0.164-0.572-0.459-0.57c-0.188,0.001-0.366,0.139-0.422,0.346c-0.005,0.038-0.018,0.079-0.017,0.108
							L101.888,201.333z"/>
						<path fill="#F4F5F5" d="M103.374,201.672c0.085,0.046,0.229,0.102,0.369,0.103c0.204-0.004,0.298-0.099,0.295-0.228
							c-0.001-0.133-0.08-0.198-0.282-0.277c-0.279-0.099-0.413-0.248-0.414-0.429c-0.001-0.249,0.207-0.452,0.529-0.454
							c0.154-0.001,0.29,0.041,0.37,0.091l-0.063,0.207c-0.059-0.043-0.166-0.096-0.312-0.096c-0.165,0.003-0.251,0.098-0.251,0.215
							c0.001,0.126,0.087,0.182,0.288,0.259c0.263,0.101,0.4,0.228,0.401,0.458c0,0.275-0.211,0.464-0.568,0.467
							c-0.165,0.001-0.325-0.042-0.425-0.107L103.374,201.672z"/>
						<path fill="#F4F5F5" d="M105.944,201.521c0,0.158,0.001,0.295,0.017,0.417l-0.253,0.002l-0.008-0.249h-0.015
							c-0.068,0.12-0.229,0.289-0.499,0.289c-0.24,0.001-0.528-0.132-0.532-0.672l-0.005-0.894h0.274l0.005,0.845
							c0.003,0.289,0.099,0.49,0.341,0.487c0.192,0,0.32-0.134,0.37-0.255c0.015-0.046,0.021-0.09,0.022-0.148l-0.006-0.933
							l0.282-0.005L105.944,201.521z"/>
						<path fill="#F4F5F5" d="M106.402,200.821c-0.003-0.162-0.014-0.286-0.018-0.415l0.247-0.002l0.005,0.249l0.017-0.002
							c0.085-0.142,0.224-0.276,0.481-0.279c0.211-0.001,0.361,0.124,0.431,0.305l0.012,0.002c0.045-0.089,0.101-0.156,0.174-0.206
							c0.088-0.067,0.186-0.104,0.328-0.104c0.205-0.001,0.509,0.133,0.511,0.66l0.004,0.896l-0.273,0.004l-0.004-0.861
							c0-0.303-0.114-0.477-0.331-0.476c-0.157,0-0.278,0.119-0.331,0.251c-0.018,0.043-0.023,0.093-0.023,0.146l0.004,0.939
							l-0.269,0.003l-0.007-0.918c-0.001-0.245-0.105-0.419-0.32-0.417c-0.169,0-0.296,0.142-0.344,0.281
							c-0.018,0.043-0.024,0.095-0.023,0.138l0.005,0.921l-0.268,0.001L106.402,200.821z"/>
					</g>
					<g>
						<path fill="#F4F5F5" d="M91.164,206.906l0.281-0.003l0.012,1.9l0.906-0.003l0.003,0.239l-1.191,0.005L91.164,206.906z"/>
						<path fill="#F4F5F5" d="M94,208.248c0.003,0.568-0.394,0.815-0.758,0.815c-0.411,0.002-0.732-0.3-0.736-0.783
							c-0.002-0.509,0.336-0.81,0.753-0.813C93.7,207.465,93.997,207.786,94,208.248z M92.787,208.271
							c0.002,0.335,0.191,0.59,0.465,0.587c0.268,0,0.469-0.251,0.466-0.6c-0.001-0.261-0.139-0.582-0.465-0.579
							C92.931,207.68,92.786,207.985,92.787,208.271z"/>
						<path fill="#F4F5F5" d="M94.344,207.973c0.001-0.184,0-0.334-0.012-0.479l0.239-0.003l0.02,0.306l0.01-0.002
							c0.066-0.21,0.24-0.336,0.42-0.337c0.031,0,0.057,0.004,0.08,0.004v0.26c-0.028,0.001-0.057,0.003-0.094,0.003
							c-0.194,0-0.339,0.144-0.372,0.354c-0.008,0.037-0.011,0.089-0.011,0.133l0.005,0.817l-0.277,0.003L94.344,207.973z"/>
						<path fill="#F4F5F5" d="M95.506,208.304c0.007,0.379,0.246,0.528,0.522,0.526c0.208-0.002,0.326-0.036,0.428-0.082
							l0.053,0.199c-0.096,0.044-0.268,0.101-0.513,0.102c-0.471,0.004-0.753-0.31-0.754-0.773
							c-0.004-0.462,0.265-0.818,0.713-0.822c0.501-0.003,0.635,0.433,0.636,0.713c0,0.062-0.008,0.102-0.007,0.131L95.506,208.304z
							 M96.315,208.1c0.007-0.176-0.073-0.447-0.384-0.444c-0.283,0.004-0.396,0.257-0.426,0.448L96.315,208.1z"/>
						<path fill="#F4F5F5" d="M96.927,207.888c0-0.155-0.003-0.28-0.009-0.41h0.242l0.013,0.255h0.016
							c0.079-0.146,0.222-0.287,0.48-0.288c0.201,0.001,0.36,0.123,0.427,0.31h0.009c0.048-0.092,0.113-0.153,0.17-0.203
							c0.095-0.065,0.19-0.109,0.34-0.111c0.203,0,0.503,0.133,0.506,0.659l0.005,0.906l-0.271,0.003l-0.005-0.873
							c-0.003-0.295-0.111-0.465-0.331-0.466c-0.166,0.004-0.288,0.12-0.336,0.25c-0.014,0.038-0.02,0.089-0.02,0.14l0.006,0.951
							l-0.272,0.002l-0.004-0.926c-0.001-0.242-0.114-0.413-0.324-0.41c-0.171-0.002-0.298,0.136-0.344,0.275
							c-0.01,0.042-0.021,0.093-0.021,0.139l0.004,0.926l-0.272,0.001L96.927,207.888z"/>
						<path fill="#F4F5F5" d="M101.21,207.026c0,0.1-0.064,0.178-0.172,0.181c-0.104,0-0.175-0.079-0.175-0.181
							c-0.003-0.089,0.074-0.168,0.18-0.171C101.142,206.855,101.21,206.927,101.21,207.026z M100.909,208.997l-0.009-1.536
							l0.28-0.003l0.009,1.535L100.909,208.997z"/>
						<path fill="#F4F5F5" d="M101.647,207.956c-0.001-0.197-0.01-0.354-0.012-0.501h0.244l0.012,0.263l0.015,0.001
							c0.104-0.188,0.287-0.297,0.54-0.3c0.37-0.001,0.649,0.313,0.652,0.774c0.002,0.547-0.336,0.822-0.692,0.822
							c-0.204,0.001-0.381-0.082-0.476-0.24l-0.005,0.002l0.004,0.836l-0.275,0.002L101.647,207.956z M101.922,208.363
							c0.001,0.037,0.005,0.079,0.017,0.115c0.043,0.188,0.214,0.319,0.42,0.32c0.292-0.004,0.461-0.239,0.458-0.592
							c0-0.304-0.161-0.563-0.457-0.563c-0.188,0.003-0.365,0.131-0.421,0.344c-0.005,0.035-0.017,0.073-0.017,0.108V208.363z"/>
						<path fill="#F4F5F5" d="M103.41,208.697c0.085,0.049,0.229,0.111,0.369,0.105c0.202,0.002,0.297-0.098,0.296-0.231
							c-0.001-0.131-0.081-0.198-0.283-0.275c-0.279-0.098-0.413-0.246-0.414-0.427c0-0.247,0.208-0.455,0.53-0.455
							c0.153-0.001,0.288,0.042,0.369,0.099l-0.063,0.196c-0.057-0.038-0.167-0.091-0.311-0.088
							c-0.166,0.001-0.253,0.096-0.253,0.212c0.002,0.12,0.09,0.182,0.291,0.259c0.262,0.096,0.399,0.229,0.399,0.455
							c0,0.271-0.211,0.463-0.566,0.464c-0.169,0.002-0.327-0.039-0.429-0.105L103.41,208.697z"/>
						<path fill="#F4F5F5" d="M105.98,208.542c0.001,0.165,0.001,0.297,0.017,0.428l-0.253,0.001l-0.01-0.258l-0.015,0.002
							c-0.067,0.126-0.229,0.285-0.498,0.287c-0.239,0-0.528-0.131-0.531-0.665l-0.005-0.899l0.275,0.001l0.004,0.849
							c0.003,0.288,0.099,0.482,0.341,0.48c0.191,0.001,0.32-0.126,0.371-0.254c0.014-0.036,0.021-0.089,0.021-0.143l-0.004-0.938
							l0.282-0.002L105.98,208.542z"/>
						<path fill="#F4F5F5" d="M106.438,207.838c0-0.154-0.014-0.28-0.017-0.408l0.245-0.001l0.007,0.255l0.016-0.001
							c0.086-0.146,0.225-0.286,0.483-0.289c0.209,0,0.36,0.125,0.43,0.313l0.011-0.001c0.042-0.09,0.102-0.152,0.175-0.201
							c0.086-0.066,0.186-0.111,0.326-0.113c0.207-0.001,0.509,0.134,0.512,0.659l0.005,0.907h-0.274l-0.004-0.871
							c-0.002-0.296-0.114-0.466-0.33-0.465c-0.158,0.002-0.278,0.118-0.331,0.25c-0.018,0.039-0.023,0.088-0.023,0.141l0.004,0.951
							l-0.271,0.001l-0.004-0.927c-0.001-0.242-0.105-0.413-0.32-0.412c-0.17,0.002-0.297,0.141-0.344,0.276
							c-0.017,0.041-0.023,0.095-0.024,0.141l0.005,0.926l-0.268-0.003L106.438,207.838z"/>
					</g>
					<g>
						<path fill="#F4F5F5" d="M91.2,213.934l0.282-0.001l0.012,1.9l0.905-0.005l0.001,0.23l-1.188,0.006L91.2,213.934z"/>
						<path fill="#F4F5F5" d="M94.036,215.273c0.004,0.566-0.394,0.819-0.758,0.822c-0.411,0.001-0.732-0.304-0.734-0.785
							c-0.005-0.516,0.334-0.815,0.749-0.817C93.734,214.49,94.034,214.807,94.036,215.273z M92.825,215.294
							c0,0.34,0.188,0.588,0.464,0.587c0.267-0.001,0.468-0.251,0.466-0.599c-0.001-0.257-0.142-0.58-0.464-0.581
							C92.965,214.706,92.822,215.006,92.825,215.294z"/>
						<path fill="#F4F5F5" d="M94.382,214.992c-0.001-0.176-0.002-0.329-0.016-0.473l0.241-0.002l0.017,0.302h0.011
							c0.067-0.205,0.24-0.337,0.422-0.335c0.031-0.001,0.054,0.001,0.08,0.005l0.002,0.264c-0.03-0.006-0.059-0.006-0.095-0.006
							c-0.194,0.001-0.34,0.146-0.373,0.354c-0.008,0.036-0.011,0.087-0.011,0.136l0.004,0.812l-0.278,0.004L94.382,214.992z"/>
						<path fill="#F4F5F5" d="M95.54,215.33c0.011,0.374,0.249,0.525,0.526,0.525c0.204-0.004,0.324-0.033,0.425-0.08l0.054,0.197
							c-0.095,0.046-0.27,0.104-0.513,0.106c-0.471,0.001-0.753-0.313-0.757-0.776c-0.001-0.46,0.268-0.822,0.717-0.824
							c0.501-0.003,0.635,0.437,0.635,0.715c0,0.058-0.008,0.1-0.007,0.131L95.54,215.33z M96.353,215.125
							c0.004-0.171-0.074-0.45-0.386-0.449c-0.282,0.003-0.396,0.264-0.424,0.453L96.353,215.125z"/>
						<path fill="#F4F5F5" d="M96.963,214.918c0-0.16-0.001-0.285-0.009-0.41l0.242-0.001l0.014,0.249l0.014,0.002
							c0.08-0.148,0.222-0.287,0.48-0.287c0.201-0.003,0.36,0.121,0.428,0.302l0.009,0.002c0.049-0.092,0.114-0.152,0.171-0.201
							c0.093-0.065,0.189-0.108,0.339-0.109c0.2,0.001,0.501,0.13,0.506,0.663l0.005,0.898l-0.271,0.001l-0.004-0.86
							c-0.004-0.298-0.112-0.473-0.331-0.473c-0.167,0.001-0.288,0.119-0.336,0.251c-0.014,0.042-0.019,0.09-0.018,0.14l0.002,0.946
							l-0.271,0.004l-0.006-0.918c-0.001-0.244-0.113-0.419-0.324-0.419c-0.172,0.002-0.298,0.143-0.345,0.28
							c-0.009,0.037-0.021,0.085-0.021,0.137l0.007,0.922l-0.273,0.003L96.963,214.918z"/>
						<path fill="#F4F5F5" d="M101.246,214.055c0,0.089-0.064,0.17-0.175,0.169c-0.102,0.002-0.172-0.076-0.174-0.169
							c0-0.096,0.075-0.174,0.18-0.177C101.18,213.88,101.245,213.958,101.246,214.055z M100.945,216.017l-0.008-1.529l0.283-0.002
							l0.006,1.529L100.945,216.017z"/>
						<path fill="#F4F5F5" d="M101.684,214.982c0-0.197-0.009-0.353-0.012-0.498l0.242-0.003l0.013,0.26h0.016
							c0.104-0.187,0.286-0.293,0.539-0.296c0.37-0.004,0.65,0.312,0.654,0.771c0.001,0.554-0.336,0.827-0.693,0.83
							c-0.205,0.001-0.38-0.089-0.474-0.241h-0.008l0.005,0.828l-0.274,0.001L101.684,214.982z M101.958,215.387
							c0.001,0.04,0.005,0.077,0.018,0.112c0.042,0.194,0.216,0.323,0.419,0.322c0.292-0.003,0.461-0.239,0.459-0.595
							c-0.001-0.306-0.162-0.562-0.457-0.561c-0.188,0.002-0.368,0.136-0.422,0.343c-0.006,0.036-0.017,0.08-0.018,0.116
							L101.958,215.387z"/>
						<path fill="#F4F5F5" d="M103.448,215.723c0.083,0.05,0.229,0.105,0.369,0.104c0.202-0.001,0.294-0.104,0.294-0.228
							c-0.001-0.136-0.08-0.207-0.282-0.278c-0.278-0.104-0.412-0.246-0.414-0.426c0-0.251,0.207-0.457,0.527-0.461
							c0.154,0.001,0.293,0.04,0.372,0.094l-0.063,0.205c-0.061-0.044-0.168-0.093-0.313-0.093
							c-0.165,0.001-0.253,0.096-0.253,0.214c0.003,0.127,0.089,0.184,0.291,0.259c0.261,0.098,0.396,0.229,0.399,0.463
							c0.001,0.265-0.211,0.461-0.566,0.462c-0.169,0.003-0.328-0.046-0.426-0.106L103.448,215.723z"/>
						<path fill="#F4F5F5" d="M106.015,215.566c0.002,0.162,0.004,0.304,0.02,0.424l-0.254,0.004l-0.01-0.259l-0.015,0.001
							c-0.066,0.131-0.229,0.294-0.498,0.297c-0.239,0.002-0.527-0.14-0.531-0.673l-0.005-0.893h0.275l0.004,0.84
							c0.001,0.294,0.099,0.493,0.341,0.491c0.191,0.001,0.321-0.136,0.371-0.263c0.014-0.032,0.021-0.084,0.021-0.139l-0.004-0.937
							h0.28L106.015,215.566z"/>
						<path fill="#F4F5F5" d="M106.474,214.87c0-0.159-0.014-0.284-0.018-0.41l0.247-0.003l0.01,0.25l0.013,0.002
							c0.086-0.148,0.222-0.286,0.483-0.288c0.208-0.001,0.359,0.122,0.429,0.306l0.012-0.003c0.043-0.089,0.102-0.152,0.175-0.197
							c0.086-0.066,0.186-0.108,0.326-0.11c0.204,0,0.508,0.13,0.512,0.664l0.005,0.898l-0.273,0.001l-0.006-0.861
							c-0.001-0.299-0.114-0.475-0.329-0.472c-0.159-0.001-0.28,0.118-0.331,0.251c-0.018,0.04-0.023,0.089-0.024,0.138l0.005,0.947
							l-0.271,0.001l-0.004-0.916c-0.002-0.242-0.105-0.417-0.322-0.418c-0.166,0.003-0.298,0.144-0.344,0.279
							c-0.017,0.039-0.022,0.086-0.022,0.136l0.004,0.923l-0.267,0.003L106.474,214.87z"/>
					</g>
					<g>
						<path fill="#F4F5F5" d="M91.236,220.961l0.28-0.001l0.011,1.897l0.91-0.005l0.001,0.226l-1.189,0.007L91.236,220.961z"/>
						<path fill="#F4F5F5" d="M94.07,222.297c0.005,0.563-0.39,0.816-0.754,0.819c-0.413,0.002-0.734-0.303-0.736-0.788
							c-0.004-0.512,0.336-0.81,0.753-0.813C93.772,221.516,94.068,221.834,94.07,222.297z M92.86,222.324
							c0.002,0.332,0.189,0.58,0.466,0.579c0.266-0.001,0.468-0.252,0.466-0.591c-0.002-0.265-0.141-0.588-0.464-0.587
							C93.001,221.729,92.858,222.031,92.86,222.324z"/>
						<path fill="#F4F5F5" d="M94.417,222.025c0.001-0.184,0-0.337-0.014-0.479l0.24-0.003l0.018,0.301l0.012,0.002
							c0.066-0.211,0.239-0.336,0.419-0.338c0.033,0,0.057,0,0.081,0.004l0.001,0.265c-0.029-0.007-0.061-0.007-0.093-0.007
							c-0.195,0.001-0.342,0.146-0.375,0.36c-0.007,0.039-0.011,0.081-0.011,0.129l0.006,0.81l-0.279-0.001L94.417,222.025z"/>
						<path fill="#F4F5F5" d="M95.576,222.352c0.01,0.373,0.249,0.531,0.525,0.526c0.206,0.001,0.325-0.036,0.427-0.079l0.052,0.202
							c-0.097,0.043-0.267,0.1-0.512,0.101c-0.47,0.001-0.753-0.312-0.755-0.772c-0.003-0.462,0.266-0.822,0.714-0.825
							c0.501-0.001,0.633,0.437,0.636,0.716c-0.002,0.053-0.008,0.095-0.005,0.126L95.576,222.352z M96.388,222.145
							c0.006-0.172-0.075-0.439-0.383-0.439c-0.284,0.001-0.398,0.257-0.426,0.442L96.388,222.145z"/>
						<path fill="#F4F5F5" d="M96.999,221.944c0-0.157-0.002-0.285-0.01-0.41l0.243-0.003l0.013,0.247l0.015,0.001
							c0.08-0.144,0.222-0.282,0.481-0.282c0.201-0.001,0.358,0.121,0.428,0.299h0.008c0.05-0.084,0.111-0.146,0.17-0.193
							c0.094-0.071,0.19-0.108,0.338-0.109c0.204-0.001,0.502,0.135,0.506,0.659l0.006,0.896l-0.271,0.001l-0.004-0.86
							c-0.002-0.296-0.111-0.47-0.332-0.472c-0.166,0.003-0.285,0.123-0.334,0.259c-0.014,0.044-0.021,0.085-0.021,0.141
							l0.004,0.936l-0.269,0.001l-0.004-0.912c-0.002-0.242-0.113-0.42-0.324-0.417c-0.174,0-0.299,0.145-0.346,0.283
							c-0.01,0.041-0.021,0.087-0.021,0.138l0.005,0.913l-0.274,0.002L96.999,221.944z"/>
						<path fill="#F4F5F5" d="M101.282,221.078c0,0.094-0.064,0.166-0.173,0.169c-0.103,0-0.176-0.072-0.176-0.168
							c0-0.091,0.075-0.166,0.179-0.168C101.216,220.912,101.281,220.982,101.282,221.078z M100.981,223.036l-0.007-1.524h0.28
							l0.01,1.522L100.981,223.036z"/>
						<path fill="#F4F5F5" d="M101.719,222.004c-0.001-0.195-0.009-0.354-0.009-0.496l0.24-0.002l0.013,0.259h0.015
							c0.104-0.182,0.288-0.292,0.54-0.295c0.371-0.001,0.65,0.315,0.653,0.767c0.004,0.555-0.335,0.829-0.691,0.833
							c-0.205,0-0.384-0.09-0.475-0.243l-0.008,0.001l0.004,0.833l-0.272,0.001L101.719,222.004z M101.995,222.414
							c0,0.037,0.006,0.078,0.015,0.108c0.045,0.197,0.215,0.325,0.421,0.325c0.293-0.002,0.462-0.243,0.459-0.589
							c-0.001-0.307-0.162-0.571-0.459-0.571c-0.186,0.002-0.366,0.14-0.42,0.354c-0.005,0.025-0.018,0.069-0.018,0.109
							L101.995,222.414z"/>
						<path fill="#F4F5F5" d="M103.483,222.749c0.084,0.05,0.229,0.102,0.369,0.1c0.202,0.002,0.295-0.1,0.294-0.226
							c0-0.132-0.079-0.198-0.28-0.279c-0.279-0.1-0.414-0.248-0.414-0.429c-0.004-0.249,0.206-0.448,0.525-0.451
							c0.157-0.001,0.293,0.043,0.375,0.095l-0.065,0.199c-0.059-0.037-0.166-0.085-0.313-0.085c-0.163,0-0.249,0.087-0.249,0.203
							c0,0.13,0.087,0.182,0.291,0.264c0.258,0.094,0.396,0.231,0.397,0.458c0.001,0.271-0.21,0.464-0.569,0.465
							c-0.163,0-0.324-0.042-0.425-0.106L103.483,222.749z"/>
						<path fill="#F4F5F5" d="M106.053,222.597c0,0.155,0,0.294,0.017,0.411l-0.253,0.003l-0.01-0.245l-0.013,0.001
							c-0.067,0.12-0.23,0.285-0.5,0.287c-0.239,0.003-0.528-0.139-0.53-0.672l-0.005-0.891l0.274-0.003l0.005,0.84
							c0,0.296,0.098,0.494,0.341,0.494c0.189-0.001,0.318-0.128,0.37-0.26c0.015-0.04,0.021-0.091,0.021-0.143l-0.005-0.936
							l0.28-0.001L106.053,222.597z"/>
						<path fill="#F4F5F5" d="M106.511,221.894c0-0.159-0.015-0.286-0.017-0.412l0.244,0.001l0.009,0.245l0.016,0.001
							c0.086-0.145,0.22-0.279,0.48-0.283c0.209,0,0.36,0.123,0.433,0.301h0.009c0.044-0.084,0.103-0.144,0.175-0.191
							c0.085-0.075,0.186-0.112,0.325-0.112c0.206-0.001,0.51,0.135,0.514,0.659l0.005,0.896l-0.275,0.002l-0.004-0.86
							c-0.001-0.296-0.114-0.473-0.33-0.472c-0.16,0.002-0.281,0.124-0.331,0.258c-0.017,0.041-0.024,0.087-0.024,0.141l0.006,0.937
							l-0.271,0.004l-0.004-0.914c-0.001-0.243-0.105-0.418-0.323-0.418c-0.166,0.002-0.295,0.145-0.34,0.282
							c-0.018,0.043-0.025,0.089-0.025,0.138l0.006,0.914h-0.268L106.511,221.894z"/>
					</g>
					
						<rect x="84.769" y="228.113" transform="matrix(-1 0.0052 -0.0052 -1 174.1007 459.1364)" fill="#93D5DF" width="3.363" height="3.364"/>
					<g>
						<path fill="#F4F5F5" d="M91.275,228.389l0.281-0.002l0.011,1.899l0.907-0.004l0.001,0.23l-1.188,0.006L91.275,228.389z"/>
						<path fill="#F4F5F5" d="M94.11,229.728c0.003,0.563-0.394,0.814-0.757,0.818c-0.411,0-0.733-0.301-0.736-0.786
							c-0.004-0.511,0.336-0.81,0.753-0.813C93.811,228.947,94.108,229.262,94.11,229.728z M92.896,229.753
							c0.002,0.332,0.193,0.581,0.466,0.578c0.27,0,0.47-0.246,0.47-0.593c-0.004-0.258-0.141-0.587-0.466-0.587
							C93.038,229.156,92.896,229.459,92.896,229.753z"/>
						<path fill="#F4F5F5" d="M94.455,229.452c-0.001-0.182-0.002-0.335-0.014-0.479l0.241-0.003l0.018,0.303l0.01-0.001
							c0.066-0.204,0.241-0.332,0.42-0.334c0.033,0,0.054,0,0.081,0.008l-0.001,0.257c-0.027-0.005-0.058-0.002-0.092-0.005
							c-0.195-0.001-0.339,0.146-0.373,0.354c-0.009,0.044-0.012,0.093-0.012,0.134l0.004,0.814l-0.276,0.002L94.455,229.452z"/>
						<path fill="#F4F5F5" d="M95.616,229.781c0.01,0.375,0.245,0.535,0.524,0.533c0.206,0,0.324-0.041,0.424-0.084l0.054,0.201
							c-0.094,0.044-0.268,0.098-0.513,0.099c-0.47,0.005-0.751-0.312-0.754-0.772c-0.003-0.454,0.267-0.818,0.713-0.822
							c0.501-0.003,0.636,0.427,0.636,0.712c0.001,0.063-0.009,0.099-0.008,0.131L95.616,229.781z M96.426,229.583
							c0.006-0.181-0.074-0.447-0.385-0.446c-0.281,0-0.396,0.256-0.423,0.45L96.426,229.583z"/>
						<path fill="#F4F5F5" d="M97.037,229.378c-0.001-0.162,0-0.293-0.01-0.419l0.243,0.002l0.013,0.247h0.015
							c0.082-0.147,0.221-0.281,0.479-0.283c0.204,0,0.362,0.127,0.43,0.304h0.006c0.05-0.091,0.115-0.147,0.174-0.198
							c0.091-0.072,0.188-0.108,0.338-0.11c0.202,0,0.502,0.133,0.505,0.661l0.005,0.898l-0.271,0.001l-0.005-0.862
							c0-0.301-0.11-0.466-0.332-0.467c-0.166,0.002-0.286,0.115-0.333,0.243c-0.017,0.048-0.021,0.093-0.021,0.14l0.005,0.947
							l-0.271,0.002l-0.004-0.917c-0.003-0.243-0.114-0.413-0.323-0.41c-0.174,0-0.3,0.143-0.345,0.28
							c-0.012,0.037-0.022,0.088-0.022,0.134l0.007,0.917l-0.274,0.001L97.037,229.378z"/>
						<path fill="#F4F5F5" d="M101.319,228.508c0.003,0.094-0.063,0.17-0.172,0.172c-0.104-0.001-0.174-0.075-0.174-0.171
							c0-0.1,0.076-0.17,0.18-0.171C101.254,228.338,101.321,228.409,101.319,228.508z M101.02,230.468l-0.009-1.527l0.282-0.002
							l0.008,1.529H101.02z"/>
						<path fill="#F4F5F5" d="M101.756,229.441c0-0.203-0.008-0.359-0.009-0.504l0.241-0.002l0.013,0.259l0.015,0.001
							c0.104-0.185,0.287-0.292,0.54-0.294c0.371-0.003,0.652,0.313,0.653,0.774c0.003,0.546-0.335,0.821-0.692,0.821
							c-0.206,0.001-0.381-0.091-0.474-0.239h-0.008l0.005,0.83l-0.273,0.001L101.756,229.441z M102.032,229.837
							c0.002,0.049,0.006,0.085,0.016,0.126c0.045,0.186,0.215,0.316,0.421,0.317c0.292,0,0.46-0.24,0.458-0.6
							c-0.001-0.298-0.16-0.563-0.455-0.563c-0.188,0.002-0.367,0.141-0.421,0.351c-0.007,0.033-0.021,0.073-0.019,0.109V229.837z"
							/>
						<path fill="#F4F5F5" d="M103.521,230.175c0.084,0.05,0.229,0.105,0.37,0.104c0.202-0.002,0.294-0.103,0.293-0.229
							c-0.001-0.133-0.078-0.201-0.281-0.274c-0.278-0.104-0.414-0.251-0.414-0.431c-0.002-0.25,0.206-0.453,0.528-0.452
							c0.154-0.001,0.293,0.04,0.372,0.094l-0.063,0.202c-0.06-0.037-0.166-0.091-0.312-0.091c-0.166,0-0.251,0.095-0.252,0.208
							c0.001,0.128,0.088,0.186,0.291,0.259c0.259,0.104,0.398,0.237,0.396,0.461c0.002,0.269-0.209,0.463-0.565,0.462
							c-0.166,0.005-0.324-0.036-0.425-0.104L103.521,230.175z"/>
						<path fill="#F4F5F5" d="M106.091,230.024c0,0.165,0.001,0.296,0.017,0.42h-0.252l-0.011-0.247l-0.015-0.001
							c-0.067,0.119-0.229,0.285-0.499,0.288c-0.239,0.001-0.527-0.134-0.528-0.667l-0.007-0.896l0.273-0.002l0.006,0.842
							c0.002,0.291,0.1,0.489,0.341,0.488c0.191-0.001,0.318-0.125,0.371-0.263c0.015-0.033,0.021-0.085,0.021-0.139l-0.004-0.935
							l0.281-0.001L106.091,230.024z"/>
						<path fill="#F4F5F5" d="M106.549,229.33c-0.001-0.162-0.013-0.291-0.017-0.418l0.245-0.002l0.009,0.251l0.013-0.003
							c0.086-0.146,0.223-0.279,0.481-0.281c0.212-0.003,0.362,0.127,0.433,0.304h0.01c0.043-0.091,0.103-0.149,0.174-0.198
							c0.085-0.071,0.187-0.107,0.328-0.108c0.205-0.002,0.508,0.131,0.512,0.66l0.004,0.896h-0.273l-0.004-0.86
							c-0.002-0.299-0.115-0.468-0.33-0.465c-0.16,0-0.281,0.114-0.332,0.24c-0.017,0.047-0.024,0.095-0.022,0.141l0.002,0.95
							l-0.271,0.001l-0.003-0.918c-0.003-0.244-0.107-0.411-0.323-0.41c-0.166,0.003-0.296,0.141-0.343,0.28
							c-0.018,0.036-0.024,0.089-0.021,0.134l0.002,0.918l-0.265,0.001L106.549,229.33z"/>
					</g>
				</g>
				<g>
					
						<rect x="147.584" y="199.288" transform="matrix(-1 0.0055 -0.0055 -1 299.6332 401.1042)" fill="#CE4F27" width="3.357" height="3.356"/>
					
						<rect x="147.618" y="206.311" transform="matrix(-1 0.0052 -0.0052 -1 299.6812 415.2023)" fill="#53ACB0" width="3.357" height="3.365"/>
					
						<rect x="147.657" y="213.34" transform="matrix(-1 0.0055 -0.0055 -1 299.858 429.2103)" fill="#7CA78C" width="3.358" height="3.359"/>
					<g>
						<path fill="#F4F5F5" d="M154.084,199.561l0.282-0.003l0.009,1.9l0.91-0.008l0.001,0.231l-1.191,0.008L154.084,199.561z"/>
						<path fill="#F4F5F5" d="M156.92,200.901c0.004,0.565-0.394,0.814-0.76,0.816c-0.41,0.001-0.734-0.3-0.737-0.788
							c-0.003-0.507,0.329-0.807,0.753-0.811C156.616,200.117,156.917,200.432,156.92,200.901z M155.707,200.923
							c0.003,0.336,0.188,0.583,0.465,0.581c0.264-0.001,0.465-0.251,0.462-0.6c0-0.253-0.137-0.58-0.469-0.579
							C155.847,200.327,155.706,200.628,155.707,200.923z"/>
						<path fill="#F4F5F5" d="M157.266,200.623c-0.002-0.184-0.002-0.336-0.018-0.479l0.246-0.001l0.017,0.306h0.013
							c0.064-0.206,0.237-0.338,0.421-0.338c0.025-0.001,0.055-0.001,0.074,0.004l0.003,0.266c-0.027-0.008-0.057-0.008-0.101-0.008
							c-0.188-0.001-0.329,0.147-0.368,0.359c-0.006,0.035-0.01,0.081-0.009,0.123l0.004,0.815l-0.278,0.004L157.266,200.623z"/>
						<path fill="#F4F5F5" d="M158.429,200.953c0.002,0.377,0.24,0.531,0.522,0.53c0.199-0.001,0.323-0.033,0.426-0.081l0.05,0.199
							c-0.102,0.044-0.265,0.101-0.512,0.102c-0.469,0.002-0.756-0.313-0.757-0.771c-0.004-0.465,0.265-0.824,0.714-0.826
							c0.505-0.003,0.636,0.433,0.638,0.713c0,0.06,0,0.1-0.014,0.127L158.429,200.953z M159.244,200.747
							c-0.004-0.169-0.076-0.446-0.397-0.445c-0.278,0.003-0.399,0.261-0.418,0.448L159.244,200.747z"/>
						<path fill="#F4F5F5" d="M159.848,200.545c-0.001-0.162-0.001-0.288-0.009-0.415l0.24-0.002l0.018,0.247l0.008,0.002
							c0.079-0.143,0.226-0.279,0.483-0.282c0.203-0.001,0.363,0.124,0.429,0.308l0.005-0.001c0.048-0.092,0.116-0.156,0.174-0.206
							c0.094-0.066,0.196-0.104,0.34-0.104c0.201-0.001,0.507,0.134,0.51,0.663l0.004,0.895l-0.275,0.001l-0.004-0.856
							c-0.002-0.305-0.104-0.479-0.336-0.479c-0.161,0-0.274,0.121-0.332,0.254c-0.007,0.043-0.019,0.09-0.019,0.146l0.005,0.938
							l-0.271,0.001l-0.008-0.917c0-0.242-0.107-0.419-0.322-0.416c-0.171,0.002-0.301,0.143-0.342,0.28
							c-0.017,0.043-0.021,0.095-0.019,0.141l0.004,0.917l-0.276,0.002L159.848,200.545z"/>
						<path fill="#F4F5F5" d="M164.133,199.682c0.001,0.094-0.063,0.166-0.177,0.167c-0.104,0-0.168-0.07-0.168-0.166
							c-0.002-0.095,0.072-0.172,0.17-0.175C164.064,199.508,164.133,199.581,164.133,199.682z M163.829,201.64l-0.009-1.529
							l0.283-0.001l0.005,1.527L163.829,201.64z"/>
						<path fill="#F4F5F5" d="M164.567,200.612c-0.002-0.199-0.01-0.357-0.017-0.505l0.245-0.001l0.019,0.263h0.012
							c0.104-0.191,0.287-0.297,0.538-0.297c0.369-0.002,0.651,0.311,0.654,0.772c0.004,0.55-0.327,0.824-0.7,0.828
							c-0.195,0-0.379-0.092-0.465-0.244l-0.007-0.001l0.003,0.833h-0.274L164.567,200.612z M164.845,201.009
							c0,0.045-0.002,0.089,0.014,0.117c0.054,0.19,0.219,0.325,0.416,0.325c0.301-0.002,0.467-0.244,0.463-0.593
							c-0.001-0.308-0.161-0.57-0.458-0.568c-0.187,0-0.365,0.138-0.421,0.343c-0.01,0.038-0.017,0.08-0.017,0.112L164.845,201.009z
							"/>
						<path fill="#F4F5F5" d="M166.332,201.347c0.083,0.048,0.229,0.104,0.368,0.104c0.201,0,0.295-0.101,0.295-0.228
							c-0.003-0.132-0.081-0.198-0.282-0.274c-0.28-0.104-0.406-0.251-0.409-0.432c0.002-0.247,0.198-0.451,0.522-0.453
							c0.155-0.001,0.294,0.04,0.371,0.091l-0.065,0.206c-0.056-0.042-0.172-0.096-0.308-0.095
							c-0.166-0.001-0.252,0.099-0.252,0.217c0.002,0.123,0.087,0.181,0.28,0.257c0.271,0.1,0.408,0.227,0.408,0.461
							c0.001,0.271-0.207,0.463-0.567,0.465c-0.169-0.002-0.325-0.043-0.425-0.109L166.332,201.347z"/>
						<path fill="#F4F5F5" d="M168.898,201.196c0.003,0.158,0.003,0.296,0.012,0.421h-0.247l-0.014-0.247l0,0
							c-0.072,0.117-0.237,0.284-0.512,0.285c-0.236,0-0.528-0.13-0.531-0.674l-0.005-0.89l0.28-0.003l0.007,0.848
							c0.001,0.288,0.087,0.487,0.345,0.486c0.185,0.001,0.315-0.132,0.364-0.255c0.014-0.044,0.021-0.09,0.021-0.146l-0.007-0.936
							l0.282-0.002L168.898,201.196z"/>
						<path fill="#F4F5F5" d="M169.358,200.495c-0.001-0.16-0.012-0.285-0.017-0.413h0.245l0.015,0.247h0.008
							c0.082-0.145,0.224-0.281,0.482-0.281c0.205-0.002,0.368,0.121,0.43,0.304h0.004c0.052-0.089,0.107-0.155,0.174-0.204
							c0.093-0.067,0.192-0.104,0.336-0.104c0.204,0.001,0.508,0.136,0.512,0.662l0.004,0.896l-0.271,0.001l-0.007-0.857
							c-0.001-0.305-0.112-0.479-0.336-0.479c-0.158,0.003-0.275,0.12-0.332,0.253c-0.009,0.041-0.021,0.091-0.021,0.146
							l0.006,0.938l-0.275,0.004l-0.002-0.921c-0.004-0.241-0.104-0.417-0.319-0.414c-0.175,0-0.3,0.142-0.347,0.279
							c-0.017,0.045-0.021,0.095-0.021,0.139l0.005,0.918l-0.269,0.003L169.358,200.495z"/>
					</g>
					<g>
						<path fill="#F4F5F5" d="M154.12,206.583l0.28-0.003l0.011,1.9l0.909-0.005l0.002,0.236l-1.191,0.008L154.12,206.583z"/>
						<path fill="#F4F5F5" d="M156.956,207.922c0.004,0.57-0.394,0.813-0.761,0.816c-0.411,0.003-0.733-0.302-0.735-0.783
							c-0.002-0.508,0.33-0.811,0.753-0.813C156.653,207.142,156.953,207.461,156.956,207.922z M155.743,207.947
							c0.002,0.332,0.191,0.59,0.466,0.589c0.263-0.004,0.462-0.256,0.462-0.601c-0.002-0.262-0.138-0.582-0.47-0.58
							C155.883,207.357,155.741,207.661,155.743,207.947z"/>
						<path fill="#F4F5F5" d="M157.301,207.648c0-0.184-0.001-0.333-0.017-0.479l0.245-0.003l0.018,0.304h0.013
							c0.064-0.208,0.236-0.335,0.422-0.335c0.023-0.002,0.054,0.002,0.075,0v0.265c-0.028-0.002-0.056,0-0.097,0
							c-0.192,0-0.332,0.143-0.371,0.354c-0.006,0.036-0.01,0.088-0.009,0.132l0.005,0.818l-0.277,0.001L157.301,207.648z"/>
						<path fill="#F4F5F5" d="M158.464,207.98c0.002,0.379,0.241,0.527,0.522,0.525c0.201,0,0.322-0.035,0.425-0.081l0.053,0.2
							c-0.103,0.043-0.269,0.099-0.513,0.102c-0.47,0.002-0.757-0.311-0.76-0.772c-0.001-0.462,0.269-0.82,0.715-0.823
							c0.507-0.003,0.638,0.431,0.641,0.71c-0.001,0.063-0.001,0.104-0.016,0.136L158.464,207.98z M159.28,207.775
							c-0.001-0.175-0.075-0.442-0.396-0.442c-0.278,0.002-0.399,0.256-0.419,0.448L159.28,207.775z"/>
						<path fill="#F4F5F5" d="M159.883,207.564c0-0.153,0-0.279-0.009-0.407l0.243-0.003l0.014,0.256l0.007-0.001
							c0.082-0.146,0.228-0.285,0.487-0.287c0.202,0,0.359,0.122,0.428,0.309h0.005c0.049-0.093,0.116-0.152,0.174-0.201
							c0.097-0.067,0.195-0.11,0.34-0.113c0.201-0.001,0.506,0.135,0.51,0.66l0.004,0.906l-0.275,0.002l-0.004-0.872
							c-0.002-0.296-0.106-0.467-0.336-0.466c-0.16,0.002-0.275,0.12-0.334,0.25c-0.005,0.04-0.017,0.088-0.017,0.139l0.004,0.951
							l-0.271,0.003l-0.004-0.926c-0.001-0.243-0.109-0.413-0.321-0.411c-0.175,0.001-0.304,0.14-0.345,0.276
							c-0.016,0.04-0.02,0.091-0.02,0.138l0.005,0.926l-0.275,0.002L159.883,207.564z"/>
						<path fill="#F4F5F5" d="M164.17,206.702c0,0.098-0.064,0.178-0.177,0.179c-0.105-0.001-0.168-0.079-0.171-0.176
							c0-0.095,0.075-0.174,0.174-0.171C164.1,206.531,164.17,206.604,164.17,206.702z M163.865,208.671l-0.009-1.536l0.281-0.002
							l0.008,1.536L163.865,208.671z"/>
						<path fill="#F4F5F5" d="M164.604,207.632c-0.001-0.198-0.009-0.355-0.017-0.5l0.244-0.004l0.021,0.268l0.009,0.001
							c0.104-0.188,0.288-0.301,0.54-0.301c0.368-0.002,0.65,0.313,0.653,0.773c0.002,0.546-0.326,0.82-0.7,0.822
							c-0.197,0-0.379-0.082-0.465-0.241l-0.007,0.002l0.003,0.836l-0.275,0.002L164.604,207.632z M164.879,208.037
							c0.002,0.04,0.002,0.081,0.017,0.115c0.049,0.188,0.217,0.32,0.417,0.32c0.299-0.001,0.464-0.238,0.463-0.591
							c-0.004-0.303-0.164-0.563-0.459-0.561c-0.188,0.001-0.367,0.129-0.422,0.343c-0.009,0.032-0.017,0.072-0.016,0.106V208.037z"
							/>
						<path fill="#F4F5F5" d="M166.368,208.373c0.083,0.047,0.229,0.108,0.368,0.105c0.201,0,0.294-0.1,0.293-0.231
							c0-0.134-0.079-0.198-0.281-0.278c-0.278-0.097-0.405-0.242-0.407-0.427c0-0.243,0.196-0.451,0.522-0.452
							c0.155,0,0.291,0.043,0.37,0.096l-0.065,0.197c-0.056-0.035-0.17-0.088-0.311-0.088c-0.164,0.001-0.249,0.098-0.249,0.215
							c0.001,0.118,0.086,0.179,0.281,0.257c0.269,0.097,0.407,0.23,0.407,0.455c0.002,0.273-0.206,0.464-0.566,0.466
							c-0.171,0-0.327-0.043-0.428-0.106L166.368,208.373z"/>
						<path fill="#F4F5F5" d="M168.935,208.218c0.003,0.166,0.004,0.299,0.012,0.427l-0.245,0.002l-0.018-0.255l0,0
							c-0.07,0.125-0.236,0.284-0.511,0.288c-0.234,0-0.526-0.133-0.53-0.668l-0.004-0.896l0.28-0.004l0.006,0.851
							c0,0.287,0.089,0.481,0.345,0.48c0.187,0,0.313-0.128,0.363-0.255c0.015-0.037,0.021-0.09,0.021-0.142l-0.004-0.938
							l0.281-0.001L168.935,208.218z"/>
						<path fill="#F4F5F5" d="M169.395,207.514c-0.001-0.154-0.012-0.279-0.016-0.408h0.243l0.017,0.252h0.007
							c0.083-0.145,0.224-0.283,0.482-0.286c0.205,0,0.368,0.123,0.43,0.311h0.004c0.052-0.091,0.109-0.154,0.173-0.202
							c0.095-0.068,0.194-0.111,0.335-0.111c0.207-0.002,0.51,0.133,0.512,0.658l0.006,0.906h-0.271l-0.006-0.87
							c-0.001-0.294-0.113-0.467-0.338-0.466c-0.157,0.002-0.275,0.117-0.33,0.25c-0.01,0.038-0.021,0.088-0.021,0.141l0.004,0.949
							l-0.271,0.002l-0.007-0.926c-0.001-0.241-0.104-0.412-0.318-0.409c-0.174,0-0.299,0.135-0.347,0.274
							c-0.014,0.042-0.021,0.092-0.021,0.139l0.006,0.927H169.4L169.395,207.514z"/>
					</g>
					<g>
						<path fill="#F4F5F5" d="M154.156,213.613l0.282-0.004l0.01,1.9l0.908-0.004l0.002,0.231l-1.189,0.007L154.156,213.613z"/>
						<path fill="#F4F5F5" d="M156.993,214.949c0.003,0.566-0.395,0.818-0.762,0.818c-0.412,0.003-0.734-0.301-0.735-0.783
							c-0.004-0.513,0.33-0.813,0.753-0.814C156.688,214.166,156.99,214.484,156.993,214.949z M155.778,214.969
							c0.002,0.342,0.191,0.591,0.468,0.587c0.263,0,0.464-0.251,0.462-0.598c-0.002-0.256-0.137-0.58-0.471-0.58
							C155.918,214.38,155.778,214.682,155.778,214.969z"/>
						<path fill="#F4F5F5" d="M157.338,214.669c-0.001-0.177-0.002-0.332-0.021-0.475h0.247l0.019,0.301l0.013,0.001
							c0.065-0.206,0.238-0.335,0.422-0.337c0.024-0.002,0.053,0.002,0.075,0.008v0.261c-0.027-0.009-0.056-0.008-0.097-0.006
							c-0.189,0.001-0.332,0.146-0.371,0.354c-0.005,0.038-0.009,0.088-0.011,0.138l0.007,0.811l-0.278,0.002L157.338,214.669z"/>
						<path fill="#F4F5F5" d="M158.502,215.006c0.001,0.373,0.239,0.524,0.521,0.522c0.201-0.001,0.326-0.032,0.425-0.077
							l0.054,0.196c-0.103,0.047-0.269,0.105-0.513,0.105c-0.47,0.004-0.756-0.313-0.758-0.775
							c-0.003-0.458,0.267-0.823,0.714-0.823c0.504-0.004,0.636,0.438,0.64,0.715c-0.002,0.059,0,0.098-0.016,0.132L158.502,215.006
							z M159.313,214.799c0.002-0.17-0.072-0.449-0.395-0.448c-0.277,0.003-0.399,0.267-0.42,0.452L159.313,214.799z"/>
						<path fill="#F4F5F5" d="M159.919,214.594c0-0.159,0.001-0.285-0.008-0.41l0.239-0.002l0.018,0.251l0.008-0.001
							c0.081-0.146,0.225-0.285,0.487-0.287c0.2,0,0.359,0.124,0.424,0.304l0.008-0.001c0.047-0.086,0.116-0.147,0.173-0.197
							c0.093-0.065,0.195-0.108,0.34-0.109c0.201-0.001,0.506,0.127,0.508,0.661l0.007,0.901h-0.275l-0.005-0.858
							c-0.002-0.302-0.107-0.475-0.335-0.475c-0.161,0.002-0.277,0.119-0.333,0.252c-0.006,0.041-0.019,0.09-0.02,0.138l0.006,0.948
							l-0.272,0.002l-0.003-0.918c-0.001-0.243-0.11-0.417-0.324-0.416c-0.171-0.001-0.301,0.141-0.344,0.277
							c-0.014,0.04-0.018,0.085-0.018,0.138l0.005,0.92l-0.276,0.004L159.919,214.594z"/>
						<path fill="#F4F5F5" d="M164.206,213.731c0.001,0.091-0.064,0.17-0.179,0.17c-0.104,0-0.169-0.079-0.169-0.169
							c-0.001-0.095,0.074-0.176,0.172-0.175C164.137,213.556,164.206,213.634,164.206,213.731z M163.902,215.691l-0.009-1.526
							l0.281-0.002l0.008,1.528H163.902L163.902,215.691z"/>
						<path fill="#F4F5F5" d="M164.64,214.656c-0.001-0.193-0.009-0.35-0.017-0.495l0.244-0.004l0.02,0.263h0.011
							c0.104-0.188,0.287-0.296,0.54-0.298c0.368-0.001,0.651,0.312,0.653,0.771c0.002,0.552-0.326,0.829-0.699,0.83
							c-0.198,0-0.379-0.09-0.468-0.243l-0.006,0.003l0.004,0.826l-0.274,0.002L164.64,214.656z M164.915,215.062
							c0.003,0.041,0.002,0.077,0.016,0.114c0.05,0.195,0.219,0.323,0.417,0.321c0.299-0.001,0.464-0.237,0.462-0.595
							c-0.002-0.303-0.161-0.563-0.457-0.562c-0.189,0.003-0.368,0.138-0.421,0.342c-0.01,0.038-0.018,0.081-0.017,0.116V215.062
							L164.915,215.062z"/>
						<path fill="#F4F5F5" d="M166.405,215.399c0.083,0.051,0.23,0.105,0.368,0.104c0.202,0,0.295-0.101,0.293-0.228
							c0-0.134-0.08-0.203-0.28-0.274c-0.279-0.105-0.405-0.247-0.408-0.431c-0.002-0.248,0.196-0.453,0.521-0.457
							c0.157,0,0.292,0.04,0.375,0.094l-0.068,0.206c-0.057-0.044-0.173-0.094-0.309-0.094c-0.165,0.003-0.251,0.097-0.253,0.213
							c0.003,0.127,0.089,0.181,0.283,0.261c0.268,0.097,0.407,0.228,0.408,0.459c0,0.266-0.209,0.464-0.567,0.465
							c-0.173,0.003-0.327-0.048-0.428-0.108L166.405,215.399z"/>
						<path fill="#F4F5F5" d="M168.972,215.243c0.002,0.16,0.002,0.304,0.011,0.424h-0.247l-0.014-0.255l0,0
							c-0.072,0.13-0.238,0.295-0.512,0.296c-0.235,0.002-0.527-0.139-0.53-0.672l-0.005-0.894h0.28l0.006,0.84
							c0.001,0.295,0.09,0.494,0.346,0.492c0.186-0.002,0.313-0.136,0.363-0.264c0.013-0.034,0.02-0.083,0.02-0.138l-0.004-0.936
							l0.281-0.003L168.972,215.243z"/>
						<path fill="#F4F5F5" d="M169.431,214.544c-0.002-0.16-0.014-0.286-0.016-0.409l0.244-0.002l0.015,0.251l0.008-0.002
							c0.083-0.146,0.224-0.285,0.479-0.285c0.207-0.001,0.372,0.123,0.432,0.303h0.005c0.05-0.089,0.108-0.15,0.173-0.197
							c0.093-0.068,0.194-0.109,0.334-0.109c0.208-0.002,0.513,0.128,0.514,0.66l0.004,0.897l-0.271,0.003l-0.004-0.86
							c0-0.299-0.113-0.474-0.337-0.47c-0.16-0.002-0.276,0.116-0.331,0.246c-0.009,0.043-0.021,0.094-0.021,0.143l0.005,0.946
							l-0.272,0.001l-0.004-0.916c-0.003-0.243-0.104-0.419-0.321-0.417c-0.173,0.002-0.298,0.14-0.346,0.279
							c-0.013,0.037-0.021,0.085-0.021,0.136l0.004,0.921l-0.267,0.001L169.431,214.544z"/>
					</g>
				</g>
			</g>
			<g>
				<g>
					<polygon id="XMLID_42_" fill="#2B2726" points="219.984,93.334 219.986,92.288 308.8,92.838 308.797,93.886 					"/>
					<polygon id="XMLID_41_" fill="#EBA920" points="236.383,90.501 224.828,90.431 224.956,49.649 236.51,49.72 					"/>
					<polygon id="XMLID_40_" fill="#EBA920" points="254.245,90.612 242.69,90.542 242.835,44.613 254.39,44.682 					"/>
					<polygon id="XMLID_39_" fill="#EBA920" points="272.106,90.725 260.552,90.651 260.717,38.377 272.271,38.45 					"/>
					<polygon id="XMLID_38_" fill="#EBA920" points="289.969,90.833 278.416,90.762 278.596,33.652 290.149,33.723 					"/>
					<polygon id="XMLID_37_" fill="#EBA920" points="307.832,90.943 296.278,90.875 296.483,25.845 308.037,25.916 					"/>
					
						<rect id="XMLID_36_" x="220.091" y="30.675" transform="matrix(-1 -0.0062 0.0062 -1 440.7308 124.8558)" fill="#2B2726" width="0.938" height="62.129"/>
					<g id="XMLID_34_">
						<path id="XMLID_35_" fill="#771817" d="M224.681,63.159l0.005-0.951l-0.229-0.936c0.869-0.231,15.642-6.074,25.385-9.945
							l0.157-0.071l14.607,1.516l25.756-11.168l14.037-3.288l0.347,1.863l-13.9,3.241l-26.001,11.288l-14.572-1.518
							C225.182,63.163,224.681,63.159,224.681,63.159z"/>
					</g>
					<polygon id="XMLID_33_" fill="#EBA920" points="227.457,172.125 222.92,172.098 223.046,132.321 227.581,132.35 					"/>
					<polygon id="XMLID_32_" fill="#EE4232" points="232.616,172.16 228.08,172.13 228.187,138.057 232.724,138.086 					"/>
					<polygon id="XMLID_31_" fill="#EBA920" points="241.492,172.215 236.955,172.187 237.118,120.203 241.656,120.234 					"/>
					<polygon id="XMLID_30_" fill="#EE4232" points="246.65,172.247 242.114,172.219 242.25,129.272 246.786,129.298 					"/>
					<polygon id="XMLID_29_" fill="#EBA920" points="255.525,172.3 250.99,172.274 251.12,131.226 255.654,131.254 					"/>
					<polygon id="XMLID_28_" fill="#EE4232" points="260.687,172.335 256.15,172.304 256.284,129.99 260.82,130.019 					"/>
					<polygon id="XMLID_27_" fill="#EBA920" points="269.561,172.389 265.025,172.362 265.167,127.67 269.702,127.696 					"/>
					<polygon id="XMLID_26_" fill="#EE4232" points="274.722,172.421 270.185,172.393 270.331,125.8 274.869,125.829 					"/>
					<polygon id="XMLID_25_" fill="#EBA920" points="283.596,172.478 279.062,172.448 279.183,133.779 283.717,133.808 					"/>
					<polygon id="XMLID_24_" fill="#EE4232" points="288.757,172.507 284.218,172.479 284.378,121.804 288.916,121.833 					"/>
					<polygon id="XMLID_23_" fill="#EBA920" points="297.631,172.564 293.096,172.534 293.198,139.73 297.733,139.756 					"/>
					<polygon id="XMLID_22_" fill="#EE4232" points="302.79,172.596 298.254,172.566 298.419,119.476 302.957,119.507 					"/>
				</g>
			</g>
			<g>
				<path fill="#3B2517" d="M387.189,102.944c2.823-0.229,5.165-1.442,7.013-3.613c1.847-2.184,2.655-4.686,2.421-7.525
					l-3.063-37.071l-27.557,2.279l3.915,47.359L387.189,102.944z"/>
				<g>
					<path fill="#EB7069" d="M389.667,150.65c1.9-1.876,2.833-4.14,2.788-6.788c-0.037-2.632-0.97-4.905-2.789-6.809
						c-1.879-1.898-4.106-2.826-6.687-2.785l-8.502,2.896c-6.74,1.926-12.696,2.808-17.863,2.626
						c-5.171-0.121-10.594-1.357-16.28-3.704c-2.847-1.206-5.148-2.385-6.921-3.531l-1.352,19.157
						c2.015,1.005,4.533,2.05,7.559,3.115c6.177,2.129,11.905,3.279,17.208,3.46c5.3,0.169,11.226-0.592,17.793-2.254l8.335-2.508
						C385.601,153.481,387.837,152.526,389.667,150.65z"/>
				</g>
				<path fill="#3B2517" d="M434.118,85.766c1.698-3.935,2.61-7.819,2.742-11.624c0.198-4.58-0.807-8.329-3.018-11.247
					c-1.99,4.284-5.521,8.692-10.592,13.221c-4.95,4.399-9.644,7.419-14.075,9.056l-2.21,12.34c4.203,0.22,8.102-0.063,11.711-0.871
					c3.916-0.891,6.985-2.032,9.211-3.415C430.661,91.468,432.739,88.992,434.118,85.766z"/>
				<path fill="#EB7069" d="M382.399,152.234l-2.694,10.846c-1.127,4.479-0.811,8.844,0.931,13.083
					c1.644,4.163,4.257,7.435,7.846,9.828l2.439,13.268l3.658,44.28l56.875-10.683l2.105-103.11l-38.537-13.726l-35.765,19.86
					L382.399,152.234z"/>
				<g>
					<path fill="#F7C28D" d="M424.36,89.846c-0.148-2.584-1.179-4.719-3.09-6.396c-1.915-1.684-4.14-2.475-6.657-2.395
						c-2.584,0.147-4.716,1.182-6.397,3.096c-1.673,1.914-2.469,4.126-2.391,6.656l1.525,31.019
						c0.146,2.519,1.175,4.654,3.093,6.396c1.854,1.739,4.07,2.537,6.653,2.39c2.527-0.077,4.659-1.077,6.403-2.993
						c1.739-1.914,2.539-4.168,2.381-6.75L424.36,89.846z"/>
				</g>
				<path fill="#F7C28D" d="M370.953,39.969c-1.762,4.638-2.431,9.641-1.984,14.985l0.917,12.271
					c0.724,8.812,1.286,14.775,1.666,17.921c1.087,7.758,3.13,13.669,6.125,17.729c2.785,3.826,7.123,6.853,13.005,9.098
					c11.642-0.967,21.494-5.457,29.574-13.465c7.781-7.74,11.277-15.979,10.502-24.712l-2.084-24.054
					c-0.438-5.293-2.103-10.056-4.982-14.31L370.953,39.969z"/>
				<g>
					<path fill="#F4F5F5" d="M380.888,94.313c0.565,2.296,1.827,4.159,3.785,5.576c1.886,1.428,4.062,2.066,6.517,1.926
						c2.39-0.192,4.434-1.155,6.124-2.88c1.694-1.724,2.664-3.768,2.912-6.121L380.888,94.313z"/>
				</g>
				<path fill="#3B2517" d="M376.271,30.697c-8.281,3.983-12.983,8.733-14.11,14.278c-0.653,3.603-0.437,7.002,0.65,10.213
					c1.239,3.504,3.444,6.395,6.604,8.659c0.918-4.248,3.229-8.91,6.925-13.965c3.586-4.92,7.246-8.546,10.973-10.878l-0.558-11.457
					C383.06,28.05,379.563,29.096,376.271,30.697z"/>
				<path fill="#5C351F" d="M441.304,50.792c-0.755-7.598-3.891-14.051-9.393-19.366c-5.437-5.25-11.989-8.321-19.661-9.204
					c-6.263-0.687-12.829-0.016-19.688,2.006c-5.077,1.431-11.235,3.964-18.469,7.604c1.312,2.116,3.341,5.171,6.076,9.189
					c4.05,6.128,9.4,11.446,16.042,15.966c6.437,4.282,13.542,7.495,21.315,9.64l0.392,3.577c0.127,1.503,0.731,2.754,1.829,3.738
					c1.149,0.916,2.451,1.321,3.898,1.197l8.772-0.727l6.355-5.848C440.8,60.043,441.635,54.115,441.304,50.792z"/>
				<path fill="#1C193D" d="M399.773,72.975c0.546,0.527,1.199,0.766,1.955,0.707c0.755-0.071,1.392-0.414,1.91-1.021
					c0.46-0.54,0.661-1.226,0.593-2.049c-0.062-0.754-0.364-1.361-0.913-1.821c-0.612-0.521-1.289-0.751-2.049-0.694
					c-0.755,0.068-1.363,0.406-1.818,1.013c-0.516,0.553-0.761,1.203-0.691,1.959C398.827,71.881,399.164,72.521,399.773,72.975z"/>
				<path fill="#1C193D" d="M377.323,74.079c0.545,0.527,1.198,0.763,1.956,0.698c0.746-0.061,1.389-0.401,1.909-1.013
					c0.455-0.546,0.661-1.226,0.588-2.039c-0.061-0.761-0.373-1.368-0.913-1.829c-0.612-0.517-1.296-0.756-2.049-0.689
					c-0.755,0.062-1.362,0.401-1.819,1.012c-0.521,0.551-0.759,1.203-0.69,1.958C376.376,72.982,376.707,73.626,377.323,74.079z"/>
				<path fill="#F8AC8C" d="M425.367,66.065c-1.557,1.841-2.241,3.963-2.034,6.352L424.035,81l8.584-0.711
					c2.394-0.198,4.339-1.217,5.831-3.038c1.567-1.775,2.243-3.87,2.049-6.256c-0.188-2.394-1.215-4.37-3.05-5.929
					c-1.775-1.559-3.861-2.248-6.254-2.041C428.807,63.218,426.861,64.236,425.367,66.065z"/>
				<path fill="#FBB224" d="M393.146,226.28l-2.586,38.973c-0.082,6.689,2.208,12.431,6.878,17.229
					c4.614,4.795,10.266,7.234,16.955,7.323l26.507,0.339c8.896,0.112,14.621-0.629,17.166-2.243
					c4.837-3.031,7.304-10.256,7.38-21.678c0.078-10.728-2.229-20.452-6.911-29.162l-7.07-9.937L393.146,226.28z"/>
				<path fill="#5C351F" d="M413.746,53.058l3.915,47.372L434.932,99c2.824-0.234,5.166-1.438,7.014-3.619
					c1.85-2.178,2.653-4.688,2.416-7.517l-3.058-37.081L413.746,53.058z"/>
				<g>
					<path fill="#EB7069" d="M437.741,132.734c-0.576,2.157-0.535,4.559,0.157,7.184c0.239,0.983,0.593,1.893,1.047,2.749
						l0.815,1.032l1.062,0.859l1.712,1.05c1.422,0.948,2.87,2.11,4.36,3.502c3.687,3.146,7.87,7.791,12.556,13.934
						c3.252,4.079,7.138,9.477,11.665,16.191l5.264,7.681l15.993-10.705l-5.288-7.773c-3.747-5.707-7.884-11.462-12.396-17.261
						c-4.956-6.58-9.935-12.102-14.955-16.56c-2.001-1.757-4.092-3.379-6.271-4.892l-2.729-1.719l-1.978-0.976
						c-0.519-0.166-1.254-0.306-2.214-0.401c-1.49-0.131-2.86,0.028-4.109,0.483C439.958,128.081,438.399,129.955,437.741,132.734z"
						/>
				</g>
				<g>
					<path fill="#F7A585" d="M436.094,500.652C435.605,499.943,434.381,501.297,436.094,500.652c2.132-0.808,0.55-2.794,1.452-2.637
						c2.858-5.272,6.137-12.131,7.578-18.096c2.996-12.226-4.344-56.567-5.472-64.479c-0.578-4.007-2.386-29.081-4.096-47.915
						c-0.161-0.836-0.263-1.695-0.263-2.583c0-6.623,4.937-11.979,11.022-11.979c6.092,0,11.025,5.354,11.025,11.979
						c0,0.768-0.072,1.525-0.201,2.251l0.378,0.022c-0.44,5.268,0.063,10.177,0.872,11.982c3.337,7.414,7.063,22.297,5.967,38.729
						l-4.874,50.733c0.05,0.027,0.073,0.064,0.11,0.1c0.679,0.78,1.446,0.813,1.196,3.044l1.979,4.771l-4.83,6.227
						c-2.074,9.761-2.226,23.323-14.55,22.076l-0.137,0.214l-5.955,1.832l-2.866-0.435l-1.965,0.181
						C432.469,506.671,434.031,504.267,436.094,500.652z"/>
					<path fill="#733A21" d="M427.771,504.412c3.128-2.716,9.496-5.951,9.496-5.951s6.678,8.455,12.705,0.786
						c5.883-7.484,3.156-15.47,8.312-23.872c2.803-4.584,1.274-6.441,1.214-7.075c2.563,0.97,7.363,4.027,5.185,13.013l-0.262,0.455
						l-1.364,24.54h-1.854l-0.634-18.67c-1.01,0.723-3.081,3.282-4.542,12.439c-1.305,8.233-7.652,8.664-7.652,8.664
						s-15.188,0.73-20.273-1.089C428.1,507.653,424.634,507.119,427.771,504.412z"/>
				</g>
				<g>
					<path fill="#F7A585" d="M384.022,498.375c0.244-0.22,0.474-0.448,0.604-0.728c0.248-0.51,0.033-1.165,0.301-1.642
						c1.491-2.61,3.572-5.147,5.068-7.913c1.722-3.175,3.313-6.467,4.433-9.937c3.927-11.987,0.005-56.704-0.524-64.658
						c-0.267-4.035-0.158-29.163-0.415-48.045c-0.098-0.839-0.135-1.702-0.069-2.597c0.511-6.587,5.842-11.601,11.927-11.188
						c6.075,0.411,10.587,6.106,10.08,12.699c-0.066,0.763-0.188,1.517-0.369,2.239l0.37,0.04
						c-0.846,5.215-0.719,10.146-0.041,12.009c2.753,7.617,5.336,22.704,2.979,39.01l-10.313,45.47l1.581,4.786
						c0.034,0.022,0.072,0.057,0.099,0.101c0.615,0.827,1.383,0.909,0.953,3.104l1.621,4.89l-5.299,5.888
						c-2.804,9.59-4.013,23.099-16.197,21.006l-0.155,0.222l-6.083,1.403l-2.829-0.63l-1.978,0.05
						c0.812-0.032,1.939-2.235,2.322-2.846c0.401-0.617,0.73-1.356,1.162-1.959C383.444,498.865,383.745,498.628,384.022,498.375z"
						/>
					<path fill="#733A21" d="M375.241,501.389c3.336-2.489,9.931-5.295,9.931-5.295s6.018,8.895,12.625,1.652
						c6.438-7.05,4.335-15.198,10.112-23.229c3.159-4.367,1.772-6.342,1.764-6.973c2.481,1.15,7.04,4.522,4.179,13.321l-0.302,0.447
						l-3.236,24.376l-1.853-0.14l0.787-18.643c-1.038,0.648-3.315,3.049-5.474,12.09c-1.938,8.111-8.3,8.098-8.3,8.098
						s-15.218-0.292-20.152-2.458C375.323,504.638,371.91,503.863,375.241,501.389z"/>
				</g>
				<polygon fill="#FBB224" points="381.923,384.781 467.722,384.781 463.893,258.211 391.436,260.74 				"/>
				<g>
					<path fill="#F7A585" d="M475.412,237.519c0,0-3.902,7.908-3.298,15.004c0,0-0.64,3.451-1.797,5.256c0,0,4.354,0.752,5.05-3.339
						c0,0-0.652-4.858,3.515-6.527c0,0,3.396-3.354,3.529-7.175c0.136-3.825-1.442-5.633-2.782-6.376
						C479.629,234.362,476.531,235.088,475.412,237.519z"/>
					<g>
						<path fill="#F7A585" d="M479.775,256.282c-0.375-1.391,0.139-2.72,1.152-2.968l0,0c1.012-0.238,2.135,0.68,2.52,2.074
							l2.951,10.901c0.383,1.395-0.132,2.716-1.145,2.967l0,0c-1.02,0.242-2.133-0.682-2.517-2.066L479.775,256.282z"/>
						<path fill="#F7A585" d="M483.786,253.382c-0.42-1.545,0.06-2.999,1.075-3.243l0,0c1.011-0.249,2.17,0.802,2.594,2.354
							l3.296,12.132c0.424,1.547-0.061,3.006-1.072,3.255l0,0c-1.012,0.241-2.171-0.809-2.591-2.355L483.786,253.382z"/>
						<path fill="#F7A585" d="M487.478,251.212c-0.32-1.192,0.233-2.361,1.24-2.615l0,0c1.019-0.247,2.097,0.53,2.426,1.732
							l2.561,9.416c0.319,1.202-0.233,2.372-1.244,2.617l0,0c-1.015,0.249-2.101-0.522-2.425-1.724L487.478,251.212z"/>
						<path fill="#F7A585" d="M490.335,246.816c-0.271-0.992,0.335-1.987,1.351-2.233l0,0c1.02-0.251,2.048,0.352,2.317,1.34
							l2.109,7.76c0.266,0.989-0.337,1.991-1.354,2.236l0,0c-1.005,0.248-2.041-0.354-2.315-1.34L490.335,246.816z"/>
					</g>
					<path fill="#F7C28D" d="M475.412,237.519c0,0,2.01-4.447,3.219-7.504c0.479-1.204,2.13-7.733,2.693-10.202l0.021,0.005
						c-0.863-4.936-3.265-22.381-4.429-33.62c-0.268-0.747-0.455-1.538-0.548-2.358c-0.625-5.422,3.029-10.103,8.162-10.447
						c5.131-0.357,9.809,3.75,10.436,9.174c0.146,1.264,0.05,2.481-0.229,3.617c-0.226,10.149-2.613,28.614-3.531,35.455l0.02-0.001
						c-0.05,0.332-0.104,10.493-0.104,10.493s0,0,0.578,3.111c0.57,3.11,2.694,9.256,2.229,11.835
						c-0.471,2.585-13.022,11.93-13.022,11.93C477.378,253.078,475.412,237.519,475.412,237.519z"/>
				</g>
				<g>
					<path fill="#F7C28D" d="M284.06,110.162c0,0-5.9-6.847-12.717-9.044c0,0-2.972-1.958-4.214-3.781c0,0-2.313,3.896,1.229,6.164
						c0,0,4.759,1.271,4.766,5.938c0,0,1.854,4.579,5.355,6.2c3.507,1.625,5.771,0.815,6.955-0.188
						C285.434,115.451,285.9,112.193,284.06,110.162z"/>
					<g>
						<path fill="#F7C28D" d="M265.019,107.023c1.429,0.185,2.474,1.19,2.323,2.257l0,0c-0.147,1.073-1.421,1.796-2.857,1.617
							l-11.22-1.423c-1.438-0.174-2.474-1.194-2.333-2.256l0,0c0.148-1.079,1.418-1.792,2.849-1.613L265.019,107.023z"/>
						<path fill="#F7C28D" d="M266.225,112.015c1.588,0.201,2.764,1.23,2.615,2.304l0,0c-0.145,1.066-1.552,1.771-3.149,1.574
							l-12.497-1.577c-1.586-0.205-2.765-1.234-2.617-2.309l0,0c0.149-1.065,1.548-1.771,3.144-1.57L266.225,112.015z"/>
						<path fill="#F7C28D" d="M266.873,116.413c1.229,0.154,2.108,1.154,1.966,2.219l0,0c-0.145,1.074-1.267,1.808-2.5,1.655
							l-9.697-1.223c-1.239-0.159-2.121-1.153-1.975-2.223l0,0c0.144-1.07,1.264-1.811,2.5-1.657L266.873,116.413z"/>
						<path fill="#F7C28D" d="M269.9,120.887c1.021,0.124,1.722,1.096,1.578,2.171l0,0c-0.146,1.071-1.088,1.832-2.108,1.704
							l-7.987-1.009c-1.021-0.134-1.727-1.106-1.579-2.174l0,0c0.147-1.066,1.088-1.83,2.104-1.702L269.9,120.887z"/>
					</g>
					<path fill="#F7C28D" d="M284.06,110.162c0,0,3.387,3.676,5.782,6.036c0.943,0.931,6.393,5.071,8.486,6.579l-0.015,0.021
						c4.901,1.103,21.998,5.616,32.869,8.895c0.797,0.034,1.603,0.167,2.399,0.397c5.27,1.519,8.26,6.863,6.684,11.939
						c-1.572,5.076-7.123,7.969-12.391,6.451c-1.229-0.354-2.323-0.919-3.279-1.639c-9.338-4.188-25.611-13.707-31.625-17.268
						l-0.012,0.016c-0.286-0.176-9.707-4.201-9.707-4.201s0,0-3.11-0.668c-3.099-0.668-9.599-1.025-11.821-2.482
						c-2.221-1.465-6.258-17.199-6.258-17.199C268.88,105.968,284.06,110.162,284.06,110.162z"/>
				</g>
				<path fill="#F69771" d="M381.335,83.933c0,1.595-1.935,2.896-4.306,2.896c-2.382,0-4.303-1.302-4.303-2.896
					c0-1.59,1.921-2.883,4.303-2.883C379.401,81.05,381.335,82.343,381.335,83.933z"/>
				<path fill="#F69771" d="M408.512,83.933c0,1.595-2.345,2.896-5.229,2.896c-2.893,0-5.244-1.302-5.244-2.896
					c0-1.59,2.353-2.883,5.244-2.883C406.167,81.05,408.512,82.343,408.512,83.933z"/>
			</g>
		</g>
	</g>
</g>
</svg>
