<?xml version="1.0" encoding="utf-8"?>
<!-- Generator: Adobe Illustrator 15.1.0, SVG Export Plug-In . SVG Version: 6.00 Build 0)  -->
<!DOCTYPE svg PUBLIC "-//W3C//DTD SVG 1.1//EN" "http://www.w3.org/Graphics/SVG/1.1/DTD/svg11.dtd">
<svg version="1.1" id="Layer_1" xmlns="http://www.w3.org/2000/svg" xmlns:xlink="http://www.w3.org/1999/xlink" x="0px" y="0px"
	 width="168.243px" height="295.12px" viewBox="0 0 168.243 295.12" enable-background="new 0 0 168.243 295.12"
	 xml:space="preserve">
<g>
	<g>
		
			<line fill-rule="evenodd" clip-rule="evenodd" fill="none" stroke="#333333" stroke-width="0.1" stroke-linecap="round" stroke-linejoin="round" stroke-miterlimit="3" x1="14.825" y1="279.016" x2="14.825" y2="279.958"/>
		<polygon fill-rule="evenodd" clip-rule="evenodd" fill="#989865" points="40.509,252.102 147.496,252.195 147.779,252.195 
			147.779,139.634 124.171,132.836 118.697,125.565 147.779,109.039 165.722,109.039 165.25,293.271 3.113,293.271 2.453,283.45 
			19.357,283.45 19.357,272.685 19.357,269.382 40.509,269.382 40.509,257.388 		"/>
		<path fill-rule="evenodd" clip-rule="evenodd" fill="#FFCB67" d="M165.722,109.039h-17.943l-29.082,16.526l-0.756,0.377
			l10.291-8.97l18.697-11.049h19.17l-0.188,3.116H165.722z M19.357,269.382l21.152-11.994v11.994H19.357z M19.357,272.685v10.766
			H2.453L19.357,272.685z M147.496,252.195l-106.986-0.094h-1.889l14.352-5.384h94.523V252.195z"/>
	</g>
	<g>
		<g id="text_1_">
			<g>
				<g>
					<g>
						<path fill-rule="evenodd" clip-rule="evenodd" fill="#F8A88A" d="M154.878,49.531l0.576-2.171
							c0.18-0.562,0.504-1.093,0.975-1.598c0.533-0.619,1.035-1.033,1.508-1.24l6.561,3.369c-0.828,1.181-1.404,2.408-1.729,3.679
							l-0.133,0.442c-0.266,0.856-1.049,1.877-2.348,3.058l-4.301,3.59l-4.654-2.748C153.521,52.368,154.703,50.241,154.878,49.531z
							"/>
						<path fill-rule="evenodd" clip-rule="evenodd" fill="#F8A88A" d="M159.404,41.672c1.172-1.282,2.662-2.625,4.479-4.034
							c1.811-1.41,2.514-1.004,2.105,1.22l-3.68,5.009c1.713,1.299,2.57,2.259,2.57,2.88c0.029,0.592-0.164,1.153-0.578,1.685
							c-0.471,0.472-1.002,0.708-1.594,0.708c-0.65,0-1.197-0.207-1.641-0.621l-2.658-2.438c-0.475-0.472-0.725-1.004-0.754-1.595
							C157.652,43.892,158.234,42.955,159.404,41.672z"/>
						<path fill-rule="evenodd" clip-rule="evenodd" fill="#603A17" d="M91.39,2.039c3.674-0.006,6.918,1.083,9.73,3.267
							c2.906,2.194,4.729,5.085,5.471,8.674l4.994,25.172c0.271,1.361,0.031,2.583-0.719,3.667c-0.73,1.168-1.764,1.885-3.098,2.151
							l-6.869,1.363c-2.021,0.582-4.211,1.091-6.564,1.528L79.946,50.49c-1.304,0.258-2.532-0.01-3.685-0.805
							c-1.111-0.744-1.799-1.782-2.063-3.115l-4.994-25.173c-0.644-3.547-0.062-6.916,1.745-10.104
							c1.825-3.104,4.422-5.352,7.791-6.742c1.483-0.566,2.982-0.983,4.496-1.254l-0.287-0.078
							c-0.446-0.124,0.104-0.157,1.652-0.103l0.85-0.033l-0.025-0.13c1.357-0.602,1.879-0.779,1.566-0.538l-0.279,0.19
							C88.214,2.277,89.773,2.088,91.39,2.039z"/>
						<path fill-rule="evenodd" clip-rule="evenodd" fill="#F8AE90" d="M79.001,32.798l-1.372-6.913
							c9.44-4.292,17.53-9.753,24.268-16.382c1.445,1.973,2.41,4.175,2.895,6.611l1.182,5.73c0.719,3.623,1.244,6.426,1.576,8.408
							c0.518,3.664,0.352,6.633-0.492,8.909c-0.762,2.079-2.35,4.02-4.762,5.825c-5.449,1.081-10.539,0.329-15.27-2.257
							C82.458,40.201,79.784,36.891,79.001,32.798z"/>
						<path fill-rule="evenodd" clip-rule="evenodd" fill="#F8AE90" d="M77.589,28.849c1.101-0.217,2.122-0.015,3.06,0.614
							c0.949,0.685,1.531,1.563,1.743,2.636l0.802,4.043l-4,0.793c-1.159,0.231-2.181,0.011-3.066-0.655
							c-0.955-0.563-1.548-1.425-1.778-2.585c-0.219-1.102-0.002-2.139,0.648-3.111C75.595,29.651,76.459,29.074,77.589,28.849z"/>
						<g>
							<path fill-rule="evenodd" clip-rule="evenodd" fill="#F8A88A" d="M52.404,119.077c-0.111-0.443,0.288-1.313,0.266-2.904
								c0.266-2.927,1.992-6.987,3.587-11.292c0.591-1.647,2.107-5.362,4.544-11.146l2.157-5.081l-6.309-2.725l-2.189,5.119
								c-2.381,5.613-3.923,9.437-4.624,11.473c-1.819,4.993-2.882,9.238-3.191,12.74c-0.075,2.123,0.023,3.757,0.291,4.899
								l0.343,1.469l0.224,0.516c0.252,0.691,0.57,1.199,0.956,1.521c0.516,0.432,0.991,0.697,1.428,0.802
								c0.905,0.277,0.964,0.805,1.751,0.023c0.458-0.494,0-0.745,0.415-1.708"/>
							<path fill-rule="evenodd" clip-rule="evenodd" fill="#D05A39" d="M70.73,62.3l2.071-1.699l1.081-0.353
								c0.71-0.175,1.382-0.198,2.017-0.073c1.326,0.29,2.234,1.095,2.722,2.412c0.447,0.969,0.615,2.145,0.502,3.528
								c-0.095,0.64-0.195,1.106-0.302,1.402l-0.369,0.598l-0.446,0.496l-0.748,0.635c-0.728,0.7-1.343,1.387-1.847,2.058
								c-1.502,1.737-3.209,4.315-5.116,7.733c-1.447,2.617-2.943,5.567-4.49,8.854l-1.968,4.141l-8.642-4.039l1.976-4.186
								c1.414-3.025,3-6.165,4.761-9.419c1.885-3.485,3.914-6.559,6.083-9.223C69.034,63.977,69.938,63.022,70.73,62.3z"/>
						</g>
						<path fill-rule="evenodd" clip-rule="evenodd" fill="#F8A88A" d="M47.067,125.002c-1.355,0-2.756-0.116-4.201-0.347
							c-1.445-0.229-2.169-1.022-2.17-2.377c0.001-1.355,0.725-2.901,2.17-4.641c1.444-1.74,2.846-2.608,4.201-2.608
							c1.385,0.001,2.548,1.247,3.486,3.74c0.939,2.492,4.643,7.357,4.643,8.744c0,1.385-1.453,1.9-2.423,1.347
							C51.803,128.305,48.392,125.002,47.067,125.002z"/>
						<path fill-rule="evenodd" clip-rule="evenodd" fill="#F8A88A" d="M47.299,120.254c0.856,0.503,1.417,1.271,1.684,2.305
							c-1.264,2.335-3.119,4.958-5.563,7.866c-0.058,0.182-1.462,1.156-4.211,2.926c-2.755,1.763-3.332-0.203-1.729-5.895
							c1.607-5.688,3.432-8.443,5.474-8.267C44.998,119.367,46.445,119.722,47.299,120.254z"/>
						<path fill-rule="evenodd" clip-rule="evenodd" fill="#D05A39" d="M110.626,76.007c-0.809,2.449-2.791,5.021-5.945,7.717
							l-2.057,8.192c-0.061,0.198-0.123,0.397-0.189,0.601c-1.457,5.054-2.164,10.41-2.119,16.067l-9.869,0.886l-17.205-1.012
							L72.42,61.143c2.108-2.446,6.22-2.572,12.335-0.379c6.109,2.194,12.107,1.952,17.996-0.728
							C108.646,57.351,111.273,62.674,110.626,76.007z"/>
						<g>
							<g>
								<path fill-rule="evenodd" clip-rule="evenodd" fill="#F8A88A" d="M159.49,50.816c0.648,0.563,0.975,1.301,0.975,2.217
									c0.059,0.857-0.191,1.58-0.754,2.171l-4.432,4.654c-2.896,3.162-6.162,6.471-9.795,9.929l-3.369,3.28
									c-2.719,2.6-5.082,2.054-7.092-1.641c2.305-2.039,4.418-4.062,6.338-6.072c4.285-4.047,8.924-8.761,13.918-14.139
									c0.473-0.649,1.121-1.019,1.949-1.108C158.146,50.107,158.898,50.344,159.49,50.816z"/>
							</g>
							<polygon fill-rule="evenodd" clip-rule="evenodd" fill="#F8A88A" points="139.234,68.723 139.234,74.928 127.888,72.136 
								129.439,66.286 							"/>
							<path fill-rule="evenodd" clip-rule="evenodd" fill="#D05A39" d="M102.845,66.418c-0.592-1.153-0.664-2.319-0.221-3.501
								c0.412-1.182,1.166-2.068,2.26-2.659c1.152-0.562,2.305-0.649,3.457-0.265l11.348,3.5c3.279,0.976,7.076,2.009,11.391,3.103
								l-2.262,8.864c-4.078-1.033-7.992-2.098-11.746-3.189l-11.611-3.546C104.279,68.28,103.406,67.512,102.845,66.418z"/>
						</g>
						<g>
							<path fill-rule="evenodd" clip-rule="evenodd" fill="#F8AE90" d="M94.406,65.894l-18.216-6.427l9.085-2.349V40.852
								c-0.027-1.21,0.371-2.26,1.197-3.146c0.887-0.887,1.906-1.344,3.059-1.374c1.27-0.03,2.32,0.37,3.146,1.197
								c0.857,0.827,1.33,1.846,1.418,3.058l0.799,16.133l10.416,2.482L94.406,65.894z"/>
						</g>
						<g>
							<path fill-rule="evenodd" clip-rule="evenodd" fill="#F0B394" d="M88.082,182.902c0.557-1.427,0.531-3.617-0.072-6.575
								l0.277-0.06l-0.193-1.23c-0.133-1.784,0.373-3.354,1.521-4.705c1.068-1.376,2.506-2.172,4.314-2.388
								c1.781-0.133,3.391,0.389,4.826,1.56c1.434,1.169,2.219,2.649,2.352,4.433l0.039,1.323
								c-0.119,6.96-0.154,15.737-0.109,26.325c-0.043,1.476-0.375,7.111-0.992,16.911c-0.328,9.704-0.025,15.903,0.914,18.604
								c1.016,2.721,2.838,5.873,5.461,9.462c0.658-0.174,1.076-0.104,1.256,0.204c0.119,0.207,0.02,0.575-0.295,1.103l2.469,3.021
								l-1.201,0.072l-1.664,0.341l-3.646-0.584l-0.088-0.155c-3.043,0.584-5.34-0.472-6.891-3.157
								c-0.096-0.289-1.035-2.99-2.813-8.101l-3.234-3.096l0.998-2.748c-0.113-0.553,0.08-1.114,0.582-1.678l0.033-0.124
								l0.965-2.626l-6.338-24.776c-0.668-4.025-0.783-8.164-0.342-12.417C86.535,188.346,87.158,185.366,88.082,182.902z"/>
							<path fill-rule="evenodd" clip-rule="evenodd" fill="#3B2416" d="M92.708,231.583c0.047,0.166-0.006,0.534-0.158,1.104
								c0.029,0.803,0.4,1.697,1.115,2.683c1.086,1.424,2.025,3.633,2.813,6.627c0.627,2.799,1.604,4.864,2.928,6.197
								c1.635,1.664,3.381,1.992,5.24,0.994c0.998-0.528,1.785-1.188,2.365-1.981l2.209,1.003c1.541,0.751,2.729,1.403,3.557,1.964
								c1.318,0.901,1.287,1.476-0.092,1.718c-1.162,0.455-3.523,0.815-7.082,1.085l-4.939,0.282
								c-0.609-0.011-1.264-0.187-1.969-0.527c-1.449-0.756-2.412-2.067-2.889-3.94c-0.939-3.922-1.955-6.121-3.051-6.598
								l0.26,10.163l-1.088,0.121l-1.668-13.294l-0.189-0.323C88.853,235.292,89.734,232.865,92.708,231.583z"/>
						</g>
						<g>
							<path fill-rule="evenodd" clip-rule="evenodd" fill="#F0B394" d="M59.634,180.717c0.907-1.234,1.449-3.357,1.63-6.371
								l0.283,0.015l0.132-1.238c0.332-1.76,1.229-3.146,2.688-4.154c1.387-1.053,2.982-1.449,4.784-1.191
								c1.757,0.332,3.176,1.253,4.262,2.756c1.081,1.5,1.456,3.131,1.124,4.891l-0.302,1.287
								c-1.915,6.693-4.219,15.167-6.916,25.408c-0.423,1.411-2.202,6.773-5.331,16.085c-2.828,9.287-4.136,15.355-3.929,18.208
								c0.28,2.891,1.223,6.409,2.831,10.554c0.68,0.005,1.065,0.178,1.16,0.526c0.062,0.229-0.13,0.558-0.57,0.985l1.603,3.558
								l-1.178-0.241l-1.696-0.102l-3.372-1.505l-0.047-0.173c-3.089-0.225-5.037-1.836-5.84-4.833
								c-0.019-0.307-0.228-3.155-0.623-8.553l-2.325-3.827l1.675-2.399c0.035-0.563,0.365-1.055,0.997-1.47l0.064-0.112
								l1.611-2.284l0.283-25.58c0.396-4.063,1.356-8.091,2.882-12.086C56.733,185.575,58.105,182.857,59.634,180.717z"/>
							<g id="XMLID_1_">
								<g>
									<path fill="#3B2416" d="M65.546,251.979c1.04,1.21,0.86,1.76-0.53,1.64c-1.24,0.13-3.62-0.13-7.12-0.79l-4.85-1
										c-0.58-0.17-1.17-0.51-1.76-1.02c-1.21-1.101-1.8-2.62-1.78-4.55c0.11-4.03-0.3-6.42-1.24-7.16l-2.37,9.88l-1.09-0.17
										l1.83-13.271l-0.1-0.359c-0.25-3.76,1.23-5.88,4.43-6.351c0.01,0.17-0.14,0.521-0.44,1.03c-0.18,0.78-0.05,1.74,0.39,2.88
										c0.68,1.66,1.01,4.03,1,7.13c-0.12,2.86,0.29,5.11,1.23,6.74c1.14,2.03,2.75,2.8,4.8,2.32c1.1-0.26,2.03-0.69,2.8-1.311
										l1.87,1.54C63.916,250.288,64.886,251.229,65.546,251.979z"/>
								</g>
								<g>
								</g>
							</g>
						</g>
						<g>
							<path fill-rule="evenodd" clip-rule="evenodd" fill="#893C41" d="M100.378,108.648l5.947,60.599
								c-15.689,6.959-33.738,6.074-54.148-2.656l21.38-58.512C80.895,108.99,89.835,109.18,100.378,108.648z"/>
						</g>
					</g>
				</g>
				<g>
					<path fill-rule="evenodd" clip-rule="evenodd" fill="#FBF8CD" d="M98.48,67.088c-1.012-0.632-2.043-1.371-3.1-2.213
						c1.301-0.719,3.113-1.731,5.441-3.037c2.332-1.307,3.828-2.34,4.492-3.1c0.479,0.204,1.184,0.857,2.119,1.96
						c0.938,1.1,1.074,2.702,0.41,4.809c-0.67,2.105-2.926,3.054-6.77,2.847C100.527,68.269,99.662,67.847,98.48,67.088z"/>
				</g>
				<g>
					<path fill-rule="evenodd" clip-rule="evenodd" fill="#FBF8CD" d="M85.347,62.425c3.229,1.123,5.521,1.891,6.877,2.305
						c-1.033,0.945-2.082,1.788-3.148,2.525c-1.258,0.857-2.211,1.331-2.857,1.418c-4.488,0.651-7.424,0.045-8.812-1.816
						c-0.679-0.917-0.953-2.305-0.824-4.167c0.097-1.654,0.258-2.673,0.484-3.058C78.326,60.046,81.085,60.977,85.347,62.425z"/>
				</g>
				<g>
					<polygon fill-rule="evenodd" clip-rule="evenodd" fill="#FBF8CD" points="96.156,65.078 94.001,108.698 90.041,108.786 
						92.197,65.167 					"/>
				</g>
				<path fill-rule="evenodd" clip-rule="evenodd" d="M91.83,26.891c-0.238,0.266-0.533,0.398-0.887,0.398
					c-0.355,0-0.666-0.132-0.932-0.398c-0.236-0.237-0.354-0.532-0.354-0.887c0-0.354,0.117-0.665,0.354-0.93
					c0.266-0.237,0.576-0.354,0.932-0.354c0.354,0,0.648,0.117,0.887,0.354c0.266,0.266,0.398,0.576,0.398,0.93
					C92.228,26.358,92.095,26.654,91.83,26.891z"/>
				<path fill-rule="evenodd" clip-rule="evenodd" d="M103.847,23.475c-0.236,0.265-0.531,0.399-0.887,0.399
					c-0.354,0-0.664-0.134-0.93-0.399c-0.236-0.236-0.355-0.532-0.355-0.886s0.119-0.665,0.355-0.932
					c0.266-0.236,0.576-0.354,0.93-0.354c0.355,0,0.65,0.119,0.887,0.354c0.266,0.267,0.4,0.577,0.4,0.932
					S104.113,23.239,103.847,23.475z"/>
			</g>
		</g>
		<g id="Isolation_Mode_1_">
		</g>
	</g>
</g>
</svg>
