<?xml version="1.0" encoding="utf-8"?>
<!-- Generator: Adobe Illustrator 15.1.0, SVG Export Plug-In . SVG Version: 6.00 Build 0)  -->
<!DOCTYPE svg PUBLIC "-//W3C//DTD SVG 1.1//EN" "http://www.w3.org/Graphics/SVG/1.1/DTD/svg11.dtd">
<svg version="1.1" id="Layer_1" xmlns="http://www.w3.org/2000/svg" xmlns:xlink="http://www.w3.org/1999/xlink" x="0px" y="0px"
	 width="243.972px" height="265.525px" viewBox="0 0 243.972 265.525" enable-background="new 0 0 243.972 265.525"
	 xml:space="preserve">
<g>
	<path fill-rule="evenodd" clip-rule="evenodd" fill="#CBCB64" d="M205.661,14.991l-15.108,9.265h-11.404l15.681-9.265H205.661z
		 M198.535,129.449h-2.852l2.852-2.851V129.449z M39.852,114.034l-6.628,4.706l-1.069,0.428l-2.992,2.423
		c-3.898,2.851-7.222,4.18-9.979,3.992c-2.091-0.096-3.803-0.574-5.133-1.426l-1.426-1.141l-6.27-19.956
		C3.883,95.362,2.41,90.185,1.934,87.522c-0.378-2.47,0.574-4.562,2.851-6.272c1.236-1.045,6.559-3.659,15.966-7.84
		c9.783-4.463,15.604-6.859,17.461-7.199c1.871-0.339,3.417,0.089,4.633,1.286c1.211,1.203,3.16,7.049,5.844,17.531
		c2.667,10.462,3.761,16.521,3.28,18.174c-0.465,1.644-1.414,2.9-2.851,3.777C47.662,107.865,44.574,110.215,39.852,114.034z
		 M55.248,194.854l-8.127-0.639l-19.101-1.499c-1.236-0.094-2.422-0.473-3.563-1.139c-2.28-1.138-3.229-2.851-2.851-5.131
		c0.378-2.282,1.665-4.371,3.848-6.272c1.046-0.948,2.043-1.662,2.996-2.139l9.407-6.413l7.697-5.13
		c4.277-3.041,6.415-4.467,6.415-4.276l34.352,3.992l2.425,11.686c-5.512,6.748-9.265,11.069-11.264,12.971
		c-3.324,3.138-8.029,4.658-14.109,4.563L55.248,194.854z"/>
	<g>
		<g id="Layer_1_2_">
			<g>
				<g>
					<g>
						<g>
							<path fill-rule="evenodd" clip-rule="evenodd" fill="#93A6AD" d="M93.575,78.899c0.751-1.281,1.965-2.273,3.644-2.981
								c1.678-0.573,3.357-0.619,5.036-0.133c1.766,0.486,3.068,1.592,3.906,3.313l17.754,36.962
								c0.226,0.455,0.393,0.896,0.497,1.326l-13.049,3.511c-0.014-0.023-0.023-0.047-0.035-0.066L93.575,83.868
								C92.736,82.101,92.736,80.447,93.575,78.899z"/>
						</g>
					</g>
					<g>
						<path fill-rule="evenodd" clip-rule="evenodd" fill="#93A6AD" d="M115.687,120.926c-2.223,0.372-4.063-0.085-5.517-1.369
							c-1.35-1.164-2.151-2.731-2.402-4.702c-0.256-2.016,0.118-3.798,1.122-5.351c1.07-1.738,2.717-2.795,4.94-3.167l30.848-5.259
							c2.225-0.373,4.083,0.078,5.582,1.358c1.356,1.208,2.158,2.797,2.409,4.769s-0.121,3.755-1.12,5.351
							c-1.113,1.745-2.781,2.804-5.006,3.175L115.687,120.926z"/>
					</g>
					<path fill-rule="evenodd" clip-rule="evenodd" fill="#675E52" d="M109.672,158.522c0.354,0.662,0.597,1.48,0.729,2.452
						c0.088,1.016,0.022,1.875-0.197,2.583l-9.076,3.444c-0.266-1.546-0.906-3.246-1.921-5.1l-0.331-0.531
						c-0.663-1.104-0.949-2.826-0.861-5.167l0.397-7.551l6.756-2.055l1.193,4.24c0.883,2.914,1.478,4.637,1.788,5.166
						L109.672,158.522z"/>
					<path fill-rule="evenodd" clip-rule="evenodd" fill="#675E52" d="M100.001,165.412c-0.044-0.839,0.198-1.569,0.729-2.186
						c0.53-0.662,1.215-1.016,2.053-1.061l4.637-0.398c0.84-0.043,1.568,0.201,2.187,0.729c0.618,0.576,0.949,1.281,0.993,2.121
						c0.088,0.839-0.155,1.59-0.729,2.253c-0.53,0.663-1.192,1.016-1.987,1.06l-4.705,0.331c-0.838,0.088-1.566-0.155-2.186-0.728
						C100.42,167.002,100.089,166.297,100.001,165.412z"/>
					<path fill-rule="evenodd" clip-rule="evenodd" fill="#675E52" d="M133.981,205.422l1.524,39.547
						c0,1.545-0.509,2.87-1.524,3.974c-1.015,1.104-2.25,1.656-3.708,1.656c-1.413,0-2.628-0.552-3.645-1.656
						c-1.058-1.104-1.567-2.429-1.521-3.974l-1.524-39.547c0-1.546,0.508-2.871,1.524-3.975c1.015-1.104,2.251-1.656,3.708-1.656
						c1.414,0.045,2.628,0.618,3.645,1.722C133.476,202.618,133.981,203.921,133.981,205.422z"/>
					<path fill-rule="evenodd" clip-rule="evenodd" fill="#675E52" d="M119.739,156.668c0-1.545,0.731-2.85,2.187-3.908
						c1.458-1.059,3.203-1.568,5.234-1.524h3.245c2.076,0,3.82,0.531,5.233,1.591c1.458,1.061,2.164,2.341,2.12,3.842l1.391,82.604
						h-18.084L119.739,156.668z"/>
					<polygon fill-rule="evenodd" clip-rule="evenodd" fill="#675E52" points="121.132,233.111 121.132,230.793 139.149,230.858 
						139.149,233.111 					"/>
					<path fill-rule="evenodd" clip-rule="evenodd" d="M125.968,241.524h14.043c0.132,1.325,0.686,2.45,1.656,3.378
						c0.973,0.927,2.12,1.391,3.444,1.391l-0.065,10.467h-24.179v-9.938c0-1.455,0.485-2.693,1.457-3.708
						C123.34,242.055,124.555,241.524,125.968,241.524z"/>
					<path fill-rule="evenodd" clip-rule="evenodd" d="M146.503,246.293c1.811,0,3.355,0.662,4.636,1.986
						c1.28,1.282,1.923,2.871,1.923,4.771v3.709h-16.098v-3.709c0-1.855,0.641-3.445,1.921-4.771
						c1.28-1.324,2.827-1.986,4.637-1.986H146.503z"/>
					<path fill-rule="evenodd" clip-rule="evenodd" d="M121.86,256.76v-10.467c1.811,0,3.356,0.662,4.637,1.986
						c1.281,1.326,1.922,2.916,1.922,4.771v3.709H121.86z"/>
					<path fill-rule="evenodd" clip-rule="evenodd" fill="#675E52" d="M130.671,241.921v-1.258c0-0.884,0.286-1.612,0.861-2.186
						c0.618-0.619,1.346-0.928,2.187-0.928h3.179c0.884,0,1.611,0.309,2.186,0.928c0.619,0.617,0.928,1.347,0.928,2.186v1.258
						H130.671z"/>
					<rect x="120.867" y="253.249" fill-rule="evenodd" clip-rule="evenodd" width="32.195" height="3.511"/>
					<path fill-rule="evenodd" clip-rule="evenodd" fill="#93A6AD" d="M59.063,68.897l20.005-4.504l23.713,11.261l2.121,11.261
						l-10.732,32.458l-5.497,28.154l-39.878-1.523l3.18-68.563C53.252,74.26,55.616,71.414,59.063,68.897z"/>
					<g>
						<path fill-rule="evenodd" clip-rule="evenodd" fill="#F4F5F5" d="M88.082,45.238l11.957,1.559
							c-0.42,1.458-1.268,2.612-2.544,3.465c-1.274,0.852-2.654,1.176-4.144,0.974c-1.487-0.202-2.731-0.883-3.732-2.044
							C88.61,48.074,88.1,46.756,88.082,45.238z"/>
					</g>
					<path fill-rule="evenodd" clip-rule="evenodd" fill="#675E52" d="M105.3,205.224c-0.178,4.063-0.199,10.62-0.066,19.674
						c0.132,8.522,0.066,15.103-0.199,19.739c-0.087,1.547-0.685,2.827-1.788,3.844c-1.061,1.015-2.319,1.479-3.776,1.39
						c-1.413-0.043-2.606-0.663-3.578-1.854c-0.926-1.148-1.368-2.495-1.324-4.041c0.265-4.504,0.332-11.04,0.199-19.608
						c-0.088-8.92-0.044-15.454,0.132-19.606c0.089-1.546,0.64-2.849,1.656-3.908c1.061-1.016,2.319-1.501,3.776-1.457
						c1.413,0.088,2.606,0.684,3.578,1.788C104.925,202.331,105.388,203.678,105.3,205.224z"/>
					<path fill-rule="evenodd" clip-rule="evenodd" fill="#675E52" d="M95.298,153.887c3.356-1.855,5.895-2.762,7.618-2.717
						l3.313,0.065c2.075,0.045,3.818,0.597,5.232,1.656c1.414,1.105,2.077,2.408,1.987,3.908c-0.088,2.385-0.375,16.12-0.86,41.203
						c-0.354,16.605-0.928,30.339-1.723,41.203l-18.15-0.663l-1.987-81.875C92.096,155.74,93.62,154.813,95.298,153.887z"/>
					<polygon fill-rule="evenodd" clip-rule="evenodd" fill="#675E52" points="111.196,230.793 111.129,233.044 92.979,231.985 
						93.111,229.732 					"/>
					<path fill-rule="evenodd" clip-rule="evenodd" d="M114.772,256.76H90.594v-9.938c0-1.455,0.509-2.693,1.524-3.708
						c1.016-1.06,2.23-1.59,3.643-1.59h13.977c0.133,1.325,0.685,2.45,1.656,3.378c0.971,0.927,2.12,1.391,3.445,1.391
						L114.772,256.76z"/>
					<path fill-rule="evenodd" clip-rule="evenodd" d="M106.757,256.76v-3.709c0-1.9,0.641-3.489,1.921-4.771
						c1.281-1.324,2.827-1.986,4.636-1.986h2.916c1.81,0,3.376,0.662,4.702,1.986c1.282,1.282,1.922,2.871,1.922,4.771v3.709
						H106.757z"/>
					<path fill-rule="evenodd" clip-rule="evenodd" d="M95.298,248.279c1.28,1.326,1.92,2.916,1.92,4.771v3.709h-6.625v-9.938
						l0.067-0.529C92.472,246.293,94.017,246.955,95.298,248.279z"/>
					<path fill-rule="evenodd" clip-rule="evenodd" fill="#675E52" d="M100.398,241.921v-1.258c0-0.839,0.31-1.568,0.928-2.186
						c0.575-0.619,1.281-0.928,2.119-0.928h3.247c0.839,0,1.545,0.309,2.119,0.928c0.618,0.617,0.928,1.347,0.928,2.186v1.258
						H100.398z"/>
					<rect x="90.594" y="253.249" fill-rule="evenodd" clip-rule="evenodd" width="32.261" height="3.511"/>
					<path fill-rule="evenodd" clip-rule="evenodd" fill="#675E52" d="M89.204,139.114v18.945c0,3.268-1.326,6.071-3.975,8.412
						c-2.694,2.341-5.917,3.512-9.671,3.512H60.587c-5.034,0-8.28-0.398-9.738-1.193c-2.693-1.545-4.019-5.122-3.975-10.73
						c0.044-5.255,0.906-9.979,2.584-14.176l2.583-4.77H89.204z"/>
					<path fill-rule="evenodd" clip-rule="evenodd" fill="#675E52" d="M123.814,143.286c8.811,3.14,13.216,7.643,13.216,13.514
						c0,5.169-4.418,8.811-13.248,10.931c-2.828,0.706-13.425,2.164-31.796,4.37c-14.132,1.725-25.26,1.085-33.386-1.919
						c-7.729-2.827-11.593-7.286-11.593-13.382c-0.001-5.874,4.394-10.27,13.183-13.181c8.787-2.907,19.386-4.477,31.796-4.704
						C104.395,138.688,115.003,140.145,123.814,143.286z"/>
					<g>
						<g>
							<path fill-rule="evenodd" clip-rule="evenodd" fill="#B8C8CB" d="M90.793,116.791c-0.412-0.236-0.942,0.184-1.59,1.257
								c-0.648,1.078-1.664,2.425-3.047,4.043c-1.384,1.621-2.951,2.481-4.703,2.583c-1.754,0.092-2.848-0.008-3.28-0.298
								L53.697,83.009c-1.148-1.989-1.436-3.999-0.861-6.03c0.487-1.856,1.524-3.4,3.114-4.637c1.546-1.149,3.179-1.634,4.902-1.457
								c1.899,0.176,3.4,1.213,4.504,3.113L90.793,116.791z"/>
						</g>
					</g>
					<g>
						<path fill-rule="evenodd" clip-rule="evenodd" fill="#B8C8CB" d="M85.444,126.818c-2.197,0.505-4.127,0.138-5.791-1.104
							c-1.521-1.05-2.547-2.556-3.08-4.518c-0.522-1.917-0.381-3.672,0.422-5.263c0.854-1.742,2.379-2.864,4.575-3.371l39.415-8.785
							c2.166-0.451,4.096-0.083,5.79,1.104c1.521,1.051,2.543,2.534,3.063,4.451c0.533,1.961,0.398,3.737-0.405,5.327
							c-0.854,1.744-2.378,2.867-4.575,3.372L85.444,126.818z"/>
					</g>
					<path fill-rule="evenodd" clip-rule="evenodd" fill="#F6CB8C" d="M118.549,104.934c1.015-1.899,2.516-3.135,4.503-3.71
						c1.993-0.529,4.962-0.32,8.909,0.63c3.941,0.944,7.031,2.436,9.274,4.472c2.245,2.034,1.263,3.668-2.948,4.901
						c-3.715,1.208-6.254,1.538-7.617,0.993c-0.182,0.581-1.66,2.181-4.438,4.803c-1.607,0.215-3.152-0.151-4.638-1.093
						c-1.856-1.148-3.069-2.782-3.644-4.901C117.378,108.864,117.578,106.833,118.549,104.934z"/>
					<g>
						<g>
							<g>
								<path fill-rule="evenodd" clip-rule="evenodd" fill="#F6CB8C" d="M83.196,43.305c1.532,0.208,2.753,0.908,3.658,2.101
									c0.903,1.238,1.252,2.6,1.051,4.088l-2.479,18.249l-2.963,5.08l-7.935-6.559l2.479-18.25
									c0.202-1.488,0.903-2.708,2.103-3.66C80.347,43.452,81.708,43.103,83.196,43.305z"/>
							</g>
						</g>
						<path fill-rule="evenodd" clip-rule="evenodd" fill="#F6CB8C" d="M108.208,23.569l-3.219,23.698
							c-0.6,2.771-1.728,5.338-3.386,7.697c-1.563,2.329-3.498,4.273-5.805,5.831c-0.406,0.034-3.689-0.412-9.848-1.338
							c-4.989-0.678-9.016-3.03-12.079-7.056c-3.063-4.026-4.252-8.556-3.569-13.589l2.72-20.023L108.208,23.569z"/>
						<g>
							<g>
								<g>
									<path fill-rule="evenodd" clip-rule="evenodd" fill="#F6CB8C" d="M69.245,32.317l7.942,1.079L76.144,43.55l-8.271-1.123
										c-1.4-0.19-2.54-0.836-3.416-1.935c-0.825-1.137-1.144-2.406-0.954-3.807c0.19-1.4,0.834-2.539,1.935-3.415
										C66.576,32.444,67.844,32.126,69.245,32.317z"/>
								</g>
							</g>
						</g>
						<path fill-rule="evenodd" clip-rule="evenodd" d="M73.767,11.336c1.6-1.61,3.454-2.784,5.56-3.524
							c2.199-0.771,4.46-0.999,6.778-0.684l19.76,2.684l1.121,8.978l8.271,1.124c-0.395,1.596-1.279,2.858-2.652,3.785
							c-1.38,0.972-2.881,1.348-4.5,1.127l-20.677-2.809l-0.011,0.065c-1.182-0.161-2.282,0.069-3.302,0.688
							c-0.977,0.625-1.651,1.491-2.026,2.6l-0.811,5.975c-1.181-0.16-2.285,0.09-3.311,0.754c-0.976,0.625-1.651,1.491-2.025,2.599
							l-0.304,2.232c-0.111,0.831-0.492,1.494-1.139,1.984c-0.696,0.53-1.459,0.738-2.29,0.626c-0.832-0.114-1.49-0.515-1.977-1.206
							c-0.536-0.651-0.747-1.394-0.634-2.225l0.499-3.676l-2.034-0.276l1.907-14.048l0.084-0.123l0.41-3.021L73.767,11.336z"/>
						<g>
							<path fill-rule="evenodd" clip-rule="evenodd" fill="#12132D" d="M100.783,37.872c-0.437-0.06-0.767-0.261-0.987-0.602
								c-0.265-0.349-0.368-0.741-0.308-1.179c0.06-0.438,0.26-0.767,0.602-0.988c0.305-0.271,0.675-0.376,1.112-0.317
								c0.438,0.06,0.768,0.26,0.988,0.602c0.271,0.305,0.377,0.676,0.317,1.113c-0.06,0.438-0.262,0.788-0.611,1.054
								C101.591,37.825,101.221,37.931,100.783,37.872z"/>
							<path fill-rule="evenodd" clip-rule="evenodd" fill="#12132D" d="M88.573,36.212c-0.438-0.06-0.767-0.26-0.988-0.602
								c-0.264-0.348-0.368-0.74-0.308-1.178c0.059-0.437,0.261-0.768,0.603-0.988c0.302-0.271,0.674-0.376,1.112-0.317
								c0.437,0.06,0.789,0.264,1.053,0.612c0.271,0.304,0.376,0.675,0.317,1.112c-0.06,0.438-0.263,0.789-0.612,1.054
								C89.404,36.169,89.01,36.272,88.573,36.212z"/>
						</g>
						<path fill-rule="evenodd" clip-rule="evenodd" fill="#FFFFFF" d="M87.445,46.489l11.684,1.587
							c-0.22,1.62-0.975,2.92-2.269,3.904c-1.292,0.984-2.747,1.365-4.368,1.146c-1.619-0.22-2.92-0.977-3.904-2.269
							C87.605,49.564,87.225,48.108,87.445,46.489z"/>
						
							<rect x="95.946" y="13.364" transform="matrix(0.1346 -0.9909 0.9909 0.1346 63.1001 115.6066)" fill-rule="evenodd" clip-rule="evenodd" width="3.577" height="16.629"/>
						<path fill-rule="evenodd" clip-rule="evenodd" d="M92.674,15.375c-1.542,1.172-2.44,2.699-2.697,4.581l-0.329,2.429
							l-19.891-2.702l0.883-6.499c0.493-3.633,2.207-6.563,5.139-8.796c2.932-2.231,6.215-3.101,9.849-2.607L97.838,3.44
							c3.633,0.493,6.564,2.206,8.796,5.14c2.231,2.933,3.101,6.214,2.606,9.847l-0.883,6.499l-3.085-0.419l0.33-2.429
							c0.256-1.881-0.202-3.593-1.374-5.134c-1.13-1.535-2.656-2.434-4.583-2.695L97.808,14
							C95.925,13.745,94.214,14.203,92.674,15.375z"/>
						
							<line fill-rule="evenodd" clip-rule="evenodd" fill="none" stroke="#040505" stroke-width="1.35" x1="70.934" y1="16.434" x2="88.725" y2="18.851"/>
						<path fill-rule="evenodd" clip-rule="evenodd" d="M100.446,14.759l9.838-4.012c0.613,2.044,0.458,4.006-0.466,5.887
							c-0.887,1.931-2.32,3.295-4.3,4.096L100.446,14.759z"/>
					</g>
					<polygon fill-rule="evenodd" clip-rule="evenodd" fill="#FFFFFF" points="74.232,65.122 86.885,64.792 90.925,66.448 
						84.566,89.301 69.396,66.248 					"/>
					<polygon fill-rule="evenodd" clip-rule="evenodd" points="81.745,67.756 87.225,74.071 83.25,78.516 78.223,75.216 					"/>
					<polygon fill-rule="evenodd" clip-rule="evenodd" points="86.871,80.726 84.558,89.301 79.551,81.458 82.805,75.032 					"/>
					<polygon fill-rule="evenodd" clip-rule="evenodd" fill="#B8C8CB" points="69.331,66.048 84.566,89.301 64.165,72.012 					"/>
					<polygon fill-rule="evenodd" clip-rule="evenodd" fill="#B8C8CB" points="90.793,66.248 97.152,72.474 84.566,89.301 					"/>
					<path fill-rule="evenodd" clip-rule="evenodd" fill="#F6CB8C" d="M144.417,106.521c0.525-1.948,1.598-3.443,3.211-4.489
						c1.648-1.021,3.377-1.313,5.187-0.864c1.793,0.483,4.017,1.986,6.667,4.505c2.652,2.513,4.393,5.068,5.224,7.667
						c0.834,2.6-0.669,3.433-4.507,2.498c-3.445-0.731-5.574-1.616-6.394-2.656c-0.403,0.372-2.279,0.953-5.627,1.748
						c-1.349-0.558-2.392-1.539-3.127-2.941C144.122,110.255,143.909,108.433,144.417,106.521z"/>
				</g>
			</g>
		</g>
	</g>
	<polygon fill-rule="evenodd" clip-rule="evenodd" fill="#CBCB64" points="207.656,129.449 207.656,118.19 240.511,118.475 
		240.729,119.046 199.392,152.256 116.005,149.979 168.032,117.906 198.535,118.118 198.535,119.259 170.382,121.827 
		141.233,142.991 141.233,147.267 181.357,143.849 193.261,131.874 191.407,136.008 215.209,136.008 212.505,129.449 	"/>
	<path fill-rule="evenodd" clip-rule="evenodd" fill="#343416" d="M165.183,156.961l-50.747-1.425l1.57-5.557l83.386,2.276
		l1.993,5.701l-7.556-0.211l-7.411-0.215l-13.257-0.355L165.183,156.961z M141.233,142.991l39.054-4.417l1.07,5.274l-40.124,3.418
		V142.991z M190.553,24.256v82.673h-11.404V24.256H190.553z M42.244,112.448l5.702,52.458l-7.697,5.131l-5.702-52.028
		c0.284-0.232,0.571-0.468,0.855-0.712l0.214-0.143L42.244,112.448z M207.656,129.449h4.849l2.704,6.559h-23.802l1.854-4.134
		l0.713-2.425h1.71h2.852v1.426h9.121V129.449z"/>
	<path fill-rule="evenodd" clip-rule="evenodd" fill="#989836" d="M190.553,106.929V24.256l15.108-9.265l-0.429,47.182h-6.697
		v37.917L190.553,106.929z M199.392,152.256l41.337-33.21l1.637,4.346l-40.98,34.565L199.392,152.256z M48.175,194.252l8.127,0.715
		v41.675L87.8,260.431l-68.133,1.918l28.508-22.832V194.252z M193.261,131.874l-11.903,11.975l-1.07-5.274l18.248-17.035v5.06
		l-2.852,2.851h-1.71L193.261,131.874z"/>
	<path fill-rule="evenodd" clip-rule="evenodd" fill="#676767" d="M141.233,142.991l29.148-21.164l28.153-2.568v-1.141V100.09
		V62.172h6.697h2.424v56.018v11.259v1.426h-9.121v-1.426v-2.851v-5.06l-18.248,17.035L141.233,142.991z M165.183,156.961
		l7.979,0.215v72.765l13.257-22.662v-49.747l7.411,0.215v70.769h20.241l1.854,5.847h-34.923v-5.135l-7.84,14.255v12.545h24.66
		l3.423,7.984h-47.04v-7.984h10.69L165.183,156.961z M181.001,229.227l0.356-0.712h6.202v-11.257l-6.202,11.257h-0.356V229.227z"/>
</g>
</svg>
