<?xml version="1.0" encoding="utf-8"?>
<!-- Generator: Adobe Illustrator 15.1.0, SVG Export Plug-In . SVG Version: 6.00 Build 0)  -->
<!DOCTYPE svg PUBLIC "-//W3C//DTD SVG 1.1//EN" "http://www.w3.org/Graphics/SVG/1.1/DTD/svg11.dtd">
<svg version="1.1" id="Layer_1" xmlns="http://www.w3.org/2000/svg" xmlns:xlink="http://www.w3.org/1999/xlink" x="0px" y="0px"
	 width="116.81px" height="258.784px" viewBox="0 0 116.81 258.784" enable-background="new 0 0 116.81 258.784"
	 xml:space="preserve">
<g>
	<g id="Layer_1_3_">
		<g>
			<path fill-rule="evenodd" clip-rule="evenodd" fill="#CB6828" d="M106.686,27.198v8.491l-1.841,2.076
				c0-3.72,0.04-8.094,0.118-13.121c0.12-5.065-1.563-7.064-5.047-5.996c-3.482,1.069-7.855,1.505-13.121,1.307
				c-1.147-0.079-3.226-0.396-6.234-0.951l-4.215-0.83c1.82-0.634,2.988-1.9,3.504-3.8l-3.207,1.306
				c-2.256,1.188-3.404,3.682-3.443,7.482c0,1.938-0.021,4.748-0.061,8.431c-0.078,3.442-0.117,5.361-0.117,5.759l-1.545-2.078
				c-0.039-2.692-0.06-5.502-0.06-8.432c0-0.514-0.039-1.049-0.118-1.604c-0.078-7.441,0.396-12.251,1.426-14.428
				c1.068-2.137,2.295-3.839,3.68-5.104c0.793-0.792,2.02-1.485,3.682-2.078c1.94-0.714,4.176-1.149,6.709-1.308
				c1.347-0.118,3.147-0.059,5.403,0.178c2.098,0.238,3.622,0.496,4.572,0.771c1.623,0.516,3.067,1.148,4.333,1.9
				c1.308,0.832,2.297,1.742,2.97,2.733c0.515,0.594,1.108,1.463,1.78,2.61c0.674,1.149,1.01,2.791,1.01,4.928
				C106.864,17.58,106.804,21.498,106.686,27.198z"/>
			<path fill-rule="evenodd" clip-rule="evenodd" fill="#F79868" d="M94.514,57.359l-1.484,0.595
				c-0.158,0.039-0.297,0.1-0.415,0.178l-6.591,3.801l-3.146-3.979c-0.277-0.119-0.574-0.259-0.891-0.415
				c-0.079-0.04-0.534-0.317-1.366-0.832c-1.345-0.753-2.711-1.741-4.097-2.97c-2.533-2.215-3.958-7.599-4.274-16.148
				c-1.504,0-2.534-0.159-3.087-0.476c-1.584-1.028-2.316-3.344-2.197-6.946c0-0.951,0.455-1.721,1.366-2.315
				c0.79-0.514,1.82-0.852,3.086-1.01c0,2.93,0.021,5.739,0.06,8.432l1.545,2.078c0-0.397,0.039-2.316,0.117-5.759
				c0.04-3.683,0.061-6.493,0.061-8.431c0.039-3.801,1.188-6.294,3.443-7.482l3.207-1.306c-0.516,1.899-1.684,3.166-3.504,3.8
				l4.215,0.83c3.009,0.555,5.087,0.872,6.234,0.951c5.266,0.198,9.639-0.237,13.121-1.307c3.484-1.068,5.167,0.931,5.047,5.996
				c-0.078,5.027-0.118,9.401-0.118,13.121l1.841-2.076v-8.491c1.266,0.118,2.276,0.436,3.027,0.95
				c0.872,0.593,1.326,1.365,1.367,2.314c0.117,2.731-0.317,4.693-1.308,5.88c-0.712,0.829-1.919,1.363-3.621,1.603
				c-0.397,5.341-0.921,8.952-1.574,10.835c-0.649,1.89-1.837,3.582-3.562,5.076c-1.722,1.49-3.402,2.448-5.048,2.881
				C94.32,57.174,93.834,57.379,94.514,57.359z M97.602,28.088V28.03c-0.317-0.317-0.712-0.475-1.188-0.475
				c-0.436,0-0.811,0.157-1.128,0.475c-0.315,0.316-0.476,0.711-0.476,1.186c0,0.437,0.16,0.813,0.476,1.13
				c0.317,0.316,0.692,0.475,1.128,0.475c0.476,0,0.87-0.158,1.188-0.475c0.277-0.317,0.416-0.693,0.416-1.13
				c0-0.276-0.039-0.514-0.12-0.711C97.859,28.346,97.76,28.208,97.602,28.088z M79.256,30.107c0.435,0,0.83-0.139,1.188-0.416
				c0.316-0.316,0.475-0.711,0.475-1.187c0-0.436-0.158-0.831-0.475-1.188c-0.357-0.316-0.753-0.475-1.188-0.475
				c-0.437,0-0.813,0.158-1.129,0.475c-0.355,0.357-0.534,0.753-0.534,1.188c0,0.476,0.179,0.87,0.534,1.187
				C78.444,29.968,78.82,30.107,79.256,30.107z M110.249,126.588h0.059l0.061,2.257c-0.08-0.079-0.139-0.139-0.179-0.178
				C110.15,127.321,110.17,126.629,110.249,126.588z"/>
			<path fill-rule="evenodd" clip-rule="evenodd" fill="#010101" d="M97.602,28.088c0.158,0.119,0.257,0.258,0.296,0.416
				c0.081,0.197,0.12,0.435,0.12,0.711c0,0.437-0.139,0.813-0.416,1.13c-0.317,0.316-0.712,0.475-1.188,0.475
				c-0.436,0-0.811-0.158-1.128-0.475c-0.315-0.317-0.476-0.693-0.476-1.13c0-0.475,0.16-0.869,0.476-1.186
				c0.317-0.317,0.692-0.475,1.128-0.475c0.476,0,0.87,0.157,1.188,0.475V28.088z M79.256,30.107c-0.437,0-0.813-0.139-1.129-0.416
				c-0.355-0.316-0.534-0.711-0.534-1.187c0-0.436,0.179-0.831,0.534-1.188c0.316-0.316,0.692-0.475,1.129-0.475
				c0.435,0,0.83,0.158,1.188,0.475c0.316,0.357,0.475,0.753,0.475,1.188c0,0.476-0.158,0.87-0.475,1.187
				C80.086,29.968,79.691,30.107,79.256,30.107z"/>
			<path fill-rule="evenodd" clip-rule="evenodd" fill="#343466" d="M81.987,57.539l-4.275,4.928l0.831,1.899l1.069,31.587v16.565
				l-7.303-32.121l5.818-3.504l-7.362-3.859l4.453-11.399l1.96-3.503l3.442-1.425C81.453,57.221,81.908,57.499,81.987,57.539z
				 M79.612,112.518l7.005-16.863l8.016-29.686l1.604-1.426l-3.207-6.59l1.484-0.595l3.978,2.495l0.417,3.086l1.84,13.479
				l-7.422,1.484l4.513,6.769L79.612,112.518z M81.512,153.307v87.278h-1.959h-8.432H67.5h-2.138l-1.604-87.278H81.512z
				 M104.787,240.169h-8.372h-3.682h-2.137V154.02h0.771l15.378,0.179v85.971H104.787z"/>
			<path fill-rule="evenodd" clip-rule="evenodd" fill="#31487A" d="M110.249,126.588c-0.078,0.041-0.099,0.732-0.06,2.079
				l-0.179,25.531h-3.265l-15.378-0.179l-9.855-0.713H63.758h-2.018c-0.08-10.608,0.158-20.8,0.713-30.577
				c0.435-13.815,0.83-25.115,1.188-33.903l0.059-0.829c0-0.16,0-0.318,0-0.477l1.246-22.265c0.792-1.267,1.979-2.218,3.563-2.851
				l6.71-0.771l-4.453,11.399l7.362,3.859l-5.818,3.504l7.303,32.121l18.228-27.847l-4.513-6.769l7.422-1.484l-1.84-13.479
				c1.148,0.198,3.008,0.595,5.582,1.188c1.978,0.477,3.402,0.932,4.273,1.367c2.334,1.037,1.84,13.784,1.663,21.077"/>
			<path fill-rule="evenodd" clip-rule="evenodd" fill="#3F5B9C" d="M63.7,87.521c-1.346,4.118-4.453,9.539-9.322,16.269
				c-1.425,1.545-5.085,0.553-10.984-2.968c-5.858-3.523-10.945-9.085-15.258-16.684l11.875-4.335l9.915,10.925
				c0.356-0.476,0.692-0.95,1.009-1.425c5.74-8.511,10.252-16.229,13.537-23.156c0.119-0.316,0.277-0.613,0.475-0.891L63.7,87.521z"
				/>
			<path fill-rule="evenodd" clip-rule="evenodd" fill="#FFFFFF" d="M93.03,57.954l3.207,6.59l-1.604,1.426l-8.016,29.686
				l-0.949-23.63l3.089-2.85l-2.732-7.243l-4.037,6.648l2.613,3.267l-4.988,24.105l-1.069-31.587l-0.831-1.899l4.275-4.928
				c0.316,0.156,0.613,0.296,0.891,0.415l3.146,3.979l6.591-3.801C92.733,58.053,92.872,57.993,93.03,57.954z"/>
			<polygon fill-rule="evenodd" clip-rule="evenodd" fill="#FFCD05" points="86.617,95.655 79.612,112.518 79.612,95.953 
				84.6,71.847 81.987,68.581 86.024,61.932 88.756,69.175 85.667,72.025 			"/>
			<path fill-rule="evenodd" clip-rule="evenodd" fill="#CDCCCC" d="M71.122,240.585h8.432l0.415,2.91
				c-1.622,0.079-3.187-0.021-4.69-0.298c-1.465-0.315-2.256-0.475-2.375-0.475c-0.119-0.038-0.197-0.158-0.238-0.355
				c-0.039-0.119-0.236-0.436-0.594-0.951C71.675,240.903,71.359,240.626,71.122,240.585z M96.415,240.169h8.372l0.415,2.97
				c-1.622,0.039-3.187-0.059-4.69-0.298c-1.465-0.354-2.235-0.534-2.316-0.534c-0.118-0.039-0.216-0.138-0.297-0.297
				c-0.039-0.157-0.236-0.475-0.594-0.949C96.909,240.506,96.612,240.21,96.415,240.169z M52.3,248.719v0.119
				c0.039,1.347,0.515,2.553,1.424,3.623c1.387,1.424,2.574,2.334,3.563,2.73c1.029,0.396,2.554,0.614,4.572,0.652l10.034-0.475
				l5.76-0.355c-0.277-0.436-0.475-0.891-0.594-1.364c-0.317-1.109-0.455-2.476-0.416-4.099l0.891-1.245v0.118
				c0.079,1.386,0.555,2.592,1.425,3.62c0.475,0.476,0.911,0.892,1.307,1.247c0.831,0.753,1.583,1.268,2.257,1.545
				c1.027,0.355,2.552,0.553,4.57,0.594l10.035-0.476l8.43-0.534v2.909c-8.43,0.515-15.991,0.851-22.68,1.009
				c-0.792,0.118-1.643-0.118-2.554-0.712v0.119c-8.431,0.514-15.991,0.851-22.68,1.009c-1.069,0.158-2.236-0.316-3.504-1.425
				c-1.307-1.108-2.078-2.196-2.315-3.267c-0.316-1.146-0.455-2.512-0.415-4.097L52.3,248.719z"/>
			<path fill-rule="evenodd" clip-rule="evenodd" fill="#989898" d="M65.421,243.436c1.386,2.69,2.06,4.057,2.019,4.097l1.604-0.534
				l-2.73-4.631l1.187-1.782h3.622c0.237,0.041,0.554,0.317,0.949,0.831c0.357,0.516,0.555,0.832,0.594,0.951
				c0.041,0.197,0.119,0.317,0.238,0.355c0.119,0,0.91,0.159,2.375,0.475c1.504,0.277,3.068,0.377,4.69,0.298v2.018
				c-1.86,0.356-3.563,1.289-5.106,2.793c-1.584,1.463-2.572,3.817-2.969,7.063l-10.034,0.475c-2.019-0.038-3.543-0.257-4.572-0.652
				c-0.988-0.396-2.176-1.307-3.563-2.73c-0.909-1.07-1.385-2.276-1.424-3.623v-0.119c0-0.038,1.524-0.69,4.571-1.959
				c3.008-1.227,5.086-2.058,6.234-2.492l1.604,4.156l1.604-0.832l-1.842-3.801c0.119-0.078,0.197-0.118,0.238-0.118
				C64.987,243.594,65.223,243.514,65.421,243.436z M97.127,254.955l-10.035,0.476c-2.019-0.041-3.543-0.238-4.57-0.594
				c-0.674-0.277-1.426-0.792-2.257-1.545c-0.396-0.355-0.832-0.771-1.307-1.247c-0.87-1.028-1.346-2.234-1.425-3.62v-0.118
				l2.493-1.07c0.594-0.237,1.287-0.534,2.078-0.891c3.008-1.227,5.105-2.059,6.294-2.492l1.544,4.155l1.662-0.831l-1.899-3.801
				c0.118-0.039,0.218-0.06,0.297-0.06c0.237-0.119,0.454-0.217,0.652-0.296c1.387,2.69,2.078,4.076,2.078,4.156l1.544-0.595
				l-2.672-4.572l1.128-1.841h3.682c0.197,0.041,0.494,0.337,0.89,0.892c0.357,0.475,0.555,0.792,0.594,0.949
				c0.081,0.159,0.179,0.258,0.297,0.297c0.081,0,0.852,0.18,2.316,0.534c1.504,0.239,3.068,0.337,4.69,0.298v1.96
				c-1.86,0.396-3.563,1.325-5.105,2.79C98.512,249.353,97.522,251.708,97.127,254.955z"/>
			<path fill-rule="evenodd" clip-rule="evenodd" fill="#676767" d="M64.471,243.792l1.842,3.801l-1.604,0.832l-1.604-4.156
				C63.582,244.069,64.036,243.911,64.471,243.792z M66.313,242.368l2.73,4.631l-1.604,0.534c0.041-0.04-0.633-1.406-2.019-4.097
				C65.778,243.119,66.075,242.764,66.313,242.368z M89.706,243.376l1.899,3.801l-1.662,0.831l-1.544-4.155
				C88.834,243.693,89.27,243.536,89.706,243.376z M90.655,243.021c0.356-0.317,0.674-0.653,0.95-1.011l2.672,4.572l-1.544,0.595
				C92.733,247.097,92.042,245.711,90.655,243.021z M97.127,254.955c0.395-3.246,1.385-5.602,2.969-7.065
				c1.543-1.465,3.245-2.395,5.105-2.79l0.355,9.321L97.127,254.955z M79.968,245.513l0.059,1.723l-2.493,1.07l-0.891,1.245
				c-0.039,1.623,0.099,2.989,0.416,4.099c0.119,0.474,0.316,0.929,0.594,1.364l-5.76,0.355c0.396-3.246,1.385-5.601,2.969-7.063
				C76.405,246.802,78.108,245.87,79.968,245.513z"/>
			
				<line fill-rule="evenodd" clip-rule="evenodd" fill="none" stroke="#640E0E" stroke-width="0.1" stroke-linecap="round" stroke-linejoin="round" stroke-miterlimit="3" x1="63.7" y1="87.998" x2="63.641" y2="88.827"/>
			<g>
				<path fill-rule="evenodd" clip-rule="evenodd" fill="#F79868" d="M37.99,81.228l-6.828,2.493
					c-6.134-3.246-9.419-8.332-9.855-15.259c3.799,5.384,7.244,7.264,10.33,5.642c0.991-3.761,2.258-5.324,3.8-4.691
					c0.04,1.226,0.02,1.999-0.059,2.315L37.99,81.228z"/>
			</g>
			<g>
				<polygon fill-rule="evenodd" clip-rule="evenodd" fill="#343517" points="10.946,56.133 13.398,57.567 18.068,53.341 
					36.397,80.531 23.552,94.467 2.666,67.311 8.118,62.336 7.164,59.336 				"/>
				<g>
					<polygon fill-rule="evenodd" clip-rule="evenodd" fill="#99CCCC" points="6.073,67.787 4.574,67.787 18.068,54.705 
						22.292,53.614 					"/>
					<path fill-rule="evenodd" clip-rule="evenodd" fill="#CDCCCC" d="M8.364,68.819h1.306h0.772
						c4.274,8.667,9.954,14.862,17.04,18.585c-1.821,1.107-3.008,1.899-3.563,2.374L8.364,68.819z"/>
					<g>
						<path fill-rule="evenodd" clip-rule="evenodd" fill="#FCF9CE" d="M24.542,90.208c-4.089-2.453-10.246-9.928-18.469-22.421
							l16.219-14.173c2.408,10.402,7.836,18.353,16.286,23.85L26.312,89.321h-0.067C26.198,89.321,25.63,89.618,24.542,90.208z"/>
					</g>
				</g>
				<g>
					<polygon fill-rule="evenodd" clip-rule="evenodd" fill="#676767" points="15.725,72.44 14.776,71.134 24.157,62.644 
						24.454,64.366 					"/>
				</g>
				<g>
					<polygon fill-rule="evenodd" clip-rule="evenodd" fill="#676767" points="17.209,74.697 16.201,73.331 25.582,64.841 
						25.938,66.562 					"/>
				</g>
			</g>
			<g>
				<path fill-rule="evenodd" clip-rule="evenodd" fill="#3F5B9C" d="M108.052,66.741c0.039,0.276,0.237,0.832,0.593,1.662
					c0.357,0.831,0.237,3.285-0.355,7.361c-0.594,4.078-1.365,11.241-2.316,21.495c-0.989,10.211-2.197,15.813-3.621,16.801
					l-26.48,9.62l-3.266-12.053l0.178-0.239l21.078-7.48c1.188-7.995,2.672-18.88,4.453-32.655
					C99.62,65.474,102.866,63.969,108.052,66.741z"/>
				<g>
					<path fill-rule="evenodd" clip-rule="evenodd" fill="#9A3467" d="M53.963,118.278c-0.278-0.358-0.456-0.694-0.536-1.012
						c-0.119-0.71,0.496-1.602,1.841-2.672c1.939-1.226,3.502-2.195,4.691-2.908v-0.059c0.791-0.554,1.365-0.95,1.721-1.188
						c0.119-0.039,0.179-0.078,0.179-0.118c0.555-0.276,1.405-0.811,2.554-1.604c0.751-0.434,1.682-1.027,2.79-1.78
						c3.286-2.216,5.898-3.76,7.837-4.631c2.178,0.357,2.593,1.484,1.248,3.384c-3.365,2.138-6.69,4.216-9.975,6.234
						c-0.911,0.595-1.842,1.148-2.791,1.663c-0.159,0.118-0.316,0.238-0.475,0.356c-0.95,0.633-1.941,1.247-2.97,1.84h-0.059
						c-2.218,1.308-3.444,2.038-3.681,2.197c-0.08,0.039-0.139,0.06-0.179,0.06C54.933,118.237,54.2,118.317,53.963,118.278z"/>
					<path fill-rule="evenodd" clip-rule="evenodd" fill="#010101" d="M53.427,117.266c0.08,0.317,0.258,0.653,0.536,1.012
						l-2.078,1.187c-0.99,0.04-1.069-0.357-0.239-1.187L53.427,117.266z"/>
				</g>
				<g>
					<path fill-rule="evenodd" clip-rule="evenodd" fill="#F79868" d="M65.421,109.728c0.712-0.754,3.582-0.338,8.608,1.245
						l0.951,9.561c-6.294-4.157-10.313-4.612-12.053-1.365c-2.612-2.101-3.582-3.483-2.909-4.157L65.421,109.728z"/>
				</g>
			</g>
		</g>
	</g>
</g>
</svg>
