<?xml version="1.0" encoding="utf-8"?>
<!-- Generator: Adobe Illustrator 15.1.0, SVG Export Plug-In . SVG Version: 6.00 Build 0)  -->
<!DOCTYPE svg PUBLIC "-//W3C//DTD SVG 1.1//EN" "http://www.w3.org/Graphics/SVG/1.1/DTD/svg11.dtd">
<svg version="1.1" id="Layer_1" xmlns="http://www.w3.org/2000/svg" xmlns:xlink="http://www.w3.org/1999/xlink" x="0px" y="0px"
	 width="144.592px" height="284.152px" viewBox="0 0 144.592 284.152" enable-background="new 0 0 144.592 284.152"
	 xml:space="preserve">
<g>
	<g id="Layer_1_2_">
		<g>
			<path fill-rule="evenodd" clip-rule="evenodd" d="M39.216,25.121c-0.753,0-0.821,0.04-0.202,0.121
				c0.269,2.908,0.822,5.372,1.656,7.392c0.861,1.965,1.992,3.999,3.393,6.099l-3.19,2.019l-3.352-6.018l-1.576-3.191
				c-1.562,0.673-3.111,0.727-4.645,0.162c-0.324-2.02-0.795-4.362-1.414-7.027c-0.566-2.693-0.916-4.78-1.05-6.261
				c-0.135-1.508-0.229-2.854-0.283-4.039c-0.027-1.212,0.296-2.315,0.969-3.312c0.728-1.05,2.142-1.831,4.241-2.343l2.949-1.535
				c1.48-2.046,2.867-3.487,4.16-4.322c1.292-0.834,5.6-0.996,12.924-0.484c7.379,0.511,11.525,1.306,12.44,2.383
				c0.97,1.131,1.535,1.939,1.697,2.423c0.108,0.243,0.215,0.929,0.324,2.06c0.106,1.346,0.268,2.383,0.484,3.11
				c-1.239,0-2.127-0.175-2.666-0.525c-0.7-0.862-1.413-1.589-2.14-2.181c-0.754-0.592-1.481-1.064-2.181-1.414
				C56.045,15.05,48.533,20.677,39.216,25.121z M56.019,31.866c0,0.673-0.215,1.238-0.646,1.696
				c-0.457,0.485-1.009,0.727-1.655,0.727c-0.646,0-1.186-0.242-1.616-0.727c-0.458-0.458-0.687-1.023-0.687-1.696
				c0-0.673,0.229-1.239,0.687-1.697c0.43-0.458,0.969-0.687,1.616-0.687c0.646,0,1.198,0.229,1.655,0.687
				C55.804,30.627,56.019,31.192,56.019,31.866z M68.499,22.293c0.512,0.054,0.957,0.283,1.334,0.687
				c0.43,0.458,0.646,1.01,0.646,1.656c0,0.62-0.216,1.158-0.646,1.616c-0.432,0.484-0.93,0.727-1.496,0.727
				c-0.592,0-1.089-0.243-1.494-0.727c-0.431-0.431-0.659-0.93-0.687-1.495c0-0.054,0-0.094,0-0.122
				c0-0.646,0.229-1.198,0.687-1.656c0.404-0.458,0.902-0.687,1.494-0.687c0.027,0,0.054,0,0.082,0
				C68.446,22.293,68.473,22.293,68.499,22.293z"/>
			<path fill-rule="evenodd" clip-rule="evenodd" fill="#FCCB98" d="M64.138,59.129l-3.474,11.147v0.04
				c-0.027-0.054-0.054-0.107-0.081-0.161c-0.081-0.135-1.01-1.4-2.788-3.797c-1.777-2.424-3.689-4.832-5.735-7.229l-1.212-4.565
				c-1.4-1.265-2.854-2.868-4.362-4.806c-2.801-3.661-4.456-6.288-4.968-7.876c-3.015,1.643-5.142,1.104-6.381-1.615
				c-1.211-2.747-0.417-4.591,2.383-5.534l3.352,6.018l3.19-2.019c-1.4-2.101-2.531-4.134-3.393-6.099
				c-0.834-2.02-1.387-4.483-1.656-7.392c0.054-0.027,0.122-0.067,0.202-0.121c9.316-4.443,16.829-10.071,22.538-16.883
				c0.7,0.35,1.427,0.821,2.181,1.414c0.728,0.592,1.44,1.319,2.14,2.181c0.782,0.862,1.562,1.925,2.344,3.19
				c0.646,1.023,1.238,2.006,1.776,2.949c0.565-0.188,1.131-0.377,1.697-0.565c0.646-0.215,1.359,0.256,2.141,1.414
				c0.834,1.158,1.264,2.235,1.292,3.231c0.081,0.942-0.418,1.737-1.495,2.383l0.485,1.292c0.754,1.75,1.358,3.891,1.817,6.422
				c0.458,2.531,0.593,5.708,0.404,9.532c-0.162,3.77-0.351,5.479-0.566,5.13c-1.668,6.031-5.681,9.841-12.036,11.431
				c0.054,0,0.121,0,0.202,0V59.129z M56.019,31.866c0-0.673-0.215-1.239-0.646-1.697c-0.457-0.458-1.009-0.687-1.655-0.687
				c-0.646,0-1.186,0.229-1.616,0.687c-0.458,0.458-0.687,1.023-0.687,1.697c0,0.673,0.229,1.238,0.687,1.696
				c0.43,0.485,0.969,0.727,1.616,0.727c0.646,0,1.198-0.242,1.655-0.727C55.804,33.104,56.019,32.539,56.019,31.866z
				 M125.125,65.551c-2.854-0.835-5.128-1.333-6.824-1.495l1.049-7.754l0.041,0.041l-0.041-0.688l-0.484-1.979
				c-2.182-5.655-3.742-8.618-4.686-8.887c1.212-1.185,2.478-0.956,3.797,0.687c1.32,1.615,2.586,2.343,3.797,2.181
				c0.781,0.054,2.315-0.728,4.604-2.343c3.393-1.938,6.719-3.459,9.977-4.564h1.212c0.699,0.674-1.805,2.895-7.512,6.665l9.57-4.16
				h1.213c0.916,1.399-1.306,3.783-6.664,7.149l6.059-3.475c3.096,0.404-0.861,4.646-11.875,12.724L125.125,65.551z M9.085,148.875
				l7.068,2.304l0.445,8.441c-0.054,3.096-0.202,6.906-0.445,11.43c-1.669-0.566-2.84-3.245-3.514-8.037l-6.18,7.715l-1.171,0.929
				c-5.816-0.216-4.968-7.096,2.544-20.64L9.085,148.875z M68.499,22.293c-0.026,0-0.053,0-0.08,0c-0.028,0-0.055,0-0.082,0
				c-0.592,0-1.089,0.229-1.494,0.687c-0.458,0.458-0.687,1.01-0.687,1.656c0,0.027,0,0.067,0,0.122
				c0.028,0.565,0.256,1.063,0.687,1.495c0.404,0.484,0.902,0.727,1.494,0.727c0.566,0,1.063-0.243,1.496-0.727
				c0.43-0.458,0.646-0.996,0.646-1.616c0-0.646-0.216-1.198-0.646-1.656C69.456,22.576,69.011,22.347,68.499,22.293z"/>
			<path fill-rule="evenodd" clip-rule="evenodd" fill="#98CBCB" d="M67.328,95.964L61.876,77.83l1.453-3.999
				c-1.103-1.535-1.991-2.72-2.665-3.554l3.474-11.147l5.816,4.159l-2.1,6.706C67.746,80.657,67.57,89.313,67.328,95.964z
				 M126.217,72.66c-1.293,0.081-3.596-0.229-6.907-0.929l-4.322-1.252l-0.808-0.243l1.212-5.574l0.525-0.483
				c0.593-0.162,1.386-0.202,2.384-0.122c1.696,0.162,3.971,0.66,6.824,1.495l4.443,1.131l-2.14,5.574
				c-0.188,0.162-0.445,0.269-0.769,0.322h-0.484L126.217,72.66z M16.154,151.179l-7.068-2.304l-2.504-0.808l3.474-9.088
				l0.646,0.364l4.887,2.423l0.444,0.364h0.081l2.383,1.493h0.081l1.857,1.657l1.09,0.969l-2.544,5.856L16.154,151.179z
				 M60.664,70.317c-0.857,1.26-1.88,2.66-3.07,4.201l3.353,3.23v21.367L50.97,69.469c0.136,0.241,0.256,0.484,0.364,0.727
				l1.05,2.061l-0.201-0.444c-0.163-0.297-0.323-0.605-0.485-0.93l-3.271-6.584l3.635-5.169c2.046,2.397,3.958,4.806,5.735,7.229
				c1.778,2.396,2.707,3.662,2.788,3.797C60.61,70.209,60.637,70.263,60.664,70.317z"/>
			<path fill-rule="evenodd" clip-rule="evenodd" fill="#979797" d="M76.295,144.958l-24.598,0.97
				c-3.743,0.242-7.674,0.054-11.794-0.566c-3.177-0.512-6.462-1.266-9.854-2.262c3.769-17.233,5.116-36.77,4.04-58.606
				c-7.918,20.681-12.467,40.942-13.653,60.788l-1.857-1.657h-0.081l-2.383-1.493h-0.081l-0.444-0.364l-4.887-2.423
				c4.955-45.346,12.562-69.054,22.821-71.127l14.904-3.919l3.271,6.584c0.162,0.324,0.322,0.633,0.485,0.93l0.201,0.444
				l-1.05-2.061c-0.108-0.242-0.228-0.485-0.364-0.727l9.978,29.646l6.866,22.779c-0.619-9.612-0.78-18.256-0.485-25.931
				c0.242-6.651,0.417-15.308,0.525-25.97l2.1-6.706l5.776,1.657c2.368,0.241,5.236,1.642,8.603,4.2l18.175,26.051
				c1.886,2.37,3.218,2.411,3.999,0.122l8.481-24.84l4.322,1.252c3.312,0.699,5.614,1.01,6.907,0.929h0.041l-14.34,32.15
				l-2.101,2.262c-1.831,1.05-4.268,1.777-7.311,2.181c-6.999-2.153-14.015-11.739-21.042-28.757
				c0.188,18.311,1.926,38.842,5.21,61.595C83.955,143.759,80.495,144.716,76.295,144.958z"/>
			<path fill-rule="evenodd" clip-rule="evenodd" fill="#242424" d="M86.877,270.37c10.528,5.171,16.195,9.21,17.004,12.117
				L74.76,280.75c-1.59-1.507-1.952-5.453-1.091-11.834L86.877,270.37z M33.118,266.412l13.046,1.696
				c10.609,5.225,16.317,9.276,17.125,12.157l-29.161-1.736C32.539,277.02,32.203,272.982,33.118,266.412z M60.664,70.277
				c0.674,0.834,1.562,2.019,2.665,3.554l-1.453,3.999l5.452,18.135c-0.295,7.675-0.134,16.318,0.485,25.931l-6.866-22.779V77.749
				l-3.353-3.23c1.189-1.541,2.212-2.941,3.07-4.201V70.277z"/>
			<path fill-rule="evenodd" clip-rule="evenodd" fill="#676767" d="M33.118,266.412c0.135-38.721,2.396-79.07,6.785-121.05
				c4.12,0.62,8.052,0.809,11.794,0.566l24.598-0.97c2.637,51.591,7.283,93.517,13.934,125.775l-3.352-0.364l-13.208-1.454
				l-1.131-0.161l-8.966-115.961h-9.007c-5.708,42.356-7.122,80.983-4.242,115.88l-4.16-0.565L33.118,266.412z"/>
		</g>
	</g>
</g>
<g id="XMLID_1_">
	<g>
		<path fill="#FFFFFF" d="M133.88,29.912c5.63,2.51,5.649,9.2,4.87,12.36c-0.78,3.15-9.07,11.45-13.471,10.46
			c-4.409-1-9.229-5.26-8.1-11.17c1.14-5.92,5.44-8.85,5.44-8.85S128.25,27.402,133.88,29.912z"/>
	</g>
	<g>
	</g>
</g>
<g>
	<path fill-rule="evenodd" clip-rule="evenodd" fill="#333333" d="M125.279,40.168c0.083-0.292,0.228-0.559,0.438-0.801
		c0.188-0.286,0.37-0.464,0.548-0.539c0.279-0.066,0.491-0.052,0.634,0.044c0.163,0.137,0.214,0.322,0.155,0.552
		c0.049,0.238-0.022,0.499-0.211,0.785c-0.21,0.242-0.467,0.428-0.772,0.557c-0.175,0.073-0.345,0.041-0.506-0.098
		C125.42,40.572,125.327,40.406,125.279,40.168z M135.289,29.555c0.329-0.448,0.784-1.076,1.372-1.891
		c0.309,0.49,0.772,0.862,1.396,1.117c0.229,0.058,0.459,0.116,0.691,0.173l-1.488,2.17l-0.122-0.104
		c-0.278-0.296-0.567-0.561-0.874-0.794c-0.08-0.069-0.16-0.138-0.24-0.207C135.713,29.892,135.467,29.737,135.289,29.555z"/>
	<path fill-rule="evenodd" clip-rule="evenodd" fill="#CBCB64" d="M137.501,31.333c0.686,0.279,1.354,0.644,2.005,1.093
		c2.189,1.658,3.33,4.067,3.416,7.227c0.063,3.221-0.99,6.24-3.162,9.057c-2.15,2.86-4.785,4.688-7.908,5.481
		c-2.406,0.648-4.543,0.538-6.402-0.332c-0.249-0.103-0.453-0.223-0.614-0.361c1.079,0.115,2.281-0.027,3.606-0.43
		c3.229-0.787,5.967-2.681,8.211-5.685c2.24-2.897,3.314-6.054,3.222-9.469c-0.063-2.241-0.628-4.143-1.694-5.706
		C137.946,31.895,137.717,31.604,137.501,31.333z"/>
	<path fill-rule="evenodd" clip-rule="evenodd" fill="#F16722" d="M135.289,29.555c0.179,0.182,0.425,0.336,0.735,0.465
		c0.08,0.069,0.16,0.138,0.24,0.207c0.307,0.233,0.596,0.498,0.874,0.794l0.122,0.104c0.063,0.025,0.143,0.094,0.241,0.208
		c0.216,0.271,0.444,0.562,0.679,0.875c1.066,1.563,1.631,3.465,1.694,5.706c0.093,3.415-0.981,6.572-3.222,9.469
		c-2.244,3.004-4.981,4.897-8.211,5.685c-1.325,0.402-2.527,0.545-3.606,0.43c-0.319-0.021-0.584-0.039-0.796-0.053l-0.094-0.038
		c-0.168-0.032-0.336-0.066-0.504-0.099c-1.303-0.277-2.474-0.793-3.511-1.544l-0.091-0.038c-0.143-0.095-0.266-0.199-0.363-0.312
		l-0.095-0.038c-0.698-0.688-1.275-1.449-1.732-2.289c-0.099-0.113-0.165-0.215-0.202-0.302c-0.719-1.349-1.121-2.984-1.208-4.906
		l-0.028-0.065c0.008-3.303,1.145-6.435,3.408-9.394c2.24-2.898,4.945-4.805,8.118-5.723c2.688-0.618,5.07-0.405,7.147,0.638
		c0.034,0.009,0.064,0.022,0.095,0.038l0.095,0.038C135.136,29.438,135.208,29.485,135.289,29.555z M128.083,30.256
		c-2.803,0.814-5.209,2.518-7.215,5.111c-2.03,2.656-3.047,5.454-3.053,8.393c0.036,1.687,0.379,3.115,1.023,4.288
		c0.438,0.797,0.975,1.525,1.611,2.187c0.127,0.049,0.26,0.123,0.402,0.218l0.027,0.064c0.877,0.613,1.849,1.03,2.92,1.252
		l-0.064,0.026c0.105,0.007,0.191,0.023,0.253,0.048c0.087-0.036,0.192-0.029,0.317,0.021c1.096,0.16,2.34,0.051,3.729-0.325
		c2.884-0.745,5.342-2.446,7.373-5.102c1.988-2.637,2.965-5.47,2.932-8.497c-0.01-0.769-0.082-1.486-0.205-2.156l-0.239-0.75
		c-0.251-0.721-0.57-1.36-0.958-1.918l-0.096-0.039c-0.252-0.358-0.507-0.664-0.77-0.915c-0.197-0.227-0.406-0.421-0.632-0.585
		l-0.092-0.039c-0.08-0.069-0.151-0.118-0.214-0.143l-0.027-0.065c-0.27-0.146-0.513-0.3-0.738-0.464l-0.092-0.039l-0.027-0.065
		c-0.394-0.196-0.766-0.35-1.119-0.459C131.584,29.818,129.901,29.802,128.083,30.256z M138.749,28.955
		c-0.232-0.058-0.463-0.116-0.691-0.173c-0.624-0.255-1.088-0.627-1.396-1.117c-0.135-0.2-0.25-0.41-0.342-0.629
		c-0.349-0.833-0.357-1.653-0.027-2.462c0.229-0.56,0.672-0.978,1.33-1.253c0.816-0.394,1.711-0.408,2.688-0.044
		c0.81,0.331,1.43,0.947,1.859,1.85c0.411,0.857,0.467,1.608,0.17,2.249c-0.343,0.659-0.875,1.114-1.594,1.363
		C140.024,28.986,139.358,29.06,138.749,28.955z M118.365,37.866"/>
	<path fill-rule="evenodd" clip-rule="evenodd" d="M127.557,39.522l9.069,3.003l-0.097,0.504l-9.938-1.942L127.557,39.522z
		 M127.563,38.979l-1.428-0.64l7.081-7.453l0.628,0.201L127.563,38.979z"/>
</g>
</svg>
