<?xml version="1.0" encoding="utf-8"?>
<!-- Generator: Adobe Illustrator 15.1.0, SVG Export Plug-In . SVG Version: 6.00 Build 0)  -->
<!DOCTYPE svg PUBLIC "-//W3C//DTD SVG 1.1//EN" "http://www.w3.org/Graphics/SVG/1.1/DTD/svg11.dtd">
<svg version="1.1" id="Layer_1" xmlns="http://www.w3.org/2000/svg" xmlns:xlink="http://www.w3.org/1999/xlink" x="0px" y="0px"
	 width="342.967px" height="338.471px" viewBox="0 0 342.967 338.471" enable-background="new 0 0 342.967 338.471"
	 xml:space="preserve">
<symbol  id="prigun" viewBox="-0.002 -333.75 336.156 333.761">
	<g id="Layer_1_2_">
		<g>
			<path fill-rule="evenodd" clip-rule="evenodd" fill="#48C1C4" d="M68.375-74.925L75.2-73.8l10.75-31.95l-3-1.5l-25.1-12.45
				l-6.35-3.15L44-73.3c4.467,7.967,13.033,15.184,25.7,21.65l3.25-12.4l0.85-3.1l-5.7-0.925L68-65.75
				c-13.733,0.133-20.684-1.7-20.85-5.5c0.233-0.767,0.283-1.017,0.15-0.75c1.033-3.9,3.633-6.75,7.8-8.55
				c4.2-1.867,8.716-2.15,13.55-0.85L68.375-74.925z"/>
			<path fill-rule="evenodd" clip-rule="evenodd" fill="#CADA2A" d="M82.5-49.95l3.175-3.525L72.95-64.05l-3.25,12.4l7.75,7.45
				l1-1.15L82.5-49.95z M68.1-68.075l0.275-6.85L68.65-81.4c-4.833-1.3-9.35-1.017-13.55,0.85c-4.167,1.8-6.767,4.65-7.8,8.55
				c0.133-0.267,0.083-0.017-0.15,0.75c0.167,3.8,7.117,5.633,20.85,5.5L68.1-68.075z"/>
			<path fill-rule="evenodd" clip-rule="evenodd" fill="#FDD29B" d="M68.1-68.075l5.7,0.925l12.55,2.5l14.025,16.425l3.175-3.6
				l-14.9-19.4L75.2-73.8l-6.825-1.125L68.1-68.075z M82.5-49.95l-4.05,4.6l16.95,14.1l16.25,25.1l2-5.5L99.4-34.9L82.5-49.95z
				 M91.525-126.05l5.725,8.25l12.55-7.3c2.051-1.795,1.543-4.187-1.525-7.175c-2.52-2.454-6.778-6.579-12.775-12.375l-3.6,6.85
				l8.05,7.35L91.525-126.05z M71.7-139.175l-6.625-17.975l-10.6-11.3l-5.425,4.275l10.25,11.8l4.2,12.95L71.7-139.175z"/>
			<path fill-rule="evenodd" clip-rule="evenodd" fill="#336698" d="M63.5-139.425l-1.9-0.05c-0.367,0.517-0.684,0.525-0.95,0.025
				c0.01-0.015,0.018-0.031,0.025-0.05l-2.825-0.075v19.875l25.1,12.45l16.75-7.05l-2.45-3.5l-5.725-8.25l-0.775-1.125L78.4-119.85
				l-2.95-2.1l0.65-17.1l-4.4-0.125L63.5-139.425z"/>
			<path fill-rule="evenodd" clip-rule="evenodd" fill="#FDD29B" d="M106.137-37.605l2.219-3.844
				c0.336-0.805,0.472-1.516,0.409-2.133c-0.006-0.632-0.401-1.537-1.188-2.716c-0.777-1.222-1.19-1.847-1.238-1.875
				c-0.029-0.033-0.229-0.245-0.6-0.636c-0.375-0.411-1.493-1.837-3.354-4.281l-3.323,2.239l-0.217,5.023
				c-0.899,2.591-0.596,4.675,0.91,6.254c2.62,3.076,4.225,4.337,4.814,3.783C105.159-36.345,105.682-36.95,106.137-37.605z"/>
			<path fill-rule="evenodd" clip-rule="evenodd" fill="#6D3F3F" d="M33.289-28.308c-1.524,0.406-2.705,1.263-3.54,2.571
				c-0.835,1.308-1.141,2.738-0.917,4.292l7.585-2.04L33.289-28.308z"/>
			<path fill-rule="evenodd" clip-rule="evenodd" fill="#FDD29B" d="M50.5-65.7L47.85-54l8.65,2.35l6.55-12.85h-0.025
				C56.476-64.752,52.301-65.152,50.5-65.7z"/>
			<path fill-rule="evenodd" clip-rule="evenodd" fill="#FDD29B" d="M54.926-34.377c-0.363,1.357-0.23,2.633,0.399,3.83
				c0.684,1.211,1.65,1.984,2.898,2.318c1.267,0.339,2.48,0.15,3.642-0.566c1.171-0.753,1.934-1.79,2.288-3.11
				c0.359-1.338,0.219-2.627-0.419-3.864c-0.647-1.201-1.604-1.971-2.871-2.311c-1.248-0.334-2.471-0.148-3.669,0.558
				C56.05-36.8,55.294-35.752,54.926-34.377z"/>
			<path fill-rule="evenodd" clip-rule="evenodd" fill="#FDD29B" d="M34.336-18.865c1.613,2.158,3.984,3.656,7.114,4.495
				l0.814,0.218c3.148,0.844,5.96,0.734,8.436-0.328c2.619-1.16,4.318-3.196,5.098-6.109l5.643-21.059
				c0.81-3.021,0.429-5.906-1.143-8.654c-1.581-2.712-3.891-4.475-6.93-5.29l-0.814-0.218c-3.04-0.814-5.913-0.44-8.62,1.123
				c-2.729,1.576-4.501,3.884-5.316,6.923l-5.643,21.059C32.19-23.774,32.643-21.161,34.336-18.865z"/>
			<path fill-rule="evenodd" clip-rule="evenodd" fill="#FDD29B" d="M38.517-34.469c1.171-0.753,1.936-1.798,2.295-3.137
				c0.354-1.321,0.212-2.6-0.426-3.837c-0.647-1.201-1.604-1.971-2.871-2.311c-1.249-0.334-2.471-0.148-3.669,0.559
				c-1.144,0.721-1.897,1.76-2.261,3.117c-0.368,1.375-0.238,2.661,0.392,3.857c0.684,1.211,1.65,1.983,2.898,2.318
				C36.142-33.564,37.355-33.753,38.517-34.469z"/>
			<path fill-rule="evenodd" clip-rule="evenodd" fill="#834B4C" d="M56.986-27.63c0.909-0.571,2.019-3.192,3.329-7.863
				c0.685-2.337,1.266-4.615,1.744-6.833c1.31-4.671,1.323-8.12,0.038-10.345c-0.596-1.032-1.492-1.883-2.689-2.553
				c-1.008-0.58-2.39-1.105-4.145-1.576l-3.392-0.909c-1.683-0.451-3.135-0.675-4.357-0.673c-1.322,0.014-2.525,0.341-3.608,0.982
				c-2.186,1.354-3.96,4.465-5.323,9.335c-0.64,2.098-1.253,4.279-1.841,6.545c-1.117,4.529-1.442,7.264-0.977,8.203l2.574-9.606
				c0.451-1.683,1.422-2.993,2.915-3.931c1.465-0.907,3.002-1.145,4.612-0.713l9.525,2.552c1.61,0.431,2.823,1.406,3.638,2.923
				s0.992,3.136,0.532,4.854L56.986-27.63z"/>
			<path fill-rule="evenodd" clip-rule="evenodd" fill="#834B4C" d="M53.357-20.924c-1.499,1.034-3.053,1.334-4.663,0.903
				l-9.525-2.553c-1.61-0.431-2.806-1.469-3.586-3.113c-0.794-1.667-0.947-3.414-0.457-5.242l2.799-10.448
				c-0.877,0.598-2.23,3.765-4.058,9.5c-0.558,1.79-1.135,3.729-1.734,5.818l-0.725,2.598c-0.369,1.375-0.441,2.441-0.217,3.199
				c0.216,0.64,0.688,1.086,1.415,1.339c0.551,0.187,1.458,0.352,2.718,0.496c1.537,0.199,2.722,0.41,3.554,0.632l6.676,6.239
				c2.768,0.742,4.924,0.767,6.467,0.075c1.785-0.802,3.056-2.613,3.812-5.436l2.106-8.511c1.29-5.898,1.693-9.319,1.208-10.264
				l-2.799,10.448C55.852-23.396,54.855-21.957,53.357-20.924z"/>
			<path fill-rule="evenodd" clip-rule="evenodd" fill="#834B4C" d="M55.239-40.431c1.781-0.279,2.943-1.432,3.486-3.458
				c0.596-2.225,0.314-4.356-0.847-6.393c-1.17-2-2.886-3.304-5.147-3.91c-2.226-0.596-4.354-0.323-6.386,0.819
				c-2.019,1.166-3.329,2.87-3.93,5.113c-0.543,2.026-0.113,3.605,1.29,4.738c1.017,0.835,2.865,1.611,5.542,2.329
				C51.943-40.47,53.94-40.216,55.239-40.431z"/>
			<path fill-rule="evenodd" clip-rule="evenodd" fill="#FDD29B" d="M55.469-45.197l0.631,0.14c0.16-0.597-0.204-1.228-1.093-1.893
				c-0.852-0.655-1.993-1.174-3.422-1.557c-1.411-0.378-2.659-0.499-3.742-0.363s-1.706,0.503-1.865,1.1
				c0.688,0.184,1.389,0.459,2.105,0.826c1.427,0.751,2.224,1.614,2.389,2.589c0.734-0.715,1.901-1.052,3.5-1.011
				C54.531-45.352,55.03-45.295,55.469-45.197z"/>
			<path fill-rule="evenodd" clip-rule="evenodd" fill="#6D3F3F" d="M31.848-13.598c0.788,0.463,1.656,0.841,2.605,1.134
				c1.994,0.592,3.47,0.474,4.429-0.355c-0.049,0.763-0.417,1.594-1.105,2.496l-1,1.128c0.791,0.231,1.68,0.353,2.666,0.365
				c1.976,0.006,3.414-0.549,4.314-1.665c0.441,0.235,0.767,0.613,0.976,1.134l0.213,0.726c0.254-0.009,0.719-0.079,1.394-0.208
				c1.226-0.234,2.628-0.692,4.208-1.374c1.752-0.752,3.118-1.938,4.094-3.557c0.491-0.819,0.794-1.552,0.91-2.2l1.845-7.213
				l-0.321,0.438c-0.338,0.394-0.687,0.718-1.045,0.971c-1.225,0.952-2.628,1.342-4.211,1.169c-1.61-0.141-3.205-0.81-4.784-2.009
				c-0.776-0.576-1.417-1.155-1.92-1.736c-4.592,1-7.979,0.47-10.162-1.588c-0.693-0.67-1.205-1.438-1.536-2.302
				c-0.179-0.417-0.285-0.784-0.315-1.103l-4.636,11.003c0.349,0.365,0.857,0.637,1.527,0.816c1.356,0.364,2.863,0.099,4.518-0.796
				c-0.545,1.095-1.164,2.209-1.855,3.342L31.848-13.598z"/>
			<path fill-rule="evenodd" clip-rule="evenodd" fill="#030404" d="M51.393-30.961c-0.243,0.11-0.4,0.3-0.473,0.572
				c-0.068,0.253-0.029,0.506,0.117,0.758c0.119,0.207,0.306,0.344,0.559,0.412c0.29,0.078,0.546,0.059,0.771-0.055
				c0.216-0.156,0.358-0.36,0.426-0.613c0.073-0.271,0.05-0.51-0.069-0.717c-0.146-0.252-0.354-0.415-0.626-0.487
				C51.844-31.16,51.609-31.117,51.393-30.961z"/>
			<path fill-rule="evenodd" clip-rule="evenodd" fill="#030404" d="M40.782-33.805c-0.243,0.11-0.401,0.3-0.473,0.572
				c-0.068,0.253-0.029,0.506,0.117,0.758c0.119,0.207,0.305,0.344,0.559,0.412c0.29,0.078,0.546,0.059,0.771-0.055
				c0.188-0.124,0.321-0.331,0.399-0.621c0.078-0.289,0.063-0.525-0.042-0.709c-0.146-0.252-0.354-0.415-0.625-0.487
				C41.233-34.003,40.998-33.96,40.782-33.805z"/>
			<g>
				<path fill-rule="evenodd" clip-rule="evenodd" fill="#1C597B" d="M88.8-141.15c2.566,2.662,4.3,4.461,5.2,5.4l5.5-4.925
					c-0.912-0.82-2.554-2.471-4.925-4.95c-4.977-5.212-8.985-9.429-12.025-12.65c-3.036-3.22-5.052-4.879-6.05-4.975
					c-1-0.067-1.867,0.233-2.6,0.9c-0.7,0.6-1.083,1.417-1.15,2.45c-0.036,0.997,1.289,2.98,3.975,5.95
					C79.415-150.976,83.44-146.709,88.8-141.15z"/>
				<path fill-rule="evenodd" clip-rule="evenodd" fill="#D8D1BD" d="M86.231-163.599l-1.877-6.68l-15.846,4.244l1.693,6.322
					c0.247,0.923,0.795,1.629,1.644,2.119s1.734,0.611,2.657,0.364l9.171-2.456c-0.124-0.897,0.064-1.714,0.565-2.449
					C84.699-162.878,85.363-163.366,86.231-163.599z"/>
				<path fill-rule="evenodd" clip-rule="evenodd" fill="#EBE4DF" d="M89.661-169.141l-0.639-2.388l-10.528,2.819l0.64,2.388
					c0.315,1.176,1.011,2.075,2.089,2.697c1.06,0.627,2.178,0.784,3.353,0.469l1.927-0.516c1.23-0.33,2.129-1.026,2.697-2.089
					C89.827-166.82,89.981-167.947,89.661-169.141z"/>
				<path fill-rule="evenodd" clip-rule="evenodd" fill="#EBE4DF" d="M73.048-161.464c0.596-1.032,0.734-2.145,0.415-3.338
					l-0.64-2.388l-4.314,1.155l1.693,6.322l0.156,0.365C71.542-159.703,72.438-160.409,73.048-161.464z"/>
				<path fill-rule="evenodd" clip-rule="evenodd" fill="#D8D1BD" d="M77.51-158.268l0.204,0.76
					c0.146,0.542,0.468,0.951,0.968,1.224c0.491,0.314,1.008,0.398,1.551,0.253l2.144-0.574c0.561-0.15,0.976-0.484,1.244-1.002
					c0.278-0.482,0.344-0.994,0.199-1.537l-0.203-0.76L77.51-158.268z"/>
				<polygon fill-rule="evenodd" clip-rule="evenodd" fill="#D8D1BD" points="89.646,-171.696 68.509,-166.035 69.104,-163.81 
					90.242,-169.471 				"/>
				
					<line fill-rule="evenodd" clip-rule="evenodd" fill="none" stroke="#070808" stroke-width="1.35" stroke-linecap="round" x1="80.661" y1="-159.751" x2="83.672" y2="-160.558"/>
				
					<line fill-rule="evenodd" clip-rule="evenodd" fill="none" stroke="#070808" stroke-width="1.35" stroke-linecap="round" x1="81.303" y1="-161.697" x2="84.287" y2="-162.497"/>
			</g>
			<g>
				<path fill-rule="evenodd" clip-rule="evenodd" fill="#1C597B" d="M50.875-163.061c0.381-0.42,0.94-0.986,1.679-1.698
					c0.739-0.712,1.444-1.372,2.116-1.976c0.672-0.605,0.815-1.099,0.427-1.479l-19.321-19.288
					c-0.728-0.729-1.602-1.112-2.621-1.152c-1.006-0.053-1.86,0.258-2.563,0.933c-0.688,0.688-1.033,1.536-1.033,2.542
					c0.066,1.019,0.45,1.906,1.152,2.661l18.546,18.99C49.958-162.798,50.497-162.643,50.875-163.061z"/>
				<g>
					<path fill-rule="evenodd" clip-rule="evenodd" fill="#D8D1BD" d="M34.945-181.658l7.146-8.305
						c-0.716-0.758-1.081-1.643-1.095-2.653c-0.03-1.024,0.299-1.938,0.99-2.74l-6.131-5.147l-12.347,14.35l5.724,4.925
						c0.852,0.733,1.833,1.05,2.944,0.951C33.261-180.313,34.184-180.773,34.945-181.658z"/>
					<path fill-rule="evenodd" clip-rule="evenodd" fill="#EBE4DF" d="M42.118-203.41l-2.162-1.86l-8.224,9.559l2.162,1.86
						c1.064,0.916,2.313,1.32,3.745,1.212c1.418-0.091,2.592-0.677,3.522-1.759l1.501-1.744c0.944-1.098,1.356-2.354,1.234-3.771
						C43.792-201.314,43.199-202.48,42.118-203.41z"/>
					<path fill-rule="evenodd" clip-rule="evenodd" fill="#EBE4DF" d="M29.597-180.958c0.897-1.109,1.293-2.365,1.188-3.767
						c-0.088-1.388-0.673-2.546-1.754-3.476l-2.162-1.86l-3.361,3.907l5.724,4.925L29.597-180.958z"/>
					<path fill-rule="evenodd" clip-rule="evenodd" fill="#D8D1BD" d="M43.407-188.182l-1.602-2.42l-4.979,5.752l0.538,0.789
						c0.358,0.525,0.832,0.844,1.421,0.955c0.692,0.169,1.324,0.06,1.893-0.328l2.102-1.433c0.489-0.365,0.799-0.898,0.932-1.598
						C43.867-187.084,43.765-187.656,43.407-188.182z"/>
					<polygon fill-rule="evenodd" clip-rule="evenodd" fill="#D8D1BD" points="25.522,-184.42 41.97,-203.537 39.956,-205.271 
						23.508,-186.154 					"/>
					
						<line fill-rule="evenodd" clip-rule="evenodd" fill="none" stroke="#070808" stroke-width="1.35" stroke-linecap="round" x1="38.944" y1="-187.796" x2="41.291" y2="-190.524"/>
					
						<line fill-rule="evenodd" clip-rule="evenodd" fill="none" stroke="#070808" stroke-width="1.35" stroke-linecap="round" x1="38.291" y1="-190.068" x2="40.638" y2="-192.796"/>
				</g>
			</g>
			<path fill-rule="evenodd" clip-rule="evenodd" fill="#FDD29B" d="M126.458-6.437l-2.219-3.844
				c-0.529-0.693-1.077-1.167-1.642-1.42c-0.55-0.311-1.532-0.421-2.946-0.33c-1.447,0.062-2.195,0.106-2.243,0.134
				c-0.043,0.009-0.327,0.076-0.851,0.201c-0.543,0.12-1.874-0.063-3.991-0.548l-1.116,5.31l4.242,2.7
				c1.794,2.074,3.751,2.854,5.871,2.339c3.974-0.731,5.868-1.491,5.683-2.278C127.061-4.959,126.798-5.714,126.458-6.437z"/>
		</g>
		<g>
			<path fill-rule="evenodd" clip-rule="evenodd" fill="#986632" d="M115.55-11.05c1.24-0.618,2.665-0.885,4.275-0.8
				c-4.668-8.466-9.21-16.891-13.625-25.275c-0.538,0.305-1.146,0.555-1.825,0.75c-0.558,0.481-1.132,0.939-1.725,1.375
				C106.838-27.052,111.138-19.069,115.55-11.05z M123.9-0.25c0.495-0.284,0.82-0.701,0.975-1.25
				c0.157-0.539,0.099-1.056-0.175-1.55c-0.359-0.643-0.718-1.284-1.075-1.925c-1.219,0.657-2.46,1.249-3.725,1.775
				c0.397,0.713,0.797,1.43,1.2,2.15c0.284,0.493,0.7,0.818,1.25,0.975C122.891,0.083,123.407,0.024,123.9-0.25z M83.7-72.3l5.1,1.2
				C48.382-153.077,20.132-230.693,4.05-303.95c-0.123-0.547-0.422-0.973-0.9-1.275c-0.48-0.306-0.997-0.397-1.55-0.275
				c-0.547,0.122-0.973,0.422-1.275,0.9c-0.305,0.48-0.396,0.997-0.275,1.55C16.058-230.053,43.941-153.136,83.7-72.3z
				 M89.175-61.175c3.185,6.348,6.209,12.29,9.075,17.825c0.329-2.097,0.696-3.58,1.1-4.45c0.404-0.869,0.521-1.177,0.35-0.925
				c-4.006-4.832-7.198-8.657-9.575-11.475C89.809-60.518,89.493-60.843,89.175-61.175z"/>
		</g>
		<g>
			<path fill-rule="evenodd" clip-rule="evenodd" fill="#FDD29B" d="M241.486-193.772l-2.353,4.207
				c-0.356,0.881-0.5,1.659-0.434,2.333c0.006,0.692,0.426,1.683,1.259,2.973c0.823,1.337,1.261,2.021,1.312,2.052
				c0.031,0.036,0.243,0.268,0.636,0.696c0.398,0.449,1.383,1.697,2.955,3.745l4.125-1.51l0.23-5.498
				c0.954-2.835,0.632-5.117-0.964-6.845c-2.778-3.366-4.479-4.746-5.104-4.14C242.523-195.151,241.969-194.49,241.486-193.772z"/>
		</g>
		<g>
			<polygon fill-rule="evenodd" clip-rule="evenodd" fill="#676767" points="119.05,-310.65 111.9,-310.65 111.9,-52.9 
				119.05,-52.6 			"/>
			<polygon fill-rule="evenodd" clip-rule="evenodd" fill="#F7971D" points="111.9,-310.65 119.05,-310.65 131.15,-310.65 
				140.45,-333.75 92.7,-333.75 102.55,-310.65 			"/>
		</g>
		<g>
			<polygon fill-rule="evenodd" clip-rule="evenodd" fill="#676767" points="215.7,-283.55 208.55,-283.55 208.55,-37.9 
				215.7,-37.6 			"/>
			<polygon fill-rule="evenodd" clip-rule="evenodd" fill="#F7971D" points="208.55,-283.55 215.7,-283.55 227.8,-283.55 
				237.1,-305.55 189.35,-305.55 199.2,-283.55 			"/>
		</g>
		<g>
			<path fill-rule="evenodd" clip-rule="evenodd" fill="#676767" d="M233.1-68.75c-0.354-0.563-0.854-0.922-1.5-1.075l-136.65-32.85
				c-0.639-0.159-1.239-0.067-1.8,0.275c-0.564,0.353-0.922,0.853-1.075,1.5c-0.159,0.638-0.068,1.238,0.275,1.8
				c0.354,0.563,0.854,0.922,1.5,1.075l136.65,32.85c0.64,0.16,1.239,0.068,1.8-0.275c0.564-0.353,0.922-0.853,1.075-1.5
				C233.534-67.589,233.443-68.188,233.1-68.75z"/>
			<g>
				<path fill-rule="evenodd" clip-rule="evenodd" fill="#CCCBCB" d="M121.05-89.8c1.367,0,2.533-0.483,3.5-1.45
					c1-1,1.5-2.184,1.5-3.55s-0.5-2.533-1.5-3.5c-0.967-1-2.133-1.5-3.5-1.5H111c-1.367,0-2.55,0.5-3.55,1.5
					c-0.966,0.967-1.45,2.133-1.45,3.5s0.483,2.55,1.45,3.55c1,0.967,2.184,1.45,3.55,1.45H121.05z"/>
			</g>
			<g>
				<path fill-rule="evenodd" clip-rule="evenodd" fill="#CCCBCB" d="M206.3-66.75h10.05c1.367,0,2.533-0.483,3.5-1.45
					c1-1,1.5-2.183,1.5-3.55s-0.5-2.533-1.5-3.5c-0.967-1-2.133-1.5-3.5-1.5H206.3c-1.367,0-2.55,0.5-3.55,1.5
					c-0.967,0.967-1.45,2.133-1.45,3.5s0.483,2.55,1.45,3.55C203.75-67.233,204.933-66.75,206.3-66.75z"/>
			</g>
		</g>
		<g>
			<path fill-rule="evenodd" clip-rule="evenodd" fill="#FFCC05" d="M271.7-182.5h-8.1l6.9,42.35l-6.75-13.55l-1.05,0.85l-5.3,4.3
				l-2.85,2.35l12.9,18.55l9.3,2.85c0.267-1.966,1.117-3.65,2.55-5.05c1.6-1.5,3.434-2.183,5.5-2.05c2.1,0.167,3.833,1.1,5.2,2.8
				c1.033,1.2,1.683,2.733,1.95,4.6l8.1-2.55l14.25-12.05l-0.65-1.75l-2.2-5.65l-2.2-5.65l-11.35,10.7l4.7-41.05h-3.9h-10.9h-3.65
				H271.7z"/>
			<path fill-rule="evenodd" clip-rule="evenodd" fill="#FCCB98" d="M313.65-140.85l5.15-3.2l9.7,9.7l2.3-4l-12-13.55l-7.35,5.4
				L313.65-140.85z M257.4-148.55l5.3-4.3l-15-29.7l-4.4,2.8L257.4-148.55z M280.15-199.4v-53.4h-6.8v53.4H280.15z M290.1-199.4h6.8
				v-53.4h-6.8V-199.4z M291.95-124.5c-0.267-1.867-0.917-3.4-1.95-4.6c-1.367-1.7-3.1-2.633-5.2-2.8
				c-2.066-0.133-3.9,0.55-5.5,2.05c-1.433,1.4-2.283,3.083-2.55,5.05l3.15,0.95l8.95,0.4L291.95-124.5z"/>
			<path fill-rule="evenodd" clip-rule="evenodd" fill="#979797" d="M298.7-182.5l2.35-16.9h-4.15h-6.8h-2.3v16.9H298.7z
				 M280.15-199.4h-6.8h-4.2l2.55,16.9h12.45v-16.9H280.15z"/>
			<path fill-rule="evenodd" clip-rule="evenodd" fill="#359846" d="M299.1-261.9l-24.55-0.55l0.75,0.75l-18.25-0.35l4.4,4.35
				l10.9,4.25h0.2l7.6-1.25l0.55-0.1c-0.133-0.333-0.15-0.8-0.05-1.4l0.2-1.1l9,3.45l7.75-1.25l0.6-0.05
				c-0.167-0.333-0.216-0.817-0.15-1.45L299.1-261.9z"/>
			<polygon fill-rule="evenodd" clip-rule="evenodd" fill="#CCCBCB" points="257.05,-262.05 275.3,-261.7 274.55,-262.45 
				299.1,-261.9 299.7,-265.15 274.1,-265.7 274.1,-264.95 256.65,-265.3 256.65,-262.45 			"/>
			<path fill-rule="evenodd" clip-rule="evenodd" fill="#DAB794" d="M297.6-255.1l-7.75,1.25v1.05h0.25h6.8h0.7V-255.1z
				 M273.35-252.8h6.8v-1.9l-7.6,1.25v0.65H273.35z"/>
			<g>
				<path fill-rule="evenodd" clip-rule="evenodd" fill="#FCCB98" d="M278.35-85.8c1.733,1.567,2.667,2.45,2.8,2.65l0.25,0.35
					c3.833-4.733,8.883-8.633,15.15-11.7c0.033-0.033,0.067-0.083,0.1-0.15c-0.167-2-0.533-3.684-1.1-5.05
					c-0.566-1.4-1.316-2.816-2.25-4.25l2.15-1.4l2.2,4.15c1.867-0.667,2.4-1.95,1.6-3.85c-0.833-1.867-2.267-2.25-4.3-1.15
					c-0.333-1.033-1.433-2.85-3.3-5.45c-1.033-1.3-2-2.4-2.9-3.3v-10.15h-8.95v7.6c0.067,0,0.117,0,0.15,0
					c-2.433,0.633-4.383,1.55-5.85,2.75c-1.8,1.5-2.833,3.367-3.1,5.6c-0.267,2.3,0,4.867,0.8,7.7c0.8,2.833,1.567,5.333,2.3,7.5
					c-1.267,0.4-1.883,0.917-1.85,1.55c0.033,0.7,0.333,1.45,0.9,2.25c0.533,0.8,1.017,1.133,1.45,1c0.4-0.167,0.966-0.3,1.7-0.4
					C277.533-87.417,278.217-86.167,278.35-85.8z M286.8-100.85c0.4,0,0.767,0.167,1.1,0.5c0.267,0.3,0.4,0.7,0.4,1.2
					c0,0.433-0.133,0.816-0.4,1.15c-0.333,0.267-0.7,0.4-1.1,0.4c-0.433,0-0.816-0.133-1.15-0.4c-0.267-0.333-0.4-0.717-0.4-1.15
					c0-0.5,0.133-0.9,0.4-1.2C285.983-100.684,286.367-100.85,286.8-100.85z M278.4-94.2c0,0.467-0.133,0.85-0.4,1.15
					c-0.3,0.3-0.633,0.45-1,0.45h-0.15c-0.333-0.033-0.633-0.183-0.9-0.45c-0.267-0.3-0.4-0.683-0.4-1.15c0-0.433,0.133-0.8,0.4-1.1
					c0.3-0.367,0.65-0.55,1.05-0.55c0.367,0,0.7,0.183,1,0.55c0.267,0.3,0.4,0.65,0.4,1.05V-94.2z M278.4-111.3
					c1.567-0.6,2.883-0.65,3.95-0.15c0.733,0.367,1.617,1.233,2.65,2.6l-10.85,4.75c-0.267-1.5-0.3-2.617-0.1-3.35
					C274.45-109.15,275.9-110.434,278.4-111.3z"/>
				<path fill-rule="evenodd" clip-rule="evenodd" d="M278.35-85.8c-0.267,0.1-0.817,0.15-1.65,0.15
					c0.167,0.5,0.284,1.216,0.35,2.15c0.067,0.767,0.133,1.233,0.2,1.4c0.1,0.333,0.467,0.917,1.1,1.75
					c0.667,0.833,3.5,1.517,8.5,2.05c4.933,0.5,7.816,0.35,8.65-0.45c0.8-0.8,1.717-1.917,2.75-3.35l1.95-1.1
					c1.4-0.333,2.333-0.867,2.8-1.6c0.2-0.3,0.367-1.1,0.5-2.4c0.066-1.133,0.066-2.017,0-2.65c-0.133-1.033-0.367-2.483-0.7-4.35
					c-0.433-1.867-0.75-3.483-0.95-4.85c-1.034-0.4-2.083-0.367-3.15,0.1l-1.05-2.25l-2.2-4.15l-2.15,1.4
					c0.934,1.434,1.684,2.85,2.25,4.25c0.567,1.367,0.934,3.05,1.1,5.05c-0.033,0.066-0.067,0.117-0.1,0.15
					c-6.267,3.066-11.316,6.967-15.15,11.7l-0.25-0.35C281.017-83.35,280.083-84.233,278.35-85.8z M278.4-94.2v-0.05
					c0-0.4-0.133-0.75-0.4-1.05c-0.3-0.367-0.633-0.55-1-0.55c-0.4,0-0.75,0.183-1.05,0.55c-0.267,0.3-0.4,0.667-0.4,1.1
					c0,0.467,0.133,0.85,0.4,1.15c0.267,0.267,0.567,0.417,0.9,0.45H277c0.367,0,0.7-0.15,1-0.45
					C278.267-93.35,278.4-93.733,278.4-94.2z M286.8-100.85c-0.433,0-0.816,0.167-1.15,0.5c-0.267,0.3-0.4,0.7-0.4,1.2
					c0,0.433,0.133,0.816,0.4,1.15c0.333,0.267,0.717,0.4,1.15,0.4c0.4,0,0.767-0.133,1.1-0.4c0.267-0.333,0.4-0.717,0.4-1.15
					c0-0.5-0.133-0.9-0.4-1.2C287.566-100.684,287.2-100.85,286.8-100.85z"/>
				<path fill-rule="evenodd" clip-rule="evenodd" fill="#FFFFFF" d="M278.4-111.3c-2.5,0.867-3.95,2.15-4.35,3.85
					c-0.2,0.733-0.167,1.85,0.1,3.35l10.85-4.75c-1.033-1.367-1.917-2.233-2.65-2.6C281.283-111.95,279.967-111.9,278.4-111.3z"/>
			</g>
			<g>
				<path fill-rule="evenodd" clip-rule="evenodd" fill="#986632" d="M324.1-22.1c0.566,0.033,1.066-0.167,1.5-0.6
					c0.367-0.367,0.566-0.867,0.6-1.5l9.9-238.75c0.033-0.6-0.15-1.117-0.55-1.55c-0.4-0.4-0.883-0.617-1.45-0.65
					c-0.6-0.034-1.083,0.15-1.45,0.55c-0.433,0.4-0.667,0.9-0.7,1.5L322.1-24.35c-0.034,0.6,0.15,1.1,0.55,1.5
					C323.017-22.383,323.5-22.133,324.1-22.1z"/>
			</g>
			<path fill-rule="evenodd" clip-rule="evenodd" fill="#FCCB98" d="M333.379-122.318l2.333-4.213
				c0.353-0.875,0.495-1.66,0.424-2.353c0-0.693-0.406-1.66-1.219-2.9c-0.247-0.392-1.572-2.544-3.976-6.458
				c-0.106,5.642-0.901,8.524-2.385,8.646h-2.12l0.105-2.189c-2.161,3.108-2.32,5.425-0.477,6.95l2.173-0.711
				c0.466,0.747,0.961,1.54,1.484,2.381c0.526,0.839,1.039,1.24,1.537,1.204C331.755-121.994,332.462-122.113,333.379-122.318z"/>
		</g>
	</g>
</symbol>
<g>
	<g id="Layer_1_1_">
	</g>
	<g id="Layer_3">
	</g>
	<g id="Layer_2">
	</g>
	<g id="Layer_4">
		
			<use xlink:href="#prigun"  width="336.156" height="333.761" x="-0.002" y="-333.75" transform="matrix(1 0 0 -1 3.3564 2.5049)" overflow="visible"/>
	</g>
</g>
</svg>
