<?xml version="1.0" encoding="utf-8"?>
<!-- Generator: Adobe Illustrator 15.1.0, SVG Export Plug-In . SVG Version: 6.00 Build 0)  -->
<!DOCTYPE svg PUBLIC "-//W3C//DTD SVG 1.1//EN" "http://www.w3.org/Graphics/SVG/1.1/DTD/svg11.dtd">
<svg version="1.1" xmlns="http://www.w3.org/2000/svg" xmlns:xlink="http://www.w3.org/1999/xlink" x="0px" y="0px"
	 width="700.862px" height="386.205px" viewBox="0 0 700.862 386.205" enable-background="new 0 0 700.862 386.205"
	 xml:space="preserve">
<g id="Layer_2_1_">
	<rect fill="#FFFFFF" width="700.862" height="386.205"/>
</g>
<g id="Layer_1">
	<g>
		<g id="Layer_2">
			<polygon fill-rule="evenodd" clip-rule="evenodd" points="34.298,17.252 27.765,17.252 27.765,44.434 16.613,44.434 
				16.613,17.252 9.729,17.252 22.711,3.487 			"/>
			<g>
				<rect x="62.959" y="301.351" fill-rule="evenodd" clip-rule="evenodd" fill="#FFFF00" width="32.061" height="53.49"/>
				<path fill-rule="evenodd" clip-rule="evenodd" fill="#339900" d="M199.825,236.968h32.93v117.873h-32.93V236.968z
					 M129.432,261.013h32.932v93.828h-32.932V261.013z"/>
				<g>
					<rect x="336.079" y="175.159" fill-rule="evenodd" clip-rule="evenodd" fill="#339900" width="32.932" height="179.639"/>
				</g>
				<g>
					<rect x="407.342" y="130.784" fill-rule="evenodd" clip-rule="evenodd" fill="#339900" width="32.93" height="224.068"/>
				</g>
				<g>
					<rect x="545.077" y="98.446" fill-rule="evenodd" clip-rule="evenodd" fill="#339900" width="32.932" height="256.395"/>
				</g>
				<g>
					<rect x="267.081" y="224.944" fill-rule="evenodd" clip-rule="evenodd" fill="#FF0000" width="32.932" height="129.896"/>
				</g>
				<g>
					<rect x="476.952" y="146.437" fill-rule="evenodd" clip-rule="evenodd" fill="#FF0000" width="32.93" height="208.389"/>
				</g>
			</g>
			<g>
				<path fill-rule="evenodd" clip-rule="evenodd" fill="#006600" d="M524.518,101.671c0.746-0.002,1.387,0.26,1.914,0.785
					c0.527,0.529,0.787,1.168,0.785,1.916c0.002,0.748-0.258,1.387-0.785,1.916c-0.527,0.525-1.168,0.785-1.914,0.785H46.145
					c-0.748,0-1.385-0.26-1.916-0.785c-0.524-0.529-0.786-1.168-0.783-1.916c-0.003-0.748,0.258-1.387,0.783-1.916
					c0.531-0.525,1.168-0.787,1.916-0.785H524.518z"/>
			</g>
			<g>
				
					<path fill-rule="evenodd" clip-rule="evenodd" fill="none" stroke="#000000" stroke-width="2.1" stroke-linecap="round" stroke-linejoin="round" stroke-miterlimit="3" d="
					M45.188,356.929h0.957V27.795 M595.344,356.929H46.145v2.877"/>
			</g>
			<g>
				<path fill-rule="evenodd" clip-rule="evenodd" fill="#FFCC00" d="M589.594,44.304c0.477-0.007,0.881,0.153,1.221,0.479
					c0.324,0.337,0.484,0.743,0.479,1.219c0.006,0.476-0.154,0.881-0.479,1.219c-0.34,0.325-0.744,0.485-1.221,0.479H46.145
					c-0.473,0.006-0.881-0.154-1.218-0.479c-0.327-0.338-0.487-0.744-0.48-1.219c-0.007-0.476,0.153-0.882,0.48-1.219
					c0.337-0.327,0.745-0.486,1.218-0.479H589.594z"/>
			</g>
			<g>
				<path fill-rule="evenodd" clip-rule="evenodd" d="M588.549,103.372c0.475-0.008,0.883,0.152,1.221,0.477
					c0.324,0.34,0.484,0.744,0.479,1.221c0.006,0.475-0.154,0.883-0.479,1.219c-0.338,0.326-0.746,0.486-1.221,0.479h-63.99v26.268
					c0.008,0.475-0.152,0.881-0.477,1.221c-0.34,0.324-0.746,0.484-1.221,0.479h-66.166v25.656c0.004,0.475-0.156,0.883-0.48,1.219
					c-0.338,0.326-0.744,0.486-1.221,0.48h-64.945v25.395c0.006,0.475-0.152,0.881-0.48,1.221c-0.336,0.324-0.744,0.484-1.219,0.479
					h-66.602v25.92c0.006,0.473-0.153,0.881-0.48,1.217c-0.337,0.326-0.746,0.486-1.218,0.48h-65.733v27.225
					c0.005,0.477-0.155,0.881-0.478,1.219c-0.339,0.326-0.746,0.486-1.222,0.48h-67.995v25.135c0.005,0.473-0.155,0.881-0.479,1.219
					c-0.338,0.326-0.745,0.484-1.221,0.479h-65.295v26.963c0.006,0.477-0.153,0.881-0.48,1.219c-0.337,0.326-0.744,0.486-1.218,0.48
					H46.145c-0.473,0.006-0.881-0.154-1.218-0.48c-0.327-0.338-0.487-0.742-0.48-1.219c-0.007-0.477,0.153-0.881,0.48-1.219
					c0.337-0.326,0.745-0.486,1.218-0.479h68.085v-26.963c-0.007-0.477,0.153-0.883,0.478-1.223c0.339-0.322,0.744-0.482,1.22-0.479
					h65.295v-25.133c-0.007-0.477,0.152-0.881,0.479-1.223c0.337-0.322,0.745-0.482,1.219-0.475h67.997v-27.225
					c-0.006-0.477,0.153-0.883,0.48-1.223c0.337-0.322,0.746-0.482,1.218-0.479h65.733v-25.918
					c-0.005-0.475,0.155-0.883,0.478-1.219c0.339-0.326,0.745-0.486,1.222-0.48h66.601V160.39c-0.006-0.477,0.154-0.881,0.479-1.221
					c0.338-0.324,0.746-0.484,1.221-0.477h64.947v-25.658c-0.008-0.475,0.152-0.883,0.479-1.219c0.338-0.326,0.744-0.486,1.219-0.48
					h66.168v-24.568h-0.479c-0.475,0.008-0.883-0.152-1.221-0.479c-0.324-0.336-0.484-0.744-0.479-1.219
					c-0.006-0.477,0.154-0.881,0.479-1.221c0.338-0.324,0.746-0.484,1.221-0.477h0.609c0.09-0.174,0.207-0.334,0.348-0.48
					c0.34-0.328,0.746-0.486,1.221-0.48c0.475-0.006,0.881,0.152,1.221,0.48c0.141,0.146,0.256,0.307,0.348,0.48H588.549z"/>
			</g>
			<g>
				<path fill-rule="evenodd" clip-rule="evenodd" fill="#660099" d="M594.387,297.821c0.477-0.008,0.879,0.152,1.219,0.479
					c0.326,0.338,0.486,0.742,0.48,1.219c0.006,0.477-0.154,0.881-0.48,1.219c-0.34,0.326-0.742,0.486-1.219,0.48H117.671
					c-0.476,0.006-0.881-0.154-1.22-0.48c-0.325-0.338-0.484-0.742-0.478-1.219c-0.006-0.477,0.153-0.881,0.478-1.219
					c0.339-0.326,0.744-0.486,1.22-0.479H594.387z"/>
			</g>
			<g>
				<path d="M272.666,376.989v-13.344h4.309c1.518,0,2.656,0.266,3.415,0.797c0.759,0.53,1.138,1.334,1.138,2.409
					c0,0.333-0.039,0.658-0.118,0.975c-0.078,0.316-0.199,0.607-0.362,0.873c-0.163,0.266-0.368,0.5-0.612,0.704
					c-0.245,0.205-0.535,0.364-0.868,0.48c0.333,0.055,0.652,0.161,0.955,0.321s0.568,0.367,0.796,0.623
					c0.228,0.255,0.409,0.557,0.541,0.903c0.133,0.347,0.199,0.735,0.199,1.164c0,1.361-0.456,2.384-1.368,3.067
					c-0.912,0.685-2.229,1.026-3.951,1.026H272.666z M278.914,367.29c0-0.251-0.041-0.479-0.123-0.684
					c-0.082-0.204-0.212-0.378-0.393-0.521c-0.18-0.144-0.412-0.254-0.694-0.332c-0.283-0.078-0.625-0.117-1.026-0.117h-1.521v3.532
					h1.521c0.409,0,0.754-0.049,1.037-0.148c0.282-0.099,0.514-0.234,0.694-0.408c0.18-0.173,0.31-0.372,0.388-0.597
					C278.875,367.791,278.914,367.549,278.914,367.29z M276.913,374.938c0.401,0,0.754-0.052,1.057-0.153
					c0.303-0.103,0.557-0.243,0.761-0.424s0.359-0.393,0.464-0.638s0.158-0.507,0.158-0.786c0-0.579-0.216-1.031-0.648-1.358
					c-0.433-0.326-1.094-0.49-1.986-0.49h-1.562v3.85H276.913z"/>
				<path d="M293.595,371.619c0,0.953-0.135,1.776-0.403,2.471c-0.269,0.694-0.643,1.271-1.123,1.73s-1.046,0.8-1.7,1.021
					c-0.654,0.222-1.365,0.332-2.134,0.332c-0.259,0-0.518-0.017-0.776-0.051c-0.259-0.034-0.494-0.078-0.705-0.133v4.053h-2.491
					v-14.426h2.154l0.061,1.532c0.211-0.266,0.431-0.508,0.659-0.726s0.475-0.403,0.74-0.556c0.266-0.153,0.551-0.271,0.857-0.353
					c0.307-0.082,0.65-0.123,1.031-0.123c0.613,0,1.157,0.123,1.633,0.368c0.477,0.245,0.876,0.594,1.2,1.046
					c0.323,0.453,0.57,1.001,0.74,1.644C293.51,370.093,293.595,370.816,293.595,371.619z M290.981,371.722
					c0-0.572-0.041-1.059-0.123-1.46c-0.082-0.402-0.199-0.732-0.352-0.99c-0.153-0.259-0.34-0.448-0.562-0.567
					s-0.475-0.179-0.761-0.179c-0.422,0-0.825,0.171-1.209,0.511c-0.385,0.341-0.792,0.804-1.22,1.389v4.533
					c0.197,0.074,0.44,0.136,0.73,0.184c0.289,0.048,0.583,0.071,0.883,0.071c0.395,0,0.753-0.082,1.077-0.245
					s0.599-0.395,0.827-0.694c0.228-0.299,0.403-0.665,0.526-1.098C290.92,372.744,290.981,372.259,290.981,371.722z"/>
				<path d="M304.794,371.007c0,0.17-0.005,0.392-0.015,0.663c-0.01,0.272-0.025,0.528-0.046,0.766h-6.82
					c0,0.456,0.07,0.858,0.209,1.205c0.139,0.347,0.337,0.638,0.592,0.873c0.255,0.234,0.562,0.413,0.919,0.536
					c0.357,0.122,0.754,0.184,1.189,0.184c0.503,0,1.043-0.039,1.618-0.117s1.172-0.206,1.792-0.383v1.98
					c-0.265,0.075-0.555,0.143-0.868,0.204s-0.633,0.115-0.959,0.163s-0.657,0.083-0.99,0.107c-0.333,0.023-0.657,0.035-0.97,0.035
					c-0.79,0-1.497-0.112-2.124-0.337c-0.626-0.225-1.157-0.556-1.592-0.995c-0.436-0.438-0.77-0.981-1-1.628
					c-0.231-0.646-0.347-1.396-0.347-2.246c0-0.844,0.116-1.611,0.347-2.303c0.231-0.69,0.558-1.282,0.98-1.776
					c0.422-0.493,0.934-0.874,1.537-1.144c0.602-0.269,1.274-0.403,2.016-0.403c0.735,0,1.385,0.114,1.95,0.343
					c0.564,0.228,1.038,0.546,1.419,0.954c0.381,0.408,0.67,0.896,0.868,1.46C304.696,369.714,304.794,370.333,304.794,371.007z
					 M302.263,370.649c0.007-0.408-0.044-0.764-0.153-1.067c-0.109-0.303-0.257-0.553-0.444-0.75
					c-0.188-0.197-0.405-0.344-0.653-0.439c-0.249-0.095-0.516-0.143-0.802-0.143c-0.626,0-1.14,0.209-1.542,0.628
					c-0.401,0.419-0.64,1.009-0.714,1.771H302.263z"/>
				<path d="M314.657,376.989l-0.245-5.462l-0.092-2.521l-0.643,1.735l-1.48,3.818h-1.572l-1.337-3.818l-0.562-1.735l-0.071,2.48
					l-0.225,5.503h-2.134l0.653-10.373h2.838l1.174,3.227l0.562,1.797l0.562-1.715l1.235-3.309h2.889l0.664,10.373H314.657z"/>
				<path d="M319.384,374.039c0.211-0.483,0.466-0.836,0.766-1.057c0.299-0.222,0.609-0.362,0.929-0.424
					c-0.34-0.055-0.651-0.155-0.934-0.302c-0.282-0.146-0.525-0.335-0.73-0.566c-0.204-0.231-0.362-0.496-0.475-0.796
					s-0.168-0.63-0.168-0.99c0-0.619,0.111-1.148,0.332-1.588c0.221-0.438,0.549-0.796,0.985-1.072
					c0.436-0.275,0.979-0.476,1.628-0.602s1.404-0.189,2.262-0.189c0.599,0,1.194,0.014,1.787,0.041
					c0.592,0.027,1.181,0.068,1.766,0.122v10.373h-2.44v-3.808h-0.98c-0.299,0-0.566,0.023-0.801,0.071s-0.449,0.122-0.643,0.225
					c-0.194,0.102-0.364,0.245-0.511,0.429s-0.257,0.388-0.332,0.612l-0.898,2.471h-2.797L319.384,374.039z M321.405,369.863
					c0,0.293,0.056,0.534,0.168,0.725s0.277,0.344,0.495,0.46c0.218,0.115,0.486,0.197,0.806,0.244
					c0.32,0.048,0.688,0.072,1.103,0.072h1.113v-3.012c-0.198-0.021-0.4-0.032-0.608-0.036c-0.208-0.003-0.43-0.005-0.668-0.005
					c-0.966,0-1.61,0.129-1.93,0.388S321.405,369.346,321.405,369.863z"/>
			</g>
			<g>
				<path d="M613.25,86.62V75.492h-4.451V86.62h-2.532V73.276h9.515V86.62H613.25z"/>
				<path d="M617.028,84.425c0.279,0.007,0.538-0.01,0.776-0.051s0.454-0.151,0.648-0.332c0.193-0.18,0.367-0.449,0.521-0.807
					s0.289-0.84,0.408-1.449s0.223-1.364,0.312-2.267c0.088-0.901,0.16-1.992,0.214-3.272h7.024V86.62h-2.44v-8.279h-2.327
					c-0.062,1.3-0.162,2.416-0.302,3.349c-0.139,0.933-0.317,1.718-0.535,2.358c-0.219,0.64-0.474,1.146-0.766,1.521
					c-0.293,0.375-0.623,0.65-0.991,0.827c-0.367,0.177-0.771,0.269-1.209,0.275c-0.439,0.007-0.914-0.037-1.425-0.133
					L617.028,84.425z"/>
				<path d="M636.191,86.62l-0.062-1.357c-0.218,0.231-0.446,0.443-0.685,0.638s-0.5,0.362-0.786,0.505
					c-0.285,0.144-0.597,0.254-0.934,0.332s-0.706,0.117-1.107,0.117c-0.531,0-0.998-0.078-1.399-0.234s-0.738-0.374-1.011-0.653
					s-0.478-0.616-0.617-1.011s-0.209-0.83-0.209-1.307c0-0.49,0.104-0.942,0.311-1.358c0.208-0.415,0.524-0.772,0.95-1.071
					c0.425-0.3,0.956-0.534,1.592-0.705c0.637-0.17,1.384-0.255,2.241-0.255h1.358v-0.623c0-0.266-0.038-0.505-0.112-0.72
					c-0.075-0.214-0.196-0.396-0.362-0.546c-0.167-0.149-0.384-0.266-0.648-0.348c-0.266-0.081-0.593-0.122-0.98-0.122
					c-0.612,0-1.217,0.07-1.813,0.209c-0.596,0.14-1.172,0.336-1.73,0.587v-1.99c0.497-0.197,1.07-0.36,1.721-0.49
					c0.649-0.129,1.325-0.194,2.026-0.194c0.77,0,1.43,0.073,1.98,0.22c0.552,0.146,1.006,0.366,1.363,0.659
					c0.357,0.292,0.621,0.658,0.791,1.097c0.17,0.439,0.255,0.951,0.255,1.537v7.085H636.191z M635.833,82.036h-1.521
					c-0.422,0-0.779,0.041-1.072,0.122c-0.292,0.082-0.53,0.194-0.715,0.337c-0.184,0.144-0.317,0.309-0.403,0.495
					c-0.085,0.188-0.127,0.387-0.127,0.598c0,0.422,0.136,0.744,0.408,0.965c0.272,0.222,0.644,0.332,1.113,0.332
					c0.347,0,0.707-0.126,1.082-0.378c0.374-0.252,0.786-0.612,1.235-1.082V82.036z"/>
				<path d="M647.543,86.62v-4.369h-4.032v4.369h-2.45V76.247h2.45v3.891h4.032v-3.891h2.44V86.62H647.543z"/>
				<path d="M662.02,81.353c0,0.816-0.116,1.563-0.348,2.24c-0.231,0.678-0.564,1.258-1,1.741s-0.97,0.857-1.603,1.123
					c-0.634,0.266-1.354,0.397-2.165,0.397c-0.769,0-1.456-0.112-2.063-0.337c-0.605-0.225-1.119-0.56-1.541-1.005
					c-0.422-0.446-0.745-1.004-0.97-1.675c-0.225-0.67-0.337-1.451-0.337-2.343c0-0.823,0.117-1.572,0.352-2.246
					c0.235-0.674,0.572-1.249,1.011-1.726c0.439-0.477,0.976-0.846,1.608-1.107s1.348-0.394,2.144-0.394
					c0.776,0,1.467,0.114,2.073,0.343c0.605,0.228,1.119,0.566,1.541,1.016s0.744,1.006,0.965,1.669
					C661.909,79.714,662.02,80.481,662.02,81.353z M659.426,81.413c0-1.075-0.202-1.884-0.607-2.425
					c-0.404-0.541-1.002-0.812-1.791-0.812c-0.436,0-0.807,0.086-1.113,0.256c-0.306,0.17-0.558,0.403-0.755,0.699
					c-0.198,0.296-0.343,0.642-0.435,1.036s-0.138,0.816-0.138,1.266c0,1.082,0.218,1.897,0.653,2.445s1.031,0.822,1.787,0.822
					c0.415,0,0.775-0.084,1.082-0.251c0.306-0.166,0.555-0.397,0.745-0.693c0.19-0.297,0.333-0.646,0.429-1.047
					S659.426,81.876,659.426,81.413z"/>
				<path d="M668.125,86.804c-0.694,0-1.38-0.025-2.058-0.076c-0.677-0.052-1.355-0.128-2.036-0.229V76.35
					c1.436-0.19,2.872-0.286,4.309-0.286c1.564,0,2.715,0.217,3.45,0.648c0.735,0.433,1.103,1.067,1.103,1.904
					c0,0.272-0.039,0.536-0.117,0.791s-0.199,0.49-0.362,0.704c-0.163,0.215-0.368,0.412-0.612,0.593
					c-0.245,0.18-0.538,0.325-0.879,0.434c0.341,0.041,0.66,0.122,0.96,0.245c0.3,0.122,0.563,0.282,0.791,0.479
					c0.229,0.198,0.409,0.438,0.541,0.72c0.133,0.283,0.199,0.598,0.199,0.944c0,1.116-0.45,1.941-1.353,2.477
					C671.16,86.537,669.847,86.804,668.125,86.804z M670.321,79.075c0-0.381-0.167-0.668-0.501-0.862
					c-0.333-0.194-0.83-0.291-1.49-0.291c-0.415,0-0.759,0.005-1.031,0.016c-0.272,0.01-0.545,0.032-0.816,0.066v2.409h1.766
					c0.436,0,0.776-0.032,1.021-0.098c0.245-0.064,0.444-0.152,0.597-0.265c0.153-0.112,0.268-0.252,0.343-0.419
					C670.283,79.465,670.321,79.279,670.321,79.075z M668.442,84.926c0.77,0,1.348-0.13,1.735-0.389
					c0.389-0.258,0.582-0.608,0.582-1.051c0-0.423-0.184-0.751-0.551-0.985c-0.368-0.235-0.96-0.353-1.776-0.353h-1.95v2.634
					c0.326,0.055,0.643,0.092,0.949,0.112S668.075,84.926,668.442,84.926z"/>
				<path d="M685.011,81.353c0,0.816-0.116,1.563-0.348,2.24c-0.231,0.678-0.564,1.258-1,1.741s-0.97,0.857-1.603,1.123
					c-0.634,0.266-1.354,0.397-2.165,0.397c-0.769,0-1.456-0.112-2.063-0.337c-0.605-0.225-1.119-0.56-1.541-1.005
					c-0.422-0.446-0.745-1.004-0.97-1.675c-0.225-0.67-0.337-1.451-0.337-2.343c0-0.823,0.117-1.572,0.352-2.246
					c0.235-0.674,0.572-1.249,1.011-1.726c0.439-0.477,0.976-0.846,1.608-1.107s1.348-0.394,2.144-0.394
					c0.776,0,1.467,0.114,2.073,0.343c0.605,0.228,1.119,0.566,1.541,1.016s0.744,1.006,0.965,1.669
					C684.9,79.714,685.011,80.481,685.011,81.353z M682.417,81.413c0-1.075-0.202-1.884-0.607-2.425
					c-0.404-0.541-1.002-0.812-1.791-0.812c-0.436,0-0.807,0.086-1.113,0.256c-0.306,0.17-0.558,0.403-0.755,0.699
					c-0.198,0.296-0.343,0.642-0.435,1.036s-0.138,0.816-0.138,1.266c0,1.082,0.218,1.897,0.653,2.445s1.031,0.822,1.787,0.822
					c0.415,0,0.775-0.084,1.082-0.251c0.306-0.166,0.555-0.397,0.745-0.693c0.19-0.297,0.333-0.646,0.429-1.047
					S682.417,81.876,682.417,81.413z"/>
				<path d="M696.201,80.638c0,0.17-0.005,0.392-0.015,0.663c-0.011,0.272-0.026,0.528-0.047,0.766h-6.819
					c0,0.456,0.069,0.858,0.209,1.205s0.337,0.638,0.593,0.873c0.255,0.234,0.562,0.413,0.919,0.536
					c0.356,0.122,0.753,0.184,1.188,0.184c0.504,0,1.043-0.039,1.618-0.117s1.173-0.206,1.792-0.383v1.98
					c-0.266,0.075-0.555,0.143-0.867,0.204c-0.313,0.062-0.634,0.115-0.96,0.163c-0.327,0.048-0.657,0.083-0.99,0.107
					c-0.334,0.023-0.657,0.035-0.97,0.035c-0.79,0-1.498-0.112-2.124-0.337s-1.157-0.556-1.593-0.995
					c-0.436-0.438-0.769-0.981-1-1.628s-0.348-1.396-0.348-2.246c0-0.844,0.116-1.611,0.348-2.303
					c0.231-0.69,0.558-1.282,0.979-1.776c0.422-0.493,0.935-0.874,1.537-1.144c0.603-0.269,1.274-0.403,2.016-0.403
					c0.735,0,1.386,0.114,1.95,0.343c0.565,0.228,1.038,0.546,1.419,0.954c0.382,0.408,0.671,0.896,0.868,1.46
					C696.102,79.345,696.201,79.964,696.201,80.638z M693.669,80.28c0.006-0.408-0.045-0.764-0.153-1.067
					c-0.109-0.303-0.257-0.553-0.444-0.75s-0.405-0.344-0.653-0.439c-0.249-0.095-0.516-0.143-0.802-0.143
					c-0.626,0-1.14,0.209-1.541,0.628c-0.402,0.419-0.641,1.009-0.715,1.771H693.669z"/>
				<path d="M606.359,112.421c0.572,0.163,1.224,0.289,1.955,0.377c0.731,0.089,1.397,0.133,1.996,0.133
					c0.605,0,1.06-0.037,1.363-0.112c0.303-0.074,0.555-0.179,0.755-0.311c0.201-0.133,0.353-0.29,0.454-0.47
					c0.103-0.181,0.153-0.376,0.153-0.587s-0.048-0.398-0.143-0.562c-0.096-0.164-0.252-0.303-0.47-0.419s-0.507-0.204-0.868-0.266
					c-0.36-0.062-0.8-0.092-1.316-0.092h-2.746v-1.776h2.603c0.62,0,1.07-0.036,1.354-0.107c0.282-0.071,0.509-0.168,0.679-0.291
					c0.17-0.122,0.291-0.264,0.362-0.424c0.071-0.159,0.107-0.331,0.107-0.516c0-0.177-0.038-0.337-0.112-0.479
					c-0.075-0.143-0.201-0.264-0.378-0.362s-0.428-0.175-0.75-0.229c-0.324-0.055-0.744-0.082-1.262-0.082
					c-0.463,0-1.005,0.034-1.628,0.103c-0.623,0.067-1.233,0.18-1.833,0.337v-1.95c0.572-0.096,1.183-0.177,1.833-0.245
					c0.649-0.068,1.291-0.103,1.925-0.103c1.653,0,2.863,0.231,3.629,0.694s1.148,1.137,1.148,2.021
					c0,0.238-0.039,0.477-0.117,0.715s-0.199,0.463-0.362,0.674s-0.369,0.398-0.618,0.562c-0.248,0.163-0.539,0.293-0.872,0.388
					c0.333,0.048,0.651,0.137,0.954,0.266c0.303,0.13,0.568,0.298,0.796,0.506c0.229,0.207,0.409,0.452,0.542,0.734
					c0.132,0.283,0.198,0.598,0.198,0.944c0,1.097-0.459,1.925-1.378,2.486s-2.308,0.842-4.165,0.842c-0.586,0-1.2-0.03-1.843-0.092
					c-0.644-0.061-1.295-0.149-1.955-0.265L606.359,112.421z"/>
				<path d="M624.552,114.585v-4.369h-4.032v4.369h-2.45v-10.373h2.45v3.891h4.032v-3.891h2.44v10.373H624.552z"/>
				<path d="M636.191,114.585l-0.062-1.357c-0.218,0.231-0.446,0.443-0.685,0.638s-0.5,0.362-0.786,0.505
					c-0.285,0.144-0.597,0.254-0.934,0.332s-0.706,0.117-1.107,0.117c-0.531,0-0.998-0.078-1.399-0.234s-0.738-0.374-1.011-0.653
					s-0.478-0.616-0.617-1.011s-0.209-0.83-0.209-1.307c0-0.49,0.104-0.942,0.311-1.358c0.208-0.415,0.524-0.772,0.95-1.071
					c0.425-0.3,0.956-0.534,1.592-0.705c0.637-0.17,1.384-0.255,2.241-0.255h1.358v-0.623c0-0.266-0.038-0.505-0.112-0.72
					c-0.075-0.214-0.196-0.396-0.362-0.546c-0.167-0.149-0.384-0.266-0.648-0.348c-0.266-0.081-0.593-0.122-0.98-0.122
					c-0.612,0-1.217,0.07-1.813,0.209c-0.596,0.14-1.172,0.336-1.73,0.587v-1.99c0.497-0.197,1.07-0.36,1.721-0.49
					c0.649-0.129,1.325-0.194,2.026-0.194c0.77,0,1.43,0.073,1.98,0.22c0.552,0.146,1.006,0.366,1.363,0.659
					c0.357,0.292,0.621,0.658,0.791,1.097c0.17,0.439,0.255,0.951,0.255,1.537v7.085H636.191z M635.833,110.001h-1.521
					c-0.422,0-0.779,0.041-1.072,0.122c-0.292,0.082-0.53,0.194-0.715,0.337c-0.184,0.144-0.317,0.309-0.403,0.495
					c-0.085,0.188-0.127,0.387-0.127,0.598c0,0.422,0.136,0.744,0.408,0.965c0.272,0.222,0.644,0.332,1.113,0.332
					c0.347,0,0.707-0.126,1.082-0.378c0.374-0.252,0.786-0.612,1.235-1.082V110.001z"/>
				<path d="M647.543,114.585v-4.114c-0.36,0.143-0.736,0.248-1.128,0.316s-0.781,0.103-1.169,0.103
					c-0.844,0-1.563-0.086-2.154-0.256s-1.073-0.424-1.444-0.761s-0.642-0.753-0.812-1.25c-0.171-0.497-0.256-1.068-0.256-1.716
					v-2.695h2.44v2.39c0,0.388,0.037,0.725,0.112,1.011c0.075,0.285,0.202,0.522,0.383,0.709c0.181,0.188,0.417,0.327,0.71,0.419
					c0.292,0.092,0.659,0.138,1.103,0.138c0.374,0,0.745-0.037,1.112-0.112s0.735-0.177,1.103-0.307v-4.247h2.44v10.373H647.543z"/>
				<path d="M661.713,108.603c0,0.17-0.005,0.392-0.015,0.663c-0.011,0.272-0.026,0.528-0.047,0.766h-6.819
					c0,0.456,0.069,0.858,0.209,1.205s0.337,0.638,0.593,0.873c0.255,0.234,0.562,0.413,0.919,0.536
					c0.356,0.122,0.753,0.184,1.188,0.184c0.504,0,1.043-0.039,1.618-0.117s1.173-0.206,1.792-0.383v1.98
					c-0.266,0.075-0.555,0.143-0.867,0.204c-0.313,0.062-0.634,0.115-0.96,0.163c-0.327,0.048-0.657,0.083-0.99,0.107
					c-0.334,0.023-0.657,0.035-0.97,0.035c-0.79,0-1.498-0.112-2.124-0.337s-1.157-0.556-1.593-0.995
					c-0.436-0.438-0.769-0.981-1-1.628s-0.348-1.396-0.348-2.246c0-0.844,0.116-1.611,0.348-2.303
					c0.231-0.69,0.558-1.282,0.979-1.776c0.422-0.493,0.935-0.874,1.537-1.144c0.603-0.269,1.274-0.403,2.016-0.403
					c0.735,0,1.386,0.114,1.95,0.343c0.565,0.228,1.038,0.546,1.419,0.954c0.382,0.408,0.671,0.896,0.868,1.46
					C661.615,107.31,661.713,107.929,661.713,108.603z M659.182,108.245c0.006-0.408-0.045-0.764-0.153-1.067
					c-0.109-0.303-0.257-0.553-0.444-0.75s-0.405-0.344-0.653-0.439c-0.249-0.095-0.516-0.143-0.802-0.143
					c-0.626,0-1.14,0.209-1.541,0.628c-0.402,0.419-0.641,1.009-0.715,1.771H659.182z"/>
				<path d="M670.535,114.585v-4.369h-4.032v4.369h-2.45v-10.373h2.45v3.891h4.032v-3.891h2.44v10.373H670.535z"/>
				<path d="M682.009,114.585v-6.482h-0.021l-4.094,6.482h-2.358v-10.373h2.45v6.483h0.021l4.084-6.483h2.368v10.373H682.009z"/>
				<path d="M696.201,108.603c0,0.17-0.005,0.392-0.015,0.663c-0.011,0.272-0.026,0.528-0.047,0.766h-6.819
					c0,0.456,0.069,0.858,0.209,1.205s0.337,0.638,0.593,0.873c0.255,0.234,0.562,0.413,0.919,0.536
					c0.356,0.122,0.753,0.184,1.188,0.184c0.504,0,1.043-0.039,1.618-0.117s1.173-0.206,1.792-0.383v1.98
					c-0.266,0.075-0.555,0.143-0.867,0.204c-0.313,0.062-0.634,0.115-0.96,0.163c-0.327,0.048-0.657,0.083-0.99,0.107
					c-0.334,0.023-0.657,0.035-0.97,0.035c-0.79,0-1.498-0.112-2.124-0.337s-1.157-0.556-1.593-0.995
					c-0.436-0.438-0.769-0.981-1-1.628s-0.348-1.396-0.348-2.246c0-0.844,0.116-1.611,0.348-2.303
					c0.231-0.69,0.558-1.282,0.979-1.776c0.422-0.493,0.935-0.874,1.537-1.144c0.603-0.269,1.274-0.403,2.016-0.403
					c0.735,0,1.386,0.114,1.95,0.343c0.565,0.228,1.038,0.546,1.419,0.954c0.382,0.408,0.671,0.896,0.868,1.46
					C696.102,107.31,696.201,107.929,696.201,108.603z M693.669,108.245c0.006-0.408-0.045-0.764-0.153-1.067
					c-0.109-0.303-0.257-0.553-0.444-0.75s-0.405-0.344-0.653-0.439c-0.249-0.095-0.516-0.143-0.802-0.143
					c-0.626,0-1.14,0.209-1.541,0.628c-0.402,0.419-0.641,1.009-0.715,1.771H693.669z"/>
			</g>
			<g>
				<path d="M610.881,288.159c0.864,0,1.618,0.099,2.262,0.296s1.174,0.468,1.593,0.812s0.731,0.75,0.939,1.22
					c0.207,0.47,0.312,0.974,0.312,1.512c0,1.367-0.453,2.4-1.358,3.098c-0.905,0.698-2.226,1.047-3.961,1.047h-4.073v-13.344h8.463
					v1.991h-5.973v3.369H610.881z M610.841,294.132c0.401,0,0.753-0.057,1.057-0.169c0.303-0.112,0.556-0.264,0.76-0.454
					c0.205-0.19,0.359-0.412,0.465-0.664s0.158-0.517,0.158-0.796c0-0.286-0.049-0.548-0.147-0.786
					c-0.1-0.238-0.256-0.442-0.47-0.612c-0.215-0.171-0.487-0.302-0.817-0.394s-0.729-0.138-1.199-0.138h-1.563v4.013H610.841z"/>
				<path d="M624.696,296.143l-0.062-1.357c-0.218,0.231-0.446,0.443-0.685,0.638s-0.5,0.362-0.786,0.505
					c-0.285,0.144-0.597,0.254-0.934,0.332s-0.706,0.117-1.107,0.117c-0.531,0-0.998-0.078-1.399-0.234s-0.738-0.374-1.011-0.653
					s-0.478-0.616-0.617-1.011s-0.209-0.83-0.209-1.307c0-0.49,0.104-0.942,0.311-1.358c0.208-0.415,0.524-0.772,0.95-1.071
					c0.425-0.3,0.956-0.534,1.592-0.705c0.637-0.17,1.384-0.255,2.241-0.255h1.358v-0.623c0-0.266-0.038-0.505-0.112-0.72
					c-0.075-0.214-0.196-0.396-0.362-0.546c-0.167-0.149-0.384-0.266-0.648-0.348c-0.266-0.081-0.593-0.122-0.98-0.122
					c-0.612,0-1.217,0.07-1.813,0.209c-0.596,0.14-1.172,0.336-1.73,0.587v-1.99c0.497-0.197,1.07-0.36,1.721-0.49
					c0.649-0.129,1.325-0.194,2.026-0.194c0.77,0,1.43,0.073,1.98,0.22c0.552,0.146,1.006,0.366,1.363,0.659
					c0.357,0.292,0.621,0.658,0.791,1.097c0.17,0.439,0.255,0.951,0.255,1.537v7.085H624.696z M624.338,291.559h-1.521
					c-0.422,0-0.779,0.041-1.072,0.122c-0.292,0.082-0.53,0.194-0.715,0.337c-0.184,0.144-0.317,0.309-0.402,0.495
					c-0.086,0.188-0.128,0.387-0.128,0.598c0,0.422,0.136,0.744,0.408,0.965c0.272,0.222,0.644,0.332,1.113,0.332
					c0.347,0,0.707-0.126,1.082-0.378c0.374-0.252,0.786-0.612,1.235-1.082V291.559z"/>
				<path d="M629.35,293.979c0.572,0.163,1.224,0.289,1.955,0.377c0.731,0.089,1.397,0.133,1.996,0.133
					c0.605,0,1.06-0.037,1.363-0.112c0.303-0.074,0.555-0.179,0.755-0.311c0.201-0.133,0.353-0.29,0.454-0.47
					c0.103-0.181,0.153-0.376,0.153-0.587s-0.048-0.398-0.143-0.562c-0.096-0.164-0.252-0.303-0.47-0.419s-0.507-0.204-0.868-0.266
					c-0.36-0.062-0.8-0.092-1.316-0.092h-2.746v-1.776h2.603c0.62,0,1.07-0.036,1.354-0.107c0.282-0.071,0.509-0.168,0.679-0.291
					c0.17-0.122,0.291-0.264,0.362-0.424c0.071-0.159,0.107-0.331,0.107-0.516c0-0.177-0.038-0.337-0.112-0.479
					c-0.075-0.143-0.201-0.264-0.378-0.362s-0.428-0.175-0.75-0.229c-0.324-0.055-0.744-0.082-1.262-0.082
					c-0.463,0-1.005,0.034-1.628,0.103c-0.623,0.067-1.233,0.18-1.833,0.337v-1.95c0.572-0.096,1.183-0.177,1.833-0.245
					c0.649-0.068,1.291-0.103,1.925-0.103c1.653,0,2.863,0.231,3.629,0.694s1.148,1.137,1.148,2.021
					c0,0.238-0.039,0.477-0.117,0.715s-0.199,0.463-0.362,0.674s-0.369,0.398-0.618,0.562c-0.248,0.163-0.539,0.293-0.872,0.388
					c0.333,0.048,0.651,0.137,0.954,0.266c0.303,0.13,0.568,0.298,0.796,0.506c0.229,0.207,0.409,0.452,0.542,0.734
					c0.132,0.283,0.198,0.598,0.198,0.944c0,1.097-0.459,1.925-1.378,2.486s-2.308,0.842-4.165,0.842c-0.586,0-1.2-0.03-1.843-0.092
					c-0.644-0.061-1.295-0.149-1.955-0.265L629.35,293.979z"/>
				<path d="M647.687,296.143l-0.062-1.357c-0.218,0.231-0.446,0.443-0.685,0.638s-0.5,0.362-0.786,0.505
					c-0.285,0.144-0.597,0.254-0.934,0.332s-0.706,0.117-1.107,0.117c-0.531,0-0.998-0.078-1.399-0.234s-0.738-0.374-1.011-0.653
					s-0.478-0.616-0.617-1.011s-0.209-0.83-0.209-1.307c0-0.49,0.104-0.942,0.311-1.358c0.208-0.415,0.524-0.772,0.95-1.071
					c0.425-0.3,0.956-0.534,1.592-0.705c0.637-0.17,1.384-0.255,2.241-0.255h1.358v-0.623c0-0.266-0.038-0.505-0.112-0.72
					c-0.075-0.214-0.196-0.396-0.362-0.546c-0.167-0.149-0.384-0.266-0.648-0.348c-0.266-0.081-0.593-0.122-0.98-0.122
					c-0.612,0-1.217,0.07-1.813,0.209c-0.596,0.14-1.172,0.336-1.73,0.587v-1.99c0.497-0.197,1.07-0.36,1.721-0.49
					c0.649-0.129,1.325-0.194,2.026-0.194c0.77,0,1.43,0.073,1.98,0.22c0.552,0.146,1.006,0.366,1.363,0.659
					c0.357,0.292,0.621,0.658,0.791,1.097c0.17,0.439,0.255,0.951,0.255,1.537v7.085H647.687z M647.33,291.559h-1.521
					c-0.422,0-0.779,0.041-1.072,0.122c-0.292,0.082-0.53,0.194-0.715,0.337c-0.184,0.144-0.317,0.309-0.403,0.495
					c-0.085,0.188-0.127,0.387-0.127,0.598c0,0.422,0.136,0.744,0.408,0.965c0.272,0.222,0.644,0.332,1.113,0.332
					c0.347,0,0.707-0.126,1.082-0.378c0.374-0.252,0.786-0.612,1.235-1.082V291.559z"/>
			</g>
			<g>
				<g>
					<path d="M16.759,296.596c0.055-0.218,0.095-0.422,0.122-0.612c0.027-0.19,0.041-0.375,0.041-0.552
						c0-0.271-0.042-0.525-0.127-0.761c-0.085-0.234-0.23-0.459-0.434-0.673c-0.204-0.215-0.476-0.421-0.816-0.617
						c-0.34-0.197-0.762-0.395-1.266-0.592l-9.246,4.838l0-2.092l5.144-2.634l1.949-0.959v-0.021l-1.847-0.715l-5.247-2.052v-1.919
						l9.911,4.012c0.503,0.204,0.975,0.423,1.414,0.657s0.821,0.502,1.148,0.802c0.327,0.299,0.583,0.645,0.771,1.035
						c0.188,0.392,0.281,0.843,0.281,1.353c0,0.238-0.017,0.488-0.051,0.75c-0.034,0.263-0.098,0.54-0.193,0.832L16.759,296.596z"/>
					<path d="M18.37,276.937v1.776l-8.716,0.001l0,2.857c1.402,0.082,2.603,0.203,3.603,0.362c1,0.16,1.835,0.353,2.505,0.576
						c0.67,0.225,1.198,0.479,1.582,0.766c0.385,0.285,0.664,0.594,0.837,0.924c0.174,0.33,0.259,0.679,0.255,1.046
						s-0.052,0.745-0.147,1.133l-1.47-0.082c0.027-0.271,0.014-0.526-0.042-0.765c-0.054-0.238-0.185-0.46-0.393-0.664
						s-0.507-0.39-0.898-0.555c-0.391-0.167-0.914-0.318-1.566-0.454c-0.653-0.137-1.455-0.254-2.404-0.353s-2.08-0.179-3.394-0.24
						l0-6.328L18.37,276.937z"/>
					<path d="M8.122,264.476l9.165,3.49c0.933,0.36,1.735,0.733,2.409,1.117c0.674,0.385,1.227,0.805,1.659,1.261
						s0.75,0.956,0.954,1.5c0.204,0.545,0.306,1.154,0.306,1.827c0,0.178-0.003,0.337-0.01,0.48
						c-0.007,0.143-0.017,0.299-0.03,0.469h-1.613c0.021-0.149,0.039-0.313,0.056-0.489s0.025-0.364,0.025-0.562
						c0-0.327-0.047-0.631-0.143-0.914c-0.096-0.282-0.25-0.549-0.464-0.801s-0.492-0.493-0.832-0.725s-0.752-0.456-1.235-0.674
						L8.122,274.55v-2.021l6.777-2.593l1.592-0.521l-1.633-0.591l-6.736-2.398V264.476z"/>
					<path d="M14.397,255.637v2.112c0,1.586-0.295,2.749-0.887,3.491c-0.592,0.741-1.453,1.112-2.583,1.112H8.121v-1.796h2.572
						c0.408,0,0.751-0.055,1.031-0.164c0.279-0.108,0.505-0.284,0.679-0.525c0.173-0.241,0.297-0.551,0.372-0.929
						s0.112-0.835,0.112-1.373v-1.929H8.121v-1.776l10.247-0.001v1.776L14.397,255.637z"/>
					<path d="M8.12,251.318v-1.633l8.788-0.001l0-2.378l-8.788,0.001v-1.633l8.788-0.001v-2.379l-8.788,0.001l0-1.633l10.247-0.001
						l0.001,9.655L8.12,251.318z"/>
					<path d="M18.366,232.527l-1.378,0.041c0.551,0.559,0.949,1.125,1.194,1.699c0.245,0.575,0.367,1.18,0.367,1.813
						c0,0.585-0.075,1.085-0.225,1.5c-0.149,0.415-0.355,0.757-0.617,1.025c-0.262,0.27-0.57,0.467-0.924,0.593
						c-0.354,0.126-0.738,0.188-1.153,0.188c-1.027,0.001-1.832-0.382-2.414-1.147c-0.583-0.766-0.873-1.896-0.873-3.394v-2.123
						h-0.898c-0.605,0-1.09,0.194-1.454,0.582c-0.364,0.388-0.546,0.979-0.546,1.775c0,0.579,0.065,1.148,0.194,1.71
						c0.129,0.562,0.313,1.142,0.551,1.74H8.589c-0.082-0.225-0.162-0.475-0.24-0.75s-0.148-0.566-0.209-0.873
						c-0.061-0.306-0.11-0.626-0.148-0.959c-0.038-0.334-0.056-0.671-0.056-1.011c0-0.619,0.068-1.177,0.204-1.674
						s0.343-0.917,0.622-1.261c0.279-0.344,0.629-0.607,1.051-0.791s0.918-0.275,1.49-0.275l7.063-0.001L18.366,232.527z
						 M13.702,232.723v2.256c0,0.442,0.044,0.823,0.132,1.143c0.089,0.32,0.214,0.582,0.378,0.786
						c0.163,0.204,0.359,0.355,0.587,0.454s0.485,0.148,0.771,0.147c0.197,0,0.386-0.031,0.566-0.092
						c0.18-0.062,0.34-0.16,0.479-0.296c0.14-0.137,0.25-0.313,0.332-0.531c0.082-0.218,0.122-0.483,0.122-0.796
						c0-0.408-0.124-0.876-0.373-1.403c-0.248-0.527-0.641-1.084-1.179-1.668H13.702z"/>
					<path d="M12.445,224.863c-0.796-0.041-1.479-0.138-2.046-0.291c-0.568-0.153-1.034-0.373-1.398-0.658
						c-0.364-0.286-0.633-0.637-0.806-1.052s-0.26-0.898-0.261-1.449c0-0.619,0.104-1.137,0.311-1.552
						c0.208-0.415,0.526-0.748,0.955-1s0.973-0.432,1.633-0.541c0.66-0.108,1.443-0.163,2.348-0.163
						c1.837,0,3.191,0.271,4.062,0.815c0.871,0.545,1.306,1.426,1.306,2.644c0,0.646-0.108,1.178-0.326,1.593
						c-0.217,0.415-0.534,0.745-0.949,0.989c-0.415,0.245-0.918,0.415-1.51,0.511c-0.592,0.097-1.266,0.147-2.021,0.154v1.857
						l4.624-0.001l0,1.674l-10.247,0.001l0-1.674h4.328V224.863z M13.241,219.841c-1.415,0-2.424,0.123-3.026,0.368
						c-0.603,0.245-0.903,0.681-0.903,1.307c0,0.278,0.065,0.521,0.194,0.729c0.129,0.207,0.347,0.381,0.653,0.521
						s0.711,0.245,1.214,0.316s1.126,0.107,1.868,0.107c0.81,0,1.468-0.036,1.975-0.107c0.507-0.072,0.907-0.18,1.199-0.322
						c0.292-0.144,0.492-0.318,0.597-0.526c0.106-0.207,0.158-0.447,0.158-0.719c0-0.293-0.064-0.545-0.194-0.756
						c-0.129-0.211-0.347-0.384-0.653-0.521c-0.307-0.136-0.711-0.236-1.215-0.3C14.605,219.874,13.982,219.841,13.241,219.841z"/>
					<path d="M18.364,216.982l-10.247,0.001l0-1.634l8.788-0.001v-2.378l-8.788,0.001v-1.633l8.788-0.001l0-2.378l-8.788,0.001
						v-1.634l8.788-0.001v-0.878l4.072,0.103v1.572h-2.613L18.364,216.982z"/>
					<path d="M8.116,202.715h7.216l-7.216-4.471v-1.694l10.247-0.001v1.776l-7.216,0.001l7.216,4.469v1.694L8.116,204.49V202.715z"
						/>
					<path d="M4.165,185.895c0.401,0,0.759,0.075,1.072,0.229s0.58,0.367,0.801,0.644c0.221,0.275,0.389,0.606,0.505,0.995
						c0.116,0.388,0.174,0.816,0.174,1.286c0,0.544-0.058,1.01-0.173,1.397c-0.116,0.389-0.284,0.706-0.505,0.955
						c-0.221,0.248-0.488,0.43-0.801,0.546c-0.313,0.115-0.67,0.175-1.072,0.175v-1.613c0.197,0,0.381-0.023,0.551-0.071
						c0.17-0.049,0.321-0.129,0.454-0.241s0.236-0.264,0.311-0.454c0.075-0.19,0.112-0.429,0.112-0.714
						c0-0.293-0.037-0.536-0.112-0.73c-0.075-0.193-0.178-0.349-0.311-0.464c-0.133-0.116-0.284-0.197-0.454-0.244
						c-0.17-0.048-0.354-0.071-0.551-0.071V185.895z M8.115,191.222h7.216l-7.216-4.471v-1.694l10.247-0.001v1.776l-7.216,0.001
						l7.216,4.469v1.694l-10.247,0.001V191.222z"/>
					<path d="M18.359,161.101l0,2.286l-6.542,4.992l6.542-0.001l0,1.817l-13.339,0.001l0-1.817h6.195L5.02,163.49l0-2.154
						l6.338,5.268L18.359,161.101z"/>
					<path d="M9.101,149.925c0.544,0,1.083,0.103,1.618,0.307s1.012,0.521,1.434,0.949c0.422,0.429,0.764,0.977,1.026,1.643
						c0.262,0.667,0.393,1.464,0.393,2.389v1.653l4.787-0.001l0,1.817L5.02,158.683l0-3.757c0-0.659,0.073-1.292,0.219-1.898
						c0.146-0.605,0.382-1.138,0.709-1.597c0.327-0.46,0.749-0.825,1.266-1.098S8.359,149.925,9.101,149.925z M9.183,151.813
						c-0.857,0-1.514,0.28-1.969,0.842c-0.456,0.562-0.684,1.346-0.684,2.353v1.857h5.491v-1.694c0-1.075-0.235-1.903-0.705-2.485
						S10.135,151.813,9.183,151.813z"/>
					<path d="M6.549,143.974v3.072H5.018l0-7.981h1.531l0,3.072l10.257-0.001l0-3.072h1.551l0,7.981h-1.551v-3.072L6.549,143.974z"
						/>
					<path d="M20.55,126.979v1.694l-16.615,7.004v-1.694L20.55,126.979z"/>
					<path d="M9.098,115.446c0.544,0,1.083,0.103,1.618,0.307s1.012,0.521,1.434,0.949c0.422,0.429,0.764,0.977,1.026,1.643
						c0.262,0.667,0.393,1.464,0.394,2.389v1.653l4.787-0.001v1.817l-13.339,0.001l0-3.757c0-0.659,0.073-1.292,0.219-1.898
						c0.146-0.605,0.383-1.138,0.709-1.597c0.327-0.46,0.749-0.825,1.266-1.098S8.356,115.446,9.098,115.446z M9.18,117.335
						c-0.857,0-1.514,0.28-1.97,0.842s-0.684,1.346-0.684,2.353v1.857h5.491v-1.694c0-1.075-0.235-1.903-0.705-2.485
						C10.843,117.625,10.132,117.335,9.18,117.335z"/>
					<path d="M6.545,109.495l0,3.072H5.015l0-7.981h1.531v3.072l10.257-0.001v-3.072h1.551l0,7.981h-1.551l0-3.072L6.545,109.495z"
						/>
				</g>
			</g>
		</g>
	</g>
	<text transform="matrix(1 0 0 1 38.394 -245.6787)"><tspan x="0" y="0" font-family="'Consolas'" font-size="17">Давайте рассмотрим, как установить улучшающий KPI.</tspan><tspan x="0" y="20.4" font-family="'Consolas'" font-size="17">Прежде всего, нужно определить базовое значение – то есть уровень</tspan><tspan x="0" y="40.8" font-family="'Consolas'" font-size="17">показателя на данный момент. Затем в качестве ориентира нужно </tspan><tspan x="0" y="61.2" font-family="'Consolas'" font-size="17">найти наилучшую продемонстрированную практику – то есть наивысший</tspan><tspan x="0" y="81.6" font-family="'Consolas'" font-size="17">результат по аналогичному показателю, достигнутый другой</tspan><tspan x="0" y="102" font-family="'Consolas'" font-size="17">функцией/компанией/сотрудником. Исходя из этого наилучшего результата,</tspan><tspan x="0" y="122.4" font-family="'Consolas'" font-size="17">нужно установить плановое значение для себя. А потом, в свою очередь,</tspan><tspan x="0" y="142.8" font-family="'Consolas'" font-size="17">календаризовать его – то есть установить план на каждый конкретный</tspan><tspan x="0" y="163.2" font-family="'Consolas'" font-size="17">период (квартал/месяц/неделя). Таким образом, должна получиться</tspan><tspan x="0" y="183.6" font-family="'Consolas'" font-size="17">«лестница», по которой вы сможете подняться к вершине эффективности. </tspan></text>
</g>
</svg>
