<svg xmlns="http://www.w3.org/2000/svg" viewBox="0 0 77.7 30"><path d="M77.7 30H15L.6 15 15 0h62.7z"/><path d="M29.6 19.4h-1.3V15h-4v4.4H23V9.8h1.3v4.1h4V9.8h1.3v9.6zm9 0h-1.4l-.7-2.1h-4l-.7 2.1h-1.4l3.2-9.6h1.8l3.2 9.6zm-2.4-3.2L34.5 11l-1.6 5.1h3.3zm3.3 1.7c.4.2.8.3 1.2.4.4.1 1 .1 1.6.1.8 0 1.3-.2 1.7-.5.4-.3.6-.8.6-1.4 0-.2-.1-.5-.2-.7-.1-.2-.3-.4-.5-.5-.2-.1-.4-.2-.7-.3-.3-.1-.6-.1-1-.1h-2v-1.1h2c.3 0 .6 0 .8-.1.2-.1.5-.2.6-.3.2-.1.3-.3.4-.5.1-.2.1-.4.1-.7 0-.2 0-.4-.1-.6-.1-.2-.2-.4-.3-.5-.2-.1-.4-.3-.6-.3-.3-.1-.6-.1-.9-.1-.4 0-.8 0-1.2.1-.4.1-.8.2-1.3.3V10l1.2-.3c.4-.1.9-.1 1.5-.1 1.1 0 1.9.2 2.4.6.5.4.8 1 .8 1.8 0 .5-.1 1-.4 1.3-.3.4-.7.7-1.2.8.3 0 .5.1.7.2.2.1.4.3.6.5s.3.4.4.7c.1.3.2.5.2.9 0 .5-.1.9-.3 1.2-.2.4-.4.7-.8.9-.3.3-.7.5-1.2.6-.5.1-1 .2-1.6.2-1 0-1.9-.1-2.7-.4v-1zm15.7 1.5h-1.4l-.7-2.1h-4l-.7 2.1H47l3.2-9.6H52l3.2 9.6zm-2.5-3.2L51.1 11l-1.6 5.1h3.2zm10.7 2.1l-.1 3.2h-1.2v-2.1h-5.5v2.1h-1.2l-.1-3.2h.1c.2 0 .3 0 .5-.1l.5-.5c.1-.2.3-.6.4-1 .1-.4.2-.9.4-1.6s.2-1.4.3-2.3c.1-.9.1-1.9.2-3.1h4.7v8.5h1zM61 11h-2.1c0 1-.1 1.9-.2 2.8s-.2 1.6-.3 2.2c-.1.6-.3 1.1-.4 1.5-.2.4-.4.7-.6.9H61V11z" fill="#fff"/></svg>