<svg xmlns="http://www.w3.org/2000/svg" width="1024" height="768" viewBox="0 0 1024 768"><path d="M85.358 30.87H938.62v706.28H85.358z"/><path fill="#CFD0CC" d="M938.6 748H85.401c-6.021 0-10.901-4.857-10.901-10.851v-706.3C74.5 24.857 79.381 20 85.401 20H938.6c6.021 0 10.899 4.856 10.899 10.849V737.15C949.5 743.143 944.62 748 938.6 748zM96.302 726.303h831.396V41.697H96.302v684.606z"/><path fill="#FFF" d="M838.568 646.815H185.431V539.094h653.137v107.721zm0-417.966H185.431V121.186h653.137v107.663zm0 208.231H185.431V329.398h653.137V437.08z"/></svg>