<svg xmlns="http://www.w3.org/2000/svg" xmlns:xlink="http://www.w3.org/1999/xlink" width="314.5" height="229.667" viewBox="-54.5 -18.167 314.5 229.667"><symbol id="a" viewBox="-14.093 -14.212 28.187 28.423"><path fill="none" stroke="#54549D" stroke-width="3.45" stroke-linejoin="round" stroke-miterlimit="3" d="M12.874-12.992L-.076-.042l-12.8-12.75m.15 25.399L-.076-.042l12.7 13.05"/></symbol><symbol id="b" viewBox="-10.149 -10.233 20.297 20.467"><use xlink:href="#a" width="28.187" height="28.423" x="-14.093" y="-14.212" transform="translate(0 .001) scale(.7201)" overflow="visible"/></symbol><use xlink:href="#a" width="28.187" height="28.423" x="-14.093" y="-14.212" transform="matrix(.7201 0 0 -.7201 -70.828 698.469)" overflow="visible"/><use xlink:href="#b" width="20.297" height="20.467" x="-10.149" y="-10.233" transform="matrix(1 0 0 -1 -70.827 698.467)" overflow="visible"/><linearGradient id="c" gradientUnits="userSpaceOnUse" x1="-50.74" y1="96.666" x2="256.24" y2="96.666"><stop offset="0"/><stop offset=".279" stop-color="#323232"/><stop offset=".794" stop-color="#535353"/><stop offset=".891" stop-color="#292929"/><stop offset="1"/></linearGradient><path fill="url(#c)" d="M256.24-4.905v-9.087H-50.74v9.087h11.739v23.109H-50.74v156.924h11.739v23.109H-50.74v9.088h306.98v-9.088h-11.189v-23.109h11.189V18.204h-11.189V-4.905h11.189zm-29.782 0h13.427v23.109h-13.427V-4.905zM3.35 175.128h13.426v23.109H3.35v-23.109zm-5.166 23.109h-13.427v-23.109h13.427v23.109zm23.758-23.109h13.426v23.109H21.942v-23.109zm18.592 0H53.96v23.109H40.534v-23.109zm18.593 0h13.425v23.109H59.127v-23.109zm18.593 0h13.426v23.109H77.72v-23.109zm18.592 0h13.426v23.109H96.312v-23.109zm18.592 0h13.425v23.109h-13.425v-23.109zm18.592 0h13.426v23.109h-13.426v-23.109zm18.593 0h13.426v23.109h-13.426v-23.109zm18.592 0h13.426v23.109h-13.426v-23.109zm18.591 0h13.427v23.109h-13.427v-23.109zm18.593 0h13.427v23.109h-13.427v-23.109zm0-180.033h13.427v23.109h-13.427V-4.905zm-18.593 0h13.427v23.109h-13.427V-4.905zm-18.591 0h13.426v23.109h-13.426V-4.905zm-18.592 0h13.426v23.109h-13.426V-4.905zm-18.593 0h13.426v23.109h-13.426V-4.905zm-18.592 0h13.425v23.109h-13.425V-4.905zm-18.592 0h13.426v23.109H96.312V-4.905zm-18.592 0h13.426v23.109H77.72V-4.905zm-18.593 0h13.425v23.109H59.127V-4.905zm-18.593 0H53.96v23.109H40.534V-4.905zm-18.592 0h13.426v23.109H21.942V-4.905zm-18.592 0h13.426v23.109H3.35V-4.905zm-18.593 0h13.427v23.109h-13.427V-4.905zm-18.592 0h13.426v23.109h-13.426V-4.905zm0 180.033h13.426v23.109h-13.426v-23.109zm273.72 23.109h-13.427v-23.109h13.427v23.109z"/><path fill="#666" d="M18.897 31.161h167.704v124.556H18.897z"/><defs><path id="d" d="M9.922 28.032h185.657v137.271H9.922z"/></defs><clipPath id="e"><use xlink:href="#d" overflow="visible"/></clipPath><g clip-path="url(#e)"><defs><path id="f" d="M-63.614-24.372h329.25v260.303h-329.25z"/></defs><clipPath id="g"><use xlink:href="#f" overflow="visible"/></clipPath><g clip-path="url(#g)"><defs><path id="h" d="M-63.614-24.372h455.65v269.031h-455.65z"/></defs><clipPath id="i"><use xlink:href="#h" overflow="visible"/></clipPath></g></g><path fill="#1B1B1B" d="M-50.74 28.032h43.163v137.271H-50.74z"/><linearGradient id="j" gradientUnits="userSpaceOnUse" x1="213.078" y1="96.668" x2="256.24" y2="96.668"><stop offset="0" stop-color="#292929"/><stop offset="1"/></linearGradient><path fill="url(#j)" d="M213.078 28.032h43.162v137.271h-43.162z"/><path fill="#1B1B1B" d="M256.24 18.204l-6.56 12.957 6.56 11.137-3.28 20.287v49.027"/></svg>