<?xml version="1.0" encoding="utf-8"?>
<!-- Generator: Adobe Illustrator 15.1.0, SVG Export Plug-In . SVG Version: 6.00 Build 0)  -->
<!DOCTYPE svg PUBLIC "-//W3C//DTD SVG 1.1//EN" "http://www.w3.org/Graphics/SVG/1.1/DTD/svg11.dtd">
<svg version="1.1" id="Layer_1" xmlns="http://www.w3.org/2000/svg" xmlns:xlink="http://www.w3.org/1999/xlink" x="0px" y="0px"
	 width="1250px" height="517px" viewBox="0 0 1250 517" enable-background="new 0 0 1250 517" xml:space="preserve">
<g>
	
		<line fill="none" stroke="#808184" stroke-width="2" stroke-miterlimit="10" x1="435.334" y1="438.663" x2="435.334" y2="400.663"/>
	<line fill="none" stroke="#808184" stroke-width="2" stroke-miterlimit="10" x1="399" y1="402" x2="399" y2="421.665"/>
	<line fill="none" stroke="#808184" stroke-width="2" stroke-miterlimit="10" x1="399" y1="453.334" x2="399" y2="474.328"/>
	<circle fill="none" stroke="#808184" stroke-width="2" stroke-miterlimit="10" cx="399" cy="437.998" r="16.333"/>
	<path fill="none" stroke="#808184" stroke-width="2" stroke-miterlimit="10" d="M410.54,426.043
		c-3.204,2.979-5.207,7.233-5.207,11.957c0,4.509,1.826,8.59,4.779,11.546c0.085,0.085,0.171,0.169,0.258,0.252"/>
	<path fill="none" stroke="#808184" stroke-width="2" stroke-miterlimit="10" d="M388.036,450.039
		c3.256-2.983,5.297-7.272,5.297-12.039c0-4.729-2.007-8.983-5.216-11.968"/>
	
		<line fill="none" stroke="#808184" stroke-width="2" stroke-miterlimit="10" x1="415.333" y1="437.663" x2="435.334" y2="437.663"/>
</g>
<g>
	
		<line fill="none" stroke="#808184" stroke-width="2" stroke-miterlimit="10" x1="559.334" y1="438.663" x2="559.334" y2="400.663"/>
	<line fill="none" stroke="#808184" stroke-width="2" stroke-miterlimit="10" x1="523" y1="402" x2="523" y2="421.665"/>
	<line fill="none" stroke="#808184" stroke-width="2" stroke-miterlimit="10" x1="523" y1="453.334" x2="523" y2="474.328"/>
	<circle fill="none" stroke="#808184" stroke-width="2" stroke-miterlimit="10" cx="523" cy="437.998" r="16.333"/>
	<path fill="none" stroke="#808184" stroke-width="2" stroke-miterlimit="10" d="M534.54,426.043
		c-3.202,2.979-5.206,7.233-5.206,11.957c0,4.509,1.825,8.59,4.778,11.546c0.085,0.085,0.171,0.169,0.258,0.252"/>
	<path fill="none" stroke="#808184" stroke-width="2" stroke-miterlimit="10" d="M512.036,450.039
		c3.258-2.983,5.298-7.272,5.298-12.039c0-4.729-2.008-8.983-5.217-11.968"/>
	
		<line fill="none" stroke="#808184" stroke-width="2" stroke-miterlimit="10" x1="539.334" y1="437.663" x2="559.334" y2="437.663"/>
</g>
<g>
	
		<line fill="none" stroke="#808184" stroke-width="2" stroke-miterlimit="10" x1="700.648" y1="438.663" x2="700.648" y2="400.663"/>
	<line fill="none" stroke="#808184" stroke-width="2" stroke-miterlimit="10" x1="664.315" y1="402" x2="664.315" y2="421.665"/>
	
		<line fill="none" stroke="#808184" stroke-width="2" stroke-miterlimit="10" x1="664.315" y1="453.334" x2="664.315" y2="474.328"/>
	<circle fill="none" stroke="#808184" stroke-width="2" stroke-miterlimit="10" cx="664.315" cy="437.998" r="16.333"/>
	<path fill="none" stroke="#808184" stroke-width="2" stroke-miterlimit="10" d="M675.855,426.043
		c-3.203,2.979-5.207,7.233-5.207,11.957c0,4.509,1.826,8.59,4.779,11.546c0.085,0.085,0.171,0.169,0.258,0.252"/>
	<path fill="none" stroke="#808184" stroke-width="2" stroke-miterlimit="10" d="M653.352,450.039
		c3.256-2.983,5.297-7.272,5.297-12.039c0-4.729-2.008-8.983-5.216-11.968"/>
	
		<line fill="none" stroke="#808184" stroke-width="2" stroke-miterlimit="10" x1="680.648" y1="437.663" x2="700.648" y2="437.663"/>
</g>
<g>
	<line fill="none" stroke="#808184" stroke-width="2" stroke-miterlimit="10" x1="811" y1="438.663" x2="811" y2="400.663"/>
	<line fill="none" stroke="#808184" stroke-width="2" stroke-miterlimit="10" x1="774.669" y1="402" x2="774.669" y2="421.665"/>
	
		<line fill="none" stroke="#808184" stroke-width="2" stroke-miterlimit="10" x1="774.669" y1="453.334" x2="774.669" y2="474.328"/>
	<circle fill="none" stroke="#808184" stroke-width="2" stroke-miterlimit="10" cx="774.669" cy="437.998" r="16.333"/>
	<path fill="none" stroke="#808184" stroke-width="2" stroke-miterlimit="10" d="M786.207,426.043
		C783.006,429.024,781,433.278,781,438c0,4.509,1.826,8.59,4.779,11.546c0.085,0.085,0.171,0.169,0.258,0.252"/>
	<path fill="none" stroke="#808184" stroke-width="2" stroke-miterlimit="10" d="M763.703,450.039
		C766.959,447.056,769,442.767,769,438c0-4.729-2.008-8.983-5.216-11.968"/>
	<line fill="none" stroke="#808184" stroke-width="2" stroke-miterlimit="10" x1="791" y1="437.663" x2="811" y2="437.663"/>
</g>
<g>
	
		<line fill="none" stroke="#808184" stroke-width="2" stroke-miterlimit="10" x1="906.648" y1="438.663" x2="906.648" y2="400.663"/>
	<line fill="none" stroke="#808184" stroke-width="2" stroke-miterlimit="10" x1="870.315" y1="402" x2="870.315" y2="421.665"/>
	
		<line fill="none" stroke="#808184" stroke-width="2" stroke-miterlimit="10" x1="870.315" y1="453.334" x2="870.315" y2="474.328"/>
	<circle fill="none" stroke="#808184" stroke-width="2" stroke-miterlimit="10" cx="870.315" cy="437.998" r="16.333"/>
	<path fill="none" stroke="#808184" stroke-width="2" stroke-miterlimit="10" d="M881.855,426.043
		c-3.203,2.979-5.207,7.233-5.207,11.957c0,4.509,1.826,8.59,4.779,11.546c0.085,0.085,0.171,0.169,0.258,0.252"/>
	<path fill="none" stroke="#808184" stroke-width="2" stroke-miterlimit="10" d="M859.352,450.039
		c3.256-2.983,5.297-7.272,5.297-12.039c0-4.729-2.008-8.983-5.216-11.968"/>
	
		<line fill="none" stroke="#808184" stroke-width="2" stroke-miterlimit="10" x1="886.648" y1="437.663" x2="906.648" y2="437.663"/>
</g>
<rect x="8.794" y="-218.047" fill="none" width="1210.825" height="22.188"/>
<text transform="matrix(1.0391 0 0 1 8.7947 -206.3181)" display="none" fill="#231F20" enable-background="new    " font-family="'Consolas'" font-size="17">R – Responsible – сотрудник, ответственный за фактическое исполнение KPI.</text>
<polygon fill="#F6921E" points="621.873,4.494 621.309,4.494 323.752,406.871 922.248,406.871 "/>
<rect x="325.504" y="485.492" fill="#E6E7E8" width="598.002" height="30"/>
<rect x="448.334" y="493.779" fill="none" width="349.332" height="63.334"/>
<g enable-background="new    ">
	<path d="M488.968,506.198h-1.529l-0.229-7.163l-0.097-2.751l-0.536,1.601l-1.695,4.569H483.8l-1.617-4.395l-0.536-1.775
		l-0.035,2.874l-0.202,7.04h-1.477l0.563-11.486h1.854l1.547,4.323l0.501,1.459l0.483-1.459l1.626-4.323h1.906L488.968,506.198z"/>
	<path d="M498.258,501.321c0,0.217-0.003,0.398-0.01,0.545c-0.006,0.147-0.015,0.284-0.025,0.413h-6.196
		c0,0.902,0.252,1.597,0.756,2.078c0.504,0.484,1.23,0.727,2.181,0.727c0.258,0,0.516-0.011,0.772-0.03
		c0.257-0.021,0.507-0.049,0.747-0.084s0.47-0.074,0.69-0.119c0.22-0.043,0.423-0.092,0.61-0.146v1.258
		c-0.416,0.116-0.886,0.213-1.411,0.286c-0.523,0.071-1.067,0.108-1.63,0.108c-0.756,0-1.406-0.103-1.951-0.308
		s-0.991-0.502-1.34-0.893c-0.348-0.39-0.605-0.867-0.772-1.434c-0.167-0.564-0.25-1.205-0.25-1.92c0-0.621,0.089-1.209,0.268-1.762
		c0.179-0.556,0.439-1.04,0.782-1.459c0.343-0.42,0.763-0.753,1.261-0.998c0.498-0.246,1.063-0.369,1.696-0.369
		c0.615,0,1.16,0.097,1.635,0.29c0.476,0.192,0.875,0.468,1.2,0.82c0.325,0.355,0.571,0.786,0.738,1.293
		C498.176,500.126,498.258,500.694,498.258,501.321z M496.666,501.101c0.019-0.394-0.021-0.752-0.113-1.076
		c-0.094-0.326-0.239-0.604-0.436-0.84c-0.195-0.235-0.44-0.418-0.733-0.549c-0.293-0.133-0.634-0.198-1.021-0.198
		c-0.334,0-0.639,0.064-0.914,0.193c-0.274,0.129-0.513,0.311-0.712,0.545c-0.199,0.233-0.36,0.516-0.482,0.844
		c-0.123,0.328-0.199,0.688-0.229,1.081H496.666z"/>
	<path d="M507.556,505.872c-0.398,0.152-0.807,0.267-1.227,0.34c-0.419,0.071-0.851,0.108-1.296,0.108
		c-1.395,0-2.468-0.378-3.221-1.134s-1.129-1.86-1.129-3.313c0-0.696,0.108-1.329,0.325-1.897s0.521-1.055,0.914-1.459
		c0.393-0.404,0.86-0.717,1.405-0.937c0.546-0.221,1.146-0.33,1.803-0.33c0.457,0,0.885,0.032,1.282,0.098
		c0.398,0.064,0.779,0.17,1.144,0.315v1.459c-0.381-0.198-0.77-0.344-1.165-0.435c-0.396-0.091-0.804-0.137-1.227-0.137
		c-0.393,0-0.763,0.074-1.111,0.225c-0.35,0.148-0.655,0.364-0.918,0.646c-0.264,0.281-0.473,0.624-0.624,1.027
		c-0.152,0.404-0.229,0.861-0.229,1.371c0,1.066,0.26,1.865,0.778,2.396s1.238,0.796,2.158,0.796c0.416,0,0.818-0.047,1.208-0.142
		c0.389-0.094,0.766-0.233,1.129-0.422V505.872z"/>
	<path d="M511.151,503.65c0.193-0.41,0.406-0.721,0.637-0.932c0.231-0.211,0.523-0.353,0.875-0.422
		c-0.368-0.07-0.674-0.186-0.914-0.344c-0.239-0.157-0.432-0.341-0.575-0.55c-0.145-0.207-0.243-0.429-0.3-0.663
		c-0.056-0.233-0.083-0.466-0.083-0.693c0-0.388,0.064-0.75,0.193-1.091c0.129-0.34,0.337-0.636,0.624-0.888
		s0.664-0.451,1.129-0.598c0.465-0.147,1.132-0.22,2-0.22c0.486,0,0.967,0.017,1.441,0.049c0.474,0.031,0.939,0.07,1.396,0.118
		v8.779h-1.528v-3.419h-1.327c-0.205,0-0.415,0.021-0.628,0.059c-0.214,0.038-0.409,0.107-0.584,0.211
		c-0.176,0.103-0.336,0.234-0.479,0.398s-0.271,0.372-0.382,0.624l-0.967,2.127h-1.731L511.151,503.65z M512.355,500.029
		c0,0.504,0.171,0.882,0.514,1.134c0.344,0.252,0.852,0.378,1.525,0.378h1.652v-2.952c-0.252-0.023-0.495-0.041-0.729-0.054
		c-0.234-0.012-0.479-0.018-0.738-0.018c-0.504,0-0.888,0.034-1.15,0.102c-0.264,0.068-0.473,0.164-0.624,0.289
		c-0.152,0.127-0.266,0.28-0.338,0.462C512.393,499.552,512.355,499.771,512.355,500.029z"/>
	<path d="M526.057,502.78h-1.819c-1.365,0-2.367-0.255-3.006-0.765s-0.958-1.251-0.958-2.225v-2.417h1.547v2.216
		c0,0.352,0.047,0.646,0.142,0.888c0.094,0.241,0.244,0.435,0.453,0.585c0.207,0.148,0.475,0.256,0.8,0.32
		c0.325,0.063,0.719,0.097,1.182,0.097h1.661v-4.104h1.529v8.824h-1.529L526.057,502.78L526.057,502.78z"/>
	<path d="M537.483,506.198h-1.529v-3.901h-4.033v3.901h-1.529v-8.824h1.529v3.587h4.033v-3.587h1.529V506.198z"/>
	<path d="M541.113,500.783c0.211-0.006,0.409-0.01,0.593-0.014c0.186-0.002,0.376-0.004,0.576-0.004
		c0.552,0,1.033,0.065,1.446,0.197c0.413,0.133,0.757,0.315,1.033,0.555c0.274,0.236,0.479,0.521,0.615,0.852
		c0.135,0.332,0.201,0.69,0.201,1.077c0,0.469-0.078,0.881-0.236,1.235c-0.158,0.354-0.385,0.65-0.678,0.892
		s-0.651,0.422-1.076,0.545c-0.426,0.123-0.931,0.186-1.517,0.186c-0.375,0-0.771-0.011-1.19-0.031s-0.846-0.063-1.279-0.127v-8.771
		h1.512V500.783L541.113,500.783z M543.995,503.49c0-0.463-0.145-0.821-0.435-1.076c-0.29-0.256-0.751-0.383-1.384-0.383
		c-0.17,0-0.343,0.003-0.52,0.01c-0.176,0.006-0.356,0.015-0.545,0.025v2.9c0.188,0.028,0.366,0.049,0.536,0.057
		c0.17,0.01,0.34,0.014,0.51,0.014c0.357,0,0.653-0.042,0.889-0.127c0.234-0.085,0.42-0.197,0.558-0.339
		c0.138-0.141,0.237-0.305,0.299-0.492C543.966,503.893,543.995,503.697,543.995,503.49z M546.545,506.198v-8.824h1.512v8.824
		H546.545z"/>
	<path d="M557.636,501.321c0,0.217-0.003,0.398-0.009,0.545c-0.007,0.147-0.016,0.284-0.026,0.413h-6.196
		c0,0.902,0.252,1.597,0.756,2.078c0.505,0.484,1.23,0.727,2.181,0.727c0.258,0,0.516-0.011,0.772-0.03
		c0.257-0.021,0.507-0.049,0.747-0.084s0.47-0.074,0.69-0.119c0.22-0.043,0.423-0.092,0.61-0.146v1.258
		c-0.416,0.116-0.886,0.213-1.41,0.286c-0.524,0.071-1.068,0.108-1.631,0.108c-0.756,0-1.405-0.103-1.95-0.308
		s-0.992-0.502-1.341-0.893c-0.348-0.39-0.605-0.867-0.772-1.434c-0.167-0.564-0.25-1.205-0.25-1.92
		c0-0.621,0.089-1.209,0.268-1.762c0.18-0.556,0.439-1.04,0.782-1.459c0.343-0.42,0.763-0.753,1.261-0.998
		c0.498-0.246,1.063-0.369,1.696-0.369c0.615,0,1.16,0.097,1.635,0.29c0.476,0.192,0.875,0.468,1.2,0.82
		c0.325,0.355,0.571,0.786,0.738,1.293C557.554,500.126,557.636,500.694,557.636,501.321z M556.046,501.101
		c0.018-0.394-0.021-0.752-0.114-1.076c-0.094-0.326-0.239-0.604-0.436-0.84c-0.195-0.235-0.44-0.418-0.733-0.549
		c-0.293-0.133-0.633-0.198-1.021-0.198c-0.334,0-0.639,0.064-0.914,0.193c-0.274,0.129-0.513,0.311-0.712,0.545
		c-0.198,0.233-0.359,0.516-0.482,0.844s-0.199,0.688-0.229,1.081H556.046z"/>
	<path d="M587.536,498.693h-3.349v7.506h-1.547v-7.506h-3.35v-1.317h8.244L587.536,498.693L587.536,498.693z"/>
	<path d="M595.332,502.78h-1.818c-1.365,0-2.367-0.255-3.006-0.765c-0.64-0.51-0.958-1.251-0.958-2.225v-2.417h1.547v2.216
		c0,0.352,0.047,0.646,0.141,0.888s0.245,0.435,0.453,0.585c0.208,0.148,0.475,0.256,0.8,0.32c0.325,0.063,0.719,0.097,1.183,0.097
		h1.661v-4.104h1.528v8.824h-1.528v-3.419H595.332z"/>
	<path d="M607.118,501.321c0,0.217-0.003,0.398-0.009,0.545c-0.006,0.147-0.015,0.284-0.025,0.413h-6.196
		c0,0.902,0.252,1.597,0.756,2.078c0.504,0.484,1.229,0.727,2.18,0.727c0.258,0,0.517-0.011,0.773-0.03
		c0.257-0.021,0.507-0.049,0.747-0.084s0.47-0.074,0.689-0.119c0.221-0.043,0.423-0.092,0.611-0.146v1.258
		c-0.416,0.116-0.886,0.213-1.411,0.286c-0.523,0.071-1.067,0.108-1.63,0.108c-0.756,0-1.406-0.103-1.951-0.308
		s-0.992-0.502-1.34-0.893c-0.348-0.39-0.606-0.867-0.773-1.434c-0.167-0.564-0.25-1.205-0.25-1.92c0-0.621,0.09-1.209,0.269-1.762
		c0.179-0.556,0.438-1.04,0.782-1.459c0.343-0.42,0.763-0.753,1.261-0.998c0.498-0.246,1.063-0.369,1.696-0.369
		c0.614,0,1.159,0.097,1.635,0.29c0.475,0.192,0.875,0.468,1.2,0.82c0.324,0.355,0.57,0.786,0.737,1.293
		C607.036,500.126,607.118,500.694,607.118,501.321z M605.528,501.101c0.019-0.394-0.021-0.752-0.114-1.076
		c-0.094-0.326-0.238-0.604-0.435-0.84s-0.441-0.418-0.734-0.549c-0.293-0.133-0.633-0.198-1.02-0.198
		c-0.334,0-0.639,0.064-0.914,0.193s-0.513,0.311-0.712,0.545c-0.199,0.233-0.36,0.516-0.483,0.844s-0.198,0.688-0.229,1.081
		H605.528z"/>
	<path d="M617.226,498.693h-3.349v7.506h-1.548v-7.506h-3.349v-1.317h8.244L617.226,498.693L617.226,498.693z"/>
	<path d="M620.284,500.783c0.211-0.006,0.409-0.01,0.594-0.014c0.185-0.002,0.376-0.004,0.575-0.004
		c0.552,0,1.033,0.065,1.446,0.197c0.413,0.133,0.757,0.315,1.033,0.555c0.274,0.236,0.479,0.521,0.615,0.852
		c0.135,0.332,0.202,0.69,0.202,1.077c0,0.469-0.079,0.881-0.237,1.235c-0.158,0.354-0.384,0.65-0.677,0.892
		s-0.652,0.422-1.077,0.545c-0.426,0.123-0.931,0.186-1.517,0.186c-0.375,0-0.771-0.011-1.19-0.031s-0.845-0.063-1.279-0.127v-8.771
		h1.512V500.783L620.284,500.783z M623.168,503.49c0-0.463-0.146-0.821-0.436-1.076c-0.29-0.256-0.751-0.383-1.384-0.383
		c-0.17,0-0.343,0.003-0.52,0.01c-0.176,0.006-0.356,0.015-0.545,0.025v2.9c0.188,0.028,0.366,0.049,0.536,0.057
		c0.17,0.01,0.34,0.014,0.51,0.014c0.357,0,0.653-0.042,0.889-0.127c0.234-0.085,0.42-0.197,0.558-0.339
		c0.138-0.141,0.237-0.305,0.299-0.492C623.137,503.893,623.168,503.697,623.168,503.49z M625.718,506.198v-8.824h1.512v8.824
		H625.718z"/>
	<path d="M656.83,501.716c0,0.686-0.098,1.313-0.291,1.885c-0.192,0.572-0.471,1.062-0.834,1.469
		c-0.362,0.407-0.807,0.725-1.327,0.949c-0.521,0.225-1.113,0.338-1.775,0.338c-0.633,0-1.199-0.099-1.7-0.295
		c-0.501-0.195-0.926-0.484-1.273-0.865c-0.349-0.381-0.615-0.853-0.801-1.415c-0.185-0.562-0.275-1.21-0.275-1.941
		c0-0.687,0.096-1.312,0.289-1.877c0.192-0.564,0.473-1.052,0.836-1.459c0.362-0.406,0.805-0.724,1.326-0.949
		c0.521-0.226,1.112-0.338,1.774-0.338c0.633,0,1.2,0.099,1.701,0.295c0.501,0.195,0.926,0.481,1.274,0.86
		c0.349,0.378,0.614,0.849,0.8,1.41C656.738,500.345,656.83,500.99,656.83,501.716z M655.265,501.785
		c0-0.545-0.062-1.021-0.182-1.428c-0.119-0.407-0.291-0.748-0.515-1.02c-0.223-0.273-0.493-0.479-0.813-0.615
		c-0.32-0.137-0.677-0.207-1.068-0.207c-0.457,0-0.848,0.09-1.173,0.268c-0.325,0.181-0.592,0.418-0.8,0.718
		c-0.208,0.299-0.36,0.646-0.457,1.041c-0.098,0.396-0.146,0.811-0.146,1.243c0,0.545,0.061,1.022,0.181,1.434
		c0.119,0.411,0.291,0.751,0.514,1.023c0.223,0.271,0.492,0.479,0.809,0.615c0.317,0.137,0.675,0.206,1.072,0.206
		c0.457,0,0.849-0.089,1.174-0.269c0.325-0.179,0.592-0.417,0.8-0.717c0.208-0.299,0.36-0.646,0.457-1.042
		C655.218,502.644,655.265,502.226,655.265,501.785z"/>
	<path d="M577.618,501.716c0,0.686-0.098,1.313-0.291,1.885c-0.192,0.572-0.471,1.062-0.834,1.469
		c-0.362,0.407-0.807,0.725-1.327,0.949c-0.521,0.225-1.113,0.338-1.775,0.338c-0.633,0-1.199-0.099-1.7-0.295
		c-0.501-0.195-0.926-0.484-1.273-0.865c-0.349-0.381-0.615-0.853-0.801-1.415c-0.185-0.562-0.275-1.21-0.275-1.941
		c0-0.687,0.096-1.312,0.289-1.877c0.192-0.564,0.473-1.052,0.836-1.459c0.362-0.406,0.805-0.724,1.326-0.949
		c0.521-0.226,1.112-0.338,1.774-0.338c0.633,0,1.2,0.099,1.701,0.295c0.501,0.195,0.926,0.481,1.274,0.86
		c0.349,0.378,0.614,0.849,0.8,1.41C577.527,500.345,577.618,500.99,577.618,501.716z M576.054,501.785
		c0-0.545-0.062-1.021-0.182-1.428c-0.119-0.407-0.291-0.748-0.515-1.02c-0.223-0.273-0.493-0.479-0.813-0.615
		c-0.32-0.137-0.677-0.207-1.068-0.207c-0.457,0-0.848,0.09-1.173,0.268c-0.325,0.181-0.592,0.418-0.8,0.718
		c-0.208,0.299-0.36,0.646-0.457,1.041c-0.098,0.396-0.146,0.811-0.146,1.243c0,0.545,0.061,1.022,0.181,1.434
		c0.119,0.411,0.291,0.751,0.514,1.023c0.223,0.271,0.492,0.479,0.809,0.615c0.317,0.137,0.675,0.206,1.072,0.206
		c0.457,0,0.849-0.089,1.174-0.269c0.325-0.179,0.592-0.417,0.8-0.717c0.208-0.299,0.36-0.646,0.457-1.042
		C576.006,502.644,576.054,502.226,576.054,501.785z"/>
	<path d="M667.236,504.88l-0.098,3.567h-1.396v-2.25h-6.434v2.25h-1.381l-0.088-3.567h0.123c0.223,0,0.434-0.035,0.633-0.105
		s0.385-0.203,0.555-0.399c0.17-0.195,0.326-0.469,0.47-0.816c0.145-0.348,0.272-0.801,0.388-1.354
		c0.113-0.555,0.214-1.227,0.299-2.018s0.157-1.729,0.216-2.813h5.449v7.507H667.236z M664.441,498.693h-2.461
		c-0.059,1.008-0.135,1.866-0.229,2.575c-0.095,0.709-0.204,1.304-0.33,1.784c-0.127,0.479-0.271,0.864-0.437,1.15
		c-0.165,0.287-0.346,0.514-0.545,0.678h4L664.441,498.693L664.441,498.693z"/>
	<path d="M676.482,501.628c0,0.784-0.11,1.471-0.33,2.057s-0.522,1.072-0.91,1.459c-0.387,0.387-0.844,0.677-1.371,0.87
		c-0.526,0.192-1.098,0.29-1.713,0.29c-0.28,0-0.562-0.016-0.84-0.044c-0.278-0.029-0.561-0.079-0.848-0.149v3.691h-1.529v-12.429
		h1.361l0.098,1.478c0.439-0.604,0.908-1.026,1.406-1.271c0.498-0.243,1.037-0.364,1.617-0.364c0.504,0,0.944,0.104,1.326,0.315
		c0.381,0.211,0.7,0.51,0.959,0.894c0.258,0.384,0.45,0.847,0.579,1.389C676.418,500.356,676.482,500.96,676.482,501.628z
		 M674.919,501.698c0-0.463-0.034-0.888-0.103-1.273c-0.068-0.387-0.174-0.719-0.32-0.993c-0.146-0.275-0.334-0.49-0.563-0.646
		c-0.229-0.153-0.502-0.231-0.818-0.231c-0.192,0-0.389,0.031-0.588,0.092c-0.199,0.063-0.406,0.165-0.62,0.309
		c-0.214,0.145-0.438,0.334-0.677,0.57c-0.237,0.238-0.49,0.532-0.76,0.884v4.28c0.281,0.117,0.576,0.21,0.887,0.277
		c0.312,0.066,0.615,0.101,0.914,0.101c0.826,0,1.475-0.279,1.943-0.839C674.682,503.667,674.919,502.823,674.919,501.698z"/>
	<path d="M684.507,506.198l-0.035-1.187c-0.48,0.475-0.968,0.816-1.463,1.027c-0.495,0.212-1.017,0.316-1.562,0.316
		c-0.504,0-0.934-0.063-1.291-0.193c-0.356-0.129-0.651-0.306-0.884-0.53c-0.231-0.226-0.401-0.491-0.51-0.796
		c-0.109-0.306-0.163-0.637-0.163-0.993c0-0.886,0.33-1.578,0.989-2.078c0.658-0.502,1.634-0.752,2.923-0.752h1.828v-0.773
		c0-0.521-0.168-0.938-0.502-1.252c-0.334-0.313-0.845-0.471-1.529-0.471c-0.498,0-0.988,0.056-1.472,0.167
		c-0.484,0.11-0.983,0.27-1.499,0.475v-1.38c0.192-0.07,0.408-0.139,0.646-0.207c0.237-0.065,0.488-0.127,0.752-0.18
		c0.265-0.053,0.539-0.095,0.826-0.127s0.576-0.049,0.869-0.049c0.533,0,1.014,0.059,1.44,0.176c0.428,0.117,0.79,0.296,1.086,0.536
		c0.297,0.239,0.523,0.542,0.683,0.904c0.159,0.363,0.235,0.791,0.235,1.283v6.082L684.507,506.198L684.507,506.198z
		 M684.341,502.182h-1.943c-0.381,0-0.709,0.038-0.984,0.114c-0.274,0.075-0.5,0.185-0.676,0.324
		c-0.176,0.141-0.307,0.311-0.392,0.506c-0.085,0.196-0.128,0.418-0.128,0.663c0,0.171,0.026,0.334,0.08,0.488
		c0.053,0.155,0.137,0.293,0.254,0.412c0.117,0.121,0.27,0.216,0.457,0.286c0.187,0.07,0.416,0.104,0.686,0.104
		c0.353,0,0.755-0.105,1.209-0.32c0.454-0.213,0.935-0.552,1.438-1.016L684.341,502.182L684.341,502.182z"/>
	<path d="M688.496,504.615c0.259,0.07,0.533,0.132,0.826,0.186c0.293,0.053,0.584,0.1,0.871,0.141s0.563,0.072,0.83,0.093
		c0.267,0.021,0.506,0.03,0.717,0.03c0.498,0,0.912-0.032,1.243-0.097c0.331-0.065,0.595-0.156,0.791-0.277
		c0.196-0.119,0.335-0.266,0.417-0.438s0.123-0.367,0.123-0.584c0-0.212-0.036-0.402-0.109-0.576
		c-0.072-0.172-0.205-0.323-0.396-0.452c-0.191-0.129-0.45-0.229-0.778-0.299c-0.328-0.07-0.746-0.105-1.256-0.105h-2.162v-1.187
		h2.152c0.444,0,0.811-0.029,1.095-0.088c0.284-0.06,0.509-0.145,0.673-0.256c0.164-0.11,0.275-0.246,0.334-0.403
		c0.059-0.158,0.088-0.34,0.088-0.545c0-0.199-0.037-0.376-0.109-0.532c-0.073-0.154-0.194-0.286-0.364-0.396
		c-0.17-0.108-0.396-0.191-0.678-0.251c-0.282-0.059-0.63-0.088-1.045-0.088c-0.457,0-0.959,0.032-1.505,0.098
		c-0.545,0.064-1.09,0.157-1.635,0.28v-1.292c0.24-0.053,0.5-0.103,0.778-0.148s0.562-0.085,0.849-0.114s0.572-0.053,0.856-0.07
		c0.284-0.017,0.556-0.025,0.813-0.025c0.691,0,1.269,0.057,1.73,0.172c0.463,0.112,0.836,0.272,1.117,0.479
		c0.28,0.206,0.479,0.448,0.598,0.729s0.176,0.589,0.176,0.923c0,0.246-0.035,0.479-0.104,0.699
		c-0.07,0.219-0.181,0.417-0.326,0.593c-0.146,0.176-0.332,0.325-0.558,0.448c-0.227,0.123-0.497,0.211-0.813,0.264
		c0.316,0.047,0.609,0.125,0.879,0.232c0.271,0.108,0.503,0.253,0.699,0.432s0.352,0.391,0.466,0.637s0.171,0.527,0.171,0.844
		c0,0.388-0.074,0.746-0.224,1.076c-0.149,0.332-0.395,0.615-0.733,0.854c-0.34,0.235-0.789,0.423-1.346,0.558
		s-1.238,0.202-2.047,0.202c-0.217,0-0.456-0.008-0.717-0.021c-0.262-0.017-0.53-0.035-0.81-0.063
		c-0.277-0.025-0.553-0.059-0.821-0.096c-0.271-0.038-0.521-0.084-0.757-0.138L688.496,504.615L688.496,504.615z"/>
	<path d="M706.822,504.88l-0.098,3.567h-1.396v-2.25h-6.434v2.25h-1.381l-0.088-3.567h0.123c0.223,0,0.434-0.035,0.633-0.105
		s0.385-0.203,0.555-0.399c0.17-0.195,0.326-0.469,0.47-0.816c0.145-0.348,0.272-0.801,0.388-1.354
		c0.113-0.555,0.214-1.227,0.299-2.018s0.157-1.729,0.216-2.813h5.449v7.507H706.822z M704.027,498.693h-2.461
		c-0.059,1.008-0.135,1.866-0.229,2.575c-0.095,0.709-0.204,1.304-0.33,1.784c-0.126,0.479-0.271,0.864-0.437,1.15
		c-0.165,0.287-0.346,0.514-0.545,0.678h4L704.027,498.693L704.027,498.693z"/>
	<path d="M715.98,501.321c0,0.217-0.004,0.398-0.01,0.545c-0.006,0.147-0.015,0.284-0.025,0.413h-6.197
		c0,0.902,0.252,1.597,0.756,2.078c0.505,0.484,1.23,0.727,2.181,0.727c0.258,0,0.516-0.011,0.772-0.03
		c0.258-0.021,0.509-0.049,0.748-0.084c0.24-0.035,0.471-0.074,0.689-0.119c0.22-0.043,0.424-0.092,0.611-0.146v1.258
		c-0.416,0.116-0.888,0.213-1.411,0.286c-0.524,0.071-1.067,0.108-1.63,0.108c-0.757,0-1.406-0.103-1.951-0.308
		s-0.992-0.502-1.341-0.893c-0.35-0.39-0.606-0.867-0.773-1.434c-0.167-0.564-0.251-1.205-0.251-1.92
		c0-0.621,0.09-1.209,0.269-1.762c0.18-0.556,0.439-1.04,0.782-1.459c0.343-0.42,0.764-0.753,1.262-0.998
		c0.498-0.246,1.063-0.369,1.695-0.369c0.615,0,1.16,0.097,1.635,0.29c0.476,0.192,0.875,0.468,1.2,0.82
		c0.325,0.355,0.571,0.786,0.738,1.293C715.896,500.126,715.98,500.694,715.98,501.321z M714.388,501.101
		c0.018-0.394-0.021-0.752-0.113-1.076c-0.094-0.326-0.239-0.604-0.436-0.84c-0.197-0.235-0.441-0.418-0.734-0.549
		c-0.293-0.133-0.633-0.198-1.02-0.198c-0.334,0-0.64,0.064-0.914,0.193c-0.275,0.129-0.513,0.311-0.711,0.545
		c-0.199,0.233-0.361,0.516-0.484,0.844s-0.199,0.688-0.229,1.081H714.388z"/>
	<path d="M725.437,506.198h-1.529v-7.506h-2.461c-0.069,1.207-0.175,2.241-0.313,3.104c-0.139,0.861-0.303,1.58-0.496,2.156
		c-0.193,0.578-0.414,1.032-0.66,1.363s-0.511,0.57-0.795,0.721c-0.284,0.148-0.584,0.223-0.9,0.22
		c-0.315-0.003-0.643-0.045-0.977-0.127l0.07-1.267c0.233,0.023,0.455,0.012,0.659-0.035c0.205-0.047,0.396-0.158,0.57-0.338
		c0.175-0.179,0.336-0.437,0.479-0.772c0.143-0.336,0.273-0.787,0.392-1.351c0.118-0.563,0.218-1.252,0.303-2.069
		c0.085-0.816,0.154-1.791,0.207-2.923h5.449L725.437,506.198L725.437,506.198z"/>
	<path d="M735.773,501.321c0,0.217-0.004,0.398-0.01,0.545c-0.006,0.147-0.014,0.284-0.025,0.413h-6.197
		c0,0.902,0.252,1.597,0.757,2.078c0.504,0.484,1.229,0.727,2.18,0.727c0.258,0,0.516-0.011,0.772-0.03
		c0.258-0.021,0.509-0.049,0.748-0.084c0.24-0.035,0.471-0.074,0.689-0.119c0.22-0.043,0.424-0.092,0.611-0.146v1.258
		c-0.416,0.116-0.888,0.213-1.411,0.286c-0.524,0.071-1.067,0.108-1.63,0.108c-0.756,0-1.406-0.103-1.951-0.308
		s-0.992-0.502-1.341-0.893c-0.35-0.39-0.606-0.867-0.773-1.434c-0.167-0.564-0.251-1.205-0.251-1.92c0-0.621,0.09-1.209,0.27-1.762
		c0.179-0.556,0.438-1.04,0.781-1.459c0.343-0.42,0.765-0.753,1.263-0.998c0.498-0.246,1.063-0.369,1.694-0.369
		c0.615,0,1.16,0.097,1.635,0.29c0.476,0.192,0.875,0.468,1.2,0.82c0.325,0.355,0.571,0.786,0.738,1.293
		C735.689,500.126,735.773,500.694,735.773,501.321z M734.181,501.101c0.018-0.394-0.021-0.752-0.113-1.076
		c-0.094-0.326-0.239-0.604-0.436-0.84c-0.197-0.235-0.441-0.418-0.734-0.549c-0.293-0.133-0.633-0.198-1.02-0.198
		c-0.334,0-0.64,0.064-0.914,0.193c-0.275,0.129-0.513,0.311-0.711,0.545c-0.199,0.233-0.361,0.516-0.484,0.844
		s-0.199,0.688-0.229,1.081H734.181z"/>
	<path d="M745.308,506.198h-1.529v-3.901h-4.033v3.901h-1.528v-8.824h1.528v3.587h4.033v-3.587h1.529V506.198z"/>
	<path d="M749.765,497.373v6.215l3.85-6.215h1.459v8.824h-1.528v-6.214l-3.851,6.214h-1.459v-8.824H749.765z"/>
	<path d="M759.662,497.373v6.215l3.851-6.215h1.459v8.824h-1.529v-6.214l-3.85,6.214h-1.459v-8.824H759.662z M764.25,493.973
		c0,0.346-0.065,0.653-0.197,0.923s-0.316,0.5-0.555,0.689c-0.236,0.19-0.522,0.336-0.856,0.436s-0.703,0.149-1.107,0.149
		c-0.469,0-0.869-0.051-1.203-0.149s-0.607-0.244-0.821-0.436c-0.214-0.189-0.371-0.421-0.472-0.689
		c-0.1-0.269-0.147-0.577-0.147-0.923h1.389c0,0.17,0.021,0.328,0.062,0.475c0.04,0.147,0.109,0.276,0.206,0.393
		c0.098,0.112,0.228,0.203,0.392,0.268c0.164,0.065,0.369,0.097,0.615,0.097c0.252,0,0.462-0.031,0.629-0.097
		c0.167-0.064,0.301-0.154,0.399-0.268c0.101-0.115,0.17-0.245,0.211-0.393c0.041-0.146,0.062-0.305,0.062-0.475H764.25z"/>
	<g>
		<path d="M646.298,497.676v8.228h-1.496v-7.055h-3.825v7.055h-1.495v-8.228H646.298z"/>
	</g>
</g>
<rect x="354.17" y="380.779" fill="none" width="143.336" height="46.334"/>
<g enable-background="new    ">
	<path d="M363.636,393.198h-1.529l-0.229-7.163l-0.097-2.751l-0.536,1.601l-1.696,4.569h-1.081l-1.616-4.395l-0.536-1.775
		l-0.035,2.874l-0.202,7.04h-1.477l0.563-11.486h1.854l1.547,4.323l0.501,1.459l0.482-1.459l1.626-4.323h1.907L363.636,393.198z"/>
	<path d="M371.142,393.198l-0.035-1.187c-0.48,0.475-0.968,0.816-1.463,1.027c-0.495,0.212-1.016,0.316-1.561,0.316
		c-0.504,0-0.935-0.063-1.292-0.193c-0.356-0.129-0.651-0.306-0.883-0.53c-0.23-0.226-0.401-0.491-0.51-0.796
		c-0.109-0.306-0.163-0.637-0.163-0.993c0-0.886,0.33-1.578,0.989-2.078c0.658-0.502,1.633-0.752,2.922-0.752h1.828v-0.773
		c0-0.521-0.167-0.938-0.501-1.252c-0.334-0.313-0.845-0.471-1.529-0.471c-0.498,0-0.989,0.056-1.472,0.167
		c-0.483,0.11-0.983,0.27-1.499,0.475v-1.38c0.192-0.07,0.408-0.139,0.646-0.207c0.237-0.065,0.488-0.127,0.751-0.18
		c0.264-0.053,0.539-0.095,0.826-0.127s0.577-0.049,0.87-0.049c0.533,0,1.014,0.059,1.44,0.176c0.428,0.117,0.79,0.296,1.086,0.536
		c0.295,0.239,0.522,0.542,0.681,0.904c0.158,0.363,0.237,0.791,0.237,1.283v6.082L371.142,393.198L371.142,393.198z
		 M370.975,389.182h-1.942c-0.381,0-0.709,0.038-0.984,0.114c-0.274,0.075-0.501,0.185-0.677,0.324
		c-0.176,0.141-0.306,0.311-0.391,0.506c-0.085,0.196-0.127,0.418-0.127,0.663c0,0.171,0.025,0.334,0.079,0.488
		c0.053,0.155,0.138,0.293,0.255,0.412c0.117,0.121,0.27,0.216,0.457,0.286c0.187,0.07,0.416,0.104,0.686,0.104
		c0.353,0,0.754-0.105,1.208-0.32c0.454-0.213,0.934-0.552,1.438-1.016L370.975,389.182L370.975,389.182z"/>
	<path d="M382.911,388.628c0,0.784-0.109,1.471-0.33,2.057c-0.22,0.586-0.522,1.072-0.91,1.459c-0.387,0.387-0.844,0.677-1.371,0.87
		c-0.526,0.192-1.099,0.29-1.714,0.29c-0.28,0-0.561-0.016-0.839-0.044c-0.277-0.029-0.561-0.079-0.848-0.149v3.691h-1.529v-12.429
		h1.362l0.097,1.478c0.439-0.604,0.908-1.026,1.406-1.271c0.498-0.243,1.037-0.364,1.617-0.364c0.504,0,0.945,0.104,1.327,0.315
		c0.381,0.211,0.699,0.51,0.958,0.894c0.258,0.384,0.45,0.847,0.58,1.389C382.846,387.356,382.911,387.96,382.911,388.628z
		 M381.346,388.698c0-0.463-0.034-0.888-0.102-1.273c-0.066-0.387-0.174-0.719-0.321-0.993c-0.146-0.275-0.334-0.49-0.563-0.646
		c-0.229-0.153-0.501-0.231-0.817-0.231c-0.192,0-0.39,0.031-0.589,0.092c-0.199,0.063-0.406,0.165-0.62,0.309
		c-0.214,0.145-0.438,0.334-0.677,0.57c-0.237,0.238-0.491,0.532-0.76,0.884v4.28c0.281,0.117,0.577,0.21,0.888,0.277
		c0.312,0.066,0.615,0.101,0.914,0.101c0.826,0,1.474-0.279,1.942-0.839C381.11,390.667,381.346,389.823,381.346,388.698z"/>
	<path d="M393.203,393.198h-2.101l-4.113-4.729v4.729h-1.529v-8.824h1.529v4.034l3.964-4.034h2.021l-4.141,4.069L393.203,393.198z"
		/>
	<path d="M402.616,388.321c0,0.217-0.003,0.398-0.009,0.545c-0.006,0.147-0.016,0.284-0.026,0.413h-6.196
		c0,0.902,0.253,1.597,0.757,2.078c0.504,0.484,1.229,0.727,2.18,0.727c0.258,0,0.516-0.011,0.773-0.03
		c0.257-0.021,0.507-0.049,0.746-0.084c0.24-0.035,0.471-0.074,0.69-0.119c0.22-0.043,0.423-0.092,0.611-0.146v1.258
		c-0.416,0.116-0.887,0.213-1.411,0.286c-0.524,0.071-1.068,0.108-1.63,0.108c-0.756,0-1.406-0.103-1.951-0.308
		s-0.992-0.502-1.34-0.893c-0.349-0.39-0.606-0.867-0.773-1.434c-0.167-0.564-0.25-1.205-0.25-1.92c0-0.621,0.089-1.209,0.269-1.762
		c0.179-0.556,0.438-1.04,0.781-1.459c0.344-0.42,0.764-0.753,1.262-0.998c0.498-0.246,1.063-0.369,1.695-0.369
		c0.615,0,1.16,0.097,1.636,0.29c0.475,0.192,0.875,0.468,1.199,0.82c0.325,0.355,0.571,0.786,0.738,1.293
		C402.534,387.126,402.616,387.694,402.616,388.321z M401.025,388.101c0.018-0.394-0.021-0.752-0.114-1.076
		c-0.094-0.326-0.239-0.604-0.435-0.84c-0.196-0.235-0.441-0.418-0.734-0.549c-0.293-0.133-0.633-0.198-1.02-0.198
		c-0.334,0-0.64,0.064-0.914,0.193c-0.275,0.129-0.514,0.311-0.712,0.545c-0.199,0.233-0.36,0.516-0.483,0.844
		s-0.199,0.688-0.229,1.081H401.025z"/>
	<path d="M412.723,385.693h-3.35v7.506h-1.547v-7.506h-3.349v-1.317h8.244L412.723,385.693L412.723,385.693z"/>
	<path d="M416.608,384.373v6.215l3.85-6.215h1.46v8.824h-1.529v-6.214l-3.851,6.214h-1.459v-8.824H416.608z"/>
	<path d="M431.945,393.198h-1.529v-3.901h-4.033v3.901h-1.529v-8.824h1.529v3.587h4.033v-3.587h1.529V393.198z"/>
	<path d="M437.016,385.693v7.506h-1.547v-8.823h6.39v1.317H437.016z"/>
</g>
<rect x="470.172" y="380.779" fill="none" width="143.333" height="46.334"/>
<g enable-background="new    ">
	<path d="M479.039,393.198h-1.563V383.1h-4.711v10.099H471.2v-11.486h7.841v11.485H479.039z"/>
	<path d="M489.014,388.628c0,0.784-0.11,1.471-0.33,2.057s-0.523,1.072-0.91,1.459s-0.844,0.677-1.371,0.87
		c-0.526,0.192-1.099,0.29-1.714,0.29c-0.281,0-0.561-0.016-0.839-0.044c-0.278-0.029-0.562-0.079-0.848-0.149v3.691h-1.529v-12.429
		h1.362l0.097,1.478c0.438-0.604,0.908-1.026,1.406-1.271c0.498-0.243,1.036-0.364,1.616-0.364c0.505,0,0.946,0.104,1.327,0.315
		s0.7,0.51,0.958,0.894s0.451,0.847,0.58,1.389S489.014,387.96,489.014,388.628z M487.45,388.698c0-0.463-0.034-0.888-0.101-1.273
		c-0.067-0.387-0.174-0.719-0.321-0.993c-0.146-0.275-0.334-0.49-0.563-0.646c-0.229-0.153-0.501-0.231-0.817-0.231
		c-0.193,0-0.39,0.031-0.589,0.092c-0.199,0.063-0.406,0.165-0.62,0.309c-0.214,0.145-0.439,0.334-0.677,0.57
		c-0.237,0.238-0.491,0.532-0.76,0.884v4.28c0.28,0.117,0.576,0.21,0.888,0.277c0.311,0.066,0.615,0.101,0.914,0.101
		c0.826,0,1.474-0.279,1.941-0.839C487.215,390.667,487.45,389.823,487.45,388.698z"/>
	<path d="M499.052,388.716c0,0.686-0.098,1.313-0.29,1.885c-0.193,0.572-0.472,1.062-0.835,1.469s-0.807,0.725-1.327,0.949
		c-0.521,0.225-1.113,0.338-1.775,0.338c-0.633,0-1.2-0.099-1.7-0.295c-0.502-0.195-0.927-0.484-1.274-0.865s-0.615-0.853-0.8-1.415
		c-0.186-0.562-0.277-1.21-0.277-1.941c0-0.687,0.097-1.312,0.29-1.877c0.193-0.564,0.472-1.052,0.835-1.459
		c0.363-0.406,0.806-0.724,1.327-0.949c0.521-0.226,1.113-0.338,1.774-0.338c0.634,0,1.2,0.099,1.701,0.295
		c0.501,0.195,0.927,0.481,1.274,0.86c0.349,0.378,0.615,0.849,0.8,1.41C498.961,387.345,499.052,387.99,499.052,388.716z
		 M497.487,388.785c0-0.545-0.06-1.021-0.18-1.428s-0.292-0.748-0.515-1.02c-0.223-0.273-0.493-0.479-0.813-0.615
		s-0.675-0.207-1.068-0.207c-0.457,0-0.848,0.09-1.173,0.268c-0.325,0.181-0.592,0.418-0.8,0.718
		c-0.208,0.299-0.36,0.646-0.457,1.041s-0.145,0.811-0.145,1.243c0,0.545,0.06,1.022,0.18,1.434s0.292,0.751,0.514,1.023
		c0.224,0.271,0.492,0.479,0.81,0.615c0.316,0.137,0.674,0.206,1.071,0.206c0.457,0,0.849-0.089,1.174-0.269
		c0.324-0.179,0.592-0.417,0.8-0.717c0.208-0.299,0.359-0.646,0.457-1.042C497.439,389.644,497.487,389.226,497.487,388.785z"/>
	<path d="M502.92,384.373v6.215l3.85-6.215h1.459v8.824h-1.529v-6.214l-3.85,6.214h-1.459v-8.824H502.92z"/>
	<path d="M510.927,391.615c0.258,0.07,0.532,0.132,0.825,0.186c0.294,0.053,0.584,0.1,0.87,0.141
		c0.287,0.041,0.564,0.072,0.831,0.093c0.268,0.021,0.506,0.03,0.717,0.03c0.498,0,0.912-0.032,1.243-0.097
		c0.331-0.065,0.596-0.156,0.791-0.277c0.196-0.119,0.335-0.266,0.417-0.438s0.123-0.367,0.123-0.584
		c0-0.212-0.037-0.402-0.109-0.576c-0.073-0.172-0.205-0.323-0.396-0.452c-0.19-0.129-0.45-0.229-0.777-0.299
		c-0.328-0.07-0.747-0.105-1.258-0.105h-2.162v-1.187h2.153c0.445,0,0.811-0.029,1.094-0.088c0.284-0.06,0.509-0.145,0.673-0.256
		c0.164-0.11,0.274-0.246,0.334-0.403c0.059-0.158,0.088-0.34,0.088-0.545c0-0.199-0.037-0.376-0.11-0.532
		c-0.073-0.154-0.195-0.286-0.365-0.396c-0.17-0.108-0.396-0.191-0.677-0.251c-0.281-0.059-0.63-0.088-1.046-0.088
		c-0.457,0-0.958,0.032-1.503,0.098c-0.545,0.064-1.09,0.157-1.635,0.28v-1.292c0.239-0.053,0.5-0.103,0.777-0.148
		c0.278-0.046,0.562-0.085,0.849-0.114s0.572-0.053,0.856-0.07c0.284-0.017,0.556-0.025,0.813-0.025c0.69,0,1.269,0.057,1.73,0.172
		c0.463,0.112,0.835,0.272,1.116,0.479s0.48,0.448,0.598,0.729c0.118,0.281,0.177,0.589,0.177,0.923
		c0,0.246-0.035,0.479-0.105,0.699c-0.069,0.219-0.179,0.417-0.325,0.593c-0.146,0.176-0.333,0.325-0.558,0.448
		s-0.497,0.211-0.813,0.264c0.315,0.047,0.608,0.125,0.879,0.232c0.27,0.108,0.502,0.253,0.698,0.432
		c0.197,0.179,0.353,0.391,0.467,0.637c0.113,0.246,0.171,0.527,0.171,0.844c0,0.388-0.075,0.746-0.225,1.076
		c-0.148,0.332-0.394,0.615-0.733,0.854c-0.34,0.235-0.788,0.423-1.346,0.558c-0.557,0.135-1.238,0.202-2.048,0.202
		c-0.217,0-0.456-0.008-0.716-0.021c-0.261-0.017-0.53-0.035-0.809-0.063c-0.278-0.025-0.553-0.059-0.822-0.096
		c-0.27-0.038-0.521-0.084-0.756-0.138v-1.427H510.927z"/>
	<path d="M528.635,390.622c0,0.404-0.085,0.773-0.255,1.107s-0.435,0.62-0.791,0.856c-0.357,0.237-0.811,0.422-1.358,0.555
		c-0.548,0.131-1.2,0.197-1.956,0.197c-0.498,0-1.028-0.021-1.591-0.058c-0.563-0.039-1.104-0.09-1.626-0.153v-8.711
		c0.551-0.063,1.109-0.113,1.674-0.148c0.565-0.035,1.176-0.053,1.833-0.053c1.189,0,2.093,0.194,2.711,0.584
		c0.618,0.391,0.927,0.95,0.927,1.684c0,0.498-0.144,0.926-0.431,1.283c-0.287,0.356-0.721,0.621-1.301,0.791
		c0.281,0.047,0.552,0.125,0.813,0.231c0.262,0.109,0.491,0.25,0.69,0.423c0.199,0.174,0.359,0.377,0.479,0.61
		C528.573,390.056,528.635,390.323,528.635,390.622z M526.64,386.79c0-0.204-0.041-0.39-0.123-0.554s-0.212-0.305-0.391-0.422
		c-0.18-0.117-0.413-0.207-0.703-0.268c-0.29-0.063-0.641-0.094-1.051-0.094c-0.368,0-0.69,0.009-0.967,0.022
		c-0.275,0.014-0.548,0.039-0.816,0.074v2.549h1.774C525.883,388.101,526.64,387.663,526.64,386.79z M527.018,390.657
		c0-0.457-0.207-0.801-0.62-1.032c-0.413-0.23-1.056-0.348-1.929-0.348h-1.881v2.698c0.286,0.047,0.57,0.079,0.853,0.097
		c0.282,0.019,0.604,0.026,0.967,0.026c0.521,0,0.951-0.035,1.288-0.105c0.337-0.069,0.604-0.17,0.8-0.299
		c0.196-0.129,0.333-0.281,0.409-0.457S527.018,390.868,527.018,390.657z"/>
	<path d="M538.637,388.716c0,0.686-0.097,1.313-0.29,1.885c-0.193,0.572-0.472,1.062-0.835,1.469s-0.807,0.725-1.327,0.949
		c-0.521,0.225-1.113,0.338-1.775,0.338c-0.633,0-1.199-0.099-1.701-0.295c-0.5-0.195-0.926-0.484-1.273-0.865
		s-0.615-0.853-0.8-1.415c-0.186-0.562-0.277-1.21-0.277-1.941c0-0.687,0.097-1.312,0.29-1.877c0.193-0.564,0.472-1.052,0.835-1.459
		c0.363-0.406,0.806-0.724,1.327-0.949s1.113-0.338,1.775-0.338c0.633,0,1.199,0.099,1.7,0.295c0.501,0.195,0.927,0.481,1.274,0.86
		c0.349,0.378,0.615,0.849,0.8,1.41C538.546,387.345,538.637,387.99,538.637,388.716z M537.073,388.785
		c0-0.545-0.06-1.021-0.18-1.428s-0.292-0.748-0.514-1.02c-0.224-0.273-0.494-0.479-0.813-0.615
		c-0.318-0.137-0.675-0.207-1.068-0.207c-0.456,0-0.848,0.09-1.173,0.268c-0.324,0.181-0.592,0.418-0.8,0.718
		c-0.208,0.299-0.359,0.646-0.457,1.041c-0.097,0.396-0.145,0.811-0.145,1.243c0,0.545,0.06,1.022,0.18,1.434
		s0.292,0.751,0.514,1.023c0.224,0.271,0.492,0.479,0.81,0.615c0.316,0.137,0.674,0.206,1.072,0.206
		c0.456,0,0.848-0.089,1.173-0.269c0.324-0.179,0.592-0.417,0.8-0.717c0.208-0.299,0.36-0.646,0.457-1.042
		C537.025,389.644,537.073,389.226,537.073,388.785z"/>
	<path d="M549.045,391.88l-0.098,3.567h-1.396v-2.25h-6.435v2.25h-1.38l-0.088-3.567h0.123c0.223,0,0.434-0.035,0.633-0.105
		s0.384-0.203,0.555-0.399c0.17-0.195,0.326-0.469,0.47-0.816c0.143-0.348,0.271-0.801,0.387-1.354
		c0.114-0.555,0.214-1.227,0.299-2.018s0.157-1.729,0.215-2.813h5.449v7.507H549.045z M546.25,385.693h-2.462
		c-0.059,1.008-0.135,1.866-0.229,2.575s-0.204,1.304-0.33,1.784c-0.126,0.479-0.271,0.864-0.435,1.15
		c-0.164,0.287-0.347,0.514-0.545,0.678h3.998v-6.188H546.25z"/>
	<path d="M557.604,392.872c-0.398,0.152-0.807,0.267-1.226,0.34c-0.42,0.071-0.852,0.108-1.297,0.108
		c-1.395,0-2.468-0.378-3.221-1.134s-1.129-1.86-1.129-3.313c0-0.696,0.108-1.329,0.325-1.897s0.521-1.055,0.914-1.459
		c0.393-0.404,0.86-0.717,1.405-0.937c0.546-0.221,1.146-0.33,1.803-0.33c0.457,0,0.885,0.032,1.283,0.098
		c0.397,0.064,0.778,0.17,1.143,0.315v1.459c-0.381-0.198-0.769-0.344-1.165-0.435c-0.396-0.091-0.804-0.137-1.226-0.137
		c-0.394,0-0.764,0.074-1.112,0.225c-0.349,0.148-0.655,0.364-0.918,0.646c-0.263,0.281-0.472,0.624-0.624,1.027
		c-0.152,0.404-0.229,0.861-0.229,1.371c0,1.066,0.26,1.865,0.778,2.396c0.52,0.53,1.238,0.796,2.158,0.796
		c0.416,0,0.818-0.047,1.208-0.142c0.389-0.094,0.766-0.233,1.129-0.422V392.872z"/>
	<path d="M568.309,385.693h-3.349v7.506h-1.548v-7.506h-3.349v-1.317h8.244L568.309,385.693L568.309,385.693z"/>
	<path d="M578.118,390.622c0,0.404-0.085,0.773-0.255,1.107s-0.434,0.62-0.791,0.856c-0.356,0.237-0.81,0.422-1.357,0.555
		c-0.549,0.131-1.2,0.197-1.956,0.197c-0.498,0-1.028-0.021-1.591-0.058c-0.563-0.039-1.104-0.09-1.627-0.153v-8.711
		c0.552-0.063,1.109-0.113,1.675-0.148c0.564-0.035,1.176-0.053,1.833-0.053c1.188,0,2.093,0.194,2.711,0.584
		c0.618,0.391,0.927,0.95,0.927,1.684c0,0.498-0.144,0.926-0.431,1.283c-0.287,0.356-0.722,0.621-1.302,0.791
		c0.281,0.047,0.553,0.125,0.813,0.231c0.261,0.109,0.491,0.25,0.689,0.423c0.199,0.174,0.359,0.377,0.479,0.61
		C578.056,390.056,578.118,390.323,578.118,390.622z M576.123,386.79c0-0.204-0.041-0.39-0.123-0.554
		c-0.081-0.164-0.212-0.305-0.391-0.422s-0.413-0.207-0.703-0.268c-0.29-0.063-0.64-0.094-1.05-0.094
		c-0.369,0-0.69,0.009-0.967,0.022s-0.548,0.039-0.817,0.074v2.549h1.775C575.364,388.101,576.123,387.663,576.123,386.79z
		 M576.502,390.657c0-0.457-0.207-0.801-0.62-1.032c-0.413-0.23-1.057-0.348-1.93-0.348h-1.881v2.698
		c0.287,0.047,0.571,0.079,0.854,0.097c0.282,0.019,0.604,0.026,0.967,0.026c0.521,0,0.951-0.035,1.288-0.105
		c0.337-0.069,0.604-0.17,0.8-0.299s0.333-0.281,0.409-0.457S576.502,390.868,576.502,390.657z"/>
	<path d="M588.12,388.716c0,0.686-0.097,1.313-0.29,1.885c-0.192,0.572-0.472,1.062-0.835,1.469
		c-0.362,0.407-0.806,0.725-1.327,0.949c-0.521,0.225-1.112,0.338-1.774,0.338c-0.633,0-1.2-0.099-1.701-0.295
		c-0.501-0.195-0.926-0.484-1.274-0.865c-0.348-0.381-0.614-0.853-0.8-1.415c-0.185-0.562-0.276-1.21-0.276-1.941
		c0-0.687,0.097-1.312,0.29-1.877c0.192-0.564,0.472-1.052,0.835-1.459c0.362-0.406,0.806-0.724,1.327-0.949
		c0.521-0.226,1.112-0.338,1.774-0.338c0.633,0,1.2,0.099,1.701,0.295c0.501,0.195,0.926,0.481,1.274,0.86
		c0.349,0.378,0.614,0.849,0.8,1.41C588.028,387.345,588.12,387.99,588.12,388.716z M586.555,388.785
		c0-0.545-0.061-1.021-0.181-1.428c-0.119-0.407-0.291-0.748-0.514-1.02c-0.223-0.273-0.494-0.479-0.813-0.615
		c-0.319-0.137-0.676-0.207-1.068-0.207c-0.457,0-0.848,0.09-1.173,0.268c-0.325,0.181-0.592,0.418-0.8,0.718
		c-0.208,0.299-0.36,0.646-0.457,1.041c-0.098,0.396-0.146,0.811-0.146,1.243c0,0.545,0.061,1.022,0.181,1.434
		c0.119,0.411,0.292,0.751,0.514,1.023c0.223,0.271,0.492,0.479,0.809,0.615c0.317,0.137,0.675,0.206,1.072,0.206
		c0.457,0,0.848-0.089,1.173-0.269c0.325-0.179,0.592-0.417,0.8-0.717c0.208-0.299,0.36-0.646,0.457-1.042
		C586.508,389.644,586.555,389.226,586.555,388.785z"/>
</g>
<rect x="619.172" y="380.779" fill="none" width="143.334" height="46.334"/>
<g enable-background="new    ">
	<path d="M627.687,393.198h-1.564v-10.134h-2.541c-0.053,1.494-0.136,2.795-0.25,3.902c-0.113,1.106-0.259,2.05-0.435,2.825
		c-0.176,0.776-0.372,1.388-0.589,1.832c-0.217,0.445-0.438,0.779-0.664,1.003c-0.227,0.223-0.456,0.38-0.69,0.47
		c-0.233,0.092-0.498,0.137-0.791,0.137c-0.239,0-0.491-0.029-0.756-0.088l0.07-1.336c0.322,0.041,0.604-0.044,0.848-0.255
		s0.456-0.525,0.638-0.944c0.181-0.419,0.334-0.934,0.457-1.543s0.229-1.293,0.315-2.053c0.088-0.758,0.163-1.584,0.224-2.479
		c0.063-0.893,0.116-1.835,0.163-2.824h5.564L627.687,393.198L627.687,393.198z"/>
	<path d="M638.154,388.716c0,0.686-0.096,1.313-0.289,1.885c-0.192,0.572-0.473,1.062-0.836,1.469s-0.805,0.725-1.326,0.949
		c-0.521,0.225-1.112,0.338-1.774,0.338c-0.633,0-1.2-0.099-1.701-0.295c-0.501-0.195-0.926-0.484-1.274-0.865
		c-0.348-0.381-0.614-0.853-0.8-1.415c-0.185-0.562-0.276-1.21-0.276-1.941c0-0.687,0.098-1.312,0.291-1.877
		c0.192-0.564,0.471-1.052,0.834-1.459c0.362-0.406,0.807-0.724,1.327-0.949c0.521-0.226,1.113-0.338,1.775-0.338
		c0.633,0,1.199,0.099,1.7,0.295c0.501,0.195,0.926,0.481,1.273,0.86c0.35,0.378,0.615,0.849,0.801,1.41
		C638.063,387.345,638.154,387.99,638.154,388.716z M636.591,388.785c0-0.545-0.061-1.021-0.181-1.428
		c-0.119-0.407-0.291-0.748-0.514-1.02c-0.223-0.273-0.494-0.479-0.813-0.615c-0.319-0.137-0.676-0.207-1.067-0.207
		c-0.457,0-0.849,0.09-1.174,0.268c-0.325,0.181-0.592,0.418-0.8,0.718c-0.208,0.299-0.36,0.646-0.457,1.041
		c-0.098,0.396-0.146,0.811-0.146,1.243c0,0.545,0.062,1.022,0.182,1.434c0.119,0.411,0.291,0.751,0.515,1.023
		c0.223,0.271,0.492,0.479,0.809,0.615c0.317,0.137,0.675,0.206,1.072,0.206c0.457,0,0.848-0.089,1.173-0.269
		c0.325-0.179,0.592-0.417,0.8-0.717c0.208-0.299,0.36-0.646,0.457-1.042C636.543,389.644,636.591,389.226,636.591,388.785z"/>
	<path d="M642.636,385.693v7.506h-1.547v-8.823h6.391v1.317H642.636z"/>
	<path d="M651.919,384.373v6.215l3.85-6.215h1.459v8.824h-1.529v-6.214l-3.85,6.214h-1.459v-8.824H651.919z"/>
	<path d="M667.017,392.872c-0.398,0.152-0.807,0.267-1.227,0.34c-0.419,0.071-0.851,0.108-1.296,0.108
		c-1.395,0-2.469-0.378-3.222-1.134s-1.13-1.86-1.13-3.313c0-0.696,0.109-1.329,0.326-1.897s0.521-1.055,0.914-1.459
		c0.393-0.404,0.86-0.717,1.405-0.937c0.545-0.221,1.146-0.33,1.802-0.33c0.457,0,0.885,0.032,1.282,0.098
		c0.398,0.064,0.779,0.17,1.144,0.315v1.459c-0.381-0.198-0.769-0.344-1.164-0.435s-0.805-0.137-1.227-0.137
		c-0.394,0-0.764,0.074-1.111,0.225c-0.349,0.148-0.654,0.364-0.918,0.646c-0.265,0.281-0.474,0.624-0.625,1.027
		c-0.152,0.404-0.229,0.861-0.229,1.371c0,1.066,0.261,1.865,0.778,2.396c0.519,0.53,1.237,0.796,2.157,0.796
		c0.416,0,0.818-0.047,1.209-0.142c0.39-0.094,0.766-0.233,1.129-0.422v1.424H667.017z"/>
	<path d="M677.722,385.693h-3.349v7.506h-1.547v-7.506h-3.35v-1.317h8.244L677.722,385.693L677.722,385.693z"/>
	<path d="M681.607,384.373v6.215l3.85-6.215h1.459v8.824h-1.528v-6.214l-3.851,6.214h-1.459v-8.824H681.607z"/>
	<path d="M697.789,393.198h-2.102l-4.113-4.729v4.729h-1.528v-8.824h1.528v4.034l3.965-4.034h2.021l-4.141,4.069L697.789,393.198z"
		/>
	<path d="M705.419,393.198l-0.035-1.187c-0.48,0.475-0.97,0.816-1.464,1.027c-0.495,0.212-1.016,0.316-1.561,0.316
		c-0.504,0-0.936-0.063-1.293-0.193c-0.357-0.129-0.65-0.306-0.883-0.53c-0.232-0.226-0.401-0.491-0.51-0.796
		c-0.109-0.306-0.162-0.637-0.162-0.993c0-0.886,0.329-1.578,0.988-2.078c0.658-0.502,1.633-0.752,2.922-0.752h1.828v-0.773
		c0-0.521-0.166-0.938-0.5-1.252c-0.334-0.313-0.845-0.471-1.529-0.471c-0.498,0-0.989,0.056-1.474,0.167
		c-0.483,0.11-0.981,0.27-1.497,0.475v-1.38c0.192-0.07,0.407-0.139,0.646-0.207c0.237-0.065,0.487-0.127,0.751-0.18
		s0.539-0.095,0.826-0.127s0.578-0.049,0.871-0.049c0.533,0,1.014,0.059,1.44,0.176s0.789,0.296,1.085,0.536
		c0.296,0.239,0.522,0.542,0.682,0.904c0.159,0.363,0.237,0.791,0.237,1.283v6.082L705.419,393.198L705.419,393.198z
		 M705.25,389.182h-1.94c-0.381,0-0.709,0.038-0.984,0.114c-0.274,0.075-0.502,0.185-0.678,0.324
		c-0.176,0.141-0.306,0.311-0.391,0.506c-0.085,0.196-0.127,0.418-0.127,0.663c0,0.171,0.024,0.334,0.077,0.488
		c0.054,0.155,0.14,0.293,0.257,0.412c0.116,0.121,0.27,0.216,0.457,0.286c0.187,0.07,0.416,0.104,0.686,0.104
		c0.352,0,0.754-0.105,1.208-0.32c0.454-0.213,0.933-0.552,1.438-1.016v-1.563H705.25z"/>
</g>
<rect x="739.172" y="380.779" fill="none" width="143.334" height="46.334"/>
<g enable-background="new    ">
	<path d="M748.039,393.198h-1.563V383.1h-4.711v10.099H740.2v-11.486h7.84L748.039,393.198L748.039,393.198z"/>
	<path d="M758.013,388.628c0,0.784-0.109,1.471-0.329,2.057s-0.522,1.072-0.909,1.459s-0.844,0.677-1.371,0.87
		c-0.526,0.192-1.1,0.29-1.715,0.29c-0.281,0-0.561-0.016-0.839-0.044c-0.278-0.029-0.563-0.079-0.849-0.149v3.691h-1.529v-12.429
		h1.363l0.096,1.478c0.438-0.604,0.908-1.026,1.406-1.271c0.498-0.243,1.037-0.364,1.616-0.364c0.505,0,0.947,0.104,1.328,0.315
		s0.699,0.51,0.957,0.894s0.451,0.847,0.58,1.389S758.013,387.96,758.013,388.628z M756.449,388.698
		c0-0.463-0.033-0.888-0.101-1.273c-0.068-0.387-0.175-0.719-0.321-0.993c-0.146-0.275-0.334-0.49-0.563-0.646
		c-0.229-0.153-0.5-0.231-0.816-0.231c-0.193,0-0.391,0.031-0.59,0.092c-0.199,0.063-0.405,0.165-0.619,0.309
		c-0.214,0.145-0.439,0.334-0.677,0.57c-0.237,0.238-0.491,0.532-0.761,0.884v4.28c0.28,0.117,0.577,0.21,0.889,0.277
		c0.311,0.066,0.615,0.101,0.914,0.101c0.826,0,1.473-0.279,1.94-0.839S756.449,389.823,756.449,388.698z"/>
	<path d="M768.052,388.716c0,0.686-0.097,1.313-0.289,1.885c-0.193,0.572-0.474,1.062-0.836,1.469
		c-0.363,0.407-0.806,0.725-1.326,0.949c-0.521,0.225-1.113,0.338-1.775,0.338c-0.633,0-1.2-0.099-1.7-0.295
		c-0.502-0.195-0.927-0.484-1.274-0.865s-0.615-0.853-0.8-1.415c-0.186-0.562-0.277-1.21-0.277-1.941
		c0-0.687,0.098-1.312,0.291-1.877c0.193-0.564,0.471-1.052,0.834-1.459c0.363-0.406,0.807-0.724,1.328-0.949
		s1.113-0.338,1.775-0.338c0.633,0,1.198,0.099,1.699,0.295c0.502,0.195,0.927,0.481,1.274,0.86c0.349,0.378,0.615,0.849,0.8,1.41
		C767.961,387.345,768.052,387.99,768.052,388.716z M766.486,388.785c0-0.545-0.06-1.021-0.18-1.428s-0.291-0.748-0.514-1.02
		c-0.224-0.273-0.494-0.479-0.813-0.615s-0.675-0.207-1.067-0.207c-0.457,0-0.849,0.09-1.174,0.268
		c-0.325,0.181-0.592,0.418-0.8,0.718c-0.208,0.299-0.36,0.646-0.457,1.041s-0.146,0.811-0.146,1.243
		c0,0.545,0.061,1.022,0.181,1.434s0.292,0.751,0.515,1.023c0.224,0.271,0.492,0.479,0.81,0.615
		c0.316,0.137,0.674,0.206,1.072,0.206c0.456,0,0.848-0.089,1.173-0.269c0.324-0.179,0.592-0.417,0.8-0.717
		c0.208-0.299,0.36-0.646,0.457-1.042C766.438,389.644,766.486,389.226,766.486,388.785z"/>
	<path d="M778.457,391.88l-0.096,3.567h-1.397v-2.25h-6.435v2.25h-1.379l-0.088-3.567h0.123c0.223,0,0.434-0.035,0.633-0.105
		s0.383-0.203,0.553-0.399c0.17-0.195,0.327-0.469,0.472-0.816c0.144-0.348,0.271-0.801,0.387-1.354
		c0.114-0.555,0.214-1.227,0.299-2.018s0.156-1.729,0.215-2.813h5.449v7.507H778.457z M775.662,385.693h-2.461
		c-0.059,1.008-0.135,1.866-0.229,2.575s-0.203,1.304-0.329,1.784c-0.126,0.479-0.271,0.864-0.435,1.15
		c-0.164,0.287-0.347,0.514-0.546,0.678h3.998L775.662,385.693L775.662,385.693z"/>
	<path d="M785.832,393.198l-0.034-1.187c-0.48,0.475-0.97,0.816-1.464,1.027c-0.495,0.212-1.016,0.316-1.561,0.316
		c-0.504,0-0.936-0.063-1.293-0.193c-0.357-0.129-0.651-0.306-0.883-0.53c-0.232-0.226-0.401-0.491-0.51-0.796
		c-0.109-0.306-0.162-0.637-0.162-0.993c0-0.886,0.329-1.578,0.987-2.078c0.659-0.502,1.634-0.752,2.923-0.752h1.827v-0.773
		c0-0.521-0.166-0.938-0.5-1.252c-0.334-0.313-0.844-0.471-1.528-0.471c-0.498,0-0.989,0.056-1.474,0.167
		c-0.483,0.11-0.981,0.27-1.498,0.475v-1.38c0.193-0.07,0.408-0.139,0.646-0.207c0.237-0.065,0.487-0.127,0.751-0.18
		s0.539-0.095,0.826-0.127s0.578-0.049,0.871-0.049c0.532,0,1.014,0.059,1.44,0.176s0.789,0.296,1.085,0.536
		c0.296,0.239,0.522,0.542,0.682,0.904c0.158,0.363,0.237,0.791,0.237,1.283v6.082L785.832,393.198L785.832,393.198z
		 M785.664,389.182h-1.94c-0.381,0-0.709,0.038-0.984,0.114c-0.274,0.075-0.502,0.185-0.678,0.324
		c-0.176,0.141-0.306,0.311-0.391,0.506c-0.085,0.196-0.127,0.418-0.127,0.663c0,0.171,0.024,0.334,0.077,0.488
		c0.054,0.155,0.14,0.293,0.257,0.412c0.116,0.121,0.27,0.216,0.456,0.286c0.188,0.07,0.416,0.104,0.687,0.104
		c0.352,0,0.754-0.105,1.208-0.32c0.454-0.213,0.933-0.552,1.437-1.016L785.664,389.182L785.664,389.182z"/>
	<path d="M788.705,384.373h1.513l2.682,4.255v-4.255h1.406v4.255l2.68-4.255h1.513l-2.839,4.255l2.908,4.569h-1.67l-2.592-4.481
		v4.481h-1.406v-4.481l-2.594,4.481h-1.67l2.918-4.569L788.705,384.373z"/>
	<path d="M801.607,384.373v6.215l3.85-6.215h1.459v8.824h-1.528v-6.214l-3.851,6.214h-1.459v-8.824H801.607z"/>
</g>
<rect x="840.172" y="380.779" fill="none" width="143.333" height="46.334"/>
<g enable-background="new    ">
	<path d="M845.05,390.43c0.198,0,0.388,0.038,0.565,0.114c0.178,0.075,0.334,0.182,0.466,0.315c0.133,0.134,0.235,0.292,0.313,0.471
		c0.077,0.18,0.115,0.37,0.115,0.575c0,0.199-0.039,0.388-0.115,0.563s-0.18,0.329-0.313,0.462
		c-0.132,0.131-0.286,0.235-0.466,0.312c-0.179,0.077-0.367,0.114-0.565,0.114c-0.205,0-0.396-0.038-0.572-0.114
		c-0.176-0.075-0.329-0.181-0.461-0.312c-0.132-0.133-0.236-0.286-0.313-0.462c-0.076-0.176-0.112-0.363-0.112-0.563
		c0-0.205,0.037-0.396,0.112-0.575c0.076-0.179,0.182-0.336,0.313-0.471s0.285-0.24,0.461-0.315
		C844.653,390.468,844.844,390.43,845.05,390.43z"/>
	<path d="M854.945,390.43c0.199,0,0.389,0.038,0.566,0.114c0.178,0.075,0.334,0.182,0.466,0.315s0.235,0.292,0.312,0.471
		c0.077,0.18,0.115,0.37,0.115,0.575c0,0.199-0.039,0.388-0.115,0.563c-0.075,0.176-0.18,0.329-0.312,0.462
		c-0.132,0.131-0.287,0.235-0.466,0.312c-0.18,0.077-0.367,0.114-0.566,0.114c-0.205,0-0.396-0.038-0.572-0.114
		c-0.176-0.075-0.328-0.181-0.461-0.312c-0.132-0.133-0.235-0.286-0.313-0.462s-0.113-0.363-0.113-0.563
		c0-0.205,0.037-0.396,0.113-0.575c0.076-0.179,0.181-0.336,0.313-0.471c0.133-0.135,0.285-0.24,0.461-0.315
		C854.55,390.468,854.74,390.43,854.945,390.43z"/>
	<path d="M864.843,390.43c0.198,0,0.388,0.038,0.565,0.114c0.178,0.075,0.334,0.182,0.466,0.315
		c0.133,0.134,0.235,0.292,0.313,0.471c0.077,0.18,0.115,0.37,0.115,0.575c0,0.199-0.039,0.388-0.115,0.563s-0.18,0.329-0.313,0.462
		c-0.132,0.131-0.286,0.235-0.466,0.312c-0.179,0.077-0.367,0.114-0.565,0.114c-0.205,0-0.396-0.038-0.572-0.114
		c-0.176-0.075-0.329-0.181-0.461-0.312c-0.132-0.133-0.236-0.286-0.313-0.462c-0.076-0.176-0.112-0.363-0.112-0.563
		c0-0.205,0.037-0.396,0.112-0.575c0.076-0.179,0.182-0.336,0.313-0.471s0.285-0.24,0.461-0.315
		C864.446,390.468,864.636,390.43,864.843,390.43z"/>
	<path d="M874.738,390.43c0.199,0,0.389,0.038,0.566,0.114c0.178,0.075,0.334,0.182,0.466,0.315s0.235,0.292,0.312,0.471
		c0.077,0.18,0.115,0.37,0.115,0.575c0,0.199-0.039,0.388-0.115,0.563c-0.075,0.176-0.18,0.329-0.312,0.462
		c-0.132,0.131-0.287,0.235-0.466,0.312c-0.18,0.077-0.367,0.114-0.566,0.114c-0.205,0-0.396-0.038-0.572-0.114
		c-0.176-0.075-0.328-0.181-0.461-0.312c-0.132-0.133-0.235-0.286-0.313-0.462s-0.113-0.363-0.113-0.563
		c0-0.205,0.037-0.396,0.113-0.575c0.076-0.179,0.181-0.336,0.313-0.471c0.133-0.135,0.285-0.24,0.461-0.315
		C874.343,390.468,874.533,390.43,874.738,390.43z"/>
	<path d="M884.635,390.43c0.198,0,0.388,0.038,0.565,0.114c0.179,0.075,0.334,0.182,0.467,0.315
		c0.132,0.134,0.234,0.292,0.312,0.471c0.077,0.18,0.115,0.37,0.115,0.575c0,0.199-0.039,0.388-0.115,0.563s-0.18,0.329-0.312,0.462
		c-0.133,0.131-0.287,0.235-0.467,0.312c-0.179,0.077-0.367,0.114-0.565,0.114c-0.205,0-0.396-0.038-0.572-0.114
		c-0.176-0.075-0.329-0.181-0.461-0.312c-0.132-0.133-0.236-0.286-0.313-0.462c-0.076-0.176-0.112-0.363-0.112-0.563
		c0-0.205,0.037-0.396,0.112-0.575c0.076-0.179,0.182-0.336,0.313-0.471s0.285-0.24,0.461-0.315
		C884.239,390.468,884.429,390.43,884.635,390.43z"/>
</g>
<line fill="none" stroke="#808184" stroke-width="2" stroke-miterlimit="10" x1="622.5" y1="5.25" x2="449.334" y2="406.334"/>
<line fill="none" stroke="#808184" stroke-width="2" stroke-miterlimit="10" x1="622.75" y1="6" x2="600" y2="406.331"/>
<line fill="none" stroke="#808184" stroke-width="2" stroke-miterlimit="10" x1="622.5" y1="4.75" x2="734" y2="406.664"/>
<line fill="none" stroke="#808184" stroke-width="2" stroke-miterlimit="10" x1="623" y1="5" x2="824.584" y2="406.997"/>
<line fill="none" stroke="#808184" stroke-width="2" stroke-miterlimit="10" x1="398.333" y1="474" x2="1013" y2="474"/>
<line fill="none" stroke="#808184" stroke-width="2" stroke-miterlimit="10" x1="1086" y1="474" x2="1248" y2="474"/>
<g>
	<circle fill="none" stroke="#808184" stroke-width="2" stroke-miterlimit="10" cx="1050.064" cy="473.079" r="36.335"/>
	<path fill="none" stroke="#808184" stroke-width="2" stroke-miterlimit="10" d="M1076.662,498.752
		c-6.631-7.131-16.094-11.584-26.598-11.584c-10.029,0-19.107,4.063-25.684,10.631c-0.189,0.188-0.375,0.381-0.563,0.574"/>
	<path fill="none" stroke="#808184" stroke-width="2" stroke-miterlimit="10" d="M1023.279,448.691
		c6.643,7.242,16.182,11.783,26.785,11.783c10.514,0,19.984-4.465,26.617-11.604"/>
</g>
</svg>
