<?xml version="1.0" encoding="utf-8"?>
<!-- Generator: Adobe Illustrator 15.1.0, SVG Export Plug-In . SVG Version: 6.00 Build 0)  -->
<!DOCTYPE svg PUBLIC "-//W3C//DTD SVG 1.1//EN" "http://www.w3.org/Graphics/SVG/1.1/DTD/svg11.dtd">
<svg version="1.1" id="Layer_1" xmlns="http://www.w3.org/2000/svg" xmlns:xlink="http://www.w3.org/1999/xlink" x="0px" y="0px"
	 width="837.334px" height="269.667px" viewBox="0 0 837.334 269.667" enable-background="new 0 0 837.334 269.667"
	 xml:space="preserve">
<rect x="-147.206" y="-75.047" fill-rule="evenodd" clip-rule="evenodd" fill="none" width="1210.825" height="22.188"/>
<text transform="matrix(1.0391 0 0 1 -147.2061 -63.3174)" display="none" fill="#231F20" font-family="'Consolas'" font-size="17">R – Responsible – сотрудник, ответственный за фактическое исполнение KPI.</text>
<rect x="-189.206" y="-82.047" fill-rule="evenodd" clip-rule="evenodd" fill="none" width="1210.825" height="22.188"/>
<text transform="matrix(1.0391 0 0 1 -189.2061 -70.3174)" display="none" fill="#231F20" font-family="'Consolas'" font-size="17">R – Responsible – сотрудник, ответственный за фактическое исполнение KPI.</text>
<g>
	<defs>
		<rect id="SVGID_1_" x="-33" y="-97" width="1024" height="368"/>
	</defs>
	<clipPath id="SVGID_2_">
		<use xlink:href="#SVGID_1_"  overflow="visible"/>
	</clipPath>
	<g clip-path="url(#SVGID_2_)">
		<g>
			<g>
				<g>
					<path fill="#FDC78B" d="M342.25,180.578l-0.902-15.778l0,0c-6.842-0.102-12.323,0.945-12.245,2.339l0.764,13.257
						L342.25,180.578z"/>
				</g>
				<g>
					<g>
						<line fill="#FDC78B" x1="340.188" y1="140.671" x2="339.802" y2="153.672"/>
					</g>
					<g>
						<g>
							<path fill="#FDC78B" d="M338.257,140.671c-0.129,4.333-0.257,8.666-0.386,13c-0.066,2.231,3.795,2.224,3.861,0
								c0.129-4.335,0.258-8.667,0.386-13C342.184,138.439,338.324,138.446,338.257,140.671L338.257,140.671z"/>
						</g>
					</g>
				</g>
				<g>
					<g>
						<line fill="#FDC78B" x1="334.966" y1="149.372" x2="335.42" y2="162.37"/>
					</g>
					<g>
						<g>
							<path fill="#FDC78B" d="M333.236,149.372c0.154,4.333,0.304,8.665,0.454,12.998c0.079,2.224,3.539,2.231,3.46,0
								c-0.152-4.333-0.302-8.665-0.456-12.998C336.618,147.149,333.16,147.141,333.236,149.372L333.236,149.372z"/>
						</g>
					</g>
				</g>
				<g>
					<g>
						<line fill="#FDC78B" x1="327.68" y1="153.064" x2="328.627" y2="163.683"/>
					</g>
					<g>
						<g>
							<path fill="#FDC78B" d="M325.95,153.064c0.315,3.54,0.632,7.08,0.947,10.618c0.197,2.204,3.657,2.224,3.458,0
								c-0.314-3.539-0.631-7.078-0.948-10.618C329.212,150.861,325.751,150.842,325.95,153.064L325.95,153.064z"/>
						</g>
					</g>
				</g>
				<g>
					<g>
						<line fill="#FDC78B" x1="331.309" y1="151.125" x2="331.525" y2="164.135"/>
					</g>
					<g>
						<g>
							<path fill="#FDC78B" d="M329.58,151.125c0.072,4.336,0.145,8.673,0.215,13.01c0.037,2.227,3.495,2.231,3.458,0
								c-0.071-4.337-0.144-8.674-0.217-13.01C333.001,148.898,329.542,148.895,329.58,151.125L329.58,151.125z"/>
						</g>
					</g>
				</g>
				<g>
					<path fill="#FDC78B" d="M325.495,160.166c0.681,6.734,2.02,11.043,6.828,11.283c4.812,0.244,11.027-4.551,10.588-10.411
						c-0.459-6.205-2.013-11.046-6.826-11.289C331.28,149.508,324.904,154.344,325.495,160.166z"/>
					<path fill="#FDC78B" d="M332.678,171.902L332.678,171.902c-0.126,0-0.252-0.003-0.378-0.01
						c-5.076-0.253-6.537-4.657-7.247-11.682c-0.246-2.42,0.653-4.895,2.527-6.969c2.262-2.503,5.646-4.086,8.526-3.936
						c5.74,0.29,6.884,6.815,7.247,11.699c0.188,2.498-0.776,5.024-2.714,7.111C338.472,170.451,335.422,171.902,332.678,171.902z
						 M335.739,150.183c-2.551,0-5.496,1.434-7.501,3.653c-1.705,1.885-2.521,4.117-2.302,6.285
						c0.68,6.725,1.948,10.662,6.411,10.885c2.545,0.131,5.578-1.27,7.642-3.495c1.768-1.904,2.647-4.192,2.479-6.441
						c-0.541-7.328-2.516-10.683-6.405-10.878C335.954,150.186,335.846,150.183,335.739,150.183z"/>
				</g>
				<g>
					
						<ellipse transform="matrix(0.9988 0.0499 -0.0499 0.9988 8.3744 -16.8339)" fill="#FDC78B" cx="341.596" cy="159.435" rx="3.002" ry="4.908"/>
					<path fill="#FDC78B" d="M341.444,164.916l-0.122-0.002c-2.005-0.101-3.455-2.585-3.3-5.657c0.15-2.974,1.788-5.302,3.726-5.302
						l0.122,0.002c2.002,0.1,3.454,2.585,3.3,5.657C345.019,162.586,343.384,164.916,341.444,164.916z M341.813,156
						c-1.347,0-2.524,1.48-2.639,3.76c-0.117,2.344,0.893,4.158,2.206,4.225l0.064-0.11c1.279,0,2.458-1.537,2.574-3.817
						c0.117-2.345-0.894-4.057-2.203-4.057C341.813,156,341.813,156,341.813,156z"/>
				</g>
			</g>
			<path fill-rule="evenodd" clip-rule="evenodd" fill="#F7A485" d="M422.031,197.625c3.519-0.335,6.793-0.502,9.821-0.502
				l11.421,0.629c-0.739,2.304-2.067,4.189-3.991,5.657c-1.964,1.466-4.154,2.201-6.569,2.201c-2.498,0-4.729-0.754-6.692-2.264
				C424.096,201.878,422.767,199.973,422.031,197.625z"/>
			<path fill-rule="evenodd" clip-rule="evenodd" fill="#3F5272" d="M404.228,265.644h55.192v27.347
				c0,4.735-1.637,8.778-4.912,12.133c-3.272,3.352-7.224,5.027-11.849,5.027h-21.672c-4.625,0-8.576-1.676-11.849-5.027
				c-3.274-3.355-4.911-7.397-4.911-12.133V265.644z"/>
			<path fill-rule="evenodd" clip-rule="evenodd" fill="#445A7D" d="M418.04,309.9c-3.969-0.713-7.243-2.64-9.823-5.784
				c-2.661-3.227-3.989-6.935-3.989-11.125v-27.347h27.625v27.347c0,4.19-1.309,7.899-3.928,11.125
				C425.306,307.26,422.011,309.187,418.04,309.9z"/>
			<g>
				<g>
					<path fill-rule="evenodd" clip-rule="evenodd" fill="#F7A485" d="M431.853,170.028c1.718,0,3.193,0.63,4.42,1.885
						c1.188,1.217,1.783,2.705,1.783,4.465v21.375l-2.518,6.411l-9.946-6.411v-21.375c0-1.76,0.614-3.248,1.842-4.465
						C428.62,170.658,430.094,170.028,431.853,170.028z"/>
				</g>
			</g>
			<g>
				<path fill-rule="evenodd" clip-rule="evenodd" fill="#10122D" d="M450.764,160.977c-0.49,0-0.9-0.17-1.229-0.505
					c-0.369-0.376-0.552-0.816-0.552-1.319c0-0.504,0.183-0.922,0.552-1.258c0.329-0.334,0.739-0.503,1.229-0.503
					c0.491,0,0.921,0.168,1.289,0.503c0.328,0.336,0.492,0.754,0.492,1.258c0,0.503-0.164,0.943-0.492,1.319
					C451.685,160.807,451.254,160.977,450.764,160.977z"/>
				<path fill-rule="evenodd" clip-rule="evenodd" fill="#10122D" d="M436.826,160.977c-0.489,0-0.9-0.17-1.227-0.505
					c-0.368-0.376-0.554-0.816-0.554-1.319c0-0.504,0.186-0.922,0.554-1.258c0.327-0.334,0.738-0.503,1.227-0.503
					c0.492,0,0.901,0.168,1.229,0.503c0.325,0.336,0.488,0.754,0.488,1.258c0,0.503-0.163,0.943-0.488,1.319
					C437.728,160.807,437.318,160.977,436.826,160.977z"/>
			</g>
			<path fill-rule="evenodd" clip-rule="evenodd" fill="#F4E6E6" d="M450.517,172.983c0,1.886-0.653,3.499-1.963,4.84
				c-1.31,1.342-2.907,2.012-4.79,2.012c-1.841,0-3.415-0.669-4.724-2.012c-1.312-1.341-1.967-2.954-1.967-4.84H450.517z"/>
			<path fill-rule="evenodd" clip-rule="evenodd" fill="none" stroke="#1B181D" stroke-width="1.35" d="M412.76,270.044v9.241
				c0,2.431-0.839,4.484-2.518,6.161c-1.636,1.717-3.642,2.576-6.015,2.576"/>
			
				<line fill-rule="evenodd" clip-rule="evenodd" fill="none" stroke="#1B181D" stroke-width="1.35" x1="404.228" y1="270.044" x2="459.42" y2="270.044"/>
			
				<line fill-rule="evenodd" clip-rule="evenodd" fill="none" stroke="#445A7D" stroke-width="1.35" x1="437.748" y1="313.797" x2="446.712" y2="313.986"/>
			<path fill-rule="evenodd" clip-rule="evenodd" fill="#F7A485" d="M463.964,284.629c-0.45,0.628-1.208,1.171-2.273,1.634
				c-1.104,0.461-2.044,0.629-2.822,0.503l-0.615-0.126c-0.778-0.125-1.719-0.167-2.823-0.125c-1.105,0.042-2.048,0.148-2.823,0.314
				l-1.412,0.314c-0.738,0.21-1.454,0.061-2.151-0.44c-0.696-0.503-1.146-1.194-1.35-2.074l-0.307-1.006
				c-0.207-0.88-0.164-1.844,0.123-2.892c0.245-1.091,0.636-1.927,1.167-2.514l2.762-3.019c0.532-0.586,1.29-1.047,2.271-1.381
				c0.943-0.337,1.802-0.441,2.58-0.316l3.868,0.504c2.416,0.46,4.012,1.885,4.79,4.274
				C465.682,280.625,465.353,282.743,463.964,284.629z"/>
			<path fill-rule="evenodd" clip-rule="evenodd" fill="#6D3D3E" d="M443.637,134.51l10.435-6.224
				c0.981,2.264,1.105,4.568,0.368,6.915c-0.735,2.347-2.148,4.128-4.234,5.344L443.637,134.51z"/>
			<path fill-rule="evenodd" clip-rule="evenodd" fill="#FDD29A" d="M427.084,200.49c-1.34-1.384-2.013-3.049-2.013-4.993v-9.942
				h13.764v9.942c0,1.954-0.67,3.618-2.012,4.993c-1.342,1.374-2.967,2.061-4.877,2.061
				C430.046,202.551,428.428,201.863,427.084,200.49z"/>
			<path fill-rule="evenodd" clip-rule="evenodd" fill="#FDD29A" d="M413.156,150.62c2.026,0,3.758,0.78,5.191,2.342
				c1.432,1.562,2.149,3.449,2.149,5.665c0,2.208-0.717,4.096-2.149,5.667c-1.433,1.562-3.165,2.342-5.191,2.342
				c-2.038,0-3.771-0.78-5.204-2.342c-1.435-1.571-2.152-3.459-2.152-5.667c0-2.216,0.717-4.103,2.152-5.665
				C409.385,151.4,411.119,150.62,413.156,150.62z"/>
			<path fill-rule="evenodd" clip-rule="evenodd" fill="#FDD29A" d="M444.902,126.64c3.436,2.804,5.153,6.591,5.153,11.359v34.318
				c0,4.935-1.717,9.162-5.153,12.677c-3.431,3.506-7.558,5.26-12.379,5.26h-1.302c-4.812,0-8.935-1.753-12.368-5.26
				c-3.433-3.515-5.15-7.742-5.15-12.677v-34.318c0-4.768,1.717-8.555,5.15-11.359c3.223-2.637,7.347-3.955,12.368-3.955h1.302
				C437.543,122.685,441.672,124.002,444.902,126.64z"/>
			<path fill-rule="evenodd" clip-rule="evenodd" fill="#FDD29A" d="M455.285,152.078c1.435,1.571,2.151,3.459,2.151,5.666
				c0,2.216-0.716,4.11-2.151,5.68c-1.432,1.562-3.168,2.342-5.203,2.342c-2.027,0-3.759-0.78-5.191-2.342
				c-1.434-1.57-2.149-3.464-2.149-5.68c0-2.207,0.715-4.095,2.149-5.666c1.433-1.56,3.164-2.341,5.191-2.341
				C452.116,149.736,453.853,150.518,455.285,152.078z"/>
			<path fill-rule="evenodd" clip-rule="evenodd" fill="#834B4B" d="M414.729,164.854c0,2.787,0.914,5.176,2.741,7.167
				c1.816,1.982,4.003,2.973,6.561,2.973h15.174c2.557,0,4.742-0.991,6.562-2.973c1.825-1.991,2.738-4.38,2.738-7.167v-15.664
				c1.097,1.215,1.708,5.507,1.836,12.874c0.055,3.684,0.005,7.247-0.152,10.687c-0.063,7.965-1.455,13.426-4.177,16.379
				c-1.277,1.383-2.93,2.365-4.956,2.945c-1.764,0.514-4.01,0.772-6.74,0.772h-5.397c-2.757,0-5.017-0.235-6.779-0.702
				c-2.064-0.553-3.738-1.483-5.027-2.79c-2.783-2.834-4.139-8.079-4.067-15.736c-0.156-3.582-0.2-7.289-0.136-11.123
				c0.119-7.655,0.726-12.093,1.819-13.308V164.854z"/>
			<path fill-rule="evenodd" clip-rule="evenodd" fill="#834B4B" d="M443.26,126.358c2.055-0.29,3.456-0.406,4.205-0.351
				c1.223,0.093,2.11,0.581,2.656,1.459c0.622,1.001,0.932,2.655,0.932,4.964l-0.027,4.236c-0.045,3.403-0.132,6.582-0.261,9.535
				c-0.41,9.444-1.163,14.825-2.26,16.142v-17.052c0-3.039-0.913-5.638-2.738-7.797c-1.819-2.16-4.005-3.24-6.562-3.24h-15.174
				c-2.558,0-4.744,1.08-6.561,3.24c-1.827,2.159-2.741,4.758-2.741,7.797v17.052c-1.094-1.316-1.847-6.697-2.259-16.142
				c-0.128-2.953-0.214-6.132-0.259-9.535l-0.027-4.236c0-4.6,1.167-7.872,3.505-9.817c2.045-1.691,5.255-2.538,9.628-2.538
				l12.422,6.774C439.146,126.85,440.987,126.686,443.26,126.358z"/>
			<path fill-rule="evenodd" clip-rule="evenodd" fill="#834B4B" d="M422.442,167.926c1.808-0.832,4.867-1.248,9.176-1.248
				s7.368,0.416,9.175,1.248c2.532,1.158,3.796,3.395,3.796,6.704c0,3.655-1.264,6.774-3.796,9.354
				c-2.536,2.58-5.594,3.871-9.175,3.871c-3.58,0-6.637-1.291-9.176-3.871c-2.529-2.58-3.793-5.699-3.793-9.354
				C418.649,171.32,419.913,169.084,422.442,167.926z"/>
			<path fill-rule="evenodd" clip-rule="evenodd" fill="#FDD29A" d="M435.659,174.924c1.214,0.279,2.366,0.42,3.453,0.42
				c0,0.935-0.787,1.735-2.357,2.398c-1.57,0.665-3.47,0.996-5.697,0.996c-2.228,0-4.126-0.332-5.699-0.996
				c-1.569-0.664-2.354-1.463-2.354-2.398l0.987-0.055c0.801-0.066,1.57-0.188,2.3-0.366c2.364-0.561,3.954-1.548,4.766-2.959
				C431.704,173.376,433.24,174.363,435.659,174.924z"/>
			<path fill-rule="evenodd" clip-rule="evenodd" fill="#6D3D3E" d="M453.381,123.441l-2.466,18.638
				c-0.182-0.458-0.492-0.985-0.931-1.583c-0.875-1.197-1.943-2.152-3.205-2.862c-4.054-2.271-9.295-1.692-15.723,1.739
				c-0.941-0.665-2.119-1.29-3.532-1.878c-2.852-1.169-5.485-1.538-7.905-1.108c-2.411,0.43-4.346,1.594-5.805,3.492
				c-0.457,0.598-0.84,1.234-1.151,1.907c-0.145,0.336-0.253,0.612-0.314,0.827l-0.124-11.724c-0.064-1.056,0.101-2.299,0.494-3.73
				c0.795-2.861,2.346-5.222,4.656-7.082c2.035-1.637,3.931-2.903,5.683-3.8c0.877-0.458,1.549-0.75,2.014-0.87l0.576,1.009
				c0.53,0.711,1.172,1.155,1.931,1.332c0.894-2.093,2.803-3.528,5.725-4.305c1.461-0.383,2.834-0.556,4.122-0.519l-1.041,2.104
				c-0.646,1.645-0.872,3.063-0.669,4.25c1.157-1.655,3.304-2.43,6.435-2.329c1.562,0.057,3.01,0.277,4.343,0.66l-0.671,2.426
				c-0.529,1.992-1,3.936-1.41,5.835c2.135-2.038,4.271-3.053,6.408-3.045C451.89,122.823,452.743,123.03,453.381,123.441z"/>
			<path fill-rule="evenodd" clip-rule="evenodd" d="M424.375,151.967c-0.247,0.314-0.584,0.471-1.017,0.471
				c-0.427,0-0.795-0.157-1.103-0.471c-0.245-0.251-0.369-0.595-0.369-1.037c0-0.438,0.125-0.816,0.369-1.13
				c0.307-0.252,0.676-0.377,1.103-0.377c0.433,0,0.77,0.125,1.017,0.377c0.305,0.314,0.46,0.692,0.46,1.13
				C424.835,151.372,424.68,151.716,424.375,151.967z"/>
			<path fill-rule="evenodd" clip-rule="evenodd" d="M441.271,151.967c-0.246,0.314-0.584,0.471-1.012,0.471
				c-0.431,0-0.799-0.157-1.107-0.471c-0.243-0.251-0.366-0.595-0.366-1.037c0-0.438,0.123-0.816,0.366-1.13
				c0.308-0.252,0.676-0.377,1.107-0.377c0.428,0,0.766,0.125,1.012,0.377c0.308,0.314,0.46,0.692,0.46,1.13
				C441.73,151.372,441.579,151.716,441.271,151.967z"/>
			<path fill-rule="evenodd" clip-rule="evenodd" fill="#FDD29A" d="M477.622,292.793l-0.367,7.919
				c-0.082,2.389,0.287,4.151,1.106,5.282l0.367,0.566c1.146,1.548,1.945,3.268,2.395,5.154l0.368,1.445
				c0.206,0.754,0.694,1.34,1.473,1.76c0.737,0.419,1.536,0.524,2.396,0.316l0.983-0.253c0.857-0.208,1.696-0.67,2.516-1.382
				c0.777-0.713,1.31-1.468,1.596-2.264l1.352-3.896c0.245-0.798,0.287-1.699,0.122-2.704c-0.122-1.007-0.428-1.846-0.921-2.515
				l-1.839-2.515c-0.616-0.88-1.821-4.064-3.624-9.555L477.622,292.793z"/>
			<g>
				<path fill-rule="evenodd" clip-rule="evenodd" fill="#2F4678" d="M399.768,202.496c3.743-3.833,8.257-5.751,13.534-5.751h33.607
					c5.338,0,9.882,1.918,13.626,5.751c3.744,3.833,5.616,8.453,5.616,13.858l-2.209,97.567h-68.318l-1.473-97.567
					C394.152,210.949,396.021,206.329,399.768,202.496z"/>
				<polygon fill-rule="evenodd" clip-rule="evenodd" fill="#445A7D" points="417.011,218.253 411.879,211.164 419.615,197.267 
					429.174,286.199 409.886,224.229 				"/>
				<polygon fill-rule="evenodd" clip-rule="evenodd" fill="#445A7D" points="443.974,218.253 451.096,224.229 429.174,286.199 
					441.368,197.267 449.105,211.164 				"/>
				<polygon fill-rule="evenodd" clip-rule="evenodd" fill="#EAF6FD" points="419.615,197.267 442.626,197.267 429.174,286.199 				
					"/>
				<polygon fill-rule="evenodd" clip-rule="evenodd" fill="#FFFFFF" points="423.276,192.861 431.289,205.266 423.431,213.673 
					415.892,200.216 				"/>
				<polygon fill-rule="evenodd" clip-rule="evenodd" fill="#FFFFFF" points="438.719,193.017 446.104,200.373 438.979,213.673 
					431.289,205.266 				"/>
				<polygon fill-rule="evenodd" clip-rule="evenodd" fill="#C96959" points="431.289,205.266 435.18,246.454 429.174,286.199 
					424.901,246.485 				"/>
				<polygon fill-rule="evenodd" clip-rule="evenodd" fill="#C96959" points="431.289,205.266 437.094,211.619 430.66,219.46 
					425.068,211.885 				"/>
				<g>
					<path fill-rule="evenodd" clip-rule="evenodd" fill="#2F4678" d="M459.665,201.009c-2.195-1.443-4.064-2.421-5.605-2.933
						l-4.719,14.477c0.992,0.397,2.201,1.129,3.631,2.196c2.849,2.122,1.755,4.919,4.208,8.392
						c7.792,11.029,13.109,26.652,14.08,46.864c0.397,8.387-0.391,16.49-0.491,24.312h18.664c0.103-8.208-0.057-16.557-0.474-25.048
						c-1.195-24.929-7.205-44.183-18.031-57.767C467.485,207.172,463.731,203.676,459.665,201.009z"/>
				</g>
			</g>
			<path fill-rule="evenodd" clip-rule="evenodd" fill="#2F4678" d="M328.612,176.572l14.117-3.434c0,0,2.727,35.628,13.831,40.391
				c10.172,4.365,48.21-14.141,48.21-14.141l1.292,25.546c0,0-45.252,14.308-57.745,9.041
				C333.767,227.841,328.612,176.572,328.612,176.572z"/>
			<rect x="395.061" y="287.653" fill-rule="evenodd" clip-rule="evenodd" fill="#263244" width="69.531" height="26.236"/>
			<ellipse fill-rule="evenodd" clip-rule="evenodd" fill="#263244" cx="428.679" cy="307.625" rx="36.57" ry="19.384"/>
		</g>
		<g>
			<ellipse fill="#26383A" cx="606.967" cy="296.662" rx="28.288" ry="19.68"/>
			<path fill="#6D6D72" d="M644.211,231.347v0.658h-12.277v57.434h-51.673v3.942h-12.278v-62.034h0.029
				c0.412-10.47,5.045-19.859,12.249-26.506c1.908-1.759,3.995-3.318,6.228-4.658c0.632-0.382,1.272-0.744,1.927-1.083
				c0.005-0.009,0.012-0.009,0.012-0.017c0.45-0.227,0.896-0.454,1.354-0.667c0.247-0.121,0.497-0.234,0.75-0.347
				c0.503-0.23,1.005-0.444,1.518-0.648c4.346-1.716,9.088-2.674,14.048-2.674c5.466,0,10.663,1.155,15.36,3.228
				c0.466,0.197,0.922,0.414,1.375,0.639c0.212,0.104,0.424,0.214,0.636,0.319c0.14,0.068,0.271,0.137,0.405,0.211
				c0.258,0.137,0.519,0.276,0.771,0.419c0.055,0.03,0.103,0.056,0.154,0.088c0.313,0.173,0.614,0.348,0.912,0.531
				c2.23,1.347,4.317,2.905,6.223,4.665l0,0c7.208,6.645,11.839,16.03,12.25,26.5H644.211z"/>
			<path fill="#F8A66B" d="M617.705,186.683v11.968c-0.357,2.242-5.453,4.018-11.677,4.018c-5.089,0-9.426-1.188-11.033-2.844
				c-0.305-0.317-0.503-0.734-0.508-1.178v-11.964H617.705z"/>
			<path fill="#F7995A" d="M594.487,186.683v4.152c3.349,2.465,7.38,3.8,11.609,3.8c4.235,0,8.264-1.335,11.608-3.8h0.004v-4.152
				H594.487z"/>
			<path fill="#804B26" d="M591.507,128.932v26.702h-6.96v-19.738c0-1.924,0.777-3.665,2.038-4.921
				c0.052-0.055,0.108-0.107,0.154-0.16c0.112-0.091,0.222-0.192,0.337-0.286c0.035-0.035,0.076-0.069,0.117-0.095
				C588.381,129.495,589.876,128.932,591.507,128.932z"/>
			<path fill="#804B26" d="M627.683,135.896v19.738h-6.958v-26.702c1.627,0,3.126,0.563,4.313,1.502
				c0.14,0.111,0.282,0.234,0.416,0.355c0.062,0.054,0.131,0.118,0.195,0.185C626.903,132.23,627.683,133.971,627.683,135.896z"/>
			<path fill="#FCC88A" d="M624.398,130.434v43.125c0,10.111-8.188,18.304-18.302,18.304c-10.106,0-18.298-8.193-18.298-18.304
				v-43.125H624.398z"/>
			<path fill="#804B26" d="M598.626,152.965c-0.611-0.207-1.258-0.319-1.936-0.319c-0.677,0-1.332,0.113-1.943,0.319
				c-1.28,0.436-2.362,1.29-3.094,2.401c-0.27,0.413-0.146,0.967,0.273,1.22l0,0c0.396,0.229,0.902,0.117,1.15-0.265
				c0.771-1.176,2.103-1.964,3.613-1.964c1.509,0,2.839,0.788,3.606,1.964c0.253,0.382,0.755,0.494,1.153,0.265l0,0
				c0.419-0.253,0.547-0.808,0.271-1.22C600.993,154.255,599.905,153.401,598.626,152.965z"/>
			<path fill="#40261B" d="M598.963,158.667c0,1.254-1.015,2.279-2.275,2.279c-1.255,0-2.272-1.025-2.272-2.279
				c0-1.258,1.018-2.276,2.272-2.276C597.948,156.391,598.963,157.41,598.963,158.667z"/>
			<path fill="#804B26" d="M617.213,152.965c-0.606-0.207-1.257-0.319-1.94-0.319c-0.671,0-1.326,0.113-1.935,0.319
				c-1.283,0.436-2.367,1.29-3.096,2.401c-0.271,0.413-0.154,0.967,0.273,1.22l0,0c0.391,0.229,0.901,0.117,1.149-0.265
				c0.771-1.176,2.101-1.964,3.607-1.964c1.519,0,2.853,0.788,3.616,1.964c0.249,0.382,0.754,0.494,1.147,0.265l0,0
				c0.424-0.253,0.548-0.808,0.277-1.22C619.581,154.255,618.496,153.401,617.213,152.965z"/>
			<path fill="#40261B" d="M617.555,158.667c0,1.254-1.016,2.279-2.282,2.279c-1.255,0-2.274-1.025-2.274-2.279
				c0-1.258,1.02-2.276,2.274-2.276C616.539,156.391,617.555,157.41,617.555,158.667z"/>
			<path fill="#804B26" d="M625.038,130.434h-1.06v14.983c0,3.355,0,6.887,0,10.217c0,6.489,0,12.194,0,14.266
				c0,2.027-1.637,3.66-3.658,3.66h-2.973c-2.021,0-3.654-1.643-3.654-3.66c0-1.009-0.411-1.925-1.077-2.587
				c-0.441-0.444-0.999-0.774-1.625-0.941c-0.075,0.163-0.183,0.309-0.317,0.43c-0.261,0.227-0.606,0.365-0.991,0.365h-1.177
				c-0.199,1.037-1.198,1.818-2.409,1.824c-1.207-0.006-2.207-0.787-2.407-1.824h-1.18c-0.384,0-0.736-0.138-0.993-0.365
				c-0.134-0.121-0.242-0.268-0.313-0.43c-1.559,0.423-2.695,1.838-2.695,3.528c0,1.012-0.405,1.926-1.074,2.591
				c-0.662,0.659-1.576,1.069-2.585,1.069h-2.975c-2.021,0-3.658-1.633-3.658-3.66c0-2.072,0-7.777,0-14.266
				c-0.003-6.056-0.003-12.791-0.003-17.899v-7.3h-1.137c0,0.026,0,0.06,0,0.095c-0.115,0.094-0.225,0.194-0.337,0.286v42.461
				c0,5.169,2.013,10.033,5.674,13.688c3.655,3.655,8.513,5.67,13.684,5.67c5.174,0,10.029-2.015,13.687-5.67
				c3.66-3.655,5.671-8.519,5.671-13.688V130.79C625.32,130.668,625.178,130.545,625.038,130.434z"/>
			<path fill="#FCC88A" d="M625.452,155.049L625.452,155.049v12.168l0,0c2.445,0,4.429-1.983,4.429-4.425v-3.315
				C629.881,157.03,627.897,155.049,625.452,155.049z"/>
			<path fill="#F69965" d="M625.452,164.054L625.452,164.054v-5.844l0,0c1.212,0,2.192,0.984,2.192,2.197v1.453
				C627.645,163.07,626.664,164.054,625.452,164.054z"/>
			<path fill="#FCC88A" d="M586.739,155.049L586.739,155.049v12.168l0,0c-2.443,0-4.426-1.983-4.426-4.425v-3.315
				C582.313,157.03,584.296,155.049,586.739,155.049z"/>
			<path fill="#F69965" d="M586.739,164.054L586.739,164.054v-5.844l0,0c-1.209,0-2.192,0.984-2.192,2.197v1.453
				C584.547,163.07,585.53,164.054,586.739,164.054z"/>
			<path fill="#FCC88A" d="M612.664,177.137l-4.42,1.781l-0.832-1.56c-0.264-0.502-0.75-0.857-1.315-0.987
				c-0.562,0.129-1.047,0.484-1.314,0.987l-0.827,1.56l-4.433-1.781l2.359-5.259h8.429L612.664,177.137z"/>
			<path fill="#FBF2E7" d="M610.311,171.878l-0.926,1.125c-0.583,0.715-1.479,1.132-2.439,1.132h-1.704
				c-0.951,0-1.848-0.417-2.431-1.132l-0.929-1.125H610.311z"/>
			<path fill="#804B26" d="M591.901,132.147c0,5.703-1.643,10.712-4.103,13.534v-15.248h4.048
				C591.883,130.998,591.901,131.565,591.901,132.147z"/>
			<path fill="#804B26" d="M620.103,132.147c0,5.703,1.64,10.712,4.103,13.534v-15.248h-4.056
				C620.122,130.998,620.103,131.565,620.103,132.147z"/>
			<path fill="#804B26" d="M626.741,121.01h-30.469c-3.885,0-7.03,3.146-7.03,7.028v5.394h33.821c3.52,0,6.379-2.856,6.379-6.377
				v-3.345C629.442,122.214,628.234,121.01,626.741,121.01z"/>
			<path fill="#804B26" d="M625.779,131.181c0,4.139-8.126,7.497-18.145,7.497c-10.026,0-18.15-3.358-18.15-7.497
				c0-4.141,8.124-7.495,18.15-7.495C617.653,123.686,625.779,127.04,625.779,131.181z"/>
			<path fill="#F8A66B" d="M580.261,293.381v21.1l0,0c-6.778,0-12.278-1.504-12.278-3.37v-17.73H580.261z"/>
			<g>
				<path fill="#6D6D72" d="M648.719,277.381c-1.543-17.437-3.086-34.873-4.63-52.308c-1.102-12.43-20.763-13.403-19.644-0.781
					c1.548,17.438,3.088,34.875,4.632,52.311C630.175,289.028,649.838,290,648.719,277.381L648.719,277.381z"/>
			</g>
			<polygon fill="#FFFFFF" points="606.745,223.265 606.745,223.265 593.933,198 618.239,198 			"/>
			<polygon points="606.665,198.624 606.665,198.624 601.216,206.582 606.83,211.031 612.45,206.582 			"/>
			<polygon points="611.005,214.061 606.745,223.426 601.867,213.808 606.83,207.048 			"/>
			<polygon fill="#AEAEAF" points="606.745,223.426 606.745,223.426 587.799,204.823 594.487,196.551 			"/>
			<polygon fill="#AEAEAF" points="606.745,223.426 606.745,223.426 625.966,204.823 619.175,196.551 			"/>
			<rect x="567" y="284" fill="#AEAEAF" width="14" height="12"/>
			<path fill="#F8A66B" d="M632.388,290.429v21.1l0,0c8.229,0,14.908-1.505,14.908-3.37v-17.73H632.388z"/>
			<rect x="631" y="282" fill="#AEAEAF" width="16" height="11"/>
			<rect x="579.662" y="287.807" fill="#26383A" width="52.643" height="30.994"/>
		</g>
		<g>
			<path fill="#3A2316" d="M754.732,176.349h12.695c4.167,0,7.557-3.382,7.557-7.556v-27.187h-20.252V176.349z"/>
			<path fill="#F69320" d="M737.384,307.762c-0.561-1.671-0.255-4.267,0.666-5.768l1.788-2.901c0.928-1.5,3.458-10.711,3.458-10.711
				l7.962,2.306c0,0,0.268,3.369,0.498,8.658c0.074,1.761-0.083,4.368-0.991,5.871l-0.368,0.588
				c-0.91,1.509-1.962,4.152-2.334,5.875L737.384,307.762z"/>
			<g>
				<path fill="#028BC0" d="M761.242,294.368c0,0,1.243-19.679,2.117-39.42c0.913-19.725,1.496-39.492,1.496-39.492
					c0.238-8.234-2.741-15.259-6.635-15.693c-3.898-0.427-7.241,5.739-7.474,13.758c0,0-0.57,19.326-1.463,38.564
					c-0.85,19.258-2.057,38.393-2.057,38.393L761.242,294.368z"/>
			</g>
			<path fill="#F69320" d="M749.428,309.869c-0.146,1.937-1.824,3.389-3.762,3.25l-5.502-0.402
				c-1.934-0.146-3.389-1.825-3.242-3.756c0.142-1.938,1.825-3.39,3.755-3.249l5.505,0.399
				C748.121,306.255,749.569,307.942,749.428,309.869z"/>
			<path fill="#3A2316" d="M784.574,164.712c6.515-1.783,15.845-8.579,19.281-14.712c3.142,4.925,1.446,11.843-1.128,16.654
				c-2.613,4.876-6.823,6.294-11.977,7.041c-2.863,0.411-5.688,0.363-8.533-0.082L784.574,164.712z"/>
			<path fill="#028BC0" d="M755.885,219.999l2.594-7.69l-1.232-12.227l27.325-12.355l27.319,12.431l-7.859,75.109l-42.138,4.364
				l0.077-32.62l-0.981-9.725C755.963,233.29,753.711,226.438,755.885,219.999z"/>
			<g>
				<path fill="#F7C28D" d="M786.537,161.991c3.755,0.121,6.692,3.257,6.567,7.007l-0.735,22.718
					c-0.112,3.749-3.256,6.686-7.003,6.562c-3.748-0.12-6.689-3.256-6.565-7.004l0.739-22.708
					C779.655,164.811,782.79,161.873,786.537,161.991z"/>
			</g>
			<path fill="#F7C28D" d="M769.441,183.19c17.512,0,31.579-12.948,31.54-25.454l-0.063-17.661
				c-0.011-3.906-1.018-7.579-2.778-10.785l-38.748,0.14c-1.547,3.215-2.387,6.895-2.372,10.804c0,0-0.223,16.669,0.078,22.214
				C757.729,174.202,761.374,179.279,769.441,183.19z"/>
			<g>
				<path fill="#F5F5F5" d="M779.108,166.957c-0.588,3.427-3.554,6.03-7.142,6.004c-3.581-0.023-6.521-2.652-7.068-6.076
					L779.108,166.957z"/>
			</g>
			<path fill="#3A2316" d="M771.357,129.718c-5.59,2.924-12.706,10.893-14.548,17.048c-4.601-3.896-5.468-9.375-4.128-14.184
				c1.356-4.879,6.541-7.857,11.106-9.582c2.539-0.958,5.143-1.496,7.839-1.693L771.357,129.718z"/>
			<path fill="#5B331E" d="M807.17,154.406c1.595-4.872,2.938-9.981,2.889-12.799c-0.195-11.311-8.513-20.505-19.464-22.646
				c-9.968-1.944-19.322,1.042-28.444,4.729c1.232,2.411,2.598,4.689,3.896,7.066c5.264,9.664,14.845,17.01,25.737,20.966
				l0.007,2.651c0.003,2.153,1.755,3.891,3.908,3.887h6.483L807.17,154.406z"/>
			<path fill="#1D183C" d="M777.925,151.793c0,1.126,0.912,2.04,2.041,2.04c1.131,0,2.044-0.913,2.044-2.04
				c0-1.134-0.913-2.051-2.044-2.051C778.837,149.743,777.925,150.66,777.925,151.793z"/>
			<path fill="#1D183C" d="M761.634,151.793c0,1.126,0.911,2.04,2.046,2.04c1.127,0,2.033-0.913,2.033-2.04
				c0-1.134-0.906-2.051-2.033-2.051C762.545,149.743,761.634,150.66,761.634,151.793z"/>
			<path fill="#F9AC8D" d="M801.944,149.932c-3.494,0-6.336,2.838-6.336,6.331v6.338h6.336c3.501,0,6.331-2.831,6.331-6.338
				C808.275,152.771,805.445,149.932,801.944,149.932z"/>
			<path d="M762.15,297.307c0.004,9.79,7.22,17.729,16.119,17.729h17.635c8.903,0,16.208,1.1,16.114-17.729
				c-0.09-18.832-6.089-28.3-6.089-28.3H762.15V297.307z"/>
			<path fill="#5B331E" d="M789.809,176.349h12.696c4.176,0,7.554-3.382,7.554-7.556v-27.187h-20.25V176.349z"/>
			<g>
				<path fill="#028BC0" d="M800.155,210.408c4.719,19.191,9.438,38.383,14.155,57.58c2.589,10.546,18.831,6.07,16.241-4.48
					c-4.716-19.197-9.435-38.386-14.154-57.581C813.806,195.382,797.563,199.854,800.155,210.408L800.155,210.408z"/>
			</g>
			<g>
				<path fill="#028BC0" d="M818.254,258.927c-14.079,7.06-28.152,14.121-42.23,21.175c-9.714,4.87-1.181,19.402,8.496,14.55
					c14.08-7.061,28.154-14.118,42.231-21.175C836.464,268.604,827.931,254.075,818.254,258.927L818.254,258.927z"/>
			</g>
			<g>
				<polygon fill="#FFFFFF" points="770.391,288.338 746.716,294.618 728.646,240.653 752.324,234.377 				"/>
				<polygon fill="#E7E7E9" points="793.563,282.194 769.894,288.473 751.825,234.504 775.497,228.229 				"/>
				<polygon fill="#BEBCC0" points="748.814,292.241 747.982,292.46 731.35,242.771 732.175,242.547 				"/>
				<polygon fill="#BEBCC0" points="773.321,231.639 773.654,232.631 731.842,243.717 731.511,242.729 				"/>
				<polygon fill="#BEBCC0" points="775.246,237.442 775.579,238.434 733.772,249.521 733.435,248.539 				"/>
				<polygon fill="#BEBCC0" points="777.247,243.423 777.576,244.411 735.771,255.5 735.436,254.509 				"/>
				<polygon fill="#BEBCC0" points="779.117,249.012 779.451,250.001 737.639,261.09 737.31,260.1 				"/>
				<polygon fill="#BEBCC0" points="781.097,254.924 781.423,255.911 739.623,267.002 739.29,266.014 				"/>
				<polygon fill="#BEBCC0" points="783.041,260.169 783.374,261.161 741.566,272.25 741.234,271.253 				"/>
				<polygon fill="#BEBCC0" points="785.164,266.122 785.496,267.115 743.693,278.197 743.357,277.213 				"/>
				<polygon fill="#BEBCC0" points="787.064,271.787 787.396,272.784 745.583,283.868 745.256,282.88 				"/>
				<polygon fill="#BEBCC0" points="788.723,277.125 789.051,278.119 747.242,289.206 746.908,288.212 				"/>
			</g>
			<path fill="#F7C28D" d="M786.105,289.489c0,5.824-3.946,10.545-8.818,10.545c-4.866,0-8.813-4.721-8.813-10.545
				c0-5.819,3.946-10.543,8.813-10.543C782.159,278.946,786.105,283.67,786.105,289.489z"/>
		</g>
		<g>
			<path fill="#EADE86" d="M267.088,206.23h-15.845c-5.207,0-9.426-5.194-9.426-11.607v-41.755h25.271V206.23z"/>
			<g>
				<path fill="#6B8931" d="M261.053,302.047c0,0-1.148-19.218-1.958-38.493c-0.848-19.264-1.386-38.562-1.386-38.562
					c-0.221-8.046,2.541-14.905,6.145-15.326c3.616-0.424,6.708,5.602,6.927,13.429c0,0,0.524,18.877,1.35,37.66
					c0.791,18.808,1.91,37.495,1.91,37.495L261.053,302.047z"/>
			</g>
			<path fill="#3A2316" d="M239.441,175.428c-6.039-1.741-14.682-8.375-17.859-14.364c-2.91,4.81-1.347,11.565,1.04,16.264
				c2.424,4.768,6.321,6.147,11.098,6.879c2.654,0.403,5.27,0.353,7.907-0.079L239.441,175.428z"/>
			<path fill="#6B8931" d="M266.024,229.423l-2.41-7.509l1.142-11.946l-25.312-12.062l-25.31,12.142l7.282,73.344l39.039,4.265
				l-0.073-31.855l0.908-9.492C265.949,242.403,268.037,235.713,266.024,229.423z"/>
			<g>
				<path fill="#F7C28D" d="M237.625,172.778c-3.477,0.118-6.2,3.179-6.083,6.844l0.678,22.179c0.109,3.664,3.014,6.532,6.492,6.415
					c3.464-0.117,6.192-3.18,6.076-6.844l-0.679-22.18C243.998,175.532,241.088,172.663,237.625,172.778z"/>
			</g>
			<path fill="#F7C28D" d="M253.46,193.477c-16.22,0-29.259-12.643-29.218-24.854l0.057-17.25c0.01-3.813,0.942-7.4,2.571-10.53
				l35.898,0.142c1.433,3.134,2.208,6.726,2.199,10.543c0,0,0.205,16.279-0.069,21.697
				C264.313,184.697,260.935,189.662,253.46,193.477z"/>
			<g>
				<path fill="#F5F5F5" d="M244.504,177.631c0.548,3.342,3.293,5.879,6.611,5.856c3.321-0.019,6.043-2.589,6.557-5.931
					L244.504,177.631z"/>
			</g>
			<path fill="#EADE86" d="M251.686,141.256c5.176,2.862,11.768,10.638,13.476,16.651c4.261-3.804,5.068-9.155,3.825-13.854
				c-1.26-4.761-6.058-7.671-10.292-9.352c-2.35-0.936-4.76-1.461-7.26-1.651L251.686,141.256z"/>
			<path fill="#FFF8A4" d="M218.506,165.37c-1.474-4.761-2.721-9.753-2.676-12.502c0.182-11.041,7.892-20.024,18.031-22.111
				c9.238-1.9,17.903,1.014,26.357,4.618c-1.146,2.349-2.414,4.579-3.608,6.898c-4.881,9.439-13.756,16.615-23.847,20.473
				l-0.008,2.59c-0.004,2.103-1.628,3.803-3.624,3.795h-6.004L218.506,165.37z"/>
			<path fill="#1D183C" d="M245.595,162.818c0,1.097-0.84,1.989-1.882,1.989c-1.047,0-1.896-0.892-1.896-1.989
				c0-1.107,0.85-2.004,1.896-2.004C244.755,160.814,245.595,161.711,245.595,162.818z"/>
			<path fill="#1D183C" d="M260.699,162.818c0,1.097-0.849,1.989-1.901,1.989c-1.048,0-1.887-0.892-1.887-1.989
				c0-1.107,0.838-2.004,1.887-2.004C259.85,160.814,260.699,161.711,260.699,162.818z"/>
			<path fill="#F9AC8D" d="M223.347,160.999c3.239,0,5.872,2.768,5.872,6.186v6.182h-5.872c-3.241,0-5.866-2.764-5.866-6.182
				C217.481,163.767,220.105,160.999,223.347,160.999z"/>
			<path d="M260.219,304.922c0,9.561-6.688,17.311-14.932,17.311h-16.343c-8.243,0-15.009,1.072-14.931-17.311
				c0.087-18.394,5.645-27.637,5.645-27.637h40.562V304.922z"/>
			<path fill="#FFF8A4" d="M234.59,206.708h-11.762c-3.862,0-6.998-5.237-6.998-11.708v-42.132h18.76V206.708z"/>
			<g>
				<line fill="#028BC0" x1="217.481" y1="217.866" x2="204.366" y2="274.099"/>
				<g>
					<path fill="#6B8931" d="M209.361,215.63c-4.369,18.744-8.741,37.487-13.115,56.229c-2.465,10.568,13.782,15.057,16.247,4.479
						c4.369-18.747,8.741-37.486,13.108-56.23C228.067,209.542,211.828,205.054,209.361,215.63L209.361,215.63z"/>
				</g>
			</g>
			<g>
				<line fill="#028BC0" x1="204.301" y1="274.546" x2="243.427" y2="295.219"/>
				<g>
					<path fill="#6B8931" d="M200.052,281.819c13.041,6.891,26.082,13.788,39.121,20.678c9.599,5.072,18.108-9.472,8.507-14.548
						c-13.044-6.892-26.084-13.79-39.126-20.681C198.958,262.198,190.444,276.74,200.052,281.819L200.052,281.819z"/>
				</g>
			</g>
			<path fill="#F9AC8D" d="M238.021,297.285c0,5.686,3.66,10.299,8.17,10.299c4.507,0,8.164-4.614,8.164-10.299
				c0-5.688-3.656-10.294-8.164-10.294C241.68,286.99,238.021,291.596,238.021,297.285z"/>
		</g>
		<g>
			<g>
				<line fill="#028BC0" x1="112.593" y1="214.222" x2="148.746" y2="254.942"/>
				<g>
					<path fill="#94A7AE" d="M106.175,219.677c12.053,13.577,24.103,27.148,36.155,40.721c7.198,8.107,20.065-2.768,12.831-10.917
						c-12.05-13.568-24.102-27.146-36.15-40.713C111.81,200.657,98.942,211.534,106.175,219.677L106.175,219.677z"/>
				</g>
			</g>
			<g>
				<path fill="#94A7AE" d="M131.259,288.307c8.733-8.106,17.464-16.217,26.199-24.322c7.935-7.37-2.969-20.215-10.937-12.816
					c-8.732,8.108-17.467,16.215-26.199,24.323C112.388,282.86,123.29,295.706,131.259,288.307L131.259,288.307z"/>
			</g>
			<polyline fill="#94A7AE" points="121.354,218.971 117.19,206.564 88.59,197.499 61.31,206.887 57.447,214.18 66.872,294.431 
				112.272,290.105 114.152,257.355 			"/>
			<g>
				<path fill="#F5F5F5" d="M96,174.75c0.568,3.422,3.446,6.02,6.92,5.997c3.473-0.023,6.322-2.649,6.854-6.074L96,174.75z"/>
			</g>
			<path fill="#675E52" d="M112.439,307.514c-0.005,7.497-6.996,13.574-15.625,13.574H79.718c-8.627,0-15.707,0.838-15.614-13.574
				C64.182,293.093,70,285.845,70,285.845h42.438V307.514z"/>
			<g>
				<line fill="#94A7AE" x1="60.87" y1="215.322" x2="15.925" y2="253.847"/>
				<g>
					<path fill="#94A7AE" d="M54.684,209.599c-14.979,12.849-29.96,25.685-44.939,38.527c-8.25,7.068,4.216,18.429,12.37,11.436
						c14.977-12.841,29.959-25.686,44.938-38.524C75.298,213.968,62.838,202.612,54.684,209.599L54.684,209.599z"/>
				</g>
			</g>
			<g>
				<path fill="#94A7AE" d="M8.546,262.224c10.739,10.987,21.48,21.977,32.217,32.962c7.602,7.778,19.055-4.576,11.494-12.32
					c-10.738-10.984-21.482-21.972-32.218-32.961C12.436,242.124,0.976,254.48,8.546,262.224L8.546,262.224z"/>
			</g>
			<g>
				<path fill="#F8A586" d="M101.173,200.551l-10.99-0.532c-3.197,0-6.513,0.157-9.857,0.441c1.442,4.545,5.695,7.845,10.714,7.845
					c4.973,0,9.178-3.23,10.664-7.689C101.53,200.591,101.353,200.563,101.173,200.551z"/>
				<g>
					<g>
						<path fill="#F7C28D" d="M90.179,173.316c-3.466,0-6.279,2.813-6.279,6.282v21.013l10.003,6.276l2.552-6.276v-21.013
							C96.455,176.129,93.643,173.316,90.179,173.316z"/>
					</g>
				</g>
				<path fill="#F7C28D" d="M115.493,147.171v27.278c-0.583,6.559-3.699,12.6-8.356,16.734c-0.697,0.145-11.16,0.001-11.315,0.001
					c-11.568,0-20.948-9.382-20.948-20.952v-23.062H115.493z"/>
				<g>
					<g>
						<g>
							<path fill="#F7C28D" d="M72.723,163.025c-3.229,0-5.852,2.614-5.852,5.837c0,3.23,2.622,5.849,5.852,5.849h9.508
								l-0.35-11.686H72.723z"/>
						</g>
					</g>
				</g>
				<path d="M71.405,143.194v3.526c-0.008,0.046-0.017,0.089-0.02,0.135v16.213h2.326v4.172c0,1.923,1.557,3.482,3.478,3.482
					c1.92,0,3.474-1.56,3.474-3.482v-2.514c0.463-2.617,2.75-4.612,5.506-4.612v-6.886c0.469-2.614,2.746-4.601,5.5-4.604v-0.04
					h23.843c3.832,0,6.982-2.918,7.36-6.661h-9.554l-2.621-9.99H87.891c-5.44,0-10.259,2.623-13.284,6.663L71.405,143.194z"/>
				<g>
					<path fill="#11122D" d="M109.25,164.439c-0.979,0-1.766-0.79-1.766-1.775c0-0.97,0.787-1.765,1.766-1.765
						c0.976,0,1.767,0.795,1.767,1.765C111.016,163.65,110.226,164.439,109.25,164.439z"/>
					<path fill="#11122D" d="M95.196,164.439c-0.979,0-1.771-0.79-1.771-1.775c0-0.97,0.793-1.765,1.771-1.765
						c0.976,0,1.771,0.795,1.771,1.765C96.967,163.65,96.172,164.439,95.196,164.439z"/>
				</g>
				<path fill="#F5E7E6" d="M95.47,176.254c0,3.73,3.023,6.75,6.757,6.75c3.73,0,6.75-3.02,6.75-6.75H95.47z"/>
				<rect x="93.805" y="144.587" width="18.991" height="4.037"/>
				<path d="M71.314,141.173c0-8.408,6.813-15.229,15.214-15.229h14.073c8.399,0,15.214,6.82,15.214,15.229v7.451h-3.52v-2.798
					c0-4.378-3.548-7.926-7.932-7.926h-2.128c-4.38,0-7.931,3.548-7.931,7.926v2.798H71.314V141.173z"/>
				<line fill="none" stroke="#020304" stroke-width="1.3653" x1="72.157" y1="144.785" x2="92.723" y2="144.785"/>
				<path d="M111.986,144.367c4.234-2.444,5.855-7.677,3.883-12.045l-10.544,6.085L111.986,144.367z"/>
			</g>
			<polygon fill="#FFFFFF" points="90.24,225.751 90.24,225.751 78.45,201.129 83.328,199 96.455,199 100.815,201.129 			"/>
			<polygon points="90.168,200.948 90.168,200.948 85.152,208.904 90.319,213.352 95.484,208.904 			"/>
			<polygon points="94.162,216.384 90.24,225.751 85.751,216.129 90.319,209.375 			"/>
			<polygon fill="#B9C9CD" points="90.24,225.751 90.24,225.751 72.806,207.15 78.45,200.47 			"/>
			<polygon fill="#B9C9CD" points="90.24,225.751 90.24,225.751 107.92,207.15 101.173,200.551 			"/>
		</g>
	</g>
	<g clip-path="url(#SVGID_2_)">
		<circle fill="#F1F1F2" stroke="#929497" stroke-width="2" stroke-miterlimit="10" cx="608.989" cy="67.715" r="43.058"/>
		<g>
			<circle fill="#FFDA00" cx="608.325" cy="62.595" r="12.969"/>
			<polygon fill="#FFDA00" points="611.804,87.369 604.159,87.369 599.517,69.213 616.309,69.213 			"/>
			<rect x="603.179" y="89.774" fill="#4C4C4C" width="9.743" height="2.669"/>
			<rect x="602.247" y="81.909" fill="#A0A0A0" width="11.468" height="7.774"/>
			<rect x="601.564" y="83.805" fill="#FFFFFF" width="12.97" height="1.138"/>
			<rect x="601.564" y="86.459" fill="#FFFFFF" width="12.97" height="1.137"/>
			<g>
				<path fill="#FFFFFF" d="M615.532,66.918c-0.154,0-0.311-0.015-0.469-0.044c-1.34-0.258-2.217-1.553-1.959-2.893
					c0.454-2.362-2.298-6.447-3.981-7.121c-1.266-0.506-1.883-1.944-1.376-3.211c0.507-1.267,1.944-1.883,3.211-1.375
					c3.823,1.529,7.902,7.934,6.997,12.64C617.729,66.096,616.693,66.918,615.532,66.918z"/>
			</g>
			<g>
				<path fill="#FFDA00" d="M588.153,60.932c-0.044,0-0.088-0.001-0.132-0.004l-4.738-0.381c-0.906-0.072-1.582-0.866-1.509-1.773
					c0.071-0.906,0.86-1.585,1.773-1.509l4.735,0.38c0.908,0.073,1.584,0.867,1.512,1.773
					C589.725,60.279,589.005,60.932,588.153,60.932z"/>
			</g>
			<g>
				<path fill="#FFDA00" d="M587.026,76.548c-0.557,0-1.1-0.283-1.409-0.794c-0.471-0.778-0.223-1.79,0.555-2.262l4.065-2.461
					c0.778-0.47,1.79-0.222,2.261,0.555c0.472,0.778,0.223,1.792-0.556,2.262l-4.063,2.461
					C587.611,76.471,587.317,76.548,587.026,76.548z"/>
			</g>
			<g>
				<path fill="#FFDA00" d="M593.591,48.849c-0.405,0-0.81-0.148-1.128-0.447l-3.313-3.112c-0.664-0.624-0.696-1.665-0.074-2.329
					c0.622-0.663,1.663-0.695,2.328-0.073l3.314,3.113c0.664,0.623,0.696,1.665,0.074,2.328
					C594.469,48.675,594.028,48.849,593.591,48.849z"/>
			</g>
			<g>
				<path fill="#FFDA00" d="M606.849,43.264c-0.864,0-1.59-0.675-1.642-1.551l-0.229-3.917c-0.052-0.907,0.642-1.687,1.549-1.74
					c0.908-0.053,1.688,0.64,1.74,1.549l0.229,3.916c0.054,0.908-0.641,1.687-1.548,1.74
					C606.914,43.263,606.881,43.264,606.849,43.264z"/>
			</g>
			<g>
				<path fill="#FFDA00" d="M621.752,46.85c-0.354,0-0.711-0.113-1.012-0.349c-0.718-0.56-0.845-1.595-0.285-2.311l2.103-2.691
					c0.562-0.717,1.596-0.845,2.312-0.285c0.718,0.56,0.844,1.596,0.284,2.312l-2.103,2.691
					C622.726,46.634,622.242,46.85,621.752,46.85z"/>
			</g>
			<g>
				<path fill="#FFDA00" d="M627.835,59.464c-0.831,0-1.546-0.627-1.636-1.472c-0.097-0.904,0.559-1.716,1.463-1.812l4.522-0.482
					c0.899-0.098,1.715,0.559,1.812,1.463c0.097,0.904-0.559,1.716-1.463,1.812l-4.521,0.482
					C627.952,59.461,627.894,59.464,627.835,59.464z"/>
			</g>
			<g>
				<path fill="#FFDA00" d="M629.045,77.093c-0.382,0-0.764-0.132-1.074-0.4l-3.127-2.696c-0.688-0.594-0.765-1.633-0.171-2.322
					c0.595-0.688,1.633-0.766,2.322-0.172l3.126,2.696c0.688,0.594,0.767,1.634,0.172,2.323
					C629.967,76.898,629.507,77.093,629.045,77.093z"/>
			</g>
		</g>
	</g>
	<g clip-path="url(#SVGID_2_)">
		<circle fill="#F1F1F2" stroke="#929497" stroke-width="2" stroke-miterlimit="10" cx="781.222" cy="67.715" r="43.058"/>
		<g>
			<circle fill="#FFDA00" cx="780.558" cy="62.595" r="12.969"/>
			<polygon fill="#FFDA00" points="784.036,87.369 776.392,87.369 771.75,69.213 788.541,69.213 			"/>
			<rect x="775.412" y="89.774" fill="#4C4C4C" width="9.743" height="2.669"/>
			<rect x="774.48" y="81.909" fill="#A0A0A0" width="11.468" height="7.774"/>
			<rect x="773.798" y="83.805" fill="#FFFFFF" width="12.969" height="1.138"/>
			<rect x="773.798" y="86.459" fill="#FFFFFF" width="12.969" height="1.137"/>
			<g>
				<path fill="#FFFFFF" d="M787.765,66.918c-0.154,0-0.311-0.015-0.469-0.044c-1.339-0.258-2.217-1.553-1.959-2.893
					c0.454-2.362-2.297-6.447-3.98-7.121c-1.267-0.506-1.883-1.944-1.377-3.211c0.508-1.267,1.945-1.883,3.211-1.375
					c3.823,1.529,7.903,7.934,6.998,12.64C789.962,66.096,788.926,66.918,787.765,66.918z"/>
			</g>
			<g>
				<path fill="#FFDA00" d="M760.387,60.932c-0.045,0-0.089-0.001-0.133-0.004l-4.737-0.381c-0.907-0.072-1.583-0.866-1.51-1.773
					c0.071-0.906,0.86-1.585,1.773-1.509l4.736,0.38c0.907,0.073,1.583,0.867,1.511,1.773
					C761.958,60.279,761.237,60.932,760.387,60.932z"/>
			</g>
			<g>
				<path fill="#FFDA00" d="M759.26,76.548c-0.557,0-1.1-0.283-1.41-0.794c-0.471-0.778-0.222-1.79,0.555-2.262l4.065-2.461
					c0.779-0.47,1.791-0.222,2.262,0.555c0.472,0.778,0.222,1.792-0.556,2.262l-4.064,2.461
					C759.845,76.471,759.55,76.548,759.26,76.548z"/>
			</g>
			<g>
				<path fill="#FFDA00" d="M765.823,48.849c-0.404,0-0.81-0.148-1.128-0.447l-3.313-3.112c-0.663-0.624-0.695-1.665-0.074-2.329
					c0.623-0.663,1.664-0.695,2.329-0.073l3.314,3.113c0.663,0.623,0.696,1.665,0.073,2.328
					C766.701,48.675,766.262,48.849,765.823,48.849z"/>
			</g>
			<g>
				<path fill="#FFDA00" d="M779.082,43.264c-0.865,0-1.591-0.675-1.642-1.551l-0.229-3.917c-0.053-0.907,0.641-1.687,1.549-1.74
					c0.908-0.053,1.687,0.64,1.74,1.549l0.229,3.916c0.053,0.908-0.641,1.687-1.549,1.74
					C779.146,43.263,779.114,43.264,779.082,43.264z"/>
			</g>
			<g>
				<path fill="#FFDA00" d="M793.984,46.85c-0.354,0-0.711-0.113-1.012-0.349c-0.718-0.56-0.845-1.595-0.285-2.311l2.104-2.691
					c0.562-0.717,1.595-0.845,2.311-0.285c0.718,0.56,0.844,1.596,0.284,2.312l-2.103,2.691
					C794.958,46.634,794.475,46.85,793.984,46.85z"/>
			</g>
			<g>
				<path fill="#FFDA00" d="M800.068,59.464c-0.831,0-1.546-0.627-1.637-1.472c-0.096-0.904,0.559-1.716,1.464-1.812l4.521-0.482
					c0.899-0.098,1.715,0.559,1.813,1.463c0.097,0.904-0.559,1.716-1.463,1.812l-4.522,0.482
					C800.186,59.461,800.127,59.464,800.068,59.464z"/>
			</g>
			<g>
				<path fill="#FFDA00" d="M801.277,77.093c-0.381,0-0.764-0.132-1.074-0.4l-3.126-2.696c-0.688-0.594-0.765-1.633-0.171-2.322
					c0.594-0.688,1.633-0.766,2.322-0.172l3.126,2.696c0.688,0.594,0.766,1.634,0.172,2.323
					C802.2,76.898,801.74,77.093,801.277,77.093z"/>
			</g>
		</g>
	</g>
	<g clip-path="url(#SVGID_2_)">
		<circle fill="#F1F1F2" stroke="#929497" stroke-width="2" stroke-miterlimit="10" cx="248.61" cy="67.715" r="43.058"/>
		<g>
			<circle fill="#FFDA00" cx="247.946" cy="62.595" r="12.969"/>
			<polygon fill="#FFDA00" points="251.425,87.369 243.78,87.369 239.138,69.213 255.93,69.213 			"/>
			<rect x="242.8" y="89.774" fill="#4C4C4C" width="9.744" height="2.669"/>
			<rect x="241.869" y="81.909" fill="#A0A0A0" width="11.468" height="7.774"/>
			<rect x="241.186" y="83.805" fill="#FFFFFF" width="12.969" height="1.138"/>
			<rect x="241.186" y="86.459" fill="#FFFFFF" width="12.969" height="1.137"/>
			<g>
				<path fill="#FFFFFF" d="M255.153,66.918c-0.154,0-0.311-0.015-0.469-0.044c-1.339-0.258-2.217-1.553-1.959-2.893
					c0.455-2.362-2.297-6.447-3.981-7.121c-1.266-0.506-1.883-1.944-1.376-3.211c0.507-1.267,1.945-1.883,3.211-1.375
					c3.823,1.529,7.903,7.934,6.998,12.64C257.35,66.096,256.314,66.918,255.153,66.918z"/>
			</g>
			<g>
				<path fill="#FFDA00" d="M227.775,60.932c-0.044,0-0.088-0.001-0.132-0.004l-4.738-0.381c-0.907-0.072-1.583-0.866-1.509-1.773
					c0.071-0.906,0.86-1.585,1.773-1.509l4.736,0.38c0.908,0.073,1.583,0.867,1.511,1.773
					C229.346,60.279,228.626,60.932,227.775,60.932z"/>
			</g>
			<g>
				<path fill="#FFDA00" d="M226.648,76.548c-0.557,0-1.1-0.283-1.41-0.794c-0.471-0.778-0.222-1.79,0.555-2.262l4.065-2.461
					c0.779-0.47,1.791-0.222,2.261,0.555c0.472,0.778,0.222,1.792-0.556,2.262L227.5,76.31
					C227.233,76.471,226.938,76.548,226.648,76.548z"/>
			</g>
			<g>
				<path fill="#FFDA00" d="M233.212,48.849c-0.405,0-0.81-0.148-1.128-0.447l-3.313-3.112c-0.664-0.624-0.696-1.665-0.074-2.329
					c0.623-0.663,1.664-0.695,2.329-0.073l3.314,3.113c0.664,0.623,0.696,1.665,0.074,2.328
					C234.09,48.675,233.65,48.849,233.212,48.849z"/>
			</g>
			<g>
				<path fill="#FFDA00" d="M246.47,43.264c-0.865,0-1.59-0.675-1.642-1.551l-0.229-3.917c-0.052-0.907,0.641-1.687,1.549-1.74
					c0.908-0.053,1.687,0.64,1.74,1.549l0.229,3.916c0.053,0.908-0.641,1.687-1.548,1.74
					C246.535,43.263,246.502,43.264,246.47,43.264z"/>
			</g>
			<g>
				<path fill="#FFDA00" d="M261.373,46.85c-0.354,0-0.711-0.113-1.012-0.349c-0.718-0.56-0.845-1.595-0.285-2.311l2.103-2.691
					c0.562-0.717,1.595-0.845,2.311-0.285c0.718,0.56,0.844,1.596,0.284,2.312l-2.103,2.691
					C262.347,46.634,261.863,46.85,261.373,46.85z"/>
			</g>
			<g>
				<path fill="#FFDA00" d="M267.457,59.464c-0.831,0-1.546-0.627-1.636-1.472c-0.096-0.904,0.559-1.716,1.463-1.812l4.522-0.482
					c0.9-0.098,1.715,0.559,1.812,1.463c0.097,0.904-0.559,1.716-1.462,1.812l-4.522,0.482
					C267.574,59.461,267.515,59.464,267.457,59.464z"/>
			</g>
			<g>
				<path fill="#FFDA00" d="M268.666,77.093c-0.381,0-0.763-0.132-1.074-0.4l-3.126-2.696c-0.688-0.594-0.765-1.633-0.171-2.322
					c0.594-0.688,1.633-0.766,2.322-0.172l3.126,2.696c0.688,0.594,0.766,1.634,0.172,2.323
					C269.588,76.898,269.128,77.093,268.666,77.093z"/>
			</g>
		</g>
	</g>
	<g clip-path="url(#SVGID_2_)">
		<circle fill="#F1F1F2" stroke="#929497" stroke-width="2" stroke-miterlimit="10" cx="432.076" cy="56.482" r="51.483"/>
		
			<rect x="392.667" y="39.333" fill="#8BC53F" stroke="#929497" stroke-width="5" stroke-miterlimit="10" width="69" height="32.333"/>
		<rect x="403.045" y="41.833" fill="#729934" width="3.617" height="27.667"/>
		<rect x="417.21" y="41.833" fill="#729934" width="3.616" height="27.667"/>
		<rect x="432.58" y="41.833" fill="#729934" width="3.616" height="27.667"/>
		<rect x="447.044" y="41.833" fill="#729934" width="3.617" height="27.667"/>
		<rect x="463.667" y="45.667" fill="#929497" width="8.333" height="20"/>
		<polygon fill="#FFFF2E" points="432.255,54.556 430.64,63.688 407.543,53.997 426.428,57.217 428.645,46.712 453.899,58.136 		"/>
	</g>
	<g clip-path="url(#SVGID_2_)">
		<circle fill="#F1F1F2" stroke="#929497" stroke-width="2" stroke-miterlimit="10" cx="94.162" cy="67.715" r="43.058"/>
		<g>
			<circle fill="#FFDA00" cx="93.498" cy="62.595" r="12.969"/>
			<polygon fill="#FFDA00" points="96.977,87.369 89.332,87.369 84.69,69.213 101.481,69.213 			"/>
			<rect x="88.352" y="89.774" fill="#4C4C4C" width="9.744" height="2.669"/>
			<rect x="87.421" y="81.909" fill="#A0A0A0" width="11.467" height="7.774"/>
			<rect x="86.738" y="83.805" fill="#FFFFFF" width="12.97" height="1.138"/>
			<rect x="86.738" y="86.459" fill="#FFFFFF" width="12.97" height="1.137"/>
			<g>
				<path fill="#FFFFFF" d="M100.706,66.918c-0.154,0-0.311-0.015-0.469-0.044c-1.339-0.258-2.217-1.553-1.959-2.893
					c0.454-2.362-2.297-6.447-3.981-7.121c-1.266-0.506-1.883-1.944-1.377-3.211c0.507-1.267,1.945-1.883,3.211-1.375
					c3.823,1.529,7.902,7.934,6.998,12.64C102.902,66.096,101.867,66.918,100.706,66.918z"/>
			</g>
			<g>
				<path fill="#FFDA00" d="M73.327,60.932c-0.045,0-0.089-0.001-0.133-0.004l-4.738-0.381c-0.907-0.072-1.582-0.866-1.509-1.773
					c0.071-0.906,0.86-1.585,1.773-1.509l4.736,0.38c0.908,0.073,1.583,0.867,1.511,1.773
					C74.898,60.279,74.178,60.932,73.327,60.932z"/>
			</g>
			<g>
				<path fill="#FFDA00" d="M72.2,76.548c-0.557,0-1.1-0.283-1.41-0.794c-0.471-0.778-0.222-1.79,0.555-2.262l4.065-2.461
					c0.779-0.47,1.791-0.222,2.262,0.555c0.472,0.778,0.222,1.792-0.556,2.262l-4.064,2.461
					C72.785,76.471,72.491,76.548,72.2,76.548z"/>
			</g>
			<g>
				<path fill="#FFDA00" d="M78.764,48.849c-0.405,0-0.81-0.148-1.128-0.447l-3.313-3.112c-0.664-0.624-0.696-1.665-0.074-2.329
					c0.623-0.663,1.664-0.695,2.328-0.073l3.314,3.113c0.664,0.623,0.697,1.665,0.074,2.328
					C79.642,48.675,79.202,48.849,78.764,48.849z"/>
			</g>
			<g>
				<path fill="#FFDA00" d="M92.022,43.264c-0.865,0-1.591-0.675-1.642-1.551l-0.229-3.917c-0.052-0.907,0.641-1.687,1.548-1.74
					c0.909-0.053,1.688,0.64,1.741,1.549l0.229,3.916c0.053,0.908-0.641,1.687-1.549,1.74
					C92.087,43.263,92.054,43.264,92.022,43.264z"/>
			</g>
			<g>
				<path fill="#FFDA00" d="M106.925,46.85c-0.355,0-0.711-0.113-1.012-0.349c-0.717-0.56-0.845-1.595-0.285-2.311l2.104-2.691
					c0.561-0.717,1.595-0.845,2.311-0.285c0.717,0.56,0.843,1.596,0.284,2.312l-2.103,2.691
					C107.898,46.634,107.415,46.85,106.925,46.85z"/>
			</g>
			<g>
				<path fill="#FFDA00" d="M113.009,59.464c-0.831,0-1.546-0.627-1.637-1.472c-0.096-0.904,0.559-1.716,1.464-1.812l4.522-0.482
					c0.899-0.098,1.715,0.559,1.812,1.463c0.097,0.904-0.558,1.716-1.462,1.812l-4.522,0.482
					C113.125,59.461,113.067,59.464,113.009,59.464z"/>
			</g>
			<g>
				<path fill="#FFDA00" d="M114.218,77.093c-0.381,0-0.763-0.132-1.074-0.4l-3.126-2.696c-0.688-0.594-0.765-1.633-0.171-2.322
					c0.594-0.688,1.633-0.766,2.322-0.172l3.126,2.696c0.688,0.594,0.766,1.634,0.172,2.323
					C115.14,76.898,114.681,77.093,114.218,77.093z"/>
			</g>
		</g>
	</g>
	
		<line clip-path="url(#SVGID_2_)" fill="#F1F1F2" stroke="#929497" stroke-width="2" stroke-miterlimit="10" x1="291.5" y1="65.5" x2="341" y2="65.5"/>
	
		<line clip-path="url(#SVGID_2_)" fill="none" stroke="#929497" stroke-width="2" stroke-miterlimit="10" x1="380" y1="54.5" x2="340" y2="54.5"/>
	
		<line clip-path="url(#SVGID_2_)" fill="none" stroke="#929497" stroke-width="2" stroke-miterlimit="10" x1="340" y1="53.5" x2="340" y2="66"/>
	<circle clip-path="url(#SVGID_2_)" fill="#929497" cx="293.25" cy="65.25" r="4.75"/>
	<path clip-path="url(#SVGID_2_)" fill="#F1F1F2" stroke="#929497" stroke-width="2" stroke-miterlimit="10" d="M179,65.5
		c8.333,0,16.667,0,25,0"/>
	<path clip-path="url(#SVGID_2_)" fill="#F1F1F2" stroke="#929497" stroke-width="2" stroke-miterlimit="10" d="M152,51.5
		c9.667,0,19.333,0,29,0"/>
	<path clip-path="url(#SVGID_2_)" fill="#F1F1F2" stroke="#929497" stroke-width="2" stroke-miterlimit="10" d="M135.25,65.5
		c6.225,0,12.45,0,18.675,0"/>
	<circle clip-path="url(#SVGID_2_)" fill="#929497" cx="137" cy="65.25" r="4.75"/>
	<circle clip-path="url(#SVGID_2_)" fill="#929497" cx="206" cy="65.25" r="4.75"/>
	<circle clip-path="url(#SVGID_2_)" fill="#929497" cx="380.25" cy="54.25" r="4.75"/>
	<circle clip-path="url(#SVGID_2_)" fill="#929497" cx="484" cy="54.25" r="4.75"/>
	<circle clip-path="url(#SVGID_2_)" fill="#929497" cx="565.5" cy="65.75" r="4.75"/>
	<circle clip-path="url(#SVGID_2_)" fill="#929497" cx="652" cy="65.75" r="4.75"/>
	<circle clip-path="url(#SVGID_2_)" fill="#929497" cx="738.5" cy="65.75" r="4.75"/>
	
		<line clip-path="url(#SVGID_2_)" fill="#F1F1F2" stroke="#929497" stroke-width="2" stroke-miterlimit="10" x1="564.088" y1="65.75" x2="501.5" y2="65.75"/>
	
		<line clip-path="url(#SVGID_2_)" fill="none" stroke="#929497" stroke-width="2" stroke-miterlimit="10" x1="483.84" y1="54.75" x2="502.5" y2="54.75"/>
	
		<line clip-path="url(#SVGID_2_)" fill="none" stroke="#929497" stroke-width="2" stroke-miterlimit="10" x1="502.109" y1="53.75" x2="502.109" y2="66.25"/>
	<path clip-path="url(#SVGID_2_)" fill="none" stroke="#929497" stroke-width="2" stroke-miterlimit="10" d="M728.75,66.25
		c3.25,0,6.5,0,9.75,0"/>
	<path clip-path="url(#SVGID_2_)" fill="none" stroke="#929497" stroke-width="2" stroke-miterlimit="10" d="M652.84,66.25
		c12.535,0,25.069,0,37.604,0"/>
	
		<line clip-path="url(#SVGID_2_)" fill="none" stroke="#929497" stroke-width="2" stroke-miterlimit="10" x1="689" y1="89.75" x2="730" y2="89.75"/>
	
		<line clip-path="url(#SVGID_2_)" fill="none" stroke="#929497" stroke-width="2" stroke-miterlimit="10" x1="689.5" y1="66" x2="689.5" y2="90"/>
	
		<line clip-path="url(#SVGID_2_)" fill="none" stroke="#929497" stroke-width="2" stroke-miterlimit="10" x1="729.5" y1="66" x2="729.5" y2="90"/>
	
		<line clip-path="url(#SVGID_2_)" fill="none" stroke="#929497" stroke-width="2" stroke-miterlimit="10" x1="153" y1="65" x2="153" y2="51.5"/>
	
		<line clip-path="url(#SVGID_2_)" fill="none" stroke="#929497" stroke-width="2" stroke-miterlimit="10" x1="180" y1="65" x2="180" y2="51.5"/>
</g>
</svg>
