<?xml version="1.0" encoding="utf-8"?>
<!-- Generator: Adobe Illustrator 15.1.0, SVG Export Plug-In . SVG Version: 6.00 Build 0)  -->
<!DOCTYPE svg PUBLIC "-//W3C//DTD SVG 1.1//EN" "http://www.w3.org/Graphics/SVG/1.1/DTD/svg11.dtd">
<svg version="1.1" id="Layer_1" xmlns="http://www.w3.org/2000/svg" xmlns:xlink="http://www.w3.org/1999/xlink" x="0px" y="0px"
	 width="1024px" height="600px" viewBox="0 0 1024 600" enable-background="new 0 0 1024 600" xml:space="preserve">
<g id="Layer_1_1_">
	<rect x="40" y="473" opacity="0.93" fill="#FFFFFF" enable-background="new    " width="944" height="103"/>
	<g>
		<path d="M62.815,501.879l-4.797-7.717v7.717h-3.054v-15.955h3.054v7.264l4.771-7.264h3.625l-5.42,7.604l5.701,8.352H62.815
			L62.815,501.879z"/>
		<path d="M76.609,501.879l-0.073-1.624c-0.261,0.274-0.533,0.528-0.818,0.763c-0.283,0.232-0.598,0.434-0.938,0.604
			c-0.342,0.172-0.714,0.306-1.117,0.397c-0.401,0.093-0.844,0.14-1.324,0.14c-0.635,0-1.19-0.094-1.672-0.278
			c-0.479-0.188-0.883-0.447-1.208-0.781c-0.326-0.334-0.57-0.736-0.736-1.209c-0.167-0.472-0.25-0.992-0.25-1.563
			c0-0.586,0.124-1.127,0.372-1.623c0.247-0.494,0.627-0.924,1.136-1.28c0.509-0.358,1.144-0.641,1.902-0.845
			c0.763-0.201,1.654-0.305,2.682-0.305h1.624v-0.744c0-0.316-0.045-0.604-0.135-0.859c-0.091-0.258-0.233-0.476-0.435-0.652
			c-0.199-0.18-0.458-0.318-0.774-0.416s-0.708-0.146-1.173-0.146c-0.73,0-1.455,0.084-2.167,0.25
			c-0.712,0.168-1.4,0.401-2.067,0.702v-2.381c0.594-0.234,1.278-0.432,2.057-0.586s1.585-0.23,2.423-0.23
			c0.919,0,1.709,0.088,2.368,0.264c0.659,0.174,1.203,0.438,1.629,0.787c0.428,0.35,0.743,0.787,0.946,1.313
			c0.203,0.523,0.305,1.139,0.305,1.836v8.475h-2.553v-0.006H76.609z M76.182,496.397h-1.819c-0.505,0-0.932,0.049-1.282,0.146
			c-0.35,0.098-0.635,0.229-0.854,0.401c-0.222,0.17-0.38,0.367-0.482,0.592c-0.102,0.226-0.153,0.464-0.153,0.716
			c0,0.505,0.163,0.89,0.488,1.151c0.325,0.267,0.771,0.396,1.331,0.396c0.415,0,0.846-0.15,1.294-0.451
			c0.447-0.301,0.94-0.732,1.479-1.294L76.182,496.397L76.182,496.397z"/>
		<path d="M93.736,495.455c0,1.143-0.161,2.125-0.482,2.955c-0.32,0.83-0.77,1.521-1.343,2.068
			c-0.574,0.549-1.251,0.957-2.033,1.221c-0.779,0.267-1.632,0.396-2.551,0.396c-0.31,0-0.619-0.021-0.928-0.063
			c-0.312-0.041-0.59-0.094-0.842-0.156v4.846h-2.979v-17.248h2.576l0.073,1.83c0.252-0.316,0.515-0.605,0.787-0.866
			c0.271-0.261,0.566-0.48,0.885-0.665c0.315-0.184,0.659-0.324,1.023-0.422c0.366-0.098,0.777-0.146,1.233-0.146
			c0.732,0,1.383,0.146,1.953,0.439c0.569,0.293,1.048,0.711,1.435,1.252c0.388,0.541,0.683,1.195,0.887,1.965
			C93.634,493.633,93.736,494.496,93.736,495.455z M90.611,495.578c0-0.684-0.049-1.266-0.146-1.744
			c-0.097-0.48-0.236-0.875-0.421-1.186c-0.183-0.31-0.405-0.535-0.671-0.678c-0.265-0.145-0.566-0.214-0.91-0.214
			c-0.505,0-0.985,0.204-1.445,0.608c-0.459,0.407-0.946,0.961-1.458,1.66v5.42c0.234,0.09,0.525,0.163,0.873,0.222
			c0.346,0.058,0.696,0.085,1.056,0.085c0.472,0,0.901-0.1,1.288-0.293c0.387-0.195,0.716-0.473,0.989-0.83
			c0.271-0.357,0.48-0.795,0.628-1.313C90.538,496.803,90.611,496.223,90.611,495.578z"/>
		<path d="M103.013,491.979v9.9h-3.027v-9.9h-4.321v-2.502h11.67v2.502H103.013z"/>
		<path d="M117.649,501.879v-7.752h-0.024l-4.895,7.752h-2.82v-12.402h2.93v7.751h0.024l4.883-7.751h2.832v12.402H117.649z"/>
		<path d="M134.971,495.455c0,1.143-0.161,2.125-0.482,2.955c-0.322,0.83-0.77,1.521-1.343,2.068
			c-0.574,0.549-1.251,0.957-2.033,1.221c-0.781,0.267-1.632,0.396-2.551,0.396c-0.312,0-0.619-0.021-0.93-0.063
			c-0.31-0.041-0.59-0.094-0.842-0.156v4.846h-2.979v-17.248h2.576l0.071,1.83c0.252-0.316,0.517-0.605,0.787-0.866
			c0.273-0.261,0.568-0.48,0.885-0.665c0.317-0.184,0.659-0.324,1.025-0.422s0.777-0.146,1.233-0.146
			c0.73,0,1.383,0.146,1.952,0.439c0.568,0.293,1.049,0.711,1.436,1.252c0.386,0.541,0.681,1.195,0.885,1.965
			C134.869,493.633,134.971,494.496,134.971,495.455z M131.846,495.578c0-0.684-0.051-1.266-0.146-1.744
			c-0.097-0.48-0.238-0.875-0.421-1.186c-0.183-0.31-0.407-0.535-0.671-0.678c-0.267-0.145-0.568-0.214-0.91-0.214
			c-0.505,0-0.987,0.204-1.447,0.608c-0.459,0.407-0.944,0.961-1.458,1.66v5.42c0.236,0.09,0.527,0.163,0.873,0.222
			c0.348,0.058,0.698,0.085,1.058,0.085c0.472,0,0.899-0.1,1.286-0.293c0.389-0.195,0.718-0.473,0.989-0.83
			c0.272-0.357,0.482-0.795,0.628-1.313C131.773,496.803,131.846,496.223,131.846,495.578z"/>
		<path d="M148.729,495.578c0,0.979-0.141,1.869-0.415,2.682c-0.277,0.809-0.676,1.503-1.196,2.08
			c-0.521,0.578-1.16,1.023-1.917,1.344c-0.757,0.314-1.62,0.476-2.588,0.476c-0.92,0-1.742-0.134-2.466-0.401
			c-0.727-0.27-1.339-0.669-1.843-1.201c-0.507-0.533-0.893-1.201-1.16-2.002c-0.271-0.804-0.403-1.736-0.403-2.804
			c0-0.983,0.141-1.88,0.421-2.687c0.281-0.805,0.686-1.492,1.209-2.063c0.524-0.569,1.166-1.014,1.922-1.324
			c0.757-0.313,1.611-0.473,2.563-0.473c0.928,0,1.753,0.139,2.478,0.41c0.726,0.271,1.338,0.678,1.845,1.214
			c0.504,0.537,0.889,1.202,1.152,1.995C148.596,493.619,148.729,494.536,148.729,495.578z M145.628,495.652
			c0-1.285-0.24-2.252-0.727-2.896c-0.484-0.646-1.198-0.973-2.144-0.973c-0.521,0-0.964,0.104-1.329,0.307
			c-0.366,0.203-0.667,0.48-0.903,0.836c-0.236,0.354-0.409,0.768-0.521,1.238c-0.108,0.474-0.165,0.979-0.165,1.516
			c0,1.293,0.262,2.268,0.781,2.924c0.521,0.654,1.233,0.982,2.136,0.982c0.496,0,0.93-0.102,1.296-0.301
			c0.364-0.199,0.661-0.477,0.891-0.829c0.228-0.354,0.396-0.771,0.513-1.253C145.571,496.723,145.628,496.205,145.628,495.652z"/>
		<path d="M156.028,502.098c-0.83,0-1.65-0.029-2.46-0.092c-0.812-0.063-1.622-0.152-2.437-0.273v-12.135
			c1.719-0.229,3.436-0.342,5.151-0.342c1.872,0,3.247,0.259,4.126,0.773c0.879,0.52,1.318,1.275,1.318,2.277
			c0,0.325-0.047,0.641-0.142,0.945c-0.094,0.304-0.236,0.586-0.434,0.842c-0.195,0.258-0.439,0.493-0.732,0.709
			c-0.293,0.215-0.643,0.389-1.05,0.519c0.407,0.049,0.789,0.146,1.147,0.293c0.356,0.146,0.673,0.338,0.944,0.573
			c0.272,0.236,0.488,0.523,0.646,0.861c0.159,0.338,0.238,0.714,0.238,1.129c0,1.335-0.539,2.32-1.617,2.961
			C159.656,501.779,158.087,502.098,156.028,502.098z M158.653,492.857c0-0.455-0.2-0.799-0.598-1.031
			c-0.399-0.23-0.993-0.348-1.782-0.348c-0.497,0-0.908,0.006-1.233,0.018c-0.326,0.014-0.649,0.039-0.977,0.08v2.881h2.11
			c0.521,0,0.93-0.037,1.223-0.115c0.293-0.076,0.529-0.184,0.714-0.316c0.184-0.135,0.319-0.301,0.409-0.5
			C158.608,493.323,158.653,493.102,158.653,492.857z M156.407,499.852c0.919,0,1.611-0.154,2.075-0.463
			c0.464-0.312,0.696-0.729,0.696-1.258c0-0.504-0.222-0.896-0.659-1.18c-0.439-0.28-1.147-0.422-2.124-0.422h-2.332v3.15
			c0.391,0.063,0.769,0.107,1.135,0.134S155.967,499.852,156.407,499.852z"/>
		<path d="M172.825,501.879l-0.073-1.624c-0.261,0.274-0.531,0.528-0.816,0.763c-0.285,0.232-0.6,0.434-0.94,0.604
			c-0.342,0.172-0.714,0.306-1.117,0.397c-0.4,0.093-0.844,0.14-1.322,0.14c-0.637,0-1.192-0.094-1.674-0.278
			c-0.479-0.188-0.883-0.447-1.208-0.781c-0.324-0.334-0.57-0.736-0.736-1.209c-0.167-0.472-0.25-0.992-0.25-1.563
			c0-0.586,0.124-1.127,0.373-1.623c0.248-0.494,0.626-0.924,1.135-1.28c0.509-0.358,1.144-0.641,1.904-0.845
			c0.761-0.201,1.652-0.305,2.68-0.305h1.624v-0.744c0-0.316-0.045-0.604-0.134-0.859c-0.09-0.258-0.234-0.476-0.436-0.652
			c-0.199-0.18-0.458-0.318-0.773-0.416c-0.317-0.098-0.708-0.146-1.172-0.146c-0.732,0-1.455,0.084-2.167,0.25
			c-0.714,0.168-1.402,0.401-2.069,0.702v-2.381c0.594-0.234,1.28-0.432,2.057-0.586c0.777-0.154,1.585-0.23,2.423-0.23
			c0.919,0,1.709,0.088,2.368,0.264c0.659,0.174,1.203,0.438,1.629,0.787c0.43,0.35,0.743,0.787,0.946,1.313
			c0.203,0.523,0.305,1.139,0.305,1.836v8.475h-2.553v-0.006H172.825z M172.398,496.397h-1.819c-0.505,0-0.932,0.049-1.282,0.146
			c-0.35,0.098-0.635,0.229-0.854,0.401c-0.22,0.17-0.38,0.367-0.482,0.592c-0.102,0.226-0.151,0.464-0.151,0.716
			c0,0.505,0.163,0.89,0.486,1.151c0.325,0.267,0.771,0.396,1.331,0.396c0.415,0,0.848-0.15,1.294-0.451
			c0.447-0.301,0.94-0.732,1.479-1.294L172.398,496.397L172.398,496.397z"/>
		<path d="M186.399,501.879v-5.227h-4.822v5.227h-2.93v-12.402h2.93v4.65h4.822v-4.65h2.917v12.402H186.399z"/>
		<path d="M200.12,501.879v-7.752h-0.022l-4.896,7.752h-2.82v-12.402h2.932v7.751h0.022l4.883-7.751h2.832v12.402H200.12z"/>
		<path d="M217.088,494.725c0,0.204-0.006,0.469-0.019,0.794c-0.012,0.325-0.03,0.631-0.055,0.915h-8.154
			c0,0.546,0.083,1.025,0.25,1.441c0.167,0.412,0.403,0.762,0.708,1.043c0.306,0.279,0.672,0.492,1.099,0.641
			c0.43,0.146,0.901,0.221,1.422,0.221c0.604,0,1.247-0.047,1.937-0.141c0.688-0.094,1.399-0.246,2.142-0.458v2.368
			c-0.315,0.09-0.664,0.171-1.038,0.244c-0.375,0.071-0.757,0.139-1.146,0.193c-0.392,0.058-0.786,0.102-1.186,0.129
			c-0.397,0.027-0.784,0.042-1.158,0.042c-0.944,0-1.791-0.134-2.539-0.401c-0.749-0.27-1.386-0.664-1.904-1.189
			c-0.521-0.523-0.92-1.174-1.196-1.947c-0.275-0.771-0.415-1.668-0.415-2.686c0-1.009,0.14-1.927,0.415-2.752
			c0.276-0.826,0.667-1.535,1.172-2.125c0.504-0.59,1.117-1.045,1.837-1.367c0.723-0.321,1.524-0.482,2.411-0.482
			c0.879,0,1.656,0.139,2.332,0.41s1.241,0.652,1.697,1.143c0.456,0.486,0.801,1.068,1.038,1.746
			C216.97,493.18,217.088,493.92,217.088,494.725z M214.061,494.298c0.008-0.488-0.055-0.913-0.185-1.276
			c-0.13-0.361-0.307-0.66-0.529-0.896c-0.226-0.236-0.484-0.41-0.781-0.525c-0.297-0.113-0.617-0.17-0.958-0.17
			c-0.749,0-1.363,0.25-1.843,0.75c-0.48,0.5-0.767,1.207-0.854,2.118L214.061,494.298L214.061,494.298z"/>
		<path d="M241.38,501.879v-9.854h-4.82v9.854h-2.932v-12.402h10.669v12.402H241.38z"/>
		<path d="M258.677,495.455c0,1.143-0.161,2.125-0.482,2.955c-0.322,0.83-0.771,1.521-1.343,2.068
			c-0.574,0.549-1.251,0.957-2.033,1.221c-0.781,0.267-1.632,0.396-2.551,0.396c-0.312,0-0.619-0.021-0.93-0.063
			c-0.31-0.041-0.59-0.094-0.842-0.156v4.846h-2.979v-17.248h2.576l0.071,1.83c0.252-0.316,0.517-0.605,0.787-0.866
			c0.273-0.261,0.568-0.48,0.885-0.665c0.317-0.184,0.659-0.324,1.025-0.422s0.777-0.146,1.233-0.146
			c0.73,0,1.383,0.146,1.952,0.439c0.568,0.293,1.049,0.711,1.436,1.252c0.386,0.541,0.681,1.195,0.885,1.965
			C258.575,493.633,258.677,494.496,258.677,495.455z M255.552,495.578c0-0.684-0.051-1.266-0.146-1.744
			c-0.097-0.48-0.238-0.875-0.421-1.186c-0.183-0.31-0.407-0.535-0.671-0.678c-0.267-0.145-0.568-0.214-0.91-0.214
			c-0.505,0-0.987,0.204-1.447,0.608c-0.459,0.407-0.944,0.961-1.458,1.66v5.42c0.236,0.09,0.527,0.163,0.873,0.222
			c0.347,0.058,0.698,0.085,1.058,0.085c0.472,0,0.899-0.1,1.286-0.293c0.389-0.195,0.718-0.473,0.989-0.83
			c0.272-0.357,0.482-0.795,0.628-1.313C255.479,496.803,255.552,496.223,255.552,495.578z"/>
		<path d="M272.435,495.578c0,0.979-0.141,1.869-0.415,2.682c-0.277,0.809-0.676,1.503-1.196,2.08
			c-0.521,0.578-1.16,1.023-1.917,1.344c-0.757,0.314-1.62,0.476-2.588,0.476c-0.92,0-1.742-0.134-2.466-0.401
			c-0.727-0.27-1.339-0.669-1.845-1.201c-0.505-0.533-0.891-1.201-1.158-2.002c-0.271-0.804-0.403-1.736-0.403-2.804
			c0-0.983,0.141-1.88,0.421-2.687c0.281-0.805,0.684-1.492,1.209-2.063c0.524-0.569,1.166-1.014,1.922-1.324
			c0.757-0.313,1.611-0.473,2.563-0.473c0.928,0,1.753,0.139,2.478,0.41c0.726,0.271,1.338,0.678,1.843,1.214
			c0.504,0.537,0.891,1.202,1.154,1.995C272.302,493.619,272.435,494.536,272.435,495.578z M269.334,495.652
			c0-1.285-0.242-2.252-0.727-2.896c-0.484-0.646-1.198-0.973-2.144-0.973c-0.521,0-0.964,0.104-1.329,0.307
			c-0.366,0.203-0.667,0.48-0.903,0.836c-0.236,0.354-0.409,0.768-0.521,1.238c-0.108,0.474-0.165,0.979-0.165,1.516
			c0,1.293,0.262,2.268,0.781,2.924c0.521,0.654,1.233,0.982,2.136,0.982c0.496,0,0.93-0.102,1.294-0.301
			c0.366-0.199,0.663-0.477,0.893-0.829c0.228-0.354,0.396-0.771,0.513-1.253C269.277,496.723,269.334,496.205,269.334,495.652z"/>
		<path d="M286.534,505.004h-2.747v-3.125h-9.045v-12.402h2.93v9.898h4.614v-9.898h2.93v9.898h1.479L286.534,505.004z"/>
		<path d="M299.559,494.725c0,0.204-0.006,0.469-0.021,0.794c-0.012,0.325-0.03,0.631-0.055,0.915h-8.154
			c0,0.546,0.083,1.025,0.25,1.441c0.167,0.412,0.403,0.762,0.708,1.043c0.308,0.279,0.672,0.492,1.101,0.641
			c0.428,0.146,0.899,0.221,1.423,0.221c0.602,0,1.246-0.047,1.935-0.141c0.689-0.094,1.401-0.246,2.144-0.458v2.368
			c-0.316,0.09-0.663,0.171-1.037,0.244c-0.374,0.071-0.757,0.139-1.147,0.193c-0.39,0.058-0.785,0.102-1.185,0.129
			c-0.398,0.027-0.785,0.042-1.159,0.042c-0.944,0-1.791-0.134-2.539-0.401c-0.749-0.27-1.384-0.664-1.904-1.189
			c-0.521-0.523-0.92-1.174-1.194-1.947c-0.277-0.771-0.415-1.668-0.415-2.686c0-1.009,0.138-1.927,0.415-2.752
			c0.274-0.826,0.667-1.535,1.172-2.125c0.504-0.59,1.117-1.045,1.837-1.367c0.721-0.321,1.522-0.482,2.411-0.482
			c0.879,0,1.654,0.139,2.332,0.41c0.675,0.271,1.238,0.652,1.694,1.143c0.456,0.487,0.804,1.068,1.038,1.746
			C299.44,493.18,299.559,493.92,299.559,494.725z M296.531,494.298c0.008-0.488-0.053-0.913-0.184-1.276
			c-0.132-0.361-0.309-0.66-0.53-0.896c-0.227-0.236-0.484-0.41-0.781-0.525c-0.298-0.113-0.616-0.17-0.958-0.17
			c-0.75,0-1.364,0.25-1.844,0.75c-0.48,0.5-0.765,1.207-0.854,2.118L296.531,494.298L296.531,494.298z"/>
		<path d="M312.535,501.402c-0.586,0.236-1.19,0.411-1.819,0.525c-0.627,0.111-1.28,0.17-1.966,0.17
			c-0.982,0-1.867-0.134-2.646-0.402c-0.781-0.268-1.444-0.667-1.99-1.196c-0.545-0.526-0.962-1.185-1.251-1.966
			c-0.289-0.779-0.433-1.684-0.433-2.709c0-0.993,0.154-1.893,0.47-2.698c0.313-0.806,0.755-1.491,1.324-2.063
			c0.567-0.568,1.255-1.008,2.057-1.318c0.802-0.309,1.695-0.463,2.68-0.463c0.808,0,1.483,0.043,2.032,0.127
			c0.55,0.086,1.044,0.194,1.483,0.324v2.895c-0.505-0.254-1.054-0.447-1.644-0.588c-0.591-0.138-1.147-0.207-1.679-0.207
			c-0.554,0-1.05,0.096-1.489,0.281c-0.438,0.188-0.81,0.447-1.109,0.781c-0.303,0.334-0.53,0.738-0.689,1.215
			c-0.158,0.477-0.238,0.998-0.238,1.568c0,0.594,0.086,1.127,0.257,1.599c0.173,0.472,0.413,0.872,0.729,1.202
			c0.313,0.33,0.688,0.582,1.129,0.758c0.439,0.174,0.928,0.262,1.465,0.262c0.261,0,0.535-0.018,0.824-0.055
			c0.288-0.037,0.577-0.09,0.866-0.158s0.573-0.146,0.854-0.236c0.281-0.092,0.544-0.188,0.788-0.293L312.535,501.402
			L312.535,501.402z"/>
		<path d="M326.279,501.402c-0.586,0.236-1.191,0.411-1.818,0.525c-0.627,0.111-1.279,0.17-1.965,0.17
			c-0.983,0-1.868-0.134-2.647-0.402c-0.781-0.268-1.444-0.667-1.989-1.196c-0.546-0.526-0.963-1.185-1.252-1.966
			c-0.289-0.779-0.436-1.684-0.436-2.709c0-0.993,0.157-1.893,0.473-2.698c0.313-0.806,0.755-1.491,1.322-2.063
			c0.569-0.568,1.257-1.008,2.059-1.318c0.802-0.309,1.695-0.463,2.68-0.463c0.808,0,1.483,0.043,2.032,0.127
			c0.55,0.086,1.044,0.194,1.483,0.324v2.895c-0.507-0.254-1.054-0.447-1.644-0.588c-0.591-0.138-1.147-0.207-1.679-0.207
			c-0.554,0-1.05,0.096-1.489,0.281c-0.438,0.188-0.81,0.447-1.11,0.781c-0.302,0.334-0.529,0.738-0.688,1.215
			c-0.158,0.477-0.237,0.998-0.237,1.568c0,0.594,0.085,1.127,0.256,1.599c0.172,0.472,0.413,0.872,0.729,1.202
			c0.313,0.33,0.688,0.582,1.129,0.758c0.438,0.174,0.928,0.262,1.465,0.262c0.261,0,0.535-0.018,0.824-0.055
			c0.288-0.037,0.577-0.09,0.866-0.158s0.572-0.146,0.854-0.236c0.281-0.092,0.543-0.188,0.787-0.293L326.279,501.402
			L326.279,501.402z"/>
		<path d="M337.767,501.879l-0.073-1.624c-0.261,0.274-0.533,0.528-0.818,0.763c-0.284,0.232-0.598,0.434-0.938,0.604
			c-0.341,0.172-0.714,0.306-1.117,0.397c-0.402,0.093-0.844,0.14-1.324,0.14c-0.635,0-1.19-0.094-1.672-0.278
			c-0.479-0.188-0.884-0.447-1.209-0.781s-0.572-0.736-0.738-1.209c-0.167-0.472-0.25-0.992-0.25-1.563
			c0-0.586,0.123-1.127,0.372-1.623c0.248-0.494,0.626-0.924,1.136-1.28c0.51-0.358,1.145-0.641,1.903-0.845
			c0.761-0.201,1.654-0.305,2.681-0.305h1.623v-0.744c0-0.316-0.045-0.604-0.135-0.859c-0.09-0.258-0.232-0.476-0.434-0.652
			c-0.199-0.18-0.457-0.318-0.775-0.416c-0.314-0.098-0.707-0.146-1.172-0.146c-0.73,0-1.454,0.084-2.166,0.25
			c-0.713,0.168-1.402,0.401-2.069,0.702v-2.381c0.596-0.234,1.279-0.432,2.059-0.586s1.585-0.23,2.423-0.23
			c0.92,0,1.709,0.088,2.369,0.264c0.658,0.174,1.202,0.438,1.629,0.787c0.428,0.35,0.743,0.787,0.946,1.313
			c0.203,0.523,0.306,1.139,0.306,1.836v8.475h-2.554v-0.006H337.767z M337.34,496.397h-1.817c-0.505,0-0.934,0.049-1.282,0.146
			c-0.349,0.097-0.635,0.229-0.854,0.401c-0.222,0.17-0.382,0.367-0.481,0.592c-0.104,0.226-0.152,0.464-0.152,0.716
			c0,0.505,0.162,0.89,0.488,1.151c0.325,0.267,0.77,0.396,1.33,0.396c0.415,0,0.847-0.15,1.294-0.451s0.94-0.732,1.478-1.294
			L337.34,496.397L337.34,496.397z"/>
		<path d="M367.906,496.153h-10.498v-1.854h10.498V496.153z"/>
		<path d="M393.174,494.799c-0.057-0.578-0.195-1.115-0.421-1.611c-0.224-0.496-0.521-0.896-0.891-1.197
			c-0.371-0.301-0.82-0.516-1.349-0.646c-0.529-0.13-1.093-0.195-1.688-0.195c-0.658,0-1.293,0.065-1.904,0.195
			c-0.607,0.131-1.189,0.326-1.743,0.586v-1.904c0.603-0.211,1.227-0.368,1.874-0.471c0.646-0.104,1.313-0.152,1.994-0.152
			c1.06,0,1.987,0.141,2.789,0.416c0.803,0.276,1.471,0.684,2.002,1.215c0.532,0.532,0.936,1.188,1.202,1.967
			c0.27,0.775,0.403,1.67,0.403,2.68c0,1.049-0.141,1.977-0.422,2.783c-0.28,0.805-0.701,1.479-1.265,2.023
			c-0.562,0.546-1.243,0.951-2.052,1.215c-0.805,0.267-1.725,0.396-2.758,0.396c-0.717,0-1.386-0.045-2.009-0.134
			c-0.622-0.091-1.21-0.235-1.765-0.439v-1.966c0.577,0.277,1.175,0.479,1.787,0.604c0.614,0.125,1.243,0.188,1.889,0.188
			c1.406,0,2.465-0.329,3.174-0.989c0.707-0.658,1.104-1.619,1.195-2.881h-7.324v-1.684L393.174,494.799L393.174,494.799z"/>
		<path d="M409.617,491.451h-4.65v10.428h-2.146v-10.428h-4.651v-1.83h11.45L409.617,491.451L409.617,491.451z"/>
		<path d="M423.387,495.652c0,0.953-0.136,1.826-0.402,2.619c-0.27,0.793-0.655,1.473-1.16,2.039
			c-0.505,0.563-1.119,1.004-1.844,1.318c-0.726,0.313-1.546,0.469-2.465,0.469c-0.879,0-1.667-0.136-2.362-0.408
			c-0.696-0.273-1.286-0.674-1.771-1.203c-0.482-0.528-0.854-1.184-1.108-1.965c-0.257-0.781-0.385-1.68-0.385-2.697
			c0-0.953,0.134-1.819,0.401-2.605c0.27-0.785,0.654-1.46,1.159-2.025c0.505-0.564,1.119-1.006,1.843-1.317
			c0.727-0.313,1.547-0.472,2.468-0.472c0.88,0,1.665,0.138,2.36,0.41c0.696,0.271,1.286,0.67,1.771,1.195
			c0.481,0.523,0.854,1.178,1.109,1.959C423.26,493.746,423.387,494.645,423.387,495.652z M421.216,495.75
			c0-0.758-0.084-1.42-0.25-1.982c-0.169-0.566-0.405-1.039-0.716-1.416c-0.31-0.379-0.687-0.664-1.13-0.855
			c-0.441-0.189-0.938-0.285-1.481-0.285c-0.637,0-1.18,0.125-1.631,0.371c-0.45,0.248-0.82,0.58-1.109,0.994
			c-0.289,0.416-0.5,0.898-0.635,1.447c-0.136,0.549-0.201,1.125-0.201,1.727c0,0.76,0.083,1.423,0.25,1.99
			c0.167,0.57,0.403,1.043,0.715,1.422c0.309,0.379,0.684,0.664,1.123,0.855c0.438,0.188,0.936,0.286,1.488,0.286
			c0.635,0,1.179-0.124,1.63-0.372c0.452-0.248,0.82-0.58,1.109-0.995c0.288-0.415,0.5-0.897,0.637-1.446
			C421.146,496.941,421.216,496.361,421.216,495.75z"/>
		<path d="M443.357,491.451v10.428h-2.148v-12.258h8.875v1.83H443.357L443.357,491.451z"/>
		<path d="M464.427,495.531c0,1.09-0.152,2.043-0.458,2.855c-0.307,0.813-0.729,1.49-1.266,2.025
			c-0.536,0.537-1.172,0.939-1.902,1.208c-0.732,0.271-1.525,0.403-2.38,0.403c-0.393,0-0.779-0.021-1.166-0.062
			c-0.389-0.041-0.779-0.11-1.18-0.208v5.127h-2.124v-17.261h1.895l0.134,2.053c0.61-0.838,1.262-1.429,1.953-1.766
			c0.691-0.338,1.438-0.508,2.246-0.508c0.7,0,1.313,0.146,1.843,0.439s0.973,0.707,1.331,1.238c0.358,0.532,0.627,1.178,0.806,1.93
			C464.339,493.763,464.427,494.604,464.427,495.531z M462.256,495.629c0-0.645-0.049-1.233-0.143-1.771s-0.242-0.997-0.445-1.38
			c-0.201-0.382-0.464-0.682-0.779-0.896c-0.317-0.216-0.695-0.322-1.136-0.322c-0.271,0-0.541,0.043-0.817,0.129
			s-0.563,0.228-0.86,0.428c-0.298,0.199-0.608,0.463-0.938,0.793c-0.329,0.33-0.684,0.738-1.058,1.229v5.943
			c0.393,0.162,0.804,0.291,1.233,0.386c0.43,0.094,0.854,0.141,1.27,0.141c1.146,0,2.047-0.389,2.697-1.165
			C461.929,498.361,462.256,497.191,462.256,495.629z"/>
		<path d="M475.572,501.879l-0.049-1.648c-0.668,0.659-1.346,1.135-2.033,1.428c-0.687,0.293-1.41,0.439-2.166,0.439
			c-0.699,0-1.299-0.09-1.795-0.27s-0.904-0.426-1.227-0.736c-0.322-0.314-0.56-0.684-0.708-1.105
			c-0.151-0.423-0.228-0.883-0.228-1.379c0-1.229,0.457-2.191,1.373-2.887c0.915-0.697,2.271-1.045,4.061-1.045h2.539v-1.074
			c0-0.724-0.232-1.304-0.695-1.738c-0.465-0.436-1.172-0.654-2.125-0.654c-0.691,0-1.373,0.078-2.044,0.232
			c-0.672,0.154-1.365,0.375-2.081,0.659v-1.917c0.268-0.098,0.566-0.193,0.896-0.287c0.33-0.093,0.68-0.176,1.044-0.25
			c0.366-0.072,0.75-0.132,1.147-0.176c0.398-0.045,0.802-0.068,1.209-0.068c0.74,0,1.407,0.082,2.002,0.244
			c0.594,0.164,1.096,0.412,1.507,0.745c0.411,0.334,0.729,0.753,0.946,1.257c0.22,0.506,0.33,1.1,0.33,1.783v8.447H475.572
			L475.572,501.879z M475.342,496.3h-2.697c-0.529,0-0.985,0.054-1.367,0.159c-0.383,0.104-0.696,0.256-0.938,0.449
			c-0.244,0.195-0.428,0.432-0.544,0.701c-0.117,0.273-0.178,0.58-0.178,0.922c0,0.236,0.036,0.463,0.109,0.68
			c0.073,0.216,0.189,0.405,0.354,0.572c0.163,0.166,0.375,0.3,0.637,0.396c0.261,0.098,0.578,0.146,0.953,0.146
			c0.486,0,1.047-0.146,1.678-0.443c0.631-0.299,1.296-0.77,1.996-1.41L475.342,496.3L475.342,496.3z"/>
		<path d="M487.363,506.883h-2.002v-4.834c-1.798-0.1-3.143-0.641-4.034-1.623c-0.891-0.984-1.337-2.527-1.337-4.627
			c0-1.051,0.131-1.955,0.393-2.715c0.261-0.764,0.627-1.396,1.1-1.904c0.472-0.51,1.037-0.902,1.696-1.179
			c0.659-0.277,1.388-0.46,2.185-0.552v-4.819h2.002v4.798c0.896,0.063,1.68,0.225,2.353,0.48c0.671,0.257,1.23,0.63,1.685,1.123
			c0.451,0.492,0.791,1.118,1.021,1.879c0.228,0.764,0.342,1.677,0.342,2.74c0,1.102-0.143,2.035-0.422,2.811
			c-0.28,0.771-0.665,1.408-1.153,1.908s-1.061,0.883-1.715,1.143c-0.655,0.262-1.357,0.432-2.106,0.514v4.857H487.363
			L487.363,506.883z M485.361,491.173c-0.561,0.081-1.058,0.246-1.488,0.495c-0.432,0.246-0.775,0.573-1.036,0.98
			c-0.263,0.406-0.445,0.871-0.558,1.391c-0.107,0.521-0.164,1.074-0.164,1.66c0,0.727,0.063,1.355,0.185,1.895
			s0.313,0.994,0.58,1.373c0.264,0.379,0.6,0.678,1.007,0.896c0.406,0.218,0.897,0.366,1.477,0.439L485.361,491.173L485.361,491.173
			z M487.363,500.304c0.563-0.081,1.055-0.244,1.479-0.488c0.423-0.244,0.765-0.565,1.023-0.964c0.261-0.399,0.453-0.859,0.58-1.38
			c0.126-0.521,0.188-1.087,0.188-1.696c0-0.789-0.071-1.461-0.213-2.015c-0.145-0.556-0.354-1.013-0.629-1.374
			c-0.276-0.361-0.618-0.638-1.025-0.823s-0.875-0.317-1.404-0.391V500.304L487.363,500.304z"/>
		<path d="M497.483,489.621v8.632l5.347-8.632h2.026v12.258h-2.124v-8.633l-5.347,8.633h-2.026v-12.258H497.483z"/>
		<path d="M516.66,497.13h-2.524c-1.896,0-3.288-0.354-4.177-1.063c-0.887-0.709-1.328-1.738-1.328-3.089v-3.356h2.146v3.076
			c0,0.488,0.064,0.898,0.195,1.232c0.13,0.334,0.339,0.604,0.628,0.813c0.289,0.207,0.659,0.355,1.11,0.445
			c0.45,0.09,1,0.134,1.643,0.134h2.307v-5.7h2.125v12.258h-2.125V497.13L516.66,497.13z"/>
		<path d="M533.03,495.104c0,0.301-0.004,0.554-0.013,0.757c-0.008,0.204-0.021,0.396-0.036,0.573h-8.606
			c0,1.254,0.353,2.217,1.053,2.887c0.697,0.672,1.709,1.008,3.025,1.008c0.357,0,0.718-0.014,1.074-0.043
			c0.357-0.026,0.703-0.064,1.037-0.113c0.334-0.051,0.653-0.104,0.958-0.166c0.306-0.063,0.588-0.127,0.849-0.201v1.746
			c-0.578,0.163-1.229,0.295-1.959,0.396c-0.729,0.104-1.481,0.152-2.265,0.152c-1.05,0-1.953-0.145-2.71-0.427
			c-0.757-0.284-1.378-0.698-1.861-1.239c-0.482-0.541-0.843-1.204-1.074-1.99c-0.23-0.785-0.348-1.674-0.348-2.666
			c0-0.863,0.123-1.68,0.372-2.447c0.248-0.77,0.61-1.443,1.086-2.025c0.479-0.582,1.063-1.043,1.752-1.385
			c0.691-0.344,1.479-0.516,2.356-0.516c0.854,0,1.609,0.135,2.27,0.403s1.215,0.647,1.667,1.142
			c0.451,0.492,0.793,1.09,1.025,1.795C532.914,493.445,533.03,494.232,533.03,495.104z M530.82,494.799
			c0.025-0.545-0.026-1.045-0.158-1.496c-0.13-0.451-0.332-0.84-0.604-1.166c-0.272-0.324-0.612-0.58-1.021-0.762
			c-0.405-0.186-0.879-0.275-1.416-0.275c-0.465,0-0.888,0.09-1.27,0.269c-0.383,0.181-0.713,0.434-0.989,0.759
			c-0.275,0.324-0.501,0.717-0.671,1.172c-0.172,0.456-0.277,0.957-0.318,1.502L530.82,494.799L530.82,494.799z"/>
		<path d="M545.945,501.427c-0.554,0.212-1.121,0.368-1.703,0.47s-1.182,0.152-1.801,0.152c-1.937,0-3.428-0.524-4.474-1.574
			s-1.568-2.584-1.568-4.604c0-0.969,0.15-1.848,0.452-2.637c0.301-0.789,0.724-1.465,1.27-2.025
			c0.545-0.563,1.195-0.994,1.953-1.301c0.756-0.307,1.592-0.459,2.502-0.459c0.637,0,1.229,0.045,1.782,0.137
			c0.553,0.09,1.082,0.234,1.587,0.438v2.026c-0.529-0.276-1.066-0.479-1.617-0.604c-0.55-0.125-1.115-0.188-1.703-0.188
			c-0.545,0-1.061,0.104-1.544,0.313c-0.482,0.207-0.907,0.506-1.274,0.896c-0.365,0.391-0.654,0.867-0.866,1.428
			c-0.212,0.563-0.317,1.197-0.317,1.904c0,1.48,0.36,2.59,1.08,3.324c0.723,0.737,1.722,1.105,2.997,1.105
			c0.578,0,1.139-0.064,1.681-0.195c0.541-0.13,1.063-0.324,1.566-0.586L545.945,501.427L545.945,501.427z"/>
		<path d="M561.191,501.879h-2.917l-5.713-6.568v6.568h-2.124v-12.258h2.124v5.604l5.505-5.604h2.809l-5.75,5.651L561.191,501.879z"
			/>
		<path d="M574.584,495.652c0,0.953-0.135,1.826-0.402,2.619c-0.269,0.793-0.654,1.473-1.159,2.039
			c-0.505,0.563-1.119,1.004-1.843,1.318c-0.727,0.313-1.547,0.469-2.467,0.469c-0.881,0-1.666-0.136-2.361-0.408
			c-0.696-0.273-1.286-0.674-1.771-1.203c-0.482-0.528-0.854-1.184-1.108-1.965c-0.257-0.781-0.386-1.68-0.386-2.697
			c0-0.953,0.136-1.819,0.401-2.605c0.271-0.785,0.655-1.46,1.16-2.025c0.505-0.564,1.119-1.006,1.844-1.317
			c0.726-0.313,1.546-0.472,2.465-0.472c0.88,0,1.667,0.138,2.362,0.41c0.696,0.271,1.286,0.67,1.771,1.195
			c0.481,0.523,0.854,1.178,1.108,1.959C574.455,493.746,574.584,494.645,574.584,495.652z M572.41,495.75
			c0-0.758-0.084-1.42-0.25-1.982c-0.167-0.566-0.403-1.039-0.715-1.416c-0.309-0.379-0.686-0.664-1.129-0.855
			c-0.443-0.189-0.938-0.285-1.482-0.285c-0.635,0-1.179,0.125-1.63,0.371c-0.452,0.248-0.82,0.58-1.109,0.994
			c-0.289,0.416-0.5,0.898-0.637,1.447c-0.134,0.549-0.199,1.125-0.199,1.727c0,0.76,0.083,1.423,0.25,1.99
			c0.167,0.57,0.403,1.043,0.714,1.422c0.31,0.379,0.684,0.664,1.123,0.855c0.438,0.188,0.937,0.286,1.488,0.286
			c0.637,0,1.18-0.124,1.63-0.372c0.451-0.248,0.821-0.58,1.11-0.995c0.288-0.415,0.5-0.897,0.635-1.446
			C572.344,496.941,572.41,496.361,572.41,495.75z"/>
		<path d="M588.011,495.104c0,0.301-0.004,0.554-0.015,0.757c-0.008,0.204-0.02,0.396-0.034,0.573h-8.606
			c0,1.254,0.351,2.217,1.051,2.887c0.699,0.672,1.709,1.008,3.027,1.008c0.356,0,0.716-0.014,1.074-0.043
			c0.355-0.026,0.702-0.064,1.036-0.113c0.334-0.051,0.652-0.104,0.959-0.166c0.306-0.063,0.588-0.127,0.849-0.201v1.746
			c-0.578,0.163-1.231,0.295-1.959,0.396c-0.729,0.104-1.483,0.152-2.265,0.152c-1.052,0-1.953-0.145-2.711-0.427
			c-0.758-0.284-1.379-0.698-1.86-1.239c-0.484-0.541-0.843-1.204-1.074-1.99c-0.231-0.785-0.348-1.674-0.348-2.666
			c0-0.863,0.123-1.68,0.372-2.447c0.248-0.77,0.608-1.443,1.086-2.025c0.477-0.582,1.061-1.043,1.752-1.385
			c0.689-0.344,1.478-0.516,2.354-0.516c0.854,0,1.611,0.135,2.271,0.403s1.215,0.647,1.667,1.142
			c0.451,0.492,0.793,1.09,1.023,1.795C587.895,493.445,588.011,494.232,588.011,495.104z M585.802,494.799
			c0.023-0.545-0.028-1.045-0.158-1.496s-0.332-0.84-0.604-1.166c-0.271-0.324-0.61-0.58-1.019-0.762
			c-0.407-0.186-0.879-0.275-1.416-0.275c-0.465,0-0.888,0.09-1.271,0.269c-0.383,0.181-0.713,0.434-0.987,0.759
			c-0.276,0.324-0.501,0.717-0.671,1.172c-0.173,0.456-0.277,0.957-0.318,1.502L585.802,494.799L585.802,494.799z"/>
		<path d="M615.818,495.652c0,0.953-0.135,1.826-0.402,2.619c-0.27,0.793-0.653,1.473-1.158,2.039
			c-0.505,0.563-1.119,1.004-1.846,1.318c-0.724,0.313-1.546,0.469-2.465,0.469c-0.879,0-1.667-0.136-2.36-0.408
			c-0.696-0.273-1.286-0.674-1.771-1.203c-0.484-0.528-0.854-1.184-1.11-1.965c-0.256-0.781-0.385-1.68-0.385-2.697
			c0-0.953,0.134-1.819,0.403-2.605c0.268-0.785,0.654-1.46,1.159-2.025c0.505-0.564,1.119-1.006,1.843-1.317
			c0.725-0.313,1.547-0.472,2.467-0.472c0.879,0,1.666,0.138,2.361,0.41c0.694,0.271,1.286,0.67,1.771,1.195
			c0.483,0.523,0.854,1.178,1.11,1.959C615.69,493.746,615.818,494.645,615.818,495.652z M613.646,495.75
			c0-0.758-0.084-1.42-0.25-1.982c-0.167-0.566-0.405-1.039-0.714-1.416c-0.312-0.379-0.688-0.664-1.13-0.855
			c-0.443-0.189-0.938-0.285-1.483-0.285c-0.635,0-1.178,0.125-1.629,0.371c-0.452,0.248-0.822,0.58-1.111,0.994
			c-0.289,0.416-0.5,0.898-0.635,1.447c-0.134,0.549-0.201,1.125-0.201,1.727c0,0.76,0.083,1.423,0.25,1.99
			c0.167,0.57,0.405,1.043,0.716,1.422c0.31,0.379,0.685,0.664,1.122,0.855c0.439,0.188,0.938,0.286,1.488,0.286
			c0.635,0,1.179-0.124,1.63-0.372c0.452-0.248,0.822-0.58,1.111-0.995c0.288-0.415,0.5-0.897,0.635-1.446
			C613.578,496.941,613.646,496.361,613.646,495.75z"/>
		<path d="M629.539,491.451h-4.648v10.428h-2.148v-10.428h-4.649v-1.83h11.448L629.539,491.451L629.539,491.451z"/>
		<path d="M643.309,495.652c0,0.953-0.135,1.826-0.402,2.619c-0.27,0.793-0.653,1.473-1.159,2.039
			c-0.506,0.563-1.118,1.004-1.845,1.318c-0.724,0.313-1.546,0.469-2.465,0.469c-0.879,0-1.667-0.136-2.362-0.408
			c-0.694-0.273-1.284-0.674-1.771-1.203c-0.484-0.528-0.854-1.184-1.11-1.965c-0.257-0.781-0.385-1.68-0.385-2.697
			c0-0.953,0.134-1.819,0.403-2.605c0.268-0.785,0.652-1.46,1.159-2.025c0.505-0.564,1.117-1.006,1.843-1.317
			c0.725-0.313,1.547-0.472,2.467-0.472c0.879,0,1.666,0.138,2.361,0.41c0.694,0.271,1.286,0.67,1.771,1.195
			c0.483,0.523,0.854,1.178,1.11,1.959C643.181,493.746,643.309,494.645,643.309,495.652z M641.136,495.75
			c0-0.758-0.084-1.42-0.25-1.982c-0.167-0.566-0.405-1.039-0.714-1.416c-0.312-0.379-0.688-0.664-1.13-0.855
			c-0.443-0.189-0.938-0.285-1.483-0.285c-0.635,0-1.178,0.125-1.629,0.371c-0.452,0.248-0.822,0.58-1.111,0.994
			c-0.289,0.416-0.5,0.898-0.635,1.447c-0.134,0.549-0.201,1.125-0.201,1.727c0,0.76,0.083,1.423,0.25,1.99
			c0.167,0.57,0.405,1.043,0.715,1.422c0.311,0.379,0.686,0.664,1.123,0.855c0.439,0.188,0.938,0.286,1.488,0.286
			c0.635,0,1.179-0.124,1.63-0.372c0.452-0.248,0.822-0.58,1.111-0.995c0.288-0.415,0.5-0.897,0.635-1.446
			C641.068,496.941,641.136,496.361,641.136,495.75z"/>
		<path d="M647.984,492.394c0.569-0.798,1.204-1.394,1.904-1.788c0.699-0.395,1.488-0.592,2.367-0.592
			c0.698,0,1.345,0.127,1.936,0.385c0.59,0.256,1.099,0.637,1.525,1.141c0.428,0.507,0.761,1.125,1.001,1.861
			c0.238,0.736,0.358,1.581,0.358,2.533c0,0.896-0.141,1.721-0.421,2.479c-0.281,0.758-0.676,1.408-1.185,1.953
			s-1.115,0.973-1.818,1.275c-0.704,0.305-1.479,0.457-2.326,0.457c-0.887,0-1.666-0.152-2.337-0.457
			c-0.672-0.305-1.229-0.773-1.679-1.404s-0.785-1.428-1.014-2.393c-0.229-0.965-0.344-2.109-0.344-3.438
			c0-1.628,0.141-3.012,0.416-4.148c0.276-1.142,0.681-2.086,1.208-2.838c0.529-0.756,1.184-1.342,1.959-1.76
			c0.777-0.42,1.667-0.723,2.667-0.908c0.293-0.059,0.603-0.104,0.924-0.143c0.319-0.037,0.641-0.072,0.959-0.107
			c0.314-0.037,0.621-0.071,0.914-0.104s0.555-0.074,0.78-0.123v1.953c-0.163,0.041-0.348,0.074-0.556,0.098
			c-0.207,0.025-0.427,0.05-0.659,0.074c-0.231,0.023-0.472,0.049-0.72,0.072c-0.249,0.023-0.486,0.054-0.715,0.086
			c-0.951,0.122-1.732,0.322-2.346,0.598c-0.607,0.277-1.103,0.654-1.477,1.129c-0.374,0.479-0.659,1.057-0.854,1.734
			C648.262,490.698,648.105,491.49,647.984,492.394z M654.905,496.007c0-0.708-0.079-1.325-0.236-1.851
			c-0.158-0.524-0.37-0.963-0.637-1.313c-0.265-0.352-0.565-0.611-0.909-0.781c-0.342-0.172-0.698-0.257-1.072-0.257
			c-0.383,0-0.734,0.056-1.058,0.165c-0.32,0.107-0.637,0.271-0.944,0.488c-0.312,0.215-0.618,0.488-0.93,0.822
			c-0.31,0.334-0.639,0.74-0.986,1.223v0.229c0,1.106,0.085,2.019,0.256,2.729c0.171,0.713,0.4,1.274,0.695,1.689
			c0.293,0.415,0.642,0.706,1.044,0.873c0.401,0.166,0.845,0.25,1.323,0.25c0.569,0,1.069-0.12,1.501-0.357
			c0.434-0.24,0.791-0.561,1.08-0.953c0.289-0.396,0.508-0.85,0.653-1.361C654.832,497.094,654.905,496.561,654.905,496.007z"/>
		<path d="M670.604,495.531c0,1.09-0.152,2.043-0.458,2.855c-0.305,0.813-0.726,1.49-1.263,2.025
			c-0.537,0.537-1.172,0.939-1.904,1.208c-0.732,0.271-1.526,0.403-2.381,0.403c-0.393,0-0.779-0.021-1.166-0.062
			s-0.779-0.11-1.178-0.208v5.127h-2.124v-17.261h1.892l0.135,2.053c0.61-0.838,1.264-1.429,1.953-1.766
			c0.691-0.338,1.44-0.508,2.246-0.508c0.7,0,1.314,0.146,1.844,0.439c0.528,0.293,0.974,0.707,1.33,1.238
			c0.358,0.532,0.627,1.178,0.808,1.93C670.514,493.763,670.604,494.604,670.604,495.531z M668.431,495.629
			c0-0.645-0.047-1.233-0.141-1.771c-0.096-0.538-0.242-0.997-0.445-1.38c-0.203-0.382-0.464-0.682-0.781-0.896
			c-0.317-0.216-0.696-0.322-1.136-0.322c-0.27,0-0.541,0.043-0.817,0.129c-0.274,0.086-0.563,0.228-0.858,0.428
			c-0.3,0.199-0.61,0.463-0.94,0.793c-0.329,0.33-0.682,0.738-1.056,1.229v5.943c0.391,0.162,0.802,0.291,1.23,0.386
			c0.434,0.094,0.855,0.141,1.271,0.141c1.146,0,2.047-0.389,2.696-1.165C668.105,498.361,668.431,497.191,668.431,495.629z"/>
		<path d="M681.748,501.879l-0.049-1.648c-0.667,0.659-1.345,1.135-2.031,1.428c-0.688,0.293-1.408,0.439-2.168,0.439
			c-0.697,0-1.298-0.09-1.794-0.27c-0.495-0.18-0.903-0.426-1.227-0.736c-0.322-0.314-0.558-0.684-0.708-1.105
			c-0.151-0.423-0.227-0.883-0.227-1.379c0-1.229,0.457-2.191,1.373-2.887c0.915-0.697,2.27-1.045,4.06-1.045h2.539v-1.074
			c0-0.724-0.231-1.304-0.696-1.738c-0.463-0.436-1.172-0.654-2.123-0.654c-0.69,0-1.374,0.078-2.045,0.232
			c-0.672,0.154-1.365,0.375-2.082,0.659v-1.917c0.271-0.098,0.568-0.193,0.897-0.287c0.33-0.093,0.678-0.176,1.044-0.25
			c0.366-0.072,0.749-0.132,1.146-0.176c0.398-0.045,0.804-0.068,1.208-0.068c0.741,0,1.408,0.082,2.002,0.244
			c0.597,0.164,1.099,0.412,1.51,0.745c0.409,0.334,0.727,0.753,0.944,1.257c0.222,0.506,0.329,1.1,0.329,1.783v8.447H681.748
			L681.748,501.879z M681.517,496.3h-2.698c-0.528,0-0.982,0.054-1.367,0.159c-0.382,0.104-0.693,0.256-0.938,0.449
			c-0.244,0.195-0.426,0.432-0.543,0.701c-0.118,0.273-0.178,0.58-0.178,0.922c0,0.236,0.035,0.463,0.108,0.68
			c0.073,0.216,0.191,0.405,0.354,0.572c0.161,0.166,0.374,0.3,0.635,0.396c0.26,0.098,0.577,0.146,0.951,0.146
			c0.486,0,1.048-0.146,1.679-0.443c0.631-0.299,1.296-0.77,1.996-1.41V496.3L681.517,496.3z"/>
		<path d="M685.74,489.621h2.102l3.723,5.908v-5.908h1.953v5.908l3.724-5.908h2.102l-3.942,5.908l4.04,6.35h-2.319l-3.602-6.229
			v6.229h-1.953v-6.229l-3.601,6.229h-2.319l4.053-6.35L685.74,489.621z"/>
		<path d="M711.719,495.104c0,0.301-0.004,0.554-0.014,0.757c-0.009,0.204-0.021,0.396-0.036,0.573h-8.604
			c0,1.254,0.35,2.217,1.049,2.887c0.7,0.672,1.709,1.008,3.027,1.008c0.356,0,0.717-0.014,1.074-0.043
			c0.356-0.026,0.703-0.064,1.038-0.113c0.334-0.051,0.651-0.104,0.956-0.166c0.308-0.063,0.59-0.127,0.851-0.201v1.746
			c-0.578,0.163-1.231,0.295-1.959,0.396c-0.729,0.104-1.483,0.152-2.267,0.152c-1.05,0-1.951-0.145-2.71-0.427
			c-0.757-0.284-1.378-0.698-1.859-1.239c-0.484-0.541-0.844-1.204-1.074-1.99c-0.231-0.785-0.349-1.674-0.349-2.666
			c0-0.863,0.124-1.68,0.373-2.447c0.247-0.77,0.608-1.443,1.086-2.025c0.477-0.582,1.061-1.043,1.752-1.385
			c0.689-0.344,1.477-0.516,2.354-0.516c0.855,0,1.611,0.135,2.271,0.403c0.658,0.269,1.214,0.647,1.666,1.142
			c0.451,0.492,0.793,1.09,1.023,1.795C711.601,493.445,711.719,494.232,711.719,495.104z M709.51,494.799
			c0.021-0.545-0.029-1.045-0.159-1.496s-0.332-0.84-0.604-1.166c-0.271-0.324-0.61-0.58-1.02-0.762
			c-0.406-0.186-0.879-0.275-1.416-0.275c-0.463,0-0.887,0.09-1.271,0.269c-0.382,0.181-0.712,0.434-0.986,0.759
			c-0.276,0.324-0.5,0.717-0.672,1.172c-0.172,0.456-0.276,0.957-0.316,1.502L709.51,494.799L709.51,494.799z"/>
		<path d="M724.963,501.879h-2.123v-5.42h-5.604v5.42h-2.124v-12.258h2.124v4.98h5.604v-4.98h2.123V501.879z"/>
		<path d="M731.15,489.621v8.632l5.347-8.632h2.026v12.258h-2.124v-8.633l-5.347,8.633h-2.026v-12.258H731.15z"/>
		<path d="M752.952,495.104c0,0.301-0.004,0.554-0.013,0.757c-0.008,0.204-0.02,0.396-0.036,0.573h-8.604
			c0,1.254,0.351,2.217,1.051,2.887c0.699,0.672,1.709,1.008,3.026,1.008c0.356,0,0.717-0.014,1.073-0.043
			c0.357-0.026,0.703-0.064,1.037-0.113c0.334-0.051,0.653-0.104,0.958-0.166c0.307-0.063,0.588-0.127,0.85-0.201v1.746
			c-0.577,0.163-1.23,0.295-1.959,0.396c-0.729,0.104-1.482,0.152-2.266,0.152c-1.05,0-1.953-0.145-2.71-0.427
			c-0.757-0.284-1.378-0.698-1.861-1.239c-0.482-0.541-0.843-1.204-1.072-1.99c-0.232-0.785-0.35-1.674-0.35-2.666
			c0-0.863,0.123-1.68,0.372-2.447c0.248-0.77,0.61-1.443,1.086-2.025c0.479-0.582,1.063-1.043,1.752-1.385
			c0.691-0.344,1.479-0.516,2.356-0.516c0.854,0,1.611,0.135,2.27,0.403c0.66,0.269,1.217,0.647,1.667,1.142
			c0.451,0.492,0.794,1.09,1.025,1.795C752.838,493.445,752.952,494.232,752.952,495.104z M750.742,494.799
			c0.025-0.545-0.026-1.045-0.158-1.496c-0.13-0.451-0.33-0.84-0.604-1.166c-0.271-0.324-0.612-0.58-1.019-0.762
			c-0.407-0.186-0.881-0.275-1.416-0.275c-0.467,0-0.89,0.09-1.271,0.269c-0.383,0.181-0.713,0.434-0.989,0.759
			c-0.274,0.324-0.501,0.717-0.671,1.172c-0.172,0.456-0.275,0.957-0.316,1.502L750.742,494.799L750.742,494.799z"/>
		<path d="M769.236,489.621h1.953v10.512h2.844v-10.512h1.953v10.512h2.845v-10.512h1.953v12.258h-11.548V489.621z"/>
		<path d="M791.709,501.879l-0.049-1.648c-0.667,0.659-1.345,1.135-2.03,1.428c-0.688,0.293-1.409,0.439-2.167,0.439
			c-0.699,0-1.3-0.09-1.795-0.27s-0.904-0.426-1.228-0.736c-0.322-0.314-0.558-0.684-0.708-1.105
			c-0.151-0.423-0.227-0.883-0.227-1.379c0-1.229,0.458-2.191,1.374-2.887c0.915-0.697,2.269-1.045,4.059-1.045h2.539v-1.074
			c0-0.724-0.231-1.304-0.696-1.738c-0.463-0.436-1.172-0.654-2.123-0.654c-0.69,0-1.374,0.078-2.045,0.232
			c-0.672,0.154-1.363,0.375-2.082,0.659v-1.917c0.271-0.098,0.568-0.193,0.897-0.287c0.33-0.093,0.678-0.176,1.044-0.25
			c0.366-0.072,0.749-0.132,1.146-0.176c0.398-0.045,0.804-0.068,1.208-0.068c0.741,0,1.408,0.082,2.003,0.244
			c0.596,0.164,1.098,0.412,1.509,0.745c0.41,0.334,0.727,0.753,0.944,1.257c0.222,0.506,0.329,1.1,0.329,1.783v8.447H791.709
			L791.709,501.879z M791.478,496.3h-2.698c-0.526,0-0.982,0.054-1.367,0.159c-0.382,0.104-0.693,0.256-0.938,0.449
			c-0.244,0.195-0.426,0.432-0.543,0.701c-0.118,0.273-0.178,0.58-0.178,0.922c0,0.236,0.036,0.463,0.108,0.68
			c0.073,0.216,0.191,0.405,0.354,0.572c0.162,0.166,0.374,0.3,0.635,0.396c0.26,0.098,0.577,0.146,0.951,0.146
			c0.487,0,1.048-0.146,1.679-0.443c0.631-0.299,1.296-0.77,1.996-1.41V496.3L791.478,496.3z"/>
		<path d="M800.73,491.451v10.428h-2.148v-12.258h8.875v1.83H800.73L800.73,491.451z"/>
		<path d="M821.995,495.652c0,0.953-0.134,1.826-0.401,2.619c-0.269,0.793-0.654,1.473-1.159,2.039
			c-0.505,0.563-1.119,1.004-1.843,1.318c-0.727,0.313-1.548,0.469-2.469,0.469c-0.879,0-1.666-0.136-2.359-0.408
			c-0.696-0.273-1.286-0.674-1.771-1.203c-0.482-0.528-0.854-1.184-1.108-1.965c-0.259-0.781-0.387-1.68-0.387-2.697
			c0-0.953,0.137-1.819,0.402-2.605c0.271-0.785,0.655-1.46,1.16-2.025c0.505-0.564,1.119-1.006,1.844-1.317
			c0.724-0.313,1.546-0.472,2.465-0.472c0.879,0,1.667,0.138,2.362,0.41c0.696,0.271,1.286,0.67,1.771,1.195
			c0.482,0.523,0.854,1.178,1.109,1.959C821.867,493.746,821.995,494.645,821.995,495.652z M819.822,495.75
			c0-0.758-0.084-1.42-0.25-1.982c-0.167-0.566-0.403-1.039-0.715-1.416c-0.309-0.379-0.686-0.664-1.129-0.855
			c-0.443-0.189-0.938-0.285-1.482-0.285c-0.635,0-1.179,0.125-1.63,0.371c-0.452,0.248-0.82,0.58-1.109,0.994
			c-0.289,0.416-0.5,0.898-0.637,1.447c-0.134,0.549-0.199,1.125-0.199,1.727c0,0.76,0.081,1.423,0.25,1.99
			c0.166,0.57,0.403,1.043,0.714,1.422c0.31,0.379,0.684,0.664,1.123,0.855c0.438,0.188,0.937,0.286,1.488,0.286
			c0.637,0,1.18-0.124,1.629-0.372c0.452-0.248,0.822-0.58,1.111-0.995c0.288-0.415,0.5-0.897,0.635-1.446
			C819.757,496.941,819.822,496.361,819.822,495.75z"/>
		<path d="M835.594,498.302c0,0.562-0.118,1.074-0.354,1.538c-0.234,0.464-0.603,0.859-1.1,1.188
			c-0.496,0.33-1.125,0.586-1.886,0.771c-0.763,0.184-1.666,0.273-2.718,0.273c-0.689,0-1.428-0.025-2.209-0.08
			c-0.779-0.053-1.532-0.123-2.259-0.213v-12.098c0.767-0.09,1.54-0.158,2.325-0.207s1.634-0.074,2.545-0.074
			c1.652,0,2.907,0.271,3.769,0.813c0.856,0.541,1.288,1.318,1.288,2.338c0,0.689-0.2,1.285-0.601,1.78
			c-0.396,0.496-1.001,0.862-1.807,1.101c0.391,0.063,0.767,0.172,1.129,0.322c0.362,0.149,0.682,0.347,0.958,0.586
			c0.275,0.238,0.499,0.521,0.666,0.85C835.51,497.517,835.594,497.887,835.594,498.302z M832.822,492.979
			c0-0.284-0.057-0.541-0.17-0.769c-0.114-0.229-0.296-0.426-0.544-0.588c-0.248-0.161-0.573-0.285-0.977-0.372
			c-0.402-0.087-0.891-0.129-1.458-0.129c-0.516,0-0.961,0.013-1.346,0.03c-0.382,0.021-0.761,0.055-1.135,0.104v3.541h2.466
			C831.769,494.799,832.822,494.192,832.822,492.979z M833.348,498.351c0-0.635-0.287-1.112-0.86-1.435
			c-0.574-0.321-1.467-0.482-2.68-0.482h-2.612v3.748c0.398,0.063,0.793,0.109,1.186,0.135c0.391,0.023,0.839,0.036,1.344,0.036
			c0.724,0,1.319-0.049,1.788-0.146c0.468-0.1,0.838-0.235,1.109-0.415c0.271-0.181,0.463-0.393,0.567-0.637
			C833.297,498.91,833.348,498.644,833.348,498.351z"/>
		<path d="M839.769,504.381c0.415,0.016,0.817-0.021,1.208-0.109c0.391-0.09,0.734-0.223,1.032-0.396
			c0.297-0.178,0.535-0.396,0.714-0.654s0.269-0.559,0.269-0.893c0-0.342-0.06-0.616-0.177-0.828
			c-0.118-0.213-0.25-0.406-0.396-0.588c-0.146-0.179-0.279-0.368-0.397-0.572c-0.118-0.203-0.177-0.478-0.177-0.817
			c0-0.171,0.031-0.35,0.098-0.537c0.065-0.187,0.165-0.356,0.299-0.513c0.137-0.154,0.308-0.281,0.515-0.379
			c0.208-0.1,0.452-0.146,0.737-0.146c0.284,0,0.561,0.062,0.823,0.18c0.265,0.115,0.496,0.299,0.696,0.543
			c0.199,0.243,0.355,0.549,0.476,0.916c0.118,0.363,0.177,0.797,0.177,1.293c0,0.676-0.123,1.322-0.37,1.945
			c-0.248,0.623-0.618,1.176-1.11,1.654c-0.493,0.48-1.107,0.862-1.844,1.147c-0.736,0.282-1.595,0.427-2.569,0.427v-1.673H839.769z
			"/>
		<path d="M114.647,531.879h-2.102l-0.315-7.654l-0.134-2.723l-0.722,1.902l-2.295,5.566h-1.55l-2.209-5.348l-0.769-2.125
			l-0.1,2.883l-0.33,7.495h-2.024l0.779-12.257h2.82l2.1,5.285l0.574,1.574l0.574-1.574l2.148-5.285h2.781L114.647,531.879z"/>
		<path d="M127.55,525.104c0,0.301-0.004,0.554-0.012,0.757c-0.008,0.204-0.021,0.396-0.037,0.573h-8.604
			c0,1.254,0.35,2.217,1.05,2.887c0.7,0.672,1.709,1.008,3.027,1.008c0.356,0,0.716-0.014,1.072-0.043
			c0.358-0.026,0.704-0.064,1.038-0.113c0.333-0.051,0.653-0.104,0.958-0.166c0.308-0.063,0.588-0.127,0.851-0.201v1.746
			c-0.578,0.163-1.231,0.295-1.959,0.396c-0.729,0.104-1.483,0.152-2.267,0.152c-1.05,0-1.953-0.145-2.71-0.427
			c-0.757-0.284-1.377-0.698-1.859-1.239c-0.484-0.541-0.845-1.204-1.074-1.99c-0.232-0.785-0.35-1.674-0.35-2.666
			c0-0.863,0.124-1.68,0.373-2.447c0.248-0.77,0.61-1.443,1.086-2.025c0.479-0.582,1.062-1.043,1.754-1.387
			c0.689-0.342,1.477-0.514,2.354-0.514c0.854,0,1.611,0.135,2.271,0.403c0.658,0.268,1.214,0.647,1.667,1.142
			c0.449,0.492,0.793,1.09,1.023,1.795C127.434,523.445,127.55,524.232,127.55,525.104z M125.34,524.799
			c0.024-0.545-0.027-1.045-0.157-1.496c-0.132-0.451-0.332-0.84-0.604-1.166c-0.271-0.324-0.612-0.58-1.019-0.762
			c-0.407-0.186-0.879-0.275-1.416-0.275c-0.464,0-0.889,0.09-1.271,0.269c-0.383,0.181-0.712,0.434-0.989,0.757
			c-0.275,0.326-0.5,0.719-0.671,1.174c-0.171,0.456-0.275,0.957-0.315,1.502L125.34,524.799L125.34,524.799z"/>
		<path d="M141.417,525.531c0,1.09-0.15,2.043-0.458,2.855c-0.305,0.813-0.726,1.489-1.263,2.025
			c-0.537,0.537-1.172,0.939-1.904,1.208c-0.73,0.271-1.524,0.403-2.38,0.403c-0.391,0-0.779-0.021-1.166-0.062
			c-0.386-0.041-0.779-0.11-1.178-0.208v5.127h-2.124v-17.261h1.892l0.136,2.053c0.608-0.838,1.261-1.429,1.951-1.766
			c0.691-0.338,1.44-0.508,2.246-0.508c0.7,0,1.314,0.146,1.845,0.439c0.527,0.293,0.972,0.707,1.331,1.238
			c0.356,0.532,0.626,1.178,0.806,1.93C141.327,523.763,141.417,524.604,141.417,525.531z M139.244,525.629
			c0-0.645-0.047-1.233-0.141-1.771c-0.095-0.537-0.242-0.997-0.445-1.38c-0.204-0.382-0.464-0.682-0.781-0.896
			c-0.315-0.218-0.694-0.324-1.135-0.324c-0.269,0-0.542,0.043-0.818,0.129c-0.275,0.086-0.563,0.228-0.858,0.428
			c-0.297,0.199-0.61,0.463-0.94,0.793c-0.329,0.33-0.682,0.738-1.056,1.229v5.943c0.391,0.162,0.801,0.291,1.231,0.387
			c0.433,0.093,0.854,0.14,1.271,0.14c1.146,0,2.046-0.389,2.698-1.165C138.918,528.361,139.244,527.191,139.244,525.629z"/>
		<path d="M155.357,525.652c0,0.953-0.134,1.826-0.403,2.619c-0.269,0.793-0.655,1.473-1.16,2.039
			c-0.505,0.563-1.119,1.004-1.843,1.318c-0.725,0.313-1.546,0.469-2.466,0.469c-0.879,0-1.667-0.136-2.362-0.408
			c-0.696-0.273-1.286-0.674-1.771-1.203c-0.484-0.528-0.854-1.184-1.11-1.965c-0.257-0.781-0.385-1.68-0.385-2.697
			c0-0.953,0.134-1.821,0.401-2.605c0.271-0.785,0.655-1.46,1.16-2.025c0.504-0.566,1.119-1.006,1.845-1.318
			c0.724-0.313,1.546-0.471,2.466-0.471c0.879,0,1.667,0.137,2.36,0.41c0.696,0.271,1.286,0.67,1.771,1.195
			c0.484,0.523,0.854,1.178,1.11,1.959C155.229,523.746,155.357,524.645,155.357,525.652z M153.185,525.75
			c0-0.758-0.083-1.42-0.25-1.982c-0.167-0.566-0.405-1.039-0.714-1.416c-0.312-0.379-0.688-0.664-1.131-0.855
			c-0.441-0.189-0.938-0.285-1.481-0.285c-0.635,0-1.178,0.125-1.629,0.371c-0.452,0.248-0.822,0.58-1.111,0.994
			c-0.289,0.416-0.5,0.898-0.635,1.447c-0.134,0.549-0.201,1.125-0.201,1.729c0,0.758,0.083,1.421,0.25,1.988
			c0.167,0.57,0.405,1.043,0.714,1.422c0.311,0.381,0.686,0.664,1.123,0.855c0.439,0.189,0.938,0.286,1.489,0.286
			c0.635,0,1.178-0.124,1.629-0.372c0.452-0.248,0.822-0.58,1.111-0.995s0.5-0.896,0.635-1.446
			C153.117,526.941,153.185,526.361,153.185,525.75z"/>
		<path d="M168.285,531.879h-2.124v-10.4h-5.603v10.4h-2.124v-12.256h9.851V531.879L168.285,531.879z"/>
		<path d="M182.652,525.531c0,1.09-0.152,2.043-0.458,2.855c-0.305,0.813-0.726,1.489-1.263,2.025
			c-0.537,0.537-1.174,0.939-1.904,1.208c-0.732,0.271-1.526,0.403-2.38,0.403c-0.393,0-0.779-0.021-1.166-0.062
			c-0.386-0.041-0.779-0.11-1.178-0.208v5.127h-2.124v-17.261h1.892l0.134,2.053c0.61-0.838,1.261-1.429,1.953-1.766
			c0.691-0.338,1.44-0.508,2.246-0.508c0.7,0,1.314,0.146,1.843,0.439c0.529,0.293,0.974,0.707,1.331,1.238
			c0.358,0.532,0.626,1.178,0.806,1.93C182.563,523.763,182.652,524.604,182.652,525.531z M180.479,525.629
			c0-0.645-0.047-1.233-0.143-1.771c-0.093-0.537-0.24-0.997-0.443-1.38c-0.204-0.382-0.464-0.682-0.781-0.896
			c-0.317-0.218-0.696-0.324-1.135-0.324c-0.271,0-0.542,0.043-0.818,0.129c-0.277,0.086-0.563,0.228-0.86,0.428
			c-0.297,0.199-0.608,0.463-0.938,0.793c-0.329,0.33-0.682,0.738-1.056,1.229v5.943c0.391,0.162,0.801,0.291,1.231,0.387
			c0.431,0.093,0.854,0.14,1.271,0.14c1.146,0,2.046-0.389,2.696-1.165C180.154,528.361,180.479,527.191,180.479,525.629z"/>
		<path d="M188.219,519.621v8.632l5.347-8.632h2.024v12.258h-2.123v-8.633l-5.348,8.633h-2.024v-12.258H188.219z"/>
		<path d="M200.438,528.338c0.269-0.568,0.563-1,0.885-1.293c0.321-0.293,0.726-0.488,1.214-0.586
			c-0.513-0.1-0.936-0.259-1.27-0.479s-0.602-0.475-0.799-0.764c-0.2-0.288-0.34-0.598-0.415-0.921
			c-0.078-0.325-0.116-0.647-0.116-0.966c0-0.535,0.089-1.041,0.269-1.514c0.181-0.473,0.468-0.883,0.867-1.232
			c0.398-0.351,0.921-0.625,1.569-0.829c0.646-0.203,1.57-0.308,2.775-0.308c0.677,0,1.345,0.023,2.002,0.068
			c0.659,0.044,1.308,0.1,1.941,0.164v12.194h-2.124v-4.749h-1.843c-0.285,0-0.576,0.025-0.873,0.078
			c-0.297,0.055-0.568,0.15-0.813,0.294c-0.244,0.144-0.466,0.327-0.666,0.557c-0.197,0.228-0.376,0.517-0.529,0.866l-1.345,2.955
			h-2.403L200.438,528.338z M202.11,523.309c0,0.701,0.238,1.226,0.714,1.575c0.479,0.351,1.182,0.522,2.118,0.522h2.295v-4.102
			c-0.35-0.031-0.688-0.059-1.013-0.072c-0.326-0.017-0.667-0.023-1.025-0.023c-0.7,0-1.233,0.047-1.599,0.141
			c-0.366,0.094-0.655,0.229-0.867,0.402c-0.212,0.176-0.368,0.39-0.47,0.642C202.161,522.646,202.11,522.949,202.11,523.309z"/>
		<path d="M224.059,521.451h-4.651v10.428h-2.146v-10.428h-4.651v-1.83h11.45L224.059,521.451L224.059,521.451z"/>
		<path d="M229.454,519.621v8.632l5.347-8.632h2.026v12.258h-2.124v-8.633l-5.347,8.633h-2.026v-12.258H229.454z"/>
		<path d="M243.199,519.621v8.632l5.347-8.632h2.026v12.258h-2.124v-8.633l-5.347,8.633h-2.026v-12.258H243.199z M249.571,514.898
			c0,0.48-0.092,0.908-0.274,1.281c-0.184,0.375-0.438,0.692-0.77,0.959c-0.329,0.264-0.728,0.466-1.19,0.604
			c-0.464,0.141-0.977,0.208-1.538,0.208c-0.649,0-1.208-0.067-1.672-0.208c-0.464-0.138-0.844-0.34-1.142-0.604
			c-0.297-0.267-0.515-0.584-0.653-0.959c-0.139-0.373-0.208-0.801-0.208-1.281h1.931c0,0.236,0.026,0.456,0.085,0.659
			c0.057,0.204,0.151,0.384,0.285,0.544c0.137,0.158,0.315,0.282,0.545,0.371c0.228,0.09,0.513,0.135,0.854,0.135
			c0.35,0,0.641-0.045,0.873-0.135c0.232-0.089,0.417-0.213,0.556-0.371c0.14-0.16,0.236-0.34,0.293-0.544
			c0.059-0.203,0.085-0.423,0.085-0.659H249.571z"/>
		<path d="M270.689,519.621v8.632l5.347-8.632h2.026v12.258h-2.124v-8.633l-5.349,8.633h-2.024v-12.258H270.689z"/>
		<path d="M306.554,525.652c0,0.953-0.136,1.826-0.403,2.619c-0.269,0.793-0.654,1.473-1.159,2.039
			c-0.505,0.563-1.119,1.004-1.843,1.318c-0.727,0.313-1.547,0.469-2.467,0.469c-0.879,0-1.666-0.136-2.361-0.408
			c-0.696-0.273-1.286-0.674-1.771-1.203c-0.482-0.528-0.854-1.184-1.108-1.965c-0.257-0.781-0.385-1.68-0.385-2.697
			c0-0.953,0.135-1.821,0.4-2.605c0.271-0.785,0.655-1.46,1.16-2.025c0.505-0.566,1.119-1.006,1.844-1.318
			c0.726-0.312,1.546-0.471,2.465-0.471c0.881,0,1.667,0.137,2.362,0.41c0.696,0.271,1.286,0.67,1.771,1.195
			c0.481,0.523,0.854,1.178,1.108,1.959C306.426,523.746,306.554,524.645,306.554,525.652z M304.381,525.75
			c0-0.758-0.084-1.42-0.25-1.982c-0.167-0.566-0.403-1.039-0.715-1.416c-0.309-0.379-0.686-0.664-1.129-0.855
			c-0.441-0.189-0.938-0.285-1.48-0.285c-0.637,0-1.181,0.125-1.632,0.371c-0.45,0.248-0.82,0.58-1.109,0.994
			c-0.289,0.416-0.5,0.898-0.635,1.447c-0.136,0.549-0.201,1.125-0.201,1.729c0,0.758,0.083,1.421,0.25,1.988
			c0.167,0.57,0.403,1.043,0.714,1.422c0.31,0.381,0.684,0.664,1.123,0.855c0.438,0.189,0.937,0.286,1.49,0.286
			c0.635,0,1.178-0.124,1.629-0.372c0.452-0.248,0.82-0.58,1.109-0.995c0.288-0.415,0.5-0.896,0.637-1.446
			C304.313,526.941,304.381,526.361,304.381,525.75z"/>
		<path d="M319.48,531.879h-2.123v-10.4h-5.604v10.4h-2.124v-12.256h9.853L319.48,531.879L319.48,531.879z"/>
		<path d="M333.727,525.104c0,0.301-0.004,0.554-0.014,0.757c-0.009,0.204-0.021,0.396-0.035,0.573h-8.605
			c0,1.254,0.35,2.217,1.049,2.887c0.7,0.672,1.709,1.008,3.027,1.008c0.356,0,0.717-0.014,1.074-0.043
			c0.356-0.026,0.704-0.064,1.038-0.113c0.334-0.051,0.651-0.104,0.958-0.166c0.306-0.063,0.588-0.127,0.849-0.201v1.746
			c-0.578,0.163-1.231,0.295-1.959,0.396c-0.729,0.104-1.483,0.152-2.266,0.152c-1.051,0-1.952-0.145-2.711-0.427
			c-0.757-0.284-1.378-0.698-1.859-1.239c-0.484-0.541-0.843-1.204-1.074-1.99c-0.232-0.785-0.349-1.674-0.349-2.666
			c0-0.863,0.124-1.68,0.373-2.447c0.248-0.77,0.608-1.443,1.086-2.025c0.477-0.582,1.061-1.043,1.752-1.387
			c0.689-0.342,1.477-0.514,2.354-0.514c0.855,0,1.611,0.135,2.271,0.403c0.657,0.269,1.214,0.647,1.666,1.142
			c0.45,0.492,0.793,1.09,1.023,1.795C333.61,523.445,333.727,524.232,333.727,525.104z M331.518,524.799
			c0.021-0.545-0.029-1.045-0.159-1.496s-0.332-0.84-0.604-1.166c-0.271-0.324-0.61-0.58-1.02-0.762
			c-0.406-0.186-0.879-0.275-1.416-0.275c-0.463,0-0.887,0.09-1.271,0.269c-0.382,0.181-0.712,0.434-0.986,0.757
			c-0.276,0.326-0.5,0.719-0.672,1.174c-0.17,0.456-0.276,0.957-0.316,1.502L331.518,524.799L331.518,524.799z"/>
		<path d="M347.594,525.531c0,1.09-0.152,2.043-0.458,2.855c-0.307,0.813-0.728,1.489-1.265,2.025
			c-0.537,0.537-1.172,0.939-1.903,1.208c-0.731,0.271-1.525,0.403-2.382,0.403c-0.391,0-0.777-0.021-1.166-0.062
			c-0.387-0.041-0.777-0.11-1.178-0.208v5.127h-2.124v-17.261h1.894l0.135,2.053c0.608-0.838,1.262-1.429,1.953-1.766
			c0.689-0.338,1.438-0.508,2.246-0.508c0.698,0,1.313,0.146,1.844,0.439c0.528,0.293,0.972,0.707,1.33,1.238
			c0.356,0.532,0.627,1.178,0.806,1.93C347.504,523.763,347.594,524.604,347.594,525.531z M345.421,525.629
			c0-0.645-0.047-1.233-0.141-1.771s-0.242-0.997-0.445-1.38c-0.203-0.382-0.464-0.682-0.779-0.896
			c-0.317-0.218-0.696-0.324-1.138-0.324c-0.268,0-0.541,0.043-0.815,0.129c-0.276,0.086-0.563,0.228-0.86,0.428
			c-0.298,0.199-0.61,0.463-0.938,0.793c-0.329,0.33-0.684,0.738-1.058,1.229v5.943c0.393,0.162,0.802,0.291,1.232,0.387
			c0.432,0.093,0.854,0.14,1.27,0.14c1.148,0,2.047-0.389,2.698-1.165C345.096,528.361,345.421,527.191,345.421,525.629z"/>
		<path d="M358.738,531.879l-0.049-1.648c-0.667,0.659-1.345,1.135-2.032,1.428c-0.687,0.293-1.409,0.439-2.167,0.439
			c-0.699,0-1.298-0.09-1.794-0.27s-0.905-0.426-1.227-0.736c-0.322-0.314-0.56-0.684-0.708-1.105
			c-0.151-0.423-0.229-0.883-0.229-1.379c0-1.229,0.458-2.189,1.374-2.887c0.915-0.697,2.27-1.045,4.059-1.045h2.539v-1.074
			c0-0.724-0.229-1.304-0.694-1.738c-0.463-0.436-1.172-0.652-2.123-0.652c-0.692,0-1.374,0.076-2.045,0.23
			c-0.672,0.154-1.365,0.375-2.082,0.659v-1.917c0.27-0.098,0.566-0.193,0.896-0.287c0.33-0.093,0.678-0.176,1.044-0.25
			c0.366-0.072,0.749-0.132,1.147-0.176c0.396-0.045,0.802-0.068,1.208-0.068c0.741,0,1.408,0.082,2.002,0.244
			c0.595,0.164,1.097,0.412,1.508,0.745c0.411,0.334,0.727,0.753,0.946,1.257c0.22,0.506,0.329,1.102,0.329,1.783v8.447H358.738
			L358.738,531.879z M358.507,526.3h-2.696c-0.528,0-0.984,0.054-1.367,0.159c-0.382,0.104-0.695,0.256-0.939,0.449
			c-0.243,0.195-0.426,0.432-0.543,0.701c-0.118,0.273-0.178,0.58-0.178,0.922c0,0.236,0.037,0.463,0.11,0.68
			c0.071,0.216,0.189,0.405,0.354,0.572c0.162,0.166,0.374,0.299,0.635,0.396c0.262,0.097,0.577,0.146,0.951,0.146
			c0.488,0,1.048-0.146,1.68-0.443c0.632-0.298,1.297-0.77,1.995-1.41L358.507,526.3L358.507,526.3z"/>
		<path d="M375.828,530.047l-0.121,4.957h-1.93v-3.125h-9.265v-12.258h2.124v10.426h5.591v-10.426h2.124v10.426H375.828
			L375.828,530.047z"/>
		<path d="M380.65,519.621v8.632l5.347-8.632h2.026v12.258h-2.124v-8.633l-5.347,8.633h-2.026v-12.258H380.65z"/>
		<path d="M394.396,519.621v8.632l5.347-8.632h2.026v12.258h-2.124v-8.633l-5.349,8.633h-2.024v-12.258H394.396z M400.768,514.898
			c0,0.48-0.094,0.908-0.274,1.281c-0.184,0.375-0.438,0.692-0.77,0.959c-0.329,0.264-0.728,0.466-1.19,0.604
			c-0.463,0.141-0.977,0.208-1.537,0.208c-0.649,0-1.209-0.067-1.673-0.208c-0.464-0.138-0.845-0.34-1.142-0.604
			c-0.297-0.267-0.517-0.584-0.652-0.959c-0.139-0.373-0.208-0.801-0.208-1.281h1.929c0,0.236,0.028,0.456,0.086,0.659
			c0.059,0.204,0.152,0.384,0.286,0.544c0.135,0.158,0.315,0.282,0.544,0.371c0.229,0.09,0.514,0.135,0.854,0.135
			c0.351,0,0.642-0.045,0.873-0.135c0.23-0.089,0.417-0.213,0.556-0.371c0.139-0.16,0.236-0.34,0.293-0.544
			c0.057-0.203,0.085-0.423,0.085-0.659H400.768z"/>
		<path d="M406.798,534.381c0.415,0.016,0.817-0.021,1.208-0.109c0.393-0.09,0.734-0.223,1.032-0.396
			c0.297-0.176,0.535-0.394,0.714-0.652c0.181-0.26,0.271-0.559,0.271-0.893c0-0.342-0.062-0.616-0.177-0.83
			c-0.118-0.211-0.25-0.404-0.396-0.586c-0.146-0.179-0.279-0.369-0.396-0.572c-0.118-0.203-0.179-0.478-0.179-0.817
			c0-0.171,0.032-0.35,0.1-0.537c0.063-0.187,0.165-0.356,0.299-0.513c0.135-0.154,0.306-0.281,0.513-0.379
			c0.208-0.1,0.454-0.146,0.739-0.146c0.284,0,0.559,0.062,0.823,0.18c0.265,0.115,0.496,0.299,0.694,0.543
			c0.199,0.242,0.357,0.549,0.478,0.916c0.118,0.363,0.177,0.797,0.177,1.293c0,0.676-0.124,1.322-0.372,1.945
			s-0.618,1.176-1.11,1.654c-0.491,0.48-1.105,0.862-1.844,1.146c-0.734,0.283-1.593,0.428-2.567,0.428v-1.673L406.798,534.381
			L406.798,534.381z"/>
		<path d="M444.359,531.879h-2.918l-5.713-6.568v6.568h-2.124v-12.256h2.124v5.603l5.506-5.603h2.807l-5.747,5.649L444.359,531.879z
			"/>
		<path d="M457.75,525.652c0,0.953-0.135,1.826-0.4,2.619c-0.271,0.793-0.655,1.473-1.16,2.039
			c-0.505,0.563-1.119,1.004-1.844,1.318c-0.726,0.313-1.546,0.469-2.465,0.469c-0.881,0-1.667-0.136-2.362-0.408
			c-0.696-0.273-1.286-0.674-1.771-1.203c-0.482-0.528-0.854-1.184-1.108-1.965c-0.257-0.781-0.385-1.68-0.385-2.697
			c0-0.953,0.134-1.821,0.401-2.605c0.269-0.785,0.654-1.46,1.159-2.025c0.505-0.566,1.119-1.006,1.843-1.318
			c0.727-0.313,1.547-0.471,2.468-0.471c0.88,0,1.665,0.137,2.36,0.41c0.696,0.271,1.286,0.67,1.771,1.195
			c0.481,0.523,0.854,1.178,1.108,1.959C457.622,523.746,457.75,524.645,457.75,525.652z M455.577,525.75
			c0-0.758-0.084-1.42-0.25-1.982c-0.167-0.566-0.403-1.039-0.714-1.416c-0.31-0.379-0.687-0.664-1.13-0.855
			c-0.442-0.189-0.938-0.285-1.483-0.285c-0.635,0-1.178,0.125-1.629,0.371c-0.45,0.248-0.82,0.58-1.109,0.994
			c-0.289,0.416-0.5,0.898-0.637,1.447c-0.134,0.549-0.199,1.125-0.199,1.729c0,0.758,0.083,1.421,0.25,1.988
			c0.167,0.57,0.403,1.043,0.715,1.422c0.309,0.381,0.684,0.664,1.123,0.855c0.438,0.189,0.936,0.286,1.486,0.286
			c0.637,0,1.181-0.124,1.632-0.372c0.45-0.248,0.82-0.58,1.109-0.995c0.288-0.415,0.5-0.896,0.636-1.446
			C455.51,526.941,455.577,526.361,455.577,525.75z"/>
		<path d="M471.471,521.451h-4.65v10.428h-2.146v-10.428h-4.651v-1.83h11.45L471.471,521.451L471.471,521.451z"/>
		<path d="M485.24,525.652c0,0.953-0.135,1.826-0.4,2.619c-0.271,0.793-0.655,1.473-1.16,2.039
			c-0.505,0.563-1.119,1.004-1.846,1.318c-0.724,0.313-1.546,0.469-2.465,0.469c-0.879,0-1.667-0.136-2.36-0.408
			c-0.696-0.273-1.286-0.674-1.771-1.203c-0.483-0.528-0.854-1.184-1.108-1.965c-0.259-0.781-0.387-1.68-0.387-2.697
			c0-0.953,0.135-1.821,0.403-2.605c0.268-0.785,0.654-1.46,1.159-2.025c0.505-0.566,1.119-1.006,1.843-1.318
			c0.725-0.313,1.547-0.471,2.467-0.471c0.879,0,1.666,0.137,2.361,0.41c0.696,0.271,1.286,0.67,1.771,1.195
			c0.483,0.523,0.854,1.178,1.11,1.959C485.112,523.746,485.24,524.645,485.24,525.652z M483.067,525.75
			c0-0.758-0.084-1.42-0.25-1.982c-0.167-0.566-0.405-1.039-0.714-1.416c-0.311-0.379-0.688-0.664-1.13-0.855
			c-0.443-0.189-0.938-0.285-1.483-0.285c-0.635,0-1.178,0.125-1.629,0.371c-0.452,0.248-0.822,0.58-1.111,0.994
			c-0.287,0.416-0.5,0.898-0.635,1.447c-0.134,0.549-0.201,1.125-0.201,1.729c0,0.758,0.083,1.421,0.25,1.988
			c0.167,0.57,0.405,1.043,0.717,1.422c0.309,0.381,0.684,0.664,1.122,0.855c0.438,0.189,0.937,0.286,1.487,0.286
			c0.635,0,1.181-0.124,1.63-0.372c0.452-0.248,0.822-0.58,1.111-0.995c0.288-0.415,0.5-0.896,0.635-1.446
			C483,526.941,483.067,526.361,483.067,525.75z"/>
		<path d="M498.791,525.531c0,1.09-0.151,2.043-0.459,2.855c-0.305,0.813-0.727,1.489-1.264,2.025
			c-0.537,0.537-1.172,0.939-1.904,1.208c-0.73,0.271-1.523,0.403-2.38,0.403c-0.391,0-0.777-0.021-1.166-0.062
			c-0.387-0.041-0.777-0.11-1.178-0.208v5.127h-2.124v-17.261h1.893l0.136,2.053c0.608-0.838,1.262-1.429,1.953-1.766
			c0.689-0.338,1.438-0.508,2.245-0.508c0.699,0,1.313,0.146,1.844,0.439c0.527,0.293,0.973,0.707,1.331,1.238
			c0.356,0.532,0.627,1.178,0.806,1.93C498.7,523.763,498.791,524.604,498.791,525.531z M496.617,525.629
			c0-0.645-0.047-1.233-0.141-1.771s-0.242-0.997-0.445-1.38c-0.203-0.382-0.464-0.682-0.781-0.896
			c-0.315-0.218-0.693-0.324-1.135-0.324c-0.27,0-0.542,0.043-0.816,0.129c-0.276,0.086-0.563,0.228-0.86,0.428
			c-0.298,0.199-0.61,0.463-0.94,0.793c-0.328,0.33-0.682,0.738-1.056,1.229v5.943c0.392,0.162,0.802,0.291,1.233,0.387
			c0.431,0.093,0.854,0.14,1.27,0.14c1.146,0,2.046-0.389,2.697-1.165C496.293,528.361,496.617,527.191,496.617,525.629z"/>
		<path d="M503.209,524.359c0.295-0.008,0.567-0.015,0.824-0.02c0.256-0.005,0.522-0.008,0.799-0.008
			c0.768,0,1.437,0.094,2.011,0.275c0.571,0.185,1.052,0.439,1.435,0.771c0.382,0.326,0.667,0.724,0.854,1.184
			c0.188,0.459,0.279,0.958,0.279,1.495c0,0.65-0.107,1.223-0.329,1.716c-0.22,0.492-0.531,0.904-0.938,1.238
			s-0.905,0.586-1.495,0.757c-0.591,0.171-1.292,0.257-2.104,0.257c-0.521,0-1.072-0.015-1.653-0.043
			c-0.582-0.029-1.174-0.088-1.776-0.178V519.62h2.102v4.737L503.209,524.359L503.209,524.359z M507.215,528.117
			c0-0.643-0.201-1.143-0.604-1.495c-0.401-0.354-1.044-0.53-1.923-0.53c-0.235,0-0.477,0.005-0.72,0.013
			c-0.244,0.009-0.496,0.021-0.759,0.036v4.029c0.263,0.041,0.511,0.064,0.744,0.077c0.236,0.015,0.475,0.021,0.709,0.021
			c0.496,0,0.907-0.061,1.232-0.178s0.584-0.274,0.775-0.472c0.188-0.193,0.327-0.423,0.414-0.684
			C507.172,528.676,507.215,528.404,507.215,528.117z M510.755,531.879v-12.256h2.1v12.256H510.755z"/>
		<path d="M526.158,525.104c0,0.301-0.004,0.554-0.012,0.757c-0.009,0.204-0.021,0.396-0.037,0.573h-8.604
			c0,1.254,0.35,2.217,1.049,2.887c0.7,0.672,1.709,1.008,3.025,1.008c0.358,0,0.719-0.014,1.074-0.043
			c0.358-0.026,0.704-0.064,1.038-0.113c0.334-0.051,0.653-0.104,0.958-0.166c0.307-0.063,0.588-0.127,0.85-0.201v1.746
			c-0.577,0.163-1.23,0.295-1.959,0.396c-0.729,0.104-1.482,0.152-2.266,0.152c-1.05,0-1.953-0.145-2.71-0.427
			c-0.757-0.284-1.378-0.698-1.861-1.239c-0.482-0.541-0.843-1.204-1.072-1.99c-0.232-0.785-0.351-1.674-0.351-2.666
			c0-0.863,0.124-1.68,0.373-2.447c0.248-0.77,0.61-1.443,1.086-2.025c0.479-0.582,1.063-1.043,1.752-1.387
			c0.691-0.342,1.479-0.514,2.355-0.514c0.854,0,1.611,0.135,2.271,0.403c0.658,0.269,1.214,0.647,1.666,1.142
			c0.451,0.492,0.793,1.09,1.025,1.795C526.044,523.445,526.158,524.232,526.158,525.104z M523.949,524.799
			c0.023-0.545-0.027-1.045-0.159-1.496c-0.13-0.451-0.331-0.84-0.604-1.166c-0.272-0.324-0.612-0.58-1.021-0.762
			c-0.404-0.186-0.879-0.275-1.416-0.275c-0.463,0-0.887,0.09-1.27,0.269c-0.382,0.181-0.712,0.434-0.988,0.757
			c-0.274,0.326-0.5,0.719-0.672,1.174c-0.17,0.456-0.274,0.957-0.314,1.502L523.949,524.799L523.949,524.799z"/>
		<path d="M552.818,531.427c-0.554,0.212-1.121,0.368-1.703,0.47s-1.182,0.152-1.801,0.152c-1.938,0-3.428-0.524-4.474-1.574
			s-1.568-2.584-1.568-4.604c0-0.969,0.15-1.848,0.452-2.637c0.301-0.789,0.724-1.465,1.27-2.026c0.545-0.562,1.195-0.993,1.953-1.3
			c0.756-0.307,1.591-0.459,2.502-0.459c0.637,0,1.229,0.045,1.782,0.137c0.553,0.09,1.082,0.234,1.587,0.438v2.026
			c-0.529-0.276-1.068-0.479-1.617-0.604c-0.55-0.126-1.117-0.188-1.703-0.188c-0.545,0-1.061,0.104-1.544,0.313
			c-0.482,0.207-0.907,0.506-1.274,0.896c-0.365,0.391-0.654,0.866-0.866,1.428c-0.212,0.563-0.317,1.197-0.317,1.904
			c0,1.48,0.36,2.59,1.08,3.324c0.723,0.737,1.721,1.105,2.997,1.105c0.578,0,1.138-0.064,1.681-0.195
			c0.541-0.13,1.063-0.325,1.566-0.586L552.818,531.427L552.818,531.427z"/>
		<path d="M567.713,525.652c0,0.953-0.137,1.826-0.402,2.619c-0.271,0.793-0.655,1.473-1.16,2.039
			c-0.505,0.563-1.119,1.004-1.844,1.318c-0.725,0.313-1.546,0.469-2.465,0.469c-0.879,0-1.667-0.136-2.362-0.408
			c-0.696-0.273-1.286-0.674-1.771-1.203c-0.483-0.528-0.854-1.184-1.109-1.965c-0.257-0.781-0.385-1.68-0.385-2.697
			c0-0.953,0.134-1.821,0.401-2.605c0.269-0.785,0.654-1.46,1.159-2.025c0.505-0.566,1.119-1.006,1.843-1.318
			c0.727-0.313,1.547-0.471,2.469-0.471c0.879,0,1.666,0.137,2.359,0.41c0.696,0.271,1.286,0.67,1.771,1.195
			c0.481,0.523,0.854,1.178,1.108,1.959C567.584,523.746,567.713,524.645,567.713,525.652z M565.538,525.75
			c0-0.758-0.084-1.42-0.25-1.982c-0.167-0.566-0.403-1.039-0.714-1.416c-0.31-0.379-0.687-0.664-1.13-0.855
			c-0.441-0.189-0.938-0.285-1.481-0.285c-0.637,0-1.18,0.125-1.631,0.371c-0.45,0.248-0.82,0.58-1.109,0.994
			c-0.289,0.416-0.5,0.898-0.635,1.447c-0.136,0.549-0.201,1.125-0.201,1.729c0,0.758,0.083,1.421,0.25,1.988
			c0.167,0.57,0.405,1.043,0.715,1.422c0.309,0.381,0.684,0.664,1.123,0.855c0.438,0.189,0.936,0.286,1.488,0.286
			c0.635,0,1.179-0.124,1.63-0.372c0.452-0.248,0.82-0.58,1.109-0.995c0.288-0.415,0.5-0.896,0.637-1.446
			C565.471,526.941,565.538,526.361,565.538,525.75z"/>
		<path d="M580.309,531.427c-0.554,0.212-1.121,0.368-1.703,0.47s-1.182,0.152-1.801,0.152c-1.938,0-3.428-0.524-4.476-1.574
			c-1.046-1.05-1.566-2.584-1.566-4.604c0-0.969,0.148-1.848,0.452-2.637c0.301-0.789,0.724-1.465,1.27-2.026
			c0.545-0.562,1.195-0.993,1.953-1.3c0.756-0.307,1.591-0.459,2.502-0.459c0.635,0,1.229,0.045,1.782,0.137
			c0.553,0.09,1.082,0.234,1.587,0.438v2.026c-0.529-0.276-1.068-0.479-1.617-0.604c-0.55-0.126-1.117-0.188-1.703-0.188
			c-0.545,0-1.061,0.104-1.544,0.313c-0.482,0.207-0.909,0.506-1.274,0.896s-0.654,0.866-0.866,1.428
			c-0.212,0.563-0.317,1.197-0.317,1.904c0,1.48,0.36,2.59,1.08,3.324c0.721,0.737,1.72,1.105,2.997,1.105
			c0.578,0,1.137-0.064,1.679-0.195c0.541-0.13,1.063-0.325,1.568-0.586L580.309,531.427L580.309,531.427z"/>
		<path d="M595.177,521.451h-4.651v10.428h-2.146v-10.428h-4.65v-1.83h11.45L595.177,521.451L595.177,521.451z"/>
		<path d="M606.15,531.879l-0.049-1.648c-0.667,0.659-1.345,1.135-2.032,1.428c-0.687,0.293-1.409,0.439-2.167,0.439
			c-0.699,0-1.298-0.09-1.794-0.27s-0.905-0.426-1.227-0.736c-0.322-0.314-0.56-0.684-0.708-1.105
			c-0.151-0.423-0.229-0.883-0.229-1.379c0-1.229,0.458-2.189,1.374-2.887c0.915-0.697,2.271-1.045,4.061-1.045h2.539v-1.074
			c0-0.724-0.231-1.304-0.696-1.738c-0.463-0.436-1.172-0.652-2.123-0.652c-0.692,0-1.374,0.076-2.045,0.23
			c-0.672,0.154-1.365,0.375-2.082,0.659v-1.917c0.27-0.098,0.568-0.193,0.896-0.287c0.33-0.093,0.68-0.176,1.046-0.25
			c0.364-0.072,0.748-0.132,1.146-0.176c0.398-0.045,0.802-0.068,1.208-0.068c0.741,0,1.408,0.082,2.002,0.244
			c0.595,0.164,1.097,0.412,1.508,0.745c0.411,0.334,0.729,0.753,0.946,1.257c0.22,0.506,0.329,1.102,0.329,1.783v8.447H606.15
			L606.15,531.879z M605.921,526.3h-2.698c-0.528,0-0.984,0.054-1.367,0.159c-0.382,0.104-0.695,0.256-0.939,0.449
			c-0.242,0.195-0.426,0.432-0.543,0.701c-0.116,0.273-0.178,0.58-0.178,0.922c0,0.236,0.037,0.463,0.11,0.68
			c0.071,0.216,0.189,0.405,0.354,0.572c0.162,0.166,0.374,0.299,0.636,0.396c0.261,0.097,0.576,0.146,0.95,0.146
			c0.488,0,1.048-0.146,1.681-0.443c0.631-0.298,1.296-0.77,1.996-1.41L605.921,526.3L605.921,526.3z"/>
		<path d="M622.547,528.302c0,0.562-0.118,1.073-0.354,1.538c-0.236,0.464-0.603,0.859-1.1,1.188
			c-0.496,0.33-1.125,0.586-1.888,0.771c-0.761,0.184-1.666,0.273-2.716,0.273c-0.689,0-1.428-0.025-2.209-0.08
			c-0.78-0.053-1.534-0.122-2.259-0.213v-12.098c0.765-0.09,1.54-0.158,2.325-0.207s1.634-0.074,2.545-0.074
			c1.652,0,2.907,0.271,3.767,0.813c0.858,0.541,1.288,1.318,1.288,2.338c0,0.689-0.2,1.285-0.599,1.78
			c-0.398,0.497-1.001,0.862-1.807,1.101c0.391,0.063,0.767,0.172,1.129,0.322c0.36,0.149,0.682,0.347,0.958,0.586
			c0.275,0.239,0.499,0.521,0.666,0.85C622.463,527.517,622.547,527.887,622.547,528.302z M619.773,522.979
			c0-0.284-0.057-0.541-0.17-0.769c-0.114-0.229-0.296-0.426-0.544-0.587c-0.248-0.162-0.573-0.286-0.979-0.372
			c-0.4-0.087-0.889-0.128-1.456-0.128c-0.516,0-0.963,0.011-1.346,0.028c-0.382,0.021-0.761,0.057-1.135,0.104v3.541h2.466
			C618.72,524.799,619.773,524.192,619.773,522.979z M620.301,528.351c0-0.635-0.287-1.112-0.86-1.435
			c-0.574-0.321-1.467-0.482-2.68-0.482h-2.612v3.748c0.398,0.063,0.793,0.109,1.186,0.135c0.391,0.023,0.839,0.036,1.344,0.036
			c0.724,0,1.317-0.049,1.788-0.146c0.468-0.1,0.838-0.235,1.108-0.415c0.272-0.181,0.462-0.393,0.568-0.637
			C620.246,528.91,620.301,528.644,620.301,528.351z"/>
		<path d="M635.51,531.879h-2.124v-10.428h-3.418c-0.1,1.68-0.242,3.113-0.436,4.312c-0.19,1.197-0.421,2.193-0.688,2.997
			c-0.271,0.801-0.574,1.432-0.916,1.893c-0.344,0.459-0.71,0.793-1.104,1c-0.394,0.207-0.812,0.312-1.251,0.305
			c-0.438-0.004-0.891-0.063-1.354-0.176l0.098-1.758c0.326,0.032,0.631,0.016,0.916-0.049c0.285-0.065,0.549-0.223,0.793-0.471
			s0.466-0.605,0.666-1.074c0.199-0.468,0.38-1.092,0.543-1.873s0.303-1.74,0.421-2.875s0.214-2.488,0.287-4.061h7.568
			L635.51,531.879L635.51,531.879z"/>
		<path d="M640.281,528.338c0.271-0.568,0.563-1,0.888-1.293c0.319-0.293,0.726-0.488,1.214-0.586
			c-0.514-0.1-0.938-0.259-1.271-0.479c-0.333-0.22-0.6-0.475-0.799-0.764c-0.2-0.288-0.338-0.598-0.415-0.921
			c-0.078-0.325-0.116-0.647-0.116-0.966c0-0.535,0.09-1.041,0.271-1.514c0.179-0.473,0.468-0.883,0.864-1.232
			c0.399-0.351,0.924-0.625,1.569-0.829c0.646-0.203,1.572-0.308,2.776-0.308c0.676,0,1.344,0.023,2.002,0.068
			c0.66,0.044,1.307,0.1,1.939,0.164v12.194h-2.124v-4.749h-1.843c-0.285,0-0.576,0.025-0.873,0.078
			c-0.298,0.055-0.566,0.15-0.813,0.294c-0.245,0.144-0.467,0.327-0.665,0.557c-0.199,0.228-0.376,0.517-0.53,0.866l-1.344,2.955
			h-2.404L640.281,528.338z M641.954,523.309c0,0.701,0.238,1.226,0.714,1.575c0.479,0.351,1.185,0.522,2.118,0.522h2.295v-4.102
			c-0.35-0.031-0.688-0.059-1.013-0.072c-0.326-0.017-0.668-0.023-1.025-0.023c-0.698,0-1.231,0.047-1.6,0.141
			s-0.655,0.229-0.867,0.402c-0.211,0.176-0.368,0.39-0.47,0.642C642.007,522.646,641.954,522.949,641.954,523.309z"/>
		<path d="M656.554,524.799c0.049-0.953,0.165-1.771,0.348-2.447c0.186-0.68,0.446-1.238,0.788-1.674
			c0.342-0.437,0.761-0.756,1.257-0.963c0.496-0.209,1.074-0.313,1.733-0.313c0.74,0,1.357,0.125,1.854,0.373
			s0.896,0.629,1.196,1.141c0.301,0.516,0.518,1.164,0.647,1.953c0.13,0.79,0.193,1.729,0.193,2.811
			c0,2.196-0.326,3.814-0.977,4.855c-0.651,1.043-1.705,1.563-3.162,1.563c-0.773,0-1.408-0.13-1.904-0.393
			c-0.496-0.26-0.891-0.639-1.184-1.135s-0.497-1.099-0.611-1.807c-0.113-0.708-0.175-1.516-0.183-2.417h-2.224v5.53h-2.002v-12.258
			h2.002v5.178L656.554,524.799L656.554,524.799z M662.56,525.75c0-1.691-0.146-2.898-0.439-3.619
			c-0.293-0.723-0.813-1.08-1.563-1.08c-0.334,0-0.625,0.078-0.873,0.23c-0.248,0.154-0.456,0.414-0.622,0.781
			c-0.167,0.365-0.293,0.85-0.379,1.452c-0.085,0.603-0.128,1.347-0.128,2.231c0,0.971,0.043,1.758,0.128,2.363
			c0.086,0.605,0.214,1.084,0.385,1.436c0.171,0.35,0.38,0.588,0.629,0.715c0.248,0.125,0.535,0.188,0.86,0.188
			c0.35,0,0.65-0.077,0.903-0.229c0.252-0.154,0.46-0.416,0.622-0.781c0.161-0.367,0.281-0.851,0.358-1.453
			C662.521,527.383,662.56,526.638,662.56,525.75z"/>
		<path d="M677.647,521.451h-4.651v10.428h-2.146v-10.428h-4.65v-1.83h11.45L677.647,521.451L677.647,521.451z"/>
		<path d="M704.344,531.879h-2.123v-10.4h-5.604v10.4h-2.124v-12.256h9.853L704.344,531.879L704.344,531.879z"/>
		<path d="M718.714,525.531c0,1.09-0.152,2.043-0.458,2.855c-0.307,0.813-0.729,1.489-1.266,2.025
			c-0.537,0.537-1.172,0.939-1.902,1.208c-0.732,0.271-1.525,0.403-2.382,0.403c-0.391,0-0.777-0.021-1.166-0.062
			c-0.387-0.041-0.777-0.11-1.178-0.208v5.127h-2.124v-17.261h1.895l0.134,2.053c0.608-0.838,1.262-1.429,1.953-1.766
			c0.689-0.338,1.438-0.508,2.246-0.508c0.698,0,1.313,0.146,1.843,0.439c0.527,0.293,0.973,0.707,1.331,1.238
			c0.356,0.532,0.627,1.178,0.806,1.93C718.622,523.763,718.714,524.604,718.714,525.531z M716.539,525.629
			c0-0.645-0.047-1.233-0.141-1.771s-0.242-0.997-0.445-1.38c-0.203-0.382-0.464-0.682-0.779-0.896
			c-0.317-0.218-0.695-0.324-1.137-0.324c-0.27,0-0.542,0.043-0.816,0.129c-0.276,0.086-0.563,0.228-0.86,0.428
			c-0.298,0.199-0.608,0.463-0.938,0.793c-0.329,0.33-0.684,0.738-1.058,1.229v5.943c0.393,0.162,0.802,0.291,1.233,0.387
			c0.431,0.093,0.854,0.14,1.27,0.14c1.146,0,2.046-0.389,2.697-1.165C716.216,528.361,716.539,527.191,716.539,525.629z"/>
		<path d="M732.652,525.652c0,0.953-0.135,1.826-0.402,2.619c-0.27,0.793-0.653,1.473-1.158,2.039
			c-0.505,0.563-1.119,1.004-1.846,1.318c-0.724,0.313-1.546,0.469-2.465,0.469c-0.879,0-1.667-0.136-2.36-0.408
			c-0.696-0.273-1.286-0.674-1.771-1.203c-0.484-0.528-0.854-1.184-1.11-1.965c-0.256-0.781-0.385-1.68-0.385-2.697
			c0-0.953,0.134-1.821,0.403-2.605c0.268-0.785,0.654-1.46,1.159-2.025c0.505-0.566,1.119-1.006,1.843-1.318
			c0.725-0.313,1.547-0.471,2.467-0.471c0.879,0,1.666,0.137,2.361,0.41c0.694,0.271,1.286,0.67,1.771,1.195
			c0.483,0.523,0.854,1.178,1.11,1.959C732.524,523.746,732.652,524.645,732.652,525.652z M730.479,525.75
			c0-0.758-0.084-1.42-0.25-1.982c-0.167-0.566-0.405-1.039-0.714-1.416c-0.312-0.379-0.688-0.664-1.13-0.855
			c-0.443-0.189-0.938-0.285-1.483-0.285c-0.635,0-1.178,0.125-1.629,0.371c-0.452,0.248-0.822,0.58-1.111,0.994
			c-0.289,0.416-0.5,0.898-0.635,1.447c-0.134,0.549-0.201,1.125-0.201,1.729c0,0.758,0.083,1.421,0.25,1.988
			c0.167,0.57,0.405,1.043,0.715,1.422c0.311,0.381,0.686,0.664,1.123,0.855c0.439,0.189,0.938,0.286,1.488,0.286
			c0.635,0,1.179-0.124,1.63-0.372c0.452-0.248,0.822-0.58,1.111-0.995c0.288-0.415,0.5-0.896,0.635-1.446
			C730.412,526.941,730.479,526.361,730.479,525.75z"/>
		<path d="M746.947,530.047l-0.123,4.957h-1.928v-3.125h-9.266v-12.258h2.124v10.426h5.591v-10.426h2.124v10.426H746.947
			L746.947,530.047z"/>
		<path d="M759.825,525.104c0,0.301-0.004,0.554-0.013,0.757c-0.008,0.204-0.02,0.396-0.036,0.573h-8.604
			c0,1.254,0.351,2.217,1.051,2.887c0.699,0.672,1.709,1.008,3.025,1.008c0.357,0,0.718-0.014,1.074-0.043
			c0.357-0.026,0.703-0.064,1.037-0.113c0.334-0.051,0.653-0.104,0.958-0.166c0.306-0.063,0.588-0.127,0.849-0.201v1.746
			c-0.576,0.163-1.229,0.295-1.959,0.396c-0.729,0.104-1.481,0.152-2.265,0.152c-1.05,0-1.953-0.145-2.71-0.427
			c-0.757-0.284-1.378-0.698-1.861-1.239c-0.482-0.541-0.843-1.204-1.072-1.99c-0.232-0.785-0.35-1.674-0.35-2.666
			c0-0.863,0.123-1.68,0.372-2.447c0.248-0.77,0.61-1.443,1.086-2.025c0.479-0.582,1.063-1.043,1.752-1.387
			c0.691-0.342,1.479-0.514,2.356-0.514c0.854,0,1.611,0.135,2.27,0.403c0.66,0.269,1.216,0.647,1.667,1.142
			c0.451,0.492,0.793,1.09,1.025,1.795C759.709,523.445,759.825,524.232,759.825,525.104z M757.615,524.799
			c0.025-0.545-0.026-1.045-0.158-1.496c-0.13-0.451-0.332-0.84-0.604-1.166c-0.272-0.324-0.612-0.58-1.021-0.762
			c-0.405-0.186-0.879-0.275-1.416-0.275c-0.465,0-0.888,0.09-1.27,0.269c-0.383,0.181-0.713,0.434-0.989,0.757
			c-0.274,0.326-0.501,0.719-0.671,1.174c-0.172,0.456-0.277,0.957-0.318,1.502L757.615,524.799L757.615,524.799z"/>
		<path d="M772.74,531.427c-0.554,0.212-1.121,0.368-1.703,0.47s-1.182,0.152-1.801,0.152c-1.937,0-3.428-0.524-4.474-1.574
			s-1.568-2.584-1.568-4.604c0-0.969,0.15-1.848,0.452-2.637c0.301-0.789,0.724-1.465,1.27-2.026c0.547-0.561,1.195-0.993,1.953-1.3
			c0.756-0.307,1.593-0.459,2.502-0.459c0.637,0,1.229,0.045,1.782,0.137c0.553,0.09,1.082,0.234,1.587,0.438v2.026
			c-0.527-0.276-1.066-0.479-1.617-0.604c-0.55-0.125-1.115-0.188-1.701-0.188c-0.547,0-1.063,0.104-1.545,0.313
			c-0.483,0.207-0.908,0.506-1.275,0.896c-0.365,0.391-0.654,0.866-0.866,1.428c-0.212,0.563-0.317,1.197-0.317,1.904
			c0,1.48,0.36,2.59,1.08,3.324c0.723,0.737,1.722,1.105,2.997,1.105c0.578,0,1.139-0.064,1.681-0.195
			c0.541-0.13,1.063-0.325,1.566-0.586L772.74,531.427L772.74,531.427z"/>
		<path d="M786.485,531.427c-0.554,0.212-1.121,0.368-1.703,0.47s-1.182,0.152-1.8,0.152c-1.938,0-3.429-0.524-4.475-1.574
			s-1.568-2.584-1.568-4.604c0-0.969,0.15-1.848,0.451-2.637c0.302-0.789,0.725-1.465,1.27-2.026c0.547-0.562,1.197-0.993,1.953-1.3
			c0.758-0.307,1.592-0.459,2.503-0.459c0.637,0,1.229,0.045,1.782,0.137c0.553,0.09,1.082,0.234,1.587,0.438v2.026
			c-0.529-0.276-1.067-0.479-1.617-0.604s-1.116-0.188-1.703-0.188c-0.545,0-1.061,0.104-1.544,0.313
			c-0.482,0.207-0.908,0.506-1.273,0.896c-0.367,0.391-0.655,0.866-0.867,1.428c-0.212,0.563-0.317,1.197-0.317,1.904
			c0,1.48,0.36,2.59,1.08,3.324c0.723,0.737,1.722,1.105,2.997,1.105c0.578,0,1.139-0.064,1.68-0.195
			c0.541-0.13,1.063-0.325,1.567-0.586L786.485,531.427L786.485,531.427z"/>
		<path d="M795.531,528.031c0.276,0,0.538,0.055,0.787,0.158c0.248,0.106,0.464,0.253,0.646,0.439
			c0.184,0.188,0.328,0.403,0.434,0.652c0.105,0.248,0.158,0.516,0.158,0.801c0,0.275-0.053,0.535-0.158,0.779
			s-0.25,0.457-0.434,0.643c-0.185,0.184-0.398,0.328-0.646,0.434c-0.249,0.105-0.511,0.158-0.787,0.158
			c-0.285,0-0.55-0.053-0.794-0.158c-0.244-0.104-0.458-0.25-0.641-0.434c-0.186-0.186-0.328-0.396-0.436-0.643
			c-0.104-0.245-0.157-0.504-0.157-0.779c0-0.285,0.054-0.553,0.157-0.801c0.105-0.249,0.25-0.467,0.436-0.652
			c0.183-0.188,0.396-0.333,0.641-0.439C794.981,528.086,795.246,528.031,795.531,528.031z"/>
	</g>
</g>
<g id="Layer_2">
	<g>
		<path fill="#ED1C24" d="M918.656,551.66c0,1.938-1.703,3.51-3.802,3.51h-1.164c-2.101,0-3.803-1.571-3.803-3.51v-36.636h8.769
			V551.66z"/>
		<path fill="#ED1C24" d="M949.689,552.904h-18.023h-17.244v-41.701c0,0,3.991-4.384,17.634-4.188
			c13.641,0.193,17.636,4.188,17.636,4.188L949.689,552.904L949.689,552.904z M946.571,515.114c0,0-3.162-3.16-13.957-3.313
			c-10.796-0.155-13.958,3.313-13.958,3.313v33.005c0,0,5.698-2.646,13.958-2.548c6.141,0.075,13.957,2.548,13.957,2.548V515.114z"
			/>
		<path fill="#ED1C24" d="M914.422,552.904h-18.026h-17.246v-41.701c0,0,3.994-4.384,17.634-4.188
			c13.645,0.193,17.641,4.188,17.641,4.188L914.422,552.904L914.422,552.904z M910.181,515.114c0,0-3.162-3.16-13.957-3.313
			c-10.796-0.155-13.956,3.313-13.956,3.313v33.005c0,0,5.696-2.646,13.956-2.548c6.137,0.075,13.957,2.548,13.957,2.548V515.114z"
			/>
		<path fill="none" stroke="#ED1C24" stroke-miterlimit="10" d="M885.188,519.192c0,0,2.437-1.56,9.939-1.462
			c7.501,0.098,11.203,1.462,11.203,1.462"/>
		<path fill="none" stroke="#ED1C24" stroke-miterlimit="10" d="M885.188,526.513c0,0,2.437-1.56,9.939-1.462
			c7.501,0.099,11.203,1.462,11.203,1.462"/>
		<path fill="none" stroke="#ED1C24" stroke-miterlimit="10" d="M885.188,534.318c0,0,2.437-1.559,9.939-1.463
			c7.501,0.1,11.203,1.463,11.203,1.463"/>
		<path fill="none" stroke="#ED1C24" stroke-miterlimit="10" d="M921.776,519.535c0,0,2.433-1.561,9.938-1.461
			c7.503,0.1,11.203,1.461,11.203,1.461"/>
		<path fill="none" stroke="#ED1C24" stroke-miterlimit="10" d="M921.776,527.354c0,0,2.433-1.558,9.938-1.459
			c7.503,0.096,11.203,1.459,11.203,1.459"/>
		<g>
			<path fill="#FFFFFF" d="M967.362,501.337c1.691,1.691,1.987,4.138,0.661,5.467L944.4,530.427
				c-1.328,1.326-12.106,6.041-13.801,4.352l-1.446-1.449c-1.689-1.689,2.303-13.194,3.627-14.521l23.623-23.625
				c1.328-1.326,3.773-1.03,5.47,0.663L967.362,501.337z"/>
			<path fill="#ED1C24" d="M965.479,501.854c1.222,1.227,1.222,3.209,0,4.436l-21.799,21.8c-1.228,1.224-10.568,6.182-11.795,4.958
				L930.842,532c-1.227-1.229,3.208-11.096,4.436-12.318l21.798-21.798c1.227-1.227,3.208-1.227,4.435,0L965.479,501.854z"/>
			<path fill="#FFFFFF" d="M942.598,527.736c-0.469,0.47-2.371,1.601-4.388,2.579c-0.771,0.376-2.286,1.014-2.286,1.014l-3.632-3.63
				c0,0,0.764-1.927,1.088-2.688c0.847-1.988,1.802-3.805,2.244-4.245L942.598,527.736z"/>
		</g>
	</g>
</g>
</svg>
