<?xml version="1.0" encoding="utf-8"?>
<!-- Generator: Adobe Illustrator 15.1.0, SVG Export Plug-In . SVG Version: 6.00 Build 0)  -->
<!DOCTYPE svg PUBLIC "-//W3C//DTD SVG 1.1//EN" "http://www.w3.org/Graphics/SVG/1.1/DTD/svg11.dtd">
<svg version="1.1" id="Layer_1" xmlns="http://www.w3.org/2000/svg" xmlns:xlink="http://www.w3.org/1999/xlink" x="0px" y="0px"
	 width="1024px" height="600px" viewBox="0 0 1024 600" enable-background="new 0 0 1024 600" xml:space="preserve">
<g id="Layer_3" opacity="0.93">
	<rect x="-27" y="-27" opacity="0.92" fill="#FFFFFF" enable-background="new    " width="1071" height="644"/>
</g>
<text transform="matrix(1 0 0 1 180.1375 188.2532)" fill="#662D91" font-family="'Consolas'" font-size="36">Растения</text>
<text transform="matrix(1 0 0 1 658.5232 428.1721)" fill="#662D91" font-family="'Consolas'" font-size="28">Перчатки</text>
<text transform="matrix(1 0 0 1 47.8376 477.1145)" fill="#ED1C24" font-family="'Consolas'" font-size="32">Инструмент</text>
<text transform="matrix(1 0 0 1 311.3674 529.9827)" fill="#009444" font-family="'Consolas'" font-size="30">Лейка</text>
<text transform="matrix(1 0 0 1 569.7673 555.4602)" font-family="'Consolas'" font-size="24">Ребенок</text>
<text transform="matrix(1 0 0 1 168.4294 328.8147)" fill="#F7941E" font-family="'Consolas'" font-size="36">Девочка</text>
<text transform="matrix(1 0 0 1 80.4915 76.2776)" fill="#F7941E" font-family="'Consolas'" font-size="36">Грабли</text>
<text transform="matrix(1 0 0 1 761.0037 276.7805)" fill="#EF4136" font-family="'Consolas'" font-size="36">Женщина</text>
<text transform="matrix(1 0 0 1 605.2166 106.1956)" fill="#009444" font-family="'Consolas'" font-size="28">Шляпа</text>
<text transform="matrix(1 0 0 1 882.8689 95.1213)" fill="#662D91" font-family="'Consolas'" font-size="24">Трава</text>
<text transform="matrix(1 0 0 1 408.6443 67.9973)" font-family="'Consolas'" font-size="24">Небо</text>
<text transform="matrix(1 0 0 1 859.2732 515.2815)" fill="#F7941E" font-family="'Consolas'" font-size="36">Цветы</text>
</svg>
