<?xml version="1.0" encoding="utf-8"?>
<!-- Generator: Adobe Illustrator 15.1.0, SVG Export Plug-In . SVG Version: 6.00 Build 0)  -->
<!DOCTYPE svg PUBLIC "-//W3C//DTD SVG 1.1//EN" "http://www.w3.org/Graphics/SVG/1.1/DTD/svg11.dtd">
<svg version="1.1" id="Layer_1" xmlns="http://www.w3.org/2000/svg" xmlns:xlink="http://www.w3.org/1999/xlink" x="0px" y="0px"
	 width="1024px" height="600px" viewBox="0 0 1024 600" enable-background="new 0 0 1024 600" xml:space="preserve">
<g id="Layer_3" opacity="0.93">
	<rect x="-27" y="-27" opacity="0.92" fill="#FFFFFF" enable-background="new    " width="1071" height="644"/>
</g>
<text transform="matrix(1 0 0 1 180.1375 188.2532)" fill="#662D91" font-family="'Consolas'" font-size="36">Растения</text>
<text transform="matrix(1 0 0 1 658.5232 428.1721)" fill="#662D91" font-family="'Consolas'" font-size="28">Перчатки</text>
<text transform="matrix(1 0 0 1 47.8376 477.1145)" fill="#ED1C24" font-family="'Consolas'" font-size="32">Инструмент</text>
<text transform="matrix(1 0 0 1 311.3674 529.9827)" fill="#009444" font-family="'Consolas'" font-size="30">Лейка</text>
<text transform="matrix(1 0 0 1 569.7673 555.4602)" font-family="'Consolas'" font-size="24">Ребенок</text>
<text transform="matrix(1 0 0 1 168.4294 328.8147)" fill="#F7941E" font-family="'Consolas'" font-size="36">Девочка</text>
<text transform="matrix(1 0 0 1 80.4915 76.2776)" fill="#F7941E" font-family="'Consolas'" font-size="36">Грабли</text>
<text transform="matrix(1 0 0 1 761.0037 276.7805)" fill="#EF4136" font-family="'Consolas'" font-size="36">Женщина</text>
<text transform="matrix(1 0 0 1 605.2166 106.1956)" fill="#009444" font-family="'Consolas'" font-size="28">Шляпа</text>
<text transform="matrix(1 0 0 1 882.8689 95.1213)" fill="#662D91" font-family="'Consolas'" font-size="24">Трава</text>
<text transform="matrix(1 0 0 1 408.6443 67.9973)" font-family="'Consolas'" font-size="24">Небо</text>
<text transform="matrix(1 0 0 1 859.2732 515.2815)" fill="#F7941E" font-family="'Consolas'" font-size="36">Цветы</text>
<circle opacity="0.61" fill="#BCBEC0" enable-background="new    " cx="512" cy="300" r="181.5"/>
<rect x="361.528" y="259.314" fill="none" width="300.945" height="82.371"/>
<g enable-background="new    ">
	<path d="M380.079,271.79c0,0.766-0.147,1.442-0.445,2.032c-0.297,0.591-0.721,1.089-1.27,1.495c-0.55,0.407-1.213,0.717-1.99,0.929
		c-0.776,0.212-1.642,0.316-2.594,0.316h-4.175v-15.955h4.564c3.557,0,5.334,1.295,5.334,3.884c0,0.861-0.206,1.603-0.616,2.221
		c-0.411,0.619-1.08,1.079-2.009,1.38c0.432,0.081,0.841,0.22,1.228,0.415s0.727,0.447,1.02,0.757
		c0.293,0.311,0.525,0.676,0.696,1.099C379.993,270.786,380.079,271.262,380.079,271.79z M377.247,264.784
		c0-0.326-0.049-0.634-0.146-0.923c-0.098-0.289-0.27-0.536-0.514-0.744c-0.243-0.207-0.573-0.372-0.988-0.494
		s-0.94-0.184-1.575-0.184h-2.246v4.992h2.173c0.496,0,0.946-0.053,1.349-0.158c0.403-0.105,0.749-0.27,1.038-0.487
		c0.289-0.222,0.514-0.495,0.671-0.824C377.168,265.632,377.247,265.24,377.247,264.784z M377.772,271.865
		c0-0.406-0.085-0.772-0.256-1.1c-0.171-0.325-0.419-0.6-0.745-0.823s-0.723-0.396-1.19-0.519c-0.468-0.123-0.995-0.185-1.581-0.185
		h-2.222v5.493h2.295c1.245,0,2.173-0.23,2.783-0.695C377.467,273.573,377.772,272.849,377.772,271.865z"/>
	<path d="M384.523,269.044c0.293-0.008,0.566-0.015,0.824-0.02c0.256-0.004,0.521-0.006,0.799-0.006
		c0.765,0,1.434,0.092,2.008,0.274c0.573,0.184,1.051,0.438,1.434,0.77c0.383,0.329,0.667,0.726,0.854,1.185
		c0.187,0.46,0.281,0.959,0.281,1.496c0,0.649-0.11,1.223-0.33,1.715c-0.221,0.491-0.533,0.904-0.94,1.237
		c-0.407,0.334-0.905,0.586-1.495,0.759c-0.59,0.17-1.292,0.256-2.105,0.256c-0.521,0-1.072-0.016-1.654-0.043
		c-0.582-0.028-1.174-0.087-1.776-0.178v-12.183h2.101L384.523,269.044L384.523,269.044z M388.527,272.804
		c0-0.643-0.201-1.142-0.604-1.495c-0.401-0.354-1.043-0.531-1.922-0.531c-0.235,0-0.476,0.004-0.72,0.014
		c-0.244,0.008-0.497,0.02-0.757,0.036v4.027c0.26,0.041,0.508,0.067,0.745,0.079c0.235,0.013,0.472,0.02,0.708,0.02
		c0.496,0,0.907-0.06,1.232-0.178c0.325-0.117,0.584-0.273,0.775-0.47c0.191-0.195,0.329-0.424,0.415-0.684
		C388.484,273.362,388.527,273.089,388.527,272.804z M392.067,276.564v-12.256h2.1v12.256H392.067z"/>
	<path d="M421.388,272.988c0,0.562-0.118,1.074-0.354,1.537c-0.236,0.465-0.603,0.861-1.099,1.19
		c-0.497,0.33-1.125,0.586-1.887,0.77c-0.761,0.184-1.666,0.274-2.716,0.274c-0.691,0-1.428-0.026-2.209-0.079
		c-0.781-0.054-1.534-0.124-2.258-0.214v-12.098c0.765-0.09,1.54-0.158,2.325-0.207c0.786-0.05,1.634-0.073,2.545-0.073
		c1.652,0,2.907,0.271,3.766,0.812c0.858,0.542,1.288,1.32,1.288,2.338c0,0.691-0.2,1.286-0.598,1.782
		c-0.399,0.496-1.001,0.862-1.807,1.1c0.391,0.064,0.767,0.173,1.129,0.322c0.361,0.151,0.682,0.348,0.958,0.586
		c0.275,0.24,0.499,0.523,0.666,0.85C421.304,272.201,421.388,272.572,421.388,272.988z M418.617,267.665
		c0-0.285-0.057-0.542-0.171-0.771c-0.114-0.228-0.295-0.423-0.543-0.586s-0.573-0.287-0.977-0.372
		c-0.402-0.086-0.89-0.128-1.458-0.128c-0.514,0-0.961,0.01-1.344,0.03s-0.761,0.055-1.135,0.104v3.54h2.466
		C417.563,269.484,418.617,268.877,418.617,267.665z M419.142,273.036c0-0.636-0.287-1.113-0.86-1.436
		c-0.574-0.321-1.467-0.481-2.68-0.481h-2.612v3.747c0.398,0.064,0.793,0.109,1.184,0.135c0.392,0.024,0.839,0.037,1.344,0.037
		c0.724,0,1.319-0.05,1.789-0.146c0.468-0.098,0.838-0.235,1.109-0.416c0.273-0.179,0.462-0.391,0.568-0.635
		C419.089,273.597,419.142,273.329,419.142,273.036z"/>
	<path d="M426.906,264.308v8.631l5.348-8.631h2.025v12.256h-2.124v-8.631l-5.347,8.631h-2.026v-12.256H426.906z"/>
	<path d="M449.733,274.733l-0.134,4.956h-1.941v-3.125h-8.936v3.125h-1.917l-0.122-4.956h0.171c0.309,0,0.602-0.049,0.879-0.146
		c0.276-0.099,0.533-0.282,0.769-0.557c0.236-0.271,0.454-0.649,0.653-1.135c0.199-0.483,0.378-1.11,0.537-1.88
		c0.158-0.77,0.297-1.703,0.415-2.802c0.118-1.1,0.217-2.4,0.299-3.906h7.568v10.425H449.733L449.733,274.733z M445.851,266.139
		h-3.418c-0.082,1.399-0.188,2.592-0.317,3.577c-0.13,0.984-0.282,1.811-0.458,2.478c-0.175,0.667-0.376,1.2-0.604,1.6
		c-0.229,0.398-0.48,0.713-0.757,0.939h5.554V266.139z"/>
	<path d="M454.396,264.308v8.631l5.347-8.631h2.026v12.256h-2.124v-8.631l-5.347,8.631h-2.026v-12.256H454.396z"/>
	<path d="M476.49,266.139h-4.65v10.425h-2.148v-10.425h-4.651v-1.831h11.45V266.139z"/>
	<path d="M489.943,269.788c0,0.302-0.004,0.554-0.012,0.758c-0.008,0.203-0.021,0.395-0.037,0.573h-8.606
		c0,1.253,0.351,2.216,1.051,2.887c0.699,0.672,1.709,1.007,3.026,1.007c0.358,0,0.717-0.014,1.074-0.042
		c0.358-0.028,0.704-0.067,1.038-0.116c0.333-0.049,0.653-0.104,0.958-0.165c0.306-0.061,0.588-0.128,0.849-0.201v1.745
		c-0.577,0.163-1.23,0.296-1.959,0.397s-1.482,0.152-2.265,0.152c-1.05,0-1.953-0.144-2.71-0.428
		c-0.757-0.285-1.377-0.697-1.861-1.238c-0.483-0.541-0.843-1.204-1.073-1.99c-0.232-0.785-0.349-1.674-0.349-2.667
		c0-0.862,0.124-1.68,0.373-2.447c0.248-0.77,0.61-1.444,1.086-2.026c0.478-0.582,1.061-1.044,1.752-1.386s1.478-0.513,2.356-0.513
		c0.854,0,1.61,0.134,2.271,0.403c0.659,0.268,1.214,0.647,1.667,1.141c0.451,0.493,0.793,1.091,1.025,1.795
		C489.826,268.131,489.943,268.918,489.943,269.788z M487.733,269.484c0.024-0.545-0.029-1.044-0.159-1.495
		s-0.332-0.841-0.604-1.165c-0.272-0.325-0.612-0.58-1.02-0.764c-0.406-0.184-0.879-0.274-1.416-0.274
		c-0.464,0-0.887,0.09-1.27,0.27c-0.383,0.179-0.712,0.431-0.989,0.756c-0.276,0.326-0.5,0.717-0.671,1.172
		c-0.171,0.456-0.277,0.957-0.317,1.502L487.733,269.484L487.733,269.484z"/>
	<path d="M516.932,276.564h-2.124v-5.42h-5.604v5.42h-2.124v-12.256h2.124v4.98h5.604v-4.98h2.124V276.564z"/>
	<path d="M528.7,276.564l-0.049-1.647c-0.667,0.66-1.345,1.136-2.032,1.429c-0.687,0.293-1.409,0.439-2.167,0.439
		c-0.699,0-1.298-0.091-1.794-0.27c-0.497-0.179-0.905-0.425-1.227-0.738c-0.322-0.313-0.56-0.682-0.709-1.104
		c-0.15-0.423-0.227-0.883-0.227-1.379c0-1.229,0.458-2.191,1.374-2.888c0.914-0.695,2.269-1.044,4.06-1.044h2.539v-1.073
		c0-0.726-0.232-1.305-0.696-1.739c-0.464-0.436-1.172-0.653-2.124-0.653c-0.69,0-1.373,0.077-2.045,0.231s-1.365,0.375-2.081,0.66
		v-1.917c0.27-0.099,0.567-0.193,0.897-0.287s0.678-0.178,1.043-0.25c0.367-0.073,0.749-0.133,1.147-0.178s0.802-0.066,1.208-0.066
		c0.74,0,1.407,0.081,2.002,0.244s1.098,0.411,1.508,0.745c0.411,0.333,0.727,0.752,0.946,1.257s0.329,1.099,0.329,1.781v8.447
		H528.7L528.7,276.564z M528.469,270.986h-2.698c-0.529,0-0.985,0.054-1.367,0.158c-0.383,0.105-0.695,0.256-0.939,0.451
		s-0.426,0.43-0.543,0.702s-0.178,0.58-0.178,0.922c0,0.236,0.036,0.462,0.11,0.678c0.072,0.216,0.19,0.407,0.354,0.573
		c0.162,0.167,0.374,0.299,0.636,0.396c0.26,0.099,0.578,0.146,0.952,0.146c0.487,0,1.048-0.147,1.679-0.445
		c0.631-0.297,1.295-0.767,1.996-1.41L528.469,270.986L528.469,270.986z"/>
	<path d="M536.172,267.079c0.568-0.799,1.203-1.395,1.903-1.789c0.7-0.396,1.489-0.593,2.368-0.593c0.699,0,1.345,0.129,1.937,0.386
		c0.59,0.256,1.098,0.637,1.524,1.141c0.428,0.505,0.761,1.126,1,1.862c0.24,0.735,0.361,1.581,0.361,2.532
		c0,0.896-0.141,1.722-0.422,2.479s-0.676,1.408-1.185,1.953s-1.114,0.971-1.817,1.275c-0.705,0.306-1.48,0.458-2.326,0.458
		c-0.887,0-1.666-0.152-2.338-0.458s-1.23-0.772-1.678-1.403c-0.448-0.631-0.786-1.429-1.015-2.394s-0.342-2.109-0.342-3.437
		c0-1.628,0.139-3.011,0.415-4.15c0.276-1.139,0.679-2.085,1.208-2.838s1.183-1.339,1.959-1.758c0.777-0.419,1.667-0.723,2.668-0.91
		c0.293-0.057,0.6-0.104,0.922-0.14c0.321-0.037,0.642-0.073,0.958-0.11c0.317-0.036,0.622-0.071,0.915-0.104
		c0.293-0.033,0.554-0.073,0.781-0.122v1.953c-0.162,0.041-0.349,0.072-0.556,0.098c-0.206,0.025-0.428,0.049-0.659,0.073
		c-0.23,0.023-0.472,0.049-0.72,0.072c-0.249,0.024-0.486,0.054-0.715,0.085c-0.952,0.123-1.732,0.322-2.344,0.6
		s-1.104,0.653-1.477,1.129c-0.375,0.477-0.66,1.055-0.855,1.733C536.451,265.384,536.294,266.175,536.172,267.079z
		 M543.093,270.693c0-0.709-0.078-1.324-0.238-1.85c-0.158-0.525-0.369-0.963-0.635-1.313c-0.265-0.35-0.566-0.609-0.908-0.78
		s-0.701-0.256-1.074-0.256c-0.383,0-0.733,0.055-1.057,0.163c-0.321,0.11-0.638,0.273-0.945,0.488
		c-0.311,0.216-0.619,0.49-0.928,0.824c-0.312,0.334-0.64,0.74-0.989,1.221v0.232c0,1.105,0.085,2.016,0.257,2.728
		c0.17,0.713,0.402,1.276,0.695,1.69c0.293,0.416,0.641,0.707,1.043,0.873c0.404,0.167,0.845,0.25,1.325,0.25
		c0.568,0,1.068-0.119,1.501-0.359c0.432-0.24,0.792-0.558,1.08-0.952c0.289-0.395,0.508-0.849,0.653-1.36
		C543.019,271.779,543.093,271.245,543.093,270.693z"/>
	<path d="M558.986,270.338c0,0.952-0.135,1.825-0.402,2.618c-0.27,0.794-0.655,1.474-1.159,2.039
		c-0.506,0.564-1.119,1.005-1.845,1.317c-0.725,0.313-1.547,0.471-2.466,0.471c-0.879,0-1.667-0.138-2.361-0.409
		c-0.695-0.272-1.285-0.673-1.771-1.202s-0.854-1.186-1.111-1.966c-0.256-0.781-0.385-1.681-0.385-2.697
		c0-0.952,0.135-1.82,0.403-2.606c0.269-0.784,0.655-1.46,1.159-2.025c0.505-0.565,1.119-1.005,1.844-1.318
		c0.725-0.313,1.546-0.47,2.466-0.47c0.879,0,1.667,0.137,2.362,0.409c0.694,0.271,1.285,0.671,1.77,1.195s0.855,1.179,1.111,1.959
		C558.857,268.434,558.986,269.329,558.986,270.338z M556.812,270.436c0-0.757-0.083-1.418-0.25-1.982
		c-0.166-0.565-0.404-1.038-0.714-1.416c-0.311-0.379-0.687-0.663-1.13-0.854c-0.443-0.19-0.938-0.287-1.482-0.287
		c-0.635,0-1.178,0.124-1.629,0.372c-0.453,0.249-0.822,0.58-1.111,0.995s-0.5,0.897-0.635,1.446
		c-0.135,0.55-0.201,1.125-0.201,1.728c0,0.757,0.083,1.42,0.25,1.989c0.166,0.57,0.404,1.044,0.714,1.423
		c0.311,0.378,0.685,0.663,1.123,0.854c0.439,0.19,0.937,0.287,1.489,0.287c0.635,0,1.178-0.124,1.629-0.373
		c0.453-0.248,0.822-0.58,1.111-0.994c0.289-0.416,0.5-0.897,0.635-1.447S556.812,271.046,556.812,270.436z"/>
	<path d="M572.535,270.216c0,1.091-0.151,2.043-0.457,2.855c-0.305,0.813-0.727,1.489-1.264,2.026s-1.172,0.939-1.904,1.209
		c-0.731,0.269-1.524,0.402-2.381,0.402c-0.391,0-0.778-0.021-1.166-0.062c-0.386-0.041-0.778-0.109-1.178-0.208v5.127h-2.123
		v-17.261h1.893l0.134,2.051c0.61-0.838,1.262-1.426,1.953-1.764c0.69-0.338,1.44-0.507,2.245-0.507c0.7,0,1.314,0.146,1.845,0.438
		c0.529,0.293,0.973,0.706,1.33,1.239s0.627,1.176,0.807,1.929C572.445,268.448,572.535,269.288,572.535,270.216z M570.363,270.314
		c0-0.643-0.047-1.231-0.141-1.77s-0.242-0.997-0.445-1.38c-0.204-0.384-0.465-0.683-0.781-0.897
		c-0.317-0.215-0.695-0.323-1.136-0.323c-0.269,0-0.542,0.043-0.817,0.128c-0.276,0.087-0.563,0.229-0.86,0.429
		s-0.609,0.464-0.939,0.793c-0.33,0.33-0.682,0.737-1.057,1.227v5.945c0.391,0.163,0.802,0.291,1.232,0.385
		c0.432,0.094,0.854,0.142,1.271,0.142c1.146,0,2.046-0.39,2.698-1.166C570.037,273.046,570.363,271.876,570.363,270.314z"/>
	<path d="M599.074,276.113c-0.555,0.212-1.121,0.368-1.703,0.471c-0.582,0.102-1.183,0.151-1.801,0.151
		c-1.938,0-3.428-0.523-4.475-1.574c-1.045-1.05-1.568-2.583-1.568-4.603c0-0.969,0.15-1.848,0.452-2.637
		c0.301-0.789,0.724-1.465,1.271-2.026c0.545-0.562,1.195-0.995,1.952-1.3c0.758-0.306,1.592-0.458,2.503-0.458
		c0.636,0,1.229,0.045,1.781,0.134c0.555,0.09,1.082,0.236,1.588,0.439v2.026c-0.528-0.276-1.067-0.479-1.617-0.604
		c-0.551-0.126-1.116-0.189-1.702-0.189c-0.546,0-1.062,0.104-1.545,0.313c-0.484,0.207-0.909,0.506-1.275,0.896
		c-0.366,0.391-0.655,0.867-0.867,1.43c-0.211,0.562-0.315,1.195-0.315,1.903c0,1.481,0.358,2.591,1.08,3.326
		c0.721,0.737,1.719,1.104,2.995,1.104c0.578,0,1.139-0.064,1.681-0.195c0.541-0.13,1.063-0.325,1.567-0.586L599.074,276.113
		L599.074,276.113z"/>
	<path d="M613.039,276.564h-2.125v-10.425h-3.418c-0.098,1.677-0.241,3.112-0.434,4.311c-0.19,1.194-0.42,2.194-0.689,2.995
		c-0.268,0.803-0.572,1.434-0.915,1.894c-0.342,0.46-0.71,0.793-1.104,1.001c-0.396,0.207-0.813,0.309-1.252,0.305
		c-0.439-0.004-0.892-0.063-1.354-0.177l0.099-1.758c0.325,0.032,0.63,0.017,0.915-0.049c0.285-0.066,0.55-0.223,0.794-0.471
		s0.466-0.605,0.665-1.073c0.198-0.469,0.381-1.094,0.543-1.874c0.163-0.781,0.304-1.739,0.422-2.875
		c0.117-1.136,0.213-2.488,0.287-4.06h7.567L613.039,276.564L613.039,276.564z"/>
	<path d="M627.712,270.338c0,0.952-0.135,1.825-0.402,2.618c-0.269,0.794-0.655,1.474-1.16,2.039
		c-0.504,0.564-1.119,1.005-1.843,1.317c-0.725,0.313-1.546,0.471-2.466,0.471c-0.879,0-1.666-0.138-2.361-0.409
		c-0.697-0.272-1.287-0.673-1.771-1.202s-0.854-1.186-1.109-1.966c-0.258-0.781-0.385-1.681-0.385-2.697
		c0-0.952,0.134-1.82,0.401-2.606c0.27-0.784,0.654-1.46,1.16-2.025c0.504-0.565,1.118-1.005,1.843-1.318
		c0.725-0.313,1.546-0.47,2.467-0.47c0.879,0,1.666,0.137,2.36,0.409c0.697,0.271,1.287,0.671,1.771,1.195
		c0.482,0.524,0.854,1.179,1.108,1.959C627.584,268.434,627.712,269.329,627.712,270.338z M625.539,270.436
		c0-0.757-0.084-1.418-0.25-1.982c-0.168-0.565-0.405-1.038-0.715-1.416c-0.31-0.379-0.686-0.663-1.129-0.854
		c-0.443-0.19-0.938-0.287-1.482-0.287c-0.636,0-1.18,0.124-1.631,0.372c-0.45,0.249-0.821,0.58-1.11,0.995
		c-0.288,0.415-0.5,0.897-0.636,1.446c-0.133,0.55-0.2,1.125-0.2,1.728c0,0.757,0.084,1.42,0.25,1.989
		c0.168,0.57,0.404,1.044,0.715,1.423c0.309,0.378,0.684,0.663,1.123,0.854c0.438,0.19,0.936,0.287,1.489,0.287
		c0.635,0,1.179-0.124,1.63-0.373c0.45-0.248,0.821-0.58,1.11-0.994c0.288-0.416,0.5-0.897,0.636-1.447
		C625.47,271.626,625.539,271.046,625.539,270.436z"/>
	<path d="M641.31,272.988c0,0.562-0.119,1.074-0.354,1.537c-0.235,0.465-0.603,0.861-1.099,1.19c-0.496,0.33-1.125,0.586-1.887,0.77
		c-0.76,0.184-1.666,0.274-2.715,0.274c-0.692,0-1.43-0.026-2.211-0.079c-0.78-0.054-1.533-0.124-2.259-0.214v-12.098
		c0.767-0.09,1.541-0.158,2.326-0.207c0.785-0.05,1.633-0.073,2.545-0.073c1.652,0,2.907,0.271,3.767,0.812
		c0.858,0.542,1.287,1.32,1.287,2.338c0,0.691-0.199,1.286-0.599,1.782c-0.398,0.496-1,0.862-1.807,1.1
		c0.391,0.064,0.768,0.173,1.129,0.322c0.363,0.151,0.682,0.348,0.959,0.586c0.276,0.24,0.498,0.523,0.666,0.85
		C641.226,272.201,641.31,272.572,641.31,272.988z M638.539,267.665c0-0.285-0.057-0.542-0.171-0.771
		c-0.113-0.228-0.295-0.423-0.544-0.586c-0.248-0.163-0.572-0.287-0.977-0.372c-0.402-0.086-0.889-0.128-1.458-0.128
		c-0.513,0-0.96,0.01-1.343,0.03c-0.384,0.02-0.763,0.055-1.136,0.104v3.54h2.466C637.484,269.484,638.539,268.877,638.539,267.665z
		 M639.064,273.036c0-0.636-0.287-1.113-0.861-1.436c-0.573-0.322-1.467-0.481-2.68-0.481h-2.611v3.747
		c0.398,0.064,0.793,0.109,1.185,0.135c0.391,0.024,0.838,0.037,1.343,0.037c0.724,0,1.32-0.05,1.788-0.146
		c0.469-0.098,0.838-0.235,1.111-0.416c0.271-0.179,0.461-0.391,0.566-0.635S639.064,273.329,639.064,273.036z"/>
	<path d="M649.354,272.718c0.276,0,0.539,0.054,0.788,0.159c0.248,0.104,0.463,0.252,0.646,0.438
		c0.184,0.188,0.327,0.405,0.435,0.653c0.104,0.248,0.158,0.515,0.158,0.799c0,0.277-0.054,0.537-0.158,0.781
		c-0.106,0.244-0.25,0.458-0.435,0.642c-0.184,0.184-0.397,0.327-0.646,0.434c-0.249,0.105-0.512,0.159-0.788,0.159
		c-0.285,0-0.55-0.054-0.794-0.159s-0.457-0.25-0.641-0.434c-0.185-0.184-0.328-0.396-0.435-0.642
		c-0.105-0.245-0.158-0.504-0.158-0.781c0-0.284,0.054-0.551,0.158-0.799c0.105-0.248,0.25-0.466,0.435-0.653
		c0.184-0.187,0.396-0.334,0.641-0.438C648.805,272.772,649.069,272.718,649.354,272.718z"/>
</g>
<g enable-background="new    ">
	<path d="M380.458,306.564h-2.733l-5.97-7.824v7.824h-2.173v-15.955h2.173v7.41l5.848-7.41h2.576l-6.3,7.581L380.458,306.564z"/>
	<path d="M391.249,306.564l-0.049-1.648c-0.667,0.66-1.345,1.137-2.033,1.43c-0.688,0.293-1.41,0.438-2.167,0.438
		c-0.7,0-1.298-0.09-1.794-0.269c-0.497-0.179-0.905-0.425-1.227-0.738c-0.322-0.313-0.559-0.682-0.708-1.104
		c-0.151-0.424-0.227-0.884-0.227-1.38c0-1.229,0.458-2.19,1.374-2.887c0.915-0.696,2.269-1.044,4.06-1.044h2.539v-1.074
		c0-0.725-0.232-1.304-0.696-1.738c-0.464-0.436-1.172-0.653-2.124-0.653c-0.692,0-1.374,0.077-2.044,0.231
		c-0.672,0.154-1.366,0.375-2.082,0.66v-1.917c0.269-0.099,0.568-0.193,0.896-0.287c0.33-0.094,0.679-0.178,1.045-0.25
		c0.365-0.073,0.748-0.133,1.146-0.178s0.801-0.066,1.208-0.066c0.74,0,1.408,0.081,2.002,0.244s1.097,0.411,1.507,0.745
		c0.411,0.333,0.728,0.752,0.946,1.257s0.33,1.099,0.33,1.781v8.447H391.249L391.249,306.564z M391.017,300.986h-2.698
		c-0.529,0-0.985,0.053-1.367,0.158c-0.383,0.104-0.696,0.256-0.939,0.451c-0.244,0.194-0.426,0.43-0.543,0.702
		c-0.118,0.272-0.178,0.58-0.178,0.922c0,0.235,0.037,0.462,0.11,0.678s0.19,0.407,0.354,0.573c0.163,0.167,0.374,0.299,0.636,0.396
		c0.26,0.099,0.578,0.146,0.951,0.146c0.488,0,1.049-0.147,1.679-0.445c0.631-0.297,1.296-0.767,1.996-1.41V300.986z"/>
	<path d="M408.143,306.564h-2.917l-5.713-6.567v6.567h-2.124v-12.256h2.124v5.604l5.505-5.604h2.808l-5.75,5.652L408.143,306.564z"
		/>
	<path d="M435.134,302.988c0,0.562-0.118,1.074-0.354,1.537c-0.236,0.465-0.603,0.861-1.099,1.19
		c-0.497,0.33-1.125,0.586-1.886,0.77c-0.762,0.184-1.666,0.274-2.717,0.274c-0.691,0-1.428-0.026-2.209-0.079
		c-0.78-0.055-1.533-0.124-2.258-0.214v-12.098c0.766-0.09,1.54-0.158,2.325-0.207c0.786-0.05,1.634-0.073,2.545-0.073
		c1.652,0,2.907,0.271,3.766,0.812c0.858,0.542,1.288,1.32,1.288,2.338c0,0.691-0.199,1.286-0.598,1.782
		c-0.399,0.496-1.001,0.862-1.807,1.099c0.391,0.065,0.767,0.174,1.129,0.323c0.361,0.151,0.682,0.347,0.958,0.586
		c0.275,0.24,0.499,0.523,0.666,0.85C435.051,302.2,435.134,302.572,435.134,302.988z M432.362,297.664
		c0-0.284-0.057-0.541-0.171-0.77c-0.114-0.228-0.295-0.423-0.543-0.586s-0.573-0.287-0.977-0.372
		c-0.402-0.086-0.89-0.128-1.458-0.128c-0.514,0-0.96,0.01-1.344,0.03c-0.383,0.021-0.761,0.055-1.135,0.104v3.54h2.466
		C431.308,299.484,432.362,298.877,432.362,297.664z M432.887,303.035c0-0.635-0.287-1.112-0.86-1.435
		c-0.574-0.321-1.467-0.482-2.68-0.482h-2.612v3.747c0.398,0.065,0.793,0.11,1.185,0.136c0.391,0.024,0.838,0.036,1.343,0.036
		c0.724,0,1.319-0.049,1.789-0.146c0.468-0.098,0.838-0.236,1.109-0.416c0.273-0.179,0.462-0.391,0.568-0.635
		C432.834,303.597,432.887,303.328,432.887,303.035z"/>
	<path d="M439.504,299.044c0.293-0.009,0.566-0.015,0.823-0.02c0.257-0.004,0.522-0.006,0.8-0.006c0.765,0,1.434,0.092,2.008,0.274
		c0.572,0.184,1.051,0.438,1.434,0.77c0.382,0.329,0.667,0.725,0.854,1.184c0.187,0.46,0.28,0.959,0.28,1.496
		c0,0.65-0.109,1.224-0.33,1.715c-0.22,0.492-0.532,0.905-0.939,1.238c-0.407,0.334-0.905,0.586-1.495,0.758
		c-0.59,0.17-1.292,0.256-2.106,0.256c-0.521,0-1.071-0.015-1.653-0.043c-0.582-0.027-1.174-0.087-1.776-0.177v-12.183h2.101
		L439.504,299.044L439.504,299.044z M443.508,302.804c0-0.644-0.201-1.143-0.604-1.495c-0.401-0.354-1.043-0.531-1.922-0.531
		c-0.236,0-0.476,0.004-0.72,0.013s-0.497,0.021-0.757,0.036v4.028c0.26,0.041,0.508,0.067,0.745,0.079
		c0.235,0.013,0.472,0.019,0.707,0.019c0.496,0,0.907-0.059,1.233-0.177c0.325-0.118,0.584-0.273,0.775-0.47
		c0.19-0.195,0.329-0.424,0.415-0.685C443.465,303.362,443.508,303.089,443.508,302.804z M447.048,306.564v-12.256h2.1v12.256
		H447.048z"/>
	<path d="M477.041,306.564h-2.101l-0.317-7.654l-0.134-2.722l-0.72,1.904l-2.295,5.565h-1.55l-2.209-5.347l-0.77-2.124l-0.098,2.881
		l-0.33,7.495h-2.026l0.781-12.256h2.82l2.1,5.285l0.574,1.575l0.574-1.575l2.147-5.285h2.783L477.041,306.564z"/>
	<path d="M490.26,300.338c0,0.951-0.134,1.824-0.403,2.617c-0.269,0.795-0.655,1.475-1.16,2.039
		c-0.505,0.565-1.119,1.006-1.843,1.318c-0.725,0.313-1.546,0.47-2.466,0.47c-0.879,0-1.667-0.137-2.362-0.409
		c-0.696-0.271-1.286-0.673-1.771-1.201c-0.484-0.529-0.854-1.186-1.11-1.967c-0.257-0.78-0.385-1.68-0.385-2.696
		c0-0.952,0.134-1.82,0.402-2.606c0.27-0.784,0.655-1.46,1.16-2.025c0.504-0.565,1.119-1.005,1.843-1.318
		c0.725-0.313,1.547-0.47,2.467-0.47c0.879,0,1.667,0.137,2.361,0.409c0.696,0.271,1.286,0.671,1.771,1.195
		c0.484,0.524,0.854,1.179,1.109,1.959C490.133,298.434,490.26,299.328,490.26,300.338z M488.088,300.436
		c0-0.757-0.083-1.418-0.25-1.983c-0.167-0.564-0.405-1.037-0.715-1.415c-0.31-0.379-0.686-0.663-1.129-0.854
		c-0.442-0.19-0.938-0.287-1.482-0.287c-0.635,0-1.178,0.124-1.629,0.372c-0.452,0.249-0.822,0.58-1.111,0.995
		s-0.5,0.896-0.635,1.446c-0.134,0.55-0.201,1.125-0.201,1.728c0,0.757,0.083,1.42,0.25,1.989s0.405,1.044,0.714,1.423
		c0.31,0.378,0.685,0.663,1.123,0.854c0.439,0.191,0.937,0.287,1.489,0.287c0.635,0,1.178-0.124,1.629-0.373
		c0.452-0.248,0.822-0.58,1.111-0.993c0.289-0.416,0.5-0.897,0.635-1.447C488.02,301.626,488.088,301.046,488.088,300.436z"/>
	<path d="M491.456,294.308h2.101l3.723,5.908v-5.908h1.953v5.908l3.723-5.908h2.101l-3.943,5.908l4.041,6.348h-2.319l-3.601-6.226
		v6.226h-1.953v-6.226l-3.601,6.226h-2.319l4.053-6.348L491.456,294.308z"/>
	<path d="M517.433,299.787c0,0.303-0.005,0.555-0.013,0.759c-0.01,0.202-0.021,0.395-0.036,0.572h-8.606
		c0,1.253,0.351,2.217,1.05,2.888c0.7,0.672,1.709,1.007,3.027,1.007c0.357,0,0.716-0.015,1.074-0.042
		c0.356-0.028,0.703-0.067,1.037-0.116s0.653-0.104,0.959-0.165c0.305-0.061,0.588-0.128,0.848-0.201v1.745
		c-0.578,0.163-1.23,0.296-1.959,0.397c-0.729,0.101-1.482,0.151-2.264,0.151c-1.051,0-1.954-0.143-2.71-0.427
		c-0.757-0.285-1.377-0.698-1.861-1.239s-0.843-1.204-1.074-1.989s-0.348-1.675-0.348-2.667c0-0.862,0.124-1.68,0.373-2.447
		c0.248-0.77,0.609-1.444,1.086-2.026s1.06-1.044,1.752-1.386c0.69-0.342,1.477-0.513,2.356-0.513c0.854,0,1.61,0.134,2.271,0.403
		c0.659,0.268,1.214,0.647,1.667,1.141c0.451,0.493,0.793,1.091,1.025,1.795C517.316,298.131,517.433,298.918,517.433,299.787z
		 M515.223,299.484c0.023-0.545-0.028-1.044-0.159-1.495c-0.13-0.451-0.331-0.841-0.604-1.165c-0.273-0.325-0.613-0.58-1.021-0.764
		s-0.879-0.274-1.416-0.274c-0.464,0-0.887,0.09-1.27,0.27c-0.384,0.179-0.712,0.431-0.989,0.756
		c-0.277,0.326-0.5,0.717-0.671,1.172c-0.171,0.456-0.277,0.957-0.317,1.502L515.223,299.484L515.223,299.484z"/>
	<path d="M531.47,296.139h-4.65v10.425h-2.147v-10.425h-4.65v-1.831h11.449L531.47,296.139L531.47,296.139z"/>
	<path d="M544.925,299.787c0,0.303-0.005,0.555-0.014,0.759c-0.009,0.202-0.021,0.395-0.036,0.572h-8.605
		c0,1.253,0.35,2.217,1.05,2.888c0.699,0.672,1.709,1.007,3.027,1.007c0.356,0,0.716-0.015,1.073-0.042
		c0.357-0.028,0.703-0.067,1.037-0.116s0.654-0.104,0.959-0.165c0.306-0.061,0.588-0.128,0.849-0.201v1.745
		c-0.578,0.163-1.23,0.296-1.959,0.397c-0.729,0.101-1.482,0.151-2.265,0.151c-1.051,0-1.952-0.143-2.711-0.427
		c-0.756-0.285-1.377-0.698-1.86-1.239c-0.484-0.541-0.843-1.204-1.074-1.989c-0.232-0.785-0.348-1.675-0.348-2.667
		c0-0.862,0.124-1.68,0.372-2.447c0.248-0.77,0.609-1.444,1.087-2.026c0.477-0.582,1.06-1.044,1.752-1.386
		c0.69-0.342,1.477-0.513,2.354-0.513c0.854,0,1.611,0.134,2.271,0.403c0.658,0.268,1.214,0.647,1.667,1.141
		c0.45,0.493,0.793,1.091,1.024,1.795C544.806,298.131,544.925,298.918,544.925,299.787z M542.715,299.484
		c0.023-0.545-0.028-1.044-0.159-1.495c-0.13-0.451-0.331-0.841-0.604-1.165c-0.272-0.325-0.612-0.58-1.02-0.764
		s-0.879-0.274-1.416-0.274c-0.464,0-0.887,0.09-1.271,0.27c-0.383,0.179-0.713,0.431-0.987,0.756
		c-0.277,0.326-0.501,0.717-0.672,1.172c-0.172,0.456-0.277,0.957-0.317,1.502L542.715,299.484L542.715,299.484z"/>
	<path d="M571.584,306.113c-0.555,0.211-1.12,0.368-1.702,0.47c-0.582,0.103-1.184,0.152-1.802,0.152
		c-1.938,0-3.428-0.523-4.475-1.575c-1.045-1.049-1.568-2.583-1.568-4.602c0-0.969,0.15-1.848,0.452-2.637s0.725-1.465,1.271-2.026
		c0.545-0.562,1.195-0.995,1.953-1.3c0.757-0.306,1.591-0.458,2.503-0.458c0.635,0,1.229,0.045,1.78,0.134
		c0.555,0.09,1.082,0.236,1.589,0.439v2.026c-0.529-0.276-1.068-0.479-1.617-0.604c-0.552-0.126-1.117-0.189-1.703-0.189
		c-0.546,0-1.062,0.104-1.545,0.313c-0.484,0.207-0.909,0.506-1.275,0.896c-0.366,0.391-0.655,0.867-0.867,1.429
		c-0.211,0.563-0.315,1.196-0.315,1.904c0,1.481,0.358,2.59,1.08,3.326c0.721,0.737,1.719,1.104,2.996,1.104
		c0.578,0,1.138-0.063,1.68-0.194c0.541-0.13,1.063-0.325,1.568-0.586v1.979H571.584z"/>
	<path d="M586.33,302.988c0,0.562-0.118,1.074-0.354,1.537c-0.236,0.465-0.604,0.861-1.099,1.19c-0.496,0.33-1.125,0.586-1.888,0.77
		c-0.76,0.184-1.666,0.274-2.715,0.274c-0.692,0-1.429-0.026-2.21-0.079c-0.781-0.055-1.534-0.124-2.259-0.214v-12.098
		c0.766-0.09,1.541-0.158,2.326-0.207c0.784-0.05,1.633-0.073,2.545-0.073c1.651,0,2.906,0.271,3.766,0.812
		c0.859,0.542,1.288,1.32,1.288,2.338c0,0.691-0.2,1.286-0.599,1.782c-0.399,0.496-1,0.862-1.808,1.099
		c0.392,0.065,0.769,0.174,1.129,0.323c0.363,0.151,0.683,0.347,0.959,0.586c0.276,0.24,0.498,0.523,0.666,0.85
		C586.246,302.2,586.33,302.572,586.33,302.988z M583.558,297.664c0-0.284-0.057-0.541-0.171-0.77
		c-0.114-0.228-0.295-0.423-0.544-0.586c-0.248-0.163-0.572-0.287-0.978-0.372c-0.401-0.086-0.889-0.128-1.458-0.128
		c-0.513,0-0.96,0.01-1.343,0.03c-0.383,0.02-0.762,0.055-1.135,0.104v3.54h2.465C582.505,299.484,583.558,298.877,583.558,297.664z
		 M584.084,303.035c0-0.635-0.286-1.112-0.86-1.435s-1.467-0.482-2.681-0.482h-2.61v3.747c0.397,0.065,0.793,0.11,1.184,0.136
		c0.392,0.024,0.838,0.036,1.343,0.036c0.725,0,1.32-0.049,1.788-0.146c0.47-0.098,0.839-0.236,1.111-0.416
		c0.272-0.179,0.461-0.391,0.567-0.635C584.03,303.597,584.084,303.328,584.084,303.035z"/>
	<path d="M590.321,303.024c0.27-0.569,0.563-1.001,0.886-1.294c0.32-0.293,0.727-0.488,1.215-0.586
		c-0.514-0.098-0.938-0.256-1.271-0.478c-0.334-0.219-0.601-0.474-0.8-0.763c-0.199-0.288-0.338-0.596-0.414-0.921
		c-0.078-0.326-0.117-0.646-0.117-0.965c0-0.537,0.09-1.042,0.271-1.514c0.178-0.472,0.467-0.883,0.865-1.232
		c0.398-0.351,0.922-0.627,1.569-0.83c0.646-0.204,1.572-0.306,2.776-0.306c0.675,0,1.343,0.022,2.002,0.067s1.306,0.1,1.939,0.164
		v12.194h-2.123v-4.748h-1.844c-0.285,0-0.576,0.026-0.873,0.079s-0.566,0.15-0.812,0.293s-0.467,0.327-0.665,0.556
		c-0.199,0.229-0.377,0.518-0.531,0.866l-1.343,2.954h-2.405L590.321,303.024z M591.994,297.993c0,0.7,0.238,1.226,0.713,1.575
		c0.478,0.351,1.184,0.524,2.119,0.524h2.295v-4.102c-0.351-0.032-0.688-0.058-1.014-0.073c-0.326-0.018-0.668-0.024-1.025-0.024
		c-0.699,0-1.231,0.047-1.6,0.142c-0.365,0.094-0.654,0.228-0.866,0.401c-0.212,0.176-0.368,0.39-0.47,0.643
		C592.046,297.331,591.994,297.636,591.994,297.993z"/>
	<path d="M602.969,304.365c0.357,0.099,0.74,0.185,1.146,0.256c0.406,0.074,0.811,0.14,1.209,0.195
		c0.398,0.059,0.783,0.102,1.152,0.129c0.371,0.028,0.703,0.043,0.996,0.043c0.69,0,1.268-0.045,1.727-0.135
		c0.46-0.09,0.826-0.218,1.101-0.385c0.271-0.166,0.465-0.37,0.578-0.61c0.114-0.239,0.172-0.511,0.172-0.812
		c0-0.293-0.052-0.561-0.152-0.801c-0.103-0.238-0.285-0.448-0.549-0.628c-0.267-0.18-0.625-0.317-1.081-0.416
		c-0.456-0.098-1.038-0.146-1.745-0.146h-3.004v-1.647h2.991c0.617,0,1.125-0.041,1.521-0.122c0.396-0.08,0.705-0.198,0.935-0.354
		c0.227-0.155,0.382-0.342,0.463-0.563c0.082-0.219,0.123-0.472,0.123-0.756c0-0.276-0.052-0.522-0.152-0.738
		c-0.104-0.215-0.271-0.398-0.508-0.549c-0.237-0.151-0.549-0.268-0.939-0.35c-0.391-0.081-0.875-0.121-1.453-0.121
		c-0.635,0-1.33,0.044-2.087,0.135c-0.757,0.09-1.514,0.22-2.271,0.391v-1.794c0.334-0.074,0.692-0.144,1.08-0.208
		c0.387-0.065,0.778-0.118,1.178-0.159c0.398-0.04,0.796-0.072,1.191-0.098c0.395-0.023,0.77-0.036,1.129-0.036
		c0.959,0,1.762,0.079,2.403,0.238c0.644,0.157,1.16,0.38,1.552,0.664c0.391,0.285,0.666,0.623,0.83,1.015
		c0.161,0.391,0.243,0.816,0.243,1.281c0,0.342-0.049,0.664-0.146,0.971c-0.098,0.305-0.249,0.58-0.452,0.823
		c-0.204,0.244-0.462,0.451-0.774,0.622c-0.313,0.171-0.689,0.293-1.13,0.366c0.439,0.065,0.848,0.173,1.222,0.323
		c0.374,0.151,0.697,0.351,0.97,0.599s0.488,0.543,0.647,0.886c0.158,0.342,0.237,0.731,0.237,1.172
		c0,0.537-0.104,1.036-0.312,1.495c-0.207,0.46-0.547,0.854-1.021,1.185c-0.472,0.329-1.094,0.588-1.867,0.775
		c-0.772,0.187-1.721,0.279-2.844,0.279c-0.302,0-0.633-0.011-0.996-0.029c-0.36-0.021-0.735-0.05-1.123-0.086
		c-0.386-0.036-0.767-0.081-1.141-0.135c-0.375-0.053-0.725-0.115-1.05-0.188V304.365z"/>
	<path d="M624.916,306.564l-0.049-1.648c-0.668,0.66-1.345,1.137-2.033,1.43c-0.688,0.293-1.408,0.438-2.166,0.438
		c-0.699,0-1.299-0.09-1.795-0.269c-0.495-0.179-0.903-0.425-1.227-0.738c-0.321-0.313-0.557-0.682-0.707-1.104
		c-0.151-0.424-0.227-0.884-0.227-1.38c0-1.229,0.457-2.19,1.373-2.887s2.269-1.044,4.059-1.044h2.539v-1.074
		c0-0.725-0.231-1.304-0.695-1.738c-0.464-0.436-1.172-0.653-2.124-0.653c-0.691,0-1.374,0.077-2.044,0.231
		c-0.672,0.154-1.366,0.375-2.082,0.66v-1.917c0.27-0.099,0.568-0.193,0.896-0.287c0.33-0.094,0.678-0.178,1.045-0.25
		c0.365-0.073,0.748-0.133,1.146-0.178c0.398-0.045,0.803-0.066,1.209-0.066c0.74,0,1.408,0.081,2.002,0.244
		c0.595,0.163,1.098,0.411,1.509,0.745c0.409,0.333,0.727,0.752,0.944,1.257c0.222,0.505,0.33,1.099,0.33,1.781v8.447H624.916
		L624.916,306.564z M624.683,300.986h-2.697c-0.529,0-0.984,0.053-1.367,0.158c-0.383,0.104-0.694,0.256-0.938,0.451
		c-0.244,0.194-0.427,0.43-0.543,0.702c-0.119,0.272-0.179,0.58-0.179,0.922c0,0.235,0.037,0.462,0.109,0.678
		c0.074,0.216,0.191,0.407,0.354,0.573c0.163,0.167,0.374,0.299,0.635,0.396c0.261,0.098,0.577,0.146,0.952,0.146
		c0.487,0,1.048-0.147,1.678-0.445c0.631-0.297,1.297-0.767,1.996-1.41V300.986L624.683,300.986z"/>
	<path d="M641.431,296.139h-4.65v10.425h-2.147v-10.425h-4.65v-1.831h11.449L641.431,296.139L641.431,296.139z"/>
	<path d="M646.73,298.935c0.203-0.009,0.406-0.015,0.609-0.02c0.203-0.004,0.41-0.008,0.623-0.013
		c0.211-0.004,0.436-0.008,0.672-0.012c0.234-0.004,0.492-0.006,0.769-0.006c1.888,0,3.29,0.322,4.206,0.97
		c0.914,0.647,1.373,1.593,1.373,2.839c0,1.334-0.484,2.337-1.453,3.009c-0.969,0.671-2.434,1.007-4.395,1.007
		c-0.888,0-1.691-0.019-2.41-0.055c-0.721-0.037-1.428-0.1-2.119-0.188v-12.158h2.125V298.935L646.73,298.935z M652.785,302.742
		c0-0.342-0.063-0.642-0.188-0.896c-0.127-0.257-0.328-0.473-0.604-0.647c-0.275-0.175-0.635-0.307-1.074-0.396
		c-0.438-0.089-0.969-0.135-1.587-0.135c-0.391,0-0.817,0.005-1.28,0.013c-0.465,0.008-0.904,0.021-1.318,0.036v4.09
		c0.414,0.041,0.815,0.071,1.201,0.092c0.387,0.021,0.813,0.03,1.275,0.03c0.685,0,1.254-0.043,1.709-0.128
		c0.456-0.086,0.821-0.216,1.1-0.392c0.275-0.175,0.475-0.4,0.592-0.678C652.725,303.454,652.785,303.125,652.785,302.742z"/>
</g>
<g enable-background="new    ">
	<path d="M453.176,329.484c-0.058-0.578-0.197-1.115-0.421-1.611c-0.225-0.495-0.521-0.896-0.892-1.195
		c-0.371-0.301-0.82-0.518-1.349-0.647c-0.529-0.13-1.091-0.194-1.686-0.194c-0.658,0-1.294,0.064-1.903,0.194
		c-0.61,0.131-1.192,0.326-1.746,0.586v-1.903c0.602-0.211,1.227-0.367,1.874-0.471c0.646-0.102,1.312-0.151,1.996-0.151
		c1.058,0,1.987,0.139,2.79,0.415c0.801,0.275,1.469,0.682,2.002,1.215s0.934,1.188,1.202,1.965s0.402,1.671,0.402,2.68
		c0,1.05-0.14,1.979-0.421,2.783c-0.28,0.806-0.702,1.481-1.263,2.026c-0.562,0.545-1.245,0.949-2.051,1.215
		c-0.807,0.264-1.727,0.396-2.76,0.396c-0.716,0-1.385-0.045-2.008-0.134c-0.622-0.09-1.21-0.236-1.764-0.438v-1.967
		c0.578,0.276,1.174,0.479,1.788,0.604c0.615,0.126,1.243,0.188,1.886,0.188c1.408,0,2.466-0.329,3.174-0.988
		s1.106-1.619,1.196-2.882H445.9v-1.685H453.176L453.176,329.484z"/>
	<path d="M469.618,326.139h-4.65v10.425h-2.148v-10.425h-4.651v-1.831h11.45V326.139z"/>
	<path d="M475.013,324.308v8.631l5.347-8.631h2.026v12.256h-2.124v-8.631l-5.348,8.631h-2.025v-12.256H475.013z"/>
	<path d="M509.73,336.113c-0.554,0.211-1.121,0.368-1.703,0.47c-0.582,0.103-1.182,0.152-1.8,0.152
		c-1.937,0-3.428-0.523-4.474-1.575c-1.045-1.049-1.568-2.583-1.568-4.602c0-0.969,0.15-1.848,0.452-2.637
		c0.301-0.789,0.724-1.466,1.27-2.026c0.545-0.563,1.196-0.995,1.953-1.3c0.757-0.307,1.591-0.458,2.502-0.458
		c0.636,0,1.229,0.045,1.782,0.134c0.553,0.09,1.082,0.236,1.587,0.439v2.026c-0.529-0.276-1.067-0.479-1.617-0.604
		c-0.55-0.126-1.116-0.189-1.703-0.189c-0.545,0-1.06,0.104-1.544,0.313c-0.483,0.207-0.91,0.506-1.275,0.896
		c-0.366,0.391-0.655,0.867-0.867,1.429c-0.212,0.563-0.317,1.196-0.317,1.904c0,1.481,0.36,2.59,1.08,3.326
		c0.722,0.737,1.72,1.104,2.997,1.104c0.578,0,1.137-0.063,1.679-0.194c0.541-0.13,1.063-0.325,1.568-0.586L509.73,336.113
		L509.73,336.113z"/>
	<path d="M523.695,336.564h-2.124v-10.425h-3.418c-0.098,1.677-0.242,3.112-0.434,4.31c-0.19,1.195-0.421,2.195-0.689,2.996
		c-0.269,0.802-0.573,1.434-0.915,1.894s-0.711,0.793-1.104,1.001c-0.396,0.207-0.813,0.309-1.251,0.305
		c-0.439-0.004-0.893-0.063-1.355-0.177l0.099-1.758c0.323,0.031,0.63,0.017,0.915-0.05c0.283-0.064,0.55-0.222,0.794-0.47
		c0.243-0.248,0.465-0.605,0.665-1.074c0.198-0.468,0.38-1.093,0.543-1.874c0.162-0.78,0.304-1.738,0.421-2.875
		c0.118-1.135,0.214-2.487,0.287-4.059h7.567V336.564z"/>
	<path d="M538.368,330.338c0,0.951-0.134,1.824-0.402,2.617c-0.269,0.795-0.654,1.475-1.159,2.039
		c-0.505,0.565-1.119,1.006-1.843,1.318c-0.726,0.313-1.548,0.47-2.468,0.47c-0.879,0-1.666-0.137-2.36-0.409
		c-0.696-0.271-1.286-0.673-1.771-1.201c-0.482-0.529-0.854-1.186-1.109-1.967c-0.258-0.78-0.386-1.68-0.386-2.696
		c0-0.952,0.136-1.82,0.402-2.606c0.27-0.785,0.655-1.46,1.16-2.025c0.504-0.565,1.119-1.006,1.844-1.318
		c0.724-0.313,1.545-0.47,2.465-0.47c0.879,0,1.667,0.137,2.362,0.409c0.696,0.271,1.286,0.671,1.771,1.195s0.854,1.178,1.11,1.959
		C538.24,328.434,538.368,329.328,538.368,330.338z M536.195,330.436c0-0.757-0.084-1.418-0.25-1.983
		c-0.167-0.564-0.405-1.038-0.715-1.416c-0.309-0.379-0.686-0.663-1.129-0.854c-0.443-0.191-0.938-0.287-1.482-0.287
		c-0.635,0-1.179,0.124-1.63,0.372c-0.452,0.249-0.822,0.58-1.11,0.995s-0.5,0.896-0.636,1.446c-0.134,0.55-0.201,1.125-0.201,1.728
		c0,0.757,0.083,1.42,0.25,1.989s0.405,1.044,0.715,1.423c0.31,0.378,0.684,0.663,1.122,0.854c0.439,0.191,0.937,0.287,1.49,0.287
		c0.635,0,1.178-0.124,1.629-0.373c0.452-0.248,0.822-0.58,1.111-0.993c0.289-0.416,0.5-0.897,0.635-1.447
		S536.195,331.046,536.195,330.436z"/>
	<path d="M551.968,332.988c0,0.562-0.118,1.074-0.354,1.537c-0.236,0.465-0.604,0.861-1.1,1.19c-0.496,0.33-1.125,0.586-1.886,0.77
		c-0.762,0.184-1.666,0.274-2.717,0.274c-0.69,0-1.428-0.026-2.209-0.079c-0.78-0.055-1.534-0.124-2.259-0.214v-12.099
		c0.766-0.089,1.54-0.157,2.325-0.207c0.785-0.049,1.634-0.072,2.545-0.072c1.652,0,2.908,0.271,3.767,0.812
		c0.858,0.542,1.288,1.32,1.288,2.338c0,0.691-0.199,1.286-0.599,1.782c-0.398,0.496-1.001,0.862-1.807,1.099
		c0.391,0.065,0.767,0.174,1.129,0.323c0.361,0.151,0.682,0.347,0.958,0.586c0.276,0.24,0.499,0.523,0.666,0.85
		C551.884,332.2,551.968,332.572,551.968,332.988z M549.195,327.664c0-0.284-0.057-0.542-0.17-0.77
		c-0.115-0.228-0.295-0.423-0.544-0.586c-0.248-0.163-0.573-0.287-0.977-0.372c-0.402-0.086-0.891-0.128-1.458-0.128
		c-0.515,0-0.961,0.01-1.345,0.03c-0.383,0.02-0.761,0.055-1.135,0.104v3.54h2.466C548.141,329.484,549.195,328.877,549.195,327.664
		z M549.72,333.035c0-0.635-0.287-1.112-0.86-1.435c-0.574-0.321-1.468-0.482-2.68-0.482h-2.612v3.747
		c0.398,0.065,0.793,0.11,1.185,0.136c0.391,0.024,0.838,0.036,1.344,0.036c0.724,0,1.319-0.049,1.788-0.146
		c0.468-0.097,0.838-0.236,1.109-0.416c0.273-0.179,0.462-0.391,0.568-0.635S549.72,333.328,549.72,333.035z"/>
	<path d="M563.062,336.564l-0.049-1.648c-0.667,0.66-1.344,1.137-2.032,1.43c-0.688,0.293-1.409,0.438-2.167,0.438
		c-0.699,0-1.298-0.09-1.794-0.269c-0.497-0.179-0.905-0.425-1.227-0.738c-0.322-0.313-0.559-0.682-0.708-1.104
		c-0.15-0.424-0.228-0.884-0.228-1.38c0-1.229,0.458-2.19,1.374-2.887c0.915-0.696,2.27-1.044,4.06-1.044h2.538v-1.074
		c0-0.725-0.23-1.304-0.695-1.738c-0.463-0.437-1.172-0.653-2.123-0.653c-0.692,0-1.374,0.077-2.045,0.23
		c-0.672,0.155-1.365,0.375-2.082,0.66v-1.917c0.27-0.098,0.568-0.192,0.896-0.287c0.33-0.093,0.679-0.177,1.044-0.25
		c0.366-0.072,0.748-0.132,1.147-0.177c0.398-0.045,0.802-0.066,1.208-0.066c0.74,0,1.408,0.081,2.002,0.243
		c0.594,0.163,1.098,0.411,1.508,0.745c0.411,0.333,0.728,0.752,0.946,1.257c0.219,0.506,0.329,1.1,0.329,1.782v8.447H563.062
		L563.062,336.564z M562.831,330.986h-2.697c-0.529,0-0.984,0.053-1.367,0.158c-0.383,0.104-0.695,0.256-0.939,0.451
		c-0.244,0.194-0.426,0.43-0.543,0.702c-0.118,0.272-0.178,0.58-0.178,0.922c0,0.235,0.037,0.462,0.11,0.678
		c0.072,0.216,0.189,0.407,0.354,0.573c0.162,0.167,0.373,0.299,0.635,0.396c0.261,0.099,0.577,0.146,0.951,0.146
		c0.488,0,1.049-0.147,1.68-0.445c0.631-0.297,1.296-0.767,1.995-1.41V330.986L562.831,330.986z"/>
	<path d="M578.236,324.736c0,1.318-0.366,2.317-1.099,2.996c-0.732,0.68-1.794,1.064-3.188,1.154l-0.098,3.002h-1.818l-0.157-4.675
		h1.428c0.496,0,0.911-0.054,1.245-0.159c0.333-0.105,0.603-0.256,0.806-0.451s0.35-0.434,0.439-0.714
		c0.09-0.281,0.135-0.597,0.135-0.946c0-0.594-0.123-1.123-0.367-1.587s-0.586-0.854-1.025-1.172
		c-0.438-0.318-0.962-0.558-1.567-0.72c-0.605-0.163-1.269-0.244-1.983-0.244h-0.306v-1.904h0.33c0.821,0,1.571,0.077,2.252,0.231
		c0.68,0.153,1.286,0.363,1.818,0.629c0.532,0.265,0.997,0.575,1.393,0.934c0.395,0.359,0.725,0.736,0.988,1.136
		c0.265,0.398,0.46,0.813,0.586,1.238C578.175,323.91,578.236,324.327,578.236,324.736z M572.927,333.561
		c0.229,0,0.438,0.043,0.635,0.128c0.195,0.086,0.365,0.201,0.507,0.348c0.144,0.146,0.255,0.32,0.336,0.521
		s0.122,0.408,0.122,0.629c0,0.219-0.041,0.427-0.122,0.622s-0.192,0.364-0.336,0.507c-0.142,0.143-0.312,0.256-0.507,0.342
		c-0.195,0.085-0.406,0.128-0.635,0.128c-0.22,0-0.427-0.043-0.622-0.128c-0.195-0.086-0.366-0.199-0.514-0.342
		c-0.146-0.143-0.261-0.312-0.342-0.507c-0.082-0.195-0.122-0.403-0.122-0.622c0-0.221,0.04-0.43,0.122-0.629
		c0.081-0.199,0.195-0.373,0.342-0.521c0.147-0.146,0.317-0.262,0.514-0.348C572.5,333.604,572.707,333.561,572.927,333.561z"/>
</g>
</svg>
