<?xml version="1.0" encoding="utf-8"?>
<!-- Generator: Adobe Illustrator 15.1.0, SVG Export Plug-In . SVG Version: 6.00 Build 0)  -->
<!DOCTYPE svg PUBLIC "-//W3C//DTD SVG 1.1//EN" "http://www.w3.org/Graphics/SVG/1.1/DTD/svg11.dtd">
<svg version="1.1" id="Layer_1" xmlns="http://www.w3.org/2000/svg" xmlns:xlink="http://www.w3.org/1999/xlink" x="0px" y="0px"
	 width="1024px" height="600px" viewBox="0 0 1024 600" enable-background="new 0 0 1024 600" xml:space="preserve">
<rect x="40" y="473" opacity="0.93" fill="#FFFFFF" enable-background="new    " width="944" height="103"/>
<g enable-background="new    ">
	<path d="M126.173,501.879h-2.732l-5.969-7.824v7.824h-2.175v-15.955h2.175v7.41l5.847-7.41h2.576l-6.299,7.581L126.173,501.879z"/>
	<path d="M136.964,501.879l-0.049-1.648c-0.667,0.66-1.345,1.136-2.033,1.429c-0.688,0.293-1.408,0.439-2.167,0.439
		c-0.698,0-1.298-0.09-1.794-0.271c-0.497-0.179-0.903-0.425-1.227-0.736c-0.322-0.313-0.558-0.684-0.708-1.105
		c-0.151-0.423-0.228-0.883-0.228-1.379c0-1.229,0.458-2.191,1.374-2.887c0.915-0.696,2.27-1.044,4.061-1.044h2.539v-1.074
		c0-0.726-0.232-1.304-0.696-1.739c-0.464-0.435-1.172-0.652-2.124-0.652c-0.69,0-1.374,0.076-2.044,0.23
		c-0.672,0.155-1.366,0.375-2.082,0.66v-1.917c0.271-0.099,0.568-0.193,0.897-0.287c0.33-0.093,0.678-0.177,1.044-0.25
		c0.365-0.073,0.749-0.132,1.146-0.177c0.398-0.045,0.801-0.067,1.208-0.067c0.74,0,1.408,0.081,2.002,0.244
		c0.596,0.163,1.099,0.411,1.507,0.745c0.411,0.333,0.729,0.752,0.946,1.257s0.33,1.099,0.33,1.782v8.447H136.964L136.964,501.879z
		 M136.732,496.301h-2.698c-0.529,0-0.985,0.053-1.367,0.158c-0.383,0.104-0.694,0.256-0.938,0.449
		c-0.244,0.195-0.426,0.432-0.543,0.702c-0.118,0.273-0.179,0.58-0.179,0.922c0,0.236,0.037,0.462,0.11,0.68
		c0.073,0.216,0.191,0.405,0.354,0.571c0.161,0.167,0.374,0.3,0.635,0.396c0.26,0.098,0.578,0.146,0.952,0.146
		c0.486,0,1.048-0.146,1.678-0.443c0.631-0.299,1.296-0.769,1.996-1.41V496.301L136.732,496.301z"/>
	<path d="M153.309,495.531c0,1.091-0.152,2.043-0.458,2.856c-0.307,0.813-0.728,1.489-1.265,2.024
		c-0.537,0.537-1.172,0.939-1.902,1.209c-0.732,0.27-1.526,0.402-2.38,0.402c-0.393,0-0.779-0.021-1.166-0.061
		c-0.388-0.041-0.779-0.11-1.18-0.208v5.127h-2.124v-17.262h1.894l0.134,2.053c0.61-0.838,1.261-1.428,1.953-1.766
		c0.689-0.338,1.438-0.507,2.246-0.507c0.7,0,1.313,0.146,1.843,0.439s0.972,0.706,1.331,1.237c0.358,0.533,0.626,1.178,0.806,1.931
		C153.219,493.764,153.309,494.604,153.309,495.531z M151.136,495.629c0-0.645-0.049-1.232-0.143-1.771
		c-0.093-0.537-0.242-0.997-0.445-1.38c-0.202-0.383-0.464-0.682-0.779-0.897c-0.317-0.215-0.696-0.321-1.137-0.321
		c-0.269,0-0.542,0.043-0.816,0.128c-0.277,0.086-0.563,0.229-0.86,0.428s-0.608,0.464-0.938,0.793
		c-0.329,0.33-0.684,0.738-1.058,1.229v5.943c0.393,0.163,0.803,0.291,1.233,0.385c0.431,0.096,0.854,0.143,1.27,0.143
		c1.147,0,2.046-0.391,2.698-1.166C150.81,498.362,151.136,497.192,151.136,495.629z"/>
	<path d="M167.225,491.452h-4.651v10.427h-2.148v-10.427h-4.649v-1.831h11.45L167.225,491.452L167.225,491.452z"/>
	<path d="M172.62,489.621v8.633l5.347-8.633h2.026v12.258h-2.124v-8.633l-5.347,8.633h-2.026v-12.258H172.62z"/>
	<path d="M193.922,501.879h-2.124v-5.42h-5.603v5.42h-2.124v-12.258h2.124v4.98h5.603v-4.98h2.124V501.879z"/>
	<path d="M208.839,501.879h-2.917l-5.713-6.567v6.567h-2.124v-12.258h2.124v5.604l5.505-5.604h2.81l-5.75,5.652L208.839,501.879z"/>
	<path d="M219.434,501.879l-0.049-1.648c-0.667,0.66-1.347,1.136-2.033,1.429c-0.688,0.293-1.41,0.439-2.167,0.439
		c-0.7,0-1.298-0.09-1.794-0.271c-0.497-0.179-0.905-0.425-1.229-0.736c-0.322-0.313-0.558-0.684-0.708-1.105
		c-0.149-0.422-0.226-0.883-0.226-1.379c0-1.229,0.458-2.191,1.374-2.887c0.915-0.696,2.268-1.044,4.059-1.044h2.539v-1.074
		c0-0.726-0.23-1.304-0.696-1.739c-0.464-0.435-1.172-0.652-2.124-0.652c-0.69,0-1.374,0.076-2.044,0.23
		c-0.672,0.155-1.364,0.375-2.082,0.66v-1.917c0.271-0.099,0.568-0.193,0.897-0.287c0.33-0.093,0.678-0.177,1.044-0.25
		s0.749-0.132,1.147-0.177c0.396-0.045,0.801-0.067,1.208-0.067c0.738,0,1.406,0.081,2.002,0.244
		c0.594,0.163,1.097,0.411,1.507,0.745c0.411,0.333,0.727,0.752,0.944,1.257c0.221,0.505,0.33,1.099,0.33,1.782v8.447H219.434
		L219.434,501.879z M219.202,496.301h-2.698c-0.527,0-0.983,0.053-1.365,0.158c-0.385,0.104-0.696,0.256-0.94,0.449
		c-0.244,0.195-0.425,0.432-0.543,0.702c-0.118,0.273-0.177,0.58-0.177,0.922c0,0.236,0.037,0.462,0.108,0.68
		c0.073,0.216,0.191,0.405,0.354,0.571c0.163,0.167,0.374,0.3,0.635,0.396c0.26,0.098,0.578,0.146,0.952,0.146
		c0.488,0,1.048-0.146,1.678-0.443c0.631-0.299,1.296-0.769,1.996-1.41V496.301L219.202,496.301z"/>
	<path d="M248.573,501.428c-0.554,0.211-1.121,0.368-1.703,0.47c-0.582,0.104-1.182,0.152-1.8,0.152
		c-1.938,0-3.428-0.524-4.474-1.575c-1.047-1.049-1.568-2.583-1.568-4.604c0-0.969,0.15-1.848,0.452-2.637
		c0.301-0.789,0.724-1.465,1.27-2.024c0.545-0.563,1.196-0.995,1.953-1.302c0.757-0.306,1.591-0.458,2.502-0.458
		c0.635,0,1.229,0.045,1.782,0.136c0.553,0.09,1.082,0.234,1.587,0.438v2.027c-0.529-0.277-1.068-0.479-1.617-0.604
		c-0.55-0.126-1.117-0.188-1.703-0.188c-0.545,0-1.06,0.104-1.544,0.312c-0.482,0.207-0.91,0.506-1.274,0.896
		c-0.366,0.39-0.655,0.867-0.867,1.429c-0.212,0.563-0.317,1.196-0.317,1.904c0,1.479,0.36,2.59,1.08,3.326
		c0.722,0.735,1.719,1.104,2.997,1.104c0.578,0,1.137-0.063,1.679-0.195c0.541-0.13,1.063-0.323,1.568-0.586L248.573,501.428
		L248.573,501.428z"/>
	<path d="M263.465,495.654c0,0.952-0.134,1.825-0.401,2.618c-0.271,0.794-0.655,1.474-1.16,2.039s-1.119,1.005-1.843,1.318
		c-0.727,0.313-1.546,0.47-2.468,0.47c-0.879,0-1.667-0.137-2.36-0.409c-0.696-0.271-1.286-0.673-1.771-1.202
		c-0.482-0.527-0.854-1.185-1.108-1.966c-0.258-0.781-0.387-1.68-0.387-2.697c0-0.952,0.136-1.818,0.403-2.604
		c0.271-0.785,0.655-1.46,1.16-2.026c0.504-0.563,1.119-1.005,1.843-1.316c0.726-0.313,1.546-0.472,2.466-0.472
		c0.879,0,1.667,0.139,2.362,0.409c0.696,0.272,1.286,0.671,1.771,1.196c0.482,0.522,0.854,1.178,1.108,1.959
		C263.337,493.747,263.465,494.645,263.465,495.654z M261.292,495.751c0-0.759-0.083-1.42-0.25-1.983
		c-0.167-0.565-0.403-1.038-0.714-1.416c-0.31-0.379-0.686-0.663-1.129-0.854c-0.443-0.189-0.938-0.285-1.483-0.285
		c-0.635,0-1.178,0.124-1.629,0.372c-0.45,0.248-0.82,0.578-1.109,0.993s-0.5,0.897-0.637,1.446
		c-0.134,0.55-0.199,1.125-0.199,1.729c0,0.757,0.083,1.42,0.25,1.987c0.167,0.57,0.403,1.044,0.714,1.424
		c0.309,0.379,0.684,0.662,1.123,0.854c0.438,0.191,0.936,0.287,1.487,0.287c0.637,0,1.18-0.124,1.631-0.373
		c0.45-0.248,0.82-0.58,1.109-0.994c0.289-0.416,0.5-0.896,0.635-1.447C261.225,496.942,261.292,496.362,261.292,495.751z"/>
	<path d="M276.063,501.428c-0.556,0.211-1.121,0.368-1.703,0.47c-0.582,0.104-1.182,0.152-1.8,0.152
		c-1.938,0-3.43-0.524-4.476-1.575c-1.045-1.049-1.566-2.583-1.566-4.604c0-0.969,0.148-1.848,0.452-2.637
		c0.301-0.789,0.724-1.465,1.27-2.024c0.545-0.563,1.196-0.995,1.953-1.302c0.757-0.306,1.591-0.458,2.502-0.458
		c0.635,0,1.229,0.045,1.782,0.136c0.553,0.09,1.082,0.234,1.587,0.438v2.027c-0.529-0.277-1.068-0.479-1.617-0.604
		c-0.55-0.126-1.117-0.188-1.703-0.188c-0.545,0-1.06,0.104-1.544,0.312c-0.484,0.207-0.91,0.506-1.276,0.896
		c-0.364,0.39-0.653,0.867-0.865,1.429c-0.212,0.563-0.317,1.196-0.317,1.904c0,1.479,0.36,2.59,1.08,3.326
		c0.721,0.735,1.719,1.104,2.997,1.104c0.578,0,1.137-0.063,1.679-0.195c0.541-0.13,1.063-0.323,1.568-0.586L276.063,501.428
		L276.063,501.428z"/>
	<path d="M290.931,491.452h-4.651v10.427h-2.148v-10.427h-4.649v-1.831h11.45L290.931,491.452L290.931,491.452z"/>
	<path d="M304.7,495.654c0,0.952-0.134,1.825-0.403,2.618c-0.269,0.794-0.653,1.474-1.158,2.039
		c-0.507,0.565-1.119,1.005-1.845,1.318c-0.725,0.313-1.546,0.47-2.466,0.47c-0.879,0-1.667-0.137-2.362-0.409
		c-0.694-0.271-1.284-0.673-1.771-1.202c-0.484-0.527-0.854-1.185-1.11-1.966c-0.257-0.781-0.385-1.68-0.385-2.697
		c0-0.952,0.134-1.818,0.403-2.604c0.269-0.785,0.653-1.46,1.16-2.026c0.504-0.563,1.117-1.005,1.843-1.316
		c0.724-0.313,1.546-0.472,2.466-0.472c0.879,0,1.667,0.139,2.362,0.409c0.694,0.272,1.286,0.671,1.771,1.196
		c0.484,0.522,0.854,1.178,1.11,1.959C304.573,493.747,304.7,494.645,304.7,495.654z M302.528,495.751
		c0-0.759-0.083-1.42-0.25-1.983c-0.167-0.565-0.405-1.038-0.714-1.416c-0.312-0.379-0.688-0.663-1.129-0.854
		c-0.443-0.189-0.938-0.285-1.483-0.285c-0.635,0-1.178,0.124-1.629,0.372c-0.452,0.248-0.822,0.578-1.111,0.993
		s-0.5,0.897-0.635,1.446c-0.134,0.55-0.201,1.125-0.201,1.729c0,0.757,0.083,1.42,0.25,1.987c0.167,0.57,0.405,1.044,0.714,1.424
		c0.311,0.379,0.686,0.662,1.123,0.854c0.439,0.191,0.938,0.287,1.489,0.287c0.635,0,1.178-0.124,1.629-0.373
		c0.452-0.248,0.822-0.58,1.111-0.994c0.289-0.416,0.5-0.896,0.635-1.447C302.46,496.942,302.528,496.362,302.528,495.751z"/>
	<path d="M310.072,489.621v8.633l5.347-8.633h2.026v12.258h-2.124v-8.633l-5.347,8.633h-2.026v-12.258H310.072z"/>
	<path d="M332.166,491.452h-4.649v10.427h-2.148v-10.427h-4.651v-1.831h11.45L332.166,491.452L332.166,491.452z"/>
	<path d="M351.307,489.621v8.633l5.347-8.633h2.026v12.258h-2.124v-8.633l-5.349,8.633h-2.024v-12.258H351.307z"/>
	<path d="M362.427,499.682c0.356,0.098,0.738,0.184,1.146,0.256c0.407,0.074,0.81,0.139,1.208,0.195
		c0.398,0.058,0.783,0.101,1.153,0.129c0.371,0.026,0.702,0.043,0.995,0.043c0.689,0,1.268-0.045,1.728-0.135
		c0.459-0.092,0.826-0.22,1.099-0.387c0.272-0.166,0.467-0.37,0.58-0.608c0.114-0.239,0.171-0.513,0.171-0.813
		c0-0.293-0.051-0.56-0.151-0.8c-0.104-0.239-0.285-0.449-0.549-0.628c-0.267-0.18-0.625-0.318-1.081-0.416
		s-1.038-0.146-1.746-0.146h-3.003v-1.646h2.989c0.618,0,1.125-0.041,1.521-0.122c0.395-0.081,0.706-0.199,0.934-0.354
		c0.229-0.155,0.382-0.344,0.464-0.563c0.081-0.219,0.122-0.472,0.122-0.756c0-0.277-0.051-0.523-0.15-0.739
		c-0.104-0.215-0.271-0.396-0.507-0.549c-0.236-0.15-0.551-0.267-0.94-0.349c-0.391-0.081-0.875-0.121-1.453-0.121
		c-0.635,0-1.331,0.044-2.087,0.134s-1.514,0.22-2.271,0.391v-1.794c0.333-0.074,0.692-0.143,1.079-0.208
		c0.388-0.063,0.779-0.118,1.18-0.159c0.396-0.04,0.795-0.07,1.188-0.098c0.396-0.023,0.771-0.036,1.129-0.036
		c0.96,0,1.764,0.079,2.405,0.238c0.645,0.158,1.16,0.38,1.55,0.665c0.392,0.285,0.667,0.623,0.83,1.014
		c0.163,0.393,0.244,0.817,0.244,1.281c0,0.342-0.049,0.665-0.146,0.971c-0.1,0.307-0.249,0.58-0.452,0.824
		c-0.204,0.244-0.462,0.451-0.775,0.622c-0.313,0.171-0.688,0.293-1.129,0.366c0.439,0.063,0.846,0.173,1.221,0.322
		c0.374,0.15,0.698,0.352,0.972,0.6c0.272,0.248,0.486,0.543,0.646,0.885c0.158,0.342,0.238,0.732,0.238,1.172
		c0,0.537-0.104,1.036-0.313,1.495c-0.208,0.46-0.548,0.854-1.02,1.187c-0.472,0.327-1.095,0.588-1.868,0.773
		c-0.771,0.188-1.721,0.28-2.844,0.28c-0.301,0-0.633-0.011-0.995-0.03c-0.362-0.021-0.736-0.049-1.123-0.086
		c-0.386-0.036-0.767-0.081-1.141-0.134c-0.375-0.053-0.727-0.116-1.052-0.189v-1.977L362.427,499.682L362.427,499.682z"/>
	<path d="M400.892,491.452h-4.651v10.427h-2.148v-10.427h-4.649v-1.831h11.45L400.892,491.452L400.892,491.452z"/>
	<path d="M405.14,494.36c0.293-0.008,0.565-0.014,0.822-0.019c0.258-0.004,0.522-0.007,0.801-0.007c0.765,0,1.434,0.093,2.008,0.273
		c0.573,0.184,1.051,0.439,1.434,0.771c0.382,0.327,0.667,0.725,0.854,1.184c0.187,0.46,0.279,0.959,0.279,1.496
		c0,0.648-0.108,1.223-0.329,1.715s-0.532,0.905-0.939,1.238c-0.407,0.334-0.905,0.586-1.495,0.758
		c-0.59,0.17-1.292,0.256-2.104,0.256c-0.521,0-1.072-0.015-1.654-0.043s-1.174-0.087-1.776-0.177v-12.185h2.102L405.14,494.36
		L405.14,494.36z M409.144,498.117c0-0.643-0.201-1.142-0.604-1.495c-0.4-0.354-1.043-0.529-1.922-0.529
		c-0.236,0-0.476,0.004-0.72,0.013c-0.244,0.008-0.497,0.021-0.757,0.036v4.028c0.26,0.041,0.508,0.065,0.745,0.078
		c0.234,0.014,0.472,0.02,0.708,0.02c0.494,0,0.905-0.059,1.231-0.177c0.325-0.118,0.584-0.274,0.775-0.472
		c0.189-0.193,0.329-0.424,0.415-0.684C409.101,498.677,409.144,498.405,409.144,498.117z M412.684,501.879v-12.258h2.1v12.258
		H412.684z"/>
	<path d="M427.26,501.428c-0.556,0.211-1.121,0.368-1.703,0.47c-0.582,0.104-1.183,0.152-1.8,0.152c-1.938,0-3.43-0.524-4.476-1.575
		c-1.045-1.049-1.568-2.583-1.568-4.604c0-0.969,0.15-1.848,0.452-2.637c0.301-0.789,0.726-1.465,1.271-2.024
		c0.545-0.563,1.194-0.995,1.953-1.302c0.757-0.306,1.591-0.458,2.502-0.458c0.635,0,1.229,0.045,1.782,0.136
		c0.553,0.09,1.082,0.234,1.587,0.438v2.027c-0.529-0.277-1.068-0.479-1.617-0.604c-0.55-0.126-1.117-0.188-1.703-0.188
		c-0.545,0-1.06,0.104-1.544,0.312c-0.484,0.207-0.91,0.506-1.276,0.896c-0.366,0.39-0.655,0.867-0.867,1.429
		c-0.212,0.563-0.315,1.196-0.315,1.904c0,1.479,0.358,2.59,1.08,3.326c0.721,0.735,1.719,1.104,2.997,1.104
		c0.578,0,1.137-0.063,1.679-0.195c0.541-0.13,1.063-0.323,1.568-0.586L427.26,501.428L427.26,501.428z"/>
	<path d="M432.254,498.339c0.269-0.569,0.563-1.001,0.885-1.294c0.32-0.293,0.726-0.488,1.214-0.586
		c-0.513-0.1-0.937-0.258-1.271-0.479c-0.335-0.219-0.601-0.474-0.8-0.763c-0.2-0.288-0.338-0.598-0.415-0.921
		c-0.078-0.326-0.114-0.647-0.114-0.967c0-0.535,0.089-1.041,0.269-1.514c0.179-0.472,0.468-0.883,0.867-1.23
		c0.396-0.353,0.921-0.627,1.568-0.83c0.646-0.204,1.571-0.308,2.776-0.308c0.675,0,1.343,0.022,2.002,0.067s1.306,0.1,1.941,0.164
		v12.195h-2.124v-4.748h-1.843c-0.285,0-0.576,0.024-0.873,0.078c-0.298,0.054-0.568,0.149-0.813,0.293
		c-0.244,0.144-0.466,0.326-0.666,0.557c-0.199,0.228-0.376,0.517-0.531,0.866l-1.343,2.954h-2.403L432.254,498.339z
		 M433.926,493.31c0,0.7,0.236,1.225,0.714,1.575c0.477,0.35,1.182,0.522,2.118,0.522h2.295v-4.102
		c-0.352-0.032-0.688-0.058-1.015-0.073c-0.325-0.016-0.667-0.022-1.023-0.022c-0.7,0-1.233,0.047-1.601,0.141
		c-0.364,0.094-0.653,0.228-0.865,0.402c-0.212,0.176-0.368,0.389-0.472,0.642C433.975,492.647,433.926,492.949,433.926,493.31z"/>
	<path d="M452.955,497.131h-2.525c-1.896,0-3.288-0.354-4.175-1.063c-0.889-0.708-1.331-1.737-1.331-3.088v-3.357h2.146v3.076
		c0,0.488,0.065,0.899,0.195,1.232c0.13,0.334,0.34,0.604,0.628,0.813c0.289,0.207,0.659,0.355,1.111,0.445
		c0.449,0.09,0.999,0.135,1.642,0.135h2.307v-5.701h2.124v12.258h-2.124v-4.748L452.955,497.131L452.955,497.131z"/>
	<path d="M461.268,489.621v8.633l5.347-8.633h2.026v12.258h-2.124v-8.633l-5.347,8.633h-2.026v-12.258H461.268z"/>
	<path d="M495.985,501.428c-0.554,0.211-1.121,0.368-1.703,0.47c-0.582,0.104-1.182,0.152-1.8,0.152
		c-1.937,0-3.428-0.524-4.474-1.575c-1.045-1.049-1.568-2.583-1.568-4.604c0-0.969,0.15-1.848,0.452-2.637
		c0.301-0.789,0.724-1.465,1.27-2.024c0.545-0.563,1.196-0.995,1.953-1.302c0.757-0.306,1.591-0.458,2.502-0.458
		c0.637,0,1.229,0.045,1.782,0.136c0.553,0.09,1.082,0.234,1.587,0.438v2.027c-0.529-0.277-1.066-0.479-1.617-0.604
		c-0.55-0.126-1.115-0.188-1.703-0.188c-0.545,0-1.06,0.104-1.544,0.312c-0.482,0.207-0.908,0.506-1.274,0.896
		c-0.366,0.39-0.655,0.867-0.867,1.429c-0.212,0.563-0.317,1.196-0.317,1.904c0,1.479,0.36,2.59,1.08,3.326
		c0.723,0.735,1.721,1.104,2.997,1.104c0.578,0,1.139-0.063,1.68-0.195c0.541-0.13,1.063-0.323,1.567-0.586L495.985,501.428
		L495.985,501.428z"/>
	<path d="M509.949,501.879h-2.124v-10.427h-3.418c-0.098,1.679-0.241,3.112-0.434,4.312c-0.191,1.195-0.421,2.195-0.689,2.996
		c-0.269,0.802-0.572,1.433-0.916,1.893c-0.342,0.46-0.71,0.793-1.104,1.001c-0.396,0.207-0.813,0.311-1.251,0.307
		c-0.439-0.006-0.893-0.063-1.355-0.179l0.1-1.758c0.324,0.032,0.63,0.019,0.916-0.049c0.283-0.065,0.549-0.222,0.793-0.47
		s0.466-0.606,0.666-1.074c0.197-0.468,0.38-1.093,0.543-1.874c0.162-0.781,0.303-1.739,0.421-2.875
		c0.118-1.135,0.214-2.488,0.287-4.061h7.566L509.949,501.879L509.949,501.879z"/>
	<path d="M524.623,495.654c0,0.952-0.135,1.825-0.401,2.618c-0.271,0.794-0.655,1.474-1.159,2.039
		c-0.506,0.565-1.119,1.005-1.844,1.318c-0.727,0.313-1.547,0.47-2.466,0.47c-0.881,0-1.669-0.137-2.362-0.409
		c-0.695-0.271-1.285-0.673-1.771-1.202c-0.483-0.527-0.854-1.185-1.109-1.966c-0.257-0.781-0.387-1.68-0.387-2.697
		c0-0.952,0.137-1.818,0.403-2.604c0.27-0.785,0.655-1.46,1.159-2.026c0.505-0.563,1.119-1.005,1.844-1.316
		c0.726-0.313,1.546-0.472,2.466-0.472c0.88,0,1.667,0.139,2.362,0.409c0.695,0.272,1.285,0.671,1.771,1.196
		c0.483,0.522,0.854,1.178,1.11,1.959S524.623,494.645,524.623,495.654z M522.449,495.751c0-0.759-0.083-1.42-0.25-1.983
		c-0.166-0.565-0.402-1.038-0.714-1.416c-0.31-0.379-0.686-0.663-1.13-0.854c-0.443-0.189-0.938-0.285-1.482-0.285
		c-0.635,0-1.178,0.124-1.629,0.372c-0.453,0.248-0.82,0.578-1.109,0.993s-0.5,0.897-0.637,1.446
		c-0.135,0.55-0.199,1.125-0.199,1.729c0,0.757,0.083,1.42,0.25,1.987c0.166,0.57,0.402,1.044,0.714,1.424
		c0.31,0.379,0.684,0.662,1.123,0.854c0.438,0.191,0.936,0.287,1.487,0.287c0.637,0,1.18-0.124,1.629-0.373
		c0.453-0.248,0.822-0.58,1.111-0.994c0.289-0.416,0.5-0.896,0.635-1.447C522.385,496.942,522.449,496.362,522.449,495.751z"/>
	<path d="M538.22,498.303c0,0.561-0.117,1.074-0.354,1.537c-0.234,0.465-0.603,0.859-1.099,1.188
		c-0.497,0.33-1.125,0.586-1.886,0.771c-0.764,0.183-1.666,0.272-2.719,0.272c-0.689,0-1.428-0.024-2.209-0.079
		c-0.779-0.054-1.532-0.124-2.258-0.214v-12.098c0.766-0.089,1.539-0.158,2.324-0.207c0.786-0.049,1.635-0.073,2.546-0.073
		c1.651,0,2.907,0.271,3.768,0.813c0.856,0.542,1.286,1.318,1.286,2.338c0,0.689-0.197,1.286-0.598,1.782
		c-0.398,0.494-1.002,0.86-1.807,1.099c0.391,0.063,0.767,0.173,1.129,0.323c0.36,0.149,0.682,0.347,0.958,0.586
		c0.274,0.239,0.499,0.521,0.665,0.849C538.137,497.517,538.22,497.887,538.22,498.303z M535.45,492.981
		c0-0.285-0.058-0.542-0.171-0.77c-0.114-0.229-0.295-0.425-0.543-0.586c-0.248-0.163-0.574-0.287-0.977-0.372
		c-0.402-0.088-0.892-0.128-1.459-0.128c-0.515,0-0.961,0.01-1.345,0.028c-0.383,0.021-0.761,0.057-1.136,0.104v3.54h2.467
		C534.396,494.799,535.45,494.193,535.45,492.981z M535.974,498.352c0-0.635-0.287-1.113-0.859-1.437
		c-0.574-0.319-1.468-0.48-2.68-0.48h-2.613v3.747c0.398,0.063,0.794,0.109,1.187,0.135c0.391,0.025,0.838,0.037,1.343,0.037
		c0.725,0,1.32-0.049,1.789-0.146c0.467-0.098,0.838-0.234,1.107-0.414c0.273-0.181,0.465-0.393,0.568-0.637
		C535.923,498.911,535.974,498.645,535.974,498.352z"/>
	<path d="M546.265,498.031c0.275,0,0.539,0.056,0.787,0.159c0.248,0.105,0.465,0.252,0.646,0.439
		c0.186,0.188,0.328,0.403,0.436,0.651c0.104,0.248,0.157,0.517,0.157,0.799c0,0.277-0.054,0.537-0.157,0.781
		c-0.105,0.244-0.25,0.458-0.436,0.644c-0.182,0.183-0.396,0.325-0.646,0.433s-0.513,0.159-0.787,0.159
		c-0.285,0-0.549-0.053-0.793-0.159c-0.244-0.104-0.459-0.25-0.643-0.433c-0.184-0.186-0.326-0.397-0.434-0.644
		c-0.106-0.244-0.159-0.504-0.159-0.781c0-0.282,0.053-0.551,0.159-0.799c0.104-0.248,0.25-0.466,0.434-0.651
		c0.184-0.188,0.396-0.334,0.643-0.439C545.719,498.087,545.98,498.031,546.265,498.031z"/>
	<path d="M579.385,501.879h-2.172v-7.324h-6.702v7.324h-2.173v-15.955h2.173v6.751h6.702v-6.751h2.172V501.879z"/>
	<path d="M590.552,501.879l-0.049-1.648c-0.668,0.66-1.347,1.136-2.033,1.429c-0.688,0.293-1.409,0.439-2.166,0.439
		c-0.7,0-1.299-0.09-1.795-0.271c-0.496-0.179-0.904-0.425-1.229-0.736c-0.32-0.313-0.557-0.684-0.707-1.105
		c-0.149-0.422-0.227-0.883-0.227-1.379c0-1.229,0.457-2.191,1.373-2.887c0.916-0.696,2.269-1.044,4.059-1.044h2.539v-1.074
		c0-0.726-0.229-1.304-0.693-1.739c-0.466-0.435-1.174-0.652-2.125-0.652c-0.691,0-1.373,0.076-2.045,0.23
		c-0.672,0.155-1.364,0.375-2.08,0.66v-1.917c0.269-0.099,0.566-0.193,0.896-0.287c0.33-0.093,0.678-0.177,1.045-0.25
		c0.365-0.073,0.748-0.132,1.146-0.177c0.396-0.045,0.802-0.067,1.209-0.067c0.738,0,1.406,0.081,2.002,0.244
		c0.594,0.163,1.097,0.411,1.508,0.745c0.41,0.333,0.727,0.752,0.943,1.257c0.223,0.505,0.33,1.099,0.33,1.782v8.447H590.552
		L590.552,501.879z M590.32,496.301h-2.697c-0.527,0-0.982,0.053-1.365,0.158c-0.385,0.104-0.695,0.256-0.939,0.449
		c-0.244,0.195-0.426,0.432-0.543,0.702c-0.119,0.273-0.178,0.58-0.178,0.922c0,0.236,0.037,0.462,0.107,0.68
		c0.074,0.216,0.191,0.405,0.354,0.571c0.163,0.167,0.374,0.3,0.635,0.396c0.261,0.096,0.577,0.146,0.952,0.146
		c0.488,0,1.048-0.146,1.678-0.443c0.631-0.299,1.297-0.769,1.996-1.41V496.301L590.32,496.301z"/>
	<path d="M620.02,501.879h-2.124v-5.42h-5.604v5.42h-2.123v-12.258h2.123v4.98h5.604v-4.98h2.124V501.879z"/>
	<path d="M634.265,495.104c0,0.302-0.004,0.554-0.012,0.758c-0.01,0.203-0.021,0.396-0.037,0.573h-8.605
		c0,1.253,0.352,2.216,1.051,2.887c0.699,0.672,1.709,1.007,3.027,1.007c0.357,0,0.715-0.014,1.074-0.042
		c0.355-0.026,0.703-0.065,1.037-0.114c0.334-0.051,0.65-0.104,0.957-0.165c0.307-0.063,0.588-0.128,0.85-0.201v1.745
		c-0.578,0.163-1.232,0.296-1.959,0.396c-0.729,0.104-1.484,0.152-2.266,0.152c-1.051,0-1.953-0.145-2.709-0.427
		c-0.76-0.285-1.378-0.698-1.861-1.239c-0.484-0.541-0.844-1.204-1.074-1.99c-0.23-0.785-0.349-1.674-0.349-2.667
		c0-0.862,0.124-1.679,0.372-2.447c0.248-0.77,0.609-1.442,1.086-2.024s1.061-1.044,1.752-1.386c0.69-0.344,1.479-0.515,2.355-0.515
		c0.854,0,1.611,0.134,2.271,0.403c0.66,0.268,1.215,0.646,1.666,1.141s0.793,1.091,1.025,1.795
		C634.149,493.447,634.265,494.234,634.265,495.104z M632.056,494.799c0.025-0.545-0.029-1.044-0.158-1.495
		c-0.131-0.452-0.332-0.841-0.604-1.166s-0.611-0.58-1.02-0.763c-0.408-0.186-0.879-0.275-1.416-0.275
		c-0.465,0-0.889,0.09-1.27,0.27c-0.385,0.181-0.713,0.433-0.99,0.758c-0.275,0.324-0.5,0.717-0.67,1.172
		c-0.172,0.456-0.277,0.957-0.318,1.502L632.056,494.799L632.056,494.799z"/>
	<path d="M639.955,489.621v8.633l5.348-8.633h2.025v12.258h-2.125v-8.633l-5.346,8.633h-2.027v-12.258H639.955z M646.326,484.899
		c0,0.48-0.092,0.908-0.271,1.282c-0.186,0.374-0.439,0.694-0.771,0.958c-0.33,0.265-0.727,0.466-1.188,0.604
		c-0.466,0.141-0.979,0.208-1.539,0.208c-0.65,0-1.209-0.067-1.672-0.208c-0.466-0.139-0.848-0.34-1.145-0.604
		s-0.514-0.584-0.65-0.958c-0.14-0.374-0.207-0.802-0.207-1.282h1.928c0,0.236,0.029,0.456,0.086,0.66
		c0.057,0.203,0.152,0.384,0.287,0.543c0.135,0.158,0.313,0.282,0.543,0.372c0.229,0.09,0.514,0.134,0.854,0.134
		c0.352,0,0.643-0.044,0.871-0.134c0.232-0.09,0.418-0.214,0.559-0.372c0.139-0.159,0.234-0.34,0.293-0.543
		c0.057-0.204,0.086-0.424,0.086-0.66H646.326z"/>
	<path d="M667.445,489.621v8.633l5.346-8.633h2.027v12.258h-2.125v-8.633l-5.346,8.633h-2.027v-12.258H667.445z"/>
	<path d="M678.566,499.682c0.357,0.098,0.74,0.184,1.146,0.256c0.404,0.074,0.811,0.139,1.209,0.195
		c0.396,0.058,0.781,0.101,1.15,0.129c0.371,0.026,0.703,0.043,0.996,0.043c0.691,0,1.27-0.045,1.729-0.135
		c0.459-0.092,0.824-0.22,1.1-0.387c0.271-0.166,0.465-0.37,0.58-0.608c0.113-0.239,0.17-0.513,0.17-0.813
		c0-0.293-0.051-0.56-0.152-0.8c-0.102-0.239-0.285-0.449-0.549-0.628c-0.266-0.18-0.625-0.318-1.08-0.416
		c-0.457-0.098-1.039-0.146-1.746-0.146h-3.004v-1.646h2.992c0.617,0,1.123-0.041,1.52-0.122s0.705-0.199,0.936-0.354
		c0.227-0.155,0.383-0.344,0.463-0.563c0.082-0.219,0.123-0.472,0.123-0.756c0-0.277-0.051-0.523-0.152-0.739
		c-0.104-0.215-0.271-0.396-0.508-0.549c-0.236-0.152-0.549-0.267-0.938-0.349c-0.393-0.081-0.875-0.121-1.453-0.121
		c-0.636,0-1.33,0.044-2.086,0.134c-0.759,0.09-1.516,0.22-2.271,0.391v-1.794c0.334-0.074,0.693-0.143,1.08-0.208
		c0.387-0.063,0.779-0.118,1.178-0.159c0.398-0.04,0.795-0.07,1.191-0.098c0.395-0.023,0.77-0.036,1.129-0.036
		c0.959,0,1.762,0.079,2.404,0.238c0.643,0.158,1.16,0.38,1.551,0.665s0.666,0.623,0.83,1.014c0.162,0.393,0.244,0.817,0.244,1.281
		c0,0.342-0.049,0.665-0.146,0.971c-0.097,0.307-0.248,0.58-0.45,0.824c-0.205,0.244-0.464,0.451-0.774,0.622
		c-0.314,0.171-0.689,0.293-1.129,0.366c0.438,0.063,0.846,0.173,1.221,0.322c0.373,0.15,0.697,0.352,0.969,0.6
		c0.273,0.248,0.488,0.543,0.648,0.885c0.158,0.342,0.237,0.732,0.237,1.172c0,0.537-0.104,1.036-0.313,1.495
		c-0.207,0.46-0.547,0.854-1.02,1.187c-0.473,0.327-1.096,0.588-1.867,0.773c-0.773,0.188-1.722,0.28-2.845,0.28
		c-0.302,0-0.634-0.011-0.995-0.03c-0.361-0.021-0.736-0.049-1.123-0.086c-0.389-0.036-0.768-0.081-1.143-0.134
		s-0.725-0.116-1.049-0.189L678.566,499.682L678.566,499.682z"/>
	<path d="M703.308,495.654c0,0.952-0.133,1.825-0.402,2.618c-0.268,0.794-0.652,1.474-1.16,2.039
		c-0.504,0.565-1.117,1.005-1.842,1.318c-0.725,0.313-1.547,0.47-2.467,0.47c-0.879,0-1.666-0.137-2.361-0.409
		c-0.695-0.271-1.287-0.673-1.771-1.202c-0.484-0.527-0.854-1.185-1.109-1.966c-0.258-0.781-0.385-1.68-0.385-2.697
		c0-0.952,0.135-1.818,0.402-2.604c0.27-0.785,0.652-1.46,1.158-2.026c0.506-0.563,1.119-1.005,1.846-1.316
		c0.723-0.313,1.545-0.472,2.465-0.472c0.879,0,1.666,0.139,2.361,0.409c0.695,0.272,1.285,0.671,1.771,1.196
		c0.482,0.522,0.854,1.178,1.109,1.959C703.181,493.747,703.308,494.645,703.308,495.654z M701.136,495.751
		c0-0.759-0.084-1.42-0.25-1.983c-0.168-0.565-0.406-1.038-0.715-1.416c-0.311-0.379-0.688-0.663-1.131-0.854
		c-0.441-0.189-0.938-0.285-1.48-0.285c-0.635,0-1.18,0.124-1.631,0.372s-0.822,0.578-1.111,0.993s-0.5,0.897-0.635,1.446
		c-0.133,0.55-0.201,1.125-0.201,1.729c0,0.757,0.084,1.42,0.25,1.987c0.168,0.57,0.406,1.044,0.715,1.424
		c0.311,0.379,0.686,0.662,1.123,0.854c0.439,0.191,0.938,0.287,1.49,0.287c0.635,0,1.178-0.124,1.629-0.373
		c0.451-0.248,0.822-0.58,1.111-0.994c0.287-0.416,0.5-0.896,0.635-1.447C701.068,496.942,701.136,496.362,701.136,495.751z"/>
	<path d="M707.984,492.395c0.57-0.798,1.205-1.395,1.904-1.789c0.699-0.394,1.49-0.592,2.369-0.592c0.697,0,1.344,0.128,1.934,0.385
		c0.59,0.256,1.1,0.637,1.525,1.141c0.428,0.507,0.762,1.126,1.002,1.862s0.357,1.581,0.357,2.532c0,0.896-0.141,1.722-0.42,2.479
		c-0.279,0.759-0.676,1.408-1.186,1.953c-0.508,0.545-1.115,0.973-1.818,1.275c-0.703,0.306-1.479,0.458-2.322,0.458
		c-0.891,0-1.669-0.152-2.34-0.458c-0.672-0.305-1.23-0.772-1.68-1.403s-0.785-1.429-1.012-2.393
		c-0.229-0.965-0.342-2.11-0.342-3.438c0-1.628,0.137-3.011,0.414-4.148c0.275-1.141,0.68-2.085,1.209-2.838
		c0.527-0.755,1.182-1.341,1.959-1.76c0.775-0.419,1.666-0.723,2.668-0.908c0.293-0.059,0.6-0.104,0.92-0.142
		s0.643-0.073,0.959-0.108c0.316-0.036,0.623-0.071,0.916-0.104s0.553-0.073,0.779-0.122v1.953
		c-0.164,0.041-0.348,0.073-0.557,0.098c-0.207,0.024-0.426,0.049-0.658,0.073c-0.23,0.024-0.473,0.049-0.721,0.073
		c-0.248,0.022-0.486,0.053-0.713,0.085c-0.953,0.123-1.734,0.322-2.344,0.599c-0.611,0.276-1.104,0.653-1.479,1.129
		c-0.373,0.479-0.658,1.057-0.854,1.733C708.265,490.698,708.107,491.49,707.984,492.395z M714.906,496.008
		c0-0.709-0.08-1.325-0.236-1.852c-0.158-0.523-0.371-0.963-0.637-1.313c-0.266-0.352-0.566-0.61-0.91-0.781
		c-0.342-0.171-0.697-0.256-1.072-0.256c-0.383,0-0.734,0.055-1.057,0.164c-0.321,0.108-0.637,0.271-0.945,0.488
		c-0.31,0.216-0.617,0.488-0.93,0.822c-0.309,0.334-0.639,0.74-0.986,1.223v0.23c0,1.106,0.086,2.018,0.256,2.729
		c0.172,0.713,0.404,1.274,0.697,1.688c0.293,0.416,0.641,0.707,1.043,0.873c0.4,0.167,0.844,0.25,1.322,0.25
		c0.57,0,1.07-0.119,1.502-0.358c0.434-0.239,0.791-0.559,1.08-0.951c0.289-0.396,0.508-0.851,0.652-1.361
		C714.832,497.094,714.906,496.561,714.906,496.008z"/>
	<path d="M730.603,495.531c0,1.091-0.152,2.043-0.457,2.856c-0.305,0.813-0.727,1.489-1.264,2.024
		c-0.537,0.537-1.172,0.939-1.904,1.209s-1.525,0.402-2.381,0.402c-0.391,0-0.779-0.021-1.166-0.061
		c-0.387-0.041-0.779-0.11-1.178-0.208v5.127h-2.123v-17.262h1.893l0.133,2.053c0.611-0.838,1.264-1.428,1.953-1.766
		c0.691-0.338,1.441-0.507,2.246-0.507c0.701,0,1.314,0.146,1.844,0.439c0.53,0.293,0.975,0.706,1.33,1.237
		c0.359,0.533,0.627,1.178,0.809,1.931C730.513,493.764,730.603,494.604,730.603,495.531z M728.431,495.629
		c0-0.645-0.047-1.232-0.141-1.771c-0.096-0.538-0.242-0.997-0.445-1.38s-0.465-0.682-0.781-0.897
		c-0.318-0.215-0.695-0.321-1.135-0.321c-0.271,0-0.543,0.043-0.818,0.128c-0.275,0.086-0.563,0.229-0.861,0.428
		c-0.297,0.199-0.607,0.464-0.938,0.793c-0.33,0.33-0.682,0.738-1.057,1.229v5.943c0.391,0.163,0.803,0.291,1.232,0.385
		c0.43,0.096,0.854,0.143,1.271,0.143c1.146,0,2.045-0.391,2.695-1.166C728.105,498.362,728.431,497.192,728.431,495.629z"/>
	<path d="M741.75,501.879l-0.049-1.648c-0.668,0.66-1.346,1.136-2.033,1.429c-0.687,0.293-1.408,0.439-2.166,0.439
		c-0.699,0-1.299-0.09-1.795-0.271c-0.494-0.179-0.904-0.425-1.227-0.736c-0.322-0.313-0.559-0.684-0.709-1.105
		s-0.225-0.883-0.225-1.379c0-1.229,0.457-2.191,1.373-2.887c0.914-0.696,2.268-1.044,4.059-1.044h2.539v-1.074
		c0-0.726-0.232-1.304-0.695-1.739c-0.465-0.436-1.172-0.652-2.125-0.652c-0.689,0-1.373,0.076-2.045,0.23
		c-0.672,0.155-1.365,0.375-2.08,0.66v-1.917c0.27-0.099,0.566-0.193,0.896-0.287c0.33-0.093,0.678-0.177,1.043-0.25
		c0.367-0.073,0.75-0.132,1.146-0.177c0.398-0.045,0.803-0.067,1.209-0.067c0.74,0,1.406,0.081,2.002,0.244s1.098,0.411,1.508,0.745
		c0.41,0.333,0.727,0.752,0.945,1.257s0.33,1.099,0.33,1.782v8.447H741.75L741.75,501.879z M741.517,496.301h-2.697
		c-0.529,0-0.986,0.053-1.367,0.158c-0.383,0.104-0.695,0.256-0.939,0.449c-0.244,0.195-0.426,0.432-0.543,0.702
		c-0.117,0.273-0.178,0.58-0.178,0.922c0,0.236,0.035,0.462,0.109,0.68c0.072,0.216,0.191,0.405,0.354,0.571
		c0.161,0.167,0.375,0.3,0.635,0.396c0.26,0.096,0.578,0.146,0.953,0.146c0.486,0,1.047-0.146,1.678-0.443
		c0.631-0.299,1.295-0.769,1.996-1.41L741.517,496.301L741.517,496.301z"/>
	<path d="M745.74,489.621h2.102l3.725,5.908v-5.908h1.953v5.908l3.723-5.908h2.102l-3.943,5.908l4.041,6.35h-2.32l-3.6-6.228v6.228
		h-1.953v-6.228l-3.602,6.228h-2.32l4.053-6.35L745.74,489.621z"/>
	<path d="M771.719,495.104c0,0.302-0.004,0.554-0.014,0.758c-0.008,0.203-0.02,0.396-0.036,0.573h-8.604
		c0,1.253,0.35,2.216,1.051,2.887c0.699,0.672,1.709,1.007,3.027,1.007c0.355,0,0.715-0.014,1.074-0.042
		c0.355-0.026,0.702-0.065,1.036-0.114c0.334-0.051,0.651-0.104,0.956-0.165c0.309-0.063,0.59-0.128,0.852-0.201v1.745
		c-0.578,0.163-1.232,0.296-1.959,0.396c-0.729,0.104-1.484,0.152-2.268,0.152c-1.049,0-1.951-0.145-2.709-0.427
		c-0.758-0.285-1.379-0.698-1.859-1.239c-0.484-0.541-0.845-1.204-1.074-1.99c-0.231-0.785-0.348-1.674-0.348-2.667
		c0-0.862,0.123-1.679,0.37-2.447c0.248-0.77,0.61-1.442,1.087-2.024s1.061-1.044,1.752-1.386c0.689-0.344,1.479-0.515,2.355-0.515
		c0.854,0,1.611,0.134,2.271,0.403c0.659,0.268,1.215,0.646,1.666,1.141c0.45,0.493,0.793,1.091,1.023,1.795
		C771.601,493.447,771.719,494.234,771.719,495.104z M769.51,494.799c0.023-0.545-0.029-1.044-0.158-1.495
		c-0.131-0.452-0.332-0.841-0.605-1.166c-0.271-0.325-0.609-0.58-1.018-0.763c-0.408-0.186-0.879-0.275-1.416-0.275
		c-0.465,0-0.889,0.09-1.271,0.27c-0.383,0.181-0.713,0.433-0.988,0.758c-0.275,0.324-0.5,0.717-0.67,1.172
		c-0.174,0.456-0.277,0.957-0.318,1.502L769.51,494.799L769.51,494.799z"/>
	<path d="M784.965,501.879h-2.125v-5.42h-5.604v5.42h-2.123v-12.258h2.123v4.98h5.604v-4.98h2.125V501.879z"/>
	<path d="M796.73,501.879l-0.049-1.648c-0.668,0.66-1.346,1.136-2.033,1.429s-1.41,0.439-2.166,0.439
		c-0.701,0-1.299-0.09-1.795-0.271c-0.496-0.179-0.906-0.425-1.227-0.736c-0.322-0.313-0.561-0.684-0.709-1.105
		c-0.15-0.423-0.227-0.883-0.227-1.379c0-1.229,0.457-2.191,1.373-2.887c0.914-0.696,2.269-1.044,4.06-1.044h2.538v-1.074
		c0-0.726-0.23-1.304-0.693-1.739c-0.465-0.436-1.172-0.652-2.125-0.652c-0.691,0-1.373,0.076-2.045,0.23
		c-0.672,0.155-1.365,0.375-2.08,0.66v-1.917c0.268-0.099,0.564-0.193,0.896-0.287c0.33-0.093,0.68-0.177,1.043-0.25
		c0.367-0.073,0.75-0.132,1.148-0.177c0.396-0.045,0.801-0.067,1.209-0.067c0.74,0,1.406,0.081,2.002,0.244
		c0.594,0.163,1.096,0.411,1.506,0.745c0.412,0.333,0.729,0.752,0.947,1.257s0.33,1.099,0.33,1.782v8.447H796.73L796.73,501.879z
		 M796.498,496.301h-2.695c-0.529,0-0.986,0.053-1.367,0.158c-0.383,0.104-0.697,0.256-0.941,0.449
		c-0.242,0.195-0.426,0.432-0.543,0.702c-0.117,0.273-0.176,0.58-0.176,0.922c0,0.236,0.035,0.462,0.109,0.68
		c0.07,0.216,0.189,0.405,0.354,0.571c0.162,0.167,0.375,0.3,0.635,0.396c0.262,0.097,0.578,0.146,0.953,0.146
		c0.488,0,1.047-0.146,1.68-0.443c0.631-0.299,1.295-0.769,1.994-1.41L796.498,496.301L796.498,496.301z"/>
	<path d="M827.369,501.879h-2.918l-5.713-6.567v6.567h-2.123v-12.258h2.123v5.604l5.506-5.604h2.811l-5.75,5.652L827.369,501.879z"
		/>
	<path d="M839.832,501.879h-2.123v-10.427h-3.418c-0.098,1.679-0.24,3.112-0.434,4.312c-0.191,1.195-0.422,2.195-0.689,2.996
		c-0.27,0.802-0.572,1.433-0.916,1.893c-0.342,0.46-0.711,0.793-1.104,1.001c-0.396,0.207-0.813,0.311-1.25,0.307
		c-0.439-0.006-0.891-0.063-1.355-0.179l0.1-1.758c0.326,0.032,0.631,0.019,0.916-0.049s0.549-0.222,0.793-0.47
		s0.465-0.606,0.666-1.074c0.199-0.468,0.379-1.093,0.543-1.874c0.162-0.781,0.303-1.739,0.42-2.875
		c0.119-1.135,0.215-2.488,0.287-4.061h7.568v12.258H839.832z"/>
	<path d="M854.738,489.621l-4.176,10.964c-0.432,1.113-0.877,2.073-1.336,2.881c-0.461,0.806-0.963,1.467-1.508,1.981
		c-0.545,0.518-1.146,0.897-1.795,1.144c-0.65,0.245-1.379,0.364-2.188,0.364c-0.211,0-0.4-0.004-0.572-0.012
		c-0.172-0.009-0.357-0.021-0.563-0.037v-1.929c0.18,0.024,0.375,0.047,0.586,0.067c0.211,0.02,0.436,0.028,0.672,0.028
		c0.393,0,0.754-0.057,1.092-0.171c0.338-0.113,0.658-0.299,0.959-0.556c0.303-0.256,0.591-0.588,0.867-0.995
		c0.275-0.406,0.545-0.898,0.805-1.477l-4.895-12.258h2.416l3.102,8.105l0.623,1.904l0.707-1.953l2.869-8.059h2.333L854.738,489.621
		L854.738,489.621z"/>
	<path d="M868.775,501.879h-2.1l-0.316-7.654l-0.135-2.722l-0.721,1.902l-2.295,5.566h-1.553l-2.209-5.347l-0.77-2.124l-0.1,2.881
		l-0.326,7.495h-2.027l0.781-12.258h2.818l2.102,5.285l0.572,1.575l0.572-1.575l2.148-5.285h2.783L868.775,501.879z"/>
	<path d="M872.927,492.395c0.568-0.798,1.205-1.395,1.902-1.789c0.699-0.395,1.49-0.592,2.369-0.592
		c0.699,0,1.346,0.128,1.936,0.385c0.59,0.256,1.1,0.637,1.523,1.141c0.43,0.507,0.764,1.126,1.002,1.862
		c0.24,0.736,0.359,1.581,0.359,2.532c0,0.896-0.141,1.722-0.42,2.479c-0.281,0.759-0.676,1.408-1.186,1.953
		s-1.115,0.973-1.818,1.275c-0.703,0.306-1.479,0.458-2.324,0.458c-0.889,0-1.668-0.152-2.338-0.458
		c-0.672-0.305-1.232-0.772-1.68-1.403c-0.448-0.631-0.785-1.429-1.014-2.393c-0.229-0.965-0.342-2.11-0.342-3.438
		c0-1.628,0.139-3.011,0.414-4.148c0.277-1.141,0.682-2.085,1.209-2.838c0.529-0.755,1.184-1.341,1.959-1.76
		c0.777-0.419,1.666-0.723,2.668-0.908c0.293-0.059,0.602-0.104,0.92-0.142c0.322-0.037,0.645-0.073,0.959-0.108
		c0.318-0.036,0.623-0.071,0.916-0.104s0.555-0.073,0.781-0.122v1.953c-0.164,0.041-0.348,0.073-0.557,0.098
		c-0.207,0.024-0.428,0.049-0.658,0.073c-0.232,0.024-0.475,0.049-0.721,0.073c-0.248,0.022-0.486,0.053-0.715,0.085
		c-0.951,0.123-1.732,0.322-2.344,0.599s-1.104,0.653-1.479,1.129c-0.373,0.479-0.658,1.057-0.854,1.733
		C873.207,490.698,873.051,491.49,872.927,492.395z M879.847,496.008c0-0.709-0.08-1.325-0.238-1.852
		c-0.158-0.523-0.371-0.963-0.635-1.313c-0.266-0.352-0.568-0.61-0.91-0.781s-0.699-0.256-1.074-0.256
		c-0.383,0-0.732,0.055-1.055,0.164c-0.322,0.108-0.637,0.271-0.947,0.488c-0.309,0.216-0.617,0.488-0.928,0.822
		c-0.309,0.334-0.639,0.74-0.988,1.223v0.23c0,1.106,0.086,2.018,0.256,2.729c0.174,0.713,0.404,1.274,0.697,1.688
		c0.293,0.416,0.643,0.707,1.043,0.873c0.402,0.167,0.844,0.25,1.324,0.25c0.57,0,1.07-0.119,1.502-0.358s0.791-0.559,1.08-0.951
		c0.289-0.396,0.506-0.851,0.652-1.361C879.772,497.094,879.847,496.561,879.847,496.008z"/>
	<path d="M892.945,501.879l-0.049-1.648c-0.668,0.66-1.346,1.136-2.033,1.429c-0.687,0.293-1.408,0.439-2.166,0.439
		c-0.699,0-1.299-0.09-1.795-0.271c-0.496-0.179-0.904-0.425-1.227-0.736c-0.323-0.313-0.559-0.684-0.707-1.105
		c-0.152-0.423-0.229-0.883-0.229-1.379c0-1.229,0.457-2.191,1.373-2.887c0.916-0.696,2.271-1.044,4.061-1.044h2.539v-1.074
		c0-0.726-0.23-1.304-0.695-1.739c-0.463-0.436-1.172-0.652-2.123-0.652c-0.693,0-1.375,0.076-2.045,0.23
		c-0.672,0.155-1.365,0.375-2.082,0.66v-1.917c0.27-0.099,0.568-0.193,0.896-0.287c0.329-0.093,0.679-0.177,1.046-0.25
		c0.363-0.073,0.747-0.132,1.146-0.177s0.803-0.067,1.209-0.067c0.74,0,1.408,0.081,2.002,0.244s1.096,0.411,1.508,0.745
		c0.41,0.333,0.729,0.752,0.945,1.257c0.221,0.505,0.33,1.099,0.33,1.782v8.447H892.945L892.945,501.879z M892.715,496.301h-2.697
		c-0.529,0-0.984,0.053-1.367,0.158c-0.383,0.104-0.695,0.256-0.938,0.449c-0.244,0.195-0.428,0.432-0.545,0.702
		c-0.117,0.273-0.178,0.58-0.178,0.922c0,0.236,0.037,0.462,0.109,0.68c0.074,0.216,0.189,0.405,0.354,0.571
		c0.162,0.167,0.373,0.3,0.637,0.396c0.26,0.098,0.574,0.146,0.949,0.146c0.488,0,1.048-0.146,1.68-0.443
		c0.631-0.299,1.297-0.769,1.995-1.41L892.715,496.301L892.715,496.301z"/>
	<path d="M903.638,498.031c0.275,0,0.539,0.056,0.787,0.159c0.248,0.105,0.465,0.252,0.646,0.439
		c0.186,0.188,0.328,0.403,0.436,0.651c0.104,0.248,0.158,0.517,0.158,0.799c0,0.277-0.055,0.537-0.158,0.781
		c-0.105,0.244-0.25,0.458-0.436,0.644c-0.182,0.183-0.396,0.325-0.646,0.433s-0.512,0.159-0.787,0.159
		c-0.285,0-0.549-0.053-0.793-0.159c-0.244-0.104-0.459-0.25-0.643-0.433c-0.184-0.186-0.327-0.397-0.434-0.644
		c-0.107-0.246-0.158-0.504-0.158-0.781c0-0.282,0.053-0.551,0.158-0.799c0.104-0.248,0.25-0.466,0.434-0.651
		c0.184-0.188,0.396-0.334,0.643-0.439C903.092,498.087,903.353,498.031,903.638,498.031z"/>
</g>
<g enable-background="new    ">
	<path d="M133.668,530.048l-0.159,5.286h-1.939v-3.455h-9.058v3.455h-1.941l-0.159-5.286h0.185c0.269,0,0.531-0.079,0.793-0.238
		c0.26-0.158,0.513-0.439,0.757-0.842c0.244-0.403,0.474-0.946,0.688-1.63c0.216-0.686,0.413-1.55,0.592-2.596
		c0.181-1.046,0.333-2.293,0.466-3.74c0.13-1.448,0.23-3.143,0.305-5.078h7.715v14.124H133.668L133.668,530.048z M129.738,517.805
		h-3.528c-0.057,1.69-0.145,3.229-0.262,4.605c-0.118,1.381-0.273,2.59-0.464,3.626c-0.191,1.037-0.421,1.896-0.69,2.569
		c-0.269,0.675-0.586,1.155-0.952,1.44h5.896V517.805z"/>
	<path d="M145.704,531.879h-2.124v-10.427h-3.418c-0.098,1.679-0.242,3.112-0.434,4.312c-0.191,1.195-0.421,2.195-0.689,2.996
		c-0.269,0.802-0.574,1.433-0.916,1.893s-0.71,0.793-1.104,1.001c-0.396,0.207-0.813,0.311-1.251,0.306
		c-0.439-0.005-0.893-0.063-1.355-0.178l0.1-1.758c0.323,0.032,0.63,0.018,0.914-0.049c0.285-0.065,0.551-0.222,0.795-0.47
		c0.242-0.248,0.466-0.606,0.666-1.074c0.197-0.468,0.38-1.093,0.543-1.874c0.161-0.781,0.303-1.739,0.421-2.875
		c0.116-1.135,0.214-2.488,0.287-4.061h7.566L145.704,531.879L145.704,531.879z"/>
	<path d="M150.477,528.339c0.269-0.569,0.563-1.001,0.885-1.294c0.321-0.293,0.726-0.488,1.214-0.586
		c-0.513-0.1-0.936-0.258-1.27-0.479c-0.334-0.219-0.602-0.474-0.801-0.763c-0.198-0.288-0.338-0.598-0.415-0.921
		c-0.076-0.326-0.114-0.647-0.114-0.967c0-0.535,0.089-1.042,0.269-1.514c0.179-0.472,0.468-0.883,0.867-1.23
		c0.397-0.353,0.921-0.629,1.569-0.83c0.646-0.204,1.57-0.308,2.775-0.308c0.675,0,1.343,0.022,2.002,0.067s1.308,0.1,1.941,0.164
		v12.194h-2.124v-4.747h-1.843c-0.285,0-0.576,0.024-0.873,0.077c-0.297,0.055-0.568,0.15-0.813,0.293
		c-0.244,0.145-0.466,0.327-0.666,0.558c-0.199,0.228-0.376,0.517-0.53,0.866l-1.344,2.954h-2.403L150.477,528.339z M152.15,523.31
		c0,0.7,0.238,1.225,0.714,1.575c0.477,0.35,1.182,0.522,2.118,0.522h2.295v-4.102c-0.352-0.032-0.688-0.058-1.013-0.073
		c-0.326-0.017-0.667-0.022-1.025-0.022c-0.7,0-1.233,0.047-1.599,0.141c-0.366,0.094-0.655,0.228-0.867,0.402
		c-0.212,0.176-0.368,0.389-0.47,0.642C152.2,522.647,152.15,522.949,152.15,523.31z"/>
	<path d="M187.844,521.452h-4.651v10.427h-2.148v-10.427h-4.649v-1.831h11.45L187.844,521.452L187.844,521.452z"/>
	<path d="M201.613,525.654c0,0.952-0.134,1.825-0.403,2.618c-0.269,0.794-0.653,1.474-1.16,2.039
		c-0.505,0.564-1.117,1.005-1.843,1.318c-0.725,0.313-1.546,0.47-2.466,0.47c-0.879,0-1.667-0.138-2.362-0.409
		c-0.694-0.271-1.284-0.673-1.771-1.202c-0.484-0.529-0.854-1.185-1.11-1.966c-0.257-0.781-0.385-1.68-0.385-2.697
		c0-0.952,0.134-1.82,0.403-2.604c0.269-0.785,0.653-1.46,1.16-2.026c0.504-0.564,1.117-1.005,1.843-1.318
		c0.724-0.313,1.546-0.47,2.466-0.47c0.879,0,1.667,0.138,2.362,0.409c0.694,0.271,1.284,0.671,1.771,1.196
		c0.484,0.522,0.854,1.178,1.11,1.959C201.485,523.747,201.613,524.645,201.613,525.654z M199.44,525.75
		c0-0.758-0.083-1.419-0.25-1.982c-0.167-0.565-0.405-1.038-0.714-1.416c-0.312-0.379-0.688-0.663-1.129-0.854
		c-0.443-0.189-0.938-0.285-1.483-0.285c-0.635,0-1.178,0.124-1.629,0.37c-0.452,0.25-0.822,0.58-1.111,0.995
		s-0.5,0.897-0.635,1.446c-0.134,0.55-0.201,1.125-0.201,1.729c0,0.758,0.083,1.421,0.25,1.988c0.167,0.57,0.405,1.044,0.714,1.423
		c0.311,0.378,0.686,0.663,1.123,0.854c0.439,0.19,0.938,0.287,1.489,0.287c0.635,0,1.178-0.124,1.629-0.373
		c0.452-0.248,0.822-0.58,1.111-0.994c0.289-0.416,0.5-0.896,0.635-1.447C199.372,526.942,199.44,526.362,199.44,525.75z"/>
	<path d="M207.838,521.452v10.427h-2.146v-12.258h8.875v1.831H207.838z"/>
	<path d="M229.103,525.654c0,0.952-0.134,1.825-0.403,2.618c-0.269,0.794-0.655,1.474-1.16,2.039
		c-0.505,0.564-1.119,1.005-1.843,1.318c-0.725,0.313-1.546,0.47-2.466,0.47c-0.879,0-1.667-0.138-2.362-0.409
		c-0.696-0.271-1.286-0.673-1.771-1.202c-0.485-0.529-0.854-1.185-1.11-1.966c-0.257-0.781-0.385-1.68-0.385-2.697
		c0-0.952,0.134-1.82,0.401-2.604c0.271-0.785,0.655-1.46,1.16-2.026c0.504-0.564,1.119-1.005,1.843-1.318
		c0.726-0.313,1.548-0.47,2.468-0.47c0.879,0,1.667,0.138,2.36,0.409c0.696,0.271,1.286,0.671,1.771,1.196
		c0.482,0.522,0.854,1.178,1.109,1.959C228.975,523.747,229.103,524.645,229.103,525.654z M226.93,525.75
		c0-0.758-0.083-1.419-0.25-1.982c-0.167-0.565-0.405-1.038-0.716-1.416c-0.31-0.379-0.686-0.663-1.129-0.854
		c-0.441-0.189-0.938-0.285-1.481-0.285c-0.635,0-1.18,0.124-1.629,0.37c-0.452,0.25-0.822,0.58-1.111,0.995s-0.5,0.897-0.635,1.446
		c-0.134,0.55-0.201,1.125-0.201,1.729c0,0.758,0.083,1.421,0.25,1.988c0.167,0.57,0.405,1.044,0.714,1.423
		c0.311,0.378,0.686,0.663,1.123,0.854c0.439,0.19,0.938,0.287,1.489,0.287c0.635,0,1.178-0.124,1.629-0.373
		c0.452-0.248,0.822-0.58,1.111-0.994c0.287-0.416,0.5-0.896,0.635-1.447C226.863,526.942,226.93,526.362,226.93,525.75z"/>
	<path d="M253.651,527.131h-2.527c-1.896,0-3.288-0.354-4.175-1.063c-0.887-0.708-1.331-1.737-1.331-3.088v-3.357h2.148v3.076
		c0,0.488,0.063,0.899,0.193,1.232c0.13,0.334,0.342,0.604,0.628,0.813c0.289,0.207,0.659,0.355,1.111,0.445
		c0.451,0.09,0.999,0.135,1.642,0.135h2.309v-5.701h2.124v12.258h-2.124v-4.748L253.651,527.131L253.651,527.131z"/>
	<path d="M270.314,521.452h-4.651v10.427h-2.146v-10.427h-4.651v-1.831h11.45L270.314,521.452L270.314,521.452z"/>
	<path d="M284.083,525.654c0,0.952-0.134,1.825-0.401,2.618c-0.271,0.794-0.655,1.474-1.16,2.039
		c-0.505,0.564-1.119,1.005-1.843,1.318c-0.727,0.313-1.548,0.47-2.468,0.47c-0.879,0-1.667-0.138-2.36-0.409
		c-0.696-0.271-1.286-0.673-1.771-1.202c-0.482-0.529-0.854-1.185-1.108-1.966c-0.259-0.781-0.387-1.68-0.387-2.697
		c0-0.952,0.135-1.82,0.403-2.604c0.269-0.785,0.655-1.46,1.16-2.026c0.504-0.564,1.119-1.005,1.843-1.318
		c0.724-0.313,1.546-0.47,2.466-0.47c0.879,0,1.667,0.138,2.362,0.409c0.696,0.271,1.286,0.671,1.771,1.196
		c0.484,0.522,0.854,1.178,1.11,1.959C283.955,523.747,284.083,524.645,284.083,525.654z M281.91,525.75
		c0-0.758-0.083-1.419-0.25-1.982c-0.167-0.565-0.405-1.038-0.714-1.416c-0.31-0.379-0.686-0.663-1.129-0.854
		c-0.443-0.189-0.938-0.285-1.483-0.285c-0.635,0-1.178,0.124-1.629,0.37c-0.452,0.25-0.822,0.58-1.109,0.995
		c-0.289,0.415-0.5,0.897-0.637,1.446c-0.134,0.55-0.2,1.125-0.2,1.729c0,0.758,0.083,1.421,0.25,1.988
		c0.167,0.57,0.404,1.044,0.715,1.423c0.309,0.378,0.684,0.663,1.123,0.854c0.438,0.19,0.936,0.287,1.487,0.287
		c0.637,0,1.18-0.124,1.629-0.373c0.452-0.248,0.822-0.58,1.111-0.994c0.289-0.416,0.5-0.896,0.635-1.447
		C281.843,526.942,281.91,526.362,281.91,525.75z"/>
	<path d="M288.759,522.395c0.569-0.798,1.204-1.394,1.904-1.789c0.7-0.395,1.489-0.592,2.368-0.592c0.7,0,1.345,0.128,1.935,0.385
		c0.592,0.256,1.101,0.637,1.525,1.141c0.428,0.507,0.761,1.128,1.001,1.862c0.24,0.736,0.36,1.581,0.36,2.532
		c0,0.896-0.143,1.722-0.421,2.479c-0.281,0.759-0.678,1.408-1.187,1.953c-0.508,0.545-1.115,0.973-1.816,1.275
		c-0.704,0.306-1.479,0.458-2.326,0.458c-0.889,0-1.667-0.152-2.337-0.458c-0.672-0.305-1.231-0.772-1.681-1.403
		c-0.446-0.631-0.786-1.429-1.013-2.393c-0.228-0.965-0.342-2.11-0.342-3.438c0-1.628,0.138-3.011,0.415-4.148
		c0.274-1.142,0.679-2.085,1.208-2.838c0.527-0.754,1.182-1.341,1.959-1.76c0.775-0.419,1.667-0.723,2.667-0.908
		c0.293-0.059,0.6-0.104,0.921-0.142c0.322-0.037,0.641-0.073,0.958-0.108c0.317-0.036,0.623-0.071,0.916-0.104
		s0.553-0.073,0.781-0.122v1.953c-0.163,0.041-0.35,0.073-0.558,0.098c-0.207,0.024-0.427,0.051-0.659,0.073
		c-0.229,0.024-0.472,0.049-0.72,0.073c-0.249,0.023-0.486,0.053-0.714,0.085c-0.952,0.123-1.733,0.322-2.344,0.599
		c-0.611,0.277-1.104,0.653-1.479,1.129c-0.375,0.479-0.657,1.057-0.854,1.733C289.039,520.698,288.881,521.49,288.759,522.395z
		 M295.68,526.008c0-0.709-0.079-1.325-0.238-1.852c-0.158-0.523-0.37-0.963-0.635-1.313c-0.266-0.352-0.567-0.61-0.909-0.781
		s-0.7-0.256-1.074-0.256c-0.383,0-0.734,0.055-1.056,0.164c-0.322,0.109-0.639,0.271-0.946,0.488
		c-0.31,0.216-0.619,0.488-0.928,0.822c-0.312,0.334-0.641,0.74-0.989,1.223v0.23c0,1.106,0.085,2.018,0.256,2.729
		c0.171,0.713,0.403,1.274,0.696,1.688c0.293,0.416,0.641,0.707,1.043,0.873c0.403,0.167,0.844,0.25,1.325,0.25
		c0.567,0,1.068-0.119,1.501-0.357c0.431-0.24,0.792-0.56,1.08-0.952c0.289-0.396,0.507-0.851,0.651-1.361
		C295.605,527.094,295.68,526.561,295.68,526.008z"/>
	<path d="M302.052,524.36c0.293-0.008,0.565-0.014,0.822-0.019c0.256-0.004,0.522-0.006,0.799-0.006c0.767,0,1.436,0.092,2.01,0.272
		c0.571,0.186,1.051,0.439,1.434,0.771c0.382,0.328,0.667,0.725,0.854,1.184c0.187,0.46,0.279,0.959,0.279,1.496
		c0,0.65-0.108,1.223-0.33,1.715c-0.22,0.492-0.531,0.905-0.938,1.238c-0.407,0.334-0.905,0.586-1.495,0.758
		c-0.59,0.17-1.292,0.256-2.106,0.256c-0.521,0-1.07-0.015-1.652-0.043s-1.174-0.087-1.776-0.177v-12.185h2.102L302.052,524.36
		L302.052,524.36z M306.056,528.117c0-0.643-0.201-1.142-0.604-1.495c-0.402-0.354-1.043-0.529-1.922-0.529
		c-0.236,0-0.476,0.004-0.72,0.013c-0.244,0.008-0.497,0.021-0.757,0.036v4.028c0.26,0.041,0.508,0.065,0.743,0.077
		c0.236,0.015,0.474,0.021,0.708,0.021c0.496,0,0.907-0.059,1.233-0.177c0.325-0.118,0.584-0.274,0.775-0.472
		c0.189-0.193,0.328-0.424,0.415-0.684C306.013,528.677,306.056,528.405,306.056,528.117z M309.596,531.879v-12.256h2.1v12.256
		H309.596z"/>
	<path d="M339.418,531.879H336.5l-5.713-6.567v6.567h-2.124v-12.256h2.124v5.604l5.505-5.604h2.81l-5.75,5.65L339.418,531.879z"/>
	<path d="M351.881,531.879h-2.124v-10.427h-3.418c-0.098,1.679-0.24,3.112-0.434,4.312c-0.191,1.195-0.421,2.195-0.689,2.996
		c-0.269,0.802-0.572,1.433-0.914,1.893c-0.344,0.46-0.712,0.793-1.105,1.001c-0.395,0.207-0.813,0.311-1.251,0.306
		c-0.439-0.005-0.891-0.063-1.355-0.178l0.1-1.758c0.325,0.032,0.63,0.018,0.916-0.049c0.285-0.065,0.549-0.222,0.793-0.47
		s0.466-0.606,0.666-1.074c0.199-0.468,0.38-1.093,0.543-1.874s0.303-1.739,0.421-2.875c0.118-1.135,0.214-2.488,0.287-4.061h7.566
		L351.881,531.879L351.881,531.879z"/>
	<path d="M366.786,519.621l-4.175,10.963c-0.432,1.114-0.877,2.074-1.336,2.882c-0.46,0.806-0.963,1.467-1.508,1.981
		c-0.545,0.519-1.146,0.897-1.794,1.144c-0.651,0.243-1.379,0.364-2.187,0.364c-0.212,0-0.401-0.004-0.574-0.012
		c-0.171-0.009-0.356-0.021-0.562-0.037v-1.929c0.179,0.022,0.374,0.047,0.586,0.067c0.211,0.02,0.435,0.028,0.671,0.028
		c0.391,0,0.755-0.057,1.093-0.171c0.337-0.114,0.657-0.299,0.958-0.556c0.303-0.256,0.59-0.588,0.867-0.995
		c0.276-0.406,0.545-0.898,0.806-1.478l-4.895-12.257h2.417l3.101,8.105l0.623,1.903l0.708-1.952l2.869-8.059h2.33L366.786,519.621
		L366.786,519.621z"/>
	<path d="M380.824,531.879h-2.1l-0.317-7.654l-0.134-2.722l-0.72,1.902l-2.297,5.566h-1.55l-2.209-5.347l-0.769-2.124l-0.1,2.881
		l-0.329,7.495h-2.025l0.781-12.258h2.818l2.102,5.285l0.573,1.575l0.573-1.575l2.148-5.285h2.783L380.824,531.879z"/>
	<path d="M384.974,522.395c0.567-0.798,1.204-1.394,1.902-1.789c0.7-0.395,1.489-0.592,2.368-0.592c0.7,0,1.345,0.128,1.937,0.385
		c0.59,0.256,1.099,0.637,1.523,1.141c0.428,0.507,0.761,1.128,1.001,1.862c0.24,0.736,0.36,1.581,0.36,2.532
		c0,0.896-0.143,1.722-0.421,2.479c-0.281,0.759-0.676,1.408-1.187,1.953c-0.508,0.545-1.113,0.973-1.816,1.275
		c-0.704,0.306-1.479,0.458-2.326,0.458c-0.887,0-1.667-0.152-2.337-0.458c-0.672-0.305-1.231-0.772-1.679-1.403
		c-0.448-0.631-0.786-1.429-1.015-2.393c-0.228-0.965-0.342-2.11-0.342-3.438c0-1.628,0.138-3.011,0.415-4.148
		c0.276-1.142,0.679-2.085,1.208-2.838c0.529-0.754,1.182-1.341,1.959-1.76s1.667-0.723,2.667-0.908
		c0.293-0.059,0.6-0.104,0.921-0.142c0.322-0.037,0.641-0.073,0.958-0.108c0.317-0.036,0.623-0.071,0.916-0.104
		s0.553-0.073,0.781-0.122v1.953c-0.163,0.041-0.35,0.073-0.558,0.098c-0.207,0.024-0.427,0.051-0.657,0.073
		c-0.231,0.024-0.474,0.049-0.722,0.073c-0.249,0.023-0.485,0.053-0.714,0.085c-0.952,0.123-1.731,0.322-2.344,0.599
		c-0.611,0.277-1.104,0.653-1.478,1.129c-0.375,0.479-0.658,1.057-0.854,1.733C385.255,520.698,385.096,521.49,384.974,522.395z
		 M391.896,526.008c0-0.709-0.079-1.325-0.238-1.852c-0.158-0.523-0.37-0.963-0.635-1.313c-0.266-0.352-0.567-0.61-0.909-0.781
		s-0.7-0.256-1.074-0.256c-0.383,0-0.732,0.055-1.056,0.164c-0.322,0.109-0.637,0.271-0.946,0.488
		c-0.309,0.216-0.619,0.488-0.928,0.822c-0.312,0.334-0.639,0.74-0.989,1.223v0.23c0,1.106,0.085,2.018,0.256,2.729
		c0.171,0.713,0.403,1.274,0.696,1.688c0.293,0.416,0.641,0.707,1.043,0.873c0.403,0.167,0.844,0.25,1.325,0.25
		c0.567,0,1.07-0.119,1.501-0.357c0.431-0.24,0.792-0.56,1.08-0.952c0.289-0.396,0.507-0.851,0.651-1.361
		C391.821,527.094,391.896,526.561,391.896,526.008z"/>
	<path d="M404.994,531.879l-0.049-1.648c-0.667,0.66-1.345,1.136-2.033,1.429c-0.688,0.293-1.41,0.439-2.167,0.439
		c-0.7,0-1.298-0.09-1.794-0.269c-0.497-0.181-0.905-0.427-1.227-0.738c-0.322-0.313-0.56-0.684-0.708-1.105
		c-0.151-0.423-0.228-0.883-0.228-1.379c0-1.229,0.458-2.189,1.374-2.887c0.915-0.696,2.27-1.044,4.061-1.044h2.539v-1.074
		c0-0.725-0.232-1.304-0.696-1.739c-0.464-0.435-1.172-0.651-2.124-0.651c-0.692,0-1.374,0.075-2.044,0.229
		c-0.672,0.155-1.366,0.375-2.082,0.66v-1.917c0.269-0.098,0.566-0.193,0.896-0.287c0.33-0.093,0.68-0.177,1.044-0.25
		c0.366-0.073,0.749-0.132,1.147-0.177c0.396-0.045,0.801-0.067,1.208-0.067c0.74,0,1.408,0.081,2.002,0.244
		s1.097,0.411,1.507,0.745c0.411,0.333,0.729,0.752,0.946,1.257s0.33,1.101,0.33,1.782v8.447H404.994L404.994,531.879z
		 M404.762,526.301h-2.698c-0.529,0-0.985,0.053-1.367,0.158c-0.383,0.104-0.696,0.256-0.94,0.449
		c-0.242,0.195-0.425,0.432-0.543,0.702c-0.116,0.273-0.177,0.58-0.177,0.922c0,0.236,0.037,0.462,0.11,0.68
		c0.073,0.216,0.189,0.405,0.354,0.571c0.163,0.167,0.374,0.301,0.637,0.396c0.26,0.098,0.576,0.146,0.95,0.146
		c0.488,0,1.05-0.146,1.68-0.443c0.631-0.297,1.296-0.769,1.996-1.41L404.762,526.301L404.762,526.301z"/>
	<path d="M426.212,522.395c0.567-0.798,1.202-1.394,1.902-1.789c0.7-0.395,1.489-0.592,2.368-0.592c0.7,0,1.345,0.128,1.937,0.385
		c0.59,0.256,1.099,0.637,1.523,1.141c0.428,0.507,0.761,1.128,1.001,1.862c0.24,0.736,0.36,1.581,0.36,2.532
		c0,0.896-0.143,1.722-0.421,2.479c-0.281,0.759-0.678,1.408-1.187,1.953c-0.508,0.545-1.114,0.973-1.816,1.275
		c-0.704,0.306-1.479,0.458-2.326,0.458c-0.888,0-1.667-0.152-2.337-0.458c-0.672-0.305-1.231-0.772-1.681-1.403
		c-0.446-0.631-0.784-1.429-1.013-2.393c-0.228-0.965-0.342-2.11-0.342-3.438c0-1.628,0.138-3.011,0.415-4.148
		c0.274-1.142,0.679-2.085,1.208-2.838c0.527-0.754,1.182-1.341,1.959-1.76c0.775-0.419,1.667-0.723,2.667-0.908
		c0.293-0.059,0.6-0.104,0.921-0.142c0.322-0.037,0.641-0.073,0.958-0.108c0.317-0.036,0.623-0.071,0.916-0.104
		s0.553-0.073,0.781-0.122v1.953c-0.163,0.041-0.35,0.073-0.558,0.098c-0.207,0.024-0.427,0.051-0.658,0.073
		c-0.23,0.024-0.473,0.049-0.721,0.073c-0.249,0.023-0.485,0.053-0.714,0.085c-0.952,0.123-1.733,0.322-2.344,0.599
		c-0.611,0.277-1.104,0.653-1.479,1.129c-0.375,0.479-0.657,1.057-0.854,1.733C426.49,520.698,426.332,521.49,426.212,522.395z
		 M433.133,526.008c0-0.709-0.079-1.325-0.238-1.852c-0.158-0.523-0.37-0.963-0.635-1.313c-0.266-0.352-0.567-0.61-0.909-0.781
		s-0.7-0.256-1.074-0.256c-0.383,0-0.733,0.055-1.056,0.164s-0.639,0.271-0.946,0.488c-0.31,0.216-0.619,0.488-0.928,0.822
		c-0.312,0.334-0.641,0.74-0.989,1.223v0.23c0,1.106,0.085,2.018,0.256,2.729c0.171,0.713,0.403,1.274,0.696,1.688
		c0.293,0.416,0.641,0.707,1.043,0.873c0.403,0.167,0.844,0.25,1.325,0.25c0.567,0,1.068-0.119,1.501-0.357
		c0.431-0.24,0.792-0.56,1.08-0.952c0.289-0.396,0.507-0.851,0.651-1.361C433.056,527.094,433.133,526.561,433.133,526.008z"/>
	<path d="M439.505,524.36c0.293-0.008,0.565-0.014,0.822-0.019c0.257-0.004,0.522-0.006,0.8-0.006c0.766,0,1.435,0.092,2.009,0.272
		c0.571,0.186,1.051,0.439,1.434,0.771c0.382,0.328,0.667,0.725,0.854,1.184c0.187,0.46,0.279,0.959,0.279,1.496
		c0,0.65-0.108,1.223-0.33,1.715c-0.22,0.492-0.531,0.905-0.938,1.238c-0.407,0.334-0.905,0.586-1.495,0.758
		c-0.59,0.17-1.292,0.256-2.105,0.256c-0.521,0-1.071-0.015-1.653-0.043s-1.174-0.087-1.776-0.177v-12.185h2.102L439.505,524.36
		L439.505,524.36z M443.509,528.117c0-0.643-0.201-1.142-0.604-1.495c-0.4-0.354-1.043-0.529-1.922-0.529
		c-0.236,0-0.476,0.004-0.72,0.013c-0.244,0.008-0.497,0.021-0.757,0.036v4.028c0.26,0.041,0.508,0.065,0.744,0.077
		c0.235,0.015,0.473,0.021,0.707,0.021c0.496,0,0.907-0.059,1.233-0.177c0.325-0.118,0.584-0.274,0.775-0.472
		c0.189-0.193,0.329-0.424,0.415-0.684C443.466,528.677,443.509,528.405,443.509,528.117z M447.049,531.879v-12.256h2.1v12.256
		H447.049z"/>
	<path d="M461.844,531.879h-2.124v-10.427h-3.418c-0.1,1.679-0.242,3.112-0.436,4.312c-0.189,1.195-0.421,2.195-0.688,2.996
		c-0.271,0.802-0.574,1.433-0.916,1.893s-0.71,0.793-1.105,1.001c-0.395,0.207-0.812,0.311-1.251,0.306
		c-0.438-0.005-0.891-0.063-1.354-0.178l0.098-1.758c0.325,0.032,0.63,0.018,0.916-0.049c0.285-0.065,0.549-0.222,0.793-0.47
		s0.466-0.606,0.666-1.074c0.199-0.468,0.38-1.093,0.543-1.874s0.303-1.739,0.421-2.875c0.118-1.135,0.214-2.488,0.287-4.061h7.568
		L461.844,531.879L461.844,531.879z"/>
	<path d="M473.719,531.879l-0.049-1.648c-0.667,0.66-1.347,1.136-2.033,1.429c-0.688,0.293-1.41,0.439-2.167,0.439
		c-0.7,0-1.298-0.09-1.794-0.269c-0.497-0.181-0.905-0.427-1.229-0.738c-0.321-0.313-0.558-0.684-0.708-1.105
		c-0.149-0.422-0.226-0.883-0.226-1.379c0-1.229,0.458-2.189,1.374-2.887c0.915-0.696,2.268-1.044,4.059-1.044h2.539v-1.074
		c0-0.725-0.23-1.304-0.696-1.739c-0.464-0.435-1.172-0.651-2.122-0.651c-0.692,0-1.375,0.075-2.046,0.229
		c-0.672,0.155-1.364,0.375-2.082,0.66v-1.917c0.271-0.098,0.568-0.193,0.897-0.287c0.33-0.093,0.678-0.177,1.044-0.25
		s0.749-0.132,1.147-0.177c0.396-0.045,0.801-0.067,1.207-0.067c0.739,0,1.407,0.081,2.003,0.244
		c0.594,0.163,1.097,0.411,1.507,0.745c0.411,0.333,0.727,0.752,0.945,1.257c0.22,0.505,0.329,1.101,0.329,1.782v8.447H473.719
		L473.719,531.879z M473.488,526.301h-2.697c-0.528,0-0.984,0.053-1.366,0.158c-0.384,0.104-0.696,0.256-0.94,0.449
		c-0.244,0.195-0.425,0.432-0.543,0.702c-0.118,0.273-0.177,0.58-0.177,0.922c0,0.236,0.037,0.462,0.108,0.68
		c0.073,0.216,0.191,0.405,0.354,0.571c0.163,0.167,0.374,0.301,0.635,0.396c0.261,0.098,0.578,0.146,0.952,0.146
		c0.488,0,1.048-0.146,1.678-0.443c0.631-0.297,1.296-0.769,1.996-1.41V526.301z"/>
	<path d="M504.359,531.879h-2.917l-5.713-6.567v6.567h-2.124v-12.256h2.124v5.604l5.505-5.604h2.809l-5.75,5.65L504.359,531.879z"/>
	<path d="M517.554,525.531c0,1.091-0.152,2.043-0.457,2.856c-0.305,0.813-0.729,1.489-1.264,2.024
		c-0.537,0.537-1.174,0.939-1.904,1.209c-0.732,0.27-1.526,0.402-2.38,0.402c-0.393,0-0.779-0.021-1.166-0.061
		c-0.386-0.041-0.779-0.11-1.179-0.208v5.127h-2.123v-17.262h1.892l0.134,2.053c0.61-0.838,1.261-1.428,1.953-1.766
		c0.691-0.338,1.441-0.507,2.246-0.507c0.7,0,1.314,0.146,1.844,0.439c0.53,0.293,0.975,0.706,1.33,1.237
		c0.358,0.533,0.627,1.178,0.807,1.931C517.467,523.764,517.554,524.604,517.554,525.531z M515.385,525.629
		c0-0.645-0.047-1.232-0.143-1.771c-0.094-0.538-0.242-0.997-0.443-1.38c-0.204-0.383-0.467-0.682-0.781-0.896
		c-0.318-0.217-0.696-0.323-1.136-0.323c-0.271,0-0.542,0.043-0.818,0.128c-0.277,0.086-0.563,0.229-0.86,0.428
		s-0.608,0.464-0.938,0.793c-0.329,0.33-0.684,0.738-1.056,1.229v5.943c0.391,0.163,0.801,0.291,1.231,0.385
		c0.431,0.096,0.854,0.143,1.271,0.143c1.146,0,2.047-0.389,2.697-1.166C515.056,528.362,515.385,527.192,515.385,525.629z"/>
	<path d="M528.7,531.879l-0.049-1.648c-0.667,0.66-1.345,1.136-2.032,1.429c-0.687,0.293-1.408,0.439-2.167,0.439
		c-0.698,0-1.298-0.09-1.794-0.269c-0.497-0.181-0.904-0.427-1.227-0.738c-0.322-0.313-0.561-0.684-0.709-1.105
		c-0.15-0.423-0.228-0.883-0.228-1.379c0-1.229,0.458-2.189,1.374-2.887c0.914-0.696,2.27-1.044,4.061-1.044h2.539v-1.074
		c0-0.725-0.232-1.304-0.696-1.739c-0.464-0.435-1.172-0.651-2.124-0.651c-0.689,0-1.373,0.075-2.045,0.229
		c-0.672,0.155-1.365,0.375-2.081,0.66v-1.917c0.271-0.098,0.567-0.193,0.897-0.287c0.33-0.093,0.678-0.177,1.043-0.25
		c0.367-0.073,0.749-0.132,1.146-0.177c0.398-0.045,0.802-0.067,1.208-0.067c0.74,0,1.407,0.081,2.002,0.244
		c0.596,0.163,1.099,0.411,1.508,0.745c0.411,0.333,0.728,0.752,0.946,1.257s0.329,1.101,0.329,1.782v8.447H528.7L528.7,531.879z
		 M528.469,526.301h-2.698c-0.529,0-0.985,0.053-1.367,0.158c-0.383,0.104-0.695,0.256-0.938,0.449
		c-0.244,0.195-0.427,0.432-0.543,0.702c-0.117,0.273-0.179,0.58-0.179,0.922c0,0.236,0.036,0.462,0.11,0.68
		c0.072,0.216,0.19,0.405,0.354,0.571c0.162,0.167,0.374,0.301,0.637,0.396c0.26,0.098,0.578,0.146,0.952,0.146
		c0.486,0,1.048-0.146,1.679-0.443c0.631-0.297,1.295-0.769,1.996-1.41L528.469,526.301L528.469,526.301z"/>
	<path d="M544.094,531.428c-0.557,0.211-1.121,0.368-1.703,0.47s-1.183,0.152-1.801,0.152c-1.938,0-3.43-0.524-4.477-1.575
		c-1.045-1.049-1.566-2.583-1.566-4.604c0-0.969,0.148-1.848,0.451-2.637c0.302-0.789,0.725-1.465,1.271-2.026
		c0.545-0.562,1.196-0.993,1.953-1.3c0.757-0.306,1.591-0.458,2.503-0.458c0.635,0,1.229,0.045,1.781,0.134
		c0.554,0.092,1.082,0.236,1.588,0.439v2.027c-0.529-0.277-1.068-0.479-1.617-0.604c-0.551-0.126-1.117-0.188-1.703-0.188
		c-0.546,0-1.061,0.104-1.545,0.312c-0.484,0.207-0.909,0.506-1.275,0.896c-0.364,0.39-0.653,0.865-0.865,1.429
		c-0.212,0.562-0.316,1.196-0.316,1.904c0,1.479,0.359,2.59,1.08,3.324c0.721,0.737,1.719,1.104,2.996,1.104
		c0.578,0,1.138-0.064,1.68-0.195c0.541-0.13,1.063-0.325,1.568-0.586L544.094,531.428L544.094,531.428z"/>
	<path d="M550.611,519.621v8.633l5.35-8.633h2.023v12.258h-2.123v-8.633l-5.348,8.633h-2.025v-12.258H550.611z"/>
	<path d="M572.584,528.303c0,0.561-0.115,1.074-0.354,1.537c-0.236,0.465-0.604,0.859-1.099,1.188
		c-0.497,0.33-1.125,0.586-1.888,0.771c-0.762,0.183-1.666,0.272-2.717,0.272c-0.689,0-1.428-0.024-2.209-0.079
		c-0.781-0.054-1.534-0.124-2.258-0.214v-12.098c0.764-0.089,1.539-0.158,2.324-0.207c0.786-0.049,1.635-0.073,2.546-0.073
		c1.649,0,2.907,0.271,3.767,0.813c0.857,0.542,1.287,1.318,1.287,2.338c0,0.689-0.199,1.286-0.598,1.782
		c-0.399,0.494-1.002,0.86-1.809,1.099c0.393,0.064,0.769,0.173,1.131,0.323c0.359,0.149,0.682,0.347,0.957,0.586
		s0.5,0.521,0.664,0.849C572.503,527.517,572.584,527.887,572.584,528.303z M569.813,522.981c0-0.285-0.058-0.542-0.171-0.77
		c-0.114-0.229-0.295-0.425-0.543-0.586c-0.248-0.163-0.574-0.287-0.979-0.372c-0.4-0.087-0.89-0.128-1.459-0.128
		c-0.513,0-0.961,0.01-1.343,0.028c-0.383,0.021-0.761,0.057-1.136,0.104v3.54h2.467
		C568.76,524.799,569.813,524.193,569.813,522.981z M570.34,528.352c0-0.635-0.287-1.113-0.859-1.436
		c-0.574-0.32-1.468-0.481-2.68-0.481h-2.613v3.747c0.398,0.063,0.794,0.109,1.185,0.135c0.393,0.025,0.84,0.037,1.345,0.037
		c0.725,0,1.318-0.049,1.789-0.146c0.467-0.098,0.838-0.234,1.107-0.416c0.273-0.179,0.463-0.391,0.568-0.635
		C570.285,528.911,570.34,528.645,570.34,528.352z"/>
	<path d="M586.476,525.654c0,0.952-0.135,1.825-0.403,2.618c-0.269,0.794-0.655,1.474-1.159,2.039
		c-0.506,0.564-1.117,1.005-1.844,1.318c-0.725,0.313-1.547,0.47-2.466,0.47c-0.879,0-1.667-0.138-2.362-0.409
		c-0.693-0.271-1.285-0.673-1.77-1.202c-0.485-0.529-0.855-1.185-1.111-1.966s-0.385-1.68-0.385-2.697
		c0-0.952,0.135-1.82,0.403-2.604c0.268-0.785,0.653-1.46,1.157-2.026c0.506-0.564,1.119-1.005,1.846-1.318
		c0.725-0.313,1.546-0.47,2.466-0.47c0.879,0,1.667,0.138,2.362,0.409c0.693,0.271,1.283,0.671,1.77,1.196
		c0.484,0.522,0.855,1.178,1.111,1.959C586.347,523.748,586.476,524.645,586.476,525.654z M584.302,525.75
		c0-0.758-0.083-1.419-0.25-1.982c-0.166-0.565-0.404-1.038-0.714-1.416c-0.312-0.379-0.688-0.663-1.13-0.854
		c-0.443-0.189-0.938-0.285-1.482-0.285c-0.635,0-1.178,0.124-1.629,0.37c-0.453,0.25-0.822,0.58-1.111,0.995
		s-0.5,0.897-0.635,1.446c-0.135,0.55-0.201,1.125-0.201,1.729c0,0.758,0.083,1.421,0.25,1.988c0.166,0.57,0.404,1.044,0.714,1.423
		c0.312,0.378,0.686,0.663,1.123,0.854c0.439,0.19,0.938,0.287,1.489,0.287c0.635,0,1.178-0.124,1.629-0.373
		c0.453-0.248,0.822-0.58,1.111-0.994c0.289-0.416,0.5-0.896,0.635-1.447C584.236,526.942,584.302,526.362,584.302,525.75z"/>
	<path d="M591.847,519.621v8.633l5.346-8.633h2.027v12.258h-2.125v-8.633l-5.348,8.633h-2.025v-12.258H591.847z M598.219,514.899
		c0,0.48-0.092,0.908-0.273,1.282c-0.184,0.374-0.438,0.692-0.77,0.958c-0.33,0.265-0.729,0.466-1.19,0.604
		c-0.463,0.14-0.977,0.208-1.538,0.208c-0.649,0-1.209-0.067-1.672-0.208c-0.465-0.139-0.845-0.34-1.143-0.604
		c-0.299-0.264-0.516-0.584-0.652-0.958s-0.207-0.802-0.207-1.282h1.928c0,0.236,0.029,0.456,0.086,0.66
		c0.059,0.203,0.152,0.384,0.287,0.543c0.136,0.158,0.314,0.282,0.543,0.372c0.229,0.09,0.515,0.134,0.854,0.134
		c0.35,0,0.642-0.044,0.872-0.134s0.418-0.214,0.557-0.372c0.138-0.159,0.235-0.34,0.293-0.543c0.059-0.204,0.085-0.424,0.085-0.66
		H598.219z"/>
	<path d="M604.25,534.381c0.414,0.017,0.817-0.021,1.209-0.109c0.392-0.089,0.733-0.222,1.031-0.396
		c0.297-0.176,0.534-0.393,0.713-0.651c0.182-0.261,0.271-0.56,0.271-0.894c0-0.342-0.062-0.616-0.178-0.83
		c-0.117-0.211-0.25-0.404-0.396-0.586c-0.146-0.179-0.279-0.368-0.396-0.571c-0.118-0.203-0.18-0.478-0.18-0.817
		c0-0.172,0.033-0.351,0.1-0.537c0.063-0.188,0.166-0.356,0.299-0.514c0.135-0.154,0.307-0.28,0.514-0.378
		c0.207-0.1,0.453-0.146,0.738-0.146s0.56,0.062,0.824,0.179c0.264,0.116,0.495,0.299,0.693,0.543
		c0.199,0.242,0.358,0.55,0.479,0.916c0.117,0.364,0.177,0.798,0.177,1.294c0,0.676-0.124,1.322-0.372,1.945
		c-0.248,0.622-0.619,1.176-1.111,1.653c-0.49,0.48-1.104,0.863-1.844,1.148c-0.736,0.282-1.592,0.427-2.567,0.427v-1.674
		L604.25,534.381L604.25,534.381z"/>
	<path d="M640.638,531.879h-2.123v-5.42h-5.604v5.42h-2.125v-12.256h2.125v4.979h5.604v-4.979h2.123V531.879z"/>
	<path d="M654.885,525.104c0,0.302-0.004,0.554-0.014,0.758c-0.01,0.203-0.021,0.396-0.035,0.573h-8.605
		c0,1.253,0.35,2.216,1.049,2.887c0.699,0.672,1.709,1.007,3.027,1.007c0.355,0,0.717-0.014,1.074-0.042
		c0.355-0.026,0.702-0.065,1.036-0.114c0.334-0.051,0.653-0.104,0.959-0.165c0.306-0.063,0.589-0.128,0.849-0.201v1.745
		c-0.578,0.163-1.23,0.296-1.959,0.396c-0.729,0.103-1.482,0.152-2.264,0.152c-1.053,0-1.953-0.144-2.712-0.427
		c-0.757-0.285-1.378-0.698-1.86-1.239c-0.484-0.541-0.842-1.204-1.074-1.99c-0.23-0.785-0.348-1.674-0.348-2.667
		c0-0.861,0.123-1.679,0.373-2.447c0.248-0.77,0.607-1.442,1.086-2.024c0.477-0.582,1.061-1.044,1.752-1.388
		c0.689-0.342,1.477-0.513,2.354-0.513c0.855,0,1.611,0.134,2.271,0.403c0.658,0.268,1.213,0.646,1.666,1.141
		c0.451,0.493,0.793,1.091,1.023,1.795C654.765,523.447,654.885,524.234,654.885,525.104z M652.677,524.799
		c0.021-0.545-0.029-1.044-0.16-1.495c-0.129-0.452-0.332-0.841-0.604-1.166c-0.271-0.325-0.611-0.58-1.02-0.763
		c-0.406-0.186-0.879-0.275-1.416-0.275c-0.463,0-0.887,0.09-1.271,0.27c-0.383,0.181-0.713,0.433-0.986,0.756
		c-0.277,0.326-0.5,0.719-0.672,1.174c-0.17,0.456-0.277,0.957-0.316,1.502L652.677,524.799L652.677,524.799z"/>
	<path d="M668.947,525.654c0,0.952-0.135,1.825-0.4,2.618c-0.271,0.794-0.656,1.474-1.16,2.039
		c-0.506,0.564-1.119,1.005-1.844,1.318c-0.727,0.313-1.549,0.47-2.467,0.47c-0.879,0-1.668-0.138-2.361-0.409
		c-0.695-0.271-1.285-0.673-1.771-1.202c-0.483-0.529-0.854-1.185-1.111-1.966c-0.256-0.781-0.385-1.68-0.385-2.697
		c0-0.952,0.135-1.82,0.404-2.604c0.268-0.785,0.654-1.46,1.158-2.026c0.506-0.564,1.119-1.005,1.844-1.318
		c0.725-0.313,1.547-0.47,2.467-0.47c0.879,0,1.666,0.138,2.361,0.409s1.285,0.671,1.77,1.196c0.484,0.522,0.855,1.178,1.111,1.959
		C668.818,523.748,668.947,524.645,668.947,525.654z M666.773,525.75c0-0.758-0.084-1.419-0.25-1.982
		c-0.166-0.565-0.404-1.038-0.713-1.416c-0.311-0.379-0.688-0.663-1.131-0.854c-0.443-0.189-0.938-0.285-1.482-0.285
		c-0.635,0-1.178,0.124-1.629,0.37c-0.453,0.25-0.822,0.58-1.111,0.995s-0.5,0.897-0.635,1.446c-0.135,0.55-0.201,1.125-0.201,1.729
		c0,0.758,0.082,1.421,0.25,1.988c0.166,0.57,0.404,1.044,0.717,1.423c0.309,0.378,0.684,0.663,1.121,0.854
		c0.439,0.19,0.938,0.287,1.488,0.287c0.635,0,1.178-0.124,1.629-0.373c0.453-0.248,0.822-0.58,1.111-0.994
		c0.289-0.416,0.5-0.896,0.635-1.447C666.707,526.942,666.773,526.362,666.773,525.75z"/>
	<path d="M673.623,522.395c0.568-0.798,1.203-1.394,1.904-1.789c0.699-0.395,1.488-0.592,2.367-0.592
		c0.699,0,1.344,0.128,1.936,0.385c0.592,0.256,1.1,0.637,1.525,1.141c0.428,0.507,0.76,1.128,1,1.862
		c0.24,0.736,0.361,1.581,0.361,2.532c0,0.896-0.143,1.722-0.422,2.479c-0.281,0.759-0.678,1.408-1.186,1.953
		c-0.51,0.545-1.115,0.973-1.816,1.275c-0.705,0.306-1.48,0.458-2.326,0.458c-0.889,0-1.666-0.152-2.338-0.458
		c-0.674-0.305-1.23-0.772-1.68-1.403c-0.447-0.631-0.784-1.429-1.014-2.393c-0.229-0.965-0.342-2.11-0.342-3.438
		c0-1.628,0.139-3.011,0.416-4.148c0.273-1.142,0.678-2.085,1.207-2.838c0.527-0.754,1.182-1.341,1.959-1.76
		c0.775-0.419,1.668-0.723,2.668-0.908c0.293-0.059,0.6-0.104,0.922-0.142c0.32-0.037,0.641-0.073,0.959-0.108
		c0.314-0.036,0.621-0.071,0.914-0.104s0.555-0.073,0.781-0.122v1.953c-0.162,0.041-0.35,0.073-0.557,0.098
		c-0.207,0.025-0.428,0.051-0.66,0.073c-0.229,0.024-0.471,0.049-0.719,0.073c-0.25,0.023-0.484,0.053-0.715,0.085
		c-0.951,0.123-1.732,0.322-2.344,0.599c-0.609,0.276-1.104,0.653-1.479,1.129c-0.375,0.479-0.659,1.057-0.854,1.733
		C673.902,520.698,673.744,521.49,673.623,522.395z M680.545,526.008c0-0.709-0.078-1.325-0.238-1.852
		c-0.158-0.523-0.369-0.963-0.635-1.313c-0.266-0.352-0.566-0.61-0.908-0.781s-0.701-0.256-1.074-0.256
		c-0.383,0-0.734,0.055-1.057,0.164s-0.639,0.271-0.945,0.488c-0.311,0.216-0.619,0.488-0.928,0.822
		c-0.313,0.334-0.641,0.74-0.988,1.223v0.23c0,1.106,0.084,2.018,0.256,2.729c0.17,0.713,0.402,1.274,0.695,1.688
		c0.293,0.416,0.641,0.707,1.043,0.873c0.404,0.167,0.846,0.25,1.326,0.25c0.566,0,1.066-0.119,1.5-0.357
		c0.432-0.24,0.791-0.56,1.08-0.952c0.289-0.396,0.508-0.851,0.652-1.361C680.47,527.094,680.545,526.561,680.545,526.008z"/>
	<path d="M696.816,531.879h-2.82l-3.309-4.678l-3.271,4.678h-2.744l4.746-6.152l-4.527-6.104h2.723l3.225,4.712l3.16-4.712h2.625
		l-4.604,6.15L696.816,531.879z"/>
	<path d="M710.181,525.654c0,0.952-0.133,1.825-0.402,2.618c-0.268,0.794-0.652,1.474-1.16,2.039
		c-0.504,0.564-1.117,1.005-1.842,1.318c-0.725,0.313-1.547,0.47-2.467,0.47c-0.879,0-1.666-0.138-2.361-0.409
		s-1.287-0.673-1.771-1.202c-0.484-0.529-0.854-1.185-1.109-1.966c-0.258-0.781-0.385-1.68-0.385-2.697
		c0-0.952,0.135-1.82,0.402-2.604c0.27-0.785,0.652-1.46,1.158-2.026c0.506-0.564,1.119-1.005,1.846-1.318
		c0.723-0.313,1.545-0.47,2.465-0.47c0.879,0,1.666,0.138,2.361,0.409s1.285,0.671,1.771,1.196c0.482,0.522,0.854,1.178,1.109,1.959
		C710.054,523.747,710.181,524.645,710.181,525.654z M708.01,525.75c0-0.758-0.084-1.419-0.25-1.982
		c-0.168-0.565-0.406-1.038-0.715-1.416c-0.311-0.379-0.688-0.663-1.131-0.854c-0.441-0.189-0.938-0.285-1.48-0.285
		c-0.635,0-1.18,0.124-1.631,0.37c-0.451,0.25-0.822,0.58-1.111,0.995s-0.5,0.897-0.635,1.446c-0.133,0.55-0.201,1.125-0.201,1.729
		c0,0.758,0.084,1.421,0.25,1.988c0.168,0.57,0.406,1.044,0.715,1.423c0.311,0.378,0.686,0.663,1.123,0.854
		c0.439,0.19,0.938,0.287,1.49,0.287c0.635,0,1.178-0.124,1.629-0.373c0.451-0.248,0.822-0.58,1.111-0.994
		c0.287-0.416,0.5-0.896,0.635-1.447C707.941,526.942,708.01,526.362,708.01,525.75z"/>
	<path d="M724.635,530.048l-0.133,4.956h-1.941v-3.125h-8.936v3.125h-1.916l-0.123-4.956h0.172c0.309,0,0.602-0.051,0.879-0.146
		c0.273-0.098,0.531-0.282,0.768-0.556c0.236-0.272,0.453-0.65,0.654-1.135c0.199-0.484,0.377-1.111,0.537-1.882
		c0.158-0.77,0.297-1.702,0.414-2.802c0.117-1.099,0.219-2.398,0.299-3.906h7.568v10.427H724.635L724.635,530.048z M720.756,521.452
		h-3.418c-0.082,1.399-0.188,2.594-0.318,3.577c-0.129,0.984-0.283,1.813-0.457,2.479c-0.176,0.667-0.377,1.2-0.604,1.599
		c-0.229,0.399-0.479,0.713-0.759,0.94h5.557L720.756,521.452L720.756,521.452z"/>
	<path d="M729.301,519.621v8.633l5.346-8.633h2.027v12.258h-2.125v-8.633l-5.348,8.633h-2.025v-12.258H729.301z"/>
	<path d="M751.943,531.879h-2.1l-0.318-7.654l-0.135-2.722l-0.719,1.902l-2.295,5.566h-1.553l-2.209-5.347l-0.77-2.124l-0.1,2.881
		l-0.33,7.495h-2.023l0.781-12.258h2.816l2.102,5.285l0.572,1.575l0.574-1.575l2.148-5.285h2.783L751.943,531.879z"/>
	<path d="M765.162,525.654c0,0.952-0.133,1.825-0.4,2.618c-0.27,0.794-0.654,1.474-1.16,2.039c-0.504,0.564-1.119,1.005-1.842,1.318
		c-0.727,0.313-1.547,0.47-2.467,0.47c-0.881,0-1.666-0.138-2.361-0.409c-0.697-0.271-1.287-0.673-1.771-1.202
		c-0.482-0.529-0.854-1.185-1.107-1.966c-0.258-0.781-0.385-1.68-0.385-2.697c0-0.952,0.135-1.82,0.4-2.604
		c0.271-0.785,0.654-1.46,1.16-2.026c0.504-0.564,1.119-1.005,1.844-1.318c0.725-0.313,1.545-0.47,2.465-0.47
		c0.881,0,1.666,0.138,2.361,0.409c0.697,0.271,1.287,0.671,1.771,1.196c0.48,0.522,0.854,1.178,1.107,1.959
		C765.035,523.747,765.162,524.645,765.162,525.654z M762.99,525.75c0-0.758-0.084-1.419-0.25-1.982
		c-0.168-0.565-0.406-1.038-0.715-1.416c-0.309-0.379-0.686-0.663-1.129-0.854c-0.443-0.189-0.938-0.285-1.482-0.285
		c-0.635,0-1.18,0.124-1.631,0.37c-0.451,0.25-0.822,0.58-1.109,0.995c-0.289,0.415-0.5,0.897-0.637,1.446
		c-0.133,0.55-0.2,1.125-0.2,1.729c0,0.758,0.084,1.421,0.25,1.988c0.169,0.57,0.405,1.044,0.716,1.423
		c0.309,0.378,0.684,0.663,1.123,0.854c0.438,0.19,0.936,0.287,1.488,0.287c0.637,0,1.18-0.124,1.63-0.373
		c0.45-0.248,0.821-0.58,1.11-0.994c0.287-0.416,0.5-0.896,0.635-1.447C762.924,526.942,762.99,526.362,762.99,525.75z"/>
	<path d="M791.508,531.428c-0.557,0.211-1.121,0.368-1.703,0.47s-1.184,0.152-1.802,0.152c-1.938,0-3.429-0.524-4.476-1.575
		c-1.045-1.049-1.567-2.583-1.567-4.604c0-0.969,0.149-1.848,0.452-2.637s0.725-1.465,1.271-2.026
		c0.545-0.562,1.195-0.993,1.953-1.3c0.756-0.306,1.59-0.458,2.502-0.458c0.635,0,1.229,0.045,1.781,0.134
		c0.555,0.092,1.081,0.236,1.588,0.439v2.027c-0.529-0.277-1.068-0.479-1.617-0.604c-0.551-0.126-1.117-0.188-1.703-0.188
		c-0.545,0-1.061,0.104-1.545,0.312c-0.484,0.207-0.908,0.506-1.275,0.896c-0.363,0.391-0.652,0.865-0.865,1.429
		c-0.213,0.562-0.316,1.196-0.316,1.904c0,1.479,0.359,2.59,1.08,3.324c0.721,0.737,1.719,1.104,2.996,1.104
		c0.578,0,1.137-0.064,1.68-0.195c0.541-0.13,1.063-0.325,1.568-0.586L791.508,531.428L791.508,531.428z"/>
	<path d="M806.398,525.654c0,0.952-0.135,1.825-0.402,2.618c-0.27,0.794-0.654,1.474-1.158,2.039
		c-0.508,0.564-1.119,1.005-1.846,1.318c-0.725,0.313-1.547,0.47-2.465,0.47c-0.879,0-1.668-0.138-2.363-0.409
		c-0.693-0.271-1.283-0.673-1.77-1.202s-0.855-1.185-1.111-1.966s-0.385-1.68-0.385-2.697c0-0.952,0.135-1.82,0.404-2.604
		c0.268-0.785,0.652-1.46,1.158-2.026c0.506-0.564,1.117-1.005,1.844-1.318c0.725-0.313,1.547-0.47,2.467-0.47
		c0.879,0,1.666,0.138,2.361,0.409c0.693,0.271,1.285,0.671,1.77,1.196c0.484,0.522,0.855,1.178,1.111,1.959
		C806.269,523.748,806.398,524.645,806.398,525.654z M804.224,525.75c0-0.758-0.084-1.419-0.25-1.982
		c-0.166-0.565-0.404-1.038-0.713-1.416c-0.313-0.379-0.688-0.663-1.131-0.854c-0.443-0.189-0.938-0.285-1.482-0.285
		c-0.635,0-1.178,0.124-1.629,0.37c-0.453,0.25-0.822,0.58-1.111,0.995s-0.5,0.897-0.635,1.446c-0.135,0.55-0.201,1.125-0.201,1.729
		c0,0.758,0.082,1.421,0.25,1.988c0.166,0.57,0.404,1.044,0.715,1.423c0.311,0.378,0.686,0.663,1.123,0.854
		c0.439,0.19,0.938,0.287,1.488,0.287c0.635,0,1.178-0.124,1.629-0.373c0.453-0.248,0.822-0.58,1.111-0.994
		c0.289-0.416,0.5-0.896,0.635-1.447C804.158,526.942,804.224,526.362,804.224,525.75z"/>
	<path d="M819.996,528.303c0,0.561-0.115,1.074-0.354,1.537c-0.236,0.465-0.604,0.859-1.098,1.188
		c-0.498,0.33-1.129,0.586-1.889,0.771c-0.762,0.183-1.666,0.272-2.717,0.272c-0.691,0-1.428-0.024-2.209-0.079
		c-0.781-0.054-1.533-0.124-2.258-0.214v-12.098c0.764-0.089,1.539-0.158,2.324-0.207c0.783-0.049,1.635-0.073,2.547-0.073
		c1.648,0,2.904,0.271,3.766,0.813c0.857,0.542,1.287,1.318,1.287,2.338c0,0.689-0.199,1.286-0.598,1.782
		c-0.399,0.494-1.004,0.86-1.809,1.099c0.393,0.064,0.768,0.173,1.129,0.323c0.361,0.149,0.684,0.347,0.959,0.586
		s0.498,0.521,0.664,0.849S819.996,527.887,819.996,528.303z M817.226,522.981c0-0.285-0.059-0.542-0.172-0.77
		c-0.113-0.229-0.295-0.425-0.543-0.586c-0.248-0.163-0.574-0.287-0.979-0.372c-0.4-0.087-0.889-0.128-1.459-0.128
		c-0.512,0-0.961,0.01-1.342,0.028c-0.383,0.021-0.762,0.057-1.137,0.104v3.54h2.467
		C816.174,524.799,817.226,524.193,817.226,522.981z M817.75,528.352c0-0.635-0.285-1.113-0.857-1.436
		c-0.574-0.32-1.467-0.481-2.68-0.481h-2.613v3.747c0.396,0.063,0.795,0.109,1.186,0.135c0.393,0.025,0.838,0.037,1.344,0.037
		c0.725,0,1.318-0.049,1.788-0.146c0.468-0.098,0.839-0.234,1.108-0.416c0.273-0.179,0.463-0.391,0.568-0.635
		C817.697,528.911,817.75,528.645,817.75,528.352z"/>
	<path d="M833.57,525.104c0,0.302-0.004,0.554-0.012,0.758c-0.008,0.203-0.021,0.396-0.037,0.573h-8.605
		c0,1.253,0.352,2.216,1.053,2.887c0.697,0.672,1.709,1.007,3.025,1.007c0.357,0,0.717-0.014,1.074-0.042
		c0.357-0.026,0.703-0.065,1.037-0.114c0.334-0.051,0.652-0.104,0.957-0.165c0.307-0.063,0.588-0.128,0.85-0.201v1.745
		c-0.578,0.163-1.23,0.296-1.959,0.396c-0.729,0.104-1.482,0.152-2.266,0.152c-1.049,0-1.953-0.144-2.709-0.427
		c-0.758-0.285-1.379-0.698-1.861-1.239s-0.844-1.204-1.074-1.99c-0.23-0.785-0.348-1.674-0.348-2.667
		c0-0.861,0.123-1.679,0.371-2.447c0.248-0.77,0.611-1.442,1.086-2.024c0.477-0.582,1.061-1.044,1.752-1.388
		c0.691-0.342,1.479-0.513,2.357-0.513c0.854,0,1.609,0.134,2.27,0.403c0.66,0.268,1.215,0.646,1.666,1.141s0.793,1.091,1.025,1.795
		C833.454,523.447,833.57,524.234,833.57,525.104z M831.361,524.799c0.025-0.545-0.029-1.044-0.158-1.495
		c-0.131-0.452-0.332-0.841-0.604-1.166s-0.611-0.58-1.02-0.763c-0.406-0.186-0.879-0.275-1.416-0.275
		c-0.465,0-0.889,0.09-1.27,0.27c-0.383,0.181-0.713,0.433-0.99,0.756c-0.273,0.326-0.5,0.719-0.67,1.174
		c-0.172,0.456-0.277,0.957-0.318,1.502L831.361,524.799L831.361,524.799z"/>
	<path d="M847.437,525.531c0,1.091-0.152,2.043-0.457,2.856c-0.305,0.813-0.727,1.489-1.264,2.024
		c-0.537,0.537-1.172,0.939-1.904,1.209s-1.525,0.402-2.381,0.402c-0.391,0-0.779-0.021-1.166-0.061
		c-0.387-0.041-0.779-0.11-1.178-0.208v5.127h-2.123v-17.262h1.893l0.133,2.053c0.611-0.838,1.264-1.428,1.953-1.766
		c0.691-0.338,1.441-0.507,2.246-0.507c0.701,0,1.314,0.146,1.844,0.439c0.53,0.293,0.975,0.706,1.33,1.237
		c0.359,0.533,0.627,1.178,0.809,1.931C847.347,523.764,847.437,524.604,847.437,525.531z M845.265,525.629
		c0-0.645-0.047-1.232-0.141-1.771c-0.096-0.538-0.242-0.997-0.445-1.38s-0.465-0.682-0.781-0.896
		c-0.318-0.217-0.695-0.323-1.135-0.323c-0.271,0-0.543,0.043-0.818,0.128c-0.275,0.086-0.563,0.229-0.861,0.428
		c-0.297,0.199-0.607,0.464-0.938,0.793c-0.33,0.33-0.682,0.738-1.057,1.229v5.943c0.391,0.163,0.803,0.291,1.232,0.385
		c0.43,0.096,0.854,0.143,1.271,0.143c1.146,0,2.045-0.389,2.695-1.166C844.939,528.362,845.265,527.192,845.265,525.629z"/>
	<path d="M849.855,519.621h1.953v10.512h2.844v-10.512h1.953v10.512h2.844v-10.512h1.953v12.258h-11.547V519.621z"/>
	<path d="M866.75,519.621v8.633l5.348-8.633h2.025v12.258h-2.125v-8.633l-5.346,8.633h-2.027v-12.258H866.75z"/>
	<path d="M888.844,521.452h-4.65v10.427h-2.146v-10.427h-4.65v-1.831h11.449L888.844,521.452L888.844,521.452z"/>
	<path d="M894.142,524.25c0.203-0.011,0.406-0.017,0.609-0.021c0.201-0.004,0.41-0.008,0.623-0.013
		c0.211-0.004,0.436-0.008,0.672-0.014c0.234-0.004,0.49-0.006,0.77-0.006c1.887,0,3.289,0.323,4.205,0.972
		c0.914,0.646,1.373,1.593,1.373,2.839c0,1.334-0.484,2.337-1.453,3.009c-0.969,0.671-2.434,1.007-4.395,1.007
		c-0.889,0-1.691-0.019-2.41-0.055c-0.721-0.037-1.428-0.102-2.119-0.189v-12.158h2.125V524.25z M900.197,528.059
		c0-0.342-0.063-0.643-0.188-0.897c-0.127-0.257-0.328-0.472-0.604-0.646c-0.275-0.174-0.635-0.307-1.073-0.396
		c-0.438-0.089-0.97-0.135-1.589-0.135c-0.391,0-0.816,0.005-1.279,0.014c-0.467,0.009-0.904,0.021-1.318,0.035v4.092
		c0.414,0.041,0.813,0.069,1.201,0.092c0.387,0.021,0.813,0.028,1.275,0.028c0.686,0,1.253-0.043,1.709-0.128
		c0.455-0.086,0.82-0.216,1.1-0.391c0.276-0.175,0.475-0.401,0.592-0.678C900.137,528.771,900.197,528.441,900.197,528.059z"/>
</g>
<g enable-background="new    ">
	<path d="M393.848,555.531c0,1.091-0.152,2.043-0.458,2.856c-0.307,0.813-0.728,1.489-1.265,2.024
		c-0.537,0.537-1.172,0.939-1.902,1.209c-0.732,0.27-1.526,0.402-2.382,0.402c-0.391,0-0.777-0.021-1.165-0.061
		c-0.387-0.041-0.778-0.11-1.179-0.208v5.127h-2.124v-17.262h1.894l0.134,2.053c0.609-0.838,1.261-1.428,1.953-1.766
		c0.689-0.338,1.438-0.507,2.246-0.507c0.698,0,1.313,0.146,1.843,0.439s0.972,0.706,1.331,1.237
		c0.356,0.533,0.626,1.178,0.806,1.931C393.759,553.764,393.848,554.604,393.848,555.531z M391.676,555.629
		c0-0.645-0.047-1.232-0.141-1.771c-0.093-0.537-0.242-0.997-0.445-1.38c-0.202-0.383-0.464-0.682-0.779-0.896
		c-0.317-0.217-0.696-0.323-1.137-0.323c-0.269,0-0.542,0.043-0.816,0.128c-0.277,0.086-0.563,0.229-0.86,0.428
		s-0.608,0.464-0.938,0.793c-0.329,0.33-0.684,0.738-1.058,1.229v5.943c0.393,0.163,0.802,0.291,1.233,0.385
		c0.431,0.096,0.854,0.143,1.27,0.143c1.147,0,2.046-0.389,2.698-1.166C391.35,558.362,391.676,557.192,391.676,555.629z"/>
	<path d="M404.993,561.879l-0.049-1.648c-0.667,0.66-1.345,1.136-2.033,1.429c-0.688,0.293-1.41,0.439-2.167,0.439
		c-0.7,0-1.298-0.09-1.794-0.269c-0.497-0.181-0.905-0.427-1.227-0.738c-0.322-0.313-0.56-0.684-0.708-1.105
		c-0.151-0.423-0.228-0.883-0.228-1.379c0-1.229,0.458-2.189,1.374-2.887c0.915-0.696,2.27-1.044,4.061-1.044h2.539v-1.074
		c0-0.725-0.232-1.304-0.696-1.739c-0.464-0.435-1.172-0.651-2.124-0.651c-0.692,0-1.374,0.075-2.044,0.229
		c-0.672,0.155-1.366,0.375-2.082,0.66v-1.917c0.269-0.098,0.566-0.193,0.896-0.287c0.33-0.093,0.68-0.177,1.044-0.25
		c0.366-0.073,0.749-0.132,1.147-0.177c0.396-0.045,0.801-0.067,1.208-0.067c0.74,0,1.408,0.081,2.002,0.244
		s1.097,0.411,1.507,0.745c0.411,0.333,0.729,0.752,0.946,1.257s0.33,1.101,0.33,1.782v8.447H404.993L404.993,561.879z
		 M404.761,556.301h-2.698c-0.529,0-0.985,0.053-1.367,0.158c-0.383,0.104-0.696,0.256-0.94,0.449
		c-0.242,0.195-0.425,0.432-0.543,0.702c-0.116,0.273-0.177,0.58-0.177,0.922c0,0.236,0.037,0.462,0.11,0.68
		c0.071,0.216,0.189,0.405,0.354,0.571c0.163,0.167,0.374,0.301,0.635,0.396c0.262,0.098,0.578,0.146,0.952,0.146
		c0.488,0,1.048-0.146,1.68-0.443c0.631-0.297,1.296-0.769,1.996-1.41L404.761,556.301L404.761,556.301z"/>
	<path d="M410.535,559.682c0.358,0.098,0.74,0.184,1.147,0.256c0.405,0.074,0.81,0.139,1.208,0.195
		c0.396,0.058,0.781,0.101,1.151,0.129c0.371,0.026,0.702,0.043,0.995,0.043c0.691,0,1.27-0.045,1.729-0.135
		c0.459-0.092,0.824-0.22,1.099-0.387c0.272-0.166,0.465-0.369,0.58-0.608c0.114-0.239,0.171-0.511,0.171-0.813
		c0-0.293-0.051-0.56-0.153-0.8c-0.102-0.239-0.283-0.449-0.549-0.628c-0.265-0.18-0.625-0.318-1.081-0.416
		s-1.038-0.146-1.746-0.146h-3.003v-1.646h2.991c0.618,0,1.125-0.041,1.521-0.122c0.395-0.081,0.704-0.199,0.934-0.354
		c0.228-0.155,0.382-0.344,0.464-0.563c0.081-0.219,0.122-0.472,0.122-0.756c0-0.277-0.051-0.523-0.152-0.739
		c-0.102-0.215-0.271-0.396-0.507-0.549c-0.234-0.15-0.549-0.267-0.938-0.349c-0.393-0.081-0.875-0.121-1.453-0.121
		c-0.636,0-1.331,0.044-2.087,0.134c-0.757,0.09-1.516,0.22-2.271,0.391v-1.794c0.333-0.072,0.694-0.143,1.081-0.208
		c0.386-0.063,0.779-0.118,1.178-0.159c0.398-0.039,0.796-0.07,1.19-0.098c0.395-0.021,0.771-0.036,1.129-0.036
		c0.96,0,1.762,0.079,2.405,0.238c0.643,0.158,1.16,0.38,1.55,0.665s0.667,0.623,0.83,1.014c0.163,0.393,0.244,0.817,0.244,1.281
		c0,0.342-0.05,0.665-0.146,0.971c-0.098,0.307-0.249,0.58-0.452,0.824c-0.204,0.244-0.462,0.451-0.773,0.622
		c-0.313,0.171-0.69,0.293-1.129,0.366c0.438,0.063,0.846,0.173,1.221,0.321c0.374,0.151,0.698,0.353,0.97,0.601
		c0.273,0.248,0.488,0.543,0.647,0.885c0.158,0.342,0.237,0.732,0.237,1.172c0,0.537-0.104,1.036-0.312,1.495
		c-0.208,0.46-0.548,0.854-1.02,1.187c-0.474,0.327-1.097,0.588-1.868,0.773c-0.773,0.188-1.723,0.28-2.846,0.28
		c-0.301,0-0.633-0.011-0.993-0.03c-0.362-0.021-0.736-0.049-1.123-0.086c-0.388-0.036-0.769-0.081-1.143-0.134
		c-0.375-0.053-0.725-0.116-1.05-0.189V559.682L410.535,559.682z"/>
	<path d="M434.351,561.879h-2.124v-10.427h-3.418c-0.098,1.679-0.242,3.112-0.435,4.312c-0.19,1.195-0.422,2.195-0.688,2.996
		c-0.269,0.802-0.574,1.433-0.916,1.893s-0.71,0.793-1.104,1.001c-0.396,0.207-0.813,0.311-1.252,0.306
		c-0.438-0.005-0.891-0.063-1.354-0.178l0.098-1.758c0.325,0.032,0.63,0.018,0.916-0.049c0.285-0.065,0.549-0.222,0.793-0.47
		s0.467-0.606,0.666-1.074s0.38-1.093,0.543-1.874s0.305-1.739,0.421-2.875c0.118-1.135,0.216-2.488,0.287-4.061h7.568
		L434.351,561.879L434.351,561.879z"/>
	<path d="M440.65,549.621v8.633l5.347-8.633h2.026v12.258h-2.124v-8.633l-5.347,8.633h-2.026v-12.258H440.65z"/>
	<path d="M459.827,557.131h-2.525c-1.896,0-3.288-0.354-4.177-1.063c-0.887-0.708-1.329-1.737-1.329-3.088v-3.357h2.146v3.076
		c0,0.488,0.065,0.899,0.195,1.232c0.13,0.334,0.34,0.604,0.628,0.813c0.289,0.207,0.659,0.355,1.111,0.445
		c0.449,0.09,0.998,0.135,1.642,0.135h2.307v-5.701h2.124v12.258h-2.124v-4.748L459.827,557.131L459.827,557.131z"/>
	<path d="M475.697,561.879h-2.124v-5.42h-5.603v5.42h-2.124v-12.256h2.124v4.979h5.603v-4.979h2.124V561.879z"/>
	<path d="M480.738,554.36c0.293-0.008,0.567-0.014,0.824-0.019c0.256-0.004,0.521-0.006,0.799-0.006
		c0.767,0,1.436,0.092,2.008,0.272c0.573,0.186,1.053,0.439,1.436,0.771c0.382,0.328,0.667,0.725,0.854,1.184
		c0.188,0.46,0.281,0.959,0.281,1.496c0,0.65-0.11,1.223-0.33,1.715s-0.533,0.905-0.938,1.238c-0.407,0.334-0.905,0.586-1.495,0.758
		c-0.59,0.17-1.292,0.256-2.106,0.256c-0.521,0-1.071-0.015-1.653-0.043c-0.581-0.028-1.175-0.087-1.775-0.177v-12.185h2.1
		L480.738,554.36L480.738,554.36z M484.742,558.117c0-0.643-0.201-1.142-0.604-1.495c-0.403-0.353-1.043-0.529-1.922-0.529
		c-0.236,0-0.478,0.004-0.722,0.013c-0.243,0.008-0.495,0.021-0.757,0.036v4.028c0.262,0.041,0.508,0.065,0.745,0.077
		c0.236,0.015,0.472,0.021,0.708,0.021c0.496,0,0.907-0.059,1.233-0.177c0.323-0.118,0.584-0.274,0.773-0.472
		c0.191-0.193,0.329-0.424,0.415-0.684C484.699,558.677,484.742,558.405,484.742,558.117z M488.282,561.879v-12.256h2.102v12.256
		H488.282z"/>
	<path d="M503.687,555.104c0,0.302-0.004,0.554-0.012,0.758c-0.008,0.203-0.021,0.396-0.037,0.573h-8.606
		c0,1.253,0.352,2.216,1.05,2.887c0.7,0.672,1.709,1.007,3.027,1.007c0.358,0,0.716-0.014,1.074-0.042
		c0.357-0.026,0.704-0.065,1.038-0.114c0.333-0.051,0.653-0.104,0.958-0.165c0.306-0.063,0.588-0.128,0.849-0.201v1.745
		c-0.578,0.163-1.229,0.296-1.959,0.396c-0.729,0.104-1.481,0.152-2.265,0.152c-1.05,0-1.953-0.144-2.71-0.427
		c-0.757-0.285-1.377-0.698-1.861-1.239c-0.483-0.541-0.843-1.204-1.074-1.99c-0.23-0.785-0.348-1.674-0.348-2.667
		c0-0.861,0.124-1.679,0.373-2.447c0.248-0.77,0.61-1.442,1.086-2.024c0.477-0.582,1.06-1.044,1.752-1.388
		c0.691-0.342,1.478-0.513,2.356-0.513c0.854,0,1.609,0.134,2.271,0.403c0.659,0.268,1.214,0.646,1.667,1.141
		c0.451,0.493,0.793,1.091,1.025,1.795C503.571,553.447,503.687,554.234,503.687,555.104z M501.478,554.799
		c0.023-0.545-0.029-1.044-0.159-1.495c-0.13-0.452-0.332-0.841-0.604-1.166c-0.272-0.325-0.612-0.58-1.021-0.763
		c-0.407-0.186-0.879-0.275-1.416-0.275c-0.464,0-0.887,0.09-1.27,0.27c-0.383,0.181-0.712,0.433-0.989,0.756
		c-0.277,0.326-0.5,0.719-0.671,1.174c-0.171,0.456-0.277,0.957-0.317,1.502L501.478,554.799L501.478,554.799z"/>
	<path d="M532.203,560.048l-0.135,4.956h-1.938v-3.125h-8.938v3.125h-1.917l-0.121-4.956h0.17c0.312,0,0.604-0.051,0.879-0.146
		c0.277-0.098,0.533-0.282,0.771-0.556c0.236-0.272,0.453-0.65,0.653-1.135c0.197-0.484,0.378-1.111,0.536-1.882
		c0.157-0.77,0.298-1.702,0.414-2.802c0.117-1.099,0.219-2.398,0.301-3.906h7.566v10.427H532.203L532.203,560.048z M528.321,551.452
		h-3.418c-0.081,1.399-0.188,2.594-0.317,3.577c-0.131,0.984-0.281,1.813-0.456,2.479c-0.177,0.667-0.378,1.2-0.604,1.599
		c-0.228,0.399-0.479,0.713-0.756,0.94h5.554L528.321,551.452L528.321,551.452z"/>
	<path d="M544.925,555.104c0,0.302-0.006,0.554-0.015,0.758c-0.008,0.203-0.02,0.396-0.035,0.573h-8.605
		c0,1.253,0.35,2.216,1.051,2.887c0.699,0.672,1.709,1.007,3.027,1.007c0.355,0,0.715-0.014,1.073-0.042
		c0.356-0.026,0.702-0.065,1.036-0.114c0.334-0.051,0.653-0.104,0.959-0.165c0.307-0.063,0.589-0.128,0.85-0.201v1.745
		c-0.578,0.163-1.23,0.296-1.959,0.396c-0.729,0.103-1.483,0.152-2.266,0.152c-1.051,0-1.952-0.144-2.711-0.427
		c-0.757-0.285-1.377-0.698-1.859-1.239c-0.484-0.541-0.844-1.204-1.074-1.99c-0.232-0.785-0.349-1.674-0.349-2.667
		c0-0.861,0.123-1.679,0.372-2.447c0.248-0.77,0.609-1.442,1.087-2.024c0.477-0.582,1.06-1.044,1.752-1.388
		c0.689-0.342,1.478-0.513,2.354-0.513c0.854,0,1.611,0.134,2.271,0.403c0.659,0.268,1.215,0.646,1.667,1.141
		c0.45,0.493,0.793,1.091,1.023,1.795C544.806,553.447,544.925,554.234,544.925,555.104z M542.715,554.799
		c0.023-0.545-0.028-1.044-0.158-1.495c-0.131-0.452-0.332-0.841-0.604-1.166c-0.271-0.325-0.61-0.58-1.019-0.763
		c-0.408-0.186-0.879-0.275-1.416-0.275c-0.465,0-0.888,0.09-1.271,0.27c-0.383,0.181-0.713,0.433-0.987,0.756
		c-0.276,0.326-0.501,0.719-0.672,1.174c-0.173,0.456-0.276,0.957-0.317,1.502L542.715,554.799L542.715,554.799z"/>
	<path d="M550.611,549.621v8.633l5.349-8.633h2.024v12.258h-2.124v-8.633l-5.347,8.633h-2.026v-12.258H550.611z M556.983,544.899
		c0,0.48-0.092,0.908-0.274,1.282c-0.184,0.374-0.438,0.692-0.77,0.958c-0.329,0.265-0.727,0.466-1.189,0.604
		c-0.465,0.141-0.977,0.208-1.539,0.208c-0.648,0-1.206-0.067-1.672-0.208c-0.464-0.139-0.844-0.34-1.142-0.604
		c-0.297-0.264-0.515-0.584-0.653-0.958c-0.138-0.374-0.207-0.802-0.207-1.282h1.931c0,0.236,0.026,0.456,0.085,0.66
		c0.057,0.203,0.151,0.384,0.287,0.543c0.135,0.158,0.313,0.282,0.543,0.372c0.229,0.09,0.514,0.134,0.854,0.134
		c0.35,0,0.641-0.044,0.872-0.134c0.232-0.09,0.417-0.214,0.556-0.372c0.141-0.159,0.236-0.34,0.293-0.543
		c0.059-0.204,0.088-0.424,0.088-0.66H556.983z"/>
	<path d="M571.584,561.428c-0.555,0.211-1.12,0.368-1.702,0.47c-0.581,0.102-1.185,0.152-1.802,0.152
		c-1.938,0-3.429-0.524-4.475-1.575c-1.045-1.049-1.568-2.583-1.568-4.604c0-0.969,0.15-1.848,0.451-2.637s0.727-1.465,1.271-2.026
		c0.545-0.561,1.195-0.993,1.953-1.3c0.758-0.306,1.592-0.458,2.503-0.458c0.635,0,1.229,0.045,1.78,0.134
		c0.555,0.092,1.082,0.236,1.588,0.439v2.027c-0.528-0.277-1.067-0.479-1.616-0.604c-0.552-0.126-1.117-0.188-1.703-0.188
		c-0.546,0-1.062,0.104-1.544,0.312c-0.484,0.207-0.91,0.506-1.275,0.896c-0.367,0.391-0.656,0.865-0.867,1.429
		c-0.212,0.562-0.315,1.196-0.315,1.904c0,1.479,0.358,2.59,1.08,3.324c0.721,0.737,1.72,1.104,2.997,1.104
		c0.576,0,1.137-0.064,1.679-0.195c0.541-0.13,1.063-0.325,1.567-0.586v1.98H571.584z"/>
	<path d="M586.451,551.452h-4.648v10.427h-2.148v-10.427h-4.65v-1.831h11.449L586.451,551.452L586.451,551.452z"/>
	<path d="M600.074,558.303c0,0.561-0.118,1.074-0.354,1.537c-0.236,0.465-0.604,0.859-1.102,1.188
		c-0.495,0.33-1.125,0.586-1.886,0.771c-0.761,0.183-1.666,0.272-2.716,0.272c-0.691,0-1.428-0.024-2.209-0.079
		c-0.781-0.054-1.535-0.124-2.259-0.214v-12.098c0.765-0.089,1.54-0.158,2.325-0.207c0.783-0.049,1.634-0.073,2.545-0.073
		c1.65,0,2.906,0.271,3.767,0.813c0.858,0.542,1.288,1.318,1.288,2.338c0,0.689-0.2,1.286-0.599,1.782
		c-0.399,0.494-1.001,0.86-1.809,1.099c0.393,0.064,0.769,0.173,1.129,0.323c0.362,0.149,0.684,0.347,0.958,0.586
		c0.277,0.239,0.499,0.521,0.666,0.849C599.99,557.517,600.074,557.887,600.074,558.303z M597.302,552.981
		c0-0.285-0.059-0.542-0.17-0.77c-0.115-0.229-0.295-0.425-0.544-0.586c-0.248-0.163-0.573-0.287-0.979-0.372
		c-0.401-0.087-0.89-0.128-1.458-0.128c-0.514,0-0.961,0.01-1.344,0.028c-0.383,0.021-0.761,0.057-1.135,0.104v3.54h2.466
		C596.25,554.799,597.302,554.193,597.302,552.981z M597.828,558.352c0-0.635-0.287-1.113-0.858-1.436
		c-0.574-0.32-1.47-0.481-2.682-0.481h-2.61v3.747c0.396,0.063,0.793,0.109,1.184,0.135c0.393,0.025,0.838,0.037,1.344,0.037
		c0.726,0,1.32-0.049,1.788-0.146c0.47-0.097,0.838-0.234,1.11-0.416c0.273-0.179,0.462-0.391,0.568-0.635
		C597.775,558.91,597.828,558.645,597.828,558.352z"/>
	<path d="M605.594,549.621v8.633l5.347-8.633h2.026v12.258h-2.124v-8.633l-5.349,8.633h-2.024v-12.258H605.594z"/>
	<path d="M617.81,558.339c0.27-0.569,0.564-1.001,0.886-1.294c0.322-0.293,0.728-0.488,1.214-0.586
		c-0.512-0.1-0.936-0.258-1.27-0.479c-0.334-0.219-0.602-0.474-0.799-0.763c-0.199-0.288-0.338-0.598-0.415-0.921
		c-0.077-0.326-0.116-0.647-0.116-0.967c0-0.535,0.09-1.042,0.269-1.514c0.181-0.472,0.47-0.883,0.866-1.23
		c0.398-0.353,0.922-0.629,1.569-0.83c0.646-0.204,1.57-0.308,2.774-0.308c0.678,0,1.346,0.022,2.002,0.067
		c0.66,0.045,1.309,0.1,1.941,0.164v12.194h-2.124v-4.747h-1.843c-0.285,0-0.576,0.024-0.873,0.077
		c-0.297,0.055-0.568,0.15-0.813,0.293c-0.245,0.145-0.465,0.327-0.665,0.558c-0.197,0.228-0.376,0.517-0.528,0.866l-1.346,2.954
		h-2.402L617.81,558.339z M619.483,553.31c0,0.7,0.238,1.225,0.714,1.575c0.479,0.35,1.184,0.522,2.118,0.522h2.295v-4.102
		c-0.351-0.032-0.688-0.058-1.013-0.073c-0.326-0.017-0.668-0.022-1.025-0.022c-0.701,0-1.231,0.047-1.6,0.141
		s-0.655,0.228-0.867,0.402c-0.211,0.176-0.367,0.389-0.47,0.642C619.534,552.647,619.483,552.949,619.483,553.31z"/>
	<path d="M635.609,558.031c0.275,0,0.539,0.056,0.787,0.159c0.248,0.105,0.464,0.252,0.646,0.439
		c0.184,0.188,0.326,0.403,0.434,0.651c0.104,0.248,0.158,0.517,0.158,0.8c0,0.276-0.053,0.536-0.158,0.78s-0.25,0.458-0.434,0.644
		c-0.185,0.183-0.398,0.327-0.646,0.433c-0.248,0.106-0.512,0.159-0.787,0.159c-0.285,0-0.55-0.053-0.794-0.159
		c-0.244-0.104-0.458-0.25-0.641-0.433c-0.186-0.186-0.328-0.397-0.436-0.644c-0.104-0.244-0.159-0.504-0.159-0.78
		c0-0.283,0.055-0.552,0.159-0.8c0.105-0.248,0.25-0.466,0.436-0.651c0.183-0.188,0.396-0.334,0.641-0.439
		C635.06,558.087,635.324,558.031,635.609,558.031z"/>
</g>
</svg>
