<?xml version="1.0" encoding="utf-8"?>
<!-- Generator: Adobe Illustrator 15.1.0, SVG Export Plug-In . SVG Version: 6.00 Build 0)  -->
<!DOCTYPE svg PUBLIC "-//W3C//DTD SVG 1.1//EN" "http://www.w3.org/Graphics/SVG/1.1/DTD/svg11.dtd">
<svg version="1.1" id="Layer_1" xmlns="http://www.w3.org/2000/svg" xmlns:xlink="http://www.w3.org/1999/xlink" x="0px" y="0px"
	 width="73px" height="473px" viewBox="0 0 73 473" enable-background="new 0 0 73 473" xml:space="preserve">
<g>
	<path fill-rule="evenodd" clip-rule="evenodd" fill="#FFFFFF" d="M31.349,16.797c2.81-2.779,5.62-2.765,8.43,0.045l25.512,25.512
		c2.779,2.81,2.765,5.604-0.044,8.385L39.733,76.251c-2.81,2.81-5.604,2.81-8.384,0L5.837,50.739c-2.81-2.81-2.81-5.62,0-8.429
		L31.349,16.797z"/>
	
		<path fill-rule="evenodd" clip-rule="evenodd" fill="none" stroke="#DE5F26" stroke-width="5" stroke-linecap="round" stroke-linejoin="round" stroke-miterlimit="3" d="
		M31.349,16.797L5.837,42.31c-2.81,2.81-2.81,5.619,0,8.429l25.512,25.512c2.78,2.81,5.574,2.81,8.384,0l25.514-25.512
		c2.809-2.78,2.823-5.575,0.044-8.385L39.779,16.842C36.969,14.033,34.159,14.018,31.349,16.797z"/>
	<g>
		<path fill-rule="evenodd" clip-rule="evenodd" fill="#DE5F26" d="M31.939,30.638c0.856,0,1.285,0.429,1.285,1.286v25.264
			c0,0.857-0.429,1.286-1.285,1.286h-5.957c-0.857,0-1.286-0.429-1.286-1.286V31.924c0-0.857,0.429-1.286,1.286-1.286H31.939z"/>
		
			<path fill-rule="evenodd" clip-rule="evenodd" fill="none" stroke="#DE5F26" stroke-width="3" stroke-linecap="round" stroke-miterlimit="3" d="
			M31.939,30.638h-5.957c-0.857,0-1.286,0.429-1.286,1.286v25.264c0,0.857,0.429,1.286,1.286,1.286h5.957
			c0.856,0,1.285-0.429,1.285-1.286V31.924C33.225,31.067,32.796,30.638,31.939,30.638z"/>
		
			<line fill-rule="evenodd" clip-rule="evenodd" fill="none" stroke="#FFFFFF" stroke-width="3" stroke-linecap="square" stroke-miterlimit="3" x1="23.946" y1="48.831" x2="33.975" y2="48.831"/>
		
			<line fill-rule="evenodd" clip-rule="evenodd" fill="none" stroke="#FFFFFF" stroke-width="3" stroke-linecap="square" stroke-miterlimit="3" x1="24.696" y1="52.902" x2="33.975" y2="52.902"/>
		<rect x="25.446" y="32.139" fill-rule="evenodd" clip-rule="evenodd" fill="#FFFFFF" width="7.05" height="11.485"/>
		<g>
			
				<line fill-rule="evenodd" clip-rule="evenodd" fill="none" stroke="#DE5F26" stroke-width="2" stroke-linecap="round" stroke-linejoin="round" stroke-miterlimit="3" x1="28.875" y1="34.782" x2="28.875" y2="39.777"/>
			<path fill-rule="evenodd" clip-rule="evenodd" fill="#DE5F26" d="M27.798,39.861c0.38-0.365,0.843-0.548,1.392-0.548
				c0.547,0,1.004,0.183,1.37,0.548c0.393,0.394,0.59,0.865,0.59,1.412c0,0.534-0.19,0.991-0.569,1.37l-0.021,0.021
				c-0.21,0.225-0.471,0.386-0.78,0.484v-2.213c0-0.253-0.126-0.379-0.379-0.379h-0.422c-0.267,0-0.4,0.126-0.4,0.379v2.213
				c-0.294-0.099-0.555-0.267-0.78-0.506c-0.379-0.379-0.569-0.836-0.569-1.37C27.229,40.726,27.419,40.255,27.798,39.861z"/>
			<path fill-rule="evenodd" clip-rule="evenodd" fill="#DE5F26" d="M28.897,31.975c0.355,0,0.652,0.12,0.892,0.36
				c0.251,0.25,0.376,0.553,0.376,0.908c0,0.354-0.125,0.652-0.376,0.892c-0.24,0.25-0.537,0.375-0.892,0.375
				c-0.354,0-0.657-0.125-0.907-0.375c-0.24-0.24-0.36-0.538-0.36-0.892c0-0.355,0.121-0.657,0.36-0.908
				C28.241,32.095,28.543,31.975,28.897,31.975z"/>
			
				<path fill-rule="evenodd" clip-rule="evenodd" fill="none" stroke="#FFFFFF" stroke-width="1.5" stroke-linecap="round" stroke-linejoin="round" stroke-miterlimit="3" d="
				M28.897,31.975c0.355,0,0.652,0.12,0.892,0.36c0.251,0.25,0.376,0.553,0.376,0.908c0,0.354-0.125,0.652-0.376,0.892
				c-0.24,0.25-0.537,0.375-0.892,0.375c-0.354,0-0.657-0.125-0.907-0.375c-0.24-0.24-0.36-0.538-0.36-0.892
				c0-0.355,0.121-0.657,0.36-0.908C28.241,32.095,28.543,31.975,28.897,31.975z"/>
		</g>
		<path fill-rule="evenodd" clip-rule="evenodd" fill="#DE5F26" d="M45.937,31.002c0.857,0,1.286,0.429,1.286,1.286v25.264
			c0,0.857-0.429,1.286-1.286,1.286h-5.957c-0.856,0-1.285-0.429-1.285-1.286V32.288c0-0.857,0.429-1.286,1.285-1.286H45.937z"/>
		
			<path fill-rule="evenodd" clip-rule="evenodd" fill="none" stroke="#DE5F26" stroke-width="3" stroke-linecap="round" stroke-miterlimit="3" d="
			M45.937,31.002h-5.957c-0.856,0-1.285,0.429-1.285,1.286v25.264c0,0.857,0.429,1.286,1.285,1.286h5.957
			c0.857,0,1.286-0.429,1.286-1.286V32.288C47.223,31.431,46.794,31.002,45.937,31.002z"/>
		
			<line fill-rule="evenodd" clip-rule="evenodd" fill="none" stroke="#FFFFFF" stroke-width="3" stroke-linecap="square" stroke-miterlimit="3" x1="37.944" y1="49.194" x2="47.973" y2="49.194"/>
		
			<line fill-rule="evenodd" clip-rule="evenodd" fill="none" stroke="#FFFFFF" stroke-width="3" stroke-linecap="square" stroke-miterlimit="3" x1="38.694" y1="53.266" x2="47.973" y2="53.266"/>
		<rect x="39.444" y="32.502" fill-rule="evenodd" clip-rule="evenodd" fill="#FFFFFF" width="7.05" height="11.485"/>
		<g>
			
				<line fill-rule="evenodd" clip-rule="evenodd" fill="none" stroke="#DE5F26" stroke-width="2" stroke-linecap="round" stroke-linejoin="round" stroke-miterlimit="3" x1="42.781" y1="40.904" x2="42.781" y2="35.909"/>
			<path fill-rule="evenodd" clip-rule="evenodd" fill="#DE5F26" d="M41.388,35.734c0.38,0.365,0.843,0.547,1.392,0.547
				c0.548,0,1.004-0.182,1.369-0.547c0.394-0.394,0.591-0.865,0.591-1.412c0-0.534-0.19-0.991-0.569-1.37l-0.021-0.021
				c-0.211-0.225-0.47-0.386-0.78-0.484v2.212c0,0.253-0.126,0.38-0.379,0.38h-0.422c-0.267,0-0.399-0.126-0.399-0.38v-2.212
				c-0.295,0.098-0.556,0.267-0.78,0.506c-0.38,0.379-0.569,0.836-0.569,1.37C40.818,34.87,41.008,35.341,41.388,35.734z"/>
			<path fill-rule="evenodd" clip-rule="evenodd" fill="#DE5F26" d="M42.759,43.757c0.354,0,0.652-0.12,0.892-0.36
				c0.252-0.25,0.377-0.553,0.377-0.908c0-0.354-0.125-0.652-0.377-0.892c-0.239-0.25-0.537-0.375-0.892-0.375
				s-0.657,0.125-0.907,0.375c-0.239,0.24-0.36,0.538-0.36,0.892c0,0.355,0.121,0.657,0.36,0.908
				C42.102,43.637,42.404,43.757,42.759,43.757z"/>
			
				<path fill-rule="evenodd" clip-rule="evenodd" fill="none" stroke="#FFFFFF" stroke-width="1.5" stroke-linecap="round" stroke-linejoin="round" stroke-miterlimit="3" d="
				M42.759,43.757c0.354,0,0.652-0.12,0.892-0.36c0.252-0.25,0.377-0.553,0.377-0.908c0-0.354-0.125-0.652-0.377-0.892
				c-0.239-0.25-0.537-0.375-0.892-0.375s-0.657,0.125-0.907,0.375c-0.239,0.24-0.36,0.538-0.36,0.892
				c0,0.355,0.121,0.657,0.36,0.908C42.102,43.637,42.404,43.757,42.759,43.757z"/>
		</g>
	</g>
</g>
<g>
	<path fill-rule="evenodd" clip-rule="evenodd" fill="#FFFFFF" d="M5.814,236.357c-2.803-2.803-2.803-5.606,0-8.409l25.501-25.501
		c2.803-2.803,5.606-2.803,8.409,0l25.501,25.501c2.804,2.803,2.803,5.606,0,8.41l-25.502,25.501c-2.803,2.803-5.606,2.803-8.409,0
		L5.814,236.357z"/>
	
		<path fill-rule="evenodd" clip-rule="evenodd" fill="none" stroke="#90BB3E" stroke-width="5" stroke-linecap="round" stroke-linejoin="round" stroke-miterlimit="3" d="
		M5.814,236.357l25.5,25.502c2.803,2.803,5.606,2.803,8.409,0l25.502-25.501c2.803-2.803,2.804-5.606,0-8.41l-25.501-25.501
		c-2.803-2.803-5.606-2.803-8.409,0L5.814,227.948C3.011,230.751,3.011,233.554,5.814,236.357z"/>
	<g>
		<path fill-rule="evenodd" clip-rule="evenodd" fill="#FFFFFF" d="M48.065,220.556c-0.404,0.421-0.902,0.63-1.494,0.63
			c-0.593,0-1.099-0.209-1.519-0.63c-0.405-0.404-0.607-0.903-0.607-1.496c0-0.591,0.202-1.098,0.607-1.518
			c0.42-0.406,0.926-0.608,1.519-0.608c0.592,0,1.09,0.202,1.494,0.608c0.421,0.42,0.632,0.927,0.632,1.518
			C48.697,219.652,48.486,220.151,48.065,220.556z"/>
		
			<path fill-rule="evenodd" clip-rule="evenodd" fill="none" stroke="#90BB3E" stroke-width="2" stroke-linecap="square" stroke-miterlimit="3" d="
			M48.065,220.556c-0.404,0.421-0.902,0.63-1.494,0.63c-0.593,0-1.099-0.209-1.519-0.63c-0.405-0.404-0.607-0.903-0.607-1.496
			c0-0.591,0.202-1.098,0.607-1.518c0.42-0.406,0.926-0.608,1.519-0.608c0.592,0,1.09,0.202,1.494,0.608
			c0.421,0.42,0.632,0.927,0.632,1.518C48.697,219.652,48.486,220.151,48.065,220.556z"/>
		<path fill-rule="evenodd" clip-rule="evenodd" fill="#FFFFFF" d="M40.797,222.64c-0.277,0.289-0.619,0.432-1.023,0.432
			c-0.406,0-0.752-0.144-1.04-0.432c-0.276-0.277-0.417-0.618-0.417-1.023c0-0.405,0.141-0.752,0.417-1.04
			c0.288-0.277,0.634-0.416,1.04-0.416c0.404,0,0.746,0.139,1.023,0.416c0.288,0.288,0.432,0.635,0.432,1.04
			C41.229,222.022,41.085,222.363,40.797,222.64z"/>
		
			<path fill-rule="evenodd" clip-rule="evenodd" fill="none" stroke="#90BB3E" stroke-width="2" stroke-linecap="square" stroke-miterlimit="3" d="
			M40.797,222.64c-0.277,0.289-0.619,0.432-1.023,0.432c-0.406,0-0.752-0.144-1.04-0.432c-0.276-0.277-0.417-0.618-0.417-1.023
			c0-0.405,0.141-0.752,0.417-1.04c0.288-0.277,0.634-0.416,1.04-0.416c0.404,0,0.746,0.139,1.023,0.416
			c0.288,0.288,0.432,0.635,0.432,1.04C41.229,222.022,41.085,222.363,40.797,222.64z"/>
		<path fill-rule="evenodd" clip-rule="evenodd" fill="#FFFFFF" d="M49.068,225.594c-0.277,0.288-0.618,0.432-1.023,0.432
			s-0.752-0.144-1.04-0.432c-0.276-0.277-0.416-0.618-0.416-1.023c0-0.405,0.14-0.752,0.416-1.04
			c0.288-0.277,0.635-0.417,1.04-0.417s0.746,0.14,1.023,0.417c0.288,0.288,0.432,0.635,0.432,1.04
			C49.5,224.976,49.356,225.317,49.068,225.594z"/>
		
			<path fill-rule="evenodd" clip-rule="evenodd" fill="none" stroke="#90BB3E" stroke-width="2" stroke-linecap="square" stroke-miterlimit="3" d="
			M49.068,225.594c-0.277,0.288-0.618,0.432-1.023,0.432s-0.752-0.144-1.04-0.432c-0.276-0.277-0.416-0.618-0.416-1.023
			c0-0.405,0.14-0.752,0.416-1.04c0.288-0.277,0.635-0.417,1.04-0.417s0.746,0.14,1.023,0.417c0.288,0.288,0.432,0.635,0.432,1.04
			C49.5,224.976,49.356,225.317,49.068,225.594z"/>
		<path fill-rule="evenodd" clip-rule="evenodd" fill="#FFFFFF" d="M51.349,225.225c0.313-0.02,0.438,0.186,0.381,0.614
			l-2.545,17.606c-0.02,0.214-0.137,0.321-0.351,0.321H36.375c-0.215,0-0.341-0.107-0.38-0.321l-2.516-17.606
			c-0.059-0.429,0.068-0.634,0.38-0.614H51.349z"/>
		
			<path fill-rule="evenodd" clip-rule="evenodd" fill="none" stroke="#90BB3E" stroke-width="2.5" stroke-linecap="square" stroke-miterlimit="3" d="
			M51.349,225.225H33.859c-0.312-0.02-0.438,0.186-0.38,0.614l2.516,17.606c0.039,0.214,0.165,0.321,0.38,0.321h12.459
			c0.214,0,0.331-0.107,0.351-0.321l2.545-17.606C51.787,225.41,51.661,225.205,51.349,225.225z"/>
		
			<path fill-rule="evenodd" clip-rule="evenodd" fill="none" stroke="#90BB3E" stroke-width="2.5" stroke-linecap="square" stroke-miterlimit="3" d="
			M35.095,225.629l0.864,1.044c0.758,0.818,1.606,1.455,2.545,1.909c2.97,1.484,6.786,0.47,11.452-3.045"/>
		<g>
			
				<path fill-rule="evenodd" clip-rule="evenodd" fill="none" stroke="#90BB3E" stroke-width="2.5" stroke-linecap="round" stroke-miterlimit="3" d="
				M31.868,238.262H19.78v4.091c0,0.122,0.015,0.228,0.045,0.318 M32.277,242.58c0-0.061,0-0.151,0-0.273v-6.589
				c0-0.727-0.137-1.303-0.409-1.726c-0.454-0.758-1.272-1.136-2.454-1.136h-6.817c-1.878,0-2.817,0.954-2.817,2.862v2.544
				 M29.324,238.717v3.909 M26.279,238.717v3.909 M22.916,238.717v3.909"/>
			
				<line fill-rule="evenodd" clip-rule="evenodd" fill="none" stroke="#90BB3E" stroke-width="2.5" stroke-linecap="round" stroke-miterlimit="3" x1="26.072" y1="232.091" x2="26.072" y2="222.98"/>
		</g>
	</g>
</g>
<g>
	<path fill-rule="evenodd" clip-rule="evenodd" fill="#FFFFFF" d="M5.873,141.052c-2.818-2.818-2.833-5.62-0.045-8.408
		l25.541-25.495c2.787-2.818,5.59-2.818,8.408,0l25.495,25.495c2.787,2.788,2.787,5.59,0,8.408L39.73,166.548
		c-2.788,2.787-5.575,2.787-8.362,0L5.873,141.052z"/>
	
		<path fill-rule="evenodd" clip-rule="evenodd" fill="none" stroke="#CA2B3D" stroke-width="5" stroke-linecap="round" stroke-linejoin="round" stroke-miterlimit="3" d="
		M5.873,141.052l25.496,25.496c2.787,2.787,5.574,2.787,8.362,0l25.541-25.496c2.787-2.818,2.787-5.62,0-8.408l-25.495-25.495
		c-2.817-2.818-5.621-2.818-8.408,0L5.828,132.645C3.04,135.432,3.055,138.234,5.873,141.052z"/>
	<g>
		
			<path fill-rule="evenodd" clip-rule="evenodd" fill="none" stroke="#CE2C3F" stroke-width="3.5" stroke-linecap="round" stroke-linejoin="round" stroke-miterlimit="3" d="
			M49.412,125.908H22.068c-1.949,0-2.924,0.975-2.924,2.925v16.114c0,1.95,0.975,2.924,2.924,2.924h27.344
			c1.95,0,2.925-0.975,2.925-2.924v-16.114C52.337,126.883,51.362,125.908,49.412,125.908z"/>
		
			<path fill-rule="evenodd" clip-rule="evenodd" fill="none" stroke="#CE2C3F" stroke-width="1.5" stroke-linecap="round" stroke-linejoin="round" stroke-miterlimit="3" d="
			M27.074,128.149c0.493,0,0.905,0.167,1.238,0.499c0.347,0.348,0.521,0.768,0.521,1.26s-0.174,0.905-0.521,1.238
			c-0.333,0.348-0.746,0.521-1.238,0.521c-0.492,0-0.912-0.173-1.259-0.521c-0.333-0.333-0.499-0.746-0.499-1.238
			s0.166-0.912,0.499-1.26C26.163,128.315,26.583,128.149,27.074,128.149z"/>
		
			<line fill-rule="evenodd" clip-rule="evenodd" fill="none" stroke="#CE2C3F" stroke-width="2" stroke-linecap="round" stroke-linejoin="round" stroke-miterlimit="3" x1="27.033" y1="132.058" x2="27.033" y2="136.562"/>
		<path fill-rule="evenodd" clip-rule="evenodd" fill="#CE2C3F" d="M27.613,137.631h-0.585c-0.37,0-0.556,0.175-0.556,0.526v3.071
			c-0.409-0.137-0.77-0.371-1.082-0.702c-0.526-0.526-0.789-1.16-0.789-1.901c0-0.76,0.263-1.414,0.789-1.959
			c0.526-0.507,1.17-0.76,1.93-0.76c0.761,0,1.394,0.253,1.9,0.76c0.547,0.546,0.819,1.199,0.819,1.959
			c0,0.741-0.263,1.375-0.789,1.901l-0.03,0.029c-0.292,0.312-0.652,0.536-1.082,0.673v-3.071
			C28.14,137.807,27.964,137.631,27.613,137.631z"/>
		
			<line fill-rule="evenodd" clip-rule="evenodd" fill="none" stroke="#CE2C3F" stroke-width="2" stroke-linecap="round" stroke-linejoin="round" stroke-miterlimit="3" x1="35.531" y1="132.018" x2="35.531" y2="138.949"/>
		<path fill-rule="evenodd" clip-rule="evenodd" fill="#CE2C3F" d="M36.111,140.222h-0.585c-0.37,0-0.556,0.175-0.556,0.526v3.07
			c-0.409-0.137-0.77-0.371-1.082-0.702c-0.526-0.526-0.789-1.16-0.789-1.9c0-0.76,0.263-1.414,0.789-1.959
			c0.526-0.507,1.17-0.76,1.931-0.76s1.394,0.253,1.9,0.76c0.547,0.546,0.819,1.199,0.819,1.959c0,0.741-0.263,1.375-0.789,1.9
			l-0.03,0.029c-0.292,0.312-0.652,0.536-1.082,0.673v-3.07C36.638,140.397,36.463,140.222,36.111,140.222z"/>
		
			<path fill-rule="evenodd" clip-rule="evenodd" fill="none" stroke="#CE2C3F" stroke-width="1.5" stroke-linecap="round" stroke-linejoin="round" stroke-miterlimit="3" d="
			M36.72,128.648c0.347,0.348,0.521,0.768,0.521,1.26s-0.174,0.905-0.521,1.238c-0.333,0.348-0.746,0.521-1.238,0.521
			c-0.492,0-0.912-0.173-1.26-0.521c-0.333-0.333-0.499-0.746-0.499-1.238s0.166-0.912,0.499-1.26
			c0.348-0.333,0.768-0.499,1.26-0.499C35.975,128.149,36.387,128.315,36.72,128.648z"/>
		
			<line fill-rule="evenodd" clip-rule="evenodd" fill="none" stroke="#CE2C3F" stroke-width="2" stroke-linecap="round" stroke-linejoin="round" stroke-miterlimit="3" x1="44.348" y1="131.831" x2="44.348" y2="140.463"/>
		<path fill-rule="evenodd" clip-rule="evenodd" fill="#CE2C3F" d="M44.382,142.176h-0.585c-0.37,0-0.556,0.175-0.556,0.526v3.07
			c-0.409-0.136-0.77-0.371-1.082-0.702c-0.526-0.526-0.789-1.16-0.789-1.901c0-0.76,0.263-1.414,0.789-1.959
			c0.526-0.507,1.17-0.76,1.931-0.76s1.394,0.253,1.9,0.76c0.547,0.546,0.819,1.199,0.819,1.959c0,0.741-0.263,1.375-0.789,1.901
			l-0.03,0.029c-0.292,0.312-0.652,0.536-1.082,0.672v-3.07C44.908,142.352,44.733,142.176,44.382,142.176z"/>
		
			<path fill-rule="evenodd" clip-rule="evenodd" fill="none" stroke="#CE2C3F" stroke-width="1.5" stroke-linecap="round" stroke-linejoin="round" stroke-miterlimit="3" d="
			M45.628,128.648c0.347,0.348,0.521,0.768,0.521,1.26s-0.174,0.905-0.521,1.238c-0.334,0.348-0.746,0.521-1.238,0.521
			s-0.912-0.173-1.26-0.521c-0.333-0.333-0.499-0.746-0.499-1.238s0.166-0.912,0.499-1.26c0.348-0.333,0.768-0.499,1.26-0.499
			S45.294,128.315,45.628,128.648z"/>
	</g>
</g>
<g>
	<path fill-rule="evenodd" clip-rule="evenodd" fill="#FFFFFF" d="M6.632,328.432c-2.803-2.803-2.803-5.605,0-8.409l25.501-25.5
		c2.803-2.804,5.606-2.804,8.409,0l25.501,25.501c2.803,2.804,2.802,5.606,0,8.409l-25.503,25.501c-2.802,2.803-5.605,2.803-8.408,0
		L6.632,328.432z"/>
	
		<path fill-rule="evenodd" clip-rule="evenodd" fill="none" stroke="#71499D" stroke-width="5" stroke-linecap="round" stroke-linejoin="round" stroke-miterlimit="3" d="
		M6.632,328.432l25.5,25.502c2.803,2.803,5.606,2.803,8.408,0l25.503-25.501c2.802-2.803,2.803-5.605,0-8.409l-25.501-25.501
		c-2.803-2.804-5.606-2.804-8.409,0l-25.501,25.5C3.829,322.826,3.829,325.629,6.632,328.432z"/>
	<g>
		
			<line fill-rule="evenodd" clip-rule="evenodd" fill="none" stroke="#71499D" stroke-width="4" stroke-linecap="round" stroke-linejoin="round" stroke-miterlimit="3" x1="35.532" y1="323.728" x2="29.046" y2="318.031"/>
		<path fill-rule="evenodd" clip-rule="evenodd" fill="#71499D" d="M29.717,316.063c0.034,0.729-0.201,1.38-0.702,1.951
			c-0.502,0.572-1.11,0.88-1.826,0.927c-0.771,0.05-1.442-0.177-2.013-0.678c-0.557-0.489-0.859-1.105-0.907-1.849l-0.003-0.04
			c-0.041-0.427,0.029-0.846,0.209-1.257l2.308,2.026c0.264,0.231,0.511,0.215,0.743-0.049l0.385-0.439
			c0.245-0.278,0.235-0.533-0.029-0.765l-2.307-2.026c0.373-0.218,0.786-0.335,1.241-0.35c0.743-0.049,1.393,0.172,1.949,0.661
			C29.337,314.678,29.654,315.306,29.717,316.063z"/>
		<path fill-rule="evenodd" clip-rule="evenodd" fill="#FFFFFF" d="M35.981,324.106c-0.157,0.18-0.35,0.276-0.578,0.291
			c-0.238,0.016-0.446-0.056-0.625-0.213c-0.18-0.158-0.274-0.354-0.285-0.587c-0.02-0.232,0.049-0.438,0.207-0.617
			c0.157-0.18,0.355-0.277,0.593-0.292c0.228-0.016,0.431,0.056,0.611,0.214c0.18,0.157,0.279,0.353,0.299,0.585
			C36.212,323.721,36.139,323.927,35.981,324.106z"/>
		
			<line fill-rule="evenodd" clip-rule="evenodd" fill="none" stroke="#71499D" stroke-width="4" stroke-linecap="round" stroke-linejoin="round" stroke-miterlimit="3" x1="48.029" y1="321.547" x2="41.544" y2="315.85"/>
		<path fill-rule="evenodd" clip-rule="evenodd" fill="#71499D" d="M42.26,313.926c0.034,0.73-0.2,1.381-0.702,1.952
			s-1.11,0.88-1.825,0.926c-0.771,0.05-1.441-0.176-2.014-0.678c-0.557-0.488-0.859-1.104-0.907-1.848l-0.002-0.041
			c-0.041-0.426,0.028-0.845,0.208-1.257l2.308,2.026c0.264,0.231,0.511,0.216,0.742-0.048l0.386-0.439
			c0.245-0.279,0.235-0.533-0.027-0.766l-2.308-2.026c0.372-0.217,0.786-0.334,1.241-0.35c0.742-0.048,1.393,0.172,1.949,0.661
			C41.88,312.541,42.197,313.17,42.26,313.926z"/>
		<path fill-rule="evenodd" clip-rule="evenodd" fill="#FFFFFF" d="M48.479,321.97c-0.157,0.18-0.35,0.277-0.578,0.292
			c-0.237,0.016-0.446-0.056-0.625-0.214c-0.18-0.156-0.274-0.353-0.285-0.586c-0.02-0.232,0.049-0.438,0.207-0.618
			c0.156-0.18,0.354-0.277,0.593-0.292c0.228-0.016,0.431,0.057,0.611,0.214c0.18,0.158,0.278,0.354,0.299,0.586
			C48.71,321.585,48.637,321.791,48.479,321.97z"/>
		
			<line fill-rule="evenodd" clip-rule="evenodd" fill="none" stroke="#71499D" stroke-width="4" stroke-linecap="round" stroke-linejoin="round" stroke-miterlimit="3" x1="33.395" y1="335.998" x2="26.909" y2="330.302"/>
		<path fill-rule="evenodd" clip-rule="evenodd" fill="#71499D" d="M27.58,328.378c0.034,0.729-0.201,1.38-0.702,1.952
			c-0.502,0.57-1.11,0.879-1.826,0.927c-0.771,0.05-1.441-0.177-2.013-0.679c-0.557-0.489-0.859-1.104-0.907-1.848l-0.002-0.041
			c-0.041-0.426,0.028-0.845,0.208-1.257l2.308,2.026c0.264,0.231,0.511,0.215,0.742-0.049l0.386-0.439
			c0.245-0.277,0.235-0.532-0.028-0.764l-2.307-2.027c0.373-0.217,0.787-0.334,1.241-0.35c0.743-0.049,1.393,0.173,1.95,0.661
			C27.2,326.993,27.517,327.622,27.58,328.378z"/>
		<path fill-rule="evenodd" clip-rule="evenodd" fill="#FFFFFF" d="M33.845,336.377c-0.158,0.18-0.351,0.276-0.579,0.291
			c-0.238,0.016-0.446-0.056-0.625-0.213c-0.179-0.158-0.274-0.353-0.285-0.587c-0.02-0.232,0.049-0.438,0.207-0.617
			c0.157-0.18,0.355-0.277,0.593-0.292c0.228-0.016,0.432,0.056,0.612,0.214c0.179,0.157,0.279,0.353,0.299,0.585
			C34.076,335.991,34.002,336.197,33.845,336.377z"/>
		
			<line fill-rule="evenodd" clip-rule="evenodd" fill="none" stroke="#71499D" stroke-width="4" stroke-linecap="round" stroke-linejoin="round" stroke-miterlimit="3" x1="48.185" y1="334.305" x2="44.557" y2="331.152"/>
		<path fill-rule="evenodd" clip-rule="evenodd" fill="#71499D" d="M45.259,329.195c0.034,0.73-0.2,1.381-0.702,1.952
			s-1.11,0.881-1.825,0.927c-0.771,0.05-1.441-0.176-2.014-0.679c-0.556-0.488-0.858-1.104-0.907-1.847l-0.002-0.042
			c-0.041-0.425,0.027-0.844,0.208-1.257l2.308,2.026c0.264,0.231,0.512,0.216,0.743-0.048l0.386-0.439
			c0.245-0.278,0.235-0.533-0.028-0.765l-2.308-2.026c0.373-0.218,0.787-0.334,1.241-0.351c0.743-0.048,1.393,0.173,1.949,0.662
			C44.879,327.811,45.196,328.44,45.259,329.195z"/>
		<path fill-rule="evenodd" clip-rule="evenodd" fill="#FFFFFF" d="M48.796,334.786c-0.156,0.18-0.35,0.276-0.577,0.292
			c-0.238,0.015-0.446-0.057-0.626-0.214s-0.274-0.353-0.285-0.586c-0.02-0.232,0.049-0.438,0.207-0.618
			c0.157-0.18,0.354-0.277,0.593-0.292c0.229-0.015,0.432,0.056,0.611,0.214c0.18,0.157,0.279,0.353,0.3,0.585
			C49.028,334.4,48.954,334.606,48.796,334.786z"/>
	</g>
</g>
<g>
	<path fill-rule="evenodd" clip-rule="evenodd" fill="#FFFFFF" d="M8.631,416.234c-2.802-2.803-2.802-5.606,0-8.408l25.502-25.502
		c2.803-2.802,5.606-2.803,8.409,0l25.501,25.502c2.803,2.804,2.803,5.607,0,8.409l-25.502,25.502
		c-2.804,2.802-5.606,2.803-8.409-0.001L8.631,416.234z"/>
	
		<path fill-rule="evenodd" clip-rule="evenodd" fill="none" stroke="#09AFC7" stroke-width="5" stroke-linecap="round" stroke-linejoin="round" stroke-miterlimit="3" d="
		M8.631,416.234l25.501,25.502c2.803,2.804,5.605,2.803,8.409,0.001l25.502-25.502c2.803-2.802,2.803-5.605,0-8.409l-25.501-25.502
		c-2.803-2.803-5.606-2.802-8.409,0L8.632,407.826C5.829,410.628,5.829,413.432,8.631,416.234z"/>
	<g>
		<g>
			
				<path fill-rule="evenodd" clip-rule="evenodd" fill="none" stroke="#09AFC7" stroke-width="3" stroke-linecap="round" stroke-miterlimit="10" d="
				M25.279,412.096c0-1.515,0.288-2.97,0.863-4.363c0.576-1.303,1.364-2.469,2.363-3.499c1.031-1.03,2.227-1.833,3.591-2.408
				c1.303-0.546,2.711-0.818,4.227-0.818c2.393,0,4.561,0.697,6.498,2.091c1.88,1.333,3.197,3.104,3.955,5.316 M47.457,412.05
				c0,1.516-0.288,2.954-0.864,4.317c-0.575,1.304-1.363,2.485-2.362,3.546c-1.03,0.969-2.212,1.741-3.545,2.317
				c-1.363,0.576-2.787,0.863-4.272,0.863c-2.363,0-4.53-0.682-6.499-2.045c-1.879-1.363-3.196-3.136-3.954-5.317"/>
			
				<path fill-rule="evenodd" clip-rule="evenodd" fill="none" stroke="#09AFC7" stroke-width="3" stroke-linecap="round" stroke-linejoin="round" stroke-miterlimit="3" d="
				M25.733,420.14l-0.227-5.59l4,3.772 M43.003,405.96l4.272,3.363l-0.637-5.453"/>
		</g>
	</g>
</g>
</svg>
