<?xml version="1.0" encoding="utf-8"?>
<!-- Generator: Adobe Illustrator 15.1.0, SVG Export Plug-In . SVG Version: 6.00 Build 0)  -->
<!DOCTYPE svg PUBLIC "-//W3C//DTD SVG 1.1//EN" "http://www.w3.org/Graphics/SVG/1.1/DTD/svg11.dtd">
<svg xmlns="http://www.w3.org/2000/svg" xmlns:xlink="http://www.w3.org/1999/xlink" version="1.1" id="Layer_1" x="0px" y="0px" width="351px" height="129px" viewBox="-353.25 -263.875 351 129" enable-background="new -353.25 -263.875 351 129" xml:space="preserve">

<use xlink:href="#Symbol_47" width="20.297" height="20.467" x="-10.149" y="-10.233" transform="matrix(1 0 0 -1 -70.8271 698.4668)" overflow="visible"/>
<path fill-rule="evenodd" clip-rule="evenodd" fill="#E9EAEB" d="M-40.46-254.688c9.911,0.019,18.221,2.845,24.939,8.484  c7.218,6.143,10.816,14.343,10.796,24.597c0.02,5.104-0.866,9.454-2.657,13.047c-1.369,2.797-3.601,5.722-6.695,8.774l-9.236,8.716  c-3.777,3.952-6.989,8.28-9.64,12.992l-0.407,0.694h-311.862v2.595h310.88c-0.589,2.453-0.879,6.379-0.865,11.777h-15.125  l0.461-7.156h-4.617v27.015h-5.833v-24.704h-0.056l-8.256,24.704h-5.542l-8.372-24.704h-0.055v24.704h-5.833v-27.015h-11.027  c4.147,2.558,6.227,6.752,6.236,12.582c0.022,4.887-1.422,8.676-4.33,11.373c-2.52,2.29-5.772,3.444-9.756,3.464  c-3.97-0.02-7.2-1.174-9.7-3.464c-2.927-2.697-4.391-6.486-4.388-11.373c-0.006-5.916,2.015-10.11,6.062-12.582h-13.393  c2.464,1.565,3.674,3.971,3.636,7.216c0.041,2.274-0.652,4.255-2.08,5.944c-1.822,2.008-4.418,3.009-7.792,3.002h-3.753v10.853  h-5.774v-27.015h-5.137v3.346h-11.372v6.58h10.447v4.62h-10.447v7.393h11.372v5.076h-17.145v-27.015h-4.908l-9.525,11.257  l11.313,15.758h-7.562l-9.47-14.433h-0.057v14.433h-5.83v-14.433h-0.174l-9.179,14.433h-7.563l11.375-15.758l-9.642-11.257h-6.12  v21.938h3.465v11.313h-5.947v-6.237h-17.318v6.237h-5.832v-11.313h3.292c2.4-3.95,3.592-8.778,3.58-14.494v-7.444h-9.7v3.346  h-11.432v6.58h10.45v4.62h-10.45v7.393h11.432v5.076h-17.261v-27.015h-5.773v27.015h-6.005v-12.469h-11.547v12.469h-5.829v-27.015  h-5.024v3.346h-11.431v6.58h10.449v4.62h-10.449v7.393h11.431v5.076h-17.203v-27.015h-5.832v27.015h-5.772l0.058-24.704h-0.058  l-8.431,24.704h-5.599l-8.198-24.704h-0.173l0.173,24.704h-6.062V-245.8c30.709,30.72,61.982,43.345,93.813,37.873  c5.59-0.936,11.44-2.629,17.551-5.082c3.125-1.146,8.533-3.551,16.223-7.215c14.022-6.64,25.972-10.507,35.851-11.604  c10.371-1.086,22.38-0.2,36.023,2.658c10.234,2.076,23.014,5.751,38.333,11.027l38.738,13.334  c14.489,4.811,26.651,7.986,36.487,9.526l0.864-0.868c-9.913-1.687-22.151-5.305-36.715-10.852l-38.853-15.59  c-15.504-6.231-28.378-10.62-38.624-13.16c-13.723-3.352-25.808-4.353-36.254-3.003c-9.879,1.25-21.829,5.733-35.851,13.454  c-7.69,4.191-13.097,7.002-16.223,8.428c-6.111,2.863-11.96,4.808-17.551,5.827c-31.831,6.471-63.103-8.176-93.813-43.93v-6.64  c30.709,39.599,61.982,55.863,93.813,48.783c5.59-1.17,11.44-3.309,17.551-6.408c3.125-1.585,8.533-4.721,16.223-9.412  c14.022-8.55,25.972-13.533,35.851-14.95c10.446-1.467,22.531-0.333,36.254,3.403c10.245,2.816,23.12,7.687,38.624,14.608  l38.853,17.26c14.652,6.142,26.892,10.145,36.715,12.008l11.373-11.604c3.56-4.425,5.347-9.312,5.371-14.665  c-0.05-4.726-1.436-8.825-4.157-12.293c-3.615-4.621-9.041-6.931-16.279-6.931c-14.825-0.003-22.231,8.849-22.229,26.559v4.444  l-14.546-10.277c0.771-8.67,3.312-15.792,7.62-21.36C-63.694-250.599-53.823-254.68-40.46-254.688z M-92.879-189.915  c1.107-0.014,1.918,0.143,2.424,0.461c0.569,0.347,0.84,0.944,0.806,1.793c0.009,0.761-0.242,1.397-0.749,1.905  c-0.599,0.438-1.542,0.671-2.83,0.692h-1.385v-4.852H-92.879z M-99.808-200.825v19.399h7.85c2.329,0,4.1-0.463,5.313-1.388  c1.482-1.164,2.229-2.666,2.251-4.504c-0.01-1.947-0.666-3.563-1.962-4.849c-1.229-0.92-3.231-1.384-6.005-1.386h-2.251v-7.273  H-99.808z M-50.562-158.047h15.468v14.894h-15.468V-158.047z M-64.826-170.168h-13.103l6.409,20.088h0.115l1.328-5.252  L-64.826-170.168z M-202.166-200.825v19.399h6.062l6.002-12.99h0.173l-0.173,12.99h5.255v-19.399h-6.235l-5.947,12.99h-0.172  l0.172-12.99H-202.166z M-218.156-197.245h4.674v15.819h5.196v-19.399h-14.604l-0.577,13.337c0.007,0.749-0.244,1.286-0.751,1.613  c-0.349,0.423-0.869,0.633-1.558,0.637c-0.419-0.1-0.708-0.156-0.867-0.173v3.985l2.077,0.229c2.083,0.01,3.604-0.533,4.562-1.617  c0.926-0.94,1.464-2.842,1.616-5.714L-218.156-197.245z M-219.889-166.822h-7.448v4.099c0.03,6.046-0.935,10.876-2.887,14.494  h10.335V-166.822z M-258.742-198.573c-1.748,1.666-2.633,4.128-2.656,7.39c0.022,3.299,0.908,5.799,2.656,7.506  c1.613,1.764,3.962,2.647,7.042,2.654c3.054-0.007,5.457-0.891,7.216-2.654c1.746-1.707,2.632-4.207,2.657-7.506  c-0.025-3.262-0.912-5.724-2.657-7.39c-1.759-1.688-4.162-2.534-7.216-2.539C-254.78-201.107-257.129-200.262-258.742-198.573z   M-248.58-195.687c0.872,1.163,1.313,2.665,1.325,4.503c-0.012,1.938-0.453,3.495-1.325,4.677c-0.61,1.101-1.649,1.659-3.12,1.673  c-1.359-0.014-2.419-0.572-3.175-1.673c-0.772-1.013-1.159-2.571-1.154-4.677c-0.005-2.007,0.381-3.509,1.154-4.503  c0.756-1.083,1.816-1.623,3.175-1.616C-250.229-197.31-249.189-196.77-248.58-195.687z M-286.683-200.825h-12.989v19.399h5.138  v-15.589h7.852V-200.825z M-276.868-192.511h-0.289v-8.314h-5.081v19.399h5.081v-9.354h0.289l6.232,9.354h5.774l-7.216-10.51  l6.698-8.89h-5.948L-276.868-192.511z M-283.163-160.242h11.547v-9.926h-11.547V-160.242z M-119.092-200.825v3.811h4.737v15.589  h5.021v-15.589h4.907v-3.811H-119.092z M-141.606-200.825h-5.138v19.399h7.795c2.351,0,4.142-0.463,5.369-1.388  c1.463-1.078,2.196-2.581,2.194-4.504c0.007-2.031-0.589-3.648-1.791-4.849c-1.22-0.92-3.258-1.384-6.12-1.386h-2.309V-200.825z   M-139.989-189.915c1.166-0.014,2.031,0.143,2.597,0.461c0.59,0.347,0.878,0.944,0.866,1.793c-0.031,0.929-0.319,1.563-0.866,1.905  c-0.508,0.438-1.451,0.671-2.826,0.692h-1.388v-4.852H-139.989z M-136.064-167.571h-2.656v9.064h2.656  c3.273,0.006,4.907-1.494,4.907-4.505C-131.157-166.005-132.791-167.525-136.064-167.571z M-123.768-181.426v-19.399h-5.139v19.399  H-123.768z M-160.772-189.682l2.482,0.46c0.773,0.343,1.16,0.979,1.154,1.904c0.013,0.73-0.238,1.289-0.751,1.676  c-0.529,0.361-1.493,0.552-2.885,0.578h-1.56v-4.618H-160.772z M-162.332-193.318v-3.696h8.891v-3.811h-14.027v19.399h8.023  c2.309,0.016,4.06-0.39,5.255-1.214c1.499-1.144,2.268-2.662,2.308-4.561c-0.023-2.139-0.734-3.736-2.137-4.793  c-1.212-0.86-3.538-1.304-6.984-1.325H-162.332z M-115.338-157.586c0.001,7.064,2.679,10.606,8.025,10.622  c5.242-0.016,7.86-3.558,7.85-10.622c0.011-7.125-2.607-10.686-7.85-10.681C-112.659-168.271-115.337-164.711-115.338-157.586z   M-186.983-159.605h0.057l8.371-10.563h-8.428V-159.605z M-192.987-159.605h0.174v-10.563h-8.371L-192.987-159.605z   M-306.081-193.204h-8.024v-4.041h8.601v-3.58h-13.566v19.399h13.856v-3.638h-8.891v-4.447h8.024V-193.204z M-335.176-197.245h4.79  v15.819h5.195v-19.399h-14.663l-0.518,13.337c-0.147,0.835-0.378,1.372-0.695,1.613c-0.437,0.423-0.954,0.633-1.558,0.637  l-1.041-0.173v3.985l2.194,0.229c2.06,0.01,3.56-0.533,4.504-1.617c0.771-0.854,1.327-2.762,1.672-5.714L-335.176-197.245z   M-334.14-150.08h0.173l1.215-5.252l5.251-14.836h-12.872L-334.14-150.08z"/>
</svg>