<svg xmlns="http://www.w3.org/2000/svg" xmlns:xlink="http://www.w3.org/1999/xlink"><symbol id="btn_nav-back" viewBox="0 0 77.7 30"><path d="M77.7 30H15L.6 15 15 0h62.7z"/><path d="M29.6 19.4h-1.3V15h-4v4.4H23V9.8h1.3v4.1h4V9.8h1.3v9.6zm9 0h-1.4l-.7-2.1h-4l-.7 2.1h-1.4l3.2-9.6h1.8l3.2 9.6zm-2.4-3.2L34.5 11l-1.6 5.1h3.3zm3.3 1.7c.4.2.8.3 1.2.4.4.1 1 .1 1.6.1.8 0 1.3-.2 1.7-.5.4-.3.6-.8.6-1.4 0-.2-.1-.5-.2-.7-.1-.2-.3-.4-.5-.5-.2-.1-.4-.2-.7-.3-.3-.1-.6-.1-1-.1h-2v-1.1h2c.3 0 .6 0 .8-.1.2-.1.5-.2.6-.3.2-.1.3-.3.4-.5.1-.2.1-.4.1-.7 0-.2 0-.4-.1-.6-.1-.2-.2-.4-.3-.5-.2-.1-.4-.3-.6-.3-.3-.1-.6-.1-.9-.1-.4 0-.8 0-1.2.1-.4.1-.8.2-1.3.3V10l1.2-.3c.4-.1.9-.1 1.5-.1 1.1 0 1.9.2 2.4.6.5.4.8 1 .8 1.8 0 .5-.1 1-.4 1.3-.3.4-.7.7-1.2.8.3 0 .5.1.7.2.2.1.4.3.6.5s.3.4.4.7c.1.3.2.5.2.9 0 .5-.1.9-.3 1.2-.2.4-.4.7-.8.9-.3.3-.7.5-1.2.6-.5.1-1 .2-1.6.2-1 0-1.9-.1-2.7-.4v-1zm15.7 1.5h-1.4l-.7-2.1h-4l-.7 2.1H47l3.2-9.6H52l3.2 9.6zm-2.5-3.2L51.1 11l-1.6 5.1h3.2zm10.7 2.1l-.1 3.2h-1.2v-2.1h-5.5v2.1h-1.2l-.1-3.2h.1c.2 0 .3 0 .5-.1l.5-.5c.1-.2.3-.6.4-1 .1-.4.2-.9.4-1.6s.2-1.4.3-2.3c.1-.9.1-1.9.2-3.1h4.7v8.5h1zM61 11h-2.1c0 1-.1 1.9-.2 2.8s-.2 1.6-.3 2.2c-.1.6-.3 1.1-.4 1.5-.2.4-.4.7-.6.9H61V11z" fill="#fff"/></symbol><symbol id="btn_nav-forward" viewBox="0 0 77.8 30"><path d="M77.1 15L62.7 0H0v30h62.7z"/><path d="M18.4 18.4l-.1 3.2h-1.2v-2.1h-5.5v2.1h-1.2l-.1-3.2h.1c.2 0 .3 0 .5-.1l.5-.5c.1-.2.3-.6.4-1 .1-.4.2-.9.4-1.6s.2-1.4.3-2.3c.1-.9.1-1.9.2-3.1h4.7v8.5h1zM16 11h-2.1c0 1-.1 1.9-.2 2.8s-.2 1.6-.3 2.2c-.1.6-.3 1.1-.4 1.5-.2.4-.4.7-.6.9H16V11zm10.8 8.5h-1.4l-.7-2.1h-4l-.7 2.1h-1.4l3.2-9.6h1.8l3.2 9.6zm-2.5-3.3l-1.6-5.1-1.6 5.1h3.2zm9.7 3.3h-1.3V11h-2.1c0 1.3-.1 2.3-.2 3.3s-.3 1.7-.4 2.3c-.1.7-.3 1.2-.5 1.5s-.4.7-.6.8c-.2.2-.4.3-.6.4s-.4.1-.7.1c-.2 0-.4 0-.6-.1l.1-1.1c.3 0 .5 0 .7-.2.2-.2.4-.4.5-.8.2-.4.3-.8.4-1.3.1-.5.2-1.1.3-1.7.1-.6.1-1.3.2-2.1.1-.7.1-1.5.1-2.4H34v9.8zm8.1 0h-5.5V9.9h5.5V11h-4.2v3h4v1.1h-4v3.3h4.2v1.1zm8.3 0h-5.5V9.9h5.5V11h-4.2v3h4v1.1h-4v3.3h4.2v1.1z" fill="#fff"/></symbol><symbol id="carousel_arrow-left" viewBox="0 0 36.917 54.542"><path fill="#58595B" d="M11.49.353l-10.5 10.5c-1.369 1.369.752 3.49 2.121 2.121l10.5-10.5c1.369-1.369-.752-3.49-2.121-2.121z"/><path fill="#58595B" d="M13.611 21.353l-10.5-10.5c-1.369-1.369-3.49.752-2.121 2.121l10.5 10.5c1.369 1.369 3.49-.752 2.121-2.121z"/></symbol><symbol id="carousel_arrow-right" viewBox="0 0 36.917 54.542"><path fill="#58595B" d="M22.468 3.977l10.5 10.5c1.369 1.369 3.49-.752 2.121-2.121l-10.5-10.5c-1.369-1.369-3.491.752-2.121 2.121z"/><path fill="#58595B" d="M24.589 24.977l10.5-10.5c1.369-1.369-.752-3.49-2.121-2.121l-10.5 10.5c-1.37 1.369.752 3.49 2.121 2.121z"/></symbol><symbol id="check" viewBox="0 0 24 24"><path clip-rule="evenodd" d="M21.652 3.211a.747.747 0 0 0-1.061 0L9.41 14.34a.744.744 0 0 1-1.062 0L3.449 9.351a.743.743 0 0 0-1.062 0L.222 11.297a.751.751 0 0 0 .001 1.07l4.94 5.184 1.062 1.07 2.124 2.141a.751.751 0 0 0 1.062 0l14.366-14.34a.762.762 0 0 0 0-1.071l-2.125-2.14z" fill-rule="evenodd"/></symbol><symbol id="cross" viewBox="0 0 20.2 20.2"><path d="M19 19l-9-8.9-8.8 8.8m.2-17.5l8.7 8.7 8.7-8.9"/></symbol><symbol id="cross_exercise" viewBox="0 0 24 24"><path d="M22.245 4.015a.808.808 0 0 1 0 1.139l-6.276 6.27a.81.81 0 0 0 0 1.14l6.273 6.272a.81.81 0 0 1 0 1.14l-2.285 2.277a.814.814 0 0 1-1.142 0l-6.271-6.271a.81.81 0 0 0-1.141 0l-6.276 6.267a.81.81 0 0 1-1.141 0l-2.282-2.28a.81.81 0 0 1 0-1.14l6.278-6.269a.81.81 0 0 0 0-1.14L1.709 5.147a.808.808 0 0 1 0-1.14l2.284-2.278a.813.813 0 0 1 1.142.001L11.405 8a.81.81 0 0 0 1.141.001l6.276-6.267a.812.812 0 0 1 1.141 0l2.282 2.281z"/></symbol><symbol id="glossary" viewBox="0 0 39.3 32.8"><path d="M.9.8h37.5V32H.9z"/><path stroke="#D0D1CC" stroke-linejoin="round" stroke-miterlimit="3" fill="none" d="M.9.8h37.5V32H.9z"/><path fill="#fff" d="M4.8 26.9V5.6C10 3.2 15 3.8 19.6 7.6v19.9c-4.9-2.1-9.7-2.2-14.5-.3l-.3-.3z"/><path stroke="#fff" stroke-width="2" stroke-linecap="round" stroke-linejoin="round" stroke-miterlimit="3" d="M19.7 27.5c.1 0 .2 0 .2.1 4.4-4 9.1-4.1 14.3-.4V5.5c-4.5-2.3-9.3-1.6-14.4 2.1l-.1 19.9zm-14.5-.3c4.7-1.9 9.6-1.8 14.5.3m0-19.9c-4.6-3.7-9.6-4.4-14.8-2v21.3" fill="none"/></symbol><symbol id="glossary2" viewBox="0 0 1024 768"><path d="M85.358 30.87H938.62v706.28H85.358z"/><path fill="#CFD0CC" d="M938.6 748H85.401c-6.021 0-10.901-4.857-10.901-10.851v-706.3C74.5 24.857 79.381 20 85.401 20H938.6c6.021 0 10.899 4.856 10.899 10.849V737.15C949.5 743.143 944.62 748 938.6 748zM96.302 726.303h831.396V41.697H96.302v684.606z"/><path fill="#FFF" d="M171.856 639.855v-494.22c122.064-56.614 236.93-41.508 344.661 45.461v461.953c-114.126-48.675-226.195-50.7-336.272-5.994l-8.389-7.2z"/><path fill="none" stroke="#FFF" stroke-width="44.735" stroke-linecap="round" stroke-linejoin="round" stroke-miterlimit="3" d="M516.333 642.723c2.287 0 3.462.741 3.462 2.303 97.428-88.99 203.665-91.711 318.773-8.021V151.287c-99.746-52.191-207.189-36.458-322.267 47.153l.032 444.283zm-323.41-5.765c105.867-42.964 213.68-41.032 323.41 5.78m0-444.297c-103.579-83.642-214.082-98.17-331.477-43.722v475.316"/></symbol><symbol id="glossary_nav-menu" viewBox="0 0 30 23.2"><path fill="#444B99" d="M4.8 19.3V4.4c3.7-1.7 7.1-1.3 10.4 1.4v13.9c-3.4-1.5-6.8-1.5-10.1-.2l-.3-.2z"/><path stroke="#434CA0" stroke-width="2" stroke-linecap="round" stroke-linejoin="round" stroke-miterlimit="3" d="M15.1 19.7c.1 0 .1 0 .1.1 3.1-2.8 6.4-2.9 10-.3V4.3c-3.1-1.6-6.5-1.1-10.1 1.5v13.9zM5 19.6c3.3-1.3 6.7-1.3 10.1.2m0-14C11.9 3.2 8.4 2.7 4.8 4.4v14.9" fill="none"/></symbol><symbol id="interface-help" viewBox="88.55 0 46 75"><path stroke="#CFD0CC" stroke-linejoin="round" stroke-miterlimit="3" d="M91.982 2.674h39.135v32.553H91.982z"/><path fill="#FFF" d="M112.913 23.415c0 1.098-.643 1.778-1.665 1.778s-1.665-.681-1.665-1.778V19.14c0-1.703.038-2.005 2.649-2.535 2.99-.606 3.481-2.687 3.481-4.086 0-2.573-1.854-4.162-4.391-4.162-2.006 0-3.558.719-4.39 3.103-.342.983-.796 1.248-1.477 1.248-.87 0-1.666-.681-1.628-1.741.151-3.329 3.86-5.712 7.381-5.712 4.581 0 8.063 2.951 8.063 6.961 0 4.086-2.574 6.622-6.359 7.416v3.783zm-1.665 5.372c1.061 0 1.93.871 1.93 1.93 0 1.061-.869 1.93-1.93 1.93-1.06 0-1.931-.87-1.931-1.93a1.94 1.94 0 0 1 1.931-1.93z"/></symbol><symbol id="loupe_decrease" viewBox="14.75 11.167 21.833 21.833"><path d="M35.963 30.096l-4.432-4.432c1.068-1.542 1.602-3.261 1.602-5.157 0-1.233-.239-2.41-.717-3.535s-1.125-2.094-1.939-2.908-1.783-1.461-2.908-1.939-2.303-.717-3.535-.717a8.95 8.95 0 0 0-3.535.717 9.102 9.102 0 0 0-2.907 1.939 9.087 9.087 0 0 0-1.938 2.908 8.927 8.927 0 0 0-.718 3.535c0 1.232.239 2.411.718 3.536a9.078 9.078 0 0 0 1.938 2.906 9.085 9.085 0 0 0 2.907 1.939 8.933 8.933 0 0 0 3.535.717c1.896 0 3.614-.535 5.157-1.604l4.432 4.42c.311.328.698.492 1.164.492.457 0 .846-.162 1.169-.484a1.59 1.59 0 0 0 .485-1.17c0-.457-.159-.843-.478-1.163m-7.838-5.498c-1.133 1.133-2.497 1.699-4.091 1.699-1.594 0-2.958-.566-4.09-1.699-1.133-1.134-1.7-2.497-1.7-4.09 0-1.594.566-2.958 1.7-4.09 1.133-1.133 2.497-1.701 4.09-1.701 1.594 0 2.958.568 4.091 1.701s1.7 2.497 1.7 4.09-.567 2.956-1.7 4.09m-.368-4.918h-7.445a.405.405 0 0 0-.291.123.397.397 0 0 0-.122.291v.826c0 .114.041.211.122.292.083.083.18.123.291.123h7.445a.4.4 0 0 0 .291-.123.395.395 0 0 0 .123-.292v-.826a.402.402 0 0 0-.123-.291.402.402 0 0 0-.291-.123"/></symbol><symbol id="loupe_increase" viewBox="13.083 45.083 21.75 21.833"><path d="M34.31 63.929l-4.432-4.432c1.067-1.542 1.602-3.261 1.602-5.157 0-1.233-.239-2.41-.717-3.535a9.106 9.106 0 0 0-1.939-2.908 9.09 9.09 0 0 0-2.908-1.939 8.941 8.941 0 0 0-3.533-.717 8.944 8.944 0 0 0-3.535.717 9.095 9.095 0 0 0-2.908 1.939 9.071 9.071 0 0 0-1.938 2.908 8.927 8.927 0 0 0-.718 3.535c0 1.232.239 2.411.718 3.536a9.078 9.078 0 0 0 1.938 2.906 9.079 9.079 0 0 0 2.908 1.939 8.926 8.926 0 0 0 3.535.717c1.895 0 3.613-.535 5.156-1.604l4.432 4.42c.311.328.698.492 1.164.492.457 0 .846-.162 1.169-.484.323-.323.485-.713.485-1.17 0-.457-.161-.843-.479-1.163m-7.838-5.498c-1.133 1.133-2.496 1.699-4.09 1.699-1.595 0-2.959-.566-4.092-1.699-1.133-1.134-1.699-2.497-1.699-4.09 0-1.594.566-2.958 1.699-4.09s2.497-1.701 4.092-1.701c1.594 0 2.957.568 4.09 1.701s1.699 2.497 1.699 4.09-.567 2.956-1.699 4.09m-.368-4.918h-2.896v-2.895a.4.4 0 0 0-.123-.291.4.4 0 0 0-.289-.122h-.828a.405.405 0 0 0-.291.122.4.4 0 0 0-.123.291v2.895h-2.895a.403.403 0 0 0-.291.123.395.395 0 0 0-.123.291v.826c0 .114.041.211.123.292.082.083.18.123.291.123h2.895v2.895c0 .113.041.21.123.291a.398.398 0 0 0 .291.123h.828c.11 0 .207-.041.289-.123a.395.395 0 0 0 .123-.291v-2.895h2.896a.397.397 0 0 0 .29-.123.395.395 0 0 0 .123-.292v-.826a.398.398 0 0 0-.123-.291.401.401 0 0 0-.29-.123"/></symbol><symbol id="loupe_search" viewBox="0 0 36 36"><path fill="#444C99" d="M4.8 35.5l8.9-8.9c2.2 1.4 4.9 2.3 7.8 2.3 7.9 0 14.3-6.4 14.3-14.3S29.4.3 21.5.3 7.2 6.7 7.2 14.6c0 2.9.8 5.5 2.3 7.8L.6 31.3c-.3.3-.3.8 0 1.1l3.2 3.2c.2.2.7.2 1-.1zM21.4 4.8c5.4 0 9.8 4.4 9.8 9.8s-4.4 9.8-9.8 9.8-9.8-4.4-9.8-9.8 4.4-9.8 9.8-9.8z"/></symbol><symbol id="menu" viewBox="0 0 1024 768"><path d="M85.358 30.87H938.62v706.28H85.358z"/><path fill="#CFD0CC" d="M938.6 748H85.401c-6.021 0-10.901-4.857-10.901-10.851v-706.3C74.5 24.857 79.381 20 85.401 20H938.6c6.021 0 10.899 4.856 10.899 10.849V737.15C949.5 743.143 944.62 748 938.6 748zM96.302 726.303h831.396V41.697H96.302v684.606z"/><path fill="#FFF" d="M838.568 646.815H185.431V539.094h653.137v107.721zm0-417.966H185.431V121.186h653.137v107.663zm0 208.231H185.431V329.398h653.137V437.08z"/></symbol><symbol id="minus" viewBox="0 0 512 512"><path d="M417.4 224H94.6C77.7 224 64 238.3 64 256s13.7 32 30.6 32h322.8c16.9 0 30.6-14.3 30.6-32s-13.7-32-30.6-32z"/></symbol><symbol id="mute" viewBox="0 0 118.667 107.667"><path fill="#A7A9AC" d="M19.333 70.443l-.01.01H4.676l-.01-.01v-33.48l.01-.01h14.647l.01.01v33.48zm5.234-36.168c-.473.281-.859.961-.859 1.511v36.167c0 .55.389 1.227.864 1.504l29.106 16.991c.475.277.864.054.864-.496v-72.5c0-.55-.387-.77-.859-.489L24.567 34.275zm42.812 4.587c4.323 4.436 7.631 10.105 7.281 16.435-.247 4.475-3.203 9.192-6.552 12.073-3.427 2.949 1.547 7.878 4.95 4.95 4.991-4.294 7.776-10.619 8.602-17.023 1.017-7.884-4.05-15.965-9.331-21.385-3.155-3.238-8.1 1.716-4.95 4.95zm6.634-17.938c9.148 9.29 16.786 21.895 16.296 35.244-.396 10.794-6.577 22.17-14.785 29.14-3.445 2.926 1.531 7.853 4.95 4.95 9.833-8.351 15.894-21.387 16.835-34.09 1.107-14.945-8.207-29.896-18.346-40.194-3.171-3.22-8.119 1.732-4.95 4.95zm11.741-10.538c12.323 11.225 22.489 27.412 21.748 44.49-.662 15.266-8.435 31.75-19.752 42.143-3.331 3.06 1.632 7.997 4.95 4.95 12.512-11.491 20.112-28.868 21.694-45.54 1.829-19.276-9.839-38.376-23.69-50.994-3.329-3.031-8.294 1.905-4.95 4.951z"/><path fill="#4559A8" d="M7.691 7.309l97.743 97.078.424.422c3.205 3.183 8.156-1.766 4.95-4.95L13.066 2.78l-.424-.422C9.437-.825 4.486 4.124 7.691 7.309z"/></symbol><symbol id="nav-menu" viewBox="0 0 39.3 32.9"><path d="M.9.9h37.5v31.2H.9z"/><path stroke="#D0D1CC" stroke-linejoin="round" stroke-miterlimit="3" d="M.9.9h37.5v31.2H.9z"/><path fill="#fff" d="M31.6 25.8H7.8v-3.9h23.7v3.9h.1zm0-15.2H7.8V6.7h23.7v3.9h.1zm0 7.6H7.8v-3.9h23.7v3.9h.1z"/></symbol><symbol id="pause" viewBox="0 0 89.333 107.667"><path d="M16.762 13.5v80.667c0 9.028 14 9.028 14 0V13.5c0-9.029-14-9.029-14 0zm44.905 0v80.667c0 9.028 14 9.028 14 0V13.5c0-9.029-14-9.029-14 0z"/></symbol><symbol id="person" viewBox="132.5 0 30.5 37.5"><symbol id="a" viewBox="-14.093 -14.212 28.187 28.423"><path fill="none" stroke="#54549D" stroke-width="3.45" stroke-linejoin="round" stroke-miterlimit="3" d="M12.874-12.992L-.076-.042l-12.8-12.75m.15 25.399L-.076-.042l12.7 13.05"/></symbol><symbol id="b" viewBox="-10.149 -10.233 20.297 20.467"><use xlink:href="#a" width="28.187" height="28.423" x="-14.093" y="-14.212" transform="translate(0 .001) scale(.7201)" overflow="visible"/></symbol><path fill="#444B99" d="M149.74 7.298c.351.351.558.732.621 1.146v.239c0 .605-.207 1.098-.621 1.48-.413.414-.891.621-1.432.621a1.868 1.868 0 0 1-1.434-.621c-.382-.382-.574-.875-.574-1.48 0-.542.192-1.002.574-1.385.381-.382.857-.573 1.434-.573.285 0 .557.015.812.047.127.095.271.191.43.287v.047c.031 0 .063.033.095.096l.095.096z"/><path fill="none" stroke="#444B99" stroke-width="1.8" stroke-linecap="round" stroke-linejoin="round" stroke-miterlimit="3" d="M152.939 9.59l1.146 4.965-4.727-2.865m-6.971 6.59l5.875-7.162-.527 7.257 2.246 6.017 2.053 6.017m-4.3-12.034l-2.006 12.176"/><use xlink:href="#a" width="28.187" height="28.423" x="-14.093" y="-14.212" transform="matrix(.7201 0 0 -.7201 11.872 833.768)" overflow="visible"/><use xlink:href="#b" width="20.297" height="20.467" x="-10.149" y="-10.233" transform="matrix(1 0 0 -1 11.873 833.768)" overflow="visible"/></symbol><symbol id="play" viewBox="0 0 104.667 121.333"><path d="M90.667 60.245l-66.334 48v-96z"/></symbol><symbol id="play_video" viewBox="0 0 570.611 570.611"><path d="M285.306 0C127.985 0 .004 127.988.004 285.302c0 157.315 127.981 285.309 285.302 285.309s285.301-127.988 285.301-285.303C570.607 127.994 442.627 0 285.306 0zm0 509.41c-123.569 0-224.102-100.533-224.102-224.102S161.737 61.2 285.306 61.2s224.102 100.533 224.102 224.102S408.875 509.41 285.306 509.41z"/><path d="M166.505 134.916v300.78c0 24.266 17.087 34.186 38.158 22.16l264.255-150.777c21.078-12.027 21.078-31.525 0-43.545L204.663 112.749c-21.071-12.026-38.158-2.099-38.158 22.167z"/></symbol><symbol id="restart" viewBox="0 0 127.333 121.333"><path d="M93.833 42.679c7.042 14.892 2.379 31.63-10.013 41.898-11.699 9.693-28.855 8.648-40.878.457-12.067-8.221-16.364-24.123-12.467-37.712 4.116-14.354 18-23.741 32.583-23.981 9.019-.149 9.033-14.149 0-14-20.933.346-38.653 13.388-45.679 33.004-7.267 20.29 1.642 42.503 18.497 54.778 16.785 12.223 40.772 10.621 56.825-1.854 18.295-14.219 22.961-39.058 13.22-59.656-3.858-8.157-15.926-1.048-12.088 7.066zm-7.506 5.655l29.834-15L86.994 19"/></symbol><symbol id="statistics" viewBox="0 0 39.4 32.9"><path d="M1 .9h37.5v31.2H1z"/><path stroke="#D0D1CC" stroke-linejoin="round" stroke-miterlimit="3" fill="none" d="M1 .9h37.5v31.2H1z"/><path fill="#fff" d="M26.4 18.3c1.3 0 2.4.4 3.3 1.3.9.9 1.3 1.9 1.3 3.2 0 1.2-.4 2.2-1.3 3.1-.9.9-2 1.4-3.3 1.4-1.2 0-2.2-.5-3.1-1.4-.8-.9-1.3-1.9-1.3-3.1 0-1.3.5-2.4 1.4-3.2.8-.9 1.8-1.3 3-1.3zm-11.1-6.8c-.9.9-2 1.4-3.2 1.4-1.2 0-2.2-.5-3.1-1.4-.9-.8-1.3-1.8-1.3-3.1 0-1.2.4-2.2 1.3-3.1.9-.9 1.9-1.4 3.1-1.4 1.2 0 2.3.5 3.2 1.4.9.9 1.3 1.9 1.3 3.1 0 1.2-.5 2.3-1.3 3.1z"/><path stroke="#fff" stroke-width="3" stroke-linecap="round" stroke-linejoin="round" stroke-miterlimit="3" fill="none" d="M10.1 25.1L28.3 6.9"/></symbol><symbol id="statistics_nav-menu" viewBox="0 0 30 24.682"><symbol id="a" viewBox="-14.093 -14.212 28.187 28.423"><path fill="none" stroke="#54559D" stroke-width="3.45" stroke-linejoin="round" stroke-miterlimit="3" d="M12.874-12.992L-.076-.042l-12.8-12.75m.15 25.399L-.076-.042l12.7 13.05"/></symbol><symbol id="b" viewBox="-10.149 -10.235 20.299 20.469"><use xlink:href="#a" width="28.187" height="28.423" x="-14.093" y="-14.212" transform="scale(.7201)" overflow="visible"/></symbol><use xlink:href="#a" width="28.187" height="28.423" x="-14.093" y="-14.212" transform="matrix(.7201 0 0 -.7201 -65.43 723.597)" overflow="visible"/><use xlink:href="#b" width="20.299" height="20.469" x="-10.149" y="-10.235" transform="matrix(.9575 0 0 -.9575 -8.4 816.9)" overflow="visible"/><path fill="#444B99" d="M20.68 14.516c1.047 0 1.921.351 2.617 1.047.699.699 1.049 1.559 1.049 2.578 0 .94-.35 1.76-1.049 2.459-.696.752-1.57 1.127-2.617 1.127-.967 0-1.786-.375-2.458-1.127-.726-.699-1.087-1.519-1.087-2.459 0-1.021.361-1.879 1.087-2.578.672-.697 1.491-1.047 2.458-1.047zm-8.944-5.479c-.752.753-1.611 1.128-2.576 1.128-.94 0-1.761-.375-2.459-1.128-.697-.644-1.047-1.476-1.047-2.497 0-.939.35-1.759 1.047-2.457.698-.752 1.519-1.128 2.459-1.128.965 0 1.824.376 2.576 1.128.698.698 1.047 1.518 1.047 2.457 0 1.021-.348 1.853-1.047 2.497z"/><path fill="none" stroke="#434CA0" stroke-width="2" stroke-linecap="round" stroke-linejoin="round" stroke-miterlimit="3" d="M7.586 19.955L22.17 5.412"/></symbol><symbol id="statistika2" viewBox="0 0 1024 768"><path d="M85.358 30.87H938.62v706.28H85.358z"/><path fill="#CFD0CC" d="M938.6 748H85.401c-6.021 0-10.901-4.857-10.901-10.851v-706.3C74.5 24.857 79.381 20 85.401 20H938.6c6.021 0 10.899 4.856 10.899 10.849V737.15C949.5 743.143 944.62 748 938.6 748zM96.302 726.303h831.396V41.697H96.302v684.606z"/><path fill="#FFF" d="M692.378 453.514c33.243 0 60.938 11.094 83.09 33.225 22.186 22.151 33.243 49.479 33.243 81.879 0 29.82-11.058 55.833-33.243 78.052-22.151 23.801-49.883 35.735-83.09 35.735-30.751 0-56.727-11.935-77.999-35.735-23.028-22.219-34.543-48.267-34.543-78.052 0-32.4 11.515-59.728 34.543-81.879 21.272-22.115 47.248-33.225 77.999-33.225zm-283.915-173.92c-23.872 23.835-51.217 35.788-81.862 35.788-29.908 0-55.849-11.918-77.964-35.788-22.219-20.465-33.348-46.897-33.348-79.315 0-29.82 11.128-55.833 33.348-78.018 22.116-23.835 48.127-35.805 77.964-35.805 30.681 0 57.956 11.935 81.862 35.805 22.149 22.185 33.243 48.197 33.243 78.018 0 32.453-11.094 58.868-33.243 79.315z"/><path fill="none" stroke="#FFF" stroke-width="76.207" stroke-linecap="round" stroke-linejoin="round" stroke-miterlimit="3" d="M276.72 626.135l462.977-461.644"/></symbol><symbol id="unmute" viewBox="0 0 118.667 107.667"><path d="M19.333 70.443l-.01.01H4.676l-.01-.01v-33.48l.01-.01h14.647l.01.01v33.48zm5.234-36.168c-.473.281-.859.961-.859 1.511v36.167c0 .55.389 1.227.864 1.504l29.106 16.991c.475.277.864.054.864-.496v-72.5c0-.55-.387-.77-.859-.489L24.567 34.275zm42.812 4.587c4.323 4.436 7.631 10.105 7.281 16.435-.247 4.475-3.203 9.192-6.552 12.073-3.427 2.949 1.547 7.878 4.95 4.95 4.991-4.294 7.776-10.619 8.602-17.023 1.017-7.884-4.05-15.965-9.331-21.385-3.155-3.238-8.1 1.716-4.95 4.95zm6.634-17.938c9.148 9.29 16.786 21.895 16.296 35.244-.396 10.794-6.577 22.17-14.785 29.14-3.445 2.926 1.531 7.853 4.95 4.95 9.833-8.351 15.894-21.387 16.835-34.09 1.107-14.945-8.207-29.896-18.346-40.194-3.171-3.22-8.119 1.732-4.95 4.95zm11.741-10.538c12.323 11.225 22.489 27.412 21.748 44.49-.662 15.266-8.435 31.75-19.752 42.143-3.331 3.06 1.632 7.997 4.95 4.95 12.512-11.491 20.112-28.868 21.694-45.54 1.829-19.276-9.839-38.376-23.69-50.994-3.329-3.031-8.294 1.905-4.95 4.951z"/></symbol><symbol id="vopros" viewBox="0 0 1024 768"><path d="M85.358 30.87H938.62v706.281H85.358z"/><path fill="#CFD0CC" d="M938.6 748H85.401c-6.02 0-10.901-4.857-10.901-10.85V30.849C74.5 24.857 79.381 20 85.401 20H938.6c6.021 0 10.9 4.857 10.9 10.849V737.15c0 5.993-4.88 10.85-10.9 10.85zM96.302 726.303h831.396V41.697H96.302v684.606z"/><path fill="#FFF" d="M541.721 480.875c0 23.838-14.029 38.584-36.299 38.584-22.271 0-36.301-14.789-36.301-38.584v-92.754c0-36.953.83-43.5 57.761-55.005 65.191-13.148 75.88-58.301 75.88-88.653 0-55.832-40.409-90.306-95.723-90.306-43.731 0-77.583 15.605-95.722 67.327-7.452 21.327-17.331 27.079-32.191 27.079-18.97 0-36.322-14.779-35.491-37.779 3.3-72.222 84.162-123.933 160.915-123.933 99.873 0 175.795 64.032 175.795 151.033 0 88.664-56.122 143.681-138.644 160.906v82.086h.02zm-36.299 116.559c23.121 0 42.069 18.9 42.069 41.869 0 23.01-18.948 41.869-42.069 41.869-23.122 0-42.114-18.859-42.114-41.869 0-22.969 18.992-41.869 42.114-41.869z"/></symbol></svg>