<svg xmlns="http://www.w3.org/2000/svg" xmlns:xlink="http://www.w3.org/1999/xlink"><defs><path id="d" d="M9.922 28.032h185.657v137.271H9.922z"/><path id="f" d="M-63.614-24.372h329.25v260.303h-329.25z"/><path id="h" d="M-63.614-24.372h455.65v269.031h-455.65z"/></defs><symbol id="btn_nav-back" viewBox="0 0 77.7 30"><path d="M77.7 30H15L.6 15 15 0h62.7z"/><path d="M29.6 19.4h-1.3V15h-4v4.4H23V9.8h1.3v4.1h4V9.8h1.3v9.6zm9 0h-1.4l-.7-2.1h-4l-.7 2.1h-1.4l3.2-9.6h1.8l3.2 9.6zm-2.4-3.2L34.5 11l-1.6 5.1h3.3zm3.3 1.7c.4.2.8.3 1.2.4.4.1 1 .1 1.6.1.8 0 1.3-.2 1.7-.5.4-.3.6-.8.6-1.4 0-.2-.1-.5-.2-.7-.1-.2-.3-.4-.5-.5-.2-.1-.4-.2-.7-.3-.3-.1-.6-.1-1-.1h-2v-1.1h2c.3 0 .6 0 .8-.1.2-.1.5-.2.6-.3.2-.1.3-.3.4-.5.1-.2.1-.4.1-.7 0-.2 0-.4-.1-.6-.1-.2-.2-.4-.3-.5-.2-.1-.4-.3-.6-.3-.3-.1-.6-.1-.9-.1-.4 0-.8 0-1.2.1-.4.1-.8.2-1.3.3V10l1.2-.3c.4-.1.9-.1 1.5-.1 1.1 0 1.9.2 2.4.6.5.4.8 1 .8 1.8 0 .5-.1 1-.4 1.3-.3.4-.7.7-1.2.8.3 0 .5.1.7.2.2.1.4.3.6.5s.3.4.4.7c.1.3.2.5.2.9 0 .5-.1.9-.3 1.2-.2.4-.4.7-.8.9-.3.3-.7.5-1.2.6-.5.1-1 .2-1.6.2-1 0-1.9-.1-2.7-.4v-1zm15.7 1.5h-1.4l-.7-2.1h-4l-.7 2.1H47l3.2-9.6H52l3.2 9.6zm-2.5-3.2L51.1 11l-1.6 5.1h3.2zm10.7 2.1l-.1 3.2h-1.2v-2.1h-5.5v2.1h-1.2l-.1-3.2h.1c.2 0 .3 0 .5-.1l.5-.5c.1-.2.3-.6.4-1 .1-.4.2-.9.4-1.6s.2-1.4.3-2.3c.1-.9.1-1.9.2-3.1h4.7v8.5h1zM61 11h-2.1c0 1-.1 1.9-.2 2.8s-.2 1.6-.3 2.2c-.1.6-.3 1.1-.4 1.5-.2.4-.4.7-.6.9H61V11z" fill="#fff"/></symbol><symbol id="btn_nav-forward" viewBox="0 0 77.8 30"><path d="M77.1 15L62.7 0H0v30h62.7z"/><path d="M18.4 18.4l-.1 3.2h-1.2v-2.1h-5.5v2.1h-1.2l-.1-3.2h.1c.2 0 .3 0 .5-.1l.5-.5c.1-.2.3-.6.4-1 .1-.4.2-.9.4-1.6s.2-1.4.3-2.3c.1-.9.1-1.9.2-3.1h4.7v8.5h1zM16 11h-2.1c0 1-.1 1.9-.2 2.8s-.2 1.6-.3 2.2c-.1.6-.3 1.1-.4 1.5-.2.4-.4.7-.6.9H16V11zm10.8 8.5h-1.4l-.7-2.1h-4l-.7 2.1h-1.4l3.2-9.6h1.8l3.2 9.6zm-2.5-3.3l-1.6-5.1-1.6 5.1h3.2zm9.7 3.3h-1.3V11h-2.1c0 1.3-.1 2.3-.2 3.3s-.3 1.7-.4 2.3c-.1.7-.3 1.2-.5 1.5s-.4.7-.6.8c-.2.2-.4.3-.6.4s-.4.1-.7.1c-.2 0-.4 0-.6-.1l.1-1.1c.3 0 .5 0 .7-.2.2-.2.4-.4.5-.8.2-.4.3-.8.4-1.3.1-.5.2-1.1.3-1.7.1-.6.1-1.3.2-2.1.1-.7.1-1.5.1-2.4H34v9.8zm8.1 0h-5.5V9.9h5.5V11h-4.2v3h4v1.1h-4v3.3h4.2v1.1zm8.3 0h-5.5V9.9h5.5V11h-4.2v3h4v1.1h-4v3.3h4.2v1.1z" fill="#fff"/></symbol><symbol id="carousel_arrow-left" viewBox="0 0 36.917 54.542"><path fill="#58595B" d="M11.49.353l-10.5 10.5c-1.369 1.369.752 3.49 2.121 2.121l10.5-10.5c1.369-1.369-.752-3.49-2.121-2.121z"/><path fill="#58595B" d="M13.611 21.353l-10.5-10.5c-1.369-1.369-3.49.752-2.121 2.121l10.5 10.5c1.369 1.369 3.49-.752 2.121-2.121z"/></symbol><symbol id="carousel_arrow-right" viewBox="0 0 36.917 54.542"><path fill="#58595B" d="M22.468 3.977l10.5 10.5c1.369 1.369 3.49-.752 2.121-2.121l-10.5-10.5c-1.369-1.369-3.491.752-2.121 2.121z"/><path fill="#58595B" d="M24.589 24.977l10.5-10.5c1.369-1.369-.752-3.49-2.121-2.121l-10.5 10.5c-1.37 1.369.752 3.49 2.121 2.121z"/></symbol><symbol id="check" viewBox="0 0 24 24"><path clip-rule="evenodd" d="M21.652 3.211a.747.747 0 0 0-1.061 0L9.41 14.34a.744.744 0 0 1-1.062 0L3.449 9.351a.743.743 0 0 0-1.062 0L.222 11.297a.751.751 0 0 0 .001 1.07l4.94 5.184 1.062 1.07 2.124 2.141a.751.751 0 0 0 1.062 0l14.366-14.34a.762.762 0 0 0 0-1.071l-2.125-2.14z" fill-rule="evenodd"/></symbol><symbol id="cross" viewBox="0 0 20.2 20.2"><path d="M19 19l-9-8.9-8.8 8.8m.2-17.5l8.7 8.7 8.7-8.9"/></symbol><symbol id="cross_exercise" viewBox="0 0 24 24"><path d="M22.245 4.015a.808.808 0 0 1 0 1.139l-6.276 6.27a.81.81 0 0 0 0 1.14l6.273 6.272a.81.81 0 0 1 0 1.14l-2.285 2.277a.814.814 0 0 1-1.142 0l-6.271-6.271a.81.81 0 0 0-1.141 0l-6.276 6.267a.81.81 0 0 1-1.141 0l-2.282-2.28a.81.81 0 0 1 0-1.14l6.278-6.269a.81.81 0 0 0 0-1.14L1.709 5.147a.808.808 0 0 1 0-1.14l2.284-2.278a.813.813 0 0 1 1.142.001L11.405 8a.81.81 0 0 0 1.141.001l6.276-6.267a.812.812 0 0 1 1.141 0l2.282 2.281z"/></symbol><symbol id="fon" viewBox="-282.438 -249.035 574.814 574.471"><path fill="#FFF" d="M-90.832 79.234H4.971V161.3h-95.803z"/><path fill-rule="evenodd" clip-rule="evenodd" fill="#919090" d="M-293.488 20.5v-2.601h.949c-.166.7-.301 1.417-.4 2.15-.199.033-.316.083-.35.149v.45h-.199V20.5z"/><path clip-rule="evenodd" fill="none" d="M-293.488 20.649V20.5"/><path fill="#A3ADD8" d="M-282.438-248.469h95.803v82.066h-95.803z"/><path fill="#FFF" d="M-186.635-249.035h95.803v82.066h-95.803zM-90.832-249.035H4.971v82.066h-95.803zM4.971-249.035h95.801v82.066H4.971z"/><path fill="#DCE8F7" d="M100.771-249.035h95.803v82.066h-95.803z"/><path fill="#7E97CE" d="M-282.438-166.969h95.803v82.068h-95.803z"/><path fill="#A3ADD8" d="M-186.635-166.969h95.803v82.068h-95.803z"/><path fill="#BACFED" d="M-90.832-166.969H4.971v82.068h-95.803z"/><path fill="#FFF" d="M4.971-166.969h95.801v82.068H4.971z"/><path fill="#FFF" d="M100.771-166.969h95.803v82.068h-95.803zM196.574-166.969h95.803v82.068h-95.803z"/><path fill="#A3ADD8" d="M-282.438-84.9h95.803v82.066h-95.803z"/><path fill="#FFF" d="M-186.635-84.9h95.803v82.066h-95.803zM-90.832-84.9H4.971v82.066h-95.803z"/><path fill="#BACFED" d="M4.971-84.9h95.801v82.066H4.971z"/><path fill="#FFF" d="M196.574-84.9h95.803v82.066h-95.803z"/><path fill="#BACFED" d="M-282.438-2.834h95.803v82.068h-95.803z"/><path fill="#7594CC" d="M-186.635-2.834h95.803v82.068h-95.803z"/><path fill="#BACFED" d="M-90.832-2.834H4.971v82.068h-95.803z"/><path fill="#A3ADD8" d="M4.971-2.834h95.801v82.068H4.971z"/><path fill="#104E99" d="M100.771-2.834h95.803v82.068h-95.803z"/><path fill="#FFF" d="M196.574-2.834h95.803v82.068h-95.803z"/><path fill="#7594CC" d="M-282.438 79.234h95.803V161.3h-95.803z"/><path fill="#A3ADD8" d="M-186.635 79.234h95.803V161.3h-95.803z"/><path fill="#7594CC" d="M4.971 79.234h95.801V161.3H4.971z"/><path fill="#FFF" d="M100.771 79.234h95.803V161.3h-95.803z"/><path fill="#7594CC" d="M196.574 79.234h95.803V161.3h-95.803z"/><path fill="#A3ADD8" d="M-282.438 161.301h95.803v82.067h-95.803z"/><path fill="#BACFED" d="M-186.635 161.301h95.803v82.067h-95.803z"/><path fill="#A3ADD8" d="M-90.832 161.301H4.971v82.067h-95.803z"/><path fill="#FFF" d="M4.971 161.301h95.801v82.067H4.971z"/><path fill="#7594CC" d="M100.771 161.301h95.803v82.067h-95.803z"/><path fill="#FFF" d="M196.574 161.301h95.803v82.067h-95.803z"/><path fill="#7594CC" d="M-282.438 243.368h95.803v82.067h-95.803z"/><path fill="#A3ADD8" d="M-186.635 243.368h95.803v82.067h-95.803z"/><path fill="#8EA0D2" d="M-90.832 243.368H4.971v82.067h-95.803z"/><path fill="#7594CC" d="M4.971 243.368h95.801v82.067H4.971z"/><path fill="#FFF" d="M100.771 243.368h95.803v82.067h-95.803zM196.574 243.368h95.803v82.067h-95.803z"/></symbol><symbol id="glossary" viewBox="0 0 39.3 32.8"><path d="M.9.8h37.5V32H.9z"/><path stroke="#D0D1CC" stroke-linejoin="round" stroke-miterlimit="3" fill="none" d="M.9.8h37.5V32H.9z"/><path fill="#fff" d="M4.8 26.9V5.6C10 3.2 15 3.8 19.6 7.6v19.9c-4.9-2.1-9.7-2.2-14.5-.3l-.3-.3z"/><path stroke="#fff" stroke-width="2" stroke-linecap="round" stroke-linejoin="round" stroke-miterlimit="3" d="M19.7 27.5c.1 0 .2 0 .2.1 4.4-4 9.1-4.1 14.3-.4V5.5c-4.5-2.3-9.3-1.6-14.4 2.1l-.1 19.9zm-14.5-.3c4.7-1.9 9.6-1.8 14.5.3m0-19.9c-4.6-3.7-9.6-4.4-14.8-2v21.3" fill="none"/></symbol><symbol id="glossary2" viewBox="0 0 1024 768"><path d="M85.358 30.87H938.62v706.28H85.358z"/><path fill="#CFD0CC" d="M938.6 748H85.401c-6.021 0-10.901-4.857-10.901-10.851v-706.3C74.5 24.857 79.381 20 85.401 20H938.6c6.021 0 10.899 4.856 10.899 10.849V737.15C949.5 743.143 944.62 748 938.6 748zM96.302 726.303h831.396V41.697H96.302v684.606z"/><path fill="#FFF" d="M171.856 639.855v-494.22c122.064-56.614 236.93-41.508 344.661 45.461v461.953c-114.126-48.675-226.195-50.7-336.272-5.994l-8.389-7.2z"/><path fill="none" stroke="#FFF" stroke-width="44.735" stroke-linecap="round" stroke-linejoin="round" stroke-miterlimit="3" d="M516.333 642.723c2.287 0 3.462.741 3.462 2.303 97.428-88.99 203.665-91.711 318.773-8.021V151.287c-99.746-52.191-207.189-36.458-322.267 47.153l.032 444.283zm-323.41-5.765c105.867-42.964 213.68-41.032 323.41 5.78m0-444.297c-103.579-83.642-214.082-98.17-331.477-43.722v475.316"/></symbol><symbol id="glossary_nav-menu" viewBox="0 0 30 23.2"><path fill="#444B99" d="M4.8 19.3V4.4c3.7-1.7 7.1-1.3 10.4 1.4v13.9c-3.4-1.5-6.8-1.5-10.1-.2l-.3-.2z"/><path stroke="#434CA0" stroke-width="2" stroke-linecap="round" stroke-linejoin="round" stroke-miterlimit="3" d="M15.1 19.7c.1 0 .1 0 .1.1 3.1-2.8 6.4-2.9 10-.3V4.3c-3.1-1.6-6.5-1.1-10.1 1.5v13.9zM5 19.6c3.3-1.3 6.7-1.3 10.1.2m0-14C11.9 3.2 8.4 2.7 4.8 4.4v14.9" fill="none"/></symbol><symbol id="interface-help" viewBox="88.55 0 46 75"><path stroke="#CFD0CC" stroke-linejoin="round" stroke-miterlimit="3" d="M91.982 2.674h39.135v32.553H91.982z"/><path fill="#FFF" d="M112.913 23.415c0 1.098-.643 1.778-1.665 1.778s-1.665-.681-1.665-1.778V19.14c0-1.703.038-2.005 2.649-2.535 2.99-.606 3.481-2.687 3.481-4.086 0-2.573-1.854-4.162-4.391-4.162-2.006 0-3.558.719-4.39 3.103-.342.983-.796 1.248-1.477 1.248-.87 0-1.666-.681-1.628-1.741.151-3.329 3.86-5.712 7.381-5.712 4.581 0 8.063 2.951 8.063 6.961 0 4.086-2.574 6.622-6.359 7.416v3.783zm-1.665 5.372c1.061 0 1.93.871 1.93 1.93 0 1.061-.869 1.93-1.93 1.93-1.06 0-1.931-.87-1.931-1.93a1.94 1.94 0 0 1 1.931-1.93z"/></symbol><symbol id="logo" viewBox="-353.25 -263.875 351 129"><use xlink:href="#Symbol_47" width="20.297" height="20.467" x="-10.149" y="-10.233" transform="matrix(1 0 0 -1 -70.827 698.467)" overflow="visible"/><path fill-rule="evenodd" clip-rule="evenodd" fill="#E9EAEB" d="M-40.46-254.688c9.911.019 18.221 2.845 24.939 8.484 7.218 6.143 10.816 14.343 10.796 24.597.02 5.104-.866 9.454-2.657 13.047-1.369 2.797-3.601 5.722-6.695 8.774l-9.236 8.716a64.537 64.537 0 0 0-9.64 12.992l-.407.694h-311.862v2.595h310.88c-.589 2.453-.879 6.379-.865 11.777h-15.125l.461-7.156h-4.617v27.015h-5.833v-24.704h-.056l-8.256 24.704h-5.542l-8.372-24.704h-.055v24.704h-5.833v-27.015h-11.027c4.147 2.558 6.227 6.752 6.236 12.582.022 4.887-1.422 8.676-4.33 11.373-2.52 2.29-5.772 3.444-9.756 3.464-3.97-.02-7.2-1.174-9.7-3.464-2.927-2.697-4.391-6.486-4.388-11.373-.006-5.916 2.015-10.11 6.062-12.582h-13.393c2.464 1.565 3.674 3.971 3.636 7.216.041 2.274-.652 4.255-2.08 5.944-1.822 2.008-4.418 3.009-7.792 3.002h-3.753v10.853h-5.774v-27.015h-5.137v3.346h-11.372v6.58h10.447v4.62h-10.447v7.393h11.372v5.076h-17.145v-27.015h-4.908l-9.525 11.257 11.313 15.758h-7.562l-9.47-14.433h-.057v14.433h-5.83v-14.433h-.174l-9.179 14.433h-7.563l11.375-15.758-9.642-11.257h-6.12v21.938h3.465v11.313h-5.947v-6.237h-17.318v6.237h-5.832v-11.313h3.292c2.4-3.95 3.592-8.778 3.58-14.494v-7.444h-9.7v3.346h-11.432v6.58h10.45v4.62h-10.45v7.393h11.432v5.076h-17.261v-27.015h-5.773v27.015h-6.005v-12.469h-11.547v12.469h-5.829v-27.015h-5.024v3.346h-11.431v6.58h10.449v4.62h-10.449v7.393h11.431v5.076h-17.203v-27.015h-5.832v27.015h-5.772l.058-24.704h-.058l-8.431 24.704h-5.599l-8.198-24.704h-.173l.173 24.704h-6.062V-245.8c30.709 30.72 61.982 43.345 93.813 37.873 5.59-.936 11.44-2.629 17.551-5.082 3.125-1.146 8.533-3.551 16.223-7.215 14.022-6.64 25.972-10.507 35.851-11.604 10.371-1.086 22.38-.2 36.023 2.658 10.234 2.076 23.014 5.751 38.333 11.027l38.738 13.334c14.489 4.811 26.651 7.986 36.487 9.526l.864-.868c-9.913-1.687-22.151-5.305-36.715-10.852l-38.853-15.59c-15.504-6.231-28.378-10.62-38.624-13.16-13.723-3.352-25.808-4.353-36.254-3.003-9.879 1.25-21.829 5.733-35.851 13.454-7.69 4.191-13.097 7.002-16.223 8.428-6.111 2.863-11.96 4.808-17.551 5.827-31.831 6.471-63.103-8.176-93.813-43.93v-6.64c30.709 39.599 61.982 55.863 93.813 48.783 5.59-1.17 11.44-3.309 17.551-6.408 3.125-1.585 8.533-4.721 16.223-9.412 14.022-8.55 25.972-13.533 35.851-14.95 10.446-1.467 22.531-.333 36.254 3.403 10.245 2.816 23.12 7.687 38.624 14.608l38.853 17.26c14.652 6.142 26.892 10.145 36.715 12.008l11.373-11.604c3.56-4.425 5.347-9.312 5.371-14.665-.05-4.726-1.436-8.825-4.157-12.293-3.615-4.621-9.041-6.931-16.279-6.931-14.825-.003-22.231 8.849-22.229 26.559v4.444l-14.546-10.277c.771-8.67 3.312-15.792 7.62-21.36 6.384-8.147 16.255-12.228 29.618-12.236zm-52.419 64.773c1.107-.014 1.918.143 2.424.461.569.347.84.944.806 1.793.009.761-.242 1.397-.749 1.905-.599.438-1.542.671-2.83.692h-1.385v-4.852h1.734zm-6.929-10.91v19.399h7.85c2.329 0 4.1-.463 5.313-1.388 1.482-1.164 2.229-2.666 2.251-4.504-.01-1.947-.666-3.563-1.962-4.849-1.229-.92-3.231-1.384-6.005-1.386h-2.251v-7.273h-5.196zm49.246 42.778h15.468v14.894h-15.468v-14.894zm-14.264-12.121h-13.103l6.409 20.088h.115l1.328-5.252 5.251-14.836zm-137.34-30.657v19.399h6.062l6.002-12.99h.173l-.173 12.99h5.255v-19.399h-6.235l-5.947 12.99h-.172l.172-12.99h-5.137zm-15.99 3.58h4.674v15.819h5.196v-19.399h-14.604l-.577 13.337c.007.749-.244 1.286-.751 1.613-.349.423-.869.633-1.558.637a8.092 8.092 0 0 0-.867-.173v3.985l2.077.229c2.083.01 3.604-.533 4.562-1.617.926-.94 1.464-2.842 1.616-5.714l.232-8.717zm-1.733 30.423h-7.448v4.099c.03 6.046-.935 10.876-2.887 14.494h10.335v-18.593zm-38.853-31.751c-1.748 1.666-2.633 4.128-2.656 7.39.022 3.299.908 5.799 2.656 7.506 1.613 1.764 3.962 2.647 7.042 2.654 3.054-.007 5.457-.891 7.216-2.654 1.746-1.707 2.632-4.207 2.657-7.506-.025-3.262-.912-5.724-2.657-7.39-1.759-1.688-4.162-2.534-7.216-2.539-3.08.005-5.429.85-7.042 2.539zm10.162 2.886c.872 1.163 1.313 2.665 1.325 4.503-.012 1.938-.453 3.495-1.325 4.677-.61 1.101-1.649 1.659-3.12 1.673-1.359-.014-2.419-.572-3.175-1.673-.772-1.013-1.159-2.571-1.154-4.677-.005-2.007.381-3.509 1.154-4.503.756-1.083 1.816-1.623 3.175-1.616 1.471-.007 2.511.533 3.12 1.616zm-38.103-5.138h-12.989v19.399h5.138v-15.589h7.852v-3.81zm9.815 8.314h-.289v-8.314h-5.081v19.399h5.081v-9.354h.289l6.232 9.354h5.774l-7.216-10.51 6.698-8.89h-5.948l-5.54 8.315zm-6.295 32.269h11.547v-9.926h-11.547v9.926zm164.071-40.583v3.811h4.737v15.589h5.021v-15.589h4.907v-3.811h-14.665zm-22.514 0h-5.138v19.399h7.795c2.351 0 4.142-.463 5.369-1.388 1.463-1.078 2.196-2.581 2.194-4.504.007-2.031-.589-3.648-1.791-4.849-1.22-.92-3.258-1.384-6.12-1.386h-2.309v-7.272zm1.617 10.91c1.166-.014 2.031.143 2.597.461.59.347.878.944.866 1.793-.031.929-.319 1.563-.866 1.905-.508.438-1.451.671-2.826.692h-1.388v-4.852h1.617zm3.925 22.344h-2.656v9.064h2.656c3.273.006 4.907-1.494 4.907-4.505 0-2.993-1.634-4.513-4.907-4.559zm12.296-13.855v-19.399h-5.139v19.399h5.139zm-37.004-8.256l2.482.46c.773.343 1.16.979 1.154 1.904.013.73-.238 1.289-.751 1.676-.529.361-1.493.552-2.885.578h-1.56v-4.618h1.56zm-1.56-3.636v-3.696h8.891v-3.811h-14.027v19.399h8.023c2.309.016 4.06-.39 5.255-1.214 1.499-1.144 2.268-2.662 2.308-4.561-.023-2.139-.734-3.736-2.137-4.793-1.212-.86-3.538-1.304-6.984-1.325h-1.329zm46.994 35.732c.001 7.064 2.679 10.606 8.025 10.622 5.242-.016 7.86-3.558 7.85-10.622.011-7.125-2.607-10.686-7.85-10.681-5.346-.004-8.024 3.556-8.025 10.681zm-71.645-2.019h.057l8.371-10.563h-8.428v10.563zm-6.004 0h.174v-10.563h-8.371l8.197 10.563zm-113.094-33.599h-8.024v-4.041h8.601v-3.58h-13.566v19.399h13.856v-3.638h-8.891v-4.447h8.024v-3.693zm-29.095-4.041h4.79v15.819h5.195v-19.399h-14.663l-.518 13.337c-.147.835-.378 1.372-.695 1.613a2.178 2.178 0 0 1-1.558.637l-1.041-.173v3.985l2.194.229c2.06.01 3.56-.533 4.504-1.617.771-.854 1.327-2.762 1.672-5.714l.12-8.717zm1.036 47.165h.173l1.215-5.252 5.251-14.836h-12.872l6.233 20.088z"/></symbol><symbol id="loupe_decrease" viewBox="14.75 11.167 21.833 21.833"><path d="M35.963 30.096l-4.432-4.432c1.068-1.542 1.602-3.261 1.602-5.157 0-1.233-.239-2.41-.717-3.535s-1.125-2.094-1.939-2.908-1.783-1.461-2.908-1.939-2.303-.717-3.535-.717a8.95 8.95 0 0 0-3.535.717 9.102 9.102 0 0 0-2.907 1.939 9.087 9.087 0 0 0-1.938 2.908 8.927 8.927 0 0 0-.718 3.535c0 1.232.239 2.411.718 3.536a9.078 9.078 0 0 0 1.938 2.906 9.085 9.085 0 0 0 2.907 1.939 8.933 8.933 0 0 0 3.535.717c1.896 0 3.614-.535 5.157-1.604l4.432 4.42c.311.328.698.492 1.164.492.457 0 .846-.162 1.169-.484a1.59 1.59 0 0 0 .485-1.17c0-.457-.159-.843-.478-1.163m-7.838-5.498c-1.133 1.133-2.497 1.699-4.091 1.699-1.594 0-2.958-.566-4.09-1.699-1.133-1.134-1.7-2.497-1.7-4.09 0-1.594.566-2.958 1.7-4.09 1.133-1.133 2.497-1.701 4.09-1.701 1.594 0 2.958.568 4.091 1.701s1.7 2.497 1.7 4.09-.567 2.956-1.7 4.09m-.368-4.918h-7.445a.405.405 0 0 0-.291.123.397.397 0 0 0-.122.291v.826c0 .114.041.211.122.292.083.083.18.123.291.123h7.445a.4.4 0 0 0 .291-.123.395.395 0 0 0 .123-.292v-.826a.402.402 0 0 0-.123-.291.402.402 0 0 0-.291-.123"/></symbol><symbol id="loupe_increase" viewBox="13.083 45.083 21.75 21.833"><path d="M34.31 63.929l-4.432-4.432c1.067-1.542 1.602-3.261 1.602-5.157 0-1.233-.239-2.41-.717-3.535a9.106 9.106 0 0 0-1.939-2.908 9.09 9.09 0 0 0-2.908-1.939 8.941 8.941 0 0 0-3.533-.717 8.944 8.944 0 0 0-3.535.717 9.095 9.095 0 0 0-2.908 1.939 9.071 9.071 0 0 0-1.938 2.908 8.927 8.927 0 0 0-.718 3.535c0 1.232.239 2.411.718 3.536a9.078 9.078 0 0 0 1.938 2.906 9.079 9.079 0 0 0 2.908 1.939 8.926 8.926 0 0 0 3.535.717c1.895 0 3.613-.535 5.156-1.604l4.432 4.42c.311.328.698.492 1.164.492.457 0 .846-.162 1.169-.484.323-.323.485-.713.485-1.17 0-.457-.161-.843-.479-1.163m-7.838-5.498c-1.133 1.133-2.496 1.699-4.09 1.699-1.595 0-2.959-.566-4.092-1.699-1.133-1.134-1.699-2.497-1.699-4.09 0-1.594.566-2.958 1.699-4.09s2.497-1.701 4.092-1.701c1.594 0 2.957.568 4.09 1.701s1.699 2.497 1.699 4.09-.567 2.956-1.699 4.09m-.368-4.918h-2.896v-2.895a.4.4 0 0 0-.123-.291.4.4 0 0 0-.289-.122h-.828a.405.405 0 0 0-.291.122.4.4 0 0 0-.123.291v2.895h-2.895a.403.403 0 0 0-.291.123.395.395 0 0 0-.123.291v.826c0 .114.041.211.123.292.082.083.18.123.291.123h2.895v2.895c0 .113.041.21.123.291a.398.398 0 0 0 .291.123h.828c.11 0 .207-.041.289-.123a.395.395 0 0 0 .123-.291v-2.895h2.896a.397.397 0 0 0 .29-.123.395.395 0 0 0 .123-.292v-.826a.398.398 0 0 0-.123-.291.401.401 0 0 0-.29-.123"/></symbol><symbol id="loupe_search" viewBox="0 0 36 36"><path fill="#444C99" d="M4.8 35.5l8.9-8.9c2.2 1.4 4.9 2.3 7.8 2.3 7.9 0 14.3-6.4 14.3-14.3S29.4.3 21.5.3 7.2 6.7 7.2 14.6c0 2.9.8 5.5 2.3 7.8L.6 31.3c-.3.3-.3.8 0 1.1l3.2 3.2c.2.2.7.2 1-.1zM21.4 4.8c5.4 0 9.8 4.4 9.8 9.8s-4.4 9.8-9.8 9.8-9.8-4.4-9.8-9.8 4.4-9.8 9.8-9.8z"/></symbol><symbol id="marker-green" viewBox="-54.5 -18.167 130.333 93.167"><symbol id="f" viewBox="-12.3 -9.3 165.58 113.627"><linearGradient id="a" gradientUnits="userSpaceOnUse" x1="105.007" y1="34.339" x2="78.625" y2="77.222"><stop offset="0" stop-color="#00693b"/><stop offset=".327" stop-color="#8fcc2e"/><stop offset=".486" stop-color="#abd400"/><stop offset=".612" stop-color="#abd900"/><stop offset=".749" stop-color="#8fc42e"/><stop offset="1" stop-color="#008a3b"/></linearGradient><path fill-rule="evenodd" clip-rule="evenodd" fill="url(#a)" d="M52.45 2.35C36.583 27.983 27.867 42.1 26.3 44.7c.267.366.684.733 1.25 1.1l99.6 57.55c1.533.967 3.2 1.217 5 .75 1.767-.434 3.133-1.416 4.1-2.949L152.3 75.05c.934-1.533 1.2-3.2.8-5-.434-1.767-1.4-3.116-2.9-4.05L53.9 2.9c-.5-.334-.983-.517-1.45-.55z"/><linearGradient id="b" gradientUnits="userSpaceOnUse" x1="18846.545" y1="-5463.754" x2="18896.916" y2="-5463.754" gradientTransform="scale(-1) rotate(-58.394 14301.28 14167.35)"><stop offset="0"/><stop offset=".471" stop-color="#666"/><stop offset=".996" stop-color="#333"/></linearGradient><path fill-rule="evenodd" clip-rule="evenodd" fill="url(#b)" d="M52.45 2.35c.033-.033.05-.066.05-.1-.1 0-.183.033-.25.1a2.548 2.548 0 0 0-1.55.3c-8.667 1.967-17.817 1.467-27.45-1.5A68.15 68.15 0 0 1 14-2.451L10.55-4.3v.1l.15.05-9 14.65-.15-.05-.1.2 2.8 1.85c2.367 1.7 4.65 3.7 6.85 6 7.066 7.3 12.066 16.184 15 26.65l.2-.45c1.567-2.6 10.283-16.717 26.15-42.35z"/><linearGradient id="c" gradientUnits="userSpaceOnUse" x1="3.737" y1="-8.441" x2="-5.308" y2="6.237"><stop offset="0" stop-color="#008a3b"/><stop offset=".231" stop-color="#8fa82e"/><stop offset=".341" stop-color="#8fb82e"/><stop offset=".486" stop-color="#8fc22e"/><stop offset=".612" stop-color="#abd100"/><stop offset=".749" stop-color="#abd400"/><stop offset="1" stop-color="#cddb00"/></linearGradient><path fill-rule="evenodd" clip-rule="evenodd" fill="url(#c)" d="M10.55-4.2L2.3-9.3-12.3 1.95l13.85 8.5.15.05 9-14.65z"/></symbol><symbol id="d" viewBox="-14.093 -14.212 28.187 28.423"><path fill="none" stroke="#54549D" stroke-width="3.45" stroke-linejoin="round" stroke-miterlimit="3" d="M12.874-12.992L-.076-.042l-12.8-12.75m.15 25.399L-.076-.042l12.7 13.05"/></symbol><symbol id="e" viewBox="-10.149 -10.233 20.297 20.467"><use xlink:href="#d" width="28.187" height="28.423" x="-14.093" y="-14.212" transform="translate(0 .001) scale(.7201)" overflow="visible"/></symbol><use xlink:href="#d" width="28.187" height="28.423" x="-14.093" y="-14.212" transform="matrix(.7201 0 0 -.7201 -70.828 698.469)" overflow="visible"/><use xlink:href="#e" width="20.297" height="20.467" x="-10.149" y="-10.233" transform="matrix(1 0 0 -1 -70.827 698.467)" overflow="visible"/><use xlink:href="#f" width="165.58" height="113.627" x="-12.3" y="-9.3" transform="matrix(.7664 0 0 -.7664 -43.144 64.83)" overflow="visible"/><path d="M11.449 22.169l7.389-4.612 6.687 10.711 1.094-.683 2.663 4.267-1.434.895-1.768-2.833-8.027 5.011 1.768 2.833-1.433.895-2.663-4.266.944-.59c.058-2.085-1.314-5.37-4.114-9.854l-1.106-1.774zm6.676-2.176l-4.232 2.643.387.621c.646 1.033 1.436 2.503 2.369 4.41.933 1.907 1.49 3.607 1.669 5.1l5.601-3.496-5.794-9.278zM28.084 28.661l-2.917-15.056 1.731-1.081 12.551 9.042-1.83 1.143-3.713-2.794-5.078 3.17.963 4.512-1.707 1.064zm.391-7.174l4.117-2.57-3.367-2.572c-1.023-.78-1.835-1.441-2.434-1.98.332.875.596 1.784.794 2.728l.89 4.394z"/></symbol><symbol id="marker-red" viewBox="-54.5 -18.167 130.333 93.167"><linearGradient id="a" gradientUnits="userSpaceOnUse" x1="36.964" y1="38.515" x2="16.744" y2="5.648"><stop offset="0" stop-color="#e71c00"/><stop offset=".327" stop-color="#f9674e"/><stop offset=".486" stop-color="#f77d69"/><stop offset=".612" stop-color="#f77d69"/><stop offset=".749" stop-color="#f9674e"/><stop offset="1" stop-color="#f30"/></linearGradient><path fill-rule="evenodd" clip-rule="evenodd" fill="url(#a)" d="M-3.317 63.03c-12.16-19.646-18.84-30.465-20.041-32.458.205-.28.523-.562.958-.843l76.334-44.105c1.175-.741 2.452-.933 3.832-.575 1.354.332 2.401 1.085 3.142 2.26l12.3 20.004c.716 1.175.92 2.453.613 3.832-.332 1.354-1.072 2.389-2.223 3.104l-73.805 48.36c-.382.255-.753.396-1.11.421z"/><linearGradient id="b" gradientUnits="userSpaceOnUse" x1="-484.271" y1="-133.847" x2="-445.667" y2="-133.847" gradientTransform="scale(-1) rotate(58.394 -290.373 345.264)"><stop offset="0"/><stop offset=".471" stop-color="#666"/><stop offset=".996" stop-color="#333"/></linearGradient><path fill-rule="evenodd" clip-rule="evenodd" fill="url(#b)" d="M-3.317 63.03c.026.025.039.051.039.076a.258.258 0 0 1-.191-.076 1.952 1.952 0 0 1-1.188-.23c-6.643-1.508-13.656-1.124-21.039 1.149a52.399 52.399 0 0 0-7.089 2.76l-2.644 1.417v-.076l.115-.038-6.898-11.228-.115.038-.076-.153 2.146-1.418c1.813-1.303 3.563-2.836 5.25-4.599 5.415-5.595 9.247-12.403 11.496-20.425l.152.345c1.202 1.993 7.881 12.813 20.042 32.458z"/><linearGradient id="c" gradientUnits="userSpaceOnUse" x1="-40.651" y1="71.301" x2="-47.583" y2="60.05"><stop offset="0" stop-color="#f30"/><stop offset=".231" stop-color="#f75b3c"/><stop offset=".341" stop-color="#f75b3c"/><stop offset=".486" stop-color="#f77d69"/><stop offset=".612" stop-color="#f77d69"/><stop offset=".749" stop-color="#f77d69"/><stop offset="1" stop-color="#f9a49b"/></linearGradient><path fill-rule="evenodd" clip-rule="evenodd" fill="url(#c)" d="M-35.429 68.05l-6.323 3.908-11.189-8.622 10.614-6.514.115-.038 6.899 11.228z"/><g><path d="M18.461 37.461L10.88 25.316l1.607-1.003L15.6 29.3l6.313-3.941-3.113-4.987 1.607-1.003 7.58 12.145-1.607 1.003-3.572-5.724-6.313 3.94 3.573 5.724-1.607 1.004zM30.696 29.822l-7.581-12.145 8.781-5.481.895 1.433-7.174 4.479 2.321 3.72 6.719-4.194.89 1.425-6.718 4.194 2.58 4.134 7.455-4.654.895 1.433-9.063 5.656zM45.069 20.85l-6.687-10.711-4.001 2.498-.895-1.434 9.625-6.009.895 1.433-4.018 2.508 6.688 10.711-1.607 1.004z"/></g></symbol><symbol id="men" viewBox="-282.319 -249.008 71 70"><path fill="#545454" d="M-212.337-179.98h-68.965l1.969-15.77c.505-4.061 3.518-7.439 7.495-8.404l15.657-3.791 9.275 14.548 9.462-14.548 15.643 3.791c3.979.965 6.99 4.344 7.498 8.404l1.966 15.77zm-66.232-3.307h63.502l-1.507-12.074a6.435 6.435 0 0 0-4.839-5.423l-14.55-3.319-10.981 16.771-10.744-16.768-14.536 3.315a6.436 6.436 0 0 0-4.84 5.423l-1.505 12.075z"/><path fill="#545454" d="M-246.806-207.495c-1.669 0-2.979-.374-4.382-1.261l-3.724-2.344c-1.508-.951-2.612-2.365-3.109-3.981l-2.634-8.564c-1.357-.909-2.472-2.249-3.088-3.688l-.055-.034-.224-.683c-.52-1.693-.325-3.364.535-4.578.616-.869 1.527-1.438 2.615-1.643l.635-3.666c.979-6.03 6.364-10.098 13.4-10.098h.201c7.035 0 12.422 4.067 13.401 10.122l.655 3.495c.99.234 1.824.79 2.403 1.605.87 1.227 1.077 2.973.557 4.671-.538 1.749-1.831 3.45-3.364 4.476l-2.635 8.582c-.498 1.619-1.6 3.033-3.105 3.982l-3.717 2.346c-1.419.897-2.685 1.261-4.365 1.261zm-14.748-22.038l.083.25c.303.987 1.182 2.074 2.138 2.637l1.01.561 3.336 10.853c.247.798.818 1.516 1.611 2.015l4.039 2.543c.748.47 1.373.729 2.532.729 1.15 0 1.75-.248 2.515-.729l4.031-2.547c.79-.495 1.361-1.213 1.607-2.018l3.325-10.826 1.021-.604c.951-.561 1.829-1.655 2.139-2.665.24-.779.129-1.312 0-1.496-.022-.03-.081-.115-.379-.122l-2.332-.096-1.309-7.006c-.734-4.521-4.923-7.525-10.433-7.525h-.219c-5.51 0-9.699 3.005-10.423 7.478l-1.252 7.201-2.544.145c-.158.007-.372.029-.438.125-.098.139-.182.534-.058 1.097z"/></symbol><symbol id="menu" viewBox="0 0 1024 768"><path d="M85.358 30.87H938.62v706.28H85.358z"/><path fill="#CFD0CC" d="M938.6 748H85.401c-6.021 0-10.901-4.857-10.901-10.851v-706.3C74.5 24.857 79.381 20 85.401 20H938.6c6.021 0 10.899 4.856 10.899 10.849V737.15C949.5 743.143 944.62 748 938.6 748zM96.302 726.303h831.396V41.697H96.302v684.606z"/><path fill="#FFF" d="M838.568 646.815H185.431V539.094h653.137v107.721zm0-417.966H185.431V121.186h653.137v107.663zm0 208.231H185.431V329.398h653.137V437.08z"/></symbol><symbol id="minus" viewBox="0 0 512 512"><path d="M417.4 224H94.6C77.7 224 64 238.3 64 256s13.7 32 30.6 32h322.8c16.9 0 30.6-14.3 30.6-32s-13.7-32-30.6-32z"/></symbol><symbol id="mute" viewBox="0 0 118.667 107.667"><path fill="#A7A9AC" d="M19.333 70.443l-.01.01H4.676l-.01-.01v-33.48l.01-.01h14.647l.01.01v33.48zm5.234-36.168c-.473.281-.859.961-.859 1.511v36.167c0 .55.389 1.227.864 1.504l29.106 16.991c.475.277.864.054.864-.496v-72.5c0-.55-.387-.77-.859-.489L24.567 34.275zm42.812 4.587c4.323 4.436 7.631 10.105 7.281 16.435-.247 4.475-3.203 9.192-6.552 12.073-3.427 2.949 1.547 7.878 4.95 4.95 4.991-4.294 7.776-10.619 8.602-17.023 1.017-7.884-4.05-15.965-9.331-21.385-3.155-3.238-8.1 1.716-4.95 4.95zm6.634-17.938c9.148 9.29 16.786 21.895 16.296 35.244-.396 10.794-6.577 22.17-14.785 29.14-3.445 2.926 1.531 7.853 4.95 4.95 9.833-8.351 15.894-21.387 16.835-34.09 1.107-14.945-8.207-29.896-18.346-40.194-3.171-3.22-8.119 1.732-4.95 4.95zm11.741-10.538c12.323 11.225 22.489 27.412 21.748 44.49-.662 15.266-8.435 31.75-19.752 42.143-3.331 3.06 1.632 7.997 4.95 4.95 12.512-11.491 20.112-28.868 21.694-45.54 1.829-19.276-9.839-38.376-23.69-50.994-3.329-3.031-8.294 1.905-4.95 4.951z"/><path fill="#4559A8" d="M7.691 7.309l97.743 97.078.424.422c3.205 3.183 8.156-1.766 4.95-4.95L13.066 2.78l-.424-.422C9.437-.825 4.486 4.124 7.691 7.309z"/></symbol><symbol id="nav-menu" viewBox="0 0 39.3 32.9"><path d="M.9.9h37.5v31.2H.9z"/><path stroke="#D0D1CC" stroke-linejoin="round" stroke-miterlimit="3" d="M.9.9h37.5v31.2H.9z"/><path fill="#fff" d="M31.6 25.8H7.8v-3.9h23.7v3.9h.1zm0-15.2H7.8V6.7h23.7v3.9h.1zm0 7.6H7.8v-3.9h23.7v3.9h.1z"/></symbol><symbol id="pause" viewBox="0 0 89.333 107.667"><path d="M16.762 13.5v80.667c0 9.028 14 9.028 14 0V13.5c0-9.029-14-9.029-14 0zm44.905 0v80.667c0 9.028 14 9.028 14 0V13.5c0-9.029-14-9.029-14 0z"/></symbol><symbol id="person" viewBox="132.5 0 30.5 37.5"><symbol id="a" viewBox="-14.093 -14.212 28.187 28.423"><path fill="none" stroke="#54549D" stroke-width="3.45" stroke-linejoin="round" stroke-miterlimit="3" d="M12.874-12.992L-.076-.042l-12.8-12.75m.15 25.399L-.076-.042l12.7 13.05"/></symbol><symbol id="b" viewBox="-10.149 -10.233 20.297 20.467"><use xlink:href="#a" width="28.187" height="28.423" x="-14.093" y="-14.212" transform="translate(0 .001) scale(.7201)" overflow="visible"/></symbol><path fill="#444B99" d="M149.74 7.298c.351.351.558.732.621 1.146v.239c0 .605-.207 1.098-.621 1.48-.413.414-.891.621-1.432.621a1.868 1.868 0 0 1-1.434-.621c-.382-.382-.574-.875-.574-1.48 0-.542.192-1.002.574-1.385.381-.382.857-.573 1.434-.573.285 0 .557.015.812.047.127.095.271.191.43.287v.047c.031 0 .063.033.095.096l.095.096z"/><path fill="none" stroke="#444B99" stroke-width="1.8" stroke-linecap="round" stroke-linejoin="round" stroke-miterlimit="3" d="M152.939 9.59l1.146 4.965-4.727-2.865m-6.971 6.59l5.875-7.162-.527 7.257 2.246 6.017 2.053 6.017m-4.3-12.034l-2.006 12.176"/><use xlink:href="#a" width="28.187" height="28.423" x="-14.093" y="-14.212" transform="matrix(.7201 0 0 -.7201 11.872 833.768)" overflow="visible"/><use xlink:href="#b" width="20.297" height="20.467" x="-10.149" y="-10.233" transform="matrix(1 0 0 -1 11.873 833.768)" overflow="visible"/></symbol><symbol id="play" viewBox="0 0 104.667 121.333"><path d="M90.667 60.245l-66.334 48v-96z"/></symbol><symbol id="play_video" viewBox="0 0 570.611 570.611"><path d="M285.306 0C127.985 0 .004 127.988.004 285.302c0 157.315 127.981 285.309 285.302 285.309s285.301-127.988 285.301-285.303C570.607 127.994 442.627 0 285.306 0zm0 509.41c-123.569 0-224.102-100.533-224.102-224.102S161.737 61.2 285.306 61.2s224.102 100.533 224.102 224.102S408.875 509.41 285.306 509.41z"/><path d="M166.505 134.916v300.78c0 24.266 17.087 34.186 38.158 22.16l264.255-150.777c21.078-12.027 21.078-31.525 0-43.545L204.663 112.749c-21.071-12.026-38.158-2.099-38.158 22.167z"/></symbol><symbol id="restart" viewBox="0 0 127.333 121.333"><path d="M93.833 42.679c7.042 14.892 2.379 31.63-10.013 41.898-11.699 9.693-28.855 8.648-40.878.457-12.067-8.221-16.364-24.123-12.467-37.712 4.116-14.354 18-23.741 32.583-23.981 9.019-.149 9.033-14.149 0-14-20.933.346-38.653 13.388-45.679 33.004-7.267 20.29 1.642 42.503 18.497 54.778 16.785 12.223 40.772 10.621 56.825-1.854 18.295-14.219 22.961-39.058 13.22-59.656-3.858-8.157-15.926-1.048-12.088 7.066zm-7.506 5.655l29.834-15L86.994 19"/></symbol><symbol id="statistics" viewBox="0 0 39.4 32.9"><path d="M1 .9h37.5v31.2H1z"/><path stroke="#D0D1CC" stroke-linejoin="round" stroke-miterlimit="3" fill="none" d="M1 .9h37.5v31.2H1z"/><path fill="#fff" d="M26.4 18.3c1.3 0 2.4.4 3.3 1.3.9.9 1.3 1.9 1.3 3.2 0 1.2-.4 2.2-1.3 3.1-.9.9-2 1.4-3.3 1.4-1.2 0-2.2-.5-3.1-1.4-.8-.9-1.3-1.9-1.3-3.1 0-1.3.5-2.4 1.4-3.2.8-.9 1.8-1.3 3-1.3zm-11.1-6.8c-.9.9-2 1.4-3.2 1.4-1.2 0-2.2-.5-3.1-1.4-.9-.8-1.3-1.8-1.3-3.1 0-1.2.4-2.2 1.3-3.1.9-.9 1.9-1.4 3.1-1.4 1.2 0 2.3.5 3.2 1.4.9.9 1.3 1.9 1.3 3.1 0 1.2-.5 2.3-1.3 3.1z"/><path stroke="#fff" stroke-width="3" stroke-linecap="round" stroke-linejoin="round" stroke-miterlimit="3" fill="none" d="M10.1 25.1L28.3 6.9"/></symbol><symbol id="statistics_nav-menu" viewBox="0 0 30 24.682"><symbol id="a" viewBox="-14.093 -14.212 28.187 28.423"><path fill="none" stroke="#54559D" stroke-width="3.45" stroke-linejoin="round" stroke-miterlimit="3" d="M12.874-12.992L-.076-.042l-12.8-12.75m.15 25.399L-.076-.042l12.7 13.05"/></symbol><symbol id="b" viewBox="-10.149 -10.235 20.299 20.469"><use xlink:href="#a" width="28.187" height="28.423" x="-14.093" y="-14.212" transform="scale(.7201)" overflow="visible"/></symbol><use xlink:href="#a" width="28.187" height="28.423" x="-14.093" y="-14.212" transform="matrix(.7201 0 0 -.7201 -65.43 723.597)" overflow="visible"/><use xlink:href="#b" width="20.299" height="20.469" x="-10.149" y="-10.235" transform="matrix(.9575 0 0 -.9575 -8.4 816.9)" overflow="visible"/><path fill="#444B99" d="M20.68 14.516c1.047 0 1.921.351 2.617 1.047.699.699 1.049 1.559 1.049 2.578 0 .94-.35 1.76-1.049 2.459-.696.752-1.57 1.127-2.617 1.127-.967 0-1.786-.375-2.458-1.127-.726-.699-1.087-1.519-1.087-2.459 0-1.021.361-1.879 1.087-2.578.672-.697 1.491-1.047 2.458-1.047zm-8.944-5.479c-.752.753-1.611 1.128-2.576 1.128-.94 0-1.761-.375-2.459-1.128-.697-.644-1.047-1.476-1.047-2.497 0-.939.35-1.759 1.047-2.457.698-.752 1.519-1.128 2.459-1.128.965 0 1.824.376 2.576 1.128.698.698 1.047 1.518 1.047 2.457 0 1.021-.348 1.853-1.047 2.497z"/><path fill="none" stroke="#434CA0" stroke-width="2" stroke-linecap="round" stroke-linejoin="round" stroke-miterlimit="3" d="M7.586 19.955L22.17 5.412"/></symbol><symbol id="statistika2" viewBox="0 0 1024 768"><path d="M85.358 30.87H938.62v706.28H85.358z"/><path fill="#CFD0CC" d="M938.6 748H85.401c-6.021 0-10.901-4.857-10.901-10.851v-706.3C74.5 24.857 79.381 20 85.401 20H938.6c6.021 0 10.899 4.856 10.899 10.849V737.15C949.5 743.143 944.62 748 938.6 748zM96.302 726.303h831.396V41.697H96.302v684.606z"/><path fill="#FFF" d="M692.378 453.514c33.243 0 60.938 11.094 83.09 33.225 22.186 22.151 33.243 49.479 33.243 81.879 0 29.82-11.058 55.833-33.243 78.052-22.151 23.801-49.883 35.735-83.09 35.735-30.751 0-56.727-11.935-77.999-35.735-23.028-22.219-34.543-48.267-34.543-78.052 0-32.4 11.515-59.728 34.543-81.879 21.272-22.115 47.248-33.225 77.999-33.225zm-283.915-173.92c-23.872 23.835-51.217 35.788-81.862 35.788-29.908 0-55.849-11.918-77.964-35.788-22.219-20.465-33.348-46.897-33.348-79.315 0-29.82 11.128-55.833 33.348-78.018 22.116-23.835 48.127-35.805 77.964-35.805 30.681 0 57.956 11.935 81.862 35.805 22.149 22.185 33.243 48.197 33.243 78.018 0 32.453-11.094 58.868-33.243 79.315z"/><path fill="none" stroke="#FFF" stroke-width="76.207" stroke-linecap="round" stroke-linejoin="round" stroke-miterlimit="3" d="M276.72 626.135l462.977-461.644"/></symbol><symbol id="unmute" viewBox="0 0 118.667 107.667"><path d="M19.333 70.443l-.01.01H4.676l-.01-.01v-33.48l.01-.01h14.647l.01.01v33.48zm5.234-36.168c-.473.281-.859.961-.859 1.511v36.167c0 .55.389 1.227.864 1.504l29.106 16.991c.475.277.864.054.864-.496v-72.5c0-.55-.387-.77-.859-.489L24.567 34.275zm42.812 4.587c4.323 4.436 7.631 10.105 7.281 16.435-.247 4.475-3.203 9.192-6.552 12.073-3.427 2.949 1.547 7.878 4.95 4.95 4.991-4.294 7.776-10.619 8.602-17.023 1.017-7.884-4.05-15.965-9.331-21.385-3.155-3.238-8.1 1.716-4.95 4.95zm6.634-17.938c9.148 9.29 16.786 21.895 16.296 35.244-.396 10.794-6.577 22.17-14.785 29.14-3.445 2.926 1.531 7.853 4.95 4.95 9.833-8.351 15.894-21.387 16.835-34.09 1.107-14.945-8.207-29.896-18.346-40.194-3.171-3.22-8.119 1.732-4.95 4.95zm11.741-10.538c12.323 11.225 22.489 27.412 21.748 44.49-.662 15.266-8.435 31.75-19.752 42.143-3.331 3.06 1.632 7.997 4.95 4.95 12.512-11.491 20.112-28.868 21.694-45.54 1.829-19.276-9.839-38.376-23.69-50.994-3.329-3.031-8.294 1.905-4.95 4.951z"/></symbol><symbol id="video" viewBox="-54.5 -18.167 314.5 229.667"><symbol id="a" viewBox="-14.093 -14.212 28.187 28.423"><path fill="none" stroke="#54549D" stroke-width="3.45" stroke-linejoin="round" stroke-miterlimit="3" d="M12.874-12.992L-.076-.042l-12.8-12.75m.15 25.399L-.076-.042l12.7 13.05"/></symbol><symbol id="b" viewBox="-10.149 -10.233 20.297 20.467"><use xlink:href="#a" width="28.187" height="28.423" x="-14.093" y="-14.212" transform="translate(0 .001) scale(.7201)" overflow="visible"/></symbol><use xlink:href="#a" width="28.187" height="28.423" x="-14.093" y="-14.212" transform="matrix(.7201 0 0 -.7201 -70.828 698.469)" overflow="visible"/><use xlink:href="#b" width="20.297" height="20.467" x="-10.149" y="-10.233" transform="matrix(1 0 0 -1 -70.827 698.467)" overflow="visible"/><linearGradient id="c" gradientUnits="userSpaceOnUse" x1="-50.74" y1="96.666" x2="256.24" y2="96.666"><stop offset="0"/><stop offset=".279" stop-color="#323232"/><stop offset=".794" stop-color="#535353"/><stop offset=".891" stop-color="#292929"/><stop offset="1"/></linearGradient><path fill="url(#c)" d="M256.24-4.905v-9.087H-50.74v9.087h11.739v23.109H-50.74v156.924h11.739v23.109H-50.74v9.088h306.98v-9.088h-11.189v-23.109h11.189V18.204h-11.189V-4.905h11.189zm-29.782 0h13.427v23.109h-13.427V-4.905zM3.35 175.128h13.426v23.109H3.35v-23.109zm-5.166 23.109h-13.427v-23.109h13.427v23.109zm23.758-23.109h13.426v23.109H21.942v-23.109zm18.592 0H53.96v23.109H40.534v-23.109zm18.593 0h13.425v23.109H59.127v-23.109zm18.593 0h13.426v23.109H77.72v-23.109zm18.592 0h13.426v23.109H96.312v-23.109zm18.592 0h13.425v23.109h-13.425v-23.109zm18.592 0h13.426v23.109h-13.426v-23.109zm18.593 0h13.426v23.109h-13.426v-23.109zm18.592 0h13.426v23.109h-13.426v-23.109zm18.591 0h13.427v23.109h-13.427v-23.109zm18.593 0h13.427v23.109h-13.427v-23.109zm0-180.033h13.427v23.109h-13.427V-4.905zm-18.593 0h13.427v23.109h-13.427V-4.905zm-18.591 0h13.426v23.109h-13.426V-4.905zm-18.592 0h13.426v23.109h-13.426V-4.905zm-18.593 0h13.426v23.109h-13.426V-4.905zm-18.592 0h13.425v23.109h-13.425V-4.905zm-18.592 0h13.426v23.109H96.312V-4.905zm-18.592 0h13.426v23.109H77.72V-4.905zm-18.593 0h13.425v23.109H59.127V-4.905zm-18.593 0H53.96v23.109H40.534V-4.905zm-18.592 0h13.426v23.109H21.942V-4.905zm-18.592 0h13.426v23.109H3.35V-4.905zm-18.593 0h13.427v23.109h-13.427V-4.905zm-18.592 0h13.426v23.109h-13.426V-4.905zm0 180.033h13.426v23.109h-13.426v-23.109zm273.72 23.109h-13.427v-23.109h13.427v23.109z"/><path fill="#666" d="M18.897 31.161h167.704v124.556H18.897z"/><clipPath id="e"><use xlink:href="#d" overflow="visible"/></clipPath><g clip-path="url(#e)"><clipPath id="g"><use xlink:href="#f" overflow="visible"/></clipPath><g clip-path="url(#g)"><clipPath id="i"><use xlink:href="#h" overflow="visible"/></clipPath><g clip-path="url(#i)"><image overflow="visible" width="188" height="111" xlink:href="8FEBCA02.jpg" transform="translate(-63.614 -24.372) scale(2.4237)"/></g></g></g><path fill="#1B1B1B" d="M-50.74 28.032h43.163v137.271H-50.74z"/><linearGradient id="j" gradientUnits="userSpaceOnUse" x1="213.078" y1="96.668" x2="256.24" y2="96.668"><stop offset="0" stop-color="#292929"/><stop offset="1"/></linearGradient><path fill="url(#j)" d="M213.078 28.032h43.162v137.271h-43.162z"/><path fill="#1B1B1B" d="M256.24 18.204l-6.56 12.957 6.56 11.137-3.28 20.287v49.027"/></symbol><symbol id="vopros" viewBox="0 0 1024 768"><path d="M85.358 30.87H938.62v706.281H85.358z"/><path fill="#CFD0CC" d="M938.6 748H85.401c-6.02 0-10.901-4.857-10.901-10.85V30.849C74.5 24.857 79.381 20 85.401 20H938.6c6.021 0 10.9 4.857 10.9 10.849V737.15c0 5.993-4.88 10.85-10.9 10.85zM96.302 726.303h831.396V41.697H96.302v684.606z"/><path fill="#FFF" d="M541.721 480.875c0 23.838-14.029 38.584-36.299 38.584-22.271 0-36.301-14.789-36.301-38.584v-92.754c0-36.953.83-43.5 57.761-55.005 65.191-13.148 75.88-58.301 75.88-88.653 0-55.832-40.409-90.306-95.723-90.306-43.731 0-77.583 15.605-95.722 67.327-7.452 21.327-17.331 27.079-32.191 27.079-18.97 0-36.322-14.779-35.491-37.779 3.3-72.222 84.162-123.933 160.915-123.933 99.873 0 175.795 64.032 175.795 151.033 0 88.664-56.122 143.681-138.644 160.906v82.086h.02zm-36.299 116.559c23.121 0 42.069 18.9 42.069 41.869 0 23.01-18.948 41.869-42.069 41.869-23.122 0-42.114-18.859-42.114-41.869 0-22.969 18.992-41.869 42.114-41.869z"/></symbol></svg>