
<svg xmlns="http://www.w3.org/2000/svg" version="1.1" xmlns:xlink="http://www.w3.org/1999/xlink" preserveAspectRatio="none" x="0px" y="0px" width="181px" height="57px" viewBox="0 0 181 57">
<defs>
<g id="Layer0_0_FILL">
<path fill="#C4232F" stroke="none" d="
M 177.3 45.8
L 177.3 3.9 40.45 3.9 40.45 10.25
Q 36.35 10 33.1 10.4 28.75 10.95 26.35 12.6 23.85 14.25 21.9 16.85 19.95 19.5 17.85 24.2 11.7 25.65 8.85 27.5 5.85 29.55 4.65 33.2 3.8 35.9 3.7 39.45 3.7 42.15 4.25 46
L 16.45 45.95
Q 17.4 52.3 23.45 53.05 27.3 53 29.25 51.3 31.2 49.65 32 45.8
L 45.05 45.8
Q 46.95 52.1 51.9 53.05 55.75 53.45 58.25 51.55 60.75 49.7 61.2 45.8
L 78.5 45.8 144.25 45.8 146.15 45.8 153.1 45.8
Q 154.75 52.3 160.45 52.95 164.35 53 166.3 51.4 168.25 49.8 168.9 45.8
L 177.3 45.8
M 49.7 11.95
L 49.75 11.95
Q 50.55 11.95 51.2 12.3 51.9 12.6 52.4 13.15 52.9 13.65 53.15 14.3 53.45 14.95 53.45 15.6
L 53.45 15.75
Q 53.45 15.85 53.35 15.85
L 51.5 15.85
Q 51.35 15.85 51.35 15.75
L 51.35 15.6
Q 51.35 15.25 51.2 15 51.05 14.7 50.8 14.5 50.55 14.25 50.3 14.15 50 14 49.75 14
L 49.7 14
Q 49.55 14 49.55 13.9
L 49.55 12.05
Q 49.55 11.95 49.7 11.95
M 48.6 11.95
Q 48.75 11.95 48.75 12.05
L 48.75 13.9
Q 48.75 14 48.6 14
L 48.55 14
Q 48.3 14 48 14.15 47.75 14.3 47.5 14.5 47.25 14.75 47.1 15 46.95 15.3 46.95 15.6
L 46.95 19.6
Q 46.95 19.95 47.1 20.25 47.25 20.5 47.5 20.75 47.75 20.95 48 21.05 48.3 21.15 48.55 21.15
L 48.6 21.15
Q 48.75 21.15 48.75 21.3
L 48.75 23.15
Q 48.75 23.25 48.6 23.25
L 48.55 23.25
Q 47.75 23.25 47.1 22.95 46.4 22.6 45.9 22.1 45.4 21.55 45.15 20.9 44.85 20.25 44.85 19.55
L 44.85 15.6
Q 44.85 14.95 45.15 14.3 45.4 13.65 45.9 13.15 46.4 12.6 47.1 12.3 47.8 11.95 48.55 11.95
L 48.6 11.95
M 49.75 21.15
Q 50 21.15 50.3 21.05 50.55 20.95 50.8 20.75 51.05 20.55 51.2 20.25 51.35 19.95 51.35 19.6
L 51.35 19.45
Q 51.35 19.3 51.5 19.3
L 53.35 19.3
Q 53.45 19.3 53.45 19.45
L 53.45 19.55
Q 53.45 20.25 53.15 20.9 52.9 21.55 52.4 22.1 51.9 22.6 51.2 22.95 50.55 23.25 49.75 23.25
L 49.7 23.25
Q 49.55 23.25 49.55 23.15
L 49.55 21.3
Q 49.55 21.15 49.7 21.15
L 49.75 21.15
M 64.05 23.2
L 62 23.2
Q 61.95 23.2 61.9 23.1
L 58.5 12
Q 58.5 11.95 58.5 11.9 58.55 11.85 58.65 11.85
L 60.6 11.85
Q 60.7 11.85 60.7 11.95
L 64.15 23.05
Q 64.2 23.2 64.05 23.2
M 57.7 13.15
Q 57.7 13 57.8 13 57.9 13 57.95 13.15
L 58.95 16.35 58.1 19.05 59.65 19.05
Q 59.75 19.05 59.8 19.15
L 60.4 21.05
Q 60.4 21.1 60.35 21.15 60.35 21.2 60.25 21.2
L 57.45 21.2
Q 57.35 21.7 57.2 22.15 57.05 22.65 56.9 23.1 56.85 23.2 56.75 23.2
L 54.75 23.2
Q 54.7 23.2 54.65 23.15 54.6 23.1 54.65 23.05
L 57.7 13.15
M 72.85 11.95
Q 72.9 11.9 72.95 11.9
L 74.7 11.9
Q 74.8 11.9 74.8 12
L 74.8 23.05
Q 74.8 23.2 74.7 23.2
L 72.8 23.2
Q 72.65 23.2 72.65 23.05
L 72.65 15.7 72.2 16.35
Q 72.2 16.4 72.1 16.35
L 72.05 16.35 70.85 14.8
Q 70.8 14.7 70.85 14.65
L 72.85 11.95
M 65.7 12
Q 65.7 11.9 65.85 11.9
L 67.55 11.9
Q 67.6 11.9 67.65 11.95
L 71.5 17.05
Q 71.55 17.15 71.5 17.25
L 70.4 18.8
Q 70.35 18.85 70.3 18.85 70.2 18.85 70.2 18.8
L 65.7 12.85 65.7 12
M 65.95 14.6
L 67.9 17.15 67.9 23.05
Q 67.9 23.2 67.75 23.2
L 65.85 23.2
Q 65.7 23.2 65.7 23.05
L 65.7 14.7
Q 65.7 14.6 65.8 14.55 65.9 14.55 65.95 14.6
M 81.9 11.95
Q 82.75 11.95 83.45 12.3 84.15 12.6 84.65 13.15 85.1 13.65 85.35 14.3 85.6 14.95 85.6 15.6
L 85.6 19.55
Q 85.6 20.25 85.35 20.9 85.1 21.55 84.65 22.1 84.15 22.6 83.45 22.95 82.8 23.25 81.9 23.25
L 81.85 23.25
Q 81.7 23.25 81.7 23.15
L 81.7 21.35
Q 81.7 21.25 81.85 21.25
L 81.9 21.25
Q 82.2 21.25 82.5 21.1 82.75 21 83 20.8 83.2 20.55 83.35 20.25 83.5 19.95 83.5 19.6
L 83.5 15.6
Q 83.5 14.95 83.1 14.45 82.65 14 81.9 14
L 81.85 14
Q 81.7 14 81.7 13.9
L 81.7 12.05
Q 81.7 11.95 81.85 11.95
L 81.9 11.95
M 80.75 11.95
Q 80.9 11.95 80.9 12.05
L 80.9 13.9
Q 80.9 14 80.75 14
L 80.7 14
Q 80.3 14 80.05 14.15 79.75 14.3 79.5 14.5 79.3 14.75 79.2 15 79.1 15.3 79.1 15.6
L 79.1 19.6
Q 79.1 19.95 79.2 20.25 79.35 20.55 79.6 20.75 79.8 21 80.1 21.1 80.4 21.25 80.7 21.25
L 80.75 21.25
Q 80.9 21.25 80.9 21.35
L 80.9 23.15
Q 80.9 23.25 80.75 23.25
L 80.7 23.25
Q 79.85 23.25 79.15 22.95 78.45 22.6 78 22.1 77.5 21.55 77.25 20.9 77 20.25 77 19.55
L 77 15.6
Q 77 14.95 77.25 14.3 77.55 13.65 78 13.15 78.5 12.6 79.2 12.3 79.85 11.95 80.7 11.95
L 80.75 11.95
M 95.25 11.9
Q 95.4 11.9 95.4 12
L 95.4 13.95
Q 95.4 14.05 95.25 14.05
L 90.95 14.05
Q 90.85 14.05 90.85 13.95
L 90.85 12
Q 90.85 11.9 90.95 11.9
L 95.25 11.9
M 89.85 11.9
Q 90 11.9 90 12
L 90 23.05
Q 90 23.2 89.85 23.2
L 87.9 23.2
Q 87.75 23.2 87.75 23.05
L 87.75 12
Q 87.75 11.9 87.9 11.9
L 89.85 11.9
M 90.85 18.55
L 90.85 16.65
Q 90.85 16.5 90.95 16.5
L 94.2 16.5
Q 94.3 16.5 94.3 16.65
L 94.3 18.55
Q 94.3 18.65 94.2 18.65
L 90.95 18.65
Q 90.85 18.65 90.85 18.55
M 90.85 21.15
Q 90.85 21.05 90.95 21.05
L 95.25 21.05
Q 95.4 21.05 95.4 21.15
L 95.4 23.05
Q 95.4 23.2 95.25 23.2
L 90.95 23.2
Q 90.85 23.2 90.85 23.05
L 90.85 21.15
M 105.65 12
Q 105.65 11.9 105.75 11.9
L 107.2 11.9
Q 108.75 11.9 109.7 12.7 110.6 13.55 110.6 15.1 110.6 15.8 110.25 16.35 109.95 16.9 109.55 17.2 110.2 17.65 110.5 18.3 110.8 18.95 110.8 19.7 110.8 20.5 110.55 21.15 110.3 21.8 109.85 22.25 109.45 22.7 108.8 22.95 108.15 23.2 107.35 23.2
L 105.75 23.2
Q 105.65 23.2 105.65 23.05
L 105.65 21.3
Q 105.65 21.15 105.75 21.15
L 107.5 21.15
Q 108 21.15 108.4 20.75 108.75 20.35 108.75 19.8
L 108.75 19.7
Q 108.75 19.45 108.65 19.2 108.55 18.95 108.4 18.75 108.2 18.6 108 18.45 107.75 18.35 107.5 18.35
L 105.75 18.35
Q 105.65 18.35 105.65 18.2
L 105.65 16.4
Q 105.65 16.25 105.75 16.25
L 107.35 16.25
Q 107.9 16.25 108.2 15.95 108.5 15.65 108.5 15.2
L 108.5 15.05
Q 108.5 14.65 108.25 14.35 107.95 14 107.35 14
L 105.75 14
Q 105.65 14 105.65 13.9
L 105.65 12
M 102.6 12
Q 102.6 11.9 102.75 11.9
L 104.65 11.9
Q 104.8 11.9 104.8 12
L 104.8 23.05
Q 104.8 23.2 104.65 23.2
L 102.75 23.2
Q 102.6 23.2 102.6 23.05
L 102.6 12
M 118 11.85
Q 118.1 11.85 118.1 11.95
L 121.55 23.05
Q 121.6 23.2 121.45 23.2
L 119.4 23.2
Q 119.35 23.2 119.3 23.1
L 115.9 12
Q 115.9 11.95 115.9 11.9 115.95 11.85 116.05 11.85
L 118 11.85
M 115.35 13.15
L 116.35 16.35 115.5 19.05 117.05 19.05
Q 117.15 19.05 117.2 19.15
L 117.8 21.05
Q 117.8 21.1 117.75 21.15 117.75 21.2 117.65 21.2
L 114.85 21.2
Q 114.75 21.7 114.6 22.15 114.45 22.65 114.3 23.1 114.25 23.2 114.15 23.2
L 112.15 23.2
Q 112.1 23.2 112.05 23.15 112 23.1 112.05 23.05
L 115.1 13.15
Q 115.1 13 115.2 13 115.3 13 115.35 13.15
M 138 11.95
Q 138 12 137.95 12.1
L 132.6 18.35
Q 132.55 18.4 132.5 18.4 132.45 18.4 132.4 18.3
L 131.45 16.7
Q 131.45 16.6 131.5 16.55
L 135.45 11.95
Q 135.5 11.9 135.55 11.9
L 137.85 11.9
Q 137.95 11.9 138 11.95
M 124.65 11.9
Q 124.7 11.9 124.75 11.95
L 128.65 16.55
Q 128.7 16.6 128.7 16.7
L 127.75 18.3
Q 127.7 18.4 127.65 18.4 127.6 18.4 127.55 18.35
L 122.2 12.1
Q 122.15 12 122.2 11.95 122.2 11.9 122.3 11.9
L 124.65 11.9
M 131.05 11.9
Q 131.15 11.9 131.15 12
L 131.15 23.05
Q 131.15 23.2 131.05 23.2
L 129.1 23.2
Q 129 23.2 129 23.05
L 129 12
Q 129 11.9 129.1 11.9
L 131.05 11.9
M 125.6 17.65
Q 125.7 17.5 125.8 17.65
L 127.15 19.2
Q 127.25 19.25 127.15 19.35
L 124.85 23.15
Q 124.8 23.2 124.75 23.2
L 122.5 23.2
Q 122.4 23.2 122.35 23.15 122.35 23.1 122.35 23
L 125.6 17.65
M 134.35 17.65
Q 134.45 17.5 134.55 17.65
L 137.8 23
Q 137.85 23.1 137.8 23.15 137.75 23.2 137.7 23.2
L 135.45 23.2
Q 135.35 23.2 135.3 23.15
L 133 19.35
Q 132.9 19.25 133 19.2
L 134.35 17.65
M 145.45 12
Q 145.45 11.9 145.6 11.9
L 147.6 11.9
Q 147.7 11.9 147.7 12
L 147.7 23.05
Q 147.7 23.2 147.6 23.2
L 145.6 23.2
Q 145.45 23.2 145.45 23.05
L 145.45 18.7 144.1 18.7
Q 144 18.7 144 18.55
L 144 16.65
Q 144 16.5 144.1 16.5
L 145.45 16.5 145.45 12
M 143.05 16.5
Q 143.15 16.5 143.15 16.65
L 143.15 18.55
Q 143.15 18.7 143.05 18.7
L 141.55 18.7 141.55 23.05
Q 141.55 23.2 141.45 23.2
L 139.55 23.2
Q 139.4 23.2 139.4 23.05
L 139.4 12
Q 139.4 11.9 139.55 11.9
L 141.45 11.9
Q 141.55 11.9 141.55 12
L 141.55 16.5 143.05 16.5
M 153.65 11.95
Q 153.8 11.95 153.8 12.05
L 153.8 13.9
Q 153.8 14 153.65 14
L 153.6 14
Q 153.2 14 152.95 14.15 152.65 14.3 152.4 14.5 152.2 14.75 152.1 15 152 15.3 152 15.6
L 152 19.6
Q 152 19.95 152.1 20.25 152.25 20.55 152.5 20.75 152.7 21 153 21.1 153.3 21.25 153.6 21.25
L 153.65 21.25
Q 153.8 21.25 153.8 21.35
L 153.8 23.15
Q 153.8 23.25 153.65 23.25
L 153.6 23.25
Q 152.75 23.25 152.05 22.95 151.35 22.6 150.9 22.1 150.4 21.55 150.15 20.9 149.9 20.25 149.9 19.55
L 149.9 15.6
Q 149.9 14.95 150.15 14.3 150.45 13.65 150.9 13.15 151.4 12.6 152.1 12.3 152.75 11.95 153.6 11.95
L 153.65 11.95
M 154.8 11.95
Q 155.65 11.95 156.35 12.3 157.05 12.6 157.55 13.15 158 13.65 158.25 14.3 158.5 14.95 158.5 15.6
L 158.5 19.55
Q 158.5 20.25 158.25 20.9 158 21.55 157.55 22.1 157.05 22.6 156.35 22.95 155.7 23.25 154.8 23.25
L 154.75 23.25
Q 154.6 23.25 154.6 23.15
L 154.6 21.35
Q 154.6 21.25 154.75 21.25
L 154.8 21.25
Q 155.1 21.25 155.4 21.1 155.65 21 155.9 20.8 156.1 20.55 156.25 20.25 156.4 19.95 156.4 19.6
L 156.4 15.6
Q 156.4 14.95 156 14.45 155.55 14 154.8 14
L 154.75 14
Q 154.6 14 154.6 13.9
L 154.6 12.05
Q 154.6 11.95 154.75 11.95
L 154.8 11.95
M 168.15 11.9
Q 168.3 11.9 168.3 12
L 168.3 13.95
Q 168.3 14.05 168.15 14.05
L 163.85 14.05
Q 163.75 14.05 163.75 13.95
L 163.75 12
Q 163.75 11.9 163.85 11.9
L 168.15 11.9
M 162.75 11.9
Q 162.9 11.9 162.9 12
L 162.9 23.05
Q 162.9 23.2 162.75 23.2
L 160.8 23.2
Q 160.65 23.2 160.65 23.05
L 160.65 12
Q 160.65 11.9 160.8 11.9
L 162.75 11.9
M 167.2 16.65
L 167.2 18.55
Q 167.2 18.65 167.1 18.65
L 163.85 18.65
Q 163.75 18.65 163.75 18.55
L 163.75 16.65
Q 163.75 16.5 163.85 16.5
L 167.1 16.5
Q 167.2 16.5 167.2 16.65
M 163.75 23.05
L 163.75 21.15
Q 163.75 21.05 163.85 21.05
L 168.15 21.05
Q 168.3 21.05 168.3 21.15
L 168.3 23.05
Q 168.3 23.2 168.15 23.2
L 163.85 23.2
Q 163.75 23.2 163.75 23.05
M 71.85 31.45
Q 71.85 32.15 71.5 32.7 71.2 33.25 70.8 33.55 71.45 34 71.75 34.65 72.05 35.3 72.05 36.05 72.05 36.85 71.8 37.5 71.55 38.15 71.1 38.6 70.7 39.05 70.05 39.3 69.4 39.55 68.6 39.55
L 67 39.55
Q 66.9 39.55 66.9 39.4
L 66.9 37.65
Q 66.9 37.5 67 37.5
L 68.75 37.5
Q 69.25 37.5 69.65 37.1 70 36.7 70 36.15
L 70 36.05
Q 70 35.8 69.9 35.55 69.8 35.3 69.65 35.1 69.45 34.95 69.25 34.8 69 34.7 68.75 34.7
L 67 34.7
Q 66.9 34.7 66.9 34.55
L 66.9 32.75
Q 66.9 32.6 67 32.6
L 68.6 32.6
Q 69.15 32.6 69.45 32.3 69.75 32 69.75 31.55
L 69.75 31.4
Q 69.75 31 69.5 30.7 69.2 30.35 68.6 30.35
L 67 30.35
Q 66.9 30.35 66.9 30.25
L 66.9 28.35
Q 66.9 28.25 67 28.25
L 68.45 28.25
Q 70 28.25 70.95 29.05 71.85 29.9 71.85 31.45
M 65.9 28.25
Q 66.05 28.25 66.05 28.35
L 66.05 39.4
Q 66.05 39.55 65.9 39.55
L 64 39.55
Q 63.85 39.55 63.85 39.4
L 63.85 28.35
Q 63.85 28.25 64 28.25
L 65.9 28.25
M 87.65 28.25
Q 87.8 28.25 87.8 28.35
L 87.8 39.4
Q 87.8 39.55 87.65 39.55
L 85.7 39.55
Q 85.55 39.55 85.55 39.4
L 85.55 28.35
Q 85.55 28.25 85.7 28.25
L 87.65 28.25
M 81.55 29.2
Q 82 28.75 82.65 28.5 83.3 28.25 84.1 28.25
L 84.6 28.25
Q 84.7 28.25 84.7 28.35
L 84.7 30.25
Q 84.7 30.35 84.6 30.35
L 84.1 30.35
Q 83.7 30.35 83.45 30.5 83.2 30.6 83.05 30.8 82.85 31 82.8 31.25 82.75 31.5 82.75 31.8
L 82.75 35.95
Q 82.75 37.7 81.75 38.7 80.8 39.7 79.1 39.7
L 79 39.7
Q 78.9 39.7 78.9 39.55
L 78.9 37.75
Q 78.9 37.6 79 37.6
L 79.1 37.6
Q 79.7 37.6 80.15 37.15 80.6 36.65 80.6 35.75
L 80.6 31.75
Q 80.6 30.95 80.85 30.3 81.1 29.65 81.55 29.2
M 97.6 29.5
Q 98.05 30 98.3 30.65 98.55 31.3 98.55 31.95
L 98.55 35.9
Q 98.55 36.6 98.3 37.25 98.05 37.9 97.6 38.45 97.1 38.95 96.4 39.3 95.75 39.6 94.85 39.6
L 94.8 39.6
Q 94.65 39.6 94.65 39.5
L 94.65 37.7
Q 94.65 37.6 94.8 37.6
L 94.85 37.6
Q 95.15 37.6 95.45 37.45 95.7 37.35 95.95 37.15 96.15 36.9 96.3 36.6 96.45 36.3 96.45 35.95
L 96.45 31.95
Q 96.45 31.3 96.05 30.8 95.6 30.35 94.85 30.35
L 94.8 30.35
Q 94.65 30.35 94.65 30.25
L 94.65 28.4
Q 94.65 28.3 94.8 28.3
L 94.85 28.3
Q 95.7 28.3 96.4 28.65 97.1 28.95 97.6 29.5
M 93 30.5
Q 92.7 30.65 92.45 30.85 92.25 31.1 92.15 31.35 92.05 31.65 92.05 31.95
L 92.05 35.95
Q 92.05 36.3 92.15 36.6 92.3 36.9 92.55 37.1 92.75 37.35 93.05 37.45 93.35 37.6 93.65 37.6
L 93.7 37.6
Q 93.85 37.6 93.85 37.7
L 93.85 39.5
Q 93.85 39.6 93.7 39.6
L 93.65 39.6
Q 92.8 39.6 92.1 39.3 91.4 38.95 90.95 38.45 90.45 37.9 90.2 37.25 89.95 36.6 89.95 35.9
L 89.95 31.95
Q 89.95 31.3 90.2 30.65 90.5 30 90.95 29.5 91.45 28.95 92.15 28.65 92.8 28.3 93.65 28.3
L 93.7 28.3
Q 93.85 28.3 93.85 28.4
L 93.85 30.25
Q 93.85 30.35 93.7 30.35
L 93.65 30.35
Q 93.25 30.35 93 30.5
M 100.65 28.35
Q 100.65 28.25 100.75 28.25
L 102.75 28.25
Q 102.9 28.25 102.9 28.35
L 102.9 39.4
Q 102.9 39.55 102.75 39.55
L 100.75 39.55
Q 100.65 39.55 100.65 39.4
L 100.65 28.35
M 118 28.25
Q 118.15 28.25 118.15 28.35
L 118.15 29.7 111.25 39.5
Q 111.25 39.55 111.15 39.55
L 109.45 39.55
Q 109.35 39.55 109.35 39.45
L 109.35 38.3 116.3 28.3
Q 116.3 28.25 116.35 28.25
L 118 28.25
M 117.9 31.5
Q 118 31.4 118.05 31.45 118.15 31.45 118.15 31.6
L 118.15 39.45
Q 118.15 39.55 118 39.55
L 116.1 39.55
Q 116 39.55 116 39.45
L 116 34.25 117.9 31.5
M 111.5 28.35
L 111.5 33.75 109.55 36.5
Q 109.5 36.55 109.4 36.55 109.35 36.5 109.35 36.4
L 109.35 28.35
Q 109.35 28.25 109.45 28.25
L 111.35 28.25
Q 111.5 28.25 111.5 28.35
M 108.3 28.35
L 108.3 30.3
Q 108.3 30.4 108.15 30.4
L 103.85 30.4
Q 103.75 30.4 103.75 30.3
L 103.75 28.35
Q 103.75 28.25 103.85 28.25
L 108.15 28.25
Q 108.3 28.25 108.3 28.35
M 126.65 28.65
Q 127.35 28.95 127.85 29.5 128.35 30 128.6 30.65 128.9 31.3 128.9 31.95
L 128.9 32.1
Q 128.9 32.2 128.8 32.2
L 126.95 32.2
Q 126.8 32.2 126.8 32.1
L 126.8 31.95
Q 126.8 31.6 126.65 31.35 126.5 31.05 126.25 30.85 126 30.6 125.75 30.5 125.45 30.35 125.2 30.35
L 125.15 30.35
Q 125 30.35 125 30.25
L 125 28.4
Q 125 28.3 125.15 28.3
L 125.2 28.3
Q 126 28.3 126.65 28.65
M 122.55 28.65
Q 123.25 28.3 124 28.3
L 124.05 28.3
Q 124.2 28.3 124.2 28.4
L 124.2 30.25
Q 124.2 30.35 124.05 30.35
L 124 30.35
Q 123.75 30.35 123.45 30.5 123.2 30.65 122.95 30.85 122.7 31.1 122.55 31.35 122.4 31.65 122.4 31.95
L 122.4 35.95
Q 122.4 36.3 122.55 36.6 122.7 36.85 122.95 37.1 123.2 37.3 123.45 37.4 123.75 37.5 124 37.5
L 124.05 37.5
Q 124.2 37.5 124.2 37.65
L 124.2 39.5
Q 124.2 39.6 124.05 39.6
L 124 39.6
Q 123.2 39.6 122.55 39.3 121.85 38.95 121.35 38.45 120.85 37.9 120.6 37.25 120.3 36.6 120.3 35.9
L 120.3 31.95
Q 120.3 31.3 120.6 30.65 120.85 30 121.35 29.5 121.85 28.95 122.55 28.65
M 126.8 35.8
Q 126.8 35.65 126.95 35.65
L 128.8 35.65
Q 128.9 35.65 128.9 35.8
L 128.9 35.9
Q 128.9 36.6 128.6 37.25 128.35 37.9 127.85 38.45 127.35 38.95 126.65 39.3 126 39.6 125.2 39.6
L 125.15 39.6
Q 125 39.6 125 39.5
L 125 37.65
Q 125 37.5 125.15 37.5
L 125.2 37.5
Q 125.45 37.5 125.75 37.4 126 37.3 126.25 37.1 126.5 36.9 126.65 36.6 126.8 36.3 126.8 35.95
L 126.8 35.8
M 168.3 30.3
Q 168.3 30.4 168.15 30.4
L 163.85 30.4
Q 163.75 30.4 163.75 30.3
L 163.75 28.35
Q 163.75 28.25 163.85 28.25
L 168.15 28.25
Q 168.3 28.25 168.3 28.35
L 168.3 30.3
M 162.75 28.25
Q 162.9 28.25 162.9 28.35
L 162.9 39.4
Q 162.9 39.55 162.75 39.55
L 160.8 39.55
Q 160.65 39.55 160.65 39.4
L 160.65 28.35
Q 160.65 28.25 160.8 28.25
L 162.75 28.25
M 163.75 33
Q 163.75 32.85 163.85 32.85
L 167.1 32.85
Q 167.2 32.85 167.2 33
L 167.2 34.9
Q 167.2 35 167.1 35
L 163.85 35
Q 163.75 35 163.75 34.9
L 163.75 33
M 168.15 37.4
Q 168.3 37.4 168.3 37.5
L 168.3 39.4
Q 168.3 39.55 168.15 39.55
L 163.85 39.55
Q 163.75 39.55 163.75 39.4
L 163.75 37.5
Q 163.75 37.4 163.85 37.4
L 168.15 37.4
M 139 28.35
Q 139 28.25 139.1 28.25
L 141 28.25
Q 141.15 28.25 141.15 28.35
L 141.15 33.75 139.2 36.5
Q 139.15 36.55 139.05 36.55 139 36.5 139 36.4
L 139 28.35
M 137.55 28.25
Q 137.7 28.25 137.7 28.35
L 137.7 30.3
Q 137.7 30.4 137.55 30.4
L 130.25 30.4
Q 130.15 30.4 130.15 30.3
L 130.15 28.35
Q 130.15 28.25 130.25 28.25
L 137.55 28.25
M 132.85 31.35
Q 132.85 31.25 133 31.25
L 134.9 31.25
Q 135 31.25 135 31.35
L 135 39.4
Q 135 39.55 134.9 39.55
L 133 39.55
Q 132.85 39.55 132.85 39.4
L 132.85 31.35
M 139.1 39.55
Q 139 39.55 139 39.45
L 139 38.3 145.95 28.3
Q 145.95 28.25 146 28.25
L 147.65 28.25
Q 147.8 28.25 147.8 28.35
L 147.8 29.7 140.9 39.5
Q 140.9 39.55 140.8 39.55
L 139.1 39.55
M 159.1 28.25
Q 159.2 28.25 159.25 28.3 159.3 28.4 159.2 28.45
L 153.65 34.6
Q 153.55 34.7 153.45 34.6
L 152.4 33.1
Q 152.35 33 152.4 32.9
L 156.6 28.3
Q 156.65 28.25 156.7 28.25
L 159.1 28.25
M 152 28.25
Q 152.1 28.25 152.1 28.35
L 152.1 39.4
Q 152.1 39.55 152 39.55
L 150.05 39.55
Q 149.95 39.55 149.95 39.4
L 149.95 28.35
Q 149.95 28.25 150.05 28.25
L 152 28.25
M 154.1 35.5
Q 154.05 35.45 154.1 35.35
L 155.4 33.95
Q 155.55 33.8 155.6 33.95
L 159.2 39.35
Q 159.25 39.45 159.25 39.5 159.2 39.55 159.1 39.55
L 156.85 39.55
Q 156.75 39.55 156.7 39.5
L 154.1 35.5
M 145.65 34.25
L 147.55 31.5
Q 147.65 31.4 147.7 31.45 147.8 31.45 147.8 31.6
L 147.8 39.45
Q 147.8 39.55 147.65 39.55
L 145.75 39.55
Q 145.65 39.55 145.65 39.45
L 145.65 34.25 Z"/>

<path fill="#FFFFFF" stroke="none" d="
M 147.55 31.5
L 145.65 34.25 145.65 39.45
Q 145.65 39.55 145.75 39.55
L 147.65 39.55
Q 147.8 39.55 147.8 39.45
L 147.8 31.6
Q 147.8 31.45 147.7 31.45 147.65 31.4 147.55 31.5
M 154.1 35.35
Q 154.05 35.45 154.1 35.5
L 156.7 39.5
Q 156.75 39.55 156.85 39.55
L 159.1 39.55
Q 159.2 39.55 159.25 39.5 159.25 39.45 159.2 39.35
L 155.6 33.95
Q 155.55 33.8 155.4 33.95
L 154.1 35.35
M 152.1 28.35
Q 152.1 28.25 152 28.25
L 150.05 28.25
Q 149.95 28.25 149.95 28.35
L 149.95 39.4
Q 149.95 39.55 150.05 39.55
L 152 39.55
Q 152.1 39.55 152.1 39.4
L 152.1 28.35
M 159.25 28.3
Q 159.2 28.25 159.1 28.25
L 156.7 28.25
Q 156.65 28.25 156.6 28.3
L 152.4 32.9
Q 152.35 33 152.4 33.1
L 153.45 34.6
Q 153.55 34.7 153.65 34.6
L 159.2 28.45
Q 159.3 28.4 159.25 28.3
M 139 39.45
Q 139 39.55 139.1 39.55
L 140.8 39.55
Q 140.9 39.55 140.9 39.5
L 147.8 29.7 147.8 28.35
Q 147.8 28.25 147.65 28.25
L 146 28.25
Q 145.95 28.25 145.95 28.3
L 139 38.3 139 39.45
M 133 31.25
Q 132.85 31.25 132.85 31.35
L 132.85 39.4
Q 132.85 39.55 133 39.55
L 134.9 39.55
Q 135 39.55 135 39.4
L 135 31.35
Q 135 31.25 134.9 31.25
L 133 31.25
M 137.7 28.35
Q 137.7 28.25 137.55 28.25
L 130.25 28.25
Q 130.15 28.25 130.15 28.35
L 130.15 30.3
Q 130.15 30.4 130.25 30.4
L 137.55 30.4
Q 137.7 30.4 137.7 30.3
L 137.7 28.35
M 139.1 28.25
Q 139 28.25 139 28.35
L 139 36.4
Q 139 36.5 139.05 36.55 139.15 36.55 139.2 36.5
L 141.15 33.75 141.15 28.35
Q 141.15 28.25 141 28.25
L 139.1 28.25
M 168.3 37.5
Q 168.3 37.4 168.15 37.4
L 163.85 37.4
Q 163.75 37.4 163.75 37.5
L 163.75 39.4
Q 163.75 39.55 163.85 39.55
L 168.15 39.55
Q 168.3 39.55 168.3 39.4
L 168.3 37.5
M 163.85 32.85
Q 163.75 32.85 163.75 33
L 163.75 34.9
Q 163.75 35 163.85 35
L 167.1 35
Q 167.2 35 167.2 34.9
L 167.2 33
Q 167.2 32.85 167.1 32.85
L 163.85 32.85
M 162.9 28.35
Q 162.9 28.25 162.75 28.25
L 160.8 28.25
Q 160.65 28.25 160.65 28.35
L 160.65 39.4
Q 160.65 39.55 160.8 39.55
L 162.75 39.55
Q 162.9 39.55 162.9 39.4
L 162.9 28.35
M 168.15 30.4
Q 168.3 30.4 168.3 30.3
L 168.3 28.35
Q 168.3 28.25 168.15 28.25
L 163.85 28.25
Q 163.75 28.25 163.75 28.35
L 163.75 30.3
Q 163.75 30.4 163.85 30.4
L 168.15 30.4
M 126.95 35.65
Q 126.8 35.65 126.8 35.8
L 126.8 35.95
Q 126.8 36.3 126.65 36.6 126.5 36.9 126.25 37.1 126 37.3 125.75 37.4 125.45 37.5 125.2 37.5
L 125.15 37.5
Q 125 37.5 125 37.65
L 125 39.5
Q 125 39.6 125.15 39.6
L 125.2 39.6
Q 126 39.6 126.65 39.3 127.35 38.95 127.85 38.45 128.35 37.9 128.6 37.25 128.9 36.6 128.9 35.9
L 128.9 35.8
Q 128.9 35.65 128.8 35.65
L 126.95 35.65
M 124 28.3
Q 123.25 28.3 122.55 28.65 121.85 28.95 121.35 29.5 120.85 30 120.6 30.65 120.3 31.3 120.3 31.95
L 120.3 35.9
Q 120.3 36.6 120.6 37.25 120.85 37.9 121.35 38.45 121.85 38.95 122.55 39.3 123.2 39.6 124 39.6
L 124.05 39.6
Q 124.2 39.6 124.2 39.5
L 124.2 37.65
Q 124.2 37.5 124.05 37.5
L 124 37.5
Q 123.75 37.5 123.45 37.4 123.2 37.3 122.95 37.1 122.7 36.85 122.55 36.6 122.4 36.3 122.4 35.95
L 122.4 31.95
Q 122.4 31.65 122.55 31.35 122.7 31.1 122.95 30.85 123.2 30.65 123.45 30.5 123.75 30.35 124 30.35
L 124.05 30.35
Q 124.2 30.35 124.2 30.25
L 124.2 28.4
Q 124.2 28.3 124.05 28.3
L 124 28.3
M 127.85 29.5
Q 127.35 28.95 126.65 28.65 126 28.3 125.2 28.3
L 125.15 28.3
Q 125 28.3 125 28.4
L 125 30.25
Q 125 30.35 125.15 30.35
L 125.2 30.35
Q 125.45 30.35 125.75 30.5 126 30.6 126.25 30.85 126.5 31.05 126.65 31.35 126.8 31.6 126.8 31.95
L 126.8 32.1
Q 126.8 32.2 126.95 32.2
L 128.8 32.2
Q 128.9 32.2 128.9 32.1
L 128.9 31.95
Q 128.9 31.3 128.6 30.65 128.35 30 127.85 29.5
M 108.3 30.3
L 108.3 28.35
Q 108.3 28.25 108.15 28.25
L 103.85 28.25
Q 103.75 28.25 103.75 28.35
L 103.75 30.3
Q 103.75 30.4 103.85 30.4
L 108.15 30.4
Q 108.3 30.4 108.3 30.3
M 111.5 33.75
L 111.5 28.35
Q 111.5 28.25 111.35 28.25
L 109.45 28.25
Q 109.35 28.25 109.35 28.35
L 109.35 36.4
Q 109.35 36.5 109.4 36.55 109.5 36.55 109.55 36.5
L 111.5 33.75
M 118.05 31.45
Q 118 31.4 117.9 31.5
L 116 34.25 116 39.45
Q 116 39.55 116.1 39.55
L 118 39.55
Q 118.15 39.55 118.15 39.45
L 118.15 31.6
Q 118.15 31.45 118.05 31.45
M 118.15 28.35
Q 118.15 28.25 118 28.25
L 116.35 28.25
Q 116.3 28.25 116.3 28.3
L 109.35 38.3 109.35 39.45
Q 109.35 39.55 109.45 39.55
L 111.15 39.55
Q 111.25 39.55 111.25 39.5
L 118.15 29.7 118.15 28.35
M 100.75 28.25
Q 100.65 28.25 100.65 28.35
L 100.65 39.4
Q 100.65 39.55 100.75 39.55
L 102.75 39.55
Q 102.9 39.55 102.9 39.4
L 102.9 28.35
Q 102.9 28.25 102.75 28.25
L 100.75 28.25
M 92.45 30.85
Q 92.7 30.65 93 30.5 93.25 30.35 93.65 30.35
L 93.7 30.35
Q 93.85 30.35 93.85 30.25
L 93.85 28.4
Q 93.85 28.3 93.7 28.3
L 93.65 28.3
Q 92.8 28.3 92.15 28.65 91.45 28.95 90.95 29.5 90.5 30 90.2 30.65 89.95 31.3 89.95 31.95
L 89.95 35.9
Q 89.95 36.6 90.2 37.25 90.45 37.9 90.95 38.45 91.4 38.95 92.1 39.3 92.8 39.6 93.65 39.6
L 93.7 39.6
Q 93.85 39.6 93.85 39.5
L 93.85 37.7
Q 93.85 37.6 93.7 37.6
L 93.65 37.6
Q 93.35 37.6 93.05 37.45 92.75 37.35 92.55 37.1 92.3 36.9 92.15 36.6 92.05 36.3 92.05 35.95
L 92.05 31.95
Q 92.05 31.65 92.15 31.35 92.25 31.1 92.45 30.85
M 98.3 30.65
Q 98.05 30 97.6 29.5 97.1 28.95 96.4 28.65 95.7 28.3 94.85 28.3
L 94.8 28.3
Q 94.65 28.3 94.65 28.4
L 94.65 30.25
Q 94.65 30.35 94.8 30.35
L 94.85 30.35
Q 95.6 30.35 96.05 30.8 96.45 31.3 96.45 31.95
L 96.45 35.95
Q 96.45 36.3 96.3 36.6 96.15 36.9 95.95 37.15 95.7 37.35 95.45 37.45 95.15 37.6 94.85 37.6
L 94.8 37.6
Q 94.65 37.6 94.65 37.7
L 94.65 39.5
Q 94.65 39.6 94.8 39.6
L 94.85 39.6
Q 95.75 39.6 96.4 39.3 97.1 38.95 97.6 38.45 98.05 37.9 98.3 37.25 98.55 36.6 98.55 35.9
L 98.55 31.95
Q 98.55 31.3 98.3 30.65
M 82.65 28.5
Q 82 28.75 81.55 29.2 81.1 29.65 80.85 30.3 80.6 30.95 80.6 31.75
L 80.6 35.75
Q 80.6 36.65 80.15 37.15 79.7 37.6 79.1 37.6
L 79 37.6
Q 78.9 37.6 78.9 37.75
L 78.9 39.55
Q 78.9 39.7 79 39.7
L 79.1 39.7
Q 80.8 39.7 81.75 38.7 82.75 37.7 82.75 35.95
L 82.75 31.8
Q 82.75 31.5 82.8 31.25 82.85 31 83.05 30.8 83.2 30.6 83.45 30.5 83.7 30.35 84.1 30.35
L 84.6 30.35
Q 84.7 30.35 84.7 30.25
L 84.7 28.35
Q 84.7 28.25 84.6 28.25
L 84.1 28.25
Q 83.3 28.25 82.65 28.5
M 87.8 28.35
Q 87.8 28.25 87.65 28.25
L 85.7 28.25
Q 85.55 28.25 85.55 28.35
L 85.55 39.4
Q 85.55 39.55 85.7 39.55
L 87.65 39.55
Q 87.8 39.55 87.8 39.4
L 87.8 28.35
M 66.05 28.35
Q 66.05 28.25 65.9 28.25
L 64 28.25
Q 63.85 28.25 63.85 28.35
L 63.85 39.4
Q 63.85 39.55 64 39.55
L 65.9 39.55
Q 66.05 39.55 66.05 39.4
L 66.05 28.35
M 71.5 32.7
Q 71.85 32.15 71.85 31.45 71.85 29.9 70.95 29.05 70 28.25 68.45 28.25
L 67 28.25
Q 66.9 28.25 66.9 28.35
L 66.9 30.25
Q 66.9 30.35 67 30.35
L 68.6 30.35
Q 69.2 30.35 69.5 30.7 69.75 31 69.75 31.4
L 69.75 31.55
Q 69.75 32 69.45 32.3 69.15 32.6 68.6 32.6
L 67 32.6
Q 66.9 32.6 66.9 32.75
L 66.9 34.55
Q 66.9 34.7 67 34.7
L 68.75 34.7
Q 69 34.7 69.25 34.8 69.45 34.95 69.65 35.1 69.8 35.3 69.9 35.55 70 35.8 70 36.05
L 70 36.15
Q 70 36.7 69.65 37.1 69.25 37.5 68.75 37.5
L 67 37.5
Q 66.9 37.5 66.9 37.65
L 66.9 39.4
Q 66.9 39.55 67 39.55
L 68.6 39.55
Q 69.4 39.55 70.05 39.3 70.7 39.05 71.1 38.6 71.55 38.15 71.8 37.5 72.05 36.85 72.05 36.05 72.05 35.3 71.75 34.65 71.45 34 70.8 33.55 71.2 33.25 71.5 32.7
M 163.75 21.15
L 163.75 23.05
Q 163.75 23.2 163.85 23.2
L 168.15 23.2
Q 168.3 23.2 168.3 23.05
L 168.3 21.15
Q 168.3 21.05 168.15 21.05
L 163.85 21.05
Q 163.75 21.05 163.75 21.15
M 167.2 18.55
L 167.2 16.65
Q 167.2 16.5 167.1 16.5
L 163.85 16.5
Q 163.75 16.5 163.75 16.65
L 163.75 18.55
Q 163.75 18.65 163.85 18.65
L 167.1 18.65
Q 167.2 18.65 167.2 18.55
M 162.9 12
Q 162.9 11.9 162.75 11.9
L 160.8 11.9
Q 160.65 11.9 160.65 12
L 160.65 23.05
Q 160.65 23.2 160.8 23.2
L 162.75 23.2
Q 162.9 23.2 162.9 23.05
L 162.9 12
M 168.3 12
Q 168.3 11.9 168.15 11.9
L 163.85 11.9
Q 163.75 11.9 163.75 12
L 163.75 13.95
Q 163.75 14.05 163.85 14.05
L 168.15 14.05
Q 168.3 14.05 168.3 13.95
L 168.3 12
M 156.35 12.3
Q 155.65 11.95 154.8 11.95
L 154.75 11.95
Q 154.6 11.95 154.6 12.05
L 154.6 13.9
Q 154.6 14 154.75 14
L 154.8 14
Q 155.55 14 156 14.45 156.4 14.95 156.4 15.6
L 156.4 19.6
Q 156.4 19.95 156.25 20.25 156.1 20.55 155.9 20.8 155.65 21 155.4 21.1 155.1 21.25 154.8 21.25
L 154.75 21.25
Q 154.6 21.25 154.6 21.35
L 154.6 23.15
Q 154.6 23.25 154.75 23.25
L 154.8 23.25
Q 155.7 23.25 156.35 22.95 157.05 22.6 157.55 22.1 158 21.55 158.25 20.9 158.5 20.25 158.5 19.55
L 158.5 15.6
Q 158.5 14.95 158.25 14.3 158 13.65 157.55 13.15 157.05 12.6 156.35 12.3
M 153.8 12.05
Q 153.8 11.95 153.65 11.95
L 153.6 11.95
Q 152.75 11.95 152.1 12.3 151.4 12.6 150.9 13.15 150.45 13.65 150.15 14.3 149.9 14.95 149.9 15.6
L 149.9 19.55
Q 149.9 20.25 150.15 20.9 150.4 21.55 150.9 22.1 151.35 22.6 152.05 22.95 152.75 23.25 153.6 23.25
L 153.65 23.25
Q 153.8 23.25 153.8 23.15
L 153.8 21.35
Q 153.8 21.25 153.65 21.25
L 153.6 21.25
Q 153.3 21.25 153 21.1 152.7 21 152.5 20.75 152.25 20.55 152.1 20.25 152 19.95 152 19.6
L 152 15.6
Q 152 15.3 152.1 15 152.2 14.75 152.4 14.5 152.65 14.3 152.95 14.15 153.2 14 153.6 14
L 153.65 14
Q 153.8 14 153.8 13.9
L 153.8 12.05
M 143.15 16.65
Q 143.15 16.5 143.05 16.5
L 141.55 16.5 141.55 12
Q 141.55 11.9 141.45 11.9
L 139.55 11.9
Q 139.4 11.9 139.4 12
L 139.4 23.05
Q 139.4 23.2 139.55 23.2
L 141.45 23.2
Q 141.55 23.2 141.55 23.05
L 141.55 18.7 143.05 18.7
Q 143.15 18.7 143.15 18.55
L 143.15 16.65
M 145.6 11.9
Q 145.45 11.9 145.45 12
L 145.45 16.5 144.1 16.5
Q 144 16.5 144 16.65
L 144 18.55
Q 144 18.7 144.1 18.7
L 145.45 18.7 145.45 23.05
Q 145.45 23.2 145.6 23.2
L 147.6 23.2
Q 147.7 23.2 147.7 23.05
L 147.7 12
Q 147.7 11.9 147.6 11.9
L 145.6 11.9
M 134.55 17.65
Q 134.45 17.5 134.35 17.65
L 133 19.2
Q 132.9 19.25 133 19.35
L 135.3 23.15
Q 135.35 23.2 135.45 23.2
L 137.7 23.2
Q 137.75 23.2 137.8 23.15 137.85 23.1 137.8 23
L 134.55 17.65
M 125.8 17.65
Q 125.7 17.5 125.6 17.65
L 122.35 23
Q 122.35 23.1 122.35 23.15 122.4 23.2 122.5 23.2
L 124.75 23.2
Q 124.8 23.2 124.85 23.15
L 127.15 19.35
Q 127.25 19.25 127.15 19.2
L 125.8 17.65
M 131.15 12
Q 131.15 11.9 131.05 11.9
L 129.1 11.9
Q 129 11.9 129 12
L 129 23.05
Q 129 23.2 129.1 23.2
L 131.05 23.2
Q 131.15 23.2 131.15 23.05
L 131.15 12
M 124.75 11.95
Q 124.7 11.9 124.65 11.9
L 122.3 11.9
Q 122.2 11.9 122.2 11.95 122.15 12 122.2 12.1
L 127.55 18.35
Q 127.6 18.4 127.65 18.4 127.7 18.4 127.75 18.3
L 128.7 16.7
Q 128.7 16.6 128.65 16.55
L 124.75 11.95
M 137.95 12.1
Q 138 12 138 11.95 137.95 11.9 137.85 11.9
L 135.55 11.9
Q 135.5 11.9 135.45 11.95
L 131.5 16.55
Q 131.45 16.6 131.45 16.7
L 132.4 18.3
Q 132.45 18.4 132.5 18.4 132.55 18.4 132.6 18.35
L 137.95 12.1
M 116.35 16.35
L 115.35 13.15
Q 115.3 13 115.2 13 115.1 13 115.1 13.15
L 112.05 23.05
Q 112 23.1 112.05 23.15 112.1 23.2 112.15 23.2
L 114.15 23.2
Q 114.25 23.2 114.3 23.1 114.45 22.65 114.6 22.15 114.75 21.7 114.85 21.2
L 117.65 21.2
Q 117.75 21.2 117.75 21.15 117.8 21.1 117.8 21.05
L 117.2 19.15
Q 117.15 19.05 117.05 19.05
L 115.5 19.05 116.35 16.35
M 118.1 11.95
Q 118.1 11.85 118 11.85
L 116.05 11.85
Q 115.95 11.85 115.9 11.9 115.9 11.95 115.9 12
L 119.3 23.1
Q 119.35 23.2 119.4 23.2
L 121.45 23.2
Q 121.6 23.2 121.55 23.05
L 118.1 11.95
M 102.75 11.9
Q 102.6 11.9 102.6 12
L 102.6 23.05
Q 102.6 23.2 102.75 23.2
L 104.65 23.2
Q 104.8 23.2 104.8 23.05
L 104.8 12
Q 104.8 11.9 104.65 11.9
L 102.75 11.9
M 105.75 11.9
Q 105.65 11.9 105.65 12
L 105.65 13.9
Q 105.65 14 105.75 14
L 107.35 14
Q 107.95 14 108.25 14.35 108.5 14.65 108.5 15.05
L 108.5 15.2
Q 108.5 15.65 108.2 15.95 107.9 16.25 107.35 16.25
L 105.75 16.25
Q 105.65 16.25 105.65 16.4
L 105.65 18.2
Q 105.65 18.35 105.75 18.35
L 107.5 18.35
Q 107.75 18.35 108 18.45 108.2 18.6 108.4 18.75 108.55 18.95 108.65 19.2 108.75 19.45 108.75 19.7
L 108.75 19.8
Q 108.75 20.35 108.4 20.75 108 21.15 107.5 21.15
L 105.75 21.15
Q 105.65 21.15 105.65 21.3
L 105.65 23.05
Q 105.65 23.2 105.75 23.2
L 107.35 23.2
Q 108.15 23.2 108.8 22.95 109.45 22.7 109.85 22.25 110.3 21.8 110.55 21.15 110.8 20.5 110.8 19.7 110.8 18.95 110.5 18.3 110.2 17.65 109.55 17.2 109.95 16.9 110.25 16.35 110.6 15.8 110.6 15.1 110.6 13.55 109.7 12.7 108.75 11.9 107.2 11.9
L 105.75 11.9
M 90.95 21.05
Q 90.85 21.05 90.85 21.15
L 90.85 23.05
Q 90.85 23.2 90.95 23.2
L 95.25 23.2
Q 95.4 23.2 95.4 23.05
L 95.4 21.15
Q 95.4 21.05 95.25 21.05
L 90.95 21.05
M 90.85 16.65
L 90.85 18.55
Q 90.85 18.65 90.95 18.65
L 94.2 18.65
Q 94.3 18.65 94.3 18.55
L 94.3 16.65
Q 94.3 16.5 94.2 16.5
L 90.95 16.5
Q 90.85 16.5 90.85 16.65
M 90 12
Q 90 11.9 89.85 11.9
L 87.9 11.9
Q 87.75 11.9 87.75 12
L 87.75 23.05
Q 87.75 23.2 87.9 23.2
L 89.85 23.2
Q 90 23.2 90 23.05
L 90 12
M 95.4 12
Q 95.4 11.9 95.25 11.9
L 90.95 11.9
Q 90.85 11.9 90.85 12
L 90.85 13.95
Q 90.85 14.05 90.95 14.05
L 95.25 14.05
Q 95.4 14.05 95.4 13.95
L 95.4 12
M 80.9 12.05
Q 80.9 11.95 80.75 11.95
L 80.7 11.95
Q 79.85 11.95 79.2 12.3 78.5 12.6 78 13.15 77.55 13.65 77.25 14.3 77 14.95 77 15.6
L 77 19.55
Q 77 20.25 77.25 20.9 77.5 21.55 78 22.1 78.45 22.6 79.15 22.95 79.85 23.25 80.7 23.25
L 80.75 23.25
Q 80.9 23.25 80.9 23.15
L 80.9 21.35
Q 80.9 21.25 80.75 21.25
L 80.7 21.25
Q 80.4 21.25 80.1 21.1 79.8 21 79.6 20.75 79.35 20.55 79.2 20.25 79.1 19.95 79.1 19.6
L 79.1 15.6
Q 79.1 15.3 79.2 15 79.3 14.75 79.5 14.5 79.75 14.3 80.05 14.15 80.3 14 80.7 14
L 80.75 14
Q 80.9 14 80.9 13.9
L 80.9 12.05
M 83.45 12.3
Q 82.75 11.95 81.9 11.95
L 81.85 11.95
Q 81.7 11.95 81.7 12.05
L 81.7 13.9
Q 81.7 14 81.85 14
L 81.9 14
Q 82.65 14 83.1 14.45 83.5 14.95 83.5 15.6
L 83.5 19.6
Q 83.5 19.95 83.35 20.25 83.2 20.55 83 20.8 82.75 21 82.5 21.1 82.2 21.25 81.9 21.25
L 81.85 21.25
Q 81.7 21.25 81.7 21.35
L 81.7 23.15
Q 81.7 23.25 81.85 23.25
L 81.9 23.25
Q 82.8 23.25 83.45 22.95 84.15 22.6 84.65 22.1 85.1 21.55 85.35 20.9 85.6 20.25 85.6 19.55
L 85.6 15.6
Q 85.6 14.95 85.35 14.3 85.1 13.65 84.65 13.15 84.15 12.6 83.45 12.3
M 67.9 17.15
L 65.95 14.6
Q 65.9 14.55 65.8 14.55 65.7 14.6 65.7 14.7
L 65.7 23.05
Q 65.7 23.2 65.85 23.2
L 67.75 23.2
Q 67.9 23.2 67.9 23.05
L 67.9 17.15
M 65.85 11.9
Q 65.7 11.9 65.7 12
L 65.7 12.85 70.2 18.8
Q 70.2 18.85 70.3 18.85 70.35 18.85 70.4 18.8
L 71.5 17.25
Q 71.55 17.15 71.5 17.05
L 67.65 11.95
Q 67.6 11.9 67.55 11.9
L 65.85 11.9
M 72.95 11.9
Q 72.9 11.9 72.85 11.95
L 70.85 14.65
Q 70.8 14.7 70.85 14.8
L 72.05 16.35 72.1 16.35
Q 72.2 16.4 72.2 16.35
L 72.65 15.7 72.65 23.05
Q 72.65 23.2 72.8 23.2
L 74.7 23.2
Q 74.8 23.2 74.8 23.05
L 74.8 12
Q 74.8 11.9 74.7 11.9
L 72.95 11.9
M 57.8 13
Q 57.7 13 57.7 13.15
L 54.65 23.05
Q 54.6 23.1 54.65 23.15 54.7 23.2 54.75 23.2
L 56.75 23.2
Q 56.85 23.2 56.9 23.1 57.05 22.65 57.2 22.15 57.35 21.7 57.45 21.2
L 60.25 21.2
Q 60.35 21.2 60.35 21.15 60.4 21.1 60.4 21.05
L 59.8 19.15
Q 59.75 19.05 59.65 19.05
L 58.1 19.05 58.95 16.35 57.95 13.15
Q 57.9 13 57.8 13
M 62 23.2
L 64.05 23.2
Q 64.2 23.2 64.15 23.05
L 60.7 11.95
Q 60.7 11.85 60.6 11.85
L 58.65 11.85
Q 58.55 11.85 58.5 11.9 58.5 11.95 58.5 12
L 61.9 23.1
Q 61.95 23.2 62 23.2
M 50.3 21.05
Q 50 21.15 49.75 21.15
L 49.7 21.15
Q 49.55 21.15 49.55 21.3
L 49.55 23.15
Q 49.55 23.25 49.7 23.25
L 49.75 23.25
Q 50.55 23.25 51.2 22.95 51.9 22.6 52.4 22.1 52.9 21.55 53.15 20.9 53.45 20.25 53.45 19.55
L 53.45 19.45
Q 53.45 19.3 53.35 19.3
L 51.5 19.3
Q 51.35 19.3 51.35 19.45
L 51.35 19.6
Q 51.35 19.95 51.2 20.25 51.05 20.55 50.8 20.75 50.55 20.95 50.3 21.05
M 48.75 12.05
Q 48.75 11.95 48.6 11.95
L 48.55 11.95
Q 47.8 11.95 47.1 12.3 46.4 12.6 45.9 13.15 45.4 13.65 45.15 14.3 44.85 14.95 44.85 15.6
L 44.85 19.55
Q 44.85 20.25 45.15 20.9 45.4 21.55 45.9 22.1 46.4 22.6 47.1 22.95 47.75 23.25 48.55 23.25
L 48.6 23.25
Q 48.75 23.25 48.75 23.15
L 48.75 21.3
Q 48.75 21.15 48.6 21.15
L 48.55 21.15
Q 48.3 21.15 48 21.05 47.75 20.95 47.5 20.75 47.25 20.5 47.1 20.25 46.95 19.95 46.95 19.6
L 46.95 15.6
Q 46.95 15.3 47.1 15 47.25 14.75 47.5 14.5 47.75 14.3 48 14.15 48.3 14 48.55 14
L 48.6 14
Q 48.75 14 48.75 13.9
L 48.75 12.05
M 49.75 11.95
L 49.7 11.95
Q 49.55 11.95 49.55 12.05
L 49.55 13.9
Q 49.55 14 49.7 14
L 49.75 14
Q 50 14 50.3 14.15 50.55 14.25 50.8 14.5 51.05 14.7 51.2 15 51.35 15.25 51.35 15.6
L 51.35 15.75
Q 51.35 15.85 51.5 15.85
L 53.35 15.85
Q 53.45 15.85 53.45 15.75
L 53.45 15.6
Q 53.45 14.95 53.15 14.3 52.9 13.65 52.4 13.15 51.9 12.6 51.2 12.3 50.55 11.95 49.75 11.95 Z"/>
</g>

<path id="Layer0_0_1_STROKES" stroke="#FFFFFF" stroke-width="5" stroke-linejoin="round" stroke-linecap="round" fill="none" d="
M 166.3 51.4
Q 168.25 49.8 168.9 45.8
L 177.3 45.8 177.3 3.9 40.45 3.9 40.45 10.25
Q 36.35 10 33.1 10.4 28.75 10.95 26.35 12.6 23.85 14.25 21.9 16.85 19.95 19.5 17.85 24.2 11.7 25.65 8.85 27.5 5.85 29.55 4.65 33.2 3.8 35.9 3.7 39.45 3.7 42.15 4.25 46
L 16.45 45.95
Q 17.4 52.3 23.45 53.05 27.3 53 29.25 51.3 31.2 49.65 32 45.8
L 45.05 45.8
Q 46.95 52.1 51.9 53.05 55.75 53.45 58.25 51.55 60.75 49.7 61.2 45.8
L 78.5 45.8 144.25 45.8 146.15 45.8 153.1 45.8
Q 154.75 52.3 160.45 52.95 164.35 53 166.3 51.4 Z"/>
</defs>

<g transform="matrix( 1, 0, 0, 1, 0,0) ">
<use xlink:href="#Layer0_0_FILL"/>

<use xlink:href="#Layer0_0_1_STROKES"/>
</g>
</svg>
