<?xml version="1.0" encoding="utf-8"?>
<!-- Generator: Adobe Illustrator 15.1.0, SVG Export Plug-In . SVG Version: 6.00 Build 0)  -->
<!DOCTYPE svg PUBLIC "-//W3C//DTD SVG 1.1//EN" "http://www.w3.org/Graphics/SVG/1.1/DTD/svg11.dtd">
<svg version="1.1" id="Layer_1" xmlns="http://www.w3.org/2000/svg" xmlns:xlink="http://www.w3.org/1999/xlink" x="0px" y="0px"
	 width="406.84px" height="251.1px" viewBox="0 0 406.84 251.1" enable-background="new 0 0 406.84 251.1" xml:space="preserve">
<symbol  id="flash0.ai_x5F_0_x2F_Isolation_Mode_x2F__x3C_Path_x3E__x5F_6_x5F_2" viewBox="0 -0.65 4.35 0.65">
	<g id="Layer_1_2_">
		<linearGradient id="SVGID_1_" gradientUnits="userSpaceOnUse" x1="4.375" y1="-0.3252" x2="0.0249" y2="-0.3252">
			<stop  offset="0.0196" style="stop-color:#F2F3F3"/>
			<stop  offset="0.102" style="stop-color:#F2C2B0"/>
			<stop  offset="0.2157" style="stop-color:#F08B72"/>
			<stop  offset="0.3059" style="stop-color:#ED634E"/>
			<stop  offset="0.3765" style="stop-color:#ED453E"/>
			<stop  offset="0.4118" style="stop-color:#ED393B"/>
			<stop  offset="0.7882" style="stop-color:#C0383F"/>
		</linearGradient>
		<path fill-rule="evenodd" clip-rule="evenodd" fill="url(#SVGID_1_)" d="M4.35-0.65H0C0.133-0.217,0.867,0,2.2,0
			C3.5,0,4.217-0.217,4.35-0.65z"/>
	</g>
</symbol>
<symbol  id="flash0.ai_x5F_0_x2F_Layer_3_x2F__x3C_Clip_Group_0_x3E_" viewBox="-115.871 -161.887 84.772 153.135">
	<g id="Layer_1_3_">
	</g>
	<g id="Layer_3_1_">
		<g>
			<path fill-rule="evenodd" clip-rule="evenodd" fill="#EBE6E1" d="M-42.355-97.725l-18.538,12.876l8.158,10.858l2.485,0.169
				l7.977-2.967C-39.496-84.084-39.523-91.064-42.355-97.725z"/>
			<g>
				<path fill-rule="evenodd" clip-rule="evenodd" fill="#F9A98C" d="M-37.475-61.968l-1.016-0.655
					c-1.387,0.408-2.197,1.588-2.431,3.539c-0.109,0.988,0.12,2.11,0.686,3.365c0.276,0.616,0.563,1.138,0.861,1.569
					c1.024,0.667,1.589,1.616,1.697,2.846c0.082,0.632,0.045,1.184-0.11,1.654c0.016,1.082,0.503,1.874,1.46,2.377
					c0.466,0.259,0.941,0.394,1.424,0.404c-0.229-0.541-0.399-1.29-0.509-2.245l-0.11-1.262c0.47-1.79,0.51-3.946,0.12-6.469
					l-0.714-3.245C-36.333-60.776-36.787-61.402-37.475-61.968z"/>
				<g>
					<path fill-rule="evenodd" clip-rule="evenodd" fill="#F9A98C" d="M-46.187-42.752c0.074,0.398,0.273,0.667,0.599,0.809
						c0.325,0.141,0.657,0.125,0.994-0.047c0.337-0.173,0.606-0.458,0.806-0.854l2.992-6.289c0.201-0.396,0.251-0.785,0.153-1.168
						c-0.074-0.398-0.262-0.675-0.562-0.832c-0.326-0.141-0.669-0.118-1.031,0.07c-0.337,0.173-0.606,0.458-0.806,0.854
						l-2.992,6.289C-46.235-43.525-46.286-43.135-46.187-42.752z"/>
					<path fill-rule="evenodd" clip-rule="evenodd" fill="#F9A98C" d="M-46.377-44.478l3.321-7.003
						c0.195-0.461,0.267-0.897,0.218-1.311c-0.074-0.398-0.269-0.688-0.585-0.869c-0.325-0.141-0.661-0.105-1.008,0.107
						c-0.386,0.204-0.677,0.536-0.872,0.996l-3.321,7.003c-0.21,0.436-0.283,0.873-0.218,1.311c0.074,0.398,0.261,0.675,0.562,0.832
						c0.325,0.141,0.662,0.105,1.008-0.108C-46.885-43.723-46.587-44.042-46.377-44.478z"/>
					<path fill-rule="evenodd" clip-rule="evenodd" fill="#F9A98C" d="M-47.46-54.403l-2.561,5.41
						c-0.15,0.365-0.192,0.715-0.124,1.048c0.108,0.342,0.325,0.584,0.65,0.726c0.301,0.156,0.623,0.181,0.965,0.072
						c0.353-0.148,0.604-0.405,0.755-0.771l2.561-5.41c0.166-0.341,0.207-0.69,0.124-1.048c-0.108-0.343-0.32-0.605-0.636-0.787
						c-0.325-0.141-0.652-0.145-0.979-0.012C-47.042-55-47.294-54.744-47.46-54.403z"/>
					<path fill-rule="evenodd" clip-rule="evenodd" fill="#F9A98C" d="M-46.563-57.358c-0.118-0.303-0.34-0.524-0.665-0.666
						c-0.326-0.142-0.635-0.173-0.928-0.095c-0.318,0.093-0.543,0.282-0.674,0.568l-2.152,4.494
						c-0.131,0.285-0.138,0.579-0.021,0.882c0.133,0.328,0.362,0.563,0.688,0.703c0.326,0.142,0.627,0.161,0.906,0.058
						c0.318-0.093,0.555-0.29,0.711-0.59l2.114-4.471C-46.453-56.761-46.446-57.055-46.563-57.358z"/>
				</g>
				<path fill-rule="evenodd" clip-rule="evenodd" fill="#F9A98C" d="M-43.323-94.394c-0.642,4.453-1.067,11.894-1.277,22.324
					l-0.038,0.023L-45.64-65.6l-0.661,1.838c-0.232,0.621-0.749,1.808-1.548,3.561c-0.721,1.603-1.065,2.735-1.034,3.397
					c-0.009,1.097,2.366,4.157,7.123,9.182c1.178-1.303,2.476-3.771,3.893-7.405l1.75-5.065c-0.579-1.998-1.013-3.676-1.301-5.033
					c-0.224-0.92-0.463-3.143-0.72-6.669c0.576-1.616,1.501-4.469,2.774-8.56c1.394-4.505,2.532-8.343,3.417-11.512
					c0.171-0.276,0.374-0.724,0.606-1.345c0.456-1.645,0.268-3.2-0.564-4.667c-0.792-1.457-2.007-2.434-3.642-2.931
					c-1.62-0.472-3.163-0.291-4.629,0.542c-1.482,0.808-2.458,2.021-2.93,3.642C-43.338-95.834-43.41-95.091-43.323-94.394z"/>
			</g>
			<path fill-rule="evenodd" clip-rule="evenodd" fill="#DFB742" d="M-49.648-42.689c-0.531-1.899-2.471-3.951-5.822-6.157
				l-4.9-2.764c-2.038-0.167-3.378-0.195-4.02-0.084c-1.005,0.196-1.508,1.02-1.508,2.471v21.819h16.25l0.46-5.905
				C-48.965-37.636-49.118-40.763-49.648-42.689z"/>
			<path fill-rule="evenodd" clip-rule="evenodd" fill="#DFB742" d="M-73.604-45.956l1.884-7.12
				c-2.29-0.391-4.565-0.419-6.826-0.084c-2.317,0.363-4.914,1.313-7.79,2.848c-3.21,1.731-5.305,3.504-6.282,5.319
				c-1.926,3.658-1.577,7.539,1.047,11.643c1.284-2.345,3.964-4.886,8.041-7.622C-79.76-43.513-76.451-45.175-73.604-45.956z"/>
			<path fill-rule="evenodd" clip-rule="evenodd" fill="#EBE6E1" d="M-90.886-148.406c1.031,22.422-0.642,47.338-5.018,74.748
				l22.821,10.385l22.865-10.298l-1.047-10.254l2.182-6.415c0.902-2.647,0.946-5.309,0.131-7.985
				c-0.814-2.618-2.284-4.771-4.407-6.458l-0.829-8.16l0.087-27.272L-90.886-148.406z"/>
			<g>
				<path fill-rule="evenodd" clip-rule="evenodd" fill="#F9AF91" d="M-67.525-55.025L-67.2-66.1c0.067-1.6-0.45-3-1.55-4.2
					c-1.133-1.167-2.517-1.783-4.15-1.85s-3.033,0.467-4.2,1.6c-1.167,1.1-1.783,2.467-1.85,4.1l-0.575,17.225L-67.525-55.025z"/>
			</g>
			<path fill-rule="evenodd" clip-rule="evenodd" fill="#F9AF91" d="M-51.492-26.273l0.042-7.245c0.028-5.221,0-8.753-0.084-10.596
				c-0.251-4.607-1.159-8.167-2.722-10.679c-1.452-2.373-3.853-4.369-7.203-5.989c-6.84,0-12.815,2.15-17.924,6.45
				c-4.942,4.16-7.399,8.822-7.371,13.987l0.042,14.197c0,3.099,0.74,5.975,2.22,8.627l31.116-0.125
				C-52.12-20.298-51.492-23.174-51.492-26.273z"/>
			<path fill-rule="evenodd" clip-rule="evenodd" fill="#DFB742" d="M-63.008-17.855l-0.209,6.743
				c2.262-0.168,4.355-0.615,6.282-1.34c5.054-1.898,8.027-4.467,8.92-7.706c0.586-2.066,0.628-4.048,0.126-5.947
				c-0.53-2.122-1.675-3.937-3.434-5.444c-0.726,2.429-2.29,5.04-4.69,7.832C-58.359-21.01-60.691-19.056-63.008-17.855z"/>
			<path fill-rule="evenodd" clip-rule="evenodd" fill="#E3D354" d="M-58.736-18.693c-1.424-2.625-4.942-5.514-10.554-8.669
				c-5.556-3.099-8.92-5.821-10.093-8.167v-2.094c0-0.865-0.307-1.605-0.921-2.219s-1.354-0.921-2.22-0.921h-5.193l-4.02,3.099
				c-1.563,4.886-2.331,8.306-2.303,10.26c0.083,4.495,1.605,8.446,4.564,11.852c2.932,3.35,6.617,5.458,11.056,6.324
				c3.63,0.698,7.524,0.628,11.685-0.209c3.043-0.614,6.756-1.801,11.14-3.56C-56.991-15.51-58.039-17.409-58.736-18.693z"/>
			<path fill-rule="evenodd" clip-rule="evenodd" fill="#343148" d="M-68.243-35.57c0-0.446-0.167-0.837-0.503-1.172
				c-0.307-0.307-0.684-0.461-1.13-0.461c-0.475,0-0.866,0.154-1.173,0.461c-0.335,0.335-0.502,0.726-0.502,1.172
				c0,0.447,0.167,0.838,0.502,1.173c0.307,0.307,0.698,0.461,1.173,0.461c0.447,0,0.823-0.154,1.13-0.461
				C-68.411-34.732-68.243-35.124-68.243-35.57z"/>
			<path fill-rule="evenodd" clip-rule="evenodd" fill="#343148" d="M-55.177-35.57c0-0.446-0.168-0.837-0.502-1.172
				c-0.308-0.307-0.684-0.461-1.131-0.461s-0.838,0.154-1.173,0.461c-0.307,0.307-0.46,0.698-0.46,1.172
				c0,0.447,0.153,0.838,0.46,1.173c0.335,0.307,0.726,0.461,1.173,0.461s0.823-0.154,1.131-0.461
				C-55.345-34.732-55.177-35.124-55.177-35.57z"/>
			<path fill-rule="evenodd" clip-rule="evenodd" fill="#F9AF91" d="M-87.549-34.063c1.396,0,2.597-0.502,3.602-1.508
				s1.508-2.206,1.508-3.602v-5.067h-5.109c-1.396,0-2.597,0.489-3.602,1.466c-0.977,1.005-1.466,2.206-1.466,3.602
				s0.489,2.596,1.466,3.602C-90.146-34.565-88.946-34.063-87.549-34.063z"/>
			<path fill-rule="evenodd" clip-rule="evenodd" fill="#E3D354" d="M-77.792-27.404V-48.26c-2.569-0.363-5.165-0.321-7.79,0.126
				c-5.277,0.921-8.097,3.462-8.459,7.622v13.108H-77.792z"/>
			<g>
				<g>
					<path fill-rule="evenodd" clip-rule="evenodd" fill="#F9A98C" d="M-85.085-141.285l2.395-2.263
						c1.72-1.884,2.886-3.691,3.5-5.421l0.785-0.996c0.635-0.708,1.197-1.22,1.685-1.536c-0.396-0.252-0.869-0.412-1.419-0.48
						c-1.061-0.131-1.892,0.254-2.496,1.155c-0.143,0.497-0.407,0.974-0.793,1.431c-0.802,0.972-1.825,1.44-3.067,1.405
						c-0.485,0.17-1.019,0.448-1.601,0.832c-1.151,0.687-1.957,1.481-2.415,2.384c-0.88,1.708-0.873,3.134,0.023,4.278l1.21,0.04
						C-86.372-140.537-85.64-140.813-85.085-141.285z"/>
					<g>
						<path fill-rule="evenodd" clip-rule="evenodd" fill="#F9A98C" d="M-81.798-159.812c0.072-0.446,0.001-0.843-0.212-1.189
							c-0.198-0.323-0.467-0.523-0.808-0.599c-0.324-0.053-0.634,0.063-0.93,0.348c-0.296,0.285-0.468,0.642-0.517,1.07
							l-1.054,6.879c-0.072,0.446-0.01,0.831,0.188,1.154c0.19,0.364,0.459,0.563,0.808,0.599c0.324,0.053,0.634-0.063,0.93-0.349
							c0.289-0.244,0.47-0.589,0.542-1.035L-81.798-159.812z"/>
						<path fill-rule="evenodd" clip-rule="evenodd" fill="#F9A98C" d="M-88.521-152.605c-0.056,0.469,0,0.895,0.167,1.275
							c0.208,0.388,0.474,0.607,0.797,0.66c0.348,0.036,0.669-0.089,0.965-0.374c0.279-0.308,0.458-0.706,0.537-1.192l1.182-7.669
							c0.039-0.493-0.026-0.93-0.193-1.31c-0.208-0.387-0.473-0.607-0.798-0.66c-0.324-0.053-0.637,0.084-0.939,0.409
							c-0.296,0.285-0.475,0.682-0.537,1.192L-88.521-152.605z"/>
						<path fill-rule="evenodd" clip-rule="evenodd" fill="#F9A98C" d="M-91.314-152.31c-0.065,0.405,0.003,0.749,0.207,1.032
							c0.198,0.323,0.47,0.502,0.817,0.539c0.324,0.053,0.64-0.032,0.946-0.252c0.266-0.228,0.419-0.535,0.461-0.924l0.932-5.932
							c0.042-0.388-0.027-0.732-0.207-1.032c-0.221-0.306-0.493-0.485-0.817-0.538c-0.324-0.052-0.631,0.043-0.92,0.288
							c-0.306,0.22-0.48,0.525-0.523,0.913L-91.314-152.31z"/>
						<path fill-rule="evenodd" clip-rule="evenodd" fill="#F9A98C" d="M-93.133-149.174c0.324,0.053,0.616-0.015,0.875-0.201
							c0.276-0.163,0.44-0.407,0.493-0.731l0.764-4.898c0.052-0.324-0.026-0.608-0.237-0.85c-0.228-0.266-0.503-0.425-0.827-0.478
							s-0.636,0.011-0.936,0.191c-0.283,0.204-0.438,0.459-0.468,0.767l-0.728,4.873c-0.053,0.325,0.014,0.616,0.201,0.875
							C-93.768-149.36-93.48-149.209-93.133-149.174z"/>
					</g>
					<path fill-rule="evenodd" clip-rule="evenodd" fill="#F9A98C" d="M-102.25-107.9c-0.096,0.296-0.238,0.721-0.425,1.275
						c-0.406,1.212-0.248,0.788,0.475-1.275c0.426-1.255,1.059-3.105,1.9-5.55c2.229-6.493,4.562-12.91,7-19.25v0.05
						c0.566-0.733,1.333-1.684,2.3-2.85c1.033-1.267,1.7-2.033,2-2.3c1.033-0.967,2.35-2.117,3.95-3.45l1.3-5.15
						c0.867-3.8,1.167-6.6,0.9-8.4c-6.7,1.533-10.367,2.767-11,3.7c-0.4,0.533-0.767,1.667-1.1,3.4c-0.267,1.9-0.483,3.167-0.65,3.8
						l-0.45,1.9l-2.8,5.9c-5.733,9.033-9.533,15.434-11.4,19.2c-0.401,0.535-1.56,3.01-3.475,7.425
						c-0.949,2.188-1.324,3.712-1.125,4.575h0.2l12.35-2.975C-102.041-108.581-102.024-108.589-102.25-107.9z"/>
				</g>
			</g>
			<g>
				<path fill-rule="evenodd" clip-rule="evenodd" fill="#EBE6E1" d="M-95.484-73.58c0.907,0.396,1.751,0.478,2.533,0.246
					c1.667-0.434,2.819-1.558,3.455-3.374c0.558-1.57,0.733-3.303,0.524-5.201c-0.006-0.798-0.122-1.506-0.346-2.125l-0.48-0.854
					c-0.051-0.195-0.207-0.42-0.464-0.676l-0.31-0.361c-0.458-1.016-1.166-2.528-2.125-4.537c-2.638-5.541-4.582-9.466-5.831-11.774
					c-1.257-2.306-2.209-4.185-2.855-5.639c-0.196-0.436-0.328-0.772-0.394-1.012c-2.845,0.603-6.151,1.327-9.917,2.173
					c-2.125,0.481-3.517,0.72-4.177,0.715c0.882,1.88,1.569,3.254,2.062,4.124c1.516,2.673,3.131,5.85,4.845,9.528
					c1.682,3.72,3.784,7.46,6.307,11.222c1.05,1.581,2.157,3.057,3.32,4.427l1.448,1.544c0.335,0.368,0.718,0.712,1.15,1.032
					L-95.484-73.58z"/>
				<polygon fill-rule="evenodd" clip-rule="evenodd" fill="#DAD2C0" points="-100.891,-106.637 -114.606,-103.797 
					-112.682,-99.349 -98.67,-102.412 				"/>
			</g>
			<path fill-rule="evenodd" clip-rule="evenodd" fill="#FBBEA4" d="M-62.631-36.031v-8.459c0-0.279-0.083-0.517-0.251-0.712
				c-0.195-0.195-0.404-0.293-0.628-0.293s-0.419,0.098-0.586,0.293c-0.167,0.196-0.251,0.433-0.251,0.712v8.459
				c0,0.279,0.084,0.517,0.251,0.711c0.167,0.196,0.363,0.293,0.586,0.293s0.433-0.098,0.628-0.293
				C-62.715-35.514-62.631-35.752-62.631-36.031z"/>
			<polygon fill-rule="evenodd" clip-rule="evenodd" fill="#DFB742" points="-65.898,-30.461 -66.191,-32.388 -75.195,-32.89 
				-75.363,-31.508 			"/>
			<polygon fill-rule="evenodd" clip-rule="evenodd" fill="#DFB742" points="-59.449,-30.377 -51.743,-31.885 -52.12,-32.723 
				-60.077,-32.345 			"/>
			<path fill-rule="evenodd" clip-rule="evenodd" fill="#FFFFFF" d="M-63.511-54.876c-1.926,0.056-3.56,0.879-4.9,2.471
				l-1.424,2.346h12.689c-0.279-0.838-0.754-1.662-1.424-2.471C-59.937-54.15-61.584-54.933-63.511-54.876z"/>
			<path fill-rule="evenodd" clip-rule="evenodd" fill="#E3D354" d="M-108.196-57.348c-0.056-1.172-0.238-0.768-0.545,1.215
				c-0.335,2.038-0.558,4.425-0.67,7.161c-0.418,7.985,0.293,12.634,2.136,13.946c1.787,1.284,4.356,2.122,7.706,2.513
				c1.703,0.168,3.211,0.223,4.523,0.168l1.005-9.884c-0.838,0.14-1.745,0.042-2.722-0.293c-1.982-0.643-3.378-2.108-4.188-4.397
				c-0.698-2.01-2.136-3.951-4.313-5.821C-107.163-54.36-108.14-55.896-108.196-57.348z"/>
			<polygon fill-rule="evenodd" clip-rule="evenodd" fill="#CB6D72" points="-93.622,-44.239 -95.925,-44.239 -95.925,-32.262 
				-93.622,-32.262 			"/>
			<g>
				<path fill-rule="evenodd" clip-rule="evenodd" fill="#F8A38C" d="M-71.56-75.904c0.226,0.392,0.564,0.648,1.014,0.768
					c0.45,0.121,0.871,0.068,1.262-0.158c0.392-0.227,0.648-0.564,0.769-1.014c0.121-0.449,0.068-0.87-0.159-1.262
					c-0.226-0.392-0.564-0.648-1.014-0.768c-0.45-0.121-0.87-0.068-1.262,0.158c-0.392,0.227-0.648,0.564-0.769,1.014
					C-71.838-76.717-71.786-76.296-71.56-75.904z"/>
				<path fill-rule="evenodd" clip-rule="evenodd" fill="#F8A38C" d="M-69.278-84.418c0.226,0.392,0.564,0.648,1.014,0.768
					c0.45,0.121,0.87,0.068,1.262-0.158c0.392-0.227,0.648-0.564,0.769-1.014c0.12-0.449,0.068-0.87-0.159-1.262
					c-0.226-0.392-0.564-0.648-1.014-0.768c-0.45-0.121-0.871-0.068-1.262,0.158c-0.392,0.227-0.648,0.564-0.769,1.014
					C-69.557-85.231-69.505-84.81-69.278-84.418z"/>
				<path fill-rule="evenodd" clip-rule="evenodd" fill="#F8A38C" d="M-67.302-91.794c0.227,0.392,0.564,0.648,1.014,0.769
					c0.45,0.121,0.871,0.068,1.262-0.159c0.392-0.226,0.648-0.564,0.769-1.014c0.121-0.45,0.068-0.871-0.159-1.262
					c-0.226-0.392-0.564-0.648-1.014-0.769c-0.449-0.12-0.87-0.068-1.262,0.159c-0.392,0.226-0.648,0.564-0.769,1.014
					C-67.581-92.606-67.528-92.186-67.302-91.794z"/>
			</g>
		</g>
	</g>
	<g id="Layer_4_1_">
	</g>
</symbol>
<symbol  id="sovet" viewBox="-0.021 -217.896 353.101 217.911">
	<g id="Layer_1_1_">
		<g>
			<g>
				<path fill-rule="evenodd" clip-rule="evenodd" fill="#FDCD9A" d="M264.05-97.25l13.45,29.8l5.1-4.1L268.25-99.9L264.05-97.25z
					 M331.3-60.05l4.9-3.1l11.2,11.85l0.65-6L336.2-70.65l-7,5.2L331.3-60.05z M298.45-49.55c-1.367,1.333-2.183,2.934-2.45,4.8
					l3.05,0.95l8.55,0.4l2.95-1.05c-0.267-1.767-0.883-3.233-1.85-4.4c-1.3-1.633-2.95-2.517-4.95-2.65S299.983-50.983,298.45-49.55
					z"/>
				<path fill-rule="evenodd" clip-rule="evenodd" fill="#989898" d="M299.3-167.15H292h-0.8v67.25h11.9v-67.25H299.3z
					 M315.95-167.15h-7.4h-3.05v67.25h11.9v-67.25H315.95z"/>
				<path fill-rule="evenodd" clip-rule="evenodd" fill="#343466" d="M308.55-168.1l7.4-1.2l0.6-0.05
					c-0.167-0.3-0.217-0.75-0.15-1.35l1-5.1l-23.45-0.5l0.7,0.7l-17.45-0.35l4.2,4.15l10.4,4.05h0.2l7.3-1.2l0.5-0.05
					c-0.133-0.3-0.15-0.75-0.05-1.35l0.2-1.05L308.55-168.1z"/>
				<path fill-rule="evenodd" clip-rule="evenodd" fill="#DBB895" d="M315.95-169.3l-7.4,1.2v0.95h7.4V-169.3z M292-167.75v0.6h7.3
					v-1.8L292-167.75z"/>
				<polygon fill-rule="evenodd" clip-rule="evenodd" fill="#CDCCCC" points="277.2,-175.95 294.65,-175.6 293.95,-176.3 
					317.4,-175.8 318,-178.9 293.5,-179.4 293.5,-178.7 276.8,-179.05 276.8,-176.3 				"/>
				<g>
					<path fill-rule="evenodd" clip-rule="evenodd" fill="#010101" d="M296.5-13.9h0.15c0.367,0,0.683-0.15,0.95-0.45
						s0.4-0.667,0.4-1.1v-0.05c0-0.367-0.133-0.7-0.4-1c-0.267-0.367-0.583-0.55-0.95-0.55s-0.7,0.184-1,0.55
						c-0.267,0.3-0.4,0.65-0.4,1.05c0,0.434,0.133,0.8,0.4,1.1C295.917-14.083,296.2-13.934,296.5-13.9z M316.4-22.15l-2.1-3.95
						l-2.05,1.35c0.9,1.367,1.617,2.717,2.15,4.05c0.533,1.3,0.883,2.9,1.05,4.8c-0.033,0.066-0.067,0.117-0.1,0.15
						c-6,2.933-10.833,6.667-14.5,11.2L300.6-4.9c-0.1-0.2-0.983-1.034-2.65-2.5c-0.267,0.066-0.8,0.1-1.6,0.1
						c0.167,0.5,0.283,1.2,0.35,2.1c0.067,0.733,0.133,1.167,0.2,1.3c0.1,0.333,0.45,0.9,1.05,1.7c0.633,0.8,3.333,1.45,8.1,1.95
						c4.733,0.467,7.5,0.316,8.3-0.45c0.767-0.767,1.633-1.833,2.6-3.2l1.9-1.05c1.333-0.3,2.217-0.8,2.65-1.5
						c0.2-0.3,0.367-1.066,0.5-2.3c0.067-1.1,0.067-1.95,0-2.55c-0.133-1-0.367-2.383-0.7-4.15c-0.4-1.8-0.7-3.35-0.9-4.65
						c-0.967-0.367-1.967-0.333-3,0.1L316.4-22.15z M304.55-20.2c0,0.434,0.133,0.8,0.4,1.1c0.3,0.267,0.65,0.4,1.05,0.4
						c0.4,0,0.767-0.133,1.1-0.4c0.233-0.3,0.35-0.667,0.35-1.1c0-0.467-0.117-0.85-0.35-1.15c-0.333-0.3-0.7-0.45-1.1-0.45
						c-0.4,0-0.75,0.15-1.05,0.45C304.684-21.05,304.55-20.667,304.55-20.2z"/>
					<path fill-rule="evenodd" clip-rule="evenodd" fill="#FDCD9A" d="M316.4-22.15c1.767-0.633,2.283-1.867,1.55-3.7
						c-0.8-1.767-2.183-2.117-4.15-1.05c-0.3-1-1.35-2.75-3.15-5.25c-0.967-1.233-1.883-2.284-2.75-3.15V-45h-8.55v7.25
						c0.067,0,0.117,0,0.15,0c-2.333,0.633-4.2,1.517-5.6,2.65c-1.733,1.433-2.733,3.217-3,5.35c-0.233,2.2,0.033,4.65,0.8,7.35
						c0.767,2.733,1.5,5.133,2.2,7.2c-1.233,0.367-1.833,0.85-1.8,1.45c0.033,0.667,0.333,1.383,0.9,2.15
						c0.5,0.767,0.95,1.083,1.35,0.95S295.3-10.9,296-11c1.167,2.033,1.817,3.233,1.95,3.6c1.667,1.466,2.55,2.3,2.65,2.5l0.25,0.35
						c3.667-4.533,8.5-8.267,14.5-11.2c0.033-0.033,0.067-0.083,0.1-0.15c-0.167-1.9-0.517-3.5-1.05-4.8
						c-0.534-1.333-1.25-2.683-2.15-4.05l2.05-1.35L316.4-22.15z M296.5-13.9c-0.3-0.034-0.583-0.184-0.85-0.45
						c-0.267-0.3-0.4-0.667-0.4-1.1c0-0.4,0.133-0.75,0.4-1.05c0.3-0.367,0.633-0.55,1-0.55s0.683,0.184,0.95,0.55
						c0.267,0.3,0.4,0.633,0.4,1v0.05c0,0.434-0.133,0.8-0.4,1.1s-0.583,0.45-0.95,0.45H296.5z M304.55-20.2
						c0-0.467,0.133-0.85,0.4-1.15c0.3-0.3,0.65-0.45,1.05-0.45c0.4,0,0.767,0.15,1.1,0.45c0.233,0.3,0.35,0.683,0.35,1.15
						c0,0.434-0.117,0.8-0.35,1.1c-0.333,0.267-0.7,0.4-1.1,0.4c-0.4,0-0.75-0.133-1.05-0.4C304.684-19.4,304.55-19.767,304.55-20.2
						z M293.95-24.9c-0.267-1.434-0.3-2.5-0.1-3.2c0.367-1.633,1.75-2.867,4.15-3.7c1.5-0.566,2.75-0.617,3.75-0.15
						c0.7,0.367,1.55,1.2,2.55,2.5L293.95-24.9z"/>
					<path fill-rule="evenodd" clip-rule="evenodd" fill="#FFFFFF" d="M293.95-24.9l10.35-4.55c-1-1.3-1.85-2.133-2.55-2.5
						c-1-0.467-2.25-0.417-3.75,0.15c-2.4,0.833-3.783,2.067-4.15,3.7C293.65-27.4,293.684-26.333,293.95-24.9z"/>
				</g>
				<g>
					<path fill-rule="evenodd" clip-rule="evenodd" fill="#989898" d="M348.35-31.75l-8.45-1.2c-1-1.633-1.5-3.017-1.5-4.15v-10.8
						c0-1.367,0.35-2.483,1.05-3.35l-0.6-0.1c-0.133,0.133-0.267,0.267-0.4,0.4c-0.733,0.9-1.1,2.033-1.1,3.4v10.8
						c0,1.167,0.5,2.55,1.5,4.15l9.15,1.3C348.133-31.467,348.25-31.617,348.35-31.75z"/>
					<path fill-rule="evenodd" clip-rule="evenodd" fill="#333333" d="M348.35-31.75c0.567-0.9,0.85-1.833,0.85-2.8v-10.8
						c0-1.367-0.367-2.617-1.1-3.75c-0.1-0.233-0.233-0.45-0.4-0.65l-8.25-1.5c-0.7,0.867-1.05,1.983-1.05,3.35v10.8
						c0,1.133,0.5,2.517,1.5,4.15L348.35-31.75z"/>
				</g>
				<path fill-rule="evenodd" clip-rule="evenodd" fill="#FDCD9A" d="M346.875-53.85c-4.185,1.623-6.416,2.77-6.692,3.441
					c0.201,1.281,2.511,1.473,6.931,0.574c1.654,2.358,2.259,5.066,1.816,8.126c-0.447,3.057-0.502,4.881-0.167,5.473
					c0.333,0.595,0.835,0.459,1.506-0.407c1.307-2.323,2.216-5.557,2.724-9.703c0.096-0.797,0.111-1.53,0.048-2.198
					c0-0.669-0.398-1.594-1.195-2.773c-0.223-0.382-1.482-2.438-3.776-6.166C348.026-54.962,347.628-53.751,346.875-53.85z"/>
				<g>
					<path fill-rule="evenodd" clip-rule="evenodd" fill="#343466" d="M332.15-58.3l-4.8-12.45l-10.85,10.2l4.45-39.25H283.7
						l6.6,40.5l-6.45-12.95l-8.8,7.15l12.3,17.75l8.9,2.75c0.267-1.9,1.083-3.517,2.45-4.85c1.533-1.433,3.283-2.083,5.25-1.95
						c2,0.167,3.65,1.05,4.95,2.65c1,1.167,1.633,2.633,1.9,4.4l7.75-2.45L332.15-58.3z"/>
				</g>
				<path fill-rule="evenodd" clip-rule="evenodd" fill="#FDCD9A" d="M271.385-92.249l-0.705,0.615
					c-1.107-0.158-1.859-0.971-2.256-2.439c-0.194-0.744-0.144-1.628,0.149-2.653c0.143-0.502,0.304-0.934,0.484-1.297
					c0.709-0.625,1.037-1.415,0.982-2.368c-0.008-0.494-0.098-0.912-0.269-1.254c-0.108-0.83,0.176-1.491,0.853-1.983
					c0.328-0.25,0.677-0.407,1.046-0.468c-0.116,0.439-0.162,1.032-0.14,1.776l0.057,0.979c0.56,1.318,0.83,2.964,0.813,4.94
					l-0.185,2.564C272.126-93.289,271.85-92.759,271.385-92.249z"/>
				<g>
					<path fill-rule="evenodd" clip-rule="evenodd" fill="#FDCD9A" d="M266.45-91.9l3.3-6.45l-1.85-2.95
						c0-0.267-0.067-0.533-0.2-0.8l-3.1-4.45c-0.167-0.3-0.383-0.483-0.65-0.55c-0.3-0.133-0.55-0.117-0.75,0.05
						c-0.233,0.167-0.367,0.383-0.4,0.65c-0.033,0.333,0.05,0.633,0.25,0.9l3,4.5c0.033,0.033,0.066,0.05,0.1,0.05l-0.3,0.45
						l-3-4.55c-0.2-0.3-0.467-0.5-0.8-0.6c-0.267-0.133-0.517-0.117-0.75,0.05c-0.2,0.133-0.317,0.367-0.35,0.7
						c0,0.333,0.1,0.633,0.3,0.9l3.35,5.05c0.033,0.067,0.083,0.133,0.15,0.2l-0.15,0.2l-2.4-3.7c-0.167-0.267-0.4-0.434-0.7-0.5
						c-0.267-0.033-0.517,0.033-0.75,0.2c-0.2,0.133-0.333,0.333-0.4,0.6c-0.033,0.267,0.033,0.533,0.2,0.8l2.6,3.85
						c0.1,0.167,0.233,0.284,0.4,0.35l-0.15,0.15l-1.45-2.2c-0.167-0.233-0.367-0.367-0.6-0.4c-0.233-0.034-0.483,0.033-0.75,0.2
						c-0.167,0.1-0.283,0.25-0.35,0.45l3.5,4.7L266.45-91.9z"/>
				</g>
			</g>
			<g>
				<polygon fill-rule="evenodd" clip-rule="evenodd" fill="#5B6E78" points="317.841,-151.082 317.841,-155.071 253.784,-155.071 
					253.784,-151.082 				"/>
				<path fill-rule="evenodd" clip-rule="evenodd" fill="#5B6E78" d="M314.371-153.515c0.519-0.346,0.822-0.833,0.908-1.459
					l8.465-54.878c0.108-0.627-0.022-1.189-0.389-1.687c-0.368-0.519-0.865-0.822-1.492-0.908c-0.605-0.108-1.167,0.021-1.687,0.389
					c-0.497,0.368-0.8,0.865-0.908,1.492l-8.465,54.911c-0.086,0.605,0.054,1.157,0.422,1.654s0.854,0.8,1.459,0.908
					C313.311-153.006,313.874-153.147,314.371-153.515z"/>
				<path fill-rule="evenodd" clip-rule="evenodd" fill="#5B6E78" d="M258.876-153.515c0.498,0.368,1.06,0.508,1.687,0.422
					c0.605-0.108,1.103-0.411,1.492-0.908c0.367-0.498,0.497-1.049,0.389-1.654l-8.465-54.911c-0.086-0.627-0.39-1.125-0.908-1.492
					c-0.498-0.368-1.06-0.498-1.687-0.389c-0.605,0.086-1.092,0.389-1.459,0.908c-0.368,0.498-0.508,1.06-0.422,1.687l8.465,54.878
					C258.076-154.347,258.379-153.86,258.876-153.515z"/>
				<path fill-rule="evenodd" clip-rule="evenodd" fill="#C0BEBE" d="M322.317-76.775c0.454,1.081,0.822,1.589,1.103,1.524
					l9.179-1.914c0.281-0.065,0.411-0.681,0.389-1.849c-0.021-1.167-0.195-2.551-0.519-4.151l-13.979-59.809
					c-0.324-1.578-0.713-2.919-1.167-4.021c-0.433-1.082-0.8-1.589-1.103-1.524l-6.487,1.362c-0.281,0.065-0.411,0.681-0.389,1.849
					c0.021,1.167,0.195,2.551,0.519,4.151l11.287,60.36C321.496-79.197,321.885-77.857,322.317-76.775z"/>
				<g>
					<path fill-rule="evenodd" clip-rule="evenodd" fill="#5B6E78" d="M68.358-209.301c1.059-0.973,1.643-2.184,1.751-3.632H58.984
						c0.108,1.449,0.692,2.659,1.752,3.632c1.081,0.995,2.346,1.492,3.794,1.492C66.001-207.809,67.277-208.306,68.358-209.301z"/>
					<polygon fill-rule="evenodd" clip-rule="evenodd" fill="#5B6E78" points="131.994,-156.369 69.331,-156.369 69.331,-152.444 
						131.994,-152.444 					"/>
					<path fill-rule="evenodd" clip-rule="evenodd" fill="#C0BEBE" d="M134.945-149.201c0-0.887-0.368-1.654-1.103-2.303
						c-0.735-0.627-1.622-0.94-2.66-0.94H69.558c-1.038,0-1.924,0.313-2.66,0.94c-0.735,0.648-1.103,1.416-1.103,2.303
						c0,0.908,0.368,1.676,1.103,2.303c0.735,0.649,1.622,0.973,2.66,0.973h61.625c1.038,0,1.924-0.324,2.66-0.973
						C134.578-147.525,134.945-148.292,134.945-149.201z"/>
					<path fill-rule="evenodd" clip-rule="evenodd" fill="#5B6E78" d="M76.207-156.953l-8.271-53.646
						c-0.108-0.605-0.4-1.092-0.876-1.459c-0.497-0.346-1.048-0.476-1.654-0.389s-1.082,0.378-1.427,0.875
						c-0.368,0.476-0.508,1.017-0.421,1.622l8.303,53.678c0.086,0.605,0.378,1.092,0.876,1.459c0.476,0.346,1.016,0.476,1.622,0.389
						c0.605-0.108,1.092-0.4,1.459-0.875C76.186-155.796,76.315-156.347,76.207-156.953z"/>
					<path fill-rule="evenodd" clip-rule="evenodd" fill="#5B6E78" d="M123.528-156.953c-0.086,0.605,0.043,1.157,0.389,1.654
						c0.368,0.476,0.854,0.768,1.46,0.875c0.605,0.086,1.157-0.043,1.654-0.389c0.476-0.367,0.756-0.854,0.843-1.459l8.271-53.678
						c0.108-0.605-0.021-1.146-0.389-1.622c-0.346-0.497-0.822-0.789-1.427-0.875s-1.157,0.043-1.654,0.389
						c-0.476,0.368-0.768,0.854-0.875,1.459L123.528-156.953z"/>
					<path fill-rule="evenodd" clip-rule="evenodd" fill="#5B6E78" d="M129.042-212.934c0.108,1.449,0.703,2.659,1.784,3.632
						c1.06,0.995,2.324,1.492,3.795,1.492c1.449,0,2.714-0.497,3.795-1.492c1.059-0.973,1.643-2.184,1.751-3.632H129.042z"/>
					<path fill-rule="evenodd" clip-rule="evenodd" fill="#C0BEBE" d="M63.882-78.332c0.281,0.064,0.638-0.433,1.07-1.492
						c0.432-1.06,0.811-2.368,1.135-3.924l11.06-58.998c0.325-1.557,0.498-2.908,0.52-4.054c0.021-1.146-0.108-1.751-0.39-1.816
						l-6.357-1.33c-0.281-0.065-0.638,0.433-1.07,1.492s-0.811,2.368-1.135,3.924L55.06-86.084c-0.324,1.578-0.497,2.93-0.519,4.054
						c-0.043,1.146,0.076,1.751,0.356,1.816l4.476,0.94h0.032L63.882-78.332z"/>
				</g>
				<path fill-rule="evenodd" clip-rule="evenodd" fill="#C0BEBE" d="M318.61-150.109c-0.736-0.649-1.644-0.973-2.725-0.973h-63.02
					c-1.06,0-1.957,0.324-2.692,0.973c-0.757,0.648-1.135,1.438-1.135,2.368s0.378,1.719,1.135,2.368
					c0.735,0.649,1.632,0.973,2.692,0.973h63.02c1.081,0,1.989-0.324,2.725-0.973c0.756-0.648,1.135-1.438,1.135-2.368
					S319.366-149.46,318.61-150.109z"/>
				<polygon fill-rule="evenodd" clip-rule="evenodd" fill="#5B6E78" points="79.224,-154.228 15.166,-154.228 15.166,-150.239 
					79.224,-150.239 				"/>
				<path fill-rule="evenodd" clip-rule="evenodd" fill="#C0BEBE" d="M81.104-149.266c-0.735-0.648-1.643-0.973-2.724-0.973h-63.02
					c-1.06,0-1.957,0.325-2.692,0.973c-0.757,0.649-1.135,1.438-1.135,2.368c0,0.908,0.378,1.687,1.135,2.335
					c0.735,0.648,1.632,0.973,2.692,0.973h63.02c1.06,0,1.968-0.324,2.724-0.973c0.757-0.649,1.135-1.427,1.135-2.335
					C82.24-147.828,81.862-148.617,81.104-149.266z"/>
				<path fill-rule="evenodd" clip-rule="evenodd" fill="#5B6E78" d="M18.637-152.671c0.498,0.368,1.049,0.508,1.654,0.422
					c0.605-0.108,1.103-0.411,1.492-0.908c0.368-0.497,0.508-1.06,0.422-1.687l-8.498-54.878c-0.086-0.605-0.378-1.103-0.875-1.492
					c-0.498-0.368-1.06-0.497-1.687-0.389c-0.627,0.086-1.114,0.378-1.46,0.876c-0.367,0.519-0.508,1.081-0.421,1.687l8.465,54.878
					C17.837-153.558,18.14-153.061,18.637-152.671z"/>
				<path fill-rule="evenodd" clip-rule="evenodd" fill="#5B6E78" d="M74.131-152.671c0.519-0.389,0.822-0.886,0.908-1.492
					l8.465-54.878c0.086-0.627-0.054-1.189-0.421-1.687c-0.368-0.498-0.865-0.79-1.492-0.876c-0.605-0.108-1.157,0.021-1.654,0.389
					c-0.497,0.368-0.8,0.865-0.908,1.492l-8.466,54.878c-0.086,0.605,0.054,1.167,0.422,1.687c0.368,0.498,0.854,0.8,1.459,0.908
					C73.072-152.163,73.634-152.304,74.131-152.671z"/>
				<path fill-rule="evenodd" clip-rule="evenodd" fill="#C0BEBE" d="M-0.013-78.203c-0.043,1.168,0.086,1.784,0.389,1.849
					l9.179,1.946c0.303,0.043,0.67-0.476,1.103-1.557c0.454-1.082,0.854-2.422,1.2-4.022l11.255-60.328
					c0.346-1.578,0.53-2.962,0.551-4.151c0.043-1.167-0.086-1.784-0.389-1.849l-6.519-1.362c-0.281-0.065-0.649,0.443-1.103,1.524
					c-0.433,1.081-0.822,2.421-1.167,4.022L0.539-82.354C0.192-80.754,0.009-79.37-0.013-78.203z"/>
				<g>
					<polygon fill-rule="evenodd" clip-rule="evenodd" fill="#A8A8A8" points="282.326,-217.896 277.006,-217.896 277.006,-139.633 
						84.024,-139.633 84.024,-217.896 78.705,-217.896 78.705,-121.535 282.326,-121.535 					"/>
					<polygon fill-rule="evenodd" clip-rule="evenodd" fill="#FFFFFF" points="299.289,-121.6 61.223,-121.6 61.223,-117.059 
						299.289,-117.059 					"/>
					<polygon fill-rule="evenodd" clip-rule="evenodd" fill="#312216" points="300.902,-118.507 60.113,-118.507 128.849,-103.947 
						232.166,-103.947 					"/>
					<g>
						
							<image overflow="visible" width="68" height="10" xlink:href="C:\Users\ikorolkova\Pictures\newworkIra\effektivn soveshan\07.assets\images\Path.png"  transform="matrix(0.6487 0 0 -0.6487 134.5 -102.8496)">
						</image>
						<g>
							<polygon fill-rule="evenodd" clip-rule="evenodd" fill="#3B5260" points="152.589,-102.853 174.839,-104.312 
								162.028,-107.199 139.778,-105.739 							"/>
							<polygon fill-rule="evenodd" clip-rule="evenodd" fill="#FFFFFF" points="152.751,-102.917 174.255,-104.344 
								161.866,-107.134 140.362,-105.707 							"/>
							<polygon fill-rule="evenodd" clip-rule="evenodd" fill="#EF6456" points="164.136,-106.063 162.385,-105.966 
								163.033,-105.836 164.752,-105.934 							"/>
							<polygon fill-rule="evenodd" clip-rule="evenodd" fill="#80B2AE" points="161.379,-106.68 155.444,-106.291 
								156.092,-106.161 161.996,-106.55 							"/>
							<polygon fill-rule="evenodd" clip-rule="evenodd" fill="#314D5F" points="163.228,-106.291 160.795,-106.128 
								161.412,-105.999 163.844,-106.128 							"/>
							<polygon fill-rule="evenodd" clip-rule="evenodd" fill="#F89A51" points="162.287,-106.485 158.071,-106.226 
								158.687,-106.063 162.936,-106.355 							"/>
							<polygon fill-rule="evenodd" clip-rule="evenodd" fill="#4B5766" points="156.514,-105.155 165.855,-105.771 
								160.828,-106.907 160.309,-106.874 165.044,-105.804 156.222,-105.22 							"/>
							<path fill-rule="evenodd" clip-rule="evenodd" fill="#F06359" d="M156.741-104.215c1.384,0.281,3.286,0.346,5.708,0.195
								c1.017-0.065,1.697-0.162,2.043-0.292c0.325-0.151,0.206-0.281-0.357-0.389c-1.319-0.303-3.221-0.378-5.708-0.227
								c-1.017,0.065-1.687,0.162-2.011,0.292C156.071-104.485,156.179-104.344,156.741-104.215z"/>
							<path fill-rule="evenodd" clip-rule="evenodd" fill="#80B1AD" d="M152.459-103.955c0.541,0.129,1.373,0.216,2.498,0.259
								c1.125,0.043,2.195,0.032,3.211-0.033c1.038-0.064,1.719-0.173,2.043-0.324c0.346-0.129,0.238-0.259-0.324-0.389
								c-1.384-0.281-3.287-0.346-5.708-0.195c-1.038,0.065-1.719,0.162-2.043,0.292
								C151.79-104.193,151.897-104.063,152.459-103.955z"/>
							<path fill-rule="evenodd" clip-rule="evenodd" fill="#3B5260" d="M159.822-104.441c-0.735-0.173-1.805-0.26-3.211-0.26
								c-0.303,0.065-0.454,0.141-0.454,0.227c0.021,0.086,0.194,0.162,0.519,0.227c0.67,0.151,1.741,0.249,3.211,0.292
								C160.493-104.128,160.471-104.291,159.822-104.441z"/>
							<g>
								<polygon fill-rule="evenodd" clip-rule="evenodd" fill="#3B5260" points="146.297,-107.101 146.297,-107.069 
									146.362,-107.069 146.395,-107.101 								"/>
								<polygon fill-rule="evenodd" clip-rule="evenodd" fill="#3B5260" points="146.524,-107.069 146.524,-107.036 
									146.622,-107.036 146.622,-107.069 								"/>
							</g>
						</g>
					</g>
					
						<image overflow="visible" width="63" height="8" xlink:href="C:\Users\ikorolkova\Pictures\newworkIra\effektivn soveshan\07.assets\images\Path_1.png"  transform="matrix(0.6487 0 0 -0.6487 179.5498 -106.8496)">
					</image>
					
						<image overflow="visible" width="63" height="8" xlink:href="C:\Users\ikorolkova\Pictures\newworkIra\effektivn soveshan\07.assets\images\Path_0.png"  transform="matrix(0.6487 0 0 -0.6487 95.2002 -109.5498)">
					</image>
					<g>
						<path fill-rule="evenodd" clip-rule="evenodd" fill="#151919" d="M125.475-100.225h28.607c0.497,0,0.918-0.173,1.265-0.519
							c0.346-0.346,0.519-0.768,0.519-1.265s-0.173-0.919-0.519-1.265c-0.346-0.346-0.768-0.519-1.265-0.519h-28.607
							c-0.476,0-0.897,0.173-1.265,0.519c-0.346,0.346-0.519,0.767-0.519,1.265s0.173,0.919,0.519,1.265
							C124.556-100.398,124.977-100.225,125.475-100.225z"/>
						<polygon fill-rule="evenodd" clip-rule="evenodd" fill="#151919" points="154.957,-103.696 151.422,-102.82 157.455,-78.559 
							159.498,-79.046 						"/>
					</g>
					<g>
						<path fill-rule="evenodd" clip-rule="evenodd" fill="#151919" d="M124.242-112.453c0-0.541-0.184-0.994-0.552-1.362
							c-0.389-0.368-0.843-0.551-1.362-0.551H91.84c-0.541,0-0.995,0.184-1.362,0.551c-0.368,0.368-0.551,0.822-0.551,1.362
							c0,0.519,0.184,0.962,0.551,1.33c0.368,0.389,0.822,0.583,1.362,0.583h30.488c0.519,0,0.973-0.194,1.362-0.583
							C124.058-111.491,124.242-111.934,124.242-112.453z"/>
						<polygon fill-rule="evenodd" clip-rule="evenodd" fill="#151919" points="128.102,-87.998 123.269,-114.237 119.507,-113.329 
							125.896,-87.446 						"/>
					</g>
					<g>
						<path fill-rule="evenodd" clip-rule="evenodd" fill="#151919" d="M255.697-110.507c0.519,0,0.973-0.195,1.362-0.584
							c0.368-0.368,0.551-0.811,0.551-1.33s-0.184-0.973-0.551-1.362c-0.389-0.368-0.843-0.551-1.362-0.551h-30.488
							c-0.541,0-0.995,0.184-1.362,0.551c-0.368,0.389-0.551,0.843-0.551,1.362s0.184,0.962,0.551,1.33
							c0.368,0.389,0.822,0.584,1.362,0.584H255.697z"/>
						<polygon fill-rule="evenodd" clip-rule="evenodd" fill="#151919" points="219.436,-87.965 221.609,-87.414 228.031,-113.296 
							224.236,-114.205 						"/>
					</g>
				</g>
				<g>
					
						<use xlink:href="#flash0.ai_x5F_0_x2F_Isolation_Mode_x2F__x3C_Path_x3E__x5F_6_x5F_2"  width="4.35" height="0.65" y="-0.65" transform="matrix(2.5057 0 0 2.5057 240.3506 -113.6499)" overflow="visible" opacity="0.7891" enable-background="new    "/>
					
						<linearGradient id="SVGID_2_" gradientUnits="userSpaceOnUse" x1="2356.8081" y1="246.9775" x2="2359.9929" y2="246.9775" gradientTransform="matrix(2.498 0.1967 -0.51 2.4733 -5525.7129 -1181.7646)">
						<stop  offset="0.0196" style="stop-color:#F2F3F3"/>
						<stop  offset="0.102" style="stop-color:#F2C2B0"/>
						<stop  offset="0.2157" style="stop-color:#F08B72"/>
						<stop  offset="0.3059" style="stop-color:#ED634E"/>
						<stop  offset="0.3765" style="stop-color:#ED453E"/>
						<stop  offset="0.4118" style="stop-color:#ED393B"/>
						<stop  offset="0.7882" style="stop-color:#C0383F"/>
					</linearGradient>
					<path fill-rule="evenodd" clip-rule="evenodd" fill="url(#SVGID_2_)" d="M238.447-102.656l1.002,0.375
						c0.836,0.251,1.754,0.208,2.757-0.126v-1.502c-2.004,0.668-3.257,0.375-3.759-0.877l-0.251-0.877
						c-0.083-0.836,0.042-1.712,0.376-2.631c0.501-1.503,1.044-2.13,1.629-1.879c0.167,0.083,0.5,0.876,1.002,2.38l0.125,0.251
						c0.167,0.167,0.334,0.167,0.501,0c0.251-0.168,0.376-0.334,0.376-0.502v-0.876c0-0.835-0.376-1.629-1.128-2.381
						c-0.917-1.085-1.962-0.501-3.132,1.754c-1.168,2.255-1.461,4.093-0.876,5.512L238.447-102.656z"/>
					
						<linearGradient id="SVGID_3_" gradientUnits="userSpaceOnUse" x1="704.6748" y1="-295.8252" x2="698.9248" y2="-295.8252" gradientTransform="matrix(2.5057 0 0 2.5057 -1511.7998 634.1504)">
						<stop  offset="0.0196" style="stop-color:#F2F3F3"/>
						<stop  offset="0.102" style="stop-color:#F2C2B0"/>
						<stop  offset="0.2157" style="stop-color:#F08B72"/>
						<stop  offset="0.3059" style="stop-color:#ED634E"/>
						<stop  offset="0.3765" style="stop-color:#ED453E"/>
						<stop  offset="0.4118" style="stop-color:#ED393B"/>
						<stop  offset="0.7882" style="stop-color:#C0383F"/>
					</linearGradient>
					<polygon fill-rule="evenodd" clip-rule="evenodd" fill="url(#SVGID_3_)" points="240.953,-99.901 252.104,-99.901 
						252.104,-114.309 240.953,-114.309 					"/>
					
						<linearGradient id="SVGID_4_" gradientUnits="userSpaceOnUse" x1="703.9375" y1="-293.1001" x2="699.4625" y2="-293.1001" gradientTransform="matrix(2.5057 0 0 2.5057 -1511.7998 634.1504)">
						<stop  offset="0.0196" style="stop-color:#F2F3F3"/>
						<stop  offset="0.102" style="stop-color:#F2C2B0"/>
						<stop  offset="0.2157" style="stop-color:#F08B72"/>
						<stop  offset="0.3059" style="stop-color:#ED634E"/>
						<stop  offset="0.3765" style="stop-color:#ED453E"/>
						<stop  offset="0.4118" style="stop-color:#ED393B"/>
						<stop  offset="0.7882" style="stop-color:#C0383F"/>
					</linearGradient>
					<path fill-rule="evenodd" clip-rule="evenodd" fill="url(#SVGID_4_)" d="M242.081-99.901h8.895
						c-1.002-0.5-2.506-0.751-4.51-0.751C244.545-100.652,243.083-100.401,242.081-99.901z"/>
					
						<linearGradient id="SVGID_5_" gradientUnits="userSpaceOnUse" x1="704.8999" y1="-293.1001" x2="698.5999" y2="-293.1001" gradientTransform="matrix(2.5057 0 0 2.5057 -1511.7998 634.1504)">
						<stop  offset="0.0196" style="stop-color:#F2F3F3"/>
						<stop  offset="0.102" style="stop-color:#F2C2B0"/>
						<stop  offset="0.2157" style="stop-color:#F08B72"/>
						<stop  offset="0.3059" style="stop-color:#ED634E"/>
						<stop  offset="0.3765" style="stop-color:#ED453E"/>
						<stop  offset="0.4118" style="stop-color:#ED393B"/>
						<stop  offset="0.7882" style="stop-color:#C0383F"/>
					</linearGradient>
					<path fill-rule="evenodd" clip-rule="evenodd" fill="url(#SVGID_5_)" d="M242.206-99.901h8.519
						c-1.336-0.5-2.757-0.751-4.259-0.751C245.129-100.652,243.709-100.401,242.206-99.901z"/>
					
						<linearGradient id="SVGID_6_" gradientUnits="userSpaceOnUse" x1="703.8252" y1="-293.0254" x2="699.5752" y2="-293.0254" gradientTransform="matrix(2.5057 0 0 2.5057 -1511.7998 634.1504)">
						<stop  offset="0.0196" style="stop-color:#F2F3F3"/>
						<stop  offset="0.102" style="stop-color:#F2C2B0"/>
						<stop  offset="0.2157" style="stop-color:#F08B72"/>
						<stop  offset="0.3059" style="stop-color:#ED634E"/>
						<stop  offset="0.3765" style="stop-color:#ED453E"/>
						<stop  offset="0.4118" style="stop-color:#ED393B"/>
						<stop  offset="0.7882" style="stop-color:#C0383F"/>
					</linearGradient>
					<path fill-rule="evenodd" clip-rule="evenodd" fill="url(#SVGID_6_)" d="M242.957-99.901h7.017
						c-0.835-0.25-2.005-0.376-3.508-0.376C245.129-100.277,243.96-100.151,242.957-99.901z"/>
					
						<linearGradient id="SVGID_7_" gradientUnits="userSpaceOnUse" x1="703.4751" y1="-293.0254" x2="699.9251" y2="-293.0254" gradientTransform="matrix(2.5057 0 0 2.5057 -1511.7998 634.1504)">
						<stop  offset="0.0196" style="stop-color:#F2F3F3"/>
						<stop  offset="0.102" style="stop-color:#F2C2B0"/>
						<stop  offset="0.2157" style="stop-color:#F08B72"/>
						<stop  offset="0.3059" style="stop-color:#ED634E"/>
						<stop  offset="0.3765" style="stop-color:#ED453E"/>
						<stop  offset="0.4118" style="stop-color:#ED393B"/>
						<stop  offset="0.7882" style="stop-color:#C0383F"/>
					</linearGradient>
					<path fill-rule="evenodd" clip-rule="evenodd" fill="url(#SVGID_7_)" d="M242.832-99.901h7.267
						c-0.835-0.25-2.046-0.376-3.633-0.376C244.962-100.277,243.751-100.151,242.832-99.901z"/>
				</g>
				<g>
					<g>
						<polygon fill-rule="evenodd" clip-rule="evenodd" fill="#E7E8E8" points="142.609,-88.889 140.855,-108.559 136.846,-108.559 
							136.846,-88.889 						"/>
						<polygon fill-rule="evenodd" clip-rule="evenodd" fill="#F2F3F3" points="131.083,-88.889 136.846,-88.889 136.846,-108.559 
							132.837,-108.559 						"/>
						<polygon fill-rule="evenodd" clip-rule="evenodd" fill="#B23B39" points="136.846,-100.039 136.846,-93.148 142.233,-93.148 
							141.607,-100.039 						"/>
						<polygon fill-rule="evenodd" clip-rule="evenodd" fill="#E47237" points="136.846,-100.039 132.085,-100.039 131.459,-93.148 
							136.846,-93.148 						"/>
						<polygon fill-rule="evenodd" clip-rule="evenodd" fill="#B23B39" points="130.833,-89.14 130.833,-88.136 142.86,-88.136 
							142.86,-89.14 						"/>
						<path fill-rule="evenodd" clip-rule="evenodd" fill="#B23B39" d="M131.459-87.385c0,0.167,1.794,0.251,5.387,0.251
							c3.591,0,5.387-0.083,5.387-0.251v-0.877h-10.774V-87.385z"/>
					</g>
				</g>
			</g>
		</g>
		<g>
			<g>
				<path fill-rule="evenodd" clip-rule="evenodd" fill="#F9A98C" d="M65.285-121.324l-0.901,0.25
					c-0.93-0.62-1.257-1.677-0.981-3.171c0.146-0.755,0.573-1.53,1.279-2.327c0.345-0.391,0.677-0.711,0.997-0.96
					c0.909-0.257,1.545-0.828,1.907-1.711c0.206-0.448,0.305-0.863,0.299-1.246c0.26-0.794,0.802-1.268,1.624-1.419
					c0.404-0.084,0.786-0.075,1.145,0.029c-0.294,0.347-0.591,0.86-0.892,1.541l-0.372,0.907c-0.064,1.429-0.531,3.03-1.399,4.803
					l-1.273,2.231C66.401-121.942,65.923-121.584,65.285-121.324z"/>
				<g>
					<path fill-rule="evenodd" clip-rule="evenodd" fill="#F9A98C" d="M63.27-137.512c0.146-0.277,0.356-0.43,0.628-0.459
						c0.273-0.03,0.514,0.058,0.723,0.263c0.209,0.206,0.342,0.477,0.399,0.815l0.763,5.33c0.057,0.338,0.005,0.637-0.156,0.897
						c-0.146,0.277-0.348,0.438-0.606,0.485c-0.272,0.029-0.521-0.067-0.745-0.289c-0.209-0.205-0.342-0.477-0.399-0.815
						l-0.764-5.331C63.057-136.953,63.109-137.252,63.27-137.512z"/>
					<path fill-rule="evenodd" clip-rule="evenodd" fill="#F9A98C" d="M62.733-136.282l0.842,5.933
						c0.038,0.385-0.009,0.724-0.14,1.018c-0.146,0.277-0.356,0.446-0.631,0.507c-0.272,0.03-0.513-0.074-0.72-0.311
						c-0.239-0.239-0.377-0.551-0.415-0.936l-0.842-5.933c-0.055-0.37-0.008-0.709,0.14-1.018c0.146-0.277,0.348-0.438,0.605-0.485
						c0.273-0.029,0.513,0.075,0.72,0.312C62.532-136.956,62.678-136.652,62.733-136.282z"/>
					<path fill-rule="evenodd" clip-rule="evenodd" fill="#F9A98C" d="M59.652-129.203l-0.647-4.582
						c-0.027-0.304,0.023-0.572,0.15-0.802c0.159-0.228,0.375-0.357,0.647-0.386c0.258-0.046,0.501,0.009,0.729,0.168
						c0.226,0.19,0.353,0.438,0.38,0.742l0.647,4.582c0.044,0.29-0.006,0.557-0.149,0.802c-0.159,0.229-0.376,0.373-0.651,0.434
						c-0.272,0.029-0.515-0.042-0.726-0.216C59.823-128.666,59.697-128.913,59.652-129.203z"/>
					<path fill-rule="evenodd" clip-rule="evenodd" fill="#F9A98C" d="M59.635-126.815c-0.157,0.196-0.372,0.31-0.644,0.339
						c-0.273,0.03-0.509-0.018-0.707-0.143c-0.213-0.142-0.336-0.333-0.367-0.574l-0.556-3.812
						c-0.032-0.241,0.031-0.459,0.188-0.656c0.173-0.211,0.396-0.332,0.669-0.361c0.273-0.029,0.5,0.025,0.682,0.165
						c0.213,0.142,0.343,0.342,0.389,0.6l0.534,3.786C59.854-127.23,59.792-127.012,59.635-126.815z"/>
				</g>
				<path fill-rule="evenodd" clip-rule="evenodd" fill="#F9A98C" d="M60.758-94.668c0.406-6.67,0.727-11.371,0.962-14.103
					c0.242-2.823,0.391-4.804,0.446-5.942c1.015-2.509,1.7-4.087,2.055-4.734c0.525-0.931,1.231-2.068,2.118-3.413l-0.09-4.13
					c-0.252-3.015-0.644-5.137-1.175-6.368c-4.704,2.591-7.168,4.306-7.394,5.144c-0.171,0.467-0.178,1.379-0.02,2.739
					c0.171,1.462,0.279,2.451,0.323,2.966l0.087,1.512l-0.77,4.99l0.043,0.033c-1.938,9.933-3.273,16.425-4.006,19.478
					L60.758-94.668z"/>
			</g>
			<g>
				<g>
					<path fill-rule="evenodd" clip-rule="evenodd" fill="#F9C3A5" d="M125.956-143.16c0.738,0.812,1.292,2.657,1.661,5.535h0.221
						l0.111,1.107c0.295,1.55,1.107,2.768,2.435,3.653c1.329,0.812,2.767,1.07,4.317,0.775c1.55-0.369,2.768-1.181,3.653-2.436
						c0.885-1.329,1.144-2.768,0.775-4.317l-0.332-1.218c-1.845-5.757-4.096-13.1-6.753-22.029
						c-3.099-8.34-4.833-12.952-5.202-13.838c-2.73-7.971-4.022-13.21-3.875-15.72c0.147-2.362,0.849-5.462,2.103-9.299
						c0.295,0,0.443-0.48,0.443-1.439l1.329-3.1l-0.997,0.222l-1.55,0.11l-2.768,1.439l-0.11,0.111
						c-2.731,0.295-4.354,1.771-4.871,4.428c-0.147,0.369-0.257,2.878-0.332,7.528l-1.882,3.431l1.44,1.993
						c0.074,0.443,0.184,0.775,0.332,0.997c0.147,0.074,0.332,0.185,0.554,0.332h0.11l1.438,1.992l0.997,22.252
						c0.443,3.543,1.402,7.048,2.878,10.517C123.263-147.403,124.554-145.079,125.956-143.16z"/>
					<path fill-rule="evenodd" clip-rule="evenodd" fill="#2A4551" d="M113.004-190.541l-0.111,0.222
						c-0.147,3.321,1.144,5.202,3.875,5.646c0-0.148-0.147-0.48-0.442-0.997c-0.148-0.664,0-1.512,0.442-2.546
						c0.517-1.402,0.775-3.431,0.775-6.088c-0.074-2.436,0.295-4.392,1.107-5.867c0.96-1.771,2.324-2.472,4.096-2.104
						c0.959,0.148,1.771,0.517,2.436,1.107l4.206-3.763c0.886-1.107,0.739-1.624-0.443-1.55c-1.181-0.147-3.247,0.073-6.199,0.665
						l-4.207,0.996c-0.517,0.148-1.033,0.443-1.55,0.886c-1.107,0.96-1.624,2.289-1.55,3.986c0.148,3.321-0.22,5.424-1.107,6.31
						l-2.103-8.746l-0.885,0.222L113.004-190.541z"/>
				</g>
				<g>
					<path fill-rule="evenodd" clip-rule="evenodd" fill="#F1B495" d="M129.61-143.492c0.147,1.329-0.37,3.173-1.55,5.535
						l0.222,0.11l-0.443,0.997c-0.517,1.476-0.442,2.915,0.222,4.316c0.59,1.402,1.624,2.399,3.1,2.989
						c1.476,0.517,2.953,0.443,4.428-0.222c1.476-0.664,2.472-1.734,2.989-3.209l0.332-1.107c1.476-5.905,3.433-13.321,5.867-22.252
						c0.296-1.254,1.292-6.089,2.989-14.501c1.919-8.266,3.58-13.433,4.981-15.499c1.476-2.066,3.728-4.318,6.753-6.752
						c0.517,0.295,0.886,0.332,1.107,0.11c0.147-0.148,0.147-0.48,0-0.997l2.767-1.992l-0.997-0.332l-1.329-0.664l-3.209-0.333
						l-0.112,0.111c-2.436-1.181-4.613-0.812-6.531,1.107c-0.148,0.222-1.55,2.288-4.208,6.199l-3.431,1.882l0.222,2.546
						c-0.222,0.443-0.185,0.96,0.11,1.55v0.11l0.222,2.436l-10.96,19.483c-1.476,3.248-2.509,6.717-3.099,10.406
						C129.535-148.437,129.388-145.779,129.61-143.492z"/>
					<path fill-rule="evenodd" clip-rule="evenodd" fill="#2A4551" d="M144.001-182.681c0.073-0.147,0.11-0.48,0.11-0.996
						c0.221-0.665,0.738-1.329,1.55-1.994c1.254-0.958,2.546-2.619,3.875-4.981c1.18-2.214,2.471-3.727,3.875-4.539
						c1.771-1.033,3.321-0.922,4.648,0.332c0.738,0.665,1.255,1.402,1.55,2.214l2.104-0.332c1.476-0.295,2.619-0.59,3.431-0.885
						c1.329-0.443,1.439-0.923,0.332-1.439c-0.885-0.665-2.804-1.514-5.757-2.547l-4.095-1.328c-0.517-0.148-1.107-0.148-1.772,0
						c-1.402,0.295-2.509,1.181-3.321,2.656c-1.697,3.1-3.063,4.724-4.096,4.872l2.547-8.524l-0.886-0.332l-4.428,10.849
						l-0.221,0.222C141.603-186.703,141.787-184.452,144.001-182.681z"/>
				</g>
				<path fill-rule="evenodd" clip-rule="evenodd" fill="#4CA2B1" d="M135.477-129.654c0.147-1.845-0.997-5.055-3.433-9.631
					c-1.328-2.509-2.619-4.538-3.875-6.088c-1.254-1.476-2.139-2.066-2.656-1.771l-0.111,0.11H95.734
					c-0.369-0.073-0.996-0.11-1.882-0.11c-4.207,0-7.859,1.439-10.958,4.317c-3.1,2.879-4.872,6.42-5.314,10.628v3.763l3.542,12.731
					l20.813,3.543l2.877-5.535c0.812-0.739,1.587-1.587,2.325-2.546l28.119-9.188l-0.11-0.111L135.477-129.654z"/>
			</g>
			<g>
				<path fill-rule="evenodd" clip-rule="evenodd" fill="#7C8E5C" d="M41.8-64.65L51-69c1,0.066,1.867-0.617,2.6-2.05
					c0.767-1.533,1.2-3.417,1.3-5.65v-5.45l5.9-11.9l-6.9-4.15l-5.2,10.7l-0.95-31.65l-21.6-2c-0.4,19.433-0.717,31.316-0.95,35.65
					c-1.467-4.767-2.583-9.733-3.35-14.9c-1-3.333-2.517-5.05-4.55-5.15c-2.033-0.133-3.367,1.517-4,4.95l6.5,28.15
					c0.333,1.434,1.083,2.434,2.25,3c0.167,0.133,0.367,0.217,0.6,0.25l4.1,1.95c0.233-0.067,0.467-0.1,0.7-0.1h0.05l14.3-1.15
					V-64.65z"/>
			</g>
			<g>
				<path fill-rule="evenodd" clip-rule="evenodd" fill="#D8D184" d="M51.45-28.925c-0.396,0.155-0.796,0.314-1.2,0.475
					c0.233-0.066,0.45-0.15,0.65-0.25C51.092-28.777,51.275-28.852,51.45-28.925z M49.15-34.05c0.2,0.333,0.4,0.684,0.6,1.05
					c0.9,1.733,1.567,3.05,2,3.95c2.82-1.299,4.503-2.965,5.05-5c0.367-1.433,0.383-2.816,0.05-4.15
					c-0.233-0.933-0.617-1.783-1.15-2.55V-69.5h-5.85L43-66.25l-0.15,4.7c1.6-0.466,3.283-0.7,5.05-0.7
					c2.2,1.1,3.783,2.483,4.75,4.15c1.033,1.767,1.633,4.25,1.8,7.45c0.067,1.267,0.083,3.716,0.05,7.35v1.6
					c-0.233,0.833-0.633,1.7-1.2,2.6c-0.5,0.833-1.1,1.683-1.8,2.55C50.7-35.583,49.917-34.75,49.15-34.05z"/>
				<path fill-rule="evenodd" clip-rule="evenodd" fill="#F1ED8F" d="M49.15-34.05c-1.067-1.8-2.4-3.483-4-5.05
					c-0.367-0.3-0.75-0.617-1.15-0.95c-0.833-0.733-1.75-1.417-2.75-2.05c-1.267-0.8-2.617-1.533-4.05-2.2v-6.65
					c-0.3-0.2-0.567-0.433-0.8-0.7c-0.7-0.733-1.034-1.633-1-2.7L35.8-67c0.033-1.033,0.4-1.9,1.1-2.6
					c0.066-0.067,0.133-0.133,0.2-0.2h-6.7c-0.233,0-0.467,0.034-0.7,0.1c-0.8,0.233-1.5,0.85-2.1,1.85
					c-0.767,1.3-1.15,2.883-1.15,4.75v23.9c0,0.033,0,0.067,0,0.1c0.033,3.133,1.033,5.883,3,8.25c1.933,2.333,4.367,3.8,7.3,4.4
					c2.4,0.5,4.967,0.45,7.7-0.15c1.633-0.367,3.567-0.983,5.8-1.85c0.404-0.161,0.804-0.32,1.2-0.475
					c0.104-0.044,0.204-0.086,0.3-0.125c-0.433-0.9-1.1-2.216-2-3.95C49.55-33.367,49.35-33.717,49.15-34.05z"/>
				<path fill-rule="evenodd" clip-rule="evenodd" fill="#F4C186" d="M37.1-69.8c-0.066,0.067-0.133,0.133-0.2,0.2
					c-0.7,0.7-1.067,1.567-1.1,2.6l-0.4,12.65c-0.034,1.067,0.3,1.967,1,2.7c0.233,0.267,0.5,0.5,0.8,0.7v6.65
					c1.433,0.667,2.783,1.4,4.05,2.2c1,0.633,1.917,1.317,2.75,2.05c0.4,0.333,0.784,0.65,1.15,0.95c1.6,1.567,2.933,3.25,4,5.05
					c0.767-0.7,1.55-1.533,2.35-2.5c0.7-0.867,1.3-1.716,1.8-2.55c0.566-0.9,0.967-1.767,1.2-2.6v-1.6
					c0.034-3.633,0.017-6.083-0.05-7.35c-0.167-3.2-0.767-5.684-1.8-7.45c-0.967-1.667-2.55-3.05-4.75-4.15
					c-1.767,0-3.45,0.233-5.05,0.7l0.15-4.7v-0.5c0.034-1.067-0.3-1.983-1-2.75c-0.667-0.733-1.5-1.117-2.5-1.15
					C38.567-70.717,37.767-70.434,37.1-69.8z M51-43.6c-0.333,0-0.6-0.117-0.8-0.35c-0.233-0.233-0.35-0.5-0.35-0.8
					c0-0.3,0.117-0.567,0.35-0.8c0.2-0.2,0.467-0.3,0.8-0.3c0.267,0,0.5,0.1,0.7,0.3c0.233,0.233,0.35,0.5,0.35,0.8
					c0,0.3-0.117,0.566-0.35,0.8C51.5-43.717,51.267-43.6,51-43.6z M41.25-44.75c0-0.3,0.117-0.567,0.35-0.8
					c0.2-0.2,0.467-0.3,0.8-0.3c0.267,0,0.5,0.1,0.7,0.3c0.233,0.233,0.35,0.5,0.35,0.8c0,0.3-0.117,0.566-0.35,0.8
					c-0.2,0.233-0.433,0.35-0.7,0.35c-0.333,0-0.6-0.117-0.8-0.35C41.367-44.184,41.25-44.45,41.25-44.75z M46.55-56.55
					c1,0.034,1.833,0.35,2.5,0.95c0.733,0.667,1.15,1.483,1.25,2.45l-7.5-0.05c0.2-0.967,0.633-1.767,1.3-2.4
					C44.833-56.233,45.65-56.55,46.55-56.55z"/>
				<path fill-rule="evenodd" clip-rule="evenodd" fill="#1D183C" d="M51-43.6c0.267,0,0.5-0.117,0.7-0.35
					c0.233-0.233,0.35-0.5,0.35-0.8c0-0.3-0.117-0.567-0.35-0.8c-0.2-0.2-0.433-0.3-0.7-0.3c-0.333,0-0.6,0.1-0.8,0.3
					c-0.233,0.233-0.35,0.5-0.35,0.8c0,0.3,0.117,0.566,0.35,0.8C50.4-43.717,50.667-43.6,51-43.6z M41.25-44.75
					c0,0.3,0.117,0.566,0.35,0.8c0.2,0.233,0.467,0.35,0.8,0.35c0.267,0,0.5-0.117,0.7-0.35c0.233-0.233,0.35-0.5,0.35-0.8
					c0-0.3-0.117-0.567-0.35-0.8c-0.2-0.2-0.433-0.3-0.7-0.3c-0.333,0-0.6,0.1-0.8,0.3C41.367-45.317,41.25-45.05,41.25-44.75z"/>
				<path fill-rule="evenodd" clip-rule="evenodd" fill="#F5F6F6" d="M46.55-56.55c-0.9,0-1.717,0.317-2.45,0.95
					c-0.667,0.633-1.1,1.433-1.3,2.4l7.5,0.05c-0.1-0.967-0.517-1.784-1.25-2.45C48.383-56.2,47.55-56.517,46.55-56.55z"/>
			</g>
			<g>
				<g>
					<path fill-rule="evenodd" clip-rule="evenodd" fill="#F9C3A5" d="M71.406-148.26c0.738,0.812,1.292,2.657,1.661,5.535h0.221
						l0.111,1.107c0.295,1.55,1.107,2.768,2.435,3.653c1.329,0.812,2.767,1.07,4.317,0.775c1.55-0.369,2.768-1.181,3.653-2.436
						c0.885-1.329,1.144-2.768,0.775-4.317l-0.332-1.218c-1.845-5.757-4.096-13.1-6.753-22.029
						c-3.099-8.34-4.833-12.952-5.202-13.838c-2.73-7.971-4.022-13.21-3.875-15.72c0.147-2.362,0.849-5.462,2.103-9.299
						c0.295,0,0.443-0.48,0.443-1.439l1.329-3.1l-0.997,0.222l-1.55,0.11l-2.768,1.439l-0.11,0.111
						c-2.731,0.295-4.354,1.771-4.871,4.428c-0.147,0.369-0.257,2.878-0.332,7.528l-1.882,3.431l1.44,1.993
						c0.074,0.443,0.184,0.775,0.332,0.997c0.147,0.074,0.332,0.185,0.554,0.332h0.11l1.438,1.992l0.997,22.252
						c0.443,3.543,1.402,7.048,2.878,10.517C68.713-152.503,70.004-150.179,71.406-148.26z"/>
					<path fill-rule="evenodd" clip-rule="evenodd" fill="#CC9966" d="M58.455-195.64l-0.111,0.222
						c-0.147,3.321,1.144,5.202,3.875,5.646c0-0.148-0.147-0.48-0.442-0.997c-0.148-0.664,0-1.512,0.442-2.546
						c0.517-1.402,0.775-3.431,0.775-6.088c-0.074-2.436,0.295-4.392,1.107-5.867c0.96-1.771,2.324-2.472,4.096-2.104
						c0.959,0.148,1.771,0.517,2.436,1.107l4.206-3.763c0.886-1.107,0.739-1.624-0.443-1.55c-1.181-0.147-3.247,0.073-6.199,0.665
						l-4.207,0.996c-0.517,0.148-1.033,0.443-1.55,0.886c-1.107,0.96-1.624,2.289-1.55,3.986c0.148,3.321-0.22,5.424-1.107,6.31
						l-2.103-8.746l-0.885,0.222L58.455-195.64z"/>
				</g>
				<g>
					<path fill-rule="evenodd" clip-rule="evenodd" fill="#F1B495" d="M75.06-148.591c0.147,1.329-0.37,3.173-1.55,5.535l0.222,0.11
						l-0.443,0.997c-0.517,1.476-0.442,2.915,0.222,4.316c0.59,1.402,1.624,2.399,3.1,2.989c1.476,0.517,2.953,0.443,4.428-0.222
						c1.476-0.664,2.472-1.734,2.989-3.209l0.332-1.107c1.476-5.905,3.433-13.321,5.867-22.252
						c0.296-1.254,1.292-6.089,2.989-14.501c1.919-8.266,3.58-13.433,4.981-15.499c1.476-2.066,3.728-4.318,6.753-6.752
						c0.517,0.295,0.886,0.332,1.107,0.11c0.147-0.148,0.147-0.48,0-0.997l2.767-1.992l-0.997-0.332l-1.329-0.664l-3.209-0.333
						l-0.112,0.111c-2.436-1.181-4.613-0.812-6.531,1.107c-0.148,0.222-1.55,2.288-4.208,6.199l-3.431,1.882l0.222,2.546
						c-0.222,0.443-0.185,0.96,0.11,1.55v0.11l0.222,2.436l-10.96,19.483c-1.476,3.248-2.509,6.717-3.099,10.406
						C74.985-153.537,74.838-150.879,75.06-148.591z"/>
					<path fill-rule="evenodd" clip-rule="evenodd" fill="#CC9966" d="M88.962-187.902c0.078-0.129,0.117-0.452,0.117-0.968
						c0.207-0.671,0.723-1.343,1.549-2.014c1.239-0.955,2.53-2.607,3.873-4.957c1.162-2.22,2.452-3.743,3.873-4.569
						c1.755-1.033,3.304-0.917,4.647,0.348c0.723,0.671,1.239,1.407,1.549,2.208l2.091-0.348c1.472-0.284,2.621-0.568,3.447-0.852
						c1.316-0.465,1.419-0.956,0.31-1.472c-0.878-0.646-2.788-1.484-5.731-2.517l-4.105-1.355c-0.517-0.129-1.11-0.129-1.781,0
						c-1.394,0.31-2.504,1.201-3.33,2.672c-1.679,3.098-3.034,4.725-4.066,4.88l2.517-8.52l-0.891-0.349l-4.415,10.843l-0.232,0.232
						C86.549-191.903,86.742-189.657,88.962-187.902z"/>
				</g>
				<path fill-rule="evenodd" clip-rule="evenodd" fill="#653614" d="M80.927-134.754c0.147-1.845-0.997-5.055-3.433-9.631
					c-1.328-2.509-2.619-4.538-3.875-6.088c-1.254-1.476-2.139-2.066-2.656-1.771l-0.111,0.11H41.185
					c-0.369-0.073-0.996-0.11-1.882-0.11c-4.207,0-7.859,1.439-10.958,4.317c-3.1,2.879-4.872,6.42-5.314,10.628v3.763l3.542,12.731
					l20.813,3.543l2.877-5.535c0.812-0.739,1.587-1.587,2.325-2.546l28.119-9.188l-0.11-0.111L80.927-134.754z"/>
			</g>
			<g>
				<g>
					<path fill-rule="evenodd" clip-rule="evenodd" fill="#E7E8E8" d="M41.174-64.998l0.125,1.503l6.64-0.375
						c1.253-0.083,1.754-0.96,1.504-2.632V-80.91h-1.253v14.408l-0.375,1.128L41.174-64.998z"/>
					<g>
						<polygon fill-rule="evenodd" clip-rule="evenodd" fill="#383635" points="48.816,-65.625 49.317,-65.499 49.442,-65.625 
							48.816,-65.875 48.314,-66 48.189,-66 48.314,-65.875 						"/>
					</g>
					<g>
						<polygon fill-rule="evenodd" clip-rule="evenodd" fill="#383635" points="49.066,-64.623 49.191,-64.623 49.191,-64.747 
							48.565,-65.249 47.938,-65.499 						"/>
					</g>
				</g>
				<g>
					<polygon fill-rule="evenodd" clip-rule="evenodd" fill="#E7E8E8" points="56.708,-71.889 54.955,-91.559 50.946,-91.559 
						50.946,-71.889 					"/>
					<polygon fill-rule="evenodd" clip-rule="evenodd" fill="#F2F3F3" points="45.182,-71.889 50.946,-71.889 50.946,-91.559 
						46.937,-91.559 					"/>
					<polygon fill-rule="evenodd" clip-rule="evenodd" fill="#B23B39" points="50.946,-83.039 50.946,-76.148 56.333,-76.148 
						55.707,-83.039 					"/>
					<polygon fill-rule="evenodd" clip-rule="evenodd" fill="#E47237" points="50.946,-83.039 46.185,-83.039 45.559,-76.148 
						50.946,-76.148 					"/>
					<polygon fill-rule="evenodd" clip-rule="evenodd" fill="#B23B39" points="44.933,-72.14 44.933,-71.136 56.959,-71.136 
						56.959,-72.14 					"/>
					<path fill-rule="evenodd" clip-rule="evenodd" fill="#B23B39" d="M45.559-70.385c0,0.167,1.794,0.251,5.387,0.251
						c3.591,0,5.387-0.083,5.387-0.251v-0.877H45.559V-70.385z"/>
				</g>
			</g>
			
				<use xlink:href="#flash0.ai_x5F_0_x2F_Layer_3_x2F__x3C_Clip_Group_0_x3E_"  width="84.772" height="153.135" x="-115.871" y="-161.887" transform="matrix(0.7184 0 0 0.7184 143.7998 -17.7002)" overflow="visible"/>
			<g>
				<path fill-rule="evenodd" clip-rule="evenodd" fill="#F9A98C" d="M39.516-84.688l0.064-0.933
					c0.895-0.671,2.001-0.627,3.319,0.13c0.663,0.389,1.253,1.05,1.77,1.981c0.254,0.456,0.446,0.875,0.575,1.26
					c-0.06,0.943,0.267,1.733,0.98,2.369c0.354,0.343,0.713,0.575,1.076,0.697c0.663,0.51,0.93,1.179,0.799,2.005
					c-0.055,0.409-0.191,0.766-0.409,1.07c-0.229-0.393-0.615-0.844-1.157-1.354l-0.732-0.652c-1.327-0.537-2.683-1.509-4.067-2.918
					l-1.682-1.944C39.728-83.429,39.549-84,39.516-84.688z"/>
				<g>
					<path fill-rule="evenodd" clip-rule="evenodd" fill="#F9A98C" d="M55.463-81.204c0.212,0.23,0.288,0.479,0.224,0.746
						c-0.063,0.267-0.226,0.465-0.489,0.594c-0.264,0.129-0.564,0.164-0.902,0.105l-5.284-1.053
						c-0.338-0.059-0.603-0.208-0.795-0.445c-0.212-0.23-0.298-0.475-0.256-0.733c0.063-0.267,0.237-0.47,0.521-0.607
						c0.263-0.129,0.563-0.164,0.902-0.105l5.284,1.053C55.006-81.59,55.271-81.442,55.463-81.204z"/>
					<path fill-rule="evenodd" clip-rule="evenodd" fill="#F9A98C" d="M54.481-82.119l-5.879-1.179
						c-0.376-0.092-0.68-0.25-0.914-0.471c-0.213-0.23-0.302-0.485-0.269-0.765c0.063-0.267,0.241-0.459,0.533-0.576
						c0.305-0.146,0.646-0.172,1.021-0.08l5.879,1.18c0.368,0.071,0.672,0.228,0.914,0.471c0.213,0.229,0.298,0.474,0.256,0.733
						c-0.063,0.267-0.241,0.459-0.534,0.576C55.184-82.085,54.848-82.048,54.481-82.119z"/>
					<path fill-rule="evenodd" clip-rule="evenodd" fill="#F9A98C" d="M48.826-87.381l4.539,0.914
						c0.296,0.076,0.532,0.212,0.708,0.408c0.162,0.226,0.212,0.472,0.149,0.739c-0.042,0.259-0.176,0.469-0.401,0.632
						c-0.255,0.15-0.531,0.187-0.827,0.112l-4.539-0.915c-0.288-0.055-0.524-0.19-0.707-0.408c-0.163-0.226-0.227-0.479-0.193-0.758
						c0.063-0.267,0.211-0.472,0.446-0.613C48.262-87.399,48.538-87.436,48.826-87.381z"/>
					<path fill-rule="evenodd" clip-rule="evenodd" fill="#F9A98C" d="M46.579-88.192c-0.133-0.213-0.168-0.454-0.105-0.72
						c0.063-0.267,0.187-0.474,0.371-0.62c0.205-0.154,0.426-0.206,0.664-0.156l3.782,0.744c0.238,0.05,0.423,0.182,0.557,0.395
						c0.142,0.234,0.181,0.485,0.118,0.752s-0.191,0.463-0.383,0.588c-0.205,0.154-0.437,0.21-0.695,0.168l-3.75-0.756
						C46.897-87.848,46.712-87.979,46.579-88.192z"/>
				</g>
				<path fill-rule="evenodd" clip-rule="evenodd" fill="#F9A98C" d="M22.112-103.313c3.058,1.662,7.87,4.839,14.435,9.533
					l0.032-0.013l4.462,2.361l1.446,0.44c0.492,0.143,1.467,0.372,2.924,0.687c1.327,0.294,2.189,0.604,2.585,0.93
					c0.685,0.502,1.484,3.391,2.4,8.665c-1.353,0.128-3.484-0.209-6.393-1.011l-3.95-1.258c-0.971-1.283-1.811-2.328-2.52-3.135
					c-0.467-0.564-1.735-1.741-3.803-3.531c-1.269-0.39-3.466-1.136-6.592-2.238c-3.438-1.22-6.345-2.289-8.72-3.206
					c-0.25-0.022-0.622-0.104-1.114-0.246c-1.231-0.478-2.109-1.314-2.633-2.509c-0.537-1.166-0.582-2.37-0.133-3.614
					c0.457-1.222,1.283-2.096,2.477-2.621c1.187-0.545,2.391-0.59,3.614-0.133C21.225-103.988,21.72-103.689,22.112-103.313z"/>
			</g>
		</g>
	</g>
</symbol>
<g>
	<g id="Layer_2">
	</g>
	<g id="Layer_3">
		
			<use xlink:href="#sovet"  width="353.101" height="217.911" x="-0.021" y="-217.896" transform="matrix(1.1398 0 0 -1.1398 2.4668 2.751)" overflow="visible"/>
	</g>
</g>
</svg>
