<?xml version="1.0" encoding="utf-8"?>
<!-- Generator: Adobe Illustrator 15.1.0, SVG Export Plug-In . SVG Version: 6.00 Build 0)  -->
<!DOCTYPE svg PUBLIC "-//W3C//DTD SVG 1.1//EN" "http://www.w3.org/Graphics/SVG/1.1/DTD/svg11.dtd">
<svg version="1.1" id="Layer_1" xmlns="http://www.w3.org/2000/svg" xmlns:xlink="http://www.w3.org/1999/xlink" x="0px" y="0px"
	 width="395.724px" height="200.552px" viewBox="0 0 395.724 200.552" enable-background="new 0 0 395.724 200.552"
	 xml:space="preserve">
<g id="Layer_1_1_">
	<g>
		<g>
			<g>
				<path fill-rule="evenodd" clip-rule="evenodd" fill="#FFCB67" d="M143.997,6.172c6.579,0.72,12.266,2.36,17.058,4.921
					c5.347,2.839,10.41,7.249,15.188,13.23h0.022c9.902,12.448,13.67,26.696,11.301,42.744v0.021
					c-2.535,16.007-10.388,28.447-23.561,37.322h-0.021c-1.621,1.081-3.36,2.051-5.215,2.907l19.281,26.753l-0.312,1.828
					c-0.415,1.314-1.143,2.228-2.181,2.74c-1.04,0.526-2.114,0.615-3.222,0.27l-1.349-0.685l-16.456-29.223
					c-0.32,0.11-0.63,0.215-0.936,0.312c-2.216,0.72-4.495,1.287-6.835,1.703c-0.817,0.138-1.642,0.271-2.474,0.396v-0.022
					c-0.927,0.222-2.236,0.347-3.926,0.374c-5.583,0.333-10.749-0.158-15.5-1.474c-1.51-0.416-3.025-0.928-4.551-1.537v-5.836
					c1.441,0.483,2.922,0.907,4.447,1.266c12.423,2.949,24.025,0.831,34.801-6.355c11.29-7.615,18-18.262,20.134-31.943
					c2.063-13.748-1.15-25.94-9.642-36.574v-0.021c-6.981-8.724-15.666-14.061-26.054-16.013V6.172z"/>
				<g>
					<path fill-rule="evenodd" clip-rule="evenodd" fill="#FFCB67" d="M144.081,139.304l-0.812-0.956l-2.908-25.359l-0.728-5.026
						c1.275,0.416,2.542,0.763,3.804,1.039l6.586,28.433l-0.811,1.288c-0.734,0.873-1.586,1.345-2.556,1.412
						C145.673,140.203,144.814,139.927,144.081,139.304z"/>
				</g>
				<g>
					<path fill-rule="evenodd" clip-rule="evenodd" fill="#FFCB67" d="M117.672,105.407c0.831,1.19,1.71,2.334,2.638,3.427
						l-13.213,29.369l-1.6,0.581c-1.232,0.264-2.292,0.104-3.179-0.477c-0.9-0.583-1.461-1.393-1.683-2.431l-0.083-1.37
						l14.752-24.821L117.672,105.407z"/>
				</g>
			</g>
			<g>
				<path fill-rule="evenodd" clip-rule="evenodd" fill="#EC2024" d="M135.458,4.697l1.807,0.165
					c7.536,0.567,13.97,2.277,19.302,5.131c5.347,2.838,10.41,7.248,15.188,13.229h0.021c9.903,12.449,13.672,26.697,11.303,42.745
					v0.021c-2.536,16.006-10.388,28.447-23.562,37.322h-0.021c-5.429,3.587-11.863,5.898-19.302,6.937
					c-7.133,0.983-13.74,0.631-19.821-1.059c-5.79-1.605-11.663-4.568-17.62-8.889c-5.914-4.307-10.256-8.729-13.025-13.271
					c-3.56-5.899-5.963-11.978-7.21-18.236c-1.261-6.3-1.358-12.871-0.291-19.711c2.12-14.011,8.29-25.303,18.513-33.874
					c5.056-4.251,10.817-7.207,17.286-8.869C123.178,4.994,128.989,4.448,135.458,4.697z M142.708,44.845v-0.022
					c-3.49-4.277-7.965-6.624-13.422-7.039c-5.098-0.389-9.647,1.079-13.651,4.403c-3.836,3.156-6.128,7.22-6.876,12.191
					c-0.777,4.971,0.18,9.56,2.867,13.77c2.827,4.361,6.739,7.131,11.739,8.308c5.319,1.26,10.285,0.381,14.897-2.639
					c4.806-3.226,7.66-7.725,8.561-13.499C147.695,54.516,146.324,49.358,142.708,44.845z M114.971,39.34
					c2.147-1.8,4.605-3.06,7.376-3.78c2.202-0.54,4.696-0.754,7.479-0.645l0.77,0.063c3.212,0.264,5.962,0.984,8.247,2.16
					c2.273,1.206,4.433,3.074,6.483,5.608h0.021c4.252,5.274,5.873,11.306,4.862,18.09c-1.08,6.758-4.439,11.999-10.077,15.724
					h-0.021c-2.301,1.537-5.043,2.519-8.228,2.949c-3.047,0.414-5.874,0.27-8.478-0.437c-2.48-0.691-4.993-1.96-7.542-3.801
					c-2.521-1.814-4.376-3.684-5.568-5.607c-1.524-2.479-2.555-5.04-3.096-7.686c-0.54-2.672-0.588-5.456-0.146-8.35
					C107.956,47.717,110.594,42.954,114.971,39.34z M132.279,21.354l1.226,0.125c5.125,0.4,9.502,1.571,13.131,3.509
					c3.657,1.939,7.105,4.938,10.347,8.994h0.021c6.746,8.488,9.302,18.194,7.667,29.119v0.021
					c-1.69,10.869-7.037,19.329-16.04,25.38h-0.021c-3.686,2.451-8.062,4.028-13.133,4.735c-4.848,0.69-9.343,0.463-13.483-0.687
					c-3.935-1.121-7.931-3.149-11.989-6.084c-4.031-2.922-6.988-5.927-8.872-9.015c-2.424-4.016-4.066-8.155-4.924-12.42
					c-0.845-4.307-0.915-8.786-0.207-13.438c1.44-9.526,5.643-17.211,12.61-23.054c3.45-2.907,7.376-4.93,11.781-6.065
					C123.898,21.547,127.86,21.174,132.279,21.354z M132.923,52.321c1.288,1.564,1.834,3.357,1.641,5.378
					c-0.208,2.05-1.094,3.727-2.66,5.027c-1.565,1.315-3.353,1.883-5.36,1.703c-1.996-0.166-3.636-1.025-4.925-2.576
					c-1.261-1.551-1.787-3.35-1.579-5.399c0.194-2.021,1.059-3.69,2.596-5.005c1.595-1.316,3.387-1.892,5.382-1.725
					C130.028,49.904,131.663,50.771,132.923,52.321z M109.694,33.109c-6.122,5.123-9.787,11.692-10.992,19.71
					c-1.246,7.989,0.285,15.375,4.593,22.161c4.447,7.02,10.658,11.486,18.637,13.397c8.463,2.007,16.366,0.56,23.707-4.343
					c7.688-5.178,12.258-12.433,13.712-21.765c1.385-9.347-0.81-17.642-6.585-24.882l0.021-0.022
					c-5.542-6.908-12.654-10.695-21.339-11.359C123.289,25.383,116.039,27.751,109.694,33.109z M102.317,21.936h-0.021
					c-8.99,7.519-14.377,17.169-16.164,28.953c-1.801,11.741,0.449,22.582,6.751,32.523c6.524,10.316,15.653,16.872,27.385,19.67
					c12.424,2.948,24.024,0.83,34.802-6.356c11.288-7.615,17.999-18.263,20.131-31.943c2.065-13.749-1.15-25.94-9.64-36.575v-0.021
					c-8.117-10.149-18.547-15.723-31.292-16.719C122.264,10.582,111.612,14.071,102.317,21.936z"/>
				<path fill-rule="evenodd" clip-rule="evenodd" fill="#E3E3E3" d="M132.279,21.354c-4.419-0.18-8.381,0.193-11.886,1.121
					c-4.405,1.136-8.331,3.158-11.781,6.065c-6.967,5.843-11.17,13.527-12.61,23.054c-0.708,4.652-0.638,9.132,0.207,13.438
					c0.858,4.265,2.5,8.404,4.924,12.42c1.884,3.088,4.841,6.093,8.872,9.015c4.058,2.935,8.054,4.963,11.989,6.084
					c4.14,1.149,8.635,1.377,13.483,0.687c5.071-0.707,9.447-2.284,13.133-4.735h0.021c9.003-6.051,14.349-14.511,16.04-25.38
					v-0.021c1.635-10.925-0.921-20.631-7.667-29.119h-0.021c-3.242-4.056-6.69-7.055-10.347-8.994
					c-3.629-1.938-8.006-3.108-13.131-3.509L132.279,21.354z M114.971,39.34c-4.377,3.614-7.016,8.377-7.917,14.289
					c-0.442,2.894-0.394,5.678,0.146,8.35c0.541,2.646,1.572,5.207,3.096,7.686c1.191,1.924,3.046,3.793,5.568,5.607
					c2.549,1.841,5.062,3.109,7.542,3.801c2.604,0.706,5.431,0.851,8.478,0.437c3.185-0.431,5.927-1.412,8.228-2.949h0.021
					c5.638-3.725,8.997-8.966,10.077-15.724c1.011-6.784-0.61-12.815-4.862-18.09h-0.021c-2.05-2.534-4.21-4.402-6.483-5.608
					c-2.285-1.176-5.035-1.896-8.247-2.16l-0.77-0.063c-2.783-0.109-5.278,0.104-7.479,0.645
					C119.577,36.28,117.119,37.54,114.971,39.34z M142.708,44.845c3.616,4.514,4.987,9.671,4.114,15.473
					c-0.901,5.774-3.755,10.273-8.561,13.499c-4.612,3.02-9.578,3.898-14.897,2.639c-5-1.177-8.913-3.946-11.739-8.308
					c-2.687-4.21-3.644-8.799-2.867-13.77c0.748-4.972,3.041-9.035,6.876-12.191c4.004-3.324,8.553-4.792,13.651-4.403
					c5.457,0.415,9.932,2.762,13.422,7.039V44.845z M132.923,52.321c-1.26-1.551-2.895-2.417-4.904-2.597
					c-1.995-0.167-3.787,0.408-5.382,1.725c-1.537,1.314-2.402,2.984-2.596,5.005c-0.208,2.05,0.318,3.849,1.579,5.399
					c1.289,1.551,2.929,2.41,4.925,2.576c2.007,0.18,3.794-0.388,5.36-1.703c1.566-1.301,2.451-2.978,2.66-5.027
					C134.757,55.679,134.21,53.886,132.923,52.321z M102.317,21.936c9.294-7.864,19.946-11.354,31.955-10.468
					c12.744,0.996,23.175,6.569,31.292,16.719v0.021c8.49,10.635,11.705,22.826,9.64,36.575
					c-2.132,13.681-8.843,24.328-20.131,31.943c-10.778,7.187-22.378,9.305-34.802,6.356c-11.732-2.798-20.861-9.354-27.385-19.67
					c-6.302-9.941-8.552-20.782-6.751-32.523c1.787-11.784,7.174-21.435,16.164-28.953H102.317z M109.694,33.109
					c6.345-5.358,13.595-7.727,21.753-7.103c8.686,0.664,15.798,4.451,21.339,11.359l-0.021,0.022
					c5.776,7.24,7.971,15.535,6.585,24.882c-1.454,9.332-6.024,16.587-13.712,21.765c-7.341,4.902-15.244,6.35-23.707,4.343
					c-7.979-1.911-14.19-6.378-18.637-13.397c-4.308-6.786-5.838-14.172-4.593-22.161C99.907,44.802,103.572,38.232,109.694,33.109z
					"/>
			</g>
			<g>
				<g>
					<path fill-rule="evenodd" clip-rule="evenodd" fill="#FFCB67" d="M7.978,78.119c-0.649,0.096-1.239-0.056-1.767-0.454
						c-0.536-0.393-0.858-0.914-0.96-1.563c-0.095-0.649,0.056-1.238,0.455-1.769c0.393-0.536,0.916-0.855,1.565-0.959
						l75.945-11.608c0.649-0.095,1.239,0.056,1.767,0.454c0.537,0.393,0.857,0.914,0.959,1.564c0.097,0.648-0.055,1.236-0.454,1.768
						c-0.392,0.535-0.916,0.854-1.564,0.959L7.978,78.119z"/>
				</g>
				<g>
					<polygon fill-rule="evenodd" clip-rule="evenodd" fill="#676767" points="81.312,62.582 100.551,59.59 81.458,69.248 					"/>
					<path fill-rule="evenodd" clip-rule="evenodd" fill="#CCCBCB" d="M100.551,59.59l-19.24,2.992l-3.076-5.692
						c1.415-0.082,4.441,0.202,9.082,0.852C91.943,58.393,96.354,59.009,100.551,59.59z"/>
				</g>
				<g>
					<path fill-rule="evenodd" clip-rule="evenodd" fill="#EC2024" d="M24.154,76.311c-1.316,1.495-2.763,2.638-4.343,3.426
						c-1.564,0.762-5.941,1.537-13.13,2.326l6.586-7.518l14.669-2.224C26.729,73.457,25.469,74.786,24.154,76.311z"/>
				</g>
				<g>
					<path fill-rule="evenodd" clip-rule="evenodd" fill="#EC2024" d="M22.451,66.59c1.703,1.065,3.296,1.958,4.778,2.679
						L12.581,71.49l-8.457-5.42c7.05-1.26,11.441-1.752,13.173-1.475C19.042,64.873,20.76,65.537,22.451,66.59z"/>
				</g>
			</g>
		</g>
		<g>
			<g>
				<g>
					<path fill-rule="evenodd" clip-rule="evenodd" fill="#FFCB67" d="M48.567,100.153c0.426-0.583,0.995-0.932,1.701-1.044
						l82.59-12.625c0.704-0.104,1.345,0.062,1.921,0.494c0.584,0.427,0.932,0.993,1.043,1.701c0.104,0.705-0.061,1.345-0.494,1.922
						c-0.427,0.583-0.996,0.931-1.703,1.042L51.038,104.27c-0.706,0.104-1.347-0.062-1.921-0.494
						c-0.584-0.426-0.932-0.994-1.043-1.702C47.969,101.369,48.134,100.729,48.567,100.153z"/>
				</g>
				<g>
					<polygon fill-rule="evenodd" clip-rule="evenodd" fill="#676767" points="131.266,89.339 152.188,86.045 131.431,96.585 					
						"/>
					<path fill-rule="evenodd" clip-rule="evenodd" fill="#CCCBCB" d="M152.188,86.045l-20.922,3.294l-3.351-6.202
						c1.538-0.109,4.833,0.201,9.884,0.933C142.815,84.764,147.61,85.423,152.188,86.045z"/>
				</g>
				<g>
					<path fill-rule="evenodd" clip-rule="evenodd" fill="#EC2024" d="M50.049,110.526l7.193-8.178l15.925-2.416
						c-1.282,1.208-2.635,2.654-4.063,4.337c-1.428,1.61-3.003,2.836-4.723,3.679C62.661,108.789,57.883,109.649,50.049,110.526z"/>
				</g>
				<g>
					<path fill-rule="evenodd" clip-rule="evenodd" fill="#EC2024" d="M47.304,93.127c7.651-1.391,12.429-1.94,14.333-1.647
						c1.903,0.329,3.77,1.062,5.6,2.196c1.831,1.171,3.569,2.141,5.217,2.909L56.474,99L47.304,93.127z"/>
				</g>
			</g>
			<g>
				<g>
					<path fill-rule="evenodd" clip-rule="evenodd" fill="#FFCB67" d="M251.625,23.313v-7.742c7.176,0.77,13.362,2.545,18.561,5.326
						c5.819,3.11,11.331,7.922,16.527,14.436c10.801,13.505,14.9,28.983,12.303,46.44v0.055
						c-2.746,17.419-11.275,30.941-25.59,40.565h-0.056c-1.756,1.172-3.641,2.232-5.655,3.184l20.979,29.093l-0.333,1.977
						c-0.475,1.428-1.279,2.434-2.414,3.019c-1.099,0.549-2.253,0.642-3.461,0.274l-1.48-0.768l-17.902-31.783
						c-0.366,0.146-0.714,0.257-1.043,0.329c-2.38,0.806-4.851,1.428-7.414,1.867c-0.879,0.146-1.775,0.292-2.691,0.439
						c-1.023,0.219-2.452,0.347-4.283,0.384c-6.076,0.365-11.694-0.165-16.856-1.592c-1.647-0.476-3.295-1.044-4.942-1.702v-6.312
						c1.574,0.511,3.184,0.969,4.832,1.372c13.509,3.22,26.139,0.914,37.89-6.917c12.263-8.271,19.55-19.853,21.855-34.748
						c2.27-14.967-1.227-28.232-10.488-39.796C272.383,31.235,262.939,25.435,251.625,23.313z"/>
					<g>
						<path fill-rule="evenodd" clip-rule="evenodd" fill="#FFCB67" d="M251.021,127.389l7.195,30.961l-0.879,1.372
							c-0.807,0.95-1.738,1.462-2.8,1.535c-1.063,0.073-1.996-0.219-2.802-0.878l-0.879-1.043l-3.954-33.046
							C248.296,126.73,249.667,127.096,251.021,127.389z"/>
					</g>
					<g>
						<path fill-rule="evenodd" clip-rule="evenodd" fill="#FFCB67" d="M225.873,127.225l-14.388,31.947l-1.702,0.604
							c-1.355,0.293-2.508,0.128-3.459-0.494c-0.989-0.622-1.611-1.5-1.867-2.635l-0.055-1.481l18.615-31.674
							C223.932,124.81,224.884,126.054,225.873,127.225z"/>
					</g>
				</g>
				<g>
					<path fill-rule="evenodd" clip-rule="evenodd" fill="#EC2024" d="M204.565,25.397c5.528-4.61,11.808-7.831,18.837-9.66
						c5.601-1.464,11.914-2.051,18.943-1.757l1.979,0.164c8.199,0.623,15.192,2.49,20.975,5.601
						c5.822,3.073,11.331,7.868,16.529,14.382h0.057c10.761,13.539,14.845,29.038,12.244,46.494
						c-2.747,17.419-11.275,30.959-25.59,40.62h-0.053c-5.895,3.879-12.887,6.386-20.979,7.521
						c-7.762,1.062-14.954,0.677-21.581-1.153c-6.296-1.757-12.683-4.977-19.163-9.66c-6.407-4.686-11.129-9.497-14.168-14.437
						c-3.844-6.405-6.443-13.011-7.798-19.817c-1.392-6.881-1.501-14.034-0.329-21.463
						C186.773,47.007,193.474,34.729,204.565,25.397z M268.319,76.559c1.538-10.137-0.842-19.157-7.139-27.063
						c-6.003-7.501-13.728-11.618-23.173-12.35c-8.896-0.695-16.785,1.885-23.667,7.739c-6.662,5.563-10.653,12.699-11.972,21.408
						c-1.354,8.711,0.311,16.743,4.998,24.098c4.832,7.649,11.588,12.516,20.262,14.603c9.227,2.159,17.831,0.584,25.811-4.722
						C261.785,94.637,266.747,86.731,268.319,76.559z M254.702,74.473c0.95-6.331-0.53-11.948-4.447-16.854
						c-3.808-4.647-8.678-7.208-14.609-7.684c-5.562-0.403-10.505,1.188-14.825,4.775c-4.173,3.439-6.682,7.867-7.522,13.284
						c-0.843,5.415,0.202,10.412,3.129,14.984c3.077,4.722,7.34,7.723,12.797,9.005c5.782,1.39,11.183,0.438,16.198-2.855
						C250.655,85.615,253.75,80.73,254.702,74.473z M246.024,49.222c2.489,1.318,4.852,3.367,7.085,6.148
						c4.613,5.708,6.37,12.259,5.271,19.651c-1.171,7.354-4.813,13.064-10.928,17.127h-0.054c-2.489,1.646-5.475,2.708-8.951,3.183
						c-3.296,0.439-6.372,0.274-9.225-0.494c-2.675-0.731-5.401-2.104-8.184-4.117c-2.745-1.976-4.759-4.008-6.04-6.092
						c-1.648-2.709-2.782-5.49-3.404-8.345c-0.586-2.928-0.623-5.965-0.11-9.111c0.952-6.44,3.808-11.618,8.567-15.534
						c2.342-1.94,5.015-3.313,8.017-4.117c2.417-0.586,5.144-0.824,8.182-0.715l0.825,0.11
						C240.552,47.172,243.535,47.94,246.024,49.222z M225.982,33.303c3.807-1.023,8.108-1.427,12.903-1.208l1.319,0.11
						c5.6,0.439,10.379,1.721,14.333,3.843c3.954,2.087,7.706,5.343,11.257,9.771c7.322,9.222,10.103,19.779,8.346,31.674
						c-1.83,11.819-7.65,21.023-17.461,27.61c-4.029,2.672-8.787,4.391-14.277,5.16c-5.273,0.768-10.178,0.512-14.718-0.77
						c-4.247-1.207-8.585-3.403-13.015-6.587c-4.393-3.183-7.615-6.459-9.664-9.825c-2.637-4.354-4.411-8.857-5.327-13.505
						c-0.914-4.684-0.987-9.549-0.219-14.601c1.537-10.355,6.096-18.719,13.673-25.086
						C216.902,36.742,221.187,34.547,225.982,33.303z M241.083,21.336c-13.069-0.987-24.656,2.799-34.759,11.363h-0.057
						c-9.773,8.197-15.631,18.699-17.571,31.509c-1.94,12.771,0.512,24.555,7.358,35.351c7.102,11.234,17.023,18.37,29.764,21.408
						c13.508,3.221,26.137,0.914,37.891-6.917c12.262-8.271,19.547-19.853,21.853-34.748c2.271-14.93-1.226-28.196-10.486-39.796
						C266.25,28.454,254.922,22.398,241.083,21.336z M234.273,62.945c2.197,0.183,3.973,1.115,5.327,2.799
						c1.393,1.72,1.977,3.678,1.756,5.874c-0.218,2.231-1.17,4.044-2.853,5.435c-1.722,1.463-3.662,2.085-5.822,1.865
						c-2.195-0.182-3.991-1.115-5.381-2.799c-1.355-1.684-1.922-3.641-1.703-5.874c0.221-2.196,1.153-4.007,2.801-5.434
						C230.155,63.384,232.116,62.762,234.273,62.945z"/>
					<path fill-rule="evenodd" clip-rule="evenodd" fill="#E3E3E3" d="M241.083,21.336c13.84,1.063,25.168,7.118,33.992,18.17
						c9.261,11.6,12.757,24.866,10.486,39.796c-2.306,14.896-9.591,26.478-21.853,34.748c-11.754,7.831-24.383,10.138-37.891,6.917
						c-12.74-3.038-22.662-10.174-29.764-21.408c-6.846-10.796-9.298-22.58-7.358-35.351c1.94-12.81,7.798-23.312,17.571-31.509
						h0.057C216.426,24.135,228.013,20.349,241.083,21.336z M225.982,33.303c-4.795,1.244-9.08,3.439-12.85,6.587
						c-7.577,6.367-12.137,14.73-13.673,25.086c-0.768,5.052-0.695,9.917,0.219,14.601c0.916,4.647,2.69,9.15,5.327,13.505
						c2.049,3.366,5.271,6.643,9.664,9.825c4.43,3.184,8.768,5.38,13.015,6.587c4.54,1.281,9.444,1.537,14.718,0.77
						c5.49-0.77,10.248-2.488,14.277-5.16c9.811-6.587,15.631-15.791,17.461-27.61c1.757-11.895-1.023-22.452-8.346-31.674
						c-3.551-4.428-7.303-7.684-11.257-9.771c-3.954-2.122-8.733-3.403-14.333-3.843l-1.319-0.11
						C234.09,31.876,229.789,32.279,225.982,33.303z M246.024,49.222c-2.489-1.281-5.472-2.05-8.948-2.306l-0.825-0.11
						c-3.038-0.109-5.765,0.129-8.182,0.715c-3.002,0.804-5.675,2.177-8.017,4.117c-4.76,3.916-7.615,9.094-8.567,15.534
						c-0.513,3.146-0.476,6.184,0.11,9.111c0.622,2.854,1.756,5.636,3.404,8.345c1.281,2.084,3.295,4.116,6.04,6.092
						c2.782,2.014,5.509,3.386,8.184,4.117c2.853,0.769,5.929,0.934,9.225,0.494c3.477-0.475,6.462-1.537,8.951-3.183h0.054
						c6.114-4.063,9.757-9.772,10.928-17.127c1.099-7.393-0.658-13.943-5.271-19.651C250.875,52.589,248.513,50.54,246.024,49.222z
						 M254.702,74.473c-0.952,6.258-4.047,11.143-9.28,14.656c-5.016,3.294-10.416,4.245-16.198,2.855
						c-5.457-1.282-9.72-4.283-12.797-9.005c-2.927-4.572-3.972-9.569-3.129-14.984c0.841-5.417,3.35-9.845,7.522-13.284
						c4.32-3.587,9.264-5.179,14.825-4.775c5.932,0.476,10.802,3.036,14.609,7.684C254.171,62.524,255.652,68.142,254.702,74.473z
						 M268.319,76.559c-1.572,10.173-6.534,18.078-14.88,23.713c-7.979,5.306-16.584,6.881-25.811,4.722
						c-8.674-2.087-15.43-6.953-20.262-14.603c-4.688-7.354-6.353-15.387-4.998-24.098c1.318-8.709,5.31-15.846,11.972-21.408
						c6.882-5.854,14.771-8.435,23.667-7.739c9.445,0.731,17.17,4.849,23.173,12.35C267.477,57.401,269.857,66.422,268.319,76.559z
						 M234.273,62.945c-2.157-0.184-4.118,0.438-5.875,1.866c-1.647,1.427-2.58,3.237-2.801,5.434
						c-0.219,2.233,0.348,4.19,1.703,5.874c1.39,1.684,3.186,2.617,5.381,2.799c2.16,0.22,4.101-0.402,5.822-1.865
						c1.683-1.391,2.635-3.203,2.853-5.435c0.221-2.196-0.363-4.154-1.756-5.874C238.246,64.061,236.47,63.128,234.273,62.945z"/>
				</g>
			</g>
		</g>
		<g>
			<g>
				<path fill-rule="evenodd" clip-rule="evenodd" fill="#FFCB67" d="M390.773,117.944v0.054
					c-2.687,17.043-11.032,30.272-25.036,39.69h-0.053c-1.721,1.146-3.565,2.184-5.535,3.113l20.523,28.466l-0.322,1.932
					c-0.466,1.397-1.254,2.382-2.364,2.953c-1.073,0.538-2.202,0.629-3.384,0.27l-1.45-0.751l-17.517-31.096
					c-0.358,0.143-0.696,0.25-1.019,0.322c-2.329,0.788-4.747,1.396-7.255,1.825c-0.859,0.143-1.736,0.287-2.634,0.43
					c-1,0.215-2.397,0.341-4.189,0.377c-5.945,0.356-11.442-0.162-16.493-1.558c-1.611-0.467-3.224-1.021-4.835-1.665v-6.178
					c1.539,0.503,3.115,0.949,4.726,1.343c13.218,3.151,25.577,0.896,37.073-6.766c11.999-8.092,19.125-19.424,21.383-33.997
					c2.22-14.644-1.201-27.622-10.261-38.937c-7.416-9.272-16.655-14.948-27.725-17.025v-7.572
					c7.021,0.752,13.074,2.488,18.159,5.209c5.695,3.044,11.086,7.753,16.171,14.125
					C389.306,85.722,393.315,100.866,390.773,117.944z"/>
				<g>
					<path fill-rule="evenodd" clip-rule="evenodd" fill="#FFCB67" d="M349.995,194.208c-0.788,0.931-1.701,1.432-2.739,1.503
						c-1.038,0.072-1.952-0.216-2.74-0.859l-0.859-1.021l-3.869-32.331c1.361,0.43,2.703,0.787,4.029,1.075l7.039,30.289
						L349.995,194.208z"/>
				</g>
				<g>
					<path fill-rule="evenodd" clip-rule="evenodd" fill="#FFCB67" d="M305.132,193.671l-1.663,0.592
						c-1.326,0.285-2.455,0.124-3.385-0.485c-0.969-0.607-1.575-1.468-1.829-2.578l-0.053-1.449l18.213-30.988
						c0.896,1.289,1.826,2.506,2.795,3.652L305.132,193.671z"/>
				</g>
			</g>
			<g>
				<path fill-rule="evenodd" clip-rule="evenodd" fill="#EC2024" d="M278.702,98.826c2.255-14.896,8.81-26.907,19.664-36.037
					c5.406-4.512,11.549-7.662,18.428-9.453c5.479-1.432,11.657-2.005,18.535-1.718l1.933,0.161
					c8.023,0.608,14.863,2.435,20.523,5.479c5.697,3.007,11.086,7.697,16.173,14.069h0.053c10.53,13.248,14.523,28.411,11.98,45.489
					c-2.686,17.043-11.032,30.29-25.035,39.743h-0.054c-5.767,3.796-12.608,6.249-20.523,7.358
					c-7.595,1.038-14.632,0.661-21.114-1.128c-6.16-1.72-12.411-4.869-18.751-9.453c-6.268-4.583-10.889-9.29-13.862-14.123
					c-3.759-6.267-6.304-12.729-7.627-19.39C277.662,113.094,277.554,106.093,278.702,98.826z M343.065,94.314
					c-3.725-4.548-8.49-7.054-14.291-7.52c-5.444-0.395-10.279,1.165-14.507,4.674c-4.084,3.364-6.536,7.696-7.36,12.996
					c-0.823,5.298,0.196,10.186,3.061,14.661c3.012,4.618,7.183,7.555,12.521,8.809c5.658,1.359,10.941,0.43,15.849-2.793
					c5.123-3.438,8.147-8.217,9.079-14.34C348.346,104.607,346.896,99.111,343.065,94.314z M313.516,88.461
					c2.29-1.899,4.906-3.242,7.843-4.029c2.364-0.572,5.032-0.805,8.006-0.698l0.807,0.107c3.399,0.252,6.32,1.003,8.757,2.257
					c2.436,1.288,4.746,3.294,6.929,6.015c4.514,5.585,6.232,11.994,5.158,19.227c-1.146,7.197-4.71,12.782-10.692,16.757h-0.053
					c-2.437,1.611-5.354,2.649-8.757,3.115c-3.224,0.428-6.232,0.268-9.025-0.484c-2.616-0.716-5.284-2.059-8.005-4.028
					c-2.687-1.933-4.657-3.92-5.91-5.962c-1.613-2.648-2.724-5.37-3.331-8.162c-0.572-2.864-0.609-5.836-0.109-8.914
					C306.065,97.357,308.857,92.29,313.516,88.461z M296.214,102.8c-1.323,8.521,0.306,16.38,4.891,23.576
					c4.728,7.483,11.336,12.245,19.823,14.286c9.027,2.113,17.442,0.573,25.252-4.618c8.167-5.515,13.021-13.248,14.56-23.201
					c1.505-9.918-0.823-18.743-6.983-26.478c-5.873-7.34-13.434-11.368-22.673-12.084c-8.705-0.68-16.423,1.845-23.156,7.573
					C301.408,87.297,297.505,94.278,296.214,102.8z M298.793,129.008c-2.579-4.26-4.315-8.665-5.213-13.212
					c-0.894-4.582-0.966-9.345-0.212-14.285c1.504-10.134,5.963-18.313,13.378-24.544c3.687-3.079,7.88-5.228,12.571-6.444
					c3.725-1.002,7.933-1.396,12.624-1.182l1.291,0.108c5.479,0.428,10.153,1.682,14.022,3.759c3.868,2.039,7.54,5.227,11.014,9.559
					c7.164,9.023,9.886,19.352,8.165,30.989c-1.789,11.563-7.483,20.57-17.084,27.015c-3.939,2.613-8.597,4.296-13.969,5.048
					c-5.156,0.752-9.957,0.501-14.399-0.752c-4.153-1.182-8.398-3.33-12.731-6.445C303.951,135.508,300.798,132.302,298.793,129.008
					z M300.029,69.932c-9.563,8.02-15.295,18.297-17.192,30.827c-1.898,12.496,0.502,24.025,7.201,34.587
					c6.949,10.991,16.655,17.974,29.12,20.945c13.215,3.15,25.57,0.895,37.069-6.767c11.999-8.092,19.127-19.424,21.383-33.997
					c2.221-14.607-1.2-27.586-10.263-38.937c-8.631-10.812-19.717-16.737-33.254-17.776c-12.788-0.967-24.126,2.738-34.009,11.117
					H300.029z M332.642,102.262c1.36,1.685,1.933,3.599,1.718,5.748c-0.214,2.184-1.146,3.955-2.793,5.316
					c-1.684,1.433-3.581,2.04-5.695,1.826c-2.148-0.18-3.903-1.093-5.266-2.739c-1.323-1.646-1.88-3.563-1.664-5.746
					c0.216-2.149,1.128-3.921,2.74-5.317c1.719-1.396,3.636-2.005,5.747-1.826C329.578,99.702,331.317,100.615,332.642,102.262z"/>
				<path fill-rule="evenodd" clip-rule="evenodd" fill="#E3E3E3" d="M300.029,69.932h0.056
					c9.883-8.379,21.221-12.084,34.009-11.117c13.537,1.039,24.623,6.965,33.254,17.776c9.063,11.351,12.483,24.329,10.263,38.937
					c-2.256,14.573-9.384,25.905-21.383,33.997c-11.499,7.661-23.854,9.917-37.069,6.767c-12.465-2.972-22.171-9.954-29.12-20.945
					c-6.699-10.562-9.1-22.091-7.201-34.587C284.734,88.229,290.466,77.951,300.029,69.932z M298.793,129.008
					c2.005,3.294,5.157,6.5,9.457,9.613c4.333,3.115,8.578,5.264,12.731,6.445c4.442,1.253,9.243,1.504,14.399,0.752
					c5.372-0.752,10.029-2.435,13.969-5.048c9.601-6.444,15.295-15.451,17.084-27.015c1.721-11.638-1.001-21.966-8.165-30.989
					c-3.474-4.332-7.146-7.52-11.014-9.559c-3.869-2.077-8.543-3.331-14.022-3.759l-1.291-0.108
					c-4.691-0.215-8.899,0.18-12.624,1.182c-4.691,1.217-8.885,3.365-12.571,6.444c-7.415,6.23-11.874,14.41-13.378,24.544
					c-0.754,4.94-0.682,9.703,0.212,14.285C294.478,120.343,296.214,124.748,298.793,129.008z M296.214,102.8
					c1.291-8.521,5.193-15.503,11.713-20.945c6.733-5.729,14.451-8.253,23.156-7.573c9.239,0.716,16.8,4.744,22.673,12.084
					c6.16,7.734,8.488,16.56,6.983,26.478c-1.539,9.953-6.393,17.687-14.56,23.201c-7.81,5.191-16.225,6.731-25.252,4.618
					c-8.487-2.041-15.096-6.803-19.823-14.286C296.52,119.18,294.891,111.321,296.214,102.8z M313.516,88.461
					c-4.659,3.829-7.451,8.896-8.384,15.199c-0.5,3.078-0.463,6.05,0.109,8.914c0.607,2.792,1.718,5.514,3.331,8.162
					c1.253,2.042,3.224,4.029,5.91,5.962c2.721,1.97,5.389,3.313,8.005,4.028c2.793,0.752,5.802,0.912,9.025,0.484
					c3.402-0.466,6.32-1.504,8.757-3.115h0.053c5.982-3.975,9.547-9.56,10.692-16.757c1.074-7.232-0.645-13.642-5.158-19.227
					c-2.183-2.721-4.493-4.727-6.929-6.015c-2.437-1.254-5.357-2.005-8.757-2.257l-0.807-0.107
					c-2.974-0.106-5.642,0.126-8.006,0.698C318.422,85.219,315.806,86.562,313.516,88.461z M343.065,94.314
					c3.831,4.797,5.281,10.293,4.351,16.487c-0.932,6.123-3.956,10.902-9.079,14.34c-4.907,3.223-10.19,4.152-15.849,2.793
					c-5.338-1.254-9.509-4.19-12.521-8.809c-2.864-4.476-3.884-9.363-3.061-14.661c0.824-5.3,3.276-9.632,7.36-12.996
					c4.228-3.509,9.063-5.068,14.507-4.674C334.575,87.261,339.34,89.767,343.065,94.314z M332.642,102.262
					c-1.325-1.646-3.064-2.56-5.213-2.738c-2.111-0.179-4.028,0.431-5.747,1.826c-1.612,1.396-2.524,3.168-2.74,5.317
					c-0.216,2.184,0.341,4.1,1.664,5.746c1.362,1.646,3.117,2.56,5.266,2.739c2.114,0.214,4.012-0.394,5.695-1.826
					c1.647-1.361,2.579-3.133,2.793-5.316C334.575,105.86,334.002,103.946,332.642,102.262z"/>
			</g>
		</g>
		<g>
			<g>
				<path fill-rule="evenodd" clip-rule="evenodd" fill="#FFCB67" d="M264.343,119.398c-0.476,0.632-1.086,1.007-1.84,1.127
					l-89.238,13.642c-0.751,0.118-1.444-0.06-2.077-0.534c-0.633-0.475-1.008-1.088-1.127-1.838
					c-0.118-0.753,0.06-1.444,0.533-2.076c0.475-0.633,1.088-1.009,1.84-1.128l89.239-13.642c0.75-0.117,1.443,0.06,2.076,0.534
					c0.632,0.475,1.009,1.087,1.126,1.839C264.997,118.074,264.818,118.766,264.343,119.398z"/>
			</g>
			<g>
				<polygon fill-rule="evenodd" clip-rule="evenodd" fill="#676767" points="259.954,118.033 282.557,114.475 260.13,125.863 				
					"/>
				<path fill-rule="evenodd" clip-rule="evenodd" fill="#CCCBCB" d="M282.557,114.475l-22.604,3.559l-3.62-6.701
					c1.662-0.119,5.222,0.217,10.68,1.007C272.432,113.092,277.614,113.803,282.557,114.475z"/>
			</g>
			<g>
				<path fill-rule="evenodd" clip-rule="evenodd" fill="#EC2024" d="M187.684,138.141c-1.859,0.909-7.02,1.838-15.486,2.788
					l7.772-8.838l17.207-2.61c-1.383,1.305-2.847,2.867-4.391,4.687C191.244,135.907,189.542,137.231,187.684,138.141z"/>
			</g>
			<g>
				<path fill-rule="evenodd" clip-rule="evenodd" fill="#EC2024" d="M184.717,120.347c2.057,0.356,4.074,1.147,6.053,2.373
					c1.977,1.265,3.856,2.313,5.636,3.144l-17.266,2.61l-9.909-6.348C177.499,120.624,182.661,120.03,184.717,120.347z"/>
			</g>
		</g>
	</g>
</g>
</svg>
