<?xml version="1.0" encoding="utf-8"?>
<!-- Generator: Adobe Illustrator 15.1.0, SVG Export Plug-In . SVG Version: 6.00 Build 0)  -->
<!DOCTYPE svg PUBLIC "-//W3C//DTD SVG 1.1//EN" "http://www.w3.org/Graphics/SVG/1.1/DTD/svg11.dtd">
<svg version="1.1" id="Layer_1" xmlns="http://www.w3.org/2000/svg" xmlns:xlink="http://www.w3.org/1999/xlink" x="0px" y="0px"
	 width="568.276px" height="269.517px" viewBox="0 0 568.276 269.517" enable-background="new 0 0 568.276 269.517"
	 xml:space="preserve">
<g>
	<g>
		<path fill-rule="evenodd" clip-rule="evenodd" fill="#141818" d="M341.525,262.006c0-1.02,0.348-1.884,1.046-2.595
			c0.699-0.71,1.552-1.064,2.555-1.064h57.745c1.005,0,1.854,0.354,2.554,1.064c0.698,0.711,1.049,1.575,1.049,2.595
			s-0.351,1.886-1.049,2.597c-0.699,0.709-1.549,1.064-2.554,1.064h-57.745c-1.003,0-1.855-0.355-2.555-1.064
			C341.873,263.892,341.525,263.026,341.525,262.006z"/>
		<polygon fill-rule="evenodd" clip-rule="evenodd" fill="#141818" points="343.292,265.468 334.192,214.895 338.315,213.897 
			350.428,263.67 		"/>
	</g>
	<g>
		<g>
			<path fill-rule="evenodd" clip-rule="evenodd" fill="#5B331E" d="M517.543,161.348l0.335-10.39
				c0.056-2.613-0.811-4.885-2.597-6.814c-0.615-0.682-1.285-1.248-2.012-1.703v-16.864c-6.648-2.782-12.68-6.359-18.099-10.732
				c-5.531-4.485-10-9.538-13.408-15.16c-0.56-0.909-1.062-1.788-1.509-2.641c-2.456-4.428-4.246-7.779-5.362-10.05
				c1.397-0.567,2.792-1.107,4.188-1.618c5.697-2.214,10.727-3.776,15.084-4.685c7.151-1.476,13.884-1.618,20.195-0.425
				c7.711,1.589,14.106,5.337,19.189,11.242c5.084,5.962,7.708,12.889,7.878,20.781c0,0.115,0,0.228,0,0.341v38.07
				c0,2.954-1.034,5.452-3.101,7.495c-2.013,2.102-4.498,3.151-7.459,3.151H517.543z"/>
			<path fill-rule="evenodd" clip-rule="evenodd" fill="#028BC0" d="M516.875,182.47l27.065,12.52v0.426
				c0.224,0.114,0.447,0.229,0.671,0.341c2.905,1.42,4.775,3.892,5.613,7.412l13.577,55.871h-24.135l-1.675-6.559l-0.587,6.559
				h-35.949l-8.044-24.445l-32.934,8.942l-2.432,0.683c0.114-4.314,0.253-8.743,0.42-13.286l0.505-17.119
				c0.221-5.622,1.313-10.333,3.266-14.141c2.011-3.688,4.33-5.448,6.956-5.278l28.827-13.202l-0.084,1.277
				c0,2.669,0.866,4.941,2.598,6.814c1.787,1.986,3.964,3.009,6.535,3.066c2.627,0.113,4.89-0.738,6.789-2.556
				c1.954-1.817,2.933-4.061,2.933-6.729L516.875,182.47z"/>
			<path fill-rule="evenodd" clip-rule="evenodd" fill="#3A2316" d="M481.763,99.686c-2.011,1.704-4.079,3.747-6.202,6.132
				c-3.91,4.656-6.535,9-7.877,13.031l-0.083,4.344c0,9.142,0.083,15.331,0.251,18.566c0.447,8.121,1.984,14.395,4.608,18.824
				c0.225,0.227,0.421,0.482,0.588,0.765h-8.547v-44.884c-1.454-1.93-2.486-4.059-3.103-6.388
				c-0.837-3.463-0.753-6.984,0.251-10.562c1.476-5.115,5.888-9.289,13.242-12.52c0.724-0.323,1.477-0.636,2.263-0.937
				c0.613-0.227,1.255-0.454,1.926-0.681c-1.396,0.511-2.791,1.051-4.188,1.618c1.116,2.271,2.906,5.622,5.362,10.05
				C480.702,97.897,481.204,98.777,481.763,99.686z"/>
			<path fill-rule="evenodd" clip-rule="evenodd" fill="#F5C187" d="M41.656,179.32v-14.734c-1.395-1.021-2.736-2.158-4.022-3.407
				c-5.697-5.792-8.547-12.775-8.547-20.951v-0.597c0.893,0.852,1.983,1.277,3.27,1.277c1.338,0,2.458-0.482,3.352-1.447
				c0.949-0.908,1.424-2.073,1.424-3.492v-3.493c0.39-1.874,1.285-3.435,2.681-4.684c1.397-1.25,3.073-1.874,5.027-1.874v-9.709
				c0.335-1.874,1.201-3.407,2.6-4.599c1.394-1.192,3.044-1.816,4.942-1.874h33.185v36.454c-0.393,4.543-1.62,8.914-3.689,13.116
				c-2.01,4.03-4.635,7.522-7.875,10.476c-0.672,0.171-5.644,0.171-14.917,0v9.539v3.492v0.341l-3.519,8.771l-13.912-8.771v-0.597
				V179.32z M185.119,259.04c-0.447-1.932-1.285-3.604-2.514-5.025c-0.28-0.283-0.559-0.569-0.838-0.852
				c1.621-1.761,3.521-2.641,5.698-2.641c2.514,0,4.664,1.277,6.453,3.833c1.006,1.419,1.731,2.98,2.179,4.685H185.119z
				 M59.841,129.581c0-0.738-0.25-1.363-0.755-1.874c-0.447-0.454-1.034-0.681-1.759-0.681c-0.669,0-1.229,0.227-1.676,0.681
				c-0.502,0.511-0.754,1.136-0.754,1.874c0,0.681,0.252,1.278,0.754,1.788c0.447,0.454,1.006,0.682,1.676,0.682
				c0.726,0,1.313-0.228,1.759-0.682C59.591,130.858,59.841,130.262,59.841,129.581z M76.936,132.05
				c0.616,0,1.172-0.228,1.676-0.682c0.502-0.51,0.752-1.107,0.752-1.788c0-0.738-0.25-1.363-0.752-1.874
				c-0.504-0.454-1.061-0.681-1.676-0.681c-0.727,0-1.313,0.227-1.761,0.681c-0.5,0.511-0.753,1.136-0.753,1.874
				c0,0.681,0.252,1.278,0.753,1.788C75.624,131.823,76.209,132.05,76.936,132.05z M67.133,158.283c2.569,0,4.775-0.938,6.619-2.811
				c1.843-1.874,2.766-4.117,2.766-6.729H57.83c0.837,1.362,1.256,2.923,1.256,4.685v0.341c0.392,0.567,0.868,1.135,1.425,1.703
				C62.299,157.345,64.505,158.283,67.133,158.283z M188.973,174.806v1.277c0.056,2.611-0.752,4.854-2.428,6.729
				c-1.621,1.873-3.633,2.84-6.034,2.896c-2.234,0.114-4.19-0.597-5.866-2.129c-0.168-0.113-0.306-0.257-0.418-0.426
				c-1.789-1.703-2.709-3.862-2.765-6.475l-0.923-31.341c-0.111-2.614,0.671-4.826,2.347-6.645c0.558-0.68,1.201-1.249,1.928-1.703
				v-16.522c3.519-1.59,6.841-3.407,9.971-5.452c2.347-1.532,4.581-3.208,6.704-5.024c0.894-0.795,1.787-1.59,2.681-2.385
				c3.912-3.804,7.178-7.949,9.806-12.435c1.9,1.703,3.798,3.748,5.697,6.132c1.732,2.158,3.214,4.259,4.442,6.303
				c1.342,2.271,2.317,4.428,2.932,6.473v4.003c0.056,8.971,0,15.045-0.167,18.226c-0.391,7.892-1.843,14.023-4.356,18.397
				c-2.348,4.086-6.203,7.493-11.565,10.22c-4.357,0-8.465-0.567-12.318-1.704L188.973,174.806z M184.783,121.659
				c0,0.738,0.28,1.392,0.838,1.959c0.504,0.511,1.118,0.767,1.843,0.767c0.727,0,1.312-0.255,1.761-0.767
				c0.558-0.567,0.838-1.221,0.838-1.959c0-0.794-0.28-1.477-0.838-2.043c-0.449-0.568-1.034-0.852-1.761-0.852
				c-0.783,0-1.395,0.284-1.843,0.852c-0.558,0.567-0.838,1.221-0.838,1.959V121.659z M210.257,119.616
				c-0.502-0.568-1.117-0.852-1.844-0.852c-0.782,0-1.394,0.284-1.842,0.852c-0.559,0.567-0.839,1.249-0.839,2.043
				c0,0.738,0.281,1.392,0.839,1.959c0.503,0.511,1.117,0.767,1.842,0.767c0.727,0,1.342-0.255,1.844-0.767
				c0.559-0.567,0.839-1.221,0.839-1.959C211.096,120.865,210.816,120.183,210.257,119.616z M191.654,148.403
				c1.789,1.647,3.801,2.47,6.034,2.47c2.346-0.059,4.358-0.879,6.035-2.47c1.732-1.591,2.764-3.576,3.1-5.962l-18.268,0.084
				C188.946,144.912,189.978,146.869,191.654,148.403z M517.543,161.348l-0.669,21.122l-0.084,0.596
				c0,2.669-0.979,4.912-2.933,6.729c-1.899,1.817-4.162,2.669-6.789,2.556c-2.571-0.058-4.748-1.08-6.535-3.066
				c-1.731-1.873-2.598-4.146-2.598-6.814l0.084-1.277l0.418-11.924c-4.244,1.135-8.715,1.703-13.406,1.703
				c-5.419-2.668-9.414-5.877-11.983-9.624c-0.167-0.282-0.363-0.538-0.588-0.765c-2.624-4.43-4.161-10.703-4.608-18.824
				c-0.168-3.235-0.251-9.425-0.251-18.566l0.083-4.344c1.342-4.031,3.967-8.375,7.877-13.031c2.123-2.385,4.191-4.429,6.202-6.132
				c3.408,5.622,7.877,10.674,13.408,15.16c5.419,4.373,11.45,7.95,18.099,10.732v16.864c0.727,0.455,1.396,1.021,2.012,1.703
				c1.786,1.93,2.652,4.201,2.597,6.814L517.543,161.348z M474.974,124.726c-0.56,0.51-0.837,1.163-0.837,1.958
				c0,0.795,0.277,1.476,0.837,2.044c0.505,0.568,1.176,0.852,2.014,0.852c0.78,0,1.451-0.284,2.009-0.852
				c0.504-0.568,0.756-1.249,0.756-2.044c0-0.795-0.252-1.448-0.756-1.958c-0.558-0.625-1.229-0.938-2.009-0.938
				C476.15,123.789,475.479,124.101,474.974,124.726z M499.613,123.789c-0.782,0-1.454,0.313-2.013,0.938
				c-0.56,0.51-0.838,1.163-0.838,1.958c0,0.795,0.278,1.476,0.838,2.044c0.559,0.568,1.23,0.852,2.013,0.852
				c0.78,0,1.452-0.284,2.01-0.852c0.504-0.568,0.755-1.249,0.755-2.044c0-0.795-0.251-1.448-0.755-1.958
				C501.065,124.101,500.393,123.789,499.613,123.789z M488.467,156.579c2.514,0.059,4.69-0.737,6.535-2.384
				c1.844-1.59,2.989-3.606,3.436-6.049l-19.775-0.169c0.391,2.442,1.507,4.485,3.352,6.132S486.009,156.579,488.467,156.579z"/>
			<path fill-rule="evenodd" clip-rule="evenodd" fill="#804B26" d="M341.403,51.479c-0.895-0.511-1.93-0.767-3.1-0.767v17.121
				v8.601c0,3.634-0.672,7.125-2.014,10.476c-1.34,3.294-3.267,6.247-5.782,8.858c-0.95,0.908-1.927,1.76-2.933,2.555
				c-4.636,3.634-10.027,5.451-16.174,5.451c-3.575,0-6.981-0.681-10.223-2.043c-2.122-0.908-4.078-2.044-5.865-3.407
				c-1.005-0.794-1.957-1.647-2.85-2.555c-2.569-2.612-4.553-5.564-5.949-8.858c-1.341-3.293-2.012-6.785-2.012-10.476v-8.601
				V50.712c-1.116,0-2.123,0.255-3.017,0.767v-27.85c0-2.726,0.95-5.054,2.85-6.984l0.167-0.085v-0.085l0.503-0.426v-0.085h0.168
				c0.894-0.738,1.843-1.278,2.85-1.619v-1.788c0-2.726,0.949-5.083,2.849-7.068c1.899-1.875,4.217-2.811,6.955-2.811h42.318
				c1.004,0,1.899,0.368,2.68,1.107c0.729,0.681,1.092,1.561,1.092,2.64v4.77c0,2.441-0.866,4.571-2.599,6.388
				c-0.391,0.397-0.783,0.738-1.173,1.021c0.837,1.477,1.258,3.152,1.258,5.026V51.479z M286.597,36.745v34.919
				c0,1.419,0.476,2.64,1.426,3.663c1.005,1.022,2.206,1.533,3.603,1.533h4.189c1.398,0,2.598-0.51,3.604-1.533
				c1.004-1.022,1.508-2.243,1.508-3.663c0-1.192,0.335-2.271,1.007-3.237c0.726-0.851,1.619-1.447,2.68-1.789
				c0.111,0.341,0.28,0.54,0.503,0.597c0.335,0.397,0.782,0.597,1.342,0.597h1.676c0.112,0.737,0.475,1.333,1.089,1.788
				c0.671,0.511,1.397,0.767,2.178,0.767c0.839,0,1.594-0.256,2.265-0.767c0.613-0.454,0.977-1.051,1.088-1.788h1.677
				c0.559,0,1.006-0.2,1.34-0.597c0.169-0.057,0.335-0.255,0.504-0.597c0.838,0.284,1.564,0.738,2.178,1.363
				c1.005,0.909,1.51,2.129,1.51,3.663c0,1.419,0.502,2.64,1.507,3.663c1.006,1.022,2.207,1.533,3.604,1.533h4.106
				c1.397,0,2.598-0.51,3.603-1.533c1.007-1.022,1.509-2.243,1.509-3.663V37.171c-1.619-2.044-2.903-4.628-3.854-7.75
				c-0.447-1.59-0.811-3.208-1.092-4.855c-4.916,2.044-10.837,3.066-17.764,3.066c-6.983,0-12.904-1.05-17.766-3.151
				c-1.731-0.738-3.127-1.505-4.189-2.299c-0.279,2.498-0.782,4.911-1.507,7.239C289.28,32.316,288.106,34.757,286.597,36.745z
				 M331.178,51.139c0.224,0.284,0.307,0.596,0.252,0.938c-0.112,0.34-0.309,0.595-0.587,0.766c-0.279,0.17-0.587,0.228-0.921,0.17
				c-0.279-0.114-0.504-0.284-0.671-0.51c-1.285-1.874-2.963-2.812-5.028-2.812c-2.123,0-3.799,0.938-5.027,2.812
				c-0.225,0.227-0.476,0.396-0.755,0.51c-0.336,0.057-0.614,0-0.838-0.17c-0.336-0.171-0.531-0.426-0.587-0.766
				c-0.055-0.341,0-0.653,0.168-0.938c1.118-1.647,2.568-2.782,4.357-3.407c0.78-0.283,1.678-0.425,2.682-0.425
				c1.005,0,1.899,0.142,2.68,0.425C328.692,48.356,330.117,49.492,331.178,51.139z M317.267,74.475h-11.646l-3.269,7.41
				l6.117,2.555l1.09-2.3c0.445-0.739,1.062-1.165,1.842-1.278c0.783,0.113,1.398,0.539,1.846,1.278l1.173,2.3l6.116-2.555
				L317.267,74.475z M298.33,47.306c1.062,0,1.983,0.142,2.765,0.425c1.844,0.625,3.27,1.76,4.275,3.407
				c0.223,0.284,0.278,0.596,0.166,0.938c-0.112,0.34-0.306,0.595-0.587,0.766c-0.279,0.17-0.557,0.228-0.837,0.17
				c-0.336-0.114-0.586-0.284-0.755-0.51c-1.173-1.874-2.85-2.812-5.027-2.812c-2.123,0-3.771,0.938-4.944,2.812
				c-0.392,0.567-0.949,0.681-1.677,0.34c-0.278-0.171-0.446-0.426-0.503-0.766c-0.109-0.341-0.056-0.653,0.17-0.938
				c1.004-1.647,2.429-2.782,4.273-3.407C296.43,47.448,297.324,47.306,298.33,47.306z"/>
			<path fill-rule="evenodd" clip-rule="evenodd" fill="#FCC88A" d="M284.502,67.833c-1.676,0-3.1-0.597-4.273-1.79
				c-1.229-1.25-1.842-2.726-1.842-4.429V56.93c0-1.703,0.613-3.15,1.842-4.343c0.392-0.455,0.81-0.824,1.257-1.108
				c0.894-0.511,1.9-0.767,3.017-0.767V67.833z M341.403,51.479c0.445,0.284,0.893,0.653,1.34,1.108
				c1.174,1.193,1.76,2.64,1.76,4.343v4.685c0,1.704-0.586,3.18-1.76,4.429c-1.231,1.192-2.71,1.79-4.439,1.79V50.712
				C339.473,50.712,340.508,50.968,341.403,51.479z M286.597,36.745c1.509-1.988,2.683-4.429,3.521-7.325
				c0.725-2.328,1.228-4.741,1.507-7.239c1.063,0.794,2.458,1.562,4.189,2.299c4.861,2.101,10.782,3.151,17.766,3.151
				c6.927,0,12.848-1.022,17.764-3.066c0.281,1.647,0.645,3.265,1.092,4.855c0.95,3.123,2.234,5.706,3.854,7.75v34.494
				c0,1.419-0.502,2.64-1.509,3.663c-1.005,1.022-2.205,1.533-3.603,1.533h-4.106c-1.396,0-2.598-0.51-3.604-1.533
				c-1.005-1.022-1.507-2.243-1.507-3.663c0-1.533-0.505-2.754-1.51-3.663c-0.613-0.625-1.34-1.079-2.178-1.363
				c-0.169,0.341-0.335,0.54-0.504,0.597c-0.334,0.397-0.781,0.597-1.34,0.597h-1.677c-0.111,0.737-0.475,1.333-1.088,1.788
				c-0.671,0.511-1.426,0.767-2.265,0.767c-0.78,0-1.507-0.256-2.178-0.767c-0.614-0.454-0.977-1.051-1.089-1.788h-1.676
				c-0.56,0-1.007-0.2-1.342-0.597c-0.223-0.057-0.392-0.255-0.503-0.597c-1.061,0.341-1.954,0.938-2.68,1.789
				c-0.672,0.966-1.007,2.044-1.007,3.237c0,1.419-0.504,2.64-1.508,3.663c-1.007,1.022-2.206,1.533-3.604,1.533h-4.189
				c-1.396,0-2.598-0.51-3.603-1.533c-0.95-1.022-1.426-2.243-1.426-3.663V36.745z M331.178,51.139
				c-1.062-1.647-2.486-2.782-4.275-3.407c-0.78-0.283-1.675-0.425-2.68-0.425c-1.004,0-1.901,0.142-2.682,0.425
				c-1.789,0.625-3.239,1.76-4.357,3.407c-0.168,0.284-0.223,0.596-0.168,0.938c0.056,0.34,0.251,0.595,0.587,0.766
				c0.224,0.17,0.502,0.228,0.838,0.17c0.279-0.114,0.53-0.284,0.755-0.51c1.229-1.874,2.904-2.812,5.027-2.812
				c2.065,0,3.743,0.938,5.028,2.812c0.167,0.227,0.392,0.396,0.671,0.51c0.334,0.057,0.642,0,0.921-0.17
				c0.278-0.171,0.475-0.426,0.587-0.766C331.485,51.735,331.402,51.423,331.178,51.139z M327.323,55.823
				c0-0.908-0.306-1.675-0.922-2.299c-0.614-0.625-1.34-0.937-2.178-0.937c-0.895,0-1.648,0.312-2.262,0.937
				c-0.616,0.625-0.923,1.391-0.923,2.299c0,0.909,0.307,1.647,0.923,2.215c0.613,0.625,1.367,0.937,2.262,0.937
				c0.838,0,1.563-0.312,2.178-0.937C327.017,57.47,327.323,56.731,327.323,55.823z M305.621,74.475l1.257,1.533
				c0.895,1.079,2.01,1.619,3.353,1.619h2.346c1.452,0,2.597-0.54,3.434-1.619l1.258-1.533l3.269,7.41l-6.116,2.555l-1.173-2.3
				c-0.447-0.739-1.063-1.165-1.846-1.278c-0.78,0.113-1.396,0.539-1.842,1.278l-1.09,2.3l-6.117-2.555L305.621,74.475z
				 M298.33,47.306c-1.006,0-1.899,0.142-2.681,0.425c-1.845,0.625-3.27,1.76-4.273,3.407c-0.226,0.284-0.279,0.596-0.17,0.938
				c0.057,0.34,0.225,0.595,0.503,0.766c0.728,0.341,1.285,0.228,1.677-0.34c1.173-1.874,2.821-2.812,4.944-2.812
				c2.178,0,3.854,0.938,5.027,2.812c0.169,0.227,0.419,0.396,0.755,0.51c0.28,0.057,0.558,0,0.837-0.17
				c0.281-0.171,0.475-0.426,0.587-0.766c0.112-0.341,0.057-0.653-0.166-0.938c-1.006-1.647-2.432-2.782-4.275-3.407
				C300.313,47.448,299.391,47.306,298.33,47.306z M298.33,58.974c0.894,0,1.647-0.312,2.263-0.937
				c0.614-0.568,0.922-1.306,0.922-2.215c0-0.908-0.308-1.675-0.922-2.299c-0.615-0.625-1.369-0.937-2.263-0.937
				s-1.621,0.312-2.179,0.937c-0.613,0.625-0.922,1.391-0.922,2.299c0,0.909,0.309,1.647,0.922,2.215
				C296.764,58.663,297.492,58.974,298.33,58.974z"/>
			<path fill-rule="evenodd" clip-rule="evenodd" fill="#40261B" d="M327.323,55.823c0,0.909-0.306,1.647-0.922,2.215
				c-0.614,0.625-1.34,0.937-2.178,0.937c-0.895,0-1.648-0.312-2.262-0.937c-0.616-0.568-0.923-1.306-0.923-2.215
				c0-0.908,0.307-1.675,0.923-2.299c0.613-0.625,1.367-0.937,2.262-0.937c0.838,0,1.563,0.312,2.178,0.937
				C327.017,54.148,327.323,54.915,327.323,55.823z M298.33,58.974c-0.838,0-1.565-0.312-2.179-0.937
				c-0.613-0.568-0.922-1.306-0.922-2.215c0-0.908,0.309-1.675,0.922-2.299c0.558-0.625,1.285-0.937,2.179-0.937
				s1.647,0.312,2.263,0.937c0.614,0.625,0.922,1.391,0.922,2.299c0,0.909-0.308,1.647-0.922,2.215
				C299.977,58.663,299.223,58.974,298.33,58.974z"/>
			<path fill-rule="evenodd" clip-rule="evenodd" fill="#F7995A" d="M327.575,101.219c-4.748,3.577-10.139,5.366-16.174,5.366
				c-5.978,0-11.34-1.79-16.088-5.366v-2.896c1.787,1.363,3.743,2.499,5.865,3.407c3.241,1.362,6.647,2.043,10.223,2.043
				c6.146,0,11.538-1.816,16.174-5.451V101.219z"/>
			<path fill-rule="evenodd" clip-rule="evenodd" fill="#22205C" d="M329.334,109.906l-5.991,12.861l4.986-11.328h-0.755v-2.129
				C328.133,109.48,328.72,109.679,329.334,109.906z M330.507,110.417c0.783,0.227,1.537,0.51,2.262,0.852l5.867,3.151
				c2.905,1.703,5.81,3.918,8.715,6.644c5.083,4.769,9.105,10.333,12.066,16.693c1.62,3.463,2.851,7.039,3.688,10.73l11.814,28.703
				l14.371-34.537c0.243,0.094,0.535,0.193,0.88,0.297c1.945,0.586,5.897,2.006,11.856,4.26c5.129,1.947,9.012,3.412,11.649,4.387
				c-0.192,0.952-0.485,1.932-0.88,2.938l-22.375,58.172c-1.451,3.917-4.021,6.644-7.708,8.176
				c-2.628,1.192-5.393,1.533-8.296,1.022c-2.18,0.057-4.303-0.34-6.368-1.192c-3.632-1.475-6.258-4.146-7.878-8.006l-12.821-31.087
				v58.853h-71.06v-6.559h-17.85v-75.46h0.083c0.335-7.27,1.983-14.166,4.944-20.696c2.96-6.36,6.983-11.924,12.067-16.693
				c2.569-2.442,5.447-4.656,8.63-6.644l7.794-3.917c1.118-0.454,2.235-0.852,3.353-1.192l-9.301,11.667l26.313,26.233
				l26.729-26.233L330.507,110.417z"/>
			<path fill-rule="evenodd" clip-rule="evenodd" fill="#FFFFFF" d="M59.086,179.32l6.118,3.746l-6.118-0.254V179.32z
				 M41.656,179.32v3.236c-1.621,0.114-3.267,0.227-4.943,0.341c1.005,3.237,2.848,5.877,5.53,7.921
				c0.838,0.623,1.731,1.164,2.682,1.616l-1.509,2.387l4.776,4.259l-3.938,5.962l-10.056-21.976l6.704-3.746H41.656z
				 M56.658,193.202c1.452-0.566,2.82-1.333,4.104-2.298c0.616-0.455,1.229-0.938,1.843-1.449l-7.374,17.631l0.67-1.703
				l-3.184-6.047l5.112-4.515L56.658,193.202z M306.04,133.072l-9.723-21.633h31.258h0.755l-4.986,11.328l-5.069,11.242
				l-3.604-6.046l5.615-4.514l-8.045-11.243l-7.542,11.243l5.196,4.258L306.04,133.072z M461.735,247.2l-29.665,8.007l1.258,3.833
				h-2.765l-2.265-6.814l29.748-8.006l2.432-0.683L461.735,247.2z M450.758,259.04h-16.175l-0.921-2.727l28.574-7.75l2.18,6.813
				L450.758,259.04z M456.458,259.04l8.462-2.301l0.669,2.301H456.458z"/>
			<path fill-rule="evenodd" clip-rule="evenodd" fill="#606099" d="M329.334,109.906l0.335-0.596l0.838,1.107l8.546,10.56
				l-26.729,26.233l5.949-13.202l5.069-11.242L329.334,109.906z M394.696,131.454l20.866,7.837l3.435,1.191l-3.979,11.158
				l-0.209,0.426v-0.043c-0.353-0.139-0.729-0.28-1.131-0.426c-2.638-0.975-6.521-2.439-11.649-4.387
				c-5.959-2.254-9.911-3.674-11.856-4.26c-0.345-0.104-0.637-0.203-0.88-0.297c-0.22-0.076-0.232-0.289-0.042-0.639l4.106-11.072
				L394.696,131.454z M276.292,240.472v6.728h-0.755h-17.095h-0.503v-13.286h0.503h17.85V240.472z M296.317,111.439l9.723,21.633
				l6.285,14.138l-26.313-26.233l9.301-11.667L296.317,111.439z"/>
			<path fill-rule="evenodd" clip-rule="evenodd" fill="#F8A66B" d="M295.313,101.219c4.748,3.577,10.11,5.366,16.088,5.366
				c6.035,0,11.426-1.79,16.174-5.366v8.091v2.129h-31.258l-1.004-2.129V101.219z M415.562,139.291l-20.866-7.837l2.18-6.898
				c-1.174-0.227-1.927-1.079-2.262-2.555l-3.27-14.479c-0.502-2.214,0.363-3.662,2.598-4.343c1.899-0.512,3.212,0,3.94,1.532
				c0.558-1.078,1.256-2.101,2.093-3.066c2.906-3.18,6.398-4.77,10.476-4.77c4.19,0,7.709,1.59,10.56,4.77
				c2.903,3.18,4.355,7.069,4.355,11.668c0,4.542-1.452,8.432-4.355,11.668c-0.895,1.023-1.901,1.874-3.018,2.555
				c0.559,0.738,0.755,1.363,0.586,1.875L415.562,139.291z M275.537,247.2l0.084,11.84h-17.179V247.2H275.537z"/>
			<path fill-rule="evenodd" clip-rule="evenodd" fill="#1D183C" d="M184.783,121.659v-0.084c0-0.738,0.28-1.392,0.838-1.959
				c0.449-0.568,1.061-0.852,1.843-0.852c0.727,0,1.312,0.284,1.761,0.852c0.558,0.567,0.838,1.249,0.838,2.043
				c0,0.738-0.28,1.392-0.838,1.959c-0.449,0.511-1.034,0.767-1.761,0.767c-0.725,0-1.339-0.255-1.843-0.767
				C185.063,123.051,184.783,122.397,184.783,121.659z M210.257,119.616c0.559,0.567,0.839,1.249,0.839,2.043
				c0,0.738-0.28,1.392-0.839,1.959c-0.502,0.511-1.117,0.767-1.844,0.767c-0.725,0-1.338-0.255-1.842-0.767
				c-0.559-0.567-0.839-1.221-0.839-1.959c0-0.794,0.281-1.477,0.839-2.043c0.448-0.568,1.06-0.852,1.842-0.852
				C209.14,118.764,209.755,119.047,210.257,119.616z M499.613,123.789c0.78,0,1.452,0.313,2.01,0.938
				c0.504,0.51,0.755,1.163,0.755,1.958c0,0.795-0.251,1.476-0.755,2.044c-0.558,0.568-1.229,0.852-2.01,0.852
				c-0.782,0-1.454-0.284-2.013-0.852c-0.56-0.568-0.838-1.249-0.838-2.044c0-0.795,0.278-1.448,0.838-1.958
				C498.159,124.101,498.831,123.789,499.613,123.789z M474.974,124.726c0.505-0.625,1.176-0.938,2.014-0.938
				c0.78,0,1.451,0.313,2.009,0.938c0.504,0.51,0.756,1.163,0.756,1.958c0,0.795-0.252,1.476-0.756,2.044
				c-0.558,0.568-1.229,0.852-2.009,0.852c-0.838,0-1.509-0.284-2.014-0.852c-0.56-0.568-0.837-1.249-0.837-2.044
				C474.137,125.889,474.415,125.236,474.974,124.726z"/>
			<path fill-rule="evenodd" clip-rule="evenodd" fill="#F5F5F5" d="M191.654,148.403c-1.676-1.534-2.708-3.491-3.1-5.878
				l18.268-0.084c-0.335,2.386-1.368,4.371-3.1,5.962c-1.676,1.591-3.689,2.411-6.035,2.47
				C195.455,150.873,193.443,150.05,191.654,148.403z M488.467,156.579c-2.458,0-4.608-0.823-6.453-2.47s-2.961-3.689-3.352-6.132
				l19.775,0.169c-0.446,2.442-1.592,4.459-3.436,6.049C493.158,155.841,490.981,156.637,488.467,156.579z"/>
			<polygon fill-rule="evenodd" clip-rule="evenodd" fill="#E7E7E9" points="461.735,247.2 460.478,243.537 493.412,234.594 
				501.456,259.04 490.645,259.04 496.26,257.505 495.841,256.143 484.947,259.04 465.588,259.04 464.919,256.739 493.494,249.074 
				493.076,247.625 464.417,255.376 462.237,248.563 490.814,240.897 490.393,239.451 			"/>
			<path fill-rule="evenodd" clip-rule="evenodd" fill="#BEBCC0" d="M433.328,259.04l-1.258-3.833l29.665-8.007l28.658-7.749
				l0.421,1.446l-28.577,7.666l-28.574,7.75l0.921,2.727H433.328z M490.645,259.04h-5.698l10.895-2.896l0.419,1.362L490.645,259.04z
				 M456.458,259.04h-5.699l13.658-3.663l28.659-7.751l0.418,1.448l-28.574,7.665L456.458,259.04z"/>
			<polygon fill-rule="evenodd" clip-rule="evenodd" fill="#26383A" points="275.621,259.04 275.537,247.2 276.292,247.2 
				276.292,240.472 347.351,240.472 347.184,259.04 			"/>
			<path fill-rule="evenodd" clip-rule="evenodd" fill="#FBF2E7" d="M317.267,74.475l-1.258,1.533
				c-0.837,1.079-1.981,1.619-3.434,1.619h-2.346c-1.343,0-2.458-0.54-3.353-1.619l-1.257-1.533H317.267z"/>
			<path fill-rule="evenodd" clip-rule="evenodd" fill="#F2EE8E" d="M174.644,183.579h-16.257c-0.616,0-1.202-0.087-1.76-0.257
				c-1.956-0.568-3.658-2.1-5.111-4.599c-1.899-3.179-2.85-7.067-2.85-11.668v-59.108c0-0.114,0-0.228,0-0.341
				c0.113-7.723,2.57-14.507,7.374-20.356c4.694-5.791,10.587-9.425,17.683-10.901c5.866-1.25,12.121-1.137,18.769,0.339
				c4.023,0.909,8.744,2.443,14.164,4.6c1.173,0.511,2.401,1.022,3.687,1.533c-1.061,2.214-2.71,5.48-4.943,9.795
				c-0.449,0.852-0.923,1.704-1.425,2.555c-2.627,4.486-5.894,8.631-9.806,12.435c-0.894,0.795-1.787,1.59-2.681,2.385
				c-2.123,1.816-4.357,3.492-6.704,5.024c-3.129,2.045-6.452,3.862-9.971,5.452v16.522c-0.727,0.454-1.37,1.023-1.928,1.703
				c-1.676,1.818-2.458,4.03-2.347,6.645l0.923,31.341c0.055,2.612,0.976,4.771,2.765,6.475
				C174.338,183.322,174.476,183.465,174.644,183.579z"/>
			<path fill-rule="evenodd" clip-rule="evenodd" fill="#D8D183" d="M203.974,95.171c0.502-0.851,0.977-1.703,1.425-2.555
				c2.232-4.315,3.882-7.581,4.943-9.795c-1.285-0.51-2.514-1.021-3.687-1.533c0.557,0.17,1.089,0.369,1.591,0.596
				c8.101,3.293,12.877,7.722,14.33,13.286c0.95,3.521,1.006,6.928,0.167,10.22c-0.559,2.328-1.509,4.43-2.849,6.303v71.202h-14.163
				l-16.759-8.091l-0.333-11.584c3.853,1.137,7.961,1.704,12.318,1.704c5.362-2.727,9.217-6.134,11.565-10.22
				c2.513-4.374,3.965-10.506,4.356-18.397c0.167-3.181,0.223-9.255,0.167-18.226v-4.003c-0.615-2.045-1.59-4.202-2.932-6.473
				c-1.228-2.044-2.71-4.145-4.442-6.303C207.772,98.919,205.874,96.875,203.974,95.171z"/>
			<path fill-rule="evenodd" clip-rule="evenodd" fill="#7B8D5C" d="M133.583,259.04l-6.034-9.88l12.15-52.977
				c0.782-3.52,2.599-5.99,5.446-7.409c0.448-0.284,0.951-0.484,1.509-0.598l9.972-4.854c0.558,0.17,1.144,0.257,1.76,0.257h16.257
				c1.676,1.532,3.632,2.243,5.866,2.129c2.401-0.056,4.414-1.022,6.034-2.896c1.676-1.875,2.484-4.117,2.428-6.729v-1.277
				l16.759,8.091l9.973,4.854c2.345-0.17,4.44,1.533,6.284,5.109c1.9,3.747,2.934,8.375,3.102,13.883l0.501,16.608
				c0.393,12.946,0.838,24.843,1.342,35.688h-30.838c-0.447-1.704-1.172-3.266-2.179-4.685c-1.789-2.556-3.939-3.833-6.453-3.833
				c-2.177,0-4.077,0.88-5.698,2.641c-2.011-1.874-4.553-2.725-7.625-2.556l-21.62,0.937l-0.419-4.513l-1.09,4.513l-1.676,7.496
				H133.583z"/>
			<path fill-rule="evenodd" clip-rule="evenodd" d="M85.568,109.735H52.383c-1.898,0.058-3.548,0.682-4.942,1.874
				c-1.398,1.192-2.264,2.726-2.6,4.599v9.709c-1.954,0-3.63,0.624-5.027,1.874c-1.396,1.25-2.292,2.811-2.681,4.684v3.493
				c0,1.419-0.475,2.584-1.424,3.492c-0.894,0.965-2.014,1.447-3.352,1.447c-1.287,0-2.376-0.426-3.27-1.277
				c-0.056,0-0.112-0.058-0.167-0.17c-0.949-0.908-1.424-2.073-1.424-3.492v-5.877h-3.185v-20.356h-0.083V99.175
				c0-5.905,2.039-10.987,6.116-15.246c4.134-4.145,9.107-6.217,14.917-6.217h19.608c5.866,0,10.838,2.072,14.916,6.217
				c1.342,1.419,2.487,2.924,3.437,4.514l2.848-1.788c1.398,3.123,1.594,6.303,0.587,9.539c-0.168,0.625-0.391,1.221-0.669,1.789
				c0,0.397,0,0.794,0,1.192v1.107h9.804c-0.223,2.669-1.313,4.883-3.269,6.643c-1.844,1.703-4.021,2.612-6.535,2.726v0.084H85.568z
				 M44.926,192.434c2.01,1.022,4.216,1.534,6.62,1.534c1.786,0,3.492-0.256,5.112-0.767l1.172,1.619l-5.112,4.515l3.184,6.047
				l-0.67,1.703l-2.345,5.791l-2.432,5.792l-6.2-13.627l3.938-5.962l-4.776-4.259L44.926,192.434z M25.315,104.285h28.576H25.315z
				 M312.325,147.21l-6.285-14.138l3.854-5.366l-5.196-4.258l7.542-11.243l8.045,11.243l-5.615,4.514l3.604,6.046L312.325,147.21z"
				/>
			<path fill-rule="evenodd" clip-rule="evenodd" fill="#F8A586" d="M59.086,182.812l6.118,0.254l0.418,0.087h0.084h0.754
				c-0.056,0.169-0.141,0.339-0.252,0.511c-0.671,1.873-1.676,3.549-3.017,5.025c-0.168,0.227-0.363,0.482-0.587,0.766
				c-0.614,0.512-1.228,0.994-1.843,1.449c-1.284,0.965-2.653,1.731-4.104,2.298c-1.62,0.511-3.326,0.767-5.112,0.767
				c-2.403,0-4.609-0.512-6.62-1.534c-0.951-0.452-1.844-0.993-2.682-1.616c-2.683-2.044-4.525-4.684-5.53-7.921
				c1.676-0.114,3.322-0.227,4.943-0.341v0.597l13.912,8.771l3.519-8.771V182.812z"/>
			<path fill-rule="evenodd" clip-rule="evenodd" fill="#B9C9CD" d="M65.707,183.153h-0.084v-0.087L65.707,183.153z M63.193,188.689
				c1.341-1.477,2.346-3.152,3.017-5.025l1.509,1.362l7.375,7.325l-24.639,26.317l-24.216-26.317l7.038-8.433l0.838-1.021
				l0.085,0.169l10.056,21.976l6.2,13.627l2.432-5.792L63.193,188.689z M44.674,259.04L7.049,210.747
				c-0.559-0.795-1.033-1.561-1.425-2.299c-1.117-2.157-1.508-4.516-1.172-7.069c0.39-3.066,1.704-5.734,3.938-8.005
				c2.236-2.329,4.694-3.521,7.375-3.578c0.278,0,0.53,0,0.753,0c2.683,0.114,5.057,1.476,7.123,4.089l50.112,64.389l10.81,0.51
				l5.697,0.257H44.674z"/>
			<path fill-rule="evenodd" clip-rule="evenodd" fill="#94A7AE" d="M127.549,249.16l6.034,9.88h-27.151h-0.333L89.589,231.7
				l-5.028,27.083l-10.81-0.51L23.64,193.884c-2.065-2.613-4.44-3.975-7.123-4.089l16.759-5.877l-7.038,8.433l24.216,26.317
				l24.639-26.317l-7.375-7.325l17.431,5.706c0.949-0.114,1.926-0.085,2.933,0.086c3.184,0.568,5.726,2.384,7.624,5.449
				l10.727,17.801L127.549,249.16z M151.012,251.543h1.509l21.62-0.937c3.073-0.169,5.615,0.682,7.625,2.556
				c0.28,0.282,0.558,0.568,0.838,0.852c1.229,1.421,2.066,3.094,2.514,5.025h-35.783L151.012,251.543z M44.674,259.04H11.407
				l-5.784-50.592c0.392,0.738,0.867,1.504,1.425,2.299L44.674,259.04z M63.193,188.689l-10.306,24.188l2.345-5.791l7.374-17.631
				C62.83,189.171,63.024,188.916,63.193,188.689z M106.432,259.04v-44.972V259.04z"/>
			<path fill-rule="evenodd" clip-rule="evenodd" fill="#11122D" d="M76.936,132.05c-0.727,0-1.313-0.228-1.761-0.682
				c-0.5-0.51-0.753-1.107-0.753-1.788c0-0.738,0.252-1.363,0.753-1.874c0.448-0.454,1.034-0.681,1.761-0.681
				c0.616,0,1.172,0.227,1.676,0.681c0.502,0.511,0.752,1.136,0.752,1.874c0,0.681-0.25,1.278-0.752,1.788
				C78.108,131.823,77.552,132.05,76.936,132.05z M59.841,129.581c0,0.681-0.25,1.278-0.755,1.788
				c-0.447,0.454-1.034,0.682-1.759,0.682c-0.669,0-1.229-0.228-1.676-0.682c-0.502-0.51-0.754-1.107-0.754-1.788
				c0-0.738,0.252-1.363,0.754-1.874c0.447-0.454,1.006-0.681,1.676-0.681c0.726,0,1.313,0.227,1.759,0.681
				C59.591,128.218,59.841,128.842,59.841,129.581z"/>
			<path fill-rule="evenodd" clip-rule="evenodd" fill="#F5E7E6" d="M67.133,158.283c-2.627,0-4.833-0.938-6.622-2.811
				c-0.557-0.568-1.033-1.136-1.425-1.703v-0.341c0-1.762-0.419-3.322-1.256-4.685h18.687c0,2.611-0.923,4.854-2.766,6.729
				C71.908,157.345,69.702,158.283,67.133,158.283z"/>
			
				<line fill-rule="evenodd" clip-rule="evenodd" fill="none" stroke="#020304" stroke-width="1.35" x1="25.315" y1="104.285" x2="53.892" y2="104.285"/>
			<path fill-rule="evenodd" clip-rule="evenodd" fill="#F5C187" d="M24.583,130.516H37.35l0.457,16.503H24.583
				c-2.226,0-4.125-0.822-5.696-2.462c-1.615-1.597-2.422-3.55-2.422-5.855c0-2.263,0.807-4.194,2.422-5.791
				C20.458,131.314,22.356,130.516,24.583,130.516z"/>
		</g>
	</g>
	<g>
		<path fill-rule="evenodd" clip-rule="evenodd" fill="#FFFFFF" d="M398.668,56.448c6.732,0,12.461,2.409,17.188,7.226
			c4.739,4.833,7.109,10.662,7.109,17.49c0,6.813-2.37,12.636-7.109,17.468c-4.728,4.818-10.456,7.228-17.188,7.228
			c-6.701,0-12.433-2.41-17.188-7.228c-4.739-4.832-7.108-10.655-7.108-17.468c0-6.828,2.369-12.657,7.108-17.49
			C386.236,58.856,391.967,56.448,398.668,56.448z"/>
		<path fill-rule="evenodd" clip-rule="evenodd" fill="#333333" d="M382.729,114.323c-0.578-0.335-0.958-0.829-1.134-1.482
			c-0.167-0.637-0.086-1.249,0.243-1.838l2.969-5.236c0.342-0.572,0.819-0.958,1.439-1.159c0.652-0.162,1.269-0.075,1.849,0.259
			l0.021,0.006c0.562,0.345,0.927,0.835,1.093,1.471c0.186,0.67,0.11,1.292-0.229,1.863l-2.969,5.237
			c-0.329,0.59-0.814,0.967-1.452,1.133c-0.644,0.179-1.247,0.097-1.809-0.248L382.729,114.323z"/>
		<path fill-rule="evenodd" clip-rule="evenodd" fill="#333333" d="M416.131,114.323c0.582-0.335,0.96-0.829,1.138-1.482
			c0.164-0.637,0.084-1.249-0.245-1.838l-2.971-5.236c-0.339-0.572-0.817-0.958-1.438-1.159c-0.652-0.162-1.269-0.075-1.849,0.259
			l-0.02,0.006c-0.563,0.345-0.928,0.835-1.093,1.471c-0.188,0.67-0.112,1.292,0.229,1.863l2.969,5.237
			c0.329,0.59,0.814,0.967,1.454,1.133c0.642,0.179,1.242,0.097,1.806-0.248L416.131,114.323z"/>
		<path fill-rule="evenodd" clip-rule="evenodd" fill="#999999" d="M375.956,47.89c-0.159,0.131-0.376,0.294-0.648,0.491
			c-0.276,0.191-0.549,0.421-0.814,0.689c-0.118,0.021-0.244,0.03-0.375,0.03c-0.563,0-1.045-0.204-1.448-0.613
			c-0.38-0.388-0.571-0.868-0.571-1.439c0-0.572,0.191-1.063,0.571-1.471c0.403-0.387,0.885-0.582,1.448-0.582
			c0.563,0,1.033,0.194,1.415,0.582c0.403,0.408,0.604,0.898,0.604,1.471C376.137,47.356,376.076,47.638,375.956,47.89z"/>
		<path fill-rule="evenodd" clip-rule="evenodd" fill="#FF3333" d="M396.386,49.376c-8.298,1.919-14.947,5.819-19.948,11.7
			c-2.492,2.96-4.159,5.717-5.003,8.269c-1.144-1.837-1.899-4.042-2.261-6.615c-0.742-5.126,0.814-9.484,4.67-13.078
			c0.218-0.201,0.435-0.395,0.648-0.582c0.266-0.268,0.538-0.498,0.814-0.689c0.272-0.197,0.489-0.36,0.648-0.491
			c3.551-2.612,7.268-3.689,11.147-3.23C390.781,45.088,393.875,46.661,396.386,49.376z"/>
		<path fill-rule="evenodd" clip-rule="evenodd" fill="#660000" d="M371.435,69.345c0.844-2.552,2.511-5.309,5.003-8.269
			c5.001-5.88,11.65-9.781,19.948-11.7v1.944c-7.627,2.031-13.794,5.813-18.503,11.348c-1.66,1.974-2.956,3.858-3.887,5.651
			L371.435,69.345z"/>
		<g>
			<path fill-rule="evenodd" clip-rule="evenodd" fill="#CCCCCC" d="M386.588,68.854c-3.324,3.377-4.984,7.454-4.984,12.227
				c0,4.774,1.66,8.85,4.984,12.228c3.324,3.377,7.326,5.066,12.009,5.066c4.713,0,8.722-1.689,12.029-5.066
				c3.325-3.377,4.985-7.453,4.985-12.228c0-4.773-1.66-8.85-4.985-12.227c-3.308-3.377-7.316-5.066-12.029-5.066
				C393.915,63.788,389.913,65.476,386.588,68.854z M398.597,58.379c6.184,0,11.448,2.216,15.793,6.648
				c4.361,4.446,6.542,9.804,6.542,16.074c0,6.271-2.181,11.629-6.542,16.075c-4.345,4.432-9.609,6.648-15.793,6.648
				c-6.171,0-11.441-2.216-15.815-6.648c-4.359-4.446-6.54-9.804-6.54-16.075c0-6.27,2.181-11.628,6.54-16.074
				C387.156,60.596,392.426,58.379,398.597,58.379z"/>
			<path fill-rule="evenodd" clip-rule="evenodd" fill="#FFFFFF" d="M398.597,58.379c-6.171,0-11.441,2.216-15.815,6.648
				c-4.359,4.446-6.54,9.804-6.54,16.074c0,6.271,2.181,11.629,6.54,16.075c4.374,4.432,9.645,6.648,15.815,6.648
				c6.184,0,11.448-2.216,15.793-6.648c4.361-4.446,6.542-9.804,6.542-16.075c0-6.27-2.181-11.628-6.542-16.074
				C410.045,60.596,404.781,58.379,398.597,58.379z M398.597,56.392c6.73,0,12.456,2.408,17.184,7.225
				c4.737,4.832,7.107,10.66,7.107,17.485c0,6.813-2.37,12.633-7.107,17.464c-4.728,4.817-10.453,7.224-17.184,7.224
				c-6.702,0-12.429-2.407-17.184-7.224c-4.739-4.831-7.109-10.652-7.109-17.464c0-6.826,2.37-12.654,7.109-17.485
				C386.168,58.8,391.895,56.392,398.597,56.392z"/>
		</g>
		<path fill-rule="evenodd" clip-rule="evenodd" fill="#CCFF00" d="M398.683,82.13l0.453-23.278
			c9.001,0.016,15.821,4.456,20.463,13.317L398.683,82.13z"/>
		<g>
			<path fill-rule="evenodd" clip-rule="evenodd" d="M397.924,98.523c0.055-0.057,0.126-0.085,0.209-0.085
				c0.084,0.014,0.156,0.049,0.211,0.106c0.043,0.058,0.063,0.128,0.063,0.214l-0.211,3.292c-0.016,0.085-0.049,0.156-0.104,0.214
				c-0.058,0.042-0.127,0.064-0.211,0.064c-0.085-0.015-0.148-0.05-0.188-0.107c-0.06-0.057-0.088-0.128-0.088-0.214l0.212-3.291
				C397.832,98.63,397.868,98.566,397.924,98.523z M419.522,81.316c0,0.085-0.027,0.156-0.084,0.213
				c-0.055,0.057-0.127,0.085-0.209,0.085h-3.239c-0.084,0-0.154-0.029-0.209-0.085c-0.06-0.057-0.086-0.128-0.086-0.213
				c0-0.086,0.026-0.157,0.086-0.214c0.055-0.057,0.125-0.085,0.209-0.085h3.239c0.082,0,0.154,0.028,0.209,0.085
				C419.495,81.159,419.522,81.23,419.522,81.316z M381.247,81.914L378.008,82c-0.084,0-0.154-0.029-0.211-0.086
				c-0.069-0.057-0.105-0.121-0.105-0.192c0-0.085,0.027-0.157,0.085-0.214c0.056-0.071,0.126-0.106,0.21-0.106l3.237-0.085
				c0.071,0,0.141,0.028,0.211,0.085c0.057,0.056,0.085,0.128,0.085,0.213c0,0.071-0.028,0.143-0.085,0.214
				C381.377,81.885,381.318,81.914,381.247,81.914z M398.891,59.918c0.057,0.058,0.084,0.128,0.084,0.214v3.292
				c0,0.086-0.027,0.157-0.084,0.214c-0.055,0.057-0.125,0.086-0.21,0.086c-0.015,0-0.028,0-0.041,0c-0.015,0-0.028,0-0.043,0
				c-0.084,0-0.153-0.029-0.21-0.086c-0.058-0.058-0.086-0.128-0.086-0.214v-3.292c0-0.086,0.028-0.156,0.086-0.214
				c0.057-0.057,0.126-0.086,0.21-0.086c0.015,0,0.028,0,0.043,0c0.013,0,0.026,0,0.041,0
				C398.766,59.833,398.836,59.861,398.891,59.918z"/>
		</g>
		<g>
			<path fill-rule="evenodd" clip-rule="evenodd" d="M382.551,89.096c0.067-0.029,0.146-0.035,0.23-0.021
				c0.069,0.028,0.127,0.079,0.168,0.15c0.028,0.072,0.034,0.15,0.021,0.235c-0.029,0.084-0.076,0.143-0.148,0.17l-2.86,1.518
				c-0.082,0.042-0.16,0.049-0.23,0.021c-0.084-0.015-0.142-0.057-0.168-0.128c-0.043-0.085-0.056-0.164-0.043-0.235
				c0.028-0.072,0.084-0.128,0.169-0.171L382.551,89.096z M387.766,94.889c0.056-0.071,0.127-0.114,0.211-0.128
				c0.069-0.014,0.139,0.008,0.208,0.064c0.058,0.058,0.092,0.129,0.106,0.214c0.015,0.072-0.007,0.143-0.063,0.214l-2.018,2.565
				c-0.057,0.057-0.12,0.092-0.189,0.107c-0.085,0.014-0.154-0.007-0.211-0.064c-0.069-0.058-0.112-0.121-0.127-0.192
				c-0.014-0.085,0.009-0.157,0.063-0.214L387.766,94.889z M408.102,95.552c0.072-0.057,0.147-0.071,0.231-0.042
				c0.072,0,0.133,0.036,0.19,0.106l1.809,2.736c0.043,0.071,0.057,0.15,0.043,0.235c-0.014,0.071-0.058,0.135-0.127,0.192
				c-0.07,0.042-0.143,0.056-0.21,0.042c-0.084-0.015-0.147-0.057-0.189-0.128l-1.808-2.737c-0.058-0.071-0.073-0.142-0.043-0.213
				C407.999,95.659,408.034,95.594,408.102,95.552z M417.336,90.016c0.069,0.028,0.118,0.085,0.146,0.17
				c0.028,0.072,0.028,0.143,0,0.214c-0.041,0.072-0.096,0.122-0.167,0.149c-0.084,0.029-0.162,0.029-0.231,0l-2.902-1.453
				c-0.069-0.042-0.12-0.1-0.147-0.171c-0.027-0.086-0.021-0.165,0.021-0.235c0.026-0.071,0.084-0.121,0.168-0.149
				c0.07-0.029,0.14-0.021,0.21,0.021L417.336,90.016z M417.336,72.124c0.069-0.043,0.146-0.049,0.231-0.021
				c0.069,0.028,0.124,0.078,0.167,0.15c0.029,0.071,0.029,0.149,0,0.235c-0.027,0.07-0.076,0.128-0.146,0.17l-2.946,1.368
				c-0.069,0.028-0.145,0.028-0.232,0c-0.069-0.027-0.117-0.078-0.147-0.149c-0.04-0.07-0.049-0.149-0.019-0.234
				c0.027-0.072,0.078-0.122,0.146-0.15L417.336,72.124z M379.459,72.424c0.028-0.086,0.082-0.144,0.167-0.171
				c0.07-0.029,0.146-0.029,0.231,0l2.944,1.325c0.069,0.028,0.12,0.085,0.147,0.171c0.028,0.072,0.028,0.15,0,0.235
				c-0.027,0.07-0.084,0.121-0.168,0.149c-0.069,0.029-0.143,0.029-0.212,0l-2.943-1.325c-0.085-0.028-0.139-0.085-0.167-0.171
				C379.431,72.565,379.431,72.494,379.459,72.424z M386.419,64.173c-0.056-0.072-0.076-0.15-0.063-0.236
				c0.016-0.085,0.057-0.149,0.127-0.192c0.057-0.058,0.126-0.079,0.211-0.065c0.082,0.015,0.147,0.058,0.19,0.129l1.932,2.65
				c0.058,0.058,0.079,0.129,0.063,0.213c-0.012,0.086-0.049,0.15-0.104,0.193c-0.07,0.057-0.148,0.079-0.23,0.064
				c-0.084-0.015-0.147-0.05-0.189-0.108L386.419,64.173z M408.46,66.459l1.893-2.65c0.043-0.071,0.106-0.114,0.19-0.129
				c0.083-0.014,0.154,0.007,0.209,0.065c0.07,0.042,0.113,0.106,0.129,0.192c0.013,0.071,0,0.143-0.045,0.214l-1.893,2.65
				c-0.055,0.071-0.127,0.114-0.209,0.128c-0.072,0.014-0.142,0-0.211-0.043c-0.072-0.057-0.112-0.128-0.127-0.214
				C408.384,66.602,408.406,66.531,408.46,66.459z"/>
		</g>
		<path fill-rule="evenodd" clip-rule="evenodd" fill="#999999" d="M422.907,47.89c0.16,0.131,0.376,0.294,0.65,0.491
			c0.276,0.191,0.547,0.421,0.813,0.689c0.12,0.021,0.245,0.03,0.375,0.03c0.563,0,1.046-0.204,1.448-0.613
			c0.382-0.388,0.571-0.868,0.571-1.439c0-0.572-0.189-1.063-0.571-1.471c-0.402-0.387-0.885-0.582-1.448-0.582
			c-0.561,0-1.033,0.194-1.415,0.582c-0.401,0.408-0.604,0.898-0.604,1.471C422.725,47.356,422.787,47.638,422.907,47.89z"/>
		<path fill-rule="evenodd" clip-rule="evenodd" fill="#FF3333" d="M402.478,49.376c8.296,1.919,14.944,5.819,19.947,11.7
			c2.491,2.96,4.157,5.717,5.005,8.269c1.144-1.837,1.896-4.042,2.259-6.615c0.743-5.126-0.816-9.484-4.672-13.078
			c-0.217-0.201-0.433-0.395-0.647-0.582c-0.266-0.268-0.536-0.498-0.813-0.689c-0.274-0.197-0.49-0.36-0.65-0.491
			c-3.551-2.612-7.268-3.689-11.148-3.23C408.081,45.088,404.987,46.661,402.478,49.376z"/>
		<path fill-rule="evenodd" clip-rule="evenodd" fill="#660000" d="M427.43,69.345c-0.848-2.552-2.514-5.309-5.005-8.269
			c-5.003-5.88-11.651-9.781-19.947-11.7v1.944c7.626,2.031,13.793,5.813,18.502,11.348c1.659,1.974,2.954,3.858,3.888,5.651
			L427.43,69.345z"/>
		<g>
			<path fill-rule="evenodd" clip-rule="evenodd" fill="#FF3333" d="M398.681,56.435c-6.702,0-12.431,2.409-17.184,7.225
				c-4.737,4.831-7.106,10.659-7.106,17.484c0,6.812,2.369,12.634,7.106,17.464c4.753,4.816,10.481,7.225,17.184,7.225
				c6.73,0,12.458-2.409,17.182-7.225c4.739-4.831,7.109-10.652,7.109-17.464c0-6.826-2.37-12.654-7.109-17.484
				C411.139,58.843,405.412,56.435,398.681,56.435z M398.681,51.476c8.062,0,14.938,2.893,20.63,8.678
				c5.708,5.799,8.561,12.797,8.561,20.99c0,8.194-2.853,15.185-8.561,20.97c-5.691,5.8-12.568,8.7-20.63,8.7
				c-8.063,0-14.945-2.9-20.651-8.7c-5.694-5.785-8.541-12.775-8.541-20.97c0-8.193,2.847-15.191,8.541-20.99
				C383.736,54.368,390.619,51.476,398.681,51.476z"/>
		</g>
		<g>
			<polygon fill-rule="evenodd" clip-rule="evenodd" fill="#333333" points="400.617,78.943 409.364,74.368 414.245,73.876 
				410.9,77.617 402.003,81.871 398.788,81.422 			"/>
		</g>
		<g>
			<path fill-rule="evenodd" clip-rule="evenodd" fill="#333333" d="M400.826,80.846c0.31,0.669,0.338,1.339,0.085,2.008
				c-0.184,0.471-0.463,0.848-0.841,1.133c-0.168,0.1-0.337,0.2-0.506,0.299c-0.646,0.299-1.296,0.321-1.957,0.064
				c-0.657-0.242-1.135-0.698-1.43-1.368c-0.083-0.199-0.146-0.385-0.188-0.556c-0.098-0.484-0.058-0.961,0.126-1.432
				c0.252-0.669,0.694-1.153,1.323-1.453c0.66-0.286,1.319-0.307,1.978-0.064C400.077,79.734,400.545,80.19,400.826,80.846z"/>
		</g>
		<path fill-rule="evenodd" clip-rule="evenodd" fill="#333333" d="M398.855,63.701c0.112,0.08,0.167,0.17,0.167,0.27v25.221
			c0,0.1-0.055,0.186-0.167,0.256c-0.097,0.08-0.217,0.121-0.358,0.121h-0.021c-0.14,0-0.266-0.041-0.378-0.121
			c-0.097-0.071-0.147-0.156-0.147-0.256V63.971c0-0.1,0.051-0.19,0.147-0.27c0.112-0.07,0.238-0.105,0.378-0.105h0.021
			C398.638,63.596,398.758,63.631,398.855,63.701z"/>
	</g>
</g>
</svg>
