<?xml version="1.0" encoding="utf-8"?>
<!-- Generator: Adobe Illustrator 15.1.0, SVG Export Plug-In . SVG Version: 6.00 Build 0)  -->
<!DOCTYPE svg PUBLIC "-//W3C//DTD SVG 1.1//EN" "http://www.w3.org/Graphics/SVG/1.1/DTD/svg11.dtd">
<svg version="1.1" xmlns="http://www.w3.org/2000/svg" xmlns:xlink="http://www.w3.org/1999/xlink" x="0px" y="0px" width="183px"
	 height="183px" viewBox="0 0 183 183" enable-background="new 0 0 183 183" xml:space="preserve">
<symbol  id="Duplicate_Items_Folder_x2F_truba_kriv_copy" viewBox="200.25 -117.178 235.6 154.178">
	<g id="prov_1_">
		
			<path fill-rule="evenodd" clip-rule="evenodd" fill="none" stroke="#44332D" stroke-width="2" stroke-linecap="round" stroke-linejoin="round" stroke-miterlimit="3" d="
			M385.75,15.95l7.45,6.5 M385.7,18.5l7.4,10.65h8.45l-1.3,6.85 M394,4.7l10.075,5.3l9.375-1.75l4.1,10.4 M398.85-1.75l22.025,3.4
			l7.375,16.85l6.6-0.95"/>
	</g>
	<g id="base_1_">
		<path fill-rule="evenodd" clip-rule="evenodd" fill="#A58A76" d="M396.725-10.675l-23.75-15.95l-3-59.025
			c-0.093-1.757-0.509-3.432-1.25-5.025c-8.523-18.243-22.315-27.067-41.375-26.475h-0.05c-9.875,0.055-24.849,4.154-44.925,12.3
			l0.275-0.125l-79.675,30.35l1.1,28.475c0.166-0.065,0.332-0.132,0.5-0.2l-0.275,0.125l87.95-33.5
			c0.069-0.042,0.161-0.084,0.275-0.125c15.892-6.441,27.7-9.875,35.425-10.3H328c6.69,0.007,11.748,2.949,15.175,8.825l3.2,62.825
			c0.114,2.122,0.697,4.105,1.75,5.95c1.046,1.845,2.446,3.362,4.2,4.55L380.4,10.875L396.725-10.675z M384.9,24.7l25.55-34.55
			l-3.65-2.7L381.25,22L384.9,24.7z"/>
		
			<path fill-rule="evenodd" clip-rule="evenodd" fill="none" stroke="#A58A76" stroke-width="2" stroke-linecap="round" stroke-linejoin="round" stroke-miterlimit="3" d="
			M378.35,13.6l2.05-2.725l16.325-21.55L397.75-12 M384.9,24.7l25.55-34.55l-3.65-2.7L381.25,22L384.9,24.7z"/>
	</g>
	<g id="line_1_">
		<polygon fill-rule="evenodd" clip-rule="evenodd" fill="#785C4B" points="382.25,18.55 403.7,-11 395.6,-16.85 374.15,12.7 		"/>
		
			<path fill-rule="evenodd" clip-rule="evenodd" fill="none" stroke="#785C4B" stroke-width="2" stroke-linecap="round" stroke-linejoin="round" stroke-miterlimit="3" d="
			M382.25,18.55L403.7-11l-8.1-5.85L374.15,12.7L382.25,18.55z M344.45-56.5L371.4-58 M346.6-12.9L374-26.65 M338.05-87.15
			l17.3-21.45 M267.75-70.5L255.3-94.75 M222.75-53.35l-11.15-24.6 M309.9-86.15L299.15-111"/>
	</g>
	<g>
		<defs>
			<path id="SVGID_1_" d="M380.4,10.875L352.325-8c-1.754-1.188-3.154-2.705-4.2-4.55c-1.053-1.845-1.636-3.828-1.75-5.95
				l-3.2-62.825c-3.427-5.876-8.485-8.817-15.175-8.825h-0.05c-7.725,0.425-19.533,3.858-35.425,10.3
				c-0.114,0.041-0.206,0.083-0.275,0.125l-87.95,33.5l0.275-0.125c-1.083,0.44-2.158,0.856-3.225,1.25l-1.1-28.5l82.4-31.375
				l-0.275,0.125c20.076-8.146,35.05-12.245,44.925-12.3h0.05c19.06-0.592,32.852,8.232,41.375,26.475
				c0.741,1.593,1.157,3.268,1.25,5.025l3,59.025l23.75,15.95L397.75-12l-19.4,25.6L380.4,10.875z M384.9,24.7l-3.65-2.7
				l25.55-34.55l3.65,2.7L384.9,24.7z"/>
		</defs>
		<clipPath id="SVGID_2_">
			<use xlink:href="#SVGID_1_"  overflow="visible"/>
		</clipPath>
		<g id="dira_1_" clip-path="url(#SVGID_2_)">
			<path fill-rule="evenodd" clip-rule="evenodd" fill="#44332D" d="M251.45-56.45c3.333-0.633,5.733-2.033,7.2-4.2
				c1.467-2.167,1.6-4.467,0.4-6.9c-1.267-2.467-3.517-4.333-6.75-5.6c-3.2-1.3-6.466-1.65-9.8-1.05
				c-3.367,0.633-5.767,2.034-7.2,4.2c-0.133,0.2-0.267,0.383-0.4,0.55c-4.566-2.433-8.95-3.25-13.15-2.45
				c-4.4,0.833-7.333,3.167-8.8,7c-1.467,3.833-1.034,8.05,1.3,12.65c0.3,0.7,0.667,1.35,1.1,1.95c-0.1,0-0.2-0.034-0.3-0.1
				c-1.566-0.733-3.117-0.95-4.65-0.65c-1.5,0.267-2.55,0.966-3.15,2.1c-0.667,1.1-0.65,2.317,0.05,3.65c0.633,1.3,1.733,2.3,3.3,3
				c1.566,0.733,3.117,0.95,4.65,0.65c1.5-0.233,2.567-0.917,3.2-2.05c0.367-0.667,0.517-1.367,0.45-2.1c1.7,1.7,3.7,3.2,6,4.5
				c4.8,2.7,9.383,3.633,13.75,2.8c4.434-0.8,7.367-3.133,8.8-7c1.267-3.3,1.133-6.9-0.4-10.8
				C248.517-56.133,249.983-56.183,251.45-56.45z M260.85-79.1c0.533-0.667,0.733-1.467,0.6-2.4c-0.167-0.967-0.617-1.783-1.35-2.45
				c-0.733-0.667-1.567-1-2.5-1c-0.9-0.033-1.617,0.284-2.15,0.95c-0.567,0.633-0.8,1.433-0.7,2.4c0.167,0.934,0.617,1.733,1.35,2.4
				c0.733,0.633,1.583,0.967,2.55,1C259.583-78.2,260.317-78.5,260.85-79.1z M234.9-69.45c-1.1,2.034-1.083,4.15,0.05,6.35
				c1.267,2.467,3.5,4.35,6.7,5.65c1.8,0.667,3.6,1.05,5.4,1.15c-1.8-0.1-3.6-0.483-5.4-1.15c-3.2-1.3-5.433-3.183-6.7-5.65
				C233.817-65.3,233.8-67.417,234.9-69.45z M215.35-50.3c0.967,1.633,2.15,3.133,3.55,4.5C217.5-47.167,216.317-48.667,215.35-50.3
				z"/>
			
				<path fill-rule="evenodd" clip-rule="evenodd" fill="none" stroke="#44332D" stroke-width="2" stroke-linecap="round" stroke-linejoin="round" stroke-miterlimit="3" d="
				M251.45-56.45c3.333-0.633,5.733-2.033,7.2-4.2c1.467-2.167,1.6-4.467,0.4-6.9c-1.267-2.467-3.517-4.333-6.75-5.6
				c-3.2-1.3-6.466-1.65-9.8-1.05c-3.367,0.633-5.767,2.034-7.2,4.2c-0.133,0.2-0.267,0.383-0.4,0.55
				c-4.566-2.433-8.95-3.25-13.15-2.45c-4.4,0.833-7.333,3.167-8.8,7c-1.467,3.833-1.034,8.05,1.3,12.65
				c0.3,0.7,0.667,1.35,1.1,1.95c-0.1,0-0.2-0.034-0.3-0.1c-1.566-0.733-3.117-0.95-4.65-0.65c-1.5,0.267-2.55,0.966-3.15,2.1
				c-0.667,1.1-0.65,2.317,0.05,3.65c0.633,1.3,1.733,2.3,3.3,3c1.566,0.733,3.117,0.95,4.65,0.65c1.5-0.233,2.567-0.917,3.2-2.05
				c0.367-0.667,0.517-1.367,0.45-2.1c1.7,1.7,3.7,3.2,6,4.5c4.8,2.7,9.383,3.633,13.75,2.8c4.434-0.8,7.367-3.133,8.8-7
				c1.267-3.3,1.133-6.9-0.4-10.8C248.517-56.133,249.983-56.183,251.45-56.45z M260.85-79.1c0.533-0.667,0.733-1.467,0.6-2.4
				c-0.167-0.967-0.617-1.783-1.35-2.45c-0.733-0.667-1.567-1-2.5-1c-0.9-0.033-1.617,0.284-2.15,0.95
				c-0.567,0.633-0.8,1.433-0.7,2.4c0.167,0.934,0.617,1.733,1.35,2.4c0.733,0.633,1.583,0.967,2.55,1
				C259.583-78.2,260.317-78.5,260.85-79.1z M234.9-69.45c-1.1,2.034-1.083,4.15,0.05,6.35c1.267,2.467,3.5,4.35,6.7,5.65
				c1.8,0.667,3.6,1.05,5.4,1.15 M215.35-50.3c0.967,1.633,2.15,3.133,3.55,4.5"/>
		</g>
	</g>
</symbol>
<symbol  id="plashka" viewBox="3.5 -184.9 217.05 182.35">
	<g id="Layer_4_1_">
		<polygon fill-rule="evenodd" clip-rule="evenodd" fill="#FFFFFF" points="219.55,-183.9 4.5,-183.9 4.5,-3.55 219.55,-3.55 		"/>
		<polygon fill-rule="evenodd" clip-rule="evenodd" fill="none" stroke="#FFFFFF" stroke-width="2" stroke-miterlimit="10" points="
			219.55,-183.9 4.5,-183.9 4.5,-3.55 219.55,-3.55 		"/>
	</g>
</symbol>
<g id="plashki">
	
		<use xlink:href="#plashka"  width="217.05" height="182.35" x="3.5" y="-184.9" transform="matrix(0.8424 0 0 -1 -2.7002 -2.8999)" overflow="visible"/>
</g>
<g id="papka">
	
		<use xlink:href="#Duplicate_Items_Folder_x2F_truba_kriv_copy"  width="235.6" height="154.178" x="200.25" y="-117.178" transform="matrix(0.6956 -0.0269 -0.0269 -0.6956 -143.25 101.25)" overflow="visible"/>
</g>
</svg>
