<?xml version="1.0" encoding="utf-8"?>
<!-- Generator: Adobe Illustrator 15.1.0, SVG Export Plug-In . SVG Version: 6.00 Build 0)  -->
<!DOCTYPE svg PUBLIC "-//W3C//DTD SVG 1.1//EN" "http://www.w3.org/Graphics/SVG/1.1/DTD/svg11.dtd">
<svg version="1.1" xmlns="http://www.w3.org/2000/svg" xmlns:xlink="http://www.w3.org/1999/xlink" x="0px" y="0px" width="183px"
	 height="183px" viewBox="0 0 183 183" enable-background="new 0 0 183 183" xml:space="preserve">
<symbol  id="Duplicate_Items_Folder_x2F_meshki_fon_copy" viewBox="-0.478 -130.836 183.341 129.189">
	<g id="Layer_1_4_">
		<path fill-rule="evenodd" clip-rule="evenodd" fill="#E7ECED" d="M177.35-44.75c-0.533-1.3-1.434-2.383-2.7-3.25
			c-0.667-0.433-1.433-0.8-2.3-1.1c-2.567-0.9-5.517-0.667-8.85,0.7c-9.2-4.567-19.883-5.9-32.05-4c-5.8,1.1-9.867,1.833-12.2,2.2
			c-3.967,0.567-6.883,0.45-8.75-0.35c-4.933-2.8-9.267-4.217-13-4.25c-4.233-0.034-7.733,1.683-10.5,5.15
			c-3.967,8.967-5.8,17-5.5,24.1c0.1,2.1,0.383,4.117,0.85,6.05c-0.067-0.133-0.133-0.283-0.2-0.45c-0.6-1.733-1.033-3.55-1.3-5.45
			c-1.067-7.467,0.4-16.017,4.4-25.65c0.267-0.6,0.533-1.2,0.8-1.8c0.733-0.9,1.5-1.683,2.3-2.35c2.633-2.133,5.783-3.05,9.45-2.75
			c3.467,0.3,7.383,1.7,11.75,4.2c1.867,0.8,4.784,0.917,8.75,0.35c2.333-0.367,6.4-1.1,12.2-2.2c12.167-1.9,22.85-0.566,32.05,4
			c3.333-1.367,6.284-1.6,8.85-0.7c1.633,0.6,2.917,1.417,3.85,2.45c0.5,0.567,0.883,1.2,1.15,1.9c0.267,0.3,0.483,0.684,0.65,1.15
			c-0.167-0.467-0.383-0.85-0.65-1.15c-0.267-0.7-0.65-1.333-1.15-1.9c-0.933-1.033-2.217-1.85-3.85-2.45
			c-2.566-0.9-5.517-0.667-8.85,0.7c-9.2-4.566-19.883-5.9-32.05-4c-5.8,1.1-9.867,1.833-12.2,2.2
			c-3.966,0.566-6.883,0.45-8.75-0.35c-4.367-2.5-8.283-3.9-11.75-4.2c-3.667-0.3-6.816,0.617-9.45,2.75
			c-0.8,0.667-1.567,1.45-2.3,2.35c-0.267,0.6-0.533,1.2-0.8,1.8c-4,9.633-5.467,18.183-4.4,25.65c0.267,1.9,0.7,3.717,1.3,5.45
			c0.067,0.167,0.133,0.317,0.2,0.45c-0.467-1.933-0.75-3.95-0.85-6.05c-0.3-7.1,1.533-15.133,5.5-24.1
			c2.767-3.467,6.267-5.184,10.5-5.15c3.733,0.033,8.067,1.45,13,4.25c1.867,0.8,4.783,0.917,8.75,0.35
			c2.333-0.367,6.4-1.1,12.2-2.2c12.167-1.9,22.85-0.567,32.05,4c3.333-1.367,6.283-1.6,8.85-0.7c0.867,0.3,1.633,0.667,2.3,1.1
			C175.917-47.133,176.817-46.05,177.35-44.75z M86-11.2c-1.167-1.466-2.133-3.316-2.9-5.55c-0.3-0.9-0.55-1.817-0.75-2.75
			c0.2,0.933,0.45,1.85,0.75,2.75C83.867-14.517,84.833-12.667,86-11.2c3.6,4.6,9.133,5.7,16.6,3.3c14.367,3.667,34,3.667,58.9,0
			c4.667-1.033,8.133-3.783,10.4-8.25c5.934-16.667,7.75-26.2,5.45-28.6c-0.033-0.8-0.133-1.483-0.3-2.05
			c1.8-6.833,2.217-11.267,1.25-13.3c1.2-4.733,1.684-8.233,1.45-10.5c-0.1-1.167-0.4-2-0.9-2.5c-0.8-1.967-2.467-3.417-5-4.35
			c-2.567-0.9-5.517-0.667-8.85,0.7c-9.2-4.567-19.883-5.9-32.05-4c-5.8,1.1-9.867,1.833-12.2,2.2
			c-3.967,0.566-6.883,0.45-8.75-0.35c-10.433-5.934-18.267-5.633-23.5,0.9c-1.2,2.7-2.2,5.317-3,7.85
			c0.833-0.133,1.633-0.2,2.4-0.2c-0.767,0-1.566,0.067-2.4,0.2c0.8-2.533,1.8-5.15,3-7.85c5.233-6.533,13.067-6.833,23.5-0.9
			c1.867,0.8,4.783,0.917,8.75,0.35c2.333-0.367,6.4-1.1,12.2-2.2c12.167-1.9,22.85-0.567,32.05,4c3.333-1.367,6.283-1.6,8.85-0.7
			c2.533,0.934,4.2,2.383,5,4.35c0.5,0.5,0.8,1.333,0.9,2.5c2.8-9.566,3.35-15.233,1.65-17c-0.066-1.533-0.383-2.6-0.95-3.2
			c-0.333-0.8-0.784-1.517-1.35-2.15c-0.934-0.9-2.15-1.633-3.65-2.2c-2.567-0.9-5.517-0.667-8.85,0.7
			c-9.2-4.566-19.883-5.9-32.05-4c-5.8,1.1-9.867,1.833-12.2,2.2c-3.967,0.567-6.883,0.45-8.75-0.35c-8.9-5.066-15.9-5.6-21-1.6
			c-0.9,0.7-1.733,1.534-2.5,2.5c-0.2,0.467-0.4,0.934-0.6,1.4c-1.5,3.5-2.65,6.867-3.45,10.1c0.567,0.233,1.117,0.45,1.65,0.65
			c0.867-2.867,1.983-5.85,3.35-8.95c5.233-6.533,13.067-6.833,23.5-0.9c1.867,0.8,4.784,0.917,8.75,0.35
			c2.333-0.367,6.4-1.1,12.2-2.2c12.167-1.9,22.85-0.567,32.05,4c3.333-1.367,6.284-1.6,8.85-0.7c2.533,0.934,4.2,2.383,5,4.35
			c-0.8-1.967-2.467-3.417-5-4.35c-2.566-0.9-5.517-0.667-8.85,0.7c-9.2-4.567-19.883-5.9-32.05-4c-5.8,1.1-9.867,1.833-12.2,2.2
			c-3.966,0.566-6.883,0.45-8.75-0.35c-10.433-5.934-18.267-5.633-23.5,0.9c-1.367,3.1-2.483,6.083-3.35,8.95
			c-0.534-0.2-1.083-0.417-1.65-0.65c0.8-3.233,1.95-6.6,3.45-10.1c0.2-0.467,0.4-0.934,0.6-1.4c0.767-0.966,1.6-1.8,2.5-2.5
			c5.1-4,12.1-3.466,21,1.6c1.867,0.8,4.783,0.917,8.75,0.35c2.333-0.367,6.4-1.1,12.2-2.2c12.167-1.9,22.85-0.566,32.05,4
			c3.333-1.367,6.283-1.6,8.85-0.7c1.5,0.566,2.716,1.3,3.65,2.2c1.033-5.167,0.95-8.383-0.25-9.65c-0.8-1.967-2.467-3.417-5-4.35
			c-2.567-0.9-5.517-0.667-8.85,0.7c-9.2-4.567-19.883-5.9-32.05-4c-5.8,1.1-9.867,1.833-12.2,2.2
			c-3.967,0.566-6.883,0.45-8.75-0.35c-10.433-5.934-18.267-5.633-23.5,0.9c-1.467,3.333-2.65,6.517-3.55,9.55
			c-0.534-0.2-1.067-0.417-1.6-0.65c0.767-3.267,1.9-6.7,3.4-10.3c0.267-0.6,0.533-1.2,0.8-1.8c0.733-0.9,1.5-1.683,2.3-2.35
			c5.133-4.133,12.2-3.65,21.2,1.45c1.867,0.8,4.784,0.917,8.75,0.35c2.333-0.367,6.4-1.1,12.2-2.2c12.167-1.9,22.85-0.566,32.05,4
			c3.333-1.367,6.284-1.6,8.85-0.7c2.4,0.9,4.033,2.25,4.9,4.05c-0.867-1.8-2.5-3.15-4.9-4.05c-2.566-0.9-5.517-0.667-8.85,0.7
			c-9.2-4.566-19.883-5.9-32.05-4c-5.8,1.1-9.867,1.833-12.2,2.2c-3.966,0.567-6.883,0.45-8.75-0.35c-9-5.1-16.066-5.583-21.2-1.45
			c-0.8,0.667-1.567,1.45-2.3,2.35c-0.267,0.6-0.533,1.2-0.8,1.8c-1.5,3.6-2.633,7.033-3.4,10.3c0.533,0.233,1.066,0.45,1.6,0.65
			c0.9-3.033,2.083-6.216,3.55-9.55c5.233-6.533,13.067-6.833,23.5-0.9c1.867,0.8,4.783,0.917,8.75,0.35
			c2.333-0.367,6.4-1.1,12.2-2.2c12.167-1.9,22.85-0.567,32.05,4c3.333-1.367,6.283-1.6,8.85-0.7c2.533,0.934,4.2,2.383,5,4.35
			c-0.067-1.533-0.383-2.6-0.95-3.2c-0.033-0.1-0.066-0.2-0.1-0.3c1.333-5.967,1.35-9.633,0.05-11c-0.8-1.967-2.467-3.417-5-4.35
			c-2.567-0.9-5.517-0.667-8.85,0.7c-9.2-4.567-19.883-5.9-32.05-4c-5.8,1.1-9.867,1.833-12.2,2.2
			c-3.967,0.566-6.883,0.45-8.75-0.35c-10.433-5.934-18.267-5.633-23.5,0.9c-1.4,3.167-2.533,6.2-3.4,9.1
			c-0.533-0.233-1.083-0.45-1.65-0.65c0.667-2.6,1.55-5.3,2.65-8.1c0.267-0.767,0.583-1.55,0.95-2.35
			c-0.367,0.8-0.683,1.583-0.95,2.35c-1.1,2.8-1.983,5.5-2.65,8.1c0.566,0.2,1.117,0.417,1.65,0.65c0.867-2.9,2-5.934,3.4-9.1
			c5.233-6.533,13.067-6.833,23.5-0.9c1.867,0.8,4.783,0.917,8.75,0.35c2.333-0.367,6.4-1.1,12.2-2.2
			c12.167-1.9,22.85-0.567,32.05,4c3.333-1.367,6.283-1.6,8.85-0.7c2.533,0.934,4.2,2.383,5,4.35c-0.067-1.533-0.383-2.6-0.95-3.2
			c-0.8-1.967-2.467-3.417-5-4.35c-2.566-0.9-5.517-0.667-8.85,0.7c-9.2-4.566-19.883-5.9-32.05-4c-5.8,1.1-9.867,1.833-12.2,2.2
			c-3.966,0.567-6.883,0.45-8.75-0.35c-10.433-5.933-18.267-5.633-23.5,0.9c-0.167,0.4-0.333,0.8-0.5,1.2
			c-9.2-4.533-19.883-5.85-32.05-3.95c-5.8,1.1-9.867,1.833-12.2,2.2c-3.966,0.567-6.883,0.45-8.75-0.35
			c-10.433-5.933-18.267-5.633-23.5,0.9c-4.8,10.8-6.483,20.267-5.05,28.4c0.133-0.867,0.3-1.75,0.5-2.65
			c0.867-4.3,2.383-8.883,4.55-13.75c5.233-6.533,13.067-6.833,23.5-0.9c1.867,0.8,4.784,0.917,8.75,0.35
			c2.333-0.367,6.4-1.1,12.2-2.2c10.6-1.667,20.083-0.867,28.45,2.4c-8.367-3.267-17.85-4.067-28.45-2.4
			c-5.8,1.1-9.867,1.833-12.2,2.2c-3.966,0.567-6.883,0.45-8.75-0.35c-10.433-5.933-18.267-5.633-23.5,0.9
			c-2.167,4.867-3.683,9.45-4.55,13.75c-0.2,0.9-0.367,1.784-0.5,2.65c-0.867,5.733-0.567,10.966,0.9,15.7
			c-0.533,3.9-0.517,7.55,0.05,10.95c-5.6,12.767-6.867,23.667-3.8,32.7c0.067,0.167,0.133,0.317,0.2,0.45
			c0.2,0.9,0.433,1.767,0.7,2.6c0.267-6.333,2.1-13.317,5.5-20.95c5.233-6.533,13.067-6.833,23.5-0.9
			c1.867,0.8,4.784,0.917,8.75,0.35c2.333-0.367,6.4-1.1,12.2-2.2c11.067-1.733,20.9-0.783,29.5,2.85
			c-8.6-3.633-18.433-4.583-29.5-2.85c-5.8,1.1-9.867,1.833-12.2,2.2c-3.966,0.566-6.883,0.45-8.75-0.35
			c-10.433-5.933-18.267-5.633-23.5,0.9c-3.4,7.633-5.233,14.617-5.5,20.95c-0.2,4.3,0.333,8.283,1.6,11.95
			c0.067,0.167,0.133,0.317,0.2,0.45c-0.767-3.1-1.033-6.4-0.8-9.9C3.917-38.033,5.733-44.783,9-52.15
			c5.233-6.533,13.067-6.833,23.5-0.9c1.867,0.8,4.783,0.917,8.75,0.35c2.333-0.367,6.4-1.1,12.2-2.2
			c12.066-1.9,22.667-0.617,31.8,3.85c-9.133-4.467-19.733-5.75-31.8-3.85c-5.8,1.1-9.867,1.833-12.2,2.2
			c-3.967,0.567-6.883,0.45-8.75-0.35c-10.433-5.934-18.267-5.633-23.5,0.9C5.733-44.783,3.917-38.033,3.55-31.9
			c-0.233,3.5,0.034,6.8,0.8,9.9c0.2,0.933,0.45,1.85,0.75,2.75c3.1,9.1,9.6,12.05,19.5,8.85c14.367,3.667,34,3.667,58.9,0
			C84.367-10.6,85.2-10.867,86-11.2z M88.35-55.2c-1.2,0.2-2.467,0.567-3.8,1.1c-0.333-0.167-0.667-0.333-1-0.5
			c0.934-3.5,2.25-7.183,3.95-11.05c0.433-0.533,0.883-1.033,1.35-1.5c0.933-0.9,1.95-1.65,3.05-2.25
			c4.9-2.567,11.267-1.617,19.1,2.85c1.867,0.8,4.783,0.917,8.75,0.35c2.333-0.367,6.4-1.1,12.2-2.2c12.167-1.9,22.85-0.567,32.05,4
			c3.333-1.367,6.283-1.6,8.85-0.7c2.533,0.934,4.2,2.383,5,4.35c0.167,0.167,0.316,0.383,0.45,0.65
			c-0.133-0.267-0.283-0.483-0.45-0.65c-0.8-1.967-2.467-3.417-5-4.35c-2.567-0.9-5.517-0.667-8.85,0.7
			c-9.2-4.567-19.883-5.9-32.05-4c-5.8,1.1-9.867,1.833-12.2,2.2c-3.967,0.567-6.883,0.45-8.75-0.35
			c-7.833-4.467-14.2-5.417-19.1-2.85c-1.1,0.6-2.117,1.35-3.05,2.25c-0.467,0.467-0.917,0.967-1.35,1.5
			c-1.7,3.867-3.017,7.55-3.95,11.05c0.333,0.167,0.667,0.333,1,0.5C85.883-54.633,87.15-55,88.35-55.2z M177.85-60.75
			c-0.067-1.533-0.383-2.6-0.95-3.2c-0.8-1.966-2.467-3.417-5-4.35c-2.566-0.9-5.517-0.667-8.85,0.7c-9.2-4.566-19.883-5.9-32.05-4
			c-5.8,1.1-9.867,1.833-12.2,2.2c-3.966,0.566-6.883,0.45-8.75-0.35c-9.566-5.433-16.95-5.633-22.15-0.6
			c-0.467,0.467-0.917,0.967-1.35,1.5c-0.3,0.7-0.6,1.383-0.9,2.05c-1.667,4.033-2.883,7.883-3.65,11.55
			c0.533,0.2,1.05,0.417,1.55,0.65c-0.5-0.233-1.017-0.45-1.55-0.65c0.767-3.667,1.983-7.517,3.65-11.55
			c0.3-0.667,0.6-1.35,0.9-2.05c0.434-0.533,0.883-1.033,1.35-1.5c5.2-5.033,12.583-4.833,22.15,0.6
			c1.867,0.8,4.784,0.917,8.75,0.35c2.333-0.367,6.4-1.1,12.2-2.2c12.167-1.9,22.85-0.566,32.05,4c3.333-1.367,6.284-1.6,8.85-0.7
			c2.533,0.933,4.2,2.383,5,4.35C177.467-63.35,177.783-62.283,177.85-60.75z M178.85-73.1c-0.033-1.533-0.35-2.6-0.95-3.2
			c-0.8-1.967-2.467-3.417-5-4.35c-2.566-0.9-5.517-0.667-8.85,0.7c-9.2-4.566-19.883-5.9-32.05-4c-5.8,1.1-9.867,1.833-12.2,2.2
			c-3.966,0.567-6.883,0.45-8.75-0.35c-9.433-5.367-16.733-5.633-21.9-0.8c-0.566,0.5-1.1,1.066-1.6,1.7
			c-0.066,0.133-0.117,0.25-0.15,0.35c-1.733,3.934-3.033,7.667-3.9,11.2c0.667-0.2,1.333-0.367,2-0.5c-0.667,0.133-1.333,0.3-2,0.5
			c0.867-3.533,2.167-7.267,3.9-11.2c0.033-0.1,0.083-0.217,0.15-0.35c0.5-0.633,1.034-1.2,1.6-1.7
			c5.167-4.833,12.467-4.567,21.9,0.8c1.867,0.8,4.784,0.917,8.75,0.35c2.333-0.367,6.4-1.1,12.2-2.2
			c12.167-1.9,22.85-0.566,32.05,4c3.333-1.367,6.284-1.6,8.85-0.7c2.533,0.933,4.2,2.383,5,4.35
			C178.5-75.7,178.817-74.633,178.85-73.1z M5.45-70.15c0.033-0.067,0.066-0.133,0.1-0.2c0.133-0.2,0.284-0.383,0.45-0.55
			c1.2-1.367,2.533-2.434,4-3.2c0.733-0.367,1.5-0.667,2.3-0.9c4.534-1.267,10.117-0.017,16.75,3.75
			c1.867,0.8,4.784,0.917,8.75,0.35c2.333-0.367,6.4-1.1,12.2-2.2c12.167-1.9,22.85-0.566,32.05,4c0.467-0.2,0.95-0.383,1.45-0.55
			c-0.5,0.167-0.983,0.35-1.45,0.55c-9.2-4.566-19.883-5.9-32.05-4c-5.8,1.1-9.867,1.833-12.2,2.2
			c-3.966,0.566-6.883,0.45-8.75-0.35C22.417-75.017,16.833-76.267,12.3-75c-0.8,0.233-1.566,0.533-2.3,0.9
			c-1.467,0.767-2.8,1.833-4,3.2c-0.167,0.167-0.317,0.35-0.45,0.55C5.517-70.283,5.483-70.217,5.45-70.15z M85.65-66.8
			c-0.867,0.233-1.75,0.533-2.65,0.9c-9.2-4.567-19.883-5.9-32.05-4c-5.8,1.1-9.867,1.833-12.2,2.2
			c-3.967,0.567-6.883,0.45-8.75-0.35c-10.433-5.934-18.267-5.633-23.5,0.9C1.367-55.583-0.183-45.533,1.85-37
			c-2.033-8.533-0.483-18.583,4.65-30.15c5.233-6.533,13.067-6.833,23.5-0.9c1.867,0.8,4.783,0.917,8.75,0.35
			c2.333-0.367,6.4-1.1,12.2-2.2c12.167-1.9,22.85-0.567,32.05,4C83.9-66.267,84.783-66.567,85.65-66.8z M12.3-75
			c0.633-1.8,1.367-3.633,2.2-5.5c5.233-6.533,13.067-6.833,23.5-0.9c1.867,0.8,4.783,0.917,8.75,0.35c2.333-0.367,6.4-1.1,12.2-2.2
			c10.6-1.667,20.083-0.867,28.45,2.4c-8.367-3.267-17.85-4.066-28.45-2.4c-5.8,1.1-9.867,1.833-12.2,2.2
			c-3.967,0.566-6.883,0.45-8.75-0.35c-10.433-5.934-18.267-5.633-23.5,0.9C13.667-78.633,12.933-76.8,12.3-75z M5.4-81.1
			c0.033-0.167,0.067-0.333,0.1-0.5c0.733-5.133,2.417-10.667,5.05-16.6c5.233-6.533,13.067-6.833,23.5-0.9
			c1.867,0.8,4.784,0.917,8.75,0.35c2.333-0.367,6.4-1.1,12.2-2.2c10.567-1.667,20.017-0.883,28.35,2.35
			c-8.333-3.233-17.783-4.017-28.35-2.35c-5.8,1.1-9.867,1.833-12.2,2.2c-3.966,0.567-6.883,0.45-8.75-0.35
			c-10.433-5.933-18.267-5.633-23.5,0.9C7.917-92.267,6.233-86.733,5.5-81.6C5.467-81.433,5.433-81.267,5.4-81.1z M87.7-83.55
			c0.466,0.2,0.95,0.417,1.45,0.65C88.65-83.133,88.167-83.35,87.7-83.55z M89.5-94.3c-0.5,0.167-1,0.35-1.5,0.55
			c-9.2-4.567-19.883-5.9-32.05-4c-5.8,1.1-9.867,1.833-12.2,2.2c-3.967,0.566-6.883,0.45-8.75-0.35
			c-10.433-5.934-18.267-5.633-23.5,0.9C7.533-86.067,5.7-78.033,6-70.9C5.7-78.033,7.533-86.067,11.5-95
			c5.233-6.533,13.067-6.833,23.5-0.9c1.867,0.8,4.783,0.917,8.75,0.35c2.333-0.367,6.4-1.1,12.2-2.2
			c12.167-1.9,22.85-0.567,32.05,4C88.5-93.95,89-94.133,89.5-94.3z M92.6-98.2c-1.733,0.034-3.583,0.45-5.55,1.25
			c-0.7-0.333-1.4-0.667-2.1-1c0.7,0.333,1.4,0.667,2.1,1C89.017-97.75,90.867-98.167,92.6-98.2z M10-74.1
			c0.9-3.066,2.083-6.267,3.55-9.6c5.233-6.533,13.067-6.833,23.5-0.9c1.867,0.8,4.784,0.917,8.75,0.35
			c2.333-0.367,6.4-1.1,12.2-2.2c10.433-1.633,19.783-0.883,28.05,2.25c-8.267-3.133-17.617-3.883-28.05-2.25
			c-5.8,1.1-9.867,1.833-12.2,2.2c-3.966,0.567-6.883,0.45-8.75-0.35c-10.433-5.933-18.267-5.633-23.5,0.9
			C12.083-80.367,10.9-77.167,10-74.1z M5-99.45c-0.033-6.733,1.8-14.25,5.5-22.55c5.233-6.533,13.067-6.833,23.5-0.9
			c1.867,0.8,4.783,0.917,8.75,0.35c2.333-0.367,6.4-1.1,12.2-2.2c11.333-1.767,21.383-0.733,30.15,3.1
			c-8.767-3.833-18.817-4.867-30.15-3.1c-5.8,1.1-9.867,1.833-12.2,2.2c-3.967,0.566-6.883,0.45-8.75-0.35
			c-10.433-5.934-18.267-5.633-23.5,0.9C6.8-113.7,4.967-106.183,5-99.45z M86.75-108.9c-9.133-4.467-19.733-5.75-31.8-3.85
			c-5.8,1.1-9.867,1.833-12.2,2.2c-3.967,0.566-6.883,0.45-8.75-0.35c-10.433-5.934-18.267-5.633-23.5,0.9
			c-4.8,10.8-6.467,20.267-5,28.4c-1.467-8.133,0.2-17.6,5-28.4c5.233-6.533,13.067-6.833,23.5-0.9c1.867,0.8,4.783,0.917,8.75,0.35
			c2.333-0.367,6.4-1.1,12.2-2.2C67.017-114.65,77.617-113.367,86.75-108.9z M89.85-113.05c-1.2,0.2-2.467,0.566-3.8,1.1
			c-0.633-0.333-1.283-0.65-1.95-0.95c0.667,0.3,1.316,0.617,1.95,0.95C87.383-112.483,88.65-112.85,89.85-113.05z"/>
		
			<path fill-rule="evenodd" clip-rule="evenodd" fill="none" stroke="#E7ECED" stroke-linecap="round" stroke-linejoin="round" stroke-miterlimit="3" d="
			M177.35-44.75c-0.533-1.3-1.434-2.383-2.7-3.25c-0.667-0.433-1.433-0.8-2.3-1.1c-2.567-0.9-5.517-0.667-8.85,0.7
			c-9.2-4.567-19.883-5.9-32.05-4c-5.8,1.1-9.867,1.833-12.2,2.2c-3.967,0.567-6.883,0.45-8.75-0.35c-4.933-2.8-9.267-4.217-13-4.25
			c-4.233-0.034-7.733,1.683-10.5,5.15c-3.967,8.967-5.8,17-5.5,24.1c0.1,2.1,0.383,4.117,0.85,6.05
			c-0.067-0.133-0.133-0.283-0.2-0.45c-0.6-1.733-1.033-3.55-1.3-5.45c-1.067-7.467,0.4-16.017,4.4-25.65
			c0.267-0.6,0.533-1.2,0.8-1.8c0.733-0.9,1.5-1.683,2.3-2.35c2.633-2.133,5.783-3.05,9.45-2.75c3.467,0.3,7.383,1.7,11.75,4.2
			c1.867,0.8,4.784,0.917,8.75,0.35c2.333-0.367,6.4-1.1,12.2-2.2c12.167-1.9,22.85-0.566,32.05,4c3.333-1.367,6.284-1.6,8.85-0.7
			c1.633,0.6,2.917,1.417,3.85,2.45c0.5,0.567,0.883,1.2,1.15,1.9c0.267,0.3,0.483,0.684,0.65,1.15
			C177.217-46.233,177.317-45.55,177.35-44.75c2.3,2.4,0.483,11.933-5.45,28.6c-2.267,4.467-5.733,7.217-10.4,8.25
			c-24.9,3.667-44.533,3.667-58.9,0c-7.467,2.4-13,1.3-16.6-3.3c-1.167-1.466-2.133-3.316-2.9-5.55c-0.3-0.9-0.55-1.817-0.75-2.75
			 M88.35-55.2c-1.2,0.2-2.467,0.567-3.8,1.1c-0.333-0.167-0.667-0.333-1-0.5c0.934-3.5,2.25-7.183,3.95-11.05
			c0.433-0.533,0.883-1.033,1.35-1.5c0.933-0.9,1.95-1.65,3.05-2.25c4.9-2.567,11.267-1.617,19.1,2.85
			c1.867,0.8,4.783,0.917,8.75,0.35c2.333-0.367,6.4-1.1,12.2-2.2c12.167-1.9,22.85-0.567,32.05,4c3.333-1.367,6.283-1.6,8.85-0.7
			c2.533,0.934,4.2,2.383,5,4.35c0.167,0.167,0.316,0.383,0.45,0.65c0.967,2.033,0.55,6.467-1.25,13.3 M83.55-54.6
			c-0.5-0.233-1.017-0.45-1.55-0.65c0.767-3.667,1.983-7.517,3.65-11.55c0.3-0.667,0.6-1.35,0.9-2.05
			c0.434-0.533,0.883-1.033,1.35-1.5c5.2-5.033,12.583-4.833,22.15,0.6c1.867,0.8,4.784,0.917,8.75,0.35
			c2.333-0.367,6.4-1.1,12.2-2.2c12.167-1.9,22.85-0.566,32.05,4c3.333-1.367,6.284-1.6,8.85-0.7c2.533,0.933,4.2,2.383,5,4.35
			c0.567,0.6,0.883,1.667,0.95,3.2 M87.9-70.35c-0.767,0-1.566,0.067-2.4,0.2c0.8-2.533,1.8-5.15,3-7.85
			c5.233-6.533,13.067-6.833,23.5-0.9c1.867,0.8,4.783,0.917,8.75,0.35c2.333-0.367,6.4-1.1,12.2-2.2
			c12.167-1.9,22.85-0.567,32.05,4c3.333-1.367,6.283-1.6,8.85-0.7c2.533,0.934,4.2,2.383,5,4.35c0.5,0.5,0.8,1.333,0.9,2.5
			c0.233,2.267-0.25,5.767-1.45,10.5 M85.5-70.15c-0.667,0.133-1.333,0.3-2,0.5c0.867-3.533,2.167-7.267,3.9-11.2
			c0.033-0.1,0.083-0.217,0.15-0.35c0.5-0.633,1.034-1.2,1.6-1.7c5.167-4.833,12.467-4.567,21.9,0.8
			c1.867,0.8,4.784,0.917,8.75,0.35c2.333-0.367,6.4-1.1,12.2-2.2c12.167-1.9,22.85-0.566,32.05,4c3.333-1.367,6.284-1.6,8.85-0.7
			c2.533,0.933,4.2,2.383,5,4.35c0.6,0.6,0.917,1.667,0.95,3.2 M181.4-87.6c-0.8-1.967-2.467-3.417-5-4.35
			c-2.566-0.9-5.517-0.667-8.85,0.7c-9.2-4.567-19.883-5.9-32.05-4c-5.8,1.1-9.867,1.833-12.2,2.2
			c-3.966,0.566-6.883,0.45-8.75-0.35c-10.433-5.934-18.267-5.633-23.5,0.9c-1.367,3.1-2.483,6.083-3.35,8.95
			c-0.534-0.2-1.083-0.417-1.65-0.65c0.8-3.233,1.95-6.6,3.45-10.1c0.2-0.467,0.4-0.934,0.6-1.4c0.767-0.966,1.6-1.8,2.5-2.5
			c5.1-4,12.1-3.466,21,1.6c1.867,0.8,4.783,0.917,8.75,0.35c2.333-0.367,6.4-1.1,12.2-2.2c12.167-1.9,22.85-0.566,32.05,4
			c3.333-1.367,6.283-1.6,8.85-0.7c1.5,0.566,2.716,1.3,3.65,2.2c0.566,0.633,1.017,1.35,1.35,2.15
			C181.017-90.2,181.333-89.133,181.4-87.6c1.7,1.767,1.15,7.434-1.65,17 M178.85-102.6c-0.8-1.967-2.467-3.417-5-4.35
			c-2.567-0.9-5.517-0.667-8.85,0.7c-9.2-4.567-19.883-5.9-32.05-4c-5.8,1.1-9.867,1.833-12.2,2.2
			c-3.967,0.566-6.883,0.45-8.75-0.35c-10.433-5.934-18.267-5.633-23.5,0.9c-1.467,3.333-2.65,6.517-3.55,9.55
			c-0.534-0.2-1.067-0.417-1.6-0.65c0.767-3.267,1.9-6.7,3.4-10.3c0.267-0.6,0.533-1.2,0.8-1.8c0.733-0.9,1.5-1.683,2.3-2.35
			c5.133-4.133,12.2-3.65,21.2,1.45c1.867,0.8,4.784,0.917,8.75,0.35c2.333-0.367,6.4-1.1,12.2-2.2c12.167-1.9,22.85-0.566,32.05,4
			c3.333-1.367,6.284-1.6,8.85-0.7c2.4,0.9,4.033,2.25,4.9,4.05c0.034,0.1,0.067,0.2,0.1,0.3
			C178.467-105.2,178.783-104.133,178.85-102.6c1.2,1.267,1.283,4.483,0.25,9.65 M86.05-124c0.167-0.4,0.333-0.8,0.5-1.2
			c5.233-6.533,13.067-6.833,23.5-0.9c1.867,0.8,4.784,0.917,8.75,0.35c2.333-0.367,6.4-1.1,12.2-2.2
			c12.167-1.9,22.85-0.566,32.05,4c3.333-1.367,6.284-1.6,8.85-0.7c2.533,0.933,4.2,2.383,5,4.35c0.567,0.6,0.883,1.667,0.95,3.2
			c-0.8-1.967-2.467-3.417-5-4.35c-2.567-0.9-5.517-0.667-8.85,0.7c-9.2-4.567-19.883-5.9-32.05-4c-5.8,1.1-9.867,1.833-12.2,2.2
			c-3.967,0.566-6.883,0.45-8.75-0.35c-10.433-5.934-18.267-5.633-23.5,0.9c-1.4,3.167-2.533,6.2-3.4,9.1
			c-0.533-0.233-1.083-0.45-1.65-0.65c0.667-2.6,1.55-5.3,2.65-8.1C85.367-122.417,85.683-123.2,86.05-124z M177.85-117.1
			c1.3,1.367,1.283,5.033-0.05,11 M86-11.2c-0.8,0.333-1.633,0.6-2.5,0.8c-24.9,3.667-44.533,3.667-58.9,0
			c-9.9,3.2-16.4,0.25-19.5-8.85c-0.3-0.9-0.55-1.817-0.75-2.75c-0.767-3.1-1.033-6.4-0.8-9.9C3.917-38.033,5.733-44.783,9-52.15
			c5.233-6.533,13.067-6.833,23.5-0.9c1.867,0.8,4.783,0.917,8.75,0.35c2.333-0.367,6.4-1.1,12.2-2.2
			c12.066-1.9,22.667-0.617,31.8,3.85 M5.45-70.15c0.033-0.067,0.066-0.133,0.1-0.2c0.133-0.2,0.284-0.383,0.45-0.55
			c1.2-1.367,2.533-2.434,4-3.2c0.733-0.367,1.5-0.667,2.3-0.9c4.534-1.267,10.117-0.017,16.75,3.75
			c1.867,0.8,4.784,0.917,8.75,0.35c2.333-0.367,6.4-1.1,12.2-2.2c12.167-1.9,22.85-0.566,32.05,4c0.467-0.2,0.95-0.383,1.45-0.55
			 M85.65-66.8c-0.867,0.233-1.75,0.533-2.65,0.9c-9.2-4.567-19.883-5.9-32.05-4c-5.8,1.1-9.867,1.833-12.2,2.2
			c-3.967,0.567-6.883,0.45-8.75-0.35c-10.433-5.934-18.267-5.633-23.5,0.9C1.367-55.583-0.183-45.533,1.85-37
			c-0.067-0.133-0.133-0.283-0.2-0.45c-3.066-9.033-1.8-19.933,3.8-32.7C4.883-73.55,4.867-77.2,5.4-81.1
			c-1.467-4.733-1.767-9.967-0.9-15.7c0.133-0.867,0.3-1.75,0.5-2.65c0.867-4.3,2.383-8.883,4.55-13.75
			c5.233-6.533,13.067-6.833,23.5-0.9c1.867,0.8,4.784,0.917,8.75,0.35c2.333-0.367,6.4-1.1,12.2-2.2
			c10.6-1.667,20.083-0.867,28.45,2.4 M87.7-83.55c0.466,0.2,0.95,0.417,1.45,0.65 M89.5-94.3c-0.5,0.167-1,0.35-1.5,0.55
			c-9.2-4.567-19.883-5.9-32.05-4c-5.8,1.1-9.867,1.833-12.2,2.2c-3.967,0.566-6.883,0.45-8.75-0.35
			c-10.433-5.934-18.267-5.633-23.5,0.9C7.533-86.067,5.7-78.033,6-70.9 M92.6-98.2c-1.733,0.034-3.583,0.45-5.55,1.25
			c-0.7-0.333-1.4-0.667-2.1-1 M2.55-34.4c-0.267-0.833-0.5-1.7-0.7-2.6 M4.35-22c-0.067-0.133-0.133-0.283-0.2-0.45
			c-1.267-3.667-1.8-7.65-1.6-11.95c0.267-6.333,2.1-13.317,5.5-20.95c5.233-6.533,13.067-6.833,23.5-0.9
			c1.867,0.8,4.784,0.917,8.75,0.35c2.333-0.367,6.4-1.1,12.2-2.2c11.067-1.733,20.9-0.783,29.5,2.85 M12.3-75
			c0.633-1.8,1.367-3.633,2.2-5.5c5.233-6.533,13.067-6.833,23.5-0.9c1.867,0.8,4.783,0.917,8.75,0.35c2.333-0.367,6.4-1.1,12.2-2.2
			c10.6-1.667,20.083-0.867,28.45,2.4 M5.4-81.1c0.033-0.167,0.067-0.333,0.1-0.5c0.733-5.133,2.417-10.667,5.05-16.6
			c5.233-6.533,13.067-6.833,23.5-0.9c1.867,0.8,4.784,0.917,8.75,0.35c2.333-0.367,6.4-1.1,12.2-2.2
			c10.567-1.667,20.017-0.883,28.35,2.35 M10-74.1c0.9-3.066,2.083-6.267,3.55-9.6c5.233-6.533,13.067-6.833,23.5-0.9
			c1.867,0.8,4.784,0.917,8.75,0.35c2.333-0.367,6.4-1.1,12.2-2.2c10.433-1.633,19.783-0.883,28.05,2.25 M4.5-96.8
			c-1.433-8.133,0.25-17.6,5.05-28.4c5.233-6.533,13.067-6.833,23.5-0.9c1.867,0.8,4.784,0.917,8.75,0.35
			c2.333-0.367,6.4-1.1,12.2-2.2c12.167-1.9,22.85-0.583,32.05,3.95 M5-99.45c-0.033-6.733,1.8-14.25,5.5-22.55
			c5.233-6.533,13.067-6.833,23.5-0.9c1.867,0.8,4.783,0.917,8.75,0.35c2.333-0.367,6.4-1.1,12.2-2.2
			c11.333-1.767,21.383-0.733,30.15,3.1 M86.75-108.9c-9.133-4.467-19.733-5.75-31.8-3.85c-5.8,1.1-9.867,1.833-12.2,2.2
			c-3.967,0.566-6.883,0.45-8.75-0.35c-10.433-5.934-18.267-5.633-23.5,0.9c-4.8,10.8-6.467,20.267-5,28.4 M89.85-113.05
			c-1.2,0.2-2.467,0.566-3.8,1.1c-0.633-0.333-1.283-0.65-1.95-0.95"/>
		<polygon fill="none" points="51.485,-4.094 56.478,-34.082 38.673,-37.046 33.681,-7.058 		"/>
		
			<text transform="matrix(-0.1103 0.6627 0.9864 0.1642 48.1372 -31.2949)" fill="#6D7E7E" font-family="'Consolas'" font-size="12">сахар</text>
		<polygon fill="none" points="129.745,-1.646 135.128,-33.982 117.324,-36.946 111.94,-4.611 		"/>
		<text transform="matrix(-0.119 0.7146 0.9864 0.1642 126.7349 -30.877)" fill="#6D7E7E" font-family="'Consolas'" font-size="12">сахар</text>
	</g>
</symbol>
<symbol  id="Duplicate_Items_Folder_x2F_meshok1_copy" viewBox="0.412 -57.486 98.802 60.4">
	<g id="Layer_2_2_">
		<path fill-rule="evenodd" clip-rule="evenodd" fill="#DFE4E7" d="M91.35-18.35c5.933-16.667,7.75-26.2,5.45-28.6
			c-0.8-1.966-2.466-3.417-5-4.35c-2.566-0.9-5.517-0.667-8.85,0.7c-9.2-4.566-19.883-5.9-32.05-4c-5.8,1.1-9.867,1.833-12.2,2.2
			c-3.967,0.566-6.883,0.45-8.75-0.35c-10.434-5.933-18.267-5.633-23.5,0.9c-5.7,12.833-7,23.8-3.9,32.9
			c3.1,9.1,9.6,12.05,19.5,8.85c14.367,3.667,34,3.667,58.9,0C85.617-11.133,89.083-13.883,91.35-18.35z"/>
		
			<path fill-rule="evenodd" clip-rule="evenodd" fill="none" stroke="#DFE4E7" stroke-linecap="round" stroke-linejoin="round" stroke-miterlimit="3" d="
			M91.35-18.35c-2.267,4.467-5.733,7.217-10.4,8.25c-24.9,3.667-44.534,3.667-58.9,0c-9.9,3.2-16.4,0.25-19.5-8.85
			c-3.1-9.1-1.8-20.066,3.9-32.9c5.233-6.533,13.066-6.833,23.5-0.9c1.867,0.8,4.783,0.917,8.75,0.35c2.333-0.367,6.4-1.1,12.2-2.2
			c12.167-1.9,22.85-0.566,32.05,4c3.333-1.367,6.283-1.6,8.85-0.7c2.534,0.933,4.2,2.383,5,4.35
			C99.1-44.55,97.283-35.017,91.35-18.35z"/>
	</g>
	<g id="Layer_1_2_">
		<path fill-rule="evenodd" clip-rule="evenodd" fill="#FFFFFF" d="M92.3-12.5c5.934-13.733,7.75-21.583,5.45-23.55
			c-0.8-1.633-2.467-2.833-5-3.6c-2.567-0.733-5.517-0.533-8.85,0.6c-9.2-3.767-19.883-4.867-32.05-3.3c-5.8,0.9-9.867,1.5-12.2,1.8
			c-3.967,0.466-6.883,0.367-8.75-0.3c-10.433-4.867-18.267-4.617-23.5,0.75C1.7-29.533,0.4-20.5,3.5-13S13.1-3.067,23-5.7
			c14.367,3,34,3,58.9,0C86.567-6.567,90.033-8.833,92.3-12.5z"/>
		
			<path fill-rule="evenodd" clip-rule="evenodd" fill="none" stroke="#FFFFFF" stroke-linecap="round" stroke-linejoin="round" stroke-miterlimit="3" d="
			M92.3-12.5c-2.267,3.667-5.733,5.933-10.4,6.8c-24.9,3-44.533,3-58.9,0C13.1-3.067,6.6-5.5,3.5-13S1.7-29.533,7.4-40.1
			c5.233-5.367,13.067-5.617,23.5-0.75c1.867,0.667,4.783,0.767,8.75,0.3c2.333-0.3,6.4-0.9,12.2-1.8
			c12.167-1.566,22.85-0.467,32.05,3.3c3.333-1.133,6.283-1.333,8.85-0.6c2.533,0.767,4.2,1.967,5,3.6
			C100.05-34.083,98.233-26.233,92.3-12.5z"/>
	</g>
	<g id="сах_1_">
		<polygon fill="none" points="51.569,2.914 58.028,-35.882 40.224,-38.846 33.765,-0.05 		"/>
		
			<text transform="matrix(-0.1427 0.8574 0.9864 0.1642 49.4888 -31.9014)" fill="#4E5C5C" font-family="'Consolas'" font-size="12">сахар</text>
	</g>
</symbol>
<symbol  id="Duplicate_Items_Folder_x2F_palett_copy" viewBox="-0.5 -29 157 29.5">
	<g id="skleik_1_">
		<path fill-rule="evenodd" clip-rule="evenodd" fill="#B67634" d="M156-8.75v-11h-18.5v11H156z M88.5-19.75H70v11h18.5V-19.75z
			 M18.5-8.75v-11H0v11H18.5z"/>
		
			<path fill-rule="evenodd" clip-rule="evenodd" fill="none" stroke="#B67634" stroke-linecap="round" stroke-linejoin="round" stroke-miterlimit="3" d="
			M156-8.75v-11h-18.5v11H156z M88.5-19.75H70v11h18.5V-19.75z M18.5-8.75v-11H0v11H18.5z"/>
	</g>
	<g id="bej_1_">
		<path fill-rule="evenodd" clip-rule="evenodd" fill="#EDBB7C" d="M156-8.75H0V0h156V-8.75z M156-28.5H0v8.75h156V-28.5z"/>
		
			<path fill-rule="evenodd" clip-rule="evenodd" fill="none" stroke="#EDBB7C" stroke-linecap="round" stroke-linejoin="round" stroke-miterlimit="3" d="
			M156-8.75H0V0h156V-8.75z M156-28.5H0v8.75h156V-28.5z"/>
	</g>
</symbol>
<symbol  id="Duplicate_Items_Folder_x2F_product_clean_copy" viewBox="-47.527 -100.7 183.791 183.804">
	<g id="palett_1_">
		
			<use xlink:href="#Duplicate_Items_Folder_x2F_palett_copy"  width="157" height="29.5" x="-0.5" y="-29" transform="matrix(1 0 0 1 -33 -71.7002)" overflow="visible"/>
	</g>
	<g id="meshki_copy_1_">
		
			<use xlink:href="#Duplicate_Items_Folder_x2F_meshki_fon_copy"  width="183.341" height="129.189" x="-0.478" y="-130.836" transform="matrix(1 0 0 1 -47.0498 84.75)" overflow="visible"/>
	</g>
	<g id="meshki_1_">
		
			<use xlink:href="#Duplicate_Items_Folder_x2F_meshok1_copy"  width="98.802" height="60.4" x="0.412" y="-57.486" transform="matrix(1 0 0 1 -39.9502 -18.1499)" overflow="visible"/>
		
			<use xlink:href="#Duplicate_Items_Folder_x2F_meshok1_copy"  width="98.802" height="60.4" x="0.412" y="-57.486" transform="matrix(1 0 0 1 37.0498 -18.1499)" overflow="visible"/>
		
			<use xlink:href="#saxar2"  width="64.802" height="86.806" x="-0.488" y="-75.956" transform="matrix(1.3948 -0.1404 -0.2396 1.052 30.2007 26.3501)" overflow="visible"/>
		
			<use xlink:href="#saxar2"  width="64.802" height="86.806" x="-0.488" y="-75.956" transform="matrix(1.3982 -0.1822 -0.1349 0.9284 -43.4497 18.3501)" overflow="visible"/>
		
			<use xlink:href="#Duplicate_Items_Folder_x2F_meshok1_copy"  width="98.802" height="60.4" x="0.412" y="-57.486" transform="matrix(1 0 0 1 -43.4502 16.3501)" overflow="visible"/>
		
			<use xlink:href="#Duplicate_Items_Folder_x2F_meshok1_copy"  width="98.802" height="60.4" x="0.412" y="-57.486" transform="matrix(1 0 0 1 33.5498 16.3501)" overflow="visible"/>
		
			<use xlink:href="#saxar2"  width="64.802" height="86.806" x="-0.488" y="-75.956" transform="matrix(1.4016 -0.0692 -0.1326 0.7786 34.9507 38.7002)" overflow="visible"/>
		
			<use xlink:href="#saxar2"  width="64.802" height="86.806" x="-0.488" y="-75.956" transform="matrix(1.4014 -0.105 -0.0569 0.7926 -41.8506 37.75)" overflow="visible"/>
		
			<use xlink:href="#Duplicate_Items_Folder_x2F_meshok1_copy"  width="98.802" height="60.4" x="0.412" y="-57.486" transform="matrix(1 0 0 1 -41.3501 50.0498)" overflow="visible"/>
		
			<use xlink:href="#Duplicate_Items_Folder_x2F_meshok1_copy"  width="98.802" height="60.4" x="0.412" y="-57.486" transform="matrix(1 0 0 1 35.6499 50.0498)" overflow="visible"/>
	</g>
</symbol>
<symbol  id="plashka" viewBox="3.5 -184.9 217.05 182.35">
	<g id="Layer_4_1_">
		<polygon fill-rule="evenodd" clip-rule="evenodd" fill="#FFFFFF" points="219.55,-183.9 4.5,-183.9 4.5,-3.55 219.55,-3.55 		"/>
		<polygon fill-rule="evenodd" clip-rule="evenodd" fill="none" stroke="#FFFFFF" stroke-width="2" stroke-miterlimit="10" points="
			219.55,-183.9 4.5,-183.9 4.5,-3.55 219.55,-3.55 		"/>
	</g>
</symbol>
<symbol  id="saxar2" viewBox="-0.488 -75.956 64.802 86.806">
	<g id="Layer_1_3_">
		<path fill-rule="evenodd" clip-rule="evenodd" fill="#FFFFFF" d="M60.7-49.75c-0.158-0.743-0.325-1.493-0.5-2.25
			c-1.233-3.633-4.4-6.333-9.5-8.1c-18.9-4.633-29.684-6.05-32.35-4.25c-0.567,0.167-1.067,0.367-1.5,0.6
			c-1.467,0.733-2.583,1.833-3.35,3.3c-0.933,2-0.6,4.3,1,6.9c-5.033,7.167-6.383,15.483-4.05,24.95c1.333,4.533,2.216,7.7,2.65,9.5
			c0.7,3.1,0.617,5.383-0.25,6.85c-2.49,3.103-3.957,5.911-4.4,8.425c-0.72,4.054,1.213,7.346,5.8,9.875
			c9.533,2.9,18.15,4.333,25.85,4.3c4.033-0.033,7.816-0.467,11.35-1.3C61.65,6.65,64.867,1.6,61.1-6.1
			C64.848-16.863,64.714-31.413,60.7-49.75z"/>
		<path fill-rule="evenodd" clip-rule="evenodd" fill="#DFE4E7" d="M60.7-49.75c-0.655-3.987-1.555-8.187-2.7-12.6
			c-1.4-3.633-4.933-6.333-10.6-8.1c-21.133-4.633-33.183-6.05-36.15-4.25c-0.633,0.167-1.2,0.367-1.7,0.6
			c-1.633,0.733-2.867,1.833-3.7,3.3c-1.067,2-0.7,4.3,1.1,6.9C1.317-56.733-0.2-48.417,2.4-38.95c1.533,4.534,2.533,7.7,3,9.5
			c0.767,3.1,0.667,5.383-0.3,6.85C-2.167-14.5-1.65-8.4,6.65-4.3c0.603,0.164,1.203,0.322,1.8,0.475
			c0.443-2.514,1.91-5.322,4.4-8.425c0.867-1.467,0.95-3.75,0.25-6.85c-0.434-1.8-1.317-4.967-2.65-9.5
			c-2.333-9.467-0.983-17.783,4.05-24.95c-1.6-2.6-1.933-4.9-1-6.9c0.767-1.466,1.883-2.566,3.35-3.3
			c0.433-0.233,0.933-0.433,1.5-0.6c2.667-1.8,13.45-0.383,32.35,4.25c5.1,1.767,8.267,4.467,9.5,8.1
			C60.375-51.243,60.542-50.493,60.7-49.75z"/>
		
			<path fill-rule="evenodd" clip-rule="evenodd" fill="none" stroke="#FFFFFF" stroke-linecap="round" stroke-linejoin="round" stroke-miterlimit="3" d="
			M60.7-49.75c4.014,18.337,4.147,32.887,0.4,43.65c3.767,7.7,0.55,12.75-9.65,15.15c-3.534,0.833-7.317,1.267-11.35,1.3
			c-7.7,0.033-16.317-1.4-25.85-4.3c-4.586-2.529-6.52-5.821-5.8-9.875c0.443-2.514,1.91-5.322,4.4-8.425
			c0.867-1.467,0.95-3.75,0.25-6.85c-0.434-1.8-1.317-4.967-2.65-9.5c-2.333-9.467-0.983-17.783,4.05-24.95
			c-1.6-2.6-1.933-4.9-1-6.9c0.767-1.466,1.883-2.566,3.35-3.3c0.433-0.233,0.933-0.433,1.5-0.6c2.667-1.8,13.45-0.383,32.35,4.25
			c5.1,1.767,8.267,4.467,9.5,8.1C60.375-51.243,60.542-50.493,60.7-49.75z"/>
		
			<path fill-rule="evenodd" clip-rule="evenodd" fill="none" stroke="#DFE4E7" stroke-linecap="round" stroke-linejoin="round" stroke-miterlimit="3" d="
			M8.45-3.825C7.853-3.978,7.252-4.136,6.65-4.3c-8.3-4.1-8.816-10.2-1.55-18.3c0.967-1.467,1.066-3.75,0.3-6.85
			c-0.467-1.8-1.467-4.966-3-9.5c-2.6-9.466-1.083-17.783,4.55-24.95c-1.8-2.6-2.167-4.9-1.1-6.9c0.833-1.467,2.066-2.567,3.7-3.3
			c0.5-0.233,1.067-0.433,1.7-0.6c2.967-1.8,15.017-0.383,36.15,4.25c5.667,1.767,9.2,4.467,10.6,8.1
			c1.145,4.413,2.045,8.613,2.7,12.6"/>
	</g>
</symbol>
<g id="plashki">
	
		<use xlink:href="#plashka"  width="217.05" height="182.35" x="3.5" y="-184.9" transform="matrix(0.8424 0 0 -1 -2.7002 -2.8999)" overflow="visible"/>
</g>
<g id="papka">
	
		<use xlink:href="#Duplicate_Items_Folder_x2F_product_clean_copy"  width="183.791" height="183.804" x="-47.527" y="-100.7" transform="matrix(0.7532 0 0 -0.7532 57.0498 91.2002)" overflow="visible"/>
</g>
</svg>
