<?xml version="1.0" encoding="utf-8"?>
<!-- Generator: Adobe Illustrator 15.1.0, SVG Export Plug-In . SVG Version: 6.00 Build 0)  -->
<!DOCTYPE svg PUBLIC "-//W3C//DTD SVG 1.1//EN" "http://www.w3.org/Graphics/SVG/1.1/DTD/svg11.dtd">
<svg version="1.1" xmlns="http://www.w3.org/2000/svg" xmlns:xlink="http://www.w3.org/1999/xlink" x="0px" y="0px" width="183px"
	 height="183px" viewBox="0 0 183 183" enable-background="new 0 0 183 183" xml:space="preserve">
<symbol  id="Duplicate_Items_Folder_x2F_lamp_bad_copy" viewBox="-0.875 -198.2 39.425 147.9">
	<g id="Layer_3_1_">
		
			<path fill-rule="evenodd" clip-rule="evenodd" fill="none" stroke="#37424A" stroke-linecap="round" stroke-linejoin="round" stroke-miterlimit="3" d="
			M19.6-184.2l-1.75-6.15l-2.3-2.1 M29.9-185.1l-2.55-3.95l0.7-3.95 M31.65-185.55l1.6-4.05l-0.65-4.2l2.75-3.9"/>
	</g>
	<g id="prov_1_">
		
			<path fill-rule="evenodd" clip-rule="evenodd" fill="none" stroke="#6E605D" stroke-width="3" stroke-linecap="round" stroke-linejoin="round" stroke-miterlimit="3" d="
			M0.625-51.8c1.016-4.863,2.774-8.397,5.275-10.6c5.267-5.133,11.917-11.184,19.95-18.15c4.167-3.934,4.783-9.417,1.85-16.45
			c-4.067-5.267-5.383-12.7-3.95-22.3l3-14.6v-29"/>
	</g>
	<g id="patron_1_">
		<polygon fill-rule="evenodd" clip-rule="evenodd" fill="#37424A" points="32.65,-178.1 20.9,-178.1 20.9,-161.85 32.65,-161.85 		
			"/>
		<polygon fill-rule="evenodd" clip-rule="evenodd" fill="#576875" points="20.9,-178.1 32.65,-178.1 34.55,-178.1 38.05,-185.55 
			15.45,-185.55 18.95,-178.1 		"/>
		
			<polyline fill-rule="evenodd" clip-rule="evenodd" fill="none" stroke="#37424A" stroke-linecap="round" stroke-linejoin="round" stroke-miterlimit="3" points="
			20.9,-178.1 20.9,-161.85 32.65,-161.85 32.65,-178.1 		"/>
		
			<polygon fill-rule="evenodd" clip-rule="evenodd" fill="none" stroke="#576875" stroke-linecap="round" stroke-linejoin="round" stroke-miterlimit="3" points="
			32.65,-178.1 34.55,-178.1 38.05,-185.55 15.45,-185.55 18.95,-178.1 20.9,-178.1 		"/>
	</g>
</symbol>
<symbol  id="plashka" viewBox="3.5 -184.9 217.05 182.35">
	<g id="Layer_4_1_">
		<polygon fill-rule="evenodd" clip-rule="evenodd" fill="#FFFFFF" points="219.55,-183.9 4.5,-183.9 4.5,-3.55 219.55,-3.55 		"/>
		<polygon fill-rule="evenodd" clip-rule="evenodd" fill="none" stroke="#FFFFFF" stroke-width="2" stroke-miterlimit="10" points="
			219.55,-183.9 4.5,-183.9 4.5,-3.55 219.55,-3.55 		"/>
	</g>
</symbol>
<g id="plashki">
	
		<use xlink:href="#plashka"  width="217.05" height="182.35" x="3.5" y="-184.9" transform="matrix(0.8424 0 0 -1 -2.7002 -2.8999)" overflow="visible"/>
</g>
<g id="papka">
	
		<use xlink:href="#Duplicate_Items_Folder_x2F_lamp_bad_copy"  width="39.425" height="147.9" x="-0.875" y="-198.2" transform="matrix(1.05 0 0 -1.05 65.8999 -53.9502)" overflow="visible"/>
</g>
</svg>
