<?xml version="1.0" encoding="utf-8"?>
<!-- Generator: Adobe Illustrator 15.1.0, SVG Export Plug-In . SVG Version: 6.00 Build 0)  -->
<!DOCTYPE svg PUBLIC "-//W3C//DTD SVG 1.1//EN" "http://www.w3.org/Graphics/SVG/1.1/DTD/svg11.dtd">
<svg version="1.1" id="Layer_1" xmlns="http://www.w3.org/2000/svg" xmlns:xlink="http://www.w3.org/1999/xlink" x="0px" y="0px"
	 width="1028.081px" height="260px" viewBox="-289.491 0.5 1028.081 260" enable-background="new -289.491 0.5 1028.081 260"
	 xml:space="preserve">
<g>
	<path fill="none" stroke="#333333" stroke-width="2.8" stroke-linecap="round" stroke-linejoin="round" stroke-miterlimit="3" d="
		M-285.366,30.411v40.952c0,8.657,2.711,12.989,8.13,12.989H-80.09c5.42,0,8.13-4.332,8.13-12.989V30.411
		c0-8.659-2.71-12.987-8.13-12.987h-197.146C-282.656,17.424-285.366,21.752-285.366,30.411z"/>
	<g>
		<g>
			<path fill="#010101" d="M-271.207,26.144v9.231l5.055-9.231h1.579v12.212h-1.663v-9.222l-5.045,9.222h-1.588V26.144H-271.207z"/>
			<path fill="#010101" d="M-254.681,38.009c-0.423,0.162-0.857,0.281-1.303,0.359c-0.445,0.078-0.905,0.117-1.378,0.117
				c-1.482,0-2.624-0.402-3.424-1.205c-0.8-0.804-1.201-1.978-1.201-3.522c0-0.741,0.115-1.414,0.346-2.019s0.555-1.121,0.973-1.551
				s0.916-0.762,1.495-0.995c0.578-0.233,1.218-0.351,1.914-0.351c0.486,0,0.94,0.034,1.364,0.103
				c0.423,0.069,0.828,0.182,1.214,0.337v1.551c-0.404-0.212-0.816-0.366-1.237-0.462c-0.42-0.097-0.855-0.146-1.304-0.146
				c-0.417,0-0.812,0.08-1.182,0.238c-0.371,0.159-0.696,0.388-0.976,0.687c-0.28,0.3-0.501,0.664-0.664,1.094
				c-0.163,0.43-0.243,0.915-0.243,1.457c0,1.134,0.274,1.982,0.827,2.546c0.551,0.564,1.315,0.846,2.294,0.846
				c0.441,0,0.87-0.05,1.285-0.149c0.413-0.1,0.813-0.249,1.199-0.448V38.009z"/>
			<path fill="#010101" d="M-242.991,38.355h-2.158l-2.532-3.579l-2.504,3.579h-2.103l3.635-4.709l-3.466-4.672h2.083l2.466,3.606
				l2.42-3.606h2.009l-3.521,4.709L-242.991,38.355z"/>
			<path fill="#010101" d="M-232.761,33.589c0,0.729-0.103,1.397-0.308,2.005c-0.206,0.606-0.501,1.127-0.888,1.56
				c-0.387,0.434-0.856,0.77-1.411,1.01c-0.555,0.239-1.185,0.359-1.888,0.359c-0.673,0-1.275-0.104-1.809-0.313
				c-0.533-0.208-0.983-0.515-1.354-0.92c-0.371-0.404-0.654-0.906-0.851-1.504c-0.195-0.599-0.294-1.286-0.294-2.065
				c0-0.729,0.104-1.394,0.31-1.994c0.206-0.602,0.501-1.118,0.888-1.551c0.386-0.434,0.855-0.77,1.411-1.01
				c0.554-0.239,1.183-0.359,1.887-0.359c0.673,0,1.275,0.104,1.808,0.313s0.984,0.515,1.354,0.916c0.37,0.401,0.654,0.901,0.85,1.5
				C-232.858,32.132-232.761,32.818-232.761,33.589z M-234.423,33.666c0-0.579-0.064-1.085-0.191-1.519
				c-0.128-0.433-0.311-0.794-0.546-1.084c-0.237-0.289-0.525-0.507-0.864-0.653c-0.34-0.146-0.718-0.22-1.135-0.22
				c-0.486,0-0.902,0.095-1.248,0.285c-0.346,0.189-0.629,0.443-0.85,0.761c-0.222,0.318-0.384,0.688-0.486,1.107
				c-0.104,0.421-0.154,0.861-0.154,1.322c0,0.579,0.064,1.087,0.192,1.522c0.127,0.437,0.31,0.799,0.546,1.089
				s0.522,0.508,0.858,0.654c0.337,0.146,0.717,0.22,1.141,0.22c0.486,0,0.9-0.096,1.247-0.285c0.346-0.19,0.629-0.444,0.85-0.762
				c0.221-0.317,0.383-0.687,0.486-1.107C-234.476,34.577-234.423,34.131-234.423,33.666z"/>
			<path fill="#010101" d="M-221.698,36.955l-0.104,3.793h-1.484v-2.392h-6.839v2.392h-1.468l-0.093-3.793h0.131
				c0.237,0,0.461-0.038,0.674-0.112c0.211-0.075,0.407-0.217,0.588-0.425c0.181-0.209,0.347-0.499,0.5-0.869
				c0.151-0.371,0.29-0.851,0.411-1.439c0.121-0.588,0.227-1.303,0.316-2.144c0.09-0.841,0.167-1.838,0.229-2.99h5.793v7.979
				H-221.698z M-224.669,30.376h-2.617c-0.063,1.071-0.144,1.984-0.243,2.738c-0.1,0.753-0.216,1.386-0.351,1.896
				c-0.135,0.511-0.288,0.919-0.463,1.224c-0.174,0.306-0.367,0.545-0.578,0.72h4.251L-224.669,30.376L-224.669,30.376z"/>
			<path fill="#010101" d="M-219.297,35.646c0.205-0.436,0.431-0.766,0.677-0.99c0.246-0.224,0.556-0.374,0.93-0.448
				c-0.392-0.075-0.716-0.196-0.972-0.364s-0.459-0.363-0.612-0.584c-0.153-0.222-0.259-0.456-0.318-0.706
				c-0.059-0.249-0.089-0.495-0.089-0.737c0-0.411,0.069-0.798,0.206-1.159c0.138-0.361,0.358-0.676,0.664-0.943
				c0.307-0.267,0.706-0.479,1.201-0.636c0.495-0.155,1.204-0.233,2.125-0.233c0.517,0,1.028,0.018,1.532,0.052s1,0.076,1.484,0.126
				v9.334h-1.625v-3.635h-1.41c-0.219,0-0.441,0.021-0.668,0.061c-0.229,0.041-0.436,0.115-0.622,0.225
				c-0.188,0.11-0.356,0.251-0.51,0.425c-0.151,0.175-0.288,0.396-0.405,0.663l-1.028,2.262h-1.84L-219.297,35.646z
				 M-218.019,31.796c0,0.535,0.184,0.938,0.547,1.205c0.364,0.267,0.905,0.401,1.621,0.401h1.756v-3.14
				c-0.268-0.024-0.525-0.043-0.774-0.056c-0.25-0.013-0.511-0.019-0.785-0.019c-0.536,0-0.943,0.036-1.224,0.107
				c-0.281,0.071-0.501,0.175-0.664,0.309c-0.163,0.134-0.282,0.297-0.359,0.49C-217.979,31.29-218.019,31.522-218.019,31.796z"/>
		</g>
		<g>
			<path fill="#010101" d="M-197.081,28.975v6.605l4.092-6.605h1.551v9.381h-1.625V31.75l-4.092,6.605h-1.551v-9.381H-197.081z"/>
			<path fill="#010101" d="M-188.57,36.673c0.274,0.074,0.567,0.14,0.878,0.196c0.312,0.056,0.62,0.105,0.925,0.149
				c0.306,0.043,0.6,0.076,0.883,0.098c0.283,0.022,0.537,0.033,0.763,0.033c0.528,0,0.97-0.034,1.321-0.104
				c0.353-0.068,0.633-0.166,0.842-0.294s0.355-0.283,0.443-0.467c0.088-0.184,0.131-0.392,0.131-0.622
				c0-0.224-0.038-0.428-0.116-0.611c-0.078-0.184-0.219-0.345-0.42-0.481c-0.203-0.137-0.479-0.243-0.827-0.317
				c-0.35-0.075-0.794-0.112-1.336-0.112h-2.298v-1.262h2.288c0.474,0,0.861-0.031,1.163-0.093c0.303-0.063,0.541-0.153,0.716-0.271
				c0.174-0.118,0.292-0.262,0.354-0.43s0.093-0.361,0.093-0.579c0-0.212-0.039-0.4-0.117-0.565
				c-0.077-0.165-0.206-0.305-0.388-0.42c-0.181-0.115-0.42-0.204-0.719-0.267s-0.67-0.094-1.112-0.094
				c-0.485,0-1.019,0.034-1.598,0.103c-0.58,0.069-1.159,0.169-1.738,0.3v-1.374c0.255-0.056,0.531-0.108,0.827-0.158
				c0.296-0.05,0.597-0.091,0.902-0.122c0.305-0.031,0.607-0.056,0.911-0.074c0.303-0.018,0.59-0.028,0.863-0.028
				c0.735,0,1.35,0.061,1.841,0.183c0.492,0.121,0.889,0.291,1.188,0.509s0.511,0.477,0.635,0.775s0.188,0.626,0.188,0.981
				c0,0.262-0.038,0.509-0.112,0.742s-0.19,0.444-0.346,0.631c-0.156,0.187-0.354,0.346-0.594,0.477
				c-0.238,0.131-0.527,0.225-0.863,0.28c0.336,0.05,0.647,0.133,0.935,0.247c0.286,0.116,0.534,0.269,0.743,0.458
				c0.208,0.19,0.374,0.416,0.495,0.678c0.121,0.262,0.182,0.561,0.182,0.896c0,0.411-0.08,0.793-0.237,1.145
				c-0.159,0.353-0.42,0.654-0.78,0.906c-0.361,0.253-0.837,0.45-1.43,0.594c-0.592,0.144-1.316,0.215-2.177,0.215
				c-0.229,0-0.483-0.008-0.761-0.023c-0.277-0.016-0.564-0.037-0.859-0.065c-0.296-0.028-0.587-0.063-0.874-0.103
				c-0.285-0.041-0.554-0.089-0.803-0.145v-1.515H-188.57z"/>
		</g>
		<g>
			<path fill="#010101" d="M-158.697,38.355h-1.607l-0.242-5.858l-0.104-2.083l-0.551,1.457l-1.756,4.261h-1.188l-1.69-4.093
				l-0.588-1.625l-0.075,2.204l-0.252,5.737h-1.552l0.599-9.381h2.158l1.606,4.046l0.439,1.205l0.438-1.205l1.646-4.046h2.13
				L-158.697,38.355z"/>
			<path fill="#010101" d="M-148.579,33.589c0,0.729-0.104,1.397-0.309,2.005c-0.206,0.606-0.501,1.127-0.888,1.56
				c-0.386,0.434-0.855,0.77-1.411,1.01c-0.555,0.239-1.184,0.359-1.888,0.359c-0.672,0-1.275-0.104-1.808-0.313
				c-0.533-0.208-0.984-0.515-1.355-0.92c-0.371-0.404-0.654-0.906-0.85-1.504c-0.196-0.599-0.294-1.286-0.294-2.065
				c0-0.729,0.103-1.394,0.309-1.994c0.206-0.602,0.501-1.118,0.888-1.551c0.387-0.434,0.856-0.77,1.411-1.01
				c0.554-0.239,1.184-0.359,1.887-0.359c0.674,0,1.275,0.104,1.809,0.313c0.532,0.209,0.983,0.515,1.354,0.916
				c0.37,0.401,0.654,0.901,0.851,1.5C-148.678,32.132-148.579,32.818-148.579,33.589z M-150.242,33.666
				c0-0.579-0.064-1.085-0.191-1.519c-0.128-0.433-0.31-0.794-0.546-1.084c-0.237-0.289-0.524-0.507-0.864-0.653
				s-0.718-0.22-1.135-0.22c-0.485,0-0.901,0.095-1.248,0.285c-0.346,0.189-0.629,0.443-0.85,0.761s-0.383,0.688-0.486,1.107
				c-0.103,0.421-0.154,0.861-0.154,1.322c0,0.579,0.064,1.087,0.192,1.522c0.127,0.437,0.311,0.799,0.546,1.089
				c0.236,0.29,0.523,0.508,0.859,0.654s0.716,0.22,1.14,0.22c0.486,0,0.901-0.096,1.247-0.285c0.346-0.19,0.629-0.444,0.851-0.762
				c0.221-0.317,0.383-0.687,0.485-1.107C-150.293,34.577-150.242,34.131-150.242,33.666z"/>
			<path fill="#010101" d="M-138.302,33.169c0,0.23-0.003,0.424-0.009,0.579c-0.006,0.156-0.016,0.303-0.027,0.439h-6.588
				c0,0.959,0.269,1.695,0.805,2.209c0.536,0.515,1.308,0.771,2.316,0.771c0.274,0,0.549-0.011,0.822-0.033
				c0.274-0.021,0.539-0.051,0.794-0.089c0.255-0.037,0.5-0.079,0.734-0.126c0.232-0.047,0.45-0.098,0.648-0.154v1.336
				c-0.441,0.125-0.941,0.227-1.5,0.304c-0.558,0.078-1.135,0.117-1.732,0.117c-0.805,0-1.495-0.109-2.074-0.327
				c-0.579-0.218-1.054-0.534-1.425-0.948s-0.646-0.922-0.822-1.522c-0.177-0.602-0.266-1.282-0.266-2.042
				c0-0.66,0.095-1.284,0.284-1.873c0.19-0.589,0.468-1.105,0.832-1.551c0.365-0.445,0.813-0.799,1.342-1.061
				c0.528-0.262,1.13-0.393,1.803-0.393c0.654,0,1.233,0.103,1.738,0.309c0.504,0.205,0.93,0.496,1.274,0.873
				c0.346,0.377,0.607,0.835,0.785,1.374C-138.391,31.9-138.302,32.502-138.302,33.169z M-139.993,32.937
				c0.019-0.418-0.022-0.799-0.121-1.145c-0.1-0.346-0.254-0.644-0.463-0.893c-0.208-0.249-0.469-0.443-0.78-0.584
				c-0.312-0.14-0.673-0.21-1.084-0.21c-0.354,0-0.679,0.068-0.972,0.205c-0.293,0.138-0.545,0.33-0.757,0.579
				c-0.213,0.25-0.384,0.549-0.515,0.897c-0.131,0.348-0.212,0.731-0.243,1.149h4.935V32.937z"/>
			<path fill="#010101" d="M-133.294,30.376v7.979h-1.645v-9.381h6.792v1.401L-133.294,30.376L-133.294,30.376z"/>
			<path fill="#010101" d="M-117.019,33.589c0,0.729-0.103,1.397-0.308,2.005c-0.206,0.606-0.501,1.127-0.888,1.56
				c-0.387,0.434-0.856,0.77-1.411,1.01c-0.556,0.239-1.185,0.359-1.889,0.359c-0.672,0-1.274-0.104-1.808-0.313
				c-0.533-0.208-0.984-0.515-1.355-0.92c-0.37-0.404-0.653-0.906-0.85-1.504c-0.196-0.599-0.294-1.286-0.294-2.065
				c0-0.729,0.103-1.394,0.309-1.994c0.206-0.602,0.501-1.118,0.889-1.551c0.386-0.434,0.855-0.77,1.411-1.01
				c0.554-0.239,1.183-0.359,1.887-0.359c0.673,0,1.274,0.104,1.808,0.313c0.532,0.209,0.984,0.515,1.354,0.916
				c0.37,0.401,0.653,0.901,0.85,1.5C-117.116,32.132-117.019,32.818-117.019,33.589z M-118.682,33.666
				c0-0.579-0.063-1.085-0.19-1.519c-0.128-0.433-0.311-0.794-0.546-1.084c-0.237-0.289-0.525-0.507-0.864-0.653
				c-0.34-0.146-0.718-0.22-1.135-0.22c-0.486,0-0.902,0.095-1.248,0.285c-0.347,0.189-0.629,0.443-0.851,0.761
				c-0.221,0.318-0.383,0.688-0.485,1.107c-0.104,0.421-0.154,0.861-0.154,1.322c0,0.579,0.063,1.087,0.192,1.522
				c0.127,0.437,0.31,0.799,0.546,1.089c0.235,0.29,0.522,0.508,0.858,0.654s0.716,0.22,1.141,0.22c0.485,0,0.9-0.096,1.247-0.285
				c0.346-0.19,0.629-0.444,0.85-0.762c0.221-0.317,0.383-0.687,0.486-1.107C-118.732,34.577-118.682,34.131-118.682,33.666z"/>
		</g>
		<g>
			<path fill="#010101" d="M-263.505,56.911h-1.606l-0.243-5.858l-0.103-2.083l-0.552,1.457l-1.756,4.261h-1.187l-1.691-4.093
				l-0.588-1.625l-0.075,2.204l-0.252,5.737h-1.551l0.598-9.381h2.158l1.607,4.046l0.438,1.205l0.439-1.205l1.645-4.046h2.13
				L-263.505,56.911z"/>
			<path fill="#010101" d="M-254.012,56.911h-1.625v-4.148h-4.289v4.148h-1.625V47.53h1.625v3.813h4.289V47.53h1.625V56.911z"/>
			<path fill="#010101" d="M-242.865,52.145c0,0.729-0.104,1.397-0.309,2.005c-0.206,0.606-0.501,1.127-0.888,1.56
				c-0.386,0.434-0.855,0.77-1.411,1.01c-0.555,0.239-1.184,0.359-1.888,0.359c-0.672,0-1.275-0.104-1.808-0.313
				c-0.533-0.208-0.984-0.515-1.355-0.92c-0.371-0.404-0.654-0.906-0.85-1.504c-0.196-0.599-0.294-1.286-0.294-2.065
				c0-0.729,0.103-1.394,0.309-1.994c0.206-0.602,0.501-1.118,0.888-1.551c0.387-0.434,0.856-0.77,1.411-1.01
				c0.554-0.239,1.184-0.359,1.887-0.359c0.674,0,1.275,0.104,1.809,0.313c0.532,0.209,0.983,0.515,1.354,0.916
				c0.37,0.401,0.654,0.901,0.851,1.5C-242.964,50.688-242.865,51.374-242.865,52.145z M-244.528,52.221
				c0-0.579-0.064-1.085-0.191-1.519c-0.128-0.433-0.31-0.794-0.546-1.084c-0.236-0.289-0.524-0.507-0.864-0.653
				s-0.718-0.22-1.135-0.22c-0.485,0-0.901,0.095-1.248,0.285c-0.346,0.189-0.629,0.443-0.85,0.761s-0.383,0.688-0.486,1.107
				c-0.103,0.421-0.153,0.861-0.153,1.322c0,0.579,0.063,1.087,0.191,1.522c0.127,0.437,0.311,0.799,0.546,1.089
				c0.236,0.29,0.523,0.508,0.859,0.654s0.716,0.22,1.14,0.22c0.486,0,0.901-0.096,1.247-0.285c0.346-0.19,0.629-0.444,0.851-0.762
				c0.221-0.317,0.383-0.687,0.485-1.107C-244.579,53.132-244.528,52.687-244.528,52.221z"/>
			<path fill="#010101" d="M-238.101,48.932v7.979h-1.644V47.53h6.792v1.401L-238.101,48.932L-238.101,48.932z"/>
			<path fill="#010101" d="M-221.825,52.145c0,0.729-0.104,1.397-0.309,2.005c-0.206,0.606-0.501,1.127-0.888,1.56
				c-0.386,0.434-0.855,0.77-1.411,1.01c-0.555,0.239-1.184,0.359-1.888,0.359c-0.672,0-1.275-0.104-1.809-0.313
				c-0.532-0.208-0.983-0.515-1.354-0.92c-0.371-0.404-0.654-0.906-0.85-1.504c-0.196-0.599-0.294-1.286-0.294-2.065
				c0-0.729,0.103-1.394,0.309-1.994c0.206-0.602,0.501-1.118,0.888-1.551c0.387-0.434,0.856-0.77,1.411-1.01
				c0.554-0.239,1.183-0.359,1.887-0.359c0.674,0,1.275,0.104,1.809,0.313c0.532,0.209,0.983,0.515,1.354,0.916
				c0.37,0.401,0.654,0.901,0.851,1.5C-221.924,50.688-221.825,51.374-221.825,52.145z M-223.488,52.221
				c0-0.579-0.064-1.085-0.191-1.519c-0.128-0.433-0.31-0.794-0.546-1.084c-0.237-0.289-0.524-0.507-0.864-0.653
				s-0.718-0.22-1.135-0.22c-0.485,0-0.901,0.095-1.248,0.285c-0.346,0.189-0.629,0.443-0.85,0.761s-0.383,0.688-0.486,1.107
				c-0.103,0.421-0.154,0.861-0.154,1.322c0,0.579,0.064,1.087,0.192,1.522c0.127,0.437,0.311,0.799,0.546,1.089
				c0.236,0.29,0.523,0.508,0.859,0.654s0.716,0.22,1.14,0.22c0.486,0,0.901-0.096,1.247-0.285c0.346-0.19,0.629-0.444,0.85-0.762
				c0.222-0.317,0.384-0.687,0.486-1.107C-223.539,53.132-223.488,52.687-223.488,52.221z"/>
			<path fill="#010101" d="M-212.015,56.911h-1.626v-7.979h-2.616c-0.074,1.283-0.186,2.383-0.332,3.299
				c-0.146,0.915-0.322,1.68-0.527,2.293c-0.206,0.614-0.439,1.097-0.701,1.448c-0.261,0.353-0.543,0.607-0.845,0.767
				c-0.303,0.158-0.622,0.236-0.958,0.233s-0.683-0.049-1.037-0.136l0.075-1.345c0.249,0.024,0.481,0.012,0.7-0.038
				s0.42-0.169,0.607-0.359c0.187-0.19,0.356-0.464,0.509-0.822c0.153-0.358,0.291-0.836,0.416-1.435
				c0.125-0.598,0.232-1.331,0.322-2.2c0.09-0.868,0.164-1.904,0.219-3.106h5.793L-212.015,56.911L-212.015,56.911z"/>
			<path fill="#010101" d="M-201.027,51.725c0,0.23-0.003,0.424-0.009,0.579c-0.006,0.156-0.017,0.303-0.028,0.439h-6.587
				c0,0.959,0.268,1.695,0.804,2.209c0.536,0.515,1.309,0.771,2.317,0.771c0.273,0,0.548-0.011,0.822-0.033
				c0.273-0.021,0.538-0.051,0.794-0.089c0.255-0.037,0.5-0.079,0.733-0.126s0.45-0.098,0.649-0.154v1.336
				c-0.442,0.125-0.942,0.227-1.5,0.304c-0.559,0.078-1.135,0.117-1.733,0.117c-0.804,0-1.495-0.109-2.074-0.327
				c-0.579-0.218-1.054-0.534-1.425-0.948s-0.645-0.922-0.822-1.522c-0.177-0.602-0.266-1.282-0.266-2.042
				c0-0.66,0.095-1.284,0.285-1.873s0.467-1.105,0.832-1.551c0.365-0.445,0.812-0.799,1.341-1.061
				c0.529-0.262,1.13-0.393,1.803-0.393c0.654,0,1.233,0.103,1.738,0.309c0.504,0.205,0.93,0.496,1.275,0.873
				c0.345,0.377,0.606,0.835,0.785,1.374C-201.116,50.456-201.027,51.058-201.027,51.725z M-202.719,51.492
				c0.02-0.418-0.021-0.799-0.121-1.145c-0.1-0.346-0.254-0.644-0.463-0.893c-0.208-0.249-0.469-0.443-0.779-0.584
				c-0.313-0.14-0.674-0.21-1.084-0.21c-0.355,0-0.68,0.068-0.973,0.205c-0.293,0.138-0.545,0.33-0.757,0.579
				c-0.212,0.25-0.383,0.549-0.514,0.897c-0.131,0.348-0.212,0.731-0.243,1.149h4.934V51.492z"/>
			<path fill="#010101" d="M-190.283,48.932h-3.561v7.979h-1.645v-7.979h-3.561v-1.401h8.765L-190.283,48.932L-190.283,48.932z"/>
			<path fill="#010101" d="M-180.369,56.911h-1.625v-4.148h-4.289v4.148h-1.625V47.53h1.625v3.813h4.289V47.53h1.625V56.911z"/>
			<path fill="#010101" d="M-169.467,51.725c0,0.23-0.003,0.424-0.009,0.579c-0.006,0.156-0.016,0.303-0.028,0.439h-6.587
				c0,0.959,0.269,1.695,0.805,2.209c0.536,0.515,1.308,0.771,2.316,0.771c0.274,0,0.548-0.011,0.822-0.033
				c0.274-0.021,0.539-0.051,0.794-0.089c0.255-0.037,0.5-0.079,0.734-0.126c0.232-0.047,0.449-0.098,0.648-0.154v1.336
				c-0.441,0.125-0.941,0.227-1.5,0.304c-0.558,0.078-1.135,0.117-1.732,0.117c-0.805,0-1.495-0.109-2.074-0.327
				c-0.579-0.218-1.054-0.534-1.425-0.948s-0.646-0.922-0.822-1.522c-0.177-0.602-0.266-1.282-0.266-2.042
				c0-0.66,0.095-1.284,0.284-1.873c0.19-0.589,0.468-1.105,0.832-1.551c0.365-0.445,0.813-0.799,1.342-1.061
				c0.528-0.262,1.13-0.393,1.803-0.393c0.654,0,1.232,0.103,1.738,0.309c0.504,0.205,0.93,0.496,1.274,0.873
				c0.345,0.377,0.607,0.835,0.785,1.374C-169.556,50.456-169.467,51.058-169.467,51.725z M-171.157,51.492
				c0.019-0.418-0.022-0.799-0.121-1.145c-0.101-0.346-0.254-0.644-0.463-0.893c-0.208-0.249-0.47-0.443-0.78-0.584
				c-0.312-0.14-0.673-0.21-1.084-0.21c-0.355,0-0.679,0.068-0.972,0.205c-0.293,0.138-0.545,0.33-0.757,0.579
				c-0.213,0.25-0.384,0.549-0.515,0.897c-0.131,0.348-0.212,0.731-0.243,1.149h4.935V51.492z"/>
			<path fill="#010101" d="M-164.458,48.932v7.979h-1.645V47.53h6.792v1.401L-164.458,48.932L-164.458,48.932z"/>
			<path fill="#010101" d="M-148.184,52.145c0,0.729-0.103,1.397-0.308,2.005c-0.206,0.606-0.501,1.127-0.889,1.56
				c-0.386,0.434-0.855,0.77-1.41,1.01c-0.556,0.239-1.185,0.359-1.889,0.359c-0.672,0-1.274-0.104-1.808-0.313
				c-0.533-0.208-0.984-0.515-1.355-0.92c-0.371-0.404-0.653-0.906-0.85-1.504c-0.196-0.599-0.294-1.286-0.294-2.065
				c0-0.729,0.103-1.394,0.309-1.994c0.206-0.602,0.501-1.118,0.889-1.551c0.386-0.434,0.855-0.77,1.41-1.01
				c0.555-0.239,1.184-0.359,1.888-0.359c0.673,0,1.274,0.104,1.808,0.313c0.532,0.209,0.984,0.515,1.354,0.916
				c0.369,0.401,0.653,0.901,0.85,1.5C-148.281,50.688-148.184,51.374-148.184,52.145z M-149.847,52.221
				c0-0.579-0.063-1.085-0.19-1.519c-0.128-0.433-0.311-0.794-0.546-1.084c-0.237-0.289-0.525-0.507-0.864-0.653
				c-0.34-0.146-0.718-0.22-1.135-0.22c-0.486,0-0.902,0.095-1.248,0.285c-0.347,0.189-0.629,0.443-0.851,0.761
				c-0.221,0.318-0.383,0.688-0.485,1.107c-0.104,0.421-0.154,0.861-0.154,1.322c0,0.579,0.063,1.087,0.191,1.522
				c0.128,0.437,0.311,0.799,0.547,1.089c0.235,0.29,0.522,0.508,0.858,0.654s0.716,0.22,1.141,0.22c0.485,0,0.9-0.096,1.246-0.285
				c0.347-0.19,0.63-0.444,0.851-0.762c0.221-0.317,0.383-0.687,0.486-1.107C-149.897,53.132-149.847,52.687-149.847,52.221z"/>
		</g>
		<g>
			<path fill="#010101" d="M-264.457,70.718c0,0.729-0.104,1.396-0.309,2.005c-0.206,0.606-0.501,1.127-0.888,1.56
				c-0.386,0.434-0.856,0.77-1.411,1.01s-1.184,0.359-1.888,0.359c-0.672,0-1.275-0.104-1.809-0.313
				c-0.532-0.209-0.983-0.516-1.354-0.92s-0.654-0.906-0.85-1.504c-0.196-0.6-0.295-1.287-0.295-2.065
				c0-0.729,0.104-1.394,0.31-1.994c0.206-0.603,0.501-1.118,0.888-1.551c0.386-0.435,0.856-0.771,1.411-1.011
				c0.554-0.238,1.183-0.358,1.887-0.358c0.673,0,1.275,0.104,1.809,0.313c0.531,0.209,0.983,0.515,1.354,0.916
				c0.37,0.4,0.654,0.9,0.851,1.5C-264.557,69.261-264.457,69.946-264.457,70.718z M-266.121,70.792
				c0-0.578-0.064-1.084-0.191-1.519c-0.128-0.433-0.31-0.794-0.546-1.084c-0.237-0.289-0.525-0.507-0.864-0.653
				c-0.34-0.146-0.718-0.22-1.135-0.22c-0.486,0-0.902,0.095-1.248,0.285c-0.346,0.188-0.629,0.442-0.85,0.761
				c-0.222,0.318-0.383,0.688-0.486,1.107c-0.103,0.421-0.154,0.861-0.154,1.322c0,0.578,0.064,1.086,0.192,1.521
				c0.127,0.438,0.31,0.799,0.546,1.089s0.523,0.509,0.859,0.654s0.716,0.22,1.14,0.22c0.486,0,0.901-0.096,1.247-0.285
				s0.629-0.443,0.85-0.762c0.222-0.316,0.384-0.688,0.486-1.107C-266.172,71.704-266.121,71.259-266.121,70.792z"/>
			<path fill="#010101" d="M-254.563,75.483h-1.625v-7.961h-4.289v7.961h-1.625v-9.381h7.54L-254.563,75.483L-254.563,75.483z"/>
			<path fill="#010101" d="M-250.705,69.728c0.224-0.006,0.435-0.012,0.631-0.014c0.196-0.004,0.399-0.006,0.612-0.006
				c0.585,0,1.098,0.07,1.536,0.211c0.439,0.141,0.806,0.336,1.099,0.588c0.292,0.252,0.511,0.556,0.654,0.906
				c0.144,0.354,0.215,0.733,0.215,1.146c0,0.499-0.084,0.937-0.252,1.313s-0.408,0.692-0.72,0.947
				c-0.312,0.256-0.692,0.449-1.145,0.58s-0.989,0.195-1.612,0.195c-0.398,0-0.82-0.012-1.266-0.032s-0.898-0.067-1.359-0.136
				v-9.324h1.607L-250.705,69.728L-250.705,69.728z M-247.641,72.605c0-0.492-0.153-0.874-0.462-1.146
				c-0.308-0.271-0.799-0.405-1.472-0.405c-0.181,0-0.364,0.003-0.551,0.009c-0.188,0.007-0.38,0.016-0.58,0.027v3.084
				c0.199,0.031,0.389,0.052,0.569,0.062c0.182,0.009,0.361,0.015,0.542,0.015c0.381,0,0.694-0.045,0.944-0.137
				c0.249-0.09,0.447-0.21,0.593-0.359c0.146-0.148,0.252-0.323,0.317-0.522C-247.674,73.034-247.641,72.823-247.641,72.605z
				 M-244.932,75.483v-9.381h1.607v9.381H-244.932z"/>
			<path fill="#010101" d="M-232.915,67.503h-3.561v7.979h-1.645v-7.979h-3.561v-1.4h8.765L-232.915,67.503L-232.915,67.503z"/>
			<path fill="#010101" d="M-224.517,75.483l-0.037-1.262c-0.511,0.505-1.028,0.869-1.556,1.094
				c-0.526,0.225-1.079,0.336-1.659,0.336c-0.536,0-0.993-0.068-1.373-0.206c-0.38-0.137-0.692-0.325-0.938-0.563
				c-0.246-0.24-0.427-0.521-0.542-0.846c-0.115-0.326-0.173-0.677-0.173-1.057c0-0.939,0.35-1.678,1.051-2.21s1.735-0.8,3.105-0.8
				h1.943v-0.821c0-0.554-0.178-0.998-0.533-1.331c-0.354-0.333-0.896-0.5-1.625-0.5c-0.53,0-1.051,0.061-1.564,0.178
				c-0.515,0.118-1.045,0.287-1.594,0.504v-1.467c0.206-0.074,0.436-0.146,0.688-0.22c0.252-0.071,0.519-0.136,0.799-0.19
				c0.28-0.057,0.573-0.102,0.878-0.136s0.614-0.052,0.925-0.052c0.566,0,1.077,0.063,1.532,0.188s0.839,0.313,1.154,0.569
				c0.313,0.257,0.556,0.576,0.724,0.962c0.168,0.387,0.252,0.842,0.252,1.364v6.466H-224.517z M-224.693,71.214h-2.065
				c-0.404,0-0.754,0.039-1.046,0.121c-0.293,0.08-0.532,0.195-0.719,0.346c-0.187,0.148-0.326,0.328-0.416,0.537
				s-0.135,0.443-0.135,0.705c0,0.181,0.028,0.354,0.084,0.519s0.146,0.312,0.271,0.438c0.125,0.129,0.286,0.229,0.486,0.305
				c0.199,0.074,0.442,0.111,0.729,0.111c0.374,0,0.802-0.113,1.284-0.342c0.483-0.227,0.992-0.586,1.528-1.078v-1.662H-224.693z"/>
		</g>
		<g>
			<path fill="#010101" d="M-219.294,77.398c0.317,0.013,0.626-0.017,0.925-0.084s0.562-0.17,0.79-0.304
				c0.228-0.135,0.41-0.301,0.547-0.5s0.206-0.428,0.206-0.682c0-0.263-0.045-0.475-0.136-0.637
				c-0.092-0.162-0.191-0.313-0.305-0.447c-0.111-0.138-0.213-0.283-0.304-0.439c-0.09-0.155-0.135-0.364-0.135-0.627
				c0-0.131,0.024-0.268,0.075-0.41c0.05-0.143,0.126-0.273,0.229-0.393c0.104-0.119,0.233-0.215,0.392-0.289
				c0.159-0.076,0.348-0.112,0.565-0.112s0.428,0.045,0.631,0.136c0.202,0.09,0.38,0.229,0.532,0.416
				c0.153,0.188,0.273,0.42,0.365,0.7c0.09,0.28,0.135,0.61,0.135,0.989c0,0.519-0.095,1.015-0.285,1.49
				c-0.189,0.477-0.473,0.898-0.85,1.268c-0.377,0.367-0.848,0.66-1.411,0.878c-0.564,0.218-1.219,0.327-1.967,0.327V77.398z"/>
		</g>
		<g>
			<path fill="#010101" d="M-190.267,74.083l-0.103,3.793h-1.485v-2.393h-6.839v2.393h-1.467l-0.093-3.793h0.131
				c0.236,0,0.461-0.039,0.673-0.113c0.211-0.074,0.408-0.217,0.588-0.424c0.181-0.209,0.347-0.5,0.5-0.869
				c0.152-0.371,0.29-0.852,0.411-1.439c0.122-0.588,0.227-1.303,0.316-2.145c0.091-0.84,0.167-1.838,0.229-2.989h5.793v7.979
				H-190.267z M-193.237,67.503h-2.616c-0.062,1.072-0.143,1.984-0.243,2.738c-0.1,0.754-0.216,1.387-0.351,1.896
				c-0.134,0.511-0.288,0.919-0.462,1.224c-0.174,0.306-0.368,0.546-0.579,0.72h4.251V67.503z"/>
			<path fill="#010101" d="M-180.11,66.103l-3.195,8.391c-0.331,0.854-0.671,1.588-1.022,2.204
				c-0.353,0.617-0.736,1.123-1.154,1.519c-0.417,0.396-0.875,0.688-1.373,0.875c-0.499,0.187-1.056,0.279-1.673,0.279
				c-0.162,0-0.308-0.004-0.439-0.01c-0.131-0.006-0.273-0.016-0.43-0.027v-1.477c0.137,0.02,0.287,0.035,0.448,0.051
				c0.162,0.016,0.333,0.023,0.514,0.023c0.299,0,0.578-0.043,0.836-0.131c0.26-0.088,0.503-0.229,0.733-0.426
				c0.229-0.195,0.452-0.449,0.664-0.762c0.211-0.313,0.417-0.688,0.617-1.13l-3.747-9.381h1.85l2.373,6.204l0.478,1.457
				l0.542-1.494l2.195-6.167L-180.11,66.103L-180.11,66.103z"/>
			<path fill="#010101" d="M-169.366,75.483h-1.607l-0.243-5.857l-0.103-2.084l-0.551,1.457l-1.756,4.262h-1.188l-1.69-4.094
				l-0.589-1.625l-0.074,2.205l-0.252,5.736h-1.552l0.599-9.381h2.158l1.606,4.046l0.439,1.205l0.438-1.205l1.646-4.046h2.13
				L-169.366,75.483z"/>
			<path fill="#010101" d="M-161.388,75.483l-0.037-1.262c-0.511,0.505-1.028,0.869-1.556,1.094
				c-0.525,0.225-1.079,0.336-1.659,0.336c-0.536,0-0.992-0.068-1.373-0.206c-0.38-0.137-0.692-0.325-0.938-0.563
				c-0.246-0.24-0.427-0.521-0.542-0.846c-0.115-0.326-0.173-0.677-0.173-1.057c0-0.939,0.35-1.678,1.051-2.21s1.736-0.8,3.105-0.8
				h1.943v-0.821c0-0.554-0.178-0.998-0.533-1.331c-0.354-0.333-0.896-0.5-1.625-0.5c-0.529,0-1.051,0.061-1.564,0.178
				c-0.515,0.118-1.045,0.287-1.594,0.504v-1.467c0.206-0.074,0.436-0.146,0.688-0.22c0.252-0.071,0.519-0.136,0.799-0.19
				c0.28-0.057,0.573-0.102,0.878-0.136c0.306-0.034,0.614-0.052,0.925-0.052c0.566,0,1.077,0.063,1.532,0.188
				s0.839,0.313,1.154,0.569c0.313,0.257,0.556,0.576,0.724,0.962c0.168,0.387,0.252,0.842,0.252,1.364v6.466H-161.388z
				 M-161.564,71.214h-2.064c-0.405,0-0.755,0.039-1.047,0.121c-0.293,0.08-0.532,0.195-0.719,0.346
				c-0.187,0.148-0.326,0.328-0.416,0.537s-0.135,0.443-0.135,0.705c0,0.181,0.028,0.354,0.084,0.519s0.146,0.312,0.271,0.438
				c0.125,0.129,0.285,0.229,0.485,0.305c0.199,0.074,0.442,0.111,0.729,0.111c0.374,0,0.802-0.113,1.285-0.342
				c0.482-0.227,0.991-0.586,1.527-1.078v-1.662H-161.564z"/>
			<path fill="#010101" d="M-154.37,70.064c0.037-0.729,0.126-1.354,0.266-1.874c0.141-0.52,0.341-0.945,0.604-1.279
				c0.262-0.332,0.583-0.578,0.962-0.738c0.379-0.158,0.821-0.237,1.327-0.237c0.566,0,1.041,0.095,1.42,0.284
				c0.38,0.189,0.685,0.482,0.916,0.873c0.229,0.394,0.396,0.893,0.495,1.496s0.148,1.32,0.148,2.148
				c0,1.682-0.249,2.922-0.747,3.719c-0.499,0.797-1.305,1.195-2.42,1.195c-0.592,0-1.078-0.1-1.458-0.299s-0.682-0.489-0.906-0.869
				s-0.38-0.841-0.467-1.383s-0.134-1.158-0.14-1.85h-1.701v4.231h-1.532v-9.381h1.532v3.962L-154.37,70.064L-154.37,70.064z
				 M-149.773,70.792c0-1.295-0.112-2.219-0.336-2.771s-0.623-0.826-1.196-0.826c-0.255,0-0.478,0.06-0.668,0.177
				c-0.189,0.119-0.349,0.318-0.477,0.6c-0.128,0.279-0.225,0.65-0.29,1.111c-0.066,0.461-0.098,1.03-0.098,1.709
				c0,0.742,0.032,1.344,0.098,1.809c0.064,0.464,0.164,0.83,0.294,1.098c0.13,0.27,0.291,0.45,0.481,0.547
				c0.189,0.098,0.409,0.146,0.658,0.146c0.269,0,0.498-0.06,0.691-0.177c0.193-0.119,0.352-0.318,0.477-0.6
				c0.125-0.279,0.217-0.65,0.275-1.111S-149.773,71.472-149.773,70.792z"/>
		</g>
		<g>
			<path fill="#010101" d="M-145.646,77.398c0.318,0.013,0.626-0.017,0.925-0.084c0.3-0.067,0.563-0.17,0.79-0.304
				c0.229-0.135,0.41-0.301,0.547-0.5c0.138-0.199,0.206-0.428,0.206-0.682c0-0.263-0.045-0.475-0.136-0.637
				s-0.19-0.313-0.304-0.447c-0.112-0.138-0.213-0.283-0.304-0.439c-0.091-0.155-0.136-0.364-0.136-0.627
				c0-0.131,0.025-0.268,0.075-0.41s0.126-0.273,0.229-0.393c0.103-0.119,0.232-0.215,0.392-0.289
				c0.159-0.076,0.347-0.112,0.565-0.112c0.218,0,0.428,0.045,0.631,0.136c0.202,0.09,0.38,0.229,0.531,0.416
				c0.153,0.188,0.274,0.42,0.365,0.7c0.09,0.28,0.135,0.61,0.135,0.989c0,0.519-0.095,1.015-0.284,1.49
				c-0.19,0.477-0.474,0.898-0.851,1.268c-0.377,0.367-0.847,0.66-1.411,0.878c-0.563,0.218-1.219,0.327-1.967,0.327V77.398
				L-145.646,77.398z"/>
		</g>
		<g>
			<path fill="#010101" d="M-119.412,71.849h-1.935c-1.451,0-2.517-0.271-3.194-0.813c-0.68-0.543-1.02-1.33-1.02-2.365v-2.568
				h1.646v2.354c0,0.375,0.05,0.688,0.148,0.943c0.101,0.256,0.261,0.463,0.481,0.622c0.221,0.158,0.505,0.272,0.851,0.341
				c0.347,0.069,0.765,0.104,1.256,0.104h1.767v-4.363h1.625v9.381h-1.625V71.849z"/>
			<path fill="#010101" d="M-106.659,67.503h-3.561v7.979h-1.645v-7.979h-3.561v-1.4h8.765L-106.659,67.503L-106.659,67.503z"/>
			<path fill="#010101" d="M-96.12,70.718c0,0.729-0.104,1.396-0.309,2.005c-0.206,0.606-0.501,1.127-0.888,1.56
				c-0.386,0.434-0.855,0.77-1.411,1.01c-0.555,0.24-1.184,0.359-1.888,0.359c-0.672,0-1.275-0.104-1.809-0.313
				c-0.532-0.209-0.983-0.516-1.354-0.92s-0.654-0.906-0.85-1.504c-0.196-0.6-0.294-1.287-0.294-2.065
				c0-0.729,0.103-1.394,0.309-1.994c0.206-0.603,0.501-1.118,0.888-1.551c0.387-0.435,0.856-0.771,1.411-1.011
				c0.554-0.238,1.184-0.358,1.887-0.358c0.674,0,1.275,0.104,1.809,0.313c0.532,0.209,0.983,0.515,1.354,0.916
				c0.37,0.4,0.654,0.9,0.851,1.5C-96.219,69.261-96.12,69.946-96.12,70.718z M-97.783,70.792c0-0.578-0.064-1.084-0.191-1.519
				c-0.128-0.433-0.31-0.794-0.546-1.084c-0.236-0.289-0.524-0.507-0.864-0.653c-0.34-0.146-0.718-0.22-1.135-0.22
				c-0.485,0-0.901,0.095-1.248,0.285c-0.346,0.188-0.629,0.442-0.85,0.761s-0.383,0.688-0.486,1.107
				c-0.103,0.421-0.154,0.861-0.154,1.322c0,0.578,0.064,1.086,0.192,1.521c0.127,0.438,0.311,0.799,0.546,1.089
				c0.236,0.29,0.523,0.509,0.859,0.654s0.716,0.22,1.14,0.22c0.486,0,0.901-0.096,1.247-0.285s0.629-0.443,0.851-0.762
				c0.221-0.316,0.383-0.688,0.485-1.107C-97.834,71.704-97.783,71.259-97.783,70.792z"/>
		</g>
		<g>
			<path fill="#010101" d="M-92.493,74.53c0,0.148-0.028,0.293-0.084,0.43c-0.057,0.138-0.132,0.258-0.229,0.359
				c-0.097,0.104-0.213,0.184-0.351,0.243c-0.137,0.06-0.286,0.089-0.448,0.089s-0.312-0.029-0.449-0.089
				c-0.137-0.06-0.253-0.14-0.35-0.237c-0.097-0.1-0.173-0.219-0.229-0.355c-0.056-0.137-0.084-0.283-0.084-0.438
				c0-0.156,0.028-0.303,0.084-0.439c0.057-0.137,0.133-0.258,0.229-0.359s0.213-0.184,0.35-0.242c0.138-0.06,0.287-0.09,0.449-0.09
				s0.313,0.03,0.448,0.09c0.137,0.059,0.254,0.139,0.351,0.237c0.098,0.099,0.173,0.22,0.229,0.358
				C-92.521,74.227-92.493,74.376-92.493,74.53z M-88.896,74.53c0,0.148-0.028,0.293-0.084,0.43
				c-0.056,0.138-0.133,0.258-0.229,0.359c-0.098,0.104-0.213,0.184-0.352,0.243c-0.138,0.06-0.287,0.089-0.448,0.089
				s-0.312-0.029-0.448-0.089c-0.138-0.06-0.254-0.14-0.351-0.237c-0.097-0.101-0.173-0.219-0.229-0.355
				c-0.057-0.137-0.084-0.283-0.084-0.438c0-0.156,0.027-0.303,0.084-0.439c0.056-0.137,0.132-0.258,0.229-0.359
				c0.097-0.104,0.213-0.184,0.351-0.242c0.137-0.06,0.287-0.09,0.448-0.09c0.162,0,0.312,0.03,0.448,0.09
				c0.137,0.059,0.254,0.139,0.352,0.237c0.096,0.101,0.173,0.22,0.229,0.358C-88.924,74.227-88.896,74.376-88.896,74.53z
				 M-85.299,74.53c0,0.148-0.028,0.293-0.085,0.43c-0.056,0.138-0.132,0.258-0.229,0.359c-0.097,0.104-0.214,0.184-0.351,0.243
				c-0.138,0.06-0.287,0.089-0.448,0.089c-0.162,0-0.313-0.029-0.449-0.089s-0.254-0.14-0.35-0.237
				c-0.098-0.101-0.174-0.219-0.229-0.355s-0.084-0.283-0.084-0.438c0-0.156,0.028-0.303,0.084-0.439s0.132-0.258,0.229-0.359
				c0.096-0.104,0.213-0.184,0.35-0.242c0.137-0.06,0.287-0.09,0.449-0.09s0.311,0.03,0.448,0.09
				c0.137,0.059,0.254,0.139,0.351,0.237c0.096,0.101,0.173,0.22,0.229,0.358C-85.327,74.227-85.299,74.376-85.299,74.53z"/>
		</g>
	</g>
</g>
<g>
	<defs>
		<rect id="SVGID_1_" x="-116.327" y="14.269" width="280.221" height="329.372"/>
	</defs>
	<clipPath id="SVGID_2_">
		<use xlink:href="#SVGID_1_"  overflow="visible"/>
	</clipPath>
	<path clip-path="url(#SVGID_2_)" fill-rule="evenodd" clip-rule="evenodd" fill="#FFCC99" d="M33.488,68.532
		c-2.44-0.714-4.386-1.14-5.836-1.278l0.896-6.631l0.035,0.035l-0.035-0.587l-0.414-1.692c-1.864-4.834-3.2-7.368-4.006-7.598
		c1.036-1.013,2.118-0.817,3.246,0.587c1.128,1.381,2.21,2.003,3.246,1.865c0.668,0.046,1.98-0.622,3.938-2.003
		c2.9-1.657,5.744-2.958,8.529-3.902h1.036c0.599,0.576-1.543,2.475-6.424,5.699l8.185-3.557h1.036
		c0.783,1.197-1.116,3.234-5.698,6.113l5.181-2.97c2.647,0.345-0.737,3.971-10.153,10.878L33.488,68.532z M-17.003,22.6
		c0.668,0.737,1.335,1.646,2.004,2.728c0.552,0.875,1.059,1.715,1.519,2.521c0.483-0.161,0.968-0.323,1.45-0.484
		c0.554-0.184,1.163,0.219,1.831,1.209c0.714,0.99,1.082,1.911,1.104,2.763c0.069,0.806-0.356,1.485-1.277,2.038l0.414,1.105
		c0.645,1.497,1.163,3.328,1.555,5.491c0.391,2.164,0.506,4.881,0.345,8.15c-0.138,3.224-0.3,4.686-0.482,4.386
		c-1.429,5.158-4.858,8.416-10.292,9.773h0.173v0.76l-2.971,9.532v0.035c-0.023-0.046-0.046-0.092-0.069-0.138
		c-0.068-0.116-0.863-1.197-2.382-3.247c-1.521-2.072-3.155-4.132-4.904-6.182l-1.036-3.902c-1.197-1.083-2.44-2.452-3.729-4.11
		c-2.395-3.131-3.812-5.376-4.248-6.734c-2.578,1.405-4.398,0.944-5.457-1.382c-1.036-2.348-0.357-3.925,2.038-4.731l2.866,5.146
		l2.729-1.727c-1.198-1.796-2.164-3.534-2.901-5.215c-0.714-1.727-1.187-3.833-1.416-6.32c0.046-0.023,0.104-0.057,0.173-0.104
		c7.966-3.799,14.389-8.61,19.271-14.436c0.598,0.299,1.219,0.703,1.864,1.208C-18.211,21.241-17.602,21.863-17.003,22.6
		 M-14.931,31.544h-0.068h-0.069c-0.507,0-0.934,0.196-1.278,0.587c-0.392,0.392-0.587,0.863-0.587,1.416v0.104
		c0.022,0.483,0.219,0.91,0.587,1.278c0.345,0.414,0.771,0.622,1.278,0.622c0.483,0,0.909-0.208,1.278-0.622
		c0.367-0.392,0.551-0.852,0.551-1.381c0-0.553-0.184-1.024-0.551-1.416C-14.113,31.786-14.493,31.591-14.931,31.544
		 M-25.603,39.729c0-0.575-0.184-1.059-0.552-1.451c-0.392-0.392-0.863-0.586-1.417-0.586c-0.552,0-1.013,0.195-1.381,0.586
		c-0.392,0.392-0.587,0.875-0.587,1.451s0.195,1.059,0.587,1.451c0.368,0.415,0.829,0.622,1.381,0.622
		c0.554,0,1.025-0.207,1.417-0.622C-25.786,40.788-25.603,40.304-25.603,39.729 M-65.732,139.778l6.044,1.968l0.38,7.219
		c-0.046,2.646-0.173,5.905-0.38,9.773c-1.428-0.484-2.43-2.775-3.005-6.873l-5.284,6.596l-1.001,0.795
		c-4.974-0.184-4.248-6.066,2.176-17.647L-65.732,139.778z"/>
	<path clip-path="url(#SVGID_2_)" fill-rule="evenodd" clip-rule="evenodd" fill="#99CCCC" d="M33.488,68.531l3.799,0.967
		l-1.831,4.766c-0.16,0.138-0.38,0.23-0.655,0.276h-0.415l0.034,0.069c-1.104,0.069-3.073-0.196-5.905-0.794l-3.695-1.071
		l-0.691-0.207l1.036-4.766l0.449-0.415c0.507-0.138,1.187-0.173,2.038-0.104C29.103,67.392,31.048,67.818,33.488,68.531
		 M-21.631,72.607c-0.737,1.082-1.611,2.279-2.624,3.591l2.866,2.763l-0.519,16.681l-8.013-23.76
		c0.116,0.208,0.22,0.415,0.312,0.622l0.897,1.762l-0.173-0.38c-0.138-0.252-0.275-0.518-0.414-0.794l-2.797-5.629l3.107-4.42
		c1.75,2.049,3.385,4.109,4.905,6.182c1.519,2.049,2.313,3.131,2.382,3.247C-21.677,72.515-21.653,72.56-21.631,72.607
		 M-15.933,94.537l-4.662-15.506l1.243-3.419c-0.944-1.313-1.704-2.325-2.279-3.039l2.971-9.532l4.972,3.557l-1.795,5.732
		C-15.575,81.448-15.726,88.85-15.933,94.537 M-56.027,136.705l0.932,0.828l-2.176,5.008l-2.417-0.795l-6.044-1.968l-2.142-0.69
		l2.971-7.771l0.552,0.311l4.18,2.072l0.379,0.312h0.069l2.038,1.278h0.068L-56.027,136.705z"/>
	<path clip-path="url(#SVGID_2_)" fill-rule="evenodd" clip-rule="evenodd" fill="#999999" d="M-21.907,95.642l6.39,21.066
		c-0.53-8.219-0.668-15.61-0.415-22.172c0.207-5.687,0.357-13.088,0.449-22.206l1.795-5.733l4.939,1.416
		c2.026,0.207,4.479,1.404,7.356,3.592l15.541,22.275c1.611,2.025,2.752,2.06,3.418,0.104l7.253-21.239l3.695,1.07
		c2.832,0.599,4.801,0.863,5.905,0.794h0.035l-12.26,27.49l-1.797,1.934c-1.565,0.898-3.648,1.52-6.25,1.865
		C8.162,104.057,2.165,95.86-3.846,81.31c0.161,15.655,1.646,33.211,4.456,52.667c-2.326,1.427-5.284,2.244-8.876,2.451
		l-21.032,0.83c-3.2,0.207-6.562,0.045-10.084-0.484c-2.717-0.438-5.525-1.082-8.427-1.934c3.224-14.736,4.375-31.439,3.453-50.111
		c-6.769,17.682-10.659,35.007-11.672,51.976l-1.59-1.416h-0.068l-2.038-1.278h-0.069l-0.379-0.311l-4.18-2.072
		c4.237-38.771,10.741-59.043,19.513-60.817l12.744-3.35l2.797,5.629c0.139,0.276,0.276,0.541,0.414,0.794l0.173,0.38l-0.897-1.761
		c-0.092-0.207-0.195-0.415-0.312-0.622L-21.907,95.642z"/>
	<path clip-path="url(#SVGID_2_)" fill-rule="evenodd" clip-rule="evenodd" d="M-39.969,33.961c-0.645,0-0.703,0.035-0.173,0.104
		c0.229,2.487,0.702,4.593,1.415,6.32c0.738,1.68,1.705,3.419,2.902,5.215l-2.729,1.727l-2.866-5.146l-1.347-2.729
		c-1.335,0.576-2.659,0.622-3.972,0.138c-0.276-1.727-0.679-3.73-1.209-6.009c-0.482-2.302-0.782-4.086-0.897-5.353
		c-0.115-1.29-0.195-2.44-0.242-3.454c-0.022-1.036,0.254-1.98,0.83-2.832c0.621-0.898,1.83-1.566,3.626-2.003l2.521-1.313
		c1.266-1.749,2.452-2.981,3.557-3.695c1.105-0.713,4.789-0.852,11.052-0.415c6.309,0.437,9.854,1.117,10.637,2.038
		c0.829,0.967,1.313,1.658,1.45,2.072c0.093,0.208,0.186,0.795,0.277,1.762c0.091,1.151,0.23,2.038,0.414,2.659
		c-1.059,0-1.819-0.15-2.279-0.449c-0.599-0.737-1.208-1.358-1.83-1.865c-0.646-0.506-1.267-0.909-1.865-1.208
		C-25.58,25.351-32.003,30.163-39.969,33.961 M-25.603,39.729c0,0.576-0.184,1.059-0.552,1.451
		c-0.392,0.414-0.863,0.622-1.417,0.622c-0.552,0-1.013-0.208-1.381-0.622c-0.392-0.392-0.587-0.875-0.587-1.451
		c0-0.575,0.195-1.059,0.587-1.451c0.368-0.391,0.829-0.587,1.381-0.587c0.554,0,1.025,0.196,1.417,0.587
		C-25.786,38.67-25.603,39.154-25.603,39.729 M-14.931,31.544c0.438,0.046,0.817,0.242,1.14,0.587
		c0.368,0.392,0.552,0.863,0.552,1.416c0,0.53-0.184,0.99-0.552,1.381c-0.368,0.415-0.794,0.622-1.278,0.622
		c-0.506,0-0.933-0.208-1.277-0.622c-0.368-0.368-0.564-0.794-0.587-1.278v-0.104c0-0.552,0.195-1.024,0.587-1.416
		c0.345-0.391,0.771-0.587,1.277-0.587H-15H-14.931z"/>
	<path clip-path="url(#SVGID_2_)" fill-rule="evenodd" clip-rule="evenodd" fill="#242424" d="M-21.631,72.572
		c0.575,0.713,1.336,1.727,2.279,3.039l-1.243,3.419l4.662,15.506c-0.253,6.562-0.115,13.953,0.415,22.172l-6.39-21.066
		l0.519-16.681l-2.866-2.763c1.013-1.313,1.888-2.51,2.624-3.592V72.572z M-34.028,241.727c9.071,4.467,13.514,8.369,13.33,11.707
		l-23.622-2.797c-1.358-1.289-1.646-4.744-0.864-10.361L-34.028,241.727z M-10.511,242.418l11.294,1.242
		c9.001,4.42,13.883,7.68,14.643,9.773h-24.9C-10.901,251.545-11.246,247.873-10.511,242.418"/>
	<path clip-path="url(#SVGID_2_)" fill-rule="evenodd" clip-rule="evenodd" fill="#666666" d="M-39.382,136.773
		c3.522,0.529,6.884,0.691,10.084,0.484l21.032-0.83c2.257,44.113,6.228,79.961,11.915,107.543l-2.866-0.311l-11.294-1.244
		l-0.966-0.137l-7.668-99.15h-7.7c-4.882,36.215-6.091,69.242-3.627,99.08l-3.557-0.482l-11.156-1.451
		C-45.068,207.168-43.135,172.668-39.382,136.773"/>
	
		<path clip-path="url(#SVGID_2_)" fill="none" stroke="#FF0000" stroke-width="16.3" stroke-linecap="round" stroke-linejoin="round" stroke-miterlimit="3" d="
		M86.431,239.965L68.3,223.734l-18.304,16.957 M51.446,208.643L68.3,223.734l21.031-19.479"/>
	
		<path clip-path="url(#SVGID_2_)" fill="none" stroke="#009999" stroke-width="8.65" stroke-linecap="round" stroke-linejoin="round" stroke-miterlimit="3" d="
		M98.104,195.518H42.226c-3.039,0-4.559,1.611-4.559,4.836v48.279c0,3.201,1.52,4.801,4.559,4.801h55.878
		c3.039,0,4.56-1.6,4.56-4.801v-48.279C102.663,197.129,101.143,195.518,98.104,195.518z"/>
	<g clip-path="url(#SVGID_2_)">
		<path d="M52.277,165.73v-10.729h-7.97v10.729h-4.416v-24.646h4.416v9.899h7.97v-9.899h4.416v24.646H52.277z"/>
		<path d="M76.779,154.681c0,0.314-0.009,0.724-0.026,1.226c-0.019,0.504-0.045,0.975-0.081,1.414H64.681
			c0,0.843,0.123,1.584,0.368,2.226s0.593,1.179,1.041,1.612c0.449,0.434,0.987,0.764,1.616,0.99c0.628,0.227,1.325,0.34,2.091,0.34
			c0.886,0,1.834-0.072,2.846-0.218c1.011-0.144,2.061-0.38,3.149-0.707v3.658c-0.467,0.139-0.975,0.265-1.525,0.378
			c-0.551,0.112-1.113,0.213-1.688,0.301s-1.155,0.154-1.741,0.198s-1.155,0.065-1.705,0.065c-1.389,0-2.633-0.207-3.733-0.621
			c-1.102-0.416-2.035-1.028-2.801-1.84c-0.766-0.811-1.353-1.813-1.759-3.007c-0.407-1.194-0.61-2.577-0.61-4.148
			c0-1.56,0.203-2.977,0.61-4.253c0.406-1.275,0.98-2.369,1.723-3.281c0.742-0.91,1.643-1.615,2.702-2.111
			c1.059-0.496,2.24-0.744,3.545-0.744c1.293,0,2.436,0.21,3.429,0.631c0.993,0.422,1.824,1.009,2.495,1.764
			c0.67,0.754,1.179,1.652,1.525,2.696C76.606,152.293,76.779,153.436,76.779,154.681z M72.328,154.021
			c0.012-0.755-0.078-1.412-0.27-1.971c-0.191-0.56-0.452-1.021-0.78-1.387c-0.33-0.364-0.713-0.635-1.149-0.811
			s-0.906-0.264-1.409-0.264c-1.101,0-2.004,0.387-2.71,1.159c-0.707,0.773-1.125,1.864-1.257,3.272H72.328z"/>
		<path d="M90.943,150.438v15.293h-4.452v-15.293h-6.354v-3.865h17.161v3.865H90.943z"/>
	</g>
</g>
<g>
	<defs>
		<rect id="SVGID_3_" x="138.605" y="2.356" width="410.316" height="342.285"/>
	</defs>
	<clipPath id="SVGID_4_">
		<use xlink:href="#SVGID_3_"  overflow="visible"/>
	</clipPath>
	<path clip-path="url(#SVGID_4_)" fill-rule="evenodd" clip-rule="evenodd" fill="#FFD39B" d="M246.775,79.105l-2.874-5.654
		l3.963-4.333c1.396-2.871,3.374-4.338,5.932-4.402l0.557,1.112c4.684-2.148,7.492-2.956,8.423-2.421
		c0.932,0.535-0.54,1.952-4.414,4.252c0.418,0.728,0.719,1.6,0.904,2.618l-0.279,3.291c-0.155,0.792-0.507,1.429-1.054,1.912
		c-0.54,0.485-1.629,0.902-3.268,1.251c-1.64,0.341-2.485,0.507-2.537,0.499c-0.053-0.004-0.4,0.011-1.043,0.046
		C250.444,77.31,249.008,77.921,246.775,79.105"/>
	<path clip-path="url(#SVGID_4_)" fill-rule="evenodd" clip-rule="evenodd" fill="#1B597B" d="M166.474,210.416
		c0.808-0.852,1.77-1.301,2.884-1.344c1.158,0,2.14,0.436,2.949,1.311c0.83,0.83,1.245,1.857,1.245,3.08l0.426,30.969
		c0,1.199-0.404,2.238-1.212,3.111c-0.787,0.875-1.748,1.322-2.885,1.344c-1.135,0-2.118-0.414-2.948-1.244
		c-0.787-0.896-1.202-1.945-1.246-3.146l-0.36-30.969C165.306,212.348,165.687,211.311,166.474,210.416"/>
	<path clip-path="url(#SVGID_4_)" fill-rule="evenodd" clip-rule="evenodd" fill="#3F5272" d="M163.458,133.635
		c-0.021-1.922,0.59-3.583,1.836-4.98c1.289-1.398,2.852-2.119,4.686-2.163l2.95-0.033c1.813-0.021,3.376,0.645,4.686,1.999
		c1.312,1.398,1.977,3.059,1.999,4.981l1.344,106.47l-16.156,0.164L163.458,133.635z"/>
	<path clip-path="url(#SVGID_4_)" fill-rule="evenodd" clip-rule="evenodd" fill="#F8A586" d="M191.707,65.113
		c-0.547,1.726-1.552,3.135-3.016,4.228c-1.485,1.136-3.179,1.703-5.079,1.703c-1.835,0-3.495-0.545-4.981-1.638
		c-1.42-1.049-2.437-2.447-3.047-4.194l8.684-0.459C186.453,64.752,188.932,64.873,191.707,65.113"/>
	<path clip-path="url(#SVGID_4_)" fill-rule="evenodd" clip-rule="evenodd" fill="#3F5272" d="M163.36,135.766v-20.252h41.848
		v20.252c0,3.518-1.234,6.51-3.703,8.979c-2.491,2.49-5.495,3.736-9.012,3.736h-16.418c-3.518,0-6.521-1.246-9.012-3.736
		C164.595,142.275,163.36,139.283,163.36,135.766"/>
	<path clip-path="url(#SVGID_4_)" fill-rule="evenodd" clip-rule="evenodd" fill="#455A7D" d="M184.268,135.766v-20.252h20.94
		v20.252c0,3.146-1.006,5.898-3.016,8.258c-1.943,2.316-4.423,3.735-7.438,4.26c-3.058-0.524-5.56-1.943-7.505-4.26
		C185.262,141.643,184.268,138.89,184.268,135.766"/>
	<path clip-path="url(#SVGID_4_)" fill-rule="evenodd" clip-rule="evenodd" fill="#F8A586" d="M184.268,44.665
		c1.354,0,2.469,0.47,3.343,1.409c0.938,0.874,1.409,1.977,1.409,3.309v15.828l-7.538,4.752l-1.933-4.752V49.383
		c0-1.31,0.458-2.414,1.376-3.309C181.843,45.134,182.957,44.665,184.268,44.665"/>
	<path clip-path="url(#SVGID_4_)" fill-rule="evenodd" clip-rule="evenodd" fill="#11132D" d="M169.914,37.979
		c-0.349,0-0.677-0.131-0.982-0.394c-0.24-0.284-0.36-0.612-0.36-0.983c0-0.327,0.12-0.633,0.36-0.917
		c0.262-0.24,0.589-0.36,0.982-0.36s0.71,0.12,0.95,0.36c0.263,0.262,0.394,0.568,0.394,0.917c0,0.394-0.131,0.721-0.394,0.983
		C170.603,37.849,170.286,37.979,169.914,37.979"/>
	<path clip-path="url(#SVGID_4_)" fill-rule="evenodd" clip-rule="evenodd" fill="#11132D" d="M180.499,37.979
		c-0.372,0-0.688-0.131-0.95-0.394c-0.24-0.284-0.36-0.612-0.36-0.983c0-0.327,0.12-0.633,0.36-0.917
		c0.24-0.24,0.557-0.36,0.95-0.36c0.393,0,0.699,0.12,0.918,0.36c0.284,0.262,0.426,0.568,0.426,0.917
		c0,0.394-0.142,0.721-0.426,0.983C181.198,37.849,180.892,37.979,180.499,37.979"/>
	<path clip-path="url(#SVGID_4_)" fill-rule="evenodd" clip-rule="evenodd" fill="#F5E7E7" d="M171.585,50.432
		c-0.982-0.983-1.475-2.174-1.475-3.572h10.192c0,1.398-0.491,2.589-1.476,3.572c-1.005,1.004-2.206,1.508-3.604,1.508
		C173.803,51.94,172.59,51.437,171.585,50.432"/>
	<path clip-path="url(#SVGID_4_)" fill-rule="evenodd" clip-rule="evenodd" fill="#1B597B" d="M199.8,209.891
		c0.831,0.875,1.278,1.891,1.344,3.049c0.504,11.928,0.994,22.184,1.475,30.77c0.066,1.223-0.272,2.283-1.015,3.18
		c-0.766,0.895-1.715,1.377-2.852,1.441c-1.114,0.066-2.107-0.307-2.982-1.113c-0.852-0.809-1.311-1.824-1.376-3.049
		c-0.438-7.756-0.95-18.045-1.54-30.869c-0.065-1.201,0.295-2.25,1.081-3.146c0.743-0.873,1.705-1.344,2.885-1.408
		C197.911,208.723,198.905,209.104,199.8,209.891"/>
	<path clip-path="url(#SVGID_4_)" fill-rule="evenodd" clip-rule="evenodd" fill="#455A7D" d="M188.822,133.668
		c-0.065-1.9,0.547-3.561,1.836-4.981c1.245-1.397,2.796-2.13,4.653-2.194l2.916-0.033c1.835-0.021,3.408,0.645,4.719,1.998
		c1.289,1.334,1.967,2.961,2.032,4.883c0.961,40.941,2.206,76.18,3.735,105.717l-16.123,0.885
		C191.04,210.688,189.783,175.264,188.822,133.668"/>
	<path clip-path="url(#SVGID_4_)" fill="none" stroke="#1A171C" stroke-width="1.35" d="M198.752,118.757v6.849
		c0,1.835,0.634,3.354,1.9,4.556c1.268,1.289,2.785,1.934,4.556,1.934"/>
	
		<line clip-path="url(#SVGID_4_)" fill="none" stroke="#1A171C" stroke-width="1.35" x1="205.208" y1="118.757" x2="163.36" y2="118.757"/>
	
		<line clip-path="url(#SVGID_4_)" fill="none" stroke="#455A7D" stroke-width="1.35" x1="179.778" y1="151.167" x2="172.995" y2="151.33"/>
	<path clip-path="url(#SVGID_4_)" fill-rule="evenodd" clip-rule="evenodd" fill="#6D3E3E" d="M170.34,22.839
		c-1.595-0.917-2.665-2.239-3.211-3.964c-0.547-1.726-0.459-3.43,0.262-5.113l7.932,4.588L170.34,22.839z"/>
	<path clip-path="url(#SVGID_4_)" fill-rule="evenodd" clip-rule="evenodd" fill="#FFD39B" d="M187.872,67.243
		c-1.004,1.005-2.229,1.508-3.67,1.508c-1.464,0-2.698-0.503-3.703-1.508c-1.027-1.026-1.54-2.261-1.54-3.703v-7.374h10.454v7.374
		C189.413,64.982,188.899,66.217,187.872,67.243"/>
	<path clip-path="url(#SVGID_4_)" fill-rule="evenodd" clip-rule="evenodd" fill="#FFD39B" d="M192.887,36.21
		c0-1.638,0.534-3.036,1.604-4.195c1.137-1.157,2.459-1.737,3.965-1.737c1.53,0,2.841,0.58,3.934,1.737
		c1.092,1.202,1.639,2.6,1.639,4.195c0,1.616-0.547,3.025-1.639,4.228c-1.093,1.157-2.403,1.736-3.934,1.736
		c-1.506,0-2.828-0.579-3.965-1.736C193.421,39.279,192.887,37.87,192.887,36.21"/>
	<path clip-path="url(#SVGID_4_)" fill-rule="evenodd" clip-rule="evenodd" fill="#FFD39B" d="M174.371,12.517
		c2.469-1.944,5.593-2.917,9.372-2.917h0.983c3.801,0,6.937,0.973,9.405,2.917c2.6,2.098,3.899,4.905,3.899,8.421v25.43
		c0,3.649-1.3,6.784-3.899,9.405c-2.601,2.579-5.735,3.868-9.405,3.868h-0.983c-3.67,0-6.794-1.289-9.372-3.868
		c-2.6-2.599-3.9-5.734-3.9-9.405v-25.43C170.471,17.399,171.771,14.592,174.371,12.517"/>
	<path clip-path="url(#SVGID_4_)" fill-rule="evenodd" clip-rule="evenodd" fill="#FFD39B" d="M174.371,31.36
		c1.093,1.202,1.639,2.611,1.639,4.228c0,1.594-0.546,2.993-1.639,4.194c-1.093,1.159-2.403,1.737-3.933,1.737
		c-1.508,0-2.829-0.579-3.965-1.737c-1.07-1.157-1.606-2.555-1.606-4.194c0-1.661,0.536-3.07,1.606-4.228
		c1.136-1.158,2.457-1.736,3.965-1.736C171.968,29.624,173.278,30.202,174.371,31.36"/>
	<path clip-path="url(#SVGID_4_)" fill-rule="evenodd" clip-rule="evenodd" fill="#844B4B" d="M197.244,29.23
		c0.853,0.918,1.311,4.206,1.377,9.864c0.064,2.84,0.032,5.582-0.099,8.225c0.065,5.658-0.962,9.547-3.08,11.667
		c-0.983,0.982-2.25,1.67-3.802,2.063c-1.311,0.35-3.026,0.524-5.145,0.524h-4.097c-2.032,0-3.734-0.185-5.112-0.557
		c-1.485-0.416-2.741-1.147-3.769-2.196c-2.054-2.185-3.112-6.226-3.179-12.125c-0.087-2.556-0.12-5.199-0.098-7.931
		c0.108-5.44,0.568-8.618,1.377-9.536v11.6c0,2.032,0.698,3.801,2.096,5.309c1.377,1.464,3.038,2.196,4.981,2.196h11.502
		c1.945,0,3.604-0.731,4.981-2.196c1.377-1.464,2.064-3.233,2.064-5.309V29.23z"/>
	<path clip-path="url(#SVGID_4_)" fill-rule="evenodd" clip-rule="evenodd" fill="#844B4B" d="M189.216,7.667
		c3.342,0,5.778,0.623,7.309,1.868c1.769,1.442,2.653,3.867,2.653,7.275l-0.196,10.225c-0.328,7.034-0.906,11.01-1.737,11.928
		V26.346c0-2.228-0.688-4.15-2.064-5.767s-3.036-2.425-4.981-2.425h-11.502c-1.943,0-3.604,0.808-4.981,2.425
		c-1.397,1.638-2.096,3.562-2.096,5.767v12.617c-0.81-0.939-1.377-4.916-1.704-11.928c-0.088-2.186-0.154-4.545-0.197-7.079
		l-0.032-3.146c0-1.661,0.239-2.884,0.721-3.67c0.437-0.655,1.104-1.015,1.998-1.082c0.679-0.044,1.748,0.043,3.212,0.262
		c1.791,0.24,3.19,0.36,4.194,0.36L189.216,7.667z"/>
	<path clip-path="url(#SVGID_4_)" fill-rule="evenodd" clip-rule="evenodd" fill="#844B4B" d="M191.411,43.125
		c1.923,0.852,2.884,2.501,2.884,4.948c0,2.688-0.961,5.003-2.884,6.947c-1.922,1.901-4.249,2.852-6.979,2.852
		c-2.688,0-5.003-0.951-6.948-2.852c-1.922-1.922-2.883-4.238-2.883-6.947c0-2.447,0.961-4.097,2.883-4.948
		c1.398-0.634,3.715-0.951,6.948-0.951C187.687,42.174,190.013,42.491,191.411,43.125"/>
	<path clip-path="url(#SVGID_4_)" fill-rule="evenodd" clip-rule="evenodd" fill="#FFD39B" d="M190.231,48.564l0.754,0.033
		c0,0.721-0.601,1.321-1.803,1.802c-1.157,0.48-2.599,0.721-4.325,0.721c-1.704,0-3.146-0.241-4.325-0.721
		c-1.18-0.481-1.77-1.082-1.77-1.802c0.83,0,1.704-0.098,2.621-0.295c1.836-0.415,2.993-1.147,3.474-2.196
		c0.612,1.027,1.824,1.759,3.638,2.196C189.128,48.455,189.707,48.542,190.231,48.564"/>
	<path clip-path="url(#SVGID_4_)" fill-rule="evenodd" clip-rule="evenodd" fill="#6D3E3E" d="M173.158,5.832
		c1.027-0.285,2.119-0.448,3.278-0.492c2.424-0.066,4.052,0.513,4.882,1.737c0.175-0.874,0.011-1.922-0.491-3.146l-0.787-1.572
		c0.961-0.022,1.999,0.109,3.113,0.393c2.229,0.59,3.682,1.649,4.358,3.179c0.568-0.131,1.049-0.458,1.441-0.983l0.46-0.753
		c0.283,0.087,0.786,0.306,1.507,0.655c1.311,0.634,2.752,1.573,4.326,2.818c1.747,1.376,2.927,3.125,3.539,5.244
		c0.306,1.07,0.426,1.988,0.36,2.752l-0.099,8.684l-0.229-0.59c-0.263-0.546-0.557-1.016-0.885-1.409
		c-1.093-1.442-2.556-2.305-4.392-2.588c-1.856-0.328-3.855-0.056-5.997,0.819c-1.048,0.416-1.943,0.874-2.687,1.377
		c-4.872-2.513-8.848-2.939-11.928-1.279c-0.983,0.546-1.792,1.256-2.426,2.13c-0.327,0.415-0.557,0.797-0.688,1.146l-1.901-13.795
		c0.503-0.306,1.158-0.459,1.966-0.459c1.64,0,3.256,0.753,4.851,2.261c-0.284-1.398-0.644-2.84-1.081-4.326L173.158,5.832z"/>
	<path clip-path="url(#SVGID_4_)" fill-rule="evenodd" clip-rule="evenodd" fill="#020303" d="M189.937,31.294
		c-0.24-0.197-0.36-0.458-0.36-0.787c0-0.306,0.12-0.579,0.36-0.819c0.197-0.196,0.447-0.295,0.754-0.295
		c0.35,0,0.633,0.099,0.853,0.295c0.196,0.241,0.294,0.513,0.294,0.819c0,0.328-0.098,0.59-0.294,0.787
		c-0.241,0.241-0.525,0.36-0.853,0.36C190.384,31.654,190.134,31.535,189.937,31.294"/>
	<path clip-path="url(#SVGID_4_)" fill-rule="evenodd" clip-rule="evenodd" fill="#020303" d="M177.124,31.294
		c-0.24-0.197-0.36-0.458-0.36-0.787c0-0.306,0.12-0.579,0.36-0.819c0.195-0.196,0.447-0.295,0.753-0.295
		c0.351,0,0.634,0.099,0.852,0.295c0.177,0.197,0.263,0.47,0.263,0.819c0,0.349-0.086,0.612-0.263,0.787
		c-0.239,0.241-0.523,0.36-0.852,0.36C177.571,31.654,177.319,31.535,177.124,31.294"/>
	<path clip-path="url(#SVGID_4_)" fill-rule="evenodd" clip-rule="evenodd" fill="#FFD39B" d="M149.531,135.634l0.295,5.866
		c0.065,1.727-0.218,3.026-0.853,3.9l-0.262,0.426c-0.852,1.092-1.464,2.358-1.835,3.801l-0.263,1.082
		c-0.152,0.545-0.523,0.982-1.113,1.311c-0.59,0.305-1.201,0.382-1.836,0.229l-0.72-0.196c-0.699-0.176-1.344-0.515-1.934-1.017
		c-0.569-0.503-0.973-1.06-1.213-1.672l-1.017-2.883c-0.196-0.591-0.229-1.257-0.098-1.999c0.109-0.766,0.35-1.388,0.721-1.868
		l1.377-1.868c0.459-0.654,1.376-3.014,2.752-7.078L149.531,135.634z"/>
	<path clip-path="url(#SVGID_4_)" fill-rule="evenodd" clip-rule="evenodd" fill="#304779" d="M172.83,64.458h25.495
		c3.998,0,7.429,1.42,10.29,4.26c2.841,2.884,4.261,6.314,4.261,10.29l-1.114,72.258H159.92l-1.672-72.258
		c0-4.019,1.42-7.45,4.26-10.29C165.393,65.878,168.833,64.458,172.83,64.458"/>
	<polygon clip-path="url(#SVGID_4_)" fill-rule="evenodd" clip-rule="evenodd" fill="#455A7D" points="199.406,75.126 
		195.504,80.376 200.926,84.831 186.283,130.763 193.535,64.835 	"/>
	<polygon clip-path="url(#SVGID_4_)" fill-rule="evenodd" clip-rule="evenodd" fill="#455A7D" points="175.059,80.384 
		171.159,75.141 177.058,64.851 186.299,130.751 169.651,84.841 	"/>
	<polygon clip-path="url(#SVGID_4_)" fill-rule="evenodd" clip-rule="evenodd" fill="#EBF7FE" points="176.075,64.851 
		193.541,64.851 186.3,130.752 	"/>
	<polygon clip-path="url(#SVGID_4_)" fill-rule="evenodd" clip-rule="evenodd" fill="#FFFFFF" points="190.756,61.574 
		196.359,67.046 190.658,77.009 184.693,70.782 	"/>
	<polygon clip-path="url(#SVGID_4_)" fill-rule="evenodd" clip-rule="evenodd" fill="#FFFFFF" points="179.058,61.705 
		184.693,70.782 178.86,77.009 173.453,67.144 	"/>
	<polygon clip-path="url(#SVGID_4_)" fill-rule="evenodd" clip-rule="evenodd" fill="#CA6959" points="189.544,101.324 
		186.299,130.752 181.744,101.292 184.693,70.782 	"/>
	<polygon clip-path="url(#SVGID_4_)" fill-rule="evenodd" clip-rule="evenodd" fill="#CA6959" points="189.413,75.698 
		185.152,81.301 180.303,75.468 184.693,70.782 	"/>
	<path clip-path="url(#SVGID_4_)" fill-rule="evenodd" clip-rule="evenodd" fill="#304779" d="M167.423,65.441l3.572,10.749
		c-0.786,0.305-1.703,0.84-2.752,1.605c-2.163,1.574-4.173,3.649-6.03,6.227c-5.92,8.193-9.24,19.76-9.961,34.703
		c-0.308,5.877-0.427,11.885-0.36,18.023h-11.307c-0.065-6.423,0.055-12.605,0.36-18.548c0.918-18.46,5.472-32.726,13.666-42.797
		c2.621-3.212,5.472-5.801,8.553-7.766C164.802,66.566,166.223,65.833,167.423,65.441"/>
	<path clip-path="url(#SVGID_4_)" fill-rule="evenodd" clip-rule="evenodd" fill="#304779" d="M207.004,68.599
		c0.741,0.49,1.548,1.031,2.418,1.623c4.467,3.039,9.048,6.574,13.745,10.603c4.696,4.029,11.35,1.22,19.961-8.427l6.251,6.941
		C236.163,93.66,226.218,98,219.541,92.359c-5.068-4.284-9.247-7.669-12.537-10.153V68.599z"/>
	<path clip-path="url(#SVGID_4_)" fill-rule="evenodd" clip-rule="evenodd" fill="#D9D1BD" d="M212.253,245.545l-0.098,8.094
		h-19.138v-7.635c0-1.115,0.403-2.076,1.213-2.885c0.808-0.809,1.769-1.213,2.883-1.213h11.077c0.131,1.049,0.589,1.912,1.376,2.59
		C210.309,245.195,211.205,245.545,212.253,245.545"/>
	<path clip-path="url(#SVGID_4_)" fill-rule="evenodd" clip-rule="evenodd" fill="#ECE5E1" d="M217.791,250.756v2.883h-12.714
		v-2.883c0-1.422,0.514-2.645,1.54-3.67c1.004-1.027,2.217-1.541,3.638-1.541h2.325c1.486,0,2.71,0.514,3.671,1.541
		C217.278,248.09,217.791,249.314,217.791,250.756"/>
	<path clip-path="url(#SVGID_4_)" fill-rule="evenodd" clip-rule="evenodd" fill="#ECE5E1" d="M196.753,247.117
		c0.982,0.982,1.475,2.197,1.475,3.639v2.883h-5.21v-7.635l0.065-0.459C194.524,245.588,195.748,246.113,196.753,247.117"/>
	<path clip-path="url(#SVGID_4_)" fill-rule="evenodd" clip-rule="evenodd" fill="#D9D1BD" d="M200.816,242.17v-0.918
		c0-0.656,0.24-1.213,0.722-1.672c0.458-0.502,1.016-0.754,1.671-0.754h2.589c0.677,0,1.245,0.252,1.704,0.754
		c0.459,0.459,0.688,1.016,0.688,1.672v0.918H200.816z"/>
	
		<rect x="193.018" y="250.953" clip-path="url(#SVGID_4_)" fill-rule="evenodd" clip-rule="evenodd" fill="#D9D1BD" width="25.526" height="2.686"/>
	<path clip-path="url(#SVGID_4_)" fill-rule="evenodd" clip-rule="evenodd" fill="#D9D1BD" d="M169.423,241.906h11.076
		c0.109,1.051,0.547,1.912,1.311,2.59c0.765,0.699,1.682,1.049,2.753,1.049l-0.099,8.094h-19.138v-7.635
		c0-1.137,0.404-2.098,1.213-2.885C167.281,242.311,168.243,241.906,169.423,241.906"/>
	<path clip-path="url(#SVGID_4_)" fill-rule="evenodd" clip-rule="evenodd" fill="#ECE5E1" d="M190.821,250.756v2.883h-12.747
		v-2.883c0-1.422,0.514-2.645,1.54-3.67c1.006-1.027,2.229-1.541,3.67-1.541h2.327c1.464,0,2.698,0.514,3.703,1.541
		C190.319,248.09,190.821,249.314,190.821,250.756"/>
	<path clip-path="url(#SVGID_4_)" fill-rule="evenodd" clip-rule="evenodd" fill="#ECE5E1" d="M165.359,245.545
		c1.441,0.043,2.665,0.568,3.671,1.572c1.005,0.984,1.507,2.195,1.507,3.637v2.885h-5.21v-7.635L165.359,245.545z"/>
	<path clip-path="url(#SVGID_4_)" fill-rule="evenodd" clip-rule="evenodd" fill="#D9D1BD" d="M173.093,242.17v-0.918
		c0-0.656,0.229-1.213,0.688-1.672c0.459-0.502,1.037-0.754,1.737-0.754h2.556c0.611,0,1.19,0.252,1.736,0.754
		c0.459,0.459,0.688,1.016,0.688,1.672v0.918H173.093z"/>
	
		<rect x="165.327" y="250.953" clip-path="url(#SVGID_4_)" fill-rule="evenodd" clip-rule="evenodd" fill="#D9D1BD" width="25.495" height="2.686"/>
	
		<line clip-path="url(#SVGID_4_)" fill="none" stroke="#050607" stroke-width="1.35" stroke-linecap="round" x1="176.763" y1="242.891" x2="180.401" y2="242.891"/>
	
		<line clip-path="url(#SVGID_4_)" fill="none" stroke="#050607" stroke-width="1.35" stroke-linecap="round" x1="178.074" y1="244.889" x2="181.712" y2="244.889"/>
	
		<line clip-path="url(#SVGID_4_)" fill="none" stroke="#050607" stroke-width="1.35" stroke-linecap="round" x1="204.814" y1="242.891" x2="208.452" y2="242.891"/>
	
		<line clip-path="url(#SVGID_4_)" fill="none" stroke="#050607" stroke-width="1.35" stroke-linecap="round" x1="206.125" y1="244.889" x2="209.729" y2="244.889"/>
	
		<path clip-path="url(#SVGID_4_)" fill="none" stroke="#009999" stroke-width="8.65" stroke-linecap="round" stroke-linejoin="round" stroke-miterlimit="3" d="
		M541.376,195.725h-55.878c-3.039,0-4.559,1.611-4.559,4.834v48.281c0,3.199,1.52,4.799,4.559,4.799h55.878
		c3.039,0,4.559-1.6,4.559-4.799v-48.281C545.935,197.336,544.415,195.725,541.376,195.725z"/>
	
		<polyline clip-path="url(#SVGID_4_)" fill="none" stroke="#006600" stroke-width="16.3" stroke-linecap="round" stroke-linejoin="round" stroke-miterlimit="3" points="
		496.204,221.211 513.713,243.279 531.188,208.26 	"/>
	<g clip-path="url(#SVGID_4_)">
		<path d="M506.573,166.732h-11.201v5.336h-4.129l-0.287-9.354h0.216c0.514,0,0.989-0.068,1.427-0.207
			c0.437-0.139,0.828-0.445,1.176-0.924c0.347-0.478,0.658-1.169,0.934-2.074c0.274-0.905,0.521-2.121,0.735-3.648
			c0.216-1.527,0.398-3.414,0.548-5.658c0.149-2.243,0.272-4.949,0.368-8.117h12.834v20.629h1.795l-0.287,9.354h-4.128V166.732z
			 M500.434,146.103c-0.096,2.05-0.197,3.835-0.305,5.355s-0.225,2.851-0.351,3.988c-0.125,1.138-0.263,2.105-0.412,2.903
			c-0.15,0.799-0.32,1.478-0.512,2.037s-0.401,1.021-0.629,1.386s-0.484,0.679-0.771,0.942h7.288v-16.612H500.434z"/>
		<path d="M525.098,166.732l-0.107-2.508c-0.384,0.427-0.784,0.82-1.203,1.178c-0.419,0.358-0.88,0.67-1.382,0.934
			c-0.503,0.264-1.051,0.469-1.643,0.613c-0.593,0.145-1.242,0.217-1.948,0.217c-0.933,0-1.753-0.145-2.459-0.434
			s-1.299-0.691-1.777-1.207s-0.841-1.138-1.086-1.867c-0.245-0.729-0.367-1.533-0.367-2.414c0-0.904,0.182-1.74,0.547-2.508
			c0.365-0.767,0.922-1.426,1.67-1.979c0.747-0.554,1.681-0.987,2.8-1.302c1.119-0.313,2.433-0.471,3.94-0.471h2.387v-1.15
			c0-0.49-0.065-0.934-0.197-1.33c-0.132-0.396-0.344-0.732-0.637-1.008c-0.294-0.277-0.674-0.49-1.14-0.642
			c-0.467-0.151-1.042-0.227-1.724-0.227c-1.077,0-2.14,0.13-3.187,0.387c-1.047,0.258-2.062,0.619-3.042,1.085v-3.678
			c0.873-0.364,1.882-0.666,3.024-0.905c1.143-0.238,2.33-0.358,3.563-0.358c1.352,0,2.513,0.135,3.482,0.406
			c0.969,0.27,1.768,0.676,2.396,1.216c0.629,0.54,1.093,1.216,1.392,2.026c0.299,0.812,0.449,1.758,0.449,2.838v13.088H525.098z
			 M524.469,158.266h-2.674c-0.742,0-1.371,0.075-1.885,0.227c-0.515,0.15-0.934,0.357-1.257,0.621
			c-0.323,0.265-0.56,0.569-0.709,0.915s-0.225,0.714-0.225,1.103c0,0.78,0.239,1.374,0.718,1.783
			c0.479,0.408,1.131,0.612,1.957,0.612c0.61,0,1.244-0.232,1.902-0.698c0.658-0.465,1.383-1.131,2.172-1.998V158.266z"/>
	</g>
	
		<rect x="278.078" y="22.978" clip-path="url(#SVGID_4_)" fill-rule="evenodd" clip-rule="evenodd" fill="#EBEBEC" width="181.933" height="200.893"/>
	
		<rect x="278.078" y="22.978" clip-path="url(#SVGID_4_)" fill="none" stroke="#DCDDDE" stroke-miterlimit="10" width="181.933" height="200.893"/>
	
		<rect x="278.078" y="208.951" clip-path="url(#SVGID_4_)" fill-rule="evenodd" clip-rule="evenodd" fill="#DADBDC" width="181.933" height="19.928"/>
	
		<rect x="278.078" y="208.951" clip-path="url(#SVGID_4_)" fill="none" stroke="#DCDDDE" stroke-miterlimit="10" width="181.933" height="19.928"/>
	<path clip-path="url(#SVGID_4_)" fill-rule="evenodd" clip-rule="evenodd" fill="#FFFFFF" d="M452.447,196.381
		c1.336,1.426,2.003,3.154,2.003,5.18c0,2.049-0.667,3.787-2.003,5.215c-1.358,1.449-2.981,2.176-4.87,2.176h-32.704
		c-1.888,0-3.511-0.727-4.87-2.176c-1.335-1.428-2.003-3.166-2.003-5.215c0-2.025,0.668-3.754,2.003-5.18
		c1.359-1.451,2.982-2.176,4.87-2.176h32.704C449.466,194.205,451.089,194.93,452.447,196.381"/>
	<path clip-path="url(#SVGID_4_)" fill="none" stroke="#DCDDDE" stroke-miterlimit="10" d="M452.447,196.381
		c1.336,1.426,2.003,3.154,2.003,5.18c0,2.049-0.667,3.787-2.003,5.215c-1.358,1.449-2.981,2.176-4.87,2.176h-32.704
		c-1.888,0-3.511-0.727-4.87-2.176c-1.335-1.428-2.003-3.166-2.003-5.215c0-2.025,0.668-3.754,2.003-5.18
		c1.359-1.451,2.982-2.176,4.87-2.176h32.704C449.466,194.205,451.089,194.93,452.447,196.381z"/>
	
		<rect x="278.078" y="228.879" clip-path="url(#SVGID_4_)" fill-rule="evenodd" clip-rule="evenodd" fill="#C9CACC" width="8.599" height="24.898"/>
	
		<rect x="451.411" y="228.879" clip-path="url(#SVGID_4_)" fill-rule="evenodd" clip-rule="evenodd" fill="#C9CACC" width="8.6" height="24.898"/>
	<polygon clip-path="url(#SVGID_4_)" fill-rule="evenodd" clip-rule="evenodd" fill="#34556C" points="367.075,207.57 
		323.389,207.777 323.354,206.016 367.075,205.809 	"/>
	<polygon clip-path="url(#SVGID_4_)" fill-rule="evenodd" clip-rule="evenodd" fill="#34556C" points="367.075,208.605 
		323.389,208.813 323.389,207.777 367.075,207.57 	"/>
	<polygon clip-path="url(#SVGID_4_)" fill-rule="evenodd" clip-rule="evenodd" fill="#231F20" points="369.839,205.773 
		369.839,207.535 367.075,208.605 367.041,204.738 	"/>
	<polygon clip-path="url(#SVGID_4_)" fill-rule="evenodd" clip-rule="evenodd" fill="#34556C" points="367.075,205.809 
		323.354,206.016 323.354,204.945 367.075,204.736 	"/>
	<path clip-path="url(#SVGID_4_)" fill-rule="evenodd" clip-rule="evenodd" fill="#34556C" d="M369.839,207.535v-1.762l1.416-0.068
		c0.943,0.068,1.462,0.391,1.554,0.967c0.093,0.574-0.38,0.896-1.416,0.967L369.839,207.535z"/>
	<path clip-path="url(#SVGID_4_)" fill-rule="evenodd" clip-rule="evenodd" fill="#009933" d="M297.522,172.48v-2.416
		c0.068-0.092,0.137-0.174,0.207-0.242l18.269-19.098c0.207-0.207,0.438-0.369,0.691-0.484c0.275-0.115,0.552-0.172,0.828-0.172
		h26.903l12.743-14.574c0.207-0.23,0.449-0.402,0.726-0.518c0.276-0.139,0.564-0.207,0.863-0.207h16.75l15.299-33.915
		c0.161-0.368,0.414-0.667,0.76-0.897s0.725-0.346,1.14-0.346h13.365l44.654-54.117c0.368-0.437,0.853-0.679,1.45-0.725
		c0.576-0.069,1.083,0.081,1.52,0.449c0.438,0.368,0.691,0.852,0.76,1.451c0.047,0.576-0.114,1.082-0.482,1.52l-45.277,54.876
		c-0.207,0.231-0.448,0.415-0.725,0.552c-0.275,0.139-0.575,0.208-0.898,0.208h-12.984l-15.3,33.914
		c-0.185,0.368-0.448,0.667-0.794,0.897s-0.726,0.346-1.14,0.346h-17.13l-12.777,14.574c-0.207,0.23-0.449,0.414-0.726,0.553
		c-0.276,0.115-0.563,0.172-0.863,0.172h-26.938l-17.648,18.441c-0.414,0.416-0.909,0.635-1.484,0.656
		c-0.575,0.023-1.07-0.172-1.485-0.586C297.683,172.701,297.591,172.598,297.522,172.48"/>
	<path clip-path="url(#SVGID_4_)" fill-rule="evenodd" clip-rule="evenodd" fill="#0099CC" d="M297.522,172.48v5.906h21.169
		l-0.138-2.037c-0.023-0.484,0.127-0.91,0.449-1.277c0.299-0.369,0.702-0.576,1.209-0.623c0.483-0.021,0.909,0.127,1.277,0.449
		c0.345,0.301,0.541,0.703,0.587,1.209l0.173,2.279h27.49v-2.176c0-0.482,0.173-0.898,0.518-1.242c0.346-0.346,0.76-0.52,1.243-0.52
		c0.484,0,0.898,0.174,1.243,0.52c0.346,0.344,0.519,0.76,0.519,1.242v2.176h25.833V175.9c0-0.484,0.172-0.898,0.518-1.244
		c0.346-0.344,0.76-0.518,1.243-0.518s0.897,0.174,1.243,0.518c0.346,0.346,0.518,0.76,0.518,1.244v2.486h27.664v-2.176
		c0-0.482,0.172-0.898,0.518-1.242c0.346-0.346,0.76-0.52,1.243-0.52s0.897,0.174,1.243,0.52c0.346,0.344,0.519,0.76,0.519,1.242
		v2.176h29.977l-0.173-2.625c-0.022-0.482,0.127-0.908,0.449-1.277c0.299-0.367,0.69-0.576,1.174-0.621
		c0.483-0.023,0.909,0.127,1.277,0.449c0.369,0.299,0.576,0.689,0.622,1.174l0.207,2.9h5.596c0.482,0,0.897,0.172,1.243,0.518
		c0.345,0.346,0.518,0.76,0.518,1.244c0,0.482-0.173,0.898-0.518,1.242c-0.346,0.346-0.761,0.52-1.243,0.52h-7.115h-0.138H320.729
		h-0.276h-22.931v8.84c0,0.484-0.173,0.898-0.519,1.244s-0.76,0.518-1.244,0.518c-0.482,0-0.897-0.172-1.243-0.518
		c-0.345-0.346-0.518-0.76-0.518-1.244v-8.84h-8.841c-0.483,0-0.897-0.174-1.243-0.52c-0.346-0.344-0.519-0.76-0.519-1.242
		c0-0.484,0.173-0.898,0.519-1.244s0.76-0.518,1.243-0.518h8.841V43.285c0-0.483,0.173-0.898,0.518-1.243
		c0.346-0.346,0.761-0.518,1.243-0.518c0.484,0,0.898,0.172,1.244,0.518c0.346,0.345,0.519,0.76,0.519,1.243v3.971h2.797
		c0.483,0,0.897,0.173,1.243,0.518c0.345,0.346,0.518,0.76,0.518,1.244s-0.173,0.898-0.518,1.243
		c-0.346,0.345-0.76,0.518-1.243,0.518h-2.797V69.98h2.797c0.483,0,0.897,0.173,1.243,0.518c0.345,0.346,0.518,0.76,0.518,1.243
		c0,0.484-0.173,0.898-0.518,1.244c-0.346,0.345-0.76,0.518-1.243,0.518h-2.797v17.993h3.384c0.483,0,0.897,0.173,1.243,0.518
		c0.345,0.345,0.518,0.76,0.518,1.243s-0.173,0.898-0.518,1.243c-0.346,0.346-0.76,0.518-1.243,0.518h-3.384v23.415h2.175
		c0.483,0,0.897,0.173,1.243,0.518s0.518,0.76,0.518,1.243c0,0.484-0.172,0.898-0.518,1.244c-0.346,0.345-0.76,0.518-1.243,0.518
		h-2.175v26.764h4.006c0.483,0,0.897,0.174,1.242,0.519c0.346,0.345,0.519,0.76,0.519,1.243c0,0.484-0.173,0.898-0.519,1.244
		c-0.345,0.345-0.759,0.518-1.242,0.518h-4.006v17.82V172.48z"/>
</g>
<g>
	<g>
		<g>
			<path fill="#010101" d="M519.211,23.066v9.542l5.225-9.542h1.633v12.622h-1.72v-9.533l-5.215,9.532h-1.643V23.066H519.211z"/>
			<path fill="#010101" d="M536.296,35.33c-0.438,0.168-0.888,0.293-1.348,0.372c-0.461,0.08-0.936,0.121-1.425,0.121
				c-1.532,0-2.713-0.416-3.54-1.246c-0.827-0.831-1.239-2.044-1.239-3.641c0-0.767,0.117-1.462,0.355-2.087
				c0.238-0.624,0.573-1.158,1.005-1.604c0.433-0.445,0.946-0.787,1.545-1.027c0.6-0.242,1.259-0.362,1.98-0.362
				c0.502,0,0.972,0.035,1.409,0.106c0.438,0.069,0.855,0.187,1.256,0.348v1.604c-0.419-0.22-0.846-0.379-1.279-0.479
				s-0.884-0.15-1.348-0.15c-0.433,0-0.84,0.082-1.223,0.247c-0.383,0.164-0.72,0.4-1.009,0.709c-0.29,0.31-0.519,0.687-0.686,1.132
				c-0.168,0.442-0.252,0.945-0.252,1.506c0,1.172,0.284,2.049,0.854,2.631c0.569,0.584,1.359,0.875,2.371,0.875
				c0.457,0,0.899-0.053,1.327-0.154c0.429-0.104,0.842-0.258,1.241-0.464v1.563H536.296z"/>
			<path fill="#010101" d="M548.377,35.688h-2.23l-2.617-3.698l-2.589,3.698h-2.173l3.757-4.867l-3.583-4.829h2.154l2.549,3.729
				l2.502-3.729h2.076l-3.641,4.868L548.377,35.688z"/>
			<path fill="#010101" d="M558.952,30.763c0,0.753-0.105,1.443-0.318,2.07c-0.212,0.629-0.519,1.166-0.917,1.612
				c-0.399,0.448-0.886,0.796-1.458,1.044c-0.573,0.247-1.225,0.371-1.951,0.371c-0.695,0-1.318-0.107-1.869-0.322
				c-0.55-0.217-1.018-0.533-1.399-0.951c-0.384-0.42-0.677-0.938-0.88-1.556c-0.202-0.618-0.304-1.33-0.304-2.135
				c0-0.753,0.106-1.44,0.318-2.062c0.213-0.623,0.519-1.156,0.918-1.604c0.397-0.447,0.885-0.795,1.458-1.043
				s1.224-0.372,1.951-0.372c0.694,0,1.317,0.107,1.867,0.322c0.552,0.217,1.019,0.531,1.4,0.947
				c0.383,0.416,0.677,0.933,0.879,1.551C558.851,29.255,558.952,29.964,558.952,30.763z M557.232,30.839
				c0-0.599-0.064-1.121-0.197-1.568s-0.319-0.821-0.564-1.12c-0.245-0.3-0.542-0.524-0.895-0.677
				c-0.351-0.151-0.741-0.227-1.173-0.227c-0.502,0-0.933,0.098-1.289,0.293c-0.356,0.197-0.649,0.459-0.879,0.787
				c-0.229,0.329-0.396,0.711-0.503,1.146c-0.104,0.435-0.159,0.891-0.159,1.366c0,0.6,0.066,1.123,0.198,1.574
				c0.132,0.45,0.32,0.825,0.564,1.125c0.245,0.299,0.541,0.524,0.889,0.676c0.348,0.152,0.74,0.229,1.179,0.229
				c0.502,0,0.933-0.1,1.289-0.295c0.357-0.196,0.65-0.459,0.879-0.787c0.229-0.328,0.396-0.71,0.502-1.145
				C557.18,31.781,557.232,31.322,557.232,30.839z"/>
			<path fill="#010101" d="M570.387,34.239l-0.105,3.921h-1.535v-2.473h-7.069v2.473h-1.518l-0.097-3.921h0.136
				c0.244,0,0.478-0.039,0.695-0.116c0.218-0.076,0.422-0.224,0.608-0.438c0.186-0.216,0.357-0.515,0.517-0.898
				c0.158-0.383,0.3-0.878,0.425-1.487c0.126-0.607,0.235-1.347,0.328-2.215c0.094-0.869,0.173-1.899,0.237-3.092h5.987v8.248
				L570.387,34.239L570.387,34.239z M567.314,27.441h-2.704c-0.063,1.107-0.146,2.051-0.251,2.829
				c-0.103,0.778-0.224,1.433-0.361,1.961c-0.139,0.526-0.299,0.948-0.479,1.265c-0.181,0.315-0.38,0.563-0.599,0.744h4.394V27.441z
				"/>
			<path fill="#010101" d="M572.868,32.886c0.214-0.449,0.446-0.791,0.7-1.022c0.255-0.231,0.575-0.387,0.961-0.464
				c-0.404-0.077-0.739-0.202-1.004-0.376s-0.475-0.375-0.633-0.604c-0.158-0.229-0.268-0.472-0.328-0.729
				c-0.062-0.258-0.092-0.512-0.092-0.764c0-0.426,0.07-0.823,0.212-1.197c0.142-0.373,0.371-0.698,0.687-0.977
				c0.315-0.275,0.729-0.494,1.24-0.655c0.514-0.161,1.244-0.241,2.197-0.241c0.534,0,1.063,0.018,1.584,0.053
				s1.033,0.079,1.536,0.131v9.647h-1.681v-3.757h-1.459c-0.226,0-0.455,0.021-0.69,0.063c-0.234,0.041-0.448,0.119-0.642,0.231
				c-0.194,0.112-0.369,0.259-0.526,0.438c-0.158,0.18-0.298,0.409-0.42,0.687l-1.063,2.337h-1.902L572.868,32.886z M574.191,28.908
				c0,0.555,0.188,0.969,0.565,1.246c0.376,0.275,0.935,0.415,1.676,0.415h1.815v-3.245c-0.277-0.025-0.545-0.045-0.803-0.058
				c-0.258-0.015-0.527-0.021-0.812-0.021c-0.554,0-0.977,0.037-1.266,0.111c-0.29,0.072-0.519,0.18-0.686,0.318
				c-0.168,0.139-0.292,0.308-0.372,0.507C574.231,28.384,574.191,28.625,574.191,28.908z"/>
		</g>
		<g>
			<path fill="#010101" d="M595.833,25.991v6.828l4.229-6.828h1.604v9.696h-1.682v-6.828l-4.229,6.828h-1.604v-9.696H595.833z"/>
			<path fill="#010101" d="M604.631,33.949c0.283,0.077,0.586,0.145,0.908,0.203c0.321,0.059,0.641,0.109,0.955,0.154
				c0.315,0.045,0.619,0.078,0.913,0.102c0.292,0.021,0.556,0.034,0.787,0.034c0.547,0,1.002-0.036,1.366-0.106
				c0.363-0.07,0.653-0.172,0.869-0.305c0.216-0.132,0.368-0.293,0.459-0.482c0.09-0.189,0.135-0.403,0.135-0.643
				c0-0.23-0.04-0.441-0.12-0.633c-0.081-0.189-0.226-0.355-0.436-0.497c-0.209-0.142-0.494-0.251-0.854-0.328
				c-0.359-0.077-0.819-0.116-1.381-0.116h-2.376v-1.304h2.366c0.489,0,0.891-0.032,1.202-0.097c0.313-0.064,0.559-0.157,0.739-0.28
				c0.18-0.122,0.303-0.271,0.367-0.444c0.063-0.173,0.097-0.373,0.097-0.599c0-0.22-0.041-0.413-0.121-0.584
				s-0.214-0.315-0.4-0.435c-0.188-0.119-0.435-0.211-0.744-0.275c-0.309-0.064-0.691-0.098-1.148-0.098
				c-0.502,0-1.053,0.035-1.651,0.106c-0.598,0.071-1.197,0.175-1.796,0.31v-1.42c0.264-0.059,0.549-0.112,0.854-0.164
				c0.306-0.051,0.615-0.094,0.932-0.125c0.316-0.032,0.63-0.059,0.942-0.078c0.312-0.02,0.608-0.028,0.893-0.028
				c0.76,0,1.396,0.063,1.903,0.188s0.917,0.301,1.227,0.525c0.31,0.227,0.527,0.492,0.656,0.803
				c0.129,0.309,0.193,0.646,0.193,1.014c0,0.271-0.039,0.525-0.116,0.768s-0.196,0.459-0.357,0.652s-0.365,0.357-0.612,0.492
				c-0.248,0.136-0.547,0.231-0.895,0.289c0.348,0.053,0.67,0.138,0.966,0.256c0.297,0.119,0.554,0.277,0.77,0.475
				c0.215,0.196,0.386,0.43,0.512,0.7c0.125,0.271,0.188,0.579,0.188,0.927c0,0.426-0.082,0.819-0.247,1.184
				c-0.164,0.363-0.434,0.677-0.807,0.938c-0.374,0.262-0.866,0.465-1.478,0.613c-0.612,0.146-1.362,0.222-2.251,0.222
				c-0.238,0-0.5-0.008-0.787-0.022c-0.286-0.018-0.582-0.039-0.89-0.068c-0.306-0.028-0.605-0.064-0.901-0.105
				c-0.297-0.041-0.573-0.092-0.831-0.149V33.949L604.631,33.949z"/>
		</g>
		<g>
			<path fill="#010101" d="M632.938,30.085c-0.045-0.457-0.156-0.882-0.333-1.273c-0.177-0.393-0.412-0.708-0.705-0.946
				c-0.293-0.237-0.647-0.409-1.066-0.512c-0.418-0.104-0.862-0.155-1.332-0.155c-0.521,0-1.024,0.053-1.508,0.155
				c-0.482,0.103-0.942,0.257-1.381,0.463v-1.506c0.478-0.168,0.972-0.292,1.482-0.372c0.512-0.081,1.038-0.121,1.579-0.121
				c0.837,0,1.571,0.109,2.206,0.328c0.635,0.22,1.162,0.54,1.584,0.961c0.422,0.422,0.738,0.939,0.951,1.557
				c0.213,0.613,0.318,1.32,0.318,2.118c0,0.831-0.111,1.563-0.333,2.202c-0.223,0.639-0.556,1.172-1,1.604
				c-0.444,0.433-0.985,0.752-1.622,0.961c-0.638,0.209-1.365,0.313-2.183,0.313c-0.567,0-1.097-0.035-1.589-0.106
				c-0.493-0.069-0.958-0.187-1.396-0.348v-1.555c0.457,0.219,0.93,0.379,1.415,0.479c0.485,0.101,0.983,0.149,1.491,0.149
				c1.114,0,1.951-0.261,2.512-0.782s0.875-1.281,0.946-2.279h-5.795v-1.332h5.758V30.085z"/>
			<path fill="#010101" d="M645.948,27.441h-3.68v8.247h-1.699v-8.247h-3.68v-1.449h9.059V27.441L645.948,27.441z"/>
			<path fill="#010101" d="M650.218,25.991v6.828l4.229-6.828h1.604v9.696h-1.682v-6.828l-4.229,6.828h-1.604v-9.696H650.218z"/>
			<path fill="#010101" d="M668.017,35.688h-2.229l-2.617-3.698l-2.589,3.698h-2.174l3.758-4.867l-3.583-4.829h2.153l2.55,3.729
				l2.502-3.729h2.075l-3.641,4.868L668.017,35.688z"/>
		</g>
		<g>
			<path fill="#010101" d="M526.981,52.551l-0.105,3.921h-1.536v-2.473h-7.068v2.473h-1.518l-0.097-3.921h0.136
				c0.244,0,0.478-0.039,0.695-0.116c0.218-0.076,0.422-0.224,0.607-0.438c0.187-0.216,0.358-0.515,0.518-0.898
				c0.158-0.383,0.3-0.878,0.425-1.487c0.126-0.607,0.235-1.347,0.328-2.215c0.094-0.869,0.173-1.899,0.237-3.092h5.986v8.248
				L526.981,52.551L526.981,52.551z M523.909,45.753h-2.704c-0.063,1.107-0.146,2.051-0.251,2.829
				c-0.103,0.778-0.224,1.433-0.362,1.961c-0.138,0.526-0.298,0.948-0.478,1.265c-0.181,0.315-0.38,0.563-0.599,0.744h4.394V45.753z
				"/>
			<path fill="#010101" d="M535.084,54l-0.039-1.304c-0.526,0.521-1.063,0.897-1.606,1.129c-0.544,0.232-1.115,0.349-1.716,0.349
				c-0.554,0-1.025-0.069-1.419-0.212c-0.393-0.143-0.717-0.337-0.971-0.585c-0.255-0.247-0.44-0.539-0.561-0.874
				c-0.119-0.334-0.18-0.698-0.18-1.091c0-0.974,0.362-1.733,1.087-2.284c0.726-0.551,1.795-0.826,3.211-0.826h2.01v-0.85
				c0-0.573-0.185-1.031-0.552-1.377c-0.365-0.344-0.927-0.516-1.68-0.516c-0.548,0-1.087,0.062-1.618,0.184
				c-0.53,0.121-1.08,0.296-1.646,0.521v-1.517c0.213-0.077,0.449-0.152,0.71-0.227c0.261-0.076,0.536-0.142,0.825-0.199
				c0.29-0.058,0.593-0.104,0.907-0.14c0.315-0.036,0.635-0.054,0.956-0.054c0.587,0,1.114,0.064,1.584,0.193
				c0.471,0.129,0.867,0.324,1.192,0.589s0.575,0.596,0.749,0.995c0.174,0.398,0.261,0.869,0.261,1.41v6.683h-1.506V54z
				 M534.901,49.587h-2.134c-0.419,0-0.779,0.042-1.082,0.125c-0.304,0.084-0.552,0.203-0.744,0.357
				c-0.192,0.153-0.336,0.34-0.43,0.556s-0.141,0.459-0.141,0.729c0,0.187,0.029,0.364,0.087,0.534
				c0.059,0.171,0.151,0.322,0.28,0.454c0.129,0.133,0.296,0.236,0.502,0.314c0.206,0.076,0.457,0.115,0.753,0.115
				c0.387,0,0.829-0.117,1.328-0.354c0.499-0.234,1.025-0.605,1.579-1.115L534.901,49.587L534.901,49.587z"/>
			<path fill="#010101" d="M547.523,54h-1.682v-4.288h-4.433V54h-1.681v-9.696h1.681v3.94h4.433v-3.94h1.682V54z"/>
			<path fill="#010101" d="M558.398,54h-1.682v-4.288h-4.433V54h-1.681v-9.696h1.681v3.94h4.433v-3.94h1.682V54z"/>
			<path fill="#010101" d="M562.386,48.05c0.231-0.006,0.449-0.011,0.651-0.015c0.203-0.003,0.414-0.005,0.633-0.005
				c0.605,0,1.135,0.072,1.589,0.218s0.832,0.348,1.136,0.608c0.303,0.26,0.527,0.572,0.676,0.937
				c0.147,0.364,0.223,0.759,0.223,1.185c0,0.514-0.087,0.967-0.261,1.355s-0.422,0.717-0.744,0.98
				c-0.321,0.265-0.716,0.463-1.183,0.599s-1.022,0.202-1.666,0.202c-0.412,0-0.85-0.012-1.31-0.033
				c-0.461-0.021-0.929-0.069-1.404-0.141v-9.639h1.66V48.05z M565.555,51.024c0-0.508-0.159-0.901-0.479-1.183
				c-0.318-0.28-0.825-0.42-1.521-0.42c-0.188,0-0.378,0.003-0.57,0.01c-0.193,0.007-0.394,0.017-0.6,0.028v3.188
				c0.206,0.032,0.402,0.053,0.59,0.063c0.187,0.01,0.373,0.015,0.561,0.015c0.393,0,0.718-0.047,0.976-0.141
				s0.462-0.217,0.613-0.371c0.15-0.154,0.261-0.335,0.328-0.541S565.555,51.251,565.555,51.024z M568.355,54v-9.696h1.661V54
				H568.355z"/>
			<path fill="#010101" d="M581.093,54h-2.229l-2.617-3.698L573.657,54h-2.173l3.757-4.867l-3.583-4.829h2.154l2.549,3.729
				l2.502-3.729h2.076l-3.642,4.868L581.093,54z"/>
		</g>
		<g>
			<path fill="#010101" d="M583.985,55.979c0.328,0.014,0.646-0.017,0.956-0.086c0.309-0.072,0.581-0.177,0.814-0.314
				c0.235-0.139,0.424-0.311,0.565-0.518c0.141-0.205,0.213-0.44,0.213-0.705c0-0.271-0.047-0.488-0.141-0.656
				c-0.095-0.168-0.198-0.321-0.313-0.463c-0.116-0.143-0.221-0.293-0.313-0.455c-0.094-0.16-0.141-0.377-0.141-0.646
				c0-0.136,0.025-0.276,0.077-0.426c0.052-0.147,0.131-0.283,0.236-0.405c0.105-0.121,0.242-0.222,0.406-0.299
				c0.163-0.078,0.357-0.116,0.584-0.116c0.226,0,0.441,0.048,0.651,0.14c0.209,0.095,0.394,0.238,0.55,0.431
				c0.158,0.192,0.283,0.435,0.377,0.726c0.094,0.289,0.141,0.631,0.141,1.022c0,0.535-0.099,1.048-0.294,1.541
				c-0.196,0.491-0.489,0.929-0.879,1.31c-0.391,0.379-0.876,0.682-1.459,0.906c-0.582,0.227-1.261,0.338-2.032,0.338
				L583.985,55.979L583.985,55.979z"/>
		</g>
		<g>
			<path fill="#010101" d="M602.903,54.078h-1.661l-0.251-6.055l-0.105-2.154l-0.569,1.506l-1.815,4.404h-1.228l-1.748-4.229
				l-0.607-1.682l-0.077,2.279l-0.261,5.93h-1.604l0.618-9.695h2.229l1.661,4.182l0.454,1.246l0.454-1.246l1.699-4.182h2.202
				L602.903,54.078z"/>
			<path fill="#010101" d="M613.363,49.152c0,0.754-0.105,1.443-0.318,2.072c-0.212,0.627-0.519,1.164-0.917,1.611
				c-0.399,0.447-0.886,0.797-1.458,1.043c-0.573,0.248-1.225,0.371-1.951,0.371c-0.695,0-1.318-0.105-1.869-0.322
				c-0.55-0.217-1.018-0.533-1.4-0.951s-0.676-0.938-0.879-1.555c-0.201-0.617-0.304-1.33-0.304-2.135
				c0-0.754,0.106-1.439,0.318-2.063c0.213-0.621,0.519-1.156,0.918-1.604c0.397-0.447,0.885-0.795,1.458-1.043
				c0.572-0.248,1.224-0.373,1.951-0.373c0.694,0,1.317,0.109,1.867,0.324c0.552,0.215,1.019,0.531,1.4,0.947
				c0.383,0.414,0.677,0.932,0.879,1.549C613.263,47.646,613.363,48.354,613.363,49.152z M611.644,49.23
				c0-0.6-0.065-1.123-0.197-1.57c-0.133-0.445-0.319-0.82-0.564-1.119c-0.245-0.301-0.542-0.525-0.895-0.678
				c-0.351-0.15-0.741-0.227-1.173-0.227c-0.502,0-0.933,0.098-1.289,0.295c-0.356,0.195-0.649,0.459-0.879,0.787
				c-0.229,0.328-0.396,0.709-0.503,1.145c-0.104,0.436-0.159,0.891-0.159,1.367c0,0.598,0.066,1.123,0.198,1.574
				c0.132,0.449,0.32,0.824,0.564,1.125c0.244,0.299,0.54,0.523,0.889,0.676c0.348,0.152,0.74,0.227,1.179,0.227
				c0.502,0,0.933-0.098,1.289-0.295c0.357-0.195,0.65-0.459,0.879-0.787c0.229-0.326,0.396-0.709,0.502-1.145
				C611.591,50.17,611.644,49.713,611.644,49.23z"/>
			<path fill="#010101" d="M614.309,44.383h1.661l2.946,4.674v-4.674h1.545v4.674l2.944-4.674h1.661l-3.119,4.674l3.196,5.021
				h-1.835l-2.849-4.926v4.926h-1.545v-4.926l-2.851,4.926h-1.835l3.207-5.021L614.309,44.383z"/>
			<path fill="#010101" d="M634.466,54.078h-1.682v-4.289h-4.433v4.289h-1.681v-9.695h1.681v3.939h4.433v-3.939h1.682V54.078z"/>
			<path fill="#010101" d="M645.986,49.152c0,0.754-0.105,1.443-0.318,2.072c-0.212,0.627-0.519,1.164-0.917,1.611
				c-0.399,0.447-0.887,0.797-1.458,1.043c-0.573,0.248-1.225,0.371-1.951,0.371c-0.695,0-1.318-0.105-1.869-0.322
				c-0.55-0.217-1.018-0.533-1.4-0.951s-0.676-0.938-0.879-1.555c-0.202-0.617-0.304-1.33-0.304-2.135
				c0-0.754,0.106-1.439,0.318-2.063c0.213-0.621,0.519-1.156,0.918-1.604c0.397-0.447,0.885-0.795,1.458-1.043
				c0.572-0.248,1.224-0.373,1.95-0.373c0.695,0,1.318,0.109,1.868,0.324c0.551,0.215,1.019,0.531,1.4,0.947
				c0.383,0.414,0.677,0.932,0.879,1.549C645.886,47.646,645.986,48.354,645.986,49.152z M644.267,49.23
				c0-0.6-0.065-1.123-0.197-1.57c-0.133-0.445-0.319-0.82-0.564-1.119c-0.245-0.301-0.542-0.525-0.895-0.678
				c-0.351-0.15-0.741-0.227-1.173-0.227c-0.502,0-0.933,0.098-1.289,0.295c-0.356,0.195-0.649,0.459-0.879,0.787
				c-0.229,0.328-0.396,0.709-0.503,1.145c-0.104,0.436-0.159,0.891-0.159,1.367c0,0.598,0.066,1.123,0.198,1.574
				c0.132,0.449,0.32,0.824,0.564,1.125c0.244,0.299,0.541,0.523,0.889,0.676s0.74,0.227,1.179,0.227
				c0.502,0,0.933-0.098,1.289-0.295c0.357-0.195,0.65-0.459,0.879-0.787c0.229-0.326,0.396-0.709,0.502-1.145
				C644.214,50.17,644.267,49.713,644.267,49.23z"/>
		</g>
		<g>
			<path fill="#010101" d="M660.833,53.721c-0.438,0.168-0.888,0.293-1.348,0.373c-0.461,0.08-0.936,0.119-1.425,0.119
				c-1.532,0-2.713-0.414-3.54-1.244c-0.827-0.832-1.24-2.045-1.24-3.643c0-0.766,0.118-1.461,0.356-2.086s0.573-1.158,1.005-1.604
				c0.433-0.445,0.946-0.787,1.545-1.027c0.6-0.242,1.259-0.363,1.98-0.363c0.502,0,0.972,0.035,1.409,0.107
				c0.438,0.07,0.855,0.186,1.256,0.348v1.604c-0.419-0.221-0.846-0.379-1.279-0.479s-0.884-0.15-1.348-0.15
				c-0.433,0-0.84,0.082-1.223,0.248c-0.383,0.162-0.72,0.398-1.009,0.709c-0.29,0.309-0.519,0.686-0.686,1.131
				c-0.168,0.441-0.252,0.945-0.252,1.506c0,1.172,0.284,2.049,0.854,2.631c0.569,0.584,1.359,0.875,2.371,0.875
				c0.457,0,0.898-0.053,1.327-0.154c0.429-0.104,0.842-0.258,1.241-0.465v1.564H660.833z"/>
			<path fill="#010101" d="M673.176,52.629l-0.105,3.922h-1.535v-2.473h-7.069v2.473h-1.518l-0.097-3.922h0.136
				c0.244,0,0.478-0.037,0.695-0.115c0.218-0.076,0.422-0.225,0.608-0.439c0.186-0.215,0.357-0.514,0.517-0.896
				c0.158-0.385,0.3-0.879,0.425-1.488c0.126-0.607,0.235-1.346,0.328-2.215c0.094-0.869,0.173-1.9,0.237-3.092h5.987v8.248h1.391
				V52.629z M670.104,45.83h-2.704c-0.063,1.107-0.146,2.053-0.251,2.83c-0.103,0.779-0.224,1.434-0.361,1.961
				c-0.139,0.527-0.299,0.949-0.479,1.266c-0.181,0.314-0.38,0.563-0.599,0.742h4.394V45.83z"/>
			<path fill="#010101" d="M683.238,48.719c0,0.238-0.004,0.438-0.01,0.6c-0.007,0.16-0.017,0.313-0.029,0.453h-6.809
				c0,0.992,0.276,1.752,0.83,2.283s1.353,0.797,2.396,0.797c0.283,0,0.566-0.01,0.851-0.033c0.284-0.021,0.558-0.053,0.82-0.092
				c0.265-0.039,0.518-0.082,0.759-0.131c0.241-0.047,0.465-0.102,0.672-0.158v1.381c-0.458,0.129-0.976,0.232-1.551,0.314
				c-0.576,0.078-1.174,0.119-1.791,0.119c-0.831,0-1.547-0.111-2.146-0.338s-1.09-0.553-1.473-0.98s-0.666-0.951-0.851-1.574
				c-0.184-0.621-0.274-1.324-0.274-2.109c0-0.682,0.099-1.326,0.295-1.936c0.195-0.609,0.481-1.145,0.858-1.605
				c0.377-0.459,0.839-0.824,1.387-1.096c0.547-0.27,1.169-0.406,1.863-0.406c0.677,0,1.274,0.107,1.796,0.32
				c0.521,0.211,0.962,0.512,1.318,0.902c0.357,0.389,0.628,0.861,0.813,1.42C683.146,47.406,683.238,48.029,683.238,48.719z
				 M681.49,48.477c0.02-0.432-0.022-0.826-0.126-1.184c-0.103-0.357-0.263-0.666-0.478-0.924c-0.216-0.256-0.485-0.457-0.807-0.604
				c-0.322-0.145-0.695-0.217-1.12-0.217c-0.367,0-0.702,0.07-1.005,0.213c-0.304,0.141-0.563,0.342-0.782,0.6
				c-0.219,0.256-0.396,0.566-0.531,0.926c-0.135,0.361-0.219,0.758-0.251,1.189H681.49z"/>
			<path fill="#010101" d="M693.631,54.078h-1.682V45.83h-2.703c-0.077,1.326-0.191,2.463-0.344,3.41
				c-0.15,0.945-0.333,1.736-0.546,2.369c-0.212,0.635-0.453,1.135-0.724,1.498c-0.271,0.363-0.563,0.627-0.874,0.791
				c-0.313,0.164-0.644,0.246-0.99,0.242c-0.348-0.004-0.705-0.051-1.072-0.141l0.077-1.391c0.258,0.025,0.499,0.012,0.725-0.039
				c0.227-0.051,0.436-0.176,0.629-0.371c0.192-0.197,0.367-0.479,0.525-0.852c0.157-0.369,0.301-0.863,0.43-1.482
				c0.13-0.617,0.24-1.375,0.334-2.273c0.094-0.896,0.169-1.969,0.228-3.211h5.987V54.078L693.631,54.078z"/>
			<path fill="#010101" d="M703.026,54.078l-0.039-1.305c-0.526,0.521-1.063,0.898-1.606,1.131s-1.115,0.348-1.715,0.348
				c-0.555,0-1.026-0.07-1.419-0.213c-0.394-0.141-0.718-0.336-0.972-0.584c-0.255-0.248-0.44-0.539-0.561-0.875
				c-0.119-0.334-0.18-0.697-0.18-1.09c0-0.973,0.362-1.732,1.088-2.285c0.725-0.551,1.795-0.826,3.211-0.826h2.009v-0.85
				c0-0.572-0.185-1.031-0.551-1.375c-0.366-0.346-0.928-0.518-1.681-0.518c-0.548,0-1.087,0.063-1.618,0.184
				c-0.53,0.123-1.079,0.297-1.646,0.521v-1.518c0.213-0.076,0.449-0.15,0.71-0.227c0.261-0.074,0.536-0.141,0.825-0.197
				c0.29-0.059,0.593-0.105,0.908-0.141c0.314-0.035,0.634-0.055,0.956-0.055c0.586,0,1.113,0.064,1.584,0.193
				c0.47,0.129,0.866,0.326,1.191,0.59s0.575,0.596,0.749,0.994c0.174,0.4,0.261,0.869,0.261,1.41v6.684h-1.506V54.078z
				 M702.844,49.664h-2.134c-0.419,0-0.779,0.043-1.082,0.125c-0.304,0.084-0.552,0.203-0.744,0.357s-0.336,0.34-0.43,0.557
				c-0.094,0.215-0.141,0.459-0.141,0.729c0,0.188,0.029,0.365,0.087,0.535c0.059,0.172,0.151,0.322,0.28,0.453
				c0.129,0.133,0.296,0.236,0.502,0.314s0.457,0.115,0.753,0.115c0.387,0,0.829-0.117,1.328-0.354
				c0.499-0.232,1.025-0.605,1.579-1.113L702.844,49.664L702.844,49.664z"/>
			<path fill="#010101" d="M716.095,45.83h-3.68v8.248h-1.699V45.83h-3.68v-1.447h9.059V45.83L716.095,45.83z"/>
			<path fill="#010101" d="M720.285,48.041c0.16-0.006,0.321-0.01,0.482-0.014s0.325-0.006,0.492-0.01
				c0.168-0.004,0.345-0.006,0.531-0.01s0.39-0.006,0.607-0.006c1.494,0,2.604,0.258,3.327,0.77s1.087,1.26,1.087,2.244
				c0,1.057-0.384,1.85-1.148,2.381c-0.768,0.531-1.927,0.797-3.478,0.797c-0.702,0-1.338-0.014-1.908-0.043
				c-0.568-0.029-1.128-0.078-1.675-0.15v-9.617h1.68v3.658H720.285z M725.075,51.057c0-0.271-0.051-0.508-0.149-0.711
				c-0.1-0.203-0.259-0.373-0.479-0.512c-0.219-0.139-0.502-0.242-0.85-0.314c-0.349-0.07-0.768-0.105-1.256-0.105
				c-0.311,0-0.647,0.004-1.016,0.012c-0.365,0.006-0.714,0.016-1.043,0.027v3.234c0.329,0.033,0.646,0.057,0.952,0.072
				c0.307,0.018,0.643,0.023,1.009,0.023c0.541,0,0.991-0.033,1.354-0.102c0.36-0.066,0.648-0.17,0.869-0.309
				c0.219-0.139,0.375-0.316,0.468-0.537C725.028,51.619,725.075,51.357,725.075,51.057z"/>
		</g>
		<g>
			<path fill="#010101" d="M526.79,72.753c0,0.445-0.094,0.852-0.279,1.219c-0.187,0.365-0.478,0.68-0.869,0.939
				c-0.393,0.26-0.891,0.465-1.492,0.609c-0.603,0.145-1.318,0.217-2.148,0.217c-0.548,0-1.13-0.021-1.748-0.064
				c-0.617-0.041-1.214-0.098-1.787-0.168v-9.57c0.605-0.07,1.22-0.125,1.841-0.164s1.293-0.059,2.014-0.059
				c1.308,0,2.3,0.213,2.979,0.643c0.68,0.428,1.019,1.045,1.019,1.85c0,0.547-0.157,1.018-0.473,1.41s-0.792,0.682-1.431,0.869
				c0.311,0.051,0.607,0.137,0.895,0.256s0.539,0.273,0.758,0.463c0.219,0.191,0.395,0.414,0.525,0.672
				C526.725,72.132,526.79,72.425,526.79,72.753z M524.599,68.542c0-0.225-0.045-0.428-0.136-0.607
				c-0.091-0.182-0.232-0.334-0.43-0.463c-0.197-0.131-0.454-0.229-0.772-0.297c-0.318-0.066-0.703-0.1-1.153-0.1
				c-0.406,0-0.76,0.008-1.063,0.023c-0.303,0.016-0.603,0.043-0.897,0.082v2.801h1.951
				C523.765,69.981,524.599,69.501,524.599,68.542z M525.014,72.792c0-0.502-0.228-0.881-0.682-1.135s-1.159-0.381-2.12-0.381
				h-2.065v2.965c0.314,0.051,0.628,0.086,0.937,0.105c0.311,0.02,0.663,0.027,1.063,0.027c0.573,0,1.045-0.037,1.415-0.115
				c0.37-0.076,0.663-0.188,0.879-0.328s0.365-0.309,0.449-0.502C524.972,73.235,525.014,73.024,525.014,72.792z"/>
			<path fill="#010101" d="M530.248,69.634c0.231-0.006,0.449-0.012,0.651-0.016c0.203-0.002,0.414-0.004,0.633-0.004
				c0.605,0,1.135,0.072,1.589,0.217c0.454,0.146,0.832,0.35,1.136,0.609c0.303,0.26,0.527,0.572,0.676,0.936
				c0.147,0.365,0.223,0.76,0.223,1.186c0,0.514-0.087,0.967-0.261,1.355s-0.422,0.717-0.744,0.98
				c-0.321,0.264-0.716,0.463-1.183,0.598c-0.468,0.137-1.022,0.203-1.666,0.203c-0.412,0-0.85-0.012-1.31-0.033
				c-0.461-0.021-0.929-0.068-1.405-0.141v-9.639h1.661V69.634z M533.416,72.608c0-0.508-0.158-0.902-0.479-1.184
				c-0.318-0.279-0.825-0.42-1.521-0.42c-0.188,0-0.377,0.002-0.569,0.01c-0.193,0.006-0.394,0.016-0.6,0.027v3.189
				c0.206,0.031,0.402,0.053,0.589,0.063c0.188,0.01,0.373,0.016,0.562,0.016c0.393,0,0.718-0.047,0.976-0.143
				c0.257-0.092,0.462-0.217,0.613-0.371c0.15-0.154,0.261-0.334,0.328-0.541C533.382,73.05,533.416,72.833,533.416,72.608z
				 M536.218,75.583v-9.695h1.66v9.695H536.218z"/>
			<path fill="#010101" d="M548.539,72.753c0,0.445-0.094,0.852-0.279,1.219c-0.187,0.365-0.478,0.68-0.869,0.939
				c-0.393,0.26-0.891,0.465-1.492,0.609c-0.603,0.145-1.318,0.217-2.148,0.217c-0.548,0-1.13-0.021-1.748-0.064
				c-0.617-0.041-1.214-0.098-1.786-0.168v-9.57c0.604-0.07,1.219-0.125,1.84-0.164s1.293-0.059,2.014-0.059
				c1.308,0,2.3,0.213,2.979,0.643c0.681,0.428,1.02,1.045,1.02,1.85c0,0.547-0.157,1.018-0.473,1.41s-0.792,0.682-1.431,0.869
				c0.311,0.051,0.607,0.137,0.895,0.256s0.539,0.273,0.758,0.463c0.219,0.191,0.395,0.414,0.526,0.672
				C548.474,72.132,548.539,72.425,548.539,72.753z M546.348,68.542c0-0.225-0.045-0.428-0.136-0.607
				c-0.091-0.182-0.232-0.334-0.43-0.463c-0.197-0.131-0.454-0.229-0.772-0.297c-0.318-0.066-0.703-0.1-1.153-0.1
				c-0.406,0-0.76,0.008-1.063,0.023c-0.303,0.016-0.603,0.043-0.897,0.082v2.801h1.951
				C545.514,69.981,546.348,69.501,546.348,68.542z M546.763,72.792c0-0.502-0.228-0.881-0.682-1.135s-1.16-0.381-2.12-0.381h-2.065
				v2.965c0.314,0.051,0.628,0.086,0.937,0.105c0.311,0.02,0.663,0.027,1.063,0.027c0.573,0,1.045-0.037,1.415-0.115
				c0.37-0.076,0.663-0.188,0.879-0.328s0.365-0.309,0.449-0.502C546.721,73.235,546.763,73.024,546.763,72.792z"/>
			<path fill="#010101" d="M559.53,70.657c0,0.754-0.105,1.443-0.319,2.072c-0.212,0.627-0.518,1.164-0.917,1.611
				c-0.398,0.447-0.886,0.797-1.458,1.043c-0.572,0.248-1.224,0.371-1.95,0.371c-0.695,0-1.318-0.105-1.869-0.322
				c-0.55-0.217-1.019-0.533-1.4-0.951c-0.383-0.418-0.676-0.938-0.879-1.555c-0.202-0.617-0.304-1.33-0.304-2.135
				c0-0.754,0.105-1.439,0.317-2.063c0.213-0.621,0.52-1.156,0.918-1.604s0.886-0.795,1.458-1.043
				c0.573-0.248,1.225-0.373,1.951-0.373c0.695,0,1.318,0.109,1.868,0.324c0.551,0.215,1.018,0.531,1.4,0.947
				c0.383,0.414,0.677,0.932,0.879,1.549C559.43,69.151,559.53,69.858,559.53,70.657z M557.812,70.735c0-0.6-0.065-1.123-0.197-1.57
				c-0.133-0.445-0.32-0.82-0.564-1.119c-0.245-0.301-0.543-0.525-0.895-0.678c-0.351-0.15-0.742-0.227-1.173-0.227
				c-0.502,0-0.933,0.098-1.289,0.295c-0.357,0.195-0.65,0.459-0.879,0.787c-0.229,0.328-0.396,0.709-0.503,1.145
				c-0.105,0.436-0.159,0.891-0.159,1.367c0,0.598,0.066,1.123,0.198,1.574c0.132,0.449,0.319,0.824,0.563,1.125
				c0.245,0.299,0.541,0.523,0.89,0.676c0.348,0.152,0.739,0.227,1.179,0.227c0.502,0,0.932-0.098,1.289-0.295
				c0.356-0.195,0.649-0.459,0.879-0.787c0.229-0.326,0.396-0.709,0.502-1.145S557.812,71.218,557.812,70.735z"/>
			<path fill="#010101" d="M570.964,74.134l-0.104,3.922h-1.536v-2.473h-7.068v2.473h-1.518l-0.097-3.922h0.136
				c0.244,0,0.477-0.037,0.695-0.115c0.218-0.076,0.422-0.225,0.607-0.439c0.187-0.215,0.358-0.514,0.518-0.896
				c0.158-0.385,0.3-0.879,0.425-1.488c0.126-0.607,0.235-1.346,0.328-2.215c0.094-0.869,0.173-1.9,0.236-3.092h5.987v8.248h1.391
				V74.134z M567.894,67.335h-2.704c-0.064,1.107-0.147,2.053-0.251,2.83c-0.104,0.779-0.224,1.434-0.362,1.961
				c-0.138,0.527-0.298,0.949-0.478,1.266c-0.182,0.314-0.38,0.563-0.6,0.742h4.395V67.335z"/>
		</g>
		<g>
			<path fill="#010101" d="M573.592,77.563c0.327,0.014,0.646-0.018,0.956-0.086c0.309-0.072,0.58-0.178,0.814-0.314
				c0.235-0.139,0.424-0.311,0.565-0.518c0.141-0.205,0.213-0.441,0.213-0.705c0-0.271-0.047-0.488-0.142-0.656
				c-0.094-0.168-0.197-0.322-0.313-0.463c-0.116-0.143-0.221-0.293-0.314-0.455c-0.093-0.16-0.14-0.377-0.14-0.645
				c0-0.137,0.025-0.277,0.077-0.428c0.052-0.146,0.131-0.281,0.236-0.404c0.105-0.121,0.241-0.223,0.405-0.299
				c0.164-0.078,0.358-0.115,0.584-0.115c0.227,0,0.442,0.047,0.652,0.139c0.209,0.094,0.393,0.238,0.55,0.43
				c0.158,0.193,0.283,0.436,0.377,0.727c0.093,0.289,0.141,0.631,0.141,1.021c0,0.535-0.099,1.049-0.295,1.541
				c-0.195,0.492-0.488,0.93-0.879,1.311c-0.39,0.379-0.876,0.682-1.459,0.906c-0.582,0.227-1.26,0.338-2.031,0.338L573.592,77.563
				L573.592,77.563z"/>
		</g>
		<g>
			<path fill="#010101" d="M593.277,71.779h-1.999c-1.5,0-2.601-0.279-3.303-0.84s-1.053-1.375-1.053-2.443v-2.654h1.7v2.434
				c0,0.387,0.051,0.711,0.153,0.975c0.104,0.266,0.27,0.48,0.497,0.645c0.229,0.164,0.521,0.281,0.879,0.352s0.79,0.107,1.3,0.107
				h1.824v-4.512h1.682v9.695h-1.682L593.277,71.779L593.277,71.779z"/>
			<path fill="#010101" d="M606.462,67.289h-3.681v8.248h-1.698v-8.248h-3.681v-1.447h9.06V67.289L606.462,67.289z"/>
			<path fill="#010101" d="M617.354,70.611c0,0.754-0.105,1.443-0.318,2.072c-0.213,0.627-0.519,1.164-0.917,1.611
				c-0.399,0.447-0.887,0.797-1.458,1.043c-0.573,0.248-1.225,0.371-1.951,0.371c-0.695,0-1.318-0.105-1.869-0.322
				c-0.55-0.217-1.019-0.533-1.4-0.951c-0.383-0.418-0.676-0.938-0.879-1.555c-0.202-0.617-0.304-1.33-0.304-2.135
				c0-0.754,0.105-1.439,0.317-2.063c0.214-0.621,0.52-1.156,0.918-1.604s0.886-0.795,1.459-1.043
				c0.572-0.248,1.224-0.373,1.95-0.373c0.695,0,1.318,0.109,1.868,0.324c0.551,0.215,1.019,0.531,1.4,0.947
				c0.383,0.414,0.677,0.932,0.879,1.549C617.254,69.105,617.354,69.813,617.354,70.611z M615.636,70.689
				c0-0.6-0.065-1.123-0.197-1.57c-0.133-0.445-0.32-0.82-0.564-1.119c-0.245-0.301-0.542-0.525-0.895-0.678
				c-0.351-0.15-0.742-0.227-1.173-0.227c-0.502,0-0.933,0.098-1.289,0.295c-0.356,0.195-0.649,0.459-0.879,0.787
				s-0.396,0.709-0.503,1.145c-0.105,0.436-0.159,0.891-0.159,1.367c0,0.598,0.066,1.123,0.198,1.574
				c0.132,0.449,0.32,0.824,0.563,1.125c0.245,0.299,0.541,0.523,0.89,0.676c0.348,0.152,0.74,0.227,1.179,0.227
				c0.502,0,0.932-0.098,1.289-0.295c0.357-0.195,0.65-0.459,0.879-0.787c0.229-0.326,0.396-0.709,0.502-1.145
				C615.583,71.629,615.636,71.172,615.636,70.689z"/>
		</g>
		<g>
			<path fill="#010101" d="M621.104,74.553c0,0.154-0.028,0.303-0.087,0.443c-0.058,0.143-0.137,0.266-0.236,0.371
				c-0.099,0.107-0.221,0.191-0.361,0.252c-0.143,0.063-0.296,0.092-0.464,0.092c-0.167,0-0.321-0.029-0.464-0.092
				c-0.142-0.061-0.263-0.143-0.361-0.246c-0.102-0.104-0.18-0.227-0.237-0.367c-0.058-0.143-0.087-0.293-0.087-0.453
				s0.029-0.313,0.087-0.453c0.06-0.143,0.137-0.268,0.237-0.373c0.1-0.105,0.221-0.189,0.361-0.25
				c0.142-0.063,0.297-0.092,0.464-0.092c0.168,0,0.321,0.029,0.464,0.092c0.142,0.061,0.263,0.143,0.361,0.246
				c0.101,0.104,0.18,0.227,0.236,0.371C621.075,74.238,621.104,74.393,621.104,74.553z M624.822,74.553
				c0,0.154-0.028,0.303-0.087,0.443c-0.059,0.143-0.138,0.266-0.236,0.371c-0.1,0.107-0.222,0.191-0.362,0.252
				c-0.142,0.063-0.296,0.092-0.463,0.092c-0.168,0-0.322-0.029-0.464-0.092c-0.143-0.061-0.264-0.143-0.362-0.246
				c-0.1-0.104-0.179-0.227-0.236-0.367c-0.057-0.141-0.087-0.293-0.087-0.453s0.029-0.313,0.087-0.453
				c0.059-0.143,0.138-0.268,0.236-0.373s0.221-0.189,0.362-0.25c0.141-0.063,0.296-0.092,0.464-0.092
				c0.167,0,0.321,0.029,0.463,0.092c0.142,0.061,0.263,0.143,0.362,0.246s0.179,0.227,0.236,0.371
				C624.794,74.238,624.822,74.393,624.822,74.553z M628.541,74.553c0,0.154-0.029,0.303-0.087,0.443
				c-0.059,0.143-0.138,0.266-0.236,0.371c-0.102,0.107-0.221,0.191-0.362,0.252c-0.142,0.063-0.296,0.092-0.464,0.092
				c-0.167,0-0.322-0.029-0.463-0.092c-0.143-0.061-0.263-0.143-0.362-0.246c-0.101-0.104-0.179-0.227-0.236-0.367
				c-0.059-0.143-0.087-0.293-0.087-0.453s0.028-0.313,0.087-0.453c0.059-0.143,0.137-0.268,0.236-0.373
				c0.101-0.105,0.22-0.189,0.362-0.25c0.141-0.063,0.296-0.092,0.463-0.092c0.168,0,0.322,0.029,0.464,0.092
				c0.143,0.061,0.263,0.143,0.362,0.246s0.179,0.227,0.236,0.371S628.541,74.393,628.541,74.553z"/>
		</g>
	</g>
	<path fill="none" stroke="#333333" stroke-width="2.8" stroke-linecap="round" stroke-linejoin="round" stroke-miterlimit="3" d="
		M510.134,30.911v40.952c0,8.657,2.855,12.989,8.563,12.989h207.666c5.709,0,8.563-4.332,8.563-12.989V30.911
		c0-8.659-2.854-12.987-8.563-12.987H518.697C512.988,17.924,510.134,22.252,510.134,30.911z"/>
</g>
</svg>
