<?xml version="1.0" encoding="utf-8"?>
<!-- Generator: Adobe Illustrator 15.1.0, SVG Export Plug-In . SVG Version: 6.00 Build 0)  -->
<!DOCTYPE svg PUBLIC "-//W3C//DTD SVG 1.1//EN" "http://www.w3.org/Graphics/SVG/1.1/DTD/svg11.dtd">
<svg version="1.1" id="Layer_1" xmlns="http://www.w3.org/2000/svg" xmlns:xlink="http://www.w3.org/1999/xlink" x="0px" y="0px"
	 width="503.705px" height="242.716px" viewBox="0 0 503.705 242.716" enable-background="new 0 0 503.705 242.716"
	 xml:space="preserve">
<symbol  id="_x33_hands" viewBox="-120.073 -181.903 240.147 363.806">
	<g id="Layer_1_1_">
		<g>
			<g>
				<g>
					<g>
						<path fill="#FFD39B" d="M1.824,28.246l-5.3-5.3c-1.167-0.899-2.267-1.433-3.3-1.6c-1.033-0.268-2.684-0.018-4.95,0.75
							c-2.333,0.732-3.533,1.133-3.6,1.2c-0.067,0.032-0.5,0.267-1.3,0.699c-0.833,0.434-3.083,0.718-6.75,0.851l0.5,9.149
							l8.1,2.551c3.833,2.6,7.367,3.017,10.6,1.25c6.163-2.931,8.921-4.997,8.275-6.2C3.452,30.394,2.694,29.276,1.824,28.246z"/>
						<path fill="#1B597B" d="M-108.206-119.323c1.17,1.232,2.562,1.882,4.175,1.944c1.676,0,3.1-0.632,4.27-1.897
							c1.202-1.202,1.803-2.688,1.803-4.459l0.617-44.834c0-1.74-0.585-3.242-1.755-4.507c-1.139-1.267-2.531-1.914-4.176-1.945
							c-1.644,0-3.067,0.601-4.27,1.803c-1.139,1.296-1.74,2.814-1.803,4.555l-0.521,44.835
							C-109.898-122.123-109.345-120.62-108.206-119.323z"/>
						<path fill="#3F5272" d="M-112.571-8.162c-0.031,2.783,0.854,5.188,2.657,7.212c1.866,2.023,4.128,3.067,6.785,3.131
							l4.27,0.048c2.625,0.031,4.887-0.933,6.784-2.896c1.898-2.023,2.862-4.428,2.894-7.211l1.945-154.146l-23.39-0.237
							L-112.571-8.162z"/>
						<path fill="#F8A586" d="M-71.674,91.044c-0.791-2.499-2.246-4.539-4.365-6.121c-2.151-1.646-4.602-2.468-7.354-2.468
							c-2.657,0-5.061,0.791-7.211,2.372c-2.056,1.519-3.527,3.542-4.412,6.073l12.573,0.665
							C-79.281,91.565-75.691,91.393-71.674,91.044z"/>
						<g>
							<g>
								<path fill="#F8A586" d="M-85.743,120.648c1.961,0,3.574-0.68,4.839-2.04c1.36-1.265,2.04-2.862,2.04-4.792V90.9
									l-10.912-6.879l-2.8,6.879v22.916c0,1.897,0.665,3.495,1.993,4.792C-89.255,119.969-87.641,120.648-85.743,120.648z"/>
							</g>
						</g>
						<g>
							<path fill="#11132D" d="M-106.524,130.327c-0.506,0-0.98,0.189-1.423,0.569c-0.348,0.411-0.522,0.886-0.522,1.423
								c0,0.476,0.174,0.917,0.522,1.329c0.379,0.348,0.854,0.521,1.423,0.521c0.569,0,1.028-0.175,1.375-0.521
								c0.38-0.379,0.57-0.823,0.57-1.329c0-0.569-0.189-1.044-0.57-1.423C-105.528,130.518-105.987,130.327-106.524,130.327z"/>
							<path fill="#11132D" d="M-91.2,130.327c-0.538,0-0.997,0.189-1.376,0.569c-0.348,0.411-0.521,0.886-0.521,1.423
								c0,0.476,0.174,0.917,0.521,1.329c0.348,0.348,0.807,0.521,1.376,0.521s1.012-0.175,1.328-0.521
								c0.412-0.379,0.617-0.823,0.617-1.329c0-0.569-0.205-1.044-0.617-1.423C-90.187,130.518-90.63,130.327-91.2,130.327z"/>
						</g>
						<path fill="#F5E7E7" d="M-104.105,112.299c-1.423,1.423-2.135,3.146-2.135,5.171h14.755c0-2.024-0.712-3.748-2.135-5.171
							c-1.455-1.455-3.194-2.184-5.219-2.184C-100.894,110.116-102.65,110.845-104.105,112.299z"/>
						<path fill="#1B597B" d="M-61.955-118.564c1.202-1.265,1.85-2.736,1.945-4.413c0.728-17.269,1.439-32.12,2.135-44.55
							c0.095-1.771-0.395-3.305-1.47-4.603c-1.107-1.297-2.483-1.992-4.128-2.087c-1.613-0.095-3.052,0.443-4.318,1.613
							c-1.233,1.17-1.897,2.641-1.992,4.412c-0.633,11.229-1.376,26.125-2.23,44.691c-0.095,1.739,0.427,3.259,1.565,4.555
							c1.076,1.266,2.467,1.945,4.175,2.04C-64.691-116.872-63.252-117.426-61.955-118.564z"/>
						<line fill="none" stroke="#455A7D" stroke-width="1.35" x1="-88.944" y1="-33.545" x2="-98.765" y2="-33.781"/>
						<path fill="#F8A586" d="M-106.451,9.298c1.012-0.316,1.85-0.807,2.515-1.472l2.989-3.226c0.632-0.633,1.06-1.534,1.281-2.704
							c0.316-1.139,0.364-2.167,0.142-3.084l-0.332-1.091c-0.253-0.98-0.743-1.725-1.471-2.23c-0.791-0.538-1.582-0.695-2.372-0.474
							l-1.566,0.332c-0.759,0.158-1.787,0.269-3.083,0.332c-1.107,0.032-2.135,0-3.084-0.095l-0.665-0.144
							c-0.822-0.126-1.866,0.047-3.131,0.522c-1.139,0.474-1.961,1.06-2.467,1.755c-1.519,1.993-1.882,4.27-1.091,6.832
							c0.854,2.563,2.609,4.081,5.266,4.555l4.223,0.569C-108.38,9.771-107.431,9.646-106.451,9.298z"/>
						<path fill="#6D3E3E" d="M-105.908,152.247c-2.309,1.328-3.859,3.242-4.649,5.74c-0.791,2.499-0.665,4.966,0.379,7.401
							l11.482-6.643L-105.908,152.247z"/>
						<path fill="#FFD39B" d="M-80.525,87.96c-1.455-1.455-3.226-2.184-5.314-2.184c-2.119,0-3.906,0.729-5.361,2.184
							c-1.487,1.485-2.23,3.272-2.23,5.36v10.676h15.135V93.321C-78.295,91.233-79.038,89.446-80.525,87.96z"/>
						<path fill="#FFD39B" d="M-73.266,132.89c0,2.373,0.775,4.396,2.325,6.073c1.645,1.676,3.559,2.515,5.741,2.515
							c2.214,0,4.112-0.838,5.693-2.515c1.582-1.74,2.372-3.765,2.372-6.073c0-2.34-0.791-4.38-2.372-6.12
							c-1.582-1.676-3.479-2.515-5.693-2.515c-2.182,0-4.096,0.838-5.741,2.515C-72.491,128.445-73.266,130.485-73.266,132.89z"/>
						<path fill="#FFD39B" d="M-100.072,167.191c3.574,2.814,8.097,4.222,13.569,4.222h1.423c5.503,0,10.042-1.407,13.616-4.222
							c3.764-3.037,5.646-7.101,5.646-12.193v-36.816c0-5.282-1.882-9.82-5.646-13.616c-3.764-3.732-8.303-5.599-13.616-5.599
							h-1.423c-5.313,0-9.836,1.865-13.569,5.599c-3.764,3.764-5.646,8.303-5.646,13.616v36.816
							C-105.718,160.122-103.836,164.187-100.072,167.191z"/>
						<path fill="#FFD39B" d="M-100.072,139.911c1.582-1.739,2.373-3.779,2.373-6.121c0-2.309-0.791-4.333-2.373-6.072
							c-1.581-1.677-3.479-2.516-5.693-2.516c-2.182,0-4.096,0.838-5.74,2.516c-1.55,1.676-2.325,3.701-2.325,6.072
							c0,2.404,0.775,4.444,2.325,6.121c1.645,1.677,3.558,2.515,5.74,2.515C-103.551,142.426-101.653,141.588-100.072,139.911z"/>
						<path fill="#844B4B" d="M-66.956,142.995c1.234-1.329,1.897-6.089,1.993-14.28c0.095-4.111,0.048-8.081-0.142-11.908
							c0.095-8.192-1.392-13.822-4.46-16.892c-1.423-1.423-3.258-2.419-5.503-2.988c-1.898-0.506-4.381-0.759-7.449-0.759h-5.931
							c-2.942,0-5.408,0.269-7.401,0.807c-2.15,0.601-3.97,1.661-5.456,3.178c-2.973,3.163-4.507,9.016-4.602,17.554
							c-0.126,3.701-0.174,7.528-0.142,11.482c0.158,7.876,0.822,12.478,1.993,13.806v-16.795c0-2.94,1.012-5.503,3.036-7.686
							c1.993-2.119,4.396-3.179,7.211-3.179h16.653c2.815,0,5.219,1.06,7.212,3.179c1.993,2.12,2.989,4.682,2.989,7.686
							L-66.956,142.995L-66.956,142.995z"/>
						<path fill="#844B4B" d="M-78.58,174.214c4.839,0,8.366-0.901,10.581-2.704c2.562-2.088,3.843-5.6,3.843-10.533l-0.285-14.803
							c-0.474-10.186-1.313-15.941-2.515-17.271v18.267c0,3.226-0.996,6.009-2.989,8.35c-1.993,2.34-4.396,3.511-7.212,3.511
							h-16.652c-2.815,0-5.219-1.17-7.211-3.511c-2.024-2.373-3.036-5.156-3.036-8.35v-18.267c-1.17,1.36-1.993,7.117-2.467,17.271
							c-0.126,3.163-0.221,6.579-0.285,10.248l-0.048,4.555c0,2.403,0.348,4.175,1.044,5.313c0.632,0.949,1.597,1.472,2.894,1.566
							c0.98,0.063,2.531-0.063,4.649-0.379c2.594-0.348,4.618-0.522,6.073-0.522L-78.58,174.214z"/>
						<path fill="#844B4B" d="M-75.401,122.879c2.784-1.233,4.175-3.622,4.175-7.164c0-3.892-1.392-7.243-4.175-10.059
							c-2.783-2.751-6.152-4.128-10.105-4.128c-3.89,0-7.243,1.376-10.058,4.128c-2.783,2.783-4.175,6.137-4.175,10.059
							c0,3.542,1.392,5.931,4.175,7.164c2.024,0.917,5.377,1.376,10.058,1.376C-80.794,124.255-77.425,123.797-75.401,122.879z"/>
						<path fill="#FFD39B" d="M-76.017,114.955c0-1.044-0.87-1.914-2.61-2.608c-1.676-0.696-3.764-1.044-6.263-1.044
							c-2.467,0-4.554,0.348-6.263,1.044c-1.708,0.696-2.562,1.564-2.562,2.608c1.202,0,2.467,0.143,3.795,0.428
							c2.657,0.601,4.333,1.661,5.029,3.179c0.886-1.487,2.641-2.546,5.267-3.179c0.917-0.223,1.755-0.349,2.515-0.379
							L-76.017,114.955z"/>
						<path fill="#6D3E3E" d="M-101.827,176.87c1.487,0.412,3.068,0.649,4.745,0.712c3.511,0.096,5.867-0.742,7.069-2.515
							c0.253,1.265,0.016,2.783-0.712,4.555l-1.139,2.277c1.392,0.032,2.895-0.158,4.507-0.569c3.227-0.854,5.33-2.388,6.31-4.602
							c0.823,0.19,1.518,0.665,2.087,1.423l0.665,1.091c0.411-0.126,1.138-0.442,2.182-0.948c1.898-0.917,3.985-2.277,6.263-4.08
							c2.53-1.993,4.238-4.523,5.124-7.592c0.443-1.55,0.617-2.878,0.522-3.985l-0.143-12.572l-0.332,0.854
							c-0.38,0.791-0.807,1.471-1.281,2.041c-1.582,2.087-3.701,3.337-6.358,3.747c-2.688,0.475-5.583,0.079-8.682-1.186
							c-1.518-0.601-2.815-1.265-3.891-1.993c-7.053,3.638-12.81,4.254-17.269,1.852c-1.423-0.791-2.594-1.818-3.511-3.083
							c-0.475-0.602-0.807-1.155-0.996-1.661l-2.752,19.974c0.728,0.443,1.677,0.665,2.846,0.665c2.373,0,4.713-1.091,7.022-3.274
							c-0.412,2.024-0.933,4.112-1.566,6.264L-101.827,176.87z"/>
						<path fill="#020303" d="M-77.536,140.006c-0.348,0.284-0.521,0.665-0.521,1.139c0,0.443,0.173,0.838,0.521,1.186
							c0.285,0.284,0.648,0.428,1.091,0.428c0.506,0,0.917-0.144,1.234-0.428c0.284-0.348,0.426-0.742,0.426-1.186
							c0-0.475-0.142-0.854-0.426-1.139c-0.348-0.349-0.76-0.521-1.234-0.521C-76.888,139.484-77.251,139.658-77.536,140.006z"/>
						<path fill="#020303" d="M-96.086,140.006c-0.348,0.284-0.522,0.665-0.522,1.139c0,0.443,0.174,0.838,0.522,1.186
							c0.284,0.284,0.648,0.428,1.091,0.428c0.506,0,0.917-0.144,1.233-0.428c0.253-0.284,0.38-0.68,0.38-1.186
							s-0.126-0.886-0.38-1.139c-0.348-0.349-0.759-0.521-1.233-0.521C-95.438,139.484-95.802,139.658-96.086,140.006z"/>
						<path fill="#455A7D" d="M-84.149-8.21c-0.095,2.753,0.791,5.156,2.657,7.213c1.803,2.023,4.048,3.084,6.737,3.178l4.222,0.048
							c2.657,0.031,4.934-0.933,6.832-2.896c1.866-1.929,2.847-4.285,2.941-7.068c1.392-59.273,3.195-110.292,5.409-153.056
							l-23.342-1.279C-80.938-119.719-82.758-68.432-84.149-8.21z"/>
						<g>
							<path fill="#304779" d="M-102.617,91.992h30.52c4.787-0.002,7.788-1.078,9.002-3.227c1.211-2.144,2.121-10.177,2.727-24.103
								l4.354-98.352h-62.059l-2,104.615c0,5.818,1.7,10.786,5.1,14.896C-111.521,89.937-107.402,91.992-102.617,91.992z"/>
							<polygon fill="#455A7D" points="-91.326,72.746 -107.826,83.146 -99.626,97.196 -82.776,79.146 -63.926,0.496 
								-97.326,62.847 							"/>
							<polygon fill="#EBF7FE" points="-90.676,92.847 -72.576,92.847 -62.376,0.496 							"/>
							<polygon fill="#455A7D" points="-66.226,93.547 -60.626,37.047 -76.876,96.896 							"/>
							<polygon fill="#FFFFFF" points="-77.601,96.297 -76.951,96.297 -70.626,92.146 -69.876,82.746 -73.976,85.347 							"/>
							<g>
								<polygon fill="#CA6959" points="-74.126,38.347 -74.126,80.946 -71.876,78.797 -62.876,42.097 -62.876,2.396 								"/>
								<polygon fill="#CA6959" points="-70.926,77.996 -83.326,84.847 -79.026,92.646 -70.926,87.746 								"/>
							</g>
							<polygon fill="#FFFFFF" points="-98.476,94.847 -98.476,98.347 -76.826,92.496 -83.026,75.146 							"/>
							<g>
								<path fill="#304779" d="M-95.276,47.271c-6.781,5.857-8.398,7.266-4.85,4.225l3.6,20.65c3.667-3.501,8.4-8.101,14.2-13.8
									c5.8-5.7,12.092-11.601,18.875-17.7c6.783-6.102,20.875-7.418,42.275-3.95l2.35-14.35
									c-25.088-4.851-42.405-3.375-51.95,4.425C-80.323,34.573-88.489,41.407-95.276,47.271z"/>
							</g>
						</g>
						<path fill="#D9D1BD" d="M-43.927-170.184l-0.143-11.719h-27.706v11.055c0,1.613,0.585,3.004,1.755,4.175
							c1.17,1.17,2.562,1.757,4.175,1.757h16.036c0.19-1.52,0.854-2.769,1.993-3.749C-46.742-169.678-45.445-170.184-43.927-170.184
							z"/>
						<path fill="#ECE5E1" d="M-35.909-177.728v-4.175h-18.408v4.175c0,2.056,0.743,3.827,2.23,5.313
							c1.455,1.486,3.21,2.229,5.266,2.229h3.369c2.151,0,3.922-0.743,5.313-2.229C-36.652-173.868-35.909-175.64-35.909-177.728z"
							/>
						<path fill="#ECE5E1" d="M-66.368-172.461c1.423-1.423,2.135-3.179,2.135-5.266v-4.175h-7.543v11.055l0.095,0.664
							C-69.594-170.246-67.823-171.007-66.368-172.461z"/>
						<path fill="#D9D1BD" d="M-60.485-165.298v1.329c0,0.949,0.348,1.755,1.044,2.419c0.664,0.729,1.471,1.091,2.419,1.091h3.749
							c0.98,0,1.803-0.363,2.467-1.091c0.664-0.665,0.996-1.471,0.996-2.419v-1.329H-60.485z"/>
						<polygon fill="#D9D1BD" points="-34.818,-181.902 -71.776,-181.902 -71.776,-178.013 -34.818,-178.013 						"/>
						<path fill="#D9D1BD" d="M-103.936-164.916H-87.9c0.158-1.52,0.791-2.769,1.897-3.749c1.107-1.013,2.436-1.519,3.985-1.519
							l-0.143-11.719h-27.706v11.055c0,1.646,0.585,3.036,1.755,4.175C-107.035-165.503-105.644-164.916-103.936-164.916z"/>
						<path fill="#ECE5E1" d="M-72.955-177.728v-4.175h-18.456v4.175c0,2.056,0.744,3.827,2.23,5.313
							c1.455,1.486,3.226,2.229,5.314,2.229h3.368c2.119,0,3.906-0.743,5.361-2.229C-73.682-173.868-72.955-175.64-72.955-177.728z"
							/>
						<path fill="#ECE5E1" d="M-109.819-170.184c2.087-0.063,3.859-0.823,5.314-2.277c1.455-1.423,2.182-3.179,2.182-5.266v-4.175
							h-7.543v11.055L-109.819-170.184z"/>
						<path fill="#D9D1BD" d="M-98.622-165.298v1.329c0,0.949,0.332,1.755,0.997,2.419c0.664,0.729,1.502,1.091,2.514,1.091h3.701
							c0.886,0,1.724-0.363,2.515-1.091c0.664-0.665,0.997-1.471,0.997-2.419v-1.329H-98.622z"/>
						<polygon fill="#D9D1BD" points="-109.867,-178.013 -72.955,-178.013 -72.955,-181.902 -109.867,-181.902 						"/>
						
							<line fill="none" stroke="#050607" stroke-width="1.35" stroke-linecap="round" x1="-93.309" y1="-166.341" x2="-88.042" y2="-166.341"/>
						
							<line fill="none" stroke="#050607" stroke-width="1.35" stroke-linecap="round" x1="-91.411" y1="-169.234" x2="-86.144" y2="-169.234"/>
						
							<line fill="none" stroke="#050607" stroke-width="1.35" stroke-linecap="round" x1="-54.696" y1="-166.341" x2="-49.43" y2="-166.341"/>
						
							<line fill="none" stroke="#050607" stroke-width="1.35" stroke-linecap="round" x1="-52.799" y1="-169.234" x2="-47.58" y2="-169.234"/>
					</g>
				</g>
			</g>
		</g>
		<g>
			<g>
				<path fill="#FFCC66" d="M107.724,147.496c-0.267,0.101-0.533,0.167-0.8,0.2c-1.167,0.2-2.617,0.018-4.35-0.55l-0.25,4.65
					c-1,0.5-1.967,0.967-2.9,1.399c-6.567,3.101-10.934,4.9-13.1,5.4c-6.2,1.433-11.667,4.482-16.4,9.149v1.95
					c0.233,0,0.55,0.05,0.95,0.15c0.4,0.133,0.733,0.2,1,0.2c-2.867,0.032-5.5-0.816-7.9-2.551c0.2-0.1,0.434-0.083,0.7,0.051
					c0.266,0.133,0.466,0.184,0.6,0.149c-1.3-0.267-2.283-0.982-2.95-2.149c-0.633-1.134-0.95-2.601-0.95-4.4
					c0-2.067,0.1-3.317,0.3-3.75c0.4-0.9,1.616-1.817,3.65-2.75l-2.4-0.1c-0.333-0.101-1.833-0.384-4.5-0.851
					c0-1.466,0.033-3.8,0.1-7c-0.8,0.268-1.7,0.351-2.7,0.25c-2,1.633-3,5.784-3,12.45c0,6.6,3.383,11.967,10.15,16.1
					c7.167,4.434,16.267,6.117,27.3,5.051c10.434-1.033,16.85-6.083,19.25-15.15c0.9-3.367,1.1-6.867,0.6-10.5
					C109.691,151.663,108.89,149.196,107.724,147.496z"/>
				<path fill="#D58E71" d="M69.224,93.847c1.066,3.466,2,6.315,2.8,8.55c0.767,0.367,1.567,0.7,2.4,1
					c-0.1,0.333-0.184,0.717-0.25,1.15c-0.167,1.066-0.284,1.934-0.35,2.6c-1.534,0.333-2.934,0.833-4.2,1.5
					c-1.867,0.967-4.05,2.7-6.55,5.2c-2.2,2.2-3.65,9.183-4.35,20.95c-1-0.468-1.95-0.65-2.85-0.551
					c-1.233,0.167-2.25,0.867-3.05,2.101c-0.934,1.433-1.434,2.815-1.5,4.149c-0.067,1.333,0.216,2.65,0.85,3.95
					c0.6,1.333,1.566,2.117,2.9,2.351c0.233,0.066,0.483,0.116,0.75,0.149c1,0.101,1.9,0.018,2.7-0.25c-0.066,3.2-0.1,5.534-0.1,7
					c2.667,0.467,4.167,0.75,4.5,0.851l2.4,0.1c-2.034,0.933-3.25,1.85-3.65,2.75c-0.2,0.433-0.3,1.683-0.3,3.75
					c0,1.8,0.317,3.267,0.95,4.4c0.667,1.167,1.65,1.883,2.95,2.149c-0.133,0.034-0.333-0.017-0.6-0.149
					c-0.267-0.134-0.5-0.15-0.7-0.051c2.4,1.733,5.033,2.583,7.9,2.551c-0.267,0-0.6-0.066-1-0.2c-0.4-0.101-0.716-0.15-0.95-0.15
					v-1.95c4.733-4.667,10.2-7.717,16.4-9.149c2.167-0.5,6.533-2.3,13.1-5.4c0.933-0.433,1.9-0.899,2.9-1.399l0.25-4.65
					c1.733,0.567,3.183,0.75,4.35,0.55c0.267-0.033,0.533-0.1,0.8-0.2c0.767-0.232,1.333-0.667,1.7-1.3c0.466-0.767,0.833-2,1.1-3.7
					c0.233-1.667-0.083-3.282-0.95-4.85c-0.867-1.567-1.917-2.433-3.15-2.6c-0.9-0.101-1.983,0.083-3.25,0.55v-0.2
					c-0.034-0.233-0.05-0.483-0.05-0.75c-0.333-11.9-2.35-19.45-6.05-22.65c-2.4-2.1-4.717-3.5-6.95-4.199
					c-0.833-0.268-1.85-0.483-3.05-0.65c0.066-0.533,0.167-1.167,0.3-1.9c0.133-0.699,0.217-1.149,0.25-1.35
					c1.667-0.433,3.034-0.767,4.1-1c-2.6-4.6-4.783-8.033-6.55-10.3c-2.634,0.133-4.117,0.216-4.45,0.25
					C75.357,93.146,71.524,93.479,69.224,93.847z M101.374-33.403c-0.1,2.833-0.117,6.383-0.05,10.649l7.95,0.2
					c3.833-3.7,5.9-6.8,6.2-9.3c0.2-1.6-0.566-3.033-2.3-4.3c1.966-6.4,2-11.067,0.1-14c-0.1-0.101-0.183-0.2-0.25-0.3
					c-4.333,4.767-7.2,7.833-8.6,9.199C102.757-37.887,101.74-35.271,101.374-33.403z M11.974,37.196l-1.6-14.75
					c-0.829-1.293-6.279-1.677-16.35-1.149c0.654,0.25,2.888,3.25,6.7,9c-5.79,1.733-7.99,4.033-6.6,6.899H11.974z M88.824,143.597
					c-0.4-0.4-0.6-0.867-0.6-1.4s0.2-1,0.6-1.399c0.4-0.4,0.867-0.601,1.4-0.601c0.533,0,1,0.2,1.4,0.601
					c0.4,0.399,0.6,0.866,0.6,1.399c0,0.534-0.2,1-0.6,1.4c-0.4,0.399-0.867,0.6-1.4,0.6
					C89.691,144.196,89.224,143.996,88.824,143.597z M88.774,116.246c2.667,1.367,4.517,3.9,5.55,7.601
					c-8.2-1.567-16.733-1.685-25.6-0.351c1.1-3,2.583-5.199,4.45-6.6c1.9-1.367,4.316-2.15,7.25-2.35
					C83.324,114.347,86.107,114.913,88.774,116.246z M72.524,141.646c0,0.533-0.2,1-0.6,1.4c-0.4,0.399-0.867,0.6-1.4,0.6
					c-0.533,0-1-0.2-1.4-0.6c-0.4-0.4-0.6-0.867-0.6-1.4s0.2-1,0.6-1.4c0.4-0.399,0.867-0.6,1.4-0.6c0.534,0,1,0.2,1.4,0.6
					C72.324,140.646,72.524,141.113,72.524,141.646z"/>
				<path d="M88.824,143.597c0.4,0.399,0.867,0.6,1.4,0.6c0.533,0,1-0.2,1.4-0.6c0.4-0.4,0.6-0.867,0.6-1.4s-0.2-1-0.6-1.399
					c-0.4-0.4-0.867-0.601-1.4-0.601c-0.533,0-1,0.2-1.4,0.601c-0.4,0.399-0.6,0.866-0.6,1.399S88.424,143.196,88.824,143.597z
					 M72.524,141.646c0-0.533-0.2-1-0.6-1.4c-0.4-0.399-0.867-0.6-1.4-0.6c-0.533,0-1,0.2-1.4,0.6c-0.4,0.4-0.6,0.867-0.6,1.4
					s0.2,1,0.6,1.4c0.4,0.399,0.867,0.6,1.4,0.6c0.534,0,1-0.2,1.4-0.6C72.324,142.646,72.524,142.18,72.524,141.646z"/>
				<path fill="#DBB895" d="M69.224,93.847v-75.9l15.95,74.65c1.767,2.267,3.95,5.7,6.55,10.3c0.066-0.033,0.133-0.05,0.2-0.05
					c0.2-0.034,0.433-0.083,0.7-0.15c1.6-0.399,4.233-1.466,7.9-3.2l-9.85-10.449l-20.8-83.351h-3l-3.9,85.15v6.6v0.45
					c4.667,2.6,7.684,4.1,9.05,4.5C71.224,100.163,70.29,97.313,69.224,93.847z M117.124-22.304l-7.85-0.25l-7.95-0.2l-5.15-0.699
					c4.066,38.732,2.933,72.217-3.4,100.449c0.467,4.533,1.9,8.066,4.3,10.601c2.433,2.533,5.133,3.517,8.1,2.95
					c2.033-0.4,3.816-1.468,5.35-3.2c-0.966,0.6-2.017,1-3.15,1.2c-2.966,0.532-5.667-0.4-8.1-2.801c-2.4-2.399-3.833-5.732-4.3-10
					c6.333-26.667,7.467-58.3,3.4-94.899l5.15,0.649l13.5,0.351L117.124-22.304z M105.074-162.354l11.75,1.1v-6.05l-11.75,1.75
					V-162.354z M90.374-166.703l-11.5,1.649l-0.15,3.9h11.65V-166.703z M17.274,38.496v-15.3c0.208-0.997,0.124-1.831-0.25-2.5h-6.2
					l-0.45,1.75l1.6,14.75L17.274,38.496z"/>
				<path fill="#FFFFFF" d="M88.774,116.246c-2.667-1.333-5.45-1.899-8.35-1.699c-2.934,0.199-5.35,0.982-7.25,2.35
					c-1.867,1.4-3.35,3.6-4.45,6.6c8.867-1.333,17.4-1.217,25.6,0.351C93.29,120.146,91.441,117.613,88.774,116.246z"/>
				<path fill="#663333" d="M116.824-161.254l-11.75-1.1l-4.35-0.4l-6.15,129.351h6.8c0.367-1.867,1.383-4.483,3.05-7.851
					c1.4-1.366,4.267-4.434,8.6-9.199c0.067,0.1,0.15,0.199,0.25,0.3l5.25-110.9L116.824-161.254z M90.374-161.153h-11.65h-4.3
					l-4.65,127.75h18.6l6.05-127.75H90.374z M85.174,92.597l-15.95-74.65v75.9c2.3-0.367,6.133-0.7,11.5-1
					C81.057,92.813,82.54,92.729,85.174,92.597z"/>
				<path fill="#CC9966" d="M109.274-22.554l7.85,0.25v-9.55h-1.65C115.174-29.354,113.107-26.254,109.274-22.554z M101.324-22.754
					c-0.067-4.267-0.05-7.816,0.05-10.649h-6.8h-6.2h-18.6h-2.35l-6.55,92.2c-0.542-18.833-15.076-30.7-43.6-35.601v15.3
					c17.07,0.396,27.628,9.388,31.675,26.976c4.049,17.584,8.357,27.959,12.925,31.125c0.467,0.333,0.833,0.617,1.1,0.85v-6.6
					l3.9-85.15h3l20.8,83.351l9.85,10.449c3.4-2.399,6.083-4.633,8.05-6.699c1.367-1.434,2.65-3.768,3.85-7
					c0.466-1.367,0.933-2.9,1.4-4.601c0-0.065,0.017-0.149,0.05-0.25l0.15-1.5c0.167-1.667,0.35-3.5,0.55-5.5
					c0.033-0.6,0.083-1.216,0.15-1.85l2.3-42.75v-47.5l-13.5-0.351l-5.15-0.649c4.067,36.6,2.934,68.232-3.4,94.899
					c0.467,4.268,1.9,7.601,4.3,10c2.434,2.4,5.134,3.333,8.1,2.801c1.133-0.2,2.184-0.601,3.15-1.2
					c-1.533,1.732-3.316,2.8-5.35,3.2c-2.967,0.566-5.667-0.417-8.1-2.95c-2.4-2.534-3.833-6.067-4.3-10.601
					c6.333-28.232,7.467-61.717,3.4-100.449L101.324-22.754z"/>
				<path fill="#999966" d="M78.874-165.054l11.5-1.649l0.85-0.15c-0.2-0.434-0.25-1.083-0.15-1.95l0.35-1.55l13.65,4.8l11.75-1.75
					l0.9-0.1c-0.2-0.435-0.25-1.083-0.15-1.95l1.55-7.35l-37.3-0.75l1.2,1.1l-27.7-0.55l6.65,6.05l16.6,5.85L78.874-165.054z"/>
				<polygon fill="#CCCCCC" points="55.324,-176.903 83.024,-176.354 81.824,-177.453 119.124,-176.703 120.074,-181.153 
					81.224,-181.903 81.224,-180.903 54.724,-181.354 54.724,-177.453 				"/>
			</g>
		</g>
	</g>
</symbol>
<symbol  id="no" viewBox="-202.85 -238.43 405.7 476.861">
	<g id="Layer_1_2_">
		<g>
			<g>
				<path fill="#FFCC99" d="M14.05,159.87c-3.533,1.033-6.35,1.649-8.45,1.85l1.3,9.601l0.05-0.051L6.9,172.12l-0.6,2.45
					c-2.7,7-4.633,10.667-5.8,11c1.5,1.467,3.067,1.183,4.7-0.851c1.633-2,3.2-2.899,4.7-2.7c0.966-0.065,2.867,0.9,5.7,2.9
					c4.2,2.4,8.317,4.283,12.35,5.65h1.5c0.867-0.833-2.233-3.583-9.3-8.25L32,187.47h1.5c1.133-1.732-1.617-4.683-8.25-8.85
					l7.5,4.3c3.833-0.5-1.066-5.75-14.7-15.75L14.05,159.87z M-59.05,226.37c0.967-1.066,1.933-2.383,2.9-3.95
					c0.8-1.267,1.533-2.483,2.2-3.65c0.7,0.233,1.4,0.468,2.1,0.7c0.8,0.268,1.683-0.316,2.65-1.75c1.033-1.433,1.566-2.767,1.6-4
					c0.1-1.167-0.517-2.149-1.85-2.95l0.6-1.6c0.933-2.167,1.683-4.817,2.25-7.95c0.566-3.133,0.733-7.066,0.5-11.8
					c-0.2-4.667-0.434-6.784-0.7-6.35c-2.067-7.468-7.033-12.185-14.9-14.15c0.066,0,0.15,0,0.25,0v-1.1l-4.3-13.801v-0.05
					c-0.033,0.067-0.066,0.133-0.1,0.2c-0.1,0.167-1.25,1.733-3.45,4.7c-2.2,3-4.567,5.982-7.1,8.95l-1.5,5.649
					c-1.733,1.567-3.533,3.55-5.4,5.95c-3.467,4.533-5.517,7.783-6.15,9.75c-3.733-2.034-6.367-1.367-7.9,2
					c-1.5,3.4-0.517,5.683,2.95,6.85l4.15-7.449l3.95,2.5c-1.733,2.6-3.133,5.116-4.2,7.55c-1.033,2.5-1.716,5.55-2.05,9.149
					c0.067,0.034,0.15,0.083,0.25,0.15c11.533,5.5,20.833,12.466,27.9,20.9c0.867-0.435,1.767-1.018,2.7-1.75
					C-60.8,228.337-59.917,227.437-59.05,226.37z M-56.05,213.42c-0.033,0-0.067,0-0.1,0c-0.033,0-0.066,0-0.1,0
					c-0.733,0-1.35-0.284-1.85-0.85c-0.567-0.567-0.85-1.25-0.85-2.051c0-0.032,0-0.083,0-0.149c0.033-0.7,0.316-1.316,0.85-1.851
					c0.5-0.6,1.117-0.899,1.85-0.899c0.7,0,1.317,0.3,1.85,0.899c0.533,0.567,0.8,1.233,0.8,2c0,0.801-0.267,1.483-0.8,2.051
					C-54.867,213.07-55.417,213.353-56.05,213.42z M-71.5,201.57c0,0.833-0.267,1.532-0.8,2.1c-0.567,0.566-1.25,0.85-2.05,0.85
					c-0.8,0-1.467-0.282-2-0.85c-0.567-0.567-0.85-1.267-0.85-2.1s0.283-1.533,0.85-2.101c0.533-0.6,1.2-0.899,2-0.899
					c0.8,0,1.483,0.3,2.05,0.899C-71.767,200.037-71.5,200.736-71.5,201.57z M-129.6,56.72l8.75-2.85l0.55-10.45
					c-0.067-3.833-0.25-8.55-0.55-14.15c-2.067,0.7-3.517,4.018-4.35,9.95l-7.65-9.55l-1.45-1.15c-7.2,0.268-6.15,8.784,3.15,25.551
					L-129.6,56.72z"/>
				<path fill="#99CCCC" d="M14.05,159.87l5.5-1.4l-2.65-6.899c-0.233-0.2-0.55-0.333-0.95-0.4h-0.6l0.05-0.1
					c-1.6-0.101-4.45,0.282-8.55,1.149l-5.35,1.55l-1,0.301L2,160.97l0.65,0.601c0.733,0.199,1.716,0.25,2.95,0.149
					C7.7,161.52,10.517,160.903,14.05,159.87z M-65.75,153.97c-1.066-1.566-2.333-3.3-3.8-5.2l4.15-4l-0.75-24.149l-11.6,34.399
					c0.167-0.3,0.317-0.6,0.45-0.899l1.3-2.55l-0.25,0.55c-0.2,0.367-0.4,0.75-0.6,1.149l-4.05,8.15l4.5,6.4
					c2.533-2.968,4.9-5.95,7.1-8.95c2.2-2.967,3.35-4.533,3.45-4.7C-65.817,154.103-65.783,154.037-65.75,153.97z M-57.5,122.22
					l-6.75,22.45l1.8,4.95c-1.367,1.899-2.467,3.367-3.3,4.399l4.3,13.801l7.2-5.15l-2.6-8.3
					C-56.983,141.17-57.2,130.453-57.5,122.22z M-115.55,61.17l1.35-1.2l-3.15-7.25l-3.5,1.15l-8.75,2.85l-3.1,1l4.3,11.25l0.8-0.45
					l6.05-3l0.55-0.449h0.1l2.95-1.851h0.1L-115.55,61.17z"/>
				<path fill="#999999" d="M-66.15,120.62l9.25-30.5c-0.767,11.899-0.967,22.6-0.6,32.1c0.3,8.233,0.517,18.95,0.65,32.15l2.6,8.3
					l7.15-2.05c2.933-0.3,6.483-2.033,10.65-5.2l22.5-32.25c2.333-2.934,3.983-2.983,4.95-0.15l10.5,30.75l5.35-1.55
					c4.1-0.867,6.95-1.25,8.55-1.149h0.05L-2.3,111.27l-2.6-2.8c-2.267-1.3-5.283-2.2-9.05-2.7
					c-8.667,2.667-17.35,14.534-26.05,35.601c0.233-22.667,2.383-48.083,6.45-76.25c-3.367-2.066-7.65-3.25-12.85-3.55l-30.45-1.2
					c-4.633-0.3-9.5-0.066-14.6,0.7c-3.934,0.633-8,1.565-12.2,2.8c4.667,21.333,6.333,45.517,5,72.55
					c-9.8-25.6-15.433-50.684-16.9-75.25l-2.3,2.05h-0.1l-2.95,1.851h-0.1l-0.55,0.449l-6.05,3
					c6.133,56.134,15.55,85.483,28.25,88.051l18.45,4.85l4.05-8.15c0.2-0.399,0.4-0.782,0.6-1.149l0.25-0.55l-1.3,2.55
					c-0.133,0.3-0.283,0.6-0.45,0.899L-66.15,120.62z"/>
				<path d="M-92.3,209.92c-0.933,0-1.017-0.05-0.25-0.15c0.333-3.6,1.017-6.649,2.05-9.149c1.067-2.434,2.467-4.95,4.2-7.55
					l-3.95-2.5l-4.15,7.449l-1.95,3.95c-1.934-0.833-3.85-0.899-5.75-0.2c-0.4,2.5-0.983,5.4-1.75,8.7
					c-0.7,3.333-1.133,5.917-1.3,7.75c-0.167,1.867-0.283,3.533-0.35,5c-0.033,1.5,0.367,2.867,1.2,4.101
					c0.9,1.3,2.65,2.267,5.25,2.899l3.65,1.9c1.833,2.533,3.55,4.316,5.15,5.35c1.6,1.033,6.934,1.233,16,0.601
					c9.133-0.634,14.267-1.617,15.4-2.95c1.2-1.4,1.9-2.4,2.1-3c0.133-0.3,0.267-1.15,0.4-2.55c0.133-1.667,0.333-2.95,0.6-3.851
					c-1.533,0-2.633,0.217-3.3,0.65c-0.867,1.066-1.75,1.967-2.65,2.7c-0.934,0.732-1.833,1.315-2.7,1.75
					C-71.467,222.386-80.767,215.42-92.3,209.92z M-71.5,201.57c0-0.833-0.267-1.533-0.8-2.101c-0.567-0.6-1.25-0.899-2.05-0.899
					c-0.8,0-1.467,0.3-2,0.899c-0.567,0.567-0.85,1.268-0.85,2.101s0.283,1.532,0.85,2.1c0.533,0.566,1.2,0.85,2,0.85
					c0.8,0,1.483-0.282,2.05-0.85C-71.767,203.103-71.5,202.403-71.5,201.57z M-56.05,213.42c0.633-0.067,1.183-0.35,1.65-0.85
					c0.533-0.567,0.8-1.25,0.8-2.051c0-0.767-0.267-1.433-0.8-2c-0.533-0.6-1.15-0.899-1.85-0.899c-0.733,0-1.35,0.3-1.85,0.899
					c-0.534,0.534-0.817,1.15-0.85,1.851c0,0.066,0,0.117,0,0.149c0,0.801,0.283,1.483,0.85,2.051c0.5,0.565,1.117,0.85,1.85,0.85
					c0.034,0,0.067,0,0.1,0C-56.117,213.42-56.083,213.42-56.05,213.42z"/>
				<path fill="#242424" d="M-65.75,154.02c0.833-1.032,1.934-2.5,3.3-4.399l-1.8-4.95l6.75-22.45c-0.367-9.5-0.167-20.2,0.6-32.1
					l-9.25,30.5l0.75,24.149l-4.15,4c1.467,1.9,2.733,3.634,3.8,5.2V154.02L-65.75,154.02z M-83.7-90.88
					c13.133-6.466,19.566-12.117,19.3-16.95l-34.2,4.05c-1.967,1.867-2.383,6.867-1.25,15L-83.7-90.88z M-49.65-91.88l16.35-1.8
					c13.033-6.4,20.1-11.117,21.2-14.15h-36.05C-50.217-105.097-50.717-99.78-49.65-91.88z"/>
				<path fill="#666666" d="M-91.45,61.07c5.1-0.768,9.967-1,14.6-0.7l30.45,1.2c3.267-63.867,9.017-115.768,17.25-155.7l-4.15,0.45
					l-16.35,1.8l-1.4,0.2l-11.1,143.55H-73.3c-7.067-52.434-8.817-100.25-5.25-143.45l-5.15,0.7l-16.15,2.1
					C-99.683-40.847-96.884,9.103-91.45,61.07z"/>
			</g>
			<g>
				
					<path fill="none" stroke="#FF0000" stroke-width="16.3" stroke-linecap="round" stroke-linejoin="round" stroke-miterlimit="3" d="
					M90.7-88.33l-26.25,23.5l-26.5-24.55 M40.05-42.98l24.4-21.85l30.45,28.2"/>
				<g>
					
						<path fill="none" stroke="#009999" stroke-width="8.65" stroke-linecap="round" stroke-linejoin="round" stroke-miterlimit="3" d="
						M107.6-23.98H26.7c-4.4,0-6.6-2.333-6.6-7v-69.899c0-4.633,2.2-6.95,6.6-6.95h80.9c4.4,0,6.601,2.316,6.601,6.95v69.899
						C114.2-26.313,112-23.98,107.6-23.98z"/>
				</g>
			</g>
			<text transform="matrix(0.9519 0 0 -1 20.8496 19.1465)" font-family="'Consolas-Bold'" font-size="55.912">Нет</text>
			<g>
				
					<path fill="none" stroke="#333333" stroke-width="2.8" stroke-linecap="round" stroke-linejoin="round" stroke-miterlimit="3" d="
					M-201.45-173.28v-48.399c0-10.233,5.117-15.351,15.35-15.351h372.2c10.233,0,15.351,5.117,15.351,15.351v48.399
					c0,10.233-5.117,15.351-15.351,15.351h-372.2C-196.333-157.93-201.45-163.047-201.45-173.28z"/>
				<text transform="matrix(1 0 0 -1 -174.8501 -184.1191)" font-family="'Consolas'" font-size="22">Исходя из моего многолетнего</text>
				<text transform="matrix(1 0 0 -1 -120.4189 -211.8691)" font-family="'Consolas'" font-size="22"> опыта, думаю, что…</text>
			</g>
		</g>
	</g>
</symbol>
<symbol  id="yes" viewBox="-297.026 -247.779 594.052 495.557">
	<g id="Layer_1_3_">
		<g>
			<g>
				<g>
					<path fill="#FFD39B" d="M-140.42,136.661l-4.16,8.187l5.737,6.272c2.022,4.156,4.885,6.281,8.588,6.374l0.805-1.609
						c6.782,3.109,10.847,4.278,12.195,3.506c1.349-0.774-0.782-2.826-6.391-6.156c0.605-1.053,1.041-2.315,1.309-3.792
						l-0.403-4.764c-0.226-1.147-0.734-2.07-1.526-2.769c-0.782-0.702-2.358-1.307-4.73-1.812c-2.375-0.494-3.599-0.734-3.674-0.722
						c-0.076,0.005-0.579-0.018-1.51-0.067C-135.107,139.26-137.188,138.375-140.42,136.661z"/>
					<path fill="#1B597B" d="M-256.681-53.448c1.17,1.232,2.562,1.882,4.175,1.944c1.676,0,3.1-0.632,4.27-1.897
						c1.202-1.202,1.803-2.688,1.803-4.459l0.617-44.834c0-1.74-0.585-3.242-1.755-4.507c-1.139-1.267-2.531-1.914-4.176-1.945
						c-1.644,0-3.067,0.601-4.27,1.803c-1.139,1.296-1.74,2.814-1.803,4.555l-0.521,44.835
						C-258.373-56.248-257.819-54.745-256.681-53.448z"/>
					<path fill="#3F5272" d="M-261.045,57.713c-0.031,2.783,0.854,5.188,2.657,7.212c1.866,2.023,4.128,3.067,6.785,3.131
						l4.27,0.048c2.625,0.031,4.887-0.933,6.784-2.896c1.898-2.023,2.862-4.428,2.894-7.211l1.945-154.146l-23.39-0.237
						L-261.045,57.713z"/>
					<path fill="#F8A586" d="M-220.148,156.919c-0.791-2.499-2.246-4.539-4.365-6.121c-2.151-1.646-4.602-2.468-7.354-2.468
						c-2.657,0-5.061,0.791-7.211,2.372c-2.056,1.519-3.527,3.542-4.412,6.073l12.573,0.665
						C-227.754,157.44-224.166,157.268-220.148,156.919z"/>
					<path fill="#3F5272" d="M-261.188,54.629v29.32h60.586v-29.32c0-5.093-1.787-9.426-5.362-12.999
						c-3.605-3.606-7.955-5.409-13.047-5.409h-23.77c-5.092,0-9.441,1.803-13.047,5.409
						C-259.4,45.203-261.188,49.536-261.188,54.629z"/>
					<path fill="#455A7D" d="M-230.917,54.629v29.32h30.317v-29.32c0-4.555-1.456-8.54-4.365-11.956
						c-2.815-3.354-6.405-5.409-10.77-6.168c-4.428,0.759-8.05,2.814-10.865,6.168C-229.479,46.12-230.917,50.105-230.917,54.629z"
						/>
					<g>
						<g>
							<path fill="#F8A586" d="M-230.917,186.523c1.961,0,3.574-0.68,4.839-2.04c1.36-1.265,2.04-2.862,2.04-4.792v-22.916
								l-10.912-6.879l-2.8,6.879v22.916c0,1.897,0.665,3.495,1.993,4.792C-234.43,185.844-232.815,186.523-230.917,186.523z"/>
						</g>
					</g>
					<g>
						<path fill="#11132D" d="M-251.699,196.202c-0.506,0-0.98,0.189-1.423,0.569c-0.348,0.411-0.522,0.886-0.522,1.423
							c0,0.476,0.174,0.917,0.522,1.329c0.379,0.348,0.854,0.521,1.423,0.521c0.569,0,1.028-0.175,1.375-0.521
							c0.38-0.379,0.57-0.823,0.57-1.329c0-0.569-0.189-1.044-0.57-1.423C-250.703,196.393-251.162,196.202-251.699,196.202z"/>
						<path fill="#11132D" d="M-236.375,196.202c-0.538,0-0.997,0.189-1.376,0.569c-0.348,0.411-0.521,0.886-0.521,1.423
							c0,0.476,0.174,0.917,0.521,1.329c0.348,0.348,0.807,0.521,1.376,0.521s1.012-0.175,1.328-0.521
							c0.412-0.379,0.617-0.823,0.617-1.329c0-0.569-0.205-1.044-0.617-1.423C-235.361,196.393-235.805,196.202-236.375,196.202z"/>
					</g>
					<path fill="#F5E7E7" d="M-249.279,178.174c-1.423,1.423-2.135,3.146-2.135,5.171h14.755c0-2.024-0.712-3.748-2.135-5.171
						c-1.455-1.455-3.194-2.184-5.219-2.184C-246.068,175.991-247.825,176.72-249.279,178.174z"/>
					<path fill="#1B597B" d="M-208.43-52.689c1.202-1.265,1.85-2.736,1.945-4.413c0.728-17.269,1.439-32.12,2.135-44.55
						c0.095-1.771-0.395-3.305-1.47-4.603c-1.107-1.297-2.483-1.992-4.128-2.087c-1.613-0.095-3.052,0.443-4.318,1.613
						c-1.233,1.17-1.897,2.641-1.992,4.412c-0.633,11.229-1.376,26.125-2.23,44.691c-0.095,1.739,0.427,3.259,1.565,4.555
						c1.076,1.266,2.467,1.945,4.175,2.04C-211.166-50.997-209.727-51.551-208.43-52.689z"/>
					<path fill="#455A7D" d="M-224.324,57.665c-0.095,2.753,0.791,5.156,2.657,7.213c1.803,2.023,4.048,3.084,6.737,3.178
						l4.222,0.048c2.657,0.031,4.934-0.933,6.832-2.896c1.866-1.929,2.847-4.285,2.941-7.068
						c1.392-59.273,3.195-110.292,5.409-153.056l-23.342-1.279C-221.112-53.844-222.933-2.557-224.324,57.665z"/>
					<path fill="none" stroke="#1A171C" stroke-width="1.35" d="M-209.947,79.253v-9.916c0-2.657,0.917-4.855,2.751-6.596
						c1.834-1.866,4.033-2.799,6.595-2.799"/>
					<line fill="none" stroke="#1A171C" stroke-width="1.35" x1="-200.602" y1="79.253" x2="-261.188" y2="79.253"/>
					<line fill="none" stroke="#455A7D" stroke-width="1.35" x1="-237.417" y1="32.33" x2="-247.239" y2="32.094"/>
					<path fill="#6D3E3E" d="M-251.083,218.122c-2.309,1.328-3.859,3.242-4.649,5.74c-0.791,2.499-0.665,4.966,0.379,7.401
						l11.482-6.643L-251.083,218.122z"/>
					<path fill="#FFD39B" d="M-225.7,153.835c-1.455-1.455-3.226-2.184-5.314-2.184c-2.119,0-3.906,0.729-5.361,2.184
						c-1.487,1.485-2.23,3.272-2.23,5.36v10.676h15.135v-10.675C-223.47,157.108-224.212,155.321-225.7,153.835z"/>
					<path fill="#FFD39B" d="M-218.44,198.765c0,2.373,0.775,4.396,2.325,6.073c1.645,1.676,3.559,2.515,5.741,2.515
						c2.214,0,4.112-0.838,5.693-2.515c1.582-1.74,2.372-3.765,2.372-6.073c0-2.34-0.791-4.38-2.372-6.12
						c-1.582-1.676-3.479-2.515-5.693-2.515c-2.182,0-4.096,0.838-5.741,2.515C-217.666,194.32-218.44,196.36-218.44,198.765z"/>
					<path fill="#FFD39B" d="M-245.247,233.066c3.574,2.814,8.097,4.222,13.569,4.222h1.423c5.503,0,10.042-1.407,13.616-4.222
						c3.764-3.037,5.646-7.101,5.646-12.193v-36.816c0-5.282-1.882-9.82-5.646-13.616c-3.764-3.732-8.303-5.599-13.616-5.599h-1.423
						c-5.313,0-9.836,1.865-13.569,5.599c-3.764,3.764-5.646,8.303-5.646,13.616v36.816
						C-250.893,225.997-249.01,230.062-245.247,233.066z"/>
					<path fill="#FFD39B" d="M-245.247,205.786c1.582-1.739,2.373-3.779,2.373-6.121c0-2.309-0.791-4.333-2.373-6.072
						c-1.581-1.677-3.479-2.516-5.693-2.516c-2.182,0-4.096,0.838-5.74,2.516c-1.55,1.676-2.325,3.701-2.325,6.072
						c0,2.404,0.775,4.444,2.325,6.121c1.645,1.677,3.558,2.515,5.74,2.515C-248.726,208.301-246.828,207.463-245.247,205.786z"/>
					<path fill="#844B4B" d="M-212.13,208.87c1.234-1.329,1.897-6.089,1.993-14.28c0.095-4.111,0.048-8.081-0.142-11.908
						c0.095-8.192-1.392-13.822-4.46-16.892c-1.423-1.423-3.258-2.419-5.503-2.988c-1.898-0.506-4.381-0.759-7.449-0.759h-5.931
						c-2.942,0-5.408,0.269-7.401,0.807c-2.15,0.601-3.97,1.661-5.456,3.178c-2.973,3.163-4.507,9.016-4.602,17.554
						c-0.126,3.701-0.174,7.528-0.142,11.482c0.158,7.876,0.822,12.478,1.993,13.806v-16.795c0-2.94,1.012-5.503,3.036-7.686
						c1.993-2.119,4.396-3.179,7.211-3.179h16.653c2.815,0,5.219,1.06,7.212,3.179c1.993,2.12,2.989,4.682,2.989,7.686
						L-212.13,208.87L-212.13,208.87z"/>
					<path fill="#844B4B" d="M-223.754,240.089c4.839,0,8.366-0.901,10.581-2.704c2.562-2.088,3.843-5.6,3.843-10.533l-0.285-14.803
						c-0.474-10.186-1.313-15.941-2.515-17.271v18.267c0,3.226-0.996,6.009-2.989,8.35c-1.993,2.34-4.396,3.511-7.212,3.511h-16.652
						c-2.815,0-5.219-1.17-7.211-3.511c-2.024-2.373-3.036-5.156-3.036-8.35v-18.267c-1.17,1.36-1.993,7.117-2.467,17.271
						c-0.126,3.163-0.221,6.579-0.285,10.248l-0.048,4.555c0,2.403,0.348,4.175,1.044,5.313c0.632,0.949,1.597,1.472,2.894,1.566
						c0.98,0.063,2.531-0.063,4.649-0.379c2.594-0.348,4.618-0.522,6.073-0.522L-223.754,240.089z"/>
					<path fill="#844B4B" d="M-220.576,188.754c2.784-1.233,4.175-3.622,4.175-7.164c0-3.892-1.392-7.243-4.175-10.059
						c-2.783-2.751-6.152-4.128-10.105-4.128c-3.89,0-7.243,1.376-10.058,4.128c-2.783,2.783-4.175,6.137-4.175,10.059
						c0,3.542,1.392,5.931,4.175,7.164c2.024,0.917,5.377,1.376,10.058,1.376C-225.968,190.13-222.6,189.672-220.576,188.754z"/>
					<path fill="#FFD39B" d="M-222.284,180.879l1.091-0.049c0-1.044-0.87-1.914-2.61-2.608c-1.676-0.696-3.764-1.044-6.263-1.044
						c-2.467,0-4.554,0.348-6.263,1.044c-1.708,0.696-2.562,1.564-2.562,2.608c1.202,0,2.467,0.143,3.795,0.428
						c2.657,0.601,4.333,1.661,5.029,3.179c0.886-1.487,2.641-2.546,5.267-3.179C-223.88,181.036-223.042,180.909-222.284,180.879z"
						/>
					<path fill="#6D3E3E" d="M-247.001,242.745c1.487,0.412,3.068,0.649,4.745,0.712c3.511,0.096,5.867-0.742,7.069-2.515
						c0.253,1.265,0.016,2.783-0.712,4.555l-1.139,2.277c1.392,0.032,2.895-0.158,4.507-0.569c3.227-0.854,5.33-2.388,6.31-4.602
						c0.823,0.19,1.518,0.665,2.087,1.423l0.665,1.091c0.411-0.126,1.138-0.442,2.182-0.948c1.898-0.917,3.985-2.277,6.263-4.08
						c2.53-1.993,4.238-4.523,5.124-7.592c0.443-1.55,0.617-2.878,0.522-3.985l-0.143-12.572l-0.332,0.854
						c-0.38,0.791-0.807,1.471-1.281,2.041c-1.582,2.087-3.701,3.337-6.358,3.747c-2.688,0.475-5.583,0.079-8.682-1.186
						c-1.518-0.601-2.815-1.265-3.891-1.993c-7.053,3.638-12.81,4.254-17.269,1.852c-1.423-0.791-2.594-1.818-3.511-3.083
						c-0.475-0.602-0.807-1.155-0.996-1.661l-2.752,19.974c0.728,0.443,1.677,0.665,2.846,0.665c2.373,0,4.713-1.091,7.022-3.274
						c-0.412,2.024-0.933,4.112-1.566,6.264L-247.001,242.745z"/>
					<path fill="#020303" d="M-222.71,205.881c-0.348,0.284-0.521,0.665-0.521,1.139c0,0.443,0.173,0.838,0.521,1.186
						c0.285,0.284,0.648,0.428,1.091,0.428c0.506,0,0.917-0.144,1.234-0.428c0.284-0.348,0.426-0.742,0.426-1.186
						c0-0.475-0.142-0.854-0.426-1.139c-0.348-0.349-0.76-0.521-1.234-0.521C-222.063,205.359-222.425,205.533-222.71,205.881z"/>
					<path fill="#020303" d="M-241.26,205.881c-0.348,0.284-0.522,0.665-0.522,1.139c0,0.443,0.174,0.838,0.522,1.186
						c0.284,0.284,0.648,0.428,1.091,0.428c0.506,0,0.917-0.144,1.233-0.428c0.253-0.284,0.38-0.68,0.38-1.186
						s-0.126-0.886-0.38-1.139c-0.348-0.349-0.759-0.521-1.233-0.521C-240.612,205.359-240.977,205.533-241.26,205.881z"/>
					<path fill="#FFD39B" d="M-281.208,54.819l0.427-8.493c0.094-2.499-0.316-4.38-1.234-5.646l-0.379-0.617
						c-1.233-1.581-2.119-3.416-2.657-5.503l-0.38-1.566c-0.221-0.791-0.759-1.423-1.613-1.896c-0.854-0.443-1.74-0.554-2.657-0.333
						l-1.043,0.285c-1.012,0.253-1.945,0.744-2.799,1.471c-0.822,0.727-1.408,1.534-1.755,2.419l-1.471,4.175
						c-0.285,0.854-0.332,1.819-0.142,2.896c0.158,1.106,0.506,2.008,1.043,2.704l1.993,2.704c0.664,0.948,1.993,4.364,3.985,10.247
						L-281.208,54.819z"/>
					<g>
						<path fill="#304779" d="M-247.477,157.867h36.912c5.788,0,10.754-2.056,14.897-6.167c4.112-4.175,6.168-9.141,6.168-14.896
							l-1.613-104.615h-75.056l-2.42,104.615c0,5.818,2.056,10.786,6.167,14.896C-258.246,155.812-253.265,157.867-247.477,157.867z
							"/>
						<polygon fill="#455A7D" points="-209,142.422 -214.65,134.821 -206.8,128.371 -228,61.871 -217.5,157.321 						"/>
						<polygon fill="#455A7D" points="-244.25,134.81 -249.896,142.4 -241.355,157.299 -227.977,61.889 -252.079,128.357 						"/>
						<polygon fill="#EBF7FE" points="-242.779,157.299 -217.492,157.299 -227.977,61.889 						"/>
						<polygon fill="#FFFFFF" points="-221.524,162.043 -213.412,154.119 -221.667,139.696 -230.301,148.711 						"/>
						<polygon fill="#FFFFFF" points="-238.461,161.854 -230.301,148.711 -238.747,139.696 -246.575,153.978 						"/>
						<polygon fill="#CA6959" points="-223.279,104.493 -227.977,61.889 -234.571,104.54 -230.301,148.711 						"/>
						<polygon fill="#CA6959" points="-223.47,141.595 -229.638,133.481 -236.659,141.927 -230.301,148.711 						"/>
						<g>
							<path fill="#304779" d="M-255.305,156.444l5.171-15.562c-1.139-0.442-2.467-1.218-3.985-2.324
								c-3.131-2.277-6.041-5.282-8.729-9.015c-8.571-11.861-13.379-28.608-14.423-50.243c-0.443-8.51-0.617-17.207-0.522-26.096
								h-16.369c-0.095,9.301,0.079,18.25,0.521,26.854c1.329,26.727,7.923,47.38,19.785,61.962
								c3.795,4.649,7.923,8.397,12.383,11.244C-259.101,154.815-257.043,155.875-255.305,156.444z"/>
						</g>
						<g>
							<path fill="#304779" d="M-198,151.871c1.073-0.709,2.24-1.492,3.5-2.35c6.467-4.4,13.1-9.517,19.9-15.35
								c6.8-5.833,16.434-1.768,28.9,12.199l9.05-10.05c-19.133-20.732-33.533-27.017-43.2-18.85
								c-7.337,6.203-13.387,11.103-18.15,14.7V151.871z"/>
						</g>
					</g>
					<path fill="#D9D1BD" d="M-190.4-104.309l-0.143-11.719h-27.707v11.055c0,1.613,0.585,3.004,1.755,4.175
						c1.17,1.17,2.562,1.757,4.175,1.757h16.036c0.19-1.52,0.854-2.769,1.993-3.749C-193.215-103.803-191.918-104.309-190.4-104.309
						z"/>
					<path fill="#ECE5E1" d="M-182.382-111.853v-4.175h-18.409v4.175c0,2.056,0.743,3.827,2.23,5.313
						c1.455,1.486,3.21,2.229,5.266,2.229h3.369c2.151,0,3.922-0.743,5.313-2.229C-183.125-107.993-182.382-109.765-182.382-111.853
						z"/>
					<path fill="#ECE5E1" d="M-212.842-106.586c1.423-1.423,2.135-3.179,2.135-5.266v-4.175h-7.543v11.055l0.095,0.664
						C-216.068-104.371-214.296-105.132-212.842-106.586z"/>
					<path fill="#D9D1BD" d="M-206.958-99.423v1.329c0,0.949,0.348,1.755,1.044,2.419c0.664,0.729,1.471,1.091,2.419,1.091h3.749
						c0.98,0,1.803-0.363,2.467-1.091c0.664-0.665,0.996-1.471,0.996-2.419v-1.329H-206.958z"/>
					<polygon fill="#D9D1BD" points="-181.292,-116.027 -218.25,-116.027 -218.25,-112.138 -181.292,-112.138 					"/>
					<path fill="#D9D1BD" d="M-252.411-99.041h16.036c0.158-1.52,0.791-2.769,1.897-3.749c1.107-1.013,2.436-1.519,3.985-1.519
						l-0.143-11.719h-27.705v11.055c0,1.646,0.585,3.036,1.755,4.175C-255.509-99.628-254.119-99.041-252.411-99.041z"/>
					<path fill="#ECE5E1" d="M-221.43-111.853v-4.175h-18.456v4.175c0,2.056,0.744,3.827,2.23,5.313
						c1.455,1.486,3.226,2.229,5.314,2.229h3.368c2.119,0,3.906-0.743,5.361-2.229C-222.156-107.993-221.43-109.765-221.43-111.853z
						"/>
					<path fill="#ECE5E1" d="M-258.293-104.309c2.087-0.063,3.859-0.823,5.314-2.277c1.455-1.423,2.182-3.179,2.182-5.266v-4.175
						h-7.543v11.055L-258.293-104.309z"/>
					<path fill="#D9D1BD" d="M-247.097-99.423v1.329c0,0.949,0.332,1.755,0.997,2.419c0.664,0.729,1.502,1.091,2.514,1.091h3.701
						c0.886,0,1.724-0.363,2.515-1.091c0.664-0.665,0.997-1.471,0.997-2.419v-1.329H-247.097z"/>
					<polygon fill="#D9D1BD" points="-258.34,-112.138 -221.43,-112.138 -221.43,-116.027 -258.34,-116.027 					"/>
					
						<line fill="none" stroke="#050607" stroke-width="1.35" stroke-linecap="round" x1="-241.784" y1="-100.466" x2="-236.517" y2="-100.466"/>
					
						<line fill="none" stroke="#050607" stroke-width="1.35" stroke-linecap="round" x1="-239.885" y1="-103.359" x2="-234.619" y2="-103.359"/>
					
						<line fill="none" stroke="#050607" stroke-width="1.35" stroke-linecap="round" x1="-201.17" y1="-100.466" x2="-195.904" y2="-100.466"/>
					
						<line fill="none" stroke="#050607" stroke-width="1.35" stroke-linecap="round" x1="-199.272" y1="-103.359" x2="-194.055" y2="-103.359"/>
				</g>
			</g>
		</g>
		<g>
			
				<path fill="none" stroke="#333333" stroke-width="2.8" stroke-linecap="round" stroke-linejoin="round" stroke-miterlimit="3" d="
				M-175.05-246.379h372.2c10.232,0,15.35,5.117,15.35,15.351v48.399c0,10.233-5.117,15.351-15.35,15.351h-372.2
				c-10.233,0-15.35-5.117-15.35-15.351v-48.399C-190.399-241.262-185.284-246.379-175.05-246.379z"/>
			<g>
				<g>
					
						<path fill="none" stroke="#009999" stroke-width="8.65" stroke-linecap="round" stroke-linejoin="round" stroke-miterlimit="3" d="
						M286.1-32.179h-80.899c-4.4,0-6.601-2.333-6.601-7v-69.899c0-4.634,2.2-6.95,6.601-6.95H286.1c4.4,0,6.601,2.315,6.601,6.95
						v69.899C292.7-34.512,290.5-32.179,286.1-32.179z"/>
				</g>
				<g>
					
						<polyline fill="none" stroke="#006600" stroke-width="16.3" stroke-linecap="round" stroke-linejoin="round" stroke-miterlimit="3" points="
						220.7,-69.078 246.049,-101.028 271.35,-50.328 					"/>
				</g>
			</g>
			<text transform="matrix(0.9519 0 0 -1 213.0991 9.7979)" font-family="'Consolas-Bold'" font-size="55.912">Да</text>
			<text transform="matrix(1 0 0 -1 -129.355 -193.4668)" font-family="'Consolas'" font-size="22">Исходя из этих данных, </text>
			<text transform="matrix(1 0 0 -1 -141.4512 -221.2168)" font-family="'Consolas'" font-size="22">можно сделать вывод, что…</text>
		</g>
		<g>
			<g>
				<g>
					<polygon fill="#EBEBEC" points="168.299,-72.929 -95.101,-72.929 -95.101,217.922 168.299,217.922 					"/>
					<polygon fill="none" stroke="#DCDDDE" stroke-miterlimit="10" points="168.299,-72.929 -95.101,-72.929 -95.101,217.922 
						168.299,217.922 					"/>
					<polygon fill="#DADBDC" points="168.299,-80.179 -95.101,-80.179 -95.101,-51.328 168.299,-51.328 					"/>
					<polygon fill="none" stroke="#DCDDDE" stroke-miterlimit="10" points="168.299,-80.179 -95.101,-80.179 -95.101,-51.328 
						168.299,-51.328 					"/>
					<path fill="#FFFFFF" d="M157.349-33.129c1.935-2.066,2.9-4.566,2.9-7.5c0-2.967-0.966-5.482-2.9-7.55
						c-1.966-2.1-4.315-3.149-7.05-3.149h-47.35c-2.733,0-5.083,1.05-7.05,3.149c-1.935,2.067-2.9,4.583-2.9,7.55
						c0,2.934,0.967,5.434,2.9,7.5c1.966,2.101,4.315,3.15,7.05,3.15h47.35C153.034-29.979,155.383-31.028,157.349-33.129z"/>
					<path fill="none" stroke="#DCDDDE" stroke-miterlimit="10" d="M157.349-33.129c1.935-2.066,2.9-4.566,2.9-7.5
						c0-2.967-0.966-5.482-2.9-7.55c-1.966-2.1-4.315-3.149-7.05-3.149h-47.35c-2.733,0-5.083,1.05-7.05,3.149
						c-1.935,2.067-2.9,4.583-2.9,7.55c0,2.934,0.967,5.434,2.9,7.5c1.966,2.101,4.315,3.15,7.05,3.15h47.35
						C153.034-29.979,155.383-31.028,157.349-33.129z"/>
					<polygon fill="#C9CACC" points="-82.65,-116.229 -95.101,-116.229 -95.101,-80.179 -82.65,-80.179 					"/>
					<polygon fill="#C9CACC" points="155.849,-80.179 168.299,-80.179 168.299,-116.229 155.849,-116.229 					"/>
					<g>
						<polygon fill="#34556C" points="33.75,-49.328 -29.5,-49.629 -29.55,-47.078 33.75,-46.778 						"/>
						<polygon fill="#34556C" points="33.75,-50.828 -29.5,-51.129 -29.5,-49.629 33.75,-49.328 						"/>
						<polygon fill="#231F20" points="37.75,-46.729 37.75,-49.278 33.75,-50.828 33.7,-45.229 						"/>
						<polygon fill="#34556C" points="33.75,-46.778 -29.55,-47.078 -29.55,-45.528 33.75,-45.229 						"/>
						<path fill="#34556C" d="M37.75-49.278v2.55l2.05,0.1c1.367-0.1,2.117-0.566,2.25-1.399s-0.55-1.3-2.05-1.4L37.75-49.278z"/>
					</g>
				</g>
				<g>
					<path fill="#009933" d="M-66.951,1.472v3.5c0.1,0.133,0.2,0.25,0.3,0.35l26.45,27.65c0.3,0.3,0.633,0.533,1,0.7
						c0.4,0.167,0.8,0.25,1.2,0.25H0.95l18.45,21.1c0.3,0.333,0.649,0.583,1.05,0.75c0.399,0.2,0.816,0.3,1.25,0.3h24.25
						l22.149,49.101c0.233,0.533,0.601,0.967,1.101,1.3s1.05,0.5,1.649,0.5H90.2l64.649,78.35c0.533,0.633,1.233,0.983,2.101,1.05
						c0.833,0.101,1.566-0.116,2.2-0.649c0.633-0.533,1-1.233,1.1-2.101c0.066-0.833-0.167-1.566-0.7-2.199L94,101.972
						c-0.3-0.333-0.65-0.601-1.05-0.8c-0.4-0.2-0.833-0.301-1.3-0.301H72.849L50.7,51.771c-0.268-0.533-0.65-0.967-1.15-1.3
						s-1.05-0.5-1.649-0.5H23.099l-18.5-21.101c-0.3-0.333-0.649-0.6-1.05-0.8c-0.399-0.167-0.815-0.25-1.25-0.25h-39l-25.55-26.7
						c-0.6-0.6-1.317-0.917-2.15-0.949c-0.833-0.033-1.55,0.25-2.15,0.85C-66.716,1.154-66.851,1.305-66.951,1.472z"/>
					<path fill="#0099CC" d="M-66.951,1.472v-8.55h30.65l-0.2,2.949c-0.034,0.7,0.183,1.317,0.65,1.851
						c0.434,0.533,1.017,0.833,1.75,0.899c0.7,0.033,1.316-0.183,1.85-0.649c0.5-0.435,0.783-1.018,0.85-1.75l0.25-3.3h39.8v3.149
						c0,0.7,0.25,1.3,0.75,1.8s1.1,0.75,1.8,0.75s1.3-0.25,1.8-0.75s0.75-1.1,0.75-1.8v-3.149h37.4v3.6c0,0.7,0.25,1.3,0.75,1.8
						s1.1,0.75,1.8,0.75s1.3-0.25,1.8-0.75s0.75-1.1,0.75-1.8v-3.6h40.05v3.149c0,0.7,0.25,1.3,0.75,1.8s1.101,0.75,1.8,0.75
						c0.7,0,1.301-0.25,1.801-0.75s0.75-1.1,0.75-1.8v-3.149h43.399l-0.25,3.8c-0.033,0.7,0.185,1.315,0.65,1.85
						c0.434,0.533,1,0.833,1.7,0.9c0.699,0.033,1.315-0.185,1.85-0.65c0.533-0.434,0.833-1,0.9-1.7l0.3-4.199h8.1
						c0.7,0,1.3-0.25,1.8-0.75s0.75-1.101,0.75-1.801c0-0.699-0.25-1.3-0.75-1.8s-1.1-0.75-1.8-0.75h-10.3c-0.067,0-0.133,0-0.2,0
						h-180.9c-0.133,0-0.267,0-0.4,0h-33.2v-12.8c0-0.7-0.25-1.3-0.75-1.8s-1.1-0.75-1.8-0.75c-0.7,0-1.3,0.25-1.8,0.75
						s-0.75,1.1-0.75,1.8v12.8h-12.8c-0.7,0-1.3,0.25-1.8,0.75s-0.75,1.101-0.75,1.8c0,0.7,0.25,1.301,0.75,1.801s1.1,0.75,1.8,0.75
						h12.8v195.6c0,0.7,0.25,1.3,0.75,1.8s1.1,0.75,1.8,0.75c0.7,0,1.3-0.25,1.8-0.75s0.75-1.1,0.75-1.8v-5.75h4.05
						c0.7,0,1.3-0.25,1.8-0.75s0.75-1.1,0.75-1.8s-0.25-1.3-0.75-1.8s-1.1-0.75-1.8-0.75h-4.05v-27.801h4.05
						c0.7,0,1.3-0.25,1.8-0.75s0.75-1.1,0.75-1.8s-0.25-1.3-0.75-1.8s-1.1-0.75-1.8-0.75h-4.05v-26.05h4.9c0.7,0,1.3-0.25,1.8-0.75
						s0.75-1.101,0.75-1.8c0-0.7-0.25-1.301-0.75-1.801s-1.1-0.75-1.8-0.75h-4.9V79.722h3.15c0.7,0,1.3-0.25,1.8-0.75
						s0.75-1.101,0.75-1.8c0-0.7-0.25-1.301-0.75-1.801s-1.1-0.75-1.8-0.75h-3.15v-38.75h5.8c0.7,0,1.3-0.25,1.8-0.75
						s0.75-1.1,0.75-1.8s-0.25-1.3-0.75-1.8s-1.1-0.75-1.8-0.75h-5.8v-25.8V1.472L-66.951,1.472z"/>
				</g>
			</g>
		</g>
	</g>
</symbol>
<g id="Layer_7" display="none">
	
		<rect x="-373.718" y="-398.184" display="inline" fill="#FFFFFF" stroke="#1D1D1B" stroke-miterlimit="10" width="1280" height="760"/>
</g>
<g id="Layer_6" display="none">
	<text transform="matrix(1 0 0 1 -220.4102 -47.6902)" display="inline" font-family="'Consolas'" font-size="17">По KPIs мы можем сравнивать себя с подобными компаниями, функциями и понимать, какой показатель – лучший </text>
	<text transform="matrix(1 0 0 1 -220.4102 -27.2898)" display="inline" font-family="'Consolas'" font-size="17">в своем классе (benchmark), то есть к чему нужно стремиться.</text>
</g>
<g id="Layer_5" display="none">
	<text transform="matrix(1 0 0 1 -224.9102 -89.8113)" display="inline" font-family="'Consolas'" font-size="17">KPIs – это отличное средство мотивации сотрудников. Ведь использование этих показателей позволяет наглядно</text>
	<text transform="matrix(1 0 0 1 -224.9102 -69.4119)" display="inline" font-family="'Consolas'" font-size="17">увидеть, соответствуют ли результаты деятельности сотрудников поставленным целям, и поощрять лучших.</text>
</g>
<g id="Layer_4" display="none">
	<text transform="matrix(1 0 0 1 -199.4106 -137.7771)" display="inline" font-family="'Consolas'" font-size="17">KPIs и PIs служат для оценки удовлетворенности внешних и внутренних клиентов. Ведь это показатели, </text>
	<text transform="matrix(1 0 0 1 -199.4106 -117.3767)" display="inline" font-family="'Consolas'" font-size="17">которые всегда оценивают конечный продукт или услугу, предназначенные для конкретных клиентов.</text>
</g>
<g id="Layer_3" display="none">
	<text transform="matrix(1 0 0 1 -158.9141 -187.5515)" display="inline" font-family="'Consolas'" font-size="17">KPIs и PIs служат инструментом эффективного контроля и планирования. Они позволяют поддерживать и </text>
	<text transform="matrix(1 0 0 1 -158.9141 -167.1511)" display="inline" font-family="'Consolas'" font-size="17">улучшать результаты предприятия, приближая эффективность производства к мировым стандартам.</text>
</g>
<g id="Layer_2" display="none">
	<text transform="matrix(1 0 0 1 -217.4683 -241.4998)" display="inline" fill="#231F20" font-family="'Consolas'" font-size="17">KPIs и PIs помогают оценивать деятельность сотрудников, подразделений и предприятия не субъективно, </text>
	<text transform="matrix(1 0 0 1 -217.4683 -221.0994)" display="inline" fill="#231F20" font-family="'Consolas'" font-size="17">«на основе ощущений», а по объективным характеристикам, то есть «на основе фактов». Ведь это всегда </text>
	<text transform="matrix(1 0 0 1 -217.4683 -200.7)" display="inline" fill="#231F20" font-family="'Consolas'" font-size="17">количественные, то есть измеримые цифровые показатели.</text>
</g>
<g display="none">
	<rect x="-236.724" y="-155.278" display="inline" fill="#E6E7E8" width="1007.32" height="39"/>
	<polygon display="inline" fill="#F05A28" points="741.418,-127.903 741.418,-127.903 731.168,-139.653 751.668,-139.653 	"/>
</g>
<g display="none">
	<rect x="-236.878" y="-107.517" display="inline" fill="#E6E7E8" width="1007.32" height="39"/>
	<polygon display="inline" fill="#F05A28" points="741.263,-80.142 741.263,-80.142 731.013,-91.892 751.513,-91.892 	"/>
</g>
<g display="none">
	<rect x="-237.354" y="-204.142" display="inline" fill="#E6E7E8" width="1007.32" height="39"/>
	<polygon display="inline" fill="#F05A28" points="740.788,-176.767 740.788,-176.767 730.538,-188.517 751.038,-188.517 	"/>
</g>
<g display="none">
	
		<text transform="matrix(1 0 0 1 -224.8394 -213.4949)" display="inline" fill="#F15E00" font-family="'ArialMT'" font-size="16.6667">1</text>
</g>
<g id="Layer_14" display="none">
	<g id="Layer_1_5_" display="inline">
		<g>
			<path fill="#FFCC99" d="M315.066-23.888v-0.022l0.021,0.022c2.804-2.431,4.336-3.854,4.594-4.264
				c0.259-0.411,0.361-0.551,0.311-0.419c6.214,7.392,14.385,13.502,24.516,18.333c0.088,0.058,0.162,0.103,0.222,0.132
				c-0.296,3.182-0.898,5.86-1.813,8.039c-0.942,2.15-2.164,4.359-3.666,6.627l3.445,2.208l3.666-6.538
				c3.033,1.03,3.888,3.033,2.563,6.008c-1.325,2.944-3.637,3.535-6.935,1.768c-0.562,1.709-2.356,4.563-5.391,8.568
				c-1.647,2.092-3.225,3.829-4.727,5.214l-1.325,4.945c-2.238,2.622-4.313,5.242-6.228,7.864c-1.945,2.621-2.96,4.004-3.05,4.151
				c-0.028,0.058-0.059,0.119-0.089,0.177v-0.044l-3.754-12.148v-0.971c0.088,0,0.162,0,0.222,0
				c-3.916-0.941-7.067-2.371-9.452-4.285c-2.888-2.298-4.552-5.241-4.992-8.834c-0.443-3.593-0.023-7.597,1.26-12.015
				c1.281-4.419,2.525-8.335,3.732-11.75c-2.063-0.588-3.049-1.399-2.96-2.43c0.027-1.091,0.501-2.267,1.414-3.533
				c0.854-1.268,1.634-1.782,2.341-1.545c0.618,0.205,1.531,0.411,2.739,0.616C313.77-21.363,314.88-23.322,315.066-23.888z
				 M315.22-10.636c0-0.06,0-0.103,0-0.133c0-0.707-0.249-1.295-0.75-1.767c-0.441-0.5-0.986-0.75-1.635-0.75
				c-0.028,0-0.059,0-0.089,0c-0.029,0-0.058,0-0.088,0c-0.561,0.059-1.031,0.309-1.413,0.75c-0.472,0.472-0.707,1.06-0.707,1.767
				c0,0.676,0.235,1.268,0.707,1.768c0.44,0.529,0.971,0.795,1.59,0.795c0.647,0,1.192-0.266,1.635-0.795
				C314.941-9.473,315.191-10.019,315.22-10.636z M330.505-4.719c-0.472-0.5-1.063-0.75-1.768-0.75c-0.707,0-1.313,0.25-1.813,0.75
				c-0.471,0.473-0.707,1.075-0.707,1.813s0.236,1.354,0.707,1.854c0.5,0.53,1.104,0.796,1.813,0.796
				c0.705,0,1.296-0.266,1.768-0.796c0.5-0.501,0.751-1.118,0.751-1.854S331.005-4.246,330.505-4.719z M315.22,16.089
				c2.504,0.913,4.595,0.971,6.272,0.176c1.208-0.56,2.637-1.913,4.285-4.063L308.285,4.78c-0.441,2.326-0.501,4.063-0.177,5.214
				C308.786,12.672,311.157,14.702,315.22,16.089z M369.553,126.784l7.687-2.473l1.369,2.296
				c8.188,14.725,9.114,22.203,2.783,22.439l-1.28-1.017l-6.717-8.35c-0.733,5.213-2.017,8.113-3.842,8.703
				c-0.234-4.919-0.383-9.056-0.44-12.413L369.553,126.784z M237.168,63.088c-0.913,1.648-1.885,3.989-2.917,7.021l-7.244-0.706
				c-14.017,4.802-20.275,5.686-18.773,2.651l6.892-3.271c-6.332,2.68-9.836,3.195-10.513,1.547l0.75-1.062l9.673-6.008
				c-6.889,2.799-10.423,3.652-10.602,2.563l0.751-1.104c3.004-2.15,6.42-4.151,10.249-6.006c2.827-1.032,4.476-1.916,4.948-2.65
				c0.883-0.974,1-2.563,0.354-4.771c-0.62-2.208-0.029-3.477,1.767-3.8c-0.324,1.001,1.355,4.226,5.036,9.675l1.988,2.119v-0.043
				L237.168,63.088z"/>
			<path fill="#99CCCC" d="M317.429,26.732l3.754,12.148c-0.734,0.883-1.691,2.165-2.869,3.843l1.545,4.329l-5.918,19.744
				c-0.267-7.243-0.457-16.652-0.574-28.226l-2.254-7.289L317.429,26.732z M321.183,38.925c0.03-0.058,0.061-0.119,0.09-0.177
				c0.089-0.147,1.104-1.53,3.049-4.151c1.913-2.622,3.988-5.242,6.228-7.864l3.933,5.61l-2.738,5.654l-10.204,30.171l-0.662-21.203
				l3.666-3.489C323.246,41.797,322.126,40.28,321.183,38.925z M244.986,64.104l-1.59,4.64c-1.415,3.415-2.562,5.685-3.445,6.803
				v-0.089c-0.59,0.559-0.972,0.868-1.149,0.928l-6.272-1.545l1.722-4.729c1.032-3.032,2.004-5.373,2.917-7.021
				c0.53-0.942,1.045-1.604,1.545-1.988l6.538,2.209L244.986,64.104z M377.239,124.313l-7.687,2.473l-3.047,1.016l-2.784-6.359
				l1.192-1.062l10.602-6.447l0.708-0.397l3.756,9.896L377.239,124.313z"/>
			<path fill="#999999" d="M313.94,66.797c0.323,8.335,0.146,17.728-0.53,28.183l8.128-26.812l10.204-30.171l2.738-5.654
				l16.211,4.286c11.16,2.238,19.437,28.004,24.824,77.303l-10.602,6.447c-1.295-21.557-6.243-43.584-14.842-66.081
				c-1.179,23.733,0.294,44.98,4.418,63.74c-3.712,1.062-7.289,1.87-10.734,2.43c-4.476,0.678-8.746,0.884-12.81,0.619l-26.77-1.062
				c-4.563-0.265-8.318-1.297-11.266-3.093c3.564-24.736,5.449-46.557,5.654-65.464c-3.238,6.834-9.101,14.386-17.58,22.661
				c-2.271,1.891-4.244,3.525-5.918,4.904c-2.664,2.354-5.401,3.18-8.217,2.472l-26.901-5.962c0.884-1.118,2.031-3.389,3.445-6.803
				l1.59-4.64l24.979,7.179c1.142-0.772,2.326-1.797,3.556-3.068c5.891-6.626,10.248-12.369,13.074-17.229
				c4.006-5.948,6.965-10.396,8.879-13.342c3.652-2.797,6.761-4.327,9.321-4.594l6.315-1.768l2.254,7.289
				C313.483,50.145,313.674,59.554,313.94,66.797z"/>
			<path d="M315.066-23.888c-0.452-0.147-1.346-0.221-2.673-0.221c0.234-0.795,0.413-1.915,0.53-3.357
				c0.116-1.237,0.234-1.987,0.354-2.254c0.177-0.529,0.795-1.441,1.855-2.738c1.06-1.295,5.608-2.355,13.647-3.181
				c8.04-0.824,12.723-0.588,14.048,0.708c1.325,1.235,2.798,2.974,4.417,5.211l3.181,1.679c2.297,0.56,3.828,1.398,4.595,2.519
				c0.354,0.5,0.59,1.768,0.706,3.799c0.148,1.768,0.162,3.166,0.046,4.196c-0.148,1.62-0.518,3.888-1.105,6.802
				c-0.676,2.916-1.191,5.462-1.545,7.643c-1.68,0.619-3.372,0.559-5.081-0.177l-1.679,3.488l-3.666,6.538L339.25,4.56
				c1.502-2.268,2.724-4.477,3.666-6.627c0.913-2.179,1.517-4.857,1.813-8.039c-0.06-0.029-0.134-0.074-0.222-0.132
				c-10.131-4.83-18.302-10.94-24.516-18.333c0.052-0.131-0.052,0.009-0.311,0.419c-0.258,0.41-1.79,1.833-4.594,4.264l-0.021-0.022
				L315.066-23.888L315.066-23.888z M330.505-4.719c0.5,0.473,0.751,1.075,0.751,1.813s-0.251,1.354-0.751,1.854
				c-0.472,0.53-1.063,0.796-1.768,0.796c-0.707,0-1.313-0.266-1.813-0.796c-0.471-0.501-0.707-1.118-0.707-1.854
				s0.236-1.34,0.707-1.813c0.5-0.5,1.104-0.75,1.813-0.75C329.443-5.469,330.034-5.219,330.505-4.719z M315.22-10.636
				c-0.028,0.618-0.278,1.164-0.75,1.635c-0.441,0.529-0.986,0.795-1.635,0.795c-0.619,0-1.148-0.266-1.59-0.795
				c-0.472-0.5-0.707-1.092-0.707-1.768c0-0.707,0.235-1.295,0.707-1.767c0.382-0.441,0.854-0.691,1.413-0.75
				c0.03,0,0.059,0,0.088,0c0.03,0,0.061,0,0.089,0c0.647,0,1.192,0.25,1.635,0.75c0.501,0.472,0.75,1.06,0.75,1.767
				C315.22-10.739,315.22-10.696,315.22-10.636z"/>
			<path fill="#242424" d="M321.183,38.881v0.044c0.943,1.354,2.063,2.872,3.358,4.551l-3.666,3.489l0.662,21.203l-8.128,26.812
				c0.677-10.455,0.854-19.848,0.53-28.183l5.918-19.744l-1.546-4.329C319.491,41.046,320.448,39.764,321.183,38.881z
				 M351.133,252.059c1.001,7.156,0.633,11.544-1.104,13.164l-30.037,3.577c-0.235-4.239,5.418-9.202,16.962-14.886L351.133,252.059
				z M307.048,254.797c0.942,6.922,0.501,11.589-1.325,14.003h-31.626c0.941-2.68,7.141-6.817,18.596-12.411L307.048,254.797z"/>
			<path fill="#666666" d="M292.692,256.389l-3.621,0.396c7.215-35.072,12.251-80.659,15.106-136.76l26.77,1.062
				c4.063,0.265,8.334,0.059,12.81-0.619c4.771,45.646,7.229,89.509,7.377,131.591l-14.18,1.855l-4.506,0.617
				c3.121-37.929,1.576-79.924-4.639-125.98h-9.763l-9.762,126.07l-1.237,0.176L292.692,256.389z"/>
			<path fill="#FFFFFF" d="M315.22,16.089c-4.063-1.387-6.435-3.417-7.11-6.097c-0.324-1.149-0.266-2.888,0.177-5.214l17.492,7.423
				c-1.648,2.149-3.077,3.504-4.285,4.063C319.814,17.06,317.724,17.002,315.22,16.089z"/>
		</g>
		<g>
			<path fill="#FFFF99" d="M187.075,45.463l-20.981,10.689l2.429,3.621l20.982-10.775L187.075,45.463z M157.657,53.458
				l29.198-15.195l25.488,36.928L185.75,92.859L157.657,53.458z"/>
			<path fill="#CC9900" d="M187.075,45.463l2.43,3.535l-20.982,10.775l-2.429-3.621L187.075,45.463z M188.224,34.508l28.094,42.804
				l-30.479,20.188l-33.35-44.879L188.224,34.508z M157.657,53.458l28.093,39.4l26.593-17.669l-25.488-36.928L157.657,53.458z"/>
			<g>
				<polygon fill="#CC9900" points="187.836,52.548 189.521,55.002 174.953,62.485 173.266,59.972 				"/>
			</g>
			<g>
				<polygon fill="#CC9900" points="185.522,81.457 194.236,76.453 195.239,77.865 186.551,82.896 				"/>
			</g>
		</g>
		<g>
			<g>
				<g>
					<g>
						<path fill="#FFD39B" d="M163.399,83.673l7.156-2.254c0.324-0.221,1.487-0.838,3.49-1.854
							c10.774,6.211,15.634,9.922,14.577,11.131c-1.055,1.208-3.734,1.075-8.04-0.396c-1.062,2.883-2.416,4.549-4.063,4.99
							c-1.646,0.446-3.177,0.232-4.593-0.642c-1.417-0.873-2.095-1.351-2.033-1.436c0.06-0.086-0.264-0.322-0.971-0.706
							c-0.738-0.383-2.725-0.633-5.964-0.752L163.399,83.673z"/>
						<path fill="#1B597B" d="M88.014,219.123c1.033-1.089,2.263-1.662,3.688-1.718c1.481,0,2.738,0.559,3.773,1.677
							c1.061,1.063,1.592,2.375,1.592,3.939l0.544,39.609c0,1.537-0.517,2.863-1.55,3.981c-1.006,1.116-2.236,1.69-3.689,1.719
							c-1.453,0-2.71-0.531-3.772-1.595c-1.006-1.145-1.538-2.485-1.592-4.022l-0.461-39.609
							C86.519,221.597,87.008,220.269,88.014,219.123z"/>
						<path fill="#3F5272" d="M84.158,120.916c-0.028-2.457,0.754-4.581,2.347-6.37c1.649-1.788,3.647-2.712,5.994-2.768
							l3.772-0.041c2.32-0.027,4.317,0.825,5.995,2.559c1.676,1.787,2.528,3.911,2.557,6.37l1.719,136.181l-20.665,0.209
							L84.158,120.916z"/>
						<path fill="#F8A586" d="M120.288,33.272c-0.698,2.209-1.984,4.01-3.855,5.408c-1.901,1.453-4.066,2.18-6.497,2.18
							c-2.347,0-4.471-0.698-6.371-2.096c-1.816-1.342-3.116-3.13-3.898-5.365l11.107-0.587
							C113.567,32.813,116.739,32.966,120.288,33.272z"/>
						<g>
							<g>
								<path fill="#F8A586" d="M107.858,7.119c1.734,0,3.158,0.601,4.275,1.802c1.201,1.118,1.803,2.529,1.803,4.231v20.246
									l-9.64,6.078l-2.474-6.078V13.153c0-1.676,0.588-3.087,1.761-4.231C104.756,7.72,106.182,7.119,107.858,7.119z"/>
							</g>
						</g>
						<g>
							<path fill="#11132D" d="M89.5-1.433c-0.447,0-0.866-0.167-1.258-0.503c-0.307-0.361-0.461-0.782-0.461-1.257
								c0-0.419,0.154-0.811,0.461-1.173c0.335-0.311,0.755-0.463,1.258-0.463s0.908,0.152,1.215,0.463
								c0.336,0.334,0.504,0.727,0.504,1.173c0,0.503-0.167,0.922-0.504,1.257C90.38-1.6,89.974-1.433,89.5-1.433z"/>
							<path fill="#11132D" d="M103.038-1.433c-0.475,0-0.88-0.167-1.216-0.503c-0.308-0.361-0.46-0.782-0.46-1.257
								c0-0.419,0.152-0.811,0.46-1.173c0.309-0.311,0.713-0.463,1.216-0.463s0.895,0.152,1.174,0.463
								c0.364,0.334,0.545,0.727,0.545,1.173c0,0.503-0.181,0.922-0.545,1.257C103.933-1.6,103.541-1.433,103.038-1.433z"/>
						</g>
						<path fill="#F5E7E7" d="M91.638,14.496c-1.258-1.259-1.886-2.78-1.886-4.569h13.036c0,1.789-0.629,3.312-1.887,4.569
							c-1.286,1.284-2.821,1.927-4.61,1.927C94.473,16.423,92.922,15.781,91.638,14.496z"/>
						<path fill="#1B597B" d="M128.874,218.453c1.063,1.116,1.635,2.416,1.719,3.896c0.643,15.258,1.271,28.377,1.886,39.357
							c0.085,1.566-0.348,2.921-1.299,4.066c-0.978,1.146-2.193,1.761-3.646,1.843c-1.425,0.085-2.697-0.391-3.815-1.424
							c-1.089-1.032-1.676-2.335-1.759-3.897c-0.56-9.919-1.215-23.081-1.97-39.483c-0.084-1.538,0.376-2.879,1.382-4.023
							c0.95-1.118,2.18-1.72,3.689-1.803C126.458,216.959,127.728,217.447,128.874,218.453z"/>
						<line fill="none" stroke="#455A7D" stroke-width="1.35" x1="105.03" y1="143.341" x2="96.355" y2="143.551"/>
						<path fill="#F8A586" d="M89.565,105.493c0.894,0.277,1.634,0.711,2.221,1.298l2.641,2.851c0.558,0.561,0.936,1.356,1.131,2.39
							c0.28,1.007,0.322,1.914,0.126,2.726l-0.293,0.965c-0.224,0.866-0.657,1.521-1.299,1.968c-0.699,0.477-1.398,0.617-2.096,0.42
							l-1.383-0.293c-0.671-0.14-1.579-0.237-2.724-0.294c-0.979-0.025-1.887,0-2.725,0.085l-0.587,0.124
							c-0.727,0.112-1.649-0.042-2.766-0.46c-1.006-0.42-1.733-0.936-2.18-1.55c-1.342-1.763-1.663-3.774-0.964-6.036
							c0.754-2.264,2.305-3.605,4.652-4.023l3.73-0.503C87.86,105.073,88.698,105.186,89.565,105.493z"/>
						<path fill="#6D3E3E" d="M90.045-20.798c-2.04-1.174-3.41-2.863-4.108-5.07c-0.699-2.207-0.587-4.386,0.335-6.538l10.144,5.868
							L90.045-20.798z"/>
						<path fill="#FFD39B" d="M112.469,35.997c-1.285,1.284-2.851,1.93-4.695,1.93c-1.872,0-3.451-0.646-4.736-1.93
							c-1.313-1.313-1.97-2.893-1.97-4.736v-9.43h13.371v9.43C114.438,33.105,113.783,34.685,112.469,35.997z"/>
						<path fill="#FFD39B" d="M118.881-3.695c0-2.096,0.685-3.885,2.054-5.365c1.454-1.479,3.144-2.221,5.073-2.221
							c1.955,0,3.631,0.741,5.029,2.221c1.396,1.537,2.094,3.325,2.094,5.365c0,2.068-0.698,3.869-2.094,5.407
							c-1.398,1.479-3.075,2.221-5.029,2.221c-1.929,0-3.619-0.741-5.073-2.221C119.566,0.231,118.881-1.571,118.881-3.695z"/>
						<path fill="#FFD39B" d="M95.2-33.999c3.158-2.488,7.153-3.73,11.988-3.73h1.258c4.861,0,8.87,1.242,12.028,3.73
							c3.325,2.682,4.988,6.271,4.988,10.77V9.299c0,4.666-1.664,8.676-4.988,12.028c-3.325,3.298-7.335,4.946-12.028,4.946h-1.258
							c-4.695,0-8.69-1.648-11.988-4.946c-3.326-3.325-4.987-7.335-4.987-12.028v-32.528C90.212-27.754,91.874-31.346,95.2-33.999z"
							/>
						<path fill="#FFD39B" d="M95.2-9.899c1.398,1.537,2.096,3.339,2.096,5.408c0,2.04-0.698,3.827-2.096,5.365
							c-1.396,1.479-3.074,2.22-5.03,2.22c-1.928,0-3.618-0.739-5.071-2.22c-1.37-1.481-2.055-3.271-2.055-5.365
							c0-2.124,0.685-3.926,2.055-5.408c1.453-1.479,3.143-2.22,5.071-2.22C92.126-12.12,93.803-11.38,95.2-9.899z"/>
						<path fill="#844B4B" d="M124.457-12.624c1.089,1.174,1.677,5.38,1.76,12.617c0.085,3.632,0.042,7.141-0.126,10.521
							c0.085,7.236-1.229,12.212-3.939,14.922c-1.258,1.258-2.878,2.138-4.862,2.642c-1.677,0.445-3.871,0.671-6.581,0.671h-5.239
							c-2.598,0-4.778-0.238-6.539-0.713c-1.901-0.531-3.507-1.468-4.82-2.81c-2.626-2.794-3.983-7.964-4.065-15.508
							c-0.112-3.271-0.154-6.651-0.126-10.146c0.14-6.955,0.726-11.022,1.76-12.196V2.214c0,2.599,0.894,4.862,2.683,6.791
							c1.76,1.873,3.884,2.808,6.371,2.808h14.712c2.487,0,4.61-0.935,6.371-2.808c1.762-1.871,2.642-4.136,2.642-6.791v-14.838
							H124.457z"/>
						<path fill="#844B4B" d="M121.815-23.689c-1.76-2.066-3.883-3.101-6.371-3.101h-14.712c-2.486,0-4.61,1.034-6.371,3.101
							c-1.789,2.098-2.683,4.557-2.683,7.378v16.138c-1.034-1.201-1.76-6.287-2.18-15.258c-0.112-2.794-0.196-5.813-0.252-9.053
							l-0.042-4.023c0-2.124,0.308-3.688,0.921-4.694c0.559-0.839,1.412-1.3,2.558-1.382c0.866-0.058,2.236,0.055,4.107,0.334
							c2.292,0.307,4.08,0.46,5.365,0.46l12.029-6.413c4.275,0,7.391,0.796,9.348,2.389c2.262,1.845,3.395,4.945,3.395,9.307
							l-0.251,13.076c-0.419,8.997-1.159,14.084-2.221,15.258v-16.138C124.457-19.161,123.577-21.62,121.815-23.689z"/>
						<path fill="#844B4B" d="M116.996,5.148c2.458,1.089,3.688,3.199,3.688,6.329c0,3.438-1.23,6.399-3.688,8.887
							c-2.459,2.431-5.436,3.646-8.928,3.646c-3.437,0-6.398-1.217-8.886-3.646c-2.459-2.459-3.688-5.422-3.688-8.887
							c0-3.13,1.229-5.24,3.688-6.329c1.788-0.811,4.751-1.216,8.886-1.216C112.231,3.933,115.208,4.338,116.996,5.148z"/>
						<path fill="#FFD39B" d="M115.487,12.106l0.963,0.041c0,0.924-0.768,1.691-2.305,2.308c-1.48,0.614-3.325,0.922-5.532,0.922
							c-2.18,0-4.024-0.308-5.534-0.922c-1.508-0.615-2.262-1.384-2.262-2.308c1.062,0,2.18-0.124,3.353-0.376
							c2.347-0.531,3.829-1.467,4.443-2.81c0.782,1.313,2.333,2.25,4.652,2.81C114.076,11.966,114.815,12.078,115.487,12.106z"/>
						<path fill="#6D3E3E" d="M93.649-42.552c1.313-0.361,2.71-0.572,4.191-0.628c3.102-0.085,5.183,0.656,6.244,2.221
							c0.224-1.118,0.015-2.458-0.628-4.024l-1.006-2.012c1.229-0.027,2.557,0.14,3.981,0.504c2.851,0.754,4.708,2.108,5.575,4.064
							c0.727-0.167,1.341-0.586,1.844-1.258l0.587-0.963c0.364,0.111,1.006,0.392,1.929,0.838c1.675,0.812,3.52,2.013,5.532,3.604
							c2.236,1.762,3.744,3.996,4.527,6.706c0.392,1.371,0.544,2.543,0.462,3.521l-0.126,11.107l-0.293-0.755
							c-0.335-0.699-0.713-1.301-1.132-1.804c-1.397-1.845-3.269-2.948-5.616-3.311c-2.374-0.419-4.932-0.071-7.67,1.047
							c-1.342,0.532-2.489,1.118-3.438,1.762c-6.232-3.215-11.317-3.759-15.257-1.635c-1.257,0.698-2.292,1.606-3.102,2.725
							c-0.419,0.531-0.713,1.02-0.88,1.467l-2.432-17.646c0.644-0.393,1.481-0.587,2.515-0.587c2.095,0,4.163,0.963,6.204,2.893
							c-0.364-1.79-0.825-3.636-1.384-5.534L93.649-42.552z"/>
						<path fill="#020303" d="M115.109-9.981c-0.306-0.252-0.46-0.587-0.46-1.006c0-0.393,0.154-0.743,0.46-1.05
							c0.252-0.25,0.574-0.375,0.964-0.375c0.448,0,0.811,0.125,1.09,0.375c0.252,0.308,0.377,0.658,0.377,1.05
							c0,0.418-0.125,0.754-0.377,1.006c-0.307,0.308-0.67,0.46-1.09,0.46C115.683-9.521,115.361-9.675,115.109-9.981z"/>
						<path fill="#020303" d="M98.721-9.981c-0.307-0.252-0.46-0.587-0.46-1.006c0-0.393,0.153-0.743,0.46-1.05
							c0.251-0.25,0.573-0.375,0.964-0.375c0.447,0,0.81,0.125,1.089,0.375c0.224,0.252,0.336,0.603,0.336,1.05
							c0,0.446-0.112,0.78-0.336,1.006c-0.307,0.308-0.669,0.46-1.089,0.46C99.293-9.521,98.972-9.675,98.721-9.981z"/>
						<path fill="#455A7D" d="M109.267,120.959c-0.083-2.433,0.7-4.557,2.348-6.37c1.592-1.79,3.576-2.726,5.952-2.811l3.729-0.041
							c2.348-0.027,4.36,0.825,6.037,2.559c1.648,1.702,2.514,3.785,2.599,6.243c1.229,52.365,2.822,97.438,4.778,135.218
							l-20.622,1.132C112.104,219.473,110.497,174.164,109.267,120.959z"/>
						<g>
							<path fill="#304779" d="M92.952,32.435h26.963c4.229,0.003,6.879,0.952,7.952,2.852c1.07,1.895,1.874,8.99,2.408,21.293
								l3.848,86.889H79.297L77.53,51.046c0-5.144,1.502-9.528,4.505-13.163C85.085,34.251,88.724,32.435,92.952,32.435z"/>
							<polygon fill="#455A7D" points="102.927,49.439 88.35,40.25 95.594,27.838 110.479,43.785 127.132,113.269 97.625,58.185 
															"/>
							<polygon fill="#EBF7FE" points="103.5,31.681 119.491,31.681 128.502,113.269 							"/>
							<polygon fill="#455A7D" points="125.102,31.063 130.049,80.978 115.692,28.104 							"/>
							<polygon fill="#FFFFFF" points="115.053,28.633 115.626,28.633 121.215,32.3 121.877,40.604 118.255,38.306 							"/>
							<g>
								<polygon fill="#CA6959" points="118.122,79.828 118.122,42.193 120.109,44.093 128.061,76.516 128.061,111.59 								"/>
								<polygon fill="#CA6959" points="120.948,44.801 109.994,38.748 113.792,31.857 120.948,36.187 								"/>
							</g>
							<polygon fill="#FFFFFF" points="96.61,29.913 96.61,26.821 115.736,31.991 110.259,47.318 							"/>
							<g>
								<path fill="#304779" d="M99.437,71.945c-5.991-5.175-7.419-6.419-4.285-3.731l3.18-18.244
									c3.239,3.092,7.422,7.155,12.546,12.19s10.682,10.247,16.675,15.639c5.993,5.39,18.442,6.553,37.348,3.489l2.077,12.677
									c-22.165,4.285-37.463,2.98-45.896-3.909C112.646,83.163,105.433,77.125,99.437,71.945z"/>
							</g>
						</g>
						<path fill="#D9D1BD" d="M144.802,264.057l-0.126,10.354h-24.478v-9.767c0-1.426,0.517-2.654,1.551-3.688
							c1.034-1.033,2.262-1.553,3.688-1.553h14.168c0.167,1.344,0.753,2.447,1.759,3.313
							C142.315,263.609,143.461,264.057,144.802,264.057z"/>
						<path fill="#ECE5E1" d="M151.885,270.72v3.689h-16.263v-3.689c0-1.814,0.657-3.38,1.971-4.693
							c1.285-1.313,2.836-1.97,4.651-1.97h2.977c1.899,0,3.465,0.657,4.694,1.97C151.229,267.311,151.885,268.876,151.885,270.72z"
							/>
						<path fill="#ECE5E1" d="M124.976,266.068c1.257,1.259,1.886,2.809,1.886,4.651v3.688h-6.664v-9.766l0.084-0.587
							C122.125,264.111,123.69,264.781,124.976,266.068z"/>
						<path fill="#D9D1BD" d="M130.173,259.739v-1.174c0-0.838,0.309-1.551,0.923-2.138c0.587-0.644,1.299-0.964,2.137-0.964h3.311
							c0.867,0,1.593,0.32,2.181,0.964c0.586,0.587,0.88,1.3,0.88,2.138v1.174H130.173z"/>
						<rect x="120.198" y="270.972" fill="#D9D1BD" width="32.651" height="3.438"/>
						<path fill="#D9D1BD" d="M91.786,259.402h14.167c0.14,1.344,0.699,2.447,1.676,3.313c0.979,0.895,2.152,1.342,3.522,1.342
							l-0.126,10.354H86.547v-9.767c0-1.454,0.516-2.684,1.55-3.688C89.047,259.921,90.277,259.402,91.786,259.402z"/>
						<path fill="#ECE5E1" d="M119.156,270.72v3.689h-16.304v-3.689c0-1.814,0.658-3.38,1.97-4.693
							c1.285-1.313,2.85-1.97,4.694-1.97h2.976c1.873,0,3.451,0.657,4.736,1.97C118.514,267.311,119.156,268.876,119.156,270.72z"/>
						<path fill="#ECE5E1" d="M86.589,264.057c1.844,0.055,3.41,0.727,4.694,2.012c1.286,1.259,1.928,2.809,1.928,4.651v3.689
							h-6.664v-9.767L86.589,264.057z"/>
						<path fill="#D9D1BD" d="M96.481,259.739v-1.174c0-0.838,0.293-1.551,0.88-2.138c0.587-0.644,1.327-0.964,2.221-0.964h3.27
							c0.783,0,1.523,0.32,2.222,0.964c0.586,0.587,0.879,1.3,0.879,2.138v1.174H96.481z"/>
						<rect x="86.547" y="270.972" fill="#D9D1BD" width="32.608" height="3.438"/>
						
							<line fill="none" stroke="#050607" stroke-width="1.35" stroke-linecap="round" x1="101.174" y1="260.66" x2="105.828" y2="260.66"/>
						
							<line fill="none" stroke="#050607" stroke-width="1.35" stroke-linecap="round" x1="102.852" y1="263.218" x2="107.504" y2="263.218"/>
						
							<line fill="none" stroke="#050607" stroke-width="1.35" stroke-linecap="round" x1="135.288" y1="260.66" x2="139.939" y2="260.66"/>
						
							<line fill="none" stroke="#050607" stroke-width="1.35" stroke-linecap="round" x1="136.963" y1="263.218" x2="141.575" y2="263.218"/>
					</g>
					<g>
						<path fill="#304779" d="M161.146,31.238l6.273,11.223c-11.063,9.671-21.039,13.935-29.927,12.787
							c-3.56-0.459-6.718-0.889-9.476-1.281v-12.61c1.311,0.439,2.695,0.904,4.153,1.392
							C140.487,45.527,150.146,41.691,161.146,31.238z"/>
						<path fill="#FFD39B" d="M178.506,31.726c3.476,2.479,5.288,4.1,5.433,4.858c-7.716,3.12-10.41,5.549-8.083,7.289
							c5.208,4.354,5.644,5.856,1.302,4.505c-4.341-1.355-7.227-2.724-8.656-4.108c-1.429-1.384-2.173-2.104-2.231-2.164
							c0-0.028-0.088-0.104-0.267-0.221l-4.108-8.879l7.73-1.635C174.246,30.274,177.207,30.392,178.506,31.726z"/>
					</g>
				</g>
			</g>
		</g>
		<g>
			<g>
				<polygon fill="#FF3333" points="204.347,87.559 200.549,92.816 200.239,79.52 205.54,78.856 208.853,92.242 				"/>
			</g>
			<g>
				<polygon fill="#FF3333" points="204.701,78.901 207.969,74.706 219.808,81.816 213.315,81.686 214.331,88.045 				"/>
			</g>
			<g>
				<path fill="#CC9900" d="M208.72,69.227c1.119,1.887,1.37,3.903,0.752,6.054c-0.532,2.178-1.768,3.826-3.712,4.946
					c-1.913,1.118-3.975,1.368-6.184,0.751c-2.12-0.559-3.739-1.782-4.858-3.666c-1.118-1.942-1.398-4.005-0.839-6.186
					c0.618-2.148,1.884-3.783,3.799-4.901c1.944-1.12,3.976-1.385,6.096-0.796C205.952,66.018,207.602,67.284,208.72,69.227z"/>
				<g>
					<path fill="#FF3333" d="M207.13,69.802c0.884,1.503,1.075,3.092,0.575,4.771c-0.413,1.649-1.37,2.916-2.871,3.801
						c-1.503,0.853-3.108,1.059-4.817,0.616c-1.618-0.44-2.871-1.412-3.754-2.914c-0.853-1.503-1.074-3.093-0.663-4.771
						c0.473-1.679,1.458-2.946,2.961-3.8c1.501-0.884,3.077-1.09,4.727-0.617C204.995,67.329,206.276,68.301,207.13,69.802z"/>
				</g>
			</g>
		</g>
	</g>
</g>
<rect x="2.795" y="3.757" fill="#EBEBEC" width="233.768" height="238.959"/>
<rect x="2.795" y="3.757" fill="none" stroke="#DCDDDE" stroke-miterlimit="10" width="233.768" height="238.959"/>
<path fill="#0099CC" d="M28.278,192.419v3.106v7.588h27.201l-0.178-2.618c-0.029-0.619,0.164-1.168,0.578-1.642
	c0.385-0.473,0.902-0.74,1.553-0.799c0.621-0.029,1.168,0.162,1.643,0.576c0.443,0.385,0.695,0.901,0.754,1.553l0.221,2.93h35.324
	v-2.795c0-0.621,0.221-1.153,0.666-1.6c0.443-0.443,0.975-0.664,1.596-0.664c0.623,0,1.154,0.221,1.598,0.664
	c0.443,0.445,0.666,0.979,0.666,1.6v2.795h33.193v-3.194c0-0.621,0.221-1.152,0.664-1.599c0.445-0.442,0.977-0.664,1.598-0.664
	s1.154,0.222,1.598,0.664c0.443,0.445,0.666,0.978,0.666,1.599v3.194h35.543v-2.795c0-0.621,0.223-1.153,0.666-1.6
	c0.443-0.443,0.977-0.664,1.598-0.664c0.621,0,1.154,0.221,1.598,0.664c0.445,0.445,0.666,0.979,0.666,1.6v2.795h38.518
	l-0.223-3.373c-0.029-0.62,0.164-1.168,0.578-1.641c0.385-0.475,0.887-0.74,1.508-0.799c0.621-0.029,1.168,0.162,1.643,0.576
	c0.473,0.385,0.738,0.889,0.799,1.508l0.266,3.729h7.189c0.621,0,1.152,0.222,1.596,0.666c0.445,0.443,0.666,0.978,0.666,1.597
	c0,0.623-0.221,1.155-0.666,1.6c-0.443,0.443-0.975,0.666-1.596,0.666h-9.143c-0.059,0-0.117,0-0.178,0H58.098
	c-0.119,0-0.236,0-0.355,0H28.278v11.359c0,0.621-0.223,1.151-0.666,1.598c-0.443,0.443-0.976,0.664-1.598,0.664
	c-0.621,0-1.152-0.221-1.597-0.664c-0.444-0.445-0.665-0.977-0.665-1.598v-11.359H12.391c-0.621,0-1.153-0.223-1.597-0.666
	s-0.666-0.977-0.666-1.6c0-0.619,0.222-1.152,0.666-1.597c0.443-0.444,0.976-0.666,1.597-0.666h11.361V29.521
	c0-0.621,0.221-1.153,0.665-1.598s0.976-0.666,1.597-0.666c0.622,0,1.154,0.223,1.598,0.666c0.444,0.443,0.666,0.977,0.666,1.598
	v5.103h3.594c0.621,0,1.154,0.223,1.598,0.666c0.444,0.442,0.666,0.977,0.666,1.598s-0.223,1.154-0.666,1.598
	c-0.443,0.444-0.977,0.666-1.598,0.666h-3.594v24.672h3.594c0.621,0,1.154,0.224,1.598,0.666c0.444,0.443,0.666,0.978,0.666,1.599
	s-0.223,1.153-0.666,1.598c-0.443,0.444-0.977,0.666-1.598,0.666h-3.594V91.47h4.35c0.62,0,1.152,0.221,1.597,0.664
	c0.444,0.445,0.665,0.977,0.665,1.598s-0.221,1.154-0.665,1.599c-0.444,0.443-0.977,0.666-1.597,0.666h-4.35v30.086h2.796
	c0.621,0,1.153,0.223,1.597,0.666c0.444,0.442,0.666,0.977,0.666,1.598s-0.222,1.152-0.666,1.598
	c-0.443,0.443-0.976,0.664-1.597,0.664h-2.796v34.392h5.147c0.621,0,1.153,0.223,1.597,0.666c0.444,0.442,0.666,0.977,0.666,1.598
	s-0.222,1.154-0.666,1.598c-0.443,0.443-0.976,0.666-1.597,0.666h-5.147V192.419z"/>
<path fill="#FFCC00" d="M28.278,192.419c0.089-0.117,0.178-0.222,0.266-0.31l23.475-24.541c0.266-0.266,0.563-0.473,0.888-0.621
	c0.355-0.146,0.71-0.221,1.065-0.221h86.043L156.39,148c0.266-0.297,0.576-0.519,0.932-0.666c0.354-0.179,0.725-0.267,1.109-0.267
	h21.521l0.088-0.178h5.947l-0.045,0.088H198.1l9.451-7.633c6.127-4.652,9.07-4.652,8.832,0l-14.334,12.07
	c-0.354,0.297-0.738,0.532-1.154,0.711c-0.443,0.178-0.871,0.266-1.287,0.266h-16.684l-0.088,0.133v-0.178h-0.313
	c-0.266,0.09-0.547,0.135-0.842,0.135h-22.01l-16.42,18.726c-0.266,0.297-0.576,0.532-0.932,0.711
	c-0.354,0.146-0.725,0.223-1.109,0.223H55.124L32.45,195.837c-0.533,0.533-1.169,0.813-1.908,0.842
	c-0.74,0.031-1.377-0.221-1.908-0.754c-0.148-0.117-0.267-0.25-0.355-0.398L28.278,192.419L28.278,192.419z"/>
<rect x="267.495" y="3.757" fill="#EBEBEC" width="233.768" height="238.959"/>
<rect x="267.495" y="3.757" fill="none" stroke="#DCDDDE" stroke-miterlimit="10" width="233.768" height="238.959"/>
<path fill="#009933" d="M293.028,195.526v-3.106c0.088-0.117,0.178-0.222,0.266-0.31l23.475-24.541
	c0.267-0.266,0.563-0.473,0.888-0.621c0.354-0.146,0.711-0.221,1.065-0.221h34.568L369.665,148c0.266-0.297,0.576-0.519,0.932-0.666
	c0.354-0.179,0.726-0.267,1.109-0.267h21.521l19.656-43.575c0.207-0.476,0.533-0.859,0.978-1.154s0.932-0.443,1.465-0.443h17.174
	l57.375-69.535c0.475-0.563,1.096-0.873,1.865-0.934c0.737-0.088,1.391,0.104,1.953,0.578c0.561,0.473,0.887,1.094,0.975,1.863
	c0.061,0.739-0.148,1.391-0.621,1.952l-58.176,70.513c-0.266,0.295-0.576,0.53-0.932,0.709c-0.356,0.178-0.74,0.266-1.152,0.266
	H417.1l-19.657,43.578c-0.236,0.473-0.576,0.856-1.021,1.152c-0.443,0.297-0.932,0.444-1.463,0.444h-22.012l-16.418,18.726
	c-0.267,0.297-0.576,0.532-0.933,0.711c-0.354,0.146-0.725,0.223-1.108,0.223h-34.613L297.2,195.837
	c-0.533,0.533-1.168,0.813-1.908,0.842c-0.74,0.031-1.377-0.221-1.908-0.754C293.235,195.808,293.116,195.675,293.028,195.526z"/>
<path fill="#0099CC" d="M293.028,195.526v7.588h27.201l-0.179-2.618c-0.028-0.619,0.164-1.168,0.578-1.642
	c0.385-0.473,0.902-0.74,1.553-0.799c0.621-0.029,1.168,0.162,1.644,0.576c0.442,0.385,0.695,0.901,0.754,1.553l0.221,2.93h35.324
	v-2.795c0-0.621,0.221-1.153,0.666-1.6c0.443-0.443,0.975-0.664,1.596-0.664c0.623,0,1.154,0.221,1.599,0.664
	c0.442,0.445,0.666,0.979,0.666,1.6v2.795h33.192v-3.194c0-0.621,0.222-1.152,0.664-1.599c0.445-0.442,0.978-0.664,1.598-0.664
	c0.621,0,1.154,0.222,1.599,0.664c0.442,0.445,0.666,0.978,0.666,1.599v3.194h35.543v-2.795c0-0.621,0.223-1.153,0.666-1.6
	c0.442-0.443,0.977-0.664,1.598-0.664s1.154,0.221,1.599,0.664c0.444,0.445,0.665,0.979,0.665,1.6v2.795h38.519l-0.223-3.373
	c-0.029-0.62,0.164-1.168,0.577-1.641c0.386-0.475,0.888-0.74,1.509-0.799c0.621-0.029,1.168,0.162,1.643,0.576
	c0.473,0.385,0.738,0.889,0.799,1.508l0.267,3.729h7.188c0.621,0,1.152,0.222,1.596,0.666c0.445,0.443,0.666,0.978,0.666,1.597
	c0,0.623-0.221,1.155-0.666,1.6c-0.442,0.443-0.975,0.666-1.596,0.666h-9.143c-0.06,0-0.117,0-0.179,0H322.848
	c-0.118,0-0.235,0-0.354,0h-29.465v11.359c0,0.621-0.223,1.151-0.666,1.598c-0.443,0.443-0.978,0.664-1.598,0.664
	c-0.621,0-1.152-0.221-1.599-0.664c-0.442-0.445-0.664-0.977-0.664-1.598v-11.359h-11.36c-0.621,0-1.152-0.223-1.599-0.666
	c-0.442-0.443-0.664-0.977-0.664-1.6c0-0.619,0.222-1.152,0.664-1.597c0.445-0.444,0.978-0.666,1.599-0.666h11.36V29.521
	c0-0.621,0.222-1.153,0.664-1.598c0.444-0.443,0.978-0.666,1.599-0.666c0.62,0,1.153,0.223,1.598,0.666
	c0.443,0.443,0.666,0.977,0.666,1.598v5.103h3.594c0.621,0,1.154,0.223,1.598,0.666c0.444,0.442,0.666,0.977,0.666,1.598
	s-0.223,1.154-0.666,1.598c-0.443,0.444-0.977,0.666-1.598,0.666h-3.594v24.672h3.594c0.621,0,1.154,0.224,1.598,0.666
	c0.444,0.443,0.666,0.978,0.666,1.599s-0.223,1.153-0.666,1.598s-0.977,0.666-1.598,0.666h-3.594V91.47h4.35
	c0.621,0,1.152,0.221,1.596,0.664c0.445,0.445,0.666,0.977,0.666,1.598s-0.221,1.154-0.666,1.599
	c-0.442,0.442-0.975,0.666-1.596,0.666h-4.35v30.086h2.795c0.621,0,1.154,0.223,1.598,0.666c0.444,0.442,0.666,0.977,0.666,1.598
	s-0.223,1.152-0.666,1.598c-0.443,0.443-0.977,0.664-1.598,0.664h-2.795v34.392h5.147c0.621,0,1.152,0.223,1.597,0.666
	c0.444,0.442,0.666,0.977,0.666,1.598s-0.222,1.154-0.666,1.598c-0.443,0.443-0.976,0.666-1.597,0.666h-5.147v22.896V195.526
	L293.028,195.526z"/>
<g id="Layer_12" display="none">
	<g id="Layer_7_1_" display="inline">
		<g>
			<g>
				<g>
					<rect x="99.006" y="-99.214" fill="#EBEBEC" width="209.397" height="231.221"/>
					<rect x="99.006" y="-99.214" fill="none" stroke="#DCDDDE" stroke-miterlimit="10" width="209.397" height="231.221"/>
					<rect x="99.006" y="114.836" fill="#DADBDC" width="209.397" height="22.935"/>
					<rect x="99.006" y="114.836" fill="none" stroke="#DCDDDE" stroke-miterlimit="10" width="209.397" height="22.935"/>
					<rect x="99.006" y="137.771" fill="#C9CACC" width="9.897" height="28.658"/>
					<rect x="298.507" y="137.771" fill="#C9CACC" width="9.896" height="28.658"/>
				</g>
				<g>
					<path fill="#0099CC" d="M121.385,72.86v6.799h24.366l-0.158-2.348c-0.026-0.556,0.146-1.046,0.517-1.47
						c0.343-0.424,0.807-0.663,1.391-0.716c0.556-0.026,1.046,0.146,1.47,0.517c0.397,0.345,0.623,0.809,0.676,1.393l0.199,2.623
						h31.641v-2.505c0-0.557,0.198-1.033,0.596-1.432s0.874-0.596,1.431-0.596c0.557,0,1.033,0.197,1.432,0.596
						c0.397,0.397,0.596,0.875,0.596,1.432v2.505h29.732v-2.862c0-0.557,0.199-1.032,0.597-1.431
						c0.398-0.397,0.874-0.597,1.43-0.597c0.558,0,1.034,0.199,1.432,0.597c0.398,0.398,0.597,0.874,0.597,1.431v2.862h31.838
						v-2.505c0-0.557,0.198-1.033,0.596-1.432c0.398-0.397,0.875-0.596,1.432-0.596s1.033,0.197,1.432,0.596
						s0.598,0.875,0.598,1.432v2.505h34.5l-0.199-3.021c-0.025-0.556,0.146-1.047,0.519-1.471c0.345-0.424,0.795-0.663,1.353-0.716
						c0.557-0.026,1.047,0.146,1.471,0.518c0.424,0.345,0.662,0.795,0.716,1.351l0.238,3.341h6.438c0.559,0,1.034,0.197,1.433,0.596
						c0.397,0.397,0.597,0.875,0.597,1.431c0,0.559-0.199,1.034-0.597,1.433c-0.398,0.397-0.874,0.596-1.433,0.596h-8.188
						c-0.054,0-0.105,0-0.159,0H148.097c-0.107,0-0.213,0-0.318,0h-26.394v10.175c0,0.558-0.199,1.034-0.596,1.432
						c-0.397,0.398-0.875,0.598-1.43,0.598c-0.558,0-1.034-0.199-1.432-0.598c-0.398-0.397-0.596-0.874-0.596-1.432V83.712h-10.176
						c-0.557,0-1.033-0.198-1.431-0.597c-0.398-0.397-0.596-0.873-0.596-1.432c0-0.556,0.199-1.033,0.596-1.431
						c0.397-0.398,0.874-0.597,1.431-0.597h10.176v-155.5c0-0.556,0.199-1.031,0.596-1.43c0.397-0.397,0.874-0.597,1.432-0.597
						c0.556,0,1.033,0.199,1.43,0.597c0.397,0.398,0.596,0.874,0.596,1.43v4.571h3.22c0.556,0,1.033,0.199,1.431,0.598
						c0.398,0.397,0.596,0.873,0.596,1.431c0,0.557-0.199,1.034-0.596,1.432c-0.397,0.398-0.875,0.597-1.431,0.597h-3.22v22.101
						h3.22c0.556,0,1.033,0.198,1.431,0.597c0.397,0.397,0.596,0.874,0.596,1.432c0,0.557-0.199,1.032-0.596,1.431
						s-0.875,0.596-1.431,0.596h-3.22v20.71h3.896c0.557,0,1.034,0.199,1.432,0.598c0.398,0.397,0.596,0.874,0.596,1.431
						s-0.199,1.033-0.596,1.431c-0.397,0.398-0.875,0.598-1.432,0.598h-3.896v26.949h2.504c0.557,0,1.034,0.198,1.432,0.597
						c0.398,0.397,0.596,0.874,0.596,1.431s-0.199,1.034-0.596,1.432c-0.397,0.398-0.875,0.597-1.432,0.597h-2.504v30.806h4.611
						c0.556,0,1.033,0.199,1.431,0.596c0.397,0.398,0.596,0.875,0.596,1.433c0,0.557-0.199,1.033-0.596,1.431
						c-0.397,0.398-0.875,0.596-1.431,0.596h-4.611v20.513V72.86z"/>
					<path fill="#009933" d="M121.385,72.86v-2.781c0.08-0.105,0.16-0.199,0.239-0.278l21.027-21.981
						c0.239-0.238,0.504-0.424,0.795-0.556c0.318-0.134,0.637-0.199,0.955-0.199h30.963l14.669-16.774
						c0.237-0.265,0.516-0.462,0.834-0.597c0.318-0.157,0.648-0.236,0.993-0.236h19.278l17.609-39.034
						c0.185-0.424,0.477-0.77,0.874-1.033c0.397-0.266,0.836-0.397,1.313-0.397h15.382l51.396-62.286
						c0.424-0.504,0.979-0.782,1.669-0.835c0.663-0.079,1.245,0.093,1.75,0.517c0.503,0.424,0.795,0.98,0.874,1.669
						c0.053,0.663-0.134,1.246-0.558,1.749l-52.11,63.162c-0.238,0.266-0.517,0.477-0.835,0.636s-0.661,0.238-1.032,0.238h-14.946
						l-17.609,39.033c-0.211,0.424-0.517,0.769-0.915,1.034c-0.396,0.266-0.833,0.396-1.31,0.396h-19.717l-14.707,16.773
						c-0.239,0.266-0.517,0.478-0.835,0.637c-0.317,0.132-0.649,0.199-0.994,0.199h-31.004L125.122,73.14
						c-0.478,0.478-1.046,0.729-1.709,0.756c-0.663,0.026-1.233-0.199-1.709-0.677C121.571,73.112,121.464,72.992,121.385,72.86z"/>
				</g>
			</g>
		</g>
		<g>
			<path fill="#977A06" d="M328.08,24.089l-10.136,11.407l90.111,102.313c23.795,4.214,32.58-4.2,26.354-25.24l5.287,4.453
				c9.54,27.824-0.608,39.1-30.447,33.825L305.106,32.595c-13.648,9.778-29.389,14.999-47.223,15.661
				c-23.929,0.849-44.665-6.813-62.208-22.976c-3.366-3.073-6.427-6.294-9.183-9.658c16.722,13.886,36.212,20.43,58.472,19.635
				c23.955-0.821,44.081-9.938,60.378-27.347c16.377-17.33,24.128-37.843,23.254-61.531c-0.662-19.159-6.811-35.841-18.442-50.045
				c1.271,1.034,2.544,2.134,3.814,3.3c17.544,16.165,26.739,36.092,27.587,59.782c0.77,22.393-6.135,41.948-20.71,58.67
				L328.08,24.089z"/>
			<path fill="#CCCC00" d="M434.409,112.569c6.228,21.04-2.559,29.454-26.354,25.24L317.944,35.496l10.136-11.407L434.409,112.569z"
				/>
			<g>
				<g>
					<path fill="#EBEBEC" d="M191.225-102.95c8.664-7.605,15.938-11.832,21.821-12.68h83.652l15.124,15.959v97.604L280.64,24.048
						l-60.041,7.95l-12.74-8.486l0.021,0.02L177.511,3.259h-0.04l-12.799-36.37C162.288-62.021,171.138-85.302,191.225-102.95z"/>
					<g>
						<path fill="#00CC00" d="M195.318,0.676c0.266-0.609,0.649-1.073,1.153-1.392c0.557-0.37,1.152-0.557,1.789-0.557h20.431
							l41.5-51.654l-8.905-6.618l42.294-24.725l-13.912,45.831l-9.302-6.936v0.615l-0.039-0.039L227.277,8.745
							c-0.318,0.371-0.689,0.647-1.113,0.835c-0.424,0.236-0.888,0.356-1.391,0.356h-19.796l-6.141,15.323l-10.633-8.308
							L195.318,0.676z"/>
					</g>
				</g>
				<text transform="matrix(0.801 0 0 1 201.2837 -79.3777)" fill="#FF0000" font-family="'Corbel-Bold'" font-size="35.121">200%</text>
			</g>
			<g>
				<path fill="#CCCC00" d="M168.289-36.291c1.3,8.798,4.36,17.37,9.183,25.718c2.411,4.187,5.101,7.989,8.069,11.408
					c8.453,10.096,19.291,17.265,32.516,21.504l4.291,1.231c1.405,0.397,2.809,0.756,4.214,1.073
					c18.232,3.737,35.589,0.849,52.071-8.666c17.782-10.255,29.374-25.24,34.781-44.955c3.869-14.15,3.709-27.771-0.479-40.861
					c-0.265-1.404-0.583-2.797-0.953-4.175c-1.112-4.372-2.837-8.571-5.168-12.6c-7.313-12.667-19.794-23.201-37.443-31.601
					c-17.781-8.349-36.715-8.414-56.801-0.199c-18.921,7.685-32.275,20.947-40.067,39.788c-1.829,4.452-3.22,8.891-4.173,13.314
					C166.209-55.688,166.195-46.016,168.289-36.291z M160.14-69.203c6.414-23.293,20.154-41.021,41.221-53.185
					c21.041-12.164,43.233-15.185,66.58-9.063c4.479,1.192,8.758,2.637,12.838,4.332c17.174,7.262,30.606,19.319,40.308,36.172
					c12.057,20.855,14.879,42.929,8.467,66.223c-6.334,23.319-20.021,41.063-41.062,53.225
					c-19.557,11.289-40.134,14.693-61.73,10.217c-1.669-0.371-3.339-0.77-5.009-1.192c-23.346-6.123-41.048-19.61-53.104-40.465
					C156.643-23.771,153.807-45.857,160.14-69.203z"/>
				<path fill="#339999" d="M168.289-36.291c-2.093-9.726-2.079-19.397,0.041-29.019c0.953-4.425,2.344-8.862,4.173-13.314
					c7.792-18.841,21.146-32.104,40.067-39.788c20.086-8.215,39.02-8.148,56.801,0.199c17.649,8.398,30.131,18.934,37.443,31.601
					c2.331,4.027,4.056,8.228,5.168,12.6c0.37,1.378,0.688,2.771,0.953,4.175c0.134,0.82,0.266,1.655,0.397,2.505
					c1.141,4.397,1.854,8.797,2.146,13.195c0.078,0.98,0.134,1.961,0.159,2.94c-2.757-8.559-6.295-16.429-10.613-23.61
					c-4.239-7.102-8.585-12.533-13.038-16.297c-13.329-11.051-27.68-17.503-43.047-19.356c-13.383-1.591-25.347,0.409-35.895,6.001
					c-9.486,4.981-17.82,11.634-25.001,19.954c-7.129,8.215-11.568,16.125-13.316,23.73c-3.551,15.024-4.77,26.472-3.658,34.342
					C169.905-29.719,168.978-33.005,168.289-36.291z"/>
			</g>
		</g>
	</g>
</g>
<g id="Layer_13" display="none">
	<g id="Layer_2_1_" display="inline">
		
			<use xlink:href="#_x33_hands"  width="240.147" height="363.806" x="-120.073" y="-181.903" transform="matrix(0.925 0 0 -0.925 227.0127 66.3469)" overflow="visible"/>
	</g>
</g>
<g id="Layer_11" display="none">
	<g id="Layer_5_1_" display="inline">
		
			<use xlink:href="#no"  width="405.7" height="476.861" x="-202.85" y="-238.43" transform="matrix(0.6504 0 0 -0.6504 59.6748 -13.4587)" overflow="visible"/>
	</g>
	<g id="Layer_1_6_" display="inline">
		
			<use xlink:href="#yes"  width="594.052" height="495.557" x="-297.026" y="-247.779" transform="matrix(0.6504 0 0 -0.6504 409.9326 -19.5369)" overflow="visible"/>
	</g>
</g>
<polygon fill="none" points="151.782,234.661 233.782,234.661 233.782,234.661 "/>
<g id="Layer_9" display="none">
	<text transform="matrix(1 0 0 1 -227.9097 -127.9031)" display="inline" font-family="'Consolas'" font-size="17">4. Мотивация сотрудников</text>
</g>
<g id="Layer_10" display="none">
	<text transform="matrix(1 0 0 1 -227.9097 -83.0164)" display="inline" font-family="'Consolas'" font-size="17">5. Бенчмаркинг</text>
</g>
</svg>
