<?xml version="1.0" encoding="utf-8"?>
<!-- Generator: Adobe Illustrator 15.1.0, SVG Export Plug-In . SVG Version: 6.00 Build 0)  -->
<!DOCTYPE svg PUBLIC "-//W3C//DTD SVG 1.1//EN" "http://www.w3.org/Graphics/SVG/1.1/DTD/svg11.dtd">
<svg version="1.1" xmlns="http://www.w3.org/2000/svg" xmlns:xlink="http://www.w3.org/1999/xlink" x="0px" y="0px" width="685px"
	 height="329.689px" viewBox="0 0 685 329.689" enable-background="new 0 0 685 329.689" xml:space="preserve">
<symbol  id="no" viewBox="-1.4 -476.85 405.7 476.861">
	<g id="Layer_1_3_">
		<g>
			<g>
				<path fill-rule="evenodd" clip-rule="evenodd" fill="#FFCC99" d="M215.5-78.55c-3.533,1.033-6.35,1.65-8.45,1.85l1.3,9.6
					l0.05-0.05l-0.05,0.85l-0.6,2.45c-2.7,7-4.633,10.667-5.8,11c1.5,1.467,3.067,1.183,4.7-0.85c1.633-2,3.2-2.9,4.7-2.7
					c0.966-0.066,2.867,0.9,5.7,2.9c4.2,2.4,8.317,4.283,12.35,5.65h1.5c0.867-0.833-2.233-3.583-9.3-8.25l11.85,5.15h1.5
					c1.133-1.733-1.617-4.683-8.25-8.85l7.5,4.3c3.833-0.5-1.066-5.75-14.7-15.75L215.5-78.55z M142.4-12.05
					c0.967-1.066,1.933-2.383,2.9-3.95c0.8-1.267,1.533-2.483,2.2-3.65c0.7,0.233,1.4,0.467,2.1,0.7
					c0.8,0.267,1.683-0.317,2.65-1.75c1.033-1.433,1.566-2.767,1.6-4c0.1-1.167-0.517-2.15-1.85-2.95l0.6-1.6
					c0.933-2.167,1.683-4.817,2.25-7.95c0.566-3.133,0.733-7.067,0.5-11.8c-0.2-4.667-0.434-6.784-0.7-6.35
					c-2.067-7.467-7.033-12.184-14.9-14.15c0.066,0,0.15,0,0.25,0v-1.1l-4.3-13.8v-0.05c-0.033,0.067-0.066,0.133-0.1,0.2
					c-0.1,0.167-1.25,1.733-3.45,4.7c-2.2,3-4.567,5.983-7.1,8.95l-1.5,5.65c-1.733,1.567-3.533,3.55-5.4,5.95
					c-3.467,4.533-5.517,7.783-6.15,9.75c-3.733-2.034-6.367-1.367-7.9,2c-1.5,3.4-0.517,5.683,2.95,6.85l4.15-7.45l3.95,2.5
					c-1.733,2.6-3.133,5.117-4.2,7.55c-1.033,2.5-1.716,5.55-2.05,9.15c0.067,0.034,0.15,0.083,0.25,0.15
					c11.533,5.5,20.833,12.466,27.9,20.9c0.867-0.434,1.767-1.017,2.7-1.75C140.65-10.083,141.533-10.983,142.4-12.05z M145.4-25
					c-0.033,0-0.067,0-0.1,0s-0.066,0-0.1,0c-0.733,0-1.35-0.284-1.85-0.85c-0.567-0.567-0.85-1.25-0.85-2.05
					c0-0.033,0-0.083,0-0.15c0.033-0.7,0.316-1.316,0.85-1.85c0.5-0.6,1.117-0.9,1.85-0.9c0.7,0,1.317,0.3,1.85,0.9
					c0.533,0.567,0.8,1.233,0.8,2c0,0.8-0.267,1.483-0.8,2.05C146.583-25.35,146.033-25.067,145.4-25z M129.95-36.85
					c0,0.833-0.267,1.533-0.8,2.1c-0.567,0.566-1.25,0.85-2.05,0.85c-0.8,0-1.467-0.283-2-0.85c-0.567-0.567-0.85-1.267-0.85-2.1
					c0-0.833,0.283-1.533,0.85-2.1c0.533-0.6,1.2-0.9,2-0.9c0.8,0,1.483,0.3,2.05,0.9C129.683-38.383,129.95-37.684,129.95-36.85z
					 M71.85-181.7l8.75-2.85L81.15-195c-0.067-3.833-0.25-8.55-0.55-14.15c-2.067,0.7-3.517,4.017-4.35,9.95l-7.65-9.55l-1.45-1.15
					c-7.2,0.267-6.15,8.784,3.15,25.55L71.85-181.7z"/>
				<path fill-rule="evenodd" clip-rule="evenodd" fill="#99CCCC" d="M215.5-78.55l5.5-1.4l-2.65-6.9
					c-0.233-0.2-0.55-0.333-0.95-0.4h-0.6l0.05-0.1c-1.6-0.1-4.45,0.283-8.55,1.15l-5.35,1.55l-1,0.3l1.5,6.9l0.65,0.6
					c0.733,0.2,1.716,0.25,2.95,0.15C209.15-76.9,211.967-77.517,215.5-78.55z M135.7-84.45c-1.066-1.567-2.333-3.3-3.8-5.2l4.15-4
					l-0.75-24.15l-11.6,34.4c0.167-0.3,0.317-0.6,0.45-0.9l1.3-2.55l-0.25,0.55c-0.2,0.367-0.4,0.75-0.6,1.15L120.55-77l4.5,6.4
					c2.533-2.967,4.9-5.95,7.1-8.95c2.2-2.967,3.35-4.533,3.45-4.7C135.633-84.317,135.667-84.383,135.7-84.45z M143.95-116.2
					l-6.75,22.45l1.8,4.95c-1.367,1.9-2.467,3.367-3.3,4.4l4.3,13.8l7.2-5.15l-2.6-8.3C144.467-97.25,144.25-107.967,143.95-116.2z
					 M85.9-177.25l1.35-1.2l-3.15-7.25l-3.5,1.15l-8.75,2.85l-3.1,1l4.3,11.25l0.8-0.45l6.05-3l0.55-0.45h0.1l2.95-1.85h0.1
					L85.9-177.25z"/>
				<path fill-rule="evenodd" clip-rule="evenodd" fill="#999999" d="M135.3-117.8l9.25-30.5c-0.767,11.9-0.967,22.6-0.6,32.1
					c0.3,8.233,0.517,18.95,0.65,32.15l2.6,8.3l7.15-2.05c2.933-0.3,6.483-2.033,10.65-5.2l22.5-32.25
					c2.333-2.934,3.983-2.983,4.95-0.15l10.5,30.75l5.35-1.55c4.1-0.867,6.95-1.25,8.55-1.15h0.05l-17.75-39.8l-2.6-2.8
					c-2.267-1.3-5.283-2.2-9.05-2.7c-8.667,2.667-17.35,14.534-26.05,35.6c0.233-22.667,2.383-48.083,6.45-76.25
					c-3.367-2.066-7.65-3.25-12.85-3.55l-30.45-1.2c-4.633-0.3-9.5-0.066-14.6,0.7c-3.934,0.633-8,1.566-12.2,2.8
					c4.667,21.333,6.333,45.517,5,72.55c-9.8-25.6-15.433-50.684-16.9-75.25l-2.3,2.05h-0.1l-2.95,1.85h-0.1l-0.55,0.45l-6.05,3
					c6.133,56.133,15.55,85.483,28.25,88.05L120.55-77l4.05-8.15c0.2-0.4,0.4-0.783,0.6-1.15l0.25-0.55l-1.3,2.55
					c-0.133,0.3-0.283,0.6-0.45,0.9L135.3-117.8z"/>
				<path fill-rule="evenodd" clip-rule="evenodd" d="M109.15-28.5c-0.933,0-1.017-0.05-0.25-0.15c0.333-3.6,1.017-6.65,2.05-9.15
					c1.067-2.433,2.467-4.95,4.2-7.55l-3.95-2.5l-4.15,7.45l-1.95,3.95c-1.934-0.833-3.85-0.9-5.75-0.2c-0.4,2.5-0.983,5.4-1.75,8.7
					c-0.7,3.333-1.133,5.917-1.3,7.75c-0.167,1.867-0.283,3.533-0.35,5c-0.033,1.5,0.367,2.867,1.2,4.1c0.9,1.3,2.65,2.267,5.25,2.9
					l3.65,1.9c1.833,2.533,3.55,4.317,5.15,5.35c1.6,1.033,6.934,1.233,16,0.6c9.133-0.633,14.267-1.617,15.4-2.95
					c1.2-1.4,1.9-2.4,2.1-3c0.133-0.3,0.267-1.15,0.4-2.55c0.133-1.667,0.333-2.95,0.6-3.85c-1.533,0-2.633,0.217-3.3,0.65
					c-0.867,1.067-1.75,1.967-2.65,2.7c-0.934,0.733-1.833,1.316-2.7,1.75C129.983-16.034,120.683-23,109.15-28.5z M129.95-36.85
					c0-0.833-0.267-1.533-0.8-2.1c-0.567-0.6-1.25-0.9-2.05-0.9c-0.8,0-1.467,0.3-2,0.9c-0.567,0.567-0.85,1.267-0.85,2.1
					c0,0.833,0.283,1.533,0.85,2.1c0.533,0.566,1.2,0.85,2,0.85c0.8,0,1.483-0.283,2.05-0.85
					C129.683-35.317,129.95-36.017,129.95-36.85z M145.4-25c0.633-0.067,1.183-0.35,1.65-0.85c0.533-0.567,0.8-1.25,0.8-2.05
					c0-0.767-0.267-1.433-0.8-2c-0.533-0.6-1.15-0.9-1.85-0.9c-0.733,0-1.35,0.3-1.85,0.9c-0.534,0.534-0.817,1.15-0.85,1.85
					c0,0.067,0,0.117,0,0.15c0,0.8,0.283,1.483,0.85,2.05c0.5,0.566,1.117,0.85,1.85,0.85c0.034,0,0.067,0,0.1,0
					S145.367-25,145.4-25z"/>
				<path fill-rule="evenodd" clip-rule="evenodd" fill="#242424" d="M135.7-84.4c0.833-1.033,1.934-2.5,3.3-4.4l-1.8-4.95
					l6.75-22.45c-0.367-9.5-0.167-20.2,0.6-32.1l-9.25,30.5l0.75,24.15l-4.15,4c1.467,1.9,2.733,3.633,3.8,5.2V-84.4z M117.75-329.3
					c13.133-6.466,19.566-12.117,19.3-16.95l-34.2,4.05c-1.967,1.867-2.383,6.867-1.25,15L117.75-329.3z M151.8-330.3l16.35-1.8
					c13.033-6.4,20.1-11.117,21.2-14.15H153.3C151.233-343.517,150.733-338.2,151.8-330.3z"/>
				<path fill-rule="evenodd" clip-rule="evenodd" fill="#666666" d="M110-177.35c5.1-0.767,9.967-1,14.6-0.7l30.45,1.2
					c3.267-63.867,9.017-115.767,17.25-155.7l-4.15,0.45l-16.35,1.8l-1.4,0.2l-11.1,143.55h-11.15
					c-7.067-52.433-8.817-100.25-5.25-143.45l-5.15,0.7l-16.15,2.1C101.767-279.267,104.566-229.317,110-177.35z"/>
			</g>
			<g>
				
					<path fill-rule="evenodd" clip-rule="evenodd" fill="none" stroke="#FF0000" stroke-width="16.3" stroke-linecap="round" stroke-linejoin="round" stroke-miterlimit="3" d="
					M292.15-326.75l-26.25,23.5l-26.5-24.55 M241.5-281.4l24.4-21.85l30.45,28.2"/>
				<g>
					
						<path fill-rule="evenodd" clip-rule="evenodd" fill="none" stroke="#009999" stroke-width="8.65" stroke-linecap="round" stroke-linejoin="round" stroke-miterlimit="3" d="
						M309.05-262.4h-80.9c-4.4,0-6.6-2.333-6.6-7v-69.9c0-4.633,2.2-6.95,6.6-6.95h80.9c4.4,0,6.6,2.316,6.6,6.95v69.9
						C315.65-264.733,313.45-262.4,309.05-262.4z"/>
				</g>
			</g>
			<text transform="matrix(0.9519 0 0 -1 222.3003 -219.2739)" font-family="'Consolas-Bold'" font-size="55.912">Нет</text>
			<g>
				
					<path fill-rule="evenodd" clip-rule="evenodd" fill="none" stroke="#333333" stroke-width="2.8" stroke-linecap="round" stroke-linejoin="round" stroke-miterlimit="3" d="
					M0-411.7v-48.4c0-10.233,5.117-15.35,15.35-15.35h372.2c10.233,0,15.35,5.117,15.35,15.35v48.4
					c0,10.233-5.117,15.35-15.35,15.35H15.35C5.117-396.35,0-401.467,0-411.7z"/>
				<text transform="matrix(1 0 0 -1 26.6001 -422.5391)"><tspan x="0" y="0" font-family="'Consolas'" font-size="22">Исходя из моего многолетнего</tspan><tspan x="54.431" y="27.75" font-family="'Consolas'" font-size="22"> опыта, думаю, что…</tspan></text>
			</g>
		</g>
	</g>
</symbol>
<symbol  id="yes" viewBox="-0.026 -495.55 594.051 495.556">
	<g id="Layer_1_4_">
		<g>
			<g>
				<g>
					<path fill-rule="evenodd" clip-rule="evenodd" fill="#FFD39B" d="M156.58-111.11l-4.16,8.186l5.737,6.273
						c2.022,4.156,4.885,6.281,8.588,6.374l0.805-1.61c6.782,3.11,10.847,4.279,12.195,3.506c1.349-0.774-0.782-2.826-6.391-6.156
						c0.605-1.053,1.041-2.316,1.309-3.792l-0.403-4.764c-0.226-1.147-0.734-2.07-1.526-2.768c-0.782-0.702-2.358-1.307-4.73-1.812
						c-2.375-0.494-3.599-0.734-3.674-0.722c-0.076,0.005-0.579-0.017-1.51-0.067C161.893-108.512,159.813-109.396,156.58-111.11z"
						/>
					<path fill-rule="evenodd" clip-rule="evenodd" fill="#1B597B" d="M40.32-301.22c1.17,1.233,2.562,1.882,4.175,1.945
						c1.676,0,3.1-0.632,4.27-1.898c1.202-1.202,1.803-2.688,1.803-4.459l0.617-44.834c0-1.74-0.585-3.242-1.755-4.507
						c-1.139-1.266-2.531-1.914-4.176-1.945c-1.644,0-3.067,0.601-4.27,1.803c-1.139,1.296-1.74,2.814-1.803,4.554l-0.521,44.835
						C38.628-304.02,39.181-302.517,40.32-301.22z"/>
					<path fill-rule="evenodd" clip-rule="evenodd" fill="#3F5272" d="M35.955-190.059c-0.031,2.784,0.854,5.188,2.657,7.212
						c1.866,2.024,4.128,3.068,6.785,3.131l4.27,0.048c2.625,0.031,4.887-0.933,6.784-2.895c1.898-2.024,2.862-4.428,2.894-7.211
						l1.945-154.146l-23.39-0.237L35.955-190.059z"/>
					<path fill-rule="evenodd" clip-rule="evenodd" fill="#F8A586" d="M76.852-90.853c-0.791-2.499-2.246-4.539-4.365-6.121
						c-2.151-1.645-4.602-2.467-7.354-2.467c-2.657,0-5.061,0.791-7.211,2.372c-2.056,1.518-3.527,3.542-4.412,6.073l12.573,0.665
						C69.246-90.331,72.835-90.504,76.852-90.853z"/>
					<path fill-rule="evenodd" clip-rule="evenodd" fill="#3F5272" d="M35.813-193.143v29.321h60.586v-29.321
						c0-5.092-1.787-9.425-5.362-12.999c-3.605-3.606-7.955-5.409-13.047-5.409h-23.77c-5.092,0-9.441,1.803-13.047,5.409
						C37.6-202.568,35.813-198.235,35.813-193.143z"/>
					<path fill-rule="evenodd" clip-rule="evenodd" fill="#455A7D" d="M66.083-193.143v29.321h30.317v-29.321
						c0-4.554-1.456-8.54-4.365-11.956c-2.815-3.353-6.405-5.409-10.77-6.168c-4.428,0.759-8.05,2.815-10.865,6.168
						C67.521-201.651,66.083-197.666,66.083-193.143z"/>
					<g>
						<g>
							<path fill-rule="evenodd" clip-rule="evenodd" fill="#F8A586" d="M66.083-61.248c1.961,0,3.574-0.68,4.839-2.04
								c1.36-1.265,2.04-2.862,2.04-4.792v-22.916L62.05-97.875l-2.8,6.879v22.916c0,1.897,0.665,3.495,1.993,4.792
								C62.571-61.928,64.185-61.248,66.083-61.248z"/>
						</g>
					</g>
					<g>
						<path fill-rule="evenodd" clip-rule="evenodd" fill="#11132D" d="M45.302-51.569c-0.506,0-0.98,0.189-1.423,0.569
							c-0.348,0.411-0.522,0.886-0.522,1.423c0,0.475,0.174,0.917,0.522,1.329c0.379,0.348,0.854,0.521,1.423,0.521
							s1.028-0.174,1.375-0.521c0.38-0.379,0.57-0.823,0.57-1.329c0-0.569-0.189-1.044-0.57-1.423
							C46.298-51.379,45.839-51.569,45.302-51.569z"/>
						<path fill-rule="evenodd" clip-rule="evenodd" fill="#11132D" d="M60.626-51.569c-0.538,0-0.997,0.189-1.376,0.569
							c-0.348,0.411-0.521,0.886-0.521,1.423c0,0.475,0.174,0.917,0.521,1.329c0.348,0.348,0.807,0.521,1.376,0.521
							c0.569,0,1.012-0.174,1.328-0.521c0.412-0.379,0.617-0.823,0.617-1.329c0-0.569-0.205-1.044-0.617-1.423
							C61.639-51.379,61.196-51.569,60.626-51.569z"/>
					</g>
					<path fill-rule="evenodd" clip-rule="evenodd" fill="#F5E7E7" d="M47.721-69.598c-1.423,1.423-2.135,3.147-2.135,5.171h14.755
						c0-2.024-0.712-3.748-2.135-5.171c-1.455-1.455-3.194-2.183-5.219-2.183C50.932-71.78,49.176-71.052,47.721-69.598z"/>
					<path fill-rule="evenodd" clip-rule="evenodd" fill="#1B597B" d="M88.571-300.461c1.202-1.265,1.85-2.736,1.945-4.413
						c0.728-17.269,1.439-32.12,2.135-44.55c0.095-1.771-0.395-3.305-1.47-4.602c-1.107-1.297-2.483-1.993-4.128-2.087
						c-1.613-0.095-3.052,0.443-4.318,1.613c-1.233,1.17-1.897,2.641-1.992,4.412c-0.633,11.229-1.376,26.125-2.23,44.692
						c-0.095,1.739,0.427,3.258,1.565,4.554c1.076,1.266,2.467,1.946,4.175,2.04C85.835-298.769,87.274-299.322,88.571-300.461z"/>
					<path fill-rule="evenodd" clip-rule="evenodd" fill="#455A7D" d="M72.677-190.106c-0.095,2.752,0.791,5.156,2.657,7.212
						c1.803,2.024,4.048,3.084,6.737,3.178l4.222,0.048c2.657,0.031,4.934-0.933,6.832-2.895c1.866-1.929,2.847-4.286,2.941-7.069
						c1.392-59.273,3.195-110.292,5.409-153.055l-23.342-1.28C75.888-301.615,74.068-250.328,72.677-190.106z"/>
					<path fill-rule="evenodd" clip-rule="evenodd" fill="none" stroke="#1A171C" stroke-width="1.35" d="M87.053-168.519v-9.916
						c0-2.657,0.917-4.855,2.751-6.595c1.834-1.866,4.033-2.799,6.595-2.799"/>
					
						<line fill-rule="evenodd" clip-rule="evenodd" fill="none" stroke="#1A171C" stroke-width="1.35" x1="96.399" y1="-168.519" x2="35.813" y2="-168.519"/>
					
						<line fill-rule="evenodd" clip-rule="evenodd" fill="none" stroke="#455A7D" stroke-width="1.35" x1="59.583" y1="-215.441" x2="49.761" y2="-215.678"/>
					<path fill-rule="evenodd" clip-rule="evenodd" fill="#6D3E3E" d="M45.918-29.649c-2.309,1.328-3.859,3.242-4.649,5.74
						c-0.791,2.499-0.665,4.966,0.379,7.401L53.13-23.15L45.918-29.649z"/>
					<path fill-rule="evenodd" clip-rule="evenodd" fill="#FFD39B" d="M71.301-93.937c-1.455-1.455-3.226-2.183-5.314-2.183
						c-2.119,0-3.906,0.728-5.361,2.183c-1.487,1.486-2.23,3.273-2.23,5.361V-77.9h15.135v-10.675
						C73.531-90.663,72.788-92.45,71.301-93.937z"/>
					<path fill-rule="evenodd" clip-rule="evenodd" fill="#FFD39B" d="M78.56-49.007c0,2.373,0.775,4.396,2.325,6.073
						c1.645,1.676,3.559,2.515,5.741,2.515c2.214,0,4.112-0.838,5.693-2.515c1.582-1.74,2.372-3.764,2.372-6.073
						c0-2.34-0.791-4.38-2.372-6.12c-1.582-1.676-3.479-2.515-5.693-2.515c-2.182,0-4.096,0.838-5.741,2.515
						C79.335-53.451,78.56-51.411,78.56-49.007z"/>
					<path fill-rule="evenodd" clip-rule="evenodd" fill="#FFD39B" d="M51.754-14.705c3.574,2.814,8.097,4.222,13.569,4.222h1.423
						c5.503,0,10.042-1.408,13.616-4.222c3.764-3.037,5.646-7.101,5.646-12.193v-36.817c0-5.282-1.882-9.82-5.646-13.616
						c-3.764-3.732-8.303-5.599-13.616-5.599h-1.423c-5.313,0-9.836,1.866-13.569,5.599c-3.764,3.764-5.646,8.303-5.646,13.616
						v36.817C46.108-21.774,47.99-17.71,51.754-14.705z"/>
					<path fill-rule="evenodd" clip-rule="evenodd" fill="#FFD39B" d="M51.754-41.985c1.582-1.74,2.373-3.78,2.373-6.121
						c0-2.309-0.791-4.333-2.373-6.073c-1.581-1.676-3.479-2.515-5.693-2.515c-2.182,0-4.096,0.838-5.74,2.515
						c-1.55,1.676-2.325,3.701-2.325,6.073c0,2.404,0.775,4.444,2.325,6.121c1.645,1.676,3.558,2.514,5.74,2.514
						C48.275-39.471,50.173-40.309,51.754-41.985z"/>
					<path fill-rule="evenodd" clip-rule="evenodd" fill="#844B4B" d="M84.87-38.901c1.234-1.329,1.897-6.089,1.993-14.281
						c0.095-4.111,0.048-8.081-0.142-11.908c0.095-8.192-1.392-13.822-4.46-16.891c-1.423-1.423-3.258-2.419-5.503-2.989
						c-1.898-0.506-4.381-0.759-7.449-0.759h-5.931c-2.942,0-5.408,0.269-7.401,0.807c-2.15,0.601-3.97,1.661-5.456,3.178
						c-2.973,3.163-4.507,9.015-4.602,17.554c-0.126,3.701-0.174,7.528-0.142,11.482c0.158,7.876,0.822,12.478,1.993,13.806v-16.795
						c0-2.941,1.012-5.503,3.036-7.686c1.993-2.119,4.396-3.179,7.211-3.179h16.653c2.815,0,5.219,1.06,7.212,3.179
						c1.993,2.12,2.989,4.682,2.989,7.686V-38.901z"/>
					<path fill-rule="evenodd" clip-rule="evenodd" fill="#844B4B" d="M73.246-7.683c4.839,0,8.366-0.901,10.581-2.704
						c2.562-2.088,3.843-5.599,3.843-10.533l-0.285-14.803c-0.474-10.185-1.313-15.941-2.515-17.27v18.266
						c0,3.226-0.996,6.009-2.989,8.35c-1.993,2.34-4.396,3.511-7.212,3.511H58.017c-2.815,0-5.219-1.17-7.211-3.511
						c-2.024-2.373-3.036-5.156-3.036-8.35v-18.266c-1.17,1.36-1.993,7.117-2.467,17.27c-0.126,3.163-0.221,6.579-0.285,10.248
						L44.97-20.92c0,2.403,0.348,4.175,1.044,5.313c0.632,0.949,1.597,1.471,2.894,1.566c0.98,0.063,2.531-0.063,4.649-0.379
						c2.594-0.348,4.618-0.522,6.073-0.522L73.246-7.683z"/>
					<path fill-rule="evenodd" clip-rule="evenodd" fill="#844B4B" d="M76.425-59.018c2.784-1.233,4.175-3.622,4.175-7.164
						c0-3.891-1.392-7.243-4.175-10.058c-2.783-2.751-6.152-4.128-10.105-4.128c-3.89,0-7.243,1.376-10.058,4.128
						c-2.783,2.783-4.175,6.136-4.175,10.058c0,3.542,1.392,5.931,4.175,7.164c2.024,0.917,5.377,1.376,10.058,1.376
						C71.032-57.642,74.401-58.1,76.425-59.018z"/>
					<path fill-rule="evenodd" clip-rule="evenodd" fill="#FFD39B" d="M74.717-66.893l1.091-0.048c0-1.044-0.87-1.914-2.61-2.609
						c-1.676-0.696-3.764-1.044-6.263-1.044c-2.467,0-4.554,0.348-6.263,1.044c-1.708,0.696-2.562,1.565-2.562,2.609
						c1.202,0,2.467,0.142,3.795,0.427c2.657,0.601,4.333,1.661,5.029,3.179c0.886-1.487,2.641-2.546,5.267-3.179
						C73.12-66.735,73.958-66.862,74.717-66.893z"/>
					<path fill-rule="evenodd" clip-rule="evenodd" fill="#6D3E3E" d="M49.999-5.026c1.487,0.412,3.068,0.649,4.745,0.712
						c3.511,0.095,5.867-0.743,7.069-2.515c0.253,1.265,0.016,2.783-0.712,4.555l-1.139,2.277c1.392,0.032,2.895-0.158,4.507-0.569
						c3.227-0.854,5.33-2.388,6.31-4.602c0.823,0.19,1.518,0.665,2.087,1.423l0.665,1.091c0.411-0.126,1.138-0.443,2.182-0.949
						c1.898-0.917,3.985-2.277,6.263-4.08c2.53-1.993,4.238-4.523,5.124-7.591c0.443-1.55,0.617-2.878,0.522-3.986l-0.143-12.572
						l-0.332,0.854c-0.38,0.791-0.807,1.471-1.281,2.041c-1.582,2.087-3.701,3.337-6.358,3.748
						c-2.688,0.474-5.583,0.079-8.682-1.186c-1.518-0.601-2.815-1.265-3.891-1.993c-7.053,3.638-12.81,4.254-17.269,1.851
						c-1.423-0.791-2.594-1.818-3.511-3.083c-0.475-0.601-0.807-1.155-0.996-1.661l-2.752,19.974
						c0.728,0.443,1.677,0.665,2.846,0.665c2.373,0,4.713-1.091,7.022-3.274c-0.412,2.024-0.933,4.112-1.566,6.263L49.999-5.026z"/>
					<path fill-rule="evenodd" clip-rule="evenodd" fill="#020303" d="M74.29-41.891c-0.348,0.285-0.521,0.665-0.521,1.139
						c0,0.443,0.173,0.838,0.521,1.186c0.285,0.284,0.648,0.427,1.091,0.427c0.506,0,0.917-0.143,1.234-0.427
						c0.284-0.348,0.426-0.743,0.426-1.186c0-0.475-0.142-0.854-0.426-1.139c-0.348-0.348-0.76-0.521-1.234-0.521
						C74.938-42.412,74.575-42.238,74.29-41.891z"/>
					<path fill-rule="evenodd" clip-rule="evenodd" fill="#020303" d="M55.74-41.891c-0.348,0.285-0.522,0.665-0.522,1.139
						c0,0.443,0.174,0.838,0.522,1.186c0.284,0.284,0.648,0.427,1.091,0.427c0.506,0,0.917-0.143,1.233-0.427
						c0.253-0.285,0.38-0.68,0.38-1.186c0-0.506-0.126-0.886-0.38-1.139c-0.348-0.348-0.759-0.521-1.233-0.521
						C56.388-42.412,56.024-42.238,55.74-41.891z"/>
					<path fill-rule="evenodd" clip-rule="evenodd" fill="#FFD39B" d="M15.792-192.952l0.427-8.493
						c0.094-2.499-0.316-4.38-1.234-5.646l-0.379-0.617c-1.233-1.581-2.119-3.416-2.657-5.503l-0.38-1.566
						c-0.221-0.791-0.759-1.423-1.613-1.897c-0.854-0.443-1.74-0.554-2.657-0.333l-1.043,0.285
						c-1.012,0.253-1.945,0.744-2.799,1.471c-0.822,0.727-1.408,1.534-1.755,2.419l-1.471,4.175
						c-0.285,0.854-0.332,1.819-0.142,2.895c0.158,1.107,0.506,2.008,1.043,2.704l1.993,2.704c0.664,0.949,1.993,4.365,3.985,10.248
						L15.792-192.952z"/>
					<g>
						<path fill-rule="evenodd" clip-rule="evenodd" fill="#304779" d="M49.524-89.904h36.912c5.788,0,10.754-2.056,14.897-6.167
							c4.112-4.175,6.168-9.141,6.168-14.897l-1.613-104.615H30.832l-2.42,104.615c0,5.819,2.056,10.786,6.167,14.897
							C38.755-91.96,43.736-89.904,49.524-89.904z"/>
						<polygon fill-rule="evenodd" clip-rule="evenodd" fill="#455A7D" points="88,-105.35 82.35,-112.95 90.2,-119.4 69,-185.9 
							79.5,-90.45 						"/>
						<polygon fill-rule="evenodd" clip-rule="evenodd" fill="#455A7D" points="52.75,-112.962 47.104,-105.371 55.645,-90.473 
							69.024,-185.883 44.922,-119.414 						"/>
						<polygon fill-rule="evenodd" clip-rule="evenodd" fill="#EBF7FE" points="54.221,-90.473 79.509,-90.473 69.024,-185.883 
													"/>
						<polygon fill-rule="evenodd" clip-rule="evenodd" fill="#FFFFFF" points="75.476,-85.729 83.589,-93.652 75.334,-108.075 
							66.699,-99.061 						"/>
						<polygon fill-rule="evenodd" clip-rule="evenodd" fill="#FFFFFF" points="58.539,-85.918 66.699,-99.061 58.254,-108.075 
							50.426,-93.794 						"/>
						<polygon fill-rule="evenodd" clip-rule="evenodd" fill="#CA6959" points="73.721,-143.278 69.024,-185.883 62.429,-143.231 
							66.699,-99.061 						"/>
						<polygon fill-rule="evenodd" clip-rule="evenodd" fill="#CA6959" points="73.531,-106.177 67.363,-114.29 60.342,-105.845 
							66.699,-99.061 						"/>
						<g>
							<path fill-rule="evenodd" clip-rule="evenodd" fill="#304779" d="M41.696-91.327l5.171-15.562
								c-1.139-0.442-2.467-1.217-3.985-2.324c-3.131-2.277-6.041-5.282-8.729-9.015c-8.571-11.861-13.379-28.608-14.423-50.243
								c-0.443-8.509-0.617-17.207-0.522-26.095H2.839c-0.095,9.3,0.079,18.25,0.521,26.854c1.329,26.727,7.923,47.38,19.785,61.962
								c3.795,4.649,7.923,8.397,12.383,11.244C37.9-92.956,39.957-91.896,41.696-91.327z"/>
						</g>
						<g>
							<path fill-rule="evenodd" clip-rule="evenodd" fill="#304779" d="M99-95.9c1.073-0.709,2.24-1.493,3.5-2.35
								c6.467-4.4,13.1-9.517,19.9-15.35c6.8-5.833,16.434-1.767,28.9,12.2l9.05-10.05c-19.133-20.733-33.533-27.017-43.2-18.85
								c-7.337,6.203-13.387,11.103-18.15,14.7V-95.9z"/>
						</g>
					</g>
					<path fill-rule="evenodd" clip-rule="evenodd" fill="#D9D1BD" d="M106.6-352.08l-0.143-11.719H78.75v11.055
						c0,1.613,0.585,3.004,1.755,4.175c1.17,1.17,2.562,1.756,4.175,1.756h16.036c0.19-1.519,0.854-2.768,1.993-3.749
						C103.785-351.574,105.082-352.08,106.6-352.08z"/>
					<path fill-rule="evenodd" clip-rule="evenodd" fill="#ECE5E1" d="M114.618-359.624v-4.175H96.209v4.175
						c0,2.056,0.743,3.827,2.23,5.313c1.455,1.487,3.21,2.23,5.266,2.23h3.369c2.151,0,3.922-0.743,5.313-2.23
						C113.875-355.765,114.618-357.536,114.618-359.624z"/>
					<path fill-rule="evenodd" clip-rule="evenodd" fill="#ECE5E1" d="M84.158-354.357c1.423-1.423,2.135-3.179,2.135-5.266v-4.175
						H78.75v11.055l0.095,0.664C80.932-352.143,82.704-352.903,84.158-354.357z"/>
					<path fill-rule="evenodd" clip-rule="evenodd" fill="#D9D1BD" d="M90.042-347.194v1.329c0,0.949,0.348,1.755,1.044,2.419
						c0.664,0.728,1.471,1.091,2.419,1.091h3.749c0.98,0,1.803-0.364,2.467-1.091c0.664-0.665,0.996-1.471,0.996-2.419v-1.329
						H90.042z"/>
					<polygon fill-rule="evenodd" clip-rule="evenodd" fill="#D9D1BD" points="115.708,-363.799 78.75,-363.799 78.75,-359.909 
						115.708,-359.909 					"/>
					<path fill-rule="evenodd" clip-rule="evenodd" fill="#D9D1BD" d="M44.59-346.813h16.036c0.158-1.519,0.791-2.768,1.897-3.749
						c1.107-1.012,2.436-1.518,3.985-1.518l-0.143-11.719H38.66v11.055c0,1.645,0.585,3.036,1.755,4.175
						C41.491-347.399,42.882-346.813,44.59-346.813z"/>
					<path fill-rule="evenodd" clip-rule="evenodd" fill="#ECE5E1" d="M75.571-359.624v-4.175H57.115v4.175
						c0,2.056,0.744,3.827,2.23,5.313c1.455,1.487,3.226,2.23,5.314,2.23h3.368c2.119,0,3.906-0.743,5.361-2.23
						C74.844-355.765,75.571-357.536,75.571-359.624z"/>
					<path fill-rule="evenodd" clip-rule="evenodd" fill="#ECE5E1" d="M38.707-352.08c2.087-0.063,3.859-0.823,5.314-2.277
						c1.455-1.423,2.182-3.179,2.182-5.266v-4.175H38.66v11.055L38.707-352.08z"/>
					<path fill-rule="evenodd" clip-rule="evenodd" fill="#D9D1BD" d="M49.904-347.194v1.329c0,0.949,0.332,1.755,0.997,2.419
						c0.664,0.728,1.502,1.091,2.514,1.091h3.701c0.886,0,1.724-0.364,2.515-1.091c0.664-0.665,0.997-1.471,0.997-2.419v-1.329
						H49.904z"/>
					<polygon fill-rule="evenodd" clip-rule="evenodd" fill="#D9D1BD" points="38.66,-359.909 75.571,-359.909 75.571,-363.799 
						38.66,-363.799 					"/>
					
						<line fill-rule="evenodd" clip-rule="evenodd" fill="none" stroke="#050607" stroke-width="1.35" stroke-linecap="round" x1="55.217" y1="-348.237" x2="60.484" y2="-348.237"/>
					
						<line fill-rule="evenodd" clip-rule="evenodd" fill="none" stroke="#050607" stroke-width="1.35" stroke-linecap="round" x1="57.115" y1="-351.131" x2="62.382" y2="-351.131"/>
					
						<line fill-rule="evenodd" clip-rule="evenodd" fill="none" stroke="#050607" stroke-width="1.35" stroke-linecap="round" x1="95.83" y1="-348.237" x2="101.096" y2="-348.237"/>
					
						<line fill-rule="evenodd" clip-rule="evenodd" fill="none" stroke="#050607" stroke-width="1.35" stroke-linecap="round" x1="97.728" y1="-351.131" x2="102.946" y2="-351.131"/>
				</g>
			</g>
		</g>
		<g>
			
				<path fill-rule="evenodd" clip-rule="evenodd" fill="none" stroke="#333333" stroke-width="2.8" stroke-linecap="round" stroke-linejoin="round" stroke-miterlimit="3" d="
				M121.95-494.15h372.2c10.233,0,15.35,5.117,15.35,15.35v48.4c0,10.233-5.117,15.35-15.35,15.35h-372.2
				c-10.233,0-15.35-5.117-15.35-15.35v-48.4C106.601-489.033,111.717-494.15,121.95-494.15z"/>
			<g>
				<g>
					
						<path fill-rule="evenodd" clip-rule="evenodd" fill="none" stroke="#009999" stroke-width="8.65" stroke-linecap="round" stroke-linejoin="round" stroke-miterlimit="3" d="
						M583.101-279.95h-80.9c-4.4,0-6.6-2.333-6.6-7v-69.9c0-4.633,2.2-6.95,6.6-6.95h80.9c4.4,0,6.6,2.316,6.6,6.95v69.9
						C589.7-282.283,587.5-279.95,583.101-279.95z"/>
				</g>
				<g>
					
						<polyline fill-rule="evenodd" clip-rule="evenodd" fill="none" stroke="#006600" stroke-width="16.3" stroke-linecap="round" stroke-linejoin="round" stroke-miterlimit="3" points="
						517.7,-316.85 543.05,-348.8 568.351,-298.1 					"/>
				</g>
			</g>
			<text transform="matrix(0.9519 0 0 -1 510.1001 -237.9741)" font-family="'Consolas-Bold'" font-size="55.912">Да</text>
			<text transform="matrix(1 0 0 -1 167.6455 -441.2388)"><tspan x="0" y="0" font-family="'Consolas'" font-size="22">Исходя из этих данных, </tspan><tspan x="-12.096" y="27.75" font-family="'Consolas'" font-size="22">можно сделать вывод, что…</tspan></text>
		</g>
		<g>
			<g>
				<g>
					<polygon fill-rule="evenodd" clip-rule="evenodd" fill="#EBEBEC" points="465.3,-320.7 201.9,-320.7 201.9,-29.85 
						465.3,-29.85 					"/>
					<polygon fill-rule="evenodd" clip-rule="evenodd" fill="none" stroke="#DCDDDE" stroke-miterlimit="10" points="465.3,-320.7 
						201.9,-320.7 201.9,-29.85 465.3,-29.85 					"/>
					<polygon fill-rule="evenodd" clip-rule="evenodd" fill="#DADBDC" points="465.3,-327.95 201.9,-327.95 201.9,-299.1 
						465.3,-299.1 					"/>
					<polygon fill-rule="evenodd" clip-rule="evenodd" fill="none" stroke="#DCDDDE" stroke-miterlimit="10" points="465.3,-327.95 
						201.9,-327.95 201.9,-299.1 465.3,-299.1 					"/>
					<path fill-rule="evenodd" clip-rule="evenodd" fill="#FFFFFF" d="M454.35-280.9c1.934-2.067,2.9-4.567,2.9-7.5
						c0-2.967-0.966-5.483-2.9-7.55c-1.966-2.1-4.316-3.15-7.05-3.15h-47.35c-2.733,0-5.083,1.05-7.05,3.15
						c-1.934,2.067-2.9,4.583-2.9,7.55c0,2.933,0.967,5.433,2.9,7.5c1.966,2.1,4.316,3.15,7.05,3.15h47.35
						C450.034-277.75,452.384-278.8,454.35-280.9z"/>
					<path fill-rule="evenodd" clip-rule="evenodd" fill="none" stroke="#DCDDDE" stroke-miterlimit="10" d="M454.35-280.9
						c1.934-2.067,2.9-4.567,2.9-7.5c0-2.967-0.966-5.483-2.9-7.55c-1.966-2.1-4.316-3.15-7.05-3.15h-47.35
						c-2.733,0-5.083,1.05-7.05,3.15c-1.934,2.067-2.9,4.583-2.9,7.55c0,2.933,0.967,5.433,2.9,7.5c1.966,2.1,4.316,3.15,7.05,3.15
						h47.35C450.034-277.75,452.384-278.8,454.35-280.9z"/>
					<polygon fill-rule="evenodd" clip-rule="evenodd" fill="#C9CACC" points="214.35,-364 201.9,-364 201.9,-327.95 
						214.35,-327.95 					"/>
					<polygon fill-rule="evenodd" clip-rule="evenodd" fill="#C9CACC" points="452.85,-327.95 465.3,-327.95 465.3,-364 
						452.85,-364 					"/>
					<g>
						<polygon fill-rule="evenodd" clip-rule="evenodd" fill="#34556C" points="330.75,-297.1 267.5,-297.4 267.45,-294.85 
							330.75,-294.55 						"/>
						<polygon fill-rule="evenodd" clip-rule="evenodd" fill="#34556C" points="330.75,-298.6 267.5,-298.9 267.5,-297.4 
							330.75,-297.1 						"/>
						<polygon fill-rule="evenodd" clip-rule="evenodd" fill="#231F20" points="334.75,-294.5 334.75,-297.05 330.75,-298.6 
							330.7,-293 						"/>
						<polygon fill-rule="evenodd" clip-rule="evenodd" fill="#34556C" points="330.75,-294.55 267.45,-294.85 267.45,-293.3 
							330.75,-293 						"/>
						<path fill-rule="evenodd" clip-rule="evenodd" fill="#34556C" d="M334.75-297.05v2.55l2.05,0.1
							c1.367-0.1,2.117-0.567,2.25-1.4c0.133-0.833-0.55-1.3-2.05-1.4L334.75-297.05z"/>
					</g>
				</g>
				<g>
					<path fill-rule="evenodd" clip-rule="evenodd" fill="#009933" d="M230.05-246.3v3.5c0.1,0.133,0.2,0.25,0.3,0.35l26.45,27.65
						c0.3,0.3,0.633,0.533,1,0.7c0.4,0.167,0.8,0.25,1.2,0.25h38.95l18.45,21.1c0.3,0.333,0.65,0.583,1.05,0.75
						c0.4,0.2,0.817,0.3,1.25,0.3h24.25l22.15,49.1c0.233,0.534,0.6,0.967,1.1,1.3c0.5,0.333,1.05,0.5,1.65,0.5h19.35l64.65,78.35
						c0.533,0.633,1.233,0.983,2.1,1.05c0.833,0.1,1.567-0.117,2.2-0.65s1-1.233,1.1-2.1c0.066-0.833-0.167-1.567-0.7-2.2L391-145.8
						c-0.3-0.333-0.65-0.6-1.05-0.8c-0.4-0.2-0.833-0.3-1.3-0.3h-18.8L347.7-196c-0.267-0.533-0.65-0.967-1.15-1.3
						c-0.5-0.333-1.05-0.5-1.65-0.5h-24.8l-18.5-21.1c-0.3-0.333-0.65-0.6-1.05-0.8c-0.4-0.167-0.816-0.25-1.25-0.25h-39
						l-25.55-26.7c-0.6-0.6-1.317-0.917-2.15-0.95c-0.833-0.033-1.55,0.25-2.15,0.85C230.284-246.617,230.15-246.467,230.05-246.3z"
						/>
					<path fill-rule="evenodd" clip-rule="evenodd" fill="#0099CC" d="M230.05-246.3v-8.55h30.65l-0.2,2.95
						c-0.034,0.7,0.183,1.317,0.65,1.85c0.434,0.533,1.017,0.833,1.75,0.9c0.7,0.033,1.316-0.183,1.85-0.65
						c0.5-0.434,0.783-1.017,0.85-1.75l0.25-3.3h39.8v3.15c0,0.7,0.25,1.3,0.75,1.8s1.1,0.75,1.8,0.75c0.7,0,1.3-0.25,1.8-0.75
						s0.75-1.1,0.75-1.8v-3.15h37.4v3.6c0,0.7,0.25,1.3,0.75,1.8s1.1,0.75,1.8,0.75c0.7,0,1.3-0.25,1.8-0.75s0.75-1.1,0.75-1.8v-3.6
						h40.05v3.15c0,0.7,0.25,1.3,0.75,1.8s1.1,0.75,1.8,0.75c0.7,0,1.3-0.25,1.8-0.75s0.75-1.1,0.75-1.8v-3.15h43.4l-0.25,3.8
						c-0.033,0.7,0.184,1.316,0.65,1.85c0.434,0.533,1,0.833,1.7,0.9c0.7,0.033,1.316-0.184,1.85-0.65c0.533-0.434,0.833-1,0.9-1.7
						l0.3-4.2h8.1c0.7,0,1.3-0.25,1.8-0.75s0.75-1.1,0.75-1.8s-0.25-1.3-0.75-1.8s-1.1-0.75-1.8-0.75h-10.3c-0.067,0-0.133,0-0.2,0
						h-180.9c-0.133,0-0.267,0-0.4,0h-33.2v-12.8c0-0.7-0.25-1.3-0.75-1.8s-1.1-0.75-1.8-0.75c-0.7,0-1.3,0.25-1.8,0.75
						s-0.75,1.1-0.75,1.8v12.8h-12.8c-0.7,0-1.3,0.25-1.8,0.75s-0.75,1.1-0.75,1.8s0.25,1.3,0.75,1.8s1.1,0.75,1.8,0.75h12.8v195.6
						c0,0.7,0.25,1.3,0.75,1.8s1.1,0.75,1.8,0.75c0.7,0,1.3-0.25,1.8-0.75s0.75-1.1,0.75-1.8V-65h4.05c0.7,0,1.3-0.25,1.8-0.75
						s0.75-1.1,0.75-1.8c0-0.7-0.25-1.3-0.75-1.8s-1.1-0.75-1.8-0.75h-4.05v-27.8h4.05c0.7,0,1.3-0.25,1.8-0.75s0.75-1.1,0.75-1.8
						c0-0.7-0.25-1.3-0.75-1.8s-1.1-0.75-1.8-0.75h-4.05v-26.05h4.9c0.7,0,1.3-0.25,1.8-0.75s0.75-1.1,0.75-1.8
						c0-0.7-0.25-1.3-0.75-1.8s-1.1-0.75-1.8-0.75h-4.9v-33.9h3.15c0.7,0,1.3-0.25,1.8-0.75s0.75-1.1,0.75-1.8
						c0-0.7-0.25-1.3-0.75-1.8s-1.1-0.75-1.8-0.75h-3.15v-38.75h5.8c0.7,0,1.3-0.25,1.8-0.75s0.75-1.1,0.75-1.8
						c0-0.7-0.25-1.3-0.75-1.8s-1.1-0.75-1.8-0.75h-5.8v-25.8V-246.3z"/>
				</g>
			</g>
		</g>
	</g>
</symbol>
<g id="Layer_6" display="none">
	<text transform="matrix(1 0 0 1 1019.75 288.3306)" display="inline"><tspan x="0" y="0" font-family="'Consolas'" font-size="17">По KPIs мы можем сравнивать себя с подобными компаниями, функциями и понимать, какой показатель – лучший </tspan><tspan x="0" y="20.399" font-family="'Consolas'" font-size="17">в своем классе (benchmark), то есть к чему нужно стремиться.</tspan></text>
</g>
<g id="Layer_7" display="none">
	<rect x="-292" y="-205.311" display="inline" fill="#FFFFFF" stroke="#1D1D1B" stroke-miterlimit="10" width="1280" height="760"/>
</g>
<g id="Layer_5" display="none">
	<text transform="matrix(1 0 0 1 1019.75 213.2104)" display="inline"><tspan x="0" y="0" font-family="'Consolas'" font-size="17">KPIs – это отличное средство мотивации сотрудников. Ведь использование этих показателей позволяет наглядно</tspan><tspan x="0" y="20.4" font-family="'Consolas'" font-size="17">увидеть, соответствуют ли результаты деятельности сотрудников поставленным целям, и поощрять лучших.</tspan></text>
</g>
<g id="Layer_4" display="none">
	<text transform="matrix(1 0 0 1 1019.75 142.5107)" display="inline"><tspan x="0" y="0" font-family="'Consolas'" font-size="17">KPIs и PIs служат для оценки удовлетворенности внешних и внутренних клиентов. Ведь это показатели, </tspan><tspan x="0" y="20.4" font-family="'Consolas'" font-size="17">которые всегда оценивают конечный продукт или услугу, предназначенные для конкретных клиентов.</tspan></text>
</g>
<g id="Layer_3" display="none">
	<text transform="matrix(1 0 0 1 1019.75 64.4736)" display="inline"><tspan x="0" y="0" font-family="'Consolas'" font-size="17">KPIs и PIs служат инструментом эффективного контроля и планирования. Они позволяют поддерживать и </tspan><tspan x="0" y="20.4" font-family="'Consolas'" font-size="17">улучшать результаты предприятия, приближая эффективность производства к мировым стандартам.</tspan></text>
</g>
<g id="Layer_2">
	<text transform="matrix(1 0 0 1 -141.25 -58.4717)"><tspan x="0" y="0" fill="#231F20" font-family="'Consolas'" font-size="17">KPIs и PIs помогают оценивать деятельность сотрудников, подразделений и предприятия не субъективно, </tspan><tspan x="0" y="20.4" fill="#231F20" font-family="'Consolas'" font-size="17">«на основе ощущений», а по объективным характеристикам, то есть «на основе фактов». Ведь это всегда </tspan><tspan x="0" y="40.8" fill="#231F20" font-family="'Consolas'" font-size="17">количественные, то есть измеримые цифровые показатели.</tspan></text>
</g>
<g id="Layer_11">
	<g id="Layer_5_1_">
		
			<use xlink:href="#no"  width="405.7" height="476.861" x="-1.4" y="-476.85" transform="matrix(0.6504 0 0 -0.6504 4.8701 14.501)" overflow="visible"/>
	</g>
	<g id="Layer_1_6_">
		
			<use xlink:href="#yes"  width="594.051" height="495.556" x="-0.026" y="-495.55" transform="matrix(0.6504 0 0 -0.6504 292.9829 2.3394)" overflow="visible"/>
	</g>
</g>
<g id="Layer_1">
	<g>
		<rect x="-160.505" y="435.75" fill="#E6E7E8" width="1007.32" height="39"/>
		<polygon fill="#F05A28" points="817.637,463.125 817.637,463.125 807.387,451.375 827.887,451.375 		"/>
	</g>
	<g>
		<rect x="-160.66" y="-120.097" fill="#E6E7E8" width="1007.32" height="39"/>
		<polygon fill="#F05A28" points="817.481,-92.722 817.481,-92.722 807.231,-104.472 827.731,-104.472 		"/>
	</g>
	<g>
		<rect x="-160.66" y="483.511" fill="#E6E7E8" width="1007.32" height="39"/>
		<polygon fill="#F05A28" points="817.481,510.886 817.481,510.886 807.231,499.136 827.731,499.136 		"/>
	</g>
	<g>
		<rect x="-161.136" y="387.886" fill="#E6E7E8" width="1007.32" height="39"/>
		<polygon fill="#F05A28" points="817.006,415.261 817.006,415.261 806.756,403.511 827.256,403.511 		"/>
	</g>
	<g>
		<rect x="-160.66" y="338.474" fill="#E6E7E8" width="1007.32" height="39"/>
		<polygon fill="#F05A28" points="817.482,365.849 817.482,365.849 807.232,354.099 827.732,354.099 		"/>
	</g>
	<g display="none">
		
			<text transform="matrix(1 0 0 1 -148.6211 -30.4663)" display="inline" fill="#F15E00" font-family="'PragmaticaCondC'" font-size="16.6667">1</text>
	</g>
	<rect x="-160.505" y="-173.143" fill-rule="evenodd" clip-rule="evenodd" fill="#8DB220" width="1007.69" height="39.266"/>
	<rect x="-151.691" y="-210.955" fill="none" width="1035.582" height="518.411"/>
	<text transform="matrix(1 0 0 1 -151.6914 -158.4253)"><tspan x="0" y="0" fill="#231F20" font-family="'Consolas'" font-size="17">Каждый из нас может спросить себя – а для чего нужны эти KPIs и PIs моему предприятию и лично мне? На этот </tspan><tspan x="0" y="20.4" fill="#231F20" font-family="'Consolas'" font-size="17">вопрос можно дать несколько ответов:</tspan><tspan x="0" y="64.801" fill="#231F20" font-family="'Consolas'" font-size="17">1. Объективность</tspan><tspan x="0" y="112.801" fill="#231F20" font-family="'Consolas'" font-size="17"> </tspan><tspan x="0" y="297.601" font-family="'Consolas'" font-size="17"> </tspan></text>
	<rect x="228" y="417.689" fill-rule="evenodd" clip-rule="evenodd" fill="none" width="82" height="0"/>
	<text transform="matrix(1 0 0 1 -151.6914 363.8491)" fill="#231F20" font-family="'Consolas'" font-size="17">2. Контроль и планирование</text>
	<g id="Layer_8">
		<text transform="matrix(1 0 0 1 -151.6914 409.3862)" font-family="'Consolas'" font-size="17">3. Удовлетворенность внешних и внутренних клиентов</text>
	</g>
	<g id="Layer_9">
		<text transform="matrix(1 0 0 1 -151.6914 463.1245)" font-family="'Consolas'" font-size="17">4. Мотивация сотрудников</text>
	</g>
	<g id="Layer_10">
		<text transform="matrix(1 0 0 1 -151.6914 508.0112)" font-family="'Consolas'" font-size="17">5. Бенчмаркинг</text>
	</g>
</g>
</svg>
