<?xml version="1.0" encoding="utf-8"?>
<!-- Generator: Adobe Illustrator 15.1.0, SVG Export Plug-In . SVG Version: 6.00 Build 0)  -->
<!DOCTYPE svg PUBLIC "-//W3C//DTD SVG 1.1//EN" "http://www.w3.org/Graphics/SVG/1.1/DTD/svg11.dtd">
<svg version="1.1" id="Layer_1" xmlns="http://www.w3.org/2000/svg" xmlns:xlink="http://www.w3.org/1999/xlink" x="0px" y="0px"
	 width="723.24px" height="220.383px" viewBox="-298.065 -127.033 723.24 220.383"
	 enable-background="new -298.065 -127.033 723.24 220.383" xml:space="preserve">
<symbol  id="Duplicate_Items_Folder_x2F__x3C_Path_x3E__x5F_6_copy_2" viewBox="-27.9 -50.55 55.8 101.1">
	<g id="Layer_1_5_">
		<path fill="#8DB321" d="M-18.65,47.399h-5.6c-1,0-1.85,0.15-2.55,0.45c-0.733,0.3-1.1,0.667-1.1,1.101s0.367,0.816,1.1,1.149
			c0.7,0.3,1.55,0.45,2.55,0.45H27.9v-101.1h-52.15c-1,0-1.85,0.149-2.55,0.449c-0.733,0.333-1.1,0.718-1.1,1.15s0.367,0.8,1.1,1.1
			c0.7,0.301,1.55,0.45,2.55,0.45h5.6V47.399z"/>
	</g>
</symbol>
<symbol  id="Duplicate_Items_Folder_x2F__x3C_Path_x3E__x5F_8" viewBox="-36.1 -53.226 72.2 106.45">
	<g id="Layer_1_4_">
		<path d="M36.1,46.375v-0.101c0-0.6-0.25-1.033-0.75-1.3h-0.1c-0.233-0.133-0.483-0.2-0.75-0.2h-2.4v-26h2.4
			c0.467,0,0.85-0.149,1.15-0.45c0.3-0.333,0.45-0.717,0.45-1.149c0-0.435-0.15-0.8-0.45-1.101c-0.333-0.3-0.717-0.449-1.15-0.449
			h-2.4v-34.051h2.4c0.433,0,0.816-0.149,1.15-0.449c0.3-0.301,0.45-0.667,0.45-1.101c0-0.466-0.15-0.85-0.45-1.149
			c-0.3-0.301-0.683-0.45-1.15-0.45h-2.4v-28.45h2.4c0.433,0,0.816-0.15,1.15-0.45c0.3-0.3,0.45-0.667,0.45-1.1
			c0-0.467-0.15-0.851-0.45-1.15s-0.683-0.45-1.15-0.45H-24l-0.05-0.05H-34.5c-0.434,0-0.8,0.15-1.1,0.45
			c-0.333,0.333-0.5,0.717-0.5,1.15v0.05c0,0.433,0.167,0.8,0.5,1.1c0.3,0.3,0.667,0.45,1.1,0.45h2.45v28.45h-2.45
			c-0.434,0-0.8,0.149-1.1,0.45c-0.333,0.333-0.5,0.717-0.5,1.149c0,0.435,0.167,0.8,0.5,1.101c0.3,0.3,0.667,0.449,1.1,0.449h2.45
			v34.051h-2.45c-0.434,0-0.8,0.149-1.1,0.449c-0.333,0.301-0.5,0.667-0.5,1.101c0,0.433,0.167,0.815,0.5,1.149
			c0.3,0.301,0.667,0.45,1.1,0.45h2.45v25.95h-2.45c-0.434,0-0.8,0.15-1.1,0.45c-0.333,0.3-0.5,0.667-0.5,1.1v0.101
			c0,0.434,0.167,0.8,0.5,1.1c0.3,0.3,0.667,0.45,1.1,0.45h50.2l-0.1,0.75v2.35c0,0.601,0.216,1.117,0.65,1.55
			c0.4,0.434,0.9,0.65,1.5,0.65h9.5c0.6,0,1.117-0.217,1.55-0.65c0.434-0.434,0.65-0.949,0.65-1.55v-2.35l-0.15-0.75h5.2
			c0.433,0,0.816-0.15,1.15-0.45C35.95,47.175,36.1,46.808,36.1,46.375z"/>
	</g>
</symbol>
<symbol  id="Duplicate_Items_Folder_x2F_label" viewBox="-28.4 -33.213 56.8 66.428">
	<g id="base_2_">
		<path fill="#DE4653" d="M27.4,22.814c-4.633-44.067-17.65-61.667-39.05-52.8c6.8,1.667,10.15,6.767,10.05,15.3
			c-8.467-6.9-17.067-7.383-25.8-1.45c11.233-0.066,17.783,16.05,19.65,48.351L27.4,22.814z"/>
		<path fill="none" stroke="#DE4653" stroke-width="2" stroke-linecap="round" stroke-linejoin="round" stroke-miterlimit="3" d="
			M27.4,22.814c-4.633-44.067-17.65-61.667-39.05-52.8c6.8,1.667,10.15,6.767,10.05,15.3c-8.467-6.9-17.067-7.383-25.8-1.45
			c11.233-0.066,17.783,16.05,19.65,48.351L27.4,22.814z"/>
	</g>
	<g id="text_2_">
		<path fill="none" stroke="#FFFFFF" stroke-width="5" stroke-linecap="round" stroke-linejoin="round" stroke-miterlimit="3" d="
			M-2.9,19.114l21.75-5.95 M-6.7,0.515l21.8-6 M-4.2,9.765l21.75-5.9"/>
	</g>
</symbol>
<symbol  id="gorshok" viewBox="-44.825 -34 89.65 68">
	<g id="Layer_1_1_">
		<path fill="#993300" d="M0.075-34v68h44.75l-2.7-27c-3.7-19.5-10.633-33.167-20.8-41H0.075z"/>
		<path fill="#996600" d="M0.075,34v-68h-21.2c-10.167,7.833-17.183,21.5-21.05,41l-2.65,27H0.075z"/>
	</g>
</symbol>
<g id="Layer_3">
</g>
<polygon fill="#E8EBE4" points="424.943,-127.033 426.935,11.529 -297.247,11.529 -297.128,-127.033 "/>
<polygon fill="#C0C9C9" points="426.935,93.176 -297.831,94.595 -298.065,11.173 426.935,10.464 "/>
<g id="plant">
	<g id="Layer_1_3_">
		<g>
			<g id="Layer_1_6_">
				<path fill="#993300" d="M-62.048,12.904v-59.587h39.213l-2.366,23.66C-28.442-5.936-34.517,6.04-43.427,12.904H-62.048z"/>
				<path fill="#996600" d="M-62.048-46.683v59.587h-18.577C-89.533,6.04-95.681-5.936-99.07-23.024l-2.322-23.66H-62.048z"/>
			</g>
		</g>
	</g>
	<g id="leaves_1_">
		<g>
			<path fill="#996F39" d="M-4.244-36.673c1.195,0.293,2.245,0.837,3.148,1.636c0.482,0.441,0.745,1.229,0.785,2.36
				c0.022,0.169-0.01,1.335-0.094,3.496c-0.125,3.42,0.588,5.888,2.141,7.396c0.587,0.588,0.735,1.313,0.44,2.172
				c-0.168,0.441-0.398,0.936-0.692,1.481c-0.274-0.208-0.567-0.419-0.882-0.629c-2.169-1.686-3.974-3.338-5.416-4.958
				c1.028,4.019,0.179,7.444-2.549,10.277c-1.721,1.782-5.394,4.187-11.019,7.208c-1.258,0.672-1.836,1.493-1.73,2.457
				c0.105,1.029,0.136,1.563,0.094,1.604c-0.797-1.132-1.437-2.276-1.919-3.431c-0.946-2.288-0.692-4.322,0.754-6.107
				c0.902-1.09,1.365-2.288,1.385-3.588c0-0.798-0.209-1.973-0.629-3.523c-0.42-1.597-0.64-2.805-0.66-3.623
				c-0.044-1.427,0.33-2.759,1.117-3.996c1.459-2.287,2.901-4.06,4.328-5.323c1.91-1.72,4.246-2.998,7.006-3.839
				c0.167-0.572,0.393-1.141,0.675-1.7C-6.994-37.115-5.757-36.903-4.244-36.673z M-6.827-43.882
				c-0.336-0.252-0.682-0.494-1.039-0.725c-10.514-7.619-13.818-14.933-9.916-21.942c8.248,1.152,11.963,8.06,11.144,20.713
				C-6.679-45.205-6.742-44.556-6.827-43.882z M-8.635-35.603c-1.138,3.752,0.136,7.712,3.823,11.884
				C-8.499-27.891-9.773-31.853-8.635-35.603z M-27.257,7.84c0.903,0.795,2.435,1.321,4.596,1.574
				c2.623,0.315,4.513,0.734,5.667,1.259c0.378,0.168,0.776,0.357,1.195,0.565c-0.188,0.064-2.276,0.589-6.263,1.576
				c-4.176,1.236-7.114,1.604-8.814,1.101c-1.008-0.295-2.445-1.501-4.312-3.623c1.531-1.32,2.811-2.211,3.838-2.675
				C-29.67,6.823-28.306,6.896-27.257,7.84z M-39.093,15.613c0.052,0.073,0.105,0.146,0.157,0.222l0.017,0.031l-0.017-0.031
				C-38.988,15.759-39.041,15.686-39.093,15.613v-0.028c0.169,0.082,0.336,0.177,0.504,0.281h-0.331l1.117,3.021
				c1.07,1.911,2.403,2.561,3.997,1.954c0.233-0.084,0.453,0.073,0.662,0.472c0.125,0.231,0.304,0.568,0.536,1.009
				c-1.785,0.292-3.127,0.934-4.03,1.918c-0.861,0.945-1.752,1.355-2.676,1.228c-0.631-0.083-1.469-0.493-2.519-1.228
				c-1.28-0.902-2.172-1.469-2.675-1.699c-1.071-0.461-2.111-0.492-3.117-0.096c-1.994,0.778-3.852,0.138-5.573-1.918
				c-1.365-1.617-2.424-3.767-3.18-6.453c1.198-0.461,2.844-1.144,4.943-2.045c1.741-0.694,3.18-1.082,4.313-1.167
				C-44.223,10.594-41.546,12.178-39.093,15.613z"/>
		</g>
		<g>
			<path fill="#996F39" d="M-38.99,27.299c-0.203,0-0.394-0.015-0.569-0.039c-0.932-0.124-1.986-0.613-3.309-1.538
				c-1.52-1.07-2.137-1.417-2.375-1.529c-0.62-0.262-1.167-0.282-1.718-0.065c-1.92,0.75-4.797,0.934-7.622-2.441
				c-1.521-1.801-2.712-4.2-3.534-7.124c-0.254-0.899,0.22-1.843,1.091-2.178c1.142-0.439,2.738-1.1,4.879-2.02
				c0.014-0.006,0.029-0.012,0.043-0.018c1.929-0.768,3.515-1.19,4.849-1.289c3.533-0.329,6.79,1.524,9.632,5.504l0.038,0.051
				c0.046,0.065,0.094,0.132,0.141,0.199c0.035,0.053,0.068,0.106,0.099,0.162c0.04,0.076,0.092,0.184,0.122,0.264l1.065,2.881
				c0.804,1.375,1.326,1.177,1.708,1.031c0.875-0.317,2.136-0.151,2.909,1.322c0.115,0.212,0.298,0.557,0.534,1.006
				c0.271,0.515,0.278,1.128,0.019,1.648c-0.259,0.521-0.752,0.884-1.327,0.979c-1.363,0.223-2.369,0.68-2.989,1.356
				C-36.634,26.921-37.969,27.299-38.99,27.299z M-46.209,20.363c0.804,0,1.618,0.172,2.416,0.516
				c0.013,0.005,0.026,0.012,0.04,0.017c0.388,0.178,1.118,0.565,2.963,1.866c1.152,0.805,1.631,0.902,1.715,0.914
				c0.371,0.048,0.804-0.327,1.101-0.654c0.256-0.279,0.537-0.537,0.841-0.773c-0.773-0.462-1.552-1.234-2.247-2.477
				c-0.046-0.083-0.086-0.168-0.119-0.256l-1.067-2.851c-2.071-2.898-4.16-4.212-6.389-4.001c-0.975,0.072-2.238,0.42-3.787,1.036
				c-1.329,0.571-2.455,1.045-3.399,1.431c0.621,1.715,1.4,3.134,2.326,4.229c1.546,1.848,2.653,1.745,3.532,1.401
				C-47.61,20.495-46.913,20.363-46.209,20.363z M-29.079,15.944c-0.884,0-1.65-0.098-2.311-0.294
				c-1.371-0.401-3.012-1.724-5.157-4.162c-0.319-0.362-0.479-0.837-0.446-1.319c0.033-0.481,0.257-0.93,0.623-1.245
				c1.677-1.446,3.075-2.412,4.275-2.954c2.945-1.395,4.912-0.492,6.039,0.518c0.351,0.307,1.283,0.857,3.605,1.13
				c2.846,0.341,4.874,0.802,6.206,1.409c0.388,0.173,0.814,0.374,1.252,0.591c0.653,0.326,1.048,1.013,0.999,1.741
				c-0.049,0.729-0.531,1.356-1.223,1.591c-0.142,0.049-0.355,0.121-6.372,1.609C-24.729,15.488-27.179,15.944-29.079,15.944z
				 M-32.544,10.48c1.413,1.415,2.042,1.661,2.175,1.7c0.745,0.221,2.679,0.374,7.39-0.982c-2.501-0.304-4.295-0.96-5.475-2.001
				c-0.005-0.004-0.009-0.007-0.014-0.011c-0.22-0.198-0.677-0.61-2.11,0.068C-31.002,9.446-31.636,9.801-32.544,10.48z
				 M-20.016-0.364c-0.051,0-0.104-0.002-0.156-0.007c-0.531-0.045-1.016-0.324-1.323-0.761c-0.867-1.232-1.577-2.503-2.109-3.774
				c-1.199-2.9-0.846-5.645,1.018-7.944c0.651-0.786,0.968-1.592,0.982-2.477c0-0.41-0.098-1.295-0.566-3.023
				c-0.464-1.764-0.7-3.085-0.723-4.052c-0.054-1.775,0.417-3.464,1.399-5.01c1.543-2.419,3.109-4.338,4.656-5.707
				c1.875-1.689,4.157-3.009,6.785-3.923c0.141-0.363,0.302-0.723,0.481-1.077c0.365-0.721,1.165-1.114,1.959-0.958
				c0.971,0.188,2.196,0.396,3.642,0.616c0.053,0.008,0.106,0.018,0.158,0.031c1.479,0.362,2.796,1.048,3.916,2.038
				c0.875,0.8,1.323,1.966,1.393,3.584c0.02,0.23,0.021,0.785-0.092,3.698c-0.104,2.87,0.432,4.899,1.595,6.029
				c1.102,1.102,1.412,2.536,0.89,4.056c-0.006,0.018-0.013,0.037-0.02,0.055c-0.196,0.516-0.462,1.087-0.791,1.697
				c-0.25,0.464-0.692,0.797-1.208,0.909c-0.515,0.113-1.055-0.007-1.477-0.326c-0.26-0.198-0.528-0.388-0.795-0.567
				c-0.037-0.024-0.071-0.049-0.105-0.076c-0.757-0.589-1.475-1.177-2.152-1.764c-0.304,2.563-1.439,4.875-3.398,6.91
				c-1.876,1.942-5.625,4.41-11.465,7.547c-0.564,0.301-0.8,0.57-0.79,0.666c0.18,1.756,0.247,2.409-0.425,3.08
				C-19.078-0.553-19.538-0.364-20.016-0.364z M-10.848-32.806c-1.344,0.652-2.542,1.45-3.582,2.386
				c-1.307,1.155-2.653,2.818-4.013,4.951c-0.593,0.934-0.868,1.905-0.834,2.969c0.012,0.474,0.125,1.405,0.602,3.217
				c0.462,1.707,0.689,3.014,0.689,3.984c-0.028,1.745-0.633,3.331-1.801,4.742c-0.883,1.088-1.116,2.222-0.713,3.594
				c0.341-0.301,0.759-0.593,1.271-0.866c6.757-3.629,9.478-5.738,10.569-6.869c2.19-2.273,2.91-4.95,2.194-8.168
				C-9.352-26.238-10.817-29.567-10.848-32.806z M-3.46-24.919c0.725,0.814,1.559,1.646,2.493,2.49
				c-0.926-1.755-1.346-4.04-1.245-6.818c0.1-2.571,0.102-3.154,0.099-3.283c-0.002-0.027-0.004-0.054-0.004-0.083
				c-0.028-0.784-0.18-1.054-0.208-1.098c-0.659-0.574-1.405-0.963-2.275-1.188c-0.818-0.125-1.57-0.247-2.248-0.363
				c-0.017,0.053-0.033,0.107-0.049,0.16c-0.002,0.008-0.005,0.016-0.007,0.024C-7.855-31.943-6.728-28.62-3.46-24.919z
				 M-6.827-42.073c-0.386,0-0.769-0.124-1.088-0.364c-0.302-0.228-0.616-0.447-0.932-0.651c-0.027-0.017-0.054-0.035-0.08-0.054
				c-11.327-8.208-14.838-16.379-10.435-24.287c0.364-0.652,1.092-1.014,1.832-0.911c9.313,1.305,13.584,8.916,12.697,22.622
				c-0.045,0.668-0.113,1.36-0.2,2.061c-0.08,0.641-0.495,1.19-1.09,1.441C-6.349-42.119-6.589-42.073-6.827-42.073z M-16.754-64.54
				c-2.314,5.446,0.439,11.125,8.38,17.292C-7.815-61.167-13.537-63.839-16.754-64.54z"/>
		</g>
	</g>
	<g id="plant_1_">
		<g>
			<path fill="#BAA632" d="M-11.991-20.574c-0.323,0-0.651-0.086-0.946-0.268c-0.851-0.524-1.115-1.638-0.592-2.489
				c2.799-4.547,2.896-12.369,0.286-23.248c-2.593-10.796-6.737-17.855-12.318-20.984c-10.107-4.231-18.089-4.746-23.726-1.529
				c-5.726,3.268-9.403,10.593-10.93,21.772c-0.135,0.989-1.041,1.682-2.037,1.547c-0.99-0.136-1.682-1.047-1.547-2.037
				c1.687-12.352,5.967-20.57,12.722-24.424c6.682-3.813,15.77-3.351,27.012,1.374c0.059,0.025,0.117,0.053,0.174,0.084
				c6.548,3.618,11.315,11.474,14.169,23.353c2.882,12.016,2.646,20.517-0.722,25.988C-10.79-20.88-11.384-20.574-11.991-20.574z"/>
		</g>
	</g>
</g>
<g>
	<g>
		<polygon fill="#242121" points="148.355,24.868 160.945,21.321 363.716,21.321 376.876,24.868 376.876,25.669 374.132,25.9 
			151.101,25.9 148.355,25.669 		"/>
		<path fill="#242121" d="M255.809-63.815h13.617c1.527,0,2.859,0.878,4.002,2.633c1.07,1.677,1.606,3.737,1.606,6.177
			l12.014,72.207c0,2.44-0.534,4.502-1.604,6.18c-1.141,1.677-2.478,2.516-4.002,2.516h-37.647c-1.529,0-2.862-0.838-4.007-2.516
			c-1.064-1.678-1.598-3.74-1.598-6.18l12.014-72.207c0-2.44,0.534-4.5,1.6-6.177C252.948-62.937,254.281-63.815,255.809-63.815z"/>
		<g>
			<path fill="#2E2724" d="M156.479-121.031h213.646c0.762,0,1.448,0.229,2.058,0.687c0.535,0.455,0.805,0.992,0.805,1.601V5.417
				c0,0.61-0.27,1.183-0.805,1.717c-0.609,0.457-1.296,0.687-2.058,0.687H156.479c-0.76,0-1.409-0.229-1.943-0.687
				c-0.536-0.534-0.799-1.107-0.799-1.717v-124.161c0-0.609,0.263-1.144,0.799-1.601
				C155.07-120.802,155.719-121.031,156.479-121.031z"/>
			<rect x="164.717" y="-111.191" fill="#00B4B8" width="197.167" height="109.168"/>
		</g>
	</g>
	<rect x="164.717" y="-106.499" fill="#F5F5F5" width="197.167" height="99.899"/>
	<rect x="164.717" y="-106.499" fill="#D1D3D4" width="197.167" height="11.216"/>
	<rect x="164.717" y="-17.584" fill="#D1D3D4" width="197.167" height="11.211"/>
	<rect x="164.717" y="-13.581" fill="#3C2415" width="197.167" height="11.101"/>
	<rect x="164.717" y="-111.191" fill="#3C2415" width="197.167" height="11.214"/>
	<g>
		<path fill="#2E2724" d="M231.998-9.656c-0.319,0-0.636-0.102-0.9-0.3L208.5-26.903c-0.662-0.497-0.797-1.438-0.3-2.1
			c0.499-0.664,1.438-0.796,2.101-0.3l21.903,16.427l25.424-10.897l18.706-13.089c0.308-0.215,0.686-0.309,1.058-0.258l27.373,3.651
			l26.537-35.384l-35.481-4.837c-0.673-0.092-1.201-0.625-1.285-1.3l-1.722-13.75h-32.565l-30.225-1.887
			c-0.71-0.044-1.291-0.581-1.392-1.285l-1.881-13.18c-0.116-0.82,0.453-1.58,1.273-1.697c0.825-0.119,1.579,0.453,1.697,1.273
			l1.708,11.971l28.912,1.808l33.796-0.003c0.757,0,1.395,0.563,1.488,1.313l1.742,13.919l40.286,5.493
			c0.82,0.112,1.396,0.868,1.283,1.689s-0.873,1.394-1.688,1.284l-1.229-0.167l14.069,28.135c0.24,0.481,0.205,1.055-0.094,1.503
			l-6.728,10.092l11.997,8.571c0.067,0.048,0.13,0.102,0.188,0.16l5.65,5.65c0.586,0.585,0.586,1.536,0,2.121
			c-0.586,0.586-1.535,0.586-2.121,0l-5.563-5.563l-13.078-9.343c-0.658-0.471-0.825-1.379-0.376-2.053l7.051-10.576l-13.59-27.175
			l-26.79,35.72c-0.326,0.434-0.856,0.658-1.398,0.587l-27.663-3.69l-18.354,12.843c-0.085,0.059-0.175,0.109-0.27,0.15
			l-26.363,11.3C232.4-9.696,232.198-9.656,231.998-9.656z"/>
	</g>
	<g>
		<path fill="#2E2724" d="M281.432-33.571c-0.186,0-0.374-0.035-0.557-0.108l-24.952-9.977c-0.77-0.307-1.144-1.18-0.836-1.95
			s1.182-1.143,1.949-0.835l24.952,9.977c0.77,0.307,1.144,1.18,0.836,1.95C282.59-33.928,282.027-33.571,281.432-33.571z"/>
	</g>
	<g>
		<path fill="#2E2724" d="M218.821-22.837c-0.226,0-0.454-0.051-0.67-0.159c-0.74-0.371-1.041-1.271-0.671-2.012l5.335-10.675
			l-5.328-12.441l-15.009-24.383c-0.435-0.706-0.215-1.629,0.491-2.063c0.704-0.433,1.629-0.215,2.063,0.491l15.066,24.477
			c0.039,0.063,0.072,0.128,0.102,0.196l5.646,13.182c0.174,0.405,0.16,0.866-0.037,1.261l-5.646,11.296
			C219.901-23.141,219.37-22.837,218.821-22.837z"/>
	</g>
</g>
<g>
	<rect x="-270.129" y="78.911" fill="#CC0000" width="684.689" height="10"/>
</g>
<g>
	<g>
		<path fill="#CC0000" d="M-260.388,89.016l-9.997-0.259l2.035-78.569l9.997,0.259L-260.388,89.016z M407.013,88.724l-0.201-78.868
			l10-0.025l0.201,78.868L407.013,88.724z"/>
	</g>
</g>
<g id="objects">
	<g>
		<g>
			
				<use xlink:href="#Duplicate_Items_Folder_x2F__x3C_Path_x3E__x5F_8"  width="72.2" height="106.45" x="-36.1" y="-53.226" transform="matrix(1.6999 0 0 -1.4263 73.5911 -40.4656)" overflow="visible"/>
			<rect x="11.081" y="-105.009" fill="#8DB321" width="109.077" height="136.208"/>
			
				<use xlink:href="#Duplicate_Items_Folder_x2F__x3C_Path_x3E__x5F_6_copy_2"  width="55.8" height="101.1" x="-27.9" y="-50.55" transform="matrix(1.6999 0 0 -1.4263 53.5007 -37.7761)" overflow="visible"/>
			<path fill="#637B17" d="M124.922-110.598c0.708,0,1.322,0.191,1.835,0.578c0.58,0.515,0.871,1.063,0.871,1.644
				c0,0.836-0.422,1.48-1.257,1.929H26.778c-0.71,0-1.354,0.227-1.932,0.675c-0.516,0.451-0.772,0.998-0.772,1.644
				c0,0.58,0.257,1.095,0.772,1.545c0.58,0.449,1.224,0.675,1.932,0.675h4.055v135.14h-4.055c-0.516,0-1,0.129-1.449,0.386H7.46
				c-0.71,0-1.353-0.224-1.931-0.676c-0.451-0.452-0.677-0.998-0.677-1.643c0-0.578,0.227-1.095,0.677-1.543
				c0.579-0.386,1.223-0.58,1.931-0.58h4.151V-106.06H7.46c-0.71,0-1.353-0.226-1.931-0.675c-0.451-0.386-0.677-0.936-0.677-1.641
				c0-0.58,0.227-1.131,0.677-1.643c0.579-0.386,1.223-0.579,1.931-0.579h117.461V-110.598z"/>
			<path d="M8.23-111.486h117.292c0.736,0,1.359,0.254,1.867,0.764c0.567,0.511,0.851,1.136,0.851,1.871
				c0,0.738-0.284,1.358-0.851,1.87c-0.508,0.566-1.133,0.848-1.867,0.848H8.23c-0.739,0-1.388-0.282-1.955-0.848
				c-0.508-0.511-0.766-1.132-0.766-1.87c0-0.735,0.257-1.359,0.766-1.871C6.842-111.229,7.496-111.486,8.23-111.486z"/>
			<path fill="#281800" d="M125.523,34.372H8.23c-0.739,0-1.388-0.256-1.955-0.764c-0.508-0.511-0.766-1.135-0.766-1.869
				c0-0.738,0.257-1.391,0.766-1.956c0.567-0.512,1.221-0.766,1.955-0.766h117.292c0.736,0,1.359,0.254,1.867,0.766
				c0.567,0.565,0.851,1.218,0.851,1.956c0,0.734-0.284,1.358-0.851,1.869C126.882,34.116,126.257,34.372,125.523,34.372z"/>
			<path fill="#566B14" d="M125.523-69.479H8.23c-0.739,0-1.388-0.251-1.955-0.763c-0.508-0.513-0.766-1.162-0.766-1.952
				c0-0.74,0.257-1.364,0.766-1.873c0.567-0.509,1.221-0.765,1.955-0.765h117.292c0.736,0,1.359,0.256,1.867,0.765
				c0.567,0.508,0.851,1.133,0.851,1.873c0,0.734-0.284,1.386-0.851,1.952C126.882-69.731,126.257-69.479,125.523-69.479z"/>
			<path fill="#566B14" d="M125.523-6.242H8.23c-0.739,0-1.388-0.283-1.955-0.848C5.767-7.601,5.509-8.224,5.509-8.964
				c0-0.734,0.257-1.359,0.766-1.868c0.567-0.567,1.221-0.846,1.955-0.846h117.292c0.736,0,1.359,0.279,1.867,0.846
				c0.567,0.509,0.851,1.134,0.851,1.868c0,0.739-0.284,1.362-0.851,1.873C126.882-6.526,126.257-6.242,125.523-6.242z"/>
		</g>
		<g enable-background="new    ">
			<path fill="#FFFFFF" d="M28.191-41.844H23.07v-19.13H38.66v19.13h-5.122v-15.29h-5.347V-41.844z"/>
			<path fill="#FFFFFF" d="M42.838-38.906c0.527,0.339,1.205,0.452,1.732,0.452c1.431,0,1.695-1.431,1.996-2.674l0.226-0.941
				l-6.666-18.904h6.025l3.238,12.201l2.523-12.201h5.423l-5.348,20.147c-0.678,2.523-1.394,6.289-5.649,6.289
				c-1.167,0-2.523-0.15-3.502-0.376V-38.906z"/>
			<path fill="#FFFFFF" d="M73.866-49.074c-0.076,1.657-0.753,7.946-7.833,7.946c-1.921,0-8.436-0.264-8.436-10.243
				c0-9.377,5.536-10.318,8.699-10.318c2.448,0,6.891,0.678,7.381,7.532h-4.896c-0.264-3.013-1.318-3.69-2.674-3.69
				c-1.243,0-3.239,0.565-3.239,6.063c0,2.975,0.452,6.816,3.201,6.816c2.071,0,2.599-2.034,2.749-4.105H73.866z"/>
			<path fill="#FFFFFF" d="M74.579-57.134v-3.841h15.214v3.841h-5.046v15.29h-5.121v-15.29H74.579z"/>
			<path fill="#FFFFFF" d="M90.581-51.447c0-5.912,2.636-10.243,8.624-10.243s8.624,4.331,8.624,10.243
				c0,5.988-2.674,10.318-8.624,10.318C93.255-41.129,90.581-45.459,90.581-51.447z M102.557-51.447
				c0-5.498-1.808-6.402-3.352-6.402c-1.544,0-3.352,0.904-3.352,6.402c0,5.611,1.808,6.478,3.352,6.478
				C100.749-44.969,102.557-45.836,102.557-51.447z"/>
		</g>
	</g>
	<g>
		<polygon fill="#C2C2C2" points="-55.778,-3.905 -51.287,-3.905 -49.851,-2.389 -51.287,-0.881 -52.76,-0.881 		"/>
		<polygon fill="#C2C2C2" points="-70.23,-3.905 -66.781,-3.905 -63.757,-0.881 -67.206,-0.881 		"/>
		<polygon fill="#C2C2C2" points="-63.08,-3.905 -59.457,-3.905 -56.437,-0.881 -60.06,-0.881 		"/>
		<polygon fill="#C2C2C2" points="-77.433,-3.905 -73.908,-3.905 -70.885,-0.881 -77.433,-0.881 		"/>
		<polygon fill="#878787" points="-66.781,-3.905 -63.08,-3.905 -60.06,-0.881 -63.757,-0.881 		"/>
		<polygon fill="#878787" points="-56.437,-0.881 -59.457,-3.905 -55.778,-3.905 -52.76,-0.881 		"/>
		<polygon fill="#878787" points="-67.206,-0.881 -70.885,-0.881 -73.908,-3.905 -70.23,-3.905 		"/>
		<rect x="-103.175" y="-7.408" fill="#54545C" width="4.825" height="10.13"/>
		<path fill="#818691" d="M-106.216-0.201c1.203-0.943,2.217-2.1,3.041-3.47v8.192c0,0.634-0.223,1.177-0.676,1.628
			c-0.451,0.452-1.001,0.679-1.645,0.679h-4.921l0.019-4.994l0.134-0.042C-108.79,1.416-107.44,0.752-106.216-0.201z"/>
		<path fill="#8F94A1" d="M-110.395-9.887c0-0.181-0.025-0.442-0.079-0.774c-0.039-0.232-0.137-0.522-0.291-0.872h5.27
			c0.644,0,1.194,0.227,1.645,0.677c0.453,0.464,0.676,1.015,0.676,1.648v5.538c-0.824,1.37-1.837,2.523-3.041,3.47
			c-1.227,0.953-2.574,1.621-4.046,1.993l-0.133,0.04V-9.887z"/>
		<path fill="#64646E" d="M-166.079,26.852c0.763-0.593,1.943-0.935,3.545-1.025v10.846c0,0.929-0.335,1.729-1.005,2.401
			c-0.659,0.659-1.46,0.989-2.401,0.989h-5.561c1.987-5.734,3.157-9.079,3.507-10.033
			C-167.443,28.482-166.803,27.424-166.079,26.852z"/>
		<path fill="#FFC821" d="M-176.771,8.123c-0.31-0.324-0.691-0.483-1.144-0.483c-0.451,0-0.836,0.159-1.163,0.483
			c-0.31,0.312-0.462,0.69-0.462,1.144c0,0.45,0.153,0.836,0.462,1.164c0.327,0.309,0.712,0.461,1.163,0.461
			c0.453,0,0.834-0.152,1.144-0.461c0.321-0.327,0.486-0.713,0.486-1.164C-176.285,8.83-176.45,8.449-176.771,8.123z
			 M-165.982-2.991c0-0.26-0.09-0.478-0.273-0.659c-0.178-0.181-0.4-0.271-0.657-0.271h-0.021c-0.259,0-0.479,0.09-0.658,0.271
			c-0.183,0.181-0.273,0.399-0.273,0.659v13.44c0,0.26,0.09,0.477,0.273,0.659c0.179,0.178,0.399,0.268,0.658,0.268h0.018
			c0.257,0,0.479-0.09,0.657-0.268c0.182-0.182,0.272-0.399,0.272-0.659v-13.44H-165.982z M-185.586,21.138
			c0.169-0.323,0.194-0.649,0.079-0.989c-0.115-0.334-0.335-0.586-0.657-0.75c-0.325-0.168-0.654-0.194-0.986-0.079
			c-0.35,0.117-0.604,0.335-0.756,0.659c-0.18,0.362-0.399,0.862-0.659,1.511c-0.489,1.2-0.967,2.536-1.43,4.007
			c-1.433,4.586-2.454,9.62-3.059,15.107c-0.042,0.361,0.051,0.681,0.271,0.948c0.219,0.284,0.51,0.447,0.87,0.484h0.155
			c0.335,0,0.626-0.109,0.871-0.329c0.243-0.219,0.389-0.49,0.426-0.813c0.583-5.258,1.563-10.117,2.944-14.584
			C-186.241,22.892-185.599,21.167-185.586,21.138z M-174.234-9.945c-0.439,0-0.82,0.161-1.141,0.485
			c-0.323,0.321-0.485,0.704-0.485,1.143c0,0.45,0.162,0.836,0.485,1.16c0.31,0.312,0.691,0.465,1.141,0.465
			c0.451,0,0.839-0.153,1.161-0.465c0.31-0.324,0.465-0.709,0.465-1.16c0-0.451-0.155-0.835-0.465-1.143
			C-173.395-9.784-173.782-9.945-174.234-9.945z M-116.692-9.945c-0.45,0-0.836,0.161-1.163,0.485
			c-0.31,0.309-0.464,0.692-0.464,1.143c0,0.45,0.153,0.836,0.464,1.16c0.324,0.312,0.712,0.465,1.163,0.465
			c0.454,0,0.835-0.153,1.145-0.465c0.324-0.324,0.485-0.709,0.485-1.16c0-0.442-0.161-0.823-0.485-1.143
			C-115.857-9.784-116.238-9.945-116.692-9.945z M-114.444-13.916c0.811,0,1.555,0.22,2.225,0.659c0.647,0.425,1.132,1,1.454,1.724
			c0.154,0.35,0.252,0.642,0.291,0.872c-0.492,2.247-1.4,4.377-2.732,6.392c-1.317,2.013-2.935,3.745-4.859,5.189
			c-1.237,0.711-2.636,1.41-4.184,2.094v-6.004c0-0.26-0.09-0.478-0.273-0.659c-0.18-0.181-0.4-0.271-0.659-0.271h-0.018
			c-0.259,0-0.479,0.09-0.659,0.271c-0.18,0.181-0.271,0.399-0.271,0.659v6.796l-1.296,0.487v-7.283c0-0.26-0.09-0.478-0.27-0.659
			c-0.183-0.181-0.4-0.271-0.659-0.271h-0.019c-0.259,0-0.479,0.09-0.659,0.271c-0.182,0.181-0.272,0.399-0.272,0.659v7.938
			l-1.665,0.482v-6.893c0-0.634-0.214-1.182-0.64-1.646c-0.503-0.541-1.109-0.813-1.821-0.813h-30.022
			c-0.686,0-1.273,0.24-1.763,0.716c-0.479,0.477-0.716,1.059-0.716,1.744v10.36c0,0.531,0.141,0.996,0.425,1.397
			c0.181,0.256,0.428,0.481,0.738,0.676c-10.332,3.206-17.07,10.717-20.221,22.544c-2.558,9.607-2.623,21.148-0.194,34.631
			c-0.726,0.272-1.504,0.643-2.343,1.104c-0.414,0.245-0.756,0.456-1.026,0.642l-7.941-1.709c-0.245-1.469-0.485-3.195-0.716-5.171
			c-0.49-3.95-0.737-7.204-0.737-9.76c0-5.126,0.302-10.144,0.913-15.049c0.709-5.809,1.771-10.733,3.176-14.775
			c1.782-5.127,4.306-10.62,7.573-16.486c1.484-2.618,2.491-4.425,3.018-5.424c0.853-1.599,1.35-2.775,1.491-3.523
			c0.223-1.264-0.062-3.396-0.851-6.39c-0.388-1.396-0.15-2.66,0.717-3.797c0.864-1.146,2.02-1.724,3.467-1.724H-114.444
			L-114.444-13.916z"/>
		<path fill="#FFAE21" d="M-159.459,18.931c-0.451,0-0.836,0.164-1.159,0.485c-0.324,0.311-0.486,0.691-0.486,1.141
			c0,0.453,0.159,0.841,0.486,1.161c0.323,0.311,0.708,0.466,1.159,0.466c0.453,0,0.834-0.155,1.144-0.466
			c0.321-0.32,0.486-0.708,0.486-1.161c0-0.439-0.162-0.818-0.486-1.141C-158.625,19.095-159.006,18.931-159.459,18.931z
			 M-182.486,59.976c-0.454,0-0.834,0.154-1.144,0.464c-0.322,0.323-0.485,0.71-0.485,1.163c0,0.448,0.161,0.832,0.485,1.139
			c0.326,0.325,0.703,0.485,1.144,0.485c0.45,0,0.839-0.16,1.163-0.485c0.31-0.309,0.461-0.69,0.461-1.139
			c0-0.453-0.152-0.84-0.461-1.163C-181.647,60.13-182.036,59.976-182.486,59.976z M-110.474-10.661
			c0.051,0.335,0.079,0.593,0.079,0.774l-0.019,16.714c-0.042,1.587-0.375,3.111-1.008,4.571c-0.623,1.458-1.501,2.742-2.635,3.855
			l-0.114,0.115c-2.61,2.569-5.612,4.553-9.01,5.946c-3.38,1.382-6.907,2.075-10.572,2.075h-17.896
			c-1.551,0-2.635,0.181-3.254,0.542c-0.336,0.192-0.684,0.619-1.047,1.278c-0.247,0.412-0.626,0.634-1.143,0.657
			c-1.2-0.051-2.536-0.077-4.008-0.077l-1.433,0.04c-1.599,0.09-2.782,0.432-3.545,1.026c-0.724,0.569-1.364,1.629-1.916,3.178
			c-0.35,0.955-1.52,4.298-3.507,10.032c-2.97,8.509-4.576,13.101-4.823,13.77c-0.825,2.272-0.967,4.028-0.425,5.269
			c0.259,0.58,1.235,1.737,2.926,3.468c1.316,1.354,1.509,2.666,0.58,3.932c-0.917,1.237-2.313,1.667-4.185,1.276
			c-0.735-0.15-1.576-0.218-2.517-0.192c-0.917,0.027-1.727,0.131-2.422,0.312c-0.183,0.039-0.453,0.123-0.813,0.25
			c-2.429-13.48-2.364-25.023,0.194-34.63c3.151-11.829,9.889-19.341,20.221-22.545c0.413,0.273,0.85,0.408,1.316,0.408h30.022
			c0.684,0,1.264-0.239,1.743-0.717c0.479-0.491,0.718-1.078,0.718-1.764V5.433l1.665-0.483v5.5c0,0.26,0.09,0.477,0.272,0.659
			c0.18,0.178,0.399,0.268,0.659,0.268h0.019c0.259,0,0.478-0.09,0.659-0.268c0.18-0.182,0.268-0.399,0.268-0.659V4.288l1.298-0.483
			v6.645c0,0.26,0.09,0.477,0.271,0.659c0.181,0.178,0.4,0.268,0.659,0.268h0.018c0.259,0,0.479-0.09,0.659-0.268
			c0.183-0.182,0.273-0.399,0.273-0.659V3.013c1.548-0.684,2.944-1.382,4.184-2.094c1.925-1.444,3.545-3.178,4.859-5.189
			C-111.875-6.287-110.964-8.415-110.474-10.661z"/>
		<path fill="#8F94A1" d="M-89.848-5.377c0.363,0,0.667-0.128,0.913-0.386c0.257-0.256,0.388-0.565,0.388-0.93
			c0-0.362-0.131-0.666-0.388-0.912c-0.246-0.256-0.55-0.384-0.913-0.384h-4.782c-0.361,0-0.666,0.128-0.911,0.384
			c-0.257,0.247-0.388,0.549-0.388,0.912c0,0.361,0.13,0.672,0.388,0.93c0.245,0.258,0.549,0.386,0.911,0.386H-89.848z
			 M-98.041-8.977c0.208-0.205,0.46-0.311,0.756-0.311h9.878c0.296,0,0.549,0.105,0.756,0.311c0.206,0.208,0.309,0.46,0.309,0.756
			V3.535c0,0.296-0.103,0.547-0.309,0.753c-0.208,0.208-0.46,0.312-0.756,0.312h-9.878c-0.295,0-0.548-0.104-0.756-0.312
			c-0.205-0.206-0.309-0.457-0.309-0.753V-8.221C-98.35-8.517-98.246-8.768-98.041-8.977z"/>
		<polygon fill="#54545C" points="-77.433,-4.037 -77.433,-0.669 -80.977,2.722 -86.342,2.722 -86.342,-7.408 -80.977,-7.408 		"/>
		<path fill="#343438" d="M-129.611-3.109c-0.686,1.796-1.757,3.136-3.216,4.029c-3.472,1.821-8.489,3.542-15.048,5.171
			c-8.251,2.025-13.462,3.431-15.631,4.203c-0.284-0.401-0.425-0.866-0.425-1.397v-10.36c0-0.685,0.238-1.267,0.716-1.744
			c0.493-0.476,1.079-0.716,1.763-0.716h30.022C-130.72-3.922-130.115-3.65-129.611-3.109z"/>
		<path fill="#2A2A2E" d="M-128.97-1.461v10.36c0,0.687-0.241,1.273-0.719,1.764c-0.479,0.478-1.059,0.717-1.743,0.717h-30.02
			c-0.464,0-0.904-0.135-1.316-0.408c-0.31-0.194-0.558-0.42-0.738-0.677c2.171-0.772,7.379-2.177,15.631-4.201
			c6.557-1.63,11.576-3.353,15.048-5.173c1.459-0.893,2.53-2.233,3.216-4.028C-129.185-2.643-128.97-2.094-128.97-1.461z"/>
		<path fill="#343438" d="M-167.861-2.991c0-0.26,0.089-0.478,0.272-0.659c0.18-0.181,0.399-0.271,0.658-0.271h0.019
			c0.257,0,0.479,0.09,0.657,0.271c0.183,0.181,0.273,0.399,0.273,0.659v13.44c0,0.26-0.09,0.477-0.273,0.659
			c-0.178,0.178-0.4,0.268-0.657,0.268h-0.021c-0.259,0-0.479-0.09-0.658-0.268c-0.183-0.182-0.273-0.399-0.273-0.659v-13.44
			H-167.861z"/>
		<path fill="#343438" d="M-123.181-3.922c0.259,0,0.479,0.09,0.659,0.271c0.183,0.179,0.273,0.398,0.273,0.657v13.443
			c0,0.258-0.09,0.475-0.273,0.659c-0.18,0.177-0.4,0.268-0.659,0.268h-0.018c-0.259,0-0.479-0.09-0.659-0.268
			c-0.18-0.184-0.271-0.401-0.271-0.659V-2.994c0-0.258,0.09-0.478,0.271-0.657c0.181-0.181,0.4-0.271,0.659-0.271H-123.181z"/>
		<path fill="#343438" d="M-126.356-3.922c0.258,0,0.479,0.09,0.659,0.271c0.18,0.179,0.268,0.398,0.268,0.657v13.443
			c0,0.258-0.088,0.475-0.268,0.659c-0.183,0.177-0.401,0.268-0.659,0.268h-0.019c-0.259,0-0.479-0.09-0.659-0.268
			c-0.182-0.184-0.273-0.401-0.273-0.659V-2.994c0-0.258,0.091-0.478,0.273-0.657c0.18-0.181,0.4-0.271,0.659-0.271H-126.356z"/>
		<path fill="#292929" d="M-182.486,63.229c-0.441,0-0.818-0.16-1.144-0.484c-0.322-0.31-0.485-0.691-0.485-1.14
			c0-0.454,0.161-0.839,0.485-1.162c0.31-0.311,0.69-0.465,1.144-0.465c0.45,0,0.839,0.154,1.163,0.465
			c0.31,0.323,0.461,0.708,0.461,1.162c0,0.448-0.152,0.83-0.461,1.14C-181.647,63.067-182.036,63.229-182.486,63.229z"/>
		<path fill="#292929" d="M-159.459,18.931c0.453,0,0.834,0.164,1.144,0.485c0.321,0.323,0.486,0.703,0.486,1.141
			c0,0.453-0.162,0.841-0.486,1.161c-0.31,0.311-0.691,0.466-1.144,0.466c-0.451,0-0.836-0.155-1.159-0.466
			c-0.324-0.32-0.486-0.708-0.486-1.161c0-0.449,0.159-0.832,0.486-1.141C-160.295,19.095-159.909,18.931-159.459,18.931z"/>
		<path fill="#292929" d="M-175.377-9.46c0.321-0.324,0.702-0.485,1.141-0.485c0.451,0,0.839,0.161,1.161,0.485
			c0.309,0.309,0.464,0.692,0.464,1.143c0,0.45-0.155,0.836-0.464,1.16c-0.322,0.312-0.71,0.465-1.161,0.465
			c-0.45,0-0.833-0.153-1.141-0.465c-0.324-0.324-0.486-0.709-0.486-1.16C-175.86-8.757-175.698-9.141-175.377-9.46z"/>
		<path fill="#292929" d="M-117.854-9.46c0.324-0.324,0.712-0.485,1.163-0.485c0.454,0,0.835,0.161,1.145,0.485
			c0.324,0.321,0.485,0.704,0.485,1.143c0,0.45-0.161,0.836-0.485,1.16c-0.31,0.312-0.691,0.465-1.145,0.465
			c-0.45,0-0.836-0.153-1.163-0.465c-0.31-0.324-0.464-0.709-0.464-1.16C-118.318-8.768-118.164-9.151-117.854-9.46z"/>
		<path fill="#292929" d="M-179.54,9.268c0-0.452,0.153-0.833,0.462-1.144c0.327-0.324,0.712-0.48,1.163-0.48
			c0.453,0,0.834,0.156,1.144,0.48c0.321,0.327,0.486,0.708,0.486,1.144c0,0.452-0.162,0.838-0.486,1.164
			c-0.31,0.308-0.691,0.461-1.144,0.461c-0.451,0-0.836-0.153-1.163-0.461C-179.387,10.107-179.54,9.72-179.54,9.268z"/>
		<path fill="#FFFFFF" d="M-186.163,19.399c0.322,0.165,0.542,0.419,0.657,0.75c0.115,0.34,0.09,0.666-0.079,0.989
			c-0.013,0.029-0.656,1.75-1.937,5.172c-1.38,4.469-2.362,9.329-2.945,14.586c-0.038,0.324-0.182,0.594-0.424,0.813
			c-0.245,0.219-0.539,0.329-0.872,0.329h-0.155c-0.36-0.038-0.651-0.199-0.871-0.482c-0.219-0.27-0.31-0.589-0.27-0.948
			c0.605-5.487,1.627-10.523,3.061-15.109c0.461-1.471,0.939-2.81,1.43-4.006c0.259-0.647,0.478-1.148,0.659-1.512
			c0.152-0.327,0.407-0.544,0.754-0.659C-186.817,19.205-186.489,19.231-186.163,19.399z"/>
		<path fill="#FFFFFF" d="M-89.848-7.988c0.363,0,0.667,0.13,0.913,0.386c0.257,0.245,0.388,0.547,0.388,0.91
			c0,0.363-0.131,0.672-0.388,0.932c-0.246,0.256-0.55,0.388-0.913,0.388h-4.782c-0.361,0-0.666-0.131-0.911-0.388
			c-0.257-0.256-0.388-0.567-0.388-0.932c0-0.36,0.13-0.665,0.388-0.91c0.245-0.256,0.549-0.386,0.911-0.386H-89.848z"/>
	</g>
	<g>
		<path fill="#E8EBE4" d="M388.038,42.65c1.183,0.397,2.092,0.433,2.721,0.119c0.709-0.789,1.537-1.54,2.483-2.249
			c1.578-1.419,2.487-2.207,2.722-2.367c0.947,0,1.499,0.751,1.659,2.25c0.079,1.577-0.474,3.271-1.659,5.085
			c-1.183,1.896-2.722,3.276-4.613,4.142c-1.184,0.393-3.037,0.317-5.562-0.238c-2.526-0.71-4.182-1.144-4.973-1.301
			c-1.261-0.078-3.231,0.076-5.917,0.471c-2.443,0.396-4.455,0.868-6.033,1.422c-37.078,13.332-56.361,20.233-57.863,20.709
			c-0.472,0.155-1.026,0.394-1.655,0.707l-6.628-7.216c2.367-0.553,5.128-1.381,8.283-2.483c7.889-2.921,15.936-5.959,24.139-9.114
			c16.249-5.838,24.811-8.795,25.68-8.875c1.104-0.475,2.322-1.066,3.669-1.774c1.339-0.713,2.484-1.618,3.43-2.721
			c0.471-0.551,1.026-1.62,1.654-3.195c0.555-1.341,1.108-2.325,1.657-2.958c1.104-1.184,3.867-2.17,8.283-2.959
			c1.104-0.156,2.367-0.238,3.788-0.238c1.341,0.079,2.091,0.277,2.246,0.592c0.157,0.396-0.117,0.709-0.827,0.946l-2.84,2.127
			c-1.894,1.262-2.803,2.131-2.721,2.604c-0.316,0.711,0.907,2.091,3.67,4.142C383.934,41.229,385.672,42.019,388.038,42.65z"/>
	</g>
	<g>
		<g>
			<path fill="#1A171C" d="M99.484,50.934h8.037v8.033c0,2.256-0.776,4.158-2.327,5.708c-1.548,1.552-3.453,2.324-5.708,2.324
				c-2.184,0-4.086-0.772-5.703-2.324c-1.551-1.55-2.328-3.452-2.328-5.708c0-2.184,0.777-4.088,2.328-5.709
				C95.397,51.706,97.298,50.934,99.484,50.934z"/>
		</g>
		<g>
			<path fill="#36364A" d="M187.173,22.164c-0.595,0-1.183-0.264-1.577-0.769c-0.68-0.871-0.525-2.127,0.346-2.807
				c3.762-2.938,5.878-6.706,6.471-11.521c0.582-4.747-0.564-8.92-3.503-12.758l-9.201-11.652c-0.685-0.867-0.537-2.125,0.33-2.809
				c0.866-0.683,2.124-0.537,2.809,0.331l9.22,11.676c3.575,4.668,5.021,9.943,4.316,15.7c-0.719,5.841-3.404,10.613-7.98,14.186
				C188.037,22.026,187.604,22.164,187.173,22.164z"/>
		</g>
		<polygon fill="#FFC230" points="82.045,-46.629 190.96,-33.264 175.223,69.823 72.391,57.203 		"/>
		<g>
			<path fill="#1A171C" d="M72.425,50.934h8.033v8.033c0,2.256-0.774,4.158-2.323,5.708c-1.55,1.552-3.452,2.324-5.708,2.324
				c-2.184,0-4.088-0.772-5.708-2.324c-1.551-1.55-2.322-3.452-2.322-5.708c0-2.184,0.771-4.088,2.322-5.709
				C68.338,51.706,70.24,50.934,72.425,50.934z"/>
			<path fill="#363636" d="M77.074,58.967c0,1.269-0.455,2.359-1.375,3.278c-0.915,0.916-2.006,1.371-3.274,1.371
				c-1.269,0-2.363-0.455-3.276-1.371c-0.92-0.919-1.375-2.01-1.375-3.278c0-1.27,0.455-2.362,1.375-3.276
				c0.914-0.92,2.008-1.374,3.276-1.374c1.268,0,2.359,0.454,3.274,1.374C76.616,56.605,77.074,57.698,77.074,58.967z"/>
		</g>
		<polygon fill="#F6921E" points="190.96,-33.264 175.223,69.823 147.939,66.474 160.64,-36.986 		"/>
		
			<rect x="77.217" y="-39.966" transform="matrix(0.9926 0.1218 -0.1218 0.9926 -3.3721 -16.8385)" fill="#FFC230" width="117.669" height="7.927"/>
		
			<rect x="133.721" y="-85.32" transform="matrix(0.1214 -0.9926 0.9926 0.1214 149.1545 107.601)" fill="#000003" width="3.274" height="109.734"/>
		<rect x="101.597" y="-45.997" fill="#F6921E" width="16.384" height="17.334"/>
		<g>
			<path fill="#36364A" d="M175.517,26.223c-0.922,0-1.856-0.058-2.806-0.175c-5.838-0.716-10.611-3.4-14.187-7.977l-41.882-53.604
				c-0.68-0.871-0.525-2.127,0.345-2.808c0.871-0.68,2.128-0.526,2.808,0.345l41.882,53.604c2.939,3.763,6.708,5.879,11.521,6.469
				c4.756,0.587,8.924-0.562,12.761-3.504c0.875-0.671,2.132-0.507,2.804,0.37s0.507,2.132-0.37,2.804
				C184.513,24.723,180.192,26.223,175.517,26.223z"/>
		</g>
	</g>
	<g>
		<g>
			<polygon fill="#1E2B33" points="5.965,0.882 20.866,-3.53 40.455,17.521 0.992,29.203 			"/>
			<path fill="#1E2B33" d="M3.585-9.146c0.253-0.463,0.619-0.755,1.101-0.869l11.349-3.403c0.481-0.112,0.955-0.04,1.425,0.214
				c0.429,0.233,0.72,0.601,0.865,1.101l2.811,9.494c0.147,0.5,0.105,0.961-0.128,1.395c-0.255,0.465-0.623,0.754-1.103,0.868
				L8.554,3.058C8.074,3.171,7.619,3.111,7.187,2.875C6.719,2.622,6.411,2.244,6.264,1.744L3.456-7.749
				C3.308-8.249,3.35-8.711,3.585-9.146z"/>
			<path fill="#005376" d="M10.378-11.74l5.66-1.678c0.446-0.13,0.899-0.071,1.368,0.184c0.47,0.251,0.759,0.621,0.869,1.101
				l2.593,8.604l19.533,21.02l-19.674,5.871L10.378-11.74z"/>
			
				<rect x="5.26" y="-3.875" transform="matrix(0.9588 -0.2841 0.2841 0.9588 1.2675 3.5959)" fill="#004352" width="15.542" height="2.606"/>
		</g>
		<g>
			<path fill="#1E2B33" d="M-18.066,0.524l0.473,0.238l-0.473-0.356V0.524z M-16.884-1.131l11.714,8.635v1.423l1.301,13.252
				l-1.893,0.238L-7.062,8.572l-10.531-7.81l-41.772-16.684l0.713-1.775l41.885,16.447L-16.884-1.131z M-18.066-5.271
				l-39.402-15.624l0.709-1.656l38.338,15.263l29.936-2.366l0.118,2.014l-29.699,2.246V-5.271z"/>
		</g>
		<g>
			<polygon fill="#1E2B33" points="-56.432,-20.903 -54.619,-21.529 -27.496,57.146 -29.933,55.958 			"/>
			<polygon fill="#1E2B33" points="-61.312,-19.174 -59.556,-19.824 -34.138,53.911 -36.517,52.753 			"/>
		</g>
		<rect x="-54.232" y="52.245" fill="#1E2B33" width="42.438" height="4.926"/>
	</g>
	<g>
		
			<rect x="-139.259" y="41.267" transform="matrix(-0.9952 0.0982 -0.0982 -0.9952 132.4259 84.3961)" fill="#F6921E" width="406.789" height="8.38"/>
		
			<rect x="195.743" y="27.075" transform="matrix(-0.0979 -0.9952 0.9952 -0.0979 188.8201 235.0991)" fill="#ECE6E1" width="10.448" height="9.785"/>
		
			<rect x="241.333" y="8.303" transform="matrix(-0.0982 -0.9952 0.9952 -0.0982 241.6632 277.4729)" fill="#ECE6E1" width="10.444" height="41.871"/>
		<polygon fill="#177D8F" points="294.468,-30.541 262.21,-18.279 270.844,69.275 304.881,74.996 		"/>
		<g>
			<g>
				<path fill="#1B587A" d="M300.762,71.745c-0.058,0-0.115-0.005-0.174-0.015l-30.598-5.378c-0.544-0.096-0.907-0.614-0.813-1.158
					c0.096-0.544,0.612-0.904,1.158-0.813l30.598,5.378c0.544,0.096,0.907,0.614,0.813,1.158
					C301.66,71.404,301.239,71.745,300.762,71.745z"/>
			</g>
			<g>
				<path fill="#1B587A" d="M299.907,63.137c-0.041,0-0.083-0.002-0.125-0.008l-30.438-3.791c-0.548-0.068-0.937-0.567-0.868-1.116
					c0.068-0.547,0.567-0.945,1.116-0.868l30.438,3.791c0.548,0.068,0.937,0.567,0.868,1.116
					C300.836,62.767,300.405,63.137,299.907,63.137z"/>
			</g>
			<g>
				<path fill="#1B587A" d="M299.063,54.615c-0.025,0-0.051-0.001-0.076-0.003l-30.29-2.296c-0.551-0.042-0.964-0.521-0.922-1.072
					c0.042-0.552,0.528-0.969,1.072-0.922l30.29,2.296c0.551,0.042,0.964,0.521,0.922,1.072
					C300.019,54.216,299.58,54.615,299.063,54.615z"/>
			</g>
			<g>
				<path fill="#1B587A" d="M298.221,46.094c-0.011,0-0.021,0-0.03,0l-30.153-0.891c-0.553-0.016-0.986-0.477-0.971-1.029
					c0.017-0.542,0.461-0.971,0.999-0.971c0.011,0,0.021,0,0.03,0l30.153,0.891c0.553,0.016,0.986,0.477,0.971,1.029
					C299.203,45.665,298.759,46.094,298.221,46.094z"/>
			</g>
			<g>
				<path fill="#1B587A" d="M267.371,38.186c-0.542,0-0.987-0.433-1-0.977c-0.013-0.552,0.425-1.01,0.977-1.023l29.994-0.704
					c0.54-0.039,1.011,0.424,1.023,0.976s-0.425,1.01-0.977,1.023l-29.994,0.704C267.387,38.186,267.379,38.186,267.371,38.186z"/>
			</g>
			<g>
				<path fill="#1B587A" d="M266.675,31.165c-0.519,0-0.957-0.4-0.996-0.926c-0.041-0.551,0.373-1.03,0.924-1.071l29.848-2.204
					c0.544-0.044,1.029,0.373,1.07,0.923s-0.373,1.03-0.924,1.071l-29.848,2.204C266.725,31.164,266.699,31.165,266.675,31.165z"/>
			</g>
			<g>
				<path fill="#1B587A" d="M265.979,24.143c-0.497,0-0.929-0.37-0.991-0.876c-0.068-0.548,0.32-1.047,0.868-1.116l29.698-3.701
					c0.554-0.069,1.049,0.32,1.116,0.869c0.068,0.548-0.32,1.047-0.868,1.116l-29.698,3.701
					C266.062,24.141,266.02,24.143,265.979,24.143z"/>
			</g>
			<g>
				<path fill="#1B587A" d="M265.283,17.117c-0.476,0-0.896-0.34-0.983-0.824c-0.098-0.543,0.265-1.063,0.809-1.161l29.539-5.288
					c0.547-0.097,1.063,0.265,1.16,0.808c0.098,0.543-0.265,1.063-0.809,1.161l-29.539,5.288
					C265.401,17.113,265.342,17.117,265.283,17.117z"/>
			</g>
			<g>
				<path fill="#1B587A" d="M264.578,10.004c-0.456,0-0.868-0.314-0.974-0.778c-0.123-0.539,0.214-1.075,0.753-1.197l29.398-6.696
					c0.534-0.124,1.073,0.214,1.196,0.753s-0.214,1.075-0.753,1.197l-29.398,6.696C264.727,9.996,264.652,10.004,264.578,10.004z"/>
			</g>
			<g>
				<path fill="#1B587A" d="M263.881,2.984c-0.437,0-0.838-0.289-0.962-0.731c-0.149-0.532,0.161-1.083,0.693-1.232l29.253-8.193
					c0.527-0.147,1.083,0.161,1.232,0.693c0.149,0.532-0.161,1.083-0.693,1.232l-29.253,8.193
					C264.062,2.971,263.971,2.984,263.881,2.984z"/>
			</g>
			<g>
				<path fill="#1B587A" d="M263.189-4.038c-0.418,0-0.808-0.264-0.948-0.682c-0.176-0.523,0.106-1.091,0.63-1.267l29.096-9.787
					c0.524-0.177,1.091,0.106,1.267,0.629c0.176,0.523-0.106,1.091-0.63,1.267l-29.096,9.787
					C263.402-4.055,263.294-4.038,263.189-4.038z"/>
			</g>
			<g>
				<path fill="#1B587A" d="M262.49-11.059c-0.399,0-0.777-0.242-0.932-0.637c-0.2-0.515,0.054-1.094,0.568-1.295l28.948-11.285
					c0.512-0.199,1.094,0.054,1.295,0.568c0.2,0.515-0.054,1.094-0.568,1.295l-28.948,11.285
					C262.734-11.081,262.611-11.059,262.49-11.059z"/>
			</g>
		</g>
		
			<line fill="none" stroke="#ECE6E1" stroke-width="1.7" stroke-linecap="round" x1="270.844" y1="69.275" x2="262.21" y2="-18.279"/>
	</g>
	
		<use xlink:href="#Duplicate_Items_Folder_x2F_label"  width="56.8" height="66.428" x="-28.4" y="-33.213" transform="matrix(0.5871 -0.1574 -0.1574 -0.5871 96.676 -12.7625)" overflow="visible"/>
	
		<use xlink:href="#Duplicate_Items_Folder_x2F_label"  width="56.8" height="66.428" x="-28.4" y="-33.213" transform="matrix(0.5871 -0.1574 -0.1574 -0.5871 178.2014 -93.2263)" overflow="visible"/>
	
		<use xlink:href="#Duplicate_Items_Folder_x2F_label"  width="56.8" height="66.428" x="-28.4" y="-33.213" transform="matrix(0.5871 -0.1574 -0.1574 -0.5871 243.2825 42.4983)" overflow="visible"/>
	
		<use xlink:href="#Duplicate_Items_Folder_x2F_label"  width="56.8" height="66.428" x="-28.4" y="-33.213" transform="matrix(0.5871 -0.1574 -0.1574 -0.5871 28.1619 -93.2263)" overflow="visible"/>
	
		<use xlink:href="#Duplicate_Items_Folder_x2F_label"  width="56.8" height="66.428" x="-28.4" y="-33.213" transform="matrix(0.5871 -0.1574 -0.1574 -0.5871 -68.8674 -28.1458)" overflow="visible"/>
	
		<use xlink:href="#Duplicate_Items_Folder_x2F_label"  width="56.8" height="66.428" x="-28.4" y="-33.213" transform="matrix(0.5871 -0.1574 -0.1574 -0.5871 -141.6404 34.6868)" overflow="visible"/>
	
		<use xlink:href="#Duplicate_Items_Folder_x2F_label"  width="56.8" height="66.428" x="-28.4" y="-33.213" transform="matrix(0.5871 -0.1574 -0.1574 -0.5871 10.6492 38.0002)" overflow="visible"/>
	
		<use xlink:href="#Duplicate_Items_Folder_x2F_label"  width="56.8" height="66.428" x="-28.4" y="-33.213" transform="matrix(0.5871 -0.1574 -0.1574 -0.5871 365.8723 60.718)" overflow="visible"/>
</g>
</svg>
