<?xml version="1.0" encoding="utf-8"?>
<!-- Generator: Adobe Illustrator 19.2.1, SVG Export Plug-In . SVG Version: 6.00 Build 0)  -->
<svg version="1.1" id="Layer_1" xmlns="http://www.w3.org/2000/svg" xmlns:xlink="http://www.w3.org/1999/xlink" x="0px" y="0px"
	 viewBox="0 0 90 60" style="enable-background:new 0 0 90 60;" xml:space="preserve">
<g>
	<g>
		<g>
			<path fill="#4E569D" d="M52.5,14.8C52.5,14.8,52.5,14.7,52.5,14.8C52.5,14.7,52.5,14.7,52.5,14.8z M55.6,13.3
				C55.6,13.4,55.6,13.4,55.6,13.3c0.2,0.6,0.2,1.1,0.1,1.6c-0.2,0.7-0.5,1.4-1.2,2c-0.1,0.3-0.3,0.4-0.5,0.6
				c-0.6,0.3-1.2,0.5-1.8,0.6c-0.7,0.1-1.3,0.1-1.9,0c-0.6-0.2-1.1-0.5-1.5-1c-0.4-0.5-0.5-1.1-0.5-1.7c0-0.3,0.1-0.6,0.2-0.9
				c0.1-0.2,0.2-0.5,0.3-0.7l0.2-0.4c0.1-0.1,0.1-0.2,0.1-0.2c0.1-0.2,0.3-0.4,0.5-0.6c0.3-0.3,0.7-0.6,1.1-0.9
				c0.4-0.3,0.8-0.4,1.3-0.5c0.1,0,0.3,0,0.4-0.1c0.1,0,0.1,0,0.2,0c0.5-0.1,0.9,0,1.3,0.1c0.6,0.2,1,0.6,1.3,1
				C55.4,12.6,55.5,13,55.6,13.3z M50.9,15.6C50.9,15.6,50.9,15.6,50.9,15.6L50.9,15.6C50.9,15.6,50.9,15.6,50.9,15.6z"/>
		</g>
		<g>
			<path fill="#4E569D" d="M50.1,16.7c0-0.3,0.2-0.6,0.4-0.9c0.2-0.2,0.5-0.4,0.9-0.3c0.3,0,0.6,0.1,0.9,0.4c0.2,0.3,0.4,0.5,0.3,0.9
				c-0.1,1.1-0.4,2.4-1,3.8c-0.3,0.8-0.8,2-1.6,3.6c-0.5,1.1-0.9,2.4-1.4,4c-0.3,0.9-0.7,2.2-1.2,4c-0.1,0.3-0.3,0.6-0.6,0.7
				c-0.3,0.2-0.6,0.2-0.9,0.1c-0.3-0.1-0.6-0.3-0.7-0.6c-0.2-0.3-0.2-0.6-0.1-0.9c0.5-1.8,1-3.1,1.2-4c0.5-1.5,1-2.9,1.4-4
				c0.1-0.3,0.4-0.9,0.7-1.7c0.3-0.7,0.6-1.3,0.7-1.7c0.3-0.8,0.5-1.4,0.6-1.9c0.1-0.3,0.2-0.6,0.2-0.8C50,17.3,50.1,17,50.1,16.7z"
				/>
		</g>
		<g>
			<path fill="#4E569D" d="M35,30.4c0.1-0.2,0.3-0.3,0.5-0.4c0.2-0.1,0.4-0.2,0.6-0.1l9.9,1.3c0.3,0,0.6,0.2,0.9,0.4
				c0.2,0.2,0.4,0.5,0.3,0.9c0,0.3-0.1,0.6-0.4,0.9c-0.3,0.3-0.6,0.4-0.9,0.3l-9.2-1.2l-6.9,11.1c-0.2,0.3-0.5,0.5-0.8,0.6
				c-0.3,0-0.6,0-0.9-0.2c-0.3-0.2-0.5-0.4-0.6-0.7c-0.1-0.3-0.1-0.6,0.1-1L35,30.4z"/>
		</g>
		<g>
			<path fill="#4E569D" d="M38.2,22.6c0.1-0.1,0.5,0.1,1.3,0.7c0.7,0.5,1.5,1.2,2.4,2c1,0.9,1.8,1.7,2.6,2.5c0.9,0.9,1.5,1.6,1.8,2.2
				c0.1,0.2,0.2,0.5,0.1,0.8c-0.1,0.3-0.2,0.5-0.5,0.6c-0.2,0.1-0.5,0.2-0.7,0.1c-0.2-0.1-0.4-0.3-0.6-0.5l-6.2-5.6
				c-0.5,0.4-1.9,1.7-4,3.9c-2.1,2.2-3.4,3.5-4,3.9c-0.3,0.2-0.7,0.3-1.2,0.4c-0.6,0.1-0.9,0-1.1-0.2c-0.1-0.2-0.1-0.6,0.2-1
				c0.2-0.3,0.4-0.6,0.7-0.8c0.4-0.3,1.1-0.9,1.9-1.7c0.5-0.5,1.4-1.4,2.6-2.7C36,24.5,37.6,23,38.2,22.6z"/>
		</g>
		<g>
			<path fill="#4E569D" d="M56.4,32.4c0.1,0.3,0.1,0.6-0.1,0.9c-0.2,0.3-0.4,0.5-0.8,0.6c-0.3,0.1-0.6,0-0.9-0.2
				c-0.3-0.2-0.4-0.4-0.6-0.8l-4.4-12.5c-0.1-0.3-0.1-0.6,0.1-0.9c0.2-0.3,0.4-0.5,0.8-0.6c0.3-0.1,0.6,0,0.9,0.2
				c0.3,0.2,0.4,0.4,0.6,0.8L56.4,32.4z"/>
		</g>
	</g>
</g>
</svg>
