<?xml version="1.0" encoding="utf-8"?>
<!-- Generator: Adobe Illustrator 19.2.1, SVG Export Plug-In . SVG Version: 6.00 Build 0)  -->
<svg version="1.1" id="Layer_1" xmlns="http://www.w3.org/2000/svg" xmlns:xlink="http://www.w3.org/1999/xlink" x="0px" y="0px"
	 viewBox="0 0 90 60" style="enable-background:new 0 0 90 60;" xml:space="preserve">
<g>
	<line fill="none" stroke="#5A4B38" stroke-linejoin="round" stroke-miterlimit="3" x1="47.6" y1="24.4" x2="57.2" y2="3.8"/>
	<path fill="#5A4B38" d="M61.7,10.4c-4-4-8.3-6.1-13.1-6.2l-0.2-0.6c5.1-1.4,9.7,0.7,13.7,6.4L61.7,10.4z"/>
</g>
<g id="person_13">
	<g>
		<path fill="#4E569D" d="M37.6,21.3c0.8,0,1.5,0.4,2.1,1c0.6,0.6,0.8,1.3,0.8,2.1c0,0.8-0.4,1.5-1,2.1c-0.6,0.5-1.3,0.8-2.2,0.8
			c-0.8,0-1.5-0.4-2.1-1c-0.6-0.6-0.8-1.3-0.8-2.1c0-0.8,0.4-1.5,1-2.1C36,21.5,36.7,21.3,37.6,21.3z"/>
		<g>
			<path fill="#4E569D" d="M36.2,25.7c0-0.3,0.1-0.5,0.3-0.6c0.2-0.2,0.4-0.2,0.7-0.2c0.2,0,0.5,0.1,0.6,0.3c0.2,0.2,0.3,0.4,0.2,0.6
				c-0.2,1.1-0.5,2.2-0.9,3.5c-0.3,0.9-0.7,2-1.3,3.3c-0.3,0.7-0.8,1.8-1.4,3.3c-0.5,1.3-0.9,2.4-1.2,3.4c-0.1,0.2-0.2,0.4-0.5,0.5
				c-0.2,0.1-0.5,0.1-0.7,0.1c-0.2-0.1-0.4-0.2-0.5-0.5c-0.1-0.2-0.1-0.4-0.1-0.7c0.3-0.9,0.7-2,1.2-3.3c0.6-1.4,1.1-2.5,1.4-3.2
				c0.6-1.3,1-2.4,1.3-3.3c0.2-0.6,0.4-1.2,0.5-1.7C36,26.6,36.1,26.1,36.2,25.7z"/>
		</g>
		<g>
			<path fill="#4E569D" d="M48.8,21.2c0.2,0,0.5,0.1,0.6,0.3c0.2,0.2,0.2,0.4,0.2,0.7c0,0.3-0.1,0.5-0.3,0.6c-0.5,0.3-0.9,0.6-1.2,0.9
				c-0.2,0.2-0.4,0.3-0.5,0.5l-0.2,0.3c0,0,0,0,0,0c0,0,0,0,0,0l0,0l-0.1,0.1c-0.5,0.6-1,1.4-1.5,2.3c-0.1,0.2-0.3,0.3-0.6,0.4
				c-0.3,0-0.5,0-0.7-0.1c-0.2-0.1-0.3-0.3-0.4-0.6c0-0.2,0-0.4,0.1-0.7c1-1.9,2.2-3.4,3.8-4.5C48.4,21.3,48.6,21.2,48.8,21.2z"/>
		</g>
		<g>
			<path fill="#4E569D" d="M44.3,25.8c0.2,0,0.5,0,0.7,0.1c0.2,0.1,0.4,0.3,0.4,0.6c0.1,0.2,0,0.5-0.1,0.7c-0.1,0.2-0.3,0.3-0.6,0.4
				c-0.7,0.1-1.5,0.3-2.2,0.6c-0.7,0.2-1.4,0.5-2.1,0.8c-0.6,0.3-1.3,0.6-1.9,1c-0.6,0.4-1.2,0.8-1.8,1.1c-0.2,0.1-0.4,0.2-0.7,0.2
				c-0.2,0-0.5-0.1-0.6-0.3c-0.2-0.2-0.2-0.4-0.2-0.7c0-0.3,0.1-0.5,0.3-0.6C38.5,27.7,41.4,26.4,44.3,25.8z"/>
		</g>
		<g>
			<path fill="#4E569D" d="M31.4,38.6c0.2-0.1,0.4-0.2,0.7-0.1c0.2,0,0.4,0.2,0.6,0.4c0.1,0.2,0.2,0.4,0.1,0.7c0,0.3-0.2,0.4-0.4,0.6
				c-1.5,0.9-2.7,1.6-3.7,2.1c-1.4,0.7-2.7,1.2-3.9,1.5c-0.3,0.1-0.5,0-0.7,0c-0.2-0.1-0.4-0.3-0.5-0.5c-0.1-0.2-0.1-0.5,0-0.7
				c0.1-0.2,0.3-0.4,0.5-0.5c1.2-0.3,2.4-0.7,3.7-1.4C28.9,40.1,30,39.4,31.4,38.6z"/>
		</g>
		<g>
			<path fill="#4E569D" d="M24.8,43.5c-0.2,0-0.5-0.1-0.7-0.2c-0.2-0.2-0.3-0.4-0.3-0.6c0-0.5,0-1,0.1-1.7c0-0.4,0.1-0.9,0.2-1.7
				c0-0.2,0-0.3,0-0.4l0,0c0,0,0,0,0,0l0-0.1c0-0.2,0-0.5,0-0.7c0-0.5-0.1-1-0.2-1.5c-0.1-0.3,0-0.5,0-0.7c0.1-0.2,0.3-0.4,0.5-0.5
				c0.2-0.1,0.5-0.1,0.7,0c0.3,0.1,0.4,0.3,0.5,0.5c0.3,1.2,0.4,2.4,0.3,3.6c0,0.2,0,0.4-0.1,0.7c0,0.4-0.1,0.6-0.1,0.7
				c0,0.3-0.1,0.6-0.1,0.8c0,0.2,0,0.5,0,0.8c0,0.3-0.1,0.5-0.2,0.7C25.3,43.3,25.1,43.4,24.8,43.5z"/>
		</g>
		<g>
			<path fill="#4E569D" d="M31.1,39.1c0.1-0.2,0.2-0.4,0.5-0.5c0.2-0.1,0.5-0.1,0.7-0.1c0.2,0.1,0.4,0.2,0.5,0.5
				c0.1,0.2,0.1,0.5,0.1,0.7c-0.4,1.1-0.9,2.2-1.6,3.3c-0.5,1-1.1,2-1.9,3.2c-0.2,0.3-0.7,1.1-1.4,2.1c-0.6,0.8-1,1.5-1.3,2
				c0,0.1-0.1,0.1-0.1,0.1c-0.1,0.2-0.3,0.3-0.6,0.4c0,0-0.1,0-0.1,0c-0.1,0-0.2,0-0.3,0l-0.5-0.3c-0.2-0.2-0.2-0.4-0.2-0.6
				c0-0.2,0.1-0.3,0.2-0.5c0.3-0.6,0.8-1.3,1.3-2.1c0.7-1.1,1.2-1.8,1.4-2.1c0.7-1.2,1.3-2.2,1.8-3C30.2,41.2,30.7,40.1,31.1,39.1z"
				/>
		</g>
	</g>
</g>
</svg>
