<?xml version="1.0" encoding="utf-8"?>
<!-- Generator: Adobe Illustrator 15.1.0, SVG Export Plug-In . SVG Version: 6.00 Build 0)  -->
<!DOCTYPE svg PUBLIC "-//W3C//DTD SVG 1.1//EN" "http://www.w3.org/Graphics/SVG/1.1/DTD/svg11.dtd">
<svg version="1.1" id="Layer_1" xmlns="http://www.w3.org/2000/svg" xmlns:xlink="http://www.w3.org/1999/xlink" x="0px" y="0px"
	 width="90px" height="60px" viewBox="0 0 90 60" enable-background="new 0 0 90 60" xml:space="preserve">
<g>
	<g>
		<path fill-rule="evenodd" clip-rule="evenodd" fill="#4D569D" d="M48.043,15.559h0.047v-0.047
			C48.09,15.542,48.074,15.558,48.043,15.559z M49.718,12.964c0.292,0.132,0.536,0.289,0.731,0.472
			c0.063,0.063,0.204,0.299,0.424,0.708c0.04,0.064,0.08,0.126,0.118,0.188c-0.016,0.104-0.04,0.215-0.069,0.33h0.047
			c0.22,0.755,0.173,1.479-0.143,2.17c-0.377,0.787-0.99,1.384-1.84,1.793c-0.85,0.44-1.699,0.55-2.547,0.33
			c-0.881-0.283-1.526-0.802-1.936-1.557c-0.44-0.724-0.519-1.526-0.236-2.406c0.126-0.503,0.394-0.944,0.803-1.321
			c0.043-0.069,0.09-0.14,0.141-0.213c0.465-0.305,0.749-0.47,0.849-0.495c0.334-0.076,0.587-0.178,0.756-0.307
			c0.332-0.047,0.693-0.071,1.085-0.071C48.443,12.586,49.049,12.712,49.718,12.964z M47.736,15.37l0.023,0.047V15.37H47.736z"/>
	</g>
	<g>
		<path fill-rule="evenodd" clip-rule="evenodd" fill="#4D569D" d="M38.572,30.931L30.09,45.409
			c-0.163,0.281-0.385,0.475-0.664,0.581c-0.295,0.108-0.588,0.092-0.877-0.049c-0.274-0.134-0.47-0.356-0.587-0.668
			c-0.12-0.32-0.102-0.611,0.055-0.874l8.551-14.61c0.104-0.179,0.243-0.392,0.416-0.637c0.099-0.138,0.247-0.344,0.442-0.617
			l5.933-8.402c0.178-0.25,0.44-0.383,0.787-0.399c0.33-0.016,0.61,0.075,0.841,0.272c0.246,0.211,0.377,0.474,0.394,0.788
			c0.01,0.293-0.079,0.573-0.267,0.84l-6.275,8.897c-0.017,0.025-0.095,0.144-0.234,0.354L38.572,30.931z"/>
	</g>
	<g>
		<path fill-rule="evenodd" clip-rule="evenodd" fill="#4D569D" d="M37.625,28.951c-0.019-0.334,0.056-0.616,0.226-0.848
			c0.186-0.254,0.417-0.39,0.695-0.406c0.25-0.015,0.5,0.067,0.752,0.245l7.184,5.102c0.264,0.189,0.389,0.499,0.375,0.928
			c-0.014,0.43-0.156,0.73-0.428,0.901l-7.112,4.523c-0.257,0.162-0.513,0.228-0.77,0.195c-0.276-0.04-0.499-0.192-0.668-0.457
			c-0.157-0.247-0.216-0.536-0.175-0.868c0.038-0.348,0.175-0.597,0.412-0.747l5.722-3.64l-5.844-4.151
			C37.767,29.567,37.644,29.308,37.625,28.951z"/>
	</g>
	<g>
		<path fill-rule="evenodd" clip-rule="evenodd" fill="#4D569D" d="M43.612,19.976c0.352,0.025,0.623,0.165,0.813,0.42
			c0.171,0.23,0.248,0.5,0.228,0.811c-0.022,0.313-0.134,0.571-0.335,0.775c-0.223,0.223-0.51,0.321-0.862,0.297
			c-1.003-0.074-2.141-0.191-3.413-0.35c-0.545-0.068-1.409-0.185-2.589-0.349l-2.639,6.555c-0.119,0.299-0.313,0.519-0.583,0.66
			c-0.281,0.146-0.574,0.168-0.879,0.066c-0.294-0.099-0.515-0.294-0.663-0.586c-0.155-0.301-0.175-0.594-0.06-0.878l2.995-7.451
			c0.1-0.246,0.253-0.443,0.46-0.59c0.225-0.163,0.463-0.228,0.714-0.192c1.755,0.245,2.889,0.399,3.402,0.463
			C41.482,19.789,42.62,19.905,43.612,19.976z"/>
	</g>
	<g>
		<path fill-rule="evenodd" clip-rule="evenodd" fill="#4D569D" d="M55.297,19.942c0.313,0.046,0.563,0.2,0.752,0.461
			c0.178,0.25,0.242,0.538,0.195,0.864c-0.05,0.337-0.204,0.586-0.463,0.748l-5.64,3.524c-0.464,0.292-0.933,0.276-1.406-0.048
			l-5.207-3.525c-0.251-0.173-0.388-0.433-0.411-0.779c-0.023-0.33,0.062-0.612,0.254-0.848c0.207-0.25,0.467-0.386,0.781-0.406
			c0.292-0.019,0.573,0.063,0.844,0.245l4.496,3.047l4.941-3.087C54.707,19.964,54.995,19.899,55.297,19.942z"/>
	</g>
</g>
</svg>
