<?xml version="1.0" encoding="utf-8"?>
<!-- Generator: Adobe Illustrator 15.1.0, SVG Export Plug-In . SVG Version: 6.00 Build 0)  -->
<!DOCTYPE svg PUBLIC "-//W3C//DTD SVG 1.1//EN" "http://www.w3.org/Graphics/SVG/1.1/DTD/svg11.dtd">
<svg version="1.1" id="Layer_1" xmlns="http://www.w3.org/2000/svg" xmlns:xlink="http://www.w3.org/1999/xlink" x="0px" y="0px"
	 width="90px" height="60px" viewBox="0 0 90 60" enable-background="new 0 0 90 60" xml:space="preserve">
<g>
	
		<line fill="none" stroke="#5A4B38" stroke-width="1" stroke-linejoin="round" stroke-miterlimit="3" x1="45.839" y1="25.543" x2="31.315" y2="42.958"/>
	<path fill="#5A4B38" d="M28.544,35.828c2.823,4.9,6.498,8.026,11.022,9.377l0.046,0.614c-5.287,0.041-9.165-3.197-11.634-9.715
		L28.544,35.828z"/>
</g>
<g>
	<path fill="#4E569D" d="M53.701,15.247c-0.004,0.901-0.32,1.669-0.948,2.303c-0.627,0.634-1.384,0.949-2.268,0.946
		c-0.887-0.004-1.642-0.326-2.264-0.965c-0.622-0.639-0.932-1.41-0.928-2.311s0.319-1.668,0.947-2.303
		c0.63-0.634,1.388-0.95,2.271-0.946c0.885,0.004,1.638,0.326,2.261,0.965C53.396,13.575,53.705,14.346,53.701,15.247z"/>
	<path fill="#4E569D" d="M52.053,14.175c0.124,0.274,0.15,0.553,0.081,0.838c-0.722,2.99-1.203,5.256-1.445,6.799
		c-0.398,2.546-0.51,4.868-0.334,6.966c0.024,0.291-0.062,0.55-0.257,0.778c-0.187,0.218-0.395,0.327-0.624,0.326
		c-0.247-0.001-0.451-0.111-0.611-0.331c-0.147-0.203-0.234-0.462-0.26-0.78c-0.184-2.174-0.067-4.599,0.35-7.272
		c0.258-1.658,0.757-4.018,1.496-7.079c0.071-0.292,0.211-0.514,0.418-0.663c0.209-0.154,0.43-0.19,0.663-0.108
		C51.757,13.731,51.932,13.906,52.053,14.175z"/>
	<path fill="#4E569D" d="M48.881,28.289c0.146-0.262,0.348-0.427,0.604-0.496c0.263-0.068,0.507-0.02,0.731,0.146
		c0.224,0.161,0.368,0.39,0.436,0.687c0.51,2.279,0.957,4.777,1.344,7.494c0.307,2.151,0.606,4.678,0.899,7.58
		c0.033,0.317-0.011,0.596-0.133,0.836c-0.131,0.26-0.33,0.424-0.598,0.492c-0.247,0.064-0.493,0.017-0.738-0.144
		c-0.255-0.167-0.397-0.396-0.428-0.686c-0.291-2.895-0.591-5.423-0.899-7.584c-0.387-2.714-0.835-5.212-1.345-7.494
		C48.689,28.833,48.731,28.555,48.881,28.289z"/>
	<path fill="#4E569D" d="M44.699,34.518c0.123,0.252,0.161,0.53,0.115,0.833c-0.414,2.752-0.666,5.623-0.756,8.614
		c-0.009,0.313-0.091,0.578-0.244,0.793c-0.161,0.228-0.367,0.349-0.62,0.362c-0.238,0.013-0.455-0.086-0.651-0.294
		c-0.2-0.216-0.296-0.471-0.288-0.765c0.095-3.23,0.362-6.298,0.803-9.204c0.044-0.294,0.178-0.523,0.401-0.69
		c0.219-0.162,0.446-0.21,0.681-0.145C44.383,34.091,44.569,34.256,44.699,34.518z"/>
	<path fill="#4E569D" d="M48.65,27.453c0.255-0.023,0.479,0.07,0.674,0.28c0.186,0.2,0.287,0.458,0.305,0.775
		c0.018,0.329-0.065,0.593-0.249,0.792c-0.902,0.978-1.734,1.983-2.499,3.018c-0.815,1.108-1.524,2.213-2.126,3.313
		c-0.144,0.263-0.33,0.44-0.56,0.531c-0.242,0.099-0.479,0.074-0.713-0.071c-0.221-0.137-0.375-0.355-0.46-0.656
		c-0.089-0.311-0.066-0.591,0.067-0.839c1.324-2.423,2.959-4.688,4.904-6.795C48.19,27.589,48.41,27.473,48.65,27.453z"/>
	<path fill="#4E569D" d="M53.407,21.254c-0.02,0.247-0.088,0.474-0.204,0.68c-0.122,0.22-0.293,0.408-0.511,0.563
		c-0.354,0.259-0.79,0.484-1.31,0.676l-0.626,0.222c-0.159,0.054-0.256,0.087-0.291,0.098l-0.311,0.111
		c-0.45,0.168-0.944,0.394-1.483,0.679c-0.334,0.177-0.801,0.443-1.402,0.798c-0.205,0.123-0.326,0.195-0.363,0.217
		c-0.076,0.048-0.19,0.126-0.344,0.233c-0.292,0.206-0.521,0.381-0.688,0.526c-0.124,0.105-0.227,0.197-0.308,0.276
		c-0.034,0.033-0.057,0.055-0.066,0.066l0.042-0.05l-0.129,0.145c-0.162,0.196-0.304,0.4-0.426,0.614
		c-0.133,0.237-0.377,0.389-0.732,0.453c-0.342,0.063-0.649,0.027-0.923-0.106c-0.292-0.14-0.475-0.341-0.546-0.604
		c-0.066-0.243-0.027-0.494,0.116-0.753c0.447-0.799,1.235-1.56,2.365-2.283c0.413-0.265,0.924-0.558,1.536-0.88
		c0.701-0.359,1.217-0.625,1.548-0.797c0.154-0.079,0.336-0.157,0.546-0.236c0.113-0.043,0.303-0.11,0.569-0.199
		c0.121-0.042,0.215-0.075,0.28-0.098l-0.04,0.013l0.386-0.134c0.205-0.074,0.381-0.144,0.529-0.209
		c0.101-0.048,0.174-0.083,0.218-0.105c-0.22-0.195-0.33-0.426-0.331-0.693c0.001-0.276,0.119-0.509,0.354-0.7
		c0.231-0.188,0.518-0.283,0.856-0.284c0.344,0.001,0.628,0.098,0.854,0.291C53.171,20.299,53.449,20.789,53.407,21.254z"/>
</g>
</svg>
