<?xml version="1.0" encoding="utf-8"?>
<!-- Generator: Adobe Illustrator 19.2.1, SVG Export Plug-In . SVG Version: 6.00 Build 0)  -->
<svg version="1.1" id="Layer_1" xmlns="http://www.w3.org/2000/svg" xmlns:xlink="http://www.w3.org/1999/xlink" x="0px" y="0px"
	 viewBox="0 0 90 60" style="enable-background:new 0 0 90 60;" xml:space="preserve">
<g>
	<g>
		<path fill="#4E569D" d="M44.9,13.6c0.6,0.6,0.9,1.3,0.9,2.1c0,0.8-0.3,1.5-0.9,2.1s-1.3,0.9-2.1,0.9c-0.8,0-1.5-0.3-2.1-0.9
			c-0.6-0.6-0.9-1.3-0.9-2.1s0.3-1.5,0.9-2.1c0.6-0.6,1.3-0.9,2.1-0.9C43.6,12.7,44.3,13,44.9,13.6z"/>
		<g>
			<path fill="#4E569D" d="M42.4,15.3c0.3,0,0.6,0.1,0.8,0.3c0.2,0.2,0.3,0.5,0.3,0.8c0,1.1,0,2.2-0.1,3.5c-0.1,0.9-0.2,2-0.4,3.5
				c-0.2,1.7-0.4,2.8-0.4,3.5c-0.1,1.3-0.2,2.5-0.2,3.5c0,0.3-0.1,0.6-0.3,0.8c-0.2,0.2-0.5,0.3-0.8,0.3s-0.5-0.1-0.7-0.3
				c-0.2-0.2-0.3-0.5-0.3-0.8c0-1,0.1-2.2,0.2-3.5c0.1-0.7,0.2-1.8,0.4-3.5c0.2-1.5,0.3-2.7,0.4-3.5c0.1-1.3,0.2-2.5,0.1-3.5
				c0-0.3,0.1-0.5,0.3-0.8C41.8,15.4,42.1,15.3,42.4,15.3z"/>
		</g>
		<g>
			<path fill="#4E569D" d="M42.2,29.6c0.3-0.1,0.5-0.1,0.8-0.2c0.2-0.1,0.7-0.3,1.6-0.6c0.6-0.2,1.2-0.4,1.8-0.5
				c0.6-0.1,1.2-0.2,1.8-0.2c0.3,0,0.6,0.1,0.8,0.3c0.2,0.2,0.3,0.5,0.3,0.8s-0.1,0.6-0.3,0.8c-0.2,0.2-0.5,0.3-0.8,0.3
				c-0.2,0-0.3,0-0.5,0l-0.2,0c0,0,0,0-0.1,0c-0.3,0.1-0.6,0.1-0.8,0.2c-0.5,0.1-1,0.3-1.6,0.5c-0.7,0.3-1.3,0.5-1.7,0.6
				c-0.6,0.2-1.2,0.3-1.8,0.4c-0.3,0-0.5-0.1-0.8-0.3c-0.2-0.2-0.3-0.5-0.3-0.8c0-0.3,0.1-0.6,0.3-0.8c0.2-0.2,0.5-0.3,0.8-0.3
				c-0.1,0,0,0,0.1,0c0.1,0,0.1,0,0.2,0C42,29.7,42.1,29.6,42.2,29.6z"/>
		</g>
		<g>
			<path fill="#4E569D" d="M48.4,28.2c0.3,0,0.5,0.1,0.7,0.3c0.2,0.2,0.2,0.5,0.3,0.8c0.1,0.8,0.1,1.9,0,3.3c-0.1,1.7-0.2,2.8-0.2,3.3
				c0,0.3-0.1,0.6-0.3,0.8c-0.2,0.2-0.4,0.3-0.6,0.3c-0.3,0-0.5-0.1-0.6-0.3c-0.2-0.2-0.3-0.5-0.3-0.8c0-0.5,0.1-1.5,0.2-3.3
				c0.1-1.3,0.1-2.4,0-3.3c0-0.3,0.1-0.5,0.3-0.8C47.9,28.3,48.1,28.2,48.4,28.2z"/>
		</g>
		<g>
			<path fill="#4E569D" d="M40.4,29.5c0.2-0.2,0.4-0.3,0.7-0.3c0.3,0,0.5,0.1,0.7,0.2c0.2,0.2,0.3,0.4,0.3,0.6c-0.1,1-0.2,2.4-0.5,4.1
				c-0.3,2-0.5,3.4-0.6,4.1c0,0.3-0.1,0.5-0.3,0.6c-0.2,0.2-0.4,0.3-0.7,0.3c-0.3,0-0.5-0.1-0.7-0.2c-0.2-0.2-0.3-0.4-0.3-0.6
				c0.1-0.7,0.3-2.1,0.6-4.1c0.3-1.7,0.4-3.1,0.5-4.1C40.2,29.9,40.2,29.7,40.4,29.5z"/>
		</g>
		<g>
			<path fill="#4E569D" d="M39.2,38.2c0.1-0.4,0.3-0.6,0.6-0.7c0.2-0.1,0.4-0.1,0.7,0c0.2,0.1,0.4,0.3,0.4,0.6c0.1,0.3,0.1,0.6-0.1,1
				c-0.4,1-0.9,2.2-1.6,3.7c-0.8,1.8-1.4,3.1-1.6,3.7c-0.1,0.3-0.3,0.5-0.5,0.7c-0.2,0.1-0.5,0.2-0.7,0c-0.2-0.1-0.4-0.3-0.4-0.6
				c-0.1-0.3-0.1-0.6,0.1-0.9c0.3-0.6,0.8-1.8,1.6-3.7C38.3,40.4,38.8,39.1,39.2,38.2z"/>
		</g>
		<g>
			<path fill="#4E569D" d="M45.3,22.7c0.3,0.1,0.7,0.2,1.2,0.4c0.6,0.2,1,0.3,1.2,0.4c0.3,0.1,0.5,0.3,0.7,0.5c0.2,0.3,0.2,0.5,0.1,0.8
				c-0.1,0.3-0.2,0.5-0.5,0.7c-0.3,0.2-0.5,0.2-0.8,0.1c-0.6-0.2-1-0.3-1.3-0.4c-0.5-0.2-1-0.3-1.3-0.5c-1-0.4-1.9-0.9-2.6-1.6
				c-0.2-0.2-0.3-0.4-0.3-0.8c0-0.3,0.1-0.6,0.3-0.8c0.2-0.2,0.5-0.3,0.8-0.3c0.3,0,0.5,0.1,0.8,0.3c0.3,0.3,0.6,0.5,1,0.7
				C44.6,22.4,44.9,22.6,45.3,22.7z"/>
		</g>
		<g>
			<path fill="#4E569D" d="M48.5,21.8c1.1-0.9,1.8-1.5,2.1-1.7c0.2-0.2,0.5-0.3,0.8-0.3c0.3,0,0.6,0.1,0.8,0.3c0.2,0.2,0.3,0.5,0.3,0.8
				c0,0.3-0.1,0.6-0.3,0.8c-0.3,0.2-0.9,0.8-2.1,1.7c-0.8,0.7-1.5,1.3-2,1.8c-0.2,0.2-0.5,0.3-0.8,0.3c-0.3,0-0.6-0.1-0.8-0.3
				c-0.2-0.2-0.3-0.5-0.3-0.8c0-0.3,0.1-0.6,0.3-0.8C47,23.1,47.7,22.5,48.5,21.8z"/>
		</g>
		<g>
			<path fill="#4E569D" d="M42.7,21.8c0.2,0.3,0.2,0.5,0.1,0.8c-0.1,0.3-0.2,0.5-0.5,0.7c-1.4,0.9-2.6,1.9-3.9,3
				c-1.2,1.2-2.3,2.4-3.2,3.7c-0.2,0.3-0.4,0.4-0.7,0.5c-0.3,0.1-0.6,0-0.8-0.1c-0.2-0.1-0.4-0.4-0.5-0.7c-0.1-0.3-0.1-0.6,0.1-0.8
				c1-1.5,2.2-2.9,3.5-4.1c1.3-1.3,2.7-2.4,4.3-3.4c0.2-0.2,0.5-0.2,0.8-0.1C42.4,21.3,42.6,21.5,42.7,21.8z"/>
		</g>
	</g>
</g>
</svg>
