<?xml version="1.0" encoding="utf-8"?>
<!-- Generator: Adobe Illustrator 15.1.0, SVG Export Plug-In . SVG Version: 6.00 Build 0)  -->
<!DOCTYPE svg PUBLIC "-//W3C//DTD SVG 1.1//EN" "http://www.w3.org/Graphics/SVG/1.1/DTD/svg11.dtd">
<svg version="1.1" id="Layer_1" xmlns="http://www.w3.org/2000/svg" xmlns:xlink="http://www.w3.org/1999/xlink" x="0px" y="0px"
	 width="90px" height="60px" viewBox="0 0 90 60" enable-background="new 0 0 90 60" xml:space="preserve">
<g>
	<path fill="#444B99" d="M47.6,14.05c0,0.066,0,0.167,0,0.3c0,0.833-0.283,1.533-0.85,2.1c-0.6,0.567-1.3,0.851-2.1,0.851
		c-0.833,0-1.533-0.283-2.1-0.851c-0.6-0.565-0.9-1.267-0.9-2.1c0-0.8,0.3-1.5,0.9-2.101c0.567-0.566,1.267-0.85,2.1-0.85
		c0.4,0,0.767,0.067,1.1,0.2c0.232,0.065,0.434,0.183,0.6,0.35L46.4,12c0.033,0,0.066,0.033,0.1,0.101h0.05l0.2,0.149
		C47.25,12.783,47.533,13.383,47.6,14.05z"/>
	<path fill="none" stroke="#444B99" stroke-width="2" stroke-linecap="round" stroke-linejoin="round" stroke-miterlimit="3" d="
		M51.45,23.5l-6-5.449 M36,28.3l8.55-10.45l-0.75,10.6l3.25,8.701l2.9,8.799 M45.85,26.25l5.4-2.5 M43.8,28.45l-3,17.701"/>
</g>
</svg>
