<?xml version="1.0" encoding="utf-8"?>
<!-- Generator: Adobe Illustrator 15.1.0, SVG Export Plug-In . SVG Version: 6.00 Build 0)  -->
<!DOCTYPE svg PUBLIC "-//W3C//DTD SVG 1.1//EN" "http://www.w3.org/Graphics/SVG/1.1/DTD/svg11.dtd">
<svg version="1.1" id="Layer_1" xmlns="http://www.w3.org/2000/svg" xmlns:xlink="http://www.w3.org/1999/xlink" x="0px" y="0px"
	 width="27.25px" height="36px" viewBox="72.25 120.25 27.25 36" enable-background="new 72.25 120.25 27.25 36"
	 xml:space="preserve">
<g>
	<g>
		<path fill="#4E569D" d="M85.802,136.477c-0.042,0.088-0.106,0.107-0.192,0.058c-0.086-0.051-0.108-0.119-0.066-0.207
			c0.62-1.302,1.425-2.481,2.414-3.54c1.073-1.145,2.179-1.949,3.317-2.414c0.09-0.038,0.148-0.008,0.174,0.091
			c0.026,0.096-0.005,0.162-0.093,0.198c-1.149,0.468-2.255,1.295-3.317,2.479C87.118,134.17,86.373,135.282,85.802,136.477z"/>
		<path fill="#4E569D" d="M93.62,125.384c0.358-0.398,0.689-0.735,0.994-1.012c0.96-0.873,1.682-1.182,2.165-0.928
			c0.599,0.314,0.412,1.006-0.559,2.074c-0.302,0.333-0.689,0.709-1.162,1.129c-0.428,0.372-0.67,0.588-0.727,0.646
			c-0.774,0.809-1.611,1.741-2.51,2.798c-0.577,0.679-1.374,1.645-2.393,2.897c-1.041,1.281-2.007,2.492-2.897,3.633
			c-0.01,0.014-0.023,0.033-0.039,0.057L74.598,154.82c-0.138,0.208-0.378,0.356-0.72,0.444c-0.348,0.09-0.631,0.07-0.85-0.058
			c-0.176-0.102-0.088-0.582,0.264-1.44c0.292-0.715,0.549-1.238,0.771-1.57l9.913-14.978c0.128-0.192,0.317-0.484,0.567-0.877
			c0.226-0.347,0.426-0.631,0.601-0.853c0.929-1.195,1.932-2.454,3.011-3.777c1.026-1.261,1.824-2.226,2.393-2.894
			c0.901-1.059,1.737-1.991,2.51-2.798C93.114,125.962,93.301,125.75,93.62,125.384z"/>
		<path fill="#4E569D" d="M84.284,131.94H84.28c0.014,0.017,0.024,0.026,0.032,0.03c0.004,0.002-0.002-0.006-0.02-0.023
			C84.29,131.944,84.287,131.942,84.284,131.94z M85.171,131.808c-0.001-0.002-0.002-0.004-0.003-0.007c0,0.012,0,0.022,0,0.033
			C85.167,131.856,85.169,131.847,85.171,131.808z M83.431,128.367c0.515-0.11,1.019-0.085,1.51,0.076
			c0.563,0.184,1.047,0.468,1.451,0.852c0.43,0.407,0.723,0.885,0.877,1.432c0.183,0.65,0.209,1.293,0.079,1.931
			c-0.142,0.712-0.457,1.257-0.945,1.635c-0.416,0.321-0.913,0.432-1.493,0.33c-0.081-0.015-0.162-0.032-0.241-0.054
			c-0.328,0.165-0.67,0.212-1.025,0.14c-0.454-0.092-0.851-0.365-1.192-0.82c-0.25-0.333-0.475-0.774-0.676-1.325
			c-0.237-0.654-0.347-1.258-0.331-1.813c0.022-0.691,0.244-1.249,0.665-1.675C82.466,128.716,82.906,128.479,83.431,128.367z"/>
		<path fill="#4E569D" d="M96.045,122.772c-0.198,0.346-0.301,0.725-0.309,1.138c-0.002,0.092-0.034,0.165-0.096,0.219
			c-0.058,0.048-0.127,0.072-0.207,0.072c-0.083,0-0.151-0.024-0.208-0.072c-0.062-0.054-0.092-0.127-0.09-0.219
			c0.01-0.519,0.14-0.997,0.39-1.436c0.252-0.437,0.599-0.791,1.039-1.065c0.078-0.048,0.156-0.06,0.234-0.033
			c0.068,0.022,0.123,0.069,0.165,0.142c0.04,0.069,0.054,0.142,0.042,0.216c-0.014,0.082-0.06,0.146-0.138,0.195
			C96.518,122.146,96.244,122.428,96.045,122.772z"/>
		<path fill="#4E569D" d="M95.871,124.279c-0.07-0.026-0.125-0.074-0.165-0.145c-0.042-0.07-0.056-0.141-0.042-0.213
			c0.014-0.082,0.061-0.146,0.141-0.192c0.29-0.167,0.543-0.354,0.759-0.562c-0.278,0.132-0.498,0.238-0.657,0.321
			c-0.08,0.042-0.16,0.048-0.24,0.019c-0.07-0.026-0.126-0.074-0.168-0.145c-0.04-0.07-0.053-0.14-0.039-0.21
			c0.016-0.08,0.064-0.142,0.144-0.184c0.194-0.1,0.49-0.238,0.889-0.417c0.344-0.168,0.615-0.347,0.813-0.537
			c0.106-0.103,0.227-0.115,0.363-0.039s0.182,0.187,0.138,0.333c-0.122,0.398-0.344,0.772-0.667,1.123
			c-0.284,0.311-0.628,0.582-1.033,0.816C96.028,124.295,95.949,124.305,95.871,124.279z"/>
		<path fill="#4E569D" d="M96.093,123.718c-0.001-0.022,0-0.046,0.003-0.069c0.012-0.084,0.054-0.153,0.126-0.207
			c0.158-0.116,0.456-0.238,0.895-0.366c0.396-0.116,0.678-0.258,0.847-0.427c0.102-0.102,0.225-0.114,0.369-0.039
			c0.146,0.078,0.19,0.188,0.132,0.331c-0.178,0.436-0.515,0.78-1.012,1.032c-0.44,0.225-0.92,0.341-1.441,0.349
			c-0.092,0.002-0.164-0.028-0.216-0.09c-0.048-0.057-0.072-0.124-0.072-0.205c0-0.082,0.024-0.151,0.072-0.21
			c0.054-0.062,0.126-0.094,0.216-0.096C96.039,123.72,96.066,123.719,96.093,123.718z"/>
		<path fill="#4E569D" d="M95.796,123.139c0.172-0.059,0.319-0.089,0.441-0.091c0.082-0.002,0.153,0.027,0.213,0.087
			c0.058,0.061,0.087,0.132,0.087,0.214s-0.03,0.151-0.09,0.21c-0.058,0.058-0.128,0.088-0.21,0.09
			c-0.012,0-0.022,0.001-0.031,0.002l-0.017,0.001l-0.231,0.066c-0.076,0.025-0.152,0.017-0.229-0.027
			c-0.074-0.044-0.121-0.105-0.141-0.183c-0.022-0.08-0.012-0.155,0.03-0.226C95.659,123.212,95.718,123.164,95.796,123.139z"/>
		<path fill="#4E569D" d="M96.084,124.153c0.048-0.127,0.139-0.188,0.273-0.184c0.126,0.004,0.314,0.023,0.564,0.057
			c0.126,0.011,0.241,0.011,0.344-0.001c0-0.003,0.001-0.005,0.001-0.008c0.028-0.158,0.04-0.267,0.036-0.327
			c-0.008-0.107-0.056-0.231-0.144-0.369c-0.048-0.078-0.122-0.192-0.222-0.342c-0.064-0.12-0.056-0.229,0.024-0.327
			c0.08-0.099,0.185-0.136,0.315-0.111c0.206,0.038,0.381,0.136,0.525,0.294c0.134,0.148,0.227,0.328,0.279,0.54
			c0.05,0.209,0.053,0.414,0.009,0.616c0,0.003-0.001,0.006-0.001,0.009c0.066-0.059,0.123-0.126,0.169-0.201
			c0.048-0.078,0.113-0.124,0.195-0.139c0.074-0.012,0.147,0.002,0.219,0.042c0.07,0.042,0.116,0.098,0.138,0.166
			c0.026,0.077,0.015,0.155-0.033,0.233c-0.252,0.414-0.667,0.67-1.246,0.766c-0.592,0.101-1.055-0.027-1.387-0.384
			C96.056,124.387,96.036,124.277,96.084,124.153z"/>
		<path fill="#4E569D" d="M84.181,133.919c-0.034-0.084-0.031-0.159,0.009-0.226c0.036-0.06,0.094-0.1,0.174-0.119
			c0.078-0.022,0.153-0.019,0.225,0.012c0.08,0.032,0.137,0.09,0.171,0.174c0.17,0.42,0.268,0.845,0.294,1.273
			c0.026,0.452-0.032,0.881-0.174,1.287c-0.03,0.086-0.084,0.146-0.162,0.181c-0.07,0.03-0.144,0.035-0.222,0.015
			c-0.078-0.021-0.136-0.063-0.174-0.123c-0.044-0.068-0.051-0.145-0.021-0.231C84.545,135.463,84.505,134.716,84.181,133.919z"/>
		<path fill="#4E569D" d="M84.982,134.156c0.078-0.022,0.148-0.017,0.21,0.015c0.07,0.036,0.113,0.1,0.129,0.189
			c0.118,0.706,0.051,1.387-0.201,2.041c-0.07,0.179-0.201,0.241-0.394,0.189c-0.078-0.02-0.136-0.06-0.174-0.12
			c-0.04-0.066-0.044-0.142-0.012-0.229c0.228-0.592,0.295-1.166,0.201-1.723C84.71,134.329,84.79,134.208,84.982,134.156z"/>
		<path fill="#4E569D" d="M85.199,134.265c0.06-0.049,0.131-0.072,0.213-0.072c0.08,0,0.147,0.023,0.201,0.072
			c0.058,0.052,0.084,0.124,0.078,0.216c-0.054,0.818-0.267,1.549-0.64,2.191c-0.046,0.08-0.11,0.127-0.192,0.142
			c-0.072,0.014-0.143,0.001-0.213-0.039c-0.07-0.042-0.118-0.099-0.144-0.169c-0.026-0.077-0.016-0.155,0.03-0.233
			c0.324-0.563,0.51-1.193,0.558-1.892C85.096,134.391,85.132,134.318,85.199,134.265z"/>
		<path fill="#4E569D" d="M84.622,134.64c0.032-0.084,0.088-0.144,0.168-0.178c0.072-0.029,0.147-0.033,0.225-0.012
			c0.078,0.022,0.136,0.063,0.174,0.123c0.04,0.066,0.044,0.143,0.012,0.229c-0.306,0.839-0.542,1.464-0.706,1.876
			c-0.288,0.719-0.583,1.317-0.886,1.796c-0.048,0.078-0.114,0.124-0.198,0.138c-0.074,0.012-0.146-0.002-0.216-0.042
			c-0.07-0.042-0.117-0.097-0.141-0.165c-0.024-0.076-0.012-0.153,0.036-0.231c0.292-0.462,0.577-1.037,0.853-1.726
			C84.102,136.049,84.328,135.446,84.622,134.64z"/>
		<path fill="#4E569D" d="M85.171,136.93c0.043-0.087,0.111-0.136,0.204-0.146c0.056-0.133,0.124-0.297,0.204-0.49
			c0.154-0.375,0.285-0.683,0.394-0.925c0.062-0.139,0.171-0.184,0.327-0.135c0.152,0.048,0.229,0.144,0.231,0.288
			c0.006,0.386-0.332,1.418-1.015,3.095c-0.508,1.255-0.877,2.114-1.108,2.579c-0.396,0.826-0.907,1.55-1.534,2.171
			c-0.105,0.104-0.211,0.202-0.318,0.295c0.068,0.113,0.358,1.046,0.871,2.797c0.512,1.76,0.769,2.708,0.769,2.846
			c0,0.021-0.161,0.385-0.483,1.093c-0.376,0.833-0.745,1.619-1.105,2.36c-1.106,2.275-1.788,3.413-2.044,3.413
			c-0.174,0-0.379-0.068-0.615-0.204c-0.064-0.037-0.119-0.07-0.165-0.102c-0.072-0.024-0.131-0.083-0.177-0.178
			c-0.018-0.038,0.45-1.048,1.405-3.029c0.931-1.929,1.437-2.963,1.52-3.101c-0.225-0.497-0.526-1.371-0.907-2.621
			c-0.12-0.393-0.302-0.859-0.546-1.402c-0.246-0.546-0.396-0.813-0.447-0.799c-0.152,0.042-0.262-0.003-0.331-0.135
			c-0.07-0.13-0.058-0.252,0.036-0.366c0.041-0.049,0.083-0.098,0.129-0.148c-0.023-0.057-0.029-0.112-0.018-0.167
			c0.018-0.076,0.068-0.133,0.15-0.171c0.052-0.023,0.104-0.05,0.156-0.078c0.023-0.162,0.083-0.199,0.177-0.109
			c0.061-0.041,0.122-0.085,0.182-0.132c-0.134,0.011-0.269,0.011-0.404-0.002c-0.09-0.008-0.162-0.046-0.216-0.114
			c-0.046-0.06-0.07-0.131-0.072-0.213c0-0.082,0.024-0.148,0.072-0.198c0.054-0.058,0.126-0.083,0.216-0.075
			c0.344,0.03,0.691-0.024,1.039-0.165c0.063-0.025,0.124-0.053,0.183-0.082c0.1-0.12,0.216-0.261,0.351-0.422
			c0.076-0.092,0.17-0.203,0.284-0.334c-0.199,0.123-0.407,0.229-0.623,0.321c-0.023,0.011-0.048,0.021-0.072,0.03
			c-0.162,0.066-0.275,0.014-0.339-0.156s-0.028-0.301,0.108-0.393c0.088-0.059,0.359-0.214,0.814-0.466
			c0.058-0.032,0.114-0.064,0.168-0.096c0.461-0.36,0.875-0.842,1.243-1.444c0.21-0.345,0.44-0.789,0.691-1.333
			C84.693,137.982,84.899,137.53,85.171,136.93z"/>
	</g>
</g>
</svg>
