<?xml version="1.0" encoding="utf-8"?>
<!-- Generator: Adobe Illustrator 19.2.1, SVG Export Plug-In . SVG Version: 6.00 Build 0)  -->
<svg version="1.1" id="Layer_1" xmlns="http://www.w3.org/2000/svg" xmlns:xlink="http://www.w3.org/1999/xlink" x="0px" y="0px"
	 viewBox="0 0 90 60" style="enable-background:new 0 0 90 60;" xml:space="preserve">
<g>
	<g>
		<path fill="#4E569D" d="M48.3,13.7c0.6,0.6,0.9,1.3,0.9,2.1c0,0.8-0.3,1.5-0.9,2.1c-0.6,0.6-1.3,0.9-2.1,0.9c-0.8,0-1.5-0.3-2.1-0.9
			c-0.6-0.6-0.9-1.3-0.9-2.1c0-0.8,0.3-1.5,0.9-2.1c0.6-0.6,1.3-0.9,2.1-0.9S47.7,13.1,48.3,13.7z"/>
		<path fill="#4E569D" d="M47.4,16.5c0.2,0.2,0.3,0.5,0.3,0.8c-0.1,2-0.4,4.5-0.9,7.4c-0.3,1.6-0.6,4.1-1.2,7.4c0,0.3-0.2,0.5-0.5,0.6
			c-0.3,0.1-0.6,0.2-0.8,0.1c-0.3-0.1-0.5-0.3-0.6-0.5c-0.1-0.2-0.2-0.5-0.1-0.8c0.5-3.1,0.9-5.5,1.1-7.1c0.4-2.8,0.7-5.1,0.8-7.1
			c0-0.3,0.1-0.6,0.3-0.8c0.2-0.2,0.5-0.3,0.8-0.3C46.9,16.1,47.2,16.2,47.4,16.5z"/>
		<path fill="#4E569D" d="M51.8,35.2c0,0,0.6,0.6,1.8,1.6c0.2,0.2,0.3,0.5,0.3,0.8c0,0.3-0.1,0.6-0.4,0.7c-0.2,0.2-0.5,0.3-0.8,0.3
			c-0.3,0-0.5-0.1-0.7-0.4c-0.7-0.7-1.2-1.2-1.6-1.5c-0.6-0.5-1.1-1-1.6-1.4c-0.7-0.6-1.3-1-1.8-1.3l-0.7-0.4
			c-0.1,0-0.1-0.1-0.1-0.1c-0.3-0.1-0.6-0.2-0.8-0.3c-0.3-0.1-0.5-0.3-0.6-0.6c-0.1-0.3-0.1-0.5-0.1-0.8c0.1-0.3,0.3-0.5,0.6-0.6
			c0.3-0.1,0.5-0.1,0.8-0.1c0.7,0.2,1.4,0.6,2.1,1c0.6,0.4,1.2,0.8,1.9,1.4C50.5,34.1,51.1,34.6,51.8,35.2z"/>
		<path fill="#4E569D" d="M52.1,36.9c0.3-0.2,0.5-0.2,0.8-0.2c0.3,0.1,0.5,0.2,0.7,0.4c0.1,0.2,0.2,0.5,0.2,0.8c-0.1,0.9-0.1,2.3,0,3.9
			c0.1,1.9,0.1,3.2,0.1,4c0,0.3-0.1,0.6-0.3,0.8c-0.2,0.2-0.4,0.4-0.7,0.4c-0.3,0-0.5-0.1-0.8-0.2c-0.3-0.2-0.4-0.4-0.4-0.7
			c0-0.7,0-2.2-0.1-4.2c-0.1-1.8-0.1-3.2,0-4.2C51.7,37.3,51.8,37,52.1,36.9z"/>
		<path fill="#4E569D" d="M43.4,32.1c0.1-0.3,0.2-0.5,0.5-0.6c0.3-0.1,0.5-0.2,0.8-0.1c0.3,0.1,0.5,0.2,0.6,0.5
			c0.1,0.2,0.2,0.5,0.1,0.8c-0.4,1.9-0.5,4.1-0.5,6.6c0,0.3-0.1,0.6-0.3,0.8c-0.2,0.2-0.4,0.3-0.7,0.3c-0.3,0-0.5-0.1-0.7-0.3
			c-0.2-0.2-0.3-0.4-0.3-0.8C42.8,36.7,43,34.3,43.4,32.1z"/>
		<path fill="#4E569D" d="M41.9,40.7c0.4-0.6,0.6-1.2,0.8-1.7c0.1-0.3,0.3-0.5,0.5-0.6c0.3-0.2,0.5-0.2,0.8-0.1
			c0.3,0.1,0.5,0.2,0.7,0.5c0.2,0.3,0.2,0.5,0.1,0.8c-0.4,1.1-1,2.3-2,3.7c-0.3,0.4-0.7,1-1.2,1.8c-0.5,0.7-0.8,1.3-1.1,1.8
			c-0.1,0.3-0.4,0.4-0.7,0.5c-0.3,0.1-0.6,0-0.8-0.1c-0.3-0.2-0.4-0.4-0.5-0.7c-0.1-0.3,0-0.6,0.1-0.8c0.3-0.5,0.6-1,1.1-1.7
			c0.5-0.7,0.9-1.3,1.1-1.7C41.3,41.8,41.7,41.2,41.9,40.7z"/>
		<path fill="#4E569D" d="M45.9,18.9c0.3-0.1,0.5-0.1,0.8,0.1c0.3,0.2,0.4,0.4,0.5,0.6c0.1,0.3,0,0.6-0.1,0.8c-0.1,0.2-0.4,0.4-0.6,0.5
			L46,21.2c0,0,0,0-0.1,0c0,0,0,0,0,0c-0.3,0.1-0.6,0.2-0.7,0.3c-0.5,0.2-0.9,0.5-1.3,0.7c-0.3,0.2-0.5,0.3-0.6,0.4L42.7,23
			c-0.4,0.3-0.8,0.6-1,0.9c-0.2,0.2-0.4,0.4-0.5,0.5l-0.4,0.4c-0.3,0.4-0.6,0.8-0.8,1.2c-0.2,0.3-0.3,0.5-0.3,0.7l-0.1,0.1
			c0,0,0,0,0,0.1c-0.1,0.1-0.1,0.3-0.1,0.4c-0.2,0.5-0.3,1-0.4,1.5c-0.1,0.3-0.2,0.5-0.5,0.6c-0.3,0.1-0.5,0.2-0.8,0.1
			c-0.3-0.1-0.5-0.2-0.6-0.5c-0.1-0.3-0.2-0.5-0.1-0.8c0.3-1.1,0.6-2.2,1.2-3.1c0.5-1,1.2-1.9,2-2.7c0.8-0.8,1.7-1.4,2.7-2
			C43.7,19.8,44.8,19.3,45.9,18.9z"/>
		<path fill="#4E569D" d="M49.4,19.3c1.2,0,2.3,0.2,3.1,0.5c0.3,0.1,0.5,0.3,0.6,0.5c0.2,0.3,0.2,0.5,0.1,0.8c-0.1,0.3-0.2,0.5-0.5,0.6
			c-0.3,0.2-0.5,0.2-0.8,0.1c-0.7-0.3-1.7-0.4-3-0.4c-0.7,0-1.2,0-1.5,0c-0.6,0-1.1-0.1-1.5-0.1c-0.3,0-0.5-0.2-0.6-0.5
			c-0.1-0.3-0.2-0.6-0.1-0.8c0.1-0.3,0.3-0.5,0.5-0.6c0.2-0.1,0.5-0.2,0.8-0.1c0.4,0.1,0.8,0.1,1.4,0.1
			C48.2,19.3,48.7,19.3,49.4,19.3z"/>
		<path fill="#4E569D" d="M57.3,15.3c0.2,0.2,0.3,0.5,0.3,0.8c0,0.3-0.1,0.6-0.3,0.8c-0.5,0.4-0.8,0.8-1.1,1c-0.4,0.4-0.7,0.7-1,1.1
			c-0.2,0.2-0.3,0.4-0.4,0.5c-0.1,0.2-0.3,0.3-0.4,0.5c-0.2,0.2-0.3,0.5-0.4,0.7c0,0.1-0.1,0.2-0.2,0.3c0,0,0,0,0,0.1
			c0,0,0,0.1,0,0.1c-0.1,0.3-0.3,0.5-0.5,0.6c-0.2,0.2-0.5,0.2-0.8,0.1c-0.3-0.1-0.5-0.2-0.7-0.5c-0.2-0.3-0.2-0.6-0.1-0.8
			c0.4-1,1-1.9,1.8-2.8c0.5-0.6,1.3-1.4,2.4-2.4c0.2-0.2,0.5-0.3,0.8-0.3C56.8,15,57.1,15.1,57.3,15.3z"/>
		<path fill="#4D569D" d="M35.7,29.8c0.5,0.2,0.8,0.5,1,0.9c0.5,0.9,0.4,2.4-0.3,4.7c-0.7,2.3-1.5,3.9-2.5,4.8c-0.8,0.7-1.7,1-2.9,0.7
			c-1.2-0.3-2-0.9-2.4-2c-0.5-1.3-0.4-3,0.3-5.3c0.7-2.2,1.5-3.6,2.4-4.1c0.4-0.2,0.8-0.3,1.4-0.3c0.3,0,0.8,0.1,1.5,0.3
			C34.9,29.5,35.4,29.6,35.7,29.8z"/>
		<g>
			<path fill="#4D569D" d="M39.9,30.2c0,0.2-0.1,0.6-0.2,1.2c-0.4,2.1-1.3,3.8-2.6,5.1c-0.6,0.6-1.3,1-2,1.3c-0.7,0.3-1.4,0.4-2.1,0.4
				c-0.2,0-0.3-0.1-0.2-0.4c0-0.2,0.1-0.4,0.3-0.3c1.4,0.1,2.7-0.5,3.9-1.7c1.2-1.2,2-2.7,2.3-4.6c0.1-0.7,0.2-1.1,0.2-1.1
				c0-0.4-0.1-0.7-0.3-0.9c-0.3-0.2-0.5-0.1-0.8,0.1c-0.1,0.1-0.3,0.4-0.6,0.9c-0.4,0.6-0.7,1-1.1,1.4c-0.4,0.3-0.9,0.6-1.4,0.7
				c-0.2,0-0.3-0.1-0.2-0.3c0-0.2,0.1-0.4,0.3-0.4c0.4-0.1,0.8-0.3,1.2-0.6c0.3-0.3,0.6-0.7,0.9-1.2c0.2-0.4,0.4-0.6,0.5-0.8
				c0.2-0.3,0.5-0.5,0.7-0.5c0.2-0.1,0.5,0,0.8,0.1c0.3,0.1,0.4,0.4,0.5,0.6C39.9,29.3,39.9,29.7,39.9,30.2z"/>
		</g>
		<g>
			<path fill="#4D569D" d="M37.1,27.9c0.3,0.2,0.5,0.5,0.5,0.9c0,1.1-0.3,2-1.1,3c-0.7,0.8-1.5,1.3-2.4,1.6c-0.2,0.1-0.3,0-0.3-0.3
				c0-0.2,0.1-0.4,0.2-0.4c0.7-0.2,1.2-0.5,1.7-1c0.6-0.5,1-1.1,1.2-1.9c0.1-0.4,0.1-0.8,0.1-1.1c-0.1-0.4-0.3-0.5-0.7-0.4
				c-0.3,0.1-0.6,0.3-0.9,0.6c-0.2,0.3-0.4,0.7-0.5,1.1c-0.1,0.2-0.2,0.3-0.4,0.3c-0.2,0-0.2-0.2-0.2-0.4c0.1-0.6,0.4-1,0.7-1.4
				c0.3-0.5,0.7-0.7,1.2-0.8C36.5,27.6,36.8,27.7,37.1,27.9z"/>
		</g>
	</g>
</g>
</svg>
