<?xml version="1.0" encoding="utf-8"?>
<!-- Generator: Adobe Illustrator 15.1.0, SVG Export Plug-In . SVG Version: 6.00 Build 0)  -->
<!DOCTYPE svg PUBLIC "-//W3C//DTD SVG 1.1//EN" "http://www.w3.org/Graphics/SVG/1.1/DTD/svg11.dtd">
<svg version="1.1" id="Layer_1" xmlns="http://www.w3.org/2000/svg" xmlns:xlink="http://www.w3.org/1999/xlink" x="0px" y="0px"
	 width="90px" height="60px" viewBox="0 0 90 60" enable-background="new 0 0 90 60" xml:space="preserve">
<g>
	<g>
		
			<path fill-rule="evenodd" clip-rule="evenodd" fill="none" stroke="#444B99" stroke-width="2" stroke-linecap="round" stroke-linejoin="round" stroke-miterlimit="3" d="
			M-287.606,259.615l-5.8-1.898l-3.35-5.451l0.8,6.85l0.5,3.602l2.65,8.949l2.25,8.85 M-295.456,262.717l-4.2,17.398"/>
		
			<polyline fill-rule="evenodd" clip-rule="evenodd" fill="none" stroke="#444B99" stroke-width="2" stroke-linecap="round" stroke-linejoin="round" stroke-miterlimit="3" points="
			-300.207,262.863 -301.731,256.738 -297.189,251.605 		"/>
		<path fill-rule="evenodd" clip-rule="evenodd" fill="#444B99" d="M-294.436,247.537c0.145,0.811-0.009,1.568-0.458,2.273
			c-0.474,0.568-1.102,0.943-1.883,1.123c-0.814,0.176-1.556,0.041-2.227-0.406c-0.637-0.445-1.045-1.074-1.223-1.889
			c-0.146-0.779-0.011-1.521,0.405-2.229c0.51-0.6,1.171-0.986,1.986-1.164c0.375-0.107,0.712-0.152,1.011-0.131
			c0.266,0.018,0.494,0.102,0.685,0.248l0.046,0.053c0.033,0.002,0.097,0.041,0.192,0.113l0.054-0.045
			c0.062,0.07,0.107,0.141,0.136,0.209c0.576,0.375,0.974,0.887,1.196,1.537C-294.521,247.33-294.495,247.432-294.436,247.537z"/>
		<g>
			
				<line fill-rule="evenodd" clip-rule="evenodd" fill="none" stroke="#5A4B38" stroke-linejoin="round" stroke-miterlimit="3" x1="-303.156" y1="264.467" x2="-281.856" y2="256.666"/>
			<path fill-rule="evenodd" clip-rule="evenodd" fill="#5A4B38" d="M-282.992,264.287c0.011-5.654-1.604-10.201-4.843-13.637
				l0.268-0.555c4.596,2.613,6.33,7.357,5.203,14.236L-282.992,264.287z"/>
		</g>
	</g>
	<g>
		
			<path fill-rule="evenodd" clip-rule="evenodd" fill="none" stroke="#444B99" stroke-width="2" stroke-linecap="round" stroke-linejoin="round" stroke-miterlimit="3" d="
			M357.245-181.934l-4.951,7.6l-5.15,2.5l-1,7.35l3.051,8.65l2.199,6.05l0.9,2.75 M335.794-181.833l4.75,6.35l6.6,3.65v-3.6
			 M346.144-164.484l-2.5,14.7l-0.5,2.95"/>
		<path fill-rule="evenodd" clip-rule="evenodd" fill="#444B99" d="M347.896-182.034c0.365,0.133,0.699,0.35,1,0.65
			c0.5,0.5,0.783,1.1,0.85,1.8c0,0.067,0,0.15,0,0.25c0,0.133,0,0.267,0,0.4v0.05c-0.334,1.033-0.783,1.717-1.35,2.05l-0.051,0.05
			c-0.434,0.267-0.916,0.4-1.449,0.4c-0.035,0-0.068,0-0.102,0c-0.832,0-1.533-0.267-2.1-0.8c-0.6-0.6-0.9-1.317-0.9-2.15
			c0-0.8,0.301-1.483,0.9-2.05c0.566-0.6,1.268-0.9,2.1-0.9C347.194-182.284,347.562-182.201,347.896-182.034z"/>
		<polygon fill-rule="evenodd" clip-rule="evenodd" fill="#4A3541" points="359.944,-196.634 359.144,-186.534 355.794,-146.684 
			355.245,-146.684 359.394,-196.884 359.944,-196.834 		"/>
		<path fill-rule="evenodd" clip-rule="evenodd" fill="#E95556" d="M370.495-183.834l0.799-7.1c4.1,0.933,5.883,2.95,5.35,6.05
			c-0.398-0.7-1.217-0.9-2.449-0.6c1.1,1.6,1.232,3.4,0.4,5.4c-1.533-2.667-4.633-3.667-9.301-3
			C367.661-183.717,369.394-183.967,370.495-183.834z"/>
		<path fill-rule="evenodd" clip-rule="evenodd" fill="#BE4546" d="M370.495-183.834c-1.102-0.133-2.834,0.117-5.201,0.75l0.65-4.3
			C367.845-186.951,369.36-185.767,370.495-183.834z"/>
		<path fill-rule="evenodd" clip-rule="evenodd" fill="#F26822" d="M359.144-186.534c1.334-3.233,1.602-6.6,0.801-10.1
			c5.066-1.133,8.916,0.267,11.551,4.2l-0.201,1.5l-0.799,7.1c-1.135-1.933-2.65-3.117-4.551-3.55
			C364.044-187.851,361.778-187.567,359.144-186.534z"/>
	</g>
	<path fill-rule="evenodd" clip-rule="evenodd" fill="#444B99" d="M382.944-146.234c-4.699-4.333-6.85-8.917-6.449-13.75
		c-3.301,4.167-4.9,8.75-4.801,13.75h-13.1c7.832-8.5,14.133-17.783,18.9-27.85c3.566,9.7,9.932,18.983,19.1,27.85H382.944z
		 M409.794-146.234h-11c-9.434-8.867-16.049-18.15-19.85-27.85c4.301,5.033,8.232,7.667,11.801,7.9
		C394.177-160.084,400.528-153.434,409.794-146.234z"/>
	<g>
		<path fill-rule="evenodd" clip-rule="evenodd" fill="#444B99" d="M48.444,12.266l0.05,0.05c0.033,0,0.067,0.033,0.101,0.1h0.049
			l0.201,0.15c0.5,0.533,0.783,1.133,0.85,1.8c0,0.067,0,0.167,0,0.3c0,0.833-0.283,1.533-0.85,2.1
			c-0.601,0.567-1.301,0.85-2.101,0.85c-0.833,0-1.533-0.283-2.101-0.85c-0.6-0.566-0.899-1.267-0.899-2.1c0-0.8,0.3-1.5,0.899-2.1
			c0.567-0.567,1.268-0.85,2.101-0.85c0.399,0,0.767,0.067,1.101,0.2C48.077,11.983,48.277,12.1,48.444,12.266z"/>
		
			<path fill-rule="evenodd" clip-rule="evenodd" fill="none" stroke="#444B99" stroke-width="2" stroke-linecap="round" stroke-linejoin="round" stroke-miterlimit="3" d="
			M48.444,12.266l0.05,0.05c0.033,0,0.067,0.033,0.101,0.1h0.049l0.201,0.15l5.799,4.45l-8,1.15l-0.75,10.599l3.25,8.701l2.9,8.799
			 M45.894,28.766l-3,17.701 M38.095,28.616l8.549-10.45"/>
		<g>
			
				<line fill-rule="evenodd" clip-rule="evenodd" fill="none" stroke="#5A4B38" stroke-linejoin="round" stroke-miterlimit="3" x1="39.644" y1="24.766" x2="32.694" y2="46.366"/>
			<path fill-rule="evenodd" clip-rule="evenodd" fill="#5A4B38" d="M27.241,39.553c4.451,3.483,9.025,5.004,13.723,4.563
				l0.273,0.551c-4.883,2.018-9.688,0.469-14.416-4.646L27.241,39.553z"/>
		</g>
	</g>
	<g>
		<path fill-rule="evenodd" clip-rule="evenodd" fill="#444B99" d="M-409.156,330.566c-0.633,0.6-1.333,0.9-2.1,0.9
			c-0.833,0-1.534-0.301-2.1-0.9c-0.633-0.533-0.95-1.234-0.95-2.1c0-0.801,0.317-1.484,0.95-2.051c0.566-0.566,1.267-0.85,2.1-0.85
			c0.767,0,1.466,0.283,2.1,0.85c0.567,0.566,0.85,1.25,0.85,2.051C-408.306,329.332-408.589,330.033-409.156,330.566z"/>
		
			<path fill-rule="evenodd" clip-rule="evenodd" fill="none" stroke="#444B99" stroke-width="2" stroke-linecap="round" stroke-linejoin="round" stroke-miterlimit="3" d="
			M-402.206,337.266l-4.5,0.35l-4.05-5.699l-0.2,3.301l-0.4,6.25l5.9,7.898l1.8,9.352 M-416.806,358.365l4.5-7.549l0.95-9.35"/>
		
			<polyline fill-rule="evenodd" clip-rule="evenodd" fill="none" stroke="#444B99" stroke-width="2" stroke-linecap="round" stroke-linejoin="round" stroke-miterlimit="3" points="
			-404.073,341.99 -410.33,339.693 -410.961,333.035 		"/>
		<g>
			<path fill-rule="evenodd" clip-rule="evenodd" fill="#444B99" d="M-418.456,332.217c0.3-0.301,0.85-0.65,1.65-1.051
				c0.767-0.434,1.267-0.301,1.5,0.4c1.467-0.334,2.483,0.482,3.05,2.449c0.2,0.834,0.267,1.934,0.2,3.301
				c-0.033,2.766-0.05,4.617-0.05,5.549c0,0.934-0.283,1.617-0.85,2.051c-0.167,0.1-0.717,0.283-1.65,0.551
				c-0.733,0.199-1.15,0.299-1.25,0.299c-0.167-0.033-0.367-0.199-0.6-0.5c-0.567,0.301-1,0.367-1.3,0.201
				c-0.467-0.234-0.784-0.701-0.95-1.4l-0.7-2.6c-0.433-1.701-0.7-2.934-0.8-3.701c-0.133-0.299,0.083-0.799,0.65-1.5
				c0.167-0.166,0.333-0.299,0.5-0.4c0.067-0.766,0.283-1.416,0.65-1.949c-0.367-0.166-0.55-0.334-0.55-0.5
				C-419.089,333.016-418.923,332.615-418.456,332.217z M-417.456,332.217c-0.167,0.033-0.367,0.148-0.6,0.35h-0.1
				c0.1,0.434,0.517,0.732,1.25,0.9c0.434-0.268,0.833-0.602,1.2-1c-0.133-0.268-0.267-0.484-0.4-0.65c-0.1,0.033-0.2,0.066-0.3,0.1
				C-416.939,332.049-417.29,332.15-417.456,332.217z"/>
			<path fill-rule="evenodd" clip-rule="evenodd" fill="#FFFFFF" d="M-416.127,343.711c-2.832-3.406-3.654-5.836-2.468-7.289
				C-418.366,338.334-417.543,340.764-416.127,343.711z"/>
		</g>
		<path fill-rule="evenodd" clip-rule="evenodd" fill="#444B99" d="M-414.715,332.232c0.011-0.318,0.134-0.594,0.369-0.82
			c0.278-0.273,0.662-0.559,1.149-0.852c-0.025-0.178-0.005-0.361,0.058-0.549c0.105-0.293,0.301-0.508,0.588-0.645
			c0.397-0.201,0.833-0.391,1.312-0.568c0.229-0.08,0.458-0.088,0.689-0.023l0.056,0.014c0.221,0.057,0.409,0.166,0.565,0.33
			c0.144,0.164,0.231,0.355,0.262,0.576c0.044,0.221,0.027,0.434-0.053,0.639c-0.298,0.754-0.906,1.395-1.821,1.918l-0.035,0.021
			c-0.53,0.285-0.929,0.555-1.197,0.807c-0.222,0.219-0.488,0.326-0.799,0.32c-0.312-0.008-0.577-0.129-0.794-0.361
			C-414.595,332.814-414.711,332.547-414.715,332.232z"/>
	</g>
</g>
</svg>
