<?xml version="1.0" encoding="utf-8"?>
<!-- Generator: Adobe Illustrator 15.1.0, SVG Export Plug-In . SVG Version: 6.00 Build 0)  -->
<!DOCTYPE svg PUBLIC "-//W3C//DTD SVG 1.1//EN" "http://www.w3.org/Graphics/SVG/1.1/DTD/svg11.dtd">
<svg version="1.1" id="Layer_1" xmlns="http://www.w3.org/2000/svg" xmlns:xlink="http://www.w3.org/1999/xlink" x="0px" y="0px"
	 width="133.667px" height="39.167px" viewBox="0 0 133.667 39.167" enable-background="new 0 0 133.667 39.167"
	 xml:space="preserve">
<g id="Layer_1_1_">
</g>
<g id="Layer_5">
	<g id="Layer_4">
	</g>
</g>
<g id="Isolation_Mode">
	<g>
		<polygon fill="#EB2227" points="114.501,39.191 0.135,39.191 19.43,18.327 0.135,0.074 114.591,0.074 133.529,18.327 		"/>
		<rect x="48.353" y="13.813" fill="none" width="58.165" height="32.026"/>
		<g enable-background="new    ">
			<path fill="#FFFFFF" d="M53.592,20.921c-0.303,0.122-0.596,0.213-0.879,0.271c-0.284,0.06-0.578,0.089-0.884,0.089
				c-0.491,0-0.925-0.072-1.302-0.217c-0.377-0.144-0.696-0.358-0.955-0.645c-0.259-0.285-0.456-0.639-0.59-1.062
				s-0.201-0.914-0.201-1.475c0-0.574,0.073-1.085,0.219-1.531c0.146-0.447,0.355-0.825,0.626-1.133
				c0.271-0.309,0.601-0.543,0.989-0.705c0.388-0.161,0.823-0.242,1.307-0.242c0.157,0,0.304,0.003,0.441,0.01
				c0.138,0.008,0.272,0.021,0.405,0.04c0.132,0.019,0.266,0.044,0.402,0.075c0.135,0.031,0.276,0.071,0.422,0.12v1.273
				c-0.295-0.139-0.578-0.238-0.845-0.298c-0.268-0.059-0.512-0.088-0.731-0.088c-0.323,0-0.6,0.058-0.83,0.175
				c-0.229,0.116-0.418,0.279-0.566,0.49s-0.256,0.461-0.326,0.751c-0.069,0.291-0.104,0.61-0.104,0.958
				c0,0.369,0.036,0.698,0.107,0.989c0.071,0.29,0.182,0.537,0.331,0.738c0.15,0.202,0.341,0.355,0.574,0.462
				c0.233,0.106,0.51,0.159,0.83,0.159c0.115,0,0.239-0.011,0.374-0.034c0.134-0.022,0.27-0.052,0.407-0.088
				c0.138-0.037,0.273-0.08,0.407-0.131s0.258-0.102,0.373-0.154V20.921z"/>
			<path fill="#FFFFFF" d="M58.143,20.609c-0.184,0.459-0.376,0.861-0.577,1.208c-0.2,0.346-0.42,0.635-0.66,0.866
				c-0.24,0.231-0.507,0.405-0.801,0.522c-0.294,0.116-0.624,0.175-0.989,0.175c-0.087,0-0.182-0.005-0.284-0.014
				c-0.103-0.009-0.208-0.021-0.316-0.039v-1.08c0.042,0.007,0.089,0.015,0.144,0.023c0.054,0.009,0.11,0.016,0.169,0.021
				c0.059,0.006,0.119,0.01,0.18,0.014c0.061,0.003,0.117,0.005,0.169,0.005c0.146,0,0.282-0.028,0.407-0.083
				c0.125-0.057,0.241-0.134,0.347-0.232c0.106-0.1,0.203-0.218,0.29-0.355s0.164-0.288,0.229-0.451l-2.103-5.303h1.419l1.101,3.007
				l0.329,0.971l0.324-0.93l1.111-3.048h1.368L58.143,20.609z"/>
			<path fill="#FFFFFF" d="M60.403,15.885h1.143v4.254h0.945v-4.254h1.111v4.254h0.939v-4.254h1.143v5.303h-5.282V15.885z"/>
			<path fill="#FFFFFF" d="M70.011,21.188l-1.993-2.651v2.651h-1.253v-5.303h1.253v2.244l1.878-2.244h1.572l-2.15,2.417l2.327,2.886
				H70.011z"/>
			<path fill="#FFFFFF" d="M75.909,21.188l-0.031-0.694c-0.111,0.118-0.228,0.228-0.35,0.326c-0.122,0.1-0.256,0.186-0.401,0.259
				c-0.146,0.073-0.306,0.129-0.479,0.169c-0.172,0.04-0.36,0.061-0.566,0.061c-0.271,0-0.51-0.04-0.715-0.12
				s-0.377-0.191-0.516-0.334c-0.14-0.143-0.245-0.314-0.316-0.517s-0.107-0.425-0.107-0.668c0-0.251,0.054-0.482,0.16-0.694
				c0.105-0.212,0.268-0.395,0.484-0.548c0.218-0.153,0.489-0.273,0.814-0.36c0.326-0.087,0.707-0.13,1.146-0.13h0.693v-0.319
				c0-0.135-0.02-0.258-0.057-0.367c-0.039-0.11-0.101-0.203-0.186-0.279c-0.086-0.077-0.196-0.136-0.332-0.178
				c-0.135-0.042-0.303-0.063-0.501-0.063c-0.313,0-0.622,0.036-0.927,0.107c-0.304,0.071-0.599,0.171-0.885,0.3v-1.018
				c0.255-0.102,0.548-0.185,0.88-0.251c0.333-0.065,0.678-0.099,1.036-0.099c0.393,0,0.73,0.037,1.013,0.112
				c0.282,0.074,0.515,0.187,0.696,0.336c0.184,0.149,0.318,0.337,0.404,0.562C76.957,17.005,77,17.267,77,17.566v3.622H75.909z
				 M75.726,18.844h-0.777c-0.216,0-0.398,0.021-0.549,0.063c-0.148,0.041-0.271,0.099-0.365,0.172
				c-0.094,0.073-0.162,0.157-0.205,0.253c-0.044,0.096-0.066,0.197-0.066,0.306c0,0.216,0.07,0.38,0.209,0.493
				c0.14,0.113,0.329,0.169,0.569,0.169c0.177,0,0.362-0.063,0.554-0.192s0.401-0.313,0.631-0.554V18.844z"/>
		</g>
	</g>
</g>
</svg>
