<?xml version="1.0" encoding="utf-8"?>
<!-- Generator: Adobe Illustrator 15.1.0, SVG Export Plug-In . SVG Version: 6.00 Build 0)  -->
<!DOCTYPE svg PUBLIC "-//W3C//DTD SVG 1.1//EN" "http://www.w3.org/Graphics/SVG/1.1/DTD/svg11.dtd">
<svg version="1.1" xmlns="http://www.w3.org/2000/svg" xmlns:xlink="http://www.w3.org/1999/xlink" x="0px" y="0px" width="73px"
	 height="57.333px" viewBox="0 0 73 57.333" enable-background="new 0 0 73 57.333" xml:space="preserve">
<g id="Layer_1">
</g>
<g id="Layer_5">
	<g id="Layer_4">
	</g>
</g>
<g id="Isolation_Mode">
	<g>
		
			<polygon fill-rule="evenodd" clip-rule="evenodd" fill="#E6E7E8" stroke="#433F7F" stroke-width="1.4" stroke-miterlimit="10" points="
			8.92,1.316 71.321,1.316 63.557,40.104 1.582,40.104 		"/>
		<rect x="1.381" y="42.44" fill-rule="evenodd" clip-rule="evenodd" fill="#E6E7E8" width="61.916" height="13.57"/>
		<g>
			<path d="M23.588,51.783c-0.547,0.227-1.119,0.339-1.718,0.339c-0.964,0-1.704-0.288-2.221-0.864s-0.774-1.427-0.774-2.555
				c0-0.546,0.071-1.041,0.214-1.482c0.143-0.441,0.346-0.816,0.61-1.125s0.585-0.545,0.96-0.712c0.376-0.167,0.797-0.25,1.264-0.25
				c0.316,0,0.61,0.027,0.882,0.081c0.271,0.054,0.532,0.136,0.783,0.248v0.914c-0.247-0.136-0.503-0.239-0.768-0.311
				s-0.554-0.107-0.866-0.107c-0.32,0-0.61,0.06-0.869,0.18c-0.259,0.12-0.479,0.294-0.66,0.521
				c-0.181,0.228-0.32,0.506-0.418,0.835c-0.097,0.329-0.146,0.704-0.146,1.125c0,0.884,0.179,1.55,0.537,1.999
				c0.358,0.449,0.884,0.673,1.576,0.673c0.292,0,0.572-0.034,0.841-0.102c0.268-0.068,0.525-0.163,0.772-0.284V51.783z"/>
			<path d="M28.473,52.039l-0.021-0.705c-0.285,0.282-0.575,0.485-0.869,0.611c-0.294,0.125-0.603,0.188-0.927,0.188
				c-0.299,0-0.555-0.038-0.767-0.115c-0.213-0.076-0.388-0.182-0.524-0.315c-0.138-0.134-0.238-0.292-0.303-0.473
				c-0.064-0.181-0.097-0.377-0.097-0.59c0-0.525,0.195-0.937,0.587-1.234c0.392-0.298,0.97-0.446,1.735-0.446h1.086V48.5
				c0-0.31-0.1-0.558-0.298-0.744s-0.501-0.279-0.908-0.279c-0.296,0-0.587,0.033-0.874,0.099c-0.287,0.066-0.584,0.16-0.89,0.282
				v-0.819c0.114-0.042,0.242-0.083,0.384-0.123c0.141-0.04,0.289-0.076,0.445-0.107c0.157-0.031,0.32-0.057,0.491-0.076
				c0.17-0.019,0.343-0.029,0.517-0.029c0.316,0,0.602,0.035,0.855,0.104c0.254,0.07,0.469,0.176,0.645,0.318
				s0.311,0.322,0.405,0.538c0.094,0.216,0.141,0.47,0.141,0.762v3.612H28.473z M28.374,49.653h-1.153
				c-0.227,0-0.422,0.023-0.585,0.068c-0.164,0.045-0.298,0.11-0.402,0.193c-0.104,0.083-0.182,0.184-0.231,0.3
				c-0.051,0.117-0.076,0.248-0.076,0.394c0,0.101,0.016,0.198,0.047,0.29c0.031,0.092,0.082,0.174,0.151,0.245
				s0.16,0.128,0.271,0.169c0.111,0.042,0.247,0.063,0.407,0.063c0.209,0,0.448-0.063,0.718-0.191
				c0.27-0.127,0.554-0.328,0.854-0.603V49.653z"/>
			<path d="M35.707,52.039h-1.206l-1.414-1.999l-1.398,1.999h-1.175l2.03-2.63l-1.937-2.609h1.164l1.378,2.014l1.352-2.014h1.122
				l-1.968,2.63L35.707,52.039z"/>
			<path d="M40.227,52.039l-0.021-0.705c-0.285,0.282-0.575,0.485-0.869,0.611c-0.294,0.125-0.603,0.188-0.927,0.188
				c-0.299,0-0.555-0.038-0.767-0.115c-0.213-0.076-0.388-0.182-0.524-0.315c-0.138-0.134-0.238-0.292-0.303-0.473
				c-0.064-0.181-0.097-0.377-0.097-0.59c0-0.525,0.195-0.937,0.587-1.234c0.392-0.298,0.97-0.446,1.735-0.446h1.086V48.5
				c0-0.31-0.1-0.558-0.298-0.744s-0.501-0.279-0.908-0.279c-0.296,0-0.587,0.033-0.874,0.099c-0.287,0.066-0.584,0.16-0.89,0.282
				v-0.819c0.114-0.042,0.242-0.083,0.384-0.123c0.141-0.04,0.289-0.076,0.445-0.107c0.157-0.031,0.32-0.057,0.491-0.076
				c0.17-0.019,0.343-0.029,0.517-0.029c0.316,0,0.602,0.035,0.855,0.104c0.254,0.07,0.469,0.176,0.645,0.318
				s0.311,0.322,0.405,0.538c0.094,0.216,0.141,0.47,0.141,0.762v3.612H40.227z M40.128,49.653h-1.153
				c-0.227,0-0.422,0.023-0.585,0.068c-0.164,0.045-0.298,0.11-0.402,0.193c-0.104,0.083-0.182,0.184-0.231,0.3
				c-0.051,0.117-0.076,0.248-0.076,0.394c0,0.101,0.016,0.198,0.047,0.29c0.031,0.092,0.082,0.174,0.151,0.245
				s0.16,0.128,0.271,0.169c0.111,0.042,0.247,0.063,0.407,0.063c0.209,0,0.448-0.063,0.718-0.191
				c0.27-0.127,0.554-0.328,0.854-0.603V49.653z"/>
			<path d="M47.215,49.325c0,0.466-0.064,0.874-0.195,1.221c-0.131,0.348-0.311,0.637-0.54,0.866
				c-0.229,0.23-0.501,0.402-0.814,0.517c-0.313,0.115-0.652,0.172-1.018,0.172c-0.167,0-0.333-0.009-0.498-0.026
				c-0.166-0.018-0.333-0.047-0.504-0.089v2.192h-0.908v-7.379h0.809l0.058,0.876c0.261-0.358,0.539-0.609,0.835-0.754
				s0.616-0.217,0.961-0.217c0.299,0,0.562,0.063,0.788,0.188c0.226,0.125,0.415,0.302,0.568,0.53s0.269,0.503,0.345,0.825
				S47.215,48.928,47.215,49.325z M46.286,49.366c0-0.274-0.02-0.527-0.06-0.756c-0.04-0.23-0.104-0.426-0.19-0.59
				s-0.198-0.292-0.334-0.384s-0.298-0.138-0.485-0.138c-0.115,0-0.231,0.018-0.35,0.055c-0.119,0.037-0.241,0.098-0.368,0.183
				c-0.127,0.085-0.261,0.198-0.402,0.339c-0.141,0.141-0.291,0.316-0.451,0.524v2.542c0.167,0.069,0.343,0.124,0.527,0.164
				s0.365,0.06,0.543,0.06c0.49,0,0.875-0.166,1.153-0.499C46.147,50.535,46.286,50.035,46.286,49.366z"/>
		</g>
		<g>
			<g>
				<polygon fill-rule="evenodd" clip-rule="evenodd" fill="#C6D4DB" points="31.852,21.633 21.97,21.633 15.136,23.743 
					31.852,23.743 				"/>
				<rect x="15.136" y="23.743" fill-rule="evenodd" clip-rule="evenodd" fill="#DDE9EF" width="11.515" height="11.292"/>
				<polygon fill-rule="evenodd" clip-rule="evenodd" fill="#8C99A1" points="31.852,32.11 26.65,35.035 26.65,23.743 
					31.852,21.633 				"/>
			</g>
			<g>
				<polygon fill-rule="evenodd" clip-rule="evenodd" fill="#C6D4DB" points="38.882,23.743 29.001,23.743 22.166,25.852 
					38.882,25.852 				"/>
				<rect x="22.166" y="25.852" fill-rule="evenodd" clip-rule="evenodd" fill="#F1F2F2" width="11.517" height="11.294"/>
				<polygon fill-rule="evenodd" clip-rule="evenodd" fill="#8C99A1" points="38.882,34.218 33.683,37.146 33.683,25.852 
					38.882,23.743 				"/>
			</g>
			<g>
				<polygon fill-rule="evenodd" clip-rule="evenodd" fill="#C6D4DB" points="54.125,21.633 44.244,21.633 37.408,23.743 
					54.125,23.743 				"/>
				<rect x="37.408" y="23.743" fill-rule="evenodd" clip-rule="evenodd" fill="#DDE9EF" width="11.517" height="11.292"/>
				<polygon fill-rule="evenodd" clip-rule="evenodd" fill="#8C99A1" points="54.125,32.11 48.925,35.035 48.925,23.743 
					54.125,21.633 				"/>
			</g>
			<g>
				<polygon fill-rule="evenodd" clip-rule="evenodd" fill="#C6D4DB" points="46.35,11.393 36.469,11.393 29.633,13.504 
					46.35,13.504 				"/>
				<rect x="29.633" y="13.504" fill-rule="evenodd" clip-rule="evenodd" fill="#F1F2F2" width="11.516" height="11.292"/>
				<polygon fill-rule="evenodd" clip-rule="evenodd" fill="#8C99A1" points="46.35,21.87 41.148,24.797 41.148,13.504 
					46.35,11.393 				"/>
			</g>
		</g>
	</g>
</g>
</svg>
