<?xml version="1.0" encoding="utf-8"?>
<!-- Generator: Adobe Illustrator 15.1.0, SVG Export Plug-In . SVG Version: 6.00 Build 0)  -->
<!DOCTYPE svg PUBLIC "-//W3C//DTD SVG 1.1//EN" "http://www.w3.org/Graphics/SVG/1.1/DTD/svg11.dtd">
<svg version="1.1" xmlns="http://www.w3.org/2000/svg" xmlns:xlink="http://www.w3.org/1999/xlink" x="0px" y="0px" width="74.5px"
	 height="93.75px" viewBox="0 0 74.5 93.75" enable-background="new 0 0 74.5 93.75" xml:space="preserve">
<g id="Layer_1">
</g>
<g id="Layer_5">
	<g>
		
			<polygon fill-rule="evenodd" clip-rule="evenodd" fill="#D1D3D4" stroke="#D1D3D4" stroke-width="3" stroke-miterlimit="10" points="
			9.939,23.301 72.34,23.301 64.576,62.088 2.601,62.088 		"/>
		<rect x="2.401" y="64.426" fill-rule="evenodd" clip-rule="evenodd" fill="#E6E7E8" width="61.915" height="29.07"/>
		<g>
			<path d="M13.692,75.294c-0.546,0.227-1.119,0.339-1.717,0.339c-0.964,0-1.704-0.287-2.221-0.863
				c-0.517-0.576-0.775-1.428-0.775-2.555c0-0.547,0.071-1.041,0.214-1.482c0.143-0.441,0.346-0.816,0.61-1.125
				c0.265-0.308,0.584-0.545,0.96-0.712c0.375-0.167,0.797-0.251,1.263-0.251c0.317,0,0.611,0.027,0.882,0.082
				c0.271,0.053,0.532,0.136,0.783,0.247v0.913c-0.247-0.135-0.503-0.238-0.767-0.311c-0.265-0.07-0.553-0.106-0.866-0.106
				c-0.32,0-0.61,0.06-0.869,0.181c-0.259,0.119-0.479,0.293-0.66,0.521c-0.181,0.228-0.32,0.506-0.417,0.835
				c-0.098,0.329-0.146,0.704-0.146,1.124c0,0.885,0.179,1.551,0.538,2c0.358,0.448,0.884,0.673,1.576,0.673
				c0.292,0,0.572-0.034,0.84-0.103c0.268-0.067,0.525-0.162,0.772-0.283V75.294z"/>
			<path d="M16.558,71.093v4.457h-0.918v-5.239h3.794v0.782H16.558z"/>
			<path d="M25.748,70.311l-1.785,4.686c-0.185,0.477-0.375,0.888-0.572,1.232c-0.196,0.344-0.412,0.627-0.645,0.848
				s-0.489,0.384-0.767,0.488s-0.59,0.156-0.934,0.156c-0.091,0-0.172-0.002-0.246-0.005c-0.073-0.003-0.153-0.009-0.24-0.016
				v-0.825c0.076,0.011,0.16,0.021,0.25,0.029c0.09,0.008,0.186,0.013,0.287,0.013c0.167,0,0.322-0.024,0.467-0.073
				s0.281-0.127,0.41-0.237c0.129-0.109,0.252-0.251,0.371-0.425s0.233-0.385,0.345-0.632l-2.093-5.239h1.034l1.326,3.465
				l0.266,0.814l0.303-0.836l1.227-3.443H25.748z"/>
			<path d="M26.525,75.55v-5.239h0.835v4.493h1.216v-4.493h0.835v4.493h1.216v-4.493h0.835v4.493h0.449l-0.052,2.082h-0.804V75.55
				H26.525z"/>
			<path d="M37.266,72.653c0,0.129-0.002,0.236-0.005,0.323c-0.003,0.088-0.008,0.169-0.016,0.246h-3.679
				c0,0.535,0.149,0.947,0.449,1.234s0.731,0.43,1.294,0.43c0.153,0,0.306-0.006,0.459-0.018c0.153-0.013,0.301-0.029,0.444-0.05
				s0.279-0.044,0.41-0.071c0.13-0.025,0.251-0.055,0.363-0.086v0.746c-0.247,0.07-0.526,0.127-0.838,0.17
				c-0.311,0.044-0.634,0.065-0.968,0.065c-0.449,0-0.835-0.061-1.159-0.183c-0.324-0.121-0.589-0.299-0.796-0.529
				c-0.207-0.231-0.36-0.516-0.459-0.852c-0.099-0.335-0.148-0.715-0.148-1.14c0-0.369,0.053-0.718,0.159-1.046
				c0.106-0.33,0.261-0.618,0.464-0.867c0.204-0.248,0.453-0.446,0.749-0.592c0.295-0.146,0.631-0.22,1.007-0.22
				c0.365,0,0.688,0.058,0.971,0.173c0.282,0.114,0.519,0.277,0.712,0.487c0.193,0.211,0.339,0.466,0.438,0.768
				C37.217,71.944,37.266,72.281,37.266,72.653z M36.321,72.523c0.011-0.234-0.012-0.447-0.067-0.641
				c-0.056-0.192-0.142-0.358-0.259-0.498c-0.116-0.139-0.262-0.248-0.436-0.326s-0.376-0.117-0.605-0.117
				c-0.198,0-0.379,0.038-0.543,0.115c-0.164,0.076-0.304,0.184-0.422,0.323c-0.119,0.14-0.214,0.306-0.287,0.501
				c-0.073,0.195-0.119,0.408-0.136,0.643H36.321z"/>
			<path d="M42.929,75.55h-0.908v-2.317h-2.396v2.317h-0.908v-5.239h0.908v2.129h2.396v-2.129h0.908V75.55z"/>
			<path d="M45.084,72.335c0.125-0.003,0.243-0.007,0.352-0.008c0.11-0.002,0.224-0.003,0.342-0.003
				c0.327,0,0.613,0.039,0.859,0.117c0.245,0.078,0.45,0.188,0.613,0.329c0.164,0.142,0.285,0.31,0.365,0.507
				c0.08,0.196,0.12,0.409,0.12,0.639c0,0.279-0.047,0.523-0.141,0.733c-0.094,0.21-0.228,0.388-0.402,0.53s-0.387,0.25-0.639,0.323
				c-0.252,0.073-0.553,0.109-0.9,0.109c-0.223,0-0.458-0.006-0.707-0.019c-0.249-0.012-0.502-0.037-0.76-0.075v-5.208h0.898V72.335
				z M46.796,73.942c0-0.274-0.086-0.487-0.258-0.64c-0.172-0.15-0.446-0.227-0.822-0.227c-0.101,0-0.204,0.002-0.308,0.005
				c-0.104,0.003-0.212,0.009-0.324,0.016v1.723c0.111,0.017,0.217,0.028,0.318,0.034c0.101,0.005,0.202,0.008,0.303,0.008
				c0.212,0,0.388-0.025,0.527-0.076s0.25-0.117,0.332-0.201c0.082-0.083,0.141-0.181,0.178-0.292
				C46.777,74.181,46.796,74.064,46.796,73.942z M48.309,75.55v-5.239h0.898v5.239H48.309z"/>
			<path d="M51.451,70.311V74l2.286-3.689h0.867v5.239h-0.908v-3.69l-2.286,3.69h-0.866v-5.239H51.451z M54.175,68.29
				c0,0.206-0.039,0.388-0.117,0.548c-0.079,0.16-0.188,0.297-0.329,0.41c-0.141,0.113-0.311,0.199-0.509,0.258
				c-0.198,0.06-0.417,0.089-0.658,0.089c-0.278,0-0.517-0.029-0.715-0.089c-0.198-0.059-0.361-0.145-0.488-0.258
				c-0.127-0.113-0.22-0.25-0.279-0.41c-0.06-0.16-0.089-0.342-0.089-0.548h0.825c0,0.101,0.012,0.194,0.037,0.282
				c0.024,0.087,0.065,0.164,0.123,0.232c0.057,0.067,0.135,0.121,0.232,0.158c0.098,0.039,0.219,0.059,0.366,0.059
				c0.149,0,0.274-0.02,0.373-0.059c0.099-0.037,0.178-0.091,0.237-0.158c0.059-0.068,0.101-0.146,0.125-0.232
				c0.024-0.088,0.037-0.182,0.037-0.282H54.175z"/>
			<path d="M28.097,88.184c-0.236,0.09-0.479,0.156-0.728,0.2c-0.249,0.044-0.505,0.065-0.77,0.065
				c-0.828,0-1.466-0.225-1.913-0.674c-0.447-0.448-0.67-1.104-0.67-1.967c0-0.414,0.064-0.79,0.193-1.128
				c0.129-0.337,0.31-0.626,0.543-0.866c0.233-0.24,0.511-0.426,0.835-0.556s0.68-0.196,1.07-0.196c0.271,0,0.525,0.02,0.762,0.059
				c0.236,0.037,0.462,0.1,0.678,0.188v0.866c-0.226-0.118-0.457-0.204-0.691-0.259c-0.235-0.054-0.478-0.08-0.728-0.08
				c-0.233,0-0.453,0.044-0.66,0.133c-0.207,0.088-0.389,0.217-0.545,0.383c-0.157,0.168-0.28,0.371-0.371,0.611
				s-0.136,0.512-0.136,0.814c0,0.633,0.154,1.107,0.462,1.422s0.735,0.473,1.281,0.473c0.247,0,0.486-0.028,0.718-0.084
				s0.455-0.139,0.67-0.25V88.184z"/>
			<path d="M34.464,85.715c0,0.406-0.058,0.779-0.172,1.119c-0.115,0.339-0.28,0.629-0.496,0.871s-0.479,0.43-0.788,0.564
				c-0.31,0.133-0.661,0.2-1.054,0.2c-0.376,0-0.712-0.058-1.01-0.175c-0.298-0.116-0.55-0.287-0.757-0.514s-0.365-0.506-0.475-0.84
				c-0.109-0.334-0.165-0.719-0.165-1.154c0-0.406,0.058-0.778,0.172-1.114c0.115-0.335,0.28-0.624,0.496-0.866
				c0.216-0.242,0.479-0.43,0.788-0.563c0.31-0.134,0.661-0.201,1.055-0.201c0.375,0,0.712,0.059,1.01,0.175
				c0.297,0.117,0.55,0.287,0.757,0.512s0.365,0.504,0.475,0.838C34.409,84.9,34.464,85.283,34.464,85.715z M33.535,85.756
				c0-0.323-0.036-0.605-0.107-0.848s-0.173-0.443-0.305-0.605s-0.293-0.283-0.483-0.365c-0.189-0.082-0.401-0.123-0.634-0.123
				c-0.271,0-0.504,0.053-0.697,0.159c-0.193,0.106-0.352,0.248-0.475,0.425c-0.124,0.178-0.214,0.385-0.271,0.619
				c-0.057,0.234-0.086,0.48-0.086,0.738c0,0.324,0.036,0.607,0.107,0.852c0.071,0.242,0.173,0.445,0.305,0.607
				s0.292,0.283,0.48,0.365c0.188,0.082,0.4,0.123,0.637,0.123c0.271,0,0.503-0.053,0.697-0.16c0.193-0.105,0.351-0.248,0.475-0.425
				s0.214-0.384,0.271-0.618C33.506,86.265,33.535,86.018,33.535,85.756z"/>
			<path d="M40.492,88.376h-1.248l-2.442-2.808v2.808h-0.908v-5.239h0.908v2.395l2.354-2.395h1.2l-2.458,2.416L40.492,88.376z"/>
		</g>
		<g>
			<rect x="24.687" y="0.661" fill="#FFFFFF" stroke="#C0C2C4" stroke-miterlimit="10" width="11.198" height="59.55"/>
			<rect x="24.941" y="21.848" fill="#86753C" width="10.688" height="38.047"/>
			<rect x="39.057" y="20.606" fill="#FFFFFF" stroke="#C0C2C4" stroke-miterlimit="10" width="11.198" height="39.604"/>
			<rect x="39.313" y="34.697" fill="#86753C" width="10.688" height="25.303"/>
			<circle fill="#99883B" cx="26.85" cy="21.131" r="1.909"/>
			<circle fill="#86753C" cx="27.025" cy="22.133" r="1.527"/>
			<circle fill="#86753C" cx="30.555" cy="21.131" r="2.72"/>
			<circle fill="#99883B" cx="33.713" cy="21.378" r="1.917"/>
			<ellipse fill="#99883B" cx="41.221" cy="34.306" rx="1.909" ry="1.573"/>
			<path fill="#86753C" d="M44.426,33.814c0.091,0.678-0.517,1.266-1.356,1.314c-0.841,0.047-1.595-0.464-1.687-1.143
				c-0.091-0.678,0.516-1.268,1.356-1.314C43.58,32.623,44.334,33.136,44.426,33.814z"/>
			<ellipse fill="#86753C" cx="45.425" cy="33.9" rx="2.222" ry="2.129"/>
			<ellipse fill="#99883B" cx="48.083" cy="34.306" rx="1.917" ry="1.354"/>
		</g>
		<rect x="27.835" y="27.455" width="7.794" height="0.764"/>
		<rect x="27.899" y="35.647" width="7.793" height="0.763"/>
		<rect x="27.868" y="42.871" width="7.793" height="0.764"/>
		<rect x="27.931" y="51.063" width="7.794" height="0.764"/>
		<rect x="27.66" y="11.65" width="7.793" height="0.764"/>
		<rect x="27.724" y="19.842" width="7.794" height="0.765"/>
		<rect x="42.111" y="32.127" width="7.793" height="0.764"/>
		<rect x="42.175" y="40.32" width="7.793" height="0.764"/>
		<rect x="42.143" y="47.543" width="7.793" height="0.764"/>
		<rect x="42.206" y="55.736" width="7.794" height="0.763"/>
		<rect x="42" y="24.516" width="7.794" height="0.764"/>
	</g>
	<g id="Layer_4">
	</g>
</g>
<g id="Isolation_Mode">
</g>
</svg>
