<?xml version="1.0" encoding="utf-8"?>
<!-- Generator: Adobe Illustrator 15.1.0, SVG Export Plug-In . SVG Version: 6.00 Build 0)  -->
<!DOCTYPE svg PUBLIC "-//W3C//DTD SVG 1.1//EN" "http://www.w3.org/Graphics/SVG/1.1/DTD/svg11.dtd">
<svg version="1.1" xmlns="http://www.w3.org/2000/svg" xmlns:xlink="http://www.w3.org/1999/xlink" x="0px" y="0px" width="74.75px"
	 height="75.25px" viewBox="0 0 74.75 75.25" enable-background="new 0 0 74.75 75.25" xml:space="preserve">
<g id="Layer_1">
	<g>
		
			<polygon fill-rule="evenodd" clip-rule="evenodd" fill="#D1D3D4" stroke="#D1D3D4" stroke-width="3" stroke-miterlimit="10" points="
			10.363,20.289 72.765,20.289 65,59.075 3.025,59.075 		"/>
		<g>
			<g>
				<path fill-rule="evenodd" clip-rule="evenodd" fill="#39B54A" d="M3.162,23.067c2.149,4.128,8.949,7.468,8.085,5.295
					c-0.865-2.173,2.452-5.527,0.303-9.656C9.4,14.577,6.327,14.77,3.464,13.412C0.603,12.051,1.012,18.938,3.162,23.067z"/>
				
					<ellipse transform="matrix(-0.8873 0.4612 -0.4612 -0.8873 18.8502 28.5018)" fill-rule="evenodd" clip-rule="evenodd" fill="#39B54A" cx="5.943" cy="16.554" rx="2.44" ry="2.504"/>
				
					<ellipse transform="matrix(-0.8872 0.4613 -0.4613 -0.8872 13.8317 32.8933)" fill-rule="evenodd" clip-rule="evenodd" fill="#39B54A" cx="2.896" cy="18.137" rx="2.44" ry="2.504"/>
				
					<ellipse transform="matrix(-0.8873 0.4612 -0.4612 -0.8873 16.9208 40.6378)" fill-rule="evenodd" clip-rule="evenodd" fill="#39B54A" cx="3.495" cy="22.386" rx="2.897" ry="2.795"/>
				
					<ellipse transform="matrix(-0.8873 0.4612 -0.4612 -0.8873 27.1876 33.4736)" fill-rule="evenodd" clip-rule="evenodd" fill="#39B54A" cx="9.504" cy="20.059" rx="2.897" ry="2.794"/>
				
					<ellipse transform="matrix(-0.8873 0.4611 -0.4611 -0.8873 25.9973 45.1676)" fill-rule="evenodd" clip-rule="evenodd" fill="#39B54A" cx="7.481" cy="25.76" rx="3.473" ry="3.35"/>
			</g>
			<g>
				<path fill-rule="evenodd" clip-rule="evenodd" fill="#39B54A" d="M24.51,21.869c-2.144,4.122-8.93,7.455-8.067,5.285
					c0.862-2.168-2.449-5.519-0.305-9.639c2.144-4.123,5.212-3.929,8.067-5.286C27.061,10.873,26.654,17.748,24.51,21.869z"/>
				
					<ellipse transform="matrix(0.8872 0.4615 -0.4615 0.8872 9.5437 -8.2951)" fill-rule="evenodd" clip-rule="evenodd" fill="#39B54A" cx="21.733" cy="15.367" rx="2.436" ry="2.499"/>
				
					<ellipse transform="matrix(0.8872 0.4614 -0.4614 0.8872 10.6158 -9.5196)" fill-rule="evenodd" clip-rule="evenodd" fill="#39B54A" cx="24.775" cy="16.949" rx="2.436" ry="2.498"/>
				
					<ellipse transform="matrix(0.8872 0.4614 -0.4614 0.8872 12.5046 -8.7651)" fill-rule="evenodd" clip-rule="evenodd" fill="#39B54A" cx="24.177" cy="21.19" rx="2.892" ry="2.789"/>
				
					<ellipse transform="matrix(0.8872 0.4614 -0.4614 0.8872 10.754 -6.2602)" fill-rule="evenodd" clip-rule="evenodd" fill="#39B54A" cx="18.18" cy="18.864" rx="2.892" ry="2.79"/>
				
					<ellipse transform="matrix(0.8872 0.4614 -0.4614 0.8872 13.6077 -6.5498)" fill-rule="evenodd" clip-rule="evenodd" fill="#39B54A" cx="20.2" cy="24.557" rx="3.467" ry="3.343"/>
			</g>
			<g>
				<path fill-rule="evenodd" clip-rule="evenodd" fill="#009444" d="M19.893,14.057c-0.837,6.714-7.312,14.844-7.176,11.451
					c0.135-3.393-4.981-6.149-4.144-12.863c0.838-6.715,4.433-8.093,7.176-11.451C18.493-2.165,20.73,7.344,19.893,14.057z"/>
				
					<ellipse transform="matrix(0.9923 0.1239 -0.1239 0.9923 0.9457 -1.7007)" fill-rule="evenodd" clip-rule="evenodd" fill="#009444" cx="14.148" cy="6.754" rx="2.944" ry="3.64"/>
				
					<ellipse transform="matrix(0.9923 0.1239 -0.1239 0.9923 1.0411 -2.2066)" fill-rule="evenodd" clip-rule="evenodd" fill="#009444" cx="18.261" cy="7.267" rx="2.944" ry="3.639"/>
				
					<ellipse transform="matrix(0.9923 0.1238 -0.1238 0.9923 1.7962 -2.2792)" fill-rule="evenodd" clip-rule="evenodd" fill="#009444" cx="19.244" cy="13.318" rx="3.496" ry="4.063"/>
				
					<ellipse transform="matrix(0.9923 0.1237 -0.1237 0.9923 1.7424 -1.3131)" fill-rule="evenodd" clip-rule="evenodd" fill="#009444" cx="11.448" cy="13.379" rx="3.496" ry="4.063"/>
				
					<ellipse transform="matrix(0.9923 0.1238 -0.1238 0.9923 2.5989 -1.8283)" fill-rule="evenodd" clip-rule="evenodd" fill="#009444" cx="16.006" cy="19.991" rx="4.191" ry="4.869"/>
			</g>
			<path fill-rule="evenodd" clip-rule="evenodd" fill="#FFFFFF" stroke="#A66A2D" stroke-miterlimit="10" d="M14.346,28.8
				c12.226-1.23,10.842,4.537,10.766,9.535c-0.077,4.998-8.15,6.921-8.536,8.689c-0.384,1.767,2.845,9.533,2.152,9.304
				c-0.691-0.232-3.614-9.228-7.688-9.228c-4.076,0-8.15-8.535-8.228-10.535C2.736,34.568,2.121,30.03,14.346,28.8z"/>
			<path fill-rule="evenodd" clip-rule="evenodd" fill="#A0683D" d="M9.041,34.952c0,0.255-0.183,0.461-0.408,0.461H6.451
				c-0.226,0-0.409-0.207-0.409-0.461l0,0c0-0.255,0.183-0.462,0.409-0.462h2.182C8.858,34.49,9.041,34.697,9.041,34.952
				L9.041,34.952z"/>
			<path fill-rule="evenodd" clip-rule="evenodd" fill="#A0683D" d="M19.883,33.106c0,0.255-0.277,0.462-0.619,0.462h-3.298
				c-0.342,0-0.62-0.207-0.62-0.462l0,0c0-0.256,0.277-0.461,0.62-0.461h3.298C19.606,32.645,19.883,32.851,19.883,33.106
				L19.883,33.106z"/>
			<path fill-rule="evenodd" clip-rule="evenodd" fill="#A0683D" d="M10.963,40.103c0,0.256-0.169,0.462-0.378,0.462H8.572
				c-0.208,0-0.377-0.206-0.377-0.462l0,0c0-0.254,0.169-0.46,0.377-0.46h2.013C10.794,39.643,10.963,39.849,10.963,40.103
				L10.963,40.103z"/>
			<path fill-rule="evenodd" clip-rule="evenodd" fill="#A0683D" d="M21.267,38.258c0,0.256-0.206,0.461-0.461,0.461h-2.46
				c-0.255,0-0.461-0.206-0.461-0.461l0,0c0-0.255,0.207-0.461,0.461-0.461h2.46C21.061,37.797,21.267,38.003,21.267,38.258
				L21.267,38.258z"/>
			<path fill-rule="evenodd" clip-rule="evenodd" fill="#A0683D" d="M15.682,36.951c0,0.254-0.207,0.462-0.462,0.462h-2.46
				c-0.254,0-0.461-0.208-0.461-0.462l0,0c0-0.255,0.207-0.462,0.461-0.462h2.46C15.475,36.489,15.682,36.696,15.682,36.951
				L15.682,36.951z"/>
			<path fill-rule="evenodd" clip-rule="evenodd" fill="#A0683D" d="M16.5,42.75c0,0.174-0.174,0.315-0.389,0.315h-2.069
				c-0.215,0-0.388-0.141-0.388-0.315l0,0c0-0.175,0.173-0.316,0.388-0.316h2.069C16.326,42.434,16.5,42.575,16.5,42.75L16.5,42.75z
				"/>
			<path fill-rule="evenodd" clip-rule="evenodd" fill="#A0683D" d="M12.386,28.839c0,0,0.91-6.725,0.384-7.689
				s-1.384-2.538-1.384-2.538l1.769,1.769c0,0-0.539-2.614-0.884-4.229c-0.347-1.615,0-4.69,0-4.69l0.884,6.229
				c0,0,2.024-4.075,1.627-4.614c-0.397-0.538,0-3.384,0-3.384l0.373,2.615l0.718-1.199l2.28-3.798c0,0-1.281,2.36-1.307,3.075
				c-0.026,0.713,1.307-1,1.307-1l-1.614,2.077l-1.077,2.845L18.768,11c0,0-4.066,4.688-4.216,5.785
				c-0.149,1.098-0.656,1.764-0.355,2.55c0.414,1.084,2.88-2.338,2.88-2.338s-1.127,2.308-2.294,3.614
				c-1.166,1.308-1.474,8.229-1.474,8.229"/>
			<polygon fill-rule="evenodd" clip-rule="evenodd" fill="#A0683D" points="17.191,26.218 20.985,22.271 21.6,19.811 21.6,21.657 
				21.872,21.229 23.395,18.837 22.418,21.247 24.112,20.324 22.061,21.861 20.011,23.912 22.471,23.912 19.805,24.475 
				17.499,26.424 			"/>
			<path fill-rule="evenodd" clip-rule="evenodd" fill="#A0683D" d="M5.043,15.831l2.307,4.767l-0.359-2.871
				c0,0,0.564,1.384,0.871,2.051c0.308,0.666,0,2.409,0,2.409l2.666,6.1l-3.127-5.486L4.53,22.059c0,0,2.153,0.23,2.564,0
				c0.409-0.231-3.487-2.793-3.487-2.793l2.974,1.127L5.043,15.831z"/>
		</g>
		<g>
			<g>
				<path fill-rule="evenodd" clip-rule="evenodd" fill="#39B54A" d="M31.77,29.373c1.746,3.354,7.269,6.066,6.566,4.3
					c-0.702-1.765,1.991-4.488,0.246-7.842c-1.745-3.354-4.242-3.198-6.565-4.302C29.691,20.426,30.024,26.019,31.77,29.373z"/>
				
					<ellipse transform="matrix(-0.8873 0.4611 -0.4611 -0.8873 75.3282 29.7611)" fill-rule="evenodd" clip-rule="evenodd" fill="#39B54A" cx="34.029" cy="24.083" rx="1.981" ry="2.034"/>
				
					<ellipse transform="matrix(-0.8873 0.4611 -0.4611 -0.8873 71.2512 33.3311)" fill-rule="evenodd" clip-rule="evenodd" fill="#39B54A" cx="31.554" cy="25.369" rx="1.982" ry="2.032"/>
				
					<ellipse transform="matrix(-0.8873 0.4611 -0.4611 -0.8873 73.7603 39.618)" fill-rule="evenodd" clip-rule="evenodd" fill="#39B54A" cx="32.041" cy="28.819" rx="2.353" ry="2.27"/>
				
					<ellipse transform="matrix(-0.8873 0.4611 -0.4611 -0.8873 82.0978 33.8008)" fill-rule="evenodd" clip-rule="evenodd" fill="#39B54A" cx="36.92" cy="26.929" rx="2.353" ry="2.27"/>
				
					<ellipse transform="matrix(-0.8873 0.4612 -0.4612 -0.8873 81.135 43.2903)" fill-rule="evenodd" clip-rule="evenodd" fill="#39B54A" cx="35.278" cy="31.559" rx="2.82" ry="2.721"/>
			</g>
			<g>
				<path fill-rule="evenodd" clip-rule="evenodd" fill="#39B54A" d="M49.108,28.399c-1.741,3.348-7.253,6.057-6.552,4.292
					c0.7-1.761-1.988-4.481-0.248-7.829c1.741-3.348,4.233-3.192,6.552-4.293C51.181,19.469,50.849,25.052,49.108,28.399z"/>
				
					<ellipse transform="matrix(0.8872 0.4615 -0.4615 0.8872 15.9559 -19.0125)" fill-rule="evenodd" clip-rule="evenodd" fill="#39B54A" cx="46.853" cy="23.119" rx="1.978" ry="2.03"/>
				
					<ellipse transform="matrix(0.8872 0.4614 -0.4614 0.8872 16.8225 -20.0038)" fill-rule="evenodd" clip-rule="evenodd" fill="#39B54A" cx="49.323" cy="24.403" rx="1.978" ry="2.029"/>
				
					<ellipse transform="matrix(0.8872 0.4614 -0.4614 0.8872 18.3592 -19.3927)" fill-rule="evenodd" clip-rule="evenodd" fill="#39B54A" cx="48.838" cy="27.848" rx="2.349" ry="2.265"/>
				
					<ellipse transform="matrix(0.8871 0.4616 -0.4616 0.8871 16.9487 -17.3651)" fill-rule="evenodd" clip-rule="evenodd" fill="#39B54A" cx="43.968" cy="25.96" rx="2.349" ry="2.265"/>
				
					<ellipse transform="matrix(0.8872 0.4614 -0.4614 0.8872 19.2544 -17.593)" fill-rule="evenodd" clip-rule="evenodd" fill="#39B54A" cx="45.608" cy="30.582" rx="2.815" ry="2.716"/>
			</g>
			<g>
				<path fill-rule="evenodd" clip-rule="evenodd" fill="#009444" d="M45.358,22.056c-0.68,5.452-5.938,12.055-5.828,9.3
					c0.109-2.755-4.046-4.994-3.365-10.447c0.68-5.453,3.6-6.572,5.828-9.3C44.222,8.88,46.039,16.603,45.358,22.056z"/>
				
					<ellipse transform="matrix(0.9923 0.1241 -0.1241 0.9923 2.3149 -4.9243)" fill-rule="evenodd" clip-rule="evenodd" fill="#009444" cx="40.693" cy="16.123" rx="2.391" ry="2.957"/>
				
					<ellipse transform="matrix(0.9923 0.1236 -0.1236 0.9923 2.3829 -5.3175)" fill-rule="evenodd" clip-rule="evenodd" fill="#009444" cx="44.032" cy="16.54" rx="2.391" ry="2.957"/>
				
					<ellipse transform="matrix(0.9923 0.1236 -0.1236 0.9923 2.9944 -5.3749)" fill-rule="evenodd" clip-rule="evenodd" fill="#009444" cx="44.831" cy="21.454" rx="2.839" ry="3.3"/>
				
					<ellipse transform="matrix(0.9923 0.1237 -0.1237 0.9923 2.957 -4.5991)" fill-rule="evenodd" clip-rule="evenodd" fill="#009444" cx="38.5" cy="21.504" rx="2.839" ry="3.299"/>
				
					<ellipse transform="matrix(0.9923 0.1238 -0.1238 0.9923 3.6515 -5.0176)" fill-rule="evenodd" clip-rule="evenodd" fill="#009444" cx="42.201" cy="26.874" rx="3.404" ry="3.956"/>
			</g>
			<path fill-rule="evenodd" clip-rule="evenodd" fill="#FFFFFF" stroke="#A66A2D" stroke-miterlimit="10" d="M40.854,34.029
				c9.929-1,8.806,3.685,8.743,7.743c-0.063,4.062-6.62,5.622-6.933,7.059c-0.312,1.436,2.312,7.743,1.749,7.555
				c-0.561-0.186-2.935-7.493-6.245-7.493s-6.62-6.932-6.683-8.555C31.424,38.712,30.924,35.028,40.854,34.029z"/>
			<path fill-rule="evenodd" clip-rule="evenodd" fill="#A0683D" d="M36.544,39.025c0,0.207-0.149,0.375-0.332,0.375h-1.771
				c-0.184,0-0.333-0.168-0.333-0.375l0,0c0-0.208,0.149-0.375,0.333-0.375h1.771C36.396,38.65,36.544,38.817,36.544,39.025
				L36.544,39.025z"/>
			<path fill-rule="evenodd" clip-rule="evenodd" fill="#A0683D" d="M45.35,37.525c0,0.207-0.225,0.375-0.502,0.375h-2.679
				c-0.278,0-0.503-0.168-0.503-0.375l0,0c0-0.206,0.225-0.374,0.503-0.374h2.679C45.125,37.151,45.35,37.319,45.35,37.525
				L45.35,37.525z"/>
			<path fill-rule="evenodd" clip-rule="evenodd" fill="#A0683D" d="M38.106,43.208c0,0.208-0.137,0.375-0.306,0.375h-1.636
				c-0.169,0-0.307-0.167-0.307-0.375l0,0c0-0.206,0.137-0.374,0.307-0.374H37.8C37.969,42.834,38.106,43.002,38.106,43.208
				L38.106,43.208z"/>
			<path fill-rule="evenodd" clip-rule="evenodd" fill="#A0683D" d="M46.474,41.71c0,0.208-0.167,0.375-0.375,0.375h-1.998
				c-0.207,0-0.375-0.167-0.375-0.375l0,0c0-0.207,0.167-0.374,0.375-0.374h1.998C46.307,41.337,46.474,41.504,46.474,41.71
				L46.474,41.71z"/>
			<path fill-rule="evenodd" clip-rule="evenodd" fill="#A0683D" d="M41.938,40.65c0,0.206-0.168,0.373-0.375,0.373h-1.999
				c-0.207,0-0.375-0.167-0.375-0.373l0,0c0-0.208,0.168-0.376,0.375-0.376h1.999C41.77,40.274,41.938,40.442,41.938,40.65
				L41.938,40.65z"/>
			<path fill-rule="evenodd" clip-rule="evenodd" fill="#A0683D" d="M42.603,45.358c0,0.143-0.141,0.256-0.315,0.256h-1.681
				c-0.173,0-0.315-0.114-0.315-0.256l0,0c0-0.141,0.142-0.256,0.315-0.256h1.681C42.461,45.102,42.603,45.217,42.603,45.358
				L42.603,45.358z"/>
			<path fill-rule="evenodd" clip-rule="evenodd" fill="#A0683D" d="M39.261,33.917c0,0,0.739-5.463,0.312-6.245
				c-0.427-0.784-1.124-2.062-1.124-2.062l1.437,1.437c0,0-0.438-2.124-0.718-3.435c-0.282-1.312,0-3.809,0-3.809l0.718,5.058
				c0,0,1.644-3.309,1.321-3.747c-0.323-0.437,0-2.747,0-2.747l0.302,2.123l0.583-0.974l1.852-3.086c0,0-1.041,1.918-1.062,2.499
				c-0.021,0.579,1.062-0.812,1.062-0.812l-1.311,1.687l-0.875,2.31l2.686-2.685c0,0-3.303,3.808-3.424,4.698
				c-0.121,0.893-0.533,1.432-0.289,2.071c0.336,0.88,2.338-1.899,2.338-1.899s-0.915,1.875-1.863,2.936
				c-0.947,1.062-1.196,6.683-1.196,6.683"/>
			<polygon fill-rule="evenodd" clip-rule="evenodd" fill="#A0683D" points="43.164,31.932 46.245,28.727 46.744,26.728 
				46.744,28.227 46.966,27.879 48.202,25.937 47.409,27.894 48.785,27.144 47.119,28.394 45.455,30.059 47.453,30.059 
				45.288,30.517 43.414,32.098 			"/>
			<path fill-rule="evenodd" clip-rule="evenodd" fill="#A0683D" d="M33.297,23.495l1.874,3.872l-0.292-2.331
				c0,0,0.458,1.125,0.708,1.666c0.25,0.54,0,1.956,0,1.956l2.165,4.955l-2.54-4.455l-2.331-0.603c0,0,1.748,0.187,2.082,0
				c0.332-0.188-2.832-2.27-2.832-2.27l2.416,0.915L33.297,23.495z"/>
		</g>
		<g>
			<g>
				<path fill-rule="evenodd" clip-rule="evenodd" fill="#39B54A" d="M58.884,40.472c1.138,2.186,4.738,3.954,4.28,2.803
					c-0.458-1.15,1.299-2.925,0.16-5.111c-1.137-2.187-2.764-2.084-4.279-2.803C57.529,34.64,57.748,38.285,58.884,40.472z"/>
				
					<ellipse transform="matrix(-0.8874 0.4609 -0.4609 -0.8874 130.9864 42.0612)" fill-rule="evenodd" clip-rule="evenodd" fill="#39B54A" cx="60.357" cy="37.024" rx="1.291" ry="1.324"/>
				
					<ellipse transform="matrix(-0.8872 0.4614 -0.4614 -0.8872 128.3308 44.3508)" fill-rule="evenodd" clip-rule="evenodd" fill="#39B54A" cx="58.744" cy="37.862" rx="1.292" ry="1.326"/>
				
					<ellipse transform="matrix(-0.8872 0.4613 -0.4613 -0.8872 129.9658 48.4548)" fill-rule="evenodd" clip-rule="evenodd" fill="#39B54A" cx="59.061" cy="40.111" rx="1.533" ry="1.48"/>
				
					<ellipse transform="matrix(-0.8872 0.4614 -0.4614 -0.8872 135.4001 44.652)" fill-rule="evenodd" clip-rule="evenodd" fill="#39B54A" cx="62.241" cy="38.879" rx="1.533" ry="1.479"/>
				
					<ellipse transform="matrix(-0.8874 0.461 -0.461 -0.8874 134.7683 50.8793)" fill-rule="evenodd" clip-rule="evenodd" fill="#39B54A" cx="61.171" cy="41.897" rx="1.838" ry="1.773"/>
			</g>
			<g>
				<path fill-rule="evenodd" clip-rule="evenodd" fill="#39B54A" d="M70.186,39.838c-1.135,2.181-4.728,3.945-4.271,2.797
					c0.457-1.149-1.296-2.921-0.16-5.104c1.134-2.182,2.759-2.08,4.27-2.797C71.537,34.017,71.32,37.655,70.186,39.838z"/>
				
					<ellipse transform="matrix(0.8871 0.4615 -0.4615 0.8871 24.5553 -27.6075)" fill-rule="evenodd" clip-rule="evenodd" fill="#39B54A" cx="68.716" cy="36.395" rx="1.289" ry="1.323"/>
				
					<ellipse transform="matrix(0.8874 0.4611 -0.4611 0.8874 25.0897 -28.2323)" fill-rule="evenodd" clip-rule="evenodd" fill="#39B54A" cx="70.326" cy="37.233" rx="1.29" ry="1.322"/>
				
					<ellipse transform="matrix(0.8872 0.4613 -0.4613 0.8872 26.1069 -27.8451)" fill-rule="evenodd" clip-rule="evenodd" fill="#39B54A" cx="70.01" cy="39.479" rx="1.531" ry="1.477"/>
				
					<ellipse transform="matrix(0.887 0.4617 -0.4617 0.887 25.2087 -26.5371)" fill-rule="evenodd" clip-rule="evenodd" fill="#39B54A" cx="66.835" cy="38.247" rx="1.531" ry="1.476"/>
				
					<ellipse transform="matrix(0.8872 0.4614 -0.4614 0.8872 26.699 -26.6778)" fill-rule="evenodd" clip-rule="evenodd" fill="#39B54A" cx="67.905" cy="41.26" rx="1.835" ry="1.771"/>
			</g>
			<g>
				<path fill-rule="evenodd" clip-rule="evenodd" fill="#009444" d="M67.742,35.703c-0.443,3.554-3.87,7.857-3.799,6.061
					c0.071-1.795-2.637-3.254-2.193-6.809c0.444-3.554,2.346-4.284,3.799-6.062C67,27.116,68.185,32.148,67.742,35.703z"/>
				
					<ellipse transform="matrix(0.9923 0.1241 -0.1241 0.9923 4.4499 -7.7817)" fill-rule="evenodd" clip-rule="evenodd" fill="#009444" cx="64.701" cy="31.835" rx="1.558" ry="1.927"/>
				
					<ellipse transform="matrix(0.9923 0.1238 -0.1238 0.9923 4.488 -8.0303)" fill-rule="evenodd" clip-rule="evenodd" fill="#009444" cx="66.878" cy="32.108" rx="1.558" ry="1.927"/>
				
					<ellipse transform="matrix(0.9923 0.1237 -0.1237 0.9923 4.8875 -8.0687)" fill-rule="evenodd" clip-rule="evenodd" fill="#009444" cx="67.398" cy="35.311" rx="1.851" ry="2.15"/>
				
					<ellipse transform="matrix(0.9923 0.1235 -0.1235 0.9923 4.8499 -7.5444)" fill-rule="evenodd" clip-rule="evenodd" fill="#009444" cx="63.272" cy="35.343" rx="1.85" ry="2.15"/>
				
					<ellipse transform="matrix(0.9923 0.1237 -0.1237 0.9923 5.3086 -7.8257)" fill-rule="evenodd" clip-rule="evenodd" fill="#009444" cx="65.684" cy="38.844" rx="2.219" ry="2.578"/>
			</g>
			<path fill-rule="evenodd" clip-rule="evenodd" fill="#FFFFFF" stroke="#A66A2D" stroke-miterlimit="10" d="M64.805,43.506
				c6.472-0.651,5.739,2.402,5.699,5.047c-0.041,2.646-4.315,3.664-4.519,4.599c-0.203,0.937,1.506,5.048,1.141,4.926
				c-0.367-0.123-1.914-4.885-4.071-4.885s-4.314-4.518-4.355-5.578C58.659,46.56,58.333,44.158,64.805,43.506z"/>
			<path fill-rule="evenodd" clip-rule="evenodd" fill="#A0683D" d="M61.998,46.763c0,0.136-0.098,0.245-0.217,0.245h-1.155
				c-0.12,0-0.216-0.109-0.216-0.245l0,0c0-0.135,0.096-0.243,0.216-0.243h1.155C61.9,46.52,61.998,46.627,61.998,46.763
				L61.998,46.763z"/>
			<path fill-rule="evenodd" clip-rule="evenodd" fill="#A0683D" d="M67.737,45.786c0,0.134-0.146,0.244-0.329,0.244h-1.745
				c-0.182,0-0.329-0.11-0.329-0.244l0,0c0-0.134,0.147-0.245,0.329-0.245h1.745C67.59,45.542,67.737,45.652,67.737,45.786
				L67.737,45.786z"/>
			<path fill-rule="evenodd" clip-rule="evenodd" fill="#A0683D" d="M63.015,49.491c0,0.134-0.09,0.244-0.2,0.244H61.75
				c-0.111,0-0.2-0.109-0.2-0.244l0,0c0-0.136,0.089-0.245,0.2-0.245h1.065C62.925,49.246,63.015,49.355,63.015,49.491
				L63.015,49.491z"/>
			<path fill-rule="evenodd" clip-rule="evenodd" fill="#A0683D" d="M68.47,48.513c0,0.135-0.11,0.244-0.246,0.244h-1.302
				c-0.135,0-0.245-0.109-0.245-0.244l0,0c0-0.135,0.11-0.244,0.245-0.244h1.302C68.36,48.27,68.47,48.378,68.47,48.513
				L68.47,48.513z"/>
			<path fill-rule="evenodd" clip-rule="evenodd" fill="#A0683D" d="M65.512,47.822c0,0.134-0.11,0.243-0.244,0.243h-1.303
				c-0.136,0-0.244-0.109-0.244-0.243l0,0c0-0.136,0.108-0.245,0.244-0.245h1.303C65.402,47.577,65.512,47.686,65.512,47.822
				L65.512,47.822z"/>
			<path fill-rule="evenodd" clip-rule="evenodd" fill="#A0683D" d="M65.946,50.891c0,0.093-0.093,0.167-0.206,0.167h-1.095
				c-0.113,0-0.205-0.074-0.205-0.167l0,0c0-0.091,0.092-0.167,0.205-0.167h1.095C65.853,50.724,65.946,50.799,65.946,50.891
				L65.946,50.891z"/>
			<path fill-rule="evenodd" clip-rule="evenodd" fill="#A0683D" d="M63.768,43.931c0,0,0.482-3.56,0.203-4.07
				c-0.278-0.511-0.733-1.344-0.733-1.344l0.937,0.937c0,0-0.285-1.384-0.467-2.238c-0.184-0.855,0-2.483,0-2.483l0.467,3.297
				c0,0,1.072-2.157,0.862-2.443c-0.211-0.285,0-1.791,0-1.791l0.197,1.383l0.379-0.634l1.207-2.011c0,0-0.677,1.25-0.69,1.629
				c-0.016,0.377,0.69-0.53,0.69-0.53l-0.854,1.099l-0.571,1.506l1.751-1.751c0,0-2.152,2.481-2.232,3.063
				c-0.079,0.581-0.347,0.933-0.188,1.35c0.22,0.574,1.524-1.238,1.524-1.238s-0.597,1.222-1.214,1.913
				c-0.617,0.692-0.781,4.355-0.781,4.355"/>
			<polygon fill-rule="evenodd" clip-rule="evenodd" fill="#A0683D" points="66.312,42.14 68.32,40.05 68.646,38.748 68.646,39.725 
				68.79,39.499 69.594,38.232 69.079,39.507 69.975,39.02 68.889,39.834 67.804,40.918 69.107,40.918 67.695,41.218 66.474,42.248 
							"/>
			<path fill-rule="evenodd" clip-rule="evenodd" fill="#A0683D" d="M59.88,36.642l1.222,2.523l-0.19-1.52
				c0,0,0.299,0.733,0.461,1.085c0.163,0.353,0,1.275,0,1.275l1.412,3.229l-1.656-2.904l-1.521-0.394c0,0,1.141,0.123,1.357,0
				c0.218-0.122-1.846-1.479-1.846-1.479l1.575,0.597L59.88,36.642z"/>
		</g>
		<rect x="2.825" y="61.413" fill-rule="evenodd" clip-rule="evenodd" fill="#E6E7E8" width="61.916" height="13.568"/>
		<g>
			<path d="M25.125,72.281c-0.546,0.227-1.119,0.339-1.717,0.339c-0.964,0-1.704-0.288-2.221-0.864
				c-0.517-0.576-0.775-1.427-0.775-2.555c0-0.546,0.071-1.041,0.214-1.482c0.143-0.441,0.346-0.816,0.61-1.125
				c0.265-0.308,0.584-0.545,0.96-0.712c0.375-0.167,0.797-0.25,1.263-0.25c0.317,0,0.611,0.027,0.882,0.081
				c0.271,0.054,0.532,0.136,0.783,0.248v0.914c-0.247-0.136-0.503-0.239-0.767-0.311c-0.265-0.071-0.553-0.107-0.866-0.107
				c-0.32,0-0.61,0.06-0.869,0.18c-0.259,0.12-0.479,0.294-0.66,0.521c-0.181,0.228-0.32,0.506-0.417,0.835
				c-0.098,0.329-0.146,0.704-0.146,1.125c0,0.884,0.179,1.55,0.538,1.999c0.358,0.449,0.884,0.673,1.576,0.673
				c0.292,0,0.572-0.034,0.84-0.102s0.525-0.163,0.772-0.284V72.281z"/>
			<path d="M31.143,71.007c0,0.24-0.051,0.459-0.151,0.658c-0.101,0.198-0.258,0.368-0.47,0.509
				c-0.212,0.141-0.481,0.25-0.807,0.329c-0.325,0.078-0.712,0.117-1.161,0.117c-0.296,0-0.61-0.011-0.944-0.034
				c-0.334-0.023-0.656-0.053-0.966-0.092v-5.172c0.327-0.038,0.659-0.068,0.994-0.089c0.336-0.021,0.699-0.031,1.088-0.031
				c0.706,0,1.243,0.116,1.61,0.347s0.551,0.564,0.551,1c0,0.296-0.085,0.55-0.256,0.762c-0.17,0.212-0.428,0.369-0.772,0.47
				c0.167,0.028,0.328,0.074,0.483,0.139s0.292,0.148,0.41,0.25s0.213,0.224,0.285,0.363C31.107,70.672,31.143,70.83,31.143,71.007z
				 M29.958,68.732c0-0.122-0.024-0.231-0.073-0.329c-0.049-0.098-0.126-0.181-0.232-0.25c-0.106-0.07-0.245-0.123-0.417-0.159
				c-0.172-0.037-0.38-0.055-0.624-0.055c-0.219,0-0.411,0.004-0.574,0.013s-0.325,0.023-0.485,0.044v1.514h1.054
				C29.507,69.51,29.958,69.25,29.958,68.732z M30.182,71.028c0-0.271-0.123-0.476-0.368-0.613
				c-0.245-0.137-0.627-0.206-1.146-0.206h-1.117v1.602c0.17,0.028,0.339,0.047,0.506,0.058c0.167,0.01,0.358,0.016,0.574,0.016
				c0.31,0,0.564-0.021,0.764-0.063c0.2-0.042,0.358-0.101,0.475-0.178c0.117-0.076,0.197-0.167,0.243-0.271
				C30.16,71.269,30.182,71.154,30.182,71.028z"/>
			<path d="M36.946,69.64c0,0.129-0.002,0.236-0.005,0.324c-0.003,0.087-0.008,0.168-0.016,0.245h-3.679
				c0,0.536,0.149,0.947,0.449,1.234s0.731,0.431,1.294,0.431c0.153,0,0.306-0.006,0.459-0.019c0.153-0.012,0.301-0.029,0.444-0.049
				c0.143-0.021,0.279-0.044,0.41-0.071c0.13-0.026,0.251-0.055,0.363-0.086v0.746c-0.247,0.07-0.526,0.126-0.838,0.17
				c-0.311,0.043-0.634,0.065-0.968,0.065c-0.449,0-0.835-0.061-1.159-0.183c-0.324-0.122-0.589-0.298-0.796-0.53
				c-0.207-0.231-0.36-0.515-0.459-0.851c-0.099-0.335-0.148-0.716-0.148-1.14c0-0.369,0.053-0.718,0.159-1.046
				c0.106-0.329,0.261-0.618,0.464-0.867c0.204-0.249,0.453-0.446,0.749-0.592c0.295-0.146,0.631-0.219,1.007-0.219
				c0.365,0,0.688,0.058,0.971,0.172c0.282,0.115,0.519,0.277,0.712,0.488c0.193,0.211,0.339,0.466,0.438,0.768
				C36.896,68.931,36.946,69.268,36.946,69.64z M36.001,69.51c0.011-0.233-0.012-0.446-0.067-0.64
				c-0.056-0.193-0.142-0.359-0.259-0.499c-0.116-0.139-0.262-0.248-0.436-0.326c-0.174-0.078-0.376-0.117-0.605-0.117
				c-0.198,0-0.379,0.038-0.543,0.115s-0.304,0.185-0.422,0.324c-0.119,0.139-0.214,0.306-0.287,0.501
				c-0.073,0.195-0.119,0.409-0.136,0.642H36.001z"/>
			<path d="M43.109,72.537h-1.248l-2.442-2.808v2.808h-0.908v-5.24h0.908v2.396l2.354-2.396h1.2l-2.458,2.416L43.109,72.537z"/>
			<path d="M48.438,72.537H47.53V68.08h-1.461c-0.042,0.717-0.104,1.331-0.185,1.842c-0.082,0.511-0.18,0.938-0.295,1.281
				s-0.246,0.612-0.392,0.809c-0.146,0.196-0.304,0.339-0.472,0.428c-0.169,0.089-0.347,0.132-0.535,0.13
				c-0.188-0.001-0.381-0.027-0.579-0.076l0.042-0.751c0.139,0.014,0.27,0.007,0.392-0.021c0.122-0.028,0.235-0.095,0.339-0.201
				c0.104-0.106,0.199-0.259,0.284-0.459c0.085-0.2,0.163-0.467,0.232-0.801c0.069-0.334,0.129-0.744,0.18-1.229
				c0.05-0.485,0.091-1.064,0.123-1.735h3.236V72.537z"/>
			<path d="M53.516,72.537l-0.021-0.705c-0.285,0.282-0.575,0.485-0.869,0.611c-0.294,0.125-0.603,0.188-0.926,0.188
				c-0.299,0-0.555-0.038-0.768-0.115c-0.212-0.076-0.387-0.182-0.524-0.315c-0.137-0.134-0.238-0.292-0.303-0.473
				c-0.064-0.181-0.096-0.377-0.096-0.59c0-0.525,0.195-0.937,0.587-1.234c0.392-0.298,0.97-0.446,1.736-0.446h1.085v-0.459
				c0-0.31-0.099-0.558-0.298-0.744c-0.198-0.186-0.501-0.279-0.907-0.279c-0.296,0-0.587,0.033-0.875,0.099
				c-0.287,0.066-0.584,0.16-0.89,0.282v-0.819c0.115-0.042,0.243-0.083,0.384-0.123s0.29-0.076,0.446-0.107s0.32-0.057,0.491-0.076
				c0.17-0.019,0.342-0.029,0.516-0.029c0.317,0,0.603,0.035,0.856,0.104c0.254,0.07,0.469,0.176,0.645,0.318
				s0.311,0.322,0.404,0.538s0.141,0.47,0.141,0.762v3.612H53.516z M53.417,70.151h-1.153c-0.227,0-0.421,0.023-0.584,0.068
				c-0.164,0.045-0.297,0.11-0.402,0.193s-0.182,0.184-0.232,0.3c-0.05,0.117-0.076,0.248-0.076,0.394
				c0,0.101,0.016,0.198,0.047,0.29c0.032,0.092,0.082,0.174,0.151,0.245c0.07,0.071,0.16,0.128,0.271,0.169
				c0.111,0.042,0.247,0.063,0.407,0.063c0.208,0,0.448-0.063,0.717-0.191c0.27-0.127,0.555-0.328,0.854-0.603V70.151z"/>
		</g>
	</g>
</g>
<g id="Layer_5">
	<g id="Layer_4">
	</g>
</g>
<g id="Isolation_Mode">
</g>
</svg>
