<?xml version="1.0" encoding="utf-8"?>
<!-- Generator: Adobe Illustrator 15.1.0, SVG Export Plug-In . SVG Version: 6.00 Build 0)  -->
<!DOCTYPE svg PUBLIC "-//W3C//DTD SVG 1.1//EN" "http://www.w3.org/Graphics/SVG/1.1/DTD/svg11.dtd">
<svg version="1.1" id="Layer_1" xmlns="http://www.w3.org/2000/svg" xmlns:xlink="http://www.w3.org/1999/xlink" x="0px" y="0px"
	 width="149.75px" height="49.25px" viewBox="0 0 149.75 49.25" enable-background="new 0 0 149.75 49.25" xml:space="preserve">
<g id="Layer_1_1_">
</g>
<g id="Layer_5">
	<g id="Layer_4">
	</g>
</g>
<g id="Isolation_Mode">
	<g>
		<g>
			<polygon fill="#9E1D20" points="130.098,49.139 15.018,49.303 15.018,47.104 37.895,28.979 18.599,10.723 129.475,7.986 
				149.744,27.544 			"/>
			<polygon fill="#EB2227" points="129.384,47.104 15.018,47.104 34.313,26.24 15.018,7.986 129.475,7.986 148.412,26.24 			"/>
		</g>
		<g>
			<polygon fill="#9E1D20" points="122.869,45.259 7.79,45.423 7.79,43.223 30.665,25.098 11.37,6.843 122.245,4.106 
				142.514,23.664 			"/>
			<polygon fill="#EB2227" points="122.156,43.223 7.79,43.223 27.084,22.36 7.79,4.106 122.245,4.106 141.184,22.36 			"/>
		</g>
		<g>
			<polygon fill="#9E1D20" points="115.129,41.453 0.05,41.618 0.05,39.418 22.925,21.292 3.63,3.037 114.504,0.3 134.773,19.859 
							"/>
			<polygon fill="#EB2227" points="114.416,39.418 0.05,39.418 19.344,18.555 0.05,0.3 114.504,0.3 133.443,18.555 			"/>
		</g>
		<rect x="22.94" y="9.084" fill="none" width="121.025" height="32.025"/>
		<g enable-background="new    ">
			<path fill="#FFFFFF" d="M26.969,16.459l-2.051-3.299v3.299h-1.305V9.638h1.305v3.105l2.041-3.105h1.55l-2.317,3.251l2.438,3.57
				H26.969z"/>
			<path fill="#FFFFFF" d="M34.312,13.714c0,0.487-0.069,0.908-0.206,1.263c-0.138,0.355-0.329,0.65-0.574,0.885
				c-0.245,0.235-0.535,0.409-0.869,0.522c-0.334,0.112-0.697,0.169-1.09,0.169c-0.132,0-0.265-0.009-0.397-0.026
				c-0.132-0.017-0.252-0.04-0.36-0.067v2.072h-1.273v-7.375h1.101l0.031,0.783c0.108-0.136,0.22-0.26,0.337-0.371
				c0.116-0.111,0.243-0.206,0.378-0.284c0.136-0.078,0.282-0.138,0.438-0.18c0.157-0.042,0.333-0.063,0.527-0.063
				c0.313,0,0.591,0.063,0.835,0.188s0.448,0.304,0.613,0.535c0.165,0.231,0.292,0.512,0.378,0.84
				C34.269,12.934,34.312,13.304,34.312,13.714z M32.976,13.766c0-0.292-0.021-0.541-0.063-0.746
				c-0.042-0.205-0.102-0.374-0.18-0.506c-0.079-0.133-0.174-0.229-0.287-0.29c-0.113-0.061-0.243-0.091-0.389-0.091
				c-0.216,0-0.422,0.087-0.619,0.261s-0.404,0.41-0.624,0.71v2.316c0.101,0.039,0.225,0.07,0.373,0.095s0.298,0.036,0.452,0.036
				c0.202,0,0.385-0.042,0.55-0.125c0.166-0.084,0.306-0.202,0.423-0.355c0.117-0.152,0.206-0.34,0.269-0.561
				C32.945,14.289,32.976,14.041,32.976,13.766z"/>
			<path fill="#FFFFFF" d="M38.66,16.459v-3.314h-0.01l-2.093,3.314h-1.206v-5.303h1.252v3.314h0.01l2.088-3.314h1.211v5.303H38.66z
				"/>
			<path fill="#FFFFFF" d="M45.585,16.256c-0.25,0.101-0.51,0.176-0.778,0.224c-0.268,0.049-0.548,0.073-0.84,0.073
				c-0.421,0-0.798-0.058-1.132-0.172c-0.334-0.115-0.618-0.285-0.851-0.512c-0.233-0.226-0.412-0.506-0.535-0.84
				s-0.185-0.721-0.185-1.159c0-0.424,0.067-0.809,0.201-1.153s0.323-0.639,0.566-0.882c0.243-0.243,0.537-0.432,0.879-0.563
				c0.343-0.133,0.725-0.198,1.146-0.198c0.344,0,0.634,0.018,0.869,0.055c0.235,0.036,0.446,0.082,0.634,0.138v1.237
				c-0.216-0.107-0.45-0.191-0.702-0.251c-0.252-0.059-0.492-0.088-0.718-0.088c-0.237,0-0.449,0.04-0.637,0.12
				s-0.346,0.191-0.475,0.334c-0.128,0.143-0.227,0.315-0.295,0.519c-0.068,0.204-0.102,0.428-0.102,0.671
				c0,0.254,0.037,0.482,0.109,0.684c0.073,0.202,0.177,0.373,0.311,0.515c0.134,0.141,0.295,0.248,0.483,0.323
				s0.396,0.112,0.626,0.112c0.111,0,0.229-0.008,0.352-0.023s0.247-0.038,0.371-0.068c0.124-0.029,0.245-0.063,0.365-0.102
				s0.232-0.08,0.337-0.125V16.256z"/>
			<path fill="#FFFFFF" d="M50.032,12.227v4.232h-1.294v-4.232H46.89v-1.07h4.989v1.07H50.032z"/>
			<path fill="#FFFFFF" d="M56.373,16.459l-0.031-0.694c-0.111,0.118-0.228,0.228-0.35,0.326c-0.122,0.1-0.256,0.186-0.402,0.259
				s-0.305,0.129-0.478,0.169s-0.361,0.061-0.566,0.061c-0.271,0-0.51-0.04-0.715-0.12c-0.206-0.08-0.377-0.191-0.517-0.334
				s-0.245-0.314-0.316-0.517s-0.107-0.425-0.107-0.668c0-0.251,0.053-0.482,0.159-0.694s0.268-0.395,0.485-0.548
				s0.489-0.273,0.814-0.36c0.325-0.087,0.707-0.13,1.146-0.13h0.694v-0.319c0-0.135-0.019-0.258-0.057-0.367
				c-0.039-0.11-0.1-0.203-0.186-0.279c-0.085-0.077-0.196-0.136-0.331-0.178c-0.136-0.042-0.303-0.063-0.501-0.063
				c-0.313,0-0.622,0.036-0.926,0.107c-0.304,0.071-0.599,0.171-0.885,0.3v-1.018c0.254-0.102,0.547-0.185,0.879-0.251
				c0.333-0.065,0.678-0.099,1.036-0.099c0.393,0,0.731,0.037,1.013,0.112c0.282,0.074,0.514,0.187,0.697,0.336
				s0.317,0.337,0.404,0.562s0.13,0.486,0.13,0.785v3.622H56.373z M56.19,14.115h-0.777c-0.216,0-0.398,0.021-0.548,0.063
				c-0.149,0.041-0.271,0.099-0.365,0.172c-0.094,0.073-0.163,0.157-0.206,0.253s-0.065,0.197-0.065,0.306
				c0,0.216,0.07,0.38,0.209,0.493s0.329,0.169,0.569,0.169c0.177,0,0.362-0.063,0.553-0.192s0.402-0.313,0.631-0.554V14.115z"/>
			<path fill="#FFFFFF" d="M58.33,15.337c0.143,0.004,0.275-0.005,0.397-0.026c0.122-0.021,0.232-0.077,0.331-0.169
				c0.099-0.093,0.188-0.23,0.266-0.413c0.079-0.183,0.148-0.43,0.209-0.741c0.061-0.311,0.114-0.697,0.159-1.158
				c0.045-0.461,0.082-1.019,0.109-1.673h3.591v5.303h-1.247v-4.232h-1.19c-0.032,0.664-0.083,1.235-0.154,1.712
				s-0.163,0.878-0.274,1.205s-0.242,0.587-0.392,0.778c-0.149,0.191-0.318,0.332-0.506,0.422c-0.188,0.091-0.394,0.138-0.619,0.142
				c-0.225,0.003-0.467-0.02-0.728-0.068L58.33,15.337z"/>
			<path fill="#FFFFFF" d="M64.207,15.337c0.143,0.004,0.275-0.005,0.397-0.026c0.122-0.021,0.232-0.077,0.331-0.169
				c0.099-0.093,0.188-0.23,0.266-0.413c0.079-0.183,0.148-0.43,0.209-0.741c0.061-0.311,0.114-0.697,0.159-1.158
				c0.045-0.461,0.082-1.019,0.109-1.673h3.591v5.303h-1.247v-4.232h-1.19c-0.032,0.664-0.083,1.235-0.154,1.712
				s-0.163,0.878-0.274,1.205s-0.242,0.587-0.392,0.778c-0.149,0.191-0.318,0.332-0.506,0.422c-0.188,0.091-0.394,0.138-0.619,0.142
				c-0.225,0.003-0.467-0.02-0.728-0.068L64.207,15.337z"/>
			<path fill="#FFFFFF" d="M73.919,16.459v-3.314h-0.01l-2.093,3.314h-1.206v-5.303h1.252v3.314h0.01l2.088-3.314h1.211v5.303
				H73.919z"/>
			<path fill="#FFFFFF" d="M76.383,15.353c0.293,0.084,0.625,0.147,1,0.193c0.373,0.045,0.713,0.067,1.02,0.067
				c0.311,0,0.542-0.019,0.697-0.058c0.154-0.038,0.283-0.091,0.386-0.159c0.103-0.067,0.181-0.147,0.232-0.239
				c0.052-0.093,0.078-0.192,0.078-0.301c0-0.107-0.024-0.203-0.073-0.287c-0.049-0.083-0.129-0.154-0.24-0.214
				c-0.111-0.059-0.259-0.104-0.443-0.136c-0.184-0.031-0.408-0.047-0.673-0.047h-1.404v-0.908h1.331
				c0.316,0,0.547-0.018,0.691-0.055c0.145-0.036,0.26-0.086,0.348-0.148c0.086-0.063,0.148-0.135,0.185-0.217
				s0.056-0.17,0.056-0.264c0-0.09-0.02-0.172-0.059-0.245c-0.037-0.073-0.102-0.135-0.192-0.186
				c-0.091-0.05-0.219-0.089-0.384-0.117c-0.165-0.027-0.381-0.042-0.645-0.042c-0.236,0-0.514,0.018-0.832,0.053
				c-0.318,0.034-0.631,0.092-0.938,0.172v-0.997c0.293-0.049,0.605-0.09,0.938-0.125s0.66-0.052,0.983-0.052
				c0.846,0,1.464,0.118,1.855,0.354s0.587,0.581,0.587,1.033c0,0.122-0.02,0.244-0.061,0.365c-0.039,0.122-0.102,0.237-0.185,0.345
				c-0.083,0.108-0.188,0.203-0.315,0.287c-0.127,0.083-0.276,0.149-0.447,0.198c0.171,0.024,0.334,0.069,0.488,0.136
				c0.155,0.066,0.291,0.152,0.407,0.259c0.116,0.105,0.209,0.231,0.276,0.375c0.068,0.145,0.102,0.306,0.102,0.483
				c0,0.56-0.234,0.983-0.704,1.271s-1.179,0.431-2.13,0.431c-0.299,0-0.612-0.016-0.941-0.047c-0.328-0.031-0.662-0.077-1-0.136
				L76.383,15.353z"/>
			<path fill="#FFFFFF" d="M85.756,16.459l-0.031-0.694c-0.111,0.118-0.229,0.228-0.35,0.326c-0.121,0.1-0.256,0.186-0.402,0.259
				c-0.146,0.073-0.305,0.129-0.477,0.169c-0.173,0.04-0.361,0.061-0.566,0.061c-0.271,0-0.51-0.04-0.715-0.12
				c-0.206-0.08-0.378-0.191-0.518-0.334c-0.139-0.143-0.244-0.314-0.315-0.517s-0.106-0.425-0.106-0.668
				c0-0.251,0.053-0.482,0.158-0.694c0.106-0.212,0.269-0.395,0.486-0.548c0.217-0.153,0.488-0.273,0.814-0.36
				c0.324-0.087,0.707-0.13,1.145-0.13h0.694v-0.319c0-0.135-0.019-0.258-0.058-0.367c-0.038-0.11-0.1-0.203-0.186-0.279
				c-0.084-0.077-0.195-0.136-0.33-0.178c-0.137-0.042-0.303-0.063-0.502-0.063c-0.313,0-0.621,0.036-0.926,0.107
				s-0.6,0.171-0.885,0.3v-1.018c0.254-0.102,0.547-0.185,0.879-0.251c0.332-0.065,0.678-0.099,1.036-0.099
				c0.394,0,0.731,0.037,1.013,0.112c0.281,0.074,0.514,0.187,0.697,0.336c0.182,0.149,0.316,0.337,0.404,0.562
				c0.086,0.225,0.13,0.486,0.13,0.785v3.622H85.756z M85.573,14.115h-0.777c-0.216,0-0.398,0.021-0.548,0.063
				c-0.15,0.041-0.271,0.099-0.365,0.172s-0.163,0.157-0.207,0.253c-0.043,0.096-0.064,0.197-0.064,0.306
				c0,0.216,0.069,0.38,0.209,0.493c0.139,0.113,0.328,0.169,0.568,0.169c0.178,0,0.361-0.063,0.553-0.192s0.402-0.313,0.632-0.554
				V14.115z"/>
			<path fill="#FFFFFF" d="M93.235,17.795h-1.175v-1.336h-3.867v-5.303h1.253v4.232h1.973v-4.232h1.253v4.232h0.631L93.235,17.795z"
				/>
			<path fill="#FFFFFF" d="M97.426,16.459v-3.314h-0.01l-2.094,3.314h-1.205v-5.303h1.252v3.314h0.011l2.088-3.314h1.211v5.303
				H97.426z"/>
			<path fill="#FFFFFF" d="M100.385,14.95c0.107-0.246,0.238-0.427,0.392-0.54c0.153-0.112,0.312-0.185,0.476-0.216
				c-0.175-0.028-0.334-0.079-0.479-0.154s-0.269-0.172-0.373-0.29c-0.104-0.118-0.186-0.254-0.242-0.407
				c-0.058-0.152-0.086-0.321-0.086-0.506c0-0.316,0.057-0.587,0.169-0.812c0.113-0.225,0.281-0.407,0.504-0.548
				s0.5-0.243,0.833-0.308c0.332-0.064,0.717-0.097,1.155-0.097c0.306,0,0.61,0.007,0.913,0.021s0.604,0.035,0.903,0.063v5.303
				h-1.247v-1.946h-0.502c-0.152,0-0.289,0.012-0.409,0.036s-0.229,0.063-0.329,0.115c-0.099,0.052-0.186,0.125-0.261,0.219
				s-0.132,0.198-0.169,0.313l-0.46,1.263h-1.43L100.385,14.95z M101.418,12.816c0,0.149,0.029,0.272,0.086,0.37
				c0.059,0.098,0.143,0.176,0.254,0.235c0.111,0.059,0.248,0.101,0.412,0.125s0.352,0.036,0.563,0.036h0.569v-1.539
				c-0.102-0.011-0.205-0.017-0.311-0.019c-0.106-0.002-0.221-0.003-0.342-0.003c-0.494,0-0.823,0.066-0.986,0.198
				C101.5,12.354,101.418,12.552,101.418,12.816z"/>
			<path fill="#FFFFFF" d="M115.056,16.459v-3.314h-0.011l-2.092,3.314h-1.206v-5.303H113v3.314h0.01l2.088-3.314h1.211v5.303
				H115.056z"/>
		</g>
		<g enable-background="new    ">
			<path fill="#FFFFFF" d="M28.592,30.62h-1.174v-1.336h-3.867v-5.303h1.252v4.232h1.973v-4.232h1.252v4.232h0.632L28.592,30.62z"/>
			<path fill="#FFFFFF" d="M34.161,26.226c0,0.087-0.002,0.2-0.008,0.34c-0.005,0.139-0.013,0.27-0.023,0.391h-3.486
				c0,0.233,0.036,0.438,0.107,0.616s0.172,0.326,0.303,0.446s0.287,0.211,0.47,0.274c0.183,0.063,0.385,0.094,0.608,0.094
				c0.258,0,0.533-0.021,0.827-0.061s0.6-0.104,0.916-0.195v1.013c-0.136,0.038-0.284,0.073-0.443,0.104
				c-0.16,0.031-0.324,0.059-0.491,0.083s-0.336,0.043-0.506,0.055c-0.17,0.013-0.336,0.019-0.496,0.019
				c-0.404,0-0.766-0.058-1.085-0.172c-0.32-0.115-0.592-0.285-0.814-0.51c-0.223-0.224-0.393-0.501-0.511-0.832
				c-0.119-0.33-0.178-0.713-0.178-1.148c0-0.431,0.059-0.823,0.178-1.177c0.118-0.353,0.285-0.655,0.501-0.908
				c0.215-0.252,0.478-0.446,0.785-0.584c0.308-0.138,0.652-0.206,1.031-0.206c0.376,0,0.708,0.058,0.997,0.175
				c0.289,0.116,0.53,0.279,0.726,0.487c0.195,0.209,0.342,0.458,0.443,0.747C34.11,25.564,34.161,25.882,34.161,26.226z
				 M32.866,26.043c0.003-0.209-0.022-0.391-0.078-0.545c-0.056-0.155-0.131-0.283-0.227-0.384s-0.207-0.176-0.334-0.225
				s-0.264-0.073-0.41-0.073c-0.32,0-0.583,0.107-0.788,0.321c-0.206,0.214-0.327,0.516-0.365,0.905H32.866z"/>
			<path fill="#FFFFFF" d="M38.67,29.284v-2.233h-2.062v2.233h-1.253v-5.303h1.253v1.988h2.062v-1.988h1.247v5.303H38.67z"/>
			<path fill="#FFFFFF" d="M44.155,25.052v4.232h-1.294v-4.232h-1.847v-1.07h4.989v1.07H44.155z"/>
			<path fill="#FFFFFF" d="M51.942,26.539c0,0.487-0.069,0.908-0.206,1.263c-0.138,0.355-0.329,0.65-0.574,0.885
				c-0.245,0.235-0.535,0.409-0.869,0.522c-0.334,0.112-0.697,0.169-1.09,0.169c-0.132,0-0.265-0.009-0.397-0.026
				c-0.132-0.017-0.252-0.04-0.36-0.067v2.072h-1.273v-7.375h1.101l0.031,0.783c0.108-0.136,0.22-0.26,0.337-0.371
				c0.116-0.111,0.243-0.206,0.378-0.284c0.136-0.078,0.282-0.138,0.438-0.18c0.157-0.042,0.333-0.063,0.527-0.063
				c0.313,0,0.591,0.063,0.835,0.188s0.448,0.304,0.613,0.535c0.165,0.231,0.292,0.512,0.378,0.84
				C51.898,25.759,51.942,26.129,51.942,26.539z M50.606,26.591c0-0.292-0.021-0.541-0.063-0.746
				c-0.042-0.205-0.102-0.374-0.18-0.506c-0.079-0.133-0.174-0.229-0.287-0.29c-0.113-0.061-0.243-0.091-0.389-0.091
				c-0.216,0-0.422,0.087-0.619,0.261s-0.404,0.41-0.624,0.71v2.316c0.101,0.039,0.225,0.07,0.373,0.095s0.298,0.036,0.452,0.036
				c0.202,0,0.385-0.042,0.55-0.125c0.166-0.084,0.306-0.202,0.423-0.355c0.117-0.152,0.206-0.34,0.269-0.561
				C50.575,27.114,50.606,26.866,50.606,26.591z"/>
			<path fill="#FFFFFF" d="M56.29,29.284V25.97h-0.01l-2.093,3.314h-1.206v-5.303h1.252v3.314h0.01l2.088-3.314h1.211v5.303H56.29z"
				/>
			<path fill="#FFFFFF" d="M60.527,21.91h1.221v1.988c0.766,0.059,1.323,0.307,1.673,0.743s0.524,1.09,0.524,1.96
				c0,0.365-0.043,0.708-0.13,1.028s-0.222,0.603-0.404,0.848c-0.183,0.245-0.412,0.446-0.687,0.604
				c-0.275,0.156-0.6,0.252-0.976,0.287v1.988h-1.221v-1.988c-0.79-0.07-1.354-0.327-1.691-0.772s-0.506-1.09-0.506-1.932
				c0-0.372,0.044-0.719,0.133-1.041c0.088-0.322,0.224-0.604,0.404-0.848c0.181-0.244,0.41-0.441,0.687-0.593
				c0.276-0.151,0.601-0.246,0.973-0.284V21.91z M60.527,24.999c-0.174,0.035-0.324,0.104-0.449,0.209
				c-0.125,0.104-0.224,0.23-0.295,0.379c-0.071,0.147-0.122,0.312-0.151,0.493c-0.03,0.181-0.044,0.365-0.044,0.553
				c0,0.505,0.071,0.888,0.214,1.148s0.385,0.423,0.726,0.485V24.999z M61.749,28.267c0.185-0.035,0.337-0.104,0.459-0.206
				c0.122-0.103,0.216-0.229,0.284-0.376s0.118-0.313,0.149-0.493s0.047-0.367,0.047-0.559c0-0.48-0.072-0.856-0.216-1.13
				c-0.145-0.273-0.386-0.441-0.723-0.504V28.267z"/>
			<path fill="#FFFFFF" d="M67.99,28.705c-0.184,0.459-0.376,0.861-0.577,1.208c-0.2,0.346-0.42,0.635-0.66,0.866
				c-0.24,0.231-0.507,0.405-0.801,0.522c-0.294,0.116-0.624,0.175-0.989,0.175c-0.087,0-0.182-0.005-0.284-0.014
				c-0.103-0.009-0.208-0.021-0.316-0.039v-1.08c0.042,0.007,0.089,0.015,0.144,0.023c0.054,0.009,0.11,0.016,0.169,0.021
				c0.059,0.006,0.119,0.01,0.18,0.014c0.061,0.003,0.117,0.005,0.169,0.005c0.146,0,0.282-0.028,0.407-0.083
				c0.125-0.057,0.241-0.134,0.347-0.232c0.106-0.1,0.203-0.218,0.29-0.355s0.164-0.288,0.229-0.451l-2.103-5.303h1.419l1.101,3.007
				l0.329,0.971l0.324-0.93l1.111-3.048h1.368L67.99,28.705z"/>
			<path fill="#FFFFFF" d="M75.136,25.072h-2.839v4.212h-1.273v-5.303h4.113V25.072z"/>
			<path fill="#FFFFFF" d="M79.796,29.284V25.97h-0.011l-2.092,3.314h-1.206v-5.303h1.253v3.314h0.01l2.088-3.314h1.211v5.303
				H79.796z"/>
			<path fill="#FFFFFF" d="M87.201,26.539c0,0.487-0.068,0.908-0.205,1.263c-0.139,0.355-0.329,0.65-0.574,0.885
				c-0.246,0.235-0.535,0.409-0.869,0.522c-0.334,0.112-0.697,0.169-1.091,0.169c-0.132,0-0.265-0.009-0.397-0.026
				c-0.132-0.017-0.252-0.04-0.359-0.067v2.072h-1.273v-7.375h1.102l0.031,0.783c0.107-0.136,0.22-0.26,0.336-0.371
				c0.117-0.111,0.243-0.206,0.379-0.284c0.135-0.078,0.281-0.138,0.438-0.18c0.157-0.042,0.333-0.063,0.527-0.063
				c0.313,0,0.592,0.063,0.836,0.188c0.243,0.125,0.447,0.304,0.613,0.535c0.164,0.231,0.291,0.512,0.378,0.84
				C87.158,25.759,87.201,26.129,87.201,26.539z M85.865,26.591c0-0.292-0.021-0.541-0.063-0.746
				c-0.041-0.205-0.102-0.374-0.18-0.506c-0.078-0.133-0.174-0.229-0.287-0.29s-0.242-0.091-0.389-0.091
				c-0.216,0-0.422,0.087-0.619,0.261c-0.196,0.174-0.404,0.41-0.623,0.71v2.316c0.101,0.039,0.225,0.07,0.373,0.095
				s0.299,0.036,0.451,0.036c0.202,0,0.386-0.042,0.551-0.125c0.166-0.084,0.307-0.202,0.423-0.355
				c0.116-0.152,0.206-0.34,0.269-0.561S85.865,26.866,85.865,26.591z"/>
			<path fill="#FFFFFF" d="M93.084,26.591c0,0.418-0.059,0.8-0.178,1.146c-0.118,0.347-0.289,0.644-0.512,0.891
				s-0.496,0.438-0.818,0.573c-0.324,0.136-0.693,0.204-1.107,0.204c-0.393,0-0.744-0.058-1.054-0.172
				c-0.31-0.115-0.573-0.286-0.788-0.515c-0.216-0.228-0.381-0.513-0.496-0.855s-0.172-0.742-0.172-1.198
				c0-0.421,0.06-0.804,0.18-1.148c0.12-0.344,0.293-0.638,0.518-0.882c0.224-0.243,0.498-0.432,0.821-0.566
				c0.323-0.134,0.688-0.2,1.097-0.2c0.396,0,0.749,0.058,1.059,0.175c0.31,0.116,0.572,0.289,0.788,0.519
				c0.216,0.23,0.38,0.515,0.493,0.854C93.027,25.754,93.084,26.146,93.084,26.591z M91.758,26.622c0-0.549-0.104-0.963-0.311-1.239
				s-0.512-0.415-0.916-0.415c-0.223,0-0.412,0.044-0.568,0.131s-0.285,0.206-0.387,0.357c-0.101,0.151-0.174,0.328-0.221,0.529
				c-0.047,0.202-0.071,0.418-0.071,0.647c0,0.554,0.111,0.97,0.335,1.25c0.222,0.28,0.526,0.42,0.912,0.42
				c0.213,0,0.396-0.042,0.554-0.128c0.157-0.085,0.284-0.203,0.381-0.354c0.098-0.151,0.171-0.33,0.22-0.535
				S91.758,26.859,91.758,26.622z"/>
			<path fill="#FFFFFF" d="M96.205,29.378c-0.355,0-0.706-0.013-1.053-0.039c-0.346-0.026-0.692-0.065-1.041-0.117v-5.188
				c0.734-0.098,1.469-0.146,2.203-0.146c0.801,0,1.389,0.11,1.764,0.331c0.376,0.222,0.564,0.546,0.564,0.974
				c0,0.14-0.021,0.274-0.061,0.404c-0.04,0.131-0.102,0.251-0.186,0.36s-0.188,0.211-0.313,0.303s-0.275,0.166-0.449,0.222
				c0.174,0.021,0.338,0.063,0.49,0.125c0.153,0.063,0.288,0.145,0.404,0.246c0.117,0.101,0.209,0.224,0.277,0.367
				c0.067,0.145,0.102,0.306,0.102,0.483c0,0.57-0.23,0.992-0.691,1.266C97.756,29.241,97.085,29.378,96.205,29.378z M97.326,25.428
				c0-0.195-0.084-0.342-0.255-0.441s-0.425-0.148-0.763-0.148c-0.212,0-0.388,0.002-0.527,0.008
				c-0.139,0.005-0.277,0.017-0.417,0.033v1.232h0.903c0.223,0,0.396-0.017,0.521-0.05s0.227-0.078,0.306-0.136
				c0.078-0.058,0.136-0.129,0.175-0.214C97.308,25.627,97.326,25.531,97.326,25.428z M96.367,28.418
				c0.393,0,0.688-0.066,0.887-0.198c0.198-0.133,0.297-0.312,0.297-0.538c0-0.216-0.094-0.384-0.281-0.503
				c-0.188-0.12-0.49-0.181-0.908-0.181h-0.997v1.347c0.167,0.028,0.329,0.047,0.485,0.058S96.179,28.418,96.367,28.418z"/>
			<path fill="#FFFFFF" d="M103.386,29.284l-0.031-0.694c-0.111,0.118-0.228,0.228-0.35,0.326c-0.122,0.1-0.256,0.186-0.401,0.259
				c-0.146,0.073-0.306,0.129-0.479,0.169c-0.172,0.04-0.36,0.061-0.566,0.061c-0.271,0-0.51-0.04-0.715-0.12
				s-0.377-0.191-0.516-0.334c-0.14-0.143-0.245-0.314-0.316-0.517s-0.107-0.425-0.107-0.668c0-0.251,0.054-0.482,0.16-0.694
				c0.105-0.212,0.268-0.395,0.484-0.548c0.218-0.153,0.489-0.273,0.814-0.36c0.326-0.087,0.707-0.13,1.146-0.13h0.693v-0.319
				c0-0.135-0.02-0.258-0.057-0.367c-0.039-0.11-0.101-0.203-0.186-0.279c-0.086-0.077-0.196-0.136-0.332-0.178
				c-0.135-0.042-0.303-0.063-0.501-0.063c-0.313,0-0.622,0.036-0.927,0.107c-0.304,0.071-0.599,0.171-0.885,0.3v-1.018
				c0.255-0.102,0.548-0.185,0.88-0.251c0.333-0.065,0.678-0.099,1.036-0.099c0.393,0,0.73,0.037,1.013,0.112
				c0.282,0.074,0.515,0.187,0.696,0.336c0.184,0.149,0.318,0.337,0.404,0.562c0.088,0.225,0.131,0.486,0.131,0.785v3.622H103.386z
				 M103.203,26.94h-0.777c-0.216,0-0.398,0.021-0.549,0.063c-0.148,0.041-0.271,0.099-0.365,0.172
				c-0.094,0.073-0.162,0.157-0.205,0.253c-0.044,0.096-0.066,0.197-0.066,0.306c0,0.216,0.07,0.38,0.209,0.493
				c0.14,0.113,0.329,0.169,0.569,0.169c0.177,0,0.362-0.063,0.554-0.192s0.401-0.313,0.631-0.554V26.94z"/>
			<path fill="#FFFFFF" d="M109.189,29.284v-2.233h-2.061v2.233h-1.254v-5.303h1.254v1.988h2.061v-1.988h1.248v5.303H109.189z"/>
			<path fill="#FFFFFF" d="M115.056,29.284V25.97h-0.011l-2.092,3.314h-1.206v-5.303H113v3.314h0.01l2.088-3.314h1.211v5.303
				H115.056z"/>
			<path fill="#FFFFFF" d="M122.311,26.226c0,0.087-0.002,0.2-0.008,0.34c-0.006,0.139-0.014,0.27-0.023,0.391h-3.486
				c0,0.233,0.035,0.438,0.107,0.616c0.07,0.178,0.172,0.326,0.303,0.446c0.13,0.12,0.287,0.211,0.469,0.274
				c0.184,0.063,0.386,0.094,0.608,0.094c0.258,0,0.533-0.021,0.827-0.061s0.6-0.104,0.916-0.195v1.013
				c-0.136,0.038-0.283,0.073-0.443,0.104s-0.324,0.059-0.49,0.083c-0.168,0.024-0.336,0.043-0.507,0.055
				c-0.171,0.013-0.336,0.019-0.495,0.019c-0.404,0-0.766-0.058-1.086-0.172c-0.32-0.115-0.592-0.285-0.814-0.51
				c-0.223-0.224-0.393-0.501-0.512-0.832c-0.118-0.33-0.178-0.713-0.178-1.148c0-0.431,0.06-0.823,0.178-1.177
				c0.119-0.353,0.285-0.655,0.502-0.908c0.215-0.252,0.477-0.446,0.785-0.584c0.308-0.138,0.651-0.206,1.03-0.206
				c0.376,0,0.708,0.058,0.997,0.175c0.289,0.116,0.53,0.279,0.726,0.487c0.194,0.209,0.343,0.458,0.443,0.747
				C122.26,25.564,122.311,25.882,122.311,26.226z M121.016,26.043c0.004-0.209-0.021-0.391-0.078-0.545
				c-0.055-0.155-0.131-0.283-0.227-0.384s-0.207-0.176-0.334-0.225s-0.264-0.073-0.41-0.073c-0.32,0-0.582,0.107-0.787,0.321
				c-0.206,0.214-0.328,0.516-0.365,0.905H121.016z"/>
		</g>
	</g>
</g>
</svg>
