<?xml version="1.0" encoding="utf-8"?>
<!-- Generator: Adobe Illustrator 15.1.0, SVG Export Plug-In . SVG Version: 6.00 Build 0)  -->
<!DOCTYPE svg PUBLIC "-//W3C//DTD SVG 1.1//EN" "http://www.w3.org/Graphics/SVG/1.1/DTD/svg11.dtd">
<svg version="1.1" xmlns="http://www.w3.org/2000/svg" xmlns:xlink="http://www.w3.org/1999/xlink" x="0px" y="0px"
	 width="132.25px" height="39.25px" viewBox="0 0 132.25 39.25" enable-background="new 0 0 132.25 39.25" xml:space="preserve">
<g id="Layer_1">
</g>
<g id="Layer_5">
	<g id="Layer_4">
	</g>
</g>
<g id="Isolation_Mode">
	<g>
		<polygon fill-rule="evenodd" clip-rule="evenodd" fill="#ED1C24" points="112.687,39.055 0.523,39.055 0.523,0.268 112.774,0.268 
			131.348,18.368 		"/>
		<g>
			<path fill="#FFFFFF" d="M11.714,22.322v-5.689H9.438v5.689H8.145V15.5h4.863v6.821H11.714z"/>
			<path fill="#FFFFFF" d="M19.016,19.629c0,0.417-0.06,0.799-0.178,1.146c-0.119,0.346-0.289,0.643-0.512,0.89
				s-0.496,0.438-0.819,0.574s-0.692,0.204-1.106,0.204c-0.394,0-0.744-0.058-1.055-0.172c-0.31-0.115-0.572-0.286-0.787-0.514
				c-0.217-0.228-0.382-0.513-0.496-0.856c-0.115-0.342-0.172-0.742-0.172-1.198c0-0.421,0.059-0.804,0.18-1.148
				c0.119-0.345,0.292-0.639,0.517-0.882c0.224-0.243,0.498-0.432,0.821-0.566c0.324-0.134,0.689-0.201,1.097-0.201
				c0.396,0,0.749,0.059,1.06,0.175c0.309,0.117,0.572,0.29,0.787,0.52c0.217,0.229,0.381,0.514,0.494,0.853
				C18.959,18.791,19.016,19.184,19.016,19.629z M17.689,19.66c0-0.55-0.104-0.963-0.311-1.24c-0.207-0.276-0.512-0.415-0.916-0.415
				c-0.223,0-0.412,0.043-0.568,0.13c-0.157,0.087-0.285,0.206-0.387,0.357s-0.175,0.328-0.222,0.53s-0.071,0.417-0.071,0.647
				c0,0.553,0.111,0.97,0.335,1.25c0.222,0.28,0.526,0.42,0.913,0.42c0.213,0,0.396-0.043,0.553-0.128
				c0.157-0.085,0.284-0.204,0.381-0.355c0.098-0.151,0.171-0.33,0.22-0.535C17.665,20.118,17.689,19.896,17.689,19.66z"/>
			<path fill="#FFFFFF" d="M25.174,21.252l-0.063,2.406h-1.18v-1.336h-3.215v1.336h-1.175l-0.067-2.406h0.13
				c0.132,0,0.255-0.019,0.368-0.058c0.113-0.038,0.219-0.111,0.315-0.219c0.098-0.107,0.185-0.259,0.261-0.454
				c0.077-0.195,0.146-0.449,0.209-0.762s0.115-0.694,0.159-1.143s0.079-0.981,0.107-1.597h3.591v4.233H25.174z M23.367,18.089
				h-1.185c-0.034,0.459-0.069,0.862-0.104,1.208s-0.08,0.646-0.135,0.897c-0.057,0.252-0.129,0.465-0.22,0.637
				c-0.091,0.172-0.178,0.313-0.261,0.42h1.904V18.089z"/>
			<path fill="#FFFFFF" d="M30.449,18.11H27.61v4.212h-1.273v-5.303h4.112V18.11z"/>
			<path fill="#FFFFFF" d="M36.645,19.629c0,0.417-0.059,0.799-0.178,1.146c-0.118,0.346-0.289,0.643-0.512,0.89
				s-0.496,0.438-0.818,0.574c-0.324,0.136-0.693,0.204-1.107,0.204c-0.393,0-0.744-0.058-1.054-0.172s-0.573-0.286-0.788-0.514
				c-0.216-0.228-0.381-0.513-0.496-0.856c-0.115-0.342-0.172-0.742-0.172-1.198c0-0.421,0.06-0.804,0.18-1.148
				c0.12-0.345,0.293-0.639,0.518-0.882c0.224-0.243,0.498-0.432,0.821-0.566s0.688-0.201,1.097-0.201
				c0.396,0,0.749,0.059,1.059,0.175c0.31,0.117,0.572,0.29,0.788,0.52s0.38,0.514,0.493,0.853
				C36.588,18.791,36.645,19.184,36.645,19.629z M35.318,19.66c0-0.55-0.104-0.963-0.311-1.24c-0.207-0.276-0.512-0.415-0.916-0.415
				c-0.223,0-0.412,0.043-0.568,0.13s-0.285,0.206-0.387,0.357c-0.101,0.151-0.174,0.328-0.221,0.53s-0.071,0.417-0.071,0.647
				c0,0.553,0.111,0.97,0.335,1.25c0.222,0.28,0.526,0.42,0.912,0.42c0.213,0,0.396-0.043,0.554-0.128
				c0.157-0.085,0.284-0.204,0.381-0.355c0.098-0.151,0.171-0.33,0.22-0.535C35.295,20.118,35.318,19.896,35.318,19.66z"/>
			<path fill="#FFFFFF" d="M40.605,18.089v4.232h-1.295v-4.232h-1.847v-1.07h4.989v1.07H40.605z"/>
			<path fill="#FFFFFF" d="M48.397,19.629c0,0.417-0.06,0.799-0.178,1.146s-0.288,0.643-0.511,0.89s-0.496,0.438-0.82,0.574
				c-0.323,0.136-0.691,0.204-1.105,0.204c-0.395,0-0.745-0.058-1.055-0.172c-0.311-0.115-0.572-0.286-0.788-0.514
				c-0.216-0.228-0.382-0.513-0.496-0.856c-0.114-0.342-0.172-0.742-0.172-1.198c0-0.421,0.06-0.804,0.18-1.148
				c0.12-0.345,0.292-0.639,0.517-0.882c0.225-0.243,0.498-0.432,0.822-0.566s0.689-0.201,1.096-0.201
				c0.396,0,0.75,0.059,1.06,0.175c0.31,0.117,0.572,0.29,0.788,0.52s0.381,0.514,0.493,0.853
				C48.341,18.791,48.397,19.184,48.397,19.629z M47.072,19.66c0-0.55-0.104-0.963-0.311-1.24c-0.207-0.276-0.513-0.415-0.916-0.415
				c-0.223,0-0.412,0.043-0.569,0.13s-0.285,0.206-0.386,0.357c-0.102,0.151-0.176,0.328-0.223,0.53s-0.07,0.417-0.07,0.647
				c0,0.553,0.111,0.97,0.334,1.25c0.223,0.28,0.527,0.42,0.914,0.42c0.212,0,0.396-0.043,0.553-0.128
				c0.156-0.085,0.283-0.204,0.381-0.355s0.17-0.33,0.219-0.535C47.047,20.118,47.072,19.896,47.072,19.66z"/>
			<path fill="#FFFFFF" d="M51.518,22.416c-0.354,0-0.705-0.013-1.051-0.039c-0.347-0.026-0.693-0.065-1.041-0.117v-5.188
				c0.733-0.097,1.468-0.146,2.202-0.146c0.8,0,1.388,0.11,1.764,0.332c0.376,0.221,0.563,0.545,0.563,0.973
				c0,0.139-0.02,0.274-0.06,0.405c-0.04,0.13-0.103,0.25-0.186,0.36s-0.188,0.21-0.313,0.303c-0.125,0.092-0.274,0.166-0.448,0.222
				c0.174,0.021,0.337,0.063,0.491,0.125c0.152,0.063,0.287,0.145,0.404,0.245c0.116,0.101,0.209,0.224,0.275,0.368
				c0.068,0.144,0.103,0.305,0.103,0.482c0,0.571-0.23,0.993-0.691,1.266C53.068,22.279,52.398,22.416,51.518,22.416z
				 M52.641,18.465c0-0.195-0.086-0.342-0.256-0.441c-0.171-0.099-0.425-0.149-0.762-0.149c-0.213,0-0.389,0.003-0.527,0.008
				c-0.14,0.005-0.279,0.017-0.418,0.034v1.231h0.902c0.223,0,0.397-0.016,0.522-0.049c0.126-0.033,0.228-0.079,0.306-0.136
				c0.078-0.058,0.137-0.129,0.175-0.214C52.621,18.664,52.641,18.569,52.641,18.465z M51.68,21.456
				c0.394,0,0.689-0.066,0.888-0.198c0.198-0.132,0.298-0.312,0.298-0.538c0-0.216-0.095-0.384-0.282-0.504
				c-0.188-0.12-0.491-0.18-0.908-0.18h-0.997v1.347c0.167,0.028,0.329,0.047,0.485,0.058C51.32,21.45,51.492,21.456,51.68,21.456z"
				/>
			<path fill="#FFFFFF" d="M58.679,22.322l-1.993-2.651v2.651h-1.254v-5.303h1.254v2.244l1.878-2.244h1.571l-2.15,2.417l2.328,2.886
				H58.679z"/>
			<path fill="#FFFFFF" d="M64.576,22.322l-0.031-0.694c-0.111,0.119-0.229,0.227-0.35,0.326c-0.122,0.1-0.256,0.186-0.402,0.259
				c-0.146,0.073-0.305,0.129-0.478,0.169s-0.36,0.06-0.566,0.06c-0.271,0-0.51-0.04-0.715-0.12
				c-0.206-0.08-0.378-0.191-0.517-0.334s-0.244-0.315-0.316-0.517c-0.07-0.202-0.106-0.425-0.106-0.668
				c0-0.25,0.054-0.482,0.159-0.694s0.268-0.395,0.485-0.548c0.218-0.153,0.489-0.273,0.814-0.36s0.707-0.13,1.146-0.13h0.694
				v-0.318c0-0.136-0.02-0.258-0.058-0.368c-0.038-0.109-0.101-0.203-0.186-0.279c-0.085-0.077-0.195-0.136-0.331-0.178
				c-0.136-0.042-0.303-0.063-0.501-0.063c-0.313,0-0.622,0.036-0.927,0.107c-0.304,0.071-0.599,0.171-0.885,0.3v-1.018
				c0.255-0.101,0.548-0.184,0.88-0.25c0.332-0.066,0.678-0.099,1.035-0.099c0.394,0,0.731,0.038,1.013,0.112
				c0.282,0.075,0.515,0.187,0.697,0.336c0.183,0.15,0.317,0.337,0.404,0.561c0.087,0.225,0.131,0.486,0.131,0.786v3.622H64.576z
				 M64.394,19.979h-0.778c-0.215,0-0.398,0.021-0.548,0.063c-0.149,0.042-0.271,0.099-0.365,0.172
				c-0.094,0.073-0.163,0.157-0.206,0.253s-0.065,0.198-0.065,0.305c0,0.216,0.069,0.38,0.209,0.494
				c0.14,0.113,0.329,0.169,0.569,0.169c0.177,0,0.361-0.064,0.553-0.193c0.191-0.128,0.401-0.313,0.632-0.553V19.979z"/>
			<path fill="#FFFFFF" d="M77.295,22.118c-0.251,0.101-0.51,0.176-0.777,0.225c-0.269,0.048-0.549,0.073-0.841,0.073
				c-0.421,0-0.799-0.057-1.133-0.172s-0.617-0.286-0.851-0.512c-0.232-0.226-0.411-0.506-0.534-0.84
				c-0.124-0.334-0.186-0.72-0.186-1.159c0-0.424,0.066-0.809,0.201-1.153c0.134-0.344,0.322-0.638,0.565-0.882
				c0.244-0.244,0.537-0.432,0.88-0.563c0.343-0.132,0.725-0.199,1.146-0.199c0.345,0,0.634,0.019,0.869,0.055
				c0.234,0.036,0.446,0.083,0.634,0.138v1.237c-0.216-0.108-0.449-0.191-0.702-0.25c-0.252-0.059-0.491-0.089-0.717-0.089
				c-0.237,0-0.449,0.04-0.638,0.12c-0.188,0.08-0.346,0.191-0.475,0.334s-0.227,0.316-0.295,0.52
				c-0.067,0.204-0.102,0.427-0.102,0.67c0,0.254,0.036,0.482,0.109,0.684c0.073,0.202,0.177,0.374,0.311,0.514
				c0.134,0.141,0.295,0.249,0.483,0.324c0.188,0.075,0.396,0.112,0.626,0.112c0.111,0,0.229-0.008,0.353-0.023
				c0.123-0.016,0.247-0.039,0.37-0.068c0.123-0.03,0.245-0.063,0.365-0.102c0.12-0.038,0.232-0.08,0.337-0.125V22.118z"/>
			<path fill="#FFFFFF" d="M80.901,22.416c-0.354,0-0.705-0.013-1.052-0.039c-0.346-0.026-0.693-0.065-1.041-0.117v-5.188
				c0.734-0.097,1.469-0.146,2.202-0.146c0.801,0,1.389,0.11,1.765,0.332c0.375,0.221,0.563,0.545,0.563,0.973
				c0,0.139-0.021,0.274-0.061,0.405c-0.04,0.13-0.102,0.25-0.185,0.36c-0.084,0.109-0.188,0.21-0.313,0.303
				s-0.274,0.166-0.449,0.222c0.175,0.021,0.338,0.063,0.491,0.125c0.153,0.063,0.288,0.145,0.404,0.245
				c0.116,0.101,0.209,0.224,0.276,0.368c0.068,0.144,0.102,0.305,0.102,0.482c0,0.571-0.23,0.993-0.691,1.266
				C82.452,22.279,81.781,22.416,80.901,22.416z M82.023,18.465c0-0.195-0.085-0.342-0.256-0.441
				c-0.17-0.099-0.424-0.149-0.762-0.149c-0.212,0-0.388,0.003-0.527,0.008c-0.139,0.005-0.278,0.017-0.417,0.034v1.231h0.902
				c0.223,0,0.396-0.016,0.522-0.049c0.125-0.033,0.227-0.079,0.305-0.136c0.078-0.058,0.137-0.129,0.175-0.214
				C82.005,18.664,82.023,18.569,82.023,18.465z M81.063,21.456c0.393,0,0.688-0.066,0.887-0.198
				c0.198-0.132,0.298-0.312,0.298-0.538c0-0.216-0.094-0.384-0.282-0.504c-0.188-0.12-0.49-0.18-0.908-0.18h-0.996v1.347
				c0.167,0.028,0.328,0.047,0.485,0.058C80.703,21.45,80.875,21.456,81.063,21.456z"/>
			<path fill="#FFFFFF" d="M89.378,19.263c0,0.087-0.003,0.2-0.008,0.339c-0.006,0.139-0.014,0.27-0.024,0.392H85.86
				c0,0.233,0.035,0.438,0.106,0.616c0.071,0.178,0.172,0.326,0.303,0.446s0.287,0.211,0.47,0.274s0.386,0.094,0.608,0.094
				c0.257,0,0.533-0.02,0.827-0.06s0.599-0.105,0.916-0.196v1.012c-0.136,0.039-0.284,0.073-0.444,0.104s-0.323,0.059-0.49,0.083
				s-0.336,0.042-0.506,0.055c-0.171,0.012-0.336,0.019-0.496,0.019c-0.403,0-0.766-0.058-1.086-0.172s-0.591-0.284-0.813-0.509
				s-0.394-0.502-0.512-0.833s-0.178-0.713-0.178-1.148c0-0.432,0.06-0.824,0.178-1.177c0.118-0.353,0.285-0.656,0.501-0.908
				c0.216-0.252,0.478-0.447,0.785-0.585c0.309-0.137,0.651-0.206,1.031-0.206c0.375,0,0.708,0.059,0.996,0.175
				c0.289,0.117,0.531,0.279,0.726,0.488c0.195,0.208,0.343,0.458,0.444,0.746C89.327,18.603,89.378,18.919,89.378,19.263z
				 M88.083,19.081c0.004-0.208-0.022-0.39-0.078-0.545c-0.056-0.155-0.132-0.282-0.227-0.383c-0.096-0.101-0.207-0.176-0.335-0.225
				c-0.127-0.049-0.263-0.073-0.409-0.073c-0.32,0-0.583,0.107-0.788,0.321s-0.327,0.516-0.365,0.905H88.083z"/>
			<path fill="#FFFFFF" d="M93.939,22.322l-1.994-2.651v2.651h-1.252v-5.303h1.252v2.244l1.879-2.244h1.571l-2.15,2.417l2.328,2.886
				H93.939z"/>
			<path fill="#FFFFFF" d="M95.918,21.2c0.143,0.003,0.274-0.005,0.396-0.026c0.121-0.021,0.232-0.078,0.331-0.17
				c0.1-0.092,0.188-0.229,0.267-0.412s0.147-0.43,0.208-0.741c0.062-0.312,0.114-0.698,0.159-1.159
				c0.046-0.461,0.082-1.019,0.11-1.673h3.591v5.303h-1.248v-4.232h-1.189c-0.031,0.665-0.083,1.235-0.154,1.711
				c-0.071,0.477-0.162,0.879-0.273,1.206c-0.112,0.327-0.242,0.586-0.392,0.778s-0.318,0.333-0.507,0.423
				c-0.188,0.09-0.394,0.137-0.618,0.141s-0.467-0.019-0.728-0.068L95.918,21.2z"/>
			<path fill="#FFFFFF" d="M103.595,19.008c0.387,0,0.716,0.042,0.989,0.125s0.49,0.198,0.65,0.342
				c0.159,0.145,0.275,0.317,0.347,0.517c0.071,0.2,0.106,0.417,0.106,0.649c0,0.271-0.042,0.516-0.127,0.733
				c-0.086,0.217-0.217,0.403-0.395,0.556c-0.178,0.153-0.406,0.271-0.687,0.353c-0.28,0.082-0.607,0.123-0.983,0.123
				c-0.251,0-0.509-0.011-0.775-0.034c-0.266-0.023-0.509-0.05-0.728-0.081v-5.271h1.195v2.009c0.072-0.007,0.143-0.012,0.208-0.016
				C103.463,19.009,103.529,19.008,103.595,19.008z M103.585,21.508c0.285,0,0.492-0.064,0.621-0.193
				c0.128-0.128,0.192-0.344,0.192-0.647c0-0.094-0.012-0.189-0.036-0.285s-0.067-0.18-0.128-0.253
				c-0.061-0.073-0.145-0.129-0.25-0.167c-0.106-0.039-0.243-0.058-0.41-0.058c-0.069,0-0.138,0.002-0.203,0.005
				c-0.066,0.003-0.128,0.009-0.183,0.016v1.55C103.32,21.497,103.452,21.508,103.585,21.508z M106.017,22.322v-5.303h1.195v5.303
				H106.017z"/>
		</g>
	</g>
</g>
</svg>
