<?xml version="1.0" encoding="utf-8"?>
<!-- Generator: Adobe Illustrator 15.1.0, SVG Export Plug-In . SVG Version: 6.00 Build 0)  -->
<!DOCTYPE svg PUBLIC "-//W3C//DTD SVG 1.1//EN" "http://www.w3.org/Graphics/SVG/1.1/DTD/svg11.dtd">
<svg version="1.1" xmlns="http://www.w3.org/2000/svg" xmlns:xlink="http://www.w3.org/1999/xlink" x="0px" y="0px"
	 width="76.333px" height="57px" viewBox="0 0 76.333 57" enable-background="new 0 0 76.333 57" xml:space="preserve">
<symbol  id="New_Symbol" viewBox="-18.805 -6.444 37.61 12.89">
	<polygon fill="#7A7127" points="14.315,-6.251 -11.477,-6.127 -11.458,-2.278 14.334,-2.403 	"/>
	<polygon fill="#9C6D2F" points="6.987,-4.136 -18.805,-4.01 -18.786,-0.161 7.006,-0.287 	"/>
	<polygon fill="#928228" points="17.979,-6.444 -7.216,-0.92 -6.39,2.838 18.805,-2.686 	"/>
	<polygon fill="#98671E" points="11.257,-2.838 -13.937,2.686 -13.112,6.445 12.082,0.921 	"/>
</symbol>
<g id="Layer_1">
</g>
<g id="Layer_5">
	<g id="Layer_4">
	</g>
</g>
<g id="Isolation_Mode">
	<g>
		
			<polygon fill-rule="evenodd" clip-rule="evenodd" fill="#D1D3D4" stroke="#D1D3D4" stroke-width="3" stroke-miterlimit="10" points="
			10.875,1.438 73.276,1.438 65.512,40.223 3.538,40.223 		"/>
		<rect x="3.337" y="42.561" fill-rule="evenodd" clip-rule="evenodd" fill="#E6E7E8" width="61.915" height="13.572"/>
		<g>
			<path d="M18.766,53.43c-0.546,0.227-1.118,0.34-1.717,0.34c-0.963,0-1.703-0.287-2.221-0.863
				c-0.517-0.576-0.775-1.428-0.775-2.555c0-0.547,0.072-1.041,0.215-1.482s0.346-0.816,0.61-1.125s0.585-0.545,0.96-0.713
				c0.376-0.166,0.797-0.25,1.264-0.25c0.316,0,0.61,0.027,0.882,0.08c0.271,0.055,0.532,0.137,0.782,0.248v0.914
				c-0.246-0.137-0.502-0.238-0.767-0.311s-0.554-0.107-0.866-0.107c-0.32,0-0.609,0.061-0.869,0.18
				c-0.26,0.121-0.479,0.295-0.66,0.523c-0.182,0.227-0.32,0.506-0.418,0.834s-0.146,0.703-0.146,1.125
				c0,0.885,0.18,1.551,0.538,1.998c0.358,0.449,0.884,0.674,1.576,0.674c0.292,0,0.572-0.033,0.841-0.102
				c0.268-0.068,0.525-0.162,0.771-0.285V53.43z"/>
			<path d="M24.836,49.229h-1.988v4.457h-0.919v-4.457H19.94v-0.783h4.896V49.229z"/>
			<path d="M30.639,50.973c0,0.465-0.064,0.873-0.195,1.221s-0.311,0.637-0.54,0.867c-0.229,0.229-0.501,0.4-0.814,0.516
				s-0.652,0.172-1.018,0.172c-0.167,0-0.333-0.008-0.499-0.025c-0.164-0.018-0.332-0.047-0.503-0.088v2.191h-0.908v-7.381h0.81
				l0.057,0.877c0.262-0.357,0.539-0.609,0.836-0.754c0.295-0.145,0.615-0.217,0.959-0.217c0.3,0,0.563,0.063,0.789,0.189
				c0.226,0.125,0.415,0.301,0.568,0.529c0.153,0.227,0.269,0.502,0.345,0.824S30.639,50.576,30.639,50.973z M29.71,51.014
				c0-0.275-0.021-0.527-0.06-0.756c-0.04-0.23-0.104-0.428-0.191-0.59c-0.086-0.164-0.197-0.291-0.334-0.385
				c-0.135-0.092-0.297-0.139-0.484-0.139c-0.115,0-0.232,0.02-0.35,0.057c-0.119,0.035-0.241,0.096-0.368,0.182
				c-0.128,0.086-0.261,0.199-0.401,0.34c-0.142,0.141-0.292,0.314-0.452,0.523v2.543c0.167,0.068,0.343,0.123,0.527,0.164
				c0.185,0.039,0.365,0.061,0.542,0.061c0.491,0,0.875-0.168,1.154-0.5C29.57,52.182,29.71,51.682,29.71,51.014z"/>
			<path d="M36.699,48.445l-1.785,4.688c-0.185,0.477-0.375,0.887-0.571,1.232c-0.197,0.344-0.412,0.627-0.645,0.848
				c-0.233,0.221-0.489,0.383-0.768,0.488c-0.278,0.104-0.59,0.156-0.935,0.156c-0.09,0-0.172-0.002-0.245-0.006
				s-0.153-0.008-0.24-0.016v-0.824c0.077,0.01,0.16,0.02,0.251,0.029c0.09,0.008,0.186,0.012,0.287,0.012
				c0.167,0,0.322-0.023,0.467-0.072s0.281-0.129,0.41-0.238c0.128-0.109,0.252-0.25,0.37-0.424
				c0.118-0.176,0.233-0.385,0.345-0.633l-2.093-5.24h1.033l1.325,3.467l0.267,0.814l0.303-0.836l1.227-3.445H36.699z"/>
			<path d="M37.111,48.445h0.897l1.592,2.527v-2.527h0.835v2.527l1.592-2.527h0.898l-1.687,2.527l1.728,2.713h-0.991l-1.54-2.662
				v2.662h-0.835v-2.662l-1.539,2.662h-0.992l1.733-2.713L37.111,48.445z"/>
			<path d="M48.505,53.686h-1.247l-2.442-2.807v2.807h-0.908v-5.24h0.908v2.396l2.354-2.396h1.2l-2.458,2.418L48.505,53.686z"/>
			<path d="M53.035,53.686l-0.021-0.703c-0.285,0.281-0.575,0.484-0.869,0.609s-0.603,0.188-0.927,0.188
				c-0.299,0-0.555-0.037-0.767-0.113c-0.213-0.078-0.388-0.184-0.524-0.316c-0.138-0.135-0.238-0.291-0.303-0.473
				s-0.097-0.377-0.097-0.59c0-0.525,0.195-0.938,0.587-1.234s0.97-0.445,1.735-0.445h1.086v-0.459c0-0.311-0.1-0.559-0.298-0.744
				c-0.198-0.188-0.501-0.279-0.908-0.279c-0.296,0-0.587,0.033-0.874,0.1c-0.287,0.064-0.584,0.16-0.89,0.281v-0.82
				c0.114-0.041,0.242-0.082,0.384-0.121c0.141-0.041,0.289-0.076,0.445-0.107c0.157-0.031,0.32-0.057,0.491-0.076
				c0.17-0.02,0.343-0.029,0.517-0.029c0.316,0,0.602,0.035,0.855,0.105c0.254,0.068,0.469,0.176,0.645,0.318
				s0.311,0.322,0.405,0.537c0.094,0.215,0.141,0.469,0.141,0.762v3.611H53.035z M52.937,51.301h-1.153
				c-0.227,0-0.422,0.023-0.585,0.068c-0.164,0.045-0.298,0.109-0.402,0.193c-0.104,0.082-0.182,0.184-0.231,0.299
				c-0.051,0.117-0.076,0.248-0.076,0.395c0,0.102,0.016,0.197,0.047,0.289c0.031,0.094,0.082,0.174,0.151,0.246
				s0.16,0.127,0.271,0.17c0.111,0.041,0.247,0.063,0.407,0.063c0.209,0,0.448-0.064,0.718-0.191s0.554-0.328,0.854-0.602V51.301z"
				/>
		</g>
		<g>
			<polygon fill="#7A7127" points="34.942,36.961 17.635,36.852 17.647,33.479 34.955,33.588 			"/>
			<polygon fill="#9C6D2F" points="30.025,35.105 12.717,34.996 12.729,31.623 30.038,31.732 			"/>
			<polygon fill="#928228" points="37.402,37.131 20.495,32.287 21.048,28.994 37.956,33.836 			"/>
			<polygon fill="#98671E" points="32.892,33.971 15.983,29.129 16.537,25.832 33.444,30.674 			"/>
		</g>
		<g>
			<polygon fill="#7A7127" points="51.858,37.102 34.55,36.994 34.562,33.619 51.872,33.729 			"/>
			<polygon fill="#9C6D2F" points="46.939,35.248 29.632,35.137 29.646,31.764 46.953,31.875 			"/>
			<polygon fill="#928228" points="54.316,37.271 37.409,32.43 37.964,29.135 54.872,33.977 			"/>
			<polygon fill="#98671E" points="49.807,34.109 32.899,29.27 33.453,25.975 50.359,30.816 			"/>
		</g>
		<g>
			<polygon fill="#7A7127" points="69.132,36.789 51.824,36.682 51.837,33.309 69.145,33.418 			"/>
			<polygon fill="#9C6D2F" points="64.215,34.938 46.905,34.828 46.918,31.455 64.228,31.564 			"/>
			<polygon fill="#928228" points="71.591,36.961 54.684,32.119 55.238,28.824 72.146,33.666 			"/>
			<polygon fill="#98671E" points="67.079,33.799 50.173,28.957 50.727,25.662 67.634,30.504 			"/>
		</g>
		
			<use xlink:href="#New_Symbol"  width="37.61" height="12.89" x="-18.805" y="-6.444" transform="matrix(0.6711 0 0 -0.8765 31.2832 26.8965)" overflow="visible"/>
		
			<use xlink:href="#New_Symbol"  width="37.61" height="12.89" x="-18.805" y="-6.444" transform="matrix(0.6711 0 0 -0.8765 45.418 25.9746)" overflow="visible"/>
		
			<use xlink:href="#New_Symbol"  width="37.61" height="12.89" x="-18.805" y="-6.444" transform="matrix(0.6711 0 0 -0.8765 54.8721 22.8125)" overflow="visible"/>
		
			<use xlink:href="#New_Symbol"  width="37.61" height="12.89" x="-18.805" y="-6.444" transform="matrix(0.6711 0 0 -0.8765 36.8457 21.2324)" overflow="visible"/>
		
			<use xlink:href="#New_Symbol"  width="37.61" height="12.89" x="-18.805" y="-6.444" transform="matrix(0.6711 0 0 -0.8765 47.8398 16.5566)" overflow="visible"/>
		
			<use xlink:href="#New_Symbol"  width="37.61" height="12.89" x="-18.805" y="-6.444" transform="matrix(0.6711 0 0 -0.8765 62.9795 25.832)" overflow="visible"/>
		
			<use xlink:href="#New_Symbol"  width="37.61" height="12.89" x="-18.805" y="-6.444" transform="matrix(0.6711 0 0 -0.8765 13.3799 31.3125)" overflow="visible"/>
		
			<use xlink:href="#New_Symbol"  width="37.61" height="12.89" x="-18.805" y="-6.444" transform="matrix(0.6711 0 0 -0.8765 19.3447 22.8125)" overflow="visible"/>
		
			<use xlink:href="#New_Symbol"  width="37.61" height="12.89" x="-18.805" y="-6.444" transform="matrix(0.6711 0 0 -0.8765 32.8994 15.582)" overflow="visible"/>
		
			<use xlink:href="#New_Symbol"  width="37.61" height="12.89" x="-18.805" y="-6.444" transform="matrix(0.637 -0.2758 -0.2112 -0.832 40.1377 9.9336)" overflow="visible"/>
	</g>
</g>
</svg>
