<?xml version="1.0" encoding="utf-8"?>
<!-- Generator: Adobe Illustrator 15.1.0, SVG Export Plug-In . SVG Version: 6.00 Build 0)  -->
<!DOCTYPE svg PUBLIC "-//W3C//DTD SVG 1.1//EN" "http://www.w3.org/Graphics/SVG/1.1/DTD/svg11.dtd">
<svg version="1.1" id="Layer_1" xmlns="http://www.w3.org/2000/svg" xmlns:xlink="http://www.w3.org/1999/xlink" x="0px" y="0px"
	 width="150.333px" height="49.333px" viewBox="0 0 150.333 49.333" enable-background="new 0 0 150.333 49.333"
	 xml:space="preserve">
<g id="Layer_1_1_">
</g>
<g id="Layer_5">
	<g id="Layer_4">
	</g>
</g>
<g id="Isolation_Mode">
	<g>
		<g>
			<polygon fill="#9E1D20" points="130.491,49.321 15.411,49.485 15.411,47.286 38.287,29.161 18.992,10.907 129.866,8.169 
				150.137,27.728 			"/>
			<polygon fill="#EB2227" points="129.778,47.286 15.411,47.286 34.706,26.422 15.411,8.169 129.866,8.169 148.805,26.422 			"/>
		</g>
		<g>
			<polygon fill="#9E1D20" points="123.262,45.441 8.183,45.605 8.183,43.406 31.059,25.281 11.764,7.027 122.638,4.289 
				142.907,23.847 			"/>
			<polygon fill="#EB2227" points="122.549,43.406 8.183,43.406 27.478,22.543 8.183,4.289 122.638,4.289 141.577,22.543 			"/>
		</g>
		<g>
			<polygon fill="#9E1D20" points="115.521,41.635 0.442,41.801 0.442,39.6 23.318,21.475 4.023,3.219 114.897,0.484 
				135.167,20.042 			"/>
			<polygon fill="#EB2227" points="114.809,39.6 0.442,39.6 19.738,18.737 0.442,0.484 114.897,0.484 133.836,18.737 			"/>
		</g>
		<g>
			<path fill="#FFFFFF" d="M22.374,16.489V10.8h-2.275v5.688h-1.295V9.667h4.864v6.821L22.374,16.489L22.374,16.489z"/>
			<path fill="#FFFFFF" d="M29.676,13.795c0,0.418-0.06,0.8-0.178,1.146c-0.118,0.347-0.289,0.644-0.512,0.891
				c-0.223,0.247-0.495,0.438-0.819,0.573c-0.323,0.136-0.692,0.204-1.106,0.204c-0.393,0-0.744-0.058-1.054-0.172
				c-0.31-0.115-0.572-0.286-0.788-0.515c-0.216-0.228-0.381-0.513-0.496-0.855c-0.114-0.343-0.172-0.742-0.172-1.198
				c0-0.421,0.06-0.804,0.18-1.148c0.12-0.344,0.292-0.638,0.517-0.882c0.225-0.243,0.499-0.432,0.822-0.566
				c0.323-0.134,0.688-0.2,1.096-0.2c0.396,0,0.75,0.058,1.06,0.175c0.31,0.116,0.572,0.289,0.788,0.519
				c0.216,0.23,0.38,0.515,0.493,0.854C29.619,12.958,29.676,13.35,29.676,13.795z M28.35,13.827c0-0.549-0.104-0.963-0.311-1.239
				s-0.512-0.415-0.915-0.415c-0.224,0-0.413,0.044-0.569,0.131c-0.156,0.087-0.285,0.206-0.386,0.357
				c-0.102,0.151-0.176,0.328-0.223,0.529c-0.047,0.202-0.07,0.418-0.07,0.647c0,0.554,0.111,0.97,0.334,1.25
				c0.223,0.28,0.527,0.42,0.914,0.42c0.212,0,0.396-0.042,0.553-0.128c0.156-0.085,0.283-0.203,0.381-0.354
				c0.098-0.151,0.171-0.33,0.22-0.535C28.325,14.285,28.35,14.064,28.35,13.827z"/>
			<path fill="#FFFFFF" d="M30.183,15.367c0.143,0.004,0.274-0.005,0.396-0.026c0.121-0.021,0.232-0.077,0.331-0.169
				c0.1-0.093,0.188-0.23,0.267-0.413c0.079-0.183,0.147-0.43,0.208-0.741c0.062-0.311,0.114-0.697,0.159-1.158
				c0.046-0.461,0.082-1.019,0.11-1.673h3.591v5.303h-1.248v-4.232h-1.189c-0.031,0.664-0.083,1.235-0.154,1.712
				c-0.071,0.477-0.162,0.878-0.273,1.205c-0.112,0.327-0.242,0.587-0.392,0.778c-0.15,0.191-0.318,0.332-0.507,0.422
				c-0.188,0.091-0.394,0.138-0.618,0.142c-0.225,0.003-0.467-0.02-0.728-0.068L30.183,15.367z"/>
			<path fill="#FFFFFF" d="M39.843,15.91c-0.185,0.459-0.376,0.861-0.576,1.208c-0.2,0.346-0.421,0.635-0.66,0.866
				c-0.24,0.231-0.508,0.405-0.802,0.522c-0.294,0.116-0.623,0.175-0.988,0.175c-0.088,0-0.183-0.005-0.285-0.014
				c-0.102-0.009-0.208-0.021-0.315-0.039v-1.08c0.042,0.007,0.09,0.015,0.144,0.023c0.054,0.008,0.11,0.016,0.17,0.021
				c0.059,0.006,0.119,0.01,0.18,0.014c0.061,0.003,0.117,0.005,0.17,0.005c0.146,0,0.281-0.028,0.407-0.083
				c0.125-0.057,0.24-0.134,0.347-0.232c0.106-0.1,0.202-0.218,0.29-0.355c0.087-0.138,0.163-0.288,0.229-0.451l-2.104-5.303h1.42
				l1.101,3.007l0.329,0.971l0.323-0.93l1.112-3.048h1.367L39.843,15.91z"/>
			<path fill="#FFFFFF" d="M45.782,16.489v-2.104c-0.185,0.073-0.376,0.127-0.576,0.162c-0.2,0.035-0.399,0.052-0.598,0.052
				c-0.432,0-0.799-0.043-1.102-0.13c-0.303-0.087-0.549-0.217-0.738-0.389c-0.189-0.173-0.328-0.386-0.415-0.64
				s-0.13-0.546-0.13-0.877v-1.378h1.247v1.222c0,0.198,0.019,0.37,0.058,0.517c0.038,0.146,0.104,0.267,0.195,0.362
				c0.091,0.095,0.213,0.167,0.362,0.214c0.15,0.047,0.338,0.071,0.564,0.071c0.191,0,0.381-0.02,0.568-0.058
				c0.188-0.038,0.376-0.091,0.563-0.157v-2.171h1.248v5.303L45.782,16.489L45.782,16.489z"/>
			<path fill="#FFFFFF" d="M53.027,13.43c0,0.087-0.003,0.2-0.008,0.34c-0.006,0.139-0.014,0.27-0.024,0.391H49.51
				c0,0.233,0.035,0.438,0.106,0.616c0.071,0.178,0.172,0.326,0.303,0.446s0.287,0.211,0.47,0.274
				c0.183,0.063,0.386,0.094,0.608,0.094c0.257,0,0.533-0.021,0.827-0.061c0.294-0.04,0.599-0.104,0.916-0.195v1.013
				c-0.136,0.038-0.284,0.073-0.444,0.104c-0.16,0.031-0.323,0.059-0.49,0.083S51.47,16.579,51.3,16.59
				c-0.171,0.013-0.336,0.019-0.496,0.019c-0.403,0-0.766-0.058-1.086-0.172c-0.32-0.115-0.591-0.285-0.813-0.51
				c-0.223-0.224-0.394-0.501-0.512-0.832c-0.118-0.33-0.178-0.713-0.178-1.148c0-0.431,0.06-0.823,0.178-1.177
				c0.118-0.353,0.285-0.655,0.501-0.908c0.216-0.252,0.478-0.446,0.785-0.584c0.309-0.138,0.651-0.206,1.031-0.206
				c0.375,0,0.708,0.058,0.996,0.175c0.289,0.116,0.531,0.279,0.726,0.487c0.195,0.209,0.343,0.458,0.444,0.747
				C52.977,12.769,53.027,13.086,53.027,13.43z M51.732,13.248c0.004-0.209-0.022-0.391-0.078-0.545
				c-0.056-0.155-0.132-0.283-0.227-0.384c-0.096-0.101-0.207-0.176-0.335-0.225c-0.127-0.049-0.263-0.073-0.409-0.073
				c-0.32,0-0.583,0.107-0.788,0.321c-0.205,0.214-0.327,0.516-0.365,0.905L51.732,13.248L51.732,13.248z"/>
			<path fill="#FFFFFF" d="M57.536,16.489v-2.233h-2.062v2.233h-1.252v-5.303h1.252v1.988h2.062v-1.988h1.248v5.303H57.536z"/>
			<path fill="#FFFFFF" d="M63.403,16.489v-3.314h-0.011L61.3,16.489h-1.206v-5.303h1.253V14.5h0.011l2.087-3.314h1.211v5.303
				H63.403z"/>
			<path fill="#FFFFFF" d="M70.658,13.43c0,0.087-0.003,0.2-0.008,0.34c-0.006,0.139-0.014,0.27-0.024,0.391h-3.485
				c0,0.233,0.035,0.438,0.106,0.616c0.071,0.178,0.172,0.326,0.303,0.446c0.131,0.12,0.287,0.211,0.47,0.274
				s0.386,0.094,0.608,0.094c0.257,0,0.533-0.021,0.827-0.061s0.599-0.104,0.916-0.195v1.013c-0.136,0.038-0.284,0.073-0.444,0.104
				c-0.16,0.031-0.323,0.059-0.49,0.083s-0.336,0.043-0.506,0.055c-0.171,0.013-0.336,0.019-0.496,0.019
				c-0.403,0-0.766-0.058-1.086-0.172c-0.32-0.115-0.591-0.285-0.813-0.51c-0.223-0.224-0.394-0.501-0.512-0.832
				c-0.118-0.33-0.178-0.713-0.178-1.148c0-0.431,0.06-0.823,0.178-1.177c0.118-0.353,0.285-0.655,0.501-0.908
				c0.216-0.252,0.478-0.446,0.785-0.584c0.309-0.138,0.651-0.206,1.031-0.206c0.375,0,0.708,0.058,0.996,0.175
				c0.289,0.116,0.531,0.279,0.726,0.487c0.195,0.209,0.343,0.458,0.444,0.747C70.607,12.769,70.658,13.086,70.658,13.43z
				 M69.363,13.248c0.004-0.209-0.022-0.391-0.078-0.545c-0.056-0.155-0.132-0.283-0.227-0.384
				c-0.096-0.101-0.207-0.176-0.335-0.225c-0.127-0.049-0.263-0.073-0.409-0.073c-0.32,0-0.583,0.107-0.788,0.321
				c-0.205,0.214-0.327,0.516-0.365,0.905L69.363,13.248L69.363,13.248z"/>
			<path fill="#FFFFFF" d="M82.568,13.795c0,0.418-0.06,0.8-0.178,1.146c-0.118,0.347-0.289,0.644-0.513,0.891
				c-0.223,0.247-0.494,0.438-0.818,0.573c-0.323,0.136-0.691,0.204-1.105,0.204c-0.394,0-0.744-0.058-1.055-0.172
				c-0.311-0.115-0.572-0.286-0.788-0.515c-0.216-0.228-0.381-0.513-0.496-0.855c-0.114-0.343-0.172-0.742-0.172-1.198
				c0-0.421,0.06-0.804,0.181-1.148c0.119-0.344,0.291-0.638,0.517-0.882c0.225-0.243,0.499-0.432,0.821-0.566
				c0.324-0.134,0.688-0.2,1.097-0.2c0.396,0,0.75,0.058,1.06,0.175c0.311,0.116,0.572,0.289,0.788,0.519s0.38,0.515,0.493,0.854
				C82.512,12.958,82.568,13.35,82.568,13.795z M81.243,13.827c0-0.549-0.104-0.963-0.312-1.239s-0.513-0.415-0.915-0.415
				c-0.225,0-0.413,0.044-0.569,0.131c-0.155,0.087-0.284,0.206-0.386,0.357s-0.176,0.328-0.223,0.529
				c-0.047,0.202-0.07,0.418-0.07,0.647c0,0.554,0.111,0.97,0.334,1.25c0.223,0.28,0.527,0.42,0.914,0.42
				c0.212,0,0.396-0.042,0.553-0.128c0.156-0.085,0.283-0.203,0.381-0.354c0.098-0.151,0.172-0.33,0.221-0.535
				C81.217,14.285,81.243,14.064,81.243,13.827z"/>
			<path fill="#FFFFFF" d="M86.92,16.489v-2.104c-0.185,0.073-0.375,0.127-0.575,0.162c-0.2,0.035-0.399,0.052-0.599,0.052
				c-0.432,0-0.799-0.043-1.102-0.13c-0.303-0.087-0.549-0.217-0.738-0.389c-0.189-0.173-0.328-0.386-0.414-0.64
				c-0.088-0.254-0.131-0.546-0.131-0.877v-1.378h1.247v1.222c0,0.198,0.019,0.37,0.058,0.517c0.039,0.146,0.104,0.267,0.195,0.362
				c0.092,0.095,0.213,0.167,0.362,0.214s0.338,0.071,0.563,0.071c0.191,0,0.381-0.02,0.568-0.058s0.376-0.091,0.563-0.157v-2.171
				h1.248v5.303L86.92,16.489L86.92,16.489z"/>
			<path fill="#FFFFFF" d="M92.788,16.489v-3.314h-0.011l-2.093,3.314h-1.206v-5.303h1.253V14.5h0.012l2.086-3.314h1.211v5.303
				H92.788z"/>
			<path fill="#FFFFFF" d="M99.713,16.286c-0.25,0.101-0.51,0.176-0.776,0.224c-0.269,0.049-0.549,0.073-0.841,0.073
				c-0.422,0-0.799-0.058-1.133-0.172c-0.334-0.115-0.617-0.285-0.852-0.512c-0.232-0.226-0.41-0.506-0.533-0.84
				c-0.125-0.334-0.187-0.721-0.187-1.159c0-0.424,0.065-0.809,0.2-1.153c0.135-0.345,0.322-0.639,0.566-0.882
				c0.243-0.243,0.536-0.432,0.879-0.563c0.344-0.133,0.726-0.198,1.146-0.198c0.345,0,0.634,0.018,0.869,0.055
				c0.234,0.036,0.445,0.082,0.634,0.138v1.237c-0.216-0.107-0.449-0.191-0.702-0.251c-0.252-0.059-0.49-0.088-0.717-0.088
				c-0.237,0-0.449,0.04-0.639,0.12c-0.188,0.08-0.346,0.191-0.475,0.334s-0.227,0.315-0.295,0.519
				c-0.066,0.204-0.102,0.428-0.102,0.671c0,0.254,0.035,0.482,0.109,0.684c0.072,0.202,0.176,0.373,0.311,0.515
				c0.134,0.141,0.295,0.248,0.482,0.323c0.188,0.075,0.396,0.112,0.627,0.112c0.11,0,0.229-0.008,0.353-0.023
				c0.123-0.016,0.247-0.038,0.37-0.068c0.123-0.029,0.244-0.063,0.365-0.102c0.119-0.039,0.231-0.08,0.336-0.125v1.131H99.713z"/>
			<path fill="#FFFFFF" d="M104.161,12.256v4.232h-1.295v-4.232h-1.848v-1.07h4.988v1.07H104.161z"/>
			<path fill="#FFFFFF" d="M110.481,16.489l-1.994-2.651v2.651h-1.252v-5.303h1.252v2.244l1.879-2.244h1.571l-2.149,2.417
				l2.327,2.886H110.481z"/>
			<path fill="#FFFFFF" d="M116.379,16.489l-0.031-0.694c-0.111,0.118-0.229,0.228-0.35,0.326c-0.123,0.1-0.256,0.186-0.401,0.259
				c-0.146,0.073-0.306,0.129-0.478,0.169c-0.174,0.04-0.361,0.061-0.566,0.061c-0.271,0-0.51-0.04-0.715-0.12
				c-0.207-0.08-0.379-0.191-0.519-0.334c-0.139-0.143-0.243-0.314-0.315-0.517c-0.07-0.203-0.105-0.425-0.105-0.668
				c0-0.251,0.053-0.482,0.159-0.694c0.104-0.212,0.269-0.395,0.485-0.548s0.487-0.273,0.813-0.36
				c0.325-0.087,0.707-0.13,1.146-0.13h0.693V12.92c0-0.135-0.019-0.258-0.058-0.367c-0.038-0.11-0.101-0.203-0.185-0.279
				c-0.086-0.077-0.197-0.136-0.332-0.178c-0.137-0.042-0.304-0.063-0.502-0.063c-0.313,0-0.621,0.036-0.926,0.107
				c-0.305,0.071-0.6,0.171-0.885,0.3v-1.018c0.254-0.102,0.547-0.185,0.879-0.251c0.332-0.065,0.678-0.099,1.036-0.099
				c0.394,0,0.729,0.037,1.013,0.112c0.281,0.074,0.514,0.187,0.696,0.336s0.317,0.337,0.405,0.562
				c0.086,0.225,0.129,0.486,0.129,0.785v3.622H116.379z M116.196,14.145h-0.777c-0.215,0-0.397,0.021-0.547,0.063
				c-0.15,0.041-0.271,0.099-0.365,0.172c-0.096,0.073-0.164,0.157-0.207,0.253c-0.043,0.096-0.064,0.197-0.064,0.306
				c0,0.216,0.069,0.38,0.208,0.493c0.14,0.113,0.329,0.169,0.569,0.169c0.178,0,0.361-0.063,0.553-0.192
				c0.191-0.129,0.402-0.313,0.632-0.554L116.196,14.145L116.196,14.145z"/>
			<path fill="#FFFFFF" d="M22.265,29.315V26h-0.011l-2.093,3.313h-1.206v-5.303h1.253v3.313h0.011l2.087-3.313h1.211v5.303
				L22.265,29.315L22.265,29.315z"/>
			<path fill="#FFFFFF" d="M32.797,29.409c-0.354,0-0.705-0.013-1.052-0.039c-0.346-0.025-0.693-0.064-1.041-0.117v-5.188
				c0.734-0.098,1.469-0.146,2.202-0.146c0.801,0,1.389,0.11,1.765,0.331c0.375,0.222,0.563,0.546,0.563,0.974
				c0,0.14-0.021,0.274-0.061,0.403c-0.04,0.131-0.102,0.252-0.185,0.36c-0.084,0.109-0.188,0.211-0.313,0.304
				c-0.125,0.092-0.274,0.166-0.449,0.222c0.175,0.021,0.338,0.063,0.491,0.125c0.153,0.063,0.288,0.146,0.404,0.245
				c0.116,0.102,0.209,0.225,0.276,0.367c0.068,0.146,0.102,0.307,0.102,0.483c0,0.57-0.23,0.992-0.691,1.267
				C34.348,29.272,33.677,29.409,32.797,29.409z M33.919,25.458c0-0.194-0.085-0.341-0.256-0.44c-0.17-0.1-0.424-0.148-0.762-0.148
				c-0.212,0-0.388,0.002-0.527,0.008c-0.139,0.005-0.278,0.017-0.417,0.033v1.232h0.902c0.223,0,0.396-0.017,0.522-0.05
				c0.125-0.033,0.227-0.078,0.305-0.137c0.078-0.058,0.137-0.129,0.175-0.213C33.9,25.659,33.919,25.562,33.919,25.458z
				 M32.959,28.449c0.393,0,0.688-0.065,0.887-0.198c0.198-0.133,0.298-0.312,0.298-0.537c0-0.217-0.094-0.385-0.282-0.504
				s-0.49-0.181-0.908-0.181h-0.996v1.347c0.167,0.028,0.328,0.047,0.485,0.059C32.599,28.444,32.771,28.449,32.959,28.449z"/>
			<path fill="#FFFFFF" d="M37.859,26c0.387,0,0.716,0.041,0.989,0.125s0.49,0.197,0.65,0.343c0.159,0.145,0.275,0.315,0.347,0.517
				c0.072,0.201,0.106,0.416,0.106,0.648c0,0.271-0.042,0.517-0.127,0.734c-0.086,0.217-0.217,0.401-0.395,0.555
				c-0.178,0.154-0.406,0.271-0.687,0.354c-0.281,0.082-0.607,0.123-0.983,0.123c-0.251,0-0.509-0.012-0.775-0.034
				c-0.266-0.021-0.509-0.05-0.728-0.081v-5.271h1.195v2.01c0.072-0.007,0.143-0.013,0.208-0.017C37.728,26.002,37.794,26,37.859,26
				z M37.85,28.5c0.285,0,0.492-0.064,0.621-0.192c0.128-0.129,0.192-0.345,0.192-0.647c0-0.094-0.012-0.188-0.036-0.283
				c-0.024-0.097-0.067-0.182-0.128-0.254s-0.145-0.129-0.25-0.168c-0.106-0.037-0.243-0.057-0.41-0.057
				c-0.069,0-0.138,0.001-0.203,0.005c-0.066,0.005-0.128,0.009-0.183,0.017v1.55C37.585,28.491,37.717,28.5,37.85,28.5z
				 M40.281,29.315v-5.303h1.195v5.303H40.281z"/>
			<path fill="#FFFFFF" d="M45.782,29.315v-4.212H43.72v4.212h-1.252v-5.303h4.562v5.303H45.782z"/>
			<path fill="#FFFFFF" d="M51.732,29.315l-0.031-0.693c-0.111,0.117-0.228,0.228-0.35,0.325c-0.122,0.101-0.256,0.187-0.401,0.259
				c-0.146,0.073-0.306,0.129-0.478,0.17c-0.173,0.039-0.361,0.061-0.566,0.061c-0.271,0-0.51-0.04-0.715-0.12
				c-0.206-0.08-0.378-0.19-0.518-0.334c-0.139-0.144-0.244-0.313-0.315-0.517c-0.071-0.203-0.106-0.426-0.106-0.668
				c0-0.252,0.053-0.482,0.159-0.694c0.105-0.212,0.268-0.396,0.485-0.548c0.217-0.153,0.488-0.273,0.813-0.36
				s0.707-0.13,1.146-0.13h0.694v-0.318c0-0.136-0.019-0.259-0.058-0.367c-0.038-0.11-0.1-0.203-0.185-0.279
				c-0.086-0.077-0.196-0.136-0.332-0.178c-0.136-0.042-0.303-0.063-0.501-0.063c-0.313,0-0.622,0.036-0.926,0.107
				c-0.305,0.071-0.6,0.171-0.885,0.3v-1.018c0.254-0.102,0.547-0.185,0.879-0.251c0.332-0.065,0.678-0.099,1.036-0.099
				c0.394,0,0.73,0.037,1.013,0.112c0.281,0.074,0.514,0.187,0.696,0.336c0.182,0.149,0.317,0.337,0.405,0.562
				c0.087,0.225,0.13,0.486,0.13,0.785v3.622H51.732z M51.55,26.971h-0.777c-0.216,0-0.398,0.021-0.548,0.063
				s-0.271,0.1-0.365,0.172c-0.095,0.073-0.163,0.157-0.207,0.254c-0.043,0.096-0.064,0.196-0.064,0.306
				c0,0.216,0.069,0.38,0.208,0.493c0.14,0.113,0.329,0.169,0.569,0.169c0.178,0,0.361-0.063,0.553-0.192s0.402-0.313,0.632-0.554
				L51.55,26.971L51.55,26.971z"/>
			<path fill="#FFFFFF" d="M59.056,26.57c0,0.487-0.069,0.908-0.207,1.263c-0.137,0.355-0.328,0.65-0.573,0.886
				c-0.246,0.235-0.535,0.409-0.869,0.521c-0.334,0.112-0.698,0.169-1.091,0.169c-0.133,0-0.265-0.009-0.396-0.025
				c-0.133-0.018-0.253-0.04-0.36-0.067v2.072h-1.273v-7.375h1.102l0.031,0.783c0.107-0.136,0.22-0.26,0.336-0.371
				c0.117-0.111,0.243-0.206,0.379-0.284c0.136-0.078,0.281-0.138,0.438-0.18c0.156-0.042,0.332-0.063,0.526-0.063
				c0.313,0,0.592,0.063,0.836,0.188c0.243,0.125,0.447,0.304,0.612,0.535c0.166,0.231,0.292,0.512,0.379,0.84
				C59.012,25.79,59.056,26.161,59.056,26.57z M57.719,26.622c0-0.291-0.021-0.541-0.063-0.746c-0.041-0.205-0.102-0.373-0.18-0.506
				s-0.174-0.229-0.287-0.29c-0.113-0.061-0.243-0.091-0.389-0.091c-0.216,0-0.422,0.087-0.618,0.262
				c-0.197,0.174-0.405,0.41-0.624,0.709v2.316c0.101,0.039,0.226,0.07,0.373,0.096c0.147,0.024,0.298,0.035,0.451,0.035
				c0.202,0,0.386-0.042,0.551-0.125c0.165-0.084,0.307-0.201,0.423-0.354c0.116-0.152,0.206-0.341,0.269-0.562
				S57.719,26.897,57.719,26.622z"/>
			<path fill="#FFFFFF" d="M63.403,29.315V26h-0.011L61.3,29.315h-1.206v-5.303h1.253v3.314h0.011l2.087-3.314h1.211v5.303H63.403z"
				/>
			<path fill="#FFFFFF" d="M68.059,29.409c-0.354,0-0.705-0.013-1.052-0.039c-0.346-0.025-0.693-0.064-1.041-0.117v-5.188
				c0.734-0.098,1.469-0.146,2.202-0.146c0.801,0,1.389,0.11,1.765,0.331c0.375,0.222,0.563,0.546,0.563,0.974
				c0,0.14-0.021,0.274-0.061,0.403c-0.04,0.131-0.102,0.252-0.185,0.36c-0.084,0.109-0.188,0.211-0.313,0.304
				c-0.125,0.092-0.274,0.166-0.449,0.222c0.175,0.021,0.338,0.063,0.491,0.125c0.153,0.063,0.288,0.146,0.404,0.245
				c0.116,0.102,0.209,0.225,0.276,0.367c0.068,0.146,0.102,0.307,0.102,0.483c0,0.57-0.23,0.992-0.691,1.267
				C69.609,29.272,68.938,29.409,68.059,29.409z M69.181,25.458c0-0.194-0.085-0.341-0.256-0.44c-0.17-0.1-0.424-0.148-0.762-0.148
				c-0.212,0-0.388,0.002-0.527,0.008c-0.139,0.005-0.278,0.017-0.417,0.033v1.232h0.902c0.223,0,0.396-0.017,0.522-0.05
				c0.125-0.033,0.227-0.078,0.305-0.137c0.078-0.058,0.137-0.129,0.175-0.213C69.162,25.659,69.181,25.562,69.181,25.458z
				 M68.221,28.449c0.393,0,0.688-0.065,0.887-0.198c0.198-0.133,0.298-0.312,0.298-0.537c0-0.217-0.094-0.385-0.282-0.504
				s-0.49-0.181-0.908-0.181H67.22v1.347c0.167,0.028,0.328,0.047,0.485,0.059C67.86,28.444,68.032,28.449,68.221,28.449z"/>
			<path fill="#FFFFFF" d="M75.24,29.315l-0.031-0.693c-0.111,0.117-0.228,0.228-0.35,0.325c-0.122,0.101-0.256,0.187-0.401,0.259
				c-0.146,0.073-0.306,0.129-0.478,0.17c-0.173,0.039-0.361,0.061-0.566,0.061c-0.271,0-0.51-0.04-0.715-0.12
				c-0.206-0.08-0.378-0.19-0.518-0.334c-0.139-0.144-0.244-0.313-0.315-0.517c-0.071-0.203-0.106-0.426-0.106-0.668
				c0-0.252,0.053-0.482,0.159-0.694c0.105-0.212,0.268-0.396,0.485-0.548c0.217-0.153,0.488-0.273,0.813-0.36
				c0.325-0.087,0.707-0.13,1.146-0.13h0.694v-0.318c0-0.136-0.019-0.259-0.058-0.367c-0.038-0.11-0.1-0.203-0.185-0.279
				c-0.086-0.077-0.196-0.136-0.332-0.178c-0.136-0.042-0.303-0.063-0.501-0.063c-0.313,0-0.622,0.036-0.926,0.107
				c-0.305,0.071-0.6,0.171-0.885,0.3v-1.018c0.254-0.102,0.547-0.185,0.879-0.251c0.332-0.065,0.678-0.099,1.036-0.099
				c0.394,0,0.73,0.037,1.013,0.112c0.281,0.074,0.514,0.187,0.695,0.336c0.183,0.149,0.317,0.337,0.406,0.562
				c0.086,0.225,0.129,0.486,0.129,0.785v3.622H75.24z M75.058,26.971H74.28c-0.216,0-0.398,0.021-0.548,0.063
				s-0.271,0.1-0.365,0.172c-0.095,0.073-0.163,0.157-0.207,0.254c-0.043,0.096-0.064,0.196-0.064,0.306
				c0,0.216,0.069,0.38,0.208,0.493c0.14,0.113,0.329,0.169,0.569,0.169c0.178,0,0.361-0.063,0.553-0.192
				c0.192-0.129,0.402-0.313,0.632-0.554V26.971L75.058,26.971z"/>
			<path fill="#FFFFFF" d="M81.043,29.315v-2.232h-2.062v2.232H77.73v-5.303h1.252V26h2.062v-1.988h1.248v5.303H81.043z"/>
			<path fill="#FFFFFF" d="M86.911,29.315V26H86.9l-2.093,3.313h-1.206v-5.303h1.253v3.313h0.011l2.087-3.313h1.211v5.303
				L86.911,29.315L86.911,29.315z"/>
			<path fill="#FFFFFF" d="M94.167,26.256c0,0.087-0.004,0.199-0.008,0.34c-0.007,0.139-0.015,0.27-0.025,0.391h-3.484
				c0,0.233,0.035,0.438,0.105,0.616c0.072,0.178,0.173,0.326,0.304,0.446c0.131,0.119,0.287,0.211,0.47,0.273
				c0.184,0.063,0.387,0.094,0.608,0.094c0.257,0,0.532-0.021,0.827-0.061c0.293-0.04,0.599-0.104,0.916-0.195v1.014
				c-0.137,0.037-0.284,0.072-0.444,0.104s-0.323,0.059-0.49,0.083s-0.336,0.043-0.506,0.056c-0.171,0.013-0.336,0.019-0.496,0.019
				c-0.403,0-0.766-0.058-1.086-0.172c-0.319-0.115-0.591-0.285-0.813-0.511c-0.223-0.224-0.394-0.5-0.512-0.832
				c-0.117-0.33-0.178-0.713-0.178-1.147c0-0.431,0.061-0.823,0.178-1.177c0.118-0.354,0.285-0.655,0.502-0.908
				c0.215-0.252,0.478-0.446,0.784-0.584c0.31-0.138,0.651-0.206,1.031-0.206c0.375,0,0.708,0.058,0.996,0.175
				c0.288,0.116,0.53,0.279,0.726,0.487c0.195,0.209,0.344,0.458,0.444,0.747C94.115,25.595,94.167,25.913,94.167,26.256z
				 M92.872,26.074c0.004-0.209-0.022-0.391-0.078-0.545c-0.057-0.155-0.133-0.282-0.228-0.384
				c-0.096-0.101-0.207-0.176-0.335-0.225c-0.127-0.049-0.264-0.073-0.409-0.073c-0.319,0-0.583,0.107-0.788,0.321
				c-0.205,0.213-0.326,0.516-0.365,0.904L92.872,26.074L92.872,26.074z"/>
			<path fill="#FFFFFF" d="M105.59,29.112c-0.25,0.102-0.51,0.176-0.776,0.225c-0.269,0.049-0.549,0.072-0.841,0.072
				c-0.421,0-0.799-0.058-1.133-0.172c-0.334-0.115-0.617-0.285-0.852-0.512c-0.232-0.227-0.41-0.506-0.533-0.84
				c-0.125-0.334-0.187-0.721-0.187-1.159c0-0.424,0.065-0.81,0.201-1.153c0.134-0.345,0.321-0.639,0.565-0.882
				c0.243-0.243,0.536-0.432,0.879-0.563c0.344-0.133,0.726-0.198,1.146-0.198c0.345,0,0.634,0.018,0.869,0.055
				c0.234,0.036,0.445,0.082,0.634,0.138v1.237c-0.216-0.107-0.448-0.191-0.702-0.251c-0.252-0.059-0.49-0.088-0.717-0.088
				c-0.236,0-0.449,0.04-0.639,0.12c-0.188,0.08-0.346,0.191-0.475,0.334s-0.227,0.314-0.295,0.52
				c-0.066,0.203-0.102,0.428-0.102,0.67c0,0.254,0.035,0.482,0.109,0.685c0.072,0.202,0.176,0.373,0.311,0.515
				c0.134,0.141,0.295,0.248,0.482,0.323c0.188,0.075,0.396,0.112,0.627,0.112c0.11,0,0.229-0.008,0.353-0.023
				c0.123-0.016,0.247-0.038,0.37-0.068c0.123-0.028,0.244-0.063,0.365-0.102c0.119-0.039,0.231-0.08,0.336-0.125v1.131H105.59z"/>
			<path fill="#FFFFFF" d="M111.954,26.622c0,0.418-0.061,0.801-0.179,1.146c-0.118,0.347-0.289,0.645-0.512,0.891
				c-0.224,0.247-0.495,0.438-0.819,0.573c-0.322,0.136-0.691,0.204-1.105,0.204c-0.394,0-0.744-0.059-1.055-0.172
				c-0.31-0.115-0.572-0.286-0.787-0.516c-0.217-0.228-0.382-0.513-0.496-0.854c-0.114-0.343-0.172-0.742-0.172-1.198
				c0-0.421,0.06-0.804,0.18-1.148c0.119-0.344,0.291-0.637,0.517-0.881c0.226-0.243,0.499-0.432,0.822-0.566
				c0.323-0.134,0.688-0.2,1.096-0.2c0.396,0,0.75,0.058,1.06,0.175c0.311,0.116,0.572,0.289,0.789,0.519
				c0.215,0.229,0.379,0.515,0.492,0.854C111.896,25.786,111.954,26.176,111.954,26.622z M110.627,26.653
				c0-0.549-0.104-0.963-0.312-1.238c-0.207-0.276-0.512-0.416-0.915-0.416c-0.224,0-0.413,0.044-0.568,0.131
				c-0.156,0.087-0.285,0.207-0.387,0.357c-0.102,0.151-0.176,0.328-0.223,0.529c-0.047,0.202-0.07,0.418-0.07,0.646
				c0,0.555,0.111,0.971,0.334,1.25c0.223,0.28,0.527,0.42,0.914,0.42c0.212,0,0.396-0.041,0.553-0.127s0.283-0.203,0.381-0.354
				c0.099-0.151,0.172-0.33,0.221-0.535C110.603,27.111,110.627,26.89,110.627,26.653z"/>
			<path fill="#FFFFFF" d="M116.358,29.315l-1.994-2.65v2.65h-1.252v-5.303h1.252v2.244l1.879-2.244h1.571l-2.149,2.417l2.328,2.886
				H116.358z"/>
			<path fill="#FFFFFF" d="M122.256,29.315l-0.031-0.693c-0.111,0.117-0.229,0.228-0.35,0.325c-0.123,0.101-0.256,0.187-0.401,0.259
				c-0.146,0.073-0.306,0.129-0.478,0.17c-0.174,0.039-0.361,0.061-0.566,0.061c-0.271,0-0.51-0.04-0.715-0.12
				c-0.207-0.08-0.379-0.19-0.519-0.334c-0.139-0.144-0.243-0.313-0.315-0.517c-0.07-0.203-0.105-0.426-0.105-0.668
				c0-0.252,0.053-0.482,0.159-0.694c0.104-0.212,0.269-0.396,0.485-0.548c0.217-0.153,0.488-0.273,0.813-0.36
				c0.325-0.087,0.707-0.13,1.146-0.13h0.693v-0.318c0-0.136-0.019-0.259-0.058-0.367c-0.038-0.11-0.101-0.203-0.185-0.279
				c-0.086-0.077-0.197-0.136-0.332-0.178c-0.137-0.042-0.304-0.063-0.502-0.063c-0.313,0-0.621,0.036-0.926,0.107
				c-0.305,0.071-0.6,0.171-0.885,0.3v-1.018c0.254-0.102,0.547-0.185,0.879-0.251c0.332-0.065,0.678-0.099,1.036-0.099
				c0.394,0,0.729,0.037,1.013,0.112c0.281,0.074,0.514,0.187,0.696,0.336c0.183,0.149,0.317,0.337,0.405,0.562
				c0.087,0.225,0.13,0.486,0.13,0.785v3.622H122.256z M122.073,26.971h-0.777c-0.215,0-0.397,0.021-0.547,0.063
				c-0.15,0.041-0.271,0.1-0.365,0.172c-0.096,0.073-0.163,0.157-0.207,0.254c-0.043,0.096-0.064,0.196-0.064,0.306
				c0,0.216,0.069,0.38,0.208,0.493c0.14,0.113,0.329,0.169,0.569,0.169c0.178,0,0.361-0.063,0.553-0.192s0.402-0.313,0.633-0.554
				v-0.71H122.073z"/>
		</g>
		<g>
			<path fill="#FFFFFF" d="M71.234,18.52c0.273,0.01,0.529-0.006,0.766-0.047s0.443-0.106,0.619-0.195s0.313-0.201,0.414-0.338
				c0.1-0.137,0.15-0.298,0.15-0.485c0-0.132-0.02-0.245-0.058-0.338s-0.088-0.178-0.147-0.253s-0.122-0.148-0.188-0.219
				s-0.129-0.146-0.188-0.226s-0.108-0.171-0.147-0.273s-0.058-0.227-0.058-0.373c0-0.141,0.025-0.279,0.075-0.414
				S72.594,15.105,72.69,15s0.213-0.189,0.352-0.253s0.297-0.096,0.475-0.096c0.223,0,0.424,0.051,0.602,0.154
				s0.328,0.242,0.451,0.417s0.217,0.376,0.28,0.602s0.096,0.461,0.096,0.708c0,0.424-0.077,0.823-0.232,1.196
				s-0.388,0.7-0.697,0.978c-0.31,0.277-0.696,0.497-1.159,0.659s-1.004,0.243-1.624,0.243V18.52z"/>
		</g>
	</g>
</g>
</svg>
