<?xml version="1.0" encoding="utf-8"?>
<!-- Generator: Adobe Illustrator 15.1.0, SVG Export Plug-In . SVG Version: 6.00 Build 0)  -->
<!DOCTYPE svg PUBLIC "-//W3C//DTD SVG 1.1//EN" "http://www.w3.org/Graphics/SVG/1.1/DTD/svg11.dtd">
<svg version="1.1" id="Layer_1" xmlns="http://www.w3.org/2000/svg" xmlns:xlink="http://www.w3.org/1999/xlink" x="0px" y="0px"
	 width="943.463px" height="292.57px" viewBox="-154.403 -7.216 943.463 292.57"
	 enable-background="new -154.403 -7.216 943.463 292.57" xml:space="preserve">
<symbol  id="fade">
	<g id="Layer_1_2_">
	</g>
</symbol>
<g id="Layer_1_1_">
	<g id="line">
		<g id="Layer_1_16_">
			<g>
				<polygon fill="#E8EDD1" points="783.991,75.305 522.999,75.305 522.999,-6.646 783.991,-6.646 				"/>
				<path fill="#E8EED3" d="M784.505,75.805H522.488v-82.95h262.018V75.805L784.505,75.805z M523.511,74.805H783.48v-80.95H523.511
					V74.805z"/>
			</g>
			<g>
				<polygon fill="#E8EDD1" points="783.991,75.305 522.999,75.305 522.999,-6.646 783.991,-6.646 				"/>
				<path fill="#E8EED3" d="M784.505,75.805H522.488v-82.95h262.018V75.805L784.505,75.805z M523.511,74.805H783.48v-80.95H523.511
					V74.805z"/>
			</g>
		</g>
	</g>
	<g id="line_1_">
		<g id="Layer_1_17_">
			<g>
				<polygon fill="#E8EDD1" points="783.991,169.805 522.999,169.805 522.999,87.855 783.991,87.855 				"/>
				<path fill="#E8EED3" d="M784.505,170.307H522.488V87.355h262.018V170.307L784.505,170.307z M523.511,169.307H783.48V88.355
					H523.511V169.307z"/>
			</g>
			<g>
				<polygon fill="#E8EDD1" points="783.991,169.805 522.999,169.805 522.999,87.855 783.991,87.855 				"/>
				<path fill="#E8EED3" d="M784.505,170.307H522.488V87.355h262.018V170.307L784.505,170.307z M523.511,169.307H783.48V88.355
					H523.511V169.307z"/>
			</g>
		</g>
	</g>
	<g id="line_2_">
		<g id="Layer_1_18_">
			<g>
				<polygon fill="#E8EDD1" points="783.991,264.307 522.999,264.307 522.999,182.356 783.991,182.356 				"/>
				<path fill="#E8EED3" d="M784.505,264.807H522.488v-82.951h262.018V264.807L784.505,264.807z M523.511,263.807H783.48v-80.951
					H523.511V263.807z"/>
			</g>
			<g>
				<polygon fill="#E8EDD1" points="783.991,264.307 522.999,264.307 522.999,182.356 783.991,182.356 				"/>
				<path fill="#E8EED3" d="M784.505,264.807H522.488v-82.951h262.018V264.807L784.505,264.807z M523.511,263.807H783.48v-80.951
					H523.511V263.807z"/>
			</g>
		</g>
	</g>
	<g id="line2_2_">
		<g id="Layer_1_21_">
			<polygon fill="#B8C2CB" points="458.992,90.354 223.899,90.354 223.899,42.354 458.992,42.354 			"/>
			<polygon fill="#E9EBE4" points="458.992,90.354 223.899,90.354 223.899,42.354 458.992,42.354 			"/>
		</g>
	</g>
	<g id="line2_1_">
		<g id="Layer_1_20_">
			<polygon fill="#B8C2CB" points="458.992,152.854 223.899,152.854 223.899,104.854 458.992,104.854 			"/>
			<polygon fill="#E9EBE4" points="458.992,152.854 223.899,152.854 223.899,104.854 458.992,104.854 			"/>
		</g>
	</g>
	<g id="line2">
		<g id="Layer_1_19_">
			<polygon fill="#B8C2CB" points="458.992,215.354 223.899,215.354 223.899,167.354 458.992,167.354 			"/>
			<polygon fill="#E9EBE4" points="458.992,215.354 223.899,215.354 223.899,167.354 458.992,167.354 			"/>
		</g>
	</g>
	<g id="line0">
		<g id="Layer_1_22_">
			<polygon fill="#E8EDD1" stroke="#E8EED3" stroke-miterlimit="10" points="162,78.854 162,177.854 1,177.854 1,78.854 			"/>
			<polygon fill="#E8EDD1" stroke="#E8EED3" stroke-miterlimit="10" points="162,78.854 162,177.854 1,177.854 1,78.854 			"/>
		</g>
	</g>
	
		<use xlink:href="#fade"  width="-32766" height="-32766" id="XMLID_2_" x="16383" y="16383" transform="matrix(0 0 0 0 16382.999 16375.3535)" overflow="visible"/>
	<rect x="9" y="89.808" fill="none" width="143" height="78.201"/>
	<text transform="matrix(1 0 0 1 11.0002 105.6079)" font-family="'Consolas'" font-size="20">Как часто </text>
	<text transform="matrix(1 0 0 1 11.0002 131.0073)" font-family="'Consolas'" font-size="20">используется </text>
	<text transform="matrix(1 0 0 1 11.0002 156.4077)" font-family="'Consolas'" font-size="20">предмет?</text>
	<rect x="233" y="54.408" fill="none" width="213.999" height="27.4"/>
	<text transform="matrix(1 0 0 1 234.9998 70.2075)" font-family="'Consolas'" font-size="20">Используется редко</text>
	<rect x="233" y="115.908" fill="none" width="213.999" height="27.399"/>
	<text transform="matrix(1 0 0 1 234.9998 131.7075)" font-family="'Consolas'" font-size="20">Используется иногда</text>
	<rect x="233.45" y="178.856" fill="none" width="213.998" height="27.398"/>
	<text transform="matrix(1 0 0 1 235.45 194.6567)" font-family="'Consolas'" font-size="20">Используется часто</text>
	<rect x="533.999" y="8.408" fill="none" width="228" height="52.799"/>
	<text transform="matrix(1 0 0 1 535.9993 24.2075)" font-family="'Consolas'" font-size="20">Расположить вдали от </text>
	<text transform="matrix(1 0 0 1 535.9993 49.6069)" font-family="'Consolas'" font-size="20">рабочего места</text>
	<rect x="533.999" y="101.908" fill="none" width="228" height="52.799"/>
	<text transform="matrix(1 0 0 1 535.9993 117.7075)" font-family="'Consolas'" font-size="20">Расположить рядом с </text>
	<text transform="matrix(1 0 0 1 535.9993 143.1069)" font-family="'Consolas'" font-size="20">рабочим местом</text>
	<rect x="533.999" y="185.356" fill="none" width="236" height="78.201"/>
	<text transform="matrix(1 0 0 1 535.9993 201.1567)" font-family="'Consolas'" font-size="20">Расположить </text>
	<text transform="matrix(1 0 0 1 535.9993 226.5571)" font-family="'Consolas'" font-size="20">непосредственно в </text>
	<text transform="matrix(1 0 0 1 535.9993 251.9575)" font-family="'Consolas'" font-size="20">зоне работы</text>
	<g id="arrow">
		<g id="Layer_1_13_">
			
				<linearGradient id="SVGID_1_" gradientUnits="userSpaceOnUse" x1="-7938.3047" y1="-8072.6099" x2="-7909.3555" y2="-8072.6099" gradientTransform="matrix(0 -0.7111 0.7111 0 6229.3838 -5568.3125)">
				<stop  offset="0" style="stop-color:#AED345"/>
				<stop  offset="1" style="stop-color:#8DB321"/>
			</linearGradient>
			<polygon fill="url(#SVGID_1_)" points="460.151,71.14 460.151,61.148 503.35,61.148 503.35,55.994 517.752,66.305 503.35,76.58 
				503.35,71.14 			"/>
		</g>
	</g>
	<g id="arrow_1_">
		<g id="Layer_1_14_">
			
				<linearGradient id="SVGID_2_" gradientUnits="userSpaceOnUse" x1="-7938.3076" y1="-8072.6099" x2="-7909.3574" y2="-8072.6099" gradientTransform="matrix(0 -0.7111 0.7111 0 6229.3838 -5505.1641)">
				<stop  offset="0" style="stop-color:#AED345"/>
				<stop  offset="1" style="stop-color:#8DB321"/>
			</linearGradient>
			<polygon fill="url(#SVGID_2_)" points="460.151,134.288 460.151,124.297 503.35,124.297 503.35,119.143 517.752,129.453 
				503.35,139.729 503.35,134.288 			"/>
		</g>
	</g>
	<g id="arrow_2_">
		<g id="Layer_1_15_">
			
				<linearGradient id="SVGID_3_" gradientUnits="userSpaceOnUse" x1="-7938.3047" y1="-8072.6099" x2="-7909.3555" y2="-8072.6099" gradientTransform="matrix(0 -0.7111 0.7111 0 6229.3838 -5442.063)">
				<stop  offset="0" style="stop-color:#AED345"/>
				<stop  offset="1" style="stop-color:#8DB321"/>
			</linearGradient>
			<polygon fill="url(#SVGID_3_)" points="460.151,197.389 460.151,187.399 503.35,187.399 503.35,182.244 517.752,192.555 
				503.35,202.83 503.35,197.389 			"/>
		</g>
	</g>
	<g id="line3_1_">
		<g id="Layer_1_10_">
			
				<linearGradient id="SVGID_4_" gradientUnits="userSpaceOnUse" x1="451.5515" y1="440.604" x2="511.6516" y2="440.604" gradientTransform="matrix(1 0 0 1 -288.8003 -312.25)">
				<stop  offset="0" style="stop-color:#AED345"/>
				<stop  offset="1" style="stop-color:#8DB321"/>
			</linearGradient>
			<polygon fill="url(#SVGID_4_)" points="222.852,123.354 222.852,133.354 162.751,133.354 162.751,123.354 			"/>
		</g>
	</g>
	<g id="line3_3_">
		<g id="Layer_1_12_">
			
				<linearGradient id="SVGID_5_" gradientUnits="userSpaceOnUse" x1="478.3508" y1="504.7544" x2="511.6477" y2="504.7544" gradientTransform="matrix(1 0 0 1 -288.8003 -312.25)">
				<stop  offset="0" style="stop-color:#AED345"/>
				<stop  offset="1" style="stop-color:#8DB321"/>
			</linearGradient>
			<polygon fill="url(#SVGID_5_)" points="222.848,187.504 222.848,197.504 189.55,197.504 189.55,187.504 			"/>
		</g>
	</g>
	<g id="line3">
		<g id="Layer_1_9_">
			
				<linearGradient id="SVGID_6_" gradientUnits="userSpaceOnUse" x1="-7615.7959" y1="-8067.27" x2="-7572.2964" y2="-8067.27" gradientTransform="matrix(0 -3.1255 1 0 8261.8213 -23605.8711)">
				<stop  offset="0" style="stop-color:#AED345"/>
				<stop  offset="1" style="stop-color:#8DB321"/>
			</linearGradient>
			<polygon fill="url(#SVGID_6_)" points="189.551,61.343 199.551,61.343 199.551,197.301 189.551,197.301 			"/>
		</g>
	</g>
	<g id="fade1">
		<g id="Layer_1_7_">
		</g>
	</g>
	<g id="fade2">
		<g id="Layer_1_8_">
		</g>
	</g>
	<g id="line3_2_">
		<g id="Layer_1_11_">
			
				<linearGradient id="SVGID_7_" gradientUnits="userSpaceOnUse" x1="478.3508" y1="378.0044" x2="511.6477" y2="378.0044" gradientTransform="matrix(1 0 0 1 -288.8003 -312.25)">
				<stop  offset="0" style="stop-color:#AED345"/>
				<stop  offset="1" style="stop-color:#8DB321"/>
			</linearGradient>
			<polygon fill="url(#SVGID_7_)" points="222.848,60.754 222.848,70.754 189.55,70.754 189.55,60.754 			"/>
		</g>
	</g>
</g>
<g id="Layer_2">
	<g id="Layer_3_1_">
		<path d="M-81.49,15.247c-7.322,1.423-15.836,2.034-25.544,1.833c-3.484-0.063-7.125-0.233-10.916-0.513
			c-0.343,2.815-0.584,5.587-0.729,8.316c-0.227,3.865-0.269,7.661-0.126,11.386c0.057,3.838,1.832,7.122,5.331,9.851
			c0.085,0.085,0.183,0.156,0.298,0.213c0.683,0.511,1.395,0.979,2.132,1.406c-4.149,1.279-7.434,1.947-9.851,2.006
			c-2.445,0.028-4.123,0-5.032-0.087c-0.938-0.056-2.076-0.34-3.412-0.853l1.919-8.103l-4.988,6.653l-3.412-4.179
			c4.747-6.168,7.676-12.268,8.785-18.294c0-0.085,0.015-0.17,0.042-0.256l2.303-10.917c-0.198-5.601,1.605-10.462,5.417-14.585
			c2.904-3.145,6.984-4.458,12.239-3.944c1.634,0.157,3.383,0.49,5.246,1.002c-0.113-0.141,0.54-0.512,1.962-1.109
			c4.178-1.678,8.355-1.179,12.535,1.493c4.151,2.674,6.482,6.796,6.993,12.367c0.115,1.308,0.442,3.271,0.98,5.886
			C-80.027,14.961-80.752,15.104-81.49,15.247z M-86.224,46.846c0.257-0.228,0.512-0.482,0.767-0.767
			c2.416-2.473,3.625-5.473,3.625-8.998c0.427-4.548,0.683-8.614,0.769-12.196c0.057-3.384-0.043-6.341-0.299-8.87
			c0.34,2.843,0.738,5.8,1.192,8.87c0.114,0.88,0.229,1.762,0.343,2.644c0.54,3.98,1.548,7.72,3.027,11.215
			c1.309,3.242,2.132,4.975,2.473,5.203c-1.279,0.91-2.602,1.592-3.965,2.046C-80.027,46.589-82.671,46.874-86.224,46.846z"/>
		<path fill="#663300" d="M-153.135,129.003c0.626-8.899,3.715-19.851,2.818-38.362c0.796-2.7,5.387-6.681,13.773-11.94
			l17.015-13.049l11.216-5.629c-2.614,3.497-3.254,7.42-1.919,11.77c0.746,2.54,1.813,4.478,3.198,5.821
			c0.989,0.967,2.141,1.627,3.455,1.983c-0.427,4.633,1.506,8.031,5.8,10.19l7.462,3.071c0.853-0.91,2.23-2.744,4.138-5.501
			c1.875-2.786,1.875-6.354,0-10.704c1.904-2.246,2.757-4.663,2.559-7.249c-0.257-3.953-1.765-7.292-4.521-10.021l11.727,3.881
			c6.737,4.833,12.821,8.074,18.252,9.723c13.638,4.401,35.007,10.333,40.01,10.119c0.329,1-0.144,1.199-0.267,2.365
			c-0.843,3.008-1.22,3.684-1.663,4.782c-0.791,1.638-0.822,1.733-1.429,3.145c-0.245,0.826-0.325,1.267-0.704,2.733
			c-10.946-4.735-21.869-7.837-32.173-12.239c-7.218-3.145-16.688-7.619-20.833-8.133h-0.47c1.052,3.838,1.038,7.731-0.042,11.683
			c-0.542,1.992-1.323,3.911-2.346,5.757c-1.621,2.872-3.157,8.103-4.605,15.693c0.768,4.066,2.23,7.847,4.392,11.343
			c0.768,1.28,1.691,2.388,2.772,3.328c-0.457,0.339-0.997,0.695-1.621,1.066c-0.938,0.567-2.076,1.108-3.411,1.618
			c-2.188,0.883-5.885,1.579-11.088,2.09c-5.187,0.48-10.319,0.387-15.396-0.277c-0.042-0.008-0.084-0.015-0.127-0.021
			c-3.866-0.513-6.993-1.492-9.383-2.942c-0.824-0.511-1.578-1.066-2.258-1.663c10.405-8.102,10.902-22.971,1.493-44.606
			c-9.354,4.009-16.916,8.729-22.689,14.158c0.882,10.661-3.309,13.796,0.697,29.898c0.124,0.364,0.728,1.992,1.263,3.92
			 M-86.863,98.914c-0.398-0.34-0.881-0.512-1.449-0.512c-0.542,0-1.009,0.171-1.408,0.512c-0.397,0.341-0.597,0.755-0.597,1.237
			c0,0.483,0.199,0.938,0.597,1.365c0.399,0.455,0.867,0.668,1.408,0.639c0.567-0.028,1.051-0.241,1.449-0.639
			c0.397-0.427,0.597-0.881,0.597-1.365S-86.466,99.254-86.863,98.914z M-88.484,113.839c0.397,0.399,0.881,0.597,1.451,0.597
			c0.596,0,1.094-0.198,1.491-0.597c0.397-0.398,0.598-0.881,0.598-1.449c0-0.597-0.199-1.095-0.598-1.493
			c-0.397-0.398-0.896-0.597-1.491-0.597c-0.57,0-1.054,0.199-1.451,0.597c-0.398,0.398-0.596,0.896-0.596,1.493
			C-89.081,112.958-88.883,113.44-88.484,113.839z"/>
		<path fill="#FF9966" d="M-94.241,57.292c1.421,5.544,0.91,8.628-1.534,9.254c-4.352,1.193-7.266-1.606-8.742-8.401V50
			c-0.865-0.146-1.702-0.337-2.517-0.575c-1.41-0.421-2.747-0.982-4.009-1.685c-0.737-0.427-1.449-0.896-2.132-1.407
			c-0.114-0.058-0.213-0.128-0.298-0.213c-3.499-2.729-5.274-6.013-5.331-9.851c-0.143-3.725-0.1-7.52,0.126-11.386
			c0.145-2.729,0.385-5.501,0.729-8.316c3.791,0.278,7.431,0.448,10.916,0.513c9.708,0.2,18.223-0.411,25.544-1.833l0.127,0.767
			c0.257,2.53,0.355,5.487,0.3,8.87c-0.086,3.582-0.341,7.648-0.768,12.196c0,3.525-1.209,6.524-3.625,8.998
			c-0.257,0.285-0.511,0.54-0.768,0.767c-0.341,0.312-0.696,0.597-1.065,0.853c-2.02,1.422-4.321,2.132-6.908,2.132L-94.241,57.292z
			 M-20.369,92.183c-0.357-2.232,1.215-3.716,1.991-6.988c0.799-0.904,5.323-1.289,8.235-1.146c2.353,0.374,5.979,0.904,7.597,1.548
			l6.521,1.73c0.715,0.989-0.104,1.551-2.453,1.686l-5.131-1.277l-5.918,6.458C-11.682,93.208-20.512,93.898-20.369,92.183z
			 M-73.6,186.675l-1.407,8.529l-4.563,44.222c-0.398,2.93-0.611,5.885-0.641,8.871c-0.029,4.86,0.44,9.779,1.406,14.754l8.87,6.313
			c-0.739,2.814-3.597,3.751-8.57,2.814c-4.947-1.023-7.69-3.668-8.23-7.933c-0.453-0.797-0.908-2.603-1.364-5.417
			c-0.968-3.639-1.806-7.148-2.518-10.532c-3.099-14.614-4.022-27.094-2.771-37.442c0.113-1.25,0.285-2.443,0.512-3.582
			c0.398-2.502,0.969-4.86,1.706-7.078c0.229-0.825,0.515-1.635,0.854-2.432c0.513-3.64,0.853-6.41,1.022-8.314
			c2.161-0.37,4.464-0.711,6.909-1.023c0.284-0.113,1.521-0.229,3.709-0.342C-77.111,187.998-75.422,187.528-73.6,186.675z
			 M-122.344,271.325c-2.075,2.045-5.004,1.404-8.785-1.92c-3.781-3.325-4.848-6.979-3.198-10.961c-0.028-2.729,0-5.372,0.085-7.932
			c0.455-17.455,2.872-31.628,7.25-42.517c0.455-1.138,0.924-2.231,1.407-3.284c1.054-2.302,2.218-4.434,3.497-6.396
			c0.455-0.737,0.94-1.448,1.451-2.133c1.224-1.732,1.947-4.136,2.173-7.205c1.991,0.426,4.124,0.81,6.398,1.15
			c1.477,0.725,3.154,1.221,5.032,1.493c1.445,0.221,3.008,0.305,4.689,0.256l-2.813,5.799l-15.865,41.536
			c-1.706,4.094-3.041,7.861-4.007,11.301c-1.139,4.065-1.75,7.69-1.834,10.875L-122.344,271.325z M-150.021,128.577
			c1.017-0.237,2.546-0.322,5.711-0.915l3.002,0.555c3.908,3.49,6.928,4.15,4.3,5.492c-2.349-0.447-3.886-2.429-4.419-1.917
			c-0.607,2.03-0.743,3.692-0.409,4.987c0.372,1.279,1.49,4.261,2.2,7.609c-1.063,0.896-3.075-0.502-5.088-1.426
			c-2.833-2.298-4.408-4.221-4.85-10.309L-150.021,128.577z M-94.839,37.25c-2.046,0.341-4.065,0.398-6.055,0.17
			c-1.961-0.238-4.008-0.672-6.142-1.3c-0.155-0.051-0.313-0.101-0.469-0.149c0,1.336,0.07,2.289,0.213,2.857
			c0.064,0.273,0.15,0.543,0.256,0.811c0.354,0.901,0.938,1.768,1.749,2.601c1.278,1.279,3.524,1.919,6.737,1.919
			c3.325,0.029,5.628-0.726,6.908-2.26c0.939-1.138,1.563-2.275,1.875-3.412c0.142-0.654,0.229-1.649,0.257-2.985
			C-92.15,36.611-93.928,37.194-94.839,37.25z"/>
		<path fill="#FFFFFF" d="M-104.517,58.146c1.479,6.795,4.391,9.595,8.742,8.401c2.444-0.625,2.955-3.71,1.534-9.254
			c2.332,3.64,3.837,9.752,4.521,18.337c0.483,7.249,0.283,12.992-0.597,17.228c-8.103-10.547-13.121-21.976-15.052-34.285
			L-104.517,58.146z M-94.839,37.25c0.91-0.056,2.688-0.639,5.331-1.749c-0.026,1.336-0.114,2.332-0.257,2.985
			c-0.313,1.137-0.938,2.274-1.875,3.412c-1.279,1.535-3.583,2.29-6.908,2.26c-3.214,0-5.459-0.64-6.737-1.919
			c-0.812-0.834-1.396-1.7-1.749-2.602c-0.105-0.267-0.19-0.537-0.255-0.81c-0.145-0.568-0.214-1.521-0.214-2.858
			c0.156,0.049,0.313,0.098,0.469,0.149c2.133,0.628,4.181,1.063,6.142,1.3C-98.903,37.648-96.885,37.592-94.839,37.25z"/>
		<path fill="#999999" d="M-105.37,58.573c1.932,12.311,6.949,23.738,15.052,34.286l-7.462-3.071
			c-4.293-2.16-6.227-5.559-5.799-10.19c-1.315-0.356-2.467-1.017-3.455-1.983c-1.387-1.343-2.453-3.283-3.199-5.821
			c-1.335-4.35-0.695-8.273,1.919-11.77L-105.37,58.573z M-90.318,92.858c0.88-4.236,1.082-9.979,0.598-17.228
			c-0.684-8.585-2.188-14.697-4.521-18.337l6.099,2.09c2.756,2.729,4.264,6.069,4.521,10.021c0.197,2.586-0.654,5.003-2.559,7.249
			c1.875,4.35,1.875,7.918,0,10.704C-88.088,90.116-89.466,91.949-90.318,92.858z"/>
		<path fill="#371709" d="M-65.585,180.961v0.043c-2.897,2.586-5.571,4.477-8.016,5.671c-1.821,0.854-3.511,1.322-5.076,1.406
			c-2.188,0.114-3.425,0.229-3.709,0.342c-2.444,0.313-4.748,0.653-6.909,1.023c-2.247,0.396-4.307,0.823-6.183,1.278v-0.041
			c-0.597,0.141-1.138,0.269-1.62,0.381c-1.905,0.399-3.126,0.625-3.668,0.686c-0.541,0.057-1.065,0.098-1.578,0.126
			c-1.683,0.05-3.245-0.035-4.689-0.256c-1.877-0.272-3.556-0.771-5.032-1.492c-2.274-0.342-4.407-0.726-6.398-1.151
			c-9.551-2.133-16.246-7.563-20.084-16.291l10.321-20.381l11.683-27.208c2.391,1.449,5.518,2.43,9.384,2.941
			c0.043,0.007,0.086,0.014,0.128,0.021c5.076,0.665,10.208,0.757,15.395,0.277c5.203-0.511,8.899-1.207,11.087-2.089
			c1.336-0.512,2.475-1.052,3.412-1.62l21.535,49.126c-3.555,4.719-5.97,6.795-7.25,6.227 M-69.934,269.364l10.576,7.675
			l-0.769,2.899c-3.608,1.225-8.557,1.563-14.84,1.022c-0.527-2.167-1.744-3.959-3.645-5.372c-1.154-0.869-2.568-1.593-4.244-2.175
			l-2.259,5.499c-0.343-0.169-1.081-0.469-2.22-0.896c-0.181-0.854-0.345-1.662-0.489-2.43c-0.596-2.958-0.975-5.261-1.129-6.908
			c-0.173-2.133,0.567-3.611,2.217-4.435c0.541,4.265,3.285,6.907,8.23,7.932C-73.53,273.115-70.675,272.178-69.934,269.364z
			 M-134.326,258.446c-1.649,3.979-0.583,7.634,3.197,10.96c3.781,3.325,6.709,3.965,8.785,1.92l5.372,11.938l-2.132,2.09
			c-3.723-0.768-8.172-2.941-13.346-6.523c0.995-3.439-0.043-6.938-3.113-10.49l-4.691,3.667c-0.228-0.342-0.711-0.981-1.45-1.919
			c1.278-4.037,2.374-7.008,3.285-8.914C-137.539,259.27-136.175,258.36-134.326,258.446z M-88.484,113.839
			c-0.398-0.398-0.596-0.881-0.596-1.449c0-0.597,0.197-1.095,0.596-1.493c0.397-0.398,0.881-0.597,1.451-0.597
			c0.596,0,1.094,0.199,1.491,0.597s0.598,0.896,0.598,1.493c0,0.567-0.199,1.051-0.598,1.449c-0.397,0.399-0.896,0.597-1.491,0.597
			C-87.603,114.437-88.088,114.237-88.484,113.839z M-86.863,98.914c0.397,0.341,0.597,0.755,0.597,1.237
			c0,0.483-0.199,0.938-0.597,1.365c-0.398,0.398-0.881,0.611-1.449,0.639c-0.542,0.029-1.009-0.185-1.408-0.639
			c-0.397-0.427-0.597-0.881-0.597-1.365s0.199-0.896,0.597-1.237c0.399-0.34,0.867-0.512,1.408-0.512
			C-87.745,98.401-87.261,98.574-86.863,98.914z"/>
		<g>
			<path d="M-106.139,20.663c0.455,0.454,0.682,1.009,0.682,1.663c0,0.683-0.228,1.251-0.682,1.706
				c-0.454,0.399-1.023,0.597-1.706,0.597c-0.655,0-1.209-0.198-1.663-0.597c-0.398-0.454-0.597-1.023-0.597-1.706
				c0-0.341,0.056-0.654,0.17-0.938c0.086-0.285,0.213-0.512,0.384-0.683l0.043-0.043c0.454-0.455,1.009-0.683,1.663-0.683
				C-107.163,19.979-106.594,20.208-106.139,20.663z"/>
		</g>
		<g>
			<path d="M-90.914,19.853l0.043-0.042c0.454-0.455,1.008-0.683,1.661-0.683c0.685,0,1.251,0.229,1.706,0.683
				s0.684,1.009,0.684,1.663c0,0.683-0.229,1.252-0.684,1.706c-0.455,0.399-1.021,0.597-1.706,0.597
				c-0.654,0-1.207-0.198-1.661-0.597c-0.398-0.454-0.599-1.022-0.599-1.706c0-0.341,0.058-0.654,0.172-0.938
				C-91.214,20.25-91.085,20.022-90.914,19.853z"/>
		</g>
	</g>
</g>
</svg>
