<?xml version="1.0" encoding="utf-8"?>
<!-- Generator: Adobe Illustrator 15.1.0, SVG Export Plug-In . SVG Version: 6.00 Build 0)  -->
<!DOCTYPE svg PUBLIC "-//W3C//DTD SVG 1.1//EN" "http://www.w3.org/Graphics/SVG/1.1/DTD/svg11.dtd">
<svg version="1.1" id="Layer_1" xmlns="http://www.w3.org/2000/svg" xmlns:xlink="http://www.w3.org/1999/xlink" x="0px" y="0px"
	 width="504px" height="119px" viewBox="7 6.5 504 119" enable-background="new 7 6.5 504 119" xml:space="preserve">
<rect x="7" y="7" fill="#FFFCC2" width="505" height="119"/>
<rect x="-677.206" y="-369.047" fill="none" width="1210.825" height="22.188"/>
<text transform="matrix(1.0391 0 0 1 -677.2058 -357.3184)" display="none" fill="#231F20" enable-background="new    " font-family="'Consolas'" font-size="17">R – Responsible – сотрудник, ответственный за фактическое исполнение KPI.</text>
<rect x="94" y="17" fill="none" width="57" height="63"/>
<g enable-background="new    ">
	<path fill="#11B200" d="M117.578,40.321c0,1.641-0.344,3.098-1.031,4.371s-1.641,2.348-2.859,3.223s-2.656,1.539-4.313,1.992
		s-3.453,0.68-5.391,0.68c-0.484,0-1-0.016-1.547-0.047s-1.102-0.07-1.664-0.117s-1.109-0.105-1.641-0.176s-1.023-0.145-1.477-0.223
		v-4.992c0.891,0.219,1.914,0.395,3.07,0.527s2.336,0.199,3.539,0.199c2.344,0,4.129-0.449,5.355-1.348s1.84-2.145,1.84-3.738
		c0-1.656-0.57-2.887-1.711-3.691s-2.984-1.207-5.531-1.207h-6V19.485h17.672v5.391h-12.328v6.234h2.203
		c1.563,0,3.055,0.141,4.477,0.422s2.676,0.77,3.762,1.465s1.953,1.637,2.602,2.824S117.578,38.509,117.578,40.321z"/>
</g>
<g>
	<g>
		<rect x="199" y="82" fill="none" width="57" height="63"/>
	</g>
	<g enable-background="new    ">
		<path fill="#E05000" d="M212.196,108.345c0.5,0,0.973,0.094,1.418,0.281s0.832,0.445,1.16,0.773s0.59,0.715,0.785,1.16
			s0.293,0.926,0.293,1.441s-0.098,0.996-0.293,1.441s-0.457,0.832-0.785,1.16s-0.715,0.586-1.16,0.773s-0.918,0.281-1.418,0.281
			s-0.973-0.094-1.418-0.281s-0.832-0.445-1.16-0.773s-0.586-0.715-0.773-1.16s-0.281-0.926-0.281-1.441s0.094-0.996,0.281-1.441
			s0.445-0.832,0.773-1.16s0.715-0.586,1.16-0.773S211.696,108.345,212.196,108.345z M214.656,105.603h-4.898l-0.867-23.602h6.633
			L214.656,105.603z"/>
	</g>
</g>
<rect x="319" y="26" fill="none" width="57" height="63"/>
<g enable-background="new    ">
	<path fill="#E05000" d="M333.695,59.118h-4.289l-5.695-18.375v18.375h-3.984V28.485h4.266l5.719,18.398V28.485h3.984V59.118z
		 M345.32,34.579c0,1.031-0.113,1.973-0.34,2.824s-0.555,1.582-0.984,2.191s-0.977,1.078-1.641,1.406s-1.426,0.492-2.285,0.492
		c-1.625,0-2.871-0.52-3.738-1.559s-1.301-2.754-1.301-5.145c0-1.063,0.113-2.016,0.34-2.859s0.563-1.559,1.008-2.145
		s0.992-1.035,1.641-1.348s1.395-0.469,2.238-0.469c1.656,0,2.914,0.527,3.773,1.582S345.32,32.282,345.32,34.579z M344.922,46.579
		h-9.164v-3.211h9.164V46.579z M341.64,34.673c0-1.172-0.129-2.059-0.387-2.66s-0.629-0.902-1.113-0.902
		c-0.453,0-0.805,0.332-1.055,0.996s-0.375,1.535-0.375,2.613c0,1.156,0.125,2.051,0.375,2.684s0.602,0.949,1.055,0.949
		c0.484,0,0.855-0.324,1.113-0.973S341.64,35.829,341.64,34.673z"/>
</g>
<rect x="359" y="69" fill="none" width="57" height="63"/>
<g enable-background="new    ">
	<path fill="#0029F2" d="M382.906,92.767c0,1.516-0.281,2.879-0.844,4.09s-1.426,2.242-2.59,3.094s-2.629,1.504-4.395,1.957
		s-3.844,0.68-6.234,0.68c-0.531,0-1.09-0.012-1.676-0.035s-1.168-0.055-1.746-0.094s-1.141-0.086-1.688-0.141
		s-1.039-0.121-1.477-0.199v-4.969c0.984,0.188,2.09,0.34,3.316,0.457s2.504,0.176,3.832,0.176c1.297,0,2.414-0.109,3.352-0.328
		s1.711-0.535,2.32-0.949s1.059-0.926,1.348-1.535s0.434-1.297,0.434-2.063c0-0.672-0.148-1.281-0.445-1.828
		s-0.75-1.012-1.359-1.395s-1.387-0.68-2.332-0.891s-2.066-0.316-3.363-0.316h-3.398v-4.359h3.117c1.219,0,2.23-0.121,3.035-0.363
		s1.445-0.566,1.922-0.973s0.816-0.887,1.02-1.441s0.305-1.137,0.305-1.746c0-1.25-0.406-2.199-1.219-2.848s-2.07-0.973-3.773-0.973
		c-1.219,0-2.422,0.117-3.609,0.352s-2.414,0.547-3.68,0.938v-4.805c0.703-0.234,1.375-0.43,2.016-0.586s1.281-0.289,1.922-0.398
		s1.289-0.188,1.945-0.234s1.336-0.07,2.039-0.07c1.688,0,3.168,0.18,4.441,0.539s2.344,0.871,3.211,1.535s1.52,1.473,1.957,2.426
		s0.656,2.016,0.656,3.188c0,1.859-0.426,3.363-1.277,4.512s-2.043,2.027-3.574,2.637c0.984,0.156,1.875,0.426,2.672,0.809
		s1.48,0.875,2.051,1.477s1.008,1.293,1.313,2.074S382.906,91.813,382.906,92.767z"/>
</g>
<g>
	<g>
		<rect x="457" y="78" fill="none" width="57" height="63"/>
	</g>
	<g enable-background="new    ">
		<path fill="#E05000" d="M461.664,111.118H457l21.75-33.117h4.641L461.664,111.118z M470.547,84.634
			c0,1.047-0.148,2.012-0.445,2.895s-0.723,1.648-1.277,2.297s-1.234,1.152-2.039,1.512s-1.715,0.539-2.73,0.539
			c-1.984,0-3.527-0.594-4.629-1.781s-1.652-2.945-1.652-5.273c0-1.047,0.145-2.012,0.434-2.895s0.711-1.648,1.266-2.297
			s1.234-1.156,2.039-1.523s1.715-0.551,2.73-0.551c1.984,0,3.531,0.594,4.641,1.781S470.547,82.29,470.547,84.634z M466.375,84.728
			c0-1.234-0.188-2.145-0.563-2.73s-0.93-0.879-1.664-0.879c-1.469,0-2.203,1.203-2.203,3.609c0,1.219,0.188,2.121,0.563,2.707
			s0.922,0.879,1.641,0.879C465.633,88.313,466.375,87.118,466.375,84.728z M482.64,104.298c0,1.047-0.148,2.012-0.445,2.895
			s-0.723,1.648-1.277,2.297s-1.234,1.152-2.039,1.512s-1.715,0.539-2.73,0.539c-1.984,0-3.527-0.59-4.629-1.77
			s-1.652-2.941-1.652-5.285c0-1.063,0.145-2.035,0.434-2.918s0.711-1.645,1.266-2.285s1.234-1.145,2.039-1.512
			s1.715-0.551,2.73-0.551c1.984,0,3.531,0.594,4.641,1.781S482.64,101.954,482.64,104.298z M478.469,104.392
			c0-1.234-0.188-2.145-0.563-2.73s-0.93-0.879-1.664-0.879c-1.469,0-2.203,1.203-2.203,3.609c0,1.234,0.188,2.141,0.563,2.719
			s0.922,0.867,1.641,0.867C477.726,107.978,478.469,106.782,478.469,104.392z"/>
	</g>
</g>
<rect x="413" y="17" fill="none" width="57" height="63"/>
<g enable-background="new    ">
	<path fill="#11B200" d="M436.953,32.985c0,2.406-0.203,4.504-0.609,6.293s-0.98,3.316-1.723,4.582s-1.629,2.305-2.66,3.117
		s-2.176,1.453-3.434,1.922s-2.602,0.789-4.031,0.961s-2.91,0.258-4.441,0.258h-3.539V45.22h4.172c1.828,0,3.355-0.16,4.582-0.48
		s2.219-0.789,2.977-1.406s1.32-1.387,1.688-2.309s0.613-1.984,0.738-3.188l0.047-0.586c-0.828,0.391-1.773,0.711-2.836,0.961
		s-2.133,0.375-3.211,0.375c-1.484,0-2.836-0.172-4.055-0.516s-2.27-0.891-3.152-1.641s-1.566-1.723-2.051-2.918
		s-0.727-2.637-0.727-4.324c0-1.531,0.277-2.926,0.832-4.184s1.328-2.332,2.32-3.223s2.172-1.582,3.539-2.074
		s2.863-0.738,4.488-0.738c1.594,0,3.066,0.227,4.418,0.68s2.523,1.223,3.516,2.309s1.766,2.527,2.32,4.324
		S436.953,30.313,436.953,32.985z M425.586,23.774c-0.75,0-1.43,0.125-2.039,0.375s-1.129,0.602-1.559,1.055
		s-0.762,0.996-0.996,1.629s-0.352,1.34-0.352,2.121c0,1.656,0.438,2.887,1.313,3.691s2.086,1.207,3.633,1.207
		c0.422,0,0.871-0.039,1.348-0.117s0.953-0.188,1.43-0.328s0.93-0.301,1.359-0.48s0.809-0.371,1.137-0.574
		c0-1.391-0.09-2.617-0.27-3.68s-0.477-1.957-0.891-2.684s-0.957-1.277-1.629-1.652S426.57,23.774,425.586,23.774z"/>
</g>
<rect x="270" y="62" fill="none" width="57" height="63"/>
<g enable-background="new    ">
	<path fill="#11B200" d="M288.914,85.509c-0.047,0.438-0.082,0.906-0.105,1.406s-0.035,0.93-0.035,1.289
		c0,0.625,0.055,1.031,0.164,1.219s0.273,0.281,0.492,0.281c0.594,0,1.105-0.898,1.535-2.695s0.645-4.484,0.645-8.063
		c0-2.172-0.121-4.09-0.363-5.754s-0.629-3.059-1.16-4.184s-1.219-1.977-2.063-2.555s-1.859-0.867-3.047-0.867
		c-0.922,0-1.813,0.258-2.672,0.773s-1.668,1.238-2.426,2.168s-1.445,2.043-2.063,3.34s-1.148,2.73-1.594,4.301
		s-0.793,3.254-1.043,5.051s-0.375,3.664-0.375,5.602c0,2.313,0.18,4.344,0.539,6.094s0.879,3.211,1.559,4.383
		s1.5,2.055,2.461,2.648s2.051,0.891,3.27,0.891c0.594,0,1.184-0.039,1.77-0.117s1.191-0.203,1.816-0.375s1.273-0.406,1.945-0.703
		s1.398-0.672,2.18-1.125v4.477c-1.172,0.625-2.445,1.109-3.82,1.453s-2.789,0.516-4.242,0.516c-2.063,0-3.848-0.379-5.355-1.137
		s-2.754-1.895-3.738-3.41s-1.719-3.402-2.203-5.66s-0.734-4.887-0.75-7.887c-0.016-2.359,0.141-4.625,0.469-6.797
		s0.801-4.199,1.418-6.082s1.367-3.594,2.25-5.133s1.879-2.855,2.988-3.949s2.32-1.941,3.633-2.543s2.703-0.902,4.172-0.902
		c1.844,0,3.453,0.375,4.828,1.125s2.52,1.852,3.434,3.305s1.598,3.242,2.051,5.367s0.68,4.555,0.68,7.289
		c-0.016,2.719-0.172,5.051-0.469,6.996s-0.75,3.547-1.359,4.805s-1.375,2.184-2.297,2.777s-2.008,0.891-3.258,0.891
		c-1.844,0-3.016-0.898-3.516-2.695c-0.453,0.875-1.035,1.543-1.746,2.004s-1.504,0.691-2.379,0.691
		c-0.703,0-1.332-0.145-1.887-0.434s-1.031-0.746-1.43-1.371s-0.703-1.426-0.914-2.402s-0.316-2.152-0.316-3.527
		c0-1,0.039-2.023,0.117-3.07s0.219-2.066,0.422-3.059s0.477-1.93,0.82-2.813s0.785-1.652,1.324-2.309s1.188-1.176,1.945-1.559
		s1.645-0.574,2.66-0.574c0.531,0,1.051,0.059,1.559,0.176s0.918,0.246,1.23,0.387l3.492-0.75L288.914,85.509z M284.883,77.446
		c-0.078-0.078-0.203-0.145-0.375-0.199s-0.352-0.082-0.539-0.082c-0.5,0-0.918,0.285-1.254,0.855s-0.602,1.285-0.797,2.145
		s-0.336,1.797-0.422,2.813s-0.129,1.977-0.129,2.883c0,0.844,0.02,1.516,0.059,2.016s0.098,0.887,0.176,1.16
		s0.168,0.453,0.27,0.539s0.207,0.129,0.316,0.129c0.203,0,0.469-0.188,0.797-0.563s0.672-0.977,1.031-1.805L284.883,77.446z"/>
</g>
<g>
	<g>
		<rect x="186" y="24" fill="none" width="57" height="63"/>
	</g>
	<g enable-background="new    ">
		<path fill="#11B200" d="M204.281,40.899c0.766,0.422,1.496,0.887,2.191,1.395s1.305,1.094,1.828,1.758s0.938,1.414,1.242,2.25
			S210,48.087,210,49.149c0,1.391-0.281,2.617-0.844,3.68s-1.34,1.953-2.332,2.672s-2.156,1.258-3.492,1.617
			s-2.777,0.539-4.324,0.539c-1.719,0-3.238-0.184-4.559-0.551s-2.43-0.887-3.328-1.559s-1.578-1.484-2.039-2.438
			s-0.691-2.016-0.691-3.188c0-1.047,0.152-1.98,0.457-2.801s0.723-1.566,1.254-2.238s1.145-1.273,1.84-1.805
			s1.434-1.023,2.215-1.477c-0.703-0.406-1.363-0.852-1.98-1.336s-1.16-1.031-1.629-1.641s-0.84-1.289-1.113-2.039
			s-0.41-1.602-0.41-2.555c0-1.109,0.215-2.152,0.645-3.129s1.07-1.832,1.922-2.566s1.922-1.313,3.211-1.734
			s2.801-0.633,4.535-0.633c1.594,0,3.016,0.168,4.266,0.504s2.301,0.816,3.152,1.441s1.5,1.371,1.945,2.238
			s0.668,1.824,0.668,2.871c0,0.969-0.133,1.844-0.398,2.625s-0.625,1.488-1.078,2.121s-0.992,1.203-1.617,1.711
			S204.985,40.462,204.281,40.899z M198.586,43.876c-0.609,0.328-1.184,0.68-1.723,1.055s-1.008,0.789-1.406,1.242
			s-0.715,0.949-0.949,1.488s-0.352,1.145-0.352,1.816c0,1.188,0.461,2.094,1.383,2.719s2.141,0.938,3.656,0.938
			c0.688,0,1.336-0.07,1.945-0.211s1.145-0.359,1.605-0.656s0.824-0.676,1.09-1.137s0.398-1.012,0.398-1.652
			c0-0.656-0.148-1.246-0.445-1.77s-0.703-1.004-1.219-1.441s-1.117-0.852-1.805-1.242S199.352,44.251,198.586,43.876z
			 M199.781,38.696c0.563-0.313,1.09-0.645,1.582-0.996s0.918-0.738,1.277-1.16s0.648-0.883,0.867-1.383s0.328-1.055,0.328-1.664
			c0-1.016-0.398-1.789-1.195-2.32s-1.945-0.797-3.445-0.797c-1.469,0-2.602,0.273-3.398,0.82s-1.195,1.367-1.195,2.461
			c0,0.594,0.133,1.125,0.398,1.594s0.633,0.902,1.102,1.301s1.02,0.77,1.652,1.113S199.063,38.353,199.781,38.696z"/>
	</g>
</g>
<g>
	<g>
		<rect x="69" y="80" fill="none" width="57" height="63"/>
	</g>
	<g enable-background="new    ">
		<path fill="#E05000" d="M72.563,113.118v-5.086h7.805V88.345l-6.797,3.75l-1.875-4.664l9.727-5.133h4.805v25.734h6.727v5.086
			H72.563z"/>
	</g>
</g>
<rect x="33" y="33" fill="none" width="57" height="63"/>
<g enable-background="new    ">
	<path fill="#0029F2" d="M55.617,43.173c0,1.313-0.199,2.488-0.598,3.527s-0.969,1.938-1.711,2.695s-1.637,1.371-2.684,1.84
		s-2.219,0.789-3.516,0.961l-0.234,4.406h-4.898l-0.422-8.813h3.398c0.766,0,1.426-0.109,1.98-0.328s1.008-0.516,1.359-0.891
		s0.609-0.809,0.773-1.301s0.246-1.012,0.246-1.559c0-0.75-0.16-1.449-0.48-2.098s-0.82-1.219-1.5-1.711s-1.543-0.879-2.59-1.16
		s-2.305-0.422-3.773-0.422h-1.383v-5.32h1.617c2.406,0,4.508,0.285,6.305,0.855s3.297,1.328,4.5,2.273s2.105,2.027,2.707,3.246
		S55.617,41.86,55.617,43.173z M48.305,62.907c0,0.516-0.102,1-0.305,1.453s-0.477,0.852-0.82,1.195s-0.75,0.613-1.219,0.809
		s-0.969,0.293-1.5,0.293s-1.027-0.098-1.488-0.293s-0.863-0.465-1.207-0.809s-0.617-0.742-0.82-1.195s-0.305-0.938-0.305-1.453
		s0.102-1,0.305-1.453s0.477-0.852,0.82-1.195s0.746-0.613,1.207-0.809s0.957-0.293,1.488-0.293s1.031,0.098,1.5,0.293
		s0.875,0.465,1.219,0.809s0.617,0.742,0.82,1.195S48.305,62.392,48.305,62.907z"/>
</g>
<g>
	<g>
		<rect x="133" y="66" fill="none" width="57" height="63"/>
	</g>
	<g enable-background="new    ">
		<path fill="#0029F2" d="M157.469,83.134c0,1.984-0.203,3.805-0.609,5.461s-1,3.148-1.781,4.477l4.992,6.047h-6.773l-1.664-2.016
			c-1.063,0.844-2.242,1.48-3.539,1.91s-2.68,0.645-4.148,0.645c-1.625,0-3.07-0.207-4.336-0.621s-2.336-1.004-3.211-1.77
			s-1.539-1.691-1.992-2.777s-0.68-2.293-0.68-3.621c0-1.125,0.148-2.141,0.445-3.047s0.695-1.723,1.195-2.449
			s1.078-1.375,1.734-1.945s1.352-1.098,2.086-1.582l-0.469-0.633c-0.875-1.078-1.551-2.184-2.027-3.316s-0.715-2.238-0.715-3.316
			c0-1.094,0.195-2.145,0.586-3.152s0.965-1.898,1.723-2.672s1.691-1.395,2.801-1.863s2.383-0.703,3.82-0.703
			c1.359,0,2.57,0.191,3.633,0.574s1.961,0.898,2.695,1.547s1.293,1.41,1.676,2.285s0.574,1.805,0.574,2.789
			c0,1.219-0.203,2.285-0.609,3.199s-0.941,1.719-1.605,2.414s-1.422,1.313-2.273,1.852s-1.723,1.059-2.613,1.559l5.156,6.352
			c0.219-0.797,0.383-1.664,0.492-2.602s0.148-1.945,0.117-3.023H157.469z M139.375,90.376c0,0.688,0.117,1.316,0.352,1.887
			s0.566,1.063,0.996,1.477s0.949,0.734,1.559,0.961s1.289,0.34,2.039,0.34c0.828,0,1.613-0.125,2.355-0.375
			s1.418-0.641,2.027-1.172l-6.727-8.25c-0.781,0.656-1.41,1.387-1.887,2.191S139.375,89.22,139.375,90.376z M148.071,73.876
			c0-0.406-0.074-0.809-0.223-1.207s-0.363-0.75-0.645-1.055s-0.625-0.551-1.031-0.738s-0.875-0.281-1.406-0.281
			s-1.008,0.098-1.43,0.293s-0.777,0.457-1.066,0.785s-0.508,0.711-0.656,1.148s-0.223,0.898-0.223,1.383
			c0,0.844,0.203,1.645,0.609,2.402s0.961,1.574,1.664,2.449l0.047,0.094c0.594-0.359,1.156-0.723,1.688-1.09
			s0.996-0.762,1.395-1.184s0.711-0.879,0.938-1.371S148.071,74.47,148.071,73.876z"/>
	</g>
</g>
</svg>
