<?xml version="1.0" encoding="utf-8"?>
<!-- Generator: Adobe Illustrator 15.1.0, SVG Export Plug-In . SVG Version: 6.00 Build 0)  -->
<!DOCTYPE svg PUBLIC "-//W3C//DTD SVG 1.1//EN" "http://www.w3.org/Graphics/SVG/1.1/DTD/svg11.dtd">
<svg version="1.1" id="Layer_1" xmlns="http://www.w3.org/2000/svg" xmlns:xlink="http://www.w3.org/1999/xlink" x="0px" y="0px"
	 width="517.5px" height="113px" viewBox="0 14.5 517.5 113" enable-background="new 0 14.5 517.5 113" xml:space="preserve">
<rect x="-677.206" y="-96.047" fill="none" width="1210.825" height="22.188"/>
<text transform="matrix(1.0391 0 0 1 -677.2058 -84.3184)" display="none" fill="#231F20" enable-background="new    " font-family="'Consolas'" font-size="17">R – Responsible – сотрудник, ответственный за фактическое исполнение KPI.</text>
<g>
	<g>
		<g>
			<defs>
				<polyline id="SVGID_1_" points="-12.398,128 539.597,128 539.597,-3 -12.398,-3 -12.398,128 				"/>
			</defs>
			<clipPath id="SVGID_2_">
				<use xlink:href="#SVGID_1_"  overflow="visible"/>
			</clipPath>
			<path clip-path="url(#SVGID_2_)" fill="#0E0E60" d="M415.344,130.719v0.709v80.879l16.097-0.246v-18.828h67.74v4.246h16.102
				v-66.76h-0.04c-0.534-11.268-6.614-21.373-16.062-28.523c-2.497-1.889-5.232-3.573-8.161-5.018
				c-0.826-0.408-1.668-0.795-2.522-1.166l-0.023-0.008c-0.581-0.248-1.168-0.49-1.768-0.725c-0.321-0.125-0.652-0.252-0.98-0.373
				c-0.662-0.245-1.322-0.475-1.989-0.69c-5.702-1.856-11.913-2.882-18.422-2.882c-7.168,0-13.979,1.243-20.134,3.471
				c-0.612,0.219-1.209,0.45-1.805,0.692c-0.277,0.11-0.55,0.228-0.829,0.339c-0.186,0.081-0.354,0.15-0.538,0.229
				c-0.334,0.147-0.676,0.299-1.006,0.455l-0.209,0.094c-0.404,0.189-0.804,0.375-1.195,0.57c-2.919,1.447-5.656,3.125-8.157,5.02
				c-9.445,7.152-15.519,17.25-16.061,28.518h-0.037V130.719z"/>
		</g>
		<g>
			<defs>
				<polyline id="SVGID_3_" points="-12.398,128 539.597,128 539.597,-3 -12.398,-3 -12.398,128 				"/>
			</defs>
			<clipPath id="SVGID_4_">
				<use xlink:href="#SVGID_3_"  overflow="visible"/>
			</clipPath>
			<path clip-path="url(#SVGID_4_)" fill="#FAA76B" d="M452.5,82.65v12.885c0.398,2.41,6.021,4.32,12.894,4.32
				c5.611,0,10.401-1.276,12.176-3.058c0.339-0.341,0.559-0.791,0.563-1.271V82.65H452.5z"/>
		</g>
		<g>
			<defs>
				<polyline id="SVGID_5_" points="-12.398,128 539.597,128 539.597,-3 -12.398,-3 -12.398,128 				"/>
			</defs>
			<clipPath id="SVGID_6_">
				<use xlink:href="#SVGID_5_"  overflow="visible"/>
			</clipPath>
			<path clip-path="url(#SVGID_6_)" fill="#F79959" d="M478.131,82.65v4.47c-3.695,2.655-8.146,4.089-12.816,4.089
				c-4.674,0-9.125-1.436-12.813-4.089H452.5v-4.47H478.131z"/>
		</g>
		<g>
			<defs>
				<polyline id="SVGID_7_" points="-12.398,128 539.597,128 539.597,-3 -12.398,-3 -12.398,128 				"/>
			</defs>
			<clipPath id="SVGID_8_">
				<use xlink:href="#SVGID_7_"  overflow="visible"/>
			</clipPath>
			<path clip-path="url(#SVGID_8_)" fill="#804A26" d="M480.2,24.683v26.559h7.104V31.605c0-1.91-0.795-3.644-2.08-4.896
				l-0.161-0.153l-0.339-0.286l-0.122-0.102C483.391,25.236,481.865,24.683,480.2,24.683z"/>
		</g>
		<g>
			<defs>
				<polyline id="SVGID_9_" points="-12.398,128 539.597,128 539.597,-3 -12.398,-3 -12.398,128 				"/>
			</defs>
			<clipPath id="SVGID_10_">
				<use xlink:href="#SVGID_9_"  overflow="visible"/>
			</clipPath>
			<path clip-path="url(#SVGID_10_)" fill="#804A26" d="M443.295,31.605v19.637h7.1V24.683c-1.665,0-3.191,0.553-4.404,1.485
				c-0.142,0.114-0.288,0.234-0.425,0.359l-0.198,0.181C444.084,27.961,443.295,29.695,443.295,31.605z"/>
		</g>
		<g>
			<defs>
				<polyline id="SVGID_11_" points="-12.398,128 539.597,128 539.597,-3 -12.398,-3 -12.398,128 				"/>
			</defs>
			<clipPath id="SVGID_12_">
				<use xlink:href="#SVGID_11_"  overflow="visible"/>
			</clipPath>
			<path clip-path="url(#SVGID_12_)" fill="#FDC78B" d="M446.641,26.168v42.908c0,10.055,8.358,18.208,18.673,18.208
				c10.313,0,18.671-8.152,18.671-18.208V26.168H446.641z"/>
		</g>
		<g>
			<defs>
				<polyline id="SVGID_13_" points="-12.398,128 539.597,128 539.597,-3 -12.398,-3 -12.398,128 				"/>
			</defs>
			<clipPath id="SVGID_14_">
				<use xlink:href="#SVGID_13_"  overflow="visible"/>
			</clipPath>
			<path clip-path="url(#SVGID_14_)" fill="#804A26" d="M472.936,48.585c0.623-0.203,1.286-0.316,1.974-0.316
				c0.691,0,1.361,0.113,1.987,0.316c1.302,0.437,2.412,1.287,3.155,2.394c0.274,0.408,0.151,0.96-0.279,1.209
				c-0.404,0.231-0.925,0.117-1.178-0.26c-0.78-1.174-2.141-1.953-3.687-1.953c-1.532,0-2.894,0.779-3.677,1.953
				c-0.256,0.377-0.776,0.491-1.174,0.26c-0.432-0.249-0.562-0.801-0.281-1.209C470.521,49.872,471.63,49.021,472.936,48.585z"/>
		</g>
		<g>
			<defs>
				<polyline id="SVGID_15_" points="-12.398,128 539.597,128 539.597,-3 -12.398,-3 -12.398,128 				"/>
			</defs>
			<clipPath id="SVGID_16_">
				<use xlink:href="#SVGID_15_"  overflow="visible"/>
			</clipPath>
			<ellipse clip-path="url(#SVGID_16_)" fill="#40261A" cx="474.914" cy="54.259" rx="2.322" ry="2.268"/>
		</g>
		<g>
			<defs>
				<polyline id="SVGID_17_" points="-12.398,128 539.597,128 539.597,-3 -12.398,-3 -12.398,128 				"/>
			</defs>
			<clipPath id="SVGID_18_">
				<use xlink:href="#SVGID_17_"  overflow="visible"/>
			</clipPath>
			<path clip-path="url(#SVGID_18_)" fill="#804A26" d="M453.969,48.585c0.623-0.203,1.284-0.316,1.977-0.316
				c0.691,0,1.358,0.113,1.98,0.316c1.309,0.437,2.415,1.287,3.162,2.394c0.272,0.408,0.153,0.96-0.283,1.209
				c-0.4,0.231-0.917,0.117-1.17-0.26c-0.788-1.174-2.14-1.953-3.689-1.953c-1.54,0-2.901,0.779-3.681,1.953
				c-0.253,0.377-0.772,0.491-1.169,0.26c-0.436-0.249-0.563-0.801-0.29-1.209C451.557,49.872,452.661,49.021,453.969,48.585z"/>
		</g>
		<g>
			<defs>
				<polyline id="SVGID_19_" points="-12.398,128 539.597,128 539.597,-3 -12.398,-3 -12.398,128 				"/>
			</defs>
			<clipPath id="SVGID_20_">
				<use xlink:href="#SVGID_19_"  overflow="visible"/>
			</clipPath>
			<path clip-path="url(#SVGID_20_)" fill="#40261A" d="M453.625,54.259c0,1.251,1.035,2.268,2.32,2.268
				c1.282,0,2.329-1.016,2.329-2.268c0-1.25-1.047-2.267-2.329-2.267C454.66,51.992,453.625,53.009,453.625,54.259z"/>
		</g>
		<g>
			<defs>
				<polyline id="SVGID_21_" points="-12.398,128 539.597,128 539.597,-3 -12.398,-3 -12.398,128 				"/>
			</defs>
			<clipPath id="SVGID_22_">
				<use xlink:href="#SVGID_21_"  overflow="visible"/>
			</clipPath>
			<path clip-path="url(#SVGID_22_)" fill="#804A26" d="M445.989,26.168h1.08v14.911c0,3.336,0,6.853,0,10.163
				c0,6.457,0,12.129,0,14.194c0,2.011,1.671,3.64,3.733,3.64h3.035c2.06,0,3.728-1.633,3.728-3.64c0-1.004,0.42-1.916,1.097-2.573
				c0.452-0.442,1.023-0.77,1.66-0.941c0.073,0.164,0.18,0.311,0.317,0.428c0.266,0.227,0.618,0.368,1.015,0.368h1.205
				c0.198,1.024,1.22,1.807,2.454,1.813c1.236-0.007,2.257-0.79,2.454-1.813h1.201c0.397,0,0.752-0.141,1.016-0.368
				c0.143-0.117,0.244-0.264,0.319-0.428c1.588,0.418,2.758,1.834,2.758,3.515c0,1.002,0.414,1.917,1.094,2.577
				c0.679,0.656,1.606,1.063,2.638,1.063h3.031c2.063,0,3.731-1.628,3.731-3.64c0-2.065,0-7.738,0-14.194
				c0.006-6.021,0.006-12.726,0.006-17.807v-7.267h1.161v0.102l0.339,0.286v42.241c0,5.138-2.054,9.976-5.79,13.614
				c-3.722,3.637-8.683,5.641-13.958,5.641c-5.274,0-10.231-2.003-13.962-5.641c-3.732-3.639-5.787-8.477-5.787-13.614v-42.27
				C445.701,26.403,445.848,26.283,445.989,26.168z"/>
		</g>
		<g>
			<defs>
				<polyline id="SVGID_23_" points="-12.398,128 539.597,128 539.597,-3 -12.398,-3 -12.398,128 				"/>
			</defs>
			<clipPath id="SVGID_24_">
				<use xlink:href="#SVGID_23_"  overflow="visible"/>
			</clipPath>
			<path clip-path="url(#SVGID_24_)" fill="#FDC78B" d="M445.565,50.664L445.565,50.664v12.102c-2.489,0-4.512-1.976-4.512-4.403
				v-3.298C441.054,52.632,443.076,50.664,445.565,50.664z"/>
		</g>
		<g>
			<defs>
				<polyline id="SVGID_25_" points="-12.398,128 539.597,128 539.597,-3 -12.398,-3 -12.398,128 				"/>
			</defs>
			<clipPath id="SVGID_26_">
				<use xlink:href="#SVGID_25_"  overflow="visible"/>
			</clipPath>
			<path clip-path="url(#SVGID_26_)" fill="#F99964" d="M445.565,59.621L445.565,59.621v-5.817c-1.236,0-2.236,0.98-2.236,2.186
				v1.448C443.329,58.645,444.329,59.621,445.565,59.621z"/>
		</g>
		<g>
			<defs>
				<polyline id="SVGID_27_" points="-12.398,128 539.597,128 539.597,-3 -12.398,-3 -12.398,128 				"/>
			</defs>
			<clipPath id="SVGID_28_">
				<use xlink:href="#SVGID_27_"  overflow="visible"/>
			</clipPath>
			<path clip-path="url(#SVGID_28_)" fill="#FDC78B" d="M485.062,50.664L485.062,50.664v12.102c2.491,0,4.517-1.976,4.517-4.403
				v-3.298C489.578,52.632,487.553,50.664,485.062,50.664z"/>
		</g>
		<g>
			<defs>
				<polyline id="SVGID_29_" points="-12.398,128 539.597,128 539.597,-3 -12.398,-3 -12.398,128 				"/>
			</defs>
			<clipPath id="SVGID_30_">
				<use xlink:href="#SVGID_29_"  overflow="visible"/>
			</clipPath>
			<path clip-path="url(#SVGID_30_)" fill="#F99964" d="M485.062,59.621L485.062,59.621v-5.817c1.237,0,2.241,0.98,2.241,2.186
				v1.448C487.303,58.645,486.3,59.621,485.062,59.621z"/>
		</g>
		<g>
			<defs>
				<polyline id="SVGID_31_" points="-12.398,128 539.597,128 539.597,-3 -12.398,-3 -12.398,128 				"/>
			</defs>
			<clipPath id="SVGID_32_">
				<use xlink:href="#SVGID_31_"  overflow="visible"/>
			</clipPath>
			<path clip-path="url(#SVGID_32_)" fill="#FDC78B" d="M458.616,72.635l4.506,1.77l0.849-1.553
				c0.271-0.494,0.766-0.849,1.344-0.978c0.577,0.128,1.068,0.481,1.345,0.978l0.841,1.553l4.518-1.77l-2.405-5.234h-8.595
				L458.616,72.635z"/>
		</g>
		<g>
			<defs>
				<polyline id="SVGID_33_" points="-12.398,128 539.597,128 539.597,-3 -12.398,-3 -12.398,128 				"/>
			</defs>
			<clipPath id="SVGID_34_">
				<use xlink:href="#SVGID_33_"  overflow="visible"/>
			</clipPath>
			<path clip-path="url(#SVGID_34_)" fill="#FCF3E6" d="M461.016,67.4l0.945,1.123c0.594,0.709,1.508,1.125,2.482,1.125h1.741
				c0.973,0,1.89-0.418,2.479-1.125l0.945-1.123H461.016z"/>
		</g>
		<g>
			<defs>
				<polyline id="SVGID_35_" points="-12.398,128 539.597,128 539.597,-3 -12.398,-3 -12.398,128 				"/>
			</defs>
			<clipPath id="SVGID_36_">
				<use xlink:href="#SVGID_35_"  overflow="visible"/>
			</clipPath>
			<path clip-path="url(#SVGID_36_)" fill="#FDAE78" d="M471.403,61.603c0,1.014,1.882,1.841,4.197,1.841
				c2.324,0,4.201-0.827,4.201-1.841c0-1.016-1.877-1.838-4.201-1.838C473.285,59.764,471.403,60.587,471.403,61.603z"/>
		</g>
		<g>
			<defs>
				<polyline id="SVGID_37_" points="-12.398,128 539.597,128 539.597,-3 -12.398,-3 -12.398,128 				"/>
			</defs>
			<clipPath id="SVGID_38_">
				<use xlink:href="#SVGID_37_"  overflow="visible"/>
			</clipPath>
			<path clip-path="url(#SVGID_38_)" fill="#FDAE78" d="M450.829,61.603c0,1.014,1.882,1.841,4.193,1.841
				c2.321,0,4.206-0.827,4.206-1.841c0-1.016-1.885-1.838-4.206-1.838C452.711,59.764,450.829,60.587,450.829,61.603z"/>
		</g>
		<g>
			<defs>
				<polyline id="SVGID_39_" points="-12.398,128 539.597,128 539.597,-3 -12.398,-3 -12.398,128 				"/>
			</defs>
			<clipPath id="SVGID_40_">
				<use xlink:href="#SVGID_39_"  overflow="visible"/>
			</clipPath>
			<path clip-path="url(#SVGID_40_)" fill="#FFE9CC" d="M465.313,59.305L465.313,59.305c0.319,0,0.581-0.254,0.581-0.564v-7.158
				c0-0.312-0.262-0.566-0.581-0.566s-0.585,0.254-0.585,0.566v7.158C464.729,59.051,464.994,59.305,465.313,59.305z"/>
		</g>
		<g>
			<defs>
				<polyline id="SVGID_41_" points="-12.398,128 539.597,128 539.597,-3 -12.398,-3 -12.398,128 				"/>
			</defs>
			<clipPath id="SVGID_42_">
				<use xlink:href="#SVGID_41_"  overflow="visible"/>
			</clipPath>
			<path clip-path="url(#SVGID_42_)" fill="#FFE9CC" d="M465.313,62.708L465.313,62.708c0.319,0,0.581-0.255,0.581-0.57
				c0-0.313-0.262-0.565-0.581-0.565s-0.585,0.252-0.585,0.565C464.729,62.453,464.994,62.708,465.313,62.708z"/>
		</g>
		<g>
			<defs>
				<polyline id="SVGID_43_" points="-12.398,128 539.597,128 539.597,-3 -12.398,-3 -12.398,128 				"/>
			</defs>
			<clipPath id="SVGID_44_">
				<use xlink:href="#SVGID_43_"  overflow="visible"/>
			</clipPath>
			<path clip-path="url(#SVGID_44_)" fill="#804A26" d="M479.802,27.876c0,5.677,1.67,10.657,4.183,13.462v-15.17h-4.13
				C479.817,26.731,479.802,27.298,479.802,27.876z"/>
		</g>
		<g>
			<defs>
				<polyline id="SVGID_45_" points="-12.398,128 539.597,128 539.597,-3 -12.398,-3 -12.398,128 				"/>
			</defs>
			<clipPath id="SVGID_46_">
				<use xlink:href="#SVGID_45_"  overflow="visible"/>
			</clipPath>
			<path clip-path="url(#SVGID_46_)" fill="#804A26" d="M451.024,27.876c0,5.677-1.667,10.657-4.183,13.462v-15.17h4.133
				C451.011,26.731,451.024,27.298,451.024,27.876z"/>
		</g>
		<g>
			<defs>
				<polyline id="SVGID_47_" points="-12.398,128 539.597,128 539.597,-3 -12.398,-3 -12.398,128 				"/>
			</defs>
			<clipPath id="SVGID_48_">
				<use xlink:href="#SVGID_47_"  overflow="visible"/>
			</clipPath>
			<path clip-path="url(#SVGID_48_)" fill="#804A26" d="M444.248,16.793h31.091c3.962,0,7.175,3.135,7.175,6.997v5.365h-34.512
				c-3.592,0-6.506-2.844-6.506-6.346V19.48C441.496,17.998,442.729,16.793,444.248,16.793z"/>
		</g>
		<g>
			<defs>
				<polyline id="SVGID_49_" points="-12.398,128 539.597,128 539.597,-3 -12.398,-3 -12.398,128 				"/>
			</defs>
			<clipPath id="SVGID_50_">
				<use xlink:href="#SVGID_49_"  overflow="visible"/>
			</clipPath>
			<path clip-path="url(#SVGID_50_)" fill="#804A26" d="M445.236,26.918c0,4.12,8.286,7.458,18.509,7.458
				c10.232,0,18.52-3.338,18.52-7.458c0-4.121-8.286-7.459-18.52-7.459C453.522,19.459,445.236,22.797,445.236,26.918z"/>
		</g>
		<g>
			<defs>
				<polyline id="SVGID_51_" points="-12.398,128 539.597,128 539.597,-3 -12.398,-3 -12.398,128 				"/>
			</defs>
			<clipPath id="SVGID_52_">
				<use xlink:href="#SVGID_51_"  overflow="visible"/>
			</clipPath>
			<polygon clip-path="url(#SVGID_52_)" fill="#FFFFFF" points="463.924,120.292 464.869,122.053 481.255,96.652 449.396,96.652 			
				"/>
		</g>
		<g>
			<defs>
				<polyline id="SVGID_53_" points="-12.398,128 539.597,128 539.597,-3 -12.398,-3 -12.398,128 				"/>
			</defs>
			<clipPath id="SVGID_54_">
				<use xlink:href="#SVGID_53_"  overflow="visible"/>
			</clipPath>
			<polygon clip-path="url(#SVGID_54_)" points="464.682,95.506 464.682,95.506 470.699,104.066 464.503,108.854 458.305,104.066 
							"/>
		</g>
		<g>
			<defs>
				<polyline id="SVGID_55_" points="-12.398,128 539.597,128 539.597,-3 -12.398,-3 -12.398,128 				"/>
			</defs>
			<clipPath id="SVGID_56_">
				<use xlink:href="#SVGID_55_"  overflow="visible"/>
			</clipPath>
			<polygon clip-path="url(#SVGID_56_)" points="458.881,112.115 464.466,122.197 470.859,111.844 464.35,104.57 			"/>
		</g>
		<g>
			<defs>
				<polyline id="SVGID_57_" points="-12.398,128 539.597,128 539.597,-3 -12.398,-3 -12.398,128 				"/>
			</defs>
			<clipPath id="SVGID_58_">
				<use xlink:href="#SVGID_57_"  overflow="visible"/>
			</clipPath>
			<polygon clip-path="url(#SVGID_58_)" fill="#5F5F99" points="464.466,122.197 464.466,122.197 489.304,102.18 480.536,93.275 			
				"/>
		</g>
		<g>
			<defs>
				<polyline id="SVGID_59_" points="-12.398,128 539.597,128 539.597,-3 -12.398,-3 -12.398,128 				"/>
			</defs>
			<clipPath id="SVGID_60_">
				<use xlink:href="#SVGID_59_"  overflow="visible"/>
			</clipPath>
			<polygon clip-path="url(#SVGID_60_)" fill="#5F5F99" points="464.466,122.197 464.466,122.197 439.273,102.18 448.168,93.275 			
				"/>
		</g>
		<g>
			<defs>
				<polyline id="SVGID_61_" points="-12.398,128 539.597,128 539.597,-3 -12.398,-3 -12.398,128 				"/>
			</defs>
			<clipPath id="SVGID_62_">
				<use xlink:href="#SVGID_61_"  overflow="visible"/>
			</clipPath>
			<path clip-path="url(#SVGID_62_)" fill="#95A8AF" d="M304.682,134.061v0.764v66.824h-14.581H228.74v4.59h-14.582v-72.178h0.037
				c0.485-12.187,5.991-23.113,14.545-30.842c2.265-2.044,4.743-3.863,7.396-5.424c0.748-0.443,1.508-0.863,2.285-1.264l0.02-0.008
				c0.529-0.269,1.059-0.529,1.603-0.785c0.29-0.135,0.592-0.274,0.891-0.401c0.596-0.263,1.194-0.512,1.8-0.749
				c5.167-2.007,10.793-3.113,16.685-3.113c6.49,0,12.666,1.342,18.239,3.75c0.551,0.238,1.095,0.485,1.637,0.748
				c0.249,0.121,0.495,0.244,0.748,0.367c0.167,0.085,0.323,0.162,0.486,0.248c0.306,0.158,0.613,0.321,0.913,0.489l0.187,0.103
				c0.37,0.203,0.728,0.405,1.083,0.617c2.648,1.563,5.127,3.378,7.393,5.424c8.557,7.734,14.058,18.652,14.545,30.838h0.033
				V134.061z"/>
		</g>
		<g>
			<defs>
				<polyline id="SVGID_63_" points="-12.398,128 539.597,128 539.597,-3 -12.398,-3 -12.398,128 				"/>
			</defs>
			<clipPath id="SVGID_64_">
				<use xlink:href="#SVGID_63_"  overflow="visible"/>
			</clipPath>
			<path clip-path="url(#SVGID_64_)" fill="#F8A586" d="M259.786,66.542c-5.077,0-9.191,3.024-9.191,6.754V95.9v12.287l18.381-6
				V73.297C268.975,69.566,264.856,66.542,259.786,66.542z"/>
		</g>
		<g>
			<defs>
				<polyline id="SVGID_65_" points="-12.398,128 539.597,128 539.597,-3 -12.398,-3 -12.398,128 				"/>
			</defs>
			<clipPath id="SVGID_66_">
				<use xlink:href="#SVGID_65_"  overflow="visible"/>
			</clipPath>
			<path clip-path="url(#SVGID_66_)" fill="#F8A586" d="M284.578,38.415v29.343c-0.629,7.053-3.981,13.551-8.989,18
				c-0.752,0.16-12.005,0.004-12.176,0.004c-12.438,0-22.53-10.09-22.53-22.536V38.415H284.578z"/>
		</g>
		<g>
			<defs>
				<polyline id="SVGID_67_" points="-12.398,128 539.597,128 539.597,-3 -12.398,-3 -12.398,128 				"/>
			</defs>
			<clipPath id="SVGID_68_">
				<use xlink:href="#SVGID_67_"  overflow="visible"/>
			</clipPath>
			<path clip-path="url(#SVGID_68_)" fill="#F8A586" d="M238.568,55.466c-3.478,0-6.292,2.816-6.292,6.284
				c0,3.475,2.814,6.29,6.292,6.29h10.226l-0.373-12.573L238.568,55.466L238.568,55.466z"/>
		</g>
		<g>
			<defs>
				<polyline id="SVGID_69_" points="-12.398,128 539.597,128 539.597,-3 -12.398,-3 -12.398,128 				"/>
			</defs>
			<clipPath id="SVGID_70_">
				<use xlink:href="#SVGID_69_"  overflow="visible"/>
			</clipPath>
			<path clip-path="url(#SVGID_70_)" d="M237.149,34.134v3.799l-0.021,0.142v17.438h2.503v4.492c0,2.068,1.674,3.744,3.743,3.744
				c2.06,0,3.73-1.676,3.73-3.744v-2.703c0.503-2.818,2.964-4.959,5.929-4.961v-7.408c0.502-2.813,2.952-4.951,5.913-4.955v-0.041
				h25.646c4.124,0,7.519-3.139,7.924-7.167h-10.279l-2.815-10.749h-24.534c-5.854,0-11.038,2.82-14.292,7.169L237.149,34.134z"/>
		</g>
		<g>
			<defs>
				<polyline id="SVGID_71_" points="-12.398,128 539.597,128 539.597,-3 -12.398,-3 -12.398,128 				"/>
			</defs>
			<clipPath id="SVGID_72_">
				<use xlink:href="#SVGID_71_"  overflow="visible"/>
			</clipPath>
			<path clip-path="url(#SVGID_72_)" fill="#11122D" d="M277.861,56.99c-1.052,0-1.903-0.85-1.903-1.906
				c0-1.047,0.853-1.9,1.903-1.9s1.905,0.853,1.905,1.9C279.767,56.14,278.913,56.99,277.861,56.99z"/>
		</g>
		<g>
			<defs>
				<polyline id="SVGID_73_" points="-12.398,128 539.597,128 539.597,-3 -12.398,-3 -12.398,128 				"/>
			</defs>
			<clipPath id="SVGID_74_">
				<use xlink:href="#SVGID_73_"  overflow="visible"/>
			</clipPath>
			<path clip-path="url(#SVGID_74_)" fill="#11122D" d="M262.747,56.99c-1.057,0-1.908-0.85-1.908-1.906
				c0-1.047,0.853-1.9,1.908-1.9c1.043,0,1.897,0.853,1.897,1.9C264.645,56.14,263.79,56.99,262.747,56.99z"/>
		</g>
		<g>
			<defs>
				<polyline id="SVGID_75_" points="-12.398,128 539.597,128 539.597,-3 -12.398,-3 -12.398,128 				"/>
			</defs>
			<clipPath id="SVGID_76_">
				<use xlink:href="#SVGID_75_"  overflow="visible"/>
			</clipPath>
			<rect x="261.25" y="35.637" clip-path="url(#SVGID_76_)" width="20.433" height="4.337"/>
		</g>
		<g>
			<defs>
				<polyline id="SVGID_77_" points="-12.398,128 539.597,128 539.597,-3 -12.398,-3 -12.398,128 				"/>
			</defs>
			<clipPath id="SVGID_78_">
				<use xlink:href="#SVGID_77_"  overflow="visible"/>
			</clipPath>
			<path clip-path="url(#SVGID_78_)" d="M237.053,31.961c0-9.042,7.328-16.375,16.365-16.375h15.137
				c9.039,0,16.368,7.333,16.368,16.375v8.012h-3.785v-3.002c0-4.715-3.815-8.532-8.529-8.532h-2.293
				c-4.714,0-8.531,3.817-8.531,8.532v3.002h-24.73L237.053,31.961L237.053,31.961z"/>
		</g>
		<g>
			<defs>
				<polyline id="SVGID_79_" points="-12.398,128 539.597,128 539.597,-3 -12.398,-3 -12.398,128 				"/>
			</defs>
			<clipPath id="SVGID_80_">
				<use xlink:href="#SVGID_79_"  overflow="visible"/>
			</clipPath>
			<polyline clip-path="url(#SVGID_80_)" fill="#020304" points="237.957,36.747 260.084,36.747 260.084,34.946 237.957,34.946 			
				"/>
		</g>
		<g>
			<defs>
				<polyline id="SVGID_81_" points="-12.398,128 539.597,128 539.597,-3 -12.398,-3 -12.398,128 				"/>
			</defs>
			<clipPath id="SVGID_82_">
				<use xlink:href="#SVGID_81_"  overflow="visible"/>
			</clipPath>
			<path clip-path="url(#SVGID_82_)" d="M280.806,35.396c4.554-2.626,6.299-8.254,4.179-12.957l-11.349,6.551L280.806,35.396z"/>
		</g>
		<g>
			<defs>
				<polyline id="SVGID_83_" points="-12.398,128 539.597,128 539.597,-3 -12.398,-3 -12.398,128 				"/>
			</defs>
			<clipPath id="SVGID_84_">
				<use xlink:href="#SVGID_83_"  overflow="visible"/>
			</clipPath>
			<polygon clip-path="url(#SVGID_84_)" fill="#FFFFFF" points="260.187,126.055 260.187,126.055 244.977,96.652 273.834,96.652 			
				"/>
		</g>
		<g>
			<defs>
				<polyline id="SVGID_85_" points="-12.398,128 539.597,128 539.597,-3 -12.398,-3 -12.398,128 				"/>
			</defs>
			<clipPath id="SVGID_86_">
				<use xlink:href="#SVGID_85_"  overflow="visible"/>
			</clipPath>
			<polygon clip-path="url(#SVGID_86_)" points="260.096,95.984 260.096,95.984 253.622,105.24 260.292,110.416 266.96,105.24 			
				"/>
		</g>
		<g>
			<defs>
				<polyline id="SVGID_87_" points="-12.398,128 539.597,128 539.597,-3 -12.398,-3 -12.398,128 				"/>
			</defs>
			<clipPath id="SVGID_88_">
				<use xlink:href="#SVGID_87_"  overflow="visible"/>
			</clipPath>
			<polygon clip-path="url(#SVGID_88_)" points="265.246,113.941 260.187,124.841 254.394,113.646 260.292,105.784 			"/>
		</g>
		<g>
			<defs>
				<polyline id="SVGID_89_" points="-12.398,128 539.597,128 539.597,-3 -12.398,-3 -12.398,128 				"/>
			</defs>
			<clipPath id="SVGID_90_">
				<use xlink:href="#SVGID_89_"  overflow="visible"/>
			</clipPath>
			<polygon clip-path="url(#SVGID_90_)" fill="#BACACE" points="260.187,124.841 260.187,124.841 237.688,103.197 245.629,93.572 
							"/>
		</g>
		<g>
			<defs>
				<polyline id="SVGID_91_" points="-12.398,128 539.597,128 539.597,-3 -12.398,-3 -12.398,128 				"/>
			</defs>
			<clipPath id="SVGID_92_">
				<use xlink:href="#SVGID_91_"  overflow="visible"/>
			</clipPath>
			<polygon clip-path="url(#SVGID_92_)" fill="#BACACE" points="260.187,124.841 260.187,124.841 283.006,103.197 274.949,93.572 
							"/>
		</g>
		<g>
			<defs>
				<polyline id="SVGID_93_" points="-12.398,128 539.597,128 539.597,-3 -12.398,-3 -12.398,128 				"/>
			</defs>
			<clipPath id="SVGID_94_">
				<use xlink:href="#SVGID_93_"  overflow="visible"/>
			</clipPath>
			<path clip-path="url(#SVGID_94_)" fill="#F5F5F5" d="M263.605,68.082c0.613,3.682,3.709,6.475,7.447,6.453
				c3.734-0.021,6.799-2.852,7.372-6.538L263.605,68.082z"/>
		</g>
		<g>
			<defs>
				<polyline id="SVGID_95_" points="-12.398,128 539.597,128 539.597,-3 -12.398,-3 -12.398,128 				"/>
			</defs>
			<clipPath id="SVGID_96_">
				<use xlink:href="#SVGID_95_"  overflow="visible"/>
			</clipPath>
			<path clip-path="url(#SVGID_96_)" fill="#3A2316" d="M337.874,76.42h11.722c3.849,0,6.972-3.124,6.972-6.977V44.351h-18.692
				L337.874,76.42L337.874,76.42z"/>
		</g>
		<g>
			<defs>
				<polyline id="SVGID_97_" points="-12.398,128 539.597,128 539.597,-3 -12.398,-3 -12.398,128 				"/>
			</defs>
			<clipPath id="SVGID_98_">
				<use xlink:href="#SVGID_97_"  overflow="visible"/>
			</clipPath>
			<path clip-path="url(#SVGID_98_)" fill="#008BBF" d="M343.887,185.357c0,0,1.146-18.166,1.95-36.385
				c0.847-18.209,1.384-36.451,1.384-36.451c0.22-7.604-2.53-14.09-6.129-14.487s-6.681,5.294-6.895,12.696
				c0,0-0.525,17.838-1.348,35.598c-0.787,17.773-1.9,35.439-1.9,35.439L343.887,185.357z"/>
		</g>
		<g>
			<defs>
				<polyline id="SVGID_99_" points="-12.398,128 539.597,128 539.597,-3 -12.398,-3 -12.398,128 				"/>
			</defs>
			<clipPath id="SVGID_100_">
				<use xlink:href="#SVGID_99_"  overflow="visible"/>
			</clipPath>
			<path clip-path="url(#SVGID_100_)" fill="#3A2316" d="M365.422,65.676c6.014-1.645,14.625-7.918,17.795-13.577
				c2.899,4.545,1.339,10.928-1.039,15.372c-2.411,4.5-6.299,5.811-11.056,6.5c-2.645,0.381-5.251,0.334-7.877-0.076L365.422,65.676
				z"/>
		</g>
		<g>
			<defs>
				<polyline id="SVGID_101_" points="-12.398,128 539.597,128 539.597,-3 -12.398,-3 -12.398,128 				"/>
			</defs>
			<clipPath id="SVGID_102_">
				<use xlink:href="#SVGID_101_"  overflow="visible"/>
			</clipPath>
			<path clip-path="url(#SVGID_102_)" fill="#008BBF" d="M338.938,116.708l2.396-7.099l-1.136-11.285l25.219-11.407l25.22,11.478
				l-7.255,69.326l-38.894,4.029l0.068-30.109l-0.905-8.974C339.014,128.977,336.931,122.652,338.938,116.708z"/>
		</g>
		<g>
			<defs>
				<polyline id="SVGID_103_" points="-12.398,128 539.597,128 539.597,-3 -12.398,-3 -12.398,128 				"/>
			</defs>
			<clipPath id="SVGID_104_">
				<use xlink:href="#SVGID_103_"  overflow="visible"/>
			</clipPath>
			<path clip-path="url(#SVGID_104_)" fill="#F9AC8D" d="M367.233,63.169c3.462,0.111,6.174,3.006,6.062,6.466l-0.677,20.969
				c-0.109,3.459-3.005,6.174-6.466,6.06c-3.459-0.112-6.171-3.004-6.062-6.466l0.682-20.963
				C360.883,65.771,363.776,63.058,367.233,63.169z"/>
		</g>
		<g>
			<defs>
				<polyline id="SVGID_105_" points="-12.398,128 539.597,128 539.597,-3 -12.398,-3 -12.398,128 				"/>
			</defs>
			<clipPath id="SVGID_106_">
				<use xlink:href="#SVGID_105_"  overflow="visible"/>
			</clipPath>
			<path clip-path="url(#SVGID_106_)" fill="#F9AC8D" d="M351.454,82.734c16.162,0,29.15-11.95,29.112-23.495l-0.06-16.3
				c-0.01-3.609-0.936-7.001-2.561-9.959l-35.768,0.132c-1.429,2.966-2.203,6.361-2.191,9.971c0,0-0.206,15.387,0.069,20.507
				C340.644,74.436,344.006,79.125,351.454,82.734z"/>
		</g>
		<g>
			<defs>
				<polyline id="SVGID_107_" points="-12.398,128 539.597,128 539.597,-3 -12.398,-3 -12.398,128 				"/>
			</defs>
			<clipPath id="SVGID_108_">
				<use xlink:href="#SVGID_107_"  overflow="visible"/>
			</clipPath>
			<path clip-path="url(#SVGID_108_)" fill="#F5F5F5" d="M360.376,67.755c-0.542,3.159-3.279,5.558-6.591,5.537
				c-3.305-0.021-6.019-2.446-6.526-5.608L360.376,67.755z"/>
		</g>
		<g>
			<defs>
				<polyline id="SVGID_109_" points="-12.398,128 539.597,128 539.597,-3 -12.398,-3 -12.398,128 				"/>
			</defs>
			<clipPath id="SVGID_110_">
				<use xlink:href="#SVGID_109_"  overflow="visible"/>
			</clipPath>
			<path clip-path="url(#SVGID_110_)" fill="#3A2316" d="M353.225,33.377c-5.162,2.699-11.729,10.055-13.431,15.736
				c-4.248-3.594-5.048-8.65-3.811-13.095c1.253-4.5,6.035-7.247,10.252-8.839c2.344-0.887,4.741-1.383,7.236-1.562L353.225,33.377z
				"/>
		</g>
		<g>
			<defs>
				<polyline id="SVGID_111_" points="-12.398,128 539.597,128 539.597,-3 -12.398,-3 -12.398,128 				"/>
			</defs>
			<clipPath id="SVGID_112_">
				<use xlink:href="#SVGID_111_"  overflow="visible"/>
			</clipPath>
			<path clip-path="url(#SVGID_112_)" fill="#5B331E" d="M386.281,56.169c1.468-4.5,2.71-9.217,2.664-11.819
				c-0.179-10.438-7.857-18.925-17.965-20.901c-9.206-1.795-17.835,0.959-26.258,4.362c1.137,2.227,2.401,4.329,3.596,6.522
				c4.86,8.923,13.705,15.703,23.758,19.355l0.005,2.444c0.004,1.99,1.622,3.595,3.609,3.589h5.988L386.281,56.169z"/>
		</g>
		<g>
			<defs>
				<polyline id="SVGID_113_" points="-12.398,128 539.597,128 539.597,-3 -12.398,-3 -12.398,128 				"/>
			</defs>
			<clipPath id="SVGID_114_">
				<use xlink:href="#SVGID_113_"  overflow="visible"/>
			</clipPath>
			<path clip-path="url(#SVGID_114_)" fill="#1D183C" d="M359.284,53.754c0,1.037,0.841,1.883,1.884,1.883
				c1.042,0,1.889-0.846,1.889-1.883c0-1.047-0.847-1.89-1.889-1.89C360.125,51.864,359.284,52.707,359.284,53.754z"/>
		</g>
		<g>
			<defs>
				<polyline id="SVGID_115_" points="-12.398,128 539.597,128 539.597,-3 -12.398,-3 -12.398,128 				"/>
			</defs>
			<clipPath id="SVGID_116_">
				<use xlink:href="#SVGID_115_"  overflow="visible"/>
			</clipPath>
			<path clip-path="url(#SVGID_116_)" fill="#1D183C" d="M344.245,53.754c0,1.037,0.839,1.883,1.891,1.883
				c1.04,0,1.877-0.846,1.877-1.883c0-1.047-0.836-1.89-1.877-1.89C345.084,51.864,344.245,52.707,344.245,53.754z"/>
		</g>
		<g>
			<defs>
				<polyline id="SVGID_117_" points="-12.398,128 539.597,128 539.597,-3 -12.398,-3 -12.398,128 				"/>
			</defs>
			<clipPath id="SVGID_118_">
				<use xlink:href="#SVGID_117_"  overflow="visible"/>
			</clipPath>
			<path clip-path="url(#SVGID_118_)" fill="#F9AC8D" d="M381.457,52.036c-3.229,0-5.848,2.62-5.848,5.846v5.847h5.848
				c3.229,0,5.844-2.614,5.844-5.847C387.301,54.656,384.687,52.036,381.457,52.036z"/>
		</g>
		<g>
			<defs>
				<polyline id="SVGID_119_" points="-12.398,128 539.597,128 539.597,-3 -12.398,-3 -12.398,128 				"/>
			</defs>
			<clipPath id="SVGID_120_">
				<use xlink:href="#SVGID_119_"  overflow="visible"/>
			</clipPath>
			<path clip-path="url(#SVGID_120_)" fill="#5B331E" d="M370.253,76.42h11.722c3.852,0,6.972-3.124,6.972-6.977V44.351h-18.692
				L370.253,76.42L370.253,76.42z"/>
		</g>
		<g>
			<defs>
				<polyline id="SVGID_121_" points="-12.398,128 539.597,128 539.597,-3 -12.398,-3 -12.398,128 				"/>
			</defs>
			<clipPath id="SVGID_122_">
				<use xlink:href="#SVGID_121_"  overflow="visible"/>
			</clipPath>
			<polygon clip-path="url(#SVGID_122_)" fill="#FFFFFF" points="352.329,179.791 330.477,185.589 313.799,135.773 335.654,129.979 
							"/>
		</g>
		<g>
			<defs>
				<polyline id="SVGID_123_" points="-12.398,128 539.597,128 539.597,-3 -12.398,-3 -12.398,128 				"/>
			</defs>
			<clipPath id="SVGID_124_">
				<use xlink:href="#SVGID_123_"  overflow="visible"/>
			</clipPath>
			<polygon clip-path="url(#SVGID_124_)" fill="#E6E8EA" points="373.721,174.119 351.869,179.917 335.192,130.102 357.043,124.307 
							"/>
		</g>
		<g>
			<defs>
				<polyline id="SVGID_125_" points="-12.398,128 539.597,128 539.597,-3 -12.398,-3 -12.398,128 				"/>
			</defs>
			<clipPath id="SVGID_126_">
				<use xlink:href="#SVGID_125_"  overflow="visible"/>
			</clipPath>
			<polygon clip-path="url(#SVGID_126_)" fill="#BFBDC1" points="332.414,183.393 331.649,183.596 316.294,137.73 317.059,137.527 
							"/>
		</g>
		<g>
			<defs>
				<polyline id="SVGID_127_" points="-12.398,128 539.597,128 539.597,-3 -12.398,-3 -12.398,128 				"/>
			</defs>
			<clipPath id="SVGID_128_">
				<use xlink:href="#SVGID_127_"  overflow="visible"/>
			</clipPath>
			<polygon clip-path="url(#SVGID_128_)" fill="#BFBDC1" points="355.031,127.457 355.342,128.371 316.747,138.604 316.443,137.691 
							"/>
		</g>
		<g>
			<defs>
				<polyline id="SVGID_129_" points="-12.398,128 539.597,128 539.597,-3 -12.398,-3 -12.398,128 				"/>
			</defs>
			<clipPath id="SVGID_130_">
				<use xlink:href="#SVGID_129_"  overflow="visible"/>
			</clipPath>
			<polygon clip-path="url(#SVGID_130_)" fill="#BFBDC1" points="356.812,132.814 357.119,133.729 318.529,143.962 318.219,143.055 
							"/>
		</g>
		<g>
			<defs>
				<polyline id="SVGID_131_" points="-12.398,128 539.597,128 539.597,-3 -12.398,-3 -12.398,128 				"/>
			</defs>
			<clipPath id="SVGID_132_">
				<use xlink:href="#SVGID_131_"  overflow="visible"/>
			</clipPath>
			<polygon clip-path="url(#SVGID_132_)" fill="#BFBDC1" points="358.659,138.33 358.963,139.245 320.374,149.479 320.066,148.566 
							"/>
		</g>
		<g>
			<defs>
				<polyline id="SVGID_133_" points="-12.398,128 539.597,128 539.597,-3 -12.398,-3 -12.398,128 				"/>
			</defs>
			<clipPath id="SVGID_134_">
				<use xlink:href="#SVGID_133_"  overflow="visible"/>
			</clipPath>
			<polygon clip-path="url(#SVGID_134_)" fill="#BFBDC1" points="360.386,143.488 360.693,144.402 322.1,154.641 321.796,153.723 
							"/>
		</g>
		<g>
			<defs>
				<polyline id="SVGID_135_" points="-12.398,128 539.597,128 539.597,-3 -12.398,-3 -12.398,128 				"/>
			</defs>
			<clipPath id="SVGID_136_">
				<use xlink:href="#SVGID_135_"  overflow="visible"/>
			</clipPath>
			<polygon clip-path="url(#SVGID_136_)" fill="#BFBDC1" points="362.21,148.945 362.518,149.859 323.929,160.094 323.62,159.18 			
				"/>
		</g>
		<g>
			<defs>
				<polyline id="SVGID_137_" points="-12.398,128 539.597,128 539.597,-3 -12.398,-3 -12.398,128 				"/>
			</defs>
			<clipPath id="SVGID_138_">
				<use xlink:href="#SVGID_137_"  overflow="visible"/>
			</clipPath>
			<polygon clip-path="url(#SVGID_138_)" fill="#BFBDC1" points="364.007,153.788 364.313,154.703 325.724,164.939 325.415,164.02 
							"/>
		</g>
		<g>
			<defs>
				<polyline id="SVGID_139_" points="-12.398,128 539.597,128 539.597,-3 -12.398,-3 -12.398,128 				"/>
			</defs>
			<clipPath id="SVGID_140_">
				<use xlink:href="#SVGID_139_"  overflow="visible"/>
			</clipPath>
			<polygon clip-path="url(#SVGID_140_)" fill="#BFBDC1" points="365.967,159.285 366.274,160.2 327.686,170.434 327.377,169.521 
							"/>
		</g>
		<g>
			<defs>
				<polyline id="SVGID_141_" points="-12.398,128 539.597,128 539.597,-3 -12.398,-3 -12.398,128 				"/>
			</defs>
			<clipPath id="SVGID_142_">
				<use xlink:href="#SVGID_141_"  overflow="visible"/>
			</clipPath>
			<path clip-path="url(#SVGID_142_)" fill="#008BBF" d="M393.741,185.357c0,0,1.147-18.166,1.952-36.385
				c0.845-18.209,1.381-36.451,1.381-36.451c0.222-7.604-2.529-14.09-6.126-14.487c-3.6-0.397-6.682,5.294-6.895,12.696
				c0,0-0.526,17.838-1.35,35.598c-0.787,17.773-1.898,35.439-1.898,35.439L393.741,185.357z"/>
		</g>
		<g>
			<defs>
				<polyline id="SVGID_143_" points="-12.398,128 539.597,128 539.597,-3 -12.398,-3 -12.398,128 				"/>
			</defs>
			<clipPath id="SVGID_144_">
				<use xlink:href="#SVGID_143_"  overflow="visible"/>
			</clipPath>
			<path clip-path="url(#SVGID_144_)" fill="#D8D284" d="M67.697,101.535H51.313c-5.382,0-9.748-5.37-9.748-12V46.364h26.132
				V101.535z"/>
		</g>
		<g>
			<defs>
				<polyline id="SVGID_145_" points="-12.398,128 539.597,128 539.597,-3 -12.398,-3 -12.398,128 				"/>
			</defs>
			<clipPath id="SVGID_146_">
				<use xlink:href="#SVGID_145_"  overflow="visible"/>
			</clipPath>
			<path clip-path="url(#SVGID_146_)" fill="#7B8E5C" d="M61.458,200.604c0,0-1.19-19.873-2.023-39.801
				c-0.879-19.916-1.437-39.871-1.437-39.871c-0.227-8.315,2.627-15.412,6.356-15.845c3.735-0.435,6.934,5.79,7.159,13.888
				c0,0,0.544,19.512,1.396,38.938c0.816,19.443,1.973,38.766,1.973,38.766L61.458,200.604z"/>
		</g>
		<g>
			<defs>
				<polyline id="SVGID_147_" points="-12.398,128 539.597,128 539.597,-3 -12.398,-3 -12.398,128 				"/>
			</defs>
			<clipPath id="SVGID_148_">
				<use xlink:href="#SVGID_147_"  overflow="visible"/>
			</clipPath>
			<path clip-path="url(#SVGID_148_)" fill="#3A2316" d="M39.111,69.693c-6.239-1.799-15.175-8.663-18.463-14.854
				c-3.011,4.973-1.395,11.954,1.076,16.814c2.503,4.926,6.534,6.355,11.474,7.111c2.745,0.416,5.444,0.362,8.172-0.084
				L39.111,69.693z"/>
		</g>
		<g>
			<defs>
				<polyline id="SVGID_149_" points="-12.398,128 539.597,128 539.597,-3 -12.398,-3 -12.398,128 				"/>
			</defs>
			<clipPath id="SVGID_150_">
				<use xlink:href="#SVGID_149_"  overflow="visible"/>
			</clipPath>
			<path clip-path="url(#SVGID_150_)" fill="#7B8E5C" d="M66.594,125.514l-2.487-7.764l1.178-12.348l-26.17-12.477l-26.17,12.557
				l7.529,75.832l40.36,4.408l-0.072-32.936l0.938-9.816C66.514,138.934,68.677,132.016,66.594,125.514z"/>
		</g>
		<g>
			<defs>
				<polyline id="SVGID_151_" points="-12.398,128 539.597,128 539.597,-3 -12.398,-3 -12.398,128 				"/>
			</defs>
			<clipPath id="SVGID_152_">
				<use xlink:href="#SVGID_151_"  overflow="visible"/>
			</clipPath>
			<path clip-path="url(#SVGID_152_)" fill="#F9AC8D" d="M37.231,66.951c-3.593,0.121-6.406,3.287-6.288,7.07l0.702,22.938
				c0.11,3.783,3.116,6.75,6.712,6.627c3.587-0.122,6.398-3.29,6.283-7.074l-0.703-22.931
				C43.822,69.796,40.817,66.826,37.231,66.951z"/>
		</g>
		<g>
			<defs>
				<polyline id="SVGID_153_" points="-12.398,128 539.597,128 539.597,-3 -12.398,-3 -12.398,128 				"/>
			</defs>
			<clipPath id="SVGID_154_">
				<use xlink:href="#SVGID_153_"  overflow="visible"/>
			</clipPath>
			<path clip-path="url(#SVGID_154_)" fill="#F9AC8D" d="M53.605,88.354c-16.771,0-30.249-13.074-30.207-25.702l0.06-17.83
				c0.013-3.948,0.972-7.657,2.656-10.891l37.116,0.143c1.479,3.246,2.283,6.96,2.274,10.907c0,0,0.21,16.831-0.074,22.431
				C64.824,79.273,61.337,84.404,53.605,88.354z"/>
		</g>
		<g>
			<defs>
				<polyline id="SVGID_155_" points="-12.398,128 539.597,128 539.597,-3 -12.398,-3 -12.398,128 				"/>
			</defs>
			<clipPath id="SVGID_156_">
				<use xlink:href="#SVGID_155_"  overflow="visible"/>
			</clipPath>
			<path clip-path="url(#SVGID_156_)" fill="#F5F5F5" d="M44.347,71.969c0.564,3.452,3.403,6.074,6.838,6.051
				c3.43-0.02,6.244-2.676,6.774-6.131L44.347,71.969z"/>
		</g>
		<g>
			<defs>
				<polyline id="SVGID_157_" points="-12.398,128 539.597,128 539.597,-3 -12.398,-3 -12.398,128 				"/>
			</defs>
			<clipPath id="SVGID_158_">
				<use xlink:href="#SVGID_157_"  overflow="visible"/>
			</clipPath>
			<path clip-path="url(#SVGID_158_)" fill="#D8D284" d="M51.771,34.362c5.352,2.953,12.165,10.998,13.933,17.211
				c4.408-3.931,5.237-9.465,3.954-14.322c-1.301-4.923-6.262-7.931-10.639-9.672c-2.433-0.967-4.921-1.509-7.505-1.706
				L51.771,34.362z"/>
		</g>
		<g>
			<defs>
				<polyline id="SVGID_159_" points="-12.398,128 539.597,128 539.597,-3 -12.398,-3 -12.398,128 				"/>
			</defs>
			<clipPath id="SVGID_160_">
				<use xlink:href="#SVGID_159_"  overflow="visible"/>
			</clipPath>
			<path clip-path="url(#SVGID_160_)" fill="#F4EF8E" d="M17.467,59.29c-1.522-4.919-2.813-10.083-2.766-12.926
				c0.187-11.416,8.155-20.702,18.641-22.859c9.555-1.964,18.51,1.046,27.248,4.769c-1.18,2.435-2.491,4.738-3.729,7.136
				C51.817,45.169,42.64,52.586,32.21,56.579l-0.006,2.675c-0.007,2.175-1.688,3.933-3.747,3.926h-6.211L17.467,59.29z"/>
		</g>
		<g>
			<defs>
				<polyline id="SVGID_161_" points="-12.398,128 539.597,128 539.597,-3 -12.398,-3 -12.398,128 				"/>
			</defs>
			<clipPath id="SVGID_162_">
				<use xlink:href="#SVGID_161_"  overflow="visible"/>
			</clipPath>
			<path clip-path="url(#SVGID_162_)" fill="#1D183C" d="M45.477,56.649c0,1.139-0.867,2.061-1.953,2.061
				c-1.078,0-1.958-0.922-1.958-2.061c0-1.145,0.88-2.066,1.958-2.066C44.609,54.583,45.477,55.504,45.477,56.649z"/>
		</g>
		<g>
			<defs>
				<polyline id="SVGID_163_" points="-12.398,128 539.597,128 539.597,-3 -12.398,-3 -12.398,128 				"/>
			</defs>
			<clipPath id="SVGID_164_">
				<use xlink:href="#SVGID_163_"  overflow="visible"/>
			</clipPath>
			<path clip-path="url(#SVGID_164_)" fill="#1D183C" d="M61.088,56.649c0,1.139-0.873,2.061-1.961,2.061
				c-1.082,0-1.953-0.922-1.953-2.061c0-1.145,0.871-2.066,1.953-2.066C60.215,54.583,61.088,55.504,61.088,56.649z"/>
		</g>
		<g>
			<defs>
				<polyline id="SVGID_165_" points="-12.398,128 539.597,128 539.597,-3 -12.398,-3 -12.398,128 				"/>
			</defs>
			<clipPath id="SVGID_166_">
				<use xlink:href="#SVGID_165_"  overflow="visible"/>
			</clipPath>
			<path clip-path="url(#SVGID_166_)" fill="#F9AC8D" d="M22.473,54.773c3.349,0,6.066,2.862,6.066,6.393v6.395h-6.066
				c-3.354,0-6.066-2.859-6.066-6.395C16.406,57.635,19.12,54.773,22.473,54.773z"/>
		</g>
		<g>
			<defs>
				<polyline id="SVGID_167_" points="-12.398,128 539.597,128 539.597,-3 -12.398,-3 -12.398,128 				"/>
			</defs>
			<clipPath id="SVGID_168_">
				<use xlink:href="#SVGID_167_"  overflow="visible"/>
			</clipPath>
			<path clip-path="url(#SVGID_168_)" fill="#F4EF8E" d="M34.097,102.029H21.938c-3.998,0-7.237-5.416-7.237-12.107V46.364h19.396
				V102.029z"/>
		</g>
		<g>
			<defs>
				<polyline id="SVGID_169_" points="-12.398,128 539.597,128 539.597,-3 -12.398,-3 -12.398,128 				"/>
			</defs>
			<clipPath id="SVGID_170_">
				<use xlink:href="#SVGID_169_"  overflow="visible"/>
			</clipPath>
			<path clip-path="url(#SVGID_170_)" fill="#7B8E5C" d="M7.968,200.604c0,0-1.19-19.873-2.023-39.801
				c-0.879-19.916-1.437-39.871-1.437-39.871c-0.227-8.315,2.627-15.412,6.356-15.845c3.736-0.435,6.934,5.79,7.157,13.888
				c0,0,0.545,19.512,1.397,38.938c0.816,19.443,1.974,38.766,1.974,38.766L7.968,200.604z"/>
		</g>
		<g>
			<defs>
				<polyline id="SVGID_171_" points="-12.398,128 539.597,128 539.597,-3 -12.398,-3 -12.398,128 				"/>
			</defs>
			<clipPath id="SVGID_172_">
				<use xlink:href="#SVGID_171_"  overflow="visible"/>
			</clipPath>
			<path clip-path="url(#SVGID_172_)" fill="#FDC78B" d="M176.776,234.656c-3.732-0.495-6.414-3.566-5.993-6.857
				c0,0,0.673-5.113,1.452-12.768c0.788-7.649,1.631-17.854,1.956-28.055c0.353-10.189,0.174-20.363-0.34-27.957
				c-0.156-3.808-0.523-6.953-0.69-9.168c-0.191-2.215-0.331-3.468-0.331-3.468l13.536-1.448c0,0,0.151,1.326,0.344,3.647
				c0.186,2.325,0.566,5.646,0.738,9.631c0.536,7.97,0.719,18.618,0.358,29.214c-0.335,10.598-1.2,21.133-2.015,29
				c-0.802,7.864-1.482,13.066-1.482,13.066C183.882,232.84,180.508,235.154,176.776,234.656z"/>
		</g>
		<g>
			<defs>
				<polyline id="SVGID_173_" points="-12.398,128 539.597,128 539.597,-3 -12.398,-3 -12.398,128 				"/>
			</defs>
			<clipPath id="SVGID_174_">
				<use xlink:href="#SVGID_173_"  overflow="visible"/>
			</clipPath>
			<path clip-path="url(#SVGID_174_)" fill="#4DACB5" d="M169.726,151.053c0,0-0.821-10.056-2.584-19.953
				c-1.723-9.895-4.258-19.593-4.258-19.593c-1.252-4.438,2.153-9.422,7.607-11.122c5.446-1.707,10.996,0.918,12.386,5.846
				c0,0,0.206,0.656,0.477,1.822c0.278,1.166,0.668,2.824,1.148,4.82c1.02,3.975,2.019,9.346,3.018,14.714
				c1.917,10.757,2.803,21.613,2.803,21.613L169.726,151.053z"/>
		</g>
		<g>
			<defs>
				<polyline id="SVGID_175_" points="-12.398,128 539.597,128 539.597,-3 -12.398,-3 -12.398,128 				"/>
			</defs>
			<clipPath id="SVGID_176_">
				<use xlink:href="#SVGID_175_"  overflow="visible"/>
			</clipPath>
			<path clip-path="url(#SVGID_176_)" fill="#4DACB5" d="M162.612,99.173c6.921,0.662,7.4,0.162,13.938,1.86
				c0,0,7.182,2.089,5.712,13.709C181.631,119.713,181,132.93,181,132.93v64.209h-60.85l0.005-64.209c0,0-0.662-14.336-1.408-20.418
				c-1.15-9.39,7.976-11.652,7.976-11.652c10.393-2.703,13.354-2.271,23.856-2.271L162.612,99.173"/>
		</g>
		<g>
			<defs>
				<polyline id="SVGID_177_" points="-12.398,128 539.597,128 539.597,-3 -12.398,-3 -12.398,128 				"/>
			</defs>
			<clipPath id="SVGID_178_">
				<use xlink:href="#SVGID_177_"  overflow="visible"/>
			</clipPath>
			<path clip-path="url(#SVGID_178_)" fill="#FDC78B" d="M162.612,99.173l-12.032-0.585c-3.5,0-7.127,0.174-10.788,0.49
				c1.575,4.977,6.229,8.583,11.729,8.583c5.437,0,10.041-3.53,11.673-8.421C162.998,99.219,162.806,99.193,162.612,99.173z"/>
		</g>
		<g>
			<defs>
				<polyline id="SVGID_179_" points="-12.398,128 539.597,128 539.597,-3 -12.398,-3 -12.398,128 				"/>
			</defs>
			<clipPath id="SVGID_180_">
				<use xlink:href="#SVGID_179_"  overflow="visible"/>
			</clipPath>
			<path clip-path="url(#SVGID_180_)" fill="#EBE5E1" d="M175.006,107.916v32.99h6.467v-32.99c0-2.268-0.442-4.428-1.219-6.426
				c-2.746-0.545-5.517-0.986-8.321-1.334C173.83,102.193,175.006,104.918,175.006,107.916z"/>
		</g>
		<g>
			<defs>
				<polyline id="SVGID_181_" points="-12.398,128 539.597,128 539.597,-3 -12.398,-3 -12.398,128 				"/>
			</defs>
			<clipPath id="SVGID_182_">
				<use xlink:href="#SVGID_181_"  overflow="visible"/>
			</clipPath>
			<path clip-path="url(#SVGID_182_)" fill="#EBE5E1" d="M144.275,122.725l2.668,12.238l6.083-0.05l-0.752-12.188
				c-3.079-9.234-8.965-19.602-19.016-24.994c-2.263,0.312-4.503,0.693-6.7,1.148C133.777,105.036,141.244,113.632,144.275,122.725z
				"/>
		</g>
		<g>
			<defs>
				<polyline id="SVGID_183_" points="-12.398,128 539.597,128 539.597,-3 -12.398,-3 -12.398,128 				"/>
			</defs>
			<clipPath id="SVGID_184_">
				<use xlink:href="#SVGID_183_"  overflow="visible"/>
			</clipPath>
			<path clip-path="url(#SVGID_184_)" fill="#FDC78B" d="M149.943,69.363c-4.585,0-8.305,3.08-8.305,6.871v23l13.228,6.871
				l3.376-6.871v-23C158.242,72.441,154.525,69.363,149.943,69.363z"/>
		</g>
		<g>
			<defs>
				<polyline id="SVGID_185_" points="-12.398,128 539.597,128 539.597,-3 -12.398,-3 -12.398,128 				"/>
			</defs>
			<clipPath id="SVGID_186_">
				<use xlink:href="#SVGID_185_"  overflow="visible"/>
			</clipPath>
			<polygon clip-path="url(#SVGID_186_)" fill="#D8D1BD" points="181.472,135.732 145.218,135.732 134.835,176.619 181.472,176.619 
							"/>
		</g>
		<g>
			<defs>
				<polyline id="SVGID_187_" points="-12.398,128 539.597,128 539.597,-3 -12.398,-3 -12.398,128 				"/>
			</defs>
			<clipPath id="SVGID_188_">
				<use xlink:href="#SVGID_187_"  overflow="visible"/>
			</clipPath>
			<path clip-path="url(#SVGID_188_)" fill="#EBE5E1" d="M145.218,135.732l-10.383,40.887h22.841
				c0.239-1.691,0.385-3.43,0.385-5.223v-35.664H145.218z"/>
		</g>
		<g>
			<defs>
				<polyline id="SVGID_189_" points="-12.398,128 539.597,128 539.597,-3 -12.398,-3 -12.398,128 				"/>
			</defs>
			<clipPath id="SVGID_190_">
				<use xlink:href="#SVGID_189_"  overflow="visible"/>
			</clipPath>
			<path clip-path="url(#SVGID_190_)" fill="#363636" d="M152.589,129.684v4.68h-6.469v-4.68H152.589 M154.434,127.838h-1.846
				h-6.469h-1.845v1.844v4.68v1.848h1.845h6.469h1.846v-1.848v-4.68V127.838z"/>
		</g>
		<g>
			<defs>
				<polyline id="SVGID_191_" points="-12.398,128 539.597,128 539.597,-3 -12.398,-3 -12.398,128 				"/>
			</defs>
			<clipPath id="SVGID_192_">
				<use xlink:href="#SVGID_191_"  overflow="visible"/>
			</clipPath>
			<path clip-path="url(#SVGID_192_)" fill="#020304" d="M178.394,143.984h-0.565v12.988c0,3.246-1.313,6.178-3.439,8.305
				c-2.127,2.125-5.061,3.438-8.304,3.438c-3.245,0-6.177-1.313-8.304-3.438c-2.124-2.127-3.438-5.059-3.438-8.305V144.55h24.05
				V143.984h-0.565H178.394v-0.564h-25.182v13.553c0,7.11,5.762,12.873,12.872,12.875c7.108-0.002,12.874-5.765,12.874-12.875
				V143.42h-0.564V143.984z"/>
		</g>
		<g>
			<defs>
				<polyline id="SVGID_193_" points="-12.398,128 539.597,128 539.597,-3 -12.398,-3 -12.398,128 				"/>
			</defs>
			<clipPath id="SVGID_194_">
				<use xlink:href="#SVGID_193_"  overflow="visible"/>
			</clipPath>
			<polyline clip-path="url(#SVGID_194_)" fill="#020304" points="151.048,148.964 170.91,148.964 170.91,147.834 151.048,147.834 
							"/>
		</g>
		<g>
			<defs>
				<polyline id="SVGID_195_" points="-12.398,128 539.597,128 539.597,-3 -12.398,-3 -12.398,128 				"/>
			</defs>
			<clipPath id="SVGID_196_">
				<use xlink:href="#SVGID_195_"  overflow="visible"/>
			</clipPath>
			<path clip-path="url(#SVGID_196_)" fill="#363636" d="M181.624,131.225v4.68h-6.465v-4.68H181.624 M183.476,129.38h-1.853h-6.465
				h-1.848v1.845v4.68v1.85h1.848h6.465h1.853v-1.85v-4.68V129.38z"/>
		</g>
		<g>
			<defs>
				<polyline id="SVGID_197_" points="-12.398,128 539.597,128 539.597,-3 -12.398,-3 -12.398,128 				"/>
			</defs>
			<clipPath id="SVGID_198_">
				<use xlink:href="#SVGID_197_"  overflow="visible"/>
			</clipPath>
			<polyline clip-path="url(#SVGID_198_)" fill="#9FCFD7" points="106.457,138.361 106.474,144.745 120.155,144.604 120.156,138.54 
				106.457,138.361 			"/>
		</g>
		<g>
			<defs>
				<polyline id="SVGID_199_" points="-12.398,128 539.597,128 539.597,-3 -12.398,-3 -12.398,128 				"/>
			</defs>
			<clipPath id="SVGID_200_">
				<use xlink:href="#SVGID_199_"  overflow="visible"/>
			</clipPath>
			<polyline clip-path="url(#SVGID_200_)" fill="#308C99" points="120.156,138.54 120.155,144.604 127.143,144.529 127.133,138.631 
				120.156,138.54 			"/>
		</g>
		<g>
			<defs>
				<polyline id="SVGID_201_" points="-12.398,128 539.597,128 539.597,-3 -12.398,-3 -12.398,128 				"/>
			</defs>
			<clipPath id="SVGID_202_">
				<use xlink:href="#SVGID_201_"  overflow="visible"/>
			</clipPath>
			<path clip-path="url(#SVGID_202_)" fill="#FDC78B" d="M116.039,226.13c3.75-0.343,6.557-3.303,6.27-6.608
				c0,0-0.469-5.14-0.938-12.818c-0.478-7.676-0.909-17.906-0.822-28.114c0.06-10.196,0.647-20.356,1.47-27.923
				c0.311-3.797,0.804-6.925,1.061-9.132c0.281-2.207,0.472-3.454,0.472-3.454l-13.474-2c0,0-0.204,1.318-0.491,3.63
				c-0.278,2.315-0.795,5.619-1.125,9.595c-0.86,7.941-1.473,18.574-1.54,29.176c-0.094,10.604,0.346,21.168,0.842,29.061
				c0.485,7.895,0.956,13.121,0.956,13.121C109.01,224.023,112.289,226.477,116.039,226.13z"/>
		</g>
		<g>
			<defs>
				<polyline id="SVGID_203_" points="-12.398,128 539.597,128 539.597,-3 -12.398,-3 -12.398,128 				"/>
			</defs>
			<clipPath id="SVGID_204_">
				<use xlink:href="#SVGID_203_"  overflow="visible"/>
			</clipPath>
			<path clip-path="url(#SVGID_204_)" fill="#4DACB5" d="M127.281,150.428c0,0-0.426-10.078,0.11-20.115
				c0.484-10.031,1.812-19.969,1.812-19.969c0.698-4.563-3.298-9.089-8.916-10.104c-5.617-1.021-10.806,2.268-11.573,7.332
				c0,0-0.126,0.675-0.248,1.861c-0.133,1.188-0.32,2.889-0.546,4.928c-0.522,4.07-0.854,9.523-1.184,14.972
				c-0.577,10.909-0.116,21.789-0.116,21.789L127.281,150.428z"/>
		</g>
		<g>
			<defs>
				<polyline id="SVGID_205_" points="-12.398,128 539.597,128 539.597,-3 -12.398,-3 -12.398,128 				"/>
			</defs>
			<clipPath id="SVGID_206_">
				<use xlink:href="#SVGID_205_"  overflow="visible"/>
			</clipPath>
			<path clip-path="url(#SVGID_206_)" fill="#804A26" d="M179.313,38.209l-4.9,23.184l-2.796-1.898v-28.79
				c1.811,0,3.458,0.601,4.771,1.617c0.154,0.123,0.315,0.246,0.467,0.386l0.209,0.194
				C178.458,34.259,179.313,36.139,179.313,38.209z"/>
		</g>
		<g>
			<defs>
				<polyline id="SVGID_207_" points="-12.398,128 539.597,128 539.597,-3 -12.398,-3 -12.398,128 				"/>
			</defs>
			<clipPath id="SVGID_208_">
				<use xlink:href="#SVGID_207_"  overflow="visible"/>
			</clipPath>
			<path clip-path="url(#SVGID_208_)" fill="#FDC78B" d="M174.412,35.555v33.689c-0.656,8.098-4.16,15.557-9.391,20.664
				c-4.615,3.621-13.263,2.059-13.436,2.018c-13.29-3.501-22.82-13.596-22.82-27.887V35.555H174.412z"/>
		</g>
		<g>
			<defs>
				<polyline id="SVGID_209_" points="-12.398,128 539.597,128 539.597,-3 -12.398,-3 -12.398,128 				"/>
			</defs>
			<clipPath id="SVGID_210_">
				<use xlink:href="#SVGID_209_"  overflow="visible"/>
			</clipPath>
			<path clip-path="url(#SVGID_210_)" fill="#FDC78B" d="M132.593,58.418L132.593,58.418v13.119c-2.706,0-4.897-2.143-4.897-4.773
				v-3.575C127.694,60.555,129.886,58.418,132.593,58.418z"/>
		</g>
		<g>
			<defs>
				<polyline id="SVGID_211_" points="-12.398,128 539.597,128 539.597,-3 -12.398,-3 -12.398,128 				"/>
			</defs>
			<clipPath id="SVGID_212_">
				<use xlink:href="#SVGID_211_"  overflow="visible"/>
			</clipPath>
			<path clip-path="url(#SVGID_212_)" fill="#804A26" d="M135.457,30.705v28.79h-8.691V38.209c0-2.071,0.977-3.951,2.547-5.307
				l0.193-0.167c0.135-0.104,0.274-0.209,0.412-0.307l0.154-0.106C131.555,31.306,133.419,30.705,135.457,30.705z"/>
		</g>
		<g>
			<defs>
				<polyline id="SVGID_213_" points="-12.398,128 539.597,128 539.597,-3 -12.398,-3 -12.398,128 				"/>
			</defs>
			<clipPath id="SVGID_214_">
				<use xlink:href="#SVGID_213_"  overflow="visible"/>
			</clipPath>
			<path clip-path="url(#SVGID_214_)" fill="#804A26" d="M136.678,63.675l-2.623-7.039l-6.299-8.124l-1.655,19.474l5.62,12.574
				l2.798,0.379l-3.165-10.498c0,0-3.606-6.458-1.966-8.414C131.721,59.245,136.678,63.675,136.678,63.675z"/>
		</g>
		<g>
			<defs>
				<polyline id="SVGID_215_" points="-12.398,128 539.597,128 539.597,-3 -12.398,-3 -12.398,128 				"/>
			</defs>
			<clipPath id="SVGID_216_">
				<use xlink:href="#SVGID_215_"  overflow="visible"/>
			</clipPath>
			<path clip-path="url(#SVGID_216_)" fill="#804A26" d="M156.2,59.212c0.303,0.439,0.165,1.037-0.304,1.311
				c-0.437,0.245-0.998,0.123-1.274-0.284c-0.849-1.269-2.318-2.117-3.982-2.117c-1.674,0-3.149,0.848-3.995,2.117
				c-0.277,0.407-0.844,0.529-1.277,0.284c-0.469-0.274-0.603-0.872-0.304-1.311c0.806-1.198,2.01-2.118,3.422-2.597
				c0.676-0.221,1.404-0.342,2.154-0.342c0.741,0,1.462,0.122,2.141,0.342C154.19,57.094,155.395,58.014,156.2,59.212z"/>
		</g>
		<g>
			<defs>
				<polyline id="SVGID_217_" points="-12.398,128 539.597,128 539.597,-3 -12.398,-3 -12.398,128 				"/>
			</defs>
			<clipPath id="SVGID_218_">
				<use xlink:href="#SVGID_217_"  overflow="visible"/>
			</clipPath>
			<path clip-path="url(#SVGID_218_)" fill="#804A26" d="M175.304,59.203c0.301,0.44,0.162,1.042-0.304,1.316
				c-0.436,0.245-1.001,0.125-1.276-0.287c-0.848-1.271-2.316-2.115-3.982-2.115c-1.677,0-3.148,0.844-3.996,2.115
				c-0.274,0.411-0.841,0.531-1.276,0.287c-0.467-0.274-0.604-0.876-0.303-1.316c0.808-1.198,2.008-2.118,3.421-2.591
				c0.676-0.227,1.402-0.349,2.154-0.349c0.741,0,1.462,0.122,2.138,0.349C173.295,57.085,174.501,58.005,175.304,59.203z"/>
		</g>
		<g>
			<defs>
				<polyline id="SVGID_219_" points="-12.398,128 539.597,128 539.597,-3 -12.398,-3 -12.398,128 				"/>
			</defs>
			<clipPath id="SVGID_220_">
				<use xlink:href="#SVGID_219_"  overflow="visible"/>
			</clipPath>
			<path clip-path="url(#SVGID_220_)" fill="#40261A" d="M153.15,62.767c0,1.354-1.127,2.456-2.519,2.456
				c-1.395,0-2.516-1.102-2.516-2.456c0-1.356,1.121-2.458,2.516-2.458C152.023,60.309,153.15,61.411,153.15,62.767z"/>
		</g>
		<g>
			<defs>
				<polyline id="SVGID_221_" points="-12.398,128 539.597,128 539.597,-3 -12.398,-3 -12.398,128 				"/>
			</defs>
			<clipPath id="SVGID_222_">
				<use xlink:href="#SVGID_221_"  overflow="visible"/>
			</clipPath>
			<path clip-path="url(#SVGID_222_)" fill="#40261A" d="M171.125,62.767c0,1.354-1.124,2.456-2.514,2.456
				c-1.396,0-2.519-1.102-2.519-2.456c0-1.356,1.123-2.458,2.519-2.458C170.001,60.309,171.125,61.411,171.125,62.767z"/>
		</g>
		<g>
			<defs>
				<polyline id="SVGID_223_" points="-12.398,128 539.597,128 539.597,-3 -12.398,-3 -12.398,128 				"/>
			</defs>
			<clipPath id="SVGID_224_">
				<use xlink:href="#SVGID_223_"  overflow="visible"/>
			</clipPath>
			<path clip-path="url(#SVGID_224_)" fill="#F99964" d="M132.841,68.58L132.841,68.58v-6.302c-1.339,0-2.429,1.055-2.429,2.363
				v1.574C130.412,67.521,131.502,68.58,132.841,68.58z"/>
		</g>
		<g>
			<defs>
				<polyline id="SVGID_225_" points="-12.398,128 539.597,128 539.597,-3 -12.398,-3 -12.398,128 				"/>
			</defs>
			<clipPath id="SVGID_226_">
				<use xlink:href="#SVGID_225_"  overflow="visible"/>
			</clipPath>
			<path clip-path="url(#SVGID_226_)" fill="#FDC78B" d="M158.853,82.686l-4.886,1.92l-0.919-1.681
				c-0.295-0.538-0.827-0.923-1.454-1.063c-0.63,0.141-1.164,0.525-1.458,1.063l-0.914,1.681l-4.896-1.92l2.61-5.668h9.314
				L158.853,82.686z"/>
		</g>
		<g>
			<defs>
				<polyline id="SVGID_227_" points="-12.398,128 539.597,128 539.597,-3 -12.398,-3 -12.398,128 				"/>
			</defs>
			<clipPath id="SVGID_228_">
				<use xlink:href="#SVGID_227_"  overflow="visible"/>
			</clipPath>
			<path clip-path="url(#SVGID_228_)" fill="#FDAE78" d="M152.014,71.986c0,1.103-2.04,2-4.55,2c-2.521,0-4.559-0.896-4.559-2
				c0-1.096,2.037-1.99,4.559-1.99C149.974,69.996,152.014,70.891,152.014,71.986z"/>
		</g>
		<g>
			<defs>
				<polyline id="SVGID_229_" points="-12.398,128 539.597,128 539.597,-3 -12.398,-3 -12.398,128 				"/>
			</defs>
			<clipPath id="SVGID_230_">
				<use xlink:href="#SVGID_229_"  overflow="visible"/>
			</clipPath>
			<path clip-path="url(#SVGID_230_)" fill="#FFE9CC" d="M161.039,68.236L161.039,68.236c-0.346,0-0.633-0.272-0.633-0.612v-7.762
				c0-0.336,0.287-0.613,0.633-0.613s0.632,0.277,0.632,0.613v7.762C161.671,67.964,161.385,68.236,161.039,68.236z"/>
		</g>
		<g>
			<defs>
				<polyline id="SVGID_231_" points="-12.398,128 539.597,128 539.597,-3 -12.398,-3 -12.398,128 				"/>
			</defs>
			<clipPath id="SVGID_232_">
				<use xlink:href="#SVGID_231_"  overflow="visible"/>
			</clipPath>
			<path clip-path="url(#SVGID_232_)" fill="#FFE9CC" d="M161.039,71.928L161.039,71.928c-0.346,0-0.633-0.279-0.633-0.617
				c0-0.345,0.287-0.617,0.633-0.617s0.632,0.272,0.632,0.617C161.671,71.648,161.385,71.928,161.039,71.928z"/>
		</g>
		<g>
			<defs>
				<polyline id="SVGID_233_" points="-12.398,128 539.597,128 539.597,-3 -12.398,-3 -12.398,128 				"/>
			</defs>
			<clipPath id="SVGID_234_">
				<use xlink:href="#SVGID_233_"  overflow="visible"/>
			</clipPath>
			<path clip-path="url(#SVGID_234_)" fill="#804A26" d="M135.885,34.165c0,6.154-1.807,11.555-4.53,14.599V32.322h4.473
				C135.866,32.927,135.885,33.545,135.885,34.165z"/>
		</g>
		<g>
			<defs>
				<polyline id="SVGID_235_" points="-12.398,128 539.597,128 539.597,-3 -12.398,-3 -12.398,128 				"/>
			</defs>
			<clipPath id="SVGID_236_">
				<use xlink:href="#SVGID_235_"  overflow="visible"/>
			</clipPath>
			<path clip-path="url(#SVGID_236_)" fill="#804A26" d="M171.32,34.839c0,6.153,1.808,11.553,4.533,14.594V32.991h-4.482
				C171.337,33.599,171.32,34.214,171.32,34.839z"/>
		</g>
		<g>
			<defs>
				<polyline id="SVGID_237_" points="-12.398,128 539.597,128 539.597,-3 -12.398,-3 -12.398,128 				"/>
			</defs>
			<clipPath id="SVGID_238_">
				<use xlink:href="#SVGID_237_"  overflow="visible"/>
			</clipPath>
			<path clip-path="url(#SVGID_238_)" fill="#804A26" d="M174.428,22.154h-33.706c-4.293,0-7.776,3.396-7.776,7.585v5.815h37.413
				c3.892,0,7.052-3.081,7.052-6.88v-3.607C177.41,23.459,176.072,22.154,174.428,22.154z"/>
		</g>
		<g>
			<defs>
				<polyline id="SVGID_239_" points="-12.398,128 539.597,128 539.597,-3 -12.398,-3 -12.398,128 				"/>
			</defs>
			<clipPath id="SVGID_240_">
				<use xlink:href="#SVGID_239_"  overflow="visible"/>
			</clipPath>
			<path clip-path="url(#SVGID_240_)" fill="#804A26" d="M173.359,33.13c0,4.46-8.985,8.083-20.067,8.083
				c-11.091,0-20.074-3.622-20.074-8.083c0-4.469,8.983-8.09,20.074-8.09C164.374,25.04,173.359,28.661,173.359,33.13z"/>
		</g>
		<g>
			<defs>
				<polyline id="SVGID_241_" points="-12.398,128 539.597,128 539.597,-3 -12.398,-3 -12.398,128 				"/>
			</defs>
			<clipPath id="SVGID_242_">
				<use xlink:href="#SVGID_241_"  overflow="visible"/>
			</clipPath>
			<path clip-path="url(#SVGID_242_)" fill="#F5F5F5" d="M164.035,76.314c-0.404,2.435-2.454,4.287-4.933,4.272
				c-2.475-0.017-4.5-1.892-4.882-4.333L164.035,76.314z"/>
		</g>
		<g>
			<defs>
				<polyline id="SVGID_243_" points="-12.398,128 539.597,128 539.597,-3 -12.398,-3 -12.398,128 				"/>
			</defs>
			<clipPath id="SVGID_244_">
				<use xlink:href="#SVGID_243_"  overflow="visible"/>
			</clipPath>
			<polyline clip-path="url(#SVGID_244_)" fill="none" points="285.985,229.814 72.4,229.814 72.4,7 285.985,7 285.985,229.814 			
				"/>
		</g>
	</g>
</g>
</svg>
