<?xml version="1.0" encoding="utf-8"?>
<!-- Generator: Adobe Illustrator 15.1.0, SVG Export Plug-In . SVG Version: 6.00 Build 0)  -->
<!DOCTYPE svg PUBLIC "-//W3C//DTD SVG 1.1//EN" "http://www.w3.org/Graphics/SVG/1.1/DTD/svg11.dtd">
<svg version="1.1" id="Layer_1" xmlns="http://www.w3.org/2000/svg" xmlns:xlink="http://www.w3.org/1999/xlink" x="0px" y="0px"
	 width="385px" height="129px" viewBox="68.667 4 385 129" enable-background="new 68.667 4 385 129" xml:space="preserve">
<text transform="matrix(1.0391 0 0 1 -677.2058 -493.3184)" display="none" fill="#231F20" enable-background="new    " font-family="'Consolas'" font-size="17">R – Responsible – сотрудник, ответственный за фактическое исполнение KPI.</text>
<g>
	<g>
		
			<rect x="72.579" y="30.314" transform="matrix(-0.3286 -0.9445 0.9445 -0.3286 99.9456 203.3736)" fill="#FFFFFF" width="99.365" height="71.695"/>
		<path fill="#808184" d="M104.302,125.748L71.195,30.59L140.22,6.574l33.106,95.16L104.302,125.748z M72.962,31.444l32.194,92.536
			l66.403-23.102L139.365,8.342L72.962,31.444z"/>
	</g>
	<g>
		
			<rect x="100.354" y="27.683" transform="matrix(-0.9445 0.3286 -0.3286 -0.9445 239.2551 17.6355)" fill="#808184" width="35.567" height="2.701"/>
	</g>
	<g>
		
			<rect x="101.616" y="47.738" transform="matrix(-0.9445 0.3286 -0.3286 -0.9445 252.9519 55.4297)" fill="#808184" width="40.352" height="2.699"/>
	</g>
	<g>
		
			<rect x="106.311" y="60.765" transform="matrix(-0.9445 0.3286 -0.3286 -0.9445 266.3626 79.2182)" fill="#808184" width="40.353" height="2.701"/>
	</g>
	<g>
		
			<rect x="111.976" y="72.937" transform="matrix(-0.9445 0.3286 -0.3286 -0.9445 281.377 101.0221)" fill="#808184" width="40.351" height="2.701"/>
	</g>
	<g>
		
			<rect x="116.008" y="85.451" transform="matrix(-0.9445 0.3286 -0.3286 -0.9445 293.3282 124.0337)" fill="#808184" width="40.353" height="2.703"/>
	</g>
	<g>
		
			<rect x="120.264" y="99.353" transform="matrix(-0.9445 0.3286 -0.3286 -0.9445 306.1724 149.6663)" fill="#808184" width="40.352" height="2.702"/>
	</g>
	<g>
		
			<rect x="117.322" y="31.593" transform="matrix(-0.9445 0.3286 -0.3286 -0.9445 259.3262 22.0648)" fill="#808184" width="20.954" height="2.701"/>
	</g>
	<g>
		
			<rect x="88.074" y="53.285" transform="matrix(-0.9448 0.3277 -0.3277 -0.9448 201.0916 83.5537)" fill="#D8DAE5" width="10.866" height="10.866"/>
		<path fill="#2B388F" d="M89.511,66.956l-4.243-12.233l12.234-4.243l4.243,12.233L89.511,66.956z M87.918,56.008l2.878,8.299
			l8.299-2.88l-2.879-8.298L87.918,56.008z"/>
	</g>
	<g>
		
			<rect x="93.194" y="66.29" transform="matrix(-0.9448 0.3277 -0.3277 -0.9448 215.3138 107.163)" fill="#D8DAE5" width="10.867" height="10.867"/>
		<path fill="#2B388F" d="M94.633,79.963l-4.245-12.234l12.234-4.244l4.245,12.233L94.633,79.963z M93.038,69.015l2.879,8.299
			l8.301-2.88l-2.88-8.3L93.038,69.015z"/>
	</g>
	<g>
		
			<rect x="97.931" y="78.916" transform="matrix(-0.9448 0.3276 -0.3276 -0.9448 228.6563 130.183)" fill="#D8DAE5" width="10.866" height="10.866"/>
		<path fill="#2B388F" d="M99.368,92.588l-4.243-12.234l12.234-4.242l4.243,12.234L99.368,92.588z M97.775,81.639l2.879,8.301
			l8.298-2.879l-2.879-8.3L97.775,81.639z"/>
	</g>
	<g>
		
			<rect x="103.05" y="91.919" transform="matrix(-0.9447 0.3278 -0.3278 -0.9447 242.8863 153.7628)" fill="#D8DAE5" width="10.868" height="10.867"/>
		<path fill="#2B388F" d="M104.49,105.593l-4.247-12.235l12.235-4.245l4.245,12.235L104.49,105.593z M102.895,94.643l2.88,8.299
			l8.299-2.879l-2.879-8.299L102.895,94.643z"/>
	</g>
	<g>
		
			<rect x="107.781" y="104.535" transform="matrix(-0.9448 0.3277 -0.3277 -0.9448 256.2172 176.7612)" fill="#D8DAE5" width="10.867" height="10.868"/>
		<path fill="#2B388F" d="M109.22,118.209l-4.245-12.235l12.234-4.243l4.245,12.234L109.22,118.209z M107.625,107.259l2.879,8.3
			l8.3-2.879l-2.88-8.3L107.625,107.259z"/>
	</g>
	<g>
		<g>
			<path fill="#70B700" d="M85.629,54.114c1.429,2.689,3.356,4.85,6.292,5.863c0.939,0.324,3.166-0.05,3.534-1.156
				c1.452-4.365,1.309-9.042,2.763-13.406c0.372-1.122-3.512-0.598-3.902,0.575c-1.452,4.366-1.308,9.042-2.761,13.406
				c1.178-0.384,2.356-0.77,3.533-1.156c-2.596-0.896-4.272-2.802-5.535-5.178C88.921,51.875,85.153,53.218,85.629,54.114
				L85.629,54.114z"/>
		</g>
	</g>
	<g>
		<g>
			<path fill="#70B700" d="M96.67,81.715c1.43,2.69,3.356,4.853,6.294,5.864c0.938,0.323,3.166-0.052,3.533-1.157
				c1.453-4.365,1.308-9.04,2.761-13.407c0.373-1.121-3.511-0.598-3.901,0.577c-1.452,4.364-1.308,9.042-2.76,13.406
				c1.178-0.386,2.356-0.771,3.533-1.155c-2.597-0.896-4.273-2.803-5.535-5.179C99.963,79.477,96.193,80.819,96.67,81.715
				L96.67,81.715z"/>
		</g>
	</g>
	<g>
		<g>
			<path fill="#70B700" d="M101.008,94.334c1.429,2.689,3.355,4.85,6.293,5.864c0.938,0.323,3.166-0.052,3.534-1.155
				c1.451-4.367,1.308-9.045,2.76-13.409c0.373-1.121-3.511-0.597-3.9,0.576c-1.452,4.366-1.309,9.042-2.761,13.406
				c1.179-0.386,2.356-0.771,3.533-1.156c-2.595-0.896-4.272-2.802-5.535-5.178C104.299,92.094,100.531,93.436,101.008,94.334
				L101.008,94.334z"/>
		</g>
	</g>
</g>
<g>
	<g>
		
			<rect x="346.775" y="33.266" transform="matrix(0.3714 -0.9285 0.9285 0.3714 184.981 413.65)" fill="#FFFFFF" width="102.411" height="73.892"/>
		<path fill="#808184" d="M413.541,132.122l-69.551-27.824L382.406,8.27l0.473,0.189l69.076,27.635l-0.188,0.473L413.541,132.122z
			 M345.313,103.73l67.661,27.068l37.658-94.14l-67.66-27.067L345.313,103.73z"/>
	</g>
	<g>
		
			<rect x="406.394" y="41.338" transform="matrix(-0.9285 -0.3714 0.3714 -0.9285 795.1142 238.5858)" fill="#808184" width="28.273" height="2.784"/>
	</g>
	<g>
		
			<rect x="393.684" y="50.353" transform="matrix(-0.9285 -0.3714 0.3714 -0.9285 775.4313 252.8217)" fill="#808184" width="36.753" height="2.783"/>
	</g>
	<g>
		
			<rect x="412.644" y="48.572" transform="matrix(-0.9285 -0.3714 0.3714 -0.9285 796.0759 253.2327)" fill="#808184" width="19.555" height="2.784"/>
	</g>
	<g>
		<g>
			
				<rect x="340.604" y="67.641" transform="matrix(-0.9305 -0.3664 0.3664 -0.9305 633.2712 272.4123)" fill="#B9CBC0" width="3.764" height="16.944"/>
		</g>
		<g>
			
				<rect x="345.873" y="73.369" transform="matrix(-0.9304 -0.3665 0.3665 -0.9304 641.9641 282.0366)" fill="#CE4F27" width="3.757" height="13.433"/>
		</g>
		<g>
			
				<rect x="353.516" y="57.085" transform="matrix(-0.9305 -0.3664 0.3664 -0.9305 659.2958 271.3141)" fill="#7CA78C" width="3.761" height="32.004"/>
		</g>
		<g>
			
				<rect x="354.98" y="73.295" transform="matrix(-0.9305 -0.3664 0.3664 -0.9305 658.952 288.5947)" fill="#53ACB0" width="3.764" height="16.945"/>
		</g>
		<g>
			
				<rect x="362.62" y="56.775" transform="matrix(-0.9304 -0.3666 0.3666 -0.9304 676.2583 277.756)" fill="#B9CBC0" width="3.763" height="35.786"/>
		</g>
		<g>
			
				<rect x="365.903" y="73.084" transform="matrix(-0.9305 -0.3663 0.3663 -0.9305 679.3314 296.3575)" fill="#CE4F27" width="3.761" height="21.281"/>
		</g>
		<g>
			
				<rect x="371.73" y="66.368" transform="matrix(-0.9304 -0.3664 0.3664 -0.9304 691.4261 293.9539)" fill="#7CA78C" width="3.767" height="29.968"/>
		</g>
		<g>
			
				<rect x="376.722" y="64.048" transform="matrix(-0.9305 -0.3664 0.3664 -0.9305 701.1619 295.2855)" fill="#53ACB0" width="3.758" height="34.122"/>
		</g>
		<g>
			
				<rect x="380.54" y="67.748" transform="matrix(-0.9304 -0.3665 0.3665 -0.9304 707.5448 301.8139)" fill="#B9CBC0" width="3.757" height="32.005"/>
		</g>
		<g>
			
				<rect x="388.657" y="58.549" transform="matrix(-0.9305 -0.3663 0.3663 -0.9305 724.4288 298.4952)" fill="#CE4F27" width="3.756" height="43.933"/>
		</g>
		<g>
			
				<rect x="390.668" y="71.743" transform="matrix(-0.9304 -0.3665 0.3665 -0.9304 725.6385 313.2425)" fill="#7CA78C" width="3.768" height="32.002"/>
		</g>
		<g>
			
				<rect x="393.57" y="80.396" transform="matrix(-0.9304 -0.3665 0.3665 -0.9304 729.4017 323.9911)" fill="#53ACB0" width="3.768" height="24.731"/>
		</g>
		<g>
			
				<rect x="395.727" y="93.002" transform="matrix(-0.9304 -0.3665 0.3665 -0.9304 731.0123 338.21)" fill="#B9CBC0" width="3.763" height="13.434"/>
		</g>
		<g>
			
				<rect x="407.244" y="65.883" transform="matrix(-0.9304 -0.3665 0.3665 -0.9304 757.5841 319.5189)" fill="#CE4F27" width="3.753" height="43.933"/>
		</g>
		<g>
			
				<rect x="406.901" y="91.607" transform="matrix(-0.9305 -0.3664 0.3664 -0.9305 752.093 344.96)" fill="#7CA78C" width="3.758" height="19.012"/>
		</g>
		<g>
			
				<rect x="411.125" y="93.269" transform="matrix(-0.9305 -0.3664 0.3664 -0.9305 759.6424 349.7199)" fill="#53ACB0" width="3.764" height="19.013"/>
		</g>
		<g>
			
				<rect x="416.031" y="91.081" transform="matrix(-0.9303 -0.3667 0.3667 -0.9303 769.1004 351.2409)" fill="#B9CBC0" width="3.758" height="22.984"/>
		</g>
		<g>
			<g>
				
					<rect x="284.992" y="64.029" transform="matrix(-0.3664 0.9305 -0.9305 -0.3664 450.9649 -178.2617)" fill="#B9CBC0" width="2.375" height="0.785"/>
			</g>
			<g>
				
					<rect x="303.364" y="71.281" transform="matrix(-0.3668 0.9303 -0.9303 -0.3668 482.9554 -185.3454)" fill="#B9CBC0" width="2.375" height="0.793"/>
			</g>
			<g>
				
					<rect x="321.955" y="78.578" transform="matrix(-0.3662 0.9305 -0.9305 -0.3662 514.9724 -192.7963)" fill="#B9CBC0" width="2.376" height="0.797"/>
			</g>
			<g>
				
					<rect x="340.503" y="85.905" transform="matrix(-0.3662 0.9305 -0.9305 -0.3662 547.1283 -200.0475)" fill="#B9CBC0" width="2.376" height="0.794"/>
			</g>
			<g>
				
					<rect x="359.096" y="93.212" transform="matrix(-0.3667 0.9303 -0.9303 -0.3667 579.4888 -207.2519)" fill="#B9CBC0" width="2.375" height="0.789"/>
			</g>
			<g>
				
					<rect x="377.732" y="100.571" transform="matrix(-0.3667 0.9303 -0.9303 -0.3667 611.8049 -214.533)" fill="#B9CBC0" width="2.375" height="0.788"/>
			</g>
			<g>
				
					<rect x="396.385" y="107.909" transform="matrix(-0.3662 0.9305 -0.9305 -0.3662 643.9528 -221.9813)" fill="#B9CBC0" width="2.376" height="0.8"/>
			</g>
			<g>
				
					<rect x="415.043" y="115.264" transform="matrix(-0.3668 0.9303 -0.9303 -0.3668 676.5201 -229.1222)" fill="#B9CBC0" width="2.375" height="0.792"/>
			</g>
		</g>
	</g>
</g>
<g>
	<g>
		
			<rect x="139.963" y="27.978" transform="matrix(-0.1595 -0.9872 0.9872 -0.1595 158.5033 267.8192)" fill="#FFFFFF" width="106.599" height="76.913"/>
		<path fill="#808184" d="M163.385,125.77L146.217,19.531L223.15,7.1l0.081,0.502l17.087,105.736l-0.503,0.081L163.385,125.77z
			 M147.384,20.373l16.844,104.229l74.925-12.106L222.309,8.266L147.384,20.373z"/>
	</g>
	<g>
		
			<rect x="154.42" y="28.58" transform="matrix(-0.9872 0.1595 -0.1595 -0.9872 349.9396 31.9705)" fill="#808184" width="38.533" height="2.897"/>
	</g>
	<g>
		
			<rect x="152.957" y="23.339" transform="matrix(-0.9872 0.1595 -0.1595 -0.9872 327.7986 23.268)" fill="#808184" width="20.017" height="2.897"/>
	</g>
	<g>
		
			<rect x="199.062" y="92.58" transform="matrix(-0.9872 0.1595 -0.1595 -0.9872 448.8608 152.027)" fill="#808184" width="38.533" height="2.896"/>
	</g>
	<g>
		
			<rect x="197.607" y="87.333" transform="matrix(-0.9872 0.1596 -0.1596 -0.9872 426.7408 143.2851)" fill="#808184" width="20.017" height="2.899"/>
	</g>
	<g>
		<g>
			<circle fill="#CE4F27" cx="221.719" cy="43.336" r="10.459"/>
		</g>
		<g>
			<circle fill="#7CA78C" cx="232.136" cy="41.943" r="10.455"/>
		</g>
		<g>
			<path fill="#53ACB0" d="M221.773,43.329c0.511,3.82,3.029,6.888,6.353,8.271c2.841-2.207,4.471-5.83,3.959-9.65
				c-0.512-3.825-3.035-6.892-6.355-8.275C222.885,35.882,221.262,39.503,221.773,43.329z"/>
		</g>
	</g>
	<g>
		<g>
			<circle fill="#CE4F27" cx="177.082" cy="105.817" r="8.444"/>
		</g>
		<g>
			<circle fill="#A3CCB5" cx="185.496" cy="104.692" r="8.445"/>
		</g>
		<g>
			<circle fill="#6A9A7E" cx="180.32" cy="98.016" r="8.447"/>
		</g>
		<g>
			<path fill="#E98469" d="M184.377,96.322c1.517-0.202,2.991,0.007,4.313,0.551c0,0.005,0.002,0.014,0.003,0.023
				c0.618,4.623-2.63,8.873-7.253,9.492c-1.517,0.201-2.991-0.014-4.311-0.552c-0.002-0.01-0.003-0.021-0.004-0.026
				C176.507,101.188,179.754,96.939,184.377,96.322z"/>
		</g>
		<g>
			<path fill="#3BA4A4" d="M175.961,97.447c-1.516,0.203-2.882,0.793-4.016,1.664c0.001,0.006,0.002,0.016,0.003,0.023
				c0.619,4.623,4.867,7.871,9.491,7.254c1.519-0.203,2.884-0.799,4.016-1.664c-0.002-0.011-0.003-0.021-0.004-0.027
				C184.832,100.072,180.582,96.829,175.961,97.447z"/>
		</g>
		<g>
			<path fill="#93D5DF" d="M177.126,105.813c0.412,3.084,2.448,5.563,5.13,6.678c2.3-1.781,3.607-4.707,3.195-7.791
				c-0.413-3.092-2.445-5.565-5.132-6.684C178.026,99.799,176.712,102.721,177.126,105.813z"/>
		</g>
		<g>
			<path fill="#F4F5F5" d="M180.319,98.016c-2.293,1.783-3.607,4.705-3.193,7.797c0.001,0.006,0.002,0.017,0.004,0.025
				c1.318,0.538,2.794,0.753,4.311,0.551c1.519-0.203,2.884-0.798,4.016-1.664c-0.002-0.01-0.003-0.02-0.004-0.025
				C185.038,101.607,183.006,99.133,180.319,98.016z"/>
		</g>
	</g>
	<g>
		<g>
			<circle fill="#F4F5F5" cx="194.92" cy="46.92" r="10.457"/>
		</g>
		<g>
			<path fill="#6A9A7E" d="M196.306,57.266c-1.925,0.258-3.877-0.028-5.643-0.815l4.229-9.458c0.011,0.003,0.018,0.007,0.04,0.004
				c0.015-0.002,0.036-0.004,0.058-0.043l9.005,5.126c-0.776,1.365-1.872,2.557-3.165,3.445
				C199.489,56.445,197.924,57.049,196.306,57.266z"/>
		</g>
		<g>
			<path fill="#B9CBC0" d="M190.44,56.348c-0.978-0.465-1.879-1.079-2.671-1.825c-0.801-0.754-1.477-1.622-2.002-2.584l9.085-4.982
				c0.005,0.013,0.021,0.027,0.04,0.036L190.44,56.348z"/>
		</g>
		<g>
			<path fill="#CE4F27" d="M204.111,51.867l-9.122-4.916c0.01-0.015,0.011-0.021,0.009-0.041c-0.009-0.061-0.064-0.066-0.064-0.066
				l0.997-10.313c2.309,0.221,4.507,1.227,6.191,2.835c1.712,1.629,2.829,3.822,3.146,6.172
				C205.56,47.729,205.16,49.921,204.111,51.867z"/>
		</g>
		<g>
			<path fill="#93D5DF" d="M185.653,51.725c-0.556-1.069-0.919-2.221-1.079-3.42c-0.267-1.998,0.042-4.012,0.9-5.828
				c0.829-1.761,2.13-3.254,3.763-4.313l5.644,8.689c-0.014,0.007-0.044,0.03-0.037,0.077c0.002,0.015,0.009,0.02,0.01,0.022
				L185.653,51.725z"/>
		</g>
		<g>
			<path fill="#53ACB0" d="M194.884,46.853l-5.442-8.815c1.254-0.776,2.631-1.27,4.098-1.465c0.712-0.096,1.438-0.116,2.149-0.063
				L194.93,46.84c-0.003,0.001-0.012,0.002-0.02,0.003C194.89,46.845,194.887,46.85,194.884,46.853z"/>
		</g>
	</g>
	<g>
		<g>
			<g>
				<circle fill="#F4F5F5" cx="168.26" cy="50.486" r="10.457"/>
			</g>
			<g>
				<path fill="#93D5DF" d="M169.65,60.891L169.65,60.891c-1.796,0.24-3.629,0.012-5.305-0.662l3.654-9.08
					c0.111,0.044,0.229,0.056,0.354,0.039c0.076-0.011,0.147-0.028,0.218-0.063l4.25,8.819
					C171.818,60.424,170.752,60.743,169.65,60.891z"/>
			</g>
			<g>
				<path fill="#7CA78C" d="M164.263,60.195c-1.672-0.688-3.146-1.804-4.266-3.229c-1.153-1.468-1.896-3.229-2.146-5.088
					c-0.094-0.688-0.115-1.387-0.071-2.073l9.769,0.628c-0.005,0.046-0.002,0.095,0.007,0.147c0.051,0.379,0.347,0.528,0.434,0.565
					L164.263,60.195z"/>
			</g>
			<g>
				<path fill="#B9CBC0" d="M167.549,50.428l-9.763-0.712c0.214-2.929,1.663-5.659,3.979-7.481l6.061,7.687
					C167.665,50.047,167.563,50.233,167.549,50.428z"/>
			</g>
			<g>
				<path fill="#53ACB0" d="M168.651,49.893c-0.146-0.099-0.313-0.136-0.487-0.113c-0.129,0.018-0.238,0.063-0.34,0.141l-5.99-7.74
					c1.458-1.129,3.198-1.857,5.032-2.104c2.532-0.338,5.096,0.256,7.219,1.675L168.651,49.893z"/>
			</g>
			<g>
				<path fill="#CE4F27" d="M178.659,49.039c-0.003-0.019-0.005-0.036-0.009-0.056l0,0c-0.214-1.483-0.729-2.87-1.531-4.134
					c-0.771-1.214-1.77-2.242-2.962-3.053l-5.5,8.1c0.119,0.08,0.269,0.23,0.308,0.485l0.002,0.011
					c0.047,0.35-0.163,0.62-0.392,0.732l4.321,8.781c4.051-1.992,6.368-6.34,5.771-10.812l-0.003-0.018h-0.001
					C178.663,49.066,178.661,49.052,178.659,49.039z"/>
			</g>
		</g>
		<g>
			<path fill="#F4F5F5" d="M175.817,49.476c0.558,4.171-2.374,8.009-6.548,8.566c-4.175,0.559-8.015-2.373-8.571-6.544
				c-0.559-4.176,2.375-8.011,6.55-8.569C171.422,42.37,175.258,45.3,175.817,49.476z"/>
		</g>
	</g>
	<g>
		<g>
			
				<rect x="164.037" y="64.404" transform="matrix(-0.9912 0.1321 -0.1321 -0.9912 336.9728 108.1688)" fill="#CE4F27" width="1.722" height="1.72"/>
		</g>
		<g>
			
				<rect x="164.53" y="67.97" transform="matrix(-0.9912 0.1327 -0.1327 -0.9912 338.4525 115.1128)" fill="#53ACB0" width="1.722" height="1.726"/>
		</g>
		<g>
			
				<rect x="165.003" y="71.548" transform="matrix(-0.9912 0.1326 -0.1326 -0.9912 339.8672 122.1836)" fill="#B9CBC0" width="1.723" height="1.722"/>
		</g>
		<g>
			
				<rect x="165.486" y="75.113" transform="matrix(-0.9912 0.1327 -0.1327 -0.9912 341.3039 129.2099)" fill="#7CA78C" width="1.722" height="1.726"/>
		</g>
		<g>
			<g>
				<path fill="#F4F5F5" d="M167.268,64.233l0.139-0.019l0.129,0.965L168,65.116l0.018,0.119l-0.604,0.08L167.268,64.233z"/>
			</g>
			<g>
				<path fill="#F4F5F5" d="M168.798,64.73c0.038,0.286-0.149,0.44-0.335,0.465c-0.209,0.028-0.392-0.104-0.426-0.353
					c-0.034-0.258,0.116-0.433,0.329-0.461C168.589,64.352,168.766,64.492,168.798,64.73z M168.182,64.821
					c0.022,0.17,0.133,0.284,0.273,0.266c0.132-0.018,0.218-0.158,0.194-0.334c-0.019-0.13-0.109-0.288-0.274-0.267
					C168.211,64.509,168.162,64.672,168.182,64.821z"/>
			</g>
			<g>
				<path fill="#F4F5F5" d="M168.954,64.566c-0.013-0.093-0.023-0.17-0.039-0.242l0.124-0.017l0.026,0.155l0.006-0.001
					c0.019-0.108,0.102-0.188,0.193-0.2c0.015-0.002,0.024-0.004,0.04-0.003l0.019,0.134c-0.018-0.001-0.03,0-0.048,0.003
					c-0.104,0.014-0.163,0.099-0.171,0.208c0.003,0.019,0.002,0.042,0.005,0.063l0.056,0.416l-0.14,0.019L168.954,64.566z"/>
			</g>
			<g>
				<path fill="#F4F5F5" d="M169.563,64.658c0.028,0.191,0.162,0.255,0.303,0.236c0.101-0.014,0.165-0.039,0.211-0.068l0.042,0.097
					c-0.049,0.029-0.132,0.069-0.256,0.086c-0.241,0.031-0.405-0.11-0.437-0.343c-0.031-0.236,0.082-0.438,0.308-0.467
					c0.256-0.035,0.354,0.178,0.373,0.32c0.004,0.03,0.005,0.05,0.003,0.065L169.563,64.658z M169.965,64.5
					c-0.012-0.085-0.066-0.222-0.227-0.2c-0.144,0.02-0.188,0.159-0.185,0.255L169.965,64.5z"/>
			</g>
			<g>
				<path fill="#F4F5F5" d="M170.263,64.357c-0.012-0.082-0.022-0.145-0.035-0.209l0.124-0.017l0.023,0.125l0.004-0.001
					c0.035-0.077,0.098-0.156,0.229-0.174c0.105-0.015,0.195,0.038,0.236,0.127l0.004-0.001c0.02-0.048,0.049-0.086,0.077-0.115
					c0.044-0.041,0.089-0.065,0.162-0.075c0.104-0.014,0.268,0.035,0.304,0.303l0.061,0.456l-0.141,0.019l-0.059-0.437
					c-0.021-0.154-0.086-0.235-0.197-0.221c-0.084,0.012-0.138,0.079-0.153,0.15c-0.003,0.021-0.005,0.048-0.001,0.075l0.063,0.479
					l-0.137,0.018l-0.063-0.467c-0.018-0.123-0.084-0.204-0.192-0.19c-0.086,0.012-0.143,0.092-0.155,0.165
					c-0.006,0.023-0.004,0.05-0.001,0.072l0.063,0.467l-0.141,0.019L170.263,64.357z"/>
			</g>
			<g>
				<path fill="#F4F5F5" d="M172.385,63.639c0.006,0.049-0.023,0.09-0.078,0.098c-0.053,0.007-0.093-0.025-0.099-0.074
					c-0.007-0.049,0.022-0.093,0.076-0.1C172.336,63.556,172.378,63.588,172.385,63.639z M172.359,64.655l-0.104-0.778l0.145-0.019
					l0.104,0.777L172.359,64.655z"/>
			</g>
			<g>
				<path fill="#F4F5F5" d="M172.666,64.084c-0.013-0.101-0.028-0.181-0.039-0.257l0.124-0.017l0.025,0.133h0.002
					c0.044-0.104,0.133-0.169,0.257-0.187c0.19-0.025,0.354,0.114,0.385,0.351c0.038,0.278-0.115,0.44-0.3,0.466
					c-0.101,0.013-0.197-0.021-0.255-0.093l-0.002,0.001l0.057,0.422l-0.142,0.019L172.666,64.084z M172.835,64.268
					c0.003,0.022,0.006,0.045,0.013,0.06c0.038,0.094,0.135,0.15,0.233,0.137c0.15-0.02,0.222-0.154,0.197-0.33
					c-0.021-0.157-0.122-0.28-0.272-0.26c-0.095,0.013-0.174,0.094-0.188,0.202c-0.003,0.02-0.002,0.041,0,0.057L172.835,64.268z"/>
			</g>
			<g>
				<path fill="#F4F5F5" d="M173.612,64.343c0.047,0.018,0.122,0.038,0.195,0.028c0.101-0.014,0.145-0.069,0.136-0.135
					c-0.01-0.067-0.058-0.096-0.164-0.122c-0.148-0.033-0.225-0.1-0.236-0.191c-0.018-0.127,0.072-0.243,0.237-0.266
					c0.08-0.011,0.149,0.002,0.196,0.021l-0.022,0.109c-0.032-0.017-0.091-0.037-0.164-0.027c-0.083,0.011-0.122,0.065-0.113,0.127
					c0.009,0.063,0.059,0.085,0.164,0.11c0.14,0.034,0.22,0.09,0.234,0.208c0.021,0.14-0.073,0.249-0.259,0.273
					c-0.082,0.012-0.166,0-0.226-0.026L173.612,64.343z"/>
			</g>
			<g>
				<path fill="#F4F5F5" d="M174.908,64.099c0.011,0.079,0.021,0.149,0.036,0.211l-0.127,0.017l-0.023-0.124h-0.004
					c-0.025,0.064-0.099,0.16-0.238,0.179c-0.123,0.018-0.274-0.031-0.313-0.308l-0.062-0.453l0.14-0.019l0.058,0.43
					c0.021,0.147,0.081,0.243,0.209,0.226c0.095-0.013,0.15-0.087,0.167-0.153c0.004-0.023,0.01-0.048,0.004-0.077l-0.063-0.475
					l0.142-0.02L174.908,64.099z"/>
			</g>
			<g>
				<path fill="#F4F5F5" d="M175.094,63.712c-0.012-0.082-0.021-0.146-0.033-0.21l0.124-0.017l0.021,0.125l0.008-0.001
					c0.032-0.077,0.098-0.156,0.228-0.174c0.103-0.014,0.192,0.038,0.238,0.127l0.005-0.001c0.016-0.048,0.045-0.086,0.071-0.115
					c0.043-0.04,0.091-0.064,0.165-0.075c0.105-0.014,0.27,0.035,0.305,0.304l0.062,0.455l-0.14,0.019l-0.06-0.437
					c-0.021-0.154-0.091-0.234-0.2-0.22c-0.083,0.011-0.138,0.078-0.151,0.149c-0.005,0.022-0.005,0.048-0.001,0.076l0.063,0.478
					l-0.141,0.019l-0.062-0.467c-0.019-0.124-0.081-0.206-0.192-0.19c-0.086,0.011-0.144,0.092-0.154,0.165
					c-0.005,0.022-0.006,0.049-0.002,0.072l0.063,0.467l-0.141,0.019L175.094,63.712z"/>
			</g>
		</g>
		<g>
			<g>
				<path fill="#F4F5F5" d="M167.745,67.805l0.139-0.02l0.13,0.966l0.464-0.063l0.018,0.123l-0.604,0.08L167.745,67.805z"/>
			</g>
			<g>
				<path fill="#F4F5F5" d="M169.274,68.301c0.039,0.289-0.149,0.44-0.334,0.465c-0.209,0.028-0.394-0.104-0.425-0.351
					c-0.035-0.259,0.114-0.435,0.328-0.463C169.067,67.923,169.243,68.064,169.274,68.301z M168.659,68.393
					c0.022,0.17,0.134,0.287,0.275,0.269c0.132-0.019,0.217-0.159,0.192-0.335c-0.018-0.133-0.107-0.287-0.273-0.266
					C168.688,68.083,168.64,68.247,168.659,68.393z"/>
			</g>
			<g>
				<path fill="#F4F5F5" d="M169.432,68.139c-0.013-0.094-0.023-0.17-0.039-0.242l0.124-0.018l0.025,0.152h0.006
					c0.02-0.111,0.103-0.188,0.193-0.199c0.015-0.001,0.025-0.001,0.041-0.003l0.018,0.133c-0.017,0.002-0.028,0.004-0.048,0.007
					c-0.103,0.014-0.163,0.094-0.171,0.204c0.003,0.019,0.002,0.046,0.006,0.068l0.056,0.415l-0.14,0.019L169.432,68.139z"/>
			</g>
			<g>
				<path fill="#F4F5F5" d="M170.042,68.23c0.029,0.192,0.16,0.252,0.303,0.232c0.101-0.013,0.164-0.039,0.211-0.068l0.042,0.099
					c-0.05,0.028-0.133,0.067-0.258,0.085c-0.238,0.031-0.403-0.107-0.436-0.344c-0.031-0.234,0.083-0.436,0.308-0.465
					c0.257-0.035,0.354,0.178,0.373,0.319c0.004,0.03,0.005,0.054,0.003,0.067L170.042,68.23z M170.442,68.074
					c-0.012-0.09-0.067-0.223-0.227-0.2c-0.145,0.019-0.188,0.155-0.185,0.255L170.442,68.074z"/>
			</g>
			<g>
				<path fill="#F4F5F5" d="M170.74,67.928c-0.011-0.08-0.021-0.144-0.035-0.207l0.125-0.018l0.024,0.128h0.004
					c0.034-0.08,0.096-0.161,0.226-0.179c0.107-0.014,0.196,0.039,0.238,0.129h0.004c0.021-0.049,0.049-0.086,0.077-0.114
					c0.044-0.04,0.089-0.067,0.162-0.078c0.103-0.014,0.268,0.034,0.303,0.302l0.063,0.461l-0.142,0.02l-0.06-0.443
					c-0.021-0.15-0.084-0.23-0.196-0.215c-0.084,0.012-0.137,0.078-0.154,0.148c-0.003,0.021-0.005,0.045-0.001,0.072l0.064,0.482
					l-0.137,0.02l-0.063-0.472c-0.017-0.122-0.083-0.202-0.191-0.188c-0.086,0.013-0.143,0.09-0.155,0.164
					c-0.006,0.021-0.004,0.047-0.001,0.07l0.063,0.471l-0.14,0.02L170.74,67.928z"/>
			</g>
			<g>
				<path fill="#F4F5F5" d="M172.862,67.208c0.007,0.05-0.022,0.095-0.078,0.103c-0.052,0.006-0.092-0.029-0.099-0.078
					c-0.006-0.047,0.022-0.092,0.077-0.1C172.813,67.126,172.855,67.156,172.862,67.208z M172.838,68.229l-0.104-0.781l0.144-0.018
					l0.104,0.779L172.838,68.229z"/>
			</g>
			<g>
				<path fill="#F4F5F5" d="M173.144,67.652c-0.015-0.1-0.029-0.18-0.039-0.254l0.124-0.018l0.024,0.135h0.002
					c0.045-0.104,0.134-0.172,0.258-0.188c0.19-0.024,0.354,0.116,0.385,0.351c0.038,0.277-0.116,0.439-0.3,0.465
					c-0.102,0.014-0.196-0.018-0.256-0.093h-0.002l0.058,0.427l-0.143,0.02L173.144,67.652z M173.313,67.841
					c0.002,0.021,0.006,0.041,0.012,0.06c0.039,0.092,0.136,0.147,0.234,0.135c0.149-0.02,0.221-0.15,0.196-0.33
					c-0.021-0.154-0.12-0.275-0.271-0.256c-0.096,0.014-0.175,0.089-0.189,0.201c-0.003,0.019-0.003,0.039-0.001,0.056
					L173.313,67.841z"/>
			</g>
			<g>
				<path fill="#F4F5F5" d="M174.09,67.915c0.048,0.017,0.122,0.04,0.196,0.028c0.102-0.012,0.145-0.069,0.135-0.139
					c-0.009-0.066-0.058-0.095-0.164-0.121c-0.146-0.031-0.224-0.098-0.235-0.19c-0.018-0.124,0.072-0.242,0.236-0.265
					c0.08-0.012,0.149,0.002,0.197,0.024l-0.022,0.104c-0.032-0.016-0.091-0.035-0.164-0.024c-0.082,0.011-0.122,0.065-0.113,0.125
					c0.008,0.062,0.058,0.086,0.164,0.112c0.139,0.031,0.22,0.091,0.235,0.205c0.018,0.139-0.073,0.248-0.261,0.272
					c-0.082,0.011-0.165,0-0.225-0.026L174.09,67.915z"/>
			</g>
			<g>
				<path fill="#F4F5F5" d="M175.386,67.667c0.012,0.084,0.021,0.151,0.036,0.218l-0.127,0.016l-0.023-0.129l-0.004,0.002
					c-0.026,0.067-0.099,0.16-0.239,0.179c-0.123,0.017-0.274-0.032-0.311-0.304l-0.063-0.457l0.139-0.019l0.06,0.433
					c0.019,0.146,0.08,0.238,0.208,0.222c0.094-0.013,0.148-0.085,0.166-0.152c0.005-0.021,0.01-0.049,0.006-0.073l-0.063-0.478
					l0.142-0.021L175.386,67.667z"/>
			</g>
			<g>
				<path fill="#F4F5F5" d="M175.571,67.279c-0.011-0.078-0.019-0.143-0.033-0.207l0.125-0.016l0.021,0.129l0.007-0.002
					c0.032-0.08,0.097-0.16,0.227-0.178c0.104-0.014,0.194,0.038,0.238,0.129l0.005-0.001c0.018-0.049,0.045-0.084,0.072-0.112
					c0.044-0.041,0.091-0.069,0.165-0.08c0.104-0.014,0.268,0.034,0.304,0.302l0.063,0.46l-0.14,0.019l-0.06-0.441
					c-0.021-0.15-0.09-0.229-0.201-0.215c-0.082,0.012-0.137,0.078-0.151,0.147c-0.005,0.021-0.005,0.048-0.001,0.072l0.064,0.483
					l-0.14,0.019l-0.063-0.47c-0.016-0.123-0.08-0.203-0.19-0.188c-0.087,0.013-0.143,0.091-0.154,0.163
					c-0.005,0.021-0.005,0.048-0.002,0.072l0.063,0.47l-0.139,0.019L175.571,67.279z"/>
			</g>
		</g>
		<g>
			<g>
				<path fill="#F4F5F5" d="M168.223,71.377l0.139-0.02l0.13,0.967l0.464-0.063l0.017,0.117l-0.604,0.08L168.223,71.377z"/>
			</g>
			<g>
				<path fill="#F4F5F5" d="M169.752,71.872c0.039,0.288-0.148,0.442-0.333,0.468c-0.209,0.027-0.393-0.105-0.426-0.352
					c-0.035-0.262,0.115-0.436,0.328-0.465C169.545,71.494,169.721,71.637,169.752,71.872z M169.137,71.962
					c0.022,0.173,0.134,0.288,0.274,0.269c0.132-0.018,0.218-0.158,0.194-0.334c-0.019-0.131-0.109-0.287-0.274-0.265
					C169.166,71.652,169.117,71.816,169.137,71.962z"/>
			</g>
			<g>
				<path fill="#F4F5F5" d="M169.909,71.706c-0.012-0.089-0.022-0.167-0.039-0.237l0.124-0.018l0.026,0.152l0.006-0.002
					c0.019-0.106,0.103-0.187,0.193-0.197c0.015-0.002,0.024-0.002,0.04-0.002l0.019,0.133c-0.017-0.001-0.03,0-0.048,0.003
					c-0.104,0.015-0.163,0.099-0.171,0.206c0.003,0.02,0.002,0.044,0.005,0.068l0.056,0.412l-0.139,0.02L169.909,71.706z"/>
			</g>
			<g>
				<path fill="#F4F5F5" d="M170.52,71.805c0.028,0.188,0.161,0.25,0.302,0.23c0.102-0.014,0.165-0.038,0.212-0.066l0.041,0.096
					c-0.049,0.031-0.132,0.072-0.256,0.088c-0.24,0.033-0.405-0.109-0.437-0.344c-0.031-0.233,0.082-0.438,0.308-0.468
					c0.257-0.034,0.354,0.181,0.373,0.322c0.004,0.028,0.005,0.05,0.004,0.065L170.52,71.805z M170.921,71.645
					c-0.012-0.086-0.067-0.224-0.228-0.203c-0.145,0.021-0.188,0.162-0.185,0.26L170.921,71.645z"/>
			</g>
			<g>
				<path fill="#F4F5F5" d="M171.219,71.5c-0.012-0.081-0.022-0.145-0.035-0.207l0.125-0.018l0.023,0.127h0.004
					c0.034-0.082,0.097-0.162,0.228-0.18c0.105-0.014,0.194,0.039,0.236,0.127h0.005c0.02-0.049,0.048-0.084,0.076-0.113
					c0.043-0.041,0.09-0.066,0.162-0.076c0.104-0.014,0.268,0.031,0.304,0.303l0.062,0.457l-0.141,0.02l-0.06-0.438
					c-0.021-0.151-0.085-0.233-0.196-0.22c-0.085,0.013-0.138,0.08-0.154,0.15c-0.003,0.021-0.004,0.047-0.001,0.071l0.063,0.481
					l-0.138,0.019l-0.063-0.466c-0.016-0.124-0.083-0.206-0.19-0.191c-0.086,0.012-0.144,0.092-0.155,0.166
					c-0.007,0.02-0.006,0.043-0.002,0.069l0.063,0.469l-0.141,0.019L171.219,71.5z"/>
			</g>
			<g>
				<path fill="#F4F5F5" d="M173.34,70.781c0.007,0.045-0.022,0.09-0.077,0.098c-0.053,0.008-0.093-0.027-0.099-0.074
					c-0.007-0.049,0.022-0.094,0.076-0.102C173.291,70.697,173.334,70.732,173.34,70.781z M173.315,71.799l-0.104-0.777l0.145-0.02
					l0.104,0.777L173.315,71.799z"/>
			</g>
			<g>
				<path fill="#F4F5F5" d="M173.621,71.225c-0.013-0.101-0.029-0.179-0.039-0.252l0.125-0.018l0.024,0.131l0.002-0.001
					c0.044-0.103,0.133-0.169,0.257-0.187c0.191-0.025,0.354,0.115,0.385,0.351c0.038,0.28-0.116,0.442-0.3,0.468
					c-0.101,0.014-0.196-0.021-0.255-0.092h-0.002l0.057,0.421l-0.142,0.019L173.621,71.225z M173.79,71.411
					c0.003,0.021,0.005,0.039,0.013,0.06c0.038,0.094,0.136,0.147,0.233,0.135c0.15-0.021,0.222-0.151,0.197-0.332
					c-0.021-0.153-0.121-0.274-0.272-0.254c-0.095,0.012-0.174,0.092-0.188,0.201c-0.003,0.018-0.003,0.041,0,0.059L173.79,71.411z"
					/>
			</g>
			<g>
				<path fill="#F4F5F5" d="M174.567,71.486c0.048,0.019,0.123,0.037,0.196,0.027c0.101-0.014,0.144-0.07,0.135-0.135
					c-0.009-0.066-0.059-0.1-0.164-0.122c-0.148-0.034-0.224-0.099-0.236-0.19c-0.017-0.127,0.072-0.244,0.237-0.268
					c0.08-0.011,0.148,0.001,0.197,0.021l-0.023,0.109c-0.032-0.019-0.09-0.037-0.163-0.027c-0.083,0.013-0.122,0.066-0.115,0.125
					c0.011,0.066,0.06,0.086,0.165,0.113c0.14,0.031,0.221,0.09,0.235,0.207c0.018,0.135-0.073,0.25-0.259,0.273
					c-0.082,0.012-0.166-0.004-0.227-0.025L174.567,71.486z"/>
			</g>
			<g>
				<path fill="#F4F5F5" d="M175.863,71.238c0.011,0.082,0.021,0.154,0.036,0.215l-0.126,0.018l-0.025-0.13l-0.003,0.001
					c-0.025,0.07-0.098,0.164-0.239,0.184c-0.122,0.018-0.273-0.035-0.312-0.307l-0.062-0.453l0.141-0.021l0.057,0.429
					c0.021,0.148,0.082,0.244,0.21,0.229c0.094-0.014,0.149-0.09,0.165-0.158c0.005-0.02,0.01-0.045,0.006-0.073l-0.063-0.476
					l0.141-0.018L175.863,71.238z"/>
			</g>
			<g>
				<path fill="#F4F5F5" d="M176.05,70.854c-0.012-0.082-0.02-0.146-0.033-0.209l0.125-0.016l0.021,0.126l0.006-0.001
					c0.032-0.08,0.098-0.16,0.228-0.177c0.103-0.015,0.193,0.038,0.237,0.126l0.006-0.001c0.016-0.048,0.045-0.084,0.072-0.111
					c0.043-0.041,0.091-0.067,0.165-0.077c0.104-0.016,0.269,0.03,0.304,0.303l0.062,0.457l-0.14,0.019l-0.059-0.438
					c-0.021-0.15-0.092-0.232-0.201-0.217c-0.083,0.01-0.137,0.077-0.15,0.147c-0.005,0.022-0.005,0.048-0.002,0.071l0.063,0.481
					l-0.139,0.019l-0.063-0.465c-0.017-0.125-0.08-0.207-0.19-0.191c-0.086,0.012-0.145,0.092-0.155,0.164
					c-0.005,0.021-0.006,0.046-0.002,0.07l0.063,0.469l-0.14,0.02L176.05,70.854z"/>
			</g>
		</g>
		<g>
			<g>
				<path fill="#F4F5F5" d="M168.7,74.949l0.14-0.02l0.13,0.965l0.464-0.062l0.016,0.114l-0.604,0.08L168.7,74.949z"/>
			</g>
			<g>
				<path fill="#F4F5F5" d="M170.23,75.443c0.038,0.285-0.15,0.441-0.334,0.467c-0.209,0.027-0.394-0.105-0.426-0.354
					c-0.035-0.261,0.114-0.434,0.327-0.461C170.022,75.064,170.198,75.207,170.23,75.443z M169.615,75.535
					c0.022,0.17,0.133,0.283,0.274,0.265c0.131-0.019,0.218-0.157,0.193-0.329c-0.018-0.135-0.108-0.289-0.273-0.269
					C169.645,75.225,169.595,75.389,169.615,75.535z"/>
			</g>
			<g>
				<path fill="#F4F5F5" d="M170.388,75.281c-0.014-0.094-0.025-0.172-0.04-0.242l0.124-0.018l0.025,0.152l0.006-0.001
					c0.02-0.11,0.103-0.187,0.193-0.198c0.015-0.002,0.025-0.002,0.041-0.002l0.018,0.133c-0.017,0-0.029,0-0.048,0.004
					c-0.103,0.014-0.163,0.097-0.17,0.209c0.003,0.018,0.002,0.041,0.005,0.063l0.056,0.411l-0.14,0.02L170.388,75.281z"/>
			</g>
			<g>
				<path fill="#F4F5F5" d="M170.997,75.373c0.029,0.189,0.161,0.253,0.302,0.234c0.103-0.014,0.165-0.041,0.212-0.068l0.042,0.1
					c-0.05,0.027-0.132,0.066-0.257,0.084c-0.239,0.031-0.403-0.109-0.437-0.345c-0.031-0.233,0.084-0.437,0.308-0.466
					c0.257-0.034,0.354,0.18,0.374,0.322c0.003,0.025,0.005,0.049,0.003,0.063L170.997,75.373z M171.397,75.214
					c-0.011-0.086-0.066-0.22-0.227-0.198c-0.145,0.021-0.188,0.157-0.185,0.254L171.397,75.214z"/>
			</g>
			<g>
				<path fill="#F4F5F5" d="M171.695,75.07c-0.011-0.08-0.022-0.145-0.034-0.207l0.124-0.018l0.024,0.125h0.004
					c0.034-0.078,0.096-0.158,0.227-0.176c0.106-0.016,0.195,0.038,0.237,0.124h0.003c0.021-0.046,0.05-0.081,0.079-0.108
					c0.043-0.045,0.088-0.07,0.161-0.08c0.103-0.014,0.268,0.035,0.303,0.304l0.063,0.454l-0.142,0.019l-0.059-0.438
					c-0.021-0.148-0.086-0.231-0.197-0.217c-0.084,0.012-0.137,0.08-0.153,0.152c-0.003,0.021-0.006,0.045-0.002,0.072l0.063,0.477
					l-0.138,0.02l-0.063-0.467c-0.017-0.121-0.084-0.205-0.191-0.188c-0.087,0.011-0.143,0.092-0.154,0.165
					c-0.008,0.021-0.005,0.047-0.002,0.07l0.063,0.466l-0.14,0.019L171.695,75.07z"/>
			</g>
			<g>
				<path fill="#F4F5F5" d="M173.817,74.352c0.007,0.049-0.022,0.09-0.078,0.098c-0.052,0.007-0.092-0.025-0.098-0.073
					c-0.008-0.047,0.022-0.09,0.075-0.097C173.77,74.271,173.812,74.303,173.817,74.352z M173.793,75.367l-0.104-0.775l0.143-0.02
					l0.104,0.775L173.793,75.367z"/>
			</g>
			<g>
				<path fill="#F4F5F5" d="M174.099,74.794c-0.014-0.099-0.029-0.179-0.039-0.251l0.125-0.018l0.023,0.129h0.002
					c0.045-0.098,0.134-0.168,0.258-0.184c0.19-0.025,0.354,0.117,0.385,0.348c0.038,0.281-0.116,0.443-0.299,0.469
					c-0.103,0.013-0.197-0.021-0.257-0.094h-0.002l0.058,0.425l-0.142,0.019L174.099,74.794z M174.268,74.984
					c0.003,0.02,0.006,0.039,0.012,0.056c0.039,0.097,0.136,0.149,0.234,0.138c0.15-0.021,0.221-0.154,0.196-0.33
					c-0.021-0.154-0.121-0.279-0.271-0.26c-0.096,0.014-0.175,0.094-0.189,0.205c-0.004,0.016-0.002,0.038,0,0.059L174.268,74.984z"
					/>
			</g>
			<g>
				<path fill="#F4F5F5" d="M175.045,75.059c0.049,0.019,0.122,0.037,0.196,0.025c0.101-0.014,0.145-0.07,0.135-0.134
					c-0.009-0.067-0.058-0.097-0.165-0.124c-0.146-0.031-0.223-0.1-0.234-0.189c-0.018-0.128,0.071-0.242,0.236-0.266
					c0.08-0.012,0.149,0.003,0.197,0.023l-0.022,0.105c-0.032-0.016-0.091-0.031-0.163-0.021c-0.083,0.01-0.123,0.061-0.115,0.119
					c0.01,0.065,0.059,0.086,0.165,0.114c0.139,0.03,0.22,0.093,0.234,0.207c0.02,0.138-0.072,0.249-0.259,0.272
					c-0.083,0.013-0.166,0-0.226-0.026L175.045,75.059z"/>
			</g>
			<g>
				<path fill="#F4F5F5" d="M176.341,74.813c0.013,0.08,0.021,0.149,0.036,0.209l-0.126,0.018l-0.023-0.122h-0.004
					c-0.026,0.065-0.099,0.16-0.238,0.181c-0.123,0.016-0.275-0.037-0.313-0.309l-0.061-0.453l0.14-0.02l0.058,0.427
					c0.021,0.149,0.082,0.245,0.21,0.229c0.094-0.014,0.148-0.086,0.165-0.156c0.006-0.021,0.01-0.049,0.006-0.074l-0.063-0.475
					l0.142-0.021L176.341,74.813z"/>
			</g>
			<g>
				<path fill="#F4F5F5" d="M176.527,74.425c-0.011-0.079-0.021-0.146-0.033-0.208l0.124-0.017l0.021,0.125l0.008-0.001
					c0.032-0.078,0.096-0.157,0.227-0.176c0.104-0.014,0.193,0.039,0.236,0.125l0.006-0.002c0.017-0.045,0.045-0.078,0.073-0.107
					c0.042-0.043,0.09-0.068,0.165-0.079c0.104-0.015,0.268,0.035,0.303,0.302l0.062,0.455l-0.14,0.02l-0.059-0.438
					c-0.021-0.149-0.09-0.231-0.201-0.217c-0.082,0.011-0.136,0.08-0.15,0.151c-0.005,0.022-0.005,0.047-0.002,0.074l0.063,0.475
					l-0.14,0.02l-0.063-0.465c-0.018-0.123-0.081-0.205-0.192-0.189c-0.086,0.01-0.143,0.092-0.153,0.166
					c-0.005,0.021-0.006,0.045-0.002,0.069l0.063,0.466l-0.14,0.02L176.527,74.425z"/>
			</g>
		</g>
		<g>
			
				<rect x="165.991" y="78.89" transform="matrix(-0.9912 0.1327 -0.1327 -0.9912 342.8113 136.6621)" fill="#93D5DF" width="1.722" height="1.726"/>
		</g>
		<g>
			<g>
				<path fill="#F4F5F5" d="M169.205,78.725l0.14-0.019l0.13,0.966l0.464-0.063l0.016,0.117l-0.604,0.08L169.205,78.725z"/>
			</g>
			<g>
				<path fill="#F4F5F5" d="M170.735,79.221c0.038,0.285-0.15,0.44-0.334,0.467c-0.209,0.026-0.394-0.104-0.426-0.353
					c-0.034-0.26,0.114-0.435,0.328-0.462C170.527,78.844,170.703,78.982,170.735,79.221z M170.12,79.313
					c0.022,0.168,0.133,0.283,0.274,0.266c0.132-0.02,0.218-0.156,0.193-0.333c-0.018-0.132-0.108-0.289-0.273-0.267
					C170.149,79,170.101,79.163,170.12,79.313z"/>
			</g>
			<g>
				<path fill="#F4F5F5" d="M170.893,79.059c-0.014-0.094-0.024-0.17-0.04-0.242l0.125-0.018l0.024,0.152l0.006-0.001
					c0.021-0.106,0.104-0.187,0.194-0.197c0.016-0.002,0.025-0.004,0.04-0.002l0.019,0.13c-0.018,0-0.03,0.004-0.049,0.006
					c-0.103,0.014-0.163,0.096-0.171,0.204c0.003,0.022,0.003,0.048,0.006,0.068l0.057,0.413l-0.141,0.02L170.893,79.059z"/>
			</g>
			<g>
				<path fill="#F4F5F5" d="M171.502,79.148c0.029,0.19,0.162,0.256,0.304,0.236c0.101-0.013,0.164-0.041,0.211-0.07l0.041,0.1
					c-0.05,0.027-0.132,0.068-0.257,0.085c-0.239,0.032-0.403-0.11-0.436-0.345c-0.031-0.23,0.083-0.436,0.308-0.465
					c0.257-0.035,0.354,0.174,0.373,0.32c0.004,0.031,0.005,0.049,0.003,0.065L171.502,79.148z M171.903,78.994
					c-0.012-0.09-0.067-0.223-0.228-0.201c-0.144,0.02-0.188,0.157-0.185,0.257L171.903,78.994z"/>
			</g>
			<g>
				<path fill="#F4F5F5" d="M172.201,78.852c-0.011-0.084-0.022-0.147-0.035-0.211l0.124-0.018l0.024,0.126l0.004-0.001
					c0.034-0.08,0.097-0.158,0.227-0.176c0.106-0.014,0.196,0.041,0.237,0.127l0.004-0.002c0.021-0.047,0.049-0.082,0.078-0.11
					c0.043-0.043,0.088-0.067,0.161-0.078c0.104-0.014,0.268,0.034,0.304,0.302l0.062,0.457l-0.142,0.02l-0.059-0.438
					c-0.021-0.152-0.085-0.23-0.196-0.216c-0.085,0.011-0.138,0.077-0.154,0.146c-0.003,0.023-0.005,0.05-0.002,0.072l0.064,0.481
					l-0.138,0.021l-0.063-0.467c-0.017-0.125-0.084-0.203-0.19-0.189c-0.088,0.012-0.144,0.092-0.155,0.164
					c-0.007,0.021-0.005,0.048-0.002,0.07l0.062,0.467l-0.14,0.019L172.201,78.852z"/>
			</g>
			<g>
				<path fill="#F4F5F5" d="M174.323,78.128c0.006,0.048-0.023,0.093-0.079,0.101c-0.051,0.006-0.091-0.028-0.098-0.076
					c-0.007-0.051,0.022-0.092,0.077-0.098C174.274,78.047,174.316,78.077,174.323,78.128z M174.298,79.146l-0.104-0.778
					l0.144-0.019l0.104,0.776L174.298,79.146z"/>
			</g>
			<g>
				<path fill="#F4F5F5" d="M174.604,78.575c-0.015-0.104-0.03-0.183-0.039-0.257l0.124-0.018l0.023,0.133h0.003
					c0.045-0.102,0.134-0.17,0.258-0.187c0.189-0.024,0.354,0.116,0.385,0.353c0.037,0.275-0.116,0.438-0.3,0.463
					c-0.103,0.014-0.197-0.021-0.255-0.092H174.8l0.058,0.424l-0.142,0.019L174.604,78.575z M174.772,78.758
					c0.004,0.025,0.006,0.045,0.013,0.063c0.038,0.093,0.135,0.148,0.234,0.136c0.149-0.021,0.221-0.153,0.195-0.335
					c-0.021-0.15-0.12-0.277-0.271-0.258c-0.096,0.014-0.174,0.097-0.189,0.205c-0.003,0.019-0.003,0.039,0,0.058L174.772,78.758z"
					/>
			</g>
			<g>
				<path fill="#F4F5F5" d="M175.55,78.833c0.049,0.021,0.123,0.038,0.196,0.028c0.102-0.014,0.145-0.07,0.136-0.135
					c-0.01-0.067-0.059-0.098-0.163-0.121c-0.148-0.035-0.226-0.102-0.237-0.193c-0.018-0.126,0.072-0.241,0.238-0.264
					c0.079-0.012,0.148,0.002,0.195,0.023l-0.021,0.105c-0.032-0.014-0.091-0.034-0.164-0.024c-0.083,0.011-0.122,0.063-0.114,0.123
					c0.009,0.063,0.059,0.087,0.165,0.112c0.139,0.035,0.22,0.094,0.234,0.207c0.019,0.137-0.073,0.248-0.26,0.273
					c-0.082,0.012-0.166,0-0.225-0.025L175.55,78.833z"/>
			</g>
			<g>
				<path fill="#F4F5F5" d="M176.847,78.588c0.011,0.084,0.02,0.15,0.035,0.213l-0.127,0.018l-0.023-0.127l-0.003,0.002
					c-0.027,0.063-0.1,0.16-0.239,0.179c-0.123,0.019-0.275-0.032-0.312-0.306l-0.063-0.455l0.14-0.018l0.059,0.428
					c0.02,0.147,0.081,0.242,0.209,0.227c0.094-0.014,0.148-0.085,0.165-0.157c0.006-0.021,0.01-0.044,0.006-0.071l-0.063-0.476
					l0.143-0.021L176.847,78.588z"/>
			</g>
			<g>
				<path fill="#F4F5F5" d="M177.032,78.205c-0.011-0.083-0.02-0.148-0.033-0.212l0.124-0.017l0.021,0.125h0.007
					c0.032-0.08,0.097-0.158,0.227-0.176c0.104-0.014,0.194,0.04,0.237,0.127l0.006-0.002c0.017-0.048,0.045-0.082,0.072-0.111
					c0.043-0.043,0.09-0.067,0.165-0.078c0.104-0.014,0.268,0.033,0.304,0.303l0.062,0.457l-0.14,0.02l-0.059-0.438
					c-0.021-0.152-0.091-0.229-0.201-0.216c-0.082,0.012-0.137,0.078-0.152,0.146c-0.004,0.024-0.004,0.05-0.001,0.073l0.064,0.482
					l-0.14,0.019l-0.063-0.468c-0.017-0.123-0.08-0.201-0.191-0.188c-0.086,0.012-0.143,0.092-0.153,0.165
					c-0.005,0.021-0.006,0.046-0.002,0.069l0.063,0.466l-0.14,0.021L177.032,78.205z"/>
			</g>
		</g>
	</g>
	<g>
		<g>
			
				<rect x="190.708" y="60.828" transform="matrix(-0.9912 0.1325 -0.1325 -0.9912 389.6253 97.4583)" fill="#CE4F27" width="1.725" height="1.721"/>
		</g>
		<g>
			
				<rect x="191.178" y="64.405" transform="matrix(-0.9911 0.133 -0.133 -0.9911 391.0569 104.413)" fill="#53ACB0" width="1.725" height="1.727"/>
		</g>
		<g>
			
				<rect x="191.664" y="67.972" transform="matrix(-0.9912 0.1325 -0.1325 -0.9912 392.4744 111.5573)" fill="#B9CBC0" width="1.725" height="1.722"/>
		</g>
		<g>
			
				<rect x="192.139" y="71.556" transform="matrix(-0.9912 0.1325 -0.1325 -0.9912 393.8969 118.6197)" fill="#7CA78C" width="1.724" height="1.726"/>
		</g>
		<g>
			<g>
				<path fill="#F4F5F5" d="M193.928,60.668l0.143-0.02l0.129,0.965l0.462-0.062l0.017,0.118l-0.604,0.081L193.928,60.668z"/>
			</g>
			<g>
				<path fill="#F4F5F5" d="M195.457,61.164c0.039,0.287-0.146,0.44-0.332,0.466c-0.209,0.027-0.393-0.105-0.426-0.353
					c-0.034-0.259,0.117-0.434,0.33-0.462C195.253,60.785,195.426,60.927,195.457,61.164z M194.842,61.255
					c0.022,0.171,0.137,0.284,0.274,0.266c0.136-0.019,0.222-0.158,0.198-0.334c-0.018-0.13-0.109-0.288-0.274-0.267
					C194.875,60.942,194.822,61.106,194.842,61.255z"/>
			</g>
			<g>
				<path fill="#F4F5F5" d="M195.614,61c-0.013-0.093-0.022-0.17-0.038-0.242l0.123-0.017l0.028,0.155l0.005-0.001
					c0.021-0.108,0.101-0.188,0.191-0.2c0.017-0.002,0.027-0.004,0.04-0.002l0.02,0.134c-0.017-0.002-0.03,0-0.048,0.002
					c-0.101,0.014-0.163,0.099-0.166,0.208c-0.002,0.02,0,0.042,0.002,0.063l0.056,0.416l-0.141,0.02L195.614,61z"/>
			</g>
			<g>
				<path fill="#F4F5F5" d="M196.227,61.092c0.027,0.191,0.16,0.255,0.302,0.236c0.104-0.014,0.163-0.039,0.211-0.068l0.04,0.098
					c-0.046,0.028-0.13,0.068-0.254,0.085c-0.238,0.031-0.403-0.11-0.436-0.343c-0.03-0.236,0.081-0.438,0.31-0.468
					c0.255-0.034,0.351,0.179,0.37,0.321c0.004,0.03,0.003,0.051,0.005,0.065L196.227,61.092z M196.625,60.935
					c-0.008-0.086-0.066-0.222-0.225-0.201c-0.145,0.02-0.186,0.158-0.188,0.256L196.625,60.935z"/>
			</g>
			<g>
				<path fill="#F4F5F5" d="M196.923,60.792c-0.011-0.082-0.02-0.146-0.03-0.21l0.123-0.017l0.021,0.125l0.007-0.001
					c0.032-0.077,0.096-0.156,0.229-0.174c0.103-0.014,0.189,0.039,0.235,0.127l0.005-0.001c0.021-0.048,0.048-0.086,0.073-0.115
					c0.043-0.04,0.09-0.064,0.166-0.075c0.103-0.014,0.265,0.036,0.301,0.304l0.061,0.456l-0.138,0.018l-0.059-0.437
					c-0.021-0.154-0.088-0.235-0.2-0.22c-0.084,0.011-0.139,0.078-0.152,0.149c-0.005,0.022-0.005,0.048-0.001,0.076l0.063,0.478
					l-0.138,0.019l-0.063-0.467c-0.017-0.124-0.086-0.205-0.191-0.191c-0.088,0.012-0.144,0.092-0.156,0.166
					c-0.003,0.021-0.005,0.05-0.002,0.072l0.063,0.467l-0.141,0.019L196.923,60.792z"/>
			</g>
			<g>
				<path fill="#F4F5F5" d="M199.045,60.072c0.008,0.05-0.021,0.091-0.075,0.098c-0.053,0.007-0.095-0.024-0.101-0.074
					c-0.007-0.048,0.026-0.092,0.08-0.1C199,59.989,199.038,60.021,199.045,60.072z M199.021,61.089l-0.104-0.777l0.145-0.02
					l0.104,0.778L199.021,61.089z"/>
			</g>
			<g>
				<path fill="#F4F5F5" d="M199.328,60.518c-0.013-0.101-0.026-0.181-0.038-0.256l0.123-0.017l0.023,0.132l0.008-0.001
					c0.04-0.104,0.127-0.168,0.255-0.186c0.188-0.024,0.353,0.115,0.383,0.351c0.037,0.278-0.116,0.441-0.298,0.465
					c-0.104,0.015-0.2-0.02-0.257-0.091h-0.004l0.057,0.422l-0.14,0.019L199.328,60.518z M199.495,60.702
					c0.003,0.022,0.008,0.044,0.017,0.059c0.033,0.095,0.13,0.151,0.233,0.138c0.148-0.021,0.219-0.155,0.195-0.331
					c-0.021-0.156-0.12-0.28-0.271-0.26c-0.095,0.013-0.178,0.094-0.19,0.202c0,0.02-0.004,0.041-0.002,0.057L199.495,60.702z"/>
			</g>
			<g>
				<path fill="#F4F5F5" d="M200.273,60.776c0.046,0.019,0.123,0.038,0.193,0.028c0.104-0.014,0.146-0.069,0.137-0.135
					s-0.055-0.096-0.162-0.122c-0.148-0.033-0.228-0.1-0.238-0.191c-0.018-0.126,0.075-0.243,0.239-0.265
					c0.079-0.011,0.15,0.001,0.194,0.021l-0.02,0.108c-0.032-0.017-0.091-0.037-0.164-0.027c-0.085,0.012-0.122,0.066-0.114,0.126
					c0.01,0.064,0.058,0.086,0.165,0.112c0.14,0.033,0.218,0.089,0.232,0.207c0.019,0.14-0.076,0.25-0.258,0.273
					c-0.084,0.012-0.169,0.001-0.225-0.026L200.273,60.776z"/>
			</g>
			<g>
				<path fill="#F4F5F5" d="M201.571,60.532c0.01,0.08,0.02,0.149,0.035,0.211l-0.128,0.018l-0.021-0.126l-0.008,0.001
					c-0.026,0.065-0.098,0.161-0.235,0.18c-0.12,0.016-0.276-0.032-0.313-0.309l-0.062-0.453l0.141-0.019l0.058,0.43
					c0.021,0.147,0.083,0.242,0.206,0.227c0.097-0.014,0.153-0.088,0.171-0.154c0.005-0.022,0.006-0.047,0.002-0.076l-0.063-0.476
					l0.143-0.02L201.571,60.532z"/>
			</g>
			<g>
				<path fill="#F4F5F5" d="M201.758,60.146c-0.011-0.082-0.024-0.145-0.034-0.21l0.125-0.017l0.02,0.126l0.008-0.002
					c0.034-0.077,0.096-0.156,0.228-0.174c0.105-0.014,0.191,0.039,0.237,0.127l0.008-0.001c0.016-0.048,0.04-0.085,0.073-0.115
					c0.04-0.04,0.089-0.064,0.16-0.074c0.104-0.014,0.268,0.035,0.304,0.303l0.062,0.456l-0.14,0.019l-0.059-0.437
					c-0.021-0.154-0.09-0.235-0.2-0.221c-0.079,0.011-0.135,0.078-0.151,0.149c-0.006,0.022-0.006,0.048-0.002,0.076l0.063,0.479
					l-0.137,0.018l-0.063-0.467c-0.017-0.124-0.081-0.205-0.191-0.19c-0.084,0.012-0.142,0.091-0.155,0.165
					c-0.006,0.023-0.006,0.05-0.003,0.072l0.063,0.467l-0.137,0.019L201.758,60.146z"/>
			</g>
		</g>
		<g>
			<g>
				<path fill="#F4F5F5" d="M194.404,64.238l0.144-0.02l0.13,0.966l0.462-0.062l0.017,0.121l-0.604,0.081L194.404,64.238z"/>
			</g>
			<g>
				<path fill="#F4F5F5" d="M195.936,64.734c0.038,0.29-0.147,0.44-0.333,0.465c-0.209,0.028-0.394-0.104-0.426-0.351
					c-0.034-0.258,0.116-0.434,0.329-0.462C195.73,64.356,195.903,64.5,195.936,64.734z M195.319,64.826
					c0.022,0.17,0.136,0.287,0.275,0.269c0.136-0.019,0.221-0.159,0.197-0.336c-0.019-0.133-0.108-0.287-0.273-0.265
					S195.3,64.682,195.319,64.826z"/>
			</g>
			<g>
				<path fill="#F4F5F5" d="M196.092,64.572c-0.012-0.094-0.021-0.17-0.037-0.243l0.123-0.017l0.027,0.153l0.005-0.001
					c0.021-0.111,0.102-0.187,0.192-0.198c0.016-0.002,0.028-0.002,0.04-0.004l0.019,0.133c-0.016,0.003-0.028,0.005-0.048,0.007
					c-0.1,0.014-0.163,0.095-0.167,0.204c-0.001,0.02,0.001,0.046,0.004,0.068l0.057,0.416l-0.143,0.019L196.092,64.572z"/>
			</g>
			<g>
				<path fill="#F4F5F5" d="M196.704,64.665c0.029,0.192,0.16,0.252,0.302,0.233c0.104-0.015,0.163-0.04,0.211-0.069l0.04,0.098
					c-0.046,0.029-0.13,0.069-0.254,0.086c-0.238,0.031-0.402-0.109-0.435-0.345c-0.031-0.234,0.081-0.435,0.31-0.465
					c0.254-0.034,0.352,0.178,0.369,0.32c0.004,0.031,0.003,0.054,0.005,0.068L196.704,64.665z M197.104,64.508
					c-0.009-0.089-0.067-0.222-0.226-0.2c-0.144,0.02-0.186,0.156-0.188,0.256L197.104,64.508z"/>
			</g>
			<g>
				<path fill="#F4F5F5" d="M197.4,64.36c-0.011-0.079-0.021-0.143-0.031-0.207l0.123-0.017l0.022,0.129l0.008-0.002
					c0.032-0.079,0.095-0.16,0.226-0.177c0.104-0.014,0.192,0.038,0.238,0.129l0.004-0.001c0.021-0.05,0.048-0.085,0.073-0.113
					c0.044-0.04,0.09-0.069,0.166-0.079c0.103-0.015,0.264,0.034,0.3,0.302l0.062,0.461l-0.138,0.019l-0.059-0.443
					c-0.021-0.15-0.088-0.229-0.199-0.215c-0.085,0.011-0.139,0.079-0.154,0.149c-0.005,0.02-0.004,0.046-0.001,0.071l0.064,0.483
					l-0.139,0.019l-0.063-0.47c-0.018-0.123-0.085-0.203-0.191-0.188c-0.088,0.012-0.144,0.09-0.156,0.163
					c-0.004,0.021-0.006,0.048-0.002,0.072l0.063,0.47l-0.14,0.019L197.4,64.36z"/>
			</g>
			<g>
				<path fill="#F4F5F5" d="M199.522,63.642c0.007,0.05-0.021,0.095-0.076,0.103c-0.052,0.007-0.093-0.029-0.1-0.078
					c-0.008-0.047,0.025-0.093,0.079-0.1C199.478,63.56,199.516,63.592,199.522,63.642z M199.498,64.664l-0.104-0.781l0.144-0.02
					l0.104,0.781L199.498,64.664z"/>
			</g>
			<g>
				<path fill="#F4F5F5" d="M199.806,64.087c-0.015-0.101-0.028-0.181-0.037-0.255l0.122-0.016l0.022,0.134l0.008-0.001
					c0.041-0.102,0.127-0.17,0.256-0.188c0.188-0.025,0.352,0.116,0.383,0.351c0.037,0.277-0.117,0.44-0.298,0.464
					c-0.104,0.015-0.2-0.017-0.259-0.091h-0.003l0.058,0.426l-0.141,0.019L199.806,64.087z M199.973,64.274
					c0.003,0.02,0.008,0.041,0.016,0.059c0.034,0.093,0.13,0.148,0.234,0.135c0.147-0.021,0.219-0.151,0.193-0.33
					c-0.021-0.154-0.119-0.275-0.269-0.256c-0.096,0.013-0.179,0.09-0.192,0.202c-0.001,0.018-0.004,0.038-0.002,0.056
					L199.973,64.274z"/>
			</g>
			<g>
				<path fill="#F4F5F5" d="M200.751,64.349c0.046,0.018,0.124,0.04,0.195,0.03c0.104-0.014,0.144-0.071,0.135-0.139
					c-0.009-0.066-0.054-0.096-0.162-0.122c-0.147-0.03-0.226-0.098-0.237-0.19c-0.018-0.125,0.074-0.244,0.238-0.266
					c0.079-0.011,0.151,0.003,0.195,0.025l-0.02,0.104c-0.032-0.015-0.092-0.034-0.164-0.024c-0.084,0.011-0.121,0.065-0.113,0.125
					c0.008,0.061,0.056,0.086,0.164,0.112c0.139,0.032,0.218,0.091,0.231,0.205c0.02,0.139-0.076,0.249-0.258,0.273
					c-0.085,0.012-0.169,0.001-0.224-0.025L200.751,64.349z"/>
			</g>
			<g>
				<path fill="#F4F5F5" d="M202.048,64.102c0.013,0.084,0.021,0.151,0.036,0.216l-0.128,0.018l-0.021-0.13l-0.007,0.001
					c-0.026,0.069-0.1,0.16-0.235,0.179c-0.121,0.017-0.277-0.031-0.313-0.303l-0.062-0.457l0.141-0.019l0.058,0.432
					c0.021,0.146,0.083,0.239,0.206,0.223c0.097-0.013,0.153-0.086,0.171-0.153c0.005-0.021,0.005-0.048,0.002-0.074l-0.063-0.477
					l0.144-0.02L202.048,64.102z"/>
			</g>
			<g>
				<path fill="#F4F5F5" d="M202.235,63.714c-0.011-0.078-0.025-0.142-0.036-0.207l0.126-0.017l0.021,0.129l0.008-0.001
					c0.033-0.08,0.094-0.16,0.227-0.178c0.106-0.015,0.191,0.039,0.238,0.129l0.006-0.001c0.016-0.049,0.041-0.084,0.074-0.114
					c0.04-0.039,0.088-0.068,0.16-0.078c0.104-0.014,0.268,0.034,0.303,0.303l0.062,0.46l-0.139,0.019l-0.06-0.443
					c-0.021-0.15-0.088-0.229-0.198-0.215c-0.081,0.011-0.135,0.079-0.152,0.149c-0.006,0.021-0.007,0.046-0.003,0.072l0.064,0.483
					l-0.139,0.019l-0.063-0.471c-0.016-0.123-0.081-0.203-0.19-0.188c-0.085,0.012-0.142,0.09-0.155,0.163
					c-0.007,0.022-0.007,0.049-0.003,0.072l0.063,0.471l-0.135,0.018L202.235,63.714z"/>
			</g>
		</g>
		<g>
			<g>
				<path fill="#F4F5F5" d="M194.883,67.811l0.144-0.019l0.13,0.966l0.462-0.063l0.017,0.117l-0.605,0.082L194.883,67.811z"/>
			</g>
			<g>
				<path fill="#F4F5F5" d="M196.412,68.307c0.039,0.289-0.146,0.442-0.331,0.467c-0.21,0.029-0.394-0.104-0.426-0.351
					c-0.035-0.262,0.117-0.438,0.329-0.466C196.208,67.928,196.381,68.068,196.412,68.307z M195.797,68.396
					c0.023,0.172,0.137,0.287,0.275,0.268c0.136-0.018,0.222-0.158,0.198-0.334c-0.019-0.131-0.109-0.287-0.274-0.266
					C195.831,68.087,195.777,68.25,195.797,68.396z"/>
			</g>
			<g>
				<path fill="#F4F5F5" d="M196.569,68.141c-0.012-0.088-0.022-0.168-0.037-0.238l0.122-0.016l0.028,0.15l0.005-0.001
					c0.021-0.106,0.101-0.187,0.191-0.198c0.017-0.002,0.028-0.002,0.041-0.001l0.019,0.134c-0.017-0.002-0.03,0-0.048,0.002
					c-0.101,0.014-0.163,0.098-0.167,0.205c-0.001,0.02,0.001,0.045,0.004,0.069l0.056,0.413l-0.142,0.02L196.569,68.141z"/>
			</g>
			<g>
				<path fill="#F4F5F5" d="M197.182,68.236c0.028,0.189,0.159,0.252,0.302,0.232c0.104-0.015,0.163-0.037,0.211-0.068l0.039,0.098
					c-0.044,0.029-0.129,0.07-0.253,0.088c-0.238,0.032-0.402-0.109-0.436-0.346c-0.03-0.233,0.081-0.436,0.311-0.467
					c0.254-0.033,0.351,0.182,0.369,0.322c0.004,0.029,0.003,0.051,0.006,0.066L197.182,68.236z M197.581,68.079
					c-0.009-0.087-0.066-0.226-0.226-0.203c-0.144,0.021-0.185,0.16-0.187,0.259L197.581,68.079z"/>
			</g>
			<g>
				<path fill="#F4F5F5" d="M197.878,67.936c-0.011-0.082-0.02-0.146-0.03-0.209l0.123-0.018l0.021,0.127L198,67.835
					c0.031-0.08,0.096-0.16,0.228-0.177c0.103-0.014,0.19,0.037,0.236,0.126h0.005c0.019-0.05,0.048-0.085,0.072-0.113
					c0.044-0.04,0.09-0.067,0.166-0.077c0.104-0.014,0.265,0.032,0.3,0.303l0.062,0.459l-0.137,0.019l-0.06-0.438
					c-0.021-0.151-0.088-0.233-0.199-0.219c-0.085,0.012-0.139,0.079-0.152,0.148c-0.006,0.021-0.005,0.048-0.001,0.072l0.063,0.48
					l-0.138,0.02l-0.063-0.467c-0.017-0.123-0.085-0.205-0.191-0.191c-0.088,0.014-0.144,0.093-0.156,0.164
					c-0.003,0.021-0.006,0.047-0.002,0.072l0.063,0.469l-0.141,0.019L197.878,67.936z"/>
			</g>
			<g>
				<path fill="#F4F5F5" d="M200,67.215c0.007,0.047-0.021,0.092-0.076,0.098c-0.052,0.008-0.094-0.027-0.1-0.074
					c-0.007-0.049,0.026-0.094,0.08-0.102C199.955,67.13,199.994,67.166,200,67.215z M199.976,68.232l-0.104-0.777l0.144-0.02
					l0.104,0.777L199.976,68.232z"/>
			</g>
			<g>
				<path fill="#F4F5F5" d="M200.283,67.658c-0.014-0.102-0.027-0.18-0.037-0.254l0.123-0.016l0.022,0.131l0.008-0.002
					c0.041-0.101,0.127-0.168,0.255-0.186c0.188-0.025,0.352,0.115,0.383,0.35c0.038,0.28-0.116,0.443-0.298,0.469
					c-0.104,0.014-0.2-0.021-0.257-0.092h-0.004l0.057,0.422l-0.14,0.019L200.283,67.658z M200.45,67.846
					c0.003,0.021,0.008,0.039,0.016,0.059c0.034,0.096,0.131,0.148,0.234,0.136c0.148-0.021,0.219-0.151,0.194-0.332
					c-0.021-0.153-0.119-0.274-0.27-0.256c-0.096,0.013-0.178,0.094-0.191,0.202c0,0.02-0.004,0.041-0.001,0.06L200.45,67.846z"/>
			</g>
			<g>
				<path fill="#F4F5F5" d="M201.229,67.92c0.046,0.02,0.123,0.038,0.193,0.027c0.104-0.014,0.145-0.069,0.136-0.135
					c-0.01-0.066-0.055-0.099-0.162-0.121c-0.148-0.035-0.227-0.1-0.238-0.19c-0.017-0.127,0.075-0.245,0.239-0.269
					c0.079-0.01,0.15,0.002,0.194,0.022l-0.02,0.108c-0.032-0.018-0.091-0.036-0.164-0.026c-0.084,0.013-0.122,0.065-0.113,0.125
					c0.01,0.063,0.057,0.087,0.164,0.113c0.14,0.03,0.217,0.089,0.233,0.206c0.018,0.137-0.077,0.25-0.259,0.275
					c-0.085,0.01-0.169-0.004-0.225-0.027L201.229,67.92z"/>
			</g>
			<g>
				<path fill="#F4F5F5" d="M202.526,67.673c0.011,0.081,0.021,0.153,0.035,0.214l-0.128,0.018l-0.021-0.129h-0.007
					c-0.026,0.07-0.098,0.166-0.235,0.185c-0.121,0.017-0.276-0.036-0.313-0.308l-0.062-0.453l0.141-0.02l0.057,0.428
					c0.021,0.149,0.083,0.244,0.206,0.229c0.098-0.014,0.154-0.09,0.171-0.158c0.006-0.019,0.006-0.044,0.002-0.072l-0.063-0.475
					l0.143-0.02L202.526,67.673z"/>
			</g>
			<g>
				<path fill="#F4F5F5" d="M202.714,67.288c-0.012-0.082-0.024-0.146-0.035-0.208l0.126-0.018l0.02,0.127h0.008
					c0.034-0.082,0.095-0.16,0.228-0.178c0.105-0.016,0.19,0.037,0.237,0.125h0.006c0.017-0.049,0.042-0.084,0.075-0.113
					c0.039-0.04,0.087-0.066,0.159-0.077c0.104-0.014,0.268,0.032,0.303,0.303l0.063,0.458l-0.139,0.019l-0.06-0.438
					c-0.021-0.152-0.09-0.232-0.199-0.219c-0.081,0.011-0.135,0.078-0.151,0.148c-0.006,0.021-0.006,0.047-0.003,0.072l0.063,0.48
					l-0.138,0.019l-0.063-0.466c-0.017-0.123-0.082-0.205-0.19-0.19c-0.085,0.011-0.142,0.091-0.155,0.164
					c-0.007,0.021-0.007,0.046-0.004,0.07l0.063,0.469l-0.137,0.019L202.714,67.288z"/>
			</g>
		</g>
		<g>
			<g>
				<path fill="#F4F5F5" d="M195.36,71.385l0.144-0.021l0.129,0.966l0.463-0.062l0.016,0.113l-0.605,0.081L195.36,71.385z"/>
			</g>
			<g>
				<path fill="#F4F5F5" d="M196.89,71.878c0.038,0.286-0.146,0.44-0.331,0.466c-0.21,0.028-0.394-0.105-0.427-0.354
					c-0.034-0.26,0.117-0.434,0.329-0.461C196.687,71.499,196.858,71.643,196.89,71.878z M196.275,71.971
					c0.021,0.17,0.135,0.282,0.273,0.264c0.137-0.019,0.223-0.158,0.198-0.33c-0.018-0.135-0.108-0.291-0.273-0.268
					C196.308,71.658,196.255,71.82,196.275,71.971z"/>
			</g>
			<g>
				<path fill="#F4F5F5" d="M197.048,71.716c-0.013-0.094-0.022-0.171-0.037-0.243l0.122-0.016l0.027,0.15h0.006
					c0.021-0.111,0.101-0.187,0.191-0.198c0.017-0.003,0.028-0.003,0.041-0.003l0.018,0.135c-0.015-0.002-0.028,0-0.048,0.002
					c-0.099,0.014-0.163,0.098-0.166,0.208c-0.002,0.021,0,0.042,0.003,0.065l0.057,0.41l-0.144,0.02L197.048,71.716z"/>
			</g>
			<g>
				<path fill="#F4F5F5" d="M197.659,71.807c0.029,0.189,0.16,0.254,0.302,0.234c0.105-0.014,0.163-0.04,0.211-0.068l0.04,0.1
					c-0.045,0.027-0.13,0.068-0.254,0.084c-0.237,0.031-0.401-0.108-0.435-0.344c-0.031-0.234,0.081-0.437,0.31-0.467
					c0.254-0.033,0.352,0.182,0.37,0.322c0.003,0.025,0.003,0.049,0.005,0.064L197.659,71.807z M198.058,71.648
					c-0.009-0.088-0.066-0.221-0.225-0.199c-0.144,0.02-0.186,0.156-0.187,0.254L198.058,71.648z"/>
			</g>
			<g>
				<path fill="#F4F5F5" d="M198.355,71.506c-0.01-0.081-0.02-0.146-0.031-0.209l0.124-0.018l0.021,0.127l0.008-0.002
					c0.031-0.078,0.095-0.157,0.227-0.176c0.104-0.014,0.191,0.039,0.237,0.125h0.003c0.021-0.047,0.049-0.082,0.075-0.109
					c0.042-0.043,0.089-0.069,0.165-0.079c0.103-0.015,0.264,0.036,0.3,0.304l0.061,0.454l-0.137,0.019l-0.059-0.438
					c-0.021-0.149-0.088-0.231-0.2-0.218c-0.084,0.012-0.138,0.08-0.152,0.152c-0.005,0.022-0.005,0.047-0.001,0.074l0.063,0.475
					l-0.139,0.02l-0.062-0.465c-0.019-0.123-0.086-0.205-0.192-0.189c-0.088,0.012-0.144,0.092-0.156,0.166
					c-0.004,0.021-0.006,0.045-0.003,0.07l0.063,0.465l-0.14,0.02L198.355,71.506z"/>
			</g>
			<g>
				<path fill="#F4F5F5" d="M200.478,70.785c0.007,0.049-0.021,0.09-0.077,0.097c-0.051,0.009-0.093-0.024-0.099-0.073
					c-0.007-0.045,0.026-0.09,0.079-0.097S200.471,70.736,200.478,70.785z M200.453,71.801l-0.104-0.773l0.143-0.021l0.104,0.774
					L200.453,71.801z"/>
			</g>
			<g>
				<path fill="#F4F5F5" d="M200.761,71.229c-0.014-0.1-0.027-0.18-0.037-0.252l0.123-0.017l0.021,0.13l0.008-0.001
					c0.041-0.099,0.127-0.167,0.255-0.185c0.188-0.024,0.354,0.117,0.384,0.348c0.038,0.281-0.116,0.443-0.299,0.469
					c-0.104,0.014-0.199-0.021-0.257-0.093l-0.004,0.001l0.058,0.424l-0.14,0.018L200.761,71.229z M200.929,71.418
					c0.002,0.02,0.007,0.041,0.015,0.057c0.035,0.096,0.13,0.15,0.234,0.137c0.147-0.021,0.219-0.153,0.194-0.33
					c-0.021-0.154-0.12-0.279-0.271-0.26c-0.096,0.014-0.178,0.094-0.19,0.207c-0.001,0.014-0.005,0.037-0.002,0.057L200.929,71.418
					z"/>
			</g>
			<g>
				<path fill="#F4F5F5" d="M201.707,71.49c0.046,0.021,0.123,0.037,0.194,0.027c0.103-0.014,0.144-0.07,0.135-0.135
					c-0.009-0.066-0.054-0.096-0.162-0.124c-0.146-0.03-0.226-0.099-0.237-0.19c-0.018-0.125,0.075-0.241,0.238-0.264
					c0.079-0.011,0.151,0.002,0.195,0.023l-0.021,0.105c-0.031-0.017-0.09-0.033-0.163-0.022c-0.084,0.011-0.122,0.062-0.114,0.118
					c0.009,0.066,0.057,0.088,0.165,0.115c0.139,0.03,0.218,0.092,0.231,0.207c0.021,0.139-0.076,0.25-0.258,0.274
					c-0.084,0.011-0.168-0.001-0.224-0.026L201.707,71.49z"/>
			</g>
			<g>
				<path fill="#F4F5F5" d="M203.004,71.246c0.011,0.079,0.021,0.148,0.035,0.209l-0.129,0.018l-0.02-0.123l-0.009,0.002
					c-0.025,0.063-0.098,0.158-0.234,0.178c-0.121,0.017-0.277-0.035-0.313-0.307l-0.061-0.453l0.14-0.02l0.058,0.428
					c0.021,0.148,0.083,0.244,0.205,0.229c0.099-0.014,0.154-0.088,0.172-0.157c0.005-0.021,0.005-0.047,0.002-0.074l-0.063-0.475
					l0.145-0.019L203.004,71.246z"/>
			</g>
			<g>
				<path fill="#F4F5F5" d="M203.19,70.859c-0.01-0.082-0.024-0.146-0.035-0.209l0.125-0.016l0.021,0.123l0.009-0.001
					c0.033-0.077,0.094-0.157,0.227-0.175c0.106-0.014,0.191,0.039,0.238,0.124h0.005c0.017-0.046,0.043-0.08,0.076-0.108
					c0.039-0.043,0.088-0.07,0.159-0.078c0.104-0.016,0.268,0.035,0.303,0.301l0.062,0.455l-0.14,0.02l-0.059-0.438
					c-0.021-0.15-0.09-0.232-0.199-0.219c-0.08,0.012-0.134,0.08-0.15,0.152c-0.007,0.021-0.007,0.046-0.004,0.072l0.064,0.477
					l-0.14,0.02l-0.062-0.465c-0.018-0.123-0.081-0.205-0.191-0.19c-0.085,0.011-0.141,0.093-0.154,0.166
					c-0.007,0.022-0.008,0.047-0.005,0.071l0.063,0.465l-0.136,0.018L203.19,70.859z"/>
			</g>
		</g>
		<g>
			
				<rect x="192.648" y="75.316" transform="matrix(-0.9912 0.1325 -0.1325 -0.9912 395.4075 126.0536)" fill="#93D5DF" width="1.725" height="1.726"/>
		</g>
		<g>
			<g>
				<path fill="#F4F5F5" d="M195.865,75.159l0.144-0.019l0.13,0.965l0.462-0.063l0.016,0.118l-0.604,0.08L195.865,75.159z"/>
			</g>
			<g>
				<path fill="#F4F5F5" d="M197.396,75.654c0.038,0.285-0.146,0.439-0.332,0.466c-0.209,0.026-0.394-0.104-0.426-0.353
					c-0.034-0.259,0.116-0.434,0.33-0.463C197.191,75.275,197.363,75.417,197.396,75.654z M196.78,75.747
					c0.022,0.169,0.136,0.282,0.274,0.265c0.136-0.018,0.222-0.156,0.197-0.332c-0.018-0.132-0.108-0.289-0.273-0.269
					C196.813,75.434,196.76,75.598,196.78,75.747z"/>
			</g>
			<g>
				<path fill="#F4F5F5" d="M197.553,75.49c-0.014-0.092-0.022-0.168-0.038-0.241l0.123-0.017l0.026,0.152l0.006-0.002
					c0.021-0.107,0.102-0.186,0.191-0.197c0.017-0.002,0.028-0.004,0.041-0.002l0.018,0.131c-0.015,0-0.028,0.002-0.048,0.006
					c-0.099,0.013-0.163,0.096-0.166,0.203c-0.001,0.022,0,0.047,0.003,0.068l0.057,0.414l-0.143,0.02L197.553,75.49z"/>
			</g>
			<g>
				<path fill="#F4F5F5" d="M198.165,75.583c0.028,0.19,0.16,0.256,0.302,0.235c0.104-0.014,0.162-0.041,0.212-0.069l0.038,0.099
					c-0.045,0.027-0.129,0.068-0.253,0.086c-0.238,0.031-0.402-0.109-0.436-0.346c-0.03-0.23,0.082-0.436,0.31-0.465
					c0.255-0.034,0.352,0.176,0.37,0.32c0.004,0.031,0.003,0.05,0.005,0.066L198.165,75.583z M198.563,75.43
					c-0.009-0.092-0.067-0.224-0.226-0.203c-0.144,0.02-0.185,0.156-0.187,0.258L198.563,75.43z"/>
			</g>
			<g>
				<path fill="#F4F5F5" d="M198.861,75.285c-0.011-0.083-0.021-0.148-0.031-0.213l0.123-0.016l0.022,0.125h0.007
					c0.032-0.08,0.095-0.158,0.227-0.176c0.104-0.015,0.192,0.04,0.237,0.126l0.004-0.001c0.021-0.048,0.049-0.083,0.074-0.111
					c0.043-0.043,0.09-0.067,0.165-0.078c0.103-0.014,0.265,0.035,0.3,0.304l0.062,0.456l-0.138,0.02l-0.059-0.439
					c-0.021-0.151-0.087-0.229-0.199-0.215c-0.084,0.012-0.138,0.078-0.154,0.146c-0.004,0.024-0.004,0.05-0.001,0.073l0.064,0.482
					l-0.138,0.019l-0.063-0.468c-0.018-0.123-0.085-0.201-0.192-0.188c-0.088,0.012-0.143,0.092-0.156,0.165
					c-0.002,0.021-0.006,0.046-0.001,0.069l0.062,0.467l-0.14,0.02L198.861,75.285z"/>
			</g>
			<g>
				<path fill="#F4F5F5" d="M200.982,74.563c0.007,0.049-0.021,0.092-0.076,0.1c-0.052,0.007-0.094-0.027-0.1-0.075
					c-0.008-0.051,0.026-0.092,0.08-0.099C200.938,74.48,200.977,74.512,200.982,74.563z M200.958,75.58l-0.104-0.777l0.144-0.02
					l0.104,0.777L200.958,75.58z"/>
			</g>
			<g>
				<path fill="#F4F5F5" d="M201.267,75.01c-0.015-0.105-0.028-0.184-0.038-0.257l0.123-0.017l0.021,0.131l0.008-0.001
					c0.041-0.101,0.127-0.167,0.257-0.185c0.188-0.025,0.352,0.115,0.383,0.352c0.037,0.277-0.117,0.439-0.299,0.464
					c-0.104,0.015-0.2-0.021-0.258-0.093h-0.004l0.058,0.424l-0.14,0.02L201.267,75.01z M201.433,75.191
					c0.004,0.025,0.008,0.043,0.017,0.063c0.035,0.094,0.13,0.148,0.234,0.135c0.147-0.02,0.219-0.152,0.193-0.334
					c-0.021-0.15-0.12-0.277-0.27-0.258c-0.095,0.014-0.178,0.096-0.191,0.205c-0.001,0.018-0.004,0.038-0.002,0.057L201.433,75.191
					z"/>
			</g>
			<g>
				<path fill="#F4F5F5" d="M202.212,75.268c0.046,0.021,0.123,0.037,0.195,0.028c0.104-0.015,0.143-0.069,0.134-0.136
					s-0.053-0.098-0.161-0.12c-0.147-0.035-0.227-0.103-0.238-0.192c-0.018-0.127,0.076-0.242,0.239-0.265
					c0.078-0.013,0.151,0.001,0.195,0.022l-0.021,0.106c-0.031-0.017-0.091-0.034-0.164-0.024c-0.084,0.012-0.121,0.063-0.113,0.123
					c0.009,0.063,0.056,0.086,0.164,0.111c0.14,0.035,0.219,0.094,0.231,0.207c0.021,0.139-0.075,0.25-0.258,0.273
					c-0.084,0.012-0.168,0-0.224-0.025L202.212,75.268z"/>
			</g>
			<g>
				<path fill="#F4F5F5" d="M203.509,75.021c0.012,0.084,0.021,0.15,0.036,0.213l-0.129,0.017l-0.021-0.126l-0.008,0.001
					c-0.026,0.065-0.099,0.161-0.234,0.179c-0.121,0.018-0.277-0.031-0.313-0.304l-0.062-0.456l0.14-0.018l0.059,0.428
					c0.02,0.148,0.082,0.242,0.205,0.227c0.098-0.014,0.153-0.086,0.171-0.158c0.006-0.019,0.006-0.043,0.002-0.07l-0.063-0.477
					l0.144-0.02L203.509,75.021z"/>
			</g>
			<g>
				<path fill="#F4F5F5" d="M203.696,74.639c-0.011-0.082-0.025-0.146-0.035-0.211l0.124-0.018l0.021,0.126h0.008
					c0.034-0.081,0.095-0.158,0.227-0.177c0.106-0.014,0.192,0.041,0.239,0.127l0.005-0.002c0.018-0.047,0.042-0.08,0.075-0.11
					c0.039-0.043,0.088-0.067,0.16-0.077c0.104-0.016,0.267,0.033,0.303,0.303l0.061,0.455l-0.139,0.02l-0.059-0.438
					c-0.021-0.152-0.089-0.23-0.198-0.217c-0.082,0.012-0.136,0.078-0.153,0.145c-0.006,0.025-0.006,0.051-0.003,0.074l0.064,0.481
					l-0.139,0.019l-0.063-0.467c-0.017-0.124-0.081-0.201-0.19-0.188c-0.085,0.012-0.142,0.092-0.154,0.164
					c-0.008,0.021-0.008,0.047-0.004,0.07l0.062,0.467l-0.135,0.019L203.696,74.639z"/>
			</g>
		</g>
	</g>
	<g>
		<g>
			
				<rect x="222.722" y="56.552" transform="matrix(-0.9911 0.1328 -0.1328 -0.9911 452.8076 84.6356)" fill="#CE4F27" width="1.721" height="1.721"/>
		</g>
		<g>
			
				<rect x="223.199" y="60.121" transform="matrix(-0.9911 0.1328 -0.1328 -0.9911 454.2316 91.6832)" fill="#53ACB0" width="1.721" height="1.727"/>
		</g>
		<g>
			
				<rect x="223.677" y="63.696" transform="matrix(-0.9911 0.1328 -0.1328 -0.9911 455.6577 98.7336)" fill="#7CA78C" width="1.721" height="1.722"/>
		</g>
		<g>
			<g>
				<path fill="#F4F5F5" d="M225.933,56.387l0.143-0.019l0.129,0.965l0.462-0.063l0.017,0.119l-0.605,0.08L225.933,56.387z"/>
			</g>
			<g>
				<path fill="#F4F5F5" d="M227.462,56.884c0.038,0.287-0.146,0.44-0.333,0.465c-0.209,0.028-0.394-0.104-0.427-0.353
					c-0.034-0.258,0.115-0.433,0.331-0.461C227.256,56.505,227.43,56.646,227.462,56.884z M226.847,56.975
					c0.021,0.17,0.135,0.284,0.273,0.266c0.134-0.019,0.22-0.158,0.196-0.335c-0.019-0.129-0.108-0.288-0.276-0.266
					C226.878,56.662,226.826,56.825,226.847,56.975z"/>
			</g>
			<g>
				<path fill="#F4F5F5" d="M227.619,56.72c-0.012-0.093-0.021-0.171-0.039-0.242l0.124-0.017l0.028,0.155l0.007-0.001
					c0.02-0.109,0.099-0.188,0.192-0.201c0.013-0.001,0.025-0.003,0.038-0.002l0.019,0.134c-0.015-0.001-0.03,0-0.051,0.003
					c-0.098,0.013-0.158,0.098-0.164,0.208c-0.001,0.019,0,0.042,0.003,0.063l0.056,0.416l-0.141,0.019L227.619,56.72z"/>
			</g>
			<g>
				<path fill="#F4F5F5" d="M228.232,56.812c0.025,0.191,0.157,0.255,0.3,0.236c0.104-0.014,0.163-0.039,0.212-0.069l0.039,0.098
					c-0.049,0.029-0.129,0.068-0.254,0.086c-0.238,0.031-0.405-0.11-0.436-0.344c-0.032-0.235,0.08-0.437,0.309-0.467
					c0.257-0.034,0.353,0.179,0.371,0.321c0.005,0.03,0.007,0.05,0.003,0.065L228.232,56.812z M228.634,56.653
					c-0.013-0.086-0.066-0.222-0.229-0.2c-0.142,0.02-0.188,0.158-0.185,0.255L228.634,56.653z"/>
			</g>
			<g>
				<path fill="#F4F5F5" d="M228.928,56.511c-0.012-0.081-0.02-0.145-0.031-0.21l0.122-0.016l0.023,0.124h0.004
					c0.032-0.077,0.098-0.156,0.229-0.175c0.103-0.014,0.19,0.039,0.236,0.128l0.004-0.001c0.019-0.049,0.048-0.087,0.073-0.115
					c0.043-0.04,0.094-0.065,0.165-0.075c0.104-0.014,0.268,0.035,0.303,0.303l0.062,0.456l-0.14,0.019l-0.06-0.437
					c-0.021-0.154-0.086-0.236-0.201-0.221c-0.081,0.011-0.133,0.079-0.152,0.15c0,0.021-0.003,0.047,0.001,0.075l0.063,0.478
					l-0.138,0.019l-0.063-0.467c-0.018-0.123-0.083-0.205-0.191-0.19c-0.088,0.012-0.146,0.092-0.156,0.166
					c-0.005,0.022-0.004,0.049,0,0.071l0.063,0.467l-0.142,0.019L228.928,56.511z"/>
			</g>
			<g>
				<path fill="#F4F5F5" d="M231.052,55.792c0.007,0.049-0.022,0.09-0.079,0.098c-0.054,0.007-0.092-0.025-0.099-0.074
					c-0.006-0.049,0.026-0.093,0.076-0.1C231.006,55.709,231.045,55.74,231.052,55.792z M231.024,56.809l-0.104-0.778l0.145-0.019
					l0.104,0.777L231.024,56.809z"/>
			</g>
			<g>
				<path fill="#F4F5F5" d="M231.333,56.237c-0.013-0.102-0.027-0.182-0.041-0.257l0.124-0.016l0.027,0.132l0.005-0.001
					c0.041-0.104,0.128-0.168,0.255-0.186c0.188-0.025,0.353,0.114,0.384,0.35c0.037,0.279-0.111,0.441-0.302,0.466
					c-0.101,0.014-0.199-0.021-0.253-0.092l-0.004,0.001l0.057,0.422l-0.14,0.019L231.333,56.237z M231.5,56.421
					c0.003,0.022,0.006,0.045,0.016,0.059c0.039,0.095,0.132,0.151,0.232,0.138c0.152-0.021,0.222-0.154,0.197-0.331
					c-0.021-0.156-0.12-0.279-0.271-0.26c-0.096,0.013-0.178,0.095-0.19,0.202c-0.003,0.021-0.004,0.042-0.002,0.058L231.5,56.421z"
					/>
			</g>
			<g>
				<path fill="#F4F5F5" d="M232.279,56.496c0.045,0.018,0.124,0.037,0.194,0.027c0.103-0.014,0.143-0.069,0.134-0.134
					c-0.009-0.067-0.054-0.097-0.161-0.122c-0.148-0.033-0.223-0.101-0.235-0.191c-0.017-0.127,0.071-0.243,0.235-0.266
					c0.08-0.011,0.152,0.001,0.195,0.021l-0.021,0.109c-0.031-0.018-0.093-0.037-0.162-0.028c-0.085,0.012-0.122,0.066-0.113,0.127
					c0.009,0.063,0.057,0.086,0.16,0.112c0.144,0.033,0.222,0.089,0.236,0.207c0.02,0.139-0.075,0.249-0.259,0.273
					c-0.086,0.012-0.168,0-0.225-0.027L232.279,56.496z"/>
			</g>
			<g>
				<path fill="#F4F5F5" d="M233.575,56.251c0.012,0.08,0.021,0.15,0.032,0.212l-0.125,0.017l-0.023-0.125l0,0
					c-0.028,0.066-0.102,0.161-0.24,0.18c-0.12,0.017-0.277-0.031-0.313-0.308l-0.062-0.453l0.144-0.02l0.058,0.431
					c0.021,0.146,0.076,0.242,0.207,0.225c0.095-0.012,0.151-0.087,0.169-0.152c0.004-0.023,0.004-0.048,0.001-0.077l-0.063-0.475
					l0.144-0.02L233.575,56.251z"/>
			</g>
			<g>
				<path fill="#F4F5F5" d="M233.763,55.864c-0.012-0.082-0.025-0.145-0.035-0.209l0.124-0.017l0.023,0.125l0.004-0.001
					c0.032-0.077,0.096-0.156,0.228-0.174c0.104-0.015,0.195,0.038,0.239,0.127l0.002-0.001c0.02-0.048,0.045-0.086,0.073-0.115
					c0.043-0.04,0.093-0.065,0.163-0.075c0.104-0.014,0.27,0.035,0.306,0.304l0.061,0.455l-0.138,0.019l-0.06-0.438
					c-0.021-0.154-0.089-0.235-0.203-0.221c-0.079,0.012-0.133,0.079-0.15,0.15c-0.003,0.021-0.005,0.048-0.001,0.075l0.063,0.479
					l-0.14,0.019L234.26,55.9c-0.017-0.124-0.079-0.206-0.188-0.191c-0.089,0.012-0.143,0.092-0.158,0.166
					c-0.005,0.023-0.005,0.049-0.002,0.072l0.063,0.467l-0.137,0.018L233.763,55.864z"/>
			</g>
		</g>
		<g>
			<g>
				<path fill="#F4F5F5" d="M226.409,59.957l0.145-0.02l0.129,0.967l0.462-0.063l0.017,0.122l-0.604,0.081L226.409,59.957z"/>
			</g>
			<g>
				<path fill="#F4F5F5" d="M227.939,60.454c0.039,0.289-0.146,0.439-0.333,0.465c-0.21,0.028-0.395-0.105-0.427-0.351
					c-0.034-0.258,0.115-0.434,0.329-0.463C227.733,60.076,227.908,60.219,227.939,60.454z M227.324,60.545
					c0.021,0.17,0.135,0.287,0.274,0.269c0.134-0.018,0.22-0.159,0.195-0.335c-0.018-0.133-0.106-0.287-0.275-0.265
					C227.356,60.235,227.305,60.4,227.324,60.545z"/>
			</g>
			<g>
				<path fill="#F4F5F5" d="M228.097,60.291c-0.014-0.094-0.022-0.169-0.04-0.242l0.125-0.017l0.027,0.152h0.007
					c0.021-0.111,0.1-0.187,0.192-0.199c0.013-0.002,0.027-0.002,0.038-0.003l0.018,0.133c-0.015,0.002-0.027,0.004-0.05,0.007
					c-0.096,0.013-0.158,0.094-0.165,0.204c0,0.019,0.001,0.045,0.004,0.067l0.058,0.416l-0.143,0.02L228.097,60.291z"/>
			</g>
			<g>
				<path fill="#F4F5F5" d="M228.711,60.385c0.025,0.192,0.156,0.252,0.3,0.232c0.104-0.014,0.162-0.039,0.212-0.069l0.039,0.099
					c-0.05,0.029-0.13,0.068-0.255,0.085c-0.237,0.032-0.403-0.108-0.436-0.344c-0.031-0.234,0.082-0.435,0.31-0.465
					c0.257-0.034,0.353,0.178,0.371,0.319c0.003,0.031,0.006,0.054,0.001,0.069L228.711,60.385z M229.111,60.227
					c-0.012-0.089-0.067-0.222-0.229-0.199c-0.142,0.019-0.187,0.156-0.185,0.255L229.111,60.227z"/>
			</g>
			<g>
				<path fill="#F4F5F5" d="M229.405,60.08c-0.01-0.079-0.019-0.143-0.031-0.208l0.122-0.016l0.025,0.128l0.003-0.001
					c0.032-0.079,0.097-0.16,0.229-0.178c0.104-0.014,0.192,0.039,0.238,0.129h0.003c0.019-0.05,0.049-0.085,0.074-0.114
					c0.044-0.04,0.093-0.069,0.165-0.079c0.103-0.014,0.267,0.034,0.303,0.303l0.063,0.46l-0.142,0.019l-0.059-0.442
					c-0.021-0.15-0.085-0.23-0.201-0.215c-0.082,0.011-0.133,0.078-0.153,0.148c0,0.021-0.003,0.046,0.001,0.072l0.064,0.483
					l-0.138,0.019l-0.063-0.471c-0.018-0.123-0.084-0.203-0.191-0.188c-0.088,0.011-0.146,0.09-0.156,0.162
					c-0.005,0.022-0.004,0.048,0,0.072l0.063,0.47l-0.141,0.02L229.405,60.08z"/>
			</g>
			<g>
				<path fill="#F4F5F5" d="M231.529,59.361c0.006,0.05-0.021,0.094-0.078,0.102c-0.054,0.007-0.092-0.028-0.098-0.078
					c-0.007-0.047,0.025-0.092,0.076-0.099C231.482,59.278,231.522,59.311,231.529,59.361z M231.503,60.383l-0.104-0.781l0.143-0.02
					l0.104,0.781L231.503,60.383z"/>
			</g>
			<g>
				<path fill="#F4F5F5" d="M231.811,59.807c-0.015-0.102-0.027-0.181-0.041-0.255l0.124-0.017l0.026,0.134l0.005-0.001
					c0.041-0.102,0.128-0.17,0.257-0.188c0.188-0.024,0.352,0.117,0.383,0.351c0.036,0.278-0.112,0.439-0.302,0.465
					c-0.103,0.014-0.198-0.017-0.254-0.092l-0.003,0.001l0.058,0.425l-0.142,0.02L231.811,59.807z M231.978,59.993
					c0.003,0.02,0.006,0.042,0.016,0.059c0.038,0.093,0.132,0.149,0.233,0.136c0.15-0.021,0.22-0.152,0.194-0.331
					c-0.021-0.154-0.118-0.275-0.27-0.255c-0.095,0.013-0.178,0.089-0.191,0.201c-0.003,0.019-0.003,0.039-0.001,0.056
					L231.978,59.993z"/>
			</g>
			<g>
				<path fill="#F4F5F5" d="M232.757,60.067c0.046,0.018,0.125,0.04,0.194,0.03c0.104-0.014,0.145-0.07,0.134-0.139
					c-0.008-0.066-0.053-0.095-0.161-0.122c-0.147-0.03-0.223-0.098-0.234-0.19c-0.018-0.125,0.071-0.243,0.234-0.265
					c0.079-0.011,0.152,0.002,0.196,0.024l-0.021,0.105c-0.03-0.015-0.094-0.035-0.162-0.025c-0.084,0.012-0.122,0.066-0.113,0.125
					c0.008,0.061,0.056,0.086,0.16,0.113c0.142,0.031,0.221,0.09,0.236,0.205c0.019,0.138-0.075,0.248-0.259,0.273
					c-0.087,0.012-0.168,0-0.224-0.026L232.757,60.067z"/>
			</g>
			<g>
				<path fill="#F4F5F5" d="M234.053,59.82c0.011,0.084,0.021,0.151,0.032,0.217l-0.125,0.017l-0.023-0.129l0,0
					c-0.028,0.069-0.103,0.161-0.241,0.18c-0.12,0.017-0.276-0.032-0.313-0.304l-0.062-0.456l0.144-0.02l0.059,0.432
					c0.02,0.146,0.077,0.24,0.208,0.223c0.094-0.013,0.149-0.085,0.168-0.153c0.004-0.02,0.004-0.048,0.001-0.073l-0.064-0.478
					l0.145-0.019L234.053,59.82z"/>
			</g>
			<g>
				<path fill="#F4F5F5" d="M234.24,59.433c-0.011-0.078-0.024-0.142-0.035-0.206l0.125-0.017l0.024,0.128l0.003-0.001
					c0.033-0.079,0.095-0.16,0.227-0.178c0.104-0.014,0.195,0.039,0.239,0.129h0.002c0.021-0.05,0.045-0.085,0.075-0.114
					c0.043-0.04,0.091-0.068,0.163-0.078c0.104-0.015,0.267,0.034,0.303,0.302l0.063,0.46l-0.139,0.019l-0.06-0.442
					c-0.021-0.15-0.089-0.23-0.202-0.215c-0.08,0.011-0.133,0.078-0.152,0.149c-0.003,0.02-0.005,0.045-0.002,0.071l0.065,0.483
					l-0.141,0.019l-0.063-0.47c-0.017-0.123-0.08-0.203-0.189-0.188c-0.088,0.012-0.143,0.09-0.157,0.163
					c-0.004,0.021-0.004,0.048-0.001,0.071l0.063,0.471l-0.136,0.019L234.24,59.433z"/>
			</g>
		</g>
		<g>
			<g>
				<path fill="#F4F5F5" d="M226.887,63.53l0.144-0.02l0.129,0.967l0.462-0.063l0.018,0.118l-0.605,0.081L226.887,63.53z"/>
			</g>
			<g>
				<path fill="#F4F5F5" d="M228.417,64.025c0.038,0.288-0.146,0.442-0.333,0.467c-0.209,0.028-0.393-0.105-0.426-0.351
					c-0.035-0.261,0.115-0.436,0.33-0.465C228.212,63.647,228.385,63.789,228.417,64.025z M227.801,64.115
					c0.023,0.173,0.138,0.287,0.275,0.269c0.135-0.018,0.22-0.158,0.196-0.335c-0.018-0.13-0.107-0.286-0.276-0.264
					C227.834,63.807,227.782,63.969,227.801,64.115z"/>
			</g>
			<g>
				<path fill="#F4F5F5" d="M228.574,63.86c-0.012-0.09-0.021-0.169-0.04-0.239l0.125-0.017l0.028,0.152l0.007-0.001
					c0.02-0.108,0.099-0.187,0.192-0.199c0.013-0.002,0.026-0.002,0.037-0.001l0.02,0.134c-0.016-0.002-0.029,0-0.05,0.002
					c-0.098,0.014-0.159,0.098-0.165,0.205c-0.001,0.02,0.001,0.045,0.004,0.07l0.055,0.412l-0.141,0.02L228.574,63.86z"/>
			</g>
			<g>
				<path fill="#F4F5F5" d="M229.188,63.956c0.024,0.189,0.157,0.252,0.301,0.232c0.103-0.014,0.163-0.038,0.211-0.067l0.04,0.096
					c-0.049,0.031-0.13,0.072-0.255,0.089c-0.238,0.031-0.404-0.11-0.437-0.346c-0.03-0.233,0.081-0.436,0.31-0.467
					c0.258-0.034,0.353,0.182,0.372,0.323c0.004,0.028,0.007,0.05,0.002,0.066L229.188,63.956z M229.589,63.798
					c-0.012-0.086-0.066-0.225-0.229-0.202c-0.143,0.019-0.187,0.16-0.185,0.257L229.589,63.798z"/>
			</g>
			<g>
				<path fill="#F4F5F5" d="M229.883,63.653c-0.01-0.081-0.019-0.145-0.03-0.208l0.123-0.017l0.023,0.126h0.003
					c0.032-0.081,0.098-0.16,0.229-0.178c0.104-0.014,0.191,0.039,0.238,0.127l0.003-0.001c0.018-0.049,0.049-0.085,0.074-0.112
					c0.043-0.04,0.093-0.068,0.165-0.078c0.104-0.014,0.267,0.032,0.303,0.304l0.061,0.457l-0.139,0.019l-0.06-0.438
					c-0.021-0.152-0.086-0.234-0.202-0.219c-0.08,0.011-0.133,0.079-0.152,0.149c0,0.021-0.003,0.048,0,0.072l0.064,0.481
					l-0.139,0.019l-0.062-0.466c-0.018-0.124-0.083-0.206-0.191-0.191c-0.088,0.012-0.146,0.092-0.157,0.164
					c-0.005,0.021-0.004,0.045-0.001,0.071l0.063,0.468l-0.142,0.02L229.883,63.653z"/>
			</g>
			<g>
				<path fill="#F4F5F5" d="M232.007,62.934c0.008,0.046-0.021,0.091-0.078,0.099c-0.054,0.007-0.092-0.029-0.098-0.075
					c-0.007-0.048,0.026-0.094,0.075-0.101C231.96,62.85,232.001,62.885,232.007,62.934z M231.98,63.952l-0.104-0.777l0.145-0.02
					l0.104,0.777L231.98,63.952z"/>
			</g>
			<g>
				<path fill="#F4F5F5" d="M232.288,63.377c-0.014-0.1-0.026-0.179-0.041-0.252l0.125-0.017l0.026,0.131l0.006-0.001
					c0.04-0.102,0.127-0.169,0.255-0.187c0.188-0.024,0.353,0.115,0.383,0.351c0.037,0.28-0.111,0.442-0.302,0.468
					c-0.101,0.013-0.198-0.021-0.253-0.093l-0.004,0.001l0.057,0.421l-0.139,0.02L232.288,63.377z M232.455,63.564
					c0.004,0.021,0.006,0.04,0.017,0.058c0.039,0.096,0.132,0.149,0.231,0.136c0.152-0.02,0.221-0.151,0.196-0.332
					c-0.021-0.154-0.118-0.275-0.271-0.255c-0.096,0.013-0.178,0.094-0.19,0.201c-0.003,0.02-0.003,0.042-0.001,0.061
					L232.455,63.564z"/>
			</g>
			<g>
				<path fill="#F4F5F5" d="M233.234,63.64c0.046,0.019,0.125,0.037,0.194,0.028c0.104-0.014,0.144-0.07,0.135-0.135
					c-0.009-0.067-0.056-0.099-0.162-0.122c-0.147-0.035-0.223-0.099-0.234-0.192c-0.018-0.126,0.069-0.244,0.234-0.266
					c0.08-0.011,0.152,0.001,0.196,0.022l-0.021,0.108c-0.03-0.018-0.092-0.036-0.162-0.026c-0.084,0.012-0.122,0.064-0.113,0.124
					c0.01,0.065,0.057,0.087,0.16,0.114c0.144,0.031,0.223,0.089,0.236,0.207c0.019,0.135-0.075,0.249-0.258,0.273
					c-0.087,0.012-0.168-0.003-0.226-0.026L233.234,63.64z"/>
			</g>
			<g>
				<path fill="#F4F5F5" d="M234.53,63.392c0.011,0.082,0.021,0.154,0.033,0.215l-0.125,0.017l-0.024-0.129l0,0
					c-0.027,0.071-0.102,0.166-0.241,0.185c-0.118,0.016-0.276-0.036-0.313-0.308l-0.062-0.454l0.144-0.019L234,63.327
					c0.021,0.149,0.077,0.245,0.208,0.228c0.093-0.013,0.15-0.09,0.167-0.158c0.006-0.018,0.006-0.044,0.002-0.071l-0.063-0.476
					l0.143-0.019L234.53,63.392z"/>
			</g>
			<g>
				<path fill="#F4F5F5" d="M234.719,63.007c-0.013-0.081-0.025-0.145-0.036-0.208l0.125-0.017l0.023,0.127l0.004-0.001
					c0.032-0.08,0.095-0.16,0.227-0.178c0.104-0.014,0.194,0.039,0.238,0.127h0.003c0.02-0.05,0.045-0.085,0.073-0.113
					c0.043-0.04,0.093-0.068,0.163-0.077c0.105-0.015,0.27,0.032,0.305,0.303l0.062,0.457l-0.138,0.019l-0.06-0.438
					c-0.02-0.152-0.089-0.233-0.203-0.218c-0.08,0.011-0.132,0.078-0.15,0.148c-0.002,0.022-0.004,0.048-0.001,0.072l0.063,0.481
					l-0.14,0.019l-0.063-0.466c-0.017-0.124-0.08-0.206-0.188-0.191c-0.089,0.012-0.144,0.091-0.157,0.164
					c-0.005,0.021-0.006,0.046-0.003,0.071l0.063,0.469l-0.137,0.018L234.719,63.007z"/>
			</g>
		</g>
	</g>
</g>
<g>
	<g>
		
			<rect x="270.948" y="29.029" transform="matrix(0.2062 -0.9785 0.9785 0.2062 191.35 370.8477)" fill="#FFFFFF" width="106.598" height="76.913"/>
		<path fill="#808184" d="M351.287,128.178l-76.257-16.068L297.219,6.805l76.257,16.068L351.287,128.178z M276.235,111.322
			l74.267,15.648l21.77-103.313L298.005,8.011L276.235,111.322z"/>
	</g>
	<g>
		
			<rect x="310.665" y="31.612" transform="matrix(-0.9785 -0.2062 0.2062 -0.9785 652.0721 134.0776)" fill="#808184" width="44.716" height="2.897"/>
	</g>
	<g>
		
			<rect x="320.052" y="26.867" transform="matrix(-0.9785 -0.2062 0.2062 -0.9785 656.65 125.0686)" fill="#808184" width="29.58" height="2.897"/>
	</g>
	<g>
		<g id="XMLID_21_">
			
				<rect x="326.226" y="41.779" transform="matrix(0.1957 -0.9807 0.9807 0.1957 192.1649 377.9044)" fill="#2B2726" width="0.504" height="60.034"/>
		</g>
		<g id="XMLID_20_">
			
				<rect x="302.299" y="46.774" transform="matrix(-0.9809 -0.1944 0.1944 -0.9809 595.5615 171.6319)" fill="#EBA920" width="7.81" height="19.627"/>
		</g>
		<g id="XMLID_19_">
			
				<rect x="314.381" y="46.674" transform="matrix(-0.9809 -0.1944 0.1944 -0.9809 619.2774 176.2304)" fill="#EBA920" width="7.811" height="22.105"/>
		</g>
		<g id="XMLID_18_">
			
				<rect x="326.524" y="45.989" transform="matrix(-0.9809 -0.1944 0.1944 -0.9809 643.1652 180.2667)" fill="#EBA920" width="7.81" height="25.159"/>
		</g>
		<g id="XMLID_17_">
			
				<rect x="338.595" y="46.031" transform="matrix(-0.9809 -0.1944 0.1944 -0.9809 666.8499 184.9805)" fill="#EBA920" width="7.81" height="27.486"/>
		</g>
		<g id="XMLID_16_">
			
				<rect x="350.802" y="44.608" transform="matrix(-0.9809 -0.1943 0.1943 -0.9809 690.9441 188.289)" fill="#EBA920" width="7.81" height="31.298"/>
		</g>
		<g id="XMLID_15_">
			
				<rect x="299.929" y="36.402" transform="matrix(-0.9809 -0.1943 0.1943 -0.9809 584.7877 160.0756)" fill="#2B2726" width="0.633" height="29.902"/>
		</g>
		<g id="XMLID_13_">
			<g id="XMLID_14_">
				<path fill="#771817" d="M302.865,52.562l0.09-0.449l-0.064-0.47c0.598,0.003,10.937-0.861,17.757-1.438l0.109-0.014l9.558,2.593
					l18.115-1.968l9.614,0.249l0.061,0.926l-9.521-0.255l-18.289,1.993l-9.53-2.59C303.197,52.627,302.865,52.562,302.865,52.562z"
					/>
			</g>
		</g>
		<g id="XMLID_12_">
			
				<rect x="293.566" y="85.154" transform="matrix(-0.9809 -0.1946 0.1946 -0.9809 566.1246 245.0662)" fill="#EBA920" width="3.066" height="19.146"/>
		</g>
		<g id="XMLID_11_">
			
				<rect x="296.701" y="88.548" transform="matrix(-0.9809 -0.1943 0.1943 -0.9809 571.9803 249.6101)" fill="#EE4232" width="3.065" height="16.4"/>
		</g>
		<g id="XMLID_10_">
			
				<rect x="303.425" y="81.177" transform="matrix(-0.9809 -0.1943 0.1943 -0.9809 585.9037 244.8347)" fill="#EBA920" width="3.066" height="25.02"/>
		</g>
		<g id="XMLID_9_">
			
				<rect x="306.441" y="86.166" transform="matrix(-0.9808 -0.1949 0.1949 -0.9808 591.235 251.1748)" fill="#EE4232" width="3.067" height="20.672"/>
		</g>
		<g id="XMLID_8_">
			
				<rect x="312.229" y="88.217" transform="matrix(-0.9809 -0.1943 0.1943 -0.9809 602.4772 255.2954)" fill="#EBA920" width="3.065" height="19.755"/>
		</g>
		<g id="XMLID_7_">
			
				<rect x="315.72" y="88.299" transform="matrix(-0.9809 -0.1943 0.1943 -0.9809 609.3276 256.7238)" fill="#EE4232" width="3.066" height="20.367"/>
		</g>
		<g id="XMLID_6_">
			
				<rect x="321.695" y="88.342" transform="matrix(-0.9809 -0.1943 0.1943 -0.9809 621.0345 259.1208)" fill="#EBA920" width="3.065" height="21.511"/>
		</g>
		<g id="XMLID_5_">
			
				<rect x="325.237" y="88.108" transform="matrix(-0.981 -0.1942 0.1942 -0.981 628.0292 260.217)" fill="#EE4232" width="3.067" height="22.428"/>
		</g>
		<g id="XMLID_4_">
			
				<rect x="330.729" y="93.038" transform="matrix(-0.981 -0.194 0.194 -0.981 638.3512 267.2131)" fill="#EBA920" width="3.065" height="18.613"/>
		</g>
		<g id="XMLID_3_">
			
				<rect x="334.712" y="88.021" transform="matrix(-0.9809 -0.1945 0.1945 -0.9809 646.5843 263.907)" fill="#EE4232" width="3.068" height="24.39"/>
		</g>
		<g id="XMLID_2_">
			
				<rect x="339.762" y="97.677" transform="matrix(-0.9809 -0.1944 0.1944 -0.9809 655.5543 275.476)" fill="#EBA920" width="3.064" height="15.789"/>
		</g>
		<g id="XMLID_1_">
			
				<rect x="344.154" y="88.699" transform="matrix(-0.981 -0.1942 0.1942 -0.981 665.0845 268.1595)" fill="#EE4232" width="3.067" height="25.555"/>
		</g>
	</g>
</g>
<g>
	<g>
		<rect x="219.068" y="21.15" fill="#FFFFFF" width="76.915" height="106.599"/>
		<path fill="#808184" d="M296.492,128.258H218.56V20.642h77.932V128.258z M219.578,127.24h75.896V21.659h-75.896V127.24z"/>
	</g>
	<g>
		<g>
			<rect x="225.264" y="46.706" fill="#ABEBFF" width="64.397" height="6.716"/>
			<path fill="#6D6E70" d="M290.171,53.931h-65.416v-7.733h65.416V53.931z M225.772,52.913h63.381v-5.698h-63.381V52.913
				L225.772,52.913z"/>
		</g>
		<g>
			<rect x="225.264" y="53.027" fill="#FFF4CF" width="12.576" height="60.448"/>
			<path fill="#6D6E70" d="M238.35,113.984h-13.596V52.519h13.596V113.984z M225.772,112.967h11.56V53.536h-11.56V112.967z"/>
		</g>
		<g>
			<rect x="238.104" y="53.027" fill="#FFFFFF" width="12.577" height="60.448"/>
			<path fill="#6D6E70" d="M251.189,113.984h-13.595V52.519h13.595V113.984z M238.612,112.967h11.56V53.536h-11.56V112.967z"/>
		</g>
		<g>
			<rect x="251.142" y="53.027" fill="#FFF4CF" width="12.972" height="60.448"/>
			<path fill="#6D6E70" d="M264.622,113.984h-13.989V52.519h13.989V113.984z M251.65,112.967h11.954V53.536H251.65V112.967z"/>
		</g>
		<g>
			<rect x="263.784" y="53.027" fill="#FFFFFF" width="12.972" height="60.448"/>
			<path fill="#6D6E70" d="M277.265,113.984h-13.989V52.519h13.989V113.984z M264.293,112.967h11.955V53.536h-11.955V112.967z"/>
		</g>
		<g>
			<rect x="276.822" y="53.027" fill="#FFF4CF" width="12.972" height="60.448"/>
			<path fill="#6D6E70" d="M290.303,113.984h-13.989V52.519h13.989V113.984z M277.331,112.967h11.954V53.536h-11.954V112.967z"/>
		</g>
		<g>
			<rect x="237.135" y="46.706" fill="#6D6E70" width="1.018" height="66.638"/>
		</g>
		<g>
			<rect x="250.303" y="46.706" fill="#6D6E70" width="1.018" height="66.638"/>
		</g>
		<g>
			<rect x="263.736" y="46.706" fill="#6D6E70" width="1.018" height="66.638"/>
		</g>
		<g>
			<rect x="276.643" y="46.706" fill="#6D6E70" width="1.018" height="66.638"/>
		</g>
		<g>
			<rect x="225" y="55.68" fill="#6D6E70" width="64.531" height="1.017"/>
		</g>
		<g>
			<rect x="225" y="58.576" fill="#6D6E70" width="64.531" height="1.018"/>
		</g>
		<g>
			<rect x="225" y="62" fill="#6D6E70" width="64.531" height="1.018"/>
		</g>
		<g>
			<rect x="225" y="64.897" fill="#6D6E70" width="64.531" height="1.018"/>
		</g>
		<g>
			<rect x="225" y="67.531" fill="#6D6E70" width="64.531" height="1.018"/>
		</g>
		<g>
			<rect x="225" y="70.43" fill="#6D6E70" width="64.531" height="1.018"/>
		</g>
		<g>
			<rect x="225" y="73.854" fill="#6D6E70" width="64.531" height="1.018"/>
		</g>
		<g>
			<rect x="225" y="76.75" fill="#6D6E70" width="64.531" height="1.018"/>
		</g>
		<g>
			<rect x="225" y="79.385" fill="#6D6E70" width="64.531" height="1.018"/>
		</g>
		<g>
			<rect x="225" y="82.281" fill="#6D6E70" width="64.531" height="1.018"/>
		</g>
		<g>
			<rect x="225" y="85.705" fill="#6D6E70" width="64.531" height="1.018"/>
		</g>
		<g>
			<rect x="225" y="88.604" fill="#6D6E70" width="64.531" height="1.018"/>
		</g>
		<g>
			<rect x="225" y="91.5" fill="#6D6E70" width="64.531" height="1.018"/>
		</g>
		<g>
			<rect x="225" y="94.396" fill="#6D6E70" width="64.531" height="1.019"/>
		</g>
		<g>
			<rect x="225" y="97.82" fill="#6D6E70" width="64.531" height="1.018"/>
		</g>
		<g>
			<rect x="225" y="100.719" fill="#6D6E70" width="64.531" height="1.018"/>
		</g>
		<g>
			<rect x="225" y="103.615" fill="#6D6E70" width="64.531" height="1.019"/>
		</g>
		<g>
			<rect x="225" y="106.514" fill="#6D6E70" width="64.531" height="1.018"/>
		</g>
		<g>
			<rect x="225" y="109.938" fill="#6D6E70" width="64.531" height="1.018"/>
		</g>
	</g>
	<g>
		<rect x="224.736" y="38.936" fill="#808184" width="36.349" height="2.897"/>
	</g>
	<g>
		<rect x="224.736" y="33.932" fill="#808184" width="20.019" height="2.897"/>
	</g>
	<g>
		<rect x="224.736" y="116.372" fill="#808184" width="9.22" height="2.897"/>
	</g>
	<g>
		<rect x="224.736" y="121.377" fill="#808184" width="11.854" height="2.896"/>
	</g>
	<g>
		<rect x="272.674" y="24.977" fill="#808184" width="20.019" height="2.897"/>
	</g>
</g>
</svg>
