<?xml version="1.0" encoding="utf-8"?>
<!-- Generator: Adobe Illustrator 15.1.0, SVG Export Plug-In . SVG Version: 6.00 Build 0)  -->
<!DOCTYPE svg PUBLIC "-//W3C//DTD SVG 1.1//EN" "http://www.w3.org/Graphics/SVG/1.1/DTD/svg11.dtd">
<svg version="1.1" id="Selected_Items" xmlns="http://www.w3.org/2000/svg" xmlns:xlink="http://www.w3.org/1999/xlink" x="0px"
	 y="0px" width="21.234px" height="55.65px" viewBox="0 0 21.234 55.65" enable-background="new 0 0 21.234 55.65"
	 xml:space="preserve">
<symbol  id="Symbol_1" viewBox="-0.025 -55.65 21.235 55.65">
	<g id="Layer_1_2_">
		<path fill-rule="evenodd" clip-rule="evenodd" fill="#FFFFFF" d="M20.35-1.05c0.633-0.6,0.917-1.3,0.85-2.1L17.2-39
			c0-0.3-0.233-0.583-0.7-0.85c-0.3-0.2-0.683-0.3-1.15-0.3h-9.6c-0.433,0-0.833,0.1-1.2,0.3C4.15-39.583,3.933-39.3,3.9-39L0-3.15
			c-0.1,0.8,0.1,1.5,0.6,2.1C1.133-0.35,1.75,0,2.45,0h16.1C19.35,0,19.95-0.35,20.35-1.05z M7.9-45.35
			c-0.933-0.633-1.4-1.483-1.4-2.55c0-1.133,0.467-2.133,1.4-3c0.7-0.7,1.567-1.05,2.6-1.05c1.167,0,2.167,0.284,3,0.85l0.2,0.2
			c0.6,0.867,0.9,1.867,0.9,3c0,1-0.3,1.85-0.9,2.55l-0.2,0.1c-0.833,0.7-1.833,1.05-3,1.05c-1.033,0-1.9-0.35-2.6-1.05V-45.35z
			 M15.2-5.9H5.8l1.65-31.95h6.15L15.2-5.9z M5.3-42.7h0.1c1.367,1.5,3.067,2.25,5.1,2.25c2.133,0,3.983-0.75,5.55-2.25
			c1.434-1.4,2.15-3.133,2.15-5.2c0-2.133-0.684-3.967-2.05-5.5c-0.066,0-0.1-0.05-0.1-0.15c-1.566-1.4-3.417-2.1-5.55-2.1
			c-2.033,0-3.733,0.7-5.1,2.1L5.3-53.4C3.767-51.933,3-50.1,3-47.9C3-45.833,3.767-44.1,5.3-42.7z"/>
		<path fill-rule="evenodd" clip-rule="evenodd" fill="#A3CFFF" d="M15.2-5.9l-1.6-31.95H7.45L5.8-5.9H15.2z M7.9-45.35v0.1
			c0.7,0.7,1.567,1.05,2.6,1.05c1.167,0,2.167-0.35,3-1.05l0.2-0.1c0.6-0.7,0.9-1.55,0.9-2.55c0-1.133-0.3-2.133-0.9-3l-0.2-0.2
			c-0.833-0.566-1.833-0.85-3-0.85c-1.033,0-1.9,0.35-2.6,1.05c-0.933,0.867-1.4,1.867-1.4,3C6.5-46.833,6.967-45.983,7.9-45.35z"/>
	</g>
</symbol>
<use xlink:href="#Symbol_1"  width="21.235" height="55.65" x="-0.025" y="-55.65" transform="matrix(1 0 0 -1 0.0249 0)" overflow="visible"/>
</svg>
