<?xml version="1.0" encoding="utf-8"?>
<!-- Generator: Adobe Illustrator 15.1.0, SVG Export Plug-In . SVG Version: 6.00 Build 0)  -->
<!DOCTYPE svg PUBLIC "-//W3C//DTD SVG 1.1//EN" "http://www.w3.org/Graphics/SVG/1.1/DTD/svg11.dtd">
<svg version="1.1" id="Layer_1" xmlns="http://www.w3.org/2000/svg" xmlns:xlink="http://www.w3.org/1999/xlink" x="0px" y="0px"
	 width="488.251px" height="346px" viewBox="4.919 16.551 488.251 346" enable-background="new 4.919 16.551 488.251 346"
	 xml:space="preserve">
<g>
	<g>
		<g>
			<path fill="#A7AFB8" d="M148.38,66.956c-0.357,0-0.661,0.071-0.908,0.216c-0.246,0.122-0.37,0.286-0.37,0.491
				c0,0.186,0.125,0.35,0.37,0.492c0.247,0.122,0.551,0.185,0.908,0.185h26.289c0.354,0,0.659-0.063,0.907-0.185
				c0.245-0.143,0.369-0.308,0.369-0.492c0-0.205-0.125-0.369-0.369-0.491c-0.249-0.145-0.551-0.216-0.907-0.216H148.38z
				 M107.092,66.956c-0.357,0-0.66,0.071-0.907,0.216c-0.247,0.122-0.37,0.286-0.37,0.491c0,0.186,0.123,0.35,0.37,0.492
				c0.248,0.122,0.55,0.185,0.907,0.185h26.288c0.355,0,0.659-0.063,0.905-0.185c0.249-0.143,0.372-0.308,0.372-0.492
				c0-0.205-0.123-0.369-0.372-0.491c-0.247-0.145-0.55-0.216-0.905-0.216H107.092z M65.845,66.956
				c-0.355,0-0.658,0.071-0.905,0.216c-0.248,0.122-0.37,0.286-0.37,0.491c0,0.186,0.123,0.35,0.37,0.492
				c0.248,0.122,0.551,0.185,0.905,0.185h26.29c0.357,0,0.645-0.063,0.865-0.185c0.248-0.143,0.37-0.308,0.37-0.492
				c0-0.205-0.123-0.369-0.37-0.491c-0.222-0.145-0.508-0.216-0.865-0.216H65.845z M230.047,68.156
				c0.219,0.124,0.507,0.185,0.864,0.185h26.291c0.355,0,0.657-0.062,0.904-0.185c0.248-0.143,0.371-0.307,0.371-0.491
				c0-0.205-0.123-0.369-0.371-0.491c-0.248-0.145-0.549-0.216-0.904-0.216h-26.291c-0.357,0-0.646,0.071-0.864,0.216
				c-0.249,0.122-0.372,0.286-0.372,0.491C229.674,67.849,229.798,68.013,230.047,68.156z M217.231,67.663
				c0-0.205-0.122-0.369-0.37-0.491c-0.248-0.145-0.549-0.216-0.905-0.216h-26.29c-0.356,0-0.661,0.071-0.907,0.216
				c-0.247,0.122-0.37,0.286-0.37,0.491c0,0.186,0.124,0.35,0.37,0.492c0.246,0.122,0.55,0.185,0.907,0.185h26.29
				c0.356,0,0.657-0.063,0.905-0.185C217.109,68.013,217.231,67.849,217.231,67.663z M49.365,69.878
				c-0.962,0-1.771-0.186-2.432-0.553c-0.659-0.37-0.99-0.811-0.99-1.323v-0.708c0-0.513,0.331-0.954,0.99-1.322
				c0.66-0.37,1.47-0.553,2.432-0.553h213.769c0.963,0,1.773,0.184,2.432,0.553c0.659,0.368,0.99,0.809,0.99,1.322v0.708
				c0,0.513-0.332,0.953-0.99,1.323c-0.657,0.367-1.468,0.553-2.432,0.553H49.365z"/>
			<path fill="#A7AFB8" d="M258.477,128.119c0-0.187-0.123-0.34-0.371-0.461c-0.248-0.145-0.549-0.216-0.904-0.216H230.91
				c-0.357,0-0.646,0.072-0.864,0.216c-0.249,0.122-0.372,0.276-0.372,0.461c0,0.205,0.125,0.367,0.372,0.49
				c0.219,0.146,0.507,0.218,0.864,0.218h26.291c0.355,0,0.657-0.072,0.904-0.218C258.354,128.487,258.477,128.323,258.477,128.119z
				 M93.37,128.119c0-0.187-0.123-0.34-0.37-0.461c-0.222-0.145-0.508-0.216-0.865-0.216h-26.29c-0.355,0-0.658,0.072-0.905,0.216
				c-0.248,0.122-0.37,0.276-0.37,0.461c0,0.205,0.123,0.367,0.37,0.49c0.248,0.146,0.551,0.218,0.905,0.218h26.29
				c0.357,0,0.645-0.072,0.865-0.218C93.247,128.487,93.37,128.323,93.37,128.119z M134.658,128.119c0-0.187-0.123-0.34-0.371-0.461
				c-0.248-0.145-0.551-0.216-0.906-0.216h-26.288c-0.358,0-0.661,0.072-0.907,0.216c-0.248,0.122-0.371,0.276-0.371,0.461
				c0,0.205,0.124,0.367,0.371,0.49c0.247,0.146,0.549,0.218,0.907,0.218h26.288c0.354,0,0.659-0.072,0.906-0.218
				C134.535,128.487,134.658,128.323,134.658,128.119z M175.945,128.119c0-0.187-0.124-0.34-0.37-0.461
				c-0.248-0.145-0.552-0.216-0.907-0.216H148.38c-0.358,0-0.661,0.072-0.908,0.216c-0.247,0.122-0.37,0.276-0.37,0.461
				c0,0.205,0.124,0.367,0.37,0.49c0.247,0.146,0.549,0.218,0.908,0.218h26.288c0.354,0,0.659-0.072,0.907-0.218
				C175.821,128.487,175.945,128.323,175.945,128.119z M189.665,127.442c-0.356,0-0.66,0.072-0.906,0.215
				c-0.247,0.123-0.37,0.277-0.37,0.462c0,0.204,0.123,0.367,0.37,0.49c0.247,0.146,0.55,0.218,0.906,0.218h26.29
				c0.356,0,0.658-0.072,0.906-0.218c0.248-0.123,0.37-0.286,0.37-0.49c0-0.187-0.122-0.34-0.37-0.462
				c-0.248-0.144-0.55-0.215-0.906-0.215H189.665z M45.944,127.78c0-0.512,0.331-0.952,0.99-1.321
				c0.66-0.369,1.47-0.555,2.432-0.555h213.769c0.963,0,1.773,0.187,2.432,0.555c0.659,0.369,0.99,0.81,0.99,1.321v0.707
				c0,0.514-0.332,0.954-0.99,1.323c-0.657,0.369-1.468,0.553-2.432,0.553H49.365c-0.962,0-1.771-0.184-2.432-0.553
				c-0.659-0.37-0.99-0.81-0.99-1.323V127.78z"/>
			<path fill="#A7AFB8" d="M230.047,189.129c0.246,0.144,0.534,0.216,0.864,0.216h26.291c0.355,0,0.657-0.072,0.904-0.216
				c0.248-0.146,0.371-0.309,0.371-0.492c0-0.204-0.123-0.368-0.371-0.49c-0.248-0.145-0.549-0.218-0.904-0.218h-26.291
				c-0.357,0-0.646,0.073-0.864,0.218c-0.249,0.122-0.372,0.285-0.372,0.49C229.674,188.821,229.798,188.985,230.047,189.129z
				 M189.665,187.929c-0.356,0-0.66,0.073-0.906,0.218c-0.247,0.122-0.37,0.285-0.37,0.49c0,0.185,0.123,0.35,0.37,0.492
				c0.247,0.144,0.55,0.216,0.906,0.216h26.29c0.356,0,0.658-0.072,0.906-0.216c0.248-0.146,0.37-0.309,0.37-0.492
				c0-0.204-0.122-0.368-0.37-0.49c-0.248-0.145-0.55-0.218-0.906-0.218H189.665z M148.38,187.929c-0.357,0-0.661,0.073-0.908,0.218
				c-0.246,0.122-0.37,0.285-0.37,0.49c0,0.185,0.125,0.35,0.37,0.492c0.247,0.144,0.551,0.216,0.908,0.216h26.289
				c0.354,0,0.659-0.072,0.907-0.216c0.245-0.146,0.369-0.309,0.369-0.492c0-0.204-0.125-0.368-0.369-0.49
				c-0.249-0.145-0.551-0.218-0.907-0.218H148.38z M107.092,187.929c-0.357,0-0.66,0.073-0.907,0.218
				c-0.247,0.122-0.37,0.285-0.37,0.49c0,0.185,0.123,0.35,0.37,0.492c0.248,0.144,0.55,0.216,0.907,0.216h26.288
				c0.355,0,0.659-0.072,0.905-0.216c0.249-0.146,0.372-0.309,0.372-0.492c0-0.204-0.123-0.368-0.372-0.49
				c-0.247-0.145-0.55-0.218-0.905-0.218H107.092z M65.845,187.929c-0.355,0-0.658,0.073-0.905,0.218
				c-0.248,0.122-0.37,0.285-0.37,0.49c0,0.185,0.123,0.35,0.37,0.492c0.248,0.144,0.551,0.216,0.905,0.216h26.29
				c0.357,0,0.645-0.072,0.865-0.216c0.248-0.146,0.37-0.309,0.37-0.492c0-0.204-0.123-0.368-0.37-0.49
				c-0.222-0.145-0.508-0.218-0.865-0.218H65.845z M49.365,190.883c-0.936,0-1.744-0.187-2.432-0.554
				c-0.659-0.369-0.99-0.813-0.99-1.324v-0.737c0-0.514,0.331-0.955,0.99-1.322c0.688-0.368,1.497-0.555,2.432-0.555h213.769
				c0.934,0,1.746,0.187,2.432,0.555c0.659,0.369,0.99,0.81,0.99,1.322v0.737c0,0.513-0.332,0.955-0.99,1.324
				c-0.686,0.367-1.497,0.554-2.432,0.554H49.365z"/>
			<path fill="#A7AFB8" d="M489.849,336.399l2.027-3.582c0.082-0.148,0.125-0.34,0.125-0.578c0-0.24-0.043-0.448-0.125-0.627
				c-0.086-0.151-0.195-0.225-0.331-0.225c-0.15,0-0.271,0.076-0.354,0.225l-2.03,3.579l-2.024-3.579
				c-0.104-0.151-0.221-0.225-0.354-0.225c-0.136,0-0.243,0.076-0.33,0.225c-0.104,0.179-0.149,0.387-0.149,0.627
				c0,0.238,0.047,0.431,0.149,0.578l2.03,3.582l-2.03,3.625c-0.104,0.147-0.149,0.34-0.149,0.58c0,0.239,0.047,0.447,0.149,0.627
				c0.221,0.39,0.445,0.39,0.686,0l2.024-3.624l2.03,3.624c0.082,0.149,0.203,0.223,0.354,0.223c0.134,0,0.244-0.075,0.331-0.223
				c0.081-0.18,0.125-0.388,0.125-0.627c0-0.24-0.044-0.434-0.125-0.58L489.849,336.399z M487.136,311.831
				c-0.104-0.151-0.221-0.225-0.354-0.225c-0.136,0-0.243,0.074-0.33,0.225c-0.104,0.175-0.149,0.387-0.149,0.626
				c0,0.238,0.047,0.432,0.149,0.578l2.03,3.581l-2.03,3.582c-0.104,0.18-0.149,0.389-0.149,0.626c0,0.239,0.047,0.432,0.149,0.581
				c0.087,0.179,0.194,0.269,0.33,0.269s0.252-0.089,0.354-0.269l2.024-3.579l2.03,3.579c0.082,0.179,0.203,0.269,0.354,0.269
				c0.134,0,0.244-0.089,0.331-0.269c0.082-0.15,0.125-0.342,0.125-0.581c0-0.237-0.043-0.446-0.125-0.626l-2.027-3.582l2.027-3.581
				c0.082-0.147,0.125-0.34,0.125-0.578c0-0.239-0.043-0.451-0.125-0.626c-0.087-0.151-0.195-0.225-0.331-0.225
				c-0.15,0-0.271,0.074-0.354,0.225l-2.03,3.579L487.136,311.831z M492.002,292.676c0-0.27-0.044-0.477-0.125-0.628
				c-0.087-0.148-0.195-0.221-0.331-0.221c-0.15,0-0.271,0.073-0.354,0.221l-2.03,3.582l-2.024-3.582
				c-0.104-0.148-0.22-0.221-0.354-0.221c-0.136,0-0.242,0.073-0.33,0.221c-0.104,0.151-0.149,0.359-0.149,0.628
				c0,0.237,0.047,0.434,0.149,0.58l2.03,3.581l-2.03,3.58c-0.104,0.179-0.149,0.388-0.149,0.627s0.047,0.434,0.149,0.582
				c0.088,0.179,0.194,0.27,0.33,0.27s0.252-0.09,0.354-0.27l2.024-3.579l2.03,3.579c0.082,0.179,0.203,0.27,0.354,0.27
				c0.134,0,0.244-0.09,0.331-0.27c0.081-0.15,0.125-0.343,0.125-0.582s-0.044-0.448-0.125-0.627l-2.027-3.58l2.027-3.581
				C491.958,293.11,492.002,292.913,492.002,292.676z M487.136,272.269c-0.239-0.417-0.465-0.417-0.686,0
				c-0.104,0.152-0.149,0.345-0.149,0.583c0,0.239,0.047,0.447,0.149,0.627l2.03,3.579l-2.03,3.58
				c-0.104,0.178-0.149,0.389-0.149,0.627c0,0.237,0.047,0.433,0.149,0.581c0.087,0.179,0.194,0.271,0.33,0.271
				c0.135,0,0.252-0.091,0.354-0.271l2.024-3.58l2.03,3.58c0.082,0.179,0.203,0.271,0.354,0.271c0.134,0,0.244-0.091,0.33-0.271
				c0.082-0.149,0.125-0.344,0.125-0.581c0-0.238-0.043-0.449-0.125-0.627l-2.026-3.58l2.026-3.579
				c0.082-0.18,0.125-0.388,0.125-0.627c0-0.238-0.043-0.433-0.125-0.583c-0.086-0.177-0.194-0.27-0.33-0.27
				c-0.15,0-0.271,0.091-0.354,0.27l-2.03,3.58L487.136,272.269z M491.877,253.698c0.081-0.181,0.125-0.389,0.125-0.626
				c0-0.24-0.044-0.437-0.125-0.582c-0.087-0.18-0.195-0.27-0.328-0.27c-0.153,0-0.272,0.089-0.356,0.27l-2.027,3.579l-2.027-3.579
				c-0.237-0.417-0.465-0.417-0.684,0c-0.103,0.146-0.151,0.342-0.151,0.582c0,0.237,0.05,0.445,0.151,0.626l2.028,3.58
				l-2.028,3.581c-0.103,0.147-0.151,0.356-0.151,0.623c0,0.24,0.05,0.437,0.151,0.584c0.219,0.388,0.445,0.388,0.684,0l2.027-3.582
				l2.027,3.582c0.084,0.149,0.203,0.224,0.356,0.224c0.133,0,0.241-0.075,0.328-0.224c0.081-0.148,0.125-0.344,0.125-0.584
				c0-0.268-0.044-0.476-0.125-0.623l-2.027-3.581L491.877,253.698z M487.136,232.71c-0.239-0.419-0.465-0.419-0.686,0
				c-0.104,0.146-0.149,0.34-0.149,0.579s0.047,0.448,0.149,0.627l2.03,3.579l-2.03,3.582c-0.104,0.147-0.149,0.357-0.149,0.626
				c0,0.238,0.047,0.433,0.149,0.582c0.221,0.388,0.445,0.388,0.686,0l2.024-3.58l2.03,3.58c0.082,0.147,0.203,0.221,0.354,0.221
				c0.134,0,0.244-0.075,0.331-0.221c0.082-0.15,0.125-0.344,0.125-0.582c0-0.27-0.043-0.479-0.125-0.626l-2.027-3.582l2.027-3.579
				c0.082-0.179,0.125-0.388,0.125-0.627s-0.043-0.434-0.125-0.579c-0.087-0.18-0.195-0.271-0.331-0.271
				c-0.15,0-0.271,0.091-0.354,0.271l-2.03,3.579L487.136,232.71z M489.849,217.717l2.027-3.624c0.082-0.15,0.125-0.343,0.125-0.582
				c0-0.235-0.043-0.446-0.125-0.625c-0.086-0.15-0.195-0.226-0.331-0.226c-0.15,0-0.271,0.076-0.354,0.226l-2.03,3.624
				l-2.024-3.624c-0.104-0.15-0.221-0.226-0.354-0.226c-0.136,0-0.243,0.076-0.33,0.226c-0.104,0.179-0.149,0.39-0.149,0.625
				c0,0.239,0.047,0.434,0.149,0.582l2.03,3.624l-2.03,3.58c-0.104,0.152-0.149,0.344-0.149,0.582s0.047,0.448,0.149,0.627
				c0.221,0.388,0.445,0.388,0.686,0l2.024-3.58l2.03,3.58c0.082,0.149,0.203,0.222,0.354,0.222c0.134,0,0.244-0.074,0.331-0.222
				c0.081-0.179,0.125-0.389,0.125-0.627s-0.044-0.433-0.125-0.582L489.849,217.717z M486.302,193.728
				c0,0.24,0.047,0.434,0.149,0.582l2.03,3.623l-2.03,3.584c-0.104,0.15-0.149,0.343-0.149,0.58c0,0.24,0.047,0.45,0.149,0.627
				c0.221,0.39,0.445,0.39,0.686,0l2.024-3.581l2.03,3.581c0.082,0.15,0.203,0.223,0.354,0.223c0.134,0,0.244-0.073,0.33-0.223
				c0.082-0.177,0.125-0.387,0.125-0.627c0-0.238-0.043-0.433-0.125-0.58l-2.026-3.584l2.026-3.623
				c0.082-0.148,0.125-0.342,0.125-0.582c0-0.239-0.043-0.446-0.125-0.628c-0.086-0.147-0.194-0.221-0.33-0.221
				c-0.15,0-0.271,0.074-0.354,0.221l-2.03,3.625l-2.024-3.625c-0.104-0.147-0.22-0.221-0.354-0.221
				c-0.136,0-0.243,0.074-0.33,0.221C486.351,193.283,486.302,193.49,486.302,193.728z M491.549,173.1
				c-0.153,0-0.272,0.072-0.356,0.221l-2.027,3.582l-2.027-3.582c-0.104-0.148-0.221-0.221-0.354-0.221
				c-0.136,0-0.243,0.072-0.328,0.221c-0.103,0.179-0.151,0.389-0.151,0.628s0.05,0.435,0.151,0.582l2.028,3.579l-2.028,3.628
				c-0.103,0.146-0.151,0.342-0.151,0.579c0,0.241,0.05,0.449,0.151,0.627c0.219,0.388,0.445,0.388,0.684,0l2.028-3.624l2.026,3.624
				c0.084,0.148,0.203,0.224,0.356,0.224c0.133,0,0.242-0.076,0.328-0.224c0.082-0.178,0.125-0.39,0.125-0.627
				c0-0.239-0.043-0.435-0.125-0.579l-2.027-3.628l2.027-3.579c0.082-0.148,0.125-0.343,0.125-0.582s-0.043-0.449-0.125-0.628
				C491.79,173.173,491.681,173.1,491.549,173.1z M491.877,154.751c0.081-0.148,0.125-0.345,0.125-0.583s-0.044-0.444-0.125-0.627
				c-0.087-0.149-0.195-0.222-0.328-0.222c-0.153,0-0.272,0.074-0.356,0.222l-2.027,3.58l-2.027-3.58
				c-0.104-0.149-0.221-0.222-0.354-0.222c-0.136,0-0.243,0.074-0.328,0.222c-0.103,0.183-0.151,0.388-0.151,0.627
				c0,0.241,0.05,0.435,0.151,0.583l2.028,3.58l-2.028,3.579c-0.103,0.178-0.151,0.388-0.151,0.626s0.05,0.434,0.151,0.581
				c0.085,0.181,0.192,0.269,0.328,0.269c0.139,0,0.252-0.089,0.354-0.269l2.027-3.579l2.027,3.579
				c0.084,0.181,0.203,0.269,0.356,0.269c0.133,0,0.241-0.089,0.328-0.269c0.081-0.148,0.125-0.344,0.125-0.581
				c0-0.238-0.044-0.448-0.125-0.626l-2.027-3.579L491.877,154.751z M487.136,133.764c-0.104-0.15-0.221-0.224-0.354-0.224
				c-0.136,0-0.243,0.074-0.33,0.224c-0.104,0.148-0.149,0.357-0.149,0.626c0,0.237,0.047,0.433,0.149,0.583l2.03,3.579l-2.03,3.579
				c-0.104,0.18-0.149,0.388-0.149,0.629c0,0.238,0.047,0.432,0.149,0.581c0.087,0.179,0.194,0.27,0.33,0.27s0.252-0.091,0.354-0.27
				l2.024-3.58l2.03,3.58c0.082,0.179,0.203,0.27,0.354,0.27c0.134,0,0.244-0.091,0.331-0.27c0.082-0.149,0.125-0.343,0.125-0.581
				c0-0.241-0.043-0.448-0.125-0.629l-2.027-3.579l2.027-3.579c0.082-0.15,0.125-0.346,0.125-0.583c0-0.269-0.043-0.478-0.125-0.626
				c-0.087-0.15-0.195-0.224-0.331-0.224c-0.15,0-0.271,0.074-0.354,0.224l-2.03,3.578L487.136,133.764z M491.877,115.189
				c0.081-0.177,0.125-0.388,0.125-0.626s-0.044-0.431-0.125-0.581c-0.087-0.179-0.195-0.27-0.328-0.27
				c-0.153,0-0.272,0.093-0.356,0.27l-2.027,3.581l-2.027-3.581c-0.237-0.417-0.465-0.417-0.684,0
				c-0.103,0.149-0.151,0.342-0.151,0.581s0.05,0.447,0.151,0.626l2.028,3.581l-2.028,3.578c-0.103,0.181-0.151,0.39-0.151,0.629
				c0,0.238,0.05,0.431,0.151,0.581c0.085,0.18,0.192,0.271,0.328,0.271c0.139,0,0.252-0.091,0.354-0.271l2.028-3.579l2.026,3.579
				c0.084,0.18,0.203,0.271,0.356,0.271c0.133,0,0.242-0.091,0.328-0.271c0.082-0.147,0.125-0.342,0.125-0.581
				c0-0.239-0.043-0.448-0.125-0.629l-2.027-3.578L491.877,115.189z M487.136,94.201c-0.239-0.418-0.465-0.418-0.686,0
				c-0.104,0.148-0.149,0.344-0.149,0.581c0,0.239,0.047,0.448,0.149,0.627l2.03,3.58l-2.03,3.581
				c-0.104,0.149-0.149,0.357-0.149,0.628c0,0.238,0.047,0.432,0.149,0.58c0.221,0.39,0.445,0.39,0.686,0l2.024-3.58l2.03,3.58
				c0.082,0.149,0.203,0.223,0.354,0.223c0.134,0,0.244-0.074,0.331-0.223c0.082-0.15,0.125-0.343,0.125-0.58
				c0-0.271-0.043-0.478-0.125-0.628l-2.027-3.581l2.027-3.58c0.082-0.179,0.125-0.388,0.125-0.627c0-0.239-0.043-0.432-0.125-0.581
				c-0.087-0.179-0.195-0.268-0.331-0.268c-0.15,0-0.271,0.088-0.354,0.268l-2.03,3.579L487.136,94.201z M491.549,74.153
				c-0.153,0-0.272,0.09-0.356,0.267l-2.027,3.58l-2.027-3.58c-0.237-0.417-0.465-0.417-0.684,0
				c-0.103,0.148-0.151,0.344-0.151,0.584c0,0.238,0.05,0.446,0.151,0.626l2.028,3.581l-2.028,3.579
				c-0.103,0.149-0.151,0.344-0.151,0.583c0,0.239,0.05,0.448,0.151,0.626c0.219,0.387,0.445,0.387,0.684,0l2.027-3.579l2.027,3.579
				c0.084,0.148,0.203,0.225,0.356,0.225c0.133,0,0.241-0.077,0.328-0.225c0.081-0.15,0.125-0.344,0.125-0.581
				c0-0.269-0.044-0.479-0.125-0.628l-2.027-3.579l2.027-3.581c0.081-0.18,0.125-0.388,0.125-0.626c0-0.24-0.044-0.435-0.125-0.584
				C491.79,74.241,491.681,74.153,491.549,74.153z M487.136,54.595c-0.104-0.148-0.221-0.223-0.354-0.223
				c-0.136,0-0.243,0.075-0.33,0.223c-0.104,0.18-0.149,0.388-0.149,0.628c0,0.239,0.047,0.432,0.149,0.583l2.03,3.625l-2.03,3.579
				c-0.104,0.149-0.149,0.343-0.149,0.58c0,0.238,0.047,0.449,0.149,0.627c0.221,0.388,0.445,0.388,0.686,0l2.024-3.581l2.03,3.581
				c0.082,0.147,0.203,0.222,0.354,0.222c0.134,0,0.244-0.073,0.33-0.222c0.082-0.178,0.125-0.389,0.125-0.627
				c0-0.239-0.043-0.431-0.125-0.58l-2.026-3.579l2.026-3.625c0.082-0.148,0.125-0.344,0.125-0.583c0-0.24-0.043-0.448-0.125-0.628
				c-0.086-0.148-0.194-0.223-0.33-0.223c-0.15,0-0.271,0.075-0.354,0.223l-2.03,3.626L487.136,54.595z M492.357,30.294
				c0.542,0.956,0.813,2.088,0.813,3.4V346.87h-8.013V33.697c0-1.314,0.273-2.447,0.813-3.4c0.541-0.957,1.183-1.432,1.927-1.432
				h2.533C491.174,28.864,491.818,29.34,492.357,30.294z"/>
			<path fill="#A7AFB8" d="M44.149,28.864h2.537c0.742,0,1.384,0.475,1.924,1.431c0.542,0.956,0.813,2.088,0.813,3.4V346.87h-8.011
				V33.697c0-1.314,0.271-2.447,0.813-3.4C42.765,29.34,43.406,28.864,44.149,28.864z M42.703,63.01
				c-0.084,0.149-0.126,0.341-0.126,0.58c0,0.24,0.042,0.449,0.126,0.628c0.085,0.148,0.194,0.224,0.331,0.224
				c0.151,0,0.271-0.074,0.354-0.224l2.028-3.58l2.026,3.58c0.237,0.387,0.465,0.387,0.685,0c0.101-0.179,0.152-0.388,0.152-0.628
				c0-0.239-0.052-0.431-0.152-0.58l-2.028-3.579l2.028-3.626c0.101-0.149,0.152-0.345,0.152-0.583c0-0.24-0.052-0.447-0.152-0.626
				c-0.084-0.148-0.194-0.225-0.329-0.225c-0.137,0-0.255,0.076-0.355,0.225l-2.026,3.626l-2.028-3.626
				c-0.084-0.148-0.205-0.225-0.354-0.225c-0.137,0-0.246,0.076-0.331,0.225c-0.084,0.179-0.126,0.386-0.126,0.626
				c0,0.238,0.042,0.432,0.126,0.583l2.027,3.626L42.703,63.01z M48.128,82.788l-2.028-3.58l2.028-3.58
				c0.101-0.181,0.152-0.387,0.152-0.627s-0.052-0.434-0.152-0.583c-0.22-0.417-0.447-0.417-0.685,0l-2.026,3.58l-2.028-3.58
				c-0.084-0.178-0.205-0.269-0.354-0.269c-0.137,0-0.246,0.09-0.331,0.269c-0.084,0.148-0.126,0.344-0.126,0.583
				c0,0.237,0.042,0.446,0.126,0.627l2.027,3.58l-2.027,3.58c-0.084,0.149-0.126,0.359-0.126,0.627c0,0.239,0.042,0.431,0.126,0.582
				c0.085,0.148,0.194,0.225,0.331,0.225c0.151,0,0.271-0.077,0.354-0.225l2.028-3.58l2.026,3.58c0.237,0.386,0.465,0.386,0.685,0
				c0.101-0.179,0.152-0.388,0.152-0.627S48.229,82.939,48.128,82.788z M48.281,103.198c0-0.271-0.052-0.478-0.152-0.628
				l-2.028-3.58l2.028-3.58c0.101-0.178,0.152-0.388,0.152-0.626c0-0.238-0.052-0.432-0.152-0.581c-0.22-0.417-0.447-0.417-0.685,0
				l-2.026,3.579l-2.028-3.579c-0.084-0.179-0.205-0.267-0.354-0.267c-0.137,0-0.246,0.088-0.331,0.267
				c-0.084,0.149-0.126,0.344-0.126,0.581c0,0.239,0.042,0.448,0.126,0.626l2.027,3.58l-2.027,3.582
				c-0.084,0.149-0.126,0.358-0.126,0.628c0,0.239,0.042,0.432,0.126,0.58c0.085,0.149,0.194,0.223,0.331,0.223
				c0.151,0,0.271-0.074,0.354-0.223l2.028-3.58l2.026,3.58c0.237,0.39,0.465,0.39,0.685,0
				C48.229,103.629,48.281,103.435,48.281,103.198z M48.128,123.557c0.101-0.147,0.152-0.342,0.152-0.581
				c0-0.239-0.052-0.448-0.152-0.629L46.1,118.77l2.028-3.581c0.101-0.177,0.152-0.388,0.152-0.626s-0.052-0.431-0.152-0.581
				c-0.22-0.417-0.447-0.417-0.685,0l-2.026,3.581l-2.028-3.581c-0.084-0.179-0.205-0.27-0.354-0.27
				c-0.137,0-0.246,0.093-0.331,0.27c-0.084,0.149-0.126,0.342-0.126,0.581s0.042,0.447,0.126,0.626l2.027,3.581l-2.027,3.578
				c-0.084,0.181-0.126,0.39-0.126,0.629c0,0.238,0.042,0.431,0.126,0.581c0.085,0.18,0.194,0.271,0.331,0.271
				c0.151,0,0.271-0.091,0.354-0.271l2.028-3.579l2.026,3.579c0.102,0.18,0.22,0.271,0.355,0.271
				C47.933,123.828,48.044,123.737,48.128,123.557z M48.128,142.13l-2.028-3.579l2.028-3.58c0.101-0.15,0.152-0.345,0.152-0.583
				c0-0.269-0.052-0.478-0.152-0.626c-0.084-0.15-0.194-0.224-0.329-0.224c-0.137,0-0.255,0.075-0.355,0.224l-2.026,3.579
				l-2.028-3.579c-0.084-0.15-0.205-0.224-0.354-0.224c-0.137,0-0.246,0.075-0.331,0.224c-0.084,0.148-0.126,0.357-0.126,0.626
				c0,0.238,0.042,0.433,0.126,0.583l2.027,3.58l-2.027,3.579c-0.084,0.181-0.126,0.388-0.126,0.628
				c0,0.239,0.042,0.433,0.126,0.582c0.085,0.18,0.194,0.27,0.331,0.27c0.151,0,0.271-0.091,0.354-0.27l2.028-3.58l2.026,3.58
				c0.102,0.18,0.22,0.27,0.355,0.27c0.133,0,0.244-0.091,0.329-0.27c0.101-0.149,0.152-0.343,0.152-0.582
				C48.281,142.518,48.229,142.311,48.128,142.13z M47.444,153.543l-2.026,3.58l-2.027-3.58c-0.084-0.149-0.204-0.223-0.355-0.223
				c-0.135,0-0.245,0.076-0.33,0.223c-0.084,0.182-0.126,0.387-0.126,0.626c0,0.241,0.042,0.435,0.126,0.585l2.027,3.579
				l-2.027,3.579c-0.084,0.177-0.126,0.388-0.126,0.625c0,0.238,0.042,0.434,0.126,0.581c0.085,0.181,0.195,0.269,0.33,0.269
				c0.153,0,0.271-0.089,0.355-0.269l2.027-3.579l2.026,3.579c0.103,0.181,0.221,0.269,0.356,0.269c0.134,0,0.244-0.089,0.329-0.269
				c0.1-0.148,0.151-0.344,0.151-0.581s-0.052-0.448-0.151-0.625l-2.028-3.579l2.028-3.579c0.1-0.15,0.151-0.345,0.151-0.585
				c0-0.238-0.052-0.444-0.151-0.626c-0.085-0.149-0.195-0.223-0.329-0.223C47.663,153.32,47.546,153.394,47.444,153.543z
				 M48.128,173.322c-0.084-0.148-0.194-0.221-0.329-0.221c-0.137,0-0.255,0.072-0.355,0.221l-2.026,3.582l-2.028-3.582
				c-0.084-0.148-0.205-0.221-0.354-0.221c-0.137,0-0.246,0.072-0.331,0.221c-0.084,0.182-0.126,0.389-0.126,0.629
				c0,0.239,0.042,0.434,0.126,0.581l2.027,3.581l-2.027,3.626c-0.084,0.146-0.126,0.342-0.126,0.579
				c0,0.241,0.042,0.45,0.126,0.627c0.085,0.149,0.194,0.224,0.331,0.224c0.151,0,0.271-0.076,0.354-0.224l2.028-3.624l2.026,3.624
				c0.237,0.389,0.465,0.389,0.685,0c0.101-0.177,0.152-0.388,0.152-0.627c0-0.238-0.052-0.434-0.152-0.579l-2.028-3.626
				l2.028-3.581c0.101-0.148,0.152-0.342,0.152-0.581C48.281,173.71,48.229,173.503,48.128,173.322z M48.128,193.103
				c-0.084-0.147-0.194-0.222-0.329-0.222c-0.137,0-0.255,0.075-0.355,0.222l-2.026,3.624l-2.028-3.624
				c-0.084-0.147-0.205-0.222-0.354-0.222c-0.137,0-0.246,0.075-0.331,0.222c-0.084,0.181-0.126,0.388-0.126,0.629
				c0,0.237,0.042,0.432,0.126,0.579l2.027,3.627l-2.027,3.581c-0.084,0.149-0.126,0.344-0.126,0.58
				c0,0.241,0.042,0.449,0.126,0.628c0.085,0.149,0.194,0.221,0.331,0.221c0.151,0,0.271-0.073,0.354-0.221l2.028-3.582l2.026,3.582
				c0.237,0.389,0.465,0.389,0.685,0c0.101-0.179,0.152-0.387,0.152-0.628c0-0.237-0.052-0.432-0.152-0.58l-2.028-3.581l2.028-3.627
				c0.101-0.147,0.152-0.342,0.152-0.579C48.281,193.49,48.229,193.283,48.128,193.103z M47.8,212.659
				c-0.136,0-0.254,0.075-0.356,0.225l-2.026,3.622l-2.027-3.622c-0.084-0.151-0.204-0.225-0.355-0.225
				c-0.135,0-0.245,0.075-0.33,0.225c-0.084,0.178-0.126,0.389-0.126,0.623c0,0.242,0.042,0.435,0.126,0.583l2.027,3.623
				l-2.027,3.583c-0.084,0.149-0.126,0.342-0.126,0.58c0,0.239,0.042,0.447,0.126,0.626c0.085,0.15,0.195,0.224,0.33,0.224
				c0.153,0,0.271-0.075,0.355-0.224l2.027-3.579l2.026,3.579c0.237,0.391,0.465,0.391,0.686,0c0.1-0.179,0.151-0.387,0.151-0.626
				c0-0.238-0.052-0.433-0.151-0.58l-2.028-3.583l2.028-3.623c0.1-0.149,0.151-0.341,0.151-0.583c0-0.234-0.052-0.445-0.151-0.623
				C48.044,212.735,47.934,212.659,47.8,212.659z M48.281,233.29c0-0.238-0.052-0.434-0.152-0.578c-0.22-0.418-0.447-0.418-0.685,0
				l-2.026,3.578l-2.028-3.578c-0.084-0.181-0.205-0.272-0.354-0.272c-0.137,0-0.246,0.091-0.331,0.272
				c-0.084,0.147-0.126,0.34-0.126,0.578c0,0.239,0.042,0.449,0.126,0.627l2.027,3.581l-2.027,3.58
				c-0.084,0.147-0.126,0.357-0.126,0.626c0,0.238,0.042,0.434,0.126,0.582c0.085,0.148,0.194,0.221,0.331,0.221
				c0.151,0,0.271-0.074,0.354-0.221l2.028-3.58l2.026,3.58c0.237,0.388,0.465,0.388,0.685,0c0.101-0.15,0.152-0.344,0.152-0.582
				c0-0.27-0.052-0.479-0.152-0.626l-2.028-3.58l2.028-3.581C48.229,233.738,48.281,233.53,48.281,233.29z M48.281,261.482
				c0-0.268-0.052-0.476-0.152-0.623l-2.028-3.581l2.028-3.58c0.101-0.181,0.152-0.389,0.152-0.626c0-0.24-0.052-0.437-0.152-0.582
				c-0.22-0.417-0.447-0.417-0.685,0l-2.026,3.579l-2.028-3.579c-0.084-0.18-0.205-0.27-0.354-0.27c-0.137,0-0.246,0.089-0.331,0.27
				c-0.084,0.146-0.126,0.342-0.126,0.582c0,0.237,0.042,0.445,0.126,0.626l2.027,3.58l-2.027,3.581
				c-0.084,0.147-0.126,0.356-0.126,0.623c0,0.24,0.042,0.437,0.126,0.584c0.085,0.149,0.194,0.224,0.331,0.224
				c0.151,0,0.271-0.075,0.354-0.224l2.028-3.582l2.026,3.582c0.237,0.388,0.465,0.388,0.685,0
				C48.229,261.919,48.281,261.722,48.281,261.482z M47.8,282.115c0.134,0,0.244-0.091,0.329-0.271
				c0.1-0.151,0.151-0.344,0.151-0.581c0-0.238-0.052-0.449-0.151-0.627l-2.028-3.581l2.028-3.579
				c0.1-0.179,0.151-0.388,0.151-0.626s-0.052-0.435-0.151-0.584c-0.221-0.416-0.448-0.416-0.686,0l-2.026,3.581l-2.027-3.581
				c-0.084-0.177-0.204-0.269-0.355-0.269c-0.135,0-0.245,0.091-0.33,0.269c-0.084,0.152-0.126,0.346-0.126,0.584
				s0.042,0.447,0.126,0.626l2.027,3.579l-2.027,3.581c-0.084,0.178-0.126,0.389-0.126,0.627c0,0.237,0.042,0.433,0.126,0.581
				c0.085,0.177,0.195,0.271,0.33,0.271c0.153,0,0.271-0.091,0.355-0.271l2.027-3.582l2.026,3.582
				C47.546,282.026,47.663,282.115,47.8,282.115z M47.8,301.896c0.134,0,0.244-0.09,0.329-0.27c0.1-0.15,0.151-0.343,0.151-0.582
				s-0.052-0.448-0.151-0.627l-2.028-3.58l2.028-3.581c0.1-0.147,0.151-0.343,0.151-0.58c0-0.27-0.052-0.477-0.151-0.628
				c-0.085-0.148-0.195-0.221-0.329-0.221c-0.137,0-0.254,0.073-0.356,0.221l-2.026,3.582l-2.027-3.582
				c-0.084-0.148-0.204-0.221-0.355-0.221c-0.135,0-0.245,0.073-0.33,0.221c-0.084,0.151-0.126,0.359-0.126,0.628
				c0,0.237,0.042,0.434,0.126,0.58l2.027,3.581l-2.027,3.58c-0.084,0.179-0.126,0.388-0.126,0.627s0.042,0.434,0.126,0.582
				c0.085,0.179,0.195,0.27,0.33,0.27c0.153,0,0.271-0.09,0.355-0.27l2.027-3.579l2.026,3.579
				C47.546,301.806,47.663,301.896,47.8,301.896z M48.128,320.198l-2.028-3.581l2.028-3.58c0.101-0.148,0.152-0.341,0.152-0.58
				c0-0.238-0.052-0.448-0.152-0.626c-0.084-0.15-0.194-0.224-0.329-0.224c-0.137,0-0.255,0.075-0.355,0.224l-2.026,3.58
				l-2.028-3.58c-0.084-0.15-0.205-0.224-0.354-0.224c-0.137,0-0.246,0.075-0.331,0.224c-0.084,0.178-0.126,0.388-0.126,0.626
				c0,0.239,0.042,0.433,0.126,0.58l2.027,3.58l-2.027,3.581c-0.084,0.18-0.126,0.391-0.126,0.628c0,0.238,0.042,0.432,0.126,0.58
				c0.085,0.18,0.194,0.269,0.331,0.269c0.151,0,0.271-0.089,0.354-0.269l2.028-3.579l2.026,3.579
				c0.102,0.18,0.22,0.269,0.355,0.269c0.133,0,0.244-0.089,0.329-0.269c0.101-0.15,0.152-0.342,0.152-0.58
				C48.281,320.589,48.229,320.378,48.128,320.198z M47.444,331.612l-2.026,3.579l-2.027-3.579
				c-0.084-0.151-0.204-0.225-0.355-0.225c-0.135,0-0.245,0.076-0.33,0.225c-0.084,0.179-0.126,0.387-0.126,0.627
				c0,0.238,0.042,0.431,0.126,0.578l2.027,3.583l-2.027,3.624c-0.084,0.147-0.126,0.34-0.126,0.58c0,0.239,0.042,0.447,0.126,0.627
				c0.085,0.149,0.195,0.223,0.33,0.223c0.153,0,0.271-0.075,0.355-0.223l2.027-3.624l2.026,3.624c0.237,0.39,0.465,0.39,0.686,0
				c0.1-0.18,0.151-0.388,0.151-0.627c0-0.24-0.052-0.434-0.151-0.58l-2.028-3.624l2.028-3.583c0.1-0.148,0.151-0.34,0.151-0.578
				c0-0.24-0.052-0.448-0.151-0.627c-0.085-0.151-0.195-0.225-0.329-0.225C47.663,331.387,47.546,331.46,47.444,331.612z"/>
			<path fill="#A7AFB8" d="M259.038,249.018c0-0.185-0.124-0.338-0.37-0.461c-0.248-0.144-0.549-0.216-0.906-0.216h-26.29
				c-0.357,0-0.646,0.072-0.866,0.216c-0.246,0.123-0.371,0.276-0.371,0.461c0,0.205,0.125,0.368,0.371,0.49
				c0.222,0.145,0.509,0.218,0.866,0.218h26.29c0.357,0,0.659-0.073,0.906-0.218C258.916,249.386,259.038,249.223,259.038,249.018z
				 M93.932,249.018c0-0.185-0.123-0.338-0.37-0.461c-0.221-0.144-0.508-0.216-0.865-0.216H66.407c-0.355,0-0.66,0.072-0.906,0.216
				c-0.248,0.123-0.372,0.276-0.372,0.461c0,0.205,0.124,0.368,0.372,0.49c0.246,0.145,0.55,0.218,0.906,0.218h26.29
				c0.356,0,0.646-0.073,0.865-0.218C93.809,249.386,93.932,249.223,93.932,249.018z M135.219,249.018
				c0-0.185-0.123-0.338-0.369-0.461c-0.249-0.144-0.55-0.216-0.907-0.216h-26.289c-0.356,0-0.659,0.072-0.906,0.216
				c-0.246,0.123-0.369,0.276-0.369,0.461c0,0.205,0.123,0.368,0.369,0.49c0.247,0.145,0.55,0.218,0.906,0.218h26.289
				c0.357,0,0.658-0.073,0.907-0.218C135.096,249.386,135.219,249.223,135.219,249.018z M190.227,248.341
				c-0.355,0-0.658,0.072-0.906,0.216c-0.245,0.123-0.37,0.276-0.37,0.461c0,0.205,0.125,0.368,0.37,0.49
				c0.248,0.145,0.551,0.218,0.906,0.218h26.289c0.357,0,0.66-0.073,0.907-0.218c0.248-0.122,0.37-0.286,0.37-0.49
				c0-0.185-0.123-0.338-0.37-0.461c-0.249-0.144-0.55-0.216-0.907-0.216H190.227z M176.506,249.018c0-0.185-0.124-0.338-0.37-0.461
				c-0.249-0.144-0.551-0.216-0.907-0.216h-26.287c-0.358,0-0.661,0.072-0.908,0.216c-0.246,0.123-0.37,0.276-0.37,0.461
				c0,0.205,0.124,0.368,0.37,0.49c0.249,0.145,0.55,0.218,0.908,0.218h26.287c0.356,0,0.658-0.073,0.907-0.218
				C176.383,249.386,176.506,249.223,176.506,249.018z M46.506,248.68c0-0.513,0.329-0.955,0.988-1.324
				c0.659-0.368,1.47-0.555,2.433-0.555h213.768c0.961,0,1.773,0.187,2.433,0.555c0.66,0.37,0.99,0.813,0.99,1.324v0.706
				c0,0.514-0.33,0.954-0.99,1.323c-0.659,0.369-1.47,0.554-2.433,0.554H49.927c-0.963,0-1.773-0.185-2.433-0.554
				c-0.66-0.369-0.988-0.811-0.988-1.323V248.68z"/>
			<path fill="#A7AFB8" d="M230.608,309.841c0.248,0.144,0.537,0.216,0.866,0.216h26.29c0.357,0,0.659-0.072,0.906-0.216
				c0.248-0.145,0.37-0.31,0.37-0.492c0-0.205-0.124-0.368-0.37-0.491c-0.248-0.146-0.549-0.217-0.906-0.217h-26.29
				c-0.356,0-0.646,0.071-0.866,0.217c-0.246,0.123-0.371,0.286-0.371,0.491C230.237,309.531,230.362,309.697,230.608,309.841z
				 M190.227,308.639c-0.355,0-0.658,0.072-0.906,0.218c-0.245,0.122-0.37,0.285-0.37,0.49c0,0.185,0.125,0.35,0.37,0.492
				c0.248,0.144,0.551,0.216,0.906,0.216h26.289c0.357,0,0.66-0.072,0.907-0.216c0.248-0.145,0.37-0.309,0.37-0.492
				c0-0.205-0.123-0.368-0.37-0.49c-0.249-0.146-0.55-0.218-0.907-0.218H190.227z M148.942,308.639
				c-0.358,0-0.661,0.072-0.908,0.218c-0.246,0.122-0.37,0.285-0.37,0.49c0,0.185,0.124,0.35,0.37,0.492
				c0.249,0.144,0.55,0.216,0.908,0.216h26.287c0.356,0,0.658-0.072,0.907-0.216c0.246-0.145,0.37-0.309,0.37-0.492
				c0-0.205-0.124-0.368-0.37-0.49c-0.249-0.146-0.551-0.218-0.907-0.218H148.942z M107.654,308.639
				c-0.356,0-0.659,0.072-0.906,0.218c-0.246,0.122-0.369,0.285-0.369,0.49c0,0.185,0.123,0.35,0.369,0.492
				c0.247,0.144,0.55,0.216,0.906,0.216h26.289c0.357,0,0.658-0.072,0.907-0.216c0.247-0.145,0.369-0.309,0.369-0.492
				c0-0.205-0.123-0.368-0.369-0.49c-0.249-0.146-0.55-0.218-0.907-0.218H107.654z M66.407,308.639c-0.355,0-0.66,0.072-0.906,0.218
				c-0.248,0.122-0.372,0.285-0.372,0.49c0,0.185,0.124,0.35,0.372,0.492c0.246,0.144,0.55,0.216,0.906,0.216h26.29
				c0.356,0,0.646-0.072,0.865-0.216c0.246-0.145,0.369-0.309,0.369-0.492c0-0.205-0.123-0.368-0.369-0.49
				c-0.221-0.146-0.509-0.218-0.865-0.218H66.407z M49.927,311.592c-0.936,0-1.745-0.185-2.433-0.554
				c-0.66-0.369-0.988-0.811-0.988-1.323v-0.736c0-0.515,0.329-0.955,0.988-1.323c0.688-0.369,1.497-0.554,2.433-0.554h213.768
				c0.934,0,1.744,0.185,2.433,0.554c0.66,0.368,0.99,0.81,0.99,1.323v0.736c0,0.514-0.33,0.954-0.99,1.323
				c-0.688,0.369-1.497,0.554-2.433,0.554H49.927z"/>
			<path fill="#A7AFB8" d="M367.768,66.956c-0.357,0-0.662,0.071-0.911,0.216c-0.248,0.122-0.372,0.286-0.372,0.491
				c0,0.186,0.124,0.35,0.372,0.492c0.249,0.122,0.554,0.185,0.911,0.185h26.456c0.358,0,0.663-0.063,0.91-0.185
				c0.251-0.143,0.375-0.308,0.375-0.492c0-0.205-0.124-0.369-0.375-0.491c-0.247-0.145-0.552-0.216-0.91-0.216H367.768z
				 M326.222,66.956c-0.36,0-0.664,0.071-0.913,0.216c-0.248,0.122-0.374,0.286-0.374,0.491c0,0.186,0.126,0.35,0.374,0.492
				c0.25,0.122,0.553,0.185,0.913,0.185h26.453c0.36,0,0.666-0.063,0.913-0.185c0.25-0.143,0.373-0.308,0.373-0.492
				c0-0.205-0.124-0.369-0.373-0.491c-0.247-0.145-0.553-0.216-0.913-0.216H326.222z M284.716,66.956
				c-0.361,0-0.664,0.071-0.911,0.216c-0.251,0.122-0.375,0.286-0.375,0.491c0,0.186,0.124,0.35,0.375,0.492
				c0.248,0.122,0.55,0.185,0.911,0.185h26.454c0.358,0,0.648-0.063,0.87-0.185c0.25-0.143,0.373-0.308,0.373-0.492
				c0-0.205-0.124-0.369-0.373-0.491c-0.222-0.145-0.512-0.216-0.87-0.216H284.716z M449.953,68.156
				c0.222,0.124,0.513,0.185,0.869,0.185h26.455c0.361,0,0.664-0.062,0.914-0.185c0.245-0.143,0.373-0.307,0.373-0.491
				c0-0.205-0.128-0.369-0.373-0.491c-0.25-0.145-0.553-0.216-0.914-0.216h-26.455c-0.358,0-0.647,0.071-0.869,0.216
				c-0.25,0.122-0.374,0.286-0.374,0.491C449.579,67.849,449.703,68.013,449.953,68.156z M437.056,67.663
				c0-0.205-0.123-0.369-0.373-0.491c-0.248-0.145-0.55-0.216-0.912-0.216h-26.454c-0.359,0-0.665,0.071-0.913,0.216
				c-0.247,0.122-0.372,0.286-0.372,0.491c0,0.186,0.127,0.35,0.372,0.492c0.251,0.122,0.554,0.185,0.913,0.185h26.454
				c0.362,0,0.664-0.063,0.912-0.185C436.933,68.013,437.056,67.849,437.056,67.663z M268.129,69.878
				c-0.968,0-1.784-0.186-2.446-0.553c-0.663-0.37-0.994-0.811-0.994-1.323v-0.708c0-0.513,0.333-0.954,0.994-1.322
				c0.662-0.37,1.479-0.553,2.446-0.553h215.123c0.965,0,1.78,0.184,2.445,0.553c0.662,0.368,0.992,0.809,0.992,1.322v0.708
				c0,0.513-0.33,0.953-0.992,1.323c-0.667,0.367-1.48,0.553-2.445,0.553H268.129z"/>
			<path fill="#A7AFB8" d="M478.565,128.119c0-0.187-0.128-0.34-0.373-0.461c-0.25-0.145-0.553-0.216-0.914-0.216h-26.455
				c-0.358,0-0.647,0.072-0.869,0.216c-0.25,0.122-0.374,0.276-0.374,0.461c0,0.205,0.127,0.367,0.374,0.49
				c0.222,0.146,0.513,0.218,0.869,0.218h26.455c0.361,0,0.664-0.072,0.914-0.218C478.437,128.487,478.565,128.323,478.565,128.119z
				 M312.413,128.119c0-0.187-0.124-0.34-0.373-0.461c-0.222-0.145-0.512-0.216-0.87-0.216h-26.454
				c-0.361,0-0.664,0.072-0.911,0.216c-0.251,0.122-0.375,0.276-0.375,0.461c0,0.205,0.124,0.367,0.375,0.49
				c0.248,0.146,0.55,0.218,0.911,0.218h26.454c0.358,0,0.648-0.072,0.87-0.218C312.289,128.487,312.413,128.323,312.413,128.119z
				 M353.962,128.119c0-0.187-0.124-0.34-0.373-0.461c-0.247-0.145-0.553-0.216-0.913-0.216h-26.453
				c-0.36,0-0.664,0.072-0.913,0.216c-0.248,0.122-0.374,0.276-0.374,0.461c0,0.205,0.126,0.367,0.374,0.49
				c0.25,0.146,0.553,0.218,0.913,0.218h26.453c0.36,0,0.666-0.072,0.913-0.218C353.838,128.487,353.962,128.323,353.962,128.119z
				 M409.317,127.442c-0.359,0-0.665,0.072-0.913,0.215c-0.248,0.123-0.373,0.277-0.373,0.462c0,0.204,0.128,0.367,0.373,0.49
				c0.251,0.146,0.554,0.218,0.913,0.218h26.454c0.362,0,0.664-0.072,0.912-0.218c0.25-0.123,0.373-0.286,0.373-0.49
				c0-0.187-0.123-0.34-0.373-0.462c-0.248-0.144-0.55-0.215-0.912-0.215H409.317z M395.51,128.119c0-0.187-0.124-0.34-0.375-0.461
				c-0.247-0.145-0.55-0.216-0.91-0.216h-26.456c-0.357,0-0.662,0.072-0.91,0.216c-0.249,0.122-0.373,0.276-0.373,0.461
				c0,0.205,0.124,0.367,0.373,0.49c0.248,0.146,0.553,0.218,0.91,0.218h26.456c0.36,0,0.665-0.072,0.91-0.218
				C395.385,128.487,395.51,128.323,395.51,128.119z M264.688,127.78c0-0.512,0.333-0.952,0.994-1.321
				c0.662-0.369,1.479-0.555,2.446-0.555h215.123c0.965,0,1.78,0.187,2.445,0.555c0.662,0.369,0.992,0.81,0.992,1.321v0.707
				c0,0.514-0.33,0.954-0.992,1.323c-0.667,0.369-1.48,0.553-2.445,0.553H268.129c-0.968,0-1.784-0.184-2.446-0.553
				c-0.663-0.37-0.994-0.81-0.994-1.323L264.688,127.78L264.688,127.78z"/>
			<path fill="#A7AFB8" d="M449.953,189.129c0.248,0.144,0.539,0.216,0.869,0.216h26.455c0.361,0,0.664-0.072,0.914-0.216
				c0.245-0.146,0.373-0.309,0.373-0.492c0-0.204-0.128-0.368-0.373-0.49c-0.25-0.145-0.553-0.218-0.914-0.218h-26.455
				c-0.358,0-0.647,0.073-0.869,0.218c-0.25,0.122-0.374,0.285-0.374,0.49C449.579,188.821,449.703,188.985,449.953,189.129z
				 M409.317,187.929c-0.359,0-0.665,0.073-0.913,0.218c-0.248,0.122-0.373,0.285-0.373,0.49c0,0.185,0.128,0.35,0.373,0.492
				c0.251,0.144,0.554,0.216,0.913,0.216h26.454c0.362,0,0.664-0.072,0.912-0.216c0.25-0.146,0.373-0.309,0.373-0.492
				c0-0.204-0.123-0.368-0.373-0.49c-0.248-0.145-0.55-0.218-0.912-0.218H409.317z M367.768,187.929
				c-0.357,0-0.662,0.073-0.911,0.218c-0.248,0.122-0.372,0.285-0.372,0.49c0,0.185,0.124,0.35,0.372,0.492
				c0.249,0.144,0.554,0.216,0.911,0.216h26.456c0.358,0,0.663-0.072,0.91-0.216c0.251-0.146,0.375-0.309,0.375-0.492
				c0-0.204-0.124-0.368-0.375-0.49c-0.247-0.145-0.552-0.218-0.91-0.218H367.768z M326.222,187.929
				c-0.36,0-0.664,0.073-0.913,0.218c-0.248,0.122-0.374,0.285-0.374,0.49c0,0.185,0.126,0.35,0.374,0.492
				c0.25,0.144,0.553,0.216,0.913,0.216h26.453c0.36,0,0.666-0.072,0.913-0.216c0.25-0.146,0.373-0.309,0.373-0.492
				c0-0.204-0.124-0.368-0.373-0.49c-0.247-0.145-0.553-0.218-0.913-0.218H326.222z M284.716,187.929
				c-0.361,0-0.664,0.073-0.911,0.218c-0.251,0.122-0.375,0.285-0.375,0.49c0,0.185,0.124,0.35,0.375,0.492
				c0.248,0.144,0.55,0.216,0.911,0.216h26.454c0.358,0,0.648-0.072,0.87-0.216c0.25-0.146,0.373-0.309,0.373-0.492
				c0-0.204-0.124-0.368-0.373-0.49c-0.222-0.145-0.512-0.218-0.87-0.218H284.716z M268.129,190.883
				c-0.939,0-1.756-0.187-2.446-0.554c-0.663-0.369-0.994-0.813-0.994-1.324v-0.737c0-0.514,0.333-0.955,0.994-1.322
				c0.691-0.368,1.507-0.555,2.446-0.555h215.123c0.938,0,1.752,0.187,2.445,0.555c0.662,0.369,0.992,0.81,0.992,1.322v0.737
				c0,0.513-0.33,0.955-0.992,1.324c-0.695,0.367-1.509,0.554-2.445,0.554H268.129z"/>
			<path fill="#A7AFB8" d="M479.122,249.018c0-0.185-0.118-0.338-0.371-0.461c-0.25-0.144-0.551-0.216-0.912-0.216h-26.453
				c-0.359,0-0.649,0.072-0.872,0.216c-0.248,0.123-0.373,0.276-0.373,0.461c0,0.205,0.128,0.368,0.373,0.49
				c0.223,0.145,0.513,0.218,0.872,0.218h26.453c0.361,0,0.662-0.073,0.912-0.218C479.004,249.386,479.122,249.223,479.122,249.018z
				 M312.975,249.018c0-0.185-0.124-0.338-0.374-0.461c-0.221-0.144-0.51-0.216-0.87-0.216h-26.455
				c-0.359,0-0.666,0.072-0.913,0.216c-0.248,0.123-0.372,0.276-0.372,0.461c0,0.205,0.125,0.368,0.372,0.49
				c0.248,0.145,0.554,0.218,0.913,0.218h26.455c0.359,0,0.649-0.073,0.87-0.218C312.852,249.386,312.975,249.223,312.975,249.018z
				 M354.524,249.018c0-0.185-0.124-0.338-0.373-0.461c-0.251-0.144-0.554-0.216-0.913-0.216h-26.453
				c-0.359,0-0.664,0.072-0.912,0.216c-0.25,0.123-0.372,0.276-0.372,0.461c0,0.205,0.124,0.368,0.372,0.49
				c0.249,0.145,0.553,0.218,0.912,0.218h26.453c0.359,0,0.662-0.073,0.913-0.218C354.4,249.386,354.524,249.223,354.524,249.018z
				 M396.074,249.018c0-0.185-0.13-0.338-0.374-0.461c-0.251-0.144-0.556-0.216-0.915-0.216h-26.453
				c-0.358,0-0.663,0.072-0.914,0.216c-0.246,0.123-0.371,0.276-0.371,0.461c0,0.205,0.126,0.368,0.371,0.49
				c0.252,0.145,0.556,0.218,0.914,0.218h26.453c0.359,0,0.664-0.073,0.915-0.218C395.945,249.386,396.074,249.223,396.074,249.018z
				 M409.881,248.341c-0.361,0-0.664,0.072-0.914,0.216c-0.249,0.123-0.372,0.276-0.372,0.461c0,0.205,0.125,0.368,0.372,0.49
				c0.25,0.145,0.553,0.218,0.914,0.218h26.452c0.36,0,0.668-0.073,0.912-0.218c0.25-0.122,0.373-0.286,0.373-0.49
				c0-0.185-0.125-0.338-0.373-0.461c-0.248-0.144-0.552-0.216-0.912-0.216H409.881z M265.25,248.68
				c0-0.513,0.333-0.955,0.996-1.324c0.662-0.368,1.478-0.555,2.444-0.555h215.122c0.969,0,1.782,0.187,2.444,0.555
				c0.663,0.37,0.994,0.813,0.994,1.324v0.706c0,0.514-0.331,0.954-0.994,1.323c-0.662,0.369-1.477,0.554-2.444,0.554H268.691
				c-0.967,0-1.783-0.185-2.444-0.554c-0.666-0.369-0.996-0.811-0.996-1.323V248.68L265.25,248.68z"/>
			<path fill="#A7AFB8" d="M450.513,309.841c0.251,0.144,0.542,0.216,0.872,0.216h26.453c0.361,0,0.661-0.072,0.911-0.216
				c0.254-0.145,0.372-0.31,0.372-0.492c0-0.205-0.118-0.368-0.372-0.491c-0.25-0.146-0.55-0.217-0.911-0.217h-26.453
				c-0.359,0-0.649,0.071-0.872,0.217c-0.248,0.123-0.373,0.286-0.373,0.491C450.14,309.531,450.265,309.697,450.513,309.841z
				 M409.881,308.639c-0.361,0-0.664,0.072-0.914,0.218c-0.249,0.122-0.372,0.285-0.372,0.49c0,0.185,0.125,0.35,0.372,0.492
				c0.25,0.144,0.553,0.216,0.914,0.216h26.452c0.36,0,0.668-0.072,0.912-0.216c0.25-0.145,0.373-0.309,0.373-0.492
				c0-0.205-0.125-0.368-0.373-0.49c-0.248-0.146-0.552-0.218-0.912-0.218H409.881z M368.331,308.639
				c-0.358,0-0.664,0.072-0.913,0.218c-0.247,0.122-0.371,0.285-0.371,0.49c0,0.185,0.125,0.35,0.371,0.492
				c0.251,0.144,0.555,0.216,0.913,0.216h26.454c0.357,0,0.664-0.072,0.911-0.216c0.248-0.145,0.378-0.309,0.378-0.492
				c0-0.205-0.13-0.368-0.378-0.49c-0.247-0.146-0.554-0.218-0.911-0.218H368.331z M326.784,308.639
				c-0.359,0-0.664,0.072-0.912,0.218c-0.25,0.122-0.372,0.285-0.372,0.49c0,0.185,0.124,0.35,0.372,0.492
				c0.249,0.144,0.553,0.216,0.912,0.216h26.453c0.359,0,0.662-0.072,0.913-0.216c0.249-0.145,0.373-0.309,0.373-0.492
				c0-0.205-0.124-0.368-0.373-0.49c-0.251-0.146-0.554-0.218-0.913-0.218H326.784z M285.278,308.639
				c-0.358,0-0.664,0.072-0.912,0.218c-0.249,0.122-0.373,0.285-0.373,0.49c0,0.185,0.124,0.35,0.373,0.492
				c0.248,0.144,0.554,0.216,0.912,0.216h26.455c0.359,0,0.65-0.072,0.87-0.216c0.251-0.145,0.375-0.309,0.375-0.492
				c0-0.205-0.124-0.368-0.375-0.49c-0.22-0.146-0.511-0.218-0.87-0.218H285.278z M268.691,311.592
				c-0.939,0-1.755-0.185-2.444-0.554c-0.666-0.369-0.996-0.811-0.996-1.323v-0.736c0-0.515,0.333-0.955,0.996-1.323
				c0.688-0.369,1.505-0.554,2.444-0.554h215.122c0.941,0,1.752,0.185,2.444,0.554c0.665,0.368,0.994,0.81,0.994,1.323v0.736
				c0,0.514-0.331,0.954-0.994,1.323c-0.692,0.369-1.503,0.554-2.444,0.554H268.691z"/>
		</g>
	</g>
</g>
<g>
	<g>
		<polygon fill="#CF4F27" points="40.314,326.037 50.487,318.743 64.09,355.732 51.537,356.707 		"/>
		<g>
			<path fill="none" stroke="#E27049" stroke-width="1.35" stroke-linecap="round" d="M40.802,327.738l9.025-6.779 M41.605,330.063
				l9.387-6.095 M42.528,332.549l9.467-5.573 M43.409,335.037l9.746-5.014 M44.333,337.524l9.946-4.573 M45.175,340.01l10.188-4.011
				 M48.825,349.838l10.87-1.846 M50.629,354.811l11.313-0.845 M49.707,352.203l11.11-1.201 M47.983,347.39l10.668-2.364
				 M46.98,344.985l10.55-3.049 M46.097,342.497l10.35-3.568"/>
		</g>
	</g>
	
		<line fill="none" stroke="#6D3E3E" stroke-width="2" stroke-linecap="round" stroke-linejoin="round" stroke-miterlimit="3" x1="51.33" y1="355.697" x2="32.554" y2="302.674"/>
</g>
<g>
	<path fill="#CF4F27" d="M28.58,312.524c0.339,0.043,0.613,0.199,0.82,0.466c0.236,0.306,0.334,0.628,0.29,0.968l-4.072,32.14
		c-0.043,0.338-0.218,0.625-0.523,0.862c-0.267,0.207-0.57,0.288-0.91,0.247l-2.796-0.354c-0.339-0.042-0.611-0.197-0.818-0.465
		c-0.203-0.302-0.284-0.622-0.24-0.963l4.072-32.139c0.043-0.338,0.2-0.628,0.472-0.869c0.268-0.208,0.57-0.29,0.91-0.246
		L28.58,312.524z"/>
	<path fill="#E0643A" d="M16.413,327l17.542,2.222c1.66,0.212,3.009,0.984,4.044,2.321c1.037,1.337,1.447,2.853,1.23,4.548
		l-2.436,19.223L7.15,351.557l2.437-19.224c0.214-1.694,0.99-3.06,2.327-4.097C13.252,327.202,14.752,326.787,16.413,327z"/>
	<path fill="#CF4F27" d="M15.748,332.237l17.542,2.224c1.662,0.211,3.009,0.983,4.045,2.32s1.446,2.853,1.232,4.55l-1.772,13.982
		l-29.644-3.757l1.771-13.984c0.215-1.694,0.992-3.061,2.327-4.097C12.588,332.44,14.088,332.028,15.748,332.237z"/>
	<line fill="none" stroke="#E0643A" stroke-width="1.7" stroke-linecap="round" x1="9.935" y1="348.758" x2="34.85" y2="351.915"/>
	<path fill="#040406" d="M25.722,315.107c0.038-0.307,0.188-0.544,0.452-0.719c0.229-0.179,0.497-0.248,0.802-0.207
		c0.271,0.032,0.513,0.167,0.725,0.398c0.178,0.23,0.247,0.498,0.208,0.802c-0.038,0.308-0.175,0.565-0.408,0.775
		c-0.263,0.173-0.53,0.243-0.801,0.209c-0.306-0.039-0.547-0.173-0.726-0.401C25.766,315.698,25.682,315.412,25.722,315.107z"/>
</g>
<path fill="#E6E7E8" stroke="#E6E7E8" stroke-miterlimit="10" d="M86.16,43.018c0,4.766-3.863,8.629-8.629,8.629H66.026
	c-4.767,0-8.628-3.863-8.628-8.629V31.513c0-4.766,3.862-8.629,8.628-8.629h11.505c4.766,0,8.629,3.863,8.629,8.629V43.018z"/>
<path fill="#E6E7E8" stroke="#E6E7E8" stroke-miterlimit="10" d="M86.215,104.333c0,4.765-3.863,8.628-8.629,8.628H66.081
	c-4.767,0-8.628-3.863-8.628-8.628V92.828c0-4.767,3.862-8.63,8.628-8.63h11.505c4.766,0,8.629,3.863,8.629,8.63V104.333z"/>
<path fill="#E6E7E8" stroke="#E6E7E8" stroke-miterlimit="10" d="M86.28,164.185c0,4.767-3.863,8.629-8.629,8.629H66.146
	c-4.767,0-8.628-3.862-8.628-8.629V152.68c0-4.766,3.862-8.629,8.628-8.629h11.505c4.766,0,8.629,3.863,8.629,8.629V164.185z"/>
<path fill="#E6E7E8" stroke="#E6E7E8" stroke-miterlimit="10" d="M86.28,224.455c0,4.766-3.863,8.628-8.629,8.628H66.146
	c-4.767,0-8.628-3.862-8.628-8.628v-11.506c0-4.766,3.862-8.628,8.628-8.628h11.505c4.766,0,8.629,3.862,8.629,8.628V224.455z"/>
<path fill="#E6E7E8" stroke="#E6E7E8" stroke-miterlimit="10" d="M86.16,285.202c0,4.765-3.863,8.628-8.629,8.628H66.026
	c-4.767,0-8.628-3.863-8.628-8.628v-11.505c0-4.767,3.862-8.63,8.628-8.63h11.505c4.766,0,8.629,3.863,8.629,8.63V285.202z"/>
<g>
	<rect x="65.846" y="28.426" fill="none" width="17.617" height="17.257"/>
	<path fill="#F05A28" d="M67.448,43.309v-2.286h3.507v-8.848l-3.054,1.686l-0.844-2.096l4.371-2.307h2.159v11.564h3.023v2.286
		H67.448z"/>
</g>
<g>
	<rect x="65.902" y="89.951" fill="none" width="17.617" height="17.257"/>
	<path fill="#F05A28" d="M67.26,104.835v-1.896l3.255-3.255c0.611-0.611,1.102-1.138,1.469-1.58
		c0.368-0.441,0.653-0.837,0.854-1.185c0.2-0.349,0.332-0.669,0.395-0.964c0.063-0.295,0.096-0.602,0.096-0.917
		c0-0.261-0.042-0.508-0.126-0.743s-0.207-0.438-0.369-0.611c-0.162-0.172-0.365-0.309-0.611-0.411
		c-0.246-0.102-0.526-0.152-0.843-0.152c-0.541,0-1.042,0.117-1.506,0.353s-0.902,0.549-1.317,0.942l-1.359-1.749
		c0.598-0.556,1.271-0.999,2.018-1.333c0.748-0.333,1.557-0.5,2.428-0.5c0.674,0,1.285,0.086,1.833,0.258s1.018,0.427,1.406,0.764
		c0.39,0.337,0.691,0.758,0.906,1.265c0.214,0.505,0.32,1.088,0.32,1.749c0,0.548-0.073,1.059-0.221,1.532
		c-0.147,0.475-0.362,0.937-0.643,1.386c-0.281,0.449-0.626,0.898-1.037,1.349c-0.411,0.449-0.88,0.923-1.406,1.422l-2.001,1.906
		h5.804v2.37H67.26V104.835z"/>
</g>
<g>
	<rect x="66.685" y="149.803" fill="none" width="17.616" height="17.257"/>
	<path fill="#F05A28" d="M77.428,160.486c0,0.681-0.126,1.294-0.379,1.838s-0.641,1.008-1.164,1.391
		c-0.522,0.383-1.182,0.676-1.975,0.879s-1.727,0.305-2.802,0.305c-0.239,0-0.49-0.005-0.753-0.016
		c-0.264-0.01-0.525-0.024-0.785-0.042s-0.514-0.039-0.758-0.063c-0.246-0.024-0.468-0.055-0.664-0.09v-2.232
		c0.441,0.084,0.938,0.152,1.489,0.205c0.552,0.053,1.125,0.079,1.723,0.079c0.583,0,1.085-0.05,1.506-0.147s0.769-0.24,1.042-0.427
		s0.476-0.416,0.605-0.689c0.131-0.273,0.195-0.583,0.195-0.927c0-0.302-0.066-0.576-0.2-0.821c-0.133-0.246-0.337-0.455-0.61-0.627
		c-0.274-0.172-0.624-0.306-1.048-0.399c-0.425-0.095-0.93-0.143-1.512-0.143h-1.526V156.6h1.4c0.548,0,1.002-0.055,1.364-0.164
		c0.361-0.108,0.649-0.254,0.863-0.437c0.214-0.184,0.366-0.398,0.458-0.648c0.091-0.249,0.137-0.511,0.137-0.785
		c0-0.562-0.183-0.987-0.547-1.279c-0.365-0.291-0.932-0.438-1.696-0.438c-0.547,0-1.088,0.054-1.622,0.158
		c-0.534,0.105-1.085,0.246-1.652,0.421v-2.159c0.315-0.104,0.617-0.192,0.905-0.263s0.576-0.13,0.864-0.179
		s0.579-0.084,0.874-0.105c0.295-0.021,0.601-0.031,0.917-0.031c0.758,0,1.423,0.081,1.996,0.242
		c0.572,0.162,1.053,0.393,1.443,0.69c0.39,0.298,0.683,0.662,0.879,1.09s0.295,0.906,0.295,1.432c0,0.836-0.191,1.513-0.574,2.028
		s-0.918,0.911-1.606,1.186c0.442,0.069,0.844,0.19,1.201,0.362c0.358,0.172,0.666,0.395,0.922,0.664
		c0.256,0.271,0.453,0.581,0.59,0.933C77.36,159.667,77.428,160.057,77.428,160.486z"/>
</g>
<g>
	<rect x="65.967" y="210.791" fill="none" width="17.617" height="17.26"/>
	<path fill="#F05A28" d="M75.288,222.874v2.803h-2.507v-2.803h-6.404v-2.201l5.372-8.764h3.539v8.7h2.086v2.265H75.288z
		 M72.813,214.395l-3.918,6.215h3.918V214.395z"/>
</g>
<g>
	<rect x="66.565" y="271.539" fill="none" width="17.616" height="17.258"/>
	<path fill="#F05A28" d="M77.162,282.021c0,0.736-0.154,1.393-0.463,1.965c-0.31,0.572-0.737,1.055-1.285,1.448
		s-1.194,0.69-1.938,0.896c-0.744,0.203-1.553,0.306-2.423,0.306c-0.218,0-0.449-0.008-0.694-0.021
		c-0.246-0.014-0.495-0.031-0.748-0.053c-0.252-0.021-0.499-0.047-0.737-0.079c-0.239-0.031-0.46-0.064-0.664-0.101v-2.244
		c0.4,0.1,0.86,0.179,1.38,0.237c0.521,0.06,1.05,0.09,1.591,0.09c1.054,0,1.855-0.202,2.407-0.604
		c0.551-0.404,0.827-0.964,0.827-1.682c0-0.743-0.256-1.297-0.769-1.658c-0.514-0.361-1.342-0.542-2.486-0.542h-2.696v-7.32h7.942
		v2.422h-5.541v2.803h0.99c0.701,0,1.373,0.063,2.012,0.189s1.203,0.346,1.69,0.658c0.488,0.313,0.878,0.734,1.17,1.27
		C77.015,280.532,77.162,281.206,77.162,282.021z"/>
</g>
</svg>
