<?xml version="1.0" encoding="utf-8"?>
<!-- Generator: Adobe Illustrator 15.1.0, SVG Export Plug-In . SVG Version: 6.00 Build 0)  -->
<!DOCTYPE svg PUBLIC "-//W3C//DTD SVG 1.1//EN" "http://www.w3.org/Graphics/SVG/1.1/DTD/svg11.dtd">
<svg version="1.1" id="Layer_1" xmlns="http://www.w3.org/2000/svg" xmlns:xlink="http://www.w3.org/1999/xlink" x="0px" y="0px"
	 width="163px" height="75px" viewBox="0 0 163 75" enable-background="new 0 0 163 75" xml:space="preserve">
<symbol  id="Symbol_46" viewBox="-1.217 -27.22 28.187 28.423">
	<g id="Layer_1_21_">
		
			<path fill-rule="evenodd" clip-rule="evenodd" fill="none" stroke="#54549D" stroke-width="3.45" stroke-linejoin="round" stroke-miterlimit="3" d="
			M25.75-26L12.8-13.05L0-25.8 M0.15-0.4L12.8-13.05L25.5,0"/>
	</g>
</symbol>
<symbol  id="Symbol_47" viewBox="10.123 -27.102 20.299 20.468">
	<g id="Layer_1_25_">
		
			<use xlink:href="#Symbol_46"  width="28.187" height="28.423" x="-1.217" y="-27.22" transform="matrix(0.7201 0 0 0.7201 11 -7.5)" overflow="visible"/>
	</g>
</symbol>
<rect x="3.928" y="2.148" fill-rule="evenodd" clip-rule="evenodd" fill="#444B99" width="39.135" height="32.552"/>
<rect x="3.928" y="2.148" fill-rule="evenodd" clip-rule="evenodd" fill="none" stroke="#CFD0CC" stroke-linejoin="round" stroke-miterlimit="3" width="39.135" height="32.552"/>
<g>
	<path fill-rule="evenodd" clip-rule="evenodd" fill="#FFFFFF" d="M36.001,28.185H11.23V24.1h24.771V28.185z M36.001,12.333H11.23
		V8.249h24.771V12.333z M36.001,20.231H11.23v-4.084h24.771V20.231z"/>
</g>
<rect x="47.991" y="2.578" fill-rule="evenodd" clip-rule="evenodd" fill="#444B99" width="39.135" height="32.552"/>
<rect x="47.991" y="2.578" fill-rule="evenodd" clip-rule="evenodd" fill="none" stroke="#CFD0CC" stroke-linejoin="round" stroke-miterlimit="3" width="39.134" height="32.553"/>
<rect x="92.159" y="2.578" fill-rule="evenodd" clip-rule="evenodd" fill="#444B99" width="39.137" height="32.552"/>
<rect x="92.16" y="2.578" fill-rule="evenodd" clip-rule="evenodd" fill="none" stroke="#CFD0CC" stroke-linejoin="round" stroke-miterlimit="3" width="39.135" height="32.553"/>
<g>
	<path fill-rule="evenodd" clip-rule="evenodd" fill="#FFFFFF" d="M52.122,29.796V7.604c5.481-2.543,10.64-1.863,15.477,2.042
		v20.742c-5.124-2.186-10.156-2.276-15.1-0.269L52.122,29.796z"/>
	
		<path fill-rule="evenodd" clip-rule="evenodd" fill="none" stroke="#FFFFFF" stroke-width="2" stroke-linecap="round" stroke-linejoin="round" stroke-miterlimit="3" d="
		M67.599,30.388c0.106,0,0.161,0.035,0.161,0.108c4.55-4.156,9.511-4.282,14.885-0.376V7.443c-4.658-2.436-9.673-1.702-15.046,2.203
		V30.388z M52.499,30.119c4.944-2.007,9.977-1.917,15.1,0.269 M67.599,9.646c-4.836-3.905-9.995-4.585-15.477-2.042v22.192"/>
	<path fill-rule="evenodd" clip-rule="evenodd" fill="#FFFFFF" d="M118.757,20.789c1.366,0,2.505,0.455,3.417,1.365
		c0.911,0.912,1.367,2.035,1.367,3.367c0,1.226-0.456,2.296-1.367,3.208c-0.912,0.979-2.051,1.47-3.417,1.47
		c-1.264,0-2.331-0.491-3.208-1.47c-0.945-0.912-1.419-1.983-1.419-3.208c0-1.332,0.474-2.455,1.419-3.367
		C116.426,21.244,117.493,20.789,118.757,20.789z M107.084,13.638c-0.981,0.981-2.103,1.472-3.364,1.472
		c-1.228,0-2.297-0.49-3.207-1.472c-0.912-0.841-1.368-1.927-1.368-3.26c0-1.227,0.456-2.295,1.368-3.207
		c0.91-0.981,1.979-1.472,3.207-1.472c1.262,0,2.383,0.491,3.364,1.472c0.912,0.912,1.367,1.98,1.367,3.207
		C108.451,11.711,107.996,12.797,107.084,13.638z"/>
	
		<line fill-rule="evenodd" clip-rule="evenodd" fill="none" stroke="#FFFFFF" stroke-width="3" stroke-linecap="round" stroke-linejoin="round" stroke-miterlimit="3" x1="101.669" y1="27.886" x2="120.701" y2="8.906"/>
</g>
<rect x="3.914" y="39.87" fill-rule="evenodd" clip-rule="evenodd" fill="#BCBEC0" width="39.135" height="32.553"/>
<rect x="3.914" y="39.87" fill-rule="evenodd" clip-rule="evenodd" fill="none" stroke="#CFD0CC" stroke-linejoin="round" stroke-miterlimit="3" width="39.135" height="32.553"/>
<g>
	<path fill-rule="evenodd" clip-rule="evenodd" fill="#FFFFFF" d="M35.988,65.906H11.216v-4.085h24.771V65.906z M35.988,50.054
		H11.216v-4.082h24.771V50.054z M35.988,57.953H11.216v-4.084h24.771V57.953z"/>
</g>
<rect x="47.977" y="40.3" fill-rule="evenodd" clip-rule="evenodd" fill="#D1D3D4" width="39.136" height="32.552"/>
<rect x="47.977" y="40.299" fill-rule="evenodd" clip-rule="evenodd" fill="none" stroke="#CFD0CC" stroke-linejoin="round" stroke-miterlimit="3" width="39.135" height="32.553"/>
<rect x="92.146" y="40.3" fill-rule="evenodd" clip-rule="evenodd" fill="#D1D3D4" width="39.137" height="32.552"/>
<rect x="92.146" y="40.299" fill-rule="evenodd" clip-rule="evenodd" fill="none" stroke="#CFD0CC" stroke-linejoin="round" stroke-miterlimit="3" width="39.135" height="32.553"/>
<g>
	<path fill-rule="evenodd" clip-rule="evenodd" fill="#FFFFFF" d="M52.108,67.518V45.326c5.481-2.544,10.64-1.863,15.477,2.041
		v20.742c-5.123-2.187-10.156-2.275-15.1-0.269L52.108,67.518z"/>
	
		<path fill-rule="evenodd" clip-rule="evenodd" fill="none" stroke="#FFFFFF" stroke-width="2" stroke-linecap="round" stroke-linejoin="round" stroke-miterlimit="3" d="
		M67.584,68.109c0.107,0,0.161,0.035,0.161,0.108c4.549-4.156,9.511-4.283,14.885-0.377V45.165
		c-4.658-2.437-9.674-1.702-15.046,2.202V68.109z M52.484,67.841c4.944-2.007,9.977-1.918,15.1,0.269 M67.584,47.367
		c-4.836-3.904-9.995-4.585-15.477-2.041v22.191"/>
	<path fill-rule="evenodd" clip-rule="evenodd" fill="#FFFFFF" d="M118.743,58.511c1.366,0,2.505,0.455,3.417,1.365
		c0.911,0.912,1.367,2.035,1.367,3.367c0,1.226-0.456,2.296-1.367,3.208c-0.912,0.979-2.051,1.47-3.417,1.47
		c-1.264,0-2.331-0.49-3.208-1.47c-0.945-0.912-1.42-1.982-1.42-3.208c0-1.332,0.475-2.455,1.42-3.367
		C116.412,58.966,117.479,58.511,118.743,58.511z M107.07,51.359c-0.981,0.981-2.103,1.472-3.364,1.472
		c-1.229,0-2.297-0.49-3.207-1.472c-0.912-0.841-1.368-1.927-1.368-3.26c0-1.227,0.456-2.295,1.368-3.206
		c0.91-0.981,1.979-1.473,3.207-1.473c1.262,0,2.383,0.491,3.364,1.473c0.912,0.911,1.367,1.979,1.367,3.206
		C108.438,49.433,107.982,50.519,107.07,51.359z"/>
	
		<line fill-rule="evenodd" clip-rule="evenodd" fill="none" stroke="#FFFFFF" stroke-width="3" stroke-linecap="round" stroke-linejoin="round" stroke-miterlimit="3" x1="101.655" y1="65.608" x2="120.687" y2="46.628"/>
</g>
<g>
	<path fill-rule="evenodd" clip-rule="evenodd" fill="#444B99" d="M149.74,7.298c0.351,0.351,0.558,0.732,0.621,1.146
		c0,0.095,0,0.174,0,0.239c0,0.605-0.207,1.098-0.621,1.48c-0.413,0.414-0.891,0.621-1.432,0.621c-0.574,0-1.052-0.207-1.433-0.621
		c-0.382-0.382-0.574-0.875-0.574-1.48c0-0.542,0.192-1.002,0.574-1.385c0.381-0.382,0.858-0.573,1.433-0.573
		c0.286,0,0.557,0.015,0.812,0.047c0.127,0.095,0.271,0.191,0.43,0.287v0.047c0.031,0,0.063,0.033,0.095,0.096L149.74,7.298z"/>
	
		<path fill-rule="evenodd" clip-rule="evenodd" fill="none" stroke="#444B99" stroke-width="1.8" stroke-linecap="round" stroke-linejoin="round" stroke-miterlimit="3" d="
		M152.94,9.59l1.146,4.965l-4.727-2.865 M142.387,18.28l5.874-7.162l-0.526,7.257l2.245,6.017l2.053,6.017 M147.734,18.375
		l-2.005,12.176"/>
</g>
<use xlink:href="#Symbol_47"  width="20.299" height="20.468" x="10.123" y="-27.102" transform="matrix(0.9744 0 0 -0.9744 127.6338 39.7109)" overflow="visible"/>
</svg>
