<?xml version="1.0" encoding="utf-8"?>
<!-- Generator: Adobe Illustrator 15.1.0, SVG Export Plug-In . SVG Version: 6.00 Build 0)  -->
<!DOCTYPE svg PUBLIC "-//W3C//DTD SVG 1.1//EN" "http://www.w3.org/Graphics/SVG/1.1/DTD/svg11.dtd">
<svg version="1.1" id="Layer_1" xmlns="http://www.w3.org/2000/svg" xmlns:xlink="http://www.w3.org/1999/xlink" x="0px" y="0px"
	 width="163px" height="75px" viewBox="0 0 163 75" enable-background="new 0 0 163 75" xml:space="preserve">
<g>
	<g>
		<polygon fill-rule="evenodd" clip-rule="evenodd" fill="#989898" points="78.615,34.563 15.917,34.563 1.5,19.528 15.917,4.537 
			78.615,4.537 		"/>
		<text transform="matrix(1 0 0 1 23.0181 23.9775)" fill="#FFFFFF" font-family="'Calibri'" font-size="15.0796">НАЗАД</text>
	</g>
	<g>
		<polygon fill-rule="evenodd" clip-rule="evenodd" fill="#989898" points="161.5,19.513 147.078,4.527 84.358,4.527 84.358,34.545 
			147.078,34.545 		"/>
		<text transform="matrix(1 0 0 1 94.6367 24.0127)" fill="#FFFFFF" font-family="'Calibri'" font-size="15.0796">ДАЛЕЕ</text>
	</g>
</g>
<g>
	<g>
		<polygon fill-rule="evenodd" clip-rule="evenodd" fill="#D1D3D4" points="78.615,71.113 15.917,71.113 1.5,56.075 15.917,41.087 
			78.615,41.087 		"/>
		<text transform="matrix(1 0 0 1 23.0181 60.5273)" fill="#FFFFFF" font-family="'Calibri'" font-size="15.0796">НАЗАД</text>
	</g>
	<g>
		<polygon fill-rule="evenodd" clip-rule="evenodd" fill="#D1D3D4" points="161.5,56.06 147.078,41.074 84.358,41.074 
			84.358,71.094 147.078,71.094 		"/>
		<text transform="matrix(1 0 0 1 94.6367 60.5615)" fill="#FFFFFF" font-family="'Calibri'" font-size="15.0796">ДАЛЕЕ</text>
	</g>
</g>
</svg>
