<svg xmlns="http://www.w3.org/2000/svg" width="99.188" height="99" viewBox="0 0 99.188 99"><circle fill="#FFF" cx="49.625" cy="49.5" r="42.702" opacity=".41"/><path fill="#939598" d="M49.625 98.875C22.398 98.875.25 76.727.25 49.5.25 22.274 22.398.125 49.625.125S99 22.274 99 49.5c0 27.227-22.148 49.375-49.375 49.375zm0-85.406c-19.867 0-36.03 16.164-36.03 36.031 0 19.868 16.163 36.029 36.03 36.029 19.868 0 36.029-16.161 36.029-36.029 0-19.867-16.161-36.031-36.029-36.031z"/><path fill="#939598" d="M72.979 50.167L36.947 74.854V26.146L72.979 49.5z"/></svg>