<?xml version="1.0" encoding="utf-8"?>
<!-- Generator: Adobe Illustrator 15.1.0, SVG Export Plug-In . SVG Version: 6.00 Build 0)  -->
<!DOCTYPE svg PUBLIC "-//W3C//DTD SVG 1.1//EN" "http://www.w3.org/Graphics/SVG/1.1/DTD/svg11.dtd">
<svg version="1.1" xmlns="http://www.w3.org/2000/svg" xmlns:xlink="http://www.w3.org/1999/xlink" x="0px" y="0px" width="183px"
	 height="183px" viewBox="0 0 183 183" enable-background="new 0 0 183 183" xml:space="preserve">
<symbol  id="Duplicate_Items_Folder_x2F_palett_copy_2" viewBox="-0.5 -29 157 29.5">
	<g id="skleik_1_">
		<path fill-rule="evenodd" clip-rule="evenodd" fill="#B67634" d="M156-8.75v-11h-18.5v11H156z M88.5-19.75H70v11h18.5V-19.75z
			 M18.5-8.75v-11H0v11H18.5z"/>
		
			<path fill-rule="evenodd" clip-rule="evenodd" fill="none" stroke="#B67634" stroke-linecap="round" stroke-linejoin="round" stroke-miterlimit="3" d="
			M156-8.75v-11h-18.5v11H156z M88.5-19.75H70v11h18.5V-19.75z M18.5-8.75v-11H0v11H18.5z"/>
	</g>
	<g id="bej_1_">
		<path fill-rule="evenodd" clip-rule="evenodd" fill="#EDBB7C" d="M156-28.5H0v8.75h156V-28.5z M156-8.75H0V0h156V-8.75z"/>
		
			<path fill-rule="evenodd" clip-rule="evenodd" fill="none" stroke="#EDBB7C" stroke-linecap="round" stroke-linejoin="round" stroke-miterlimit="3" d="
			M156-28.5H0v8.75h156V-28.5z M156-8.75H0V0h156V-8.75z"/>
	</g>
</symbol>
<symbol  id="Duplicate_Items_Folder_x2F_palett2_copy" viewBox="-19.5 -76 153.95 161.9">
	<g id="back2_1_">
		<path fill-rule="evenodd" clip-rule="evenodd" fill="#764B21" d="M133.95,58.25H-19v17.5h152.95V58.25z M133.95,0.25v-7.5H-19
			v17.5v7.5h152.95v-7.5V0.25z M133.95-58v-10.75v-6.75H-19V-58v6.75h152.95V-58H-19H133.95z M-19,10.25h152.95H-19z"/>
		
			<path fill-rule="evenodd" clip-rule="evenodd" fill="none" stroke="#764B21" stroke-linecap="round" stroke-linejoin="round" stroke-miterlimit="3" d="
			M133.95,58.25H-19v17.5h152.95V58.25z M133.95,0.25v-7.5H-19v17.5v7.5h152.95v-7.5 M133.95-68.75v-6.75H-19V-58v6.75h152.95V-58
			 M-19-58h152.95 M-19,10.25h152.95"/>
	</g>
	<g id="back_1_">
		<path fill-rule="evenodd" clip-rule="evenodd" fill="#A5692E" d="M133.95,65.75H-19v17.5h152.95V65.75z M133.95,0.25H-19v17.5
			h152.95V0.25z M-19-51.25h152.95v-17.5H-19V-51.25z"/>
		
			<path fill-rule="evenodd" clip-rule="evenodd" fill="none" stroke="#A5692E" stroke-linecap="round" stroke-linejoin="round" stroke-miterlimit="3" d="
			M133.95,65.75H-19v17.5h152.95V65.75z M133.95,0.25H-19v17.5h152.95V0.25z M-19-51.25h152.95v-17.5H-19V-51.25z"/>
	</g>
	<g id="bej_2_">
		<path fill-rule="evenodd" clip-rule="evenodd" fill="#DAC092" d="M76.8,85.4v-156H61.9v156H76.8z M28.3,85.4v-156H13.4v156H28.3z
			 M52.3,85.4v-156H37.4v156H52.3z M101.8,85.4v-156H86.9v156H101.8z M126.3,85.4v-156h-14.9v156H126.3z M3.8-70.6h-14.9v156H3.8
			V-70.6z"/>
		
			<path fill-rule="evenodd" clip-rule="evenodd" fill="none" stroke="#DAC092" stroke-linecap="round" stroke-linejoin="round" stroke-miterlimit="3" d="
			M76.8,85.4v-156H61.9v156H76.8z M28.3,85.4v-156H13.4v156H28.3z M52.3,85.4v-156H37.4v156H52.3z M101.8,85.4v-156H86.9v156H101.8z
			 M126.3,85.4v-156h-14.9v156H126.3z M3.8-70.6h-14.9v156H3.8V-70.6z"/>
	</g>
</symbol>
<symbol  id="Duplicate_Items_Folder_x2F_palett3_copy" viewBox="-0.5 -29.3 157.05 29.8">
	<g id="Layer_1_2_">
		<path fill-rule="evenodd" clip-rule="evenodd" fill="#EDBB7C" d="M0-4.2V0h156v-4.2H0z M0-27.2h156v-1.3H0V-27.2z"/>
		<path fill-rule="evenodd" clip-rule="evenodd" fill="#97693C" d="M156-27.2H0v7.45v11h18.5v-11H70v11h18.5v-11h49v11H156h-18.5
			h-49H70H18.5H0v4.55h156v-4.55v-11V-27.2z M156-19.75h-18.5H156z M18.5-19.75H0H18.5z M88.5-19.75H70H88.5z"/>
		
			<path fill-rule="evenodd" clip-rule="evenodd" fill="none" stroke="#EDBB7C" stroke-linecap="round" stroke-linejoin="round" stroke-miterlimit="3" d="
			M156-4.2V0H0v-4.2 M156-27.2v-1.3H0v1.3"/>
		
			<path fill-rule="evenodd" clip-rule="evenodd" fill="none" stroke="#97693C" stroke-linecap="round" stroke-linejoin="round" stroke-miterlimit="3" d="
			M137.5-8.75H156v4.55 M0-4.2v-4.55h18.5H70h18.5h49 M156-8.75v-11v-7.45 M0-27.2v7.45v11 M88.5-8.75v-11h49v11 M156-19.75h-18.5
			 M18.5-8.75v-11H70v11 M18.5-19.75H0 M88.5-19.75H70"/>
	</g>
	<g id="Layer_2_2_">
		<path fill-rule="evenodd" clip-rule="evenodd" fill="#BEA074" d="M156.05-28.8h-156v9.65h156V-28.8z M156.05-9.7h-156v9.65h156
			V-9.7z"/>
		
			<path fill-rule="evenodd" clip-rule="evenodd" fill="none" stroke="#BEA074" stroke-linecap="round" stroke-linejoin="round" stroke-miterlimit="3" d="
			M156.05-28.8h-156v9.65h156V-28.8z M156.05-9.7h-156v9.65h156V-9.7z"/>
	</g>
</symbol>
<symbol  id="plashka" viewBox="3.5 -184.9 217.05 182.35">
	<g id="Layer_4_1_">
		<polygon fill-rule="evenodd" clip-rule="evenodd" fill="#FFFFFF" points="219.55,-183.9 4.5,-183.9 4.5,-3.55 219.55,-3.55 		"/>
		<polygon fill-rule="evenodd" clip-rule="evenodd" fill="none" stroke="#FFFFFF" stroke-width="2" stroke-miterlimit="10" points="
			219.55,-183.9 4.5,-183.9 4.5,-3.55 219.55,-3.55 		"/>
	</g>
</symbol>
<g id="plashki">
	
		<use xlink:href="#plashka"  width="217.05" height="182.35" x="3.5" y="-184.9" transform="matrix(0.8424 0 0 -1 -2.7002 -2.8999)" overflow="visible"/>
</g>
<g id="papka">
	
		<use xlink:href="#Duplicate_Items_Folder_x2F_palett_copy_2"  width="157" height="29.5" x="-0.5" y="-29" transform="matrix(0.6599 0.123 0.123 -0.6599 42.7998 89.9502)" overflow="visible"/>
	
		<use xlink:href="#Duplicate_Items_Folder_x2F_palett2_copy"  width="153.95" height="161.9" x="-19.5" y="-76" transform="matrix(0.5932 0.1672 0.1538 -0.5455 79.3999 81)" overflow="visible"/>
	
		<use xlink:href="#Duplicate_Items_Folder_x2F_palett_copy_2"  width="157" height="29.5" x="-0.5" y="-29" transform="matrix(0.6713 0 0 -0.6713 39.5498 142.4004)" overflow="visible"/>
	
		<use xlink:href="#Duplicate_Items_Folder_x2F_palett_copy_2"  width="157" height="29.5" x="-0.5" y="-29" transform="matrix(0.5813 -0.3356 -0.3356 -0.5813 8.0498 145.0996)" overflow="visible"/>
	
		<use xlink:href="#Duplicate_Items_Folder_x2F_palett3_copy"  width="157.05" height="29.8" x="-0.5" y="-29.3" transform="matrix(0.6713 0 0 -0.6713 29.5 125)" overflow="visible"/>
</g>
</svg>
