<svg xmlns="http://www.w3.org/2000/svg" width="900.15" height="366.07" viewBox="0 0 900.15 366.07"><path stroke="#000" stroke-miterlimit="10" fill="none" d="M120.369 113.109v58.499"/><path d="M117.209 152.139h6.32l-3.16 6.319z"/><path stroke="#000" stroke-miterlimit="10" fill="none" d="M14.203 166.278v-58.5M119.839 171.067h-106.301M14.806 107.778h245.795"/><path fill="#fff" stroke="#000" stroke-miterlimit="10" d="M1.444 94.056h25.518v27.443h-25.518zM38.909 157.345h25.521v27.443h-25.521z"/><path fill="#7D287D" stroke="#000" stroke-miterlimit="10" d="M63.133 107.778c0 7.637-6.351 13.827-14.186 13.827h-8.745v-27.654h8.745c7.835 0 14.186 6.19 14.186 13.827zM98.432 171.067c0 7.637-6.353 13.828-14.188 13.828h-8.744v-27.655h8.745c7.836 0 14.187 6.19 14.187 13.827z"/><circle fill="#F6EB14" stroke="#000" stroke-miterlimit="10" cx="86.967" cy="107.778" r="14.264"/><path fill="#4069B2" stroke="#000" stroke-miterlimit="10" d="M120.542 122.042l-13.045-13.538 14.03-13.537 13.045 13.045zM120.325 157.527l13.045 13.045-14.03 14.03-13.045-13.045zM14.031 157.528l13.045 13.045-14.03 14.03-13.045-13.045z"/><path fill="#fff" stroke="#000" stroke-miterlimit="10" d="M144.083 94.781h25.521v27.444h-25.521zM218.712 94.056h25.52v27.443h-25.52z"/><path fill="#F6EB14" stroke="#000" stroke-miterlimit="10" d="M193.556 121.5l-13.603-27.444h25.518z"/><path d="M17.363 127.248h-6.32l3.16-6.32zM257.441 110.938v-6.32l6.319 3.16z"/><path stroke="#000" stroke-miterlimit="10" fill="none" d="M345.729 107.686h235.083M340.915 169.528h109.472M482.951 231.415h-116.073M381.614 293.046h127.302M391.315 351.314h127.507M518.822 351.314v-242.81M378.455 292.426v58.501"/><path d="M375.295 332.901h6.319l-3.159 6.32z"/><path stroke="#000" stroke-miterlimit="10" fill="none" d="M377.417 234.547v58.499"/><path d="M374.257 273.576h6.319l-3.159 6.32z"/><path stroke="#000" stroke-miterlimit="10" fill="none" d="M378.455 172.917v58.499"/><path d="M375.295 211.947h6.319l-3.159 6.32z"/><path stroke="#000" stroke-miterlimit="10" fill="none" d="M449.609 110.938v58.5M340.915 166.278v-58.5"/><path d="M344.075 127.248h-6.32l3.16-6.32z"/><path fill="#fff" stroke="#000" stroke-miterlimit="10" d="M328.156 93.963h25.518v27.443h-25.518zM436.85 155.806h25.519v27.443h-25.519zM363.514 279.546h29.882v25.761h-29.882zM389.243 107.686c0 7.636-6.352 13.828-14.186 13.828h-8.745v-27.656h8.745c7.835 0 14.186 6.191 14.186 13.828zM424.543 168.987c0 7.637-6.353 13.828-14.187 13.828h-8.745v-27.655h8.745c7.834 0 14.187 6.19 14.187 13.827z"/><circle fill="#F6EB14" stroke="#000" stroke-miterlimit="10" cx="413.076" cy="107.686" r="14.264"/><circle fill="#F6EB14" stroke="#000" stroke-miterlimit="10" cx="377.778" cy="168.987" r="14.264"/><circle fill="#F6EB14" stroke="#000" stroke-miterlimit="10" cx="427.342" cy="292.427" r="14.264"/><circle fill="#F6EB14" stroke="#000" stroke-miterlimit="10" cx="473.75" cy="292.427" r="14.264"/><circle fill="#F6EB14" stroke="#000" stroke-miterlimit="10" cx="463.872" cy="351.807" r="14.264"/><path fill="#4069B2" stroke="#000" stroke-miterlimit="10" d="M450.871 94.875l13.045 13.045-14.03 14.03-13.045-13.045zM378.253 217.877l13.045 13.045-14.032 14.032-13.045-13.045zM519.343 278.918l13.045 13.045-14.03 14.03-13.045-13.045zM378.304 338.263l13.045 13.041-14.028 14.032-13.045-13.041z"/><path fill="#fff" stroke="#000" stroke-miterlimit="10" d="M470.192 94.69h25.521v27.444h-25.521zM506.063 217.694h25.519v27.444h-25.519zM406.894 338.086h25.518v27.442h-25.518zM544.822 93.963h25.52v27.443h-25.52z"/><path fill="#F6EB14" stroke="#000" stroke-miterlimit="10" d="M519.034 121.408l-13.603-27.445h25.518zM341.758 183.25l-13.602-27.444h25.518z"/><path d="M446.449 149.969h6.32l-3.16 6.319zM521.981 251.045h-6.319l3.16-6.319zM521.981 311.806h-6.319l3.16-6.32z"/><path stroke="#000" stroke-miterlimit="10" fill="none" d="M482.951 122.227v109.188"/><path d="M521.981 127.728h-6.319l3.16-6.32zM486.11 128.272h-6.319l3.16-6.32zM580.18 110.845v-6.319l6.32 3.16z"/><path stroke="#000" stroke-miterlimit="10" fill="none" d="M719.062 107.144h118.804"/><path fill="#fff" stroke="#000" stroke-miterlimit="10" d="M706.302 93.422h25.52v27.443h-25.52zM751.562 93.963h25.519v27.443h-25.519zM795.375 93.963h25.521v27.443h-25.521z"/><path d="M836.272 110.304v-6.32l6.322 3.16z"/><g stroke="#000" stroke-miterlimit="10" fill="none"><path d="M775.321 15h-642.525M132.796 15v18.667M775.321 15v16.667M457.604 0v40"/></g><path fill="none" d="M642.466 49.967h266.396v43.996h-266.396z"/><path d="M660.887 58.951c0 .551-.107 1.038-.32 1.463-.215.425-.52.783-.914 1.077-.396.293-.873.516-1.434.668-.561.151-1.184.229-1.867.229h-3.006v-11.488h3.287c2.561 0 3.841.933 3.841 2.795 0 .621-.147 1.154-.444 1.601-.295.444-.775.775-1.443.993.311.06.604.157.883.299.278.142.521.322.732.545.211.224.378.486.501.791.123.305.184.646.184 1.027zm-2.039-5.045c0-.233-.035-.455-.105-.663-.068-.208-.191-.388-.367-.536-.178-.148-.413-.269-.714-.355-.299-.088-.677-.132-1.134-.132h-1.617v3.595h1.564c.357 0 .682-.038.971-.114.291-.075.539-.192.748-.352.207-.158.369-.355.482-.594.115-.238.172-.521.172-.849zm.378 5.097c0-.293-.063-.558-.186-.791s-.303-.433-.535-.593c-.234-.161-.521-.286-.856-.374-.338-.089-.717-.133-1.139-.133h-1.602v3.955h1.652c.896 0 1.564-.167 2.004-.501.444-.333.662-.854.662-1.563zM664.088 56.973l.594-.014.575-.004c.551 0 1.03.065 1.444.197.412.133.758.316 1.032.555.275.237.48.521.615.854s.202.689.202 1.077c0 .469-.079.88-.237 1.234s-.384.651-.677.893c-.293.24-.652.422-1.076.545-.426.123-.931.186-1.518.186-.375 0-.771-.011-1.189-.031-.42-.021-.846-.063-1.279-.127v-8.771h1.514v3.406zm2.881 2.707c0-.464-.146-.822-.438-1.077-.289-.255-.751-.382-1.384-.382l-.519.009-.545.025v2.899c.188.029.364.049.534.058l.512.014c.355 0 .651-.042.888-.127s.42-.198.559-.338c.139-.142.236-.306.301-.492.061-.187.092-.384.092-.589zm2.549 2.707v-8.824h1.512v8.824h-1.512zM681.699 53.563h1.514l2.681 4.254v-4.254h1.406v4.254l2.681-4.254h1.512l-2.839 4.254 2.909 4.57h-1.67l-2.593-4.482v4.482h-1.406v-4.482l-2.593 4.482h-1.67l2.918-4.57-2.85-4.254zM700.402 57.509l-.009.546-.026.412h-6.194c0 .902.252 1.596.756 2.079s1.229.726 2.18.726c.258 0 .516-.01.773-.031.257-.021.507-.048.747-.083.238-.034.471-.074.688-.118.221-.044.424-.093.611-.146v1.257c-.416.117-.888.212-1.41.286-.525.072-1.068.109-1.631.109-.756 0-1.406-.104-1.951-.309-.545-.204-.992-.502-1.34-.892-.351-.391-.607-.867-.773-1.434-.168-.564-.251-1.206-.251-1.92 0-.621.089-1.208.271-1.763.178-.555.438-1.04.779-1.459.346-.419.766-.751 1.264-.998s1.063-.369 1.695-.369c.614 0 1.159.098 1.636.29.475.193.874.468 1.2.822.322.354.568.784.736 1.292.165.509.249 1.076.249 1.703zm-1.59-.219c.018-.394-.021-.751-.114-1.077-.093-.325-.236-.604-.436-.839-.195-.233-.44-.417-.733-.549-.293-.133-.633-.198-1.02-.198-.334 0-.641.063-.914.192-.275.129-.514.312-.712.545-.199.234-.36.517-.483.845s-.199.688-.229 1.081h4.641zM709.859 62.387h-1.529v-7.507h-2.461c-.068 1.207-.174 2.241-.313 3.104-.137.861-.303 1.581-.496 2.158s-.413 1.03-.659 1.361-.511.571-.796.722c-.283.148-.584.223-.9.22-.314-.003-.642-.045-.976-.127l.07-1.266c.232.022.454.012.659-.035.203-.047.396-.16.569-.338.174-.179.335-.438.479-.773.143-.337.271-.786.391-1.349.118-.563.219-1.252.303-2.07.086-.816.154-1.792.207-2.922h5.449l.003 8.822zM718.411 62.387l-.033-1.188c-.48.475-.97.816-1.466 1.027-.492.211-1.015.315-1.56.315-.504 0-.935-.063-1.292-.192s-.652-.307-.883-.532c-.232-.227-.402-.49-.51-.795-.109-.305-.163-.636-.163-.993 0-.885.328-1.577.987-2.078.658-.501 1.634-.751 2.923-.751h1.827v-.772c0-.521-.167-.939-.501-1.252-.334-.313-.844-.471-1.527-.471-.498 0-.989.057-1.474.167-.482.11-.981.271-1.499.476v-1.38c.193-.07.409-.14.646-.207s.487-.127.752-.181c.264-.054.539-.096.826-.127.286-.032.576-.049.869-.049.532 0 1.015.06 1.44.177.427.116.79.296 1.085.536.297.239.523.542.683.904.158.363.236.791.236 1.283v6.082h-1.366v.001zm-.167-4.016h-1.94c-.381 0-.709.038-.984.113-.274.076-.501.186-.677.325-.176.141-.308.31-.393.505-.086.196-.128.417-.128.664 0 .17.026.333.079.487.055.155.14.293.255.413.117.12.271.216.457.286.188.07.416.104.688.104.352 0 .755-.106 1.208-.32.455-.215.934-.553 1.438-1.016l-.003-1.561zM730.094 57.509l-.009.546-.026.412h-6.196c0 .902.252 1.596.756 2.079.505.483 1.23.726 2.182.726.258 0 .516-.01.771-.031.257-.021.507-.048.747-.083.24-.034.471-.074.689-.118.221-.044.424-.093.609-.146v1.257c-.416.117-.887.212-1.408.286-.525.072-1.068.109-1.633.109-.756 0-1.404-.104-1.949-.309-.545-.204-.992-.502-1.342-.892-.35-.391-.605-.867-.771-1.434-.168-.564-.251-1.206-.251-1.92 0-.621.089-1.208.269-1.763s.439-1.04.781-1.459c.344-.419.764-.751 1.262-.998s1.063-.369 1.696-.369c.615 0 1.16.098 1.635.29.477.193.874.468 1.2.822.324.354.57.784.738 1.292.166.509.25 1.076.25 1.703zm-1.591-.219c.018-.394-.021-.751-.114-1.077-.093-.325-.238-.604-.438-.839-.193-.233-.438-.417-.731-.549-.293-.133-.633-.198-1.021-.198-.334 0-.639.063-.914.192-.273.129-.513.312-.712.545-.199.234-.358.517-.481.845s-.199.688-.229 1.081h4.64zM740.199 54.881h-3.349v7.507h-1.547v-7.507h-3.351v-1.317h8.244l.003 1.317zM749.885 57.509l-.009.546-.026.412h-6.196c0 .902.252 1.596.756 2.079s1.23.726 2.182.726c.258 0 .516-.01.771-.031.257-.021.507-.048.747-.083.24-.034.472-.074.689-.118.221-.044.424-.093.609-.146v1.257c-.416.117-.887.212-1.408.286-.525.072-1.068.109-1.633.109-.756 0-1.404-.104-1.949-.309-.546-.204-.992-.502-1.342-.892-.35-.391-.605-.867-.771-1.434-.168-.564-.251-1.206-.251-1.92 0-.621.089-1.208.269-1.763s.439-1.04.781-1.459c.344-.419.764-.751 1.262-.998s1.063-.369 1.696-.369c.615 0 1.16.098 1.635.29.477.193.874.468 1.2.822.324.354.57.784.738 1.292.167.509.25 1.076.25 1.703zm-1.589-.219c.018-.394-.021-.751-.114-1.077-.093-.325-.238-.604-.438-.839-.193-.233-.438-.417-.731-.549-.293-.133-.633-.198-1.021-.198-.334 0-.639.063-.914.192-.273.129-.513.312-.712.545-.197.234-.358.517-.481.845s-.199.688-.229 1.081h4.64zM753.014 64.189c.299.013.589-.016.87-.079.279-.063.526-.159.742-.286.214-.126.386-.282.515-.47s.192-.4.192-.643c0-.246-.044-.444-.128-.599-.086-.151-.181-.293-.284-.422-.105-.129-.2-.268-.286-.413-.084-.146-.127-.343-.127-.589 0-.123.021-.252.068-.387.047-.136.119-.259.216-.369.099-.111.222-.202.368-.271.15-.07.327-.104.532-.104s.403.042.593.127c.191.085.357.215.502.392.145.176.26.396.344.658.086.265.128.574.128.933 0 .485-.09.954-.271 1.401-.178.448-.444.846-.799 1.191s-.797.62-1.328.825c-.528.205-1.146.309-1.85.309l.003-1.204zM777.685 58.969h-1.819c-1.363 0-2.366-.256-3.006-.766-.639-.511-.958-1.251-.958-2.225v-2.417h1.547v2.215c0 .353.047.646.143.889.094.24.245.436.452.584.209.148.475.256.801.32.324.063.719.098 1.182.098h1.661v-4.104h1.529v8.824h-1.529l-.003-3.418zM789.682 54.881h-3.349v7.507h-1.549v-7.507h-3.349v-1.317h8.244l.003 1.317zM799.596 57.905c0 .687-.097 1.314-.29 1.886-.193.57-.472 1.062-.835 1.468-.363.407-.808.725-1.327.949-.521.226-1.113.338-1.775.338-.633 0-1.198-.099-1.698-.294-.503-.195-.928-.484-1.275-.865-.348-.382-.615-.854-.799-1.415-.188-.563-.277-1.21-.277-1.942 0-.686.097-1.311.29-1.876.193-.564.472-1.052.835-1.459.363-.406.806-.724 1.327-.948.521-.226 1.113-.339 1.775-.339.633 0 1.198.099 1.698.295.502.195.928.482 1.275.86s.615.849.799 1.411c.187.56.277 1.204.277 1.931zm-1.565.07c0-.545-.061-1.021-.18-1.429-.121-.406-.292-.747-.515-1.021-.225-.272-.493-.479-.813-.614-.318-.139-.675-.207-1.067-.207-.456 0-.849.089-1.173.269-.326.179-.592.417-.801.716-.207.299-.359.646-.457 1.042-.096.396-.145.811-.145 1.244 0 .545.061 1.021.18 1.434.121.409.292.751.515 1.023.225.272.492.479.811.614.315.138.674.207 1.071.207.456 0 .85-.089 1.174-.269.324-.179.592-.417.801-.716.207-.299.357-.646.457-1.042.093-.394.142-.811.142-1.251zM802.964 55.558c.408-.574.865-1.003 1.37-1.288s1.071-.426 1.704-.426c.506 0 .97.092 1.396.276.424.186.791.458 1.098.821.311.363.549.811.723 1.341.174.529.26 1.138.26 1.823 0 .646-.104 1.239-.303 1.784-.203.545-.486 1.014-.854 1.405-.365.394-.803.699-1.309.918-.509.221-1.065.33-1.677.33-.639 0-1.198-.109-1.683-.33-.484-.22-.887-.557-1.209-1.011s-.565-1.028-.729-1.724c-.164-.694-.246-1.52-.246-2.475 0-1.172.1-2.168.299-2.987.199-.82.489-1.501.87-2.043s.852-.964 1.409-1.267c.562-.302 1.199-.521 1.922-.654.211-.041.433-.075.663-.102l.688-.079.659-.075s.398-.053.563-.088v1.406l-.398.069-.477.054-.518.053-.515.063c-.688.088-1.248.23-1.688.432-.438.199-.794.47-1.063.813-.271.343-.477.759-.615 1.248-.14.492-.252 1.063-.34 1.713zm4.981 2.602c0-.511-.057-.954-.172-1.332-.113-.378-.266-.692-.457-.945-.188-.252-.408-.438-.654-.563-.244-.124-.504-.185-.771-.185-.275 0-.529.039-.76.118-.232.079-.459.196-.684.353-.223.156-.443.354-.668.593-.223.24-.46.533-.712.88v.167c0 .797.063 1.451.187 1.964.122.513.29.918.501 1.218.211.299.462.508.751.628.291.119.606.18.953.18.409 0 .771-.086 1.08-.259.312-.173.57-.401.777-.687.209-.284.365-.61.471-.979.106-.371.158-.753.158-1.151zM812.533 56.973l.596-.014.573-.004c.553 0 1.032.065 1.446.197.412.133.757.316 1.032.555.273.237.479.521.614.854s.201.689.201 1.077c0 .469-.078.88-.235 1.234-.158.354-.385.651-.678.893-.294.239-.651.422-1.075.545-.428.123-.933.186-1.519.186-.375 0-.771-.011-1.188-.031-.42-.021-.848-.063-1.279-.127v-8.771h1.512v3.406zm2.883 2.707c0-.464-.145-.822-.436-1.077-.289-.255-.751-.382-1.384-.382l-.521.009-.545.025v2.899c.188.029.366.049.536.058l.51.014c.357 0 .653-.042.89-.127.233-.085.42-.198.559-.338.139-.142.236-.306.299-.492.061-.187.092-.384.092-.589zm2.551 2.707v-8.824h1.512v8.824h-1.512zM838.594 62.387h-1.529v-7.488h-4.034v7.488h-1.529v-8.824h7.094l-.002 8.824zM848.938 57.817c0 .785-.109 1.472-.33 2.058-.219.586-.521 1.071-.909 1.459-.387.388-.844.678-1.371.87-.525.192-1.099.29-1.714.29-.28 0-.561-.016-.84-.045-.277-.028-.561-.078-.848-.147v3.69h-1.529v-12.429h1.362l.097 1.478c.439-.604.908-1.026 1.406-1.271s1.037-.365 1.617-.365c.504 0 .944.105 1.325.316.383.211.7.508.958.892.26.385.451.848.58 1.39s.196 1.146.196 1.814zm-1.565.07c0-.464-.031-.889-.102-1.274-.066-.387-.174-.718-.32-.992-.146-.274-.334-.491-.563-.646-.229-.155-.501-.232-.817-.232-.191 0-.39.03-.589.092s-.406.164-.619.309c-.215.145-.438.334-.678.57-.236.236-.49.532-.76.884v4.279c.279.117.577.209.888.276.311.068.615.102.914.102.826 0 1.474-.279 1.942-.839.468-.561.704-1.404.704-2.529zM858.975 57.905c0 .687-.097 1.314-.29 1.886-.193.57-.472 1.062-.835 1.468-.363.407-.806.725-1.327.949-.521.226-1.113.338-1.775.338-.633 0-1.198-.099-1.698-.294-.502-.195-.928-.484-1.275-.865-.348-.382-.615-.854-.799-1.415-.188-.563-.277-1.21-.277-1.942 0-.686.097-1.311.29-1.876.193-.564.472-1.052.835-1.459.363-.406.808-.724 1.327-.948.521-.226 1.113-.339 1.775-.339.633 0 1.198.099 1.698.295.503.195.928.482 1.275.86s.615.849.799 1.411c.187.56.277 1.204.277 1.931zm-1.565.07c0-.545-.061-1.021-.18-1.429-.121-.406-.292-.747-.515-1.021-.225-.272-.493-.479-.813-.614-.318-.139-.675-.207-1.065-.207-.457 0-.851.089-1.175.269-.324.179-.592.417-.801.716-.207.299-.359.646-.457 1.042-.096.396-.145.811-.145 1.244 0 .545.061 1.021.18 1.434.121.409.292.751.515 1.023.225.272.492.479.811.614.315.138.674.207 1.072.207.456 0 .849-.089 1.173-.269.324-.179.592-.417.801-.716.207-.299.359-.646.457-1.042.093-.394.142-.811.142-1.251zM869.267 61.069l-.088 3.568h-1.389v-2.25h-6.673v-8.824h1.529v7.506h4.025v-7.506h1.527v7.506h1.069zM878.539 57.509l-.009.546-.024.412h-6.196c0 .902.252 1.596.756 2.079s1.23.726 2.18.726c.26 0 .518-.01.773-.031.257-.021.507-.048.747-.083.24-.034.471-.074.688-.118.223-.044.426-.093.611-.146v1.257c-.416.117-.887.212-1.41.286-.523.072-1.066.109-1.631.109-.756 0-1.406-.104-1.951-.309-.545-.204-.99-.502-1.34-.892-.35-.391-.605-.867-.771-1.434-.168-.564-.251-1.206-.251-1.92 0-.621.089-1.208.269-1.763.178-.555.439-1.04.781-1.459.344-.419.764-.751 1.262-.998s1.063-.369 1.696-.369c.615 0 1.16.098 1.635.29.475.193.874.468 1.2.822.324.354.57.784.738 1.292.163.509.247 1.076.247 1.703zm-1.591-.219c.02-.394-.021-.751-.114-1.077-.093-.325-.236-.604-.436-.839-.195-.233-.439-.417-.732-.549-.293-.133-.634-.198-1.021-.198-.334 0-.639.063-.914.192s-.513.312-.712.545c-.199.234-.36.517-.483.845-.122.328-.197.688-.229 1.081h4.641zM887.84 62.062c-.398.151-.809.266-1.229.338-.418.073-.851.11-1.296.11-1.396 0-2.468-.379-3.222-1.135-.752-.756-1.129-1.859-1.129-3.313 0-.696.106-1.33.323-1.897.219-.567.521-1.056.914-1.459.395-.403.861-.717 1.406-.937.545-.221 1.146-.33 1.802-.33.457 0 .887.032 1.283.098.398.064.779.17 1.145.315v1.459c-.382-.199-.771-.344-1.164-.436-.396-.091-.807-.136-1.229-.136-.393 0-.764.074-1.11.224-.351.148-.654.365-.92.646-.264.281-.472.624-.623 1.028-.151.403-.229.86-.229 1.371 0 1.065.26 1.864.777 2.395.52.53 1.236.796 2.156.796.416 0 .818-.048 1.209-.142.391-.095.768-.233 1.13-.422v1.425h.006zM897.734 62.062c-.396.151-.807.266-1.227.338-.418.073-.853.11-1.296.11-1.396 0-2.47-.379-3.224-1.135-.752-.756-1.129-1.859-1.129-3.313 0-.696.108-1.33.325-1.897s.521-1.056.914-1.459.86-.717 1.406-.937c.545-.221 1.146-.33 1.802-.33.457 0 .885.032 1.283.098.396.064.777.17 1.143.315v1.459c-.381-.199-.77-.344-1.164-.436-.396-.091-.805-.136-1.227-.136-.395 0-.766.074-1.111.224-.35.148-.655.365-.919.646s-.472.624-.624 1.028c-.152.403-.229.86-.229 1.371 0 1.065.262 1.864.777 2.395.521.53 1.238.796 2.158.796.416 0 .817-.048 1.209-.142.389-.095.766-.233 1.129-.422v1.425h.004zM718.844 77.158c.409-.574.866-1.004 1.371-1.288.504-.285 1.07-.427 1.703-.427.506 0 .971.093 1.395.277.426.185.791.458 1.1.821.309.362.547.811.723 1.34.172.53.259 1.139.259 1.824 0 .646-.103 1.238-.304 1.783-.201.546-.486 1.015-.854 1.406-.367.394-.803.699-1.311.918-.508.221-1.064.33-1.676.33-.639 0-1.197-.109-1.684-.33-.482-.221-.886-.558-1.208-1.011-.322-.454-.565-1.028-.729-1.724-.162-.695-.244-1.52-.244-2.475 0-1.172.1-2.168.299-2.987.199-.82.488-1.501.87-2.043.381-.542.851-.965 1.411-1.267.559-.303 1.197-.521 1.92-.655.211-.041.432-.074.664-.102l.688-.078.659-.075s.396-.053.563-.088v1.405l-.397.07-.477.053-.52.054-.514.063c-.688.088-1.248.23-1.688.432-.439.199-.794.47-1.063.813s-.476.759-.614 1.247c-.14.493-.256 1.063-.342 1.714zm4.981 2.602c0-.511-.058-.954-.171-1.332-.115-.379-.268-.693-.457-.945s-.409-.438-.653-.563c-.246-.124-.506-.186-.773-.186-.275 0-.528.04-.761.119-.23.079-.458.195-.683.353-.223.155-.443.354-.668.593-.223.24-.46.533-.712.88v.167c0 .797.063 1.451.187 1.964.123.512.29.918.501 1.217s.461.509.752.628c.289.12.605.181.953.181.408 0 .771-.086 1.081-.26.31-.173.567-.4.776-.686.207-.284.364-.611.47-.979.106-.372.158-.753.158-1.151zM728.413 78.573l.595-.013.574-.004c.553 0 1.033.065 1.445.197.414.133.758.315 1.033.555.275.238.48.521.615.854s.202.689.202 1.076c0 .47-.079.881-.237 1.235s-.384.651-.677.892-.651.423-1.077.546c-.424.123-.93.186-1.518.186-.375 0-.771-.011-1.189-.031-.418-.021-.845-.063-1.278-.127v-8.771h1.513l-.001 3.405zm2.885 2.707c0-.463-.146-.821-.437-1.076-.291-.256-.752-.383-1.385-.383l-.521.01-.545.025v2.899c.188.029.366.049.536.058l.512.014c.355 0 .651-.042.888-.128.234-.085.421-.197.558-.338.141-.141.238-.305.299-.491.063-.189.095-.385.095-.59zm2.547 2.707v-8.823h1.512v8.823h-1.512zM744.497 83.987h-1.527v-7.506h-2.461c-.07 1.207-.177 2.241-.313 3.104-.139.86-.304 1.581-.497 2.158-.191.576-.413 1.03-.659 1.361-.244.331-.512.57-.795.722-.283.148-.585.223-.899.22-.316-.003-.644-.045-.978-.127l.07-1.267c.234.022.454.013.659-.034.205-.048.396-.16.571-.339.175-.178.336-.437.479-.772.145-.337.274-.786.392-1.35.118-.562.22-1.252.306-2.069.084-.816.151-1.792.206-2.922h5.447v8.821zM764.94 76.481h-3.349v7.506h-1.547v-7.506h-3.351v-1.317h8.244l.003 1.317zM772.844 83.987l-.035-1.188c-.48.476-.969.817-1.463 1.028-.496.211-1.018.315-1.563.315-.504 0-.935-.063-1.292-.192-.355-.13-.649-.307-.884-.532-.229-.227-.4-.49-.51-.795-.107-.306-.162-.637-.162-.993 0-.885.33-1.577.988-2.078.66-.501 1.634-.751 2.923-.751h1.828v-.773c0-.521-.167-.938-.501-1.252s-.846-.47-1.529-.47c-.498 0-.988.056-1.473.167-.482.11-.982.271-1.498.475v-1.38c.191-.069.408-.139.646-.207.236-.066.487-.127.751-.18.264-.054.539-.096.826-.127.287-.032.577-.049.87-.049.533 0 1.014.06 1.439.177.429.116.789.296 1.087.536.296.239.521.542.682.904.159.362.237.791.237 1.282v6.082h-1.367v.001zm-.167-4.017h-1.942c-.381 0-.709.037-.984.113-.273.076-.5.186-.677.325-.176.14-.306.31-.392.505-.084.195-.127.417-.127.664 0 .17.024.333.079.487.053.155.138.293.255.413.116.12.27.215.457.286.187.07.416.104.686.104.354 0 .754-.106 1.209-.321.453-.214.934-.552 1.438-1.015l-.002-1.561zM785.008 83.987h-2.103l-4.111-4.729v4.729h-1.529v-8.823h1.529v4.033l3.964-4.033h2.021l-4.14 4.068 4.369 4.755zM788.618 75.163v6.214l3.852-6.214h1.459v8.823h-1.529v-6.214l-3.85 6.214h-1.459v-8.823h1.527zM804.924 83.987h-1.514l-.229-5.511-.099-1.96-.519 1.371-1.652 4.008h-1.114l-1.593-3.851-.554-1.528-.07 2.073-.235 5.396h-1.459l.563-8.823h2.03l1.512 3.807.413 1.134.413-1.134 1.547-3.807h2.004l.556 8.825zM810.23 81.219c.199 0 .389.037.566.113.18.076.334.183.467.315.131.136.233.292.312.471.077.178.114.37.114.575 0 .199-.038.388-.114.563-.076.176-.181.33-.312.461-.133.133-.287.236-.467.313s-.367.114-.566.114c-.205 0-.396-.038-.571-.114-.175-.075-.329-.18-.462-.313-.131-.132-.233-.285-.312-.461-.078-.175-.114-.362-.114-.563 0-.205.038-.396.114-.575.076-.18.181-.335.312-.471.133-.135.286-.239.462-.315.178-.076.366-.113.571-.113zM820.129 81.219c.197 0 .389.037.564.113.18.076.334.183.467.315.131.136.235.292.313.471.077.178.114.37.114.575 0 .199-.038.388-.114.563-.076.176-.183.33-.313.461-.133.133-.287.236-.467.313-.178.076-.367.114-.564.114-.205 0-.396-.038-.571-.114-.175-.075-.329-.18-.462-.313-.131-.132-.235-.285-.313-.461-.078-.175-.112-.362-.112-.563 0-.205.038-.396.112-.575.076-.18.183-.335.313-.471.133-.135.286-.239.462-.315s.366-.113.571-.113zM830.023 81.219c.199 0 .389.037.566.113.18.076.334.183.467.315.131.136.233.292.312.471.077.178.114.37.114.575 0 .199-.038.388-.114.563-.075.177-.181.33-.312.461-.133.133-.287.236-.467.313s-.367.114-.566.114c-.205 0-.396-.038-.571-.114-.175-.075-.329-.18-.462-.313-.131-.132-.233-.285-.312-.461-.078-.175-.114-.362-.114-.563 0-.205.038-.396.114-.575.076-.18.181-.335.312-.471.133-.135.286-.239.462-.315.178-.076.366-.113.571-.113z"/><path fill="none" d="M320.486 49.967h262v22.033h-262z"/><path d="M336.982 62.387h-1.969l-4.3-5.635v5.635h-1.563v-11.487h1.563v5.335l4.21-5.335h1.854l-4.535 5.458 4.74 6.029zM344.752 62.387l-.035-1.188c-.479.475-.968.816-1.463 1.027s-1.015.315-1.56.315c-.504 0-.937-.063-1.292-.192-.357-.129-.652-.307-.883-.532-.231-.227-.401-.49-.512-.795-.107-.304-.161-.636-.161-.993 0-.885.329-1.577.987-2.078.659-.501 1.635-.751 2.922-.751h1.828v-.772c0-.521-.167-.939-.501-1.252-.334-.313-.844-.471-1.527-.471-.498 0-.989.057-1.474.167-.481.11-.981.271-1.499.476v-1.38c.193-.07.409-.14.646-.207.236-.068.488-.127.751-.181s.539-.096.826-.127c.287-.032.576-.049.87-.049.531 0 1.014.06 1.439.177.427.116.79.296 1.085.536.295.239.523.542.682.904.157.363.236.791.236 1.283v6.082h-1.365v.001zm-.167-4.016h-1.94c-.381 0-.709.038-.984.113-.275.076-.501.186-.677.325-.176.141-.308.31-.393.505-.085.196-.127.417-.127.664 0 .17.026.333.079.487.055.155.14.293.255.413.117.12.271.216.457.286.188.07.416.104.688.104.352 0 .754-.106 1.208-.32.454-.215.933-.553 1.437-1.016l-.003-1.561zM356.916 62.387h-2.101l-4.113-4.729v4.729h-1.529v-8.824h1.529v4.034l3.964-4.034h2.021l-4.142 4.068 4.371 4.756zM376.226 57.509l-.011.546-.024.412h-6.196c0 .902.252 1.596.756 2.079s1.23.726 2.182.726c.258 0 .516-.01.771-.031.257-.021.507-.048.747-.083.24-.034.47-.074.69-.118.22-.044.423-.093.609-.146v1.257c-.416.117-.886.212-1.411.286-.523.074-1.066.109-1.63.109-.756 0-1.404-.104-1.95-.309-.546-.204-.991-.502-1.341-.892-.348-.391-.604-.867-.771-1.434-.167-.565-.25-1.206-.25-1.92 0-.621.089-1.208.268-1.763.181-.555.439-1.04.782-1.459s.763-.751 1.261-.998 1.063-.369 1.696-.369c.615 0 1.16.098 1.635.29.477.193.875.468 1.2.822s.571.784.738 1.292c.167.508.249 1.076.249 1.703zm-1.591-.219c.018-.394-.021-.751-.114-1.077-.093-.325-.239-.604-.437-.839-.194-.233-.439-.417-.732-.549-.293-.133-.633-.198-1.021-.198-.334 0-.639.063-.914.192-.273.129-.513.312-.712.545-.199.234-.358.517-.481.845s-.199.688-.229 1.081h4.64zM385.524 62.062c-.398.151-.809.266-1.228.338-.419.073-.851.11-1.296.11-1.395 0-2.468-.379-3.221-1.135s-1.129-1.859-1.129-3.313c0-.696.106-1.33.325-1.897.217-.567.521-1.056.914-1.459s.859-.717 1.404-.937c.545-.221 1.146-.33 1.804-.33.457 0 .885.032 1.281.098.398.064.779.17 1.145.315v1.459c-.381-.199-.771-.344-1.165-.436-.396-.091-.804-.136-1.228-.136-.393 0-.763.074-1.11.224-.351.148-.655.365-.918.646-.265.281-.474.624-.624 1.028-.152.403-.229.86-.229 1.371 0 1.065.26 1.864.778 2.395s1.238.796 2.158.796c.416 0 .817-.048 1.208-.142.389-.095.766-.233 1.129-.422l.002 1.427zM396.229 54.881h-3.351v7.507h-1.547v-7.507h-3.349v-1.317h8.244l.003 1.317zM400.044 56.894l.439-.014.448-.009.481-.01.554-.004c1.359 0 2.369.232 3.028.699.659.466.989 1.146.989 2.043 0 .961-.349 1.684-1.046 2.167s-1.752.726-3.164.726c-.639 0-1.217-.014-1.736-.04-.519-.026-1.025-.072-1.523-.137v-8.754h1.527l.003 3.333zm4.359 2.742c0-.246-.045-.462-.136-.646s-.236-.34-.437-.466-.457-.221-.771-.286c-.316-.064-.697-.097-1.145-.097l-.923.009-.949.026v2.943c.3.028.587.051.866.065.279.016.584.021.918.021.492 0 .902-.03 1.23-.092s.592-.155.791-.281c.197-.126.341-.289.426-.487.086-.198.13-.433.13-.709zM425.348 62.387h-1.529v-3.902h-4.034v3.902h-1.529v-8.824h1.529v3.586h4.034v-3.586h1.529v8.824zM433.82 62.387l-.035-1.188c-.479.475-.968.816-1.463 1.027s-1.015.315-1.56.315c-.504 0-.937-.063-1.292-.192-.357-.129-.652-.307-.883-.532-.231-.227-.401-.49-.512-.795-.107-.304-.163-.636-.163-.993 0-.885.33-1.577.989-2.078s1.633-.751 2.922-.751h1.828v-.772c0-.521-.167-.939-.501-1.252-.334-.313-.844-.471-1.528-.471-.498 0-.988.057-1.473.167-.481.11-.981.271-1.499.476v-1.38c.193-.07.409-.14.646-.207.235-.068.486-.127.751-.181.263-.054.539-.096.824-.127.287-.032.577-.049.87-.049.533 0 1.016.06 1.441.177.427.116.79.296 1.085.536.295.239.523.542.681.904.158.363.237.791.237 1.283v6.082h-1.365v.001zm-.167-4.016h-1.94c-.383 0-.709.038-.984.113-.275.076-.501.186-.677.325-.177.141-.308.31-.393.505-.085.196-.127.417-.127.664 0 .17.026.333.079.487.053.155.139.293.255.413.117.12.271.216.457.286.188.07.416.104.688.104.352 0 .754-.106 1.208-.32.454-.215.933-.553 1.437-1.016l-.003-1.561zM454.802 62.062c-.398.151-.809.266-1.228.338-.419.073-.851.11-1.296.11-1.395 0-2.468-.379-3.221-1.135s-1.129-1.859-1.129-3.313c0-.696.106-1.33.325-1.897.217-.567.521-1.056.914-1.459s.859-.717 1.404-.937c.545-.221 1.146-.33 1.803-.33.457 0 .886.032 1.282.098.398.064.779.17 1.145.315v1.459c-.381-.199-.771-.344-1.165-.436-.396-.091-.805-.136-1.228-.136-.393 0-.763.074-1.11.224-.351.148-.655.365-.918.646-.265.281-.474.624-.624 1.028-.152.403-.229.86-.229 1.371 0 1.065.259 1.864.778 2.395.519.53 1.237.796 2.158.796.416 0 .817-.048 1.208-.142.389-.095.766-.233 1.129-.422l.002 1.427zM463.51 62.387l-.035-1.188c-.48.475-.969.816-1.463 1.027-.496.211-1.018.315-1.563.315-.504 0-.935-.063-1.292-.192-.355-.129-.65-.307-.883-.532-.229-.227-.4-.49-.51-.795-.109-.304-.163-.636-.163-.993 0-.885.33-1.577.989-2.078.66-.501 1.633-.751 2.922-.751h1.828v-.772c0-.521-.167-.939-.501-1.252-.334-.313-.846-.471-1.529-.471-.498 0-.988.057-1.473.167-.482.11-.982.271-1.498.476v-1.38c.191-.07.407-.14.646-.207.237-.067.488-.127.751-.181.265-.054.539-.096.826-.127.287-.032.577-.049.87-.049.533 0 1.014.06 1.439.177.429.116.789.296 1.088.536.295.239.521.542.681.904.159.363.237.791.237 1.283v6.082h-1.367v.001zm-.166-4.016h-1.944c-.381 0-.709.038-.984.113-.273.076-.501.186-.677.325-.176.141-.306.31-.392.505-.084.196-.127.417-.127.664 0 .17.024.333.079.487.053.155.138.293.255.413s.27.216.457.286c.187.07.416.104.686.104.354 0 .754-.106 1.209-.32.453-.215.935-.553 1.438-1.016v-1.561zM475.799 62.387h-1.514l-.229-5.512-.098-1.96-.52 1.371-1.652 4.008h-1.114l-1.593-3.851-.554-1.528-.07 2.073-.235 5.396h-1.459l.563-8.824h2.03l1.512 3.807.413 1.134.413-1.134 1.547-3.807h2.004l.556 8.827zM485.315 57.905c0 .687-.097 1.314-.29 1.886-.193.57-.472 1.062-.835 1.468-.363.407-.806.725-1.327.949-.521.226-1.113.338-1.773.338-.635 0-1.199-.099-1.701-.294-.5-.195-.926-.484-1.273-.865-.35-.382-.613-.854-.801-1.415-.184-.563-.276-1.21-.276-1.942 0-.686.099-1.311.29-1.876.193-.564.474-1.052.835-1.459.363-.406.808-.724 1.327-.948.521-.226 1.113-.339 1.775-.339.633 0 1.199.099 1.701.295.5.195.926.482 1.271.86.352.378.615.849.801 1.411.184.56.276 1.204.276 1.931zm-1.562.07c0-.545-.062-1.021-.183-1.429-.119-.406-.291-.747-.514-1.021-.223-.272-.494-.479-.813-.614-.318-.139-.676-.207-1.066-.207-.457 0-.85.089-1.174.269-.324.179-.594.417-.801.716-.209.299-.359.646-.457 1.042-.098.396-.146.811-.146 1.244 0 .545.06 1.021.181 1.434.119.409.291.751.516 1.023.223.272.49.479.809.614.318.137.674.207 1.072.207.457 0 .848-.089 1.174-.269.324-.179.592-.417.799-.716.209-.299.361-.646.457-1.042.096-.394.146-.811.146-1.251zM495.592 62.387h-1.514l-.229-5.512-.097-1.96-.521 1.371-1.652 4.008h-1.114l-1.591-3.851-.556-1.528-.069 2.073-.236 5.396h-1.459l.563-8.824h2.03l1.512 3.807.413 1.134.413-1.134 1.547-3.807h2.004l.556 8.827zM515.515 61.069l-.097 3.568h-1.397v-2.25h-6.434v2.25h-1.381l-.089-3.568h.123c.225 0 .436-.034.634-.104.198-.069.385-.203.555-.399.17-.195.327-.469.47-.816.146-.35.273-.801.387-1.354.115-.555.217-1.227.301-2.018.086-.791.155-1.729.216-2.813h5.447v7.506h1.266v-.002zm-2.795-6.188h-2.461c-.061 1.009-.137 1.866-.229 2.575s-.204 1.305-.329 1.783c-.127.48-.271.864-.436 1.151s-.346.513-.545.677h3.999l.001-6.186zM524.675 57.509l-.011.546-.024.412h-6.196c0 .902.252 1.596.756 2.079s1.23.726 2.182.726c.258 0 .516-.01.771-.031.257-.021.507-.048.747-.083.24-.034.47-.074.69-.118.219-.044.423-.093.608-.146v1.257c-.416.117-.886.212-1.411.286-.521.072-1.065.109-1.63.109-.756 0-1.405-.104-1.951-.309-.545-.204-.989-.502-1.341-.892-.348-.391-.604-.867-.771-1.434-.166-.564-.25-1.206-.25-1.92 0-.621.09-1.208.268-1.763.18-.555.439-1.04.783-1.459.342-.419.763-.751 1.261-.998s1.063-.369 1.696-.369c.615 0 1.16.098 1.635.29.477.193.875.468 1.199.822.326.354.572.784.738 1.292.168.509.251 1.076.251 1.703zm-1.593-.219c.02-.394-.021-.751-.112-1.077-.095-.325-.239-.604-.437-.839-.196-.233-.439-.417-.732-.549-.293-.133-.634-.198-1.021-.198-.334 0-.639.063-.914.192-.273.129-.513.312-.712.545-.198.234-.359.517-.481.845-.123.328-.199.688-.229 1.081h4.638zM534.132 62.387h-1.529v-7.507h-2.461c-.07 1.207-.175 2.241-.313 3.104-.139.861-.304 1.581-.497 2.158-.191.577-.413 1.03-.657 1.361-.246.331-.514.571-.795.722-.285.148-.586.223-.901.22-.316-.003-.644-.045-.978-.127l.07-1.266c.234.022.454.012.659-.035s.396-.16.571-.338c.175-.179.336-.438.479-.773.146-.337.274-.786.394-1.349.116-.563.218-1.252.304-2.07.084-.816.153-1.792.206-2.922h5.449v8.822zM544.468 57.509l-.011.546-.024.412h-6.196c0 .902.252 1.596.756 2.079s1.23.726 2.182.726c.258 0 .516-.01.771-.031.257-.021.507-.048.747-.083.24-.034.47-.074.69-.118.219-.044.423-.093.608-.146v1.257c-.416.117-.886.212-1.411.286-.521.072-1.065.109-1.63.109-.756 0-1.405-.104-1.95-.309-.546-.204-.99-.502-1.342-.892-.348-.391-.604-.867-.771-1.434-.166-.564-.25-1.206-.25-1.92 0-.621.09-1.208.268-1.763.182-.555.439-1.04.783-1.459.342-.419.763-.751 1.261-.998s1.063-.369 1.696-.369c.615 0 1.16.098 1.635.29.477.193.875.468 1.199.822.326.354.572.784.738 1.292.168.509.251 1.076.251 1.703zm-1.593-.219c.02-.394-.021-.751-.112-1.077-.094-.325-.239-.604-.437-.839-.195-.233-.439-.417-.732-.549-.293-.133-.634-.198-1.021-.198-.334 0-.639.063-.914.192-.273.129-.513.312-.712.545-.198.234-.358.517-.481.845s-.199.688-.229 1.081h4.638zM550.383 59.619c.197 0 .389.037.564.113.181.076.334.183.467.315.132.136.235.292.313.471.078.178.114.371.114.576 0 .198-.038.387-.114.563s-.182.329-.313.461c-.133.132-.286.235-.467.313-.178.075-.367.113-.564.113-.205 0-.396-.038-.571-.113-.175-.076-.329-.181-.462-.313-.131-.133-.235-.286-.313-.461-.076-.176-.112-.363-.112-.563 0-.205.038-.397.112-.576.076-.18.183-.335.313-.471.133-.135.286-.239.462-.315s.365-.113.571-.113zM560.277 59.619c.199 0 .389.037.566.113.18.076.334.183.467.315.131.136.234.292.312.471.078.178.114.371.114.576 0 .198-.038.387-.114.563-.074.176-.181.329-.312.461-.133.132-.287.235-.467.313-.18.075-.367.113-.566.113-.205 0-.396-.038-.571-.113-.175-.076-.327-.181-.462-.313-.131-.133-.233-.286-.312-.461-.077-.176-.114-.363-.114-.563 0-.205.038-.397.114-.576.076-.18.181-.335.312-.471.135-.135.286-.239.462-.315.178-.076.366-.113.571-.113zM570.176 59.619c.197 0 .389.037.564.113.182.076.334.183.467.315.133.136.235.292.313.471.078.178.114.371.114.576 0 .198-.038.387-.114.563s-.181.329-.313.461-.285.235-.467.313c-.178.075-.367.113-.564.113-.205 0-.396-.038-.571-.113-.175-.076-.329-.181-.462-.313-.131-.133-.235-.286-.313-.461-.075-.176-.112-.363-.112-.563 0-.205.038-.397.112-.576.076-.18.183-.335.313-.471.133-.135.286-.239.462-.315s.364-.113.571-.113z"/><path fill="none" d="M0 44.526h262v66h-262z"/><path d="M26.12 53.509c0 .552-.105 1.039-.321 1.464-.214.424-.519.783-.914 1.076-.395.293-.871.517-1.433.668-.56.152-1.182.229-1.868.229h-3.006v-11.488h3.287c2.561 0 3.841.933 3.841 2.795 0 .621-.146 1.153-.442 1.601-.298.445-.778.775-1.446.993.311.059.604.157.883.299.278.142.523.321.734.545s.378.486.501.791c.121.304.184.646.184 1.027zm-2.039-5.045c0-.233-.035-.456-.104-.664-.07-.208-.193-.387-.369-.535-.176-.149-.413-.269-.712-.355-.299-.089-.679-.133-1.134-.133h-1.617v3.596h1.563c.357 0 .683-.038.973-.114.29-.075.537-.192.745-.353.208-.158.369-.355.483-.593s.172-.521.172-.849zm.378 5.098c0-.293-.062-.558-.185-.791s-.302-.433-.536-.593c-.234-.161-.521-.286-.857-.374-.336-.089-.716-.133-1.138-.133h-1.6v3.955h1.65c.896 0 1.564-.167 2.004-.501.442-.333.662-.854.662-1.563zM29.319 51.531l.593-.013.576-.004c.551 0 1.033.065 1.446.197.413.133.757.315 1.031.555.276.237.48.521.615.854s.202.689.202 1.076c0 .47-.079.881-.237 1.235-.156.354-.384.651-.677.892s-.652.423-1.077.546-.93.186-1.516.186c-.375 0-.772-.011-1.191-.031-.419-.021-.845-.063-1.277-.127v-8.771h1.512v3.405zm2.883 2.708c0-.463-.145-.821-.435-1.076-.29-.256-.751-.383-1.386-.383l-.519.01-.545.025v2.899c.188.029.366.049.536.058l.51.014c.357 0 .653-.042.888-.127.235-.086.42-.198.56-.339.138-.14.235-.305.299-.491.062-.188.092-.385.092-.59zm2.549 2.707v-8.823h1.514v8.823h-1.514zM56.478 55.627l-.099 3.567h-1.396v-2.25h-6.433v2.25h-1.38l-.088-3.567h.123c.225 0 .436-.035.633-.104.199-.069.386-.204.556-.399s.327-.47.47-.816c.143-.348.271-.801.387-1.354.115-.555.214-1.227.299-2.018s.157-1.729.217-2.813h5.447v7.506h1.264zm-2.795-6.187h-2.461c-.061 1.008-.137 1.866-.229 2.575s-.204 1.304-.33 1.783-.271.864-.435 1.151c-.164.286-.348.513-.545.677h3.999l.001-6.186zM66.031 48.122l-3.006 7.894c-.313.803-.631 1.494-.962 2.073-.331.58-.693 1.057-1.085 1.429-.394.372-.823.646-1.292.821-.471.177-.993.265-1.573.265l-.413-.009-.404-.026v-1.389l.422.048c.152.015.313.021.483.021.281 0 .543-.041.787-.123s.473-.215.69-.399c.217-.186.425-.423.624-.716.197-.294.393-.647.578-1.063l-3.522-8.823h1.74l2.23 5.836.448 1.371.51-1.406 2.065-5.801 1.68-.003zM76.139 56.946h-1.514l-.229-5.511-.099-1.96-.519 1.371-1.652 4.008h-1.114l-1.593-3.851-.554-1.528-.07 2.073-.235 5.396h-1.459l.563-8.823h2.03l1.512 3.807.413 1.134.413-1.134 1.547-3.807h2.004l.556 8.825zM83.645 56.946l-.035-1.188c-.48.476-.968.817-1.463 1.028s-1.017.315-1.562.315c-.504 0-.935-.063-1.292-.192-.355-.13-.65-.307-.883-.532-.229-.227-.399-.49-.51-.795-.109-.305-.163-.637-.163-.993 0-.885.33-1.577.989-2.078s1.633-.751 2.922-.751h1.828v-.773c0-.521-.167-.938-.501-1.252s-.846-.47-1.529-.47c-.498 0-.989.056-1.472.167-.483.11-.983.271-1.499.475v-1.38c.191-.069.408-.139.646-.207.237-.067.488-.127.751-.18.265-.054.539-.096.826-.127.287-.032.577-.049.87-.049.533 0 1.014.06 1.44.177.428.116.789.296 1.086.536.295.239.521.542.681.904.158.362.237.791.237 1.282v6.082h-1.367v.001zm-.167-4.017h-1.942c-.381 0-.709.037-.982.113-.275.076-.503.186-.679.325s-.306.31-.391.505-.127.417-.127.664c0 .17.024.333.079.487.053.155.138.293.255.413s.27.215.457.286c.187.07.416.104.686.104.354 0 .754-.106 1.208-.321.454-.214.935-.552 1.438-1.015l-.002-1.561zM95.325 52.068l-.009.545-.026.413h-6.194c0 .902.252 1.596.756 2.079s1.229.726 2.18.726c.258 0 .516-.011.773-.031.257-.021.507-.048.745-.083.24-.034.472-.074.69-.118l.611-.146v1.257c-.416.117-.888.212-1.411.286-.525.073-1.068.109-1.63.109-.756 0-1.406-.104-1.951-.309s-.992-.502-1.34-.893c-.35-.39-.606-.866-.773-1.433-.167-.567-.25-1.206-.25-1.92 0-.621.089-1.208.27-1.763.179-.555.438-1.04.78-1.459.345-.419.765-.751 1.263-.998s1.063-.369 1.694-.369c.615 0 1.16.098 1.637.29.475.192.875.468 1.198.822.325.354.571.784.738 1.292s.249 1.076.249 1.703zm-1.591-.22c.018-.394-.021-.751-.114-1.077s-.239-.604-.435-.839c-.196-.234-.441-.417-.734-.55-.293-.132-.633-.197-1.02-.197-.334 0-.641.063-.914.192-.275.129-.515.312-.712.545-.199.233-.36.517-.483.845s-.199.688-.229 1.081h4.641zM105.433 49.44h-3.351v7.506h-1.547v-7.506h-3.349v-1.317h8.244l.003 1.317zM115.118 52.068l-.009.545-.026.413h-6.194c0 .902.252 1.596.756 2.079s1.229.726 2.18.726c.258 0 .516-.011.773-.031.257-.021.507-.048.745-.083.24-.034.472-.074.69-.118l.611-.146v1.257c-.416.117-.888.212-1.411.286-.525.073-1.068.109-1.63.109-.756 0-1.406-.104-1.951-.309s-.992-.502-1.34-.893c-.35-.39-.606-.866-.773-1.433-.167-.567-.25-1.206-.25-1.92 0-.621.089-1.208.27-1.763.179-.555.438-1.04.78-1.459.345-.419.765-.751 1.263-.998s1.063-.369 1.694-.369c.615 0 1.16.098 1.637.29.475.192.875.468 1.198.822.325.354.571.784.738 1.292s.249 1.076.249 1.703zm-1.591-.22c.018-.394-.021-.751-.114-1.077s-.239-.604-.435-.839c-.196-.234-.441-.417-.734-.55-.293-.132-.633-.197-1.02-.197-.334 0-.641.063-.914.192-.275.129-.515.312-.712.545-.199.233-.36.517-.483.845s-.199.688-.229 1.081h4.641zM118.247 58.748c.299.013.589-.016.87-.079s.529-.159.743-.286c.214-.126.385-.282.514-.47s.193-.4.193-.643c0-.246-.042-.444-.127-.599-.085-.153-.18-.293-.286-.422s-.201-.268-.286-.413-.127-.343-.127-.589c0-.123.023-.252.07-.388.047-.135.119-.258.215-.368.096-.111.22-.202.369-.271.147-.07.327-.104.532-.104.203 0 .401.042.593.127.188.085.355.215.501.391.144.177.258.396.343.659.085.264.127.574.127.933 0 .485-.089.954-.268 1.401-.181.448-.445.846-.802 1.19-.354.347-.797.621-1.325.826-.53.205-1.147.309-1.852.309l.003-1.204zM142.918 53.527h-1.818c-1.365 0-2.367-.255-3.008-.765-.639-.511-.956-1.251-.956-2.225v-2.417h1.547v2.215c0 .353.047.646.141.889.094.241.245.436.453.584s.475.256.8.32.719.098 1.182.098h1.661v-4.104h1.529v8.823h-1.529l-.002-3.418zM154.915 49.44h-3.349v7.506h-1.547v-7.506h-3.351v-1.317h8.244l.003 1.317zM164.829 52.463c0 .687-.097 1.313-.29 1.886-.191.57-.472 1.062-.835 1.468-.363.407-.806.725-1.327.949-.521.225-1.111.338-1.773.338-.633 0-1.2-.099-1.701-.294-.501-.196-.926-.485-1.274-.866s-.613-.854-.8-1.415c-.185-.563-.277-1.21-.277-1.941 0-.687.099-1.312.29-1.876.193-.564.474-1.052.835-1.459.363-.406.808-.725 1.327-.948.521-.226 1.113-.339 1.775-.339.633 0 1.2.099 1.701.294.501.196.926.482 1.272.861.35.378.615.849.802 1.41.183.563.275 1.206.275 1.932zm-1.564.071c0-.546-.062-1.021-.182-1.429s-.292-.747-.514-1.021c-.222-.272-.494-.479-.813-.614-.317-.138-.675-.207-1.066-.207-.457 0-.85.089-1.173.268-.325.18-.594.417-.802.717-.208.299-.358.646-.457 1.042-.097.396-.145.811-.145 1.244 0 .545.06 1.021.18 1.433.12.412.292.752.516 1.023.222.273.49.479.809.615.317.138.674.207 1.072.207.457 0 .848-.089 1.173-.269s.592-.417.8-.716c.208-.3.36-.646.457-1.042.097-.394.145-.812.145-1.251zM184.033 56.946h-1.529v-7.487h-4.032v7.487h-1.529v-8.823h7.093l-.003 8.823zM194.378 52.375c0 .785-.108 1.472-.33 2.058-.22.586-.521 1.071-.908 1.459-.389.387-.846.677-1.371.87-.527.192-1.101.29-1.714.29-.281 0-.563-.016-.841-.045-.276-.028-.561-.078-.848-.148v3.69h-1.529v-12.427h1.362l.097 1.478c.439-.604.908-1.027 1.406-1.271s1.037-.365 1.617-.365c.504 0 .946.104 1.327.315.381.212.7.509.958.893.258.385.451.848.58 1.39s.194 1.146.194 1.813zm-1.565.071c0-.463-.034-.888-.103-1.273-.065-.386-.174-.718-.319-.992-.147-.275-.334-.491-.563-.646-.229-.155-.501-.232-.815-.232-.193 0-.392.03-.591.092-.197.062-.404.164-.618.309-.216.145-.439.334-.679.57-.236.236-.491.532-.76.883v4.28c.281.117.577.209.888.276.313.067.615.102.914.102.826 0 1.476-.28 1.942-.839.467-.561.704-1.405.704-2.53zM204.415 52.463c0 .687-.097 1.313-.29 1.886-.191.57-.472 1.062-.835 1.468-.361.407-.806.725-1.327.949-.521.225-1.111.338-1.773.338-.633 0-1.2-.099-1.701-.294-.501-.196-.926-.485-1.274-.866s-.613-.854-.8-1.415c-.185-.563-.275-1.21-.275-1.941 0-.687.097-1.312.289-1.876s.473-1.052.836-1.459c.361-.406.806-.725 1.325-.948.521-.226 1.113-.339 1.775-.339.633 0 1.2.099 1.701.294.501.196.926.482 1.272.861.35.378.615.849.802 1.41.183.563.275 1.206.275 1.932zm-1.564.071c0-.546-.062-1.021-.182-1.429-.119-.407-.292-.747-.514-1.021-.222-.272-.494-.479-.813-.614-.318-.138-.676-.207-1.067-.207-.457 0-.848.089-1.173.268-.325.18-.592.417-.8.717-.208.299-.36.646-.457 1.042-.099.396-.146.811-.146 1.244 0 .545.062 1.021.18 1.433.12.411.292.752.516 1.023.222.273.492.479.809.615.317.138.674.207 1.072.207.457 0 .848-.089 1.173-.269s.592-.417.8-.716c.208-.3.36-.646.457-1.042.097-.394.145-.812.145-1.251zM214.707 55.627l-.088 3.567h-1.389v-2.25h-6.671v-8.823h1.527v7.506h4.025v-7.506h1.529v7.506h1.067zM223.979 52.068l-.009.545-.026.413h-6.196c0 .902.252 1.596.756 2.079s1.23.726 2.182.726c.258 0 .516-.011.771-.031.257-.021.507-.048.747-.083.24-.034.47-.074.69-.118.22-.044.423-.093.609-.146v1.257c-.416.117-.886.212-1.409.286-.525.073-1.068.109-1.632.109-.756 0-1.404-.104-1.949-.309-.547-.205-.992-.502-1.342-.893-.348-.39-.604-.866-.771-1.433-.167-.567-.25-1.206-.25-1.92 0-.621.089-1.208.268-1.763.181-.555.439-1.04.782-1.459s.763-.751 1.261-.998 1.063-.369 1.696-.369c.615 0 1.16.098 1.635.29.477.192.875.468 1.2.822s.571.784.738 1.292.249 1.076.249 1.703zm-1.59-.22c.018-.394-.021-.751-.114-1.077s-.239-.604-.437-.839c-.194-.234-.439-.417-.732-.55-.293-.132-.633-.197-1.021-.197-.334 0-.639.063-.914.192-.273.129-.513.312-.712.545-.197.233-.358.517-.481.845s-.199.688-.229 1.081h4.64zM233.278 56.621c-.398.151-.807.266-1.226.338-.421.072-.853.109-1.298.109-1.395 0-2.468-.378-3.221-1.134s-1.129-1.859-1.129-3.313c0-.697.108-1.33.325-1.897.217-.568.521-1.056.914-1.459.393-.404.859-.717 1.405-.937.546-.221 1.146-.33 1.803-.33.457 0 .885.031 1.283.098.396.064.777.17 1.143.315v1.459c-.381-.199-.769-.345-1.165-.436-.396-.091-.804-.137-1.226-.137-.395 0-.765.075-1.112.225-.349.148-.655.365-.918.646s-.472.624-.624 1.027c-.152.404-.229.861-.229 1.371 0 1.065.261 1.865.778 2.396.521.53 1.238.795 2.158.795.416 0 .819-.047 1.208-.141.389-.095.766-.234 1.129-.423l.002 1.428zM243.175 56.621c-.396.151-.807.266-1.226.338s-.851.109-1.296.109c-1.396 0-2.468-.378-3.221-1.134s-1.129-1.859-1.129-3.313c0-.697.106-1.33.323-1.897.219-.568.521-1.056.914-1.459.395-.404.861-.717 1.406-.937.545-.221 1.146-.33 1.802-.33.457 0 .887.031 1.283.098.398.064.779.17 1.145.315v1.459c-.383-.199-.771-.345-1.165-.436-.396-.091-.806-.137-1.228-.137-.393 0-.763.075-1.112.225-.349.148-.653.365-.918.646-.263.281-.472.624-.624 1.027-.15.404-.229.861-.229 1.371 0 1.065.259 1.865.778 2.396.519.53 1.236.795 2.156.795.416 0 .819-.047 1.208-.141.391-.095.768-.234 1.13-.423l.003 1.428zM79.628 69.721v6.214l3.852-6.214h1.459v8.823h-1.529v-6.214l-3.85 6.214h-1.46v-8.823h1.528zM96.063 77.227l-.099 3.567h-1.396v-2.25h-6.434v2.25h-1.382l-.088-3.567h.123c.225 0 .436-.035.633-.104.199-.069.386-.204.556-.399.17-.196.327-.47.47-.817s.272-.8.387-1.354c.115-.555.214-1.227.299-2.018.087-.791.157-1.729.217-2.813h5.447v7.506l1.267-.001zm-2.794-6.187h-2.461c-.061 1.008-.137 1.865-.229 2.574s-.204 1.305-.33 1.784-.271.864-.435 1.15c-.164.287-.348.514-.545.678h3.999l.001-6.186zM105.222 73.667l-.011.545-.024.413h-6.197c0 .901.252 1.596.756 2.079s1.23.726 2.18.726c.26 0 .518-.011.773-.031.257-.021.507-.048.747-.083l.69-.119c.22-.044.423-.092.609-.145v1.257c-.416.116-.886.212-1.411.286-.523.073-1.066.109-1.63.109-.756 0-1.406-.104-1.951-.309s-.99-.502-1.34-.893c-.348-.391-.604-.866-.771-1.434-.167-.565-.25-1.206-.25-1.92 0-.621.089-1.208.268-1.762.179-.555.439-1.04.782-1.459s.763-.751 1.261-.998 1.063-.369 1.696-.369c.615 0 1.16.098 1.635.29s.875.467 1.2.821.571.785.738 1.292c.167.509.25 1.078.25 1.704zm-1.591-.219c.02-.393-.021-.751-.112-1.076-.095-.326-.239-.604-.437-.84-.194-.233-.439-.417-.732-.549s-.635-.197-1.021-.197c-.334 0-.639.063-.914.192-.273.129-.513.312-.712.545s-.36.517-.481.845c-.123.327-.199.688-.229 1.08h4.638zM115.329 71.04h-3.349v7.506h-1.547v-7.506h-3.351v-1.317h8.244l.003 1.317zM135.122 71.04h-3.349v7.506h-1.547v-7.506h-3.351v-1.317h8.244l.003 1.317zM143.023 78.545l-.035-1.188c-.48.476-.968.816-1.463 1.028-.495.211-1.017.315-1.562.315-.504 0-.935-.063-1.292-.193-.355-.129-.65-.306-.883-.531-.229-.227-.399-.491-.51-.795-.11-.305-.163-.637-.163-.993 0-.885.33-1.578.989-2.079s1.633-.751 2.922-.751h1.828v-.772c0-.521-.167-.938-.501-1.252-.334-.313-.845-.471-1.529-.471-.498 0-.989.057-1.472.167-.483.111-.983.271-1.499.476v-1.38c.191-.069.409-.14.646-.207.237-.067.488-.127.751-.181.265-.053.539-.095.826-.127.287-.031.577-.048.87-.048.533 0 1.014.06 1.441.176.427.117.79.297 1.085.536.295.24.521.542.681.905.159.362.237.791.237 1.282v6.082h-1.367v.001zm-.167-4.016h-1.942c-.381 0-.709.038-.982.114-.275.076-.501.186-.679.325-.176.14-.306.309-.391.505-.085.195-.127.417-.127.664 0 .17.026.333.079.487s.138.293.255.413.27.215.457.285c.187.071.416.105.686.105.354 0 .754-.107 1.208-.321s.935-.552 1.438-1.016l-.002-1.561zM155.188 78.545h-2.103l-4.111-4.729v4.729h-1.529v-8.823h1.529v4.033l3.964-4.033h2.021l-4.14 4.068 4.369 4.755zM160.619 75.777c.199 0 .388.038.567.114.179.075.334.182.466.315s.236.292.312.471c.076.178.114.37.114.575 0 .199-.038.388-.114.563-.074.177-.18.33-.312.461-.132.132-.287.236-.466.313-.181.076-.368.114-.567.114-.205 0-.396-.038-.571-.114-.175-.075-.33-.18-.461-.313-.131-.132-.234-.286-.312-.461s-.114-.362-.114-.563c0-.205.038-.396.114-.575.076-.18.18-.336.312-.471.134-.136.286-.24.461-.315.175-.076.366-.114.571-.114zM170.516 75.777c.197 0 .388.038.565.114.181.075.334.182.466.315.134.134.236.292.313.471.077.178.114.37.114.575 0 .199-.038.388-.114.563-.076.177-.18.33-.313.461-.132.132-.285.236-.466.313-.179.076-.368.114-.565.114-.205 0-.396-.038-.571-.114-.175-.075-.33-.18-.461-.313-.131-.132-.236-.286-.313-.461-.074-.175-.112-.362-.112-.563 0-.205.038-.396.112-.575.076-.18.182-.336.313-.471.132-.136.286-.24.461-.315.175-.076.366-.114.571-.114zM180.412 75.777c.199 0 .388.038.567.114.179.075.334.182.466.315s.236.292.312.471c.076.178.114.37.114.575 0 .199-.038.388-.114.563-.074.177-.18.33-.312.461-.132.132-.287.236-.466.313-.181.076-.368.114-.567.114-.205 0-.396-.038-.571-.114-.175-.075-.328-.18-.461-.313-.131-.132-.234-.286-.312-.461s-.114-.362-.114-.563c0-.205.038-.396.114-.575.076-.18.18-.336.312-.471.134-.136.286-.24.461-.315.175-.076.366-.114.571-.114z"/></svg>