<?xml version="1.0" encoding="utf-8"?>
<!-- Generator: Adobe Illustrator 15.1.0, SVG Export Plug-In . SVG Version: 6.00 Build 0)  -->
<!DOCTYPE svg PUBLIC "-//W3C//DTD SVG 1.1//EN" "http://www.w3.org/Graphics/SVG/1.1/DTD/svg11.dtd">
<svg version="1.1" id="Layer_1" xmlns="http://www.w3.org/2000/svg" xmlns:xlink="http://www.w3.org/1999/xlink" x="0px" y="0px"
	 width="927px" height="461px" viewBox="0 0 927 461" enable-background="new 0 0 927 461" xml:space="preserve">
<rect x="-154.206" y="-335.047" fill-rule="evenodd" clip-rule="evenodd" fill="none" width="1210.825" height="22.188"/>
<text transform="matrix(1.0391 0 0 1 -154.2061 -323.3174)" display="none" fill="#231F20" font-family="'Consolas'" font-size="17">R – Responsible – сотрудник, ответственный за фактическое исполнение KPI.</text>
<rect x="-196.206" y="-342.047" fill-rule="evenodd" clip-rule="evenodd" fill="none" width="1210.825" height="22.188"/>
<text transform="matrix(1.0391 0 0 1 -196.2061 -330.3174)" display="none" fill="#231F20" font-family="'Consolas'" font-size="17">R – Responsible – сотрудник, ответственный за фактическое исполнение KPI.</text>
<g>
	<path fill-rule="evenodd" clip-rule="evenodd" fill="#F7A485" d="M91.052,264.381c5.248-0.499,10.13-0.749,14.646-0.749
		l17.03,0.939c-1.101,3.435-3.083,6.245-5.952,8.436c-2.929,2.185-6.194,3.281-9.794,3.281c-3.724,0-7.052-1.127-9.98-3.376
		C94.131,270.722,92.149,267.881,91.052,264.381z"/>
	<path fill-rule="evenodd" clip-rule="evenodd" fill="#3F5272" d="M64.502,365.811h82.304v40.779c0,7.062-2.441,13.091-7.325,18.093
		c-4.881,4.999-10.771,7.497-17.668,7.497H89.495c-6.896,0-12.789-2.498-17.669-7.497c-4.882-5.002-7.323-11.031-7.323-18.093
		V365.811z"/>
	<path fill-rule="evenodd" clip-rule="evenodd" fill="#445A7D" d="M85.102,431.807c-5.92-1.063-10.802-3.938-14.648-8.626
		c-3.968-4.812-5.951-10.342-5.951-16.591v-40.779h41.196v40.779c0,6.249-1.952,11.779-5.858,16.591
		C95.935,427.868,91.022,430.743,85.102,431.807z"/>
	<g>
		<g>
			<path fill-rule="evenodd" clip-rule="evenodd" fill="#F7A485" d="M105.698,223.227c2.563,0,4.76,0.939,6.592,2.812
				c1.771,1.813,2.657,4.033,2.657,6.657v31.876l-3.753,9.559l-14.832-9.559v-31.876c0-2.624,0.915-4.844,2.747-6.657
				C100.878,224.166,103.074,223.227,105.698,223.227z"/>
		</g>
	</g>
	<g>
		<path fill-rule="evenodd" clip-rule="evenodd" fill="#10122D" d="M133.898,209.729c-0.731,0-1.342-0.252-1.833-0.752
			c-0.55-0.561-0.823-1.218-0.823-1.968c0-0.751,0.273-1.374,0.823-1.875c0.491-0.498,1.102-0.75,1.833-0.75s1.375,0.252,1.92,0.75
			c0.49,0.501,0.736,1.124,0.736,1.875c0,0.75-0.246,1.407-0.736,1.968C135.273,209.478,134.63,209.729,133.898,209.729z"/>
		<path fill-rule="evenodd" clip-rule="evenodd" fill="#10122D" d="M113.114,209.729c-0.731,0-1.342-0.252-1.83-0.752
			c-0.549-0.561-0.826-1.218-0.826-1.968c0-0.751,0.277-1.374,0.826-1.875c0.488-0.498,1.099-0.75,1.83-0.75
			c0.733,0,1.344,0.252,1.833,0.75c0.487,0.501,0.729,1.124,0.729,1.875c0,0.75-0.241,1.407-0.729,1.968
			C114.458,209.478,113.848,209.729,113.114,209.729z"/>
	</g>
	<path fill-rule="evenodd" clip-rule="evenodd" fill="#F4E6E6" d="M133.53,227.633c0,2.814-0.974,5.22-2.928,7.219
		c-1.953,2.002-4.334,3-7.143,3c-2.745,0-5.093-0.998-7.045-3c-1.956-1.999-2.932-4.404-2.932-7.219H133.53z"/>
	<path fill-rule="evenodd" clip-rule="evenodd" fill="none" stroke="#1B181D" stroke-width="1.35" d="M77.226,372.373v13.78
		c0,3.625-1.251,6.688-3.753,9.187c-2.441,2.563-5.431,3.843-8.971,3.843"/>
	
		<line fill-rule="evenodd" clip-rule="evenodd" fill="none" stroke="#1B181D" stroke-width="1.35" x1="64.502" y1="372.373" x2="146.807" y2="372.373"/>
	
		<line fill-rule="evenodd" clip-rule="evenodd" fill="none" stroke="#445A7D" stroke-width="1.35" x1="114.488" y1="437.619" x2="127.857" y2="437.9"/>
	<path fill-rule="evenodd" clip-rule="evenodd" fill="#6D3D3E" d="M123.271,170.264l15.562-9.283
		c1.462,3.377,1.647,6.813,0.548,10.313c-1.097,3.499-3.205,6.157-6.314,7.969L123.271,170.264z"/>
	<path fill-rule="evenodd" clip-rule="evenodd" fill="#FDD29A" d="M98.586,268.652c-1.999-2.063-3-4.547-3-7.446v-14.825h20.525
		v14.825c0,2.913-1,5.396-3.002,7.446c-2,2.047-4.424,3.073-7.271,3.073C103.005,271.726,100.591,270.699,98.586,268.652z"/>
	<path fill-rule="evenodd" clip-rule="evenodd" fill="#FDD29A" d="M77.817,194.285c3.022,0,5.603,1.163,7.741,3.492
		c2.136,2.33,3.206,5.145,3.206,8.448c0,3.292-1.07,6.108-3.206,8.45c-2.138,2.329-4.719,3.493-7.741,3.493
		c-3.038,0-5.623-1.164-7.76-3.493c-2.14-2.342-3.209-5.158-3.209-8.45c0-3.304,1.069-6.118,3.209-8.448
		C72.194,195.448,74.779,194.285,77.817,194.285z"/>
	<path fill-rule="evenodd" clip-rule="evenodd" fill="#FDD29A" d="M125.158,158.525c5.124,4.18,7.683,9.828,7.683,16.939v51.175
		c0,7.358-2.559,13.661-7.683,18.904c-5.117,5.228-11.272,7.843-18.461,7.843h-1.94c-7.177,0-13.324-2.615-18.444-7.843
		c-5.12-5.243-7.68-11.546-7.68-18.904v-51.175c0-7.111,2.56-12.76,7.68-16.939c4.806-3.933,10.956-5.897,18.444-5.897h1.94
		C114.185,152.628,120.34,154.593,125.158,158.525z"/>
	<path fill-rule="evenodd" clip-rule="evenodd" fill="#FDD29A" d="M140.641,196.46c2.139,2.343,3.207,5.158,3.207,8.448
		c0,3.304-1.068,6.129-3.207,8.47c-2.136,2.329-4.724,3.493-7.76,3.493c-3.023,0-5.605-1.164-7.742-3.493
		c-2.139-2.341-3.205-5.166-3.205-8.47c0-3.29,1.066-6.105,3.205-8.448c2.137-2.326,4.718-3.491,7.742-3.491
		C135.917,192.969,138.505,194.134,140.641,196.46z"/>
	<path fill-rule="evenodd" clip-rule="evenodd" fill="#834B4B" d="M80.163,215.511c0,4.155,1.363,7.72,4.088,10.688
		c2.709,2.956,5.97,4.434,9.783,4.434h22.628c3.813,0,7.074-1.478,9.784-4.434c2.724-2.968,4.085-6.532,4.085-10.688v-23.358
		c1.635,1.812,2.547,8.213,2.738,19.198c0.082,5.493,0.008,10.806-0.227,15.936c-0.094,11.878-2.17,20.021-6.229,24.427
		c-1.904,2.062-4.369,3.525-7.391,4.391c-2.629,0.767-5.981,1.151-10.049,1.151h-8.05c-4.11,0-7.479-0.35-10.108-1.046
		c-3.079-0.824-5.575-2.211-7.497-4.161c-4.151-4.225-6.174-12.047-6.066-23.464c-0.232-5.342-0.298-10.87-0.204-16.587
		c0.177-11.416,1.083-18.033,2.714-19.845V215.511z"/>
	<path fill-rule="evenodd" clip-rule="evenodd" fill="#834B4B" d="M122.708,158.106c3.066-0.433,5.153-0.606,6.271-0.523
		c1.826,0.139,3.146,0.864,3.962,2.176c0.927,1.492,1.389,3.958,1.389,7.402l-0.041,6.316c-0.068,5.075-0.196,9.815-0.389,14.218
		c-0.61,14.085-1.734,22.109-3.37,24.071v-25.428c0-4.53-1.361-8.407-4.085-11.626c-2.71-3.222-5.971-4.833-9.784-4.833H94.034
		c-3.813,0-7.074,1.611-9.783,4.833c-2.725,3.219-4.088,7.096-4.088,11.626v25.428c-1.63-1.962-2.754-9.986-3.369-24.071
		c-0.19-4.402-0.319-9.143-0.385-14.218l-0.042-6.316c0-6.858,1.742-11.738,5.228-14.639c3.05-2.522,7.837-3.785,14.359-3.785
		l18.523,10.102C116.574,158.839,119.319,158.594,122.708,158.106z"/>
	<path fill-rule="evenodd" clip-rule="evenodd" fill="#834B4B" d="M91.666,220.093c2.695-1.242,7.255-1.861,13.681-1.861
		c6.427,0,10.988,0.619,13.683,1.861c3.776,1.728,5.66,5.061,5.66,9.995c0,5.452-1.884,10.104-5.66,13.95
		c-3.781,3.848-8.343,5.771-13.683,5.771c-5.335,0-9.896-1.924-13.681-5.771c-3.772-3.847-5.657-8.498-5.657-13.95
		C86.009,225.153,87.894,221.82,91.666,220.093z"/>
	<path fill-rule="evenodd" clip-rule="evenodd" fill="#FDD29A" d="M111.374,230.528c1.809,0.416,3.527,0.626,5.148,0.626
		c0,1.396-1.173,2.588-3.517,3.577c-2.341,0.99-5.172,1.484-8.493,1.484c-3.323,0-6.155-0.494-8.498-1.484
		c-2.341-0.989-3.511-2.182-3.511-3.577l1.471-0.082c1.196-0.098,2.342-0.278,3.431-0.544c3.523-0.837,5.896-2.31,7.107-4.413
		C105.477,228.219,107.766,229.691,111.374,230.528z"/>
	<path fill-rule="evenodd" clip-rule="evenodd" fill="#6D3D3E" d="M137.803,153.756l-3.678,27.793
		c-0.272-0.684-0.733-1.47-1.387-2.361c-1.307-1.785-2.899-3.207-4.781-4.269c-6.044-3.386-13.861-2.522-23.444,2.594
		c-1.404-0.989-3.159-1.922-5.269-2.8c-4.251-1.746-8.179-2.295-11.787-1.655c-3.596,0.644-6.48,2.378-8.657,5.209
		c-0.681,0.892-1.254,1.841-1.717,2.844c-0.216,0.502-0.377,0.912-0.47,1.233l-0.183-17.482c-0.096-1.574,0.15-3.43,0.734-5.563
		c1.186-4.266,3.499-7.786,6.945-10.561c3.034-2.44,5.861-4.328,8.475-5.666c1.309-0.685,2.308-1.119,3.003-1.297l0.859,1.504
		c0.791,1.061,1.748,1.723,2.879,1.987c1.333-3.122,4.178-5.263,8.537-6.421c2.18-0.569,4.228-0.828,6.147-0.773l-1.552,3.137
		c-0.964,2.454-1.3,4.566-0.999,6.335c1.725-2.466,4.926-3.622,9.596-3.47c2.331,0.085,4.488,0.412,6.477,0.982l-1,3.619
		c-0.79,2.968-1.492,5.867-2.103,8.7c3.185-3.04,6.37-4.553,9.556-4.54C135.577,152.835,136.85,153.144,137.803,153.756z"/>
	<path fill-rule="evenodd" clip-rule="evenodd" d="M94.546,196.294c-0.368,0.47-0.87,0.704-1.514,0.704
		c-0.638,0-1.188-0.234-1.647-0.704c-0.364-0.373-0.549-0.888-0.549-1.544s0.185-1.219,0.549-1.688
		c0.458-0.374,1.009-0.562,1.647-0.562c0.644,0,1.146,0.188,1.514,0.562c0.455,0.47,0.688,1.032,0.688,1.688
		S95.001,195.921,94.546,196.294z"/>
	<path fill-rule="evenodd" clip-rule="evenodd" d="M119.741,196.294c-0.366,0.47-0.87,0.704-1.508,0.704
		c-0.644,0-1.191-0.234-1.651-0.704c-0.362-0.373-0.545-0.888-0.545-1.544s0.183-1.219,0.545-1.688
		c0.459-0.374,1.007-0.562,1.651-0.562c0.639,0,1.143,0.188,1.508,0.562c0.459,0.47,0.687,1.032,0.687,1.688
		S120.2,195.921,119.741,196.294z"/>
	<path fill-rule="evenodd" clip-rule="evenodd" fill="#FDD29A" d="M173.951,406.297l-0.55,11.81
		c-0.12,3.563,0.428,6.189,1.649,7.877l0.55,0.845c1.708,2.309,2.898,4.873,3.571,7.686l0.548,2.155
		c0.307,1.124,1.037,1.999,2.198,2.624c1.099,0.625,2.29,0.782,3.571,0.472l1.465-0.377c1.28-0.312,2.533-1,3.752-2.061
		c1.161-1.063,1.954-2.19,2.381-3.377l2.013-5.81c0.366-1.19,0.429-2.533,0.185-4.031c-0.185-1.502-0.641-2.754-1.374-3.75
		l-2.745-3.751c-0.917-1.313-2.715-6.061-5.405-14.249L173.951,406.297z"/>
	<path fill-rule="evenodd" clip-rule="evenodd" fill="#FDD29A" d="M31.725,406.297l0.583,11.81c0.127,3.563-0.453,6.189-1.748,7.877
		l-0.583,0.845c-1.81,2.309-3.07,4.873-3.783,7.686l-0.58,2.155c-0.325,1.124-1.098,1.999-2.329,2.624
		c-1.164,0.625-2.425,0.782-3.782,0.472l-1.552-0.377c-1.356-0.312-2.683-1-3.975-2.061c-1.229-1.063-2.07-2.19-2.522-3.377
		l-2.133-5.81c-0.387-1.19-0.455-2.533-0.195-4.031c0.195-1.502,0.679-2.754,1.455-3.75l2.908-3.751
		c0.972-1.313,2.876-6.061,5.725-14.249L31.725,406.297z"/>
	<g>
		<path fill-rule="evenodd" clip-rule="evenodd" fill="#2F4678" d="M57.853,271.645c5.583-5.717,12.312-8.577,20.183-8.577h50.116
			c7.959,0,14.736,2.86,20.319,8.577c5.583,5.715,8.375,12.604,8.375,20.664l-3.296,145.495H51.674l-2.197-145.495
			C49.477,284.249,52.266,277.359,57.853,271.645z"/>
		<polygon fill-rule="evenodd" clip-rule="evenodd" fill="#445A7D" points="83.565,295.141 75.912,284.57 87.45,263.847 
			101.705,396.464 72.942,304.054 		"/>
		<polygon fill-rule="evenodd" clip-rule="evenodd" fill="#445A7D" points="123.772,295.141 134.393,304.054 101.705,396.464 
			119.888,263.847 131.427,284.57 		"/>
		<polygon fill-rule="evenodd" clip-rule="evenodd" fill="#EAF6FD" points="87.45,261.415 121.763,261.415 101.705,396.464 		"/>
		<polygon fill-rule="evenodd" clip-rule="evenodd" fill="#FFFFFF" points="92.91,257.275 104.858,275.775 93.139,288.313 
			81.897,268.244 		"/>
		<polygon fill-rule="evenodd" clip-rule="evenodd" fill="#FFFFFF" points="115.937,257.508 126.949,268.478 116.326,288.313 
			104.858,275.775 		"/>
		<polygon fill-rule="evenodd" clip-rule="evenodd" fill="#C96959" points="104.858,275.775 110.66,337.193 101.705,396.464 
			95.332,337.241 		"/>
		<polygon fill-rule="evenodd" clip-rule="evenodd" fill="#C96959" points="104.858,275.775 113.515,285.248 103.918,296.941 
			95.581,285.646 		"/>
		<g>
			<path fill-rule="evenodd" clip-rule="evenodd" fill="#2F4678" d="M147.172,269.427c-3.273-2.152-6.061-3.611-8.359-4.374
				l-7.036,21.588c1.479,0.592,3.282,1.684,5.415,3.275c4.248,3.164,8.202,7.336,11.857,12.513
				c11.619,16.448,18.153,39.745,19.601,69.885c0.593,12.507,0.813,24.59,0.663,36.254h22.25c0.151-12.241-0.085-24.69-0.708-37.351
				c-1.78-37.177-10.744-65.889-26.887-86.144C158.833,278.617,153.236,273.402,147.172,269.427z"/>
		</g>
		<g>
			<path fill-rule="evenodd" clip-rule="evenodd" fill="#2F4678" d="M57.634,269.967c3.468-2.152,6.422-3.611,8.858-4.374
				l7.456,21.588c-1.567,0.592-3.478,1.684-5.737,3.274c-4.501,3.165-8.691,7.337-12.564,12.514
				c-12.311,16.448-19.235,39.745-20.768,69.885c-0.628,12.507-0.861,24.59-0.702,36.254H10.599
				c-0.16-12.241,0.09-24.69,0.75-37.351c1.887-37.177,11.384-65.889,28.489-86.144C45.278,279.157,51.209,273.942,57.634,269.967z"
				/>
		</g>
	</g>
	<rect x="50.834" y="414.034" fill-rule="evenodd" clip-rule="evenodd" fill="#263244" width="103.687" height="52.5"/>
</g>
<g>
	<path fill="#3A2316" d="M806.068,263.037H825c6.214,0,11.269-5.043,11.269-11.269v-40.541h-30.2V263.037z"/>
	<g>
		<path fill="#028BC0" d="M815.775,468.215c0,0,1.854-35.417,3.157-70.943c1.362-35.496,2.231-71.07,2.231-71.07
			c0.355-14.818-4.087-27.462-9.894-28.243c-5.813-0.767-10.799,10.329-11.145,24.761c0,0-0.851,34.78-2.183,69.402
			c-1.266,34.657-3.066,69.092-3.066,69.092L815.775,468.215z"/>
	</g>
	<path fill="#3A2316" d="M850.569,245.684c9.715-2.659,23.627-12.794,28.751-21.939c4.687,7.345,2.158,17.661-1.682,24.836
		c-3.895,7.271-10.174,9.385-17.859,10.498c-4.269,0.613-8.482,0.543-12.725-0.122L850.569,245.684z"/>
	<path fill="#028BC0" d="M807.786,328.127l3.869-11.468l-1.84-18.233l40.749-18.425l40.739,18.537l-11.722,112.004l-62.834,6.508
		l0.115-48.643l-1.465-14.503C807.903,347.947,804.546,337.729,807.786,328.127z"/>
	<g>
		<path fill="#F7C28D" d="M853.496,241.626c5.599,0.18,9.979,4.857,9.794,10.45l-1.097,33.877c-0.166,5.59-4.855,9.97-10.442,9.785
			c-5.591-0.178-9.978-4.855-9.791-10.444l1.103-33.864C843.233,245.831,847.908,241.45,853.496,241.626z"/>
	</g>
	<path fill="#F7C28D" d="M828.002,273.238c26.115,0,47.092-19.31,47.034-37.957l-0.093-26.337
		c-0.017-5.825-1.519-11.302-4.145-16.082l-57.78,0.209c-2.308,4.794-3.56,10.281-3.538,16.11c0,0-0.332,24.858,0.116,33.128
		C810.537,259.834,815.973,267.406,828.002,273.238z"/>
	<path fill="#3A2316" d="M830.861,193.499c-8.337,4.359-18.948,16.243-21.695,25.424c-6.86-5.81-8.154-13.981-6.155-21.152
		c2.021-7.273,9.756-11.716,16.562-14.288c3.787-1.429,7.668-2.23,11.691-2.525L830.861,193.499z"/>
	<path fill="#5B331E" d="M884.265,230.314c2.378-7.265,4.381-14.884,4.308-19.087c-0.29-16.865-12.694-30.576-29.024-33.771
		c-14.864-2.898-28.814,1.555-42.418,7.053c1.839,3.595,3.874,6.993,5.81,10.537c7.849,14.41,22.137,25.366,38.381,31.265
		l0.008,3.952c0.005,3.212,2.618,5.804,5.829,5.798h9.669L884.265,230.314z"/>
	<path fill="#1D183C" d="M840.652,226.418c0,1.681,1.361,3.042,3.045,3.042c1.686,0,3.049-1.361,3.049-3.042
		c0-1.69-1.363-3.058-3.049-3.058C842.014,223.36,840.652,224.728,840.652,226.418z"/>
	<path fill="#1D183C" d="M816.359,226.418c0,1.681,1.359,3.042,3.053,3.042c1.679,0,3.031-1.361,3.031-3.042
		c0-1.69-1.353-3.058-3.031-3.058C817.719,223.36,816.359,224.728,816.359,226.418z"/>
	<path fill="#F9AC8D" d="M876.474,223.644c-5.213,0-9.45,4.231-9.45,9.439v9.451h9.45c5.218,0,9.439-4.22,9.439-9.451
		C885.913,227.875,881.691,223.644,876.474,223.644z"/>
	<path d="M814.293,454.476c0.006,18.425,10.942,33.368,24.429,33.368h26.729c13.493,0,24.563,2.071,24.423-33.368
		c-0.137-35.444-9.229-53.266-9.229-53.266h-66.352V454.476z"/>
	<path fill="#5B331E" d="M858.375,263.037h18.933c6.227,0,11.265-5.043,11.265-11.269v-40.541h-30.197V263.037z"/>
	<g>
		<path fill="#028BC0" d="M873.803,313.825c7.038,28.617,14.076,57.237,21.11,85.864c3.86,15.725,28.08,9.051,24.219-6.683
			c-7.031-28.626-14.068-57.241-21.106-85.864C894.159,291.418,869.938,298.087,873.803,313.825L873.803,313.825z"/>
	</g>
	<g>
		<path fill="#028BC0" d="M895.92,395.862c-10.435,21.039-20.866,42.077-31.305,63.11c-7.201,14.516,16,24.17,23.175,9.707
			c10.437-21.041,20.869-42.073,31.306-63.107C926.293,391.052,903.094,381.401,895.92,395.862L895.92,395.862z"/>
	</g>
	<path fill="none" stroke="#6D2F00" stroke-width="3" stroke-linecap="round" stroke-miterlimit="10" d="M822.866,255.224
		c3.701-2.026,9.332-5.27,15.606-1.824"/>
</g>
<g>
	<path fill="#EADE86" d="M330.393,300.976h-23.627c-7.765,0-14.057-7.746-14.057-17.308v-62.267h37.684V300.976z"/>
	<g>
		<path fill="#6B8931" d="M321.395,477.369c0,0-1.713-35.628-2.919-71.361c-1.265-35.712-2.067-71.487-2.067-71.487
			c-0.329-14.917,3.788-27.634,9.162-28.412c5.394-0.785,10.004,10.384,10.33,24.896c0,0,0.783,34.995,2.013,69.816
			c1.181,34.866,2.848,69.509,2.848,69.509L321.395,477.369z"/>
	</g>
	<path fill="#3A2316" d="M289.167,255.042c-9.005-2.595-21.893-12.489-26.632-21.419c-4.338,7.172-2.007,17.245,1.552,24.253
		c3.615,7.11,9.426,9.168,16.549,10.26c3.958,0.601,7.858,0.525,11.79-0.118L289.167,255.042z"/>
	<path fill="#6B8931" d="M328.807,335.563l-3.594-11.199l1.702-17.813l-37.745-17.986l-37.743,18.105l10.86,109.372l58.214,6.358
		l-0.109-47.503l1.353-14.155C328.697,354.918,331.809,344.942,328.807,335.563z"/>
	<g>
		<path fill="#F7C28D" d="M286.458,251.092c-5.184,0.176-9.246,4.741-9.072,10.206l1.012,33.071c0.162,5.466,4.493,9.741,9.68,9.567
			c5.167-0.175,9.232-4.743,9.06-10.207l-1.011-33.075C295.962,255.198,291.623,250.921,286.458,251.092z"/>
	</g>
	<path fill="#F7C28D" d="M310.071,281.958c-24.186,0-43.63-18.853-43.571-37.062l0.085-25.724
		c0.015-5.688,1.404-11.036,3.833-15.703l53.532,0.212c2.137,4.674,3.294,10.028,3.281,15.722c0,0,0.306,24.276-0.104,32.355
		C326.256,268.865,321.219,276.271,310.071,281.958z"/>
	<path fill="#EADE86" d="M307.425,204.086c7.721,4.27,17.549,15.864,20.096,24.831c6.355-5.674,7.558-13.653,5.705-20.661
		c-1.878-7.1-9.033-11.438-15.347-13.945c-3.505-1.394-7.099-2.179-10.827-2.461L307.425,204.086z"/>
	<path fill="#FFF8A4" d="M257.948,240.045c-2.198-7.1-4.058-14.545-3.991-18.644c0.272-16.466,11.769-29.859,26.889-32.974
		c13.777-2.833,26.695,1.513,39.303,6.886c-1.708,3.506-3.599,6.829-5.381,10.287c-7.277,14.076-20.512,24.776-35.559,30.53
		l-0.012,3.862c-0.007,3.136-2.429,5.672-5.405,5.659h-8.953L257.948,240.045z"/>
	<path fill="#1D183C" d="M298.343,236.239c0,1.637-1.253,2.967-2.806,2.967c-1.562,0-2.828-1.33-2.828-2.967
		c0-1.65,1.266-2.986,2.828-2.986C297.09,233.253,298.343,234.589,298.343,236.239z"/>
	<path fill="#1D183C" d="M320.866,236.239c0,1.637-1.264,2.967-2.833,2.967c-1.564,0-2.814-1.33-2.814-2.967
		c0-1.65,1.25-2.986,2.814-2.986C319.603,233.253,320.866,234.589,320.866,236.239z"/>
	<path fill="#F9AC8D" d="M265.167,233.526c4.829,0,8.754,4.128,8.754,9.225v9.219h-8.754c-4.833,0-8.748-4.121-8.748-9.219
		C256.419,237.654,260.333,233.526,265.167,233.526z"/>
	<path d="M326.149,458.597c0,17.872-10.84,32.359-24.205,32.359h-26.494c-13.361,0-24.33,2.005-24.205-32.359
		c0.143-34.385,9.152-51.664,9.152-51.664h65.751V458.597z"/>
	<path fill="#FFF8A4" d="M281.933,301.688h-17.539c-5.761,0-10.437-7.81-10.437-17.459v-62.828h27.976V301.688z"/>
	<g>
		<line fill="#028BC0" x1="256.419" y1="326.681" x2="236.862" y2="467.315"/>
		<g>
			<path fill="#6B8931" d="M244.311,321.087c-6.515,46.879-13.036,93.755-19.557,140.629c-3.677,26.433,20.552,37.658,24.227,11.201
				c6.515-46.882,13.035-93.75,19.548-140.628C272.206,305.861,247.988,294.64,244.311,321.087L244.311,321.087z"/>
		</g>
	</g>
	<path fill="none" stroke="#6D2F00" stroke-width="3" stroke-linecap="round" stroke-miterlimit="10" d="M301.457,261.642
		c1.849-2.972,8.626-3.242,10.269-0.27"/>
</g>
<g>
	<polyline fill="#665E52" points="521.744,470.851 522.135,427.88 437.961,427.88 437.961,470.851 	"/>
	<path fill="#26383A" d="M499.861,459.226"/>
	<path fill="#95A8AF" d="M417.958,331.715v1.086h20.003v95.079h84.174v6.532h20.003V331.715h-0.051
		c-0.665-17.338-8.219-32.885-19.952-43.882c-3.107-2.909-6.506-5.498-10.146-7.718c-1.025-0.63-2.072-1.229-3.137-1.801
		c-0.004-0.003-0.019-0.005-0.023-0.01c-0.725-0.38-1.456-0.752-2.198-1.115c-0.399-0.192-0.81-0.391-1.22-0.57
		c-0.817-0.376-1.644-0.73-2.469-1.068c-7.09-2.854-14.809-4.43-22.895-4.43c-8.9,0-17.366,1.913-25.013,5.338
		c-0.759,0.338-1.502,0.692-2.248,1.065c-0.344,0.172-0.679,0.346-1.025,0.521c-0.233,0.122-0.439,0.231-0.667,0.353
		c-0.423,0.224-0.839,0.459-1.25,0.696c-0.097,0.049-0.172,0.091-0.261,0.146c-0.507,0.287-0.994,0.577-1.483,0.88
		c-3.633,2.222-7.033,4.806-10.139,7.717l0,0c-11.739,11.007-19.285,26.54-19.954,43.878H417.958z"/>
	<g>
		<g>
			<path fill="#FDC78B" d="M479.544,235.646c6.97,0,12.613,4.308,12.613,9.612v32.159v17.484l-25.218-8.538v-41.105
				C466.939,239.953,472.592,235.646,479.544,235.646z"/>
		</g>
	</g>
	<path fill="#FDC78B" d="M445.538,195.63v41.751c0.86,10.031,5.457,19.279,12.327,25.607c1.037,0.229,16.469,0.01,16.703,0.01
		c17.065,0,30.908-14.358,30.908-32.066V195.63H445.538z"/>
	<g>
		<g>
			<g>
				<path fill="#FDC78B" d="M508.656,219.887c4.764,0,8.627,4.011,8.627,8.943c0,4.945-3.863,8.948-8.627,8.948h-14.034
					l0.515-17.892H508.656z"/>
			</g>
		</g>
	</g>
	<path d="M510.6,189.539v5.402c0.001,0.067,0.023,0.133,0.029,0.203v24.811h-3.437v6.394c0,2.94-2.292,5.323-5.135,5.323
		c-2.823,0-5.122-2.383-5.122-5.323v-3.845c-0.684-4.013-4.06-7.061-8.123-7.064v-10.537c-0.693-4.002-4.051-7.047-8.118-7.052
		v-0.058h-35.178c-5.659,0-10.311-4.465-10.869-10.196h14.101l3.864-15.293h33.655c8.031,0,15.145,4.012,19.604,10.197
		L510.6,189.539z"/>
	<g>
		<path fill="#11122D" d="M457.049,221.345c1.444,0,2.609-1.206,2.609-2.707c0-1.488-1.166-2.704-2.609-2.704
			c-1.441,0-2.614,1.216-2.614,2.704C454.435,220.139,455.608,221.345,457.049,221.345z"/>
		<path fill="#11122D" d="M477.784,221.345c1.446,0,2.618-1.206,2.618-2.707c0-1.488-1.172-2.704-2.618-2.704
			c-1.433,0-2.604,1.216-2.604,2.704C475.18,220.139,476.352,221.345,477.784,221.345z"/>
	</g>
	<rect x="449.513" y="191.675" width="28.024" height="6.174"/>
	<path d="M510.731,186.446c0-12.866-10.057-23.3-22.452-23.3h-20.762c-12.403,0-22.455,10.434-22.455,23.3v11.402h5.194v-4.277
		c0-6.705,5.236-12.141,11.698-12.141h3.146c6.465,0,11.7,5.436,11.7,12.141v4.277h33.931V186.446z"/>
	<line fill="none" stroke="#020304" stroke-width="1.3653" x1="509.492" y1="191.973" x2="479.135" y2="191.973"/>
	<path d="M450.713,191.335c-6.25-3.738-8.643-11.745-5.737-18.436l15.571,9.317L450.713,191.335z"/>
	<polyline fill="#FDC78B" points="542.138,467.228 542.138,427.88 522.135,427.88 521.744,466.723 	"/>
	<g>
		<line fill="#BACACE" x1="433.109" y1="311.632" x2="416.242" y2="396.628"/>
		<g>
			<path fill="#95A8AF" d="M419.429,307.86c-5.623,28.332-11.245,56.664-16.868,84.995c-1.504,7.578,2.053,15.292,9.909,17.452
				c7.04,1.937,15.946-2.319,17.452-9.908c5.623-28.333,11.246-56.665,16.868-84.996c1.504-7.578-2.054-15.292-9.909-17.452
				C429.841,296.015,420.935,300.271,419.429,307.86L419.429,307.86z"/>
		</g>
	</g>
	<polygon fill="#FFFFFF" points="478.999,320.832 478.999,320.832 499.861,279 460.274,279 	"/>
	<polygon points="479.118,277.542 479.118,277.542 488.001,290.708 478.849,298.073 469.705,290.708 	"/>
	<polygon points="472.056,303.091 478.999,318.599 486.939,302.673 478.849,291.482 	"/>
	<polygon fill="#BACACE" points="478.999,318.599 478.999,318.599 509.859,287.804 498.962,274.108 	"/>
	<polygon fill="#BACACE" points="478.999,318.599 478.999,318.599 447.691,287.804 458.746,274.108 	"/>
	<rect x="520" y="427" fill="#BACACE" width="24" height="14"/>
	<g>
		<g>
			<path fill="#FDC78B" d="M431.081,296.214l-1.559-27.271l0,0c-11.825-0.176-21.299,1.635-21.163,4.043l1.317,22.912
				L431.081,296.214z"/>
		</g>
		<g>
			<g>
				<line fill="#BACACE" x1="415.024" y1="400.781" x2="418.521" y2="301.627"/>
			</g>
			<g>
				<g>
					<path fill="#95A8AF" d="M428.464,400.781c1.167-33.052,2.332-66.103,3.499-99.154c0.486-13.844-26.395-13.808-26.881,0
						c-1.166,33.052-2.329,66.103-3.496,99.154C401.098,414.625,427.976,414.589,428.464,400.781L428.464,400.781z"/>
				</g>
			</g>
		</g>
		<g>
			<polygon fill="#BACACE" points="404.225,298.511 437.147,299.807 437.841,286.277 404.922,284.98 			"/>
		</g>
		<g>
			<g>
				<line fill="#FDC78B" x1="427.517" y1="227.239" x2="426.851" y2="249.709"/>
			</g>
			<g>
				<g>
					<path fill="#FDC78B" d="M424.181,227.239c-0.223,7.49-0.444,14.979-0.668,22.47c-0.114,3.856,6.56,3.846,6.675,0
						c0.222-7.491,0.443-14.979,0.666-22.47C430.968,223.382,424.295,223.394,424.181,227.239L424.181,227.239z"/>
				</g>
			</g>
		</g>
		<g>
			<g>
				<line fill="#FDC78B" x1="418.493" y1="242.278" x2="419.278" y2="264.744"/>
			</g>
			<g>
				<g>
					<path fill="#FDC78B" d="M415.502,242.278c0.263,7.489,0.523,14.977,0.784,22.466c0.136,3.844,6.115,3.856,5.98,0
						c-0.262-7.489-0.522-14.977-0.786-22.466C421.347,238.436,415.369,238.422,415.502,242.278L415.502,242.278z"/>
				</g>
			</g>
		</g>
		<g>
			<g>
				<line fill="#FDC78B" x1="405.897" y1="248.66" x2="407.536" y2="267.013"/>
			</g>
			<g>
				<g>
					<path fill="#FDC78B" d="M402.908,248.66c0.546,6.118,1.093,12.236,1.637,18.353c0.34,3.809,6.321,3.843,5.977,0
						c-0.544-6.116-1.091-12.234-1.637-18.353C408.548,244.851,402.565,244.819,402.908,248.66L402.908,248.66z"/>
				</g>
			</g>
		</g>
		<g>
			<g>
				<line fill="#FDC78B" x1="412.171" y1="245.308" x2="412.544" y2="267.794"/>
			</g>
			<g>
				<g>
					<path fill="#FDC78B" d="M409.181,245.308c0.126,7.495,0.251,14.991,0.373,22.486c0.064,3.85,6.041,3.855,5.979,0
						c-0.124-7.495-0.249-14.991-0.374-22.486C415.095,241.459,409.118,241.452,409.181,245.308L409.181,245.308z"/>
				</g>
			</g>
		</g>
		<g>
			<path fill="#FDC78B" d="M402.122,260.934c1.176,11.639,3.49,19.088,11.802,19.502c8.316,0.422,19.059-7.866,18.301-17.995
				c-0.795-10.724-3.48-19.093-11.799-19.512C412.12,242.514,401.102,250.871,402.122,260.934z"/>
			<path fill="#FDC78B" d="M414.538,281.218L414.538,281.218c-0.219,0-0.436-0.005-0.653-0.016
				c-8.772-0.438-11.298-8.051-12.525-20.191c-0.426-4.183,1.127-8.461,4.367-12.046c3.909-4.325,9.759-7.063,14.736-6.802
				c9.922,0.501,11.9,11.779,12.527,20.221c0.324,4.317-1.343,8.684-4.691,12.29C424.551,278.71,419.279,281.218,414.538,281.218z
				 M419.826,243.68c-4.408,0-9.498,2.479-12.962,6.313c-2.947,3.259-4.358,7.116-3.979,10.864
				c1.176,11.623,3.367,18.428,11.081,18.813c4.398,0.227,9.641-2.195,13.208-6.04c3.056-3.292,4.576-7.246,4.285-11.134
				c-0.937-12.666-4.351-18.465-11.071-18.802C420.2,243.685,420.012,243.68,419.826,243.68z"/>
		</g>
		<g>
			
				<ellipse transform="matrix(0.9988 0.0499 -0.0499 0.9988 13.4879 -21.1233)" fill="#FDC78B" cx="429.951" cy="259.671" rx="5.188" ry="8.483"/>
			<path fill="#FDC78B" d="M429.689,269.144l-0.211-0.005c-3.464-0.175-5.971-4.469-5.704-9.776c0.26-5.14,3.089-9.164,6.44-9.164
				l0.21,0.005c3.46,0.173,5.969,4.467,5.704,9.776C435.868,265.117,433.042,269.144,429.689,269.144z M430.326,254
				c-2.326,0-4.362,2.425-4.561,6.365c-0.202,4.051,1.543,7.12,3.813,7.235l0.111-0.224c2.212,0,4.248-2.539,4.448-6.48
				c0.202-4.053-1.544-6.896-3.809-6.896C430.326,254,430.326,254,430.326,254z"/>
		</g>
	</g>
	<path fill="none" stroke="#6D2F00" stroke-width="3" stroke-linecap="round" stroke-miterlimit="10" d="M458.866,243.266
		c2.229-3.445,12.351-5.733,16.012-3.851"/>
</g>
<g>
	<path fill="#FDC78B" d="M704.521,481.293c-5.354-0.712-9.199-5.115-8.596-9.836c0,0,0.966-7.336,2.082-18.313
		c1.132-10.974,2.34-25.607,2.807-40.239c0.506-14.615,0.249-29.208-0.488-40.1c-0.223-5.46-0.75-9.972-0.99-13.15
		c-0.275-3.176-0.475-4.975-0.475-4.975l19.415-2.076c0,0,0.217,1.899,0.493,5.23c0.266,3.335,0.813,8.096,1.059,13.813
		c0.771,11.432,1.031,26.703,0.515,41.9c-0.48,15.202-1.722,30.312-2.888,41.596c-1.15,11.279-2.128,18.741-2.128,18.741
		C714.714,478.688,709.874,482.008,704.521,481.293z"/>
	<path fill="#4DACB5" d="M694.408,361.378c0,0-1.177-14.424-3.706-28.618c-2.47-14.192-6.105-28.101-6.105-28.101
		c-1.795-6.367,3.09-13.516,10.911-15.954c7.812-2.447,15.772,1.318,17.765,8.385c0,0,0.297,0.941,0.683,2.613
		c0.4,1.673,0.958,4.051,1.649,6.914c1.461,5.699,2.894,13.404,4.326,21.104c2.749,15.429,4.021,30.999,4.021,30.999
		L694.408,361.378z"/>
	<path fill="#4DACB5" d="M684.206,286.967c9.927,0.948,10.614,0.231,19.992,2.668c0,0,10.3,2.996,8.192,19.664
		c-0.904,7.129-1.81,26.086-1.81,26.086v92.096h-87.277l0.007-92.096c0,0-0.949-20.562-2.021-29.288
		c-1.65-13.466,11.438-16.711,11.438-16.711c14.907-3.877,19.156-3.258,34.221-3.258L684.206,286.967"/>
	<path fill="#FDC78B" d="M684.206,286.967l-17.257-0.839c-5.021,0-10.224,0.247-15.475,0.703
		c2.259,7.135,8.935,12.309,16.822,12.309c7.798,0,14.402-5.062,16.743-12.076C684.76,287.032,684.483,286.996,684.206,286.967z"/>
	<path fill="#EBE5E1" d="M701.982,299.508v47.316h9.274v-47.316c0-3.253-0.636-6.353-1.747-9.217
		c-3.939-0.783-7.913-1.415-11.937-1.915C700.296,291.301,701.982,295.207,701.982,299.508z"/>
	<path fill="#EBE5E1" d="M657.905,320.748l3.826,17.553l8.726-0.072l-1.078-17.48c-4.417-13.248-12.859-28.117-27.273-35.85
		c-3.245,0.444-6.459,0.994-9.612,1.646C642.848,295.375,653.558,307.706,657.905,320.748z"/>
	<path fill="#FDC78B" d="M666.035,244.211c-6.576,0-11.912,4.416-11.912,9.855v32.989l18.973,9.854l4.843-9.854v-32.989
		C677.938,248.627,672.607,244.211,666.035,244.211z"/>
	<polygon fill="#D8D1BD" points="711.257,339.404 659.257,339.404 644.365,398.05 711.257,398.05 	"/>
	<path fill="#EBE5E1" d="M659.257,339.404l-14.892,58.646h32.761c0.343-2.427,0.55-4.92,0.55-7.491v-51.154H659.257z"/>
	<path fill="#363636" d="M669.829,330.728v6.712h-9.278v-6.712H669.829 M672.476,328.081h-2.646h-9.278h-2.646v2.646v6.712v2.648
		h2.646h9.278h2.646v-2.648v-6.712V328.081z"/>
	<path fill="#020304" d="M706.841,351.24h-0.812v18.63c0,4.654-1.885,8.86-4.934,11.911c-3.051,3.049-7.257,4.934-11.908,4.934
		c-4.655,0-8.86-1.885-11.91-4.934c-3.047-3.051-4.932-7.257-4.932-11.911v-17.817h34.495V351.24h-0.812H706.841v-0.81h-36.116
		v19.439c0,10.2,8.263,18.464,18.463,18.467c10.195-0.003,18.465-8.267,18.465-18.467v-19.439h-0.812V351.24z"/>
	<polyline fill="#020304" points="667.619,358.384 696.108,358.384 696.108,356.762 667.619,356.762 	"/>
	<path fill="#363636" d="M711.475,332.939v6.712h-9.271v-6.712H711.475 M714.13,330.293h-2.655h-9.271h-2.651v2.646v6.712v2.652
		h2.651h9.271h2.655v-2.652v-6.712V330.293z"/>
	<polyline fill="#9FCFD7" points="603.662,343.176 603.686,352.332 623.31,352.127 623.311,343.433 603.662,343.176 	"/>
	<polyline fill="#308C99" points="623.311,343.433 623.31,352.127 633.332,352.022 633.316,343.563 623.311,343.433 	"/>
	<path fill="#804A26" d="M708.159,199.525l-7.028,33.252l-4.011-2.721v-41.295c2.596,0,4.96,0.864,6.845,2.32
		c0.222,0.176,0.454,0.353,0.669,0.553l0.3,0.279C706.934,193.859,708.159,196.557,708.159,199.525z"/>
	<path fill="#FDC78B" d="M701.131,195.719v48.32c-0.941,11.614-5.967,22.313-13.47,29.639c-6.619,5.193-19.021,2.953-19.269,2.895
		c-19.063-5.023-32.733-19.502-32.733-39.998v-40.855H701.131z"/>
	<path fill="#FDC78B" d="M641.148,228.512L641.148,228.512v18.816c-3.883,0-7.025-3.072-7.025-6.847v-5.126
		C634.123,231.576,637.266,228.512,641.148,228.512z"/>
	<path fill="#804A26" d="M645.257,188.762v41.295h-12.468v-30.531c0-2.969,1.401-5.666,3.653-7.611l0.278-0.241
		c0.193-0.148,0.394-0.3,0.591-0.44l0.222-0.15C639.659,189.626,642.334,188.762,645.257,188.762z"/>
	<path fill="#804A26" d="M647.008,236.051l-3.763-10.095l-9.033-11.653l-2.375,27.933l8.061,18.035l4.013,0.543l-4.539-15.056
		c0,0-5.173-9.265-2.819-12.068C639.897,229.697,647.008,236.051,647.008,236.051z"/>
	<path fill="#804A26" d="M675.009,229.65c0.434,0.63,0.237,1.487-0.436,1.881c-0.624,0.351-1.431,0.177-1.828-0.409
		c-1.217-1.818-3.326-3.035-5.713-3.035c-2.399,0-4.517,1.217-5.73,3.035c-0.397,0.586-1.209,0.76-1.832,0.409
		c-0.672-0.394-0.864-1.251-0.436-1.881c1.156-1.719,2.883-3.038,4.908-3.725c0.969-0.316,2.015-0.492,3.09-0.492
		c1.064,0,2.097,0.176,3.07,0.492C672.126,226.612,673.854,227.932,675.009,229.65z"/>
	<path fill="#804A26" d="M702.409,229.638c0.432,0.63,0.234,1.493-0.434,1.887c-0.625,0.352-1.436,0.178-1.832-0.41
		c-1.215-1.824-3.323-3.034-5.712-3.034c-2.405,0-4.518,1.21-5.732,3.034c-0.395,0.588-1.206,0.762-1.832,0.41
		c-0.668-0.394-0.864-1.257-0.433-1.887c1.157-1.72,2.88-3.038,4.907-3.718c0.968-0.325,2.011-0.499,3.09-0.499
		c1.063,0,2.096,0.174,3.065,0.499C699.528,226.6,701.258,227.918,702.409,229.638z"/>
	<path fill="#40261A" d="M670.634,234.75c0,1.941-1.615,3.521-3.61,3.521c-2,0-3.607-1.58-3.607-3.521
		c0-1.947,1.607-3.526,3.607-3.526C669.019,231.224,670.634,232.803,670.634,234.75z"/>
	<path fill="#40261A" d="M696.416,234.75c0,1.941-1.612,3.521-3.605,3.521c-2,0-3.611-1.58-3.611-3.521
		c0-1.947,1.611-3.526,3.611-3.526C694.804,231.224,696.416,232.803,696.416,234.75z"/>
	<path fill="#FDC78B" d="M678.813,263.318l-7.006,2.753l-1.318-2.41c-0.424-0.772-1.188-1.324-2.088-1.524
		c-0.901,0.2-1.67,0.752-2.09,1.524l-1.312,2.41l-7.022-2.753l3.743-8.132h13.361L678.813,263.318z"/>
	<path fill="#804A26" d="M645.87,193.726c0,8.825-2.592,16.573-6.499,20.938v-23.582h6.415
		C645.844,191.949,645.87,192.835,645.87,193.726z"/>
	<path fill="#804A26" d="M696.696,194.693c0,8.824,2.593,16.57,6.502,20.932V192.04h-6.429
		C696.721,192.914,696.696,193.797,696.696,194.693z"/>
	<path fill="#804A26" d="M701.153,176.498h-48.345c-6.158,0-11.154,4.87-11.154,10.88v8.341h53.662
		c5.582,0,10.115-4.42,10.115-9.868v-5.173C705.432,178.369,703.512,176.498,701.153,176.498z"/>
	<path fill="#804A26" d="M699.621,192.241c0,6.397-12.888,11.592-28.783,11.592c-15.908,0-28.793-5.194-28.793-11.592
		c0-6.41,12.885-11.604,28.793-11.604C686.733,180.637,699.621,185.831,699.621,192.241z"/>
	<rect x="616.951" y="422.834" fill="#2E5C82" width="93.635" height="65.666"/>
	<ellipse fill="#40261A" cx="680.726" cy="260.832" rx="2.837" ry="3.782"/>
	<rect x="644" y="397" fill="#D8D1BD" width="67" height="103.5"/>
	<rect x="613.5" y="398" fill="#D8D1BD" width="30.5" height="16.5"/>
	<path fill="#FDC78B" d="M617.404,469.063c5.379-0.492,9.404-4.737,8.992-9.479c0,0-0.671-7.369-1.345-18.385
		c-0.685-11.01-1.304-25.683-1.179-40.325c0.084-14.625,0.929-29.196,2.106-40.05c0.445-5.446,1.152-9.934,1.521-13.1
		c0.403-3.166,0.678-4.953,0.678-4.953l-19.326-2.868c0,0-0.293,1.891-0.705,5.207c-0.4,3.32-1.14,8.059-1.613,13.762
		c-1.235,11.392-2.112,26.641-2.209,41.847c-0.135,15.212,0.494,30.361,1.206,41.682c0.697,11.324,1.373,18.82,1.373,18.82
		C607.323,466.042,612.026,469.561,617.404,469.063z"/>
	<path fill="#4DACB5" d="M633.53,360.481c0,0-0.61-14.454,0.158-28.851c0.696-14.389,2.598-28.643,2.598-28.643
		c1.002-6.542-4.729-13.035-12.788-14.49c-8.057-1.466-15.499,3.252-16.6,10.516c0,0-0.18,0.968-0.354,2.67
		c-0.192,1.705-0.461,4.145-0.784,7.067c-0.751,5.838-1.226,13.66-1.697,21.475c-0.828,15.648-0.167,31.253-0.167,31.253
		L633.53,360.481z"/>
</g>
<path fill="#6E6EBA" d="M513.23,66.704c0,2.871-0.316,5.363-0.948,7.479c-0.632,2.117-1.483,3.966-2.554,5.547
	s-2.299,2.954-3.685,4.122c-1.386,1.167-2.835,2.263-4.342,3.283c-1.703,1.169-3.405,2.289-5.108,3.357
	c-1.702,1.07-3.236,2.273-4.598,3.612c-1.362,1.338-2.469,2.908-3.321,4.706c-0.85,1.8-1.275,3.989-1.275,6.567v1.168h-16.273
	c-0.05-0.438-0.086-0.984-0.109-1.642c-0.024-0.658-0.036-1.18-0.036-1.569c0-3.647,0.474-6.725,1.422-9.23
	c0.949-2.506,2.166-4.658,3.649-6.458c1.482-1.799,3.126-3.345,4.926-4.634s3.576-2.492,5.327-3.612
	c1.216-0.827,2.37-1.642,3.465-2.444c1.096-0.804,2.057-1.69,2.884-2.664c0.826-0.973,1.483-2.042,1.97-3.212
	c0.487-1.166,0.73-2.504,0.73-4.013c0-3.259-1.192-5.875-3.576-7.844c-2.384-1.971-6.105-2.957-11.165-2.957
	c-3.745,0-7.432,0.464-11.055,1.388c-3.624,0.923-6.823,2.019-9.596,3.284V46.856c1.458-0.682,3.101-1.314,4.925-1.898
	c1.824-0.583,3.722-1.082,5.691-1.496c1.971-0.412,3.99-0.741,6.057-0.986c2.068-0.242,4.074-0.364,6.021-0.364
	c4.816,0,9.121,0.572,12.915,1.715c3.796,1.142,6.994,2.784,9.597,4.925c2.603,2.142,4.597,4.732,5.983,7.771
	C512.537,59.564,513.23,62.958,513.23,66.704z M469.813,122.091h19.63v19.482h-19.63V122.091z"/>
<path fill="#6E6EBA" d="M323.529,59.408c0,2.871-0.317,5.362-0.949,7.479c-0.632,2.117-1.483,3.965-2.554,5.546
	s-2.299,2.954-3.685,4.123c-1.386,1.167-2.835,2.262-4.342,3.283c-1.703,1.168-3.406,2.289-5.109,3.357
	c-1.702,1.07-3.235,2.273-4.597,3.612c-1.362,1.338-2.468,2.907-3.321,4.706c-0.849,1.8-1.275,3.988-1.275,6.566v1.169h-16.274
	c-0.049-0.438-0.085-0.984-0.109-1.642c-0.023-0.658-0.036-1.18-0.036-1.569c0-3.647,0.474-6.726,1.423-9.23
	c0.948-2.505,2.166-4.658,3.648-6.458c1.483-1.799,3.126-3.346,4.926-4.634c1.8-1.289,3.576-2.493,5.327-3.612
	c1.216-0.828,2.37-1.642,3.465-2.444c1.096-0.804,2.056-1.69,2.883-2.664c0.827-0.973,1.483-2.042,1.97-3.212
	c0.487-1.166,0.73-2.504,0.73-4.013c0-3.259-1.193-5.874-3.577-7.844c-2.383-1.971-6.104-2.957-11.165-2.957
	c-3.746,0-7.432,0.464-11.055,1.387c-3.624,0.924-6.823,2.019-9.596,3.284V39.56c1.459-0.682,3.101-1.314,4.926-1.898
	c1.824-0.583,3.721-1.083,5.691-1.496c1.97-0.412,3.99-0.741,6.056-0.985c2.068-0.242,4.074-0.364,6.021-0.364
	c4.817,0,9.121,0.572,12.916,1.715c3.795,1.142,6.994,2.785,9.597,4.925c2.602,2.142,4.596,4.732,5.982,7.771
	C322.836,52.268,323.529,55.662,323.529,59.408z M280.11,114.795h19.63v19.482h-19.63V114.795z"/>
<path fill="#6E6EBA" d="M139.502,33.466c0,2.871-0.317,5.363-0.949,7.479c-0.632,2.117-1.483,3.966-2.554,5.547
	s-2.299,2.954-3.685,4.122c-1.386,1.167-2.835,2.262-4.342,3.283c-1.703,1.168-3.406,2.289-5.109,3.357
	c-1.702,1.07-3.235,2.273-4.597,3.612c-1.362,1.338-2.468,2.908-3.321,4.706c-0.849,1.8-1.275,3.989-1.275,6.567v1.168H97.397
	c-0.049-0.438-0.085-0.984-0.109-1.642c-0.024-0.658-0.037-1.18-0.037-1.569c0-3.648,0.474-6.725,1.422-9.231
	c0.949-2.505,2.167-4.658,3.649-6.458c1.483-1.799,3.126-3.345,4.926-4.634c1.8-1.289,3.576-2.493,5.327-3.612
	c1.216-0.827,2.37-1.642,3.465-2.444c1.096-0.804,2.056-1.69,2.883-2.664c0.827-0.974,1.483-2.042,1.97-3.212
	c0.487-1.166,0.73-2.504,0.73-4.013c0-3.259-1.193-5.875-3.577-7.844c-2.383-1.971-6.105-2.957-11.165-2.957
	c-3.745,0-7.432,0.464-11.055,1.388c-3.624,0.923-6.823,2.019-9.596,3.284V13.618c1.459-0.682,3.101-1.314,4.926-1.898
	c1.824-0.583,3.721-1.082,5.691-1.496c1.97-0.412,3.99-0.741,6.056-0.986c2.068-0.242,4.074-0.364,6.021-0.364
	c4.817,0,9.121,0.572,12.916,1.715c3.795,1.142,6.994,2.784,9.597,4.925c2.602,2.142,4.596,4.732,5.982,7.771
	C138.809,26.326,139.502,29.72,139.502,33.466z M96.083,88.853h19.63v19.482h-19.63V88.853z"/>
<path fill="#6E6EBA" d="M705.364,51.301c0,2.871-0.316,5.362-0.948,7.479c-0.633,2.117-1.483,3.965-2.554,5.546
	s-2.299,2.954-3.685,4.123c-1.387,1.167-2.835,2.262-4.342,3.283c-1.703,1.168-3.405,2.289-5.108,3.357
	c-1.702,1.07-3.235,2.273-4.598,3.612s-2.469,2.907-3.321,4.706c-0.85,1.801-1.275,3.989-1.275,6.567v1.169H663.26
	c-0.05-0.438-0.086-0.984-0.109-1.643s-0.037-1.18-0.037-1.568c0-3.648,0.475-6.726,1.423-9.231
	c0.948-2.505,2.166-4.658,3.649-6.458c1.482-1.799,3.126-3.345,4.926-4.634c1.8-1.289,3.576-2.493,5.327-3.612
	c1.216-0.828,2.37-1.642,3.465-2.444c1.096-0.804,2.057-1.69,2.884-2.664c0.826-0.973,1.483-2.042,1.97-3.211
	c0.487-1.167,0.73-2.505,0.73-4.013c0-3.259-1.192-5.875-3.576-7.844c-2.384-1.971-6.105-2.957-11.165-2.957
	c-3.745,0-7.432,0.464-11.055,1.387c-3.624,0.924-6.823,2.019-9.597,3.284V31.453c1.459-0.682,3.102-1.314,4.926-1.898
	s3.722-1.083,5.692-1.496c1.969-0.412,3.989-0.741,6.056-0.986c2.068-0.242,4.074-0.363,6.021-0.363
	c4.816,0,9.121,0.571,12.915,1.715c3.796,1.142,6.994,2.785,9.597,4.925c2.603,2.142,4.597,4.732,5.983,7.771
	C704.671,44.161,705.364,47.555,705.364,51.301z M661.946,106.688h19.63v19.482h-19.63V106.688z"/>
<path fill="#6E6EBA" d="M881.285,41.573c0,2.871-0.317,5.363-0.949,7.479c-0.633,2.117-1.483,3.966-2.554,5.547
	s-2.299,2.954-3.685,4.122c-1.387,1.167-2.835,2.262-4.342,3.283c-1.703,1.168-3.405,2.289-5.108,3.357
	c-1.702,1.07-3.235,2.273-4.598,3.612c-1.362,1.338-2.469,2.908-3.321,4.706c-0.85,1.8-1.275,3.99-1.275,6.568v1.168H839.18
	c-0.05-0.438-0.086-0.984-0.109-1.643c-0.023-0.657-0.036-1.18-0.036-1.568c0-3.648,0.474-6.725,1.422-9.231
	c0.949-2.505,2.166-4.658,3.649-6.458c1.482-1.799,3.126-3.345,4.926-4.634c1.801-1.289,3.576-2.493,5.327-3.612
	c1.216-0.827,2.37-1.642,3.466-2.444c1.096-0.804,2.056-1.69,2.883-2.664c0.826-0.974,1.483-2.042,1.97-3.212
	c0.487-1.166,0.73-2.504,0.73-4.013c0-3.259-1.192-5.875-3.576-7.844c-2.384-1.971-6.105-2.957-11.165-2.957
	c-3.745,0-7.432,0.464-11.055,1.388c-3.624,0.923-6.823,2.019-9.597,3.284V21.725c1.459-0.682,3.102-1.314,4.926-1.898
	c1.824-0.583,3.722-1.082,5.692-1.496c1.969-0.412,3.989-0.741,6.056-0.986c2.068-0.242,4.074-0.364,6.021-0.364
	c4.816,0,9.121,0.572,12.915,1.715c3.796,1.142,6.994,2.784,9.597,4.924c2.603,2.142,4.597,4.732,5.983,7.772
	C880.591,34.433,881.285,37.827,881.285,41.573z M837.866,96.959h19.63v19.482h-19.63V96.959z"/>
</svg>
