<?xml version="1.0" encoding="utf-8"?>
<!-- Generator: Adobe Illustrator 15.1.0, SVG Export Plug-In . SVG Version: 6.00 Build 0)  -->
<!DOCTYPE svg PUBLIC "-//W3C//DTD SVG 1.1//EN" "http://www.w3.org/Graphics/SVG/1.1/DTD/svg11.dtd">
<svg version="1.1" id="Layer_1" xmlns="http://www.w3.org/2000/svg" xmlns:xlink="http://www.w3.org/1999/xlink" x="0px" y="0px"
	 width="403.167px" height="237.301px" viewBox="0 0 403.167 237.301" enable-background="new 0 0 403.167 237.301"
	 xml:space="preserve">
<g id="Layer_17">
	<g id="Layer_4_1_">
		<g>
			<g>
				<path fill="#666666" d="M190.342,5.476c4.099,0,6.111,2.048,6.052,6.144l-1.487,161.797c-0.063,4.097-2.142,6.146-6.239,6.146
					l-118.509-1.118c-4.096-0.063-6.112-2.142-6.05-6.238l1.488-161.796c0.063-4.097,2.141-6.113,6.238-6.051L190.342,5.476z"/>
				<path fill="#999999" d="M186.584,5.868c4.1,0.041,6.126,2.11,6.084,6.209l-1.566,161.717c-0.04,4.102-2.104,6.129-6.203,6.089
					l-118.325-1.145c-4.096-0.04-6.124-2.107-6.084-6.21l1.566-161.716c0.04-4.101,2.108-6.131,6.204-6.091L186.584,5.868z"/>
				
					<rect x="71.264" y="14.929" transform="matrix(-1 -0.0097 0.0097 -1 252.4002 180.8667)" fill="#FFFFFF" width="110.749" height="149.785"/>
			</g>
			<g>
				<path fill="#666666" d="M181.873,3.055c4.094,0,6.111,2.049,6.051,6.146l-1.492,161.797c-0.063,4.098-2.141,6.145-6.234,6.145
					l-118.511-1.116c-4.097-0.063-6.112-2.143-6.052-6.235l1.49-161.8c0.063-4.095,2.141-6.113,6.236-6.051L181.873,3.055z"/>
				<path fill="#999999" d="M178.115,3.448c4.096,0.039,6.122,2.108,6.084,6.208l-1.567,161.718
					c-0.04,4.098-2.107,6.128-6.204,6.089l-118.324-1.146c-4.097-0.039-6.124-2.109-6.085-6.209L53.587,8.39
					c0.038-4.1,2.106-6.13,6.203-6.09L178.115,3.448z"/>
				
					<rect x="62.803" y="12.488" transform="matrix(-1 -0.0097 0.0097 -1 235.5014 175.9019)" fill="#FFFFFF" width="110.748" height="149.783"/>
			</g>
			<g>
				<path fill="#666666" d="M165.207,7.804c4.099,0,6.111,2.048,6.052,6.145l-1.488,161.796c-0.063,4.098-2.144,6.146-6.237,6.146
					l-118.51-1.116c-4.097-0.063-6.112-2.141-6.051-6.239l1.489-161.796c0.061-4.097,2.141-6.113,6.235-6.051L165.207,7.804z"/>
				<path fill="#999999" d="M161.377,8.372c4.099,0.04,6.128,2.109,6.089,6.208l-1.564,161.704
					c-0.038,4.098-2.106,6.128-6.204,6.089l-118.366-1.144c-4.1-0.039-6.128-2.109-6.089-6.211l1.564-161.701
					c0.039-4.101,2.107-6.129,6.206-6.09L161.377,8.372z"/>
				
					<rect x="46.67" y="17.15" transform="matrix(-1 -0.0097 0.0097 -1 203.2327 185.0546)" fill="#FFFFFF" width="110.789" height="149.769"/>
				<path fill="#333333" d="M133.974,109.899l-0.29,10.248l16.296,0.256c0.255-0.021,0.479,0.077,0.669,0.293
					c0.17,0.192,0.251,0.419,0.251,0.674c-0.003,0.257-0.092,0.479-0.263,0.671c-0.218,0.19-0.453,0.283-0.708,0.281l-17.321-0.264
					c-0.17-0.004-0.33-0.034-0.479-0.101c-0.149-0.11-0.254-0.239-0.316-0.39c-0.084-0.149-0.123-0.31-0.123-0.48l0.364-11.24
					c0.046-0.317,0.155-0.554,0.327-0.7c0.215-0.169,0.449-0.251,0.707-0.247c0.277,0.001,0.49,0.1,0.638,0.295
					C133.895,109.409,133.978,109.645,133.974,109.899z"/>
				<path fill="#333333" d="M153.944,71.193c0.189,0.188,0.28,0.412,0.28,0.676c0.003,0.267-0.089,0.495-0.275,0.686
					c-0.188,0.188-0.411,0.282-0.677,0.282l-22.189,0.073c-0.268,0.002-0.495-0.091-0.686-0.278
					c-0.188-0.188-0.282-0.413-0.282-0.676c-0.002-0.267,0.093-0.495,0.277-0.685c0.188-0.189,0.413-0.282,0.677-0.282l22.19-0.075
					C153.526,70.913,153.756,71.005,153.944,71.193z"/>
				
					<rect x="135.86" y="74.992" transform="matrix(1 0.0096 -0.0096 1 0.7651 -1.3841)" fill="#999999" width="17.611" height="8.131"/>
				
					<rect x="131.127" y="125.138" transform="matrix(1 0.0098 -0.0098 1 1.2749 -1.3673)" fill="#999999" width="17.61" height="8.128"/>
			</g>
			<g>
				<path fill="#666666" d="M5.459,38.991c-0.993-3.973,0.496-6.455,4.468-7.448L124.711,1.939c3.911-1.055,6.361,0.435,7.354,4.469
					l40.497,156.586c0.992,3.97-0.499,6.48-4.47,7.539L53.308,200.229c-3.911,0.993-6.361-0.526-7.354-4.563L5.459,38.991z"/>
				<path fill="#999999" d="M121.052,3.378c3.969-1.021,6.464,0.453,7.487,4.423l40.324,156.612c1.021,3.971-0.449,6.465-4.42,7.487
					L49.812,201.417c-3.969,1.021-6.464-0.452-7.487-4.424L2.001,40.383c-1.022-3.971,0.45-6.466,4.42-7.487L121.052,3.378z"/>
				
					<rect x="29.839" y="24.89" transform="matrix(-0.9684 0.2494 -0.2494 -0.9684 192.6508 175.1426)" fill="#FFFFFF" width="110.782" height="149.772"/>
				
					<rect x="58.558" y="139.514" transform="matrix(0.9684 -0.2493 0.2493 0.9684 -33.3016 21.2785)" fill="#999999" width="17.61" height="5.22"/>
				
					<rect x="60.89" y="150.859" transform="matrix(0.9684 -0.2494 0.2494 0.9684 -36.067 22.2264)" fill="#999999" width="17.608" height="5.222"/>
				
					<rect x="62.855" y="160.043" transform="matrix(0.9684 -0.2493 0.2493 0.9684 -38.2834 22.9977)" fill="#999999" width="17.61" height="5.222"/>
				<path fill="#333333" d="M31.218,82.4c-0.249,0.066-0.489,0.036-0.718-0.1c-0.234-0.127-0.39-0.318-0.463-0.572
					c-0.068-0.252-0.037-0.491,0.096-0.722c0.129-0.231,0.321-0.387,0.575-0.461l23.886-6.747c0.134-0.038,0.271-0.046,0.409-0.021
					c0.146,0.021,0.28,0.077,0.405,0.16l5.83,4.154c0.217,0.155,0.348,0.364,0.394,0.627c0.045,0.264-0.009,0.502-0.163,0.721
					c-0.154,0.217-0.363,0.348-0.625,0.393s-0.502-0.01-0.722-0.162l-5.464-3.887L31.218,82.4z"/>
				<path fill="#333333" d="M114.507,48.205c0.258-0.069,0.503-0.04,0.735,0.092c0.229,0.131,0.378,0.325,0.444,0.58
					c0.071,0.257,0.042,0.502-0.092,0.734c-0.131,0.229-0.323,0.378-0.578,0.445L91.694,56.36l-3.107,5.266
					c-0.131,0.229-0.323,0.378-0.579,0.446c-0.255,0.063-0.496,0.025-0.722-0.111c-0.231-0.133-0.38-0.325-0.447-0.58
					c-0.063-0.255-0.026-0.497,0.111-0.722l3.313-5.618c0.129-0.225,0.316-0.372,0.563-0.441L114.507,48.205z"/>
				<path fill="#333333" d="M120.709,108.824l2.371,9.973l15.805-3.972c0.244-0.085,0.484-0.047,0.724,0.111
					c0.214,0.146,0.354,0.339,0.417,0.589c0.063,0.248,0.036,0.483-0.082,0.714c-0.156,0.24-0.36,0.393-0.607,0.455l-16.799,4.228
					c-0.166,0.041-0.33,0.052-0.489,0.026c-0.171-0.066-0.308-0.164-0.407-0.293c-0.119-0.124-0.199-0.269-0.243-0.434
					l-2.556-10.951c-0.039-0.32,0.007-0.574,0.135-0.763c0.164-0.221,0.371-0.36,0.618-0.424c0.269-0.068,0.499-0.029,0.692,0.12
					C120.504,108.37,120.645,108.574,120.709,108.824z"/>
				<path fill="#333333" d="M129.984,66.264c0.229,0.133,0.378,0.325,0.445,0.579c0.072,0.258,0.042,0.503-0.09,0.734
					c-0.133,0.23-0.325,0.378-0.581,0.447l-21.414,5.812c-0.258,0.071-0.502,0.039-0.734-0.092
					c-0.229-0.131-0.379-0.324-0.446-0.581c-0.07-0.256-0.039-0.5,0.093-0.733c0.131-0.229,0.324-0.379,0.579-0.447l21.414-5.812
					C129.508,66.103,129.753,66.132,129.984,66.264z"/>
				<path fill="#333333" d="M86.438,143.162c-0.068-0.249-0.036-0.489,0.098-0.719c0.129-0.234,0.32-0.388,0.574-0.461
					c0.251-0.069,0.49-0.04,0.72,0.096c0.232,0.128,0.388,0.319,0.462,0.575l6.782,24.102l51.612-13.291
					c0.254-0.061,0.495-0.025,0.723,0.112c0.229,0.132,0.379,0.324,0.447,0.579c0.063,0.257,0.025,0.498-0.111,0.723
					c-0.134,0.232-0.324,0.381-0.579,0.448L94.64,168.849c-0.251,0.064-0.491,0.034-0.72-0.095c-0.228-0.135-0.375-0.327-0.445-0.58
					L86.438,143.162z"/>
				
					<rect x="65.178" y="168.991" transform="matrix(0.9684 -0.2493 0.2493 0.9684 -40.4467 23.864)" fill="#999999" width="17.611" height="5.222"/>
				
					<rect x="32.676" y="83.463" transform="matrix(0.9684 -0.2494 0.2494 0.9684 -20.5182 13.1106)" fill="#999999" width="17.609" height="8.129"/>
				
					<rect x="98.948" y="54.274" transform="matrix(0.9684 -0.2494 0.2494 0.9684 -11.1444 28.7162)" fill="#999999" width="17.609" height="8.129"/>
				
					<rect x="114.224" y="71.73" transform="matrix(0.9684 -0.2494 0.2494 0.9684 -15.0164 33.0812)" fill="#999999" width="17.611" height="8.129"/>
				
					<rect x="122.595" y="121.862" transform="matrix(0.9684 -0.2494 0.2494 0.9684 -27.2532 36.7491)" fill="#999999" width="17.609" height="8.129"/>
				<path fill="#CC3333" d="M113.656,123.485l-24.054-17.852l25.628-19.052c1.601,2.706,2.819,5.691,3.662,8.964
					c2.307,8.954,1.111,17.408-3.586,25.364C114.781,121.8,114.232,122.66,113.656,123.485z"/>
				<path fill="#FFCC33" d="M69.229,75.11l17.013,30.629l26.192,19.55c-4.916,5.588-10.782,9.259-17.597,11.014
					c-8.949,2.306-17.403,1.107-25.357-3.592c-7.955-4.697-13.085-11.524-15.392-20.479c-2.306-8.952-1.108-17.408,3.587-25.365
					C60.667,81.798,64.517,77.881,69.229,75.11z"/>
				<path fill="#33CC99" d="M101.823,74.125c0.563,0.298,1.122,0.61,1.681,0.941c4.394,2.596,7.924,5.843,10.593,9.741
					l-26.174,19.373l12.836-30.592C101.114,73.763,101.47,73.941,101.823,74.125z"/>
				<path fill="#6666CC" d="M78.427,68.327c7.359-1.894,14.146-1.516,20.361,1.141L86.63,99.289L71.108,71.104
					C73.36,69.927,75.801,69.002,78.427,68.327z"/>
				
					<polyline fill="none" stroke="#66CC00" stroke-width="3" stroke-linecap="round" stroke-linejoin="round" stroke-miterlimit="3" points="
					94.6,167.537 98.158,146.048 110.251,148.327 119.691,139.15 130.563,139.39 141.791,134.451 				"/>
				<path fill="#FF3300" d="M125.881,151.25l0.647-0.563l-0.016,0.004l0.81-0.705l3.685-3.164c0.141-0.125,0.304-0.199,0.487-0.227
					l4.998-0.74l2.228-0.344l5.473-0.829c0.267-0.038,0.507,0.02,0.726,0.178c0.211,0.158,0.338,0.369,0.376,0.631
					c0.04,0.266-0.021,0.505-0.177,0.724c-0.16,0.213-0.37,0.338-0.632,0.379l-6.622,0.992l-2.224,0.342l-3.581,0.542l-3.64,3.137
					l-0.636,0.544l-0.018,0.004l-0.814,0.69l-10.994,9.43c-0.135,0.114-0.284,0.188-0.457,0.215
					c-0.182,0.027-0.357,0.008-0.528-0.063l-9.614-3.891l-9.609,8.908l-0.011,0.021c-0.031,0.034-0.068,0.063-0.107,0.094
					c-0.069,0.039-0.143,0.076-0.222,0.104c-0.108,0.036-0.228,0.047-0.354,0.041c-0.133-0.005-0.258-0.032-0.37-0.087
					c-0.096-0.044-0.182-0.1-0.257-0.164c-0.016-0.019-0.031-0.036-0.046-0.055c-0.087-0.092-0.154-0.2-0.201-0.327
					c-0.034-0.11-0.049-0.229-0.041-0.354c0.005-0.135,0.033-0.259,0.086-0.371l0.047-0.079c0.041-0.08,0.102-0.157,0.174-0.227
					l3.657-3.39l6.401-5.947c0.134-0.125,0.289-0.206,0.468-0.236c0.187-0.029,0.369-0.014,0.545,0.059l9.636,3.904L125.881,151.25z
					"/>
				<path fill="#660099" d="M135.639,147.925l2.224-0.342c-0.178,0.427-0.354,0.854-0.529,1.275
					c-2.544,6.142-4.203,9.238-4.98,9.289c-0.825,0.376-2.627-1.395-5.399-5.307l0.813-0.69l0.017-0.004l0.637-0.544
					c2.117,3.027,3.267,4.591,3.454,4.682c0.295-0.22,1.522-2.939,3.687-8.158C135.588,148.06,135.613,147.994,135.639,147.925z
					 M95.408,167.661c-0.245,0.088-0.486,0.071-0.725-0.046c0.112,0.055,0.237,0.082,0.37,0.087
					C95.18,167.707,95.299,167.697,95.408,167.661z M94.18,167.069c-0.086-0.248-0.071-0.487,0.045-0.725
					c-0.053,0.112-0.081,0.236-0.086,0.371C94.132,166.838,94.146,166.958,94.18,167.069z M136.492,145.854
					c0.848-2.073,1.668-4.137,2.457-6.19c0.093-0.239,0.259-0.415,0.492-0.523l3.313-1.515c0.243-0.11,0.487-0.117,0.739-0.021
					c0.248,0.086,0.43,0.251,0.539,0.485c0.109,0.243,0.116,0.49,0.023,0.739c-0.09,0.251-0.252,0.428-0.488,0.539l-2.958,1.359
					c-0.618,1.588-1.248,3.184-1.892,4.783L136.492,145.854z M94.271,166.265l6.733-14.169c0.085-0.182,0.213-0.326,0.385-0.43
					c0.173-0.101,0.359-0.146,0.563-0.128l9.688,0.78l11.311-7.179c0.215-0.142,0.445-0.186,0.694-0.133
					c0.254,0.058,0.454,0.193,0.603,0.408l3.074,4.567l-0.81,0.705l0.016-0.004l-0.647,0.563l-2.696-3.988l-10.814,6.854
					c-0.181,0.116-0.377,0.167-0.59,0.15l-9.336-0.755l-4.341,9.139l-3.657,3.39C94.373,166.108,94.313,166.185,94.271,166.265z"/>
				<g>
					<path fill="#006600" d="M54.517,140.369l-3.164,9.495c-0.062,0.188-0.186,0.375-0.373,0.561
						c-0.123,0.124-0.341,0.187-0.649,0.187c-0.187-0.123-0.373-0.218-0.56-0.279l-3.538-3.91c-0.062-0.123,0-0.247,0.187-0.371
						c0.187-0.187,0.373-0.342,0.559-0.465c0.188-0.188,0.404-0.279,0.652-0.279c0.311,0,0.558,0.122,0.744,0.37l1.677,1.861
						l1.396-6.236c0.063-0.309,0.188-0.525,0.373-0.65c0.188,0,0.496-0.031,0.932-0.096c0.372-0.122,0.807-0.152,1.303-0.089
						L54.517,140.369z"/>
				</g>
				<g>
					<path fill="#006600" d="M55.17,150.33c0.496,0,0.962-0.03,1.396-0.092c0.313-0.064,0.436-0.064,0.373,0l-3.072,9.399
						c-0.063,0.312-0.154,0.528-0.278,0.652c-0.249,0.124-0.466,0.188-0.651,0.188c-0.311,0-0.56-0.125-0.745-0.374l-3.538-3.909
						c-0.062-0.063,0.031-0.154,0.279-0.279c0.186-0.125,0.404-0.279,0.65-0.467c0.126-0.187,0.343-0.247,0.652-0.187
						c0.248,0,0.466,0.124,0.652,0.373l1.676,1.862l1.396-6.424c0-0.248,0.093-0.404,0.278-0.466
						C54.426,150.487,54.734,150.392,55.17,150.33z"/>
				</g>
				<g>
					<path fill="#006600" d="M58.801,159.172l0.465-0.091l-3.071,9.495c-0.063,0.186-0.187,0.37-0.372,0.559
						c-0.188,0.123-0.402,0.188-0.651,0.188c-0.249-0.063-0.465-0.156-0.652-0.279l-3.537-3.909c-0.062-0.063,0-0.155,0.188-0.279
						c0.247-0.124,0.465-0.279,0.65-0.466c0.188-0.188,0.402-0.278,0.651-0.278c0.311,0,0.56,0.122,0.745,0.37l1.675,1.863
						l1.489-6.425c-0.063-0.187,0-0.342,0.187-0.466c0.187-0.062,0.497-0.094,0.932-0.094
						C57.931,159.236,58.367,159.172,58.801,159.172z"/>
				</g>
				<g>
					<path fill="#006600" d="M58.707,169.601c0.063-0.311,0.154-0.495,0.279-0.559c0.186-0.062,0.466-0.123,0.837-0.186
						c0.436-0.125,0.9-0.156,1.397-0.096l0.465-0.093l-3.165,9.497c0,0.246-0.094,0.466-0.278,0.65
						c-0.188,0.124-0.403,0.187-0.652,0.187c-0.311-0.063-0.526-0.187-0.65-0.371l-3.631-3.819c-0.063-0.122,0.03-0.246,0.279-0.369
						c0.186-0.126,0.402-0.281,0.65-0.467c0.124-0.188,0.343-0.248,0.651-0.188c0.249,0,0.465,0.093,0.652,0.277l1.676,1.863
						L58.707,169.601z"/>
				</g>
				<g>
					<path fill="#666666" d="M69.413,36.382l1.956,7.168c0.124,0.621,0.31,1.056,0.559,1.305c0.247,0.187,0.526,0.217,0.838,0.093
						c0.932-0.248,1.272-0.931,1.023-2.048l-1.954-7.167l6.05-1.491l4.19,16.012l-5.959,1.489l-1.676-6.145
						c-0.373,0.56-0.963,1.023-1.77,1.397c-0.685,0.373-1.428,0.683-2.233,0.932c-1.428,0.371-2.514,0.402-3.26,0.093
						c-0.868-0.497-1.458-1.304-1.769-2.421l-1.954-7.633L69.413,36.382z M87.938,38.338l3.726-1.023l0.743,2.979l-3.724,1.025
						l0.931,3.537l4.375-1.117l0.84,3.258l-10.333,2.606l-4.19-16.013l9.962-2.605l0.838,3.258l-4.004,1.117L87.938,38.338z
						 M105.348,30.705l-3.632,0.932l3.353,12.753l-5.958,1.489l-3.26-12.754l-3.537,0.932l-0.931-3.259l13.127-3.351L105.348,30.705
						z M48.652,45.134c0.312,0.621,0.685,1.77,1.118,3.445l0.651,2.699c0.435,1.676,0.683,2.824,0.745,3.445
						c0.124,0.743-0.03,1.426-0.466,2.048c-0.497,0.743-1.181,1.364-2.05,1.861c-0.869,0.56-1.955,1.023-3.258,1.396
						c-1.181,0.31-2.327,0.434-3.445,0.372c-1.055,0.062-1.952-0.125-2.697-0.559c-0.81-0.436-1.366-0.992-1.675-1.676
						c-0.25-0.559-0.593-1.646-1.026-3.259l-0.56-2.701c-0.434-1.675-0.712-2.854-0.838-3.537c-0.061-0.743,0.156-1.426,0.652-2.048
						c0.435-0.62,1.056-1.24,1.861-1.861c0.992-0.558,2.109-0.992,3.353-1.303c1.241-0.372,2.39-0.559,3.443-0.559
						c1.057,0.125,1.955,0.341,2.7,0.65C47.847,43.987,48.344,44.512,48.652,45.134z M49.305,41.597l13.033-3.352l0.931,3.258
						l-3.632,0.932l3.26,12.754l-5.866,1.49l-3.442-12.755l-3.443,0.933L49.305,41.597z M41.857,46.065
						c-0.373,0.125-0.622,0.277-0.744,0.466c-0.125,0.186-0.063,0.682,0.187,1.488l1.86,7.542c0.25,0.868,0.467,1.427,0.65,1.675
						c0.188,0.125,0.467,0.156,0.839,0.093c0.437-0.123,0.684-0.31,0.745-0.558c0.063-0.312-0.03-0.933-0.279-1.862l-1.86-7.354
						c-0.188-0.683-0.403-1.148-0.652-1.396C42.478,46.035,42.229,46.002,41.857,46.065z"/>
				</g>
			</g>
			<g>
				<path fill="#666666" d="M388.352,7.152c4.098,0,6.116,2.048,6.053,6.144l-1.488,161.799c-0.063,4.095-2.141,6.144-6.237,6.144
					l-118.51-1.117c-4.098-0.063-6.112-2.141-6.052-6.237l1.49-161.797c0.063-4.097,2.141-6.113,6.238-6.051L388.352,7.152z"/>
				<path fill="#999999" d="M384.597,7.543c4.097,0.039,6.126,2.109,6.086,6.208l-1.567,161.716
					c-0.038,4.103-2.107,6.132-6.205,6.093l-118.323-1.148c-4.097-0.038-6.123-2.11-6.084-6.209l1.566-161.717
					c0.04-4.101,2.107-6.13,6.205-6.09L384.597,7.543z"/>
				
					<rect x="269.296" y="16.582" transform="matrix(-1 -0.0097 0.0097 -1 648.4383 186.0921)" fill="#FFFFFF" width="110.748" height="149.783"/>
			</g>
			<g>
				<path fill="#666666" d="M379.883,4.731c4.096,0,6.112,2.048,6.051,6.145l-1.489,161.795c-0.061,4.101-2.142,6.146-6.235,6.146
					l-118.51-1.117c-4.098-0.063-6.112-2.142-6.052-6.238l1.489-161.796c0.063-4.096,2.143-6.114,6.238-6.051L379.883,4.731z"/>
				<path fill="#999999" d="M376.126,5.124c4.097,0.04,6.124,2.11,6.085,6.208l-1.569,161.719c-0.039,4.098-2.105,6.128-6.204,6.088
					l-118.322-1.146c-4.097-0.039-6.125-2.108-6.086-6.208l1.566-161.717c0.041-4.101,2.111-6.13,6.206-6.089L376.126,5.124z"/>
				
					<rect x="260.814" y="14.188" transform="matrix(-1 -0.0097 0.0097 -1 631.4971 181.2219)" fill="#FFFFFF" width="110.748" height="149.782"/>
			</g>
			<g>
				<path fill="#666666" d="M369.269,9.48c4.096,0,6.115,2.048,6.051,6.144l-1.488,161.797c-0.063,4.097-2.142,6.145-6.236,6.145
					l-118.509-1.118c-4.099-0.063-6.112-2.141-6.053-6.235l1.489-161.798c0.063-4.097,2.143-6.113,6.238-6.051L369.269,9.48z"/>
				<path fill="#999999" d="M365.441,10.046c4.098,0.04,6.128,2.109,6.088,6.208l-1.563,161.702c-0.041,4.102-2.11,6.13-6.209,6.09
					l-118.365-1.145c-4.101-0.039-6.129-2.108-6.089-6.208l1.563-161.702c0.041-4.1,2.108-6.129,6.209-6.09L365.441,10.046z"/>
				
					<rect x="250.74" y="18.836" transform="matrix(-1 -0.0097 0.0097 -1 611.3427 190.409)" fill="#FFFFFF" width="110.786" height="149.77"/>
				<path fill="#333333" d="M338.039,111.576l-0.292,10.245l16.297,0.256c0.256-0.021,0.479,0.077,0.669,0.294
					c0.168,0.195,0.252,0.418,0.248,0.675c-0.001,0.256-0.088,0.479-0.262,0.669c-0.217,0.191-0.45,0.285-0.707,0.283l-17.32-0.265
					c-0.17,0-0.331-0.034-0.479-0.102c-0.146-0.106-0.254-0.236-0.315-0.388c-0.083-0.149-0.124-0.312-0.123-0.481l0.365-11.237
					c0.044-0.319,0.152-0.554,0.326-0.702c0.217-0.167,0.45-0.251,0.707-0.249c0.276,0.002,0.488,0.101,0.638,0.296
					C337.957,111.083,338.041,111.319,338.039,111.576z"/>
				<path fill="#333333" d="M358.009,72.868c0.188,0.188,0.283,0.413,0.283,0.677c0,0.267-0.096,0.494-0.282,0.686
					c-0.187,0.187-0.41,0.282-0.674,0.282l-22.189,0.074c-0.268,0.001-0.496-0.094-0.687-0.278
					c-0.188-0.189-0.281-0.413-0.281-0.678c-0.002-0.265,0.092-0.494,0.278-0.685c0.188-0.188,0.412-0.281,0.675-0.281l22.19-0.074
					C357.589,72.589,357.816,72.68,358.009,72.868z"/>
				
					<rect x="339.926" y="76.631" transform="matrix(1 0.0098 -0.0098 1 0.8041 -3.3996)" fill="#999999" width="17.611" height="8.128"/>
				
					<rect x="335.141" y="126.899" transform="matrix(1 0.0096 -0.0096 1 1.272 -3.2931)" fill="#999999" width="17.613" height="8.128"/>
			</g>
			<g>
				<path fill="#666666" d="M396.454,25.677c4.032,0.497,5.739,2.792,5.12,6.89l-21.039,160.4c-0.561,4.099-2.856,5.866-6.89,5.308
					l-117.579-15.361c-3.972-0.556-5.678-2.884-5.119-6.979l21.039-160.495c0.56-4.097,2.855-5.834,6.891-5.213L396.454,25.677z"/>
				<path fill="#999999" d="M392.144,25.648c4.063,0.537,5.823,2.837,5.285,6.9l-21.177,160.323
					c-0.537,4.064-2.836,5.828-6.898,5.291l-117.316-15.497c-4.063-0.535-5.824-2.837-5.288-6.904l21.178-160.318
					c0.538-4.065,2.837-5.828,6.899-5.292L392.144,25.648z"/>
				
					<rect x="267.8" y="26.997" transform="matrix(-0.9914 -0.131 0.131 -0.9914 630.2221 245.2194)" fill="#FFFFFF" width="110.753" height="149.77"/>
				<polygon fill="#999999" points="285.3,142.416 351.022,150.704 350.093,155.73 284.274,147.072 				"/>
				<g>
					<path fill="#666666" d="M295.725,35.172c0.188-0.682,0.651-1.21,1.396-1.582c0.621-0.434,1.396-0.775,2.328-1.023
						c1.18-0.125,2.391-0.125,3.631,0c1.304,0.187,2.449,0.466,3.444,0.838c0.932,0.434,1.675,0.962,2.232,1.582
						c0.497,0.622,0.776,1.305,0.839,2.049c0,0.683-0.093,1.861-0.279,3.536l-0.465,2.793c-0.188,1.677-0.373,2.825-0.56,3.444
						c-0.187,0.745-0.589,1.336-1.21,1.77c-0.745,0.497-1.582,0.806-2.516,0.931c-1.054,0.187-2.264,0.218-3.628,0.094
						c-1.242-0.188-2.358-0.495-3.354-0.933c-0.992-0.372-1.736-0.898-2.233-1.582c-0.622-0.683-0.961-1.396-1.023-2.141
						c0-0.62,0.125-1.77,0.371-3.444l0.373-2.7C295.324,37.066,295.539,35.856,295.725,35.172z M301.591,36.943l-1.023,7.726
						c-0.062,0.87-0.093,1.428-0.093,1.675c0.124,0.188,0.402,0.344,0.837,0.467c0.435,0,0.714-0.062,0.839-0.188
						c0.188-0.309,0.34-0.961,0.464-1.954l1.023-7.448c0.063-0.682,0.032-1.209-0.092-1.582c-0.125-0.124-0.343-0.248-0.651-0.371
						c-0.435,0-0.744,0.062-0.931,0.187C301.84,35.577,301.715,36.074,301.591,36.943z M311.458,33.962l13.313,1.771l-0.372,3.351
						l-3.632-0.466l-1.862,13.033l-5.957-0.838l1.677-13.033l-3.632-0.465L311.458,33.962z M332.031,36.663l-0.838,7.354
						c-0.124,0.62-0.124,1.085,0,1.396c0.188,0.312,0.467,0.465,0.838,0.465c0.931,0.063,1.49-0.434,1.677-1.489l0.839-7.446
						l6.234,0.837l-2.232,16.478l-6.052-0.838l0.745-6.423c-0.496,0.434-1.211,0.651-2.142,0.651
						c-0.744,0.124-1.521,0.154-2.328,0.093c-1.551-0.187-2.604-0.559-3.163-1.118c-0.622-0.806-0.871-1.799-0.746-2.978l1.117-7.82
						L332.031,36.663z M351.581,55.933l-10.427-1.396l2.049-16.384l10.239,1.304l-0.466,3.258l-4.094-0.466l-0.373,3.071
						l3.814,0.466l-0.464,3.073l-3.815-0.467l-0.373,3.632l4.374,0.65L351.581,55.933z M357.819,43.458l-3.725-0.466l0.374-3.351
						l13.498,1.861l-0.465,3.258l-3.725-0.466l-1.677,13.033l-6.053-0.837L357.819,43.458z"/>
				</g>
				<g>
					<path fill="#FF0000" d="M316.672,79.299l10.334-0.092c0.372,0,0.714,0.153,1.023,0.464c0.247,0.188,0.371,0.466,0.371,0.837
						l2.606,31.84l12.755-10.705c0.125-0.126,0.31-0.217,0.56-0.278c0.185-0.063,0.403-0.095,0.649-0.095l11.824,2.513
						c0.372,0.063,0.65,0.249,0.837,0.56c0.188,0.311,0.248,0.622,0.188,0.933c-0.063,0.309-0.249,0.588-0.558,0.836
						c-0.373,0.188-0.716,0.219-1.027,0.095l-11.17-2.234l-14.242,12.011c-0.25,0.185-0.559,0.309-0.932,0.37
						c-0.434,0-0.745-0.123-0.931-0.37c-0.312-0.25-0.466-0.561-0.466-0.933l-2.699-33.233l-9.961,0.187
						c-0.249,0-0.496-0.063-0.745-0.187s-0.404-0.279-0.466-0.465l-15.361-25.137c-0.186-0.311-0.248-0.65-0.186-1.023
						c0.125-0.311,0.371-0.528,0.743-0.651c0.313-0.249,0.653-0.311,1.022-0.186c0.373,0.124,0.686,0.34,0.934,0.649L316.672,79.299
						z"/>
					<path fill="#CCFF00" d="M303.173,69.525l-9.311,68.611l-11.913-1.584l9.308-68.61L303.173,69.525z M335.104,126.871
						l-2.235,16.572l-11.916-1.582l2.234-16.572L335.104,126.871z M344.229,116.164l11.915,1.676l-3.817,28.3l-11.916-1.674
						L344.229,116.164z M308.293,88.983l11.916,1.676l-6.797,50.642l-11.914-1.677L308.293,88.983z"/>
				</g>
				<polygon fill="#999999" points="283.809,150.33 349.533,158.617 348.602,163.642 282.785,154.985 				"/>
				<polygon fill="#999999" points="282.227,159.547 347.951,167.832 347.021,172.859 281.203,164.202 				"/>
			</g>
			<g>
				<path d="M366.663,217.171v4.841h2.422c1.054,0,1.892,0.095,2.513,0.28c0.621,0.123,1.21,0.401,1.768,0.837
					c0.497,0.372,0.9,0.869,1.211,1.489c0.25,0.622,0.373,1.304,0.373,2.047c0,0.745-0.154,1.43-0.466,2.05
					c-0.247,0.619-0.62,1.118-1.118,1.487c-0.558,0.498-1.146,0.841-1.768,1.027c-0.621,0.186-1.459,0.277-2.513,0.277h-6.892
					V217.17L366.663,217.171L366.663,217.171z M358.844,217.171v14.337h-4.47v-6.144h-4.654v6.144h-4.469v-14.337h4.469v5.027h4.654
					v-5.027H358.844z M380.813,217.171v14.337h-4.468v-14.337H380.813z M387.701,222.478h5.4c-0.063-0.932-0.28-1.645-0.652-2.141
					c-0.436-0.497-1.086-0.746-1.954-0.746c-0.808,0-1.458,0.28-1.955,0.838C388.045,220.925,387.764,221.609,387.701,222.478z
					 M397.477,223.595v1.583h-9.775c0.063,0.683,0.218,1.239,0.468,1.675c0.184,0.435,0.495,0.807,0.93,1.119
					c0.373,0.247,0.808,0.434,1.306,0.556c0.495,0.127,1.054,0.188,1.675,0.188c0.495,0,0.994-0.062,1.489-0.188
					c0.496-0.122,0.963-0.278,1.396-0.465c0.37-0.187,0.713-0.37,1.023-0.558c0.309-0.187,0.558-0.341,0.742-0.465h0.467v3.629
					c-0.371,0.187-0.682,0.341-0.932,0.465c-0.31,0.125-0.744,0.248-1.302,0.374c-0.496,0.124-0.995,0.217-1.491,0.278
					s-1.115,0.094-1.861,0.094c-2.729,0-4.809-0.649-6.236-1.957c-1.428-1.238-2.143-3.07-2.143-5.489
					c0-2.296,0.684-4.158,2.049-5.586c1.305-1.365,3.166-2.048,5.587-2.048c2.171,0,3.816,0.59,4.934,1.769
					C396.919,219.746,397.477,221.421,397.477,223.595z M294.701,217.171v5.027h4.654v-5.027h4.471v14.337h-4.471v-6.144h-4.654
					v6.144h-4.468v-14.337H294.701z M310.153,217.171l2.98,9.029l2.793-9.029h4.653l-7.261,19.549h-4.747l2.141-5.586l-5.213-13.963
					H310.153z M280.365,223.595v1.583h-9.775c0.063,0.683,0.218,1.239,0.466,1.675c0.188,0.435,0.496,0.807,0.931,1.119
					c0.373,0.247,0.809,0.434,1.304,0.556c0.497,0.127,1.056,0.188,1.678,0.188c0.496,0,0.993-0.062,1.487-0.188
					c0.498-0.122,0.964-0.278,1.396-0.465c0.374-0.187,0.714-0.37,1.025-0.558c0.311-0.187,0.556-0.341,0.744-0.465h0.465v3.629
					c-0.372,0.187-0.685,0.341-0.931,0.465c-0.313,0.125-0.747,0.248-1.305,0.374c-0.495,0.124-0.992,0.217-1.489,0.278
					c-0.496,0.062-1.117,0.094-1.86,0.094c-2.73,0-4.812-0.649-6.239-1.957c-1.426-1.238-2.141-3.07-2.141-5.489
					c0-2.296,0.684-4.158,2.048-5.586c1.305-1.365,3.166-2.048,5.587-2.048c2.171,0,3.814,0.59,4.935,1.769
					C279.806,219.746,280.365,221.421,280.365,223.595z M323.188,221.456c-0.31-0.249-0.652-0.375-1.022-0.375h-0.933v-3.909
					c0.124,0,0.342,0,0.654,0c0.369,0,0.741,0,1.115,0c0.931,0,1.735,0.186,2.42,0.562c0.623,0.369,1.117,0.991,1.488,1.858
					c0.125,0.188,0.248,0.469,0.373,0.838c0.122,0.312,0.248,0.59,0.372,0.84c0.311,0.743,0.589,1.209,0.839,1.396
					c0.248,0.249,0.682,0.372,1.303,0.372v-5.865h4.47v5.865c0.622,0,1.054-0.123,1.303-0.372c0.249-0.188,0.528-0.652,0.838-1.396
					c0.124-0.188,0.249-0.467,0.373-0.84c0.124-0.31,0.246-0.589,0.371-0.838c0.373-0.867,0.899-1.489,1.584-1.858
					c0.62-0.376,1.396-0.562,2.326-0.562c0.373,0,0.744,0,1.116,0c0.313,0,0.527,0,0.654,0v3.817h-0.934
					c-0.372,0-0.684,0.124-0.931,0.371c-0.312,0.248-0.561,0.651-0.745,1.212c-0.186,0.309-0.342,0.618-0.466,0.93
					c-0.123,0.312-0.312,0.56-0.558,0.746l4.28,7.261h-5.025l-3.166-5.586h-1.022v5.586h-4.47v-5.586h-1.024l-3.258,5.586h-4.935
					l4.282-7.261c-0.186-0.124-0.373-0.313-0.559-0.56c-0.124-0.248-0.249-0.56-0.372-0.933
					C323.683,222.2,323.436,221.764,323.188,221.456z M369.83,225.366c-0.373-0.312-0.9-0.467-1.583-0.467h-1.584v3.724h1.584
					c0.495,0,0.868-0.061,1.116-0.185c0.31-0.126,0.527-0.28,0.65-0.467c0.188-0.188,0.279-0.374,0.279-0.561
					c0.063-0.246,0.094-0.465,0.094-0.65C370.388,226.138,370.201,225.672,369.83,225.366z M56.008,223.129v8.379H51.26v-18.991
					h4.748v6.982h6.517v-6.982h4.747v18.991h-4.747v-8.379H56.008z M85.611,217.171c0.372,0,0.744,0,1.117,0
					c0.932,0,1.737,0.186,2.42,0.562c0.621,0.369,1.117,0.991,1.489,1.858c0.125,0.188,0.249,0.469,0.372,0.838
					c0.126,0.312,0.249,0.59,0.373,0.84c0.311,0.743,0.589,1.209,0.837,1.396c0.249,0.249,0.685,0.372,1.305,0.372v-5.865h4.468
					v5.865c0.622,0,1.058-0.123,1.305-0.372c0.249-0.188,0.526-0.652,0.838-1.396c0.123-0.188,0.247-0.467,0.372-0.84
					c0.125-0.31,0.248-0.589,0.373-0.838c0.372-0.867,0.897-1.489,1.581-1.858c0.621-0.376,1.396-0.562,2.329-0.562
					c0.372,0,0.743,0,1.116,0c0.311,0,0.526,0,0.651,0v3.817h-0.931c-0.373,0-0.685,0.124-0.933,0.371
					c-0.311,0.248-0.56,0.651-0.744,1.212c-0.188,0.309-0.343,0.618-0.465,0.93c-0.125,0.312-0.313,0.56-0.559,0.746l4.281,7.261
					h-5.027l-3.165-5.586h-1.024v5.586h-4.468v-5.586H92.5l-3.259,5.586h-4.936l4.283-7.261c-0.188-0.124-0.372-0.313-0.56-0.56
					c-0.124-0.248-0.249-0.56-0.372-0.933c-0.247-0.558-0.495-0.992-0.744-1.301c-0.311-0.249-0.651-0.375-1.023-0.375h-0.932
					v-3.909C85.084,217.171,85.303,217.171,85.611,217.171z M84.307,217.171l-7.261,19.549H72.3l2.141-5.586l-5.214-13.963h4.655
					l2.978,9.029l2.793-9.029H84.307z M113.446,222.2h4.655v-5.027h4.469v14.337h-4.469v-6.144h-4.655v6.144h-4.469v-14.337h4.469
					V222.2z M125.921,217.171h4.469v4.841h2.421c1.055,0,1.895,0.095,2.514,0.28c0.62,0.123,1.211,0.401,1.771,0.837
					c0.495,0.372,0.897,0.869,1.209,1.489c0.248,0.622,0.373,1.304,0.373,2.047c0,0.745-0.155,1.43-0.465,2.05
					c-0.249,0.619-0.622,1.118-1.117,1.487c-0.56,0.498-1.149,0.841-1.771,1.027c-0.619,0.186-1.459,0.277-2.514,0.277h-6.89
					V217.171z M252.251,212.517v6.982h6.517v-6.982h4.747v18.991h-4.747v-8.379h-6.517v8.379h-4.747v-18.991H252.251z
					 M270.59,222.478h5.398c-0.063-0.932-0.278-1.645-0.649-2.141c-0.437-0.497-1.088-0.746-1.956-0.746
					c-0.807,0-1.458,0.28-1.954,0.838C270.93,220.925,270.653,221.609,270.59,222.478z M144.54,217.171v14.337h-4.47v-14.337H144.54
					z M161.203,223.595v1.583h-9.773c0.063,0.683,0.217,1.239,0.466,1.675c0.187,0.435,0.496,0.807,0.931,1.119
					c0.373,0.247,0.808,0.434,1.303,0.556c0.497,0.127,1.057,0.188,1.677,0.188c0.497,0,0.994-0.062,1.489-0.188
					c0.497-0.122,0.963-0.278,1.396-0.465c0.374-0.187,0.714-0.37,1.024-0.558c0.31-0.187,0.559-0.341,0.746-0.465h0.465v3.629
					c-0.373,0.187-0.684,0.341-0.932,0.465c-0.312,0.125-0.746,0.248-1.305,0.374c-0.496,0.124-0.992,0.217-1.488,0.278
					s-1.117,0.094-1.861,0.094c-2.73,0-4.812-0.649-6.237-1.957c-1.428-1.238-2.141-3.07-2.141-5.489
					c0-2.296,0.683-4.158,2.047-5.586c1.304-1.365,3.165-2.048,5.586-2.048c2.172,0,3.815,0.59,4.935,1.769
					C160.645,219.746,161.203,221.421,161.203,223.595z M151.43,222.478h5.398c-0.063-0.932-0.278-1.645-0.651-2.141
					c-0.435-0.497-1.086-0.746-1.954-0.746c-0.809,0-1.459,0.28-1.955,0.838C151.771,220.925,151.49,221.609,151.43,222.478z
					 M134.112,226.76c0-0.622-0.187-1.088-0.558-1.396c-0.373-0.312-0.901-0.467-1.584-0.467h-1.582v3.724h1.582
					c0.496,0,0.869-0.061,1.118-0.185c0.312-0.126,0.526-0.28,0.651-0.467c0.186-0.188,0.278-0.374,0.278-0.561
					C134.082,227.165,134.112,226.947,134.112,226.76z"/>
			</g>
		</g>
	</g>
</g>
</svg>
