<?xml version="1.0" encoding="utf-8"?>
<!-- Generator: Adobe Illustrator 15.1.0, SVG Export Plug-In . SVG Version: 6.00 Build 0)  -->
<!DOCTYPE svg PUBLIC "-//W3C//DTD SVG 1.1//EN" "http://www.w3.org/Graphics/SVG/1.1/DTD/svg11.dtd">
<svg version="1.1" xmlns="http://www.w3.org/2000/svg" xmlns:xlink="http://www.w3.org/1999/xlink" x="0px" y="0px"
	 width="214.544px" height="279.26px" viewBox="0 0 214.544 279.26" enable-background="new 0 0 214.544 279.26"
	 xml:space="preserve">
<g id="зелен_плашка">
</g>
<g id="сер_плашка">
</g>
<g id="сер_плаш">
</g>
<g id="сер_плаш_1_">
</g>
<g id="сер_плаш_2_">
</g>
<g id="Layer_14">
</g>
<g id="заголов">
</g>
<g id="_x31_п">
</g>
<g id="_x32_п">
</g>
<g id="_x33_п">
</g>
<g id="_x34_п">
</g>
<g id="_x35_п">
</g>
<g id="текст_шапка">
</g>
<g id="картинки">
	<g>
		<g id="Layer_1_1_">
			<g>
				<path fill-rule="evenodd" clip-rule="evenodd" fill="#6699CC" d="M206.928,213.681v-27.272v-0.193v-29.474v-0.233v-30.826
					v-0.192V96.013v-0.229V47.302c0-4.998-2.783-7.497-8.345-7.497H16.788c-5.612,0-8.421,2.499-8.421,7.497v215.633
					c0,4.997,2.809,7.494,8.421,7.494h181.795c5.562,0,8.345-2.497,8.345-7.494v-49.021V213.681z M2.264,11.529
					c0-5.924,2.963-8.885,8.885-8.885h192.379c5.924,0,8.886,2.961,8.886,8.885V268.73c0,5.923-2.962,8.884-8.886,8.884H11.148
					c-5.922,0-8.885-2.961-8.885-8.884V11.529z"/>
				<path fill-rule="evenodd" clip-rule="evenodd" fill="#FFFFFF" d="M45.374,43.515H11.767v21.786h33.607V43.515z M206.928,95.784
					c-0.023-0.813-0.32-1.507-0.889-2.089c-0.608-0.599-1.342-0.896-2.202-0.887V73.646H127.89v19.162h-2.472V73.646H49.469v19.162
					h-4.095V73.646H11.767v19.162c-0.858-0.009-1.593,0.288-2.201,0.887c-0.598,0.609-0.895,1.343-0.891,2.203
					c-0.004,0.86,0.293,1.593,0.891,2.203c0.608,0.597,1.343,0.893,2.201,0.887v23.95c-0.858,0.007-1.592,0.317-2.201,0.927
					c-0.599,0.602-0.896,1.322-0.891,2.164c0.01,0.857,0.317,1.591,0.93,2.203c0.598,0.598,1.32,0.894,2.162,0.887v24.417
					c-0.858-0.007-1.593,0.289-2.201,0.887c-0.598,0.609-0.895,1.343-0.891,2.203c-0.004,0.857,0.293,1.591,0.891,2.2
					c0.608,0.599,1.343,0.894,2.201,0.891v23.949c-0.858,0.007-1.592,0.315-2.201,0.928c-0.599,0.599-0.896,1.32-0.891,2.163
					c0.01,0.858,0.317,1.591,0.93,2.201c0.598,0.598,1.32,0.893,2.162,0.889v20.861c-0.858-0.005-1.593,0.29-2.201,0.888
					c-0.598,0.609-0.895,1.343-0.891,2.203c-0.004,0.857,0.293,1.592,0.891,2.2c0.608,0.598,1.343,0.894,2.201,0.89v23.952
					c-0.858,0.005-1.592,0.313-2.201,0.927c-0.599,0.597-0.896,1.318-0.891,2.164c0.01,0.855,0.317,1.589,0.93,2.199
					c0.598,0.597,1.32,0.893,2.162,0.891v20.936h33.607v-21.015h4.095v21.015h75.949v-21.208h2.472v21.208h75.947v-21.4
					c0.825-0.027,1.534-0.336,2.125-0.928c0.599-0.6,0.895-1.32,0.889-2.164c-0.008-0.856-0.316-1.591-0.928-2.202
					c-0.579-0.579-1.275-0.875-2.086-0.888v-23.486c0.86,0.004,1.594-0.292,2.202-0.89c0.568-0.579,0.865-1.278,0.889-2.086v49.021
					c0,4.997-2.783,7.494-8.345,7.494H16.788c-5.612,0-8.421-2.497-8.421-7.494V47.302c0-4.998,2.809-7.497,8.421-7.497h181.795
					c5.562,0,8.345,2.499,8.345,7.497V95.784z M45.374,98.988h4.095v23.872h-4.095V98.988z M49.469,43.515v21.786h75.949V43.515
					H49.469z M45.374,153.536v-24.494h4.095v24.494H45.374z M127.89,128.849v24.688h-2.472v-24.688H127.89z M203.837,153.536
					v-24.882c0.857-0.005,1.592-0.316,2.202-0.926c0.57-0.57,0.869-1.253,0.889-2.047v30.826c-0.023-0.809-0.32-1.506-0.889-2.085
					C205.431,153.825,204.697,153.529,203.837,153.536z M203.837,122.474V98.988c0.86,0.006,1.594-0.29,2.202-0.887
					c0.568-0.584,0.865-1.277,0.889-2.089v29.477c-0.027-0.825-0.336-1.533-0.927-2.125
					C205.4,122.767,204.68,122.468,203.837,122.474z M125.418,122.667V98.988h2.472v23.679H125.418z M49.469,159.717v23.872h-4.095
					v-23.872H49.469z M125.418,183.435v-23.718h2.472v23.718c-0.441,0.003-0.852,0.083-1.236,0.231
					C126.281,183.507,125.869,183.433,125.418,183.435z M203.837,183.203v-23.486c0.86,0.003,1.594-0.292,2.202-0.891
					c0.568-0.58,0.865-1.277,0.889-2.085v29.474c-0.027-0.824-0.336-1.534-0.927-2.126
					C205.4,183.492,204.68,183.196,203.837,183.203z M45.374,210.708v-20.938h4.095v20.938H45.374z M127.89,189.616v21.092
					c-0.446-0.003-0.857,0.072-1.236,0.229c-0.379-0.157-0.791-0.232-1.235-0.229v-21.092c0.441-0.006,0.852-0.082,1.235-0.233
					C127.026,189.541,127.439,189.618,127.89,189.616z M203.837,210.708v-21.325c0.857-0.009,1.592-0.316,2.202-0.926
					c0.57-0.571,0.869-1.256,0.889-2.049v27.272c-0.023-0.809-0.32-1.506-0.889-2.085
					C205.431,210.998,204.697,210.703,203.837,210.708z M45.374,240.762v-23.873h4.095v23.873H45.374z M125.418,240.569v-23.681
					c0.444,0,0.856-0.075,1.235-0.232c0.379,0.157,0.79,0.232,1.236,0.232v23.681H125.418z M203.837,65.301V43.515H127.89v21.786
					H203.837z"/>
				<rect x="11.767" y="43.515" fill-rule="evenodd" clip-rule="evenodd" fill="#FFCC00" width="33.607" height="21.786"/>
				<path fill-rule="evenodd" clip-rule="evenodd" fill="#669999" d="M45.374,216.889v23.873l-33.607,0.079v-23.952H45.374z
					 M11.767,247.021l33.607-0.079v21.015H11.767V247.021z M45.374,189.771v20.938H11.767v-20.861L45.374,189.771z M11.767,183.666
					v-23.949h33.607v23.872L11.767,183.666z M45.374,129.042v24.494H11.767v-24.417L45.374,129.042z M45.374,98.988v23.872
					l-33.607,0.078v-23.95H45.374z M45.374,92.809H11.767V73.646h33.607V92.809z M49.469,43.515h75.949v21.786H49.469V43.515z
					 M203.837,65.301H127.89V43.515h75.947V65.301z"/>
				<path fill-rule="evenodd" clip-rule="evenodd" fill="#BED3D3" d="M49.469,98.988h75.949v23.679l-75.949,0.193V98.988z
					 M203.837,128.654v24.882H127.89v-24.688L203.837,128.654z M125.418,210.708H49.469v-20.938l75.949-0.154V210.708z
					 M127.89,210.708v-21.092l75.947-0.233v21.325H127.89z"/>
				<path fill-rule="evenodd" clip-rule="evenodd" fill="#FFFF33" d="M125.418,92.809H49.469V73.646h75.949V92.809z
					 M125.418,128.849v24.688H49.469v-24.494L125.418,128.849z M203.837,159.717v23.486l-75.947,0.231v-23.718H203.837z
					 M125.418,216.889v23.681l-75.949,0.192v-23.873H125.418z"/>
				<path fill-rule="evenodd" clip-rule="evenodd" fill="#FF3333" d="M127.89,92.809V73.646h75.947v19.162H127.89z M203.837,240.375
					l-75.947,0.194v-23.681h75.947V240.375z M49.469,246.942l75.949-0.193v21.208H49.469V246.942z M125.418,159.717v23.718
					l-75.949,0.154v-23.872H125.418z"/>
				<path fill-rule="evenodd" clip-rule="evenodd" fill="#009900" d="M127.89,246.749l75.947-0.192v21.4H127.89V246.749z
					 M127.89,122.667V98.988h75.947v23.485L127.89,122.667z"/>
				<g>
					<path fill-rule="evenodd" clip-rule="evenodd" fill="#333333" d="M44.701,18.944h-3.009v3.017h2.841v3.011h-2.841v3.478h3.26
						v3.168h-7.687V15.699h7.436V18.944z M29.656,18.87v12.747h-4.43V15.699h10.281v15.918h-4.514V18.87H29.656z M46.289,15.699
						h4.429c1.227,0,2.174,0.104,2.841,0.312c0.671,0.155,1.17,0.411,1.505,0.772c0.334,0.309,0.558,0.719,0.669,1.235
						c0.112,0.464,0.167,1.185,0.167,2.164v1.391c0,1.029-0.11,1.776-0.335,2.239c-0.221,0.466-0.64,0.801-1.253,1.005
						c-0.614,0.257-1.42,0.388-2.422,0.388h-1.172v6.412h-4.429V15.699z M186.027,18.558c-0.169-0.051-0.475-0.075-0.92-0.075v3.479
						c0.221,0,0.362,0,0.417,0c0.446,0,0.725-0.104,0.835-0.313c0.167-0.205,0.251-0.771,0.251-1.699
						c0-0.461-0.056-0.796-0.165-1.005C186.331,18.74,186.193,18.609,186.027,18.558z M190.036,17.245
						c0.447,0.62,0.67,1.625,0.67,3.016c0,0.927-0.137,1.568-0.418,1.931c-0.335,0.36-0.975,0.645-1.923,0.849
						c1.061,0.205,1.755,0.567,2.09,1.084c0.391,0.512,0.587,1.285,0.587,2.316v1.468c0,1.081-0.142,1.879-0.418,2.396
						c-0.223,0.513-0.643,0.849-1.254,1.003c-0.557,0.208-1.757,0.31-3.595,0.31h-5.099V15.699h4.431
						c1.393,0,2.449,0.104,3.175,0.312C189.008,16.217,189.593,16.628,190.036,17.245z M186.61,25.898
						c0-0.671-0.084-1.081-0.251-1.234c-0.166-0.103-0.584-0.182-1.252-0.232v4.481c0.612-0.051,1.029-0.154,1.252-0.311
						c0.167-0.153,0.251-0.54,0.251-1.159V25.898z M147.915,15.699v15.918h-4.43v-6.105c-0.389,0.362-0.862,0.646-1.421,0.852
						c-0.613,0.205-1.196,0.307-1.754,0.307c-1.059,0-1.84-0.255-2.34-0.771c-0.502-0.564-0.753-1.416-0.753-2.549v-7.65h4.514
						v7.187c0,0.618,0.057,1.056,0.167,1.313c0.11,0.205,0.306,0.312,0.585,0.312c0.669,0,1.002-0.543,1.002-1.624v-7.187H147.915z
						 M136.3,18.944h-2.592v12.673h-4.513V18.944h-2.592v-3.245h9.696V18.944z M120.002,18.329
						c-0.112,0.153-0.168,0.644-0.168,1.466v7.42c0,0.926,0.027,1.491,0.084,1.698c0.11,0.256,0.309,0.387,0.585,0.387
						c0.279,0,0.474-0.131,0.585-0.387c0.057-0.259,0.084-0.851,0.084-1.777v-7.341c0-0.721-0.027-1.186-0.084-1.391
						c-0.111-0.205-0.306-0.309-0.585-0.309C120.28,18.096,120.114,18.173,120.002,18.329z M120.503,15.392
						c0.89,0,1.728,0.154,2.507,0.462c0.724,0.262,1.309,0.671,1.756,1.238c0.445,0.566,0.696,1.158,0.751,1.778
						c0.113,0.669,0.167,1.828,0.167,3.476v2.705c0,1.596-0.054,2.728-0.167,3.398c-0.055,0.67-0.306,1.262-0.751,1.776
						c-0.39,0.569-0.976,1.005-1.756,1.313c-0.723,0.255-1.56,0.386-2.507,0.386c-0.948,0-1.783-0.131-2.508-0.386
						c-0.723-0.257-1.309-0.67-1.753-1.234c-0.446-0.567-0.699-1.186-0.755-1.855c-0.111-0.619-0.165-1.752-0.165-3.398v-2.705
						c0-1.597,0.054-2.729,0.165-3.401c0.056-0.669,0.309-1.286,0.755-1.853c0.388-0.517,0.946-0.926,1.671-1.238
						C118.694,15.546,119.555,15.392,120.503,15.392z M149.754,15.699h7.44v3.245h-3.011v3.017h2.841v3.011h-2.841v3.478h3.26v3.168
						h-7.689V15.699z M178.838,18.87c0.111,0.669,0.166,1.828,0.166,3.476v2.705c0,1.596-0.055,2.728-0.166,3.398
						c-0.056,0.67-0.307,1.262-0.751,1.776c-0.391,0.569-0.976,1.005-1.755,1.313c-0.727,0.255-1.562,0.386-2.509,0.386
						c-0.945,0-1.782-0.131-2.506-0.386c-0.727-0.257-1.311-0.67-1.756-1.234c-0.444-0.567-0.697-1.186-0.752-1.855
						c-0.111-0.619-0.167-1.752-0.167-3.398v-2.705c0-1.597,0.056-2.729,0.167-3.401c0.055-0.669,0.308-1.286,0.752-1.853
						c0.389-0.517,0.949-0.926,1.67-1.238c0.782-0.308,1.646-0.462,2.592-0.462c0.891,0,1.728,0.154,2.509,0.462
						c0.724,0.262,1.31,0.671,1.755,1.238C178.531,17.658,178.782,18.25,178.838,18.87z M173.823,18.096
						c-0.222,0-0.39,0.077-0.501,0.233c-0.112,0.153-0.168,0.644-0.168,1.466v7.42c0,0.926,0.028,1.491,0.085,1.698
						c0.11,0.256,0.308,0.387,0.584,0.387c0.279,0,0.475-0.131,0.585-0.387c0.055-0.259,0.086-0.851,0.086-1.777v-7.341
						c0-0.721-0.031-1.186-0.086-1.391C174.298,18.199,174.103,18.096,173.823,18.096z M165.134,18.944v12.673h-4.515V18.944h-2.589
						v-3.245h9.691v3.245H165.134z M70.943,26.363c-0.611,0.205-1.198,0.307-1.755,0.307c-1.058,0-1.837-0.255-2.342-0.771
						c-0.501-0.564-0.75-1.416-0.75-2.549v-7.65h4.512v7.187c0,0.618,0.057,1.056,0.167,1.313c0.113,0.205,0.308,0.312,0.587,0.312
						c0.665,0,1.002-0.543,1.002-1.624v-7.187h4.428v15.918h-4.428v-6.105C71.974,25.874,71.5,26.158,70.943,26.363z M83.063,28.449
						h3.259v3.168h-7.688V15.699h7.436v3.245h-3.007v3.017h2.841v3.011h-2.841V28.449z M61.667,18.944v3.017h2.841v3.011h-2.841
						v3.478h3.258v3.168h-7.688V15.699h7.438v3.245H61.667z M50.718,18.482v4.017c0.113,0,0.223,0,0.336,0
						c0.388,0,0.666-0.077,0.836-0.232c0.166-0.204,0.25-0.618,0.25-1.233v-1.238c0-0.566-0.084-0.925-0.25-1.079
						C51.72,18.558,51.331,18.482,50.718,18.482z M105.627,27.443v-2.318c0-0.668-0.082-1.08-0.25-1.233
						c-0.169-0.154-0.586-0.232-1.254-0.232v5.254c0.557,0,0.946-0.078,1.17-0.231C105.514,28.527,105.627,28.113,105.627,27.443z
						 M104.791,21.188c1.393,0,2.451,0.075,3.176,0.232c0.724,0.153,1.253,0.488,1.589,1.002c0.334,0.516,0.501,1.315,0.501,2.396
						v3.091c0,1.183-0.167,2.033-0.501,2.551c-0.336,0.512-0.836,0.823-1.504,0.926c-0.67,0.154-1.757,0.232-3.261,0.232h-5.097
						V15.699h4.429v5.488H104.791z M92.087,24.972v6.646h-4.429V15.699h4.429v5.721h1.338v-5.721h4.512v15.918h-4.512v-6.646H92.087
						z"/>
				</g>
			</g>
		</g>
	</g>
</g>
<g id="Layer_16">
</g>
</svg>
