<?xml version="1.0" encoding="utf-8"?>
<!-- Generator: Adobe Illustrator 15.1.0, SVG Export Plug-In . SVG Version: 6.00 Build 0)  -->
<!DOCTYPE svg PUBLIC "-//W3C//DTD SVG 1.1//EN" "http://www.w3.org/Graphics/SVG/1.1/DTD/svg11.dtd">
<svg version="1.1" id="Layer_1" xmlns="http://www.w3.org/2000/svg" xmlns:xlink="http://www.w3.org/1999/xlink" x="0px" y="0px"
	 width="167.036px" height="281.171px" viewBox="0 0 167.036 281.171" enable-background="new 0 0 167.036 281.171"
	 xml:space="preserve">
<g id="Layer_5_1_">
	<g>
		<g>
			<g>
				<path fill-rule="evenodd" clip-rule="evenodd" fill="#F7A585" d="M97.208,120.536c-1.033,3.265-2.935,5.928-5.702,7.996
					c-2.81,2.148-6.012,3.221-9.606,3.221c-3.47,0-6.609-1.032-9.418-3.099c-2.687-1.981-4.607-4.626-5.765-7.931l16.423-0.868
					C87.272,119.855,91.96,120.082,97.208,120.536z"/>
				<g>
					<g>
						<path fill-rule="evenodd" clip-rule="evenodd" fill="#F7A585" d="M83.14,81.865c2.562,0,4.67,0.889,6.322,2.666
							c1.776,1.652,2.664,3.739,2.664,6.259v29.934l-14.254,8.986l-3.656-8.986V90.789c0-2.479,0.867-4.565,2.602-6.259
							C78.554,82.753,80.662,81.865,83.14,81.865z"/>
					</g>
				</g>
				<g>
					<path fill-rule="evenodd" clip-rule="evenodd" fill="#12142D" d="M55.997,69.224c-0.661,0-1.28-0.248-1.858-0.744
						c-0.455-0.538-0.683-1.158-0.683-1.86c0-0.62,0.228-1.198,0.683-1.735c0.494-0.455,1.115-0.682,1.858-0.682
						s1.343,0.227,1.797,0.682c0.495,0.496,0.743,1.075,0.743,1.735c0,0.745-0.248,1.364-0.743,1.86S56.699,69.224,55.997,69.224z"
						/>
					<path fill-rule="evenodd" clip-rule="evenodd" fill="#12142D" d="M76.013,69.224c-0.702,0-1.301-0.248-1.797-0.744
						c-0.455-0.538-0.682-1.158-0.682-1.86c0-0.62,0.227-1.198,0.682-1.735c0.455-0.455,1.053-0.682,1.797-0.682
						c0.743,0,1.322,0.227,1.736,0.682c0.536,0.496,0.805,1.075,0.805,1.735c0,0.745-0.269,1.364-0.805,1.86
						C77.335,68.976,76.756,69.224,76.013,69.224z"/>
				</g>
				<path fill-rule="evenodd" clip-rule="evenodd" fill="#F3E5E6" d="M59.157,92.773c-1.858-1.859-2.788-4.112-2.788-6.755h19.273
					c0,2.644-0.93,4.896-2.789,6.755c-1.9,1.9-4.172,2.85-6.816,2.85C63.351,95.624,61.057,94.674,59.157,92.773z"/>
				<path fill-rule="evenodd" clip-rule="evenodd" fill="#6D3F3F" d="M56.802,40.592c-3.016-1.734-5.041-4.234-6.073-7.499
					c-1.033-3.265-0.868-6.487,0.495-9.667l14.997,8.676L56.802,40.592z"/>
				<path fill-rule="evenodd" clip-rule="evenodd" fill="#FDD29B" d="M89.958,124.565c-1.9,1.899-4.214,2.849-6.94,2.849
					c-2.769,0-5.104-0.95-7.004-2.849c-1.941-1.942-2.912-4.276-2.912-7.003v-13.943H92.87v13.943
					C92.87,120.289,91.899,122.623,89.958,124.565z"/>
				<path fill-rule="evenodd" clip-rule="evenodd" fill="#FDD29B" d="M99.439,65.877c0-3.099,1.012-5.743,3.036-7.933
					c2.148-2.19,4.649-3.284,7.499-3.284c2.893,0,5.371,1.094,7.437,3.284c2.066,2.273,3.1,4.917,3.1,7.933
					c0,3.058-1.033,5.721-3.1,7.995c-2.065,2.189-4.544,3.284-7.437,3.284c-2.85,0-5.351-1.094-7.499-3.284
					C100.451,71.682,99.439,69.017,99.439,65.877z"/>
				<path fill-rule="evenodd" clip-rule="evenodd" fill="#FDD29B" d="M64.423,21.07c4.67-3.676,10.578-5.516,17.727-5.516h1.858
					c7.189,0,13.116,1.839,17.785,5.516c4.918,3.967,7.373,9.276,7.373,15.928v48.09c0,6.899-2.455,12.828-7.373,17.786
					c-4.917,4.875-10.845,7.313-17.785,7.313H82.15c-6.942,0-12.85-2.438-17.727-7.313c-4.916-4.917-7.373-10.845-7.373-17.786
					v-48.09C57.05,30.305,59.507,24.996,64.423,21.07z"/>
				<path fill-rule="evenodd" clip-rule="evenodd" fill="#FDD29B" d="M64.423,56.705c2.067,2.273,3.1,4.937,3.1,7.995
					c0,3.016-1.032,5.66-3.1,7.933c-2.064,2.189-4.543,3.284-7.436,3.284c-2.85,0-5.351-1.094-7.498-3.284
					c-2.024-2.19-3.037-4.834-3.037-7.933c0-3.14,1.013-5.805,3.037-7.995c2.147-2.189,4.648-3.283,7.498-3.283
					C59.88,53.421,62.359,54.515,64.423,56.705z"/>
				<path fill-rule="evenodd" clip-rule="evenodd" fill="#834B4C" d="M107.679,52.676c1.613,1.737,2.48,7.954,2.604,18.654
					c0.124,5.372,0.063,10.556-0.186,15.556c0.124,10.7-1.819,18.055-5.825,22.063c-1.859,1.859-4.257,3.16-7.188,3.903
					c-2.478,0.662-5.723,0.992-9.73,0.992h-7.746c-3.843,0-7.064-0.352-9.667-1.054c-2.811-0.785-5.186-2.169-7.128-4.152
					c-3.884-4.132-5.887-11.774-6.011-22.93c-0.165-4.833-0.227-9.833-0.186-14.998c0.205-10.288,1.074-16.297,2.603-18.034v21.938
					c0,3.842,1.321,7.189,3.966,10.04c2.603,2.768,5.743,4.153,9.42,4.153h21.751c3.678,0,6.817-1.385,9.42-4.153
					c2.603-2.769,3.903-6.114,3.903-10.04V52.676z"/>
				<path fill-rule="evenodd" clip-rule="evenodd" fill="#834B4C" d="M103.776,36.316c-2.603-3.057-5.742-4.585-9.42-4.585H72.605
					c-3.677,0-6.817,1.528-9.42,4.585c-2.645,3.099-3.966,6.735-3.966,10.908v23.859c-1.528-1.776-2.603-9.296-3.223-22.558
					c-0.165-4.132-0.29-8.594-0.372-13.386l-0.062-5.951c0-3.14,0.454-5.452,1.363-6.939c0.826-1.24,2.085-1.921,3.78-2.047
					c1.28-0.082,3.305,0.084,6.072,0.497c3.389,0.455,6.033,0.682,7.934,0.682L92.5,11.899c6.32,0,10.926,1.177,13.819,3.531
					c3.346,2.728,5.02,7.314,5.02,13.758l-0.372,19.336c-0.619,13.303-1.713,20.822-3.287,22.558V47.224
					C107.679,43.009,106.378,39.373,103.776,36.316z"/>
				<path fill-rule="evenodd" clip-rule="evenodd" fill="#834B4C" d="M96.649,78.953c3.638,1.611,5.455,4.731,5.455,9.358
					c0,5.083-1.817,9.462-5.455,13.139c-3.636,3.593-8.034,5.391-13.198,5.391c-5.083,0-9.462-1.798-13.139-5.391
					c-3.636-3.637-5.454-8.015-5.454-13.139c0-4.627,1.818-7.747,5.454-9.358c2.645-1.198,7.023-1.797,13.139-1.797
					C89.606,77.155,94.007,77.755,96.649,78.953z"/>
				<path fill-rule="evenodd" clip-rule="evenodd" fill="#FDD29B" d="M94.419,89.24l1.426,0.062c0,1.364-1.138,2.5-3.409,3.409
					c-2.189,0.909-4.917,1.364-8.18,1.364c-3.224,0-5.95-0.456-8.181-1.364c-2.231-0.909-3.346-2.044-3.346-3.409
					c1.568,0,3.222-0.185,4.957-0.556c3.47-0.786,5.659-2.169,6.569-4.153c1.156,1.941,3.448,3.326,6.878,4.153
					C92.333,89.035,93.427,89.199,94.419,89.24z"/>
				<path fill-rule="evenodd" clip-rule="evenodd" fill="#6D3F3F" d="M62.132,8.429c1.941-0.538,4.007-0.847,6.196-0.93
					c4.587-0.124,7.665,0.971,9.233,3.284c0.331-1.653,0.021-3.635-0.928-5.949l-1.488-2.975c1.817-0.042,3.78,0.207,5.887,0.744
					c4.215,1.116,6.962,3.119,8.243,6.011c1.074-0.248,1.982-0.868,2.727-1.859L92.87,5.33c0.537,0.166,1.486,0.579,2.852,1.24
					c2.479,1.198,5.204,2.975,8.179,5.33c3.307,2.603,5.537,5.908,6.694,9.916c0.58,2.023,0.806,3.759,0.682,5.205l-0.186,16.422
					l-0.434-1.114c-0.497-1.034-1.057-1.922-1.674-2.666c-2.066-2.728-4.832-4.358-8.305-4.896c-3.513-0.619-7.292-0.102-11.34,1.55
					c-1.984,0.786-3.679,1.653-5.082,2.604c-9.214-4.752-16.733-5.557-22.558-2.417c-1.86,1.032-3.389,2.376-4.586,4.028
					c-0.621,0.785-1.055,1.508-1.302,2.169l-3.596-26.09c0.952-0.579,2.19-0.868,3.719-0.868c3.099,0,6.156,1.426,9.173,4.276
					c-0.538-2.645-1.219-5.372-2.046-8.18L62.132,8.429z"/>
				<path fill-rule="evenodd" clip-rule="evenodd" fill="#030404" d="M93.861,56.582c-0.454-0.372-0.682-0.869-0.682-1.488
					c0-0.579,0.228-1.096,0.682-1.55c0.371-0.371,0.847-0.557,1.427-0.557c0.659,0,1.197,0.187,1.611,0.557
					c0.369,0.454,0.557,0.971,0.557,1.55c0,0.619-0.188,1.116-0.557,1.488c-0.456,0.454-0.991,0.681-1.611,0.681
					C94.708,57.263,94.232,57.035,93.861,56.582z"/>
				<path fill-rule="evenodd" clip-rule="evenodd" fill="#030404" d="M69.63,56.582c-0.454-0.372-0.682-0.869-0.682-1.488
					c0-0.579,0.228-1.096,0.682-1.55c0.371-0.371,0.847-0.557,1.426-0.557c0.66,0,1.197,0.187,1.611,0.557
					c0.33,0.372,0.496,0.889,0.496,1.55c0,0.661-0.166,1.157-0.496,1.488c-0.455,0.454-0.992,0.681-1.611,0.681
					C70.477,57.263,70.001,57.035,69.63,56.582z"/>
				<g>
					<path fill-rule="evenodd" clip-rule="evenodd" fill="#30477A" d="M128.098,126.998c5.354,5.486,8.032,11.975,8.032,19.463
						l-1.729,112.465H35.455L32.81,146.461c0-7.575,2.698-14.063,8.098-19.463c5.442-5.354,11.93-8.033,19.463-8.033h48.266
						C116.167,118.965,122.655,121.644,128.098,126.998z"/>
					<polygon fill-rule="evenodd" clip-rule="evenodd" fill="#455A7D" points="110.661,139.146 103.281,149.074 113.533,157.499 
						85.841,244.361 99.559,119.684 					"/>
					<polygon fill-rule="evenodd" clip-rule="evenodd" fill="#455A7D" points="64.616,149.09 57.242,139.174 68.396,119.715 
						85.873,244.341 54.39,157.519 					"/>
					<polygon fill-rule="evenodd" clip-rule="evenodd" fill="#EAF6FD" points="66.537,119.715 99.567,119.715 85.873,244.341 					
						"/>
					<polygon fill-rule="evenodd" clip-rule="evenodd" fill="#FFFFFF" points="94.299,113.518 104.898,123.866 94.116,142.706 
						82.835,130.931 					"/>
					<polygon fill-rule="evenodd" clip-rule="evenodd" fill="#FFFFFF" points="72.176,113.765 82.835,130.931 71.804,142.706 
						61.58,124.052 					"/>
					<polygon fill-rule="evenodd" clip-rule="evenodd" fill="#C96959" points="92.007,188.689 85.873,244.341 77.257,188.627 
						82.835,130.931 					"/>
					<polygon fill-rule="evenodd" clip-rule="evenodd" fill="#C96959" points="91.759,140.227 83.703,150.823 74.532,139.793 
						82.835,130.931 					"/>
				</g>
				<g>
					<path fill-rule="evenodd" clip-rule="evenodd" fill="#676767" d="M41.496,154.755c0.043-2.873,1.502-4.288,4.375-4.245
						l83.142,0.783c2.875,0,4.288,1.439,4.244,4.312l-1.042,113.511c-0.047,2.872-1.506,4.311-4.377,4.311l-83.142-0.784
						c-2.874-0.044-4.29-1.502-4.245-4.376L41.496,154.755z"/>
					<path fill-rule="evenodd" clip-rule="evenodd" fill="#979797" d="M126.326,151.692c2.875,0.028,4.298,1.479,4.271,4.357
						L129.5,269.491c-0.027,2.877-1.479,4.301-4.353,4.271l-83.042-0.802c-2.875-0.027-4.299-1.479-4.271-4.355l1.098-113.444
						c0.027-2.876,1.479-4.299,4.354-4.271L126.326,151.692z"/>
					
						<rect x="45.831" y="157.833" transform="matrix(1 0.0097 -0.0097 1 2.0393 -0.8096)" fill-rule="evenodd" clip-rule="evenodd" fill="#FFFFFF" width="77.72" height="105.068"/>
					
						<rect x="58.725" y="233.95" transform="matrix(-1 -0.0096 0.0096 -1 127.5465 472.1715)" fill-rule="evenodd" clip-rule="evenodd" fill="#979797" width="12.354" height="3.662"/>
					
						<rect x="58.007" y="241.982" transform="matrix(-1 -0.0096 0.0096 -1 126.0139 488.2356)" fill-rule="evenodd" clip-rule="evenodd" fill="#979797" width="12.354" height="3.663"/>
					
						<rect x="57.745" y="248.84" transform="matrix(-1 -0.0096 0.0096 -1 125.4444 501.9436)" fill-rule="evenodd" clip-rule="evenodd" fill="#979797" width="12.355" height="3.663"/>
					<path fill-rule="evenodd" clip-rule="evenodd" fill="#333333" d="M50.927,188.898c-0.182,0-0.34-0.064-0.471-0.197
						c-0.135-0.131-0.204-0.289-0.208-0.474c-0.001-0.183,0.064-0.339,0.195-0.47c0.13-0.135,0.288-0.205,0.474-0.208l17.411-0.235
						c0.098-0.004,0.192,0.016,0.281,0.059c0.095,0.042,0.177,0.102,0.245,0.18l3.197,3.875c0.119,0.144,0.169,0.31,0.152,0.496
						c-0.018,0.185-0.098,0.338-0.24,0.457c-0.145,0.119-0.31,0.169-0.496,0.151c-0.184-0.016-0.338-0.096-0.458-0.238l-2.997-3.624
						L50.927,188.898z"/>
					<path fill-rule="evenodd" clip-rule="evenodd" fill="#333333" d="M113.9,180.719c0.187,0,0.349,0.064,0.48,0.196
						c0.133,0.13,0.199,0.287,0.199,0.474c0,0.188-0.066,0.348-0.197,0.48c-0.13,0.133-0.287,0.197-0.473,0.197l-16.949,0.038
						l-3.062,3.005c-0.132,0.132-0.288,0.197-0.474,0.197c-0.184-0.004-0.341-0.071-0.471-0.207
						c-0.132-0.13-0.196-0.289-0.196-0.473c0.003-0.184,0.071-0.342,0.206-0.471l3.267-3.203c0.128-0.13,0.282-0.196,0.462-0.198
						L113.9,180.719z"/>
					<path fill-rule="evenodd" clip-rule="evenodd" fill="#333333" d="M107.102,222.92l-0.205,7.189l11.434,0.177
						c0.177-0.013,0.336,0.056,0.47,0.208c0.116,0.135,0.174,0.293,0.174,0.473c-0.002,0.18-0.063,0.337-0.184,0.47
						c-0.152,0.134-0.318,0.2-0.498,0.199l-12.15-0.186c-0.12,0-0.232-0.025-0.337-0.071c-0.104-0.075-0.177-0.167-0.221-0.271
						c-0.06-0.106-0.089-0.22-0.089-0.339l0.258-7.885c0.032-0.225,0.108-0.388,0.229-0.492c0.153-0.117,0.317-0.176,0.497-0.175
						c0.193,0.001,0.345,0.07,0.446,0.206C107.044,222.575,107.102,222.741,107.102,222.92z"/>
					<path fill-rule="evenodd" clip-rule="evenodd" fill="#333333" d="M121.112,195.766c0.131,0.129,0.197,0.288,0.197,0.473
						c0,0.188-0.063,0.349-0.197,0.481c-0.128,0.132-0.287,0.199-0.474,0.199l-15.565,0.051c-0.188,0-0.349-0.065-0.482-0.196
						c-0.132-0.13-0.197-0.288-0.197-0.473c-0.002-0.189,0.065-0.349,0.195-0.482c0.13-0.132,0.288-0.197,0.474-0.197l15.568-0.053
						C120.818,195.568,120.977,195.634,121.112,195.766z"/>
					<path fill-rule="evenodd" clip-rule="evenodd" fill="#333333" d="M77.644,239.971c-0.002-0.182,0.064-0.336,0.195-0.47
						c0.13-0.136,0.288-0.204,0.475-0.207c0.182-0.002,0.338,0.063,0.469,0.194c0.135,0.131,0.205,0.289,0.209,0.475l0.223,17.563
						l37.388,0.362c0.184,0.003,0.341,0.071,0.47,0.206c0.132,0.131,0.197,0.289,0.197,0.474c-0.003,0.185-0.071,0.341-0.207,0.47
						c-0.13,0.133-0.29,0.197-0.474,0.197l-38.05-0.367c-0.182-0.001-0.34-0.066-0.469-0.197c-0.131-0.131-0.197-0.287-0.197-0.472
						L77.644,239.971z"/>
					
						<rect x="57.745" y="255.307" transform="matrix(-1 -0.0096 0.0096 -1 125.3622 514.8809)" fill-rule="evenodd" clip-rule="evenodd" fill="#979797" width="12.355" height="3.663"/>
					
						<rect x="50.911" y="191.327" transform="matrix(-1 -0.0097 0.0097 -1 112.2851 388.9053)" fill-rule="evenodd" clip-rule="evenodd" fill="#979797" width="12.354" height="5.704"/>
					
						<rect x="101.393" y="183.753" transform="matrix(-1 -0.0096 0.0096 -1 213.3384 374.2375)" fill-rule="evenodd" clip-rule="evenodd" fill="#979797" width="12.357" height="5.703"/>
					
						<rect x="108.448" y="198.447" transform="matrix(-1 -0.0096 0.0096 -1 227.3056 403.6945)" fill-rule="evenodd" clip-rule="evenodd" fill="#979797" width="12.356" height="5.704"/>
					
						<rect x="105.116" y="233.65" transform="matrix(-1 -0.0097 0.0097 -1 220.2845 474.0717)" fill-rule="evenodd" clip-rule="evenodd" fill="#979797" width="12.356" height="5.701"/>
					<path fill-rule="evenodd" clip-rule="evenodd" fill="#CB3433" d="M99.718,231.622l-13.062-16.463l20.824-8.259
						c0.595,2.124,0.881,4.369,0.856,6.738c-0.063,6.485-2.408,11.999-7.033,16.537C100.787,230.685,100.255,231.166,99.718,231.622
						z"/>
					<path fill-rule="evenodd" clip-rule="evenodd" fill="#FFCC33" d="M78.39,190.777l5.97,23.845l14.203,18.001
						c-4.349,2.893-8.988,4.317-13.926,4.269c-6.483-0.062-11.993-2.407-16.531-7.035c-4.538-4.63-6.776-10.186-6.713-16.671
						c0.063-6.486,2.407-11.998,7.034-16.537C71.373,193.758,74.694,191.802,78.39,190.777z"/>
					<path fill-rule="evenodd" clip-rule="evenodd" fill="#4DBC93" d="M100.657,196.026c0.327,0.304,0.65,0.618,0.967,0.942
						c2.509,2.556,4.311,5.396,5.413,8.522l-21.255,8.379l14.25-18.4C100.243,195.652,100.451,195.837,100.657,196.026z"/>
					<path fill-rule="evenodd" clip-rule="evenodd" fill="#6666AD" d="M85.854,187.851c5.331,0.051,9.86,1.539,13.592,4.469
						L85.792,210.32l-5.402-21.917C82.13,188.016,83.952,187.831,85.854,187.851z"/>
					
						<polyline fill-rule="evenodd" clip-rule="evenodd" fill="none" stroke="#6EBD44" stroke-width="3" stroke-linecap="round" stroke-linejoin="round" stroke-miterlimit="3" points="
						78.75,257.97 85.062,244.054 92.843,247.792 100.906,243.287 108.231,245.425 116.735,244.112 					"/>
					<path fill-rule="evenodd" clip-rule="evenodd" fill="#EE3C24" d="M78.759,257.048c0.042-0.047,0.097-0.089,0.158-0.122
						l3.094-1.634l5.418-2.867c0.115-0.062,0.234-0.086,0.359-0.075c0.133,0.012,0.253,0.059,0.36,0.138l5.82,4.395l8.936-4.272
						l0.542-0.266h-0.012l0.678-0.33l3.071-1.477c0.117-0.056,0.241-0.077,0.369-0.063l3.523,0.405l1.571,0.171l3.859,0.432
						c0.188,0.021,0.341,0.105,0.458,0.253c0.114,0.145,0.161,0.311,0.142,0.495c-0.021,0.187-0.106,0.339-0.252,0.458
						c-0.146,0.115-0.313,0.161-0.496,0.141l-4.667-0.528l-1.571-0.172l-2.524-0.283l-3.036,1.466l-0.529,0.252h-0.011l-0.68,0.319
						l-9.161,4.395c-0.11,0.055-0.226,0.076-0.35,0.065c-0.126-0.016-0.242-0.063-0.346-0.14l-5.811-4.381l-8.127,4.29l-0.012,0.014
						c-0.028,0.017-0.059,0.029-0.09,0.043c-0.055,0.016-0.111,0.026-0.169,0.032c-0.082,0.003-0.163-0.01-0.247-0.038
						c-0.089-0.026-0.169-0.068-0.235-0.125c-0.057-0.048-0.104-0.102-0.144-0.158c-0.007-0.015-0.015-0.029-0.022-0.045
						c-0.042-0.078-0.066-0.164-0.075-0.26c-0.004-0.08,0.008-0.163,0.035-0.246c0.027-0.089,0.07-0.169,0.125-0.234L78.759,257.048
						z"/>
					<path fill-rule="evenodd" clip-rule="evenodd" fill="#652C8F" d="M104.113,252.014l-0.678,0.33h0.012l-0.542,0.266
						l-1.103-3.192l-8.574,2.682c-0.143,0.046-0.285,0.046-0.427-0.004l-6.188-2.205l-4.602,5.402l-3.094,1.634
						c-0.062,0.033-0.116,0.075-0.158,0.122l7.134-8.38c0.091-0.108,0.204-0.182,0.34-0.221c0.136-0.036,0.27-0.032,0.402,0.016
						l6.427,2.287l8.969-2.813c0.168-0.056,0.334-0.043,0.493,0.038c0.162,0.085,0.272,0.212,0.332,0.387L104.113,252.014z
						 M78.712,257.094c-0.055,0.065-0.098,0.146-0.125,0.234c-0.027,0.083-0.039,0.166-0.035,0.246
						C78.538,257.393,78.591,257.231,78.712,257.094z M111.077,250.879c0.95-1.252,1.881-2.499,2.788-3.749
						c0.106-0.147,0.25-0.235,0.43-0.265l2.521-0.426c0.184-0.029,0.352,0.009,0.502,0.118c0.153,0.104,0.246,0.248,0.277,0.429
						c0.03,0.184-0.008,0.352-0.118,0.504c-0.104,0.154-0.247,0.246-0.427,0.278l-2.251,0.382c-0.708,0.966-1.427,1.932-2.15,2.899
						L111.077,250.879z M111.692,252.3c-0.199,0.259-0.396,0.515-0.594,0.77c-2.837,3.7-4.524,5.497-5.061,5.39
						c-0.626,0.104-1.526-1.42-2.697-4.577l0.68-0.319h0.011l0.529-0.252c0.885,2.436,1.383,3.701,1.491,3.8
						c0.241-0.096,1.567-1.715,3.979-4.859c0.031-0.041,0.063-0.082,0.091-0.123L111.692,252.3z M79.276,258.2
						c-0.183,0.015-0.343-0.04-0.482-0.163c0.066,0.057,0.146,0.099,0.235,0.125C79.113,258.19,79.194,258.203,79.276,258.2z"/>
					<g>
						<path fill-rule="evenodd" clip-rule="evenodd" fill="#146734" d="M54.558,231.953c0.131,0,0.348,0.022,0.652,0.065
							c0.262,0,0.544,0.043,0.85,0.129l0.392,0.066l-3.853,5.879c-0.088,0.13-0.196,0.24-0.328,0.326
							c-0.174,0.044-0.348,0.044-0.521,0c-0.131-0.086-0.24-0.196-0.326-0.326l-1.699-3.266c-0.043-0.087,0.022-0.153,0.197-0.196
							c0.13-0.087,0.281-0.153,0.456-0.197c0.174-0.086,0.349-0.108,0.523-0.063c0.173,0.044,0.304,0.174,0.392,0.392l0.783,1.568
							l2.155-4.05C54.318,232.104,54.427,231.996,54.558,231.953z"/>
					</g>
					<g>
						<path fill-rule="evenodd" clip-rule="evenodd" fill="#146734" d="M51.227,241.881l0.784,1.567l2.154-4.05
							c0.044-0.175,0.131-0.262,0.262-0.262c0.131-0.042,0.348-0.042,0.652,0c0.306,0.044,0.61,0.087,0.915,0.132
							c0.261,0.044,0.37,0.087,0.327,0.13l-3.789,5.812c-0.087,0.176-0.218,0.284-0.392,0.327c-0.175,0.043-0.327,0.043-0.458,0
							c-0.174-0.043-0.304-0.151-0.391-0.327l-1.698-3.264c-0.044-0.088,0.022-0.153,0.196-0.196
							c0.174-0.044,0.348-0.108,0.522-0.195c0.173-0.089,0.348-0.089,0.521,0C51.009,241.598,51.14,241.706,51.227,241.881z"/>
					</g>
					<g>
						<path fill-rule="evenodd" clip-rule="evenodd" fill="#146734" d="M54.101,245.863c0.043-0.174,0.13-0.283,0.261-0.326
							c0.131,0,0.349,0.023,0.653,0.066c0.305,0,0.609,0.043,0.914,0.13l0.326,0.067l-3.788,5.877
							c-0.087,0.13-0.218,0.238-0.392,0.326c-0.174,0.044-0.326,0.044-0.457,0c-0.174-0.088-0.305-0.196-0.392-0.326l-1.698-3.266
							c-0.044-0.089,0.021-0.153,0.195-0.197c0.175-0.043,0.349-0.109,0.523-0.194c0.174-0.088,0.348-0.088,0.521,0
							c0.175,0.042,0.305,0.151,0.393,0.326l0.783,1.566L54.101,245.863z"/>
					</g>
					<g>
						<path fill-rule="evenodd" clip-rule="evenodd" fill="#146734" d="M53.969,252.787c0.087-0.174,0.196-0.283,0.327-0.326
							c0.131,0,0.326,0.022,0.588,0.065c0.305,0,0.609,0.043,0.914,0.131l0.393,0.064l-3.854,5.878
							c-0.088,0.13-0.218,0.238-0.393,0.326c-0.131,0.043-0.283,0.043-0.457,0c-0.174-0.088-0.283-0.196-0.326-0.326l-1.764-3.267
							c-0.043-0.086,0.022-0.151,0.196-0.194s0.349-0.108,0.522-0.195c0.174-0.088,0.348-0.088,0.522,0
							c0.174,0.043,0.305,0.152,0.392,0.327l0.783,1.564L53.969,252.787z"/>
					</g>
					<g>
						<path fill-rule="evenodd" clip-rule="evenodd" fill="#676767" d="M81.792,171.932c-0.478-0.435-0.718-1.066-0.718-1.893
							l0.065-5.551h4.311v5.225c-0.044,0.434,0,0.74,0.131,0.913c0.13,0.173,0.304,0.262,0.522,0.262
							c0.695,0,1.066-0.392,1.11-1.175v-5.225l4.312,0.063l-0.067,11.625l-4.31-0.064v-4.44c-0.393,0.26-0.871,0.457-1.438,0.587
							c-0.521,0.131-1.088,0.196-1.698,0.196C82.968,172.455,82.228,172.281,81.792,171.932z M73.367,166.707H70.82v-2.351
							l9.471,0.065v2.352h-2.612l-0.066,9.273l-4.31-0.066L73.367,166.707z M69.775,166.643c0.088,0.478,0.131,1.327,0.131,2.547
							l-0.064,1.959c0,1.176-0.045,2.003-0.132,2.482c-0.044,0.479-0.282,0.913-0.718,1.307c-0.436,0.39-1.002,0.674-1.698,0.849
							c-0.696,0.218-1.524,0.326-2.482,0.326c-0.871,0-1.653-0.108-2.351-0.326c-0.74-0.175-1.328-0.459-1.764-0.849
							c-0.436-0.479-0.697-0.959-0.783-1.438c-0.088-0.478-0.131-1.306-0.131-2.48l0.064-1.959c0-1.178,0.045-2.004,0.131-2.483
							c0.088-0.479,0.349-0.893,0.784-1.241c0.392-0.391,0.937-0.696,1.633-0.914c0.74-0.217,1.567-0.326,2.481-0.326
							c0.915,0,1.721,0.086,2.417,0.261c0.696,0.263,1.263,0.589,1.698,0.979C69.427,165.729,69.688,166.164,69.775,166.643z
							 M65.464,166.25c-0.087-0.129-0.262-0.195-0.521-0.195c-0.262,0-0.437,0.066-0.523,0.195c-0.13,0.088-0.196,0.436-0.196,1.045
							l-0.064,5.421c0,0.652,0.043,1.067,0.131,1.242c0.087,0.131,0.261,0.194,0.521,0.194c0.306,0,0.501-0.088,0.588-0.261
							c0.087-0.174,0.131-0.609,0.131-1.307l0.065-5.29C65.595,166.773,65.551,166.425,65.464,166.25z M108.178,167.101
							l-0.067,9.273l-4.308-0.065l0.063-9.275h-2.547v-2.351l9.471,0.065v2.353H108.178z M100.537,166.969h-2.939v2.155h2.742
							l-0.064,2.222h-2.743v2.546h3.2v2.353l-7.51-0.067l0.064-11.625l7.25,0.067V166.969z"/>
					</g>
				</g>
				<path fill-rule="evenodd" clip-rule="evenodd" fill="#FDD29B" d="M50.525,252.168l9.885,5.063
					c2.889,1.525,4.75,3.22,5.582,5.084l0.449,0.832c0.982,2.428,2.479,4.627,4.49,6.6l1.523,1.452
					c0.75,0.768,1.115,1.787,1.094,3.064c-0.058,1.253-0.511,2.329-1.361,3.222l-1.003,0.993c-0.946,0.981-2.11,1.718-3.491,2.208
					c-1.359,0.454-2.656,0.591-3.885,0.405l-5.684-1.063c-1.151-0.234-2.273-0.812-3.365-1.729
					c-1.149-0.902-1.942-1.885-2.379-2.946l-1.757-4.021c-0.64-1.372-3.637-5.105-8.989-11.202L50.525,252.168z"/>
				<g>
					<path fill-rule="evenodd" clip-rule="evenodd" fill="#30477A" d="M35.226,167.23c-1.93-1.112-4.236,5.083-6.924,18.58
						c-2.869,14.392,6.404,34.321,27.823,59.793L40.778,264.02C8.197,223.917-3.896,192.666,4.497,170.267
						c8.394-22.397,21.663-38.04,39.808-46.925L35.226,167.23z"/>
				</g>
				<g>
					<path fill-rule="evenodd" clip-rule="evenodd" fill="#30477A" d="M132.212,167.23c1.929-1.112,4.235,5.083,6.922,18.58
						c2.869,14.392-6.402,34.321-27.823,59.793l15.349,18.416c32.58-40.104,44.674-71.354,36.28-93.753
						c-8.393-22.398-21.662-38.04-39.808-46.926L132.212,167.23z"/>
				</g>
				<path fill-rule="evenodd" clip-rule="evenodd" fill="#FDD29B" d="M116.848,252.168l-9.886,5.063
					c-2.889,1.525-4.748,3.22-5.58,5.084l-0.451,0.832c-0.981,2.428-2.479,4.627-4.491,6.6l-1.521,1.452
					c-0.75,0.768-1.116,1.787-1.093,3.064c0.058,1.253,0.511,2.329,1.36,3.222l1.002,0.993c0.948,0.981,2.111,1.718,3.493,2.208
					c1.358,0.454,2.654,0.591,3.883,0.405l5.683-1.063c1.153-0.234,2.275-0.812,3.366-1.729c1.15-0.902,1.943-1.885,2.381-2.946
					l1.755-4.021c0.639-1.372,3.638-5.105,8.988-11.202L116.848,252.168z"/>
			</g>
		</g>
	</g>
</g>
</svg>
