<?xml version="1.0" encoding="utf-8"?>
<!-- Generator: Adobe Illustrator 15.1.0, SVG Export Plug-In . SVG Version: 6.00 Build 0)  -->
<!DOCTYPE svg PUBLIC "-//W3C//DTD SVG 1.1//EN" "http://www.w3.org/Graphics/SVG/1.1/DTD/svg11.dtd">
<svg version="1.1" id="Layer_1" xmlns="http://www.w3.org/2000/svg" xmlns:xlink="http://www.w3.org/1999/xlink" x="0px" y="0px"
	 width="380.224px" height="243.535px" viewBox="0 0 380.224 243.535" enable-background="new 0 0 380.224 243.535"
	 xml:space="preserve">
<g id="картинки">
	<g id="Layer_2_1_">
		<g>
			<g>
				<path fill="#676767" d="M110.907,65.091c3.498-0.979,5.667,0.314,6.509,3.886l35.791,138.549
					c0.909,3.502-0.386,5.704-3.882,6.613l-101.606,26.24c-3.429,0.911-5.599-0.418-6.508-3.986L5.419,97.841
					c-0.839-3.499,0.488-5.703,3.988-6.611L110.907,65.091z"/>
				<path fill="#979797" d="M107.185,66.611c3.509-0.904,5.716,0.4,6.622,3.91l35.669,138.533c0.904,3.513-0.4,5.721-3.909,6.624
					L44.174,241.785c-3.511,0.905-5.718-0.398-6.622-3.909L1.883,99.343c-0.906-3.515,0.396-5.721,3.906-6.624L107.185,66.611z"/>
				
					<rect x="27.545" y="85.815" transform="matrix(-0.9684 0.2493 -0.2493 -0.9684 188.5654 280.2263)" fill="#FFFFFF" width="97.983" height="132.479"/>
				
					<rect x="52.993" y="187.154" transform="matrix(0.9684 -0.2493 0.2493 0.9684 -45.3218 21.1396)" fill="#979797" width="15.576" height="4.616"/>
				
					<rect x="54.776" y="196.917" transform="matrix(0.9684 -0.2493 0.2493 0.9684 -47.6997 21.8926)" fill="#979797" width="15.576" height="4.616"/>
				
					<rect x="56.606" y="205.277" transform="matrix(0.9684 -0.2493 0.2493 0.9684 -49.71 22.6024)" fill="#979797" width="15.574" height="4.618"/>
				<path fill="#333333" d="M28.22,137.126c-0.222,0.062-0.434,0.031-0.636-0.087c-0.209-0.113-0.346-0.281-0.409-0.509
					c-0.06-0.221-0.031-0.435,0.084-0.635c0.115-0.208,0.283-0.345,0.51-0.41l21.128-5.966c0.116-0.035,0.238-0.041,0.361-0.021
					c0.13,0.021,0.245,0.068,0.355,0.144l5.158,3.676c0.192,0.137,0.308,0.32,0.349,0.552c0.04,0.231-0.009,0.443-0.144,0.639
					c-0.139,0.188-0.32,0.308-0.554,0.346c-0.231,0.042-0.442-0.008-0.638-0.144l-4.831-3.438L28.22,137.126z"/>
				<path fill="#333333" d="M102.477,106.387c0.227-0.063,0.443-0.035,0.647,0.084c0.204,0.112,0.336,0.286,0.396,0.511
					c0.063,0.227,0.035,0.442-0.081,0.648c-0.115,0.206-0.29,0.335-0.514,0.396l-20.629,5.575l-2.749,4.655
					c-0.117,0.207-0.287,0.338-0.514,0.398c-0.226,0.055-0.438,0.021-0.64-0.101c-0.201-0.118-0.333-0.288-0.396-0.512
					c-0.057-0.228-0.022-0.44,0.103-0.642l2.932-4.969c0.112-0.2,0.277-0.33,0.498-0.391L102.477,106.387z"/>
				<path fill="#333333" d="M107.961,160.006l2.098,8.82l13.98-3.51c0.213-0.077,0.426-0.044,0.64,0.099
					c0.188,0.126,0.313,0.302,0.368,0.519c0.057,0.222,0.032,0.43-0.071,0.636c-0.141,0.208-0.32,0.345-0.54,0.401l-14.858,3.739
					c-0.146,0.034-0.291,0.043-0.434,0.021c-0.152-0.058-0.271-0.145-0.357-0.258c-0.107-0.111-0.178-0.239-0.217-0.383
					l-2.261-9.688c-0.032-0.282,0.007-0.508,0.12-0.674c0.146-0.19,0.327-0.317,0.546-0.376c0.238-0.063,0.442-0.025,0.613,0.106
					C107.782,159.602,107.907,159.785,107.961,160.006z"/>
				<path fill="#333333" d="M116.167,122.36c0.203,0.117,0.333,0.287,0.396,0.515s0.035,0.442-0.08,0.648
					c-0.116,0.203-0.289,0.334-0.514,0.396l-18.941,5.141c-0.228,0.063-0.445,0.032-0.649-0.082
					c-0.203-0.119-0.335-0.285-0.396-0.513c-0.063-0.229-0.035-0.444,0.082-0.651c0.117-0.2,0.288-0.331,0.513-0.395l18.941-5.142
					C115.745,122.218,115.961,122.246,116.167,122.36z"/>
				<path fill="#333333" d="M77.65,190.384c-0.062-0.224-0.035-0.438,0.086-0.638c0.113-0.209,0.283-0.345,0.508-0.408
					c0.223-0.063,0.434-0.033,0.637,0.085c0.207,0.114,0.345,0.281,0.407,0.51l6.003,21.318l45.648-11.755
					c0.226-0.058,0.438-0.023,0.64,0.1c0.205,0.116,0.335,0.286,0.396,0.513c0.057,0.227,0.025,0.439-0.098,0.641
					c-0.117,0.205-0.288,0.336-0.512,0.394l-46.46,11.964c-0.224,0.058-0.436,0.028-0.635-0.088
					c-0.202-0.118-0.335-0.285-0.397-0.512L77.65,190.384z"/>
				
					<rect x="58.191" y="213.279" transform="matrix(0.9684 -0.2495 0.2495 0.9684 -51.707 23.2824)" fill="#979797" width="15.577" height="4.62"/>
				
					<rect x="30.138" y="137.287" transform="matrix(0.9684 -0.2494 0.2494 0.9684 -33.936 13.9098)" fill="#979797" width="15.577" height="7.19"/>
				
					<rect x="88.285" y="111.619" transform="matrix(0.9684 -0.2495 0.2495 0.9684 -25.7097 27.6167)" fill="#979797" width="15.577" height="7.192"/>
				
					<rect x="101.37" y="127.701" transform="matrix(0.9684 -0.2496 0.2496 0.9684 -29.3149 31.3989)" fill="#979797" width="15.577" height="7.193"/>
				
					<rect x="109.401" y="171.149" transform="matrix(0.9684 -0.2494 0.2494 0.9684 -39.8826 34.7542)" fill="#979797" width="15.578" height="7.19"/>
				<path fill="#CB3433" d="M101.079,173.348l-21.275-15.792l22.669-16.852c1.415,2.395,2.493,5.035,3.239,7.931
					c2.039,7.918,0.982,15.398-3.172,22.438C102.077,171.856,101.588,172.615,101.079,173.348z"/>
				<path fill="#FFCC33" d="M61.784,130.557l15.047,27.094l23.168,17.292c-4.349,4.943-9.537,8.191-15.563,9.742
					c-7.918,2.039-15.395,0.979-22.43-3.178c-7.036-4.154-11.575-10.194-13.611-18.115c-2.04-7.92-0.983-15.396,3.17-22.437
					C54.208,136.474,57.617,133.01,61.784,130.557z"/>
				<path fill="#4DBC93" d="M90.613,129.687c0.496,0.264,0.992,0.537,1.484,0.831c3.889,2.293,7.012,5.167,9.371,8.616
					l-23.149,17.139l11.353-27.061C89.987,129.363,90.299,129.523,90.613,129.687z"/>
				<path fill="#6666AD" d="M69.919,124.555c6.507-1.675,12.512-1.339,18.008,1.011l-10.754,26.378l-13.729-24.931
					C65.439,125.973,67.594,125.152,69.919,124.555z"/>
				
					<polyline fill="none" stroke="#6EBD44" stroke-width="3" stroke-linecap="round" stroke-linejoin="round" stroke-miterlimit="3" points="
					84.869,211.945 88.017,192.936 98.711,194.949 107.061,186.83 116.679,187.051 126.609,182.679 				"/>
				<path fill="#EE3C24" d="M84.578,210.819c0.038-0.071,0.088-0.141,0.153-0.2l3.236-2.998l5.661-5.263
					c0.119-0.109,0.256-0.181,0.414-0.209c0.166-0.027,0.325-0.011,0.482,0.052l8.521,3.453l9.489-8.119l0.574-0.498l-0.016,0.004
					l0.72-0.623l3.254-2.8c0.125-0.106,0.271-0.176,0.434-0.201l4.42-0.654l1.972-0.301l4.84-0.735
					c0.234-0.037,0.449,0.018,0.642,0.156c0.188,0.14,0.3,0.326,0.334,0.559c0.033,0.234-0.021,0.446-0.157,0.64
					c-0.143,0.188-0.326,0.3-0.559,0.334l-5.857,0.88l-1.969,0.304L118,195.077l-3.219,2.772l-0.564,0.481l-0.014,0.002l-0.72,0.608
					l-9.727,8.343c-0.116,0.104-0.252,0.168-0.402,0.192c-0.161,0.025-0.315,0.005-0.467-0.053l-8.507-3.446l-8.499,7.882
					l-0.01,0.017c-0.03,0.03-0.062,0.058-0.096,0.082c-0.062,0.035-0.125,0.066-0.195,0.095c-0.097,0.033-0.202,0.043-0.313,0.038
					c-0.119-0.005-0.228-0.029-0.326-0.08c-0.085-0.037-0.16-0.086-0.229-0.143c-0.011-0.018-0.024-0.033-0.04-0.051
					c-0.075-0.081-0.135-0.178-0.176-0.29c-0.03-0.097-0.044-0.2-0.039-0.313c0.007-0.117,0.032-0.226,0.078-0.325L84.578,210.819z"
					/>
				<path fill="#652C8F" d="M113.816,196.418l-0.719,0.623l0.015-0.004l-0.574,0.497l-2.385-3.524l-9.567,6.063
					c-0.158,0.103-0.331,0.146-0.521,0.136l-8.257-0.669l-3.839,8.082l-3.236,2.998c-0.065,0.062-0.115,0.13-0.153,0.201
					l5.956-12.536c0.074-0.159,0.188-0.286,0.34-0.38c0.154-0.088,0.32-0.125,0.498-0.112l8.571,0.688l10.002-6.349
					c0.188-0.123,0.395-0.163,0.616-0.115c0.221,0.048,0.4,0.169,0.529,0.361L113.816,196.418z M84.538,210.888
					c-0.046,0.1-0.071,0.208-0.078,0.325c-0.005,0.112,0.009,0.218,0.039,0.313C84.421,211.309,84.435,211.096,84.538,210.888z
					 M121.922,192.763c0.75-1.835,1.475-3.66,2.177-5.476c0.08-0.216,0.227-0.366,0.434-0.463l2.932-1.34
					c0.215-0.098,0.432-0.105,0.652-0.022c0.218,0.081,0.378,0.226,0.479,0.436c0.097,0.214,0.103,0.431,0.02,0.651
					c-0.077,0.222-0.222,0.378-0.433,0.478l-2.616,1.199c-0.544,1.407-1.104,2.816-1.671,4.236L121.922,192.763z M123.136,194.294
					c-0.158,0.375-0.314,0.756-0.47,1.13c-2.25,5.434-3.72,8.171-4.406,8.214c-0.729,0.333-2.319-1.229-4.775-4.696l0.72-0.608
					l0.014-0.002l0.564-0.481c1.873,2.68,2.891,4.06,3.054,4.144c0.265-0.194,1.351-2.602,3.261-7.22
					c0.024-0.056,0.05-0.116,0.07-0.175L123.136,194.294z M85.583,212.052c-0.215,0.077-0.429,0.063-0.639-0.042
					c0.1,0.051,0.207,0.075,0.326,0.08C85.38,212.095,85.487,212.085,85.583,212.052z"/>
				<g>
					<path fill="#146734" d="M47.403,187.896c0.28-0.139,0.667-0.173,1.158-0.101l0.415-0.107l-2.832,8.397
						c-0.069,0.139-0.174,0.314-0.314,0.523c-0.14,0.069-0.351,0.107-0.63,0.107c-0.14-0.072-0.279-0.143-0.421-0.212l-3.148-3.463
						c-0.069-0.142-0.033-0.245,0.105-0.315c0.21-0.14,0.384-0.28,0.524-0.42c0.141-0.142,0.35-0.213,0.632-0.213
						c0.207,0,0.42,0.107,0.629,0.315l1.469,1.575l1.259-5.457c0.07-0.28,0.178-0.489,0.316-0.633
						C46.703,187.896,46.985,187.896,47.403,187.896z"/>
				</g>
				<g>
					<path fill="#146734" d="M49.5,196.506c0.42,0,0.841-0.034,1.263-0.104c0.277-0.068,0.386-0.068,0.313,0l-2.729,8.291
						c-0.07,0.28-0.141,0.492-0.209,0.632c-0.212,0.067-0.422,0.104-0.63,0.104c-0.281,0-0.491-0.104-0.632-0.315l-3.149-3.465
						l0.316-0.207c0.14-0.142,0.314-0.28,0.524-0.423c0.14-0.14,0.351-0.175,0.63-0.103c0.211,0,0.385,0.103,0.523,0.313
						l1.472,1.573l1.259-5.669c0-0.207,0.069-0.348,0.209-0.417C48.873,196.645,49.153,196.575,49.5,196.506z"/>
				</g>
				<g>
					<path fill="#146734" d="M50.447,212.671c-0.069,0.141-0.174,0.277-0.313,0.417c-0.212,0.142-0.42,0.212-0.632,0.212
						c-0.209-0.07-0.382-0.143-0.524-0.212l-3.146-3.461c-0.071-0.071-0.036-0.177,0.105-0.314c0.278-0.07,0.49-0.21,0.63-0.423
						c0.139-0.14,0.313-0.208,0.523-0.208c0.278,0,0.525,0.106,0.734,0.315l1.469,1.68l1.26-5.67c0-0.207,0.072-0.347,0.211-0.418
						s0.421-0.104,0.838-0.104c0.352-0.069,0.736-0.105,1.158-0.105l0.417-0.104L50.447,212.671z"/>
				</g>
				<g>
					<path fill="#146734" d="M54.857,212.774h0.42l-2.834,8.396c0,0.212-0.069,0.385-0.209,0.524
						c-0.145,0.142-0.316,0.211-0.526,0.211c-0.281-0.069-0.487-0.211-0.63-0.423l-3.254-3.356c0-0.071,0.104-0.175,0.314-0.316
						c0.14-0.068,0.314-0.208,0.523-0.417c0.141-0.14,0.352-0.177,0.63-0.106c0.209,0,0.386,0.069,0.525,0.211l1.47,1.679
						l1.364-5.665c0.068-0.282,0.141-0.424,0.212-0.424c0.209-0.07,0.454-0.139,0.732-0.209
						C54.018,212.811,54.437,212.774,54.857,212.774z"/>
				</g>
				<g>
					<path fill="#676767" d="M93.167,87.764l0.734,2.94l-3.253,0.837l3.044,11.231l-5.355,1.364l-2.832-11.334l-3.148,0.84
						l-0.842-2.837L93.167,87.764z M82.46,99.204l-3.255,0.841l0.735,3.147l3.885-0.941l0.732,2.833l-9.13,2.309l-3.673-14.172
						l8.815-2.308l0.735,2.938l-3.568,0.944l0.734,2.622l3.356-0.839L82.46,99.204z M65.036,105.084
						c-0.628,0.349-1.292,0.629-1.994,0.841c-1.258,0.348-2.237,0.383-2.937,0.102c-0.772-0.417-1.297-1.15-1.577-2.202l-1.681-6.72
						l5.25-1.362l1.783,6.298c0.07,0.559,0.209,0.943,0.422,1.153c0.208,0.21,0.452,0.245,0.732,0.105
						c0.841-0.211,1.157-0.807,0.946-1.785l-1.68-6.402l5.354-1.259l3.673,14.17l-5.248,1.26l-1.574-5.458
						C66.227,104.313,65.738,104.731,65.036,105.084z M53.491,101.092l2.834,11.231l-5.142,1.365l-3.045-11.338l-3.046,0.842
						l-0.732-2.833l11.547-3.045l0.733,2.938L53.491,101.092z M43.728,103.51c0.282,0.484,0.632,1.504,1.051,3.041l0.525,2.311
						c0.42,1.47,0.631,2.482,0.631,3.044c0.14,0.699,0,1.329-0.419,1.893c-0.424,0.626-1.018,1.151-1.788,1.574
						c-0.77,0.487-1.712,0.906-2.832,1.258c-1.049,0.277-2.064,0.386-3.045,0.315c-0.98,0.069-1.783-0.105-2.412-0.524
						c-0.701-0.354-1.192-0.841-1.473-1.472c-0.208-0.488-0.522-1.435-0.941-2.834L32.5,109.7c-0.351-1.468-0.595-2.519-0.733-3.148
						c0-0.626,0.209-1.224,0.63-1.782c0.347-0.561,0.908-1.121,1.679-1.681c0.84-0.49,1.817-0.875,2.94-1.154
						c1.116-0.279,2.134-0.42,3.039-0.42c0.913,0.07,1.719,0.245,2.416,0.525C43.031,102.458,43.451,102.947,43.728,103.51z
						 M37.118,104.663c-0.14,0.212-0.104,0.665,0.104,1.362l1.68,6.614c0.211,0.771,0.385,1.259,0.522,1.47
						c0.214,0.14,0.456,0.172,0.736,0.104c0.418-0.07,0.666-0.208,0.734-0.417c0.07-0.282-0.034-0.842-0.316-1.683l-1.573-6.506
						c-0.21-0.633-0.418-1.051-0.63-1.26c-0.068-0.073-0.278-0.106-0.63-0.106C37.396,104.382,37.188,104.521,37.118,104.663z"/>
				</g>
			</g>
			<g>
				<path fill="#676767" d="M182.597,56.17c3.498-0.981,5.702,0.313,6.61,3.885l37.577,138.13c0.981,3.428-0.243,5.635-3.673,6.615
					l-101.188,27.708c-3.426,0.908-5.629-0.419-6.608-3.987L77.74,90.494c-1.053-3.5,0.174-5.703,3.672-6.612L182.597,56.17z"/>
				<path fill="#979797" d="M178.622,58.39c3.497-0.955,5.722,0.32,6.676,3.817l37.665,138.035c0.955,3.501-0.313,5.729-3.808,6.682
					l-100.946,27.548c-3.495,0.95-5.721-0.322-6.675-3.824L73.866,92.614c-0.953-3.498,0.315-5.723,3.813-6.679L178.622,58.39z"/>
				
					<rect x="101.189" y="77.237" transform="matrix(-0.9647 0.2633 -0.2633 -0.9647 332.7903 242.386)" fill="#FFFFFF" width="97.929" height="132.511"/>
				<polygon fill="#979797" points="131.539,189.578 187.974,173.846 188.937,178.265 132.298,193.725 				"/>
				<g>
					<path fill="#676767" d="M165.8,81.15l-3.043,0.84L165.8,93.22l-5.248,1.365l-2.938-11.127l-3.256,0.84l-0.836-2.938
						l11.545-3.044L165.8,81.15z M127.91,88.393l0.945,2.836l-3.148,0.942l2.938,11.127l-5.248,1.364l-3.044-11.232l-3.149,0.948
						l-0.63-2.94L127.91,88.393z M136.308,86.084l5.455-1.469l3.779,14.17l-5.248,1.469l-1.679-5.563
						c-0.209,0.56-0.664,0.944-1.364,1.153c-0.559,0.351-1.188,0.664-1.89,0.943c-1.401,0.354-2.414,0.422-3.044,0.213
						c-0.77-0.422-1.294-1.121-1.574-2.101l-1.783-6.82l5.145-1.474l1.99,6.298c0.143,0.562,0.316,0.979,0.525,1.262
						c0.212,0.138,0.421,0.175,0.631,0.104c0.77-0.28,1.086-0.911,0.945-1.891L136.308,86.084z M153.416,84.405l-3.565,1.052
						l0.731,2.725l3.254-1.05l0.735,2.626l-3.36,0.946l0.946,3.147l3.882-0.946l0.632,2.73l-8.923,2.415l-3.883-13.961l8.815-2.417
						L153.416,84.405z M116.994,97.629l0.628,2.416c0.422,1.469,0.665,2.483,0.737,3.043c0.14,0.63,0,1.227-0.42,1.787
						c-0.419,0.626-0.979,1.188-1.678,1.676c-0.844,0.491-1.857,0.947-3.047,1.366c-1.051,0.209-2.064,0.275-3.043,0.209
						c-0.912,0.066-1.681-0.104-2.311-0.525c-0.7-0.276-1.225-0.7-1.573-1.259c-0.211-0.561-0.491-1.573-0.84-3.043l-0.631-2.31
						c-0.42-1.541-0.664-2.555-0.734-3.045c-0.071-0.63,0.105-1.225,0.524-1.784c0.419-0.561,0.942-1.118,1.572-1.681
						c0.91-0.557,1.891-0.942,2.94-1.152c1.189-0.352,2.238-0.523,3.148-0.523c0.909,0,1.68,0.141,2.309,0.417
						c0.631,0.352,1.084,0.842,1.365,1.472C116.226,95.182,116.574,96.16,116.994,97.629z M113.004,103.299l-1.784-6.51
						c-0.139-0.56-0.35-0.979-0.629-1.261c-0.14-0.067-0.352-0.067-0.63,0c-0.35,0.143-0.63,0.281-0.84,0.423
						c0,0.141,0.104,0.597,0.315,1.363l1.781,6.719c0.281,0.698,0.456,1.154,0.525,1.364c0.21,0.07,0.525,0.104,0.947,0.104
						c0.277-0.141,0.453-0.313,0.522-0.524C113.285,104.768,113.215,104.208,113.004,103.299z"/>
				</g>
				<g>
					<path fill="#EC2024" d="M114.16,113.898c-0.28-0.279-0.453-0.596-0.523-0.943c0-0.14,0.139-0.386,0.417-0.733
						c0.143-0.279,0.387-0.422,0.736-0.422c0.351-0.069,0.665,0,0.946,0.212l20.57,14.693l8.396-3.675
						c0.278-0.068,0.629-0.033,1.05,0.104c0.208,0.069,0.388,0.245,0.526,0.525l13.015,25.085l6.716-13.119
						c0.073-0.069,0.178-0.173,0.316-0.313c0.068-0.141,0.209-0.279,0.42-0.423l10.602-1.992c0.352,0,0.629,0.104,0.841,0.316
						c0.278,0.14,0.452,0.348,0.524,0.626c0,0.212-0.072,0.456-0.211,0.738c-0.279,0.278-0.562,0.453-0.839,0.523l-9.762,1.994
						l-7.454,14.693c-0.139,0.28-0.35,0.487-0.63,0.63c-0.42,0.139-0.733,0.139-0.943,0c-0.351-0.143-0.595-0.35-0.735-0.63
						l-13.537-26.138l-8.189,3.57c-0.21,0-0.385,0-0.525,0c-0.278,0-0.488-0.068-0.63-0.208L114.16,113.898z"/>
					<path fill="#C9DA2A" d="M132.843,137.515l10.286-2.727l11.651,43.559l-10.287,2.728L132.843,137.515z M181.653,144.549
						l6.614,24.353l-10.395,2.729l-6.613-24.353L181.653,144.549z"/>
					<polygon fill="#F16722" points="127.595,185.271 111.641,126.181 121.924,123.346 137.779,182.439 					"/>
					<polygon fill="#336698" points="167.585,159.242 171.367,173.414 161.077,176.25 157.299,161.973 					"/>
				</g>
				<polygon fill="#979797" points="135.11,196.086 191.542,180.353 192.501,184.773 135.866,200.229 				"/>
				<polygon fill="#979797" points="135.84,203.33 192.276,187.598 193.238,192.016 136.601,207.476 				"/>
			</g>
			<g>
				<g>
					<path fill="#676767" d="M200.02,9.884c0.068-5.604,2.905-8.364,8.501-8.297l162.063,1.576c5.603,0,8.363,2.8,8.295,8.396
						l-1.994,221.264c-0.071,5.599-2.903,8.396-8.502,8.396l-162.063-1.466c-5.669-0.145-8.433-3.012-8.294-8.609L200.02,9.884z"/>
					<path fill="#979797" d="M365.481,3.671c5.604,0.054,8.381,2.884,8.325,8.489l-2.14,221.148
						c-0.057,5.61-2.883,8.386-8.488,8.332l-161.874-1.566c-5.603-0.051-8.38-2.886-8.324-8.489l2.141-221.151
						c0.054-5.607,2.885-8.383,8.489-8.33L365.481,3.671z"/>
					
						<rect x="208.365" y="15.982" transform="matrix(-1 -0.0097 0.0097 -1 567.0784 239.5464)" fill="#FFFFFF" width="151.511" height="204.832"/>
				</g>
				
					<rect x="231.613" y="149.126" transform="matrix(1 0.0098 -0.0098 1 1.4922 -2.3363)" fill="#979797" width="16.596" height="4.923"/>
				
					<rect x="231.099" y="158.138" transform="matrix(1 0.0097 -0.0097 1 1.5706 -2.3168)" fill="#979797" width="16.596" height="4.92"/>
				<path fill="#333333" d="M222.528,77.563c-0.244,0.002-0.456-0.087-0.631-0.261c-0.183-0.175-0.274-0.389-0.279-0.639
					c-0.001-0.244,0.087-0.455,0.263-0.633c0.176-0.18,0.388-0.273,0.637-0.277l23.388-0.313c0.131-0.004,0.258,0.021,0.377,0.078
					c0.128,0.059,0.238,0.139,0.33,0.246l4.294,5.204c0.159,0.191,0.227,0.415,0.205,0.666c-0.024,0.247-0.13,0.452-0.324,0.613
					c-0.193,0.159-0.416,0.229-0.666,0.205c-0.249-0.022-0.452-0.13-0.615-0.321l-4.023-4.871L222.528,77.563z"/>
				
					<rect x="231.088" y="166.55" transform="matrix(1 0.0098 -0.0098 1 1.6625 -2.3304)" fill="#979797" width="16.595" height="4.921"/>
				
					<rect x="222.105" y="80.514" transform="matrix(1 0.0098 -0.0098 1 0.8349 -2.2466)" fill="#979797" width="16.596" height="7.662"/>
				<path fill="#CB3433" d="M287.453,135.26l-17.536-22.12l27.977-11.088c0.798,2.852,1.178,5.869,1.146,9.05
					c-0.086,8.713-3.237,16.118-9.454,22.217C288.893,134.002,288.179,134.646,287.453,135.26z"/>
				<path fill="#FFCC33" d="M258.82,80.385l8.012,32.029l19.072,24.187c-5.84,3.887-12.073,5.8-18.706,5.732
					c-8.709-0.086-16.108-3.234-22.203-9.454c-6.094-6.222-9.098-13.686-9.013-22.399s3.238-16.117,9.452-22.213
					C249.392,84.385,253.855,81.758,258.82,80.385z"/>
				<path fill="#4DBC93" d="M288.728,87.439c0.439,0.41,0.875,0.83,1.301,1.269c3.367,3.433,5.787,7.249,7.265,11.45l-28.551,11.248
					l19.147-24.713C288.17,86.936,288.45,87.186,288.728,87.439z"/>
				<path fill="#6666AD" d="M268.845,76.45c7.161,0.072,13.246,2.076,18.258,6.01l-18.344,24.18l-7.254-29.444
					C263.843,76.674,266.292,76.428,268.845,76.45z"/>
				<g>
					<path fill="#146734" d="M226.679,145.492c0-0.28,0.105-0.453,0.317-0.522c0.207,0,0.488,0,0.838,0
						c0.49,0.069,0.91,0.208,1.261,0.418h0.314l-5.038,7.872c-0.211,0.142-0.35,0.279-0.419,0.421
						c-0.282,0.071-0.491,0.104-0.631,0.104c-0.281-0.067-0.488-0.278-0.633-0.627l-2.201-4.306
						c-0.069-0.14,0.034-0.246,0.314-0.314c0.209,0,0.42-0.069,0.63-0.209c0.28-0.071,0.523-0.034,0.732,0.105
						c0.28,0,0.456,0.14,0.523,0.418l1.052,2.1L226.679,145.492z"/>
				</g>
				<g>
					<path fill="#146734" d="M226.679,153.994c-0.138-0.14-0.067-0.242,0.211-0.313c0.143,0,0.455,0.071,0.944,0.21
						c0.42-0.069,0.771-0.069,1.05,0l0.525,0.104l-5.038,7.979c-0.072,0.139-0.245,0.245-0.522,0.314
						c-0.213,0.068-0.422,0.068-0.635,0c-0.209-0.142-0.381-0.246-0.524-0.314l-2.308-4.514c0-0.07,0.105-0.142,0.315-0.211
						c0.21,0,0.42-0.069,0.63-0.209c0.208-0.141,0.455-0.178,0.732-0.106c0.281,0.068,0.455,0.212,0.525,0.422l0.945,2.31
						L226.679,153.994z"/>
				</g>
				<g>
					<path fill="#146734" d="M228.883,163.34h0.421l-5.248,7.764c-0.068,0.281-0.243,0.493-0.523,0.633c-0.139,0-0.28,0-0.42,0
						c-0.35-0.07-0.525-0.248-0.525-0.524l-2.414-4.306c-0.07-0.21,0.036-0.315,0.315-0.315c0.21-0.068,0.489-0.173,0.84-0.313
						c0.068-0.07,0.244-0.036,0.525,0.104c0.207,0,0.42,0.142,0.629,0.423l0.944,1.991l2.938-5.353
						c0.071-0.279,0.21-0.456,0.42-0.523c0.141,0,0.419,0.035,0.84,0.104C227.976,162.953,228.394,163.057,228.883,163.34z"/>
				</g>
				<g>
					<path fill="#EC2024" d="M302.361,137.83c0.277,0.14,0.56,0.316,0.84,0.524l14.065,20.888l8.081-1.36
						c0.281,0,0.559,0.103,0.841,0.313c0.21,0.141,0.347,0.421,0.416,0.839l5.355,29.496l8.71-11.755
						c0.141-0.142,0.247-0.247,0.317-0.315c0.138-0.069,0.312-0.178,0.522-0.314l9.552,1.05c0.209-0.07,0.456,0.068,0.733,0.42
						c0.142,0.21,0.179,0.455,0.106,0.734c0,0.351-0.14,0.665-0.42,0.943c-0.212,0.209-0.455,0.279-0.734,0.209l-8.922-0.628
						l-9.658,13.015c-0.14,0.208-0.385,0.352-0.73,0.421c-0.283,0.14-0.491,0.104-0.634-0.104c-0.349-0.141-0.524-0.42-0.524-0.84
						l-5.563-30.965l-7.767,1.365c-0.208,0-0.386,0-0.525,0c-0.28,0-0.455-0.069-0.523-0.209l-14.694-21.625
						c-0.07-0.349-0.104-0.698-0.104-1.051c0-0.276,0.175-0.523,0.522-0.731C301.763,137.865,302.008,137.762,302.361,137.83z"/>
					<path fill="#C9DA2A" d="M342.456,190.419l9.446-0.106l0.104,26.975l-9.342,0.107L342.456,190.419z M311.806,169.428
						l9.551,0.103v48.281l-9.551,0.106V169.428z"/>
					<polygon fill="#F16722" points="305.824,151.791 305.718,217.394 296.483,217.394 296.376,152.001 					"/>
					<polygon fill="#336698" points="336.684,217.394 327.236,217.394 327.236,201.647 336.684,201.542 					"/>
				</g>
				<polygon fill="#979797" points="231.367,185.126 289.5,184.235 289.336,191.238 230.955,191.621 				"/>
				<polygon fill="#979797" points="230.211,196.568 288.345,195.68 288.183,202.681 229.8,203.06 				"/>
				<polygon fill="#979797" points="229.58,208.427 287.715,207.537 287.554,214.539 229.17,214.922 				"/>
				<path fill="#333333" d="M328.765,103.068c0.246,0.005,0.455-0.086,0.63-0.262c0.183-0.173,0.274-0.385,0.28-0.636
					c0.002-0.246-0.086-0.454-0.263-0.631c-0.174-0.183-0.389-0.276-0.635-0.282l-23.39-0.311c-0.13-0.006-0.257,0.022-0.375,0.079
					c-0.131,0.059-0.24,0.141-0.33,0.244l-4.295,5.204c-0.159,0.193-0.229,0.415-0.207,0.664c0.027,0.252,0.134,0.456,0.328,0.615
					c0.192,0.161,0.414,0.23,0.664,0.205c0.246-0.02,0.453-0.131,0.614-0.321l4.023-4.87L328.765,103.068z"/>
				
					<rect x="312.63" y="106.171" transform="matrix(-1 0.0098 -0.0098 -1 642.9166 216.862)" fill="#979797" width="16.596" height="7.661"/>
				<path fill="#333333" d="M311.972,71.371c0.243,0.004,0.455-0.084,0.627-0.262c0.185-0.178,0.277-0.39,0.281-0.637
					c0.002-0.245-0.086-0.458-0.261-0.631c-0.176-0.184-0.39-0.275-0.637-0.282l-23.39-0.312c-0.13-0.007-0.257,0.023-0.375,0.08
					c-0.13,0.056-0.238,0.138-0.33,0.242l-4.296,5.204c-0.157,0.194-0.227,0.417-0.204,0.667c0.025,0.25,0.132,0.455,0.324,0.614
					c0.195,0.161,0.416,0.231,0.666,0.206c0.248-0.023,0.454-0.131,0.614-0.324l4.024-4.869L311.972,71.371z"/>
				
					<rect x="295.82" y="75.124" transform="matrix(-1 0.0096 -0.0096 -1 608.9787 154.9914)" fill="#979797" width="16.595" height="7.663"/>
				<g>
					<path fill="#333333" d="M257.224,26.464v10.603h-4.304V26.464h-2.52v-2.621h9.344v2.621H257.224z M261.527,24.89
						c0.423-0.42,0.981-0.769,1.683-1.048c0.698-0.212,1.503-0.315,2.413-0.315c0.909,0,1.714,0.104,2.414,0.315
						c0.699,0.279,1.26,0.628,1.679,1.048c0.421,0.491,0.666,1.015,0.735,1.573c0.07,0.491,0.105,1.436,0.105,2.837v2.308
						c0,1.329-0.035,2.274-0.105,2.833c-0.069,0.563-0.314,1.05-0.735,1.471c-0.419,0.49-0.979,0.841-1.679,1.05
						c-0.7,0.281-1.505,0.422-2.414,0.422c-0.91,0-1.679-0.141-2.309-0.422c-0.771-0.209-1.364-0.56-1.787-1.05
						c-0.416-0.421-0.662-0.908-0.733-1.471c-0.067-0.559-0.104-1.504-0.104-2.833V29.3c0-1.331,0.036-2.276,0.104-2.837
						C260.865,25.904,261.111,25.382,261.527,24.89z M249.353,23.736v13.329h-3.568v-6.089l-2.205,6.089h-3.777V23.736h3.569v6.087
						l2.413-6.087H249.353z M279.479,26.464h-3.149v10.603h-4.306V23.737h7.455V26.464z M283.046,23.843
						c0.699-0.212,1.503-0.315,2.413-0.315s1.714,0.104,2.415,0.315c0.698,0.279,1.26,0.628,1.68,1.048
						c0.42,0.491,0.664,1.015,0.734,1.573c0.068,0.491,0.104,1.436,0.104,2.837v2.308c0,1.329-0.036,2.274-0.104,2.833
						c-0.07,0.563-0.314,1.05-0.734,1.471c-0.42,0.49-0.98,0.841-1.68,1.05c-0.701,0.282-1.505,0.422-2.415,0.422
						c-0.909,0-1.679-0.14-2.309-0.422c-0.771-0.209-1.364-0.56-1.785-1.05c-0.421-0.421-0.664-0.908-0.734-1.471
						c-0.068-0.559-0.104-1.504-0.104-2.833v-2.308c0-1.331,0.035-2.276,0.104-2.837c0.07-0.56,0.313-1.082,0.734-1.573
						C281.787,24.471,282.347,24.122,283.046,23.843z M264.992,27.2v6.192c0,0.771,0.037,1.258,0.105,1.469
						c0.068,0.142,0.245,0.21,0.524,0.21c0.28,0,0.456-0.104,0.523-0.313c0.069-0.209,0.105-0.701,0.105-1.47V27.2
						c0-0.632-0.036-1.018-0.105-1.156c-0.067-0.207-0.243-0.315-0.523-0.315c-0.209,0-0.386,0.07-0.524,0.212
						C265.029,26.08,264.992,26.5,264.992,27.2z M281.263,44.204h4.303v5.982c0,0.56,0.033,0.943,0.103,1.156
						c0.143,0.14,0.353,0.209,0.634,0.209c0.629,0,0.943-0.422,0.943-1.26v-6.089h4.198v13.33h-4.198v-5.143
						c-0.352,0.349-0.806,0.595-1.365,0.733c-0.559,0.209-1.119,0.313-1.678,0.313c-1.051,0-1.785-0.245-2.207-0.732
						c-0.488-0.422-0.732-1.12-0.732-2.102V44.204L281.263,44.204z M280.42,46.933h-2.518v10.602h-4.306V46.933h-2.519v-2.625h9.341
						L280.42,46.933L280.42,46.933z M270.136,46.933c0.068,0.49,0.104,1.433,0.104,2.834v2.31c0,1.328-0.035,2.273-0.104,2.832
						c-0.069,0.561-0.315,1.051-0.737,1.472c-0.416,0.491-0.979,0.839-1.679,1.052c-0.699,0.278-1.505,0.419-2.411,0.419
						c-0.912,0-1.683-0.141-2.313-0.419c-0.769-0.213-1.364-0.561-1.783-1.052c-0.421-0.421-0.665-0.911-0.736-1.472
						c-0.069-0.559-0.104-1.504-0.104-2.832v-2.31c0-1.328,0.034-2.275,0.104-2.834c0.071-0.559,0.315-1.085,0.736-1.574
						c0.419-0.421,0.979-0.77,1.68-1.051c0.697-0.211,1.504-0.313,2.416-0.313c0.906,0,1.712,0.102,2.411,0.313
						c0.7,0.281,1.263,0.63,1.679,1.051C269.821,45.848,270.067,46.375,270.136,46.933z M264.784,46.407
						c-0.072,0.141-0.108,0.56-0.108,1.263v6.19c0,0.771,0.036,1.26,0.108,1.469c0.069,0.14,0.244,0.213,0.524,0.213
						c0.277,0,0.45-0.107,0.522-0.315c0.07-0.21,0.105-0.702,0.105-1.472V47.67c0-0.632-0.035-1.019-0.105-1.156
						c-0.072-0.21-0.245-0.316-0.522-0.316C265.097,46.196,264.923,46.266,264.784,46.407z M328.286,20.901
						c-0.071,0.771-0.351,1.364-0.84,1.785c-0.49,0.487-1.189,0.732-2.101,0.732c-0.841,0-1.506-0.245-1.994-0.732
						c-0.489-0.49-0.77-1.087-0.838-1.785h1.678c0.142,0.771,0.523,1.153,1.154,1.153c0.697,0,1.084-0.384,1.154-1.153H328.286z
						 M330.172,23.736v13.329h-3.568v-6.089l-2.201,6.089h-3.78V23.736h3.569v6.087l2.412-6.087H330.172z M299.315,24.054
						c0.702,0.139,1.261,0.486,1.681,1.048c0.419,0.49,0.629,1.328,0.629,2.52c0,0.771-0.141,1.295-0.419,1.573
						c-0.351,0.278-0.946,0.524-1.784,0.732c0.979,0.143,1.646,0.423,1.993,0.842c0.351,0.42,0.524,1.083,0.524,1.995v1.153
						c0,0.912-0.137,1.573-0.417,1.994c-0.213,0.42-0.597,0.735-1.157,0.945c-0.561,0.141-1.714,0.209-3.462,0.209h-4.935V23.842
						h4.305C297.601,23.843,298.616,23.908,299.315,24.054z M297.533,26.464c-0.141-0.21-0.282-0.313-0.421-0.313
						c-0.14-0.07-0.422-0.106-0.839-0.106v2.939c0.139,0,0.279,0,0.417,0c0.422,0,0.702-0.068,0.843-0.209
						c0.068-0.21,0.104-0.701,0.104-1.472C297.636,26.887,297.601,26.604,297.533,26.464z M285.986,26.044
						c-0.071-0.207-0.245-0.315-0.525-0.315c-0.209,0-0.386,0.07-0.522,0.212c-0.069,0.141-0.106,0.561-0.106,1.261v6.192
						c0,0.771,0.037,1.258,0.106,1.469c0.067,0.142,0.241,0.21,0.522,0.21c0.28,0,0.454-0.104,0.525-0.313
						c0.068-0.209,0.104-0.701,0.104-1.47v-6.088C286.09,26.568,286.054,26.183,285.986,26.044z M296.273,31.083v3.675
						c0.56,0,0.941-0.068,1.152-0.209c0.141-0.143,0.211-0.456,0.211-0.948v-1.258c0-0.561-0.07-0.91-0.211-1.05
						C297.286,31.151,296.903,31.083,296.273,31.083z M303.408,23.736h4.304v4.615h0.632c1.33,0,2.345,0.071,3.043,0.213
						c0.632,0.069,1.121,0.351,1.469,0.838c0.354,0.421,0.524,1.086,0.524,1.997v2.518c0,1.05-0.172,1.784-0.524,2.207
						c-0.275,0.417-0.732,0.663-1.362,0.732c-0.699,0.141-1.752,0.209-3.149,0.209h-4.935L303.408,23.736L303.408,23.736z
						 M307.71,30.453v4.305c0.562,0,0.911-0.036,1.051-0.106c0.211-0.14,0.315-0.487,0.315-1.051v-1.992
						c0-0.562-0.068-0.875-0.21-0.943C308.727,30.521,308.341,30.453,307.71,30.453z M314.849,37.065V23.736h4.306v13.329H314.849z
						 M307.922,57.534h-4.304V46.933h-2.52v-2.625h9.343v2.625h-2.521L307.922,57.534L307.922,57.534z M300.156,49.451v2.52h-2.623
						v2.938h3.146v2.627h-7.45V44.308h7.136v2.625h-2.832v2.52L300.156,49.451L300.156,49.451z"/>
				</g>
			</g>
		</g>
	</g>
</g>
</svg>
