<?xml version="1.0" encoding="utf-8"?>
<!-- Generator: Adobe Illustrator 15.1.0, SVG Export Plug-In . SVG Version: 6.00 Build 0)  -->
<!DOCTYPE svg PUBLIC "-//W3C//DTD SVG 1.1//EN" "http://www.w3.org/Graphics/SVG/1.1/DTD/svg11.dtd">
<svg version="1.1" id="Layer_1" xmlns="http://www.w3.org/2000/svg" xmlns:xlink="http://www.w3.org/1999/xlink" x="0px" y="0px"
	 width="349.213px" height="259.034px" viewBox="0 0 349.213 259.034" enable-background="new 0 0 349.213 259.034"
	 xml:space="preserve">
<g id="картинки">
	<g id="Layer_3">
		<g>
			<g>
				<path fill="#676767" d="M112.711,2.737c3.511-0.947,5.71,0.392,6.604,4.012l36.353,140.562c0.891,3.564-0.446,5.824-4.014,6.771
					l-103.04,26.657c-3.509,0.891-5.708-0.474-6.602-4.097L5.662,35.998c-0.894-3.565,0.444-5.794,4.01-6.687L112.711,2.737z"/>
				<path fill="#979797" d="M109.427,4.03c3.563-0.917,5.804,0.407,6.722,3.971l36.198,140.584c0.918,3.564-0.404,5.807-3.968,6.725
					L45.478,181.806c-3.563,0.917-5.805-0.406-6.722-3.973L2.556,37.248c-0.916-3.563,0.405-5.805,3.968-6.724L109.427,4.03z"/>
				
					<rect x="27.519" y="23.372" transform="matrix(-0.9684 0.2493 -0.2493 -0.9684 174.629 159.0692)" fill="#FFFFFF" width="99.444" height="134.442"/>
				
					<rect x="53.322" y="126.187" transform="matrix(0.9684 -0.2494 0.2494 0.9684 -30.1233 19.3331)" fill="#979797" width="15.806" height="4.688"/>
				
					<rect x="55.429" y="136.412" transform="matrix(0.9684 -0.2493 0.2493 0.9684 -32.5924 20.17)" fill="#979797" width="15.806" height="4.685"/>
				
					<rect x="57.176" y="144.712" transform="matrix(0.9684 -0.2493 0.2493 0.9684 -34.6102 20.8707)" fill="#979797" width="15.808" height="4.685"/>
				<path fill="#333333" d="M28.785,74.964c-0.224,0.063-0.438,0.034-0.645-0.087c-0.212-0.114-0.352-0.287-0.414-0.518
					c-0.063-0.226-0.035-0.439,0.084-0.646c0.115-0.209,0.289-0.347,0.517-0.414l21.443-6.057c0.118-0.035,0.241-0.041,0.364-0.021
					c0.131,0.022,0.254,0.069,0.363,0.145l5.235,3.731c0.191,0.139,0.31,0.324,0.352,0.56c0.041,0.237-0.009,0.451-0.146,0.647
					c-0.138,0.195-0.326,0.313-0.562,0.354c-0.235,0.038-0.451-0.011-0.646-0.146l-4.904-3.488L28.785,74.964z"/>
				<path fill="#333333" d="M103.55,44.27c0.232-0.063,0.453-0.032,0.66,0.084c0.205,0.119,0.339,0.293,0.401,0.521
					c0.063,0.231,0.035,0.45-0.081,0.659c-0.119,0.206-0.294,0.339-0.521,0.402l-20.937,5.657l-2.79,4.727
					c-0.119,0.206-0.291,0.34-0.52,0.4c-0.229,0.056-0.444,0.022-0.647-0.102c-0.208-0.117-0.342-0.291-0.402-0.52
					c-0.057-0.229-0.024-0.447,0.101-0.649l2.978-5.041c0.115-0.203,0.283-0.335,0.506-0.396L103.55,44.27z"/>
				<path fill="#333333" d="M109.12,98.684l2.127,8.955l14.188-3.565c0.22-0.074,0.434-0.043,0.649,0.102
					c0.19,0.129,0.316,0.305,0.371,0.525c0.06,0.224,0.032,0.438-0.071,0.645c-0.142,0.216-0.323,0.351-0.548,0.406l-15.079,3.795
					c-0.149,0.037-0.296,0.045-0.44,0.023c-0.153-0.061-0.273-0.146-0.363-0.263c-0.105-0.11-0.18-0.242-0.217-0.39l-2.295-9.831
					c-0.036-0.288,0.006-0.515,0.121-0.683c0.146-0.197,0.332-0.324,0.555-0.383c0.242-0.063,0.447-0.025,0.62,0.106
					C108.935,98.275,109.063,98.46,109.12,98.684z"/>
				<path fill="#333333" d="M117.447,60.481c0.208,0.119,0.339,0.294,0.398,0.521c0.065,0.231,0.036,0.452-0.08,0.66
					c-0.118,0.206-0.291,0.339-0.52,0.4L98.021,67.28c-0.231,0.063-0.451,0.035-0.659-0.082c-0.206-0.121-0.34-0.293-0.402-0.521
					c-0.062-0.232-0.036-0.45,0.082-0.659c0.119-0.207,0.293-0.34,0.521-0.402l19.224-5.215
					C117.017,60.336,117.239,60.363,117.447,60.481z"/>
				<path fill="#333333" d="M78.355,129.513c-0.062-0.226-0.031-0.44,0.088-0.646c0.113-0.209,0.286-0.351,0.515-0.416
					c0.227-0.061,0.44-0.031,0.646,0.086c0.21,0.118,0.348,0.288,0.414,0.519l6.091,21.634l46.33-11.927
					c0.228-0.062,0.443-0.024,0.647,0.099c0.206,0.118,0.341,0.292,0.401,0.521c0.057,0.229,0.023,0.443-0.102,0.649
					c-0.116,0.205-0.289,0.339-0.521,0.399l-47.149,12.143c-0.225,0.059-0.44,0.028-0.646-0.087
					c-0.204-0.122-0.338-0.295-0.402-0.521L78.355,129.513z"/>
				
					<rect x="59.287" y="152.666" transform="matrix(0.9684 -0.2493 0.2493 0.9684 -36.5289 21.6499)" fill="#979797" width="15.807" height="4.686"/>
				
					<rect x="30.073" y="75.908" transform="matrix(0.9684 -0.2495 0.2495 0.9684 -18.6461 11.9892)" fill="#979797" width="15.807" height="7.3"/>
				
					<rect x="89.592" y="49.695" transform="matrix(0.9684 -0.2494 0.2494 0.9684 -10.2236 26.0031)" fill="#979797" width="15.806" height="7.297"/>
				
					<rect x="103.263" y="65.437" transform="matrix(0.9684 -0.2495 0.2495 0.9684 -13.7203 29.9183)" fill="#979797" width="15.81" height="7.298"/>
				
					<rect x="110.826" y="110.435" transform="matrix(0.9684 -0.2493 0.2493 0.9684 -24.689 33.1954)" fill="#979797" width="15.809" height="7.298"/>
				<path fill="#CB3433" d="M102.789,111.848L81.196,95.822L104.2,78.721c1.438,2.427,2.533,5.107,3.289,8.045
					c2.07,8.037,0.998,15.627-3.219,22.77C103.798,110.333,103.306,111.105,102.789,111.848z"/>
				<path fill="#FFCC33" d="M62.907,68.42l15.272,27.495l23.514,17.549c-4.414,5.019-9.68,8.313-15.797,9.89
					c-8.034,2.066-15.622,0.994-22.764-3.227c-7.141-4.216-11.748-10.345-13.815-18.383c-2.069-8.039-0.996-15.63,3.22-22.771
					C55.22,74.427,58.677,70.909,62.907,68.42z"/>
				<path fill="#4DBC93" d="M92.166,67.538c0.506,0.269,1.008,0.548,1.509,0.842c3.943,2.33,7.113,5.245,9.509,8.745L79.689,94.519
					l11.522-27.461C91.53,67.212,91.847,67.371,92.166,67.538z"/>
				<path fill="#6666AD" d="M71.163,62.331c6.604-1.701,12.698-1.358,18.28,1.025l-10.917,26.77L64.593,64.825
					C66.616,63.77,68.806,62.939,71.163,62.331z"/>
				
					<polyline fill="none" stroke="#6EBD44" stroke-width="3" stroke-linecap="round" stroke-linejoin="round" stroke-miterlimit="3" points="
					85.681,151.395 88.876,132.104 99.732,134.148 108.206,125.907 117.966,126.127 128.043,121.691 				"/>
				<path fill="#EE3C24" d="M113.761,136.771l0.581-0.507l-0.014,0.004l0.729-0.632l3.304-2.843c0.127-0.106,0.271-0.176,0.437-0.2
					l4.488-0.666l2-0.308l4.911-0.746c0.238-0.034,0.456,0.021,0.649,0.16c0.192,0.144,0.306,0.333,0.34,0.564
					c0.035,0.236-0.017,0.457-0.158,0.649c-0.145,0.191-0.331,0.306-0.566,0.339l-5.942,0.894l-1.999,0.307l-3.212,0.484
					l-3.269,2.816l-0.572,0.488l-0.015,0.003l-0.731,0.619l-9.868,8.465c-0.12,0.104-0.257,0.17-0.411,0.195
					c-0.161,0.021-0.32,0.006-0.475-0.055l-8.631-3.492l-8.626,7.994l-0.01,0.017c-0.03,0.032-0.062,0.063-0.097,0.084
					c-0.063,0.039-0.129,0.07-0.198,0.097c-0.099,0.03-0.205,0.043-0.317,0.037c-0.119-0.005-0.229-0.031-0.333-0.078
					c-0.085-0.042-0.161-0.092-0.229-0.147c-0.014-0.019-0.028-0.033-0.04-0.047c-0.079-0.084-0.14-0.185-0.183-0.299
					c-0.03-0.099-0.045-0.202-0.036-0.316c0.004-0.12,0.03-0.229,0.077-0.331l0.043-0.07c0.035-0.068,0.088-0.14,0.154-0.201
					l3.282-3.042l5.749-5.343c0.12-0.11,0.259-0.181,0.42-0.211c0.167-0.028,0.331-0.012,0.487,0.052l8.647,3.505L113.761,136.771z"
					/>
				<path fill="#652C8F" d="M122.521,133.786l1.999-0.307c-0.161,0.384-0.32,0.766-0.478,1.147
					c-2.283,5.515-3.773,8.292-4.473,8.335c-0.739,0.338-2.356-1.249-4.848-4.765l0.73-0.619l0.016-0.003l0.571-0.488
					c1.899,2.72,2.933,4.12,3.103,4.204c0.265-0.197,1.365-2.64,3.307-7.323C122.476,133.908,122.497,133.848,122.521,133.786z
					 M86.408,151.503c-0.219,0.077-0.438,0.063-0.65-0.041c0.104,0.048,0.213,0.073,0.333,0.078
					C86.202,151.546,86.31,151.533,86.408,151.503z M85.304,150.97c-0.075-0.22-0.063-0.437,0.041-0.648
					c-0.047,0.102-0.073,0.211-0.077,0.331C85.259,150.767,85.274,150.87,85.304,150.97z M123.287,131.927
					c0.761-1.86,1.497-3.714,2.208-5.556c0.081-0.218,0.229-0.374,0.44-0.471l2.973-1.359c0.219-0.1,0.439-0.105,0.663-0.022
					c0.226,0.081,0.385,0.229,0.483,0.439c0.101,0.217,0.107,0.438,0.022,0.664c-0.079,0.222-0.227,0.384-0.438,0.481l-2.654,1.218
					c-0.555,1.426-1.121,2.86-1.698,4.298L123.287,131.927z M85.388,150.25l6.041-12.719c0.079-0.165,0.192-0.292,0.349-0.388
					c0.157-0.087,0.321-0.126,0.505-0.113l8.696,0.698l10.153-6.444c0.19-0.124,0.399-0.163,0.623-0.113
					c0.228,0.051,0.406,0.17,0.54,0.365l2.763,4.1l-0.729,0.632l0.014-0.004l-0.58,0.507l-2.421-3.579l-9.711,6.151
					c-0.159,0.104-0.336,0.15-0.527,0.137l-8.38-0.676l-3.897,8.203l-3.282,3.042C85.476,150.111,85.423,150.182,85.388,150.25z"/>
				<g>
					<path fill="#146734" d="M49.284,127.087l0.417-0.083l-2.841,8.525c-0.058,0.164-0.168,0.332-0.336,0.499
						c-0.109,0.111-0.307,0.168-0.582,0.168c-0.168-0.112-0.335-0.193-0.504-0.25l-3.175-3.511c-0.056-0.113,0-0.225,0.168-0.336
						c0.166-0.165,0.334-0.307,0.5-0.417c0.168-0.166,0.361-0.251,0.586-0.251c0.277,0,0.5,0.111,0.668,0.336l1.504,1.672
						l1.255-5.602c0.054-0.277,0.165-0.474,0.332-0.586c0.17,0,0.446-0.024,0.838-0.082
						C48.449,127.061,48.836,127.03,49.284,127.087z"/>
				</g>
				<g>
					<path fill="#146734" d="M45.857,140.373c0.224,0,0.418,0.112,0.586,0.336l1.503,1.672l1.253-5.768
						c0-0.224,0.086-0.361,0.253-0.417c0.165-0.112,0.444-0.193,0.835-0.25c0.446,0,0.863-0.03,1.254-0.085
						c0.279-0.055,0.391-0.055,0.334,0l-2.757,8.441c-0.057,0.278-0.14,0.473-0.251,0.585c-0.224,0.109-0.418,0.167-0.584,0.167
						c-0.281,0-0.503-0.112-0.67-0.335l-3.176-3.511c-0.056-0.055,0.026-0.138,0.251-0.249c0.168-0.111,0.361-0.252,0.585-0.419
						C45.383,140.373,45.579,140.319,45.857,140.373z"/>
				</g>
				<g>
					<path fill="#146734" d="M46.525,149.233c-0.055-0.056,0-0.14,0.168-0.252c0.224-0.111,0.417-0.249,0.584-0.417
						c0.17-0.167,0.363-0.249,0.588-0.249c0.277,0,0.5,0.109,0.668,0.334l1.503,1.67l1.338-5.767c-0.055-0.167,0-0.307,0.167-0.416
						c0.166-0.058,0.445-0.085,0.835-0.085c0.392-0.11,0.779-0.165,1.17-0.165l0.419-0.086l-2.757,8.522
						c-0.058,0.168-0.169,0.337-0.336,0.502c-0.168,0.111-0.362,0.168-0.585,0.168c-0.223-0.057-0.418-0.139-0.585-0.252
						L46.525,149.233z"/>
				</g>
				<g>
					<path fill="#146734" d="M54.464,152.575c0.39-0.111,0.809-0.139,1.253-0.084l0.419-0.083l-2.841,8.524
						c0,0.22-0.085,0.417-0.251,0.583c-0.166,0.111-0.363,0.169-0.585,0.169c-0.28-0.058-0.475-0.169-0.586-0.335l-3.26-3.427
						c-0.056-0.111,0.028-0.224,0.252-0.335c0.167-0.11,0.362-0.251,0.585-0.418c0.11-0.166,0.307-0.222,0.584-0.166
						c0.224,0,0.418,0.084,0.586,0.252l1.502,1.671l1.34-5.683c0.057-0.28,0.139-0.448,0.251-0.504
						C53.88,152.688,54.131,152.631,54.464,152.575z"/>
				</g>
				<g>
					<path fill="#676767" d="M95.079,40.847l-5.35,1.336l-2.927-11.449l-3.174,0.835l-0.836-2.925l11.784-3.007l0.752,2.926
						l-3.261,0.835L95.079,40.847z M83.712,37.167l-3.342,0.919l0.835,3.178l3.927-1.002l0.756,2.924l-9.277,2.34L72.85,31.151
						l8.94-2.34l0.753,2.925l-3.594,1.005l0.751,2.672l3.343-0.92L83.712,37.167z M67.583,41.933
						c-0.332,0.499-0.861,0.918-1.587,1.253c-0.612,0.333-1.281,0.612-2.006,0.837c-1.281,0.333-2.257,0.358-2.925,0.081
						c-0.779-0.444-1.309-1.169-1.589-2.171l-1.755-6.854l5.351-1.422l1.754,6.438c0.112,0.556,0.28,0.945,0.501,1.17
						c0.222,0.166,0.475,0.193,0.752,0.083c0.837-0.225,1.143-0.835,0.92-1.84l-1.755-6.434l5.431-1.338l3.764,14.375l-5.35,1.337
						L67.583,41.933z M57.556,38.253l-3.26,0.836l2.926,11.449l-5.265,1.338l-3.092-11.449l-3.092,0.837l-0.754-2.927l11.698-3.009
						L57.556,38.253z M38.335,42.352c-0.334,0.108-0.559,0.25-0.669,0.417c-0.112,0.166-0.054,0.611,0.17,1.335l1.67,6.771
						c0.224,0.78,0.417,1.282,0.585,1.506c0.166,0.11,0.417,0.137,0.751,0.081c0.393-0.109,0.612-0.277,0.669-0.5
						c0.056-0.279-0.027-0.836-0.252-1.671l-1.672-6.604c-0.166-0.611-0.361-1.03-0.583-1.254
						C38.893,42.321,38.67,42.291,38.335,42.352z M32.32,44.689c-0.057-0.667,0.141-1.281,0.583-1.839
						c0.393-0.56,0.949-1.113,1.672-1.671c0.892-0.5,1.896-0.893,3.011-1.17c1.113-0.335,2.146-0.504,3.092-0.504
						c0.945,0.112,1.757,0.309,2.424,0.588c0.611,0.39,1.06,0.862,1.337,1.421c0.277,0.554,0.612,1.587,1.002,3.091l0.586,2.423
						c0.391,1.505,0.61,2.536,0.668,3.094c0.11,0.667-0.026,1.282-0.418,1.839c-0.443,0.668-1.06,1.225-1.838,1.671
						c-0.78,0.5-1.755,0.92-2.925,1.255c-1.06,0.276-2.091,0.389-3.094,0.333c-0.945,0.056-1.755-0.111-2.423-0.501
						c-0.725-0.391-1.226-0.893-1.504-1.505c-0.223-0.502-0.529-1.477-0.92-2.924l-0.502-2.426
						C32.682,46.36,32.431,45.302,32.32,44.689z"/>
				</g>
			</g>
			<g>
				<path fill="#676767" d="M342.19,32.989c3.567,0.891,4.821,3.148,3.761,6.77l-36.936,140.479
					c-0.891,3.509-3.121,4.819-6.686,3.927l-102.958-26.992c-3.456-0.946-4.709-3.23-3.763-6.853L232.549,9.84
					c0.946-3.564,3.175-4.846,6.686-3.843L342.19,32.989z"/>
				<path fill="#979797" d="M338.106,32.432c3.555,0.937,4.864,3.186,3.927,6.743L305.054,179.57
					c-0.938,3.561-3.186,4.872-6.741,3.936l-102.727-27.058c-3.554-0.937-4.866-3.184-3.927-6.744L228.638,9.309
					c0.938-3.559,3.186-4.871,6.74-3.935L338.106,32.432z"/>
				
					<rect x="218.736" y="25.205" transform="matrix(-0.967 -0.2547 0.2547 -0.967 504.4907 250.1896)" fill="#FFFFFF" width="99.417" height="134.454"/>
				<polygon fill="#979797" points="229.765,124.367 287.358,139.183 285.958,143.555 228.326,128.396 				"/>
				<g>
					<path fill="#676767" d="M305.838,44.605l-3.26-0.834l0.753-3.011l11.699,3.262l-0.752,2.84l-3.175-0.837l-3.011,11.449
						l-5.349-1.503L305.838,44.605z M299.907,48.699l-3.344-0.836l-0.752,3.176l3.844,1.088l-0.751,2.841l-9.109-2.425l3.678-14.371
						l8.94,2.34l-0.751,2.842l-3.679-0.838l-0.668,2.675l3.427,0.835L299.907,48.699z M291.295,37.585l-3.842,14.456l-5.349-1.419
						l1.421-5.685c-0.5,0.337-1.144,0.448-1.923,0.337c-0.667,0-1.364-0.059-2.09-0.167c-1.392-0.393-2.311-0.836-2.757-1.337
						c-0.445-0.782-0.559-1.703-0.335-2.76l1.922-6.852l5.266,1.42l-1.504,6.52c-0.168,0.556-0.224,0.975-0.168,1.254
						c0.113,0.275,0.308,0.444,0.585,0.5c0.835,0.169,1.394-0.225,1.672-1.17l1.589-6.602L291.295,37.585z M273.33,36.082
						l-3.009,11.365l-5.265-1.423l2.927-11.447l-3.177-0.836l0.834-2.841l11.617,3.008l-0.67,3.008L273.33,36.082z M263.052,31.486
						c0.39,0.556,0.558,1.196,0.5,1.921c-0.057,0.613-0.25,1.646-0.584,3.094l-0.752,2.506c-0.334,1.449-0.612,2.451-0.836,3.008
						c-0.224,0.56-0.642,1.005-1.253,1.34c-0.725,0.388-1.534,0.583-2.424,0.583c-0.946,0.056-2.033-0.056-3.261-0.332
						c-1.057-0.336-2.006-0.754-2.841-1.253c-0.835-0.447-1.42-1.005-1.754-1.672c-0.503-0.614-0.727-1.254-0.669-1.924
						c0.055-0.558,0.276-1.589,0.669-3.092l0.669-2.341c0.389-1.561,0.724-2.591,1.001-3.092c0.225-0.612,0.67-1.03,1.337-1.253
						c0.613-0.336,1.339-0.559,2.175-0.669c1.112,0,2.201,0.14,3.258,0.417c1.17,0.278,2.173,0.64,3.011,1.087
						C262.076,30.314,262.662,30.873,263.052,31.486z M256.451,32.404l-1.756,6.771c-0.167,0.779-0.251,1.281-0.251,1.506
						c0.057,0.167,0.281,0.332,0.67,0.5c0.39,0.055,0.64,0.027,0.752-0.083c0.223-0.225,0.445-0.779,0.668-1.671l1.755-6.604
						c0.112-0.558,0.141-1.031,0.085-1.42c-0.113-0.112-0.278-0.222-0.504-0.333c-0.39,0-0.694,0-0.918,0
						C256.839,31.181,256.673,31.624,256.451,32.404z"/>
				</g>
				<g>
					<path fill="#EC2024" d="M253.86,47.863c0.335,0.113,0.584,0.337,0.752,0.669l10.529,23.316l9.193,1.085
						c0.333,0.056,0.64,0.252,0.918,0.586c0.166,0.168,0.225,0.418,0.166,0.753l-1.254,28.664l12.537-8.107
						c0.111-0.111,0.278-0.168,0.503-0.168c0.164-0.056,0.358-0.082,0.582-0.082l10.279,3.593c0.334,0.111,0.559,0.335,0.668,0.668
						c0.169,0.279,0.197,0.529,0.085,0.755c-0.111,0.276-0.306,0.5-0.585,0.668c-0.391,0.109-0.697,0.109-0.92,0l-9.692-3.177
						l-14.041,9.025c-0.223,0.169-0.501,0.25-0.836,0.25c-0.39-0.056-0.669-0.194-0.835-0.418c-0.224-0.277-0.307-0.584-0.252-0.917
						l1.339-29.918l-8.942-1.002c-0.223-0.061-0.418-0.113-0.584-0.169c-0.225-0.168-0.361-0.334-0.418-0.501l-10.863-24.068
						c-0.111-0.334-0.111-0.669,0-1.002c0.109-0.225,0.363-0.39,0.752-0.503C253.218,47.697,253.526,47.697,253.86,47.863z"/>
					<polygon fill="#F16722" points="254.195,61.653 238.149,121.654 227.785,118.896 243.748,58.896 					"/>
					<path fill="#C9DA2A" d="M285.448,107.783l10.444,2.842l-6.516,24.735l-10.447-2.843L285.448,107.783z M256.617,79.537
						l10.446,2.841l-11.866,44.291l-10.446-2.758L256.617,79.537z"/>
					<polygon fill="#336698" points="276.171,116.308 272.245,130.764 261.798,128.009 265.726,113.549 					"/>
				</g>
				<polygon fill="#979797" points="227.927,131.135 285.518,145.952 284.121,150.321 226.49,135.164 				"/>
				<polygon fill="#979797" points="225.085,138.991 282.677,153.807 281.28,158.18 223.648,143.021 				"/>
			</g>
			<g>
				<g>
					<path fill="#676767" d="M241.242,78.198c4.203,0,6.271,2.104,6.209,6.305l-1.528,166.001c-0.063,4.206-2.198,6.307-6.397,6.307
						l-121.592-1.147c-4.201-0.063-6.271-2.195-6.209-6.398l1.529-166.003c0.064-4.201,2.197-6.271,6.398-6.209L241.242,78.198z"/>
					<path fill="#979797" d="M237.314,78.78c4.205,0.04,6.288,2.164,6.246,6.372l-1.604,165.902
						c-0.041,4.207-2.166,6.289-6.369,6.25l-121.443-1.175c-4.203-0.041-6.285-2.164-6.245-6.371l1.604-165.903
						c0.042-4.208,2.164-6.29,6.369-6.249L237.314,78.78z"/>
					
						<rect x="119.621" y="87.805" transform="matrix(-1 -0.0097 0.0097 -1 351.304 330.9802)" fill="#FFFFFF" width="113.667" height="153.665"/>
				</g>
				
					<rect x="137.133" y="187.533" transform="matrix(1 0.0099 -0.0099 1 1.8784 -1.4074)" fill="#979797" width="12.452" height="3.691"/>
				
					<rect x="136.859" y="194.2" transform="matrix(0.9999 0.01 -0.01 0.9999 1.9757 -1.4268)" fill="#979797" width="12.449" height="3.692"/>
				<path fill="#333333" d="M130.208,133.936c-0.185,0.001-0.34-0.063-0.473-0.197c-0.138-0.133-0.208-0.289-0.211-0.478
					c0-0.185,0.063-0.342,0.194-0.474c0.133-0.137,0.293-0.209,0.479-0.212l17.547-0.234c0.097-0.003,0.188,0.017,0.282,0.061
					c0.094,0.041,0.177,0.104,0.247,0.182l3.22,3.904c0.121,0.147,0.172,0.313,0.152,0.5c-0.015,0.188-0.096,0.343-0.24,0.461
					c-0.146,0.119-0.311,0.172-0.498,0.155c-0.188-0.016-0.344-0.1-0.463-0.244l-3.022-3.651L130.208,133.936z"/>
				
					<rect x="136.718" y="200.773" transform="matrix(1 0.0096 -0.0096 1 1.9611 -1.3694)" fill="#979797" width="12.453" height="3.692"/>
				
					<rect x="129.898" y="136.455" transform="matrix(1 0.0097 -0.0097 1 1.3614 -1.3172)" fill="#979797" width="12.452" height="5.747"/>
				<path fill="#CB3433" d="M178.966,177.063l-13.158-16.591l20.986-8.322c0.603,2.14,0.887,4.402,0.861,6.789
					c-0.063,6.54-2.425,12.097-7.089,16.67C180.045,176.118,179.511,176.604,178.966,177.063z"/>
				<path fill="#FFCC33" d="M157.48,135.896l6.016,24.03l14.309,18.146c-4.38,2.918-9.057,4.351-14.031,4.301
					c-6.534-0.063-12.086-2.429-16.659-7.094c-4.571-4.663-6.827-10.264-6.762-16.802c0.063-6.536,2.425-12.092,7.09-16.665
					C150.411,138.897,153.757,136.927,157.48,135.896z"/>
				<path fill="#4DBC93" d="M179.918,141.188c0.332,0.305,0.655,0.624,0.979,0.951c2.524,2.573,4.341,5.438,5.45,8.591
					l-21.422,8.439l14.366-18.542C179.5,140.812,179.712,140.997,179.918,141.188z"/>
				<path fill="#6666AD" d="M165.001,132.945c5.372,0.054,9.939,1.555,13.695,4.504l-13.759,18.146l-5.444-22.091
					C161.251,133.114,163.087,132.927,165.001,132.945z"/>
				<g>
					<path fill="#146734" d="M135.031,184.889h0.284l-3.818,5.919c-0.129,0.131-0.222,0.224-0.286,0.288
						c-0.19,0.063-0.353,0.098-0.478,0.098c-0.193-0.065-0.351-0.225-0.479-0.477l-1.622-3.251c-0.064-0.065,0-0.129,0.19-0.189
						c0.191,0,0.348-0.063,0.478-0.191c0.19-0.063,0.38-0.031,0.571,0.098c0.191,0,0.318,0.095,0.383,0.284l0.766,1.625l2.193-4.107
						c0-0.191,0.099-0.318,0.288-0.384c0.127,0,0.319,0,0.575,0C134.455,184.664,134.775,184.761,135.031,184.889z"/>
				</g>
				<g>
					<path fill="#146734" d="M133.212,191.381c-0.063-0.126,0-0.224,0.193-0.285c0.127,0,0.349,0.063,0.67,0.189
						c0.316-0.063,0.604-0.063,0.857,0l0.381,0.096l-3.818,5.924c-0.063,0.126-0.193,0.223-0.384,0.288
						c-0.126,0.063-0.288,0.063-0.476,0c-0.129-0.129-0.255-0.226-0.384-0.288l-1.72-3.344c0-0.063,0.063-0.127,0.192-0.191
						c0.188,0,0.349-0.03,0.475-0.097c0.192-0.128,0.384-0.155,0.577-0.093c0.189,0.063,0.316,0.158,0.381,0.287l0.763,1.717
						L133.212,191.381z"/>
				</g>
				<g>
					<path fill="#146734" d="M129.584,200.647c0.193,0,0.35,0.096,0.479,0.287l0.762,1.527l2.2-4.014
						c0.063-0.189,0.159-0.314,0.286-0.38c0.127,0,0.353,0.03,0.669,0.094c0.252-0.063,0.572,0,0.954,0.193h0.286l-3.918,5.823
						c-0.063,0.191-0.189,0.353-0.381,0.479c-0.127,0-0.254,0-0.383,0c-0.255-0.063-0.38-0.189-0.38-0.38l-1.813-3.249
						c-0.065-0.126,0.03-0.191,0.286-0.191c0.126-0.064,0.317-0.157,0.569-0.284C129.267,200.487,129.394,200.522,129.584,200.647z"
						/>
				</g>
				<g>
					<path fill="#676767" d="M144.198,99.783c1.212-0.315,2.451-0.477,3.729-0.477c1.397-0.064,2.605,0,3.627,0.188
						c1.021,0.386,1.814,0.861,2.387,1.433c0.637,0.448,1.021,1.086,1.147,1.911c0.128,0.766,0.222,1.975,0.283,3.631l-0.093,3.056
						c0.063,1.656,0.063,2.802,0,3.44c-0.126,0.699-0.447,1.334-0.955,1.908c-0.7,0.638-1.528,1.115-2.482,1.436
						c-1.084,0.314-2.326,0.508-3.726,0.57c-1.34-0.063-2.516-0.283-3.532-0.669c-1.021-0.189-1.816-0.605-2.389-1.239
						c-0.766-0.573-1.212-1.212-1.34-1.91c-0.127-0.637-0.19-1.85-0.19-3.63v-2.771c0-1.848,0.063-3.09,0.19-3.723
						c0.063-0.704,0.415-1.276,1.052-1.72C142.542,100.645,143.306,100.167,144.198,99.783z M148.784,102.172
						c-0.188-0.063-0.416-0.127-0.668-0.19c-0.385,0.128-0.7,0.222-0.955,0.288c-0.128,0.128-0.188,0.637-0.188,1.525l0.091,8.119
						c0.063,0.893,0.129,1.466,0.19,1.72c0.068,0.127,0.35,0.254,0.862,0.382c0.381-0.063,0.638-0.189,0.764-0.382
						c0.192-0.315,0.285-1.021,0.285-2.101l-0.093-7.738C149.072,103.158,148.972,102.619,148.784,102.172z M156.616,99.496
						l13.848-0.092l0.1,3.534h-3.917l0.095,13.371l-6.207,0.094l-0.19-13.563l-3.727,0.1L156.616,99.496L156.616,99.496z
						 M211.345,102.746l0.096,13.563l-6.399-0.099l0.099-13.562l-3.92,0.188v-3.629l13.851,0.193v3.246L211.345,102.746z
						 M199.692,109.048h-3.818l0.093,3.82h4.491l0.093,3.344h-10.886l-0.097-16.904l10.507-0.097l0.099,3.346l-4.397,0.189
						l0.099,3.15l4.012-0.094L199.692,109.048z M186.99,99.308v17.003l-6.307,0.094l-0.093-6.687
						c-0.512,0.51-1.181,0.826-2.008,0.955c-0.766,0.191-1.559,0.319-2.388,0.384c-1.721-0.063-2.865-0.257-3.436-0.575
						c-0.703-0.765-1.084-1.749-1.15-2.959v-8.117l6.306-0.098l0.288,7.642c0,0.702,0.063,1.208,0.189,1.529
						c0.189,0.254,0.415,0.379,0.667,0.379c1.02-0.063,1.56-0.664,1.623-1.813l-0.283-7.737H186.99L186.99,99.308z"/>
				</g>
				<g>
					<path fill="#EC2024" d="M190.043,179.252c0.191,0.064,0.384,0.191,0.575,0.383l10.6,15.663l6.021-1.05
						c0.256,0,0.476,0.096,0.668,0.287c0.128,0.063,0.223,0.252,0.286,0.57l4.01,22.16l6.592-8.788
						c0.063-0.126,0.126-0.222,0.192-0.286c0.126-0.063,0.253-0.126,0.381-0.19l7.162,0.764c0.193-0.063,0.383,0.034,0.577,0.289
						c0.127,0.189,0.155,0.38,0.095,0.571c0,0.255-0.095,0.478-0.289,0.671c-0.188,0.188-0.383,0.251-0.57,0.188l-6.688-0.478
						l-7.258,9.74c-0.127,0.19-0.318,0.32-0.573,0.383c-0.192,0.063-0.351,0.032-0.479-0.094c-0.255-0.129-0.381-0.353-0.381-0.669
						l-4.203-23.211l-5.826,1.052c-0.126,0-0.258,0-0.386,0c-0.188,0-0.315-0.064-0.378-0.191l-10.983-16.237
						c-0.064-0.254-0.099-0.508-0.099-0.763c0-0.193,0.128-0.383,0.385-0.573C189.602,179.252,189.79,179.19,190.043,179.252z"/>
					<polygon fill="#336698" points="215.741,227.011 215.741,238.948 208.67,238.948 208.67,227.104 					"/>
					<path fill="#C9DA2A" d="M220.133,218.7l7.068-0.099l0.095,20.25l-7.068,0.097L220.133,218.7z M197.115,202.94l7.164,0.094
						v36.201l-7.164,0.094V202.94z"/>
					<polygon fill="#F16722" points="192.624,189.662 192.531,238.948 185.654,238.948 185.556,189.854 					"/>
				</g>
				<polygon fill="#979797" points="136.702,214.688 180.317,214.02 180.196,219.272 136.396,219.56 				"/>
				<polygon fill="#979797" points="136.034,223.281 179.651,222.613 179.529,227.867 135.73,228.155 				"/>
				<polygon fill="#979797" points="135.652,232.165 179.27,231.499 179.147,236.751 135.343,237.035 				"/>
				<path fill="#333333" d="M210.054,152.942c0.185,0.002,0.344-0.064,0.473-0.196c0.137-0.133,0.209-0.29,0.213-0.478
					c0.001-0.188-0.067-0.344-0.198-0.473c-0.131-0.14-0.288-0.21-0.479-0.214l-17.544-0.234c-0.102-0.002-0.193,0.021-0.283,0.06
					c-0.098,0.042-0.18,0.104-0.246,0.182l-3.225,3.906c-0.12,0.146-0.174,0.313-0.152,0.5c0.02,0.188,0.096,0.341,0.242,0.459
					c0.146,0.123,0.313,0.174,0.5,0.156c0.187-0.017,0.339-0.101,0.463-0.242l3.018-3.652L210.054,152.942z"/>
				
					<rect x="197.876" y="155.529" transform="matrix(-1 0.0096 -0.0096 -1 409.7121 314.8468)" fill="#979797" width="12.454" height="5.748"/>
				<path fill="#333333" d="M197.159,129.347c0.182,0.007,0.343-0.062,0.474-0.194c0.136-0.132,0.206-0.291,0.209-0.476
					c0.006-0.187-0.063-0.343-0.197-0.476c-0.129-0.138-0.287-0.206-0.477-0.211l-17.544-0.235
					c-0.101-0.005-0.194,0.019-0.284,0.062c-0.097,0.04-0.178,0.104-0.247,0.183l-3.223,3.901c-0.12,0.149-0.171,0.315-0.153,0.501
					c0.02,0.188,0.1,0.343,0.243,0.463s0.313,0.171,0.499,0.152c0.188-0.017,0.341-0.098,0.463-0.242l3.021-3.654L197.159,129.347z"
					/>
				
					<rect x="185.02" y="131.862" transform="matrix(-1 0.0096 -0.0096 -1 383.783 267.6207)" fill="#979797" width="12.453" height="5.748"/>
			</g>
		</g>
	</g>
</g>
</svg>
