<?xml version="1.0" encoding="utf-8"?>
<!-- Generator: Adobe Illustrator 15.1.0, SVG Export Plug-In . SVG Version: 6.00 Build 0)  -->
<!DOCTYPE svg PUBLIC "-//W3C//DTD SVG 1.1//EN" "http://www.w3.org/Graphics/SVG/1.1/DTD/svg11.dtd">
<svg version="1.1" id="Layer_1" xmlns="http://www.w3.org/2000/svg" xmlns:xlink="http://www.w3.org/1999/xlink" x="0px" y="0px"
	 width="500px" height="593.5px" viewBox="0 0 500 593.5" enable-background="new 0 0 500 593.5" xml:space="preserve">
<g>
	<rect fill="#DEFFFF" width="501" height="349"/>
	<rect y="245" fill="#C3E0E2" width="501" height="349"/>
	<g>
		<g>
			<g>
				
					<rect x="179.156" y="29.172" fill="#FFFFFF" stroke="#929497" stroke-width="5" stroke-miterlimit="10" width="196.873" height="176.035"/>
			</g>
		</g>
		<g>
			<g>
				<g>
					<path fill-rule="evenodd" clip-rule="evenodd" fill="#0035BA" d="M204.431,175.646v5.398h16.314l-0.106-1.861
						c-0.018-0.442,0.097-0.831,0.347-1.17c0.23-0.334,0.539-0.525,0.931-0.565c0.371-0.024,0.7,0.114,0.982,0.409
						c0.27,0.273,0.417,0.641,0.452,1.106l0.134,2.082h21.182v-1.987c0-0.443,0.134-0.821,0.4-1.137
						c0.266-0.316,0.585-0.472,0.958-0.472c0.371,0,0.691,0.156,0.958,0.472s0.398,0.694,0.398,1.137v1.987h19.906v-2.273
						c0-0.442,0.131-0.819,0.398-1.136c0.267-0.315,0.585-0.473,0.957-0.473s0.691,0.157,0.958,0.473
						c0.268,0.317,0.399,0.693,0.399,1.136v2.273h21.313v-1.987c0-0.443,0.135-0.821,0.399-1.137
						c0.267-0.316,0.587-0.472,0.958-0.472c0.37,0,0.695,0.156,0.959,0.472c0.266,0.316,0.4,0.694,0.4,1.137v1.987h23.098
						l-0.134-2.399c-0.018-0.439,0.096-0.832,0.347-1.169c0.229-0.336,0.53-0.524,0.903-0.565c0.372-0.023,0.703,0.112,0.986,0.409
						c0.281,0.275,0.441,0.632,0.479,1.073l0.156,2.652h35.132c0.373,0,0.694,0.157,0.959,0.475
						c0.268,0.315,0.401,0.695,0.401,1.135c0,0.442-0.134,0.822-0.401,1.135c-0.265,0.321-0.586,0.475-0.959,0.475h-36.3
						c-0.038,0-0.073,0-0.109,0h-96.275c-0.071,0-0.14,0-0.213,0h-17.67v8.083c0,0.443-0.133,0.822-0.398,1.137
						c-0.266,0.318-0.583,0.474-0.956,0.474s-0.693-0.156-0.958-0.474c-0.267-0.314-0.401-0.694-0.401-1.137v-8.083h-6.811
						c-0.372,0-0.691-0.153-0.958-0.475c-0.267-0.313-0.399-0.693-0.399-1.135c0-0.439,0.133-0.82,0.399-1.135
						c0.267-0.317,0.586-0.475,0.958-0.475h6.811V57.537c0-0.44,0.135-0.819,0.401-1.136c0.265-0.318,0.585-0.474,0.958-0.474
						s0.69,0.156,0.956,0.474c0.266,0.317,0.398,0.696,0.398,1.136v3.631h2.156c0.373,0,0.693,0.158,0.959,0.473
						c0.266,0.316,0.398,0.693,0.398,1.136c0,0.442-0.133,0.82-0.398,1.137c-0.266,0.316-0.586,0.474-0.959,0.474h-2.156v17.554
						h2.156c0.373,0,0.693,0.159,0.959,0.472c0.266,0.317,0.398,0.696,0.398,1.138c0,0.442-0.133,0.82-0.398,1.135
						c-0.266,0.315-0.586,0.474-0.959,0.474h-2.156v16.45h2.609c0.373,0,0.69,0.158,0.959,0.473
						c0.267,0.315,0.399,0.697,0.399,1.137c0,0.442-0.133,0.823-0.399,1.136c-0.269,0.316-0.586,0.475-0.959,0.475h-2.609v21.403
						h1.678c0.373,0,0.694,0.159,0.959,0.476c0.266,0.314,0.399,0.694,0.399,1.138c0,0.441-0.134,0.817-0.399,1.134
						c-0.265,0.319-0.586,0.475-0.959,0.475h-1.678v24.467h3.089c0.371,0,0.692,0.157,0.958,0.476
						c0.267,0.314,0.397,0.691,0.397,1.133c0,0.444-0.131,0.821-0.397,1.139c-0.266,0.314-0.587,0.47-0.958,0.47h-3.089v16.293
						V175.646z"/>
				</g>
			</g>
			<g>
				<g>
					<path fill-rule="evenodd" clip-rule="evenodd" fill="#0035BA" d="M347.977,181.964c0.059-0.214,0.113-0.43,0.174-0.645h-2.331
						v-1.99c0-0.442-0.135-0.821-0.4-1.137c-0.264-0.313-0.587-0.473-0.959-0.473s-0.691,0.159-0.957,0.473
						c-0.268,0.316-0.401,0.695-0.401,1.137v1.99h-1.243c0.095,0.212,0.185,0.428,0.271,0.645H347.977z"/>
				</g>
			</g>
			<g>
				<g>
					<rect x="313.797" y="121.614" fill-rule="evenodd" clip-rule="evenodd" fill="#CF4E21" width="6.322" height="57.56"/>
				</g>
				<g>
					<rect x="248.31" y="148.102" fill-rule="evenodd" clip-rule="evenodd" fill="#CF4E21" width="6.141" height="31.072"/>
				</g>
				<g>
					<rect x="281.06" y="140.8" fill-rule="evenodd" clip-rule="evenodd" fill="#CF4E21" width="6.13" height="38.374"/>
				</g>
				<g>
					<rect x="255.751" y="147.143" fill-rule="evenodd" clip-rule="evenodd" fill="#7CA88E" width="6.144" height="32.16"/>
				</g>
				<g>
					<rect x="288.501" y="137.103" fill-rule="evenodd" clip-rule="evenodd" fill="#7CA88E" width="6.13" height="42.072"/>
				</g>
				<g>
					<rect x="263.192" y="145.858" fill-rule="evenodd" clip-rule="evenodd" fill="#54ADB2" width="6.143" height="33.444"/>
				</g>
				<g>
					<rect x="295.943" y="133.354" fill-rule="evenodd" clip-rule="evenodd" fill="#54ADB2" width="6.131" height="45.82"/>
				</g>
				<g>
					<rect x="270.635" y="143.66" fill-rule="evenodd" clip-rule="evenodd" fill="#BACCC1" width="6.143" height="35.515"/>
				</g>
				<g>
					<rect x="215.723" y="150.419" fill-rule="evenodd" clip-rule="evenodd" fill="#CF4E21" width="6.143" height="28.755"/>
				</g>
				<g>
					<rect x="223.164" y="151.144" fill-rule="evenodd" clip-rule="evenodd" fill="#7CA88E" width="6.144" height="28.159"/>
				</g>
				<g>
					<rect x="230.608" y="150.055" fill-rule="evenodd" clip-rule="evenodd" fill="#54ADB2" width="6.142" height="29.247"/>
				</g>
				<g>
					<rect x="238.049" y="148.911" fill-rule="evenodd" clip-rule="evenodd" fill="#BACCC1" width="6.143" height="30.263"/>
				</g>
				<g>
					<rect x="205.463" y="159.235" fill-rule="evenodd" clip-rule="evenodd" fill="#BACCC1" width="6.142" height="19.939"/>
				</g>
				<g>
					<rect x="303.386" y="128.662" fill-rule="evenodd" clip-rule="evenodd" fill="#BACCC1" width="6.131" height="50.512"/>
				</g>
				<g>
					<rect x="324.882" y="111.284" fill-rule="evenodd" clip-rule="evenodd" fill="#7CA88E" width="6.13" height="67.89"/>
				</g>
				<g>
					<rect x="332.322" y="101.673" fill-rule="evenodd" clip-rule="evenodd" fill="#54ADB2" width="6.131" height="77.501"/>
				</g>
				<g>
					<rect x="339.766" y="90.939" fill-rule="evenodd" clip-rule="evenodd" fill="#BACCC1" width="6.128" height="88.235"/>
				</g>
			</g>
			<g>
				<g>
					<path fill="#8BC53F" d="M219.471,148.475c-3.894,0-7.841-0.104-11.864-0.324l0.454-9.878
						c65.073,3.531,112.624-22.972,133.916-74.608l8.299,4.045C328.68,120.086,282.472,148.475,219.471,148.475z"/>
				</g>
				<g>
					<g>
						<path fill="#8BC53F" d="M345.582,66.95c-4.332,1.994-11.023,0.908-15.303-0.823c7.393-2.096,14.567-5.887,20.038-11.889
							c-0.033,8.396,3.093,16.419,6.781,23.697C352.717,75.546,347.668,71.923,345.582,66.95z"/>
					</g>
				</g>
			</g>
		</g>
	</g>
	<g>
		<g id="text_1_">
			<path fill="#BF702E" d="M123.498,30.525c3.71-0.007,6.987,1.356,9.829,4.092c2.934,2.748,4.776,6.369,5.527,10.864l5.045,31.526
				c0.272,1.705,0.03,3.235-0.727,4.593c-0.74,1.463-1.783,2.361-3.13,2.692L133.103,86c-2.042,0.729-4.252,1.367-6.629,1.915
				l-14.537,3.292c-1.316,0.323-2.557-0.012-3.723-1.007c-1.122-0.933-1.816-2.232-2.082-3.901l-5.045-31.528
				c-0.652-4.442-0.063-8.662,1.762-12.655c1.844-3.887,4.467-6.703,7.869-8.444c1.499-0.709,3.014-1.231,4.543-1.571l-0.291-0.098
				c-0.449-0.155,0.106-0.195,1.67-0.128l0.859-0.042l-0.026-0.163c1.37-0.753,1.898-0.976,1.581-0.674l-0.281,0.239
				C120.29,30.823,121.864,30.586,123.498,30.525z"/>
			<path fill="#FFEA83" d="M145.355,102.182c-0.801,2.419-2.757,4.96-5.876,7.625l-2.029,8.091
				c-0.063,0.196-0.124,0.393-0.189,0.594c-1.439,4.994-2.139,10.286-2.094,15.875l-9.749,0.874l-16.998-0.999l-0.812-46.746
				c2.081-2.417,6.144-2.542,12.185-0.375c6.036,2.167,11.963,1.928,17.779-0.72C143.396,83.75,145.992,89.009,145.355,102.182z"/>
			<g>
				<path fill="#F7C28D" d="M129.328,92.19l-17.998-6.35l8.977-2.321V67.448c-0.027-1.195,0.367-2.233,1.183-3.108
					c0.876-0.875,1.883-1.327,3.023-1.357c1.256-0.03,2.291,0.366,3.107,1.183c0.848,0.817,1.313,1.823,1.4,3.021l0.789,15.938
					l10.29,2.453L129.328,92.19z"/>
			</g>
			<g>
				<path fill="#F7C28D" d="M123.08,207.79c0.55-1.411,0.524-3.574-0.071-6.495l0.273-0.06l-0.19-1.217
					c-0.132-1.764,0.368-3.313,1.503-4.646c1.055-1.359,2.476-2.146,4.261-2.359c1.762-0.132,3.35,0.385,4.77,1.541
					c1.415,1.155,2.19,2.618,2.321,4.38l0.041,1.306c-0.118,6.877-0.152,15.549-0.108,26.01c-0.042,1.456-0.371,7.026-0.979,16.706
					c-0.326,9.59-0.026,15.713,0.901,18.38c1.006,2.69,2.804,5.802,5.395,9.349c0.65-0.172,1.064-0.102,1.241,0.201
					c0.117,0.204,0.02,0.568-0.291,1.09l2.438,2.984l-1.187,0.071l-1.643,0.337l-3.603-0.577l-0.089-0.152
					c-3.006,0.577-5.273-0.468-6.807-3.118c-0.095-0.286-1.021-2.954-2.778-8.004l-3.196-3.059l0.986-2.715
					c-0.111-0.546,0.081-1.102,0.574-1.657l0.035-0.125l0.953-2.592l-6.263-24.479c-0.659-3.976-0.771-8.065-0.337-12.267
					C121.551,213.167,122.17,210.225,123.08,207.79z"/>
				<path fill="#3B2314" d="M127.65,255.885c0.047,0.164-0.005,0.526-0.155,1.09c0.028,0.793,0.396,1.678,1.104,2.651
					c1.072,1.407,1.999,3.589,2.776,6.546c0.619,2.767,1.584,4.807,2.893,6.123c1.617,1.646,3.342,1.968,5.178,0.984
					c0.985-0.524,1.764-1.176,2.338-1.959l2.181,0.991c1.524,0.741,2.696,1.386,3.516,1.939c1.301,0.892,1.27,1.459-0.092,1.698
					c-1.148,0.449-3.479,0.804-6.998,1.07l-4.877,0.279c-0.602-0.011-1.251-0.185-1.946-0.52c-1.433-0.748-2.384-2.043-2.855-3.894
					c-0.926-3.874-1.931-6.047-3.014-6.518l0.257,10.04l-1.075,0.119l-1.647-13.134l-0.185-0.319
					C123.842,259.55,124.712,257.151,127.65,255.885z"/>
			</g>
			<g>
				<path fill="#F7C28D" d="M94.975,205.63c0.896-1.22,1.432-3.316,1.609-6.295l0.279,0.016l0.132-1.225
					c0.329-1.737,1.214-3.107,2.655-4.104c1.371-1.039,2.946-1.433,4.725-1.176c1.738,0.327,3.141,1.236,4.214,2.722
					c1.066,1.481,1.437,3.093,1.109,4.831l-0.299,1.271c-1.892,6.613-4.168,14.986-6.834,25.103
					c-0.416,1.395-2.174,6.692-5.265,15.893c-2.794,9.176-4.087,15.169-3.884,17.988c0.278,2.854,1.21,6.332,2.798,10.427
					c0.673,0.004,1.053,0.177,1.147,0.52c0.06,0.226-0.129,0.551-0.563,0.972l1.584,3.517l-1.166-0.237l-1.675-0.101l-3.331-1.487
					l-0.046-0.172c-3.052-0.223-4.976-1.813-5.771-4.774c-0.018-0.303-0.225-3.116-0.614-8.45l-2.299-3.781l1.656-2.369
					c0.035-0.557,0.36-1.043,0.984-1.454l0.063-0.109l1.592-2.256l0.279-25.271c0.391-4.016,1.34-7.995,2.847-11.941
					C92.108,210.431,93.464,207.746,94.975,205.63z"/>
				<g id="XMLID_44_">
					<g>
						<path fill="#3B2314" d="M100.815,276.035c1.027,1.197,0.85,1.738-0.524,1.621c-1.225,0.126-3.576-0.13-7.033-0.782
							l-4.791-0.987c-0.572-0.168-1.156-0.504-1.739-1.009c-1.196-1.088-1.779-2.586-1.76-4.494
							c0.107-3.981-0.296-6.344-1.226-7.074l-2.341,9.762l-1.076-0.169l1.808-13.111l-0.098-0.354
							c-0.248-3.715,1.214-5.809,4.376-6.273c0.01,0.168-0.139,0.514-0.436,1.017c-0.179,0.771-0.05,1.719,0.385,2.847
							c0.672,1.641,0.998,3.98,0.988,7.043c-0.117,2.825,0.288,5.048,1.216,6.659c1.127,2.005,2.718,2.767,4.741,2.292
							c1.089-0.256,2.007-0.681,2.768-1.295l1.847,1.521C99.205,274.366,100.164,275.293,100.815,276.035z"/>
					</g>
				</g>
			</g>
			<g>
				<path fill="#893B40" d="M135.231,134.429l5.873,59.87c-15.498,6.873-33.331,6.002-53.495-2.625l21.122-57.808
					C115.979,134.768,124.813,134.954,135.231,134.429z"/>
			</g>
			<path fill="#F7C28D" d="M110.983,61.595l-1.385-6.983c9.535-4.336,17.708-9.853,24.514-16.549
				c1.462,1.994,2.437,4.218,2.925,6.679l1.194,5.788c0.725,3.66,1.257,6.492,1.594,8.494c0.521,3.701,0.354,6.7-0.498,9
				c-0.769,2.1-2.373,4.062-4.811,5.885c-5.504,1.092-10.646,0.332-15.426-2.28C114.476,69.073,111.773,65.731,110.983,61.595z"/>
			<path fill="#F7C28D" d="M109.557,57.608c1.111-0.219,2.144-0.016,3.09,0.62c0.959,0.691,1.548,1.58,1.761,2.663l0.811,4.084
				l-4.041,0.8c-1.17,0.233-2.203,0.011-3.096-0.661c-0.965-0.57-1.564-1.44-1.797-2.611c-0.221-1.115-0.002-2.162,0.654-3.144
				C107.543,58.417,108.415,57.834,109.557,57.608z"/>
			<polygon fill="#F7C28D" points="168.453,114.346 162.914,123.935 147.873,109.487 155.49,101.829 			"/>
			<path fill="#FFEA83" d="M135.124,93.125c0.131-1.633,0.739-3.053,1.827-4.264c1.059-1.223,2.257-1.944,3.592-2.165
				c1.373-0.158,2.469,0.248,3.295,1.214l8.277,9.182c2.412,2.611,5.265,5.52,8.549,8.729l-7.189,9.546
				c-3.107-3.032-6.045-6.029-8.821-8.987l-8.491-9.354C135.346,95.974,134.999,94.673,135.124,93.125z"/>
			<path d="M123.942,55.629c-0.24,0.269-0.539,0.402-0.897,0.402c-0.356,0-0.671-0.133-0.938-0.402
				c-0.238-0.24-0.359-0.538-0.359-0.896c0-0.357,0.121-0.672,0.359-0.939c0.268-0.24,0.582-0.358,0.938-0.358
				c0.358,0,0.657,0.119,0.897,0.358c0.268,0.268,0.402,0.582,0.402,0.939C124.345,55.091,124.21,55.389,123.942,55.629z"/>
			<path d="M136.082,52.179c-0.239,0.268-0.538,0.403-0.896,0.403c-0.358,0-0.672-0.135-0.94-0.403
				c-0.237-0.239-0.356-0.537-0.356-0.895c0-0.357,0.119-0.672,0.356-0.941c0.269-0.239,0.582-0.358,0.94-0.358
				c0.357,0,0.656,0.121,0.896,0.358c0.269,0.27,0.403,0.583,0.403,0.941S136.351,51.939,136.082,52.179z"/>
			<g>
				<path fill="#FFFFFF" d="M136.565,62.863c0.02,2.532-1.77,4.781-4.347,5.224c-2.571,0.446-5.018-1.061-5.852-3.446
					L136.565,62.863z"/>
			</g>
			<polygon fill="#F7C28D" points="100.631,133.541 89.568,133.033 95.479,113.032 105.782,116.273 			"/>
			<path fill="#FFEA83" d="M103.478,88.849l1.688-2.115l0.992-0.577c0.664-0.323,1.324-0.487,1.977-0.499
				c1.371,0.006,2.438,0.61,3.198,1.808c0.647,0.863,1.062,1.989,1.243,3.378c0.039,0.653,0.04,1.134-0.004,1.449l-0.237,0.669
				L112,93.546l0.879,0.467c-0.572,0.846,0.451,1.337,0.095,2.107c-1.117,2.032-2.258,4.939-3.419,8.719
				c-0.877,2.891-1.731,6.122-2.565,9.695l-1.067,4.506l-12.359-1.529l1.067-4.553c0.757-3.286,1.66-6.723,2.712-10.309
				c1.125-3.841,2.48-7.306,4.06-10.396C102.157,90.865,102.849,89.731,103.478,88.849z"/>
			<g>
				<g>
					<path fill="#F7C28D" d="M194.032,97.515l-1.688,2.268c-4.817,5.948-7.747,10.522-13.848,17.078l-5.651,6.211
						c-4.56,4.926-8.829,4.207-12.812-2.158c3.888-3.883,7.432-7.716,10.637-11.505c7.196-7.674,7.291-6.985,17.975-16.829
						L194.032,97.515z"/>
				</g>
				<path fill="#F7C28D" d="M203.91,99.585c-0.198,3.209-0.363,1.775-4.114,2.722L190.758,102c-3.211-0.197-7.979,0.399-7.78-2.809
					l0.847-1.47c0.198-3.208,2.541-6.283,5.749-6.085l8.467,1.142c3.384,1.571,7.911,2.605,7.715,5.814L203.91,99.585z"/>
				<path fill="#F7C28D" d="M191.08,93.761c-0.595,0.916-1.818,1.173-2.733,0.58l0,0c-0.916-0.594-2.441-0.98-1.846-1.896
					l4.207-5.367c0.596-0.915,1.819-1.175,2.735-0.581l0,0c0.915,0.595,1.174,1.819,0.581,2.734L191.08,93.761z"/>
				<path fill="#F7C28D" d="M194.887,95.285c-1.323,0.398-2.505-0.042-2.645-0.983l0,0c-0.139-0.939-0.942-2.037,0.382-2.436
					l6.825-0.067c1.32-0.398,6.292,0.266,6.433,1.206l0,0c-0.104,0.854-0.822,1.015-1.298,0.954L194.887,95.285z"/>
			</g>
			<g>
				<g>
					<path fill="#F7C28D" d="M130.817,134.297l-2.721,0.771c-7.442,1.789-12.553,3.632-21.384,5.12l-8.263,1.487
						c-6.616,1.134-9.566-2.036-8.852-9.51c5.448-0.715,10.594-1.598,15.443-2.654c10.381-1.707,10.036-1.103,24.504-2.411
						L130.817,134.297z"/>
				</g>
				<path fill="#F7C28D" d="M146.461,131.021c0.09,3.214-0.202,1.802-3.855,3.078l-9.028,0.499c-3.215,0.09-7.912,1.111-8-2.104
					l0.712-1.54c-0.09-3.215,1.972-6.485,5.186-6.573l6.385-0.371c3.729,0.682,9.772,0.622,9.862,3.835L146.461,131.021z"/>
				<path fill="#F7C28D" d="M133.164,126.363c-0.511,0.966-1.707,1.332-2.672,0.822l0,0c-0.964-0.509-2.518-0.759-2.008-1.725
					l3.713-5.72c0.512-0.964,1.707-1.333,2.674-0.822l0,0c0.964,0.512,1.33,1.708,0.822,2.671L133.164,126.363z"/>
			</g>
		</g>
	</g>
	<g>
		<g>
			<path fill="#141818" d="M200.182,430.771c0,1.312-1.07,2.379-2.387,2.379h-38.036c-1.32,0-2.387-1.067-2.387-2.379l0,0
				c0-1.311,1.066-2.372,2.387-2.372h38.036C199.111,428.399,200.182,429.461,200.182,430.771L200.182,430.771z"/>
			<polygon fill="#141818" points="198.985,433.007 194.284,431.852 202.278,399.573 205.002,400.236 			"/>
		</g>
		<g>
			<path fill="#F7C28D" d="M144.267,421.61c0,4.499,3.192,8.151,7.135,8.151c3.949,0,7.146-3.652,7.146-8.151
				c0-4.503-3.197-8.155-7.146-8.155C147.459,413.455,144.267,417.107,144.267,421.61z"/>
			<g>
				<path fill="#94A7AE" d="M50.994,447.615c12.686,4.792,25.374,9.586,38.058,14.379c8.98,3.392,13.545-10.759,4.609-14.141
					c-12.685-4.791-25.374-9.581-38.06-14.377C46.62,430.082,42.053,444.237,50.994,447.615L50.994,447.615z"/>
			</g>
			<g>
				<line fill="#028BC0" x1="112.998" y1="387.934" x2="138.127" y2="428.906"/>
				<g>
					<path fill="#94A7AE" d="M106.576,391.684c8.378,13.661,16.754,27.316,25.132,40.972c5.004,8.158,17.864,0.693,12.837-7.506
						c-8.377-13.652-16.753-27.314-25.127-40.965C114.412,376.023,101.549,383.49,106.576,391.684L106.576,391.684z"/>
				</g>
			</g>
			<g>
				<path fill="#94A7AE" d="M138.806,439.646c5.521-2.435,11.043-4.873,16.566-7.305c5.017-2.215,0.043-16.231-4.994-14.009
					c-5.522,2.436-11.045,4.869-16.566,7.307C128.795,427.853,133.766,441.869,138.806,439.646L138.806,439.646z"/>
			</g>
			<path fill="#675E52" d="M64.263,509.792c-0.011-3.128-2.583-5.66-5.755-5.655l0,0c-3.174,0.01-5.747,2.55-5.737,5.683
				l-1.678,39.86c0.01,3.127,2.586,5.656,5.762,5.649l0,0c3.17-0.005,5.741-2.546,5.733-5.671L64.263,509.792z"/>
			<path fill="#675E52" d="M48.213,543.928l1.489-83.283c-0.013-3.049,3.612-5.519,8.102-5.525l3.602-0.004
				c4.485-0.006,8.129,2.453,8.138,5.5l-1.486,83.286L48.213,543.928z"/>
			<polygon fill="#675E52" points="68.044,537.69 48.199,537.735 48.198,535.427 68.04,535.375 			"/>
			<path d="M61.592,546.203H46.194c-0.306,2.68-2.704,4.771-5.624,4.771l0.089,10.597h26.587v-10.019
				C67.246,548.597,64.718,546.203,61.592,546.203z"/>
			<path d="M49.506,561.57v-3.761c0-3.776-3.241-6.836-7.23-6.836h-3.239c-3.99,0-7.226,3.06-7.226,6.836v3.761H49.506z"/>
			<path d="M67.188,550.976c0.021,0.196,0.059,0.383,0.059,0.576v10.019h-7.243v-3.761
				C60.003,554.046,63.218,550.996,67.188,550.976z"/>
			<path fill="#675E52" d="M56.447,546.563v-1.229c0-1.753-1.504-3.175-3.358-3.175h-3.536c-1.854,0-3.355,1.422-3.355,3.175v1.229
				H56.447z"/>
			<rect x="31.811" y="558.024" width="35.436" height="3.546"/>
			<polyline fill="#94A7AE" points="118.165,392.161 114.49,381.21 89.246,373.208 65.165,381.494 61.756,387.934 70.075,458.768 
				110.149,454.95 111.81,426.042 			"/>
			<g>
				<path fill="#F5F5F5" d="M89.924,353.128c-0.481,3.021-2.926,5.314-5.878,5.293c-2.95-0.021-5.367-2.338-5.819-5.36
					L89.924,353.128z"/>
			</g>
			<path fill="#675E52" d="M96.902,509.102c-0.145-3.111-2.817-5.533-5.986-5.41l0,0c-3.173,0.123-5.639,2.759-5.487,5.876
				c0.6,13.245-0.492,26.486,0.308,39.736c0.187,3.126,2.91,5.507,6.08,5.331l0,0c3.165-0.18,5.575-2.837,5.383-5.945
				C96.413,535.505,97.507,522.306,96.902,509.102z"/>
			<path fill="#675E52" d="M79.333,543.878c-2.28-27.736-1.876-55.415-2.89-83.125c-0.105-3.039,3.473-5.556,7.977-5.611
				l3.631-0.048c4.502-0.056,13.431,5.561,13.431,5.561l-2.229,82.521L79.333,543.878z"/>
			<polygon fill="#675E52" points="98.948,536.557 79.028,537.66 78.916,535.348 98.833,534.266 			"/>
			<path d="M95.937,546.2H80.539c-0.305,2.683-2.709,4.769-5.622,4.769l0.09,10.601h26.587v-10.019
				C101.594,548.597,99.061,546.2,95.937,546.2z"/>
			<path d="M83.846,561.569v-3.762c0-3.777-3.232-6.839-7.225-6.839h-3.232c-3.999,0-7.232,3.062-7.232,6.839v3.762H83.846z"/>
			<path d="M101.534,550.976c0.018,0.195,0.06,0.38,0.06,0.575v10.019H94.35v-3.762C94.35,554.046,97.563,550.996,101.534,550.976z"
				/>
			<path fill="#675E52" d="M90.791,546.559v-1.227c0-1.751-1.504-3.173-3.351-3.173h-3.545c-1.849,0-3.348,1.422-3.348,3.173v1.227
				H90.791z"/>
			<rect x="66.156" y="558.024" width="35.438" height="3.545"/>
			<path fill="#675E52" d="M110.297,470.314c-0.006,6.619-6.176,11.982-13.794,11.982H81.414c-7.614,0-13.863,0.741-13.781-11.982
				c0.068-12.727,5.203-19.125,5.203-19.125h37.461V470.314z"/>
			<path fill="#675E52" d="M110.742,464.221c0,11.402-8.206,24.615-29.876,21.233c-18.409-2.867-33.56-8.912-33.56-20.314
				c0-11.398,15.023-15.117,33.555-15.117C99.394,450.022,110.742,452.822,110.742,464.221z"/>
			<g>
				<line fill="#94A7AE" x1="66.265" y1="387.491" x2="55.132" y2="438.543"/>
				<g>
					<path fill="#94A7AE" d="M58.863,386.756c-3.705,17.021-7.42,34.033-11.13,51.05c-2.045,9.367,12.779,10.729,14.798,1.467
						c3.71-17.016,7.419-34.036,11.129-51.05C75.703,378.857,60.887,377.495,58.863,386.756L58.863,386.756z"/>
				</g>
			</g>
			<g>
				<g>
					<path fill="#F7C28D" d="M90.646,351.862c-3.059,0-5.541,2.483-5.541,5.545v18.548l8.829,5.539l2.254-5.539v-18.548
						C96.188,354.346,93.706,351.862,90.646,351.862z"/>
				</g>
			</g>
			<g>
				<g>
					<g>
						<path fill="#F7C28D" d="M109.695,342.779c2.742,0,4.969,2.308,4.969,5.152c0,2.853-2.227,5.162-4.969,5.162h-8.076
							l0.296-10.314H109.695z"/>
					</g>
				</g>
			</g>
			<g>
				<g>
					<g>
						<path fill="#F7C28D" d="M73.858,341.246c-2.818,0-5.107,2.309-5.107,5.153c0,2.853,2.289,5.163,5.107,5.163h8.299
							l-0.306-10.316H73.858z"/>
					</g>
				</g>
			</g>
			<path d="M110.815,325.274v3.113c0.005,0.041,0.015,0.077,0.016,0.118v14.312h-1.975v3.682c0,1.698-1.322,3.075-2.954,3.075
				c-1.63,0-2.95-1.377-2.95-3.075v-2.218c-0.394-2.312-2.336-4.071-4.678-4.071v-6.078c-0.398-2.307-2.33-4.062-4.67-4.063v-0.036
				H73.354c-3.254,0-5.931-2.576-6.252-5.88h8.115l2.227-8.816h19.37c4.62,0,8.712,2.313,11.281,5.881L110.815,325.274z"/>
			<rect x="75.659" y="326.504" width="16.13" height="3.564"/>
			<path d="M110.893,323.491c0-7.421-5.787-13.44-12.922-13.44H86.017c-7.135,0-12.922,6.02-12.922,13.44v6.577h2.989v-2.471
				c0-3.864,3.014-6.996,6.736-6.996h1.808c3.722,0,6.737,3.132,6.737,6.996v2.471h19.527V323.491z"/>
			<line fill="none" stroke="#020304" stroke-width="1.3653" x1="110.176" y1="326.68" x2="92.708" y2="326.68"/>
			<path d="M76.349,326.311c-3.599-2.158-4.974-6.775-3.299-10.634l8.954,5.372L76.349,326.311z"/>
			<path fill="#B9C9CD" d="M101.548,378.16c-5.516,4.597-15.321,5.209-20.838-0.919c0,0,2.451-4.904,2.758-4.597
				c7.048,4.289,11.338,2.451,16.241,0C100.017,372.645,102.16,377.854,101.548,378.16z"/>
			<path fill="#F7C28D" d="M73.368,328.786v24.078c0.497,5.789,3.143,11.122,7.098,14.771c0.593,0.127,9.479,0.001,9.611,0.001
				c9.825,0,17.792-8.281,17.792-18.494v-20.355H73.368z"/>
			<path d="M73.663,323.883l0.885,24.079c0.497,5.787,5.815,12.44,8.652,13.65c0.56,0.237,9.694,1.12,9.826,1.12
				c9.825,0,17.792-8.281,17.792-18.495v-20.354H73.663z"/>
		</g>
		<g>
			<rect x="123.81" y="460.903" fill="#004352" width="8.151" height="97.785"/>
			<rect x="457.345" y="460.903" fill="#004352" width="8.149" height="97.785"/>
			<rect x="123.748" y="439.6" fill="#004352" width="341.746" height="28.835"/>
			<rect x="123.748" y="441.882" fill="#08171D" width="341.746" height="1.026"/>
			<g>
				<path fill="#004352" d="M120,440.831h346.971c1.223,0,2.223-0.229,2.223-0.502v-7.986c0-0.282-1-0.508-2.223-0.508H120
					c-1.226,0-2.228,0.226-2.228,0.508v7.986C117.772,440.602,118.774,440.831,120,440.831z"/>
				<path fill="#004352" d="M117.712,440.329v-7.986c0-0.283,1.026-0.519,2.288-0.519h346.971c1.265,0,2.285,0.235,2.285,0.519
					v7.986c0,0.285-1.021,0.513-2.285,0.513H120C118.738,440.842,117.712,440.614,117.712,440.329z M120,431.848
					c-1.198,0-2.176,0.226-2.176,0.495v7.986c0,0.268,0.978,0.494,2.176,0.494h346.971c1.193,0,2.166-0.227,2.166-0.494v-7.986
					c0-0.27-0.973-0.495-2.166-0.495H120z"/>
			</g>
			<polygon fill="#004352" points="136.249,444.3 131.835,444.3 131.835,451.521 131.835,466.799 136.249,466.799 294.589,466.799 
				294.589,451.521 294.589,444.3 			"/>
			<g>
				<g>
					<polygon fill="none" stroke="#242121" stroke-width="0.6986" stroke-miterlimit="10" points="139.197,446.457 137.195,446.457 
						137.195,452.208 137.195,464.371 139.197,464.371 210.99,464.371 210.99,452.208 210.99,446.457 					"/>
					<g>
						<g>
							<rect x="168.639" y="453.384" fill="#E0E0E0" width="10.278" height="1.866"/>
							<rect x="168.639" y="452.459" fill="#F4F7F6" width="10.278" height="1.858"/>
						</g>
						<path fill="#706B64" d="M178.868,452.202v3.299c0.724-0.021,1.309-0.749,1.309-1.648
							C180.177,452.952,179.592,452.22,178.868,452.202z"/>
						<path fill="#706B64" d="M169.224,452.202v3.299c-0.726-0.021-1.31-0.749-1.31-1.648
							C167.914,452.952,168.498,452.22,169.224,452.202z"/>
						<path fill="#706B64" d="M180.79,453.853c0,0.131-0.087,0.233-0.19,0.233h-0.661c-0.099,0-0.189-0.103-0.189-0.233l0,0
							c0-0.127,0.091-0.229,0.189-0.229h0.661C180.703,453.623,180.79,453.726,180.79,453.853L180.79,453.853z"/>
						<path fill="#706B64" d="M168.432,453.853c0,0.131-0.077,0.233-0.184,0.233h-0.663c-0.108,0-0.188-0.103-0.188-0.233l0,0
							c0-0.127,0.079-0.229,0.188-0.229h0.663C168.354,453.623,168.432,453.726,168.432,453.853L168.432,453.853z"/>
					</g>
				</g>
				<g>
					<polygon fill="none" stroke="#242121" stroke-width="0.6986" stroke-miterlimit="10" points="217.436,446.457 215.433,446.457 
						215.433,452.208 215.433,464.371 217.436,464.371 289.229,464.371 289.229,452.208 289.229,446.457 					"/>
					<g>
						<g>
							<rect x="246.877" y="453.384" fill="#E0E0E0" width="10.278" height="1.866"/>
							<rect x="246.877" y="452.459" fill="#F4F7F6" width="10.278" height="1.858"/>
						</g>
						<path fill="#706B64" d="M257.105,452.202v3.299c0.729-0.021,1.31-0.749,1.31-1.648
							C258.415,452.952,257.834,452.22,257.105,452.202z"/>
						<path fill="#706B64" d="M247.462,452.202v3.299c-0.73-0.021-1.31-0.749-1.31-1.648
							C246.152,452.952,246.731,452.22,247.462,452.202z"/>
						<path fill="#706B64" d="M259.027,453.853c0,0.131-0.086,0.233-0.189,0.233h-0.66c-0.102,0-0.189-0.103-0.189-0.233l0,0
							c0-0.127,0.088-0.229,0.189-0.229h0.66C258.941,453.623,259.027,453.726,259.027,453.853L259.027,453.853z"/>
						<path fill="#706B64" d="M246.669,453.853c0,0.131-0.076,0.233-0.184,0.233h-0.663c-0.111,0-0.188-0.103-0.188-0.233l0,0
							c0-0.127,0.077-0.229,0.188-0.229h0.663C246.593,453.623,246.669,453.726,246.669,453.853L246.669,453.853z"/>
					</g>
				</g>
			</g>
			<polygon fill="#004352" points="299.008,444.3 294.589,444.3 294.589,451.521 294.589,466.799 299.008,466.799 457.345,466.799 
				457.345,451.521 457.345,444.3 			"/>
			<g>
				<g>
					<polygon fill="none" stroke="#242121" stroke-width="0.6986" stroke-miterlimit="10" points="301.951,446.457 299.947,446.457 
						299.947,452.208 299.947,464.371 301.951,464.371 373.745,464.371 373.745,452.208 373.745,446.457 					"/>
					<g>
						<g>
							<rect x="331.396" y="453.384" fill="#E0E0E0" width="10.276" height="1.866"/>
							<rect x="331.396" y="452.459" fill="#F4F7F6" width="10.276" height="1.858"/>
						</g>
						<path fill="#706B64" d="M341.623,452.202v3.299c0.724-0.021,1.309-0.749,1.309-1.648
							C342.932,452.952,342.347,452.22,341.623,452.202z"/>
						<path fill="#706B64" d="M331.978,452.202v3.299c-0.729-0.021-1.306-0.749-1.306-1.648
							C330.672,452.952,331.248,452.22,331.978,452.202z"/>
						<path fill="#706B64" d="M343.548,453.853c0,0.131-0.089,0.233-0.188,0.233h-0.667c-0.099,0-0.188-0.103-0.188-0.233l0,0
							c0-0.127,0.089-0.229,0.188-0.229h0.667C343.459,453.623,343.548,453.726,343.548,453.853L343.548,453.853z"/>
						<path fill="#706B64" d="M331.186,453.853c0,0.131-0.075,0.233-0.186,0.233h-0.656c-0.113,0-0.194-0.103-0.194-0.233l0,0
							c0-0.127,0.081-0.229,0.194-0.229H331C331.11,453.623,331.186,453.726,331.186,453.853L331.186,453.853z"/>
					</g>
				</g>
				<g>
					<polygon fill="none" stroke="#242121" stroke-width="0.6986" stroke-miterlimit="10" points="380.186,446.457 378.188,446.457 
						378.188,452.208 378.188,464.371 380.186,464.371 451.988,464.371 451.988,452.208 451.988,446.457 					"/>
					<g>
						<g>
							<rect x="409.638" y="453.384" fill="#E0E0E0" width="10.272" height="1.866"/>
							<rect x="409.638" y="452.459" fill="#F4F7F6" width="10.272" height="1.858"/>
						</g>
						<path fill="#706B64" d="M419.855,452.202v3.299c0.733-0.021,1.315-0.749,1.315-1.648
							C421.171,452.952,420.589,452.22,419.855,452.202z"/>
						<path fill="#706B64" d="M410.223,452.202v3.299c-0.729-0.021-1.316-0.749-1.316-1.648
							C408.906,452.952,409.493,452.22,410.223,452.202z"/>
						<path fill="#706B64" d="M421.788,453.853c0,0.131-0.086,0.233-0.195,0.233h-0.661c-0.104,0-0.188-0.103-0.188-0.233l0,0
							c0-0.127,0.084-0.229,0.188-0.229h0.661C421.702,453.623,421.788,453.726,421.788,453.853L421.788,453.853z"/>
						<path fill="#706B64" d="M409.428,453.853c0,0.131-0.085,0.233-0.188,0.233h-0.661c-0.108,0-0.194-0.103-0.194-0.233l0,0
							c0-0.127,0.086-0.229,0.194-0.229h0.661C409.343,453.623,409.428,453.726,409.428,453.853L409.428,453.853z"/>
					</g>
				</g>
			</g>
		</g>
		<polygon fill="#FFFFFF" stroke="#231F20" stroke-width="0.0886" stroke-miterlimit="10" points="259.569,428.773 230.271,429.625 
			252.188,435.118 281.49,434.269 		"/>
		<polygon fill="#FFFFFF" stroke="#231F20" stroke-width="0.0886" stroke-miterlimit="10" points="238.868,429.336 209.563,430.19 
			231.48,435.683 260.785,434.829 		"/>
		<g>
			<path fill="#5A6D77" d="M41.479,563.385c-0.284-3.478-3.19-6.216-6.74-6.216c-3.551,0-6.463,2.738-6.74,6.216H41.479z"/>
			<g>
				<rect x="40.551" y="490.091" fill="#5A6D77" width="75.91" height="4.736"/>
				<path fill="#3A8399" d="M120.041,486.146c0,2.178-2.036,3.945-4.552,3.945H40.807c-2.514,0-4.551-1.768-4.551-3.945l0,0
					c0-2.179,2.037-3.943,4.551-3.943h74.683C118.005,482.202,120.041,483.967,120.041,486.146L120.041,486.146z"/>
				<path fill="#5A6D77" d="M38.856,560.575c-0.227,1.462-1.593,2.466-3.058,2.238l0,0c-1.464-0.225-2.462-1.592-2.236-3.057
					l10.033-65.028c0.226-1.463,1.593-2.464,3.057-2.237l0,0c1.458,0.224,2.46,1.591,2.236,3.052L38.856,560.575z"/>
				<path fill="#5A6D77" d="M116.241,560.575c0.224,1.462,1.587,2.466,3.05,2.238l0,0c1.466-0.225,2.467-1.592,2.237-3.057
					L111.5,494.729c-0.225-1.463-1.592-2.464-3.056-2.237l0,0c-1.458,0.224-2.46,1.591-2.235,3.052L116.241,560.575z"/>
			</g>
			<path fill="#5A6D77" d="M112.921,563.385c0.279-3.478,3.187-6.216,6.734-6.216c3.551,0,6.462,2.738,6.736,6.216H112.921z"/>
			<path fill="#3A8399" d="M110.659,395.356H77.591h-0.085H44.434c-4.226,0-7.648,3.131-7.648,6.998l9.654,72.725
				c0,3.861,3.425,6.991,7.649,6.991h23.417h0.085h23.417c4.224,0,7.65-3.13,7.65-6.991l9.652-72.725
				C118.311,398.487,114.884,395.356,110.659,395.356z"/>
		</g>
		<g>
			<ellipse fill="#26383A" cx="403.71" cy="465.585" rx="25.855" ry="17.371"/>
			<rect x="379.203" y="457.334" fill="#26383A" width="22.034" height="84.774"/>
			<rect x="406.634" y="457.334" fill="#26383A" width="22.033" height="84.774"/>
			<rect x="412.76" y="548.221" fill="#4D3A29" width="14.473" height="17.329"/>
			<path fill="#4D3A29" d="M410.422,565.377h19.152c0-6.244-4.289-11.3-9.572-11.3C414.71,554.077,410.422,559.133,410.422,565.377z
				"/>
			<path fill="#4D3A29" d="M412.795,569.98h14.407c1.31,0,2.372-1.252,2.372-2.799v-1.805h-19.152v1.805
				C410.422,568.729,411.482,569.98,412.795,569.98z"/>
			<rect x="382.672" y="548.221" fill="#4D3A29" width="14.477" height="17.329"/>
			<path fill="#4D3A29" d="M380.33,565.377h19.156c0-6.244-4.287-11.3-9.579-11.3C384.62,554.077,380.33,559.133,380.33,565.377z"/>
			<path fill="#4D3A29" d="M382.706,569.98h14.41c1.313,0,2.37-1.252,2.37-2.799v-1.805H380.33v1.805
				C380.33,568.729,381.397,569.98,382.706,569.98z"/>
			<path fill="#55787B" d="M413.336,549.532h13.322c1.345,0,2.438-1.283,2.438-2.869v-1.741c0-1.584-1.093-2.873-2.438-2.873
				h-13.322c-1.34,0-2.434,1.289-2.434,2.873v1.741C410.902,548.249,411.996,549.532,413.336,549.532z"/>
			<path fill="#55787B" d="M383.25,549.532h13.324c1.346,0,2.43-1.283,2.43-2.869v-1.741c0-1.584-1.084-2.873-2.43-2.873H383.25
				c-1.343,0-2.438,1.289-2.438,2.873v1.741C380.812,548.249,381.907,549.532,383.25,549.532z"/>
			<path fill="#6D6D72" d="M369.668,407.934v0.581h11.224v50.694h47.229v10.835l11.223-2.758v-59.353h-0.027
				c-0.377-9.242-4.611-17.529-11.195-23.396c-1.743-1.553-3.651-2.931-5.691-4.112c-0.577-0.337-1.162-0.655-1.761-0.955
				c-0.004-0.009-0.013-0.009-0.013-0.015c-0.409-0.201-0.817-0.4-1.237-0.589c-0.225-0.107-0.453-0.208-0.685-0.307
				c-0.461-0.203-0.918-0.393-1.386-0.573c-3.975-1.515-8.307-2.359-12.841-2.359c-4.996,0-9.747,1.02-14.041,2.849
				c-0.426,0.175-0.842,0.365-1.257,0.564c-0.193,0.091-0.385,0.188-0.58,0.282c-0.127,0.06-0.247,0.12-0.371,0.187
				c-0.235,0.12-0.474,0.242-0.705,0.369c-0.05,0.028-0.094,0.051-0.141,0.078c-0.286,0.152-0.559,0.307-0.835,0.469
				c-2.038,1.188-3.945,2.564-5.686,4.117l0,0c-6.59,5.864-10.821,14.149-11.198,23.392H369.668z"/>
			<path fill="#FCC88A" d="M393.896,363.168v14.563c0.326,2.729,4.983,4.89,10.672,4.89c4.653,0,8.616-1.446,10.087-3.462
				c0.277-0.387,0.458-0.894,0.462-1.433v-14.558H393.896z"/>
			<path fill="#804B26" d="M417.841,314.776v23.568h6.362v-17.423c0-1.697-0.711-3.234-1.865-4.343
				c-0.046-0.049-0.098-0.095-0.14-0.142c-0.102-0.081-0.202-0.169-0.306-0.252c-0.035-0.031-0.07-0.061-0.108-0.085
				C420.699,315.272,419.332,314.776,417.841,314.776z"/>
			<path fill="#804B26" d="M384.776,320.922v17.423h6.359v-23.568c-1.487,0-2.857,0.496-3.941,1.324
				c-0.129,0.1-0.259,0.208-0.381,0.315c-0.056,0.047-0.12,0.104-0.181,0.163C385.488,317.688,384.776,319.225,384.776,320.922z"/>
			<path fill="#804B26" d="M387.779,316.101v38.067c0,8.925,7.483,16.156,16.728,16.156c9.236,0,16.724-7.231,16.724-16.156v-38.067
				H387.779z"/>
			<path fill="#FCC88A" d="M420.851,338.657v12.28c0,1.79-1.499,3.23-3.345,3.23h-2.719c-0.924,0-1.759-0.362-2.362-0.945
				c-0.611-0.585-0.98-1.393-0.98-2.285c0-1.492-1.04-2.741-2.467-3.115c-0.063,0.145-0.163,0.274-0.285,0.38
				c-0.236,0.2-0.558,0.322-0.907,0.322h-1.08c-0.182,0.915-1.095,1.604-2.198,1.61c-1.108-0.006-2.022-0.695-2.202-1.61h-1.076
				c-0.354,0-0.668-0.122-0.905-0.322c-0.124-0.105-0.223-0.235-0.29-0.38c-0.574,0.147-1.083,0.438-1.485,0.831
				c-0.608,0.585-0.983,1.393-0.983,2.284c0,1.779-1.496,3.23-3.343,3.23h-2.716c-1.847,0-3.345-1.44-3.345-3.23v-13.05
				c-0.374-0.188-0.658-0.545-0.685-1.075c-0.198,0.116-0.42,0.205-0.663,0.267v16.839c0,4.563,1.838,8.854,5.182,12.081
				c3.345,3.227,7.782,5.004,12.512,5.004c4.726,0,9.167-1.777,12.506-5.004c3.349-3.227,5.186-7.519,5.186-12.081v-16.723
				C421.876,337.664,421.434,338.137,420.851,338.657z"/>
			<path fill="#804B26" d="M387.194,310.125h0.967v13.227c0,2.961,0,6.079,0,9.018c0,5.728,0,10.764,0,12.592
				c0,1.791,1.498,3.23,3.345,3.23h2.716c1.847,0,3.343-1.45,3.343-3.23c0-0.891,0.375-1.698,0.983-2.283
				c0.402-0.393,0.911-0.684,1.485-0.832c0.067,0.145,0.166,0.275,0.29,0.381c0.237,0.2,0.552,0.322,0.905,0.322h1.076
				c0.18,0.915,1.094,1.604,2.202,1.61c1.104-0.006,2.017-0.695,2.198-1.61h1.08c0.35,0,0.671-0.122,0.907-0.322
				c0.122-0.105,0.222-0.236,0.285-0.381c1.427,0.375,2.467,1.623,2.467,3.115c0,0.893,0.369,1.701,0.98,2.286
				c0.604,0.583,1.438,0.944,2.362,0.944h2.719c1.846,0,3.345-1.439,3.345-3.23c0-1.828,0-6.864,0-12.592
				c0.002-5.345,0.002-11.289,0.002-15.8v8.265l1.04-4.596c0,0.024,0,1.893,0,1.922c0.104,0.084,0.204,0.172,0.306,0.254v25.528
				c0,4.563-1.837,8.854-5.186,12.081c-3.339,3.227-7.78,5.004-12.506,5.004c-4.729,0-9.167-1.777-12.512-5.004
				c-3.344-3.228-5.182-7.519-5.182-12.081v-37.501C386.936,310.333,387.065,310.225,387.194,310.125z"/>
			<path fill="#FCC88A" d="M386.815,337.829L386.815,337.829v10.739l0,0c-2.235,0-4.047-1.748-4.047-3.903v-2.927
				C382.769,339.578,384.58,337.829,386.815,337.829z"/>
			<path fill="#FCC88A" d="M422.198,337.829L422.198,337.829v10.739l0,0c2.235,0,4.046-1.748,4.046-3.903v-2.927
				C426.244,339.578,424.434,337.829,422.198,337.829z"/>
			<path fill="#804B26" d="M417.48,317.616c0,5.032,1.501,9.454,3.75,11.944v-13.46h-3.7C417.498,316.6,417.48,317.1,417.48,317.616
				z"/>
			<path fill="#804B26" d="M391.704,317.616c0,5.032-1.499,9.454-3.749,11.944v-13.46h3.708
				C391.688,316.6,391.704,317.1,391.704,317.616z"/>
			<path fill="#804B26" d="M385.637,307.783h27.848c3.551,0,6.427,2.777,6.427,6.203v4.762h-30.914c-3.215,0-5.829-2.52-5.829-5.629
				v-2.951C383.168,308.846,384.271,307.783,385.637,307.783z"/>
			<path fill="#804B26" d="M386.517,316.762c0,3.652,7.427,6.616,16.582,6.616c9.166,0,16.591-2.964,16.591-6.616
				c0-3.654-7.425-6.617-16.591-6.617C393.943,310.145,386.517,313.107,386.517,316.762z"/>
			<path fill="#F8A66B" d="M428.12,468.205v18.624l0,0c6.196,0,11.223-1.328,11.223-2.975v-15.649H428.12z"/>
			<polygon fill="#6D6D72" points="403.914,400.3 403.914,400.3 415.624,378 393.408,378 			"/>
			<rect x="428" y="465" fill="#AEAEAF" width="12" height="8"/>
			<rect x="380.553" y="457.769" fill="#26383A" width="48.114" height="27.358"/>
			<rect x="391.911" y="372.95" fill="#AEAEAF" width="24.823" height="8.274"/>
			<path fill="#F7C28D" d="M348.324,421.415c-0.891,4.408-5.175,7.271-9.57,6.382c-4.4-0.89-7.243-5.189-6.353-9.6
				c0.893-4.415,5.181-7.274,9.583-6.384C346.379,412.701,349.216,417,348.324,421.415z"/>
			<g>
				<line fill="#6D6D72" x1="386.572" y1="391.674" x2="356.661" y2="433.654"/>
				<g>
					<path fill="#6D6D72" d="M394.685,395.158c-9.974,13.997-19.942,27.987-29.916,41.981c-5.954,8.356-22.201,1.424-16.216-6.979
						c9.973-13.987,19.942-27.986,29.91-41.972C384.42,379.828,400.669,386.764,394.685,395.158L394.685,395.158z"/>
				</g>
			</g>
			<g>
				<path fill="#6D6D72" d="M351.245,440.055c-5.661-3.545-11.322-7.094-16.986-10.637c-5.144-3.223,4.259-17.026,9.423-13.79
					c5.661,3.546,11.323,7.091,16.986,10.637C365.812,429.488,356.412,443.291,351.245,440.055L351.245,440.055z"/>
			</g>
		</g>
		<g>
			<path fill="#5A6D77" d="M370.45,565.121c-0.278-3.478-3.186-6.214-6.741-6.214c-3.548,0-6.455,2.736-6.733,6.214H370.45z"/>
			<g>
				<rect x="369.527" y="491.827" fill="#5A6D77" width="75.911" height="4.736"/>
				<path fill="#3A8399" d="M449.021,487.882c0,2.178-2.043,3.945-4.554,3.945h-74.682c-2.515,0-4.553-1.768-4.553-3.945l0,0
					c0-2.179,2.038-3.943,4.553-3.943h74.682C446.978,483.938,449.021,485.703,449.021,487.882L449.021,487.882z"/>
				<path fill="#5A6D77" d="M367.834,562.312c-0.226,1.463-1.594,2.467-3.057,2.239l0,0c-1.458-0.226-2.461-1.594-2.236-3.057
					l10.032-65.029c0.226-1.462,1.592-2.464,3.052-2.237l0,0c1.465,0.224,2.467,1.593,2.241,3.053L367.834,562.312z"/>
				<path fill="#5A6D77" d="M445.213,562.312c0.226,1.463,1.594,2.467,3.057,2.239l0,0c1.462-0.226,2.465-1.594,2.236-3.057
					l-10.027-65.029c-0.225-1.462-1.598-2.464-3.057-2.237l0,0c-1.458,0.224-2.467,1.593-2.24,3.053L445.213,562.312z"/>
			</g>
			<path fill="#5A6D77" d="M441.894,565.121c0.279-3.478,3.19-6.214,6.741-6.214c3.546,0,6.455,2.736,6.741,6.214H441.894z"/>
			<path fill="#3A8399" d="M439.637,397.094h-33.075h-0.079h-33.073c-4.219,0-7.65,3.131-7.65,6.999l9.651,72.723
				c0,3.862,3.426,6.992,7.651,6.992h23.421h0.079h23.422c4.227,0,7.652-3.13,7.652-6.992l9.651-72.723
				C447.287,400.225,443.855,397.094,439.637,397.094z"/>
		</g>
		<g>
			<path fill="#F9AC8D" d="M312.555,415.599c0,5.019-3.584,9.091-8.002,9.091c-4.412,0-7.994-4.072-7.994-9.091
				c0-5.022,3.582-9.086,7.994-9.086C308.971,406.513,312.555,410.576,312.555,415.599z"/>
			<path fill="#FFF8A4" d="M230.768,378.436l15.516,1.838c5.1,0,9.23-6.423,9.23-12.082v-36.857h-24.746V378.436z"/>
			<path d="M215.027,474.553c-0.501-1.433-0.23-3.669,0.608-4.967l1.622-2.5c0.834-1.294,3.135-9.23,3.135-9.23l7.226,1.985
				c0,0,0.244,2.907,0.447,7.466c0.066,1.518-0.073,3.765-0.901,5.057l-0.329,0.511c-0.83,1.298-1.782,3.577-2.12,5.063
				L215.027,474.553z"/>
			<g>
				<path fill="#6B8931" d="M236.676,463.012c0,0,1.126-16.963,1.918-33.977c0.83-17.004,1.357-34.037,1.357-34.037
					c0.217-7.104-2.487-13.157-6.018-13.528c-3.541-0.374-6.568,4.944-6.782,11.854c0,0-0.516,16.663-1.321,33.241
					c-0.777,16.603-1.871,33.096-1.871,33.096L236.676,463.012z"/>
			</g>
			<path d="M230.537,515.766c-0.005-3.061-2.51-5.533-5.596-5.522l0,0c-3.087,0.004-5.582,2.487-5.57,5.548l-1.633,38.922
				c0.01,3.056,2.518,5.523,5.601,5.519l0,0c3.077-0.004,5.577-2.489,5.574-5.539L230.537,515.766z"/>
			<path d="M214.934,549.102l1.447-81.333c-0.005-2.975,3.52-5.392,7.874-5.396l3.504-0.006c4.362-0.006,7.901,2.4,7.914,5.373
				l-1.445,81.331L214.934,549.102z"/>
			<rect x="214.925" y="540.774" transform="matrix(1 -0.0024 0.0024 1 -1.2891 0.5361)" width="19.284" height="2.255"/>
			<path d="M227.946,551.319h-14.972c-0.3,2.618-2.63,4.658-5.475,4.658l0.096,10.35h25.848v-9.78
				C233.443,553.661,230.979,551.319,227.946,551.319z"/>
			<path d="M216.188,566.327v-3.675c0-3.688-3.143-6.675-7.021-6.675h-3.147c-3.886,0-7.03,2.987-7.03,6.675v3.675H216.188z"/>
			<path d="M233.382,555.982c0.024,0.189,0.062,0.373,0.062,0.564v9.78h-7.042v-3.675
				C226.401,558.982,229.521,556.004,233.382,555.982z"/>
			<path d="M222.936,551.672v-1.201c0-1.709-1.458-3.102-3.255-3.102h-3.441c-1.803,0-3.265,1.393-3.265,3.102v1.201H222.936z"/>
			<rect x="198.988" y="562.863" width="34.455" height="3.464"/>
			<line stroke="#020304" stroke-width="1.3653" stroke-linecap="round" x1="217.538" y1="552.536" x2="212.673" y2="552.536"/>
			<line stroke="#020304" stroke-width="1.3653" stroke-linecap="round" x1="215.776" y1="555.115" x2="210.91" y2="555.115"/>
			<path fill="#3A2316" d="M257.841,351.248c5.914-1.537,14.378-7.393,17.489-12.679c2.849,4.246,1.318,10.208-1.019,14.355
				c-2.374,4.208-6.188,5.426-10.868,6.073c-2.6,0.355-5.16,0.311-7.742-0.07L257.841,351.248z"/>
			<path fill="#6B8931" d="M231.81,398.909l2.359-6.629l-1.116-10.546l24.786-10.646l24.785,10.717l-7.13,64.739l-38.229,3.765
				l0.071-28.119l-0.89-8.377C231.882,410.365,229.839,404.461,231.81,398.909z"/>
			<g>
				<path fill="#F7C28D" d="M259.619,348.909c3.405,0.104,6.071,2.807,5.958,6.04l-0.664,19.577
					c-0.106,3.233-2.951,5.766-6.356,5.662c-3.394-0.104-6.064-2.808-5.951-6.041l0.664-19.578
					C253.378,351.34,256.228,348.808,259.619,348.909z"/>
			</g>
			<path fill="#FFF8A4" d="M241.318,380.521c15.885-0.012,32.337,3.97,32.307-9.045l-0.964-39.532
				c-0.006-4.065-0.917-7.887-2.511-11.223l-35.156,0.178c-1.402,3.342-2.166,7.172-2.159,11.239c0,0-0.212,17.353,0.054,23.127
				C233.453,367.491,234,376.458,241.318,380.521z"/>
			<path fill="#FFF8A4" d="M245.851,321.086c-5.07,2.527-11.524,9.391-13.197,14.698c-4.174-3.358-4.962-8.082-3.746-12.229
				c1.233-4.203,5.932-6.77,10.079-8.255c2.3-0.824,4.661-1.29,7.108-1.458L245.851,321.086z"/>
			<path fill="#FFF8A4" d="M278.342,342.37c1.444-4.201,2.666-8.609,2.622-11.036c-0.18-9.744-7.729-17.674-17.659-19.516
				c-9.047-1.678-17.53,0.894-25.81,4.074c1.12,2.076,2.364,4.043,3.532,6.088c4.779,8.334,13.471,14.666,23.352,18.072l0.01,2.287
				c0.004,1.856,1.595,3.355,3.548,3.35h5.88L278.342,342.37z"/>
			<path fill="#F9AC8D" d="M273.602,338.513c-3.17,0-5.749,2.442-5.749,5.459v5.457h5.749c3.174,0,5.744-2.44,5.744-5.457
				S276.775,338.513,273.602,338.513z"/>
			<path d="M271.272,515.088c-0.145-3.04-2.746-5.405-5.829-5.279l0,0c-3.083,0.123-5.479,2.688-5.334,5.736
				c0.587,12.933-0.476,25.864,0.298,38.808c0.187,3.048,2.837,5.375,5.914,5.201l0,0c3.075-0.177,5.417-2.774,5.236-5.806
				C270.792,540.874,271.854,527.982,271.272,515.088z"/>
			<path d="M254.189,549.049c-2.223-27.086-1.827-54.117-2.813-81.175c-0.102-2.968,3.372-5.426,7.756-5.483l3.525-0.043
				c4.375-0.054,13.063,5.43,13.063,5.43l-2.169,80.589L254.189,549.049z"/>
			<polygon points="273.255,541.898 253.887,542.974 253.776,540.72 273.146,539.663 			"/>
			<path d="M270.332,551.314h-14.97c-0.3,2.623-2.637,4.659-5.469,4.659l0.08,10.353h25.858v-9.785
				C275.832,553.661,273.364,551.314,270.332,551.314z"/>
			<path d="M258.577,566.326v-3.674c0-3.69-3.146-6.679-7.03-6.679h-3.147c-3.882,0-7.021,2.988-7.021,6.679v3.674H258.577z"/>
			<path d="M275.771,555.982c0.02,0.188,0.062,0.371,0.062,0.559v9.785h-7.046v-3.674
				C268.786,558.981,271.911,556.001,275.771,555.982z"/>
			<path d="M265.322,551.67v-1.2c0-1.708-1.46-3.101-3.264-3.101h-3.436c-1.8,0-3.258,1.393-3.258,3.101v1.2H265.322z"/>
			<rect x="241.378" y="562.863" width="34.454" height="3.463"/>
			<line stroke="#020304" stroke-width="1.3653" stroke-linecap="round" x1="260.341" y1="552.536" x2="255.479" y2="552.536"/>
			<line stroke="#020304" stroke-width="1.3653" stroke-linecap="round" x1="258.577" y1="555.115" x2="253.709" y2="555.115"/>
			<path d="M237.495,465.55c0,8.438,6.549,15.278,14.622,15.278h16.006c8.07,0,14.696,0.948,14.62-15.278
				c-0.087-16.237-5.529-24.396-5.529-24.396h-39.719V465.55z"/>
			<path fill="#FFF8A4" d="M262.592,378.858h11.519c3.783,0,6.854-4.623,6.854-10.335v-37.189h-18.372V378.858z"/>
			<path d="M282.624,467.888c0,11.598-12.264,18.483-34.625,15.051c-18.996-2.919-34.635-3.453-34.635-15.051
				c0-11.591,15.504-20.985,34.632-20.985C267.12,446.902,282.624,456.297,282.624,467.888z"/>
			<g>
				<line fill="#028BC0" x1="279.346" y1="388.708" x2="292.189" y2="438.342"/>
				<g>
					<path fill="#6B8931" d="M287.299,386.732c4.277,16.546,8.562,33.091,12.842,49.634c2.415,9.327-13.496,13.29-15.91,3.953
						c-4.278-16.547-8.56-33.088-12.837-49.633C268.979,381.36,284.884,377.399,287.299,386.732L287.299,386.732z"/>
				</g>
			</g>
			<g>
				<line fill="#6B8931" x1="291.31" y1="441.238" x2="310.964" y2="411.764"/>
				<g>
					<path fill="#6B8931" d="M285.681,436.171c6.551-9.825,8.502-12.3,15.053-22.127c4.822-7.229,16.09,2.903,11.265,10.139
						c-6.552,9.829-8.506,12.305-15.057,22.13C292.122,453.542,280.854,443.411,285.681,436.171L285.681,436.171z"/>
				</g>
			</g>
		</g>
		<g>
			<path fill="#5A6D77" d="M214.317,563.385c-0.285-3.478-3.191-6.216-6.741-6.216s-6.462,2.738-6.739,6.216H214.317z"/>
			<g>
				<rect x="213.39" y="490.091" fill="#5A6D77" width="75.909" height="4.736"/>
				<path fill="#3A8399" d="M292.88,486.146c0,2.178-2.036,3.945-4.552,3.945h-74.684c-2.513,0-4.55-1.768-4.55-3.945l0,0
					c0-2.179,2.037-3.943,4.55-3.943h74.684C290.844,482.202,292.88,483.967,292.88,486.146L292.88,486.146z"/>
				<path fill="#5A6D77" d="M211.694,560.575c-0.226,1.462-1.593,2.466-3.057,2.238l0,0c-1.464-0.225-2.462-1.592-2.236-3.057
					l10.033-65.028c0.225-1.463,1.593-2.464,3.057-2.237l0,0c1.458,0.224,2.46,1.591,2.236,3.052L211.694,560.575z"/>
				<path fill="#5A6D77" d="M289.079,560.575c0.225,1.462,1.588,2.466,3.051,2.238l0,0c1.466-0.225,2.467-1.592,2.236-3.057
					l-10.027-65.028c-0.226-1.463-1.592-2.464-3.056-2.237l0,0c-1.458,0.224-2.46,1.591-2.236,3.052L289.079,560.575z"/>
			</g>
			<path fill="#5A6D77" d="M285.76,563.385c0.278-3.478,3.186-6.216,6.734-6.216c3.551,0,6.462,2.738,6.735,6.216H285.76z"/>
			<path fill="#3A8399" d="M283.498,395.356H250.43h-0.085h-33.073c-4.225,0-7.648,3.131-7.648,6.998l9.654,72.725
				c0,3.861,3.426,6.991,7.65,6.991h23.417h0.085h23.417c4.224,0,7.649-3.13,7.649-6.991l9.652-72.725
				C291.148,398.487,287.723,395.356,283.498,395.356z"/>
		</g>
	</g>
</g>
</svg>
