<svg xmlns="http://www.w3.org/2000/svg" xmlns:xlink="http://www.w3.org/1999/xlink" viewBox="0 0 399.8 353.6" enable-background="new 0 0 399.8 353.6"><style type="text/css">.st0{fill:#51A8B7;} .st1{fill:#D8D0BC;} .st2{clip-path:url(#SVGID_2_);} .st3{fill:#B3E5FC;} .st4{fill:#FFFFFF;} .st5{fill:#DE4653;} .st6{fill:#8DB220;} .st7{fill:#444A98;} .st8{fill:#F15E00;} .st9{fill:#22D4EE;} .st10{fill:#594A37;} .st11{fill:#3B2314;} .st12{fill:#FFA685;} .st13{fill:#F6921E;} .st14{fill:#CF4E21;} .st15{fill:#177D8F;} .st16{fill:#FBB32C;} .st17{fill:#ECE6E1;} .st18{fill:none;stroke:#000003;stroke-width:1.5471;stroke-linecap:round;} .st19{fill:#FFAD8C;} .st20{fill:#F5F5F5;} .st21{fill:#5B331D;} .st22{fill:#1E193D;} .st23{fill:#4DACB5;} .st24{fill:none;stroke:#4DACB5;stroke-width:3.0942;} .st25{fill:none;stroke:#177D8F;stroke-width:1.5471;stroke-linecap:round;} .st26{fill:#EDBB7C;} .st27{fill:none;stroke:#C08942;stroke-width:1.719;stroke-linecap:round;stroke-linejoin:round;stroke-miterlimit:3;} .st28{fill:none;stroke:#594A37;stroke-width:3.4379;stroke-linecap:round;stroke-linejoin:round;stroke-miterlimit:3;} .st29{fill:#C08942;} .st30{fill:none;stroke:#EDBB7C;stroke-width:1.719;stroke-linecap:round;stroke-linejoin:round;stroke-miterlimit:3;} .st31{fill:#1B587A;} .st32{fill:#3E5171;} .st33{fill:#44597C;} .st34{fill:none;stroke:#44597C;stroke-width:8.910000e-002;stroke-linecap:round;stroke-miterlimit:10;} .st35{fill:#0E0F2D;} .st36{fill:#F6E8E7;} .st37{fill:#4D658C;} .st38{fill:none;stroke:#1A171C;stroke-width:1.2026;} .st39{fill:none;stroke:#44597C;stroke-width:1.2026;} .st40{fill:none;stroke:#000003;stroke-width:1.2026;stroke-linecap:round;} .st41{fill:#6D3D3D;} .st42{fill:#FFC230;} .st43{fill:#FFD39A;} .st44{fill:#834A4A;} .st45{fill:#2F4678;} .st46{fill:#EBF9FF;} .st47{fill:#CA6959;} .st48{fill:#CCCCCC;} .st49{fill:none;stroke:#DE4653;stroke-width:1.7816;stroke-linecap:round;stroke-linejoin:round;stroke-miterlimit:3;} .st50{fill:none;stroke:#BCDF67;stroke-width:1.7816;stroke-linecap:round;stroke-linejoin:round;stroke-miterlimit:3;} .st51{fill:none;stroke:#594A37;stroke-width:1.7816;stroke-linecap:round;stroke-linejoin:round;stroke-miterlimit:3;} .st52{fill:#B2CF4D;} .st53{fill:#8AC33F;} .st54{fill:#F95136;} .st55{fill:#FF970D;} .st56{fill:#AEC92E;} .st57{fill:#83272F;} .st58{fill:#FDFFFF;} .st59{fill:#83B2B3;} .st60{fill:#FAFFFF;} .st61{fill:#ABC62E;} .st62{fill:#E6B68B;} .st63{fill:#FF940D;} .st64{fill:#E69265;} .st65{fill:#F0B08B;} .st66{fill:#BFBDC1;} .st67{fill:#7BA1A3;} .st68{fill:#96BEC0;} .st69{fill:#9FC462;} .st70{fill:#92AE5B;} .st71{fill:#2D2B2A;} .st72{fill:#F5F9F8;} .st73{fill:#CFD3D4;} .st74{fill:#BFC5D0;} .st75{fill:none;stroke:#6C6D6D;stroke-width:0.1;stroke-miterlimit:10;} .st76{fill:#BFB298;} .st77{fill:#5D5B5F;} .st78{fill:#546026;} .st79{fill:#754C29;} .st80{fill:#8B5E3C;} .st81{fill:url(#SVGID_3_);} .st82{fill:#A97C50;} .st83{fill:#ED1C24;} .st84{fill:#FBB040;} .st85{fill:#4C3B22;} .st86{fill:none;stroke:#000003;stroke-width:1.35;stroke-linecap:round;} .st87{fill:none;stroke:#4DACB5;stroke-width:2.7;} .st88{fill:none;stroke:#177D8F;stroke-width:1.35;stroke-linecap:round;} .st89{fill:#000003;} .st90{fill:none;stroke:#1B587A;stroke-width:1.35;stroke-linecap:round;} .st91{fill:none;stroke:#ECE6E1;stroke-width:1.35;stroke-linecap:round;} .st92{fill:#1A171C;} .st93{fill:none;stroke:#FFA685;stroke-width:4.85;stroke-linecap:round;stroke-miterlimit:10;} .st94{fill:#6269C9;} .st95{fill:#4F56B0;} .st96{fill:none;stroke:#1A171C;stroke-width:1.35;} .st97{fill:none;stroke:#4F56B0;stroke-width:1.35;} .st98{fill:none;stroke:#EDBB7C;stroke-width:4;stroke-linecap:round;stroke-linejoin:round;stroke-miterlimit:3;} .st99{fill:#3C2415;} .st100{fill:none;stroke:#FFFFFF;stroke-width:0.25;stroke-miterlimit:10;} .st101{fill:none;stroke:#EDBB7C;stroke-width:3;stroke-linecap:round;stroke-linejoin:round;stroke-miterlimit:3;}</style><symbol id="flash0.ai_x5F_5_x2F_Layer_3_x2F__x3C_Path_x3E_" viewBox="-6.4 -4.5 12.8 9"><path id="Layer_1_3_" class="st0" d="M6.4.8l-11.5-5.3-1.3 2.6 11 6.4 1.8-3.7z"/></symbol><symbol id="flash0.ai_x5F_5_x2F_Layer_3_x2F__x3C_Path_x3E__x5F_0" viewBox="-6.6 -3.9 13.2 7.8"><path id="Layer_1_4_" class="st0" d="M6.6-.4l-1.2-3.5-12 4.1 1.3 3.7 11.9-4.3z"/></symbol><symbol id="flash0.ai_x5F_5_x2F_Layer_3_x2F__x3C_Path_x3E__x5F_1" viewBox="-5.3 -3 10.6 6"><path id="Layer_1_2_" class="st1" d="M4.4 3l.9-3.1-9.7-2.9-.9 3 9.7 3z"/></symbol><symbol id="кно" viewBox="-60.3 -106.2 120.6 212.4"><defs><path id="SVGID_1_" d="M-60.3-72.2h120.1v178.4h-120.1z"/></defs><clipPath id="SVGID_2_"><use xlink:href="#SVGID_1_" overflow="visible"/></clipPath><g id="Layer_1_1_" class="st2"><path class="st3" d="M58.3-1.2h-116v103h116v-103z"/><path class="st4" d="M56.3 99.8h-112v-99h112v99zm4-103h-120v107h120v-107zm-3 69h-114v4h114v-4zm1-35h-115v4h115v-4zm-75 71v-103h-3v103h3zm37 0v-103h-3v103h3z"/><path class="st3" d="M58.3-104.2h-116v103h116v-103z"/><path class="st4" d="M60.3-106.2h-120v107h120v-107zm-4 103h-112v-99h112v99zm1-34h-114v4h114v-4zm1-35h-115v4h115v-4zm-75 71v-103h-3v103h3zm37 0v-103h-3v103h3z"/></g></symbol><path class="st5" d="M229.8 152.2c-2.8-4.2-6.3-7.8-10.4-10.9-3.5-2.6-7.4-4.7-11.6-6.3-4.8-1.8-9.7-2.8-14.8-3.1v-.3c6 .2 11.3 1 15.9 2.4 4.3 1.4 8.2 3.3 11.6 5.9 4.3 3.3 8 7.2 10.9 11.6l3-3.2 1 12.9-10-9h4.4z"/><path class="st6" d="M235.3 161.5l.3-.1c1.3 4.6 1.9 9.2 1.9 13.9-.1 4.9-1 9.1-2.5 12.7-2 4.9-4.9 9.3-8.5 13.3l4.1 1.8-12.4 4.3 5.6-11.1 1.5 3.9c3.4-3.8 6.1-8 8-12.6 1.5-3.6 2.5-7.7 2.9-12.3.2-4.9 0-9.5-.9-13.8z"/><path class="st7" d="M206 212.8c-4.2 1.3-8.3 2-12.4 2.1-5.5.1-10.9-.7-16.3-2.5l-.2 4.3-8.9-9.1 13.1.7-3.3 2.7c5 1.6 10.2 2.4 15.4 2.3 7.8-.1 15.1-1.7 21.7-4.8.9-.4 1.8-.8 2.6-1.3l.1.1c-.7.4-1.4.8-2.1 1.1-3.2 2-6.5 3.4-9.7 4.4zm-28.6-1.3l-.1.1.1-.1z"/><path class="st8" d="M150.7 161.2l-.2-.1c1.9-5.6 4.2-10.2 6.9-13.8s6.1-6.7 10.3-9.3c4.1-2.7 8.9-4.7 14.3-6.1l-2.4-3.6 13.3 2.9-11.8 6.4 1.1-4c-5.1 1.4-9.8 3.4-14.1 6.3-3.6 2.4-6.9 5.2-9.8 8.6-3.3 3.8-5.8 8-7.6 12.7z"/><path class="st9" d="M168.1 207.3l-.1.1c-4.1-2.8-7.7-6.1-10.8-9.8-3.2-3.8-5.5-7.6-6.8-11.3-.8-2.3-1.4-4.6-1.8-6.9-.1-.8-.2-1.5-.4-2.2-.2-2.1-.3-4.1-.3-6.3l-3.5.9v-1l5.8-9.1 3.3 11.6-3.7-2.1c-.2 5 .6 9.9 2.3 14.6 1.3 3.7 3.4 7.4 6.1 11.1 3 3.9 6.3 7.4 9.9 10.4z"/><path class="st10" d="M193.1 175.4c0 .9-.2 1.7-.6 2.4-.4.7-.9 1.3-1.6 1.8s-1.5.9-2.4 1.1c-.9.3-1.9.4-3 .4h-.9s-.6 0-.9-.1-.6-.1-.9-.1c-.3 0-.6-.1-.8-.1v-2.8c.5.1 1.1.2 1.7.3.6.1 1.3.1 2 .1 1.3 0 2.3-.2 3-.7s1-1.2 1-2.1c0-.9-.3-1.6-.9-2-.6-.4-1.7-.7-3.1-.7h-3.3v-9h9.8v3h-6.8v3.5h1.2c.9 0 1.7.1 2.5.2.8.2 1.5.4 2.1.8s1.1.9 1.4 1.6c.4.6.5 1.4.5 2.4zm14.8.3c0 .9-.2 1.7-.5 2.4s-.8 1.2-1.4 1.7c-.6.4-1.3.8-2.2 1-.8.2-1.8.3-2.8.3-.9 0-1.8-.1-2.6-.2s-1.7-.3-2.5-.5v-3.2l1.2.4s.9.2 1.3.3c.4.1.9.2 1.3.2.4.1.9.1 1.3.1.6 0 1.1-.1 1.5-.2s.8-.2 1-.4c.3-.2.5-.4.6-.6s.2-.5.2-.8c0-.4-.1-.8-.4-1-.2-.3-.6-.5-.9-.7-.4-.2-.8-.4-1.3-.6l-1.5-.6s-1-.4-1.5-.7-.9-.6-1.3-.9c-.4-.4-.7-.8-.9-1.3s-.4-1.1-.4-1.9c0-.7.1-1.3.4-1.9.2-.6.6-1.1 1.1-1.6.5-.4 1.2-.8 2-1.1s1.8-.4 2.9-.4h1.1s.7.1 1.1.1c.4 0 .7.1 1 .2l.9.2v2.9l-.9-.3s-.7-.2-1-.2c-.4-.1-.7-.1-1.1-.1-.4 0-.7-.1-1-.1-.6 0-1 0-1.4.1s-.7.2-1 .4-.4.4-.5.6c-.1.2-.2.5-.2.8 0 .4.1.7.4.9.2.3.6.5.9.7.4.2.8.4 1.3.6l1.5.6s1 .4 1.5.7.9.6 1.3.9c.4.4.7.8.9 1.3s.6 1.3.6 1.9z"/><path class="st4" d="M47.5 141.8l-.2.2v-.5l.5.1-.3.2z"/><path class="st11" d="M32.7 117.6l-3.4-8.7 5.1-2 2.7 6.8c.2.5.2 1 0 1.6-.2.5-.6.9-1.1 1.1l-3.3 1.2z"/><path class="st12" d="M35.6 130.7l-1.1 2.3c-.8 1.7-1.7 3.4-2.7 5.1-1 1.8-2 3.5-2.9 5l-1.4 2.2c-.2.3-.5.5-.8.6s-.7 0-.9-.2c-.3-.2-.5-.5-.5-.8-.1-.3 0-.6.2-.9 1.5-2.3 2.9-4.6 4.2-7 .8-1.5 1.7-3.1 2.6-5l1.1-2.3 2.2 1z"/><path class="st13" d="M29.2 137l2.7 1.5-2 3.5c-.7 1.2-1.4 2.3-2.2 3.5-.3.4-.6.6-1 .7-.4.1-.8 0-1.2-.2-.4-.3-.6-.6-.7-1s0-.8.2-1.2c.7-1.1 1.4-2.2 2.1-3.4l2.1-3.4z"/><path class="st14" d="M39.7 121.2c.2.5.2 1 0 1.4l-2 4.6-2.1 4.6-3.4-1.7 2.1-4.4 1.9-4.5c.2-.5.5-.8 1-1s1-.2 1.5 0 .8.5 1 1z"/><path class="st15" d="M44.5 174.9c.3.3.5.7.5 1.2l-.5 12.1c0 .5-.2.9-.5 1.2s-.7.5-1.2.5-.9-.2-1.2-.5-.5-.8-.5-1.2l.5-12.1c0-.5.2-.9.5-1.2s.7-.5 1.2-.5.9.1 1.2.5z"/><path class="st16" d="M45.9 142.5c.5.5.7 1.2.7 1.9l-.4 41.7h-5.7l.4-41.6c0-.8.2-1.4.7-1.9s1-.8 1.7-.8h1c.6-.1 1.1.2 1.6.7z"/><path class="st17" d="M46.1 184.6h-5.8v-.7h5.8v.7zm-5.8-2.8h5.7v.7h-5.7v-.7z"/><path class="st1" d="M44.2 187.1c.4 0 .8.2 1.2.5s.5.7.5 1.2v3.1h-7.7v-3.2c.4 0 .8-.1 1.1-.4.3-.3.5-.6.5-1l4.4-.2z"/><path class="st17" d="M35.6 190.7c0-.6.2-1.1.6-1.5.4-.4.9-.6 1.5-.6h.9c.6 0 1.1.2 1.5.6.4.4.6.9.6 1.5v1.2h-5.1v-1.2zm10.2-2.1v3.3h-2.1v-1.2c0-.6.2-1.1.6-1.5.5-.4.9-.6 1.5-.6z"/><path class="st1" d="M42.7 187.3h-3v-.4c0-.3.1-.5.3-.7s.4-.3.7-.3h1c.3 0 .5.1.7.3s.3.4.3.7v.4zm-7.1 3.5h10.2v1.1h-10.2v-1.1z"/><path class="st18" d="M41.1 187.5h-1.4m.9.8h-1.4"/><path class="st11" d="M43 112.2c-.3.4-.9.8-1.5 1.2-.6.4-1.4.6-2.2.8l-.3-2.4c.7-.6 1.5-1.4 2.1-2.5.7-1.1 1.1-2.2 1.2-3.1.6.4 1 1.1 1.2 1.9.2.7.2 1.5.1 2.3 0 .7-.2 1.3-.6 1.8z"/><path class="st14" d="M35.5 123l5.6-5.8 8 .4 5.4 19.5-10.1 5.2-3.2-8.1-1.2-2.4c-.8-.2-1.5-.7-2-1.4-.6-.7-.9-1.5-.9-2.4l-.1-2.2-1.5-2.8z"/><path class="st19" d="M43.6 117.7c.2.5.2.9-.1 1.4s-.6.8-1 .9c-.5.2-.9.1-1.4-.1s-.8-.6-.9-1l-2-5.8c-.2-.5-.1-.9.1-1.4.2-.5.6-.8 1-.9.5-.2.9-.1 1.4.1s.8.6.9 1l2 5.8zm-4.7-16.1c.8.6 1.4 1.4 1.7 2.4l1.8 4.4c.6 1.6.4 3.4-.6 5.2-1.1 2-2.7 3.4-4.8 4.2-1.2-.1-2.2-.4-3-1s-1.5-1.6-2.2-3c-.3-.6-.7-1.7-1.3-3.3l-.9-2.3c-.4-1-.5-2-.5-2.9l9.8-3.7z"/><path class="st20" d="M37.8 112.8c.1.5 0 .9-.2 1.3s-.6.7-1 .9c-.5.2-.9.2-1.3 0s-.8-.4-1-.8l3.5-1.4z"/><path class="st11" d="M31.5 102.2l.8 2.1c-.6.7-1.1 1.5-1.5 2.7s-.6 2.2-.5 3c-.7-.2-1.3-.7-1.7-1.3-.4-.5-.6-1.2-.7-1.9-.1-1.1.5-2.3 1.9-3.5.5-.4 1.1-.8 1.7-1.1z"/><path class="st21" d="M43.6 107l-.9 1.5-1.6.6c-.3.1-.5.1-.8 0s-.4-.3-.6-.6l-.3-.7c-1.6 0-3.1-.2-4.6-.6-1.5-.5-2.8-1.2-3.9-2.1-.7-.6-1.3-1.1-1.7-1.4 1.2-1.1 2.2-1.9 3-2.5 1.2-.8 2.4-1.3 3.6-1.5 1.5-.3 2.9-.1 4.2.6s2.3 1.7 2.9 3.1c.5.7.6 1.8.7 3.6z"/><path class="st22" d="M36.1 109.2c-.1-.1 0-.3 0-.4.1-.1.1-.2.3-.3.1-.1.3-.1.4 0l.3.3c.1.2.1.3 0 .4l-.3.3h-.4c-.2-.1-.3-.2-.3-.3zm-4.1 1.6c-.1-.1 0-.3 0-.4.1-.1.1-.2.3-.3s.3-.1.4 0l.3.3c.1.2.1.3 0 .4l-.3.3h-.4l-.3-.3z"/><path class="st19" d="M41.9 106.3c.4-.2.9-.2 1.3 0s.7.5.9.9.2.9 0 1.3-.5.7-.9.9l-1.6.6-.6-1.6c-.2-.4-.2-.9 0-1.3.1-.3.5-.6.9-.8z"/><path class="st15" d="M54.4 175.9c0 1.2.1 3.2 0 6 0 2.6 0 4.6.1 6 0 .5-.1.9-.4 1.2-.3.3-.7.5-1.2.6s-.9-.1-1.2-.4c-.3-.3-.5-.7-.6-1.2-.1-1.4-.1-3.4-.1-6v-6.1c0-.5.1-.9.4-1.2.3-.3.7-.5 1.1-.6.5 0 .9.1 1.2.4.5.4.7.8.7 1.3z"/><path class="st16" d="M52.8 141.9c.5 0 1.3.5 2.4 1.4.6.4 1.1.9 1.5 1.4l-.7 41.3-5.7.4c-.3-5.5-.4-12.5-.6-20.8-.2-13.4-.2-20.4-.3-20.8 0-.8.2-1.4.6-2 .5-.5 1-.8 1.6-.9h1.2z"/><path class="st1" d="M55 184.2l-5.8.4v-.7l5.7-.4.1.7zm-5.9-2.4l5.7-.3v.7l-5.7.3v-.7zm5 5.3c.4 0 .8.2 1.2.5.3.3.5.7.5 1.2v3.1h-7.7v-3.2c.4 0 .8-.1 1.1-.4.3-.3.5-.6.5-1l4.4-.2z"/><path class="st17" d="M50 189.2c.4.4.6.9.6 1.5v1.2h-5.1v-1.2c0-.6.2-1.1.6-1.5.4-.4.9-.6 1.5-.6h.9c.6 0 1.1.2 1.5.6zm5.7-.6v3.3h-2.1v-1.2c0-.6.2-1.1.6-1.5.4-.4.9-.6 1.5-.6z"/><path class="st1" d="M52.6 187.3h-2.9v-.4c0-.3.1-.5.3-.7s.4-.3.7-.3h1c.3 0 .5.1.7.3s.3.4.3.7l-.1.4zm-7.1 3.5h10.2v1.1h-10.2v-1.1z"/><path class="st18" d="M51.1 187.5h-1.4m.9.8h-1.4"/><path class="st16" d="M54.3 137.2l.9 1.9c.6 1.7.9 3.6.9 5.7 0 2.2-.5 3.7-1.4 4.3-.5.3-1.6.5-3.4.5h-5.2c-1.3 0-2.4-.5-3.4-1.4-.9-.9-1.4-2.1-1.4-3.4v-7.6h13z"/><path class="st23" d="M54.1 135.6l.3 1.2v24c0 1.4-.5 2.6-1.5 3.6s-2.2 1.5-3.6 1.5h-8.8l1.2-29.1-2.4-10.4 7.5-1.9 2.9 9.3c.3.6.8 1 1.3 1.3.6.4 1.1.6 1.7.6l1.4-.1z"/><path class="st15" d="M54.3 137.3h-12.8l.1-1.7h12.7v1.7z"/><path class="st24" d="M45.5 126.8c-.4-3.6.4-7.1 2.4-10.6m-6.5 12.1c-1-1.8-1.7-4-2.1-6.6l-.3-3.3"/><path class="st25" d="M42.8 134.1v4.8m1.2-4.8v4.8"/><path class="st21" d="M43.1 103.5l2.7 6.8c.2.5.2 1 0 1.6-.2.5-.6.9-1.1 1.1l-3.2 1.2-3.4-8.7 5-2z"/><path class="st13" d="M25.6 146.8c.1.3 0 .5-.1.7s-.3.4-.6.4c-.3.1-.5 0-.7-.1l-1.3-.7c-.2-.1-.4-.3-.5-.6-.1-.2 0-.5.1-.7s.3-.4.6-.5c.2-.1.5 0 .7.1l1.3.7c.2.3.4.5.5.7zm.8-5.2l1.7 1.5-.9 2.2c-.3.6-.6 1.1-.9 1.3l-.2.1c-.5.3-.9.7-1.2 1.1l-2.1-2.2c0-.2.1-.5.3-.7.1-.3.3-.5.5-.6l.8-.5c.2-.1.9-.9 2-2.2z"/><path class="st26" d="M46.8 141.3v.5h.2l.1 6h-.3l-10.5 8.6-14-5 .2-6.4 14.1 4.7 10.1-8-10.1 8-14.1-4.7c.3-.4 3.6-3 10.1-7.7l.1-.1.1-.1 14 4.2z"/><path class="st27" d="M46.8 141.3v.5l.2-.2.2-.2-.4-.1zm.3 6.5l-.1-6v-.2m-.2.2l-10.1 8-14.1-4.7-.2 6.4 14 5 10.5-8.6m-24.3-2.8c.3-.5 3.6-3.1 10.1-7.7l.2-.1 14 4.1m-14.2-4.1l.1-.1.1-.1m3.1 12.6v6.1"/><path class="st12" d="M50.5 137.3h-2.5v-.3c.2-1.7.3-3.6.5-5.7l.1-2.6 2.5.1-.1 2.6c-.1 1.8-.3 3.7-.5 5.7-.1.1-.1.2 0 .2z"/><path class="st14" d="M51.8 119.8v5c0 1.7-.1 3.4-.1 5l-3.8-.2c.1-1.6.1-3.3.1-4.9v-4.9c0-.5.2-1 .5-1.3.4-.4.8-.6 1.3-.6s1 .2 1.4.5c.4.4.6.8.6 1.4z"/><path class="st12" d="M50.5 136.9l-.1.8c-.9 1.6-1.9 3.3-3 4.9-1.1 1.8-2.1 3.4-3.2 4.8l-1.5 2.2c-.2.3-.5.4-.8.5-.4.1-.7 0-1-.2s-.4-.5-.5-.8c0-.3 0-.7.2-1 1.6-2.2 3.1-4.4 4.6-6.8.8-1.3 1.8-2.8 2.8-4.5l2.5.1z"/><path class="st13" d="M43 144.6l2.2-3.3 2.7 1.7-2.3 3.4c-.8 1.1-1.5 2.2-2.4 3.3-.3.4-.6.6-1.1.7-.4.1-.8 0-1.2-.3-.3-.3-.5-.6-.6-1.1-.1-.4 0-.8.3-1.2.9-1 1.7-2.1 2.4-3.2z"/><path class="st28" d="M35.5 173.4l-3.7 23.1m.3 0l-7.2-.6"/><path class="st4" d="M106.5 166l.1-.6-.1.6zm0 10.8v-3.4c.1 2.1.4 3.3 1.1 3.7-.3.1-.6.1-.8.1-.1-.1-.2-.2-.3-.4zm-.1-16.1l-9.5 3.4 9.2-3.5.3.1z"/><path class="st29" d="M106.5 173.4v4.2l-12 4.5-.9-.5v1.8l-.1-.5-13 4.6-.1-.1-12.7-6.2-.2-.2h-.3l-.1-9.9.3-.6h-.1l-.1-.1.1-.1-.2-.2v-3.9l.2-.7h-.1l.1-.4 11.6-4 1.5.6v-1.7l.3-.6.1.1-.1-1.1v-4l.3-.6-.2-.1.1-.4 11.6-4 14 5.7.2.2-.1 5-.7.3-9.2 3.5-2.1.7h-.1l-.9.3-12.7-5.5-.2-.1.2.1 12.7 5.5.9-.3h.1l2.1-.7 9.5-3.4.2.2v4.5l-.1.6-.9.3.7.3.2.2v5.8l.1.1.1.8zm-26-11.8l12.5 5.1-12.5 4.4v10.5l11.9-4.3-11.9 4.3v-10.5l12.5-4.4-12.5-5.1zm12.6 10.4l-11.9 4.4 11.9-4.4zm13.6-16.9l-12.6 4.3-12.9-5.6 12.9 5.6 12.6-4.3zm-26.2 21.3l-13-5.9 13 5.9zm0-5.3l-13.1-5.7 13.1 5.7zm25.2 1l-11.2 4.2 11.2-4.2.7.3v-.6l-.7.3zm-11.1-1.7l11-4-11 4zm-14.1 11.1v5.8-5.6-.2zm-12.6-5.1l12.6 5.4-12.6-5.4z"/><path class="st30" d="M67.4 165l11.6-4 1.5.6 12.5 5.1-12.5 4.4v10.5l11.9-4.3m-11.6-17.9l.1.1.2.1 12.7 5.5.9-.3h.1l2.1-.7 9.2-3.5.7-.3m-26-1.9v-4m.3-.5l-.2-.1m.2-.4l11.6-4 14 5.7-12.6 4.3-12.9-5.6m25.6 1.5l-.1 5-.2 3.8v1.8m0 .1v3.4l.1 3.2v4.7m-.1.3l-12 4.5m-.9.7l-13 4.6-.1-.1-12.7-6.2m-.5-.1l-.1-9.9m.3-.6l-.3-.5v-3.9m25.9 5.9l-11.9 4.4m-.7 0l-13-5.9m13 .6l-13.1-5.7m39-4.7l-.3-.1m.3.1l-9.5 3.4m9.6 0v-3.1m0 4.4l-.1.6m-.7 6.1l-11.2 4.2m.1-5.9l11-4m-25.1 15.1v5.8m-12.6-10.9l12.6 5.4m12.7-15v16.3m.9-24v5.5"/><path class="st8" d="M106.2 183.4l1.6 4 5.6 2.5-1.7.7-4.8-2.4 3.2 2.9-1.5.6-3.1-2.9 1.7 3.5-1.9.7-1.8-4.4-5.2-2.2 1.8-.7 4.4 2.2-2.9-2.7 1.5-.6 2.9 2.8-1.5-3.3 1.7-.7zm4.1-1.6l1.5-.6 7.1 6.5-1.6.6-2.9-2.8-1.8.8 2.9 2.8-1.6.5-7-6.5 1.5-.6 2.6 2.5 1.9-.7-2.6-2.5zm5-2.3c.7-.3 1.4-.4 2.2-.2 1.2.2 2.5.9 4 1.9.6.5 1.1.9 1.6 1.3.5.5.9 1.1 1.1 1.5.5 1.1.2 1.8-.9 2.2-.9.3-1.9.3-3.2-.1-1-.3-1.9-.9-3-1.7-.9-.6-1.6-1.3-2.1-1.9-.2-.3-.4-.6-.6-1-.5-.9-.2-1.6.9-2zm-24.3 10.2c.6.1 1.2.4 1.9.9.5.4.9.8 1 1.3.2.4.2.7-.2.9v.1c.4 0 .8 0 1.4.1.5.2 1 .4 1.5.8.8.6 1.2 1.2 1.2 1.7.1.4-.2.8-1 1l-3.2 1.3-7-6.5 3-1.1c.6-.5 1-.6 1.4-.5zm-.5 1.7l-.9.3 1.5 1.4.9-.3c.2-.1.3-.2.3-.3.1-.2 0-.5-.5-.8-.2-.2-.5-.3-.7-.3-.2-.2-.4-.2-.6 0zm-5.5 2.3c-.4-.2-.8-.2-1.1 0-.2.1-.3.2-.3.5s.3.8 1 1.5l2.4-.9-.7-.6c-.5-.2-.9-.4-1.3-.5zm-2.6-1.2c.8-.3 1.7-.3 2.7-.1 1 .4 2 1 3.2 1.8.5.3 1 .7 1.4 1.2l-4 1.5.3.1.3.3c.5.4.9.7 1.3.9.5.2 1 .2 1.4.1l.5-.3c0-.3-.1-.6-.3-.9l1.5-.6c.7.8 1 1.4.9 1.8 0 .6-.4 1-1.1 1.3-.9.4-1.9.3-3.2-.1-.9-.3-1.9-.9-2.9-1.7-1.3-1-2.2-1.9-2.8-3-.6-1.2-.3-1.9.8-2.3zm-1.9 5l-2.6-2.6 1.5-.5 7.2 6.8-1.6.5-3-2.9-1.8.7 2.9 2.9-1.6.5-7-6.9 1.5-.5 2.7 2.6 1.8-.6zm24.4-4.4l-1.6.7-.9-.6c.1.4.1.7 0 1s-.4.5-.7.6c-.4.2-.9.2-1.3.1-.7 0-1.5-.4-2.3-1-.6-.5-1-.9-1.3-1.3-.3-.5-.3-.8 0-1 0-.1.5-.5 1.4-1.2.4-.3.3-.6-.5-1.1-.2-.2-.5-.4-.8-.5-.2 0-.5 0-.7.1-.3.1-.4.3-.3.5.1.3.3.6.6.9l-1.7.6c-.6-.6-1-1.1-1.1-1.6-.1-.7.3-1.2 1.2-1.6.8-.3 1.6-.4 2.3-.3.6.2 1.2.6 1.8 1 .1.1.2.2.4.3.2.2.3.3.5.3l3.2 3.1.3.3c.2 0 .3.1.5.3.1.1.2.2.3.2.3.1.5.2.7.2zm-5.3-2c0 .1-.1.2-.3.4-.3.2-.4.3-.4.6-.1.2.1.5.7 1l.7.3c.3.1.5.1.7 0s.3-.3.3-.5c.1-.4-.3-.9-1-1.6l-.4-.5c-.2.1-.2.3-.3.3zm-4.6 3c-.3-.2-.6-.4-.9-.4s-.5 0-.8.1l-1 .4 1.7 1.4 1-.3c.3-.2.5-.3.5-.6-.1-.1-.2-.3-.5-.6zm29.4-17.2c1 .3 2 .9 3.1 1.7.3.2.5.4.7.6h.1l.7.6-4 1.5c0 .1.1.1.2.2l.3.3c.5.3.9.6 1.3.7l.3.1c.3.1.6.1 1 0 .1 0 .1 0 .1-.1.2-.1.4-.2.5-.3 0-.3-.2-.6-.5-.9l1.5-.7c.6.8 1 1.4.9 1.8v.1c0 .5-.4.9-1 1.2-1 .4-2 .4-3.1 0-.7-.3-1.5-.7-2.3-1.2-.2-.1-.5-.2-.7-.4-1.2-1-2.1-1.9-2.6-2.9-.5-.8-.4-1.5.1-1.9.2-.2.4-.3.6-.4 1-.2 1.8-.2 2.8 0zm-7.8 5c.2.2.3.4.6.6.4.5 1 1 1.7 1.6.7.5 1.3.8 1.9.9.3.1.7.1 1-.1.5-.2.5-.7 0-1.3-.3-.4-.6-.8-1-1.1-.3-.3-.7-.6-1.1-.9-.6-.4-1.1-.7-1.5-.9-.6-.2-1.1-.2-1.4-.1-.5.4-.6.8-.2 1.3zm9-3.2c-.4-.3-.8-.5-1.3-.5-.4-.2-.8-.2-1 0-.3.1-.5.2-.5.5s.3.9 1.1 1.5l2.3-1-.6-.5z"/><path class="st26" d="M20.3 185.4l15.1 6.7-15.1-6.7h-.2l-.2-.3v-4.5l.3-.7 4 1.6-4-1.6-.1-.1v-.1l4.1 1.8 11.8 5.2 13.7-4.9-13.7 4.9-11.8-5.2-4.1-1.8v-.1l-.1-.1v-4.5l.3-.8 15 6.4 14.3-4.9-14.3 4.9-15-6.4-.1-.1.1-.4 13.2-4.6 16.1 6.6.2.3v4.5l-.1 1.1v4.5l-.1 1.1.1.1.1.1v4.6l-.1 1.2-13.7 5-15.8-7-.2-.3v-4.5l.3-.7 15 6.4h.1l.6.3 13.7-5.1-13.7 5.1-.6-.3h-.1l-15-6.4h-.1l.1-.3z"/><path class="st27" d="M20.2 174.1l.1.1 15 6.4 14.3-4.9-16.1-6.6-13.2 4.6m-.3 1.3v4.5m.1.2l4.1 1.8 11.9 5.2 13.6-5 .1-.1m0-1.1v-4.5m-.1 10.1v-4.4m.1 10.3v-4.6m-.1-.1l-13.7 5.1-.6-.2h-.1l-15-6.4m-.3.6v4.5m.2.3l15.8 7 13.7-5m-29.8-12.6v4.5m.2.3l.2.1 15.1 6.7m-15.3-12.4l.1.1 4 1.7m-4 4.1l.1.1"/><path class="st26" d="M5.5 196.4l-.2-.1v-4.6l.2-.4 15.8 7 13.9-5.1-13.9 5.1-15.8-7-.1-.1-.2-.2v-4.5l.3-.7 14.9 6.4.6-.2.3.2 13.5-4.9.2.2v5.1l.1.2v4.5l-.1 1.3-13.8 5.1-15.7-7.3zm29.6-10.6l-.1 1.2-.2.2-13.5 4.9-.3-.2-.6.2-14.9-6.4-.1-.1.1-.5.3-.1 15.2 6.8-15.2-6.8h-.3l-.2-.2v-4.6l.3-.6-.1-.1v-.1l5.9 2.8 9.9 4.3 13.8-5.2-13.8 5.2-9.9-4.3-5.9-2.8-.1-.1-.2-.2v-4.5l.3-.7 15 6.4 14.3-5 .3.3v4.6l-.1 1 .1.1.1.1-.1 4.4zm-29.6-12.4l13.2-4.7 16.1 6.6-14.3 5-15-6.4-.2-.1.2-.4zm.1 6.2l5.8 2.5-5.8-2.5z"/><path class="st27" d="M5.4 179.4l6 2.8 9.9 4.3 13.8-5.2m0-1.1v-4.6m-.3-.3l-14.3 5-15-6.4m-.1 0l.2.1m29.2 1.3l-16.1-6.6-13.2 4.7m29.6 12.4v-4.5m-.3 5.9l.2-.2m0 4.9v-4.5m-.2-.2l-13.5 4.9-.3-.2-.6.2-14.9-6.4m-.1 5.5l.1.1 15.8 7 13.9-5.1v-.5m-.1 4.4v-4m-29.6 3.3l15.8 7.1 13.8-5.1m-29.6-13.4l.3.1 15.2 6.8m-15.5-12.4l.1.1 5.8 2.5m-5.6 3l-.3.1m-.1.5l.1.1m-.3-12.3v22.7m16.5-16v22.8"/><path class="st6" d="M60.9 202.5c0 .4.3.9 1.1 1.7l2.5-1-.7-.6c-.5-.3-.9-.5-1.3-.6-.5-.1-.8-.1-1.1 0-.3 0-.5.2-.5.5zm-1.1-1.9c.8-.3 1.8-.4 2.9-.1.5.1.9.3 1.4.6.7.3 1.3.7 2 1.2.5.4 1 .8 1.5 1.3l-4.4 1.8.3.2.3.3c.5.4 1 .7 1.4.9.5.2 1 .2 1.5 0 .3-.1.4-.2.5-.3 0-.3-.1-.7-.4-1l1.7-.7c.7.8 1 1.4 1 1.9 0 .6-.4 1.1-1.2 1.4-1 .4-2.1.4-3.3 0-1-.3-2.1-.9-3.2-1.7-1.3-1-2.3-2.1-2.9-3.1-.5-.9-.4-1.6.1-2.1.2-.3.5-.4.8-.6zm-1.2 8.8c.4.1.8 0 1.1-.1.5-.2.5-.7 0-1.4-.5-.6-1.2-1.4-2.2-2.2-.6-.4-1.2-.7-1.7-.9-.7-.2-1.2-.2-1.5-.1-.5.2-.6.6-.2 1.3.5.7 1.3 1.5 2.5 2.5.8.5 1.4.8 2 .9zm2.8 1.4c-1 .4-2.2.3-3.5-.2-1-.3-2.1-.9-3.3-1.8-1.5-1.1-2.4-2.2-2.9-3.2-.6-1.1-.3-1.9.9-2.4.7-.3 1.5-.4 2.4-.2 1.3.2 2.8.9 4.4 2.1 1.5 1.1 2.4 2.1 2.9 3.1.6 1.3.3 2.2-.9 2.6zm-12.4-5.7l7.7 7.1-1.7.6-3.2-3-2.1.9 3.2 3-1.7.6-7.7-7.1 1.7-.6 2.9 2.6 2-.7.1-.1-2.9-2.8 1.7-.5zm-17.3 9c.1.3.4.6.7.9l-1.8.7c-.7-.6-1.1-1.3-1.3-1.8-.2-.7.3-1.3 1.3-1.7.9-.3 1.7-.4 2.6-.3.6.2 1.3.6 1.9 1 .1.1.3.2.5.3l.4.4 3.5 3.3c.2.1.3.2.3.3l.5.3s.3.2.5.3c.1.2.3.2.6.2l.1.1-1.8.7-.9-.6c.1.4.1.8-.1 1-.1.3-.4.5-.7.6-.5.2-1 .2-1.5.2-.7-.1-1.5-.5-2.5-1.1-.6-.5-1.1-.9-1.4-1.4-.3-.5-.3-.9 0-1.2 0-.1.6-.5 1.6-1.3.5-.3.3-.7-.5-1.3-.3-.2-.6-.4-.9-.4-.3 0-.5 0-.7.1-.4.2-.5.4-.4.7zm-5.3 3.9l.9-.3c.2-.1.4-.2.4-.4.2-.2 0-.5-.5-.9-.3-.2-.6-.3-.9-.3-.2 0-.4 0-.7.2l-.9.3 1.7 1.4zm-1.6-3.4c.5-.2.9-.3 1.4-.2.6 0 1.3.3 2.1.9.6.5 1 .9 1.2 1.4.2.4.2.7-.2.9v.1c.4 0 .9 0 1.4.2.5.1 1 .4 1.7.8.9.7 1.3 1.3 1.3 1.8.1.5-.3.9-1.1 1.2l-3.4 1.3-7.7-7.1 3.3-1.3zm4.7 6.3l1-.4c.3-.1.5-.3.5-.6.1-.2-.1-.4-.5-.7-.3-.3-.6-.4-.9-.5-.3 0-.6 0-.9.1l-1 .4 1.8 1.7zm15.9-4.2l-3.4-3.2 1.8 3.8-2 .9-1.9-4.8-5.7-2.5 1.9-.7 4.8 2.4-3.2-3 1.7-.6 3.2 3-1.7-3.6 1.9-.7 1.7 4.3 6.1 2.7-1.9.8-5.2-2.6 3.5 3.1-1.6.7zm-9.6-1.1c0 .2-.1.3-.2.3 0 .2-.2.3-.5.4-.3.2-.4.4-.4.6-.1.2.2.6.7 1 .2.2.5.3.8.3.3.1.5.1.7 0s.3-.2.3-.5c0-.4-.3-1-1.1-1.8l-.3-.3z"/><path class="st31" d="M198.3 325.5c.4.4.6.9.6 1.5l-.2 15.1c0 .6-.2 1.1-.6 1.5-.4.4-.9.6-1.4.6-.6 0-1-.2-1.4-.7-.4-.4-.6-.9-.6-1.5l.2-15.1c0-.6.2-1.1.6-1.5.4-.4.9-.6 1.4-.6.5.1 1 .3 1.4.7z"/><path class="st32" d="M201.3 288l-.7 52-7.9-.1.7-52c0-1 .3-1.8 1-2.4.6-.7 1.4-1 2.3-1h1.5c.9 0 1.7.4 2.3 1 .5.7.8 1.6.8 2.5z"/><path class="st33" d="M200.6 337.7l-7.8-.2v-.8l7.9.1-.1.9z"/><path class="st34" d="M200.6 337.7l-7.8-.2v-.8l7.9.1-.1.9z"/><path class="st33" d="M200.7 335.1l-7.9-.1v-.9l7.9.1v.9z"/><path class="st34" d="M200.7 335.1l-7.9-.1v-.9l7.9.1v.9z"/><path class="st23" d="M202 255.8l-.7 10.1v21.6h-20.5v-21.6l-.7-10.1c3.6-.9 7.3-1.4 10.9-1.4l4 .2c2.6.2 4.9.6 7 1.2z"/><path class="st12" d="M187.5 254.5c1.3-.1 2.5-.2 3.6-.2l4.2.2c-.3.8-.8 1.5-1.5 2s-1.5.8-2.4.8-1.8-.3-2.5-.8c-.7-.4-1.1-1.1-1.4-2z"/><path class="st32" d="M180.9 279.1h20.5v9.9c0 1.7-.6 3.2-1.8 4.4-1.2 1.2-2.7 1.8-4.4 1.8h-8c-1.7 0-3.2-.6-4.4-1.8-1.2-1.2-1.8-2.7-1.8-4.4l-.1-9.9z"/><path class="st33" d="M186 295.2c-1.5-.3-2.7-1-3.6-2.1-1-1.2-1.5-2.5-1.5-4v-9.9h10.2v9.9c0 1.5-.5 2.9-1.5 4-.9 1.1-2.1 1.8-3.6 2.1z"/><path class="st12" d="M191.1 244.5c.6 0 1.2.2 1.6.7.4.4.7 1 .7 1.6v7.7l-.9 2.3-3.7-2.3v-7.7c0-.6.2-1.2.7-1.6.4-.4 1-.7 1.6-.7z"/><path class="st35" d="M198.1 241.3c-.2 0-.3-.1-.5-.2-.1-.1-.2-.3-.2-.5s.1-.3.2-.5c.1-.1.3-.2.5-.2s.3.1.5.2c.1.1.2.3.2.5s-.1.3-.2.5c-.1.1-.3.2-.5.2zm-5.1 0c-.2 0-.3-.1-.5-.2-.1-.1-.2-.3-.2-.5s.1-.3.2-.5c.1-.1.3-.2.5-.2s.3.1.5.2c.1.1.2.3.2.5s-.1.3-.2.5c-.2.1-.4.2-.5.2z"/><path class="st36" d="M198 245.6c0 .7-.2 1.3-.7 1.8s-1.1.7-1.8.7-1.3-.2-1.8-.7-.7-1.1-.7-1.8h5z"/><path class="st1" d="M202.4 342.7v4h-9.4v-3.7c0-.5.2-1 .6-1.4.4-.4.9-.6 1.4-.6h5.4c.1.5.3.9.7 1.3.3.2.7.4 1.3.4z"/><path class="st17" d="M205.4 345.2v1.4h-6.2v-1.4c0-.7.3-1.3.8-1.8s1.1-.8 1.8-.8h1.1c.7 0 1.3.3 1.8.8s.7 1.1.7 1.8zm-10.6-1.8c.5.5.7 1.1.7 1.8v1.4h-2.5v-3.9c.7 0 1.3.2 1.8.7z"/><path class="st1" d="M196.8 341v-.5c0-.3.1-.6.4-.8.2-.2.5-.4.8-.4h1.3c.3 0 .6.1.8.4.2.2.3.5.3.8v.5h-3.6zm-3.8 4.3h12.5v1.3h-12.5v-1.3z"/><path class="st31" d="M185.2 325.4c.4.4.6 1 .5 1.5-.3 6.7-.6 11.7-.8 15.1 0 .6-.3 1.1-.7 1.5s-.9.6-1.5.5c-.6 0-1-.3-1.4-.7-.4-.4-.5-1-.5-1.5.2-4.2.5-9.2.7-15 0-.6.3-1.1.7-1.5s.9-.6 1.5-.6c.7 0 1.1.3 1.5.7z"/><path class="st33" d="M188.9 288c-.5 20.1-1.1 37.4-1.8 51.9l-7.9-.4c.8-14.4 1.4-31.6 1.8-51.6 0-.9.4-1.7 1-2.4s1.4-1 2.3-1h1.4c.9 0 1.7.4 2.3 1.1s.9 1.5.9 2.4z"/><path class="st37" d="M187.2 337.6l-7.9-.4v-.9l7.9.4v.9zm.1-2.6l-7.9-.4.1-.9 7.8.4v.9z"/><path class="st1" d="M181.4 340.9h5.4c0 .5.3.9.6 1.3.4.3.8.5 1.3.5v4h-9.4v-3.7c0-.5.2-1 .6-1.4.5-.5 1-.7 1.5-.7z"/><path class="st17" d="M191.9 345.2v1.4h-6.2v-1.4c0-.7.3-1.3.8-1.8s1.1-.8 1.8-.8h1.1c.7 0 1.3.3 1.8.8.4.5.7 1.1.7 1.8zm-12.5-2.5c.7 0 1.3.3 1.8.8s.7 1.1.7 1.8v1.4h-2.5v-4z"/><path class="st1" d="M183.2 341v-.5c0-.3.1-.6.3-.8.2-.2.5-.4.8-.4h1.3c.3 0 .6.1.8.4.2.2.3.5.3.8v.5h-3.5zm-3.8 4.3h12.5v1.3h-12.5v-1.3z"/><path class="st38" d="M184 280.7v3.3c0 .9-.3 1.6-.9 2.2-.6.6-1.4.9-2.2.9m0-6.4h20.4"/><path class="st39" d="M193.3 296.6h3.3m-3.3 2.1l3.3.1"/><path class="st40" d="M185 341.4h1.8m-1.1.9h1.7m11.3-.9h1.8m-1.1.9h1.7"/><path class="st12" d="M203 286c-.2.2-.4.4-.8.6-.4.2-.8.2-1 .2h-.2c-.3 0-.6-.1-1 0-.4 0-.8.1-1 .1l-.5.1c-.3.1-.5 0-.8-.2s-.4-.4-.5-.8l-.1-.4c-.1-.3-.1-.7 0-1 .1-.4.2-.7.4-.9l1-1.1c.2-.2.5-.4.8-.5.4-.1.7-.2 1-.1l1.4.2c.9.2 1.5.7 1.8 1.5.2.9 0 1.6-.5 2.3z"/><path class="st41" d="M195.5 231.7l3.9-2.3c.4.8.4 1.7.1 2.5-.3.9-.8 1.5-1.6 1.9l-2.4-2.1z"/><path class="st42" d="M180.1 285h3.5c-.2.7-.6 1.2-1.2 1.6-.6.4-1.2.6-1.9.6h-3.5c.2-.6.6-1.2 1.2-1.5.5-.5 1.2-.7 1.9-.7z"/><path class="st43" d="M189.4 255.7c-.5-.5-.7-1.1-.7-1.8v-3.6h5.1v3.6c0 .7-.2 1.3-.7 1.8-.5.5-1.1.7-1.8.7-.8 0-1.4-.2-1.9-.7zm-5.2-18.1c.8 0 1.4.3 1.9.8.5.6.8 1.2.8 2.1 0 .8-.3 1.5-.8 2.1s-1.2.8-1.9.8c-.8 0-1.4-.3-1.9-.8-.5-.6-.8-1.3-.8-2.1s.3-1.5.8-2.1c.5-.5 1.2-.8 1.9-.8zm11.8-8.7c1.3 1 1.9 2.4 1.9 4.1v12.4c0 1.8-.6 3.3-1.9 4.6-1.3 1.3-2.8 1.9-4.6 1.9h-.5c-1.8 0-3.3-.6-4.6-1.9-1.3-1.3-1.9-2.8-1.9-4.6v-12.4c0-1.7.6-3.1 1.9-4.1 1.2-1 2.7-1.4 4.6-1.4h.5c1.9 0 3.4.5 4.6 1.4zm3.8 9.2c.5.6.8 1.3.8 2.1s-.3 1.5-.8 2.1-1.2.8-1.9.8c-.8 0-1.4-.3-1.9-.8-.5-.6-.8-1.3-.8-2.1s.3-1.5.8-2.1 1.2-.8 1.9-.8c.8 0 1.4.3 1.9.8z"/><path class="st44" d="M184.8 242.8c0 1 .3 1.9 1 2.6.7.7 1.5 1.1 2.4 1.1h5.6c.9 0 1.8-.4 2.4-1.1.7-.7 1-1.6 1-2.6v-5.7c.4.4.6 2 .7 4.7 0 1.3 0 2.6-.1 3.9 0 2.9-.5 4.9-1.5 5.9-.5.5-1.1.9-1.8 1.1-.7.2-1.5.3-2.5.3h-2c-1 0-1.9-.1-2.5-.3-.8-.2-1.4-.5-1.9-1-1-1-1.5-2.9-1.5-5.7-.1-1.3-.1-2.6-.1-4 0-2.8.3-4.4.7-4.8l.1 5.6zm10.6-14c.8-.1 1.3-.1 1.6-.1.5 0 .8.2 1 .5.2.4.3 1 .3 1.8v1.5c0 1.2 0 2.4-.1 3.5-.2 3.4-.4 5.4-.8 5.8v-6.2c0-1.1-.3-2-1-2.8s-1.5-1.2-2.4-1.2h-5.6c-.9 0-1.8.4-2.4 1.2-.7.8-1 1.7-1 2.8v6.2c-.4-.5-.7-2.4-.8-5.8 0-1.1-.1-2.2-.1-3.5v-1.5c0-1.7.4-2.8 1.3-3.6.8-.6 1.9-.9 3.6-.9l4.6 2.5c.3 0 .9-.1 1.8-.2zm-7.7 15.1c.7-.3 1.8-.5 3.4-.5 1.6 0 2.7.1 3.4.5.9.4 1.4 1.2 1.4 2.4 0 1.3-.5 2.5-1.4 3.4s-2.1 1.4-3.4 1.4c-1.3 0-2.5-.5-3.4-1.4s-1.4-2.1-1.4-3.4c0-1.2.4-2 1.4-2.4z"/><path class="st43" d="M192.6 246.4c.4.1.9.2 1.3.2 0 .3-.3.6-.9.9-.6.2-1.3.4-2.1.4s-1.5-.1-2.1-.4c-.6-.2-.9-.5-.9-.9h.4l.9-.1c.9-.2 1.5-.6 1.8-1.1.1.4.7.8 1.6 1z"/><path class="st41" d="M199.1 227.8l-.9 6.7-.3-.6c-.3-.4-.7-.8-1.2-1-1.5-.8-3.4-.6-5.8.6-.3-.2-.8-.5-1.3-.7-1.1-.4-2-.6-2.9-.4-.9.2-1.6.6-2.2 1.3-.2.2-.3.4-.4.7-.1.1-.1.2-.1.3v-4.2c0-.4 0-.8.2-1.4.3-1 .9-1.9 1.7-2.6.8-.6 1.5-1.1 2.1-1.4.3-.2.6-.3.7-.3l.2.4c.2.3.4.4.7.5.3-.8 1-1.3 2.1-1.6.5-.1 1.1-.2 1.5-.2l-.4.8c-.2.6-.3 1.1-.2 1.5.4-.6 1.2-.9 2.4-.8.6 0 1.1.1 1.6.2l-.2.9c-.2.7-.4 1.4-.5 2.1.8-.7 1.6-1.1 2.4-1.1.3 0 .6.1.8.3z"/><path d="M188.3 238.3c-.1.1-.2.2-.4.2s-.3-.1-.4-.2c-.1-.1-.1-.2-.1-.4s0-.3.1-.4c.1-.1.3-.1.4-.1.2 0 .3 0 .4.1.1.1.2.3.2.4s-.1.3-.2.4zm6.3 0c-.1.1-.2.2-.4.2s-.3-.1-.4-.2c-.1-.1-.1-.2-.1-.4s0-.3.1-.4c.1-.1.3-.1.4-.1s.3 0 .4.1c.1.1.2.3.2.4s-.1.3-.2.4z"/><path class="st45" d="M179.5 256.6c1.4-1.4 3.1-2.1 5-2.1h12.5c2 0 3.7.7 5.1 2.1 1.4 1.4 2.1 3.1 2.1 5l-.8 35.3h-25.4l-.5-35.3c0-2 .6-3.7 2-5z"/><path class="st33" d="M185.7 262.1l-1.9-2.6 2.9-5 3.5 32.2-7.1-22.5 2.6-2.1zm10 0l2.7 2.1-8.2 22.5 4.6-32.2 2.8 5-1.9 2.6z"/><path class="st46" d="M186.7 254.5h8.5l-5 32.2-3.5-32.2z"/><path class="st4" d="M188 252.9l3 4.5-2.9 3-2.8-4.9 2.7-2.6zm5.8 0l2.7 2.7-2.6 4.8-2.9-3 2.8-4.5z"/><path class="st47" d="M191 257.4l1.5 14.9-2.3 14.4-1.6-14.4 2.4-14.9zm0 0l2.2 2.3-2.4 2.8-2.1-2.7 2.3-2.4z"/><path class="st45" d="M208.1 261.9c1.5 1.3 3.4 2.4 5.9 3.4l.7.1c2-.4 4-.8 5.9-1.3 4.9-1.4 8.7-2.7 11.3-3.9l2.2 5c-2.7 1.2-6.7 2.7-12 4.4-1.3.4-2.5.7-3.6.9-.1 0-1 .3-2.7.7l1.4-.4c-1.4.4-2.4.5-3.1.4-3.9-1.3-7-3-9.5-5.1-3.2-2.8-5.3-4.8-6.1-5.9s-1.2-2-1.3-2.6l3.8-2c1.2.9 2 1.7 2.6 2.3.6.6 2.1 1.9 4.5 4z"/><path class="st12" d="M174.3 289.5l.1 2.9c0 .9-.1 1.5-.4 1.9l-.1.2c-.4.6-.7 1.2-.9 1.9l-.1.5c-.1.3-.3.5-.5.6-.3.2-.6.2-.9.1l-.4-.1c-.3-.1-.6-.2-.9-.5-.3-.3-.5-.5-.6-.8l-.5-1.4c-.1-.3-.1-.6 0-1 0-.4.2-.7.3-.9l.7-.9c.2-.3.7-1.5 1.3-3.5l2.9 1z"/><path class="st45" d="M175.9 259.5c1.3-1.6 2.7-2.8 4.2-3.8.8-.5 1.5-.9 2-1.1l1.7 5.2c-.4.1-.8.4-1.3.8-1 .8-2 1.8-2.9 3-1.9 2.6-3.2 6-4.1 10.1-.4 2.1-.7 4.4-.8 6.9-.1 3-.2 6-.2 8.8h-5.5c0-3 0-6 .2-9.1.1-2.4.4-4.6.7-6.7 1-5.7 3-10.5 6-14.1z"/><path class="st4" d="M233.3 304.2h-.1v.1l-.5-.2c-8.8-5.6-12.7-17.7-11.7-36.4l.1-.4c12.5-1.2 23.1-3.4 31.6-6.5l.4.5c-.5 14.4 3.6 24.7 12.3 30.7h.3-.1c-9.2 5.6-20.1 8-32.6 7.2l.3.1c.8.8 1 1.9.7 3.2-.3.6-.5 1.1-.7 1.7zm6.1-16.4l2.8.7 1.4-3.7-1.4 3.7-2.8-.7zm8-8.8l2.8.7 1.5-3.7-1.5 3.7-2.8-.7zm2.1 6.3l2.8.7 1.4-3.7-1.4 3.7-2.8-.7zm1.6 2.5l2.8.7 1.5-3.7-1.5 3.7-2.8-.7zm-3.2-5.5l2.8.7 1.5-3.7-1.5 3.7-2.8-.7zm-5.5 10.9l2.8.7 1.4-3.7-1.4 3.7-2.8-.7zm-1.2-2.7l2.8.7 1.4-3.7-1.4 3.7-2.8-.7zm11.6.5l2.8.7 1.4-3.7-1.4 3.7-2.8-.7zm-28.7-7.8l10.4-2-10.4 2zm.6 3.8l10.4-2-10.4 2zm12.5-6l2.8.7 1.4-3.7-1.4 3.7-2.8-.7zm1.1 3.3l2.8.7 1.4-3.7-1.4 3.7-2.8-.7zm-9.6 12l10.4-2-10.4 2zm-1.5-3.1l10.4-2-10.4 2zm-1.4-3.2l10.4-2-10.4 2zm-2.3-11.1l27.4-5.9-27.4 5.9zm2.3-4.6l21.1-4.3-21.1 4.3z"/><path class="st48" d="M265.5 292l.1.1s-.1 0-.1-.1c.1 0 .1.1.1.1.5 1.3.2 2.8-.8 4.5-4.3 3-9.1 5.2-14.5 6.5-5.2 1.2-10.9 1.6-17 1.1.2-.5.4-1.1.5-1.7.3-1.3.1-2.4-.7-3.2l-.3-.1c12.6.8 23.5-1.6 32.7-7.2z"/><path class="st49" d="M239.4 287.8l2.8.7 1.4-3.7m-1.2 8.4l2.8.7 1.4-3.7m-5.4.3l2.8.7 1.4-3.7m-8.2-6.5l2.8.7 1.4-3.7m-3.1 6.3l2.8.7 1.4-3.7"/><path class="st50" d="M247.4 279l2.8.7 1.5-3.7m-2.2 9.3l2.8.7 1.4-3.7m-2.6 5.5l2.8.7 1.5-3.7m-7.5-2.5l2.8.7 1.5-3.7m.6 11.7l2.8.7 1.4-3.7"/><path class="st51" d="M253.1 261.3c-.5 14.4 3.6 24.7 12.3 30.7h.1v.1h.1m0-.1v.2c.5 1.3.2 2.8-.8 4.5-4.3 3-9.1 5.2-14.5 6.5-5.2 1.2-10.9 1.6-17 1.1h-.1m-.6-.2c-8.8-5.6-12.7-17.7-11.7-36.4m.1-.4c12.5-1.2 23.1-3.4 31.6-6.5m-28.5 22.4l10.4-2m-9.8 5.8l10.4-2m-6.4 11.3l10.4-2m-11.9-1.1l10.4-2m-4.8 8c12.6.9 23.4-1.5 32.6-7.2m-32.1 12.2c.2-.5.4-1.1.5-1.7.3-1.3.1-2.4-.7-3.2m-7.3-9.3l10.4-2m-12.7-9.1l27.4-5.9m-25.1 1.3l21.1-4.3"/><path class="st12" d="M234.2 265.5l-1.6-2.4-.4-2.2c1.2-.3 2.9.2 5.3 1.6l1.2.4c.3.1.6.2.8.5.3.2.5.5.6.8l.4 1.4c.1.3.1.6 0 1s-.2.7-.4.9l-.2.3c-.2.3-.5.4-.8.5s-.6 0-.8-.1l-.4-.3c-.5-.4-1.2-.8-1.9-.9l-.3-.1c-.5-.3-1-.7-1.5-1.4z"/><path class="st52" d="M285.5 157.1c-.3-.7-.5-1.3-.5-2 0-.4-.1-.9-.3-1.3l-.3-.5.6.8c.2.7.4 1.7.5 3zm.2-4.1l.6-.8-.3.5c-.2.4-.3.9-.3 1.3 0 .7-.2 1.4-.5 2.1-.1-1.2.1-2.3.5-3.1z"/><path class="st53" d="M284.8 152.7c.4.8.6 1.8.6 3.1-.3-.7-.5-1.3-.5-2.1 0-.4-.1-.9-.3-1.3l-.3-.5.5.8zm.7 4.5c-.1-.7-.1-1.4.2-2.1.1-.4.2-.9.1-1.3l-.2-.5.3.8c.1.9 0 1.9-.4 3.1z"/><path class="st52" d="M285.1 157.8c-.5-.6-.9-1.3-1.1-2-.1-.4-.4-.9-.7-1.3l-.5-.5.8.7c.7.8 1.2 1.8 1.5 3.1zm-.6-1c-.3-1.3-.4-2.3-.3-3.1l.4-.8-.2.5c-.1.5-.1.9 0 1.3.3.8.3 1.4.1 2.1z"/><path class="st53" d="M282.5 152.7l.8.7c.6.7 1.1 1.7 1.4 3-.5-.6-.9-1.3-1-2-.1-.4-.4-.9-.7-1.3l-.5-.4zm2.7 5.2c-.3-.7-.4-1.3-.4-2.1 0-.4-.1-.9-.3-1.3l-.3-.5.5.8c.4.8.6 1.8.5 3.1z"/><path class="st54" d="M286.1 156.7l-.1.1c-.3.5-.5 1.2-.4 2.1l.2 1.2c.8.9 1.2 2.4 1.1 4.4 0 1-.1 1.9-.2 2.7h-3.6c-.2-.8-.2-1.7-.2-2.7 0-2 .4-3.5 1.1-4.4.1-.4.2-.8.2-1.2.1-.9 0-1.6-.4-2.1l-.1-.1h2.4z"/><path class="st55" d="M289.4 138.9h1.4v11.6h-1.4v-11.6z"/><path class="st56" d="M288 136h1.4v14.5h-1.4v-14.5z"/><path class="st57" d="M286.5 136h1.4v14.5h-1.4v-14.5z"/><path class="st58" d="M289.5 147.9h1.4v1.6h-1.4v-1.6zm-1.5 0h1.4v1.6h-1.4v-1.6zm-1.5 0h1.4v1.6h-1.4v-1.6z"/><path class="st59" d="M285 135.9h1v14.6h-1v-14.6z"/><path class="st60" d="M285 148h1v1.6h-1v-1.6z"/><path class="st61" d="M283.9 135.9h1v14.6h-1v-14.6z"/><path class="st60" d="M284 148h1v1.6h-1v-1.6z"/><path class="st62" d="M282.9 135.9h1v14.6h-1v-14.6z"/><path class="st60" d="M282.9 148h1v1.6h-1v-1.6z"/><path class="st63" d="M281.8 135.9h1v14.6h-1v-14.6z"/><path class="st60" d="M281.8 148h1v1.6h-1v-1.6z"/><path class="st61" d="M280.8 135.9h1v14.6h-1v-14.6z"/><path class="st60" d="M280.8 148h1v1.6h-1v-1.6z"/><path class="st4" d="M273.8 140.9h6.9v9.5h-6.9v-9.5z"/><path class="st64" d="M277.2 141.8h2.9v7.7h-2.9v-7.7z"/><path class="st65" d="M274.4 141.8h2.9v7.7h-2.9v-7.7z"/><path class="st66" d="M279.8 142.2h.1v7.1h-.1v-7.1zm-5.1 0h5.2v.2h-5.2v-.2z"/><path class="st4" d="M262.3 142.5h11v8.1h-11v-8.1z"/><path class="st67" d="M267.8 143.2h4.6v6.5h-4.6v-6.5z"/><path class="st68" d="M263.2 143.2h4.6v6.5h-4.6v-6.5z"/><path class="st66" d="M271.9 143.5h.2v6h-.2v-6zm-8.1 0h8.2v.1h-8.2v-.1z"/><path class="st55" d="M280.1 189.4h2v11.3h-2v-11.3z"/><path class="st56" d="M278 186.5h2v14.1h-2v-14.1z"/><path class="st57" d="M275.9 186.5h2v14.1h-2v-14.1z"/><path class="st58" d="M280.1 198.1h2v1.5h-2v-1.5zm-2.1 0h2v1.5h-2v-1.5zm-2.1 0h2v1.5h-2v-1.5z"/><path class="st59" d="M273.7 186.4h1.5v14.2h-1.5v-14.2z"/><path class="st60" d="M273.7 198.2h1.4v1.5h-1.4v-1.5z"/><path class="st61" d="M272.2 186.4h1.5v14.2h-1.5v-14.2z"/><path class="st60" d="M272.3 198.2h1.4v1.5h-1.4v-1.5z"/><path class="st62" d="M270.8 186.4h1.4v14.2h-1.4v-14.2z"/><path class="st60" d="M270.8 198.2h1.4v1.5h-1.4v-1.5z"/><path class="st63" d="M269.3 186.4h1.5v14.2h-1.5v-14.2z"/><path class="st60" d="M269.3 198.2h1.4v1.5h-1.4v-1.5z"/><path class="st61" d="M267.8 186.4h1.4v14.2h-1.4v-14.2z"/><path class="st60" d="M267.8 198.2h1.4v1.5h-1.4v-1.5z"/><path class="st69" d="M266.8 190.5h16.5v10.1h-16.5v-10.1z"/><path class="st70" d="M275 190.5h8.2v10.1h-8.2v-10.1z"/><path class="st71" d="M266.7 193.1h16.7v1.2h-16.7v-1.2z"/><path class="st72" d="M263.4 162.4h7.6v4.9h-7.6v-4.9z"/><path class="st73" d="M267.2 162.4h3.8v4.9h-3.8v-4.9z"/><path class="st74" d="M263.3 162.1h7.7v.6h-7.7v-.6z"/><path class="st75" d="M263.3 162.1h7.7v.6h-7.7v-.6z"/><path class="st72" d="M263.4 157.2h7.6v4.9h-7.6v-4.9z"/><path class="st73" d="M267.2 157.2h3.8v4.9h-3.8v-4.9z"/><path class="st74" d="M263.3 157h7.7v.5h-7.7v-.5z"/><path class="st75" d="M263.3 157h7.7v.5h-7.7v-.5z"/><path class="st72" d="M271.8 162.4h7.6v4.9h-7.6v-4.9z"/><path class="st73" d="M275.6 162.4h3.8v4.9h-3.8v-4.9z"/><path class="st74" d="M271.8 162.1h7.7v.6h-7.7v-.6z"/><path class="st75" d="M271.8 162.1h7.7v.6h-7.7v-.6z"/><path class="st72" d="M271.8 157.2h7.6v4.9h-7.6v-4.9z"/><path class="st73" d="M275.6 157.2h3.8v4.9h-3.8v-4.9z"/><path class="st74" d="M271.8 157h7.7v.5h-7.7v-.5z"/><path class="st75" d="M271.8 157h7.7v.5h-7.7v-.5z"/><path class="st7" d="M291.1 150.3v-15.6h-29.1v15.6h29.1zm0 34.7h-29.1v15.6h29.1v-15.6zm-29.1-16.8v15.6h29.1v-15.6h-29.1zm0-16.8v15.6h29.1v-15.6h-29.1zm29.1-34.6h1.7v85h-32.5v-85h1.7v16.8h29.1v-16.8z"/><path class="st76" d="M263.2 176h5.9v7.8h-5.9v-7.8z"/><path class="st4" d="M268.8 180.4c0 .7-.3 1.3-.8 1.9-.5.5-1.1.8-1.9.8-.7 0-1.3-.3-1.9-.8-.5-.5-.8-1.1-.8-1.9s.3-1.3.8-1.9c.5-.5 1.1-.8 1.9-.8.7 0 1.4.3 1.9.8.6.6.8 1.2.8 1.9z"/><path class="st76" d="M268.4 180.4c0 .6-.2 1.1-.7 1.6-.4.4-1 .7-1.6.7s-1.1-.2-1.6-.7c-.4-.4-.6-1-.6-1.6s.2-1.1.6-1.6c.4-.4 1-.7 1.6-.7s1.2.2 1.6.7c.5.5.7 1 .7 1.6z"/><path class="st77" d="M267.1 180.4c0 .3-.1.5-.3.6-.2.2-.4.3-.6.3s-.5-.1-.6-.3c-.2-.2-.3-.4-.3-.6 0-.3.1-.5.3-.6.2-.2.4-.3.6-.3s.5.1.6.3c.2.2.3.4.3.6z"/><path class="st76" d="M282.2 176h5.9v7.8h-5.9v-7.8z"/><path class="st4" d="M287.8 180.4c0 .7-.3 1.3-.8 1.9-.5.5-1.1.8-1.9.8-.7 0-1.3-.3-1.9-.8-.5-.5-.8-1.1-.8-1.9s.3-1.3.8-1.9c.5-.5 1.1-.8 1.9-.8.7 0 1.4.3 1.9.8.6.6.8 1.2.8 1.9z"/><path class="st76" d="M287.4 180.4c0 .6-.2 1.1-.7 1.6-.4.4-1 .7-1.6.7s-1.1-.2-1.6-.7c-.4-.4-.6-1-.6-1.6s.2-1.1.6-1.6c.4-.4 1-.7 1.6-.7s1.2.2 1.6.7c.5.5.7 1 .7 1.6z"/><path class="st77" d="M286.1 180.4c0 .3-.1.5-.3.6-.2.2-.4.3-.6.3s-.5-.1-.6-.3c-.2-.2-.3-.4-.3-.6 0-.3.1-.5.3-.6.2-.2.4-.3.6-.3s.5.1.6.3c.2.2.3.4.3.6z"/><path class="st76" d="M281.6 179.8v3.6c0 .1 0 .2-.1.3s-.2.1-.3.1h-11.1c-.1 0-.2 0-.3-.1-.1-.1-.1-.2-.1-.3v-3.6c0-.1 0-.2.1-.3s.2-.1.3-.1h11.1c.1 0 .2 0 .3.1.1.1.1.2.1.3z"/><path class="st4" d="M270.9 182h7.5v.5h-7.5v-.5z"/><path class="st77" d="M281 182c0 .3-.1.5-.3.7-.2.2-.4.3-.6.3-.3 0-.5-.1-.7-.3s-.3-.4-.3-.7.1-.5.3-.6c.2-.2.4-.3.7-.3.3 0 .5.1.6.3.2.2.3.4.3.6z"/><path class="st78" d="M271.8 180.4c0 .1 0 .2-.1.2-.1.1-.2.1-.3.1-.1 0-.2 0-.2-.1-.1-.1-.1-.1-.1-.2s0-.2.1-.3.1-.1.2-.1.2 0 .3.1l.1.3zm2.3 0c0 .1 0 .2-.1.2-.1.1-.1.1-.2.1s-.2 0-.3-.1c-.1-.1-.1-.1-.1-.2s0-.2.1-.3.2-.1.3-.1.2 0 .2.1c.1.1.1.2.1.3zm2.3 0c0 .1 0 .2-.1.2-.1.1-.2.1-.3.1-.1 0-.2 0-.2-.1-.1-.1-.1-.1-.1-.2s0-.2.1-.3.1-.1.2-.1.2 0 .3.1c.1.1.1.2.1.3zm2.4 0c0 .1 0 .2-.1.2-.1.1-.1.1-.2.1s-.2 0-.3-.1c-.1-.1-.1-.1-.1-.2s0-.2.1-.3.2-.1.3-.1c.1 0 .2 0 .2.1l.1.3z"/><path class="st79" d="M271.7 120.6c-.1.2-.1.3 0 .4v-.1c.1-.1.2-.2.4-.2l-.1.1c-.1.1-.2.2-.2.3v.2s0 .1.1.2c.1.3.1.6.1.7l-.2.4c-.2.1-.3.2-.3.2l-.2.2v-.3c.4-.2.6-.4.6-.7 0-.1-.1-.3-.2-.5-.2-.3-.2-.5-.1-.7.2-.3.4-.5.5-.5-.3.1-.3.2-.4.3z"/><path class="st80" d="M273.1 120.8h.3c-.2.1-.4.2-.5.4l-.1.3c.1.1.1.3-.1.6.1-.1.3-.1.5-.1.1 0 .2.1.4.2-.2-.1-.3-.1-.3-.1h-.3c-.1 0-.3.1-.4.2 0 0-.1.1-.2.3-.1.1-.1.2-.2.2s-.2.1-.4.1-.3.1-.4.2v.1l-.1-.2c-.1-.1 0-.2 0-.2.1-.1.3-.1.6-.1s.6-.1.7-.4c.1-.1.1-.3.1-.4v-.2c-.1-.4-.2-.6-.3-.9 0-.2 0-.5.1-.7.1-.1.1-.2.2-.2-.2.2-.3.4-.2.6 0 .1 0 .2.1.2 0 0 .1-.1.2-.1h.1c-.1.1-.1.2-.2.4v.3c0 .1 0 .1.1.1-.1-.4.1-.6.3-.6z"/><linearGradient id="SVGID_3_" gradientUnits="userSpaceOnUse" x1="12241.784" y1="-5600.402" x2="12221.76" y2="-5626.578" gradientTransform="matrix(.326 0 0 -.326 -3717.071 -1701.226)"><stop offset="0" stop-color="#fff"/><stop offset="0" stop-color="#C49A6C"/><stop offset="0" stop-color="#FBB040"/><stop offset=".11" stop-color="#E7A850"/><stop offset=".522" stop-color="#A97C50"/><stop offset=".855" stop-color="#8B5E3C"/></linearGradient><path class="st81" d="M271.3 122.1l-.1.3v.2c.1 0 .1.2.1.4.2-.1.4-.1.7 0-.1 0-.1 0-.2.1l-.1.2c-.1.1-.1.1-.2.1h-.1c0 .4-.1.7-.4.8-.4.2-.7.5-.9.9-.1.1-.1.3-.1.6 0 .1.1.2.2.3.1.1.2.2.4.3l.5.3.5.2c.2 0 .4.2.7.3.1 0 .3.1.6.3.2.1.3.2.4.4.3 0 .4-.1.5-.5 0 .1 0 .3-.1.4-.1.2-.2.3-.3.3v.1c.1.2.1.4.1.7 0 .2-.1.4-.2.5-.2.3-.4.4-.7.5-.2 0-.3.1-.3.2l-.1.2c-.1.2-.1.3-.1.4 0 .1.1.2.1.4.1.2.2.3.3.2-.3.4-.4.7-.4 1.1 0 .2 0 .3.1.4.1.2.1.3 0 .4.1 0 .1.1.2.2v.3c-.1 0-.2-.1-.3-.2l-.1-.2c-.1-.2-.1-.5-.1-1v-.8l.1-.1c-.2-.2-.3-.4-.4-.5 0 0-.1-.3-.1-.7v-.7l.1-.3c-.2 0-.5-.1-.8-.1-.3-.1-.7-.3-1.1-.6-.2-.1-.3-.3-.4-.4l-.1-.2c-.1.2-.3.4-.5.4h-.2l-.3-.2-.7-.7c-.1-.1-.2-.1-.2.1s.2.5.4 1.1l.2.2c.1.1 0 .1 0 .1.1 0 .2.1.2.2.1.1 0 .2-.1.2l.1.2c-.2 0-.3-.1-.4-.2v-.1l-.1-.2c-.1-.1-.1-.2-.1-.2v-.1c-.3-.6-.4-1.1-.5-1.3-.1-.2 0-.4.2-.5h.4l.8.5c.1.2 0 .1 0-.1-.1-.3-.1-.6 0-.9 0-.1 0-.2.1-.3 0 0 .1-.2.2-.5.1-.2.2-.4.4-.5.1-.1.2-.1.2-.1.2-.1.6-.3 1-.8.1-.2.1-.3 0-.5-.3-.2-.5-.3-.7-.4-.1-.1-.2-.1-.2-.1v-.2s0-.1.1-.1h.2l.2.1c.1.1.4.1.7.1l.1-.1h.4c0-.1 0-.3.1-.4-.1-.3 0-.4.1-.4z"/><path class="st82" d="M271.6 130.5l.2.6-.1.7c-.1.5-.1.8 0 1l.1.1-.1.1.1.1c.1.1.1.2 0 .3-.1 0-.2-.1-.2-.2-.1-.1-.1-.2-.1-.3l-.1-2.9c-.1 0 0 .1.2.5z"/><path class="st83" d="M270.2 124.8c.1.1 0 .1 0 0zm0 .1c0 .1-.1.1-.1.1-.1-.1-.2-.1-.4-.3-.2-.2-.3-.3-.3-.4v-.2h.1-.1c0 .1.1.2.3.4.2.2.4.3.5.4zm0 0l.1-.1-.1.1z"/><path class="st84" d="M270 124.8l.1.1-.1-.1zm-.3-.2c.1.1 0 .1 0 0zm-.3-.3l.1.1-.1-.1zm0-.1c-.1.1-.1 0 0 0z"/><path class="st85" d="M264.9 132.8h8.7v.6h-8.7v-.6z"/><use xlink:href="#кно" width="120.6" height="212.4" x="-60.3" y="-106.2" transform="matrix(.522 0 0 -.522 362.084 154.323)" overflow="visible"/><path class="st11" d="M297.4 148.1l-3.5-8.9 5.1-2 2.7 6.9c.2.5.2 1.1 0 1.6s-.6.9-1.1 1.1l-3.2 1.3z"/><path class="st12" d="M303.7 164.2v2.7c0 1.9-.1 3.9-.3 5.9-.1 2.1-.3 4-.5 5.8l-.3 2.7c0 .4-.2.6-.5.9-.3.2-.6.3-.9.2-.4 0-.6-.2-.8-.5-.2-.3-.3-.6-.2-.9.4-2.8.7-5.5.8-8.3.1-1.7.2-3.6.3-5.8v-2.6l2.4-.1z"/><path class="st13" d="M300.5 172.8l3.2.2-.4 4.1c-.1 1.4-.3 2.8-.5 4.1-.1.5-.3.8-.6 1.1-.4.3-.8.4-1.2.3-.4-.1-.8-.3-1.1-.7-.3-.4-.4-.8-.3-1.2l.5-4 .4-3.9z"/><path class="st14" d="M303.5 153.6c.4.3.6.8.7 1.3l.2 5.1c0 1.7.1 3.4 0 5.1h-3.9v-5l-.2-5c0-.5.1-1 .5-1.4s.8-.6 1.3-.6 1 .2 1.4.5z"/><path class="st15" d="M309.4 206.4c.3.3.5.8.5 1.2l-.5 12.4c0 .5-.2.9-.5 1.2s-.7.5-1.2.5-.9-.2-1.2-.5c-.3-.4-.5-.8-.5-1.3l.5-12.3c0-.5.2-.9.5-1.3.3-.3.7-.5 1.2-.5.5.1.9.3 1.2.6z"/><path class="st16" d="M311 173.4c.5.5.7 1.2.7 2l-.4 42.4h-5.8l.4-42.4c0-.8.2-1.4.7-2 .5-.5 1-.8 1.7-.8h1c.7 0 1.2.3 1.7.8z"/><path class="st17" d="M311 216.3h-5.8v-.7h5.8v.7zm-5.8-2.8h5.8v.7h-5.8v-.7z"/><path class="st1" d="M309.1 218.9c.5 0 .8.2 1.2.5.3.3.5.7.5 1.2v3.1h-7.8v-3.3c.4 0 .8-.1 1.1-.4.3-.3.5-.6.5-1.1h4.5z"/><path class="st17" d="M300.4 222.5c0-.6.2-1.1.6-1.5s.9-.6 1.5-.6h.9c.6 0 1.1.2 1.5.6.4.4.6.9.6 1.5v1.2h-5.2l.1-1.2zm10.4-2.1v3.3h-2.1v-1.2c0-.6.2-1.1.6-1.5s.9-.6 1.5-.6z"/><path class="st1" d="M307.6 219h-3v-.4c0-.3.1-.5.3-.7.2-.2.4-.3.7-.3h1c.3 0 .5.1.7.3s.3.4.3.7v.4zm-7.2 3.6h10.4v1.1h-10.4v-1.1z"/><path class="st86" d="M306 219.3h-1.5m1 .8h-1.5"/><path class="st11" d="M307.8 142.6c-.3.4-.9.8-1.6 1.2-.6.4-1.4.6-2.2.8l-.3-2.5c.8-.6 1.5-1.4 2.2-2.5.7-1.2 1.1-2.2 1.3-3.1.6.4 1 1.1 1.2 2 .2.7.2 1.5.1 2.4 0 .6-.2 1.2-.7 1.7z"/><path class="st14" d="M300.2 153.7l5.7-5.9 8.2.4 5.5 19.9-10.3 5.3-3.2-8.3-1.2-2.4c-.8-.3-1.5-.7-2.1-1.4s-.9-1.5-.9-2.5l-.1-2.2-1.6-2.9z"/><path class="st19" d="M308.4 148.2c.2.5.2 1-.1 1.4-.2.5-.6.8-1.1.9-.5.2-1 .2-1.4-.1-.5-.2-.8-.6-1-1l-2.1-5.9c-.2-.5-.1-1 .1-1.4.2-.5.6-.8 1-1 .5-.2 1-.1 1.4.1s.8.6 1 1l2.2 6zm-4.7-16.5c.8.6 1.4 1.5 1.8 2.5l1.8 4.5c.7 1.6.5 3.4-.6 5.3-1.1 2-2.7 3.4-4.9 4.3-1.3-.1-2.3-.4-3-1-.8-.6-1.5-1.6-2.2-3-.3-.6-.7-1.7-1.4-3.3l-.9-2.3c-.4-1-.6-2-.5-3l9.9-4z"/><path class="st20" d="M302.6 143.2c.1.5 0 .9-.2 1.3s-.6.7-1 .9c-.5.2-.9.2-1.4 0s-.8-.4-1-.9l3.6-1.3z"/><path class="st11" d="M296.2 132.4l.8 2.2c-.6.7-1.1 1.6-1.5 2.7-.4 1.2-.6 2.2-.5 3.1-.7-.3-1.3-.7-1.8-1.3-.4-.6-.6-1.2-.7-1.9-.1-1.1.5-2.3 1.9-3.5.5-.6 1.1-1 1.8-1.3z"/><path class="st21" d="M308.5 137.2l-.9 1.5-1.6.6c-.3.1-.5.1-.8 0s-.5-.3-.6-.6l-.3-.7c-1.6 0-3.2-.2-4.6-.6-1.5-.5-2.9-1.2-4-2.1-.8-.6-1.3-1.1-1.7-1.4 1.2-1.1 2.2-2 3.1-2.5 1.2-.8 2.4-1.3 3.7-1.5 1.5-.3 3-.1 4.3.6 1.4.7 2.3 1.8 2.9 3.2.2.6.4 1.8.5 3.5z"/><path class="st22" d="M300.8 139.5c-.1-.1 0-.3 0-.4.1-.1.1-.2.3-.3.1-.1.3-.1.4 0l.3.3c.1.2.1.3 0 .4l-.3.3c-.1.1-.3 0-.4 0l-.3-.3zm-4.1 1.6c-.1-.1 0-.3 0-.4.1-.1.1-.2.3-.3.1-.1.3-.1.4 0l.3.3c.1.2.1.3 0 .4l-.3.3c-.1.1-.3 0-.4 0-.2 0-.3-.1-.3-.3z"/><path class="st19" d="M306.7 136.6c.4-.2.9-.2 1.3 0s.8.5.9 1c.2.4.2.9 0 1.3s-.5.7-.9.9l-1.6.6-.6-1.6c-.2-.4-.2-.9 0-1.3s.5-.7.9-.9z"/><path class="st15" d="M319.5 207.4c.1 1.3.1 3.3 0 6.1 0 2.6 0 4.7.1 6.1 0 .5-.1.9-.4 1.3-.3.4-.7.5-1.2.6-.5 0-.9-.1-1.2-.4-.4-.3-.5-.7-.6-1.2-.1-1.4-.1-3.5-.1-6.1v-6.2c0-.5.1-.9.4-1.3.3-.4.7-.5 1.2-.6.5 0 .9.1 1.2.5.4.3.6.8.6 1.2z"/><path class="st16" d="M317.8 172.7c.6 0 1.4.5 2.4 1.4.6.5 1.1.9 1.5 1.4l-.7 42.1-5.9.4c-.3-5.6-.4-12.7-.6-21.2-.2-13.7-.2-20.7-.3-21.2 0-.8.2-1.5.7-2 .5-.6 1-.8 1.7-.9h1.2z"/><path class="st1" d="M320.1 215.9l-5.8.4-.1-.7 5.8-.4.1.7zm-6-2.4l5.8-.3v.7l-5.8.3v-.7zm5.1 5.4c.5 0 .8.2 1.2.5.3.3.5.7.5 1.2v3.1h-7.8v-3.3c.4 0 .8-.1 1.1-.4.3-.3.5-.6.5-1.1h4.5z"/><path class="st17" d="M315 221c.4.4.6.9.6 1.5v1.2h-5.2v-1.2c0-.6.2-1.1.6-1.5s.9-.6 1.5-.6h.9c.7 0 1.2.2 1.6.6zm5.8-.6v3.3h-2.1v-1.2c0-.6.2-1.1.6-1.5.5-.4.9-.6 1.5-.6z"/><path class="st1" d="M317.7 219h-3v-.4c0-.3.1-.5.3-.7.2-.2.4-.3.7-.3h1c.3 0 .5.1.7.3s.3.4.3.7v.4zm-7.2 3.6h10.4v1.1h-10.4v-1.1z"/><path class="st86" d="M316.2 219.3h-1.5m1 .8h-1.5"/><path class="st16" d="M319.4 168.1l.9 1.9c.6 1.7.9 3.7.9 5.8 0 2.3-.5 3.7-1.4 4.4-.5.3-1.6.5-3.4.5h-5.3c-1.3 0-2.5-.5-3.4-1.4s-1.4-2.1-1.4-3.4v-7.7h13.1v-.1z"/><path class="st23" d="M319 166.5l.4 1.3v24.4c0 1.4-.5 2.6-1.5 3.7-1 1-2.2 1.5-3.7 1.5h-9l1.2-29.6-2.4-10.6 7.6-2 2.9 9.5c.3.6.8 1 1.3 1.4.6.4 1.2.6 1.7.6l1.5-.2z"/><path class="st15" d="M319.4 168.1h-13v-1.7h13v1.7z"/><path class="st87" d="M310.2 157.5c-.4-3.7.4-7.3 2.4-10.8m-6.5 12.3c-1-1.8-1.7-4.1-2.1-6.7l-.3-3.4"/><path class="st88" d="M307.7 164.9v4.9m1.2-4.9v4.9"/><path class="st21" d="M308 133.7l2.7 6.9c.2.5.2 1.1 0 1.6s-.6.9-1.1 1.1l-3.2 1.3-3.5-8.9 5.1-2z"/><path class="st13" d="M272.8 211l5.5-5.7c.2-.2.4-.3.6-.2.2 0 .4.1.6.2.2.2.3.4.3.6 0 .2-.1.4-.2.6l-5.5 5.7-1.3-1.2z"/><path class="st1" d="M277.9 205.8l46.8-48 1.2 1.2-46.8 48-1.2-1.2z"/><path class="st17" d="M277.5 205.8l2.4-2.5 1.7 1.7-2.4 2.5-1.7-1.7z"/><path class="st89" d="M280.1 203.6l.6-.6 1.2 1.2-.6.6-1.2-1.2z"/><path class="st15" d="M278.5 216.6l-2.6 4.8-12.3-12 4.7-2.8 10.2 10z"/><path class="st90" d="M277.9 216l-2.3 4.3m1.5-5.1l-2.5 4.2m1.7-5l-2.7 4m1.9-4.8l-2.9 3.8m2.1-4.6l-3.1 3.7m2.2-4.5l-3.2 3.5m2.4-4.3l-3.4 3.3m2.6-4.1l-3.6 3.2m2.8-4l-3.8 3m3-3.8l-4 2.8m3.1-3.6l-4.1 2.6m3.3-3.4l-4.3 2.5"/><path class="st91" d="M278.5 216.6l-10.2-10"/><path class="st12" d="M319.5 158.8l1.1-1.7 2.9.4-1.9 2.7c-1.2 1.9-2 3.1-2.4 3.8-.9 1.5-1.5 2.8-1.8 3.8-.1.6-.2.9-.1 1.1v.7s-.1.2-.2.3c-.2.3-.4.6-.6.7-.3.3-.7.3-1 .1-.2-.1-.3-.2-.4-.4l-.3-.6-.1-.8c0-.5.1-1.1.2-1.8.3-1.2 1-2.7 2-4.4.6-.7 1.4-2 2.6-3.9z"/><path class="st14" d="M313.2 148.6c.2-.1.5-.2.8-.2h.4l.4.2.6.3c.5.3.9.6 1.3.9 1.1.8 2.1 1.8 3.2 3.1 1 1.1 1.9 2.2 2.7 3.3l1.2 1.5-3 2.4-1.2-1.5c-1-1.3-1.9-2.3-2.6-3.1-1-1.2-1.9-2-2.7-2.6-.3-.3-.6-.5-.9-.6l-.4-.2-.2-.2-.2-.2-.3-.5c-.2-.5-.2-1-.1-1.4.3-.6.6-1 1-1.2z"/><use xlink:href="#flash0.ai_x5F_5_x2F_Layer_3_x2F__x3C_Path_x3E__x5F_1" width="10.6" height="6" x="-5.3" y="-3" transform="matrix(.356 -.14 -.14 -.356 321.647 157.023)" overflow="visible"/><path class="st13" d="M317 161.6l2.7 1.7-.6 1c-.5.8-.9 1.6-1.1 2.2-.4.8-.6 1.5-.6 2.1v.7c0 .1-.1.4-.2.7-.2.4-.5.8-.7 1-.4.3-.8.4-1.2.2-.2-.1-.4-.2-.6-.5s-.3-.5-.4-.8c0-.1-.1-.3-.1-.5v-1.2c.1-.9.4-1.8.9-3 .3-.7.8-1.6 1.3-2.5l.6-1.1zm-15.1 21.6c.2.2.3.4.2.7 0 .3-.1.5-.3.7-.2.2-.4.3-.7.2l-1.5-.1c-.3 0-.5-.1-.7-.3s-.2-.4-.2-.7.1-.5.3-.7c.2-.2.4-.2.7-.2l1.5.1c.3 0 .5.1.7.3zm-1.5-5.1l2.2.6.1 2.4c0 .7-.1 1.3-.3 1.6l-.1.2c-.3.5-.5 1-.6 1.6l-2.9-1.1c-.1-.2-.1-.5-.1-.8s.1-.6.2-.8l.5-.8c.3-.3.6-1.3 1-2.9z"/><path class="st92" d="M366.4 109l-11.4 6.1.7 1.3 11.4-6-.7-1.4z"/><path class="st23" d="M366.1 124.4c.2.5.5.8.8.9s.6.2.8 0 .4-.4.4-.7c0-.4-.1-.8-.3-1.2l-3.8-6.7c-.3-.6 0-1.6 1.2-2.8.9-1 1.8-1.7 2.7-2.2l-.9-1.7-11.4 6 .9 1.7c.9-.5 2-.8 3.3-1 1.6-.2 2.6 0 3 .6l3.3 7.1z"/><path class="st12" d="M344.9 129.9h2.9l.1 3.7h-3c-.5 0-.9-.2-1.3-.5-.4-.4-.5-.8-.5-1.3s.2-1 .5-1.3c.3-.4.8-.6 1.3-.6z"/><path class="st93" d="M364.5 142.5l3.5-10.5m0 0l-1.1-9.1"/><path class="st23" d="M361.9 147.3l1.1-.7c1-.9 1.9-1.8 2.7-2.7.8-1 1.5-2.1 2-3.2 0 0 .2-.4.5-1.1l.2-.4-4.7-1.7-.1.3c-.2.4-.3.7-.4.8-.3.7-.8 1.5-1.4 2.3-.5.7-1.1 1.3-1.8 1.8l-.9.7c-.3.2-.5.6-.7 1.2-.1.6 0 1.3.2 1.8.3.7.7 1.1 1.3 1.4.6.3 1.2.2 1.8-.1l.2-.4z"/><use xlink:href="#flash0.ai_x5F_5_x2F_Layer_3_x2F__x3C_Path_x3E_" width="12.8" height="9" x="-6.4" y="-4.5" transform="matrix(.393 0 0 .393 365.03 140.394)" overflow="visible"/><path class="st31" d="M345.9 202.8c-.3.4-.5.8-.5 1.3l.2 13.1c0 .5.2.9.5 1.3s.8.5 1.2.5c.5 0 .9-.2 1.2-.6.3-.4.5-.8.5-1.3l-.2-13.1c0-.5-.2-.9-.5-1.3s-.8-.6-1.2-.6c-.5.2-.9.4-1.2.7z"/><path class="st7" d="M343.3 170.5l.6 44.9 6.8-.1-.6-44.9c0-.8-.3-1.5-.8-2.1-.6-.6-1.2-.9-2-.8h-1.3c-.8 0-1.4.3-2 .9-.4.5-.7 1.2-.7 2.1z"/><path class="st94" d="M343.9 213.3l6.8-.1-.1-.7-6.8.1.1.7zm-.1-2.2l6.8-.1v-.8l-6.8.1v.8z"/><path class="st23" d="M342.7 142.6l.6 8.8v18.6h17.7v-18.6l.6-8.8c-3.1-.8-6.3-1.2-9.4-1.2l-3.5.2c-2.2.2-4.2.5-6 1z"/><path class="st12" d="M355.2 141.6c-1.1-.1-2.2-.2-3.1-.2l-3.7.2c.2.7.7 1.3 1.3 1.8.6.5 1.3.7 2.1.7s1.5-.2 2.1-.7c.7-.5 1.1-1.1 1.3-1.8z"/><path class="st7" d="M360.9 162.8h-17.7v8.5c0 1.5.5 2.7 1.6 3.8 1 1 2.3 1.6 3.8 1.6h6.9c1.5 0 2.7-.5 3.8-1.6s1.6-2.3 1.6-3.8v-8.5z"/><path class="st95" d="M356.5 176.6c1.3-.2 2.3-.8 3.1-1.8.9-1 1.3-2.2 1.3-3.5v-8.5h-8.8v8.5c0 1.3.4 2.5 1.3 3.5.8 1 1.8 1.6 3.1 1.8z"/><path class="st12" d="M352.1 133c-.5 0-1 .2-1.4.6-.4.4-.6.8-.6 1.4v6.7l.8 2 3.2-2v-6.7c0-.6-.2-1-.6-1.4s-.9-.6-1.4-.6zm-2.2 5.7h1.7c1.8 0 3.4-.6 4.7-1.9 1.3-1.3 1.9-2.9 1.9-4.7v-7.3h-12.9v8.7c.1 1 .4 2 .8 2.9.5.7 1.8 1.5 3.8 2.3zm9-9h-2.9l-.1 3.7h3c.5 0 .9-.2 1.3-.5.4-.4.6-.8.6-1.3s-.2-1-.6-1.3c-.3-.4-.8-.6-1.3-.6z"/><path class="st35" d="M343.1 123h3l.9-3.2h7.2c.8 0 1.6.2 2.4.6.7.4 1.4.9 1.8 1.6l1 1.4v6.4c-.6 2-1 3.2-1.3 3.7-.3.4-.5.7-.5.7l.1-.3-.2.3c-.1.1-.1.2-.1.2l-.4.5c-.7.7-1.5 1.1-2.3 1.3-.5.1-1.8.1-4.1.1-2 0-3.4-.4-4.2-1.2-.8-.8-1.3-1.9-1.6-3.1-.3-1.3-.4-2.6-.5-4-.1-1.4-.1-2.4 0-3.1l-.4-.3c-.5-.6-.8-1.1-.8-1.6zm15.3 8.8c0 .1 0 .2-.1.3v.2c.1-.4.1-.6.1-.5z"/><path class="st31" d="M357.2 202.7c-.3.4-.5.8-.5 1.3.3 5.8.5 10.1.6 13 0 .5.2.9.6 1.3.4.3.8.5 1.3.5s.9-.2 1.2-.6c.3-.4.5-.8.4-1.3-.2-3.6-.4-8-.6-13 0-.5-.2-.9-.6-1.3-.4-.3-.8-.5-1.3-.5-.4.1-.8.3-1.1.6z"/><path class="st95" d="M354 170.5c.4 17.4.9 32.3 1.6 44.8l6.8-.4c-.7-12.4-1.2-27.3-1.6-44.6 0-.8-.3-1.5-.9-2.1-.5-.6-1.2-.9-2-.8h-1.2c-.8 0-1.4.3-2 .9-.5.7-.7 1.4-.7 2.2z"/><path class="st94" d="M355.5 213.3l6.8-.4v-.7l-6.9.3.1.8zm-.1-2.3l6.8-.3-.1-.8-6.8.4.1.7z"/><path class="st1" d="M362.1 216.6c.3.3.5.7.5 1.2v3.2h-7.5v-3.2c0-.5.2-.9.5-1.2s.6-.4 1-.5h-.2 4.5c.4 0 .8.2 1.2.5z"/><path class="st17" d="M358.7 217.6c-.6 0-1.1.2-1.6.7-.4.4-.6.9-.6 1.5v1.2h2.2v-3.4z"/><path class="st1" d="M360.3 216.2v-.4c0-.3-.1-.5-.3-.7-.2-.2-.4-.3-.7-.3h-1.1c-.3 0-.5.1-.7.3s-.3.4-.3.7v.4h3.1z"/><path class="st17" d="M358.8 217.6c.6 0 1.1.2 1.6.7.4.4.6.9.6 1.5v1.2h-2.2v-3.4z"/><path class="st1" d="M355.4 219.9h7.3v1.1h-7.3v-1.1z"/><path class="st96" d="M360.9 164.2h-17.6"/><path class="st97" d="M350.2 177.9h-2.9m2.9 1.8l-2.9.1"/><path class="st12" d="M364.2 123.1c-.1-.2-.2-.5-.2-.9s.1-.7.2-.9l.1-.2c.1-.2.3-.5.4-.8l.3-.9.1-.5c0-.2.2-.4.4-.6s.5-.2.8-.1h.3c.3.1.5.2.8.4.3.2.5.4.6.7l.5 1.2c.1.2.1.5.1.8s-.1.6-.3.8l-.7 1.1c-.5.6-1.1.9-1.9.8-.6.1-1.2-.2-1.5-.9zm-27.1 49.5l.1 2.5c0 .7-.1 1.3-.4 1.6l-.1.2c-.4.5-.6 1-.8 1.6l-.1.5c-.1.2-.2.4-.5.6-.2.1-.5.2-.8.1l-.3-.1c-.3-.1-.5-.2-.8-.4-.2-.2-.4-.5-.5-.7l-.4-1.2c-.1-.2-.1-.5 0-.8 0-.3.1-.6.3-.8l.6-.8c.2-.3.6-1.3 1.2-3l2.5.7zm3.9-18.9l-.3.8c-.4 1.3-.6 2-.6 2.1-.6 2-1.1 4.2-1.5 6.6-.3 1.9-.7 4.2-1 6.7-.1 1.2-.2 2.3-.3 3.1 0 .4-.2.7-.6 1s-.8.4-1.2.3c-.5 0-.8-.2-1.1-.5-.3-.3-.4-.7-.4-1.1l.3-3.2c.3-2.5.6-4.8 1-7 .4-2.5 1-4.8 1.6-6.9.3-1.1.6-1.9.7-2.2l.3-.8 3.1 1.1z"/><path class="st23" d="M342 142.7c.6-.2 1.2-.1 1.8.3.6.3 1 .8 1.3 1.4.2.6.2 1.1 0 1.6l-.7 1.4c-.5 1.1-1 2.1-1.3 3.1-.6 1.5-1.2 3-1.6 4.6l-4.8-1.5c.5-1.7 1.1-3.3 1.7-5 .7-1.6 1.2-2.7 1.5-3.3l.7-1.5c.4-.6.8-1 1.4-1.1z"/><use xlink:href="#flash0.ai_x5F_5_x2F_Layer_3_x2F__x3C_Path_x3E__x5F_0" width="13.2" height="7.8" x="-6.6" y="-3.9" transform="matrix(.393 0 0 -.393 339.499 152.293)" overflow="visible"/><path class="st35" d="M347.3 121.9l-3.3-1.9c-.3.7-.4 1.4-.1 2.2.2.7.7 1.3 1.4 1.7l2-2z"/><path class="st1" d="M350.2 216.6c.3.3.5.7.5 1.2v3.2h-7.5v-3.2c0-.5.2-.9.5-1.2s.6-.4 1-.5h-.2 4.5c.4 0 .8.2 1.2.5z"/><path class="st17" d="M347 217.6c-.6 0-1.1.2-1.6.7-.4.4-.6.9-.6 1.5v1.2h2.2v-3.4z"/><path class="st1" d="M348.4 216.2v-.4c0-.3-.1-.5-.3-.7-.2-.2-.4-.3-.7-.3h-1.1c-.3 0-.5.1-.7.3s-.3.4-.3.7v.4h3.1z"/><path class="st17" d="M347 217.6c.6 0 1.1.2 1.6.7.4.4.6.9.6 1.5v1.2h-2.2v-3.4z"/><path class="st1" d="M343.4 219.9h7.3v1.1h-7.3v-1.1z"/><path class="st12" d="M159 40.5c-.3.8-.5 1.6-.7 2.4-.3 1.1-.4 2.3-.4 3.6 0 1.5.2 2.8.5 4.1.4 1.4.9 2.7 1.7 3.9.6 1 1.4 1.9 2.4 2.8.6.5 1.3 1 2.1 1.5l.8.5c.4.2.8.2 1.2 0s.7-.5.9-1 .2-.9.1-1.3-.3-.7-.6-.9l-.6-.4c-.7-.5-1.2-.9-1.6-1.2-.7-.7-1.3-1.4-1.8-2.1-.6-.9-1-1.9-1.2-2.9-.3-1-.4-2-.4-3.2 0-1 .1-1.9.3-2.8.1-.6.3-1.3.6-1.9l.3-.7-3.3-1.4-.3 1z"/><path class="st23" d="M164.9 31.5c-.1.1-.5.3-1.1.8-1.1.9-2.1 1.9-2.9 2.9-.9 1.1-1.6 2.3-2.1 3.5 0 0-.2.5-.5 1.2l-.2.5 5.1 1.8.1-.3c.2-.5.3-.8.4-.9.3-.8.8-1.6 1.5-2.5.6-.7 1.2-1.4 2-2l1-.7c.4-.2.6-.6.7-1.3.1-.7 0-1.4-.2-2-.3-.7-.7-1.2-1.4-1.5-.6-.3-1.3-.3-1.9.1l-.5.4z"/><use xlink:href="#flash0.ai_x5F_5_x2F_Layer_3_x2F__x3C_Path_x3E_" width="12.8" height="9" x="-6.4" y="-4.5" transform="matrix(-.424 0 0 -.424 161.558 38.891)" overflow="visible" enable-background="new"/><path class="st31" d="M169.5 95.9c-.4.4-.5.9-.5 1.4l.2 14.1c0 .6.2 1 .6 1.4.4.4.8.6 1.3.6s1-.2 1.3-.6c.4-.4.6-.9.6-1.4l-.2-14.1c0-.6-.2-1-.6-1.4-.4-.4-.8-.6-1.3-.6-.6 0-1.1.2-1.4.6z"/><path class="st7" d="M166.7 61l.6 48.4 7.3-.1-.6-48.4c0-.9-.3-1.6-.9-2.3-.6-.6-1.3-.9-2.1-.9h-1.4c-.8 0-1.5.3-2.1 1s-.8 1.4-.8 2.3z"/><path class="st94" d="M167.3 107.2l7.3-.1v-.8l-7.4.1.1.8zm-.1-2.4l7.4-.1v-.8l-7.4.1v.8z"/><path class="st23" d="M166 31l.7 9.4v20.1h19v-20.1l.7-9.4c-3.4-.9-6.8-1.3-10.2-1.3l-3.7.2c-2.4.2-4.5.5-6.5 1.1z"/><path class="st12" d="M179.5 29.8c-1.2-.1-2.3-.2-3.4-.2l-3.9.2c.3.8.7 1.4 1.4 1.9s1.4.7 2.3.7c.9 0 1.6-.3 2.3-.8.6-.3 1.1-1 1.3-1.8z"/><path class="st7" d="M185.7 52.7h-19v9.3c0 1.6.6 3 1.7 4.1 1.1 1.1 2.5 1.7 4.1 1.7h7.5c1.6 0 3-.6 4.1-1.7s1.7-2.5 1.7-4.1v-9.3h-.1z"/><path class="st95" d="M180.9 67.7c1.4-.2 2.5-.9 3.4-1.9.9-1.1 1.4-2.3 1.4-3.7v-9.2h-9.5v9.1c0 1.4.5 2.7 1.4 3.7.8 1.1 1.9 1.7 3.3 2z"/><path class="st12" d="M176.1 20.5c-.6 0-1.1.2-1.5.6s-.6.9-.6 1.5v7.2l.9 2.2 3.4-2.2v-7.2c0-.6-.2-1.1-.6-1.5-.4-.4-1-.6-1.6-.6zm-8.6.4c.1 1.1.4 2.2.9 3.2s1.1 1.8 1.9 2.6h3.9c2 0 3.7-.7 5.1-2.1 1.4-1.4 2.1-3.1 2.1-5.1v-7.9h-13.9v9.3zm14.6-3.9h-3.1l-.1 4h3.3c.6 0 1-.2 1.4-.6s.6-.9.6-1.4c0-.6-.2-1-.6-1.4-.5-.4-.9-.6-1.5-.6z"/><path class="st35" d="M169.1 6.3l-.9 3.4h-3.3c.1.6.3 1.2.8 1.6.5.4 1.1.7 1.7.7h8.2c.5 0 .9.1 1.3.4.4.3.6.7.6 1.1v2.5c.5 0 .9.1 1.3.4.4.3.6.7.6 1.1v.8c0 .3.1.6.4.8.2.2.5.4.8.4s.6-.1.8-.4c.2-.2.3-.5.3-.8v-1.3h.8v-6.8l-1.1-1.6c-.5-.7-1.2-1.3-2-1.7-.8-.4-1.7-.6-2.6-.6h-7.7zm.5 11.2c.2 0 .3-.1.4-.2.1-.1.2-.3.2-.4s-.1-.3-.2-.4c-.1-.1-.3-.2-.4-.2-.2 0-.3.1-.4.2-.1.1-.2.3-.2.4s.1.3.2.4.2.2.4.2zm4.8 0c.2 0 .3-.1.4-.2.1-.1.2-.3.2-.4s-.1-.3-.2-.4c-.1-.1-.3-.2-.4-.2s-.3.1-.4.2c-.1.1-.2.3-.2.4s.1.3.2.4c.1.1.3.2.4.2z"/><path class="st36" d="M169.7 21.5c0 .6.2 1.2.7 1.6s1 .7 1.7.7c.6 0 1.2-.2 1.6-.7.5-.5.7-1 .7-1.6h-4.7z"/><path class="st1" d="M165.7 111.9v3.7h8.7v-3.5c0-.5-.2-.9-.6-1.3s-.8-.6-1.3-.6h-5c-.1.5-.3.9-.6 1.2-.3.3-.7.5-1.2.5z"/><path class="st17" d="M162.8 114.2v1.3h5.8v-1.3c0-.6-.2-1.2-.7-1.7s-1-.7-1.7-.7h-1.1c-.7 0-1.2.2-1.7.7-.4.5-.6 1.1-.6 1.7zm9.9-1.6c-.5.5-.7 1-.7 1.7v1.3h2.4v-3.7c-.6 0-1.2.2-1.7.7z"/><path class="st1" d="M170.9 110.3v-.4c0-.3-.1-.6-.3-.8-.2-.2-.5-.3-.8-.3h-1.2c-.3 0-.6.1-.8.3-.2.2-.3.5-.3.8v.4h3.4zm-8.1 4h11.6v1.2h-11.6v-1.2z"/><path class="st31" d="M181.6 95.8c-.4.4-.5.9-.5 1.4.3 6.2.5 10.9.7 14 0 .6.2 1 .6 1.4.4.4.8.5 1.4.5.5 0 1-.2 1.3-.7.3-.4.5-.9.5-1.4-.2-3.9-.5-8.6-.7-14 0-.5-.2-1-.6-1.4-.4-.4-.8-.5-1.4-.5-.5.1-.9.3-1.3.7z"/><path class="st95" d="M178.2 61c.4 18.8 1 34.9 1.7 48.3l7.3-.4c-.7-13.4-1.3-29.5-1.7-48.1 0-.9-.3-1.6-.9-2.2-.6-.6-1.3-.9-2.1-.9h-1.3c-.8 0-1.5.4-2.1 1-.6.7-.9 1.4-.9 2.3z"/><path class="st94" d="M179.8 107.2l7.3-.4v-.8l-7.3.3v.9zm-.1-2.5l7.3-.3v-.8l-7.3.3v.8z"/><path class="st1" d="M185.2 110.2h-5c0 .5-.2.9-.6 1.2-.4.3-.8.5-1.2.5v3.7h8.7v-3.5c0-.5-.2-.9-.6-1.3-.4-.4-.8-.6-1.3-.6z"/><path class="st17" d="M175.4 114.2v1.3h5.8v-1.3c0-.6-.2-1.2-.7-1.7s-1-.7-1.7-.7h-1.1c-.7 0-1.2.2-1.7.7-.3.5-.6 1.1-.6 1.7zm11.6-2.3c-.6 0-1.2.3-1.7.7-.5.5-.7 1-.7 1.7v1.3h2.4v-3.7z"/><path class="st1" d="M183.5 110.3v-.4c0-.3-.1-.6-.3-.8-.2-.2-.5-.3-.8-.3h-1.2c-.3 0-.6.1-.8.3-.2.2-.3.5-.3.8v.4h3.4zm-8.1 4h11.6v1.2h-11.6v-1.2z"/><path class="st96" d="M182.7 54.2v3.1c0 .8.3 1.5.9 2.1.6.6 1.3.9 2.1.9m0-6.1h-19.1"/><path class="st97" d="M174.1 69h-3.1m3.1 2h-3.1"/><path class="st86" d="M181.8 110.7h-1.6m1 .9h-1.6m-10.5-.9h-1.7m1.1.9h-1.7"/><path class="st12" d="M165.1 59.1c.2.2.4.4.8.5.4.2.7.2 1 .2h.2c.3 0 .6-.1 1 0 .4 0 .7 0 1 .1l.5.1c.3.1.5 0 .7-.1s.4-.4.5-.7l.1-.3c.1-.3.1-.6 0-1s-.2-.6-.4-.8l-1-1c-.2-.2-.4-.4-.8-.5-.3-.1-.6-.1-.9-.1l-1.3.2c-.8.2-1.4.6-1.7 1.4-.3.7-.2 1.4.3 2zm26-17.3l.3.9c.1.4.3 1.2.7 2.5.7 2.3 1.2 4.7 1.7 7.4v.1h-3.6c-.4-2.3-.9-4.5-1.5-6.5 0-.2-.3-1-.7-2.3l-.3-.8 3.4-1.3z"/><path class="st23" d="M186.6 31c-.7-.2-1.3-.1-2 .3-.6.4-1.1.9-1.4 1.5-.3.6-.2 1.2 0 1.8l.7 1.5c.6 1.2 1 2.3 1.4 3.3.7 1.6 1.2 3.3 1.8 5l5.1-1.6c-.5-1.8-1.2-3.6-1.9-5.4-.7-1.8-1.3-3-1.6-3.6l-.8-1.6c-.1-.6-.6-1-1.3-1.2z"/><use xlink:href="#flash0.ai_x5F_5_x2F_Layer_3_x2F__x3C_Path_x3E__x5F_0" width="13.2" height="7.8" x="-6.6" y="-3.9" transform="matrix(-.424 0 0 -.424 189.233 41.187)" overflow="visible" enable-background="new"/><path class="st35" d="M170.9 8.6l-3.6-2.1c-.3.7-.3 1.5-.1 2.3.3.8.7 1.4 1.5 1.8l2.2-2z"/><path class="st29" d="M197.3 2.8h71.8v59.6h-71.8v-59.6z"/><path class="st98" d="M197.3 2.8h71.8v59.6h-71.8v-59.6z"/><path class="st99" d="M216.6 32h1.4c1.1.1 1.8.2 2.2.4.9.5 1.6 1.2 2.2 2.2.2.3.5.8.9 1.3 0 .1 0 .1-.1.1h-.2c-.1 0-.2 0-.3-.1-.4-.6-.8-1-1.4-1.5-.4-.3-.8-.5-1.3-.6-.1-.1-.2-.1-.4 0-.1 0-.1.2-.1.3l-.2 1.4c0 .1 0 .1-.1.1h-.1c-.1 0-.1 0-.1.1v.3c0 .6.1 1 .1 1.3-.1 1-.2 1.8-.2 2.4 0 1 0 2.3.2 3.8v.8c.1 0 .1.1.1.1v3l.1.1s.1.2.1.3l.1 9c0 .4-.2.7-.3.9-.2.2-.5.3-.8.3h-.9c-.3 0-.6-.2-.8-.3-.2-.2-.3-.5-.3-.8l.4-12.4.1-.1c.1 0 .1 0 .1-.1v-.6c.1-1.1.1-2.2.1-3.1 0-.7-.1-1.7-.2-3v-1.5l.1-.2c0-.1-.1-.2-.1-.1-.1 0-.2-.1-.2-.2l-.2-.8c-.1-.5-.5-.7-.9-.8-.5 0-.8.1-1.1.5-.1.1-.1.2-.2.2h-1c-.1 0-.2 0-.1-.1-.1-.7-.2-1.3-.1-2 0-.1.1-.2.2-.1l1.1-.1.3.1c.2.2.4.2.7.2s.5-.1.6-.2l.6-.5zm-9.3 5.3c0-.2 0-.4-.2-.6-.2-.2-.4-.3-.6-.2-.3 0-.5 0-.7.2s-.2.4-.2.7c-.1.2 0 .4.2.6.2.2.4.2.6.2.3 0 .5 0 .6-.2.3-.3.4-.5.3-.7zm.5-5.3c1.1.2 1.7.6 1.9 1s.3.8.4 1.1c0 .4 0 .7-.2 1.1-.3.5-.6.8-.8 1-.1 0-.3.1-.5.3s-.3.3-.2.4v.2c.5.7.9 1.8 1.1 3.1.3 1.4.3 7.1.1 17.1 0 .3-.2.5-.5.5-.1 0-.3 0-.4-.1-.1-.1-.2-.2-.1-.4-.1-3.4-.2-6.3-.3-8.7-.1-2-.2-3.8-.3-5.3-.1-1.4-.3-2.3-.5-2.6-.1-.3-.2-.7-.5-1.1-.1-.1-.2-.2-.4-.2s-.4.1-.5.3c-.2.4-.4.7-.6 1-.1.3-.3 1.2-.4 2.5-.1 1.5-.3 3.3-.4 5.4-.1 2.4-.2 5.3-.2 8.6 0 .1 0 .2-.1.4-.1.1-.2.2-.4.2-.1 0-.3 0-.4-.1-.1-.1-.2-.2-.2-.4-.2-9.9-.2-15.7.1-17.1.2-1.4.6-2.4 1.1-3.1v-.3c0-.1-.1-.2-.3-.5l-.4-.4c-.3-.1-.5-.4-.7-1-.2-.3-.3-.6-.2-1.1 0-.4.1-.7.4-1.1.2-.4.8-.8 1.9-1 .4-.1.8-.1 1.2 0 .1 0 .1.1 0 .1l-1.3 1.4c-.3 0-.5.3-.5.9 0 .3.3.6.9.7h.9c.3 0 .6 0 .9-.1.6-.1.9-.4 1-.7 0-.3-.1-.5-.2-.7-.1-.1-.2-.2-.4-.2l-1.2-1.4v-.1c.4.3.8.4 1.2.4zm54.8 10.9c0 .2-.1.3-.3.3-.2 0-.3 0-.3-.2s.1-.3.3-.3.3 0 .3.2zm-2.4-33.9c-.1 0-.1-.1-.2-.2l.3-.1v.1c.1.1.1.2-.1.2zm0-1.3c.1 0 .2 0 .2.2s-.1.3-.3.3c-.1-.1-.1-.2-.2-.2 0-.1 0-.1.1-.2s.1-.1.2-.1zm1.9 30.6c0-.1 0-.2.1-.1.2 0 .2.1.2.2.1.1 0 .1-.1.1-.2 0-.2 0-.2-.2zm-9.6-6.1l-.1-1.1.7-14c.1-1.5.5-2.8 1-3.8.3-.5.7-1.1 1.3-1.7.4-.4 1.8-1.2 4-2.2v-.2c0-.2.1-.3.3-.4l.3-.2 2 29.8c-.1 0-.2 0-.2.1v1.7l-.2-.1c-3.9-2.3-6.1-3.6-6.5-3.9-.7-.5-1.4-1.3-1.9-2.3-.4-.2-.7-.9-.7-1.7zm-1.7-3.7c-.1 1.2-.1 2.3-.1 3.3.1 1.6.6 3 1.6 4.3.6.8 1.2 1.4 1.9 1.8.1.1.2.2.2.3l.4.9c0 .3.2.5.5.8.1.1.6.3 1.3.5l.5.2 5.1 3.2c.2.1.3.1.4-.1l.6-.8c.4-.7.4-1.1-.1-1.3l-.4-.3.1-1.7s0-.1-.1-.1h-.6c-.1 0-.2 0-.1-.1 0-.1.1-.2.2-.2l.5.1c.1 0 .1-.1.1-.1v-.2c-.1 0-.1-.1-.3-.1v-.7l.3-.2.1-.1-.4-.1v-.1l.3-.2-.3-.2.3-.2-.4-.1-.1-.1.4-.1-.4-.1v-.1l.4-.1-.4-.1v-.1l.4-.1-.4-.2.1-.1.3-.2-.4-.1v-.1l.4-.2-.4-.1v-.1l.4-.1-.3-.2-.1-.1.4-.1v-.1l-.5-.1.4-.1v-.1c-.1 0-.3 0-.4-.1v-.1l.4-.1-.4-.2.4-.1-.3-.2v-.1l.3-.2-.4-.2v-.1l.4-.1-.4-.2v-.1l.4-.2-.4-.1v-.1l.4-.1.1-.1-.4-.1-.1-.1.4-.1-.4-.2v-.1l.4-.1.1-.1-.4-.1v-.1l.3-.2-.6-.6v-.1l.4-.1-.4-.2.4-.1-.1-.1-.3-.1v-.1l.3-.2-.4-.1v-.1l.4-.2-.1-.1-.4-.1v-.1l.3-.2-.4-.2.3.1.3-.2-.4-.1v-.1l.3-.2-.3-.2v-.1l.3-.2-.3-.2.3-.2v-.1l-.4-.1.3-.2.1-.1-.4-.1.3-.2-.4-.1v-.1l.3-.2-.3-.2v-.1l.3-.2-.4-.2.3-.2-.4-.1v-.1l.4-.3-.4-.1.3-.2-.4-.1v-.1l.3-.2.1-.1-.4-.1v-.1l.6.1-.4-.1v-.1l.3-.2-.3-.2-.1-.1.4-.1-.3-.2v-.1l.4-.1-.3-.2v-.1l.4-.1-.4-.1v-.1l.3-.2-.4-.1v-.1l.4-.1-.4-.2.3-.2-.4-.2v-.1l.4-.1-.3-.2-.1-.1.4-.2-.4-.2v-.1l.4-.1.1-.1-.5-.2.3-.2-.4-.1v-.1l.3-.2-.4-.2v-.1l.4-.1-.4-.2v-.1l.3-.2-.4-.2.1-.1.4-.2-.4-.1-.1-.1.4-.2-.4-.2v-.1l.3-.2-.4-.2v-.1l.3-.2-.4-.1.1-.1.3-.2-.4-.2v-.1l.4-.2-.1-.1-.4-.1.4-.1-.1-.1-.3-.2v-.1l.3-.2-.2.5v-.1l.3-.2-.3-.2v-.1l.3-.2-.4-.1v-.1l.4-.1-.1-.1-.3-.2v-.1l.3-.2-.3-.2.4-.2-.4-.1v-.1l.3-.2.1-.1-.4-.1v-.1l.3-.2-.4-.2.3-.2-.4-.1v-.1l.3-.2.1-.1-.4-.1v-.1l.3-.2-.3-.2v-.1l.3-.2-.4-.2-.1-.2v-.2l-.1-.6.3-.2c.1 0 .2-.1.2-.3v-.7c-.1-.2-.2-.3-.3-.4s-.3-.1-.5 0c-2.9 1.7-4.6 2.8-5.2 3.3-1.2.9-2.1 2-2.8 3.5-.3.8-.6 1.8-.7 3.1l-.6 12.2zm-44.7-19.6h.8v9.1c-.1.1-.2.2-.3.4v.3l.1 2.1c.2 0 .4.1.4.1v.8h.3l-.1.3-.1.4c-.1.3-.2.6-.3 1 0 .2.1.9.3 2.1.2 1.3.3 2.1.3 2.5 0 .6 0 1.1-.1 1.5-.2.5-.5.7-.9.6-.4 0-.8-.2-1-.6-.1-.4-.2-.9-.2-1.5 0-.3.1-1.1.3-2.5.2-1.2.3-1.9.3-2 0-.4-.1-.8-.1-1l-.2-.6h.3v-.9c.1-.1.2-.1.4-.1l.1-2-.1-.6-.2-9.4zm3.9 0l.4-.1.1 11.9c.2 0 .3.1.4.1v.8h.3v.3l-.3.3c-.1.2-.1.6-.1 1 0 .1.1.8.3 2s.2 2.1.2 2.5c0 .5-.1 1-.3 1.4s-.4.6-.9.6-.8-.2-1-.6c-.1-.4-.2-.9-.1-1.5 0-.4 0-1.2.2-2.5.3-1.2.4-1.9.4-2 0-.4-.1-.8-.3-1.1l-.1-.4v-.3h.3v-.9c0-.1.1-.1.4 0l.1-11.5zm3.3.3h1.4l-.3 9.1c-.1 0-.2.1-.3.4v.3l.1 2.1.3.1-.1.8h.3l.1.3-.3.3c-.1.3-.1.7-.1 1.1 0 .2.1.9.4 2.1.1 1.2.2 2 .2 2.4 0 .6-.1 1.1-.3 1.5s-.5.6-.9.6-.7-.2-1-.7c-.1-.3-.2-.8-.2-1.5 0-.4.1-1.2.3-2.4.2-1.2.4-1.9.4-2 0-.4-.1-.8-.1-1l-.1-.4v-.3h.3l.1-.8s.1-.1.3-.1c0-1.4.1-2.1.1-2.1 0-.2 0-.4-.1-.5l-.3-.1-.2-9.2zm5.3 5l.2-.2 1.6 5.4.7 2.3c.5 1.7.8 3 1 3.8.1.8.3 2.1.4 4.1v.2s-.1 0-.1.1c-.1 0-.2 0-.2-.2l-.2-1.5c-.1-1-.3-1.8-.4-2.5-.5-1.9-.7-3-.8-3.4l-.6.1-.1-.3c.2 0 .3-.1.4-.2.1-.1.1-.2.1-.3-.1-.6-.2-.9-.3-.9l-1.3-.7c-.2-.1-.3-.4-.4-.9-.1-.5-.2-1.1-.3-1.7-.1-1.6 0-2.7.3-3.2zm2.2.2c.3.5.4 1.5.2 3.1-.1.7-.2 1.2-.3 1.7s-.3.8-.4.9l-1.2.7-.3.9v.3c.1.1.2.1.4.2l-.1.3-.6-.1c-.2.8-.5 2-.9 3.4-.2.6-.3 1.5-.5 2.5l-.2 1.5c0 .1-.1.2-.2.1-.1 0-.1-.1-.1-.2.2-2 .3-3.4.5-4.1.2-.9.5-2.1 1-3.8l.7-2.3 1.7-5.4.3.3zm-1.5 5c-.1-.1-.1-.1-.1-.2s0-.2.1-.2c.1-.1.1-.1.2-.1s.2 0 .2.1c.1.1.1.1.1.2s0 .2-.1.3c-.1.1-.1.1-.2.1s-.1-.2-.2-.2z"/><path class="st100" d="M219.3 19.4c-.1-.1-.1-.1-.1-.2s0-.2.1-.2c.1-.1.1-.1.2-.1s.2 0 .2.1c.1.1.1.1.1.2s0 .2-.1.3c-.1.1-.1.1-.2.1s-.1-.2-.2-.2z"/><path class="st99" d="M248.1 22.7v-.5h.5l-.2-.6-.3.2-.3-.3.2-.3c-.2-.2-.5-.3-.7-.3-.3 0-.6.1-.9.2l.2.3-.4.3-.1-.3c-.2.3-.4.6-.4.8 0 .3.1.6.3.8l.2-.2.3.4-.2.2c.2.2.5.3.8.3s.5-.1.8-.3l-.2-.2.3-.2.3.2c.1-.1.2-.3.3-.5h-.5zm-1.3-13.4c0-.1.1-.3.2-.3.1-.1.2-.1.3-.1s.2 0 .3.1.1.2.1.4v9.4h.4v1.8c.2.1.4.2.5.3l-.3-.2.4-.3.7.8-.3.4-.3-.2c.2.3.4.7.4 1.1v-.3h.6v1h-.6c0 .3-.2.6-.4.8l.3-.1.3.4-.7.7-.4-.4.3-.1-.6.2v1.8h-.4v9.3c0 .1 0 .2-.1.3h-.3s-.2 0-.3-.1-.1-.2-.1-.3v-9.3h-.5v-1.8l-.4-.3-.1.1.2.2-.4.4-.7-.8.4-.3.1.2c-.3-.4-.4-.8-.4-1.4 0-.5.1-.9.4-1.3l-.1.1-.4-.4.7-.7.3.4-.2.2.1.1c.2-.1.3-.2.5-.2v-1.8h.5v-9.8zm4.7 36l-4.3 7.8c-.3.5-.7.8-1.2 1-.5.1-1 .1-1.5-.2s-.8-.7-1-1.2-.1-1 .2-1.5l4.3-7.8c.3-.5.7-.8 1.2-.9.5-.2 1-.1 1.5.2s.8.7 1 1.2c.1.4.1.9-.2 1.4zm5.7-2c.2.6.1 1.2-.2 1.7l-2.7 4.9c-.2.3-.2.6-.1.9.1.3.3.5.6.7l1.8 1 .1-.2c0-.1.1-.1.2-.2h.3l6.2 3.5c.2.1.2.3.1.5l-.7 1.3c-.1.2-.3.3-.5.1l-6.2-3.5-.2-.2v-.3l.1-.2-1.8-1c-.5-.3-.9-.7-1.1-1.3-.2-.6-.1-1.2.2-1.7l2.7-4.9c.2-.3.2-.6.1-.9-.1-.3-.3-.6-.6-.7l-2.3-1.3c-.3-.2-.6-.2-.9-.1-.3.1-.6.3-.7.6l-.9-.5c.3-.5.7-.9 1.3-1.1s1.2-.1 1.7.2l2.3 1.3c.6.3 1 .8 1.2 1.4zm-54.6-36.6l.1.2c.1.2.2.3.2.6l-.1 12.1h.9v.3l-.3.5c-.2.3-.3.7-.3 1.3 0 .2.1 1 .4 2.5.2 1.5.3 2.5.3 3 0 .7-.1 1.3-.3 1.8-.3.6-.7.9-1.1.9-.5 0-.9-.3-1.1-.9-.3-.4-.4-1-.4-1.8 0-.5.1-1.5.4-3s.4-2.4.4-2.5c0-.5-.1-1-.3-1.3l-.3-.5v-.3h.9v-12.2c0-.2.1-.4.2-.6l.4-.1z"/><path class="st12" d="M231.2 20.3h2.9l.1 3.7h-3c-.5 0-.9-.2-1.3-.5-.4-.4-.6-.8-.6-1.3s.2-1 .6-1.3c.4-.4.8-.6 1.3-.6z"/><path class="st93" d="M250.9 32.9l3.4-10.5m0 0l-1-9.2"/><path class="st23" d="M248.2 37.7l1.1-.7c1-.9 1.9-1.8 2.7-2.7.8-1 1.5-2.1 2-3.2 0 0 .2-.4.5-1.1l.2-.4-4.7-1.7-.1.3c-.2.4-.3.7-.4.8-.3.7-.8 1.5-1.4 2.3-.5.7-1.1 1.3-1.8 1.8l-.9.7c-.3.2-.6.6-.7 1.2-.1.6 0 1.3.2 1.8.3.7.7 1.1 1.3 1.4.6.3 1.2.2 1.8-.1l.2-.4z"/><use xlink:href="#flash0.ai_x5F_5_x2F_Layer_3_x2F__x3C_Path_x3E_" width="12.8" height="9" x="-6.4" y="-4.5" transform="matrix(.393 0 0 .393 251.364 30.767)" overflow="visible" enable-background="new"/><path class="st31" d="M232.2 93.2c-.3.4-.5.8-.5 1.3l.2 13.1c0 .5.2.9.5 1.3s.8.5 1.2.5c.5 0 .9-.2 1.2-.6s.5-.8.5-1.3l-.2-13.1c0-.5-.2-.9-.5-1.3s-.8-.6-1.2-.6c-.4.2-.8.3-1.2.7z"/><path class="st7" d="M229.6 60.8l.6 44.9 6.8-.1-.6-44.9c0-.8-.3-1.5-.8-2.1-.6-.6-1.2-.9-2-.8h-1.3c-.8 0-1.4.3-2 .9-.4.6-.7 1.3-.7 2.1z"/><path class="st94" d="M230.2 103.7l6.8-.1v-.7h-6.8v.8zm-.1-2.2l6.9-.1v-.8l-6.9.1v.8z"/><path class="st23" d="M229 33l.6 8.8v18.6h17.7v-18.6l.6-8.8c-3.1-.8-6.3-1.2-9.4-1.2l-3.5.2c-2.1.2-4.1.5-6 1z"/><path class="st12" d="M241.6 32c-1.1-.1-2.2-.2-3.1-.2l-3.7.2c.2.7.7 1.3 1.3 1.8s1.3.7 2.1.7 1.5-.2 2.1-.7 1-1.1 1.3-1.8z"/><path class="st7" d="M247.2 53.2h-17.7v8.5c0 1.5.5 2.7 1.6 3.8s2.3 1.6 3.8 1.6h6.9c1.5 0 2.7-.5 3.8-1.6s1.6-2.3 1.6-3.8v-8.5z"/><path class="st95" d="M242.8 67c1.3-.2 2.3-.8 3.1-1.8.9-1 1.3-2.2 1.3-3.5v-8.5h-8.8v8.5c0 1.3.4 2.5 1.3 3.5.8 1 1.9 1.6 3.1 1.8z"/><path class="st12" d="M238.4 23.3c-.5 0-1 .2-1.4.6s-.6.8-.6 1.4v6.7l.8 2 3.2-2v-6.7c0-.5-.2-1-.6-1.4-.4-.4-.8-.6-1.4-.6zm-2.2 5.7h1.7c1.8 0 3.4-.6 4.7-1.9s1.9-2.9 1.9-4.7v-7.4h-12.9v8.7c.1 1 .4 2 .8 2.9.6.9 1.8 1.7 3.8 2.4zm9.1-8.9h-2.9l-.1 3.7h3c.5 0 .9-.2 1.3-.5.4-.4.5-.8.5-1.3s-.2-1-.5-1.3c-.4-.5-.8-.6-1.3-.6z"/><path class="st35" d="M229.4 13.3h3l.9-3.2h7.2c.8 0 1.6.2 2.4.6.7.4 1.4.9 1.8 1.6l1 1.4v6.3c-.6 2-1 3.2-1.3 3.7-.3.4-.5.7-.5.7l.1-.3-.2.3c-.1.1-.1.2-.1.2l-.4.5c-.7.7-1.5 1.1-2.3 1.3-.5.1-1.8.1-4.1.1-2 0-3.4-.4-4.2-1.2-.8-.8-1.3-1.9-1.6-3.1-.3-1.3-.4-2.6-.5-4s-.1-2.4 0-3.1l-.4-.3c-.5-.4-.8-.9-.8-1.5zm15.3 8.8c0 .1 0 .2-.1.3v.2c.1-.4.1-.5.1-.5z"/><path class="st31" d="M243.5 93.1c-.3.4-.5.8-.5 1.3.3 5.8.5 10.1.6 13 0 .5.2.9.6 1.3.4.3.8.5 1.3.5s.9-.2 1.2-.6.5-.8.4-1.3c-.2-3.6-.4-8-.6-13 0-.5-.2-.9-.6-1.3-.4-.3-.8-.5-1.3-.5-.4 0-.8.2-1.1.6z"/><path class="st95" d="M240.3 60.9c.4 17.4.9 32.3 1.6 44.8l6.8-.4c-.7-12.4-1.2-27.3-1.6-44.6 0-.8-.3-1.5-.9-2.1-.6-.6-1.2-.9-2-.8h-1.2c-.8 0-1.4.3-2 .9-.4.6-.7 1.3-.7 2.2z"/><path class="st94" d="M241.8 103.6l6.8-.3v-.8l-6.8.4v.7zm-.1-2.2l6.8-.3v-.8l-6.8.3v.8z"/><path class="st1" d="M248.4 107c.3.3.5.7.5 1.2v3.2h-7.5v-3.2c0-.5.2-.9.5-1.2.3-.3.6-.4 1-.5h-.2 4.5c.5 0 .9.1 1.2.5z"/><path class="st17" d="M245 108c-.6 0-1.1.2-1.6.7-.4.4-.6.9-.6 1.5v1.2h2.2v-3.4z"/><path class="st1" d="M246.7 106.6v-.4c0-.3-.1-.5-.3-.7s-.4-.3-.7-.3h-1.1c-.3 0-.5.1-.7.3-.2.2-.3.4-.3.7v.4h3.1z"/><path class="st17" d="M245.1 108c.6 0 1.1.2 1.6.7.4.4.6.9.6 1.5v1.2h-2.2v-3.4z"/><path class="st1" d="M241.8 110.3h7.3v1.1h-7.3v-1.1z"/><path class="st96" d="M247.2 54.6h-17.6"/><path class="st97" d="M236.5 68.2l-2.8.1m2.8 1.8h-2.8"/><path class="st12" d="M250.5 13.5c-.1-.2-.2-.5-.2-.9s.1-.7.2-.9l.1-.2c.1-.2.3-.5.4-.8l.3-.9.1-.5c0-.2.2-.4.4-.6.2-.1.5-.2.8-.1h.3c.3.1.5.2.8.4s.5.4.6.7l.5 1.2c.1.2.1.5.1.8s-.1.6-.3.8l-.7 1.1c-.5.6-1.1.9-1.9.8-.6.1-1.1-.3-1.5-.9zm-27.1 49.5l.1 2.5c0 .7-.1 1.3-.4 1.6l-.1.2c-.4.5-.6 1-.8 1.6l-.1.5c-.1.2-.2.4-.5.5-.2.1-.5.2-.8.1l-.3-.1c-.3-.1-.5-.2-.8-.4-.2-.2-.4-.5-.5-.7l-.4-1.2c-.1-.2-.1-.5 0-.8 0-.3.1-.6.3-.8l.6-.8c.2-.3.6-1.3 1.2-3l2.5.8zm3.9-18.9l-.3.8c-.4 1.3-.6 2-.6 2.1-.6 2-1.1 4.2-1.5 6.6-.3 1.9-.7 4.2-1 6.7-.1 1.2-.2 2.3-.3 3.1 0 .4-.2.7-.6 1-.4.3-.8.4-1.2.3-.5 0-.8-.2-1.1-.5-.3-.3-.4-.7-.4-1.1l.3-3.2c.3-2.5.6-4.8 1-7 .4-2.5 1-4.8 1.6-6.9.3-1.1.6-1.9.7-2.2l.3-.8 3.1 1.1z"/><path class="st23" d="M228.4 33.1c.6-.2 1.2-.1 1.8.3.6.3 1 .8 1.3 1.4.2.6.2 1.1 0 1.6l-.7 1.4c-.5 1.1-1 2.1-1.3 3.1-.6 1.5-1.2 3-1.6 4.6l-4.8-1.5c.5-1.7 1.1-3.3 1.7-5 .7-1.6 1.2-2.7 1.5-3.3l.7-1.5c.3-.6.7-1 1.4-1.1z"/><use xlink:href="#flash0.ai_x5F_5_x2F_Layer_3_x2F__x3C_Path_x3E__x5F_0" width="13.2" height="7.8" x="-6.6" y="-3.9" transform="matrix(.393 0 0 -.393 225.832 42.666)" overflow="visible" enable-background="new"/><path class="st35" d="M233.6 12.2l-3.3-1.9c-.3.7-.4 1.4-.1 2.2.2.7.7 1.3 1.4 1.7l2-2z"/><path class="st1" d="M236.5 107c.3.3.5.7.5 1.2v3.2h-7.5v-3.2c0-.5.2-.9.5-1.2.3-.3.6-.4 1-.5h-.2 4.5c.5 0 .9.1 1.2.5z"/><path class="st17" d="M233.3 108c-.6 0-1.1.2-1.6.7-.4.4-.6.9-.6 1.5v1.2h2.2v-3.4z"/><path class="st1" d="M234.8 106.6v-.4c0-.3-.1-.5-.3-.7s-.4-.3-.7-.3h-1.1c-.3 0-.5.1-.7.3-.2.2-.3.4-.3.7v.4h3.1z"/><path class="st17" d="M233.3 108c.6 0 1.1.2 1.6.7.4.4.6.9.6 1.5v1.2h-2.2v-3.4z"/><path class="st1" d="M229.7 110.3h7.3v1.1h-7.3v-1.1z"/><path class="st26" d="M111.2 69.5l-4.7-3.3v-4.9l42.8 30.7 48.7-13.9-.2 4.4-48.4 14.3-34.9-24.9v25.9c0 .4-.1.8-.4.9-.3.2-.8.3-1.5.3-.6 0-1.1-.1-1.4-.2-.5-.2-.7-.6-.7-1.1v-26.6c0-.6.2-1 .6-1.4-.1-.1 0-.1.1-.2z"/><path class="st29" d="M106.5 61.3v-.6l42.3-10.1 49.2 27.5-48.7 13.8-42.8-30.6z"/><path class="st101" d="M114.4 71.8l34.9 25 48.4-14.3.2-4.4-48.6 13.8-42.8-30.7v4.9l4.7 3.3m86.8 8.7l-49.1-27.5-42.3 10v.6"/><path class="st99" d="M134 60.4l.1-.5 1-1c.8-.7 1.4-1.1 1.9-1.3 1-.2 2-.2 3.1 0 .4.1.9.2 1.6.3.1.1.1.1.1.2l-.1.1c-.1.1-.2.1-.3.1-.7-.1-1.3-.2-2-.1-.5.1-.9.3-1.4.5-.1 0-.2.1-.3.3 0 .1 0 .2.1.3l.9 1.2c.1 0 .1.1 0 .2-.1 0-.1.1 0 .2l.2.2c.4.4.8.7.9.9.6.8 1.1 1.4 1.6 1.8.7.7 1.6 1.6 2.8 2.6l.5.5.1.1h.2l1.9 2c.1.1.1.2.1.2h.1c.1 0 .2.1.3.2l6.3 6.4c.2.3.4.6.4.8 0 .3-.1.6-.4.8l-.6.6c-.3.2-.5.3-.8.3s-.6-.1-.8-.3l-8.3-9.2v-.2c.1-.1.1-.1 0-.2l-.4-.4c-.7-.9-1.4-1.7-2.1-2.3-.5-.5-1.2-1.2-2.2-2-.4-.3-.7-.7-1-1l-.1-.2c-.1-.1-.2-.1-.2 0-.1.1-.1.1-.3 0l-.7-.4c-.4-.2-.9-.2-1.3 0-.4.3-.5.7-.4 1.1 0 .1 0 .2-.1.3l-.7.7c-.1.1-.1.1-.1 0-.5-.4-1-.8-1.5-1.3-.1-.1 0-.2.1-.3l.8-.8.3-.2c.3 0 .5-.2.6-.3 0-.5.1-.7.1-.9zm-8.3 3.6c-.1-.2-.3-.3-.6-.3s-.5.1-.6.3c-.2.2-.3.4-.3.6s.1.4.3.6c.1.2.3.3.6.3.2 0 .4-.1.6-.3.2-.2.3-.4.3-.6s-.1-.4-.3-.6zm-.3-4.2c.3.2.5.5.7.9.1.6.2 1 .1 1.3-.1.1-.1.3-.1.5s.1.4.2.5l.2.2c.9.2 1.9.7 3 1.5 1.2.8 5.3 4.8 12.1 12.1.2.2.2.5 0 .8-.1.1-.2.2-.4.2s-.3-.1-.4-.2c-2.4-2.4-4.5-4.3-6.4-5.9-1.5-1.4-2.8-2.6-4-3.6-1.1-.9-1.8-1.4-2.1-1.5-.3-.2-.6-.3-1.1-.4-.2 0-.3 0-.4.2-.2.2-.2.3-.2.6l.3 1.2c.1.3.7 1 1.6 2.1 1 1.2 2.1 2.5 3.5 4.1 1.6 1.8 3.6 3.8 5.9 6.3.1.1.1.2.1.3s-.1.3-.1.4-.2.2-.4.2c-.1 0-.3-.1-.4-.2-7.2-6.9-11.2-10.9-12.1-12.2-.8-1.1-1.3-2.1-1.4-2.9l-.1-.2-.1-.1c-.1-.1-.3-.1-.6-.1h-.6c-.3.1-.7.1-1.2-.2-.3-.1-.6-.3-.9-.6-.3-.3-.4-.6-.5-1-.2-.5 0-1.2.6-2 .2-.3.5-.6.8-.9h.1l.1 1.9c-.2.3-.1.6.3 1 .3.2.7.2 1.2-.1l.7-.6c.3-.2.5-.4.6-.7.3-.5.4-.9.2-1.2-.2-.2-.4-.3-.6-.3-.1 0-.3 0-.4.1l-1.9-.1c-.1 0-.1 0-.1-.1.3-.3.6-.6 1-.8.9-.6 1.6-.8 2-.7.6-.2.9 0 1.2.2zm52.3 29.5c.1 0 .1-.1 0-.3-.1-.1-.2-.1-.2 0-.1.1-.1.2 0 .3 0 .1.1.1.2 0zm3.1 2.8c-.1.1-.1.3 0 .3.2.1.3.1.4 0 .1-.1.1-.2 0-.3-.1-.1-.2-.1-.4 0zm-23.9-24.1c.1.1.1.1.3 0v-.3h-.1l-.2.3zm-.7-.9c-.1.1-.1.2 0 .3.1.1.3.1.4 0 .1-.1.1-.2 0-.3 0-.1-.1-.1-.2-.1s-.1.1-.2.1zm-.9.4c-.1-.2-.1-.3-.1-.6 0-.2.1-.3.4-.4 3.2-1 5.2-1.5 5.9-1.7 1.4-.3 2.9-.2 4.4.3.8.3 1.7.8 2.8 1.6l9.2 7.4c.9.7 1.8 1.4 2.6 2.2 1.1 1.1 1.8 2.5 2.1 4.1.2.9.2 1.8.1 2.6 0 .1 0 .3.1.3l.4.8c.2.2.3.5.3.8 0 .2-.2.7-.5 1.3l-.2.5-1.1 5.9c0 .2-.1.3-.4.3l-1.1-.1c-.8-.2-1.1-.5-.9-.9v-.4l-1.3-1.1s-.1-.1-.1-.2l.4-.4c.1-.1.1-.2 0-.2-.1-.1-.2-.1-.3 0l-.3.4h-.1l-.1-.2c0-.1 0-.2.1-.3l-.5-.4-.4.1h-.1l.2-.3-.1-.1-.4.2.1-.3-.4.1.2-.3v-.2l-.4.2.1-.3.1-.2-.4.2v-.1l.1-.3-.1-.1-.4.2v-.1l.1-.4h-.1l-.4.2.1-.3-.1-.1-.4.2.6-.4-.1-.1-.4.2.1-.3-.1-.2-.4.2-.1-.1.3-.4h-.1l-.4.2-.1-.1c.1-.1.2-.2.2-.4v-.1l-.4.2v-.1l.1-.4v-.1l-.4.2.1-.3-.1-.1-.4.2.1-.4-.1-.1-.4.3.1-.4-.1-.1-.4.2.2-.4-.1-.1-.4.2h-.1l.2-.4v-.1l-.4.2h.6l.1-.4-.1-.1-.4.2h-.1l.2-.4v-.1l-.4.1.1-.3-.1-.1-.4.2.1-.4v-.1l-.4.2v-.1l.1-.3-.1-.1-.4.2.1-.3-.1-.1-.4.2v-.1l.2-.3-.1-.1-.4.2.1-.4h-.1l-.4.1.1-.3-.1-.1-.4.1.1-.3v-.1l-.4.2v-.1l.1-.3v-.1l-.4.2-.1-.1.1-.3h.9l-.4.1h-.1l.2-.3v-.1l-.4.1.1-.3-.1-.1-.4.2.1-.3-.1-.1-.4.2.1-.4h-.1l-.4.1.1-.3-.1-.1-.4.1.2-.3v-.1l-.4.2h-.1l.1-.3v-.1l-.4.1h-.1l.2-.3-.1-.1-.4.2.1-.3-.1-.1-.4.1.1-.3v-.1l-.4.2v-.1l.1-.3-.1-.1-.4.2v-.1l.1-.3-.1-.1-.4.2.1-.3-.1-.1-.4.2.1-.3-.1-.1-.4.2.1-.4-.4.1v-.1l.1-.4-.1-.1-.4.2.1-.3v-.1l-.4.2v-.1l.1-.4-.1-.1-.4.2h-.1l.2-.4h-.1l-.4.2.1-.3-.1-.1-.4.2h1.8l.1-.4-.1-.1-.4.2v-.1l.1-.4v-.1l-.4.2.1-.4h-.1l-.4.2.2-.4v-.1l-.4.2.1-.4-.1-.1-.4.2h-.1l.1-.4-.1-.1-.4.1.1-.3h-.1l-.4.2.1-.4-.1-.1-.4.2v-.1l.1-.3h-.1l-.4.2v-.1l.1-.3v-.1l-.4.1.1-.3v-.1l-.4.2.1-.3-.1-.1-.4.1.1-.3-.1-.1-.4.2v-.1l.1-.3-.1-.1-.4.2v-.1l.1-.3v-.1l-.4.2.1-.3-.1-.1-.4.1h-.1l.2-.3-.1-.1-.4.2.1-.4h-.1l1.3-.7h-.1l.1-.3v-.1l-.4.2h-.1l.2-.3-.1-.1-.3.1.1-.3-.1-.1-.4.2.1-.4-.1-.2-.1-.2-.4-.4-.4.1c-.1.1-.2.1-.4-.1l-.3-.6zm9.3-1c-.6-.2-1.3-.2-2.1-.2-.6 0-2.1.5-4.3 1.4 0 0-.1 0-.1-.1l-.1-.1c-.1-.1-.3-.1-.4-.1l-.4.2 20.8 21.6c0-.1.1-.1.3-.1l1.3 1.2.1-.2c.9-4.4 1.4-6.9 1.5-7.4.1-.9 0-1.9-.4-2.9-.1-.6-.5-1.3-1-1.8l-.8-1-10.9-8.8c-1.2-.9-2.4-1.5-3.5-1.7zm7.7 13.1l.4-.8h1.1l.5.8-.5.9h-1.1l-.4-.9zm1.6 0c0-.2 0-.3-.1-.3-.1-.1-.2-.2-.4-.2s-.3.1-.4.2c-.1.1-.2.2-.2.3s.1.3.2.4c.1.1.2.2.4.2s.3-.1.4-.2c0-.1.1-.2.1-.4zm-7.9-7.5h-1.4l-.7-1.3.7-1.2h1.4l.8 1.2-.8 1.3zm.2-1.3c0-.2-.1-.4-.3-.6s-.4-.3-.6-.3c-.2 0-.4.1-.6.3-.2.2-.3.3-.3.6 0 .2.1.4.3.6s.4.3.6.3c.2 0 .4-.1.6-.3.2-.1.3-.3.3-.6zm6.5 3.7c-.2.2-.3.3-.3.6s.1.5.3.6c.2.2.4.3.6.3.2 0 .4-.1.5-.3.2-.1.3-.3.3-.6 0-.2-.1-.4-.3-.6s-.4-.3-.5-.3l-.6.3zm1.4-.6l.6 1.2-.6 1.3h-1.5l-.8-1.3.8-1.2h1.5zm-27.6 10.7v.4h9.4l1.6.2-1.6.2h-9.4v.4h-.2v-1.2h.2zm-1.1-2h.2v.5h14.6l1.6.2-1.6.2h-14.5v.4h-.2l-.1-1.3zm-2-1.5h.1v.4h11.6l1.6.2-1.6.2h-11.6v.4h-.1v-1.2zm42.1-4.7h.9l.5.8-.5.9h-.9l-.6-.9.6-.8zm.5.3c-.2 0-.3.1-.4.2-.1.1-.2.2-.2.3s.1.3.2.4c.1.1.2.2.4.2s.3-.1.4-.2c.1-.1.1-.2.1-.4s0-.3-.1-.3c-.1-.1-.3-.2-.4-.2zm-3.4-6.2c.1.4 0 .8-.4 1.2-.3.2-.7.4-1.3.6-.4.1-1.2.2-2.4.4-1.3.1-2 .2-2.1.3-.4.1-.7.3-.9.4l-.3.3-.2.1-.1-.3-.8.2s-.1-.1-.2-.3c-1.3.3-2 .5-2 .5-.2 0-.4.1-.5.3v.3l-8.8 2.3-.4-1.4 8.9-2.3c.1.1.2.2.4.2h.3l2-.7c0-.1 0-.2.1-.3l.8-.2-.1-.3.3-.2.4.2c.3 0 .7-.1 1.1-.2.1 0 .8-.3 1.9-.8 1.1-.5 1.9-.8 2.3-.9.6-.2 1.1-.2 1.5-.1.2.2.4.4.5.7zm-48.7-10l-.1-.3 11.4-3.3v-.4l.8-.3-.1-.2.3-.2.4.2c.3 0 .6 0 1.1-.2.1 0 .7-.3 1.9-.8s1.9-.8 2.4-.9c.5-.2 1-.2 1.4-.1.4.1.7.3.9.7.1.4 0 .8-.4 1.1-.4.2-.8.4-1.4.5-.4.1-1.2.3-2.4.5-1.3.1-1.9.2-2.1.2-.4.1-.7.3-1 .5l-.3.3h-.3v-.3l-.8.3c-.1 0-.1-.1-.1-.3l-11.6 3zm-7.5-.5l-.2-.8 8.8-2.4c.1.1.2.1.4.2h.2l2.1-.7v-.4l.8-.3-.1-.3h.3l.4.1h1.1c.2 0 .8-.3 1.9-.8 1.2-.5 1.9-.8 2.3-.9.6-.2 1-.2 1.4-.2.5.1.8.3.9.8.1.4 0 .8-.4 1.1-.4.2-.8.4-1.4.6-.4.1-1.2.2-2.5.3-1.2.2-1.9.3-2 .3-.4.1-.7.3-.9.5l-.6.3-.1-.3-.8.3c-.1-.1-.2-.2-.3-.5l-2 .5c-.2.1-.4.2-.5.3l-.1.1-8.7 2.2zm16.4 15.1l.1-.3 4.1 3.9 1.8 1.6c1.3 1.2 2.2 2.1 2.8 2.8.5.6 1.3 1.7 2.5 3.3l.1.2s0 .1-.1.1c-.1.1-.2.1-.3 0-.3-.4-.6-.8-1-1.2-.6-.8-1.2-1.4-1.6-1.9l-2.5-2.5-.5.3-.2-.2.3-.4c0-.1 0-.2-.1-.3-.4-.4-.7-.6-.7-.7h-1.4c-.2 0-.4-.1-.8-.5-.4-.3-.7-.8-1.1-1.3-.9-1.4-1.4-2.4-1.4-2.9zm2-1c.5.3 1.1 1.1 1.8 2.6.3.6.5 1.2.6 1.6.1.5.2.8.1 1l-.7 1.2s.1.4.2.9c0 .1.1.2.2.2s.2 0 .4-.1l.1.3-.5.2c.2.8.6 2 1 3.4.2.6.5 1.4.9 2.3l.6 1.4c0 .1 0 .2-.1.3-.1 0-.2 0-.2-.1-.9-1.8-1.5-3-1.7-3.8-.3-.8-.7-2.1-1.1-3.8l-.5-2.3-1.4-5.5.3.2zm.5 4.4c-.1 0-.2-.1-.2-.1s-.1-.2-.1-.3c0-.1.1-.2.1-.2.1-.1.2-.1.3-.1l.2.1c.1.1.1.2.1.3 0 .1-.1.2-.1.2-.1.1-.2.1-.3.1z"/><path class="st100" d="M145.3 78.5c-.1 0-.2-.1-.2-.1s-.1-.2-.1-.3c0-.1.1-.2.1-.2.1-.1.2-.1.3-.1l.2.1c.1.1.1.2.1.3 0 .1-.1.2-.1.2-.1.1-.2.1-.3.1z"/><path class="st99" d="M143.6 61.6l.3.3-.3.3-.3-.2c-.2.2-.3.5-.3.8s.1.6.3.8l.3-.2.3.3-.3.2c.3.2.6.3.8.3.3 0 .6-.1.8-.3l-.2-.2.4-.3.2.2c.2-.2.3-.5.3-.8s-.1-.5-.3-.8l-.2.2-.4-.3.2-.3c-.1-.1-.3-.2-.6-.3v.5h-.5v-.5c-.2.1-.4.2-.5.3zm-12.7 1.4c-.1-.1-.1-.2-.1-.3s0-.2.1-.3.2-.1.4-.1h9.4v-.5h1.8c.1-.2.1-.4.3-.5h-.1l-.2.3-.4-.4.8-.7.4.3-.1.3c.3-.2.6-.4 1-.4h-.3v-.7h1v.6c.3 0 .6.2.9.4h.1l-.1-.3.4-.3.8.7-.4.4-.1-.3.2.5h1.8v.5h9.3c.1 0 .2 0 .3.1l.1.3s0 .2-.1.3-.2.2-.3.2h-9.3v.5h-1.8c-.1.1-.2.3-.3.5l.1.1.1-.2.4.3-.8.7-.4-.4.1-.2h-.1c-.4.3-.8.4-1.4.4-.5 0-.9-.1-1.3-.4l.1.2-.4.4-.8-.7.4-.3.2.2.1-.1-.3-.5h-1.8v-.5h-9.4c-.1.1-.2 0-.3-.1zm27.9 2.1l-8.3-3.4c-.5-.2-.9-.6-1.1-1.1-.2-.5-.2-1 0-1.5s.6-.9 1.1-1.1c.5-.2 1-.2 1.5 0l8.3 3.4c.5.2.9.6 1.1 1.1.2.5.2 1 0 1.5s-.6.9-1.1 1.1-1 .2-1.5 0zm1.3 4.4c.3.1.6.1.9 0 .3-.1.5-.3.6-.6l1-2.5c.1-.3.1-.6 0-.9s-.3-.5-.6-.6l.4-1c.6.2 1 .6 1.2 1.2s.2 1.1 0 1.7l-1 2.5c-.2.6-.6 1-1.2 1.2-.6.2-1.1.2-1.7 0l-5.2-2.1c-.3-.1-.6-.1-.9 0-.3.1-.5.3-.6.6l-.8 1.9.2.1c.1 0 .2.1.2.2v.3l-2.7 6.6c-.1.2-.2.3-.5.2l-1.4-.6c-.2-.1-.3-.2-.2-.4l2.7-6.6c0-.1.1-.2.2-.2h.3l.2.1.8-1.9c.2-.6.6-1 1.2-1.2.6-.2 1.2-.2 1.7 0l5.2 2zm-.1-6.2l.1.2c.1.2.2.3.2.6l-.1 12.1h.9v.3l-.3.4c-.2.3-.3.7-.3 1.3 0 .2.1 1 .4 2.6.2 1.5.3 2.5.3 3 0 .7-.1 1.3-.3 1.8-.3.6-.7.9-1.1.9-.5 0-.9-.3-1.1-.9-.3-.4-.4-1-.4-1.8 0-.5.1-1.5.4-3 .3-1.5.4-2.4.4-2.6 0-.5-.1-.9-.3-1.3l-.3-.4v-.3h.9v-12.2c0-.2.1-.4.2-.5l.4-.2z"/><path class="st26" d="M152.3 97l-.2-.2v25.9c0 .4-.1.8-.4.9-.3.2-.8.3-1.5.3-.6 0-1.1-.1-1.4-.2-.5-.2-.7-.6-.7-1.1v-26.5h4.2v.9zm46.4-14.8v25.9c0 .4-.1.8-.4.9-.3.2-.8.3-1.5.3-.6 0-1.1-.1-1.4-.2-.5-.2-.7-.6-.7-1.1v-26.5h4.2v.8l-.2-.1z"/><path class="st99" d="M184.4 65.8c.1.4 0 .8-.3 1.1-.3.3-.7.3-1.1.1-.4-.2-.7-.6-1-1.1-.3-.3-.7-1-1.3-2-.6-1.1-.9-1.7-1-1.8-.2-.3-.5-.6-.8-.7l-.3-.2-.1-.2.3-.2-.5-.6c0-.1.1-.2.3-.3l-7.2-9.5.2-.3 7.4 9.3.4-.2.5.6.2-.1-.1.3v.4c.1.2.3.5.5.9.1.1.6.6 1.5 1.4.9.9 1.5 1.5 1.7 1.8.4.5.7.9.7 1.3z"/><path class="st12" d="M183.7 57.3l-2.3 1.3c-.7.4-1.1.8-1.3 1.3l-.1.1c-.2.6-.6 1.1-1 1.6l-.3.4c-.2.2-.3.4-.2.7 0 .3.1.5.3.8l.2.2c.2.2.5.4.9.5.3.1.7.1.9.1l1.4-.3c.3-.1.5-.2.8-.4s.5-.5.6-.7l.4-1c.1-.3.8-1.3 2.1-2.7l-2.4-1.9zm9.7-5.6c.4.7.3 1.5-.3 2.3-1.8 1.5-3.7 3.1-5.8 4.8l-2.8 2c-.3.3-.7.3-1.2.3-.4-.1-.8-.3-1.1-.8-.3-.4-.4-.8-.3-1.3 0-.4.2-.8.6-1 .7-.6 1.6-1.3 2.7-2 2.1-1.7 4-3.3 5.6-4.7.3-.2.6-.4 1.1-.4.6-.1 1.1.2 1.5.8z"/></svg>