<svg xmlns="http://www.w3.org/2000/svg" xmlns:xlink="http://www.w3.org/1999/xlink" viewBox="0 0 170.9 128.6" enable-background="new 0 0 170.9 128.6"><style type="text/css">.st0{fill:#51A8B7;} .st1{fill:#D8D0BC;} .st2{clip-path:url(#SVGID_2_);} .st3{fill:#B3E5FC;} .st4{fill:#FFFFFF;} .st5{fill:#B2CF4D;} .st6{fill:#8AC33F;} .st7{fill:#F95136;} .st8{fill:#FF970D;} .st9{fill:#AEC92E;} .st10{fill:#83272F;} .st11{fill:#FDFFFF;} .st12{fill:#83B2B3;} .st13{fill:#FAFFFF;} .st14{fill:#ABC62E;} .st15{fill:#E6B68B;} .st16{fill:#FF940D;} .st17{fill:#E69265;} .st18{fill:#F0B08B;} .st19{fill:#BFBDC1;} .st20{fill:#7BA1A3;} .st21{fill:#96BEC0;} .st22{fill:#9FC462;} .st23{fill:#92AE5B;} .st24{fill:#2D2B2A;} .st25{fill:#F5F9F8;} .st26{fill:#CFD3D4;} .st27{fill:#BFC5D0;} .st28{fill:none;stroke:#6C6D6D;stroke-width:0.1;stroke-miterlimit:10;} .st29{fill:#444A98;} .st30{fill:#BFB298;} .st31{fill:#5D5B5F;} .st32{fill:#546026;} .st33{fill:#754C29;} .st34{fill:#8B5E3C;} .st35{fill:url(#SVGID_3_);} .st36{fill:#A97C50;} .st37{fill:#ED1C24;} .st38{fill:#FBB040;} .st39{fill:#4C3B22;} .st40{fill:#3B2314;} .st41{fill:#FFA685;} .st42{fill:#F6921E;} .st43{fill:#CF4E21;} .st44{fill:#177D8F;} .st45{fill:#FBB32C;} .st46{fill:#ECE6E1;} .st47{fill:none;stroke:#000003;stroke-width:1.35;stroke-linecap:round;} .st48{fill:#FFAD8C;} .st49{fill:#F5F5F5;} .st50{fill:#5B331D;} .st51{fill:#1E193D;} .st52{fill:#4DACB5;} .st53{fill:none;stroke:#4DACB5;stroke-width:2.7;} .st54{fill:none;stroke:#177D8F;stroke-width:1.35;stroke-linecap:round;} .st55{fill:#000003;} .st56{fill:none;stroke:#1B587A;stroke-width:1.35;stroke-linecap:round;} .st57{fill:none;stroke:#ECE6E1;stroke-width:1.35;stroke-linecap:round;} .st58{fill:#1A171C;} .st59{fill:none;stroke:#FFA685;stroke-width:4.85;stroke-linecap:round;stroke-miterlimit:10;} .st60{fill:#1B587A;} .st61{fill:#6269C9;} .st62{fill:#4F56B0;} .st63{fill:#0E0F2D;} .st64{fill:none;stroke:#1A171C;stroke-width:1.35;} .st65{fill:none;stroke:#4F56B0;stroke-width:1.35;}</style><symbol id="flash0.ai_x5F_5_x2F_Layer_3_x2F__x3C_Path_x3E_" viewBox="-6.4 -4.5 12.9 9"><path class="st0" d="M6.4.8l-11.5-5.3-1.3 2.6 11 6.4z" id="Layer_1_5_"/></symbol><symbol id="flash0.ai_x5F_5_x2F_Layer_3_x2F__x3C_Path_x3E__x5F_0" viewBox="-6.6 -3.9 13.3 7.8"><path class="st0" d="M6.6-.4l-1.2-3.5-12 4.1 1.3 3.7z" id="Layer_1_6_"/></symbol><symbol id="flash0.ai_x5F_5_x2F_Layer_3_x2F__x3C_Path_x3E__x5F_1" viewBox="-5.3 -3 10.7 6.1"><path class="st1" d="M4.4 3l.9-3.1-9.7-2.9-.9 3z" id="Layer_1_4_"/></symbol><symbol id="кно" viewBox="-60.3 -106.2 120.6 212.5"><defs><path id="SVGID_1_" d="M-60.3-72.2h120.1v178.4h-120.1z"/></defs><clipPath id="SVGID_2_"><use xlink:href="#SVGID_1_" overflow="visible"/></clipPath><g id="Layer_1_3_" class="st2"><path class="st3" d="M58.3-1.2h-116v103h116z"/><path class="st4" d="M56.3 99.8h-112v-99h112v99zm4-103h-120v107h120v-107zm-3 69h-114v4h114zm1-35h-115v4h115zm-75 71v-103h-3v103zm37 0v-103h-3v103z"/><path class="st3" d="M58.3-104.2h-116v103h116z"/><path class="st4" d="M60.3-106.2h-120v107h120v-107zm-4 103h-112v-99h112v99zm1-34h-114v4h114zm1-35h-115v4h115zm-75 71v-103h-3v103zm37 0v-103h-3v103z"/></g></symbol><path class="st5" d="M44 60.1c-.3-.7-.5-1.3-.5-2 0-.4-.1-.9-.3-1.3l-.3-.5.6.8c.3.7.5 1.7.5 3zm.3-4.1l.6-.8-.3.5c-.2.4-.3.9-.3 1.3 0 .7-.2 1.4-.5 2.1-.1-1.3.1-2.3.5-3.1z"/><path class="st6" d="M43.4 55.7c.4.8.6 1.8.6 3.1-.3-.7-.5-1.3-.5-2.1 0-.4-.1-.9-.3-1.3l-.3-.5.5.8zm.6 4.5c-.1-.7-.1-1.4.2-2.1.1-.4.2-.9.1-1.3l-.2-.5.3.8c.2.8 0 1.9-.4 3.1z"/><path class="st5" d="M43.7 60.7c-.5-.6-.9-1.3-1.1-2-.1-.4-.4-.9-.7-1.3l-.5-.4.8.7c.6.8 1.1 1.8 1.5 3zm-.6-.9c-.3-1.3-.4-2.3-.3-3.1l.3-.8-.1.5c-.1.5-.1.9 0 1.3.2.7.2 1.4.1 2.1z"/><path class="st6" d="M41.1 55.7l.8.7c.6.7 1.1 1.7 1.4 3-.5-.6-.9-1.3-1-2-.1-.4-.4-.9-.7-1.3l-.5-.4zm2.7 5.2c-.3-.7-.4-1.3-.4-2.1 0-.4-.1-.9-.3-1.3l-.3-.5.5.8c.4.7.5 1.8.5 3.1z"/><path class="st7" d="M44.6 59.7l-.1.1c-.3.5-.5 1.2-.4 2.1l.2 1.2c.8.9 1.2 2.4 1.2 4.4 0 1-.1 1.9-.2 2.7h-3.6c-.2-.8-.2-1.7-.2-2.7 0-2 .4-3.5 1.2-4.4.1-.4.2-.8.2-1.2.1-.9 0-1.6-.4-2.1l-.1-.1h2.2z"/><path class="st8" d="M48 41.9h1.4v11.6h-1.4z"/><path class="st9" d="M46.5 39h1.4v14.5h-1.4z"/><path class="st10" d="M45.1 39h1.4v14.5h-1.4z"/><path class="st11" d="M48 50.9h1.4v1.6h-1.4zm-1.5 0h1.4v1.6h-1.4zm-1.4 0h1.4v1.6h-1.4z"/><path class="st12" d="M43.5 38.8h1v14.6h-1z"/><path class="st13" d="M43.5 50.9h1v1.6h-1z"/><path class="st14" d="M42.5 38.8h1v14.6h-1z"/><path class="st13" d="M42.5 50.9h1v1.6h-1z"/><path class="st15" d="M41.4 38.8h1v14.6h-1z"/><path class="st13" d="M41.4 50.9h1v1.6h-1z"/><path class="st16" d="M40.4 38.8h1v14.6h-1z"/><path class="st13" d="M40.4 50.9h1v1.6h-1z"/><path class="st14" d="M39.3 38.8h1v14.6h-1z"/><path class="st13" d="M39.3 50.9h1v1.6h-1z"/><path class="st4" d="M32.3 43.9h6.9v9.5h-6.9z"/><path class="st17" d="M35.8 44.8h2.9v7.7h-2.9z"/><path class="st18" d="M32.9 44.8h2.9v7.7h-2.9z"/><path class="st19" d="M38.4 45.2h.1v7.1h-.1zm-5.1 0h5.2v.2h-5.2z"/><path class="st4" d="M20.8 45.4h11v8.1h-11z"/><path class="st20" d="M26.3 46.2h4.6v6.5h-4.6z"/><path class="st21" d="M21.8 46.2h4.6v6.5h-4.6z"/><path class="st19" d="M30.4 46.5h.2v6h-.2zm-8.1 0h8.2v.1h-8.2z"/><path class="st8" d="M38.6 92.4h2v11.3h-2z"/><path class="st9" d="M36.5 89.5h2v14.1h-2z"/><path class="st10" d="M34.5 89.5h2v14.1h-2z"/><path class="st11" d="M38.6 101.1h2v1.5h-2zm-2 0h2v1.5h-2zm-2.1 0h2v1.5h-2z"/><path class="st12" d="M32.3 89.4h1.5v14.2h-1.5z"/><path class="st13" d="M32.3 101.1h1.4v1.5h-1.4z"/><path class="st14" d="M30.8 89.4h1.5v14.2h-1.5z"/><path class="st13" d="M30.8 101.1h1.4v1.5h-1.4z"/><path class="st15" d="M29.3 89.4h1.4v14.2h-1.4z"/><path class="st13" d="M29.3 101.1h1.4v1.5h-1.4z"/><path class="st16" d="M27.8 89.4h1.5v14.2h-1.5z"/><path class="st13" d="M27.8 101.1h1.4v1.5h-1.4z"/><path class="st14" d="M26.3 89.4h1.4v14.2h-1.4z"/><path class="st13" d="M26.3 101.1h1.4v1.5h-1.4z"/><path class="st22" d="M25.3 93.5h16.5v10.1h-16.5z"/><path class="st23" d="M33.6 93.5h8.2v10.1h-8.2z"/><path class="st24" d="M25.2 96.1h16.7v1.2h-16.7z"/><path class="st25" d="M21.9 65.3h7.6v4.9h-7.6z"/><path class="st26" d="M25.7 65.3h3.8v4.9h-3.8z"/><path class="st27" d="M21.9 65.1h7.7v.6h-7.7z"/><path class="st28" d="M21.9 65.1h7.7v.6h-7.7z"/><path class="st25" d="M21.9 60.2h7.6v4.9h-7.6z"/><path class="st26" d="M25.7 60.2h3.8v4.9h-3.8z"/><path class="st27" d="M21.9 60h7.7v.5h-7.7z"/><path class="st28" d="M21.9 60h7.7v.5h-7.7z"/><path class="st25" d="M30.4 65.3h7.6v4.9h-7.6z"/><path class="st26" d="M34.2 65.3h3.8v4.9h-3.8z"/><path class="st27" d="M30.3 65.1h7.7v.6h-7.7z"/><path class="st28" d="M30.3 65.1h7.7v.6h-7.7z"/><path class="st25" d="M30.4 60.2h7.6v4.9h-7.6z"/><path class="st26" d="M34.2 60.2h3.8v4.9h-3.8z"/><path class="st27" d="M30.3 60h7.7v.5h-7.7z"/><path class="st28" d="M30.3 60h7.7v.5h-7.7z"/><path class="st29" d="M49.6 53.3v-15.6h-29.1v15.6h29.1zm0 34.7h-29.1v15.6h29.1v-15.6zm-29.1-16.8v15.6h29.1v-15.6h-29.1zm0-16.8v15.6h29.1v-15.6h-29.1zm29.1-34.7h1.7v85h-32.5v-85h1.7v16.8h29.1v-16.8z"/><path class="st30" d="M21.7 79h5.9v7.8h-5.9z"/><path class="st4" d="M27.4 83.4c0 .7-.3 1.3-.8 1.9s-1.2.7-1.9.7-1.3-.3-1.9-.8c-.5-.5-.8-1.1-.8-1.9s.3-1.3.8-1.9c.5-.5 1.1-.8 1.9-.8.7 0 1.4.3 1.9.8s.8 1.3.8 2z"/><path class="st30" d="M27 83.4c0 .6-.2 1.1-.7 1.6-.4.4-1 .7-1.6.7-.6 0-1.1-.2-1.6-.7-.4-.4-.6-1-.6-1.6 0-.6.2-1.1.6-1.6.4-.4 1-.7 1.6-.7.6 0 1.2.2 1.6.7.4.5.7 1 .7 1.6z"/><path class="st31" d="M25.6 83.4c0 .3-.1.5-.3.6-.2.2-.4.3-.7.3s-.5-.1-.6-.3c-.2-.2-.3-.4-.3-.6 0-.3.1-.5.3-.6.2-.2.4-.3.6-.3s.5.1.7.3c.2.1.3.4.3.6z"/><path class="st30" d="M40.7 79h5.9v7.8h-5.9z"/><path class="st4" d="M46.3 83.4c0 .7-.3 1.3-.8 1.9s-1.1.7-1.8.7-1.3-.3-1.9-.8-.8-1.1-.8-1.9.3-1.3.8-1.9 1.1-.8 1.9-.8c.7 0 1.4.3 1.9.8s.7 1.3.7 2z"/><path class="st30" d="M45.9 83.4c0 .6-.2 1.1-.7 1.6-.4.4-1 .7-1.6.7-.6 0-1.1-.2-1.6-.7-.4-.4-.7-1-.7-1.6 0-.6.2-1.1.7-1.6.4-.4 1-.7 1.6-.7.6 0 1.2.2 1.6.7.5.5.7 1 .7 1.6z"/><path class="st31" d="M44.6 83.4c0 .3-.1.5-.3.6-.2.2-.4.3-.7.3s-.5-.1-.6-.3c-.2-.2-.3-.4-.3-.6 0-.3.1-.5.3-.6.2-.2.4-.3.6-.3s.5.1.7.3c.2.1.3.4.3.6z"/><path class="st30" d="M40.2 82.8v3.6c0 .1 0 .2-.1.3-.1.1-.2.1-.3.1h-11.2c-.1 0-.2 0-.3-.1-.1-.1-.1-.2-.1-.3v-3.6c0-.1 0-.2.1-.3.1-.1.2-.1.3-.1h11.1c.1 0 .2 0 .3.1.1.1.2.2.2.3z"/><path class="st4" d="M29.4 85h7.5v.5h-7.5z"/><path class="st31" d="M39.6 85c0 .3-.1.5-.3.7-.2.2-.4.3-.6.3-.3 0-.5-.1-.7-.3-.2-.2-.3-.4-.3-.7 0-.3.1-.5.3-.6.2-.2.4-.3.7-.3.3 0 .5.1.6.3.2.2.3.4.3.6z"/><path class="st32" d="M30.3 83.4c0 .1 0 .2-.1.2-.1.1-.2.1-.3.1s-.2 0-.2-.1c-.1-.1-.1-.1-.1-.2s0-.2.1-.3c.1-.1.1-.1.2-.1s.2 0 .3.1c.1.1.1.2.1.3zm2.3 0c0 .1 0 .2-.1.2-.1.1-.1.1-.2.1s-.2 0-.3-.1c-.1-.1-.1-.1-.1-.2s0-.2.1-.3c.1-.1.2-.1.3-.1.1 0 .2 0 .2.1.1.1.1.2.1.3zm2.4 0c0 .1 0 .2-.1.2-.1.1-.2.1-.3.1-.1 0-.2 0-.2-.1-.1-.1-.1-.1-.1-.2s0-.2.1-.3c.1-.1.1-.1.2-.1s.2 0 .3.1l.1.3zm2.3 0c0 .1 0 .2-.1.2-.1.1-.1.1-.2.1s-.2 0-.3-.1c-.1-.1-.1-.1-.1-.2s0-.2.1-.3c.1-.1.2-.1.3-.1s.2 0 .2.1c.1.1.1.2.1.3z"/><path class="st33" d="M30.2 23.6c-.1.2-.1.3 0 .4v-.1c.1-.1.2-.2.4-.2l-.1.1c-.1.1-.2.2-.2.3v.2s0 .1.1.2c.1.3.1.6.1.7 0 .1-.1.2-.2.4-.2.1-.3.2-.3.2l-.2.2v-.3c.4-.2.6-.4.6-.7 0-.1-.1-.3-.2-.5-.2-.3-.2-.5-.1-.7.2-.3.4-.5.5-.5-.2.1-.3.2-.4.3z"/><path class="st34" d="M31.6 23.7h.3c-.2.1-.4.2-.5.4l-.1.3c.1.1.1.3 0 .6.1-.1.3-.1.5-.1.1 0 .2.1.4.2-.3-.1-.4-.1-.4-.1h-.3c-.1 0-.3.1-.4.2 0 0-.1.1-.2.3-.1.1-.1.2-.2.2s-.2.1-.4.1-.3.1-.4.2v.1l-.1-.2c-.1-.1 0-.2 0-.2.1-.1.3-.1.6-.1s.6-.1.7-.4c.1-.1.1-.3.1-.4v-.2c-.1-.4-.2-.6-.3-.9 0-.2 0-.5.1-.7.1-.1.1-.2.2-.2-.2.2-.3.4-.2.6 0 .1 0 .2.1.2 0 0 .1-.1.2-.1h.1c-.1.1-.1.2-.2.4v.3c0 .1 0 .1.1.1-.1-.3.1-.5.3-.6z"/><linearGradient id="SVGID_3_" gradientUnits="userSpaceOnUse" x1="4463.701" y1="-91.347" x2="4443.676" y2="-117.522" gradientTransform="matrix(.326 0 0 -.326 -1423.777 -2.83)"><stop offset="0" stop-color="#fff"/><stop offset="0" stop-color="#C49A6C"/><stop offset="0" stop-color="#FBB040"/><stop offset=".11" stop-color="#E7A850"/><stop offset=".522" stop-color="#A97C50"/><stop offset=".855" stop-color="#8B5E3C"/></linearGradient><path class="st35" d="M29.8 25.1l-.1.3v.2c.1 0 .1.2.1.4.2-.1.4-.1.7 0-.1 0-.1 0-.2.1l-.1.2c-.1.1-.1.1-.2.1h-.1c0 .4-.1.7-.4.8-.4.2-.7.5-.9.9-.1.1-.1.3-.1.6 0 .1.1.2.2.3.1.1.2.2.4.3l.5.3.5.2c.2 0 .4.2.7.3.1 0 .3.1.6.3.2.1.3.2.4.4.3 0 .4-.1.5-.5 0 .1 0 .3-.1.4l-.4.3v.1c.1.2.1.4.1.7 0 .2-.1.4-.2.5-.2.3-.4.4-.7.5-.2 0-.3.1-.3.2l-.1.2c-.1.2-.1.3-.1.4 0 .1.1.2.1.4.1.2.2.3.3.2-.3.4-.4.7-.4 1.1 0 .2 0 .3.1.4.1.2.1.3 0 .4.1 0 .1.1.2.2v.3c-.1 0-.2-.1-.3-.2l-.1-.2c-.1-.2-.1-.5-.1-1v-.9c-.1-.3-.3-.5-.3-.7 0 0-.1-.3-.1-.7v-.7l.1-.2c-.2 0-.5-.1-.8-.1-.3-.1-.7-.3-1.1-.6-.2-.1-.3-.3-.4-.4l-.1-.2c-.1.2-.3.4-.5.4h-.2l-.3-.2-.7-.7c-.1-.1-.2-.1-.2.1s.2.5.4 1.1l.2.2c.1.1 0 .1 0 .1.1 0 .2.1.2.2.1.1 0 .2-.1.2l.1.2c-.2 0-.3-.1-.4-.2v-.1l-.1-.4c-.1-.1-.1-.2-.1-.2v-.2c-.3-.6-.4-1.1-.5-1.3-.1-.2 0-.4.2-.5h.4l.8.5c.1.2 0 .1 0-.1-.1-.3-.1-.6 0-.9v-.3s.1-.2.2-.5c.1-.2.2-.4.4-.5.1-.1.2-.1.2-.1.2-.1.6-.3 1-.8.1-.2.1-.3 0-.5-.3-.2-.5-.3-.7-.4-.1-.1-.2-.1-.2-.1v-.2c0-.1 0-.1.1-.1h.2l.2.1c.1.1.4.1.7.1l.1-.1h.4c0-.1 0-.3.1-.4h.3z"/><path class="st36" d="M30.1 33.4l.2.6-.1.7c-.1.5-.1.8 0 1l.1.1-.1.1.1.1c.1.1.1.2 0 .3-.1 0-.2-.1-.2-.2-.1-.1-.1-.2-.1-.3l-.1-2.8c0-.1 0 .1.2.4z"/><path class="st37" d="M28.7 27.8zm.1 0c0 .1-.1.1 0 0 0 .1-.1.1-.1.1-.1-.1-.2-.1-.4-.3-.2-.2-.3-.3-.3-.4v-.2h.1-.1c0 .1.1.2.3.4.2.3.3.4.5.4zm-.1.1v-.1h.1zm-.8-.7z"/><path class="st38" d="M28.507 27.822l.095-.032.032.095-.095.032zm.193-.022zm-.3-.1zm-.2-.1zm-.1-.1zm-.116-.197l.095-.032.032.095-.095.032zm-.084-.103z"/><path class="st39" d="M23.5 35.8h8.7v.6h-8.7z"/><use xlink:href="#кно" width="120.6" height="212.5" x="-60.3" y="-106.2" transform="matrix(.522 0 0 -.522 120.613 57.329)" overflow="visible"/><path class="st40" d="M55.9 51l-3.5-8.9 5.2-2 2.7 6.9c.2.5.2 1.1 0 1.6s-.6.9-1.1 1.1l-3.3 1.3z"/><path class="st41" d="M62.2 67.2v2.7c0 1.9-.1 3.9-.3 5.9-.1 2.1-.3 4-.5 5.8l-.3 2.7c0 .4-.2.6-.5.9-.3.2-.6.3-.9.2-.3 0-.6-.2-.8-.5-.2-.3-.3-.6-.2-.9.4-2.8.7-5.5.8-8.3.1-1.7.2-3.6.3-5.8v-2.6l2.4-.1z"/><path class="st42" d="M59.1 75.8l3.2.2-.4 4.1c-.1 1.4-.3 2.8-.5 4.1-.1.5-.3.8-.6 1.1-.4.3-.8.4-1.2.3-.4-.1-.8-.3-1.1-.7-.3-.3-.4-.8-.3-1.2l.5-4 .4-3.9z"/><path class="st43" d="M62 56.6c.4.3.6.8.7 1.3l.2 5.1c0 1.7.1 3.4 0 5.1h-3.9v-5l-.2-5c0-.5.1-1 .5-1.4.4-.4.8-.6 1.3-.6s1 .2 1.4.5z"/><path class="st44" d="M67.9 109.4c.3.3.5.8.5 1.2l-.4 12.4c0 .5-.2.9-.5 1.2-.3.3-.7.5-1.2.5s-.9-.2-1.2-.5c-.3-.4-.5-.8-.5-1.3l.5-12.3c0-.5.2-.9.5-1.3.3-.3.7-.5 1.2-.5s.8.2 1.1.6z"/><path class="st45" d="M69.5 76.4c.5.5.7 1.2.7 2l-.4 42.4h-5.8l.4-42.4c0-.8.2-1.4.7-2 .5-.5 1-.8 1.7-.8h1c.7 0 1.3.3 1.7.8z"/><path class="st46" d="M69.6 119.3h-5.9v-.7h5.9zm-5.901-2.889l5.8-.02.002.7-5.8.02z"/><path class="st1" d="M67.7 121.9c.5 0 .8.2 1.2.5s.5.7.5 1.2v3.1h-7.8v-3.3c.4 0 .8-.1 1.1-.4.3-.3.5-.6.5-1.1h4.5z"/><path class="st46" d="M58.9 125.5c0-.6.2-1.1.6-1.5.4-.4.9-.6 1.5-.6h1c.6 0 1.1.2 1.5.6.4.4.6.9.6 1.5v1.2h-5.2v-1.2zm10.4-2.1v3.3h-2.1v-1.2c0-.6.2-1.1.6-1.5.4-.4.9-.6 1.5-.6z"/><path class="st1" d="M66.2 122h-3v-.4c0-.3.1-.5.3-.7.2-.2.4-.3.7-.3h1c.3 0 .5.1.7.3.2.2.3.4.3.7v.4zm-7.3 3.6h10.4v1.1h-10.4z"/><path class="st47" d="M64.5 122.3h-1.4m.9.8h-1.5"/><path class="st40" d="M66.4 45.6c-.3.4-.9.8-1.6 1.2-.6.4-1.4.6-2.2.8l-.3-2.5c.8-.6 1.5-1.4 2.2-2.5.7-1.2 1.1-2.2 1.3-3.1.6.4 1 1.1 1.2 2 .2.7.2 1.5.1 2.4-.1.6-.3 1.2-.7 1.7z"/><path class="st43" d="M58.7 56.7l5.7-5.9 8.2.4 5.5 19.9-10.3 5.3-3.2-8.3-1.2-2.4c-.8-.3-1.5-.7-2.1-1.4-.6-.7-.9-1.5-.9-2.5l-.1-2.2-1.6-2.9z"/><path class="st48" d="M67 51.2c.2.5.2 1-.1 1.4-.2.5-.6.8-1.1.9-.5.2-1 .2-1.4-.1-.5-.2-.8-.6-1-1l-2.1-5.9c-.2-.5-.1-1 .1-1.4.2-.5.6-.8 1-1 .5-.2 1-.1 1.4.1s.8.6 1 1l2.2 6zm-4.8-16.5c.8.7 1.4 1.5 1.8 2.5l1.8 4.5c.7 1.6.5 3.4-.6 5.3-1.1 2-2.7 3.4-4.9 4.3-1.3-.1-2.3-.4-3-1-.8-.6-1.5-1.6-2.2-3-.3-.6-.7-1.7-1.4-3.3l-.9-2.3c-.4-1-.6-2-.5-3l9.9-4z"/><path class="st49" d="M61.1 46.2c.1.5 0 .9-.2 1.3s-.6.7-1 .9c-.5.2-.9.2-1.4 0-.5-.2-.8-.4-1-.9l3.6-1.3z"/><path class="st40" d="M54.7 35.3l.8 2.2c-.6.7-1.1 1.6-1.5 2.7-.4 1.2-.6 2.2-.5 3.1-.7-.3-1.3-.7-1.8-1.3-.4-.6-.6-1.2-.7-1.9-.1-1.1.5-2.3 1.9-3.5.5-.5 1.1-.9 1.8-1.3z"/><path class="st50" d="M67 40.2l-.9 1.5-1.6.6c-.3.1-.5.1-.8 0-.3-.1-.5-.3-.6-.6l-.3-.7c-1.6 0-3.2-.2-4.6-.6-1.5-.5-2.9-1.2-4-2.1-.8-.6-1.3-1.1-1.7-1.4 1.2-1.1 2.2-2 3.1-2.5 1.2-.8 2.4-1.3 3.7-1.5 1.5-.3 3-.1 4.3.6 1.4.7 2.3 1.8 2.9 3.2.2.6.4 1.8.5 3.5z"/><path class="st51" d="M59.3 42.5c-.1-.1 0-.3 0-.4.1-.1.1-.2.3-.3.1-.1.3-.1.4 0l.3.3c.1.2.1.3 0 .4l-.3.3c-.1.1-.3 0-.4 0l-.3-.3zm-4.1 1.6c-.1-.1 0-.3 0-.4.1-.1.1-.2.3-.3.1-.1.3-.1.4 0l.3.3c.1.2.1.3 0 .4l-.3.3h-.4l-.3-.3z"/><path class="st48" d="M65.3 39.6c.4-.2.9-.2 1.3 0s.8.5.9 1c.2.4.2.9 0 1.3s-.5.7-.9.9l-1.6.6-.6-1.6c-.2-.4-.2-.9 0-1.3.1-.4.4-.7.9-.9z"/><path class="st44" d="M78 110.4c.1 1.3.1 3.3 0 6.1 0 2.6 0 4.7.1 6.1 0 .5-.1.9-.4 1.3-.3.4-.7.5-1.2.6-.5 0-.9-.1-1.2-.4-.4-.3-.5-.7-.6-1.2-.1-1.4-.1-3.5-.1-6.1v-6.2c0-.5.1-.9.4-1.3.3-.4.7-.5 1.2-.6.5 0 .9.1 1.2.5.4.3.6.7.6 1.2z"/><path class="st45" d="M76.3 75.7c.6 0 1.4.5 2.4 1.4.6.5 1.1.9 1.5 1.4l-.7 42.1-5.8.4c-.3-5.6-.4-12.7-.6-21.2 0-13.8-.1-20.8-.2-21.2 0-.8.2-1.5.7-2 .5-.6 1-.8 1.7-.9h1z"/><path class="st1" d="M78.6 118.9l-5.8.4-.1-.8 5.9-.3zm-5.913-2.438l5.791-.32.039.699-5.791.32zm5.013 5.438c.5 0 .8.2 1.2.5.3.3.5.7.5 1.2v3.1h-7.8v-3.3c.4 0 .8-.1 1.1-.4.3-.3.5-.6.5-1.1h4.5z"/><path class="st46" d="M73.6 124c.4.4.6.9.6 1.5v1.2h-5.2v-1.2c0-.6.2-1.1.6-1.5.4-.4.9-.6 1.5-.6h.9c.7 0 1.2.2 1.6.6zm5.8-.6v3.3h-2.1v-1.2c0-.6.2-1.1.6-1.5.4-.4.9-.6 1.5-.6z"/><path class="st1" d="M76.2 122h-3v-.4c0-.3.1-.5.3-.7.2-.2.4-.3.7-.3h1c.3 0 .5.1.7.3.2.2.3.4.3.7v.4zm-7.2 3.6h10.4v1.1h-10.4z"/><path class="st47" d="M74.7 122.3h-1.4m.9.8h-1.5"/><path class="st45" d="M78 71.1l.9 1.9c.6 1.7.9 3.7.9 5.8 0 2.3-.5 3.7-1.4 4.4-.5.3-1.6.5-3.4.5h-5.3c-1.3 0-2.5-.5-3.4-1.4-.9-.9-1.4-2.1-1.4-3.4v-7.7h13.1z"/><path class="st52" d="M77.6 69.5l.4 1.3v24.4c0 1.4-.5 2.6-1.5 3.7-1 1-2.2 1.5-3.7 1.5h-9l1.2-29.6-2.4-10.6 7.6-2 2.9 9.5c.3.6.8 1 1.3 1.4.6.4 1.2.6 1.7.6l1.5-.2z"/><path class="st44" d="M77.9 71.1h-13v-1.7h13z"/><path class="st53" d="M68.8 60.5c-.4-3.7.4-7.3 2.4-10.8m-6.5 12.3c-1-1.8-1.7-4.1-2.1-6.7l-.3-3.4"/><path class="st54" d="M66.2 67.9v4.9m1.3-4.9v4.9"/><path class="st50" d="M66.5 36.7l2.7 6.9c.2.5.2 1.1 0 1.6s-.6.9-1.1 1.1l-3.2 1.3-3.5-8.9 5.1-2z"/><path class="st42" d="M31.4 114l5.5-5.7c.2-.2.4-.3.6-.2.2 0 .4.1.6.2.2.2.3.4.3.6 0 .2-.1.4-.2.6l-5.5 5.7-1.3-1.2z"/><path class="st1" d="M36.437 108.847l46.773-47.972 1.217 1.187-46.773 47.972z"/><path class="st46" d="M36.015 108.796l2.443-2.506 1.718 1.675-2.443 2.506z"/><path class="st55" d="M38.62 106.521l.629-.644 1.217 1.187-.629.644z"/><path class="st44" d="M37 119.6l-2.6 4.7-12.3-11.9 4.8-2.8z"/><path class="st56" d="M36.5 119l-2.4 4.3m1.6-5.1l-2.6 4.1m1.7-4.9l-2.7 4m1.9-4.8l-2.9 3.8m2.1-4.6l-3.1 3.6m2.3-4.4l-3.3 3.5m2.5-4.3l-3.5 3.3m2.6-4.1l-3.5 3.1m2.7-3.9l-3.7 3m2.9-3.8l-3.9 2.8m3.1-3.6l-4.1 2.6m3.3-3.4l-4.3 2.4"/><path class="st57" d="M37 119.6l-10.1-10"/><path class="st41" d="M78 61.8l1.1-1.7 2.9.4-1.9 2.7c-1.2 1.9-2 3.1-2.4 3.8-.9 1.5-1.5 2.8-1.8 3.8-.1.6-.2.9-.1 1.1v.7c0 .1-.1.2-.2.3-.2.3-.4.6-.6.7-.3.3-.7.3-1 .1-.2-.1-.3-.2-.4-.4l-.3-.6v-.7c0-.5.1-1.1.2-1.8.3-1.2 1-2.7 2-4.4.5-.9 1.3-2.2 2.5-4z"/><path class="st43" d="M71.8 51.5c.2-.1.5-.2.8-.2h.4l.4.2.6.3c.5.3.9.6 1.3.9 1.1.8 2.1 1.8 3.2 3.1 1 1.1 1.9 2.2 2.7 3.3l1.2 1.5-3 2.4-1.2-1.5c-1-1.3-1.9-2.3-2.6-3.1-1-1.2-1.9-2-2.7-2.6-.3-.3-.6-.5-.9-.6l-.4-.2-.2-.2-.2-.2c-.1-.2-.2-.3-.2-.5-.2-.5-.2-1-.1-1.4.1-.5.4-.9.9-1.2z"/><use xlink:href="#flash0.ai_x5F_5_x2F_Layer_3_x2F__x3C_Path_x3E__x5F_1" width="10.7" height="6.1" x="-5.3" y="-3" transform="matrix(.353 -.138 -.138 -.353 80.165 60.028)" overflow="visible"/><path class="st42" d="M75.6 64.6l2.7 1.7-.6 1c-.5.8-.9 1.6-1.1 2.2-.4.8-.6 1.5-.6 2.1v.7c0 .1-.1.4-.2.7-.2.4-.5.8-.7 1-.4.3-.8.4-1.2.2-.2-.1-.4-.2-.6-.5-.2-.3-.3-.5-.4-.8 0-.1-.1-.3-.1-.5v-1.2c.1-.9.4-1.8.9-3 .3-.7.8-1.6 1.3-2.5l.6-1.1zm-15.2 21.6c.2.2.3.4.2.7 0 .3-.1.5-.3.7-.2.2-.4.3-.7.2l-1.5-.1c-.3 0-.5-.1-.7-.3-.2-.2-.2-.4-.2-.7 0-.3.1-.5.3-.7.2-.2.4-.2.7-.2l1.5.1c.3 0 .5.1.7.3zm-1.4-5.2l2.2.6.1 2.4c0 .7-.1 1.3-.3 1.6l-.1.2c-.3.5-.5 1-.6 1.6l-2.9-1.1c-.1-.2-.1-.5-.1-.8 0-.3.1-.6.2-.8l.5-.7c.2-.3.5-1.3 1-3z"/><path class="st58" d="M124.9 12l-11.4 6 .7 1.4 11.4-6z"/><path class="st52" d="M124.6 27.4c.2.5.5.8.8.9.3.2.6.2.8 0s.4-.4.4-.7c0-.4-.1-.8-.3-1.2l-3.8-6.7c-.3-.6 0-1.6 1.2-2.8.9-1 1.8-1.7 2.7-2.2l-.9-1.7-11.4 6 .9 1.7c.9-.5 2-.8 3.3-1 1.6-.2 2.6 0 3 .6l3.3 7.1z"/><path class="st41" d="M103.4 32.9h2.9l.1 3.7h-3c-.5 0-.9-.2-1.3-.5-.4-.4-.5-.8-.5-1.3s.2-1 .5-1.3c.4-.4.8-.6 1.3-.6z"/><path class="st59" d="M123.1 45.5l3.4-10.5m0 0l-1-9.2"/><path class="st52" d="M120.4 50.3l1.1-.7c1-.9 1.9-1.8 2.7-2.7.8-1 1.5-2.1 2-3.2 0 0 .2-.4.5-1.1l.2-.4-4.7-1.7-.1.3c-.2.4-.3.7-.4.8-.3.7-.8 1.5-1.4 2.3-.5.7-1.1 1.3-1.8 1.8l-.9.7c-.3.2-.5.6-.7 1.2-.1.6 0 1.3.2 1.8.3.7.7 1.1 1.3 1.4.6.3 1.2.2 1.8-.1l.2-.4z"/><use xlink:href="#flash0.ai_x5F_5_x2F_Layer_3_x2F__x3C_Path_x3E_" width="12.9" height="9" x="-6.4" y="-4.5" transform="matrix(.393 0 0 .393 123.54 43.374)" overflow="visible"/><path class="st60" d="M104.4 105.8c-.3.4-.5.8-.5 1.3l.2 13.1c0 .5.2.9.5 1.3s.8.5 1.2.5c.5 0 .9-.2 1.2-.6.3-.4.5-.8.5-1.3l-.2-13.1c0-.5-.2-.9-.5-1.3s-.8-.6-1.2-.6c-.4.2-.8.4-1.2.7z"/><path class="st29" d="M101.8 73.4l.6 44.9 6.8-.1-.6-44.9c0-.8-.3-1.5-.8-2.1-.6-.6-1.2-.9-2-.8h-1.3c-.8 0-1.4.3-2 .9-.4.6-.7 1.3-.7 2.1z"/><path class="st61" d="M102.4 116.3l6.8-.1v-.7h-6.8zm-.1-2.2l6.9-.1v-.8l-6.9.1z"/><path class="st52" d="M101.2 45.6l.6 8.8v18.6h17.7v-18.6l.6-8.8c-3.1-.8-6.3-1.2-9.4-1.2l-3.5.2c-2.1.2-4.1.5-6 1z"/><path class="st41" d="M113.8 44.6c-1.1-.1-2.2-.2-3.1-.2l-3.7.2c.2.7.7 1.3 1.3 1.8.6.5 1.3.7 2.1.7s1.5-.2 2.1-.7c.6-.5 1-1.1 1.3-1.8z"/><path class="st29" d="M119.4 65.8h-17.7v8.5c0 1.5.5 2.7 1.6 3.8 1 1 2.3 1.6 3.8 1.6h6.9c1.5 0 2.7-.5 3.8-1.6 1-1 1.6-2.3 1.6-3.8v-8.5z"/><path class="st62" d="M115 79.6c1.3-.2 2.3-.8 3.1-1.8.9-1 1.3-2.2 1.3-3.5v-8.5h-8.8v8.5c0 1.3.4 2.5 1.3 3.5.8 1 1.9 1.6 3.1 1.8z"/><path class="st41" d="M110.6 35.9c-.5 0-1 .2-1.4.6-.4.4-.6.8-.6 1.4v6.7l.8 2 3.2-2v-6.7c0-.5-.2-1-.6-1.4-.4-.4-.8-.6-1.4-.6zm-2.2 5.7h1.7c1.8 0 3.4-.6 4.7-1.9 1.3-1.3 1.9-2.9 1.9-4.7v-7.3h-12.9v8.7c.1 1 .4 2 .8 2.9.6.8 1.8 1.6 3.8 2.3zm9.1-8.9h-2.9l-.1 3.7h3c.5 0 .9-.2 1.3-.5.4-.4.6-.8.6-1.3s-.2-1-.6-1.3c-.4-.5-.8-.6-1.3-.6z"/><path class="st63" d="M101.6 25.9h3l.9-3.2h7.2c.8 0 1.6.2 2.4.6.7.4 1.4.9 1.8 1.6l1 1.4v6.4c-.6 2-1 3.2-1.3 3.7-.3.4-.5.7-.5.7l.1-.3-.2.3c-.1.1-.1.2-.1.2l-.4.5c-.7.7-1.5 1.1-2.3 1.3-.5.1-1.8.1-4.1.1-2 0-3.4-.4-4.2-1.2-.8-.8-1.3-1.9-1.6-3.1-.3-1.3-.4-2.6-.5-4-.1-1.4-.1-2.4 0-3.1l-.4-.3c-.5-.5-.8-1-.8-1.6zm15.3 8.8c0 .1 0 .2-.1.3v.2c.1-.3.1-.5.1-.5z"/><path class="st60" d="M115.7 105.7c-.3.4-.5.8-.5 1.3.3 5.8.5 10.1.6 13 0 .5.2.9.6 1.3.4.3.8.5 1.3.5s.9-.2 1.2-.6c.3-.4.5-.8.4-1.3-.2-3.6-.4-8-.6-13 0-.5-.2-.9-.6-1.3-.4-.3-.8-.5-1.3-.5-.4 0-.8.2-1.1.6z"/><path class="st62" d="M112.5 73.5c.4 17.4.9 32.3 1.6 44.8l6.8-.4c-.7-12.4-1.2-27.3-1.6-44.6 0-.8-.3-1.5-.9-2.1-.5-.6-1.2-.9-2-.8h-1.2c-.8 0-1.4.3-2 .9-.4.6-.7 1.4-.7 2.2z"/><path class="st61" d="M114 116.2l6.8-.3v-.8l-6.8.4zm-.1-2.2l6.8-.3v-.8l-6.8.3z"/><path class="st1" d="M120.6 119.6c.3.3.5.7.5 1.2v3.2h-7.5v-3.2c0-.5.2-.9.5-1.2.3-.3.6-.4 1-.5h-.2 4.5c.5 0 .9.1 1.2.5z"/><path class="st46" d="M117.2 120.6c-.6 0-1.1.2-1.6.7-.4.4-.6.9-.6 1.5v1.2h2.2v-3.4z"/><path class="st1" d="M118.9 119.2v-.4c0-.3-.1-.5-.3-.7-.2-.2-.4-.3-.7-.3h-1.1c-.3 0-.5.1-.7.3-.2.2-.3.4-.3.7v.4h3.1z"/><path class="st46" d="M117.3 120.6c.6 0 1.1.2 1.6.7.4.4.6.9.6 1.5v1.2h-2.2v-3.4z"/><path class="st1" d="M114 122.9h7.3v1.1h-7.3z"/><path class="st64" d="M119.4 67.2h-17.6"/><path class="st65" d="M108.7 80.8l-2.8.1m2.8 1.8h-2.8"/><path class="st41" d="M122.7 26.1c-.1-.2-.2-.5-.2-.9s.1-.7.2-.9l.1-.2c.1-.2.3-.5.4-.8l.3-.9.1-.5c0-.2.2-.4.4-.6.2-.1.5-.2.8-.1h.3c.3.1.5.2.8.4.3.2.5.4.6.7l.5 1.2c.1.2.1.5.1.8 0 .3-.1.6-.3.8l-.7 1.1c-.5.6-1.1.9-1.9.8-.6.1-1.1-.3-1.5-.9zm-27.1 49.5l.1 2.5c0 .7-.1 1.3-.4 1.6l-.1.2c-.4.5-.6 1-.8 1.6v.5c-.1.2-.2.4-.5.6-.2.1-.5.2-.8.1l-.3-.1c-.3-.1-.5-.2-.8-.4-.2-.2-.4-.5-.5-.7l-.4-1.2c-.1-.2-.1-.5 0-.8 0-.3.1-.6.3-.8l.6-.8c.2-.3.6-1.3 1.2-3l2.4.7zm3.9-18.9l-.3.8c-.4 1.3-.6 2-.6 2.1-.6 2-1.1 4.2-1.5 6.6-.3 1.9-.7 4.2-1 6.7-.1 1.2-.2 2.3-.3 3.1 0 .4-.2.7-.6 1-.4.3-.8.4-1.2.3-.5 0-.8-.2-1.1-.5-.3-.3-.4-.7-.4-1.1l.3-3.2c.3-2.5.6-4.8 1-7 .4-2.5 1-4.8 1.6-6.9.3-1.1.6-1.9.7-2.2l.3-.8 3.1 1.1z"/><path class="st52" d="M100.6 45.7c.6-.2 1.2-.1 1.8.3.6.3 1 .8 1.3 1.4.2.6.2 1.1 0 1.6l-.7 1.4c-.5 1.1-1 2.1-1.3 3.1-.6 1.5-1.2 3-1.6 4.6l-4.8-1.5c.5-1.7 1.1-3.3 1.7-5 .7-1.6 1.2-2.7 1.5-3.3l.7-1.5c.3-.6.7-1 1.4-1.1z"/><use xlink:href="#flash0.ai_x5F_5_x2F_Layer_3_x2F__x3C_Path_x3E__x5F_0" width="13.3" height="7.8" x="-6.6" y="-3.9" transform="matrix(.393 0 0 -.393 98.009 55.274)" overflow="visible"/><path class="st63" d="M105.8 24.8l-3.3-1.9c-.3.7-.4 1.4-.1 2.2.2.7.7 1.3 1.4 1.7l2-2z"/><path class="st1" d="M108.7 119.6c.3.3.5.7.5 1.2v3.2h-7.5v-3.2c0-.5.2-.9.5-1.2.3-.3.6-.4 1-.5h-.2 4.5c.5 0 .9.1 1.2.5z"/><path class="st46" d="M105.5 120.6c-.6 0-1.1.2-1.6.7-.4.4-.6.9-.6 1.5v1.2h2.2v-3.4z"/><path class="st1" d="M107 119.2v-.4c0-.3-.1-.5-.3-.7-.2-.2-.4-.3-.7-.3h-1.1c-.3 0-.5.1-.7.3-.2.2-.3.4-.3.7v.4h3.1z"/><path class="st46" d="M105.5 120.6c.6 0 1.1.2 1.6.7.4.4.6.9.6 1.5v1.2h-2.2v-3.4z"/><path class="st1" d="M101.9 122.9h7.3v1.1h-7.3z"/></svg>