<svg xmlns="http://www.w3.org/2000/svg" viewBox="0 0 170.9 128.6" enable-background="new 0 0 170.9 128.6"><style type="text/css">.st0{fill:#FFFFFF;} .st1{fill:#C08942;} .st2{fill:none;stroke:#EDBB7C;stroke-width:1.719;stroke-linecap:round;stroke-linejoin:round;stroke-miterlimit:3;} .st3{fill:#3B2314;} .st4{fill:#FFA685;} .st5{fill:#F6921E;} .st6{fill:#CF4E21;} .st7{fill:#177D8F;} .st8{fill:#FBB32C;} .st9{fill:#ECE6E1;} .st10{fill:#D8D0BC;} .st11{fill:none;stroke:#000003;stroke-width:1.5471;stroke-linecap:round;} .st12{fill:#FFAD8C;} .st13{fill:#F5F5F5;} .st14{fill:#5B331D;} .st15{fill:#1E193D;} .st16{fill:#4DACB5;} .st17{fill:none;stroke:#4DACB5;stroke-width:3.0942;} .st18{fill:none;stroke:#177D8F;stroke-width:1.5471;stroke-linecap:round;} .st19{fill:#EDBB7C;} .st20{fill:none;stroke:#C08942;stroke-width:1.719;stroke-linecap:round;stroke-linejoin:round;stroke-miterlimit:3;} .st21{fill:none;stroke:#594A37;stroke-width:3.4379;stroke-linecap:round;stroke-linejoin:round;stroke-miterlimit:3;} .st22{fill:#F15E00;} .st23{fill:#8DB220;}</style><path class="st0" d="M154.3 58.1l.1-.6-.1.6zm.1 10.8v-3.4c.1 2.1.4 3.3 1.1 3.7-.3.1-.6.1-.8.1-.2-.1-.3-.2-.3-.4zm-.2-16.1l-9.5 3.4 9.2-3.5.3.1z"/><path class="st1" d="M154.4 65.5v4.2l-12.9 5.3-13 4.6-.1-.1-12.7-6.2-.2-.2h-.3l-.1-9.9.3-.6h-.1l-.1-.1.1-.1-.2-.2v-3.9l.2-.7h-.1l.1-.4 11.6-4 1.5.6v-1.6l.3-.6.1.1-.1-1.1v-4l.3-.6-.2-.1.1-.4 11.6-4 14 5.7.2.2-.1 5-.7.3-9.2 3.5-2.1.7h-.1l-.9.3-12.7-5.5-.2-.1.2.1 12.7 5.5.9-.3h.1l2.1-.7 9.5-3.4.2.2v4.5l-.1.6-.9.3.7.3.2.2v5.8l.1.1v.7zm-26-11.8l12.5 5.1-12.5 4.4v10.5l11.9-4.3-11.9 4.3v-10.5l12.5-4.4-12.5-5.1zm12.5 10.4l-11.9 4.4 11.9-4.4zm13.6-16.9l-12.6 4.3-13-5.5 12.9 5.6 12.7-4.4zm-26.1 21.3l-13-5.9 13 5.9zm0-5.3l-13.1-5.7 13.1 5.7zm25.1 1l-11.2 4.2 11.2-4.2.7.3v-.6l-.7.3zm-11.1-1.7l11-4-11 4zm-14 11.1v5.8-5.6-.2zm-12.6-5.1l12.6 5.4-12.6-5.4z"/><path class="st2" d="M115.2 57.5m0-.4l11.6-4 1.5.6 12.5 5.1-12.5 4.4v10.5l11.9-4.3m-11.6-17.9l.1.1.2.1 12.7 5.5.9-.3h.1l2.1-.7 9.2-3.5.7-.3m-26-1.9v-4m.3-.5l-.2-.1m.2-.4l11.6-4 14 5.7-12.6 4.3-13-5.5m25.8 1.4l-.1 5-.2 3.8v1.8m-.1.1v3.4l.1 3.2v4.7m0 .3l-12 4.5m-1 .7l-13 4.6-.1-.1-12.7-6.2m-.5-.1l-.1-9.9m.3-.6l-.2-.5v-3.9m25.8 5.9l-11.9 4.4m-.6 0l-13-5.9m13 .6l-13.1-5.7m38.9-4.7l-.3-.1m.3.1l-9.5 3.4m9.7 0v-3.2m0 4.5l-.1.6m-.8 6.1l-11.2 4.2m.1-5.9l11-4m-25 15.1v5.8m-12.6-10.9l12.6 5.4m12.6-15.1v16.4m.9-24v5.5"/><path class="st0" d="M65 44.8l-.2.2v-.5l.5.1z"/><path class="st3" d="M50.2 20.6l-3.4-8.7 5.1-2 2.7 6.8c.2.5.2 1 0 1.6-.2.5-.6.9-1.1 1.1l-3.3 1.2z"/><path class="st4" d="M53.1 33.7l-1.2 2.3c-.8 1.7-1.7 3.4-2.7 5.1-1 1.8-2 3.5-2.9 5l-1.4 2.2c-.2.3-.5.5-.8.6-.3.1-.7 0-.9-.2-.3-.2-.5-.5-.5-.8-.1-.3 0-.6.2-.9 1.5-2.3 2.9-4.6 4.2-7 .8-1.5 1.7-3.1 2.6-5l1.1-2.3 2.3 1z"/><path class="st5" d="M46.7 39.9l2.7 1.5-2 3.5c-.7 1.2-1.4 2.3-2.2 3.5-.3.4-.6.6-1 .7-.4.1-.8 0-1.2-.2-.4-.3-.6-.6-.7-1-.1-.4 0-.8.2-1.2.7-1.1 1.4-2.2 2.1-3.4l2.1-3.4z"/><path class="st6" d="M57.2 24.2c.2.5.2 1 0 1.4l-2 4.6-2.1 4.6-3.4-1.7 2.1-4.4 1.9-4.5c.2-.5.5-.8 1-1 .5-.2 1-.2 1.5 0s.8.5 1 1z"/><path class="st7" d="M62 77.8c.3.3.5.7.5 1.2l-.5 12.2c0 .5-.2.9-.5 1.2-.3.3-.7.5-1.2.5s-.8-.2-1.2-.5c-.3-.3-.5-.8-.5-1.2l.5-12.1c0-.5.2-.9.5-1.2.3-.3.7-.5 1.2-.5.5-.1.9.1 1.2.4z"/><path class="st8" d="M63.4 45.5c.5.5.7 1.2.7 1.9l-.4 41.7h-5.7l.4-41.6c0-.8.2-1.4.7-1.9s1-.8 1.7-.8h1c.6-.1 1.1.2 1.6.7z"/><path class="st9" d="M63.6 87.5l-5.8.1v-.7h5.8zm-5.801-2.69l5.7-.018.002.7-5.7.018z"/><path class="st10" d="M61.7 90.1c.4 0 .8.2 1.2.5s.5.7.5 1.2v3.1h-7.7v-3.2c.4 0 .8-.1 1.1-.4.3-.3.5-.6.5-1h4.4z"/><path class="st9" d="M53.1 93.7c0-.6.2-1.1.6-1.5s.9-.6 1.5-.6h.9c.6 0 1.1.2 1.5.6.4.4.6.9.6 1.5v1.2h-5.1v-1.2zm10.2-2.1v3.3h-2.1v-1.2c0-.6.2-1.1.6-1.5.5-.4.9-.6 1.5-.6z"/><path class="st10" d="M60.2 90.2h-3v-.4c0-.3.1-.5.3-.7.2-.2.4-.3.7-.3h1c.3 0 .5.1.7.3.2.2.3.4.3.7v.4zm-7.1 3.5h10.2v1.1h-10.2z"/><path class="st11" d="M58.6 90.5h-1.4m.9.8h-1.4"/><path class="st3" d="M60.5 15.2c-.3.4-.9.8-1.5 1.2-.6.4-1.4.6-2.2.8l-.3-2.4c.7-.6 1.5-1.4 2.1-2.5.7-1.1 1.1-2.2 1.2-3.1.6.4 1 1.1 1.2 1.9.2.7.2 1.5.1 2.3 0 .7-.2 1.3-.6 1.8z"/><path class="st6" d="M53 26l5.6-5.8 8 .4 5.4 19.5-10 5.3-3.2-8.1-1.2-2.4c-.8-.2-1.5-.7-2-1.4-.6-.7-.9-1.5-.9-2.4l-.1-2.2-1.6-2.9z"/><path class="st12" d="M61.1 20.7c.2.5.2.9-.1 1.4-.2.5-.6.8-1 .9-.5.2-.9.1-1.4-.1-.5-.2-.8-.6-.9-1l-2-5.8c-.2-.5-.1-.9.1-1.4.2-.5.6-.8 1-.9.5-.2.9-.1 1.4.1s.8.6.9 1l2 5.8zm-4.7-16.1c.8.6 1.4 1.4 1.8 2.4l1.8 4.4c.6 1.6.4 3.4-.6 5.2-1.1 2-2.7 3.4-4.8 4.2-1.2-.1-2.2-.4-3-1-.8-.6-1.5-1.6-2.2-3-.3-.6-.7-1.7-1.3-3.3l-.9-2.3c-.4-1-.5-2-.5-2.9l9.7-3.7z"/><path class="st13" d="M55.3 15.8c.1.5 0 .9-.2 1.3s-.6.7-1 .9c-.5.2-.9.2-1.3 0s-.8-.4-1-.8l3.5-1.4z"/><path class="st3" d="M49 5.2l.8 2.1c-.6.7-1.1 1.5-1.5 2.7-.4 1.2-.6 2.2-.5 3-.7-.2-1.3-.7-1.7-1.3-.4-.5-.6-1.2-.7-1.9-.1-1.1.5-2.3 1.9-3.5.5-.4 1-.8 1.7-1.1z"/><path class="st14" d="M61.1 9.9l-.9 1.5-1.5.6c-.3.1-.5.1-.8 0-.3-.1-.4-.3-.6-.6l-.3-.6c-1.6 0-3.1-.2-4.6-.6-1.4-.5-2.8-1.2-3.9-2.1-.7-.6-1.3-1.1-1.7-1.4 1.2-1.1 2.2-1.9 3-2.5 1.2-.8 2.4-1.3 3.6-1.5 1.5-.3 2.9-.1 4.2.6 1.5.7 2.4 1.8 3 3.1.3.7.4 1.8.5 3.5z"/><path class="st15" d="M53.6 12.1c-.1-.1 0-.3 0-.4.1-.1.1-.2.3-.3.1-.1.3-.1.4 0l.3.3c.1.1.1.3 0 .4l-.3.3h-.4c-.2 0-.3-.1-.3-.3zm-4.1 1.6c-.1-.1 0-.3 0-.4.1-.1.1-.2.3-.3s.3-.1.4 0l.3.3c.1.1.1.3 0 .4l-.3.3h-.4c-.1 0-.2-.1-.3-.3z"/><path class="st12" d="M59.4 9.3c.4-.2.9-.2 1.3 0s.7.5.9.9.2.9 0 1.3-.5.7-.9.9l-1.6.6-.6-1.6c-.2-.4-.2-.9 0-1.3.1-.3.5-.6.9-.8z"/><path class="st7" d="M71.9 78.8c0 1.2.1 3.2 0 6 0 2.6 0 4.6.1 6 0 .5-.1.9-.4 1.2-.3.3-.7.5-1.2.6s-.9-.1-1.2-.4c-.3-.3-.5-.7-.6-1.2-.1-1.4-.1-3.4-.1-6v-6.1c0-.5.1-.9.4-1.2.3-.3.7-.5 1.1-.6.5 0 .9.1 1.2.4.5.5.6.9.7 1.3z"/><path class="st8" d="M70.3 44.8c.5 0 1.3.5 2.4 1.4.6.5 1.1.9 1.5 1.4l-.6 41.3-5.7.4c-.3-5.5-.4-12.5-.6-20.8-.3-13.5-.3-20.4-.4-20.8 0-.8.2-1.4.6-2 .5-.5 1-.8 1.6-.8l1.2-.1z"/><path class="st10" d="M72.5 87.2l-5.8.3v-.7l5.7-.3zm-5.913-2.438l5.691-.315.039.699-5.691.315zm5.013 5.338c.4 0 .8.2 1.2.5.3.3.5.7.5 1.2v3.1h-7.7v-3.2c.4 0 .8-.1 1.1-.4.3-.3.5-.6.5-1h4.4z"/><path class="st9" d="M67.5 92.2c.4.4.6.9.6 1.5v1.2h-5.1v-1.2c0-.6.2-1.1.6-1.5.4-.4.9-.6 1.5-.6h.9c.6 0 1.1.2 1.5.6zm5.7-.6v3.3h-2.1v-1.2c0-.6.2-1.1.6-1.5.4-.4.9-.6 1.5-.6z"/><path class="st10" d="M70.1 90.2h-2.9v-.4c0-.3.1-.5.3-.7.2-.2.4-.3.7-.3h1c.3 0 .5.1.7.3.2.2.3.4.3.7l-.1.4zm-7.1 3.5h10.2v1.1h-10.2z"/><path class="st11" d="M68.6 90.5h-1.4m.9.8h-1.4"/><path class="st8" d="M71.8 40.2l.9 1.9c.6 1.7.9 3.6.9 5.7 0 2.2-.5 3.7-1.4 4.3-.5.3-1.6.5-3.4.5h-5.2c-1.3 0-2.4-.5-3.4-1.4-.9-.9-1.4-2.1-1.4-3.4v-7.6h13z"/><path class="st16" d="M71.6 38.6l.3 1.2v24c0 1.4-.5 2.6-1.5 3.6s-2.2 1.5-3.6 1.5h-8.8l1.2-29.1-2.4-10.4 7.5-1.9 2.9 9.3c.3.6.8 1 1.3 1.3.6.4 1.1.5 1.7.5h1.4z"/><path class="st7" d="M71.8 40.2h-12.8l.1-1.7h12.7z"/><path class="st17" d="M63 29.8c-.4-3.6.4-7.1 2.4-10.6m-6.5 12c-1-1.8-1.7-4-2.1-6.6l-.3-3.3"/><path class="st18" d="M60.3 37.1v4.8m1.2-4.8v4.8"/><path class="st14" d="M60.6 6.4l2.7 6.8c.2.5.2 1 0 1.6-.2.5-.6.9-1.1 1.1l-3.2 1.2-3.4-8.7 5-2z"/><path class="st5" d="M43 49.8c.1.3 0 .5-.1.7-.1.2-.3.4-.6.4-.3.1-.5 0-.7-.1l-1.3-.7c-.2-.1-.4-.3-.5-.6-.1-.2 0-.5.1-.7.1-.2.3-.4.6-.5.2-.1.5 0 .7.1l1.3.7c.3.3.5.5.5.7zm.9-5.2l1.7 1.5-.9 2.2c-.3.7-.6 1.1-.9 1.3l-.2.1c-.5.3-.9.7-1.2 1.1l-2.1-2.2c0-.2.1-.5.3-.7.1-.3.3-.5.5-.6l.8-.5c.2-.2.9-.9 2-2.2z"/><path class="st19" d="M64.3 44.3v.5h.2l.1 6h-.3l-10.5 8.6-14-5 .2-6.4 14.1 4.7 10.1-8-10.2 8-14.1-4.7c.3-.4 3.6-3 10.1-7.7 0 0 .1 0 .1-.1l.1-.1 14.1 4.2z"/><path class="st20" d="M64.3 44.3v.5l.2-.2.2-.2-.4-.1zm.3 6.5l-.1-6v-.2m-.2.2l-10.2 8-14.1-4.7-.2 6.4 14 5 10.5-8.6m-24.2-2.8c.3-.5 3.6-3 10.1-7.7l.2-.1 14 4.1m-14.2-4.1s.1 0 .1-.1l.1-.1m3.1 12.6v6.1"/><path class="st4" d="M67.9 40.3h-2.5v-.3c.2-1.7.3-3.6.5-5.7l.1-2.6 2.5.1-.1 2.6c-.1 1.8-.3 3.7-.5 5.7v.2z"/><path class="st6" d="M69.3 22.7v5c0 1.7-.1 3.4-.1 5l-3.8-.2c.1-1.6.1-3.3.1-4.9v-4.9c0-.5.2-1 .5-1.3.4-.4.8-.6 1.3-.6s1 .2 1.4.5c.4.5.6.9.6 1.4z"/><path class="st4" d="M67.9 39.9l-.1.8c-.9 1.6-1.9 3.3-3 4.9-1.1 1.8-2.1 3.4-3.2 4.8l-1.5 2.2c-.2.3-.5.4-.8.5-.4.1-.7 0-1-.2-.3-.2-.4-.5-.5-.8 0-.3 0-.7.2-1 1.6-2.2 3.1-4.4 4.6-6.8.8-1.3 1.8-2.8 2.7-4.5l2.6.1z"/><path class="st5" d="M60.5 47.6l2.2-3.3 2.7 1.7-2.3 3.4c-.8 1.1-1.5 2.2-2.4 3.3-.3.4-.6.6-1.1.7-.4.1-.8 0-1.2-.3-.3-.3-.5-.6-.6-1.1-.1-.4 0-.8.3-1.2.9-1 1.7-2.1 2.4-3.2z"/><path class="st21" d="M53 76.4l-3.7 23.1m.3 0l-7.2-.6"/><path class="st0" d="M128.4 67.7l.1-.6-.1.6zm.1 10.8v-3.4c.1 2.1.4 3.3 1.1 3.7-.3.1-.6.1-.8.1-.2-.1-.3-.2-.3-.4zm-.2-16.1l-9.5 3.4 9.2-3.5.3.1z"/><path class="st1" d="M128.5 75.1v4.2l-12 4.5-.9-.5v1.8l-.1-.5-13 4.6-.1-.1-12.7-6.2-.2-.2h-.3l-.1-9.9.3-.6h-.1l-.1-.1.1-.1-.2-.2v-3.9l.2-.7h-.1l.1-.4 11.6-4 1.5.6v-1.6l.3-.6.1.1-.1-1.1v-4l.3-.6-.2-.1.1-.4 11.6-4 14 5.7.2.2-.1 5-.7.3-9.2 3.5-2.1.7h-.1l-.9.3-12.6-5.5-.2-.1.2.1 12.7 5.5.9-.3h.1l2.1-.7 9.5-3.4.2.2v4.5l-.1.6-.9.3.7.3.2.2v5.8l.1.1v.7zm-26.1-11.7l12.5 5.1-12.5 4.4v10.5l11.9-4.3-11.9 4.3v-10.5l12.5-4.4-12.5-5.1zm12.6 10.3l-11.9 4.4 11.9-4.4zm13.6-16.9l-12.6 4.3-13-5.5 12.9 5.6 12.7-4.4zm-26.2 21.3l-13-5.9 13 5.9zm0-5.3l-13.1-5.7 13.1 5.7zm25.2 1l-11.2 4.2 11.2-4.2.7.3v-.6l-.7.3zm-11.1-1.7l11-4-11 4zm-14.1 11.1v5.8-5.6-.2zm-12.6-5.1l12.6 5.4-12.6-5.4z"/><path class="st2" d="M89.3 67.1m0-.4l11.6-4 1.5.6 12.5 5.1-12.5 4.4v10.5l11.9-4.3m-11.6-17.9l.1.1.2.1 12.7 5.5.9-.3h.1l2.1-.7 9.2-3.5.7-.3m-26-1.9v-4m.3-.5l-.2-.1m.2-.4l11.6-4 14 5.7-12.6 4.3-13-5.5m25.7 1.5l-.1 5-.2 3.8v1.8m0 0v3.4l.1 3.2v4.7m0 .3l-12 4.5m-1 .8l-13 4.6-.1-.1-12.7-6.2m-.5-.2l-.1-9.9m.3-.6l-.3-.5v-3.9m25.9 5.9l-11.9 4.4m-.7 0l-13-5.9m13 .6l-13.1-5.7m39-4.7l-.3-.1m.3.1l-9.5 3.4m9.7 0v-3.2m0 4.5l-.1.6m-.8 6.1l-11.2 4.2m.1-5.9l11-4m-25.1 15.1v5.8m-12.6-10.9l12.6 5.4m12.7-15v16.3m.9-24v5.5"/><path class="st22" d="M128.1 85.1l1.6 4 5.6 2.5-1.7.7-4.8-2.3 3.2 2.9-1.5.6-3.1-2.9 1.7 3.5-1.9.7-1.8-4.4-5.2-2.2 1.8-.7 4.4 2.2-2.9-2.7 1.5-.6 2.9 2.8-1.5-3.3 1.7-.8zm4.1-1.6l1.5-.6 7.1 6.5-1.6.6-2.9-2.8-1.8.8 2.9 2.8-1.6.5-7-6.5 1.5-.6 2.6 2.5 1.9-.7-2.6-2.5zm5-2.3c.7-.3 1.4-.4 2.2-.2 1.2.2 2.5.9 4 1.9.6.5 1.1.9 1.6 1.3.5.5.9 1.1 1.1 1.5.5 1.1.2 1.8-.9 2.2-.9.3-1.9.3-3.2-.1-1-.3-1.9-.9-3-1.7-.9-.6-1.6-1.3-2.1-1.9-.2-.3-.4-.6-.6-1-.5-.9-.2-1.6.9-2zm-24.3 10.2c.6.1 1.2.4 1.9.9.5.4.9.8 1 1.3.2.4.2.7-.2.9v.1c.4 0 .8 0 1.4.1.5.2 1 .4 1.5.8.8.6 1.2 1.2 1.2 1.7.1.4-.2.8-1 1l-3.2 1.3-7-6.5 3-1.1c.6-.5 1-.6 1.4-.5zm-.5 1.7l-.9.3 1.5 1.4.9-.3c.2-.1.3-.2.3-.3.1-.2 0-.5-.5-.8-.2-.2-.5-.3-.7-.3-.1-.2-.4-.2-.6 0zm-5.5 2.3c-.4-.2-.8-.2-1.1 0-.2.1-.3.2-.3.5s.3.8 1 1.5l2.4-.9-.7-.6c-.5-.2-.9-.4-1.3-.5zm-2.6-1.2c.8-.3 1.7-.3 2.7-.1 1 .4 2 1 3.2 1.8.5.3 1 .7 1.4 1.2l-4 1.5.3.1.3.3c.5.4.9.7 1.3.9.5.2 1 .2 1.4.1l.5-.3c0-.3-.1-.6-.3-.9l1.5-.6c.7.8 1 1.4.9 1.8 0 .6-.4 1-1.1 1.3-.9.4-1.9.3-3.2-.1-.9-.3-1.9-.9-2.9-1.7-1.3-1-2.2-1.9-2.8-3-.6-1.1-.3-1.9.8-2.3zm-1.9 5l-2.6-2.6 1.5-.5 7.2 6.8-1.6.5-3-2.9-1.8.7 2.9 2.9-1.6.5-7-6.9 1.5-.5 2.7 2.6 1.8-.6zm24.5-4.4l-1.6.7-.9-.6c.1.4.1.7 0 1-.1.3-.4.5-.7.6-.4.2-.9.2-1.3.1-.7 0-1.5-.4-2.3-1-.6-.5-1-.9-1.3-1.3-.3-.5-.3-.8 0-1 0-.1.5-.5 1.4-1.2.4-.3.3-.6-.5-1.1-.2-.2-.5-.4-.8-.5-.2 0-.5 0-.7.1-.3.1-.4.3-.3.5.1.3.3.6.6.9l-1.7.6c-.6-.6-1-1.1-1.1-1.6-.1-.7.3-1.2 1.2-1.6.8-.3 1.6-.4 2.3-.3.6.2 1.2.6 1.8 1 .1.1.2.2.4.3.2.2.3.3.5.3l3.2 3.1.3.3c.2 0 .3.1.5.3.1.1.2.2.3.2.2.1.4.2.7.2zm-5.4-2c0 .1-.1.2-.3.4-.3.2-.4.3-.4.6-.1.2.1.5.7 1l.7.3c.3.1.5.1.7 0 .2-.1.3-.3.3-.5.1-.4-.3-.9-1-1.6l-.4-.5c-.1.2-.2.3-.3.3zm-4.6 3c-.3-.2-.6-.4-.9-.4-.3 0-.5 0-.8.1l-1 .4 1.7 1.4 1-.3c.3-.2.5-.3.5-.6-.1 0-.2-.2-.5-.6zm29.4-17.2c1 .3 2 .9 3.1 1.7.3.2.5.4.7.6h.1l.7.6-4 1.5c0 .1.1.1.2.2l.3.3c.5.3.9.6 1.3.7l.3.1c.3.1.6.1 1 0 .1 0 .1 0 .1-.1.2-.1.4-.2.5-.3 0-.3-.2-.6-.5-.9l1.5-.7c.6.8 1 1.4.9 1.8v.1c0 .5-.4.9-1 1.2-1 .4-2 .4-3.1 0-.7-.3-1.5-.7-2.3-1.2-.2-.1-.5-.2-.7-.4-1.2-1-2.1-1.9-2.6-2.9-.5-.8-.4-1.5.1-1.9.2-.2.4-.3.6-.4 1-.2 1.8-.2 2.8 0zm-7.8 5c.2.2.3.4.6.6.4.5 1 1 1.7 1.6.7.5 1.3.8 1.9.9.3.1.6.1 1-.1.5-.2.5-.7 0-1.3-.3-.4-.6-.8-1-1.1-.3-.3-.7-.6-1.1-.9-.6-.4-1.1-.7-1.5-.9-.6-.2-1.1-.2-1.4-.1-.5.4-.6.8-.2 1.3zm9-3.2c-.4-.3-.8-.5-1.3-.5-.4-.2-.8-.2-1 0-.3.1-.5.2-.5.5s.3.9 1.1 1.5l2.3-1-.6-.5z"/><path class="st19" d="M37.8 88.4l15.1 6.7-15.1-6.7-.2-.1-.2-.2v-4.5l.3-.8 4 1.7-4-1.7h-.1v-.1l4.1 1.8 11.8 5.2 13.6-5-13.6 5-11.8-5.2-4.1-1.8v-.1l-.1-.1v-4.5l.3-.8 15 6.4 14.3-4.9-14.3 4.9-15-6.4-.1-.1.1-.4 13.2-4.6 16.1 6.6.2.3v4.5l-.1 1.1-.1.1v5.5l.2.2v4.5l-.1 1.2-13.7 5.1-15.8-7.1-.2-.2v-4.5l.3-.7 15 6.4h.1l.6.2 13.6-5.1-13.6 5.1-.6-.2h-.1l-15-6.4-.1-.1z"/><path class="st20" d="M37.7 77.1l.1.1 15 6.4 14.3-4.9-16.1-6.6-13.2 4.6m-.3 1.3v4.5m.1.2l4.1 1.8 11.9 5.2 13.6-5 .1-.1m0-1.1v-4.5m-.2 10.1v-4.4m.2 10.2v-4.6m-.2-.1l-13.7 5.1-.6-.2h-.1l-15-6.4m-.2.7v4.5m.2.2l15.8 7 13.7-5m-29.8-12.5v4.5m.2.2l.2.1 15.1 6.7m-15.3-12.3l.1.1 4 1.7m-4 4l.1.1"/><path class="st19" d="M23 99.3l-.2-.1v-4.6l.2-.4 15.8 7 13.9-5.1-13.9 5.1-15.8-7-.1-.1-.2-.2v-4.5l.3-.7 14.9 6.4.6-.2.3.2 13.5-4.9.2.2v5.1l.1.2v4.5l-.1 1.3-13.8 5.1-15.7-7.3zm29.6-10.5l-.1 1.2-.2.2-13.5 4.9-.3-.2-.6.2-14.9-6.4-.1-.1.1-.5.3-.1 15.2 6.8-15.2-6.8h-.3l-.2-.2v-4.6l.3-.6-.1-.1v-.1l5.9 2.8 9.9 4.3 13.8-5.2-13.8 5.2-9.9-4.3-5.9-2.8-.1-.1-.2-.2v-4.5l.3-.7 15 6.4 14.3-5 .3.3v4.6l-.1 1 .1.1.1.1-.1 4.4zm-29.6-12.4l13.2-4.7 16.1 6.6-14.3 5-15-6.4-.2-.1.2-.4zm.1 6.2l5.8 2.5-5.8-2.5z"/><path class="st20" d="M22.9 82.3l6 2.8 9.9 4.3 13.8-5.2m0-1v-4.6m-.3-.3l-14.3 5-15-6.4m-.1-.1l.2.1m29.2 1.4l-16.1-6.6-13.2 4.7m29.6 12.4v-4.5m-.3 5.9l.2-.2m0 4.9v-4.5m-.2-.2l-13.5 4.9-.3-.2-.6.2-14.9-6.4m-.1 5.4l.1.1 15.8 7 13.9-5.1v-.5m-.1 4.5v-4m-29.6 3.2l15.8 7.1 13.8-5.1m-29.6-13.3l.3.1 15.2 6.8m-15.5-12.4l.1.1 5.8 2.5m-5.6 3l-.3.1m-.1.4l.1.1m-.3-12.2v22.7m16.5-16v22.8"/><path class="st19" d="M9.4 104.5l-.2-.1v-4.6l.2-.4 15.8 7 13.9-5.1-13.9 5.1-15.8-7-.1-.1-.2-.2v-4.5l.3-.7 14.9 6.4.6-.2.3.2 13.5-4.9.2.2v5.1l.1.2v4.5l-.1 1.3-13.8 5.1-15.7-7.3zm29.7-10.5l-.1 1.2-.2.2-13.5 4.9-.3-.2-.6.2-15-6.4-.1-.1.1-.5.3-.1 15.2 6.8-15.2-6.7-.3-.1-.2-.2v-4.6l.3-.6-.1-.1v-.1l5.9 2.8 9.9 4.3 13.8-5.3-13.8 5.2-9.9-4.3-5.9-2.8-.1-.1-.2-.2v-4.5l.3-.7 15 6.4 14.3-5 .3.3v4.6l-.1 1 .1.1.1.1v4.5zm-29.7-12.4l13.2-4.7 16.1 6.6-14.3 5-15-6.4v-.5zm.2 6.2l5.8 2.5-5.8-2.5z"/><path class="st20" d="M9.4 87.5l6 2.8 9.9 4.3 13.7-5.2m.1-1v-4.6m-.3-.3l-14.3 5-15-6.4m-.1-.1l.2.1m29.2 1.4l-16.1-6.6-13.3 4.7m29.7 12.4v-4.5m-.3 5.9l.2-.2m0 4.9v-4.5m-.2-.2l-13.5 4.9-.3-.2-.6.2-15-6.4m-.1 5.4l.1.1 15.8 7 13.9-5.1v-.5m0 4.5v-4m-29.7 3.2l15.8 7.1 13.8-5.1m-29.6-13.3l.3.1 15.2 6.8m-15.5-12.4l.1.1 5.8 2.5m-5.6 3l-.3.1m-.1.4l.1.1m-.2-12.2v22.6m16.5-15.9v22.8"/><path class="st23" d="M78.4 105.5c0 .4.3.9 1.1 1.7l2.5-1-.7-.6c-.5-.3-.9-.5-1.3-.6-.5-.1-.8-.1-1.1 0-.3 0-.5.2-.5.5zm-1.1-1.9c.8-.3 1.8-.4 2.9-.1.5.1.9.3 1.4.6.7.3 1.3.7 2 1.2.5.4 1 .8 1.5 1.3l-4.4 1.8.3.2.3.3c.5.4 1 .7 1.4.9.5.2 1 .2 1.5 0 .3-.1.4-.2.5-.3 0-.3-.1-.7-.4-1l1.7-.7c.7.8 1 1.4 1 1.9 0 .6-.4 1.1-1.2 1.4-1 .4-2.1.4-3.3 0-1-.3-2.1-.9-3.2-1.7-1.3-1-2.3-2.1-2.9-3.1-.5-.9-.4-1.6.1-2.1.2-.3.5-.5.8-.6zm-1.2 8.8c.4.1.8 0 1.1-.1.5-.2.5-.7 0-1.4-.5-.6-1.2-1.4-2.2-2.2-.6-.4-1.2-.7-1.7-.9-.7-.2-1.2-.2-1.5-.1-.5.2-.6.6-.2 1.3.5.7 1.3 1.5 2.5 2.5.8.5 1.4.8 2 .9zm2.8 1.4c-1 .4-2.2.3-3.5-.2-1-.3-2.1-.9-3.3-1.8-1.5-1.1-2.4-2.2-2.9-3.2-.6-1.1-.3-1.9.9-2.3.7-.3 1.5-.4 2.4-.2 1.3.2 2.8.9 4.4 2.1 1.5 1.1 2.4 2.1 2.9 3.1.6 1.2.3 2-.9 2.5zm-12.4-5.7l7.7 7.1-1.7.6-3.2-3-2.1.9 3.2 3-1.7.6-7.7-7.1 1.7-.6 2.9 2.6 2-.7.1-.1-2.9-2.8 1.7-.5zm-17.3 9c.1.3.4.6.7.9l-1.8.7c-.7-.7-1.1-1.3-1.3-1.8-.2-.7.3-1.3 1.3-1.7.9-.3 1.7-.4 2.6-.3.6.2 1.3.6 1.9 1 .1.1.3.2.5.3l.4.4 3.5 3.3c.2.1.3.2.3.3l.5.3.5.3c.1.2.3.2.6.2l.1.1-1.8.7-.9-.6c.1.4.1.8-.1 1-.1.3-.4.5-.7.6-.5.2-1 .2-1.5.2-.7-.1-1.5-.5-2.5-1.1-.6-.5-1.1-.9-1.4-1.4-.3-.5-.3-.9 0-1.2 0-.1.6-.5 1.6-1.3.5-.3.3-.7-.5-1.3-.3-.2-.6-.4-.9-.4-.3 0-.5 0-.7.1-.4.2-.5.4-.4.7zm-5.3 3.9l.9-.3c.2-.1.4-.2.4-.4.2-.2 0-.5-.5-.9-.3-.2-.6-.3-.9-.3-.2 0-.4 0-.7.2l-.9.3 1.7 1.4zm-1.6-3.4c.5-.2.9-.3 1.4-.2.6 0 1.3.3 2.1.9.6.5 1 .9 1.2 1.4.2.4.2.7-.2.9v.1c.4 0 .9 0 1.4.2.5.1 1 .4 1.7.8.9.7 1.3 1.3 1.3 1.8.1.5-.3.9-1.1 1.2l-3.4 1.3-7.7-7.1 3.3-1.3zm4.7 6.3l1-.4c.3-.1.5-.3.5-.6.1-.2-.1-.4-.5-.7-.3-.3-.6-.4-.9-.5-.3 0-.6 0-.9.1l-1 .4 1.8 1.7zm15.9-4.3l-3.4-3.2 1.8 3.8-2 .9-1.9-4.8-5.7-2.5 1.9-.7 4.8 2.3-3.2-3 1.7-.6 3.2 3-1.7-3.6 1.9-.7 1.7 4.3 6.1 2.7-1.9.8-5.2-2.6 3.5 3.2-1.6.7zm-9.6-1c0 .2-.1.3-.2.3 0 .2-.2.3-.5.4-.3.2-.4.4-.4.6-.1.2.2.6.7 1 .2.2.5.3.8.3.3.1.5.1.7 0 .2-.1.3-.2.3-.5 0-.4-.3-1-1.1-1.8l-.3-.3z"/></svg>