<svg xmlns="http://www.w3.org/2000/svg" viewBox="0 0 170.9 128.6" enable-background="new 0 0 170.9 128.6"><style type="text/css">.st0{fill:#1B587A;} .st1{fill:#3E5171;} .st2{fill:#44597C;} .st3{fill:none;stroke:#44597C;stroke-width:8.910000e-002;stroke-linecap:round;stroke-miterlimit:10;} .st4{fill:#4DACB5;} .st5{fill:#FFA685;} .st6{fill:#0E0F2D;} .st7{fill:#F6E8E7;} .st8{fill:#D8D0BC;} .st9{fill:#ECE6E1;} .st10{fill:#4D658C;} .st11{fill:none;stroke:#1A171C;stroke-width:1.2026;} .st12{fill:none;stroke:#44597C;stroke-width:1.2026;} .st13{fill:none;stroke:#000003;stroke-width:1.2026;stroke-linecap:round;} .st14{fill:#6D3D3D;} .st15{fill:#FFC230;} .st16{fill:#FFD39A;} .st17{fill:#834A4A;} .st18{fill:#2F4678;} .st19{fill:#EBF9FF;} .st20{fill:#FFFFFF;} .st21{fill:#CA6959;} .st22{fill:#CCCCCC;} .st23{fill:none;stroke:#DE4653;stroke-width:1.7816;stroke-linecap:round;stroke-linejoin:round;stroke-miterlimit:3;} .st24{fill:none;stroke:#BCDF67;stroke-width:1.7816;stroke-linecap:round;stroke-linejoin:round;stroke-miterlimit:3;} .st25{fill:none;stroke:#594A37;stroke-width:1.7816;stroke-linecap:round;stroke-linejoin:round;stroke-miterlimit:3;}</style><path class="st0" d="M66.3 104.5c.4.4.6.9.6 1.5l-.2 15.1c0 .6-.2 1.1-.6 1.5s-.9.6-1.4.6c-.6 0-1-.2-1.4-.7-.4-.4-.6-.9-.6-1.5l.2-15.1c0-.6.2-1.1.6-1.5.4-.4.9-.6 1.4-.6.6.1 1 .3 1.4.7z"/><path class="st1" d="M69.3 67l-.7 52-7.9-.1.7-52c0-1 .3-1.8 1-2.4.6-.7 1.4-1 2.3-1h1.5c.9 0 1.7.4 2.3 1 .5.7.8 1.6.8 2.5z"/><path class="st2" d="M68.7 116.7l-7.9-.2v-.8l7.9.1v.9z"/><path class="st3" d="M68.7 116.7l-7.9-.2v-.8l7.9.1v.9z"/><path class="st2" d="M68.7 114.1l-7.9-.1v-.9l7.9.1v.9z"/><path class="st3" d="M68.7 114.1l-7.9-.1v-.9l7.9.1v.9z"/><path class="st4" d="M70.1 34.8l-.7 10.1v21.6h-20.5v-21.6l-.7-10.1c3.6-.9 7.3-1.4 10.9-1.4l4 .2c2.5.2 4.8.6 7 1.2z"/><path class="st5" d="M55.5 33.5c1.3-.1 2.5-.2 3.6-.2l4.2.2c-.3.8-.8 1.5-1.5 2s-1.5.8-2.4.8-1.8-.3-2.5-.8c-.6-.4-1.1-1.1-1.4-2z"/><path class="st1" d="M48.9 58.1h20.5v9.9c0 1.7-.6 3.2-1.8 4.4-1.2 1.2-2.7 1.8-4.4 1.8h-8c-1.7 0-3.2-.6-4.4-1.8-1.2-1.2-1.8-2.7-1.8-4.4l-.1-9.9z"/><path class="st2" d="M54 74.2c-1.5-.3-2.7-1-3.6-2.1-1-1.2-1.5-2.5-1.5-4v-9.9h10.2v9.8c0 1.5-.5 2.9-1.5 4-.9 1.2-2.1 1.9-3.6 2.2z"/><path class="st5" d="M59.2 23.5c.6 0 1.2.2 1.6.7.4.4.7 1 .7 1.6v7.7l-.9 2.3-3.7-2.3v-7.7c0-.6.2-1.2.7-1.6.4-.4.9-.7 1.6-.7z"/><path class="st6" d="M66.2 20.3c-.2 0-.3-.1-.5-.2-.1-.1-.2-.3-.2-.5s.1-.3.2-.5c.1-.1.3-.1.5-.1s.3.1.5.2c.1.1.2.3.2.5s-.1.3-.2.5c-.2 0-.4.1-.5.1zm-5.2 0c-.2 0-.3-.1-.5-.2-.1-.1-.2-.3-.2-.5s.1-.3.2-.5c.2-.1.3-.1.5-.1s.3.1.5.2c.1.1.2.3.2.5s-.1.3-.2.5l-.5.1z"/><path class="st7" d="M66.1 24.6c0 .7-.2 1.3-.7 1.8s-1.1.7-1.8.7-1.3-.2-1.8-.7-.7-1.1-.7-1.8h5z"/><path class="st8" d="M70.4 121.7v4h-9.4v-3.7c0-.5.2-1 .6-1.4.4-.4.9-.6 1.4-.6h5.4c.1.5.3.9.7 1.3.3.2.8.4 1.3.4z"/><path class="st9" d="M73.5 124.2v1.4h-6.2v-1.4c0-.7.3-1.3.8-1.8s1.1-.8 1.8-.8h1.1c.7 0 1.3.3 1.8.8.4.5.7 1.1.7 1.8zm-10.7-1.8c.5.5.7 1.1.7 1.8v1.4h-2.5v-3.9c.7 0 1.3.2 1.8.7z"/><path class="st8" d="M64.8 120v-.5c0-.3.1-.6.4-.8.2-.2.5-.4.8-.4h1.3c.3 0 .6.1.8.4.2.2.3.5.3.8v.5h-3.6zm-3.8 4.3h12.5v1.3h-12.5v-1.3z"/><path class="st0" d="M53.3 104.4c.4.4.6 1 .5 1.5-.3 6.7-.6 11.7-.8 15.1 0 .6-.3 1.1-.7 1.5s-.9.6-1.5.5c-.6 0-1-.3-1.4-.7-.4-.4-.5-1-.5-1.5.2-4.2.5-9.2.7-15 0-.6.3-1.1.7-1.5s.9-.6 1.5-.6 1.1.3 1.5.7z"/><path class="st2" d="M56.9 67c-.5 20.1-1.1 37.4-1.8 51.9l-7.9-.4c.8-14.4 1.4-31.6 1.8-51.6 0-.9.4-1.7 1-2.4s1.4-1 2.3-1h1.4c.9 0 1.7.4 2.3 1.1.7.7 1 1.5.9 2.4z"/><path class="st10" d="M55.2 116.6l-7.9-.4.1-.9 7.9.4-.1.9zm.2-2.6l-7.9-.4v-.9l7.9.4v.9z"/><path class="st8" d="M49.5 119.9h5.4c0 .5.3.9.6 1.3.4.3.8.5 1.3.5v4h-9.4v-3.7c0-.5.2-1 .6-1.4.4-.5.9-.7 1.5-.7z"/><path class="st9" d="M59.9 124.2v1.4h-6.2v-1.4c0-.7.3-1.3.8-1.8s1.1-.8 1.8-.8h1.1c.7 0 1.3.3 1.8.8s.7 1.1.7 1.8zm-12.4-2.5c.7 0 1.3.3 1.8.8s.7 1.1.7 1.8v1.4h-2.5v-4z"/><path class="st8" d="M51.3 120v-.5c0-.3.1-.6.3-.8.2-.2.5-.4.8-.4h1.3c.3 0 .6.1.8.4.2.2.3.5.3.8v.5h-3.5zm-3.8 4.3h12.5v1.3h-12.5v-1.3z"/><path class="st11" d="M52.1 59.7v3.3c0 .9-.3 1.6-.9 2.2-.6.6-1.4.9-2.2.9m-.1-6.4h20.5"/><path class="st12" d="M61.3 75.6h3.4m-3.4 2.1l3.4.1"/><path class="st13" d="M53.1 120.4h1.7m-1.1.9h1.8m11.3-.9h1.7m-1.1.9h1.8"/><path class="st5" d="M71.1 65c-.2.2-.4.4-.8.6s-.8.2-1 .2h-.2c-.3 0-.6-.1-1 0-.4 0-.8.1-1 .1l-.5.1c-.3.1-.5 0-.8-.2s-.4-.4-.5-.8l-.1-.4c-.1-.3-.1-.7 0-1 .1-.4.2-.7.4-.9l1-1.1c.2-.2.5-.4.8-.5s.7-.2 1-.1l1.4.2c.9.2 1.5.7 1.8 1.5.1.9 0 1.6-.5 2.3z"/><path class="st14" d="M63.6 10.7l3.9-2.3c.4.8.4 1.7.1 2.5-.3.9-.8 1.5-1.6 1.9l-2.4-2.1z"/><path class="st15" d="M48.1 64h3.5c-.2.7-.6 1.2-1.2 1.6-.6.4-1.2.6-1.9.6h-3.5c.2-.6.6-1.2 1.2-1.5.6-.5 1.2-.7 1.9-.7z"/><path class="st16" d="M57.4 34.7c-.5-.5-.7-1.1-.7-1.8v-3.6h5.1v3.6c0 .7-.2 1.3-.7 1.8s-1.1.7-1.8.7c-.8 0-1.4-.2-1.9-.7zm-5.1-18.1c.8 0 1.4.3 1.9.8.5.6.8 1.2.8 2s-.3 1.5-.8 2.1-1.2.8-1.9.8c-.8 0-1.4-.3-1.9-.8-.5-.6-.8-1.3-.8-2.1s.3-1.5.8-2 1.1-.8 1.9-.8zm11.7-8.7c1.3 1 1.9 2.4 1.9 4.1v12.4c0 1.8-.6 3.3-1.9 4.6-1.3 1.3-2.8 1.9-4.6 1.9h-.4c-1.8 0-3.3-.6-4.6-1.9s-1.9-2.8-1.9-4.6v-12.4c0-1.7.6-3.1 1.9-4.1 1.2-1 2.7-1.4 4.6-1.4h.5c1.8 0 3.3.5 4.5 1.4zm3.9 9.2c.5.6.8 1.3.8 2.1s-.3 1.5-.8 2.1-1.2.8-1.9.8c-.8 0-1.4-.3-1.9-.8-.5-.6-.8-1.3-.8-2.1s.3-1.5.8-2.1 1.2-.8 1.9-.8 1.3.3 1.9.8z"/><path class="st17" d="M52.8 21.8c0 1 .3 1.9 1 2.6s1.5 1.1 2.4 1.1h5.6c.9 0 1.8-.4 2.4-1.1.7-.7 1-1.6 1-2.6v-5.7c.4.4.6 2 .7 4.7 0 1.3 0 2.6-.1 3.9 0 2.9-.5 4.9-1.5 5.9-.5.5-1.1.9-1.8 1.1s-1.5.3-2.5.3h-2c-1 0-1.9-.1-2.5-.3-.8-.2-1.4-.5-1.9-1-1-1-1.5-2.9-1.5-5.7-.1-1.3-.1-2.6-.1-4 0-2.8.3-4.4.7-4.8l.1 5.6zm10.6-14c.8-.1 1.3-.1 1.6-.1.5 0 .8.2 1 .5.2.4.3 1 .3 1.8v1.5c0 1.2 0 2.4-.1 3.5-.2 3.4-.4 5.4-.8 5.8v-6.2c0-1.1-.3-2-1-2.8-.7-.8-1.5-1.2-2.4-1.2h-5.6c-.9 0-1.8.4-2.4 1.2-.7.8-1 1.7-1 2.8v6.2c-.4-.5-.7-2.4-.8-5.8 0-1.1-.1-2.2-.1-3.5v-1.5c0-1.7.4-2.8 1.3-3.6.8-.6 1.9-.9 3.6-.9l4.4 2.5c.5 0 1.2-.1 2-.2zm-7.7 15.1c.7-.3 1.8-.5 3.4-.5 1.6 0 2.7.1 3.4.5.9.4 1.4 1.2 1.4 2.4 0 1.3-.5 2.5-1.4 3.4s-2.1 1.4-3.4 1.4c-1.3 0-2.5-.5-3.4-1.4s-1.4-2.1-1.4-3.4c0-1.2.5-2 1.4-2.4z"/><path class="st16" d="M60.6 25.4c.5.1.9.2 1.3.2 0 .3-.3.6-.9.9-.6.2-1.3.4-2.1.4s-1.5-.1-2.1-.4c-.6-.2-.9-.5-.9-.9h.4l.9-.1c.9-.2 1.5-.6 1.8-1.1.1.4.7.8 1.6 1z"/><path class="st14" d="M67.2 6.8l-.9 6.7-.3-.6c-.3-.4-.7-.8-1.2-1-1.5-.8-3.4-.6-5.8.6-.3-.2-.8-.5-1.3-.7-1.1-.4-2-.6-2.9-.4-.9.2-1.6.6-2.2 1.3-.2.2-.3.4-.4.7-.2.1-.2.2-.2.3v-4.2c0-.4 0-.8.2-1.4.3-1 .9-1.9 1.7-2.6.8-.6 1.5-1.1 2.1-1.4.3-.2.6-.3.7-.3l.2.4c.2.3.4.4.7.5.3-.8 1-1.3 2.1-1.6.6-.1 1.1-.1 1.6-.1l-.4.8c-.2.6-.3 1.1-.2 1.5.4-.6 1.2-.9 2.4-.8.6 0 1.1.1 1.6.2l-.2.9c-.3.7-.5 1.4-.7 2.1.8-.7 1.6-1.1 2.4-1.1.4 0 .7 0 1 .2z"/><path d="M56.4 17.3c-.1.1-.2.2-.4.2s-.3-.1-.4-.2c-.1-.1-.1-.2-.1-.4s0-.3.1-.4.3-.1.4-.1c.2 0 .3 0 .4.1.1.1.2.3.2.4s-.1.3-.2.4zm6.2 0c-.1.1-.2.2-.4.2s-.3-.1-.4-.2c-.1-.1-.1-.2-.1-.4s0-.3.1-.4.3-.1.4-.1.3 0 .4.1c.1.1.2.3.2.4s0 .3-.2.4z"/><path class="st18" d="M47.6 35.6c1.4-1.4 3.1-2.1 5-2.1h12.4c2 0 3.7.7 5.1 2.1s2.1 3.1 2.1 5l-.8 35.3h-25.4l-.5-35.3c0-2 .7-3.7 2.1-5z"/><path class="st2" d="M53.8 41.1l-1.9-2.6 2.8-5 3.6 32.2-7.2-22.5 2.7-2.1zm10 0l2.6 2.1-8.1 22.5 4.5-32.2 2.9 5-1.9 2.6z"/><path class="st19" d="M54.7 33.5h8.6l-5 32.2-3.6-32.2z"/><path class="st20" d="M56.1 31.9l3 4.5-3 3-2.8-4.9 2.8-2.6zm5.7 0l2.7 2.7-2.6 4.8-2.8-3 2.7-4.5z"/><path class="st21" d="M59.1 36.4l1.4 14.9-2.2 14.4-1.6-14.4 2.4-14.9zm0 0l2.1 2.3-2.4 2.8-2.1-2.7 2.4-2.4z"/><path class="st18" d="M76.2 40.9c1.5 1.3 3.4 2.4 5.9 3.4l.7.1c2-.4 4-.8 5.9-1.3 4.9-1.4 8.7-2.7 11.3-3.9l2.2 5c-2.7 1.2-6.7 2.7-12 4.4-1.3.4-2.5.7-3.6.9-.1 0-1 .3-2.7.7l1.4-.4c-1.3.4-2.4.5-3.1.4-3.9-1.3-7-3-9.5-5.1-3.2-2.8-5.3-4.8-6.1-5.9-.8-1.1-1.2-2-1.3-2.6l3.8-2c1.2.9 2 1.7 2.6 2.3.5.6 2 1.9 4.5 4z"/><path class="st5" d="M42.3 68.5l.1 2.9c0 .9-.1 1.5-.4 1.9l-.1.2c-.4.6-.7 1.2-.9 1.9l-.1.5c-.1.3-.3.5-.5.6-.3.2-.6.2-.9.1l-.4-.1c-.3-.1-.6-.2-.9-.5-.3-.3-.5-.5-.6-.8l-.5-1.4c-.1-.3-.1-.6 0-1 0-.4.2-.7.3-.9l.6-.9c.2-.3.7-1.5 1.3-3.5l3 1z"/><path class="st18" d="M43.9 38.5c1.3-1.6 2.7-2.8 4.2-3.8.8-.5 1.5-.9 2-1.1l1.7 5.2c-.4.1-.8.4-1.3.8-1 .8-2 1.8-2.9 3-1.9 2.6-3.2 6-4.1 10.1-.4 2.1-.7 4.4-.8 6.9-.1 3-.2 6-.2 8.8h-5.5c0-3 0-6 .2-9.1.1-2.4.4-4.6.7-6.7 1.1-5.7 3.1-10.5 6-14.1z"/><path class="st20" d="M101.3 83.2l-.6-.1c-8.8-5.5-12.7-17.7-11.7-36.4l.1-.4c12.5-1.2 23.1-3.4 31.6-6.5l.4.5c-.5 14.4 3.6 24.7 12.2 30.7h.3-.1c-9.2 5.6-20.1 8-32.6 7.2l.3.1c.8.8 1 1.9.7 3.2l-.6 1.7zm6.1-16.4l2.8.7 1.4-3.7-1.4 3.7-2.8-.7zm8-8.8l2.8.7 1.5-3.7-1.5 3.7-2.8-.7zm2.2 6.3l2.8.7 1.4-3.7-1.4 3.7-2.8-.7zm1.5 2.5l2.8.7 1.5-3.7-1.5 3.7-2.8-.7zm-3.2-5.5l2.8.7 1.5-3.7-1.5 3.7-2.8-.7zm-5.4 10.9l2.8.7 1.4-3.7-1.4 3.7-2.8-.7zm-1.2-2.7l2.8.7 1.4-3.7-1.4 3.7-2.8-.7zm11.5.5l2.8.7 1.4-3.7-1.4 3.7-2.8-.7zm-28.6-7.8l10.4-2-10.4 2zm.5 3.8l10.4-2-10.4 2zm12.5-6l2.8.7 1.4-3.7-1.4 3.7-2.8-.7zm1.1 3.3l2.8.7 1.4-3.7-1.4 3.7-2.8-.7zm-9.6 12l10.4-2-10.4 2zm-1.5-3.1l10.4-2-10.4 2zm-1.4-3.2l10.4-2-10.4 2zm-2.3-11.1l27.4-5.9-27.4 5.9zm2.3-4.6l21.1-4.3-21.1 4.3z"/><path class="st22" d="M133.5 71l.1.1-.1-.1c.1 0 .1.1.1.1.5 1.3.2 2.8-.8 4.5-4.3 3-9.1 5.2-14.5 6.5-5.2 1.2-10.9 1.6-17 1.1.2-.5.4-1.1.5-1.7.3-1.3.1-2.4-.7-3.2l-.3-.1c12.6.8 23.5-1.5 32.7-7.2z"/><path class="st23" d="M107.4 66.8l2.8.7 1.4-3.7m-1.1 8.4l2.8.7 1.4-3.7m-5.4.3l2.8.7 1.4-3.7m-8.3-6.5l2.8.7 1.4-3.7m-3.1 6.3l2.8.7 1.4-3.7"/><path class="st24" d="M115.4 58l2.8.7 1.5-3.7m-2.1 9.3l2.8.7 1.4-3.7m-2.7 5.5l2.8.7 1.5-3.7m-7.5-2.5l2.8.7 1.5-3.7m.6 11.7l2.8.7 1.4-3.7"/><path class="st25" d="M121.1 40.3c-.5 14.4 3.6 24.7 12.2 30.7h.1v.1h.1m.1-.1v.2c.5 1.3.2 2.8-.8 4.5-4.3 3-9.1 5.2-14.5 6.5-5.2 1.2-10.9 1.6-17 1.1h-.1m-.5-.2c-8.8-5.5-12.7-17.7-11.7-36.4m0-.4c12.5-1.2 23.1-3.4 31.6-6.5m-28.4 22.4l10.4-2m-9.9 5.8l10.4-2m-6.4 11.3l10.4-2m-11.9-1.1l10.4-2m-4.8 8c12.6.9 23.4-1.5 32.6-7.2m-32.1 12.2c.2-.5.4-1.1.5-1.7.3-1.3.1-2.4-.7-3.2m-7.3-9.3l10.4-2m-12.7-9.1l27.4-5.9m-25.1 1.3l21.1-4.3"/><path class="st5" d="M102.2 44.5l-1.6-2.4-.4-2.2c1.2-.3 2.9.2 5.3 1.6l1.2.4c.3.1.6.2.8.5.3.2.5.5.6.8l.4 1.4c.1.3.1.6 0 1s-.2.7-.4.9l-.2.3c-.2.3-.5.4-.8.5s-.6 0-.8-.1l-.4-.3c-.5-.4-1.2-.8-1.9-.9l-.3-.1c-.5-.3-1-.7-1.5-1.4z"/></svg>