<svg xmlns="http://www.w3.org/2000/svg" xmlns:xlink="http://www.w3.org/1999/xlink" viewBox="0 0 170.9 128.6" enable-background="new 0 0 170.9 128.6"><style type="text/css">.st0{fill:#51A8B7;} .st1{fill:#FFA685;} .st2{fill:#4DACB5;} .st3{fill:#1B587A;} .st4{fill:#444A98;} .st5{fill:#6269C9;} .st6{fill:#4F56B0;} .st7{fill:#0E0F2D;} .st8{fill:#F6E8E7;} .st9{fill:#D8D0BC;} .st10{fill:#ECE6E1;} .st11{fill:none;stroke:#1A171C;stroke-width:1.35;} .st12{fill:none;stroke:#4F56B0;stroke-width:1.35;} .st13{fill:none;stroke:#000003;stroke-width:1.35;stroke-linecap:round;} .st14{fill:#C08942;} .st15{fill:none;stroke:#EDBB7C;stroke-width:3.8512;stroke-linecap:round;stroke-linejoin:round;stroke-miterlimit:3;} .st16{fill:#3C2415;} .st17{fill:none;stroke:#FFFFFF;stroke-width:0.2407;stroke-miterlimit:10;} .st18{fill:none;stroke:#FFA685;stroke-width:4.6696;stroke-linecap:round;stroke-miterlimit:10;} .st19{fill:none;stroke:#1A171C;stroke-width:1.2998;} .st20{fill:none;stroke:#4F56B0;stroke-width:1.2998;} .st21{fill:#EDBB7C;} .st22{fill:none;stroke:#EDBB7C;stroke-width:3;stroke-linecap:round;stroke-linejoin:round;stroke-miterlimit:3;} .st23{fill:none;stroke:#FFFFFF;stroke-width:0.25;stroke-miterlimit:10;}</style><symbol id="flash0.ai_x5F_5_x2F_Layer_3_x2F__x3C_Path_x3E_" viewBox="-6.4 -4.5 12.9 9"><path class="st0" d="M6.4.8l-11.5-5.3-1.3 2.6 11 6.4z" id="Layer_1_5_"/></symbol><symbol id="flash0.ai_x5F_5_x2F_Layer_3_x2F__x3C_Path_x3E__x5F_0" viewBox="-6.6 -3.9 13.3 7.8"><path class="st0" d="M6.6-.4l-1.2-3.5-12 4.1 1.3 3.7z" id="Layer_1_6_"/></symbol><path class="st1" d="M58.1 41c-.3.8-.5 1.6-.7 2.4-.3 1.1-.4 2.3-.4 3.6 0 1.5.2 2.8.5 4.1.4 1.4.9 2.7 1.7 3.9.6 1 1.4 1.9 2.4 2.8.6.5 1.3 1 2.1 1.5l.8.5c.4.2.8.2 1.2 0 .4-.2.7-.5.9-1 .2-.5.2-.9.1-1.3s-.3-.7-.6-.9l-.6-.4c-.7-.5-1.2-.9-1.6-1.2-.7-.7-1.3-1.4-1.8-2.1-.6-.9-1-1.9-1.2-2.9-.3-1-.4-2-.4-3.2 0-1 .1-1.9.3-2.8.1-.6.3-1.3.6-1.9l.3-.7-3.3-1.4-.3 1z"/><path class="st2" d="M64 32c-.1.1-.5.3-1.1.8-1.1.9-2.1 1.9-2.9 2.9-.9 1.1-1.6 2.3-2.1 3.5 0 0-.2.5-.5 1.2l-.2.5 5.1 1.8.1-.3c.2-.5.3-.8.4-.9.3-.8.8-1.6 1.5-2.5.6-.7 1.2-1.4 2-2l1-.7c.4-.2.6-.6.7-1.3.1-.7 0-1.4-.2-2-.3-.7-.7-1.2-1.4-1.5-.6-.3-1.3-.3-1.9.1l-.5.4z"/><use xlink:href="#flash0.ai_x5F_5_x2F_Layer_3_x2F__x3C_Path_x3E_" width="12.9" height="9" x="-6.4" y="-4.5" transform="matrix(-.424 0 0 -.424 60.679 39.366)" overflow="visible"/><path class="st3" d="M68.6 96.4c-.4.4-.5.9-.5 1.4l.2 14.1c0 .6.2 1 .6 1.4.4.4.8.6 1.3.6s1-.2 1.3-.6c.4-.4.6-.9.6-1.4l-.2-14.1c0-.6-.2-1-.6-1.4-.4-.4-.8-.6-1.3-.6-.6 0-1.1.2-1.4.6z"/><path class="st4" d="M65.8 61.5l.6 48.4 7.3-.1-.6-48.4c0-.9-.3-1.6-.9-2.3-.6-.6-1.3-.9-2.1-.9h-1.4c-.8 0-1.5.3-2.1 1-.6.6-.8 1.4-.8 2.3z"/><path class="st5" d="M66.4 107.7l7.3-.1v-.8l-7.4.1zm-.1-2.4l7.4-.1v-.8h-7.4z"/><path class="st2" d="M65.1 31.4l.7 9.4v20.2h19v-20.1l.7-9.4c-3.4-.9-6.8-1.3-10.2-1.3l-3.7.2c-2.4.1-4.5.5-6.5 1z"/><path class="st1" d="M78.6 30.3c-1.2-.1-2.3-.2-3.4-.2l-3.9.2c.3.8.7 1.4 1.4 1.9s1.4.7 2.3.7c.9 0 1.6-.3 2.3-.8.6-.4 1.1-1 1.3-1.8z"/><path class="st4" d="M84.8 53.2h-19v9.2c0 1.6.6 3 1.7 4.1 1.1 1.1 2.5 1.7 4.1 1.7h7.4c1.6 0 3-.6 4.1-1.7 1.1-1.1 1.7-2.5 1.7-4.1v-9.2z"/><path class="st6" d="M80 68.1c1.4-.2 2.5-.9 3.4-1.9.9-1.1 1.4-2.3 1.4-3.7v-9.2h-9.5v9.2c0 1.4.5 2.7 1.4 3.7.8 1 1.9 1.7 3.3 1.9z"/><path class="st1" d="M75.2 21c-.6 0-1.1.2-1.5.6-.4.4-.6.9-.6 1.5v7.2l.9 2.2 3.4-2.2v-7.2c0-.6-.2-1.1-.6-1.5-.4-.4-1-.6-1.6-.6zm-8.6.4c.1 1.1.4 2.2.9 3.2s1.1 1.8 1.9 2.6h3.9c2 0 3.7-.7 5.1-2.1 1.4-1.4 2.1-3.1 2.1-5.1v-8h-13.9v9.4zm14.6-3.9h-3.1l-.1 4h3.3c.6 0 1-.2 1.4-.6.4-.4.6-.9.6-1.4 0-.6-.2-1-.6-1.4-.5-.4-.9-.6-1.5-.6z"/><path class="st7" d="M68.2 6.8l-.9 3.4h-3.3c.1.6.3 1.2.8 1.6.5.4 1.1.7 1.7.7h8.2c.5 0 .9.1 1.3.4.4.3.6.7.6 1.1v2.4c.5 0 .9.1 1.3.4.4.3.6.7.6 1.1v.8c0 .3.1.6.4.8.2.2.5.4.8.4s.6-.1.8-.4c.2-.2.3-.5.3-.8v-1.4h.8v-6.8l-1.1-1.6c-.5-.7-1.2-1.3-2-1.7-.7-.2-1.6-.4-2.5-.4h-7.8zm.5 11.2c.2 0 .3-.1.4-.2.1-.1.2-.3.2-.4s-.1-.3-.2-.4c-.1-.1-.3-.2-.4-.2-.2 0-.3.1-.4.2-.1.1-.2.3-.2.4s.1.3.2.4c.1.1.2.2.4.2zm4.8 0c.2 0 .3-.1.4-.2.1-.1.2-.3.2-.4s-.1-.3-.2-.4c-.1-.1-.3-.2-.4-.2s-.3.1-.4.2c-.1.1-.2.3-.2.4s.1.3.2.4c.1.1.3.2.4.2z"/><path class="st8" d="M68.8 22c0 .6.2 1.2.7 1.6s1 .7 1.7.7c.6 0 1.2-.2 1.6-.7.5-.5.7-1 .7-1.6h-4.7z"/><path class="st9" d="M64.8 112.3v3.7h8.7v-3.5c0-.5-.2-.9-.6-1.3s-.8-.6-1.3-.6h-5c-.1.5-.3.9-.6 1.2-.3.4-.7.5-1.2.5z"/><path class="st10" d="M61.9 114.7v1.3h5.8v-1.3c0-.6-.2-1.2-.7-1.7-.5-.5-1-.7-1.7-.7h-1.1c-.7 0-1.2.2-1.7.7-.4.5-.6 1.1-.6 1.7zm9.9-1.6c-.5.5-.7 1-.7 1.7v1.3h2.4v-3.7c-.6 0-1.2.2-1.7.7z"/><path class="st9" d="M70 110.8v-.4c0-.3-.1-.6-.3-.8-.2-.2-.5-.3-.8-.3h-1.2c-.3 0-.6.1-.8.3-.2.2-.3.5-.3.8v.4h3.4zm-8.1 4h11.6v1.2h-11.6z"/><path class="st3" d="M80.7 96.3c-.4.4-.5.9-.5 1.4.3 6.2.5 10.9.7 14 0 .6.2 1 .6 1.4.4.4.8.5 1.4.5.5 0 1-.2 1.3-.7.3-.4.5-.9.5-1.4-.2-3.9-.5-8.6-.7-14 0-.5-.2-1-.6-1.4-.4-.4-.8-.5-1.4-.5-.5 0-.9.3-1.3.7z"/><path class="st6" d="M77.3 61.5c.4 18.7 1 34.9 1.7 48.3l7.3-.4c-.7-13.4-1.2-29.4-1.6-48.1 0-.9-.3-1.6-.9-2.2-.6-.6-1.3-.9-2.1-.9h-1.3c-.8 0-1.5.4-2.1 1-.7.6-1 1.4-1 2.3z"/><path class="st5" d="M78.9 107.6l7.4-.4-.1-.8-7.3.4zm-.1-2.4l7.3-.4v-.8l-7.3.4z"/><path class="st9" d="M84.3 110.7h-5c0 .5-.2.9-.6 1.2-.4.3-.8.5-1.2.5v3.7h8.7v-3.5c0-.5-.2-.9-.6-1.3-.4-.4-.8-.6-1.3-.6z"/><path class="st10" d="M74.5 114.7v1.3h5.8v-1.3c0-.6-.2-1.2-.7-1.7-.5-.5-1-.7-1.7-.7h-1.1c-.7 0-1.2.2-1.7.7-.3.5-.6 1.1-.6 1.7zm11.6-2.4c-.7 0-1.2.3-1.7.7-.5.5-.7 1-.7 1.7v1.3h2.4v-3.7z"/><path class="st9" d="M82.6 110.8v-.4c0-.3-.1-.6-.3-.8-.2-.2-.5-.3-.8-.3h-1.2c-.3 0-.6.1-.8.3-.2.2-.3.5-.3.8v.4h3.4zm-8.1 4h11.6v1.2h-11.6z"/><path class="st11" d="M81.8 54.7v3.1c0 .8.3 1.5.9 2.1.6.6 1.3.9 2.1.9m0-6.1h-19.1"/><path class="st12" d="M73.2 69.4l-3.1.1m3.1 2h-3.1"/><path class="st13" d="M80.9 111.1h-1.6m1 1h-1.6m-10.5-1h-1.7m1.1 1h-1.7"/><path class="st1" d="M64.2 59.6c.2.2.4.4.8.5.4.2.7.2 1 .2h.2c.3 0 .6-.1 1 0 .4 0 .7 0 1 .1l.5.1c.3.1.5 0 .7-.1s.4-.4.5-.7l.1-.3c.1-.3.1-.6 0-1s-.2-.6-.4-.8l-1-1c-.2-.2-.4-.4-.8-.5-.3-.1-.6-.1-.9-.1h-1.4c-.8.2-1.4.6-1.7 1.4-.2.9-.1 1.6.4 2.2zm26-17.3l.3.9c.1.4.3 1.2.7 2.5.7 2.3 1.2 4.7 1.7 7.4v.1h-3.6c-.4-2.3-.9-4.5-1.5-6.5 0-.2-.3-1-.7-2.3l-.3-.8 3.4-1.3z"/><path class="st2" d="M85.7 31.5c-.7-.2-1.3-.1-2 .3-.6.4-1.1.9-1.4 1.5-.3.6-.2 1.2 0 1.8l.7 1.5c.6 1.2 1 2.3 1.4 3.3.7 1.6 1.2 3.3 1.8 5l5.1-1.6c-.5-1.8-1.2-3.6-1.9-5.4-.7-1.8-1.3-3-1.6-3.6l-.8-1.6c-.1-.7-.6-1-1.3-1.2z"/><use xlink:href="#flash0.ai_x5F_5_x2F_Layer_3_x2F__x3C_Path_x3E__x5F_0" width="13.3" height="7.8" x="-6.6" y="-3.9" transform="matrix(-.424 0 0 -.424 88.355 41.661)" overflow="visible"/><path class="st7" d="M70.1 9l-3.6-2.1c-.3.8-.4 1.5-.1 2.3.3.8.7 1.4 1.5 1.8l2.2-2z"/><path class="st14" d="M95.5 4.1h69.1v57.4h-69.1z"/><path class="st15" d="M95.5 4.1h69.1v57.4h-69.1z"/><path class="st16" d="M114.1 32.2h1.3c1 0 1.7.2 2.2.4.8.5 1.5 1.2 2.1 2.1.2.3.5.8.8 1.3 0 .1 0 .1-.1.1h-.2c-.1 0-.2 0-.3-.1-.4-.5-.8-1-1.3-1.4-.4-.2-.8-.5-1.3-.6-.1-.1-.2-.1-.3 0-.1 0-.1.2-.1.3l-.2 1.4c0 .1 0 .1-.1.1h-.1c-.1 0-.1 0-.1.1v.3c0 .6.1 1 .1 1.3-.1.9-.2 1.7-.2 2.3 0 1 0 2.2.2 3.6v.8c.1 0 .1.1.1.1v2.9l.1.1s.1.1.1.3l.1 8.6c0 .4-.1.6-.3.8-.2.2-.5.3-.8.3h-.9c-.3 0-.6-.1-.8-.3-.2-.2-.3-.5-.3-.7l.4-11.9.1-.1c.1 0 .1 0 .1-.1v-.6c.1-1.1.1-2.1.1-3 0-.7-.1-1.6-.2-2.9v-1.4l.1-.2c0-.1-.1-.2-.1-.1-.1 0-.1-.1-.2-.2l-.2-.7c-.1-.5-.4-.7-.9-.8-.5 0-.8.1-1 .5-.1.1-.1.2-.2.2h-.9c-.1 0-.1 0-.1-.1-.1-.6-.1-1.3-.1-1.9 0-.1.1-.1.2-.1l1.1-.1.3.1c.2.2.4.2.6.2.3 0 .5-.1.6-.2l.6-.7zm-8.9 5.1c0-.2 0-.4-.2-.5-.2-.2-.4-.3-.6-.2-.3 0-.5 0-.6.2s-.2.4-.2.6c-.1.2 0 .4.2.6.2.2.4.2.6.2.3 0 .5 0 .6-.2.2-.3.2-.5.2-.7zm.5-5.1c1 .2 1.7.5 1.8 1 .2.4.3.7.3 1.1 0 .4 0 .7-.2 1.1-.3.5-.5.8-.7 1-.1 0-.3.1-.4.3s-.2.3-.2.4v.2c.5.7.8 1.7 1.1 3 .3 1.4.3 6.9.1 16.5 0 .3-.2.5-.5.5-.1 0-.3 0-.3-.1-.1-.1-.2-.2-.1-.3 0-3.3-.2-6-.3-8.3-.1-2-.2-3.7-.3-5.1-.1-1.4-.3-2.2-.4-2.5-.1-.3-.2-.6-.5-1.1-.1-.1-.2-.2-.4-.2s-.4.1-.5.3c-.2.4-.4.7-.6 1-.1.3-.2 1.1-.3 2.5-.1 1.5-.3 3.2-.4 5.2-.1 2.3-.2 5.1-.2 8.3 0 .1 0 .2-.1.3-.1.1-.2.2-.4.2-.1 0-.2 0-.3-.1l-.2-.4c-.2-9.6-.2-15.1.1-16.5.2-1.3.6-2.3 1.1-3v-.3c0-.1-.1-.2-.3-.4l-.4-.4c-.2-.1-.5-.4-.7-.9-.2-.3-.3-.6-.2-1 0-.4.1-.7.4-1.1.2-.4.8-.8 1.8-1 .4-.1.8-.1 1.2 0 .1 0 .1.1 0 .1l-1.2 1.4c-.3 0-.5.3-.4.9 0 .3.3.6.9.7h.9c.3 0 .6 0 .9-.1.6-.1.9-.4.9-.7 0-.3-.1-.5-.2-.6-.1-.1-.2-.2-.3-.2l-1.2-1.3v-.1c-.1-.4.3-.3.7-.3zm52.7 10.5c0 .2-.1.3-.3.3-.2 0-.2 0-.3-.2 0-.2.1-.3.3-.3.2 0 .3 0 .3.2zm-2.2-32.7c-.1 0-.1-.1-.2-.2l.3-.1v.1c0 .2 0 .2-.1.2zm-.1-1.2c.1 0 .2 0 .2.2s-.1.3-.3.3c-.1 0-.2-.1-.2-.2s0-.1.1-.2.1-.1.2-.1zm1.8 29.5c0-.1 0-.2.1-.1.2 0 .2.1.2.2s0 .1-.1.1-.2-.1-.2-.2zm-9.2-5.9l-.1-1 .7-13.4c.1-1.5.4-2.7 1-3.6.2-.5.7-1.1 1.3-1.6.4-.4 1.7-1.1 3.8-2.1v-.2c0-.2.1-.3.3-.4l.3-.2 1.9 28.7c-.1 0-.1 0-.2.1v1.6l-.2-.1c-3.8-2.2-5.9-3.4-6.3-3.8-.7-.5-1.3-1.2-1.9-2.2-.3-.4-.6-1-.6-1.8zm-1.6-3.6c-.1 1.1-.1 2.2-.1 3.2.1 1.5.6 2.9 1.5 4.1.5.7 1.1 1.3 1.8 1.7.1.1.2.2.2.3l.4.8c0 .2.2.5.4.7.1.1.6.3 1.3.5l.5.2 4.9 3.1c.2.1.3.1.4-.1l.6-.8c.4-.7.4-1.1-.1-1.3l-.4-.3.1-1.6s0-.1-.1-.1h-.5c-.1 0-.2 0-.1-.1 0-.1.1-.2.2-.2l.5.1c.1 0 .1 0 .1-.1v-.2s-.1-.1-.2-.1v-.6l.3-.2.1-.1-.4-.1v-.1l.3-.2-.3-.2.3-.2-.4-.1-.1-.1.4-.1-.3-.1v-.1l.4-.1-.3-.1v-.1l.4-.1-.4-.2.1-.1.3-.2-.3-.1v-.1l.4-.2-.4-.1v-.1l.4-.1-.3-.2-.1-.1.4-.1v-.1l-.4-.1.4-.1v-.1c-.1 0-.3 0-.4-.1v-.1l.4-.1-.4-.2.4-.1-.3-.2v-.1l.3-.2-.4-.2v-.1l.4-.1-.4-.2v-.1l.4-.2-.4-.1v-.1l.4-.1.1-.1-.4-.1-.1-.1.4-.1-.4-.2v-.1l.4-.1.1-.1-.4-.1v-.1l.3-.2-.3-.1v-.1l.4-.1-.4-.2.4-.1-.1-.1-.3-.1v-.1l.3-.2-.3-.1v-.1l.4-.2-.1-.1-.4-.1v-.1l.3-.2-.4-.2.1-.1.3-.2-.3-.1v-.1l.3-.2-.3-.2v-.1l.3-.2-.3-.2-.6.2v-.1l-.3-.1.3-.2.1-.1-.4-.1.3-.2-.3-.1v-.1l.3-.2-.3-.2v-.1l.3-.2-.4-.2.3-.2-.3-.1v-.1l.4-.3-.4-.1.3-.2-.3-.1v-.1l.3-.2.1-.1-.4-.1v-.1l.4-.1-.3-.1v-.1l.3-.2-.3-.2-.1-.1.4-.1-.3-.2v-.1l.4-.1-.3-.2v-.1l.4-.1-.3-.1v-.1l.3-.2-.3-.1v-.1l.4-.1-.4-.2.3-.2-.4-.2v-.1l.4-.1-.3-.2-.1-.1.4-.2-.4-.2v-.1l.4-.1.1-.1-.4-.1.3-.2-.3-.1v-.1l.3-.2-.4-.1v-.1l.4-.1-.4-.2v-.1l.3-.2-.4-.1.1-.1.4-.2-.4-.1-.1-.1.4-.2-.4-.1v-.1l.3-.2-.4-.1v-.1l.3-.2-.3-.1.1-.1.3-.2-1 .3v-.1l.4-.2-.1-.1-.3-.1.4-.1-.1-.1-.3-.2v-.1l.3-.2-.3-.1v-.1l.3-.2-.3-.2v-.1l.3-.2-.3-.1v-.1l.4-.1-.1-.1-.3-.2v-.1l.3-.2-.3-.2.4-.2-.3-.1v-.1l.3-.2.1-.1-.4-.1v-.1l.3-.2-.4-.2.3-.2-.3-.1v-.1l.3-.2.1-.1-.4-.1v-.1l.3-.1-.3-.2v-.1l.3-.2-.4-.2-.1-.2v-.2l-.1-.6.3-.2c.1 0 .2-.1.2-.3v-.7c-.1-.2-.2-.3-.3-.4-.2-.1-.3-.1-.5 0-2.8 1.7-4.4 2.7-5.1 3.2-1.1.8-2 1.9-2.7 3.3-.3.7-.6 1.7-.7 3l-.8 12.1zm-43.1-18.8h.8v8.8c-.1.1-.2.2-.2.3v2.3c.2 0 .4.1.4.1v.8h.3v.2l-.1.3c-.1.3-.2.6-.2 1 0 .2.1.8.3 2 .2 1.2.3 2 .2 2.4 0 .6 0 1-.1 1.4-.2.5-.5.7-.9.6-.4 0-.7-.2-1-.6-.1-.4-.2-.9-.2-1.4 0-.3.1-1.1.3-2.4.2-1.2.2-1.8.2-1.9 0-.4 0-.8-.1-1l-.2-.6h.3v-.8c.1-.1.2-.1.4-.1l.1-1.9-.1-.6-.2-8.9zm3.8 0h.3v11.5c.2 0 .3.1.4.1v.8h.2v.3l-.3.3c-.1.2-.1.6-.1 1 0 .1.1.8.3 2 .2 1.2.2 2 .2 2.4 0 .5-.1 1-.3 1.3-.2.4-.4.6-.8.6s-.8-.2-1-.6c-.1-.4-.2-.9-.1-1.4 0-.4 0-1.1.2-2.4.3-1.2.4-1.8.4-1.9 0-.4-.1-.7-.2-1.1l-.1-.3v-.2h.3v-.9c0-.1.1-.1.4 0l.2-11.5zm3.1.3h1.4l-.3 8.8c-.1 0-.2.1-.3.3v.2l.1 2 .3.1v.7h.2v.3l-.3.2c-.1.3-.1.7-.1 1.1 0 .2.1.8.3 2 .1 1.2.2 1.9.2 2.3 0 .6-.1 1.1-.3 1.4-.2.4-.5.6-.9.6s-.7-.2-1-.7c-.1-.3-.2-.8-.2-1.4 0-.4.1-1.1.3-2.3.2-1.2.3-1.8.3-2 0-.4 0-.8-.1-1l-.1-.3v-.2h.2v-.8s.1-.1.3-.1v-2c0-.2 0-.4-.1-.5l-.2-.1.3-8.6zm5.2 4.8l.2-.2 1.5 5.2.7 2.2c.5 1.6.8 2.9.9 3.7.1.7.3 2.1.4 4v.2s-.1 0-.1.1c-.1 0-.2 0-.2-.2l-.2-1.5c-.1-1-.2-1.8-.4-2.4-.4-1.8-.7-2.9-.8-3.3l-.5.1-.1-.3c.2 0 .3-.1.4-.2.1-.1.1-.2 0-.3-.1-.6-.2-.8-.3-.9l-1.2-.7c-.2-.1-.3-.3-.4-.8-.1-.5-.2-1-.2-1.7-.1-1.5 0-2.5.3-3zm2.1.2c.3.5.4 1.5.2 3-.1.6-.2 1.2-.3 1.7-.1.5-.3.8-.4.8l-1.2.7-.3.9v.3c.1.1.2.1.4.2l-.1.3-.5-.2c-.2.8-.5 1.9-.9 3.3-.2.6-.3 1.4-.4 2.4l-.2 1.5c0 .1-.1.2-.2.1-.1 0-.1-.1-.1-.2.2-1.9.3-3.2.4-4 .2-.8.5-2 1-3.7l.7-2.2 1.6-5.2.3.3zm-1.5 4.8c-.1-.1-.1-.1-.1-.2s0-.2.1-.2c.1-.1.1-.1.2-.1s.2 0 .2.1c.1.1.1.1.1.2s0 .2-.1.2c-.1.1-.1.1-.2.1 0-.1-.1-.1-.2-.1z"/><path class="st17" d="M116.7 20.1c-.1-.1-.1-.1-.1-.2s0-.2.1-.2c.1-.1.1-.1.2-.1s.2 0 .2.1c.1.1.1.1.1.2s0 .2-.1.2c-.1.1-.1.1-.2.1 0-.1-.1-.1-.2-.1z"/><path class="st16" d="M144.5 23.2v-.5h.4c-.1-.2-.1-.4-.2-.5l-.3.2-.3-.3.2-.3c-.2-.2-.5-.2-.7-.2-.3 0-.6.1-.8.2l.2.3-.3.3-.1-.2c-.2.3-.3.5-.3.8 0 .3.1.5.3.8l.1-.2.3.3-.2.2c.2.2.5.3.8.3.3 0 .5-.1.7-.3l-.2-.2.3-.3.3.2c.1-.1.2-.3.2-.5l-.4-.1zm-1.3-12.8l.1-.3c.1-.1.2-.1.3-.1.1 0 .2 0 .3.1.1.1.1.2.1.3v9.1h.4v1.7c.2.1.4.1.5.2l-.2-.2.4-.3.7.7-.3.4-.2-.1c.2.3.4.6.4 1v-.3h.6v1h-.6c0 .3-.2.6-.4.8l.2-.1.3.3-.7.7-.4-.4.2-.1-.5.2v1.7h-.4v9c0 .1 0 .2-.1.3h-.6c-.1-.1-.1-.2-.1-.3v-9h-.5v-1.7l-.4-.3-.1.1.2.1-.3.4-.7-.7.4-.3.1.1c-.3-.4-.4-.8-.4-1.3 0-.4.1-.9.4-1.3l-.1.1-.4-.4.7-.7.3.3-.2.2h.1c.2-.1.3-.2.4-.2v-1.7h.5v-9zm4.6 34.6l-4.2 7.5c-.3.5-.6.8-1.2.9-.5.1-1 .1-1.5-.2-.5-.3-.8-.6-.9-1.1-.1-.5-.1-1 .2-1.5l4.2-7.5c.3-.5.6-.8 1.2-.9.5-.1 1-.1 1.5.2.5.3.8.6.9 1.2.1.4 0 .9-.2 1.4zm5.4-1.9c.2.6.1 1.1-.2 1.6l-2.6 4.7c-.2.3-.2.6-.1.9.1.3.3.5.5.7l1.7 1 .1-.2c0-.1.1-.1.2-.2h.3l6 3.3c.2.1.2.3.1.5l-.7 1.2c-.1.2-.3.2-.4.1l-6-3.3c-.1 0-.1-.1-.2-.2v-.3l.1-.2-1.7-1c-.5-.3-.9-.7-1-1.3-.2-.6-.1-1.1.2-1.6l2.6-4.7c.2-.3.2-.6.1-.9-.1-.3-.3-.5-.5-.7l-2.3-1.3c-.3-.2-.6-.2-.9-.1-.3.1-.5.3-.7.5l-.9-.5c.3-.5.7-.9 1.3-1 .6-.2 1.1-.1 1.6.2l2.3 1.3c.6.5.9.9 1.1 1.5zm-52.6-35.3l.1.2c.1.2.2.3.2.5v11.6h.9v.3l-.2.4c-.2.3-.2.7-.2 1.2 0 .2.1 1 .4 2.5.2 1.5.3 2.4.3 2.9 0 .7-.1 1.3-.2 1.7-.3.6-.7.9-1.1.9-.5 0-.9-.3-1.1-.9-.3-.4-.4-1-.4-1.7 0-.5.1-1.4.4-2.9.3-1.5.4-2.3.4-2.5 0-.5-.1-.9-.2-1.2l-.2-.4v-.3h.8v-11.5c0-.2.1-.4.2-.5l-.1-.3z"/><path class="st1" d="M128.2 20.9h2.8l.1 3.6h-2.9c-.5 0-.9-.2-1.2-.5-.4-.4-.5-.8-.5-1.3s.2-.9.5-1.3c.3-.3.7-.5 1.2-.5z"/><path class="st18" d="M147.1 33.1l3.3-10.1m0 0l-1-8.9"/><path class="st2" d="M144.6 37.7c.1-.1.4-.3 1-.7 1-.8 1.9-1.7 2.6-2.6.8-1 1.4-2 1.9-3.1 0 0 .2-.4.5-1.1l.2-.4-4.5-1.6-.1.3c-.2.4-.3.7-.3.8-.3.7-.8 1.4-1.3 2.2-.5.7-1.1 1.3-1.8 1.8l-.9.6c-.3.2-.5.5-.6 1.1-.1.6 0 1.2.2 1.8.3.6.7 1.1 1.2 1.3.6.3 1.2.2 1.7-.1l.2-.3z"/><use xlink:href="#flash0.ai_x5F_5_x2F_Layer_3_x2F__x3C_Path_x3E_" width="12.9" height="9" x="-6.4" y="-4.5" transform="matrix(.378 0 0 .378 147.586 31.017)" overflow="visible"/><path class="st3" d="M129.2 91.1c-.3.4-.5.8-.5 1.3l.2 12.6c0 .5.2.9.5 1.3.3.3.7.5 1.2.5s.9-.2 1.2-.5c.3-.4.5-.8.5-1.3l-.2-12.6c0-.5-.2-.9-.5-1.2-.3-.4-.7-.5-1.2-.5-.5-.1-.9.1-1.2.4z"/><path class="st4" d="M126.7 60l.5 43.2 6.6-.1-.5-43.2c0-.8-.3-1.5-.8-2-.5-.6-1.2-.8-1.9-.8h-1.2c-.7 0-1.4.3-1.9.9-.6.5-.8 1.2-.8 2z"/><path class="st5" d="M127.2 101.2l6.6-.1v-.7l-6.6.1zm0-2.1l6.5-.1v-.7h-6.5z"/><path class="st2" d="M126.1 33.2l.6 8.4v17.9h17v-17.9l.6-8.4c-3-.8-6-1.2-9.1-1.2l-3.3.2c-2.1.2-4 .5-5.8 1z"/><path class="st1" d="M138.2 32.2c-1.1-.1-2.1-.2-3-.2l-3.5.2c.2.7.6 1.3 1.2 1.7.6.4 1.3.7 2 .7.8 0 1.5-.2 2.1-.7.5-.5.9-1 1.2-1.7z"/><path class="st4" d="M143.6 52.6h-17v8.2c0 1.4.5 2.6 1.5 3.6s2.2 1.5 3.6 1.5h6.7c1.4 0 2.6-.5 3.6-1.5s1.5-2.2 1.5-3.6l.1-8.2z"/><path class="st6" d="M139.4 65.9c1.2-.2 2.2-.8 3-1.7.8-1 1.2-2.1 1.2-3.3v-8.2h-8.5v8.2c0 1.3.4 2.4 1.2 3.3.9.9 1.9 1.5 3.1 1.7z"/><path class="st1" d="M135.1 23.9c-.5 0-1 .2-1.4.6-.4.4-.6.8-.6 1.3v6.4l.8 1.9 3.1-1.9v-6.4c0-.5-.2-1-.6-1.3-.3-.5-.7-.6-1.3-.6zm-2.1 5.5h1.6c1.8 0 3.3-.6 4.5-1.9 1.2-1.3 1.9-2.8 1.9-4.5v-7.1h-12.4v8.3c.1 1 .4 1.9.8 2.8.5.9 1.7 1.7 3.6 2.4zm8.7-8.7h-2.8l-.1 3.6h2.9c.5 0 .9-.2 1.2-.5.4-.4.5-.8.5-1.3s-.2-.9-.5-1.3c-.3-.3-.7-.5-1.2-.5z"/><path class="st7" d="M126.4 14.2h2.9l.8-3.1h6.9c.8 0 1.6.2 2.3.5.7.4 1.3.9 1.8 1.5l1 1.4v6.2c-.5 1.9-1 3.1-1.3 3.5-.3.4-.5.6-.5.7l.1-.3-.2.3c-.1.1-.1.2-.1.2l-.4.5c-.7.7-1.4 1.1-2.2 1.2-.5.1-1.8.1-3.9.1-1.9 0-3.3-.4-4-1.2-.8-.8-1.3-1.8-1.5-3-.3-1.2-.4-2.5-.5-3.8-.1-1.3-.1-2.3 0-3l-.4-.3c-.4-.3-.7-.8-.8-1.4zm14.8 8.5c0 .1 0 .2-.1.3v.2c.1-.4.1-.5.1-.5z"/><path class="st3" d="M140 91c-.3.4-.5.8-.4 1.3.3 5.6.5 9.7.6 12.5 0 .5.2.9.6 1.2.3.3.7.5 1.2.5s.9-.2 1.2-.6c.3-.4.4-.8.4-1.3-.2-3.5-.4-7.7-.6-12.5 0-.5-.2-.9-.5-1.2-.4-.3-.8-.5-1.2-.5-.6.1-1 .3-1.3.6z"/><path class="st6" d="M137 60c.4 16.7.9 31.1 1.5 43.1l6.5-.4c-.6-12-1.1-26.3-1.5-42.9 0-.8-.3-1.4-.8-2-.5-.6-1.2-.8-1.9-.8h-1.2c-.7 0-1.4.3-1.9.9-.5.6-.7 1.3-.7 2.1z"/><path class="st5" d="M138.4 101.2l6.6-.4-.1-.7-6.5.3zm-.1-2.2l6.6-.3-.1-.7-6.5.3z"/><path class="st9" d="M144.8 104.4c.3.3.5.7.5 1.2v3.1h-7.3v-3.1c0-.5.2-.8.5-1.2.3-.3.6-.4.9-.5h-.2 4.3c.5 0 .9.2 1.3.5z"/><path class="st10" d="M141.5 105.4c-.6 0-1.1.2-1.5.6-.4.4-.6.9-.6 1.5v1.2h2.1v-3.3z"/><path class="st9" d="M143.1 104v-.4c0-.3-.1-.5-.3-.7-.2-.2-.4-.3-.7-.3h-1c-.3 0-.5.1-.7.3-.2.2-.3.4-.3.7v.4h3z"/><path class="st10" d="M141.6 105.4c.6 0 1.1.2 1.5.6.4.4.6.9.6 1.5v1.2h-2.1v-3.3z"/><path class="st9" d="M138.4 107.6h7v1.1h-7z"/><path class="st19" d="M143.6 53.9h-17"/><path class="st20" d="M133.3 67.1l-2.7.1m2.7 1.7h-2.7"/><path class="st1" d="M146.8 14.4c-.1-.2-.2-.5-.1-.8 0-.4.1-.7.2-.9l.1-.2c.1-.2.3-.5.4-.8.1-.3.2-.6.3-.8l.1-.4c0-.2.2-.4.4-.5.2-.1.5-.2.7-.1h.3c.3.1.5.2.8.4.3.2.4.4.5.6l.5 1.2c.1.2.1.5.1.8 0 .3-.1.6-.3.8l-.6 1c-.4.6-1 .9-1.8.8-.8-.1-1.3-.5-1.6-1.1zm-26.1 47.7l.1 2.4c0 .7-.1 1.2-.3 1.6l-.1.2c-.4.5-.6 1-.7 1.6l-.1.4c-.1.2-.2.4-.5.5-.2.1-.5.2-.7.1l-.3-.1c-.3-.1-.5-.2-.8-.4-.2-.2-.4-.4-.5-.7l-.4-1.2c-.1-.2-.1-.5 0-.8 0-.3.1-.6.3-.8l.6-.8c.2-.3.6-1.2 1.1-2.9l2.3.9zm3.8-18.2l-.2.8c-.4 1.2-.6 1.9-.6 2.1-.6 2-1.1 4.1-1.5 6.4-.3 1.9-.6 4-.9 6.5-.1 1.2-.2 2.2-.3 3 0 .4-.2.7-.5.9-.3.3-.7.4-1.2.3-.4 0-.8-.2-1.1-.5-.3-.3-.4-.6-.4-1l.3-3c.3-2.4.6-4.6 1-6.7.4-2.4.9-4.6 1.5-6.6.3-1.1.5-1.8.6-2.2l.2-.8 3.1.8z"/><path class="st2" d="M125.5 33.2c.6-.2 1.2-.1 1.8.3.6.3 1 .8 1.2 1.3.2.6.2 1.1 0 1.6l-.6 1.3c-.5 1.1-.9 2-1.3 2.9-.6 1.4-1.1 2.9-1.6 4.4l-4.6-1.4c.5-1.6 1-3.2 1.7-4.8.7-1.6 1.1-2.6 1.4-3.2l.7-1.4c.2-.5.7-.8 1.3-1z"/><use xlink:href="#flash0.ai_x5F_5_x2F_Layer_3_x2F__x3C_Path_x3E__x5F_0" width="13.3" height="7.8" x="-6.6" y="-3.9" transform="matrix(.378 0 0 -.378 123.004 42.474)" overflow="visible"/><path class="st7" d="M130.5 13.2l-3.2-1.9c-.3.7-.3 1.4-.1 2.1.2.7.7 1.2 1.3 1.6l2-1.8z"/><path class="st9" d="M133.3 104.4c.3.3.5.7.5 1.2v3.1h-7.2v-3.1c0-.5.2-.8.5-1.2.3-.3.6-.4.9-.5h-.2 4.3c.5 0 .9.2 1.2.5z"/><path class="st10" d="M130.2 105.4c-.6 0-1.1.2-1.5.6-.4.4-.6.9-.6 1.5v1.2h2.1v-3.3z"/><path class="st9" d="M131.6 104v-.4c0-.3-.1-.5-.3-.7-.2-.2-.4-.3-.7-.3h-1c-.3 0-.5.1-.7.3-.2.2-.3.4-.3.7v.4h3z"/><path class="st10" d="M130.2 105.4c.6 0 1.1.2 1.5.6.4.4.6.9.6 1.5v1.2h-2.1v-3.3z"/><path class="st9" d="M126.8 107.6h7v1.1h-7z"/><path class="st21" d="M10.3 70l-4.7-3.3v-4.9l42.8 30.7 48.6-13.8-.1 4.3-48.5 14.3-34.9-25v25.9c0 .4-.1.8-.4.9-.3.2-.8.3-1.5.3-.6 0-1.1-.1-1.4-.2-.5-.2-.7-.6-.7-1.1v-26.5c0-.6.2-1 .6-1.4 0-.1.1-.2.2-.2z"/><path class="st14" d="M5.6 61.8v-.6l42.3-10.1 49.2 27.5-48.7 13.8z"/><path class="st22" d="M13.5 72.3l34.9 24.9 48.5-14.2.2-4.4-48.7 13.8-42.8-30.6v4.9l4.7 3.3m86.8 8.6l-49.2-27.5-42.3 10.1v.6"/><path class="st16" d="M33.1 60.9l.1-.5 1-1c.8-.7 1.4-1.1 1.9-1.3 1-.2 2-.2 3.1 0 .4.1.9.2 1.6.3.1.1.1.1 0 .2l-.1.1c-.1.1-.2.1-.3.1-.7-.1-1.3-.2-2-.1-.5.1-.9.3-1.4.5-.1 0-.2.1-.3.3 0 .1 0 .2.2.3l.8 1.2c.1 0 .1.1 0 .2-.1 0-.1.1 0 .2l.2.2c.4.4.8.7 1 .9.6.8 1.1 1.4 1.5 1.9.7.7 1.6 1.6 2.8 2.6l.5.5.1.1h.3l1.9 2c.1.1.1.2.2.2h.1c.1 0 .2.1.3.2l6.3 6.4c.2.3.4.6.4.8 0 .3-.1.6-.4.8l-.9.3c-.3.2-.5.3-.8.3-.3 0-.6-.1-.8-.3l-8.3-9.2v-.2c.1-.1.1-.1 0-.2l-.4-.4c-.7-.9-1.4-1.7-2.1-2.3-.5-.5-1.2-1.2-2.2-2-.4-.3-.7-.7-1-1l-.1-.2c-.1-.1-.2-.1-.2 0-.1.1-.2.1-.3 0l-.7-.4c-.4-.2-.9-.2-1.3 0-.4.3-.5.7-.4 1.1 0 .1 0 .2-.1.3l-.7.7c-.1.1-.1.1-.2 0-.5-.4-1-.8-1.5-1.3-.1-.1 0-.2.1-.3l1-.9.3-.2c.3 0 .5-.2.6-.3.1-.2.2-.4.2-.6zm-8.3 3.6c-.1-.2-.3-.3-.6-.3s-.5.1-.6.3c-.2.2-.4.4-.4.6s.1.4.4.6c.1.2.3.3.6.3.2 0 .4-.1.6-.3.2-.2.3-.4.3-.6s-.1-.5-.3-.6zm-.3-4.2c.3.2.5.5.6.9.1.6.2 1 .1 1.3-.1.1-.1.3-.1.5s.1.4.1.5l.1.2c.9.2 1.9.7 3 1.4 1.2.8 5.3 4.8 12.1 12.1.2.2.2.5 0 .8-.1.1-.2.2-.4.2s-.3-.1-.4-.2c-2.4-2.4-4.5-4.3-6.3-5.9-1.5-1.4-2.8-2.6-4-3.6-1.1-.9-1.8-1.4-2.1-1.5-.3-.2-.6-.3-1.1-.4-.2 0-.3 0-.5.2s-.2.3-.1.6l.3 1.2c.1.3.6 1 1.5 2.1 1 1.2 2.1 2.5 3.5 4.1 1.6 1.8 3.6 3.8 6 6.3.1.1.2.2.2.3s-.1.3-.2.4-.2.2-.3.2c-.1 0-.3-.1-.4-.2-7-7.1-11.1-11.2-11.9-12.4-.8-1.1-1.3-2.1-1.4-2.9l-.1-.2-.1-.1c-.1-.1-.3-.1-.5-.1h-.5c-.3.1-.7.1-1.2-.2-.3-.1-.6-.3-.9-.6-.3-.3-.4-.6-.5-1.1-.2-.5 0-1.2.6-2 .2-.3.5-.6.9-.9h.1l.1 1.9c-.2.3-.1.6.3.9.3.2.6.2 1.1-.1l.6-.6c.3-.2.5-.4.6-.7.3-.5.4-.9.1-1.2-.2-.2-.4-.3-.6-.3-.1 0-.3 0-.4.1l-1.9-.1c-.1 0-.1 0-.1-.1.3-.3.6-.6 1-.8.9-.6 1.6-.8 2-.7.5.3.8.5 1.1.7zm52.3 29.5c.1 0 .1-.1 0-.3-.1-.1-.2-.1-.2 0-.1.1-.1.2 0 .3 0 .1.1.1.2 0zm3.1 2.8c-.1.1-.1.3 0 .3.2.1.3.1.4 0 .1-.1.1-.2 0-.3-.1-.1-.2-.1-.4 0zm-23.9-24.1c.1.1.2.1.3 0v-.3h-.1l-.2.3zm-.7-.9c-.1.1-.1.2 0 .3.1.1.3.1.4 0 .1-.1.1-.2 0-.3 0-.1-.1-.1-.2-.1s-.1 0-.2.1zm-.9.4c-.1-.2-.1-.3-.1-.6 0-.2.1-.3.4-.4 3.2-1 5.2-1.5 5.9-1.7 1.4-.3 2.9-.2 4.4.3.8.3 1.7.8 2.8 1.6l9.2 7.4c.9.7 1.8 1.4 2.6 2.2 1.1 1.1 1.8 2.5 2.1 4.1.2.9.2 1.8.1 2.6 0 .1 0 .3.1.3l.4.8c.2.2.3.5.3.8 0 .2-.2.7-.5 1.3l-.2.5-1.1 5.9c0 .2-.2.3-.3.3l-1.1-.1c-.8-.2-1.1-.5-.9-.9v-.4l-1.3-1.1s-.1-.1-.1-.2l.3-.4c.1-.1.1-.2 0-.2-.1-.1-.2-.1-.3 0l-.3.4h-.1l-.1-.2c0-.1 0-.2.1-.3l-.5-.4-.3.1h-.1l.2-.3-.3.2.1-.3-.4.1.2-.3v-.2l-.5.1.1-.3-.1-.1-.3.2v-.1l.2-.3-.1-.1-.3.2v-.1l.2-.4h-.1l-.4.2.2-.3-.1-.1-.4.2.2-.3-.2-.3-.3.2.1-.3-.1-.2-.3.2-.1-.1.3-.4-.5.2h-.1c.1-.1.2-.2.2-.4v-.1l-.4.2v-.1l.1-.4v-.1l-.4.2.1-.3-.3.2.1-.4-.1-.1-.3.2.2-.4-.1-.1-.4.2.2-.4-.1-.1-.3.2h-.1l.2-.4v-.1l-.4.2.2-.4-.1-.1-.3.2h-.1l.2-.4v-.1l-.4.1.1-.3-.1-.1-.3.2.1-.4v-.1l-.5.2v-.1l.1-.3-.1-.1-.4.2.2-.3-.1-.1-.4.2v-.1l.2-.3-.1-.1-.3.2.1-.4h-.1l-.3.1.2-.3v-.2l-.3.1.1-.3v-.1l-.4.2v-.1l.1-.3v-.1l-.4.2-.1-.1.2-.3-.3.1h-.1l.2-.3v-.1l-.4.1.2-.3-.1-.1-.4.2.1-.3-.1-.1-.3.2.1-.4h-.1l-.4.1.2-.3-.1-.1-.4-.1.2-.3v-.1l-.3.2h-.1l.1-.3v-.1l-.4.1h-.1l.2-.3v-.2l-.3.2.2-.3-.1-.1-.4.1.1-.3v-.1l-.4.1v-.1l.1-.3-.1-.1-.3.2v-.1l.1-.3-.1-.1-.3.2.2-.3-.1-.1-.3.2.2-.3-.1-.1-.4.2.1-.4-.4.1v-.1l.1-.4-.1-.1-.3.2.1-.3v-.1l-.4.1v-.1l.2-.4v-.1l-.4.2h-.1l.2-.4-.5.2.1-.3v-.1l-.3.2.2-.4-.1-.1-.3.2v-.6l-.4.2.1-.4h-.1l-.4.2.2-.4v-.1l-.4.2.2-.4-.1-.1-.3.2.2-.4v-.1l-.4.1.2-.3h-.1l-.3.2.1-.4v-.1l-.4.2v-.1l-.1-.4-.3.2v-.1l.1-.3v-.1l-.4.1.1-.3v-.1l-.4.2.1-.3-.1-.1-.3.1.2-.3-.1-.1-.4.1v-.1l.1-.3v-.1l-.4.2v-.1l.1-.3v-.1l-.4.2.1-.3v-.1l-.3.1h-.1l.2-.3-.1-.1-.3.2.2-.4-.3.1.1-.3v-.1l-.4.2h-.1l.2-.3-.1-.1-.3.1.1-.3-.1-.1-.4.2.1-.4-.1-.2-.1-.2-.4-.4-.4.1c-.1.1-.2.1-.4-.1l-.6-.7zm9.3-1c-.6-.2-1.3-.2-2.1-.2-.6 0-2.1.5-4.3 1.4 0 0-.1 0-.1-.1l-.1-.1c-.1-.1-.3-.1-.4-.1l-.4.2 20.8 21.4c0-.1.1-.1.3-.1l1.3 1.2.1-.2c.9-4.4 1.4-6.9 1.5-7.4.1-.9 0-1.9-.4-2.9-.1-.6-.5-1.3-1-1.8l-.7-.8-10.9-8.8c-1.3-.9-2.5-1.5-3.6-1.7zm7.7 13.1l.4-.8h1.1l.5.8-.5.9h-1.1l-.4-.9zm1.6 0c0-.2 0-.3-.1-.3-.1-.1-.2-.2-.4-.2s-.3.1-.4.2c-.1.1-.2.2-.2.3s.1.3.2.4c.1.1.2.2.4.2s.3-.1.4-.2l.1-.4zm-7.9-7.5h-1.4l-.7-1.3.7-1.2h1.4l.8 1.2-.8 1.3zm.2-1.3c0-.2-.1-.4-.3-.6-.2-.2-.4-.3-.6-.3-.2 0-.4.1-.6.3-.2.2-.3.3-.3.6 0 .2.1.4.3.6.2.2.4.3.6.3.2 0 .4-.1.6-.3.2-.2.3-.4.3-.6zm6.5 3.7c-.2.2-.3.3-.3.6s.1.5.3.6c.2.2.4.3.6.3.2 0 .4-.1.5-.3.2-.1.3-.3.3-.6 0-.2-.1-.4-.3-.6-.2-.2-.3-.3-.5-.3-.2.1-.4.1-.6.3zm1.4-.6l.6 1.2-.6 1.3h-1.5l-.7-1.3.8-1.2h1.4zm-27.6 10.7v.4h9.4l1.7.2-1.7.2h-9.4v.4h-.2v-1.2h.2zm-1.1-2h.2v.5h14.6l1.5.2-1.6.2h-14.5v.4h-.2v-1.3zm-2-1.5h.2v.4h11.6l1.6.2-1.6.2h-11.6v.4h-.2v-1.2zm42.1-4.7h.9l.5.8-.5.9h-.9l-.6-.9.6-.8zm.5.3c-.2 0-.3.1-.4.2-.1.1-.2.2-.2.3s.1.3.2.4c.1.1.2.2.4.2s.3-.1.4-.2c.1-.1.1-.2.1-.4s0-.3-.1-.3c-.1-.2-.3-.2-.4-.2zm-3.4-6.2c.1.4 0 .8-.4 1.2-.3.2-.7.4-1.3.6-.4.1-1.2.2-2.4.4-1.3.1-2 .2-2.1.3-.4.1-.7.3-.9.4l-.3.3-.2.1-.1-.4-.8.2s-.1-.1-.2-.3c-1.3.3-2 .5-2 .5-.2 0-.4.1-.5.3v.3l-8.8 2.3-.4-1.4 8.9-2.3c.1.1.2.2.4.2h.3l2-.7c0-.1 0-.2.1-.3l.8-.2-.1-.3.3-.2.3.2c.3 0 .7-.1 1.1-.2.1 0 .8-.3 1.9-.8 1.1-.5 1.9-.8 2.3-.9.6-.2 1.1-.2 1.5-.1.3.2.5.4.6.8zm-48.7-10l-.1-.3 11.5-3.3v-.4l.8-.3v-.2l.3-.2.3.2c.3 0 .6 0 1.1-.2.1 0 .7-.3 1.9-.8s2-.8 2.4-.9c.5-.2 1-.2 1.4-.1.4.1.7.3.8.7.1.4 0 .8-.3 1.1-.4.2-.8.4-1.4.5-.4.1-1.2.3-2.4.5-1.3.1-2 .2-2 .2-.4.1-.7.3-1 .5l-.3.3h-.3v-.3l-.8.3c-.1 0-.1-.1-.2-.3l-11.7 3zm-7.5-.5l-.2-.8 8.8-2.4c.1.1.2.1.4.2h.2l2.1-.7v-.4l.8-.3v-.3h.3l.3.1h1.1c.2 0 .8-.3 1.9-.8 1.2-.5 1.9-.8 2.3-.9.6-.2 1-.2 1.4-.2.5.1.8.3.9.8.1.4 0 .8-.3 1.1-.4.2-.8.4-1.3.6-.4.1-1.2.2-2.5.3-1.2.2-1.9.3-2 .3-.4.1-.7.3-1 .5l-.7.2v-.3l-.8.3c-.1-.1-.2-.2-.3-.5l-2 .5c-.2.1-.4.2-.5.3l-.1.1-8.8 2.3zm16.4 15l.1-.3 4.2 3.9 1.8 1.6c1.3 1.2 2.2 2.1 2.8 2.8.5.6 1.3 1.7 2.5 3.3l.1.2s0 .1-.1.1c-.1.1-.2.1-.3 0-.3-.4-.6-.8-1-1.2-.6-.8-1.2-1.4-1.6-1.9l-2.5-2.5-.5.3-.2-.2c.2-.1.2-.3.3-.4 0-.1 0-.2-.1-.3-.4-.4-.7-.6-.7-.7h-1.4c-.2 0-.4-.1-.8-.5-.4-.3-.7-.8-1.1-1.3-1-1.3-1.5-2.3-1.5-2.9zm2-.9c.5.3 1.1 1.1 1.8 2.6.3.6.5 1.2.6 1.6.1.5.2.8.1 1l-.7 1.2s.1.4.2.9c0 .1.1.2.2.2s.2 0 .4-.1l.1.3-.5.2c.2.8.6 2 1 3.4.2.6.5 1.4.9 2.3l.6 1.4c0 .1 0 .2-.1.3-.1 0-.2 0-.2-.1-.9-1.8-1.5-3-1.7-3.8-.3-.8-.7-2.1-1.1-3.8l-.5-2.2-1.4-5.5.3.1zm.5 4.4c-.1 0-.2-.1-.2-.1s-.1-.2-.1-.3c0-.1.1-.2.1-.2.1-.1.2-.1.3-.1.1 0 .2.1.2.1.1.1.1.2.1.3 0 .1-.1.2-.1.2-.1.1-.2.1-.3.1z"/><path class="st23" d="M44.4 79c-.1 0-.2-.1-.2-.1s-.1-.2-.1-.3c0-.1.1-.2.1-.2.1-.1.2-.1.3-.1.1 0 .2.1.2.1.1.1.1.2.1.3 0 .1-.1.2-.1.2-.1.1-.2.1-.3.1z"/><path class="st16" d="M42.7 62.1l.3.3-.3.3-.3-.2c-.2.2-.3.5-.3.8 0 .3.1.6.3.8l.3-.2.3.4-.3.2c.3.2.6.3.8.3.3 0 .6-.1.8-.3l-.2-.2.4-.3.2.2c.2-.2.3-.5.3-.8 0-.3-.1-.5-.3-.8l-.2.2-.4-.3.2-.3c-.1-.1-.3-.2-.6-.3v.5h-.5v-.5c-.2 0-.4.1-.5.2zm-12.7 1.4c-.1-.1-.1-.2-.1-.3 0-.1 0-.2.1-.3.1-.1.2-.1.4-.1h9.4v-.5h1.8c.1-.2.2-.4.3-.5h-.1l-.2.3-.3-.4.8-.7.4.3-.1.3c.3-.2.6-.4 1-.4h-.3v-.6h1v.6c.3 0 .6.2.9.4l-.2-.3.4-.3.8.7-.4.4-.2-.3.2.5h1.8v.5h9.3c.1 0 .2 0 .3.1l.1.3c0 .1 0 .2-.1.3-.1.1-.2.2-.3.2h-9.3v.5h-1.8l-.3.4.1.1.2-.2.4.3-.8.7-.4-.4.2-.2c-.4.3-.8.4-1.4.4-.5 0-.9-.1-1.3-.4l.1.2-.4.4-.8-.7.3-.3.2.2.1-.1c-.1-.2-.2-.3-.3-.4h-1.8v-.5h-9.4c-.1 0-.2-.1-.3-.2zm27.9 2.1l-8.3-3.4c-.5-.2-.9-.6-1.1-1.1-.2-.5-.2-1 0-1.5s.6-.9 1.1-1.1c.5-.2 1-.2 1.5 0l8.3 3.4c.5.2.9.6 1.1 1.1.2.5.2 1 0 1.5s-.6.9-1.1 1.1c-.5.2-1 .2-1.5 0zm1.3 4.4c.3.1.6.1.9 0 .3-.1.5-.3.6-.6l1-2.5c.1-.3.1-.6 0-.9-.1-.3-.3-.5-.6-.6l.4-1c.6.2 1 .6 1.2 1.2.2.6.2 1.1 0 1.7l-1 2.5c-.2.6-.6 1-1.2 1.2-.6.2-1.1.2-1.7 0l-5.2-2.1c-.3-.1-.6-.1-.9 0-.3.1-.5.3-.6.6l-.8 1.9.2.1c.1 0 .2.1.2.2v.3l-2.7 6.6c-.1.2-.2.3-.5.2l-1.4-.6c-.2-.1-.3-.2-.2-.4l2.7-6.6c0-.1.1-.2.2-.2h.3l.2.1.8-1.9c.2-.6.6-1 1.2-1.2.6-.2 1.2-.2 1.7 0l5.2 2zm-.1-6.2l.1.2c.1.2.2.3.2.6l-.1 12.1h.9v.3l-.2.4c-.2.3-.3.7-.3 1.3 0 .2.1 1 .4 2.6.2 1.5.3 2.5.3 3 0 .7-.1 1.3-.3 1.8-.3.6-.7.9-1.1.9-.5 0-.9-.3-1.1-.9-.3-.4-.4-1-.4-1.8 0-.5.1-1.5.4-3 .3-1.5.4-2.4.4-2.6 0-.5-.1-.9-.3-1.3l-.3-.4v-.3h.9v-12.2c0-.2.1-.4.2-.5l.3-.2z"/><path class="st21" d="M51.4 97.5l-.2-.2v25.9c0 .4-.1.8-.4.9-.3.2-.8.3-1.5.3-.6 0-1.1-.1-1.4-.2-.5-.2-.7-.6-.7-1.1v-26.5h4.2v.9zm46.4-14.8v25.9c0 .4-.1.8-.4.9-.3.2-.8.3-1.5.3-.6 0-1.1-.1-1.4-.2-.5-.2-.7-.6-.7-1.1v-26.5h4.2v.8l-.2-.1z"/><path class="st16" d="M83.5 66.3c.1.4 0 .8-.3 1.1-.3.3-.7.3-1.2.1-.4-.2-.7-.6-1-1.1-.3-.3-.7-1-1.3-2-.6-1.1-.9-1.7-1-1.8-.2-.3-.5-.6-.8-.7l-.3-.2-.1-.2.3-.2-.5-.6c0-.1.1-.2.3-.3l-7.2-9.5.2-.3 7.4 9.3.4-.2.5.6.2-.1.2.2v.4c.1.2.3.5.5.9.1.1.6.6 1.5 1.4.9.9 1.5 1.5 1.7 1.8.2.5.5 1 .5 1.4z"/><path class="st1" d="M82.8 57.8l-2.3 1.2c-.7.4-1.1.8-1.3 1.3l-.1.2c-.2.6-.6 1.1-1 1.6l-.3.4c-.2.2-.3.4-.2.7 0 .3.1.5.3.8l.2.2c.2.2.5.4.9.5.3.1.7.1.9.1l1.4-.3c.3-.1.5-.2.8-.4.3-.2.5-.5.6-.7l.4-1c.1-.3.8-1.3 2.1-2.7l-2.4-1.9zm9.7-5.6c.4.7.3 1.5-.3 2.3-1.8 1.5-3.7 3.1-5.8 4.8l-2.8 2c-.3.3-.7.3-1.2.3-.4-.1-.8-.3-1.2-.8-.2-.4-.3-.8-.2-1.3 0-.4.2-.8.6-1 .7-.6 1.6-1.3 2.7-2 2.1-1.7 4-3.3 5.6-4.7.3-.2.6-.4 1.1-.4.6-.2 1.1.1 1.5.8z"/></svg>