<?xml version="1.0" encoding="utf-8"?>
<!-- Generator: Adobe Illustrator 15.1.0, SVG Export Plug-In . SVG Version: 6.00 Build 0)  -->
<!DOCTYPE svg PUBLIC "-//W3C//DTD SVG 1.1//EN" "http://www.w3.org/Graphics/SVG/1.1/DTD/svg11.dtd">
<svg version="1.1" id="Layer_1" xmlns="http://www.w3.org/2000/svg" xmlns:xlink="http://www.w3.org/1999/xlink" x="0px" y="0px"
	 width="769px" height="259px" viewBox="0 0 769 259" enable-background="new 0 0 769 259" xml:space="preserve">
<path fill-rule="evenodd" clip-rule="evenodd" fill="#CD2B3E" d="M577.208,56.678c0.268,0.055,0.476,0.197,0.625,0.425
	c0.146,0.24,0.188,0.499,0.125,0.775c-0.056,0.268-0.197,0.476-0.425,0.625l-5,3.2c-0.241,0.146-0.5,0.187-0.775,0.125
	c-0.268-0.055-0.477-0.197-0.625-0.425c-0.146-0.24-0.188-0.499-0.125-0.775c0.056-0.268,0.197-0.476,0.425-0.625l5-3.2
	C576.674,56.658,576.932,56.616,577.208,56.678z M586.433,50.354c0.241-0.146,0.499-0.188,0.775-0.125
	c0.268,0.055,0.476,0.196,0.625,0.425c0.146,0.24,0.188,0.499,0.125,0.775c-0.056,0.268-0.197,0.476-0.425,0.625l-5,3.25
	c-0.241,0.146-0.5,0.188-0.775,0.125c-0.268-0.055-0.477-0.196-0.625-0.425c-0.146-0.241-0.188-0.499-0.125-0.775
	c0.056-0.268,0.197-0.476,0.425-0.625L586.433,50.354z M543.508,80.403c-0.232,0.146-0.482,0.188-0.75,0.125
	c-0.269-0.063-0.477-0.213-0.625-0.45c-0.146-0.233-0.188-0.483-0.125-0.75c0.063-0.268,0.214-0.477,0.45-0.625l3.8-2.4
	c0.232-0.146,0.482-0.187,0.75-0.125c0.269,0.064,0.477,0.214,0.625,0.45c0.146,0.232,0.188,0.482,0.125,0.75
	c-0.063,0.268-0.214,0.476-0.45,0.625L543.508,80.403z M556.357,69.803c0.233-0.146,0.483-0.188,0.75-0.125
	c0.27,0.064,0.478,0.214,0.625,0.45c0.146,0.233,0.188,0.483,0.125,0.75c-0.064,0.269-0.214,0.477-0.449,0.625l-5.101,3.2
	c-0.233,0.146-0.483,0.188-0.75,0.125c-0.269-0.064-0.477-0.214-0.625-0.45c-0.146-0.233-0.188-0.483-0.125-0.75
	c0.064-0.269,0.214-0.477,0.45-0.625L556.357,69.803z M566.458,63.303c0.233-0.146,0.483-0.188,0.75-0.125
	c0.269,0.064,0.477,0.214,0.625,0.45c0.146,0.233,0.188,0.483,0.125,0.75c-0.064,0.269-0.215,0.477-0.45,0.625l-5.1,3.2
	c-0.234,0.146-0.484,0.188-0.75,0.125c-0.27-0.064-0.478-0.214-0.625-0.45c-0.146-0.233-0.188-0.483-0.125-0.75
	c0.063-0.269,0.214-0.477,0.449-0.625L566.458,63.303z"/>
<path fill-rule="evenodd" clip-rule="evenodd" fill="#CD2B3E" d="M628.9,49.2h5.199c0.274,0.002,0.508,0.102,0.7,0.3
	c0.198,0.193,0.298,0.426,0.3,0.7c-0.002,0.273-0.102,0.507-0.3,0.7c-0.192,0.198-0.426,0.298-0.7,0.3H628.9
	c-0.274-0.002-0.508-0.103-0.7-0.3c-0.198-0.193-0.298-0.426-0.3-0.7c0.002-0.274,0.102-0.507,0.3-0.7
	C628.393,49.302,628.626,49.202,628.9,49.2z M724.1,49.2h6c0.274,0.002,0.508,0.102,0.7,0.3c0.198,0.193,0.298,0.426,0.3,0.7
	c-0.002,0.273-0.102,0.507-0.3,0.7c-0.192,0.198-0.426,0.298-0.7,0.3h-6c-0.273-0.002-0.507-0.103-0.699-0.3
	c-0.198-0.193-0.298-0.426-0.301-0.7c0.003-0.274,0.103-0.507,0.301-0.7C723.593,49.302,723.826,49.202,724.1,49.2z M748.1,49.2h6
	c0.274,0.002,0.508,0.102,0.7,0.3c0.198,0.193,0.298,0.426,0.3,0.7c-0.002,0.273-0.102,0.507-0.3,0.7
	c-0.192,0.198-0.426,0.298-0.7,0.3h-6c-0.273-0.002-0.507-0.103-0.699-0.3c-0.198-0.193-0.298-0.426-0.301-0.7
	c0.003-0.274,0.103-0.507,0.301-0.7C747.593,49.302,747.826,49.202,748.1,49.2z M742.1,49.2c0.274,0.002,0.508,0.102,0.7,0.3
	c0.198,0.193,0.298,0.426,0.3,0.7c-0.002,0.273-0.102,0.507-0.3,0.7c-0.192,0.198-0.426,0.298-0.7,0.3h-6
	c-0.273-0.002-0.507-0.103-0.699-0.3c-0.198-0.193-0.298-0.426-0.301-0.7c0.003-0.274,0.103-0.507,0.301-0.7
	c0.192-0.198,0.426-0.298,0.699-0.3H742.1z M646.8,49.5c0.198,0.193,0.298,0.426,0.3,0.7c-0.002,0.273-0.102,0.507-0.3,0.7
	c-0.192,0.198-0.426,0.298-0.7,0.3h-6c-0.273-0.002-0.507-0.103-0.699-0.3c-0.198-0.193-0.298-0.426-0.301-0.7
	c0.003-0.274,0.103-0.507,0.301-0.7c0.192-0.198,0.426-0.298,0.699-0.3h6C646.374,49.202,646.607,49.302,646.8,49.5z M652.1,49.2h6
	c0.274,0.002,0.508,0.102,0.7,0.3c0.198,0.193,0.298,0.426,0.3,0.7c-0.002,0.273-0.102,0.507-0.3,0.7
	c-0.192,0.198-0.426,0.298-0.7,0.3h-6c-0.273-0.002-0.507-0.103-0.699-0.3c-0.198-0.193-0.298-0.426-0.301-0.7
	c0.003-0.274,0.103-0.507,0.301-0.7C651.593,49.302,651.826,49.202,652.1,49.2z M592.296,49.2h5.199
	c0.274,0.002,0.508,0.102,0.7,0.3c0.198,0.193,0.298,0.426,0.3,0.7c-0.002,0.273-0.102,0.507-0.3,0.7
	c-0.192,0.198-0.426,0.298-0.7,0.3h-5.199c-0.274-0.002-0.508-0.103-0.7-0.3c-0.198-0.193-0.298-0.426-0.3-0.7
	c0.002-0.274,0.102-0.507,0.3-0.7C591.788,49.302,592.021,49.202,592.296,49.2z M610.195,49.5c0.198,0.193,0.298,0.426,0.3,0.7
	c-0.002,0.273-0.102,0.507-0.3,0.7c-0.192,0.198-0.426,0.298-0.7,0.3h-6c-0.273-0.002-0.507-0.103-0.699-0.3
	c-0.198-0.193-0.298-0.426-0.301-0.7c0.003-0.274,0.103-0.507,0.301-0.7c0.192-0.198,0.426-0.298,0.699-0.3h6
	C609.77,49.202,610.003,49.302,610.195,49.5z M615.495,49.2h6c0.274,0.002,0.508,0.102,0.7,0.3c0.198,0.193,0.298,0.426,0.3,0.7
	c-0.002,0.273-0.102,0.507-0.3,0.7c-0.192,0.198-0.426,0.298-0.7,0.3h-6c-0.273-0.002-0.507-0.103-0.699-0.3
	c-0.198-0.193-0.298-0.426-0.301-0.7c0.003-0.274,0.103-0.507,0.301-0.7C614.988,49.302,615.222,49.202,615.495,49.2z M664.1,49.2h6
	c0.274,0.002,0.508,0.102,0.7,0.3c0.198,0.193,0.298,0.426,0.3,0.7c-0.002,0.273-0.102,0.507-0.3,0.7
	c-0.192,0.198-0.426,0.298-0.7,0.3h-6c-0.273-0.002-0.507-0.103-0.699-0.3c-0.198-0.193-0.298-0.426-0.301-0.7
	c0.003-0.274,0.103-0.507,0.301-0.7C663.593,49.302,663.826,49.202,664.1,49.2z M682.1,49.2c0.274,0.002,0.508,0.102,0.7,0.3
	c0.198,0.193,0.298,0.426,0.3,0.7c-0.002,0.273-0.102,0.507-0.3,0.7c-0.192,0.198-0.426,0.298-0.7,0.3h-6
	c-0.273-0.002-0.507-0.103-0.699-0.3c-0.198-0.193-0.298-0.426-0.301-0.7c0.003-0.274,0.103-0.507,0.301-0.7
	c0.192-0.198,0.426-0.298,0.699-0.3H682.1z M687.1,50.2c0.003-0.274,0.103-0.507,0.301-0.7c0.192-0.198,0.426-0.298,0.699-0.3h6
	c0.274,0.002,0.508,0.102,0.7,0.3c0.198,0.193,0.298,0.426,0.3,0.7c-0.002,0.273-0.102,0.507-0.3,0.7
	c-0.192,0.198-0.426,0.298-0.7,0.3h-6c-0.273-0.002-0.507-0.103-0.699-0.3C687.202,50.707,687.103,50.474,687.1,50.2z M712.1,49.2h6
	c0.274,0.002,0.508,0.102,0.7,0.3c0.198,0.193,0.298,0.426,0.3,0.7c-0.002,0.273-0.102,0.507-0.3,0.7
	c-0.192,0.198-0.426,0.298-0.7,0.3h-6c-0.273-0.002-0.507-0.103-0.699-0.3c-0.198-0.193-0.298-0.426-0.301-0.7
	c0.003-0.274,0.103-0.507,0.301-0.7C711.593,49.302,711.826,49.202,712.1,49.2z M706.1,49.2c0.274,0.002,0.508,0.102,0.7,0.3
	c0.198,0.193,0.298,0.426,0.3,0.7c-0.002,0.273-0.102,0.507-0.3,0.7c-0.192,0.198-0.426,0.298-0.7,0.3h-6
	c-0.273-0.002-0.507-0.103-0.699-0.3c-0.198-0.193-0.298-0.426-0.301-0.7c0.003-0.274,0.103-0.507,0.301-0.7
	c0.192-0.198,0.426-0.298,0.699-0.3H706.1z"/>
<g>
	
		<path fill-rule="evenodd" clip-rule="evenodd" fill="none" stroke="#DE5E21" stroke-width="10" stroke-linecap="round" stroke-linejoin="round" stroke-miterlimit="3" d="
		M403.05,48.5c9.167-0.767,18.617-1.15,28.351-1.15c47.166,0,87.416,8.833,120.75,26.5c25.333,13.4,41.05,28.917,47.149,46.55
		 M368.2,222.2c-10.2-2.134-19.967-4.834-29.3-8.101 M265.75,114.9c4.5-9.5,11.95-18.367,22.35-26.6"/>
	
		<path fill-rule="evenodd" clip-rule="evenodd" fill="none" stroke="#8FBA2D" stroke-width="10" stroke-linecap="round" stroke-linejoin="round" stroke-miterlimit="3" d="
		M513.9,217.35c-24.634,7.334-52.134,11-82.5,11c-22.667,0-43.733-2.05-63.2-6.149"/>
	
		<path fill-rule="evenodd" clip-rule="evenodd" fill="none" stroke="#CA2A3C" stroke-width="10" stroke-linecap="round" stroke-linejoin="round" stroke-miterlimit="3" d="
		M599.3,120.4c1.934,5.6,2.9,11.417,2.9,17.45c0,24.967-16.684,46.284-50.05,63.95c-10.533,5.601-21.75,10.316-33.65,14.15
		c-1.533,0.467-3.066,0.934-4.6,1.399"/>
	
		<path fill-rule="evenodd" clip-rule="evenodd" fill="none" stroke="#04AFC7" stroke-width="10" stroke-linecap="round" stroke-linejoin="round" stroke-miterlimit="3" d="
		M288.1,88.3c6.367-5.066,13.867-9.883,22.5-14.45c26.5-14,57.316-22.45,92.45-25.35"/>
	
		<path fill-rule="evenodd" clip-rule="evenodd" fill="none" stroke="#7146A2" stroke-width="10" stroke-linecap="round" stroke-linejoin="round" stroke-miterlimit="3" d="
		M338.9,214.1c-9.933-3.466-19.367-7.566-28.3-12.3c-33.333-17.666-50-38.983-50-63.95c0-8.033,1.716-15.683,5.15-22.95"/>
</g>
<g>
	<path fill="#C22335" d="M596.545,42.211c-0.623,0.251-1.227,0.437-1.811,0.559c-0.583,0.122-1.19,0.183-1.82,0.183
		c-1.01,0-1.903-0.149-2.68-0.446c-0.777-0.297-1.433-0.739-1.967-1.327c-0.533-0.587-0.938-1.316-1.213-2.186
		c-0.276-0.87-0.414-1.881-0.414-3.035c0-1.182,0.15-2.232,0.451-3.153c0.301-0.92,0.73-1.697,1.289-2.331s1.237-1.117,2.035-1.45
		c0.799-0.333,1.696-0.5,2.691-0.5c0.322,0,0.625,0.007,0.908,0.021c0.282,0.015,0.56,0.042,0.832,0.081
		c0.272,0.04,0.548,0.091,0.827,0.156s0.569,0.147,0.87,0.247v2.621c-0.608-0.286-1.188-0.49-1.74-0.612
		c-0.552-0.122-1.053-0.183-1.504-0.183c-0.666,0-1.235,0.12-1.708,0.36c-0.473,0.24-0.861,0.577-1.165,1.01
		c-0.305,0.434-0.528,0.949-0.672,1.547c-0.144,0.598-0.215,1.255-0.215,1.971c0,0.759,0.073,1.438,0.221,2.036
		c0.146,0.598,0.374,1.105,0.682,1.52c0.308,0.416,0.702,0.732,1.182,0.951c0.479,0.219,1.049,0.328,1.708,0.328
		c0.236,0,0.492-0.023,0.769-0.07c0.275-0.046,0.555-0.107,0.838-0.183c0.282-0.075,0.562-0.165,0.838-0.269
		c0.275-0.104,0.531-0.209,0.768-0.317V42.211z"/>
	<path fill="#C22335" d="M606.288,42.759v-8.98h-0.021l-4.855,8.98h-2.557v-14.04h2.664v8.98h0.021l4.866-8.98h2.546v14.04H606.288z
		"/>
	<path fill="#C22335" d="M620.736,42.211c-0.623,0.251-1.227,0.437-1.811,0.559c-0.583,0.122-1.19,0.183-1.82,0.183
		c-1.01,0-1.903-0.149-2.68-0.446c-0.777-0.297-1.433-0.739-1.967-1.327c-0.533-0.587-0.938-1.316-1.213-2.186
		c-0.276-0.87-0.414-1.881-0.414-3.035c0-1.182,0.15-2.232,0.451-3.153c0.301-0.92,0.73-1.697,1.289-2.331s1.237-1.117,2.035-1.45
		c0.799-0.333,1.696-0.5,2.691-0.5c0.322,0,0.625,0.007,0.908,0.021c0.282,0.015,0.56,0.042,0.832,0.081
		c0.272,0.04,0.548,0.091,0.827,0.156s0.569,0.147,0.87,0.247v2.621c-0.608-0.286-1.188-0.49-1.74-0.612
		c-0.552-0.122-1.053-0.183-1.504-0.183c-0.666,0-1.235,0.12-1.708,0.36c-0.473,0.24-0.861,0.577-1.165,1.01
		c-0.305,0.434-0.528,0.949-0.672,1.547c-0.144,0.598-0.215,1.255-0.215,1.971c0,0.759,0.073,1.438,0.221,2.036
		c0.146,0.598,0.374,1.105,0.682,1.52c0.308,0.416,0.702,0.732,1.182,0.951c0.479,0.219,1.049,0.328,1.708,0.328
		c0.236,0,0.492-0.023,0.769-0.07c0.275-0.046,0.555-0.107,0.838-0.183c0.282-0.075,0.562-0.165,0.838-0.269
		c0.275-0.104,0.531-0.209,0.768-0.317V42.211z"/>
	<path fill="#C22335" d="M629.448,30.921v11.838h-2.707V30.921h-3.846v-2.202h10.398v2.202H629.448z"/>
	<path fill="#C22335" d="M636.119,42.759v-14.04h8.454v2.234h-5.769v3.491h5.5v2.181h-5.5v3.899h5.769v2.234H636.119z"/>
	<path fill="#C22335" d="M655.52,42.759l-0.258-7.938l-0.097-3.169l-0.677,2.148l-1.558,4.78h-1.654l-1.407-4.78l-0.591-2.148
		l-0.075,3.104l-0.236,8.003h-2.245l0.688-14.04h2.986l1.235,3.985l0.591,2.245l0.591-2.116l1.3-4.114h3.04l0.698,14.04H655.52z"/>
	<path fill="#C22335" d="M667.465,42.759l-0.773-2.771h-4.898l-0.795,2.771h-2.621l4.157-14.04h3.695l4.157,14.04H667.465z
		 M664.274,31.297l-1.848,6.531h3.674L664.274,31.297z"/>
	<path fill="#C22335" d="M677.831,30.921v11.838h-2.707V30.921h-3.846v-2.202h10.398v2.202H677.831z"/>
	<path fill="#C22335" d="M690.958,42.759v-8.98h-0.021l-4.855,8.98h-2.557v-14.04h2.664v8.98h0.021l4.866-8.98h2.546v14.04H690.958z
		"/>
	<path fill="#C22335" d="M695.609,40.074c0.859,0.265,1.64,0.457,2.342,0.575s1.439,0.177,2.213,0.177
		c0.423,0,0.795-0.059,1.117-0.177s0.591-0.279,0.806-0.483s0.378-0.44,0.489-0.709c0.11-0.269,0.166-0.553,0.166-0.854
		s-0.058-0.578-0.172-0.833c-0.114-0.254-0.286-0.471-0.516-0.65c-0.229-0.179-0.518-0.318-0.865-0.419
		c-0.347-0.1-0.753-0.15-1.219-0.15h-3.352v-2.02h3.19c0.437,0,0.812-0.055,1.122-0.167c0.313-0.111,0.568-0.263,0.769-0.457
		s0.348-0.417,0.44-0.671c0.093-0.254,0.14-0.521,0.14-0.8c0-0.265-0.045-0.51-0.134-0.736c-0.09-0.226-0.231-0.42-0.425-0.585
		c-0.193-0.165-0.446-0.293-0.757-0.387c-0.313-0.093-0.689-0.14-1.134-0.14c-0.329,0-0.643,0.015-0.94,0.043
		c-0.297,0.029-0.596,0.07-0.896,0.124s-0.614,0.124-0.939,0.209c-0.326,0.086-0.683,0.183-1.069,0.29v-2.202
		c0.608-0.186,1.257-0.328,1.944-0.424s1.39-0.145,2.105-0.145c1.669,0,2.918,0.308,3.749,0.924c0.831,0.616,1.246,1.533,1.246,2.75
		c0,0.795-0.163,1.452-0.489,1.971c-0.325,0.52-0.854,0.904-1.584,1.155c0.351,0.058,0.686,0.176,1.004,0.354
		c0.319,0.179,0.599,0.41,0.838,0.693c0.24,0.283,0.43,0.612,0.57,0.988c0.139,0.376,0.209,0.79,0.209,1.241
		c0,1.439-0.475,2.541-1.424,3.303c-0.948,0.763-2.336,1.144-4.162,1.144c-0.823,0-1.584-0.052-2.283-0.156
		c-0.697-0.104-1.397-0.267-2.1-0.489V40.074z"/>
	<path fill="#C22335" d="M715.848,42.759l-0.773-2.771h-4.898l-0.795,2.771h-2.621l4.157-14.04h3.695l4.157,14.04H715.848z
		 M712.657,31.297l-1.848,6.531h3.674L712.657,31.297z"/>
	<path fill="#C22335" d="M730.801,40.45l-0.172,5.35h-2.471v-3.04h-8.4v-14.04h2.664v11.73h4.49v-11.73h2.653v11.73H730.801z"/>
	<path fill="#C22335" d="M739.341,42.759v-8.98h-0.021l-4.855,8.98h-2.557v-14.04h2.664v8.98h0.021l4.866-8.98h2.546v14.04H739.341z
		"/>
	<path fill="#C22335" d="M744.927,38.978c0.286-0.823,0.621-1.419,1.005-1.789c0.383-0.369,0.746-0.585,1.09-0.65
		c-0.344-0.107-0.666-0.252-0.967-0.435s-0.565-0.41-0.795-0.682c-0.229-0.272-0.41-0.591-0.543-0.956
		c-0.132-0.365-0.198-0.791-0.198-1.278c0-0.795,0.118-1.475,0.354-2.041c0.236-0.565,0.586-1.029,1.047-1.391
		c0.463-0.361,1.033-0.625,1.714-0.79c0.681-0.165,1.468-0.247,2.363-0.247h3.813v14.04h-2.643v-5.371h-1.214
		c-0.565,0-1.027,0.138-1.386,0.414c-0.358,0.276-0.648,0.793-0.87,1.552l-1.021,3.405h-3.008L744.927,38.978z M747.29,33.124
		c0,0.358,0.063,0.688,0.188,0.988c0.125,0.301,0.308,0.534,0.547,0.698c0.24,0.165,0.527,0.29,0.859,0.376
		c0.334,0.086,0.704,0.129,1.112,0.129h1.171v-4.394h-1.257c-0.909,0-1.573,0.176-1.993,0.526
		C747.5,31.799,747.29,32.357,747.29,33.124z"/>
</g>
<path fill-rule="evenodd" clip-rule="evenodd" fill="#8FBA2D" d="M569.26,248.875c-0.271-0.064-0.479-0.215-0.625-0.45
	c-0.146-0.234-0.188-0.484-0.125-0.75c0.064-0.27,0.215-0.479,0.45-0.625c0.234-0.146,0.484-0.188,0.75-0.125l5.8,1.4
	c0.271,0.064,0.479,0.215,0.625,0.45c0.146,0.234,0.188,0.484,0.125,0.75c-0.064,0.27-0.215,0.478-0.45,0.625
	c-0.234,0.146-0.484,0.188-0.75,0.125L569.26,248.875z M557.359,244.25c0.235-0.146,0.485-0.188,0.75-0.125l5.8,1.4
	c0.271,0.064,0.479,0.215,0.625,0.449s0.188,0.484,0.125,0.75c-0.064,0.271-0.214,0.479-0.449,0.625s-0.485,0.188-0.75,0.125
	l-5.801-1.399c-0.27-0.065-0.479-0.215-0.625-0.45c-0.146-0.234-0.188-0.484-0.125-0.75
	C556.975,244.605,557.124,244.396,557.359,244.25z M505.909,231.375c0.271,0.064,0.479,0.215,0.625,0.45
	c0.146,0.233,0.188,0.483,0.125,0.75c-0.063,0.27-0.214,0.478-0.449,0.625c-0.234,0.146-0.484,0.188-0.75,0.125l-5.851-1.4
	c-0.27-0.064-0.478-0.215-0.625-0.45c-0.146-0.233-0.188-0.483-0.125-0.75c0.064-0.27,0.215-0.478,0.45-0.625
	c0.234-0.146,0.484-0.188,0.75-0.125L505.909,231.375z M546.06,243.275c-0.271-0.065-0.479-0.215-0.625-0.45
	c-0.146-0.234-0.188-0.484-0.125-0.75c0.064-0.271,0.215-0.479,0.45-0.625c0.234-0.146,0.484-0.188,0.75-0.125l5.8,1.399
	c0.271,0.065,0.479,0.215,0.625,0.45c0.146,0.234,0.188,0.484,0.125,0.75c-0.064,0.271-0.215,0.479-0.45,0.625
	c-0.234,0.146-0.484,0.188-0.75,0.125L546.06,243.275z M540.71,239.925c0.27,0.065,0.479,0.215,0.625,0.45
	c0.146,0.234,0.188,0.484,0.125,0.75c-0.064,0.27-0.215,0.479-0.45,0.625c-0.234,0.146-0.484,0.188-0.75,0.125l-5.8-1.4
	c-0.271-0.064-0.479-0.215-0.625-0.449s-0.188-0.484-0.125-0.75c0.064-0.271,0.214-0.479,0.449-0.625s0.485-0.188,0.75-0.125
	L540.71,239.925z M517.51,234.275c0.271,0.064,0.479,0.215,0.625,0.449s0.188,0.484,0.125,0.75c-0.064,0.271-0.215,0.479-0.45,0.625
	c-0.234,0.146-0.484,0.188-0.75,0.125l-5.8-1.399c-0.271-0.065-0.479-0.215-0.625-0.45c-0.146-0.234-0.188-0.484-0.125-0.75
	c0.064-0.27,0.215-0.479,0.45-0.625c0.234-0.146,0.484-0.188,0.75-0.125L517.51,234.275z M523.335,235.675l5.8,1.45
	c0.264,0.074,0.464,0.232,0.6,0.475c0.147,0.236,0.188,0.486,0.125,0.75c-0.074,0.264-0.232,0.464-0.475,0.601
	c-0.237,0.146-0.487,0.188-0.75,0.125l-5.8-1.45c-0.264-0.074-0.464-0.232-0.601-0.475c-0.146-0.236-0.188-0.486-0.125-0.75
	c0.074-0.264,0.232-0.464,0.476-0.601C522.821,235.653,523.071,235.612,523.335,235.675z"/>
<path fill-rule="evenodd" clip-rule="evenodd" fill="#8FBA2D" d="M582.557,250c-0.192,0.197-0.426,0.298-0.7,0.3h-5.75
	c-0.273-0.002-0.507-0.103-0.699-0.3c-0.198-0.192-0.298-0.426-0.301-0.7c0.003-0.273,0.103-0.507,0.301-0.7
	c0.192-0.197,0.426-0.297,0.699-0.3h5.75c0.274,0.003,0.508,0.103,0.7,0.3c0.198,0.193,0.298,0.427,0.3,0.7
	C582.854,249.574,582.755,249.808,582.557,250z M587.856,248.3h6c0.274,0.003,0.508,0.103,0.7,0.3c0.198,0.193,0.298,0.427,0.3,0.7
	c-0.002,0.274-0.102,0.508-0.3,0.7c-0.192,0.197-0.426,0.298-0.7,0.3h-6c-0.273-0.002-0.507-0.103-0.699-0.3
	c-0.198-0.192-0.298-0.426-0.301-0.7c0.003-0.273,0.103-0.507,0.301-0.7C587.35,248.402,587.583,248.303,587.856,248.3z
	 M611.856,248.3h6c0.274,0.003,0.508,0.103,0.7,0.3c0.198,0.193,0.298,0.427,0.3,0.7c-0.002,0.274-0.102,0.508-0.3,0.7
	c-0.192,0.197-0.426,0.298-0.7,0.3h-6c-0.273-0.002-0.507-0.103-0.699-0.3c-0.198-0.192-0.298-0.426-0.301-0.7
	c0.003-0.273,0.103-0.507,0.301-0.7C611.35,248.402,611.583,248.303,611.856,248.3z M599.856,248.3h6
	c0.274,0.003,0.508,0.103,0.7,0.3c0.198,0.193,0.298,0.427,0.3,0.7c-0.002,0.274-0.102,0.508-0.3,0.7
	c-0.192,0.197-0.426,0.298-0.7,0.3h-6c-0.273-0.002-0.507-0.103-0.699-0.3c-0.198-0.192-0.298-0.426-0.301-0.7
	c0.003-0.273,0.103-0.507,0.301-0.7C599.35,248.402,599.583,248.303,599.856,248.3z M623.856,248.3h6
	c0.274,0.003,0.508,0.103,0.7,0.3c0.198,0.193,0.298,0.427,0.3,0.7c-0.002,0.274-0.102,0.508-0.3,0.7
	c-0.192,0.197-0.426,0.298-0.7,0.3h-6c-0.273-0.002-0.507-0.103-0.699-0.3c-0.198-0.192-0.298-0.426-0.301-0.7
	c0.003-0.273,0.103-0.507,0.301-0.7C623.35,248.402,623.583,248.303,623.856,248.3z M635.563,248.3h6
	c0.274,0.003,0.508,0.103,0.7,0.3c0.198,0.193,0.298,0.427,0.3,0.7c-0.002,0.274-0.102,0.508-0.3,0.7
	c-0.192,0.197-0.426,0.298-0.7,0.3h-6c-0.273-0.002-0.507-0.103-0.699-0.3c-0.198-0.192-0.298-0.426-0.301-0.7
	c0.003-0.273,0.103-0.507,0.301-0.7C635.056,248.402,635.289,248.303,635.563,248.3z M647.563,248.3h6
	c0.274,0.003,0.508,0.103,0.7,0.3c0.198,0.193,0.298,0.427,0.3,0.7c-0.002,0.274-0.102,0.508-0.3,0.7
	c-0.192,0.197-0.426,0.298-0.7,0.3h-6c-0.273-0.002-0.507-0.103-0.699-0.3c-0.198-0.192-0.298-0.426-0.301-0.7
	c0.003-0.273,0.103-0.507,0.301-0.7C647.056,248.402,647.289,248.303,647.563,248.3z"/>
<g>
	<path fill="#84B021" d="M596.545,243.056c-0.623,0.251-1.227,0.437-1.811,0.559c-0.583,0.122-1.19,0.183-1.82,0.183
		c-1.01,0-1.903-0.148-2.68-0.446c-0.777-0.297-1.433-0.739-1.967-1.326c-0.533-0.587-0.938-1.316-1.213-2.186
		c-0.276-0.871-0.414-1.882-0.414-3.035c0-1.182,0.15-2.232,0.451-3.152c0.301-0.921,0.73-1.697,1.289-2.332
		c0.559-0.633,1.237-1.117,2.035-1.449c0.799-0.334,1.696-0.5,2.691-0.5c0.322,0,0.625,0.007,0.908,0.021
		c0.282,0.015,0.56,0.041,0.832,0.08c0.272,0.04,0.548,0.092,0.827,0.156s0.569,0.146,0.87,0.247v2.621
		c-0.608-0.286-1.188-0.49-1.74-0.612s-1.053-0.183-1.504-0.183c-0.666,0-1.235,0.12-1.708,0.36
		c-0.473,0.239-0.861,0.576-1.165,1.01c-0.305,0.433-0.528,0.948-0.672,1.547c-0.144,0.598-0.215,1.255-0.215,1.971
		c0,0.759,0.073,1.438,0.221,2.035c0.146,0.599,0.374,1.105,0.682,1.521s0.702,0.732,1.182,0.95
		c0.479,0.219,1.049,0.328,1.708,0.328c0.236,0,0.492-0.023,0.769-0.07c0.275-0.046,0.555-0.107,0.838-0.182
		c0.282-0.076,0.562-0.165,0.838-0.27c0.275-0.104,0.531-0.209,0.768-0.316V243.056z"/>
	<path fill="#84B021" d="M606.288,243.604v-8.98h-0.021l-4.855,8.98h-2.557v-14.04h2.664v8.98h0.021l4.866-8.98h2.546v14.04H606.288
		z"/>
	<path fill="#84B021" d="M611.874,239.822c0.286-0.823,0.621-1.42,1.005-1.788c0.383-0.369,0.746-0.586,1.09-0.65
		c-0.344-0.107-0.666-0.252-0.967-0.436c-0.301-0.182-0.565-0.409-0.795-0.682s-0.41-0.591-0.543-0.956
		c-0.132-0.365-0.198-0.791-0.198-1.278c0-0.795,0.118-1.476,0.354-2.041s0.586-1.029,1.047-1.391
		c0.463-0.362,1.033-0.625,1.714-0.79s1.468-0.247,2.363-0.247h3.813v14.04h-2.643v-5.371h-1.214c-0.565,0-1.027,0.138-1.386,0.413
		c-0.358,0.276-0.648,0.794-0.87,1.553l-1.021,3.405h-3.008L611.874,239.822z M614.237,233.968c0,0.358,0.063,0.688,0.188,0.988
		c0.125,0.301,0.308,0.533,0.547,0.698c0.24,0.165,0.527,0.29,0.859,0.376c0.334,0.086,0.704,0.129,1.112,0.129h1.171v-4.394h-1.257
		c-0.909,0-1.573,0.176-1.993,0.526C614.447,232.643,614.237,233.201,614.237,233.968z"/>
	<path fill="#84B021" d="M630.479,243.604v-6.112h-4.77v6.112h-2.643v-14.04h2.643v5.64h4.77v-5.64h2.643v14.04H630.479z"/>
	<path fill="#84B021" d="M642.575,243.604v-8.98h-0.021l-4.855,8.98h-2.557v-14.04h2.664v8.98h0.021l4.866-8.98h2.546v14.04H642.575
		z"/>
	<path fill="#84B021" d="M648.215,243.604v-14.04h8.454v2.234H650.9v3.491h5.5v2.181h-5.5v3.899h5.769v2.234H648.215z"/>
</g>
<path fill-rule="evenodd" clip-rule="evenodd" fill="#D85319" d="M402.825,38.855c0.271,0.022,0.496,0.139,0.675,0.35
	c0.184,0.208,0.267,0.45,0.25,0.725c-0.021,0.271-0.139,0.497-0.35,0.675c-0.209,0.183-0.451,0.267-0.726,0.25l-4.5-0.3
	c-0.271-0.022-0.496-0.139-0.675-0.35c-0.184-0.209-0.267-0.451-0.25-0.725c0.021-0.271,0.139-0.496,0.35-0.675
	c0.209-0.183,0.451-0.267,0.726-0.25L402.825,38.855z M385.6,37.905c0.209-0.183,0.451-0.267,0.726-0.25l6,0.4
	c0.271,0.022,0.496,0.139,0.675,0.35c0.184,0.208,0.267,0.45,0.25,0.725c-0.021,0.271-0.139,0.496-0.35,0.675
	c-0.209,0.184-0.451,0.267-0.726,0.25l-6-0.4c-0.271-0.022-0.496-0.139-0.675-0.35c-0.184-0.208-0.267-0.45-0.25-0.725
	C385.271,38.309,385.389,38.083,385.6,37.905z M314.325,32.105l6,0.5c0.281,0.023,0.515,0.14,0.7,0.35
	c0.176,0.21,0.251,0.452,0.225,0.725c-0.023,0.281-0.14,0.515-0.35,0.7c-0.211,0.176-0.453,0.25-0.725,0.225l-6-0.5
	c-0.282-0.023-0.515-0.14-0.7-0.35c-0.176-0.21-0.251-0.452-0.225-0.725c0.022-0.281,0.139-0.515,0.35-0.7
	C313.811,32.154,314.052,32.079,314.325,32.105z M326.175,35.055c-0.282-0.023-0.515-0.14-0.7-0.35
	c-0.176-0.21-0.251-0.452-0.225-0.725c0.022-0.281,0.139-0.515,0.35-0.7c0.21-0.176,0.452-0.25,0.725-0.225l6,0.5
	c0.281,0.023,0.515,0.14,0.7,0.35c0.176,0.21,0.251,0.452,0.225,0.725c-0.023,0.281-0.14,0.515-0.35,0.7
	c-0.211,0.175-0.453,0.25-0.725,0.225L326.175,35.055z M345.025,34.805c0.176,0.21,0.251,0.452,0.225,0.725
	c-0.023,0.281-0.14,0.515-0.35,0.7c-0.211,0.176-0.453,0.25-0.725,0.225l-6-0.5c-0.282-0.023-0.515-0.14-0.7-0.35
	c-0.176-0.21-0.251-0.452-0.225-0.725c0.022-0.281,0.139-0.515,0.35-0.7c0.21-0.175,0.452-0.25,0.725-0.225l6,0.5
	C344.606,34.478,344.84,34.594,345.025,34.805z M356.9,37.105c-0.209,0.183-0.451,0.267-0.725,0.25l-6-0.4
	c-0.271-0.022-0.496-0.139-0.675-0.35c-0.184-0.208-0.267-0.45-0.25-0.725c0.022-0.271,0.139-0.496,0.35-0.675
	c0.208-0.184,0.45-0.267,0.725-0.25l6,0.4c0.271,0.022,0.496,0.139,0.675,0.35c0.184,0.208,0.267,0.45,0.25,0.725
	C357.228,36.701,357.111,36.926,356.9,37.105z M369,36.605c0.184,0.208,0.267,0.45,0.25,0.725c-0.022,0.271-0.139,0.496-0.35,0.675
	c-0.209,0.183-0.451,0.267-0.725,0.25l-6-0.4c-0.271-0.022-0.496-0.139-0.675-0.35c-0.184-0.208-0.267-0.45-0.25-0.725
	c0.022-0.271,0.139-0.496,0.35-0.675c0.208-0.184,0.45-0.267,0.725-0.25l6,0.4C368.597,36.277,368.821,36.394,369,36.605z
	 M381,37.505c0.184,0.208,0.267,0.45,0.25,0.725c-0.022,0.271-0.139,0.496-0.35,0.675c-0.209,0.184-0.451,0.267-0.725,0.25l-6-0.4
	c-0.271-0.022-0.496-0.139-0.675-0.35c-0.184-0.208-0.267-0.45-0.25-0.725c0.022-0.271,0.139-0.496,0.35-0.675
	c0.208-0.183,0.45-0.267,0.725-0.25l6,0.4C380.597,37.177,380.821,37.293,381,37.505z"/>
<path fill-rule="evenodd" clip-rule="evenodd" fill="#D85319" d="M151.9,32.1h6c0.274,0.002,0.507,0.102,0.7,0.3
	c0.198,0.193,0.297,0.426,0.3,0.7c-0.002,0.274-0.102,0.507-0.3,0.7c-0.193,0.198-0.426,0.298-0.7,0.3h-6
	c-0.274-0.002-0.507-0.103-0.7-0.3c-0.198-0.193-0.298-0.426-0.3-0.7c0.002-0.274,0.103-0.507,0.3-0.7
	C151.393,32.202,151.626,32.103,151.9,32.1z M139.2,32.4c0.193-0.198,0.426-0.297,0.7-0.3h6c0.274,0.002,0.507,0.102,0.7,0.3
	c0.198,0.193,0.297,0.426,0.3,0.7c-0.002,0.274-0.102,0.507-0.3,0.7c-0.193,0.198-0.426,0.298-0.7,0.3h-6
	c-0.274-0.002-0.507-0.103-0.7-0.3c-0.198-0.193-0.298-0.426-0.3-0.7C138.902,32.826,139.002,32.593,139.2,32.4z M193.9,32.1
	c0.274,0.002,0.507,0.102,0.7,0.3c0.198,0.193,0.297,0.426,0.3,0.7c-0.002,0.274-0.102,0.507-0.3,0.7
	c-0.193,0.198-0.426,0.298-0.7,0.3h-6c-0.274-0.002-0.507-0.103-0.7-0.3c-0.198-0.193-0.298-0.426-0.3-0.7
	c0.002-0.274,0.103-0.507,0.3-0.7c0.193-0.198,0.426-0.297,0.7-0.3H193.9z M163.2,32.4c0.193-0.198,0.426-0.297,0.7-0.3h6
	c0.274,0.002,0.507,0.102,0.7,0.3c0.198,0.193,0.297,0.426,0.3,0.7c-0.002,0.274-0.102,0.507-0.3,0.7
	c-0.193,0.198-0.426,0.298-0.7,0.3h-6c-0.274-0.002-0.507-0.103-0.7-0.3c-0.198-0.193-0.298-0.426-0.3-0.7
	C162.902,32.826,163.002,32.593,163.2,32.4z M175.9,32.1h6c0.274,0.002,0.507,0.102,0.7,0.3c0.198,0.193,0.297,0.426,0.3,0.7
	c-0.002,0.274-0.102,0.507-0.3,0.7c-0.193,0.198-0.426,0.298-0.7,0.3h-6c-0.274-0.002-0.507-0.103-0.7-0.3
	c-0.198-0.193-0.298-0.426-0.3-0.7c0.002-0.274,0.103-0.507,0.3-0.7C175.393,32.202,175.626,32.103,175.9,32.1z M223.9,34.1
	c-0.274-0.002-0.507-0.103-0.7-0.3c-0.198-0.193-0.298-0.426-0.3-0.7c0.002-0.274,0.103-0.507,0.3-0.7
	c0.193-0.198,0.426-0.297,0.7-0.3h6c0.274,0.002,0.507,0.102,0.7,0.3c0.198,0.193,0.297,0.426,0.3,0.7
	c-0.002,0.274-0.102,0.507-0.3,0.7c-0.193,0.198-0.426,0.298-0.7,0.3H223.9z M235.9,34.1c-0.274-0.002-0.507-0.103-0.7-0.3
	c-0.198-0.193-0.298-0.426-0.3-0.7c0.002-0.274,0.103-0.507,0.3-0.7c0.193-0.198,0.426-0.297,0.7-0.3h6
	c0.274,0.002,0.507,0.102,0.7,0.3c0.198,0.193,0.297,0.426,0.3,0.7c-0.002,0.274-0.102,0.507-0.3,0.7
	c-0.193,0.198-0.426,0.298-0.7,0.3H235.9z M205.9,32.1c0.274,0.002,0.507,0.102,0.7,0.3c0.198,0.193,0.297,0.426,0.3,0.7
	c-0.002,0.274-0.102,0.507-0.3,0.7c-0.193,0.198-0.426,0.298-0.7,0.3h-6c-0.274-0.002-0.507-0.103-0.7-0.3
	c-0.198-0.193-0.298-0.426-0.3-0.7c0.002-0.274,0.103-0.507,0.3-0.7c0.193-0.198,0.426-0.297,0.7-0.3H205.9z M217.9,32.1
	c0.274,0.002,0.507,0.102,0.7,0.3c0.198,0.193,0.297,0.426,0.3,0.7c-0.002,0.274-0.102,0.507-0.3,0.7
	c-0.193,0.198-0.426,0.298-0.7,0.3h-6c-0.274-0.002-0.507-0.103-0.7-0.3c-0.198-0.193-0.298-0.426-0.3-0.7
	c0.002-0.274,0.103-0.507,0.3-0.7c0.193-0.198,0.426-0.297,0.7-0.3H217.9z M277.9,32.1c0.274,0.002,0.507,0.102,0.7,0.3
	c0.198,0.193,0.297,0.426,0.3,0.7c-0.002,0.274-0.102,0.507-0.3,0.7c-0.193,0.198-0.426,0.298-0.7,0.3h-6
	c-0.274-0.002-0.507-0.103-0.7-0.3c-0.198-0.193-0.298-0.426-0.3-0.7c0.002-0.274,0.103-0.507,0.3-0.7
	c0.193-0.198,0.426-0.297,0.7-0.3H277.9z M259.2,32.4c0.193-0.198,0.426-0.297,0.7-0.3h6c0.274,0.002,0.507,0.102,0.7,0.3
	c0.198,0.193,0.297,0.426,0.3,0.7c-0.002,0.274-0.102,0.507-0.3,0.7c-0.193,0.198-0.426,0.298-0.7,0.3h-6
	c-0.274-0.002-0.507-0.103-0.7-0.3c-0.198-0.193-0.298-0.426-0.3-0.7C258.902,32.826,259.002,32.593,259.2,32.4z M253.9,32.1
	c0.274,0.002,0.507,0.102,0.7,0.3c0.198,0.193,0.297,0.426,0.3,0.7c-0.002,0.274-0.102,0.507-0.3,0.7
	c-0.193,0.198-0.426,0.298-0.7,0.3h-6c-0.274-0.002-0.507-0.103-0.7-0.3c-0.198-0.193-0.298-0.426-0.3-0.7
	c0.002-0.274,0.103-0.507,0.3-0.7c0.193-0.198,0.426-0.297,0.7-0.3H253.9z M313.9,32.1c0.274,0.002,0.507,0.102,0.7,0.3
	c0.198,0.193,0.297,0.426,0.3,0.7c-0.002,0.274-0.102,0.507-0.3,0.7c-0.193,0.198-0.426,0.298-0.7,0.3h-6
	c-0.274-0.002-0.507-0.103-0.7-0.3c-0.198-0.193-0.298-0.426-0.3-0.7c0.002-0.274,0.103-0.507,0.3-0.7
	c0.193-0.198,0.426-0.297,0.7-0.3H313.9z M289.9,32.1c0.274,0.002,0.507,0.102,0.7,0.3c0.198,0.193,0.297,0.426,0.3,0.7
	c-0.002,0.274-0.102,0.507-0.3,0.7c-0.193,0.198-0.426,0.298-0.7,0.3h-6c-0.274-0.002-0.507-0.103-0.7-0.3
	c-0.198-0.193-0.298-0.426-0.3-0.7c0.002-0.274,0.103-0.507,0.3-0.7c0.193-0.198,0.426-0.297,0.7-0.3H289.9z M295.2,32.4
	c0.193-0.198,0.426-0.297,0.7-0.3h6c0.274,0.002,0.507,0.102,0.7,0.3c0.198,0.193,0.297,0.426,0.3,0.7
	c-0.002,0.274-0.102,0.507-0.3,0.7c-0.193,0.198-0.426,0.298-0.7,0.3h-6c-0.274-0.002-0.507-0.103-0.7-0.3
	c-0.198-0.193-0.298-0.426-0.3-0.7C294.902,32.826,295.002,32.593,295.2,32.4z"/>
<g>
	<path fill-rule="evenodd" clip-rule="evenodd" fill="#02A4BA" d="M114.05,135.55c0.274,0.003,0.507,0.103,0.7,0.3
		c0.198,0.193,0.298,0.427,0.3,0.7c-0.002,0.274-0.102,0.508-0.3,0.7c-0.193,0.197-0.426,0.298-0.7,0.3h-6
		c-0.273-0.002-0.507-0.103-0.7-0.3c-0.198-0.192-0.298-0.426-0.3-0.7c0.002-0.273,0.103-0.507,0.3-0.7
		c0.193-0.197,0.426-0.297,0.7-0.3H114.05z M90.05,135.55c0.274,0.003,0.507,0.103,0.7,0.3c0.198,0.193,0.298,0.427,0.3,0.7
		c-0.002,0.274-0.102,0.508-0.3,0.7c-0.193,0.197-0.426,0.298-0.7,0.3h-6c-0.273-0.002-0.507-0.103-0.7-0.3
		c-0.198-0.192-0.298-0.426-0.3-0.7c0.002-0.273,0.103-0.507,0.3-0.7c0.193-0.197,0.426-0.297,0.7-0.3H90.05z M95.35,135.85
		c0.193-0.197,0.426-0.297,0.7-0.3h6c0.274,0.003,0.507,0.103,0.7,0.3c0.198,0.193,0.298,0.427,0.3,0.7
		c-0.002,0.274-0.102,0.508-0.3,0.7c-0.193,0.197-0.426,0.298-0.7,0.3h-6c-0.273-0.002-0.507-0.103-0.7-0.3
		c-0.198-0.192-0.298-0.426-0.3-0.7C95.052,136.276,95.152,136.043,95.35,135.85z M150.05,135.55c0.274,0.003,0.507,0.103,0.7,0.3
		c0.198,0.193,0.298,0.427,0.3,0.7c-0.002,0.274-0.102,0.508-0.3,0.7c-0.193,0.197-0.426,0.298-0.7,0.3h-6
		c-0.273-0.002-0.507-0.103-0.7-0.3c-0.198-0.192-0.298-0.426-0.3-0.7c0.002-0.273,0.103-0.507,0.3-0.7
		c0.193-0.197,0.426-0.297,0.7-0.3H150.05z M126.05,135.55c0.274,0.003,0.507,0.103,0.7,0.3c0.198,0.193,0.298,0.427,0.3,0.7
		c-0.002,0.274-0.102,0.508-0.3,0.7c-0.193,0.197-0.426,0.298-0.7,0.3h-6c-0.273-0.002-0.507-0.103-0.7-0.3
		c-0.198-0.192-0.298-0.426-0.3-0.7c0.002-0.273,0.103-0.507,0.3-0.7c0.193-0.197,0.426-0.297,0.7-0.3H126.05z M138.05,135.55
		c0.274,0.003,0.507,0.103,0.7,0.3c0.198,0.193,0.298,0.427,0.3,0.7c-0.002,0.274-0.102,0.508-0.3,0.7
		c-0.193,0.197-0.426,0.298-0.7,0.3h-6c-0.273-0.002-0.507-0.103-0.7-0.3c-0.198-0.192-0.298-0.426-0.3-0.7
		c0.002-0.273,0.103-0.507,0.3-0.7c0.193-0.197,0.426-0.297,0.7-0.3H138.05z M23.35,135.85c0.193-0.197,0.426-0.297,0.7-0.3h6
		c0.274,0.003,0.507,0.103,0.7,0.3c0.198,0.193,0.298,0.427,0.3,0.7c-0.002,0.274-0.102,0.508-0.3,0.7
		c-0.193,0.197-0.426,0.298-0.7,0.3h-6c-0.273-0.002-0.507-0.103-0.7-0.3c-0.198-0.192-0.298-0.426-0.3-0.7
		C23.052,136.276,23.152,136.043,23.35,135.85z M78.05,135.55c0.274,0.003,0.507,0.103,0.7,0.3c0.198,0.193,0.298,0.427,0.3,0.7
		c-0.002,0.274-0.102,0.508-0.3,0.7c-0.193,0.197-0.426,0.298-0.7,0.3h-6c-0.273-0.002-0.507-0.103-0.7-0.3
		c-0.198-0.192-0.298-0.426-0.3-0.7c0.002-0.273,0.103-0.507,0.3-0.7c0.193-0.197,0.426-0.297,0.7-0.3H78.05z M42.05,135.55
		c0.274,0.003,0.507,0.103,0.7,0.3c0.198,0.193,0.298,0.427,0.3,0.7c-0.002,0.274-0.102,0.508-0.3,0.7
		c-0.193,0.197-0.426,0.298-0.7,0.3h-6c-0.273-0.002-0.507-0.103-0.7-0.3c-0.198-0.192-0.298-0.426-0.3-0.7
		c0.002-0.273,0.103-0.507,0.3-0.7c0.193-0.197,0.426-0.297,0.7-0.3H42.05z M59.35,135.85c0.193-0.197,0.426-0.297,0.7-0.3h6
		c0.274,0.003,0.507,0.103,0.7,0.3c0.198,0.193,0.298,0.427,0.3,0.7c-0.002,0.274-0.102,0.508-0.3,0.7
		c-0.193,0.197-0.426,0.298-0.7,0.3h-6c-0.273-0.002-0.507-0.103-0.7-0.3c-0.198-0.192-0.298-0.426-0.3-0.7
		C59.052,136.276,59.152,136.043,59.35,135.85z M54.05,135.55c0.274,0.003,0.507,0.103,0.7,0.3c0.198,0.193,0.298,0.427,0.3,0.7
		c-0.002,0.274-0.102,0.508-0.3,0.7c-0.193,0.197-0.426,0.298-0.7,0.3h-6c-0.273-0.002-0.507-0.103-0.7-0.3
		c-0.198-0.192-0.298-0.426-0.3-0.7c0.002-0.273,0.103-0.507,0.3-0.7c0.193-0.197,0.426-0.297,0.7-0.3H54.05z M198.05,135.55
		c0.274,0.003,0.507,0.103,0.7,0.3c0.198,0.193,0.298,0.427,0.3,0.7c-0.002,0.274-0.102,0.508-0.3,0.7
		c-0.193,0.197-0.426,0.298-0.7,0.3h-6c-0.273-0.002-0.507-0.103-0.7-0.3c-0.198-0.192-0.298-0.426-0.3-0.7
		c0.002-0.273,0.103-0.507,0.3-0.7c0.193-0.197,0.426-0.297,0.7-0.3H198.05z M162.05,135.55c0.274,0.003,0.507,0.103,0.7,0.3
		c0.198,0.193,0.298,0.427,0.3,0.7c-0.002,0.274-0.102,0.508-0.3,0.7c-0.193,0.197-0.426,0.298-0.7,0.3h-6
		c-0.273-0.002-0.507-0.103-0.7-0.3c-0.198-0.192-0.298-0.426-0.3-0.7c0.002-0.273,0.103-0.507,0.3-0.7
		c0.193-0.197,0.426-0.297,0.7-0.3H162.05z M179.35,135.85c0.193-0.197,0.426-0.297,0.7-0.3h6c0.274,0.003,0.507,0.103,0.7,0.3
		c0.198,0.193,0.298,0.427,0.3,0.7c-0.002,0.274-0.102,0.508-0.3,0.7c-0.193,0.197-0.426,0.298-0.7,0.3h-6
		c-0.273-0.002-0.507-0.103-0.7-0.3c-0.198-0.192-0.298-0.426-0.3-0.7C179.052,136.276,179.152,136.043,179.35,135.85z
		 M174.05,135.55c0.274,0.003,0.507,0.103,0.7,0.3c0.198,0.193,0.298,0.427,0.3,0.7c-0.002,0.274-0.102,0.508-0.3,0.7
		c-0.193,0.197-0.426,0.298-0.7,0.3h-6c-0.273-0.002-0.507-0.103-0.7-0.3c-0.198-0.192-0.298-0.426-0.3-0.7
		c0.002-0.273,0.103-0.507,0.3-0.7c0.193-0.197,0.426-0.297,0.7-0.3H174.05z M244.151,128.747c0.247,0.124,0.414,0.315,0.5,0.575
		c0.089,0.265,0.073,0.523-0.05,0.775c-0.124,0.246-0.315,0.412-0.575,0.5l-5.7,1.899c-0.266,0.089-0.524,0.072-0.775-0.05
		c-0.247-0.123-0.414-0.314-0.5-0.575c-0.089-0.265-0.073-0.523,0.05-0.774c0.124-0.247,0.315-0.414,0.575-0.5l5.7-1.9
		C243.642,128.608,243.9,128.625,244.151,128.747z M209.6,135.5c0.251-0.122,0.51-0.139,0.775-0.05
		c0.26,0.087,0.452,0.253,0.575,0.5c0.122,0.251,0.139,0.51,0.05,0.774c-0.087,0.26-0.254,0.452-0.5,0.575l-0.2,0.101
		c-0.142,0.068-0.292,0.102-0.45,0.1h-5.8c-0.273-0.002-0.507-0.103-0.7-0.3c-0.198-0.193-0.298-0.427-0.3-0.7
		c0.002-0.273,0.103-0.507,0.3-0.7c0.193-0.197,0.426-0.298,0.7-0.3H209.6z M220.922,135.5c0.251-0.122,0.51-0.139,0.775-0.05
		c0.26,0.087,0.452,0.253,0.575,0.5c0.122,0.251,0.139,0.51,0.05,0.774c-0.087,0.26-0.254,0.452-0.5,0.575l-0.2,0.101
		c-0.142,0.068-0.292,0.102-0.45,0.1h-5.8c-0.273-0.002-0.507-0.103-0.7-0.3c-0.198-0.193-0.298-0.427-0.3-0.7
		c0.002-0.273,0.103-0.507,0.3-0.7c0.193-0.197,0.426-0.298,0.7-0.3H220.922z M225.702,134.997c0.123-0.246,0.315-0.413,0.575-0.5
		l5.7-1.899c0.265-0.09,0.524-0.073,0.775,0.05c0.247,0.123,0.413,0.314,0.5,0.575c0.089,0.265,0.072,0.523-0.05,0.774
		c-0.124,0.246-0.315,0.413-0.575,0.5l-5.7,1.9c-0.266,0.089-0.524,0.072-0.775-0.05c-0.246-0.124-0.413-0.315-0.5-0.575
		C225.563,135.507,225.579,135.249,225.702,134.997z"/>
</g>
<g>
	<path fill="#02A4BA" d="M29.044,111.085c-0.623,0.251-1.227,0.437-1.81,0.559c-0.584,0.122-1.191,0.183-1.821,0.183
		c-1.01,0-1.903-0.149-2.68-0.446c-0.777-0.297-1.433-0.739-1.966-1.327c-0.534-0.587-0.938-1.316-1.214-2.186
		c-0.276-0.87-0.414-1.881-0.414-3.035c0-1.182,0.15-2.232,0.451-3.153c0.301-0.92,0.73-1.697,1.289-2.331s1.237-1.117,2.036-1.45
		c0.798-0.333,1.695-0.5,2.691-0.5c0.322,0,0.625,0.007,0.908,0.021c0.283,0.015,0.56,0.042,0.833,0.081
		c0.272,0.04,0.548,0.091,0.827,0.156s0.569,0.147,0.87,0.247v2.621c-0.609-0.286-1.189-0.49-1.74-0.612
		c-0.552-0.122-1.053-0.183-1.504-0.183c-0.666,0-1.235,0.12-1.708,0.36c-0.473,0.24-0.861,0.577-1.166,1.01
		c-0.305,0.434-0.528,0.949-0.671,1.547c-0.144,0.598-0.215,1.255-0.215,1.971c0,0.759,0.073,1.438,0.22,2.036
		c0.146,0.598,0.374,1.105,0.682,1.52c0.308,0.416,0.702,0.732,1.182,0.951c0.479,0.219,1.049,0.328,1.708,0.328
		c0.236,0,0.492-0.023,0.768-0.07c0.275-0.046,0.555-0.107,0.838-0.183c0.283-0.075,0.562-0.165,0.838-0.269
		c0.275-0.104,0.532-0.209,0.768-0.317V111.085z"/>
	<path fill="#02A4BA" d="M42.053,104.554c0,1.275-0.149,2.374-0.446,3.298c-0.297,0.924-0.706,1.683-1.225,2.277
		c-0.52,0.595-1.128,1.035-1.826,1.321s-1.445,0.43-2.24,0.43c-1.848,0-3.237-0.614-4.168-1.842
		c-0.931-1.228-1.396-3.013-1.396-5.355c0-1.274,0.148-2.374,0.446-3.298c0.297-0.924,0.705-1.683,1.225-2.277
		c0.519-0.594,1.128-1.035,1.826-1.321c0.698-0.286,1.445-0.43,2.24-0.43c1.848,0,3.237,0.612,4.168,1.837
		C41.587,100.418,42.053,102.206,42.053,104.554z M39.26,104.683c0-1.661-0.222-2.9-0.666-3.717
		c-0.444-0.816-1.175-1.225-2.191-1.225c-0.509,0-0.942,0.106-1.3,0.317c-0.358,0.211-0.654,0.521-0.886,0.929
		c-0.233,0.408-0.403,0.912-0.51,1.509c-0.107,0.598-0.161,1.284-0.161,2.057c0,1.662,0.224,2.9,0.671,3.717
		c0.447,0.816,1.176,1.225,2.186,1.225c0.508,0,0.943-0.105,1.305-0.317c0.361-0.211,0.657-0.521,0.886-0.929
		c0.229-0.408,0.397-0.911,0.505-1.509C39.207,106.143,39.26,105.457,39.26,104.683z"/>
	<path fill="#02A4BA" d="M43.836,111.633v-14.04h4.533c1.597,0,2.794,0.279,3.593,0.838c0.798,0.559,1.198,1.404,1.198,2.535
		c0,0.351-0.042,0.693-0.124,1.026c-0.083,0.333-0.209,0.639-0.381,0.918s-0.387,0.526-0.645,0.741s-0.563,0.383-0.913,0.505
		c0.351,0.058,0.686,0.17,1.004,0.338c0.318,0.168,0.598,0.387,0.838,0.655c0.24,0.269,0.43,0.585,0.569,0.951
		s0.209,0.773,0.209,1.225c0,1.433-0.48,2.508-1.439,3.228c-0.96,0.72-2.346,1.08-4.157,1.08H43.836z M50.411,101.428
		c0-0.265-0.043-0.505-0.129-0.72s-0.224-0.397-0.414-0.548c-0.19-0.15-0.434-0.267-0.73-0.349c-0.297-0.082-0.657-0.124-1.08-0.124
		h-1.601v3.717h1.601c0.43,0,0.793-0.052,1.09-0.156c0.297-0.104,0.541-0.247,0.73-0.43c0.189-0.183,0.326-0.392,0.408-0.628
		C50.369,101.955,50.411,101.701,50.411,101.428z M48.305,109.474c0.422,0,0.793-0.054,1.112-0.161
		c0.318-0.107,0.585-0.256,0.8-0.446c0.215-0.189,0.377-0.414,0.489-0.671c0.111-0.258,0.167-0.533,0.167-0.827
		c0-0.608-0.228-1.085-0.682-1.429c-0.455-0.344-1.151-0.516-2.089-0.516h-1.644v4.05H48.305z"/>
	<path fill="#02A4BA" d="M56.523,111.633v-14.04h8.454v2.234h-5.769v3.491h5.5v2.181h-5.5v3.899h5.769v2.234H56.523z"/>
	<path fill="#02A4BA" d="M77.835,102.062c0,0.73-0.122,1.406-0.365,2.025c-0.244,0.62-0.605,1.155-1.085,1.606
		c-0.48,0.451-1.078,0.802-1.794,1.053c-0.716,0.251-1.547,0.376-2.492,0.376h-1.343v4.512h-2.664v-14.04h4.114
		c0.909,0,1.713,0.099,2.412,0.295c0.698,0.197,1.285,0.485,1.762,0.865c0.476,0.38,0.838,0.847,1.085,1.402
		C77.712,100.71,77.835,101.346,77.835,102.062z M75.064,102.245c0-0.372-0.059-0.71-0.177-1.015
		c-0.118-0.304-0.297-0.564-0.537-0.779c-0.24-0.215-0.542-0.379-0.908-0.494c-0.365-0.114-0.799-0.172-1.3-0.172h-1.386v5.146
		h1.472c0.458,0,0.863-0.063,1.214-0.188c0.351-0.125,0.646-0.306,0.886-0.542c0.24-0.236,0.422-0.519,0.548-0.849
		C75.001,103.022,75.064,102.653,75.064,102.245z"/>
	<path fill="#02A4BA" d="M79.264,97.593h2.406v11.881h1.934V97.593h2.363v11.881h1.934V97.593h2.406v14.04H79.264V97.593z"/>
	<path fill="#02A4BA" d="M92.81,111.633v-14.04h8.454v2.234h-5.769v3.491h5.5v2.181h-5.5v3.899h5.769v2.234H92.81z"/>
	<path fill="#02A4BA" d="M111.362,111.633v-6.112h-4.77v6.112h-2.643v-14.04h2.643v5.64h4.77v-5.64h2.643v14.04H111.362z"/>
	<path fill="#02A4BA" d="M125.81,111.085c-0.623,0.251-1.227,0.437-1.81,0.559c-0.584,0.122-1.191,0.183-1.821,0.183
		c-1.01,0-1.903-0.149-2.68-0.446c-0.777-0.297-1.433-0.739-1.966-1.327c-0.534-0.587-0.938-1.316-1.214-2.186
		c-0.276-0.87-0.414-1.881-0.414-3.035c0-1.182,0.15-2.232,0.451-3.153c0.301-0.92,0.73-1.697,1.289-2.331s1.237-1.117,2.036-1.45
		c0.798-0.333,1.695-0.5,2.691-0.5c0.322,0,0.625,0.007,0.908,0.021c0.283,0.015,0.56,0.042,0.833,0.081
		c0.272,0.04,0.548,0.091,0.827,0.156s0.569,0.147,0.87,0.247v2.621c-0.609-0.286-1.189-0.49-1.74-0.612
		c-0.552-0.122-1.053-0.183-1.504-0.183c-0.666,0-1.235,0.12-1.708,0.36c-0.473,0.24-0.861,0.577-1.166,1.01
		c-0.305,0.434-0.528,0.949-0.671,1.547c-0.144,0.598-0.215,1.255-0.215,1.971c0,0.759,0.073,1.438,0.22,2.036
		c0.146,0.598,0.374,1.105,0.682,1.52c0.308,0.416,0.702,0.732,1.182,0.951c0.479,0.219,1.049,0.328,1.708,0.328
		c0.236,0,0.492-0.023,0.768-0.07c0.275-0.046,0.555-0.107,0.838-0.183c0.283-0.075,0.562-0.165,0.838-0.269
		c0.275-0.104,0.532-0.209,0.768-0.317V111.085z"/>
	<path fill="#02A4BA" d="M134.522,99.795v11.838h-2.707V99.795h-3.846v-2.202h10.398v2.202H134.522z"/>
	<path fill="#02A4BA" d="M140.602,111.633v-14.04h4.533c1.597,0,2.794,0.279,3.593,0.838c0.798,0.559,1.198,1.404,1.198,2.535
		c0,0.351-0.042,0.693-0.124,1.026c-0.083,0.333-0.209,0.639-0.381,0.918s-0.387,0.526-0.645,0.741s-0.563,0.383-0.913,0.505
		c0.351,0.058,0.686,0.17,1.004,0.338c0.318,0.168,0.598,0.387,0.838,0.655c0.24,0.269,0.43,0.585,0.569,0.951
		s0.209,0.773,0.209,1.225c0,1.433-0.48,2.508-1.439,3.228c-0.96,0.72-2.346,1.08-4.157,1.08H140.602z M147.176,101.428
		c0-0.265-0.043-0.505-0.129-0.72s-0.224-0.397-0.414-0.548c-0.19-0.15-0.434-0.267-0.73-0.349c-0.297-0.082-0.657-0.124-1.08-0.124
		h-1.601v3.717h1.601c0.43,0,0.793-0.052,1.09-0.156c0.297-0.104,0.541-0.247,0.73-0.43c0.189-0.183,0.326-0.392,0.408-0.628
		C147.135,101.955,147.176,101.701,147.176,101.428z M145.071,109.474c0.422,0,0.793-0.054,1.112-0.161
		c0.318-0.107,0.585-0.256,0.8-0.446c0.215-0.189,0.377-0.414,0.489-0.671c0.111-0.258,0.167-0.533,0.167-0.827
		c0-0.608-0.228-1.085-0.682-1.429c-0.455-0.344-1.151-0.516-2.089-0.516h-1.644v4.05H145.071z"/>
	<path fill="#02A4BA" d="M163.01,104.554c0,1.275-0.149,2.374-0.446,3.298c-0.297,0.924-0.706,1.683-1.225,2.277
		c-0.52,0.595-1.128,1.035-1.826,1.321s-1.445,0.43-2.24,0.43c-1.848,0-3.237-0.614-4.168-1.842
		c-0.931-1.228-1.396-3.013-1.396-5.355c0-1.274,0.148-2.374,0.446-3.298c0.297-0.924,0.705-1.683,1.225-2.277
		c0.519-0.594,1.128-1.035,1.826-1.321c0.698-0.286,1.445-0.43,2.24-0.43c1.848,0,3.237,0.612,4.168,1.837
		C162.544,100.418,163.01,102.206,163.01,104.554z M160.217,104.683c0-1.661-0.222-2.9-0.666-3.717
		c-0.444-0.816-1.175-1.225-2.191-1.225c-0.509,0-0.942,0.106-1.3,0.317c-0.358,0.211-0.654,0.521-0.886,0.929
		c-0.233,0.408-0.403,0.912-0.51,1.509c-0.107,0.598-0.161,1.284-0.161,2.057c0,1.662,0.224,2.9,0.671,3.717
		c0.447,0.816,1.176,1.225,2.186,1.225c0.508,0,0.943-0.105,1.305-0.317c0.361-0.211,0.657-0.521,0.886-0.929
		c0.229-0.408,0.397-0.911,0.505-1.509C160.164,106.143,160.217,105.457,160.217,104.683z"/>
	<path fill="#02A4BA" d="M164.793,111.633v-14.04h4.533c1.597,0,2.794,0.279,3.593,0.838c0.798,0.559,1.198,1.404,1.198,2.535
		c0,0.351-0.042,0.693-0.124,1.026c-0.083,0.333-0.209,0.639-0.381,0.918s-0.387,0.526-0.645,0.741s-0.563,0.383-0.913,0.505
		c0.351,0.058,0.686,0.17,1.004,0.338c0.318,0.168,0.598,0.387,0.838,0.655c0.24,0.269,0.43,0.585,0.569,0.951
		s0.209,0.773,0.209,1.225c0,1.433-0.48,2.508-1.439,3.228c-0.96,0.72-2.346,1.08-4.157,1.08H164.793z M171.368,101.428
		c0-0.265-0.043-0.505-0.129-0.72s-0.224-0.397-0.414-0.548c-0.19-0.15-0.434-0.267-0.73-0.349c-0.297-0.082-0.657-0.124-1.08-0.124
		h-1.601v3.717h1.601c0.43,0,0.793-0.052,1.09-0.156c0.297-0.104,0.541-0.247,0.73-0.43c0.189-0.183,0.326-0.392,0.408-0.628
		C171.326,101.955,171.368,101.701,171.368,101.428z M169.262,109.474c0.422,0,0.793-0.054,1.112-0.161
		c0.318-0.107,0.585-0.256,0.8-0.446c0.215-0.189,0.377-0.414,0.489-0.671c0.111-0.258,0.167-0.533,0.167-0.827
		c0-0.608-0.228-1.085-0.682-1.429c-0.455-0.344-1.151-0.516-2.089-0.516h-1.644v4.05H169.262z"/>
	<path fill="#02A4BA" d="M184.634,111.633l-0.773-2.771h-4.898l-0.795,2.771h-2.621l4.157-14.04h3.695l4.157,14.04H184.634z
		 M181.444,100.171l-1.848,6.531h3.674L181.444,100.171z"/>
	<path fill="#02A4BA" d="M196.032,111.633v-6.112h-4.77v6.112h-2.643v-14.04h2.643v5.64h4.77v-5.64h2.643v14.04H196.032z"/>
	<path fill="#02A4BA" d="M208.127,111.633v-8.98h-0.021l-4.855,8.98h-2.557v-14.04h2.664v8.98h0.021l4.866-8.98h2.546v14.04H208.127
		z"/>
	<path fill="#02A4BA" d="M213.767,111.633v-14.04h8.454v2.234h-5.769v3.491h5.5v2.181h-5.5v3.899h5.769v2.234H213.767z"/>
	<path fill="#02A4BA" d="M147.606,131.009V119.3h-4.684v11.709h-2.664v-14.04h10.012v14.04H147.606z"/>
	<path fill="#02A4BA" d="M163.01,123.93c0,1.274-0.149,2.374-0.446,3.298c-0.297,0.924-0.706,1.683-1.225,2.277
		c-0.52,0.595-1.128,1.035-1.826,1.321s-1.445,0.43-2.24,0.43c-1.848,0-3.237-0.614-4.168-1.842
		c-0.931-1.229-1.396-3.014-1.396-5.355c0-1.274,0.148-2.374,0.446-3.298c0.297-0.924,0.705-1.683,1.225-2.277
		c0.519-0.595,1.128-1.035,1.826-1.321s1.445-0.43,2.24-0.43c1.848,0,3.237,0.612,4.168,1.837
		C162.544,119.794,163.01,121.581,163.01,123.93z M160.217,124.059c0-1.661-0.222-2.9-0.666-3.717
		c-0.444-0.816-1.175-1.225-2.191-1.225c-0.509,0-0.942,0.105-1.3,0.316c-0.358,0.212-0.654,0.521-0.886,0.93
		c-0.233,0.408-0.403,0.911-0.51,1.51c-0.107,0.598-0.161,1.283-0.161,2.057c0,1.661,0.224,2.9,0.671,3.717
		c0.447,0.816,1.176,1.225,2.186,1.225c0.508,0,0.943-0.105,1.305-0.316c0.361-0.212,0.657-0.521,0.886-0.93
		c0.229-0.408,0.397-0.911,0.505-1.51C160.164,125.518,160.217,124.832,160.217,124.059z"/>
	<path fill="#02A4BA" d="M174.601,121.438c0,0.73-0.122,1.405-0.365,2.025c-0.244,0.619-0.605,1.154-1.085,1.605
		c-0.48,0.451-1.078,0.802-1.794,1.053c-0.716,0.251-1.547,0.376-2.492,0.376h-1.343v4.512h-2.664v-14.04h4.114
		c0.909,0,1.713,0.099,2.412,0.295c0.698,0.197,1.285,0.485,1.762,0.865c0.476,0.38,0.838,0.847,1.085,1.402
		C174.478,120.086,174.601,120.722,174.601,121.438z M171.83,121.62c0-0.372-0.059-0.711-0.177-1.015
		c-0.118-0.305-0.297-0.564-0.537-0.779c-0.24-0.215-0.542-0.38-0.908-0.494s-0.799-0.172-1.3-0.172h-1.386v5.146h1.472
		c0.458,0,0.863-0.063,1.214-0.188c0.351-0.125,0.646-0.306,0.886-0.542c0.24-0.236,0.422-0.52,0.548-0.849
		C171.767,122.397,171.83,122.028,171.83,121.62z"/>
	<path fill="#02A4BA" d="M177.426,127.228c0.286-0.823,0.621-1.42,1.004-1.788c0.383-0.369,0.747-0.586,1.09-0.65
		c-0.344-0.107-0.666-0.252-0.967-0.436c-0.301-0.182-0.566-0.409-0.795-0.682c-0.229-0.272-0.41-0.591-0.542-0.956
		c-0.133-0.365-0.199-0.791-0.199-1.278c0-0.795,0.118-1.476,0.354-2.041s0.585-1.029,1.047-1.391
		c0.462-0.362,1.033-0.625,1.713-0.79c0.68-0.165,1.468-0.247,2.363-0.247h3.813v14.04h-2.643v-5.371h-1.214
		c-0.566,0-1.028,0.138-1.386,0.413c-0.358,0.276-0.648,0.794-0.87,1.553l-1.021,3.405h-3.008L177.426,127.228z M179.79,121.373
		c0,0.358,0.063,0.688,0.188,0.988c0.125,0.301,0.308,0.533,0.548,0.698c0.24,0.165,0.526,0.29,0.859,0.376s0.704,0.129,1.112,0.129
		h1.171v-4.394h-1.257c-0.91,0-1.574,0.176-1.993,0.526S179.79,120.606,179.79,121.373z"/>
	<path fill="#02A4BA" d="M196.945,131.009h-6.703v3.04h-2.471l-0.172-5.328h0.129c0.308,0,0.592-0.039,0.854-0.118
		c0.261-0.079,0.496-0.254,0.704-0.526c0.208-0.272,0.394-0.666,0.559-1.182c0.165-0.516,0.312-1.209,0.44-2.078
		c0.129-0.871,0.238-1.945,0.328-3.223c0.089-1.279,0.163-2.82,0.22-4.625h7.681v11.752h1.074l-0.172,5.328h-2.471V131.009z
		 M193.271,119.257c-0.058,1.167-0.118,2.185-0.183,3.051s-0.134,1.624-0.209,2.272c-0.075,0.647-0.158,1.199-0.247,1.654
		c-0.09,0.454-0.192,0.841-0.306,1.16c-0.115,0.318-0.24,0.581-0.376,0.789c-0.136,0.208-0.29,0.387-0.462,0.537h4.361v-9.464
		H193.271z"/>
	<path fill="#02A4BA" d="M207.988,131.009l-4.222-6.789v6.789h-2.686v-14.04h2.686v6.392l4.2-6.392h3.19l-4.77,6.692l5.017,7.348
		H207.988z"/>
	<path fill="#02A4BA" d="M220.921,131.009l-0.773-2.771h-4.898l-0.795,2.771h-2.621l4.157-14.04h3.695l4.157,14.04H220.921z
		 M217.731,119.547l-1.848,6.531h3.674L217.731,119.547z"/>
</g>
<g>
	<path fill="#643999" d="M100.959,241.289c-0.623,0.251-1.227,0.437-1.81,0.559c-0.584,0.122-1.191,0.183-1.821,0.183
		c-1.01,0-1.903-0.148-2.68-0.446c-0.777-0.297-1.433-0.739-1.966-1.326c-0.534-0.587-0.938-1.316-1.214-2.186
		c-0.276-0.871-0.414-1.882-0.414-3.035c0-1.182,0.15-2.232,0.451-3.152c0.301-0.921,0.73-1.697,1.289-2.332
		c0.559-0.633,1.237-1.117,2.036-1.449c0.798-0.334,1.695-0.5,2.691-0.5c0.322,0,0.625,0.007,0.908,0.021
		c0.283,0.015,0.56,0.041,0.833,0.08c0.272,0.04,0.548,0.092,0.827,0.156s0.569,0.146,0.87,0.247v2.621
		c-0.609-0.286-1.189-0.49-1.74-0.612c-0.552-0.122-1.053-0.183-1.504-0.183c-0.666,0-1.235,0.12-1.708,0.36
		c-0.473,0.239-0.861,0.576-1.166,1.01c-0.305,0.433-0.528,0.948-0.671,1.547c-0.144,0.598-0.215,1.255-0.215,1.971
		c0,0.759,0.073,1.438,0.22,2.035c0.146,0.599,0.374,1.105,0.682,1.521c0.308,0.415,0.702,0.732,1.182,0.95
		c0.479,0.219,1.049,0.328,1.708,0.328c0.236,0,0.492-0.023,0.768-0.07c0.275-0.046,0.555-0.107,0.838-0.182
		c0.283-0.076,0.562-0.165,0.838-0.27c0.275-0.104,0.532-0.209,0.768-0.316V241.289z"/>
	<path fill="#643999" d="M109.671,229.999v11.838h-2.707v-11.838h-3.846v-2.202h10.398v2.202H109.671z"/>
	<path fill="#643999" d="M123.496,241.837l-0.773-2.771h-4.898l-0.795,2.771h-2.621l4.157-14.04h3.695l4.157,14.04H123.496z
		 M120.306,230.375l-1.848,6.531h3.674L120.306,230.375z"/>
	<path fill="#643999" d="M134.894,241.837v-6.112h-4.77v6.112h-2.643v-14.04h2.643v5.64h4.77v-5.64h2.643v14.04H134.894z"/>
	<path fill="#643999" d="M147.902,241.837h-6.703v3.04h-2.471l-0.172-5.328h0.129c0.308,0,0.592-0.039,0.854-0.118
		c0.261-0.079,0.496-0.254,0.704-0.526c0.208-0.272,0.394-0.666,0.559-1.182c0.165-0.516,0.312-1.209,0.44-2.078
		c0.129-0.871,0.238-1.945,0.328-3.223c0.089-1.279,0.163-2.82,0.22-4.625h7.681v11.752h1.074l-0.172,5.328h-2.471V241.837z
		 M144.229,230.085c-0.058,1.167-0.118,2.185-0.183,3.051s-0.134,1.624-0.209,2.272c-0.075,0.647-0.158,1.199-0.247,1.654
		c-0.09,0.454-0.192,0.841-0.306,1.16c-0.115,0.318-0.24,0.581-0.376,0.789c-0.136,0.208-0.29,0.387-0.462,0.537h4.361v-9.464
		H144.229z"/>
	<path fill="#643999" d="M159.783,241.837l-0.773-2.771h-4.898l-0.795,2.771h-2.621l4.157-14.04h3.695l4.157,14.04H159.783z
		 M156.593,230.375l-1.848,6.531h3.674L156.593,230.375z"/>
	<path fill="#643999" d="M173.941,232.266c0,0.73-0.122,1.405-0.365,2.025c-0.244,0.619-0.605,1.154-1.085,1.605
		c-0.48,0.451-1.078,0.802-1.794,1.053c-0.716,0.251-1.547,0.376-2.492,0.376h-1.343v4.512h-2.664v-14.04h4.114
		c0.909,0,1.713,0.099,2.412,0.295c0.698,0.197,1.285,0.485,1.762,0.865c0.476,0.38,0.838,0.847,1.085,1.402
		C173.818,230.914,173.941,231.55,173.941,232.266z M171.17,232.448c0-0.372-0.059-0.711-0.177-1.015
		c-0.118-0.305-0.297-0.564-0.537-0.779c-0.24-0.215-0.542-0.38-0.908-0.494s-0.799-0.172-1.3-0.172h-1.386v5.146h1.472
		c0.458,0,0.863-0.063,1.214-0.188c0.351-0.125,0.646-0.306,0.886-0.542c0.24-0.236,0.422-0.52,0.548-0.849
		C171.107,233.226,171.17,232.856,171.17,232.448z"/>
	<path fill="#643999" d="M182.245,229.999v11.838h-2.707v-11.838h-3.846v-2.202h10.398v2.202H182.245z"/>
	<path fill="#643999" d="M195.372,241.837v-8.98h-0.021l-4.855,8.98h-2.557v-14.04h2.664v8.98h0.021l4.866-8.98h2.546v14.04H195.372
		z"/>
	<path fill="#643999" d="M200.023,239.151c0.859,0.265,1.64,0.456,2.342,0.575c0.702,0.117,1.439,0.177,2.213,0.177
		c0.422,0,0.795-0.06,1.117-0.177c0.322-0.119,0.591-0.279,0.806-0.484c0.215-0.203,0.377-0.439,0.489-0.709
		c0.111-0.268,0.167-0.553,0.167-0.854s-0.058-0.578-0.172-0.832c-0.115-0.255-0.287-0.472-0.516-0.65
		c-0.229-0.179-0.518-0.318-0.865-0.419c-0.348-0.101-0.754-0.15-1.219-0.15h-3.352v-2.02h3.19c0.437,0,0.811-0.056,1.123-0.167
		c0.312-0.11,0.567-0.263,0.768-0.456c0.2-0.193,0.347-0.417,0.44-0.671c0.093-0.255,0.14-0.521,0.14-0.801
		c0-0.265-0.045-0.51-0.134-0.736c-0.09-0.225-0.231-0.42-0.424-0.585s-0.446-0.294-0.757-0.387s-0.689-0.14-1.133-0.14
		c-0.33,0-0.643,0.015-0.94,0.043c-0.297,0.028-0.596,0.07-0.897,0.123c-0.301,0.055-0.614,0.124-0.94,0.21
		c-0.326,0.086-0.682,0.183-1.069,0.29v-2.202c0.608-0.187,1.257-0.327,1.944-0.425c0.688-0.096,1.389-0.145,2.105-0.145
		c1.668,0,2.918,0.308,3.749,0.924c0.831,0.616,1.246,1.532,1.246,2.75c0,0.795-0.163,1.452-0.489,1.971
		c-0.326,0.52-0.854,0.904-1.584,1.155c0.351,0.058,0.686,0.176,1.004,0.354c0.318,0.179,0.598,0.41,0.838,0.693
		c0.24,0.282,0.43,0.611,0.569,0.988c0.14,0.375,0.209,0.789,0.209,1.24c0,1.439-0.475,2.541-1.423,3.303
		c-0.949,0.764-2.336,1.145-4.163,1.145c-0.824,0-1.584-0.052-2.283-0.156c-0.698-0.104-1.398-0.267-2.1-0.488V239.151z"/>
	<path fill="#643999" d="M220.262,241.837l-0.773-2.771h-4.898l-0.795,2.771h-2.621l4.157-14.04h3.695l4.157,14.04H220.262z
		 M217.071,230.375l-1.848,6.531h3.674L217.071,230.375z"/>
	<path fill="#643999" d="M235.215,239.527l-0.172,5.35h-2.471v-3.04h-8.4v-14.04h2.664v11.73h4.49v-11.73h2.653v11.73H235.215z"/>
	<path fill="#643999" d="M243.755,241.837v-8.98h-0.021l-4.855,8.98h-2.557v-14.04h2.664v8.98h0.021l4.866-8.98h2.546v14.04H243.755
		z"/>
	<path fill="#643999" d="M249.341,238.056c0.286-0.823,0.621-1.42,1.004-1.788c0.383-0.369,0.747-0.586,1.09-0.65
		c-0.344-0.107-0.666-0.252-0.967-0.436c-0.301-0.182-0.566-0.409-0.795-0.682c-0.229-0.272-0.41-0.591-0.542-0.956
		c-0.133-0.365-0.199-0.791-0.199-1.278c0-0.795,0.118-1.476,0.354-2.041s0.585-1.029,1.047-1.391
		c0.462-0.362,1.033-0.625,1.713-0.79c0.68-0.165,1.468-0.247,2.363-0.247h3.813v14.04h-2.643v-5.371h-1.214
		c-0.566,0-1.028,0.138-1.386,0.413c-0.358,0.276-0.648,0.794-0.87,1.553l-1.021,3.405h-3.008L249.341,238.056z M251.704,232.201
		c0,0.358,0.063,0.688,0.188,0.988c0.125,0.301,0.308,0.533,0.548,0.698c0.24,0.165,0.526,0.29,0.859,0.376s0.704,0.129,1.112,0.129
		h1.171v-4.394h-1.257c-0.91,0-1.574,0.176-1.993,0.526S251.704,231.435,251.704,232.201z"/>
</g>
<g>
	<path fill="#D85319" d="M150.007,28.849c-0.623,0.251-1.227,0.437-1.81,0.559c-0.584,0.122-1.191,0.183-1.821,0.183
		c-1.01,0-1.903-0.149-2.68-0.446c-0.777-0.297-1.433-0.739-1.966-1.327c-0.534-0.587-0.938-1.316-1.214-2.186
		c-0.276-0.87-0.414-1.881-0.414-3.035c0-1.182,0.15-2.232,0.451-3.153c0.301-0.92,0.73-1.697,1.289-2.331s1.237-1.117,2.036-1.45
		c0.798-0.333,1.695-0.5,2.691-0.5c0.322,0,0.625,0.007,0.908,0.021c0.283,0.015,0.56,0.042,0.833,0.081
		c0.272,0.04,0.548,0.091,0.827,0.156s0.569,0.147,0.87,0.247v2.621c-0.609-0.286-1.189-0.49-1.74-0.612
		c-0.552-0.122-1.053-0.183-1.504-0.183c-0.666,0-1.235,0.12-1.708,0.36c-0.473,0.24-0.861,0.577-1.166,1.01
		c-0.305,0.434-0.528,0.949-0.671,1.547c-0.144,0.598-0.215,1.255-0.215,1.971c0,0.759,0.073,1.438,0.22,2.036
		c0.146,0.598,0.374,1.105,0.682,1.52c0.308,0.416,0.702,0.732,1.182,0.951c0.479,0.219,1.049,0.328,1.708,0.328
		c0.236,0,0.492-0.023,0.768-0.07c0.275-0.046,0.555-0.107,0.838-0.183c0.283-0.075,0.562-0.165,0.838-0.269
		c0.275-0.104,0.532-0.209,0.768-0.317V28.849z"/>
	<path fill="#D85319" d="M163.016,22.317c0,1.275-0.149,2.374-0.446,3.298c-0.297,0.924-0.706,1.683-1.225,2.277
		c-0.52,0.595-1.128,1.035-1.826,1.321s-1.445,0.43-2.24,0.43c-1.848,0-3.237-0.614-4.168-1.842
		c-0.931-1.228-1.396-3.013-1.396-5.355c0-1.274,0.148-2.374,0.446-3.298c0.297-0.924,0.705-1.683,1.225-2.277
		c0.519-0.594,1.128-1.035,1.826-1.321c0.698-0.286,1.445-0.43,2.24-0.43c1.848,0,3.237,0.612,4.168,1.837
		C162.55,18.182,163.016,19.969,163.016,22.317z M160.223,22.446c0-1.661-0.222-2.9-0.666-3.717
		c-0.444-0.816-1.175-1.225-2.191-1.225c-0.509,0-0.942,0.106-1.3,0.317c-0.358,0.211-0.654,0.521-0.886,0.929
		c-0.233,0.408-0.403,0.912-0.51,1.509c-0.107,0.598-0.161,1.284-0.161,2.057c0,1.662,0.224,2.9,0.671,3.717
		c0.447,0.816,1.176,1.225,2.186,1.225c0.508,0,0.943-0.105,1.305-0.317c0.361-0.211,0.657-0.521,0.886-0.929
		c0.229-0.408,0.397-0.911,0.505-1.509C160.169,23.906,160.223,23.22,160.223,22.446z"/>
	<path fill="#D85319" d="M174.607,19.825c0,0.73-0.122,1.406-0.365,2.025c-0.244,0.62-0.605,1.155-1.085,1.606
		c-0.48,0.451-1.078,0.802-1.794,1.053c-0.716,0.251-1.547,0.376-2.492,0.376h-1.343v4.512h-2.664v-14.04h4.114
		c0.909,0,1.713,0.099,2.412,0.295c0.698,0.197,1.285,0.485,1.762,0.865c0.476,0.38,0.838,0.847,1.085,1.402
		C174.483,18.474,174.607,19.109,174.607,19.825z M171.835,20.008c0-0.372-0.059-0.71-0.177-1.015
		c-0.118-0.304-0.297-0.564-0.537-0.779c-0.24-0.215-0.542-0.379-0.908-0.494c-0.365-0.114-0.799-0.172-1.3-0.172h-1.386v5.146H169
		c0.458,0,0.863-0.063,1.214-0.188c0.351-0.125,0.646-0.306,0.886-0.542c0.24-0.236,0.422-0.519,0.548-0.849
		C171.772,20.785,171.835,20.416,171.835,20.008z"/>
	<path fill="#D85319" d="M182.911,17.559v11.838h-2.707V17.559h-3.846v-2.202h10.398v2.202H182.911z"/>
	<path fill="#D85319" d="M196.038,29.396v-8.98h-0.021l-4.855,8.98h-2.557v-14.04h2.664v8.98h0.021l4.866-8.98h2.546v14.04H196.038z
		"/>
	<path fill="#D85319" d="M210.894,19.825c0,0.73-0.122,1.406-0.365,2.025c-0.244,0.62-0.605,1.155-1.085,1.606
		c-0.48,0.451-1.078,0.802-1.794,1.053c-0.716,0.251-1.547,0.376-2.492,0.376h-1.343v4.512h-2.664v-14.04h4.114
		c0.909,0,1.713,0.099,2.412,0.295c0.698,0.197,1.285,0.485,1.762,0.865c0.476,0.38,0.838,0.847,1.085,1.402
		C210.771,18.474,210.894,19.109,210.894,19.825z M208.123,20.008c0-0.372-0.059-0.71-0.177-1.015
		c-0.118-0.304-0.297-0.564-0.537-0.779c-0.24-0.215-0.542-0.379-0.908-0.494c-0.365-0.114-0.799-0.172-1.3-0.172h-1.386v5.146
		h1.472c0.458,0,0.863-0.063,1.214-0.188c0.351-0.125,0.646-0.306,0.886-0.542c0.24-0.236,0.422-0.519,0.548-0.849
		C208.06,20.785,208.123,20.416,208.123,20.008z"/>
	<path fill="#D85319" d="M223.495,22.317c0,1.275-0.149,2.374-0.446,3.298c-0.297,0.924-0.706,1.683-1.225,2.277
		c-0.52,0.595-1.128,1.035-1.826,1.321s-1.445,0.43-2.24,0.43c-1.848,0-3.237-0.614-4.168-1.842
		c-0.931-1.228-1.396-3.013-1.396-5.355c0-1.274,0.148-2.374,0.446-3.298c0.297-0.924,0.705-1.683,1.225-2.277
		c0.519-0.594,1.128-1.035,1.826-1.321c0.698-0.286,1.445-0.43,2.24-0.43c1.848,0,3.237,0.612,4.168,1.837
		C223.029,18.182,223.495,19.969,223.495,22.317z M220.702,22.446c0-1.661-0.222-2.9-0.666-3.717
		c-0.444-0.816-1.175-1.225-2.191-1.225c-0.509,0-0.942,0.106-1.3,0.317c-0.358,0.211-0.654,0.521-0.886,0.929
		c-0.233,0.408-0.403,0.912-0.51,1.509c-0.107,0.598-0.161,1.284-0.161,2.057c0,1.662,0.224,2.9,0.671,3.717
		c0.447,0.816,1.176,1.225,2.186,1.225c0.508,0,0.943-0.105,1.305-0.317c0.361-0.211,0.657-0.521,0.886-0.929
		c0.229-0.408,0.397-0.911,0.505-1.509C220.648,23.906,220.702,23.22,220.702,22.446z"/>
	<path fill="#D85319" d="M225.278,29.396v-14.04h4.533c1.597,0,2.794,0.279,3.593,0.838c0.798,0.559,1.198,1.404,1.198,2.535
		c0,0.351-0.042,0.693-0.124,1.026c-0.083,0.333-0.209,0.639-0.381,0.918s-0.387,0.526-0.645,0.741s-0.563,0.383-0.913,0.505
		c0.351,0.058,0.686,0.17,1.004,0.338c0.318,0.168,0.598,0.387,0.838,0.655c0.24,0.269,0.43,0.585,0.569,0.951
		s0.209,0.773,0.209,1.225c0,1.433-0.48,2.508-1.439,3.228c-0.96,0.72-2.346,1.08-4.157,1.08H225.278z M231.852,19.191
		c0-0.265-0.043-0.505-0.129-0.72s-0.224-0.397-0.414-0.548c-0.19-0.15-0.434-0.267-0.73-0.349c-0.297-0.082-0.657-0.124-1.08-0.124
		h-1.601v3.717h1.601c0.43,0,0.793-0.052,1.09-0.156c0.297-0.104,0.541-0.247,0.73-0.43c0.189-0.183,0.326-0.392,0.408-0.628
		C231.811,19.718,231.852,19.464,231.852,19.191z M229.747,27.237c0.422,0,0.793-0.054,1.112-0.161
		c0.318-0.107,0.585-0.256,0.8-0.446c0.215-0.189,0.377-0.414,0.489-0.671c0.111-0.258,0.167-0.533,0.167-0.827
		c0-0.608-0.228-1.085-0.682-1.429c-0.455-0.344-1.151-0.516-2.089-0.516h-1.644v4.05H229.747z"/>
	<path fill="#D85319" d="M244.281,29.396l-4.222-6.789v6.789h-2.686v-14.04h2.686v6.392l4.2-6.392h3.19l-4.77,6.692l5.017,7.348
		H244.281z"/>
	<path fill="#D85319" d="M257.214,29.396l-0.773-2.771h-4.898l-0.795,2.771h-2.621l4.157-14.04h3.695l4.157,14.04H257.214z
		 M254.024,17.935l-1.848,6.531h3.674L254.024,17.935z"/>
</g>
<g>
	<path fill-rule="evenodd" clip-rule="evenodd" fill="#FFFFFF" d="M244.362,112.681c-4.714-4.714-4.713-9.428,0-14.142
		l42.886-42.885c4.713-4.713,9.428-4.714,14.142,0l42.885,42.886c4.714,4.714,4.713,9.429,0,14.142l-42.886,42.885
		c-4.713,4.714-9.428,4.714-14.142,0L244.362,112.681z"/>
	
		<path fill-rule="evenodd" clip-rule="evenodd" fill="none" stroke="#04AFC7" stroke-width="10" stroke-linecap="round" stroke-linejoin="round" stroke-miterlimit="3" d="
		M244.362,112.681l42.885,42.886c4.714,4.714,9.429,4.714,14.142,0l42.886-42.885c4.714-4.713,4.714-9.428,0-14.142l-42.885-42.886
		c-4.714-4.714-9.429-4.713-14.142,0l-42.886,42.885C239.648,103.252,239.648,107.966,244.362,112.681z"/>
	<path fill-rule="evenodd" clip-rule="evenodd" fill="#FFFFFF" d="M319.712,199.28c-4.714-4.714-4.713-9.429,0-14.142l42.886-42.886
		c4.713-4.714,9.428-4.714,14.142,0l42.884,42.886c4.715,4.715,4.714,9.429,0,14.143l-42.886,42.885
		c-4.713,4.714-9.428,4.714-14.142,0L319.712,199.28z"/>
	
		<path fill-rule="evenodd" clip-rule="evenodd" fill="none" stroke="#7146A2" stroke-width="10" stroke-linecap="round" stroke-linejoin="round" stroke-miterlimit="3" d="
		M319.712,199.28l42.885,42.886c4.714,4.714,9.429,4.714,14.142,0l42.886-42.885c4.714-4.714,4.715-9.428,0-14.143l-42.884-42.886
		c-4.714-4.714-9.429-4.714-14.142,0l-42.886,42.886C314.999,189.852,314.998,194.566,319.712,199.28z"/>
	<path fill-rule="evenodd" clip-rule="evenodd" fill="#FFFFFF" d="M441.662,199.28c-4.714-4.714-4.713-9.429,0-14.142l42.887-42.886
		c4.714-4.714,9.428-4.714,14.142,0l42.885,42.886c4.715,4.715,4.714,9.429,0,14.143l-42.886,42.885
		c-4.714,4.714-9.429,4.714-14.143,0L441.662,199.28z"/>
	
		<path fill-rule="evenodd" clip-rule="evenodd" fill="none" stroke="#8FBA2D" stroke-width="10" stroke-linecap="round" stroke-linejoin="round" stroke-miterlimit="3" d="
		M441.662,199.28l42.885,42.886c4.714,4.714,9.429,4.714,14.143,0l42.886-42.885c4.714-4.714,4.715-9.428,0-14.143l-42.885-42.886
		c-4.714-4.714-9.428-4.714-14.142,0l-42.887,42.886C436.949,189.852,436.948,194.566,441.662,199.28z"/>
	<path fill-rule="evenodd" clip-rule="evenodd" fill="#FFFFFF" d="M373.712,71.88c-4.714-4.714-4.713-9.428,0-14.142l42.886-42.885
		c4.714-4.713,9.428-4.714,14.142,0l42.885,42.886c4.715,4.714,4.714,9.429,0,14.142l-42.887,42.885
		c-4.713,4.714-9.428,4.714-14.142,0L373.712,71.88z"/>
	
		<path fill-rule="evenodd" clip-rule="evenodd" fill="none" stroke="#DE5E21" stroke-width="10" stroke-linecap="round" stroke-linejoin="round" stroke-miterlimit="3" d="
		M373.712,71.88l42.885,42.886c4.714,4.714,9.429,4.714,14.142,0l42.887-42.885c4.714-4.713,4.715-9.428,0-14.142L430.74,14.853
		c-4.714-4.714-9.428-4.713-14.142,0l-42.886,42.885C368.999,62.452,368.998,67.166,373.712,71.88z"/>
	<g>
		<path fill-rule="evenodd" clip-rule="evenodd" fill="#FFFFFF" d="M512.721,172.726c-0.681,0.708-1.519,1.061-2.514,1.061
			c-0.996,0-1.848-0.353-2.555-1.061c-0.681-0.681-1.021-1.519-1.021-2.515c0-0.995,0.341-1.847,1.021-2.554
			c0.707-0.681,1.559-1.021,2.555-1.021c0.995,0,1.833,0.341,2.514,1.021c0.707,0.707,1.061,1.559,1.061,2.554
			C513.781,171.207,513.428,172.045,512.721,172.726z"/>
		
			<path fill-rule="evenodd" clip-rule="evenodd" fill="none" stroke="#8FBA2D" stroke-width="2" stroke-linecap="square" stroke-miterlimit="3" d="
			M512.721,172.726c-0.681,0.708-1.519,1.061-2.514,1.061c-0.996,0-1.848-0.353-2.555-1.061c-0.681-0.681-1.021-1.519-1.021-2.515
			c0-0.995,0.341-1.847,1.021-2.554c0.707-0.681,1.559-1.021,2.555-1.021c0.995,0,1.833,0.341,2.514,1.021
			c0.707,0.707,1.061,1.559,1.061,2.554C513.781,171.207,513.428,172.045,512.721,172.726z"/>
		<path fill-rule="evenodd" clip-rule="evenodd" fill="#FFFFFF" d="M500.553,176.249c-0.466,0.484-1.04,0.727-1.722,0.727
			s-1.265-0.242-1.748-0.727c-0.467-0.466-0.7-1.04-0.7-1.722c0-0.681,0.233-1.264,0.7-1.748c0.483-0.467,1.066-0.699,1.748-0.699
			s1.256,0.232,1.722,0.699c0.484,0.484,0.727,1.067,0.727,1.748C501.279,175.209,501.037,175.783,500.553,176.249z"/>
		
			<path fill-rule="evenodd" clip-rule="evenodd" fill="none" stroke="#8FBA2D" stroke-width="2" stroke-linecap="square" stroke-miterlimit="3" d="
			M500.553,176.249c-0.466,0.484-1.04,0.727-1.722,0.727s-1.265-0.242-1.748-0.727c-0.467-0.466-0.7-1.04-0.7-1.722
			c0-0.681,0.233-1.264,0.7-1.748c0.483-0.467,1.066-0.699,1.748-0.699s1.256,0.232,1.722,0.699
			c0.484,0.484,0.727,1.067,0.727,1.748C501.279,175.209,501.037,175.783,500.553,176.249z"/>
		<path fill-rule="evenodd" clip-rule="evenodd" fill="#FFFFFF" d="M514.402,181.199c-0.466,0.484-1.039,0.727-1.721,0.727
			s-1.265-0.242-1.749-0.727c-0.467-0.466-0.699-1.04-0.699-1.722c0-0.681,0.232-1.264,0.699-1.748
			c0.484-0.467,1.067-0.699,1.749-0.699s1.255,0.232,1.721,0.699c0.484,0.484,0.727,1.067,0.727,1.748
			C515.129,180.159,514.887,180.733,514.402,181.199z"/>
		
			<path fill-rule="evenodd" clip-rule="evenodd" fill="none" stroke="#8FBA2D" stroke-width="2" stroke-linecap="square" stroke-miterlimit="3" d="
			M514.402,181.199c-0.466,0.484-1.039,0.727-1.721,0.727s-1.265-0.242-1.749-0.727c-0.467-0.466-0.699-1.04-0.699-1.722
			c0-0.681,0.232-1.264,0.699-1.748c0.484-0.467,1.067-0.699,1.749-0.699s1.255,0.232,1.721,0.699
			c0.484,0.484,0.727,1.067,0.727,1.748C515.129,180.159,514.887,180.733,514.402,181.199z"/>
		<path fill-rule="evenodd" clip-rule="evenodd" fill="#FFFFFF" d="M518.23,180.631c0.524-0.032,0.737,0.312,0.639,1.033
			l-4.278,29.607c-0.033,0.36-0.229,0.541-0.591,0.541h-20.951c-0.36,0-0.574-0.181-0.639-0.541l-4.23-29.607
			c-0.099-0.722,0.115-1.065,0.64-1.033H518.23z"/>
		
			<path fill-rule="evenodd" clip-rule="evenodd" fill="none" stroke="#8FBA2D" stroke-width="3" stroke-linecap="square" stroke-miterlimit="3" d="
			M518.23,180.631h-29.411c-0.524-0.032-0.738,0.312-0.64,1.033l4.23,29.607c0.064,0.36,0.278,0.541,0.639,0.541H514
			c0.361,0,0.558-0.181,0.591-0.541l4.278-29.607C518.968,180.942,518.755,180.599,518.23,180.631z"/>
		
			<path fill-rule="evenodd" clip-rule="evenodd" fill="none" stroke="#8FBA2D" stroke-width="3" stroke-linecap="square" stroke-miterlimit="3" d="
			M491.007,181.335l1.415,1.808c1.283,1.362,2.697,2.423,4.243,3.183c5.028,2.49,11.466,0.781,19.312-5.127"/>
		<g>
			
				<path fill-rule="evenodd" clip-rule="evenodd" fill="none" stroke="#8FBA2D" stroke-width="3" stroke-linecap="round" stroke-miterlimit="3" d="
				M485.7,202.6h-20.5v6.9c0,0.2,0.017,0.384,0.05,0.55 M476.1,203.35v6.601 M470.45,203.35v6.601 M486.15,209.9
				c0-0.134,0-0.301,0-0.5V198.3c0-3.166-1.601-4.75-4.801-4.75H469.9c-3.134,0-4.7,1.584-4.7,4.75v4.3 M481.25,203.35v6.601"/>
			
				<line fill-rule="evenodd" clip-rule="evenodd" fill="none" stroke="#8FBA2D" stroke-width="4.5" stroke-linecap="round" stroke-miterlimit="3" x1="475.752" y1="192.127" x2="475.752" y2="176.804"/>
		</g>
	</g>
	<g>
		<path fill-rule="evenodd" clip-rule="evenodd" fill="#DE5E21" d="M418.064,37.995c1.441,0,2.162,0.721,2.162,2.162v42.487
			c0,1.441-0.721,2.162-2.162,2.162h-10.018c-1.441,0-2.162-0.721-2.162-2.162V40.157c0-1.441,0.721-2.162,2.162-2.162H418.064z"/>
		
			<path fill-rule="evenodd" clip-rule="evenodd" fill="none" stroke="#DE5E21" stroke-width="3" stroke-linecap="round" stroke-miterlimit="3" d="
			M418.064,37.995h-10.018c-1.441,0-2.162,0.721-2.162,2.162v42.487c0,1.441,0.721,2.162,2.162,2.162h10.018
			c1.441,0,2.162-0.721,2.162-2.162V40.157C420.227,38.716,419.506,37.995,418.064,37.995z"/>
		
			<line fill-rule="evenodd" clip-rule="evenodd" fill="none" stroke="#FFFFFF" stroke-width="3" stroke-linecap="square" stroke-miterlimit="3" x1="404.624" y1="68.59" x2="421.488" y2="68.59"/>
		
			<line fill-rule="evenodd" clip-rule="evenodd" fill="none" stroke="#FFFFFF" stroke-width="3" stroke-linecap="square" stroke-miterlimit="3" x1="405.885" y1="75.437" x2="421.488" y2="75.437"/>
		<rect x="407.146" y="40.518" fill-rule="evenodd" clip-rule="evenodd" fill="#FFFFFF" width="11.855" height="19.315"/>
		<g>
			
				<line fill-rule="evenodd" clip-rule="evenodd" fill="none" stroke="#DE5E21" stroke-width="2" stroke-linecap="round" stroke-linejoin="round" stroke-miterlimit="3" x1="412.841" y1="45.209" x2="412.841" y2="53.61"/>
			<path fill-rule="evenodd" clip-rule="evenodd" fill="#DE5E21" d="M410.502,54.01c0.638-0.614,1.418-0.921,2.34-0.921
				s1.689,0.307,2.304,0.921c0.662,0.662,0.992,1.454,0.992,2.375c0,0.898-0.318,1.666-0.957,2.304l-0.035,0.036
				c-0.354,0.378-0.792,0.649-1.312,0.815v-3.722c0-0.425-0.213-0.638-0.638-0.638h-0.709c-0.449,0-0.674,0.213-0.674,0.638v3.722
				c-0.496-0.166-0.934-0.449-1.312-0.851c-0.638-0.638-0.957-1.406-0.957-2.304C409.545,55.463,409.864,54.672,410.502,54.01z"/>
			<path fill-rule="evenodd" clip-rule="evenodd" fill="#DE5E21" d="M412.841,41.322c0.597,0,1.097,0.202,1.5,0.605
				c0.421,0.421,0.632,0.93,0.632,1.527c0,0.596-0.211,1.097-0.632,1.5c-0.403,0.421-0.903,0.632-1.5,0.632s-1.105-0.21-1.527-0.632
				c-0.403-0.403-0.604-0.904-0.604-1.5c0-0.597,0.201-1.105,0.604-1.527C411.735,41.523,412.244,41.322,412.841,41.322z"/>
			
				<path fill-rule="evenodd" clip-rule="evenodd" fill="none" stroke="#FFFFFF" stroke-width="1.5" stroke-linecap="round" stroke-linejoin="round" stroke-miterlimit="3" d="
				M412.841,41.322c0.597,0,1.097,0.202,1.5,0.605c0.421,0.421,0.632,0.93,0.632,1.527c0,0.596-0.211,1.097-0.632,1.5
				c-0.403,0.421-0.903,0.632-1.5,0.632s-1.105-0.21-1.527-0.632c-0.403-0.403-0.604-0.904-0.604-1.5
				c0-0.597,0.201-1.105,0.604-1.527C411.735,41.523,412.244,41.322,412.841,41.322z"/>
		</g>
		<path fill-rule="evenodd" clip-rule="evenodd" fill="#DE5E21" d="M441.165,38.595c1.441,0,2.162,0.721,2.162,2.162v42.487
			c0,1.441-0.721,2.162-2.162,2.162h-10.018c-1.441,0-2.162-0.721-2.162-2.162V40.757c0-1.441,0.721-2.162,2.162-2.162H441.165z"/>
		
			<path fill-rule="evenodd" clip-rule="evenodd" fill="none" stroke="#DE5E21" stroke-width="3" stroke-linecap="round" stroke-miterlimit="3" d="
			M441.165,38.595h-10.018c-1.441,0-2.162,0.721-2.162,2.162v42.487c0,1.441,0.721,2.162,2.162,2.162h10.018
			c1.441,0,2.162-0.721,2.162-2.162V40.757C443.327,39.316,442.606,38.595,441.165,38.595z"/>
		
			<line fill-rule="evenodd" clip-rule="evenodd" fill="none" stroke="#FFFFFF" stroke-width="3" stroke-linecap="square" stroke-miterlimit="3" x1="427.724" y1="69.19" x2="444.588" y2="69.19"/>
		
			<line fill-rule="evenodd" clip-rule="evenodd" fill="none" stroke="#FFFFFF" stroke-width="3" stroke-linecap="square" stroke-miterlimit="3" x1="428.985" y1="76.037" x2="444.588" y2="76.037"/>
		<rect x="430.246" y="41.118" fill-rule="evenodd" clip-rule="evenodd" fill="#FFFFFF" width="11.856" height="19.315"/>
		<g>
			
				<line fill-rule="evenodd" clip-rule="evenodd" fill="none" stroke="#DE5E21" stroke-width="2" stroke-linecap="round" stroke-linejoin="round" stroke-miterlimit="3" x1="435.916" y1="55.708" x2="435.916" y2="47.308"/>
			<path fill-rule="evenodd" clip-rule="evenodd" fill="#DE5E21" d="M433.577,47.008c0.638,0.614,1.418,0.921,2.34,0.921
				s1.689-0.307,2.304-0.921c0.662-0.662,0.992-1.454,0.992-2.375c0-0.898-0.318-1.666-0.957-2.304l-0.035-0.036
				c-0.354-0.378-0.792-0.649-1.312-0.815V45.2c0,0.425-0.213,0.638-0.638,0.638h-0.709c-0.449,0-0.674-0.213-0.674-0.638v-3.722
				c-0.496,0.166-0.934,0.449-1.312,0.851c-0.638,0.638-0.957,1.406-0.957,2.304C432.62,45.554,432.939,46.346,433.577,47.008z"/>
			<path fill-rule="evenodd" clip-rule="evenodd" fill="#DE5E21" d="M435.916,59.54c0.597,0,1.097-0.202,1.5-0.605
				c0.421-0.421,0.632-0.93,0.632-1.527c0-0.596-0.211-1.097-0.632-1.5c-0.403-0.421-0.903-0.632-1.5-0.632s-1.105,0.21-1.527,0.632
				c-0.403,0.403-0.604,0.904-0.604,1.5c0,0.597,0.201,1.105,0.604,1.527C434.811,59.338,435.319,59.54,435.916,59.54z"/>
			
				<path fill-rule="evenodd" clip-rule="evenodd" fill="none" stroke="#FFFFFF" stroke-width="1.5" stroke-linecap="round" stroke-linejoin="round" stroke-miterlimit="3" d="
				M435.916,59.54c0.597,0,1.097-0.202,1.5-0.605c0.421-0.421,0.632-0.93,0.632-1.527c0-0.596-0.211-1.097-0.632-1.5
				c-0.403-0.421-0.903-0.632-1.5-0.632s-1.105,0.21-1.527,0.632c-0.403,0.403-0.604,0.904-0.604,1.5
				c0,0.597,0.201,1.105,0.604,1.527C434.811,59.338,435.319,59.54,435.916,59.54z"/>
		</g>
	</g>
	<g>
		<g>
			
				<path fill-rule="evenodd" clip-rule="evenodd" fill="none" stroke="#04AFC7" stroke-width="3" stroke-linecap="round" stroke-miterlimit="10" d="
				M272.35,105.65c0-2.533,0.483-4.967,1.45-7.3c0.967-2.2,2.3-4.15,4-5.85c1.733-1.733,3.733-3.083,6-4.05
				c2.233-0.967,4.617-1.45,7.15-1.45c4.033,0,7.667,1.183,10.9,3.55c3.167,2.267,5.383,5.25,6.65,8.95 M309.7,105.6
				c0,2.533-0.483,4.95-1.45,7.25c-0.967,2.2-2.3,4.183-4,5.95c-1.733,1.667-3.717,2.983-5.95,3.95c-2.3,0.967-4.7,1.45-7.2,1.45
				c-4,0-7.633-1.15-10.9-3.45c-3.167-2.3-5.4-5.283-6.7-8.95"/>
			
				<path fill-rule="evenodd" clip-rule="evenodd" fill="none" stroke="#04AFC7" stroke-width="3" stroke-linecap="round" stroke-linejoin="round" stroke-miterlimit="3" d="
				M273.1,119.2l-0.35-9.35l6.75,6.3 M302.2,95.4l7.15,5.65l-1.05-9.2"/>
		</g>
	</g>
	<g>
		
			<line fill-rule="evenodd" clip-rule="evenodd" fill="none" stroke="#7146A2" stroke-width="4" stroke-linecap="round" stroke-linejoin="round" stroke-miterlimit="3" x1="368.304" y1="191.354" x2="357.396" y2="181.773"/>
		<path fill-rule="evenodd" clip-rule="evenodd" fill="#7146A2" d="M358.548,178.519c0.056,1.228-0.338,2.321-1.182,3.282
			s-1.867,1.48-3.07,1.558c-1.296,0.084-2.424-0.296-3.384-1.14c-0.936-0.822-1.445-1.857-1.526-3.107l-0.005-0.069
			c-0.069-0.716,0.048-1.42,0.351-2.114l3.88,3.408c0.443,0.39,0.86,0.362,1.249-0.081l0.649-0.739
			c0.411-0.468,0.395-0.896-0.049-1.285l-3.88-3.408c0.627-0.366,1.323-0.563,2.088-0.589c1.249-0.08,2.342,0.29,3.278,1.112
			C357.909,176.189,358.442,177.247,358.548,178.519z"/>
		<path fill-rule="evenodd" clip-rule="evenodd" fill="#FFFFFF" d="M369.073,192.004c-0.265,0.302-0.589,0.466-0.973,0.49
			c-0.4,0.026-0.751-0.094-1.053-0.358s-0.461-0.594-0.478-0.986c-0.034-0.391,0.082-0.737,0.347-1.039
			c0.265-0.302,0.598-0.466,0.998-0.491c0.383-0.025,0.726,0.095,1.027,0.36c0.302,0.265,0.47,0.593,0.503,0.983
			C369.462,191.355,369.338,191.702,369.073,192.004z"/>
		
			<line fill-rule="evenodd" clip-rule="evenodd" fill="none" stroke="#7146A2" stroke-width="4" stroke-linecap="round" stroke-linejoin="round" stroke-miterlimit="3" x1="389.354" y1="187.754" x2="378.447" y2="178.174"/>
		<path fill-rule="evenodd" clip-rule="evenodd" fill="#7146A2" d="M379.599,174.918c0.056,1.228-0.338,2.322-1.182,3.282
			c-0.844,0.961-1.867,1.48-3.07,1.559c-1.296,0.084-2.424-0.296-3.384-1.14c-0.936-0.822-1.445-1.858-1.526-3.107l-0.005-0.07
			c-0.069-0.715,0.048-1.42,0.351-2.113l3.88,3.408c0.443,0.389,0.859,0.362,1.249-0.081l0.649-0.739
			c0.411-0.468,0.395-0.896-0.049-1.286l-3.88-3.408c0.627-0.365,1.323-0.562,2.088-0.588c1.249-0.081,2.342,0.29,3.278,1.112
			C378.959,172.589,379.493,173.646,379.599,174.918z"/>
		<path fill-rule="evenodd" clip-rule="evenodd" fill="#FFFFFF" d="M390.123,188.404c-0.266,0.302-0.59,0.465-0.973,0.49
			c-0.4,0.025-0.751-0.094-1.053-0.359c-0.302-0.265-0.462-0.593-0.479-0.985c-0.034-0.392,0.082-0.738,0.347-1.04
			c0.266-0.302,0.598-0.465,0.998-0.491c0.383-0.024,0.726,0.096,1.027,0.36c0.302,0.266,0.47,0.593,0.503,0.984
			C390.512,187.756,390.388,188.103,390.123,188.404z"/>
		
			<line fill-rule="evenodd" clip-rule="evenodd" fill="none" stroke="#7146A2" stroke-width="4" stroke-linecap="round" stroke-linejoin="round" stroke-miterlimit="3" x1="364.704" y1="212.004" x2="353.796" y2="202.424"/>
		<path fill-rule="evenodd" clip-rule="evenodd" fill="#7146A2" d="M354.949,199.168c0.056,1.228-0.338,2.322-1.182,3.282
			c-0.844,0.961-1.867,1.48-3.07,1.559c-1.296,0.084-2.424-0.296-3.384-1.14c-0.936-0.822-1.445-1.858-1.526-3.107l-0.005-0.07
			c-0.069-0.715,0.048-1.42,0.351-2.113l3.88,3.408c0.443,0.389,0.86,0.362,1.249-0.081l0.649-0.739
			c0.411-0.468,0.395-0.896-0.049-1.286l-3.88-3.408c0.627-0.365,1.323-0.562,2.088-0.588c1.249-0.081,2.342,0.29,3.278,1.112
			C354.31,196.839,354.843,197.896,354.949,199.168z"/>
		<path fill-rule="evenodd" clip-rule="evenodd" fill="#FFFFFF" d="M365.473,212.654c-0.265,0.302-0.589,0.465-0.973,0.49
			c-0.4,0.025-0.751-0.094-1.053-0.359c-0.302-0.265-0.461-0.593-0.478-0.985c-0.034-0.392,0.082-0.738,0.347-1.04
			c0.265-0.302,0.598-0.465,0.998-0.491c0.383-0.024,0.726,0.096,1.027,0.36c0.302,0.266,0.47,0.593,0.503,0.984
			C365.862,212.006,365.738,212.353,365.473,212.654z"/>
		
			<line fill-rule="evenodd" clip-rule="evenodd" fill="none" stroke="#7146A2" stroke-width="4" stroke-linecap="round" stroke-linejoin="round" stroke-miterlimit="3" x1="389.6" y1="209.15" x2="383.5" y2="203.85"/>
		<path fill-rule="evenodd" clip-rule="evenodd" fill="#7146A2" d="M384.648,200.568c0.056,1.228-0.338,2.322-1.182,3.282
			c-0.844,0.961-1.867,1.48-3.07,1.559c-1.296,0.084-2.424-0.296-3.384-1.14c-0.936-0.822-1.445-1.858-1.526-3.107l-0.005-0.07
			c-0.069-0.715,0.048-1.42,0.351-2.113l3.88,3.408c0.443,0.389,0.859,0.362,1.249-0.081l0.649-0.739
			c0.411-0.468,0.395-0.896-0.049-1.286l-3.88-3.408c0.627-0.365,1.323-0.562,2.088-0.588c1.249-0.081,2.342,0.29,3.278,1.112
			C384.009,198.239,384.542,199.297,384.648,200.568z"/>
		<path fill-rule="evenodd" clip-rule="evenodd" fill="#FFFFFF" d="M390.623,210.004c-0.266,0.302-0.59,0.466-0.973,0.49
			c-0.4,0.026-0.751-0.094-1.053-0.358s-0.462-0.594-0.479-0.986c-0.034-0.391,0.082-0.737,0.347-1.039
			c0.266-0.302,0.598-0.466,0.998-0.491c0.383-0.025,0.726,0.095,1.027,0.36c0.302,0.265,0.47,0.593,0.503,0.983
			C391.012,209.355,390.888,209.702,390.623,210.004z"/>
		
			<line fill-rule="evenodd" clip-rule="evenodd" fill="none" stroke="#CD2B3E" stroke-linecap="round" stroke-linejoin="round" stroke-miterlimit="3" x1="378.777" y1="207.131" x2="390.65" y2="203.225"/>
		
			<line fill-rule="evenodd" clip-rule="evenodd" fill="none" stroke="#CD2B3E" stroke-linecap="round" stroke-linejoin="round" stroke-miterlimit="3" x1="382.712" y1="211.469" x2="386.723" y2="199.63"/>
	</g>
	<path fill-rule="evenodd" clip-rule="evenodd" fill="#FFFFFF" d="M510.712,112.681c-4.714-4.714-4.713-9.428,0-14.142
		l42.887-42.885c4.714-4.713,9.428-4.714,14.142,0l42.885,42.886c4.715,4.714,4.714,9.429,0,14.142l-42.887,42.885
		c-4.713,4.714-9.428,4.714-14.142,0L510.712,112.681z"/>
	
		<path fill-rule="evenodd" clip-rule="evenodd" fill="none" stroke="#CA2A3C" stroke-width="10" stroke-linecap="round" stroke-linejoin="round" stroke-miterlimit="3" d="
		M510.712,112.681l42.885,42.886c4.714,4.714,9.429,4.714,14.142,0l42.887-42.885c4.714-4.713,4.715-9.428,0-14.142L567.74,55.653
		c-4.714-4.714-9.428-4.713-14.142,0l-42.887,42.885C505.999,103.252,505.998,107.966,510.712,112.681z"/>
	<g>
		
			<path fill-rule="evenodd" clip-rule="evenodd" fill="none" stroke="#CD2B3E" stroke-width="3.5" stroke-linecap="round" stroke-linejoin="round" stroke-miterlimit="3" d="
			M583.953,87.144h-45.985c-3.278,0-4.918,1.639-4.918,4.918v27.099c0,3.28,1.64,4.918,4.918,4.918h45.985
			c3.279,0,4.919-1.639,4.919-4.918V92.062C588.872,88.783,587.232,87.144,583.953,87.144z"/>
		
			<path fill-rule="evenodd" clip-rule="evenodd" fill="none" stroke="#CD2B3E" stroke-width="1.5" stroke-linecap="round" stroke-linejoin="round" stroke-miterlimit="3" d="
			M546.373,90.971c0.827,0,1.521,0.28,2.081,0.84c0.585,0.584,0.877,1.291,0.877,2.118s-0.292,1.521-0.877,2.082
			c-0.56,0.584-1.254,0.876-2.081,0.876c-0.828,0-1.533-0.292-2.118-0.876c-0.56-0.56-0.84-1.254-0.84-2.082s0.28-1.534,0.84-2.118
			C544.84,91.251,545.545,90.971,546.373,90.971z"/>
		
			<line fill-rule="evenodd" clip-rule="evenodd" fill="none" stroke="#CD2B3E" stroke-width="2" stroke-linecap="round" stroke-linejoin="round" stroke-miterlimit="3" x1="546.312" y1="97.602" x2="546.312" y2="105.176"/>
		<path fill-rule="evenodd" clip-rule="evenodd" fill="#CD2B3E" d="M547.283,106.864H546.3c-0.623,0-0.935,0.295-0.935,0.885v5.164
			c-0.688-0.229-1.295-0.623-1.819-1.181c-0.886-0.885-1.328-1.951-1.328-3.197c0-1.278,0.442-2.377,1.328-3.295
			c0.885-0.853,1.967-1.278,3.245-1.278c1.279,0,2.345,0.426,3.197,1.278c0.918,0.918,1.377,2.017,1.377,3.295
			c0,1.246-0.442,2.312-1.328,3.197l-0.049,0.049c-0.492,0.525-1.099,0.902-1.82,1.131v-5.164
			C548.168,107.159,547.873,106.864,547.283,106.864z"/>
		
			<line fill-rule="evenodd" clip-rule="evenodd" fill="none" stroke="#CD2B3E" stroke-width="2" stroke-linecap="round" stroke-linejoin="round" stroke-miterlimit="3" x1="560.661" y1="97.476" x2="560.661" y2="109.132"/>
		<path fill-rule="evenodd" clip-rule="evenodd" fill="#CD2B3E" d="M561.583,111.314H560.6c-0.623,0-0.935,0.295-0.935,0.885v5.164
			c-0.688-0.229-1.295-0.623-1.819-1.181c-0.886-0.885-1.328-1.951-1.328-3.197c0-1.278,0.442-2.377,1.328-3.295
			c0.885-0.853,1.967-1.278,3.245-1.278c1.279,0,2.345,0.426,3.197,1.278c0.918,0.918,1.377,2.017,1.377,3.295
			c0,1.246-0.442,2.312-1.327,3.197l-0.05,0.049c-0.492,0.525-1.099,0.902-1.82,1.131V112.2
			C562.468,111.609,562.173,111.314,561.583,111.314z"/>
		
			<path fill-rule="evenodd" clip-rule="evenodd" fill="none" stroke="#CD2B3E" stroke-width="1.5" stroke-linecap="round" stroke-linejoin="round" stroke-miterlimit="3" d="
			M562.604,91.811c0.584,0.584,0.876,1.291,0.876,2.118s-0.292,1.521-0.876,2.082c-0.56,0.584-1.254,0.876-2.082,0.876
			c-0.827,0-1.533-0.292-2.118-0.876c-0.56-0.56-0.84-1.254-0.84-2.082s0.28-1.534,0.84-2.118c0.585-0.56,1.291-0.84,2.118-0.84
			C561.351,90.971,562.045,91.251,562.604,91.811z"/>
		
			<line fill-rule="evenodd" clip-rule="evenodd" fill="none" stroke="#CD2B3E" stroke-width="2" stroke-linecap="round" stroke-linejoin="round" stroke-miterlimit="3" x1="575.461" y1="97.116" x2="575.461" y2="111.633"/>
		<path fill-rule="evenodd" clip-rule="evenodd" fill="#CD2B3E" d="M575.483,114.515H574.5c-0.623,0-0.935,0.295-0.935,0.885v5.164
			c-0.688-0.229-1.295-0.623-1.819-1.181c-0.886-0.885-1.328-1.951-1.328-3.197c0-1.278,0.442-2.377,1.328-3.295
			c0.885-0.853,1.967-1.278,3.245-1.278c1.279,0,2.345,0.426,3.197,1.278c0.918,0.918,1.377,2.017,1.377,3.295
			c0,1.246-0.442,2.312-1.327,3.197l-0.05,0.049c-0.492,0.525-1.099,0.902-1.82,1.131V115.4
			C576.368,114.81,576.073,114.515,575.483,114.515z"/>
		
			<path fill-rule="evenodd" clip-rule="evenodd" fill="none" stroke="#CD2B3E" stroke-width="1.5" stroke-linecap="round" stroke-linejoin="round" stroke-miterlimit="3" d="
			M577.604,91.811c0.584,0.584,0.876,1.291,0.876,2.118s-0.292,1.521-0.876,2.082c-0.56,0.584-1.254,0.876-2.082,0.876
			c-0.827,0-1.533-0.292-2.118-0.876c-0.56-0.56-0.84-1.254-0.84-2.082s0.28-1.534,0.84-2.118c0.585-0.56,1.291-0.84,2.118-0.84
			C576.351,90.971,577.045,91.251,577.604,91.811z"/>
	</g>
</g>
<g>
	<path fill-rule="evenodd" clip-rule="evenodd" fill="#7146A2" d="M260,246.947c0.136-0.242,0.336-0.4,0.6-0.475l5.8-1.5
		c0.263-0.063,0.513-0.021,0.75,0.125c0.243,0.137,0.401,0.337,0.475,0.6c0.063,0.264,0.021,0.514-0.125,0.75
		c-0.137,0.242-0.336,0.4-0.6,0.475l-5.8,1.5c-0.263,0.063-0.513,0.021-0.75-0.125c-0.243-0.137-0.401-0.337-0.475-0.6
		C259.812,247.434,259.854,247.184,260,246.947z M279.1,243.447c-0.137,0.242-0.336,0.4-0.6,0.475l-5.8,1.5
		c-0.264,0.063-0.514,0.021-0.75-0.125c-0.243-0.137-0.401-0.337-0.475-0.6c-0.063-0.264-0.022-0.514,0.125-0.75
		c0.136-0.242,0.336-0.4,0.6-0.475l5.8-1.5c0.263-0.063,0.513-0.021,0.75,0.125c0.243,0.137,0.401,0.337,0.475,0.6
		C279.289,242.961,279.247,243.211,279.1,243.447z M283.2,240.947c0.136-0.242,0.336-0.4,0.6-0.475l5.8-1.5
		c0.263-0.063,0.513-0.021,0.75,0.125c0.243,0.137,0.401,0.337,0.475,0.6c0.063,0.264,0.021,0.514-0.125,0.75
		c-0.137,0.242-0.337,0.4-0.6,0.475l-5.8,1.5c-0.263,0.063-0.513,0.021-0.75-0.125c-0.242-0.137-0.401-0.337-0.475-0.6
		C283.012,241.434,283.053,241.184,283.2,240.947z M301.95,236.098c0.242,0.137,0.401,0.337,0.475,0.6
		c0.063,0.264,0.022,0.514-0.125,0.75c-0.136,0.242-0.336,0.4-0.6,0.475l-5.8,1.5c-0.263,0.063-0.513,0.021-0.75-0.125
		c-0.243-0.137-0.401-0.337-0.475-0.6c-0.063-0.264-0.021-0.514,0.125-0.75c0.137-0.242,0.336-0.4,0.6-0.475l5.8-1.5
		C301.463,235.909,301.713,235.951,301.95,236.098z M313.9,234.447c-0.136,0.242-0.336,0.4-0.6,0.475l-5.8,1.5
		c-0.263,0.063-0.513,0.021-0.75-0.125c-0.243-0.137-0.401-0.337-0.475-0.6c-0.063-0.264-0.021-0.514,0.125-0.75
		c0.137-0.242,0.336-0.4,0.6-0.475l5.8-1.5c0.264-0.063,0.514-0.021,0.75,0.125c0.243,0.137,0.401,0.337,0.475,0.6
		C314.088,233.961,314.047,234.211,313.9,234.447z M318,231.922c0.146-0.234,0.355-0.385,0.625-0.449l5.85-1.4
		c0.265-0.063,0.515-0.021,0.75,0.125c0.235,0.146,0.385,0.355,0.45,0.625c0.063,0.266,0.021,0.516-0.125,0.75
		c-0.146,0.235-0.354,0.385-0.625,0.45l-5.85,1.399c-0.266,0.063-0.516,0.021-0.75-0.125c-0.236-0.146-0.386-0.354-0.45-0.625
		C317.812,232.406,317.854,232.156,318,231.922z M332.875,227.973c0.268-0.063,0.518-0.021,0.75,0.125
		c0.236,0.147,0.386,0.355,0.45,0.625c0.063,0.267,0.021,0.517-0.125,0.75c-0.148,0.235-0.357,0.386-0.625,0.449l-2.6,0.601
		c-0.268,0.063-0.518,0.021-0.75-0.125c-0.236-0.148-0.386-0.356-0.45-0.625c-0.063-0.268-0.021-0.518,0.125-0.75
		c0.148-0.236,0.357-0.387,0.625-0.45L332.875,227.973z"/>
	<path fill-rule="evenodd" clip-rule="evenodd" fill="#7146A2" d="M183.685,248.45c-0.27-0.003-0.5-0.103-0.689-0.3
		c-0.194-0.193-0.293-0.427-0.295-0.7c0.002-0.274,0.101-0.508,0.295-0.7c0.19-0.197,0.42-0.298,0.689-0.3h5.906
		c0.269,0.002,0.499,0.103,0.689,0.3c0.194,0.192,0.293,0.426,0.295,0.7c-0.002,0.273-0.101,0.507-0.295,0.7
		c-0.19,0.197-0.42,0.297-0.689,0.3H183.685z M171.183,246.75c0.19-0.197,0.42-0.298,0.689-0.3h5.906
		c0.269,0.002,0.499,0.103,0.689,0.3c0.194,0.192,0.293,0.426,0.295,0.7c-0.002,0.273-0.101,0.507-0.295,0.7
		c-0.19,0.197-0.42,0.297-0.689,0.3h-5.906c-0.27-0.003-0.5-0.103-0.689-0.3c-0.194-0.193-0.293-0.427-0.295-0.7
		C170.89,247.176,170.988,246.942,171.183,246.75z M160.06,248.45c-0.27-0.003-0.5-0.103-0.689-0.3
		c-0.194-0.193-0.293-0.427-0.295-0.7c0.002-0.274,0.101-0.508,0.295-0.7c0.19-0.197,0.42-0.298,0.689-0.3h5.906
		c0.269,0.002,0.499,0.103,0.689,0.3c0.194,0.192,0.293,0.426,0.295,0.7c-0.002,0.273-0.101,0.507-0.295,0.7
		c-0.19,0.197-0.42,0.297-0.689,0.3H160.06z M148.247,248.45c-0.27-0.003-0.5-0.103-0.689-0.3c-0.194-0.193-0.293-0.427-0.295-0.7
		c0.002-0.274,0.101-0.508,0.295-0.7c0.19-0.197,0.42-0.298,0.689-0.3h5.906c0.269,0.002,0.499,0.103,0.689,0.3
		c0.194,0.192,0.293,0.426,0.295,0.7c-0.002,0.273-0.101,0.507-0.295,0.7c-0.19,0.197-0.42,0.297-0.689,0.3H148.247z
		 M135.745,246.75c0.19-0.197,0.42-0.298,0.689-0.3h5.906c0.269,0.002,0.499,0.103,0.689,0.3c0.194,0.192,0.293,0.426,0.295,0.7
		c-0.002,0.273-0.101,0.507-0.295,0.7c-0.19,0.197-0.42,0.297-0.689,0.3h-5.906c-0.27-0.003-0.5-0.103-0.689-0.3
		c-0.194-0.193-0.293-0.427-0.295-0.7C135.452,247.176,135.551,246.942,135.745,246.75z M123.933,248.15
		c-0.194-0.193-0.293-0.427-0.295-0.7c0.002-0.274,0.101-0.508,0.295-0.7c0.19-0.197,0.42-0.298,0.689-0.3h5.906
		c0.269,0.002,0.499,0.103,0.689,0.3c0.194,0.192,0.293,0.426,0.295,0.7c-0.002,0.273-0.101,0.507-0.295,0.7
		c-0.19,0.197-0.42,0.297-0.689,0.3h-5.906C124.353,248.447,124.123,248.348,123.933,248.15z M112.81,248.45
		c-0.27-0.003-0.5-0.103-0.689-0.3c-0.194-0.193-0.293-0.427-0.295-0.7c0.002-0.274,0.101-0.508,0.295-0.7
		c0.19-0.197,0.42-0.298,0.689-0.3h5.906c0.269,0.002,0.499,0.103,0.689,0.3c0.194,0.192,0.293,0.426,0.295,0.7
		c-0.002,0.273-0.101,0.507-0.295,0.7c-0.19,0.197-0.42,0.297-0.689,0.3H112.81z M100.997,248.45c-0.27-0.003-0.5-0.103-0.689-0.3
		c-0.194-0.193-0.293-0.427-0.295-0.7c0.002-0.274,0.101-0.508,0.295-0.7c0.19-0.197,0.42-0.298,0.689-0.3h5.906
		c0.269,0.002,0.499,0.103,0.689,0.3c0.194,0.192,0.293,0.426,0.295,0.7c-0.002,0.273-0.101,0.507-0.295,0.7
		c-0.19,0.197-0.42,0.297-0.689,0.3H100.997z M88.495,246.75c0.19-0.197,0.42-0.298,0.689-0.3h5.906
		c0.269,0.002,0.499,0.103,0.689,0.3c0.194,0.192,0.293,0.426,0.295,0.7c-0.002,0.273-0.101,0.507-0.295,0.7
		c-0.19,0.197-0.42,0.297-0.689,0.3h-5.906c-0.27-0.003-0.5-0.103-0.689-0.3c-0.194-0.193-0.293-0.427-0.295-0.7
		C88.202,247.176,88.301,246.942,88.495,246.75z M260.466,246.45c0.269,0.002,0.499,0.103,0.689,0.3
		c0.194,0.192,0.293,0.426,0.295,0.7c-0.002,0.273-0.101,0.507-0.295,0.7c-0.19,0.197-0.42,0.297-0.689,0.3h-5.906
		c-0.27-0.003-0.5-0.103-0.689-0.3c-0.194-0.193-0.293-0.427-0.295-0.7c0.002-0.274,0.101-0.508,0.295-0.7
		c0.19-0.197,0.42-0.298,0.689-0.3H260.466z M242.747,248.45c-0.27-0.003-0.5-0.103-0.689-0.3c-0.194-0.193-0.293-0.427-0.295-0.7
		c0.002-0.274,0.101-0.508,0.295-0.7c0.19-0.197,0.42-0.298,0.689-0.3h5.906c0.269,0.002,0.499,0.103,0.689,0.3
		c0.194,0.192,0.293,0.426,0.295,0.7c-0.002,0.273-0.101,0.507-0.295,0.7c-0.19,0.197-0.42,0.297-0.689,0.3H242.747z
		 M230.935,248.45c-0.27-0.003-0.5-0.103-0.689-0.3c-0.194-0.193-0.293-0.427-0.295-0.7c0.002-0.274,0.101-0.508,0.295-0.7
		c0.19-0.197,0.42-0.298,0.689-0.3h5.906c0.269,0.002,0.499,0.103,0.689,0.3c0.194,0.192,0.293,0.426,0.295,0.7
		c-0.002,0.273-0.101,0.507-0.295,0.7c-0.19,0.197-0.42,0.297-0.689,0.3H230.935z M219.122,248.45c-0.27-0.003-0.5-0.103-0.689-0.3
		c-0.194-0.193-0.293-0.427-0.295-0.7c0.002-0.274,0.101-0.508,0.295-0.7c0.19-0.197,0.42-0.298,0.689-0.3h5.906
		c0.269,0.002,0.499,0.103,0.689,0.3c0.194,0.192,0.293,0.426,0.295,0.7c-0.002,0.273-0.101,0.507-0.295,0.7
		c-0.19,0.197-0.42,0.297-0.689,0.3H219.122z M207.31,246.45h5.906c0.269,0.002,0.499,0.103,0.689,0.3
		c0.194,0.192,0.293,0.426,0.295,0.7c-0.002,0.273-0.101,0.507-0.295,0.7c-0.19,0.197-0.42,0.297-0.689,0.3h-5.906
		c-0.27-0.003-0.5-0.103-0.689-0.3c-0.194-0.193-0.293-0.427-0.295-0.7c0.002-0.274,0.101-0.508,0.295-0.7
		C206.81,246.553,207.04,246.452,207.31,246.45z M194.808,246.75c0.19-0.197,0.42-0.298,0.689-0.3h5.906
		c0.269,0.002,0.499,0.103,0.689,0.3c0.194,0.192,0.293,0.426,0.295,0.7c-0.002,0.273-0.101,0.507-0.295,0.7
		c-0.19,0.197-0.42,0.297-0.689,0.3h-5.906c-0.27-0.003-0.5-0.103-0.689-0.3c-0.194-0.193-0.293-0.427-0.295-0.7
		C194.515,247.176,194.613,246.942,194.808,246.75z"/>
</g>
</svg>
