<?xml version="1.0" encoding="utf-8"?>
<!-- Generator: Adobe Illustrator 15.1.0, SVG Export Plug-In . SVG Version: 6.00 Build 0)  -->
<!DOCTYPE svg PUBLIC "-//W3C//DTD SVG 1.1//EN" "http://www.w3.org/Graphics/SVG/1.1/DTD/svg11.dtd">
<svg version="1.1" id="Layer_1" xmlns="http://www.w3.org/2000/svg" xmlns:xlink="http://www.w3.org/1999/xlink" x="0px" y="0px"
	 width="448px" height="329.5px" viewBox="0 0 448 329.5" enable-background="new 0 0 448 329.5" xml:space="preserve">
<g>
	<g id="Layer_1_1_">
		<g>
			<g>
				<path fill-rule="evenodd" clip-rule="evenodd" fill="#FFCB67" d="M402.301,60.891v-0.05c-16.789-21-37.689-33.858-62.701-38.575
					V5.191c15.826,1.725,29.51,5.675,41.051,11.85c12.867,6.833,25.049,17.45,36.549,31.85h0.051
					c23.834,29.967,32.9,64.267,27.199,102.9v0.05c-6.1,38.533-25,68.483-56.699,89.849h-0.051
					c-3.916,2.588-8.107,4.912-12.574,6.976l46.426,64.425l-0.75,4.399c-1,3.167-2.75,5.367-5.25,6.601
					c-2.5,1.267-5.084,1.483-7.75,0.649l-3.25-1.649l-39.625-70.351c-0.736,0.259-1.479,0.509-2.227,0.75
					c-5.346,1.729-10.83,3.096-16.449,4.101c-1.979,0.35-3.969,0.658-5.975,0.925v-0.025c-2.203,0.526-5.346,0.826-9.426,0.9h-0.025
					c-13.414,0.81-25.838-0.373-37.273-3.55c-3.637-1.01-7.287-2.242-10.951-3.7v-14.075c3.461,1.174,7.027,2.199,10.701,3.075
					c29.898,7.1,57.816,2,83.75-15.3c27.166-18.334,43.316-43.967,48.449-76.9C430.467,115.841,422.732,86.491,402.301,60.891z"/>
				<g>
					<path fill-rule="evenodd" clip-rule="evenodd" fill="#FFCB67" d="M329.1,250.24c3.066,1,6.117,1.834,9.15,2.5l15.85,68.45
						l-1.949,3.101c-1.768,2.1-3.816,3.233-6.15,3.399c-2.367,0.167-4.434-0.5-6.199-2l-1.951-2.3l-7-61.05L329.1,250.24z"/>
				</g>
				<g>
					<path fill-rule="evenodd" clip-rule="evenodd" fill="#FFCB67" d="M276.227,244.072c2.021,2.877,4.147,5.631,6.381,8.263
						l-31.812,70.692l-3.856,1.423c-2.969,0.644-5.508,0.261-7.619-1.147c-2.173-1.407-3.535-3.365-4.086-5.875l-0.184-3.306
						l35.484-59.722L276.227,244.072z"/>
				</g>
			</g>
			<g>
				<path fill-rule="evenodd" clip-rule="evenodd" fill="#EC2024" d="M406.4,46.241h0.049c23.834,29.967,32.9,64.267,27.201,102.9
					v0.05c-6.1,38.534-25,68.483-56.701,89.85H376.9c-13.066,8.633-28.551,14.199-46.451,16.699
					c-17.166,2.367-33.066,1.517-47.699-2.55c-13.934-3.866-28.066-11-42.4-21.399c-14.232-10.367-24.683-21.017-31.35-31.95
					c-8.566-14.2-14.35-28.833-17.35-43.9c-3.033-15.167-3.267-30.983-0.7-47.45c5.1-33.733,19.95-60.917,44.55-81.55
					c12.166-10.233,26.033-17.35,41.6-21.35c12.4-3.233,26.383-4.55,41.951-3.95l4.35,0.4c18.133,1.367,33.617,5.483,46.449,12.35
					C382.717,21.225,394.9,31.841,406.4,46.241z M360.699,80.341l0.051-0.05c-13.334-16.633-30.449-25.75-51.35-27.35
					c-19.633-1.5-37.084,4.2-52.35,17.1c-14.734,12.333-23.551,28.15-26.451,47.45c-3,19.233,0.684,37.017,11.051,53.35
					c10.699,16.9,25.65,27.65,44.85,32.25c20.367,4.833,39.383,1.35,57.051-10.45c18.5-12.467,29.5-29.933,33-52.399
					C379.883,117.741,374.6,97.774,360.699,80.341z M336.5,98.291v-0.05c-8.4-10.3-19.166-15.95-32.301-16.95
					c-12.266-0.933-23.216,2.6-32.85,10.6c-9.232,7.6-14.75,17.383-16.549,29.35c-1.867,11.967,0.433,23.017,6.899,33.15
					c6.8,10.5,16.216,17.167,28.249,20c12.801,3.033,24.75,0.917,35.852-6.35c11.566-7.767,18.432-18.6,20.6-32.5
					C348.5,121.574,345.199,109.158,336.5,98.291z M327.199,79.741c5.467,2.9,10.668,7.4,15.602,13.5h0.049
					c10.234,12.7,14.133,27.217,11.701,43.55c-2.602,16.267-10.684,28.883-24.25,37.85h-0.051c-5.533,3.7-12.133,6.067-19.801,7.101
					c-7.332,1-14.133,0.649-20.398-1.051c-5.967-1.666-12.018-4.716-18.15-9.149c-6.066-4.367-10.533-8.867-13.4-13.5
					c-3.666-5.967-6.15-12.133-7.449-18.5c-1.301-6.433-1.418-13.133-0.351-20.1c2.167-14.233,8.517-25.7,19.05-34.4
					c5.166-4.333,11.084-7.367,17.75-9.1c5.301-1.3,11.301-1.816,18-1.55l1.85,0.15C315.084,75.174,321.699,76.908,327.199,79.741z
					 M224.6,146.891c-2.033-10.367-2.2-21.15-0.5-32.35c3.466-22.933,13.583-41.433,30.35-55.5c8.3-7,17.75-11.867,28.351-14.6
					c8.432-2.233,17.967-3.133,28.6-2.7l2.949,0.3c12.334,0.967,22.867,3.783,31.6,8.45c8.801,4.667,17.102,11.883,24.9,21.65h0.051
					c16.232,20.433,22.383,43.8,18.449,70.1v0.05c-4.066,26.167-16.934,46.533-38.6,61.1h-0.051c-8.865,5.9-19.398,9.7-31.6,11.4
					c-11.666,1.666-22.482,1.116-32.449-1.65c-9.467-2.7-19.084-7.583-28.85-14.649c-9.701-7.033-16.817-14.267-21.351-21.7
					C230.617,167.124,226.666,157.158,224.6,146.891z M391.5,58.241v-0.05c-19.533-24.433-44.633-37.85-75.301-40.25
					c-28.898-2.133-54.533,6.267-76.898,25.2h-0.051c-21.633,18.1-34.6,41.333-38.9,69.7c-4.333,28.267,1.083,54.367,16.25,78.299
					c15.701,24.833,37.667,40.616,65.9,47.35c29.9,7.101,57.816,2,83.75-15.3c27.166-18.333,43.316-43.966,48.449-76.899
					C419.666,113.191,411.934,83.841,391.5,58.241z M301.15,110.041c4.832,0.434,8.766,2.517,11.799,6.25
					c3.102,3.767,4.418,8.083,3.951,12.95c-0.5,4.933-2.633,8.967-6.4,12.1c-3.768,3.167-8.066,4.533-12.9,4.1
					c-4.799-0.4-8.75-2.466-11.85-6.2c-3.033-3.733-4.3-8.067-3.8-13c0.466-4.867,2.55-8.883,6.249-12.05
					C292.033,111.024,296.35,109.641,301.15,110.041z"/>
				<path fill-rule="evenodd" clip-rule="evenodd" fill="#E3E3E3" d="M391.5,58.241c20.434,25.6,28.166,54.95,23.199,88.05
					c-5.133,32.934-21.283,58.566-48.449,76.899c-25.934,17.3-53.85,22.4-83.75,15.3c-28.233-6.733-50.199-22.517-65.9-47.35
					c-15.167-23.933-20.583-50.033-16.25-78.299c4.3-28.367,17.267-51.6,38.9-69.7h0.051c22.365-18.933,48-27.333,76.898-25.2
					c30.668,2.4,55.768,15.817,75.301,40.25V58.241z M224.6,146.891c2.066,10.267,6.017,20.233,11.85,29.9
					c4.533,7.434,11.649,14.667,21.351,21.7c9.766,7.066,19.383,11.949,28.85,14.649c9.967,2.767,20.783,3.316,32.449,1.65
					c12.201-1.7,22.734-5.5,31.6-11.4h0.051c21.666-14.566,34.533-34.933,38.6-61.1v-0.05c3.934-26.3-2.217-49.667-18.449-70.1
					h-0.051c-7.799-9.767-16.1-16.983-24.9-21.65c-8.732-4.667-19.266-7.483-31.6-8.45l-2.949-0.3
					c-10.633-0.434-20.168,0.467-28.6,2.7c-10.601,2.733-20.051,7.6-28.351,14.6c-16.767,14.067-26.884,32.567-30.35,55.5
					C222.4,125.741,222.567,136.524,224.6,146.891z M327.199,79.741c-5.5-2.833-12.115-4.567-19.85-5.2l-1.85-0.15
					c-6.699-0.267-12.699,0.25-18,1.55c-6.666,1.733-12.584,4.767-17.75,9.1c-10.533,8.7-16.883,20.167-19.05,34.4
					c-1.067,6.967-0.95,13.667,0.351,20.1c1.299,6.367,3.783,12.533,7.449,18.5c2.867,4.633,7.334,9.133,13.4,13.5
					c6.133,4.434,12.184,7.483,18.15,9.149c6.266,1.7,13.066,2.051,20.398,1.051c7.668-1.033,14.268-3.4,19.801-7.101h0.051
					c13.566-8.967,21.648-21.583,24.25-37.85c2.432-16.333-1.467-30.85-11.701-43.55h-0.049
					C337.867,87.141,332.666,82.641,327.199,79.741z M336.5,98.291c8.699,10.867,12,23.283,9.9,37.25
					c-2.168,13.9-9.033,24.733-20.6,32.5c-11.102,7.267-23.051,9.383-35.852,6.35c-12.033-2.833-21.449-9.5-28.249-20
					c-6.467-10.133-8.767-21.183-6.899-33.15c1.799-11.967,7.316-21.75,16.549-29.35c9.634-8,20.584-11.533,32.85-10.6
					c13.135,1,23.9,6.65,32.301,16.95V98.291z M360.699,80.341c13.9,17.433,19.184,37.4,15.852,59.9
					c-3.5,22.467-14.5,39.933-33,52.399c-17.668,11.8-36.684,15.283-57.051,10.45c-19.199-4.6-34.15-15.35-44.85-32.25
					c-10.367-16.333-14.051-34.116-11.051-53.35c2.9-19.3,11.717-35.117,26.451-47.45c15.266-12.9,32.717-18.6,52.35-17.1
					c20.9,1.6,38.016,10.717,51.35,27.35L360.699,80.341z M301.15,110.041c-4.801-0.4-9.117,0.983-12.951,4.15
					c-3.699,3.167-5.783,7.184-6.249,12.05c-0.5,4.933,0.767,9.267,3.8,13c3.1,3.733,7.051,5.8,11.85,6.2
					c4.834,0.434,9.133-0.933,12.9-4.1c3.768-3.133,5.9-7.167,6.4-12.1c0.467-4.867-0.85-9.184-3.951-12.95
					C309.916,112.558,305.982,110.475,301.15,110.041z"/>
			</g>
			<g>
				<g>
					
						<line fill-rule="evenodd" clip-rule="evenodd" fill="none" stroke="#FFCB67" stroke-width="7.75" stroke-linecap="round" stroke-linejoin="round" stroke-miterlimit="3" x1="10.45" y1="168.341" x2="193.1" y2="140.491"/>
				</g>
				<g>
					<path fill-rule="evenodd" clip-rule="evenodd" fill="#CCCBCB" d="M235.008,133.792l-46.255,7.241l-7.395-13.695
						c3.381-0.205,10.655,0.473,21.824,2.034C214.35,130.932,224.959,132.405,235.008,133.792z"/>
					<polygon fill-rule="evenodd" clip-rule="evenodd" fill="#676767" points="188.752,141.033 235.008,133.792 189.096,157.079 
											"/>
				</g>
				<g>
					<path fill-rule="evenodd" clip-rule="evenodd" fill="#EC2024" d="M40.75,182.291c-3.767,1.833-14.3,3.7-31.6,5.6l15.85-18.1
						l35.3-5.35c-2.9,2.733-5.934,5.933-9.1,9.6C48.033,177.641,44.55,180.391,40.75,182.291z"/>
				</g>
				<g>
					<path fill-rule="evenodd" clip-rule="evenodd" fill="#EC2024" d="M47.1,150.641c4.1,2.567,7.933,4.717,11.5,6.45l-35.25,5.35
						L3,149.391c16.967-3.033,27.533-4.217,31.7-3.55C38.9,146.508,43.033,148.108,47.1,150.641z"/>
				</g>
			</g>
		</g>
	</g>
	<g id="Layer_2">
	</g>
</g>
</svg>
