<svg xmlns="http://www.w3.org/2000/svg" width="165.5" height="56.5" viewBox="0 0 165.5 56.5"><g stroke="#676767" stroke-miterlimit="10" fill="none"><path d="M140.02 49.801v2.699h-2.7"/><path stroke-dasharray="5.6212,5.6212" d="M131.699 52.5h-120.857"/><path d="M8.031 52.5h-2.698v-2.699"/><path stroke-dasharray="5.8387,5.8387" d="M5.333 43.961v-32.111"/><path d="M5.333 8.93v-2.7h2.698"/><path stroke-dasharray="5.6212,5.6212" d="M13.653 6.23h120.856"/><path d="M137.32 6.23h2.7v2.7"/><path stroke-dasharray="5.8387,5.8387" d="M140.02 14.768v32.113"/></g><path fill="none" d="M2.676 11.996h138v46.738h-138z"/><path d="M45.445 23.725v-9.047h-3.619v9.047h-2.059v-10.848h7.736v10.848h-2.058zM57.05 19.359c0 .773-.109 1.443-.328 2.008-.218.564-.522 1.033-.913 1.408-.39.373-.851.65-1.382.83-.531.18-1.109.27-1.735.27-.21 0-.42-.014-.631-.041-.21-.029-.401-.064-.573-.109v3.297h-2.025v-11.73h1.751l.05 1.246c.171-.217.35-.412.536-.59.185-.178.386-.328.602-.453.216-.123.448-.219.697-.285s.528-.1.838-.1c.498 0 .941.1 1.328.299.387.199.712.482.975.85.263.369.464.814.602 1.338.138.52.208 1.108.208 1.762zm-2.125.082c0-.465-.033-.859-.1-1.186-.066-.328-.162-.596-.286-.807-.125-.209-.277-.363-.457-.461-.18-.096-.386-.145-.618-.145-.343 0-.671.139-.983.416-.313.275-.644.652-.992 1.129v3.686c.161.061.358.109.594.148.235.039.474.059.718.059.321 0 .613-.066.876-.199s.487-.322.672-.564c.186-.244.328-.541.428-.893.1-.352.148-.745.148-1.183zM66.405 19.441c0 .664-.094 1.271-.282 1.822-.188.551-.459 1.023-.813 1.416-.354.393-.789.697-1.303.912-.515.217-1.101.324-1.76.324-.625 0-1.184-.092-1.677-.273-.493-.184-.91-.455-1.253-.818-.343-.361-.606-.816-.789-1.361-.183-.545-.274-1.18-.274-1.904 0-.67.095-1.279.287-1.826.19-.549.465-1.016.821-1.402.357-.389.793-.689 1.308-.902.515-.213 1.096-.318 1.743-.318.631 0 1.192.092 1.685.277.493.185.91.461 1.253.826.343.365.604.818.784 1.357.18.538.27 1.163.27 1.87zm-2.109.051c0-.875-.165-1.531-.494-1.973-.33-.439-.815-.658-1.457-.658-.354 0-.656.068-.905.207-.249.139-.454.328-.614.568-.16.24-.278.521-.353.842-.074.322-.112.664-.112 1.029 0 .881.177 1.543.531 1.988.354.445.838.668 1.453.668.337 0 .631-.066.88-.203.249-.135.451-.324.606-.564.155-.24.271-.523.349-.85.078-.327.116-.679.116-1.054zM75.992 25.85h-1.868v-2.125h-6.151v-8.434h1.992v6.732h3.138v-6.732h1.992v6.732h1.005l-.108 3.827zM84.85 18.861l-.013.539-.038.623h-5.545c0 .371.057.697.17.979.113.283.273.52.481.711.207.189.456.336.747.436.29.1.613.148.967.148.41 0 .848-.031 1.315-.096.468-.063.955-.166 1.457-.311v1.611c-.216.061-.451.115-.705.166-.254.049-.516.094-.781.133-.266.037-.534.066-.805.086-.271.02-.534.029-.789.029-.642 0-1.217-.092-1.727-.273-.509-.184-.941-.453-1.295-.811-.354-.355-.625-.797-.813-1.322-.188-.527-.282-1.135-.282-1.826 0-.688.094-1.311.282-1.873.188-.561.454-1.043.797-1.443.343-.402.759-.711 1.25-.93.489-.219 1.036-.328 1.639-.328.598 0 1.126.092 1.585.277.459.185.844.445 1.153.777.311.332.545.727.707 1.186.161.459.243.964.243 1.512zm-2.059-.291c.005-.332-.036-.621-.125-.867s-.209-.449-.361-.609c-.152-.162-.329-.281-.531-.357-.202-.078-.419-.117-.651-.117-.509 0-.927.17-1.253.512-.327.34-.52.82-.581 1.439l3.502-.001zM93.673 23.402c-.397.16-.812.279-1.237.355-.426.078-.871.117-1.336.117-.668 0-1.27-.092-1.801-.273-.531-.184-.982-.455-1.354-.814-.37-.359-.653-.805-.85-1.336-.197-.531-.296-1.146-.296-1.844 0-.674.106-1.285.319-1.834.213-.547.514-1.016.9-1.402.388-.389.854-.688 1.399-.896.545-.211 1.151-.316 1.822-.316.548 0 1.008.029 1.382.088.373.059.709.131 1.008.221v1.967c-.343-.172-.715-.305-1.117-.398-.4-.094-.781-.141-1.141-.141-.376 0-.714.063-1.014.189-.299.126-.551.305-.754.531-.205.226-.361.502-.469.826-.109.324-.162.68-.162 1.066 0 .404.058.768.174 1.088.115.32.281.594.494.818.213.223.469.395.768.514.299.119.631.18.996.18.177 0 .363-.014.56-.039.197-.023.394-.061.591-.107.195-.047.389-.102.58-.162.19-.061.369-.127.535-.199l.003 1.801zM103.02 23.402c-.397.16-.811.279-1.236.355-.426.078-.872.117-1.336.117-.67 0-1.27-.092-1.801-.273-.531-.184-.982-.455-1.354-.814s-.654-.805-.852-1.336c-.196-.531-.295-1.146-.295-1.844 0-.674.106-1.285.319-1.834.214-.547.515-1.016.901-1.402.387-.389.854-.688 1.398-.896.545-.211 1.152-.316 1.822-.316.549 0 1.008.029 1.383.088.372.059.709.131 1.008.221v1.967c-.344-.172-.715-.305-1.117-.398-.401-.094-.781-.141-1.141-.141-.377 0-.715.063-1.014.189s-.551.305-.755.531c-.204.226-.361.502-.47.826-.107.324-.162.68-.162 1.066 0 .404.059.768.175 1.088.116.32.28.594.493.818.214.223.47.395.769.514.3.119.632.18.996.18.177 0 .364-.014.56-.039.197-.023.394-.061.59-.107.197-.047.391-.102.582-.162.189-.061.369-.127.535-.199v1.801h.002zM64.711 44.125l-.598-2.141h-3.785l-.614 2.141h-2.025l3.212-10.848h2.855l3.212 10.848h-2.257zm-2.465-8.855l-1.428 5.047h2.839l-1.411-5.047zM73.685 44.125l-2.092-3.992-2.059 3.992h-2.465l3.129-5.561-2.922-5.287h2.399l1.967 3.775 1.901-3.775h2.399l-2.905 5.287 3.246 5.561h-2.598zM85.389 38.656c0 .984-.115 1.834-.345 2.547-.229.715-.545 1.301-.946 1.76-.4.459-.871.801-1.411 1.021-.539.221-1.116.332-1.73.332-1.428 0-2.501-.476-3.221-1.424-.72-.949-1.079-2.328-1.079-4.138 0-.985.115-1.836.345-2.549.229-.716.545-1.302.946-1.761.401-.459.871-.801 1.411-1.021.539-.221 1.116-.331 1.73-.331 1.428 0 2.501.473 3.222 1.42.718.947 1.078 2.328 1.078 4.144zm-2.159.1c0-1.285-.171-2.242-.515-2.873-.344-.631-.908-.945-1.693-.945-.393 0-.728.08-1.004.244-.277.162-.505.402-.685.719-.18.314-.311.703-.394 1.166-.083.461-.125.992-.125 1.59 0 1.283.173 2.24.519 2.871.346.632.909.947 1.689.947.393 0 .729-.082 1.009-.246.279-.162.507-.401.685-.717.177-.316.307-.705.39-1.168.083-.461.124-.99.124-1.588z"/></svg>