<svg xmlns="http://www.w3.org/2000/svg" width="165.5" height="56" viewBox="0 0 165.5 56"><path fill="#8F8F8E" stroke="#676767" stroke-miterlimit="10" d="M138.747 53.329l-113.34.002-22.407-22.448 22.512-26.057 113.34.001 22.494 22.634z"/><path fill="none" d="M13.75 21.359h138v17.438h-138z"/><path fill="#fff" d="M58.371 32.666c-.481.193-.948.336-1.399.432-.451.094-.92.141-1.407.141-.78 0-1.471-.114-2.071-.346-.601-.229-1.107-.57-1.52-1.022-.412-.455-.725-1.019-.938-1.688-.213-.675-.32-1.455-.32-2.347 0-.912.116-1.725.349-2.436s.564-1.313.996-1.803c.432-.488.956-.863 1.573-1.119.617-.258 1.311-.387 2.08-.387.249 0 .483.006.702.018.218.01.433.031.643.061.21.031.423.072.639.121.216.051.44.113.672.191v2.025c-.47-.223-.918-.379-1.345-.473-.426-.096-.813-.143-1.162-.143-.515 0-.955.094-1.32.279-.365.185-.666.445-.9.779-.235.336-.408.734-.519 1.195-.111.463-.166.971-.166 1.523 0 .586.057 1.111.17 1.572.113.463.289.854.527 1.176.238.32.542.564.913.734.371.168.811.254 1.32.254.183 0 .38-.021.594-.055.213-.037.429-.084.647-.142.218-.06.434-.129.647-.209s.411-.16.593-.244v1.913h.002zM68.132 28.805c0 .664-.094 1.271-.282 1.822s-.459 1.023-.813 1.416-.789.697-1.303.912c-.515.217-1.101.324-1.76.324-.625 0-1.184-.092-1.677-.273-.493-.184-.91-.455-1.253-.818-.343-.36-.606-.815-.789-1.36-.183-.546-.274-1.181-.274-1.904 0-.67.095-1.279.287-1.826.19-.549.465-1.016.821-1.402.357-.389.793-.689 1.308-.902s1.096-.318 1.743-.318c.631 0 1.192.092 1.685.277.493.185.91.461 1.253.826.343.365.604.818.784 1.357.18.537.27 1.162.27 1.869zm-2.108.05c0-.875-.165-1.532-.494-1.974-.33-.439-.815-.658-1.457-.658-.354 0-.656.068-.905.207-.249.14-.453.33-.614.57-.161.24-.278.521-.353.842-.074.322-.112.664-.112 1.029 0 .881.177 1.543.531 1.988s.838.668 1.453.668c.337 0 .631-.066.88-.203.249-.135.451-.324.606-.564.155-.24.271-.523.349-.85.077-.328.116-.68.116-1.055zM77.521 28.771c0 .592-.091 1.176-.274 1.752s-.448 1.065-.797 1.473c-.349.408-.777.723-1.287.947-.51.224-1.09.336-1.743.336-.647 0-1.213-.104-1.697-.311-.484-.21-.889-.527-1.212-.955-.324-.431-.566-.976-.727-1.64-.161-.664-.241-1.453-.241-2.367 0-1.018.071-1.91.211-2.676.142-.768.392-1.42.751-1.959.36-.541.815-.961 1.366-1.262.55-.303 1.149-.512 1.797-.627.437-.077.777-.129 1.021-.153l.664-.063.66-.066c.241-.027.497-.069.768-.124v1.86c-.371.066-.884.127-1.54.186s-1.211.135-1.665.229c-.199.045-.389.107-.569.188-.18.08-.361.195-.543.348-.182.153-.34.34-.473.561-.133.221-.234.434-.303.639s-.132.414-.187.627c-.055.213-.097.416-.125.611.144-.199.328-.393.552-.578.225-.186.454-.336.689-.451.235-.117.489-.209.764-.279.273-.068.577-.104.909-.104.493 0 .939.09 1.34.27.401.18.745.439 1.029.777.285.336.5.748.644 1.236.146.486.218 1.011.218 1.575zm-2.092.067c0-1.482-.528-2.225-1.585-2.225-.398 0-.785.137-1.158.412-.374.273-.74.635-1.1 1.082v.084c0 .592.04 1.107.121 1.547.08.441.202.807.365 1.096.163.291.365.496.605.615.241.119.524.178.851.178.586 0 1.05-.248 1.39-.742.341-.496.511-1.178.511-2.047zM81.148 27.818c.614 0 1.139.066 1.573.199.435.133.779.313 1.034.543.254.229.438.504.552.821.113.318.17.662.17 1.033 0 .433-.067.819-.203 1.166-.135.347-.344.642-.627.885-.281.242-.646.431-1.091.56-.445.131-.967.195-1.564.195-.398 0-.81-.019-1.232-.054-.424-.037-.81-.08-1.158-.129v-8.385h1.898v3.197l.332-.025.316-.006zm-.017 3.975c.454 0 .783-.102.988-.307s.307-.547.307-1.029c0-.148-.02-.301-.058-.453-.038-.152-.106-.285-.203-.402-.097-.115-.23-.205-.398-.266-.169-.061-.386-.09-.652-.09l-.324.008-.291.025v2.465c.211.033.421.049.631.049zm3.869 1.295v-8.434h1.9v8.434h-1.9zM93.126 26.357v6.73h-2.06v-6.73h-2.938v-1.703h7.936v1.703h-2.938zM103.079 33.088v-5.27h-.017l-3.33 5.27h-1.916v-8.434h1.992v5.271h.017l3.319-5.271h1.926v8.434h-1.991zM107.785 30.689c.171-.394.379-.681.623-.859.244-.18.494-.295.755-.344-.276-.045-.53-.127-.761-.246-.229-.119-.426-.271-.592-.459-.166-.189-.295-.404-.387-.648-.091-.244-.137-.512-.137-.805 0-.504.09-.934.27-1.291s.447-.648.801-.871c.354-.225.795-.389 1.324-.49.529-.104 1.143-.154 1.84-.154.486 0 .971.012 1.453.033.48.023.959.057 1.436.1v8.434h-1.984v-3.096h-.797c-.244 0-.46.021-.652.06-.189.038-.365.1-.521.182-.158.084-.296.199-.415.35-.119.148-.209.314-.271.498l-.729 2.008h-2.274l1.018-2.402zm1.645-3.394c0 .238.045.434.137.59.092.154.226.279.402.373.178.094.396.16.656.199s.559.059.896.059h.904v-2.449c-.16-.018-.324-.027-.494-.029l-.543-.004c-.787 0-1.31.105-1.57.314-.259.211-.388.525-.388.947z"/></svg>