<svg xmlns="http://www.w3.org/2000/svg" width="165.5" height="57" viewBox="0 0 165.5 57"><path fill="#EB2227" d="M139.072 51.876h-135.832v-48.502h135.938l22.493 22.633z"/><path fill="none" d="M3.24 20.562h138v17.438h-138z"/><path fill="#fff" d="M32.563 32.292l-.598-2.142h-3.785l-.614 2.142h-2.026l3.212-10.849h2.855l3.212 10.849h-2.256zm-2.466-8.857l-1.428 5.047h2.839l-1.411-5.047zM41.262 32.292l-3.171-4.217v4.217h-1.992v-8.434h1.992v3.569l2.988-3.569h2.499l-3.42 3.843 3.702 4.591h-2.598zM49.903 25.56v6.731h-2.059v-6.731h-2.938v-1.702h7.936v1.702h-2.939zM59.855 32.292v-5.271h-.017l-3.329 5.271h-1.917v-8.434h1.992v5.271h.017l3.32-5.271h1.926v8.434h-1.992zM67.26 32.441c-.564 0-1.122-.021-1.673-.063-.55-.041-1.103-.104-1.656-.187v-8.251c1.167-.155 2.335-.232 3.503-.232 1.273 0 2.208.176 2.806.527.598.351.896.867.896 1.548 0 .222-.032.436-.095.644-.064.207-.162.398-.295.572-.133.175-.299.335-.498.481-.199.146-.437.265-.714.353.277.033.537.1.78.199s.458.23.644.391c.185.16.332.355.439.585.108.229.162.485.162.77 0 .906-.367 1.578-1.1 2.013-.732.434-1.799.65-3.199.65zm1.784-6.283c0-.311-.136-.544-.407-.702-.271-.157-.675-.236-1.212-.236-.337 0-.617.004-.838.013-.221.008-.443.026-.664.054v1.959h1.436c.354 0 .631-.026.83-.079s.361-.124.485-.216c.125-.091.217-.204.278-.34.061-.136.092-.287.092-.453zm-1.527 4.756c.625 0 1.096-.105 1.411-.314.315-.211.473-.496.473-.854 0-.345-.149-.61-.448-.802-.299-.19-.78-.286-1.444-.286h-1.585v2.142c.266.045.523.075.772.092.248.014.522.022.821.022zM78.565 32.292v-3.553h-3.279v3.553h-1.992v-8.434h1.992v3.163h3.279v-3.163h1.984v8.434h-1.984zM90.336 28.008c0 .664-.094 1.271-.281 1.822-.188.551-.459 1.021-.813 1.415s-.789.696-1.304.913c-.514.216-1.101.322-1.76.322-.625 0-1.184-.09-1.677-.272s-.91-.455-1.253-.817c-.343-.361-.606-.815-.789-1.361-.183-.545-.274-1.18-.274-1.904 0-.67.096-1.278.286-1.826.191-.548.465-1.016.822-1.402.355-.388.792-.688 1.307-.901.516-.213 1.096-.319 1.743-.319.632 0 1.192.093 1.685.278.494.185.91.46 1.254.825.343.365.604.818.785 1.357.179.538.269 1.162.269 1.87zm-2.107.05c0-.874-.166-1.531-.494-1.972-.33-.439-.814-.659-1.457-.659-.354 0-.656.068-.905.207-.249.139-.454.328-.614.568-.16.241-.277.521-.354.843-.074.321-.111.664-.111 1.029 0 .88.178 1.543.531 1.989.354.444.838.668 1.453.668.336 0 .631-.067.88-.203.249-.137.45-.324.606-.564.154-.24.271-.523.348-.852.077-.326.117-.678.117-1.054zM98.911 31.969c-.397.159-.812.278-1.237.355-.426.076-.871.115-1.336.115-.669 0-1.27-.092-1.801-.272-.531-.185-.982-.454-1.354-.813s-.654-.806-.851-1.336c-.196-.531-.294-1.146-.294-1.844 0-.675.105-1.286.32-1.835.213-.547.513-1.015.899-1.402.388-.387.854-.687 1.398-.896.545-.21 1.153-.315 1.821-.315.549 0 1.01.029 1.383.087.373.059.709.132 1.009.221v1.966c-.343-.172-.716-.305-1.116-.398-.4-.094-.781-.141-1.143-.141-.375 0-.713.063-1.012.19-.3.127-.552.305-.756.531-.203.226-.361.502-.469.826-.107.323-.162.679-.162 1.066 0 .404.059.767.174 1.087.116.321.281.594.494.817.213.225.469.396.768.516.3.119.631.179.996.179.178 0 .364-.013.562-.038.196-.023.394-.061.589-.107.197-.047.391-.102.581-.161.19-.062.37-.128.536-.199l.001 1.801zM105.982 25.56v6.731h-2.059v-6.731h-2.938v-1.702h7.936v1.702h-2.939zM114.508 26.855c.752 0 1.385.07 1.896.211.512.142.926.336 1.24.586.315.248.551.535.707.858.154.324.231.666.231 1.025 0 .426-.088.816-.267 1.171-.176.354-.438.659-.784.917-.347.257-.774.458-1.286.602-.512.145-1.193.217-2.046.217-.454 0-1.019-.019-1.693-.055-.675-.035-1.262-.084-1.76-.146v-8.383h1.976v3.046l.838-.037c.284-.008.599-.012.948-.012zm.008 4.025c.664 0 1.151-.122 1.461-.364.311-.244.465-.537.465-.881 0-.177-.032-.338-.1-.48-.066-.143-.177-.271-.332-.378-.154-.107-.369-.194-.643-.261-.274-.066-.666-.1-1.176-.1-.271 0-.53.005-.779.016-.249.012-.479.028-.689.051v2.282c.221.033.473.062.756.084.281.02.626.031 1.037.031z"/></svg>