<svg xmlns="http://www.w3.org/2000/svg" width="165.5" height="57" viewBox="0 0 165.5 57"><linearGradient id="a" gradientUnits="userSpaceOnUse" x1="-86.439" y1="115.59" x2="71.992" y2="115.59" gradientTransform="matrix(1 0 0 -1 91.1 144.4)"><stop offset=".145" stop-color="#fff"/><stop offset="1" stop-color="#EB2227"/></linearGradient><path fill="url(#a)" stroke="#676767" stroke-miterlimit="10" d="M140.494 53.061h-135.833l22.918-25.868-22.918-22.632h135.937l22.494 22.632z"/><path fill="none" d="M3.347 20.646h138v17.438h-138z"/><path d="M46.116 32.377v-9.049h-3.619v9.049h-2.059v-10.85h7.736v10.85h-2.058zM57.721 28.01c0 .775-.109 1.445-.328 2.009-.218.564-.522 1.033-.913 1.406-.39.373-.851.65-1.382.83-.531.18-1.109.27-1.735.27-.21 0-.42-.014-.631-.041-.211-.026-.401-.063-.573-.106v3.295h-2.025v-11.73h1.751l.05 1.244c.171-.215.35-.412.536-.59.185-.176.386-.326.602-.451.216-.125.448-.221.697-.287s.528-.1.838-.1c.498 0 .941.1 1.328.299.387.199.712.482.975.852.263.367.464.813.602 1.336.138.523.208 1.111.208 1.764zm-2.125.084c0-.465-.033-.861-.1-1.188-.067-.327-.162-.596-.286-.805-.125-.211-.277-.365-.457-.461-.18-.098-.386-.146-.618-.146-.343 0-.671.139-.983.416-.313.277-.644.652-.992 1.129v3.686c.161.062.358.111.594.148.235.039.474.059.718.059.321 0 .613-.065.876-.199.263-.133.487-.319.672-.563.186-.241.328-.541.428-.894.1-.352.148-.745.148-1.182zM67.076 28.094c0 .664-.094 1.271-.282 1.822s-.459 1.021-.813 1.414-.789.697-1.303.914c-.515.215-1.101.322-1.76.322-.625 0-1.184-.09-1.677-.273-.493-.182-.91-.455-1.253-.816-.343-.363-.606-.815-.789-1.36-.183-.546-.274-1.182-.274-1.906 0-.67.095-1.277.287-1.826.19-.547.465-1.016.821-1.402.357-.387.793-.688 1.308-.9.515-.212 1.096-.32 1.743-.32.631 0 1.192.094 1.685.279s.91.459 1.253.824c.343.365.604.818.784 1.357.18.539.27 1.162.27 1.871zm-2.109.049c0-.873-.165-1.531-.494-1.971-.33-.439-.815-.66-1.457-.66-.354 0-.656.068-.905.207-.249.139-.454.328-.614.568-.161.242-.278.521-.353.844-.074.32-.112.664-.112 1.029 0 .879.177 1.543.531 1.988s.838.668 1.453.668c.337 0 .631-.068.88-.203.249-.137.451-.324.606-.564.155-.242.271-.525.349-.852.078-.327.116-.677.116-1.054zM76.663 34.502h-1.868v-2.125h-6.151v-8.434h1.992v6.73h3.138v-6.73h1.992v6.73h1.004l-.107 3.829zM85.52 27.512l-.012.539-.037.623h-5.546c0 .371.057.697.17.98.113.281.273.518.481.709.207.191.456.336.747.436.29.1.613.15.967.15.41 0 .848-.033 1.315-.096.467-.064.953-.168 1.457-.313v1.61c-.217.062-.451.115-.707.166-.254.049-.515.095-.779.134-.266.038-.534.067-.805.088s-.534.026-.789.026c-.642 0-1.217-.09-1.727-.272-.509-.183-.941-.451-1.295-.81-.354-.357-.625-.799-.813-1.323-.188-.525-.282-1.136-.282-1.826 0-.686.094-1.311.282-1.871.188-.563.454-1.043.797-1.445.343-.4.759-.711 1.25-.93.489-.219 1.036-.328 1.639-.328.598 0 1.126.094 1.585.279s.844.443 1.154.775c.31.332.545.729.705 1.188.162.459.243.964.243 1.511zm-2.059-.291c.005-.332-.036-.621-.125-.867s-.209-.449-.361-.609c-.152-.16-.329-.279-.531-.357-.202-.076-.419-.115-.651-.115-.509 0-.927.17-1.253.51-.326.34-.52.82-.581 1.439l3.502-.001zM94.344 32.053c-.398.16-.811.279-1.236.357-.426.076-.873.115-1.336.115-.67 0-1.271-.092-1.801-.273-.531-.184-.982-.453-1.354-.814-.371-.358-.654-.805-.852-1.336s-.295-1.145-.295-1.841c0-.676.106-1.287.319-1.836.213-.547.515-1.014.901-1.402.387-.387.854-.686 1.398-.896.545-.209 1.152-.314 1.822-.314.548 0 1.008.029 1.382.086.373.059.709.133 1.009.221v1.967c-.344-.172-.716-.305-1.117-.398-.401-.094-.781-.141-1.142-.141-.376 0-.714.064-1.013.191s-.551.305-.756.531c-.203.226-.36.502-.469.826-.107.322-.162.678-.162 1.066 0 .404.059.766.174 1.086.117.321.281.594.494.817.213.226.47.396.769.517s.631.179.996.179c.177 0 .364-.013.56-.037.197-.025.393-.062.59-.107.196-.047.391-.102.582-.162.189-.061.369-.127.535-.199v1.797h.002zM103.689 32.053c-.397.16-.811.279-1.236.357-.426.076-.872.115-1.336.115-.67 0-1.27-.092-1.801-.273-.531-.184-.982-.453-1.354-.814-.371-.358-.654-.805-.852-1.336-.196-.531-.295-1.145-.295-1.841 0-.676.106-1.287.32-1.836.213-.547.514-1.014.9-1.402.387-.387.854-.686 1.398-.896.545-.209 1.152-.314 1.822-.314.549 0 1.008.029 1.383.086.373.059.709.133 1.008.221v1.967c-.344-.172-.715-.305-1.117-.398-.401-.094-.781-.141-1.141-.141-.377 0-.715.064-1.014.191s-.551.305-.755.531-.36.502-.47.826c-.107.322-.161.678-.161 1.066 0 .404.058.766.174 1.086.116.321.28.594.494.817.213.226.469.396.769.517.299.12.631.179.995.179.177 0 .364-.013.56-.037.197-.025.394-.062.591-.107.196-.047.39-.102.581-.162.189-.061.369-.127.535-.199v1.797h.002z"/></svg>