<svg xmlns="http://www.w3.org/2000/svg" width="145.833" height="64" viewBox="0 0 145.833 64"><path fill="#F1F2F2" stroke="#676767" stroke-miterlimit="10" d="M3.872 6.248h137.509v52.918h-137.509z"/><path stroke="#676767" stroke-miterlimit="10" fill="none" d="M13.017 6.248v52.918M131.706 6.248v52.918"/><path fill="none" d="M3.628 23.988h138v17.438h-138z"/><path d="M37.739 35.717l-.199-6.134-.074-2.449-.523 1.66-1.203 3.693h-1.28l-1.087-3.693-.456-1.66-.059 2.398-.183 6.185h-1.735l.531-10.849h2.309l.954 3.079.456 1.735.457-1.636 1.004-3.179h2.35l.539 10.849-1.801.001zM48.381 32.438c0 .591-.109 1.106-.327 1.542-.219.438-.525.799-.918 1.084-.393.285-.86.496-1.402.636-.543.139-1.135.206-1.777.206-.569 0-1.12-.032-1.651-.1-.531-.066-1.058-.177-1.577-.332v-2.017c.254.089.52.172.797.249.277.077.555.146.834.203.279.059.558.104.834.137.277.033.545.051.806.051.388 0 .717-.033.987-.1.271-.066.493-.158.664-.273.172-.117.297-.256.374-.416s.116-.338.116-.531c0-.266-.076-.487-.229-.667-.153-.18-.353-.339-.602-.478-.249-.139-.533-.263-.852-.374-.317-.11-.641-.229-.971-.356-.329-.127-.652-.271-.971-.432-.319-.161-.602-.359-.852-.598-.248-.238-.449-.521-.602-.851s-.229-.727-.229-1.191c0-.426.078-.83.232-1.212.155-.382.398-.715.73-1 .332-.285.759-.512 1.279-.681s1.148-.254 1.884-.254c.216 0 .441.01.677.029l.697.075c.229.03.451.066.664.107l.585.129v1.868c-.177-.066-.37-.128-.581-.184-.211-.055-.428-.104-.652-.145-.223-.042-.449-.073-.676-.096s-.443-.033-.647-.033c-.36 0-.664.029-.913.087-.249.059-.453.139-.614.241-.161.102-.276.229-.349.377-.072.15-.107.316-.107.498 0 .228.076.423.229.586.151.163.354.31.605.439s.537.252.855.365c.317.113.645.235.979.365.335.13.662.278.98.444.317.166.603.368.854.606.252.237.455.519.607.842.154.329.23.712.23 1.155zM65.663 35.717l-.598-2.142h-3.785l-.614 2.142h-2.025l3.212-10.849h2.855l3.213 10.849h-2.258zm-2.465-8.857l-1.428 5.047h2.838l-1.41-5.047zM75.931 35.395c-.397.16-.812.278-1.236.355s-.87.116-1.336.116c-.67 0-1.271-.093-1.802-.272-.531-.185-.982-.455-1.353-.814s-.654-.805-.852-1.336c-.196-.531-.295-1.146-.295-1.843 0-.675.107-1.286.32-1.835.213-.547.514-1.015.9-1.402s.854-.687 1.398-.896c.544-.209 1.152-.315 1.822-.315.549 0 1.008.029 1.383.087.373.059.709.132 1.009.221v1.967c-.345-.172-.716-.305-1.117-.398-.399-.094-.78-.141-1.142-.141-.376 0-.713.063-1.012.19-.299.127-.551.305-.755.531-.205.227-.361.502-.469.826-.109.323-.162.679-.162 1.066 0 .404.058.767.174 1.087.116.321.281.594.494.818.213.224.469.396.768.515.299.119.631.179.996.179.178 0 .363-.013.562-.037.196-.024.394-.062.59-.107.194-.047.39-.102.58-.162s.369-.127.535-.199v1.801zM85.278 35.395c-.398.16-.811.278-1.236.355-.427.077-.873.116-1.338.116-.668 0-1.27-.093-1.801-.272-.531-.185-.982-.455-1.354-.814-.37-.359-.654-.805-.85-1.336-.197-.531-.296-1.146-.296-1.843 0-.675.104-1.286.318-1.835.214-.547.514-1.015.901-1.402s.854-.687 1.398-.896c.545-.21 1.152-.315 1.821-.315.548 0 1.009.029 1.382.087.373.059.71.132 1.009.221v1.967c-.343-.172-.716-.305-1.116-.398-.4-.094-.781-.141-1.142-.141-.376 0-.714.063-1.013.19s-.551.305-.756.531c-.205.227-.361.502-.47.826-.106.323-.161.679-.161 1.066 0 .404.059.767.174 1.087.117.321.28.594.494.818.213.224.469.396.769.515.299.119.631.179.995.179.178 0 .365-.013.561-.037.197-.024.395-.062.59-.107.197-.047.391-.102.582-.162.189-.061.369-.127.535-.199v1.801h.004zM95.147 30.853l-.012.539-.038.623h-5.545c0 .371.057.697.171.979.113.281.273.52.48.71s.457.336.748.437c.289.1.611.148.967.148.408 0 .848-.032 1.313-.096.47-.063.954-.168 1.457-.313v1.611c-.215.061-.451.115-.705.166-.254.049-.515.094-.78.133-.266.038-.533.066-.806.087-.271.021-.532.028-.788.028-.642 0-1.218-.092-1.727-.273-.51-.182-.94-.451-1.295-.811-.354-.355-.627-.797-.813-1.322-.188-.525-.282-1.135-.282-1.826 0-.687.096-1.311.282-1.872.187-.561.453-1.043.797-1.444.345-.401.761-.711 1.25-.93.488-.219 1.035-.328 1.64-.328.598 0 1.125.093 1.586.278.459.186.844.444 1.152.776s.545.728.706 1.187c.162.461.242.965.242 1.513zm-2.059-.291c.007-.332-.035-.621-.125-.867-.088-.246-.209-.449-.36-.609-.151-.161-.328-.28-.531-.357-.2-.077-.418-.116-.649-.116-.51 0-.928.17-1.254.511-.326.34-.521.82-.582 1.439l3.501-.001zM104.104 33.234c0 .48-.107.893-.32 1.232s-.494.617-.846.83-.75.368-1.195.465c-.445.098-.9.145-1.365.145-.621 0-1.18-.027-1.678-.086s-.969-.143-1.41-.254v-1.825c.521.216 1.039.372 1.556.469.518.097 1.006.146 1.466.146.531 0 .929-.084 1.189-.252.265-.17.396-.39.396-.66 0-.127-.026-.243-.082-.35-.056-.105-.16-.205-.313-.303-.15-.098-.364-.195-.643-.299-.277-.103-.639-.218-1.088-.345-.414-.116-.777-.248-1.092-.395-.313-.146-.57-.319-.775-.519-.205-.2-.357-.431-.461-.693-.102-.263-.152-.571-.152-.925 0-.344.076-.667.231-.972.155-.305.386-.571.692-.801.309-.229.69-.411 1.149-.544.459-.133.996-.199 1.61-.199.531 0 1.001.027 1.41.083.41.056.771.116 1.089.183v1.652c-.482-.155-.935-.265-1.357-.328s-.843-.096-1.258-.096-.748.074-1 .225c-.252.148-.378.356-.378.622 0 .127.023.241.075.341.049.1.147.196.295.29.146.094.351.192.612.295.265.103.61.214 1.043.336.486.139.896.286 1.229.444.332.157.6.336.803.535.2.199.346.426.436.681.088.256.132.546.132.872zM113.45 33.234c0 .48-.104.893-.318 1.232-.213.34-.495.617-.848.83-.352.213-.75.368-1.195.465-.444.098-.899.145-1.364.145-.619 0-1.179-.027-1.677-.086s-.969-.143-1.411-.254v-1.825c.52.216 1.038.372 1.557.469s1.007.146 1.466.146c.53 0 .928-.084 1.19-.252.263-.17.396-.39.396-.66 0-.127-.029-.243-.084-.35-.056-.105-.158-.205-.312-.303s-.367-.195-.644-.299c-.277-.103-.641-.218-1.088-.345-.416-.116-.779-.248-1.092-.395s-.572-.319-.775-.519c-.205-.2-.358-.431-.461-.693-.104-.263-.153-.571-.153-.925 0-.344.077-.667.231-.972.154-.305.387-.571.693-.801s.689-.411 1.148-.544c.461-.133.996-.199 1.61-.199.531 0 1.002.027 1.411.083.409.056.771.116 1.087.183v1.652c-.479-.155-.935-.265-1.356-.328s-.842-.096-1.258-.096c-.414 0-.748.074-1 .225-.252.148-.377.356-.377.622 0 .127.024.241.073.341.052.1.147.196.295.29.147.094.353.192.615.295.262.103.608.214 1.041.336.485.139.896.286 1.229.444.332.157.6.336.801.535.201.199.348.426.436.681.09.256.134.546.134.872z"/></svg>