<svg xmlns="http://www.w3.org/2000/svg" width="165.5" height="62.5" viewBox="0 0 165.5 62.5"><g stroke="#676767" stroke-miterlimit="10" fill="none"><path d="M139.348 50.682v2.697h-2.7"/><path stroke-dasharray="5.6212,5.6212" d="M131.025 53.379h-120.855"/><path d="M7.359 53.379h-2.699v-2.697"/><path stroke-dasharray="5.8387,5.8387" d="M4.66 44.842v-32.113"/><path d="M4.66 9.811v-2.7h2.699"/><path stroke-dasharray="5.6212,5.6212" d="M12.98 7.111h120.857"/><path d="M136.648 7.111h2.7v2.7"/><path stroke-dasharray="5.8387,5.8387" d="M139.348 15.648v32.114"/></g><path fill="none" d="M3.876 13.262h138v46.738h-138z"/><path d="M59.927 24.99v-10.847h3.503c1.234 0 2.16.215 2.776.646.617.432.926 1.084.926 1.959 0 .271-.032.535-.096.793-.063.258-.162.494-.294.709-.133.217-.299.408-.498.574-.199.166-.435.295-.706.389.271.045.53.133.776.262.246.131.462.299.647.506.185.209.332.453.439.736.108.281.162.598.162.945 0 1.107-.371 1.938-1.112 2.494-.741.556-1.813.834-3.212.834h-3.311zm5.08-7.885c0-.205-.033-.391-.1-.557-.067-.166-.173-.307-.319-.424-.147-.115-.335-.205-.564-.27-.23-.063-.508-.096-.834-.096h-1.237v2.873h1.237c.332 0 .613-.041.842-.121.23-.08.418-.191.564-.332.147-.141.252-.303.315-.484.064-.182.096-.38.096-.589zm-1.627 6.217c.327 0 .613-.041.859-.125.246-.082.452-.197.618-.344s.292-.32.378-.52c.085-.199.128-.412.128-.639 0-.471-.176-.838-.527-1.104-.352-.266-.89-.398-1.615-.398h-1.27v3.129l1.429.001zM76.18 24.668c-.398.16-.811.279-1.237.355-.426.078-.872.117-1.336.117-.669 0-1.27-.092-1.801-.273-.531-.184-.982-.455-1.353-.814-.371-.359-.654-.805-.851-1.336-.197-.531-.295-1.146-.295-1.844 0-.674.106-1.285.319-1.834.213-.547.514-1.016.901-1.402.387-.389.854-.688 1.399-.896.545-.211 1.152-.316 1.822-.316.548 0 1.008.029 1.382.088.373.059.709.131 1.008.221v1.967c-.343-.172-.715-.305-1.117-.398-.401-.094-.781-.141-1.141-.141-.376 0-.714.063-1.013.189-.299.126-.551.305-.755.531-.204.226-.361.502-.469.826-.108.324-.162.68-.162 1.066 0 .404.058.768.174 1.088.116.32.281.594.494.818.213.223.469.395.768.514.299.119.631.18.996.18.177 0 .364-.014.56-.039.197-.023.393-.061.59-.107.196-.047.39-.102.581-.162.19-.061.369-.127.535-.199l.001 1.801zM86.049 20.127l-.012.539-.038.623h-5.545c0 .371.057.697.17.979.113.283.273.52.481.711.207.189.456.336.747.436.29.1.613.148.967.148.41 0 .848-.031 1.315-.096.468-.063.954-.166 1.457-.311v1.611c-.216.061-.45.115-.706.166-.254.049-.515.094-.779.133-.267.037-.535.066-.806.086-.271.02-.534.029-.789.029-.642 0-1.217-.092-1.727-.273-.509-.184-.941-.453-1.295-.811-.354-.355-.625-.797-.813-1.322-.188-.527-.282-1.135-.282-1.826 0-.688.094-1.311.282-1.873.188-.561.454-1.043.797-1.443.343-.402.759-.711 1.25-.93.489-.219 1.036-.328 1.639-.328.598 0 1.126.092 1.585.277s.844.445 1.154.777c.31.332.545.727.705 1.186.163.459.243.963.243 1.512zm-2.058-.291c.005-.332-.036-.621-.125-.867s-.209-.449-.361-.609c-.151-.162-.329-.281-.531-.357-.202-.078-.419-.117-.651-.117-.509 0-.927.17-1.253.512-.327.34-.52.82-.581 1.439l3.502-.001zM18.448 45.391v-6.697h-3.279v6.697h-1.992v-8.434h7.255v8.434h-1.984zM30.218 41.107c0 .664-.094 1.271-.282 1.822-.188.551-.459 1.022-.813 1.416-.354.393-.789.696-1.303.911-.515.218-1.101.324-1.76.324-.625 0-1.184-.093-1.677-.272-.493-.185-.91-.455-1.253-.818-.343-.361-.606-.816-.789-1.361-.183-.545-.274-1.18-.274-1.904 0-.67.095-1.279.287-1.826.19-.549.465-1.016.821-1.401.357-.39.793-.688 1.308-.901.515-.214 1.096-.318 1.743-.318.631 0 1.192.092 1.685.277.493.184.91.461 1.253.825.343.365.604.817.784 1.356.18.538.27 1.163.27 1.87zm-2.108.051c0-.875-.165-1.531-.494-1.973-.33-.439-.815-.658-1.457-.658-.354 0-.656.068-.905.207s-.454.328-.614.568c-.16.239-.278.52-.353.842-.074.321-.112.664-.112 1.028 0 .882.177 1.543.531 1.988.354.444.838.668 1.453.668.337 0 .631-.065.88-.203.249-.135.451-.323.606-.563s.271-.523.349-.851c.077-.326.116-.678.116-1.053zM40.013 43.689l-.1 3.826h-1.876v-2.125h-5.113v2.125h-1.868l-.108-3.826h.208c.21 0 .405-.031.585-.092.18-.062.348-.177.502-.349.154-.172.293-.412.415-.724.122-.311.232-.713.332-1.211.1-.498.184-1.104.253-1.817.069-.716.125-1.562.17-2.541h5.711v6.731h.889v.003zm-2.872-5.029h-1.884c-.055.73-.111 1.369-.166 1.92-.055.551-.127 1.027-.216 1.428-.088.402-.205.74-.349 1.014s-.282.496-.415.668h3.03v-5.03zM48.903 41.025c0 .772-.109 1.443-.328 2.008-.218.564-.522 1.033-.913 1.408-.39.373-.851.649-1.382.83-.531.18-1.109.27-1.735.27-.21 0-.42-.014-.631-.041-.21-.029-.401-.064-.573-.109v3.297h-2.025v-11.73h1.751l.05 1.246c.171-.218.35-.412.536-.591.185-.178.386-.327.602-.452.216-.123.448-.22.697-.285s.528-.101.838-.101c.498 0 .941.101 1.328.3.387.198.712.481.975.85s.464.813.602 1.339c.139.519.208 1.107.208 1.761zm-2.125.082c0-.465-.033-.859-.1-1.187-.066-.327-.162-.596-.286-.808-.125-.209-.277-.362-.457-.461-.18-.096-.386-.145-.618-.145-.343 0-.671.139-.983.416-.313.275-.644.652-.992 1.129v3.686c.161.062.358.109.594.148.235.039.474.059.718.059.321 0 .613-.065.876-.198.263-.134.487-.322.672-.563.186-.244.328-.541.428-.894s.148-.744.148-1.182zM55.951 45.391l-.05-1.104c-.177.188-.362.361-.556.52-.194.156-.407.295-.639.41-.232.117-.486.207-.759.27-.274.064-.574.097-.901.097-.432 0-.811-.063-1.137-.19-.326-.127-.601-.306-.822-.531-.221-.227-.389-.5-.502-.82-.113-.322-.17-.676-.17-1.063 0-.398.084-.769.253-1.105.169-.338.426-.627.772-.871.346-.244.777-.434 1.295-.572.517-.139 1.125-.207 1.822-.207h1.104v-.508c0-.215-.03-.41-.091-.584-.061-.176-.159-.322-.294-.445-.136-.121-.312-.215-.527-.281-.215-.065-.481-.1-.797-.1-.498 0-.989.057-1.474.17-.484.113-.953.271-1.407.478v-1.617c.404-.162.87-.295 1.399-.397.528-.105 1.078-.158 1.647-.158.625 0 1.162.059 1.61.178.448.119.817.297 1.108.535.29.238.505.535.643.893s.208.773.208 1.25v5.76h-1.735v-.008zm-.291-3.727h-1.237c-.343 0-.634.033-.872.1s-.432.158-.581.273c-.149.117-.259.25-.328.402-.069.151-.104.313-.104.485 0 .345.111.604.332.785.221.181.523.271.905.271.282 0 .576-.104.88-.308.304-.204.639-.498 1.004-.881l.001-1.127zM59.736 43.631c.465.133.995.236 1.589.309.595.07 1.136.107 1.623.107.493 0 .862-.031 1.108-.092s.451-.145.614-.254c.163-.107.286-.234.369-.381.083-.147.125-.307.125-.477 0-.173-.039-.324-.116-.457-.077-.134-.205-.246-.382-.341-.177-.096-.412-.166-.706-.217-.293-.05-.65-.074-1.071-.074h-2.233v-1.444h2.117c.503 0 .87-.029 1.1-.086.229-.06.414-.138.552-.236.138-.1.236-.215.295-.346.058-.129.087-.271.087-.418 0-.146-.03-.275-.091-.392-.061-.117-.163-.215-.307-.295s-.347-.144-.61-.188c-.263-.043-.604-.065-1.025-.065-.376 0-.818.026-1.324.084-.507.055-1.003.146-1.49.272v-1.586c.465-.076.961-.143 1.49-.199.528-.055 1.05-.082 1.564-.082 1.345 0 2.328.188 2.951.564.622.375.934.924.934 1.643 0 .193-.032.39-.096.582-.063.193-.162.375-.294.547-.132.172-.3.324-.502.457-.202.134-.438.238-.709.316.271.037.53.109.776.215.247.105.462.242.647.41.186.17.332.369.44.598.107.23.162.486.162.771 0 .892-.374 1.563-1.121 2.021s-1.876.686-3.387.686c-.476 0-.976-.025-1.498-.074-.523-.051-1.053-.123-1.59-.217l.009-1.661zM77.4 43.689l-.1 3.826h-1.876v-2.125h-5.113v2.125h-1.868l-.108-3.826h.208c.21 0 .405-.031.585-.092.18-.062.348-.177.502-.349.154-.172.293-.412.415-.724.122-.311.232-.713.332-1.211s.184-1.104.253-1.817c.069-.716.125-1.562.17-2.541h5.711v6.731h.889v.003zm-2.872-5.029h-1.884c-.055.73-.111 1.369-.166 1.92s-.127 1.027-.216 1.428c-.088.402-.205.74-.349 1.014s-.282.496-.415.668h3.03v-5.03zM86.049 40.527l-.012.539-.038.623h-5.545c0 .371.057.697.17.979.113.283.273.52.481.711.207.189.456.336.747.436.29.101.613.148.967.148.41 0 .848-.031 1.315-.096.468-.063.954-.166 1.457-.311v1.61c-.216.062-.45.114-.706.166-.254.049-.515.095-.779.133-.267.037-.535.065-.806.087-.271.02-.534.028-.789.028-.642 0-1.217-.093-1.727-.272-.509-.185-.941-.453-1.295-.812-.354-.354-.625-.797-.813-1.322-.188-.526-.282-1.135-.282-1.825 0-.688.094-1.312.282-1.873s.454-1.043.797-1.443c.343-.402.759-.711 1.25-.93.489-.22 1.036-.328 1.639-.328.598 0 1.126.092 1.585.277.459.184.844.444 1.154.776.31.332.545.728.705 1.187.163.46.243.964.243 1.512zm-2.058-.291c.005-.332-.036-.621-.125-.867s-.209-.449-.361-.609c-.151-.162-.329-.281-.531-.357-.202-.077-.419-.116-.651-.116-.509 0-.927.17-1.253.512-.327.341-.52.82-.581 1.438h3.502v-.001zM87.104 43.607c.228.004.438-.01.631-.043.195-.033.369-.123.527-.271.157-.146.299-.364.424-.655.125-.289.234-.685.332-1.179.096-.496.182-1.108.252-1.845.072-.731.131-1.618.174-2.659h5.711v8.435h-1.983v-6.73h-1.894c-.049 1.057-.131 1.963-.244 2.723-.114.758-.26 1.396-.436 1.916-.178.521-.386.934-.623 1.238-.238.303-.507.527-.806.672-.299.143-.626.219-.983.225-.356.004-.744-.031-1.158-.108l.076-1.719zM104.743 40.527l-.013.539-.037.623h-5.545c0 .371.057.697.17.979.113.283.272.52.48.711.207.189.456.336.747.436.29.101.613.148.968.148.409 0 .848-.031 1.314-.096.468-.063.954-.166 1.457-.311v1.61c-.217.062-.451.114-.706.166-.254.049-.515.095-.78.133-.266.037-.533.065-.805.087-.271.02-.534.028-.789.028-.643 0-1.217-.093-1.727-.272-.51-.185-.941-.453-1.295-.812-.354-.354-.625-.797-.813-1.322-.188-.526-.282-1.135-.282-1.825 0-.688.094-1.312.282-1.873s.454-1.043.797-1.443c.343-.402.759-.711 1.25-.93.489-.22 1.036-.328 1.64-.328.598 0 1.125.092 1.584.277.459.184.844.444 1.154.776s.545.728.706 1.187.243.964.243 1.512zm-2.059-.291c.006-.332-.035-.621-.125-.867-.088-.246-.209-.449-.361-.609-.151-.162-.328-.281-.53-.357-.202-.077-.419-.116-.651-.116-.509 0-.927.17-1.252.512-.328.341-.521.82-.582 1.438h3.501v-.001zM111.915 45.391v-3.553h-3.278v3.553h-1.992v-8.434h1.992v3.164h3.278v-3.164h1.983v8.434h-1.983zM121.245 45.391v-5.27h-.017l-3.33 5.27h-1.916v-8.434h1.992v5.271h.017l3.319-5.271h1.926v8.434h-1.991zM125.951 42.992c.171-.393.379-.68.623-.859.244-.179.494-.295.755-.344-.276-.045-.53-.127-.761-.246-.229-.119-.426-.271-.592-.459-.166-.189-.295-.404-.387-.648-.091-.244-.137-.512-.137-.805 0-.504.09-.934.27-1.291s.447-.648.801-.871c.354-.225.795-.389 1.324-.49.529-.104 1.143-.153 1.84-.153.486 0 .971.012 1.453.032.48.023.959.058 1.436.101v8.435h-1.984v-3.097h-.797c-.244 0-.46.021-.652.06-.189.039-.365.1-.521.182-.158.084-.296.199-.415.35-.119.148-.209.314-.271.498l-.729 2.008h-2.274l1.018-2.403zm1.645-3.394c0 .238.045.434.137.59.092.154.226.279.402.373.178.094.396.16.656.199s.559.059.896.059h.904v-2.449c-.16-.019-.324-.026-.494-.029l-.543-.004c-.787 0-1.31.104-1.57.313-.259.211-.388.526-.388.948z"/></svg>