<svg xmlns="http://www.w3.org/2000/svg" width="165.773" height="60.5" viewBox="0 0 165.773 60.5"><path fill="#F1F2F2" stroke="#676767" stroke-miterlimit="10" d="M13.132 4.469h137.51v52.917h-137.51z"/><path stroke="#676767" stroke-miterlimit="10" fill="none" d="M150.642 47.911h-137.51"/><path fill="none" d="M20.597 21.856h116.511v59.031h-116.511z"/><path d="M57.22 33.586l-3.262-5.246v5.246h-2.075v-10.85h2.075v4.939l3.246-4.939h2.465l-3.687 5.172 3.876 5.678h-2.638zM65.861 26.854v6.732h-2.059v-6.732h-2.938v-1.701h7.936v1.701h-2.939zM78.254 29.303c0 .664-.094 1.271-.282 1.822-.188.551-.459 1.021-.813 1.415-.354.394-.789.696-1.304.913-.514.216-1.101.324-1.76.324-.625 0-1.184-.092-1.677-.274s-.91-.455-1.253-.817c-.344-.361-.606-.815-.789-1.36-.184-.546-.274-1.181-.274-1.905 0-.67.095-1.278.287-1.826.19-.548.465-1.016.821-1.403.356-.387.793-.688 1.308-.9.516-.212 1.096-.319 1.743-.319.631 0 1.192.093 1.685.278.493.185.91.461 1.254.826.343.365.604.817.783 1.356.182.538.271 1.162.271 1.87zm-2.108.05c0-.874-.165-1.531-.494-1.972-.33-.439-.814-.66-1.457-.66-.354 0-.655.069-.904.208-.249.139-.454.328-.614.568-.161.241-.278.521-.354.843-.073.321-.111.664-.111 1.029 0 .88.177 1.543.531 1.988.354.445.838.668 1.452.668.338 0 .632-.067.881-.203.249-.137.45-.324.605-.564s.271-.524.349-.852c.077-.326.116-.677.116-1.053zM80.944 29.967v-1.801h5.163v1.801h-5.163zM93.901 26.854v6.732h-2.059v-6.732h-2.938v-1.701h7.937v1.701h-2.94zM106.294 29.303c0 .664-.094 1.271-.282 1.822-.188.551-.459 1.021-.813 1.415-.354.394-.789.696-1.304.913-.514.216-1.101.324-1.76.324-.625 0-1.184-.092-1.677-.274s-.91-.455-1.253-.817c-.344-.361-.606-.815-.789-1.36-.184-.546-.274-1.181-.274-1.905 0-.67.095-1.278.287-1.826.19-.548.465-1.016.821-1.403.356-.387.793-.688 1.308-.9.516-.212 1.096-.319 1.743-.319.631 0 1.192.093 1.685.278.493.185.91.461 1.253.826.344.365.604.817.784 1.356.182.538.271 1.162.271 1.87zm-2.108.05c0-.874-.165-1.531-.494-1.972-.33-.439-.814-.66-1.457-.66-.354 0-.655.069-.904.208-.249.139-.454.328-.614.568-.161.241-.278.521-.354.843-.073.321-.111.664-.111 1.029 0 .88.177 1.543.531 1.988.354.445.838.668 1.452.668.337 0 .632-.067.88-.203.249-.137.451-.324.606-.564s.271-.524.349-.852c.077-.326.116-.677.116-1.053z"/></svg>