<svg xmlns="http://www.w3.org/2000/svg" width="165.5" height="56" viewBox="0 0 165.5 56"><path fill="#EB2227" d="M139.836 52.876h-135.833v-48.502h135.938l22.495 22.633z"/><path fill="none" d="M4.219 21.562h138v17.438h-138z"/><path fill="#fff" d="M46.988 33.292v-9.048h-3.619v9.048h-2.059v-10.849h7.736v10.849h-2.058zM58.593 28.925c0 .774-.109 1.444-.328 2.009-.218.564-.522 1.033-.913 1.407-.39.373-.851.65-1.382.83-.531.181-1.109.271-1.735.271-.21 0-.42-.014-.631-.041-.21-.028-.401-.064-.573-.108v3.296h-2.025v-11.73h1.751l.05 1.245c.171-.216.35-.412.536-.59.185-.177.386-.327.602-.452.216-.124.448-.22.697-.286s.528-.1.838-.1c.498 0 .941.1 1.328.299.387.199.712.482.975.851.263.368.464.813.602 1.337.138.521.208 1.109.208 1.762zm-2.125.083c0-.465-.033-.86-.1-1.187-.066-.327-.162-.596-.286-.806-.125-.21-.277-.364-.457-.461-.18-.097-.386-.146-.618-.146-.343 0-.671.139-.983.416-.313.276-.644.652-.992 1.129v3.686c.161.062.358.11.594.148.235.039.474.059.718.059.321 0 .613-.066.876-.199s.487-.32.672-.563c.186-.243.328-.541.428-.894.1-.352.148-.745.148-1.182zM67.948 29.008c0 .664-.094 1.271-.282 1.822s-.459 1.021-.813 1.415-.789.696-1.303.913c-.514.216-1.101.322-1.76.322-.625 0-1.184-.09-1.677-.272-.493-.183-.91-.455-1.253-.817-.343-.361-.606-.815-.789-1.361-.183-.545-.274-1.18-.274-1.904 0-.67.095-1.278.287-1.826.19-.548.465-1.016.821-1.402.357-.388.793-.688 1.308-.901s1.096-.319 1.743-.319c.631 0 1.192.093 1.685.278.493.185.91.46 1.253.825.343.365.604.818.784 1.357.18.538.27 1.162.27 1.87zm-2.109.051c0-.875-.165-1.532-.494-1.973-.33-.439-.815-.659-1.457-.659-.354 0-.656.068-.905.207-.249.139-.454.328-.614.568-.161.241-.278.521-.353.843-.074.321-.112.664-.112 1.029 0 .88.177 1.543.531 1.988.354.444.838.668 1.453.668.337 0 .631-.067.88-.203.249-.137.451-.324.606-.564s.271-.523.349-.852c.078-.325.116-.677.116-1.052zM77.535 35.417h-1.868v-2.125h-6.151v-8.434h1.992v6.731h3.138v-6.731h1.992v6.731h1.004l-.107 3.828zM86.393 28.427l-.013.539-.038.623h-5.545c0 .371.057.697.17.979.113.281.273.519.481.709.207.191.456.336.747.437.29.101.613.149.967.149.41 0 .848-.032 1.314-.096.469-.063.955-.168 1.457-.313v1.611c-.216.061-.451.115-.705.166-.254.049-.516.094-.781.133-.266.037-.533.066-.805.087-.271.021-.534.028-.789.028-.642 0-1.217-.092-1.727-.273-.51-.182-.941-.452-1.295-.811-.354-.355-.625-.797-.813-1.322-.188-.526-.282-1.135-.282-1.826 0-.688.094-1.311.282-1.872s.454-1.043.797-1.444.759-.711 1.25-.93c.489-.219 1.036-.328 1.639-.328.598 0 1.126.093 1.585.278s.844.444 1.153.776c.311.332.545.728.707 1.187.162.46.244.965.244 1.513zm-2.06-.291c.005-.332-.036-.621-.125-.867s-.208-.449-.36-.609c-.152-.161-.328-.28-.531-.357-.202-.077-.418-.116-.65-.116-.509 0-.927.17-1.253.511-.327.34-.52.82-.581 1.439l3.5-.001zM95.216 32.969c-.397.159-.812.278-1.237.355-.426.076-.871.115-1.336.115-.668 0-1.27-.092-1.801-.272-.531-.185-.982-.454-1.354-.813-.37-.359-.653-.806-.85-1.336-.197-.531-.295-1.146-.295-1.844 0-.675.105-1.286.318-1.835.213-.547.514-1.015.9-1.402.388-.387.854-.687 1.399-.896.545-.21 1.151-.315 1.822-.315.548 0 1.008.029 1.382.087.373.059.709.132 1.008.221v1.966c-.343-.172-.715-.305-1.117-.398-.4-.094-.781-.141-1.141-.141-.376 0-.714.063-1.014.19-.299.127-.551.305-.754.531-.205.226-.361.502-.469.826-.109.323-.162.68-.162 1.066 0 .404.058.767.174 1.087.115.321.281.594.494.817.213.225.469.396.768.516s.631.179.996.179c.177 0 .363-.013.561-.038.196-.023.393-.061.59-.107.195-.047.389-.102.58-.161.19-.062.369-.128.535-.199l.003 1.801zM104.563 32.969c-.397.159-.811.278-1.236.355-.426.076-.872.115-1.336.115-.67 0-1.27-.092-1.801-.272-.531-.185-.982-.454-1.354-.813s-.654-.806-.852-1.336c-.196-.531-.295-1.146-.295-1.844 0-.675.106-1.286.319-1.835.214-.547.515-1.015.901-1.402.387-.387.854-.687 1.398-.896.545-.21 1.152-.315 1.822-.315.549 0 1.008.029 1.383.087.373.059.709.132 1.008.221v1.966c-.344-.172-.715-.305-1.117-.398-.401-.094-.781-.141-1.141-.141-.377 0-.715.063-1.014.19s-.551.305-.755.531-.36.502-.47.826c-.107.323-.162.68-.162 1.066 0 .404.059.767.175 1.087.116.321.28.594.494.817.213.225.469.396.768.516.3.119.632.179.996.179.177 0 .364-.013.56-.038.197-.023.394-.061.59-.107.197-.047.391-.102.582-.161.189-.062.369-.128.535-.199v1.801h.002z"/></svg>