<svg xmlns="http://www.w3.org/2000/svg" width="165.5" height="58" viewBox="0 0 165.5 58"><path fill="#fff" stroke="#676767" stroke-miterlimit="10" d="M141.165 55h-135.832l22.916-25.867-22.916-22.635h135.938l22.493 22.635z"/><path fill="none" d="M4.019 23.029h138v17.44h-138z"/><path d="M46.789 34.76v-9.049h-3.619v9.049h-2.059v-10.85h7.736v10.85h-2.058zM58.393 30.393c0 .775-.109 1.445-.328 2.01-.218.564-.522 1.033-.913 1.406-.39.373-.851.65-1.382.83-.531.18-1.109.271-1.735.271-.21 0-.42-.015-.631-.041-.211-.027-.401-.063-.573-.106v3.295h-2.025v-11.73h1.751l.05 1.244c.171-.215.35-.412.536-.59.185-.176.386-.326.602-.451.216-.125.448-.221.697-.287s.528-.1.838-.1c.498 0 .941.1 1.328.299.387.199.712.482.975.852.263.367.464.813.602 1.336.138.521.208 1.109.208 1.762zm-2.125.084c0-.465-.033-.86-.1-1.188s-.162-.596-.286-.805c-.125-.211-.277-.365-.457-.461-.18-.098-.386-.146-.618-.146-.343 0-.671.139-.983.416-.313.277-.644.652-.992 1.129v3.686c.161.062.358.111.594.148.235.039.474.059.718.059.321 0 .613-.065.876-.199.263-.133.487-.319.672-.563.186-.242.328-.541.428-.894s.148-.745.148-1.182zM67.748 30.477c0 .664-.094 1.271-.282 1.822s-.459 1.021-.813 1.414-.789.697-1.303.914c-.515.215-1.101.322-1.76.322-.625 0-1.184-.09-1.677-.273-.493-.182-.91-.455-1.253-.816-.343-.362-.606-.815-.789-1.36s-.274-1.183-.274-1.905c0-.671.095-1.278.287-1.827.19-.547.465-1.016.821-1.402.357-.387.793-.688 1.308-.9.515-.212 1.096-.32 1.743-.32.631 0 1.192.094 1.685.279s.91.459 1.253.824c.343.365.604.818.784 1.357.18.539.27 1.162.27 1.871zm-2.108.048c0-.873-.165-1.531-.494-1.971-.33-.439-.815-.66-1.457-.66-.354 0-.656.068-.905.207-.249.139-.454.328-.614.568-.161.242-.278.521-.353.845-.074.319-.112.664-.112 1.028 0 .879.177 1.543.531 1.987.354.445.838.668 1.453.668.337 0 .631-.067.88-.202.249-.138.451-.324.606-.563.155-.242.271-.525.349-.853s.116-.677.116-1.054zM77.335 36.885h-1.868v-2.125h-6.151v-8.434h1.992v6.73h3.138v-6.73h1.992v6.73h1.004l-.107 3.829zM86.191 29.895l-.012.539-.037.623h-5.545c0 .371.057.697.17.98.113.281.273.518.481.709.207.191.456.336.747.436.29.1.613.15.967.15.41 0 .849-.033 1.315-.096.468-.064.953-.168 1.457-.313v1.611c-.217.062-.451.114-.707.166-.254.049-.514.094-.779.133s-.534.067-.805.088c-.271.021-.534.026-.79.026-.642 0-1.217-.09-1.727-.272-.509-.182-.941-.45-1.295-.809s-.625-.8-.813-1.324-.282-1.136-.282-1.826c0-.687.094-1.311.282-1.871.188-.563.454-1.043.797-1.445.343-.4.759-.711 1.25-.93.489-.219 1.036-.328 1.639-.328.598 0 1.126.094 1.585.279s.844.443 1.154.775.545.729.706 1.188c.162.459.242.964.242 1.511zm-2.057-.291c.005-.332-.036-.621-.125-.867s-.209-.449-.36-.609c-.152-.16-.33-.279-.531-.357-.202-.076-.419-.115-.651-.115-.509 0-.927.17-1.253.51-.326.34-.52.82-.581 1.439h3.502v-.001zM95.016 34.436c-.397.16-.811.279-1.236.357-.426.076-.872.115-1.336.115-.67 0-1.271-.092-1.801-.273-.531-.184-.982-.453-1.354-.814-.371-.358-.654-.805-.852-1.336-.196-.53-.295-1.145-.295-1.842 0-.676.106-1.287.319-1.835.213-.547.515-1.014.901-1.402.387-.387.854-.686 1.398-.896.545-.209 1.152-.314 1.822-.314.548 0 1.008.029 1.382.086.373.059.709.133 1.009.221v1.967c-.344-.172-.716-.305-1.117-.398-.401-.094-.781-.141-1.142-.141-.376 0-.714.064-1.013.191s-.551.305-.755.531c-.204.226-.361.502-.47.826-.107.322-.162.678-.162 1.066 0 .403.059.767.175 1.086.116.322.28.595.493.817.214.226.47.396.769.517.3.12.631.179.996.179.177 0 .364-.013.56-.037.197-.025.394-.062.59-.107.197-.047.391-.102.582-.162.189-.061.369-.127.535-.199v1.797h.002zM104.363 34.436c-.398.16-.811.279-1.237.357-.426.076-.872.115-1.336.115-.669 0-1.271-.092-1.802-.273-.53-.184-.981-.453-1.352-.814-.371-.358-.654-.805-.852-1.336-.197-.53-.295-1.145-.295-1.842 0-.676.105-1.287.318-1.835.213-.547.514-1.014.901-1.402.388-.387.854-.686 1.399-.896.545-.209 1.152-.314 1.822-.314.547 0 1.008.029 1.381.086.373.059.709.133 1.008.221v1.967c-.342-.172-.715-.305-1.116-.398-.401-.094-.781-.141-1.142-.141-.375 0-.713.064-1.013.191-.299.127-.551.305-.755.531-.204.226-.361.502-.469.826-.107.322-.162.678-.162 1.066 0 .403.059.767.174 1.086.116.322.281.595.494.817.213.226.469.396.768.517s.631.179.996.179c.178 0 .364-.013.561-.037.197-.025.393-.062.59-.107.195-.047.391-.102.581-.162s.368-.127.534-.199v1.799h.004z"/></svg>