<svg xmlns="http://www.w3.org/2000/svg" width="165.5" height="54.5" viewBox="0 0 165.5 54.5"><path fill="#EB2227" d="M139.836 52.05h-135.832l22.916-25.867-22.916-22.633h135.937l22.495 22.633z"/><path fill="none" d="M4.219 20.081h138v17.438h-138z"/><path fill="#fff" d="M46.989 31.811v-9.048h-3.619v9.048h-2.059v-10.85h7.736v10.85h-2.058zM58.593 27.444c0 .775-.109 1.445-.328 2.009-.218.564-.522 1.033-.913 1.406-.39.373-.851.65-1.382.83-.531.181-1.109.271-1.735.271-.21 0-.42-.015-.631-.041-.21-.028-.401-.063-.573-.108v3.297h-2.025v-11.732h1.751l.05 1.245c.171-.216.35-.412.536-.59.185-.177.386-.327.602-.452.216-.124.448-.22.697-.286s.528-.1.838-.1c.498 0 .941.1 1.328.299.387.199.712.482.975.851.263.368.464.813.602 1.337.139.523.208 1.111.208 1.764zm-2.125.083c0-.465-.033-.86-.1-1.187-.066-.327-.162-.596-.286-.806-.125-.21-.277-.364-.457-.461-.18-.097-.386-.146-.618-.146-.343 0-.671.139-.983.416-.313.276-.644.652-.992 1.129v3.686c.161.061.358.109.594.148.235.039.474.059.718.059.321 0 .613-.066.876-.199s.487-.32.672-.564c.186-.242.328-.541.428-.893.1-.352.148-.745.148-1.182zM67.948 27.527c0 .665-.094 1.271-.282 1.823-.188.551-.459 1.021-.813 1.414s-.789.697-1.303.914c-.514.215-1.102.322-1.76.322-.625 0-1.184-.091-1.677-.273-.493-.182-.91-.455-1.253-.816-.343-.362-.606-.816-.789-1.361-.183-.545-.274-1.181-.274-1.905 0-.67.095-1.278.287-1.826.19-.548.465-1.016.821-1.402.357-.388.793-.688 1.308-.901s1.096-.319 1.743-.319c.631 0 1.192.093 1.685.278.493.185.91.46 1.253.825.343.365.604.818.784 1.357.18.538.27 1.162.27 1.87zm-2.108.05c0-.874-.165-1.531-.494-1.972-.33-.439-.815-.659-1.457-.659-.354 0-.656.068-.905.207-.249.139-.454.328-.614.568-.161.241-.278.521-.353.843-.074.321-.112.664-.112 1.029 0 .879.177 1.543.531 1.988s.838.668 1.453.668c.337 0 .631-.067.88-.203s.451-.323.606-.563c.155-.241.271-.524.349-.852.077-.326.116-.678.116-1.054zM77.536 33.936h-1.868v-2.125h-6.151v-8.435h1.992v6.731h3.138v-6.731h1.992v6.731h1.004l-.107 3.829zM86.393 26.946l-.012.539-.038.623h-5.545c0 .371.057.697.17.979.113.282.273.519.481.71.207.189.456.336.747.436.29.101.613.149.967.149.409 0 .849-.032 1.315-.096s.953-.167 1.457-.312v1.61c-.217.062-.451.115-.707.166-.254.049-.515.095-.779.133-.266.038-.534.067-.805.087-.271.02-.533.03-.788.03-.642 0-1.217-.091-1.727-.273-.51-.182-.941-.451-1.295-.81-.354-.356-.625-.798-.813-1.323s-.282-1.135-.282-1.826c0-.687.094-1.311.282-1.872s.454-1.043.797-1.444.759-.711 1.25-.93c.489-.219 1.036-.328 1.639-.328.598 0 1.126.093 1.585.278.459.185.845.444 1.153.776.311.332.546.728.707 1.187.161.459.241.963.241 1.511zm-2.059-.291c.005-.332-.036-.621-.125-.867s-.209-.45-.361-.61c-.152-.161-.328-.28-.531-.357-.202-.077-.418-.116-.65-.116-.509 0-.927.17-1.253.511-.327.34-.52.82-.581 1.439h3.501zM95.216 31.486c-.397.16-.812.279-1.237.357-.426.076-.871.115-1.336.115-.668 0-1.27-.092-1.801-.273-.531-.184-.982-.453-1.354-.813-.37-.358-.653-.806-.85-1.336-.197-.531-.295-1.146-.295-1.843 0-.675.105-1.286.318-1.835.213-.547.514-1.015.9-1.402.388-.387.854-.687 1.399-.896.545-.21 1.151-.315 1.822-.315.548 0 1.008.029 1.382.087.373.059.709.132 1.008.221v1.967c-.343-.172-.715-.305-1.117-.398-.4-.094-.781-.141-1.141-.141-.376 0-.714.063-1.014.19-.299.127-.551.305-.754.531-.205.226-.361.502-.469.826-.109.323-.162.679-.162 1.066 0 .404.058.767.174 1.087.115.32.281.594.494.817s.469.396.768.515.631.18.996.18c.177 0 .363-.014.561-.039.196-.023.393-.061.59-.106l.58-.161c.19-.062.369-.128.535-.199l.003 1.798zM104.563 31.486c-.397.16-.811.279-1.236.357-.426.076-.872.115-1.336.115-.67 0-1.27-.092-1.801-.273-.531-.184-.982-.453-1.354-.813-.371-.358-.654-.806-.852-1.336-.196-.531-.295-1.146-.295-1.843 0-.675.106-1.286.319-1.835.214-.547.515-1.015.901-1.402s.854-.687 1.398-.896c.545-.21 1.152-.315 1.822-.315.549 0 1.008.029 1.383.087.373.059.709.132 1.008.221v1.967c-.344-.172-.715-.305-1.117-.398-.401-.094-.781-.141-1.141-.141-.377 0-.715.063-1.014.19s-.551.305-.755.531-.36.502-.47.826c-.107.323-.162.679-.162 1.066 0 .404.059.767.175 1.087s.28.594.494.817c.213.224.469.396.768.515.3.119.632.18.996.18.177 0 .364-.014.56-.039.197-.023.394-.061.59-.106l.582-.161c.189-.062.369-.128.535-.199v1.798h.002z"/></svg>