<svg xmlns="http://www.w3.org/2000/svg" width="67.5" height="54.801" viewBox="0 0 67.5 54.801"><ellipse fill="#F1F2F2" stroke="#676767" stroke-miterlimit="10" cx="35.777" cy="27.682" rx="28.969" ry="25.119"/><path fill="none" d="M9.205 21.11h55.023v20.566h-55.023z"/><path d="M27.063 32.989c-.564 0-1.121-.021-1.672-.063-.551-.041-1.104-.104-1.656-.188v-8.251c1.168-.154 2.336-.231 3.503-.231 1.272 0 2.208.176 2.806.527.598.351.896.866.896 1.548 0 .222-.031.436-.096.644-.063.207-.162.398-.295.572-.133.175-.299.335-.498.48-.199.146-.437.266-.713.354.276.033.536.1.779.199.244.1.459.229.645.391.185.16.332.355.439.585.107.23.162.485.162.77 0 .906-.367 1.577-1.1 2.013-.734.433-1.8.65-3.2.65zm1.785-6.283c0-.312-.136-.544-.406-.702-.271-.157-.676-.236-1.213-.236-.337 0-.617.004-.838.013-.221.009-.443.026-.664.055v1.959h1.436c.354 0 .631-.026.83-.079.199-.053.361-.124.486-.216.125-.091.217-.204.277-.34.061-.138.092-.288.092-.454zm-1.528 4.756c.625 0 1.096-.105 1.411-.315s.474-.495.474-.854c0-.345-.15-.61-.449-.802-.299-.19-.779-.286-1.443-.286h-1.586v2.142c.266.044.523.075.771.091.25.016.523.024.822.024zM40.021 32.517c-.398.16-.812.279-1.237.356-.427.077-.871.115-1.337.115-.67 0-1.27-.092-1.801-.272-.53-.185-.981-.454-1.354-.814-.371-.358-.654-.805-.852-1.336-.195-.53-.294-1.146-.294-1.843 0-.675.106-1.286.319-1.835.213-.547.514-1.015.9-1.402.388-.388.854-.687 1.397-.896.547-.21 1.153-.315 1.822-.315.549 0 1.01.029 1.383.087.373.06.709.133 1.008.222v1.967c-.343-.172-.715-.305-1.115-.398-.401-.094-.781-.141-1.143-.141-.376 0-.713.063-1.012.19-.299.127-.551.305-.756.53-.205.227-.361.502-.469.826-.107.323-.162.679-.162 1.066 0 .403.059.767.174 1.087.117.32.281.594.494.817.213.225.469.396.768.516s.631.179.996.179c.178 0 .364-.013.561-.038.197-.023.394-.061.59-.106.197-.048.392-.103.58-.162.191-.062.371-.127.537-.199v1.8h.003zM49.891 27.976l-.014.539-.037.623h-5.545c0 .371.057.697.17.979.114.281.275.519.482.71.207.189.457.336.746.436.291.1.613.149.968.149.409 0 .849-.032 1.315-.097.467-.063.953-.167 1.457-.312v1.61c-.217.062-.451.115-.705.166-.256.05-.517.095-.781.134-.266.038-.533.066-.805.087-.272.02-.535.027-.789.027-.643 0-1.217-.091-1.728-.272-.509-.184-.94-.452-1.295-.811-.354-.355-.625-.798-.813-1.322-.188-.526-.283-1.136-.283-1.826 0-.688.096-1.312.283-1.872.188-.563.453-1.043.797-1.444.344-.4.761-.711 1.248-.93.49-.219 1.037-.328 1.642-.328.598 0 1.125.093 1.585.278.46.185.844.443 1.152.775.312.332.545.729.707 1.188.161.46.243.965.243 1.513zm-2.059-.291c.005-.332-.037-.621-.125-.867s-.209-.448-.361-.608c-.152-.161-.328-.28-.531-.357-.201-.077-.418-.116-.65-.116-.51 0-.928.17-1.253.512-.327.34-.521.819-.582 1.438l3.502-.002z"/></svg>