<svg xmlns="http://www.w3.org/2000/svg" width="145.833" height="71.102" viewBox="0 0 145.833 71.102"><path fill="#F1F2F2" stroke="#676767" stroke-miterlimit="10" d="M141.381 68.205s-44.004 10.228-68.754-7.756c-18.421-13.383-68.755-7.05-68.755-7.05v-51.378h137.509v66.184z"/><path fill="none" d="M6.539 11.93h132.176v37.738h-132.176z"/><path d="M22.956 23.66l-3.263-5.246v5.246h-2.075v-10.849h2.075v4.938l3.245-4.938h2.466l-3.686 5.171 3.876 5.678h-2.638zM34.644 19.376c0 .664-.095 1.271-.283 1.822s-.459 1.022-.813 1.415-.789.697-1.304.913c-.515.216-1.101.323-1.76.323-.626 0-1.185-.092-1.677-.273-.492-.182-.91-.455-1.254-.817-.343-.361-.605-.815-.788-1.36-.183-.545-.274-1.182-.274-1.905 0-.67.096-1.278.287-1.826.19-.548.465-1.016.821-1.401.357-.389.793-.688 1.308-.901.515-.213 1.096-.319 1.743-.319.631 0 1.192.094 1.685.278.493.186.91.46 1.254.825.344.365.604.817.784 1.356.181.538.271 1.162.271 1.87zm-2.11.051c0-.874-.164-1.531-.493-1.973-.329-.438-.815-.659-1.457-.659-.354 0-.655.068-.905.207-.248.14-.453.328-.613.568-.161.241-.278.521-.354.843-.074.321-.111.664-.111 1.029 0 .88.177 1.543.531 1.988.354.444.838.668 1.452.668.337 0 .631-.067.88-.203s.451-.324.605-.564c.155-.241.271-.523.35-.851.077-.326.115-.678.115-1.053zM42.413 23.66l-.199-4.439-.075-2.052-.522 1.411-1.204 3.104h-1.278l-1.088-3.104-.456-1.411-.058 2.019-.184 4.474h-1.734l.531-8.434h2.308l.954 2.623.457 1.461.457-1.396 1.004-2.688h2.35l.539 8.434-1.802-.002zM51.759 23.66l-.199-4.44-.074-2.052-.523 1.411-1.203 3.104h-1.28l-1.087-3.104-.457-1.411-.059 2.019-.182 4.474h-1.735l.531-8.434h2.309l.955 2.623.456 1.461.456-1.396 1.005-2.688h2.349l.54 8.434-1.802-.001zM62.435 18.795l-.013.539-.038.623h-5.545c0 .371.057.697.171.979.113.282.273.519.481.71.207.189.456.336.747.436.29.101.612.149.967.149.409 0 .849-.032 1.315-.096.468-.063.953-.167 1.457-.313v1.611c-.216.061-.451.114-.705.166-.255.049-.516.094-.781.133-.266.038-.533.066-.805.087-.272.02-.534.028-.789.028-.642 0-1.217-.092-1.727-.273-.509-.183-.94-.452-1.295-.81-.354-.356-.625-.799-.813-1.323-.188-.526-.283-1.135-.283-1.826 0-.687.095-1.311.283-1.872s.453-1.043.797-1.444c.343-.4.759-.711 1.249-.93.489-.219 1.036-.328 1.64-.328.598 0 1.125.094 1.585.278s.844.444 1.153.776c.311.332.545.728.706 1.187s.243.966.243 1.513zm-2.059-.291c.005-.332-.037-.621-.125-.866-.088-.246-.209-.449-.361-.609-.152-.161-.329-.28-.531-.357-.201-.076-.419-.115-.651-.115-.509 0-.927.17-1.253.511-.327.34-.521.82-.582 1.438l3.503-.002zM72.021 19.293c0 .774-.109 1.444-.328 2.01-.218.563-.522 1.032-.913 1.406-.39.373-.851.65-1.382.83-.531.181-1.109.271-1.735.271-.21 0-.42-.015-.631-.041-.21-.028-.4-.064-.572-.108v3.296h-2.025v-11.731h1.752l.049 1.245c.172-.217.351-.412.536-.591.185-.177.386-.326.602-.451.216-.124.448-.221.697-.286.249-.066.528-.101.839-.101.498 0 .94.101 1.328.299.387.199.712.482.975.852.264.368.464.813.602 1.337.137.522.206 1.11.206 1.763zm-2.125.083c0-.465-.033-.859-.1-1.187-.066-.327-.162-.596-.286-.807-.125-.21-.277-.363-.457-.461-.18-.097-.386-.146-.618-.146-.343 0-.671.139-.983.416-.313.276-.644.652-.992 1.129v3.686c.16.062.358.11.594.148.234.039.475.059.718.059.321 0 .612-.065.876-.198.263-.134.486-.321.672-.564s.328-.541.428-.893c.1-.352.148-.744.148-1.182zM78.952 23.66v-3.345c-.293.115-.599.201-.916.257-.318.056-.636.083-.951.083-.686 0-1.27-.069-1.752-.207-.479-.139-.873-.345-1.174-.619-.302-.272-.521-.612-.66-1.017-.139-.405-.207-.869-.207-1.396v-2.19h1.983v1.941c0 .315.03.59.091.822.063.232.165.424.313.576.146.152.339.266.576.341.238.074.537.112.896.112.305 0 .605-.031.904-.092.299-.062.598-.145.896-.249v-3.453h1.983v8.434l-1.982.002zM90.474 18.795l-.013.539-.037.623h-5.545c0 .371.058.697.17.979.113.282.273.519.481.71.207.189.456.336.747.436.29.101.613.149.967.149.41 0 .848-.032 1.315-.096.467-.064.954-.167 1.457-.313v1.611c-.216.061-.451.114-.706.166-.254.049-.514.094-.779.133-.266.038-.535.066-.806.087-.271.02-.534.028-.788.028-.643 0-1.218-.092-1.727-.273-.51-.183-.941-.452-1.295-.81-.354-.356-.627-.799-.814-1.323-.188-.526-.281-1.135-.281-1.826 0-.687.094-1.311.281-1.872s.454-1.043.797-1.444c.344-.4.76-.711 1.25-.93.489-.219 1.036-.328 1.639-.328.599 0 1.127.094 1.586.278s.844.444 1.154.776.545.728.705 1.187.242.966.242 1.513zm-2.059-.291c.006-.332-.035-.621-.123-.866-.09-.246-.209-.449-.361-.609-.151-.161-.329-.28-.531-.357-.202-.076-.419-.115-.65-.115-.511 0-.928.17-1.254.511-.326.34-.521.82-.58 1.438l3.499-.002zM99.297 23.336c-.397.16-.811.279-1.235.356-.427.077-.872.116-1.337.116-.669 0-1.271-.093-1.803-.273-.53-.184-.981-.454-1.353-.813-.37-.359-.653-.806-.851-1.336-.197-.531-.295-1.146-.295-1.844 0-.675.105-1.286.318-1.835.215-.547.514-1.015.901-1.401.387-.389.854-.688 1.397-.896.545-.209 1.152-.314 1.822-.314.547 0 1.008.028 1.383.087.373.059.709.132 1.008.221v1.967c-.344-.172-.715-.305-1.116-.397-.4-.095-.781-.142-1.142-.142-.377 0-.715.063-1.014.19s-.551.305-.755.531c-.204.226-.36.502-.47.825-.102.322-.155.677-.155 1.065 0 .404.059.767.175 1.087.115.321.28.594.493.818.214.224.47.396.77.515.299.119.631.179.996.179.176 0 .362-.013.559-.038.197-.023.395-.061.591-.106l.581-.162c.189-.062.369-.127.535-.199v1.8h-.003zM107.075 23.66l-3.17-4.217v4.217h-1.992v-8.434h1.992v3.568l2.988-3.568h2.498l-3.42 3.843 3.701 4.591h-2.597zM116.323 23.66v-5.271h-.018l-3.328 5.271h-1.918v-8.434h1.992v5.271h.018l3.32-5.271h1.926v8.434h-1.992zM125.668 23.66v-5.271h-.016l-3.328 5.271h-1.918v-8.434h1.992v5.271h.016l3.32-5.271h1.926v8.434h-1.992zm1.206-11.73c0 .759-.26 1.348-.776 1.769s-1.217.631-2.098.631c-.51 0-.94-.061-1.295-.183-.354-.122-.644-.291-.867-.506-.225-.218-.387-.471-.489-.761-.103-.291-.153-.606-.153-.95h1.852c0 .184.019.351.055.503.035.151.092.279.17.386.078.105.178.187.299.245.121.058.273.087.457.087.178 0 .328-.033.456-.1s.229-.155.308-.267c.078-.11.136-.242.174-.395.039-.153.06-.307.06-.461l1.847.002zM50.896 44.06v-5.27h-.016l-3.329 5.271h-1.917v-8.435h1.992v5.271h.016l3.32-5.271h1.926v8.435l-1.992-.001zM60.259 44.06v-3.554h-3.279v3.554h-1.992v-8.435h1.992v3.163h3.278v-3.163h1.984v8.435h-1.983zM67.647 44.209c-.564 0-1.123-.021-1.673-.063-.551-.041-1.103-.104-1.656-.188v-8.251c1.167-.154 2.335-.231 3.503-.231 1.273 0 2.208.176 2.806.526.598.352.896.867.896 1.549 0 .222-.032.436-.096.644-.063.207-.161.398-.294.572-.133.175-.299.335-.498.48-.199.146-.438.266-.715.354.277.033.537.1.781.198.243.101.457.23.643.392.186.161.332.354.44.585.107.229.161.485.161.769 0 .907-.366 1.578-1.1 2.014-.731.434-1.798.65-3.198.65zm1.785-6.282c0-.312-.136-.545-.407-.702s-.675-.236-1.211-.236c-.338 0-.617.004-.839.013-.222.008-.442.026-.664.055v1.959h1.437c.354 0 .631-.026.83-.079.199-.054.36-.124.485-.216.124-.092.217-.204.278-.341.06-.137.091-.288.091-.453zm-1.528 4.755c.626 0 1.096-.105 1.411-.315s.473-.495.473-.854c0-.345-.148-.61-.447-.803-.299-.189-.781-.286-1.445-.286h-1.585v2.143c.266.044.522.075.772.091.248.016.522.024.821.024zM81.375 39.777c0 .664-.094 1.271-.28 1.822-.188.551-.46 1.021-.814 1.415-.354.393-.788.696-1.303.913-.515.216-1.103.322-1.761.322-.625 0-1.184-.091-1.676-.272-.494-.183-.91-.455-1.254-.817s-.605-.815-.789-1.361c-.183-.545-.272-1.181-.272-1.904 0-.67.095-1.278.286-1.826.189-.548.465-1.016.82-1.402.357-.388.793-.688 1.309-.9.515-.213 1.096-.319 1.742-.319.632 0 1.193.093 1.687.278.492.186.91.46 1.253.824.344.365.604.818.784 1.357.179.538.268 1.162.268 1.87zm-2.106.05c0-.874-.165-1.531-.494-1.972-.33-.439-.813-.659-1.457-.659-.354 0-.655.068-.903.207-.25.139-.455.328-.615.568s-.277.521-.354.843c-.074.321-.111.664-.111 1.029 0 .88.178 1.543.53 1.987.354.445.839.668 1.453.668.338 0 .632-.066.88-.203.249-.136.451-.323.606-.563.153-.241.271-.524.348-.852.077-.326.117-.677.117-1.053zM88.282 44.06v-5.27h-.016l-3.329 5.271h-1.917v-8.435h1.992v5.271h.016l3.32-5.271h1.926v8.435l-1.992-.001zm1.204-11.729c0 .759-.259 1.349-.776 1.77-.517.421-1.215.631-2.096.631-.51 0-.941-.062-1.295-.184-.354-.121-.645-.291-.867-.506-.225-.217-.388-.47-.49-.76-.102-.291-.152-.607-.152-.951h1.852c0 .185.019.352.055.503.035.152.092.28.17.387.078.105.178.187.299.244.121.059.273.088.457.088.177 0 .328-.033.456-.101.128-.066.229-.155.308-.266.077-.11.135-.242.174-.396.039-.152.06-.306.06-.461l1.845.002zM99.297 43.737c-.397.16-.811.279-1.235.356-.427.076-.872.115-1.337.115-.669 0-1.271-.092-1.803-.272-.53-.185-.981-.454-1.353-.814-.37-.358-.653-.805-.851-1.336s-.295-1.146-.295-1.843c0-.675.105-1.286.318-1.835.215-.547.514-1.015.901-1.402.387-.388.854-.687 1.397-.896.545-.209 1.152-.315 1.822-.315.547 0 1.008.029 1.383.087.373.06.709.132 1.008.222v1.967c-.344-.172-.715-.306-1.116-.398-.4-.094-.781-.141-1.142-.141-.377 0-.715.063-1.014.189s-.551.306-.755.531c-.204.227-.36.502-.47.826-.102.322-.155.678-.155 1.066 0 .403.059.767.175 1.087.115.32.28.594.493.817.214.225.47.396.77.516.299.118.631.179.996.179.176 0 .362-.013.559-.038.197-.024.395-.061.591-.107.196-.046.39-.102.581-.161.189-.062.369-.128.535-.199v1.801h-.003z"/></svg>