<svg xmlns="http://www.w3.org/2000/svg" width="165.773" height="60" viewBox="0 0 165.773 60"><path fill="#E6E7E8" stroke="#676767" stroke-miterlimit="10" d="M4.378 4h157.018v52.918h-157.018z"/><path fill="none" d="M0 11.545h165.773v59.031h-165.773z"/><path d="M49.161 22.851c-.481.194-.948.338-1.398.432-.451.095-.92.142-1.407.142-.779 0-1.471-.115-2.07-.345-.601-.229-1.106-.571-1.52-1.025-.413-.453-.725-1.017-.938-1.688-.214-.673-.319-1.454-.319-2.345 0-.914.116-1.726.349-2.437.233-.711.564-1.312.996-1.802.433-.489.956-.863 1.573-1.12.617-.258 1.31-.386 2.079-.386.249 0 .482.005.701.016.219.012.433.032.644.063.211.031.423.07.639.121.217.049.44.113.673.19v2.025c-.471-.222-.918-.379-1.346-.474-.426-.094-.813-.141-1.162-.141-.515 0-.954.093-1.319.278s-.666.445-.901.78c-.234.335-.408.733-.519 1.195-.111.462-.166.97-.166 1.523 0 .586.057 1.11.17 1.572.114.462.29.854.526 1.175.237.321.542.565.913.734s.812.253 1.32.253c.183 0 .38-.018.593-.054.213-.036.43-.083.647-.141.219-.059.435-.128.646-.208.213-.08.411-.162.595-.244l.001 1.911zM56.482 23.274v-5.271h-.017l-3.329 5.271h-1.916v-8.434h1.992v5.271h.017l3.32-5.271h1.926v8.434h-1.993zM67.498 22.95c-.398.161-.812.28-1.237.357-.426.077-.872.116-1.336.116-.669 0-1.271-.091-1.801-.274-.531-.182-.982-.453-1.354-.813s-.653-.806-.851-1.337c-.196-.531-.294-1.146-.294-1.843 0-.675.105-1.287.319-1.834.214-.549.514-1.016.9-1.403s.854-.687 1.398-.896c.545-.21 1.152-.315 1.821-.315.548 0 1.01.029 1.382.087.374.059.711.132 1.01.22v1.968c-.344-.172-.715-.305-1.116-.398-.401-.094-.782-.142-1.142-.142-.377 0-.715.064-1.014.191-.299.127-.551.305-.755.531s-.361.502-.469.826c-.107.323-.162.679-.162 1.066 0 .404.058.767.174 1.088.116.32.281.593.494.817s.469.396.768.515c.3.119.632.178.996.178.178 0 .364-.012.562-.037.195-.024.393-.061.589-.107.197-.047.391-.102.581-.162.19-.061.37-.127.536-.199l.001 1.8zM74.57 16.542v6.732h-2.059v-6.732h-2.938v-1.701h7.937v1.701h-2.94zM86.714 18.41l-.013.54-.037.622h-5.545c0 .371.057.697.17.979.113.282.273.519.48.71.208.19.457.336.747.436.291.1.613.149.967.149.41 0 .849-.032 1.316-.096.467-.063.953-.167 1.457-.311v1.609c-.216.062-.451.117-.706.166-.254.051-.515.095-.78.133-.266.039-.534.068-.805.088-.271.02-.534.029-.789.029-.642 0-1.217-.092-1.727-.274-.511-.182-.941-.452-1.296-.81-.354-.356-.625-.798-.813-1.324-.188-.525-.282-1.134-.282-1.826 0-.686.094-1.31.282-1.871.188-.561.454-1.043.797-1.444s.76-.711 1.249-.93c.49-.219 1.037-.328 1.64-.328.599 0 1.126.093 1.585.278s.845.443 1.154.775c.311.332.545.729.706 1.188s.243.964.243 1.512zm-2.059-.29c.006-.332-.035-.622-.125-.868-.089-.246-.209-.449-.36-.61-.152-.16-.33-.279-.531-.356-.202-.077-.419-.116-.652-.116-.509 0-.927.17-1.253.511-.327.34-.52.82-.581 1.44l3.502-.001zM94.732 23.274l-.198-4.441-.075-2.05-.523 1.411-1.204 3.104h-1.277l-1.087-3.104-.457-1.411-.059 2.017-.183 4.475h-1.735l.531-8.434h2.308l.955 2.623.457 1.461.457-1.395 1.004-2.689h2.35l.54 8.434-1.804-.001zM103.232 23.274v-3.553h-3.278v3.553h-1.992v-8.434h1.992v3.162h3.278v-3.162h1.984v8.434h-1.984zM112.695 23.274l-.05-1.104c-.177.188-.361.36-.556.519-.194.157-.407.294-.639.411-.232.115-.485.206-.761.27-.272.063-.573.096-.899.096-.433 0-.812-.064-1.138-.191-.325-.127-.601-.305-.821-.531-.222-.226-.39-.501-.502-.822-.114-.32-.17-.675-.17-1.063 0-.398.084-.766.253-1.104.168-.338.426-.628.771-.871.346-.244.778-.435 1.295-.573.519-.139 1.125-.208 1.822-.208h1.104v-.506c0-.216-.029-.411-.091-.585-.061-.175-.159-.322-.295-.444-.135-.122-.311-.216-.526-.282-.217-.066-.481-.1-.798-.1-.498 0-.988.057-1.473.17-.484.113-.954.272-1.407.478v-1.619c.404-.16.87-.293 1.398-.398.529-.104 1.078-.157 1.647-.157.625 0 1.162.06 1.61.179.448.119.818.297 1.108.535.291.238.505.535.644.893.138.356.208.773.208 1.249v5.761h-1.735v-.003zm-.29-3.726h-1.236c-.343 0-.634.033-.872.1s-.433.157-.581.273c-.149.116-.259.25-.328.402-.069.152-.104.314-.104.486 0 .343.11.604.331.784.222.18.523.27.905.27.282 0 .576-.103.88-.308.305-.204.64-.498 1.004-.879l.001-1.128zM117.269 20.876c.171-.394.379-.68.623-.859.244-.179.495-.295.755-.345-.276-.044-.529-.126-.759-.245-.229-.119-.428-.272-.594-.461-.166-.188-.295-.403-.386-.646-.093-.244-.138-.513-.138-.806 0-.504.09-.934.271-1.291.18-.356.446-.647.801-.871.354-.225.795-.388 1.324-.49.527-.103 1.141-.153 1.838-.153.487 0 .971.011 1.453.033.481.022.96.056 1.436.1v8.434h-1.983v-3.096h-.798c-.243 0-.461.019-.65.058-.191.039-.365.1-.523.183-.157.083-.296.199-.415.349-.119.149-.208.315-.27.498l-.73 2.009h-2.273l1.018-2.401zm1.644-3.396c0 .238.045.435.137.589.091.155.225.28.402.374.177.094.396.16.655.199.261.039.56.058.896.058h.905v-2.448l-.494-.029-.543-.004c-.786 0-1.31.104-1.569.315-.259.21-.389.526-.389.946zM42.595 43.675l-.05-1.104c-.177.188-.362.361-.557.52-.193.157-.406.294-.639.411-.231.115-.486.206-.759.271-.274.063-.574.096-.901.096-.432 0-.811-.064-1.137-.191s-.601-.305-.822-.531c-.221-.226-.389-.5-.502-.822-.112-.319-.17-.674-.17-1.063 0-.398.084-.766.253-1.104s.426-.629.772-.871c.346-.244.776-.436 1.295-.573.517-.14 1.125-.208 1.822-.208h1.104v-.506c0-.217-.03-.411-.091-.585-.062-.175-.159-.322-.294-.444-.136-.121-.313-.216-.527-.281-.215-.066-.48-.101-.797-.101-.498 0-.989.058-1.474.17-.484.113-.953.272-1.407.478v-1.618c.404-.16.87-.294 1.398-.397.528-.105 1.078-.158 1.647-.158.625 0 1.162.061 1.61.18.447.119.816.297 1.107.535.29.238.505.535.644.893.138.355.208.773.208 1.249v5.761h-1.735v-.007zm-.29-3.728h-1.237c-.343 0-.634.033-.872.101-.237.067-.432.157-.581.272-.148.117-.259.25-.327.402-.069.152-.104.314-.104.486 0 .344.111.604.332.784.221.18.523.271.905.271.282 0 .576-.104.88-.309.304-.204.639-.498 1.004-.879v-1.128zM51.909 43.675l-3.172-4.217v4.217h-1.991v-8.435h1.991v3.57l2.988-3.57h2.499l-3.42 3.845 3.702 4.59h-2.597zM60.55 36.941v6.732h-2.059v-6.732h-2.938v-1.7h7.936v1.7h-2.939zM70.502 43.675v-5.271h-.018l-3.329 5.271h-1.915v-8.435h1.992v5.271h.018l3.319-5.271h1.927v8.435h-1.994zM77.907 43.824c-.564 0-1.122-.021-1.673-.063s-1.103-.105-1.655-.188v-8.252c1.167-.154 2.335-.231 3.503-.231 1.272 0 2.208.177 2.806.527s.896.866.896 1.548c0 .223-.032.436-.097.645-.063.207-.162.397-.294.571-.133.175-.299.335-.498.481s-.437.265-.714.354c.277.033.537.1.78.199s.458.229.643.391c.187.159.332.354.44.584.106.229.162.486.162.769 0 .907-.367 1.579-1.101 2.014-.731.434-1.798.651-3.198.651zm1.784-6.284c0-.31-.136-.543-.406-.701-.271-.157-.676-.235-1.213-.235-.337 0-.616.004-.838.013-.221.008-.442.026-.664.054v1.959h1.437c.354 0 .631-.025.83-.079.199-.053.36-.124.485-.216.124-.091.218-.204.278-.34.061-.138.091-.289.091-.455zm-1.527 4.757c.625 0 1.096-.105 1.411-.314.314-.211.473-.496.473-.855 0-.343-.149-.609-.448-.801-.299-.189-.78-.286-1.444-.286h-1.586v2.142c.267.045.523.074.772.092.249.013.523.022.822.022zM89.212 43.675v-3.553h-3.279v3.553h-1.992v-8.435h1.992v3.162h3.279v-3.162h1.983v8.435h-1.983zM100.983 39.393c0 .664-.094 1.271-.281 1.821-.188.552-.459 1.022-.813 1.415-.354.393-.789.697-1.303.913-.515.216-1.102.323-1.76.323-.625 0-1.185-.092-1.678-.273s-.91-.455-1.253-.816c-.343-.362-.605-.816-.789-1.361-.183-.545-.273-1.182-.273-1.905 0-.67.095-1.278.287-1.825.189-.549.465-1.017.82-1.404.357-.387.793-.688 1.309-.899.515-.212 1.096-.319 1.743-.319.631 0 1.191.094 1.685.278s.91.461 1.253.826c.343.364.604.817.784 1.356s.269 1.161.269 1.87zm-2.108.048c0-.875-.165-1.531-.494-1.973-.33-.439-.815-.66-1.457-.66-.354 0-.656.069-.905.209-.249.139-.454.328-.614.567-.16.241-.277.521-.353.843-.074.321-.112.664-.112 1.029 0 .88.178 1.543.531 1.988.354.445.838.668 1.453.668.337 0 .631-.067.88-.203.249-.137.451-.324.606-.564.154-.24.271-.523.349-.852.077-.324.116-.677.116-1.052zM109.558 43.352c-.397.16-.811.279-1.237.356-.426.077-.871.116-1.336.116-.669 0-1.27-.092-1.801-.274-.531-.182-.981-.452-1.353-.813-.371-.359-.654-.805-.852-1.336-.196-.531-.295-1.146-.295-1.844 0-.675.106-1.287.319-1.834.213-.549.514-1.016.9-1.402.388-.387.854-.688 1.399-.896.545-.21 1.152-.314 1.822-.314.548 0 1.008.029 1.382.086.373.06.709.133 1.008.221v1.969c-.343-.173-.715-.306-1.117-.398-.4-.094-.78-.143-1.141-.143-.376 0-.714.064-1.013.191-.3.127-.552.305-.755.531-.204.226-.361.502-.47.826-.107.322-.162.678-.162 1.065 0 .403.059.767.175 1.088.115.32.28.593.493.817.214.224.47.396.769.515.299.119.631.179.996.179.177 0 .363-.013.56-.037.197-.024.394-.062.59-.107.196-.047.391-.102.581-.162s.369-.127.535-.199l.003 1.799zM116.63 36.941v6.732h-2.06v-6.732h-2.938v-1.7h7.936v1.7h-2.938zM125.155 38.236c.753 0 1.386.072 1.897.213.512.142.925.337 1.241.585.314.25.551.536.706.858.154.324.231.666.231 1.025 0 .426-.088.816-.266 1.17-.177.354-.438.66-.784.918s-.775.458-1.287.602c-.512.145-1.193.217-2.046.217-.454 0-1.018-.018-1.693-.055-.675-.035-1.262-.084-1.76-.146v-8.383h1.977v3.047c.276-.018.556-.029.838-.038.282-.007.597-.013.946-.013zm.008 4.028c.664 0 1.15-.121 1.461-.365.31-.242.465-.537.465-.879 0-.178-.033-.338-.101-.481-.066-.144-.177-.271-.331-.378-.155-.107-.369-.195-.645-.262-.273-.066-.665-.101-1.174-.101-.271 0-.531.007-.78.019-.249.011-.479.027-.688.049v2.283c.221.033.473.061.755.082.281.022.628.033 1.038.033z"/></svg>