<svg xmlns="http://www.w3.org/2000/svg" width="67.5" height="53.398" viewBox="0 0 67.5 53.398"><ellipse fill="#F1F2F2" stroke="#676767" stroke-miterlimit="10" cx="34.838" cy="27.981" rx="28.969" ry="25.119"/><path fill="none" d="M8.266 21.41h55.024v20.565h-55.024z"/><path d="M13.672 33.14v-1.802h2.765v-6.974l-2.407 1.328-.664-1.65 3.445-1.817h1.701v9.113h2.383v1.802h-7.223zM23.85 29.521v-1.802h5.162v1.802h-5.162zM35.729 30.076c.231 0 .447.043.646.129s.372.201.52.349c.146.146.262.319.344.519.084.2.125.413.125.641 0 .222-.041.431-.125.627-.082.196-.196.368-.344.515-.146.146-.319.264-.52.35s-.415.128-.646.128c-.223 0-.43-.042-.623-.128s-.362-.202-.506-.35c-.145-.146-.258-.317-.342-.515-.082-.196-.124-.405-.124-.627 0-.228.042-.44.124-.641.084-.198.197-.371.342-.519.144-.147.313-.263.506-.349s.4-.129.623-.129zM45.074 30.076c.232 0 .447.043.646.129s.372.201.52.349c.146.147.262.319.345.519.083.2.124.413.124.641 0 .222-.041.431-.124.627s-.198.368-.345.515c-.147.147-.319.264-.52.35-.199.086-.414.128-.646.128-.221 0-.43-.042-.623-.128s-.361-.202-.506-.35c-.146-.146-.258-.317-.34-.515-.084-.196-.125-.405-.125-.627 0-.228.041-.44.125-.641.082-.198.194-.371.34-.519.145-.147.313-.263.506-.349.195-.086.403-.129.623-.129zM54.421 30.076c.231 0 .448.043.647.129s.371.201.52.349c.146.146.262.319.344.519.084.2.125.413.125.641 0 .222-.041.431-.125.627-.082.196-.197.368-.344.515s-.32.264-.52.35c-.2.086-.416.128-.647.128-.222 0-.429-.042-.622-.128s-.363-.202-.507-.35c-.144-.146-.257-.317-.341-.515-.082-.196-.124-.405-.124-.627 0-.228.042-.44.124-.641.084-.198.197-.371.341-.519s.313-.263.507-.349.4-.129.622-.129z"/></svg>