<svg xmlns="http://www.w3.org/2000/svg" width="165.5" height="56" viewBox="0 0 165.5 56"><path fill="#EB2227" d="M139.572 52.712h-135.831l22.916-25.867-22.916-22.634h135.939l22.492 22.634z"/><path fill="none" d="M10.741 20.743h138v17.438h-138z"/><path fill="#fff" d="M40.063 32.473l-.598-2.143h-3.785l-.614 2.143h-2.025l3.212-10.85h2.855l3.212 10.85h-2.257zm-2.465-8.857l-1.428 5.047h2.839l-1.411-5.047zM48.763 32.473l-3.171-4.218v4.218h-1.992v-8.435h1.992v3.569l2.988-3.569h2.499l-3.42 3.843 3.702 4.592h-2.598zM57.404 25.741v6.731h-2.059v-6.731h-2.938v-1.702h7.936v1.702h-2.939zM67.356 32.473v-5.271h-.016l-3.329 5.271h-1.917v-8.435h1.992v5.271h.017l3.32-5.271h1.926v8.435h-1.993zM74.761 32.622c-.564 0-1.122-.021-1.673-.063-.55-.041-1.103-.104-1.656-.187v-8.251c1.167-.155 2.335-.232 3.503-.232 1.273 0 2.208.176 2.806.527.598.351.896.867.896 1.548 0 .222-.032.436-.095.644-.064.207-.162.398-.295.572-.133.175-.299.335-.498.481-.199.146-.437.265-.714.353.277.033.537.1.78.199s.458.23.644.391c.185.16.332.355.439.586.108.229.162.484.162.769 0 .907-.367 1.578-1.1 2.013-.732.432-1.799.65-3.199.65zm1.784-6.284c0-.311-.136-.544-.407-.702-.271-.157-.675-.236-1.212-.236-.337 0-.617.004-.838.013-.221.008-.443.026-.664.054v1.959h1.436c.354 0 .631-.026.83-.079.199-.053.361-.124.485-.216.125-.091.217-.204.278-.34s.092-.287.092-.453zm-1.527 4.756c.625 0 1.096-.105 1.411-.314.315-.211.473-.495.473-.854 0-.344-.149-.61-.448-.802-.299-.189-.78-.286-1.444-.286h-1.585v2.142c.266.045.523.076.772.092.248.014.522.022.821.022zM86.066 32.473v-3.554h-3.279v3.554h-1.992v-8.435h1.992v3.163h3.279v-3.163h1.983v8.435h-1.983zM97.837 28.189c0 .665-.094 1.271-.282 1.823-.188.551-.459 1.021-.813 1.414s-.789.697-1.303.913c-.515.216-1.102.323-1.76.323-.625 0-1.185-.092-1.678-.273s-.91-.455-1.253-.816c-.343-.362-.606-.816-.789-1.361s-.274-1.182-.274-1.905c0-.67.096-1.278.287-1.826.19-.548.465-1.016.821-1.402.356-.388.792-.688 1.308-.901.515-.213 1.096-.319 1.742-.319.631 0 1.192.093 1.686.278.492.185.91.46 1.252.825.344.365.605.818.785 1.357.181.538.271 1.162.271 1.87zm-2.108.05c0-.874-.164-1.531-.494-1.972-.328-.439-.813-.659-1.457-.659-.354 0-.655.068-.904.207-.249.139-.454.328-.614.568-.161.241-.278.521-.353.843-.075.321-.112.664-.112 1.029 0 .88.177 1.543.531 1.988.354.444.838.668 1.452.668.338 0 .632-.067.881-.203s.451-.323.605-.563c.155-.242.271-.524.35-.852.075-.327.115-.678.115-1.054zM106.412 32.148c-.398.16-.811.279-1.237.356-.426.077-.872.116-1.336.116-.669 0-1.271-.092-1.801-.273-.531-.184-.981-.453-1.353-.813-.371-.359-.654-.806-.852-1.337-.195-.53-.294-1.145-.294-1.842 0-.675.106-1.286.319-1.835.213-.547.514-1.015.9-1.402.387-.387.854-.687 1.398-.896.545-.21 1.152-.315 1.822-.315.547 0 1.008.029 1.381.087.375.059.711.132 1.01.221v1.967c-.344-.172-.715-.305-1.116-.398-.401-.094-.782-.141-1.142-.141-.377 0-.715.063-1.014.19s-.551.305-.754.531c-.205.226-.361.502-.47.826-.106.323-.162.679-.162 1.066 0 .404.058.768.175 1.088.115.32.28.594.493.817.214.224.47.396.769.515s.631.18.996.18c.177 0 .363-.014.561-.039.195-.023.393-.061.589-.106.197-.047.392-.103.581-.162.191-.062.37-.127.536-.198l.001 1.797zM113.484 25.741v6.731h-2.06v-6.731h-2.938v-1.702h7.937v1.702h-2.939zM122.009 27.036c.753 0 1.386.07 1.896.211.513.142.927.336 1.242.586.314.248.551.535.705.858.155.324.232.666.232 1.024 0 .427-.088.815-.266 1.171-.178.354-.438.659-.785.918-.346.256-.774.457-1.286.602-.513.144-1.194.216-2.046.216-.454 0-1.018-.019-1.693-.054-.675-.037-1.262-.086-1.76-.146v-8.384h1.977v3.046l.838-.037.946-.011zm.009 4.025c.664 0 1.15-.121 1.461-.365.31-.242.465-.536.465-.879 0-.178-.033-.338-.101-.481s-.177-.271-.331-.378c-.156-.107-.371-.193-.644-.262-.274-.065-.666-.1-1.175-.1-.271 0-.531.006-.78.016-.249.013-.479.029-.688.052v2.282c.221.033.473.061.754.082.283.022.628.033 1.039.033z"/></svg>