<svg xmlns="http://www.w3.org/2000/svg" width="165.773" height="59.701" viewBox="0 0 165.773 59.701"><path fill="#F9ED32" stroke="#676767" stroke-miterlimit="10" d="M14.132 3.463h137.51v52.918h-137.51z"/><path stroke="#676767" stroke-miterlimit="10" fill="none" d="M151.642 46.905h-137.51"/><path fill="none" d="M23.597 8.919h116.511v59.031h-116.511z"/><path d="M67.525 15.178c0 .985-.114 1.835-.344 2.549s-.545 1.301-.946 1.76c-.4.459-.872.8-1.41 1.021-.54.221-1.117.332-1.731.332-1.428 0-2.501-.475-3.221-1.424-.721-.949-1.079-2.328-1.079-4.139 0-.984.115-1.834.344-2.548.23-.714.545-1.301.946-1.76.4-.459.872-.8 1.411-1.021.54-.222 1.116-.332 1.73-.332 1.428 0 2.501.473 3.221 1.419.72.946 1.079 2.328 1.079 4.143zm-2.158.099c0-1.283-.172-2.24-.516-2.871-.344-.631-.908-.947-1.692-.947-.394 0-.729.082-1.005.245-.275.163-.505.403-.685.718-.18.316-.312.705-.395 1.167-.083.462-.125.991-.125 1.589 0 1.284.173 2.242.519 2.873.346.631.909.945 1.689.945.393 0 .729-.081 1.008-.244s.508-.402.685-.719c.177-.314.308-.704.391-1.166.083-.462.126-.992.126-1.59zM73.535 13.916v6.732h-2.06v-6.732h-2.938v-1.701h7.936v1.701h-2.938zM86.376 18.947l-.101 3.826h-1.875v-2.125h-5.112v2.125h-1.868l-.108-3.826h.208c.21 0 .405-.031.585-.092.181-.061.348-.177.502-.349.155-.172.293-.412.415-.722.122-.311.232-.715.332-1.213.101-.498.185-1.104.253-1.817.069-.714.126-1.561.17-2.54h5.711v6.732l.888.001zm-2.872-5.031h-1.884c-.056.73-.111 1.371-.166 1.922-.056.551-.127 1.026-.217 1.428-.089.402-.204.739-.349 1.013-.144.274-.282.497-.415.669h3.03v-5.032zM95.025 15.784l-.013.54-.037.622h-5.545c0 .371.057.697.17.979.114.282.274.519.481.71.208.19.457.336.747.436.291.1.612.149.967.149.41 0 .848-.032 1.315-.096.468-.063.953-.167 1.457-.311v1.609c-.216.062-.45.117-.706.166-.254.051-.515.095-.779.133-.267.039-.534.068-.806.088-.271.02-.533.029-.789.029-.642 0-1.217-.092-1.727-.274s-.941-.452-1.295-.81c-.354-.356-.625-.798-.813-1.324-.188-.525-.281-1.134-.281-1.826 0-.686.094-1.31.281-1.871.188-.561.454-1.043.798-1.444.343-.401.76-.711 1.249-.93.489-.219 1.036-.328 1.64-.328.598 0 1.126.093 1.585.278s.844.443 1.154.775c.31.332.545.729.706 1.188.161.459.241.964.241 1.512zm-2.058-.29c.005-.332-.036-.622-.125-.868s-.209-.449-.361-.61c-.151-.16-.33-.279-.53-.356-.202-.077-.42-.116-.652-.116-.509 0-.927.17-1.253.511-.327.34-.521.82-.581 1.44l3.502-.001zM96.08 18.863c.227.006.437-.008.631-.041.193-.033.37-.123.526-.27.158-.146.3-.365.425-.656.124-.29.234-.684.332-1.179.097-.495.181-1.109.253-1.843.071-.734.13-1.62.174-2.66h5.711v8.434h-1.984v-6.732h-1.893c-.05 1.058-.131 1.965-.245 2.723-.113.759-.258 1.397-.436 1.918-.179.521-.386.933-.623 1.236-.238.305-.507.529-.806.673s-.627.219-.982.224c-.357.006-.743-.03-1.158-.107l.075-1.72zM46.117 41.049v-6.698h-3.279v6.698h-1.992v-8.435h7.255v8.435h-1.984zM57.639 36.185l-.013.541-.037.621h-5.545c0 .371.057.697.17.979.114.282.273.519.48.71.208.189.457.336.747.436.291.1.613.149.968.149.409 0 .848-.032 1.315-.097.467-.063.953-.166 1.457-.311v1.609c-.216.063-.451.117-.706.166-.254.051-.515.095-.78.133-.266.039-.533.068-.805.088-.271.02-.534.029-.789.029-.642 0-1.217-.092-1.727-.274-.511-.182-.941-.452-1.295-.81-.354-.356-.625-.799-.813-1.324-.188-.525-.282-1.135-.282-1.826 0-.686.095-1.311.282-1.871.188-.561.454-1.043.797-1.443.344-.401.761-.711 1.249-.93.49-.22 1.037-.328 1.641-.328.598 0 1.126.092 1.585.277s.844.443 1.153.775c.311.332.545.729.706 1.188s.242.966.242 1.513zm-2.059-.289c.005-.332-.036-.623-.125-.869s-.209-.448-.361-.609c-.152-.16-.33-.279-.531-.355-.202-.078-.419-.117-.651-.117-.51 0-.928.17-1.253.512-.327.34-.521.82-.581 1.439h3.502v-.001zM67.226 36.683c0 .774-.108 1.444-.328 2.01-.219.563-.522 1.033-.913 1.406s-.851.65-1.382.83-1.108.27-1.734.27c-.21 0-.421-.014-.632-.041-.21-.027-.4-.063-.572-.107v3.295h-2.025v-11.73h1.751l.05 1.246c.171-.217.351-.412.535-.59.187-.178.386-.328.603-.453.216-.123.447-.219.696-.285s.528-.1.838-.1c.498 0 .941.1 1.328.299.388.199.712.481.977.851.263.368.463.813.602 1.337.137.519.206 1.107.206 1.762zm-2.125.084c0-.465-.033-.861-.1-1.188-.066-.326-.162-.595-.287-.806-.124-.209-.276-.363-.456-.461-.18-.097-.386-.145-.619-.145-.343 0-.671.139-.984.414-.313.277-.643.652-.991 1.129v3.686c.161.063.357.111.593.15.235.038.475.059.718.059.321 0 .613-.066.875-.199.263-.133.487-.321.673-.564.186-.242.328-.541.428-.893.097-.352.15-.746.15-1.182zM75.809 40.726c-.397.16-.811.279-1.237.356-.426.077-.871.116-1.336.116-.669 0-1.27-.092-1.801-.274-.531-.182-.981-.452-1.353-.813-.371-.359-.654-.805-.852-1.336-.195-.531-.294-1.146-.294-1.844 0-.675.106-1.287.32-1.834.213-.549.513-1.016.9-1.402.387-.387.854-.688 1.397-.896.545-.21 1.153-.314 1.822-.314.548 0 1.009.029 1.382.086.374.06.71.133 1.009.221v1.968c-.343-.172-.715-.305-1.116-.397-.4-.094-.781-.143-1.142-.143-.376 0-.714.064-1.013.191-.3.127-.552.305-.755.531-.204.226-.361.502-.47.826-.106.322-.162.678-.162 1.065 0 .403.059.767.175 1.088.115.319.28.593.493.817.214.224.47.396.769.515s.631.179.996.179c.177 0 .364-.013.561-.037s.394-.062.589-.107c.197-.047.392-.102.581-.162.191-.061.37-.127.536-.199l.001 1.799zM85.928 36.767c0 .664-.094 1.271-.282 1.821-.188.552-.459 1.022-.813 1.415-.354.393-.789.697-1.304.913-.514.216-1.101.323-1.76.323-.625 0-1.184-.092-1.677-.273s-.91-.455-1.253-.816c-.343-.362-.606-.816-.789-1.361s-.274-1.182-.274-1.905c0-.67.097-1.278.286-1.825.191-.549.465-1.017.822-1.404.356-.387.792-.688 1.307-.899.516-.212 1.097-.319 1.743-.319.631 0 1.192.094 1.686.278.492.185.909.461 1.253.826.343.364.604.817.785 1.356.18.538.27 1.161.27 1.87zm-2.109.048c0-.875-.165-1.531-.493-1.973-.329-.439-.814-.66-1.457-.66-.354 0-.656.069-.905.209-.249.139-.453.328-.613.568-.161.241-.278.521-.353.844-.075.32-.112.663-.112 1.028 0 .88.177 1.543.531 1.987.354.445.838.668 1.453.668.337 0 .631-.066.88-.202s.451-.324.605-.563c.155-.242.271-.525.35-.853.076-.325.114-.678.114-1.053zM92.851 41.049v-3.553h-3.279v3.553h-1.992v-8.435h1.991v3.162h3.279v-3.162h1.984v8.435h-1.983zM102.313 41.049l-.05-1.104c-.177.188-.362.361-.556.52-.194.157-.407.294-.64.411-.231.114-.484.206-.76.271-.272.063-.574.096-.899.096-.433 0-.812-.064-1.138-.191s-.601-.305-.821-.531c-.222-.226-.39-.5-.503-.822-.113-.319-.17-.674-.17-1.063 0-.398.084-.766.253-1.104.168-.338.427-.629.771-.871.346-.244.778-.436 1.295-.573.518-.14 1.125-.208 1.822-.208h1.104v-.506c0-.217-.029-.411-.091-.585-.061-.175-.159-.322-.295-.444-.135-.121-.311-.216-.527-.281-.216-.066-.48-.101-.797-.101-.498 0-.989.058-1.473.17-.484.113-.954.272-1.407.478v-1.619c.404-.159.87-.293 1.398-.397s1.078-.157 1.647-.157c.625 0 1.162.061 1.61.18s.817.297 1.107.535c.291.238.506.535.645.893.138.355.208.773.208 1.249v5.761h-1.735v-.007zm-.29-3.728h-1.236c-.344 0-.635.033-.872.101-.238.067-.433.157-.581.272-.149.117-.259.25-.328.402s-.104.314-.104.486c0 .344.111.604.332.784.222.18.523.271.905.271.282 0 .576-.104.88-.309.304-.204.64-.498 1.004-.879v-1.128zM105.426 39.265c.227.006.437-.009.631-.041.194-.033.37-.123.527-.271.158-.146.299-.365.424-.656.124-.29.235-.685.332-1.179.097-.495.181-1.109.253-1.844.072-.733.13-1.619.174-2.66h5.711v8.435h-1.983v-6.731h-1.894c-.05 1.058-.131 1.965-.245 2.723-.112.759-.258 1.396-.436 1.918s-.385.934-.623 1.236c-.238.305-.506.529-.805.673-.3.144-.627.219-.983.224-.357.006-.743-.029-1.158-.107l.075-1.72zM121.007 41.049l-.05-1.104c-.178.188-.362.361-.557.52-.193.157-.406.294-.639.411-.232.114-.485.206-.76.271-.273.063-.574.096-.9.096-.432 0-.811-.064-1.137-.191s-.602-.305-.822-.531c-.221-.226-.389-.5-.502-.822-.114-.319-.17-.674-.17-1.063 0-.398.084-.766.253-1.104.168-.338.426-.629.771-.871.346-.244.777-.436 1.295-.573.518-.14 1.125-.208 1.821-.208h1.104v-.506c0-.217-.03-.411-.091-.585-.062-.175-.159-.322-.295-.444-.136-.121-.312-.216-.527-.281-.216-.066-.481-.101-.797-.101-.498 0-.989.058-1.473.17-.484.113-.954.272-1.407.478v-1.619c.403-.159.87-.293 1.397-.397.529-.104 1.078-.157 1.648-.157.625 0 1.162.061 1.61.18.447.119.817.297 1.107.535.291.238.505.535.645.893.138.355.208.773.208 1.249v5.761h-1.735v-.007zm-.291-3.728h-1.237c-.343 0-.634.033-.872.101-.237.067-.432.157-.581.272-.148.117-.259.25-.328.402-.068.152-.104.314-.104.486 0 .344.111.604.332.784.221.18.523.271.905.271.281 0 .576-.104.88-.309.304-.204.639-.498 1.004-.879l.001-1.128z"/></svg>