<svg xmlns="http://www.w3.org/2000/svg" width="165.773" height="59" viewBox="0 0 165.773 59"><path fill="#F9ED32" stroke="#676767" stroke-miterlimit="10" d="M3.685 3.245h158.333v52.918h-158.333z"/><path stroke="#676767" stroke-miterlimit="10" fill="none" d="M162.019 46.688h-158.334"/><path fill="none" d="M22.597 20.749h116.511v59.03h-116.511z"/><path d="M47.126 32.055c-.481.194-.948.338-1.398.432-.451.096-.92.143-1.407.143-.779 0-1.471-.115-2.07-.345-.601-.229-1.106-.571-1.52-1.025-.413-.452-.725-1.017-.938-1.688-.213-.673-.319-1.454-.319-2.345 0-.914.116-1.726.349-2.437.233-.711.564-1.312.996-1.802.433-.489.956-.863 1.573-1.12.617-.258 1.311-.386 2.079-.386.249 0 .483.005.701.016.219.012.433.032.644.063.211.031.423.07.64.121.216.049.439.113.672.19v2.025c-.47-.222-.918-.379-1.345-.474-.427-.094-.813-.141-1.162-.141-.516 0-.955.093-1.32.278s-.666.445-.901.78c-.234.335-.407.733-.519 1.195-.111.462-.166.97-.166 1.523 0 .586.057 1.11.17 1.572.114.462.29.854.527 1.175.236.321.542.565.913.734.37.169.811.253 1.319.253.184 0 .38-.018.593-.055.214-.035.43-.082.647-.141.219-.059.435-.127.646-.207.214-.08.411-.162.595-.244l.001 1.91zM56.888 28.195c0 .664-.094 1.271-.282 1.823-.188.551-.459 1.021-.813 1.414-.354.394-.789.697-1.304.914-.514.215-1.101.323-1.76.323-.625 0-1.184-.092-1.677-.274-.493-.182-.91-.455-1.253-.816-.343-.362-.606-.816-.789-1.361s-.274-1.181-.274-1.905c0-.67.097-1.278.286-1.826.191-.548.465-1.016.822-1.403.356-.387.792-.688 1.307-.9.516-.212 1.097-.319 1.743-.319.631 0 1.192.093 1.686.278.492.185.91.461 1.253.826.343.365.604.817.785 1.355.18.539.27 1.163.27 1.871zm-2.109.05c0-.874-.165-1.531-.493-1.972-.329-.439-.814-.66-1.457-.66-.354 0-.656.069-.905.208-.249.139-.454.328-.614.568-.161.241-.278.521-.353.843-.075.321-.112.664-.112 1.029 0 .88.177 1.543.531 1.988.354.444.838.668 1.453.668.337 0 .631-.067.88-.203s.451-.323.605-.563c.155-.241.271-.524.35-.853.077-.325.115-.677.115-1.053zM63.188 25.746v6.732h-2.059v-6.732h-2.938v-1.701h7.937v1.701h-2.94zM75.573 28.112c0 .774-.108 1.444-.327 2.009-.22.564-.523 1.033-.913 1.406-.392.373-.852.65-1.382.83-.531.181-1.109.271-1.735.271-.21 0-.42-.015-.631-.042-.21-.027-.401-.063-.573-.107v3.295h-2.025v-11.729h1.751l.051 1.245c.171-.216.35-.412.534-.589.187-.178.387-.328.603-.453.216-.124.448-.22.697-.286s.527-.1.838-.1c.498 0 .94.1 1.328.299.387.199.712.482.976.851.263.368.463.813.602 1.337.136.522.206 1.11.206 1.763zm-2.125.083c0-.465-.032-.86-.1-1.188-.065-.326-.162-.595-.287-.805-.124-.21-.275-.364-.456-.461-.18-.097-.386-.145-.619-.145-.343 0-.671.138-.983.414-.313.277-.644.653-.992 1.129v3.686c.161.062.358.11.593.149.235.039.476.059.718.059.321 0 .613-.066.875-.199.264-.133.487-.32.674-.564.185-.242.327-.541.427-.893.097-.352.15-.744.15-1.182zM82.404 31.557c-.293.73-.599 1.371-.917 1.922-.317.551-.668 1.01-1.05 1.379-.382.367-.807.645-1.273.83-.469.186-.992.277-1.573.277l-.452-.021-.502-.063v-1.718l.228.037.271.032.287.021.27.01c.232 0 .448-.045.647-.134s.383-.212.552-.37c.169-.156.323-.346.461-.564.138-.217.26-.457.365-.717l-3.345-8.435h2.258l1.751 4.781.522 1.544.516-1.478 1.768-4.848h2.175l-2.959 7.515zM94.723 30.777l-.1 3.826h-1.876v-2.125h-5.113v2.125h-1.868l-.107-3.826h.208c.21 0 .404-.031.585-.092.18-.062.347-.178.502-.35.154-.172.293-.412.415-.722.122-.311.231-.715.332-1.213.1-.498.184-1.104.253-1.817.068-.714.126-1.561.17-2.54h5.711v6.731h.889v.003zm-2.872-5.031h-1.884c-.055.73-.111 1.371-.166 1.922-.055.551-.127 1.026-.216 1.428-.089.402-.205.739-.35 1.013-.144.273-.281.496-.415.668h3.03v-5.031h.001zM101.197 32.479v-3.552h-3.278v3.552h-1.992v-8.434h1.992v3.162h3.278v-3.162h1.984v8.434h-1.984zM110.527 32.479v-5.271h-.017l-3.329 5.271h-1.917v-8.434h1.992v5.271h.017l3.32-5.271h1.926v8.434h-1.992zM119.974 32.479l-3.171-4.216v4.216h-1.992v-8.434h1.992v3.569l2.988-3.569h2.499l-3.42 3.844 3.701 4.589h-2.597z"/></svg>