<svg xmlns="http://www.w3.org/2000/svg" width="165.773" height="66.643" viewBox="0 0 165.773 66.643"><path fill="#E6E7E8" stroke="#676767" stroke-miterlimit="10" d="M160.775 50.388c0 7.589-5.373 13.741-12 13.741h-133.775c-6.627 0-12-6.151-12-13.741v-33.646c0-7.59 5.373-13.742 12-13.742h133.774c6.627 0 12 6.152 12 13.742v33.646z"/><path fill="none" d="M-2 7.099h165.773v59.03h-165.773z"/><path d="M29.173 13.357c0 .984-.115 1.835-.344 2.549-.23.714-.545 1.301-.946 1.76s-.872.8-1.411 1.021c-.54.221-1.117.332-1.73.332-1.429 0-2.501-.476-3.222-1.424-.72-.949-1.079-2.328-1.079-4.14 0-.983.115-1.834.345-2.548s.545-1.301.945-1.76c.401-.459.872-.8 1.411-1.021.54-.222 1.117-.332 1.731-.332 1.428 0 2.501.474 3.221 1.419.72.947 1.079 2.33 1.079 4.144zm-2.158.1c0-1.283-.171-2.24-.515-2.871-.345-.631-.908-.946-1.693-.946-.393 0-.728.082-1.004.244-.276.163-.505.403-.685.719-.181.315-.313.705-.396 1.167s-.125.991-.125 1.589c0 1.284.173 2.242.52 2.873.346.631.908.945 1.688.945.394 0 .729-.081 1.008-.244.28-.163.508-.402.686-.72.177-.313.307-.704.39-1.166s.126-.992.126-1.59zM35.183 12.096v6.731h-2.059v-6.731h-2.938v-1.701h7.937v1.701h-2.94zM46.804 18.504c-.398.161-.811.28-1.237.357-.426.077-.872.116-1.336.116-.669 0-1.27-.091-1.801-.274-.531-.182-.982-.453-1.353-.813-.371-.36-.654-.807-.852-1.337-.196-.531-.294-1.146-.294-1.844 0-.675.106-1.287.32-1.834.213-.549.513-1.016.899-1.402.388-.388.854-.688 1.398-.896.545-.21 1.153-.314 1.822-.314.548 0 1.009.028 1.382.087.374.059.71.132 1.009.22v1.968c-.343-.172-.715-.305-1.116-.397-.4-.095-.782-.143-1.142-.143-.376 0-.714.064-1.013.191-.3.127-.552.305-.756.531-.203.226-.36.502-.469.825-.106.323-.162.68-.162 1.066 0 .404.059.767.174 1.088.116.32.281.593.494.817.213.224.47.396.769.515s.631.178.996.178c.177 0 .363-.012.561-.037.196-.023.394-.061.589-.106.197-.047.392-.103.581-.162.191-.062.37-.127.536-.199l.001 1.799zM54.582 18.828l-3.171-4.217v4.217h-1.992v-8.434h1.992v3.568l2.987-3.568h2.499l-3.42 3.844 3.702 4.59h-2.597zM63.962 18.828l-.05-1.104c-.178.188-.362.359-.557.519-.193.157-.406.294-.639.411-.232.115-.485.206-.76.27-.273.063-.574.097-.9.097-.432 0-.811-.064-1.137-.191s-.602-.305-.822-.531c-.221-.226-.389-.501-.502-.821-.114-.32-.17-.675-.17-1.063 0-.397.084-.766.253-1.104.168-.338.426-.628.771-.871.346-.244.777-.436 1.295-.573.518-.139 1.125-.208 1.821-.208h1.104v-.509c0-.216-.03-.411-.091-.585-.062-.175-.159-.322-.295-.444s-.312-.216-.527-.282c-.216-.065-.481-.1-.797-.1-.498 0-.989.057-1.474.17-.483.113-.953.272-1.406.479v-1.619c.403-.16.87-.293 1.397-.398.529-.104 1.078-.157 1.648-.157.625 0 1.162.061 1.609.18.448.119.818.297 1.108.535.291.237.505.534.644.893.139.356.208.773.208 1.249v5.761h-1.734v-.004zm-.291-3.726h-1.237c-.343 0-.634.033-.872.1-.237.067-.432.157-.581.273-.148.115-.259.25-.328.401-.068.152-.104.314-.104.486 0 .343.111.604.332.784.221.18.522.27.905.27.281 0 .575-.103.88-.308.304-.204.639-.498 1.004-.879l.001-1.127zM73.192 18.828v-3.553h-3.278v3.553h-1.992v-8.434h1.992v3.162h3.278v-3.162h1.984v8.434h-1.984zM82.522 18.828v-5.271h-.017l-3.329 5.271h-1.916v-8.434h1.992v5.271h.017l3.32-5.271h1.926v8.434h-1.993zM94.301 14.462c0 .774-.109 1.444-.328 2.01-.219.563-.522 1.032-.913 1.406-.391.373-.851.65-1.382.83-.531.181-1.109.271-1.735.271-.21 0-.42-.015-.631-.042-.21-.027-.4-.063-.573-.107v3.295h-2.024v-11.73h1.751l.05 1.245c.171-.217.35-.412.535-.589.186-.179.386-.328.602-.453.217-.124.448-.221.697-.286.249-.066.528-.101.838-.101.498 0 .941.101 1.328.3.387.198.712.481.977.851.263.368.463.813.602 1.337.137.522.206 1.11.206 1.763zm-2.125.083c0-.465-.033-.859-.1-1.188-.066-.326-.162-.595-.287-.805-.124-.211-.276-.364-.456-.462-.181-.097-.387-.145-.619-.145-.343 0-.671.138-.984.414-.313.277-.643.653-.992 1.129v3.686c.161.063.358.111.594.15.234.038.475.058.718.058.321 0 .613-.065.875-.198.263-.133.487-.321.673-.564s.328-.541.427-.893c.098-.352.151-.745.151-1.182zM103.656 14.545c0 .664-.094 1.271-.281 1.822-.188.551-.459 1.022-.813 1.415-.354.393-.789.697-1.303.913s-1.101.324-1.76.324c-.625 0-1.185-.092-1.678-.274-.492-.182-.909-.455-1.253-.816-.343-.362-.605-.816-.789-1.361-.183-.545-.273-1.181-.273-1.905 0-.67.096-1.278.286-1.826s.465-1.016.821-1.402c.356-.388.792-.688 1.308-.9.515-.212 1.096-.319 1.743-.319.631 0 1.191.094 1.685.278.493.186.91.461 1.253.826s.604.817.785 1.355c.179.538.269 1.162.269 1.87zm-2.108.05c0-.874-.165-1.531-.494-1.973-.329-.438-.814-.66-1.457-.66-.354 0-.656.069-.905.208-.249.14-.454.328-.613.568-.161.241-.278.521-.354.843s-.112.664-.112 1.029c0 .88.178 1.543.531 1.988.354.444.838.668 1.453.668.337 0 .631-.067.88-.203s.451-.324.606-.564c.154-.24.271-.523.349-.852.077-.325.116-.676.116-1.052zM108.62 18.978c-.564 0-1.122-.021-1.674-.063-.55-.041-1.103-.104-1.655-.187v-8.251c1.167-.155 2.335-.232 3.503-.232 1.272 0 2.208.176 2.806.527.598.351.896.867.896 1.548 0 .222-.032.436-.096.644-.063.207-.162.398-.295.572-.133.175-.299.335-.498.481-.198.146-.437.265-.714.354.277.033.537.101.78.199s.458.229.644.39c.186.16.332.355.439.585.108.229.162.486.162.769 0 .908-.367 1.579-1.101 2.014-.73.433-1.797.65-3.197.65zm1.785-6.285c0-.311-.136-.543-.406-.701-.271-.157-.676-.236-1.212-.236-.337 0-.617.005-.839.014-.221.008-.442.025-.663.054v1.959h1.436c.354 0 .631-.026.83-.079s.361-.124.485-.216c.125-.091.217-.204.277-.34.061-.137.092-.289.092-.455zm-1.528 4.757c.625 0 1.096-.104 1.411-.314.314-.211.473-.495.473-.855 0-.343-.149-.609-.448-.801-.299-.19-.779-.286-1.443-.286h-1.585v2.142c.266.044.522.074.771.093.249.012.523.021.821.021zM120.042 18.828l-.05-1.104c-.178.188-.362.359-.557.519-.193.157-.407.294-.639.411-.232.115-.485.206-.76.27-.273.063-.574.097-.9.097-.432 0-.811-.064-1.137-.191s-.602-.305-.822-.531c-.221-.226-.389-.501-.502-.821-.114-.32-.17-.675-.17-1.063 0-.397.084-.766.253-1.104.168-.338.426-.628.771-.871.347-.244.778-.436 1.296-.573.518-.139 1.125-.208 1.821-.208h1.104v-.509c0-.216-.03-.411-.091-.585-.062-.175-.159-.322-.296-.444-.135-.122-.311-.216-.526-.282-.216-.065-.481-.1-.797-.1-.498 0-.989.057-1.474.17-.483.113-.954.272-1.406.479v-1.619c.403-.16.869-.293 1.397-.398.529-.104 1.078-.157 1.648-.157.625 0 1.162.061 1.609.18.448.119.818.297 1.108.535.291.237.505.534.644.893.139.356.208.773.208 1.249v5.761h-1.734v-.004zm-.291-3.726h-1.237c-.343 0-.634.033-.872.1s-.432.157-.581.273c-.148.115-.259.25-.328.401-.068.152-.104.314-.104.486 0 .343.11.604.332.784.221.18.522.27.905.27.281 0 .575-.103.88-.308.304-.204.639-.498 1.004-.879l.001-1.127zM128.65 12.096v6.731h-2.059v-6.731h-2.938v-1.701h7.937v1.701h-2.94zM137.175 13.391c.752 0 1.385.07 1.896.212.513.142.927.337 1.241.585.315.25.551.536.706.858.155.324.232.666.232 1.025 0 .426-.088.816-.267 1.17-.177.354-.438.66-.785.918-.346.257-.773.458-1.285.603-.513.144-1.194.216-2.046.216-.454 0-1.019-.019-1.693-.055-.675-.035-1.262-.085-1.76-.146v-8.384h1.976v3.047c.277-.019.556-.029.838-.038l.947-.011zm.008 4.026c.664 0 1.151-.122 1.461-.364.311-.243.465-.537.465-.881 0-.177-.032-.338-.1-.48-.067-.144-.177-.271-.332-.378s-.37-.195-.643-.262c-.274-.066-.666-.101-1.176-.101-.271 0-.53.006-.779.019-.249.011-.479.026-.689.049v2.283c.221.032.473.061.755.082.282.022.628.033 1.038.033zM31.215 39.229l-3.171-4.217v4.217h-1.992v-8.435h1.992v3.569l2.988-3.569h2.498l-3.42 3.845 3.702 4.59h-2.597zM42.903 34.945c0 .664-.094 1.271-.281 1.822-.188.551-.459 1.021-.813 1.415-.354.393-.789.696-1.303.913-.514.216-1.102.323-1.76.323-.625 0-1.185-.092-1.678-.273-.492-.183-.909-.455-1.253-.817-.343-.362-.605-.815-.789-1.361-.183-.545-.273-1.181-.273-1.904 0-.67.095-1.278.287-1.826.189-.548.465-1.016.82-1.403.357-.387.793-.688 1.309-.899.515-.212 1.096-.319 1.743-.319.631 0 1.191.093 1.685.278.493.185.91.461 1.253.826.343.364.604.816.784 1.355s.269 1.162.269 1.87zm-2.109.05c0-.874-.165-1.531-.494-1.972-.33-.439-.815-.66-1.457-.66-.354 0-.656.069-.905.208s-.454.328-.613.568c-.161.24-.278.521-.354.843-.074.321-.112.664-.112 1.029 0 .88.178 1.543.531 1.987.354.445.838.668 1.453.668.337 0 .631-.066.88-.203.249-.136.451-.323.606-.563.154-.241.271-.524.349-.853.078-.324.116-.676.116-1.052zM50.672 39.229l-.199-4.441-.075-2.05-.522 1.411-1.204 3.104h-1.278l-1.087-3.104-.457-1.411-.058 2.017-.184 4.476h-1.734l.53-8.435h2.309l.955 2.623.457 1.461.457-1.395 1.004-2.689h2.349l.54 8.435-1.803-.002zM60.019 39.229l-.199-4.441-.074-2.05-.523 1.411-1.204 3.104h-1.279l-1.088-3.104-.457-1.411-.058 2.017-.183 4.476h-1.734l.531-8.435h2.308l.955 2.623.457 1.461.457-1.395 1.004-2.689h2.349l.54 8.435-1.802-.002zM70.694 34.364l-.012.54-.038.622h-5.545c0 .371.057.697.17.979.113.282.273.52.481.71.207.19.456.337.747.437.29.1.612.148.967.148.41 0 .848-.031 1.314-.096.469-.063.954-.167 1.457-.311v1.608c-.216.063-.45.117-.706.166-.254.052-.515.096-.779.134-.267.038-.534.067-.806.088-.271.02-.533.028-.789.028-.642 0-1.217-.092-1.727-.273-.51-.183-.941-.452-1.295-.811-.354-.355-.625-.798-.813-1.323-.188-.525-.281-1.135-.281-1.826 0-.687.094-1.311.281-1.871.188-.562.454-1.043.798-1.444.343-.4.759-.711 1.25-.93.488-.219 1.035-.328 1.639-.328.598 0 1.126.093 1.585.278.459.185.844.442 1.154.774.31.332.545.729.706 1.188.161.46.242.965.242 1.513zm-2.059-.29c.005-.332-.036-.622-.125-.868s-.209-.449-.361-.609c-.151-.16-.329-.279-.53-.356-.202-.077-.419-.116-.651-.116-.509 0-.927.17-1.253.512-.327.34-.521.819-.581 1.439l3.501-.002zM80.281 34.862c0 .774-.108 1.444-.327 2.009s-.522 1.033-.913 1.407c-.391.373-.852.65-1.382.83-.531.18-1.109.27-1.735.27-.21 0-.42-.014-.631-.042-.21-.026-.401-.063-.573-.106v3.295h-2.025v-11.73h1.751l.051 1.245c.171-.216.35-.412.535-.589.186-.178.387-.328.603-.453.216-.124.448-.22.697-.286.249-.065.527-.1.838-.1.498 0 .94.1 1.328.299.387.199.712.482.975.852.263.367.464.813.602 1.337.137.521.206 1.109.206 1.762zm-2.125.083c0-.465-.032-.86-.1-1.188-.066-.325-.162-.595-.286-.805-.125-.21-.276-.364-.457-.461-.18-.097-.386-.145-.618-.145-.343 0-.671.138-.982.414-.313.276-.645.652-.992 1.129v3.686c.161.063.358.111.594.15.235.038.475.058.719.058.32 0 .612-.066.876-.199.263-.133.486-.32.672-.563s.328-.541.428-.894c.098-.352.146-.744.146-1.182zM87.212 39.229v-3.347c-.293.117-.6.202-.917.259-.318.056-.635.083-.95.083-.686 0-1.27-.069-1.751-.208s-.873-.345-1.174-.618c-.302-.273-.522-.612-.66-1.018-.138-.404-.208-.868-.208-1.395v-2.191h1.984v1.942c0 .315.029.589.091.821.061.231.165.425.311.577.147.151.339.266.577.341.238.073.537.11.896.11.304 0 .605-.029.904-.091.299-.061.599-.144.896-.249v-3.453h1.983v8.435l-1.982.002zM98.734 34.364l-.012.54-.038.622h-5.545c0 .371.057.697.17.979.113.282.273.52.481.71.207.19.456.337.747.437.29.1.612.148.967.148.41 0 .848-.031 1.314-.096.469-.063.954-.167 1.457-.311v1.608c-.216.063-.45.117-.706.166-.254.052-.515.096-.779.134-.267.038-.534.067-.806.088-.271.02-.533.028-.789.028-.642 0-1.217-.092-1.727-.273-.51-.183-.941-.452-1.295-.811-.354-.355-.625-.798-.813-1.323-.188-.525-.281-1.135-.281-1.826 0-.687.094-1.311.281-1.871.188-.562.454-1.043.798-1.444.343-.4.759-.711 1.25-.93.488-.219 1.035-.328 1.639-.328.598 0 1.126.093 1.585.278.459.185.844.442 1.154.774.31.332.545.729.706 1.188.161.46.242.965.242 1.513zm-2.059-.29c.005-.332-.036-.622-.125-.868s-.209-.449-.361-.609c-.151-.16-.329-.279-.53-.356-.202-.077-.42-.116-.651-.116-.509 0-.927.17-1.253.512-.327.34-.521.819-.581 1.439l3.501-.002zM107.558 38.904c-.397.161-.811.28-1.237.357-.426.076-.871.115-1.336.115-.669 0-1.27-.091-1.801-.273s-.981-.453-1.353-.813c-.371-.359-.654-.806-.852-1.337-.196-.531-.295-1.146-.295-1.843 0-.675.106-1.287.319-1.834.213-.549.514-1.016.9-1.403.388-.387.854-.687 1.399-.896.545-.21 1.152-.315 1.822-.315.548 0 1.008.029 1.382.087.373.06.709.132 1.008.221v1.968c-.343-.172-.715-.306-1.117-.398-.4-.094-.78-.142-1.141-.142-.376 0-.714.063-1.013.19-.3.127-.552.306-.755.531-.204.227-.361.502-.47.826-.107.323-.162.679-.162 1.066 0 .403.059.767.175 1.088.115.319.28.593.493.816.214.225.47.396.769.516.299.118.631.178.996.178.177 0 .363-.012.56-.037.197-.024.394-.061.59-.107l.581-.161c.19-.062.369-.127.535-.199l.003 1.799zM115.335 39.229l-3.171-4.217v4.217h-1.992v-8.435h1.992v3.569l2.987-3.569h2.499l-3.42 3.845 3.702 4.59h-2.597zM124.583 39.229v-5.271h-.018l-3.329 5.271h-1.917v-8.435h1.992v5.271h.018l3.319-5.271h1.927v8.435h-1.992zM133.929 39.229v-5.271h-.017l-3.329 5.271h-1.917v-8.435h1.992v5.271h.017l3.32-5.271h1.926v8.435h-1.992zm1.204-11.729c0 .758-.259 1.348-.776 1.769-.517.421-1.216.631-2.096.631-.509 0-.941-.062-1.295-.184-.354-.121-.645-.289-.867-.507-.225-.215-.388-.469-.49-.759-.102-.291-.152-.606-.152-.95h1.851c0 .183.019.351.054.502.036.152.093.28.17.387.078.105.178.187.3.244.122.059.273.088.457.088.177 0 .329-.033.457-.101.128-.066.229-.155.307-.266.078-.111.136-.242.174-.396.038-.152.059-.306.059-.46l1.847.002zM59.156 59.629v-5.271h-.017l-3.329 5.271h-1.917v-8.434h1.992v5.271h.017l3.32-5.271h1.926v8.434h-1.992zM68.519 59.629v-3.553h-3.279v3.553h-1.991v-8.434h1.991v3.162h3.279v-3.162h1.984v8.434h-1.984zM75.907 59.778c-.564 0-1.122-.021-1.673-.063-.551-.041-1.103-.104-1.655-.187v-8.251c1.167-.155 2.335-.232 3.503-.232 1.272 0 2.208.177 2.806.527s.896.867.896 1.548c0 .222-.032.437-.097.645-.063.207-.162.397-.294.571-.133.176-.299.335-.498.481-.199.146-.437.265-.714.354.277.033.537.101.78.199.243.1.458.229.643.391.187.159.332.354.44.585.106.229.162.485.162.768 0 .908-.367 1.579-1.101 2.014-.731.434-1.798.65-3.198.65zm1.784-6.284c0-.31-.136-.543-.406-.701-.271-.156-.676-.235-1.213-.235-.337 0-.616.004-.838.013-.221.008-.442.026-.664.054v1.959h1.437c.354 0 .631-.025.83-.079.199-.053.36-.124.485-.216.124-.091.218-.204.278-.34.061-.137.091-.289.091-.455zm-1.527 4.757c.625 0 1.096-.104 1.411-.314.314-.21.473-.495.473-.855 0-.343-.149-.608-.448-.801-.299-.19-.78-.286-1.444-.286h-1.586v2.143c.267.044.523.073.772.092.249.012.523.021.822.021zM89.636 55.346c0 .664-.094 1.271-.282 1.821-.188.552-.459 1.022-.813 1.415-.354.394-.789.697-1.304.913-.514.216-1.101.324-1.76.324-.625 0-1.184-.092-1.677-.274-.493-.182-.91-.455-1.253-.816-.343-.362-.606-.816-.789-1.361s-.274-1.181-.274-1.905c0-.67.096-1.277.287-1.825.19-.549.465-1.017.821-1.403.357-.387.793-.688 1.308-.9.516-.212 1.097-.318 1.743-.318.631 0 1.192.093 1.686.277.492.186.909.461 1.253.826.343.365.604.817.784 1.356.18.538.27 1.162.27 1.87zm-2.108.05c0-.874-.165-1.531-.493-1.973-.33-.438-.815-.659-1.457-.659-.354 0-.656.068-.905.208-.249.139-.454.327-.614.567-.161.241-.278.521-.353.843s-.112.664-.112 1.029c0 .88.177 1.543.531 1.988.354.445.838.668 1.453.668.337 0 .631-.067.88-.203s.451-.324.605-.563c.155-.241.271-.524.35-.853.076-.325.115-.677.115-1.052zM96.542 59.629v-5.271h-.018l-3.329 5.271h-1.915v-8.434h1.992v5.271h.018l3.319-5.271h1.927v8.434h-1.994zm1.204-11.729c0 .758-.26 1.347-.776 1.768s-1.216.631-2.096.631c-.51 0-.941-.061-1.295-.183s-.645-.29-.867-.507c-.226-.215-.388-.469-.49-.759-.102-.291-.153-.607-.153-.95h1.852c0 .182.018.35.054.502s.092.28.17.386c.078.106.177.188.299.245s.274.087.457.087c.178 0 .329-.033.457-.1s.229-.155.308-.267c.078-.11.136-.241.174-.395s.058-.306.058-.46l1.848.002zM107.558 59.305c-.397.16-.811.279-1.237.356-.426.077-.871.116-1.336.116-.669 0-1.27-.091-1.801-.274-.531-.182-.981-.452-1.353-.813s-.654-.806-.852-1.337c-.196-.531-.295-1.146-.295-1.843 0-.676.106-1.287.319-1.834.213-.55.514-1.017.9-1.403.388-.387.854-.688 1.399-.896.545-.21 1.152-.314 1.822-.314.548 0 1.008.028 1.382.087.373.059.709.132 1.008.22v1.968c-.343-.172-.715-.305-1.117-.397-.4-.094-.78-.143-1.141-.143-.376 0-.714.064-1.013.191-.3.127-.552.305-.755.531-.204.226-.361.502-.47.826-.107.322-.162.679-.162 1.065 0 .404.059.768.175 1.088.115.32.28.594.493.817.214.224.47.396.769.515s.631.179.996.179c.177 0 .363-.013.56-.037.197-.024.394-.062.59-.107.196-.047.391-.102.581-.162s.369-.127.535-.199l.003 1.8z"/></svg>