<svg xmlns="http://www.w3.org/2000/svg" width="165.773" height="63.622" viewBox="0 0 165.773 63.622"><path fill="#8F8F8E" stroke="#676767" stroke-miterlimit="10" d="M139.175 58.75l-113.34.002-22.407-24.994 22.512-29.01h113.34l22.494 25.201z"/><path fill="none" d="M10.852 11.036h138v41.779h-138z"/><path fill="#fff" d="M30.18 22.765l-3.262-5.246v5.246h-2.075v-10.85h2.075v4.939l3.246-4.939h2.465l-3.687 5.172 3.876 5.678h-2.638zM41.868 18.482c0 .664-.095 1.271-.282 1.822-.188.551-.459 1.022-.813 1.415-.354.393-.789.697-1.303.913-.514.216-1.101.324-1.76.324-.625 0-1.185-.092-1.677-.274-.493-.182-.91-.455-1.254-.817-.343-.362-.605-.816-.788-1.361-.184-.545-.274-1.181-.274-1.905 0-.67.096-1.278.286-1.826s.465-1.016.822-1.403c.355-.387.792-.688 1.307-.9.515-.212 1.096-.319 1.743-.319.631 0 1.191.093 1.685.278.493.185.91.461 1.253.826.343.365.604.817.785 1.356.18.539.27 1.163.27 1.871zm-2.109.05c0-.874-.165-1.531-.494-1.972-.329-.439-.813-.66-1.457-.66-.354 0-.656.069-.905.208-.249.139-.453.328-.613.568-.161.241-.278.521-.354.843-.075.321-.111.664-.111 1.029 0 .88.177 1.543.53 1.988.354.445.838.668 1.453.668.337 0 .631-.067.88-.203s.451-.324.606-.564c.155-.241.271-.524.349-.852.078-.326.116-.677.116-1.053zM49.637 22.765l-.199-4.441-.075-2.05-.522 1.411-1.204 3.104h-1.278l-1.087-3.104-.457-1.411-.058 2.017-.184 4.475h-1.734l.531-8.434h2.308l.955 2.623.457 1.461.457-1.395 1.004-2.689h2.349l.54 8.434-1.803-.001zM58.984 22.765l-.198-4.441-.075-2.05-.523 1.411-1.204 3.104h-1.277l-1.087-3.104-.457-1.411-.059 2.017-.183 4.475h-1.735l.531-8.434h2.308l.955 2.623.457 1.461.457-1.395 1.004-2.689h2.35l.54 8.434-1.804-.001zM69.659 17.901l-.014.54-.037.622h-5.545c0 .371.058.697.17.979.114.282.274.519.481.71.208.19.457.336.747.436.291.1.613.149.967.149.41 0 .848-.032 1.316-.096.467-.063.952-.167 1.457-.311v1.609c-.217.062-.451.117-.706.166-.254.051-.516.095-.78.133-.266.039-.534.068-.805.088-.271.02-.534.029-.789.029-.643 0-1.218-.092-1.728-.274-.51-.182-.94-.452-1.295-.81-.354-.356-.625-.798-.813-1.324-.188-.525-.282-1.134-.282-1.826 0-.686.094-1.31.282-1.871.188-.561.454-1.043.797-1.444s.76-.711 1.249-.93c.489-.219 1.037-.328 1.64-.328.598 0 1.126.093 1.585.278.459.185.844.443 1.154.775.31.332.545.729.706 1.188s.243.964.243 1.512zm-2.059-.29c.005-.332-.036-.622-.125-.868s-.209-.449-.361-.61c-.151-.16-.329-.279-.53-.356-.202-.077-.419-.116-.652-.116-.509 0-.927.17-1.253.511-.327.34-.52.82-.581 1.44l3.502-.001zM79.246 18.399c0 .774-.109 1.444-.328 2.009-.219.564-.523 1.033-.913 1.407-.392.373-.852.65-1.382.83-.531.18-1.109.27-1.735.27-.21 0-.42-.014-.631-.042-.21-.027-.401-.063-.573-.107v3.295h-2.024v-11.729h1.751l.05 1.245c.171-.216.35-.412.535-.589.186-.178.386-.328.602-.453.216-.124.448-.22.697-.286s.527-.1.838-.1c.498 0 .94.1 1.328.299.387.199.712.482.976.851.264.368.463.813.603 1.337.137.522.206 1.11.206 1.763zm-2.125.083c0-.465-.033-.86-.101-1.188-.065-.326-.162-.595-.287-.805-.124-.21-.275-.364-.456-.461-.18-.097-.386-.145-.618-.145-.344 0-.672.138-.984.414-.313.277-.643.653-.992 1.129v3.686c.161.062.358.111.593.15.235.038.476.058.719.058.32 0 .612-.066.875-.199s.486-.321.673-.564c.185-.243.328-.541.427-.893s.151-.745.151-1.182zM86.177 22.765v-3.346c-.293.117-.599.202-.917.258-.318.056-.635.083-.951.083-.686 0-1.27-.069-1.751-.208-.48-.138-.873-.344-1.175-.618-.301-.273-.521-.612-.66-1.017s-.208-.869-.208-1.395v-2.191h1.985v1.942c0 .315.029.589.091.821.061.232.165.425.312.577s.34.266.577.341c.238.074.537.111.896.111.304 0 .605-.03.904-.091.3-.061.599-.144.896-.249v-3.453h1.984v8.434l-1.983.001zM97.699 17.901l-.014.54-.037.622h-5.545c0 .371.058.697.17.979.114.282.274.519.481.71.208.19.457.336.747.436.291.1.612.149.967.149.41 0 .848-.032 1.316-.096.467-.063.952-.167 1.457-.311v1.609c-.217.062-.451.117-.706.166-.254.051-.516.095-.78.133-.266.039-.534.068-.805.088-.271.02-.534.029-.789.029-.643 0-1.218-.092-1.728-.274-.51-.182-.94-.452-1.295-.81-.354-.356-.625-.798-.813-1.324-.188-.525-.282-1.134-.282-1.826 0-.686.094-1.31.282-1.871.188-.561.453-1.043.797-1.444.343-.401.76-.711 1.249-.93.489-.219 1.037-.328 1.64-.328.598 0 1.126.093 1.585.278.459.185.844.443 1.154.775.31.332.545.729.706 1.188s.243.964.243 1.512zm-2.059-.29c.005-.332-.036-.622-.125-.868s-.209-.449-.361-.61c-.151-.16-.329-.279-.53-.356-.202-.077-.419-.116-.652-.116-.509 0-.927.17-1.253.511-.327.34-.521.82-.581 1.44l3.502-.001zM106.522 22.441c-.397.161-.811.28-1.236.357-.427.077-.872.116-1.336.116-.67 0-1.271-.091-1.802-.274-.53-.182-.981-.453-1.353-.813-.371-.36-.654-.806-.852-1.337-.195-.531-.294-1.146-.294-1.843 0-.675.106-1.287.32-1.834.213-.549.513-1.016.9-1.403s.854-.687 1.397-.896c.545-.21 1.153-.315 1.822-.315.548 0 1.009.029 1.382.087.374.059.71.132 1.009.22v1.968c-.343-.172-.715-.305-1.115-.398-.401-.094-.782-.142-1.143-.142-.376 0-.714.064-1.013.191s-.551.305-.755.531c-.204.226-.361.502-.47.826-.106.323-.161.679-.161 1.066 0 .404.058.767.174 1.088.115.32.28.593.494.817.213.224.469.396.768.515.299.119.631.178.996.178.177 0 .364-.012.561-.037.196-.024.394-.061.59-.107.196-.047.391-.102.58-.162.191-.061.37-.127.536-.199l.001 1.8zM114.3 22.765l-3.171-4.217v4.217h-1.992v-8.434h1.992v3.569l2.988-3.569h2.499l-3.421 3.844 3.702 4.59h-2.597zM123.547 22.765v-5.271h-.018l-3.328 5.271h-1.917v-8.434h1.991v5.271h.018l3.319-5.271h1.927v8.434h-1.992zM132.894 22.765v-5.271h-.017l-3.329 5.271h-1.917v-8.434h1.992v5.271h.017l3.32-5.271h1.926v8.434h-1.992zm1.204-11.728c0 .758-.259 1.347-.776 1.768-.518.421-1.216.631-2.096.631-.509 0-.94-.061-1.295-.183-.354-.122-.643-.29-.868-.507-.224-.215-.387-.469-.488-.759-.104-.291-.154-.607-.154-.95h1.851c0 .182.019.35.055.502.035.152.093.28.17.386.076.106.177.187.299.245s.273.087.457.087c.177 0 .329-.033.457-.1s.229-.155.307-.266c.078-.111.136-.242.174-.395s.059-.306.059-.46l1.848.001zM20.734 43.167v-5.271h-.017l-3.329 5.271h-1.917v-8.435h1.992v5.271h.017l3.32-5.271h1.926v8.435h-1.992zM30.097 43.167v-3.554h-3.279v3.554h-1.991v-8.435h1.991v3.162h3.279v-3.162h1.984v8.435h-1.984zM37.485 43.315c-.563 0-1.122-.021-1.673-.063-.55-.041-1.103-.104-1.656-.188v-8.251c1.167-.155 2.336-.231 3.504-.231 1.272 0 2.208.176 2.806.526s.896.867.896 1.548c0 .223-.031.437-.095.645-.063.207-.162.397-.295.572-.133.174-.299.334-.498.48s-.437.266-.714.354c.277.033.537.101.78.199.243.1.458.229.644.391.186.16.332.354.439.584s.162.486.162.769c0 .908-.367 1.579-1.101 2.015-.732.433-1.799.65-3.199.65zm1.785-6.284c0-.31-.136-.543-.407-.7-.271-.158-.675-.236-1.212-.236-.337 0-.616.004-.838.013-.221.008-.442.026-.664.054v1.959h1.437c.354 0 .631-.025.83-.078.198-.054.36-.125.484-.217.125-.091.218-.203.278-.34.061-.137.092-.289.092-.455zm-1.528 4.757c.625 0 1.096-.104 1.41-.314.315-.21.474-.495.474-.855 0-.343-.149-.609-.448-.801-.299-.189-.78-.286-1.444-.286h-1.585v2.142c.267.045.523.074.772.093.248.012.522.021.821.021zM51.214 38.881c0 .664-.094 1.271-.282 1.822-.188.551-.459 1.022-.813 1.416-.354.393-.789.696-1.304.912-.514.217-1.101.324-1.76.324-.625 0-1.184-.092-1.677-.273-.493-.183-.91-.455-1.253-.817s-.606-.816-.789-1.361c-.184-.545-.274-1.181-.274-1.905 0-.67.097-1.277.286-1.826.191-.547.465-1.016.822-1.402.355-.387.792-.688 1.307-.9.516-.211 1.097-.318 1.743-.318.631 0 1.192.093 1.685.277.493.186.91.461 1.254.826.343.365.604.817.784 1.356.182.537.271 1.162.271 1.869zm-2.108.051c0-.874-.165-1.531-.494-1.973-.328-.438-.813-.66-1.457-.66-.354 0-.655.07-.904.209s-.454.328-.614.568c-.161.24-.278.521-.353.842-.075.321-.112.664-.112 1.029 0 .881.177 1.543.531 1.988.354.445.838.668 1.452.668.338 0 .632-.066.881-.203.249-.136.45-.324.605-.564s.271-.523.349-.852c.077-.323.116-.676.116-1.052zM58.121 43.167v-5.271h-.018l-3.329 5.271h-1.917v-8.435h1.992v5.271h.018l3.319-5.271h1.926v8.435h-1.991zm1.203-11.73c0 .758-.26 1.347-.776 1.769-.519.42-1.216.631-2.096.631-.51 0-.941-.062-1.295-.184s-.644-.29-.868-.507c-.225-.215-.388-.469-.489-.759-.104-.291-.154-.607-.154-.95h1.852c0 .182.018.35.054.502s.093.28.17.386c.077.106.177.188.299.245s.274.087.457.087c.177 0 .329-.033.457-.1s.229-.155.308-.266c.077-.111.136-.242.174-.395s.058-.306.058-.46l1.849.001zM69.136 42.84c-.398.162-.811.281-1.237.357-.426.077-.872.116-1.336.116-.669 0-1.27-.091-1.801-.274-.531-.182-.982-.453-1.353-.813-.371-.359-.654-.807-.852-1.337-.196-.531-.294-1.146-.294-1.843 0-.676.106-1.287.32-1.834.213-.549.513-1.017.899-1.403.388-.388.854-.687 1.398-.896.545-.211 1.153-.315 1.822-.315.548 0 1.009.028 1.382.087.374.059.71.132 1.009.22v1.968c-.343-.172-.715-.305-1.116-.397-.4-.095-.782-.142-1.142-.142-.376 0-.714.063-1.013.19-.3.127-.552.306-.756.531-.203.226-.36.502-.469.825-.106.324-.162.68-.162 1.066 0 .404.059.768.174 1.088.116.32.281.594.494.817s.47.396.769.515.631.178.996.178c.177 0 .363-.012.561-.036.196-.024.394-.062.589-.107.197-.047.392-.103.581-.162.191-.061.37-.127.536-.198l.001 1.799zM86.177 43.167v-6.699h-3.279v6.699h-1.992v-8.435h7.256v8.435h-1.985zM97.948 38.881c0 .664-.094 1.271-.281 1.822-.188.551-.459 1.022-.813 1.416-.354.393-.789.696-1.303.912-.514.217-1.101.324-1.76.324-.625 0-1.185-.092-1.678-.273-.492-.183-.909-.455-1.253-.817-.343-.362-.605-.816-.789-1.361-.183-.545-.273-1.181-.273-1.905 0-.67.096-1.277.286-1.826.19-.547.465-1.016.821-1.402s.792-.688 1.308-.9c.515-.211 1.096-.318 1.743-.318.631 0 1.191.093 1.685.277.493.186.91.461 1.253.826s.604.817.785 1.356c.179.537.269 1.162.269 1.869zm-2.109.051c0-.874-.165-1.531-.494-1.973-.329-.438-.814-.66-1.457-.66-.354 0-.656.07-.905.209s-.454.328-.613.568c-.161.24-.278.521-.354.842s-.112.664-.112 1.029c0 .881.178 1.543.531 1.988.354.445.838.668 1.453.668.337 0 .631-.066.88-.203.249-.136.451-.324.606-.564.154-.24.271-.523.349-.852.078-.323.116-.676.116-1.052zM98.753 41.379c.227.007.437-.008.631-.041.194-.032.37-.123.527-.27s.299-.365.424-.656c.124-.289.234-.684.332-1.179.097-.495.181-1.108.253-1.843s.13-1.62.174-2.66h5.711v8.434h-1.984v-6.731h-1.893c-.05 1.058-.131 1.965-.245 2.723-.113.759-.258 1.397-.436 1.918-.179.521-.386.933-.623 1.236-.238.305-.506.528-.806.673-.299.145-.627.219-.982.225-.357.006-.743-.03-1.158-.107l.075-1.722zM114.118 42.245c-.293.729-.6 1.37-.917 1.922-.318.551-.668 1.01-1.051 1.377-.382.369-.807.646-1.273.83-.468.187-.992.278-1.573.278l-.452-.021-.502-.063v-1.718l.229.037.27.033.287.021.27.009c.232 0 .448-.045.647-.133.199-.089.383-.212.552-.37.169-.157.323-.346.461-.563.139-.219.261-.459.365-.719l-3.345-8.434h2.258l1.751 4.781.523 1.544.515-1.478 1.768-4.849h2.176l-2.959 7.516zM123.564 43.167v-3.347c-.293.117-.599.202-.917.259-.317.055-.635.082-.951.082-.686 0-1.27-.068-1.751-.207-.48-.139-.873-.345-1.175-.619-.301-.272-.521-.611-.66-1.017-.139-.405-.208-.869-.208-1.396v-2.19h1.984v1.942c0 .314.03.589.091.82.062.232.165.426.313.577.146.152.339.267.577.341.237.074.536.111.896.111.304 0 .606-.029.905-.091s.598-.144.896-.249v-3.453h1.984v8.434h-1.983v.003zM135.085 38.301l-.014.539-.036.623h-5.545c0 .371.057.697.17.979.113.282.273.52.48.71.208.19.457.336.747.437.291.1.613.148.967.148.41 0 .849-.031 1.316-.096.467-.063.953-.167 1.457-.311v1.608c-.216.062-.451.117-.706.166-.254.051-.515.095-.78.133-.266.039-.534.068-.805.089-.271.02-.534.028-.789.028-.643 0-1.217-.092-1.728-.274-.51-.182-.94-.451-1.295-.81-.354-.356-.625-.798-.813-1.324-.188-.524-.282-1.134-.282-1.825 0-.687.094-1.311.282-1.871.188-.562.454-1.043.797-1.444s.76-.711 1.249-.931c.49-.219 1.037-.328 1.64-.328.599 0 1.126.094 1.585.279.459.185.845.442 1.154.774.311.332.545.729.706 1.188s.243.964.243 1.513zm-2.058-.29c.006-.332-.035-.622-.125-.868-.089-.246-.209-.449-.36-.609-.152-.16-.33-.279-.531-.356-.202-.077-.419-.116-.652-.116-.509 0-.927.17-1.253.511-.327.341-.52.82-.581 1.44l3.502-.002zM142.257 43.167v-3.554h-3.279v3.554h-1.992v-8.435h1.992v3.162h3.279v-3.162h1.984v8.435h-1.984z"/></svg>