<svg xmlns="http://www.w3.org/2000/svg" viewBox="0 0 396.7 99.2" enable-background="new 0 0 396.7 99.2"><style type="text/css">.st0{fill:#D1D3D4;stroke:#D1D3D4;stroke-width:3;stroke-miterlimit:10;} .st1{fill:#E6E7E8;stroke:#939598;stroke-width:1.4;stroke-miterlimit:10;} .st2{fill:#E6E7E8;} .st3{fill:none;} .st4{fill:#C6D4DB;} .st5{fill:#DDE9EF;} .st6{fill:#8C99A1;} .st7{fill:#F1F2F2;} .st8{fill:#ED1C24;} .st9{fill:#FFFFFF;} .st10{fill:#39B54A;} .st11{fill:#009444;} .st12{fill:#FFFFFF;stroke:#A66A2D;stroke-miterlimit:10;} .st13{fill:#A0683D;}</style><path class="st0" d="M12.7 21.6h88.5l-11 55h-87.9z"/><path class="st1" d="M308.4 21.6h88.5l-11 55h-87.9z"/><path class="st2" d="M0 79.9h87.8v19.2h-87.8z"/><path class="st3" d="M21.3 85.3h53.2v13.9h-53.2z"/><path d="M28.1 94.6c-.7.3-1.5.4-2.2.4-1.3 0-2.2-.4-2.9-1.1-.7-.8-1-1.9-1-3.3 0-.7.1-1.4.3-1.9s.5-1.1.8-1.5c.3-.4.8-.7 1.3-.9s1-.3 1.7-.3c.4 0 .8 0 1.2.1.4.1.7.2 1 .3v1.2c-.3-.2-.7-.3-1-.4-.6-.2-1-.2-1.4-.2-.4 0-.8.1-1.1.2-.3.2-.6.4-.9.7-.2.3-.4.7-.5 1.1-.1.4-.2.9-.2 1.5 0 1.2.2 2 .7 2.6s1.2.9 2.1.9c.4 0 .8 0 1.1-.1.4-.1.7-.2 1-.4v1.1zm7.8-1.7c0 .3-.1.6-.2.9s-.3.5-.6.7c-.3.2-.6.3-1.1.4-.4.1-.9.1-1.4.1h-1.2l-1.3-.1v-6.8c.4-.1.9-.1 1.3-.1h1.4c.9 0 1.6.2 2.1.5s.7.7.7 1.3c0 .4-.1.7-.3 1s-.6.5-1 .6c.2 0 .4.1.6.2.2.1.4.2.5.3.2.1.3.3.4.5s.1.3.1.5zm-1.5-3c0-.2 0-.3-.1-.4l-.3-.3s-.3-.2-.6-.2c-.2 0-.5-.1-.8-.1h-.8c-.2 0-.4 0-.6.1v2h1.4c1.2 0 1.8-.4 1.8-1.1zm.3 3c0-.4-.2-.6-.5-.8-.3-.2-.8-.3-1.5-.3h-1.5v2.2c.2 0 .4.1.7.1h.8c.4 0 .7 0 1-.1s.5-.1.6-.2.3-.2.3-.4.1-.3.1-.5zm8.8-1.8v.7h-4.8c0 .7.2 1.2.6 1.6.4.4 1 .6 1.7.6h.6s.4 0 .6-.1.4-.1.5-.1l.5-.1v1c-.3.1-.7.2-1.1.2-.4.1-.8.1-1.3.1-.6 0-1.1-.1-1.5-.2s-.8-.4-1-.7-.5-.7-.6-1.1c-.1-.4-.2-.9-.2-1.5 0-.5.1-.9.2-1.4.1-.4.3-.8.6-1.1.3-.3.6-.6 1-.8s.8-.3 1.3-.3.9.1 1.3.2.7.4.9.6c.3.3.4.6.6 1 .1.5.1.9.1 1.4zm-1.2-.1c0-.3 0-.6-.1-.8-.1-.3-.2-.5-.3-.7s-.3-.3-.6-.4c-.2-.1-.5-.2-.8-.2-.3 0-.5.1-.7.2s-.4.2-.6.4-.3.4-.4.7-.2.5-.2.8h3.7zm9.3 3.9h-1.6l-3.2-3.7v3.7h-1.2v-6.9h1.2v3.1l3.1-3.1h1.6l-3.2 3.2 3.3 3.7zm7 0h-1.2v-5.8h-1.9c-.1.9-.1 1.7-.2 2.4s-.2 1.2-.4 1.7c-.2.4-.3.8-.5 1.1-.2.3-.4.4-.6.6l-.8.1c-.2 0-.5 0-.8-.1l.1-1h.5s.3-.1.4-.3c.1-.1.3-.3.4-.6.1-.3.2-.6.3-1s.2-1 .2-1.6c.1-.6.1-1.4.2-2.3h4.2v6.8zm6.7 0v-.9c-.4.4-.8.6-1.1.8s-.9.2-1.3.2-.7-.1-1-.2-.5-.2-.7-.4c-.2-.2-.3-.4-.4-.6s-.1-.5-.1-.8c0-.7.3-1.2.8-1.6.5-.4 1.3-.6 2.3-.6h1.4v-.6c0-.4-.1-.7-.4-1-.3-.2-.7-.4-1.2-.4-.4 0-.8 0-1.1.1s-.8.2-1.2.4v-1.1l.5-.2c.2-.1.4-.1.6-.1s.3.1.6.1h.7c.4 0 .8 0 1.1.1s.6.2.8.4.4.4.5.7.2.6.2 1v4.7h-1zm-.2-3.1h-1.5c-.3 0-.6 0-.8.1s-.4.1-.5.3-.2.2-.3.4c-.1.2-.1.3-.1.5 0 .1 0 .3.1.4 0 .1.1.2.2.3.1.1.2.2.4.2s.3.1.5.1c.3 0 .6-.1.9-.2.4-.2.7-.4 1.1-.8v-1.3z"/><path class="st2" d="M298 79.9h87.8v19.2h-87.8z"/><path class="st3" d="M321.9 85.3h53.2v13.9h-53.2z"/><path d="M328.7 94.6c-.7.3-1.5.4-2.2.4-1.3 0-2.2-.4-2.9-1.1-.7-.8-1-1.9-1-3.3 0-.7.1-1.4.3-1.9s.5-1.1.8-1.5c.3-.4.8-.7 1.3-.9s1-.3 1.7-.3c.4 0 .8 0 1.2.1.4.1.7.2 1 .3v1.2c-.3-.2-.7-.3-1-.4-.3-.1-.7-.1-1.1-.1-.4 0-.8.1-1.1.2-.3.2-.6.4-.9.7-.2.3-.4.7-.5 1.1-.1.4-.2.9-.2 1.5 0 1.2.2 2 .7 2.6s1.2.9 2.1.9c.4 0 .8 0 1.1-.1.4-.1.7-.2 1-.4l-.3 1zm6.4.3v-.9c-.4.4-.8.6-1.1.8-.4.2-.8.2-1.2.2-.4 0-.7-.1-1-.2s-.5-.2-.7-.4c-.2-.2-.3-.4-.4-.6-.1-.2-.1-.5-.1-.8 0-.7.3-1.2.8-1.6.5-.4 1.3-.6 2.3-.6h1.4v-.6c0-.4-.1-.7-.4-1-.3-.2-.7-.4-1.2-.4-.4 0-.8 0-1.1.1-.4.1-.8.2-1.2.4v-1.1c.1-.1.3-.1.5-.2s.4-.1.6-.1.4-.1.6-.1h.7c.4 0 .8 0 1.1.1s.6.2.8.4c.2.2.4.4.5.7s.2.6.2 1v4.7l-1.1.2zm-.2-3.1h-1.5c-.3 0-.6 0-.8.1s-.4.1-.5.3-.2.2-.3.4c-.1.2-.1.3-.1.5 0 .1 0 .3.1.4 0 .1.1.2.2.3s.2.2.4.2.3.1.5.1c.3 0 .6-.1.9-.2.4-.2.7-.4 1.1-.8v-1.3zm9.6 3.1h-1.6l-1.9-2.6-1.8 2.6h-1.5l2.7-3.4-2.5-3.4h1.5l1.8 2.6 1.8-2.6h1.5l-2.6 3.4 2.6 3.4zm5.9 0v-.9c-.4.4-.8.6-1.1.8-.4.2-.8.2-1.2.2-.4 0-.7-.1-1-.2s-.5-.2-.7-.4c-.2-.2-.3-.4-.4-.6-.1-.2-.1-.5-.1-.8 0-.7.3-1.2.8-1.6.5-.4 1.3-.6 2.3-.6h1.4v-.6c0-.4-.1-.7-.4-1-.3-.2-.7-.4-1.2-.4-.4 0-.8 0-1.1.1-.4.1-.8.2-1.2.4v-1.1c.1-.1.3-.1.5-.2s.4-.1.6-.1.4-.1.6-.1h.7c.4 0 .8 0 1.1.1s.6.2.8.4c.2.2.4.4.5.7s.2.6.2 1v4.7l-1.1.2zm-.1-3.1h-1.5c-.3 0-.6 0-.8.1s-.4.1-.5.3-.2.2-.3.4c-.1.2-.1.3-.1.5 0 .1 0 .3.1.4 0 .1.1.2.2.3s.2.2.4.2.3.1.5.1c.3 0 .6-.1.9-.2.4-.2.7-.4 1.1-.8v-1.3zm9.3-.4c0 .6-.1 1.1-.3 1.6-.2.5-.4.8-.7 1.1s-.7.5-1.1.7-.9.2-1.3.2h-.7c-.2 0-.4-.1-.7-.1v2.9h-1.2v-9.7h1.1l.1 1.1c.3-.5.7-.8 1.1-1 .4-.2.8-.3 1.3-.3.4 0 .7.1 1 .2s.5.4.7.7c.2.3.4.7.5 1.1.1.5.2 1 .2 1.5zm-1.2 0c0-.4 0-.7-.1-1-.1-.3-.1-.6-.3-.8s-.3-.4-.4-.5c-.2-.1-.4-.2-.6-.2-.1 0-.3 0-.5.1-.2 0-.3.1-.5.2l-.5.4c-.2.2-.4.4-.6.7v3.3c.2.1.4.2.7.2.2.1.5.1.7.1.6 0 1.1-.2 1.5-.7.4-.2.6-.9.6-1.8z"/><path class="st4" d="M341.9 47.2h-14l-9.7 3h23.7z"/><path class="st5" d="M318.2 50.2h16.3v16h-16.3z"/><path class="st6" d="M341.9 62.1l-7.4 4.2v-16.1l7.4-3z"/><path class="st4" d="M351.9 50.2h-14l-9.7 3h23.7z"/><path class="st7" d="M328.2 53.2h16.3v16h-16.3z"/><path class="st6" d="M351.9 65.1l-7.4 4.1v-16l7.4-3z"/><path class="st4" d="M373.5 47.2h-14l-9.7 3h23.7z"/><path class="st5" d="M349.8 50.2h16.3v16h-16.3z"/><path class="st6" d="M373.5 62.1l-7.4 4.2v-16.1l7.4-3z"/><path class="st4" d="M362.5 32.7h-14l-9.7 3h23.7z"/><path class="st7" d="M338.8 35.7h16.3v16h-16.3z"/><path class="st6" d="M362.5 47.6l-7.4 4.1v-16l7.4-3z"/><path class="st8" d="M268 76.6h-159.1v-55h159.2l26.3 25.7z"/><path class="st3" d="M119 42.4h156.8v24.1h-156.8z"/><path class="st9" d="M124.3 52.1v-7.5h-3v7.5h-1.7v-8.9h6.4v8.9h-1.7zm9.6-3.6c0 .6-.1 1.2-.3 1.7-.2.5-.4.9-.8 1.2-.3.3-.7.5-1.1.7s-.9.2-1.4.2h-.5s-.3-.1-.5-.1v2.7h-1.7v-9.7h1.4v1l.4-.5.5-.4c.2-.1.4-.2.6-.2s.4-.1.7-.1c.4 0 .8.1 1.1.2s.6.4.8.7c.2.3.4.7.5 1.1.2.5.3 1 .3 1.5zm-1.8.1c0-.4 0-.7-.1-1s-.1-.5-.2-.7c-.1-.2-.2-.3-.4-.4-.1-.1-.3-.1-.5-.1-.3 0-.6.1-.8.3-.3.2-.5.5-.8.9v3c.1 0 .3.1.5.1h.6c.3 0 .5-.1.7-.2.2-.1.4-.3.6-.5s.3-.4.4-.7v-.7zm9.5 0c0 .5-.1 1-.2 1.5-.2.5-.4.8-.7 1.2s-.6.6-1.1.8-.9.3-1.4.3c-.5 0-1-.1-1.4-.2s-.8-.4-1-.7c-.3-.3-.5-.7-.6-1.1-.1-.4-.2-1-.2-1.6 0-.6.1-1.1.2-1.5.2-.5.4-.8.7-1.2.3-.3.7-.6 1.1-.7.4-.2.9-.3 1.4-.3.5 0 1 .1 1.4.2.4.2.8.4 1 .7s.5.7.6 1.1c.1.4.2.9.2 1.5zm-1.8 0c0-.7-.1-1.3-.4-1.6-.3-.4-.7-.5-1.2-.5-.3 0-.5.1-.7.2s-.4.3-.5.5c-.1.2-.2.4-.3.7-.1.3-.1.5-.1.8 0 .7.1 1.3.4 1.6.3.4.7.6 1.2.6.3 0 .5-.1.7-.2.2-.1.4-.3.5-.5.1-.2.2-.4.3-.7s.1-.6.1-.9zm7.5 3.5v-4.3l-2.7 4.3h-1.6v-6.9h1.6v4.3l2.7-4.3h1.6v6.9h-1.6zm3.2-1.4c.4.1.8.2 1.3.3.5.1.9.1 1.3.1s.7 0 .9-.1c.2 0 .4-.1.5-.2l.3-.3c.1-.1.1-.3.1-.4s0-.3-.1-.4l-.3-.3-.6-.2s-.5-.1-.9-.1h-1.8v-1.2h1.7c.4 0 .7 0 .9-.1.2 0 .3-.1.5-.2s.2-.2.2-.3l.1-.3c0-.1 0-.2-.1-.3s-.1-.2-.3-.2c-.1-.1-.3-.1-.5-.2-.2 0-.5-.1-.8-.1-.3 0-.7 0-1.1.1-.4 0-.8.1-1.2.2v-1.3l1.2-.2 1.3-.1c1.1 0 1.9.2 2.4.5s.8.8.8 1.4c0 .2 0 .3-.1.5l-.2.5s-.2.3-.4.4l-.6.3c.2 0 .4.1.6.2.2.1.4.2.5.3.2.1.3.3.4.5.1.2.1.4.1.6 0 .7-.3 1.3-.9 1.7-.6.4-1.5.6-2.8.6-.4 0-.8 0-1.2-.1-.4 0-.9-.1-1.3-.2l.1-1.4zm10.6 1.5c-.5 0-.9 0-1.4-.1-.5 0-.9-.1-1.4-.2v-6.8c1-.1 1.9-.2 2.9-.2s1.8.1 2.3.4c.5.3.7.7.7 1.3 0 .2 0 .4-.1.5l-.2.5c-.1.1-.2.3-.4.4l-.6.3c.2 0 .4.1.6.2s.4.2.5.3c.2.1.3.3.4.5.1.2.1.4.1.6 0 .7-.3 1.3-.9 1.7-.5.4-1.4.6-2.5.6zm1.4-5.2c0-.3-.1-.4-.3-.6-.2-.1-.6-.2-1-.2h-1.2v1.6h1.2c.3 0 .5 0 .7-.1.2 0 .3-.1.4-.2.1-.1.2-.2.2-.3v-.2zm-1.2 4c.5 0 .9-.1 1.2-.3s.4-.4.4-.7c0-.3-.1-.5-.4-.7-.2-.2-.6-.2-1.2-.2h-1.3v1.8l.6.1h.7zm11.1-2.4c0 .5-.1 1-.2 1.5-.2.5-.4.8-.7 1.2s-.6.6-1.1.8-.9.3-1.4.3c-.5 0-1-.1-1.4-.2s-.8-.4-1-.7c-.3-.3-.5-.7-.6-1.1-.1-.4-.2-1-.2-1.6 0-.6.1-1.1.2-1.5.2-.5.4-.8.7-1.2.3-.3.7-.6 1.1-.7.4-.2.9-.3 1.4-.3.5 0 1 .1 1.4.2.4.2.8.4 1 .7s.5.7.6 1.1c.1.4.2.9.2 1.5zm-1.8 0c0-.7-.1-1.3-.4-1.6-.3-.4-.7-.5-1.2-.5-.3 0-.5.1-.7.2s-.4.3-.5.5c-.1.2-.2.4-.3.7-.1.3-.1.5-.1.8 0 .7.1 1.3.4 1.6.3.4.7.6 1.2.6.3 0 .5-.1.7-.2.2-.1.4-.3.5-.5.1-.2.2-.4.3-.7s.1-.6.1-.9zm9.8 2.1l-.1 3.2h-1.5v-1.8h-4.2v1.8h-1.5l-.1-3.2h.2c.2 0 .3 0 .5-.1.1 0 .3-.1.4-.3s.2-.3.3-.6.2-.6.3-1 .2-.9.2-1.5c.1-.6.1-1.3.1-2.1h4.7v5.5h.7zm-2.3-4.1h-1.6c0 .6-.1 1.1-.1 1.6s-.1.8-.2 1.2c-.1.3-.2.6-.3.8-.1.2-.2.4-.3.5h2.5v-4.1zm9 5.2l-1 .3s-.7.1-1.1.1c-.6 0-1-.1-1.5-.2s-.8-.4-1.1-.7-.5-.7-.7-1.1c-.2-.4-.2-.9-.2-1.5s.1-1.1.3-1.5c.2-.5.4-.8.7-1.2s.7-.6 1.2-.7c.4-.2.9-.3 1.5-.3.5 0 .8 0 1.1.1.3 0 .6.1.8.2v1.6c-.3-.1-.6-.3-.9-.3-.3-.1-.6-.1-.9-.1-.3 0-.6.1-.8.2s-.5.3-.6.4-.3.4-.4.7c-.1.3-.1.6-.1.9 0 .3 0 .6.1.9s.2.5.4.7c.2.2.4.3.6.4.2.1.5.1.8.1h.5l.5-.1.5-.1c.2 0 .3-.1.4-.2l-.1 1.4zm5.8-5.2v5.5h-1.7v-5.5h-2.4v-1.4h6.5v1.4h-2.4zm6.6 5.6c-.5 0-.9 0-1.4-.1-.5 0-.9-.1-1.4-.2v-6.8c1-.1 1.9-.2 2.9-.2s1.8.1 2.3.4c.5.3.7.7.7 1.3 0 .2 0 .4-.1.5l-.2.5c-.1.1-.2.3-.4.4l-.6.3c.2 0 .4.1.6.2s.4.2.5.3c.2.1.3.3.4.5.1.2.1.4.1.6 0 .7-.3 1.3-.9 1.7-.4.4-1.3.6-2.5.6zm1.5-5.2c0-.3-.1-.4-.3-.6-.2-.1-.6-.2-1-.2h-1.2v1.6h1.2c.3 0 .5 0 .7-.1.2 0 .3-.1.4-.2.1-.1.2-.2.2-.3v-.2zm-1.2 4c.5 0 .9-.1 1.2-.3s.4-.4.4-.7c0-.3-.1-.5-.4-.7-.2-.2-.6-.2-1.2-.2h-1.3v1.8l.6.1h.7zm11-2.4c0 .5-.1 1-.2 1.5-.2.5-.4.8-.7 1.2s-.6.6-1.1.8-.9.3-1.4.3c-.5 0-1-.1-1.4-.2s-.8-.4-1-.7c-.3-.3-.5-.7-.6-1.1-.1-.4-.2-1-.2-1.6 0-.6.1-1.1.2-1.5.2-.5.4-.8.7-1.2.3-.3.7-.6 1.1-.7.4-.2.9-.3 1.4-.3.5 0 1 .1 1.4.2.4.2.8.4 1 .7s.5.7.6 1.1c.2.4.2.9.2 1.5zm-1.7 0c0-.7-.1-1.3-.4-1.6-.3-.4-.7-.5-1.2-.5-.3 0-.5.1-.7.2s-.4.3-.5.5c-.1.2-.2.4-.3.7-.1.3-.1.5-.1.8 0 .7.1 1.3.4 1.6.3.4.7.6 1.2.6.3 0 .5-.1.7-.2.2-.1.4-.3.5-.5.1-.2.2-.4.3-.7s.1-.6.1-.9zm16.5 3.2l-1 .3s-.7.1-1.1.1c-.6 0-1-.1-1.5-.2s-.8-.4-1.1-.7-.5-.7-.7-1.1c-.2-.4-.2-.9-.2-1.5s.1-1.1.3-1.5c.2-.5.4-.8.7-1.2s.7-.6 1.2-.7c.4-.2.9-.3 1.5-.3.5 0 .8 0 1.1.1.3 0 .6.1.8.2v1.6c-.3-.1-.6-.3-.9-.3-.3-.1-.6-.1-.9-.1-.3 0-.6.1-.8.2s-.5.3-.6.4-.3.4-.4.7c-.1.3-.1.6-.1.9 0 .3 0 .6.1.9s.2.5.4.7c.2.2.4.3.6.4.2.1.5.1.8.1h.5l.5-.1.5-.1c.2 0 .3-.1.4-.2l-.1 1.4zm6.4.3v-.9c-.1.2-.3.3-.5.4l-.5.3s-.4.2-.6.2c-.2.1-.5.1-.7.1-.4 0-.7-.1-.9-.2s-.5-.3-.7-.4-.3-.4-.4-.7c-.1-.3-.1-.6-.1-.9 0-.3.1-.6.2-.9.1-.3.4-.5.6-.7.3-.2.6-.4 1.1-.5.4-.1.9-.2 1.5-.2h.9v-.4c0-.2 0-.3-.1-.5l-.2-.4c-.1-.1-.3-.2-.4-.2s-.4-.1-.7-.1c-.4 0-.8 0-1.2.1-.4.1-.8.2-1.2.4v-1.3c.3-.1.7-.2 1.2-.3.4-.1.9-.1 1.4-.1.5 0 1 0 1.3.1.4.1.7.2.9.4.2.2.4.4.5.7.1.3.2.6.2 1v4.7h-1.6zm-.2-3.1h-1c-.3 0-.5 0-.7.1s-.4.1-.5.2l-.3.3c-.1.1-.1.3-.1.4 0 .3.1.5.3.6.2.1.4.2.7.2.2 0 .5-.1.7-.3s.5-.4.8-.7l.1-.8zm8.1 3.1l-1.6-2.3-1.6 2.3h-2l2.6-3.5-2.5-3.4h2l1.6 2.3 1.5-2.3h1.9l-2.4 3.4 2.5 3.5h-2zm7.5 0v-.9c-.1.2-.3.3-.5.4l-.5.3s-.4.2-.6.2c-.2.1-.5.1-.7.1-.4 0-.7-.1-.9-.2s-.5-.3-.7-.4-.3-.4-.4-.7c-.1-.3-.1-.6-.1-.9 0-.3.1-.6.2-.9.1-.3.4-.5.6-.7.3-.2.6-.4 1.1-.5.4-.1.9-.2 1.5-.2h.9v-.4c0-.2 0-.3-.1-.5l-.2-.4c-.1-.1-.3-.2-.4-.2s-.4-.1-.7-.1c-.4 0-.8 0-1.2.1-.4.1-.8.2-1.2.4v-1.3c.3-.1.7-.2 1.2-.3.4-.1.9-.1 1.4-.1.5 0 1 0 1.3.1.4.1.7.2.9.4.2.2.4.4.5.7.1.3.2.6.2 1v4.7h-1.6zm-.2-3.1h-1c-.3 0-.5 0-.7.1s-.4.1-.5.2l-.3.3c-.1.1-.1.3-.1.4 0 .3.1.5.3.6.2.1.4.2.7.2.2 0 .5-.1.7-.3s.5-.4.8-.7l.1-.8zm9.8-.5c0 .6-.1 1.2-.3 1.7-.2.5-.4.9-.8 1.2-.3.3-.7.5-1.1.7s-.9.2-1.4.2h-.5s-.3-.1-.5-.1v2.7h-1.7v-9.7h1.4v1l.4-.5.5-.4c.2-.1.4-.2.6-.2s.4-.1.7-.1c.4 0 .8.1 1.1.2s.6.4.8.7c.2.3.4.7.5 1.1.3.5.3 1 .3 1.5zm-1.7.1c0-.4 0-.7-.1-1s-.1-.5-.2-.7c-.1-.2-.2-.3-.4-.4-.1-.1-.3-.1-.5-.1-.3 0-.6.1-.8.3-.3.2-.5.5-.8.9v3c.1 0 .3.1.5.1h.6c.3 0 .5-.1.7-.2.2-.1.4-.3.6-.5s.3-.4.4-.7c-.1 0 0-.4 0-.7zm7.5 3.5v-.9c-.1.2-.3.3-.5.4l-.5.3s-.4.2-.6.2c-.2.1-.5.1-.7.1-.4 0-.7-.1-.9-.2s-.5-.3-.7-.4-.3-.4-.4-.7c-.1-.3-.1-.6-.1-.9 0-.3.1-.6.2-.9.1-.3.4-.5.6-.7.3-.2.6-.4 1.1-.5.4-.1.9-.2 1.5-.2h.9v-.4c0-.2 0-.3-.1-.5 0-.1-.1-.3-.2-.4-.1-.1-.3-.2-.4-.2s-.4-.1-.7-.1c-.4 0-.8 0-1.2.1-.4.1-.8.2-1.2.4v-1.3c.3-.1.7-.2 1.2-.3.4-.1.9-.1 1.4-.1.5 0 1 0 1.3.1.4.1.7.2.9.4.2.2.4.4.5.7.1.3.2.6.2 1v4.7h-1.6zm-.2-3.1h-1c-.3 0-.5 0-.7.1s-.4.1-.5.2l-.3.3c-.1.1-.1.3-.1.4 0 .3.1.5.3.6.2.1.4.2.7.2.2 0 .5-.1.7-.3s.5-.4.8-.7l.1-.8z"/><path class="st10" d="M6.9 29.6c2.8 5.4 11.7 9.8 10.6 6.9-1.1-2.8 3.2-7.2.4-12.6s-6.9-5.2-10.6-7c-3.8-1.8-3.3 7.3-.4 12.7z"/><ellipse transform="matrix(.887 -.461 .461 .887 -8.516 7.21)" class="st10" cx="10.5" cy="21" rx="3.2" ry="3.3"/><ellipse transform="matrix(.887 -.461 .461 .887 -9.925 5.605)" class="st10" cx="6.5" cy="23.1" rx="3.2" ry="3.3"/><ellipse transform="matrix(.887 -.461 .461 .887 -12.402 6.593)" class="st10" cx="7.3" cy="28.7" rx="3.8" ry="3.7"/><ellipse transform="matrix(.887 -.461 .461 .887 -10.109 9.879)" class="st10" cx="15.2" cy="25.6" rx="3.8" ry="3.7"/><ellipse transform="matrix(.887 -.461 .461 .887 -13.849 9.497)" class="st10" cx="12.5" cy="33.1" rx="4.5" ry="4.4"/><path class="st10" d="M34.8 28c-2.8 5.4-11.7 9.8-10.6 6.9 1.1-2.8-3.2-7.2-.4-12.6 2.8-5.4 6.8-5.1 10.6-6.9 3.8-1.8 3.2 7.2.4 12.6z"/><ellipse transform="matrix(.461 -.887 .887 .461 -.487 38.152)" class="st10" cx="31.2" cy="19.5" rx="3.3" ry="3.2"/><ellipse transform="matrix(.461 -.887 .887 .461 -.179 42.803)" class="st10" cx="35.2" cy="21.5" rx="3.3" ry="3.2"/><ellipse transform="matrix(.461 -.887 .887 .461 -5.528 45.101)" class="st10" cx="34.4" cy="27.1" rx="3.7" ry="3.8"/><ellipse transform="matrix(.461 -.887 .887 .461 -7.059 36.491)" class="st10" cx="26.5" cy="24.1" rx="3.7" ry="3.8"/><ellipse transform="matrix(.461 -.887 .887 .461 -12.247 42.855)" class="st10" cx="29.2" cy="31.5" rx="4.4" ry="4.5"/><path class="st11" d="M28.8 17.8c-1.1 8.8-9.6 19.4-9.4 15 .2-4.4-6.5-8.1-5.4-16.8 1.1-8.8 5.8-10.6 9.4-15 3.5-4.5 6.5 8 5.4 16.8z"/><ellipse transform="matrix(.124 -.992 .992 .124 10.481 28.261)" class="st11" cx="21.2" cy="8.2" rx="4.8" ry="3.9"/><ellipse transform="matrix(.124 -.992 .992 .124 14.534 34.194)" class="st11" cx="26.6" cy="8.9" rx="4.8" ry="3.9"/><ellipse transform="matrix(.124 -.992 .992 .124 7.797 42.416)" class="st11" cx="27.9" cy="16.8" rx="5.3" ry="4.6"/><ellipse transform="matrix(.124 -.992 .992 .124 -1.228 32.357)" class="st11" cx="17.7" cy="16.9" rx="5.3" ry="4.6"/><ellipse transform="matrix(.124 -.992 .992 .124 -4.592 45.867)" class="st11" cx="23.7" cy="25.5" rx="6.4" ry="5.5"/><path class="st12" d="M21.5 37.1c16-1.6 14.2 5.9 14.1 12.5-.1 6.5-10.7 9.1-11.2 11.4-.5 2.3 3.7 12.5 2.8 12.2-.9-.4-4.7-12.2-10-12.2s-10.7-11.1-10.8-13.8c-.1-2.6-.9-8.5 15.1-10.1z"/><path class="st13" d="M14.6 45.1c0 .3-.2.6-.5.6h-2.9c-.3 0-.5-.3-.5-.6s.2-.6.5-.6h2.8c.3 0 .6.3.6.6zm14.2-2.4c0 .3-.4.6-.8.6h-4.3c-.4 0-.8-.3-.8-.6s.4-.6.8-.6h4.3c.4 0 .8.3.8.6zm-11.7 9.2c0 .3-.2.6-.5.6h-2.6c-.3 0-.5-.3-.5-.6s.2-.6.5-.6h2.6c.3 0 .5.2.5.6zm13.5-2.4c0 .3-.3.6-.6.6h-3.2c-.3 0-.6-.3-.6-.6s.3-.6.6-.6h3.2c.3 0 .6.2.6.6zm-7.3-1.8c0 .3-.3.6-.6.6h-3.2c-.3 0-.6-.3-.6-.6s.3-.6.6-.6h3.2c.3 0 .6.3.6.6zm1 7.6c0 .2-.2.4-.5.4h-2.7c-.3 0-.5-.2-.5-.4s.2-.4.5-.4h2.7c.3 0 .5.2.5.4zm-5.4-18.2s1.2-8.8.5-10.1c-.7-1.3-1.8-3.3-1.8-3.3l2.3 2.3s-.7-3.4-1.2-5.5v-6.1l1.2 8.2s2.7-5.3 2.1-6c-.5-.7 0-4.4 0-4.4l.5 3.4.9-1.6 3-5s-1.7 3.1-1.7 4c0 .9 1.7-1.3 1.7-1.3l-2.1 2.7-1.3 3.7 4.3-4.3s-5.3 6.1-5.5 7.6c-.2 1.4-.9 2.3-.5 3.3.5 1.4 3.8-3.1 3.8-3.1s-1.5 3-3 4.7c-1.5 1.7-1.9 10.8-1.9 10.8"/><path class="st13" d="M25.2 33.7l5-5.2.8-3.2v2.4l.4-.5 2-3.2-1.3 3.2 2.2-1.2-2.7 2-2.7 2.7h3.2l-3.4.7-3.1 2.6zm-15.9-13.6l3 6.2-.5-3.8s.7 1.8 1.1 2.7c.4.9 0 3.2 0 3.2l3.5 8-4.1-7.2-3.8-1s2.8.3 3.4 0c.5-.3-4.6-3.7-4.6-3.7l3.9 1.5-1.9-5.9z"/><path class="st10" d="M44.3 37.8c2.3 4.4 9.5 7.9 8.6 5.6s2.6-5.9.3-10.3c-2.3-4.4-5.6-4.2-8.6-5.6-3-1.4-2.6 5.9-.3 10.3z"/><ellipse transform="matrix(.887 -.461 .461 .887 -8.92 25.288)" class="st10" cx="47.3" cy="30.9" rx="2.6" ry="2.7"/><ellipse transform="matrix(.887 -.461 .461 .887 -10.06 23.975)" class="st10" cx="44" cy="32.6" rx="2.6" ry="2.7"/><ellipse transform="matrix(.887 -.461 .461 .887 -12.072 24.778)" class="st10" cx="44.7" cy="37.1" rx="3.1" ry="3"/><ellipse transform="matrix(.887 -.461 .461 .887 -10.211 27.445)" class="st10" cx="51.1" cy="34.6" rx="3.1" ry="3"/><ellipse transform="matrix(.887 -.461 .461 .887 -13.252 27.147)" class="st10" cx="48.9" cy="40.7" rx="3.7" ry="3.6"/><path class="st10" d="M67 36.5c-2.3 4.4-9.5 7.9-8.6 5.6.9-2.3-2.6-5.9-.3-10.3 2.3-4.4 5.5-4.2 8.6-5.6 3-1.3 2.6 6 .3 10.3z"/><ellipse transform="matrix(.461 -.887 .887 .461 8.226 72.811)" class="st10" cx="64.1" cy="29.6" rx="2.7" ry="2.6"/><ellipse transform="matrix(.461 -.887 .887 .461 8.473 76.587)" class="st10" cx="67.3" cy="31.3" rx="2.7" ry="2.6"/><ellipse transform="matrix(.462 -.887 .887 .462 4.124 78.451)" class="st10" cx="66.7" cy="35.8" rx="3" ry="3.1"/><ellipse transform="matrix(.462 -.887 .887 .462 2.874 71.448)" class="st10" cx="60.3" cy="33.4" rx="3" ry="3.1"/><ellipse transform="matrix(.461 -.887 .887 .461 -1.329 76.627)" class="st10" cx="62.4" cy="39.4" rx="3.6" ry="3.7"/><path class="st11" d="M62.1 28.2c-.9 7.1-7.8 15.8-7.6 12.2.1-3.6-5.3-6.5-4.4-13.7.9-7.1 4.7-8.6 7.6-12.2 2.9-3.5 5.3 6.6 4.4 13.7z"/><ellipse transform="matrix(.124 -.992 .992 .124 28.753 73.511)" class="st11" cx="56" cy="20.5" rx="3.9" ry="3.1"/><ellipse transform="matrix(.124 -.992 .992 .124 32.071 78.335)" class="st11" cx="60.4" cy="21" rx="3.9" ry="3.1"/><ellipse transform="matrix(.123 -.992 .992 .123 26.607 85.018)" class="st11" cx="61.4" cy="27.4" rx="4.3" ry="3.7"/><ellipse transform="matrix(.124 -.992 .992 .124 19.257 76.839)" class="st11" cx="53.1" cy="27.5" rx="4.3" ry="3.7"/><ellipse transform="matrix(.124 -.992 .992 .124 16.52 87.813)" class="st11" cx="58" cy="34.6" rx="5.2" ry="4.5"/><path class="st12" d="M56.2 43.9c13-1.3 11.5 4.8 11.5 10.1-.1 5.3-8.7 7.4-9.1 9.2-.4 1.9 3 10.1 2.3 9.9-.7-.2-3.8-9.8-8.2-9.8s-8.7-9-8.7-11.1c-.1-2.1-.8-7 12.2-8.3z"/><path class="st13" d="M50.6 50.5c0 .3-.2.5-.4.5h-2.3c-.2 0-.4-.2-.4-.5s.2-.5.4-.5h2.3c.2 0 .4.2.4.5zm11.5-2c0 .3-.3.5-.7.5h-3.5c-.4 0-.7-.2-.7-.5s.3-.5.7-.5h3.5c.4 0 .7.2.7.5zm-9.5 7.4c0 .3-.2.5-.4.5h-2.1c-.2 0-.4-.2-.4-.5s.2-.5.4-.5h2.1c.2.1.4.3.4.5zm11-1.9c0 .3-.2.5-.5.5h-2.6c-.3 0-.5-.2-.5-.5s.2-.5.5-.5h2.6c.3 0 .5.2.5.5zm-6-1.4c0 .3-.2.5-.5.5h-2.6c-.3 0-.5-.2-.5-.5s.2-.5.5-.5h2.6c.3 0 .5.2.5.5zm.9 6.2c0 .2-.2.3-.4.3h-2.2c-.2 0-.4-.1-.4-.3 0-.2.2-.3.4-.3h2.2c.2-.1.4.1.4.3zm-4.4-15s1-7.2.4-8.2c-.6-1-1.5-2.7-1.5-2.7l1.9 1.9s-.6-2.8-.9-4.5c-.4-1.7 0-5 0-5l.9 6.6s2.2-4.3 1.7-4.9c-.4-.6 0-3.6 0-3.6l.4 2.8.8-1.3 2.4-4s-1.4 2.5-1.4 3.3c0 .8 1.4-1.1 1.4-1.1l-1.7 2.2-1.1 3 3.5-3.5s-4.3 5-4.5 6.2c-.2 1.2-.7 1.9-.4 2.7.4 1.2 3.1-2.5 3.1-2.5s-1.2 2.5-2.4 3.8c-1.2 1.4-1.6 8.8-1.6 8.8"/><path class="st13" d="M59.2 41.2l4.1-4.2.6-2.6v1.9l.3-.4 1.6-2.6-1 2.6 1.8-1-2.2 1.6-2.2 2.2h2.7l-2.9.6-2.4 2.1zm-12.9-11.1l2.5 5.1-.4-3.1s.6 1.5.9 2.2c.3.7 0 2.6 0 2.6l2.8 6.5-3.3-5.8-3.1-.8s2.3.2 2.7 0c.4-.2-3.7-3-3.7-3l3.3 1.2-1.7-4.9z"/><path class="st10" d="M79.8 52.4c1.5 2.9 6.2 5.2 5.6 3.7s1.7-3.8.2-6.7c-1.5-2.9-3.6-2.7-5.6-3.7-1.9-1-1.7 3.8-.2 6.7z"/><ellipse transform="matrix(.887 -.461 .461 .887 -12.849 43.082)" class="st10" cx="81.8" cy="47.8" rx="1.7" ry="1.7"/><ellipse transform="matrix(.887 -.461 .461 .887 -13.595 42.273)" class="st10" cx="79.7" cy="48.9" rx="1.7" ry="1.7"/><ellipse transform="matrix(.887 -.461 .461 .887 -14.908 42.791)" class="st10" cx="80.1" cy="51.9" rx="2" ry="1.9"/><ellipse transform="matrix(.887 -.461 .461 .887 -13.692 44.515)" class="st10" cx="84.2" cy="50.3" rx="2" ry="1.9"/><ellipse transform="matrix(.887 -.461 .461 .887 -15.671 44.286)" class="st10" cx="82.8" cy="54.2" rx="2.4" ry="2.3"/><path class="st10" d="M94.6 51.5c-1.5 2.9-6.2 5.2-5.6 3.7.6-1.5-1.7-3.8-.2-6.7 1.5-2.9 3.6-2.7 5.6-3.7 2-.9 1.7 3.9.2 6.7z"/><ellipse transform="matrix(.462 -.887 .887 .462 8.209 107.566)" class="st10" cx="92.7" cy="47" rx="1.7" ry="1.7"/><ellipse transform="matrix(.461 -.887 .887 .461 8.391 110.061)" class="st10" cx="94.8" cy="48.1" rx="1.7" ry="1.7"/><ellipse transform="matrix(.461 -.887 .887 .461 5.559 111.266)" class="st10" cx="94.4" cy="51.1" rx="1.9" ry="2"/><ellipse transform="matrix(.462 -.887 .887 .462 4.721 106.681)" class="st10" cx="90.3" cy="49.5" rx="1.9" ry="2"/><ellipse transform="matrix(.461 -.887 .887 .461 1.993 110.071)" class="st10" cx="91.7" cy="53.4" rx="2.3" ry="2.4"/><path class="st11" d="M91.4 46.1c-.6 4.7-5.1 10.3-5 7.9.1-2.4-3.5-4.3-2.9-8.9.6-4.7 3.1-5.6 5-7.9 2-2.3 3.5 4.3 2.9 8.9z"/><ellipse transform="matrix(.124 -.992 .992 .124 35.861 122.736)" class="st11" cx="87.5" cy="41.1" rx="2.5" ry="2"/><ellipse transform="matrix(.124 -.992 .992 .124 38.048 125.895)" class="st11" cx="90.3" cy="41.4" rx="2.5" ry="2"/><ellipse transform="matrix(.124 -.992 .992 .124 34.481 130.249)" class="st11" cx="91" cy="45.6" rx="2.8" ry="2.4"/><ellipse transform="matrix(.123 -.992 .992 .123 29.721 124.929)" class="st11" cx="85.6" cy="45.6" rx="2.8" ry="2.4"/><ellipse transform="matrix(.124 -.992 .992 .124 27.922 132.076)" class="st11" cx="88.7" cy="50.2" rx="3.4" ry="2.9"/><path class="st12" d="M87.6 56.3c8.5-.9 7.5 3.1 7.5 6.6-.1 3.5-5.7 4.8-5.9 6-.3 1.2 2 6.6 1.5 6.5-.5-.2-2.5-6.4-5.3-6.4s-5.7-5.9-5.7-7.3c-.2-1.4-.6-4.5 7.9-5.4z"/><path class="st13" d="M83.9 60.6c0 .2-.1.3-.3.3h-1.5c-.2 0-.3-.1-.3-.3 0-.2.1-.3.3-.3h1.5c.2 0 .3.1.3.3zm7.5-1.3c0 .2-.2.3-.4.3h-2.3c-.2 0-.4-.1-.4-.3 0-.2.2-.3.4-.3h2.3c.2 0 .4.1.4.3zm-6.2 4.9c0 .2-.1.3-.3.3h-1.4c-.1 0-.3-.1-.3-.3 0-.2.1-.3.3-.3h1.5c.1 0 .2.1.2.3zm7.2-1.3c0 .2-.1.3-.3.3h-1.7c-.2 0-.3-.1-.3-.3 0-.2.1-.3.3-.3h1.7c.2 0 .3.1.3.3zm-3.9-.9c0 .2-.1.3-.3.3h-1.7c-.2 0-.3-.1-.3-.3 0-.2.1-.3.3-.3h1.7c.2 0 .3.1.3.3zm.6 4c0 .1-.1.2-.3.2h-1.4c-.1 0-.3-.1-.3-.2s.1-.2.3-.2h1.4c.2 0 .3.1.3.2zm-2.9-9.1s.6-4.7.3-5.3c-.4-.7-1-1.8-1-1.8l1.2 1.2s-.4-1.8-.6-2.9c-.2-1.1 0-3.3 0-3.3l.6 4.3s1.4-2.8 1.1-3.2c-.3-.4 0-2.3 0-2.3l.3 1.8.5-.8 1.6-2.6s-.9 1.6-.9 2.1l.9-.7-1.1 1.4-.7 2 2.3-2.3s-2.8 3.3-2.9 4c-.1.8-.5 1.2-.2 1.8.3.8 2-1.6 2-1.6s-.8 1.6-1.6 2.5c-.8.9-1 5.7-1 5.7"/><path class="st13" d="M89.6 54.5l2.6-2.7.4-1.7v1.3l.2-.3 1.1-1.7-.7 1.7 1.2-.6-1.5 1-1.4 1.4h1.7l-1.8.4-1.6 1.4zm-8.5-7.2l1.6 3.3-.2-2s.4 1 .6 1.4c.2.5 0 1.7 0 1.7l1.8 4.2-2.2-3.8-2-.5s1.5.2 1.8 0c.3-.2-2.4-1.9-2.4-1.9l2.1.8-1.1-3.2z"/></svg>