<?xml version="1.0" encoding="utf-8"?>
<!-- Generator: Adobe Illustrator 15.1.0, SVG Export Plug-In . SVG Version: 6.00 Build 0)  -->
<!DOCTYPE svg PUBLIC "-//W3C//DTD SVG 1.1//EN" "http://www.w3.org/Graphics/SVG/1.1/DTD/svg11.dtd">
<svg version="1.1" id="Layer_1" xmlns="http://www.w3.org/2000/svg" xmlns:xlink="http://www.w3.org/1999/xlink" x="0px" y="0px"
	 width="1280px" height="769px" viewBox="0 0 1280 769" enable-background="new 0 0 1280 769" xml:space="preserve">
<symbol  id="Symbol_25" viewBox="21.116 -566.688 1315.542 548.934">
	<g id="Layer_1_25_">
		
			<line fill-rule="evenodd" clip-rule="evenodd" fill="none" stroke="#FFFFFF" stroke-linecap="round" stroke-linejoin="round" stroke-miterlimit="3" x1="599.35" y1="-528.9" x2="945.45" y2="-528.9"/>
		
			<use xlink:href="#pp_copy"  width="1" height="0.95" x="28.5" y="32.05" transform="matrix(1.482824e-005 0.9429 1 -1.572518e-005 913.3491 -216.3999)" overflow="visible"/>
		<polygon fill-rule="evenodd" clip-rule="evenodd" fill="#444B99" points="1203.488,-566.188 21.616,-566.188 21.616,-527.058 
			1203.488,-527.058 		"/>
		
			<polygon fill-rule="evenodd" clip-rule="evenodd" fill="none" stroke="#CDCCCC" stroke-linecap="round" stroke-linejoin="round" stroke-miterlimit="3" points="
			1203.488,-566.188 21.616,-566.188 21.616,-527.058 1203.488,-527.058 		"/>
		<g>
			<linearGradient id="SVGID_1_" gradientUnits="userSpaceOnUse" x1="324.2998" y1="-436.5498" x2="1207.2002" y2="-436.5498">
				<stop  offset="0" style="stop-color:#E4E4E4"/>
				<stop  offset="1" style="stop-color:#F7F8F8"/>
			</linearGradient>
			<polygon fill-rule="evenodd" clip-rule="evenodd" fill="url(#SVGID_1_)" points="1207.2,-456.1 324.3,-456.1 324.3,-417 
				1207.2,-417 			"/>
			
				<use xlink:href="#Symbol_51"  width="1172.25" height="117" x="-0.5" y="-42" transform="matrix(1 0 0 0.943 94.0498 -488)" overflow="visible"/>
			
				<use xlink:href="#Symbol_52"  width="606.7" height="42.9" x="-1.4" y="-42.5" transform="matrix(1.0489 0 0 0.943 80.8999 -487.6499)" overflow="visible"/>
		</g>
		
			<linearGradient id="SVGID_2_" gradientUnits="userSpaceOnUse" x1="115.3999" y1="-467.8496" x2="1240.8503" y2="-467.8496" gradientTransform="matrix(0.9777 0 0 1 27.75 0)">
			<stop  offset="0" style="stop-color:#BABABA"/>
			<stop  offset="1" style="stop-color:#E0E1E0"/>
		</linearGradient>
		<polygon fill-rule="evenodd" clip-rule="evenodd" fill="url(#SVGID_2_)" points="1240.881,-487.4 140.572,-487.4 140.572,-448.3 
			1240.881,-448.3 		"/>
		
			<polygon fill-rule="evenodd" clip-rule="evenodd" fill="none" stroke="#CDCCCC" stroke-linecap="round" stroke-linejoin="round" stroke-miterlimit="3" points="
			1240.881,-487.4 140.572,-487.4 140.572,-448.3 1240.881,-448.3 		"/>
		
			<linearGradient id="SVGID_3_" gradientUnits="userSpaceOnUse" x1="177.1001" y1="-421.9502" x2="1060" y2="-421.9502" gradientTransform="matrix(1.276 0 0 0.943 -25.2998 -30.7002)">
			<stop  offset="0" style="stop-color:#E4E4E4"/>
			<stop  offset="1" style="stop-color:#F7F8F8"/>
		</linearGradient>
		<polygon fill-rule="evenodd" clip-rule="evenodd" fill="url(#SVGID_3_)" points="1327.31,-448.15 200.688,-448.15 
			200.688,-409.017 1327.31,-409.017 		"/>
		
			<polygon fill-rule="evenodd" clip-rule="evenodd" fill="none" stroke="#EFEEEE" stroke-linecap="round" stroke-linejoin="round" stroke-miterlimit="3" points="
			1327.31,-448.15 200.688,-448.15 200.688,-409.017 1327.31,-409.017 		"/>
		
			<linearGradient id="SVGID_4_" gradientUnits="userSpaceOnUse" x1="249.0498" y1="-390.1504" x2="1110.9001" y2="-390.1504" gradientTransform="matrix(1.2482 0 0 1 -50.4502 0)">
			<stop  offset="0" style="stop-color:#E4E4E4"/>
			<stop  offset="1" style="stop-color:#F7F8F8"/>
		</linearGradient>
		<polygon fill-rule="evenodd" clip-rule="evenodd" fill="url(#SVGID_4_)" points="1336.158,-409.7 260.41,-409.7 260.41,-370.6 
			1336.158,-370.6 		"/>
		
			<polygon fill-rule="evenodd" clip-rule="evenodd" fill="none" stroke="#EFEEEE" stroke-linecap="round" stroke-linejoin="round" stroke-miterlimit="3" points="
			1336.158,-409.7 260.41,-409.7 260.41,-370.6 1336.158,-370.6 		"/>
		
			<linearGradient id="SVGID_5_" gradientUnits="userSpaceOnUse" x1="314.7998" y1="-351.875" x2="1253.2501" y2="-351.875" gradientTransform="matrix(0.9936 0 0 1 8.0498 1.5)">
			<stop  offset="0" style="stop-color:#E4E4E4"/>
			<stop  offset="1" style="stop-color:#F7F8F8"/>
		</linearGradient>
		<polygon fill-rule="evenodd" clip-rule="evenodd" fill="url(#SVGID_5_)" points="1253.268,-369.95 320.832,-369.95 
			320.832,-330.8 1253.268,-330.8 		"/>
		
			<path fill-rule="evenodd" clip-rule="evenodd" fill="none" stroke="#EFEEEE" stroke-linecap="round" stroke-linejoin="round" stroke-miterlimit="3" d="
			M320.832-369.95v39.15h932.436v-39.15 M1254.907-370.8H322.472"/>
		
			<linearGradient id="SVGID_6_" gradientUnits="userSpaceOnUse" x1="388.5" y1="-297.3501" x2="1059.1002" y2="-297.3501" gradientTransform="matrix(1.2767 0 0 0.943 -114.9502 -30.6499)">
			<stop  offset="0" style="stop-color:#BABABA"/>
			<stop  offset="1" style="stop-color:#E0E1E0"/>
		</linearGradient>
		<polygon fill-rule="evenodd" clip-rule="evenodd" fill="url(#SVGID_6_)" points="1237.19,-330.606 381.043,-330.606 
			381.043,-291.474 1237.19,-291.474 		"/>
		
			<polygon fill-rule="evenodd" clip-rule="evenodd" fill="none" stroke="#CDCCCC" stroke-linecap="round" stroke-linejoin="round" stroke-miterlimit="3" points="
			1237.19,-330.606 381.043,-330.606 381.043,-291.474 1237.19,-291.474 		"/>
		
			<linearGradient id="SVGID_7_" gradientUnits="userSpaceOnUse" x1="447.2998" y1="-255.375" x2="946.6002" y2="-255.375" gradientTransform="matrix(1.629 0 0 0.943 -286.3496 -30.6499)">
			<stop  offset="0" style="stop-color:#E4E4E4"/>
			<stop  offset="1" style="stop-color:#F7F8F8"/>
		</linearGradient>
		<polygon fill-rule="evenodd" clip-rule="evenodd" fill="url(#SVGID_7_)" points="1255.646,-291.002 442.294,-291.002 
			442.294,-251.916 1255.646,-251.916 		"/>
		
			<polygon fill-rule="evenodd" clip-rule="evenodd" fill="none" stroke="#EFEEEE" stroke-linecap="round" stroke-linejoin="round" stroke-miterlimit="3" points="
			1255.646,-291.002 442.294,-291.002 442.294,-251.916 1255.646,-251.916 		"/>
		
			<linearGradient id="SVGID_8_" gradientUnits="userSpaceOnUse" x1="506.1001" y1="-213.8999" x2="946.6001" y2="-213.8999" gradientTransform="matrix(1.6304 0 0 0.943 -321.0498 -30.6499)">
			<stop  offset="0" style="stop-color:#BABABA"/>
			<stop  offset="1" style="stop-color:#E0E1E0"/>
		</linearGradient>
		<polygon fill-rule="evenodd" clip-rule="evenodd" fill="url(#SVGID_8_)" points="1222.289,-251.916 504.097,-251.916 
			504.097,-212.783 1222.289,-212.783 		"/>
		
			<polygon fill-rule="evenodd" clip-rule="evenodd" fill="none" stroke="#CDCCCC" stroke-linecap="round" stroke-linejoin="round" stroke-miterlimit="3" points="
			1222.289,-251.916 504.097,-251.916 504.097,-212.783 1222.289,-212.783 		"/>
		
			<linearGradient id="SVGID_9_" gradientUnits="userSpaceOnUse" x1="557.4502" y1="-172.5" x2="945.6501" y2="-172.5" gradientTransform="matrix(1.6403 0 0 0.943 -349.2998 -30.6499)">
			<stop  offset="0" style="stop-color:#BABABA"/>
			<stop  offset="1" style="stop-color:#E0E1E0"/>
		</linearGradient>
		<polygon fill-rule="evenodd" clip-rule="evenodd" fill="url(#SVGID_9_)" points="1201.84,-212.877 565.08,-212.877 
			565.08,-173.745 1201.84,-173.745 		"/>
		
			<polygon fill-rule="evenodd" clip-rule="evenodd" fill="none" stroke="#CDCCCC" stroke-linecap="round" stroke-linejoin="round" stroke-miterlimit="3" points="
			1201.84,-212.877 565.08,-212.877 565.08,-173.745 1201.84,-173.745 		"/>
		
			<linearGradient id="SVGID_10_" gradientUnits="userSpaceOnUse" x1="608.2002" y1="-130.875" x2="945.7499" y2="-130.875" gradientTransform="matrix(1.6553 0 0 0.943 -381 -30.6499)">
			<stop  offset="0" style="stop-color:#BABABA"/>
			<stop  offset="1" style="stop-color:#E0E1E0"/>
		</linearGradient>
		<polygon fill-rule="evenodd" clip-rule="evenodd" fill="url(#SVGID_10_)" points="1184.489,-173.603 625.747,-173.603 
			625.747,-134.517 1184.489,-134.517 		"/>
		
			<polygon fill-rule="evenodd" clip-rule="evenodd" fill="none" stroke="#CDCCCC" stroke-linecap="round" stroke-linejoin="round" stroke-miterlimit="3" points="
			1184.489,-173.603 625.747,-173.603 625.747,-134.517 1184.489,-134.517 		"/>
		
			<linearGradient id="SVGID_11_" gradientUnits="userSpaceOnUse" x1="666.6001" y1="-89.3501" x2="945.7004" y2="-89.3501" gradientTransform="matrix(2.0106 0 0 0.943 -653.7998 -30.6499)">
			<stop  offset="0" style="stop-color:#BABABA"/>
			<stop  offset="1" style="stop-color:#E0E1E0"/>
		</linearGradient>
		<polygon fill-rule="evenodd" clip-rule="evenodd" fill="url(#SVGID_11_)" points="1247.659,-134.47 686.49,-134.47 
			686.49,-95.337 1247.659,-95.337 		"/>
		
			<polygon fill-rule="evenodd" clip-rule="evenodd" fill="none" stroke="#CDCCCC" stroke-linecap="round" stroke-linejoin="round" stroke-miterlimit="3" points="
			1247.659,-134.47 686.49,-134.47 686.49,-95.337 1247.659,-95.337 		"/>
		
			<linearGradient id="SVGID_12_" gradientUnits="userSpaceOnUse" x1="726.8501" y1="-47.8501" x2="946.7003" y2="-47.8501" gradientTransform="matrix(2.2511 0 0 0.943 -888.5996 -30.6499)">
			<stop  offset="0" style="stop-color:#E4E4E4"/>
			<stop  offset="1" style="stop-color:#F7F8F8"/>
		</linearGradient>
		<polygon fill-rule="evenodd" clip-rule="evenodd" fill="url(#SVGID_12_)" points="1242.516,-95.337 747.612,-95.337 
			747.612,-56.205 990.28,-56.205 1242.516,-56.205 		"/>
		
			<polygon fill-rule="evenodd" clip-rule="evenodd" fill="none" stroke="#EFEEEE" stroke-linecap="round" stroke-linejoin="round" stroke-miterlimit="3" points="
			1242.516,-95.337 747.612,-95.337 747.612,-56.205 990.28,-56.205 1242.516,-56.205 		"/>
		
			<linearGradient id="SVGID_13_" gradientUnits="userSpaceOnUse" x1="726.8501" y1="-47.8501" x2="946.7001" y2="-47.8501" gradientTransform="matrix(2.0381 0 0 0.943 -673.7998 7.2998)">
			<stop  offset="0" style="stop-color:#E4E4E4"/>
			<stop  offset="1" style="stop-color:#F7F8F8"/>
		</linearGradient>
		<polygon fill-rule="evenodd" clip-rule="evenodd" fill="url(#SVGID_13_)" points="1255.671,-57.388 807.594,-57.388 
			807.594,-18.255 1027.301,-18.255 1255.671,-18.255 		"/>
		
			<polygon fill-rule="evenodd" clip-rule="evenodd" fill="none" stroke="#EFEEEE" stroke-linecap="round" stroke-linejoin="round" stroke-miterlimit="3" points="
			1255.671,-57.388 807.594,-57.388 807.594,-18.255 1027.301,-18.255 1255.671,-18.255 		"/>
	</g>
</symbol>
<symbol  id="Symbol_28" viewBox="-119.507 -481.972 407.409 481.972">
	<g id="flash0.ai_1_">
		<path fill-rule="evenodd" clip-rule="evenodd" fill="#4E569D" d="M158.25-12.15c8.1-8.1,12.15-17.883,12.15-29.35
			s-4.05-21.25-12.15-29.35C150.15-78.95,140.367-83,128.9-83c-11.434,0-21.217,4.05-29.35,12.15c-8.1,8.1-12.15,17.883-12.15,29.35
			s4.05,21.25,12.15,29.35S117.433,0,128.9,0S150.15-4.05,158.25-12.15z"/>
		<g>
			<path fill-rule="evenodd" clip-rule="evenodd" fill="#4E569D" d="M145.55-50.45c3.133-3.033,4.583-6.55,4.35-10.55
				c-1.7-28.367-5.7-62.783-12-103.25c-3.567-22.833-9.067-57.067-16.5-102.7c-0.567-3.9-2.9-6.9-7-9
				c-3.867-2.033-7.684-2.533-11.45-1.5c-4.1,1.133-7.066,3.5-8.9,7.1c-1.7,3.3-2.233,7.083-1.6,11.35
				c7.167,43.967,12.467,76.917,15.9,98.85c6.067,38.8,9.917,71.85,11.55,99.15c0.267,4.2,1.767,7.717,4.5,10.55
				c2.833,2.967,6.333,4.45,10.5,4.45C138.933-46,142.483-47.483,145.55-50.45z"/>
		</g>
		<g>
			<path fill-rule="evenodd" clip-rule="evenodd" fill="#4E569D" d="M207.173-312.855c0.619-0.557,8.87-8.117,24.752-22.679
				c2.875-2.694,4.111-6.288,3.707-10.783c-0.403-4.325-2.079-7.798-5.026-10.417c-3.151-2.795-6.751-3.999-10.803-3.609
				c-3.743,0.382-7.209,2.025-10.398,4.928c-9.942,9.247-17.335,16.076-22.18,20.487c-8.273,7.504-15.678,13.873-22.212,19.104
				c-9.652,7.776-18.229,13.98-25.733,18.614l-10.405,5.997c-0.859,0.432-1.425,0.719-1.698,0.862
				c-3.839,1.794-7.712,3.349-11.619,4.662c-3.859,1.31-6.708,3.873-8.548,7.688c-1.833,3.782-2.074,7.59-0.725,11.422
				c1.376,3.872,3.939,6.721,7.688,8.547c3.723,1.788,7.53,2.029,11.422,0.726c9.611-3.267,19.483-8.027,29.616-14.281
				c8.208-5.106,17.119-11.534,26.731-19.283C189.223-296.935,197.7-304.263,207.173-312.855z"/>
		</g>
		<g>
			<path fill-rule="evenodd" clip-rule="evenodd" fill="#4E569D" d="M211.558-335.37c3.675,2.346,7.43,3.172,11.264,2.477
				c4.163-0.754,7.339-2.836,9.531-6.246c2.031-3.178,2.879-6.903,2.544-11.175c-0.937-13.201-0.845-31.464,0.276-54.787
				c1.263-26.836,1.799-45.263,1.608-55.282c-0.072-4.32-1.254-7.948-3.546-10.884c-2.477-3.207-5.832-5.002-10.065-5.386
				c-3.888-0.345-7.554,0.811-11,3.466c-3.585,2.816-5.342,6.198-5.27,10.146c0.203,10.457-0.293,30.13-1.489,59.019
				c-1.036,24.729-1.039,44.414-0.01,59.055C205.703-341.062,207.755-337.862,211.558-335.37z"/>
		</g>
		<g>
			<path fill-rule="evenodd" clip-rule="evenodd" fill="#4E569D" d="M90.45-269c0.733,3.9,3.083,6.9,7.05,9
				c3.8,2.033,7.6,2.533,11.4,1.5c4.066-1.1,7.05-3.467,8.95-7.1c1.8-3.4,2.317-7.183,1.55-11.35
				c-4.934-26.7-7.434-57.383-7.5-92.05c0-4.567-1.567-8.183-4.7-10.85c-2.8-2.433-6.233-3.65-10.3-3.65
				c-4.067,0-7.5,1.217-10.3,3.65c-3.133,2.667-4.7,6.283-4.7,10.85C81.966-332.867,84.816-299.533,90.45-269z"/>
		</g>
		<g>
			<path fill-rule="evenodd" clip-rule="evenodd" fill="#4E569D" d="M69.4-389.05c4.933,8.8,8.617,16.816,11.05,24.05
				c1.367,3.967,3.75,6.967,7.15,9c3.5,2.1,7.267,2.6,11.3,1.5c3.867-1.067,6.9-3.433,9.1-7.1c2.233-3.767,2.7-7.55,1.4-11.35
				c-5.1-14.966-14.2-32.35-27.3-52.15c-3.6-5.467-9.1-13.617-16.5-24.45c-6.5-9.633-11.733-17.967-15.7-25
				c-2-3.534-5.05-5.833-9.15-6.9c-4.067-1.033-7.867-0.533-11.4,1.5c-3.533,2.1-5.816,5.167-6.85,9.2
				c-1.034,4-0.55,7.783,1.45,11.35c3.8,6.7,8.783,14.6,14.95,23.7c7.1,10.233,12.383,17.934,15.85,23.1
				C60.716-403.7,65.6-395.85,69.4-389.05z"/>
		</g>
		<g>
			<path fill-rule="evenodd" clip-rule="evenodd" fill="#4E569D" d="M124.95-84.5c3.7,1.4,7.483,0.917,11.35-1.45
				c3.7-2.233,6.067-5.25,7.1-9.05c1.1-4.067,0.6-7.833-1.5-11.3c-2-3.233-5-5.617-9-7.15l-7.1-2.8c-0.083-0.028-0.4-0.161-0.95-0.4
				c-0.108-0.045-0.225-0.096-0.35-0.15c-4.267-1.867-7.684-3.417-10.25-4.65c-6.467-3.167-12.483-6.433-18.05-9.8
				c-3.6-2.2-6.617-4.117-9.05-5.75l-6.5-4.7c-5.667-4.433-10.533-8.733-14.6-12.9c-2.833-2.833-5.183-5.35-7.05-7.55l-4.95-6
				c-4.2-5.733-7.733-11.267-10.6-16.6c-2.1-3.867-3.7-7.067-4.8-9.6l-0.825-1.75c-0.081-0.209-0.206-0.526-0.375-0.95
				c-0.833-2.067-1.5-3.784-2-5.15c-2.367-6.6-4.383-13.517-6.05-20.75c-0.9-3.933-3.25-6.95-7.05-9.05
				c-3.733-2.033-7.533-2.517-11.4-1.45c-4,1.1-7,3.467-9,7.1c-1.933,3.5-2.433,7.283-1.5,11.35c3.6,15.6,9.067,30.25,16.4,43.95
				c7.633,14.2,16.95,26.767,27.95,37.7c10.733,10.633,23.233,20.167,37.5,28.6C94.833-97.317,109.05-90.567,124.95-84.5z"/>
		</g>
		<g>
			<path fill-rule="evenodd" clip-rule="evenodd" fill="#4E569D" d="M173.7-89.8c17.133-0.467,31.533-2.7,43.2-6.7
				c3.967-1.367,6.967-3.75,9-7.15c2.1-3.5,2.6-7.267,1.5-11.3c-1.067-3.867-3.434-6.883-7.1-9.05c-3.8-2.267-7.583-2.75-11.35-1.45
				c-10.3,3.567-24.117,5.567-41.45,6c-9.467,0.167-16.567,0.317-21.3,0.45c-8.267,0.233-15.35,0.75-21.25,1.55
				c-3.9,0.534-6.917,2.867-9.05,7c-2,3.9-2.483,7.717-1.45,11.45c1.133,4.133,3.5,7.1,7.1,8.9c3.233,1.667,7.017,2.2,11.35,1.6
				c5-0.7,11.683-1.083,20.05-1.15C157.617-89.683,164.533-89.733,173.7-89.8z"/>
		</g>
		<g>
			<path fill-rule="evenodd" clip-rule="evenodd" fill="#4E569D" d="M283.55-34.35c2.833-2.833,4.283-6.383,4.35-10.65
				c0.066-4.367-1.383-7.9-4.35-10.6c-6.533-5.867-11.617-10.533-15.25-14c-5.5-5.233-10.317-10.15-14.45-14.75
				c-2.733-3.066-4.816-5.5-6.25-7.3c-1.767-2.2-3.583-4.7-5.45-7.5c-2.3-3.434-4.2-6.6-5.7-9.5c-0.633-1.133-1.35-2.533-2.15-4.2
				c-0.154-0.332-0.287-0.624-0.4-0.875c-0.13-0.316-0.297-0.724-0.5-1.225c-1.567-4-3.95-7-7.15-9
				c-3.467-2.133-7.233-2.633-11.3-1.5c-3.8,1.034-6.833,3.4-9.1,7.1c-2.367,3.9-2.833,7.684-1.4,11.35
				c5.267,13.333,13.483,26.533,24.65,39.6c7.567,8.867,18.633,19.883,33.2,33.05c3.133,2.8,6.683,4.233,10.65,4.3
				C277.083-29.983,280.617-31.417,283.55-34.35z"/>
		</g>
		<g>
			<path fill-rule="evenodd" clip-rule="evenodd" fill="#4D569D" d="M-17.386-236.401c6.383-3.009,11.045-7.053,13.99-12.133
				c7.137-12.256,5.919-33.926-3.653-65.01c-10.076-32.629-21.524-54.846-34.344-66.649c-11.095-10.279-24.379-13.53-39.854-9.754
				c-16.598,3.975-27.829,13.133-33.694,27.473c-7.194,17.563-5.888,42.259,3.919,74.085c9.572,31.084,20.954,50.261,34.141,57.53
				c5.488,3.122,11.85,4.531,19.082,4.226c4.78-0.174,11.653-1.341,20.619-3.502C-28.212-232.297-21.615-234.385-17.386-236.401z"/>
			<g>
				<path fill-rule="evenodd" clip-rule="evenodd" fill="#4D569D" d="M40.578-241.981c-0.34-3.056-1.288-8.534-2.841-16.433
					c-5.796-29.251-18.104-52.809-36.924-70.676c-8.678-8.246-18.104-14.451-28.282-18.616c-10.102-4.134-20.026-5.879-29.775-5.236
					c-2.497,0.16-3.588,1.902-3.276,5.225c0.356,3.294,1.797,4.891,4.327,4.791c19.784-1.402,38.172,6.556,55.162,23.876
					c16.816,17.11,27.313,38.299,31.489,63.565c1.626,10.153,2.446,15.348,2.46,15.586c0.352,6.259-1.046,10.312-4.195,12.158
					c-3.862,2.255-7.471,1.786-10.827-1.411c-1.457-1.463-4.266-5.531-8.43-12.203c-5.097-8.251-10.28-14.589-15.55-19.015
					c-5.628-4.754-12.072-7.958-19.332-9.611c-2.581-0.523-3.693,0.863-3.337,4.158c0.354,3.294,1.818,5.247,4.388,5.858
					c6,1.287,11.361,4.127,16.084,8.521c3.964,3.764,8.155,9.265,12.573,16.502c3.211,5.271,5.744,8.997,7.596,11.174
					c3.171,3.818,6.464,6.317,9.878,7.498c3.382,1.122,6.935,0.642,10.66-1.437c3.725-2.08,6.137-4.939,7.235-8.579
					C40.927-230.368,41.232-235.601,40.578-241.981z"/>
			</g>
			<g>
				<path fill-rule="evenodd" clip-rule="evenodd" fill="#4D569D" d="M2.294-210.295c4.165-2.877,6.363-7.235,6.596-13.076
					c0.606-14.823-4.666-28.59-15.816-41.302c-9.778-11.189-21.131-18.698-34.059-22.526c-2.594-0.759-4.058,0.416-4.392,3.528
					c-0.343,3.199,0.782,5.18,3.376,5.939c9.193,2.705,17.331,7.166,24.416,13.384c8.31,7.266,13.852,15.948,16.625,26.051
					c1.602,5.972,1.847,11.029,0.733,15.173c-1.359,4.972-4.539,6.922-9.54,5.848c-4.73-1.011-8.833-3.858-12.305-8.539
					c-3.133-4.173-5.432-9.334-6.898-15.483c-0.794-3.239-2.446-4.526-4.957-3.861c-2.468,0.636-3.322,2.542-2.561,5.72
					c1.851,7.694,5.023,14.433,9.519,20.218c4.833,6.291,10.229,10.095,16.188,11.413C-5.898-206.736-1.54-207.565,2.294-210.295z"
					/>
			</g>
		</g>
	</g>
</symbol>
<symbol  id="Symbol_29">
	<g id="Layer_1_9_">
	</g>
</symbol>
<symbol  id="Symbol_32" viewBox="-46.046 -516.214 435.643 531.426">
	<g id="Layer_1_12_">
		<path fill-rule="evenodd" clip-rule="evenodd" fill="#4E569D" d="M179.435,4.521c14.503,0,26.876-5.005,37.121-15.015
			c10.244-10.01,15.366-22.101,15.366-36.272c0-14.17-5.122-26.262-15.366-36.271c-10.245-10.01-22.618-15.016-37.121-15.016
			c-14.459,0-26.833,5.006-37.12,15.016c-10.244,10.01-15.366,22.101-15.366,36.271c0,14.171,5.123,26.262,15.366,36.272
			C152.559-0.484,164.932,4.521,179.435,4.521z"/>
		<g>
			<path fill-rule="evenodd" clip-rule="evenodd" fill="#4E569D" d="M159.458-72.124c0.46,4.462,2.053,8.111,4.779,10.948
				c2.938,3.079,6.655,4.617,11.15,4.617c4.177,0,7.947-1.539,11.31-4.617c3.505-3.217,5.044-6.866,4.62-10.948
				c-2.053-18.955-6.159-39.208-12.319-60.757c-4.601-16.05-11.238-35.575-19.911-58.578c-4.85-12.902-12.159-32.254-21.929-58.059
				c-8.142-22.345-14.354-42.061-18.637-59.148c-1.027-4.082-3.522-7.195-7.487-9.339c-3.929-2.145-7.964-2.664-12.106-1.557
				c-4.212,1.142-7.398,3.598-9.558,7.368c-2.124,3.701-2.655,7.627-1.593,11.777c4.177,16.603,10.248,35.749,18.212,57.437
				c9.628,25.042,16.814,43.842,21.558,56.398c8.885,23.382,15.522,42.597,19.912,57.644c3.256,11.346,5.806,21.429,7.646,30.249
				C157.158-88.796,158.609-79.941,159.458-72.124z"/>
		</g>
		<g>
			<path fill-rule="evenodd" clip-rule="evenodd" fill="#4E569D" d="M373.76,15.198c4.283,0.173,8.018-1.297,11.204-4.41
				c2.938-2.872,4.478-6.555,4.62-11.052c0.177-4.739-1.363-8.388-4.62-10.947c-7.788-5.984-14.407-11.708-19.859-17.174
				c-3.221-3.148-6.018-6.088-8.389-8.82l-3.823-4.514c-0.206-0.259-0.383-0.476-0.531-0.648c-0.136-0.191-0.242-0.338-0.318-0.441
				l0.212,0.312l-1.434-1.919c-8.284-11.242-16.16-25.164-23.628-41.767c-1.699-3.736-4.92-6.123-9.664-7.16
				c-4.496-1.003-8.548-0.484-12.159,1.557c-3.894,2.248-6.301,5.414-7.221,9.495c-0.85,3.771-0.354,7.713,1.486,11.83
				c15.115,33.518,36.036,60.601,62.762,81.251C366.008,13.589,369.796,15.06,373.76,15.198z"/>
		</g>
		<g>
			<path fill-rule="evenodd" clip-rule="evenodd" fill="#4E569D" d="M298.574-67.454c4.248,1.038,8.265,0.519,12.053-1.557
				c3.858-2.11,6.372-5.223,7.54-9.339c1.133-4.081,0.602-8.024-1.593-11.829c-2.195-3.839-5.381-6.278-9.558-7.316
				c-12.531-3.113-24.868-7.056-37.009-11.83c-11.398-4.497-23.115-9.944-35.151-16.343c-10.938-5.846-21.876-12.262-32.814-19.25
				c-10.903-6.987-20.991-14.061-30.266-21.221c-3.646-2.767-7.434-4.237-11.363-4.41c-4.283-0.173-8.018,1.297-11.203,4.41
				c-2.938,2.871-4.478,6.572-4.62,11.103c-0.177,4.739,1.363,8.388,4.62,10.948C200.008-105.105,249.795-79.561,298.574-67.454z"/>
		</g>
		<g>
			<path fill-rule="evenodd" clip-rule="evenodd" fill="#4E569D" d="M87.062-298.435c3.589,2.466,7.521,3.418,11.794,2.858
				c4.343-0.57,7.848-2.558,10.512-5.964c2.564-3.357,3.579-7.214,3.043-11.57c-0.58-4.419-2.607-7.835-6.082-10.247
				c-25.243-17.347-45.721-30.438-61.432-39.274C21.4-375.896-0.903-385.576-22.011-391.672c-4.382-1.239-8.437-1.163-12.167,0.229
				c-4.035,1.504-6.913,4.277-8.633,8.319c-1.613,3.783-1.592,7.774,0.063,11.974c1.684,4.406,4.532,7.184,8.543,8.334
				c20.287,5.827,41.38,14.891,63.281,27.19C43.783-327.347,63.111-314.949,87.062-298.435z"/>
		</g>
		<g>
			<path fill-rule="evenodd" clip-rule="evenodd" fill="#4E569D" d="M-23.333-388.871c-4.137-0.506-8.054,0.563-11.752,3.206
				c-3.899,2.74-5.937,6.164-6.114,10.271c-0.338,8.071-0.298,17.711,0.122,28.921c0.251,6.419,0.702,16.054,1.35,28.907
				c0.134,3.016,0.192,5.224,0.172,6.622l0.025,0.755c-0.001,0.152-0.002,0.274-0.002,0.367l-0.04,1.444
				c-0.042,4.053-0.295,8.256-0.758,12.612c-1.021,9.317-2.65,17.986-4.886,26.008c-1.173,4.384-1.102,8.351,0.212,11.901
				c1.437,3.916,4.235,6.719,8.394,8.407c3.815,1.527,7.893,1.482,12.233-0.134c4.616-1.689,7.472-4.494,8.566-8.414
				c5.804-21.077,8.362-41.51,7.675-61.299c-0.109-3.09-0.324-7.194-0.644-12.313c-0.358-6.16-0.591-10.261-0.697-12.305
				c-0.287-5.646-0.451-10.281-0.492-13.903c-0.023-4.008,0.075-8.557,0.293-13.646c0.205-4.423-0.879-8.232-3.25-11.426
				C-15.433-386.308-18.903-388.302-23.333-388.871z"/>
		</g>
		<g>
			<path fill-rule="evenodd" clip-rule="evenodd" fill="#4E569D" d="M81.405-308.717c1.416,4.116,3.947,7.229,7.593,9.339
				c3.752,2.179,7.752,2.698,12,1.556c4.106-1.106,7.31-3.563,9.61-7.367c2.372-3.909,2.885-7.834,1.54-11.778
				c-6.407-18.644-14.549-38.187-24.425-58.629c-8.106-16.845-18.036-35.575-29.788-56.191
				c-3.469-6.087-11.221-18.816-23.257-38.187c-9.068-14.598-16.14-26.765-21.212-36.5c-0.36-0.905-0.811-1.77-1.354-2.594
				c-2.05-3.682-5.289-5.947-9.717-6.797c-0.535-0.095-1.083-0.173-1.646-0.233c-1.892-0.195-3.671-0.143-5.337,0.156l-8.044,4.202
				c-3.08,3.009-4.62,6.676-4.62,11c0,3.097,0.779,5.846,2.336,8.25c5.015,9.791,12.219,22.261,21.61,37.409
				c11.823,18.989,19.417,31.424,22.779,37.305c11.682,20.512,21.222,38.343,28.62,53.493
				C67.653-344.742,75.423-326.219,81.405-308.717z"/>
		</g>
	</g>
</symbol>
<symbol  id="Symbol_34" viewBox="-4.575 -512.996 232.6 505.484">
	<g id="Layer_1_10_">
		<path fill-rule="evenodd" clip-rule="evenodd" fill="#4E569D" d="M181.457-54.831c-0.7-12.352-5.661-22.643-14.88-30.874
			c-9.22-8.23-20.005-11.996-32.357-11.296c-12.316,0.698-22.607,5.658-30.874,14.88c-8.231,9.22-11.996,20.005-11.296,32.357
			s5.66,22.643,14.879,30.874c9.22,8.231,20.006,11.996,32.358,11.296c12.352-0.7,22.643-5.66,30.874-14.88
			C178.391-31.693,182.156-42.479,181.457-54.831z"/>
		<g>
			<path fill-rule="evenodd" clip-rule="evenodd" fill="#4E569D" d="M119.904-63.861c0.091,4.187,1.444,7.77,4.058,10.75
				c2.734,3.055,6.189,4.657,10.364,4.808c3.973,0.165,7.556-1.188,10.75-4.058c3.284-2.925,4.886-6.38,4.809-10.364
				c-0.189-10.151-0.369-28.807-0.539-55.967c-0.151-23.572-0.436-42.238-0.854-55.997c-0.705-23.306-1.553-41.24-2.546-53.803
				c-1.62-19.91-4.233-37.636-7.841-53.179c-1.008-4.451-3.341-7.617-6.998-9.497c-3.279-1.729-6.881-2.134-10.806-1.215
				c-3.957,0.927-7.037,2.897-9.238,5.911c-2.441,3.31-3.157,7.189-2.148,11.64c1.74,7.427,3.142,15.088,4.204,22.982
				c0.636,4.47,1.154,8.505,1.553,12.107l0.422,4.212l0.045,0.194l0.533,5.777c1.362,16.036,2.329,34.986,2.901,56.852
				c0.354,13.192,0.602,31.335,0.744,54.431C119.507-92.354,119.703-74.215,119.904-63.861z"/>
		</g>
		<g>
			<path fill-rule="evenodd" clip-rule="evenodd" fill="#4E569D" d="M112.515-266.692c-1.292,3.712-0.613,7.446,2.037,11.203
				c2.541,3.595,5.704,5.803,9.49,6.624c4.158,0.899,7.873,0.171,11.145-2.184c2.985-2.106,5.213-5.22,6.682-9.343l83.472-234.398
				c1.325-3.714,0.662-7.466-1.99-11.255c-2.506-3.564-5.668-5.755-9.487-6.574c-4.191-0.897-7.923-0.185-11.197,2.137
				c-2.953,2.104-5.163,5.217-6.632,9.34L112.515-266.692z"/>
		</g>
		<g>
			<path fill-rule="evenodd" clip-rule="evenodd" fill="#4E569D" d="M107.848-276.203c0.853,3.858,3.352,6.721,7.498,8.589
				c3.975,1.811,7.814,2.094,11.517,0.85c4.029-1.363,6.874-3.895,8.534-7.595c1.544-3.393,1.846-7.199,0.905-11.419
				c-3.564-16.358-8.487-34.876-14.767-55.554c-2.624-8.599-8.467-26.864-17.528-54.796c-1.254-3.869-3.787-6.73-7.598-8.583
				c-3.777-1.856-7.583-2.142-11.417-0.855c-3.898,1.322-6.76,3.855-8.584,7.597c-1.826,3.709-2.111,7.515-0.855,11.417
				c8.852,27.176,14.695,45.441,17.528,54.796C99.357-311.146,104.279-292.628,107.848-276.203z"/>
		</g>
		<g>
			<path fill-rule="evenodd" clip-rule="evenodd" fill="#4E569D" d="M75.03-386.924c2.825,3.313,6.032,5.401,9.62,6.266
				c3.928,0.979,7.663,0.3,11.203-2.037c3.248-2.187,5.386-5.396,6.415-9.628c1.083-4.468,0.354-8.2-2.187-11.194
				c-24.498-28.727-37.73-44.236-39.696-46.529c-15.087-17.607-28.429-32.994-40.026-46.159c-2.636-2.922-6.229-4.171-10.779-3.746
				c-4.319,0.378-7.798,2.028-10.437,4.948c-2.826,3.165-4.041,6.756-3.646,10.774c0.375,3.684,1.992,7.166,4.849,10.442
				l10.386,11.832c0.143,0.159,0.713,0.811,1.713,1.956l-0.051-0.022l8.041,9.335c2.462,2.798,10.878,12.571,25.249,29.319
				L75.03-386.924z"/>
		</g>
		<g>
			<path fill-rule="evenodd" clip-rule="evenodd" fill="#4E569D" d="M119.594-108.336c3.361,2.224,7.129,2.829,11.306,1.816
				c4.104-1.03,7.228-3.25,9.371-6.661c2.153-3.515,2.742-7.28,1.767-11.294c-0.959-3.949-3.163-7.077-6.611-9.382
				c-6.93-4.604-15.779-10.177-26.55-16.72c-6.022-3.653-15.072-9.128-27.148-16.426c-21.595-13.313-38.386-25.255-50.374-35.824
				c-3.19-2.811-6.694-4.333-10.513-4.568c-4.093-0.238-7.665,1.095-10.713,3.999c-2.845,2.753-4.399,6.265-4.665,10.536
				c-0.245,4.505,1.121,8.069,4.095,10.69c13.44,11.803,31.365,24.71,53.773,38.723C88.591-128.221,107.345-116.517,119.594-108.336
				z"/>
		</g>
		<g>
			<path fill-rule="evenodd" clip-rule="evenodd" fill="#4E569D" d="M82.724-226.717c-0.032-4.372-1.389-7.971-4.07-10.799
				c-2.944-3.074-6.425-4.568-10.442-4.482c-3.645,0.067-7.24,1.371-10.785,3.913l-45.581,33.261
				c-3.153,2.312-4.7,5.788-4.639,10.427c0.032,4.373,1.388,7.972,4.07,10.799c2.944,3.073,6.424,4.567,10.441,4.482
				c3.646-0.067,7.24-1.371,10.785-3.913l45.581-33.26C81.238-218.602,82.785-222.078,82.724-226.717z"/>
		</g>
		<g>
			<path fill-rule="evenodd" clip-rule="evenodd" fill="#4E569D" d="M134.593-180.526c4.061-0.23,7.42-1.623,10.08-4.177
				c2.976-2.873,4.334-6.589,4.076-11.148c-0.46-8.12-1.382-20.254-2.765-36.402c-1.384-16.181-2.322-28.314-2.814-36.399
				c-0.258-4.56-2.028-8.099-5.309-10.617c-2.965-2.236-6.477-3.238-10.537-3.008c-4.061,0.23-7.42,1.622-10.08,4.177
				c-2.942,2.871-4.285,6.586-4.026,11.146c0.492,8.084,1.43,20.218,2.814,36.399c1.383,16.147,2.304,28.282,2.764,36.402
				c0.258,4.559,2.028,8.098,5.31,10.617C127.037-181.3,130.532-180.296,134.593-180.526z"/>
		</g>
		<g>
			<path fill-rule="evenodd" clip-rule="evenodd" fill="#4E569D" d="M196.6-180.7c-0.733,0.733-1.483,1.45-2.25,2.15
				c-1.267,0.933-2.15,1.6-2.65,2c-0.431,0.34-0.606,0.49-0.525,0.45c-5.755,3.938-12.914,8.105-21.475,12.5
				c-10.7,5.533-21.417,10.55-32.15,15.05c-3.667,1.5-6.066,4.45-7.2,8.85c-1.1,4.2-0.717,8.034,1.15,11.5
				c2.033,3.7,5.033,6.05,9,7.05c3.633,0.933,7.417,0.583,11.35-1.05l1.85-0.8c16.167-6.933,29.85-13.633,41.05-20.1
				c5.033-2.933,8.85-5.267,11.45-7c4.167-2.767,7.667-5.533,10.5-8.3c6.433-6.333,10.117-14.383,11.05-24.15
				c0.733-8.067,0-17.117-2.2-27.15c-1.6-7.066-4.25-15.783-7.95-26.15c-4.533-12.6-8.967-23.45-13.3-32.55
				c-1.767-3.633-4.733-6-8.9-7.1c-4.1-1.167-7.917-0.8-11.45,1.1c-3.633,2-6,5-7.1,9c-1.1,3.833-0.75,7.6,1.05,11.3
				c1.2,2.434,2.517,5.333,3.95,8.7c1.033,2.367,2.4,5.683,4.1,9.95l1.05,2.65v-0.1l2.1,5.9c3.533,10.1,6,18.817,7.4,26.15
				c0.467,2.3,0.833,4.367,1.1,6.2l0.3,2.5c0,0.167,0.017,0.283,0.05,0.35c0.066,2.433,0.066,4.25,0,5.45
				c0,0.233-0.117,1.217-0.35,2.95c-0.2,0.566-0.5,1.367-0.9,2.4C196.667-180.867,196.633-180.767,196.6-180.7z"/>
		</g>
	</g>
</symbol>
<symbol  id="Symbol_36" viewBox="-0.008 -475.97 264.113 475.97">
	<g id="Layer_1_11_">
		<path fill-rule="evenodd" clip-rule="evenodd" fill="#4E569D" d="M160.25-12.15c8.1-8.1,12.15-17.883,12.15-29.35
			s-4.05-21.25-12.15-29.35C152.15-78.95,142.367-83,130.9-83c-11.434,0-21.217,4.05-29.35,12.15c-8.1,8.1-12.15,17.883-12.15,29.35
			s4.05,21.25,12.15,29.35S119.433,0,130.9,0S152.15-4.05,160.25-12.15z"/>
		<g>
			<path fill-rule="evenodd" clip-rule="evenodd" fill="#4E569D" d="M125.1-35c4.167,0,7.7-1.483,10.6-4.45
				c2.833-2.9,4.3-6.417,4.4-10.55c0.4-14.6-0.167-30.8-1.7-48.6c-1-11.767-2.85-27.9-5.55-48.4c-3-23.033-4.966-39.167-5.9-48.4
				c-1.867-18.067-2.816-34.267-2.85-48.6c0-4.567-1.566-8.183-4.7-10.85c-2.833-2.433-6.283-3.65-10.35-3.65s-7.5,1.217-10.3,3.65
				c-3.1,2.667-4.65,6.283-4.65,10.85c0.034,14.333,0.983,30.533,2.85,48.6c0.934,9.233,2.9,25.367,5.9,48.4
				c2.7,20.5,4.55,36.633,5.55,48.4c1.533,17.8,2.1,34,1.7,48.6c-0.1,4.067,1.383,7.583,4.45,10.55
				C117.55-36.483,121.066-35,125.1-35z"/>
		</g>
		<g>
			<path fill-rule="evenodd" clip-rule="evenodd" fill="#4E569D" d="M123.2-232.75c3.567,0.933,7.067,1.983,10.5,3.15
				c2.867,0.967,10.25,3.684,22.15,8.15c8.867,3.267,16.934,5.717,24.2,7.35c8.733,2,17.083,3.033,25.05,3.1
				c4.1,0.033,7.633-1.433,10.6-4.4c2.934-2.967,4.4-6.5,4.4-10.6s-1.466-7.617-4.4-10.55c-2.967-2.934-6.5-4.417-10.6-4.45
				c-2.6,0-4.816-0.083-6.65-0.25l-3.3-0.3c-0.26-0.035-0.543-0.068-0.85-0.1c-4.067-0.733-7.717-1.517-10.95-2.35
				c-6.367-1.767-13.85-4.267-22.45-7.5c-9.6-3.6-17.434-6.3-23.5-8.1c-8.6-2.566-16.7-4.367-24.3-5.4
				c-3.867-0.5-7.383,0.95-10.55,4.35c-2.967,3.233-4.45,6.783-4.45,10.65c0,4.267,1.483,7.767,4.45,10.5
				c2.7,2.433,6.217,3.933,10.55,4.5c-0.9-0.1-0.583-0.017,0.95,0.25c0.8,0.167,1.783,0.35,2.95,0.55
				C119.633-233.633,121.7-233.15,123.2-232.75z"/>
		</g>
		<g>
			<path fill-rule="evenodd" clip-rule="evenodd" fill="#4E569D" d="M207.994-213.1c3.658,0,6.658-1.483,9-4.45
				c2.115-2.7,3.4-6.216,3.857-10.55c1.257-11.533,1.114-26.533-0.429-45c-1.971-23.667-2.971-38.667-3-45
				c-0.028-4.567-1.386-8.183-4.071-10.85c-2.428-2.433-5.372-3.65-8.829-3.65c-3.486,0-6.429,1.2-8.829,3.6
				c-2.686,2.7-4.014,6.333-3.986,10.9c0.029,6.333,1.029,21.333,3,45c1.543,18.467,1.686,33.467,0.429,45
				c-0.4,3.9,0.843,7.417,3.729,10.55C201.608-214.583,204.651-213.1,207.994-213.1z"/>
		</g>
		<g>
			<path fill-rule="evenodd" clip-rule="evenodd" fill="#4E569D" d="M97.847-231.185c2.424,2.54,5.533,3.892,9.326,4.057
				c3.583,0.156,6.844-0.919,9.78-3.225c3.06-2.382,4.495-5.205,4.306-8.468c-0.769-14.227-3.031-33.276-6.789-57.15
				c-4.449-28.088-7.17-46.994-8.165-56.718c-0.357-3.571-1.587-6.509-3.689-8.816c-2.363-2.537-5.472-3.889-9.327-4.057
				c-3.493-0.152-6.752,0.923-9.779,3.226c-3.184,2.459-4.62,5.282-4.306,8.468c1.013,9.999,3.73,29.013,8.151,57.045
				c3.76,23.819,6.028,42.76,6.803,56.823C94.369-236.518,95.599-233.58,97.847-231.185z"/>
		</g>
		<g>
			<path fill-rule="evenodd" clip-rule="evenodd" fill="#4E569D" d="M80.609-350.918c1.765,4.857,4.329,8.098,7.69,9.721
				c3.002,1.5,5.99,1.451,8.966-0.148c3.002-1.556,5.056-4.177,6.162-7.863c1.256-4.06,1.001-8.52-0.764-13.376
				c-4.831-13.193-12.039-30.328-21.623-51.404c-11.425-25.206-18.917-42.147-22.477-50.825c-1.779-4.339-4.261-7.486-7.446-9.439
				c-3.266-2.048-6.429-2.264-9.488-0.647c-2.946,1.569-4.954,4.518-6.021,8.847c-1.098,4.396-0.797,8.699,0.903,12.907
				c3.48,8.472,10.987,25.417,22.518,50.835C68.557-381.287,75.751-364.156,80.609-350.918z"/>
		</g>
		<g>
			<path fill-rule="evenodd" clip-rule="evenodd" fill="#4E569D" d="M164.8-137.1c4.1-1.467,9.467-3.233,16.1-5.3
				c8.6-2.667,14-4.367,16.2-5.1c3.967-1.3,6.967-3.683,9-7.15c2.1-3.533,2.6-7.3,1.5-11.3c-1.066-3.867-3.433-6.883-7.1-9.05
				c-3.767-2.233-7.55-2.717-11.35-1.45c-8.2,2.534-14.367,4.45-18.5,5.75c-7.367,2.3-13.434,4.434-18.2,6.4
				c-14.1,5.767-26.083,13-35.95,21.7c-2.967,2.667-4.417,6.2-4.35,10.6c0.066,4.267,1.517,7.817,4.35,10.65
				c2.966,2.934,6.5,4.367,10.6,4.3c3.934-0.1,7.483-1.534,10.65-4.3c4.066-3.6,8.517-6.75,13.35-9.45
				C155.9-133.433,160.466-135.533,164.8-137.1z"/>
		</g>
		<g>
			<path fill-rule="evenodd" clip-rule="evenodd" fill="#4E569D" d="M210.15-124.95c15,12.267,24.45,20.133,28.35,23.6
				c3.167,2.767,6.716,4.2,10.65,4.3c4.133,0.066,7.667-1.367,10.6-4.3c2.833-2.833,4.283-6.383,4.35-10.65
				c0.1-4.4-1.35-7.933-4.35-10.6c-3.534-3.133-12.983-11-28.35-23.6c-11.667-9.566-20.883-17.7-27.65-24.4
				c-2.9-2.867-6.434-4.316-10.6-4.35c-4.2,0-7.75,1.45-10.65,4.35c-2.867,2.9-4.317,6.45-4.35,10.65c0,4.2,1.45,7.733,4.35,10.6
				C189.2-142.717,198.417-134.583,210.15-124.95z"/>
		</g>
		<g>
			<path fill-rule="evenodd" clip-rule="evenodd" fill="#4E569D" d="M130.1-124.4c2.1-3.567,2.6-7.35,1.5-11.35
				c-1.1-3.9-3.4-6.967-6.9-9.2c-18.833-11.933-36.55-25.816-53.15-41.65c-17.1-16.267-31.583-33.25-43.45-50.95
				c-2.333-3.467-5.4-5.75-9.2-6.85c-3.967-1.133-7.75-0.65-11.35,1.45c-3.433,2.034-5.733,5.1-6.9,9.2
				c-1.233,4.233-0.733,8.017,1.5,11.35c13.667,20.3,29.8,39.35,48.4,57.15c18.1,17.333,37.767,32.75,59,46.25
				c3.4,2.133,7.183,2.633,11.35,1.5C124.966-118.633,128.033-120.933,130.1-124.4z"/>
		</g>
	</g>
</symbol>
<symbol  id="Symbol_38" viewBox="0 -586.399 1472.451 611.577">
	<g id="Layer_1_17_">
		<path fill-rule="evenodd" clip-rule="evenodd" fill="#CDCCCC" d="M1405.25-586.399l-1391.4,32.5L12.5-190.55
			c39.967,6.734,83.7,14.85,131.2,24.35c94.933,19,161.15,35.384,198.65,49.15c37.5,13.733,79.25,36.85,125.25,69.35
			c23,16.267,42.25,31.15,57.75,44.65l57.5-80l-0.5,58l80-63l54.6,0.4l13.4-17.4l716.851-190.35L1405.25-586.399z"/>
		<path fill-rule="evenodd" clip-rule="evenodd" fill="#BFBED5" d="M524.5,15.9c2.767-2.8,7.2-7.467,13.3-14
			c11.467-12.033,18.967-17.517,22.5-16.45c0.333,0.1,1.833,1.05,4.5,2.85c2.9,1.733,5.284,2.6,7.15,2.6
			c3.633,0,20.066-10.1,49.3-30.3c14.6-10.1,28.85-20.2,42.75-30.3l22.55-2c15.3-1.7,23.617-3.466,24.95-5.3
			c5.467-7.633,38.517-21.167,99.15-40.6c30.334-9.7,73.002-27.989,102.234-36.189c-11,1.667-38.977,4.017-53.91,6.083
			c-29.898,4.133-52.607,16.089-72.375,18.156c-1.667,0.167-2.8-0.467-3.4-1.9c-0.367-0.867-0.617-2.483-0.75-4.85
			c-0.134-2.4-0.384-4.05-0.75-4.95c-0.6-1.433-1.733-2.083-3.4-1.95c-0.633,0.067-4.533,1.617-11.7,4.65
			c-6.867,2.9-12.3,4.35-16.3,4.35c-2.833,0-5.183,1.434-7.05,4.3c-0.833,1.467-1.467,2.483-1.9,3.05
			c-0.667,0.934-1.35,1.417-2.05,1.45c-26.4,1.667-45.683,1.55-57.85-0.35c-14.667-2.3-18.7-7.167-12.1-14.6
			c8.833-9.9,11.833-15.6,9-17.1c-2.667-1.4-8.6,1.017-17.8,7.25c-5.267,3.567-12.066,9.25-20.4,17.05l-10.9,10.65
			c-1.633,1.8-3.733,3.8-6.3,6c-5.1,4.367-9.95,7.467-14.55,9.3c-1.7,0.667-3.283,1.133-4.75,1.4c-2.133,0.4-4.2,0.433-6.2,0.1
			c-3.934-0.633-7.3-2.85-10.1-6.65c-1.5-2.033-1.55-6.583-0.15-13.65c1.4-7.133,1.267-11.867-0.4-14.2
			c-2.667-3.667-6-7.966-10-12.9c-5.167-6.333-8.866-10.417-11.1-12.25c-2.267-1.832-3.2-7.283-2.8-16.35
			c0.367-7.799,1.167-13.467,2.4-17c1.467-4.199,1.934-9.699,1.4-16.5c-0.467-5.9-1.517-11.316-3.15-16.25
			c-1.6-4.9-3.033-7.217-4.3-6.949c-1.467,0.266-2.2,4.066-2.2,11.4c0,1.898-1.116,4.283-3.35,7.148
			c-3.067,3.602-5.467,6.518-7.2,8.75c-6.867,8.801-10.017,18.051-9.45,27.75c0.4,6.668-1.283,10.9-5.05,12.701
			c-2.033,0.732-3.467,1.316-4.3,1.75c-1.434,0.799-2.317,1.982-2.65,3.549c-1.133,5.701-0.683,13.467,1.35,23.301
			c1.034,4.6,1.717,7.783,2.05,9.55c0.533,2.933,0.616,4.883,0.25,5.85c-6.134,15.833-11.467,22.6-16,20.3
			c-3.1-1.566-7.633-5.15-13.6-10.75c-6.467-6.066-10.833-9.816-13.1-11.25c-3.367-2.133-7.267-3.367-11.7-3.7
			c-5.6-0.067-10.35-0.383-14.25-0.95c-2.433-0.367-3.733-0.167-3.9,0.6c-0.133,0.6,0.55,1.8,2.05,3.6c0.9,1.133,2.65,3.2,5.25,6.2
			c2.466,2.967,4.433,5.717,5.9,8.25c1.066,1.833,0.883,4.483-0.55,7.95c-1.5,3.667-1.983,6.183-1.45,7.55
			c2.233,5.567,3.2,9.333,2.9,11.3c-0.467,3.2-3.65,4.267-9.55,3.2c-4.133,0.367-7.784,0.467-10.95,0.3
			c-5.967-0.367-10.267-2.617-12.9-6.75c-3.233-5.133-8.067-7.9-14.5-8.3c-3.7-0.033-6.483-0.066-8.35-0.1
			c-3.433-0.066-6.3-0.466-8.6-1.2c-21.967-6.767-79.95-27.017-173.95-60.75c-43.756-15.71-72.697-26.119-86.825-31.224
			c4.926,1.924,38.651,17,101.175,45.224c22.7,10.267,46.633,21,71.8,32.2c16.6,7.4,25.433,11.383,26.5,11.95
			c17.767,9.233,37.117,23.15,58.05,41.75c11.8,10.5,27.867,25.733,48.2,45.7c15.4,14.433,26.533,24.117,33.4,29.05
			c11.9,8.6,21.9,12.45,30,11.55C516.184,23.75,519.767,20.7,524.5,15.9z"/>
		<path fill-rule="evenodd" clip-rule="evenodd" fill="#D5D4E6" d="M1314.35-171.351c2.301-0.299,14.584-2.898,36.852-7.799
			c20.533-4.533,32.916-6.801,37.148-6.801c26.734,0.033,48.867,3.9,66.4,11.6c8.301,3.635,14.201,7.25,17.701,10.851
			l-38.531-134.263l-553,27.01l54.668,60.354c2.732-0.467,163.646,43.367,168.912,44.299c10.533,1.867,22.15,6.234,34.85,13.101
			c4.701,2.533,15.834,2.017,33.4-1.55c1.6-0.3,8.367-1.784,20.301-4.45c7.299-1.633,12.4-2.583,15.299-2.85
			c3.9-0.367,8.617-0.433,14.15-0.2c3.1,0.133,7.65,0.316,13.65,0.55c10.699,0.2,19.699-1.567,27-5.3
			c5.533-2.834,13.65-4.217,24.35-4.15c2.967,0,7.451,0.084,13.451,0.25C1306.25-170.667,1310.717-170.884,1314.35-171.351z"/>
		<path fill-rule="evenodd" clip-rule="evenodd" fill="#D5D4E6" d="M382.275-107.625L277.7-221.999H2.35v111.049
			c2.733-0.466,6.733-0.233,12,0.7c10.533,1.867,22.15,6.233,34.85,13.1c4.7,2.533,15.833,2.017,33.4-1.55
			c1.6-0.3,8.367-1.783,20.3-4.45c7.3-1.633,12.4-2.583,15.3-2.85c3.9-0.367,8.617-0.433,14.15-0.2c3.1,0.133,7.65,0.317,13.65,0.55
			c10.7,0.2,19.7-1.567,27-5.3c5.533-2.833,13.65-4.216,24.35-4.15c2.967,0,7.45,0.083,13.45,0.25c5.3,0.033,9.767-0.183,13.4-0.65
			c2.3-0.3,14.583-2.9,36.85-7.8c20.534-4.534,32.917-6.8,37.15-6.8c26.733,0.033,48.867,3.9,66.4,11.6
			C372.893-114.874,378.784-111.249,382.275-107.625z"/>
		<path fill-rule="evenodd" clip-rule="evenodd" fill="#D5D4E6" fill-opacity="0.8" d="M1030-121.2
			c8.301,3.633,202.088-151.818,205.588-148.219L943.1-224.7H667.75v111.05l2.6-1.05c2.333-0.733,5.017-1.1,8.05-1.1
			c9.633-0.067,20.8,3.333,33.5,10.2c3.934,2.1,13.95,9.05,30.05,20.85c15.533,10.567,26.267,15.583,32.2,15.05
			c4.233-0.4,9.733,1.417,16.5,5.45c2.9,1.7,9.151,6.017,18.75,12.95c7.934,5.733,14.117,9.583,18.551,11.55
			c6.5,2.867,11.799,3.25,15.898,1.15c8.967-4.566,29.533-13.083,61.701-25.55c34.934-13.533,56.332-20.8,64.199-21.8
			c2.367-0.3,4.967-2.15,7.801-5.55c1.6-1.867,4.15-5.483,7.65-10.85c3.266-5.066,5.816-8.6,7.648-10.6c2.9-3.2,5.584-4.8,8.051-4.8
			c9.066,0,15.066-1.533,18-4.6c1-1.066,1.967-1.583,2.9-1.55C1023.234-123.867,1025.967-122.967,1030-121.2z"/>
		<path fill-rule="evenodd" clip-rule="evenodd" fill="#E5E5E5" d="M407.85-152h-0.65c0.867,1.3,2,2.033,3.4,2.2
			c1.333,0.167,2.65-0.184,3.95-1.05c-0.233-2.167-1.316-3.967-3.25-5.4c-2-1.5-3.95-1.85-5.85-1.05c0.1,0.2,0.466,1.117,1.1,2.75
			C407.017-153.35,407.45-152.5,407.85-152z"/>
		<path fill-rule="evenodd" clip-rule="evenodd" fill="#E5E5E5" d="M441.85-182.649c-0.075-0.695-0.317-1.67-0.725-2.926
			c1.062,1.15,2.07,1.559,3.025,1.225c1.2-0.398,1.9-1.6,2.1-3.6c0.2-2.066-0.3-3.816-1.5-5.25c-1.4-1.699-3.483-2.35-6.25-1.949
			c-0.133,1.467,0.333,3.516,1.4,6.15c0.509,1.309,0.917,2.449,1.225,3.424c-0.415-0.459-0.839-1.033-1.275-1.725L441.85-182.649z"
			/>
		<path fill-rule="evenodd" clip-rule="evenodd" fill="#DFDEE6" d="M1392.75-583.351l-1391.4,32.5L0-187.499
			c39.967,6.732,83.7,14.85,131.2,24.349c94.933,19,161.15,35.383,198.65,49.15c37.5,13.733,79.25,36.85,125.25,69.35
			c23,16.267,42.25,31.15,57.75,44.65l57.5-80l-0.5,58l80-63l55.7,3.65l12.3-20.65l716.851-190.351L1392.75-583.351z"/>
		<path fill-rule="evenodd" clip-rule="evenodd" fill="#F3F3F3" d="M530.4,4.3c2.4-2.5,5.767-6.066,10.1-10.7
			c3.467-3.533,6.117-5.8,7.95-6.8c4.5-2.533,8.167-3.867,11-4c3.2-0.2,6.417,1.017,9.65,3.65c2.8,2.3,17.683-7.05,44.65-28.05
			c13.5-10.5,26.7-21.217,39.6-32.15l26.1-2.15c17.633-1.8,27.116-3.617,28.45-5.45c5.467-7.633,24.633-17.566,57.5-29.8
			c16.434-6.1,32.317-11.45,47.651-16.05c1.033-0.933,0.082-1.667-2.85-2.2c-5.867-1.033-18.685-0.517-38.451,1.55
			c-1.667,0.167-2.8-0.467-3.4-1.9c-0.367-0.867-0.617-2.483-0.75-4.85c-0.133-2.4-0.383-4.05-0.75-4.95
			c-0.6-1.434-1.733-2.083-3.4-1.95c-0.634,0.067-4.534,1.617-11.7,4.65c-6.867,2.9-12.3,4.35-16.3,4.35
			c-2.833,0-5.184,1.433-7.05,4.3c-0.833,1.467-1.466,2.483-1.9,3.05c-0.667,0.933-1.35,1.417-2.05,1.45
			c-26.4,1.667-45.684,1.55-57.85-0.35c-14.667-2.3-18.7-7.167-12.1-14.6c8.833-9.9,11.833-15.6,9-17.1
			c-2.667-1.4-8.6,1.017-17.8,7.25c-5.267,3.567-12.067,9.25-20.4,17.05l-10.9,10.65c-1.633,1.8-3.733,3.8-6.3,6
			c-5.1,4.367-9.95,7.466-14.55,9.3c-1.7,0.667-3.283,1.133-4.75,1.4c-2.133,0.4-4.2,0.434-6.2,0.1c-3.934-0.633-7.3-2.85-10.1-6.65
			c-1.5-2.033-1.55-6.583-0.15-13.65c1.4-7.133,1.267-11.867-0.4-14.2c-2.667-3.667-6-7.967-10-12.9
			c-5.167-6.333-8.867-10.417-11.1-12.25c-2.267-1.834-3.2-7.283-2.8-16.35c0.367-7.801,1.167-13.467,2.4-17
			c1.466-4.201,1.933-9.701,1.4-16.5c-0.467-5.9-1.517-11.318-3.15-16.25c-1.6-4.9-3.034-7.217-4.3-6.951
			c-1.466,0.268-2.2,4.066-2.2,11.4c0,1.9-1.117,4.283-3.35,7.15c-3.067,3.6-5.467,6.516-7.2,8.75
			c-6.867,8.799-10.017,18.049-9.45,27.75c0.4,6.666-1.284,10.9-5.05,12.699c-2.033,0.734-3.466,1.316-4.3,1.75
			c-1.434,0.801-2.317,1.983-2.65,3.551c-1.133,5.699-0.684,13.466,1.35,23.299c1.034,4.6,1.717,7.783,2.05,9.55
			c0.533,2.933,0.617,4.883,0.25,5.85c-6.133,15.833-11.467,22.6-16,20.3c-3.1-1.567-7.633-5.15-13.6-10.75
			c-6.467-6.067-10.833-9.817-13.1-11.25c-3.367-2.133-7.267-3.367-11.7-3.7c-5.6-0.066-10.35-0.383-14.25-0.95
			c-2.434-0.367-3.733-0.167-3.9,0.6c-0.133,0.6,0.55,1.8,2.05,3.6c0.9,1.133,2.65,3.2,5.25,6.2c2.467,2.967,4.433,5.717,5.9,8.25
			c1.067,1.833,0.883,4.483-0.55,7.95c-1.5,3.667-1.983,6.184-1.45,7.55c2.233,5.566,3.2,9.333,2.9,11.3
			c-0.467,3.2-3.65,4.267-9.55,3.2c-4.133,0.367-7.783,0.467-10.95,0.3c-5.967-0.367-10.267-2.617-12.9-6.75
			c-3.233-5.133-8.067-7.9-14.5-8.3c-3.7-0.033-6.483-0.067-8.35-0.1c-3.433-0.067-6.3-0.467-8.6-1.2
			c-17.233-5.333-37.55-11.233-60.95-17.7c-21.5-5.9-31.55-8.533-30.15-7.9c0.966,0.433,3.466,1.75,7.5,3.95
			c5.033,2.533,11.117,5.1,18.25,7.7c20.133,7.367,40.183,18.667,60.15,33.9c13.467,10.233,29.5,24.533,48.1,42.9
			c20.7,20.434,34.017,33.133,39.95,38.1c13.6,11.333,25.533,17.8,35.8,19.4C514,19.95,521.066,14.167,530.4,4.3z"/>
		<path fill-rule="evenodd" clip-rule="evenodd" fill="#E5E5E5" d="M511.25-191.999l-1.1-5.951
			C510.017-196.007,510.384-194.022,511.25-191.999z M511.45-191.524c0.169,0.355,0.353,0.713,0.55,1.074
			c1.5,2.701,3.367,4.418,5.6,5.15c2.667-2.033,3.283-4.666,1.85-7.9c-1.4-3.066-3.65-4.883-6.75-5.449
			C511.75-197.333,511.333-194.958,511.45-191.524z"/>
		<path fill-rule="evenodd" clip-rule="evenodd" fill="#E5E5E5" d="M385.9-160.95l-1.3-2c1.167,4.067,2.633,5.784,4.4,5.15
			c1.5-0.567,2.717-2.434,3.65-5.6c0.967-3.132,1.033-5.632,0.2-7.5c-0.967-2.168-3-2.4-6.1-0.701
			c-0.033,0.334-0.05,2.15-0.05,5.451C386.667-163.95,386.4-162.217,385.9-160.95z"/>
		<path fill-rule="evenodd" clip-rule="evenodd" fill="#E5E5E5" d="M618.5-181.3l0.7-4.699c0.267,2.232,0.466,3.85,0.6,4.85
			c0.233,1.766,0.884,3.133,1.95,4.1c0.867-1.666,1.167-3.482,0.9-5.449c-0.3-2.168-1.25-3.635-2.85-4.4
			C618.333-185.532,617.9-183.667,618.5-181.3z"/>
		<path fill-rule="evenodd" clip-rule="evenodd" fill="#E5E5E5" d="M350.5-132l-1.3-5.3c-0.367,2.233,0.083,4.117,1.35,5.65
			c1.367,1.6,3.083,1.933,5.15,1c-0.2-2.267-0.583-3.983-1.15-5.15c-0.833-1.733-2.117-2.633-3.85-2.7
			C350.3-135.367,350.233-133.2,350.5-132z"/>
		<path fill-rule="evenodd" clip-rule="evenodd" fill="#E5E5E5" d="M402.85-178.649c-0.3,2.332,0.017,4.016,0.95,5.049
			c0.2,0.734,0.65,1.168,1.35,1.301c1.367-0.5,2.3-2.084,2.8-4.75c0.5-2.732-0.117-4.301-1.85-4.699
			C404.3-182.149,403.217-181.116,402.85-178.649z"/>
		<path fill-rule="evenodd" clip-rule="evenodd" fill="#E5E5E5" d="M515.1-195.351c1,0.334,2.05-0.1,3.15-1.299
			c1.133-1.234,1.7-2.65,1.7-4.25c0.033-1.9-0.833-3.551-2.6-4.951c-1.233,0.367-2.2,1.084-2.9,2.15
			c-0.634,1.033-0.95,2.301-0.95,3.801v0.65C513.467-197.017,514-195.716,515.1-195.351z"/>
		<path fill-rule="evenodd" clip-rule="evenodd" fill="#E5E5E5" d="M488.625-123.55c-0.523,2.342-0.198,3.926,0.975,4.75
			c1.066,0.733,2.316,0.683,3.75-0.15c1.433-0.867,2.066-2.017,1.9-3.45c-0.2-1.733-1.717-3.317-4.55-4.75
			c-2.233,1.233-3.117,3.2-2.65,5.9L488.625-123.55z"/>
		<path fill-rule="evenodd" clip-rule="evenodd" fill="#E5E5E5" d="M515.2-206.649l0.65-2c0.267,0.467,0.5,1.082,0.7,1.85
			c0.267,0.533,0.867,0.768,1.8,0.699c-0.034-1.133-0.25-1.982-0.65-2.549l-1.75-1.75c-0.434,0.533-0.684,1.133-0.75,1.799
			C515.133-208.233,515.133-207.583,515.2-206.649z"/>
		<path fill-rule="evenodd" clip-rule="evenodd" fill="#E5E5E5" d="M296.5-257.999l5.35,13.35c1-2.701,1.033-5.25,0.1-7.65
			C300.983-254.767,299.167-256.667,296.5-257.999z"/>
		<path fill-rule="evenodd" clip-rule="evenodd" fill="#E5E5E5" d="M296.5-251.999v8.699c1.367-1.666,2.05-3.199,2.05-4.6
			S297.867-250.667,296.5-251.999z"/>
		<path fill-rule="evenodd" clip-rule="evenodd" fill="#E5E5E5" d="M443.85-211.3l-4-2.699C440.45-212.2,441.783-211.3,443.85-211.3
			z"/>
		<path fill-rule="evenodd" clip-rule="evenodd" fill="#E5E5E5" d="M311.2-245.55c-0.333-1.066-1-2.1-2-3.1l2,6.65
			C311.533-243.3,311.533-244.483,311.2-245.55z"/>
		<path fill-rule="evenodd" clip-rule="evenodd" fill="#E5E5E5" d="M739.2-138c0.433-0.867,0.65-2.417,0.65-4.65L739.2-138z"/>
		<path fill-rule="evenodd" clip-rule="evenodd" fill="#E5E5E5" d="M729.1-158c-0.034-0.1-0.233-0.317-0.6-0.65l0.7,1.35
			C729.2-157.667,729.167-157.9,729.1-158z"/>
		<path fill-rule="evenodd" clip-rule="evenodd" fill="#E5E5E5" d="M776.5-138.65c1.333-0.633,2-1.517,2-2.65L776.5-138.65z"/>
		<path fill-rule="evenodd" clip-rule="evenodd" fill="#E5E5E5" d="M431.85-107.3l-4-5.35
			C428.583-110.383,429.917-108.6,431.85-107.3z"/>
		<path fill-rule="evenodd" clip-rule="evenodd" fill="#E5E5E5" d="M299.2-248.649l-1.35-2c0,0.633,0.133,1.133,0.4,1.5
			C298.517-248.817,298.833-248.649,299.2-248.649z"/>
		<path fill-rule="evenodd" clip-rule="evenodd" fill="#E5E5E5" d="M270.5-257.999l2.7,2.699
			C272.6-256.499,271.7-257.399,270.5-257.999z"/>
		<path fill-rule="evenodd" clip-rule="evenodd" fill="#E5E5E5" d="M778.5-130.65c0-0.9-0.217-1.35-0.65-1.35L778.5-130.65z"/>
		<path fill-rule="evenodd" clip-rule="evenodd" fill="#E5E5E5" d="M718.5-128.65l-2.65-4.65
			C716.483-131.4,717.367-129.85,718.5-128.65z"/>
		<path fill-rule="evenodd" clip-rule="evenodd" fill="#E5E5E5" d="M831.275-170.649c0.439,0.01,1.082,0.094,1.926,0.25
			c0.799,0.1,1.465,0.016,2-0.25H831.275z"/>
		<path fill-rule="evenodd" clip-rule="evenodd" fill="#E5E5E5" d="M849.201-166l0.648-0.649c-0.266,0-0.449,0.1-0.549,0.299
			L849.201-166z"/>
		<path fill-rule="evenodd" clip-rule="evenodd" fill="#E5E5E5" d="M301.2-153.3c0.9,1.767,1.783,2.867,2.65,3.3L301.2-153.3z"/>
	</g>
</symbol>
<symbol  id="Symbol_41" viewBox="33.04 -468.528 159.024 466.028">
	<g id="Layer_1_14_">
		<path fill-rule="evenodd" clip-rule="evenodd" fill="#4E569D" d="M192.064-48.316c0-12.655-4.389-23.455-13.168-32.399
			c-8.779-8.944-19.379-13.417-31.8-13.417c-12.453,0-23.069,4.472-31.848,13.417c-8.779,8.945-13.168,19.744-13.168,32.399
			c0,12.655,4.39,23.455,13.168,32.399C124.059-6.973,134.675-2.5,147.096-2.5c12.421,0,23.021-4.473,31.8-13.417
			C187.675-24.861,192.064-35.661,192.064-48.316z"/>
		<g>
			<path fill-rule="evenodd" clip-rule="evenodd" fill="#4E569D" d="M168.857-33.369c1.75-3.837,2.147-7.761,1.19-11.771
				c-9.955-42.04-16.587-73.897-19.896-95.574c-5.442-35.782-6.864-68.4-4.267-97.855c0.356-4.08-0.834-7.727-3.568-10.942
				c-2.599-3.077-5.511-4.615-8.738-4.615c-3.473,0-6.345,1.538-8.615,4.615c-2.078,2.835-3.309,6.482-3.692,10.942
				c-2.708,30.527-1.217,64.58,4.472,102.16c3.528,23.301,10.393,56.473,20.594,99.515c0.984,4.114,2.926,7.226,5.825,9.334
				c2.926,2.178,6.03,2.697,9.312,1.556C164.673-27.146,167.135-29.601,168.857-33.369z"/>
		</g>
		<g>
			<path fill-rule="evenodd" clip-rule="evenodd" fill="#4E569D" d="M125.148-231.776c2.042,3.681,4.86,6.012,8.452,6.994
				c3.684,0.978,7.113,0.307,10.287-2.014c3.146-2.25,5.196-5.455,6.148-9.615c7.296-31.982,13.741-67.04,19.334-105.174
				c4.437-30.194,8.8-65.661,13.088-106.401c0.486-4.451-0.121-8.368-1.818-11.752c-1.829-3.655-4.615-5.97-8.359-6.946
				c-3.468-0.918-6.928-0.263-10.379,1.967c-3.599,2.339-5.618,5.543-6.057,9.611c-4.261,40.635-8.623,76.12-13.086,106.454
				c-5.595,38.099-12.04,73.157-19.334,105.174C122.498-239.425,123.073-235.524,125.148-231.776z"/>
		</g>
		<g>
			<path fill-rule="evenodd" clip-rule="evenodd" fill="#4E569D" d="M66.789-319.516c1.743-3.533,2.3-7.429,1.675-11.688
				c-5.646-38.677-9.015-79.021-10.108-121.033c-0.112-4.402-1.238-8.119-3.377-11.15c-2.244-3.21-5.138-4.918-8.682-5.123
				c-3.347-0.194-6.401,1.169-9.163,4.09c-2.822,3.021-4.185,6.593-4.09,10.718c1.133,45.372,4.707,88.479,10.72,129.323
				c0.603,4.12,2.466,7.36,5.588,9.721c3.069,2.289,6.256,2.975,9.561,2.059C62.332-313.543,64.957-315.849,66.789-319.516z"/>
		</g>
		<g>
			<path fill-rule="evenodd" clip-rule="evenodd" fill="#4E569D" d="M121.867-220.059c3.579,0.336,6.738-0.959,9.477-3.888
				c2.616-2.796,4.057-6.42,4.323-10.87c0.274-4.623-0.873-8.338-3.44-11.146c-12.611-13.782-24.249-27.96-34.913-42.534
				c-11.389-15.618-21.278-31.17-29.668-46.657c-2.001-3.71-4.61-6.208-7.828-7.495c-3.389-1.399-6.73-1.083-10.021,0.95
				c-3.109,1.904-5.279,4.969-6.509,9.192c-1.264,4.36-0.965,8.288,0.897,11.783c18.451,34.111,41.274,66.025,68.471,95.74
				C115.422-221.991,118.492-220.349,121.867-220.059z"/>
		</g>
		<g>
			<path fill-rule="evenodd" clip-rule="evenodd" fill="#4E569D" d="M188.303-132.701c-0.264-3.469-1.208-6.66-2.832-9.571
				c-1.699-3.098-4.078-5.746-7.136-7.945c-4.946-3.655-11.063-6.846-18.349-9.571l-8.778-3.159
				c-2.228-0.775-3.587-1.239-4.078-1.394l-4.361-1.58c-6.305-2.385-13.233-5.591-20.785-9.618
				c-4.682-2.509-11.232-6.272-19.651-11.291c-2.87-1.735-4.569-2.757-5.097-3.066c-1.058-0.682-2.662-1.781-4.814-3.299
				c-4.078-2.912-7.287-5.389-9.628-7.434c-1.737-1.486-3.172-2.788-4.304-3.902c-0.481-0.465-0.792-0.774-0.934-0.929l0.594,0.697
				l-1.812-2.044c-2.266-2.757-4.248-5.637-5.947-8.642c-1.85-3.345-5.267-5.482-10.25-6.412c-4.795-0.898-9.118-0.418-12.969,1.44
				c-4.115,1.952-6.683,4.77-7.702,8.457c-0.944,3.407-0.416,6.938,1.586,10.593c6.229,11.244,17.254,21.977,33.074,32.199
				c5.776,3.748,12.95,7.899,21.521,12.452c9.817,5.08,17.047,8.844,21.691,11.291c2.152,1.115,4.7,2.23,7.646,3.345
				c1.585,0.62,4.248,1.564,7.985,2.834c1.702,0.597,3.014,1.062,3.937,1.394l-0.566-0.186l5.408,1.905
				c2.87,1.053,5.343,2.044,7.419,2.973c1.418,0.684,2.438,1.18,3.059,1.487c-3.097,2.72-4.664,5.956-4.701,9.711
				c0,3.872,1.642,7.155,4.927,9.85c3.247,2.664,7.249,4.012,12.006,4.042c4.833,0,8.835-1.347,12.006-4.042
				C184.924-119.304,188.87-126.166,188.303-132.701z"/>
		</g>
	</g>
</symbol>
<symbol  id="Symbol_47" viewBox="0.038 -20.779 16.706 20.809">
	<g id="Layer_1_13_">
		
			<line fill-rule="evenodd" clip-rule="evenodd" fill="none" stroke="#5A4B38" stroke-linejoin="round" stroke-miterlimit="3" x1="16.3" y1="-20.55" x2="5.9" y2="-0.4"/>
		<path fill-rule="evenodd" clip-rule="evenodd" fill="#5A4B38" d="M13.546-0.618C7.933-1.314,3.625-3.485,0.622-7.129L0.038-6.933
			C2.055-2.046,6.546,0.269,13.511,0.01L13.546-0.618z"/>
	</g>
</symbol>
<symbol  id="Symbol_51" viewBox="-0.5 -42 1172.25 117">
	<g id="Layer_1_5_">
		<linearGradient id="SVGID_14_" gradientUnits="userSpaceOnUse" x1="230.1499" y1="54.25" x2="1113.0498" y2="54.25">
			<stop  offset="0" style="stop-color:#E4E4E4"/>
			<stop  offset="1" style="stop-color:#F7F8F8"/>
		</linearGradient>
		<polygon fill-rule="evenodd" clip-rule="evenodd" fill="url(#SVGID_14_)" points="1113.05,33.5 230.15,33.5 230.15,75 1113.05,75 
					"/>
		<linearGradient id="SVGID_15_" gradientUnits="userSpaceOnUse" x1="0" y1="-20.75" x2="1171.75" y2="-20.75">
			<stop  offset="0" style="stop-color:#E4E4E4"/>
			<stop  offset="1" style="stop-color:#F7F8F8"/>
		</linearGradient>
		<polygon fill-rule="evenodd" clip-rule="evenodd" fill="url(#SVGID_15_)" points="944.65,0 1171.75,0 1171.75,-41.5 944.65,-41.5 
			0,-41.5 0,0 		"/>
		
			<polyline fill-rule="evenodd" clip-rule="evenodd" fill="none" stroke="#CDCCCC" stroke-linecap="round" stroke-linejoin="round" stroke-miterlimit="3" points="
			944.65,-41.5 0,-41.5 0,0 944.65,0 		"/>
	</g>
</symbol>
<symbol  id="Symbol_52" viewBox="-1.4 -42.5 606.7 42.9">
	<g id="Layer_1_6_">
		<linearGradient id="SVGID_16_" gradientUnits="userSpaceOnUse" x1="-19.7124" y1="-21.0498" x2="971.0126" y2="-21.0498">
			<stop  offset="0" style="stop-color:#AED245"/>
			<stop  offset="1" style="stop-color:#8DB33E"/>
		</linearGradient>
		<polygon fill-rule="evenodd" clip-rule="evenodd" fill="url(#SVGID_16_)" points="588,-42 437.5,-41.8 -0.9,-41.6 -0.9,-0.1 
			437.5,-0.1 604.8,-0.65 		"/>
		
			<polyline fill-rule="evenodd" clip-rule="evenodd" fill="none" stroke="#CDCCCC" stroke-linecap="round" stroke-linejoin="round" stroke-miterlimit="3" points="
			604.8,-0.65 437.5,-0.1 -0.9,-0.1 -0.9,-41.6 437.5,-41.8 588,-42 		"/>
	</g>
</symbol>
<symbol  id="Symbol_55" viewBox="-0.5 -0.5 672.15 1">
	<g id="Layer_1_22_">
		
			<line fill-rule="evenodd" clip-rule="evenodd" fill="none" stroke="#FFFFFF" stroke-linecap="round" stroke-linejoin="round" stroke-miterlimit="3" x1="0" y1="0" x2="671.15" y2="0"/>
	</g>
</symbol>
<symbol  id="flash0.ai_Assets_x5F_0_x2F_Illustrator_Symbols_x2F_New_Symbol_1" viewBox="-129.917 -264.55 431.095 579.728">
	<g id="Layer_1_3_">
		<g>
			<g>
				<path fill-rule="evenodd" clip-rule="evenodd" fill="#4E569D" d="M84.3,63.45c-0.7-1.467-1.767-1.784-3.2-0.95
					c-1.434,0.833-1.8,1.983-1.1,3.45c10.333,21.667,23.733,41.316,40.2,58.95c17.867,19.067,36.283,32.467,55.25,40.2
					c1.5,0.633,2.466,0.133,2.9-1.5c0.433-1.6-0.083-2.7-1.55-3.3c-19.133-7.8-37.55-21.566-55.25-41.3
					C106.217,101.867,93.8,83.35,84.3,63.45z"/>
			</g>
			<g>
				<path fill-rule="evenodd" clip-rule="evenodd" fill="#4E569D" d="M214.5,248.2c5.967,6.633,11.483,12.25,16.55,16.85
					c16,14.534,28.017,19.684,36.05,15.45c9.967-5.233,6.867-16.75-9.3-34.55c-5.033-5.534-11.483-11.8-19.35-18.8
					c-7.133-6.2-11.167-9.783-12.1-10.75c-12.9-13.467-26.833-29-41.8-46.6c-9.6-11.3-22.883-27.383-39.85-48.25
					c-17.333-21.333-33.417-41.5-48.25-60.5c-0.167-0.233-0.383-0.55-0.65-0.95l-198.1-302.15c-2.3-3.467-6.3-5.934-12-7.4
					c-5.8-1.5-10.517-1.183-14.15,0.95c-2.933,1.7-1.466,9.7,4.4,24c4.867,11.9,9.15,20.617,12.85,26.15L53.9,51.1
					c2.133,3.2,5.283,8.066,9.45,14.6c3.767,5.767,7.1,10.5,10,14.2c15.467,19.9,32.183,40.867,50.15,62.9
					c17.1,21,30.383,37.067,39.85,48.2c15,17.633,28.933,33.167,41.8,46.6C206.083,238.567,209.2,242.1,214.5,248.2z"/>
			</g>
			<g>
				<path fill-rule="evenodd" clip-rule="evenodd" fill="#4E569D" d="M59.013,138.997l-0.056,0.001
					c0.229-0.271,0.404-0.439,0.526-0.503c0.069-0.036-0.04,0.097-0.327,0.398C59.11,138.93,59.063,138.964,59.013,138.997z
					 M73.79,141.215c-0.016,0.032-0.034,0.07-0.053,0.113c-0.009-0.192-0.013-0.378-0.012-0.559
					C73.735,140.408,73.756,140.557,73.79,141.215z M44.819,198.508c8.578,1.848,16.959,1.427,25.144-1.262
					c9.384-3.057,17.437-7.786,24.159-14.185c7.161-6.781,12.032-14.729,14.613-23.843c3.038-10.823,3.477-21.54,1.319-32.15
					c-2.364-11.858-7.613-20.936-15.747-27.234c-6.922-5.354-15.209-7.186-24.86-5.494c-1.351,0.239-2.689,0.539-4.016,0.899
					c-5.468-2.754-11.159-3.533-17.071-2.337c-7.553,1.529-14.172,6.085-19.855,13.67c-4.162,5.541-7.912,12.899-11.253,22.074
					c-3.945,10.887-5.785,20.947-5.517,30.181c0.375,11.512,4.063,20.809,11.066,27.89
					C28.738,192.704,36.077,196.634,44.819,198.508z"/>
			</g>
			<g>
				<path fill-rule="evenodd" clip-rule="evenodd" fill="#4E569D" d="M254.9,291.7c-3.3-5.767-5.017-12.083-5.15-18.95
					c-0.033-1.534-0.566-2.75-1.6-3.65c-0.967-0.8-2.117-1.2-3.45-1.2c-1.367,0-2.517,0.4-3.45,1.2c-1.033,0.9-1.533,2.117-1.5,3.65
					c0.167,8.633,2.333,16.6,6.5,23.9c4.2,7.267,9.967,13.183,17.3,17.75c1.3,0.8,2.6,0.983,3.9,0.55
					c1.133-0.367,2.05-1.15,2.75-2.35c0.667-1.167,0.9-2.367,0.7-3.6c-0.233-1.367-1-2.45-2.3-3.25
					C262.767,302.117,258.2,297.433,254.9,291.7z"/>
			</g>
			<g>
				<path fill-rule="evenodd" clip-rule="evenodd" fill="#4E569D" d="M252,266.6c-1.167,0.434-2.083,1.233-2.75,2.4
					c-0.7,1.167-0.933,2.35-0.7,3.55c0.233,1.367,1.017,2.433,2.35,3.2c4.824,2.785,9.041,5.902,12.65,9.35
					c-4.64-2.187-8.29-3.97-10.95-5.35c-1.333-0.7-2.667-0.8-4-0.3c-1.167,0.434-2.1,1.233-2.8,2.4
					c-0.667,1.167-0.883,2.333-0.65,3.5c0.267,1.333,1.066,2.35,2.4,3.05c3.233,1.667,8.167,3.983,14.8,6.95
					c5.733,2.8,10.25,5.784,13.55,8.95c1.767,1.7,3.783,1.917,6.05,0.65s3.033-3.117,2.3-5.55c-2.033-6.633-5.733-12.867-11.1-18.7
					c-4.733-5.167-10.467-9.7-17.2-13.6C254.617,266.333,253.3,266.167,252,266.6z"/>
			</g>
			<g>
				<path fill-rule="evenodd" clip-rule="evenodd" fill="#4E569D" d="M255.7,275.95c-0.027,0.374-0.01,0.757,0.05,1.15
					c0.2,1.4,0.9,2.55,2.1,3.45c2.633,1.933,7.6,3.967,14.9,6.1c6.6,1.933,11.3,4.3,14.1,7.1c1.7,1.7,3.75,1.917,6.15,0.65
					c2.433-1.3,3.167-3.133,2.2-5.5c-2.966-7.267-8.583-13-16.85-17.2c-7.333-3.733-15.333-5.667-24-5.8
					c-1.534-0.034-2.733,0.466-3.6,1.5c-0.8,0.933-1.2,2.066-1.2,3.4c0,1.367,0.4,2.533,1.2,3.5c0.9,1.033,2.1,1.566,3.6,1.6
					C254.799,275.907,255.249,275.924,255.7,275.95z"/>
			</g>
			<g>
				<path fill-rule="evenodd" clip-rule="evenodd" fill="#4E569D" d="M250.75,285.6c2.867,0.966,5.316,1.466,7.35,1.5
					c1.367,0.033,2.55-0.45,3.55-1.45c0.967-1,1.45-2.183,1.45-3.55s-0.5-2.534-1.5-3.5c-0.966-0.967-2.133-1.467-3.5-1.5
					c-0.194,0-0.369-0.008-0.525-0.025l-0.275-0.025l-3.85-1.1c-1.267-0.433-2.533-0.283-3.8,0.45
					c-1.233,0.733-2.017,1.75-2.35,3.05c-0.367,1.333-0.2,2.583,0.5,3.75C248.466,284.367,249.45,285.167,250.75,285.6z"/>
			</g>
			<g>
				<path fill-rule="evenodd" clip-rule="evenodd" fill="#4E569D" d="M255.55,268.7c0.8,2.1,2.316,3.117,4.55,3.05
					c2.1-0.067,5.233-0.383,9.4-0.95c2.101-0.172,4.009-0.164,5.725,0.025c0.009,0.042,0.018,0.083,0.025,0.125
					c0.467,2.633,0.667,4.45,0.6,5.45c-0.133,1.8-0.933,3.85-2.4,6.15c-0.8,1.3-2.033,3.2-3.7,5.7c-1.066,2-0.933,3.816,0.4,5.45
					c1.333,1.633,3.083,2.25,5.25,1.85c3.433-0.633,6.35-2.267,8.75-4.9c2.233-2.467,3.783-5.467,4.65-9
					c0.833-3.467,0.883-6.883,0.15-10.25c-0.011-0.053-0.02-0.103-0.025-0.15c1.109,0.977,2.051,2.093,2.825,3.35
					c0.8,1.3,1.883,2.067,3.25,2.3c1.233,0.2,2.45-0.033,3.65-0.7c1.167-0.7,1.933-1.617,2.3-2.75c0.433-1.3,0.25-2.6-0.55-3.9
					c-4.2-6.9-11.117-11.15-20.75-12.75c-9.867-1.667-17.567,0.467-23.1,6.4C255.083,264.8,254.75,266.633,255.55,268.7z"/>
			</g>
			<g>
				<path fill-rule="evenodd" clip-rule="evenodd" fill="#4E569D" d="M57.3,106.05c-0.566,1.4-0.517,2.65,0.15,3.75
					c0.6,1,1.566,1.667,2.9,2c1.3,0.367,2.55,0.3,3.75-0.2c1.333-0.533,2.283-1.5,2.85-2.9c2.833-7,4.466-14.067,4.9-21.2
					c0.433-7.533-0.533-14.683-2.9-21.45c-0.5-1.433-1.4-2.433-2.7-3c-1.167-0.5-2.4-0.583-3.7-0.25c-1.3,0.367-2.267,1.05-2.9,2.05
					c-0.733,1.133-0.85,2.417-0.35,3.85C63.367,80.333,62.7,92.783,57.3,106.05z"/>
			</g>
			<g>
				<path fill-rule="evenodd" clip-rule="evenodd" fill="#4E569D" d="M70.65,102.1c1.3,0.367,2.467,0.283,3.5-0.25
					c1.167-0.6,1.883-1.65,2.15-3.15c1.967-11.767,0.85-23.1-3.35-34c-1.167-2.967-3.35-4.017-6.55-3.15c-1.3,0.333-2.267,1-2.9,2
					c-0.667,1.1-0.733,2.367-0.2,3.8c3.8,9.867,4.917,19.433,3.35,28.7C66.117,99.217,67.45,101.233,70.65,102.1z"/>
			</g>
			<g>
				<path fill-rule="evenodd" clip-rule="evenodd" fill="#4E569D" d="M74.25,100.3c1,0.8,2.183,1.2,3.55,1.2
					c1.333,0,2.45-0.4,3.35-1.2c0.967-0.867,1.4-2.066,1.3-3.6C81.55,83.067,78,70.9,71.8,60.2c-0.767-1.333-1.833-2.117-3.2-2.35
					c-1.2-0.233-2.383-0.017-3.55,0.65c-1.167,0.7-1.966,1.633-2.4,2.8c-0.433,1.3-0.267,2.6,0.5,3.9c5.4,9.367,8.5,19.867,9.3,31.5
					C72.55,98.2,73.15,99.4,74.25,100.3z"/>
			</g>
			<g>
				<path fill-rule="evenodd" clip-rule="evenodd" fill="#4E569D" d="M64.65,94.05c0.533,1.4,1.467,2.383,2.8,2.95
					c1.2,0.5,2.45,0.567,3.75,0.2c1.3-0.367,2.267-1.05,2.9-2.05c0.667-1.1,0.733-2.367,0.2-3.8
					c-5.1-13.967-9.017-24.383-11.75-31.25c-4.8-11.967-9.716-21.934-14.75-29.9c-0.8-1.3-1.9-2.067-3.3-2.3
					c-1.233-0.2-2.433,0.033-3.6,0.7c-1.167,0.7-1.95,1.617-2.35,2.75c-0.4,1.267-0.2,2.55,0.6,3.85
					c4.867,7.7,9.6,17.283,14.2,28.75C55.983,70.583,59.75,80.617,64.65,94.05z"/>
			</g>
			<g>
				<path fill-rule="evenodd" clip-rule="evenodd" fill="#4E569D" d="M73.8,55.9c0.714,1.454,1.848,2.262,3.4,2.425
					c0.926,2.222,2.06,4.947,3.4,8.175c2.566,6.233,4.75,11.367,6.55,15.4c1.033,2.3,2.85,3.05,5.45,2.25
					c2.533-0.8,3.816-2.4,3.85-4.8c0.1-6.434-5.534-23.617-16.9-51.55C71.083,6.9,64.933-7.417,61.1-15.15
					C54.5-28.917,45.983-40.967,35.55-51.3c-1.75-1.726-3.517-3.368-5.3-4.925c1.133-1.883,5.967-17.408,14.5-46.575
					c8.533-29.3,12.8-45.1,12.8-47.4c0-0.333-2.683-6.4-8.05-18.2c-6.267-13.867-12.4-26.967-18.4-39.3
					c-18.434-37.9-29.783-56.85-34.05-56.85c-2.9,0-6.316,1.133-10.25,3.4c-1.069,0.612-1.985,1.179-2.75,1.7
					c-1.194,0.397-2.177,1.38-2.95,2.95c-0.3,0.633,7.5,17.45,23.4,50.45C20-173.917,28.433-156.7,29.8-154.4
					c-3.734,8.272-8.767,22.822-15.1,43.65c-2,6.533-5.034,14.317-9.1,23.35c-4.1,9.1-6.583,13.533-7.45,13.3
					c-2.533-0.7-4.367,0.05-5.5,2.25c-1.167,2.167-0.967,4.2,0.6,6.1c0.673,0.808,1.39,1.633,2.15,2.475
					c-0.388,0.938-0.488,1.862-0.3,2.775c0.3,1.267,1.133,2.217,2.5,2.85c0.865,0.393,1.731,0.826,2.6,1.3
					c0.39,2.707,1.373,3.315,2.95,1.825c1.01,0.674,2.019,1.407,3.025,2.2C3.932-52.512,1.69-52.503-0.55-52.3
					c-1.5,0.133-2.7,0.767-3.6,1.9c-0.767,1-1.167,2.183-1.2,3.55c0,1.367,0.4,2.467,1.2,3.3c0.9,0.966,2.1,1.383,3.6,1.25
					c5.733-0.5,11.5,0.417,17.3,2.75c1.052,0.429,2.069,0.887,3.05,1.375c1.657,1.987,3.607,4.329,5.85,7.025
					c1.262,1.524,2.836,3.375,4.725,5.55c-3.318-2.037-6.776-3.82-10.375-5.35c-0.398-0.17-0.798-0.336-1.2-0.5
					c-2.7-1.1-4.583-0.233-5.65,2.6c-1.066,2.833-0.467,5.017,1.8,6.55c1.466,0.966,5.983,3.55,13.55,7.75
					c0.974,0.534,1.907,1.067,2.8,1.6C38.983-6.946,45.883,1.07,52,11.1c3.5,5.733,7.333,13.133,11.5,22.2
					C65.833,38.367,69.267,45.9,73.8,55.9z"/>
			</g>
		</g>
	</g>
</symbol>
<symbol  id="pp">
	<g id="Layer_1_7_">
	</g>
</symbol>
<symbol  id="pp_copy" viewBox="28.5 32.05 1 0.95">
	<g id="Layer_1_4_">
		
			<line fill-rule="evenodd" clip-rule="evenodd" fill="none" stroke="#CFD0CC" stroke-linejoin="round" stroke-miterlimit="3" x1="29" y1="33" x2="29" y2="32.05"/>
	</g>
</symbol>
<g>
	<defs>
		<rect id="SVGID_17_" width="1280" height="769"/>
	</defs>
	<clipPath id="SVGID_18_">
		<use xlink:href="#SVGID_17_"  overflow="visible"/>
	</clipPath>
	
		<rect x="-2.379" y="67.001" clip-path="url(#SVGID_18_)" fill-rule="evenodd" clip-rule="evenodd" fill="#D6E8F7" width="1282.379" height="701.999"/>
	
		<rect x="-2.379" y="67.001" clip-path="url(#SVGID_18_)" fill-rule="evenodd" clip-rule="evenodd" fill="#F2F2F2" width="1282.379" height="701.999"/>
	<path clip-path="url(#SVGID_18_)" fill-rule="evenodd" clip-rule="evenodd" fill="#E9EAEB" d="M1355.974,818.805H-21.861V0
		h1377.834V818.805z M333.015,436.062l1.152-0.269c6.01,0,9.799,0.017,11.368,0.053c1.269,0.038,2.07,0.108,2.404,0.216H333.015z
		 M238.412,528.187c-1.703,1.356-2.554,2.963-2.554,4.817c0,0.999,0.267,1.964,0.801,2.892c0.935,1.642,2.471,2.461,4.607,2.461
		c1.102,0,2.254-0.232,3.456-0.694c1.402-0.608,3.055-1.019,4.958-1.23h20.884c0.334,0.035,0.969,0.142,1.903,0.319l23.288,0.216
		c0.768,0.177,2.27,0.464,4.507,0.854l13.522,0.216c4.04,0.464,8.364,1.017,12.971,1.658c4.107,0.5,9.549,0.964,16.326,1.393
		h112.282c0.1,0,0.184-0.019,0.25-0.055c0.901,3.605,2.521,5.407,4.858,5.407c2.837,0,4.541-1.374,5.108-4.121
		c0.033-0.216,0.05-1.964,0.05-5.246c0-5.711-1.803-8.814-5.409-9.314c-1.402-0.18-2.638,0.214-3.706,1.178
		c-0.367,0.32-0.667,0.696-0.901,1.123c-1.235-0.391-2.705-0.659-4.407-0.803h-49.931c-0.968,0.18-1.619,0.341-1.953,0.482
		l-15.575,0.053c-0.968,0.18-1.619,0.341-1.953,0.483h-37.861c-8.514-0.751-13.839-1.232-15.976-1.445
		c-3.639-0.394-7.545-0.964-11.719-1.715l-15.075-0.053l-4.507-1.018l-22.787-0.053c-0.768-0.178-1.418-0.339-1.953-0.482h-23.688
		v0.216C243.887,525.548,240.615,526.367,238.412,528.187z M259.445,478.885c-0.534-0.105-2.688-0.303-6.46-0.589
		c-3.639-0.284-5.826-0.43-6.561-0.43c-5.643,0-9.181,0.394-10.617,1.18c-0.333,0.214-0.701,0.481-1.102,0.803
		c-0.467,0.25-1.186,0.375-2.154,0.375c-0.434,0-1.135-0.216-2.103-0.642c-0.902-0.429-1.586-0.645-2.054-0.645
		c-2.036,0-3.589,0.894-4.657,2.677c-0.835,1.393-1.252,2.928-1.252,4.604c0,1.178,0.25,2.212,0.751,3.105
		c0.901,1.641,2.538,2.461,4.908,2.461c3.673,0,6.695-0.498,9.065-1.497c2.37-1,5.458-1.5,9.265-1.5c0.734,0,2.638,0.107,5.709,0.32
		c3.239,0.251,5.192,0.429,5.86,0.535l75.322,0.216c9.749,1.677,17.528,2.302,23.337,1.873c5.81-0.393,13.105,0.162,21.886,1.658
		l62.551,0.216c0.334,0.035,0.952,0.142,1.853,0.319h29.348c1.135-0.07,7.028-0.765,17.679-2.086
		c11.352-1.319,19.815-1.98,25.391-1.98c4.908,0,8.129,0.945,9.666,2.838c0.3,0.391,0.567,0.731,0.801,1.016
		c0,0.749,0,1.625,0,2.623c0.568,4.104,2.288,6.155,5.158,6.155c2.037,0,3.756-3.657,5.159-10.974c0.1-0.498,0.2-0.962,0.3-1.391
		c0.234-0.464,0.484-0.929,0.751-1.393c2.07-3.89,3.105-6.691,3.105-8.403c0-1.643-0.451-3.052-1.352-4.229
		c-0.936-1.142-2.053-1.803-3.355-1.982c-0.868-0.106-1.669-0.017-2.404,0.268c-0.467,0.037-0.935,0.145-1.402,0.322
		c-2.237,0.856-3.84,2.854-4.808,5.994c-0.534-0.212-1.102-0.428-1.703-0.642c-2.137-0.748-5.559-1.125-10.267-1.125
		c-6.21,0-15.174,0.697-26.894,2.089c-10.684,1.391-16.243,2.106-16.677,2.142h-27.544c-0.802-0.178-1.469-0.339-2.003-0.483
		l-61.95-0.052c-8.748-0.5-16.126-1.126-22.136-1.874c-5.643-0.751-13.321-1.357-23.037-1.821L259.445,478.885z M299.861,427.496
		c-2.471,0.284-4.074,0.768-4.808,1.445c-0.634,0.57-0.952,1.696-0.952,3.372c0,1.249,0.417,2.426,1.252,3.532l-24.54,0.216
		c-6.077-0.287-10.45-0.607-13.121-0.964c-0.801-0.107-2.104-0.394-3.906-0.857c-1.502-0.571-2.788-1.033-3.856-1.392
		c-1.937-0.677-3.706-1.019-5.309-1.019c-2.371,0-4.09,0.716-5.158,2.142c-0.668,0.929-1.001,1.999-1.001,3.212
		c0,2.963,2.788,5.266,8.363,6.907c5.409,1.605,13.088,2.516,23.037,2.729l24.891,0.214c0.334,0.036,0.968,0.143,1.903,0.32h22.637
		l2.003-0.32h60.999c0.435,0.107,2.538,0.25,6.311,0.43c3.839,0.213,5.993,0.354,6.46,0.426h59.747
		c10.717-1.783,17.662-2.693,20.833-2.729c3.172,0,6.344-0.268,9.516-0.804l110.729-0.214c-0.267,2.749-0.4,5.8-0.4,9.153
		c0,4.248,1.72,6.37,5.158,6.37c3.406,0,5.459-2.604,6.161-7.814c0-2.213,0-3.998,0-5.354c0.433-1.212,0.834-2.641,1.202-4.282
		c0.901-4.247,1.352-7.958,1.352-11.135c0-1.283-0.434-2.622-1.302-4.015c-0.902-1.393-1.937-2.354-3.105-2.89
		c-3.105-1.357-5.141,0.82-6.11,6.53c-0.066,0.357-0.117,0.696-0.15,1.017c-0.333,0.605-0.617,1.285-0.851,2.034
		c-2.738-0.606-6.444-0.893-11.118-0.857l-14.524-0.053c-0.801-0.178-1.452-0.339-1.953-0.482l-26.393-0.053
		c-0.768-0.178-1.419-0.339-1.954-0.483l-85.087-0.051l-5.609-1.019l-13.922-0.053c-0.234-0.07-1.419-0.409-3.556-1.019
		l-14.573-0.052c-1.502-0.322-6.511-0.678-15.024-1.071c-8.547-0.394-13.456-0.732-14.724-1.019l-13.021-0.052
		c-1.736-0.287-5.993-0.731-12.771-1.338c-6.11-0.571-11.418-1-15.926-1.287h-15.425v0.216
		C314.067,426.3,303.267,427.103,299.861,427.496z M154.676,288.156c-0.801,1.035-1.202,2.106-1.202,3.212
		c0,3.604,5.859,7.316,17.578,11.134c11.686,3.855,21.785,5.371,30.299,4.55h91.198c7.279,0.25,12.287-0.75,15.024-2.997
		c1.636-1.32,2.454-3.248,2.454-5.782c0-2.212-2.137-4.942-6.41-8.189c-3.973-2.998-8.697-5.658-14.173-7.977
		c-5.676-2.426-10.4-3.712-14.173-3.854c-4.274-0.214-6.411,1.178-6.411,4.175c0,2.676,3.088,5.282,9.265,7.815
		c0.401,0.179,2.922,1.125,7.563,2.837c2.871,1.106,4.891,2.016,6.06,2.73l-0.601,0.268l-0.501,0.108h-87.893l-1.903-0.375
		l-13.021-0.16c-1.302-0.322-6.494-2.052-15.575-5.193c-8.247-2.855-12.788-4.283-13.622-4.283
		C156.963,286.174,155.644,286.834,154.676,288.156z"/>
	<path clip-path="url(#SVGID_18_)" fill-rule="evenodd" clip-rule="evenodd" fill="#929090" d="M127.782,388.849v-0.149
		c0-1.027,0-1.89,0-2.585h0.951c-0.167,0.695-0.3,1.408-0.4,2.138c-0.201,0.033-0.317,0.082-0.351,0.147v0.449H127.782z"/>
	
		<line clip-path="url(#SVGID_18_)" fill-rule="evenodd" clip-rule="evenodd" fill="none" stroke="#A31E22" stroke-width="0.1" stroke-miterlimit="10" x1="127.782" y1="388.849" x2="127.782" y2="388.699"/>
	<g transform="matrix(1 0 0 1 -3.706082e-006 3.426776e-006)" clip-path="url(#SVGID_18_)">
		
			<use xlink:href="#Symbol_38"  width="1472.451" height="611.577" id="XMLID_1_" y="-586.399" transform="matrix(1.1841 0 0 -1.1753 -288.543 169.4458)" overflow="visible"/>
	</g>
</g>
</svg>
