<?xml version="1.0" encoding="utf-8"?>
<!-- Generator: Adobe Illustrator 15.1.0, SVG Export Plug-In . SVG Version: 6.00 Build 0)  -->
<!DOCTYPE svg PUBLIC "-//W3C//DTD SVG 1.1//EN" "http://www.w3.org/Graphics/SVG/1.1/DTD/svg11.dtd">
<svg version="1.1" id="Layer_1" xmlns="http://www.w3.org/2000/svg" xmlns:xlink="http://www.w3.org/1999/xlink" x="0px" y="0px"
	 width="90px" height="60px" viewBox="0 0 90 60" enable-background="new 0 0 90 60" xml:space="preserve">
<symbol  id="Symbol_28" viewBox="-119.507 -481.972 407.409 481.972">
	<g id="flash0.ai_1_">
		<path fill-rule="evenodd" clip-rule="evenodd" fill="#4E569D" d="M158.25-12.15c8.1-8.1,12.15-17.883,12.15-29.35
			s-4.05-21.25-12.15-29.35C150.15-78.95,140.367-83,128.9-83c-11.434,0-21.217,4.05-29.35,12.15c-8.1,8.1-12.15,17.883-12.15,29.35
			s4.05,21.25,12.15,29.35S117.433,0,128.9,0S150.15-4.05,158.25-12.15z"/>
		<g>
			<path fill-rule="evenodd" clip-rule="evenodd" fill="#4E569D" d="M145.55-50.45c3.133-3.033,4.583-6.55,4.35-10.55
				c-1.7-28.367-5.7-62.783-12-103.25c-3.567-22.833-9.067-57.067-16.5-102.7c-0.567-3.9-2.9-6.9-7-9
				c-3.867-2.033-7.684-2.533-11.45-1.5c-4.1,1.133-7.066,3.5-8.9,7.1c-1.7,3.3-2.233,7.083-1.6,11.35
				c7.167,43.967,12.467,76.917,15.9,98.85c6.067,38.8,9.917,71.85,11.55,99.15c0.267,4.2,1.767,7.717,4.5,10.55
				c2.833,2.967,6.333,4.45,10.5,4.45C138.933-46,142.483-47.483,145.55-50.45z"/>
		</g>
		<g>
			<path fill-rule="evenodd" clip-rule="evenodd" fill="#4E569D" d="M207.173-312.855c0.619-0.557,8.87-8.117,24.752-22.679
				c2.875-2.694,4.111-6.288,3.707-10.783c-0.403-4.325-2.079-7.798-5.026-10.417c-3.151-2.795-6.751-3.999-10.803-3.609
				c-3.743,0.382-7.209,2.025-10.398,4.928c-9.942,9.247-17.335,16.076-22.18,20.487c-8.273,7.504-15.678,13.873-22.212,19.104
				c-9.652,7.776-18.229,13.98-25.733,18.614l-10.405,5.997c-0.859,0.432-1.425,0.719-1.698,0.862
				c-3.839,1.794-7.712,3.349-11.619,4.662c-3.859,1.31-6.708,3.873-8.548,7.688c-1.833,3.782-2.074,7.59-0.725,11.422
				c1.376,3.872,3.939,6.721,7.688,8.547c3.723,1.788,7.53,2.029,11.422,0.726c9.611-3.267,19.483-8.027,29.616-14.281
				c8.208-5.106,17.119-11.534,26.731-19.283C189.223-296.935,197.7-304.263,207.173-312.855z"/>
		</g>
		<g>
			<path fill-rule="evenodd" clip-rule="evenodd" fill="#4E569D" d="M211.558-335.37c3.675,2.346,7.43,3.172,11.264,2.477
				c4.163-0.754,7.339-2.836,9.531-6.246c2.031-3.178,2.879-6.903,2.544-11.175c-0.937-13.201-0.845-31.464,0.276-54.787
				c1.263-26.836,1.799-45.263,1.608-55.282c-0.072-4.32-1.254-7.948-3.546-10.884c-2.477-3.207-5.832-5.002-10.065-5.386
				c-3.888-0.345-7.554,0.811-11,3.466c-3.585,2.816-5.342,6.198-5.27,10.146c0.203,10.457-0.293,30.13-1.489,59.019
				c-1.036,24.729-1.039,44.414-0.01,59.055C205.703-341.062,207.755-337.862,211.558-335.37z"/>
		</g>
		<g>
			<path fill-rule="evenodd" clip-rule="evenodd" fill="#4E569D" d="M90.45-269c0.733,3.9,3.083,6.9,7.05,9
				c3.8,2.033,7.6,2.533,11.4,1.5c4.066-1.1,7.05-3.467,8.95-7.1c1.8-3.4,2.317-7.183,1.55-11.35
				c-4.934-26.7-7.434-57.383-7.5-92.05c0-4.567-1.567-8.183-4.7-10.85c-2.8-2.433-6.233-3.65-10.3-3.65
				c-4.067,0-7.5,1.217-10.3,3.65c-3.133,2.667-4.7,6.283-4.7,10.85C81.966-332.867,84.816-299.533,90.45-269z"/>
		</g>
		<g>
			<path fill-rule="evenodd" clip-rule="evenodd" fill="#4E569D" d="M69.4-389.05c4.933,8.8,8.617,16.816,11.05,24.05
				c1.367,3.967,3.75,6.967,7.15,9c3.5,2.1,7.267,2.6,11.3,1.5c3.867-1.067,6.9-3.433,9.1-7.1c2.233-3.767,2.7-7.55,1.4-11.35
				c-5.1-14.966-14.2-32.35-27.3-52.15c-3.6-5.467-9.1-13.617-16.5-24.45c-6.5-9.633-11.733-17.967-15.7-25
				c-2-3.534-5.05-5.833-9.15-6.9c-4.067-1.033-7.867-0.533-11.4,1.5c-3.533,2.1-5.816,5.167-6.85,9.2
				c-1.034,4-0.55,7.783,1.45,11.35c3.8,6.7,8.783,14.6,14.95,23.7c7.1,10.233,12.383,17.934,15.85,23.1
				C60.716-403.7,65.6-395.85,69.4-389.05z"/>
		</g>
		<g>
			<path fill-rule="evenodd" clip-rule="evenodd" fill="#4E569D" d="M124.95-84.5c3.7,1.4,7.483,0.917,11.35-1.45
				c3.7-2.233,6.067-5.25,7.1-9.05c1.1-4.067,0.6-7.833-1.5-11.3c-2-3.233-5-5.617-9-7.15l-7.1-2.8c-0.083-0.028-0.4-0.161-0.95-0.4
				c-0.108-0.045-0.225-0.096-0.35-0.15c-4.267-1.867-7.684-3.417-10.25-4.65c-6.467-3.167-12.483-6.433-18.05-9.8
				c-3.6-2.2-6.617-4.117-9.05-5.75l-6.5-4.7c-5.667-4.433-10.533-8.733-14.6-12.9c-2.833-2.833-5.183-5.35-7.05-7.55l-4.95-6
				c-4.2-5.733-7.733-11.267-10.6-16.6c-2.1-3.867-3.7-7.067-4.8-9.6l-0.825-1.75c-0.081-0.209-0.206-0.526-0.375-0.95
				c-0.833-2.067-1.5-3.784-2-5.15c-2.367-6.6-4.383-13.517-6.05-20.75c-0.9-3.933-3.25-6.95-7.05-9.05
				c-3.733-2.033-7.533-2.517-11.4-1.45c-4,1.1-7,3.467-9,7.1c-1.933,3.5-2.433,7.283-1.5,11.35c3.6,15.6,9.067,30.25,16.4,43.95
				c7.633,14.2,16.95,26.767,27.95,37.7c10.733,10.633,23.233,20.167,37.5,28.6C94.833-97.317,109.05-90.567,124.95-84.5z"/>
		</g>
		<g>
			<path fill-rule="evenodd" clip-rule="evenodd" fill="#4E569D" d="M173.7-89.8c17.133-0.467,31.533-2.7,43.2-6.7
				c3.967-1.367,6.967-3.75,9-7.15c2.1-3.5,2.6-7.267,1.5-11.3c-1.067-3.867-3.434-6.883-7.1-9.05c-3.8-2.267-7.583-2.75-11.35-1.45
				c-10.3,3.567-24.117,5.567-41.45,6c-9.467,0.167-16.567,0.317-21.3,0.45c-8.267,0.233-15.35,0.75-21.25,1.55
				c-3.9,0.534-6.917,2.867-9.05,7c-2,3.9-2.483,7.717-1.45,11.45c1.133,4.133,3.5,7.1,7.1,8.9c3.233,1.667,7.017,2.2,11.35,1.6
				c5-0.7,11.683-1.083,20.05-1.15C157.617-89.683,164.533-89.733,173.7-89.8z"/>
		</g>
		<g>
			<path fill-rule="evenodd" clip-rule="evenodd" fill="#4E569D" d="M283.55-34.35c2.833-2.833,4.283-6.383,4.35-10.65
				c0.066-4.367-1.383-7.9-4.35-10.6c-6.533-5.867-11.617-10.533-15.25-14c-5.5-5.233-10.317-10.15-14.45-14.75
				c-2.733-3.066-4.816-5.5-6.25-7.3c-1.767-2.2-3.583-4.7-5.45-7.5c-2.3-3.434-4.2-6.6-5.7-9.5c-0.633-1.133-1.35-2.533-2.15-4.2
				c-0.154-0.332-0.287-0.624-0.4-0.875c-0.13-0.316-0.297-0.724-0.5-1.225c-1.567-4-3.95-7-7.15-9
				c-3.467-2.133-7.233-2.633-11.3-1.5c-3.8,1.034-6.833,3.4-9.1,7.1c-2.367,3.9-2.833,7.684-1.4,11.35
				c5.267,13.333,13.483,26.533,24.65,39.6c7.567,8.867,18.633,19.883,33.2,33.05c3.133,2.8,6.683,4.233,10.65,4.3
				C277.083-29.983,280.617-31.417,283.55-34.35z"/>
		</g>
		<g>
			<path fill-rule="evenodd" clip-rule="evenodd" fill="#4D569D" d="M-17.386-236.401c6.383-3.009,11.045-7.053,13.99-12.133
				c7.137-12.256,5.919-33.926-3.653-65.01c-10.076-32.629-21.524-54.846-34.344-66.649c-11.096-10.279-24.379-13.53-39.854-9.754
				c-16.598,3.975-27.828,13.133-33.694,27.473c-7.194,17.563-5.888,42.259,3.919,74.085c9.572,31.084,20.954,50.261,34.142,57.53
				c5.488,3.122,11.85,4.531,19.082,4.226c4.78-0.174,11.653-1.341,20.619-3.502C-28.212-232.297-21.615-234.385-17.386-236.401z"/>
			<g>
				<path fill-rule="evenodd" clip-rule="evenodd" fill="#4D569D" d="M40.578-241.981c-0.34-3.056-1.288-8.534-2.841-16.433
					c-5.796-29.251-18.104-52.809-36.924-70.676c-8.678-8.246-18.104-14.451-28.282-18.616c-10.102-4.134-20.026-5.879-29.775-5.236
					c-2.496,0.16-3.588,1.902-3.275,5.225c0.355,3.294,1.797,4.891,4.326,4.791c19.785-1.402,38.172,6.556,55.163,23.876
					c16.816,17.11,27.313,38.299,31.489,63.565c1.626,10.153,2.446,15.348,2.46,15.586c0.352,6.259-1.046,10.312-4.195,12.158
					c-3.862,2.255-7.471,1.786-10.827-1.411c-1.457-1.463-4.266-5.531-8.43-12.203c-5.097-8.251-10.28-14.589-15.55-19.015
					c-5.628-4.754-12.072-7.958-19.332-9.611c-2.581-0.523-3.693,0.863-3.337,4.158c0.354,3.294,1.818,5.247,4.388,5.858
					c6,1.287,11.361,4.127,16.084,8.521c3.964,3.764,8.155,9.265,12.573,16.502c3.211,5.271,5.744,8.997,7.596,11.174
					c3.171,3.818,6.464,6.317,9.878,7.498c3.382,1.122,6.935,0.642,10.66-1.437c3.725-2.08,6.137-4.939,7.235-8.579
					C40.927-230.368,41.232-235.601,40.578-241.981z"/>
			</g>
			<g>
				<path fill-rule="evenodd" clip-rule="evenodd" fill="#4D569D" d="M2.294-210.295c4.165-2.877,6.363-7.235,6.596-13.076
					c0.606-14.823-4.666-28.59-15.816-41.302c-9.778-11.189-21.131-18.698-34.059-22.526c-2.594-0.759-4.058,0.416-4.392,3.528
					c-0.343,3.199,0.782,5.18,3.376,5.939c9.193,2.705,17.331,7.166,24.416,13.384c8.31,7.266,13.852,15.948,16.625,26.051
					c1.602,5.972,1.847,11.029,0.733,15.173c-1.359,4.972-4.539,6.922-9.54,5.848c-4.73-1.011-8.833-3.858-12.305-8.539
					c-3.133-4.173-5.432-9.334-6.898-15.483c-0.794-3.239-2.446-4.526-4.957-3.861c-2.468,0.636-3.322,2.542-2.561,5.72
					c1.851,7.694,5.023,14.433,9.519,20.218c4.833,6.291,10.229,10.095,16.188,11.413C-5.898-206.736-1.54-207.565,2.294-210.295z"
					/>
			</g>
		</g>
	</g>
</symbol>
<use xlink:href="#Symbol_28"  width="407.409" height="481.972" x="-119.507" y="-481.972" transform="matrix(0.0716 0 0 -0.0716 36.9585 12.8457)" overflow="visible"/>
</svg>
