<?xml version="1.0" encoding="utf-8"?>
<!-- Generator: Adobe Illustrator 15.1.0, SVG Export Plug-In . SVG Version: 6.00 Build 0)  -->
<!DOCTYPE svg PUBLIC "-//W3C//DTD SVG 1.1//EN" "http://www.w3.org/Graphics/SVG/1.1/DTD/svg11.dtd">
<svg version="1.1" id="Layer_1" xmlns="http://www.w3.org/2000/svg" xmlns:xlink="http://www.w3.org/1999/xlink" x="0px" y="0px"
	 width="90px" height="60px" viewBox="0 0 90 60" enable-background="new 0 0 90 60" xml:space="preserve">
<symbol  id="flash0.ai_Assets_x5F_0_x2F_Illustrator_Symbols_x2F_New_Symbol_1" viewBox="-129.917 -264.55 431.095 579.728">
	<g id="Layer_1_3_">
		<g>
			<g>
				<path fill-rule="evenodd" clip-rule="evenodd" fill="#4E569D" d="M84.3,63.45c-0.7-1.467-1.767-1.784-3.2-0.95
					c-1.434,0.834-1.8,1.983-1.1,3.45c10.333,21.667,23.733,41.316,40.2,58.95c17.867,19.066,36.283,32.467,55.25,40.199
					c1.5,0.634,2.466,0.134,2.9-1.5c0.433-1.6-0.083-2.699-1.55-3.3c-19.133-7.8-37.55-21.566-55.25-41.3
					C106.217,101.867,93.8,83.35,84.3,63.45z"/>
			</g>
			<g>
				<path fill-rule="evenodd" clip-rule="evenodd" fill="#4E569D" d="M214.5,248.2c5.967,6.634,11.483,12.25,16.55,16.85
					c16,14.534,28.017,19.684,36.05,15.45c9.967-5.233,6.867-16.75-9.3-34.55c-5.033-5.534-11.483-11.8-19.35-18.8
					c-7.133-6.2-11.167-9.783-12.1-10.75c-12.9-13.467-26.833-29-41.8-46.601c-9.6-11.3-22.883-27.384-39.85-48.25
					c-17.333-21.333-33.417-41.5-48.25-60.5c-0.167-0.233-0.383-0.55-0.65-0.95L-102.3-242.05c-2.3-3.467-6.3-5.934-12-7.4
					c-5.8-1.5-10.517-1.183-14.15,0.95c-2.933,1.7-1.466,9.7,4.4,24c4.866,11.9,9.149,20.617,12.85,26.15L53.9,51.1
					c2.133,3.2,5.283,8.066,9.45,14.601c3.767,5.767,7.1,10.5,10,14.2C88.817,99.8,105.533,120.767,123.5,142.8
					c17.1,21,30.383,37.067,39.85,48.2c15,17.633,28.933,33.166,41.8,46.6C206.083,238.566,209.2,242.1,214.5,248.2z"/>
			</g>
			<g>
				<path fill-rule="evenodd" clip-rule="evenodd" fill="#4E569D" d="M59.013,138.997l-0.056,0.001
					c0.229-0.271,0.404-0.438,0.526-0.502c0.069-0.037-0.04,0.096-0.327,0.398C59.11,138.93,59.063,138.964,59.013,138.997z
					 M73.79,141.215c-0.016,0.032-0.034,0.07-0.053,0.113c-0.009-0.191-0.013-0.378-0.012-0.559
					C73.735,140.408,73.756,140.557,73.79,141.215z M44.819,198.508c8.578,1.848,16.959,1.428,25.144-1.262
					c9.384-3.057,17.437-7.785,24.159-14.185c7.161-6.781,12.032-14.729,14.613-23.843c3.038-10.824,3.477-21.54,1.319-32.15
					c-2.364-11.857-7.613-20.936-15.747-27.234c-6.922-5.354-15.209-7.186-24.86-5.493c-1.351,0.239-2.689,0.538-4.016,0.899
					c-5.468-2.754-11.159-3.533-17.071-2.338c-7.553,1.529-14.172,6.086-19.855,13.671c-4.162,5.541-7.912,12.899-11.253,22.074
					c-3.945,10.887-5.785,20.946-5.517,30.181c0.375,11.512,4.063,20.809,11.066,27.891
					C28.738,192.704,36.077,196.635,44.819,198.508z"/>
			</g>
			<g>
				<path fill-rule="evenodd" clip-rule="evenodd" fill="#4E569D" d="M254.9,291.699c-3.3-5.766-5.017-12.082-5.15-18.949
					c-0.033-1.533-0.566-2.75-1.6-3.65c-0.967-0.8-2.117-1.199-3.45-1.199c-1.367,0-2.517,0.399-3.45,1.199
					c-1.033,0.9-1.533,2.117-1.5,3.65c0.167,8.633,2.333,16.6,6.5,23.9c4.2,7.266,9.967,13.183,17.3,17.75
					c1.3,0.799,2.6,0.982,3.9,0.549c1.133-0.366,2.05-1.149,2.75-2.35c0.667-1.166,0.9-2.367,0.7-3.6c-0.233-1.367-1-2.45-2.3-3.25
					C262.767,302.117,258.2,297.434,254.9,291.699z"/>
			</g>
			<g>
				<path fill-rule="evenodd" clip-rule="evenodd" fill="#4E569D" d="M252,266.6c-1.167,0.434-2.083,1.233-2.75,2.4
					c-0.7,1.166-0.933,2.35-0.7,3.55c0.233,1.366,1.017,2.433,2.35,3.2c4.824,2.785,9.041,5.902,12.65,9.35
					c-4.64-2.187-8.29-3.97-10.95-5.35c-1.333-0.7-2.667-0.801-4-0.301c-1.167,0.434-2.1,1.234-2.8,2.4
					c-0.667,1.167-0.883,2.334-0.65,3.5c0.267,1.334,1.066,2.35,2.4,3.051c3.233,1.666,8.167,3.982,14.8,6.949
					c5.733,2.801,10.25,5.783,13.55,8.95c1.767,1.7,3.783,1.917,6.05,0.649c2.267-1.266,3.033-3.116,2.3-5.549
					c-2.033-6.634-5.733-12.867-11.1-18.701c-4.733-5.166-10.467-9.699-17.2-13.6C254.617,266.333,253.3,266.166,252,266.6z"/>
			</g>
			<g>
				<path fill-rule="evenodd" clip-rule="evenodd" fill="#4E569D" d="M255.7,275.95c-0.027,0.374-0.01,0.757,0.05,1.149
					c0.2,1.4,0.9,2.551,2.1,3.451c2.633,1.933,7.6,3.967,14.9,6.1c6.6,1.934,11.3,4.3,14.1,7.1c1.7,1.7,3.75,1.917,6.15,0.65
					c2.433-1.301,3.167-3.133,2.2-5.5c-2.966-7.268-8.583-13-16.85-17.2c-7.333-3.733-15.333-5.667-24-5.8
					c-1.534-0.033-2.733,0.467-3.6,1.5c-0.8,0.934-1.2,2.066-1.2,3.4c0,1.366,0.4,2.533,1.2,3.5c0.9,1.033,2.1,1.566,3.6,1.6
					C254.799,275.907,255.249,275.924,255.7,275.95z"/>
			</g>
			<g>
				<path fill-rule="evenodd" clip-rule="evenodd" fill="#4E569D" d="M250.75,285.6c2.867,0.967,5.316,1.467,7.35,1.5
					c1.367,0.033,2.55-0.449,3.55-1.449c0.967-1,1.45-2.184,1.45-3.551c0-1.366-0.5-2.533-1.5-3.5c-0.966-0.967-2.133-1.467-3.5-1.5
					c-0.194,0-0.369-0.008-0.525-0.025l-0.275-0.024l-3.85-1.101c-1.267-0.433-2.533-0.283-3.8,0.451
					c-1.233,0.732-2.017,1.75-2.35,3.049c-0.367,1.334-0.2,2.584,0.5,3.75C248.466,284.367,249.45,285.166,250.75,285.6z"/>
			</g>
			<g>
				<path fill-rule="evenodd" clip-rule="evenodd" fill="#4E569D" d="M255.55,268.699c0.8,2.101,2.316,3.117,4.55,3.051
					c2.1-0.066,5.233-0.383,9.4-0.95c2.101-0.172,4.009-0.163,5.725,0.024c0.009,0.043,0.018,0.084,0.025,0.125
					c0.467,2.634,0.667,4.451,0.6,5.451c-0.133,1.799-0.933,3.85-2.4,6.149c-0.8,1.3-2.033,3.2-3.7,5.7
					c-1.066,2-0.933,3.816,0.4,5.449c1.333,1.634,3.083,2.25,5.25,1.851c3.433-0.634,6.35-2.267,8.75-4.899
					c2.233-2.467,3.783-5.467,4.65-9c0.833-3.467,0.883-6.884,0.15-10.25c-0.011-0.053-0.02-0.104-0.025-0.15
					c1.109,0.977,2.051,2.094,2.825,3.35c0.8,1.301,1.883,2.066,3.25,2.301c1.233,0.199,2.45-0.033,3.65-0.701
					c1.167-0.699,1.933-1.616,2.3-2.75c0.433-1.299,0.25-2.6-0.55-3.899c-4.2-6.899-11.117-11.149-20.75-12.75
					c-9.867-1.667-17.567,0.467-23.1,6.399C255.083,264.8,254.75,266.633,255.55,268.699z"/>
			</g>
			<g>
				<path fill-rule="evenodd" clip-rule="evenodd" fill="#4E569D" d="M57.3,106.05c-0.566,1.4-0.517,2.65,0.15,3.75
					c0.6,1,1.566,1.667,2.9,2c1.3,0.366,2.55,0.3,3.75-0.2c1.333-0.533,2.283-1.5,2.85-2.899c2.833-7,4.466-14.067,4.9-21.2
					c0.433-7.533-0.533-14.684-2.9-21.45c-0.5-1.433-1.4-2.433-2.7-3c-1.167-0.5-2.4-0.583-3.7-0.25c-1.3,0.366-2.267,1.05-2.9,2.05
					c-0.733,1.134-0.85,2.417-0.35,3.851C63.367,80.334,62.7,92.783,57.3,106.05z"/>
			</g>
			<g>
				<path fill-rule="evenodd" clip-rule="evenodd" fill="#4E569D" d="M70.65,102.1c1.3,0.367,2.467,0.283,3.5-0.25
					c1.167-0.6,1.883-1.649,2.15-3.149c1.967-11.767,0.85-23.101-3.35-34c-1.167-2.967-3.35-4.017-6.55-3.15
					c-1.3,0.333-2.267,1-2.9,2c-0.667,1.101-0.733,2.366-0.2,3.8c3.8,9.867,4.917,19.434,3.35,28.7
					C66.117,99.217,67.45,101.233,70.65,102.1z"/>
			</g>
			<g>
				<path fill-rule="evenodd" clip-rule="evenodd" fill="#4E569D" d="M74.25,100.3c1,0.8,2.183,1.2,3.55,1.2
					c1.333,0,2.45-0.4,3.35-1.2c0.967-0.866,1.4-2.066,1.3-3.6C81.55,83.066,78,70.9,71.8,60.2c-0.767-1.333-1.833-2.116-3.2-2.351
					c-1.2-0.232-2.383-0.016-3.55,0.65c-1.167,0.7-1.966,1.633-2.4,2.8c-0.433,1.3-0.267,2.601,0.5,3.9
					c5.4,9.366,8.5,19.866,9.3,31.5C72.55,98.2,73.15,99.4,74.25,100.3z"/>
			</g>
			<g>
				<path fill-rule="evenodd" clip-rule="evenodd" fill="#4E569D" d="M64.65,94.05c0.533,1.4,1.467,2.384,2.8,2.95
					c1.2,0.5,2.45,0.566,3.75,0.2c1.3-0.366,2.267-1.05,2.9-2.05c0.667-1.101,0.733-2.367,0.2-3.801
					c-5.1-13.967-9.017-24.383-11.75-31.25C57.75,48.133,52.833,38.166,47.8,30.2c-0.8-1.3-1.9-2.067-3.3-2.3
					c-1.233-0.2-2.433,0.033-3.6,0.7c-1.167,0.7-1.95,1.617-2.35,2.75c-0.4,1.268-0.2,2.551,0.6,3.851
					c4.867,7.7,9.6,17.283,14.2,28.75C55.983,70.584,59.75,80.617,64.65,94.05z"/>
			</g>
			<g>
				<path fill-rule="evenodd" clip-rule="evenodd" fill="#4E569D" d="M73.8,55.9c0.714,1.453,1.848,2.262,3.4,2.425
					c0.926,2.222,2.06,4.947,3.4,8.175c2.566,6.233,4.75,11.367,6.55,15.4c1.033,2.3,2.85,3.05,5.45,2.25
					c2.533-0.801,3.816-2.4,3.85-4.801c0.1-6.434-5.534-23.616-16.9-51.55C71.083,6.9,64.933-7.417,61.1-15.15
					C54.5-28.917,45.983-40.967,35.55-51.3c-1.75-1.726-3.517-3.368-5.3-4.925c1.133-1.883,5.967-17.408,14.5-46.575
					c8.533-29.3,12.8-45.1,12.8-47.4c0-0.333-2.683-6.4-8.05-18.2c-6.267-13.867-12.4-26.967-18.4-39.3
					c-18.434-37.9-29.783-56.85-34.05-56.85c-2.9,0-6.316,1.133-10.25,3.4c-1.069,0.612-1.985,1.179-2.75,1.7
					c-1.194,0.397-2.177,1.38-2.95,2.95c-0.3,0.633,7.5,17.45,23.4,50.45C20-173.917,28.433-156.7,29.8-154.4
					c-3.734,8.272-8.767,22.822-15.1,43.65c-2,6.533-5.034,14.317-9.1,23.35c-4.1,9.1-6.583,13.533-7.45,13.3
					c-2.533-0.7-4.367,0.05-5.5,2.25c-1.167,2.167-0.967,4.2,0.6,6.1c0.673,0.808,1.39,1.633,2.15,2.475
					c-0.388,0.938-0.488,1.862-0.3,2.775c0.3,1.267,1.133,2.217,2.5,2.85c0.865,0.393,1.731,0.826,2.6,1.3
					c0.39,2.707,1.373,3.315,2.95,1.825c1.01,0.674,2.019,1.407,3.025,2.2C3.932-52.512,1.69-52.503-0.55-52.3
					c-1.5,0.133-2.7,0.767-3.6,1.9c-0.767,1-1.167,2.183-1.2,3.55c0,1.367,0.4,2.467,1.2,3.3c0.9,0.966,2.1,1.383,3.6,1.25
					c5.733-0.5,11.5,0.417,17.3,2.75c1.052,0.429,2.069,0.887,3.05,1.375c1.657,1.987,3.607,4.329,5.85,7.025
					c1.262,1.524,2.836,3.375,4.725,5.55c-3.318-2.037-6.776-3.82-10.375-5.35c-0.398-0.17-0.798-0.336-1.2-0.5
					c-2.7-1.1-4.583-0.233-5.65,2.6c-1.066,2.833-0.467,5.017,1.8,6.55c1.466,0.966,5.983,3.55,13.55,7.75
					c0.974,0.534,1.907,1.067,2.8,1.6C38.983-6.946,45.883,1.07,52,11.1c3.5,5.733,7.333,13.133,11.5,22.2
					C65.833,38.367,69.267,45.9,73.8,55.9z"/>
			</g>
		</g>
	</g>
</symbol>
<g>
	
		<path fill-rule="evenodd" clip-rule="evenodd" fill="none" stroke="#444B99" stroke-width="2" stroke-linecap="round" stroke-linejoin="round" stroke-miterlimit="3" d="
		M27.859,17.246l-4.951,7.6l-5.15,2.5l-1,7.35l3.051,8.65l2.199,6.05l0.9,2.75 M6.408,17.346l4.75,6.35l6.6,3.65v-3.6
		 M16.758,34.695l-2.5,14.7l-0.5,2.95"/>
	<path fill-rule="evenodd" clip-rule="evenodd" fill="#444B99" d="M18.51,17.146c0.365,0.133,0.699,0.35,1,0.65
		c0.5,0.5,0.783,1.1,0.85,1.8c0,0.067,0,0.15,0,0.25c0,0.133,0,0.267,0,0.4v0.05c-0.334,1.033-0.783,1.717-1.35,2.05l-0.051,0.05
		c-0.434,0.267-0.916,0.4-1.449,0.4c-0.035,0-0.068,0-0.102,0c-0.832,0-1.533-0.267-2.1-0.8c-0.6-0.6-0.9-1.317-0.9-2.15
		c0-0.8,0.301-1.483,0.9-2.05c0.566-0.6,1.268-0.9,2.1-0.9C17.809,16.896,18.176,16.979,18.51,17.146z"/>
	<polygon fill-rule="evenodd" clip-rule="evenodd" fill="#4A3541" points="30.559,2.545 29.758,12.646 26.408,52.496 25.859,52.496 
		30.008,2.295 30.559,2.345 	"/>
	<path fill-rule="evenodd" clip-rule="evenodd" fill="#E95556" d="M41.109,15.345l0.799-7.1c4.1,0.933,5.883,2.95,5.35,6.05
		c-0.398-0.7-1.217-0.9-2.449-0.6c1.1,1.6,1.232,3.4,0.4,5.4c-1.533-2.667-4.633-3.667-9.301-3
		C38.275,15.462,40.008,15.212,41.109,15.345z"/>
	<path fill-rule="evenodd" clip-rule="evenodd" fill="#BE4546" d="M41.109,15.345c-1.102-0.133-2.834,0.117-5.201,0.75l0.65-4.3
		C38.459,12.229,39.975,13.412,41.109,15.345z"/>
	<path fill-rule="evenodd" clip-rule="evenodd" fill="#F26822" d="M29.758,12.646c1.334-3.233,1.602-6.6,0.801-10.1
		c5.066-1.133,8.916,0.267,11.551,4.2l-0.201,1.5l-0.799,7.1c-1.135-1.933-2.65-3.117-4.551-3.55
		C34.658,11.329,32.393,11.612,29.758,12.646z"/>
</g>
<path fill-rule="evenodd" clip-rule="evenodd" fill="#444B99" d="M53.559,52.945c-4.699-4.334-6.85-8.916-6.449-13.75
	c-3.301,4.166-4.9,8.75-4.801,13.75h-13.1c7.832-8.5,14.133-17.783,18.9-27.85c3.566,9.7,9.932,18.983,19.1,27.85H53.559z
	 M80.408,52.945h-11c-9.434-8.867-16.049-18.15-19.85-27.85c4.301,5.033,8.232,7.667,11.801,7.9
	C64.791,39.096,71.143,45.745,80.408,52.945z"/>
</svg>
