<?xml version="1.0" encoding="utf-8"?>
<!-- Generator: Adobe Illustrator 15.1.0, SVG Export Plug-In . SVG Version: 6.00 Build 0)  -->
<!DOCTYPE svg PUBLIC "-//W3C//DTD SVG 1.1//EN" "http://www.w3.org/Graphics/SVG/1.1/DTD/svg11.dtd">
<svg version="1.1" id="Layer_1" xmlns="http://www.w3.org/2000/svg" xmlns:xlink="http://www.w3.org/1999/xlink" x="0px" y="0px"
	 width="90px" height="60px" viewBox="0 0 90 60" enable-background="new 0 0 90 60" xml:space="preserve">
<g>
	
		<path fill-rule="evenodd" clip-rule="evenodd" fill="none" stroke="#444B99" stroke-width="2" stroke-linecap="round" stroke-linejoin="round" stroke-miterlimit="3" d="
		M47.008,25.795l-5.8-1.898l-3.35-5.451l0.8,6.85l0.5,3.602l2.65,8.949l2.25,8.85 M39.158,28.896l-4.2,17.398"/>
	
		<polyline fill-rule="evenodd" clip-rule="evenodd" fill="none" stroke="#444B99" stroke-width="2" stroke-linecap="round" stroke-linejoin="round" stroke-miterlimit="3" points="
		34.407,29.043 32.883,22.918 37.425,17.785 	"/>
	<path fill-rule="evenodd" clip-rule="evenodd" fill="#444B99" d="M40.179,13.717c0.145,0.811-0.009,1.568-0.458,2.273
		c-0.474,0.568-1.102,0.943-1.883,1.123c-0.814,0.176-1.556,0.041-2.227-0.406c-0.637-0.445-1.045-1.074-1.223-1.889
		c-0.146-0.779-0.011-1.521,0.405-2.229c0.51-0.6,1.171-0.986,1.986-1.164c0.375-0.107,0.712-0.152,1.011-0.131
		c0.266,0.018,0.494,0.102,0.685,0.248l0.046,0.053c0.033,0.002,0.097,0.041,0.192,0.113l0.054-0.045
		c0.062,0.07,0.107,0.141,0.136,0.209c0.576,0.375,0.974,0.887,1.196,1.537C40.093,13.51,40.119,13.611,40.179,13.717z"/>
	<g>
		
			<line fill-rule="evenodd" clip-rule="evenodd" fill="none" stroke="#5A4B38" stroke-linejoin="round" stroke-miterlimit="3" x1="31.458" y1="30.646" x2="52.758" y2="22.846"/>
		<path fill-rule="evenodd" clip-rule="evenodd" fill="#5A4B38" d="M51.623,30.467c0.01-5.654-1.604-10.201-4.844-13.637
			l0.268-0.555c4.597,2.613,6.33,7.357,5.203,14.236L51.623,30.467z"/>
	</g>
</g>
</svg>
