<?xml version="1.0" encoding="utf-8"?>
<!-- Generator: Adobe Illustrator 15.1.0, SVG Export Plug-In . SVG Version: 6.00 Build 0)  -->
<!DOCTYPE svg PUBLIC "-//W3C//DTD SVG 1.1//EN" "http://www.w3.org/Graphics/SVG/1.1/DTD/svg11.dtd">
<svg version="1.1" id="Layer_1" xmlns="http://www.w3.org/2000/svg" xmlns:xlink="http://www.w3.org/1999/xlink" x="0px" y="0px"
	 width="90px" height="60px" viewBox="0 0 90 60" enable-background="new 0 0 90 60" xml:space="preserve">
<g>
	
		<path fill-rule="evenodd" clip-rule="evenodd" fill="none" stroke="#444B99" stroke-width="2" stroke-linecap="round" stroke-linejoin="round" stroke-miterlimit="3" d="
		M39.559,38.096l2.6-18.449l-4.95,2.699l-3.45,6 M39.559,38.496l-3.8,6.15 M51.108,40.297l-3.95-7.201l-5.5-2.199 M42.158,19.646
		h5.6l3.951-4.4"/>
	<path fill-rule="evenodd" clip-rule="evenodd" fill="#444B99" d="M39.208,13.896c0.6-0.6,1.317-0.9,2.15-0.9
		c0.4,0,0.75,0.084,1.05,0.25c0.333,0.133,0.65,0.35,0.95,0.65c0.5,0.5,0.783,1.1,0.85,1.799c0,0.066,0,0.15,0,0.25
		c0,0.834-0.283,1.551-0.85,2.15c-0.533,0.533-1.2,0.801-2,0.801c-0.833,0-1.55-0.268-2.15-0.801c-0.567-0.6-0.85-1.316-0.85-2.15
		C38.358,15.146,38.642,14.463,39.208,13.896z"/>
</g>
</svg>
