<?xml version="1.0" encoding="utf-8"?>
<!-- Generator: Adobe Illustrator 15.1.0, SVG Export Plug-In . SVG Version: 6.00 Build 0)  -->
<!DOCTYPE svg PUBLIC "-//W3C//DTD SVG 1.1//EN" "http://www.w3.org/Graphics/SVG/1.1/DTD/svg11.dtd">
<svg version="1.1" id="Layer_1" xmlns="http://www.w3.org/2000/svg" xmlns:xlink="http://www.w3.org/1999/xlink" x="0px" y="0px"
	 width="90px" height="60px" viewBox="0 0 90 60" enable-background="new 0 0 90 60" xml:space="preserve">
<symbol  id="Symbol_34" viewBox="-4.575 -512.996 232.6 505.484">
	<g id="Layer_1_10_">
		<path fill-rule="evenodd" clip-rule="evenodd" fill="#4E569D" d="M181.457-54.831c-0.7-12.352-5.661-22.643-14.88-30.874
			c-9.22-8.23-20.005-11.996-32.357-11.296c-12.316,0.698-22.607,5.658-30.874,14.88c-8.231,9.22-11.996,20.005-11.296,32.357
			s5.66,22.643,14.879,30.874c9.22,8.231,20.006,11.996,32.358,11.296c12.352-0.7,22.643-5.66,30.874-14.88
			C178.391-31.693,182.156-42.479,181.457-54.831z"/>
		<g>
			<path fill-rule="evenodd" clip-rule="evenodd" fill="#4E569D" d="M119.904-63.861c0.091,4.187,1.444,7.77,4.058,10.75
				c2.734,3.055,6.189,4.657,10.364,4.808c3.973,0.165,7.556-1.188,10.75-4.058c3.284-2.925,4.886-6.38,4.809-10.364
				c-0.189-10.151-0.369-28.807-0.539-55.967c-0.151-23.572-0.436-42.238-0.854-55.997c-0.705-23.306-1.553-41.24-2.546-53.803
				c-1.62-19.91-4.233-37.636-7.841-53.179c-1.008-4.451-3.341-7.617-6.998-9.497c-3.279-1.729-6.881-2.134-10.806-1.215
				c-3.957,0.927-7.037,2.897-9.238,5.911c-2.441,3.31-3.157,7.189-2.148,11.64c1.74,7.427,3.142,15.088,4.204,22.982
				c0.636,4.47,1.154,8.505,1.553,12.107l0.422,4.212l0.045,0.194l0.533,5.777c1.362,16.036,2.329,34.986,2.901,56.852
				c0.354,13.192,0.602,31.335,0.744,54.431C119.507-92.354,119.703-74.215,119.904-63.861z"/>
		</g>
		<g>
			<path fill-rule="evenodd" clip-rule="evenodd" fill="#4E569D" d="M112.515-266.692c-1.292,3.712-0.613,7.446,2.037,11.203
				c2.541,3.595,5.704,5.803,9.49,6.624c4.158,0.899,7.873,0.171,11.145-2.184c2.985-2.106,5.213-5.22,6.682-9.343l83.472-234.398
				c1.325-3.714,0.662-7.466-1.99-11.255c-2.506-3.564-5.668-5.755-9.487-6.574c-4.191-0.897-7.923-0.185-11.197,2.137
				c-2.953,2.104-5.163,5.217-6.632,9.34L112.515-266.692z"/>
		</g>
		<g>
			<path fill-rule="evenodd" clip-rule="evenodd" fill="#4E569D" d="M107.848-276.203c0.853,3.858,3.352,6.721,7.498,8.589
				c3.975,1.811,7.814,2.094,11.517,0.85c4.029-1.363,6.874-3.895,8.534-7.595c1.544-3.393,1.846-7.199,0.905-11.419
				c-3.564-16.358-8.487-34.876-14.767-55.554c-2.624-8.599-8.467-26.864-17.528-54.796c-1.254-3.869-3.787-6.73-7.598-8.583
				c-3.777-1.856-7.583-2.142-11.417-0.855c-3.898,1.322-6.76,3.855-8.584,7.597c-1.826,3.709-2.111,7.515-0.855,11.417
				c8.852,27.176,14.695,45.441,17.528,54.796C99.357-311.146,104.279-292.628,107.848-276.203z"/>
		</g>
		<g>
			<path fill-rule="evenodd" clip-rule="evenodd" fill="#4E569D" d="M75.03-386.924c2.825,3.313,6.032,5.401,9.62,6.266
				c3.928,0.979,7.663,0.3,11.203-2.037c3.248-2.187,5.386-5.396,6.415-9.628c1.083-4.468,0.354-8.2-2.187-11.194
				c-24.498-28.727-37.73-44.236-39.696-46.529c-15.087-17.607-28.429-32.994-40.026-46.159c-2.636-2.922-6.229-4.171-10.779-3.746
				c-4.319,0.378-7.798,2.028-10.437,4.948c-2.826,3.165-4.041,6.756-3.646,10.774c0.375,3.684,1.992,7.166,4.849,10.442
				l10.386,11.832c0.143,0.159,0.713,0.811,1.713,1.956l-0.051-0.022l8.041,9.335c2.462,2.798,10.878,12.571,25.249,29.319
				L75.03-386.924z"/>
		</g>
		<g>
			<path fill-rule="evenodd" clip-rule="evenodd" fill="#4E569D" d="M119.594-108.336c3.361,2.224,7.129,2.829,11.306,1.816
				c4.104-1.03,7.228-3.25,9.371-6.661c2.153-3.515,2.742-7.28,1.767-11.294c-0.959-3.949-3.163-7.077-6.611-9.382
				c-6.93-4.604-15.779-10.177-26.55-16.72c-6.022-3.653-15.072-9.128-27.148-16.426c-21.595-13.313-38.386-25.255-50.374-35.824
				c-3.19-2.811-6.694-4.333-10.513-4.568c-4.093-0.238-7.665,1.095-10.713,3.999c-2.845,2.753-4.399,6.265-4.665,10.536
				c-0.245,4.505,1.121,8.069,4.095,10.69c13.44,11.803,31.365,24.71,53.773,38.723C88.591-128.221,107.345-116.517,119.594-108.336
				z"/>
		</g>
		<g>
			<path fill-rule="evenodd" clip-rule="evenodd" fill="#4E569D" d="M82.724-226.717c-0.032-4.372-1.389-7.971-4.07-10.799
				c-2.944-3.074-6.425-4.568-10.442-4.482c-3.645,0.067-7.24,1.371-10.785,3.913l-45.581,33.261
				c-3.153,2.312-4.7,5.788-4.639,10.427c0.032,4.373,1.388,7.972,4.07,10.799c2.944,3.073,6.424,4.567,10.441,4.482
				c3.646-0.067,7.24-1.371,10.785-3.913l45.581-33.26C81.238-218.602,82.785-222.078,82.724-226.717z"/>
		</g>
		<g>
			<path fill-rule="evenodd" clip-rule="evenodd" fill="#4E569D" d="M134.593-180.526c4.061-0.23,7.42-1.623,10.08-4.177
				c2.976-2.873,4.334-6.589,4.076-11.148c-0.46-8.12-1.382-20.254-2.765-36.402c-1.384-16.181-2.322-28.314-2.814-36.399
				c-0.258-4.56-2.028-8.099-5.309-10.617c-2.965-2.236-6.477-3.238-10.537-3.008c-4.061,0.23-7.42,1.622-10.08,4.177
				c-2.942,2.871-4.285,6.586-4.026,11.146c0.492,8.084,1.43,20.218,2.814,36.399c1.383,16.147,2.304,28.282,2.764,36.402
				c0.258,4.559,2.028,8.098,5.31,10.617C127.037-181.3,130.532-180.296,134.593-180.526z"/>
		</g>
		<g>
			<path fill-rule="evenodd" clip-rule="evenodd" fill="#4E569D" d="M196.6-180.7c-0.733,0.733-1.483,1.45-2.25,2.15
				c-1.267,0.933-2.15,1.6-2.65,2c-0.431,0.34-0.606,0.49-0.525,0.45c-5.755,3.938-12.914,8.105-21.475,12.5
				c-10.7,5.533-21.417,10.55-32.15,15.05c-3.667,1.5-6.066,4.45-7.2,8.85c-1.1,4.2-0.717,8.034,1.15,11.5
				c2.033,3.7,5.033,6.05,9,7.05c3.633,0.933,7.417,0.583,11.35-1.05l1.85-0.8c16.167-6.933,29.85-13.633,41.05-20.1
				c5.033-2.933,8.85-5.267,11.45-7c4.167-2.767,7.667-5.533,10.5-8.3c6.433-6.333,10.117-14.383,11.05-24.15
				c0.733-8.067,0-17.117-2.2-27.15c-1.6-7.066-4.25-15.783-7.95-26.15c-4.533-12.6-8.967-23.45-13.3-32.55
				c-1.767-3.633-4.733-6-8.9-7.1c-4.1-1.167-7.917-0.8-11.45,1.1c-3.633,2-6,5-7.1,9c-1.1,3.833-0.75,7.6,1.05,11.3
				c1.2,2.434,2.517,5.333,3.95,8.7c1.033,2.367,2.4,5.683,4.1,9.95l1.05,2.65v-0.1l2.1,5.9c3.533,10.1,6,18.817,7.4,26.15
				c0.467,2.3,0.833,4.367,1.1,6.2l0.3,2.5c0,0.167,0.017,0.283,0.05,0.35c0.066,2.433,0.066,4.25,0,5.45
				c0,0.233-0.117,1.217-0.35,2.95c-0.2,0.566-0.5,1.367-0.9,2.4C196.667-180.867,196.633-180.767,196.6-180.7z"/>
		</g>
	</g>
</symbol>
<use xlink:href="#Symbol_34"  width="232.6" height="505.484" x="-4.575" y="-512.996" transform="matrix(0.0638 -0.0036 -0.0036 -0.0638 34.3584 14.3457)" overflow="visible"/>
</svg>
