<?xml version="1.0" encoding="utf-8"?>
<!-- Generator: Adobe Illustrator 15.1.0, SVG Export Plug-In . SVG Version: 6.00 Build 0)  -->
<!DOCTYPE svg PUBLIC "-//W3C//DTD SVG 1.1//EN" "http://www.w3.org/Graphics/SVG/1.1/DTD/svg11.dtd">
<svg version="1.1" id="Layer_1" xmlns="http://www.w3.org/2000/svg" xmlns:xlink="http://www.w3.org/1999/xlink" x="0px" y="0px"
	 width="90px" height="60px" viewBox="0 0 90 60" enable-background="new 0 0 90 60" xml:space="preserve">
<g>
	<path fill-rule="evenodd" clip-rule="evenodd" fill="#444B99" d="M46.458,17.746c-0.633,0.6-1.333,0.9-2.1,0.9
		c-0.833,0-1.534-0.301-2.1-0.9c-0.633-0.533-0.95-1.234-0.95-2.1c0-0.801,0.317-1.484,0.95-2.051c0.566-0.566,1.267-0.85,2.1-0.85
		c0.767,0,1.466,0.283,2.1,0.85c0.567,0.566,0.851,1.25,0.851,2.051C47.309,16.512,47.025,17.213,46.458,17.746z"/>
	
		<path fill-rule="evenodd" clip-rule="evenodd" fill="none" stroke="#444B99" stroke-width="2" stroke-linecap="round" stroke-linejoin="round" stroke-miterlimit="3" d="
		M53.408,24.445l-4.5,0.35l-4.05-5.699l-0.2,3.301l-0.4,6.25l5.9,7.898l1.8,9.352 M38.808,45.545l4.5-7.549l0.95-9.35"/>
	
		<polyline fill-rule="evenodd" clip-rule="evenodd" fill="none" stroke="#444B99" stroke-width="2" stroke-linecap="round" stroke-linejoin="round" stroke-miterlimit="3" points="
		51.541,29.17 45.284,26.873 44.653,20.215 	"/>
	<g>
		<path fill-rule="evenodd" clip-rule="evenodd" fill="#444B99" d="M37.158,19.396c0.3-0.301,0.85-0.65,1.65-1.051
			c0.767-0.434,1.267-0.301,1.5,0.4c1.467-0.334,2.483,0.482,3.05,2.449c0.2,0.834,0.267,1.934,0.2,3.301
			c-0.033,2.766-0.05,4.617-0.05,5.549c0,0.934-0.283,1.617-0.85,2.051c-0.167,0.1-0.717,0.283-1.65,0.551
			c-0.733,0.199-1.15,0.299-1.25,0.299c-0.167-0.033-0.367-0.199-0.6-0.5c-0.567,0.301-1,0.367-1.3,0.201
			c-0.467-0.234-0.784-0.701-0.95-1.4l-0.7-2.6c-0.433-1.701-0.7-2.934-0.8-3.701c-0.133-0.299,0.083-0.799,0.65-1.5
			c0.167-0.166,0.333-0.299,0.5-0.4c0.067-0.766,0.283-1.416,0.65-1.949c-0.367-0.166-0.55-0.334-0.55-0.5
			C36.525,20.195,36.691,19.795,37.158,19.396z M38.158,19.396c-0.167,0.033-0.367,0.148-0.6,0.35h-0.1
			c0.1,0.434,0.517,0.732,1.25,0.9c0.434-0.268,0.833-0.602,1.2-1c-0.133-0.268-0.267-0.484-0.4-0.65c-0.1,0.033-0.2,0.066-0.3,0.1
			C38.675,19.229,38.325,19.33,38.158,19.396z"/>
		<path fill-rule="evenodd" clip-rule="evenodd" fill="#FFFFFF" d="M39.487,30.891c-2.832-3.406-3.654-5.836-2.468-7.289
			C37.249,25.514,38.071,27.943,39.487,30.891z"/>
	</g>
	<path fill-rule="evenodd" clip-rule="evenodd" fill="#444B99" d="M40.899,19.412c0.011-0.318,0.134-0.594,0.369-0.82
		c0.278-0.273,0.662-0.559,1.149-0.852c-0.025-0.178-0.005-0.361,0.058-0.549c0.105-0.293,0.301-0.508,0.588-0.645
		c0.397-0.201,0.833-0.391,1.312-0.568c0.229-0.08,0.458-0.088,0.689-0.023l0.056,0.014c0.221,0.057,0.409,0.166,0.565,0.33
		c0.144,0.164,0.231,0.355,0.262,0.576c0.044,0.221,0.027,0.434-0.053,0.639c-0.298,0.754-0.906,1.395-1.821,1.918l-0.035,0.021
		c-0.53,0.285-0.929,0.555-1.197,0.807c-0.222,0.219-0.488,0.326-0.799,0.32c-0.312-0.008-0.577-0.129-0.794-0.361
		C41.019,19.994,40.903,19.727,40.899,19.412z"/>
</g>
</svg>
