<?xml version="1.0" encoding="utf-8"?>
<!-- Generator: Adobe Illustrator 15.1.0, SVG Export Plug-In . SVG Version: 6.00 Build 0)  -->
<!DOCTYPE svg PUBLIC "-//W3C//DTD SVG 1.1//EN" "http://www.w3.org/Graphics/SVG/1.1/DTD/svg11.dtd">
<svg version="1.1" id="Layer_1" xmlns="http://www.w3.org/2000/svg" xmlns:xlink="http://www.w3.org/1999/xlink" x="0px" y="0px"
	 width="90px" height="60px" viewBox="0 0 90 60" enable-background="new 0 0 90 60" xml:space="preserve">
<symbol  id="Symbol_32" viewBox="-46.046 -516.214 435.643 531.426">
	<g id="Layer_1_12_">
		<path fill-rule="evenodd" clip-rule="evenodd" fill="#4E569D" d="M179.435,4.521c14.503,0,26.876-5.005,37.121-15.015
			c10.244-10.01,15.366-22.101,15.366-36.272c0-14.17-5.122-26.262-15.366-36.271c-10.245-10.01-22.618-15.016-37.121-15.016
			c-14.459,0-26.833,5.006-37.12,15.016c-10.244,10.01-15.366,22.101-15.366,36.271c0,14.171,5.123,26.262,15.366,36.272
			C152.559-0.484,164.932,4.521,179.435,4.521z"/>
		<g>
			<path fill-rule="evenodd" clip-rule="evenodd" fill="#4E569D" d="M159.458-72.124c0.46,4.462,2.053,8.111,4.779,10.948
				c2.938,3.079,6.655,4.617,11.15,4.617c4.177,0,7.947-1.539,11.31-4.617c3.505-3.217,5.044-6.866,4.62-10.948
				c-2.053-18.955-6.159-39.208-12.319-60.757c-4.601-16.05-11.238-35.575-19.911-58.578c-4.85-12.902-12.159-32.254-21.929-58.059
				c-8.142-22.345-14.354-42.061-18.637-59.148c-1.027-4.082-3.522-7.195-7.487-9.339c-3.929-2.145-7.964-2.664-12.106-1.557
				c-4.212,1.142-7.398,3.598-9.558,7.368c-2.124,3.701-2.655,7.627-1.593,11.777c4.177,16.603,10.248,35.749,18.212,57.437
				c9.628,25.042,16.814,43.842,21.558,56.398c8.885,23.382,15.522,42.597,19.912,57.644c3.256,11.346,5.806,21.429,7.646,30.249
				C157.158-88.796,158.609-79.941,159.458-72.124z"/>
		</g>
		<g>
			<path fill-rule="evenodd" clip-rule="evenodd" fill="#4E569D" d="M373.76,15.198c4.283,0.173,8.018-1.297,11.204-4.41
				c2.938-2.872,4.478-6.555,4.62-11.052c0.177-4.739-1.363-8.388-4.62-10.947c-7.788-5.984-14.407-11.708-19.859-17.174
				c-3.221-3.148-6.018-6.088-8.389-8.82l-3.823-4.514c-0.206-0.259-0.383-0.476-0.531-0.648c-0.136-0.191-0.242-0.338-0.318-0.441
				l0.212,0.312l-1.434-1.919c-8.284-11.242-16.16-25.164-23.628-41.767c-1.699-3.736-4.92-6.123-9.664-7.16
				c-4.496-1.003-8.548-0.484-12.159,1.557c-3.894,2.248-6.301,5.414-7.221,9.495c-0.85,3.771-0.354,7.713,1.486,11.83
				c15.115,33.518,36.036,60.601,62.762,81.251C366.008,13.589,369.796,15.06,373.76,15.198z"/>
		</g>
		<g>
			<path fill-rule="evenodd" clip-rule="evenodd" fill="#4E569D" d="M298.574-67.454c4.248,1.038,8.265,0.519,12.053-1.557
				c3.858-2.11,6.372-5.223,7.54-9.339c1.133-4.081,0.602-8.024-1.593-11.829c-2.195-3.839-5.381-6.278-9.558-7.316
				c-12.531-3.113-24.868-7.056-37.009-11.83c-11.398-4.497-23.115-9.944-35.151-16.343c-10.938-5.846-21.876-12.262-32.814-19.25
				c-10.903-6.987-20.991-14.061-30.266-21.221c-3.646-2.767-7.434-4.237-11.363-4.41c-4.283-0.173-8.018,1.297-11.203,4.41
				c-2.938,2.871-4.478,6.572-4.62,11.103c-0.177,4.739,1.363,8.388,4.62,10.948C200.008-105.105,249.795-79.561,298.574-67.454z"/>
		</g>
		<g>
			<path fill-rule="evenodd" clip-rule="evenodd" fill="#4E569D" d="M87.062-298.435c3.589,2.466,7.521,3.418,11.794,2.858
				c4.343-0.57,7.848-2.558,10.512-5.964c2.564-3.357,3.579-7.214,3.043-11.57c-0.58-4.419-2.607-7.835-6.082-10.247
				c-25.243-17.347-45.721-30.438-61.432-39.274C21.4-375.896-0.903-385.576-22.011-391.672c-4.382-1.239-8.437-1.163-12.167,0.229
				c-4.035,1.504-6.913,4.277-8.633,8.319c-1.613,3.783-1.592,7.774,0.063,11.974c1.684,4.406,4.532,7.184,8.543,8.334
				c20.287,5.827,41.38,14.891,63.281,27.19C43.783-327.347,63.111-314.949,87.062-298.435z"/>
		</g>
		<g>
			<path fill-rule="evenodd" clip-rule="evenodd" fill="#4E569D" d="M-23.333-388.871c-4.137-0.506-8.054,0.563-11.752,3.206
				c-3.899,2.74-5.937,6.164-6.114,10.271c-0.338,8.071-0.298,17.711,0.122,28.921c0.251,6.419,0.702,16.054,1.35,28.907
				c0.134,3.016,0.192,5.224,0.172,6.622l0.025,0.755c-0.001,0.152-0.002,0.274-0.002,0.367l-0.04,1.444
				c-0.042,4.053-0.295,8.256-0.758,12.612c-1.021,9.317-2.65,17.986-4.886,26.008c-1.172,4.384-1.102,8.351,0.212,11.901
				c1.437,3.916,4.235,6.719,8.394,8.407c3.815,1.527,7.893,1.482,12.233-0.134c4.616-1.689,7.472-4.494,8.566-8.414
				c5.804-21.077,8.362-41.51,7.675-61.299c-0.109-3.09-0.324-7.194-0.644-12.313c-0.358-6.16-0.591-10.261-0.697-12.305
				c-0.287-5.646-0.451-10.281-0.492-13.903c-0.023-4.008,0.075-8.557,0.293-13.646c0.205-4.423-0.879-8.232-3.25-11.426
				C-15.433-386.308-18.903-388.302-23.333-388.871z"/>
		</g>
		<g>
			<path fill-rule="evenodd" clip-rule="evenodd" fill="#4E569D" d="M81.405-308.717c1.416,4.116,3.947,7.229,7.593,9.339
				c3.752,2.179,7.752,2.698,12,1.556c4.106-1.106,7.31-3.563,9.61-7.367c2.372-3.909,2.885-7.834,1.54-11.778
				c-6.407-18.644-14.549-38.187-24.425-58.629c-8.106-16.845-18.036-35.575-29.788-56.191
				c-3.469-6.087-11.221-18.816-23.257-38.187c-9.068-14.598-16.14-26.765-21.212-36.5c-0.36-0.905-0.811-1.77-1.354-2.594
				c-2.05-3.682-5.289-5.947-9.717-6.797c-0.535-0.095-1.083-0.173-1.646-0.233c-1.892-0.195-3.671-0.143-5.337,0.156l-8.044,4.202
				c-3.08,3.009-4.62,6.676-4.62,11c0,3.097,0.779,5.846,2.336,8.25c5.015,9.791,12.219,22.261,21.61,37.409
				c11.823,18.989,19.417,31.424,22.779,37.305c11.682,20.512,21.222,38.343,28.62,53.493
				C67.653-344.742,75.423-326.219,81.405-308.717z"/>
		</g>
	</g>
</symbol>
<symbol  id="flash0.ai_Assets_x5F_0_x2F_Illustrator_Symbols_x2F_New_Symbol_1" viewBox="-129.917 -264.55 431.095 579.728">
	<g id="Layer_1_3_">
		<g>
			<g>
				<path fill-rule="evenodd" clip-rule="evenodd" fill="#4E569D" d="M84.3,63.45c-0.7-1.467-1.767-1.784-3.2-0.95
					c-1.434,0.834-1.8,1.983-1.1,3.45c10.333,21.667,23.733,41.316,40.2,58.95c17.867,19.066,36.283,32.467,55.25,40.199
					c1.5,0.634,2.466,0.134,2.9-1.5c0.433-1.6-0.083-2.699-1.55-3.3c-19.133-7.8-37.55-21.566-55.25-41.3
					C106.217,101.867,93.8,83.35,84.3,63.45z"/>
			</g>
			<g>
				<path fill-rule="evenodd" clip-rule="evenodd" fill="#4E569D" d="M214.5,248.2c5.967,6.634,11.483,12.25,16.55,16.85
					c16,14.534,28.017,19.684,36.05,15.45c9.967-5.233,6.867-16.75-9.3-34.55c-5.033-5.534-11.483-11.8-19.35-18.8
					c-7.133-6.2-11.167-9.783-12.1-10.75c-12.9-13.467-26.833-29-41.8-46.601c-9.6-11.3-22.883-27.384-39.85-48.25
					c-17.333-21.333-33.417-41.5-48.25-60.5c-0.167-0.233-0.383-0.55-0.65-0.95L-102.3-242.05c-2.3-3.467-6.3-5.934-12-7.4
					c-5.8-1.5-10.517-1.183-14.15,0.95c-2.933,1.7-1.466,9.7,4.4,24c4.866,11.9,9.149,20.617,12.85,26.15L53.9,51.1
					c2.133,3.2,5.283,8.066,9.45,14.601c3.767,5.767,7.1,10.5,10,14.2C88.817,99.8,105.533,120.767,123.5,142.8
					c17.1,21,30.383,37.067,39.85,48.2c15,17.633,28.933,33.166,41.8,46.6C206.083,238.566,209.2,242.1,214.5,248.2z"/>
			</g>
			<g>
				<path fill-rule="evenodd" clip-rule="evenodd" fill="#4E569D" d="M59.013,138.997l-0.056,0.001
					c0.229-0.271,0.404-0.438,0.526-0.502c0.069-0.037-0.04,0.096-0.327,0.398C59.11,138.93,59.063,138.964,59.013,138.997z
					 M73.79,141.215c-0.016,0.032-0.034,0.07-0.053,0.113c-0.009-0.191-0.013-0.378-0.012-0.559
					C73.735,140.408,73.756,140.557,73.79,141.215z M44.819,198.508c8.578,1.848,16.959,1.428,25.144-1.262
					c9.384-3.057,17.437-7.785,24.159-14.185c7.161-6.781,12.032-14.729,14.613-23.843c3.038-10.824,3.477-21.54,1.319-32.15
					c-2.364-11.857-7.613-20.936-15.747-27.234c-6.922-5.354-15.209-7.186-24.86-5.493c-1.351,0.239-2.689,0.538-4.016,0.899
					c-5.468-2.754-11.159-3.533-17.071-2.338c-7.553,1.529-14.172,6.086-19.855,13.671c-4.162,5.541-7.912,12.899-11.253,22.074
					c-3.945,10.887-5.785,20.946-5.517,30.181c0.375,11.512,4.063,20.809,11.066,27.891
					C28.738,192.704,36.077,196.635,44.819,198.508z"/>
			</g>
			<g>
				<path fill-rule="evenodd" clip-rule="evenodd" fill="#4E569D" d="M254.9,291.699c-3.3-5.766-5.017-12.082-5.15-18.949
					c-0.033-1.533-0.566-2.75-1.6-3.65c-0.967-0.8-2.117-1.199-3.45-1.199c-1.367,0-2.517,0.399-3.45,1.199
					c-1.033,0.9-1.533,2.117-1.5,3.65c0.167,8.633,2.333,16.6,6.5,23.9c4.2,7.266,9.967,13.183,17.3,17.75
					c1.3,0.799,2.6,0.982,3.9,0.549c1.133-0.366,2.05-1.149,2.75-2.35c0.667-1.166,0.9-2.367,0.7-3.6c-0.233-1.367-1-2.45-2.3-3.25
					C262.767,302.117,258.2,297.434,254.9,291.699z"/>
			</g>
			<g>
				<path fill-rule="evenodd" clip-rule="evenodd" fill="#4E569D" d="M252,266.6c-1.167,0.434-2.083,1.233-2.75,2.4
					c-0.7,1.166-0.933,2.35-0.7,3.55c0.233,1.366,1.017,2.433,2.35,3.2c4.824,2.785,9.041,5.902,12.65,9.35
					c-4.64-2.187-8.29-3.97-10.95-5.35c-1.333-0.7-2.667-0.801-4-0.301c-1.167,0.434-2.1,1.234-2.8,2.4
					c-0.667,1.167-0.883,2.334-0.65,3.5c0.267,1.334,1.066,2.35,2.4,3.051c3.233,1.666,8.167,3.982,14.8,6.949
					c5.733,2.801,10.25,5.783,13.55,8.95c1.767,1.7,3.783,1.917,6.05,0.649c2.267-1.266,3.033-3.116,2.3-5.549
					c-2.033-6.634-5.733-12.867-11.1-18.701c-4.733-5.166-10.467-9.699-17.2-13.6C254.617,266.333,253.3,266.166,252,266.6z"/>
			</g>
			<g>
				<path fill-rule="evenodd" clip-rule="evenodd" fill="#4E569D" d="M255.7,275.95c-0.027,0.374-0.01,0.757,0.05,1.149
					c0.2,1.4,0.9,2.551,2.1,3.451c2.633,1.933,7.6,3.967,14.9,6.1c6.6,1.934,11.3,4.3,14.1,7.1c1.7,1.7,3.75,1.917,6.15,0.65
					c2.433-1.301,3.167-3.133,2.2-5.5c-2.966-7.268-8.583-13-16.85-17.2c-7.333-3.733-15.333-5.667-24-5.8
					c-1.534-0.033-2.733,0.467-3.6,1.5c-0.8,0.934-1.2,2.066-1.2,3.4c0,1.366,0.4,2.533,1.2,3.5c0.9,1.033,2.1,1.566,3.6,1.6
					C254.799,275.907,255.249,275.924,255.7,275.95z"/>
			</g>
			<g>
				<path fill-rule="evenodd" clip-rule="evenodd" fill="#4E569D" d="M250.75,285.6c2.867,0.967,5.316,1.467,7.35,1.5
					c1.367,0.033,2.55-0.449,3.55-1.449c0.967-1,1.45-2.184,1.45-3.551c0-1.366-0.5-2.533-1.5-3.5c-0.966-0.967-2.133-1.467-3.5-1.5
					c-0.194,0-0.369-0.008-0.525-0.025l-0.275-0.024l-3.85-1.101c-1.267-0.433-2.533-0.283-3.8,0.451
					c-1.233,0.732-2.017,1.75-2.35,3.049c-0.367,1.334-0.2,2.584,0.5,3.75C248.466,284.367,249.45,285.166,250.75,285.6z"/>
			</g>
			<g>
				<path fill-rule="evenodd" clip-rule="evenodd" fill="#4E569D" d="M255.55,268.699c0.8,2.101,2.316,3.117,4.55,3.051
					c2.1-0.066,5.233-0.383,9.4-0.95c2.101-0.172,4.009-0.163,5.725,0.024c0.009,0.043,0.018,0.084,0.025,0.125
					c0.467,2.634,0.667,4.451,0.6,5.451c-0.133,1.799-0.933,3.85-2.4,6.149c-0.8,1.3-2.033,3.2-3.7,5.7
					c-1.066,2-0.933,3.816,0.4,5.449c1.333,1.634,3.083,2.25,5.25,1.851c3.433-0.634,6.35-2.267,8.75-4.899
					c2.233-2.467,3.783-5.467,4.65-9c0.833-3.467,0.883-6.884,0.15-10.25c-0.011-0.053-0.02-0.104-0.025-0.15
					c1.109,0.977,2.051,2.094,2.825,3.35c0.8,1.301,1.883,2.066,3.25,2.301c1.233,0.199,2.45-0.033,3.65-0.701
					c1.167-0.699,1.933-1.616,2.3-2.75c0.433-1.299,0.25-2.6-0.55-3.899c-4.2-6.899-11.117-11.149-20.75-12.75
					c-9.867-1.667-17.567,0.467-23.1,6.399C255.083,264.8,254.75,266.633,255.55,268.699z"/>
			</g>
			<g>
				<path fill-rule="evenodd" clip-rule="evenodd" fill="#4E569D" d="M57.3,106.05c-0.566,1.4-0.517,2.65,0.15,3.75
					c0.6,1,1.566,1.667,2.9,2c1.3,0.366,2.55,0.3,3.75-0.2c1.333-0.533,2.283-1.5,2.85-2.899c2.833-7,4.466-14.067,4.9-21.2
					c0.433-7.533-0.533-14.684-2.9-21.45c-0.5-1.433-1.4-2.433-2.7-3c-1.167-0.5-2.4-0.583-3.7-0.25c-1.3,0.366-2.267,1.05-2.9,2.05
					c-0.733,1.134-0.85,2.417-0.35,3.851C63.367,80.334,62.7,92.783,57.3,106.05z"/>
			</g>
			<g>
				<path fill-rule="evenodd" clip-rule="evenodd" fill="#4E569D" d="M70.65,102.1c1.3,0.367,2.467,0.283,3.5-0.25
					c1.167-0.6,1.883-1.649,2.15-3.149c1.967-11.767,0.85-23.101-3.35-34c-1.167-2.967-3.35-4.017-6.55-3.15
					c-1.3,0.333-2.267,1-2.9,2c-0.667,1.101-0.733,2.366-0.2,3.8c3.8,9.867,4.917,19.434,3.35,28.7
					C66.117,99.217,67.45,101.233,70.65,102.1z"/>
			</g>
			<g>
				<path fill-rule="evenodd" clip-rule="evenodd" fill="#4E569D" d="M74.25,100.3c1,0.8,2.183,1.2,3.55,1.2
					c1.333,0,2.45-0.4,3.35-1.2c0.967-0.866,1.4-2.066,1.3-3.6C81.55,83.066,78,70.9,71.8,60.2c-0.767-1.333-1.833-2.116-3.2-2.351
					c-1.2-0.232-2.383-0.016-3.55,0.65c-1.167,0.7-1.966,1.633-2.4,2.8c-0.433,1.3-0.267,2.601,0.5,3.9
					c5.4,9.366,8.5,19.866,9.3,31.5C72.55,98.2,73.15,99.4,74.25,100.3z"/>
			</g>
			<g>
				<path fill-rule="evenodd" clip-rule="evenodd" fill="#4E569D" d="M64.65,94.05c0.533,1.4,1.467,2.384,2.8,2.95
					c1.2,0.5,2.45,0.566,3.75,0.2c1.3-0.366,2.267-1.05,2.9-2.05c0.667-1.101,0.733-2.367,0.2-3.801
					c-5.1-13.967-9.017-24.383-11.75-31.25C57.75,48.133,52.833,38.166,47.8,30.2c-0.8-1.3-1.9-2.067-3.3-2.3
					c-1.233-0.2-2.433,0.033-3.6,0.7c-1.167,0.7-1.95,1.617-2.35,2.75c-0.4,1.268-0.2,2.551,0.6,3.851
					c4.867,7.7,9.6,17.283,14.2,28.75C55.983,70.584,59.75,80.617,64.65,94.05z"/>
			</g>
			<g>
				<path fill-rule="evenodd" clip-rule="evenodd" fill="#4E569D" d="M73.8,55.9c0.714,1.453,1.848,2.262,3.4,2.425
					c0.926,2.222,2.06,4.947,3.4,8.175c2.566,6.233,4.75,11.367,6.55,15.4c1.033,2.3,2.85,3.05,5.45,2.25
					c2.533-0.801,3.816-2.4,3.85-4.801c0.1-6.434-5.534-23.616-16.9-51.55C71.083,6.9,64.933-7.417,61.1-15.15
					C54.5-28.917,45.983-40.967,35.55-51.3c-1.75-1.726-3.517-3.368-5.3-4.925c1.133-1.883,5.967-17.408,14.5-46.575
					c8.533-29.3,12.8-45.1,12.8-47.4c0-0.333-2.683-6.4-8.05-18.2c-6.267-13.867-12.4-26.967-18.4-39.3
					c-18.434-37.9-29.783-56.85-34.05-56.85c-2.9,0-6.316,1.133-10.25,3.4c-1.069,0.612-1.985,1.179-2.75,1.7
					c-1.194,0.397-2.177,1.38-2.95,2.95c-0.3,0.633,7.5,17.45,23.4,50.45C20-173.917,28.433-156.7,29.8-154.4
					c-3.734,8.272-8.767,22.822-15.1,43.65c-2,6.533-5.034,14.317-9.1,23.35c-4.1,9.1-6.583,13.533-7.45,13.3
					c-2.533-0.7-4.367,0.05-5.5,2.25c-1.167,2.167-0.967,4.2,0.6,6.1c0.673,0.808,1.39,1.633,2.15,2.475
					c-0.388,0.938-0.488,1.862-0.3,2.775c0.3,1.267,1.133,2.217,2.5,2.85c0.865,0.393,1.731,0.826,2.6,1.3
					c0.39,2.707,1.373,3.315,2.95,1.825c1.01,0.674,2.019,1.407,3.025,2.2C3.932-52.512,1.69-52.503-0.55-52.3
					c-1.5,0.133-2.7,0.767-3.6,1.9c-0.767,1-1.167,2.183-1.2,3.55c0,1.367,0.4,2.467,1.2,3.3c0.9,0.966,2.1,1.383,3.6,1.25
					c5.733-0.5,11.5,0.417,17.3,2.75c1.052,0.429,2.069,0.887,3.05,1.375c1.657,1.987,3.607,4.329,5.85,7.025
					c1.262,1.524,2.836,3.375,4.725,5.55c-3.318-2.037-6.776-3.82-10.375-5.35c-0.398-0.17-0.798-0.336-1.2-0.5
					c-2.7-1.1-4.583-0.233-5.65,2.6c-1.066,2.833-0.467,5.017,1.8,6.55c1.466,0.966,5.983,3.55,13.55,7.75
					c0.974,0.534,1.907,1.067,2.8,1.6C38.983-6.946,45.883,1.07,52,11.1c3.5,5.733,7.333,13.133,11.5,22.2
					C65.833,38.367,69.267,45.9,73.8,55.9z"/>
			</g>
		</g>
	</g>
</symbol>
<g>
	
		<line fill-rule="evenodd" clip-rule="evenodd" fill="none" stroke="#5A4B38" stroke-linejoin="round" stroke-miterlimit="3" x1="47.609" y1="24.396" x2="57.158" y2="3.846"/>
	<path fill-rule="evenodd" clip-rule="evenodd" fill="#5A4B38" d="M61.689,10.374c-3.982-4.011-8.334-6.089-13.053-6.234
		l-0.201-0.582c5.098-1.395,9.674,0.74,13.73,6.404L61.689,10.374z"/>
</g>
<use xlink:href="#Symbol_32"  width="435.643" height="531.426" x="-46.046" y="-516.214" transform="matrix(0.0577 0.0027 0.0027 -0.0577 27.209 21.0957)" overflow="visible"/>
</svg>
