<?xml version="1.0" encoding="utf-8"?>
<!-- Generator: Adobe Illustrator 15.1.0, SVG Export Plug-In . SVG Version: 6.00 Build 0)  -->
<!DOCTYPE svg PUBLIC "-//W3C//DTD SVG 1.1//EN" "http://www.w3.org/Graphics/SVG/1.1/DTD/svg11.dtd">
<svg version="1.1" id="Layer_1" xmlns="http://www.w3.org/2000/svg" xmlns:xlink="http://www.w3.org/1999/xlink" x="0px" y="0px"
	 width="90px" height="60px" viewBox="0 0 90 60" enable-background="new 0 0 90 60" xml:space="preserve">
<symbol  id="Symbol_41" viewBox="33.04 -468.528 159.024 466.028">
	<g id="Layer_1_14_">
		<path fill-rule="evenodd" clip-rule="evenodd" fill="#4E569D" d="M192.064-48.316c0-12.655-4.389-23.455-13.168-32.399
			c-8.779-8.944-19.379-13.417-31.8-13.417c-12.453,0-23.069,4.472-31.848,13.417c-8.779,8.945-13.168,19.744-13.168,32.399
			c0,12.655,4.39,23.455,13.168,32.399C124.059-6.973,134.675-2.5,147.096-2.5c12.421,0,23.021-4.473,31.8-13.417
			C187.675-24.861,192.064-35.661,192.064-48.316z"/>
		<g>
			<path fill-rule="evenodd" clip-rule="evenodd" fill="#4E569D" d="M168.857-33.369c1.75-3.837,2.147-7.761,1.19-11.771
				c-9.955-42.04-16.587-73.897-19.896-95.574c-5.442-35.782-6.864-68.4-4.267-97.855c0.356-4.08-0.834-7.727-3.568-10.942
				c-2.599-3.077-5.511-4.615-8.738-4.615c-3.473,0-6.345,1.538-8.615,4.615c-2.078,2.835-3.309,6.482-3.692,10.942
				c-2.708,30.527-1.217,64.58,4.472,102.16c3.528,23.301,10.393,56.473,20.594,99.515c0.984,4.114,2.926,7.226,5.825,9.334
				c2.926,2.178,6.03,2.697,9.312,1.556C164.673-27.146,167.135-29.601,168.857-33.369z"/>
		</g>
		<g>
			<path fill-rule="evenodd" clip-rule="evenodd" fill="#4E569D" d="M125.148-231.776c2.042,3.681,4.86,6.012,8.452,6.994
				c3.684,0.978,7.113,0.307,10.287-2.014c3.146-2.25,5.196-5.455,6.148-9.615c7.296-31.982,13.741-67.04,19.334-105.174
				c4.437-30.194,8.8-65.661,13.088-106.401c0.486-4.451-0.121-8.368-1.818-11.752c-1.829-3.655-4.615-5.97-8.359-6.946
				c-3.468-0.918-6.928-0.263-10.379,1.967c-3.599,2.339-5.618,5.543-6.057,9.611c-4.261,40.635-8.623,76.12-13.086,106.454
				c-5.595,38.099-12.04,73.157-19.334,105.174C122.498-239.425,123.073-235.524,125.148-231.776z"/>
		</g>
		<g>
			<path fill-rule="evenodd" clip-rule="evenodd" fill="#4E569D" d="M66.789-319.516c1.743-3.533,2.3-7.429,1.675-11.688
				c-5.646-38.677-9.015-79.021-10.108-121.033c-0.112-4.402-1.238-8.119-3.377-11.15c-2.244-3.21-5.138-4.918-8.682-5.123
				c-3.347-0.194-6.401,1.169-9.163,4.09c-2.822,3.021-4.185,6.593-4.09,10.718c1.133,45.372,4.707,88.479,10.72,129.323
				c0.603,4.12,2.466,7.36,5.588,9.721c3.069,2.289,6.256,2.975,9.561,2.059C62.332-313.543,64.957-315.849,66.789-319.516z"/>
		</g>
		<g>
			<path fill-rule="evenodd" clip-rule="evenodd" fill="#4E569D" d="M121.867-220.059c3.579,0.336,6.738-0.959,9.477-3.888
				c2.616-2.796,4.057-6.42,4.323-10.87c0.274-4.623-0.873-8.338-3.44-11.146c-12.611-13.782-24.249-27.96-34.913-42.534
				c-11.389-15.618-21.278-31.17-29.668-46.657c-2.001-3.71-4.61-6.208-7.828-7.495c-3.389-1.399-6.73-1.083-10.021,0.95
				c-3.109,1.904-5.279,4.969-6.509,9.192c-1.264,4.36-0.965,8.288,0.897,11.783c18.451,34.111,41.274,66.025,68.471,95.74
				C115.422-221.991,118.492-220.349,121.867-220.059z"/>
		</g>
		<g>
			<path fill-rule="evenodd" clip-rule="evenodd" fill="#4E569D" d="M188.303-132.701c-0.264-3.469-1.208-6.66-2.832-9.571
				c-1.699-3.098-4.078-5.746-7.136-7.945c-4.946-3.655-11.063-6.846-18.349-9.571l-8.778-3.159
				c-2.228-0.775-3.587-1.239-4.078-1.394l-4.361-1.58c-6.305-2.385-13.233-5.591-20.785-9.618
				c-4.682-2.509-11.232-6.272-19.651-11.291c-2.87-1.735-4.569-2.757-5.097-3.066c-1.058-0.682-2.662-1.781-4.814-3.299
				c-4.078-2.912-7.287-5.389-9.628-7.434c-1.737-1.486-3.172-2.788-4.304-3.902c-0.481-0.465-0.792-0.774-0.934-0.929l0.594,0.697
				l-1.812-2.044c-2.266-2.757-4.248-5.637-5.947-8.642c-1.85-3.345-5.267-5.482-10.25-6.412c-4.795-0.898-9.118-0.418-12.969,1.44
				c-4.115,1.952-6.683,4.77-7.702,8.457c-0.944,3.407-0.416,6.938,1.586,10.593c6.229,11.244,17.254,21.977,33.074,32.199
				c5.776,3.748,12.95,7.899,21.521,12.452c9.817,5.08,17.047,8.844,21.691,11.291c2.152,1.115,4.7,2.23,7.646,3.345
				c1.585,0.62,4.248,1.564,7.985,2.834c1.702,0.597,3.014,1.062,3.937,1.394l-0.566-0.186l5.408,1.905
				c2.87,1.053,5.343,2.044,7.419,2.973c1.418,0.684,2.438,1.18,3.059,1.487c-3.097,2.72-4.664,5.956-4.701,9.711
				c0,3.872,1.642,7.155,4.927,9.85c3.247,2.664,7.249,4.012,12.006,4.042c4.833,0,8.835-1.347,12.006-4.042
				C184.924-119.304,188.87-126.166,188.303-132.701z"/>
		</g>
	</g>
</symbol>
<symbol  id="Symbol_47" viewBox="0.038 -20.779 16.706 20.809">
	<g id="Layer_1_13_">
		
			<line fill-rule="evenodd" clip-rule="evenodd" fill="none" stroke="#5A4B38" stroke-linejoin="round" stroke-miterlimit="3" x1="16.3" y1="-20.55" x2="5.9" y2="-0.4"/>
		<path fill-rule="evenodd" clip-rule="evenodd" fill="#5A4B38" d="M13.546-0.618C7.933-1.314,3.625-3.485,0.622-7.129L0.038-6.933
			C2.055-2.046,6.546,0.269,13.511,0.01L13.546-0.618z"/>
	</g>
</symbol>
<use xlink:href="#Symbol_47"  width="16.706" height="20.809" x="0.038" y="-20.779" transform="matrix(-0.3887 -0.9214 -0.9214 0.3887 33.2402 48.5488)" overflow="visible"/>
<use xlink:href="#Symbol_41"  width="159.024" height="466.028" x="33.04" y="-468.528" transform="matrix(0.0712 3.051758e-004 3.051758e-004 -0.0712 40.04 11.748)" overflow="visible"/>
</svg>
