<?xml version="1.0" encoding="utf-8"?>
<!-- Generator: Adobe Illustrator 15.1.0, SVG Export Plug-In . SVG Version: 6.00 Build 0)  -->
<!DOCTYPE svg PUBLIC "-//W3C//DTD SVG 1.1//EN" "http://www.w3.org/Graphics/SVG/1.1/DTD/svg11.dtd">
<svg version="1.1" id="Layer_1" xmlns="http://www.w3.org/2000/svg" xmlns:xlink="http://www.w3.org/1999/xlink" x="0px" y="0px"
	 width="90px" height="60px" viewBox="0 0 90 60" enable-background="new 0 0 90 60" xml:space="preserve">
<symbol  id="Symbol_58" viewBox="-1 -35.75 17.45 35.75">
	<g id="Layer_1_19_">
		<path fill-rule="evenodd" clip-rule="evenodd" fill="#444B99" d="M11.6-2.65c0-0.067,0-0.167,0-0.3c0-0.833-0.283-1.533-0.85-2.1
			c-0.6-0.567-1.3-0.85-2.1-0.85c-0.833,0-1.533,0.283-2.1,0.85c-0.6,0.566-0.9,1.267-0.9,2.1c0,0.8,0.3,1.5,0.9,2.1
			C7.117-0.283,7.817,0,8.65,0c0.4,0,0.767-0.067,1.1-0.2c0.233-0.066,0.433-0.183,0.6-0.35L10.4-0.6c0.033,0,0.067-0.033,0.1-0.1
			h0.05l0.2-0.15C11.25-1.383,11.533-1.983,11.6-2.65z"/>
		
			<path fill-rule="evenodd" clip-rule="evenodd" fill="none" stroke="#444B99" stroke-width="2" stroke-linecap="round" stroke-linejoin="round" stroke-miterlimit="3" d="
			M15.45-12.1l-6,5.45 M0-16.9L8.55-6.45L7.8-17.05l3.25-8.7l2.9-8.8 M9.85-14.85l5.4,2.5 M7.8-17.05l-3-17.7"/>
	</g>
</symbol>
<use xlink:href="#Symbol_58"  width="17.45" height="35.75" x="-1" y="-35.75" transform="matrix(1 0 0 -1 36 11.3999)" overflow="visible"/>
</svg>
