<?xml version="1.0" encoding="utf-8"?>
<!-- Generator: Adobe Illustrator 15.1.0, SVG Export Plug-In . SVG Version: 6.00 Build 0)  -->
<!DOCTYPE svg PUBLIC "-//W3C//DTD SVG 1.1//EN" "http://www.w3.org/Graphics/SVG/1.1/DTD/svg11.dtd">
<svg version="1.1" id="Layer_1" xmlns="http://www.w3.org/2000/svg" xmlns:xlink="http://www.w3.org/1999/xlink" x="0px" y="0px"
	 width="90px" height="60px" viewBox="0 0 90 60" enable-background="new 0 0 90 60" xml:space="preserve">
<symbol  id="Symbol_43" viewBox="0.016 -409.144 349.445 409.157">
	<g id="Layer_1_23_">
		<g>
			<path fill-rule="evenodd" clip-rule="evenodd" fill="#4E569D" d="M294.85-44.85c0.164,0.284,0.297,0.517,0.4,0.7
				C295.318-43.382,295.185-43.615,294.85-44.85z M331.85-25.95c0.104-0.301,0.204-0.602,0.3-0.9
				c2.033-6.133,2.483-12.483,1.35-19.05c-1.563-9.082-6.071-17.174-13.525-24.275c-1.233-3.093-3.308-5.452-6.225-7.075
				c-7.1-3.867-14.184-6.55-21.25-8.05c-8.034-1.7-15.55-1.733-22.55-0.1c-7.367,1.733-13.367,5.467-18,11.2
				c-4.767,5.934-6.967,12.633-6.6,20.1c0.167,3.567,0.717,7.15,1.65,10.75c0.737,2.742,1.762,5.734,3.075,8.975l1.975,4.575
				c0.8,1.5,1.317,2.45,1.55,2.85c1.633,2.567,3.483,5.067,5.55,7.5c3.6,4.233,7.767,7.883,12.5,10.95
				c5.033,3.233,10.117,5.4,15.25,6.5c1.698,0.364,3.374,0.639,5.025,0.825c0.687,0.173,1.379,0.331,2.075,0.475
				c5.966,1.233,11.35,0.867,16.15-1.1c6.867-2.833,12.3-6.85,16.3-12.05C329.362-17.631,331.162-21.665,331.85-25.95z M275.1-55.65
				c0.042-0.021,0.084-0.038,0.125-0.05l-0.15,0.1C275.087-55.616,275.096-55.633,275.1-55.65z"/>
		</g>
		<g>
			<path fill-rule="evenodd" clip-rule="evenodd" fill="#4E569D" d="M266.2-69.3c0.167,4.167,1.65,7.683,4.45,10.55
				c2.867,2.967,6.383,4.45,10.55,4.45c4.033,0,7.567-1.483,10.6-4.45c3.1-3,4.567-6.517,4.4-10.55
				c-0.6-13.7-4.033-29.284-10.3-46.75c-3.6-10.067-9.483-25-17.65-44.8c-5.133-13.7-10.417-30-15.85-48.9
				c-3.167-10.967-7.75-27.467-13.75-49.5c-1.1-3.967-3.467-6.967-7.1-9c-3.6-2.067-7.383-2.567-11.35-1.5
				c-3.933,1.067-6.933,3.433-9,7.1c-2.1,3.633-2.6,7.417-1.5,11.35c6,22.066,10.567,38.583,13.7,49.55
				c5.467,18.933,10.767,35.217,15.9,48.85c1.6,4.233,4.433,11.3,8.5,21.2c3.733,9.067,6.533,16.167,8.4,21.3
				c3.367,9.4,5.75,17.017,7.15,22.85c1,4.033,1.667,7.133,2,9.3C265.75-75.783,266.033-72.8,266.2-69.3z"/>
		</g>
		<g>
			<path fill-rule="evenodd" clip-rule="evenodd" fill="#4E569D" d="M87.2-240.7c1.333,2.233,3.167,4.067,5.5,5.5
				c2.533,1.534,5.033,2.167,7.5,1.9l121-12c4.267-0.434,7.783-1.934,10.55-4.5c2.966-2.767,4.45-6.267,4.45-10.5
				c0-3.934-1.483-7.483-4.45-10.65c-3.1-3.3-6.617-4.75-10.55-4.35l-112.85,11.2l-80.2-137.75c-2.3-3.933-5.483-6.283-9.55-7.05
				c-3.633-0.667-7.216,0.033-10.75,2.1c-3.5,2.033-5.867,4.8-7.1,8.3c-1.333,3.9-0.85,7.833,1.45,11.8L87.2-240.7z"/>
		</g>
		<g>
			<path fill-rule="evenodd" clip-rule="evenodd" fill="#4E569D" d="M123.439-145.037c1.392,1.044,6.594-1.552,15.606-7.791
				c8.486-5.89,18.522-13.695,30.108-23.415c12.033-10.126,22.91-19.992,32.631-29.596c10.877-10.707,18.588-19.426,23.133-26.157
				c1.839-2.756,2.247-6.049,1.222-9.879c-0.999-3.598-2.825-6.267-5.478-8.008c-2.89-1.857-5.859-2.277-8.906-1.262
				c-2.812,0.958-5.242,2.945-7.291,5.963l-78.03,66.329c-6.411-4.73-22.017-20.862-46.818-48.397
				c-24.828-27.535-40.434-43.653-46.818-48.354c-3.153-2.292-8.039-3.96-14.66-5.005c-7.225-1.132-11.547-0.349-12.965,2.35
				c-1.55,2.901-0.946,6.847,1.813,11.838c2.391,4.294,5.189,7.631,8.394,10.01c4.913,3.598,12.611,10.924,23.094,21.979
				c6.332,6.645,16.644,17.873,30.936,33.687C98.073-169.033,116.083-150.463,123.439-145.037z"/>
		</g>
		<g>
			<path fill-rule="evenodd" clip-rule="evenodd" fill="#4E569D" d="M348.65-257.3c1.433-3.667,0.967-7.45-1.4-11.35
				c-2.267-3.7-5.3-6.067-9.1-7.1c-4.067-1.1-7.833-0.6-11.3,1.5c-3.233,2-5.617,5-7.15,9l-58,150
				c-1.433,3.667-0.967,7.433,1.4,11.3c2.267,3.733,5.3,6.117,9.1,7.15c4.067,1.1,7.833,0.6,11.3-1.5c3.233-2,5.617-5,7.15-9
				L348.65-257.3z"/>
		</g>
	</g>
</symbol>
<use xlink:href="#Symbol_43"  width="349.445" height="409.157" x="0.016" y="-409.144" transform="matrix(0.0821 0.0024 0.0024 -0.0821 28.4004 10.3999)" overflow="visible"/>
</svg>
