<?xml version="1.0" encoding="utf-8"?>
<!-- Generator: Adobe Illustrator 15.1.0, SVG Export Plug-In . SVG Version: 6.00 Build 0)  -->
<!DOCTYPE svg PUBLIC "-//W3C//DTD SVG 1.1//EN" "http://www.w3.org/Graphics/SVG/1.1/DTD/svg11.dtd">
<svg version="1.1" id="Layer_1" xmlns="http://www.w3.org/2000/svg" xmlns:xlink="http://www.w3.org/1999/xlink" x="0px" y="0px"
	 width="90px" height="60px" viewBox="0 0 90 60" enable-background="new 0 0 90 60" xml:space="preserve">
<symbol  id="Symbol_36" viewBox="-0.008 -475.97 264.113 475.97">
	<g id="Layer_1_11_">
		<path fill-rule="evenodd" clip-rule="evenodd" fill="#4E569D" d="M160.25-12.15c8.1-8.1,12.15-17.883,12.15-29.35
			s-4.05-21.25-12.15-29.35C152.15-78.95,142.367-83,130.9-83c-11.434,0-21.217,4.05-29.35,12.15c-8.1,8.1-12.15,17.883-12.15,29.35
			s4.05,21.25,12.15,29.35S119.433,0,130.9,0S152.15-4.05,160.25-12.15z"/>
		<g>
			<path fill-rule="evenodd" clip-rule="evenodd" fill="#4E569D" d="M125.1-35c4.167,0,7.7-1.483,10.6-4.45
				c2.833-2.9,4.3-6.417,4.4-10.55c0.4-14.6-0.167-30.8-1.7-48.6c-1-11.767-2.85-27.9-5.55-48.4c-3-23.033-4.966-39.167-5.9-48.4
				c-1.867-18.067-2.816-34.267-2.85-48.6c0-4.567-1.566-8.183-4.7-10.85c-2.833-2.433-6.283-3.65-10.35-3.65s-7.5,1.217-10.3,3.65
				c-3.1,2.667-4.65,6.283-4.65,10.85c0.034,14.333,0.983,30.533,2.85,48.6c0.934,9.233,2.9,25.367,5.9,48.4
				c2.7,20.5,4.55,36.633,5.55,48.4c1.533,17.8,2.1,34,1.7,48.6c-0.1,4.067,1.383,7.583,4.45,10.55
				C117.55-36.483,121.066-35,125.1-35z"/>
		</g>
		<g>
			<path fill-rule="evenodd" clip-rule="evenodd" fill="#4E569D" d="M123.2-232.75c3.567,0.933,7.067,1.983,10.5,3.15
				c2.867,0.967,10.25,3.684,22.15,8.15c8.867,3.267,16.934,5.717,24.2,7.35c8.733,2,17.083,3.033,25.05,3.1
				c4.1,0.033,7.633-1.433,10.6-4.4c2.934-2.967,4.4-6.5,4.4-10.6s-1.466-7.617-4.4-10.55c-2.967-2.934-6.5-4.417-10.6-4.45
				c-2.6,0-4.816-0.083-6.65-0.25l-3.3-0.3c-0.26-0.035-0.543-0.068-0.85-0.1c-4.067-0.733-7.717-1.517-10.95-2.35
				c-6.367-1.767-13.85-4.267-22.45-7.5c-9.6-3.6-17.434-6.3-23.5-8.1c-8.6-2.566-16.7-4.367-24.3-5.4
				c-3.867-0.5-7.383,0.95-10.55,4.35c-2.967,3.233-4.45,6.783-4.45,10.65c0,4.267,1.483,7.767,4.45,10.5
				c2.7,2.433,6.217,3.933,10.55,4.5c-0.9-0.1-0.583-0.017,0.95,0.25c0.8,0.167,1.783,0.35,2.95,0.55
				C119.633-233.633,121.7-233.15,123.2-232.75z"/>
		</g>
		<g>
			<path fill-rule="evenodd" clip-rule="evenodd" fill="#4E569D" d="M207.994-213.1c3.658,0,6.658-1.483,9-4.45
				c2.115-2.7,3.4-6.216,3.857-10.55c1.257-11.533,1.114-26.533-0.429-45c-1.971-23.667-2.971-38.667-3-45
				c-0.028-4.567-1.386-8.183-4.071-10.85c-2.428-2.433-5.372-3.65-8.829-3.65c-3.486,0-6.429,1.2-8.829,3.6
				c-2.686,2.7-4.014,6.333-3.986,10.9c0.029,6.333,1.029,21.333,3,45c1.543,18.467,1.686,33.467,0.429,45
				c-0.4,3.9,0.843,7.417,3.729,10.55C201.608-214.583,204.651-213.1,207.994-213.1z"/>
		</g>
		<g>
			<path fill-rule="evenodd" clip-rule="evenodd" fill="#4E569D" d="M97.847-231.185c2.424,2.54,5.533,3.892,9.326,4.057
				c3.583,0.156,6.844-0.919,9.78-3.225c3.06-2.382,4.495-5.205,4.306-8.468c-0.769-14.227-3.031-33.276-6.789-57.15
				c-4.449-28.088-7.17-46.994-8.165-56.718c-0.357-3.571-1.587-6.509-3.689-8.816c-2.363-2.537-5.472-3.889-9.327-4.057
				c-3.493-0.152-6.752,0.923-9.779,3.226c-3.184,2.459-4.62,5.282-4.306,8.468c1.013,9.999,3.73,29.013,8.151,57.045
				c3.76,23.819,6.028,42.76,6.803,56.823C94.369-236.518,95.599-233.58,97.847-231.185z"/>
		</g>
		<g>
			<path fill-rule="evenodd" clip-rule="evenodd" fill="#4E569D" d="M80.609-350.918c1.765,4.857,4.329,8.098,7.69,9.721
				c3.002,1.5,5.99,1.451,8.966-0.148c3.002-1.556,5.056-4.177,6.162-7.863c1.256-4.06,1.001-8.52-0.764-13.376
				c-4.831-13.193-12.039-30.328-21.623-51.404c-11.425-25.206-18.917-42.147-22.477-50.825c-1.779-4.339-4.261-7.486-7.446-9.439
				c-3.266-2.048-6.429-2.264-9.488-0.647c-2.946,1.569-4.954,4.518-6.021,8.847c-1.098,4.396-0.797,8.699,0.903,12.907
				c3.48,8.472,10.987,25.417,22.518,50.835C68.557-381.287,75.751-364.156,80.609-350.918z"/>
		</g>
		<g>
			<path fill-rule="evenodd" clip-rule="evenodd" fill="#4E569D" d="M164.8-137.1c4.1-1.467,9.467-3.233,16.1-5.3
				c8.6-2.667,14-4.367,16.2-5.1c3.967-1.3,6.967-3.683,9-7.15c2.1-3.533,2.6-7.3,1.5-11.3c-1.066-3.867-3.433-6.883-7.1-9.05
				c-3.767-2.233-7.55-2.717-11.35-1.45c-8.2,2.534-14.367,4.45-18.5,5.75c-7.367,2.3-13.434,4.434-18.2,6.4
				c-14.1,5.767-26.083,13-35.95,21.7c-2.967,2.667-4.417,6.2-4.35,10.6c0.066,4.267,1.517,7.817,4.35,10.65
				c2.966,2.934,6.5,4.367,10.6,4.3c3.934-0.1,7.483-1.534,10.65-4.3c4.066-3.6,8.517-6.75,13.35-9.45
				C155.9-133.433,160.466-135.533,164.8-137.1z"/>
		</g>
		<g>
			<path fill-rule="evenodd" clip-rule="evenodd" fill="#4E569D" d="M210.15-124.95c15,12.267,24.45,20.133,28.35,23.6
				c3.167,2.767,6.716,4.2,10.65,4.3c4.133,0.066,7.667-1.367,10.6-4.3c2.833-2.833,4.283-6.383,4.35-10.65
				c0.1-4.4-1.35-7.933-4.35-10.6c-3.534-3.133-12.983-11-28.35-23.6c-11.667-9.566-20.883-17.7-27.65-24.4
				c-2.9-2.867-6.434-4.316-10.6-4.35c-4.2,0-7.75,1.45-10.65,4.35c-2.867,2.9-4.317,6.45-4.35,10.65c0,4.2,1.45,7.733,4.35,10.6
				C189.2-142.717,198.417-134.583,210.15-124.95z"/>
		</g>
		<g>
			<path fill-rule="evenodd" clip-rule="evenodd" fill="#4E569D" d="M130.1-124.4c2.1-3.567,2.6-7.35,1.5-11.35
				c-1.1-3.9-3.4-6.967-6.9-9.2c-18.833-11.933-36.55-25.816-53.15-41.65c-17.1-16.267-31.583-33.25-43.45-50.95
				c-2.333-3.467-5.4-5.75-9.2-6.85c-3.967-1.133-7.75-0.65-11.35,1.45c-3.433,2.034-5.733,5.1-6.9,9.2
				c-1.233,4.233-0.733,8.017,1.5,11.35c13.667,20.3,29.8,39.35,48.4,57.15c18.1,17.333,37.767,32.75,59,46.25
				c3.4,2.133,7.183,2.633,11.35,1.5C124.966-118.633,128.033-120.933,130.1-124.4z"/>
		</g>
	</g>
</symbol>
<use xlink:href="#Symbol_36"  width="264.113" height="475.97" x="-0.008" y="-475.97" transform="matrix(0.0725 0 0 -0.0725 33.3086 12.7461)" overflow="visible"/>
</svg>
