<svg xmlns="http://www.w3.org/2000/svg"><symbol id="icon-person_01" viewBox="0 0 90 60"><g clip-rule="evenodd"><path fill-rule="evenodd" fill="#444B99" d="M46.458 17.746c-.633.6-1.333.9-2.1.9a2.776 2.776 0 0 1-2.1-.9c-.633-.533-.95-1.234-.95-2.1 0-.801.317-1.484.95-2.051.566-.566 1.267-.85 2.1-.85.767 0 1.466.283 2.1.85.567.566.851 1.25.851 2.051 0 .866-.284 1.567-.851 2.1z"/><path fill="none" stroke="#444B99" stroke-width="2" stroke-linecap="round" stroke-linejoin="round" stroke-miterlimit="3" d="M53.408 24.445l-4.5.35-4.05-5.699-.2 3.301-.4 6.25 5.9 7.898 1.8 9.352m-13.15-.352l4.5-7.549.95-9.35"/><path fill="none" stroke="#444B99" stroke-width="2" stroke-linecap="round" stroke-linejoin="round" stroke-miterlimit="3" d="M51.541 29.17l-6.257-2.297-.631-6.658"/><g fill-rule="evenodd"><path fill="#444B99" d="M37.158 19.396c.3-.301.85-.65 1.65-1.051.767-.434 1.267-.301 1.5.4 1.467-.334 2.483.482 3.05 2.449.2.834.267 1.934.2 3.301-.033 2.766-.05 4.617-.05 5.549 0 .934-.283 1.617-.85 2.051-.167.1-.717.283-1.65.551-.733.199-1.15.299-1.25.299-.167-.033-.367-.199-.6-.5-.567.301-1 .367-1.3.201-.467-.234-.784-.701-.95-1.4l-.7-2.6c-.433-1.701-.7-2.934-.8-3.701-.133-.299.083-.799.65-1.5.167-.166.333-.299.5-.4.067-.766.283-1.416.65-1.949-.367-.166-.55-.334-.55-.5-.133-.401.033-.801.5-1.2zm1 0c-.167.033-.367.148-.6.35h-.1c.1.434.517.732 1.25.9a5.723 5.723 0 0 0 1.2-1 3.616 3.616 0 0 0-.4-.65l-.3.1c-.533.133-.883.234-1.05.3z"/><path fill="#FFF" d="M39.487 30.891c-2.832-3.406-3.654-5.836-2.468-7.289.23 1.912 1.052 4.341 2.468 7.289z"/></g><path fill-rule="evenodd" fill="#444B99" d="M40.899 19.412c.011-.318.134-.594.369-.82.278-.273.662-.559 1.149-.852a1.19 1.19 0 0 1 .058-.549c.105-.293.301-.508.588-.645.397-.201.833-.391 1.312-.568a1.12 1.12 0 0 1 .689-.023l.056.014c.221.057.409.166.565.33.144.164.231.355.262.576a1.12 1.12 0 0 1-.053.639c-.298.754-.906 1.395-1.821 1.918l-.035.021c-.53.285-.929.555-1.197.807a1.066 1.066 0 0 1-.799.32 1.088 1.088 0 0 1-.794-.361 1.11 1.11 0 0 1-.349-.807z"/></g></symbol><symbol id="icon-person_02" viewBox="0 0 90 60"><g clip-rule="evenodd"><path fill="none" stroke="#444B99" stroke-width="2" stroke-linecap="round" stroke-linejoin="round" stroke-miterlimit="3" d="M39.559 38.096l2.6-18.449-4.95 2.699-3.45 6m5.8 10.15l-3.8 6.15m15.349-4.349l-3.95-7.201-5.5-2.199m.5-11.251h5.6l3.951-4.4"/><path fill-rule="evenodd" fill="#444B99" d="M39.208 13.896c.6-.6 1.317-.9 2.15-.9.4 0 .75.084 1.05.25.333.133.65.35.95.65.5.5.783 1.1.85 1.799v.25c0 .834-.283 1.551-.85 2.15-.533.533-1.2.801-2 .801-.833 0-1.55-.268-2.15-.801a3.02 3.02 0 0 1-.85-2.15c0-.799.284-1.482.85-2.049z"/></g></symbol><symbol id="icon-person_03" viewBox="0 0 90 60"><g clip-rule="evenodd"><path fill="none" stroke="#444B99" stroke-width="2" stroke-linecap="round" stroke-linejoin="round" stroke-miterlimit="3" d="M47.008 25.795l-5.8-1.898-3.35-5.451.8 6.85.5 3.602 2.65 8.949 2.25 8.85m-4.9-17.801l-4.2 17.398M34.407 29.043l-1.524-6.125 4.542-5.133"/><path fill-rule="evenodd" fill="#444B99" d="M40.179 13.717a3.084 3.084 0 0 1-.458 2.273c-.474.568-1.102.943-1.883 1.123-.814.176-1.556.041-2.227-.406-.637-.445-1.045-1.074-1.223-1.889-.146-.779-.011-1.521.405-2.229.51-.6 1.171-.986 1.986-1.164.375-.107.712-.152 1.011-.131.266.018.494.102.685.248l.046.053c.033.002.097.041.192.113l.054-.045c.062.07.107.141.136.209.576.375.974.887 1.196 1.537a.55.55 0 0 0 .08.308z"/><path fill="none" stroke="#5A4B38" stroke-linejoin="round" stroke-miterlimit="3" d="M31.458 30.646l21.3-7.8"/><path fill-rule="evenodd" fill="#5A4B38" d="M51.623 30.467c.01-5.654-1.604-10.201-4.844-13.637l.268-.555c4.597 2.613 6.33 7.357 5.203 14.236l-.627-.044z"/></g></symbol><symbol id="icon-person_04" viewBox="0 0 90 60"><path fill="#4E569D" d="M48.3 13.7c.6.6.9 1.3.9 2.1s-.3 1.5-.9 2.1c-.6.6-1.3.9-2.1.9s-1.5-.3-2.1-.9c-.6-.6-.9-1.3-.9-2.1s.3-1.5.9-2.1c.6-.6 1.3-.9 2.1-.9s1.5.3 2.1.9z"/><path fill="#4E569D" d="M47.4 16.5c.2.2.3.5.3.8-.1 2-.4 4.5-.9 7.4-.3 1.6-.6 4.1-1.2 7.4 0 .3-.2.5-.5.6-.3.1-.6.2-.8.1-.3-.1-.5-.3-.6-.5-.1-.2-.2-.5-.1-.8.5-3.1.9-5.5 1.1-7.1.4-2.8.7-5.1.8-7.1 0-.3.1-.6.3-.8.2-.2.5-.3.8-.3.3-.1.6 0 .8.3z"/><path fill="#4E569D" d="M51.8 35.2s.6.6 1.8 1.6c.2.2.3.5.3.8 0 .3-.1.6-.4.7-.2.2-.5.3-.8.3-.3 0-.5-.1-.7-.4-.7-.7-1.2-1.2-1.6-1.5-.6-.5-1.1-1-1.6-1.4-.7-.6-1.3-1-1.8-1.3l-.7-.4c-.1 0-.1-.1-.1-.1-.3-.1-.6-.2-.8-.3-.3-.1-.5-.3-.6-.6-.1-.3-.1-.5-.1-.8.1-.3.3-.5.6-.6.3-.1.5-.1.8-.1.7.2 1.4.6 2.1 1 .6.4 1.2.8 1.9 1.4.4.6 1 1.1 1.7 1.7z"/><path fill="#4E569D" d="M52.1 36.9c.3-.2.5-.2.8-.2.3.1.5.2.7.4.1.2.2.5.2.8-.1.9-.1 2.3 0 3.9.1 1.9.1 3.2.1 4 0 .3-.1.6-.3.8-.2.2-.4.4-.7.4-.3 0-.5-.1-.8-.2-.3-.2-.4-.4-.4-.7 0-.7 0-2.2-.1-4.2-.1-1.8-.1-3.2 0-4.2.1-.4.2-.7.5-.8zM43.4 32.1c.1-.3.2-.5.5-.6.3-.1.5-.2.8-.1.3.1.5.2.6.5.1.2.2.5.1.8-.4 1.9-.5 4.1-.5 6.6 0 .3-.1.6-.3.8-.2.2-.4.3-.7.3-.3 0-.5-.1-.7-.3-.2-.2-.3-.4-.3-.8-.1-2.6.1-5 .5-7.2z"/><path fill="#4E569D" d="M41.9 40.7c.4-.6.6-1.2.8-1.7.1-.3.3-.5.5-.6.3-.2.5-.2.8-.1.3.1.5.2.7.5.2.3.2.5.1.8-.4 1.1-1 2.3-2 3.7-.3.4-.7 1-1.2 1.8-.5.7-.8 1.3-1.1 1.8-.1.3-.4.4-.7.5-.3.1-.6 0-.8-.1-.3-.2-.4-.4-.5-.7-.1-.3 0-.6.1-.8.3-.5.6-1 1.1-1.7.5-.7.9-1.3 1.1-1.7.5-.6.9-1.2 1.1-1.7zM45.9 18.9c.3-.1.5-.1.8.1.3.2.4.4.5.6.1.3 0 .6-.1.8-.1.2-.4.4-.6.5l-.5.3h-.1c-.3.1-.6.2-.7.3-.5.2-.9.5-1.3.7-.3.2-.5.3-.6.4l-.6.4c-.4.3-.8.6-1 .9l-.5.5-.4.4c-.3.4-.6.8-.8 1.2-.2.3-.3.5-.3.7l-.1.1v.1c-.1.1-.1.3-.1.4-.2.5-.3 1-.4 1.5-.1.3-.2.5-.5.6-.3.1-.5.2-.8.1-.3-.1-.5-.2-.6-.5-.1-.3-.2-.5-.1-.8.3-1.1.6-2.2 1.2-3.1.5-1 1.2-1.9 2-2.7.8-.8 1.7-1.4 2.7-2 .7-.6 1.8-1.1 2.9-1.5z"/><path fill="#4E569D" d="M49.4 19.3c1.2 0 2.3.2 3.1.5.3.1.5.3.6.5.2.3.2.5.1.8-.1.3-.2.5-.5.6-.3.2-.5.2-.8.1-.7-.3-1.7-.4-3-.4h-1.5c-.6 0-1.1-.1-1.5-.1-.3 0-.5-.2-.6-.5-.1-.3-.2-.6-.1-.8.1-.3.3-.5.5-.6.2-.1.5-.2.8-.1.4.1.8.1 1.4.1.3-.1.8-.1 1.5-.1z"/><path fill="#4E569D" d="M57.3 15.3c.2.2.3.5.3.8 0 .3-.1.6-.3.8-.5.4-.8.8-1.1 1-.4.4-.7.7-1 1.1-.2.2-.3.4-.4.5-.1.2-.3.3-.4.5-.2.2-.3.5-.4.7 0 .1-.1.2-.2.3v.2c-.1.3-.3.5-.5.6-.2.2-.5.2-.8.1-.3-.1-.5-.2-.7-.5-.2-.3-.2-.6-.1-.8.4-1 1-1.9 1.8-2.8.5-.6 1.3-1.4 2.4-2.4.2-.2.5-.3.8-.3.1-.1.4 0 .6.2z"/><path fill="#4D569D" d="M35.7 29.8c.5.2.8.5 1 .9.5.9.4 2.4-.3 4.7-.7 2.3-1.5 3.9-2.5 4.8-.8.7-1.7 1-2.9.7-1.2-.3-2-.9-2.4-2-.5-1.3-.4-3 .3-5.3.7-2.2 1.5-3.6 2.4-4.1.4-.2.8-.3 1.4-.3.3 0 .8.1 1.5.3.7 0 1.2.1 1.5.3z"/><path fill="#4D569D" d="M39.9 30.2c0 .2-.1.6-.2 1.2-.4 2.1-1.3 3.8-2.6 5.1-.6.6-1.3 1-2 1.3-.7.3-1.4.4-2.1.4-.2 0-.3-.1-.2-.4 0-.2.1-.4.3-.3 1.4.1 2.7-.5 3.9-1.7 1.2-1.2 2-2.7 2.3-4.6.1-.7.2-1.1.2-1.1 0-.4-.1-.7-.3-.9-.3-.2-.5-.1-.8.1-.1.1-.3.4-.6.9-.4.6-.7 1-1.1 1.4-.4.3-.9.6-1.4.7-.2 0-.3-.1-.2-.3 0-.2.1-.4.3-.4.4-.1.8-.3 1.2-.6.3-.3.6-.7.9-1.2.2-.4.4-.6.5-.8.2-.3.5-.5.7-.5.2-.1.5 0 .8.1.3.1.4.4.5.6-.1.1-.1.5-.1 1z"/><path fill="#4D569D" d="M37.1 27.9c.3.2.5.5.5.9 0 1.1-.3 2-1.1 3-.7.8-1.5 1.3-2.4 1.6-.2.1-.3 0-.3-.3 0-.2.1-.4.2-.4.7-.2 1.2-.5 1.7-1 .6-.5 1-1.1 1.2-1.9.1-.4.1-.8.1-1.1-.1-.4-.3-.5-.7-.4-.3.1-.6.3-.9.6-.2.3-.4.7-.5 1.1-.1.2-.2.3-.4.3s-.2-.2-.2-.4c.1-.6.4-1 .7-1.4.3-.5.7-.7 1.2-.8.3-.1.6 0 .9.2z"/></symbol><symbol id="icon-person_05" viewBox="0 0 90 60"><path fill="none" stroke="#5A4B38" stroke-linejoin="round" stroke-miterlimit="3" d="M45.839 25.543L31.315 42.958"/><path fill="#5A4B38" d="M28.544 35.828c2.823 4.9 6.498 8.026 11.022 9.377l.046.614c-5.287.041-9.165-3.197-11.634-9.715l.566-.276z"/><g fill="#4E569D"><path d="M53.701 15.247a3.174 3.174 0 0 1-.948 2.303 3.06 3.06 0 0 1-2.268.946 3.063 3.063 0 0 1-2.264-.965c-.622-.639-.932-1.41-.928-2.311s.319-1.668.947-2.303c.63-.634 1.388-.95 2.271-.946.885.004 1.638.326 2.261.965.624.639.933 1.41.929 2.311z"/><path d="M52.053 14.175c.124.274.15.553.081.838-.722 2.99-1.203 5.256-1.445 6.799-.398 2.546-.51 4.868-.334 6.966.024.291-.062.55-.257.778-.187.218-.395.327-.624.326-.247-.001-.451-.111-.611-.331-.147-.203-.234-.462-.26-.78-.184-2.174-.067-4.599.35-7.272.258-1.658.757-4.018 1.496-7.079.071-.292.211-.514.418-.663a.68.68 0 0 1 .663-.108c.227.082.402.257.523.526z"/><path d="M48.881 28.289c.146-.262.348-.427.604-.496a.826.826 0 0 1 .731.146c.224.161.368.39.436.687.51 2.279.957 4.777 1.344 7.494.307 2.151.606 4.678.899 7.58.033.317-.011.596-.133.836a.893.893 0 0 1-1.336.348.902.902 0 0 1-.428-.686 187.295 187.295 0 0 0-.899-7.584 97.78 97.78 0 0 0-1.345-7.494 1.132 1.132 0 0 1 .127-.831zM44.699 34.518c.123.252.161.53.115.833a72.567 72.567 0 0 0-.756 8.614 1.407 1.407 0 0 1-.244.793c-.161.228-.367.349-.62.362-.238.013-.455-.086-.651-.294a1.044 1.044 0 0 1-.288-.765c.095-3.23.362-6.298.803-9.204.044-.294.178-.523.401-.69.219-.162.446-.21.681-.145.243.069.429.234.559.496z"/><path d="M48.65 27.453c.255-.023.479.07.674.28.186.2.287.458.305.775.018.329-.065.593-.249.792a36.097 36.097 0 0 0-2.499 3.018 29.542 29.542 0 0 0-2.126 3.313c-.144.263-.33.44-.56.531a.748.748 0 0 1-.713-.071c-.221-.137-.375-.355-.46-.656-.089-.311-.066-.591.067-.839a34.124 34.124 0 0 1 4.904-6.795c.197-.212.417-.328.657-.348zM53.407 21.254c-.02.247-.088.474-.204.68a1.7 1.7 0 0 1-.511.563c-.354.259-.79.484-1.31.676l-.626.222-.291.098-.311.111c-.45.168-.944.394-1.483.679a37.505 37.505 0 0 0-1.765 1.015c-.076.048-.19.126-.344.233a8.983 8.983 0 0 0-.688.526 6.061 6.061 0 0 0-.308.276c-.034.033-.057.055-.066.066l.042-.05-.129.145c-.162.196-.304.4-.426.614-.133.237-.377.389-.732.453a1.457 1.457 0 0 1-.923-.106c-.292-.14-.475-.341-.546-.604-.066-.243-.027-.494.116-.753.447-.799 1.235-1.56 2.365-2.283.413-.265.924-.558 1.536-.88.701-.359 1.217-.625 1.548-.797a5.29 5.29 0 0 1 .546-.236c.113-.043.303-.11.569-.199l.28-.098-.04.013.386-.134c.205-.074.381-.144.529-.209l.218-.105c-.22-.195-.33-.426-.331-.693.001-.276.119-.509.354-.7.231-.188.518-.283.856-.284.344.001.628.098.854.291.599.515.877 1.005.835 1.47z"/></g></symbol><symbol id="icon-person_06" viewBox="0 0 90 60"><path fill="#4E569D" d="M46.1 17.2c0 .8-.3 1.5-.8 2-.6.6-1.2.8-2 .8s-1.5-.3-2-.8c-.6-.6-.8-1.2-.8-2s.3-1.5.8-2c.6-.6 1.2-.8 2-.8s1.5.3 2 .8c.6.5.8 1.2.8 2z"/><path fill="#4E569D" d="M42.2 18c0-.3.1-.5.2-.7.2-.2.4-.3.6-.3.3 0 .5 0 .7.2.2.2.3.4.3.6 0 .6.1 1.8.2 3.6.1 1.5.1 2.7.1 3.6v3.4c0 1.3-.1 2.4-.3 3.4 0 .3-.2.5-.4.6-.2.1-.4.2-.7.1-.3 0-.5-.2-.6-.3-.2-.2-.2-.4-.2-.7.1-.5.1-1 .2-1.5 0-.3 0-.5.1-.8v-.7-3.6c0-.8-.1-2-.1-3.5 0-1.6 0-2.8-.1-3.4z"/><path fill="#4E569D" d="M42.5 31c-.1-.2-.1-.5.1-.7.1-.2.3-.4.6-.5.3-.1.5 0 .7.1.2.1.4.3.5.6l6.2 14.7c.1.2.1.5-.1.7-.1.2-.3.4-.6.5-.3.1-.5 0-.7-.1-.2-.1-.3-.3-.5-.6L42.5 31z"/><path fill="#4E569D" d="M42.2 31.6c0-.2.2-.4.4-.6.2-.1.5-.2.7-.1.3.1.5.2.6.5.1.2.1.5.1.7-.2 1.1-.4 2.3-.7 3.6-.1.6-.4 1.7-.9 3.6-.1.3-.2.4-.5.6-.2.1-.5.2-.7.1-.3-.1-.4-.2-.6-.5-.1-.2-.2-.5-.1-.7.5-1.8.8-3 .9-3.6.4-1.4.7-2.6.8-3.6z"/><path fill="#4E569D" d="M40.5 38.8c.2-.2.4-.4.6-.4.2-.1.5 0 .7.1.2.1.4.3.4.6.1.3.1.5-.1.7-1.5 1.9-2.2 3-2.4 3.1-.9 1.2-1.7 2.2-2.4 3.1-.2.2-.4.3-.7.3-.3 0-.5-.1-.7-.3-.2-.2-.3-.4-.3-.7 0-.2.1-.5.3-.7l.6-.8s0-.1.1-.1l.5-.6c.1-.2.6-.8 1.5-2l1.9-2.3zM42.4 20.8c.2-.2.4-.2.7-.2.3.1.5.2.6.4.2.2.2.5.2.7 0 .3-.2.5-.4.6-.4.3-1 .7-1.6 1.2-.4.3-.9.6-1.7 1.1-1.3.9-2.4 1.7-3.1 2.5-.2.2-.4.3-.7.3-.3 0-.5 0-.7-.2-.2-.2-.3-.4-.3-.7 0-.3 0-.5.2-.7.8-.8 1.9-1.7 3.3-2.7 1.6-.9 2.7-1.7 3.5-2.3z"/><path fill="#4E569D" d="M40.5 28.5c0 .3-.1.5-.2.7-.2.2-.4.3-.7.3-.2 0-.5-.1-.7-.2l-3-2c-.2-.1-.3-.4-.3-.6 0-.3.1-.5.2-.7.2-.2.4-.3.6-.3.2 0 .5.1.7.2l3 2c.2.1.3.3.4.6zM43.6 25.4c.3 0 .5.1.7.2.2.2.3.4.3.7v4.6c0 .3-.1.5-.3.7-.2.2-.4.2-.7.2-.3 0-.5-.1-.7-.2-.2-.2-.3-.4-.3-.7v-2.3-2.3c0-.3.1-.5.3-.7.2-.1.4-.2.7-.2z"/><path fill="#4E569D" d="M47.6 25.2s-.1-.1-.2-.1c-.1-.1-.1-.1-.2-.1-.4-.2-.9-.5-1.4-.7-.7-.3-1.4-.6-2.1-.8-.2-.1-.4-.3-.5-.5-.1-.3-.1-.5 0-.7.1-.2.3-.4.5-.5.2-.1.5-.1.7 0h.1c1.1.4 2 .8 2.7 1.1.3.2.6.3.8.4.3.2.5.3.7.5.4.4.7.9.8 1.5.1.5.1 1.1 0 1.7-.1.5-.2 1-.4 1.7-.2.8-.5 1.5-.7 2.1-.1.2-.3.4-.5.5-.3.1-.5.1-.7 0-.2-.1-.4-.3-.5-.5-.1-.2-.1-.5 0-.7.1-.2.1-.3.2-.6.1-.2.1-.4.2-.6l.1-.2.1-.4c.2-.7.3-1.2.4-1.7V26v-.3-.2c-.1-.2-.1-.3-.1-.3z"/></symbol><symbol id="icon-person_07" viewBox="0 0 90 60"><path fill="#4E569D" d="M44.9 13.6c.6.6.9 1.3.9 2.1s-.3 1.5-.9 2.1-1.3.9-2.1.9-1.5-.3-2.1-.9c-.6-.6-.9-1.3-.9-2.1s.3-1.5.9-2.1c.6-.6 1.3-.9 2.1-.9s1.5.3 2.1.9z"/><path fill="#4E569D" d="M42.4 15.3c.3 0 .6.1.8.3.2.2.3.5.3.8 0 1.1 0 2.2-.1 3.5-.1.9-.2 2-.4 3.5-.2 1.7-.4 2.8-.4 3.5-.1 1.3-.2 2.5-.2 3.5 0 .3-.1.6-.3.8-.2.2-.5.3-.8.3s-.5-.1-.7-.3c-.2-.2-.3-.5-.3-.8 0-1 .1-2.2.2-3.5.1-.7.2-1.8.4-3.5.2-1.5.3-2.7.4-3.5.1-1.3.2-2.5.1-3.5 0-.3.1-.5.3-.8.1-.2.4-.3.7-.3z"/><path fill="#4E569D" d="M42.2 29.6c.3-.1.5-.1.8-.2.2-.1.7-.3 1.6-.6.6-.2 1.2-.4 1.8-.5.6-.1 1.2-.2 1.8-.2.3 0 .6.1.8.3.2.2.3.5.3.8s-.1.6-.3.8c-.2.2-.5.3-.8.3h-.7-.1c-.3.1-.6.1-.8.2-.5.1-1 .3-1.6.5-.7.3-1.3.5-1.7.6-.6.2-1.2.3-1.8.4-.3 0-.5-.1-.8-.3-.2-.2-.3-.5-.3-.8 0-.3.1-.6.3-.8.2-.2.5-.3.8-.3H41.8c.2-.1.3-.2.4-.2z"/><path fill="#4E569D" d="M48.4 28.2c.3 0 .5.1.7.3.2.2.2.5.3.8.1.8.1 1.9 0 3.3-.1 1.7-.2 2.8-.2 3.3 0 .3-.1.6-.3.8-.2.2-.4.3-.6.3-.3 0-.5-.1-.6-.3-.2-.2-.3-.5-.3-.8 0-.5.1-1.5.2-3.3.1-1.3.1-2.4 0-3.3 0-.3.1-.5.3-.8 0-.2.2-.3.5-.3zM40.4 29.5c.2-.2.4-.3.7-.3.3 0 .5.1.7.2.2.2.3.4.3.6-.1 1-.2 2.4-.5 4.1-.3 2-.5 3.4-.6 4.1 0 .3-.1.5-.3.6-.2.2-.4.3-.7.3-.3 0-.5-.1-.7-.2-.2-.2-.3-.4-.3-.6.1-.7.3-2.1.6-4.1.3-1.7.4-3.1.5-4.1.1-.2.1-.4.3-.6z"/><path fill="#4E569D" d="M39.2 38.2c.1-.4.3-.6.6-.7.2-.1.4-.1.7 0 .2.1.4.3.4.6.1.3.1.6-.1 1-.4 1-.9 2.2-1.6 3.7-.8 1.8-1.4 3.1-1.6 3.7-.1.3-.3.5-.5.7-.2.1-.5.2-.7 0-.2-.1-.4-.3-.4-.6-.1-.3-.1-.6.1-.9.3-.6.8-1.8 1.6-3.7.6-1.6 1.1-2.9 1.5-3.8zM45.3 22.7c.3.1.7.2 1.2.4.6.2 1 .3 1.2.4.3.1.5.3.7.5.2.3.2.5.1.8-.1.3-.2.5-.5.7-.3.2-.5.2-.8.1-.6-.2-1-.3-1.3-.4-.5-.2-1-.3-1.3-.5-1-.4-1.9-.9-2.6-1.6-.2-.2-.3-.4-.3-.8 0-.3.1-.6.3-.8.2-.2.5-.3.8-.3.3 0 .5.1.8.3.3.3.6.5 1 .7 0 .2.3.4.7.5z"/><path fill="#4E569D" d="M48.5 21.8c1.1-.9 1.8-1.5 2.1-1.7.2-.2.5-.3.8-.3.3 0 .6.1.8.3.2.2.3.5.3.8 0 .3-.1.6-.3.8-.3.2-.9.8-2.1 1.7-.8.7-1.5 1.3-2 1.8-.2.2-.5.3-.8.3-.3 0-.6-.1-.8-.3-.2-.2-.3-.5-.3-.8 0-.3.1-.6.3-.8.5-.5 1.2-1.1 2-1.8zM42.7 21.8c.2.3.2.5.1.8-.1.3-.2.5-.5.7-1.4.9-2.6 1.9-3.9 3-1.2 1.2-2.3 2.4-3.2 3.7-.2.3-.4.4-.7.5-.3.1-.6 0-.8-.1-.2-.1-.4-.4-.5-.7-.1-.3-.1-.6.1-.8 1-1.5 2.2-2.9 3.5-4.1 1.3-1.3 2.7-2.4 4.3-3.4.2-.2.5-.2.8-.1.5 0 .7.2.8.5z"/></symbol><symbol id="icon-person_08" viewBox="0 0 90 60"><path fill-rule="evenodd" clip-rule="evenodd" fill="#4D569D" d="M48.043 15.559h.047v-.047c0 .03-.016.046-.047.047zm1.675-2.595c.292.132.536.289.731.472.063.063.204.299.424.708l.118.188c-.016.104-.04.215-.069.33h.047c.22.755.173 1.479-.143 2.17-.377.787-.99 1.384-1.84 1.793-.85.44-1.699.55-2.547.33-.881-.283-1.526-.802-1.936-1.557-.44-.724-.519-1.526-.236-2.406a2.65 2.65 0 0 1 .803-1.321c.043-.069.09-.14.141-.213.465-.305.749-.47.849-.495.334-.076.587-.178.756-.307a7.753 7.753 0 0 1 1.085-.071c.542.001 1.148.127 1.817.379zm-1.982 2.406l.023.047v-.047h-.023zM38.572 30.931L30.09 45.409a1.285 1.285 0 0 1-.664.581 1.08 1.08 0 0 1-.877-.049 1.163 1.163 0 0 1-.587-.668c-.12-.32-.102-.611.055-.874l8.551-14.61c.104-.179.243-.392.416-.637l.442-.617 5.933-8.402c.178-.25.44-.383.787-.399.33-.016.61.075.841.272.246.211.377.474.394.788.01.293-.079.573-.267.84l-6.275 8.897-.234.354-.033.046z"/><path fill-rule="evenodd" clip-rule="evenodd" fill="#4D569D" d="M37.625 28.951c-.019-.334.056-.616.226-.848.186-.254.417-.39.695-.406.25-.015.5.067.752.245l7.184 5.102c.264.189.389.499.375.928-.014.43-.156.73-.428.901l-7.112 4.523c-.257.162-.513.228-.77.195-.276-.04-.499-.192-.668-.457-.157-.247-.216-.536-.175-.868.038-.348.175-.597.412-.747l5.722-3.64-5.844-4.151c-.227-.161-.35-.42-.369-.777zM43.612 19.976c.352.025.623.165.813.42.171.23.248.5.228.811a1.183 1.183 0 0 1-.335.775c-.223.223-.51.321-.862.297a68.459 68.459 0 0 1-3.413-.35c-.545-.068-1.409-.185-2.589-.349l-2.639 6.555a1.228 1.228 0 0 1-.583.66 1.086 1.086 0 0 1-.879.066 1.127 1.127 0 0 1-.663-.586c-.155-.301-.175-.594-.06-.878l2.995-7.451c.1-.246.253-.443.46-.59a.953.953 0 0 1 .714-.192c1.755.245 2.889.399 3.402.463 1.281.162 2.419.278 3.411.349z"/><path fill-rule="evenodd" clip-rule="evenodd" fill="#4D569D" d="M55.297 19.942c.313.046.563.2.752.461.178.25.242.538.195.864-.05.337-.204.586-.463.748l-5.64 3.524c-.464.292-.933.276-1.406-.048l-5.207-3.525c-.251-.173-.388-.433-.411-.779-.023-.33.062-.612.254-.848.207-.25.467-.386.781-.406a1.33 1.33 0 0 1 .844.245l4.496 3.047 4.941-3.087c.274-.174.562-.239.864-.196z"/></symbol><symbol id="icon-person_09" viewBox="0 0 90 60"><g clip-rule="evenodd"><path fill="none" stroke="#444B99" stroke-width="2" stroke-linecap="round" stroke-linejoin="round" stroke-miterlimit="3" d="M-287.606 259.615l-5.8-1.898-3.35-5.451.8 6.85.5 3.602 2.65 8.949 2.25 8.85m-4.9-17.8l-4.2 17.398M-300.207 262.863l-1.524-6.125 4.542-5.133"/><path fill-rule="evenodd" fill="#444B99" d="M-294.436 247.537a3.084 3.084 0 0 1-.458 2.273c-.474.568-1.102.943-1.883 1.123-.814.176-1.556.041-2.227-.406-.637-.445-1.045-1.074-1.223-1.889-.146-.779-.011-1.521.405-2.229.51-.6 1.171-.986 1.986-1.164.375-.107.712-.152 1.011-.131.266.018.494.102.685.248l.046.053c.033.002.097.041.192.113l.054-.045c.062.07.107.141.136.209.576.375.974.887 1.196 1.537a.564.564 0 0 0 .08.308z"/><path fill="none" stroke="#5A4B38" stroke-linejoin="round" stroke-miterlimit="3" d="M-303.156 264.467l21.3-7.801"/><path fill-rule="evenodd" fill="#5A4B38" d="M-282.992 264.287c.011-5.654-1.604-10.201-4.843-13.637l.268-.555c4.596 2.613 6.33 7.357 5.203 14.236l-.628-.044z"/><g><path fill="none" stroke="#444B99" stroke-width="2" stroke-linecap="round" stroke-linejoin="round" stroke-miterlimit="3" d="M357.245-181.934l-4.951 7.6-5.15 2.5-1 7.35 3.051 8.65 2.199 6.05.9 2.75m-16.5-34.799l4.75 6.35 6.6 3.65v-3.6m-1 10.949l-2.5 14.7-.5 2.95"/><path fill-rule="evenodd" fill="#444B99" d="M347.896-182.034c.365.133.699.35 1 .65.5.5.783 1.1.85 1.8V-178.884c-.334 1.033-.783 1.717-1.35 2.05l-.051.05c-.434.267-.916.4-1.449.4h-.102c-.832 0-1.533-.267-2.1-.8-.6-.6-.9-1.317-.9-2.15 0-.8.301-1.483.9-2.05.566-.6 1.268-.9 2.1-.9.4 0 .768.083 1.102.25z"/><path fill-rule="evenodd" fill="#4A3541" d="M359.944-196.634l-.8 10.1-3.35 39.85h-.549l4.149-50.2.55.05z"/><path fill-rule="evenodd" fill="#E95556" d="M370.495-183.834l.799-7.1c4.1.933 5.883 2.95 5.35 6.05-.398-.7-1.217-.9-2.449-.6 1.1 1.6 1.232 3.4.4 5.4-1.533-2.667-4.633-3.667-9.301-3 2.367-.633 4.1-.883 5.201-.75z"/><path fill-rule="evenodd" fill="#BE4546" d="M370.495-183.834c-1.102-.133-2.834.117-5.201.75l.65-4.3c1.901.433 3.416 1.617 4.551 3.55z"/><path fill-rule="evenodd" fill="#F26822" d="M359.144-186.534c1.334-3.233 1.602-6.6.801-10.1 5.066-1.133 8.916.267 11.551 4.2l-.201 1.5-.799 7.1c-1.135-1.933-2.65-3.117-4.551-3.55-1.901-.467-4.167-.183-6.801.85z"/></g><path fill-rule="evenodd" fill="#444B99" d="M382.944-146.234c-4.699-4.333-6.85-8.917-6.449-13.75-3.301 4.167-4.9 8.75-4.801 13.75h-13.1c7.832-8.5 14.133-17.783 18.9-27.85 3.566 9.7 9.932 18.983 19.1 27.85h-13.65zm26.85 0h-11c-9.434-8.867-16.049-18.15-19.85-27.85 4.301 5.033 8.232 7.667 11.801 7.9 3.432 6.1 9.783 12.75 19.049 19.95z"/><g><path fill-rule="evenodd" fill="#444B99" d="M48.444 12.266l.05.05c.033 0 .067.033.101.1h.049l.201.15c.5.533.783 1.133.85 1.8v.3c0 .833-.283 1.533-.85 2.1-.601.567-1.301.85-2.101.85-.833 0-1.533-.283-2.101-.85-.6-.566-.899-1.267-.899-2.1 0-.8.3-1.5.899-2.1.567-.567 1.268-.85 2.101-.85.399 0 .767.067 1.101.2.232.067.432.184.599.35z"/><path fill="none" stroke="#444B99" stroke-width="2" stroke-linecap="round" stroke-linejoin="round" stroke-miterlimit="3" d="M48.444 12.266l.05.05c.033 0 .067.033.101.1h.049l.201.15 5.799 4.45-8 1.15-.75 10.599 3.25 8.701 2.9 8.799m-6.15-17.499l-3 17.701m-4.799-17.851l8.549-10.45"/><path fill="none" stroke="#5A4B38" stroke-linejoin="round" stroke-miterlimit="3" d="M39.644 24.766l-6.95 21.6"/><path fill-rule="evenodd" fill="#5A4B38" d="M27.241 39.553c4.451 3.483 9.025 5.004 13.723 4.563l.273.551c-4.883 2.018-9.688.469-14.416-4.646l.42-.468z"/></g><g><path fill-rule="evenodd" fill="#444B99" d="M-409.156 330.566c-.633.6-1.333.9-2.1.9a2.776 2.776 0 0 1-2.1-.9c-.633-.533-.95-1.234-.95-2.1 0-.801.317-1.484.95-2.051.566-.566 1.267-.85 2.1-.85.767 0 1.466.283 2.1.85.567.566.85 1.25.85 2.051 0 .866-.283 1.567-.85 2.1z"/><path fill="none" stroke="#444B99" stroke-width="2" stroke-linecap="round" stroke-linejoin="round" stroke-miterlimit="3" d="M-402.206 337.266l-4.5.35-4.05-5.699-.2 3.301-.4 6.25 5.9 7.898 1.8 9.352m-13.15-.353l4.5-7.549.95-9.35"/><path fill="none" stroke="#444B99" stroke-width="2" stroke-linecap="round" stroke-linejoin="round" stroke-miterlimit="3" d="M-404.073 341.99l-6.257-2.297-.631-6.658"/><g fill-rule="evenodd"><path fill="#444B99" d="M-418.456 332.217c.3-.301.85-.65 1.65-1.051.767-.434 1.267-.301 1.5.4 1.467-.334 2.483.482 3.05 2.449.2.834.267 1.934.2 3.301-.033 2.766-.05 4.617-.05 5.549 0 .934-.283 1.617-.85 2.051-.167.1-.717.283-1.65.551-.733.199-1.15.299-1.25.299-.167-.033-.367-.199-.6-.5-.567.301-1 .367-1.3.201-.467-.234-.784-.701-.95-1.4l-.7-2.6c-.433-1.701-.7-2.934-.8-3.701-.133-.299.083-.799.65-1.5.167-.166.333-.299.5-.4.067-.766.283-1.416.65-1.949-.367-.166-.55-.334-.55-.5-.133-.401.033-.802.5-1.2zm1 0c-.167.033-.367.148-.6.35h-.1c.1.434.517.732 1.25.9a5.723 5.723 0 0 0 1.2-1 3.616 3.616 0 0 0-.4-.65l-.3.1c-.533.132-.884.233-1.05.3z"/><path fill="#FFF" d="M-416.127 343.711c-2.832-3.406-3.654-5.836-2.468-7.289.229 1.912 1.052 4.342 2.468 7.289z"/></g><path fill-rule="evenodd" fill="#444B99" d="M-414.715 332.232c.011-.318.134-.594.369-.82.278-.273.662-.559 1.149-.852a1.19 1.19 0 0 1 .058-.549c.105-.293.301-.508.588-.645.397-.201.833-.391 1.312-.568a1.12 1.12 0 0 1 .689-.023l.056.014c.221.057.409.166.565.33.144.164.231.355.262.576a1.12 1.12 0 0 1-.053.639c-.298.754-.906 1.395-1.821 1.918l-.035.021c-.53.285-.929.555-1.197.807a1.066 1.066 0 0 1-.799.32 1.088 1.088 0 0 1-.794-.361 1.11 1.11 0 0 1-.349-.807z"/></g></g></symbol><symbol id="icon-person_10" viewBox="0 0 90 60"><path fill="#4E569D" d="M52.5 14.8s0-.1 0 0c0-.1 0-.1 0 0zm3.1-1.5c0 .1 0 .1 0 0 .2.6.2 1.1.1 1.6-.2.7-.5 1.4-1.2 2-.1.3-.3.4-.5.6-.6.3-1.2.5-1.8.6-.7.1-1.3.1-1.9 0-.6-.2-1.1-.5-1.5-1-.4-.5-.5-1.1-.5-1.7 0-.3.1-.6.2-.9.1-.2.2-.5.3-.7l.2-.4c.1-.1.1-.2.1-.2.1-.2.3-.4.5-.6.3-.3.7-.6 1.1-.9.4-.3.8-.4 1.3-.5.1 0 .3 0 .4-.1h.2c.5-.1.9 0 1.3.1.6.2 1 .6 1.3 1 .2.4.3.8.4 1.1zm-4.7 2.3z"/><path fill="#4E569D" d="M50.1 16.7c0-.3.2-.6.4-.9.2-.2.5-.4.9-.3.3 0 .6.1.9.4.2.3.4.5.3.9-.1 1.1-.4 2.4-1 3.8-.3.8-.8 2-1.6 3.6-.5 1.1-.9 2.4-1.4 4-.3.9-.7 2.2-1.2 4-.1.3-.3.6-.6.7-.3.2-.6.2-.9.1-.3-.1-.6-.3-.7-.6-.2-.3-.2-.6-.1-.9.5-1.8 1-3.1 1.2-4 .5-1.5 1-2.9 1.4-4 .1-.3.4-.9.7-1.7.3-.7.6-1.3.7-1.7.3-.8.5-1.4.6-1.9.1-.3.2-.6.2-.8.1-.1.2-.4.2-.7z"/><path fill="#4E569D" d="M35 30.4c.1-.2.3-.3.5-.4.2-.1.4-.2.6-.1l9.9 1.3c.3 0 .6.2.9.4.2.2.4.5.3.9 0 .3-.1.6-.4.9-.3.3-.6.4-.9.3l-9.2-1.2-6.9 11.1c-.2.3-.5.5-.8.6-.3 0-.6 0-.9-.2-.3-.2-.5-.4-.6-.7-.1-.3-.1-.6.1-1L35 30.4z"/><path fill="#4E569D" d="M38.2 22.6c.1-.1.5.1 1.3.7.7.5 1.5 1.2 2.4 2 1 .9 1.8 1.7 2.6 2.5.9.9 1.5 1.6 1.8 2.2.1.2.2.5.1.8-.1.3-.2.5-.5.6-.2.1-.5.2-.7.1-.2-.1-.4-.3-.6-.5l-6.2-5.6c-.5.4-1.9 1.7-4 3.9s-3.4 3.5-4 3.9c-.3.2-.7.3-1.2.4-.6.1-.9 0-1.1-.2-.1-.2-.1-.6.2-1 .2-.3.4-.6.7-.8.4-.3 1.1-.9 1.9-1.7.5-.5 1.4-1.4 2.6-2.7 2.5-2.7 4.1-4.2 4.7-4.6zM56.4 32.4c.1.3.1.6-.1.9-.2.3-.4.5-.8.6-.3.1-.6 0-.9-.2-.3-.2-.4-.4-.6-.8l-4.4-12.5c-.1-.3-.1-.6.1-.9.2-.3.4-.5.8-.6.3-.1.6 0 .9.2.3.2.4.4.6.8l4.4 12.5z"/></symbol><symbol id="icon-person_11" viewBox="0 0 90 60"><path fill="#444B99" d="M47.6 14.05v.3c0 .833-.283 1.533-.85 2.1-.6.567-1.3.851-2.1.851-.833 0-1.533-.283-2.1-.851-.6-.565-.9-1.267-.9-2.1 0-.8.3-1.5.9-2.101.567-.566 1.267-.85 2.1-.85.4 0 .767.067 1.1.2.232.065.434.183.6.35l.05.051c.033 0 .066.033.1.101h.05l.2.149c.5.533.783 1.133.85 1.8z"/><path fill="none" stroke="#444B99" stroke-width="2" stroke-linecap="round" stroke-linejoin="round" stroke-miterlimit="3" d="M51.45 23.5l-6-5.449M36 28.3l8.55-10.45-.75 10.6 3.25 8.701 2.9 8.799m-4.1-19.7l5.4-2.5m-7.45 4.7l-3 17.701"/></symbol><symbol id="icon-person_12" viewBox="72.25 120.25 27.25 36"><g fill="#4E569D"><path d="M85.802 136.477c-.042.088-.106.107-.192.058-.086-.051-.108-.119-.066-.207a13.935 13.935 0 0 1 2.414-3.54c1.073-1.145 2.179-1.949 3.317-2.414.09-.038.148-.008.174.091.026.096-.005.162-.093.198-1.149.468-2.255 1.295-3.317 2.479a14.08 14.08 0 0 0-2.237 3.335z"/><path d="M93.62 125.384c.358-.398.689-.735.994-1.012.96-.873 1.682-1.182 2.165-.928.599.314.412 1.006-.559 2.074-.302.333-.689.709-1.162 1.129-.428.372-.67.588-.727.646a64.738 64.738 0 0 0-2.51 2.798c-.577.679-1.374 1.645-2.393 2.897a233.611 233.611 0 0 0-2.897 3.633l-.039.057-11.894 18.142c-.138.208-.378.356-.72.444-.348.09-.631.07-.85-.058-.176-.102-.088-.582.264-1.44.292-.715.549-1.238.771-1.57l9.913-14.978c.128-.192.317-.484.567-.877.226-.347.426-.631.601-.853a207.208 207.208 0 0 1 3.011-3.777 178.856 178.856 0 0 1 2.393-2.894 64.342 64.342 0 0 1 2.51-2.798c.056-.057.243-.269.562-.635z"/><path d="M84.284 131.94h-.004a.114.114 0 0 0 .032.03c.004.002-.002-.006-.02-.023l-.008-.007zm.887-.132l-.003-.007v.033c-.001.022.001.013.003-.026zm-1.74-3.441a2.854 2.854 0 0 1 1.51.076 3.777 3.777 0 0 1 1.451.852c.43.407.723.885.877 1.432.183.65.209 1.293.079 1.931-.142.712-.457 1.257-.945 1.635-.416.321-.913.432-1.493.33a2.799 2.799 0 0 1-.241-.054 1.54 1.54 0 0 1-1.025.14c-.454-.092-.851-.365-1.192-.82-.25-.333-.475-.774-.676-1.325-.237-.654-.347-1.258-.331-1.813.022-.691.244-1.249.665-1.675.356-.36.796-.597 1.321-.709zM96.045 122.772a2.344 2.344 0 0 0-.309 1.138.284.284 0 0 1-.096.219.314.314 0 0 1-.207.072.31.31 0 0 1-.208-.072.267.267 0 0 1-.09-.219c.01-.519.14-.997.39-1.436a3.017 3.017 0 0 1 1.039-1.065.264.264 0 0 1 .234-.033.294.294 0 0 1 .165.142.32.32 0 0 1 .042.216.28.28 0 0 1-.138.195 2.394 2.394 0 0 0-.822.843z"/><path d="M95.871 124.279a.31.31 0 0 1-.165-.145c-.042-.07-.056-.141-.042-.213a.268.268 0 0 1 .141-.192c.29-.167.543-.354.759-.562-.278.132-.498.238-.657.321a.286.286 0 0 1-.24.019.323.323 0 0 1-.168-.145.296.296 0 0 1-.039-.21.26.26 0 0 1 .144-.184c.194-.1.49-.238.889-.417.344-.168.615-.347.813-.537.106-.103.227-.115.363-.039s.182.187.138.333a2.923 2.923 0 0 1-.667 1.123 4.288 4.288 0 0 1-1.033.816.272.272 0 0 1-.236.032z"/><path d="M96.093 123.718a.305.305 0 0 1 .129-.276c.158-.116.456-.238.895-.366.396-.116.678-.258.847-.427.102-.102.225-.114.369-.039.146.078.19.188.132.331-.178.436-.515.78-1.012 1.032-.44.225-.92.341-1.441.349a.259.259 0 0 1-.216-.09.305.305 0 0 1-.072-.205.32.32 0 0 1 .072-.21.281.281 0 0 1 .216-.096l.081-.003z"/><path d="M95.796 123.139c.172-.059.319-.089.441-.091a.28.28 0 0 1 .213.087.3.3 0 0 1-.003.424.297.297 0 0 1-.21.09.269.269 0 0 0-.031.002l-.017.001-.231.066a.272.272 0 0 1-.229-.027.292.292 0 0 1-.141-.183.28.28 0 0 1 .03-.226.31.31 0 0 1 .178-.143z"/><path d="M96.084 124.153c.048-.127.139-.188.273-.184.126.004.314.023.564.057.126.011.241.011.344-.001l.001-.008c.028-.158.04-.267.036-.327a.829.829 0 0 0-.144-.369 12.22 12.22 0 0 0-.222-.342c-.064-.12-.056-.229.024-.327a.303.303 0 0 1 .315-.111.92.92 0 0 1 .525.294c.134.148.227.328.279.54.05.209.053.414.009.616l-.001.009a.903.903 0 0 0 .169-.201.282.282 0 0 1 .195-.139.332.332 0 0 1 .219.042.3.3 0 0 1 .138.166.266.266 0 0 1-.033.233c-.252.414-.667.67-1.246.766-.592.101-1.055-.027-1.387-.384a.3.3 0 0 1-.058-.33zM84.181 133.919c-.034-.084-.031-.159.009-.226.036-.06.094-.1.174-.119a.328.328 0 0 1 .225.012.3.3 0 0 1 .171.174c.17.42.268.845.294 1.273.026.452-.032.881-.174 1.287a.295.295 0 0 1-.162.181.337.337 0 0 1-.222.015.285.285 0 0 1-.174-.123.252.252 0 0 1-.021-.231c.244-.699.204-1.446-.12-2.243z"/><path d="M84.982 134.156a.278.278 0 0 1 .21.015c.07.036.113.1.129.189a3.825 3.825 0 0 1-.201 2.041c-.07.179-.201.241-.394.189a.278.278 0 0 1-.174-.12c-.04-.066-.044-.142-.012-.229.228-.592.295-1.166.201-1.723-.031-.189.049-.31.241-.362z"/><path d="M85.199 134.265a.325.325 0 0 1 .213-.072c.08 0 .147.023.201.072.058.052.084.124.078.216-.054.818-.267 1.549-.64 2.191a.272.272 0 0 1-.192.142.328.328 0 0 1-.357-.208.271.271 0 0 1 .03-.233c.324-.563.51-1.193.558-1.892a.288.288 0 0 1 .109-.216z"/><path d="M84.622 134.64a.301.301 0 0 1 .168-.178.346.346 0 0 1 .225-.012.29.29 0 0 1 .174.123c.04.066.044.143.012.229a74.384 74.384 0 0 1-.706 1.876c-.288.719-.583 1.317-.886 1.796a.28.28 0 0 1-.198.138.321.321 0 0 1-.216-.042.312.312 0 0 1-.141-.165.27.27 0 0 1 .036-.231 10.71 10.71 0 0 0 .853-1.726c.159-.399.385-1.002.679-1.808zM85.171 136.93a.246.246 0 0 1 .204-.146l.204-.49c.154-.375.285-.683.394-.925.062-.139.171-.184.327-.135.152.048.229.144.231.288.006.386-.332 1.418-1.015 3.095-.508 1.255-.877 2.114-1.108 2.579a7.73 7.73 0 0 1-1.534 2.171 6.656 6.656 0 0 1-.318.295c.068.113.358 1.046.871 2.797.512 1.76.769 2.708.769 2.846 0 .021-.161.385-.483 1.093a92.251 92.251 0 0 1-1.105 2.36c-1.106 2.275-1.788 3.413-2.044 3.413-.174 0-.379-.068-.615-.204a2.396 2.396 0 0 1-.165-.102c-.072-.024-.131-.083-.177-.178-.018-.038.45-1.048 1.405-3.029.931-1.929 1.437-2.963 1.52-3.101-.225-.497-.526-1.371-.907-2.621-.12-.393-.302-.859-.546-1.402-.246-.546-.396-.813-.447-.799-.152.042-.262-.003-.331-.135a.304.304 0 0 1 .036-.366c.041-.049.083-.098.129-.148a.286.286 0 0 1-.018-.167.249.249 0 0 1 .15-.171c.052-.023.104-.05.156-.078.023-.162.083-.199.177-.109.061-.041.122-.085.182-.132a2.272 2.272 0 0 1-.404-.002.298.298 0 0 1-.216-.114.355.355 0 0 1-.072-.213c0-.082.024-.148.072-.198a.249.249 0 0 1 .216-.075c.344.03.691-.024 1.039-.165.063-.025.124-.053.183-.082l.351-.422c.076-.092.17-.203.284-.334a4.639 4.639 0 0 1-.695.351c-.162.066-.275.014-.339-.156s-.028-.301.108-.393c.088-.059.359-.214.814-.466l.168-.096c.461-.36.875-.842 1.243-1.444.21-.345.44-.789.691-1.333.137-.305.343-.757.615-1.357z"/></g></symbol><symbol id="icon-person_13" viewBox="0 0 90 60"><path fill="none" stroke="#5A4B38" stroke-linejoin="round" stroke-miterlimit="3" d="M47.6 24.4l9.6-20.6"/><path fill="#5A4B38" d="M61.7 10.4c-4-4-8.3-6.1-13.1-6.2l-.2-.6c5.1-1.4 9.7.7 13.7 6.4l-.4.4z"/><g><path fill="#4E569D" d="M37.6 21.3c.8 0 1.5.4 2.1 1 .6.6.8 1.3.8 2.1s-.4 1.5-1 2.1c-.6.5-1.3.8-2.2.8-.8 0-1.5-.4-2.1-1-.6-.6-.8-1.3-.8-2.1s.4-1.5 1-2.1c.6-.6 1.3-.8 2.2-.8z"/><path fill="#4E569D" d="M36.2 25.7c0-.3.1-.5.3-.6.2-.2.4-.2.7-.2.2 0 .5.1.6.3.2.2.3.4.2.6-.2 1.1-.5 2.2-.9 3.5-.3.9-.7 2-1.3 3.3-.3.7-.8 1.8-1.4 3.3-.5 1.3-.9 2.4-1.2 3.4-.1.2-.2.4-.5.5-.2.1-.5.1-.7.1-.2-.1-.4-.2-.5-.5-.1-.2-.1-.4-.1-.7.3-.9.7-2 1.2-3.3.6-1.4 1.1-2.5 1.4-3.2.6-1.3 1-2.4 1.3-3.3.2-.6.4-1.2.5-1.7.2-.6.3-1.1.4-1.5zM48.8 21.2c.2 0 .5.1.6.3.2.2.2.4.2.7 0 .3-.1.5-.3.6-.5.3-.9.6-1.2.9-.2.2-.4.3-.5.5l-.2.3-.1.1c-.5.6-1 1.4-1.5 2.3-.1.2-.3.3-.6.4-.3 0-.5 0-.7-.1-.2-.1-.3-.3-.4-.6 0-.2 0-.4.1-.7 1-1.9 2.2-3.4 3.8-4.5.4-.1.6-.2.8-.2z"/><path fill="#4E569D" d="M44.3 25.8c.2 0 .5 0 .7.1.2.1.4.3.4.6.1.2 0 .5-.1.7-.1.2-.3.3-.6.4-.7.1-1.5.3-2.2.6-.7.2-1.4.5-2.1.8-.6.3-1.3.6-1.9 1-.6.4-1.2.8-1.8 1.1-.2.1-.4.2-.7.2-.2 0-.5-.1-.6-.3-.2-.2-.2-.4-.2-.7 0-.3.1-.5.3-.6 3-2 5.9-3.3 8.8-3.9zM31.4 38.6c.2-.1.4-.2.7-.1.2 0 .4.2.6.4.1.2.2.4.1.7 0 .3-.2.4-.4.6-1.5.9-2.7 1.6-3.7 2.1-1.4.7-2.7 1.2-3.9 1.5-.3.1-.5 0-.7 0-.2-.1-.4-.3-.5-.5-.1-.2-.1-.5 0-.7.1-.2.3-.4.5-.5 1.2-.3 2.4-.7 3.7-1.4 1.1-.6 2.2-1.3 3.6-2.1z"/><path fill="#4E569D" d="M24.8 43.5c-.2 0-.5-.1-.7-.2-.2-.2-.3-.4-.3-.6 0-.5 0-1 .1-1.7 0-.4.1-.9.2-1.7v-.5-.7c0-.5-.1-1-.2-1.5-.1-.3 0-.5 0-.7.1-.2.3-.4.5-.5.2-.1.5-.1.7 0 .3.1.4.3.5.5.3 1.2.4 2.4.3 3.6 0 .2 0 .4-.1.7 0 .4-.1.6-.1.7 0 .3-.1.6-.1.8v.8c0 .3-.1.5-.2.7-.1.1-.3.2-.6.3zM31.1 39.1c.1-.2.2-.4.5-.5.2-.1.5-.1.7-.1.2.1.4.2.5.5.1.2.1.5.1.7-.4 1.1-.9 2.2-1.6 3.3-.5 1-1.1 2-1.9 3.2-.2.3-.7 1.1-1.4 2.1-.6.8-1 1.5-1.3 2 0 .1-.1.1-.1.1-.1.2-.3.3-.6.4h-.4l-.5-.3c-.2-.2-.2-.4-.2-.6 0-.2.1-.3.2-.5.3-.6.8-1.3 1.3-2.1.7-1.1 1.2-1.8 1.4-2.1.7-1.2 1.3-2.2 1.8-3 .6-1 1.1-2.1 1.5-3.1z"/></g></symbol><symbol id="icon-person_14" viewBox="119.25 164.5 76 52.25"><path fill="none" stroke="#444B99" stroke-width="2" stroke-linecap="round" stroke-linejoin="round" stroke-miterlimit="3" d="M142.152 180.373l-4.951 7.6-5.149 2.5-1 7.35 3.05 8.65 2.2 6.051.899 2.75m-16.5-34.801l4.75 6.35 6.602 3.65v-3.6m-1 10.949l-2.5 14.699-.5 2.951"/><path fill="#444B99" d="M132.803 180.271c.365.135.699.352 1 .649.5.5.783 1.101.85 1.802V183.42c-.334 1.033-.782 1.718-1.35 2.052l-.051.049a2.698 2.698 0 0 1-1.449.399h-.101c-.833 0-1.534-.267-2.101-.799-.601-.601-.899-1.317-.899-2.149 0-.802.3-1.484.899-2.052.565-.601 1.268-.899 2.101-.899.4 0 .767.084 1.101.25z"/><path fill="#4A3541" d="M144.852 165.672l-.799 10.099-3.352 39.852h-.549l4.151-50.201.549.051z"/><path fill="#E95556" d="M155.402 178.473l.799-7.1c4.101.934 5.884 2.949 5.351 6.049-.399-.699-1.217-.898-2.45-.6 1.101 1.6 1.233 3.4.4 5.4-1.533-2.668-4.633-3.668-9.301-3 2.367-.633 4.102-.883 5.201-.749z"/><path fill="#BE4546" d="M155.402 178.473c-1.102-.134-2.834.116-5.201.75l.65-4.301c1.901.433 3.419 1.617 4.551 3.551z"/><path fill="#F26822" d="M144.053 175.771c1.332-3.232 1.6-6.601.799-10.101 5.066-1.133 8.918.269 11.551 4.201l-.2 1.5-.8 7.101c-1.133-1.935-2.649-3.117-4.551-3.552-1.901-.465-4.166-.182-6.799.851z"/><path fill="#444B99" d="M167.852 216.072c-4.699-4.334-6.85-8.916-6.449-13.75-3.301 4.166-4.899 8.75-4.801 13.75h-13.1c7.833-8.5 14.133-17.783 18.9-27.85 3.565 9.698 9.933 18.981 19.1 27.85h-13.65z"/><path fill="#444B99" d="M194.701 216.072h-11c-9.434-8.867-16.049-18.15-19.85-27.85 4.301 5.032 8.232 7.666 11.801 7.898 3.433 6.103 9.784 12.752 19.049 19.952z"/></symbol></svg>