<svg xmlns="http://www.w3.org/2000/svg" width="130.333" height="93.167" viewBox="-54.5 -18.167 130.333 93.167"><linearGradient id="a" gradientUnits="userSpaceOnUse" x1="36.964" y1="38.515" x2="16.744" y2="5.648"><stop offset="0" stop-color="#e71c00"/><stop offset=".327" stop-color="#f9674e"/><stop offset=".486" stop-color="#f77d69"/><stop offset=".612" stop-color="#f77d69"/><stop offset=".749" stop-color="#f9674e"/><stop offset="1" stop-color="#f30"/></linearGradient><path fill-rule="evenodd" clip-rule="evenodd" fill="url(#a)" d="M-3.317 63.03c-12.16-19.646-18.84-30.465-20.041-32.458.205-.28.523-.562.958-.843l76.334-44.105c1.175-.741 2.452-.933 3.832-.575 1.354.332 2.401 1.085 3.142 2.26l12.3 20.004c.716 1.175.92 2.453.613 3.832-.332 1.354-1.072 2.389-2.223 3.104l-73.805 48.36c-.382.255-.753.396-1.11.421z"/><linearGradient id="b" gradientUnits="userSpaceOnUse" x1="-484.271" y1="-133.847" x2="-445.667" y2="-133.847" gradientTransform="scale(-1) rotate(58.394 -290.373 345.264)"><stop offset="0"/><stop offset=".471" stop-color="#666"/><stop offset=".996" stop-color="#333"/></linearGradient><path fill-rule="evenodd" clip-rule="evenodd" fill="url(#b)" d="M-3.317 63.03c.026.025.039.051.039.076a.258.258 0 0 1-.191-.076 1.952 1.952 0 0 1-1.188-.23c-6.643-1.508-13.656-1.124-21.039 1.149a52.399 52.399 0 0 0-7.089 2.76l-2.644 1.417v-.076l.115-.038-6.898-11.228-.115.038-.076-.153 2.146-1.418c1.813-1.303 3.563-2.836 5.25-4.599 5.415-5.595 9.247-12.403 11.496-20.425l.152.345c1.202 1.993 7.881 12.813 20.042 32.458z"/><linearGradient id="c" gradientUnits="userSpaceOnUse" x1="-40.651" y1="71.301" x2="-47.583" y2="60.05"><stop offset="0" stop-color="#f30"/><stop offset=".231" stop-color="#f75b3c"/><stop offset=".341" stop-color="#f75b3c"/><stop offset=".486" stop-color="#f77d69"/><stop offset=".612" stop-color="#f77d69"/><stop offset=".749" stop-color="#f77d69"/><stop offset="1" stop-color="#f9a49b"/></linearGradient><path fill-rule="evenodd" clip-rule="evenodd" fill="url(#c)" d="M-35.429 68.05l-6.323 3.908-11.189-8.622 10.614-6.514.115-.038 6.899 11.228z"/><g><path d="M18.461 37.461L10.88 25.316l1.607-1.003L15.6 29.3l6.313-3.941-3.113-4.987 1.607-1.003 7.58 12.145-1.607 1.003-3.572-5.724-6.313 3.94 3.573 5.724-1.607 1.004zM30.696 29.822l-7.581-12.145 8.781-5.481.895 1.433-7.174 4.479 2.321 3.72 6.719-4.194.89 1.425-6.718 4.194 2.58 4.134 7.455-4.654.895 1.433-9.063 5.656zM45.069 20.85l-6.687-10.711-4.001 2.498-.895-1.434 9.625-6.009.895 1.433-4.018 2.508 6.688 10.711-1.607 1.004z"/></g></svg>