<?xml version="1.0" encoding="utf-8"?>
<!-- Generator: Adobe Illustrator 15.1.0, SVG Export Plug-In . SVG Version: 6.00 Build 0)  -->
<!DOCTYPE svg PUBLIC "-//W3C//DTD SVG 1.1//EN" "http://www.w3.org/Graphics/SVG/1.1/DTD/svg11.dtd">
<svg version="1.1" xmlns="http://www.w3.org/2000/svg" xmlns:xlink="http://www.w3.org/1999/xlink" x="0px" y="0px"
	 width="310.863px" height="96.635px" viewBox="0 0 310.863 96.635" enable-background="new 0 0 310.863 96.635"
	 xml:space="preserve">
<symbol  id="Duplicate_Items_Folder_x2F__x3C_Path_x3E__x5F_6_copy_2" viewBox="0 -101.1 55.8 101.1">
	<g id="Layer_1_49_">
		<path fill-rule="evenodd" clip-rule="evenodd" fill="#8DB321" d="M9.25-3.15h-5.6C2.65-3.15,1.8-3,1.1-2.7
			C0.367-2.4,0-2.033,0-1.6c0,0.434,0.367,0.817,1.1,1.15C1.8-0.15,2.65,0,3.65,0H55.8v-101.1H3.65c-1,0-1.85,0.15-2.55,0.45
			C0.367-100.317,0-99.933,0-99.5s0.367,0.8,1.1,1.1c0.7,0.3,1.55,0.45,2.55,0.45h5.6V-3.15z"/>
	</g>
</symbol>
<symbol  id="Duplicate_Items_Folder_x2F__x3C_Path_x3E__x5F_8" viewBox="0 -106.45 72.2 106.45">
	<g id="Layer_1_48_">
		<path fill-rule="evenodd" clip-rule="evenodd" d="M72.2-6.85v-0.1c0-0.6-0.25-1.033-0.75-1.3h-0.1
			c-0.233-0.133-0.483-0.2-0.75-0.2h-2.4v-26h2.4c0.467,0,0.85-0.15,1.15-0.45c0.3-0.333,0.45-0.717,0.45-1.15
			c0-0.434-0.15-0.8-0.45-1.1c-0.333-0.3-0.717-0.45-1.15-0.45h-2.4v-34.05h2.4c0.433,0,0.816-0.15,1.15-0.45
			c0.3-0.3,0.45-0.667,0.45-1.1c0-0.466-0.15-0.85-0.45-1.15c-0.3-0.3-0.683-0.45-1.15-0.45h-2.4v-28.45h2.4
			c0.433,0,0.816-0.15,1.15-0.45c0.3-0.3,0.45-0.667,0.45-1.1c0-0.467-0.15-0.85-0.45-1.15c-0.3-0.3-0.683-0.45-1.15-0.45H12.1
			l-0.05-0.05H1.6c-0.434,0-0.8,0.15-1.1,0.45c-0.333,0.333-0.5,0.717-0.5,1.15v0.05c0,0.433,0.167,0.8,0.5,1.1
			c0.3,0.3,0.667,0.45,1.1,0.45h2.45v28.45H1.6c-0.434,0-0.8,0.15-1.1,0.45C0.167-74.017,0-73.633,0-73.2c0,0.434,0.167,0.8,0.5,1.1
			c0.3,0.3,0.667,0.45,1.1,0.45h2.45v34.05H1.6c-0.434,0-0.8,0.15-1.1,0.45c-0.333,0.3-0.5,0.667-0.5,1.1
			c0,0.433,0.167,0.816,0.5,1.15c0.3,0.3,0.667,0.45,1.1,0.45h2.45V-8.5H1.6c-0.434,0-0.8,0.15-1.1,0.45C0.167-7.75,0-7.383,0-6.95
			v0.1c0,0.434,0.167,0.8,0.5,1.1C0.8-5.45,1.167-5.3,1.6-5.3h50.2l-0.1,0.75v2.35c0,0.6,0.216,1.117,0.65,1.55
			c0.4,0.433,0.9,0.65,1.5,0.65h9.5c0.6,0,1.117-0.217,1.55-0.65c0.434-0.434,0.65-0.95,0.65-1.55v-2.35L65.4-5.3h5.2
			c0.433,0,0.816-0.15,1.15-0.45C72.05-6.05,72.2-6.417,72.2-6.85z"/>
	</g>
</symbol>
<symbol  id="flash0.ai_x5F_0_x2F_objects_x2F__x3C_Path_x3E__x5F_1" viewBox="0 -52.55 38.85 52.55">
	<g id="Layer_1_34_">
		<path fill-rule="evenodd" clip-rule="evenodd" d="M34-3.45c0,0.934,0.467,1.733,1.4,2.4c0.934,0.667,2.083,1.017,3.45,1.05v-38.9
			c-10.267,0-19.017-1.283-26.25-3.85C5.367-45.283,1.75-48.367,1.75-52v-0.55C0.583-50.817,0-49.017,0-47.15
			c0,3.667,2.233,7.017,6.7,10.05c4.367,2.967,10.117,5.133,17.25,6.5c-1.667,1.3-2.5,2.7-2.5,4.2c0,1.367,0.683,2.633,2.05,3.8
			c1.3,1.133,3.117,2.067,5.45,2.8v9.4c0.633,0.633,1.466,1.233,2.5,1.8c1.933,1.067,4.033,1.667,6.3,1.8
			c-1.1,0.167-2,0.566-2.7,1.2C34.35-5,34-4.283,34-3.45z"/>
	</g>
</symbol>
<symbol  id="flash0.ai_x5F_0_x2F_objects_x2F__x3C_Path_x3E__x5F_3" viewBox="0 -52.55 38.8 52.55">
	<g id="Layer_1_39_">
		<path fill-rule="evenodd" clip-rule="evenodd" d="M33.95-3.45c0,0.934,0.483,1.733,1.45,2.4c0.934,0.667,2.067,1.017,3.4,1.05
			v-38.9c-10.267,0-19.017-1.283-26.25-3.85C5.317-45.283,1.7-48.367,1.7-52l0.05-0.55C0.583-50.817,0-49.017,0-47.15
			c0,3.667,2.233,7.017,6.7,10.05c4.367,2.967,10.117,5.133,17.25,6.5c-1.7,1.333-2.55,2.733-2.55,4.2c0,1.333,0.684,2.6,2.05,3.8
			c1.333,1.133,3.167,2.067,5.5,2.8v9.4c0.633,0.633,1.466,1.233,2.5,1.8c1.9,1.067,4,1.667,6.3,1.8c-1.1,0.167-2,0.566-2.7,1.2
			C34.317-5,33.95-4.283,33.95-3.45z"/>
	</g>
</symbol>
<symbol  id="flash0.ai_x5F_0_x2F_objects_x2F__x3C_Path_x3E__x5F_4" viewBox="0 -52.55 38.85 52.55">
	<g id="Layer_1_44_">
		<path fill-rule="evenodd" clip-rule="evenodd" d="M33.95-3.45c0,0.934,0.483,1.733,1.45,2.4c0.934,0.667,2.083,1.017,3.45,1.05
			v-38.9c-10.267,0-19.017-1.283-26.25-3.85C5.333-45.283,1.7-48.367,1.7-52l0.05-0.55C0.583-50.817,0-49.017,0-47.15
			c0,3.667,2.233,7.017,6.7,10.05c4.367,2.967,10.117,5.133,17.25,6.5c-1.7,1.333-2.55,2.733-2.55,4.2c0,1.333,0.684,2.6,2.05,3.8
			c1.333,1.133,3.167,2.067,5.5,2.8v9.4c0.633,0.633,1.466,1.233,2.5,1.8c1.9,1.067,4,1.667,6.3,1.8c-1.1,0.167-2,0.566-2.7,1.2
			C34.317-5,33.95-4.283,33.95-3.45z"/>
	</g>
</symbol>
<symbol  id="flash0.ai_x5F_0_x2F_objects_x2F__x3C_Path_x3E__x5F_43_x5F_0" viewBox="-0.007 -6.2 6.957 6.2">
	<g id="Layer_1_33_">
		<path fill-rule="evenodd" clip-rule="evenodd" d="M1.45-0.8C1.683-0.267,2.317,0,3.35,0h3.6v-6.2H1.8
			c-0.633,0-1.117,0.15-1.45,0.45C0.017-5.45-0.083-5.1,0.05-4.7L1.45-0.8z"/>
	</g>
</symbol>
<symbol  id="flash0.ai_x5F_0_x2F_objects_x2F__x3C_Path_x3E__x5F_43_x5F_2" viewBox="-0.033 -6.2 6.933 6.2">
	<g id="Layer_1_38_">
		<path fill-rule="evenodd" clip-rule="evenodd" d="M1.45-0.8C1.683-0.267,2.317,0,3.35,0H6.9v-6.2H1.75
			c-0.633,0-1.117,0.15-1.45,0.45C-0.033-5.45-0.117-5.1,0.05-4.7L1.45-0.8z"/>
	</g>
</symbol>
<symbol  id="flash0.ai_x5F_0_x2F_objects_x2F__x3C_Path_x3E__x5F_43_x5F_3" viewBox="-0.033 -6.2 6.933 6.2">
	<g id="Layer_1_43_">
		<path fill-rule="evenodd" clip-rule="evenodd" d="M1.45-0.8C1.683-0.267,2.317,0,3.35,0H6.9v-6.2H1.75
			c-0.633,0-1.117,0.15-1.45,0.45C-0.033-5.45-0.117-5.1,0.05-4.7L1.45-0.8z"/>
	</g>
</symbol>
<symbol  id="flash0.ai_x5F_0_x2F_objects_x2F__x3C_Path_x3E__x5F_47_x5F_0" viewBox="0 -3.15 4.55 3.15">
	<g id="Layer_1_32_">
		<path fill-rule="evenodd" clip-rule="evenodd" fill="#FFFFFF" d="M2.25,0c0.633,0,1.167-0.15,1.6-0.45
			c0.467-0.3,0.7-0.667,0.7-1.1c0-0.434-0.233-0.817-0.7-1.15C3.417-3,2.883-3.15,2.25-3.15C1.65-3.15,1.133-3,0.7-2.7
			C0.233-2.367,0-1.983,0-1.55c0,0.433,0.233,0.8,0.7,1.1C1.133-0.15,1.65,0,2.25,0z"/>
	</g>
</symbol>
<symbol  id="flash0.ai_x5F_0_x2F_objects_x2F__x3C_Path_x3E__x5F_47_x5F_2" viewBox="0 -3.15 4.5 3.15">
	<g id="Layer_1_37_">
		<path fill-rule="evenodd" clip-rule="evenodd" fill="#FFFFFF" d="M2.25,0c0.633,0,1.167-0.15,1.6-0.45
			c0.433-0.3,0.65-0.667,0.65-1.1c0-0.434-0.217-0.817-0.65-1.15C3.417-3,2.883-3.15,2.25-3.15S1.083-3,0.65-2.7
			C0.217-2.367,0-1.983,0-1.55c0,0.433,0.217,0.8,0.65,1.1C1.083-0.15,1.617,0,2.25,0z"/>
	</g>
</symbol>
<symbol  id="flash0.ai_x5F_0_x2F_objects_x2F__x3C_Path_x3E__x5F_47_x5F_3" viewBox="0 -3.15 4.5 3.15">
	<g id="Layer_1_42_">
		<path fill-rule="evenodd" clip-rule="evenodd" fill="#FFFFFF" d="M2.25,0c0.633,0,1.167-0.15,1.6-0.45
			c0.433-0.3,0.65-0.667,0.65-1.1c0-0.434-0.217-0.817-0.65-1.15C3.417-3,2.883-3.15,2.25-3.15S1.083-3,0.65-2.7
			C0.217-2.367,0-1.983,0-1.55c0,0.433,0.217,0.8,0.65,1.1C1.083-0.15,1.617,0,2.25,0z"/>
	</g>
</symbol>
<symbol  id="flash0.ai_x5F_0_x2F_objects_x2F__x3C_Path_x3E__x5F_48_x5F_0" viewBox="0 -6.75 9.6 6.75">
	<g id="Layer_1_31_">
		<path fill-rule="evenodd" clip-rule="evenodd" fill="#FFFFCD" d="M4.8,0c1.333,0,2.467-0.333,3.4-1
			c0.933-0.633,1.4-1.417,1.4-2.35c0-0.933-0.467-1.733-1.4-2.4c-0.934-0.667-2.067-1-3.4-1c-1.333,0-2.466,0.333-3.4,1
			C0.467-5.083,0-4.283,0-3.35C0-2.417,0.467-1.633,1.4-1C2.333-0.333,3.467,0,4.8,0z"/>
	</g>
</symbol>
<symbol  id="flash0.ai_x5F_0_x2F_objects_x2F__x3C_Path_x3E__x5F_48_x5F_2" viewBox="0 -6.75 9.6 6.75">
	<g id="Layer_1_36_">
		<path fill-rule="evenodd" clip-rule="evenodd" fill="#FFFFCD" d="M4.8,0c1.333,0,2.467-0.333,3.4-1
			c0.933-0.633,1.4-1.417,1.4-2.35c0-0.933-0.467-1.733-1.4-2.4c-0.934-0.667-2.067-1-3.4-1c-1.333,0-2.466,0.333-3.4,1
			C0.467-5.083,0-4.283,0-3.35C0-2.417,0.467-1.633,1.4-1C2.333-0.333,3.467,0,4.8,0z"/>
	</g>
</symbol>
<symbol  id="flash0.ai_x5F_0_x2F_objects_x2F__x3C_Path_x3E__x5F_48_x5F_3" viewBox="0 -6.75 9.6 6.75">
	<g id="Layer_1_41_">
		<path fill-rule="evenodd" clip-rule="evenodd" fill="#FFFFCD" d="M4.8,0c1.333,0,2.467-0.333,3.4-1
			c0.933-0.633,1.4-1.417,1.4-2.35c0-0.933-0.467-1.733-1.4-2.4c-0.934-0.667-2.067-1-3.4-1c-1.333,0-2.466,0.333-3.4,1
			C0.467-5.083,0-4.283,0-3.35C0-2.417,0.467-1.633,1.4-1C2.333-0.333,3.467,0,4.8,0z"/>
	</g>
</symbol>
<symbol  id="flash0.ai_x5F_0_x2F_objects_x2F__x3C_Path_x3E__x5F_49_x5F_0" viewBox="0 -12.55 17.85 12.55">
	<g id="Layer_1_30_">
		<path fill-rule="evenodd" clip-rule="evenodd" fill="#FFFFAE" d="M8.9,0c2.467,0,4.583-0.617,6.35-1.85
			c1.733-1.233,2.6-2.717,2.6-4.45c0-1.733-0.867-3.2-2.6-4.4c-1.767-1.233-3.883-1.85-6.35-1.85s-4.566,0.617-6.3,1.85
			C0.867-9.5,0-8.033,0-6.3c0,1.733,0.867,3.216,2.6,4.45S6.433,0,8.9,0z"/>
	</g>
</symbol>
<symbol  id="flash0.ai_x5F_0_x2F_objects_x2F__x3C_Path_x3E__x5F_49_x5F_2" viewBox="0 -12.55 17.9 12.55">
	<g id="Layer_1_35_">
		<path fill-rule="evenodd" clip-rule="evenodd" fill="#FFFFAE" d="M8.95,0c2.466,0,4.583-0.617,6.35-1.85
			c1.733-1.233,2.6-2.717,2.6-4.45c0-1.733-0.867-3.2-2.6-4.4c-1.767-1.233-3.883-1.85-6.35-1.85c-2.467,0-4.583,0.617-6.35,1.85
			C0.867-9.5,0-8.033,0-6.3c0,1.733,0.867,3.216,2.6,4.45C4.367-0.617,6.483,0,8.95,0z"/>
	</g>
</symbol>
<symbol  id="flash0.ai_x5F_0_x2F_objects_x2F__x3C_Path_x3E__x5F_49_x5F_3" viewBox="0 -12.55 17.9 12.55">
	<g id="Layer_1_40_">
		<path fill-rule="evenodd" clip-rule="evenodd" fill="#FFFFAE" d="M8.95,0c2.466,0,4.583-0.617,6.35-1.85
			c1.733-1.233,2.6-2.717,2.6-4.45c0-1.733-0.867-3.2-2.6-4.4c-1.767-1.233-3.883-1.85-6.35-1.85c-2.467,0-4.583,0.617-6.35,1.85
			C0.867-9.5,0-8.033,0-6.3c0,1.733,0.867,3.216,2.6,4.45C4.367-0.617,6.483,0,8.95,0z"/>
	</g>
</symbol>
<symbol  id="flash0.ai_x5F_4_x2F_Assets_x2F__x3C_Group_x3E__x5F_3" viewBox="0 -41.955 59.45 41.955">
	<g id="Layer_1_9_">
		<g>
			<g>
				
					<linearGradient id="SVGID_1_" gradientUnits="userSpaceOnUse" x1="-1385.9971" y1="-13286.4854" x2="-1342.8567" y2="-13286.4854" gradientTransform="matrix(0.2648 -0.9643 0.9643 0.2648 13200.7109 2182.9395)">
					<stop  offset="0" style="stop-color:#FFFBD4"/>
					<stop  offset="1" style="stop-color:#000000"/>
				</linearGradient>
				<path fill-rule="evenodd" clip-rule="evenodd" fill="url(#SVGID_1_)" d="M49.2-6.95c5.466-4.566,8.883-10.316,10.25-17.25
					c-9.733,5.267-22.083,1.417-37.05-11.55c-3.6-3.1-7.367-5.033-11.3-5.8c-2.967-0.6-5.917-0.534-8.85,0.2
					C0.75-37.717,0-33.95,0-30.05C0-21.783,2.933-14.7,8.8-8.8C14.667-2.933,21.733,0,30,0C37.233,0,43.633-2.317,49.2-6.95z"/>
			</g>
		</g>
	</g>
</symbol>
<symbol  id="flash0.ai_x5F_4_x2F_Assets_x2F__x3C_Group_x3E__x5F_4" viewBox="0 -41.955 59.45 41.955">
	<g id="Layer_1_13_">
		<g>
			<g>
				
					<linearGradient id="SVGID_2_" gradientUnits="userSpaceOnUse" x1="-1385.9971" y1="-13286.4854" x2="-1342.8567" y2="-13286.4854" gradientTransform="matrix(0.2648 -0.9643 0.9643 0.2648 13200.7109 2182.9395)">
					<stop  offset="0" style="stop-color:#FFFBD4"/>
					<stop  offset="1" style="stop-color:#000000"/>
				</linearGradient>
				<path fill-rule="evenodd" clip-rule="evenodd" fill="url(#SVGID_2_)" d="M49.2-6.95c5.466-4.566,8.883-10.316,10.25-17.25
					c-9.733,5.267-22.083,1.417-37.05-11.55c-3.6-3.1-7.367-5.033-11.3-5.8c-2.967-0.6-5.917-0.534-8.85,0.2
					C0.75-37.717,0-33.95,0-30.05C0-21.783,2.933-14.7,8.8-8.8C14.667-2.933,21.733,0,30,0C37.233,0,43.633-2.317,49.2-6.95z"/>
			</g>
		</g>
	</g>
</symbol>
<symbol  id="flash0.ai_x5F_4_x2F_Assets_x2F__x3C_Path_x3E__x5F_10" viewBox="0 -53.35 53.35 53.35">
	<g id="Layer_1_12_">
		
			<linearGradient id="SVGID_3_" gradientUnits="userSpaceOnUse" x1="-1300.5322" y1="-13409.6504" x2="-1234.8805" y2="-13409.6504" gradientTransform="matrix(0.2525 -0.9676 0.9676 0.2525 13325.0742 2115.9805)">
			<stop  offset="0" style="stop-color:#FFFFFF"/>
			<stop  offset="1" style="stop-color:#B7C6CE"/>
		</linearGradient>
		<path fill-rule="evenodd" clip-rule="evenodd" fill="url(#SVGID_3_)" d="M43.75,0c3.033-2.833,5.383-6.167,7.05-10
			c1.7-3.9,2.55-8.017,2.55-12.35c0-8.533-3.033-15.833-9.1-21.9c-6.033-6.067-13.317-9.1-21.85-9.1c-4.367,0-8.5,0.85-12.4,2.55
			c-3.833,1.667-7.167,4.017-10,7.05c2.833-2.733,6.05-4.833,9.65-6.3c3.733-1.534,7.633-2.3,11.7-2.3
			c8.566,0,15.867,3.033,21.9,9.1c6.067,6.033,9.1,13.333,9.1,21.9c0,4.067-0.767,7.967-2.3,11.7C48.583-6.05,46.483-2.833,43.75,0z
			"/>
	</g>
</symbol>
<symbol  id="flash0.ai_x5F_4_x2F_Assets_x2F__x3C_Path_x3E__x5F_11" viewBox="0 -52.2 52.2 52.2">
	<g id="Layer_1_14_">
		
			<linearGradient id="SVGID_4_" gradientUnits="userSpaceOnUse" x1="-1739.6553" y1="-12675.5605" x2="-1674.3903" y2="-12675.5605" gradientTransform="matrix(0.326 -0.9454 0.9454 0.326 12566.46 2493.625)">
			<stop  offset="0" style="stop-color:#FFFFFF"/>
			<stop  offset="1" style="stop-color:#000000"/>
		</linearGradient>
		<path fill-rule="evenodd" clip-rule="evenodd" fill="url(#SVGID_4_)" d="M42.35-2.65c3.767-1.7,7.05-4.1,9.85-7.2
			c-2.733,2.467-5.784,4.383-9.15,5.75c-3.533,1.4-7.2,2.1-11,2.1c-8.267,0-15.333-2.933-21.2-8.8c-5.867-5.9-8.8-12.983-8.8-21.25
			c0-3.8,0.7-7.467,2.1-11c1.333-3.367,3.233-6.417,5.7-9.15c-3.1,2.8-5.5,6.083-7.2,9.85c-1.767,3.9-2.65,8-2.65,12.3
			C0-21.783,2.933-14.7,8.8-8.8C14.667-2.933,21.733,0,30,0C34.333,0,38.45-0.883,42.35-2.65z"/>
	</g>
</symbol>
<symbol  id="flash0.ai_x5F_4_x2F_Assets_x2F__x3C_Path_x3E__x5F_12" viewBox="0 -32 32 32">
	<g id="Layer_1_15_">
		
			<linearGradient id="SVGID_5_" gradientUnits="userSpaceOnUse" x1="15573.8789" y1="450.2358" x2="15605.9541" y2="450.2358" gradientTransform="matrix(3.117693e-005 1 -1 -0.001 465.7495 -15605.5664)">
			<stop  offset="0" style="stop-color:#FFFFFF"/>
			<stop  offset="1" style="stop-color:#B7C6CE"/>
		</linearGradient>
		<polygon fill-rule="evenodd" clip-rule="evenodd" fill="url(#SVGID_5_)" points="16,0 32,-16 24,-16 24,-32 8,-32 8,-16 0,-16 		
			"/>
	</g>
</symbol>
<symbol  id="flash0.ai_x5F_4_x2F_Assets_x2F__x3C_Path_x3E__x5F_7" viewBox="0 -53.35 53.35 53.35">
	<g id="Layer_1_8_">
		
			<linearGradient id="SVGID_6_" gradientUnits="userSpaceOnUse" x1="-1300.5322" y1="-13409.6504" x2="-1234.8805" y2="-13409.6504" gradientTransform="matrix(0.2525 -0.9676 0.9676 0.2525 13325.0742 2115.9805)">
			<stop  offset="0" style="stop-color:#FFFFFF"/>
			<stop  offset="1" style="stop-color:#B7C6CE"/>
		</linearGradient>
		<path fill-rule="evenodd" clip-rule="evenodd" fill="url(#SVGID_6_)" d="M43.75,0c3.033-2.833,5.383-6.167,7.05-10
			c1.7-3.9,2.55-8.017,2.55-12.35c0-8.533-3.033-15.833-9.1-21.9c-6.033-6.067-13.317-9.1-21.85-9.1c-4.367,0-8.5,0.85-12.4,2.55
			c-3.833,1.667-7.167,4.017-10,7.05c2.833-2.733,6.05-4.833,9.65-6.3c3.733-1.534,7.633-2.3,11.7-2.3
			c8.566,0,15.867,3.033,21.9,9.1c6.067,6.033,9.1,13.333,9.1,21.9c0,4.067-0.767,7.967-2.3,11.7C48.583-6.05,46.483-2.833,43.75,0z
			"/>
	</g>
</symbol>
<symbol  id="flash0.ai_x5F_4_x2F_Assets_x2F__x3C_Path_x3E__x5F_8" viewBox="0 -52.2 52.2 52.2">
	<g id="Layer_1_10_">
		
			<linearGradient id="SVGID_7_" gradientUnits="userSpaceOnUse" x1="-1739.6553" y1="-12675.5605" x2="-1674.3903" y2="-12675.5605" gradientTransform="matrix(0.326 -0.9454 0.9454 0.326 12566.46 2493.625)">
			<stop  offset="0" style="stop-color:#FFFFFF"/>
			<stop  offset="1" style="stop-color:#000000"/>
		</linearGradient>
		<path fill-rule="evenodd" clip-rule="evenodd" fill="url(#SVGID_7_)" d="M42.35-2.65c3.767-1.7,7.05-4.1,9.85-7.2
			c-2.733,2.467-5.784,4.383-9.15,5.75c-3.533,1.4-7.2,2.1-11,2.1c-8.267,0-15.333-2.933-21.2-8.8c-5.867-5.9-8.8-12.983-8.8-21.25
			c0-3.8,0.7-7.467,2.1-11c1.333-3.367,3.233-6.417,5.7-9.15c-3.1,2.8-5.5,6.083-7.2,9.85c-1.767,3.9-2.65,8-2.65,12.3
			C0-21.783,2.933-14.7,8.8-8.8C14.667-2.933,21.733,0,30,0C34.333,0,38.45-0.883,42.35-2.65z"/>
	</g>
</symbol>
<symbol  id="flash0.ai_x5F_4_x2F_Assets_x2F__x3C_Path_x3E__x5F_9" viewBox="0 -32 32 32">
	<g id="Layer_1_11_">
		
			<linearGradient id="SVGID_8_" gradientUnits="userSpaceOnUse" x1="15574.0186" y1="450.2358" x2="15606.0938" y2="450.2358" gradientTransform="matrix(3.117693e-005 1 -1 -0.001 465.7495 -15605.5664)">
			<stop  offset="0" style="stop-color:#FFFFFF"/>
			<stop  offset="1" style="stop-color:#B7C6CE"/>
		</linearGradient>
		<polygon fill-rule="evenodd" clip-rule="evenodd" fill="url(#SVGID_8_)" points="16,-32 0,-16 8,-16 8,0 24,0 24,-16 32,-16 		"/>
	</g>
</symbol>
<symbol  id="flash0.ai_x5F_5_x2F_Assets_x2F__x3C_Path_x3E_" viewBox="0 -9 62 9">
	<g id="Layer_1_16_">
		
			<radialGradient id="SVGID_9_" cx="31" cy="-4.5" r="30.9875" gradientTransform="matrix(1 0 0 -0.1452 0 -5.1533)" gradientUnits="userSpaceOnUse">
			<stop  offset="0.098" style="stop-color:#DFDCDB;stop-opacity:0.8471"/>
			<stop  offset="1" style="stop-color:#FFFFFF;stop-opacity:0"/>
		</radialGradient>
		<path fill-rule="evenodd" clip-rule="evenodd" fill="url(#SVGID_9_)" d="M62-4.5c0-1.233-3.017-2.283-9.05-3.15
			C46.85-8.55,39.533-9,31-9S15.167-8.55,9.1-7.65C3.033-6.783,0-5.733,0-4.5s3.033,2.3,9.1,3.2C15.133-0.433,22.433,0,31,0
			c8.6,0,15.917-0.433,21.95-1.3C58.983-2.2,62-3.267,62-4.5z"/>
	</g>
</symbol>
<symbol  id="flash0.ai_x5F_5_x2F_Assets_x2F__x3C_Path_x3E__x5F_0" viewBox="0 -34.15 26.4 34.15">
	<g id="Layer_1_17_">
		
			<linearGradient id="SVGID_10_" gradientUnits="userSpaceOnUse" x1="-2906.3281" y1="-8977.2637" x2="-2863.2327" y2="-8977.2637" gradientTransform="matrix(0.6341 -0.7733 0.7733 0.6341 8789.9131 3442.3145)">
			<stop  offset="0" style="stop-color:#FFFFFF"/>
			<stop  offset="1" style="stop-color:#000000"/>
		</linearGradient>
		<path fill-rule="evenodd" clip-rule="evenodd" fill="url(#SVGID_10_)" d="M13.05-24.4V0H26.4v-20
			c-3.867-1.867-7.316-4.033-10.35-6.5c-2.933-2.433-5.267-4.983-7-7.65L0-24.4H13.05z"/>
	</g>
</symbol>
<symbol  id="flash0.ai_x5F_6_x2F_Assets_x2F__x3C_Group_x3E_" viewBox="0 -45.5 20.8 45.5">
	<g id="Layer_1_21_">
		<g>
			
				<linearGradient id="SVGID_11_" gradientUnits="userSpaceOnUse" x1="-1010.3906" y1="-13869.3418" x2="-973.789" y2="-13869.3418" gradientTransform="matrix(0.2049 -0.9788 0.9788 0.2049 13791.6299 1845.9092)">
				<stop  offset="0" style="stop-color:#FFFFFF"/>
				<stop  offset="1" style="stop-color:#000000"/>
			</linearGradient>
			<polygon fill-rule="evenodd" clip-rule="evenodd" fill="url(#SVGID_11_)" points="20.8,-1.2 2.2,-21.15 0,-21.15 19.7,0 			"/>
			
				<linearGradient id="SVGID_12_" gradientUnits="userSpaceOnUse" x1="-1010.4043" y1="-13870.8564" x2="-973.8027" y2="-13870.8564" gradientTransform="matrix(0.2049 -0.9788 0.9788 0.2049 13791.6299 1845.9092)">
				<stop  offset="0" style="stop-color:#FFFFFF"/>
				<stop  offset="1" style="stop-color:#000000"/>
			</linearGradient>
			<polygon fill-rule="evenodd" clip-rule="evenodd" fill="url(#SVGID_12_)" points="14.2,-22.45 14.2,-45.5 13.05,-45.5 
				13.05,-22.45 			"/>
		</g>
	</g>
</symbol>
<symbol  id="flash0.ai_x5F_6_x2F_Assets_x2F__x3C_Path_x3E_" viewBox="0 -9 61.95 9">
	<g id="Layer_1_20_">
		
			<radialGradient id="SVGID_13_" cx="30.9751" cy="-4.5" r="30.9631" gradientTransform="matrix(1 0 0 -0.1452 0 -5.1533)" gradientUnits="userSpaceOnUse">
			<stop  offset="0.098" style="stop-color:#DFDCDB;stop-opacity:0.8471"/>
			<stop  offset="1" style="stop-color:#FFFFFF;stop-opacity:0"/>
		</radialGradient>
		<path fill-rule="evenodd" clip-rule="evenodd" fill="url(#SVGID_13_)" d="M61.95-4.5c0-1.233-3.017-2.283-9.05-3.15
			C46.833-8.55,39.533-9,31-9S15.15-8.55,9.05-7.65C3.017-6.783,0-5.733,0-4.5s3.017,2.3,9.05,3.2C15.117-0.433,22.433,0,31,0
			s15.867-0.433,21.9-1.3C58.933-2.2,61.95-3.267,61.95-4.5z"/>
	</g>
</symbol>
<symbol  id="flash0.ai_x5F_6_x2F_Assets_x2F__x3C_Path_x3E__x5F_0" viewBox="0 -29.95 33.1 29.95">
	<g id="Layer_1_25_">
		<linearGradient id="SVGID_14_" gradientUnits="userSpaceOnUse" x1="0" y1="-14.9751" x2="33.1001" y2="-14.9751">
			<stop  offset="0" style="stop-color:#FFFFFF"/>
			<stop  offset="1" style="stop-color:#000000"/>
		</linearGradient>
		<path fill-rule="evenodd" clip-rule="evenodd" fill="url(#SVGID_14_)" d="M13.1-21.15H0L19.75,0L33.1-14.35
			c-4.567-2.133-8.934-4.983-13.1-8.55c-2.733-2.4-5.033-4.75-6.9-7.05V-21.15z"/>
	</g>
</symbol>
<symbol  id="gorshok" viewBox="0 -68 89.65 68">
	<g id="Layer_1_2_">
		<path fill-rule="evenodd" clip-rule="evenodd" fill="#993300" d="M44.9-68V0h44.75l-2.7-27c-3.7-19.5-10.633-33.167-20.8-41H44.9z
			"/>
		<path fill-rule="evenodd" clip-rule="evenodd" fill="#996600" d="M44.9,0v-68H23.7C13.533-60.167,6.517-46.5,2.65-27L0,0H44.9z"/>
	</g>
</symbol>
<symbol  id="plant" viewBox="-6.45 -126.435 167.733 162.422">
	<g id="Layer_1_54_">
		
			<use xlink:href="#gorshok"  width="89.65" height="68" y="-68" transform="matrix(1.3918 0 0 1.3918 -6.4502 -8.7998)" overflow="visible"/>
	</g>
	<g id="leaves_1_">
		<path fill-rule="evenodd" clip-rule="evenodd" fill="#996F39" d="M147.85-24.7c1.9-0.466,3.566-1.333,5-2.6
			c0.767-0.7,1.183-1.95,1.25-3.75c0.033-0.267-0.017-2.117-0.15-5.55c-0.2-5.433,0.933-9.35,3.4-11.75
			c0.933-0.933,1.167-2.083,0.7-3.45c-0.267-0.7-0.633-1.483-1.1-2.35c-0.434,0.333-0.9,0.667-1.4,1
			c-3.445,2.679-6.312,5.304-8.6,7.875c1.633-6.383,0.283-11.825-4.05-16.325c-2.733-2.833-8.566-6.65-17.5-11.45
			c-2-1.067-2.917-2.367-2.75-3.9c0.167-1.633,0.217-2.483,0.15-2.55c-1.267,1.8-2.283,3.617-3.05,5.45
			c-1.5,3.633-1.1,6.867,1.2,9.7c1.433,1.733,2.167,3.633,2.2,5.7c0,1.267-0.333,3.133-1,5.6c-0.667,2.533-1.017,4.45-1.05,5.75
			c-0.067,2.267,0.525,4.383,1.775,6.35c2.317,3.633,4.608,6.45,6.875,8.45c3.033,2.733,6.742,4.767,11.125,6.1
			c0.267,0.911,0.625,1.811,1.075,2.7C143.483-24,145.45-24.333,147.85-24.7z M143.75-13.25c-0.533,0.4-1.083,0.783-1.65,1.15
			C125.4,0,120.15,11.617,126.35,22.75c13.1-1.833,19-12.8,17.7-32.9C143.983-11.15,143.883-12.183,143.75-13.25z M140.875-26.4
			c-1.807-5.957,0.218-12.248,6.075-18.875C141.093-38.648,139.068-32.356,140.875-26.4z M111.3-95.4c1.434-1.267,3.867-2.1,7.3-2.5
			c4.167-0.5,7.167-1.167,9-2c0.6-0.267,1.233-0.567,1.9-0.9c-0.3-0.1-3.617-0.934-9.95-2.5c-6.633-1.967-11.3-2.55-14-1.75
			c-1.6,0.466-3.883,2.383-6.85,5.75c2.433,2.1,4.466,3.517,6.1,4.25C107.467-93.783,109.633-93.9,111.3-95.4z M92.5-107.75
			c0.083-0.114,0.167-0.23,0.25-0.35l0.025-0.05l-0.025,0.05C92.667-107.98,92.583-107.864,92.5-107.75v0.05
			c0.267-0.133,0.533-0.283,0.8-0.45h-0.525l1.775-4.8c1.7-3.033,3.817-4.066,6.35-3.1c0.367,0.133,0.717-0.117,1.05-0.75
			c0.2-0.367,0.483-0.9,0.85-1.6c-2.833-0.467-4.966-1.483-6.4-3.05c-1.367-1.5-2.783-2.15-4.25-1.95c-1,0.133-2.333,0.783-4,1.95
			c-2.033,1.434-3.45,2.333-4.25,2.7c-1.7,0.733-3.35,0.783-4.95,0.15c-3.167-1.233-6.117-0.217-8.85,3.05
			c-2.167,2.566-3.85,5.983-5.05,10.25c1.9,0.733,4.517,1.816,7.85,3.25c2.767,1.1,5.05,1.716,6.85,1.85
			C84.352-99.776,88.602-102.292,92.5-107.75z"/>
		
			<path fill-rule="evenodd" clip-rule="evenodd" fill="none" stroke="#996F39" stroke-width="6" stroke-linecap="round" stroke-linejoin="round" stroke-miterlimit="3" d="
			M147.85-24.7c1.9-0.466,3.566-1.333,5-2.6c0.767-0.7,1.183-1.95,1.25-3.75c0.033-0.267-0.017-2.117-0.15-5.55
			c-0.2-5.433,0.933-9.35,3.4-11.75c0.933-0.933,1.167-2.083,0.7-3.45c-0.267-0.7-0.633-1.483-1.1-2.35
			c-0.434,0.333-0.9,0.667-1.4,1c-3.445,2.679-6.312,5.304-8.6,7.875c1.633-6.383,0.283-11.825-4.05-16.325
			c-2.733-2.833-8.566-6.65-17.5-11.45c-2-1.067-2.917-2.367-2.75-3.9c0.167-1.633,0.217-2.483,0.15-2.55
			c-1.267,1.8-2.283,3.617-3.05,5.45c-1.5,3.633-1.1,6.867,1.2,9.7c1.433,1.733,2.167,3.633,2.2,5.7c0,1.267-0.333,3.133-1,5.6
			c-0.667,2.533-1.017,4.45-1.05,5.75c-0.067,2.267,0.525,4.383,1.775,6.35c2.317,3.633,4.608,6.45,6.875,8.45
			c3.033,2.733,6.742,4.767,11.125,6.1c0.267,0.911,0.625,1.811,1.075,2.7C143.483-24,145.45-24.333,147.85-24.7z M143.75-13.25
			c0.133,1.067,0.233,2.1,0.3,3.1c1.3,20.1-4.6,31.066-17.7,32.9C120.15,11.617,125.4,0,142.1-12.1
			C142.667-12.467,143.217-12.85,143.75-13.25z M140.875-26.4c-1.807-5.957,0.218-12.248,6.075-18.875 M111.3-95.4
			c-1.667,1.5-3.833,1.617-6.5,0.35c-1.633-0.733-3.667-2.15-6.1-4.25c2.966-3.367,5.25-5.284,6.85-5.75
			c2.7-0.8,7.367-0.217,14,1.75c6.333,1.566,9.65,2.4,9.95,2.5c-0.667,0.333-1.3,0.633-1.9,0.9c-1.833,0.833-4.833,1.5-9,2
			C115.167-97.5,112.733-96.667,111.3-95.4z M92.775-108.15l1.775-4.8c1.7-3.033,3.817-4.066,6.35-3.1
			c0.367,0.133,0.717-0.117,1.05-0.75c0.2-0.367,0.483-0.9,0.85-1.6c-2.833-0.467-4.966-1.483-6.4-3.05
			c-1.367-1.5-2.783-2.15-4.25-1.95c-1,0.133-2.333,0.783-4,1.95c-2.033,1.434-3.45,2.333-4.25,2.7c-1.7,0.733-3.35,0.783-4.95,0.15
			c-3.167-1.233-6.117-0.217-8.85,3.05c-2.167,2.566-3.85,5.983-5.05,10.25c1.9,0.733,4.517,1.816,7.85,3.25
			c2.767,1.1,5.05,1.716,6.85,1.85c4.602,0.424,8.852-2.092,12.75-7.55c0.083-0.114,0.167-0.23,0.25-0.35L92.775-108.15z"/>
	</g>
	<g id="plant_1_">
		
			<path fill-rule="evenodd" clip-rule="evenodd" fill="none" stroke="#BAA632" stroke-width="6" stroke-linecap="round" stroke-linejoin="round" stroke-miterlimit="3" d="
			M56.1-7.4c5.1,37.333,24.816,48.783,59.15,34.35c9.711-5.366,16.745-17.116,21.1-35.25c4.349-18.134,4.082-31.167-0.8-39.1"/>
	</g>
</symbol>
<g id="Layer_3">
</g>
<g id="Layer_1">
	<polygon fill-rule="evenodd" clip-rule="evenodd" fill="#E8EBE4" points="307.752,1.413 308.594,59.963 2.59,59.963 2.64,1.413 	
		"/>
	<polygon fill-rule="evenodd" clip-rule="evenodd" fill="#C0C9C9" points="308.594,94.463 2.343,95.063 2.244,59.813 
		308.594,59.513 	"/>
	
		<use xlink:href="#plant"  width="167.733" height="162.422" x="-6.45" y="-126.435" transform="matrix(0.2726 0 0 -0.2726 88.958 33.5127)" overflow="visible"/>
	<g>
		<g>
			<polygon fill-rule="evenodd" clip-rule="evenodd" fill="#242121" points="190.88,65.6 196.199,64.102 281.881,64.102 
				287.442,65.6 287.442,65.938 286.282,66.035 192.041,66.035 190.88,65.938 			"/>
			<path fill-rule="evenodd" clip-rule="evenodd" fill="#242121" d="M236.284,28.126h5.754c0.646,0,1.209,0.371,1.692,1.112
				c0.452,0.709,0.678,1.58,0.678,2.611l5.077,30.511c0,1.031-0.226,1.902-0.678,2.611c-0.483,0.709-1.047,1.063-1.692,1.063
				h-15.908c-0.645,0-1.209-0.354-1.692-1.063c-0.45-0.709-0.676-1.58-0.676-2.611l5.077-30.511c0-1.031,0.226-1.902,0.676-2.611
				C235.075,28.497,235.639,28.126,236.284,28.126z"/>
			<g>
				<path fill-rule="evenodd" clip-rule="evenodd" fill="#2E2724" d="M194.313,3.949h90.276c0.322,0,0.612,0.097,0.87,0.29
					c0.226,0.193,0.339,0.419,0.339,0.677V57.38c0,0.258-0.113,0.5-0.339,0.726c-0.258,0.193-0.548,0.29-0.87,0.29h-90.276
					c-0.322,0-0.596-0.097-0.822-0.29c-0.226-0.226-0.338-0.468-0.338-0.726V4.916c0-0.258,0.112-0.483,0.338-0.677
					C193.717,4.046,193.991,3.949,194.313,3.949z"/>
				<rect x="197.794" y="8.108" fill-rule="evenodd" clip-rule="evenodd" fill="#00B4B8" width="83.313" height="46.129"/>
			</g>
		</g>
		<rect x="197.794" y="10.09" fill-rule="evenodd" clip-rule="evenodd" fill="#F5F5F5" width="83.313" height="42.213"/>
		<rect x="197.794" y="10.09" fill-rule="evenodd" clip-rule="evenodd" fill="#D1D3D4" width="83.313" height="4.739"/>
		<rect x="197.794" y="47.661" fill-rule="evenodd" clip-rule="evenodd" fill="#D1D3D4" width="83.313" height="4.738"/>
		<rect x="197.794" y="49.354" fill-rule="evenodd" clip-rule="evenodd" fill="#3C2415" width="83.313" height="4.69"/>
		<rect x="197.794" y="8.108" fill-rule="evenodd" clip-rule="evenodd" fill="#3C2415" width="83.313" height="4.738"/>
		
			<path fill-rule="evenodd" clip-rule="evenodd" fill="none" stroke="#2E2724" stroke-linecap="round" stroke-linejoin="round" stroke-miterlimit="3" d="
			M270.782,25.712l-17.505-2.387l-0.796-6.365H238.16l-12.731-0.796l-0.795-5.569 M280.33,49.582l-2.387-2.387l-5.569-3.979
			l3.183-4.774l-6.365-12.73l-11.936,15.914l-10.145-1.354l-1.79-0.238l-7.957,5.569l-11.14,4.774l-9.548-7.161"/>
		
			<line fill-rule="evenodd" clip-rule="evenodd" fill="none" stroke="#2E2724" stroke-linecap="round" stroke-linejoin="round" stroke-miterlimit="3" x1="247.111" y1="40.272" x2="236.568" y2="36.056"/>
		
			<polyline fill-rule="evenodd" clip-rule="evenodd" fill="none" stroke="#2E2724" stroke-linecap="round" stroke-linejoin="round" stroke-miterlimit="3" points="
			214.29,24.121 220.655,34.464 223.042,40.034 220.655,44.808 		"/>
	</g>
	
		<line fill-rule="evenodd" clip-rule="evenodd" fill="none" stroke="#CC0000" stroke-width="5" stroke-linecap="square" stroke-linejoin="round" stroke-miterlimit="3" x1="16.162" y1="90.548" x2="301.252" y2="90.548"/>
	<g>
		
			<path fill-rule="evenodd" clip-rule="evenodd" fill="none" stroke="#CC0000" stroke-width="5" stroke-linecap="square" stroke-linejoin="round" stroke-miterlimit="3" d="
			M302.283,90.463l-0.074-29.1 M16.108,90.538l0.75-28.975"/>
	</g>
</g>
<g id="objects">
	<g>
		<g>
			
				<use xlink:href="#Duplicate_Items_Folder_x2F__x3C_Path_x3E__x5F_8"  width="72.2" height="106.45" y="-106.45" transform="matrix(0.7183 0 0 -0.6027 133.3579 5.9131)" overflow="visible" opacity="0.1094" enable-background="new    "/>
			<rect x="132.875" y="10.72" fill-rule="evenodd" clip-rule="evenodd" fill="#8DB321" width="46.091" height="57.555"/>
			
				<use xlink:href="#Duplicate_Items_Folder_x2F__x3C_Path_x3E__x5F_6_copy_2"  width="55.8" height="101.1" y="-101.1" transform="matrix(0.7183 0 0 -0.6027 130.7583 8.6631)" overflow="visible" opacity="0.5195" enable-background="new    "/>
			<path fill-rule="evenodd" clip-rule="evenodd" fill="#637B17" d="M180.978,8.358c0.299,0,0.558,0.081,0.775,0.244
				c0.245,0.218,0.368,0.449,0.368,0.694c0,0.354-0.178,0.626-0.531,0.816h-42.083c-0.3,0-0.572,0.095-0.816,0.285
				c-0.218,0.19-0.327,0.422-0.327,0.694c0,0.245,0.109,0.463,0.327,0.653c0.245,0.19,0.517,0.285,0.816,0.285h1.714v57.104h-1.714
				c-0.218,0-0.422,0.055-0.612,0.163h-7.551c-0.3,0-0.571-0.095-0.816-0.285c-0.19-0.191-0.286-0.422-0.286-0.694
				c0-0.245,0.096-0.463,0.286-0.653c0.245-0.163,0.517-0.244,0.816-0.244h1.755V10.276h-1.755c-0.3,0-0.571-0.096-0.816-0.286
				c-0.19-0.163-0.286-0.395-0.286-0.693c0-0.245,0.096-0.477,0.286-0.694c0.245-0.163,0.517-0.244,0.816-0.244H180.978z"/>
			<path fill-rule="evenodd" clip-rule="evenodd" d="M131.67,7.983h49.562c0.311,0,0.574,0.107,0.789,0.323
				c0.239,0.216,0.359,0.479,0.359,0.79s-0.12,0.574-0.359,0.79c-0.215,0.239-0.479,0.358-0.789,0.358H131.67
				c-0.312,0-0.587-0.119-0.826-0.358c-0.215-0.216-0.324-0.479-0.324-0.79s0.108-0.574,0.324-0.79
				C131.083,8.091,131.359,7.983,131.67,7.983z"/>
			<path fill-rule="evenodd" clip-rule="evenodd" fill="#281800" d="M181.232,69.615H131.67c-0.312,0-0.587-0.108-0.826-0.323
				c-0.215-0.216-0.324-0.479-0.324-0.79s0.108-0.587,0.324-0.826c0.239-0.216,0.515-0.323,0.826-0.323h49.562
				c0.311,0,0.574,0.107,0.789,0.323c0.239,0.239,0.359,0.515,0.359,0.826s-0.12,0.574-0.359,0.79
				C181.806,69.507,181.542,69.615,181.232,69.615z"/>
			<path fill-rule="evenodd" clip-rule="evenodd" fill="#566B14" d="M181.232,25.733H131.67c-0.312,0-0.587-0.107-0.826-0.323
				c-0.215-0.216-0.324-0.491-0.324-0.825c0-0.312,0.108-0.576,0.324-0.791c0.239-0.215,0.515-0.323,0.826-0.323h49.562
				c0.311,0,0.574,0.108,0.789,0.323c0.239,0.215,0.359,0.479,0.359,0.791c0,0.311-0.12,0.586-0.359,0.825
				C181.806,25.626,181.542,25.733,181.232,25.733z"/>
			<path fill-rule="evenodd" clip-rule="evenodd" fill="#566B14" d="M181.232,52.453H131.67c-0.312,0-0.587-0.119-0.826-0.358
				c-0.215-0.216-0.324-0.479-0.324-0.791c0-0.311,0.108-0.574,0.324-0.79c0.239-0.239,0.515-0.358,0.826-0.358h49.562
				c0.311,0,0.574,0.119,0.789,0.358c0.239,0.216,0.359,0.479,0.359,0.79c0,0.312-0.12,0.575-0.359,0.791
				C181.806,52.334,181.542,52.453,181.232,52.453z"/>
		</g>
		<g>
			<path fill="#FFFFFF" d="M140.104,37.409h-2.165v-8.085h6.589v8.085h-2.165v-6.462h-2.26V37.409z"/>
			<path fill="#FFFFFF" d="M146.292,38.65c0.223,0.144,0.509,0.191,0.732,0.191c0.604,0,0.716-0.605,0.843-1.13l0.096-0.398
				l-2.817-7.989h2.546l1.369,5.156l1.066-5.156h2.292l-2.26,8.515c-0.286,1.066-0.588,2.658-2.387,2.658
				c-0.493,0-1.066-0.064-1.48-0.159V38.65z"/>
			<path fill="#FFFFFF" d="M159.405,34.354c-0.032,0.7-0.318,3.358-3.311,3.358c-0.812,0-3.565-0.111-3.565-4.329
				c0-3.963,2.339-4.36,3.676-4.36c1.034,0,2.912,0.286,3.119,3.183h-2.068c-0.111-1.273-0.558-1.56-1.13-1.56
				c-0.525,0-1.369,0.238-1.369,2.563c0,1.257,0.191,2.88,1.353,2.88c0.876,0,1.099-0.859,1.162-1.734H159.405z"/>
			<path fill="#FFFFFF" d="M159.705,30.947v-1.623h6.43v1.623h-2.132v6.462h-2.165v-6.462H159.705z"/>
			<path fill="#FFFFFF" d="M166.467,33.351c0-2.498,1.113-4.328,3.645-4.328c2.53,0,3.644,1.83,3.644,4.328
				c0,2.531-1.13,4.361-3.644,4.361C167.597,37.712,166.467,35.882,166.467,33.351z M171.528,33.351
				c0-2.323-0.764-2.705-1.416-2.705c-0.653,0-1.417,0.382-1.417,2.705c0,2.372,0.764,2.737,1.417,2.737
				C170.764,36.088,171.528,35.723,171.528,33.351z"/>
		</g>
	</g>
	<g>
		<polygon fill-rule="evenodd" clip-rule="evenodd" fill="#C2C2C2" points="104.623,53.442 106.521,53.442 107.127,54.081 
			106.521,54.719 105.899,54.719 		"/>
		<polygon fill-rule="evenodd" clip-rule="evenodd" fill="#C2C2C2" points="98.518,53.442 99.974,53.442 101.251,54.719 
			99.794,54.719 		"/>
		<polygon fill-rule="evenodd" clip-rule="evenodd" fill="#C2C2C2" points="101.537,53.442 103.068,53.442 104.345,54.719 
			102.814,54.719 		"/>
		<polygon fill-rule="evenodd" clip-rule="evenodd" fill="#C2C2C2" points="95.473,53.442 96.962,53.442 98.239,54.719 
			95.473,54.719 		"/>
		<polygon fill-rule="evenodd" clip-rule="evenodd" fill="#878787" points="99.974,53.442 101.537,53.442 102.814,54.719 
			101.251,54.719 		"/>
		<polygon fill-rule="evenodd" clip-rule="evenodd" fill="#878787" points="104.345,54.719 103.068,53.442 104.623,53.442 
			105.899,54.719 		"/>
		<polygon fill-rule="evenodd" clip-rule="evenodd" fill="#878787" points="99.794,54.719 98.239,54.719 96.962,53.442 
			98.518,53.442 		"/>
		<rect x="84.596" y="51.961" fill-rule="evenodd" clip-rule="evenodd" fill="#54545C" width="2.038" height="4.28"/>
		<path fill-rule="evenodd" clip-rule="evenodd" fill="#818691" d="M83.312,55.006c0.507-0.398,0.936-0.887,1.285-1.466v3.462
			c0,0.268-0.095,0.497-0.286,0.688c-0.191,0.191-0.423,0.287-0.696,0.287h-2.079l0.008-2.111l0.057-0.017
			C82.223,55.69,82.793,55.409,83.312,55.006z"/>
		<path fill-rule="evenodd" clip-rule="evenodd" fill="#8F94A1" d="M81.544,50.913c0-0.076-0.011-0.186-0.033-0.327
			c-0.017-0.098-0.058-0.221-0.123-0.368h2.226c0.273,0,0.505,0.096,0.696,0.286c0.191,0.196,0.286,0.429,0.286,0.696v2.34
			c-0.349,0.579-0.777,1.067-1.285,1.466c-0.519,0.403-1.088,0.685-1.71,0.843l-0.057,0.017V50.913z"/>
		<path fill-rule="evenodd" clip-rule="evenodd" fill="#64646E" d="M58.015,66.438c0.322-0.251,0.821-0.396,1.498-0.434v4.583
			c0,0.393-0.142,0.731-0.425,1.015c-0.278,0.278-0.617,0.418-1.015,0.418h-2.349c0.84-2.423,1.334-3.836,1.481-4.24
			C57.439,67.126,57.709,66.679,58.015,66.438z"/>
		<path fill-rule="evenodd" clip-rule="evenodd" fill="#FFC821" d="M53.497,58.524c-0.131-0.137-0.292-0.204-0.483-0.204
			s-0.354,0.067-0.491,0.204c-0.131,0.131-0.196,0.292-0.196,0.483c0,0.19,0.065,0.354,0.196,0.491
			c0.137,0.131,0.3,0.196,0.491,0.196s0.352-0.065,0.483-0.196c0.136-0.137,0.205-0.301,0.205-0.491
			C53.702,58.822,53.633,58.661,53.497,58.524z M58.056,53.827c0-0.109-0.038-0.202-0.115-0.278
			c-0.076-0.076-0.169-0.114-0.278-0.114h-0.008c-0.109,0-0.202,0.038-0.278,0.114c-0.077,0.076-0.115,0.169-0.115,0.278v5.68
			c0,0.109,0.038,0.201,0.115,0.278c0.076,0.076,0.169,0.114,0.278,0.114h0.008c0.109,0,0.202-0.038,0.278-0.114
			c0.077-0.077,0.115-0.169,0.115-0.278V53.827z M49.773,64.024c0.071-0.137,0.082-0.275,0.033-0.418
			c-0.049-0.142-0.142-0.248-0.278-0.318c-0.137-0.071-0.276-0.082-0.417-0.033c-0.147,0.049-0.254,0.142-0.319,0.278
			c-0.076,0.153-0.169,0.365-0.278,0.639c-0.207,0.507-0.409,1.071-0.605,1.693c-0.605,1.938-1.037,4.065-1.293,6.384
			c-0.017,0.153,0.022,0.287,0.115,0.401c0.092,0.12,0.215,0.188,0.368,0.204h0.065c0.142,0,0.265-0.046,0.368-0.139
			s0.164-0.207,0.18-0.344c0.246-2.221,0.66-4.275,1.244-6.163C49.495,64.764,49.768,64.035,49.773,64.024z M54.569,50.889
			c-0.185,0-0.346,0.068-0.482,0.205c-0.137,0.136-0.205,0.297-0.205,0.482c0,0.191,0.068,0.354,0.205,0.491
			c0.131,0.131,0.292,0.196,0.482,0.196c0.191,0,0.355-0.065,0.491-0.196c0.131-0.137,0.196-0.3,0.196-0.491
			c0-0.19-0.065-0.352-0.196-0.482C54.924,50.957,54.76,50.889,54.569,50.889z M79.833,49.211c0.343,0,0.657,0.093,0.941,0.278
			c0.273,0.18,0.478,0.423,0.614,0.729c0.065,0.147,0.106,0.271,0.123,0.368c-0.208,0.949-0.592,1.85-1.154,2.701
			c-0.557,0.851-1.241,1.582-2.054,2.193c-0.523,0.3-1.113,0.595-1.768,0.884v-2.537c0-0.109-0.038-0.202-0.115-0.278
			c-0.076-0.076-0.169-0.114-0.278-0.114h-0.008c-0.109,0-0.202,0.038-0.278,0.114c-0.077,0.076-0.115,0.169-0.115,0.278v2.872
			l-0.548,0.205v-3.077c0-0.109-0.038-0.202-0.114-0.278c-0.077-0.076-0.169-0.114-0.278-0.114h-0.008
			c-0.109,0-0.202,0.038-0.278,0.114c-0.077,0.076-0.115,0.169-0.115,0.278v3.355l-0.704,0.204v-2.913
			c0-0.268-0.09-0.499-0.27-0.695c-0.213-0.229-0.469-0.344-0.77-0.344H59.971c-0.29,0-0.538,0.101-0.745,0.303
			c-0.202,0.201-0.303,0.447-0.303,0.736v4.378c0,0.224,0.06,0.421,0.18,0.59c0.076,0.108,0.18,0.204,0.311,0.286
			c-4.365,1.354-7.213,4.528-8.544,9.526c-1.081,4.06-1.108,8.937-0.082,14.633c-0.306,0.115-0.636,0.271-0.99,0.467
			c-0.175,0.104-0.319,0.193-0.434,0.271l-3.355-0.721c-0.104-0.622-0.205-1.351-0.303-2.186c-0.207-1.669-0.311-3.044-0.311-4.124
			c0-2.166,0.128-4.286,0.385-6.359c0.3-2.455,0.748-4.536,1.342-6.244c0.753-2.166,1.82-4.487,3.2-6.965
			c0.627-1.107,1.053-1.871,1.276-2.292c0.36-0.676,0.57-1.173,0.63-1.489c0.093-0.534-0.027-1.435-0.36-2.7
			c-0.164-0.59-0.063-1.124,0.303-1.604c0.365-0.485,0.854-0.729,1.465-0.729H79.833z M78.884,50.889
			c-0.191,0-0.354,0.068-0.491,0.205c-0.131,0.131-0.197,0.292-0.197,0.482c0,0.191,0.065,0.354,0.197,0.491
			c0.136,0.131,0.3,0.196,0.491,0.196s0.352-0.065,0.483-0.196c0.137-0.137,0.205-0.3,0.205-0.491c0-0.186-0.068-0.347-0.205-0.482
			C79.236,50.957,79.075,50.889,78.884,50.889z"/>
		<path fill-rule="evenodd" clip-rule="evenodd" fill="#FFAE21" d="M60.813,63.091c-0.191,0-0.354,0.068-0.491,0.205
			c-0.136,0.131-0.205,0.292-0.205,0.482c0,0.191,0.068,0.355,0.205,0.491c0.137,0.131,0.3,0.196,0.491,0.196
			s0.352-0.065,0.483-0.196c0.136-0.136,0.205-0.3,0.205-0.491c0-0.186-0.068-0.346-0.205-0.482
			C61.166,63.159,61.004,63.091,60.813,63.091z M51.083,80.434c-0.191,0-0.352,0.065-0.483,0.196
			c-0.136,0.137-0.205,0.3-0.205,0.491c0,0.19,0.068,0.352,0.205,0.482c0.137,0.137,0.297,0.205,0.483,0.205
			c0.191,0,0.355-0.068,0.491-0.205c0.131-0.131,0.196-0.292,0.196-0.482c0-0.191-0.065-0.354-0.196-0.491
			C51.438,80.499,51.273,80.434,51.083,80.434z M81.511,50.586c0.021,0.142,0.033,0.251,0.033,0.327l-0.008,7.063
			c-0.017,0.671-0.158,1.314-0.426,1.931c-0.262,0.617-0.633,1.16-1.113,1.629l-0.049,0.049c-1.102,1.086-2.371,1.924-3.806,2.513
			c-1.429,0.584-2.919,0.876-4.468,0.876h-7.562c-0.655,0-1.113,0.076-1.375,0.229c-0.142,0.081-0.289,0.262-0.442,0.54
			c-0.104,0.174-0.265,0.268-0.483,0.278c-0.507-0.022-1.072-0.033-1.694-0.033l-0.605,0.017c-0.676,0.038-1.176,0.183-1.498,0.434
			c-0.306,0.24-0.576,0.688-0.81,1.342c-0.147,0.404-0.641,1.817-1.481,4.24c-1.255,3.595-1.934,5.535-2.038,5.818
			c-0.349,0.961-0.409,1.702-0.18,2.227c0.109,0.245,0.521,0.733,1.236,1.465c0.556,0.572,0.638,1.126,0.245,1.661
			c-0.387,0.523-0.977,0.704-1.768,0.54c-0.311-0.065-0.666-0.093-1.064-0.082c-0.387,0.011-0.729,0.055-1.023,0.131
			c-0.077,0.017-0.191,0.052-0.344,0.106c-1.026-5.696-0.999-10.573,0.082-14.633c1.331-4.998,4.179-8.173,8.544-9.526
			c0.175,0.115,0.36,0.172,0.557,0.172h12.685c0.289,0,0.535-0.101,0.737-0.303c0.202-0.207,0.303-0.455,0.303-0.745v-1.465
			l0.704-0.204v2.324c0,0.109,0.038,0.201,0.115,0.278c0.076,0.076,0.169,0.114,0.278,0.114H74.8c0.109,0,0.202-0.038,0.278-0.114
			c0.076-0.077,0.114-0.169,0.114-0.278v-2.603l0.548-0.205v2.808c0,0.109,0.038,0.201,0.115,0.278
			c0.076,0.076,0.169,0.114,0.278,0.114h0.008c0.109,0,0.202-0.038,0.278-0.114c0.077-0.077,0.115-0.169,0.115-0.278v-3.143
			c0.655-0.289,1.244-0.584,1.768-0.884c0.813-0.611,1.498-1.343,2.054-2.193C80.919,52.436,81.304,51.535,81.511,50.586z"/>
		<path fill-rule="evenodd" clip-rule="evenodd" fill="#8F94A1" d="M90.227,52.82c0.153,0,0.281-0.055,0.385-0.164
			c0.109-0.108,0.164-0.239,0.164-0.393c0-0.152-0.055-0.281-0.164-0.385c-0.104-0.108-0.232-0.163-0.385-0.163h-2.021
			c-0.153,0-0.281,0.055-0.385,0.163c-0.109,0.104-0.164,0.232-0.164,0.385c0,0.153,0.055,0.284,0.164,0.393
			c0.104,0.109,0.232,0.164,0.385,0.164H90.227z M86.765,51.298c0.087-0.087,0.194-0.131,0.319-0.131h4.174
			c0.125,0,0.232,0.044,0.319,0.131c0.087,0.088,0.131,0.194,0.131,0.319v4.968c0,0.125-0.044,0.232-0.131,0.319
			c-0.087,0.087-0.194,0.131-0.319,0.131h-4.174c-0.125,0-0.232-0.044-0.319-0.131s-0.131-0.194-0.131-0.319v-4.968
			C86.634,51.492,86.678,51.386,86.765,51.298z"/>
		<polygon fill-rule="evenodd" clip-rule="evenodd" fill="#54545C" points="95.473,53.385 95.473,54.81 93.975,56.241 
			91.708,56.241 91.708,51.961 93.975,51.961 		"/>
		<path fill-rule="evenodd" clip-rule="evenodd" fill="#343438" d="M73.425,53.778c-0.29,0.758-0.742,1.325-1.359,1.702
			c-1.467,0.769-3.587,1.497-6.359,2.185c-3.486,0.856-5.688,1.449-6.604,1.776c-0.12-0.169-0.18-0.366-0.18-0.59v-4.378
			c0-0.289,0.101-0.535,0.303-0.736c0.208-0.202,0.456-0.303,0.745-0.303h12.685C72.956,53.435,73.212,53.549,73.425,53.778z"/>
		<path fill-rule="evenodd" clip-rule="evenodd" fill="#2A2A2E" d="M73.695,54.474v4.378c0,0.29-0.101,0.538-0.303,0.745
			c-0.202,0.202-0.448,0.303-0.737,0.303H59.971c-0.196,0-0.382-0.057-0.557-0.172c-0.131-0.082-0.235-0.178-0.311-0.286
			c0.917-0.327,3.118-0.92,6.604-1.776c2.771-0.688,4.892-1.416,6.359-2.185c0.617-0.377,1.069-0.944,1.359-1.702
			C73.605,53.975,73.695,54.206,73.695,54.474z"/>
		<path fill-rule="evenodd" clip-rule="evenodd" fill="#343438" d="M57.262,53.827c0-0.109,0.038-0.202,0.115-0.278
			c0.076-0.076,0.169-0.114,0.278-0.114h0.008c0.109,0,0.202,0.038,0.278,0.114c0.077,0.076,0.115,0.169,0.115,0.278v5.68
			c0,0.109-0.038,0.201-0.115,0.278c-0.076,0.076-0.169,0.114-0.278,0.114h-0.008c-0.109,0-0.202-0.038-0.278-0.114
			c-0.077-0.077-0.115-0.169-0.115-0.278V53.827z"/>
		<path fill-rule="evenodd" clip-rule="evenodd" fill="#343438" d="M76.142,53.435c0.109,0,0.202,0.038,0.278,0.114
			c0.077,0.076,0.115,0.169,0.115,0.278v5.68c0,0.109-0.038,0.201-0.115,0.278c-0.076,0.076-0.169,0.114-0.278,0.114h-0.008
			c-0.109,0-0.202-0.038-0.278-0.114c-0.077-0.077-0.115-0.169-0.115-0.278v-5.68c0-0.109,0.038-0.202,0.115-0.278
			c0.076-0.076,0.169-0.114,0.278-0.114H76.142z"/>
		<path fill-rule="evenodd" clip-rule="evenodd" fill="#343438" d="M74.8,53.435c0.109,0,0.202,0.038,0.278,0.114
			c0.076,0.076,0.114,0.169,0.114,0.278v5.68c0,0.109-0.038,0.201-0.114,0.278c-0.077,0.076-0.169,0.114-0.278,0.114h-0.008
			c-0.109,0-0.202-0.038-0.278-0.114c-0.077-0.077-0.115-0.169-0.115-0.278v-5.68c0-0.109,0.038-0.202,0.115-0.278
			c0.076-0.076,0.169-0.114,0.278-0.114H74.8z"/>
		<path fill-rule="evenodd" clip-rule="evenodd" fill="#292929" d="M51.083,81.809c-0.186,0-0.346-0.068-0.483-0.205
			c-0.136-0.131-0.205-0.292-0.205-0.482c0-0.191,0.068-0.354,0.205-0.491c0.131-0.131,0.292-0.196,0.483-0.196
			s0.355,0.065,0.491,0.196c0.131,0.137,0.196,0.3,0.196,0.491c0,0.19-0.065,0.352-0.196,0.482
			C51.438,81.74,51.273,81.809,51.083,81.809z"/>
		<path fill-rule="evenodd" clip-rule="evenodd" fill="#292929" d="M60.813,63.091c0.191,0,0.352,0.068,0.483,0.205
			c0.136,0.137,0.205,0.297,0.205,0.482c0,0.191-0.068,0.355-0.205,0.491c-0.131,0.131-0.292,0.196-0.483,0.196
			s-0.354-0.065-0.491-0.196c-0.136-0.136-0.205-0.3-0.205-0.491c0-0.19,0.068-0.352,0.205-0.482
			C60.459,63.159,60.623,63.091,60.813,63.091z"/>
		<path fill-rule="evenodd" clip-rule="evenodd" fill="#292929" d="M54.086,51.094c0.136-0.137,0.297-0.205,0.482-0.205
			c0.191,0,0.355,0.068,0.491,0.205c0.131,0.131,0.196,0.292,0.196,0.482c0,0.191-0.065,0.354-0.196,0.491
			c-0.136,0.131-0.3,0.196-0.491,0.196c-0.19,0-0.352-0.065-0.482-0.196c-0.137-0.137-0.205-0.3-0.205-0.491
			C53.882,51.391,53.95,51.229,54.086,51.094z"/>
		<path fill-rule="evenodd" clip-rule="evenodd" fill="#292929" d="M78.393,51.094c0.136-0.137,0.3-0.205,0.491-0.205
			s0.352,0.068,0.483,0.205c0.137,0.136,0.205,0.297,0.205,0.482c0,0.191-0.068,0.354-0.205,0.491
			c-0.131,0.131-0.292,0.196-0.483,0.196s-0.354-0.065-0.491-0.196c-0.131-0.137-0.197-0.3-0.197-0.491
			C78.196,51.386,78.262,51.225,78.393,51.094z"/>
		<path fill-rule="evenodd" clip-rule="evenodd" fill="#292929" d="M52.327,59.008c0-0.191,0.065-0.353,0.196-0.483
			c0.137-0.137,0.3-0.204,0.491-0.204s0.352,0.067,0.483,0.204c0.136,0.137,0.205,0.298,0.205,0.483c0,0.19-0.068,0.354-0.205,0.491
			c-0.131,0.131-0.292,0.196-0.483,0.196s-0.354-0.065-0.491-0.196C52.392,59.362,52.327,59.198,52.327,59.008z"/>
		<path fill-rule="evenodd" clip-rule="evenodd" fill="#FFFFFF" d="M49.528,63.288c0.136,0.07,0.229,0.177,0.278,0.318
			c0.049,0.143,0.038,0.281-0.033,0.418c-0.006,0.011-0.278,0.739-0.819,2.185c-0.583,1.888-0.998,3.942-1.244,6.163
			c-0.017,0.137-0.077,0.251-0.18,0.344s-0.227,0.139-0.368,0.139h-0.065c-0.153-0.016-0.276-0.084-0.368-0.204
			c-0.093-0.114-0.131-0.248-0.115-0.401c0.256-2.318,0.688-4.446,1.293-6.384c0.196-0.622,0.398-1.187,0.605-1.693
			c0.109-0.273,0.202-0.485,0.278-0.639c0.065-0.137,0.172-0.229,0.319-0.278C49.252,63.206,49.391,63.217,49.528,63.288z"/>
		<path fill-rule="evenodd" clip-rule="evenodd" fill="#FFFFFF" d="M90.227,51.716c0.153,0,0.281,0.055,0.385,0.163
			c0.109,0.104,0.164,0.232,0.164,0.385c0,0.153-0.055,0.284-0.164,0.393c-0.104,0.109-0.232,0.164-0.385,0.164h-2.021
			c-0.153,0-0.281-0.055-0.385-0.164c-0.109-0.108-0.164-0.239-0.164-0.393c0-0.152,0.055-0.281,0.164-0.385
			c0.104-0.108,0.232-0.163,0.385-0.163H90.227z"/>
	</g>
	<g>
		<path fill-rule="evenodd" clip-rule="evenodd" fill="#E8EBE4" d="M293.308,73.163c0.3-0.333,0.65-0.65,1.05-0.95
			c0.667-0.6,1.05-0.933,1.15-1c0.399,0,0.633,0.317,0.7,0.95c0.033,0.667-0.2,1.383-0.7,2.15c-0.5,0.8-1.15,1.383-1.95,1.75
			c-0.5,0.166-1.283,0.133-2.35-0.101c-1.067-0.3-1.767-0.483-2.101-0.55c-0.533-0.033-1.366,0.033-2.5,0.2
			c-1.033,0.167-1.883,0.366-2.55,0.6c-15.667,5.634-23.816,8.55-24.45,8.75c-0.2,0.067-0.434,0.167-0.7,0.3l-2.8-3.05
			c1-0.233,2.167-0.583,3.5-1.05c3.334-1.233,6.733-2.517,10.2-3.85c6.866-2.467,10.483-3.717,10.85-3.75
			c0.467-0.2,0.983-0.45,1.551-0.75c0.566-0.301,1.05-0.684,1.449-1.15c0.2-0.233,0.434-0.684,0.7-1.35
			c0.233-0.567,0.467-0.983,0.7-1.25c0.467-0.5,1.634-0.917,3.5-1.25c0.467-0.067,1-0.101,1.6-0.101
			c0.567,0.033,0.884,0.117,0.95,0.25c0.066,0.167-0.05,0.3-0.35,0.4l-1.2,0.899c-0.8,0.533-1.184,0.9-1.15,1.101
			c-0.133,0.3,0.384,0.883,1.551,1.75c0.466,0.399,1.199,0.733,2.199,1C292.658,73.28,293.042,73.296,293.308,73.163z"/>
	</g>
	<g>
		<g>
			<path fill-rule="evenodd" clip-rule="evenodd" fill="#1A171C" d="M170.229,76.613h3.396v3.395c0,0.953-0.328,1.757-0.983,2.412
				s-1.459,0.982-2.412,0.982c-0.923,0-1.727-0.327-2.411-0.982c-0.655-0.655-0.983-1.459-0.983-2.412
				c0-0.923,0.328-1.728,0.983-2.412C168.502,76.94,169.306,76.613,170.229,76.613z"/>
		</g>
		<path fill-rule="evenodd" clip-rule="evenodd" fill="none" stroke="#36364A" stroke-width="1.7" stroke-linecap="round" d="
			M204.792,47.239l3.896,4.934c1.37,1.788,1.92,3.791,1.648,6.008c-0.276,2.246-1.294,4.057-3.053,5.431"/>
		<polygon fill-rule="evenodd" clip-rule="evenodd" fill="#FFC230" points="162.86,35.388 208.883,41.035 202.233,84.595 
			158.781,79.263 		"/>
		<g>
			<path fill-rule="evenodd" clip-rule="evenodd" fill="#1A171C" d="M158.795,76.613h3.395v3.395c0,0.953-0.328,1.757-0.982,2.412
				c-0.655,0.655-1.459,0.982-2.412,0.982c-0.923,0-1.728-0.327-2.412-0.982c-0.655-0.655-0.982-1.459-0.982-2.412
				c0-0.923,0.327-1.728,0.982-2.412C157.068,76.94,157.873,76.613,158.795,76.613z"/>
			<path fill-rule="evenodd" clip-rule="evenodd" fill="#363636" d="M160.76,80.008c0,0.536-0.193,0.997-0.581,1.385
				c-0.387,0.387-0.848,0.58-1.384,0.58s-0.998-0.193-1.385-0.58c-0.388-0.388-0.581-0.849-0.581-1.385s0.193-0.998,0.581-1.385
				c0.387-0.388,0.849-0.58,1.385-0.58s0.997,0.192,1.384,0.58C160.567,79.01,160.76,79.472,160.76,80.008z"/>
		</g>
		<polygon fill-rule="evenodd" clip-rule="evenodd" fill="#F6921E" points="208.883,41.035 202.233,84.595 190.705,83.18 
			196.07,39.463 		"/>
		
			<rect x="160.831" y="38.201" transform="matrix(-0.9926 -0.1218 0.1218 -0.9926 365.1392 102.0767)" fill-rule="evenodd" clip-rule="evenodd" fill="#FFC230" width="49.718" height="3.35"/>
		
			<rect x="184.687" y="19.039" transform="matrix(-0.1213 0.9926 -0.9926 -0.1213 249.7854 -136.6624)" fill-rule="evenodd" clip-rule="evenodd" fill="#000003" width="1.384" height="46.369"/>
		<rect x="171.123" y="35.655" fill-rule="evenodd" clip-rule="evenodd" fill="#F6921E" width="6.923" height="7.325"/>
		<path fill-rule="evenodd" clip-rule="evenodd" fill="none" stroke="#36364A" stroke-width="1.7" stroke-linecap="round" d="
			M207.283,63.611c-1.788,1.371-3.791,1.921-6.008,1.648c-2.246-0.275-4.058-1.293-5.432-3.052l-17.697-22.65"/>
	</g>
	<g>
		<g>
			<polygon fill-rule="evenodd" clip-rule="evenodd" fill="#1E2B33" points="130.712,55.464 137.009,53.6 145.286,62.494 
				128.611,67.431 			"/>
			<path fill-rule="evenodd" clip-rule="evenodd" fill="#1E2B33" d="M129.707,51.228c0.107-0.197,0.262-0.32,0.465-0.367
				l4.796-1.439c0.203-0.047,0.403-0.017,0.601,0.091c0.182,0.099,0.305,0.254,0.367,0.465l1.187,4.011
				c0.063,0.211,0.044,0.407-0.055,0.59c-0.107,0.197-0.262,0.319-0.465,0.367l-4.796,1.438c-0.203,0.048-0.396,0.022-0.578-0.077
				c-0.198-0.107-0.328-0.267-0.39-0.478l-1.187-4.011C129.59,51.606,129.608,51.41,129.707,51.228z"/>
			<path fill-rule="evenodd" clip-rule="evenodd" fill="#005376" d="M132.577,50.13l2.392-0.709c0.188-0.055,0.38-0.029,0.578,0.078
				c0.198,0.107,0.32,0.263,0.367,0.465l1.096,3.636l8.254,8.882l-8.314,2.48L132.577,50.13z"/>
			
				<rect x="130.421" y="53.453" transform="matrix(-0.9589 0.2839 -0.2839 -0.9589 277.2392 67.8299)" fill-rule="evenodd" clip-rule="evenodd" fill="#004352" width="6.567" height="1.101"/>
		</g>
		<g>
			<path fill-rule="evenodd" clip-rule="evenodd" fill="#1E2B33" d="M120.758,55.413l-17.65-7.05l0.3-0.75l17.7,6.95l-0.05,0.05
				l4.95,3.649v0.601l0.55,5.6l-0.8,0.101l-0.55-5.851L120.758,55.413z M120.558,55.313l0.2,0.1l-0.2-0.15V55.313z M120.558,52.863
				l-16.65-6.601l0.3-0.699l16.2,6.449l12.65-1l0.05,0.851l-12.55,0.95V52.863z"/>
		</g>
		<g>
			<polygon fill-rule="evenodd" clip-rule="evenodd" fill="#1E2B33" points="104.347,46.259 105.112,45.994 116.573,79.238 
				115.544,78.737 			"/>
			<polygon fill-rule="evenodd" clip-rule="evenodd" fill="#1E2B33" points="102.284,46.989 103.026,46.714 113.767,77.871 
				112.762,77.382 			"/>
		</g>
		<rect x="105.276" y="77.167" fill-rule="evenodd" clip-rule="evenodd" fill="#1E2B33" width="17.932" height="2.082"/>
	</g>
	<g>
		
			<rect x="69.344" y="72.532" transform="matrix(0.9952 -0.0982 0.0982 0.9952 -6.5439 15.6026)" fill-rule="evenodd" clip-rule="evenodd" fill="#F6921E" width="171.884" height="3.54"/>
		
			<rect x="210.908" y="66.53" transform="matrix(0.098 0.9952 -0.9952 0.098 260.4943 -150.215)" fill-rule="evenodd" clip-rule="evenodd" fill="#ECE6E1" width="4.414" height="4.135"/>
		
			<rect x="230.16" y="58.588" transform="matrix(0.0983 0.9952 -0.9952 0.0983 276.6433 -170.434)" fill-rule="evenodd" clip-rule="evenodd" fill="#ECE6E1" width="4.413" height="17.693"/>
		<polygon fill-rule="evenodd" clip-rule="evenodd" fill="#177D8F" points="252.621,42.187 238.989,47.367 242.638,84.363 
			257.02,86.78 		"/>
		<g>
			
				<line fill-rule="evenodd" clip-rule="evenodd" fill="none" stroke="#1B587A" stroke-width="1.7" stroke-linecap="round" x1="242.35" y1="82.712" x2="255.279" y2="84.985"/>
			
				<line fill-rule="evenodd" clip-rule="evenodd" fill="none" stroke="#1B587A" stroke-width="1.7" stroke-linecap="round" x1="242.056" y1="79.745" x2="254.918" y2="81.347"/>
			
				<line fill-rule="evenodd" clip-rule="evenodd" fill="none" stroke="#1B587A" stroke-width="1.7" stroke-linecap="round" x1="241.762" y1="76.777" x2="254.562" y2="77.746"/>
			
				<line fill-rule="evenodd" clip-rule="evenodd" fill="none" stroke="#1B587A" stroke-width="1.7" stroke-linecap="round" x1="241.464" y1="73.771" x2="254.206" y2="74.146"/>
			
				<line fill-rule="evenodd" clip-rule="evenodd" fill="none" stroke="#1B587A" stroke-width="1.7" stroke-linecap="round" x1="241.17" y1="70.804" x2="253.844" y2="70.507"/>
			
				<line fill-rule="evenodd" clip-rule="evenodd" fill="none" stroke="#1B587A" stroke-width="1.7" stroke-linecap="round" x1="240.876" y1="67.837" x2="253.488" y2="66.906"/>
			
				<line fill-rule="evenodd" clip-rule="evenodd" fill="none" stroke="#1B587A" stroke-width="1.7" stroke-linecap="round" x1="240.583" y1="64.87" x2="253.131" y2="63.307"/>
			
				<line fill-rule="evenodd" clip-rule="evenodd" fill="none" stroke="#1B587A" stroke-width="1.7" stroke-linecap="round" x1="240.289" y1="61.902" x2="252.77" y2="59.667"/>
			
				<line fill-rule="evenodd" clip-rule="evenodd" fill="none" stroke="#1B587A" stroke-width="1.7" stroke-linecap="round" x1="239.99" y1="58.896" x2="252.414" y2="56.067"/>
			
				<line fill-rule="evenodd" clip-rule="evenodd" fill="none" stroke="#1B587A" stroke-width="1.7" stroke-linecap="round" x1="239.696" y1="55.929" x2="252.057" y2="52.467"/>
			
				<line fill-rule="evenodd" clip-rule="evenodd" fill="none" stroke="#1B587A" stroke-width="1.7" stroke-linecap="round" x1="239.402" y1="52.962" x2="251.697" y2="48.827"/>
			
				<line fill-rule="evenodd" clip-rule="evenodd" fill="none" stroke="#1B587A" stroke-width="1.7" stroke-linecap="round" x1="239.108" y1="49.995" x2="251.339" y2="45.228"/>
		</g>
		
			<line fill-rule="evenodd" clip-rule="evenodd" fill="none" stroke="#ECE6E1" stroke-width="1.7" stroke-linecap="round" x1="242.638" y1="84.363" x2="238.989" y2="47.367"/>
	</g>
</g>
</svg>
