<?xml version="1.0" encoding="utf-8"?>
<!-- Generator: Adobe Illustrator 15.1.0, SVG Export Plug-In . SVG Version: 6.00 Build 0)  -->
<!DOCTYPE svg PUBLIC "-//W3C//DTD SVG 1.1//EN" "http://www.w3.org/Graphics/SVG/1.1/DTD/svg11.dtd">
<svg version="1.1" id="Layer_1" xmlns="http://www.w3.org/2000/svg" xmlns:xlink="http://www.w3.org/1999/xlink" x="0px" y="0px"
	 width="320px" height="226.667px" viewBox="8.665 11.833 320 226.667" enable-background="new 8.665 11.833 320 226.667"
	 xml:space="preserve">
<symbol  id="crayon2_1" viewBox="-26.475 -10.575 52.95 21.15">
	<g id="Layer_1_3_">
		<path fill="#FFFFFF" d="M19.575-10.575l-35.85,18.051c-0.3-0.968-0.75-1.851-1.35-2.65l30.85-15.4h-1.95l-29.25,14.551l-0.2,0.199
			c-0.467-0.5-0.967-0.967-1.5-1.399l-3.95,4.95c0.267,0.066,0.5,0.25,0.7,0.55c0.433,0.467,0.517,0.982,0.25,1.55l6.7,0.2v-0.5
			c0-0.367-0.05-0.784-0.15-1.25c0.133,0,0.217-0.018,0.25-0.05l37.35-18.801H19.575z"/>
		<path fill="#DF4754" d="M13.225-10.575l-30.85,15.4c0.6,0.8,1.05,1.683,1.35,2.65l35.85-18.051H13.225z M11.275-10.575h-6.5
			l-24.8,12.5l-6.45,8.65l10.9-0.05l42.05-21.101h-5l-37.35,18.801c-0.033,0.032-0.117,0.05-0.25,0.05
			c0.1,0.466,0.15,0.883,0.15,1.25v0.5l-6.7-0.2c0.267-0.567,0.183-1.083-0.25-1.55c-0.2-0.3-0.433-0.483-0.7-0.55l3.95-4.95
			c0.534,0.433,1.034,0.899,1.5,1.399l0.2-0.199L11.275-10.575z"/>
	</g>
</symbol>
<symbol  id="lineika_1" viewBox="-18.212 -49.3 36.425 98.601">
	<g id="Layer_1_1_">
		<path fill="#5259A6" d="M-8.662-6.3l6.1,0.95L-8.662-6.3z M-7.512-13.699l6.1,0.949L-7.512-13.699L-8.662-6.3l-1.1,7.05
			l-1.15,7.45l-1.05,6.95l-1.15,7.4l-1.05,7.05l-1.15,7.45l-1.15,7.449l20,3.051l12.925-84.325L-2.362-47.55l-0.65,4.3l-1.1,7.4
			l-1.1,7.05l-1.15,7.4L-7.512-13.699z M-6.362-21.399l6.1,0.95L-6.362-21.399z M-5.212-28.8l6.1,0.95L-5.212-28.8z M-3.012-43.25
			l6.1,0.95L-3.012-43.25z M-4.112-35.85l6.1,0.95L-4.112-35.85z M-15.313,37.051l6.1,0.949L-15.313,37.051z M-11.962,15.15
			l6.1,0.95L-11.962,15.15z M-10.912,8.2l6.1,0.95L-10.912,8.2z M-9.762,0.75l6.1,0.95L-9.762,0.75z M-14.162,29.601l6.1,0.95
			L-14.162,29.601z M-13.112,22.551l6.1,0.949L-13.112,22.551z"/>
		
			<polygon fill="none" stroke="#5259A6" stroke-width="3.5" stroke-linecap="round" stroke-linejoin="round" stroke-miterlimit="3" points="
			-7.512,-13.699 -8.662,-6.3 -9.762,0.75 -10.912,8.2 -11.962,15.15 -13.112,22.551 -14.162,29.601 -15.313,37.051 -16.462,44.5 
			3.538,47.551 16.463,-36.774 -2.362,-47.55 -3.012,-43.25 -4.112,-35.85 -5.212,-28.8 -6.362,-21.399 		"/>
		<path fill="none" stroke="#FFFFFF" stroke-width="2" stroke-linecap="round" stroke-linejoin="round" stroke-miterlimit="3" d="
			M-8.662-6.3l6.1,0.95 M-7.512-13.699l6.1,0.949 M-6.362-21.399l6.1,0.95 M-5.212-28.8l6.1,0.95 M-3.012-43.25l6.1,0.95
			 M-4.112-35.85l6.1,0.95 M-15.313,37.051l6.1,0.949 M-11.962,15.15l6.1,0.95 M-10.912,8.2l6.1,0.95 M-9.762,0.75l6.1,0.95
			 M-14.162,29.601l6.1,0.95 M-13.112,22.551l6.1,0.949"/>
	</g>
</symbol>
<symbol  id="pens_1" viewBox="-22.98 -23.918 45.961 47.835">
	<g id="Layer_1_2_">
		<path fill="#BBD76B" d="M7.08,6.132c1.733,0.167,3.017,1.149,3.85,2.95l12.05-33h-7.1L4.73,6.531
			C5.463,6.198,6.247,6.064,7.08,6.132z M3.83,17.882l6.25-7.4l-1-2.149C8.047,7.099,6.53,6.981,4.53,7.981L3.83,17.882z"/>
		<path fill="#5259A6" d="M-17.52,9.531l2.75-3.05c-0.9,0.167-1.883-0.2-2.95-1.1c-1.133-0.967-1.733-2.034-1.8-3.2l-2.7,3.05
			c-0.567,0.601-0.817,1.317-0.75,2.15c0.033,0.833,0.35,1.5,0.95,2l0.35,0.3c0.567,0.567,1.284,0.833,2.15,0.8
			C-18.72,10.415-18.053,10.099-17.52,9.531z M-12.37,15.582c1.1,1.467,2.667,1.732,4.7,0.8l20.9-40.3H3.88l-21.8,23.85l0.4,2.65
			c0.7,1.667,2.15,2.316,4.35,1.949l9.65-10.6l-9.95,19.25L-12.37,15.582z M-12.27,23.781c0.767-0.267,1.333-0.75,1.7-1.449
			l1.85-3.7c-0.8,0.433-1.85,0.35-3.15-0.25c-1.333-0.633-2.183-1.518-2.55-2.65l-1.85,3.65c-0.367,0.732-0.417,1.482-0.15,2.25
			c0.233,0.8,0.717,1.383,1.45,1.75l0.4,0.2C-13.87,23.948-13.103,24.015-12.27,23.781z"/>
	</g>
</symbol>
<text transform="matrix(1.0391 0 0 1 -20.2061 -508.3184)" display="none" fill="#231F20" enable-background="new    " font-family="'Consolas'" font-size="17">R – Responsible – сотрудник, ответственный за фактическое исполнение KPI.</text>
<text transform="matrix(1.0391 0 0 1 -62.2061 -515.3184)" display="none" fill="#231F20" enable-background="new    " font-family="'Consolas'" font-size="17">R – Responsible – сотрудник, ответственный за фактическое исполнение KPI.</text>
<g>
	<g>
		<defs>
			<rect id="SVGID_1_" x="-6" y="-1.866" width="348" height="241.063"/>
		</defs>
		<clipPath id="SVGID_2_">
			<use xlink:href="#SVGID_1_"  overflow="visible"/>
		</clipPath>
		<g clip-path="url(#SVGID_2_)">
			<path fill="#D4BD96" d="M21.195,156.498v152.916c0,0.707-0.523,1.285-1.164,1.285h-5.144c-0.639,0-1.163-0.578-1.163-1.285
				V164.303c0-0.707,0.384-1.684,0.844-2.17l5.783-6.039C20.816,155.609,21.195,155.792,21.195,156.498z"/>
			<path fill="#D4BD96" d="M316.725,156.126c-0.434-0.502-0.789-0.334-0.789,0.372v152.914c0,0.707,0.504,1.283,1.121,1.283h4.959
				c0.616,0,1.121-0.576,1.121-1.283V164.827c0-0.705-0.354-1.695-0.789-2.198L316.725,156.126z"/>
			<rect x="316.102" y="170.82" fill="#B59885" width="6.922" height="4.498"/>
			<path fill="#D4BD96" d="M322.878,170.42c0.142,0.682-0.198,1.241-0.755,1.241H14.74c-0.559,0-0.939-0.57-0.847-1.267
				l8.366-62.895c0.093-0.697,0.625-1.266,1.183-1.266h285.041c0.559,0,1.131,0.557,1.273,1.24L322.878,170.42z"/>
			<path fill="#F2DBBB" d="M323.135,95.497v68.239c0,0.705-0.455,1.285-1.014,1.285H14.739c-0.558,0-1.015-0.58-1.015-1.285V95.497
				c0-0.706,0.457-1.284,1.015-1.284h307.382c0.412,0,0.771,0.313,0.928,0.763C323.104,95.138,323.135,95.311,323.135,95.497z"/>
			<g>
				<g>
					<polygon fill="#242121" points="128.132,110.545 133.157,105.408 214.559,105.408 219.811,110.545 219.811,111.575 
						218.725,111.917 129.216,111.917 128.132,111.575 					"/>
					<path fill="#242121" d="M181.637,57.474l7.555,45.399c0,1.536-0.334,2.829-1.006,3.884c-0.72,1.057-1.56,1.584-2.521,1.584
						h-23.671c-0.959,0-1.799-0.527-2.519-1.584c-0.67-1.056-1.007-2.351-1.007-3.884l7.554-45.399c0-1.537,0.335-2.83,1.009-3.884
						c0.718-1.104,1.557-1.657,2.517-1.657h8.563c0.959,0,1.798,0.554,2.518,1.657C181.299,54.644,181.637,55.937,181.637,57.474z"
						/>
					<g>
						<path fill="#2F2724" d="M243.225,17.396v78.065c0,0.386-0.168,0.745-0.506,1.078c-0.382,0.29-0.814,0.435-1.294,0.435H107.097
							c-0.481,0-0.886-0.145-1.224-0.435c-0.333-0.333-0.503-0.692-0.503-1.078V17.396c0-0.382,0.167-0.72,0.503-1.004
							c0.338-0.289,0.745-0.431,1.224-0.431h134.328c0.479,0,0.911,0.143,1.294,0.431C243.057,16.676,243.225,17.014,243.225,17.396
							z"/>
						<rect x="112.277" y="22.146" fill="#00B3B7" width="123.969" height="68.64"/>
					</g>
				</g>
				<rect x="112.277" y="25.097" fill="#F4F5F5" width="123.969" height="62.812"/>
				<rect x="112.277" y="25.097" fill="#D1D2D3" width="123.969" height="7.051"/>
				<rect x="112.277" y="81.001" fill="#D1D2D3" width="123.969" height="7.051"/>
				<rect x="112.277" y="83.518" fill="#3C2417" width="123.969" height="6.98"/>
				<rect x="112.277" y="22.146" fill="#3C2417" width="123.969" height="7.049"/>
				<rect x="124.818" y="36.416" fill="#FCF17C" stroke="#6D6E70" stroke-miterlimit="10" width="107.918" height="6.923"/>
				<rect x="124.818" y="43.101" fill="#FFFFFF" stroke="#6D6E70" stroke-miterlimit="10" width="107.918" height="6.924"/>
				<rect x="124.818" y="49.548" fill="#FFFFFF" stroke="#6D6E70" stroke-miterlimit="10" width="107.918" height="6.922"/>
				<rect x="124.818" y="56.231" fill="#FFFFFF" stroke="#6D6E70" stroke-miterlimit="10" width="107.918" height="6.924"/>
				<rect x="124.818" y="63.155" fill="#FFFFFF" stroke="#6D6E70" stroke-miterlimit="10" width="107.918" height="6.924"/>
				<rect x="124.818" y="69.841" fill="#FFFFFF" stroke="#6D6E70" stroke-miterlimit="10" width="107.918" height="6.924"/>
				<rect x="115.745" y="43.101" fill="#FCF17C" stroke="#6D6E70" stroke-miterlimit="10" width="8.834" height="33.664"/>
				<line fill="none" stroke="#6D6E70" stroke-miterlimit="10" x1="151.797" y1="36.416" x2="151.797" y2="76.287"/>
				<line fill="none" stroke="#6D6E70" stroke-miterlimit="10" x1="178.539" y1="36.416" x2="178.539" y2="77.003"/>
				<line fill="none" stroke="#6D6E70" stroke-miterlimit="10" x1="205.757" y1="36.176" x2="205.757" y2="76.765"/>
				<line fill="none" stroke="#6D6E70" stroke-miterlimit="10" x1="124.818" y1="49.548" x2="115.507" y2="49.548"/>
				<line fill="none" stroke="#6D6E70" stroke-miterlimit="10" x1="124.818" y1="56.231" x2="115.507" y2="56.231"/>
				<line fill="none" stroke="#6D6E70" stroke-miterlimit="10" x1="124.818" y1="62.917" x2="115.507" y2="62.917"/>
				<line fill="none" stroke="#6D6E70" stroke-miterlimit="10" x1="124.818" y1="69.841" x2="115.507" y2="69.841"/>
				<rect x="126.967" y="45.249" fill="#BBBDBF" width="23.398" height="2.388"/>
				<rect x="126.967" y="51.696" fill="#BBBDBF" width="23.398" height="2.387"/>
				<rect x="126.967" y="58.618" fill="#BBBDBF" width="11.938" height="2.389"/>
				<rect x="126.967" y="65.544" fill="#BBBDBF" width="20.295" height="2.387"/>
				<rect x="126.967" y="71.75" fill="#BBBDBF" width="5.97" height="2.39"/>
				<rect x="154.186" y="45.01" fill="#BBBDBF" width="5.968" height="2.389"/>
				<rect x="127.206" y="38.564" fill="#BBBDBF" width="5.969" height="2.387"/>
				<rect x="116.939" y="45.249" fill="#BBBDBF" width="5.969" height="2.388"/>
				<rect x="116.939" y="51.935" fill="#BBBDBF" width="5.969" height="2.387"/>
				<rect x="116.939" y="58.381" fill="#BBBDBF" width="5.969" height="2.387"/>
				<rect x="116.939" y="65.544" fill="#BBBDBF" width="5.969" height="2.387"/>
				<rect x="116.939" y="71.991" fill="#BBBDBF" width="5.969" height="2.387"/>
				<rect x="154.424" y="38.564" fill="#BBBDBF" width="5.969" height="2.387"/>
				<rect x="181.402" y="38.564" fill="#BBBDBF" width="5.97" height="2.387"/>
				<rect x="208.622" y="38.564" fill="#BBBDBF" width="5.969" height="2.387"/>
				<rect x="154.186" y="51.696" fill="#BBBDBF" width="5.968" height="2.387"/>
				<rect x="154.186" y="58.381" fill="#BBBDBF" width="5.968" height="2.387"/>
				<rect x="154.186" y="65.066" fill="#BBBDBF" width="5.968" height="2.388"/>
				<rect x="154.186" y="71.991" fill="#BBBDBF" width="5.968" height="2.387"/>
				<rect x="181.402" y="45.01" fill="#BBBDBF" width="5.97" height="2.389"/>
				<rect x="181.402" y="51.696" fill="#BBBDBF" width="5.97" height="2.387"/>
				<rect x="181.402" y="58.381" fill="#BBBDBF" width="5.97" height="2.387"/>
				<rect x="181.402" y="65.066" fill="#BBBDBF" width="5.97" height="2.388"/>
				<rect x="181.402" y="71.991" fill="#BBBDBF" width="5.97" height="2.387"/>
				<rect x="208.622" y="45.01" fill="#BBBDBF" width="5.969" height="2.389"/>
				<rect x="208.622" y="51.696" fill="#BBBDBF" width="5.969" height="2.387"/>
				<rect x="208.622" y="58.381" fill="#BBBDBF" width="5.969" height="2.387"/>
				<rect x="208.622" y="65.066" fill="#BBBDBF" width="5.969" height="2.388"/>
				<rect x="208.622" y="71.991" fill="#BBBDBF" width="5.969" height="2.387"/>
			</g>
			<g>
				<path fill="#75393A" d="M204.583,119.731c0.39,0,0.681,0.292,0.874,0.875c0.243,0.438,0.413,0.922,0.509,1.455h1.822
					c0.049-0.533,0.17-1.019,0.364-1.455c0.291-0.583,0.632-0.875,1.02-0.875h2.912c0.391,0,0.729,0.292,1.021,0.875
					c0.242,0.438,0.387,0.922,0.436,1.455h1.893c0-0.533,0.099-1.019,0.291-1.455c0.293-0.583,0.657-0.875,1.094-0.875h2.912
					c0.39,0,0.705,0.292,0.947,0.875c0.242,0.438,0.389,0.922,0.438,1.455h1.894c0.048-0.533,0.146-1.019,0.29-1.455
					c0.292-0.583,0.657-0.875,1.094-0.875h2.912c0.389,0,0.704,0.292,0.948,0.875c0.244,0.438,0.411,0.922,0.509,1.455h2.622
					c0.483,0,0.897,0.27,1.239,0.803c0.338,0.531,0.509,1.166,0.509,1.894c0,0.774-0.17,1.407-0.509,1.894
					c-0.34,0.584-0.755,0.873-1.239,0.873h-95.396c-0.484,0-0.874-0.289-1.167-0.873c-0.387-0.485-0.581-1.117-0.581-1.894
					c0-0.728,0.194-1.36,0.581-1.894c0.292-0.535,0.679-0.803,1.167-0.803h2.184c0.098-0.533,0.363-1.019,0.801-1.455
					c0.633-0.583,1.384-0.875,2.259-0.875h6.19c0.873,0,1.576,0.292,2.11,0.875c0.439,0.438,0.754,0.922,0.948,1.455h2.038
					c0.047-0.533,0.195-1.019,0.437-1.455c0.243-0.583,0.558-0.875,0.947-0.875h2.912c0.438,0,0.802,0.292,1.093,0.875
					c0.146,0.438,0.269,0.922,0.365,1.455h1.82c0.05-0.533,0.195-1.019,0.438-1.455c0.242-0.583,0.556-0.875,0.946-0.875h2.986
					c0.389,0,0.727,0.292,1.019,0.875c0.193,0.438,0.315,0.922,0.364,1.455h1.892c0-0.533,0.147-1.019,0.439-1.455
					c0.242-0.583,0.556-0.875,0.946-0.875h2.912c0.438,0,0.776,0.292,1.021,0.875c0.192,0.438,0.313,0.922,0.364,1.455h4.951
					c0.146-0.533,0.412-1.019,0.801-1.455c0.583-0.583,1.265-0.875,2.04-0.875h5.753c0.776,0,1.433,0.292,1.968,0.875
					c0.387,0.438,0.653,0.922,0.799,1.455h2.914c0.049-0.533,0.172-1.019,0.363-1.455c0.245-0.583,0.583-0.875,1.021-0.875h2.984
					c0.387,0,0.702,0.292,0.945,0.875c0.243,0.438,0.391,0.922,0.438,1.455h1.821c0.046-0.533,0.146-1.019,0.29-1.455
					c0.291-0.583,0.655-0.875,1.092-0.875H204.583z"/>
			</g>
			<rect x="13.725" y="170.82" fill="#B59885" width="7.47" height="4.498"/>
			<path fill="#B59885" d="M241.623,163.736l-24.139-3.213c-0.084-0.121-0.174-0.242-0.264-0.371
				c-1.934-2.725-3.996-5.633-6.134-8.467c-2.037-2.711-4.149-5.345-6.263-7.683c-5.963-6.563-8.615-3.687-8.896-3.705
				c-3.814-0.231-6.719-3.508-6.486-7.315c0.225-3.81,3.506-6.713,7.315-6.488c10.907,0.656,20.433,12.91,31.743,28.874
				c0.167,0.237-10.007,0.206-4.745,1.108c-0.585-5.486,2.974-7.813,5.259-13.713c0.233-0.6,3.861-2.685,5.146-2.83
				c0.128-0.021,0.25-0.027,0.371-0.033c3.637-0.219,4.967-3.502,5.39,0.172C240.132,141.982,241.43,155.92,241.623,163.736z"/>
			<g>
				<path fill="#F0BA94" d="M234.458,141.917c-0.808,0-1.872-5.08-2.14-5.888l0.061-4.795c-0.337-1.01,0.208-2.103,1.217-2.439
					c1.01-0.337,2.102,0.21,2.439,1.219l0.871,2.604c0.336,1.011,1.346,6.5,0.336,6.838
					C237.039,139.521,234.661,141.917,234.458,141.917z"/>
			</g>
			<g>
				<path fill="#574D5E" d="M163.816,76.333v3.063h-3.639v-3.063H163.816"/>
			</g>
			<g>
				<path d="M158.844,139.15c-8.122,1.061-17.45,5.246-26.237,10.475c-5.305,3.146-10.414,6.678-14.944,10.135
					c-2.313,1.76-4.475,3.498-6.443,5.158c-0.024,0.014-0.041,0.027-0.059,0.043c-0.232,0.198-0.462,0.391-0.686,0.584
					c-0.429,0.365-0.844,0.727-1.251,1.084c0.082-0.012,0.165-0.018,0.247-0.027c-0.201,0.23-4.091,3.808-7.923,7.609
					c-3.831,3.801-11.973,9.451-16.174,1.383c-1.31-2.517-0.377-5.248,1.042-7.719c3.493-6.064,15.954-17.734,31.01-27.666
					c2.577-1.703,5.234-3.352,7.933-4.909c10.432-6.049,21.52-10.778,31.409-12.065c4.4-0.575,8.428,2.523,9.004,6.924
					C166.34,134.555,163.24,138.584,158.844,139.15z"/>
			</g>
			<path fill="#1F2126" d="M143.628,306.639c0,4.258-3.45,7.707-7.708,7.707h-9.634c-4.257,0-7.708-3.449-7.708-7.707v-72.582
				c0-4.258,3.451-7.707,7.708-7.707h9.634c4.257,0,7.708,3.449,7.708,7.707V306.639L143.628,306.639z"/>
			<path fill="#1F2126" d="M196.939,308.564c0,4.258-3.449,7.709-7.707,7.709h-9.635c-4.257,0-7.708-3.451-7.708-7.709v-72.582
				c0-4.256,3.452-7.707,7.708-7.707h9.635c4.258,0,7.707,3.451,7.707,7.707V308.564z"/>
			<g>
				<path fill="#0B313F" d="M142.811,318.637c0.003-0.402,0.006-0.813,0.006-1.242c0-6.633-3.987-10.473-8.126-11.863
					c-0.937-0.391-1.906-0.604-2.881-0.604c-0.109,0-0.221,0.002-0.333,0.008c-0.112-0.006-0.224-0.008-0.334-0.008
					c-0.974,0-1.943,0.213-2.88,0.604c-4.139,1.393-8.126,5.23-8.126,11.863c0,0.43,0.002,0.84,0.006,1.242
					c-0.01,0.326-0.002,0.645,0.015,0.959c0.169,8.104,1.608,10.266,10.873,10.266c0.15,0,0.298-0.008,0.446-0.01
					c0.148,0.002,0.294,0.01,0.445,0.01c9.266,0,10.705-2.162,10.874-10.266C142.813,319.279,142.82,318.963,142.811,318.637z"/>
				<g>
					<path fill="#F0BA94" d="M246.148,139.966c0,4.529-3.672,8.2-8.201,8.2c-4.53,0-8.202-3.671-8.202-8.2
						c0-1.708,1.224-2.735,2.118-4.051c0.895-1.313,1.457,4.151,2.945,3.538c0.424-0.178,0.867-7.385,1.324-7.487
						c0.583-0.133,1.191-0.2,1.814-0.2C242.477,131.766,246.148,135.436,246.148,139.966z"/>
					<g>
						<path d="M147.745,122.477c-7.579,3.103-15.525,9.539-22.681,16.842c-4.322,4.4-8.356,9.121-11.85,13.623
							c-1.786,2.293-3.43,4.529-4.908,6.638c1.279-2.173,0.649-0.048,0.638-0.031c-0.174,0.252-1.791,3.459-1.714,3.427
							c-0.134,0.276-3.164,3.405-5.894,8.063c-2.729,4.655-9.153,12.202-15.281,5.478c-1.909-2.095-2.542-4.057-2.591-6.902
							c-0.123-7.098,9.828-23.586,21.839-37.041c2.056-2.305,6.876-3.047,9.085-5.244c8.537-8.517,16.846-6.254,26.077-10.031
							c4.104-1.683,9.989-9.394,11.672-5.288C153.816,116.11,151.85,120.801,147.745,122.477z"/>
					</g>
					<path d="M196.377,131.354v92.112c0,11.818-9.674,21.485-21.486,21.485h-34.287c-11.813,0-21.485-9.667-21.485-21.485v-92.112
						c0-4.178,1.208-8.09,3.295-11.391c0.829-1.317,1.792-2.538,2.876-3.643c3.907-3.981,9.34-6.453,15.313-6.453h34.288
						c0.776,0,1.541,0.037,2.291,0.12C187.932,111.145,196.377,120.31,196.377,131.354z"/>
					<path d="M119.119,147.938c1.963,11.322,15.118,14.219,40.859,14.219c16.35,0,33.558-3.238,36.399-11.278v21.91l-77.259-1.468
						L119.119,147.938l-0.001-1.453l-0.265-1.756C118.854,145.869,118.945,146.936,119.119,147.938L119.119,147.938z"/>
					<g>
						<path fill="#F0BA94" d="M244.883,170.926c-0.479,2.024-1.303,3.953-2.65,5.463c-1.762,1.975-3.451,2.223-6.062,2.223
							c-5.075,0-8.642-3.184-15.524-12.893c-1.932-2.724-3.994-5.637-6.135-8.466c-2.037-2.708-4.148-5.341-6.264-7.681
							c-5.96-6.564-8.611-6.901-8.896-6.922c-3.812-0.229-6.718-3.502-6.484-7.313c0.227-3.813,3.507-6.715,7.314-6.486
							c10.907,0.653,20.432,12.91,31.744,28.871c0.17,0.234,0.34,0.481,0.516,0.723c-0.584-5.484-0.135-9.522,0-13.327
							c0.023-0.642,3.861-2.685,5.146-2.832c0.123-0.015,0.246-0.022,0.37-0.028c3.636-0.223,4.966-3.498,5.388,0.17
							C243.624,144.895,245.706,167.449,244.883,170.926z"/>
						<path fill="#CC9B7A" d="M217.25,138.732c1.445,3.533-0.241,23.848-3.132,20.715c-2.89-3.131-6.502-8.832-6.502-8.832
							l3.13-8.672L217.25,138.732z"/>
					</g>
					<path fill="#CC9B7A" d="M245.057,169.834c0,2.76,0.032,5.564-0.854,7.387c-1.136,2.326-4.927,5.137-9.851,3.104
						c-6.183-2.555-20.394-20.956-29.707-33.16c0-3.002,6.746,0.081,6.746,0.081s13.115,16.915,16.746,21.237
						c3.627,4.32,8.356,9.058,13.387,6.81C243.668,174.334,244.375,172.059,245.057,169.834z"/>
					<path d="M119.499,146.171c-4.323,4.399-6.584,8.8-10.079,13.304c-8.35-6.209-8.78-13.955-7.387-18.414
						c3.533-4.066,4.58-4.684,6.789-6.879C111.115,136.658,116.152,142.305,119.499,146.171z"/>
				</g>
				<path fill="#0B313F" d="M172.801,318.637c-0.003-0.402-0.006-0.813-0.006-1.242c0-6.633,3.986-10.473,8.125-11.863
					c0.938-0.391,1.906-0.604,2.881-0.604c0.11,0,0.221,0.002,0.333,0.01c0.112-0.008,0.224-0.01,0.334-0.01
					c0.976,0,1.941,0.213,2.882,0.604c4.139,1.393,8.125,5.23,8.125,11.863c0,0.43-0.002,0.84-0.008,1.242
					c0.012,0.326,0.002,0.645-0.013,0.959c-0.169,8.104-1.606,10.266-10.874,10.266c-0.15,0-0.299-0.006-0.446-0.01
					c-0.147,0.004-0.295,0.01-0.444,0.01c-9.265,0-10.703-2.162-10.873-10.266C172.797,319.279,172.791,318.963,172.801,318.637z"/>
				<path fill="#BC3335" d="M124.754,270.602v20.271c-3.621,0-6.669-0.271-9.209-0.761c-8.37-1.604-11.277-5.592-11.277-10.221
					v-24.986c0-2.357,0.754-4.547,2.041-6.34c0.877-1.235,2.012-2.291,3.326-3.078c1.646-0.983,3.568-1.561,5.619-1.561h0.005
					l4.171,11.706l3.563,10.022L124.754,270.602z"/>
				<path fill="#BC3335" d="M213.916,254.908v24.98c0,6.043-4.943,10.982-10.98,10.982h-87.684c0,0,0.104-0.277,0.29-0.762
					c1.384-3.68,7.235-19.518,5.105-19.518c-2.399,0-5.395-0.691-5.395-5.201v-13.687c0-4.261,0-7.782,0-7.782h87.684
					C208.971,243.924,213.916,248.863,213.916,254.908z"/>
				<path fill="#BC3335" d="M148.815,268.025c-22.267-0.854-38.083-13.823-39.569-15.644c-1.312-1.626-2.464-2.747-2.937-3.817
					c0.877-1.235,2.012-2.291,3.326-3.078c1.646-0.983,3.568-1.561,5.619-1.561h0.005l7.438,9.48L148.815,268.025z"/>
				<path fill="#BC3335" d="M213.915,282.264c0,6.418-5.899,11.666-13.108,11.666h-83.426c-7.211,0-13.109-5.252-13.11-11.666
					c0-6.416,5.899-11.666,13.11-11.666h83.426C208.016,270.598,213.915,275.848,213.915,282.264z"/>
				<g>
					<path fill="#97AAAD" d="M165.938,379.875c0,1.58-1.291,2.869-2.87,2.869h-7.787c-1.58,0-2.872-1.289-2.872-2.869v-3.277
						c0-1.578,1.292-2.871,2.872-2.871h7.787c1.579,0,2.87,1.293,2.87,2.871V379.875z"/>
					<path fill="none" stroke="#97AAAD" stroke-width="4.0139" stroke-linejoin="round" stroke-miterlimit="10" d="M165.938,379.875
						c0,1.58-1.291,2.869-2.87,2.869h-7.787c-1.58,0-2.872-1.289-2.872-2.869v-3.277c0-1.578,1.292-2.871,2.872-2.871h7.787
						c1.579,0,2.87,1.293,2.87,2.871V379.875z"/>
				</g>
				<path fill="#433A47" d="M168.429,369.816v6.014h-18.512v-6.014c0-4.025,3.803-7.301,8.466-7.301h1.584
					c4.466,0,8.134,3.006,8.435,6.795C168.422,369.479,168.429,369.646,168.429,369.816z"/>
				<path fill="#97AAAD" d="M206.406,351.096c0,4.066,3.293,7.361,7.359,7.361c4.063,0,7.359-3.295,7.359-7.361"/>
				
					<line fill="none" stroke="#433A47" stroke-width="25.5106" stroke-linecap="round" stroke-linejoin="round" stroke-miterlimit="10" x1="160.896" y1="331.949" x2="204.875" y2="331.949"/>
				
					<line fill="none" stroke="#433A47" stroke-width="25.5106" stroke-linecap="round" stroke-linejoin="round" stroke-miterlimit="10" x1="115.982" y1="331.949" x2="159.96" y2="331.949"/>
				<g>
					<path fill="#433A47" d="M109.662,345.434c-0.866,0-1.735-0.316-2.418-0.955c-1.422-1.338-2.878-5.607-1.542-7.033l2.676-7.637
						c1.336-1.42,8.208,1.871,9.63,3.207c1.422,1.336,1.492,3.57,0.157,4.994l-5.927,6.311
						C111.542,345.061,110.604,345.434,109.662,345.434z"/>
				</g>
				<g>
					<path fill="#433A47" d="M211.059,345.434c-0.941,0-1.881-0.373-2.576-1.113l-5.926-6.311c-1.334-1.424-1.264-3.658,0.158-4.994
						c1.424-1.336,9.715-2.486,11.051-1.064l-0.131,7.531c1.336,1.424,1.266,3.658-0.158,4.996
						C212.795,345.115,211.928,345.434,211.059,345.434z"/>
				</g>
				
					<line fill="none" stroke="#433A47" stroke-width="29.0426" stroke-linecap="round" stroke-linejoin="round" stroke-miterlimit="10" x1="159.092" y1="315.637" x2="159.092" y2="357.188"/>
				<polygon fill="#BC3335" points="162.989,270.598 149.686,270.598 107.172,258.178 139.307,243.924 				"/>
				<g>
					<path fill="#433A47" d="M166.161,295.245v28.583c0,3.9-3.166,7.066-7.065,7.066c-1.581,0-3.039-0.521-4.214-1.395
						c-1.734-1.291-2.853-3.354-2.853-5.674v-28.582c0-0.34,0.026-0.667,0.071-0.994c0.48-3.432,3.43-6.068,6.995-6.068
						C162.995,288.182,166.161,291.341,166.161,295.245z"/>
					<path fill="#433A47" d="M166.161,295.245v18.546c-2.396,2.396-7.968,3.025-7.968,3.025v9.305c0,0-5.495-1.902-6.163-1.732
						v-29.144c0-3.904,3.16-7.063,7.066-7.063C162.995,288.182,166.161,291.341,166.161,295.245z"/>
					<path fill="#433A47" d="M159.096,325.891c-3.906,0-7.066-3.166-7.066-7.064l-0.642,5.646c0,3.898,3.802,7.064,7.708,7.064
						c3.899,0,7.708-3.166,7.708-7.064l-0.643-5.646C166.161,322.725,162.995,325.891,159.096,325.891z"/>
					<path fill="#433A47" d="M159.096,297.184c-3.906,0-7.066-3.166-7.066-7.065l-0.642,5.646c0,3.898,3.802,7.064,7.708,7.064
						c3.899,0,7.708-3.166,7.708-7.064l-0.643-5.646C166.161,294.018,162.995,297.184,159.096,297.184z"/>
				</g>
				<g opacity="0.2">
					<path fill="#1F3242" d="M177.045,181.141c14.055-1.185,25.555,9.387,25.555,23.49v15.354c0,14.105-11.539,25.645-25.644,25.645
						h-38.119c-14.104,0-25.644-11.54-25.644-25.645v-7.817c0-14.104,11.499-26.61,25.553-27.798L177.045,181.141z"/>
				</g>
				<path fill="#433A47" d="M213.915,285.122c0,0,0,3.024,0,6.722c0,3.693-5.899,6.721-13.108,6.721h-83.426
					c-7.211,0-13.109-3.021-13.109-6.721c0-3.695,0-6.722,0-6.722"/>
				<path fill="#1F2126" d="M135.021,210.087c-10.792,0.045-18.994,5.021-18.227,11.06c0.768,6.035,3.36,19.817,6.923,29.61
					c3.564,9.793,16.259,16.972,27.052,16.972l23.049-0.914c11.563-2.567,14.68-7.433,19.27-19.27
					c4.592-11.836,5.178-26.197,4.482-30.283c-0.691-4.084-10.09-7.389-20.879-7.345L135.021,210.087z"/>
				<path fill="#97AAAD" d="M99.792,351.096c0,4.066,3.295,7.361,7.361,7.361c4.065,0,7.36-3.295,7.36-7.361"/>
				<g>
					<path fill="#433A47" d="M100.221,352.949c-0.712,0-1.289-0.576-1.289-1.287c0-4.771,3.879-8.65,8.649-8.65
						c4.769,0,8.649,3.881,8.649,8.65c0,0.711-0.578,1.287-1.289,1.287H100.221z"/>
					<g>
						<path fill="#433A47" d="M107.153,343.02c4.065,0,7.36,3.293,7.36,7.357H99.792C99.792,346.313,103.088,343.02,107.153,343.02
							 M107.153,340.438c-5.48,0-9.938,4.459-9.938,9.938c0,1.426,1.154,2.578,2.578,2.578h14.721c1.423,0,2.577-1.152,2.577-2.578
							C117.091,344.896,112.633,340.438,107.153,340.438L107.153,340.438z"/>
					</g>
				</g>
				<g>
					<path fill="#433A47" d="M206.406,351.664c-0.713,0-1.29-0.574-1.29-1.287c0-4.77,3.879-8.65,8.649-8.65
						c4.768,0,8.649,3.881,8.649,8.65c0,0.713-0.578,1.287-1.29,1.287H206.406z"/>
					<g>
						<path fill="#433A47" d="M213.766,343.02c4.064,0,7.36,3.293,7.36,7.357h-14.72C206.406,346.313,209.7,343.02,213.766,343.02
							 M213.766,340.438c-5.479,0-9.938,4.459-9.938,9.938c0,1.426,1.154,2.578,2.578,2.578h14.721c1.424,0,2.578-1.152,2.578-2.578
							C223.704,344.896,219.245,340.438,213.766,340.438L213.766,340.438z"/>
					</g>
				</g>
				<path d="M213.477,150.107c-1.998,1.779-4.785,3.154-8.563,3.56c-2.921,0.315-5.825-0.836-8.536-2.763
					c-3.918-2.774-7.45-7.154-10.103-11.041c-3.033-4.45-4.914-8.248-4.914-8.248s-9.541-21.922-4.178-21.626
					c7.818,0.432,26.176,2.563,43.094,27.935C221.545,139.818,217.811,146.248,213.477,150.107z"/>
				<path d="M145.499,115.09c-1.137,6.396-5.543,16.525-5.543,16.525s-1.015,2.462-2.788,5.783
					c-3.623,6.793-10.392,17.207-18.049,17.592c-0.442,0.02-0.899,0.014-1.348-0.038c-11.993-1.285-18.593-14.261-16.75-17.028
					c7.542-11.306,17.193-19.429,23.552-23.552c7.9-5.133,15.223-4.144,19.558-4.383
					C145.845,109.894,146.039,112.078,145.499,115.09z"/>
				<path d="M246.4,172.609c0,4.256-3.449,7.709-7.709,7.709h-1.713c-4.256,0-7.707-3.453-7.707-7.709v-16.272
					c0-4.258,3.451-7.71,7.707-7.71h1.713c4.259,0,7.709,3.452,7.709,7.71V172.609z"/>
				<rect x="229.913" y="148.415" fill="#FFFFFF" width="17.129" height="6.21"/>
				<path d="M242.333,181.604c-3.101,2.916-9.384,0.879-12.299-2.222L204.65,153.34c-2.918-3.1-2.188-8.285,0.912-11.203
					l1.229-6.781c3.1-2.918,10.143-0.746,13.061,2.354l24.193,27.833c2.918,3.102,2.948,11.676-0.152,14.591L242.333,181.604z"/>
				<g>
					<path fill="#BC3335" d="M211.221,207.126l-103.181-2.87l1.38-15.729l2.832-32.133c0.541-9.475,7.817-17.439,16.9-19.244
						c1.265-0.25,2.563-0.387,3.887-0.387h52.105c10.814,0,20.25,8.827,20.978,19.617L211.221,207.126z"/>
					<path fill="#BC3335" d="M131.902,161.83l-12.417,18.838c0,0-8.35,12.204-8.992,10.064c-0.161-0.532-0.565-1.31-1.073-2.205
						l2.832-32.133c0.541-9.475,7.817-17.439,16.9-19.244c-0.719,1.375-1.111,2.904-1.316,4.338
						c-0.431,2.998-1.594,7.707,4.773,8.137C138.966,150.057,131.902,161.83,131.902,161.83z"/>
					<path fill="#BC3335" d="M123.934,235.087c-10.815,0-18.959-8.819-18.101-19.603l5.982-49.354
						c0.859-10.779,10.412-19.602,21.227-19.602h52.103c10.814,0,20.367,8.82,21.226,19.602l5.983,49.354
						c0.858,10.781-7.285,19.603-18.102,19.603H123.934z"/>
				</g>
				<path fill="#F0BA94" d="M169.182,91.56v15.813c0,5.461-4.689,7.406-10.424,7.406h-1.959c-0.617,0-1.221-0.026-1.812-0.071
					c-4.881-0.391-8.613-2.464-8.613-7.335V91.56c0-5.454,4.689-9.917,10.425-9.917h1.959
					C164.493,81.643,169.182,86.105,169.182,91.56z"/>
				<path fill="#F0BA94" d="M169.182,97.884c0,5.453-4.69,8.787-10.424,8.787h-1.961c-5.733,0-10.424-3.334-10.424-8.787V84.14
					c0-5.454,4.691-9.916,10.424-9.916h1.961c5.734,0,10.424,4.462,10.424,9.916V97.884z"/>
				<path fill="#CAD80E" d="M102.695,166.488c-0.174,0.25-0.347,0.494-0.514,0.738C102.354,166.95,102.521,166.707,102.695,166.488z
					"/>
				<path fill="#F0BA94" d="M158.024,106.591c-3.854,0-3,5.028-3,8.027c0,0-0.012,0.032-0.038,0.09
					c-4.881-0.391-8.613-2.464-8.613-7.335v-8.221c0.617-1.574,0.193-2.319,0.193-3.481c0-1.177,13.276,0.642,13.708,1.177
					C160.696,97.385,161.878,106.591,158.024,106.591z"/>
				<path fill="#FFFFFF" d="M171.356,110.196c-0.857,8.563-5.997,8.672-12.696,8.672h-1.971
					c-11.236-0.147-12.204-2.859-13.167-8.029l2.784-5.889c0,0,1.927,6.808,10.919,6.745c8.515-0.06,12.096-6.53,12.096-6.53
					L171.356,110.196z"/>
				<path fill="#383838" d="M178.313,109.876c-0.855,8.563-12.997,10.597-19.697,10.597h-1.972
					c-11.235-0.148-18.689-5.426-19.653-10.597l7.172-1.178c0,0,4.015,6.156,13.006,6.093c8.516-0.06,14.187-6.309,14.187-6.309
					L178.313,109.876z"/>
			</g>
			<path fill="#F0BA94" d="M231.246,142.882c-0.643-1.073-1.287,1.128-1.5-2.916c-0.211-4.044-1.496-6.505-0.747-6.72
				c0.751-0.213,2.998-1.605,3.319,2.783c0.32,4.39,0.213,5.888,0.213,5.888L231.246,142.882z"/>
			
				<line fill="none" stroke="#433A47" stroke-width="20" stroke-linecap="round" stroke-linejoin="round" stroke-miterlimit="10" x1="159.092" y1="225.91" x2="159.092" y2="293.303"/>
			<path fill="#362E3A" d="M127.788,224.811c-3.417,0-6.511-1.312-8.709-3.69c-2.174-2.354-3.235-5.495-2.999-8.858l4.717-38.953
				l0.011-0.129c0.592-7.42,7.379-13.691,14.822-13.691h46.324c7.442,0,14.229,6.271,14.821,13.691l0.011,0.129l5.317,38.953
				c0.238,3.363-0.824,6.504-2.998,8.858c-2.197,2.38-5.291,3.69-8.707,3.69l0,0H127.788z"/>
			<path fill="#433A47" d="M127.788,228.663c-3.417,0-6.511-1.312-8.709-3.69c-2.174-2.354-3.235-5.494-2.999-8.854l4.717-38.954
				l0.011-0.133c0.592-7.42,7.379-13.688,14.822-13.688h46.324c7.442,0,14.229,6.27,14.821,13.688l0.011,0.133l5.317,38.954
				c0.238,3.36-0.824,6.503-2.998,8.854c-2.197,2.381-5.291,3.691-8.707,3.691l0,0L127.788,228.663z"/>
			<g>
				<g>
					<g>
						<path fill="#F0BA94" d="M179.406,72.039c0,0,2.228-3.766,4.297-2.381c2.068,1.385,2.385,7.021,1.084,10.256
							c-1.299,3.235-6.674,5.049-7.436,4.297c-0.762-0.748-0.062-1.485-0.062-1.485L179.406,72.039z"/>
					</g>
					<g>
						<path fill="#F0BA94" d="M139.16,82.334c0,0-0.757,3.895-3.69,2.203c-2.933-1.693-5.859-7.851-5.893-11.253
							c-0.032-3.401,5.116-4.891,6.308-4.004c1.188,0.882,0.748,1.622,0.748,1.622L139.16,82.334z"/>
					</g>
					<path fill="#5D0200" d="M181.477,62.371l-0.047,1.336l-0.432,11.766c-0.126,3.367-0.885,6.782-2.146,10.018
						c-1.86,4.755-4.81,9.108-8.431,12.271c-2.517,2.346-5.58,4.018-8.936,4.737c-0.205,0.045-0.404,0.08-0.61,0.112
						c-0.086,0.02-0.167,0.033-0.252,0.046c-0.299,0.055-0.598,0.094-0.896,0.126c0,0,0,0-0.007,0
						c-0.306,0.033-0.618,0.062-0.931,0.08c-0.06,0-0.12,0-0.18,0.007c-0.2,0.007-0.398,0.019-0.597,0.019h-0.232
						c-6.491,0-12.305-3.546-15.852-8.928c-4.065-5.141-6.709-11.864-6.962-18.375l-0.525-11.371
						c-0.206-5.24,1.302-10.11,4.019-14.069c0.16-0.232,0.299-0.489,0.499-0.69c5.771-5.83,9.703-8.683,20.369-8.665
						C172.068,41.342,181.955,49.482,181.477,62.371z"/>
					<path fill="#5D0200" d="M178.169,50.716c3.517-2.817,5.817,7.235,4.995,16.319c-0.826,9.076-2.066,11.794-5.493,19.932
						C178.313,77.331,171.691,55.903,178.169,50.716z"/>
					<path display="none" fill="#D6935C" d="M156.198,63.342c0.002,0.07-0.451,0.172-1.199,0.185
						c-0.373,0.004-0.818-0.014-1.314-0.104c-0.247-0.044-0.507-0.108-0.773-0.219c-0.266-0.107-0.547-0.251-0.791-0.529
						c-0.117-0.142-0.214-0.319-0.258-0.512c-0.05-0.201-0.04-0.393-0.021-0.556c0.042-0.345,0.176-0.654,0.341-0.896
						c0.346-0.483,0.769-0.737,1.115-0.907c0.707-0.328,1.18-0.341,1.192-0.278c0.018,0.076-0.424,0.224-1.044,0.613
						c-0.304,0.201-0.661,0.47-0.91,0.863c-0.124,0.198-0.212,0.423-0.235,0.67c-0.031,0.272,0.013,0.452,0.165,0.637
						c0.32,0.359,0.855,0.521,1.302,0.633c0.459,0.113,0.887,0.167,1.25,0.211C155.737,63.235,156.196,63.267,156.198,63.342z"/>
					<path display="none" fill="#5D0200" d="M145.7,48.338c-0.056-0.028-0.049-0.244,0.092-0.555c0.131-0.299,0.472-0.736,1-0.818
						c0.519-0.079,0.934,0.149,1.179,0.34c0.249,0.194,0.355,0.381,0.312,0.438c-0.039,0.059-0.206-0.009-0.463-0.101
						c-0.253-0.094-0.607-0.211-0.96-0.148c-0.346,0.049-0.611,0.298-0.797,0.51C145.877,48.212,145.758,48.371,145.7,48.338z"/>
					<path display="none" fill="#5D0200" d="M164.839,49.269c-0.064,0.026-0.177-0.184-0.363-0.479
						c-0.188-0.289-0.471-0.657-0.89-0.804c-0.415-0.151-0.856-0.071-1.17,0.003c-0.315,0.077-0.516,0.147-0.549,0.085
						c-0.038-0.062,0.117-0.255,0.438-0.437c0.315-0.175,0.842-0.362,1.427-0.156c0.589,0.214,0.911,0.764,1.036,1.133
						C164.9,48.993,164.897,49.246,164.839,49.269z"/>
					<path display="none" fill="#291D11" d="M161.097,54.4c-0.289,1.477,0.014,2.806,0.672,2.968
						c0.66,0.164,1.427-0.898,1.718-2.377c0.286-1.476-0.013-2.807-0.673-2.971C162.156,51.856,161.386,52.922,161.097,54.4z"/>
					<path display="none" fill="#291D11" d="M146.766,54.381c0.21,1.494,0.924,2.606,1.589,2.487
						c0.667-0.12,1.037-1.428,0.824-2.921c-0.214-1.494-0.924-2.605-1.594-2.487C146.923,51.579,146.555,52.888,146.766,54.381z"/>
					<path fill="#5D0200" d="M147.196,52.41c0,0-5.427,0.461-6.781,5.773c-1.354,5.308-2.062,13.381-2.062,13.381
						s-1.124-1.326-2.623-1.18l0,0c0,0-2.017-4.477-1.48-11.793c0.463-6.293,1.747-14.069,6.794-10.877
						C144.461,49.877,147.196,52.41,147.196,52.41z"/>
					<path fill="#5D0200" d="M177.671,78.293c0,0-3.854-11.239-9.474-14.932c-6.975-4.583-14.965-3.958-19.912-3.694
						c-4.946,0.266-15.016-9.784-17.764-18.989c0,0,6.124,3.896,10.13,4.514c0,0-5.832-4.334-6.096-8.407
						c0,0,5.775,8.143,13.905,5.398c0,0-6.791-1.148-8.911-4.866c0,0,7.383,3.276,13.666,1.595
						c6.283-1.684,19.633-4.96,22.067,8.407c0,0,1.444-0.82,1.678-2.214c0,0,0.208,2.355-0.735,3.586c0,0,2.416-0.365,3.211-1.992
						c0,0-0.207,2.224-1.268,4.018c0,0,1.191,24.887-0.177,28.382"/>
				</g>
			</g>
			<g id="Layer_1_39_">
				<polygon fill="#FFFFFF" points="287.232,113.004 265.375,129.502 247.009,105.18 268.866,88.682 				"/>
			</g>
			<g>
				<polygon fill="#A6AEB8" points="68.201,113.411 68.201,113.425 60.063,113.271 52.283,81.694 68.302,81.849 				"/>
				<path fill="#6D6E70" d="M68.201,113.411l7.804-0.14l7.83-31.577l-15.533,0.141v0.014L68.201,113.411z M68.201,113.425v-0.014"/>
				
					<use xlink:href="#lineika_1"  width="36.425" height="98.601" x="-18.212" y="-49.3" transform="matrix(0.4499 0.2441 0.2441 -0.4499 84.2139 59.4751)" overflow="visible"/>
				
					<use xlink:href="#pens_1"  width="45.961" height="47.835" x="-22.98" y="-23.918" transform="matrix(0.5118 0 0 -0.5118 59.2524 68.8647)" overflow="visible"/>
				
					<use xlink:href="#crayon2_1"  width="52.95" height="21.15" x="-26.475" y="-10.575" transform="matrix(0.5118 -0.0022 -0.0022 -0.5118 51.0156 75.7378)" overflow="visible"/>
			</g>
			<g id="Layer_1_36_">
				<path fill="#8F6DAF" d="M256.682,102.654l1.863-0.397c0.373-0.076,0.721-0.015,1.049,0.188c0.324,0.216,0.525,0.51,0.604,0.883
					l0.046,0.188c0.079,0.371,0.016,0.722-0.186,1.048c-0.218,0.325-0.514,0.527-0.886,0.605l-1.862,0.395
					c0.278-0.325,0.365-0.805,0.256-1.441C257.441,103.438,257.146,102.947,256.682,102.654z M256.379,103.538
					c0.514,0.667,0.441,1.406-0.208,2.213l-22.676,4.982c0.17-0.296,0.271-0.644,0.303-1.05c0.032-0.806-0.342-1.45-1.118-1.932
					l22.744-4.982L256.379,103.538z M232.913,108.637c0.481,0.574,0.442,1.288-0.116,2.143l-4.609-0.326l3.819-2.443
					L232.913,108.637z"/>
			</g>
		</g>
	</g>
</g>
</svg>
