<?xml version="1.0" encoding="utf-8"?>
<!-- Generator: Adobe Illustrator 15.1.0, SVG Export Plug-In . SVG Version: 6.00 Build 0)  -->
<!DOCTYPE svg PUBLIC "-//W3C//DTD SVG 1.1//EN" "http://www.w3.org/Graphics/SVG/1.1/DTD/svg11.dtd">
<svg version="1.1" id="Layer_1" xmlns="http://www.w3.org/2000/svg" xmlns:xlink="http://www.w3.org/1999/xlink" x="0px" y="0px"
	 width="796px" height="117px" viewBox="0 0 796 117" enable-background="new 0 0 796 117" xml:space="preserve">
<rect x="-203.206" y="-218.047" fill-rule="evenodd" clip-rule="evenodd" fill="none" width="1210.825" height="22.188"/>
<text transform="matrix(1.0391 0 0 1 -203.2061 -206.3174)" display="none" fill="#231F20" font-family="'Consolas'" font-size="17">R – Responsible – сотрудник, ответственный за фактическое исполнение KPI.</text>
<rect x="-245.206" y="-225.047" fill-rule="evenodd" clip-rule="evenodd" fill="none" width="1210.825" height="22.188"/>
<text transform="matrix(1.0391 0 0 1 -245.2061 -213.3174)" display="none" fill="#231F20" font-family="'Consolas'" font-size="17">R – Responsible – сотрудник, ответственный за фактическое исполнение KPI.</text>
<g>
	<g>
		<g>
			<rect x="168" y="79.127" fill="#6D6E70" width="141.379" height="1"/>
		</g>
		<g>
			<g>
				<path fill="#6D6E70" d="M313,79.626c-1.704-0.632-3.818-1.711-5.128-2.854l1.032,2.854l-1.032,2.853
					C309.182,81.337,311.296,80.258,313,79.626z"/>
			</g>
		</g>
	</g>
	<g>
		<g>
			<rect x="483" y="79.127" fill="#6D6E70" width="125.379" height="1"/>
		</g>
		<g>
			<g>
				<path fill="#6D6E70" d="M612,79.626c-1.704-0.632-3.818-1.711-5.129-2.854l1.033,2.854l-1.033,2.853
					C608.182,81.337,610.296,80.258,612,79.626z"/>
			</g>
		</g>
	</g>
	<g>
		<rect x="9" y="49" fill="#C0E247" width="171" height="58"/>
	</g>
	<g>
		<path fill="#231F20" d="M56.203,82.703h-1.478v-9.538h-4.449v9.538h-1.478V71.854h7.404V82.703z"/>
		<path fill="#231F20" d="M65.757,78.47c0,0.647-0.091,1.241-0.274,1.78c-0.183,0.54-0.445,1.002-0.789,1.387
			s-0.761,0.684-1.253,0.896s-1.051,0.319-1.677,0.319c-0.598,0-1.133-0.093-1.606-0.278c-0.473-0.186-0.874-0.458-1.203-0.817
			c-0.33-0.359-0.581-0.805-0.756-1.336c-0.174-0.531-0.261-1.144-0.261-1.835c0-0.647,0.091-1.238,0.274-1.772
			S58.657,75.82,59,75.436s0.761-0.684,1.253-0.896s1.051-0.319,1.677-0.319c0.598,0,1.133,0.093,1.606,0.278
			c0.473,0.186,0.874,0.456,1.203,0.813c0.33,0.356,0.581,0.801,0.756,1.332C65.67,77.175,65.757,77.783,65.757,78.47z
			 M64.28,78.536c0-0.515-0.057-0.964-0.17-1.349c-0.113-0.385-0.275-0.706-0.485-0.963c-0.21-0.258-0.466-0.451-0.768-0.581
			c-0.302-0.13-0.638-0.195-1.009-0.195c-0.432,0-0.801,0.084-1.108,0.253c-0.307,0.169-0.559,0.395-0.755,0.677
			c-0.197,0.282-0.341,0.61-0.432,0.983c-0.092,0.374-0.137,0.766-0.137,1.175c0,0.515,0.057,0.966,0.17,1.354
			c0.113,0.387,0.275,0.709,0.485,0.967c0.21,0.257,0.465,0.451,0.764,0.581s0.636,0.194,1.013,0.194
			c0.432,0,0.801-0.084,1.108-0.253c0.307-0.169,0.559-0.394,0.755-0.677c0.197-0.281,0.341-0.609,0.432-0.983
			C64.234,79.346,64.28,78.951,64.28,78.536z"/>
		<path fill="#231F20" d="M75.585,81.458l-0.091,3.37h-1.32v-2.125h-6.076v2.125h-1.303l-0.083-3.37h0.116
			c0.21,0,0.41-0.033,0.598-0.1s0.362-0.192,0.523-0.378s0.309-0.442,0.444-0.771c0.136-0.329,0.258-0.756,0.365-1.278
			c0.108-0.523,0.202-1.158,0.282-1.905c0.081-0.747,0.148-1.633,0.204-2.656h5.146v7.089H75.585z M72.946,75.614h-2.324
			c-0.055,0.952-0.127,1.763-0.216,2.432c-0.088,0.67-0.192,1.231-0.311,1.686c-0.119,0.454-0.256,0.816-0.411,1.088
			c-0.155,0.271-0.327,0.483-0.515,0.639h3.777V75.614z"/>
		<path fill="#231F20" d="M79.337,75.614v7.089h-1.461v-8.334h6.035v1.245H79.337z"/>
		<path fill="#231F20" d="M93.797,78.47c0,0.647-0.091,1.241-0.274,1.78c-0.183,0.54-0.445,1.002-0.789,1.387
			s-0.761,0.684-1.253,0.896s-1.051,0.319-1.677,0.319c-0.598,0-1.133-0.093-1.606-0.278c-0.473-0.186-0.874-0.458-1.203-0.817
			c-0.33-0.359-0.581-0.805-0.756-1.336c-0.174-0.531-0.261-1.144-0.261-1.835c0-0.647,0.091-1.238,0.274-1.772
			s0.445-0.993,0.789-1.378s0.761-0.684,1.253-0.896s1.051-0.319,1.677-0.319c0.598,0,1.133,0.093,1.606,0.278
			c0.473,0.186,0.874,0.456,1.203,0.813c0.33,0.356,0.581,0.801,0.756,1.332C93.71,77.175,93.797,77.783,93.797,78.47z
			 M92.32,78.536c0-0.515-0.057-0.964-0.17-1.349c-0.113-0.385-0.275-0.706-0.485-0.963c-0.21-0.258-0.466-0.451-0.768-0.581
			c-0.302-0.13-0.638-0.195-1.009-0.195c-0.432,0-0.801,0.084-1.108,0.253c-0.307,0.169-0.559,0.395-0.755,0.677
			c-0.197,0.282-0.341,0.61-0.432,0.983c-0.092,0.374-0.137,0.766-0.137,1.175c0,0.515,0.057,0.966,0.17,1.354
			c0.113,0.387,0.275,0.709,0.485,0.967c0.21,0.257,0.465,0.451,0.764,0.581s0.636,0.194,1.013,0.194
			c0.432,0,0.801-0.084,1.108-0.253c0.307-0.169,0.559-0.394,0.755-0.677c0.197-0.281,0.341-0.609,0.432-0.983
			C92.274,79.346,92.32,78.951,92.32,78.536z"/>
		<path fill="#231F20" d="M103.127,75.614h-3.163v7.089h-1.461v-7.089h-3.163v-1.245h7.786V75.614z"/>
		<path fill="#231F20" d="M112.491,78.47c0,0.647-0.091,1.241-0.274,1.78c-0.183,0.54-0.445,1.002-0.789,1.387
			s-0.761,0.684-1.253,0.896s-1.051,0.319-1.677,0.319c-0.598,0-1.133-0.093-1.606-0.278c-0.473-0.186-0.874-0.458-1.203-0.817
			c-0.33-0.359-0.581-0.805-0.756-1.336c-0.174-0.531-0.261-1.144-0.261-1.835c0-0.647,0.091-1.238,0.274-1.772
			s0.445-0.993,0.789-1.378s0.761-0.684,1.253-0.896s1.051-0.319,1.677-0.319c0.598,0,1.133,0.093,1.606,0.278
			c0.473,0.186,0.874,0.456,1.203,0.813c0.33,0.356,0.581,0.801,0.756,1.332C112.403,77.175,112.491,77.783,112.491,78.47z
			 M111.013,78.536c0-0.515-0.057-0.964-0.17-1.349c-0.113-0.385-0.275-0.706-0.485-0.963c-0.21-0.258-0.466-0.451-0.768-0.581
			c-0.302-0.13-0.638-0.195-1.009-0.195c-0.432,0-0.801,0.084-1.108,0.253c-0.307,0.169-0.559,0.395-0.755,0.677
			c-0.197,0.282-0.341,0.61-0.432,0.983c-0.092,0.374-0.137,0.766-0.137,1.175c0,0.515,0.057,0.966,0.17,1.354
			c0.113,0.387,0.275,0.709,0.485,0.967c0.21,0.257,0.465,0.451,0.764,0.581s0.636,0.194,1.013,0.194
			c0.432,0,0.801-0.084,1.108-0.253c0.307-0.169,0.559-0.394,0.755-0.677c0.197-0.281,0.341-0.609,0.432-0.983
			C110.968,79.346,111.013,78.951,111.013,78.536z"/>
		<path fill="#231F20" d="M121.738,80.271c0,0.383-0.08,0.73-0.241,1.047c-0.161,0.314-0.41,0.585-0.747,0.809
			c-0.337,0.225-0.765,0.398-1.282,0.523c-0.518,0.124-1.133,0.187-1.847,0.187c-0.47,0-0.971-0.018-1.502-0.054
			s-1.043-0.085-1.536-0.146v-8.226c0.52-0.062,1.047-0.108,1.582-0.142c0.534-0.033,1.111-0.05,1.73-0.05
			c1.124,0,1.977,0.184,2.561,0.552c0.584,0.368,0.876,0.898,0.876,1.59c0,0.471-0.136,0.874-0.407,1.212s-0.681,0.587-1.229,0.747
			c0.266,0.044,0.521,0.117,0.768,0.22c0.246,0.103,0.463,0.235,0.651,0.398s0.339,0.355,0.452,0.577
			C121.681,79.737,121.738,79.989,121.738,80.271z M119.854,76.651c0-0.193-0.039-0.367-0.116-0.522s-0.201-0.288-0.369-0.398
			c-0.169-0.11-0.391-0.195-0.664-0.253c-0.274-0.059-0.605-0.088-0.992-0.088c-0.349,0-0.653,0.008-0.913,0.021
			s-0.518,0.037-0.772,0.07v2.407h1.677C119.137,77.889,119.854,77.477,119.854,76.651z M120.21,80.304
			c0-0.432-0.195-0.756-0.585-0.975c-0.39-0.219-0.997-0.328-1.822-0.328h-1.776v2.549c0.271,0.044,0.54,0.074,0.805,0.091
			s0.57,0.024,0.913,0.024c0.493,0,0.898-0.033,1.216-0.1c0.318-0.066,0.57-0.16,0.756-0.281c0.185-0.122,0.314-0.266,0.386-0.432
			S120.21,80.503,120.21,80.304z"/>
		<path fill="#231F20" d="M131.425,82.703h-1.984l-3.885-4.466v4.466h-1.444v-8.334h1.444v3.81l3.744-3.81h1.909l-3.91,3.843
			L131.425,82.703z"/>
		<path fill="#231F20" d="M138.63,82.703l-0.033-1.12c-0.454,0.447-0.915,0.771-1.382,0.971c-0.468,0.199-0.959,0.299-1.474,0.299
			c-0.476,0-0.883-0.061-1.22-0.183s-0.616-0.289-0.834-0.502c-0.218-0.213-0.379-0.464-0.481-0.751
			c-0.102-0.288-0.153-0.601-0.153-0.938c0-0.836,0.312-1.49,0.934-1.963c0.623-0.474,1.543-0.71,2.76-0.71h1.727v-0.73
			c0-0.492-0.158-0.887-0.473-1.183s-0.797-0.444-1.444-0.444c-0.47,0-0.934,0.053-1.391,0.158
			c-0.456,0.104-0.928,0.254-1.415,0.447v-1.303c0.183-0.066,0.386-0.132,0.61-0.195c0.224-0.063,0.46-0.12,0.709-0.17
			s0.509-0.09,0.78-0.12s0.545-0.046,0.822-0.046c0.503,0,0.958,0.056,1.361,0.166s0.746,0.279,1.025,0.506
			c0.279,0.228,0.494,0.513,0.643,0.855s0.224,0.747,0.224,1.212v5.744H138.63z M138.472,78.909h-1.834
			c-0.36,0-0.669,0.036-0.93,0.108s-0.473,0.175-0.639,0.308s-0.289,0.291-0.37,0.477c-0.08,0.186-0.12,0.395-0.12,0.627
			c0,0.16,0.025,0.314,0.075,0.461s0.13,0.276,0.241,0.39s0.254,0.204,0.432,0.271s0.393,0.1,0.647,0.1
			c0.332,0,0.712-0.102,1.142-0.304c0.429-0.202,0.881-0.521,1.357-0.958V78.909z"/>
	</g>
	<g>
		<path fill="#231F20" d="M89.448,21.304h-1.851v2.399h-1.478v-2.399h-5.221v-1.27l4.624-7.18h2.075v7.18h1.851V21.304z
			 M86.119,14.249l-3.777,5.785h3.777V14.249z"/>
		<path fill="#231F20" d="M98.504,18.282c0,0.83-0.083,1.587-0.249,2.271s-0.418,1.271-0.755,1.76
			c-0.337,0.49-0.757,0.869-1.257,1.138c-0.501,0.269-1.089,0.402-1.764,0.402c-0.581,0-1.109-0.109-1.585-0.328
			s-0.883-0.555-1.22-1.008c-0.337-0.454-0.598-1.032-0.78-1.735s-0.274-1.536-0.274-2.499c0-0.83,0.084-1.588,0.253-2.273
			c0.169-0.687,0.421-1.274,0.756-1.765c0.334-0.489,0.754-0.868,1.257-1.137s1.09-0.403,1.76-0.403
			c0.581,0,1.109,0.109,1.585,0.328s0.883,0.557,1.22,1.013c0.337,0.457,0.598,1.036,0.78,1.739S98.504,17.319,98.504,18.282z
			 M92.079,18.233c0,0.171,0.001,0.343,0.004,0.514c0.003,0.172,0.013,0.338,0.029,0.498l4.59-3.395
			c-0.083-0.282-0.188-0.539-0.315-0.771s-0.279-0.434-0.457-0.603s-0.379-0.3-0.606-0.394c-0.227-0.095-0.481-0.142-0.764-0.142
			c-0.376,0-0.718,0.091-1.025,0.274c-0.308,0.182-0.569,0.455-0.785,0.817s-0.382,0.811-0.498,1.345S92.079,17.53,92.079,18.233z
			 M97.043,18.333c0-0.188-0.007-0.375-0.021-0.561c-0.014-0.186-0.029-0.367-0.046-0.544l-4.59,3.411
			c0.083,0.288,0.188,0.554,0.315,0.797c0.127,0.244,0.281,0.453,0.46,0.627c0.18,0.175,0.385,0.311,0.614,0.407
			c0.23,0.097,0.491,0.146,0.785,0.146c0.376,0,0.718-0.092,1.025-0.274c0.308-0.183,0.569-0.454,0.785-0.813
			s0.382-0.807,0.498-1.341S97.043,19.035,97.043,18.333z"/>
		<path fill="#231F20" d="M108.415,11.974l-7.653,11.729H99.4l7.637-11.729H108.415z M103.991,14.298
			c0,0.36-0.053,0.693-0.158,1.001c-0.105,0.307-0.256,0.572-0.452,0.797c-0.197,0.224-0.435,0.401-0.714,0.531
			c-0.28,0.13-0.591,0.194-0.934,0.194c-0.337,0-0.641-0.052-0.909-0.157c-0.269-0.105-0.498-0.262-0.689-0.469
			c-0.19-0.208-0.337-0.464-0.439-0.769c-0.103-0.304-0.154-0.655-0.154-1.054c0-0.354,0.053-0.685,0.158-0.992
			c0.105-0.307,0.256-0.574,0.452-0.801c0.197-0.227,0.435-0.404,0.714-0.531c0.28-0.127,0.591-0.19,0.934-0.19
			c0.337,0,0.641,0.052,0.909,0.157c0.269,0.105,0.498,0.26,0.689,0.465c0.19,0.205,0.337,0.459,0.439,0.764
			C103.939,13.549,103.991,13.899,103.991,14.298z M102.771,14.34c0-0.487-0.088-0.847-0.266-1.079s-0.423-0.349-0.739-0.349
			c-0.161,0-0.303,0.036-0.427,0.108c-0.125,0.071-0.23,0.171-0.315,0.299c-0.086,0.127-0.151,0.277-0.195,0.452
			c-0.044,0.174-0.066,0.363-0.066,0.568c0,0.487,0.088,0.847,0.266,1.079s0.423,0.349,0.739,0.349c0.161,0,0.303-0.036,0.427-0.108
			c0.125-0.071,0.23-0.171,0.315-0.299c0.086-0.127,0.151-0.277,0.195-0.452C102.749,14.734,102.771,14.545,102.771,14.34z
			 M108.282,21.304c0,0.36-0.054,0.692-0.162,0.996c-0.107,0.305-0.26,0.57-0.456,0.797c-0.197,0.228-0.435,0.404-0.714,0.531
			c-0.28,0.128-0.591,0.191-0.934,0.191c-0.337,0-0.641-0.053-0.909-0.158c-0.269-0.104-0.498-0.26-0.689-0.465
			c-0.19-0.204-0.337-0.46-0.439-0.768c-0.103-0.307-0.154-0.66-0.154-1.059c0-0.354,0.053-0.685,0.158-0.991
			c0.105-0.308,0.256-0.574,0.452-0.802c0.197-0.227,0.435-0.403,0.714-0.531c0.28-0.127,0.591-0.19,0.934-0.19
			c0.337,0,0.642,0.053,0.913,0.157c0.271,0.105,0.502,0.262,0.693,0.47c0.191,0.207,0.338,0.463,0.44,0.768
			C108.231,20.555,108.282,20.905,108.282,21.304z M107.062,21.337c0-0.486-0.09-0.846-0.27-1.078
			c-0.18-0.232-0.427-0.35-0.743-0.35c-0.161,0-0.303,0.036-0.427,0.108c-0.125,0.072-0.23,0.172-0.315,0.299
			c-0.086,0.127-0.151,0.278-0.195,0.452c-0.044,0.175-0.066,0.364-0.066,0.568c0,0.487,0.088,0.848,0.266,1.08
			s0.423,0.348,0.739,0.348c0.161,0,0.303-0.035,0.427-0.107c0.125-0.072,0.231-0.172,0.32-0.299s0.155-0.278,0.199-0.452
			C107.04,21.731,107.062,21.542,107.062,21.337z"/>
	</g>
	<g>
		<path fill="#231F20" d="M696.447,21.304h-1.851v2.399h-1.478v-2.399h-5.221v-1.27l4.623-7.18h2.075v7.18h1.851V21.304z
			 M693.119,14.249l-3.777,5.785h3.777V14.249z"/>
		<path fill="#231F20" d="M705.504,18.282c0,0.83-0.083,1.587-0.249,2.271s-0.418,1.271-0.755,1.76
			c-0.338,0.49-0.758,0.869-1.258,1.138c-0.501,0.269-1.089,0.402-1.764,0.402c-0.582,0-1.109-0.109-1.586-0.328
			s-0.883-0.555-1.221-1.008c-0.337-0.454-0.598-1.032-0.779-1.735c-0.184-0.703-0.274-1.536-0.274-2.499
			c0-0.83,0.085-1.588,0.253-2.273c0.169-0.687,0.421-1.274,0.756-1.765c0.334-0.489,0.754-0.868,1.258-1.137
			c0.503-0.269,1.09-0.403,1.76-0.403c0.58,0,1.109,0.109,1.585,0.328s0.883,0.557,1.22,1.013c0.338,0.457,0.598,1.036,0.781,1.739
			C705.412,16.487,705.504,17.319,705.504,18.282z M699.079,18.233c0,0.171,0.001,0.343,0.004,0.514
			c0.003,0.172,0.013,0.338,0.029,0.498l4.591-3.395c-0.084-0.282-0.188-0.539-0.316-0.771c-0.127-0.232-0.279-0.434-0.456-0.603
			s-0.379-0.3-0.606-0.394c-0.227-0.095-0.48-0.142-0.764-0.142c-0.376,0-0.718,0.091-1.024,0.274
			c-0.308,0.182-0.569,0.455-0.784,0.817c-0.217,0.362-0.383,0.811-0.498,1.345C699.137,16.912,699.079,17.53,699.079,18.233z
			 M704.043,18.333c0-0.188-0.007-0.375-0.021-0.561c-0.015-0.186-0.029-0.367-0.046-0.544l-4.59,3.411
			c0.082,0.288,0.188,0.554,0.314,0.797c0.128,0.244,0.281,0.453,0.461,0.627c0.18,0.175,0.385,0.311,0.614,0.407
			s0.491,0.146,0.784,0.146c0.377,0,0.719-0.092,1.025-0.274c0.308-0.183,0.568-0.454,0.785-0.813
			c0.215-0.359,0.381-0.807,0.498-1.341C703.984,19.653,704.043,19.035,704.043,18.333z"/>
		<path fill="#231F20" d="M715.415,11.974l-7.653,11.729H706.4l7.637-11.729H715.415z M710.99,14.298
			c0,0.36-0.053,0.693-0.157,1.001c-0.104,0.307-0.256,0.572-0.452,0.797c-0.197,0.224-0.435,0.401-0.714,0.531
			c-0.28,0.13-0.591,0.194-0.935,0.194c-0.337,0-0.641-0.052-0.908-0.157c-0.269-0.105-0.498-0.262-0.689-0.469
			c-0.19-0.208-0.338-0.464-0.439-0.769c-0.103-0.304-0.154-0.655-0.154-1.054c0-0.354,0.053-0.685,0.158-0.992
			c0.105-0.307,0.256-0.574,0.452-0.801s0.435-0.404,0.714-0.531s0.591-0.19,0.934-0.19c0.338,0,0.641,0.052,0.909,0.157
			s0.498,0.26,0.689,0.465c0.19,0.205,0.337,0.459,0.439,0.764S710.99,13.899,710.99,14.298z M709.771,14.34
			c0-0.487-0.089-0.847-0.266-1.079s-0.423-0.349-0.739-0.349c-0.16,0-0.303,0.036-0.427,0.108
			c-0.125,0.071-0.229,0.171-0.315,0.299c-0.086,0.127-0.15,0.277-0.195,0.452c-0.045,0.174-0.066,0.363-0.066,0.568
			c0,0.487,0.088,0.847,0.266,1.079s0.424,0.349,0.738,0.349c0.161,0,0.304-0.036,0.428-0.108c0.125-0.071,0.23-0.171,0.315-0.299
			c0.086-0.127,0.151-0.277,0.195-0.452C709.748,14.734,709.771,14.545,709.771,14.34z M715.282,21.304
			c0,0.36-0.054,0.692-0.162,0.996c-0.107,0.305-0.26,0.57-0.456,0.797c-0.197,0.228-0.435,0.404-0.714,0.531
			c-0.28,0.128-0.591,0.191-0.935,0.191c-0.337,0-0.641-0.053-0.908-0.158c-0.269-0.104-0.498-0.26-0.689-0.465
			c-0.19-0.204-0.338-0.46-0.439-0.768c-0.103-0.307-0.154-0.66-0.154-1.059c0-0.354,0.053-0.685,0.158-0.991
			c0.105-0.308,0.256-0.574,0.452-0.802c0.196-0.227,0.435-0.403,0.714-0.531c0.279-0.127,0.591-0.19,0.934-0.19
			c0.338,0,0.643,0.053,0.914,0.157c0.271,0.105,0.502,0.262,0.692,0.47c0.191,0.207,0.338,0.463,0.44,0.768
			C715.23,20.555,715.282,20.905,715.282,21.304z M714.063,21.337c0-0.486-0.09-0.846-0.271-1.078
			c-0.18-0.232-0.427-0.35-0.743-0.35c-0.16,0-0.303,0.036-0.427,0.108c-0.125,0.072-0.229,0.172-0.315,0.299
			s-0.15,0.278-0.195,0.452c-0.045,0.175-0.066,0.364-0.066,0.568c0,0.487,0.088,0.848,0.266,1.08s0.424,0.348,0.738,0.348
			c0.161,0,0.304-0.035,0.428-0.107c0.125-0.072,0.231-0.172,0.32-0.299c0.088-0.127,0.154-0.278,0.199-0.452
			C714.04,21.731,714.063,21.542,714.063,21.337z"/>
	</g>
	<g>
		<path fill="#231F20" d="M396.908,23.703h-7.147v-1.295l2.806-2.789c0.459-0.454,0.833-0.847,1.121-1.179s0.512-0.635,0.672-0.909
			c0.161-0.273,0.269-0.532,0.324-0.776c0.055-0.243,0.083-0.506,0.083-0.788c0-0.266-0.036-0.519-0.108-0.76
			c-0.072-0.24-0.183-0.452-0.332-0.635s-0.343-0.326-0.581-0.432s-0.523-0.157-0.855-0.157c-0.459,0-0.877,0.102-1.253,0.307
			s-0.722,0.471-1.038,0.797l-0.797-0.955c0.41-0.432,0.881-0.777,1.415-1.037c0.534-0.26,1.155-0.391,1.864-0.391
			c0.481,0,0.92,0.072,1.316,0.217c0.396,0.144,0.737,0.351,1.025,0.622s0.51,0.604,0.668,0.996
			c0.157,0.393,0.236,0.836,0.236,1.328c0,0.415-0.055,0.8-0.166,1.153c-0.111,0.354-0.278,0.707-0.502,1.059
			c-0.225,0.352-0.507,0.716-0.847,1.092c-0.341,0.376-0.743,0.789-1.208,1.236l-1.967,1.918h5.271V23.703z"/>
		<path fill="#231F20" d="M406.504,18.282c0,0.83-0.083,1.587-0.249,2.271s-0.418,1.271-0.755,1.76
			c-0.337,0.49-0.757,0.869-1.257,1.138c-0.501,0.269-1.089,0.402-1.764,0.402c-0.581,0-1.109-0.109-1.585-0.328
			s-0.883-0.555-1.22-1.008c-0.337-0.454-0.598-1.032-0.78-1.735s-0.274-1.536-0.274-2.499c0-0.83,0.084-1.588,0.253-2.273
			c0.169-0.687,0.421-1.274,0.756-1.765c0.334-0.489,0.754-0.868,1.257-1.137s1.09-0.403,1.76-0.403
			c0.581,0,1.109,0.109,1.585,0.328s0.883,0.557,1.22,1.013c0.337,0.457,0.598,1.036,0.78,1.739S406.504,17.319,406.504,18.282z
			 M400.079,18.233c0,0.171,0.001,0.343,0.004,0.514c0.003,0.172,0.013,0.338,0.029,0.498l4.59-3.395
			c-0.083-0.282-0.188-0.539-0.315-0.771s-0.279-0.434-0.457-0.603s-0.379-0.3-0.606-0.394c-0.227-0.095-0.481-0.142-0.764-0.142
			c-0.376,0-0.718,0.091-1.025,0.274c-0.308,0.182-0.569,0.455-0.785,0.817s-0.382,0.811-0.498,1.345S400.079,17.53,400.079,18.233z
			 M405.043,18.333c0-0.188-0.007-0.375-0.021-0.561c-0.014-0.186-0.029-0.367-0.046-0.544l-4.59,3.411
			c0.083,0.288,0.188,0.554,0.315,0.797c0.127,0.244,0.281,0.453,0.46,0.627c0.18,0.175,0.385,0.311,0.614,0.407
			c0.23,0.097,0.491,0.146,0.785,0.146c0.376,0,0.718-0.092,1.025-0.274c0.308-0.183,0.569-0.454,0.785-0.813
			s0.382-0.807,0.498-1.341S405.043,19.035,405.043,18.333z"/>
		<path fill="#231F20" d="M416.415,11.974l-7.653,11.729H407.4l7.637-11.729H416.415z M411.99,14.298
			c0,0.36-0.053,0.693-0.157,1.001c-0.104,0.307-0.256,0.572-0.452,0.797c-0.197,0.224-0.435,0.401-0.714,0.531
			c-0.28,0.13-0.591,0.194-0.934,0.194c-0.337,0-0.641-0.052-0.909-0.157c-0.269-0.105-0.498-0.262-0.689-0.469
			c-0.19-0.208-0.337-0.464-0.439-0.769c-0.103-0.304-0.154-0.655-0.154-1.054c0-0.354,0.053-0.685,0.158-0.992
			c0.105-0.307,0.256-0.574,0.452-0.801c0.197-0.227,0.435-0.404,0.714-0.531c0.28-0.127,0.591-0.19,0.934-0.19
			c0.337,0,0.641,0.052,0.909,0.157c0.269,0.105,0.498,0.26,0.689,0.465c0.19,0.205,0.337,0.459,0.439,0.764
			S411.99,13.899,411.99,14.298z M410.771,14.34c0-0.487-0.088-0.847-0.266-1.079s-0.423-0.349-0.739-0.349
			c-0.161,0-0.303,0.036-0.427,0.108c-0.125,0.071-0.23,0.171-0.315,0.299c-0.086,0.127-0.151,0.277-0.195,0.452
			c-0.044,0.174-0.066,0.363-0.066,0.568c0,0.487,0.088,0.847,0.266,1.079s0.423,0.349,0.739,0.349c0.161,0,0.303-0.036,0.427-0.108
			c0.125-0.071,0.23-0.171,0.315-0.299c0.086-0.127,0.151-0.277,0.195-0.452C410.749,14.734,410.771,14.545,410.771,14.34z
			 M416.282,21.304c0,0.36-0.054,0.692-0.162,0.996c-0.107,0.305-0.26,0.57-0.456,0.797c-0.197,0.228-0.435,0.404-0.714,0.531
			c-0.28,0.128-0.591,0.191-0.935,0.191c-0.337,0-0.641-0.053-0.908-0.158c-0.269-0.104-0.498-0.26-0.689-0.465
			c-0.19-0.204-0.338-0.46-0.439-0.768c-0.103-0.307-0.154-0.66-0.154-1.059c0-0.354,0.053-0.685,0.158-0.991
			c0.105-0.308,0.256-0.574,0.452-0.802c0.196-0.227,0.435-0.403,0.714-0.531c0.279-0.127,0.591-0.19,0.934-0.19
			c0.338,0,0.643,0.053,0.914,0.157c0.271,0.105,0.502,0.262,0.692,0.47c0.191,0.207,0.338,0.463,0.44,0.768
			C416.23,20.555,416.282,20.905,416.282,21.304z M415.063,21.337c0-0.486-0.09-0.846-0.271-1.078
			c-0.18-0.232-0.427-0.35-0.743-0.35c-0.16,0-0.303,0.036-0.427,0.108c-0.125,0.072-0.229,0.172-0.315,0.299
			s-0.15,0.278-0.195,0.452c-0.045,0.175-0.066,0.364-0.066,0.568c0,0.487,0.088,0.848,0.266,1.08s0.424,0.348,0.738,0.348
			c0.161,0,0.304-0.035,0.428-0.107c0.125-0.072,0.231-0.172,0.32-0.299c0.088-0.127,0.154-0.278,0.199-0.452
			C415.04,21.731,415.063,21.542,415.063,21.337z"/>
	</g>
	<g>
		<rect x="316" y="49" fill="#FFE600" width="171" height="58"/>
	</g>
	<g>
		<path fill="#231F20" d="M363.203,82.703h-1.478v-9.538h-4.449v9.538h-1.478V71.854h7.404V82.703z"/>
		<path fill="#231F20" d="M372.625,78.387c0,0.741-0.104,1.389-0.311,1.942c-0.208,0.554-0.494,1.013-0.859,1.378
			s-0.797,0.64-1.295,0.821c-0.498,0.184-1.038,0.274-1.619,0.274c-0.266,0-0.53-0.014-0.792-0.042
			c-0.263-0.027-0.53-0.074-0.801-0.141v3.486h-1.444V74.369h1.287l0.091,1.395c0.415-0.57,0.858-0.97,1.328-1.199
			s0.979-0.345,1.527-0.345c0.476,0,0.894,0.1,1.253,0.299s0.661,0.48,0.905,0.843s0.426,0.8,0.548,1.312
			S372.625,77.756,372.625,78.387z M371.147,78.453c0-0.438-0.032-0.839-0.095-1.204c-0.064-0.365-0.165-0.678-0.303-0.938
			s-0.315-0.464-0.531-0.61s-0.473-0.22-0.772-0.22c-0.183,0-0.368,0.029-0.556,0.087c-0.188,0.059-0.383,0.155-0.585,0.291
			c-0.202,0.136-0.415,0.315-0.639,0.539c-0.225,0.225-0.464,0.503-0.718,0.835v4.042c0.266,0.11,0.545,0.198,0.838,0.262
			s0.581,0.095,0.863,0.095c0.78,0,1.392-0.264,1.834-0.792S371.147,79.516,371.147,78.453z"/>
		<path fill="#231F20" d="M382.104,78.47c0,0.647-0.091,1.241-0.274,1.78c-0.183,0.54-0.445,1.002-0.789,1.387
			s-0.761,0.684-1.253,0.896s-1.051,0.319-1.677,0.319c-0.598,0-1.133-0.093-1.606-0.278c-0.473-0.186-0.874-0.458-1.203-0.817
			c-0.33-0.359-0.581-0.805-0.756-1.336c-0.174-0.531-0.261-1.144-0.261-1.835c0-0.647,0.091-1.238,0.274-1.772
			s0.445-0.993,0.789-1.378s0.761-0.684,1.253-0.896s1.051-0.319,1.677-0.319c0.598,0,1.133,0.093,1.606,0.278
			c0.473,0.186,0.874,0.456,1.203,0.813c0.33,0.356,0.581,0.801,0.756,1.332C382.017,77.175,382.104,77.783,382.104,78.47z
			 M380.626,78.536c0-0.515-0.057-0.964-0.17-1.349c-0.113-0.385-0.275-0.706-0.485-0.963c-0.21-0.258-0.466-0.451-0.768-0.581
			c-0.302-0.13-0.638-0.195-1.009-0.195c-0.432,0-0.801,0.084-1.108,0.253c-0.307,0.169-0.559,0.395-0.755,0.677
			c-0.197,0.282-0.341,0.61-0.432,0.983c-0.092,0.374-0.137,0.766-0.137,1.175c0,0.515,0.057,0.966,0.17,1.354
			c0.113,0.387,0.275,0.709,0.485,0.967c0.21,0.257,0.465,0.451,0.764,0.581s0.636,0.194,1.013,0.194
			c0.432,0,0.801-0.084,1.108-0.253c0.307-0.169,0.559-0.394,0.755-0.677c0.197-0.281,0.341-0.609,0.432-0.983
			C380.581,79.346,380.626,78.951,380.626,78.536z"/>
		<path fill="#231F20" d="M391.351,80.271c0,0.383-0.08,0.73-0.241,1.047c-0.161,0.314-0.41,0.585-0.747,0.809
			c-0.337,0.225-0.765,0.398-1.282,0.523c-0.518,0.124-1.133,0.187-1.847,0.187c-0.47,0-0.971-0.018-1.502-0.054
			s-1.043-0.085-1.536-0.146v-8.226c0.52-0.062,1.047-0.108,1.582-0.142c0.534-0.033,1.111-0.05,1.73-0.05
			c1.124,0,1.977,0.184,2.561,0.552c0.584,0.368,0.876,0.898,0.876,1.59c0,0.471-0.136,0.874-0.407,1.212s-0.681,0.587-1.229,0.747
			c0.266,0.044,0.521,0.117,0.768,0.22c0.246,0.103,0.463,0.235,0.651,0.398s0.339,0.355,0.452,0.577
			C391.294,79.737,391.351,79.989,391.351,80.271z M389.467,76.651c0-0.193-0.039-0.367-0.116-0.522s-0.201-0.288-0.369-0.398
			c-0.169-0.11-0.391-0.195-0.664-0.253c-0.274-0.059-0.605-0.088-0.992-0.088c-0.349,0-0.653,0.008-0.913,0.021
			s-0.518,0.037-0.772,0.07v2.407h1.677C388.75,77.889,389.467,77.477,389.467,76.651z M389.824,80.304
			c0-0.432-0.195-0.756-0.585-0.975c-0.39-0.219-0.997-0.328-1.822-0.328h-1.776v2.549c0.271,0.044,0.54,0.074,0.805,0.091
			s0.57,0.024,0.913,0.024c0.493,0,0.898-0.033,1.216-0.1c0.318-0.066,0.57-0.16,0.756-0.281c0.185-0.122,0.314-0.266,0.386-0.432
			S389.824,80.503,389.824,80.304z"/>
		<path fill="#231F20" d="M400.582,78.097c0,0.204-0.003,0.376-0.008,0.514c-0.005,0.139-0.014,0.269-0.025,0.391h-5.852
			c0,0.853,0.238,1.507,0.714,1.963c0.476,0.457,1.162,0.686,2.059,0.686c0.244,0,0.487-0.01,0.73-0.029s0.479-0.046,0.706-0.079
			s0.444-0.07,0.652-0.112c0.207-0.041,0.399-0.087,0.577-0.137v1.188c-0.393,0.11-0.837,0.2-1.333,0.27
			c-0.495,0.069-1.008,0.104-1.54,0.104c-0.714,0-1.328-0.097-1.843-0.291c-0.515-0.193-0.937-0.474-1.266-0.842
			c-0.329-0.368-0.572-0.819-0.73-1.354c-0.157-0.534-0.236-1.139-0.236-1.813c0-0.587,0.084-1.142,0.253-1.664
			c0.169-0.523,0.415-0.982,0.739-1.378c0.323-0.396,0.721-0.71,1.191-0.942s1.004-0.349,1.602-0.349
			c0.581,0,1.096,0.092,1.544,0.273c0.448,0.184,0.826,0.441,1.133,0.776c0.308,0.335,0.54,0.742,0.697,1.221
			C400.503,76.969,400.582,77.504,400.582,78.097z M399.079,77.889c0.017-0.371-0.02-0.71-0.108-1.017
			c-0.088-0.308-0.226-0.571-0.411-0.793c-0.186-0.222-0.417-0.395-0.693-0.519c-0.277-0.125-0.598-0.187-0.963-0.187
			c-0.315,0-0.603,0.061-0.863,0.182c-0.26,0.122-0.484,0.294-0.672,0.516c-0.188,0.221-0.34,0.486-0.457,0.797
			c-0.116,0.31-0.188,0.649-0.216,1.021H399.079z"/>
		<path fill="#231F20" d="M410.625,81.458l-0.091,3.37h-1.32v-2.125h-6.076v2.125h-1.303l-0.083-3.37h0.116
			c0.21,0,0.41-0.033,0.598-0.1s0.362-0.192,0.523-0.378s0.309-0.442,0.444-0.771c0.136-0.329,0.258-0.756,0.365-1.278
			c0.108-0.523,0.202-1.158,0.282-1.905c0.081-0.747,0.148-1.633,0.204-2.656h5.146v7.089H410.625z M407.986,75.614h-2.324
			c-0.055,0.952-0.127,1.763-0.216,2.432c-0.088,0.67-0.192,1.231-0.311,1.686c-0.119,0.454-0.256,0.816-0.411,1.088
			c-0.155,0.271-0.327,0.483-0.515,0.639h3.777V75.614z"/>
		<path fill="#231F20" d="M419.275,78.097c0,0.204-0.004,0.376-0.009,0.514c-0.005,0.139-0.014,0.269-0.024,0.391h-5.853
			c0,0.853,0.237,1.507,0.714,1.963c0.477,0.457,1.162,0.686,2.059,0.686c0.244,0,0.486-0.01,0.73-0.029s0.479-0.046,0.705-0.079
			c0.228-0.033,0.444-0.07,0.652-0.112c0.207-0.041,0.399-0.087,0.576-0.137v1.188c-0.393,0.11-0.836,0.2-1.332,0.27
			c-0.495,0.069-1.008,0.104-1.539,0.104c-0.715,0-1.328-0.097-1.844-0.291c-0.514-0.193-0.936-0.474-1.266-0.842
			c-0.329-0.368-0.572-0.819-0.73-1.354c-0.157-0.534-0.236-1.139-0.236-1.813c0-0.587,0.084-1.142,0.253-1.664
			c0.169-0.523,0.415-0.982,0.739-1.378c0.323-0.396,0.721-0.71,1.191-0.942c0.47-0.232,1.004-0.349,1.602-0.349
			c0.581,0,1.096,0.092,1.544,0.273c0.448,0.184,0.826,0.441,1.133,0.776c0.308,0.335,0.54,0.742,0.697,1.221
			C419.196,76.969,419.275,77.504,419.275,78.097z M417.772,77.889c0.017-0.371-0.02-0.71-0.108-1.017
			c-0.088-0.308-0.225-0.571-0.41-0.793s-0.416-0.395-0.693-0.519c-0.277-0.125-0.598-0.187-0.963-0.187
			c-0.315,0-0.604,0.061-0.863,0.182c-0.26,0.122-0.484,0.294-0.672,0.516c-0.188,0.221-0.341,0.486-0.457,0.797
			c-0.116,0.31-0.188,0.649-0.216,1.021H417.772z"/>
		<path fill="#231F20" d="M428.281,82.703h-1.444v-3.686h-3.81v3.686h-1.445v-8.334h1.445v3.387h3.81v-3.387h1.444V82.703z"/>
		<path fill="#231F20" d="M432.49,74.369v5.868l3.635-5.868h1.379v8.334h-1.445v-5.868l-3.635,5.868h-1.379v-8.334H432.49z"/>
		<path fill="#231F20" d="M447.314,78.097c0,0.204-0.002,0.376-0.008,0.514c-0.006,0.139-0.014,0.269-0.025,0.391h-5.852
			c0,0.853,0.238,1.507,0.714,1.963c0.476,0.457,1.162,0.686,2.059,0.686c0.243,0,0.487-0.01,0.73-0.029s0.479-0.046,0.706-0.079
			c0.227-0.033,0.443-0.07,0.651-0.112c0.207-0.041,0.399-0.087,0.577-0.137v1.188c-0.394,0.11-0.838,0.2-1.333,0.27
			s-1.009,0.104-1.54,0.104c-0.713,0-1.328-0.097-1.842-0.291c-0.516-0.193-0.938-0.474-1.267-0.842s-0.572-0.819-0.73-1.354
			c-0.157-0.534-0.236-1.139-0.236-1.813c0-0.587,0.085-1.142,0.253-1.664c0.169-0.523,0.415-0.982,0.739-1.378
			c0.323-0.396,0.721-0.71,1.19-0.942c0.471-0.232,1.005-0.349,1.603-0.349c0.581,0,1.096,0.092,1.544,0.273
			c0.448,0.184,0.826,0.441,1.133,0.776c0.308,0.335,0.54,0.742,0.697,1.221C447.236,76.969,447.314,77.504,447.314,78.097z
			 M445.813,77.889c0.017-0.371-0.02-0.71-0.107-1.017c-0.089-0.308-0.227-0.571-0.411-0.793c-0.186-0.222-0.417-0.395-0.693-0.519
			c-0.276-0.125-0.598-0.187-0.963-0.187c-0.315,0-0.603,0.061-0.863,0.182c-0.261,0.122-0.484,0.294-0.673,0.516
			c-0.188,0.221-0.34,0.486-0.456,0.797c-0.116,0.31-0.188,0.649-0.216,1.021H445.813z"/>
	</g>
	<g>
		<rect x="615" y="49" fill="#EC1C24" width="171" height="58"/>
	</g>
	<g>
		<path fill="#FFFFFF" d="M653.371,66.208c0,0.974-0.115,1.815-0.345,2.523s-0.539,1.294-0.93,1.756
			c-0.39,0.462-0.847,0.805-1.369,1.029c-0.523,0.224-1.075,0.336-1.656,0.336c-0.697,0-1.305-0.126-1.822-0.378
			c-0.517-0.252-0.946-0.615-1.286-1.091c-0.341-0.477-0.594-1.056-0.76-1.739s-0.249-1.454-0.249-2.312
			c0-0.963,0.113-1.799,0.341-2.508c0.227-0.708,0.535-1.293,0.925-1.755c0.391-0.462,0.846-0.806,1.366-1.029
			c0.52-0.225,1.07-0.337,1.651-0.337c0.697,0,1.305,0.128,1.822,0.383c0.517,0.254,0.947,0.618,1.29,1.091
			c0.344,0.474,0.6,1.05,0.769,1.731C653.287,64.589,653.371,65.355,653.371,66.208z M651.836,66.315
			c0-0.636-0.049-1.219-0.146-1.747s-0.253-0.983-0.47-1.365c-0.215-0.382-0.493-0.678-0.834-0.888
			c-0.34-0.211-0.751-0.316-1.232-0.316c-0.465,0-0.865,0.112-1.199,0.337c-0.335,0.224-0.61,0.528-0.826,0.913
			s-0.377,0.835-0.481,1.353s-0.157,1.067-0.157,1.647c0,0.643,0.049,1.228,0.148,1.756s0.256,0.982,0.47,1.361
			c0.213,0.379,0.488,0.674,0.825,0.885c0.338,0.21,0.744,0.314,1.221,0.314c0.465,0,0.866-0.111,1.203-0.336
			c0.338-0.224,0.616-0.528,0.835-0.913c0.218-0.385,0.38-0.834,0.485-1.349S651.836,66.902,651.836,66.315z"/>
		<path fill="#FFFFFF" d="M662.395,64.614h-3.163v7.089h-1.461v-7.089h-3.163v-1.245h7.787V64.614z"/>
		<path fill="#FFFFFF" d="M670.977,71.396c-0.376,0.145-0.762,0.251-1.157,0.32s-0.804,0.104-1.225,0.104
			c-1.317,0-2.331-0.357-3.042-1.07c-0.711-0.715-1.066-1.758-1.066-3.13c0-0.658,0.102-1.256,0.307-1.793s0.492-0.996,0.863-1.378
			s0.813-0.677,1.328-0.884c0.515-0.208,1.082-0.312,1.701-0.312c0.432,0,0.836,0.03,1.213,0.092
			c0.376,0.061,0.735,0.16,1.078,0.299v1.377c-0.359-0.188-0.726-0.324-1.1-0.41c-0.373-0.086-0.76-0.129-1.158-0.129
			c-0.37,0-0.721,0.07-1.05,0.212c-0.329,0.141-0.618,0.345-0.867,0.61s-0.445,0.589-0.589,0.971
			c-0.145,0.382-0.217,0.813-0.217,1.295c0,1.007,0.245,1.761,0.735,2.262c0.489,0.501,1.169,0.752,2.038,0.752
			c0.393,0,0.773-0.045,1.141-0.133c0.368-0.089,0.724-0.222,1.066-0.398V71.396z"/>
		<path fill="#FFFFFF" d="M680.473,71.703h-1.443v-7.089h-2.324c-0.066,1.14-0.165,2.117-0.295,2.93
			c-0.131,0.814-0.287,1.493-0.469,2.038c-0.184,0.545-0.391,0.975-0.623,1.287s-0.482,0.539-0.751,0.681
			c-0.269,0.141-0.552,0.21-0.851,0.207s-0.606-0.043-0.922-0.12l0.066-1.195c0.221,0.022,0.429,0.011,0.623-0.033
			c0.193-0.044,0.373-0.15,0.539-0.319s0.316-0.412,0.452-0.73s0.259-0.743,0.37-1.274c0.11-0.531,0.205-1.183,0.286-1.955
			c0.08-0.771,0.146-1.691,0.194-2.76h5.146V71.703z"/>
		<path fill="#FFFFFF" d="M690.234,67.097c0,0.204-0.002,0.376-0.008,0.514c-0.006,0.139-0.014,0.269-0.025,0.391h-5.852
			c0,0.853,0.238,1.507,0.714,1.963c0.476,0.457,1.162,0.686,2.059,0.686c0.243,0,0.487-0.01,0.73-0.029s0.479-0.046,0.706-0.079
			c0.227-0.033,0.443-0.07,0.651-0.112c0.207-0.041,0.399-0.087,0.577-0.137v1.188c-0.394,0.11-0.838,0.2-1.333,0.27
			s-1.009,0.104-1.54,0.104c-0.713,0-1.328-0.097-1.842-0.291c-0.516-0.193-0.938-0.474-1.267-0.842s-0.572-0.819-0.73-1.354
			c-0.157-0.534-0.236-1.139-0.236-1.813c0-0.587,0.085-1.142,0.253-1.664c0.169-0.523,0.415-0.982,0.739-1.378
			c0.323-0.396,0.721-0.71,1.19-0.942c0.471-0.232,1.005-0.349,1.603-0.349c0.581,0,1.096,0.092,1.544,0.273
			c0.448,0.184,0.826,0.441,1.133,0.776c0.308,0.335,0.54,0.742,0.697,1.221C690.156,65.969,690.234,66.504,690.234,67.097z
			 M688.732,66.889c0.017-0.371-0.02-0.71-0.107-1.017c-0.089-0.308-0.227-0.571-0.411-0.793c-0.186-0.222-0.417-0.395-0.693-0.519
			c-0.276-0.125-0.598-0.187-0.963-0.187c-0.315,0-0.603,0.061-0.863,0.182c-0.261,0.122-0.484,0.294-0.673,0.516
			c-0.188,0.221-0.34,0.486-0.456,0.797c-0.116,0.31-0.188,0.649-0.216,1.021H688.732z"/>
		<path fill="#FFFFFF" d="M691.264,63.369h1.428l2.532,4.018v-4.018h1.328v4.018l2.532-4.018h1.428l-2.682,4.018l2.748,4.316H699
			l-2.448-4.233v4.233h-1.328V67.47l-2.448,4.233h-1.578l2.756-4.316L691.264,63.369z"/>
		<path fill="#FFFFFF" d="M703.449,63.369v5.868l3.637-5.868h1.377v8.334h-1.443v-5.868l-3.637,5.868h-1.377v-8.334H703.449z"/>
		<path fill="#FFFFFF" d="M718.391,69.271c0,0.383-0.08,0.73-0.24,1.047c-0.16,0.314-0.41,0.585-0.747,0.809
			c-0.337,0.225-0.765,0.398-1.282,0.523c-0.518,0.124-1.133,0.187-1.848,0.187c-0.47,0-0.971-0.018-1.502-0.054
			s-1.043-0.085-1.535-0.146v-8.226c0.52-0.062,1.047-0.108,1.581-0.142s1.11-0.05,1.73-0.05c1.124,0,1.978,0.184,2.561,0.552
			c0.584,0.368,0.876,0.898,0.876,1.59c0,0.471-0.136,0.874-0.406,1.212c-0.271,0.338-0.682,0.587-1.229,0.747
			c0.266,0.044,0.521,0.117,0.768,0.22s0.463,0.235,0.651,0.398s0.339,0.355,0.452,0.577S718.391,68.989,718.391,69.271z
			 M716.507,65.651c0-0.193-0.038-0.367-0.116-0.522s-0.201-0.288-0.369-0.398c-0.169-0.11-0.391-0.195-0.664-0.253
			c-0.274-0.059-0.605-0.088-0.992-0.088c-0.349,0-0.652,0.008-0.913,0.021s-0.518,0.037-0.772,0.07v2.407h1.678
			C715.79,66.889,716.507,66.477,716.507,65.651z M716.863,69.304c0-0.432-0.194-0.756-0.585-0.975
			c-0.39-0.219-0.997-0.328-1.821-0.328h-1.777v2.549c0.271,0.044,0.54,0.074,0.806,0.091s0.569,0.024,0.913,0.024
			c0.492,0,0.898-0.033,1.216-0.1c0.318-0.066,0.57-0.16,0.756-0.281c0.185-0.122,0.313-0.266,0.386-0.432
			S716.863,69.503,716.863,69.304z"/>
		<path fill="#FFFFFF" d="M725.937,71.703l-0.033-1.12c-0.454,0.447-0.915,0.771-1.382,0.971c-0.468,0.199-0.959,0.299-1.474,0.299
			c-0.476,0-0.883-0.061-1.22-0.183c-0.338-0.122-0.616-0.289-0.835-0.502c-0.218-0.213-0.379-0.464-0.481-0.751
			c-0.102-0.288-0.153-0.601-0.153-0.938c0-0.836,0.312-1.49,0.934-1.963c0.623-0.474,1.543-0.71,2.761-0.71h1.727v-0.73
			c0-0.492-0.158-0.887-0.474-1.183s-0.797-0.444-1.444-0.444c-0.471,0-0.934,0.053-1.391,0.158
			c-0.456,0.104-0.928,0.254-1.415,0.447v-1.303c0.183-0.066,0.386-0.132,0.61-0.195c0.224-0.063,0.461-0.12,0.709-0.17
			c0.25-0.05,0.51-0.09,0.781-0.12c0.271-0.03,0.545-0.046,0.821-0.046c0.503,0,0.958,0.056,1.361,0.166s0.745,0.279,1.025,0.506
			c0.279,0.228,0.493,0.513,0.644,0.855c0.148,0.343,0.224,0.747,0.224,1.212v5.744H725.937z M725.779,67.909h-1.835
			c-0.36,0-0.669,0.036-0.93,0.108s-0.474,0.175-0.64,0.308s-0.289,0.291-0.369,0.477s-0.12,0.395-0.12,0.627
			c0,0.16,0.024,0.314,0.075,0.461c0.049,0.146,0.129,0.276,0.24,0.39s0.254,0.204,0.432,0.271s0.393,0.1,0.647,0.1
			c0.332,0,0.712-0.102,1.142-0.304c0.429-0.202,0.881-0.521,1.357-0.958V67.909z"/>
		<path fill="#FFFFFF" d="M736.628,71.703h-1.444v-3.686h-3.811v3.686h-1.443v-8.334h1.443v3.387h3.811v-3.387h1.444V71.703z"/>
		<path fill="#FFFFFF" d="M740.836,63.369v5.868l3.637-5.868h1.377v8.334h-1.443v-5.868l-3.637,5.868h-1.377v-8.334H740.836z"/>
		<path fill="#FFFFFF" d="M755.662,67.097c0,0.204-0.004,0.376-0.009,0.514c-0.005,0.139-0.014,0.269-0.024,0.391h-5.853
			c0,0.853,0.237,1.507,0.714,1.963c0.477,0.457,1.162,0.686,2.059,0.686c0.244,0,0.486-0.01,0.73-0.029s0.479-0.046,0.705-0.079
			c0.228-0.033,0.444-0.07,0.652-0.112c0.207-0.041,0.399-0.087,0.576-0.137v1.188c-0.393,0.11-0.836,0.2-1.332,0.27
			c-0.495,0.069-1.008,0.104-1.539,0.104c-0.715,0-1.328-0.097-1.844-0.291c-0.514-0.193-0.936-0.474-1.266-0.842
			c-0.329-0.368-0.572-0.819-0.73-1.354c-0.157-0.534-0.236-1.139-0.236-1.813c0-0.587,0.084-1.142,0.253-1.664
			c0.169-0.523,0.415-0.982,0.739-1.378c0.323-0.396,0.721-0.71,1.191-0.942c0.47-0.232,1.004-0.349,1.602-0.349
			c0.581,0,1.096,0.092,1.544,0.273c0.448,0.184,0.826,0.441,1.133,0.776c0.308,0.335,0.54,0.742,0.697,1.221
			C755.583,65.969,755.662,66.504,755.662,67.097z M754.159,66.889c0.017-0.371-0.02-0.71-0.108-1.017
			c-0.088-0.308-0.225-0.571-0.41-0.793s-0.416-0.395-0.693-0.519c-0.277-0.125-0.598-0.187-0.963-0.187
			c-0.315,0-0.604,0.061-0.863,0.182c-0.26,0.122-0.484,0.294-0.672,0.516c-0.188,0.221-0.341,0.486-0.457,0.797
			c-0.116,0.31-0.188,0.649-0.216,1.021H754.159z"/>
		<path fill="#FFFFFF" d="M650.798,95.59c-2.552-2.363-3.827-4.975-3.827-7.836c0-0.67,0.068-1.338,0.204-2.005
			s0.354-1.335,0.655-2.004c0.302-0.67,0.7-1.34,1.195-2.01c0.496-0.669,1.098-1.333,1.806-1.992l0.839,0.855
			c-2.147,2.119-3.221,4.469-3.221,7.047c0,1.284,0.271,2.519,0.813,3.703c0.543,1.184,1.346,2.302,2.408,3.354L650.798,95.59z"/>
		<path fill="#FFFFFF" d="M654.932,90.609c0.244,0.066,0.504,0.124,0.78,0.175c0.276,0.049,0.551,0.094,0.821,0.133
			c0.271,0.038,0.533,0.067,0.785,0.087s0.477,0.028,0.676,0.028c0.471,0,0.862-0.03,1.175-0.091
			c0.313-0.061,0.562-0.148,0.747-0.262s0.316-0.252,0.395-0.415s0.116-0.347,0.116-0.552c0-0.199-0.034-0.381-0.104-0.544
			s-0.194-0.306-0.374-0.428c-0.18-0.121-0.424-0.215-0.734-0.281s-0.705-0.1-1.188-0.1h-2.041v-1.121h2.033
			c0.42,0,0.766-0.027,1.033-0.083c0.269-0.056,0.48-0.136,0.635-0.241c0.155-0.104,0.261-0.232,0.316-0.381
			c0.055-0.15,0.082-0.321,0.082-0.516c0-0.188-0.034-0.355-0.104-0.502c-0.068-0.146-0.184-0.271-0.344-0.373
			c-0.161-0.103-0.374-0.182-0.64-0.236c-0.266-0.056-0.595-0.084-0.987-0.084c-0.432,0-0.905,0.031-1.42,0.092
			s-1.029,0.149-1.544,0.266V83.96c0.228-0.049,0.472-0.097,0.734-0.141s0.53-0.08,0.802-0.107c0.271-0.028,0.541-0.051,0.809-0.066
			c0.269-0.018,0.524-0.025,0.768-0.025c0.653,0,1.199,0.054,1.636,0.162c0.437,0.107,0.788,0.259,1.054,0.452
			s0.454,0.423,0.564,0.688c0.111,0.266,0.166,0.557,0.166,0.872c0,0.232-0.033,0.452-0.1,0.66c-0.066,0.207-0.168,0.394-0.307,0.56
			s-0.314,0.308-0.527,0.424s-0.469,0.199-0.768,0.249c0.299,0.044,0.576,0.117,0.83,0.22s0.475,0.238,0.66,0.407
			s0.332,0.369,0.439,0.602c0.108,0.232,0.162,0.498,0.162,0.797c0,0.365-0.07,0.704-0.212,1.017
			c-0.141,0.313-0.372,0.581-0.692,0.806c-0.321,0.224-0.744,0.399-1.271,0.526c-0.526,0.128-1.171,0.191-1.935,0.191
			c-0.204,0-0.43-0.007-0.676-0.021s-0.501-0.033-0.764-0.059c-0.264-0.024-0.521-0.055-0.776-0.091s-0.493-0.079-0.714-0.129
			V90.609z"/>
		<path fill="#FFFFFF" d="M669.856,92.104l-0.033-1.12c-0.454,0.447-0.915,0.771-1.382,0.971c-0.468,0.199-0.959,0.299-1.474,0.299
			c-0.476,0-0.883-0.061-1.22-0.183c-0.338-0.122-0.616-0.289-0.835-0.502c-0.218-0.213-0.379-0.464-0.481-0.751
			c-0.102-0.288-0.153-0.601-0.153-0.938c0-0.836,0.312-1.49,0.934-1.963c0.623-0.474,1.543-0.71,2.761-0.71h1.727v-0.73
			c0-0.492-0.158-0.887-0.474-1.183s-0.797-0.444-1.444-0.444c-0.471,0-0.934,0.053-1.391,0.158
			c-0.456,0.104-0.928,0.254-1.415,0.447v-1.303c0.183-0.066,0.386-0.132,0.61-0.195c0.224-0.063,0.461-0.12,0.709-0.17
			c0.25-0.05,0.51-0.09,0.781-0.12c0.271-0.03,0.545-0.046,0.821-0.046c0.503,0,0.958,0.056,1.361,0.166s0.745,0.279,1.025,0.506
			c0.279,0.228,0.493,0.513,0.644,0.855c0.148,0.343,0.224,0.747,0.224,1.212v5.744H669.856z M669.699,88.31h-1.835
			c-0.36,0-0.669,0.036-0.93,0.108s-0.474,0.175-0.64,0.308s-0.289,0.291-0.369,0.477s-0.12,0.395-0.12,0.627
			c0,0.16,0.024,0.314,0.075,0.461c0.049,0.146,0.129,0.276,0.24,0.39s0.254,0.204,0.432,0.271s0.393,0.1,0.647,0.1
			c0.332,0,0.712-0.102,1.142-0.304c0.429-0.202,0.881-0.521,1.357-0.958V88.31z"/>
		<path fill="#FFFFFF" d="M681.004,89.671c0,0.383-0.08,0.73-0.24,1.047c-0.16,0.314-0.41,0.585-0.747,0.809
			c-0.337,0.225-0.765,0.398-1.282,0.523c-0.518,0.124-1.133,0.187-1.848,0.187c-0.47,0-0.971-0.018-1.502-0.054
			s-1.043-0.085-1.535-0.146v-8.226c0.52-0.062,1.047-0.108,1.581-0.142s1.11-0.05,1.73-0.05c1.124,0,1.978,0.184,2.561,0.552
			c0.584,0.368,0.876,0.898,0.876,1.59c0,0.471-0.136,0.874-0.406,1.212c-0.271,0.338-0.682,0.587-1.229,0.747
			c0.266,0.044,0.521,0.117,0.768,0.22s0.463,0.235,0.651,0.398s0.339,0.355,0.452,0.577S681.004,89.39,681.004,89.671z
			 M679.12,86.052c0-0.193-0.038-0.367-0.116-0.522s-0.201-0.288-0.369-0.398c-0.169-0.11-0.391-0.195-0.664-0.253
			c-0.274-0.059-0.605-0.088-0.992-0.088c-0.349,0-0.652,0.008-0.913,0.021s-0.518,0.037-0.772,0.07v2.407h1.678
			C678.403,87.289,679.12,86.877,679.12,86.052z M679.477,89.704c0-0.432-0.194-0.756-0.585-0.975
			c-0.39-0.219-0.997-0.328-1.821-0.328h-1.777v2.549c0.271,0.044,0.54,0.074,0.806,0.091s0.569,0.024,0.913,0.024
			c0.492,0,0.898-0.033,1.216-0.1c0.318-0.066,0.57-0.16,0.756-0.281c0.185-0.122,0.313-0.266,0.386-0.432
			S679.477,89.903,679.477,89.704z"/>
		<path fill="#FFFFFF" d="M690.234,87.497c0,0.204-0.002,0.376-0.008,0.514c-0.006,0.139-0.014,0.269-0.025,0.391h-5.852
			c0,0.853,0.238,1.507,0.714,1.963c0.476,0.457,1.162,0.686,2.059,0.686c0.243,0,0.487-0.01,0.73-0.029s0.479-0.046,0.706-0.079
			c0.227-0.033,0.443-0.07,0.651-0.112c0.207-0.041,0.399-0.087,0.577-0.137v1.188c-0.394,0.11-0.838,0.2-1.333,0.27
			s-1.009,0.104-1.54,0.104c-0.713,0-1.328-0.097-1.842-0.291c-0.516-0.193-0.938-0.474-1.267-0.842s-0.572-0.819-0.73-1.354
			c-0.157-0.534-0.236-1.139-0.236-1.813c0-0.587,0.085-1.142,0.253-1.664c0.169-0.523,0.415-0.982,0.739-1.378
			c0.323-0.396,0.721-0.71,1.19-0.942c0.471-0.232,1.005-0.349,1.603-0.349c0.581,0,1.096,0.092,1.544,0.273
			c0.448,0.184,0.826,0.441,1.133,0.776c0.308,0.335,0.54,0.742,0.697,1.221C690.156,86.369,690.234,86.904,690.234,87.497z
			 M688.732,87.289c0.017-0.371-0.02-0.71-0.107-1.017c-0.089-0.308-0.227-0.571-0.411-0.793c-0.186-0.222-0.417-0.395-0.693-0.519
			c-0.276-0.125-0.598-0.187-0.963-0.187c-0.315,0-0.603,0.061-0.863,0.182c-0.261,0.122-0.484,0.294-0.673,0.516
			c-0.188,0.221-0.34,0.486-0.456,0.797c-0.116,0.31-0.188,0.649-0.216,1.021H688.732z"/>
		<path fill="#FFFFFF" d="M699.664,87.787c0,0.741-0.104,1.389-0.311,1.942c-0.208,0.554-0.494,1.013-0.859,1.378
			s-0.797,0.64-1.295,0.821c-0.498,0.184-1.037,0.274-1.619,0.274c-0.266,0-0.529-0.014-0.792-0.042
			c-0.263-0.027-0.53-0.074-0.802-0.141v3.486h-1.443V83.77h1.286l0.091,1.395c0.416-0.57,0.858-0.97,1.328-1.199
			c0.471-0.229,0.98-0.345,1.527-0.345c0.477,0,0.895,0.1,1.254,0.299s0.661,0.48,0.904,0.843c0.244,0.362,0.427,0.8,0.549,1.312
			C699.604,86.585,699.664,87.156,699.664,87.787z M698.188,87.854c0-0.438-0.032-0.839-0.096-1.204
			c-0.064-0.365-0.165-0.678-0.303-0.938c-0.139-0.26-0.316-0.464-0.531-0.61c-0.217-0.146-0.474-0.22-0.772-0.22
			c-0.183,0-0.368,0.029-0.556,0.087c-0.188,0.059-0.384,0.155-0.586,0.291c-0.201,0.136-0.415,0.315-0.639,0.539
			c-0.225,0.225-0.464,0.503-0.719,0.835v4.042c0.266,0.11,0.545,0.198,0.839,0.262s0.581,0.095,0.863,0.095
			c0.78,0,1.392-0.264,1.835-0.792C697.966,89.712,698.188,88.916,698.188,87.854z"/>
		<path fill="#FFFFFF" d="M701.309,83.77h1.328v7.147h1.934V83.77h1.328v7.147h1.934V83.77h1.328v8.334h-7.852V83.77z"/>
		<path fill="#FFFFFF" d="M718.275,87.497c0,0.204-0.004,0.376-0.009,0.514c-0.005,0.139-0.014,0.269-0.024,0.391h-5.853
			c0,0.853,0.237,1.507,0.714,1.963c0.477,0.457,1.162,0.686,2.059,0.686c0.244,0,0.486-0.01,0.73-0.029s0.479-0.046,0.705-0.079
			c0.228-0.033,0.444-0.07,0.652-0.112c0.207-0.041,0.399-0.087,0.576-0.137v1.188c-0.393,0.11-0.836,0.2-1.332,0.27
			c-0.495,0.069-1.008,0.104-1.539,0.104c-0.715,0-1.328-0.097-1.844-0.291c-0.514-0.193-0.936-0.474-1.266-0.842
			c-0.329-0.368-0.572-0.819-0.73-1.354c-0.157-0.534-0.236-1.139-0.236-1.813c0-0.587,0.084-1.142,0.253-1.664
			c0.169-0.523,0.415-0.982,0.739-1.378c0.323-0.396,0.721-0.71,1.191-0.942c0.47-0.232,1.004-0.349,1.602-0.349
			c0.581,0,1.096,0.092,1.544,0.273c0.448,0.184,0.826,0.441,1.133,0.776c0.308,0.335,0.54,0.742,0.697,1.221
			C718.196,86.369,718.275,86.904,718.275,87.497z M716.772,87.289c0.017-0.371-0.02-0.71-0.108-1.017
			c-0.088-0.308-0.225-0.571-0.41-0.793s-0.416-0.395-0.693-0.519c-0.277-0.125-0.598-0.187-0.963-0.187
			c-0.315,0-0.604,0.061-0.863,0.182c-0.26,0.122-0.484,0.294-0.672,0.516c-0.188,0.221-0.341,0.486-0.457,0.797
			c-0.116,0.31-0.188,0.649-0.216,1.021H716.772z"/>
		<path fill="#FFFFFF" d="M727.281,92.104h-1.444v-3.686h-3.81v3.686h-1.445V83.77h1.445v3.387h3.81V83.77h1.444V92.104z"/>
		<path fill="#FFFFFF" d="M731.49,83.77v5.868l3.635-5.868h1.379v8.334h-1.445v-5.868l-3.635,5.868h-1.379V83.77H731.49z"/>
		<path fill="#FFFFFF" d="M746.314,87.497c0,0.204-0.002,0.376-0.008,0.514c-0.006,0.139-0.014,0.269-0.025,0.391h-5.852
			c0,0.853,0.238,1.507,0.714,1.963c0.476,0.457,1.162,0.686,2.059,0.686c0.243,0,0.487-0.01,0.73-0.029s0.479-0.046,0.706-0.079
			c0.227-0.033,0.443-0.07,0.651-0.112c0.207-0.041,0.399-0.087,0.577-0.137v1.188c-0.394,0.11-0.838,0.2-1.333,0.27
			s-1.009,0.104-1.54,0.104c-0.713,0-1.328-0.097-1.842-0.291c-0.516-0.193-0.938-0.474-1.267-0.842s-0.572-0.819-0.73-1.354
			c-0.157-0.534-0.236-1.139-0.236-1.813c0-0.587,0.085-1.142,0.253-1.664c0.169-0.523,0.415-0.982,0.739-1.378
			c0.323-0.396,0.721-0.71,1.19-0.942c0.471-0.232,1.005-0.349,1.603-0.349c0.581,0,1.096,0.092,1.544,0.273
			c0.448,0.184,0.826,0.441,1.133,0.776c0.308,0.335,0.54,0.742,0.697,1.221C746.236,86.369,746.314,86.904,746.314,87.497z
			 M744.813,87.289c0.017-0.371-0.02-0.71-0.107-1.017c-0.089-0.308-0.227-0.571-0.411-0.793c-0.186-0.222-0.417-0.395-0.693-0.519
			c-0.276-0.125-0.598-0.187-0.963-0.187c-0.315,0-0.603,0.061-0.863,0.182c-0.261,0.122-0.484,0.294-0.673,0.516
			c-0.188,0.221-0.34,0.486-0.456,0.797c-0.116,0.31-0.188,0.649-0.216,1.021H744.813z"/>
		<path fill="#FFFFFF" d="M750.324,79.743c2.551,2.363,3.826,4.992,3.826,7.887c0,0.598-0.061,1.217-0.182,1.859
			c-0.122,0.642-0.33,1.299-0.623,1.971c-0.293,0.673-0.688,1.354-1.183,2.047c-0.495,0.691-1.12,1.386-1.872,2.083l-0.838-0.854
			c1.078-1.068,1.884-2.184,2.415-3.346s0.797-2.38,0.797-3.652c0-2.634-1.071-5.003-3.212-7.105L750.324,79.743z"/>
	</g>
</g>
</svg>
