<?xml version="1.0" encoding="utf-8"?>
<!-- Generator: Adobe Illustrator 15.1.0, SVG Export Plug-In . SVG Version: 6.00 Build 0)  -->
<!DOCTYPE svg PUBLIC "-//W3C//DTD SVG 1.1//EN" "http://www.w3.org/Graphics/SVG/1.1/DTD/svg11.dtd">
<svg version="1.1" id="Layer_1" xmlns="http://www.w3.org/2000/svg" xmlns:xlink="http://www.w3.org/1999/xlink" x="0px" y="0px"
	 width="319.5px" height="244.5px" viewBox="4.5 24 319.5 244.5" enable-background="new 4.5 24 319.5 244.5" xml:space="preserve">
<text transform="matrix(1.0391 0 0 1 -868.2061 -489.3184)" display="none" fill="#231F20" enable-background="new    " font-family="'Consolas'" font-size="17">R – Responsible – сотрудник, ответственный за фактическое исполнение KPI.</text>
<text transform="matrix(1.0391 0 0 1 -910.2061 -496.3184)" display="none" fill="#231F20" enable-background="new    " font-family="'Consolas'" font-size="17">R – Responsible – сотрудник, ответственный за фактическое исполнение KPI.</text>
<g>
	<g>
		<defs>
			<rect id="SVGID_1_" x="-6.243" y="20" width="332.63" height="249.48"/>
		</defs>
		<clipPath id="SVGID_2_">
			<use xlink:href="#SVGID_1_"  overflow="visible"/>
		</clipPath>
		<g clip-path="url(#SVGID_2_)">
			<path fill="#F0AE74" d="M216.861,167.887c-1.158-3.92-8.043-4.918-9.381-1.391c-1.729,3.742,4.162,9.346,5.879,12.445
				c3.736,6.289,7.045,9.521,5.187,17.138c-0.735,3.7-1.687,4.731,2.399,7.534c2.15,1.596,5.851,2.332,8.521,2.121
				c14.507-1.703,4.028-19.707,0.593-25.91c-5.756-9.477-11.817-14.477-22.186-18.105"/>
		</g>
	</g>
	<g>
		<defs>
			<rect id="SVGID_3_" x="-6.243" y="20" width="332.63" height="249.48"/>
		</defs>
		<clipPath id="SVGID_4_">
			<use xlink:href="#SVGID_3_"  overflow="visible"/>
		</clipPath>
		<g clip-path="url(#SVGID_4_)">
			<g>
				<path fill="#F0AE74" d="M248.469,176.41c-6.525-2.12-14.563-9.65-19.785-12.287c-5.222-2.637-11.787-3.462-19.211-3.082
					c-0.445,0.021-0.88,0.049-1.297,0.072c-2.388-0.454-4.234-0.786-4.572-0.832c-0.963-0.131-3.244-1.008-6.893-1.119
					c3.68,4.533,7.711,8.764,11.557,13.156c0.444,0.447,0.883,0.902,1.328,1.351c0.381,0.384,0.471,0.815,0.375,1.2
					c0.725,0.154,1.367,0.318,1.741,0.523c0.077,0.043,0.144,0.086,0.197,0.135c0.063,0.053,0.142,0.136,0.239,0.246
					c0.785,0.895,2.631,3.477,4.314,5.072c1.206,1.137,8.706,8.377,13.426,12.938c1.068,1.028,0.995,2.76-0.147,3.698l-0.354,0.291
					c0.588,3.008,0.348,6.459,1.846,9.111c1.478,2.618,3.902,4.719,6.533,6.137c4.977,2.682,10.432,3.375,16.006,3.025
					c0.027-0.449,0.094-0.895,0.176-1.332c-0.034-1.294,0.105-2.578,0.496-3.785c0.109-6.756,0.41-22.828,0.9-25.345
					C255.971,182.382,254.993,178.531,248.469,176.41z"/>
				<path opacity="0.54" fill="#DC9964" enable-background="new    " d="M254.443,210.932c0.109-6.756,0.41-22.828,0.9-25.345
					c0.611-3.13-0.307-6.87-6.416-9.021c2.561,2.074,2.918,4.662,2.477,6.929c-0.389,1.981-0.658,12.371-0.809,19.996
					c0.735,2.313,0.686,4.71,0.493,7.104c0.524,1.418,1.104,2.834,1.747,4.243c0.186,0.409,0.373,0.823,0.563,1.24
					c0.123-0.009,0.248-0.017,0.371-0.024c0.028-0.449,0.094-0.896,0.178-1.336C253.913,213.423,254.053,212.139,254.443,210.932z"
					/>
				<path opacity="0.85" fill="#DC9964" enable-background="new    " d="M247.969,179.719c-0.802-0.537-0.421-0.473-7.109-3.789
					c-7.023-3.48-16.95-10.891-19.67-11.912c-1.789-0.677-8.428-2.021-13.03-2.898c0.419-0.025,0.853-0.053,1.299-0.073
					c0.339-0.019,0.674-0.032,1.01-0.046c4.419,0.859,9.841,1.99,11.433,2.59c2.718,1.025,12.539,8.648,19.668,11.913
					C242.866,176.1,246.505,178.219,247.969,179.719z"/>
			</g>
		</g>
	</g>
	<g>
		<defs>
			<rect id="SVGID_5_" x="-6.243" y="20" width="332.63" height="249.48"/>
		</defs>
		<clipPath id="SVGID_6_">
			<use xlink:href="#SVGID_5_"  overflow="visible"/>
		</clipPath>
		<path opacity="0.11" clip-path="url(#SVGID_6_)" enable-background="new    " d="M92.775,211.912
			c-0.002-0.064-0.006-0.127-0.013-0.189c-0.007-0.158-0.018-0.311-0.025-0.455c-0.012-0.121-0.019-0.235-0.027-0.351h43.183
			c0.238-19.548-0.175-39.124-0.175-58.528c0-22.378-0.357-44.79,0.021-67.165c0.224-13.162,1.365-26.485,0.848-39.678
			c-1.896-1.585-4.541-2.57-7.474-2.57c-5.763,0-10.434,3.791-10.434,8.476h-2.647c-3.686,0-7.098,0.92-9.892,2.487H70.555
			c-2.9,0-5.26,2.158-5.26,4.811v109.943c-7.184,7.177-17.898,19.359-19.141,23.029c-1.252,3.719-3.123,32.799-4.033,48.104
			l-3.757-0.659l-1.299,5.619l-2.995-0.528l-10.399,47.188h49.403l9.795-44.452l-1.633-0.289c1.518-5.236,3.263-12.445,4.064-20.005
			c0.233-0.061,0.47-0.125,0.689-0.188c0.006-0.003,0.012-0.005,0.019-0.006c0.205-0.063,0.402-0.122,0.594-0.188
			c0.011-0.002,0.017-0.002,0.026-0.008c2.295-0.754,3.72-1.742,4.624-2.908c0.903-1.164,1.28-2.516,1.485-4.004
			c0.281-2.049,0.189-5.022,0.053-7.27C92.789,212.057,92.782,211.984,92.775,211.912z M129.112,45.56
			c2.502,0,4.531,1.854,4.531,4.145c0,2.285-2.029,4.143-4.531,4.143c-2.503,0-4.534-1.857-4.534-4.143
			C124.578,47.414,126.609,45.56,129.112,45.56z"/>
	</g>
	<g>
		<defs>
			<rect id="SVGID_7_" x="-6.243" y="20" width="332.63" height="249.48"/>
		</defs>
		<clipPath id="SVGID_8_">
			<use xlink:href="#SVGID_7_"  overflow="visible"/>
		</clipPath>
		<path clip-path="url(#SVGID_8_)" fill="#32526E" d="M69.204,248.878c-3.465,0-6.285-2.817-6.285-6.282V50.158
			c0-3.464,2.82-6.285,6.285-6.285h139.868c3.465,0,6.285,2.821,6.285,6.285v192.438c0,3.465-2.82,6.282-6.285,6.282H69.204z"/>
	</g>
	<g>
		<defs>
			
				<rect id="SVGID_9_" x="-6.186" y="20.656" transform="matrix(-0.9995 -0.0331 0.0331 -0.9995 315.3716 296.0234)" width="332.645" height="249.492"/>
		</defs>
		<clipPath id="SVGID_10_">
			<use xlink:href="#SVGID_9_"  overflow="visible"/>
		</clipPath>
		
			<rect x="75.158" y="55.765" transform="matrix(-0.9995 -0.0331 0.0331 -0.9995 276.121 298.6002)" clip-path="url(#SVGID_10_)" fill="#F2F2F2" width="130.749" height="182.499"/>
	</g>
	<g>
		<defs>
			
				<rect id="SVGID_11_" x="-6.237" y="18.857" transform="matrix(-0.9986 0.0523 -0.0523 -0.9986 327.4361 278.6185)" width="332.619" height="249.473"/>
		</defs>
		<clipPath id="SVGID_12_">
			<use xlink:href="#SVGID_11_"  overflow="visible"/>
		</clipPath>
		
			<rect x="72.832" y="52.763" transform="matrix(-0.9986 0.0523 -0.0523 -0.9986 283.7455 280.5844)" clip-path="url(#SVGID_12_)" fill="#E6E6E6" width="130.738" height="182.484"/>
	</g>
	<g>
		<defs>
			<rect id="SVGID_13_" x="-6.243" y="20" width="332.63" height="249.48"/>
		</defs>
		<clipPath id="SVGID_14_">
			<use xlink:href="#SVGID_13_"  overflow="visible"/>
		</clipPath>
		<polygon clip-path="url(#SVGID_14_)" fill="#F2F2F2" points="69.851,233.447 200.563,236.113 204.285,53.661 73.571,51 		"/>
	</g>
	<g>
		<defs>
			<rect id="SVGID_15_" x="-6.243" y="20" width="332.63" height="249.48"/>
		</defs>
		<clipPath id="SVGID_16_">
			<use xlink:href="#SVGID_15_"  overflow="visible"/>
		</clipPath>
		<rect x="73.749" y="53.646" clip-path="url(#SVGID_16_)" fill="#FFFFFF" width="130.739" height="182.487"/>
	</g>
	<g>
		<defs>
			<rect id="SVGID_17_" x="-6.243" y="20" width="332.63" height="249.48"/>
		</defs>
		<clipPath id="SVGID_18_">
			<use xlink:href="#SVGID_17_"  overflow="visible"/>
		</clipPath>
		<g clip-path="url(#SVGID_18_)">
			<path fill="#E74B3C" d="M154.758,40.626h-3.159c0-6.113-5.581-11.07-12.458-11.07c-6.886,0-12.46,4.957-12.46,11.07h-3.161
				c-11.268,0-20.406,7.865-20.406,17.568h72.051C175.164,48.491,166.027,40.626,154.758,40.626z M139.141,43.76
				c-2.992,0-5.414-2.426-5.414-5.416c0-2.986,2.422-5.408,5.414-5.408c2.987,0,5.413,2.422,5.413,5.408
				C144.554,41.334,142.128,43.76,139.141,43.76z"/>
			<path fill="#C1392B" d="M103.113,58.194h72.051l0,0c0-0.835-0.068-1.663-0.205-2.47h-71.643
				C103.184,56.531,103.113,57.359,103.113,58.194L103.113,58.194z"/>
		</g>
	</g>
	<g>
		<defs>
			<rect id="SVGID_19_" x="-6.243" y="20" width="332.63" height="249.48"/>
		</defs>
		<clipPath id="SVGID_20_">
			<use xlink:href="#SVGID_19_"  overflow="visible"/>
		</clipPath>
		<g clip-path="url(#SVGID_20_)">
			<g>
				<g>
					<path fill="#F0AE74" d="M62.719,157.816l0.701,87.313l-33.627-5.768c0,0,2.614-52.373,4.183-57.451
						c1.569-5.076,19.726-26.463,22.976-28.318c0.849-0.484,1.887-0.695,2.906-0.664c0.992,0.027,1.954,0.346,2.794,0.875
						l6.268,3.965L62.719,157.816z"/>
					<path opacity="0.54" fill="#DC9964" enable-background="new    " d="M46.761,193.82c0,0-2.903-5.823-0.355-14.086
						c2.548-8.256,6.435-12.353,9.539-13.834c3.109-1.481,11.884,24.248,0.877,28.629C50.515,197.045,46.761,193.82,46.761,193.82z"
						/>
					<path opacity="0.85" fill="#DC9964" enable-background="new    " d="M53.977,182.396c-0.133,0.357-0.275,0.723-0.428,1.094
						c-1.569-0.465-2.98-0.846-3.266-0.904c-2.872-0.617-5.72-0.537-8.588-0.87C45.707,181.167,49.945,181.482,53.977,182.396z"/>
					<path opacity="0.85" fill="#DC9964" enable-background="new    " d="M55.937,172.49c-0.013,0.135-0.022,0.27-0.034,0.402
						c-1.301-0.379-2.6-0.787-3.905-1.209c0.781,0.184,1.597,0.316,2.326,0.473C54.858,172.271,55.398,172.383,55.937,172.49z"/>
					<path opacity="0.85" fill="#DC9964" enable-background="new    " d="M59.675,159.479c-0.011,0.057-0.022,0.109-0.033,0.166
						l-1.18,6.457c-0.328,1.344-1.391,5.662-1.543,6.607c-0.367,2.236-0.949,4.615-1.862,7.172
						c-0.001,0.004-0.005,0.004-0.005,0.008c-1.49,4.176-3.872,8.83-7.662,14.123c-0.087,0.125-0.175,0.248-0.267,0.37l-2.291,2.315
						c0.33-1.063,0.817-2.049,1.451-2.922c4.102-5.664,6.508-10.067,7.808-14.276c0.241-0.78,0.444-1.548,0.616-2.313v-0.006
						c0.454-1.547,0.805-3.095,1.061-4.66c0.12-0.735,0.726-3.267,1.229-5.324v-0.006c0.116-0.479,0.226-0.933,0.327-1.33
						c0,0,1.195-6.559,1.208-6.619c0.246-1.178,0.747-2.26,1.463-3.182c0.943-1.211,3.245-1.885,3.245-1.885l0.665,0.422
						C61.812,155.355,60.158,157.156,59.675,159.479z"/>
				</g>
			</g>
			<g>
				<g>
					<path fill="#F0AE74" d="M63.61,245.08c0,0-25.128-38.549-16.298-50.746c6.307-8.715,8.812-15.695,9.794-21.678
						c0.156-0.944,1.216-5.262,1.546-6.606l1.178-6.459c0.013-0.056,0.021-0.108,0.032-0.165c0.733-3.516,4.146-5.822,7.697-5.174
						c2.71,0.492,4.605,2.594,5.292,5.092c0.628,2.288-0.853,11.072-1.353,13.206c-0.155,0.671-1.495,9.771-1.627,10.702
						c-1.117,7.952-0.878,14.115-0.878,14.115C73.531,216.949,63.61,245.08,63.61,245.08z"/>
					<path opacity="0.11" enable-background="new    " d="M73.981,175.029c-0.157,0.674-1.496,9.773-1.631,10.703
						c-1.116,7.949-0.875,14.113-0.875,14.113c0.098,1.707-1.338,8.944-1.255,9.368l-0.542-8.106
						c-0.178-1.275-0.401-2.521-0.685-3.74c0,0-0.239-6.163,0.878-14.115c0.132-0.932,1.472-10.029,1.628-10.702
						c0.5-2.134,1.984-10.918,1.352-13.206c-0.18-0.662-0.445-1.297-0.789-1.875c1.629,0.928,2.773,2.534,3.269,4.352
						C75.964,164.113,74.48,172.895,73.981,175.029z"/>
					<g>
						<path fill="#F6E2CA" d="M66.179,166.373c1.425-0.072,3.787-1.12,5.166-6.71c0,0-0.612-3.019-4.014-3.791
							c-3.397-0.771-5.256,1.687-5.256,1.687c-1.374,6.605,1.165,8.166,2.352,8.533C64.758,166.195,65.464,166.412,66.179,166.373z"
							/>
						<path opacity="0.7" fill="#FFFFFF" enable-background="new    " d="M68.204,165.6c-0.742,0.563-1.46,0.744-2.025,0.772
							c-0.424,0.022-0.845-0.043-1.185-0.121c-0.005-0.001-0.007-0.001-0.01-0.001c-0.004-0.004-0.006-0.004-0.006-0.004
							s-0.001,0-0.005,0c0,0,0,0-0.002,0c-0.229-0.053-0.415-0.113-0.545-0.154c-0.578-0.182-1.474-0.64-2.084-1.824
							c0.897-0.002,1.929,0.114,3.002,0.358C66.417,164.87,67.396,165.207,68.204,165.6z"/>
						<path opacity="0.7" fill="#FFFFFF" enable-background="new    " d="M62.075,157.559c0,0,1.858-2.457,5.256-1.687
							c3.401,0.772,4.014,3.789,4.014,3.789c-0.036,0.14-0.068,0.271-0.103,0.401c-0.047-0.23-0.698-3.209-3.967-3.949
							c-3.225-0.732-5.095,1.58-5.276,1.818C62.021,157.807,62.05,157.684,62.075,157.559z"/>
					</g>
					<path opacity="0.54" fill="#DC9964" enable-background="new    " d="M63.61,245.08c0,0-6.136,0.066-7.638-1.705
						c1.789-3.967,12.294-23.746,12.946-34.379c0.266-4.371-1.115-11.369-1.038-16.604c0.035-2.561,0.241-6.529,0.883-11.093
						c0.133-0.933,1.47-10.032,1.628-10.709c0.498-2.132,1.98-10.909,1.352-13.204c-0.068-0.248-0.15-0.498-0.244-0.742
						c0.625,0.789,1.083,1.711,1.353,2.697c0.628,2.289-0.853,11.073-1.352,13.207c-0.156,0.67-1.496,9.771-1.628,10.702
						c-1.117,7.952-0.878,14.115-0.878,14.115C73.531,216.949,63.61,245.08,63.61,245.08z"/>
				</g>
				<g>
					<polygon fill="#FFFFFF" points="47.2,233.268 45.078,243.325 23.903,243.325 26.846,229.354 					"/>
					<polygon fill="#E6E7E8" points="67.554,237.182 66.261,243.325 45.078,243.325 47.2,233.268 					"/>
					<polygon fill="#32526E" points="46.018,238.885 35.13,292.027 11.092,292.027 22.919,234.445 					"/>
					<polygon fill="#263E53" points="69.11,243.325 60.094,287.264 35.962,287.264 46.018,238.885 					"/>
				</g>
			</g>
		</g>
	</g>
	<g>
		<defs>
			<rect id="SVGID_21_" x="-6.243" y="20" width="332.63" height="249.48"/>
		</defs>
		<clipPath id="SVGID_22_">
			<use xlink:href="#SVGID_21_"  overflow="visible"/>
		</clipPath>
		<g clip-path="url(#SVGID_22_)">
			<g>
				<path fill="#F0AE74" d="M254.268,217.148c-0.226-0.867-0.316-1.77-0.332-2.693c-0.201-1.611-0.158-3.21-0.024-4.807
					c-0.021-0.008-0.041-0.021-0.062-0.032c-0.508,0.256-1.156,0.233-1.55-0.235c-0.552-0.656-0.896-1.361-1.112-2.104
					c-1.117-1.43-1.867-3.102-2.715-4.85c-1.623-3.342-3.363-6.563-5.566-9.533c-2.734-1.822-5.41-3.724-8.067-5.652
					c-0.063-0.014-0.127-0.023-0.192-0.047c-0.453-0.152-0.902-0.307-1.354-0.459c-0.406-0.108-0.824-0.202-1.245-0.291
					c1.313,2.346,2.653,4.755,3.767,6.752c0.721,1.293,0.151,2.92-1.213,3.486l-0.762,0.318c0,0-5.709,3.443-16.357-3.82
					c0,0-1.104-1.268-2.114-2.438c-0.188-0.649-4.179-9.908-5.354-12.646c-0.227-0.521-0.49-1.021-0.798-1.502
					c-1.271-2.011-2.807-4.176-4.271-5.627c-3.723-3.699-6.163-4.973-8.995-4.173c-1.699,0.474-3.3,1.233-3.634,2.749
					c-0.227,1.016,0.113,2.361,1.373,4.193c2.986,4.354,3.08,5.617,3.084,5.728l3.353,10.05c0.224,1.118,7.938,21.891,7.992,22.146
					c2.211,4.011,3.353,13.17,9.957,19.891c6.987,7.115,8.59,11.616,8.991,12.803l0.18,5.213l30.168-5.541
					c-0.73-6.098-1.699-13.953-2.641-20.969C254.504,221.068,254.352,219.096,254.268,217.148z"/>
				<path opacity="0.54" fill="#DC9964" enable-background="new    " d="M254.268,217.148c-0.229-0.885-0.326-1.807-0.34-2.746
					c-0.191-1.594-0.145-3.174-0.015-4.752c-0.021-0.01-0.04-0.023-0.062-0.034c-0.461,0.228-1.029,0.223-1.427-0.128
					c-0.057,0.164-0.112,0.344-0.165,0.507c-0.168-0.128-0.316-0.241-0.457-0.345l0.448,1.334c0,0-0.147,0.334-0.41,0.744
					c0.81,1.312,1.294,2.291-0.655,0.824c-0.332,0.331-0.726,0.61-1.182,0.689c0.434,0.34,0.797,0.621,1.113,0.859
					c0.083,1.916,0.234,3.857,0.499,5.818c0.075,0.577,0.153,1.158,0.233,1.747c0.926,7.043-3.789,13.595-10.766,14.944
					l-10.938,2.117l0.551,1.726l23.064-3.618l2.707-0.536c-0.537-4.327-1.123-8.942-1.701-13.243
					C254.504,221.068,254.354,219.096,254.268,217.148z"/>
				<path fill="#F6E2CA" d="M196.77,179.466c-0.002-0.11-0.096-1.372-3.082-5.728c-1.256-1.83-1.598-3.178-1.375-4.192
					c0.883-0.419,2.184-0.745,3.629-0.19c2.678,1.021,4.436,3.021,4.197,5.422c-0.238,2.404-1.527,3.938-1.818,4.078
					C198.131,178.939,197.648,179.293,196.77,179.466z"/>
				<path opacity="0.7" fill="#FFFFFF" enable-background="new    " d="M198.691,178.498c-0.162,0.197-0.301,0.32-0.373,0.355
					c-0.188,0.086-0.666,0.438-1.549,0.611c-0.002-0.055-0.024-0.41-0.441-1.313C196.854,178.085,197.716,178.076,198.691,178.498z"
					/>
			</g>
			<g>
				<polygon fill="#FFFFFF" points="263.374,237.938 240.609,242.361 219.303,246.497 218.061,239.902 239.391,235.885 
					262.178,231.59 				"/>
				<polygon fill="#E6E6E6" points="263.374,237.938 240.609,242.361 239.391,235.885 262.178,231.59 				"/>
				<polygon fill="#32526E" points="250.176,294.537 227.025,294.609 218.174,245.923 240.486,241.719 				"/>
				<polygon fill="#263E53" points="273.637,292.343 249.314,292.421 240.486,241.719 264.193,237.248 				"/>
			</g>
		</g>
	</g>
	<g>
		<defs>
			<rect id="SVGID_23_" x="-6.243" y="20" width="332.63" height="249.48"/>
		</defs>
		<clipPath id="SVGID_24_">
			<use xlink:href="#SVGID_23_"  overflow="visible"/>
		</clipPath>
		<g clip-path="url(#SVGID_24_)">
			<path fill="#91652F" d="M-50.633,7.954l-3.664,14.532c-0.555,0.105-0.916,0.306-0.994,0.604l-11.565,45.883
				c-0.1,0.395,0.31,0.889,1.056,1.381l-0.288,1.153c-0.161,0.636,1.436,1.617,3.567,2.194c2.133,0.575,3.988,0.526,4.15-0.109
				l0.291-1.152c0.884-0.054,1.474-0.277,1.572-0.672l11.568-45.883c0.076-0.299-0.146-0.656-0.582-1.027l3.665-14.533
				c0.214-0.852-1.576-2.074-3.998-2.728C-48.28,6.941-50.418,7.103-50.633,7.954z"/>
			<path fill="#333333" d="M-46.754,24.757l3.87-15.348c0.216-0.853-1.576-2.073-3.998-2.729c-2.426-0.654-4.563-0.494-4.776,0.359
				l-3.87,15.348L-46.754,24.757z"/>
			<path fill="#333333" d="M-63.549,72.784c2.132,0.575,3.99,0.528,4.15-0.109l11.567-45.882l-7.718-2.085L-67.116,70.59
				C-67.277,71.226-65.68,72.208-63.549,72.784z"/>
			<path fill="#737374" d="M-63.098,70.997c2.859,0.772,5.348,0.709,5.563-0.144l11.567-45.883c0.214-0.853-1.926-2.171-4.785-2.942
				c-2.857-0.771-5.351-0.706-5.563,0.146l-11.568,45.883C-68.098,68.909-65.956,70.228-63.098,70.997z"/>
			<path fill="#AFAFB0" d="M-62.617,69.092l11.384-45.157c-1.606-0.433-2.806-0.506-3.44-0.465l-11.168,44.289
				C-65.307,68.114-64.227,68.657-62.617,69.092z"/>
		</g>
	</g>
	<g>
		<defs>
			<rect id="SVGID_25_" x="-6.243" y="20" width="332.63" height="249.48"/>
		</defs>
		<clipPath id="SVGID_26_">
			<use xlink:href="#SVGID_25_"  overflow="visible"/>
		</clipPath>
		<g clip-path="url(#SVGID_26_)">
			<path fill="#333333" d="M259.852,97.598c0.301-0.15,0.647-0.16,0.985-0.051l-2.409-2.674l0.715,3.077l0.096,0.405
				c0.025-0.08,0.058-0.156,0.095-0.23C259.451,97.897,259.623,97.712,259.852,97.598z"/>
			<polygon fill="#CFB16D" points="260.229,106.623 260.509,106.342 260.229,106.623 260.318,107.371 261.962,105.718 
				259.236,98.355 			"/>
			<polygon fill="#FFE094" points="265.337,104.01 265.818,103.938 267.658,103.658 260.837,97.547 264.4,102.665 			"/>
			<path fill="#F2D080" d="M264.4,102.665l-3.563-5.118c-0.338-0.109-0.685-0.1-0.985,0.051c-0.229,0.114-0.399,0.3-0.52,0.527
				c-0.037,0.074-0.068,0.15-0.096,0.23l2.726,7.362l3.375-1.708L264.4,102.665z"/>
			<polygon fill="#464646" points="298.456,175.378 298.006,174.516 296.285,171.211 293.922,171.484 294.618,172.826 
				296.286,176.021 296.361,176.165 298.749,175.938 298.51,175.477 			"/>
			<polygon fill="#C6C3C2" points="292.762,164.458 291.977,162.947 274.398,129.569 261.962,105.718 260.318,107.371 
				271.828,129.442 290.127,164.21 290.956,165.8 293.268,170.234 295.63,169.958 			"/>
			<polygon fill="#E2E2E2" points="295.63,169.958 293.268,170.234 293.922,171.484 296.285,171.211 			"/>
			<polygon fill="#7E7E7E" points="299.661,169.503 299.66,169.503 301.38,172.807 301.789,173.591 302.124,174.23 303.701,172.452 
				301.203,167.658 300.104,168.971 			"/>
			<polygon fill="#F2F1EE" points="265.337,104.01 278.777,129.785 295.122,160.805 295.836,162.175 299.006,168.251 
				299.009,168.249 299.452,167.716 300.549,166.408 297.645,160.832 296.971,159.542 281.35,129.912 267.658,103.658 
				265.818,103.938 			"/>
			<polygon fill="#FFFFFF" points="299.009,168.249 299.006,168.251 295.637,169.958 295.63,169.958 296.285,171.211 
				296.289,171.209 299.66,169.503 299.661,169.503 300.104,168.971 301.203,167.658 300.549,166.408 299.452,167.716 			"/>
			<polygon fill="#5C5D5D" points="301.789,173.591 301.38,172.807 299.66,169.503 296.289,171.209 296.285,171.211 
				298.006,174.516 298.456,175.378 298.51,175.477 298.749,175.938 299.063,175.779 302.124,174.23 			"/>
			<polygon fill="#E5E4E1" points="291.977,162.947 292.762,164.458 295.63,169.958 295.637,169.958 299.006,168.251 
				295.836,162.175 295.122,160.805 278.777,129.785 265.337,104.01 261.962,105.718 274.398,129.569 			"/>
		</g>
	</g>
	<g>
		<defs>
			<rect id="SVGID_27_" x="-6.243" y="20" width="332.63" height="249.48"/>
		</defs>
		<clipPath id="SVGID_28_">
			<use xlink:href="#SVGID_27_"  overflow="visible"/>
		</clipPath>
		<g clip-path="url(#SVGID_28_)">
			<path fill="#32526E" d="M313.15,147.684c0,0-13.164-39.598-16.639-48.808c-9.369-24.84-19.283-44.602-23.451-47.15l-1.763,0.666
				c-1.448,4.665,4.158,26.052,13.53,50.891c3.474,9.21,19.74,47.634,19.74,47.634c0.283,0.755,2.437,0.64,4.805-0.257
				C311.744,149.768,313.436,148.434,313.15,147.684z"/>
			<path fill="#32526E" d="M271.348,52.373l1.666-0.629l-0.396-0.645l-0.003,0.001c-0.266-0.589-1.395-1.584-1.395-1.584
				s-0.193,1.493-0.005,2.111l-0.002,0.001L271.348,52.373z"/>
			<path fill="#E74B3C" d="M313.215,147.623c0.691-0.631,2.271-3.568,2.155-4.413c-0.116-0.844-0.933-8.603-3.472-15.068
				c-2.539-6.464-7.551-17.077-8.316-17.516c-0.768-0.438-1.869,0.382-1.936,0.73c-0.07,0.349-0.84,2.575-0.451,3.073
				c0.39,0.499,2.101,1.83,3.809,4.492c1.711,2.664,3.473,6.628,4.667,9.545c1.504,3.664,3.767,12.599,3.659,13.336
				c-0.109,0.768-0.223,1.535-0.529,2.057c-0.309,0.516-1.451,0.948-1.451,0.948l1.178,3.123
				C312.525,147.932,313.08,147.745,313.215,147.623z"/>
			<path fill="#E74B3C" d="M287.705,110.705l11.552-4.358c0.089,0.251,0.177,0.5,0.267,0.748l-11.525,4.347
				C287.898,111.196,287.803,110.95,287.705,110.705z"/>
			<path fill="#E74B3C" d="M271.295,52.394c-0.59,1.9-0.009,6.574,1.521,13.126c0.176,0.752,0.365,1.527,0.563,2.327
				c1.099-0.193,2.44-0.57,3.861-1.106c1.821-0.688,3.385-1.493,4.368-2.206c-0.313-0.613-0.629-1.206-0.938-1.782
				c-3.218-6.021-5.902-9.979-7.615-11.024L271.295,52.394z"/>
			<path fill="#E74B3C" d="M303.105,147.395c1.194-0.131,2.846-0.553,4.58-1.207c1.734-0.653,3.252-1.43,4.23-2.128l0.072,0.214
				l1.162,3.409c0.267,0.703-1.205,1.922-3.342,2.812c-0.144,0.058-0.287,0.114-0.436,0.169c-0.15,0.055-0.295,0.111-0.439,0.16
				c-2.19,0.744-4.102,0.8-4.365,0.096L303.105,147.395z"/>
		</g>
	</g>
	<g>
		<defs>
			<rect id="SVGID_29_" x="-6.243" y="20" width="332.63" height="249.48"/>
		</defs>
		<clipPath id="SVGID_30_">
			<use xlink:href="#SVGID_29_"  overflow="visible"/>
		</clipPath>
		<g clip-path="url(#SVGID_30_)">
			<g>
				
					<rect x="113.332" y="95.558" transform="matrix(-1 -0.0028 0.0028 -1 302.4769 196.6331)" fill="#808184" width="76.087" height="5.094"/>
			</g>
			<g>
				
					<rect x="113.539" y="121.677" transform="matrix(-1 -0.0029 0.0029 -1 302.808 248.8879)" fill="#808184" width="76.09" height="5.094"/>
			</g>
			<g>
				
					<rect x="116.013" y="146.874" transform="matrix(-1 -0.0029 0.0029 -1 307.6807 299.2861)" fill="#808184" width="76.089" height="5.092"/>
			</g>
			<g>
				
					<rect x="115.371" y="171.651" transform="matrix(-1 -0.0029 0.0029 -1 306.3261 348.8407)" fill="#808184" width="76.089" height="5.094"/>
			</g>
			<g>
				
					<rect x="114.255" y="199.051" transform="matrix(-1 -0.0029 0.0029 -1 304.0132 403.6342)" fill="#808184" width="76.088" height="5.092"/>
			</g>
			<g>
				
					<rect x="84.789" y="87.324" transform="matrix(-1 -0.0037 0.0037 -1 189.7093 195.4924)" fill="#D8DAE5" width="20.493" height="20.493"/>
				<path fill="#2B388F" d="M83.336,109.181l0.092-23.313l23.309,0.087l-0.086,23.313L83.336,109.181z M86.235,88.698l-0.067,17.672
					l17.672,0.065l0.066-17.67L86.235,88.698z"/>
			</g>
			<g>
				
					<rect x="85.778" y="113.677" transform="matrix(-1 -0.0037 0.0037 -1 191.5875 248.2023)" fill="#D8DAE5" width="20.493" height="20.493"/>
				<path fill="#2B388F" d="M84.326,135.533l0.089-23.314l23.313,0.091l-0.088,23.311L84.326,135.533z M87.226,115.05l-0.068,17.674
					l17.674,0.065l0.066-17.672L87.226,115.05z"/>
			</g>
			<g>
				
					<rect x="86.314" y="139.084" transform="matrix(-1 -0.0037 0.0037 -1 192.5659 299.0168)" fill="#D8DAE5" width="20.49" height="20.494"/>
				<path fill="#2B388F" d="M84.863,160.939l0.088-23.313l23.314,0.087l-0.09,23.312L84.863,160.939z M87.762,140.458l-0.066,17.672
					l17.671,0.065l0.068-17.672L87.762,140.458z"/>
			</g>
			<g>
				
					<rect x="87.304" y="165.439" transform="matrix(-1 -0.0038 0.0038 -1 194.4365 351.7352)" fill="#D8DAE5" width="20.49" height="20.491"/>
				<path fill="#2B388F" d="M85.855,187.291l0.088-23.311l23.311,0.084l-0.085,23.314L85.855,187.291z M88.754,166.813l-0.067,17.67
					l17.671,0.066l0.065-17.673L88.754,166.813z"/>
			</g>
			<g>
				
					<rect x="87.84" y="190.843" transform="matrix(-1 -0.0038 0.0038 -1 195.4005 402.5513)" fill="#D8DAE5" width="20.488" height="20.493"/>
				<path fill="#2B388F" d="M86.392,212.697l0.087-23.313l23.314,0.089l-0.091,23.313L86.392,212.697z M89.289,192.216
					l-0.065,17.671l17.67,0.067l0.067-17.671L89.289,192.216z"/>
			</g>
			<g>
				<g>
					<path fill="#70B700" d="M83.969,84.467c0.859,5.672,2.938,10.715,7.525,14.349c1.441,1.144,5.557,1.851,6.881,0.147
						c5.324-6.852,7.965-15.279,13.285-22.131c1.34-1.726-5.762-3.193-7.166-1.385c-5.322,6.852-7.963,15.279-13.287,22.129
						c2.295,0.048,4.589,0.099,6.882,0.146c-4.063-3.221-5.859-7.662-6.623-12.685C91.092,82.574,83.687,82.607,83.969,84.467
						L83.969,84.467z"/>
				</g>
			</g>
			<g>
				<g>
					<path fill="#70B700" d="M86.369,140.474c0.859,5.67,2.937,10.715,7.524,14.346c1.443,1.145,5.557,1.853,6.881,0.146
						c5.323-6.852,7.965-15.277,13.286-22.127c1.341-1.727-5.762-3.195-7.167-1.387c-5.322,6.851-7.962,15.277-13.286,22.127
						c2.295,0.05,4.588,0.098,6.881,0.146c-4.064-3.219-5.859-7.662-6.621-12.685C93.493,138.58,86.087,138.614,86.369,140.474
						L86.369,140.474z"/>
				</g>
			</g>
			<g>
				<g>
					<path fill="#70B700" d="M86.201,165.632c0.861,5.673,2.939,10.714,7.527,14.351c1.442,1.144,5.557,1.851,6.881,0.146
						c5.321-6.851,7.963-15.278,13.285-22.127c1.342-1.728-5.761-3.194-7.166-1.386c-5.324,6.849-7.965,15.277-13.286,22.128
						c2.294,0.048,4.587,0.098,6.881,0.146c-4.063-3.221-5.86-7.662-6.624-12.687C93.326,163.738,85.919,163.771,86.201,165.632
						L86.201,165.632z"/>
				</g>
			</g>
		</g>
	</g>
</g>
</svg>
