<?xml version="1.0" encoding="utf-8"?>
<!-- Generator: Adobe Illustrator 15.1.0, SVG Export Plug-In . SVG Version: 6.00 Build 0)  -->
<!DOCTYPE svg PUBLIC "-//W3C//DTD SVG 1.1//EN" "http://www.w3.org/Graphics/SVG/1.1/DTD/svg11.dtd">
<svg version="1.1" id="Layer_1" xmlns="http://www.w3.org/2000/svg" xmlns:xlink="http://www.w3.org/1999/xlink" x="0px" y="0px"
	 width="1252.5px" height="408px" viewBox="0 0 1252.5 408" enable-background="new 0 0 1252.5 408" xml:space="preserve">
<g>
	<defs>
		<rect id="SVGID_1_" x="0.5" y="1" width="1253" height="408"/>
	</defs>
	<clipPath id="SVGID_2_">
		<use xlink:href="#SVGID_1_"  overflow="visible"/>
	</clipPath>
	<rect x="-28" y="-11.981" clip-path="url(#SVGID_2_)" fill="#FFFFEE" width="1332" height="361"/>
	<rect x="-28" y="297.019" clip-path="url(#SVGID_2_)" fill="#DDDAC5" width="1332" height="148"/>
	<g clip-path="url(#SVGID_2_)">
		<g>
			<path fill="#5A6D77" d="M538.857,392.275c-0.27-3.354-3.08-5.996-6.504-5.996c-3.426,0-6.234,2.642-6.5,5.996H538.857z"/>
			<g>
				<rect x="537.963" y="321.562" fill="#5A6D77" width="73.24" height="4.569"/>
				<path fill="#3A8399" d="M614.657,317.754c0,2.102-1.97,3.808-4.391,3.808H538.21c-2.428,0-4.393-1.706-4.393-3.808l0,0
					c0-2.103,1.964-3.804,4.393-3.804h72.056C612.688,313.95,614.657,315.651,614.657,317.754L614.657,317.754z"/>
				<path fill="#5A6D77" d="M536.331,389.565c-0.221,1.411-1.539,2.38-2.954,2.159l0,0c-1.407-0.216-2.369-1.535-2.155-2.948
					l9.678-62.742c0.217-1.41,1.542-2.376,2.946-2.159l0,0c1.411,0.219,2.38,1.537,2.154,2.946L536.331,389.565z"/>
				<path fill="#5A6D77" d="M610.991,389.565c0.217,1.411,1.537,2.38,2.948,2.159l0,0c1.406-0.216,2.375-1.535,2.156-2.948
					l-9.68-62.742c-0.212-1.41-1.537-2.376-2.943-2.159l0,0c-1.417,0.219-2.384,1.537-2.162,2.946L610.991,389.565z"/>
			</g>
			<path fill="#5A6D77" d="M607.785,392.275c0.271-3.354,3.077-5.996,6.501-5.996c3.423,0,6.232,2.642,6.503,5.996H607.785z"/>
			<path fill="#3A8399" d="M605.606,230.159h-31.907h-0.082h-31.905c-4.075,0-7.382,3.021-7.382,6.752l9.31,70.166
				c0,3.726,3.308,6.745,7.385,6.745h22.592h0.082h22.594c4.08,0,7.381-3.02,7.381-6.745l9.32-70.166
				C612.994,233.181,609.687,230.159,605.606,230.159z"/>
		</g>
		<g>
			<g>
				
					<rect x="840.336" y="55.805" fill="#FFFFFF" stroke="#929497" stroke-width="5" stroke-miterlimit="10" width="205.061" height="226.419"/>
				<rect x="832.336" y="265.397" fill="#929497" width="221.061" height="22.465"/>
				<path fill="#FFFFFF" stroke="#DBDCDD" stroke-miterlimit="10" d="M898.97,257.097c0-4.584-3.479-8.302-7.771-8.302h-36.823
					c-4.289,0-7.767,3.718-7.767,8.302l0,0c0,4.585,3.478,8.301,7.767,8.301h36.823C895.491,265.397,898.97,261.682,898.97,257.097
					L898.97,257.097z"/>
				<rect x="1035.677" y="287.862" fill="#929497" width="9.72" height="28.082"/>
				<rect x="840.336" y="287.862" fill="#929497" width="9.72" height="28.082"/>
			</g>
		</g>
		<g>
			<path fill-rule="evenodd" clip-rule="evenodd" d="M785.868,271.21c0.971,1.038,1.438,2.28,1.4,3.724l-0.449,36.953
				c-0.036,1.443-0.54,2.686-1.512,3.723c-0.971,1.001-2.146,1.5-3.525,1.5c-1.383-0.037-2.541-0.575-3.474-1.611
				c-0.971-1.037-1.455-2.278-1.455-3.723l0.503-36.953c0-1.443,0.505-2.668,1.513-3.666c0.97-1.039,2.146-1.557,3.526-1.557
				C783.778,269.637,784.936,270.175,785.868,271.21z"/>
			<path fill-rule="evenodd" clip-rule="evenodd" fill="#3F5272" d="M789.518,179.578l-1.625,127.029l-19.429-0.223l1.625-127.029
				c0.036-2.334,0.839-4.314,2.407-5.945s3.434-2.427,5.6-2.389l3.583,0.055c2.202,0.037,4.068,0.889,5.6,2.557
				C788.809,175.3,789.555,177.282,789.518,179.578z"/>
			<path fill-rule="evenodd" clip-rule="evenodd" fill="#F7A485" d="M755.531,97.838c3.209-0.298,6.196-0.445,8.957-0.445
				l10.415,0.557c-0.672,2.036-1.885,3.703-3.639,4.999c-1.792,1.298-3.789,1.947-5.993,1.947c-2.275,0-4.31-0.667-6.103-2.001
				C757.415,101.597,756.203,99.913,755.531,97.838z"/>
			<path fill-rule="evenodd" clip-rule="evenodd" fill="#3F5272" d="M739.293,157.962h50.337v24.173c0,4.186-1.493,7.76-4.48,10.726
				c-2.985,2.963-6.588,4.443-10.806,4.443h-19.766c-4.218,0-7.82-1.48-10.807-4.443c-2.986-2.966-4.479-6.54-4.479-10.726V157.962z
				"/>
			<path fill-rule="evenodd" clip-rule="evenodd" fill="#445A7D" d="M751.891,197.083c-3.62-0.63-6.605-2.335-8.958-5.113
				c-2.428-2.853-3.64-6.13-3.64-9.835v-24.173h25.195v24.173c0,3.705-1.193,6.982-3.581,9.835
				C758.516,194.748,755.512,196.453,751.891,197.083z"/>
			<g>
				<g>
					<path fill-rule="evenodd" clip-rule="evenodd" fill="#F7A485" d="M764.488,73.443c1.567,0,2.911,0.555,4.031,1.667
						c1.083,1.074,1.624,2.389,1.624,3.945v18.894l-2.295,5.668l-9.07-5.668V79.056c0-1.557,0.56-2.871,1.679-3.945
						C761.54,73.998,762.884,73.443,764.488,73.443z"/>
				</g>
			</g>
			<g>
				<path fill-rule="evenodd" clip-rule="evenodd" fill="#10122D" d="M781.735,65.441c-0.448,0-0.822-0.149-1.121-0.445
					c-0.336-0.333-0.503-0.723-0.503-1.166c0-0.445,0.167-0.814,0.503-1.112c0.299-0.295,0.673-0.444,1.121-0.444
					s0.84,0.149,1.175,0.444c0.299,0.298,0.447,0.667,0.447,1.112c0,0.443-0.148,0.833-0.447,1.166
					C782.575,65.292,782.184,65.441,781.735,65.441z"/>
				<path fill-rule="evenodd" clip-rule="evenodd" fill="#10122D" d="M769.023,65.441c-0.447,0-0.82-0.149-1.119-0.445
					c-0.338-0.333-0.505-0.723-0.505-1.166c0-0.445,0.167-0.814,0.505-1.112c0.299-0.295,0.672-0.444,1.119-0.444
					c0.449,0,0.822,0.149,1.12,0.444c0.299,0.298,0.449,0.667,0.449,1.112c0,0.443-0.15,0.833-0.449,1.166
					C769.846,65.292,769.473,65.441,769.023,65.441z"/>
			</g>
			<path fill-rule="evenodd" clip-rule="evenodd" fill="#F4E6E6" d="M781.51,76.055c0,1.668-0.597,3.094-1.792,4.277
				c-1.193,1.188-2.65,1.779-4.367,1.779c-1.681,0-3.115-0.592-4.311-1.779c-1.194-1.184-1.792-2.609-1.792-4.277H781.51z"/>
			<path fill-rule="evenodd" clip-rule="evenodd" d="M752.874,270.877c0.932,1.075,1.362,2.334,1.285,3.778
				c-0.745,16.374-1.361,28.654-1.847,36.843c-0.074,1.445-0.636,2.646-1.678,3.611c-1.01,0.962-2.204,1.408-3.586,1.333
				c-1.38-0.073-2.519-0.648-3.414-1.722c-0.896-1.076-1.308-2.334-1.233-3.78c0.6-10.261,1.196-22.505,1.794-36.729
				c0.072-1.409,0.614-2.613,1.622-3.612c1.045-0.963,2.24-1.426,3.584-1.39C750.782,269.285,751.939,269.84,752.874,270.877z"/>
			<path fill-rule="evenodd" clip-rule="evenodd" fill="#445A7D" d="M759.001,179.633c-1.12,49.198-2.629,91.467-4.534,126.808
				l-19.374-1.056c1.866-35.229,3.361-77.277,4.48-126.141c0.075-2.296,0.895-4.241,2.461-5.834
				c1.568-1.631,3.453-2.427,5.657-2.389l3.526,0.055c2.203,0.075,4.069,0.944,5.6,2.611
				C758.348,175.355,759.076,177.337,759.001,179.633z"/>
			<path fill-rule="evenodd" clip-rule="evenodd" fill="none" stroke="#1B181D" stroke-width="1.35" d="M747.075,161.851v8.17
				c0,2.149-0.765,3.964-2.297,5.445c-1.492,1.52-3.32,2.277-5.485,2.277"/>
			
				<line fill-rule="evenodd" clip-rule="evenodd" fill="none" stroke="#1B181D" stroke-width="1.35" x1="739.293" y1="161.851" x2="789.63" y2="161.851"/>
			
				<line fill-rule="evenodd" clip-rule="evenodd" fill="none" stroke="#445A7D" stroke-width="1.35" x1="769.862" y1="200.527" x2="778.039" y2="200.694"/>
			<path fill-rule="evenodd" clip-rule="evenodd" fill="#6D3D3E" d="M775.235,42.047l9.519-5.501c0.895,2,1.008,4.038,0.334,6.111
				c-0.67,2.075-1.959,3.649-3.862,4.725L775.235,42.047z"/>
			<path fill-rule="evenodd" clip-rule="evenodd" fill="#FDD29A" d="M760.14,100.368c-1.225-1.222-1.837-2.693-1.837-4.412v-8.789
				h12.554v8.789c0,1.728-0.612,3.198-1.835,4.412c-1.225,1.215-2.707,1.824-4.447,1.824
				C762.841,102.192,761.364,101.583,760.14,100.368z"/>
			<path fill-rule="evenodd" clip-rule="evenodd" fill="#FDD29A" d="M747.437,56.286c1.848,0,3.426,0.691,4.733,2.072
				c1.307,1.379,1.962,3.047,1.962,5.007c0,1.949-0.655,3.62-1.962,5.008c-1.308,1.382-2.886,2.071-4.733,2.071
				c-1.856,0-3.439-0.689-4.745-2.071c-1.311-1.388-1.964-3.059-1.964-5.008c0-1.96,0.653-3.628,1.964-5.007
				C743.997,56.978,745.58,56.286,747.437,56.286z"/>
			<path fill-rule="evenodd" clip-rule="evenodd" fill="#FDD29A" d="M776.39,35.089c3.133,2.478,4.699,5.826,4.699,10.041v30.336
				c0,4.362-1.566,8.099-4.699,11.206c-3.13,3.099-6.895,4.648-11.291,4.648h-1.188c-4.388,0-8.147-1.55-11.279-4.648
				c-3.13-3.107-4.696-6.844-4.696-11.206V45.13c0-4.215,1.566-7.563,4.696-10.041c2.94-2.331,6.701-3.495,11.279-3.495h1.188
				C769.679,31.594,773.441,32.759,776.39,35.089z"/>
			<path fill-rule="evenodd" clip-rule="evenodd" fill="#FDD29A" d="M785.859,57.575c1.307,1.39,1.961,3.058,1.961,5.009
				c0,1.958-0.654,3.633-1.961,5.021c-1.309,1.38-2.89,2.07-4.746,2.07c-1.85,0-3.428-0.69-4.734-2.07
				c-1.309-1.389-1.962-3.063-1.962-5.021c0-1.951,0.653-3.619,1.962-5.009c1.307-1.38,2.885-2.07,4.734-2.07
				C782.97,55.505,784.551,56.195,785.859,57.575z"/>
			<path fill-rule="evenodd" clip-rule="evenodd" fill="#834B4B" d="M748.872,68.869c0,2.464,0.833,4.575,2.499,6.334
				c1.657,1.752,3.651,2.629,5.982,2.629h13.84c2.332,0,4.326-0.877,5.985-2.629c1.664-1.759,2.497-3.87,2.497-6.334V55.022
				c1,1.072,1.558,4.867,1.673,11.379c0.05,3.259,0.005,6.405-0.137,9.448c-0.058,7.041-1.328,11.867-3.808,14.478
				c-1.168,1.224-2.674,2.092-4.523,2.604c-1.606,0.453-3.657,0.681-6.146,0.681h-4.922c-2.514,0-4.575-0.206-6.183-0.619
				c-1.883-0.487-3.41-1.31-4.585-2.468c-2.539-2.504-3.775-7.14-3.71-13.907c-0.141-3.167-0.182-6.443-0.124-9.831
				c0.107-6.769,0.662-10.692,1.66-11.765V68.869z"/>
			<path fill-rule="evenodd" clip-rule="evenodd" fill="#834B4B" d="M774.891,34.841c1.875-0.257,3.152-0.359,3.835-0.31
				c1.117,0.081,1.925,0.512,2.424,1.289c0.567,0.884,0.85,2.346,0.85,4.389l-0.025,3.743c-0.041,3.008-0.12,5.818-0.237,8.43
				c-0.373,8.347-1.061,13.103-2.061,14.268V51.576c0-2.686-0.833-4.984-2.497-6.893c-1.659-1.907-3.653-2.863-5.985-2.863h-13.84
				c-2.331,0-4.325,0.956-5.982,2.863c-1.666,1.908-2.499,4.207-2.499,6.893v15.073c-0.998-1.165-1.685-5.921-2.061-14.268
				c-0.117-2.611-0.196-5.422-0.237-8.43l-0.025-3.743c0-4.067,1.066-6.958,3.199-8.679c1.863-1.496,4.792-2.242,8.781-2.242
				l11.329,5.987C771.14,35.275,772.818,35.129,774.891,34.841z"/>
			<path fill-rule="evenodd" clip-rule="evenodd" fill="#834B4B" d="M755.906,71.585c1.646-0.736,4.437-1.104,8.368-1.104
				c3.931,0,6.719,0.368,8.368,1.104c2.308,1.023,3.461,2.999,3.461,5.924c0,3.232-1.153,5.99-3.461,8.27
				c-2.315,2.281-5.104,3.421-8.368,3.421s-6.054-1.14-8.368-3.421c-2.307-2.279-3.461-5.037-3.461-8.27
				C752.445,74.584,753.6,72.608,755.906,71.585z"/>
			<path fill-rule="evenodd" clip-rule="evenodd" fill="#FDD29A" d="M767.959,77.771c1.107,0.247,2.157,0.373,3.147,0.373
				c0,0.824-0.715,1.531-2.148,2.117c-1.434,0.589-3.165,0.881-5.195,0.881c-2.033,0-3.765-0.292-5.196-0.881
				c-1.433-0.586-2.148-1.293-2.148-2.117l0.899-0.052c0.73-0.056,1.432-0.165,2.098-0.321c2.157-0.497,3.606-1.368,4.348-2.615
				C764.352,76.402,765.752,77.273,767.959,77.771z"/>
			<path fill-rule="evenodd" clip-rule="evenodd" fill="#6D3D3E" d="M784.123,32.262l-2.25,16.477
				c-0.166-0.406-0.448-0.873-0.848-1.4c-0.8-1.059-1.774-1.902-2.924-2.531c-3.697-2.007-8.478-1.495-14.339,1.537
				c-0.859-0.586-1.934-1.14-3.223-1.66c-2.6-1.033-5.001-1.359-7.209-0.979c-2.198,0.38-3.964,1.409-5.295,3.087
				c-0.417,0.528-0.766,1.092-1.05,1.686c-0.133,0.296-0.229,0.541-0.287,0.731l-0.111-10.363c-0.06-0.934,0.09-2.033,0.448-3.297
				c0.726-2.529,2.141-4.617,4.248-6.26c1.854-1.448,3.584-2.567,5.183-3.36c0.801-0.405,1.412-0.663,1.836-0.77l0.525,0.893
				c0.482,0.628,1.07,1.021,1.761,1.178c0.817-1.851,2.557-3.12,5.221-3.806c1.334-0.339,2.587-0.491,3.761-0.459l-0.948,1.86
				c-0.591,1.454-0.798,2.707-0.613,3.756c1.058-1.462,3.014-2.148,5.871-2.058c1.424,0.05,2.745,0.244,3.959,0.583l-0.611,2.145
				c-0.483,1.759-0.912,3.478-1.286,5.157c1.949-1.803,3.896-2.7,5.845-2.691C782.761,31.716,783.541,31.898,784.123,32.262z"/>
			<path fill-rule="evenodd" clip-rule="evenodd" d="M757.667,57.477c-0.224,0.28-0.531,0.416-0.924,0.416
				c-0.392,0-0.727-0.136-1.01-0.416c-0.222-0.221-0.335-0.526-0.335-0.916c0-0.388,0.113-0.721,0.335-0.999
				c0.283-0.222,0.618-0.332,1.01-0.332c0.393,0,0.7,0.11,0.924,0.332c0.28,0.278,0.422,0.611,0.422,0.999
				C758.089,56.95,757.947,57.256,757.667,57.477z"/>
			<path fill-rule="evenodd" clip-rule="evenodd" d="M773.076,57.477c-0.224,0.28-0.532,0.416-0.922,0.416
				c-0.394,0-0.729-0.136-1.009-0.416c-0.224-0.221-0.336-0.526-0.336-0.916c0-0.388,0.112-0.721,0.336-0.999
				c0.28-0.222,0.615-0.332,1.009-0.332c0.39,0,0.698,0.11,0.922,0.332c0.281,0.278,0.421,0.611,0.421,0.999
				C773.497,56.95,773.357,57.256,773.076,57.477z"/>
			<path fill-rule="evenodd" clip-rule="evenodd" fill="#FDD29A" d="M806.23,181.96l-0.335,7.003
				c-0.075,2.111,0.261,3.667,1.008,4.667l0.336,0.501c1.045,1.369,1.772,2.889,2.184,4.557l0.336,1.278
				c0.187,0.666,0.634,1.185,1.344,1.554c0.672,0.371,1.4,0.465,2.184,0.279l0.896-0.223c0.784-0.185,1.548-0.593,2.296-1.222
				c0.71-0.631,1.193-1.297,1.454-2.001l1.232-3.444c0.223-0.705,0.263-1.502,0.111-2.389c-0.111-0.891-0.391-1.632-0.839-2.224
				l-1.679-2.223c-0.562-0.778-1.662-3.594-3.305-8.447L806.23,181.96z"/>
			<path fill-rule="evenodd" clip-rule="evenodd" fill="#FDD29A" d="M719.082,181.51l0.336,7.002
				c0.075,2.112-0.262,3.667-1.011,4.668l-0.34,0.501c-1.049,1.369-1.778,2.889-2.19,4.557l-0.338,1.277
				c-0.188,0.667-0.636,1.185-1.35,1.555c-0.674,0.371-1.405,0.464-2.192,0.279l-0.899-0.223c-0.787-0.185-1.554-0.593-2.305-1.222
				c-0.712-0.63-1.198-1.297-1.462-2.001l-1.235-3.444c-0.225-0.705-0.265-1.501-0.112-2.39c0.112-0.89,0.392-1.632,0.843-2.222
				l1.685-2.225c0.563-0.777,1.668-3.592,3.317-8.445L719.082,181.51z"/>
			<g>
				<path fill-rule="evenodd" clip-rule="evenodd" fill="#2F4678" d="M735.227,102.142c3.415-3.388,7.529-5.083,12.343-5.083h30.649
					c4.87,0,9.016,1.695,12.43,5.083c3.414,3.39,5.122,7.473,5.122,12.25l-2.019,86.246h-62.305l-1.344-86.246
					C730.104,109.614,731.81,105.531,735.227,102.142z"/>
				<polygon fill-rule="evenodd" clip-rule="evenodd" fill="#445A7D" points="750.952,116.071 746.271,109.806 753.327,97.52 
					762.047,176.132 744.455,121.354 				"/>
				<polygon fill-rule="evenodd" clip-rule="evenodd" fill="#445A7D" points="775.542,116.071 782.039,121.354 762.047,176.132 
					773.166,97.52 780.223,109.806 				"/>
				<polygon fill-rule="evenodd" clip-rule="evenodd" fill="#EAF6FD" points="753.327,97.52 774.313,97.52 762.047,176.132 				"/>
				<polygon fill-rule="evenodd" clip-rule="evenodd" fill="#FFFFFF" points="756.667,93.625 763.974,104.592 756.808,112.023 
					749.932,100.127 				"/>
				<polygon fill-rule="evenodd" clip-rule="evenodd" fill="#FFFFFF" points="770.75,93.764 777.483,100.266 770.988,112.023 
					763.974,104.592 				"/>
				<polygon fill-rule="evenodd" clip-rule="evenodd" fill="#C96959" points="763.974,104.592 767.521,141 762.047,176.132 
					758.147,141.027 				"/>
				<polygon fill-rule="evenodd" clip-rule="evenodd" fill="#C96959" points="763.974,104.592 769.271,110.207 763.4,117.139 
					758.301,110.442 				"/>
				<g>
					<path fill-rule="evenodd" clip-rule="evenodd" fill="#2F4678" d="M789.854,100.828c-2.003-1.275-3.707-2.139-5.113-2.593
						l-4.304,12.796c0.904,0.353,2.008,1,3.313,1.942c2.597,1.876,5.015,4.348,7.251,7.418c7.105,9.75,11.103,23.559,11.987,41.426
						c0.362,7.412,0.498,14.576,0.405,21.488h13.607c0.093-7.254-0.051-14.634-0.433-22.14c-1.09-22.035-6.57-39.057-16.443-51.063
						C796.985,106.275,793.563,103.186,789.854,100.828z"/>
				</g>
				<g>
					<path fill-rule="evenodd" clip-rule="evenodd" fill="#2F4678" d="M735.16,101.278c2.064-1.275,3.82-2.139,5.27-2.593
						l4.435,12.797c-0.931,0.353-2.068,0.999-3.414,1.942c-2.676,1.874-5.167,4.347-7.471,7.417
						c-7.324,9.751-11.441,23.56-12.354,41.426c-0.373,7.413-0.513,14.576-0.416,21.489h-14.024
						c-0.096-7.255,0.053-14.635,0.445-22.141c1.124-22.035,6.771-39.056,16.946-51.063
						C727.812,106.727,731.34,103.636,735.16,101.278z"/>
				</g>
			</g>
			<path fill-rule="evenodd" clip-rule="evenodd" d="M730.831,313.108l0.11,9.67h23.014v-9.114c0-1.335-0.485-2.481-1.455-3.446
				c-0.973-0.961-2.129-1.444-3.473-1.444H735.7c-0.148,1.223-0.689,2.262-1.624,3.113
				C733.181,312.7,732.099,313.108,730.831,313.108z"/>
			<path fill-rule="evenodd" clip-rule="evenodd" d="M724.164,319.333v3.445h15.287v-3.445c0-1.705-0.618-3.167-1.85-4.392
				c-1.195-1.222-2.649-1.833-4.366-1.833h-2.8c-1.754,0-3.229,0.611-4.424,1.833C724.779,316.166,724.164,317.628,724.164,319.333z
				"/>
			<path fill-rule="evenodd" clip-rule="evenodd" d="M749.476,314.998c-1.195,1.186-1.793,2.63-1.793,4.335v3.445h6.272v-9.114
				l-0.056-0.556C752.183,313.147,750.708,313.776,749.476,314.998z"/>
			<path fill-rule="evenodd" clip-rule="evenodd" d="M744.604,309.107v-1.111c0-0.777-0.3-1.445-0.896-1.999
				c-0.561-0.594-1.231-0.89-2.018-0.89h-3.078c-0.821,0-1.512,0.296-2.071,0.89c-0.56,0.554-0.841,1.222-0.841,1.999v1.111H744.604
				z"/>
			<rect x="723.271" y="319.555" fill-rule="evenodd" clip-rule="evenodd" width="30.684" height="3.224"/>
			<path fill-rule="evenodd" clip-rule="evenodd" d="M782.343,308.773h-13.327c-0.11,1.223-0.634,2.262-1.567,3.113
				c-0.934,0.813-2.035,1.222-3.302,1.222l0.111,9.67h23.012v-9.114c0-1.335-0.486-2.481-1.454-3.446
				C784.882,309.257,783.725,308.773,782.343,308.773z"/>
			<path fill-rule="evenodd" clip-rule="evenodd" d="M756.586,319.333v3.445h15.342v-3.445c0-1.705-0.615-3.167-1.848-4.392
				c-1.232-1.222-2.705-1.833-4.423-1.833h-2.801c-1.754,0-3.228,0.611-4.423,1.833
				C757.201,316.166,756.586,317.628,756.586,319.333z"/>
			<path fill-rule="evenodd" clip-rule="evenodd" d="M787.215,313.108c-1.719,0.039-3.193,0.668-4.425,1.89
				c-1.194,1.186-1.791,2.63-1.791,4.335v3.445h6.271v-9.114L787.215,313.108z"/>
			<path fill-rule="evenodd" clip-rule="evenodd" d="M777.919,309.107v-1.111c0-0.777-0.279-1.445-0.839-1.999
				c-0.561-0.594-1.251-0.89-2.072-0.89h-3.08c-0.782,0-1.475,0.296-2.071,0.89c-0.561,0.554-0.841,1.222-0.841,1.999v1.111H777.919
				z"/>
			<rect x="756.586" y="319.555" fill-rule="evenodd" clip-rule="evenodd" width="30.684" height="3.224"/>
			
				<line fill-rule="evenodd" clip-rule="evenodd" stroke="#030305" stroke-width="1.35" stroke-linecap="round" x1="773.497" y1="309.94" x2="769.128" y2="309.94"/>
			
				<line fill-rule="evenodd" clip-rule="evenodd" stroke="#030305" stroke-width="1.35" stroke-linecap="round" x1="771.928" y1="312.329" x2="767.561" y2="312.329"/>
			
				<line fill-rule="evenodd" clip-rule="evenodd" stroke="#030305" stroke-width="1.35" stroke-linecap="round" x1="739.789" y1="309.94" x2="735.421" y2="309.94"/>
			
				<line fill-rule="evenodd" clip-rule="evenodd" stroke="#030305" stroke-width="1.35" stroke-linecap="round" x1="738.222" y1="312.329" x2="733.853" y2="312.329"/>
		</g>
		<g>
			<path fill="#5A6D77" d="M397.4,389.977c-0.27-3.356-3.074-5.997-6.504-5.997c-3.424,0-6.229,2.641-6.497,5.997H397.4z"/>
			<g>
				<rect x="396.51" y="319.261" fill="#5A6D77" width="73.24" height="4.568"/>
				<path fill="#3A8399" d="M473.207,315.454c0,2.101-1.972,3.807-4.395,3.807h-72.054c-2.426,0-4.393-1.706-4.393-3.807l0,0
					c0-2.102,1.966-3.806,4.393-3.806h72.054C471.235,311.648,473.207,313.353,473.207,315.454L473.207,315.454z"/>
				<path fill="#5A6D77" d="M394.875,387.265c-0.217,1.412-1.537,2.38-2.949,2.161l0,0c-1.407-0.218-2.375-1.538-2.158-2.949
					l9.68-62.741c0.218-1.41,1.536-2.377,2.945-2.159l0,0c1.412,0.216,2.379,1.536,2.161,2.945L394.875,387.265z"/>
				<path fill="#5A6D77" d="M469.532,387.265c0.217,1.412,1.537,2.38,2.949,2.161l0,0c1.411-0.218,2.379-1.538,2.158-2.949
					l-9.674-62.741c-0.217-1.41-1.542-2.377-2.949-2.159l0,0c-1.407,0.216-2.38,1.536-2.162,2.945L469.532,387.265z"/>
			</g>
			<path fill="#5A6D77" d="M466.329,389.977c0.27-3.356,3.079-5.997,6.504-5.997c3.42,0,6.228,2.641,6.504,5.997H466.329z"/>
			<path fill="#3A8399" d="M464.152,227.859h-31.911h-0.077h-31.909c-4.071,0-7.381,3.021-7.381,6.753l9.312,70.165
				c0,3.726,3.304,6.745,7.381,6.745h22.597h0.077h22.598c4.078,0,7.383-3.02,7.383-6.745l9.312-70.165
				C471.534,230.881,468.223,227.859,464.152,227.859z"/>
		</g>
		<g>
			<path fill="#5A6D77" d="M261.756,388.3c-0.275-3.354-3.079-5.996-6.503-5.996s-6.235,2.642-6.503,5.996H261.756z"/>
			<g>
				<rect x="260.86" y="317.585" fill="#5A6D77" width="73.24" height="4.57"/>
				<path fill="#3A8399" d="M337.556,313.778c0,2.102-1.966,3.807-4.393,3.807h-72.055c-2.425,0-4.392-1.705-4.392-3.807l0,0
					c0-2.103,1.966-3.805,4.392-3.805h72.055C335.59,309.974,337.556,311.676,337.556,313.778L337.556,313.778z"/>
				<path fill="#5A6D77" d="M259.226,385.59c-0.217,1.411-1.537,2.38-2.949,2.159l0,0c-1.412-0.216-2.375-1.535-2.158-2.949
					l9.68-62.741c0.218-1.41,1.537-2.376,2.95-2.158l0,0c1.407,0.217,2.374,1.535,2.157,2.945L259.226,385.59z"/>
				<path fill="#5A6D77" d="M333.888,385.59c0.217,1.411,1.531,2.38,2.944,2.159l0,0c1.413-0.216,2.38-1.535,2.158-2.949
					l-9.674-62.741c-0.218-1.41-1.536-2.376-2.949-2.158l0,0c-1.407,0.217-2.375,1.535-2.158,2.945L333.888,385.59z"/>
			</g>
			<path fill="#5A6D77" d="M330.686,388.3c0.269-3.354,3.074-5.996,6.497-5.996c3.426,0,6.235,2.642,6.499,5.996H330.686z"/>
			<path fill="#3A8399" d="M328.502,226.184h-31.905h-0.082h-31.909c-4.077,0-7.379,3.021-7.379,6.752l9.313,70.166
				c0,3.726,3.306,6.746,7.381,6.746h22.593h0.082h22.593c4.076,0,7.382-3.021,7.382-6.746l9.313-70.166
				C335.885,229.205,332.579,226.184,328.502,226.184z"/>
		</g>
		<g>
			<ellipse fill="#26383A" cx="431.543" cy="298.377" rx="24.09" ry="16.759"/>
			<rect x="433.849" y="290.417" fill="#26383A" width="20.529" height="81.791"/>
			<rect x="408.291" y="290.417" fill="#26383A" width="20.529" height="81.791"/>
			<rect x="409.626" y="378.105" fill="#4D3A29" width="13.486" height="16.72"/>
			<path fill="#6C5039" d="M425.29,394.657h-17.845c0-6.023,3.997-10.902,8.919-10.902
				C421.294,383.755,425.29,388.634,425.29,394.657z"/>
			<path fill="#FBF2E7" d="M423.08,399.1h-13.425c-1.22,0-2.21-1.209-2.21-2.701v-1.741h17.845v1.741
				C425.29,397.891,424.302,399.1,423.08,399.1z"/>
			<rect x="437.658" y="378.105" fill="#4D3A29" width="13.488" height="16.72"/>
			<path fill="#6C5039" d="M453.327,394.657h-17.848c0-6.023,3.994-10.902,8.925-10.902
				C449.33,383.755,453.327,388.634,453.327,394.657z"/>
			<path fill="#FBF2E7" d="M451.113,399.1h-13.426c-1.223,0-2.208-1.209-2.208-2.701v-1.741h17.848v1.741
				C453.327,397.891,452.334,399.1,451.113,399.1z"/>
			<path fill="#55787B" d="M422.575,379.37h-12.414c-1.252,0-2.27-1.238-2.27-2.768v-1.681c0-1.527,1.018-2.771,2.27-2.771h12.414
				c1.248,0,2.268,1.244,2.268,2.771v1.681C424.843,378.132,423.823,379.37,422.575,379.37z"/>
			<path fill="#55787B" d="M450.607,379.37h-12.415c-1.254,0-2.265-1.238-2.265-2.768v-1.681c0-1.527,1.01-2.771,2.265-2.771h12.415
				c1.251,0,2.272,1.244,2.272,2.771v1.681C452.879,378.132,451.859,379.37,450.607,379.37z"/>
			<path fill="#6D6D72" d="M463.262,242.753v0.561h-10.458v48.911H408.8v3.357h-10.456v-52.829h0.025
				c0.351-8.916,4.296-16.912,10.431-22.573c1.624-1.497,3.403-2.827,5.303-3.967c0.538-0.325,1.083-0.633,1.641-0.922
				c0.004-0.009,0.011-0.009,0.011-0.015c0.382-0.193,0.763-0.387,1.153-0.568c0.21-0.104,0.423-0.2,0.639-0.295
				c0.428-0.196,0.855-0.379,1.292-0.553c3.702-1.462,7.74-2.276,11.964-2.276c4.654,0,9.081,0.983,13.081,2.748
				c0.397,0.169,0.785,0.353,1.171,0.544c0.181,0.088,0.36,0.182,0.541,0.272c0.119,0.058,0.23,0.116,0.346,0.18
				c0.219,0.116,0.441,0.235,0.657,0.356c0.046,0.026,0.087,0.049,0.131,0.076c0.266,0.147,0.521,0.296,0.777,0.452
				c1.899,1.146,3.676,2.473,5.298,3.972l0,0c6.14,5.658,10.083,13.652,10.434,22.568H463.262z"/>
			<path fill="#F8A66B" d="M440.688,204.717v10.191c-0.303,1.91-4.643,3.422-9.943,3.422c-4.335,0-8.027-1.012-9.397-2.422
				c-0.26-0.271-0.428-0.626-0.431-1.003v-10.188H440.688z"/>
			<path fill="#F7995A" d="M420.917,204.717v3.535c2.851,2.1,6.283,3.236,9.886,3.236c3.606,0,7.038-1.137,9.886-3.236h0.003v-3.535
				H420.917z"/>
			<path fill="#804B26" d="M418.377,155.534v22.74h-5.927v-16.81c0-1.639,0.662-3.122,1.737-4.191
				c0.043-0.046,0.091-0.091,0.131-0.136c0.094-0.078,0.188-0.163,0.285-0.244c0.032-0.029,0.066-0.058,0.101-0.081
				C415.714,156.013,416.988,155.534,418.377,155.534z"/>
			<path fill="#804B26" d="M449.185,161.465v16.81h-5.925v-22.74c1.386,0,2.663,0.479,3.673,1.278c0.12,0.096,0.24,0.2,0.354,0.305
				c0.052,0.045,0.112,0.1,0.168,0.156C448.521,158.343,449.185,159.826,449.185,161.465z"/>
			<path fill="#FCC88A" d="M446.388,156.813v36.728c0,8.611-6.973,15.588-15.585,15.588c-8.607,0-15.583-6.977-15.583-15.588
				v-36.728H446.388z"/>
			<path fill="#804B26" d="M424.44,176.002c-0.52-0.176-1.072-0.272-1.649-0.272s-1.133,0.097-1.654,0.272
				c-1.09,0.371-2.011,1.099-2.636,2.045c-0.229,0.352-0.124,0.823,0.234,1.039l0,0c0.338,0.195,0.768,0.1,0.98-0.227
				c0.655-1.001,1.79-1.673,3.076-1.673s2.419,0.672,3.072,1.673c0.215,0.326,0.643,0.422,0.982,0.227l0,0
				c0.356-0.216,0.465-0.688,0.23-1.039C426.456,177.101,425.529,176.373,424.44,176.002z"/>
			<path fill="#40261B" d="M424.727,180.857c0,1.068-0.864,1.94-1.938,1.94c-1.068,0-1.935-0.872-1.935-1.94
				c0-1.07,0.867-1.938,1.935-1.938C423.863,178.92,424.727,179.787,424.727,180.857z"/>
			<path fill="#804B26" d="M440.27,176.002c-0.516-0.176-1.071-0.272-1.653-0.272c-0.572,0-1.129,0.097-1.647,0.272
				c-1.093,0.371-2.017,1.099-2.638,2.045c-0.23,0.352-0.13,0.823,0.233,1.039l0,0c0.333,0.195,0.768,0.1,0.98-0.227
				c0.655-1.001,1.788-1.673,3.071-1.673c1.293,0,2.429,0.672,3.079,1.673c0.212,0.326,0.644,0.422,0.978,0.227l0,0
				c0.361-0.216,0.467-0.688,0.237-1.039C442.286,177.101,441.361,176.373,440.27,176.002z"/>
			<path fill="#40261B" d="M440.561,180.857c0,1.068-0.866,1.94-1.944,1.94c-1.069,0-1.937-0.872-1.937-1.94
				c0-1.07,0.868-1.938,1.937-1.938C439.695,178.92,440.561,179.787,440.561,180.857z"/>
			<path fill="#804B26" d="M446.933,156.813h-0.902v12.762c0,2.856,0,5.865,0,8.7c0,5.526,0,10.384,0,12.148
				c0,1.728-1.395,3.117-3.116,3.117h-2.53c-1.721,0-3.114-1.399-3.114-3.117c0-0.859-0.35-1.639-0.917-2.203
				c-0.375-0.379-0.85-0.659-1.384-0.802c-0.063,0.139-0.154,0.264-0.27,0.367c-0.222,0.193-0.515,0.311-0.844,0.311h-1.002
				c-0.169,0.883-1.021,1.548-2.052,1.554c-1.029-0.006-1.879-0.671-2.049-1.554h-1.006c-0.326,0-0.626-0.117-0.846-0.311
				c-0.113-0.104-0.206-0.229-0.266-0.367c-1.328,0.361-2.296,1.566-2.296,3.005c0,0.861-0.345,1.641-0.915,2.206
				c-0.563,0.562-1.341,0.911-2.201,0.911h-2.533c-1.72,0-3.116-1.39-3.116-3.117c0-1.765,0-6.622,0-12.148
				c-0.002-5.157-0.002-10.893-0.002-15.244v-6.218h-0.969c0,0.023,0,0.052,0,0.081c-0.097,0.081-0.191,0.166-0.285,0.244v36.161
				c0,4.402,1.712,8.544,4.832,11.656c3.112,3.113,7.249,4.828,11.653,4.828c4.406,0,8.541-1.715,11.657-4.828
				c3.115-3.112,4.827-7.254,4.827-11.656v-36.182C447.173,157.013,447.053,156.908,446.933,156.813z"/>
			<path fill="#FCC88A" d="M447.286,177.777L447.286,177.777v10.361l0,0c2.083,0,3.771-1.688,3.771-3.768v-2.822
				C451.057,179.464,449.369,177.777,447.286,177.777z"/>
			<path fill="#F69965" d="M447.286,185.445L447.286,185.445v-4.977l0,0c1.032,0,1.867,0.837,1.867,1.87v1.237
				C449.153,184.607,448.318,185.445,447.286,185.445z"/>
			<path fill="#FCC88A" d="M414.318,177.777L414.318,177.777v10.361l0,0c-2.082,0-3.77-1.688-3.77-3.768v-2.822
				C410.548,179.464,412.236,177.777,414.318,177.777z"/>
			<path fill="#F69965" d="M414.318,185.445L414.318,185.445v-4.977l0,0c-1.031,0-1.868,0.837-1.868,1.87v1.237
				C412.45,184.607,413.287,185.445,414.318,185.445z"/>
			<path fill="#FCC88A" d="M436.394,196.587l-3.763,1.517l-0.708-1.329c-0.224-0.428-0.638-0.729-1.12-0.84
				c-0.478,0.11-0.892,0.412-1.12,0.84l-0.705,1.329l-3.773-1.517l2.008-4.479h7.178L436.394,196.587z"/>
			<path fill="#FBF2E7" d="M434.391,192.108l-0.788,0.958c-0.498,0.608-1.261,0.964-2.078,0.964h-1.451
				c-0.81,0-1.574-0.355-2.07-0.964l-0.791-0.958H434.391z"/>
			<path fill="#804B26" d="M418.713,158.274c0,4.855-1.398,9.122-3.494,11.523v-12.985h3.448
				C418.697,157.294,418.713,157.776,418.713,158.274z"/>
			<path fill="#804B26" d="M442.73,158.274c0,4.855,1.396,9.122,3.494,11.523v-12.985h-3.455
				C442.746,157.294,442.73,157.776,442.73,158.274z"/>
			<path fill="#804B26" d="M448.384,148.788h-25.948c-3.308,0-5.986,2.679-5.986,5.985v4.594h28.803
				c2.997,0,5.432-2.433,5.432-5.431v-2.849C450.684,149.813,449.655,148.788,448.384,148.788z"/>
			<path fill="#804B26" d="M447.564,157.45c0,3.523-6.92,6.384-15.451,6.384c-8.54,0-15.458-2.86-15.458-6.384
				c0-3.526,6.918-6.384,15.458-6.384C440.644,151.066,447.564,153.924,447.564,157.45z"/>
			<path fill="#F8A66B" d="M408.8,295.582v17.97l0,0c-5.773,0-10.456-1.281-10.456-2.87v-15.1H408.8z"/>
			<g>
				<path fill="#6D6D72" d="M467.1,281.956c-1.314-14.849-2.628-29.697-3.943-44.546c-0.938-10.586-17.682-11.414-16.729-0.666
					c1.318,14.852,2.629,29.701,3.945,44.55C451.307,291.875,468.053,292.703,467.1,281.956L467.1,281.956z"/>
			</g>
			<polygon fill="#FFFFFF" points="431.354,235.515 431.354,235.515 420.443,214 441.143,214 			"/>
			<polygon points="431.287,214.886 431.287,214.886 426.646,221.662 431.427,225.452 436.212,221.662 			"/>
			<polygon points="434.981,228.031 431.354,236.007 427.2,227.817 431.427,222.06 			"/>
			<polygon fill="#AEAEAF" points="431.354,236.007 431.354,236.007 415.219,220.164 420.917,213.12 			"/>
			<polygon fill="#AEAEAF" points="431.354,236.007 431.354,236.007 447.723,220.164 441.94,213.12 			"/>
			<rect x="398.5" y="287" fill="#AEAEAF" width="11" height="11"/>
			<path fill="#F8A66B" d="M453.191,293.067v17.971l0,0c7.01,0,12.697-1.282,12.697-2.87v-15.101H453.191z"/>
			<rect x="452.5" y="286" fill="#AEAEAF" width="13" height="10"/>
			<rect x="408.291" y="290.835" fill="#26383A" width="44.83" height="26.396"/>
		</g>
		<g>
			<path fill="#5A6D77" d="M94.228,389.024c-0.27-3.355-3.079-5.996-6.504-5.996c-3.424,0-6.233,2.641-6.502,5.996H94.228z"/>
			<g>
				<rect x="93.332" y="318.311" fill="#5A6D77" width="73.245" height="4.568"/>
				<path fill="#3A8399" d="M170.028,314.505c0,2.1-1.966,3.806-4.392,3.806H93.586c-2.433,0-4.393-1.706-4.393-3.806l0,0
					c0-2.105,1.96-3.806,4.393-3.806h72.049C168.062,310.699,170.028,312.399,170.028,314.505L170.028,314.505z"/>
				<path fill="#5A6D77" d="M91.697,386.315c-0.218,1.411-1.537,2.379-2.943,2.16l0,0c-1.413-0.22-2.38-1.537-2.158-2.945
					l9.674-62.744c0.217-1.412,1.537-2.377,2.949-2.162l0,0c1.413,0.217,2.38,1.543,2.158,2.948L91.697,386.315z"/>
				<path fill="#5A6D77" d="M166.36,386.315c0.216,1.411,1.536,2.379,2.943,2.16l0,0c1.413-0.22,2.379-1.537,2.163-2.945
					l-9.675-62.744c-0.217-1.412-1.542-2.377-2.954-2.162l0,0c-1.408,0.217-2.375,1.543-2.158,2.948L166.36,386.315z"/>
			</g>
			<path fill="#5A6D77" d="M163.157,389.024c0.27-3.355,3.073-5.996,6.498-5.996c3.429,0,6.233,2.641,6.502,5.996H163.157z"/>
			<path fill="#3A8399" d="M86.948,231.631l-5.241,1.102l-0.015,0.003l-5.236,1.099c-0.672,0.144-0.589,3.214,0.171,6.861
				l15.96,68.346c0.771,3.648,1.929,6.49,2.602,6.347l3.71-0.776l0.01-0.005l3.714-0.778c0.673-0.141,0.59-3.21-0.171-6.857
				L89.55,237.979C88.784,234.332,87.621,231.491,86.948,231.631z"/>
		</g>
		<g>
			<path fill="#141818" d="M650.209,263.838c0,1.266-0.965,2.295-2.153,2.295h-34.267c-1.185,0-2.152-1.029-2.152-2.295l0,0
				c0-1.264,0.968-2.289,2.152-2.289h34.267C649.244,261.549,650.209,262.574,650.209,263.838L650.209,263.838z"/>
			<polygon fill="#141818" points="649.132,265.994 644.899,264.881 652.102,233.738 654.552,234.378 			"/>
		</g>
		<g>
			<path fill="#141818" d="M497.723,263.838c0,1.266-0.965,2.295-2.153,2.295h-34.266c-1.185,0-2.153-1.029-2.153-2.295l0,0
				c0-1.264,0.968-2.289,2.153-2.289h34.266C496.758,261.549,497.723,262.574,497.723,263.838L497.723,263.838z"/>
			<polygon fill="#141818" points="496.646,265.994 492.413,264.881 499.616,233.738 502.066,234.378 			"/>
		</g>
		<g>
			<path fill="#141818" d="M363.947,263.838c0,1.266-0.965,2.295-2.153,2.295h-34.266c-1.185,0-2.152-1.029-2.152-2.295l0,0
				c0-1.264,0.967-2.289,2.152-2.289h34.266C362.982,261.549,363.947,262.574,363.947,263.838L363.947,263.838z"/>
			<polygon fill="#141818" points="362.87,265.994 358.637,264.881 365.84,233.738 368.29,234.378 			"/>
		</g>
		<g>
			<path fill="#3A2316" d="M591.239,194.045h-11.337c-3.721,0-6.748-2.881-6.748-6.435v-23.153h18.085V194.045z"/>
			<path fill="#F69320" d="M606.731,305.959c0.5-1.423,0.228-3.634-0.595-4.912l-1.597-2.471c-0.828-1.276-3.087-9.121-3.087-9.121
				l-7.111,1.964c0,0-0.24,2.868-0.444,7.372c-0.067,1.5,0.073,3.72,0.884,5l0.329,0.501c0.812,1.285,1.752,3.536,2.085,5.003
				L606.731,305.959z"/>
			<g>
				<path fill="#028BC0" d="M585.426,294.553c0,0-1.111-16.759-1.89-33.571c-0.817-16.798-1.337-33.631-1.337-33.631
					c-0.212-7.014,2.448-12.996,5.926-13.366c3.48-0.363,6.466,4.888,6.673,11.718c0,0,0.511,16.457,1.308,32.842
					c0.758,16.4,1.836,32.696,1.836,32.696L585.426,294.553z"/>
			</g>
			<path fill="#F69320" d="M595.975,307.754c0.131,1.647,1.63,2.886,3.36,2.766l4.914-0.342c1.727-0.126,3.025-1.555,2.895-3.199
				c-0.126-1.65-1.629-2.887-3.354-2.766l-4.915,0.339C597.142,304.675,595.851,306.111,595.975,307.754z"/>
			<path fill="#187D8F" d="M621.816,346.67c0.008-3.024,2.475-5.464,5.508-5.457l0,0c3.036,0.006,5.496,2.459,5.487,5.478
				l1.604,38.461c-0.008,3.017-2.477,5.457-5.514,5.452l0,0c-3.035-0.007-5.488-2.46-5.482-5.479L621.816,346.67z"/>
			<path d="M637.175,379.604l-1.427-80.358c0.012-2.936-3.459-5.32-7.749-5.329l-3.452-0.003c-4.289-0.009-7.779,2.369-7.785,5.31
				l1.422,80.35L637.175,379.604z"/>
			<polygon fill="#EBE5E1" points="618.195,373.584 637.186,373.627 637.186,371.402 618.201,371.354 			"/>
			<path d="M624.368,381.797h14.739c0.29,2.589,2.585,4.603,5.379,4.603l-0.083,10.227h-25.445v-9.663
				C618.958,384.109,621.379,381.797,624.368,381.797z"/>
			<path d="M635.938,396.626v-3.628c0-3.646,3.1-6.599,6.916-6.599h3.097c3.822,0,6.917,2.953,6.917,6.599v3.628H635.938z"/>
			<path d="M619.017,386.399c-0.022,0.193-0.059,0.371-0.059,0.563v9.663h6.93v-3.628
				C625.888,389.367,622.82,386.424,619.017,386.399z"/>
			<path d="M629.296,382.145v-1.184c0-1.694,1.438-3.065,3.21-3.065h3.385c1.774,0,3.213,1.371,3.213,3.065v1.184H629.296z"/>
			<rect x="618.958" y="393.197" width="33.91" height="3.429"/>
			
				<line fill="none" stroke="#020304" stroke-width="1.3653" stroke-linecap="round" x1="634.608" y1="382.998" x2="639.399" y2="382.998"/>
			
				<line fill="none" stroke="#020304" stroke-width="1.3653" stroke-linecap="round" x1="636.348" y1="385.549" x2="641.138" y2="385.549"/>
			<path fill="#3A2316" d="M564.59,184.135c-5.819-1.518-14.15-7.306-17.218-12.529c-2.806,4.194-1.292,10.086,1.007,14.183
				c2.333,4.153,6.093,5.36,10.696,5.996c2.557,0.35,5.08,0.31,7.62-0.069L564.59,184.135z"/>
			<path fill="#028BC0" d="M590.209,231.218l-2.316-6.549l1.102-10.414l-24.401-10.522l-24.398,10.587l7.019,63.964l37.629,3.718
				l-0.068-27.78l0.875-8.283C590.14,242.536,592.15,236.701,590.209,231.218z"/>
			<g>
				<path fill="#F7C28D" d="M562.837,181.817c-3.352,0.103-5.976,2.774-5.865,5.968l0.657,19.348
					c0.101,3.192,2.907,5.693,6.254,5.588c3.347-0.102,5.974-2.773,5.862-5.965l-0.66-19.339
					C568.982,184.22,566.183,181.717,562.837,181.817z"/>
			</g>
			<path fill="#F7C28D" d="M578.104,199.87c-15.639,0-28.2-11.027-28.167-21.677l0.056-15.04c0.011-3.327,0.909-6.455,2.482-9.184
				l34.601,0.118c1.382,2.738,2.131,5.872,2.119,9.201c0,0,0.199,14.195-0.069,18.918
				C588.562,192.216,585.308,196.54,578.104,199.87z"/>
			<g>
				<path fill="#FFFFFF" d="M569.47,186.047c0.525,2.918,3.173,5.134,6.377,5.112c3.198-0.02,5.823-2.259,6.312-5.175
					L569.47,186.047z"/>
			</g>
			<path fill="#3A2316" d="M576.391,154.333c4.993,2.488,11.348,9.276,12.993,14.519c4.107-3.318,4.882-7.983,3.685-12.079
				c-1.21-4.155-5.841-6.691-9.917-8.16c-2.268-0.815-4.592-1.273-7.001-1.442L576.391,154.333z"/>
			<path fill="#5B331E" d="M544.411,175.357c-1.424-4.148-2.623-8.499-2.58-10.9c0.175-9.631,7.603-17.463,17.381-19.286
				c8.902-1.655,17.256,0.888,25.401,4.028c-1.1,2.053-2.319,3.994-3.478,6.018c-4.701,8.229-13.257,14.485-22.984,17.854
				l-0.005,2.259c-0.003,1.833-1.568,3.313-3.49,3.31h-5.792L544.411,175.357z"/>
			<path fill="#1D183C" d="M570.528,173.133c0,0.959-0.815,1.737-1.821,1.737c-1.011,0-1.827-0.778-1.827-1.737
				c0-0.965,0.815-1.747,1.827-1.747C569.713,171.386,570.528,172.168,570.528,173.133z"/>
			<path fill="#1D183C" d="M585.076,173.133c0,0.959-0.814,1.737-1.828,1.737c-1.006,0-1.815-0.778-1.815-1.737
				c0-0.965,0.809-1.747,1.815-1.747C584.262,171.386,585.076,172.168,585.076,173.133z"/>
			<path fill="#F9AC8D" d="M549.077,171.549c3.122,0,5.659,2.416,5.659,5.39v5.398h-5.659c-3.125,0-5.653-2.412-5.653-5.398
				C543.424,173.965,545.952,171.549,549.077,171.549z"/>
			<path fill="#187D8F" d="M590.576,346.001c0.137-3.007,2.699-5.338,5.737-5.219l0,0c3.03,0.117,5.389,2.661,5.25,5.67
				c-0.579,12.779,0.464,25.557-0.297,38.336c-0.182,3.015-2.786,5.315-5.82,5.146l0,0c-3.027-0.176-5.337-2.742-5.158-5.74
				C591.046,371.479,590.003,358.74,590.576,346.001z"/>
			<path d="M607.389,379.554c2.187-26.758,1.796-53.465,2.769-80.199c0.099-2.931-3.324-5.364-7.636-5.419l-3.47-0.044
				c-4.307-0.054-12.855,5.364-12.855,5.364l2.133,79.623L607.389,379.554z"/>
			<polygon fill="#D8D1BD" points="588.622,372.493 607.686,373.556 607.794,371.323 588.728,370.278 			"/>
			<path d="M591.501,381.795h14.738c0.291,2.591,2.587,4.599,5.376,4.599l-0.084,10.23h-25.443v-9.665
				C586.088,384.109,588.509,381.795,591.501,381.795z"/>
			<path d="M603.067,396.624v-3.632c0-3.645,3.1-6.599,6.919-6.599h3.097c3.821,0,6.914,2.954,6.914,6.599v3.632H603.067z"/>
			<path d="M586.146,386.399c-0.021,0.19-0.059,0.369-0.059,0.56v9.665h6.932v-3.632
				C593.02,389.361,589.948,386.422,586.146,386.399z"/>
			<path d="M596.428,382.142v-1.186c0-1.689,1.437-3.061,3.211-3.061h3.385c1.77,0,3.209,1.371,3.209,3.061v1.186H596.428z"/>
			<rect x="586.088" y="393.197" width="33.91" height="3.427"/>
			
				<line fill="none" stroke="#020304" stroke-width="1.3653" stroke-linecap="round" x1="601.33" y1="382.998" x2="606.119" y2="382.998"/>
			
				<line fill="none" stroke="#020304" stroke-width="1.3653" stroke-linecap="round" x1="603.067" y1="385.549" x2="607.863" y2="385.549"/>
			<path d="M584.613,297.056c-0.002,8.335-6.448,15.098-14.393,15.098h-15.749c-7.95,0-14.473,0.937-14.391-15.098
				c0.081-16.038,5.438-24.102,5.438-24.102h39.094V297.056z"/>
			<path fill="#5B331E" d="M559.916,194.045h-11.339c-3.728,0-6.746-2.881-6.746-6.435v-23.153h18.085V194.045z"/>
			<path d="M540.196,299.365c0,11.455,16.77,18.268,47.362,14.873c25.983-2.881,47.368-3.418,47.368-14.873
				c0-11.448-21.206-20.73-47.364-20.73C561.402,278.635,540.196,287.917,540.196,299.365z"/>
			<g>
				<path fill="#028BC0" d="M550.676,223.05c-4.215,16.343-8.429,32.687-12.641,49.037c-2.313,8.98-16.817,5.168-14.503-3.818
					c4.209-16.347,8.424-32.688,12.639-49.034C538.487,210.253,552.99,214.062,550.676,223.05L550.676,223.05z"/>
			</g>
			<g>
				<path fill="#028BC0" d="M534.514,264.37c12.571,6.012,25.139,12.025,37.711,18.032c8.674,4.148,1.054,16.523-7.588,12.392
					c-12.572-6.013-25.141-12.023-37.711-18.032C518.252,272.61,525.871,260.237,534.514,264.37L534.514,264.37z"/>
			</g>
			<g>
				<polygon fill="#FFFFFF" points="577.255,289.417 598.397,294.765 614.533,248.809 593.389,243.464 				"/>
				<polygon fill="#E7E7E9" points="556.563,284.185 577.7,289.532 593.835,243.57 572.695,238.228 				"/>
				<polygon fill="#BEBCC0" points="596.523,292.74 597.266,292.927 612.119,250.611 611.383,250.421 				"/>
				<polygon fill="#BEBCC0" points="574.639,241.131 574.341,241.976 611.68,251.416 611.976,250.575 				"/>
				<polygon fill="#BEBCC0" points="572.919,246.073 572.622,246.917 609.956,256.359 610.256,255.522 				"/>
				<polygon fill="#BEBCC0" points="571.133,251.167 570.839,252.008 608.173,261.45 608.471,260.606 				"/>
				<polygon fill="#BEBCC0" points="569.464,255.926 569.165,256.769 606.502,266.212 606.797,265.368 				"/>
				<polygon fill="#BEBCC0" points="567.695,260.96 567.403,261.801 604.731,271.247 605.028,270.405 				"/>
				<polygon fill="#BEBCC0" points="565.959,265.428 565.662,266.272 602.996,275.717 603.292,274.867 				"/>
				<polygon fill="#BEBCC0" points="564.063,270.496 563.767,271.342 601.097,280.781 601.396,279.942 				"/>
				<polygon fill="#BEBCC0" points="562.367,275.321 562.07,276.17 599.409,285.61 599.701,284.768 				"/>
				<polygon fill="#BEBCC0" points="560.885,279.867 560.592,280.715 597.928,290.155 598.226,289.31 				"/>
			</g>
			<path fill="#F7C28D" d="M563.222,290.397c0,4.96,3.524,8.98,7.874,8.98c4.346,0,7.871-4.021,7.871-8.98
				c0-4.955-3.524-8.979-7.871-8.979C566.746,281.419,563.222,285.442,563.222,290.397z"/>
		</g>
		<g>
			<path fill="#EADE86" d="M313.353,214.293h-13.493c-4.435,0-8.027-4.423-8.027-9.884v-35.56h21.521V214.293z"/>
			<path d="M327.042,307.029c0.435-1.383,0.2-3.54-0.531-4.793l-1.409-2.412c-0.726-1.248-2.727-8.905-2.727-8.905l-6.283,1.916
				c0,0-0.212,2.805-0.39,7.202c-0.057,1.466,0.063,3.632,0.784,4.88l0.286,0.492c0.723,1.252,1.55,3.451,1.845,4.885
				L327.042,307.029z"/>
			<g>
				<path fill="#6B8931" d="M308.214,295.894c0,0-0.979-16.366-1.667-32.781c-0.722-16.405-1.18-32.84-1.18-32.84
					c-0.188-6.853,2.164-12.694,5.233-13.052c3.08-0.361,5.712,4.771,5.898,11.437c0,0,0.449,16.076,1.15,32.072
					c0.674,16.018,1.626,31.93,1.626,31.93L308.214,295.894z"/>
			</g>
			<path d="M313.554,346.792c0.003-2.953,2.182-5.339,4.867-5.329l0,0c2.683,0.004,4.853,2.4,4.843,5.353l1.42,37.554
				c-0.009,2.948-2.19,5.329-4.871,5.324l0,0c-2.676-0.004-4.851-2.402-4.847-5.345L313.554,346.792z"/>
			<path d="M327.122,378.955l-1.259-78.472c0.005-2.87-3.061-5.202-6.847-5.207l-3.048-0.005c-3.793-0.007-6.871,2.315-6.881,5.184
				l1.256,78.47L327.122,378.955z"/>
			<rect x="310.36" y="370.92" transform="matrix(-1 -0.0026 0.0026 -1 636.5143 744.8496)" width="16.771" height="2.175"/>
			<path d="M315.807,381.095h13.019c0.26,2.526,2.288,4.494,4.761,4.494l-0.082,9.986h-22.479v-9.438
				C311.026,383.354,313.168,381.095,315.807,381.095z"/>
			<path d="M326.031,395.575v-3.546c0-3.559,2.733-6.44,6.106-6.44h2.738c3.378,0,6.114,2.882,6.114,6.44v3.546H326.031z"/>
			<path d="M311.08,385.594c-0.022,0.184-0.054,0.359-0.054,0.544v9.438h6.124v-3.546
				C317.149,388.488,314.436,385.614,311.08,385.594z"/>
			<path d="M320.164,381.435v-1.158c0-1.649,1.268-2.993,2.831-2.993h2.993c1.567,0,2.838,1.344,2.838,2.993v1.158H320.164z"/>
			<rect x="311.026" y="392.233" width="29.963" height="3.342"/>
			<line stroke="#020304" stroke-width="1.3653" stroke-linecap="round" x1="324.857" y1="382.269" x2="329.088" y2="382.269"/>
			<line stroke="#020304" stroke-width="1.3653" stroke-linecap="round" x1="326.39" y1="384.757" x2="330.622" y2="384.757"/>
			<path fill="#3A2316" d="M289.809,188.063c-5.143-1.483-12.502-7.134-15.209-12.233c-2.478,4.097-1.146,9.85,0.886,13.851
				c2.064,4.061,5.384,5.235,9.452,5.859c2.261,0.343,4.487,0.3,6.733-0.067L289.809,188.063z"/>
			<path fill="#6B8931" d="M312.446,234.046l-2.052-6.396l0.971-10.174l-21.555-10.271l-21.554,10.339l6.201,62.462l33.246,3.631
				l-0.062-27.128l0.773-8.084C312.383,245.099,314.16,239.403,312.446,234.046z"/>
			<g>
				<path fill="#F7C28D" d="M288.262,185.806c-2.96,0.102-5.28,2.708-5.181,5.827l0.578,18.889c0.092,3.12,2.566,5.563,5.528,5.463
					c2.951-0.1,5.273-2.709,5.174-5.828l-0.578-18.89C293.689,188.15,291.211,185.708,288.262,185.806z"/>
			</g>
			<path fill="#F7C28D" d="M301.748,203.434c-13.813,0-24.917-10.768-24.883-21.166l0.049-14.69
				c0.009-3.248,0.802-6.302,2.189-8.969l30.573,0.122c1.219,2.669,1.88,5.728,1.873,8.979c0,0,0.175,13.863-0.059,18.478
				C310.99,195.955,308.113,200.185,301.748,203.434z"/>
			<g>
				<path fill="#F5F5F5" d="M294.12,189.938c0.466,2.846,2.805,5.007,5.629,4.987c2.83-0.017,5.147-2.205,5.584-5.051
					L294.12,189.938z"/>
			</g>
			<path fill="#EADE86" d="M300.236,158.961c4.41,2.438,10.021,9.061,11.477,14.181c3.629-3.239,4.315-7.797,3.257-11.8
				c-1.073-4.055-5.158-6.531-8.764-7.963c-2.002-0.796-4.055-1.245-6.183-1.406L300.236,158.961z"/>
			<path fill="#FFF8A4" d="M271.98,179.497c-1.256-4.054-2.318-8.307-2.279-10.647c0.155-9.402,6.721-17.053,15.355-18.83
				c7.868-1.618,15.246,0.863,22.445,3.932c-0.975,2.003-2.055,3.9-3.072,5.874c-4.156,8.04-11.714,14.149-20.308,17.436
				l-0.007,2.206c-0.004,1.792-1.387,3.239-3.086,3.232h-5.113L271.98,179.497z"/>
			<path fill="#1D183C" d="M295.049,177.324c0,0.934-0.715,1.693-1.603,1.693c-0.892,0-1.614-0.76-1.614-1.693
				c0-0.944,0.723-1.707,1.614-1.707C294.333,175.617,295.049,176.38,295.049,177.324z"/>
			<path fill="#1D183C" d="M307.912,177.324c0,0.934-0.722,1.693-1.618,1.693c-0.894,0-1.607-0.76-1.607-1.693
				c0-0.944,0.713-1.707,1.607-1.707C307.19,175.617,307.912,176.38,307.912,177.324z"/>
			<path fill="#F9AC8D" d="M276.103,175.774c2.757,0,5,2.357,5,5.268v5.265h-5c-2.761,0-4.996-2.354-4.996-5.265
				C271.106,178.132,273.342,175.774,276.103,175.774z"/>
			<path d="M278.129,346.138c0.124-2.934,2.386-5.215,5.068-5.094l0,0c2.682,0.119,4.764,2.595,4.639,5.534
				c-0.509,12.479,0.414,24.955-0.258,37.442c-0.163,2.941-2.467,5.187-5.143,5.019l0,0c-2.674-0.171-4.711-2.677-4.554-5.601
				C278.546,371.017,277.623,358.578,278.129,346.138z"/>
			<path d="M292.984,378.904c1.934-26.133,1.589-52.214,2.446-78.319c0.088-2.862-2.933-5.234-6.745-5.29l-3.065-0.042
				c-3.806-0.051-11.359,5.238-11.359,5.238l1.887,77.754L292.984,378.904z"/>
			<polygon points="276.405,372.006 293.247,373.043 293.343,370.868 276.5,369.849 			"/>
			<path d="M278.946,381.089h13.019c0.26,2.532,2.292,4.496,4.755,4.496l-0.07,9.989h-22.487v-9.441
				C274.163,383.354,276.309,381.089,278.946,381.089z"/>
			<path d="M289.169,395.574v-3.545c0-3.562,2.734-6.444,6.113-6.444h2.736c3.376,0,6.107,2.883,6.107,6.444v3.545H289.169z"/>
			<path d="M274.217,385.594c-0.018,0.182-0.054,0.357-0.054,0.539v9.441h6.127v-3.545
				C280.291,388.487,277.572,385.611,274.217,385.594z"/>
			<path d="M283.303,381.433v-1.158c0-1.647,1.269-2.991,2.838-2.991h2.987c1.565,0,2.834,1.344,2.834,2.991v1.158H283.303z"/>
			<rect x="274.163" y="392.233" width="29.962" height="3.341"/>
			<line stroke="#020304" stroke-width="1.3653" stroke-linecap="round" x1="287.634" y1="382.269" x2="291.863" y2="382.269"/>
			<line stroke="#020304" stroke-width="1.3653" stroke-linecap="round" x1="289.169" y1="384.757" x2="293.402" y2="384.757"/>
			<path d="M307.502,298.342c0,8.142-5.695,14.742-12.716,14.742h-13.917c-7.02,0-12.782,0.914-12.716-14.742
				c0.075-15.665,4.807-23.536,4.807-23.536h34.542V298.342z"/>
			<path fill="#FFF8A4" d="M285.677,214.701h-10.016c-3.29,0-5.959-4.46-5.959-9.971V168.85h15.976V214.701z"/>
			<path d="M268.256,300.598c0,11.19,10.666,17.834,30.11,14.521c16.521-2.815,30.12-3.33,30.12-14.521
				c0-11.183-13.482-20.247-30.117-20.247C281.739,280.351,268.256,289.415,268.256,300.598z"/>
			<g>
				<line fill="#028BC0" x1="271.106" y1="224.204" x2="259.938" y2="272.092"/>
				<g>
					<path fill="#6B8931" d="M264.191,222.299c-3.72,15.963-7.444,31.926-11.167,47.887c-2.101,9,11.736,12.823,13.835,3.814
						c3.72-15.965,7.444-31.924,11.164-47.887C280.122,217.114,266.292,213.293,264.191,222.299L264.191,222.299z"/>
				</g>
			</g>
			<g>
				<line fill="#028BC0" x1="259.883" y1="272.474" x2="293.204" y2="290.078"/>
				<g>
					<path fill="#7B8D5C" d="M256.265,278.667c11.105,5.868,22.211,11.741,33.316,17.61c8.175,4.319,15.422-8.067,7.245-12.389
						c-11.108-5.871-22.214-11.744-33.321-17.612C255.333,261.958,248.082,274.342,256.265,278.667L256.265,278.667z"/>
				</g>
			</g>
			<path fill="#F9AC8D" d="M288.599,291.839c0,4.841,3.117,8.771,6.958,8.771c3.839,0,6.953-3.93,6.953-8.771
				c0-4.846-3.114-8.768-6.953-8.768C291.716,283.071,288.599,286.993,288.599,291.839z"/>
		</g>
		<g>
			<g>
				<line fill="#028BC0" x1="151.354" y1="223.457" x2="175.599" y2="262.988"/>
				<g>
					<path fill="#94A7AE" d="M145.16,227.074c8.083,13.181,16.164,26.355,24.247,39.532c4.827,7.869,17.237,0.669,12.386-7.243
						c-8.083-13.172-16.165-26.354-24.244-39.523C152.719,211.967,140.309,219.169,145.16,227.074L145.16,227.074z"/>
				</g>
			</g>
			<g>
				<path fill="#94A7AE" d="M175.198,268.218c10.139-0.424,20.279-0.852,30.417-1.272c9.214-0.388,9.251-14.737,0-14.349
					c-10.139,0.425-20.279,0.848-30.417,1.273C165.984,254.257,165.944,268.605,175.198,268.218L175.198,268.218z"/>
			</g>
			<path fill="#F7C28D" d="M208.134,260.385c0,4.341,2.521,7.864,5.633,7.864c3.118,0,5.642-3.523,5.642-7.864
				c0-4.346-2.524-7.868-5.642-7.868C210.655,252.517,208.134,256.039,208.134,260.385z"/>
			<path fill="#675E52" d="M169.189,308.297c0.463-1.421,0.213-3.626-0.549-4.905l-1.474-2.475
				c-0.767-1.273-2.857-9.118-2.857-9.118l-6.574,1.966c0,0-0.221,2.87-0.403,7.371c-0.067,1.503,0.061,3.718,0.815,5l0.301,0.499
				c0.753,1.288,1.62,3.54,1.926,5.005L169.189,308.297z"/>
			<path fill="#675E52" d="M159.247,310.101c0.119,1.646,1.504,2.879,3.108,2.766l4.54-0.348c1.598-0.122,2.797-1.551,2.681-3.197
				c-0.12-1.653-1.508-2.889-3.106-2.77l-4.542,0.344C160.332,307.017,159.133,308.453,159.247,310.101z"/>
			<path fill="#675E52" d="M183.133,349.012c0.01-3.019,2.286-5.462,5.091-5.456l0,0c2.808,0.01,5.084,2.46,5.075,5.482
				l1.483,38.457c-0.007,3.018-2.287,5.458-5.095,5.451l0,0c-2.804-0.004-5.08-2.456-5.072-5.472L183.133,349.012z"/>
			<path fill="#675E52" d="M197.331,381.946l-1.318-80.354c0.012-2.941-3.194-5.325-7.166-5.331l-3.187-0.004
				c-3.967-0.005-7.191,2.367-7.198,5.307l1.315,80.356L197.331,381.946z"/>
			<polygon fill="#675E52" points="179.788,375.929 197.342,375.973 197.344,373.744 179.792,373.694 			"/>
			<path d="M185.496,384.142h13.621c0.271,2.585,2.392,4.603,4.975,4.603l-0.078,10.225h-23.52v-9.666
				C180.493,386.451,182.73,384.142,185.496,384.142z"/>
			<path d="M196.187,398.969v-3.629c0-3.643,2.867-6.596,6.396-6.596h2.865c3.53,0,6.393,2.953,6.393,6.596v3.629H196.187z"/>
			<path d="M180.546,388.746c-0.019,0.189-0.053,0.369-0.053,0.557v9.666h6.408v-3.629
				C186.901,391.709,184.057,388.766,180.546,388.746z"/>
			<path fill="#675E52" d="M190.046,384.488v-1.186c0-1.69,1.331-3.063,2.97-3.063h3.129c1.639,0,2.968,1.373,2.968,3.063v1.186
				H190.046z"/>
			<rect x="180.493" y="395.547" width="31.348" height="3.422"/>
			<polyline fill="#94A7AE" points="156.34,227.535 152.794,216.97 128.439,209.25 105.206,217.244 101.916,223.457 
				109.942,291.799 148.606,288.115 150.208,260.225 			"/>
			<g>
				<path fill="#F5F5F5" d="M134.75,189.877c0.483,2.914,2.934,5.127,5.893,5.106c2.958-0.021,5.383-2.256,5.836-5.173
					L134.75,189.877z"/>
			</g>
			<path fill="#675E52" d="M154.26,348.346c0.128-3.003,2.492-5.339,5.295-5.22l0,0c2.807,0.119,4.988,2.661,4.854,5.669
				c-0.53,12.778,0.436,25.555-0.271,38.339c-0.166,3.016-2.576,5.313-5.38,5.143l0,0c-2.798-0.174-4.931-2.736-4.761-5.736
				C154.693,373.819,153.725,361.085,154.26,348.346z"/>
			<path fill="#675E52" d="M169.802,381.897c2.018-26.76,1.659-53.465,2.557-80.2c0.093-2.932-3.072-5.359-7.057-5.413l-3.211-0.046
				c-3.983-0.056-11.882,5.365-11.882,5.365l1.972,79.616L169.802,381.897z"/>
			<polygon fill="#675E52" points="152.45,374.835 170.071,375.899 170.171,373.668 152.552,372.624 			"/>
			<path d="M155.113,384.139h13.622c0.269,2.588,2.396,4.601,4.972,4.601l-0.08,10.228H150.11v-9.666
				C150.11,386.451,152.35,384.139,155.113,384.139z"/>
			<path d="M165.809,398.967v-3.629c0-3.645,2.86-6.599,6.392-6.599h2.859c3.537,0,6.398,2.954,6.398,6.599v3.629H165.809z"/>
			<path d="M150.163,388.746c-0.017,0.188-0.053,0.366-0.053,0.555v9.666h6.408v-3.629
				C156.518,391.709,153.676,388.766,150.163,388.746z"/>
			<path fill="#675E52" d="M159.666,384.484v-1.184c0-1.688,1.331-3.062,2.964-3.062h3.135c1.636,0,2.962,1.373,2.962,3.062v1.184
				H159.666z"/>
			<rect x="150.11" y="395.547" width="31.348" height="3.42"/>
			<path fill="#675E52" d="M148.749,302.94c-0.005,6.386-5.959,11.561-13.308,11.561h-14.559c-7.346,0-13.375,0.715-13.296-11.561
				c0.066-12.28,5.022-18.453,5.022-18.453h36.142V302.94z"/>
			<path fill="#675E52" d="M107.688,301.713c0,11.456,15.505,18.266,43.777,14.867c24.02-2.88,43.788-3.411,43.788-14.867
				c0-11.454-19.604-20.732-43.78-20.732C127.293,280.98,107.688,290.259,107.688,301.713z"/>
			<g>
				<line fill="#028BC0" x1="108.317" y1="223.457" x2="139.602" y2="262.988"/>
				<g>
					<path fill="#B9C9CD" d="M103.24,228.528c10.435,13.176,20.858,26.354,31.286,39.527c5.74,7.257,15.823-2.973,10.145-10.143
						c-10.428-13.175-20.859-26.354-31.285-39.527C107.646,211.133,97.567,221.356,103.24,228.528L103.24,228.528z"/>
				</g>
			</g>
			<g>
				<path fill="#B9C9CD" d="M142.183,271.457c13.069,0.604,26.143,1.206,39.21,1.811c9.252,0.426,9.208-13.92,0-14.349
					c-13.067-0.603-26.141-1.203-39.21-1.81C132.929,256.682,132.97,271.032,142.183,271.457L142.183,271.457z"/>
			</g>
			<path fill="#F7C28D" d="M181.579,267.554c0,4.345,3.253,7.865,7.273,7.865c4.022,0,7.278-3.521,7.278-7.865
				c0-4.337-3.256-7.861-7.278-7.861C184.833,259.692,181.579,263.217,181.579,267.554z"/>
			<g>
				<path fill="#F8A586" d="M139.155,211.849l-9.36-0.453c-2.723,0-5.546,0.135-8.395,0.376c1.228,3.871,4.851,6.682,9.125,6.682
					c4.235,0,7.815-2.751,9.081-6.549C139.458,211.884,139.307,211.86,139.155,211.849z"/>
				<g>
					<g>
						<path fill="#F7C28D" d="M129.791,188.655c-2.951,0-5.347,2.396-5.347,5.35v17.895l8.519,5.345l2.174-5.345v-17.895
							C135.136,191.051,132.741,188.655,129.791,188.655z"/>
					</g>
				</g>
				<path fill="#F7C28D" d="M151.35,166.391v23.23c-0.498,5.585-3.151,10.731-7.117,14.251c-0.594,0.123-9.504,0.001-9.637,0.001
					c-9.851,0-17.839-7.99-17.839-17.844v-19.639H151.35z"/>
				<g>
					<g>
						<g>
							<path fill="#F7C28D" d="M114.926,179.891c-2.75,0-4.983,2.227-4.983,4.973c0,2.751,2.233,4.98,4.983,4.98h8.098l-0.298-9.953
								H114.926z"/>
						</g>
					</g>
				</g>
				<path d="M113.803,163.003v3.003c-0.007,0.039-0.015,0.075-0.017,0.114v13.808h1.981v3.553c0,1.638,1.326,2.967,2.961,2.967
					c1.635,0,2.958-1.329,2.958-2.967v-2.141c0.396-2.229,2.343-3.928,4.69-3.928v-5.863c0.401-2.226,2.338-3.919,4.684-3.922
					v-0.034h20.305c3.263,0,5.947-2.485,6.268-5.673h-8.136l-2.232-8.507h-19.422c-4.633,0-8.737,2.231-11.313,5.674
					L113.803,163.003z"/>
				<g>
					<path fill="#11122D" d="M146.032,181.096c-0.833,0-1.504-0.673-1.504-1.511c0-0.826,0.67-1.504,1.504-1.504
						c0.832,0,1.505,0.678,1.505,1.504C147.537,180.423,146.863,181.096,146.032,181.096z"/>
					<path fill="#11122D" d="M134.063,181.096c-0.833,0-1.508-0.673-1.508-1.511c0-0.826,0.675-1.504,1.508-1.504
						c0.832,0,1.508,0.678,1.508,1.504C135.572,180.423,134.895,181.096,134.063,181.096z"/>
				</g>
				<path fill="#FFFFFF" d="M134.297,191.157c0,3.177,2.575,5.749,5.755,5.749c3.177,0,5.748-2.572,5.748-5.749H134.297z"/>
				<rect x="132.88" y="164.188" width="16.173" height="3.438"/>
				<path d="M113.726,161.281c0-7.16,5.802-12.968,12.956-12.968h11.985c7.154,0,12.957,5.808,12.957,12.968v6.346h-2.998v-2.383
					c0-3.729-3.021-6.751-6.755-6.751h-1.812c-3.73,0-6.754,3.022-6.754,6.751v2.383h-19.58V161.281z"/>
				<line fill="none" stroke="#020304" stroke-width="1.3653" x1="114.443" y1="164.357" x2="131.958" y2="164.357"/>
				<path d="M148.362,164.002c3.606-2.082,4.986-6.537,3.307-10.259l-8.979,5.183L148.362,164.002z"/>
			</g>
			<polygon fill="#FFFFFF" points="129.844,233.31 129.844,233.31 119.803,212.076 123.958,210 135.136,210 138.849,212.076 			"/>
			<polygon points="129.782,212.187 129.782,212.187 125.511,218.964 129.912,222.75 134.309,218.964 			"/>
			<polygon points="133.183,225.333 129.844,233.31 126.02,225.115 129.912,219.364 			"/>
			<polygon fill="#B9C9CD" points="129.844,233.31 129.844,233.31 114.995,217.469 119.803,211.78 			"/>
			<polygon fill="#B9C9CD" points="129.844,233.31 129.844,233.31 144.899,217.469 139.155,211.849 			"/>
		</g>
		<g>
			<rect x="183.919" y="296.57" fill="#004352" width="12.439" height="103.461"/>
			<rect x="692.949" y="296.57" fill="#004352" width="12.437" height="103.461"/>
			<rect x="183.825" y="274.03" fill="#004352" width="521.561" height="30.509"/>
			<rect x="183.825" y="276.445" fill="#08171D" width="521.561" height="1.086"/>
			<g>
				<path fill="#004352" d="M178.104,275.334H707.64c1.867,0,3.393-0.243,3.393-0.532v-8.448c0-0.3-1.525-0.539-3.393-0.539H178.104
					c-1.869,0-3.4,0.239-3.4,0.539v8.448C174.703,275.091,176.234,275.334,178.104,275.334z"/>
				<path fill="#004352" d="M174.613,274.802v-8.448c0-0.302,1.566-0.55,3.49-0.55H707.64c1.931,0,3.487,0.248,3.487,0.55v8.448
					c0,0.303-1.557,0.543-3.487,0.543H178.104C176.179,275.345,174.613,275.104,174.613,274.802z M178.104,265.828
					c-1.828,0-3.319,0.238-3.319,0.525v8.448c0,0.283,1.492,0.522,3.319,0.522H707.64c1.822,0,3.306-0.239,3.306-0.522v-8.448
					c0-0.287-1.483-0.525-3.306-0.525H178.104z"/>
			</g>
			<polygon fill="#004352" points="202.904,279.003 196.167,279.003 196.167,286.643 196.167,302.809 202.904,302.809 
				444.557,302.809 444.557,286.643 444.557,279.003 			"/>
			<g>
				<g>
					<polygon fill="none" stroke="#242121" stroke-width="0.6986" stroke-miterlimit="10" points="207.403,281.286 204.347,281.286 
						204.347,287.37 204.347,300.239 207.403,300.239 316.973,300.239 316.973,287.37 316.973,281.286 					"/>
					<g>
						<g>
							<rect x="252.335" y="288.614" fill="#E0E0E0" width="15.688" height="1.975"/>
							<rect x="252.335" y="287.636" fill="#F4F7F6" width="15.688" height="1.966"/>
						</g>
						<path fill="#706B64" d="M267.946,287.364v3.49c1.106-0.022,1.999-0.791,1.999-1.744
							C269.945,288.158,269.052,287.383,267.946,287.364z"/>
						<path fill="#706B64" d="M253.229,287.364v3.49c-1.106-0.022-1.999-0.791-1.999-1.744
							C251.229,288.158,252.122,287.383,253.229,287.364z"/>
						<path fill="#706B64" d="M270.879,289.11c0,0.138-0.131,0.247-0.289,0.247h-1.009c-0.15,0-0.289-0.109-0.289-0.247l0,0
							c0-0.135,0.139-0.242,0.289-0.242h1.009C270.748,288.868,270.879,288.976,270.879,289.11L270.879,289.11z"/>
						<path fill="#706B64" d="M252.019,289.11c0,0.138-0.117,0.247-0.282,0.247h-1.01c-0.164,0-0.287-0.109-0.287-0.247l0,0
							c0-0.135,0.123-0.242,0.287-0.242h1.01C251.902,288.868,252.019,288.976,252.019,289.11L252.019,289.11z"/>
					</g>
				</g>
				<g>
					<polygon fill="none" stroke="#242121" stroke-width="0.6986" stroke-miterlimit="10" points="326.807,281.286 323.751,281.286 
						323.751,287.37 323.751,300.239 326.807,300.239 436.377,300.239 436.377,287.37 436.377,281.286 					"/>
					<g>
						<g>
							<rect x="371.74" y="288.614" fill="#E0E0E0" width="15.687" height="1.975"/>
							<rect x="371.74" y="287.636" fill="#F4F7F6" width="15.687" height="1.966"/>
						</g>
						<path fill="#706B64" d="M387.351,287.364v3.49c1.113-0.022,1.998-0.791,1.998-1.744
							C389.349,288.158,388.464,287.383,387.351,287.364z"/>
						<path fill="#706B64" d="M372.632,287.364v3.49c-1.113-0.022-1.999-0.791-1.999-1.744
							C370.633,288.158,371.519,287.383,372.632,287.364z"/>
						<path fill="#706B64" d="M390.284,289.11c0,0.138-0.13,0.247-0.289,0.247h-1.009c-0.153,0-0.289-0.109-0.289-0.247l0,0
							c0-0.135,0.136-0.242,0.289-0.242h1.009C390.154,288.868,390.284,288.976,390.284,289.11L390.284,289.11z"/>
						<path fill="#706B64" d="M371.424,289.11c0,0.138-0.117,0.247-0.281,0.247h-1.011c-0.171,0-0.287-0.109-0.287-0.247l0,0
							c0-0.135,0.116-0.242,0.287-0.242h1.011C371.307,288.868,371.424,288.976,371.424,289.11L371.424,289.11z"/>
					</g>
				</g>
			</g>
			<polygon fill="#004352" points="451.302,279.003 444.557,279.003 444.557,286.643 444.557,302.809 451.302,302.809 
				692.949,302.809 692.949,286.643 692.949,279.003 			"/>
			<g>
				<g>
					<polygon fill="none" stroke="#242121" stroke-width="0.6986" stroke-miterlimit="10" points="455.793,281.286 452.736,281.286 
						452.736,287.37 452.736,300.239 455.793,300.239 565.362,300.239 565.362,287.37 565.362,281.286 					"/>
					<g>
						<g>
							<rect x="500.732" y="288.614" fill="#E0E0E0" width="15.682" height="1.975"/>
							<rect x="500.732" y="287.636" fill="#F4F7F6" width="15.682" height="1.966"/>
						</g>
						<path fill="#706B64" d="M516.339,287.364v3.49c1.104-0.022,1.999-0.791,1.999-1.744
							C518.338,288.158,517.442,287.383,516.339,287.364z"/>
						<path fill="#706B64" d="M501.618,287.364v3.49c-1.114-0.022-1.991-0.791-1.991-1.744
							C499.627,288.158,500.504,287.383,501.618,287.364z"/>
						<path fill="#706B64" d="M519.276,289.11c0,0.138-0.135,0.247-0.287,0.247h-1.019c-0.15,0-0.287-0.109-0.287-0.247l0,0
							c0-0.135,0.136-0.242,0.287-0.242h1.019C519.141,288.868,519.276,288.976,519.276,289.11L519.276,289.11z"/>
						<path fill="#706B64" d="M500.408,289.11c0,0.138-0.113,0.247-0.281,0.247h-1.002c-0.172,0-0.296-0.109-0.296-0.247l0,0
							c0-0.135,0.125-0.242,0.296-0.242h1.002C500.294,288.868,500.408,288.976,500.408,289.11L500.408,289.11z"/>
					</g>
				</g>
				<g>
					<polygon fill="none" stroke="#242121" stroke-width="0.6986" stroke-miterlimit="10" points="575.193,281.286 572.142,281.286 
						572.142,287.37 572.142,300.239 575.193,300.239 684.773,300.239 684.773,287.37 684.773,281.286 					"/>
					<g>
						<g>
							<rect x="620.14" y="288.614" fill="#E0E0E0" width="15.678" height="1.975"/>
							<rect x="620.14" y="287.636" fill="#F4F7F6" width="15.678" height="1.966"/>
						</g>
						<path fill="#706B64" d="M635.736,287.364v3.49c1.118-0.022,2.005-0.791,2.005-1.744
							C637.741,288.158,636.854,287.383,635.736,287.364z"/>
						<path fill="#706B64" d="M621.033,287.364v3.49c-1.113-0.022-2.008-0.791-2.008-1.744
							C619.025,288.158,619.92,287.383,621.033,287.364z"/>
						<path fill="#706B64" d="M638.683,289.11c0,0.138-0.131,0.247-0.297,0.247h-1.009c-0.157,0-0.288-0.109-0.288-0.247l0,0
							c0-0.135,0.131-0.242,0.288-0.242h1.009C638.552,288.868,638.683,288.976,638.683,289.11L638.683,289.11z"/>
						<path fill="#706B64" d="M619.82,289.11c0,0.138-0.131,0.247-0.285,0.247h-1.01c-0.166,0-0.298-0.109-0.298-0.247l0,0
							c0-0.135,0.132-0.242,0.298-0.242h1.01C619.689,288.868,619.82,288.976,619.82,289.11L619.82,289.11z"/>
					</g>
				</g>
			</g>
		</g>
		<polygon fill="#FFFFFF" stroke="#231F20" stroke-width="0.0886" stroke-miterlimit="10" points="311.48,262.859 283.211,263.682 
			304.358,268.981 332.629,268.162 		"/>
		<polygon fill="#FFFFFF" stroke="#231F20" stroke-width="0.0886" stroke-miterlimit="10" points="556.575,263.953 528.307,264.774 
			549.453,270.074 577.724,269.255 		"/>
		<polygon fill="#FFFFFF" stroke="#231F20" stroke-width="0.0886" stroke-miterlimit="10" points="291.507,263.403 263.232,264.227 
			284.38,269.527 312.653,268.703 		"/>
		<g>
			<path fill="#141818" d="M262.165,264.787c0,1.267-1.034,2.296-2.303,2.296h-36.699c-1.273,0-2.302-1.029-2.302-2.296l0,0
				c0-1.264,1.029-2.288,2.302-2.288h36.699C261.131,262.499,262.165,263.523,262.165,264.787L262.165,264.787z"/>
			<polygon fill="#141818" points="261.011,266.944 256.475,265.83 264.188,234.688 266.815,235.327 			"/>
		</g>
		<g>
			<g>
				<g>
					<path fill="#FFFFFF" d="M258.187,80.998c0,24.161-19.59,43.751-43.765,43.751c-24.164,0-43.756-19.59-43.756-43.751
						s19.592-43.756,43.756-43.756C238.597,37.242,258.187,56.837,258.187,80.998z"/>
					<path fill="#FFFFFF" d="M214.422,124.771c-5.909,0-11.648-1.161-17.029-3.441c-5.218-2.2-9.897-5.357-13.917-9.373
						c-4.025-4.022-7.188-8.704-9.386-13.919c-2.291-5.397-3.435-11.127-3.435-17.04c0-5.9,1.144-11.643,3.435-17.041
						c2.198-5.204,5.361-9.887,9.386-13.907c4.02-4.023,8.699-7.185,13.917-9.389c5.381-2.28,11.12-3.439,17.029-3.439
						c5.913,0,11.637,1.159,17.037,3.439c5.212,2.204,9.897,5.365,13.918,9.389c4.022,4.021,7.182,8.703,9.384,13.907
						c2.271,5.398,3.43,11.141,3.43,17.041c0,5.913-1.158,11.643-3.43,17.04c-2.203,5.215-5.362,9.896-9.384,13.919
						c-4.021,4.016-8.706,7.173-13.918,9.373C226.059,123.61,220.335,124.771,214.422,124.771z M214.422,37.266
						c-24.11,0-43.734,19.611-43.734,43.732c0,24.118,19.624,43.732,43.734,43.732c24.116,0,43.74-19.614,43.74-43.732
						C258.162,56.877,238.539,37.266,214.422,37.266z"/>
				</g>
				<g>
					<path fill="#E7E7E9" d="M251.427,80.998c0,20.429-16.565,36.992-37.005,36.992c-20.431,0-36.998-16.563-36.998-36.992
						S193.991,44,214.422,44C234.862,44,251.427,60.569,251.427,80.998z"/>
					<path fill="#F4F5F5" d="M214.422,118.011c-4.997,0-9.849-0.982-14.399-2.911c-4.413-1.859-8.368-4.529-11.768-7.925
						c-3.402-3.4-6.077-7.36-7.937-11.769c-1.936-4.564-2.903-9.409-2.903-14.408c0-4.99,0.967-9.845,2.903-14.409
						c1.86-4.4,4.535-8.359,7.937-11.759c3.399-3.401,7.355-6.074,11.768-7.938c4.55-1.928,9.402-2.908,14.399-2.908
						c4.999,0,9.839,0.98,14.406,2.908c4.407,1.864,8.369,4.537,11.769,7.938c3.399,3.399,6.072,7.358,7.935,11.759
						c1.92,4.564,2.9,9.419,2.9,14.409c0,4.999-0.979,9.844-2.9,14.408c-1.863,4.408-4.535,8.368-7.935,11.769
						c-3.4,3.396-7.361,6.065-11.769,7.925C224.261,117.028,219.421,118.011,214.422,118.011z M214.422,44.021
						c-20.386,0-36.979,16.582-36.979,36.978c0,20.393,16.592,36.978,36.979,36.978c20.391,0,36.983-16.585,36.983-36.978
						C251.405,60.603,234.813,44.021,214.422,44.021z"/>
				</g>
				<g>
					<path fill="#D0D2D3" d="M245.59,80.998c0,17.211-13.962,31.164-31.168,31.164c-17.214,0-31.167-13.953-31.167-31.164
						c0-17.218,13.953-31.165,31.167-31.165C231.628,49.833,245.59,63.78,245.59,80.998z"/>
				</g>
				<g>
					<path fill="#929497" d="M213.964,49.833c-17.159,0.067-31.044,13.991-31.044,31.165c0,17.171,13.886,31.096,31.044,31.164
						V49.833z"/>
				</g>
				<path fill="#231F20" d="M217.229,81.551c0,1.259-1.019,2.277-2.276,2.277c-1.247,0-2.278-1.019-2.278-2.277
					c0-1.26,1.031-2.276,2.278-2.276C216.211,79.274,217.229,80.291,217.229,81.551z"/>
				<path fill="#231F20" d="M215.261,80.685c0.528,0.345,0.682,1.047,0.344,1.572l0,0c-0.334,0.533-1.047,0.688-1.576,0.36
					l-20.365-12.983c-0.529-0.341-0.685-1.035-0.347-1.566l0,0c0.336-0.535,1.037-0.685,1.578-0.353L215.261,80.685z"/>
				<path fill="#231F20" d="M216.094,98.696c0.009,0.438-0.499,0.788-1.131,0.797l0,0c-0.623,0.01-1.134-0.329-1.146-0.774
					l-0.165-16.685c-0.007-0.434,0.507-0.804,1.136-0.804l0,0c0.624-0.007,1.141,0.335,1.141,0.773L216.094,98.696z"/>
				<g>
					<g>
						<path fill="#231F20" d="M214.413,111.147c-0.283,0-0.596,0-0.894-0.004l0.049-1.599c0.413,0.013,0.826,0.013,1.231,0.013h0.02
							l0.017,1.59h-0.017C214.684,111.147,214.55,111.147,214.413,111.147z M228.712,107.558l-0.757-1.404
							c0.362-0.19,0.724-0.4,1.083-0.616l0.818,1.377C229.48,107.136,229.094,107.354,228.712,107.558z M199.714,107.325
							c-0.383-0.208-0.768-0.443-1.142-0.67l0.841-1.351c0.359,0.213,0.713,0.43,1.079,0.629L199.714,107.325z M240.078,96.856
							l-1.355-0.839c0.208-0.354,0.419-0.71,0.625-1.075l1.392,0.778C240.53,96.106,240.298,96.493,240.078,96.856z M188.523,96.442
							c-0.222-0.378-0.447-0.762-0.647-1.135l1.405-0.762c0.192,0.36,0.389,0.721,0.606,1.077L188.523,96.442z M244.566,81.917
							l-1.595-0.054c0.007-0.285,0.007-0.576,0.007-0.854c0-0.133,0-0.26,0-0.394v-0.051l1.597-0.034v0.066c0,0.139,0,0.271,0,0.412
							C244.576,81.309,244.576,81.61,244.566,81.917z M184.277,81.432v-0.027c0-0.145-0.014-0.277-0.014-0.412
							c0-0.302,0.014-0.586,0.02-0.874l1.593,0.048c-0.007,0.268-0.015,0.547-0.015,0.826c0,0.127,0,0.259,0.007,0.382v0.039
							L184.277,81.432z M239.561,67.426c-0.205-0.364-0.407-0.728-0.613-1.086l1.359-0.818c0.232,0.378,0.441,0.761,0.651,1.15
							L239.561,67.426z M189.483,67.08l-1.394-0.781c0.212-0.379,0.434-0.763,0.665-1.129l1.363,0.831
							C189.895,66.363,189.683,66.715,189.483,67.08z M229.4,56.688c-0.352-0.229-0.71-0.438-1.074-0.636l0.777-1.396
							c0.383,0.211,0.762,0.437,1.134,0.662L229.4,56.688z M199.778,56.475l-0.813-1.377c0.378-0.219,0.76-0.441,1.142-0.646
							l0.758,1.405C200.503,56.06,200.138,56.264,199.778,56.475z M215.243,52.447c-0.395-0.009-0.797-0.009-1.194,0h-0.047
							l-0.029-1.594h0.051c0.422-0.011,0.842-0.011,1.266,0L215.243,52.447z"/>
					</g>
				</g>
				<g>
					<g>
						<g>
							<path fill="#231F20" d="M214.8,109.558c-0.405,0-0.818,0-1.231-0.013l-0.049,1.599c0.298,0.004,0.61,0.004,0.894,0.004
								c0.137,0,0.271,0,0.407,0h0.017l-0.017-1.59H214.8z"/>
							<path fill="#231F20" d="M184.284,80.118c-0.006,0.288-0.02,0.572-0.02,0.874c0,0.135,0.014,0.268,0.014,0.412v0.027
								l1.592-0.019v-0.039c-0.007-0.123-0.007-0.255-0.007-0.382c0-0.279,0.007-0.559,0.015-0.826L184.284,80.118z"/>
							<path fill="#231F20" d="M214.024,50.854h-0.051l0.029,1.594h0.047c0.397-0.009,0.799-0.009,1.194,0l0.047-1.594
								C214.866,50.843,214.446,50.843,214.024,50.854z"/>
							<path fill="#231F20" d="M244.576,80.598v-0.066l-1.597,0.034v0.051c0,0.134,0,0.261,0,0.394c0,0.277,0,0.568-0.007,0.854
								l1.595,0.054c0.009-0.307,0.009-0.608,0.009-0.907C244.576,80.868,244.576,80.736,244.576,80.598z"/>
							<path fill="#231F20" d="M214.789,108.625c-0.394,0-0.797,0-1.19-0.009l-0.931-0.028l-0.099,3.458l0.931,0.032
								c0.309,0.004,0.616,0.004,0.914,0.004c0.145,0,0.28,0,0.416,0l0.949-0.004l-0.038-3.476L214.789,108.625z"/>
							<path fill="#231F20" d="M186.801,81.365c0-0.127,0-0.246,0-0.373c0-0.271,0-0.538,0.013-0.798l0.015-0.938l-3.458-0.105
								l-0.017,0.936c-0.011,0.296-0.017,0.604-0.017,0.905c0,0.147,0.006,0.281,0.006,0.421l0.011,0.954l3.46-0.043L186.801,81.365
								z"/>
							<path fill="#231F20" d="M245.505,80.588l-0.021-0.998l-3.448,0.047l0.01,1c0,0.124,0,0.246,0,0.373
								c0,0.277,0,0.556-0.01,0.824l-0.027,0.938l3.456,0.094l0.029-0.923c0.011-0.31,0.025-0.625,0.025-0.934
								C245.52,80.868,245.505,80.722,245.505,80.588z"/>
							<path fill="#231F20" d="M214.011,49.911l-0.99,0.019l0.055,3.458l0.982-0.02c0.387,0,0.778,0,1.155,0.011l0.932,0.03
								l0.093-3.461l-0.926-0.027C214.883,49.911,214.446,49.911,214.011,49.911z"/>
						</g>
					</g>
				</g>
			</g>
		</g>
		<g>
			<g>
				<g>
					<path fill-rule="evenodd" clip-rule="evenodd" fill="#0035BA" d="M865.31,210.597v5.854h17.689l-0.117-2.02
						c-0.019-0.479,0.107-0.901,0.378-1.269c0.249-0.363,0.584-0.57,1.008-0.613c0.404-0.025,0.76,0.123,1.066,0.443
						c0.291,0.296,0.452,0.694,0.49,1.198l0.146,2.26h22.968v-2.156c0-0.48,0.145-0.891,0.434-1.233
						c0.289-0.342,0.636-0.512,1.039-0.512c0.402,0,0.75,0.17,1.039,0.512c0.289,0.343,0.432,0.753,0.432,1.233v2.156h21.585v-2.467
						c0-0.479,0.143-0.888,0.433-1.231c0.289-0.342,0.634-0.513,1.038-0.513c0.402,0,0.749,0.171,1.038,0.513
						c0.29,0.344,0.433,0.752,0.433,1.231v2.467h23.11v-2.156c0-0.48,0.146-0.891,0.434-1.233c0.289-0.342,0.636-0.512,1.039-0.512
						c0.402,0,0.753,0.17,1.039,0.512c0.289,0.343,0.435,0.753,0.435,1.233v2.156h25.045l-0.145-2.603
						c-0.019-0.477,0.105-0.902,0.376-1.268c0.25-0.364,0.576-0.569,0.981-0.613c0.402-0.025,0.761,0.122,1.068,0.443
						c0.305,0.298,0.479,0.686,0.52,1.163l0.17,2.877h38.094c0.404,0,0.752,0.17,1.041,0.513c0.288,0.343,0.433,0.755,0.433,1.231
						c0,0.479-0.145,0.891-0.433,1.231c-0.289,0.347-0.637,0.515-1.041,0.515h-39.361c-0.041,0-0.079,0-0.117,0H884.7
						c-0.078,0-0.152,0-0.23,0h-19.16v8.765c0,0.479-0.145,0.891-0.433,1.231c-0.288,0.344-0.633,0.515-1.037,0.515
						c-0.405,0-0.752-0.171-1.039-0.515c-0.289-0.341-0.434-0.752-0.434-1.231v-8.765h-7.387c-0.402,0-0.749-0.168-1.039-0.515
						c-0.289-0.341-0.432-0.753-0.432-1.231c0-0.477,0.143-0.889,0.432-1.231c0.29-0.343,0.637-0.513,1.039-0.513h7.387V82.526
						c0-0.478,0.145-0.889,0.434-1.231c0.287-0.345,0.634-0.515,1.039-0.515c0.404,0,0.749,0.17,1.037,0.515
						c0.288,0.343,0.433,0.754,0.433,1.231v3.938h2.339c0.403,0,0.75,0.171,1.038,0.514c0.288,0.342,0.433,0.751,0.433,1.231
						s-0.145,0.89-0.433,1.233c-0.288,0.343-0.635,0.514-1.038,0.514h-2.339v19.034h2.339c0.403,0,0.75,0.173,1.038,0.512
						c0.288,0.344,0.433,0.755,0.433,1.233c0,0.48-0.145,0.89-0.433,1.231s-0.635,0.515-1.038,0.515h-2.339v17.837h2.829
						c0.404,0,0.748,0.171,1.04,0.513c0.288,0.342,0.432,0.756,0.432,1.232c0,0.479-0.144,0.893-0.432,1.231
						c-0.292,0.343-0.636,0.515-1.04,0.515h-2.829v23.209h1.818c0.404,0,0.752,0.172,1.039,0.516
						c0.29,0.341,0.435,0.753,0.435,1.233c0,0.478-0.145,0.886-0.435,1.229c-0.287,0.346-0.635,0.515-1.039,0.515h-1.818v26.531
						h3.349c0.402,0,0.75,0.171,1.039,0.516c0.288,0.341,0.432,0.75,0.432,1.229c0,0.481-0.144,0.891-0.432,1.235
						c-0.289,0.341-0.637,0.51-1.039,0.51h-3.349V208.2V210.597z"/>
				</g>
			</g>
			<g>
				<g>
					<path fill-rule="evenodd" clip-rule="evenodd" fill="#0035BA" d="M1020.96,217.447c0.063-0.231,0.123-0.466,0.189-0.699h-2.528
						v-2.157c0-0.479-0.146-0.89-0.435-1.233c-0.286-0.34-0.637-0.512-1.04-0.512c-0.402,0-0.749,0.172-1.038,0.512
						c-0.289,0.344-0.435,0.754-0.435,1.233v2.157h-1.348c0.103,0.23,0.199,0.465,0.294,0.699H1020.96z"/>
				</g>
			</g>
			<g>
				<g>
					<rect x="983.898" y="152.008" fill-rule="evenodd" clip-rule="evenodd" fill="#CF4E21" width="6.855" height="62.415"/>
				</g>
				<g>
					<rect x="912.887" y="180.729" fill-rule="evenodd" clip-rule="evenodd" fill="#CF4E21" width="6.66" height="33.693"/>
				</g>
				<g>
					<rect x="948.399" y="172.812" fill-rule="evenodd" clip-rule="evenodd" fill="#CF4E21" width="6.646" height="41.611"/>
				</g>
				<g>
					<rect x="920.957" y="179.688" fill-rule="evenodd" clip-rule="evenodd" fill="#7CA88E" width="6.661" height="34.872"/>
				</g>
				<g>
					<rect x="956.469" y="168.803" fill-rule="evenodd" clip-rule="evenodd" fill="#7CA88E" width="6.647" height="45.62"/>
				</g>
				<g>
					<rect x="929.026" y="178.296" fill-rule="evenodd" clip-rule="evenodd" fill="#54ADB2" width="6.661" height="36.265"/>
				</g>
				<g>
					<rect x="964.539" y="164.737" fill-rule="evenodd" clip-rule="evenodd" fill="#54ADB2" width="6.646" height="49.686"/>
				</g>
				<g>
					<rect x="937.097" y="175.912" fill-rule="evenodd" clip-rule="evenodd" fill="#BACCC1" width="6.66" height="38.511"/>
				</g>
				<g>
					<rect x="877.553" y="183.242" fill-rule="evenodd" clip-rule="evenodd" fill="#CF4E21" width="6.66" height="31.181"/>
				</g>
				<g>
					<rect x="885.622" y="184.027" fill-rule="evenodd" clip-rule="evenodd" fill="#7CA88E" width="6.661" height="30.533"/>
				</g>
				<g>
					<rect x="893.693" y="182.848" fill-rule="evenodd" clip-rule="evenodd" fill="#54ADB2" width="6.66" height="31.713"/>
				</g>
				<g>
					<rect x="901.761" y="181.607" fill-rule="evenodd" clip-rule="evenodd" fill="#BACCC1" width="6.662" height="32.815"/>
				</g>
				<g>
					<rect x="866.428" y="192.801" fill-rule="evenodd" clip-rule="evenodd" fill="#BACCC1" width="6.66" height="21.622"/>
				</g>
				<g>
					<rect x="972.609" y="159.65" fill-rule="evenodd" clip-rule="evenodd" fill="#BACCC1" width="6.646" height="54.772"/>
				</g>
				<g>
					<rect x="995.916" y="140.807" fill-rule="evenodd" clip-rule="evenodd" fill="#7CA88E" width="6.647" height="73.616"/>
				</g>
				<g>
					<rect x="1003.985" y="130.385" fill-rule="evenodd" clip-rule="evenodd" fill="#54ADB2" width="6.647" height="84.038"/>
				</g>
				<g>
					<rect x="1012.057" y="118.746" fill-rule="evenodd" clip-rule="evenodd" fill="#BACCC1" width="6.646" height="95.677"/>
				</g>
			</g>
			<g>
				<g>
					<path fill="#8BC53F" d="M881.618,181.134c-4.223,0-8.504-0.114-12.865-0.352l0.49-10.71
						c70.563,3.828,122.123-24.91,145.21-80.901l8.999,4.387C1000.035,150.351,949.932,181.134,881.618,181.134z"/>
				</g>
				<g>
					<g>
						<path fill="#8BC53F" d="M1018.363,92.733c-4.696,2.162-11.953,0.984-16.593-0.893c8.015-2.271,15.796-6.383,21.728-12.891
							c-0.036,9.104,3.354,17.804,7.354,25.695C1026.099,102.055,1020.625,98.126,1018.363,92.733z"/>
					</g>
				</g>
			</g>
		</g>
		<g>
			<path fill="#915F16" d="M1101.646,146.773c1.81-0.147,7.311-0.926,8.493-2.316c1.185-1.398,12.703-3.002,12.552-4.822
				l0.037-41.756l-34.658,1.461l2.509,48.348L1101.646,146.773z"/>
			<g>
				<path fill="#EB7069" d="M1103.234,159.344c1.219-1.202,1.815-2.652,1.787-4.35c-0.023-1.687-0.621-3.144-1.788-4.363
					c-1.204-1.216-2.631-1.811-4.283-1.784l-5.448,1.855c-4.32,1.233-8.136,1.799-11.447,1.683
					c-3.313-0.078-6.789-0.871-10.434-2.374c-1.823-0.773-3.299-1.528-4.435-2.264l-0.865,12.276
					c1.29,0.645,2.905,1.314,4.843,1.997c3.958,1.363,7.63,2.102,11.027,2.217c3.396,0.108,7.193-0.378,11.401-1.444l5.342-1.606
					C1100.629,161.157,1102.062,160.546,1103.234,159.344z"/>
			</g>
			<path fill="#3B2517" d="M1131.72,117.766c1.089-2.522,1.673-5.011,1.758-7.449c0.127-2.936-0.518-5.337-1.935-7.207
				c-1.275,2.745-3.537,5.57-6.786,8.472c-3.173,2.819-6.18,4.754-9.021,5.803l-1.416,7.907c2.693,0.141,5.191-0.04,7.505-0.559
				c2.509-0.569,4.478-1.302,5.902-2.188C1129.504,121.419,1130.835,119.832,1131.72,117.766z"/>
			<path fill="#EB7069" d="M1098.577,160.358l-1.727,6.949c-0.723,2.871-0.519,5.668,0.596,8.384
				c1.054,2.668,2.728,4.765,5.028,6.299l1.563,8.501l2.345,28.376l36.447-6.845l1.348-66.075l-24.694-8.795l-22.918,12.728
				L1098.577,160.358z"/>
			<g>
				<path fill="#F7C28D" d="M1125.467,120.381c-0.097-1.656-0.756-3.025-1.98-4.1c-1.228-1.078-2.652-1.585-4.266-1.534
					c-1.656,0.095-3.022,0.758-4.101,1.984c-1.071,1.227-1.582,2.645-1.531,4.266l0.978,19.877c0.094,1.613,0.753,2.982,1.981,4.098
					c1.188,1.115,2.608,1.626,4.264,1.531c1.62-0.05,2.985-0.69,4.104-1.918c1.115-1.228,1.628-2.672,1.526-4.326L1125.467,120.381z
					"/>
			</g>
			<path fill="#F7C28D" d="M1091.242,88.418c-1.128,2.973-1.557,6.178-1.271,9.603l0.587,7.863
				c0.463,5.646,0.824,9.469,1.067,11.484c0.697,4.972,2.006,8.759,3.926,11.359c1.784,2.452,4.563,4.392,8.333,5.831
				c7.461-0.62,13.773-3.498,18.951-8.629c4.987-4.96,7.228-10.239,6.729-15.836l-1.335-15.414c-0.28-3.391-1.347-6.443-3.192-9.169
				L1091.242,88.418z"/>
			<g>
				<path fill="#F4F5F5" d="M1097.608,123.243c0.362,1.472,1.172,2.664,2.426,3.572c1.209,0.915,2.603,1.324,4.176,1.234
					c1.53-0.124,2.841-0.741,3.925-1.846c1.086-1.104,1.707-2.414,1.865-3.922L1097.608,123.243z"/>
			</g>
			<path fill="#915F16" d="M1094.65,82.477c-5.307,2.553-8.32,5.597-9.042,9.149c-0.42,2.308-0.28,4.487,0.416,6.545
				c0.795,2.245,2.208,4.097,4.231,5.549c0.589-2.723,2.07-5.71,4.438-8.949c2.298-3.153,4.643-5.476,7.031-6.971l-0.357-7.342
				C1099,80.78,1096.759,81.45,1094.65,82.477z"/>
			<path fill="#915F16" d="M1136.324,95.354c-0.484-4.869-2.492-9.005-6.019-12.41c-3.483-3.364-7.684-5.333-12.601-5.898
				c-4.012-0.439-8.22-0.01-12.614,1.286c-3.254,0.916-7.2,2.54-11.835,4.872c0.84,1.356-1.859,3.313-0.106,5.889
				c2.596,3.928,5.024,7.335,9.28,10.23c4.124,2.745,13.677,4.803,18.66,6.177l0.25,2.292c0.081,0.963,0.469,1.766,1.171,2.396
				c0.738,0.587,1.572,0.848,2.5,0.768l5.621-0.466l4.073-3.746C1136.001,101.281,1136.536,97.483,1136.324,95.354z"/>
			<path fill="#1C193D" d="M1109.711,109.568c0.35,0.338,0.769,0.49,1.252,0.453c0.484-0.046,0.893-0.266,1.225-0.655
				c0.295-0.346,0.424-0.784,0.38-1.313c-0.039-0.483-0.233-0.872-0.585-1.168c-0.394-0.333-0.826-0.481-1.313-0.444
				c-0.483,0.044-0.873,0.26-1.165,0.649c-0.33,0.354-0.487,0.771-0.443,1.255C1109.104,108.867,1109.32,109.278,1109.711,109.568z"
				/>
			<path fill="#1C193D" d="M1095.325,110.276c0.348,0.338,0.767,0.489,1.253,0.447c0.479-0.038,0.889-0.257,1.224-0.648
				c0.291-0.351,0.423-0.785,0.376-1.307c-0.038-0.487-0.238-0.877-0.584-1.172c-0.395-0.33-0.831-0.484-1.313-0.442
				c-0.484,0.04-0.874,0.258-1.166,0.649c-0.334,0.353-0.486,0.771-0.443,1.254C1094.718,109.574,1094.93,109.986,1095.325,110.276z
				"/>
			<path fill="#F8AC8C" d="M1126.112,105.141c-0.998,1.18-1.438,2.539-1.304,4.069l0.45,5.502l5.501-0.456
				c1.533-0.127,2.779-0.779,3.736-1.947c1.004-1.138,1.438-2.479,1.312-4.009c-0.119-1.533-0.777-2.801-1.953-3.799
				c-1.138-0.999-2.475-1.44-4.008-1.308C1128.315,103.316,1127.068,103.968,1126.112,105.141z"/>
			<path fill="#FBB224" d="M1105.464,207.809l-1.657,24.973c-0.053,4.288,1.415,7.966,4.407,11.041
				c2.957,3.073,6.577,4.636,10.864,4.692l16.986,0.218c5.701,0.072,9.37-0.402,11-1.438c3.101-1.943,4.681-6.571,4.73-13.892
				c0.049-6.874-1.43-13.105-4.43-18.687l-4.531-6.368L1105.464,207.809z"/>
			<path fill="#915F16" d="M1118.665,96.806l3.769,46.356l11.066-0.916c1.81-0.15,2.051-0.922,3.235-2.319
				c1.184-1.395,1.7-3.003,1.548-4.815l-1.959-39.763L1118.665,96.806z"/>
			<g>
				<path fill="#EB7069" d="M1134.042,147.862c-0.369,1.384-0.344,2.921,0.101,4.604c0.153,0.631,0.38,1.213,0.67,1.762l0.523,0.662
					l0.681,0.55l1.097,0.674c0.91,0.607,1.839,1.352,2.794,2.243c2.361,2.017,5.043,4.993,8.046,8.929
					c2.084,2.613,4.573,6.072,7.475,10.376l3.373,4.922l10.248-6.86l-3.389-4.981c-2.401-3.657-5.052-7.346-7.943-11.061
					c-3.176-4.218-6.365-7.755-9.583-10.611c-1.282-1.126-2.622-2.165-4.019-3.135l-1.748-1.102l-1.267-0.624
					c-0.332-0.106-0.805-0.196-1.419-0.258c-0.955-0.084-1.834,0.019-2.634,0.31
					C1135.462,144.881,1134.463,146.082,1134.042,147.862z"/>
			</g>
			<g>
				<path fill="#F7C28D" d="M1132.985,383.628C1132.673,383.174,1131.888,384.042,1132.985,383.628
					c1.366-0.517,0.353-1.79,0.931-1.688c1.832-3.38,3.932-7.773,4.856-11.597c1.92-7.833-2.784-36.249-3.507-41.317
					c-0.369-2.568-1.527-18.636-2.624-30.704c-0.104-0.536-0.168-1.087-0.168-1.655c0-4.245,3.163-7.676,7.063-7.676
					c3.903,0,7.065,3.431,7.065,7.676c0,0.49-0.047,0.978-0.129,1.442l0.242,0.014c-0.282,3.375,0.039,6.521,0.559,7.68
					c2.139,4.751,4.527,14.288,3.824,24.817l-3.124,32.512c0.032,0.017,0.047,0.041,0.07,0.063c0.436,0.5,0.928,0.521,0.768,1.951
					l1.268,3.058l-3.095,3.989c-1.329,6.254-1.426,14.945-9.324,14.146l-0.087,0.137l-3.816,1.174l-1.836-0.277l-1.259,0.115
					C1130.663,387.486,1131.664,385.945,1132.985,383.628z"/>
				<path fill="#733A21" d="M1127.652,386.038c2.005-1.74,6.086-3.813,6.086-3.813s4.278,5.419,8.141,0.504
					c3.77-4.796,2.022-9.913,5.326-15.297c1.796-2.938,0.816-4.129,0.778-4.535c1.642,0.621,4.718,2.582,3.321,8.339l-0.168,0.292
					l-0.874,15.725h-1.188l-0.405-11.964c-0.647,0.464-1.974,2.104-2.91,7.972c-0.836,5.277-4.904,5.553-4.904,5.553
					s-9.732,0.468-12.992-0.697C1127.862,388.115,1125.642,387.773,1127.652,386.038z"/>
			</g>
			<g>
				<path fill="#F7C28D" d="M1099.618,382.169c0.155-0.14,0.302-0.286,0.385-0.465c0.159-0.327,0.022-0.746,0.193-1.052
					c0.955-1.673,2.289-3.299,3.247-5.07c1.104-2.035,2.123-4.145,2.842-6.367c2.516-7.682,0.003-36.337-0.336-41.434
					c-0.171-2.587-0.103-18.689-0.267-30.788c-0.063-0.538-0.087-1.091-0.046-1.664c0.328-4.221,3.744-7.434,7.644-7.17
					c3.894,0.265,6.784,3.914,6.46,8.14c-0.043,0.487-0.12,0.971-0.236,1.434l0.236,0.026c-0.542,3.341-0.461,6.502-0.025,7.695
					c1.764,4.881,3.419,14.549,1.908,24.997l-6.609,29.138l1.014,3.066c0.021,0.016,0.046,0.037,0.063,0.065
					c0.395,0.529,0.887,0.582,0.61,1.988l1.04,3.134l-3.396,3.773c-1.797,6.145-2.572,14.801-10.38,13.46l-0.1,0.142l-3.897,0.9
					l-1.814-0.404l-1.267,0.032c0.521-0.021,1.243-1.433,1.488-1.823c0.258-0.396,0.469-0.87,0.745-1.256
					C1099.247,382.483,1099.439,382.332,1099.618,382.169z"/>
				<path fill="#733A21" d="M1093.99,384.101c2.138-1.595,6.364-3.393,6.364-3.393s3.855,5.699,8.089,1.06
					c4.126-4.518,2.778-9.74,6.481-14.886c2.024-2.799,1.136-4.063,1.13-4.469c1.591,0.738,4.512,2.899,2.678,8.538l-0.193,0.286
					l-2.074,15.62l-1.187-0.089l0.504-11.946c-0.665,0.416-2.125,1.954-3.507,7.747c-1.242,5.198-5.319,5.189-5.319,5.189
					s-9.751-0.188-12.913-1.576C1094.043,386.183,1091.856,385.687,1093.99,384.101z"/>
			</g>
			<polygon fill="#FBB224" points="1098.272,309.377 1153.253,309.377 1150.799,228.271 1104.367,229.89 			"/>
			<g>
				<path fill="#F7A585" d="M1158.182,215.01c0,0-2.502,5.068-2.113,9.615c0,0-0.41,2.212-1.151,3.367c0,0,2.789,0.482,3.236-2.139
					c0,0-0.419-3.114,2.251-4.184c0,0,2.177-2.148,2.263-4.598c0.086-2.451-0.926-3.609-1.784-4.085
					C1160.883,212.987,1158.898,213.453,1158.182,215.01z"/>
				<g>
					<path fill="#F7A585" d="M1160.977,227.033c-0.24-0.89,0.089-1.742,0.739-1.901l0,0c0.647-0.153,1.368,0.436,1.614,1.329
						l1.891,6.986c0.245,0.894-0.084,1.74-0.733,1.901l0,0c-0.652,0.155-1.365-0.437-1.611-1.324L1160.977,227.033z"/>
					<path fill="#F7A585" d="M1163.548,225.176c-0.269-0.99,0.037-1.922,0.688-2.078l0,0c0.647-0.16,1.391,0.514,1.663,1.508
						l2.111,7.774c0.271,0.991-0.039,1.927-0.688,2.085l0,0c-0.648,0.155-1.392-0.517-1.661-1.509L1163.548,225.176z"/>
					<path fill="#F7A585" d="M1165.913,223.785c-0.206-0.765,0.149-1.514,0.794-1.676l0,0c0.652-0.158,1.344,0.34,1.555,1.109
						l1.641,6.034c0.205,0.771-0.15,1.521-0.798,1.679l0,0c-0.649,0.159-1.346-0.336-1.553-1.105L1165.913,223.785z"/>
					<path fill="#F7A585" d="M1167.743,220.968c-0.172-0.636,0.215-1.274,0.865-1.432l0,0c0.653-0.161,1.313,0.226,1.485,0.858
						l1.353,4.973c0.17,0.634-0.216,1.276-0.868,1.434l0,0c-0.644,0.158-1.307-0.227-1.483-0.859L1167.743,220.968z"/>
				</g>
				<path fill="#F7C28D" d="M1158.182,215.01c0,0,1.287-2.85,2.062-4.808c0.308-0.772,1.365-4.956,1.727-6.538l0.014,0.003
					c-0.554-3.163-2.092-14.341-2.839-21.544c-0.17-0.479-0.291-0.986-0.35-1.512c-0.4-3.475,1.941-6.474,5.23-6.694
					c3.288-0.229,6.284,2.402,6.687,5.878c0.094,0.809,0.032,1.59-0.147,2.318c-0.145,6.504-1.674,18.336-2.263,22.72h0.012
					c-0.032,0.213-0.065,6.724-0.065,6.724s0,0,0.37,1.993c0.365,1.994,1.727,5.932,1.428,7.585
					c-0.301,1.656-8.345,7.645-8.345,7.645C1159.441,224.98,1158.182,215.01,1158.182,215.01z"/>
			</g>
			<g>
				<path fill="#F7C28D" d="M1035.561,133.398c0,0-3.781-4.387-8.149-5.795c0,0-1.904-1.256-2.7-2.424c0,0-1.481,2.497,0.787,3.95
					c0,0,3.049,0.814,3.053,3.806c0,0,1.189,2.934,3.433,3.974c2.247,1.04,3.699,0.522,4.457-0.122
					C1036.44,136.787,1036.739,134.7,1035.561,133.398z"/>
				<g>
					<path fill="#F7C28D" d="M1023.358,131.387c0.915,0.118,1.585,0.764,1.489,1.446l0,0c-0.095,0.688-0.911,1.15-1.832,1.036
						l-7.189-0.911c-0.922-0.112-1.585-0.766-1.495-1.445l0,0c0.096-0.692,0.909-1.148,1.826-1.034L1023.358,131.387z"/>
					<path fill="#F7C28D" d="M1024.131,134.587c1.019,0.128,1.771,0.788,1.677,1.475l0,0c-0.092,0.685-0.995,1.136-2.019,1.01
						l-8.009-1.011c-1.016-0.131-1.771-0.792-1.677-1.479l0,0c0.097-0.683,0.992-1.134,2.014-1.006L1024.131,134.587z"/>
					<path fill="#F7C28D" d="M1024.547,137.404c0.787,0.1,1.353,0.739,1.26,1.421l0,0c-0.092,0.689-0.812,1.158-1.603,1.062
						l-6.214-0.782c-0.794-0.103-1.359-0.74-1.266-1.425l0,0c0.093-0.686,0.81-1.16,1.603-1.063L1024.547,137.404z"/>
					<path fill="#F7C28D" d="M1026.486,140.271c0.653,0.08,1.103,0.702,1.012,1.392l0,0c-0.095,0.686-0.697,1.174-1.352,1.092
						l-5.118-0.647c-0.654-0.085-1.105-0.708-1.013-1.393l0,0c0.095-0.684,0.698-1.172,1.35-1.091L1026.486,140.271z"/>
				</g>
				<path fill="#F7C28D" d="M1035.561,133.398c0,0,2.17,2.355,3.705,3.868c0.604,0.596,4.097,3.25,5.438,4.217l-0.009,0.013
					c3.141,0.707,14.096,3.6,21.063,5.699c0.51,0.022,1.026,0.107,1.538,0.255c3.376,0.974,5.292,4.398,4.282,7.651
					c-1.008,3.253-4.564,5.106-7.939,4.135c-0.787-0.228-1.489-0.589-2.103-1.051c-5.983-2.683-16.411-8.783-20.266-11.064
					l-0.007,0.01c-0.183-0.112-6.221-2.692-6.221-2.692s0,0-1.992-0.428c-1.986-0.429-6.151-0.657-7.575-1.591
					c-1.424-0.938-4.011-11.021-4.011-11.021C1025.833,130.711,1035.561,133.398,1035.561,133.398z"/>
			</g>
			<path fill="#F69771" d="M1097.896,116.591c0,1.021-1.239,1.855-2.759,1.855c-1.526,0-2.757-0.834-2.757-1.855
				c0-1.02,1.23-1.848,2.757-1.848C1096.656,114.743,1097.896,115.571,1097.896,116.591z"/>
			<path fill="#F69771" d="M1115.311,116.591c0,1.021-1.502,1.855-3.351,1.855c-1.853,0-3.361-0.834-3.361-1.855
				c0-1.02,1.509-1.848,3.361-1.848C1113.809,114.743,1115.311,115.571,1115.311,116.591z"/>
		</g>
	</g>
</g>
</svg>
