<?xml version="1.0" encoding="utf-8"?>
<!-- Generator: Adobe Illustrator 15.1.0, SVG Export Plug-In . SVG Version: 6.00 Build 0)  -->
<!DOCTYPE svg PUBLIC "-//W3C//DTD SVG 1.1//EN" "http://www.w3.org/Graphics/SVG/1.1/DTD/svg11.dtd">
<svg version="1.1" id="Layer_1" xmlns="http://www.w3.org/2000/svg" xmlns:xlink="http://www.w3.org/1999/xlink" x="0px" y="0px"
	 width="667.36px" height="559.61px" viewBox="-50.236 56.265 667.36 559.61" enable-background="new -50.236 56.265 667.36 559.61"
	 xml:space="preserve">
<symbol  id="New_Symbol" viewBox="-65.904 -19.219 131.808 38.437">
	<polygon fill="#FFFFFF" points="65.904,-19.219 -65.904,-19.219 -65.904,19.218 65.904,19.218 	"/>
	<g>
		<g>
			<path d="M-52.851,3.49c13.527,0,27.054,0,40.582,0c3.224,0,3.224,5,0,5c-13.527,0-27.054,0-40.582,0
				C-56.075,8.49-56.075,3.49-52.851,3.49L-52.851,3.49z"/>
		</g>
	</g>
	<g>
		<g>
			<path d="M2.083,3.985c6.764,0,13.527,0,20.291,0c3.224,0,3.224,5,0,5c-6.764,0-13.527,0-20.291,0
				C-1.142,8.985-1.142,3.985,2.083,3.985L2.083,3.985z"/>
		</g>
	</g>
	<g>
		<g>
			<path d="M36.23,4.48c5.279,0,10.558,0,15.837,0c3.224,0,3.224,5,0,5c-5.279,0-10.558,0-15.837,0
				C33.006,9.48,33.006,4.48,36.23,4.48L36.23,4.48z"/>
		</g>
	</g>
	<g>
		<g>
			<path d="M-54.336-12.216c23.59,0,47.18,0,70.771,0c2.418,0,2.418,3.75,0,3.75c-23.59,0-47.18,0-70.771,0
				C-56.754-8.466-56.754-12.216-54.336-12.216L-54.336-12.216z"/>
		</g>
	</g>
	<g>
		<g>
			<path d="M28.312-12.216c5.609,0,11.218,0,16.827,0c2.418,0,2.418,3.75,0,3.75c-5.609,0-11.218,0-16.827,0
				C25.894-8.466,25.894-12.216,28.312-12.216L28.312-12.216z"/>
		</g>
	</g>
</symbol>
<rect x="-50.236" y="56.265" fill="#ECEDEB" stroke="#97999C" stroke-width="3" stroke-miterlimit="10" width="667.36" height="559.61"/>
<polygon fill="#D3D6D3" points="615.625,57.722 615.625,313.091 184.869,314.078 184.374,459.578 -48.05,459.578 -48.05,57.722 "/>
<rect x="67.906" y="509.07" fill="#FFFFFF" stroke="#97999C" stroke-width="3" stroke-miterlimit="10" width="11.879" height="35.633"/>
<rect x="506.386" y="417.018" fill="#FFFFFF" stroke="#97999C" stroke-width="3" stroke-miterlimit="10" width="89.082" height="127.684"/>
<rect x="534.101" y="450.67" fill="#FFFFFF" stroke="#97999C" stroke-width="3" stroke-miterlimit="10" width="16.826" height="100.959"/>
<rect x="289.621" y="437.805" fill="#FFFFFF" stroke="#97999C" stroke-width="3" stroke-miterlimit="10" width="216.767" height="89.082"/>
<rect x="217.366" y="417.019" fill="#FFFFFF" stroke="#97999C" stroke-width="3" stroke-miterlimit="10" width="72.254" height="127.684"/>
<rect x="110.468" y="544.701" fill="#FFFFFF" stroke="#97999C" stroke-width="3" stroke-miterlimit="10" width="34.644" height="6.929"/>
<rect x="115.417" y="259.641" fill="#FFFFFF" stroke="#97999C" stroke-width="3" stroke-miterlimit="10" width="23.755" height="291.989"/>
<rect x="110.468" y="238.855" fill="#FFFFFF" stroke="#97999C" stroke-width="3" stroke-miterlimit="10" width="317.724" height="27.715"/>
<rect x="402.457" y="139.875" fill="#FFFFFF" stroke="#97999C" stroke-width="3" stroke-miterlimit="10" width="38.604" height="131.645"/>
<rect x="382.661" y="97.314" fill="#FFFFFF" stroke="#97999C" stroke-width="3" stroke-miterlimit="10" width="84.135" height="127.685"/>
<rect x="163.917" y="116.121" fill="#FFFFFF" stroke="#97999C" stroke-width="3" stroke-miterlimit="10" width="218.744" height="89.575"/>
<rect x="94.631" y="94.354" fill="#FFFFFF" stroke="#97999C" stroke-width="3" stroke-miterlimit="10" width="69.286" height="131.645"/>
<rect x="10.499" y="94.355" fill="#FFFFFF" stroke="#97999C" stroke-width="3" stroke-miterlimit="10" width="52.459" height="76.215"/>
<rect x="25.346" y="169.569" fill="#FFFFFF" stroke="#97999C" stroke-width="3" stroke-miterlimit="10" width="22.765" height="281.103"/>
<rect x="517.273" y="211.47" fill="#FFFFFF" stroke="#97999C" stroke-width="3" stroke-miterlimit="10" width="31.674" height="27.385"/>
<rect x="548.947" y="214.7" fill="#FFFFFF" stroke="#97999C" stroke-width="3" stroke-miterlimit="10" width="11.877" height="20.923"/>
<rect x="517.273" y="164.95" fill="#FFFFFF" stroke="#97999C" stroke-width="3" stroke-miterlimit="10" width="31.674" height="23.425"/>
<rect x="548.529" y="166.645" fill="#FFFFFF" stroke="#97999C" stroke-width="3" stroke-miterlimit="10" width="11.879" height="20.036"/>
<rect x="549.654" y="111.419" fill="#FFFFFF" stroke="#97999C" stroke-width="3" stroke-miterlimit="10" width="11.878" height="22.271"/>
<rect x="173.815" y="482.346" fill="#FFFFFF" stroke="#97999C" stroke-width="3" stroke-miterlimit="10" width="18.807" height="18.806"/>
<rect x="64.443" y="482.346" fill="#FFFFFF" stroke="#97999C" stroke-width="3" stroke-miterlimit="10" width="18.807" height="18.806"/>
<rect x="277.084" y="273.167" fill="#FFFFFF" stroke="#97999C" stroke-width="3" stroke-miterlimit="10" width="18.807" height="18.808"/>
<rect x="376.062" y="273.167" fill="#FFFFFF" stroke="#97999C" stroke-width="3" stroke-miterlimit="10" width="18.807" height="18.808"/>
<rect x="173.815" y="273.167" fill="#FFFFFF" stroke="#97999C" stroke-width="3" stroke-miterlimit="10" width="18.807" height="18.808"/>
<rect x="67.906" y="273.167" fill="#FFFFFF" stroke="#97999C" stroke-width="3" stroke-miterlimit="10" width="18.807" height="18.808"/>
<rect x="67.672" y="49.137" transform="matrix(0.2188 -0.9758 0.9758 0.2188 -60.7059 172.4113)" fill="#FFFFFF" stroke="#97999C" stroke-width="3" stroke-miterlimit="10" width="19.304" height="149.963"/>
<rect x="73.846" y="509.069" fill="#FFFFFF" stroke="#97999C" stroke-width="3" stroke-miterlimit="10" width="460.255" height="26.726"/>
<use xlink:href="#New_Symbol"  width="131.808" height="38.437" x="-65.904" y="-19.219" transform="matrix(1 0 0 -1 17.2664 595.6575)" overflow="visible"/>
<rect x="517.273" y="109.191" fill="#FFFFFF" stroke="#97999C" stroke-width="3" stroke-miterlimit="10" width="31.673" height="26.726"/>
<rect x="-48.236" y="57.265" fill="#FFFFFF" width="556.606" height="28.26"/>
<g enable-background="new    ">
	<path fill="#D31826" d="M-25.114,78.596c-1.432,0.593-2.932,0.889-4.498,0.889c-2.525,0-4.465-0.754-5.817-2.263
		c-1.354-1.509-2.03-3.739-2.03-6.692c0-1.431,0.188-2.726,0.562-3.883s0.906-2.14,1.6-2.945c0.692-0.808,1.531-1.43,2.516-1.866
		c0.985-0.438,2.088-0.656,3.31-0.656c0.829,0,1.6,0.07,2.311,0.212c0.711,0.143,1.396,0.357,2.052,0.649v2.393
		c-0.647-0.354-1.317-0.627-2.011-0.813c-0.692-0.188-1.448-0.28-2.27-0.28c-0.839,0-1.598,0.157-2.276,0.472
		s-1.256,0.771-1.729,1.367c-0.475,0.597-0.839,1.326-1.095,2.188c-0.255,0.86-0.383,1.844-0.383,2.945
		c0,2.315,0.47,4.062,1.408,5.236c0.938,1.176,2.315,1.764,4.129,1.764c0.767,0,1.499-0.089,2.201-0.267s1.376-0.426,2.023-0.745
		v2.295H-25.114z"/>
	<path fill="#D31826" d="M-8.762,79.266h-3.158l-3.705-5.236l-3.664,5.236h-3.076l5.318-6.891l-5.072-6.836h3.05l3.608,5.276
		l3.541-5.276h2.939l-5.154,6.891L-8.762,79.266z"/>
	<path fill="#D31826" d="M5.853,71.678c0,0.337-0.005,0.62-0.015,0.848c-0.009,0.229-0.022,0.442-0.041,0.644H-3.84
		c0,1.402,0.393,2.48,1.176,3.232c0.784,0.752,1.914,1.128,3.392,1.128c0.4,0,0.802-0.016,1.203-0.048
		c0.4-0.031,0.787-0.075,1.161-0.13s0.731-0.116,1.073-0.185c0.342-0.069,0.658-0.145,0.95-0.227v1.955
		c-0.647,0.184-1.379,0.33-2.194,0.444s-1.661,0.171-2.536,0.171c-1.176,0-2.188-0.159-3.034-0.479
		c-0.848-0.319-1.543-0.78-2.085-1.388c-0.542-0.605-0.943-1.349-1.203-2.229s-0.391-1.875-0.391-2.987
		c0-0.966,0.14-1.88,0.417-2.741c0.278-0.86,0.685-1.618,1.218-2.27c0.532-0.652,1.187-1.169,1.962-1.553
		c0.773-0.383,1.653-0.573,2.639-0.573c0.957,0,1.805,0.149,2.543,0.451c0.738,0.301,1.36,0.727,1.866,1.277s0.889,1.223,1.147,2.01
		C5.723,69.818,5.853,70.702,5.853,71.678z M3.379,71.336c0.027-0.61-0.031-1.169-0.178-1.675c-0.146-0.507-0.372-0.941-0.677-1.307
		c-0.307-0.364-0.687-0.648-1.143-0.854s-0.983-0.309-1.586-0.309c-0.52,0-0.993,0.102-1.422,0.302
		c-0.429,0.199-0.798,0.482-1.106,0.848c-0.311,0.364-0.562,0.802-0.752,1.313c-0.191,0.512-0.311,1.071-0.355,1.683L3.379,71.336
		L3.379,71.336z"/>
	<path fill="#D31826" d="M22.191,79.266H19.84l-0.354-8.572l-0.15-3.049l-0.807,2.133l-2.57,6.234H14.22l-2.476-5.988l-0.861-2.379
		l-0.108,3.228l-0.369,8.395h-2.27L9.011,65.54h3.157l2.353,5.92l0.643,1.764l0.644-1.764l2.405-5.92h3.117L22.191,79.266z"/>
	<path fill="#D31826" d="M33.867,79.266l-0.055-1.846c-0.748,0.738-1.506,1.271-2.276,1.6c-0.771,0.328-1.579,0.492-2.427,0.492
		c-0.784,0-1.454-0.101-2.01-0.301c-0.557-0.2-1.015-0.478-1.374-0.827c-0.36-0.352-0.625-0.764-0.793-1.237
		c-0.169-0.474-0.253-0.989-0.253-1.545c0-1.376,0.513-2.454,1.537-3.232c1.025-0.779,2.541-1.169,4.547-1.169h2.844v-1.203
		c0-0.813-0.26-1.461-0.779-1.948c-0.519-0.487-1.313-0.731-2.379-0.731c-0.775,0-1.538,0.087-2.29,0.261
		c-0.752,0.173-1.529,0.419-2.331,0.737V66.17c0.301-0.109,0.636-0.217,1.005-0.321c0.369-0.104,0.759-0.198,1.169-0.28
		s0.838-0.147,1.285-0.197c0.446-0.051,0.897-0.075,1.354-0.075c0.829,0,1.576,0.091,2.241,0.272
		c0.665,0.184,1.229,0.46,1.688,0.834s0.813,0.844,1.06,1.408C35.878,68.376,36,69.039,36,69.805v9.461H33.867z M33.607,73.018
		h-3.021c-0.593,0-1.103,0.061-1.53,0.178c-0.43,0.118-0.779,0.287-1.054,0.507c-0.273,0.219-0.477,0.479-0.607,0.785
		c-0.132,0.307-0.198,0.649-0.198,1.032c0,0.266,0.041,0.519,0.123,0.759c0.082,0.241,0.214,0.456,0.396,0.644
		c0.183,0.187,0.419,0.335,0.711,0.443c0.292,0.109,0.647,0.164,1.066,0.164c0.547,0,1.173-0.166,1.88-0.499
		c0.706-0.333,1.451-0.858,2.235-1.578V73.018z"/>
	<path fill="#D31826" d="M67.76,67.59h-5.21v11.676h-2.405V67.59h-5.209v-2.051H67.76V67.59z"/>
	<path fill="#D31826" d="M82.826,71.678c0,0.337-0.005,0.62-0.014,0.848c-0.009,0.229-0.023,0.442-0.041,0.644h-9.64
		c0,1.402,0.393,2.48,1.177,3.232c0.783,0.752,1.914,1.128,3.391,1.128c0.401,0,0.802-0.016,1.203-0.048
		c0.401-0.031,0.788-0.075,1.162-0.13s0.73-0.116,1.073-0.185c0.342-0.069,0.657-0.145,0.949-0.227v1.955
		c-0.646,0.184-1.379,0.33-2.193,0.444c-0.816,0.114-1.661,0.171-2.536,0.171c-1.176,0-2.188-0.159-3.035-0.479
		c-0.847-0.319-1.543-0.78-2.085-1.388c-0.542-0.605-0.943-1.349-1.203-2.229s-0.39-1.875-0.39-2.987
		c0-0.966,0.139-1.88,0.417-2.741c0.277-0.86,0.684-1.618,1.217-2.27c0.533-0.652,1.187-1.169,1.962-1.553
		c0.774-0.383,1.654-0.573,2.639-0.573c0.957,0,1.806,0.149,2.543,0.451c0.738,0.301,1.36,0.727,1.866,1.277s0.889,1.223,1.148,2.01
		C82.695,69.818,82.826,70.702,82.826,71.678z M80.351,71.336c0.026-0.61-0.032-1.169-0.179-1.675
		c-0.146-0.507-0.372-0.941-0.677-1.307c-0.306-0.364-0.686-0.648-1.142-0.854s-0.984-0.309-1.586-0.309
		c-0.521,0-0.994,0.102-1.422,0.302c-0.43,0.199-0.799,0.482-1.107,0.848c-0.31,0.364-0.561,0.802-0.752,1.313
		c-0.191,0.512-0.31,1.071-0.355,1.683L80.351,71.336L80.351,71.336z"/>
	<path fill="#D31826" d="M98.357,72.156c0,1.223-0.171,2.288-0.513,3.199c-0.343,0.911-0.813,1.668-1.415,2.271
		c-0.603,0.602-1.313,1.053-2.134,1.354c-0.819,0.301-1.709,0.451-2.666,0.451c-0.438,0-0.873-0.022-1.306-0.068
		s-0.873-0.123-1.319-0.231v5.742h-2.379V65.539h2.119l0.15,2.297c0.684-0.938,1.413-1.599,2.188-1.977s1.613-0.566,2.517-0.566
		c0.783,0,1.472,0.164,2.063,0.492c0.592,0.327,1.089,0.791,1.49,1.388s0.702,1.316,0.902,2.16
		C98.257,70.176,98.357,71.117,98.357,72.156z M95.924,72.266c0-0.72-0.053-1.381-0.156-1.981c-0.105-0.603-0.271-1.116-0.499-1.546
		c-0.229-0.429-0.521-0.764-0.875-1.005c-0.355-0.24-0.779-0.361-1.271-0.361c-0.301,0-0.605,0.048-0.916,0.144
		c-0.31,0.096-0.631,0.255-0.964,0.479c-0.333,0.224-0.684,0.52-1.053,0.889s-0.765,0.827-1.184,1.374v6.658
		c0.438,0.183,0.897,0.326,1.382,0.431c0.482,0.104,0.957,0.157,1.422,0.157c1.285,0,2.292-0.437,3.021-1.307
		C95.559,75.326,95.924,74.016,95.924,72.266z"/>
	<path fill="#D31826" d="M113.752,72.156c0,1.223-0.171,2.288-0.513,3.199s-0.813,1.668-1.415,2.271
		c-0.602,0.602-1.313,1.053-2.133,1.354s-1.709,0.451-2.666,0.451c-0.438,0-0.873-0.022-1.306-0.068
		c-0.434-0.046-0.873-0.123-1.319-0.231v5.742h-2.379V65.539h2.119l0.149,2.297c0.685-0.938,1.413-1.599,2.188-1.977
		c0.773-0.378,1.612-0.566,2.516-0.566c0.784,0,1.472,0.164,2.064,0.492c0.592,0.327,1.089,0.791,1.489,1.388
		c0.401,0.597,0.702,1.316,0.902,2.16C113.651,70.176,113.752,71.117,113.752,72.156z M111.318,72.266
		c0-0.72-0.053-1.381-0.157-1.981c-0.104-0.603-0.271-1.116-0.499-1.546c-0.228-0.429-0.52-0.764-0.875-1.005
		c-0.354-0.24-0.779-0.361-1.271-0.361c-0.302,0-0.606,0.048-0.916,0.144c-0.311,0.096-0.631,0.255-0.964,0.479
		c-0.333,0.224-0.685,0.52-1.054,0.889s-0.764,0.827-1.183,1.374v6.658c0.438,0.183,0.896,0.326,1.381,0.431
		c0.483,0.104,0.957,0.157,1.422,0.157c1.285,0,2.292-0.437,3.021-1.307C110.953,75.326,111.318,74.016,111.318,72.266z"/>
	<path fill="#D31826" d="M119.986,65.539v9.666l5.988-9.666h2.27v13.727h-2.379V69.6l-5.988,9.666h-2.27V65.539H119.986z"/>
	<path fill="#D31826" d="M144.732,67.59h-5.209v11.676h-2.406V67.59h-5.209v-2.051h12.824V67.59z"/>
	<path fill="#D31826" d="M160.154,72.293c0,1.065-0.15,2.044-0.451,2.933s-0.733,1.649-1.299,2.283s-1.253,1.126-2.064,1.477
		c-0.812,0.352-1.731,0.526-2.762,0.526c-0.983,0-1.866-0.152-2.646-0.458c-0.78-0.306-1.44-0.754-1.982-1.347
		c-0.542-0.594-0.957-1.326-1.244-2.201s-0.431-1.882-0.431-3.021c0-1.065,0.149-2.039,0.451-2.919
		c0.301-0.88,0.732-1.636,1.299-2.27c0.564-0.634,1.253-1.126,2.063-1.478c0.812-0.351,1.731-0.525,2.763-0.525
		c0.983,0,1.865,0.151,2.646,0.458c0.78,0.306,1.44,0.752,1.982,1.34s0.957,1.319,1.244,2.194S160.154,71.163,160.154,72.293z
		 M157.72,72.403c0-0.848-0.095-1.588-0.28-2.222c-0.188-0.634-0.454-1.162-0.8-1.586c-0.348-0.424-0.769-0.743-1.266-0.957
		s-1.051-0.321-1.661-0.321c-0.711,0-1.318,0.14-1.824,0.417c-0.507,0.278-0.922,0.649-1.244,1.114
		c-0.324,0.465-0.562,1.005-0.711,1.62c-0.15,0.615-0.227,1.26-0.227,1.935c0,0.849,0.093,1.592,0.28,2.229
		c0.187,0.638,0.453,1.169,0.8,1.593c0.346,0.424,0.767,0.743,1.258,0.957c0.492,0.214,1.049,0.321,1.668,0.321
		c0.711,0,1.319-0.14,1.825-0.417c0.506-0.278,0.92-0.649,1.244-1.114c0.323-0.465,0.562-1.005,0.711-1.62
		C157.644,73.737,157.72,73.086,157.72,72.403z"/>
	<path fill="#D31826" d="M175.33,72.156c0,1.223-0.171,2.288-0.513,3.199s-0.813,1.668-1.415,2.271
		c-0.603,0.602-1.313,1.053-2.133,1.354c-0.82,0.301-1.709,0.451-2.666,0.451c-0.438,0-0.873-0.022-1.307-0.068
		c-0.433-0.046-0.873-0.123-1.318-0.231v5.742h-2.379V65.539h2.119l0.149,2.297c0.685-0.938,1.413-1.599,2.188-1.977
		c0.773-0.378,1.612-0.566,2.516-0.566c0.784,0,1.472,0.164,2.064,0.492c0.592,0.327,1.089,0.791,1.489,1.388
		c0.401,0.597,0.702,1.316,0.902,2.16C175.229,70.176,175.33,71.117,175.33,72.156z M172.896,72.266c0-0.72-0.053-1.381-0.157-1.981
		c-0.105-0.603-0.271-1.116-0.499-1.546c-0.228-0.429-0.52-0.764-0.875-1.005c-0.354-0.24-0.779-0.361-1.271-0.361
		c-0.302,0-0.606,0.048-0.916,0.144c-0.311,0.096-0.632,0.255-0.965,0.479c-0.333,0.224-0.684,0.52-1.053,0.889
		s-0.764,0.827-1.183,1.374v6.658c0.438,0.183,0.896,0.326,1.381,0.431c0.482,0.104,0.957,0.157,1.422,0.157
		c1.285,0,2.292-0.437,3.021-1.307C172.531,75.326,172.896,74.016,172.896,72.266z"/>
	<path fill="#D31826" d="M181.564,65.539v9.666l5.988-9.666h2.27v13.727h-2.379V69.6l-5.988,9.666h-2.27V65.539H181.564z"/>
	<path fill="#D31826" d="M196.959,65.539v9.666l5.988-9.666h2.27v13.727h-2.379V69.6l-5.987,9.666h-2.271V65.539H196.959z"/>
	<path fill="#D31826" d="M236.32,73.551c0,0.884-0.191,1.69-0.574,2.42c-0.383,0.73-0.909,1.355-1.579,1.88
		c-0.67,0.525-1.461,0.933-2.372,1.225c-0.912,0.292-1.896,0.438-2.953,0.438c-0.265,0-0.549-0.007-0.854-0.021
		c-0.306-0.015-0.608-0.032-0.909-0.056c-0.301-0.022-0.595-0.048-0.882-0.075c-0.287-0.026-0.545-0.06-0.772-0.096v-2.16
		c0.492,0.118,1.056,0.205,1.688,0.26c0.633,0.056,1.273,0.082,1.921,0.082c0.729,0,1.385-0.087,1.969-0.26
		c0.583-0.173,1.08-0.422,1.49-0.745c0.41-0.322,0.726-0.716,0.943-1.176s0.328-0.978,0.328-1.552c0-1.112-0.399-1.921-1.196-2.427
		c-0.798-0.507-1.944-0.76-3.438-0.76h-3.391v-9.133h9.625v2.078h-7.383v5.019h1.559c0.856,0,1.69,0.076,2.502,0.231
		s1.533,0.426,2.167,0.813c0.633,0.388,1.145,0.906,1.531,1.559C236.126,71.748,236.32,72.567,236.32,73.551z"/>
	<path fill="#D31826" d="M252.015,74.426c0,0.848-0.174,1.591-0.521,2.229c-0.347,0.639-0.83,1.169-1.449,1.594
		c-0.62,0.424-1.364,0.739-2.234,0.949c-0.871,0.211-1.83,0.314-2.878,0.314c-0.475,0-0.946-0.019-1.415-0.055
		c-0.471-0.036-0.921-0.082-1.354-0.138c-0.433-0.055-0.841-0.117-1.224-0.19s-0.729-0.15-1.039-0.232v-2.352
		c0.684,0.255,1.451,0.456,2.304,0.602c0.853,0.146,1.82,0.219,2.905,0.219c0.784,0,1.451-0.062,2.003-0.185
		c0.551-0.123,1.002-0.306,1.354-0.547s0.606-0.535,0.767-0.882c0.159-0.348,0.239-0.743,0.239-1.189
		c0-0.482-0.136-0.896-0.403-1.236c-0.27-0.343-0.622-0.647-1.061-0.916c-0.438-0.27-0.937-0.516-1.496-0.738
		c-0.561-0.224-1.134-0.453-1.717-0.69c-0.583-0.236-1.154-0.494-1.716-0.771c-0.561-0.278-1.06-0.606-1.497-0.984
		c-0.437-0.378-0.791-0.822-1.06-1.333c-0.27-0.511-0.403-1.116-0.403-1.817c0-0.61,0.127-1.213,0.383-1.806
		c0.255-0.593,0.651-1.119,1.189-1.579s1.228-0.832,2.071-1.113c0.843-0.282,1.848-0.425,3.015-0.425
		c0.301,0,0.626,0.015,0.978,0.041c0.352,0.027,0.706,0.066,1.066,0.116s0.715,0.107,1.066,0.171
		c0.351,0.063,0.677,0.132,0.978,0.205v2.188c-0.702-0.2-1.404-0.354-2.104-0.458c-0.702-0.104-1.382-0.157-2.037-0.157
		c-1.396,0-2.42,0.231-3.076,0.697c-0.656,0.465-0.984,1.089-0.984,1.873c0,0.482,0.134,0.896,0.403,1.243
		c0.269,0.348,0.622,0.656,1.06,0.931c0.438,0.273,0.938,0.521,1.497,0.745c0.561,0.224,1.132,0.453,1.716,0.689
		c0.583,0.237,1.155,0.497,1.717,0.779c0.561,0.282,1.06,0.617,1.497,1.005c0.437,0.388,0.791,0.841,1.06,1.36
		C251.881,73.1,252.015,73.715,252.015,74.426z"/>
</g>
<use xlink:href="#New_Symbol"  width="131.808" height="38.437" x="-65.904" y="-19.219" transform="matrix(1 0 0 -1 549.6541 76.2659)" overflow="visible" enable-background="new    "/>
</svg>
