<?xml version="1.0" encoding="utf-8"?>
<!-- Generator: Adobe Illustrator 15.1.0, SVG Export Plug-In . SVG Version: 6.00 Build 0)  -->
<!DOCTYPE svg PUBLIC "-//W3C//DTD SVG 1.1//EN" "http://www.w3.org/Graphics/SVG/1.1/DTD/svg11.dtd">
<svg version="1.1" id="Layer_1" xmlns="http://www.w3.org/2000/svg" xmlns:xlink="http://www.w3.org/1999/xlink" x="0px" y="0px"
	 width="565px" height="670px" viewBox="0 0 565 670" enable-background="new 0 0 565 670" xml:space="preserve">
<symbol  id="New_Symbol" viewBox="-65.904 -19.219 131.808 38.437">
	<polygon fill="#FFFFFF" points="65.904,-19.219 -65.904,-19.219 -65.904,19.218 65.904,19.218 	"/>
	<g>
		<g>
			<path d="M-52.851,3.49c13.527,0,27.054,0,40.582,0c3.224,0,3.224,5,0,5c-13.527,0-27.054,0-40.582,0
				C-56.075,8.49-56.075,3.49-52.851,3.49L-52.851,3.49z"/>
		</g>
	</g>
	<g>
		<g>
			<path d="M2.083,3.985c6.764,0,13.527,0,20.291,0c3.224,0,3.224,5,0,5c-6.764,0-13.527,0-20.291,0
				C-1.142,8.985-1.142,3.985,2.083,3.985L2.083,3.985z"/>
		</g>
	</g>
	<g>
		<g>
			<path d="M36.23,4.48c5.279,0,10.558,0,15.837,0c3.224,0,3.224,5,0,5c-5.279,0-10.558,0-15.837,0
				C33.006,9.48,33.006,4.48,36.23,4.48L36.23,4.48z"/>
		</g>
	</g>
	<g>
		<g>
			<path d="M-54.336-12.216c23.59,0,47.18,0,70.771,0c2.418,0,2.418,3.75,0,3.75c-23.59,0-47.18,0-70.771,0
				C-56.754-8.466-56.754-12.216-54.336-12.216L-54.336-12.216z"/>
		</g>
	</g>
	<g>
		<g>
			<path d="M28.312-12.216c5.609,0,11.218,0,16.827,0c2.418,0,2.418,3.75,0,3.75c-5.609,0-11.218,0-16.827,0
				C25.894-8.466,25.894-12.216,28.312-12.216L28.312-12.216z"/>
		</g>
	</g>
</symbol>
<rect x="3.39" y="2.639" fill="#DCD7DD" stroke="#97999C" stroke-width="3" stroke-miterlimit="10" width="559.61" height="667.361"/>
<polygon fill="#E7F4EC" points="561.542,668.5 306.175,668.5 305.186,237.744 159.686,237.249 159.686,4.825 561.542,4.825 "/>
<rect x="74.563" y="120.782" fill="#FFFFFF" stroke="#97999C" stroke-width="3" stroke-miterlimit="10" width="35.633" height="11.878"/>
<rect x="74.563" y="559.262" fill="#FFFFFF" stroke="#97999C" stroke-width="3" stroke-miterlimit="10" width="127.684" height="89.081"/>
<rect x="67.635" y="586.976" fill="#FFFFFF" stroke="#97999C" stroke-width="3" stroke-miterlimit="10" width="100.959" height="16.826"/>
<rect x="92.379" y="342.496" fill="#FFFFFF" stroke="#97999C" stroke-width="3" stroke-miterlimit="10" width="89.082" height="216.766"/>
<rect x="74.563" y="270.241" fill="#FFFFFF" stroke="#97999C" stroke-width="3" stroke-miterlimit="10" width="127.684" height="72.255"/>
<rect x="67.635" y="163.343" fill="#FFFFFF" stroke="#97999C" stroke-width="3" stroke-miterlimit="10" width="6.928" height="34.643"/>
<rect x="67.635" y="168.292" fill="#FFFFFF" stroke="#97999C" stroke-width="3" stroke-miterlimit="10" width="291.989" height="23.755"/>
<rect x="352.695" y="163.343" fill="#FFFFFF" stroke="#97999C" stroke-width="3" stroke-miterlimit="10" width="27.715" height="317.724"/>
<rect x="347.746" y="455.333" fill="#FFFFFF" stroke="#97999C" stroke-width="3" stroke-miterlimit="10" width="131.644" height="38.602"/>
<rect x="394.267" y="435.537" fill="#FFFFFF" stroke="#97999C" stroke-width="3" stroke-miterlimit="10" width="127.684" height="84.133"/>
<rect x="413.568" y="216.792" fill="#FFFFFF" stroke="#97999C" stroke-width="3" stroke-miterlimit="10" width="89.576" height="218.745"/>
<rect x="394.267" y="147.506" fill="#FFFFFF" stroke="#97999C" stroke-width="3" stroke-miterlimit="10" width="131.644" height="69.286"/>
<rect x="449.695" y="63.374" fill="#FFFFFF" stroke="#97999C" stroke-width="3" stroke-miterlimit="10" width="76.215" height="52.459"/>
<rect x="168.594" y="78.221" fill="#FFFFFF" stroke="#97999C" stroke-width="3" stroke-miterlimit="10" width="281.102" height="22.765"/>
<rect x="380.41" y="570.149" fill="#FFFFFF" stroke="#97999C" stroke-width="3" stroke-miterlimit="10" width="27.385" height="31.673"/>
<rect x="383.642" y="601.822" fill="#FFFFFF" stroke="#97999C" stroke-width="3" stroke-miterlimit="10" width="20.923" height="11.878"/>
<rect x="430.89" y="570.149" fill="#FFFFFF" stroke="#97999C" stroke-width="3" stroke-miterlimit="10" width="23.425" height="31.673"/>
<rect x="432.583" y="601.405" fill="#FFFFFF" stroke="#97999C" stroke-width="3" stroke-miterlimit="10" width="20.037" height="11.878"/>
<rect x="485.575" y="602.53" fill="#FFFFFF" stroke="#97999C" stroke-width="3" stroke-miterlimit="10" width="22.271" height="11.878"/>
<rect x="118.114" y="226.69" fill="#FFFFFF" stroke="#97999C" stroke-width="3" stroke-miterlimit="10" width="18.806" height="18.806"/>
<rect x="118.114" y="117.318" fill="#FFFFFF" stroke="#97999C" stroke-width="3" stroke-miterlimit="10" width="18.806" height="18.806"/>
<rect x="327.291" y="329.959" fill="#FFFFFF" stroke="#97999C" stroke-width="3" stroke-miterlimit="10" width="18.807" height="18.807"/>
<rect x="327.291" y="428.938" fill="#FFFFFF" stroke="#97999C" stroke-width="3" stroke-miterlimit="10" width="18.807" height="18.807"/>
<rect x="327.291" y="226.69" fill="#FFFFFF" stroke="#97999C" stroke-width="3" stroke-miterlimit="10" width="18.807" height="18.806"/>
<rect x="327.291" y="120.782" fill="#FFFFFF" stroke="#97999C" stroke-width="3" stroke-miterlimit="10" width="18.807" height="18.806"/>
<rect x="485.491" y="55.208" transform="matrix(0.9758 0.2188 -0.2188 0.9758 40.4754 -105.17)" fill="#FFFFFF" stroke="#97999C" stroke-width="3" stroke-miterlimit="10" width="19.302" height="149.954"/>
<rect x="83.471" y="126.721" fill="#FFFFFF" stroke="#97999C" stroke-width="3" stroke-miterlimit="10" width="26.725" height="460.255"/>
<use xlink:href="#New_Symbol"  width="131.808" height="38.437" x="-65.904" y="-19.219" transform="matrix(1 0 0 -1 70.8394 54.9121)" overflow="visible"/>
<rect x="429.817" y="629.586" fill="#FFFFFF" width="131.808" height="38.438"/>
<g>
	<g>
		<path d="M441.859,643.555c13.527,0,27.054,0,40.581,0c3.225,0,3.225-5,0-5c-13.527,0-27.054,0-40.581,0
			C438.635,638.555,438.635,643.555,441.859,643.555L441.859,643.555z"/>
	</g>
</g>
<g>
	<g>
		<path d="M496.793,643.06c6.764,0,13.527,0,20.291,0c3.225,0,3.225-5,0-5c-6.764,0-13.527,0-20.291,0
			C493.568,638.06,493.568,643.06,496.793,643.06L496.793,643.06z"/>
	</g>
</g>
<g>
	<g>
		<path d="M530.94,642.564c5.279,0,10.558,0,15.837,0c3.225,0,3.225-5,0-5c-5.279,0-10.558,0-15.837,0
			C527.716,637.564,527.716,642.564,530.94,642.564L530.94,642.564z"/>
	</g>
</g>
<g>
	<g>
		<path d="M440.375,659.261c23.59,0,47.18,0,70.77,0c2.418,0,2.418-3.75,0-3.75c-23.59,0-47.18,0-70.77,0
			C437.957,655.511,437.957,659.261,440.375,659.261L440.375,659.261z"/>
	</g>
</g>
<g>
	<g>
		<path d="M523.022,659.261c5.608,0,11.218,0,16.826,0c2.418,0,2.418-3.75,0-3.75c-5.608,0-11.218,0-16.826,0
			C520.604,655.511,520.604,659.261,523.022,659.261L523.022,659.261z"/>
	</g>
</g>
<rect x="483.349" y="570.149" fill="#FFFFFF" stroke="#97999C" stroke-width="3" stroke-miterlimit="10" width="26.725" height="31.673"/>
<rect x="4.936" y="4.074" fill="#FFFFFF" width="556.606" height="28.259"/>
<text transform="matrix(1 0 0 1 9.4805 25.0742)" fill="#B21F2A" font-family="'Consolas'" font-size="28">Схема территории 5&apos;S </text>
</svg>
