<?xml version="1.0" encoding="utf-8"?>
<!-- Generator: Adobe Illustrator 15.1.0, SVG Export Plug-In . SVG Version: 6.00 Build 0)  -->
<!DOCTYPE svg PUBLIC "-//W3C//DTD SVG 1.1//EN" "http://www.w3.org/Graphics/SVG/1.1/DTD/svg11.dtd">
<svg version="1.1" xmlns="http://www.w3.org/2000/svg" xmlns:xlink="http://www.w3.org/1999/xlink" x="0px" y="0px"
	 width="884.999px" height="343.5px" viewBox="0 0 884.999 343.5" enable-background="new 0 0 884.999 343.5" xml:space="preserve">
<symbol  id="ekran" viewBox="0 -35.5 60.5 35.5">
	<g id="Layer_1_2_">
		<polygon fill-rule="evenodd" clip-rule="evenodd" fill="#FFFFFF" points="60.5,-35.5 0,-35.5 0,0 60.5,0 		"/>
	</g>
</symbol>
<symbol  id="exel" viewBox="-1.05 -77.65 80.6 82.5">
	<g id="back_1_">
		<polygon fill-rule="evenodd" clip-rule="evenodd" fill="#009948" points="78.55,-6.7 78.55,-66.55 25.75,-66.55 25.75,-6.7 		"/>
		
			<polygon fill-rule="evenodd" clip-rule="evenodd" fill="none" stroke="#009948" stroke-width="2" stroke-linecap="round" stroke-linejoin="round" stroke-miterlimit="3" points="
			78.55,-6.7 78.55,-66.55 25.75,-66.55 25.75,-6.7 		"/>
	</g>
	<g id="stolb_1_">
		<path fill-rule="evenodd" clip-rule="evenodd" fill="#FFFFFF" d="M71.9-14.8v-7H61.8v7H71.9z M57.15-21.8H45.5v7h11.65V-21.8z
			 M45.5-46v6.95h11.65V-46H45.5z M57.15-34H45.5v7h11.65V-34z M71.9-39.05V-46H61.8v6.95H71.9z M61.8-27h10.1v-7H61.8V-27z
			 M61.8-51.45h10.1v-6.95H61.8V-51.45z M45.5-51.45h11.65v-6.95H45.5V-51.45z"/>
		
			<path fill-rule="evenodd" clip-rule="evenodd" fill="none" stroke="#FFFFFF" stroke-linecap="round" stroke-linejoin="round" stroke-miterlimit="3" d="
			M71.9-14.8v-7H61.8v7H71.9z M57.15-21.8H45.5v7h11.65V-21.8z M45.5-46v6.95h11.65V-46H45.5z M57.15-34H45.5v7h11.65V-34z
			 M71.9-39.05V-46H61.8v6.95H71.9z M61.8-27h10.1v-7H61.8V-27z M61.8-51.45h10.1v-6.95H61.8V-51.45z M45.5-51.45h11.65v-6.95H45.5
			V-51.45z"/>
	</g>
	<g id="verx_1_">
		<polygon fill-rule="evenodd" clip-rule="evenodd" fill="#009948" points="-0.05,-2.2 46.95,3.85 46.95,-76.65 -0.05,-70.6 		"/>
		
			<polygon fill-rule="evenodd" clip-rule="evenodd" fill="none" stroke="#FFFFFF" stroke-width="2" stroke-linecap="round" stroke-linejoin="round" stroke-miterlimit="3" points="
			-0.05,-2.2 46.95,3.85 46.95,-76.65 -0.05,-70.6 		"/>
	</g>
	<g id="x_1_">
		<path fill-rule="evenodd" clip-rule="evenodd" fill="#FFFFFF" d="M27.3-22.5l6.3,0.6L24.25-36L34.4-50.4l-6.5,0.55l-6.5,9.55
			l-5.5-8.45l-5.05,0.5L18.6-36.1l-8,11.7c-0.067,0.133-0.117,0.25-0.15,0.35l5.05,0.45l5.8-8.25L27.3-22.5z"/>
	</g>
	<g id="text_1_">
	</g>
</symbol>
<symbol  id="foto" viewBox="-0.35 -62 81.45 70">
	<g id="Layer_1_5_">
		
			<use xlink:href="#papka1"  width="81.45" height="70" x="-0.5" y="-59.5" transform="matrix(1 0 0 1 0.1499 -2.5)" overflow="visible"/>
	</g>
	<g id="Layer_2_3_">
	</g>
</symbol>
<symbol  id="image_1_" viewBox="28 -343.489 496.201 343.489">
	<g id="Layer_1_6_">
		
			<use xlink:href="#monitor"  width="774.95" height="536.45" y="-536.45" transform="matrix(0.6403 0 0 0.6403 28 0)" overflow="visible"/>
		
			<use xlink:href="#trash"  width="81.7" height="95.9" x="-7.3" y="-83.3" transform="matrix(0.559 0 0 0.4952 436.2993 -199.7998)" overflow="visible"/>
		<polygon fill="none" points="489.064,-259.225 420.549,-259.225 420.549,-244.689 489.064,-244.689 		"/>
		<text transform="matrix(1 0 0 -1 435.0923 -253.7588)" font-family="'Consolas'" font-size="10.2451">Корзина</text>
		<polygon fill="none" points="135.382,-92.175 51.5,-92.175 51.5,-77.64 135.382,-77.64 		"/>
		<text transform="matrix(1 0 0 -1 56.8276 -86.709)" font-family="'Consolas'" font-size="10.2451">Мой компьютер</text>
		<polygon fill="none" points="125.142,-259.225 61.75,-259.225 61.75,-244.689 125.142,-244.689 		"/>
		<text transform="matrix(1 0 0 -1 73.731 -253.7588)" font-family="'Consolas'" font-size="10.2451">Outlook</text>
		<polygon fill="none" points="410.549,-290.5 339.15,-290.5 339.15,-244.689 410.549,-244.689 		"/>
		<text transform="matrix(1 0 0 -1 343.8691 -253.7583)" display="none"><tspan x="0" y="0" display="inline" font-family="'Consolas'" font-size="10.2451">Корпоратив_</tspan><tspan x="8.449" y="13.255" display="inline" font-family="'Consolas'" font-size="10.2451">Танцы!!!</tspan></text>
		<polygon fill="none" points="491.23,-105.43 410.549,-105.43 410.549,-77.64 491.23,-77.64 		"/>
		<text transform="matrix(1 0 0 -1 431.1753 -86.709)" display="none"><tspan x="0" y="0" display="inline" font-family="'Consolas'" font-size="10.2451">Фото из </tspan><tspan x="0" y="13.254" display="inline" font-family="'Consolas'" font-size="10.2451">отпуска</tspan></text>
		<polygon fill="none" points="131.508,-185.843 51.5,-185.843 51.5,-158.79 131.508,-158.79 		"/>
		<text transform="matrix(1 0 0 -1 57.707 -167.8584)" font-family="'Consolas'" font-size="10.2451">Стандарты 5S</text>
		<polygon fill="none" points="233.724,-117.998 153.3,-117.998 153.3,-77.689 233.724,-77.689 		"/>
		<text transform="matrix(1 0 0 -1 156.8984 -86.7583)"><tspan x="0" y="0" font-family="'Consolas'" font-size="10.2451">Ответственные </tspan><tspan x="22.531" y="13.255" font-family="'Consolas'" font-size="10.2451">за 5S</tspan></text>
		<polygon fill="none" points="331.713,-272.479 244.95,-272.479 244.95,-244.689 331.713,-244.689 		"/>
		<text transform="matrix(1 0 0 -1 265.8008 -253.7588)" display="none"><tspan x="0" y="0" display="inline" font-family="'Consolas'" font-size="10.2451">Черновик </tspan><tspan x="-14.082" y="13.254" display="inline" font-family="'Consolas'" font-size="10.2451">отчета 1999г.</tspan></text>
		<polygon fill="none" points="224.074,-186.58 159.85,-186.58 159.85,-158.79 224.074,-158.79 		"/>
		<text transform="matrix(1 0 0 -1 172.2471 -167.8584)" display="none"><tspan x="0" y="0" display="inline" font-family="'Consolas'" font-size="10.2451">Пасьянс </tspan><tspan x="-5.633" y="13.255" display="inline" font-family="'Consolas'" font-size="10.2451">«Косынка»</tspan></text>
		
			<use xlink:href="#standarti"  width="81.45" height="70" x="-26.5" y="-29.6" transform="matrix(0.6403 0 0 0.6403 86.7998 -136.3999)" overflow="visible"/>
		
			<use xlink:href="#foto"  width="81.45" height="70" x="-0.35" y="-62" transform="matrix(0.6403 0 0 0.6403 426.8501 -35.6001)" display="none" overflow="visible"/>
		
			<use xlink:href="#video"  width="75" height="80" x="-0.5" y="-79.5" transform="matrix(0.6513 0 0 0.6036 346.1499 -192.8999)" display="none" overflow="visible"/>
		
			<use xlink:href="#exel"  width="80.6" height="82.5" x="-1.05" y="-77.65" transform="matrix(0.6403 0 0 0.6403 168.75 -28.75)" overflow="visible"/>
		
			<use xlink:href="#my_comp"  width="75" height="65.45" y="-65.45" transform="matrix(0.6105 0 0 0.6584 71.75 -31.2002)" overflow="visible"/>
		
			<use xlink:href="#outlook"  width="82.95" height="83.272" x="-1" y="-82.15" transform="matrix(0.6087 0 0 0.6087 69.5 -191.6499)" overflow="visible"/>
		
			<use xlink:href="#word"  width="73.1" height="73.7" x="38.8" y="-113.25" transform="matrix(0.6742 0 0 0.6742 238.2002 -164.9502)" display="none" overflow="visible"/>
		
			<use xlink:href="#kosinka"  width="121.702" height="97.719" x="-44.972" y="-87.806" transform="matrix(0.5394 0 0 0.5394 184.7998 -112.1001)" display="none" overflow="visible"/>
	</g>
</symbol>
<symbol  id="kosinka" viewBox="-44.972 -87.806 121.702 97.719">
	<g id="shadow_1_">
		<path fill-rule="evenodd" clip-rule="evenodd" fill="#333333" d="M23.558,7.839c0.566,0.976,1.414,1.621,2.545,1.935
			c1.132,0.279,2.21,0.14,3.235-0.418L51.982-3.562L11.148-73.327l-22.644,12.917c-1.025,0.558-1.697,1.395-2.015,2.51
			c-0.283,1.151-0.124,2.214,0.478,3.19L23.558,7.839z"/>
		<path fill-rule="evenodd" clip-rule="evenodd" fill="#333333" d="M74.626-16.427c0.99-0.592,1.644-1.447,1.962-2.562
			c0.283-1.116,0.141-2.162-0.424-3.138L39.573-84.675c-0.602-0.976-1.467-1.638-2.599-1.987c-1.132-0.279-2.192-0.122-3.182,0.471
			L11.148-73.327L51.982-3.562L74.626-16.427z"/>
	</g>
	<g id="Laag_1_1_">
		<g>
			<path fill-rule="evenodd" clip-rule="evenodd" fill="#F9F9F9" d="M23.65,6.2c0.533,0.933,1.333,1.55,2.4,1.85
				c1.067,0.267,2.083,0.133,3.05-0.4L50.45-4.7l-38.5-66.7L-9.4-59.05c-0.967,0.533-1.6,1.333-1.9,2.4
				c-0.267,1.1-0.117,2.117,0.45,3.05L23.65,6.2z"/>
			<path fill-rule="evenodd" clip-rule="evenodd" fill="#F9F9F9" d="M71.8-17c0.934-0.567,1.55-1.383,1.85-2.45
				c0.267-1.066,0.133-2.066-0.4-3l-34.5-59.8c-0.567-0.933-1.383-1.567-2.45-1.9c-1.066-0.267-2.066-0.117-3,0.45L11.95-71.4
				l38.5,66.7L71.8-17z"/>
			<g>
				<path fill-rule="evenodd" clip-rule="evenodd" fill="#2F3033" d="M28.785-47.098c0.255-3.665,2.154-6.466,5.698-8.404
					l-3.059-2.323l-8.557,4.942l18.387,31.834l4.961-18.53c0.691-2.581,0.375-5.016-0.947-7.306c-1.323-2.29-3.269-3.77-5.837-4.44
					c-2.097-0.562-4.125-0.439-6.087,0.366C31.404-50.165,29.884-48.878,28.785-47.098z"/>
				<path fill-rule="evenodd" clip-rule="evenodd" fill="#434548" d="M19.298-42.845c-1.678,1.296-2.797,2.993-3.359,5.089
					c-0.682,2.548-0.362,4.967,0.961,7.257c1.323,2.29,3.264,3.786,5.824,4.489l18.531,4.961L22.867-52.882l-8.557,4.942
					l0.483,3.811c3.469-2.113,6.845-2.358,10.126-0.736C22.83-44.804,20.956-44.13,19.298-42.845z"/>
			</g>
			<g>
				<path fill-rule="evenodd" clip-rule="evenodd" fill="#434548" d="M27.721-0.758l1.268-0.732l1.086,3.228l0.106,0.243
					L27.721-0.758z M31.504,3.042c0.091-0.233,0.107-0.479,0.048-0.737L28.984-7l-1.318,0.762l0.909,3.33l-1.876,1.084l-2.336-2.405
					l-0.069-0.062L23-3.544l0.124,0.098l6.587,6.78c0.462,0.409,0.921,0.482,1.378,0.219C31.258,3.454,31.397,3.284,31.504,3.042z"
					/>
				<path fill-rule="evenodd" clip-rule="evenodd" fill="#2F3033" d="M21.623-14.009c0.08-0.993,0.606-1.76,1.58-2.299l-0.838-0.632
					l-2.358,1.362l5.053,8.749l1.345-5.106c0.203-0.703,0.119-1.375-0.252-2.018c-0.361-0.625-0.897-1.026-1.607-1.202
					c-0.56-0.15-1.118-0.121-1.674,0.088C22.341-14.853,21.925-14.5,21.623-14.009z"/>
				<path fill-rule="evenodd" clip-rule="evenodd" fill="#434548" d="M25.059-6.83l-5.053-8.749l-2.358,1.362l0.128,1.042
					c0.954-0.574,1.881-0.647,2.781-0.22c-0.576,0.017-1.09,0.201-1.541,0.552c-0.458,0.377-0.762,0.846-0.912,1.406
					c-0.186,0.693-0.098,1.353,0.263,1.979c0.371,0.642,0.903,1.056,1.597,1.242L25.059-6.83z"/>
			</g>
			<g>
				<path fill-rule="evenodd" clip-rule="evenodd" fill="#434548" d="M33.204-78.87l2.307,2.581l-1.25,0.722l-1.093-3.248
					l-0.122-0.27L33.204-78.87z M36.525-75.241l2.376,2.405l0.059,0.102l1.327-0.766l-0.14-0.124l-6.654-6.808
					c-0.196-0.182-0.432-0.295-0.707-0.34c-0.249-0.038-0.467-0.002-0.654,0.105s-0.327,0.279-0.418,0.514
					c-0.108,0.244-0.133,0.497-0.073,0.757l2.624,9.374l1.327-0.767l-0.929-3.376L36.525-75.241z"/>
				<path fill-rule="evenodd" clip-rule="evenodd" fill="#2F3033" d="M43.304-61.326l-5.085-8.803l-1.379,5.152
					c-0.187,0.698-0.099,1.361,0.265,1.991c0.373,0.646,0.909,1.063,1.606,1.25c0.563,0.151,1.134,0.117,1.71-0.103
					c0.533-0.217,0.952-0.572,1.256-1.065c-0.081,0.999-0.611,1.771-1.59,2.313l0.844,0.636L43.304-61.326z"/>
				<path fill-rule="evenodd" clip-rule="evenodd" fill="#434548" d="M45.522-63.729c-0.943,0.567-1.867,0.636-2.773,0.206
					c0.58-0.017,1.097-0.203,1.551-0.555c0.461-0.38,0.767-0.852,0.918-1.415c0.187-0.698,0.093-1.37-0.28-2.016
					c-0.363-0.629-0.894-1.038-1.592-1.225l-5.127-1.394l5.085,8.803l2.347-1.356L45.522-63.729z"/>
			</g>
		</g>
		<g>
			<g>
				<path fill-rule="evenodd" clip-rule="evenodd" fill="#DE4653" d="M-44.564-20.326c-0.48,1.049-0.537,2.116-0.169,3.2
					c0.403,1.083,1.138,1.888,2.205,2.412l23.62,11.329l34.793-72.638l-23.62-11.329c-1.066-0.524-2.145-0.594-3.235-0.209
					c-1.125,0.385-1.928,1.083-2.409,2.098L-44.564-20.326z"/>
				<path fill-rule="evenodd" clip-rule="evenodd" fill="#DE4653" d="M4.678,7.942c1.075,0.49,2.163,0.559,3.263,0.21
					c1.135-0.385,1.944-1.102,2.429-2.15l31.462-65.138c0.485-1.014,0.542-2.063,0.172-3.147c-0.407-1.118-1.148-1.922-2.223-2.412
					L15.958-76.023L-19.145-3.386L4.678,7.942z"/>
				<path fill-rule="evenodd" clip-rule="evenodd" fill="#FFFFFF" d="M-42.25-21c-0.467,1-0.533,2.017-0.2,3.05
					c0.367,1.033,1.05,1.8,2.05,2.3l22.15,10.8L15.5-74.1L-6.65-84.9c-1-0.5-2.017-0.566-3.05-0.2c-1.066,0.367-1.833,1.033-2.3,2
					L-42.25-21z"/>
				<path fill-rule="evenodd" clip-rule="evenodd" fill="#FFFFFF" d="M3.9,5.95c1,0.467,2.017,0.533,3.05,0.2
					C8.017,5.784,8.783,5.1,9.25,4.1L39.5-58c0.467-0.966,0.533-1.966,0.2-3c-0.367-1.066-1.05-1.833-2.05-2.3L15.5-74.1
					L-18.25-4.85L3.9,5.95z"/>
			</g>
			<g>
				<path fill-rule="evenodd" clip-rule="evenodd" fill="#D54A5B" d="M-36.256-17.895l0.736-3.041l1.205,0.587l-1.893,2.477
					l-0.129,0.205L-36.256-17.895z M-35.857-16.448l5.72-6.723l-1.253-0.61l-2.061,2.395l-1.759-0.857l0.604-3.015l0.035-0.072
					l-1.252-0.61l-0.011,0.144l-1.771,8.468c-0.074,0.56,0.105,0.946,0.539,1.157c0.177,0.086,0.377,0.104,0.6,0.054
					C-36.226-16.161-36.023-16.271-35.857-16.448z"/>
				<path fill-rule="evenodd" clip-rule="evenodd" fill="#D54A5B" d="M-35.241-28.789c0.247,0.717,0.716,1.243,1.406,1.58
					c0.675,0.329,1.371,0.37,2.087,0.123l3.405-6.987l-5.196,1.791c-0.717,0.247-1.24,0.708-1.568,1.383
					C-35.443-30.209-35.488-29.505-35.241-28.789z"/>
				<path fill-rule="evenodd" clip-rule="evenodd" fill="#A4343A" d="M-28.254-25.384c0.717-0.247,1.243-0.716,1.58-1.406
					c0.329-0.675,0.369-1.371,0.122-2.087l-1.791-5.196l-3.405,6.987c0.247,0.717,0.716,1.243,1.407,1.58
					C-29.666-25.178-28.971-25.137-28.254-25.384z"/>
			</g>
			<g>
				<path fill-rule="evenodd" clip-rule="evenodd" fill="#D54A5B" d="M28.208-56.233l-1.276-0.622l2.005-2.625l0.15-0.243L29-59.48
					c-0.073,0.365-0.219,0.968-0.439,1.808L28.208-56.233z M27.227-51.561l1.302,0.634l0.023-0.178l1.877-8.974
					c0.079-0.593-0.112-1.002-0.571-1.226c-0.17-0.083-0.374-0.098-0.61-0.044c-0.253,0.045-0.468,0.161-0.644,0.349l-6.1,7.138
					l1.327,0.647l2.197-2.563l1.864,0.908L27.227-51.561z"/>
				<path fill-rule="evenodd" clip-rule="evenodd" fill="#D54A5B" d="M27.95-47.923c-0.262-0.76-0.75-1.313-1.465-1.662
					c-0.731-0.356-1.478-0.404-2.237-0.142l-3.608,7.404l5.506-1.898c0.759-0.262,1.317-0.759,1.674-1.491
					C28.168-46.427,28.211-47.164,27.95-47.923z"/>
				<path fill-rule="evenodd" clip-rule="evenodd" fill="#A4343A" d="M20.545-51.531c-0.759,0.262-1.313,0.75-1.662,1.465
					c-0.356,0.731-0.404,1.478-0.142,2.237l1.898,5.506l3.608-7.404c-0.262-0.759-0.75-1.313-1.465-1.662
					C22.051-51.745,21.305-51.792,20.545-51.531z"/>
			</g>
			<g>
				<path fill-rule="evenodd" clip-rule="evenodd" fill="#D54A5B" d="M-7.761-28.067l12.35-25.348l-18.842,6.519
					c-2.6,0.896-4.502,2.581-5.707,5.053c-1.204,2.472-1.358,5.008-0.462,7.608c0.897,2.6,2.581,4.502,5.053,5.707
					S-10.361-27.171-7.761-28.067z"/>
				<path fill-rule="evenodd" clip-rule="evenodd" fill="#A4343A" d="M4.926-21.886c2.6-0.897,4.502-2.581,5.707-5.053
					c1.204-2.472,1.358-5.008,0.462-7.608L4.589-53.416l-12.35,25.348c0.896,2.6,2.589,4.506,5.079,5.719
					C-0.209-21.144,2.327-20.99,4.926-21.886z"/>
			</g>
		</g>
	</g>
</symbol>
<symbol  id="label" viewBox="-8.85 -55.528 56.8 66.428">
	<g id="base_3_">
		<path fill-rule="evenodd" clip-rule="evenodd" fill="#DE4653" d="M46.95,0.5C42.317-43.567,29.3-61.167,7.9-52.3
			c6.8,1.667,10.15,6.767,10.05,15.3c-8.467-6.9-17.067-7.383-25.8-1.45C3.383-38.517,9.933-22.4,11.8,9.9L46.95,0.5z"/>
		
			<path fill-rule="evenodd" clip-rule="evenodd" fill="none" stroke="#DE4653" stroke-width="2" stroke-linecap="round" stroke-linejoin="round" stroke-miterlimit="3" d="
			M46.95,0.5C42.317-43.567,29.3-61.167,7.9-52.3c6.8,1.667,10.15,6.767,10.05,15.3c-8.467-6.9-17.067-7.383-25.8-1.45
			C3.383-38.517,9.933-22.4,11.8,9.9L46.95,0.5z"/>
	</g>
	<g id="text_4_">
		
			<path fill-rule="evenodd" clip-rule="evenodd" fill="none" stroke="#FFFFFF" stroke-width="5" stroke-linecap="round" stroke-linejoin="round" stroke-miterlimit="3" d="
			M15.35-12.55l21.75-5.9 M12.85-21.8l21.8-6 M16.65-3.2L38.4-9.15"/>
	</g>
</symbol>
<symbol  id="monitor" viewBox="0 -536.45 774.95 536.45">
	<g id="Layer_1_3_">
		<path fill-rule="evenodd" clip-rule="evenodd" fill="#555E9B" d="M774.95-8.2v-438.35c0-2.367-0.917-4.45-2.75-6.25
			c-2.2-1.567-4.667-2.35-7.4-2.35H465.7l5.5-32.85c0-5.6-0.717-10.55-2.15-14.85h104.9l23.05-25.2l1.55-0.95v-6.65
			c0-0.534-1.683-0.8-5.05-0.8H176c-3.367,0-5.05,0.267-5.05,0.8v6.65c0,0.633,0.45,0.95,1.35,0.95l22.25,25.2h106.5
			c-1.566,4.3-2.35,9.25-2.35,14.85l5.45,32.85H9.95c-2.733,0-5,0.783-6.8,2.35C1.05-451,0-448.917,0-446.55V-8.2
			c0,2.067,1.05,4.017,3.15,5.85C4.95-0.783,7.217,0,9.95,0H764.8c2.733,0,5.2-0.783,7.4-2.35
			C774.033-4.183,774.95-6.133,774.95-8.2z"/>
		<polygon fill-rule="evenodd" clip-rule="evenodd" fill="#F0FDFF" points="746.75,-431.95 26,-431.95 26,-23.8 746.75,-23.8 		"/>
	</g>
</symbol>
<symbol  id="my_comp" viewBox="0 -65.45 75 65.45">
	<g id="base_5_">
		<path fill-rule="evenodd" clip-rule="evenodd" fill="#444A98" d="M74.75-0.25C74.917-0.45,75-0.667,75-0.9v-48.6
			c0-0.267-0.083-0.5-0.25-0.7c-0.233-0.167-0.483-0.25-0.75-0.25H47.1l0.7-6.05c0-1-0.083-1.917-0.25-2.75H60.4l2.85-4.6l0.2-0.25
			v-1.15c0-0.133-0.217-0.2-0.65-0.2H11.7c-0.434,0-0.65,0.067-0.65,0.2v1.15c0,0.167,0.067,0.25,0.2,0.25l2.7,4.6H27
			c-0.2,0.833-0.3,1.75-0.3,2.75l0.65,6.05H0.95c-0.267,0-0.483,0.083-0.65,0.25C0.1-50,0-49.767,0-49.5v48.6
			c0,0.233,0.1,0.45,0.3,0.65C0.467-0.083,0.683,0,0.95,0H74C74.267,0,74.517-0.083,74.75-0.25z"/>
	</g>
	<g id="ekran_1_">
		<use xlink:href="#ekran"  width="60.5" height="35.5" y="-35.5" transform="matrix(1 0 0 1 7.2002 -7.4502)" overflow="visible"/>
	</g>
	<g id="blik_1_">
		<path fill-rule="evenodd" clip-rule="evenodd" fill="#AEEFF9" d="M67.65-7.5v-8.3L8.375-42.7H7.15v19.05L42.75-7.5H67.65z
			 M67.65-20.375v-6.875L34.675-42.7h-14.7L67.65-20.375z"/>
	</g>
	<g id="text_5_">
	</g>
</symbol>
<symbol  id="outlook" viewBox="-1 -82.15 82.95 83.272">
	<g id="base_2_">
		<path fill-rule="evenodd" clip-rule="evenodd" fill="#F9DE48" d="M5.75-6.3c3.2,3.2,7.283,5.2,12.25,6
			c2.5,0.433,4.683,0.533,6.55,0.3h56.4v-80.95H0v57.3c0,1.9,0.233,4.066,0.7,6.5C1.633-12.35,3.317-8.733,5.75-6.3z"/>
		
			<path fill-rule="evenodd" clip-rule="evenodd" fill="none" stroke="#F9DE48" stroke-width="2" stroke-linecap="round" stroke-linejoin="round" stroke-miterlimit="3" d="
			M5.75-6.3c3.2,3.2,7.283,5.2,12.25,6c2.5,0.433,4.683,0.533,6.55,0.3h56.4v-80.95H0v57.3c0,1.9,0.233,4.066,0.7,6.5
			C1.633-12.35,3.317-8.733,5.75-6.3z"/>
	</g>
	<g id="konverrt_1_">
		<path fill-rule="evenodd" clip-rule="evenodd" fill="#FFFFFF" d="M78.85-60.45c-0.2,0.067-0.4,0.067-0.6,0l-29.3-6.6
			c-0.1,0-0.2-0.017-0.3-0.05l-9.1-2.1l-4.85,7.7c-0.034,0.033-0.05,0.067-0.05,0.1l-0.05,0.05l-15.35,24.6
			c-0.233,0.333-0.55,0.55-0.95,0.65c-0.4,0.1-0.783,0.033-1.15-0.2c-0.333-0.2-0.55-0.5-0.65-0.9c-0.1-0.4-0.033-0.783,0.2-1.15
			L31.15-61.5l-29.4-12L16.7-36.4c0.1,0.267,0.267,0.45,0.5,0.55c0.267,0.133,0.533,0.133,0.8,0L78.85-60.45z M54-82.15H19.35
			L3.9-75.9l28.85,11.8l4.8-7.6c0.167-0.267,0.4-0.466,0.7-0.6c0.267-0.1,0.567-0.117,0.9-0.05l9.25,2.1L54-82.15z M79.35-60.65
			l0.3-0.1c0.233-0.067,0.417-0.233,0.55-0.5c0.1-0.267,0.1-0.533,0-0.8l-8.1-20.1H57.25c0,0.033-0.017,0.066-0.05,0.1L51.4-69.6
			l27.5,6.2c0.4,0.1,0.717,0.333,0.95,0.7c0.2,0.333,0.267,0.7,0.2,1.1C79.95-61.167,79.717-60.85,79.35-60.65z"/>
		<path fill-rule="evenodd" clip-rule="evenodd" fill="#F29800" d="M1.75-73.5l29.4,12L16.7-38.35c-0.233,0.367-0.3,0.75-0.2,1.15
			c0.1,0.4,0.317,0.7,0.65,0.9c0.367,0.233,0.75,0.3,1.15,0.2c0.4-0.1,0.717-0.316,0.95-0.65l15.35-24.6l0.05-0.05
			c0-0.033,0.017-0.067,0.05-0.1l4.85-7.7l9.1,2.1c0.1,0.033,0.2,0.05,0.3,0.05l29.3,6.6c0.2,0.067,0.4,0.067,0.6,0l0.45-0.15
			l0.05-0.05c0.367-0.2,0.6-0.517,0.7-0.95c0.067-0.4,0-0.767-0.2-1.1c-0.233-0.367-0.55-0.6-0.95-0.7l-27.5-6.2l5.8-12.45
			c0.033-0.034,0.05-0.067,0.05-0.1H54l-5.6,11.9l-9.25-2.1c-0.333-0.066-0.633-0.05-0.9,0.05c-0.3,0.133-0.533,0.333-0.7,0.6
			l-4.8,7.6L3.9-75.9l-1.05-0.4c-0.4-0.167-0.783-0.167-1.15,0c-0.4,0.167-0.684,0.433-0.85,0.8c-0.167,0.4-0.15,0.783,0.05,1.15
			c0.133,0.4,0.4,0.684,0.8,0.85H1.75z"/>
	</g>
	<g id="o_1_">
		
			<path fill-rule="evenodd" clip-rule="evenodd" fill="none" stroke="#F29800" stroke-width="8" stroke-linecap="round" stroke-linejoin="round" stroke-miterlimit="3" d="
			M26.6-45.25c-3.567,0.1-6.617,1.7-9.15,4.8c-2.633,3.167-3.95,7.017-3.95,11.55c0,4.5,1.317,8.35,3.95,11.55
			c2.6,3.167,5.75,4.75,9.45,4.75c3.7,0,6.867-1.583,9.5-4.75c2.6-3.2,3.9-7.05,3.9-11.55c0-4.533-1.3-8.383-3.9-11.55
			c-2.566-3.1-5.617-4.7-9.15-4.8"/>
	</g>
	<g id="text_2_">
	</g>
</symbol>
<symbol  id="papka1" viewBox="-0.5 -59.5 81.45 70">
	<g id="base_1_">
		<path fill-rule="evenodd" clip-rule="evenodd" fill="#FFAB43" d="M32.05,10l5.5-10H74v-59H0V0h0.05v10H32.05z M37.55,0l-5.5-4h-32
			v4v-4h32L37.55,0z"/>
		
			<path fill-rule="evenodd" clip-rule="evenodd" fill="none" stroke="#FFAB43" stroke-linecap="round" stroke-linejoin="round" stroke-miterlimit="3" d="
			M32.05,10l5.5-10H74v-59H0V0h0.05v10H32.05z M37.55,0l-5.5-4h-32v4"/>
	</g>
	<g id="verh_1_">
		<polygon fill-rule="evenodd" clip-rule="evenodd" fill="#FFDB91" points="80.45,-11.3 74.1,-58.95 0.1,-58.95 8.9,-10 		"/>
		
			<polygon fill-rule="evenodd" clip-rule="evenodd" fill="none" stroke="#FFDB91" stroke-linecap="round" stroke-linejoin="round" stroke-miterlimit="3" points="
			80.45,-11.3 74.1,-58.95 0.1,-58.95 8.9,-10 		"/>
	</g>
</symbol>
<symbol  id="plashka" viewBox="3.5 -184.9 217.05 182.35">
	<g id="Layer_4_1_">
		<polygon fill-rule="evenodd" clip-rule="evenodd" fill="#FFFFFF" points="219.55,-183.9 4.5,-183.9 4.5,-3.55 219.55,-3.55 		"/>
		<polygon fill-rule="evenodd" clip-rule="evenodd" fill="none" stroke="#FFFFFF" stroke-width="2" stroke-miterlimit="10" points="
			219.55,-183.9 4.5,-183.9 4.5,-3.55 219.55,-3.55 		"/>
	</g>
</symbol>
<symbol  id="standarti" viewBox="-26.5 -29.6 81.45 70">
	<g id="Layer_1_4_">
		
			<use xlink:href="#papka1"  width="81.45" height="70" x="-0.5" y="-59.5" transform="matrix(1 0 0 1 -26 29.8999)" overflow="visible"/>
	</g>
	<g id="Layer_2_2_">
	</g>
</symbol>
<symbol  id="trash" viewBox="-7.3 -83.3 81.7 95.9">
	<g id="base_4_">
		<polygon fill-rule="evenodd" clip-rule="evenodd" fill="#93EAF7" points="58.55,-77.45 9.5,-77.4 0,0 66.95,0 		"/>
		
			<polygon fill-rule="evenodd" clip-rule="evenodd" fill="none" stroke="#93EAF7" stroke-width="0.1" stroke-linecap="round" stroke-linejoin="round" stroke-miterlimit="3" points="
			58.55,-77.45 9.5,-77.4 0,0 66.95,0 		"/>
	</g>
	<g id="ram_1_">
		<path fill-rule="evenodd" clip-rule="evenodd" fill="#8F999E" d="M8.4-77.45h50.65v-5.8H8.4V-77.45z M74.35,0h-81.6v12.55h81.6V0z
			"/>
		
			<path fill-rule="evenodd" clip-rule="evenodd" fill="none" stroke="#8F999E" stroke-width="0.1" stroke-linecap="round" stroke-linejoin="round" stroke-miterlimit="3" d="
			M8.4-77.45h50.65v-5.8H8.4V-77.45z M74.35,0h-81.6v12.55h81.6V0z"/>
	</g>
	<g id="line_1_">
		
			<path fill-rule="evenodd" clip-rule="evenodd" fill="none" stroke="#8F999E" stroke-width="2" stroke-linecap="round" stroke-linejoin="round" stroke-miterlimit="3" d="
			M9.45-12.1l7.85-55.45 M56.55-12.1l-6.3-54.95 M23.05-10.55l4.2-56.5 M43.45-10.55l-3.65-56.5"/>
	</g>
</symbol>
<symbol  id="video" viewBox="-0.5 -79.5 75 80">
	<g id="fon_1_">
		<polygon fill-rule="evenodd" clip-rule="evenodd" fill="#FFFFFF" points="72.75,-78.5 1.25,-78.5 1.25,-0.5 72.75,-0.5 		"/>
		
			<polygon fill-rule="evenodd" clip-rule="evenodd" fill="none" stroke="#FFFFFF" stroke-linecap="round" stroke-linejoin="round" stroke-miterlimit="3" points="
			72.75,-78.5 1.25,-78.5 1.25,-0.5 72.75,-0.5 		"/>
	</g>
	<g id="black_1_">
		<path fill-rule="evenodd" clip-rule="evenodd" fill="#1E2B33" d="M61-13h3.55v-5.5H61h3.55v5.5H61V0h13v-79H61v13.5h5.55v5.5H61
			v41.5H13H9.55v5.5H13H9.55v-5.5H13V-60H4.05v-5.5H13V-79H0V0h13v-13H61z M61-60h5.55v-5.5H61H13H4.05v5.5H13H61z"/>
		
			<path fill-rule="evenodd" clip-rule="evenodd" fill="none" stroke="#1E2B33" stroke-linecap="round" stroke-linejoin="round" stroke-miterlimit="3" d="
			M61-13h3.55v-5.5H61V-60h5.55v-5.5H61V-79h13V0H61V-13z M13-18.5H9.55v5.5H13V0H0v-79h13v13.5H4.05v5.5H13V-18.5z M13-60h48
			 M61-65.5H13 M13-13h48 M61-18.5H13"/>
	</g>
	<g id="white_1_">
		
			<path fill-rule="evenodd" clip-rule="evenodd" fill="none" stroke="#FFFFFF" stroke-width="3" stroke-linecap="round" stroke-linejoin="round" stroke-miterlimit="3" d="
			M66.3-7.75h2.75 M66.3-19.5h2.75 M66.3-31.75h2.75 M66.3-45.25h2.75 M5.3-45.25h2.75 M5.3-31.75h2.75 M5.3-19.5h2.75 M5.3-7.75
			h2.75 M5.3-71.5h2.75 M5.3-59h2.75 M66.3-59h2.75 M66.3-71.5h2.75"/>
	</g>
	<g id="play_1_">
		<polygon fill-rule="evenodd" clip-rule="evenodd" fill="#444A98" points="46.9,-39.65 46.85,-40.65 29.1,-51.25 28.85,-28.4 		"/>
		
			<polygon fill-rule="evenodd" clip-rule="evenodd" fill="none" stroke="#444A98" stroke-linecap="round" stroke-linejoin="round" stroke-miterlimit="3" points="
			46.9,-39.65 28.85,-28.4 29.1,-51.25 46.85,-40.65 		"/>
	</g>
	<g id="text_3_">
	</g>
</symbol>
<symbol  id="word" viewBox="38.8 -113.25 73.1 73.7">
	<g id="back_2_">
		<polygon fill-rule="evenodd" clip-rule="evenodd" fill="#378EC9" points="110.9,-40.55 110.9,-112.25 39.8,-112.25 39.8,-40.55 		
			"/>
		
			<polygon fill-rule="evenodd" clip-rule="evenodd" fill="none" stroke="#378EC9" stroke-width="2" stroke-linecap="round" stroke-linejoin="round" stroke-miterlimit="3" points="
			110.9,-40.55 110.9,-112.25 39.8,-112.25 39.8,-40.55 		"/>
	</g>
	<g id="verh_2_">
		<g>
			<path fill-rule="evenodd" clip-rule="evenodd" fill="#FFFFFF" d="M55.35-76.95c-0.4,0-0.733,0.15-1,0.45
				c-0.3,0.267-0.45,0.6-0.45,1s0.15,0.75,0.45,1.05c0.267,0.267,0.6,0.4,1,0.4H78.2c0.4,0,0.75-0.133,1.05-0.4
				c0.267-0.3,0.4-0.65,0.4-1.05s-0.133-0.733-0.4-1c-0.3-0.3-0.65-0.45-1.05-0.45H55.35z M79.65-68.25c0-0.4-0.133-0.733-0.4-1
				c-0.3-0.267-0.65-0.4-1.05-0.4H55.35c-0.4,0-0.733,0.133-1,0.4c-0.3,0.267-0.45,0.6-0.45,1s0.15,0.75,0.45,1.05
				c0.267,0.267,0.6,0.4,1,0.4H78.2c0.4,0,0.75-0.133,1.05-0.4C79.517-67.5,79.65-67.85,79.65-68.25z M79.25-59.95
				c0.267-0.267,0.4-0.6,0.4-1c0-0.4-0.133-0.75-0.4-1.05c-0.3-0.267-0.65-0.4-1.05-0.4H55.35c-0.4,0-0.733,0.133-1,0.4
				c-0.3,0.267-0.45,0.617-0.45,1.05c0,0.4,0.15,0.733,0.45,1c0.267,0.267,0.6,0.4,1,0.4H78.2C78.6-59.55,78.95-59.683,79.25-59.95z
				 M93.35-86.9h0.8c0.3,0,0.567-0.083,0.8-0.25c0.267-0.167,0.433-0.4,0.5-0.7l4.2-12.8c0.2-0.733,0.4-1.4,0.6-2
				c0.167-0.533,0.383-1.317,0.65-2.35l1.15,4.35c0.267,1,0.434,1.617,0.5,1.85l3.65,14.1c0.066,0.3,0.233,0.534,0.5,0.7
				c0.233,0.2,0.5,0.3,0.8,0.3h0.1c0.433,0,0.8-0.183,1.1-0.55c0.267-0.333,0.35-0.733,0.25-1.2l-6.2-22.6
				c-0.067-0.3-0.233-0.55-0.5-0.75c-0.233-0.2-0.5-0.3-0.8-0.3h-2.8c-0.3,0-0.566,0.083-0.8,0.25c-0.233,0.2-0.4,0.434-0.5,0.7
				L93.3-95.8c-0.1,0.333-0.183,0.633-0.25,0.9l-0.25,0.7c-0.1,0.367-0.167,0.6-0.2,0.7c-0.033-0.233-0.083-0.467-0.15-0.7
				l-4.35-13.95c-0.1-0.267-0.267-0.5-0.5-0.7c-0.233-0.167-0.5-0.25-0.8-0.25H84c-0.3,0-0.583,0.1-0.85,0.3
				c-0.233,0.167-0.4,0.4-0.5,0.7l-6.3,22.65c-0.1,0.434-0.017,0.833,0.25,1.2s0.633,0.55,1.1,0.55H80c0.3,0,0.583-0.083,0.85-0.25
				c0.233-0.2,0.4-0.45,0.5-0.75l3.8-14.1c0.2-0.833,0.35-1.5,0.45-2l1-4.2L92-87.85c0.1,0.3,0.267,0.533,0.5,0.7
				C92.767-86.983,93.05-86.9,93.35-86.9z M103.55-45.15c0.267-0.3,0.4-0.633,0.4-1v-30.1c0-0.533-0.184-0.983-0.55-1.35
				c-0.4-0.367-0.85-0.55-1.35-0.55H102c-0.5,0-0.95,0.183-1.35,0.55c-0.367,0.367-0.55,0.817-0.55,1.35v19.7
				c0,0.367-0.133,0.683-0.4,0.95c-0.267,0.267-0.583,0.4-0.95,0.4h-47.9c-0.367,0-0.684-0.133-0.95-0.4s-0.4-0.583-0.4-0.95v-43.9
				c0-0.367,0.133-0.683,0.4-0.95s0.583-0.4,0.95-0.4h23.1c0.533,0,0.983-0.2,1.35-0.6c0.367-0.367,0.55-0.8,0.55-1.3
				c0-0.533-0.184-0.983-0.55-1.35s-0.816-0.55-1.35-0.55h-29.5c-0.367,0-0.684,0.133-0.95,0.4c-0.267,0.267-0.4,0.583-0.4,0.95
				v58.1c0,0.367,0.133,0.7,0.4,1c0.267,0.267,0.583,0.4,0.95,0.4h58.1C102.917-44.75,103.25-44.883,103.55-45.15z"/>
		</g>
	</g>
</symbol>
<g id="cub">
	<rect y="-24.741" fill-rule="evenodd" clip-rule="evenodd" fill="#8DB321" width="15" height="15"/>
	<rect x="884.999" y="-24.741" fill-rule="evenodd" clip-rule="evenodd" fill="#8DB321" width="15" height="15"/>
	<rect x="-21.15" y="-6.982" fill-rule="evenodd" clip-rule="evenodd" fill="#8DB321" width="15" height="7"/>
	<rect x="-23.55" y="59.218" fill-rule="evenodd" clip-rule="evenodd" fill="#8DB321" width="15" height="7"/>
	<rect x="-23.55" y="344.168" fill-rule="evenodd" clip-rule="evenodd" fill="#8DB321" width="15" height="6.999"/>
	<rect x="-23.55" y="512.018" fill-rule="evenodd" clip-rule="evenodd" fill="#8DB321" width="15" height="7"/>
	<rect x="-23.55" y="412.118" fill-rule="evenodd" clip-rule="evenodd" fill="#8DB321" width="15" height="6.999"/>
</g>
<g id="text_fon">
	
		<linearGradient id="SVGID_1_" gradientUnits="userSpaceOnUse" x1="51.3843" y1="127.7383" x2="853.2686" y2="127.7383" gradientTransform="matrix(1.0848 0 0 1.5242 -41.7279 186.8732)">
		<stop  offset="0" style="stop-color:#AED345"/>
		<stop  offset="1" style="stop-color:#8DB321"/>
	</linearGradient>
	<rect x="14.014" y="351.127" fill-rule="evenodd" clip-rule="evenodd" fill="url(#SVGID_1_)" width="869.884" height="60.893"/>
</g>
<g id="text">
	<rect x="13.794" y="353.76" fill="none" width="869.75" height="77.4"/>
	<text transform="matrix(1 0 0 1 15.7939 365.6992)"><tspan x="0" y="0" font-family="'MyriadPro-Regular'" font-size="14">«Рабочий стол» вашего компьютера тоже нуждается в сортировке. Найдите и отметьте на нем несущественные предметы. </tspan><tspan x="0" y="18.852" font-family="'MyriadPro-It'" font-size="14">Небольшая подсказка:</tspan><tspan x="134.412" y="18.852" font-family="'MyriadPro-Regular'" font-size="14"> помните, что вы не можете удалять ярлыки программного обеспечения, установленного IT-отделом. Стандарт 5S </tspan><tspan x="0" y="37.701" font-family="'MyriadPro-Regular'" font-size="14">распространяется только на ярлыки и файлы, созданные самими сотрудниками.</tspan></text>
</g>
<g id="simbols">
	
		<use xlink:href="#plashka"  width="217.05" height="182.35" x="3.5" y="-184.9" transform="matrix(0.4337 0 0 -0.5149 12.5942 417.4502)" overflow="visible"/>
	
		<use xlink:href="#plashka"  width="217.05" height="182.35" x="3.5" y="-184.9" transform="matrix(0.4337 0 0 -0.5149 124.4443 417.4502)" overflow="visible"/>
	
		<use xlink:href="#plashka"  width="217.05" height="182.35" x="3.5" y="-184.9" transform="matrix(0.4337 0 0 -0.5149 235.2939 417.4502)" overflow="visible"/>
	
		<use xlink:href="#plashka"  width="217.05" height="182.35" x="3.5" y="-184.9" transform="matrix(0.4337 0 0 -0.5149 346.144 417.4502)" overflow="visible"/>
	
		<use xlink:href="#my_comp"  width="75" height="65.45" y="-65.45" transform="matrix(0.7109 0 0 -0.7667 34.394 436.5)" overflow="visible"/>
	
		<use xlink:href="#exel"  width="80.6" height="82.5" x="-1.05" y="-77.65" transform="matrix(0.6844 0 0 -0.6844 146.2441 437.2002)" overflow="visible"/>
	
		<use xlink:href="#foto"  width="81.45" height="70" x="-0.35" y="-62" transform="matrix(0.7056 0 0 -0.7056 255.8442 441.7998)" overflow="visible"/>
	
		<use xlink:href="#outlook"  width="82.95" height="83.272" x="-1" y="-82.15" transform="matrix(0.6244 0 0 -0.6244 370.0942 434.0498)" overflow="visible"/>
	<rect x="21.344" y="485.593" fill="none" width="75.717" height="29.925"/>
	<text transform="matrix(1 0 0 1 50.71 494.6973)"><tspan x="0" y="0" font-family="'Consolas'" font-size="10.2982">Мой </tspan><tspan x="-16.986" y="13.08" font-family="'Consolas'" font-size="10.2982">компьютер</tspan></text>
	<rect x="131.444" y="485.593" fill="none" width="80.068" height="37.253"/>
	<text transform="matrix(1 0 0 1 134.6758 494.6973)"><tspan x="0" y="0" font-family="'Consolas'" font-size="10.2982">Ответственные </tspan><tspan x="22.648" y="13.08" font-family="'Consolas'" font-size="10.2982">за 5S</tspan></text>
	<rect x="244.394" y="485.593" fill="none" width="73.117" height="24.175"/>
	<text transform="matrix(1 0 0 1 246.981 494.6973)" font-family="'Consolas'" font-size="10.2982">Стандарты 5S</text>
	<rect x="368.694" y="485.593" fill="none" width="50.976" height="14.108"/>
	<text transform="matrix(1 0 0 1 374.3652 494.6973)" font-family="'Consolas'" font-size="10.2982">Outlook</text>
	
		<use xlink:href="#plashka"  width="217.05" height="182.35" x="3.5" y="-184.9" transform="matrix(0.4333 0 0 -0.5144 455.4941 417.4004)" overflow="visible"/>
	
		<use xlink:href="#plashka"  width="217.05" height="182.35" x="3.5" y="-184.9" transform="matrix(0.4333 0 0 -0.5144 567.2441 417.4004)" overflow="visible"/>
	
		<use xlink:href="#plashka"  width="217.05" height="182.35" x="3.5" y="-184.9" transform="matrix(0.4333 0 0 -0.5144 677.9941 417.4004)" overflow="visible"/>
	
		<use xlink:href="#plashka"  width="217.05" height="182.35" x="3.5" y="-184.9" transform="matrix(0.4333 0 0 -0.5144 788.7441 417.4004)" overflow="visible"/>
	
		<use xlink:href="#foto"  width="81.45" height="70" x="-0.35" y="-62" transform="matrix(0.705 0 0 -0.705 698.5439 441.5996)" overflow="visible"/>
	
		<use xlink:href="#kosinka"  width="121.702" height="97.719" x="-44.972" y="-87.806" transform="matrix(0.5506 0 0 -0.5506 495.5439 439.1504)" overflow="visible"/>
	
		<use xlink:href="#video"  width="75" height="80" x="-0.5" y="-79.5" transform="matrix(0.7059 0 0 -0.6541 589.0439 433.25)" overflow="visible"/>
	
		<use xlink:href="#word"  width="73.1" height="73.7" x="38.8" y="-113.25" transform="matrix(0.7598 0 0 -0.738 780.3945 402.5996)" overflow="visible"/>
	<rect x="465.844" y="485.592" fill="none" width="74.18" height="27.161"/>
	<text transform="matrix(1 0 0 1 483.1357 494.6895)"><tspan x="0" y="0" font-family="'Consolas'" font-size="10.2884">Пасьянс </tspan><tspan x="-5.657" y="13.066" font-family="'Consolas'" font-size="10.2884">«Косынка»</tspan></text>
	<rect x="690.944" y="485.592" fill="none" width="64.816" height="27.161"/>
	<text transform="matrix(1 0 0 1 703.5547 494.6895)"><tspan x="0" y="0" font-family="'Consolas'" font-size="10.2884">Фото из </tspan><tspan x="0" y="13.066" font-family="'Consolas'" font-size="10.2884">отпуска</tspan></text>
	<rect x="579.244" y="485.592" fill="none" width="69.267" height="27.161"/>
	<text transform="matrix(1 0 0 1 582.7666 494.6895)"><tspan x="0" y="0" font-family="'Consolas'" font-size="10.2884">Корпоратив_</tspan><tspan x="8.484" y="13.066" font-family="'Consolas'" font-size="10.2884">Танцы!!!</tspan></text>
	<rect x="795.794" y="485.042" fill="none" width="81.664" height="27.161"/>
	<text transform="matrix(1 0 0 1 814 494.1406)"><tspan x="0" y="0" font-family="'Consolas'" font-size="10.2884">Черновик </tspan><tspan x="-14.142" y="13.066" font-family="'Consolas'" font-size="10.2884">отчета 1999г.</tspan></text>
</g>
<g id="labels">
	
		<use xlink:href="#label"  width="56.8" height="66.428" x="-8.85" y="-55.528" transform="matrix(0.4969 -0.1331 -0.1331 -0.4969 793.2441 426.75)" overflow="visible"/>
	
		<use xlink:href="#label"  width="56.8" height="66.428" x="-8.85" y="-55.528" transform="matrix(0.4969 -0.1331 -0.1331 -0.4969 682.5439 426.75)" overflow="visible"/>
	
		<use xlink:href="#label"  width="56.8" height="66.428" x="-8.85" y="-55.528" transform="matrix(0.4969 -0.1331 -0.1331 -0.4969 571.2939 426.75)" overflow="visible"/>
	
		<use xlink:href="#label"  width="56.8" height="66.428" x="-8.85" y="-55.528" transform="matrix(0.4969 -0.1331 -0.1331 -0.4969 459.5439 426.75)" overflow="visible"/>
</g>
<g id="image">
	
		<use xlink:href="#image_1_"  width="496.201" height="343.489" id="XMLID_1_" x="28" y="-343.489" transform="matrix(1 0 0 -1 173.9941 0)" overflow="visible"/>
</g>
</svg>
