<?xml version="1.0" encoding="utf-8"?>
<!-- Generator: Adobe Illustrator 15.1.0, SVG Export Plug-In . SVG Version: 6.00 Build 0)  -->
<!DOCTYPE svg PUBLIC "-//W3C//DTD SVG 1.1//EN" "http://www.w3.org/Graphics/SVG/1.1/DTD/svg11.dtd">
<svg version="1.1" xmlns="http://www.w3.org/2000/svg" xmlns:xlink="http://www.w3.org/1999/xlink" x="0px" y="0px" width="183px"
	 height="183px" viewBox="0 0 183 183" enable-background="new 0 0 183 183" xml:space="preserve">
<symbol  id="plashka" viewBox="3.5 -184.9 217.05 182.35">
	<g id="Layer_4_1_">
		<polygon fill-rule="evenodd" clip-rule="evenodd" fill="#FFFFFF" points="219.55,-183.9 4.5,-183.9 4.5,-3.55 219.55,-3.55 		"/>
		<polygon fill-rule="evenodd" clip-rule="evenodd" fill="none" stroke="#FFFFFF" stroke-width="2" stroke-miterlimit="10" points="
			219.55,-183.9 4.5,-183.9 4.5,-3.55 219.55,-3.55 		"/>
	</g>
</symbol>
<symbol  id="word" viewBox="38.8 -113.25 73.1 73.7">
	<g id="back_1_">
		<polygon fill-rule="evenodd" clip-rule="evenodd" fill="#378EC9" points="110.9,-40.55 110.9,-112.25 39.8,-112.25 39.8,-40.55 		
			"/>
		
			<polygon fill-rule="evenodd" clip-rule="evenodd" fill="none" stroke="#378EC9" stroke-width="2" stroke-linecap="round" stroke-linejoin="round" stroke-miterlimit="3" points="
			110.9,-40.55 110.9,-112.25 39.8,-112.25 39.8,-40.55 		"/>
	</g>
	<g id="verh_1_">
		<g>
			<path fill-rule="evenodd" clip-rule="evenodd" fill="#FFFFFF" d="M53.9-75.5c0,0.4,0.15,0.75,0.45,1.05
				c0.267,0.267,0.6,0.4,1,0.4H78.2c0.4,0,0.75-0.133,1.05-0.4c0.267-0.3,0.4-0.65,0.4-1.05s-0.133-0.733-0.4-1
				c-0.3-0.3-0.65-0.45-1.05-0.45H55.35c-0.4,0-0.733,0.15-1,0.45C54.05-76.233,53.9-75.9,53.9-75.5z M79.25-59.95
				c0.267-0.267,0.4-0.6,0.4-1c0-0.4-0.133-0.75-0.4-1.05c-0.3-0.267-0.65-0.4-1.05-0.4H55.35c-0.4,0-0.733,0.133-1,0.4
				c-0.3,0.267-0.45,0.617-0.45,1.05c0,0.4,0.15,0.733,0.45,1c0.267,0.267,0.6,0.4,1,0.4H78.2C78.6-59.55,78.95-59.683,79.25-59.95z
				 M79.65-68.25c0-0.4-0.133-0.733-0.4-1c-0.3-0.267-0.65-0.4-1.05-0.4H55.35c-0.4,0-0.733,0.133-1,0.4c-0.3,0.267-0.45,0.6-0.45,1
				s0.15,0.75,0.45,1.05c0.267,0.267,0.6,0.4,1,0.4H78.2c0.4,0,0.75-0.133,1.05-0.4C79.517-67.5,79.65-67.85,79.65-68.25z
				 M94.95-87.15c0.267-0.167,0.433-0.4,0.5-0.7l4.2-12.8c0.2-0.733,0.4-1.4,0.6-2c0.167-0.533,0.383-1.317,0.65-2.35l1.15,4.35
				c0.267,1,0.434,1.617,0.5,1.85l3.65,14.1c0.066,0.3,0.233,0.534,0.5,0.7c0.233,0.2,0.5,0.3,0.8,0.3h0.1
				c0.433,0,0.8-0.183,1.1-0.55c0.267-0.333,0.35-0.733,0.25-1.2l-6.2-22.6c-0.067-0.3-0.233-0.55-0.5-0.75
				c-0.233-0.2-0.5-0.3-0.8-0.3h-2.8c-0.3,0-0.566,0.083-0.8,0.25c-0.233,0.2-0.4,0.434-0.5,0.7L93.3-95.8
				c-0.1,0.333-0.183,0.633-0.25,0.9l-0.25,0.7c-0.1,0.367-0.167,0.6-0.2,0.7c-0.033-0.233-0.083-0.467-0.15-0.7l-4.35-13.95
				c-0.1-0.267-0.267-0.5-0.5-0.7c-0.233-0.167-0.5-0.25-0.8-0.25H84c-0.3,0-0.583,0.1-0.85,0.3c-0.233,0.167-0.4,0.4-0.5,0.7
				l-6.3,22.65c-0.1,0.434-0.017,0.833,0.25,1.2s0.633,0.55,1.1,0.55H80c0.3,0,0.583-0.083,0.85-0.25c0.233-0.2,0.4-0.45,0.5-0.75
				l3.8-14.1c0.2-0.833,0.35-1.5,0.45-2l1-4.2L92-87.85c0.1,0.3,0.267,0.533,0.5,0.7c0.267,0.167,0.55,0.25,0.85,0.25h0.8
				C94.45-86.9,94.717-86.983,94.95-87.15z M102.55-44.75c0.367,0,0.7-0.133,1-0.4c0.267-0.3,0.4-0.633,0.4-1v-30.1
				c0-0.533-0.184-0.983-0.55-1.35c-0.4-0.367-0.85-0.55-1.35-0.55H102c-0.5,0-0.95,0.183-1.35,0.55
				c-0.367,0.367-0.55,0.817-0.55,1.35v19.7c0,0.367-0.133,0.683-0.4,0.95c-0.267,0.267-0.583,0.4-0.95,0.4h-47.9
				c-0.367,0-0.684-0.133-0.95-0.4s-0.4-0.583-0.4-0.95v-43.9c0-0.367,0.133-0.683,0.4-0.95s0.583-0.4,0.95-0.4h23.1
				c0.533,0,0.983-0.2,1.35-0.6c0.367-0.367,0.55-0.8,0.55-1.3c0-0.533-0.184-0.983-0.55-1.35s-0.816-0.55-1.35-0.55h-29.5
				c-0.367,0-0.684,0.133-0.95,0.4c-0.267,0.267-0.4,0.583-0.4,0.95v58.1c0,0.367,0.133,0.7,0.4,1c0.267,0.267,0.583,0.4,0.95,0.4
				H102.55z"/>
		</g>
	</g>
</symbol>
<g id="plashki">
	
		<use xlink:href="#plashka"  width="217.05" height="182.35" x="3.5" y="-184.9" transform="matrix(0.8424 0 0 -1 -2.7002 -2.8999)" overflow="visible"/>
</g>
<g id="Layer_7">
	
		<use xlink:href="#word"  width="73.1" height="73.7" x="38.8" y="-113.25" transform="matrix(1.4319 0 0 -1.3909 -15.75 -30.5)" overflow="visible"/>
	<rect x="15.05" y="126.672" fill="none" width="153.907" height="51.188"/>
	<text transform="matrix(1 0 0 1 49.3613 142.0508)"><tspan x="0" y="0" font-family="'Consolas'" font-size="19.39">Черновик </tspan><tspan x="-26.652" y="24.625" font-family="'Consolas'" font-size="19.39">отчета 1999г.</tspan></text>
</g>
</svg>
