<?xml version="1.0" encoding="utf-8"?>
<!-- Generator: Adobe Illustrator 15.1.0, SVG Export Plug-In . SVG Version: 6.00 Build 0)  -->
<!DOCTYPE svg PUBLIC "-//W3C//DTD SVG 1.1//EN" "http://www.w3.org/Graphics/SVG/1.1/DTD/svg11.dtd">
<svg version="1.1" xmlns="http://www.w3.org/2000/svg" xmlns:xlink="http://www.w3.org/1999/xlink" x="0px" y="0px" width="183px"
	 height="183px" viewBox="0 0 183 183" enable-background="new 0 0 183 183" xml:space="preserve">
<symbol  id="exel" viewBox="-1.05 -77.65 80.6 82.5">
	<g id="back_1_">
		<polygon fill-rule="evenodd" clip-rule="evenodd" fill="#009948" points="78.55,-6.7 78.55,-66.55 25.75,-66.55 25.75,-6.7 		"/>
		
			<polygon fill-rule="evenodd" clip-rule="evenodd" fill="none" stroke="#009948" stroke-width="2" stroke-linecap="round" stroke-linejoin="round" stroke-miterlimit="3" points="
			78.55,-6.7 78.55,-66.55 25.75,-66.55 25.75,-6.7 		"/>
	</g>
	<g id="stolb_1_">
		<path fill-rule="evenodd" clip-rule="evenodd" fill="#FFFFFF" d="M61.8-21.8v7h10.1v-7H61.8z M45.5-14.8h11.65v-7H45.5V-14.8z
			 M45.5-46v6.95h11.65V-46H45.5z M57.15-34H45.5v7h11.65V-34z M71.9-39.05V-46H61.8v6.95H71.9z M61.8-27h10.1v-7H61.8V-27z
			 M61.8-51.45h10.1v-6.95H61.8V-51.45z M45.5-51.45h11.65v-6.95H45.5V-51.45z"/>
		
			<path fill-rule="evenodd" clip-rule="evenodd" fill="none" stroke="#FFFFFF" stroke-linecap="round" stroke-linejoin="round" stroke-miterlimit="3" d="
			M61.8-21.8v7h10.1v-7H61.8z M45.5-14.8h11.65v-7H45.5V-14.8z M45.5-46v6.95h11.65V-46H45.5z M57.15-34H45.5v7h11.65V-34z
			 M71.9-39.05V-46H61.8v6.95H71.9z M61.8-27h10.1v-7H61.8V-27z M61.8-51.45h10.1v-6.95H61.8V-51.45z M45.5-51.45h11.65v-6.95H45.5
			V-51.45z"/>
	</g>
	<g id="verx_1_">
		<polygon fill-rule="evenodd" clip-rule="evenodd" fill="#009948" points="-0.05,-2.2 46.95,3.85 46.95,-76.65 -0.05,-70.6 		"/>
		
			<polygon fill-rule="evenodd" clip-rule="evenodd" fill="none" stroke="#FFFFFF" stroke-width="2" stroke-linecap="round" stroke-linejoin="round" stroke-miterlimit="3" points="
			-0.05,-2.2 46.95,3.85 46.95,-76.65 -0.05,-70.6 		"/>
	</g>
	<g id="x_1_">
		<path fill-rule="evenodd" clip-rule="evenodd" fill="#FFFFFF" d="M27.3-22.5l6.3,0.6L24.25-36L34.4-50.4l-6.5,0.55l-6.5,9.55
			l-5.5-8.45l-5.05,0.5L18.6-36.1l-8,11.7c-0.067,0.133-0.117,0.25-0.15,0.35l5.05,0.45l5.8-8.25L27.3-22.5z"/>
	</g>
	<g id="text_1_">
	</g>
</symbol>
<symbol  id="plashka" viewBox="3.5 -184.9 217.05 182.35">
	<g id="Layer_4_1_">
		<polygon fill-rule="evenodd" clip-rule="evenodd" fill="#FFFFFF" points="219.55,-183.9 4.5,-183.9 4.5,-3.55 219.55,-3.55 		"/>
		<polygon fill-rule="evenodd" clip-rule="evenodd" fill="none" stroke="#FFFFFF" stroke-width="2" stroke-miterlimit="10" points="
			219.55,-183.9 4.5,-183.9 4.5,-3.55 219.55,-3.55 		"/>
	</g>
</symbol>
<g id="plashki">
	
		<use xlink:href="#plashka"  width="217.05" height="182.35" x="3.5" y="-184.9" transform="matrix(0.8424 0 0 -1 -2.7002 -2.8999)" overflow="visible"/>
</g>
<g id="Layer_1">
	
		<use xlink:href="#exel"  width="80.6" height="82.5" x="-1.05" y="-77.65" transform="matrix(1.2899 0 0 -1.2899 41.4502 33.1001)" overflow="visible"/>
	<rect x="15.3" y="126.072" fill="none" width="150.901" height="70.211"/>
	<text transform="matrix(1 0 0 1 21.3892 141.4639)"><tspan x="0" y="0" font-family="'Consolas'" font-size="19.4086">Ответственные </tspan><tspan x="42.684" y="24.649" font-family="'Consolas'" font-size="19.4086">за 5S</tspan></text>
</g>
</svg>
