<?xml version="1.0" encoding="utf-8"?>
<!-- Generator: Adobe Illustrator 15.1.0, SVG Export Plug-In . SVG Version: 6.00 Build 0)  -->
<!DOCTYPE svg PUBLIC "-//W3C//DTD SVG 1.1//EN" "http://www.w3.org/Graphics/SVG/1.1/DTD/svg11.dtd">
<svg version="1.1" xmlns="http://www.w3.org/2000/svg" xmlns:xlink="http://www.w3.org/1999/xlink" x="0px" y="0px" width="183px"
	 height="183px" viewBox="0 0 183 183" enable-background="new 0 0 183 183" xml:space="preserve">
<symbol  id="kosinka" viewBox="-44.972 -87.806 121.701 97.719">
	<g id="shadow_1_">
		<path fill-rule="evenodd" clip-rule="evenodd" fill="#333333" d="M23.557,7.839c0.566,0.976,1.414,1.621,2.545,1.935
			c1.132,0.279,2.21,0.14,3.235-0.418L51.981-3.562L11.148-73.327l-22.644,12.917c-1.025,0.558-1.696,1.395-2.015,2.51
			c-0.283,1.151-0.124,2.214,0.478,3.19L23.557,7.839z"/>
		<path fill-rule="evenodd" clip-rule="evenodd" fill="#333333" d="M74.625-16.427c0.99-0.592,1.644-1.447,1.962-2.562
			c0.283-1.116,0.141-2.162-0.424-3.138L39.573-84.675c-0.602-0.976-1.467-1.638-2.599-1.987c-1.132-0.279-2.192-0.122-3.182,0.471
			L11.148-73.327L51.981-3.562L74.625-16.427z"/>
	</g>
	<g id="Laag_1_1_">
		<g>
			<path fill-rule="evenodd" clip-rule="evenodd" fill="#F9F9F9" d="M23.65,6.2c0.533,0.933,1.333,1.55,2.4,1.85
				c1.067,0.267,2.083,0.133,3.05-0.4L50.45-4.7l-38.5-66.7L-9.4-59.05c-0.967,0.533-1.6,1.333-1.9,2.4
				c-0.267,1.1-0.117,2.117,0.45,3.05L23.65,6.2z"/>
			<path fill-rule="evenodd" clip-rule="evenodd" fill="#F9F9F9" d="M71.8-17c0.934-0.567,1.55-1.383,1.85-2.45
				c0.267-1.066,0.133-2.066-0.4-3l-34.5-59.8c-0.567-0.933-1.383-1.567-2.45-1.9c-1.066-0.267-2.066-0.117-3,0.45L11.95-71.4
				l38.5,66.7L71.8-17z"/>
			<g>
				<path fill-rule="evenodd" clip-rule="evenodd" fill="#2F3033" d="M28.785-47.098c0.255-3.665,2.155-6.466,5.698-8.404
					l-3.06-2.323l-8.556,4.942l18.387,31.834l4.961-18.53c0.691-2.581,0.375-5.016-0.947-7.306c-1.323-2.29-3.269-3.77-5.837-4.44
					c-2.097-0.562-4.125-0.439-6.087,0.366C31.404-50.165,29.884-48.878,28.785-47.098z"/>
				<path fill-rule="evenodd" clip-rule="evenodd" fill="#434548" d="M19.299-42.845c-1.678,1.296-2.798,2.993-3.359,5.089
					c-0.682,2.548-0.362,4.967,0.961,7.257c1.322,2.29,3.264,3.786,5.824,4.489l18.531,4.961L22.868-52.882l-8.557,4.942
					l0.483,3.811c3.469-2.113,6.845-2.358,10.126-0.736C22.831-44.804,20.957-44.13,19.299-42.845z"/>
			</g>
			<g>
				<path fill-rule="evenodd" clip-rule="evenodd" fill="#434548" d="M30.182,1.98l-2.461-2.738l1.268-0.732l1.086,3.228
					L30.182,1.98z M31.505,3.042c0.091-0.233,0.107-0.479,0.047-0.738L28.985-7l-1.319,0.762l0.909,3.33l-1.876,1.084l-2.335-2.405
					L24.294-4.29L23-3.543l0.124,0.098l6.587,6.78c0.462,0.409,0.921,0.482,1.377,0.219C31.259,3.455,31.397,3.285,31.505,3.042z"/>
				<path fill-rule="evenodd" clip-rule="evenodd" fill="#2F3033" d="M21.623-14.008c0.081-0.993,0.607-1.76,1.58-2.299
					l-0.838-0.632l-2.358,1.362l5.053,8.748l1.345-5.105c0.203-0.704,0.119-1.376-0.252-2.019c-0.361-0.625-0.897-1.026-1.607-1.202
					c-0.56-0.15-1.118-0.121-1.674,0.088C22.341-14.852,21.925-14.499,21.623-14.008z"/>
				<path fill-rule="evenodd" clip-rule="evenodd" fill="#434548" d="M25.06-6.829l-5.053-8.748l-2.358,1.362l0.128,1.042
					c0.954-0.574,1.881-0.647,2.781-0.22c-0.576,0.017-1.09,0.201-1.541,0.552c-0.458,0.377-0.763,0.846-0.913,1.406
					c-0.186,0.693-0.098,1.353,0.264,1.979c0.371,0.642,0.903,1.056,1.597,1.242L25.06-6.829z"/>
			</g>
			<g>
				<path fill-rule="evenodd" clip-rule="evenodd" fill="#434548" d="M33.204-78.87l2.308,2.581l-1.25,0.722l-1.093-3.248
					l-0.122-0.27L33.204-78.87z M36.525-75.241l2.375,2.405l0.059,0.102l1.327-0.766l-0.139-0.124l-6.654-6.808
					c-0.196-0.182-0.432-0.295-0.707-0.34c-0.249-0.038-0.466-0.002-0.654,0.105c-0.187,0.108-0.326,0.279-0.417,0.514
					c-0.109,0.244-0.133,0.496-0.074,0.757l2.624,9.374l1.327-0.767l-0.929-3.376L36.525-75.241z"/>
				<path fill-rule="evenodd" clip-rule="evenodd" fill="#2F3033" d="M43.304-61.326l-5.084-8.803l-1.38,5.152
					c-0.187,0.698-0.099,1.361,0.265,1.991c0.374,0.646,0.909,1.063,1.607,1.25c0.563,0.151,1.133,0.117,1.71-0.103
					c0.532-0.217,0.951-0.572,1.256-1.065c-0.081,0.999-0.611,1.771-1.59,2.313l0.844,0.636L43.304-61.326z"/>
				<path fill-rule="evenodd" clip-rule="evenodd" fill="#434548" d="M45.522-63.729c-0.943,0.567-1.867,0.636-2.773,0.206
					c0.58-0.017,1.097-0.203,1.551-0.555c0.461-0.38,0.768-0.852,0.918-1.415c0.187-0.698,0.093-1.37-0.28-2.016
					c-0.364-0.629-0.894-1.038-1.592-1.225l-5.127-1.394l5.084,8.803l2.348-1.356L45.522-63.729z"/>
			</g>
		</g>
		<g>
			<g>
				<path fill-rule="evenodd" clip-rule="evenodd" fill="#DE4653" d="M-44.564-20.326c-0.48,1.049-0.537,2.116-0.169,3.2
					c0.403,1.083,1.138,1.888,2.205,2.412l23.62,11.329l34.793-72.638l-23.62-11.329c-1.066-0.524-2.145-0.594-3.235-0.209
					c-1.125,0.385-1.928,1.084-2.409,2.098L-44.564-20.326z"/>
				<path fill-rule="evenodd" clip-rule="evenodd" fill="#DE4653" d="M4.678,7.942c1.075,0.49,2.163,0.559,3.263,0.21
					c1.135-0.385,1.944-1.102,2.429-2.15l31.462-65.138c0.485-1.014,0.542-2.063,0.172-3.147c-0.407-1.118-1.148-1.922-2.224-2.412
					L15.958-76.023L-19.145-3.386L4.678,7.942z"/>
				<path fill-rule="evenodd" clip-rule="evenodd" fill="#FFFFFF" d="M-42.25-21c-0.467,1-0.533,2.017-0.2,3.05
					c0.367,1.033,1.05,1.8,2.05,2.3l22.15,10.8L15.5-74.1L-6.65-84.9c-1-0.5-2.017-0.566-3.05-0.2c-1.066,0.367-1.833,1.033-2.3,2
					L-42.25-21z"/>
				<path fill-rule="evenodd" clip-rule="evenodd" fill="#FFFFFF" d="M3.9,5.95c1,0.467,2.017,0.533,3.05,0.2
					C8.017,5.784,8.783,5.1,9.25,4.1L39.5-58c0.467-0.966,0.533-1.966,0.2-3c-0.367-1.066-1.05-1.833-2.05-2.3L15.5-74.1
					L-18.25-4.85L3.9,5.95z"/>
			</g>
			<g>
				<path fill-rule="evenodd" clip-rule="evenodd" fill="#D54A5B" d="M-36.256-17.895l0.736-3.04l1.205,0.587l-1.893,2.477
					l-0.129,0.205L-36.256-17.895z M-35.858-16.448l5.721-6.723l-1.253-0.611l-2.061,2.395l-1.759-0.857l0.604-3.015l0.035-0.072
					l-1.253-0.61l-0.011,0.144l-1.771,8.469c-0.074,0.56,0.105,0.946,0.539,1.157c0.177,0.086,0.377,0.104,0.6,0.054
					C-36.226-16.161-36.023-16.271-35.858-16.448z"/>
				<path fill-rule="evenodd" clip-rule="evenodd" fill="#D54A5B" d="M-35.241-28.789c0.247,0.716,0.716,1.243,1.407,1.58
					c0.675,0.329,1.37,0.37,2.087,0.123l3.404-6.987l-5.196,1.792c-0.716,0.247-1.239,0.708-1.568,1.382
					C-35.443-30.209-35.488-29.505-35.241-28.789z"/>
				<path fill-rule="evenodd" clip-rule="evenodd" fill="#A4343A" d="M-28.254-25.384c0.717-0.247,1.243-0.716,1.58-1.407
					c0.329-0.674,0.37-1.37,0.123-2.087l-1.792-5.196l-3.404,6.987c0.247,0.716,0.716,1.243,1.407,1.58
					C-29.667-25.178-28.971-25.137-28.254-25.384z"/>
			</g>
			<g>
				<path fill-rule="evenodd" clip-rule="evenodd" fill="#D54A5B" d="M28.208-56.233l-1.276-0.622l2.005-2.625l0.15-0.243L29-59.48
					c-0.072,0.365-0.219,0.968-0.438,1.809L28.208-56.233z M27.227-51.562l1.302,0.635l0.023-0.178l1.877-8.974
					c0.079-0.594-0.112-1.002-0.571-1.226c-0.17-0.083-0.374-0.098-0.61-0.045c-0.253,0.045-0.468,0.162-0.644,0.35l-6.1,7.138
					l1.328,0.647l2.196-2.563l1.864,0.908L27.227-51.562z"/>
				<path fill-rule="evenodd" clip-rule="evenodd" fill="#D54A5B" d="M27.95-47.923c-0.262-0.759-0.75-1.313-1.465-1.662
					c-0.732-0.356-1.478-0.404-2.237-0.142l-3.607,7.404l5.506-1.898c0.759-0.262,1.317-0.759,1.674-1.491
					C28.168-46.427,28.212-47.164,27.95-47.923z"/>
				<path fill-rule="evenodd" clip-rule="evenodd" fill="#A4343A" d="M20.545-51.531c-0.759,0.262-1.313,0.75-1.662,1.465
					c-0.356,0.732-0.404,1.478-0.142,2.237l1.898,5.506l3.607-7.404c-0.262-0.759-0.75-1.313-1.465-1.662
					C22.051-51.745,21.305-51.793,20.545-51.531z"/>
			</g>
			<g>
				<path fill-rule="evenodd" clip-rule="evenodd" fill="#D54A5B" d="M-7.761-28.067l12.35-25.348l-18.842,6.518
					c-2.6,0.897-4.502,2.581-5.707,5.053c-1.204,2.472-1.358,5.008-0.462,7.608s2.581,4.502,5.053,5.707
					S-10.361-27.171-7.761-28.067z"/>
				<path fill-rule="evenodd" clip-rule="evenodd" fill="#A4343A" d="M4.926-21.886c2.6-0.896,4.502-2.581,5.707-5.053
					c1.204-2.472,1.358-5.008,0.462-7.608L4.589-53.415l-12.35,25.348c0.896,2.6,2.589,4.506,5.079,5.719
					C-0.21-21.143,2.326-20.989,4.926-21.886z"/>
			</g>
		</g>
	</g>
</symbol>
<symbol  id="plashka" viewBox="3.5 -184.9 217.05 182.35">
	<g id="Layer_4_1_">
		<polygon fill-rule="evenodd" clip-rule="evenodd" fill="#FFFFFF" points="219.55,-183.9 4.5,-183.9 4.5,-3.55 219.55,-3.55 		"/>
		<polygon fill-rule="evenodd" clip-rule="evenodd" fill="none" stroke="#FFFFFF" stroke-width="2" stroke-miterlimit="10" points="
			219.55,-183.9 4.5,-183.9 4.5,-3.55 219.55,-3.55 		"/>
	</g>
</symbol>
<g id="plashki">
	
		<use xlink:href="#plashka"  width="217.05" height="182.35" x="3.5" y="-184.9" transform="matrix(0.8424 0 0 -1 -2.7002 -2.8999)" overflow="visible"/>
</g>
<g id="Layer_4">
	
		<use xlink:href="#kosinka"  width="121.701" height="97.719" x="-44.972" y="-87.806" transform="matrix(1.0376 0 0 -1.0376 77.3501 37.3501)" overflow="visible"/>
	<rect x="23.15" y="126.672" fill="none" width="139.801" height="51.188"/>
	<text transform="matrix(1 0 0 1 55.7383 142.0508)"><tspan x="0" y="0" font-family="'Consolas'" font-size="19.39">Пасьянс </tspan><tspan x="-10.661" y="24.625" font-family="'Consolas'" font-size="19.39">«Косынка»</tspan></text>
</g>
</svg>
