<?xml version="1.0" encoding="utf-8"?>
<!-- Generator: Adobe Illustrator 15.1.0, SVG Export Plug-In . SVG Version: 6.00 Build 0)  -->
<!DOCTYPE svg PUBLIC "-//W3C//DTD SVG 1.1//EN" "http://www.w3.org/Graphics/SVG/1.1/DTD/svg11.dtd">
<svg version="1.1" xmlns="http://www.w3.org/2000/svg" xmlns:xlink="http://www.w3.org/1999/xlink" x="0px" y="0px" width="183px"
	 height="183px" viewBox="0 0 183 183" enable-background="new 0 0 183 183" xml:space="preserve">
<symbol  id="ekran" viewBox="0 -35.5 60.5 35.5">
	<g id="Layer_1_2_">
		<polygon fill-rule="evenodd" clip-rule="evenodd" fill="#FFFFFF" points="60.5,-35.5 0,-35.5 0,0 60.5,0 		"/>
	</g>
</symbol>
<symbol  id="my_comp" viewBox="0 -65.45 75 65.45">
	<g id="base_1_">
		<path fill-rule="evenodd" clip-rule="evenodd" fill="#444A98" d="M74.75-0.25C74.917-0.45,75-0.667,75-0.9v-48.6
			c0-0.267-0.083-0.5-0.25-0.7c-0.233-0.167-0.483-0.25-0.75-0.25H47.1l0.7-6.05c0-1-0.083-1.917-0.25-2.75H60.4l2.85-4.6l0.2-0.25
			v-1.15c0-0.133-0.217-0.2-0.65-0.2H11.7c-0.434,0-0.65,0.067-0.65,0.2v1.15c0,0.167,0.067,0.25,0.2,0.25l2.7,4.6H27
			c-0.2,0.833-0.3,1.75-0.3,2.75l0.65,6.05H0.95c-0.267,0-0.483,0.083-0.65,0.25C0.1-50,0-49.767,0-49.5v48.6
			c0,0.233,0.1,0.45,0.3,0.65C0.467-0.083,0.683,0,0.95,0H74C74.267,0,74.517-0.083,74.75-0.25z"/>
	</g>
	<g id="ekran_1_">
		<use xlink:href="#ekran"  width="60.5" height="35.5" y="-35.5" transform="matrix(1 0 0 1 7.2002 -7.4502)" overflow="visible"/>
	</g>
	<g id="blik_1_">
		<path fill-rule="evenodd" clip-rule="evenodd" fill="#AEEFF9" d="M67.65-20.375v-6.875L34.675-42.7h-14.7L67.65-20.375z
			 M67.65-7.5v-8.3L8.375-42.7H7.15v19.05L42.75-7.5H67.65z"/>
	</g>
	<g id="text_1_">
	</g>
</symbol>
<symbol  id="plashka" viewBox="3.5 -184.9 217.05 182.35">
	<g id="Layer_4_1_">
		<polygon fill-rule="evenodd" clip-rule="evenodd" fill="#FFFFFF" points="219.55,-183.9 4.5,-183.9 4.5,-3.55 219.55,-3.55 		"/>
		<polygon fill-rule="evenodd" clip-rule="evenodd" fill="none" stroke="#FFFFFF" stroke-width="2" stroke-miterlimit="10" points="
			219.55,-183.9 4.5,-183.9 4.5,-3.55 219.55,-3.55 		"/>
	</g>
</symbol>
<g id="plashki">
	
		<use xlink:href="#plashka"  width="217.05" height="182.35" x="3.5" y="-184.9" transform="matrix(0.8424 0 0 -1 -2.7002 -2.8999)" overflow="visible"/>
</g>
<g id="papka">
	
		<use xlink:href="#my_comp"  width="75" height="65.45" y="-65.45" transform="matrix(1.3578 0 0 -1.4643 41.3501 30.25)" overflow="visible"/>
	<rect x="18.2" y="125.836" fill="none" width="144.62" height="26.947"/>
	<text transform="matrix(1 0 0 1 20.2173 141.4082)" font-family="'Consolas'" font-size="19.6695">Мой компьютер</text>
</g>
</svg>
