<?xml version="1.0" encoding="utf-8"?>
<!-- Generator: Adobe Illustrator 15.1.0, SVG Export Plug-In . SVG Version: 6.00 Build 0)  -->
<!DOCTYPE svg PUBLIC "-//W3C//DTD SVG 1.1//EN" "http://www.w3.org/Graphics/SVG/1.1/DTD/svg11.dtd">
<svg version="1.1" xmlns="http://www.w3.org/2000/svg" xmlns:xlink="http://www.w3.org/1999/xlink" x="0px" y="0px" width="183px"
	 height="183px" viewBox="0 0 183 183" enable-background="new 0 0 183 183" xml:space="preserve">
<symbol  id="outlook" viewBox="-1 -82.15 82.95 83.272">
	<g id="base_1_">
		<path fill-rule="evenodd" clip-rule="evenodd" fill="#F9DE48" d="M5.75-6.3c3.2,3.2,7.283,5.2,12.25,6
			c2.5,0.433,4.683,0.533,6.55,0.3h56.4v-80.95H0v57.3c0,1.9,0.233,4.066,0.7,6.5C1.633-12.35,3.317-8.733,5.75-6.3z"/>
		
			<path fill-rule="evenodd" clip-rule="evenodd" fill="none" stroke="#F9DE48" stroke-width="2" stroke-linecap="round" stroke-linejoin="round" stroke-miterlimit="3" d="
			M5.75-6.3c3.2,3.2,7.283,5.2,12.25,6c2.5,0.433,4.683,0.533,6.55,0.3h56.4v-80.95H0v57.3c0,1.9,0.233,4.066,0.7,6.5
			C1.633-12.35,3.317-8.733,5.75-6.3z"/>
	</g>
	<g id="konverrt_1_">
		<path fill-rule="evenodd" clip-rule="evenodd" fill="#FFFFFF" d="M78.85-60.45c-0.2,0.067-0.4,0.067-0.6,0l-29.3-6.6
			c-0.1,0-0.2-0.017-0.3-0.05l-9.1-2.1l-4.85,7.7c-0.034,0.033-0.05,0.067-0.05,0.1l-0.05,0.05l-15.35,24.6
			c-0.233,0.333-0.55,0.55-0.95,0.65c-0.4,0.1-0.783,0.033-1.15-0.2c-0.333-0.2-0.55-0.5-0.65-0.9c-0.1-0.4-0.033-0.783,0.2-1.15
			L31.15-61.5l-29.4-12L16.7-36.4c0.1,0.267,0.267,0.45,0.5,0.55c0.267,0.133,0.533,0.133,0.8,0L78.85-60.45z M54-82.15H19.35
			L3.9-75.9l28.85,11.8l4.8-7.6c0.167-0.267,0.4-0.466,0.7-0.6c0.267-0.1,0.567-0.117,0.9-0.05l9.25,2.1L54-82.15z M79.35-60.65
			l0.3-0.1c0.233-0.067,0.417-0.233,0.55-0.5c0.1-0.267,0.1-0.533,0-0.8l-8.1-20.1H57.25c0,0.033-0.017,0.066-0.05,0.1L51.4-69.6
			l27.5,6.2c0.4,0.1,0.717,0.333,0.95,0.7c0.2,0.333,0.267,0.7,0.2,1.1C79.95-61.167,79.717-60.85,79.35-60.65z"/>
		<path fill-rule="evenodd" clip-rule="evenodd" fill="#F29800" d="M1.75-73.5l29.4,12L16.7-38.35c-0.233,0.367-0.3,0.75-0.2,1.15
			c0.1,0.4,0.317,0.7,0.65,0.9c0.367,0.233,0.75,0.3,1.15,0.2c0.4-0.1,0.717-0.316,0.95-0.65l15.35-24.6l0.05-0.05
			c0-0.033,0.017-0.067,0.05-0.1l4.85-7.7l9.1,2.1c0.1,0.033,0.2,0.05,0.3,0.05l29.3,6.6c0.2,0.067,0.4,0.067,0.6,0l0.45-0.15
			l0.05-0.05c0.367-0.2,0.6-0.517,0.7-0.95c0.067-0.4,0-0.767-0.2-1.1c-0.233-0.367-0.55-0.6-0.95-0.7l-27.5-6.2l5.8-12.45
			c0.033-0.034,0.05-0.067,0.05-0.1H54l-5.6,11.9l-9.25-2.1c-0.333-0.066-0.633-0.05-0.9,0.05c-0.3,0.133-0.533,0.333-0.7,0.6
			l-4.8,7.6L3.9-75.9l-1.05-0.4c-0.4-0.167-0.783-0.167-1.15,0c-0.4,0.167-0.684,0.433-0.85,0.8c-0.167,0.4-0.15,0.783,0.05,1.15
			c0.133,0.4,0.4,0.684,0.8,0.85H1.75z"/>
	</g>
	<g id="o_1_">
		
			<path fill-rule="evenodd" clip-rule="evenodd" fill="none" stroke="#F29800" stroke-width="8" stroke-linecap="round" stroke-linejoin="round" stroke-miterlimit="3" d="
			M26.6-45.25c-3.567,0.1-6.617,1.7-9.15,4.8c-2.633,3.167-3.95,7.017-3.95,11.55c0,4.5,1.317,8.35,3.95,11.55
			c2.6,3.167,5.75,4.75,9.45,4.75c3.7,0,6.867-1.583,9.5-4.75c2.6-3.2,3.9-7.05,3.9-11.55c0-4.533-1.3-8.383-3.9-11.55
			c-2.566-3.1-5.617-4.7-9.15-4.8"/>
	</g>
	<g id="text_1_">
	</g>
</symbol>
<symbol  id="plashka" viewBox="3.5 -184.9 217.05 182.35">
	<g id="Layer_4_1_">
		<polygon fill-rule="evenodd" clip-rule="evenodd" fill="#FFFFFF" points="219.55,-183.9 4.5,-183.9 4.5,-3.55 219.55,-3.55 		"/>
		<polygon fill-rule="evenodd" clip-rule="evenodd" fill="none" stroke="#FFFFFF" stroke-width="2" stroke-miterlimit="10" points="
			219.55,-183.9 4.5,-183.9 4.5,-3.55 219.55,-3.55 		"/>
	</g>
</symbol>
<g id="plashki">
	
		<use xlink:href="#plashka"  width="217.05" height="182.35" x="3.5" y="-184.9" transform="matrix(0.8424 0 0 -1 -2.7002 -2.8999)" overflow="visible"/>
</g>
<g id="Layer_3">
	
		<use xlink:href="#outlook"  width="82.95" height="83.272" x="-1" y="-82.15" transform="matrix(1.1768 0 0 -1.1768 45.3501 27.2002)" overflow="visible"/>
	<rect x="44.45" y="126.223" fill="none" width="96.072" height="26.59"/>
	<text transform="matrix(1 0 0 1 55.1372 141.6143)" font-family="'Consolas'" font-size="19.4086">Outlook</text>
</g>
</svg>
