<?xml version="1.0" encoding="utf-8"?>
<!-- Generator: Adobe Illustrator 15.1.0, SVG Export Plug-In . SVG Version: 6.00 Build 0)  -->
<!DOCTYPE svg PUBLIC "-//W3C//DTD SVG 1.1//EN" "http://www.w3.org/Graphics/SVG/1.1/DTD/svg11.dtd">
<svg version="1.1" id="Layer_1" xmlns="http://www.w3.org/2000/svg" xmlns:xlink="http://www.w3.org/1999/xlink" x="0px" y="0px"
	 width="211.333px" height="182.834px" viewBox="1.167 0 211.333 182.834" enable-background="new 1.167 0 211.333 182.834"
	 xml:space="preserve">
<g>
	<g>
		<g>
			<g>
				<defs>
					<rect id="SVGID_1_" x="-77" y="-18" width="318" height="201"/>
				</defs>
				<clipPath id="SVGID_2_">
					<use xlink:href="#SVGID_1_"  overflow="visible"/>
				</clipPath>
				<path clip-path="url(#SVGID_2_)" fill="#FED39C" d="M93.368,116.174l-3.973,3.975c-0.875,0.674-1.699,1.072-2.473,1.197
					c-0.774,0.2-2.012,0.014-3.71-0.562c-1.749-0.55-2.648-0.851-2.698-0.899c-0.05-0.025-0.375-0.199-0.974-0.525
					c-0.625-0.324-2.312-0.537-5.06-0.637l0.375-6.857l6.071-1.911c2.874-1.95,5.522-2.263,7.945-0.938
					c4.621,2.196,6.688,3.746,6.203,4.647C94.589,114.564,94.021,115.402,93.368,116.174z"/>
				<path clip-path="url(#SVGID_2_)" fill="#405373" d="M7.623,143.464c-0.023-2.086,0.64-3.889,1.991-5.405
					c1.399-1.518,3.094-2.299,5.086-2.347l3.2-0.036c1.968-0.023,3.663,0.699,5.085,2.17c1.422,1.516,2.146,3.318,2.169,5.404
					l1.458,115.541l-17.531,0.18L7.623,143.464z"/>
				<path clip-path="url(#SVGID_2_)" fill="#F8A687" d="M38.278,69.104c-0.593,1.873-1.684,3.402-3.272,4.588
					c-1.612,1.232-3.45,1.849-5.512,1.849c-1.991,0-3.793-0.592-5.405-1.777c-1.541-1.138-2.644-2.656-3.308-4.552l9.424-0.498
					C32.576,68.713,35.267,68.844,38.278,69.104z"/>
				<path clip-path="url(#SVGID_2_)" fill="#F8A687" d="M27.731,46.913c1.47,0,2.679,0.51,3.627,1.53
					c1.02,0.948,1.529,2.146,1.529,3.591v17.177l-8.179,5.156l-2.098-5.156V52.034c0-1.422,0.498-2.62,1.494-3.591
					C25.1,47.423,26.309,46.913,27.731,46.913z"/>
				<path clip-path="url(#SVGID_2_)" fill="#13152E" d="M12.155,39.659c-0.379,0-0.735-0.142-1.067-0.427
					c-0.261-0.308-0.391-0.664-0.391-1.066c0-0.356,0.13-0.688,0.391-0.996c0.284-0.261,0.64-0.392,1.067-0.392
					c0.427,0,0.771,0.13,1.031,0.392c0.285,0.284,0.427,0.616,0.427,0.996c0,0.427-0.142,0.782-0.427,1.066
					C12.902,39.517,12.558,39.659,12.155,39.659z"/>
				<path clip-path="url(#SVGID_2_)" fill="#13152E" d="M23.642,39.659c-0.403,0-0.747-0.142-1.031-0.427
					c-0.261-0.308-0.391-0.664-0.391-1.066c0-0.356,0.13-0.688,0.391-0.996c0.261-0.261,0.604-0.392,1.031-0.392
					c0.427,0,0.759,0.13,0.996,0.392c0.309,0.284,0.462,0.616,0.462,0.996c0,0.427-0.154,0.782-0.462,1.066
					C24.4,39.517,24.068,39.659,23.642,39.659z"/>
				<path clip-path="url(#SVGID_2_)" fill="#F4E6E7" d="M13.969,53.172c-1.067-1.067-1.6-2.359-1.6-3.876h11.06
					c0,1.517-0.534,2.81-1.601,3.876c-1.091,1.09-2.395,1.636-3.912,1.636C16.375,54.809,15.059,54.262,13.969,53.172z"/>
				<polyline clip-path="url(#SVGID_2_)" fill="#465B7E" points="25.316,161.813 17.956,161.992 17.988,163.342 25.35,163.163 				
					"/>
				<path clip-path="url(#SVGID_2_)" fill="#F8A687" d="M12.211,130.377c0.758,0.236,1.387,0.604,1.884,1.104l2.241,2.418
					c0.474,0.475,0.794,1.148,0.96,2.025c0.237,0.854,0.273,1.625,0.107,2.313l-0.249,0.818c-0.19,0.734-0.557,1.293-1.102,1.672
					c-0.593,0.402-1.186,0.521-1.778,0.355l-1.174-0.249c-0.569-0.118-1.339-0.202-2.312-0.25c-0.83-0.022-1.6,0-2.312,0.071
					l-0.498,0.107c-0.617,0.094-1.399-0.035-2.347-0.393c-0.854-0.355-1.47-0.795-1.85-1.314c-1.138-1.494-1.41-3.201-0.817-5.121
					c0.64-1.922,1.956-3.06,3.947-3.414l3.165-0.428C10.765,130.021,11.476,130.115,12.211,130.377z"/>
				<path clip-path="url(#SVGID_2_)" fill="#6D3F3F" d="M12.618,23.229c-1.73-0.995-2.893-2.429-3.485-4.303
					c-0.592-1.874-0.498-3.722,0.285-5.547l8.606,4.979L12.618,23.229z"/>
				<path clip-path="url(#SVGID_2_)" fill="#FED39C" d="M31.643,71.416c-1.09,1.09-2.418,1.635-3.983,1.635
					c-1.588,0-2.928-0.545-4.019-1.635c-1.114-1.114-1.671-2.455-1.671-4.02v-8.001h11.344v8.001
					C33.314,68.961,32.757,70.302,31.643,71.416z"/>
				<path clip-path="url(#SVGID_2_)" fill="#FED39C" d="M37.084,37.738c0-1.778,0.581-3.295,1.743-4.552
					c1.233-1.257,2.667-1.884,4.303-1.884c1.66,0,3.083,0.627,4.268,1.884c1.185,1.305,1.778,2.821,1.778,4.552
					c0,1.754-0.593,3.283-1.778,4.587c-1.185,1.256-2.608,1.885-4.268,1.885c-1.635,0-3.07-0.628-4.303-1.885
					C37.665,41.069,37.084,39.54,37.084,37.738z"/>
				<path clip-path="url(#SVGID_2_)" fill="#FED39C" d="M16.991,12.027c2.679-2.11,6.069-3.166,10.171-3.166h1.067
					c4.125,0,7.527,1.055,10.206,3.166c2.821,2.276,4.232,5.322,4.232,9.14v27.596c0,3.959-1.411,7.36-4.232,10.206
					c-2.821,2.798-6.224,4.195-10.206,4.195h-1.067c-3.983,0-7.374-1.397-10.171-4.195c-2.821-2.822-4.231-6.224-4.231-10.206
					V21.167C12.76,17.326,14.17,14.279,16.991,12.027z"/>
				<path clip-path="url(#SVGID_2_)" fill="#FED39C" d="M16.991,32.475c1.186,1.305,1.778,2.833,1.778,4.588
					c0,1.73-0.592,3.248-1.778,4.552c-1.185,1.256-2.607,1.884-4.267,1.884c-1.636,0-3.07-0.628-4.303-1.884
					c-1.162-1.256-1.743-2.774-1.743-4.552c0-1.802,0.581-3.332,1.743-4.588c1.232-1.256,2.667-1.884,4.303-1.884
					C14.384,30.591,15.806,31.218,16.991,32.475z"/>
				<path clip-path="url(#SVGID_2_)" fill="#854C4C" d="M41.813,30.163c0.925,0.996,1.422,4.564,1.494,10.704
					c0.071,3.083,0.035,6.057-0.107,8.927c0.072,6.14-1.043,10.36-3.343,12.66c-1.066,1.066-2.441,1.813-4.125,2.239
					c-1.423,0.381-3.284,0.57-5.583,0.57h-4.445c-2.205,0-4.054-0.202-5.547-0.605c-1.612-0.449-2.976-1.244-4.09-2.383
					c-2.229-2.371-3.378-6.756-3.449-13.157c-0.095-2.774-0.13-5.643-0.107-8.606c0.119-5.903,0.617-9.353,1.494-10.349v12.589
					c0,2.205,0.758,4.125,2.276,5.761c1.494,1.588,3.295,2.383,5.405,2.383h12.482c2.11,0,3.912-0.795,5.405-2.383
					c1.494-1.589,2.24-3.508,2.24-5.761V30.163z"/>
				<path clip-path="url(#SVGID_2_)" fill="#854C4C" d="M33.101,6.764c3.627,0,6.271,0.676,7.931,2.027
					c1.92,1.565,2.88,4.197,2.88,7.895l-0.214,11.096c-0.355,7.634-0.983,11.949-1.885,12.945V27.034c0-2.418-0.747-4.505-2.24-6.26
					c-1.494-1.753-3.295-2.63-5.405-2.63H21.686c-2.11,0-3.912,0.877-5.405,2.63c-1.518,1.778-2.276,3.865-2.276,6.26v13.691
					c-0.877-1.02-1.494-5.334-1.849-12.945c-0.095-2.371-0.166-4.931-0.214-7.681l-0.035-3.415c0-1.802,0.261-3.129,0.782-3.982
					c0.474-0.711,1.197-1.103,2.169-1.174c0.735-0.047,1.897,0.048,3.485,0.285c1.944,0.26,3.461,0.391,4.552,0.391L33.101,6.764z"
					/>
				<path clip-path="url(#SVGID_2_)" fill="#854C4C" d="M35.483,45.242c2.087,0.924,3.13,2.714,3.13,5.37
					c0,2.916-1.043,5.43-3.13,7.539c-2.086,2.063-4.611,3.094-7.574,3.094c-2.917,0-5.429-1.031-7.539-3.094
					c-2.086-2.086-3.13-4.599-3.13-7.539c0-2.655,1.043-4.445,3.13-5.37c1.517-0.688,4.03-1.031,7.539-1.031
					C31.441,44.21,33.967,44.554,35.483,45.242z"/>
				<path clip-path="url(#SVGID_2_)" fill="#FED39C" d="M32.319,50.861c0.688,0.166,1.315,0.26,1.885,0.284l0.818,0.036
					c0,0.783-0.652,1.435-1.956,1.956c-1.256,0.521-2.821,0.783-4.694,0.783c-1.849,0-3.414-0.261-4.694-0.783
					c-1.28-0.522-1.92-1.173-1.92-1.956c0.901,0,1.849-0.106,2.845-0.319c1.991-0.451,3.248-1.245,3.769-2.383
					C29.035,49.592,30.351,50.386,32.319,50.861z"/>
				<path clip-path="url(#SVGID_2_)" fill="#6D3F3F" d="M15.676,4.772c1.114-0.309,2.299-0.486,3.556-0.534
					c2.632-0.071,4.398,0.557,5.299,1.885c0.189-0.949,0.012-2.086-0.534-3.414l-0.854-1.707c1.043-0.024,2.169,0.119,3.378,0.427
					c2.418,0.64,3.995,1.79,4.73,3.45c0.616-0.143,1.138-0.498,1.564-1.067l0.498-0.818c0.308,0.095,0.854,0.332,1.636,0.711
					c1.422,0.688,2.987,1.707,4.694,3.058c1.896,1.494,3.177,3.391,3.84,5.69c0.332,1.162,0.462,2.158,0.392,2.987l-0.107,9.424
					l-0.249-0.64c-0.286-0.593-0.605-1.102-0.96-1.529c-1.186-1.565-2.774-2.501-4.766-2.81c-2.015-0.355-4.185-0.059-6.508,0.889
					c-1.138,0.451-2.11,0.949-2.917,1.494c-5.287-2.727-9.602-3.188-12.944-1.387c-1.067,0.592-1.944,1.363-2.631,2.312
					c-0.356,0.451-0.604,0.865-0.747,1.245L9.985,9.466c0.546-0.332,1.257-0.498,2.134-0.498c1.778,0,3.533,0.818,5.264,2.454
					c-0.308-1.518-0.7-3.083-1.174-4.694L15.676,4.772z"/>
				<path clip-path="url(#SVGID_2_)" fill="#040505" d="M33.883,32.404c-0.261-0.213-0.391-0.499-0.391-0.854
					c0-0.332,0.13-0.628,0.391-0.889c0.213-0.213,0.486-0.32,0.818-0.32c0.379,0,0.688,0.107,0.925,0.32
					c0.213,0.261,0.32,0.557,0.32,0.889c0,0.355-0.106,0.641-0.32,0.854c-0.261,0.26-0.569,0.391-0.925,0.391
					C34.37,32.795,34.097,32.664,33.883,32.404z"/>
				<path clip-path="url(#SVGID_2_)" fill="#040505" d="M19.979,32.404c-0.26-0.213-0.391-0.499-0.391-0.854
					c0-0.332,0.131-0.628,0.391-0.889c0.213-0.213,0.486-0.32,0.818-0.32c0.379,0,0.688,0.107,0.924,0.32
					c0.19,0.213,0.285,0.51,0.285,0.889c0,0.379-0.095,0.664-0.285,0.854c-0.261,0.26-0.569,0.391-0.924,0.391
					C20.465,32.795,20.192,32.664,19.979,32.404z"/>
				<path clip-path="url(#SVGID_2_)" fill="#465B7E" d="M28.927,143.5c-0.071-2.063,0.592-3.863,1.992-5.406
					c1.351-1.517,3.034-2.313,5.049-2.382l3.165-0.036c1.992-0.023,3.699,0.699,5.121,2.17c1.399,1.445,2.134,3.211,2.205,5.299
					c1.043,44.428,2.395,82.67,4.054,114.724l-17.496,0.959C31.333,227.082,29.97,188.639,28.927,143.5z"/>
				<path clip-path="url(#SVGID_2_)" fill="#31487A" d="M15.084,68.393H37.96c3.588,0.002,5.837,0.809,6.748,2.418
					c0.908,1.606,1.59,7.629,2.044,18.066l3.264,73.721H3.5L2,84.182c0-4.362,1.274-8.084,3.822-11.166
					C8.41,69.934,11.498,68.393,15.084,68.393z"/>
				<polygon clip-path="url(#SVGID_2_)" fill="#465B7E" points="23.547,82.818 11.18,75.022 17.326,64.492 29.956,78.021 
					44.085,136.975 19.05,90.239 				"/>
				<polygon clip-path="url(#SVGID_2_)" fill="#EBF7FE" points="24.035,67.753 37.602,67.753 45.247,136.975 				"/>
				<polygon clip-path="url(#SVGID_2_)" fill="#465B7E" points="42.361,67.229 46.559,109.578 34.378,64.717 				"/>
				<polygon clip-path="url(#SVGID_2_)" fill="#FFFFFF" points="33.835,65.166 34.322,65.166 39.063,68.277 39.625,75.323 
					36.552,73.374 				"/>
				<polygon clip-path="url(#SVGID_2_)" fill="#CA695A" points="36.439,108.604 36.439,76.673 38.126,78.284 44.873,105.793 
					44.873,135.55 				"/>
				<polygon clip-path="url(#SVGID_2_)" fill="#CA695A" points="38.838,78.884 29.544,73.749 32.767,67.902 38.838,71.575 				"/>
				<polygon clip-path="url(#SVGID_2_)" fill="#FFFFFF" points="18.188,66.254 18.188,63.631 34.416,68.015 29.769,81.02 				"/>
				<path clip-path="url(#SVGID_2_)" fill="#31487A" d="M20.586,101.913c-5.083-4.39-6.294-5.444-3.635-3.166l2.698-15.479
					c2.749,2.625,6.296,6.073,10.644,10.345c4.347,4.271,9.063,8.693,14.148,13.267c5.084,4.574,15.646,5.562,31.687,2.962
					l1.762,10.756c-18.805,3.635-31.785,2.529-38.939-3.316C31.795,111.432,25.674,106.311,20.586,101.913z"/>
				<path clip-path="url(#SVGID_2_)" fill="#CB6828" d="M178.855,32.224v8.732l-1.912,2.174c0-3.823,0.051-8.333,0.149-13.529
					c0.101-5.222-1.649-7.283-5.247-6.184c-3.572,1.099-8.07,1.549-13.492,1.349c-1.148-0.05-3.271-0.375-6.371-0.974l-4.346-0.862
					c1.848-0.625,3.047-1.911,3.598-3.86l-3.297,1.312c-2.324,1.224-3.512,3.798-3.562,7.721c0,1.974-0.026,4.859-0.076,8.657
					c-0.049,3.548-0.087,5.521-0.112,5.921l-1.574-2.136c-0.024-2.749-0.049-5.634-0.074-8.657c0-0.55-0.025-1.1-0.076-1.649
					c-0.1-7.67,0.387-12.617,1.462-14.841c1.101-2.199,2.349-3.96,3.748-5.284c0.825-0.8,2.086-1.499,3.785-2.099
					c2.024-0.75,4.321-1.212,6.896-1.387c1.4-0.1,3.262-0.025,5.584,0.225c2.174,0.225,3.735,0.475,4.686,0.75
					c1.674,0.524,3.161,1.187,4.46,1.986c1.349,0.849,2.374,1.774,3.073,2.773c0.525,0.625,1.137,1.524,1.836,2.698
					c0.675,1.199,1.012,2.898,1.012,5.097C179.005,22.354,178.955,26.377,178.855,32.224z"/>
				<path clip-path="url(#SVGID_2_)" fill="#F79868" d="M178.855,32.224c1.272,0.149,2.297,0.487,3.072,1.011
					c0.9,0.6,1.375,1.387,1.424,2.362c0.125,2.823-0.324,4.834-1.35,6.034c-0.725,0.85-1.961,1.399-3.709,1.649
					c-0.43,5.488-1.023,9.248-1.779,11.281c-0.76,2.03-2.146,3.854-4.162,5.47c-0.361,0.301-1.43,0.912-3.203,1.838
					c-1.574,0.824-2.518,1.293-2.83,1.405l-1.557,0.618c-0.125,0.049-0.25,0.1-0.375,0.15l-6.783,3.935l-3.261-4.122
					c-0.3-0.125-0.6-0.264-0.899-0.412c-0.101-0.051-0.574-0.326-1.424-0.824c-1.375-0.775-2.793-1.806-4.254-3.092
					c-2.598-2.289-4.041-7.817-4.328-16.585c-1.549,0-2.61-0.175-3.186-0.525c-1.648-1.049-2.411-3.422-2.287-7.121
					c0.025-0.999,0.5-1.799,1.424-2.398c0.799-0.525,1.85-0.862,3.148-1.012c0.025,3.023,0.049,5.909,0.074,8.657l1.574,2.136
					c0.025-0.4,0.063-2.374,0.112-5.921c0.05-3.798,0.076-6.684,0.076-8.657c0.05-3.923,1.235-6.497,3.562-7.721l3.297-1.312
					c-0.551,1.949-1.75,3.235-3.599,3.86l4.347,0.862c3.1,0.6,5.223,0.924,6.371,0.974c5.422,0.2,9.92-0.25,13.492-1.349
					c3.598-1.1,5.348,0.961,5.247,6.184c-0.101,5.197-0.149,9.707-0.149,13.529l1.912-2.174v-8.73H178.855z M149.436,32.336
					c-0.35,0.375-0.524,0.787-0.524,1.237c0,0.475,0.175,0.874,0.524,1.199s0.75,0.487,1.199,0.487c0.45,0,0.85-0.163,1.199-0.487
					c0.325-0.325,0.486-0.725,0.486-1.199c0-0.45-0.162-0.862-0.486-1.237c-0.35-0.325-0.75-0.487-1.199-0.487
					S149.785,32.011,149.436,32.336z M151.046,48.827c-0.274,1.649-0.024,3.473,0.75,5.472c0.476,0.825,1.149,1.474,2.024,1.949
					c1.724,0.949,3.447,1.436,5.172,1.461c1.249,0.049,2.697-0.287,4.347-1.012c0.75-0.35,1.487-1.049,2.211-2.099
					c0.774-1.624,1.013-3.522,0.712-5.696C160.941,51.625,155.869,51.6,151.046,48.827z M168.286,32.599
					c-0.474,0-0.874,0.162-1.199,0.487c-0.325,0.325-0.487,0.725-0.487,1.199s0.162,0.875,0.487,1.199
					c0.325,0.3,0.726,0.45,1.199,0.45c0.476,0,0.875-0.15,1.2-0.45c0.299-0.325,0.449-0.725,0.449-1.199
					c0-0.25-0.049-0.475-0.149-0.675c-0.05-0.2-0.138-0.362-0.263-0.487l-0.037-0.037C169.161,32.761,168.762,32.599,168.286,32.599
					z M199.018,136.188c-5.322,7.471-10.844,7.607-16.564,0.412c-0.051-1.373-0.037-2.086,0.037-2.137
					c2.299-0.05,4.21-0.736,5.734-2.061c-1.899-1.649-2.211-3-0.938-4.049c0.824,0.625,1.336,1.049,1.535,1.274v0.3L199.018,136.188
					z"/>
				<path clip-path="url(#SVGID_2_)" fill="#010101" d="M149.436,32.336c0.35-0.325,0.75-0.487,1.199-0.487
					c0.45,0,0.85,0.162,1.199,0.487c0.325,0.375,0.486,0.787,0.486,1.237c0,0.475-0.162,0.874-0.486,1.199
					c-0.35,0.325-0.75,0.487-1.199,0.487s-0.85-0.163-1.199-0.487c-0.35-0.325-0.524-0.725-0.524-1.199
					C148.911,33.123,149.085,32.711,149.436,32.336z M168.286,32.599c0.476,0,0.875,0.162,1.2,0.487l0.037,0.037
					c0.125,0.125,0.213,0.288,0.263,0.487c0.101,0.2,0.149,0.425,0.149,0.675c0,0.475-0.149,0.875-0.449,1.199
					c-0.325,0.3-0.725,0.45-1.2,0.45c-0.474,0-0.874-0.15-1.199-0.45c-0.325-0.325-0.487-0.725-0.487-1.199
					c0-0.474,0.162-0.875,0.487-1.199C167.412,32.761,167.813,32.599,168.286,32.599z"/>
				<path clip-path="url(#SVGID_2_)" fill="#FFFFFF" d="M158.167,102.682L157.23,78.36l3.147-2.924l-2.772-7.458l-4.16,6.821
					l2.697,3.373l-5.134,24.811l-1.125-32.493l-0.823-1.987l4.385-5.059c0.3,0.148,0.6,0.287,0.898,0.412l3.26,4.122l6.785-3.935
					c0.125-0.051,0.25-0.102,0.375-0.15l3.297,6.746l-1.648,1.461L158.167,102.682z M151.046,48.827
					c4.822,2.773,9.896,2.798,15.216,0.075c0.301,2.174,0.063,4.073-0.711,5.696c-0.725,1.05-1.462,1.75-2.211,2.099
					c-1.648,0.725-3.098,1.061-4.347,1.012c-1.726-0.025-3.448-0.513-5.173-1.461c-0.875-0.475-1.549-1.125-2.023-1.949
					C151.021,52.299,150.771,50.476,151.046,48.827z"/>
				<path clip-path="url(#SVGID_2_)" fill="#31487A" d="M199.018,136.188l-10.193-6.26v-0.299l8.808-18.775l-14.729-20.651
					l-0.411,44.262c-0.074,0.05-0.087,0.763-0.037,2.138l-0.188,26.309h-3.373l-15.815-0.225l-10.156-0.713h-18.214h-5.622
					c2.271-10.92,3.675-21.408,4.216-31.463l0.02,0.02c0.5-14.916,0.236-26.709-0.788-35.379c-0.767,6.061-4.091,11.668-9.97,16.828
					c-5.32,4.679-12.44,7.563-21.361,8.656v-10.082c8.35-1.912,15.107-6.723,20.275-14.429c5.896-8.744,10.543-16.689,13.941-23.836
					c0.75-1.773,2.124-3.048,4.123-3.822l6.934-0.824l-4.609,11.73l7.607,3.973l-5.996,3.636l7.532,33.017l18.702-28.632
					l-4.609-6.972l7.646-1.536l-1.911-13.866c1.189,0.197,3.107,0.609,5.753,1.236c2.646,0.626,4.313,1.226,5.003,1.798
					c0.875,0.65,2.387,2.637,4.535,5.96c2.299,3.5,8.832,11.421,19.602,23.761c4.396,3.548,6.283,7.097,5.658,10.644l-10.307,25.072
					L199.018,136.188z"/>
				<path clip-path="url(#SVGID_2_)" fill="#343466" d="M151.009,102.98v17.016l7.158-17.314l8.245-30.582l1.648-1.461l-3.297-6.746
					l1.555-0.618l4.104,2.53l0.412,3.186l1.911,13.866l-7.646,1.536l4.61,6.972l-18.702,28.632l-7.533-33.017l5.998-3.636
					l-7.609-3.973l4.611-11.73l1.985-3.598l3.56-1.424c0.851,0.498,1.324,0.773,1.426,0.824l-4.385,5.059l0.823,1.987
					L151.009,102.98z M142.275,251.713l-3.748,0.018h-2.209l-1.612-89.758h18.214v89.758h-1.986L142.275,251.713z M176.906,251.318
					h-8.657h-3.748h-2.211v-88.635h0.787l15.815,0.225v88.41H176.906z"/>
				<polygon clip-path="url(#SVGID_2_)" fill="#FFCD05" points="158.167,102.682 151.009,119.996 151.009,102.98 156.145,78.172 
					153.445,74.799 157.605,67.978 160.378,75.436 157.23,78.359 				"/>
				<path clip-path="url(#SVGID_2_)" fill="#F79868" d="M87.484,121.046c2.111-2.106,3.523-5.192,4.235-9.257
					c-2.499-1.648-3.074-2.998-1.725-4.048c1.1,0.625,1.774,1.05,2.024,1.274l9.07,2.922v7.084
					C94.692,122.771,90.158,123.443,87.484,121.046z"/>
			</g>
		</g>
	</g>
</g>
</svg>
