<?xml version="1.0" encoding="utf-8"?>
<!-- Generator: Adobe Illustrator 15.1.0, SVG Export Plug-In . SVG Version: 6.00 Build 0)  -->
<!DOCTYPE svg PUBLIC "-//W3C//DTD SVG 1.1//EN" "http://www.w3.org/Graphics/SVG/1.1/DTD/svg11.dtd">
<svg version="1.1" id="Layer_1" xmlns="http://www.w3.org/2000/svg" xmlns:xlink="http://www.w3.org/1999/xlink" x="0px" y="0px"
	 width="297.167px" height="132.333px" viewBox="0.833 15.667 297.167 132.333"
	 enable-background="new 0.833 15.667 297.167 132.333" xml:space="preserve">
<g>
	<g>
		<defs>
			<rect id="SVGID_1_" x="-10.335" y="2.999" width="317.333" height="145.334"/>
		</defs>
		<clipPath id="SVGID_2_">
			<use xlink:href="#SVGID_1_"  overflow="visible"/>
		</clipPath>
		<polygon clip-path="url(#SVGID_2_)" fill="#242121" points="105.971,115.872 111.231,110.493 196.466,110.493 201.966,115.872 
			201.966,116.949 200.829,117.309 107.105,117.309 105.971,116.949 		"/>
		<path clip-path="url(#SVGID_2_)" fill="#242121" d="M161.994,60.3l7.91,47.538c0,1.607-0.352,2.962-1.055,4.066
			c-0.752,1.104-1.631,1.658-2.638,1.658h-24.786c-1.005,0-1.884-0.554-2.638-1.658c-0.702-1.106-1.054-2.461-1.054-4.066
			l7.909-47.538c0-1.608,0.352-2.963,1.057-4.067c0.752-1.155,1.631-1.734,2.636-1.734h8.967c1.004,0,1.883,0.579,2.637,1.734
			C161.641,57.337,161.994,58.692,161.994,60.3z"/>
		<path clip-path="url(#SVGID_2_)" fill="#2F2824" d="M226.482,18.336v81.741c0,0.401-0.178,0.778-0.529,1.129
			c-0.4,0.302-0.854,0.454-1.355,0.454H83.943c-0.503,0-0.928-0.152-1.281-0.454c-0.35-0.351-0.527-0.728-0.527-1.129V18.336
			c0-0.401,0.176-0.754,0.527-1.053c0.354-0.302,0.779-0.451,1.281-0.451h140.655c0.502,0,0.953,0.15,1.354,0.451
			C226.307,17.582,226.482,17.935,226.482,18.336z"/>
		<rect x="89.368" y="23.31" clip-path="url(#SVGID_2_)" fill="#00B4B7" width="129.807" height="71.872"/>
		<rect x="89.368" y="26.398" clip-path="url(#SVGID_2_)" fill="#F5F6F6" width="129.807" height="65.77"/>
		<rect x="89.368" y="26.398" clip-path="url(#SVGID_2_)" fill="#D2D3D4" width="129.807" height="7.382"/>
		<rect x="89.368" y="84.936" clip-path="url(#SVGID_2_)" fill="#D2D3D4" width="129.807" height="7.383"/>
		<rect x="89.368" y="87.572" clip-path="url(#SVGID_2_)" fill="#3C2517" width="129.807" height="7.308"/>
		<rect x="89.368" y="23.31" clip-path="url(#SVGID_2_)" fill="#3C2517" width="129.807" height="7.382"/>
		<rect x="102.5" y="38.25" clip-path="url(#SVGID_2_)" fill="#FDF27C" width="113" height="7.25"/>
		<polygon clip-path="url(#SVGID_2_)" fill="#6D6E71" points="102.5,38.25 102.5,38.75 215,38.75 215,45 103,45 103,38.25 
			102.5,38.25 102.5,38.75 102.5,38.25 102,38.25 102,46 216,46 216,37.75 102,37.75 102,38.25 		"/>
		<rect x="102.5" y="45.25" clip-path="url(#SVGID_2_)" fill="#FFFFFF" width="113" height="7.25"/>
		<polygon clip-path="url(#SVGID_2_)" fill="#6D6E71" points="102.5,45.25 102.5,45.75 215,45.75 215,52 103,52 103,45.25 
			102.5,45.25 102.5,45.75 102.5,45.25 102,45.25 102,53 216,53 216,44.75 102,44.75 102,45.25 		"/>
		<rect x="102.5" y="52" clip-path="url(#SVGID_2_)" fill="#FFFFFF" width="113" height="7.25"/>
		<polygon clip-path="url(#SVGID_2_)" fill="#6D6E71" points="102.5,52 102.5,52.5 215,52.5 215,58.75 103,58.75 103,52 102.5,52 
			102.5,52.5 102.5,52 102,52 102,59.75 216,59.75 216,51.5 102,51.5 102,52 		"/>
		<rect x="102.5" y="59" clip-path="url(#SVGID_2_)" fill="#FFFFFF" width="113" height="7.25"/>
		<polygon clip-path="url(#SVGID_2_)" fill="#6D6E71" points="102.5,59 102.5,59.5 215,59.5 215,65.75 103,65.75 103,59 102.5,59 
			102.5,59.5 102.5,59 102,59 102,66.75 216,66.75 216,58.5 102,58.5 102,59 		"/>
		<rect x="102.5" y="66.25" clip-path="url(#SVGID_2_)" fill="#FFFFFF" width="113" height="7.25"/>
		<polygon clip-path="url(#SVGID_2_)" fill="#6D6E71" points="102.5,66.25 102.5,66.75 215,66.75 215,73 103,73 103,66.25 
			102.5,66.25 102.5,66.75 102.5,66.25 102,66.25 102,74 216,74 216,65.75 102,65.75 102,66.25 		"/>
		<rect x="102.5" y="73.25" clip-path="url(#SVGID_2_)" fill="#FFFFFF" width="113" height="7.25"/>
		<polygon clip-path="url(#SVGID_2_)" fill="#6D6E71" points="102.5,73.25 102.5,73.75 215,73.75 215,80 103,80 103,73.25 
			102.5,73.25 102.5,73.75 102.5,73.25 102,73.25 102,81 216,81 216,72.75 102,72.75 102,73.25 		"/>
		<rect x="93" y="45.25" clip-path="url(#SVGID_2_)" fill="#FDF27C" width="9.25" height="35.25"/>
		<polygon clip-path="url(#SVGID_2_)" fill="#6D6E71" points="93,45.25 93,45.75 101.75,45.75 101.75,80 93.5,80 93.5,45.25 
			93,45.25 93,45.75 93,45.25 92.5,45.25 92.5,81 102.75,81 102.75,44.75 92.5,44.75 92.5,45.25 		"/>
		<polyline clip-path="url(#SVGID_2_)" fill="#6D6E71" points="130.25,38.25 130.25,80 131.25,80 131.25,38.25 		"/>
		<polyline clip-path="url(#SVGID_2_)" fill="#6D6E71" points="158.25,38.25 158.25,80.75 159.25,80.75 159.25,38.25 		"/>
		<polyline clip-path="url(#SVGID_2_)" fill="#6D6E71" points="186.75,38 186.75,80.5 187.75,80.5 187.75,38 		"/>
		<polyline clip-path="url(#SVGID_2_)" fill="#6D6E71" points="102.5,51.5 92.75,51.5 92.75,52.5 102.5,52.5 		"/>
		<polyline clip-path="url(#SVGID_2_)" fill="#6D6E71" points="102.5,58.5 92.75,58.5 92.75,59.5 102.5,59.5 		"/>
		<polyline clip-path="url(#SVGID_2_)" fill="#6D6E71" points="102.5,65.5 92.75,65.5 92.75,66.5 102.5,66.5 		"/>
		<polyline clip-path="url(#SVGID_2_)" fill="#6D6E71" points="102.5,72.75 92.75,72.75 92.75,73.75 102.5,73.75 		"/>
		<rect x="104.75" y="47.5" clip-path="url(#SVGID_2_)" fill="#BCBEC0" width="24.5" height="2.5"/>
		<rect x="104.75" y="54.25" clip-path="url(#SVGID_2_)" fill="#BCBEC0" width="24.5" height="2.5"/>
		<rect x="104.75" y="61.5" clip-path="url(#SVGID_2_)" fill="#BCBEC0" width="12.5" height="2.5"/>
		<rect x="104.75" y="68.75" clip-path="url(#SVGID_2_)" fill="#BCBEC0" width="21.25" height="2.5"/>
		<rect x="104.75" y="75.25" clip-path="url(#SVGID_2_)" fill="#BCBEC0" width="6.25" height="2.5"/>
		<rect x="133.25" y="47.25" clip-path="url(#SVGID_2_)" fill="#BCBEC0" width="6.25" height="2.5"/>
		<rect x="105" y="40.5" clip-path="url(#SVGID_2_)" fill="#BCBEC0" width="6.25" height="2.5"/>
		<rect x="94.25" y="47.5" clip-path="url(#SVGID_2_)" fill="#BCBEC0" width="6.25" height="2.5"/>
		<rect x="94.25" y="54.5" clip-path="url(#SVGID_2_)" fill="#BCBEC0" width="6.25" height="2.5"/>
		<rect x="94.25" y="61.25" clip-path="url(#SVGID_2_)" fill="#BCBEC0" width="6.25" height="2.5"/>
		<rect x="94.25" y="68.75" clip-path="url(#SVGID_2_)" fill="#BCBEC0" width="6.25" height="2.5"/>
		<rect x="94.25" y="75.5" clip-path="url(#SVGID_2_)" fill="#BCBEC0" width="6.25" height="2.5"/>
		<rect x="133.5" y="40.5" clip-path="url(#SVGID_2_)" fill="#BCBEC0" width="6.25" height="2.5"/>
		<rect x="161.75" y="40.5" clip-path="url(#SVGID_2_)" fill="#BCBEC0" width="6.25" height="2.5"/>
		<rect x="190.25" y="40.5" clip-path="url(#SVGID_2_)" fill="#BCBEC0" width="6.25" height="2.5"/>
		<rect x="133.25" y="54.25" clip-path="url(#SVGID_2_)" fill="#BCBEC0" width="6.25" height="2.5"/>
		<rect x="133.25" y="61.25" clip-path="url(#SVGID_2_)" fill="#BCBEC0" width="6.25" height="2.5"/>
		<rect x="133.25" y="68.25" clip-path="url(#SVGID_2_)" fill="#BCBEC0" width="6.25" height="2.5"/>
		<rect x="133.25" y="75.5" clip-path="url(#SVGID_2_)" fill="#BCBEC0" width="6.25" height="2.5"/>
		<rect x="161.75" y="47.25" clip-path="url(#SVGID_2_)" fill="#BCBEC0" width="6.25" height="2.5"/>
		<rect x="161.75" y="54.25" clip-path="url(#SVGID_2_)" fill="#BCBEC0" width="6.25" height="2.5"/>
		<rect x="161.75" y="61.25" clip-path="url(#SVGID_2_)" fill="#BCBEC0" width="6.25" height="2.5"/>
		<rect x="161.75" y="68.25" clip-path="url(#SVGID_2_)" fill="#BCBEC0" width="6.25" height="2.5"/>
		<rect x="161.75" y="75.5" clip-path="url(#SVGID_2_)" fill="#BCBEC0" width="6.25" height="2.5"/>
		<rect x="190.25" y="47.25" clip-path="url(#SVGID_2_)" fill="#BCBEC0" width="6.25" height="2.5"/>
		<rect x="190.25" y="54.25" clip-path="url(#SVGID_2_)" fill="#BCBEC0" width="6.25" height="2.5"/>
		<rect x="190.25" y="61.25" clip-path="url(#SVGID_2_)" fill="#BCBEC0" width="6.25" height="2.5"/>
		<rect x="190.25" y="68.25" clip-path="url(#SVGID_2_)" fill="#BCBEC0" width="6.25" height="2.5"/>
		<rect x="190.25" y="75.5" clip-path="url(#SVGID_2_)" fill="#BCBEC0" width="6.25" height="2.5"/>
		<rect x="4.391" y="128.896" clip-path="url(#SVGID_2_)" fill="#8E5122" width="292.636" height="7.506"/>
		<path clip-path="url(#SVGID_2_)" fill="#EDBB7C" d="M284.83,128.896H10.979H3.641c-0.513,0-0.941-0.076-1.285-0.223
			c-0.371-0.148-0.557-0.316-0.557-0.5v-11.121c0-0.521,0.614-0.779,1.842-0.779h288.566c1.229,0,1.846,0.258,1.846,0.779v11.121
			c0,0.48-0.615,0.723-1.846,0.723H284.83z M10.979,136.402H284.83v156.986h-12.484V167.38H23.506v126.009H10.979V136.402z"/>
		<polygon clip-path="url(#SVGID_2_)" fill="#FFFFFF" points="272.979,125.5 250.092,142.775 230.859,117.309 253.747,100.031 		"/>
		<polygon clip-path="url(#SVGID_2_)" fill="#A7AFB8" points="41.142,115.969 41.142,115.98 32.619,115.82 24.474,82.757 
			41.248,82.918 		"/>
		<path clip-path="url(#SVGID_2_)" fill="#6D6E71" d="M41.142,115.969l8.171-0.148l8.199-33.063l-16.264,0.147v0.014L41.142,115.969
			z M41.142,115.98v-0.014"/>
		<path clip-path="url(#SVGID_2_)" fill="#5258A6" d="M52.218,60.245l3.116,1.111L52.218,60.245z M50.868,64.025l3.116,1.112
			L50.868,64.025l1.35-3.78l1.284-3.603l1.362-3.804l1.282-3.542l1.35-3.78l1.307-3.589l1.362-3.804l1.362-3.803l10.202,3.675
			L56.265,81.023l-11.623,0.265l0.793-2.191l1.373-3.768l1.284-3.602l1.35-3.78L50.868,64.025z M49.442,67.946l3.117,1.111
			L49.442,67.946z M48.092,71.727l3.117,1.111L48.092,71.727z M45.435,79.097l3.117,1.111L45.435,79.097z M46.808,75.329
			l3.117,1.112L46.808,75.329z M60.165,38.123l3.116,1.112L60.165,38.123z M56.146,49.296l3.117,1.111L56.146,49.296z
			 M54.864,52.839l3.117,1.111L54.864,52.839z M53.501,56.643l3.117,1.112L53.501,56.643z M58.803,41.927l3.116,1.111L58.803,41.927
			z M57.496,45.516l3.116,1.112L57.496,45.516z"/>
		<path clip-path="url(#SVGID_2_)" fill="#5258A6" d="M50.868,64.025l0.883,0.315l1.35-3.78l0-0.001l1.283-3.602l0,0.001
			l1.363-3.804l-0.001,0.003l1.282-3.543l0.001-0.003l1.35-3.78l-0.002,0.005l1.307-3.589l0.002-0.004l1.362-3.804l1.045-2.918
			l8.436,3.039L55.6,80.101l-9.61,0.219l0.327-0.904l0,0.002l1.373-3.767l0.002-0.006l1.284-3.603l0,0.001l1.35-3.78l-0.002,0.005
			l1.426-3.921l0.002-0.005L50.868,64.025l-0.881-0.321l-1.426,3.921l-0.002,0.005l-1.35,3.78v0l-1.284,3.602l0.002-0.006
			l-1.374,3.768l0,0.002l-0.793,2.191c-0.105,0.292-0.061,0.614,0.12,0.866c0.182,0.253,0.473,0.397,0.783,0.391l11.623-0.265
			c0.388-0.009,0.73-0.255,0.861-0.62l15.464-43.029c0.175-0.487-0.078-1.024-0.565-1.2l-10.202-3.675
			c-0.236-0.084-0.491-0.073-0.718,0.034s-0.398,0.296-0.483,0.532l-1.362,3.803L57.92,41.61l0.001-0.005l-1.307,3.59l-0.002,0.005
			l-1.35,3.78l0.001-0.004l-1.282,3.543l-0.001,0.002l-1.362,3.804l0,0.001l-1.284,3.603v0l-1.35,3.78l0.002-0.005L50.868,64.025z"
			/>
		<path clip-path="url(#SVGID_2_)" fill="#FFFFFF" d="M52.038,60.75l3.117,1.111c0.279,0.099,0.585-0.046,0.685-0.325
			c0.1-0.279-0.046-0.585-0.325-0.685l-3.116-1.111c-0.279-0.1-0.585,0.046-0.685,0.325S51.759,60.65,52.038,60.75z M50.688,64.529
			l3.117,1.112c0.278,0.1,0.585-0.046,0.685-0.325c0.1-0.279-0.046-0.585-0.325-0.685l-3.116-1.112
			c-0.279-0.1-0.585,0.046-0.685,0.325C50.264,64.124,50.409,64.43,50.688,64.529z M49.262,68.451l3.117,1.111
			c0.279,0.1,0.585-0.046,0.685-0.325c0.1-0.279-0.046-0.585-0.325-0.685l-3.116-1.111c-0.279-0.1-0.585,0.046-0.685,0.325
			S48.983,68.352,49.262,68.451z M47.912,72.231l3.116,1.111c0.279,0.1,0.585-0.046,0.685-0.325s-0.046-0.585-0.325-0.685
			l-3.117-1.111c-0.279-0.1-0.585,0.046-0.685,0.325C47.488,71.825,47.633,72.132,47.912,72.231z M45.255,79.601l3.117,1.112
			c0.279,0.099,0.585-0.046,0.685-0.325c0.099-0.278-0.046-0.585-0.325-0.685l-3.116-1.111c-0.279-0.1-0.585,0.046-0.685,0.324
			C44.831,79.195,44.976,79.502,45.255,79.601z M46.628,75.833l3.117,1.112c0.278,0.1,0.585-0.046,0.685-0.325
			s-0.046-0.585-0.325-0.685l-3.117-1.112c-0.279-0.099-0.585,0.046-0.685,0.325C46.204,75.428,46.35,75.734,46.628,75.833z
			 M59.985,38.628l3.117,1.112c0.279,0.1,0.585-0.046,0.685-0.325c0.1-0.279-0.046-0.585-0.325-0.685l-3.116-1.112
			c-0.279-0.1-0.585,0.046-0.685,0.325C59.561,38.222,59.706,38.528,59.985,38.628z M55.966,49.801l3.116,1.111
			c0.279,0.1,0.585-0.046,0.685-0.325s-0.046-0.585-0.325-0.685l-3.117-1.112c-0.279-0.1-0.585,0.046-0.685,0.325
			C55.542,49.395,55.687,49.702,55.966,49.801z M54.684,53.344l3.116,1.111c0.279,0.1,0.585-0.046,0.685-0.325
			c0.099-0.279-0.046-0.585-0.325-0.685l-3.116-1.112c-0.279-0.099-0.585,0.046-0.685,0.325
			C54.26,52.938,54.405,53.244,54.684,53.344z M53.321,57.147l3.117,1.112c0.279,0.099,0.585-0.046,0.685-0.325
			c0.099-0.279-0.046-0.585-0.325-0.685l-3.116-1.112c-0.279-0.099-0.585,0.046-0.685,0.325
			C52.897,56.741,53.042,57.048,53.321,57.147z M58.623,42.432l3.116,1.111c0.279,0.1,0.585-0.046,0.685-0.325
			c0.1-0.279-0.046-0.585-0.325-0.685l-3.116-1.111c-0.279-0.1-0.585,0.046-0.685,0.325C58.199,42.025,58.344,42.332,58.623,42.432z
			 M57.315,46.021l3.116,1.112c0.279,0.1,0.585-0.046,0.685-0.325s-0.046-0.585-0.325-0.685l-3.116-1.112
			c-0.279-0.099-0.585,0.046-0.685,0.325S57.037,45.921,57.315,46.021z"/>
		<path clip-path="url(#SVGID_2_)" fill="#BCD86B" d="M35.566,66.037c0.929-0.089,1.617-0.616,2.063-1.581l6.458,17.685h-3.805
			l-5.975-16.317C34.7,66.001,35.12,66.073,35.566,66.037z M33.825,59.74l3.349,3.966l-0.536,1.152
			c-0.554,0.661-1.367,0.724-2.438,0.188L33.825,59.74z"/>
		<path clip-path="url(#SVGID_2_)" fill="#5258A6" d="M22.383,64.215l1.474,1.634c-0.482-0.089-1.009,0.107-1.581,0.589
			c-0.607,0.518-0.929,1.09-0.964,1.715l-1.447-1.635c-0.304-0.322-0.438-0.706-0.402-1.152c0.018-0.446,0.188-0.804,0.509-1.072
			l0.188-0.161c0.304-0.304,0.688-0.446,1.152-0.429C21.74,63.742,22.098,63.911,22.383,64.215z M25.143,60.973
			c0.589-0.786,1.429-0.928,2.519-0.429l11.201,21.597h-5.011L22.168,69.36l0.215-1.42c0.375-0.893,1.152-1.241,2.331-1.044
			l5.171,5.68l-5.332-10.316L25.143,60.973z M25.197,56.579c0.411,0.143,0.714,0.402,0.911,0.777l0.992,1.983
			c-0.429-0.232-0.992-0.188-1.688,0.134c-0.714,0.339-1.17,0.813-1.367,1.42l-0.991-1.956c-0.197-0.393-0.224-0.794-0.081-1.206
			c0.125-0.428,0.384-0.741,0.777-0.938l0.214-0.107C24.339,56.489,24.75,56.454,25.197,56.579z"/>
		<path clip-path="url(#SVGID_2_)" fill="#FFFFFF" d="M33.661,82.144l-19.253-9.591c-0.159,0.52-0.397,0.994-0.717,1.423
			l16.567,8.183l-1.045,0.004l-15.708-7.73l-0.108-0.106c-0.249,0.269-0.516,0.52-0.801,0.753l-2.128-2.644
			c0.143-0.036,0.268-0.135,0.374-0.296c0.231-0.251,0.275-0.528,0.13-0.831l3.59-0.123l0.001,0.268
			c0.001,0.197-0.025,0.42-0.077,0.67l0.134,0.026l20.059,9.989L33.661,82.144z"/>
		<path clip-path="url(#SVGID_2_)" fill="#DF4854" d="M30.258,82.158l-16.567-8.183c0.32-0.43,0.559-0.904,0.717-1.423l19.253,9.591
			L30.258,82.158z M29.213,82.162l-3.483,0.015l-13.318-6.641l-3.477-4.621l5.841,0.002l22.583,11.21l-2.679,0.012l-20.059-9.989
			l-0.134-0.026c0.052-0.25,0.078-0.474,0.077-0.67l-0.001-0.268l-3.59,0.123c0.145,0.303,0.101,0.58-0.13,0.831
			c-0.106,0.161-0.23,0.26-0.374,0.296l2.128,2.644c0.285-0.233,0.552-0.484,0.801-0.753l0.108,0.106L29.213,82.162z"/>
		<path clip-path="url(#SVGID_2_)" fill="#763A3A" d="M173.813,117.568c0.408,0,0.713,0.306,0.914,0.914
			c0.256,0.459,0.434,0.967,0.533,1.524h1.908c0.053-0.56,0.18-1.065,0.381-1.524c0.307-0.608,0.662-0.914,1.067-0.914h3.05
			c0.408,0,0.764,0.306,1.068,0.914c0.254,0.459,0.406,0.967,0.457,1.524h1.981c0-0.56,0.103-1.065,0.306-1.524
			c0.306-0.608,0.688-0.914,1.145-0.914h3.05c0.407,0,0.737,0.306,0.992,0.914c0.254,0.459,0.405,0.967,0.457,1.524h1.981
			c0.051-0.56,0.153-1.065,0.305-1.524c0.307-0.608,0.688-0.914,1.145-0.914h3.051c0.406,0,0.736,0.306,0.992,0.914
			c0.256,0.459,0.43,0.967,0.532,1.524h2.745c0.507,0,0.939,0.282,1.297,0.841c0.354,0.557,0.533,1.219,0.533,1.981
			c0,0.813-0.18,1.474-0.533,1.981c-0.355,0.611-0.79,0.916-1.297,0.916h-99.889c-0.507,0-0.915-0.305-1.221-0.916
			c-0.405-0.508-0.609-1.168-0.609-1.981c0-0.763,0.204-1.425,0.609-1.981c0.306-0.561,0.711-0.841,1.221-0.841h2.287
			c0.103-0.56,0.381-1.065,0.839-1.524c0.663-0.608,1.449-0.914,2.365-0.914h6.481c0.914,0,1.65,0.306,2.21,0.914
			c0.459,0.459,0.789,0.967,0.992,1.524h2.135c0.05-0.56,0.203-1.065,0.457-1.524c0.255-0.608,0.584-0.914,0.991-0.914h3.05
			c0.459,0,0.84,0.306,1.144,0.914c0.153,0.459,0.282,0.967,0.382,1.524h1.906c0.052-0.56,0.203-1.065,0.458-1.524
			c0.254-0.608,0.583-0.914,0.991-0.914h3.126c0.407,0,0.762,0.306,1.067,0.914c0.202,0.459,0.33,0.967,0.381,1.524h1.981
			c0-0.56,0.154-1.065,0.46-1.524c0.254-0.608,0.582-0.914,0.99-0.914h3.05c0.457,0,0.813,0.306,1.067,0.914
			c0.202,0.459,0.329,0.967,0.382,1.524h5.185c0.153-0.56,0.432-1.065,0.839-1.524c0.61-0.608,1.323-0.914,2.135-0.914h6.024
			c0.813,0,1.5,0.306,2.06,0.914c0.406,0.459,0.685,0.967,0.837,1.524h3.053c0.049-0.56,0.178-1.065,0.379-1.524
			c0.256-0.608,0.61-0.914,1.068-0.914h3.126c0.406,0,0.735,0.306,0.99,0.914c0.255,0.459,0.408,0.967,0.458,1.524h1.906
			c0.05-0.56,0.152-1.065,0.305-1.524c0.305-0.608,0.688-0.914,1.145-0.914H173.813z"/>
		<path clip-path="url(#SVGID_2_)" fill="#906DB0" d="M238.499,119.229l1.95-0.416c0.391-0.08,0.754-0.016,1.098,0.196
			c0.34,0.226,0.551,0.535,0.635,0.925l0.047,0.195c0.082,0.391,0.017,0.758-0.193,1.098c-0.229,0.34-0.537,0.553-0.928,0.635
			l-1.949,0.414c0.292-0.34,0.382-0.844,0.268-1.51C239.295,120.049,238.986,119.536,238.499,119.229z M238.182,120.154
			c0.537,0.697,0.463,1.471-0.218,2.314l-23.743,5.219c0.178-0.311,0.283-0.674,0.316-1.098c0.033-0.846-0.357-1.52-1.17-2.023
			l23.814-5.217L238.182,120.154z M213.609,125.493c0.504,0.603,0.463,1.349-0.121,2.243l-4.826-0.342l3.999-2.559L213.609,125.493z
			"/>
	</g>
</g>
</svg>
