<?xml version="1.0" encoding="utf-8"?>
<!-- Generator: Adobe Illustrator 15.1.0, SVG Export Plug-In . SVG Version: 6.00 Build 0)  -->
<!DOCTYPE svg PUBLIC "-//W3C//DTD SVG 1.1//EN" "http://www.w3.org/Graphics/SVG/1.1/DTD/svg11.dtd">
<svg version="1.1" id="Layer_1" xmlns="http://www.w3.org/2000/svg" xmlns:xlink="http://www.w3.org/1999/xlink" x="0px" y="0px"
	 width="259.75px" height="142.5px" viewBox="4.5 4 259.75 142.5" enable-background="new 4.5 4 259.75 142.5" xml:space="preserve"
	>
<g>
	<g>
		<defs>
			<rect id="SVGID_1_" x="-39.669" y="1.664" width="330.667" height="145.334"/>
		</defs>
		<clipPath id="SVGID_2_">
			<use xlink:href="#SVGID_1_"  overflow="visible"/>
		</clipPath>
		<rect x="175.52" y="4.585" clip-path="url(#SVGID_2_)" fill="#B0BEC5" width="71.584" height="63.429"/>
		<rect x="178.236" y="6.396" clip-path="url(#SVGID_2_)" fill="#FBFCFC" width="66.146" height="59.805"/>
		<rect x="228.074" y="17.27" clip-path="url(#SVGID_2_)" fill="#FEEB3D" width="5.438" height="5.438"/>
		<rect x="214.48" y="44.456" clip-path="url(#SVGID_2_)" fill="#FEEB3D" width="6.345" height="5.436"/>
		<rect x="214.48" y="52.61" clip-path="url(#SVGID_2_)" fill="#EB6724" width="6.345" height="5.438"/>
		<rect x="214.48" y="36.301" clip-path="url(#SVGID_2_)" fill="#0DBCD4" width="6.345" height="5.437"/>
		<rect x="235.324" y="44.456" clip-path="url(#SVGID_2_)" fill="#0DBCD4" width="5.436" height="5.436"/>
		<rect x="235.324" y="36.301" clip-path="url(#SVGID_2_)" fill="#FEEB3D" width="5.436" height="5.437"/>
		<rect x="235.324" y="52.61" clip-path="url(#SVGID_2_)" fill="#EB6724" width="5.436" height="5.438"/>
		<rect x="225.355" y="52.61" clip-path="url(#SVGID_2_)" fill="#0DBCD4" width="5.438" height="5.438"/>
		<rect x="225.355" y="44.456" clip-path="url(#SVGID_2_)" fill="#FEEB3D" width="5.438" height="5.436"/>
		<rect x="225.355" y="36.301" clip-path="url(#SVGID_2_)" fill="#EB6724" width="5.438" height="5.437"/>
		<path clip-path="url(#SVGID_2_)" fill="#78909C" d="M217.2,29.051h-24.919c-0.25,0-0.453-0.203-0.453-0.453V15.457
			c0-0.249,0.203-0.451,0.453-0.451s0.453,0.202,0.453,0.451v12.688H217.2c0.251,0,0.452,0.201,0.452,0.453
			C217.652,28.848,217.451,29.051,217.2,29.051z"/>
		<path clip-path="url(#SVGID_2_)" fill="#78909C" d="M192.281,29.051c-0.098,0-0.199-0.034-0.283-0.098
			c-0.193-0.159-0.227-0.444-0.07-0.639l4.543-5.686c0.086-0.106,0.229-0.137,0.354-0.17c0.135,0,0.262,0.061,0.35,0.164
			l2.536,3.064l3.725-4.271c0.082-0.096,0.203-0.151,0.33-0.154c0.135,0.006,0.252,0.049,0.338,0.138l2.33,2.436l11.18-10.364
			c0.183-0.171,0.471-0.159,0.64,0.024c0.171,0.184,0.161,0.471-0.022,0.64l-11.508,10.668c-0.182,0.169-0.463,0.16-0.636-0.02
			l-2.293-2.399l-3.75,4.302c-0.087,0.1-0.235,0.136-0.349,0.156c-0.131-0.002-0.258-0.063-0.344-0.165l-2.521-3.047l-4.194,5.251
			C192.546,28.99,192.415,29.051,192.281,29.051z"/>
	</g>
	<g>
		<defs>
			<rect id="SVGID_3_" x="-39.669" y="1.664" width="330.667" height="145.334"/>
		</defs>
		<clipPath id="SVGID_4_">
			<use xlink:href="#SVGID_3_"  overflow="visible"/>
		</clipPath>
		<path clip-path="url(#SVGID_4_)" fill="#27383A" d="M164.086,100.721l-0.771,67.561h-8.051l-0.775-50.358
			c-1.066,0.3-2.303,0.472-3.621,0.472c-1.319,0-2.557-0.172-3.622-0.472l-0.774,50.358h-8.048l-0.774-67.561H164.086z"/>
		<path clip-path="url(#SVGID_4_)" fill="#22215C" d="M170.367,71v0.336h-6.281v29.385h-26.438v2.018h-6.282V71h0.016
			c0.211-5.357,2.582-10.161,6.267-13.561c0.977-0.899,2.045-1.699,3.187-2.384c0.322-0.196,0.65-0.381,0.986-0.556l0.006-0.006
			c0.229-0.117,0.458-0.233,0.691-0.344c0.125-0.061,0.254-0.119,0.383-0.177c0.258-0.117,0.516-0.227,0.777-0.33
			c2.225-0.881,4.648-1.369,7.188-1.369c2.796,0,5.455,0.591,7.857,1.65c0.237,0.103,0.473,0.213,0.705,0.328
			c0.107,0.053,0.215,0.107,0.322,0.162l0.209,0.109c0.132,0.069,0.266,0.141,0.395,0.215l0.08,0.045
			c0.157,0.089,0.313,0.178,0.467,0.271c1.142,0.688,2.207,1.486,3.185,2.386c3.687,3.4,6.058,8.201,6.267,13.559h0.014V71z"/>
		<path clip-path="url(#SVGID_4_)" fill="#F9A86C" d="M156.807,48.148v6.123c-0.185,1.148-2.791,2.056-5.977,2.056
			c-2.604,0-4.821-0.607-5.645-1.454c-0.156-0.163-0.258-0.376-0.261-0.604v-6.121H156.807z"/>
		<path clip-path="url(#SVGID_4_)" fill="#F89A5A" d="M144.926,48.148v2.124c1.713,1.262,3.775,1.943,5.94,1.943
			c2.166,0,4.228-0.682,5.938-1.943h0.002v-2.124H144.926z"/>
		<path clip-path="url(#SVGID_4_)" fill="#814B26" d="M143.402,18.602v13.661h-3.562V22.165c0-0.984,0.396-1.875,1.041-2.519
			l0.08-0.079l0.172-0.147l0.06-0.05C141.803,18.89,142.566,18.602,143.402,18.602z"/>
		<path clip-path="url(#SVGID_4_)" fill="#814B26" d="M161.909,22.165v10.098h-3.562V18.602c0.834,0,1.6,0.288,2.209,0.769
			l0.213,0.183l0.099,0.094C161.512,20.29,161.909,21.181,161.909,22.165z"/>
		<path clip-path="url(#SVGID_4_)" fill="#FDC88B" d="M160.229,19.37v22.065c0,5.172-4.189,9.363-9.362,9.363
			c-5.171,0-9.363-4.191-9.363-9.363V19.37H160.229z"/>
		<path clip-path="url(#SVGID_4_)" fill="#814B26" d="M147.044,30.898c-0.312-0.106-0.644-0.164-0.989-0.164
			c-0.347,0-0.684,0.058-0.994,0.164c-0.656,0.222-1.209,0.66-1.584,1.229c-0.139,0.21-0.074,0.494,0.142,0.622
			c0.202,0.118,0.461,0.06,0.589-0.134c0.393-0.604,1.072-1.005,1.848-1.005c0.771,0,1.453,0.401,1.846,1.005
			c0.129,0.193,0.389,0.252,0.59,0.134c0.216-0.128,0.279-0.412,0.139-0.622C148.255,31.559,147.697,31.12,147.044,30.898z"/>
		<circle clip-path="url(#SVGID_4_)" fill="#40261B" cx="146.053" cy="33.815" r="1.165"/>
		<path clip-path="url(#SVGID_4_)" fill="#814B26" d="M156.555,30.898c-0.313-0.106-0.645-0.164-0.992-0.164
			c-0.346,0-0.681,0.058-0.992,0.164c-0.653,0.222-1.209,0.66-1.584,1.229c-0.137,0.21-0.076,0.494,0.143,0.622
			c0.199,0.118,0.459,0.06,0.588-0.134c0.395-0.604,1.072-1.005,1.848-1.005c0.772,0,1.457,0.401,1.848,1.005
			c0.128,0.193,0.387,0.252,0.586,0.134c0.218-0.128,0.281-0.412,0.145-0.622C157.766,31.559,157.21,31.12,156.555,30.898z"/>
		<circle clip-path="url(#SVGID_4_)" fill="#40261B" cx="155.563" cy="33.815" r="1.165"/>
		<path clip-path="url(#SVGID_4_)" fill="#814B26" d="M160.557,19.37h-0.541v7.666c0,1.717,0,3.523,0,5.227c0,3.321,0,6.239,0,7.3
			c0,1.036-0.838,1.873-1.873,1.873h-1.521c-1.034,0-1.87-0.841-1.87-1.873c0-0.516-0.211-0.984-0.55-1.324
			c-0.228-0.227-0.513-0.396-0.833-0.481l-0.161,0.22c-0.132,0.116-0.31,0.188-0.508,0.188h-0.603
			c-0.103,0.529-0.613,0.93-1.231,0.933c-0.618-0.003-1.13-0.403-1.231-0.933h-0.604c-0.197,0-0.377-0.071-0.508-0.188l-0.162-0.22
			c-0.795,0.216-1.379,0.941-1.379,1.806c0,0.517-0.207,0.985-0.549,1.324c-0.34,0.339-0.808,0.549-1.324,0.549h-1.521
			c-1.034,0-1.872-0.837-1.872-1.873c0-1.061,0-3.979,0-7.3c-0.001-3.097-0.001-6.543-0.001-9.157V19.37h-0.582v0.05l-0.172,0.147
			v21.722c0,2.645,1.029,5.133,2.902,7.002c1.868,1.872,4.354,2.902,7.001,2.902s5.131-1.03,7.003-2.902
			c1.871-1.869,2.899-4.357,2.899-7.002V19.553L160.557,19.37z"/>
		<path clip-path="url(#SVGID_4_)" fill="#FDC88B" d="M160.77,31.966L160.77,31.966v6.224c1.25,0,2.265-1.015,2.265-2.264V34.23
			C163.033,32.979,162.02,31.966,160.77,31.966z"/>
		<path clip-path="url(#SVGID_4_)" fill="#F79A66" d="M160.77,36.571L160.77,36.571v-2.989c0.619,0,1.121,0.502,1.121,1.123v0.745
			C161.891,36.069,161.389,36.571,160.77,36.571z"/>
		<path clip-path="url(#SVGID_4_)" fill="#FDC88B" d="M140.963,31.966L140.963,31.966v6.224c-1.25,0-2.265-1.015-2.265-2.264V34.23
			C138.698,32.979,139.713,31.966,140.963,31.966z"/>
		<path clip-path="url(#SVGID_4_)" fill="#F79A66" d="M140.963,36.571L140.963,36.571v-2.989c-0.62,0-1.121,0.502-1.121,1.123v0.745
			C139.842,36.069,140.343,36.571,140.963,36.571z"/>
		<path clip-path="url(#SVGID_4_)" fill="#FDC88B" d="M154.227,43.264l-2.262,0.911l-0.426-0.797
			c-0.137-0.258-0.385-0.438-0.673-0.505c-0.289,0.066-0.537,0.247-0.673,0.505l-0.424,0.797l-2.266-0.911l1.206-2.69h4.312
			L154.227,43.264z"/>
		<path clip-path="url(#SVGID_4_)" fill="#FCF3E7" d="M153.021,40.573l-0.474,0.577c-0.299,0.365-0.758,0.578-1.248,0.578h-0.872
			c-0.486,0-0.945-0.213-1.244-0.578l-0.474-0.577H153.021z"/>
		<ellipse clip-path="url(#SVGID_4_)" fill="#FAAD78" cx="145.708" cy="37.591" rx="2.104" ry="0.948"/>
		<ellipse clip-path="url(#SVGID_4_)" fill="#FAAD78" cx="156.023" cy="37.591" rx="2.105" ry="0.948"/>
		<path clip-path="url(#SVGID_4_)" fill="#FFE9CC" d="M150.866,36.41L150.866,36.41c-0.16,0-0.292-0.13-0.292-0.291v-3.681
			c0-0.161,0.132-0.291,0.292-0.291c0.159,0,0.292,0.13,0.292,0.291v3.681C151.158,36.28,151.025,36.41,150.866,36.41z"/>
		<path clip-path="url(#SVGID_4_)" fill="#FFE9CC" d="M150.866,38.16L150.866,38.16c-0.16,0-0.292-0.132-0.292-0.292
			c0-0.163,0.132-0.291,0.292-0.291c0.159,0,0.292,0.128,0.292,0.291C151.158,38.028,151.025,38.16,150.866,38.16z"/>
		<path clip-path="url(#SVGID_4_)" fill="#814B26" d="M143.604,20.247c0,2.918-0.84,5.48-2.101,6.925V19.37h2.071
			C143.593,19.658,143.604,19.949,143.604,20.247z"/>
		<path clip-path="url(#SVGID_4_)" fill="#814B26" d="M158.031,20.247c0,2.918,0.839,5.48,2.099,6.925V19.37h-2.073
			C158.04,19.658,158.031,19.949,158.031,20.247z"/>
		<path clip-path="url(#SVGID_4_)" fill="#814B26" d="M161.428,14.548H145.84c-1.986,0-3.598,1.611-3.598,3.598v2.759h17.305
			c1.801,0,3.264-1.461,3.264-3.264V15.93C162.811,15.165,162.191,14.548,161.428,14.548z"/>
		<ellipse clip-path="url(#SVGID_4_)" fill="#814B26" cx="151.65" cy="19.753" rx="9.285" ry="3.836"/>
		<path clip-path="url(#SVGID_4_)" fill="#F9A86C" d="M137.647,102.738v10.795c-3.468,0-6.282-0.771-6.282-1.727v-9.068H137.647z"/>
		<path clip-path="url(#SVGID_4_)" fill="#F9A86C" d="M179.771,66.6l3.314-10.272c4.296,1.388,7.542,3.245,7.249,4.154l-2.786,8.629
			L179.771,66.6z"/>
		<path clip-path="url(#SVGID_4_)" fill="#22215C" d="M178.52,87.995c-3.463-8.259-6.926-16.518-10.39-24.776
			c-2.468-5.888-12.202-3.306-9.694,2.672c3.463,8.26,6.924,16.521,10.389,24.779C171.29,96.557,181.025,93.975,178.52,87.995z"/>
		<path clip-path="url(#SVGID_4_)" fill="#22215C" d="M179.956,90.67c2.737-7.023,5.476-14.048,8.214-21.069
			c2.357-6.051-7.367-8.646-9.695-2.674c-2.738,7.023-5.478,14.047-8.215,21.068C167.9,94.046,177.627,96.641,179.956,90.67z"/>
		<polygon clip-path="url(#SVGID_4_)" fill="#FFFFFF" points="151.197,66.928 151.197,66.928 144.645,54 157.077,54 		"/>
		<polygon clip-path="url(#SVGID_4_)" fill="#010101" points="151.158,54.258 151.158,54.258 148.369,58.328 151.242,60.604 
			154.115,58.328 		"/>
		<polygon clip-path="url(#SVGID_4_)" fill="#010101" points="153.377,62.156 151.197,66.947 148.701,62.025 151.242,58.567 		"/>
		<polygon clip-path="url(#SVGID_4_)" fill="#60609A" points="151.197,66.947 151.197,66.947 141.503,57.431 144.926,53.197 		"/>
		<polygon clip-path="url(#SVGID_4_)" fill="#60609A" points="151.197,66.947 151.197,66.947 161.029,57.431 157.559,53.197 		"/>
		
			<rect x="179.974" y="62.649" transform="matrix(-0.9381 -0.3465 0.3465 -0.9381 336.0877 189.6953)" clip-path="url(#SVGID_4_)" fill="#60609A" width="10.055" height="4.309"/>
		<rect x="131" y="98" clip-path="url(#SVGID_4_)" fill="#60609A" width="7" height="5"/>
		<path clip-path="url(#SVGID_4_)" fill="#F9A86C" d="M180.279,52.559c0.4,1.739,0.803,3.479,1.203,5.216
			c0.377,1.625,2.869,0.937,2.494-0.688c-0.4-1.737-0.803-3.477-1.203-5.215C182.396,50.247,179.904,50.937,180.279,52.559z"/>
		<ellipse clip-path="url(#SVGID_4_)" fill="#F9A86C" cx="187.348" cy="54.648" rx="5.461" ry="5.956"/>
	</g>
	<g>
		<defs>
			<rect id="SVGID_5_" x="-39.669" y="1.664" width="330.667" height="145.334"/>
		</defs>
		<clipPath id="SVGID_6_">
			<use xlink:href="#SVGID_5_"  overflow="visible"/>
		</clipPath>
		<rect x="57.172" y="145.844" clip-path="url(#SVGID_6_)" fill="#5A6D76" width="46.553" height="2.904"/>
		<path clip-path="url(#SVGID_6_)" fill="#C0BFBF" d="M105.92,143.425c0,1.337-1.252,2.419-2.794,2.419H57.327
			c-1.54,0-2.792-1.082-2.792-2.419c0-1.338,1.252-2.418,2.792-2.418h45.799C104.668,141.007,105.92,142.087,105.92,143.425z"/>
		<path clip-path="url(#SVGID_6_)" fill="#C0BFBF" d="M53.115,90.749l-3.333,0.7l-0.009,0.002L46.44,92.15
			c-0.424,0.092-0.375,2.041,0.111,4.358l10.146,43.445c0.485,2.317,1.227,4.122,1.648,4.032l2.363-0.496h0.006l2.359-0.495
			c0.427-0.091,0.377-2.04-0.11-4.358l-8.199-43.855C54.278,92.465,53.539,90.66,53.115,90.749z"/>
	</g>
	<g>
		<defs>
			<rect id="SVGID_7_" x="-39.669" y="1.664" width="330.667" height="145.334"/>
		</defs>
		<clipPath id="SVGID_8_">
			<use xlink:href="#SVGID_7_"  overflow="visible"/>
		</clipPath>
		<rect x="204.859" y="144.818" clip-path="url(#SVGID_8_)" fill="#5A6D76" width="47.615" height="2.972"/>
	</g>
	<g>
		<defs>
			<rect id="SVGID_9_" x="-39.669" y="1.664" width="330.667" height="145.334"/>
		</defs>
		<clipPath id="SVGID_10_">
			<use xlink:href="#SVGID_9_"  overflow="visible"/>
		</clipPath>
		<path clip-path="url(#SVGID_10_)" fill="#C0BFBF" d="M202.611,142.346c0,1.368,1.281,2.475,2.859,2.475h46.838
			c1.58,0,2.858-1.105,2.858-2.475s-1.278-2.476-2.858-2.476h-46.838C203.895,139.87,202.611,140.977,202.611,142.346z"/>
	</g>
	<g>
		<defs>
			<rect id="SVGID_11_" x="-39.669" y="1.664" width="330.667" height="145.334"/>
		</defs>
		<clipPath id="SVGID_12_">
			<use xlink:href="#SVGID_11_"  overflow="visible"/>
		</clipPath>
		<path clip-path="url(#SVGID_12_)" fill="#5A6D76" d="M253.536,189.027c0.144,0.92,1,1.548,1.916,1.406
			c0.918-0.142,1.545-1,1.405-1.916l-6.291-40.789c-0.146-0.918-1-1.543-1.92-1.404c-0.916,0.142-1.545,1.001-1.402,1.914
			L253.536,189.027z"/>
	</g>
	<g>
		<defs>
			<rect id="SVGID_13_" x="-39.669" y="1.664" width="330.667" height="145.334"/>
		</defs>
		<clipPath id="SVGID_14_">
			<use xlink:href="#SVGID_13_"  overflow="visible"/>
		</clipPath>
		<path clip-path="url(#SVGID_14_)" fill="#5A6D76" d="M205,189.027c-0.141,0.92-0.999,1.548-1.917,1.406
			c-0.917-0.142-1.545-1-1.403-1.916l6.291-40.789c0.141-0.918,1-1.543,1.918-1.404c0.916,0.142,1.543,1.001,1.403,1.914
			L205,189.027z"/>
	</g>
	<g>
		<defs>
			<rect id="SVGID_15_" x="-39.669" y="1.664" width="330.667" height="145.334"/>
		</defs>
		<clipPath id="SVGID_16_">
			<use xlink:href="#SVGID_15_"  overflow="visible"/>
		</clipPath>
		<path clip-path="url(#SVGID_16_)" fill="#C0BFBF" d="M256.623,88.469l3.408,0.719h0.009l3.407,0.715
			c0.436,0.093,0.387,2.088-0.113,4.459l-10.376,44.434c-0.496,2.372-1.254,4.219-1.688,4.126l-2.416-0.506h-0.004l-2.414-0.509
			c-0.436-0.094-0.387-2.086,0.111-4.459l8.387-44.85C255.434,90.227,256.188,88.377,256.623,88.469z"/>
	</g>
	<g>
		<defs>
			<rect id="SVGID_17_" x="-39.669" y="1.664" width="330.667" height="145.334"/>
		</defs>
		<clipPath id="SVGID_18_">
			<use xlink:href="#SVGID_17_"  overflow="visible"/>
		</clipPath>
		<rect x="16.896" y="144.2" clip-path="url(#SVGID_18_)" fill="#5A6D76" width="47.614" height="2.97"/>
	</g>
	<g>
		<defs>
			<rect id="SVGID_19_" x="-39.669" y="1.664" width="330.667" height="145.334"/>
		</defs>
		<clipPath id="SVGID_20_">
			<use xlink:href="#SVGID_19_"  overflow="visible"/>
		</clipPath>
		<path clip-path="url(#SVGID_20_)" fill="#C0BFBF" d="M66.757,141.729c0,1.363-1.281,2.473-2.857,2.473H17.059
			c-1.576,0-2.857-1.107-2.857-2.473c0-1.371,1.281-2.477,2.857-2.477H63.9C65.476,139.252,66.757,140.357,66.757,141.729z"/>
	</g>
	<g>
		<defs>
			<rect id="SVGID_21_" x="-39.669" y="1.664" width="330.667" height="145.334"/>
		</defs>
		<clipPath id="SVGID_22_">
			<use xlink:href="#SVGID_21_"  overflow="visible"/>
		</clipPath>
		<path clip-path="url(#SVGID_22_)" fill="#5A6D76" d="M15.834,188.41c-0.142,0.919-1,1.547-1.918,1.404
			c-0.917-0.143-1.543-0.998-1.403-1.916l6.292-40.789c0.142-0.916,0.999-1.545,1.918-1.404c0.916,0.141,1.546,1.001,1.403,1.914
			L15.834,188.41z"/>
	</g>
	<g>
		<defs>
			<rect id="SVGID_23_" x="-39.669" y="1.664" width="330.667" height="145.334"/>
		</defs>
		<clipPath id="SVGID_24_">
			<use xlink:href="#SVGID_23_"  overflow="visible"/>
		</clipPath>
		<path clip-path="url(#SVGID_24_)" fill="#5A6D76" d="M64.37,188.41c0.144,0.919,1,1.547,1.917,1.404
			c0.918-0.143,1.542-0.998,1.402-1.916l-6.29-40.789c-0.144-0.916-0.999-1.545-1.916-1.404s-1.545,1.001-1.404,1.914L64.37,188.41z
			"/>
	</g>
	<g>
		<defs>
			<rect id="SVGID_25_" x="-39.669" y="1.664" width="330.667" height="145.334"/>
		</defs>
		<clipPath id="SVGID_26_">
			<use xlink:href="#SVGID_25_"  overflow="visible"/>
		</clipPath>
		<path clip-path="url(#SVGID_26_)" fill="#3A2316" d="M217.838,72.059h6.495c2.133,0,3.864-1.73,3.864-3.865v-13.91h-10.359V72.059
			z"/>
		<path clip-path="url(#SVGID_26_)" fill="#F69320" d="M208.963,139.291c-0.285-0.854-0.132-2.182,0.342-2.95l0.914-1.483
			c0.475-0.769,1.768-5.479,1.768-5.479l4.076,1.181c0,0,0.138,1.725,0.252,4.43c0.039,0.902-0.041,2.232-0.508,3.002l-0.187,0.303
			c-0.466,0.771-1.003,2.125-1.192,3.006L208.963,139.291z"/>
		<path clip-path="url(#SVGID_26_)" fill="#038CC0" d="M221.17,132.439c0,0,0.635-10.068,1.082-20.168
			c0.467-10.092,0.766-20.205,0.766-20.205c0.123-4.213-1.401-7.808-3.396-8.028c-1.995-0.22-3.704,2.937-3.822,7.038
			c0,0-0.292,9.889-0.747,19.73c-0.436,9.853-1.054,19.644-1.054,19.644L221.17,132.439z"/>
		<path clip-path="url(#SVGID_26_)" fill="#F69320" d="M215.124,140.371c-0.073,0.988-0.933,1.732-1.925,1.66l-2.814-0.205
			c-0.988-0.075-1.732-0.934-1.658-1.924c0.071-0.99,0.934-1.733,1.922-1.66l2.816,0.205
			C214.455,138.521,215.195,139.383,215.124,140.371z"/>
		<path clip-path="url(#SVGID_26_)" fill="#010101" d="M191.521,183.535l0.816-48.273c-0.006-1.766,1.982-3.199,4.439-3.203
			l1.979-0.002c2.457-0.004,4.455,1.424,4.46,3.188l-0.813,48.272L191.521,183.535z"/>
		<path clip-path="url(#SVGID_26_)" fill="#3A2316" d="M233.105,66.104c3.334-0.912,8.105-4.389,9.863-7.526
			c1.607,2.52,0.742,6.058-0.576,8.521c-1.338,2.494-3.49,3.222-6.127,3.603c-1.467,0.21-2.91,0.186-4.367-0.042L233.105,66.104z"/>
		<path clip-path="url(#SVGID_26_)" fill="#038CC0" d="M218.428,94.391l1.327-3.936l-0.63-6.256l13.979-6.321l13.979,6.36
			l-4.022,38.428l-21.557,2.232l0.038-16.688l-0.501-4.976C218.469,101.189,217.314,97.686,218.428,94.391z"/>
		<path clip-path="url(#SVGID_26_)" fill="#F9AC8D" d="M234.109,64.714c1.92,0.062,3.422,1.667,3.359,3.584l-0.376,11.623
			c-0.059,1.917-1.663,3.421-3.584,3.356c-1.916-0.062-3.42-1.664-3.356-3.584l0.377-11.617
			C230.589,66.156,232.193,64.652,234.109,64.714z"/>
		<path clip-path="url(#SVGID_26_)" fill="#F9AC8D" d="M225.363,75.559c8.959,0,16.156-6.624,16.137-13.021l-0.031-9.035
			c-0.006-1.999-0.521-3.878-1.421-5.519l-19.825,0.072c-0.791,1.645-1.22,3.527-1.214,5.528c0,0-0.114,8.527,0.039,11.365
			C219.371,70.96,221.236,73.559,225.363,75.559z"/>
		<path clip-path="url(#SVGID_26_)" fill="#F5F5F5" d="M230.311,67.256c-0.302,1.751-1.818,3.081-3.654,3.069
			c-1.831-0.012-3.336-1.356-3.616-3.109L230.311,67.256z"/>
		<path clip-path="url(#SVGID_26_)" fill="#3A2316" d="M226.346,48.201c-2.861,1.496-6.502,5.573-7.443,8.722
			c-2.355-1.991-2.799-4.795-2.112-7.258c0.692-2.494,3.347-4.018,5.683-4.9c1.299-0.49,2.629-0.765,4.012-0.865L226.346,48.201z"/>
		<path clip-path="url(#SVGID_26_)" fill="#5B331E" d="M244.668,60.834c0.813-2.494,1.502-5.107,1.477-6.55
			c-0.1-5.786-4.354-10.491-9.957-11.585c-5.103-0.996-9.887,0.53-14.555,2.417c0.631,1.233,1.331,2.4,1.993,3.615
			c2.692,4.945,7.597,8.704,13.168,10.728l0.003,1.356c0.002,1.102,0.898,1.991,2,1.988h3.318L244.668,60.834z"/>
		<path clip-path="url(#SVGID_26_)" fill="#1D183C" d="M229.704,59.496c0,0.575,0.466,1.043,1.045,1.043
			c0.577,0,1.046-0.468,1.046-1.043c0-0.58-0.469-1.049-1.046-1.049C230.17,58.447,229.704,58.916,229.704,59.496z"/>
		<path clip-path="url(#SVGID_26_)" fill="#1D183C" d="M221.368,59.496c0,0.575,0.466,1.043,1.047,1.043
			c0.577,0,1.041-0.468,1.041-1.043c0-0.58-0.464-1.049-1.041-1.049C221.834,58.447,221.368,58.916,221.368,59.496z"/>
		<path clip-path="url(#SVGID_26_)" fill="#F9AC8D" d="M241.994,58.543c-1.79,0-3.242,1.453-3.242,3.24v3.24h3.242
			c1.79,0,3.238-1.447,3.238-3.24C245.232,59.996,243.784,58.543,241.994,58.543z"/>
		<path clip-path="url(#SVGID_26_)" fill="#010101" d="M208.586,183.506c-1.253-16.076-1.029-32.119-1.586-48.182
			c-0.059-1.762,1.902-3.221,4.374-3.254l1.987-0.026c2.469-0.032,7.365,3.222,7.365,3.222l-1.223,47.834L208.586,183.506z"/>
		<path clip-path="url(#SVGID_26_)" fill="#010101" d="M221.633,133.941c0.002,5.011,3.693,9.072,8.247,9.072h9.022
			c4.555,0,8.291,0.563,8.244-9.072c-0.047-9.633-3.115-14.478-3.115-14.478h-22.398V133.941z"/>
		<path clip-path="url(#SVGID_26_)" fill="#5B331E" d="M235.784,72.059h6.495c2.137,0,3.865-1.73,3.865-3.865v-13.91h-10.36V72.059z
			"/>
		<path clip-path="url(#SVGID_26_)" fill="#010101" d="M247.082,135.331c0,6.883-9.609,10.974-27.135,8.935
			c-14.887-1.729-27.139-2.052-27.139-8.935c0-6.878,12.148-12.454,27.137-12.454S247.082,128.453,247.082,135.331z"/>
		<path clip-path="url(#SVGID_26_)" fill="#038CC0" d="M241.077,89.482c2.414,9.818,4.827,19.639,7.241,29.459
			c1.326,5.396,9.637,3.105,8.311-2.291c-2.413-9.82-4.826-19.639-7.24-29.459C248.063,81.796,239.751,84.085,241.077,89.482z"/>
		<path clip-path="url(#SVGID_26_)" fill="#038CC0" d="M250.337,114.309c-7.202,3.611-14.403,7.223-21.604,10.832
			c-4.971,2.494-0.605,9.928,4.348,7.443c7.202-3.611,14.402-7.223,21.605-10.833C259.654,119.258,255.29,111.824,250.337,114.309z"
			/>
		<polygon clip-path="url(#SVGID_26_)" fill="#FFFFFF" points="225.85,129.354 213.736,132.568 204.492,104.958 216.605,101.746 		
			"/>
		<polygon clip-path="url(#SVGID_26_)" fill="#E7E8E9" points="237.705,126.212 225.596,129.424 216.35,101.813 228.463,98.602 		
			"/>
		<polygon clip-path="url(#SVGID_26_)" fill="#BFBDC1" points="214.811,131.352 214.387,131.463 205.876,106.042 206.299,105.928 		
			"/>
		<polygon clip-path="url(#SVGID_26_)" fill="#BFBDC1" points="227.348,100.348 227.52,100.854 206.127,106.525 205.958,106.02 		
			"/>
		<polygon clip-path="url(#SVGID_26_)" fill="#BFBDC1" points="228.334,103.316 228.504,103.822 207.113,109.495 206.943,108.992 		
			"/>
		<polygon clip-path="url(#SVGID_26_)" fill="#BFBDC1" points="229.357,106.374 229.525,106.881 208.137,112.555 207.967,112.047 		
			"/>
		<polygon clip-path="url(#SVGID_26_)" fill="#BFBDC1" points="230.314,109.232 230.484,109.74 209.094,115.414 208.925,114.906 		
			"/>
		<polygon clip-path="url(#SVGID_26_)" fill="#BFBDC1" points="231.326,112.26 231.495,112.766 210.107,118.438 209.938,117.932 		
			"/>
		<polygon clip-path="url(#SVGID_26_)" fill="#BFBDC1" points="232.32,114.941 232.491,115.45 211.104,121.123 210.932,120.613 		
			"/>
		<polygon clip-path="url(#SVGID_26_)" fill="#BFBDC1" points="233.406,117.988 233.578,118.495 212.189,124.167 212.02,123.662 		
			"/>
		<polygon clip-path="url(#SVGID_26_)" fill="#BFBDC1" points="234.38,120.889 234.549,121.396 213.158,127.066 212.988,126.563 		
			"/>
		<polygon clip-path="url(#SVGID_26_)" fill="#BFBDC1" points="235.229,123.617 235.396,124.124 214.006,129.797 213.836,129.291 		
			"/>
		<ellipse clip-path="url(#SVGID_26_)" fill="#F9AC8D" cx="229.379" cy="129.943" rx="4.51" ry="5.395"/>
	</g>
	<g>
		<defs>
			<rect id="SVGID_27_" x="-39.669" y="1.664" width="330.667" height="145.334"/>
		</defs>
		<clipPath id="SVGID_28_">
			<use xlink:href="#SVGID_27_"  overflow="visible"/>
		</clipPath>
		<path clip-path="url(#SVGID_28_)" fill="#D9D284" d="M99.333,79.868h-8.106c-2.664,0-4.824-2.657-4.824-5.938V52.567h12.931
			L99.333,79.868L99.333,79.868z"/>
		<path clip-path="url(#SVGID_28_)" fill="#010101" d="M107.556,135.581c0.263-0.832,0.121-2.129-0.318-2.88l-0.847-1.448
			c-0.438-0.751-1.638-5.353-1.638-5.353l-3.775,1.152c0,0-0.127,1.684-0.233,4.325c-0.035,0.881,0.037,2.183,0.472,2.933
			l0.171,0.295c0.434,0.754,0.931,2.076,1.107,2.936L107.556,135.581z"/>
		<path clip-path="url(#SVGID_28_)" fill="#7C8E5C" d="M96.246,128.893c0,0-0.589-9.834-1.002-19.693
			c-0.435-9.857-0.71-19.73-0.71-19.73c-0.112-4.115,1.299-7.627,3.145-7.842c1.85-0.215,3.432,2.866,3.543,6.872
			c0,0,0.27,9.657,0.69,19.269c0.405,9.621,0.978,19.184,0.978,19.184L96.246,128.893z"/>
		<path clip-path="url(#SVGID_28_)" fill="#010101" d="M101.848,136.639c0.066,0.967,0.862,1.689,1.782,1.621l2.607-0.201
			c0.916-0.074,1.605-0.91,1.538-1.877c-0.068-0.969-0.866-1.695-1.781-1.623l-2.611,0.201
			C102.466,134.83,101.779,135.673,101.848,136.639z"/>
		<path clip-path="url(#SVGID_28_)" fill="#010101" d="M123.713,178.79l-0.757-47.144c0.005-1.725-1.837-3.123-4.113-3.127
			l-1.831-0.004c-2.277-0.004-4.128,1.393-4.134,3.115l0.755,47.143L123.713,178.79z"/>
		<path clip-path="url(#SVGID_28_)" fill="#3A2316" d="M85.188,64.111c-3.089-0.891-7.511-4.285-9.138-7.35
			c-1.489,2.461-0.688,5.916,0.533,8.32c1.239,2.438,3.233,3.145,5.678,3.52c1.357,0.206,2.695,0.181,4.044-0.041L85.188,64.111z"/>
		<path clip-path="url(#SVGID_28_)" fill="#7C8E5C" d="M98.787,91.734l-1.231-3.842l0.584-6.111l-12.95-6.172l-12.95,6.213
			l3.726,37.523l19.973,2.182l-0.036-16.297l0.463-4.857C98.748,98.375,99.818,94.952,98.787,91.734z"/>
		<path clip-path="url(#SVGID_28_)" fill="#F9AC8D" d="M84.258,62.754c-1.777,0.061-3.171,1.628-3.111,3.501l0.346,11.349
			c0.057,1.873,1.544,3.342,3.322,3.281c1.774-0.061,3.168-1.628,3.109-3.502l-0.348-11.348
			C87.52,64.163,86.032,62.695,84.258,62.754z"/>
		<path clip-path="url(#SVGID_28_)" fill="#F9AC8D" d="M92.36,73.346c-8.299,0-14.97-6.469-14.948-12.718l0.029-8.824
			c0.006-1.952,0.481-3.787,1.314-5.388l18.367,0.071c0.732,1.604,1.129,3.442,1.126,5.395c0,0,0.104,8.329-0.036,11.102
			C97.912,68.853,96.186,71.392,92.36,73.346z"/>
		<path clip-path="url(#SVGID_28_)" fill="#F5F5F5" d="M87.778,65.237c0.279,1.71,1.685,3.007,3.383,2.995
			c1.698-0.009,3.092-1.324,3.354-3.033L87.778,65.237z"/>
		<path clip-path="url(#SVGID_28_)" fill="#D9D284" d="M91.452,46.628c2.648,1.462,6.021,5.442,6.895,8.519
			c2.182-1.946,2.593-4.685,1.958-7.088c-0.646-2.436-3.1-3.925-5.266-4.785c-1.203-0.479-2.436-0.748-3.715-0.845L91.452,46.628z"
			/>
		<path clip-path="url(#SVGID_28_)" fill="#F3EE8F" d="M74.478,58.965c-0.755-2.435-1.394-4.989-1.369-6.397
			c0.093-5.648,4.036-10.243,9.225-11.312c4.728-0.973,9.158,0.518,13.483,2.361c-0.583,1.203-1.233,2.342-1.846,3.529
			c-2.496,4.831-7.036,8.5-12.199,10.476l-0.003,1.324c-0.002,1.076-0.834,1.946-1.854,1.942h-3.073L74.478,58.965z"/>
		<path clip-path="url(#SVGID_28_)" fill="#1D183C" d="M88.338,57.658c0,0.563-0.431,1.019-0.966,1.019
			c-0.534,0-0.97-0.456-0.97-1.019c0-0.566,0.436-1.024,0.97-1.024C87.907,56.634,88.338,57.092,88.338,57.658z"/>
		<path clip-path="url(#SVGID_28_)" fill="#1D183C" d="M96.063,57.658c0,0.563-0.433,1.019-0.971,1.019
			c-0.536,0-0.967-0.456-0.967-1.019c0-0.566,0.431-1.024,0.967-1.024C95.631,56.634,96.063,57.092,96.063,57.658z"/>
		<path clip-path="url(#SVGID_28_)" fill="#F9AC8D" d="M76.955,56.729c1.656,0,3.002,1.417,3.002,3.164v3.164h-3.002
			c-1.66,0-3.002-1.414-3.002-3.164C73.953,58.146,75.295,56.729,76.955,56.729z"/>
		<path clip-path="url(#SVGID_28_)" fill="#010101" d="M107.903,178.76c1.16-15.699,0.954-31.367,1.47-47.051
			c0.053-1.721-1.762-3.146-4.052-3.178l-1.843-0.025c-2.287-0.031-6.823,3.146-6.823,3.146l1.133,46.711L107.903,178.76z"/>
		<path clip-path="url(#SVGID_28_)" fill="#010101" d="M95.816,130.359c0,4.893-3.421,8.857-7.64,8.857h-8.359
			c-4.218,0-7.68,0.551-7.638-8.857c0.042-9.407,2.886-14.137,2.886-14.137h20.751V130.359z"/>
		<path clip-path="url(#SVGID_28_)" fill="#F3EE8F" d="M82.706,80.113h-6.017c-1.978,0-3.581-2.68-3.581-5.991V52.567h9.598V80.113z
			"/>
		<path clip-path="url(#SVGID_28_)" fill="#010101" d="M72.24,131.717c0,6.723,8.903,10.715,25.136,8.725
			c13.792-1.69,25.144-2.002,25.144-8.725c0-6.718-11.256-12.162-25.141-12.162C83.496,119.555,72.24,124.999,72.24,131.717z"/>
		<path clip-path="url(#SVGID_28_)" fill="#7C8E5C" d="M69.798,84.678c-2.235,9.59-4.473,19.18-6.708,28.77
			c-1.262,5.406,7.049,7.703,8.31,2.291c2.236-9.59,4.474-19.18,6.708-28.77C79.368,81.563,71.06,79.268,69.798,84.678z"/>
		<path clip-path="url(#SVGID_28_)" fill="#7C8E5C" d="M65.037,118.542c6.671,3.524,13.343,7.054,20.015,10.578
			c4.909,2.596,9.266-4.845,4.352-7.442c-6.673-3.525-13.345-7.054-20.018-10.58C64.477,108.503,60.121,115.941,65.037,118.542z"/>
		<ellipse clip-path="url(#SVGID_28_)" fill="#F9AC8D" cx="88.64" cy="126.454" rx="4.178" ry="5.269"/>
	</g>
	<g>
		<defs>
			<rect id="SVGID_29_" x="-39.669" y="1.664" width="330.667" height="145.334"/>
		</defs>
		<clipPath id="SVGID_30_">
			<use xlink:href="#SVGID_29_"  overflow="visible"/>
		</clipPath>
		<path clip-path="url(#SVGID_30_)" fill="#95A8AF" d="M46.146,89.057c4.856,7.92,9.711,15.834,14.566,23.75
			c2.899,4.729,10.355,0.401,7.442-4.352c-4.856-7.913-9.712-15.831-14.566-23.746C50.688,79.98,43.232,84.307,46.146,89.057z"/>
		<path clip-path="url(#SVGID_30_)" fill="#95A8AF" d="M64.192,113.773c6.091-0.256,12.182-0.51,18.272-0.766
			c5.537-0.23,5.559-8.852,0-8.619c-6.091,0.256-12.182,0.51-18.272,0.766C58.656,105.387,58.633,114.007,64.192,113.773z"/>
		<ellipse clip-path="url(#SVGID_30_)" fill="#F9AC8D" cx="87.366" cy="109.067" rx="3.388" ry="4.725"/>
		<path clip-path="url(#SVGID_30_)" fill="#675F53" d="M60.582,137.854c0.278-0.854,0.129-2.181-0.33-2.949l-0.885-1.483
			c-0.46-0.769-1.715-5.479-1.715-5.479l-3.951,1.182c0,0-0.132,1.725-0.242,4.428c-0.039,0.902,0.037,2.234,0.491,3.004
			l0.181,0.301c0.451,0.772,0.972,2.127,1.157,3.006L60.582,137.854z"/>
		<path clip-path="url(#SVGID_30_)" fill="#675F53" d="M54.609,138.936c0.072,0.989,0.905,1.73,1.868,1.66l2.728-0.207
			c0.959-0.072,1.68-0.933,1.609-1.922c-0.071-0.992-0.905-1.734-1.866-1.662l-2.729,0.207
			C55.26,137.084,54.542,137.947,54.609,138.936z"/>
		<path clip-path="url(#SVGID_30_)" fill="#675F53" d="M77.489,182.1l-0.791-48.274c0.005-1.767-1.922-3.198-4.306-3.201
			l-1.915-0.004c-2.383-0.003-4.319,1.423-4.324,3.19l0.79,48.271L77.489,182.1z"/>
		<polyline clip-path="url(#SVGID_30_)" fill="#95A8AF" points="52.863,89.333 50.733,82.986 36.101,78.35 22.146,83.15 
			20.168,86.883 24.99,127.941 48.217,125.729 49.18,108.973 		"/>
		<path clip-path="url(#SVGID_30_)" fill="#F5F5F5" d="M39.893,66.711c0.291,1.75,1.762,3.079,3.54,3.067
			c1.776-0.012,3.234-1.355,3.507-3.108L39.893,66.711z"/>
		<path clip-path="url(#SVGID_30_)" fill="#675F53" d="M60.949,182.068c1.214-16.076,0.998-32.119,1.536-48.182
			c0.057-1.762-1.845-3.221-4.238-3.253l-1.929-0.026c-2.394-0.032-7.139,3.223-7.139,3.223l1.187,47.832L60.949,182.068z"/>
		<path clip-path="url(#SVGID_30_)" fill="#675F53" d="M48.303,134.635c-0.002,3.834-3.58,6.943-7.995,6.943h-8.745
			c-4.413,0-8.037,0.432-7.99-6.943c0.043-7.378,3.019-11.087,3.019-11.087h21.712L48.303,134.635L48.303,134.635z"/>
		<path clip-path="url(#SVGID_30_)" fill="#675F53" d="M23.635,133.896c0,6.883,9.315,10.974,26.3,8.935
			c14.431-1.731,26.306-2.052,26.306-8.935c0-6.879-11.775-12.455-26.302-12.455C35.413,121.439,23.635,127.018,23.635,133.896z"/>
		<path clip-path="url(#SVGID_30_)" fill="#BACACD" d="M20.965,89.932c6.266,7.914,12.53,15.832,18.794,23.746
			c3.448,4.357,9.504-1.785,6.095-6.095c-6.266-7.915-12.53-15.83-18.795-23.746C23.61,79.479,17.555,85.622,20.965,89.932z"/>
		<path clip-path="url(#SVGID_30_)" fill="#BACACD" d="M44.359,115.721c7.852,0.361,15.703,0.725,23.555,1.088
			c5.559,0.256,5.533-8.363,0-8.619c-7.852-0.362-15.703-0.726-23.555-1.088C38.8,106.844,38.825,115.466,44.359,115.721z"/>
		<path clip-path="url(#SVGID_30_)" fill="#F9AC8D" d="M68.025,113.376c0,2.608,1.955,4.726,4.37,4.726s4.371-2.115,4.371-4.726
			c0-2.606-1.956-4.724-4.371-4.724S68.025,110.77,68.025,113.376z"/>
		<path clip-path="url(#SVGID_30_)" fill="#F8A586" d="M42.54,79.911l-5.624-0.274c-1.637,0-3.332,0.082-5.043,0.229
			c0.737,2.324,2.913,4.012,5.482,4.012c2.543,0,4.694-1.648,5.456-3.934C42.721,79.932,42.631,79.917,42.54,79.911z"/>
		<path clip-path="url(#SVGID_30_)" fill="#F8A586" d="M36.914,65.977c-1.774,0-3.212,1.439-3.212,3.213v10.75l5.116,3.211
			l1.308-3.211v-10.75C40.126,67.416,38.686,65.977,36.914,65.977z"/>
		<path clip-path="url(#SVGID_30_)" fill="#F8A586" d="M49.866,52.601v13.957c-0.3,3.353-1.894,6.444-4.276,8.56
			c-0.357,0.075-5.709,0.002-5.79,0.002c-5.916,0-10.716-4.799-10.716-10.72V52.601H49.866z"/>
		<path clip-path="url(#SVGID_30_)" fill="#F8A586" d="M27.983,60.711c-1.652,0-2.993,1.338-2.993,2.987
			c0,1.652,1.341,2.992,2.993,2.992h4.864l-0.18-5.979H27.983z"/>
		<path clip-path="url(#SVGID_30_)" fill="#010101" d="M27.309,50.566v1.804l-0.011,0.067v8.297h1.19v2.134
			c0,0.984,0.797,1.781,1.779,1.781c0.981,0,1.776-0.797,1.776-1.781v-1.285c0.238-1.34,1.408-2.359,2.818-2.359V55.7
			c0.239-1.339,1.403-2.354,2.813-2.356v-0.021h12.198c1.961,0,3.575-1.491,3.769-3.408h-4.89l-1.341-5.112H35.742
			c-2.782,0-5.248,1.342-6.795,3.41L27.309,50.566z"/>
		<path clip-path="url(#SVGID_30_)" fill="#11122D" d="M46.67,61.436c-0.5,0-0.902-0.405-0.902-0.907
			c0-0.497,0.402-0.903,0.902-0.903c0.502,0,0.906,0.406,0.906,0.903C47.576,61.03,47.172,61.436,46.67,61.436z"/>
		<path clip-path="url(#SVGID_30_)" fill="#11122D" d="M39.481,61.436c-0.501,0-0.906-0.405-0.906-0.907
			c0-0.497,0.405-0.903,0.906-0.903c0.498,0,0.905,0.406,0.905,0.903C40.387,61.03,39.979,61.436,39.481,61.436z"/>
		<path clip-path="url(#SVGID_30_)" fill="#F5E7E6" d="M39.62,67.48c0,1.908,1.548,3.453,3.457,3.453
			c1.908,0,3.453-1.545,3.453-3.453H39.62z"/>
		<rect x="38.77" y="51.278" clip-path="url(#SVGID_30_)" fill="#010101" width="9.718" height="2.065"/>
		<path clip-path="url(#SVGID_30_)" fill="#010101" d="M27.262,49.531c0-4.301,3.486-7.789,7.784-7.789h7.199
			c4.299,0,7.785,3.488,7.785,7.789v3.813h-1.801v-1.431c0-2.241-1.815-4.057-4.058-4.057h-1.089c-2.242,0-4.058,1.815-4.058,4.057
			v1.431H27.262V49.531z"/>
		<polyline clip-path="url(#SVGID_30_)" fill="#020304" points="27.692,52.063 38.216,52.063 38.216,50.697 27.692,50.697 		"/>
		<path clip-path="url(#SVGID_30_)" fill="#010101" d="M48.071,51.166c2.167-1.251,2.996-3.928,1.987-6.163l-5.396,3.114
			L48.071,51.166z"/>
		<polygon clip-path="url(#SVGID_30_)" fill="#FFFFFF" points="36.945,92.805 36.945,92.805 30.914,80.148 33.409,79 40.126,79 
			42.355,80.148 		"/>
		<polygon clip-path="url(#SVGID_30_)" fill="#010101" points="36.908,80.113 36.908,80.113 34.344,84.186 36.985,86.46 
			39.63,84.186 		"/>
		<polygon clip-path="url(#SVGID_30_)" fill="#010101" points="38.951,88.012 36.945,92.805 34.648,87.881 36.985,84.424 		"/>
		<polygon clip-path="url(#SVGID_30_)" fill="#BACACD" points="36.945,92.805 36.945,92.805 28.025,83.287 30.914,79.868 		"/>
		<polygon clip-path="url(#SVGID_30_)" fill="#BACACD" points="36.945,92.805 36.945,92.805 45.991,83.287 42.54,79.911 		"/>
	</g>
	<g>
		<defs>
			<rect id="SVGID_31_" x="-39.669" y="1.664" width="330.667" height="145.334"/>
		</defs>
		<clipPath id="SVGID_32_">
			<use xlink:href="#SVGID_31_"  overflow="visible"/>
		</clipPath>
		<path clip-path="url(#SVGID_32_)" fill="#C0BFBF" d="M12.746,87.852l-3.408,0.715l-0.009,0.002l-3.406,0.719
			c-0.437,0.092-0.387,2.087,0.112,4.457l10.377,44.434c0.495,2.372,1.252,4.217,1.688,4.125l2.415-0.508h0.009l2.411-0.507
			c0.437-0.093,0.386-2.087-0.112-4.457l-8.386-44.853C13.939,89.604,13.181,87.76,12.746,87.852z"/>
	</g>
	<g>
		<defs>
			<rect id="SVGID_33_" x="-39.669" y="1.664" width="330.667" height="145.334"/>
		</defs>
		<clipPath id="SVGID_34_">
			<use xlink:href="#SVGID_33_"  overflow="visible"/>
		</clipPath>
		<polygon clip-path="url(#SVGID_34_)" fill="#A9A8A8" points="211.521,194.491 211.521,136.329 68.074,136.329 68.074,194.491 
			64.133,194.491 64.133,122.877 215.465,122.877 215.465,194.491 		"/>
	</g>
	<g>
		<defs>
			<rect id="SVGID_35_" x="-39.669" y="1.664" width="330.667" height="145.334"/>
		</defs>
		<clipPath id="SVGID_36_">
			<use xlink:href="#SVGID_35_"  overflow="visible"/>
		</clipPath>
		<rect x="51" y="120" clip-path="url(#SVGID_36_)" fill="#FFFFFF" width="177" height="3"/>
	</g>
	<g>
		<defs>
			<rect id="SVGID_37_" x="-39.669" y="1.664" width="330.667" height="145.334"/>
		</defs>
		<clipPath id="SVGID_38_">
			<use xlink:href="#SVGID_37_"  overflow="visible"/>
		</clipPath>
		<polygon clip-path="url(#SVGID_38_)" fill="#954123" points="101.412,109.607 141.057,109.607 142.988,109.607 178.184,109.607 
			229.262,120.443 142.988,120.443 141.057,120.443 50.334,120.443 		"/>
	</g>
	<g>
		<defs>
			<rect id="SVGID_39_" x="-39.669" y="1.664" width="330.667" height="145.334"/>
		</defs>
		<clipPath id="SVGID_40_">
			<use xlink:href="#SVGID_39_"  overflow="visible"/>
		</clipPath>
		<polygon clip-path="url(#SVGID_40_)" fill="#FFFFFF" points="119.438,108.652 137.564,109.852 123.544,113.012 105.418,111.814 		
			"/>
		<polygon clip-path="url(#SVGID_40_)" fill="#231F20" points="119.438,108.652 119.435,108.701 137.223,109.878 123.54,112.962 
			105.759,111.788 119.449,108.7 119.438,108.652 119.435,108.701 119.438,108.652 119.427,108.604 105.078,111.841 
			123.548,113.062 137.906,109.825 119.434,108.603 119.427,108.604 		"/>
		<polygon clip-path="url(#SVGID_40_)" fill="#3A5160" points="119.038,108.973 135.579,110.066 126.07,112.211 109.53,111.119 		
			"/>
		<polygon clip-path="url(#SVGID_40_)" fill="#FFFFFF" points="119.161,109.027 135.145,110.084 125.942,112.158 109.956,111.102 		
			"/>
		<polygon clip-path="url(#SVGID_40_)" fill="#F16356" points="127.625,111.379 128.086,111.273 126.794,111.189 126.331,111.294 		
			"/>
		<polygon clip-path="url(#SVGID_40_)" fill="#80B3AE" points="125.582,111.838 126.045,111.734 121.641,111.443 121.177,111.55 		
			"/>
		<polygon clip-path="url(#SVGID_40_)" fill="#314D5E" points="126.944,111.533 127.407,111.426 125.607,111.311 125.145,111.414 		
			"/>
		<polygon clip-path="url(#SVGID_40_)" fill="#F89A50" points="126.26,111.688 126.725,111.582 123.581,111.373 123.117,111.479 		
			"/>
		<polygon clip-path="url(#SVGID_40_)" fill="#4A5665" points="121.956,110.688 128.905,111.148 125.166,111.99 124.774,111.965 
			128.301,111.168 121.741,110.736 		"/>
		<path clip-path="url(#SVGID_40_)" fill="#314D5E" d="M126.592,111.141l0.104,0.023c-0.193,0.014-4.745,0.307-7.408,0.184
			l-0.224-0.011l0.735-0.049l0.105,0.022l-0.299,0.02C122.211,111.422,126.547,111.145,126.592,111.141z"/>
		<polygon clip-path="url(#SVGID_40_)" fill="#314D5E" points="119.431,111.328 119.67,111.393 119.47,111.404 119.226,111.338 		
			"/>
		<path clip-path="url(#SVGID_40_)" fill="#F16258" d="M122.125,110c0.825-0.186,2.725-0.253,4.247-0.152
			c1.525,0.1,2.09,0.332,1.265,0.518c-0.821,0.188-2.724,0.256-4.246,0.154C121.867,110.421,121.3,110.188,122.125,110z"/>
		<path clip-path="url(#SVGID_40_)" fill="#81B2AE" d="M118.946,109.792c0.826-0.187,2.729-0.254,4.253-0.155
			c1.522,0.104,2.09,0.334,1.263,0.52c-0.822,0.186-2.726,0.255-4.248,0.154C118.692,110.209,118.127,109.977,118.946,109.792z"/>
		<path clip-path="url(#SVGID_40_)" fill="#3A515F" d="M124.423,110.164c0.502-0.113,0.483-0.244,0.051-0.352
			c-0.978,0.015-1.884,0.082-2.389,0.199c-0.503,0.111-0.486,0.24-0.05,0.35C123.012,110.35,123.92,110.277,124.423,110.164z"/>
		<polygon clip-path="url(#SVGID_40_)" fill="#3A515F" points="132.11,110.625 132.078,110.623 132.188,110.596 132.091,110.59 
			132.105,110.59 132.232,110.594 		"/>
		<path clip-path="url(#SVGID_40_)" fill="#3A515F" d="M131.883,110.587l0.129-0.005l0.031,0.014l-0.128,0.008L131.883,110.587z
			 M132.015,110.594l-0.016-0.009l-0.089,0.005l0.021,0.01L132.015,110.594z"/>
		<polygon clip-path="url(#SVGID_40_)" fill="#3A515F" points="131.828,110.59 131.8,110.594 131.776,110.594 131.791,110.59 
			131.724,110.59 131.719,110.59 131.734,110.587 131.744,110.587 131.805,110.585 131.815,110.582 131.861,110.572 
			131.891,110.572 		"/>
		<path clip-path="url(#SVGID_40_)" fill="#3A515F" d="M131.723,110.574l-0.025-0.012l-0.052-0.002l0.005-0.002l0.063,0.002
			l0.035,0.017l-0.127,0.005l-0.024-0.014h0.008L131.723,110.574z M131.622,110.572l0.015,0.008l0.073-0.003L131.622,110.572z"/>
		<polygon clip-path="url(#SVGID_40_)" fill="#3A515F" points="131.543,110.568 131.522,110.575 131.494,110.572 131.508,110.572 
			131.437,110.572 131.411,110.563 131.378,110.563 131.336,110.563 131.321,110.551 131.371,110.539 131.401,110.54 
			131.351,110.553 131.359,110.561 131.411,110.561 131.422,110.559 131.479,110.546 131.509,110.549 131.452,110.561 
			131.463,110.568 131.515,110.568 131.528,110.564 131.582,110.553 131.61,110.557 		"/>
		<path clip-path="url(#SVGID_40_)" fill="#3A515F" d="M131.103,110.557h0.031l0.007,0.002h-0.029L131.103,110.557z
			 M131.253,110.531l-0.089,0.021l-0.033-0.004l0.089-0.021L131.253,110.531z"/>
		<path clip-path="url(#SVGID_40_)" fill="#3A515F" d="M131.109,110.541l-0.027,0.006l-0.025-0.002l0.013-0.004h-0.003h-0.073
			l-0.025-0.016l0.126-0.006l0.035,0.006l0.05-0.008h0.029L131.109,110.541z M131.104,110.533l0.006-0.002l-0.024-0.008L131,110.527
			l0.018,0.013l0.065-0.003l0.008-0.002L131.104,110.533z"/>
		<polygon clip-path="url(#SVGID_40_)" fill="#3A515F" points="130.963,110.52 130.929,110.512 130.887,110.516 130.9,110.52 
			130.92,110.529 130.835,110.531 130.801,110.527 130.82,110.525 130.847,110.529 130.888,110.527 130.87,110.521 130.856,110.512 
			130.942,110.512 130.985,110.518 		"/>
		<polygon clip-path="url(#SVGID_40_)" fill="#3A515F" points="130.678,110.5 130.7,110.496 130.726,110.496 130.712,110.5 
			130.786,110.5 130.804,110.512 130.751,110.525 130.722,110.523 130.771,110.512 130.764,110.502 130.708,110.502 
			130.694,110.505 130.641,110.52 130.613,110.518 		"/>
		<polygon clip-path="url(#SVGID_40_)" fill="#3A515F" points="130.587,110.508 130.564,110.512 130.54,110.512 130.551,110.508 
			130.482,110.508 130.453,110.499 130.453,110.5 130.423,110.502 130.378,110.5 130.366,110.488 130.417,110.477 130.447,110.479 
			130.396,110.49 130.403,110.498 130.453,110.496 130.467,110.496 130.521,110.482 130.549,110.486 130.495,110.496 
			130.507,110.505 130.561,110.503 130.571,110.502 130.625,110.491 130.654,110.492 		"/>
		<path clip-path="url(#SVGID_40_)" fill="#3A515F" d="M130.021,110.488l0.106-0.025l0.022-0.002h0.026l-0.014,0.002h0.001h0.071
			l0.026,0.018l-0.122,0.006l-0.036-0.006h-0.002l-0.053,0.013L130.021,110.488z M130.128,110.475h-0.006l0.027,0.008l0.081-0.004
			l-0.014-0.012h-0.063l-0.015,0.004L130.128,110.475z"/>
		<path clip-path="url(#SVGID_40_)" fill="#3A515F" d="M129.904,110.457l0.133-0.006l0.03,0.014l-0.128,0.01L129.904,110.457z
			 M130.037,110.463l-0.015-0.009l-0.086,0.007l0.017,0.01L130.037,110.463z"/>
		<polygon clip-path="url(#SVGID_40_)" fill="#3A515F" points="129.782,110.475 129.752,110.471 129.883,110.443 129.913,110.443 		
			"/>
		<path clip-path="url(#SVGID_40_)" fill="#3A515F" d="M129.637,110.439l0.131-0.008l0.031,0.014l-0.127,0.009L129.637,110.439z
			 M129.769,110.445l-0.017-0.01l-0.084,0.006l0.019,0.01L129.769,110.445z"/>
		<polygon clip-path="url(#SVGID_40_)" fill="#3A515F" points="129.583,110.439 129.558,110.445 129.531,110.443 129.547,110.441 
			129.544,110.441 129.478,110.441 129.472,110.441 129.489,110.438 129.499,110.439 129.56,110.436 129.569,110.434 
			129.618,110.425 129.647,110.425 		"/>
		<polygon clip-path="url(#SVGID_40_)" fill="#3A515F" points="129.446,110.416 129.414,110.413 129.366,110.413 129.383,110.421 
			129.402,110.428 129.321,110.43 129.283,110.428 129.304,110.426 129.329,110.428 129.37,110.428 129.354,110.422 
			129.339,110.411 129.427,110.41 129.466,110.414 		"/>
		<path clip-path="url(#SVGID_40_)" fill="#3A515F" d="M129.175,110.428h0.03l0.007,0.002h-0.028L129.175,110.428z M129.324,110.404
			l-0.088,0.021h-0.031l0.091-0.021H129.324z"/>
		<polygon clip-path="url(#SVGID_40_)" fill="#3A515F" points="129.098,110.422 129.119,110.416 129.075,110.413 129.089,110.41 
			129.132,110.413 129.181,110.404 129.176,110.396 129.155,110.396 129.166,110.393 129.196,110.393 129.222,110.398 
			129.209,110.406 129.163,110.416 129.184,110.418 129.172,110.422 129.149,110.421 129.131,110.426 		"/>
		<path clip-path="url(#SVGID_40_)" fill="#3A515F" d="M128.92,110.387l0.021-0.008h0.025l-0.009,0.008h0.001h0.066l0.021,0.008
			h-0.132h-0.001l0.017,0.008l0.049,0.002l-0.003,0.004l-0.062-0.004l-0.024-0.014L128.92,110.387z M128.926,110.391h0.09
			l-0.012-0.004l-0.057,0.002h-0.006L128.926,110.391z"/>
		<polygon clip-path="url(#SVGID_40_)" fill="#3A515F" points="128.83,110.391 128.808,110.396 128.78,110.395 128.794,110.391 
			128.72,110.391 128.697,110.387 128.664,110.387 128.62,110.387 128.606,110.372 128.658,110.359 128.687,110.361 
			128.636,110.373 128.644,110.383 128.698,110.381 128.707,110.379 128.761,110.367 128.791,110.369 128.738,110.381 
			128.748,110.389 128.8,110.389 128.813,110.387 128.868,110.376 128.895,110.376 		"/>
		<path clip-path="url(#SVGID_40_)" fill="#3A515F" d="M128.548,110.363l-0.023-0.008h-0.051l0.005-0.006l0.063,0.006l0.035,0.012
			l-0.123,0.006l-0.026-0.016h0.007L128.548,110.363z M128.449,110.361l0.017,0.011l0.071-0.003L128.449,110.361z"/>
		<polygon clip-path="url(#SVGID_40_)" fill="#3A515F" points="128.286,110.369 128.309,110.363 128.269,110.361 128.281,110.357 
			128.322,110.361 128.373,110.352 128.368,110.344 128.347,110.344 128.359,110.34 128.387,110.34 128.414,110.346 128.4,110.352 
			128.353,110.361 128.378,110.363 128.367,110.367 128.339,110.363 128.321,110.369 		"/>
		<polygon clip-path="url(#SVGID_40_)" fill="#3A515F" points="128.368,110.335 128.303,110.344 128.268,110.341 128.347,110.332 		
			"/>
		<polygon clip-path="url(#SVGID_40_)" fill="#3A515F" points="132.334,110.54 132.391,110.541 132.426,110.559 132.286,110.563 
			132.249,110.559 132.27,110.557 132.299,110.559 132.392,110.557 132.367,110.545 132.329,110.541 		"/>
		<path clip-path="url(#SVGID_40_)" fill="#3A515F" d="M132.11,110.535l0.127-0.004l0.034,0.017l-0.13,0.005L132.11,110.535z
			 M132.239,110.545l-0.016-0.011l-0.083,0.006l0.016,0.01L132.239,110.545z"/>
		<polygon clip-path="url(#SVGID_40_)" fill="#3A515F" points="132.051,110.54 132.03,110.545 132.004,110.541 132.017,110.54 
			132.016,110.54 131.943,110.54 131.923,110.525 131.978,110.514 132.006,110.518 131.954,110.527 131.965,110.535 
			132.023,110.535 132.033,110.534 132.089,110.523 132.12,110.523 		"/>
		<polygon clip-path="url(#SVGID_40_)" fill="#3A515F" points="131.915,110.518 131.883,110.512 131.835,110.512 131.851,110.52 
			131.868,110.527 131.787,110.529 131.752,110.525 131.769,110.523 131.799,110.527 131.838,110.525 131.822,110.52 
			131.806,110.512 131.894,110.51 131.932,110.512 		"/>
		<path clip-path="url(#SVGID_40_)" fill="#3A515F" d="M131.734,110.512l-0.028-0.013l-0.051-0.003h0.01h0.058l0.037,0.016
			l-0.126,0.008l-0.025-0.015l0.007-0.003L131.734,110.512z M131.633,110.508l0.016,0.01l0.072-0.002L131.633,110.508z"/>
		<polygon clip-path="url(#SVGID_40_)" fill="#3A515F" points="131.5,110.482 131.552,110.486 131.592,110.502 131.451,110.508 
			131.414,110.502 131.433,110.5 131.465,110.503 131.558,110.499 131.532,110.488 131.494,110.488 		"/>
		<polygon clip-path="url(#SVGID_40_)" fill="#3A515F" points="131.315,110.502 131.335,110.498 131.293,110.496 131.307,110.493 
			131.349,110.496 131.398,110.486 131.391,110.479 131.374,110.479 131.386,110.475 131.414,110.477 131.437,110.48 
			131.426,110.486 131.376,110.496 131.401,110.499 131.389,110.502 131.364,110.5 131.347,110.503 		"/>
		<path clip-path="url(#SVGID_40_)" fill="#3A515F" d="M131.291,110.482l-0.025-0.012l-0.05-0.002l0.004-0.005l0.063,0.005
			l0.038,0.014l-0.129,0.009l-0.025-0.017h0.012L131.291,110.482z M131.191,110.479l0.017,0.01l0.073-0.006L131.191,110.479z"/>
		<polygon clip-path="url(#SVGID_40_)" fill="#3A515F" points="131.033,110.482 131.054,110.48 131.009,110.477 131.021,110.475 
			131.063,110.477 131.112,110.464 131.108,110.46 131.089,110.46 131.102,110.458 131.13,110.46 131.155,110.46 131.142,110.466 
			131.094,110.479 131.119,110.48 131.106,110.482 131.083,110.482 131.063,110.486 		"/>
		<polygon clip-path="url(#SVGID_40_)" fill="#3A515F" points="130.9,110.451 130.924,110.445 130.953,110.445 130.938,110.449 
			130.94,110.449 131.008,110.449 131.029,110.463 130.976,110.477 130.948,110.475 130.995,110.461 130.988,110.451 
			130.931,110.454 130.921,110.457 130.867,110.467 130.836,110.465 		"/>
		<polygon clip-path="url(#SVGID_40_)" fill="#3A515F" points="130.815,110.457 130.787,110.463 130.765,110.461 130.779,110.459 
			130.714,110.461 130.707,110.459 130.719,110.454 130.731,110.454 130.79,110.451 130.804,110.451 130.848,110.441 
			130.88,110.441 		"/>
		<path clip-path="url(#SVGID_40_)" fill="#3A515F" d="M130.554,110.428l0.021-0.002h0.024l-0.007,0.002h0.002h0.063l0.024,0.01
			h-0.135l0.017,0.008h0.053l-0.005,0.002h-0.064l-0.025-0.012L130.554,110.428z M130.562,110.436h0.088l-0.012-0.006h-0.056h-0.005
			L130.562,110.436z"/>
		<path clip-path="url(#SVGID_40_)" fill="#3A515F" d="M130.254,110.439l0.11-0.026l0.021-0.003h0.024l-0.013,0.003v0.001
			l0.077-0.001l0.02,0.017l-0.12,0.006l-0.038-0.006l-0.053,0.014L130.254,110.439z M130.364,110.426h-0.011l0.028,0.006
			l0.083-0.004l-0.017-0.012l-0.063,0.005h-0.01L130.364,110.426z"/>
		<path clip-path="url(#SVGID_40_)" fill="#3A515F" d="M130.186,110.43h0.031l0.007,0.002l-0.028,0.002L130.186,110.43z
			 M130.336,110.408l-0.091,0.02l-0.028-0.002l0.087-0.021L130.336,110.408z"/>
		<path clip-path="url(#SVGID_40_)" fill="#3A515F" d="M130.195,110.413l-0.027,0.009l-0.028-0.001l0.015-0.005h-0.077l-0.026-0.014
			l0.125-0.01l0.037,0.01l0.049-0.012l0.03,0.002L130.195,110.413z M130.188,110.408l0.007-0.002l-0.026-0.008l-0.085,0.006
			l0.014,0.009l0.066-0.002l0.007-0.001L130.188,110.408z"/>
		<path clip-path="url(#SVGID_40_)" fill="#3A515F" d="M129.91,110.411l0.029-0.001l0.012,0.003l-0.03,0.001L129.91,110.411z
			 M130.061,110.389l-0.091,0.021h-0.03l0.092-0.021H130.061z"/>
		<polygon clip-path="url(#SVGID_40_)" fill="#3A515F" points="129.968,110.389 129.933,110.383 129.89,110.387 129.903,110.391 
			129.924,110.398 129.839,110.4 129.804,110.396 129.825,110.395 129.85,110.398 129.891,110.396 129.873,110.391 129.859,110.383 
			129.948,110.379 129.989,110.387 		"/>
		<polygon clip-path="url(#SVGID_40_)" fill="#3A515F" points="129.725,110.365 129.777,110.369 129.813,110.387 129.677,110.391 
			129.638,110.387 129.659,110.387 129.69,110.389 129.782,110.383 129.759,110.372 129.718,110.372 		"/>
		<path clip-path="url(#SVGID_40_)" fill="#3A515F" d="M129.543,110.389h0.028l0.01,0.002h-0.03L129.543,110.389z M129.69,110.363
			l-0.089,0.021l-0.03-0.003l0.09-0.021L129.69,110.363z"/>
		<polygon clip-path="url(#SVGID_40_)" fill="#3A515F" points="129.546,110.373 129.521,110.379 129.496,110.377 129.512,110.373 
			129.509,110.373 129.439,110.376 129.418,110.361 129.471,110.348 129.503,110.352 129.451,110.361 129.462,110.372 
			129.52,110.372 129.53,110.369 129.586,110.355 129.615,110.357 		"/>
		<path clip-path="url(#SVGID_40_)" fill="#3A515F" d="M129.267,110.339l0.063-0.007h0.073l0.05,0.007l-0.024,0.002l-0.039-0.004
			l-0.084,0.002l-0.012,0.002h0.001h0.068l0.026,0.015l-0.122,0.008l-0.039-0.008l-0.013,0.004l-0.026-0.004l0.026-0.004
			L129.267,110.339z M129.256,110.352l-0.004,0.004l0.024,0.004l0.081-0.004l-0.018-0.012l-0.058,0.002l-0.012,0.002
			L129.256,110.352z"/>
		<path clip-path="url(#SVGID_40_)" fill="#3A515F" d="M129.098,110.337l-0.023-0.01l-0.051-0.005l0.006-0.002l0.062,0.002
			l0.037,0.017l-0.128,0.005l-0.028-0.012l0.011-0.004L129.098,110.337z M128.997,110.335l0.017,0.006l0.074-0.002L128.997,110.335z
			"/>
		<polygon clip-path="url(#SVGID_40_)" fill="#3A515F" points="128.856,110.348 128.824,110.344 128.957,110.316 128.985,110.318 		
			"/>
		<path clip-path="url(#SVGID_40_)" fill="#3A515F" d="M128.754,110.337l0.032-0.002l0.007,0.004h-0.027L128.754,110.337z
			 M128.905,110.313l-0.091,0.021l-0.028-0.002l0.088-0.021L128.905,110.313z"/>
		<polygon clip-path="url(#SVGID_40_)" fill="#3A515F" points="128.675,110.328 128.699,110.322 128.656,110.322 128.667,110.318 
			128.713,110.322 128.759,110.309 128.753,110.303 128.736,110.303 128.746,110.301 128.777,110.301 128.802,110.305 
			128.786,110.313 128.738,110.322 128.764,110.325 128.751,110.328 128.727,110.327 128.708,110.33 		"/>
		<polygon clip-path="url(#SVGID_40_)" fill="#3A515F" points="128.754,110.297 128.688,110.303 128.657,110.303 128.733,110.295 		
			"/>
		<polygon clip-path="url(#SVGID_40_)" fill="#3A515F" points="119.298,110.512 119.267,110.512 119.377,110.486 119.279,110.48 
			119.291,110.479 119.421,110.484 		"/>
		<path clip-path="url(#SVGID_40_)" fill="#3A515F" d="M119.07,110.477l0.129-0.006l0.035,0.016l-0.133,0.007L119.07,110.477z
			 M119.202,110.482l-0.016-0.008l-0.087,0.002l0.017,0.012L119.202,110.482z"/>
		<polygon clip-path="url(#SVGID_40_)" fill="#3A515F" points="119.014,110.479 118.991,110.484 118.963,110.48 118.98,110.479 
			118.978,110.479 118.912,110.48 118.904,110.479 118.918,110.475 118.932,110.477 118.993,110.475 119.003,110.471 
			119.049,110.461 119.078,110.463 		"/>
		<path clip-path="url(#SVGID_40_)" fill="#3A515F" d="M118.909,110.463l-0.024-0.012h-0.053l0.008-0.006l0.061,0.004l0.037,0.016
			l-0.128,0.006l-0.026-0.012l0.01-0.002L118.909,110.463z M118.81,110.461l0.016,0.01l0.072-0.006L118.81,110.461z"/>
		<polygon clip-path="url(#SVGID_40_)" fill="#3A515F" points="118.732,110.461 118.708,110.463 118.682,110.463 118.696,110.461 
			118.693,110.461 118.626,110.461 118.599,110.451 118.567,110.454 118.525,110.451 118.51,110.441 118.562,110.428 
			118.588,110.43 118.541,110.441 118.549,110.449 118.599,110.445 118.61,110.445 118.667,110.436 118.694,110.438 
			118.639,110.445 118.65,110.459 118.704,110.457 118.715,110.454 118.769,110.441 118.799,110.443 		"/>
		<path clip-path="url(#SVGID_40_)" fill="#3A515F" d="M118.29,110.443l0.03-0.002l0.008,0.004h-0.031L118.29,110.443z
			 M118.438,110.421l-0.089,0.021l-0.03-0.002l0.089-0.021L118.438,110.421z"/>
		<path clip-path="url(#SVGID_40_)" fill="#3A515F" d="M118.297,110.428l-0.025,0.008l-0.028-0.002l0.015-0.004h-0.001h-0.076
			l-0.021-0.017l0.118-0.003l0.038,0.004h0.003l0.047-0.01l0.03,0.004L118.297,110.428z M118.291,110.422l0.006-0.001l-0.023-0.01
			l-0.087,0.005l0.018,0.012l0.065-0.002h0.008L118.291,110.422z"/>
		<polygon clip-path="url(#SVGID_40_)" fill="#3A515F" points="118.149,110.406 118.116,110.402 118.073,110.404 118.087,110.408 
			118.106,110.416 118.022,110.421 117.987,110.414 118.008,110.413 118.034,110.416 118.077,110.414 118.061,110.41 
			118.04,110.402 118.131,110.398 118.173,110.404 		"/>
		<polygon clip-path="url(#SVGID_40_)" fill="#3A515F" points="117.864,110.391 117.888,110.387 117.914,110.387 117.9,110.389 
			117.973,110.389 117.993,110.402 117.938,110.414 117.909,110.411 117.958,110.4 117.949,110.391 117.893,110.393 
			117.881,110.395 117.83,110.409 117.799,110.404 		"/>
		<polygon clip-path="url(#SVGID_40_)" fill="#3A515F" points="117.773,110.395 117.75,110.4 117.727,110.4 117.739,110.395 
			117.669,110.395 117.641,110.389 117.609,110.391 117.565,110.389 117.548,110.377 117.603,110.363 117.632,110.365 
			117.583,110.377 117.591,110.389 117.641,110.387 117.654,110.387 117.708,110.372 117.739,110.373 117.684,110.387 
			117.696,110.395 117.75,110.393 117.757,110.391 117.811,110.377 117.841,110.379 		"/>
		<path clip-path="url(#SVGID_40_)" fill="#3A515F" d="M117.206,110.377l0.109-0.021l0.022-0.008l0.026,0.002l-0.014,0.006h0.072
			l0.025,0.013l-0.122,0.006l-0.033-0.006h-0.003l-0.052,0.012L117.206,110.377z M117.315,110.361l-0.006,0.002l0.028,0.009
			l0.08-0.009l-0.014-0.008h-0.065l-0.008,0.002L117.315,110.361z"/>
		<path clip-path="url(#SVGID_40_)" fill="#3A515F" d="M117.095,110.344l0.13-0.005l0.033,0.017l-0.132,0.006L117.095,110.344z
			 M117.226,110.355l-0.016-0.016l-0.084,0.008l0.013,0.01L117.226,110.355z"/>
		<polygon clip-path="url(#SVGID_40_)" fill="#3A515F" points="116.97,110.361 116.938,110.357 117.069,110.33 117.101,110.332 		
			"/>
		<path clip-path="url(#SVGID_40_)" fill="#3A515F" d="M116.825,110.327l0.13-0.005l0.031,0.015l-0.129,0.004L116.825,110.327z
			 M116.956,110.337l-0.013-0.015l-0.086,0.006l0.013,0.011L116.956,110.337z"/>
		<polygon clip-path="url(#SVGID_40_)" fill="#3A515F" points="116.771,110.328 116.742,110.335 116.719,110.332 116.736,110.328 
			116.668,110.33 116.66,110.328 116.676,110.325 116.687,110.327 116.748,110.322 116.758,110.322 116.805,110.313 
			116.835,110.314 		"/>
		<polygon clip-path="url(#SVGID_40_)" fill="#3A515F" points="116.634,110.307 116.601,110.303 116.556,110.303 116.573,110.311 
			116.591,110.318 116.508,110.32 116.471,110.316 116.491,110.314 116.523,110.316 116.557,110.316 116.543,110.311 
			116.525,110.301 116.616,110.3 116.655,110.303 		"/>
		<path clip-path="url(#SVGID_40_)" fill="#3A515F" d="M116.363,110.314h0.03l0.009,0.006h-0.033L116.363,110.314z M116.511,110.293
			l-0.088,0.021l-0.032-0.002l0.09-0.021L116.511,110.293z"/>
		<polygon clip-path="url(#SVGID_40_)" fill="#3A515F" points="116.285,110.311 116.306,110.305 116.263,110.303 116.276,110.3 
			116.32,110.303 116.369,110.293 116.363,110.285 116.342,110.285 116.356,110.283 116.381,110.283 116.409,110.287 
			116.396,110.295 116.345,110.305 116.372,110.307 116.361,110.311 116.337,110.307 116.318,110.313 		"/>
		<path clip-path="url(#SVGID_40_)" fill="#3A515F" d="M116.107,110.271l0.017-0.006l0.029,0.004l-0.007,0.002h0.063l0.026,0.01
			H116.1v0.003l0.015,0.009l0.05,0.001l-0.003,0.002l-0.062-0.002l-0.027-0.013L116.107,110.271z M116.113,110.279l0.091,0.002
			l-0.014-0.008h-0.054l-0.009,0.004L116.113,110.279z"/>
		<polygon clip-path="url(#SVGID_40_)" fill="#3A515F" points="116.016,110.279 115.995,110.285 115.968,110.283 115.982,110.279 
			115.98,110.279 115.912,110.279 115.882,110.27 115.852,110.273 115.807,110.273 115.792,110.262 115.847,110.248 
			115.875,110.251 115.826,110.262 115.831,110.27 115.882,110.268 115.895,110.266 115.949,110.256 115.981,110.257 
			115.927,110.268 115.936,110.277 115.99,110.275 116.003,110.273 116.054,110.264 116.084,110.264 		"/>
		<path clip-path="url(#SVGID_40_)" fill="#3A515F" d="M115.735,110.253l-0.025-0.009l-0.05-0.001l0.01-0.005l0.059,0.002
			l0.035,0.017l-0.126,0.007l-0.026-0.016h0.008L115.735,110.253z M115.636,110.252l0.014,0.008l0.073-0.003L115.636,110.252z"/>
		<polygon clip-path="url(#SVGID_40_)" fill="#3A515F" points="115.476,110.257 115.499,110.252 115.455,110.249 115.467,110.248 
			115.511,110.249 115.56,110.238 115.555,110.23 115.535,110.23 115.544,110.23 115.573,110.23 115.6,110.232 115.589,110.238 
			115.539,110.252 115.566,110.253 115.55,110.257 115.526,110.253 115.509,110.258 		"/>
		<polygon clip-path="url(#SVGID_40_)" fill="#3A515F" points="115.552,110.223 115.49,110.23 115.453,110.23 115.53,110.223 		"/>
		<polygon clip-path="url(#SVGID_40_)" fill="#3A515F" points="119.521,110.428 119.578,110.43 119.611,110.445 119.475,110.45 
			119.438,110.445 119.457,110.445 119.486,110.447 119.581,110.445 119.557,110.432 119.516,110.43 		"/>
		<path clip-path="url(#SVGID_40_)" fill="#3A515F" d="M119.298,110.426l0.13-0.005l0.033,0.015l-0.131,0.008L119.298,110.426z
			 M119.429,110.436l-0.015-0.01l-0.084,0.002l0.012,0.012L119.429,110.436z"/>
		<polygon clip-path="url(#SVGID_40_)" fill="#3A515F" points="119.239,110.428 119.218,110.432 119.191,110.43 119.203,110.428 
			119.13,110.428 119.109,110.414 119.165,110.404 119.193,110.406 119.143,110.416 119.154,110.426 119.21,110.426 
			119.223,110.426 119.276,110.41 119.306,110.411 		"/>
		<polygon clip-path="url(#SVGID_40_)" fill="#3A515F" points="119.102,110.404 119.067,110.4 119.023,110.4 119.039,110.408 
			119.056,110.413 118.975,110.416 118.94,110.413 118.959,110.41 118.986,110.413 119.029,110.413 119.01,110.408 118.995,110.398 
			119.081,110.396 119.122,110.402 		"/>
		<path clip-path="url(#SVGID_40_)" fill="#3A515F" d="M118.922,110.398l-0.026-0.01h-0.053l0.01-0.004l0.06,0.002l0.034,0.016
			l-0.123,0.006l-0.028-0.016l0.01-0.002L118.922,110.398z M118.82,110.395l0.015,0.012l0.072-0.004L118.82,110.395z"/>
		<polygon clip-path="url(#SVGID_40_)" fill="#3A515F" points="118.686,110.372 118.74,110.376 118.778,110.391 118.636,110.395 
			118.603,110.391 118.62,110.389 118.653,110.393 118.749,110.389 118.722,110.377 118.683,110.376 		"/>
		<polygon clip-path="url(#SVGID_40_)" fill="#3A515F" points="118.503,110.393 118.524,110.389 118.481,110.387 118.493,110.381 
			118.536,110.387 118.583,110.373 118.58,110.369 118.56,110.367 118.573,110.363 118.6,110.363 118.624,110.369 118.614,110.376 
			118.564,110.387 118.587,110.389 118.576,110.391 118.551,110.389 118.534,110.393 		"/>
		<path clip-path="url(#SVGID_40_)" fill="#3A515F" d="M118.478,110.372l-0.022-0.015h-0.051l0.007-0.002h0.06l0.034,0.017
			l-0.122,0.005l-0.026-0.014l0.007-0.002L118.478,110.372z M118.38,110.367l0.016,0.009l0.073-0.004L118.38,110.367z"/>
		<polygon clip-path="url(#SVGID_40_)" fill="#3A515F" points="118.221,110.373 118.242,110.369 118.198,110.363 118.212,110.361 
			118.255,110.363 118.304,110.355 118.296,110.348 118.276,110.348 118.291,110.346 118.319,110.348 118.344,110.352 
			118.33,110.355 118.283,110.367 118.308,110.369 118.294,110.372 118.271,110.372 118.253,110.376 		"/>
		<polygon clip-path="url(#SVGID_40_)" fill="#3A515F" points="118.092,110.339 118.113,110.335 118.141,110.337 118.127,110.339 
			118.13,110.339 118.199,110.339 118.219,110.352 118.166,110.365 118.136,110.363 118.185,110.352 118.175,110.341 
			118.122,110.341 118.11,110.344 118.054,110.355 118.026,110.355 		"/>
		<polygon clip-path="url(#SVGID_40_)" fill="#3A515F" points="118.002,110.344 117.977,110.352 117.95,110.35 117.967,110.346 
			117.965,110.346 117.9,110.348 117.894,110.346 117.911,110.341 117.92,110.344 117.983,110.341 117.989,110.339 118.039,110.328 
			118.066,110.332 		"/>
		<path clip-path="url(#SVGID_40_)" fill="#3A515F" d="M117.745,110.314l0.017-0.006l0.027,0.004l-0.009,0.002h0.066l0.021,0.011
			h-0.129l-0.004,0.002l0.016,0.005l0.054,0.003l-0.003,0.002h-0.063l-0.027-0.015L117.745,110.314z M117.748,110.322h0.089
			l-0.015-0.004h-0.05l-0.011,0.002L117.748,110.322z"/>
		<path clip-path="url(#SVGID_40_)" fill="#3A515F" d="M117.441,110.327l0.108-0.024l0.022-0.004l0.028,0.001l-0.016,0.003h0.074
			l0.024,0.016l-0.121,0.006l-0.039-0.006l-0.052,0.013L117.441,110.327z M117.55,110.313l-0.005,0.002l0.025,0.006l0.082-0.004
			l-0.017-0.012l-0.063,0.002l-0.009,0.004L117.55,110.313z"/>
		<path clip-path="url(#SVGID_40_)" fill="#3A515F" d="M117.374,110.318h0.031l0.005,0.002l-0.027,0.002L117.374,110.318z
			 M117.522,110.295l-0.088,0.021l-0.03-0.002l0.089-0.021L117.522,110.295z"/>
		<path clip-path="url(#SVGID_40_)" fill="#3A515F" d="M117.383,110.303l-0.027,0.008h-0.029l0.015-0.006h-0.002h-0.075
			l-0.025-0.015l0.124-0.007l0.039,0.009h0.001l0.046-0.013l0.031,0.002L117.383,110.303z M117.375,110.297l0.008-0.002l-0.027-0.01
			l-0.084,0.008l0.014,0.01l0.065-0.002l0.009-0.001L117.375,110.297z"/>
		<path clip-path="url(#SVGID_40_)" fill="#3A515F" d="M117.099,110.301l0.028-0.001l0.012,0.003h-0.031L117.099,110.301z
			 M117.246,110.277l-0.09,0.02l-0.029-0.002l0.091-0.021L117.246,110.277z"/>
		<polygon clip-path="url(#SVGID_40_)" fill="#3A515F" points="117.155,110.273 117.121,110.27 117.078,110.27 117.092,110.277 
			117.108,110.285 117.027,110.287 116.991,110.285 117.012,110.283 117.04,110.285 117.078,110.285 117.061,110.279 
			117.046,110.27 117.133,110.268 117.175,110.273 		"/>
		<polygon clip-path="url(#SVGID_40_)" fill="#3A515F" points="116.911,110.253 116.962,110.258 117.002,110.275 116.864,110.279 
			116.825,110.275 116.846,110.271 116.875,110.275 116.968,110.271 116.944,110.262 116.904,110.258 		"/>
		<path clip-path="url(#SVGID_40_)" fill="#3A515F" d="M116.73,110.275l0.028-0.002l0.01,0.006h-0.03L116.73,110.275z
			 M116.878,110.252l-0.089,0.02h-0.03l0.09-0.021L116.878,110.252z"/>
		<polygon clip-path="url(#SVGID_40_)" fill="#3A515F" points="116.734,110.264 116.71,110.266 116.683,110.266 116.696,110.264 
			116.694,110.266 116.624,110.266 116.603,110.249 116.657,110.236 116.688,110.238 116.634,110.252 116.648,110.262 
			116.706,110.26 116.718,110.258 116.772,110.246 116.798,110.248 		"/>
		<path clip-path="url(#SVGID_40_)" fill="#3A515F" d="M116.453,110.229l0.065-0.008l0.071,0.002l0.046,0.006l-0.019,0.002
			l-0.041-0.006l-0.086,0.004l-0.01,0.002h0.001h0.067l0.03,0.017l-0.126,0.006l-0.037-0.006v-0.002l-0.013,0.004l-0.027-0.002
			l0.027-0.007L116.453,110.229z M116.442,110.238l-0.004,0.005l0.021,0.005l0.085-0.004l-0.016-0.014l-0.06,0.002l-0.013,0.002
			L116.442,110.238z"/>
		<path clip-path="url(#SVGID_40_)" fill="#3A515F" d="M116.285,110.227l-0.026-0.012l-0.047-0.002l0.005-0.004l0.061,0.004
			l0.035,0.016l-0.127,0.004l-0.024-0.012l0.008-0.004L116.285,110.227z M116.186,110.223l0.016,0.008l0.074-0.002L116.186,110.223z
			"/>
		<polygon clip-path="url(#SVGID_40_)" fill="#3A515F" points="116.041,110.234 116.012,110.23 116.145,110.203 116.172,110.206 		
			"/>
		<path clip-path="url(#SVGID_40_)" fill="#3A515F" d="M115.941,110.225l0.031-0.002l0.008,0.004l-0.028,0.002L115.941,110.225z
			 M116.094,110.2l-0.09,0.021l-0.03-0.005l0.091-0.019L116.094,110.2z"/>
		<polygon clip-path="url(#SVGID_40_)" fill="#3A515F" points="115.864,110.217 115.886,110.213 115.844,110.209 115.856,110.208 
			115.899,110.209 115.946,110.197 115.941,110.193 115.924,110.193 115.933,110.189 115.962,110.191 115.988,110.193 
			115.977,110.2 115.928,110.213 115.952,110.213 115.938,110.217 115.915,110.215 115.897,110.217 		"/>
		<polygon clip-path="url(#SVGID_40_)" fill="#3A515F" points="115.941,110.184 115.877,110.193 115.841,110.193 115.919,110.184 		
			"/>
		<polygon clip-path="url(#SVGID_40_)" fill="#3A515F" points="117.454,112.361 117.43,112.359 117.524,112.339 117.44,112.333 
			117.451,112.33 117.561,112.337 		"/>
		<path clip-path="url(#SVGID_40_)" fill="#3A515F" d="M117.264,112.329l0.11-0.005l0.027,0.016l-0.111,0.002L117.264,112.329z
			 M117.375,112.336l-0.016-0.01l-0.074,0.005l0.018,0.009L117.375,112.336z"/>
		<polygon clip-path="url(#SVGID_40_)" fill="#3A515F" points="117.214,112.331 117.192,112.336 117.17,112.336 117.184,112.331 
			117.127,112.333 117.122,112.331 117.134,112.329 117.141,112.329 117.196,112.326 117.203,112.325 117.245,112.316 
			117.268,112.318 		"/>
		<path clip-path="url(#SVGID_40_)" fill="#3A515F" d="M117.126,112.32l-0.022-0.012h-0.043l0.005-0.004l0.052,0.004l0.034,0.012
			l-0.109,0.005l-0.024-0.011l0.009-0.002L117.126,112.32z M117.042,112.316l0.011,0.008l0.063-0.004L117.042,112.316z"/>
		<polygon clip-path="url(#SVGID_40_)" fill="#3A515F" points="116.973,112.314 116.953,112.32 116.932,112.318 116.944,112.314 
			116.884,112.314 116.858,112.309 116.833,112.311 116.798,112.309 116.784,112.3 116.83,112.288 116.852,112.29 116.808,112.3 
			116.815,112.309 116.858,112.309 116.868,112.305 116.916,112.295 116.944,112.295 116.896,112.309 116.905,112.314 
			116.951,112.313 116.959,112.313 117.003,112.3 117.03,112.305 		"/>
		<path clip-path="url(#SVGID_40_)" fill="#3A515F" d="M116.598,112.305l0.022-0.002l0.009,0.004h-0.022L116.598,112.305z
			 M116.724,112.281l-0.077,0.02h-0.026l0.078-0.021L116.724,112.281z"/>
		<path clip-path="url(#SVGID_40_)" fill="#3A515F" d="M116.603,112.289l-0.02,0.007h-0.027l0.017-0.005h-0.002h-0.063l-0.025-0.014
			l0.107-0.004l0.029,0.004h0.002l0.041-0.008h0.026L116.603,112.289z M116.601,112.284l0.002-0.003l-0.02-0.006l-0.073,0.004
			l0.013,0.01l0.058-0.003h0.004L116.601,112.284z"/>
		<polygon clip-path="url(#SVGID_40_)" fill="#3A515F" points="116.478,112.27 116.449,112.268 116.411,112.27 116.425,112.273 
			116.44,112.281 116.371,112.281 116.341,112.277 116.358,112.277 116.382,112.281 116.415,112.277 116.404,112.273 
			116.386,112.268 116.461,112.264 116.496,112.27 		"/>
		<polygon clip-path="url(#SVGID_40_)" fill="#3A515F" points="116.236,112.257 116.255,112.252 116.277,112.252 116.265,112.256 
			116.268,112.256 116.328,112.256 116.342,112.268 116.298,112.277 116.272,112.277 116.317,112.266 116.311,112.26 
			116.261,112.26 116.254,112.26 116.204,112.27 116.18,112.27 		"/>
		<polygon clip-path="url(#SVGID_40_)" fill="#3A515F" points="116.156,112.262 116.137,112.268 116.115,112.264 116.124,112.262 
			116.066,112.264 116.044,112.256 116.018,112.257 115.981,112.256 115.967,112.246 116.014,112.234 116.037,112.236 
			115.995,112.248 116.001,112.256 116.043,112.252 116.054,112.252 116.1,112.243 116.124,112.243 116.081,112.252 116.088,112.26 
			116.134,112.26 116.145,112.26 116.189,112.248 116.214,112.248 		"/>
		<path clip-path="url(#SVGID_40_)" fill="#3A515F" d="M115.672,112.246l0.097-0.021l0.019-0.004l0.018,0.004h-0.009h0.002h0.063
			l0.021,0.014l-0.105,0.006l-0.03-0.006h-0.002l-0.042,0.011L115.672,112.246z M115.769,112.234h-0.005l0.019,0.006l0.074-0.004
			l-0.016-0.012l-0.052,0.004h-0.007L115.769,112.234z"/>
		<path clip-path="url(#SVGID_40_)" fill="#3A515F" d="M115.576,112.219l0.112-0.005l0.028,0.011l-0.109,0.006L115.576,112.219z
			 M115.688,112.225l-0.012-0.009l-0.071,0.005l0.011,0.008L115.688,112.225z"/>
		<polygon clip-path="url(#SVGID_40_)" fill="#3A515F" points="115.472,112.234 115.446,112.23 115.56,112.203 115.583,112.207 		
			"/>
		<path clip-path="url(#SVGID_40_)" fill="#3A515F" d="M115.348,112.202l0.111-0.003l0.028,0.012l-0.108,0.005L115.348,112.202z
			 M115.459,112.211l-0.012-0.009l-0.07,0.001l0.011,0.013L115.459,112.211z"/>
		<polygon clip-path="url(#SVGID_40_)" fill="#3A515F" points="115.305,112.203 115.282,112.211 115.257,112.208 115.272,112.203 
			115.215,112.203 115.209,112.203 115.222,112.202 115.232,112.202 115.283,112.202 115.29,112.199 115.329,112.191 
			115.357,112.193 		"/>
		<polygon clip-path="url(#SVGID_40_)" fill="#3A515F" points="115.188,112.186 115.158,112.182 115.121,112.182 115.133,112.189 
			115.148,112.193 115.077,112.197 115.05,112.193 115.066,112.193 115.089,112.193 115.124,112.193 115.109,112.189 
			115.096,112.182 115.169,112.182 115.204,112.182 		"/>
		<path clip-path="url(#SVGID_40_)" fill="#3A515F" d="M114.954,112.193h0.025l0.008,0.004h-0.025L114.954,112.193z
			 M115.082,112.174l-0.074,0.02l-0.028-0.004l0.078-0.018L115.082,112.174z"/>
		<polygon clip-path="url(#SVGID_40_)" fill="#3A515F" points="114.889,112.189 114.907,112.186 114.872,112.182 114.883,112.18 
			114.919,112.182 114.96,112.173 114.955,112.169 114.937,112.166 114.948,112.164 114.971,112.164 114.994,112.169 
			114.983,112.173 114.94,112.186 114.961,112.186 114.95,112.189 114.93,112.186 114.916,112.189 		"/>
		<path clip-path="url(#SVGID_40_)" fill="#3A515F" d="M114.737,112.158l0.019-0.006l0.023,0.002l-0.008,0.002l0.054,0.002
			l0.021,0.006l-0.112,0.001l0.012,0.007l0.041,0.002l-0.003,0.001l-0.05-0.001l-0.023-0.012L114.737,112.158z M114.741,112.162
			h0.075l-0.009-0.004h-0.046l-0.005,0.003L114.741,112.162z"/>
		<polygon clip-path="url(#SVGID_40_)" fill="#3A515F" points="114.659,112.162 114.641,112.167 114.619,112.165 114.629,112.162 
			114.568,112.162 114.545,112.158 114.518,112.158 114.482,112.158 114.466,112.146 114.515,112.137 114.538,112.139 
			114.493,112.148 114.503,112.154 114.547,112.154 114.555,112.152 114.602,112.143 114.625,112.145 114.582,112.154 
			114.591,112.162 114.635,112.161 114.644,112.158 114.69,112.148 114.716,112.15 		"/>
		<path clip-path="url(#SVGID_40_)" fill="#3A515F" d="M114.421,112.141l-0.021-0.009l-0.042-0.002l0.005-0.002l0.052,0.001
			l0.028,0.016l-0.105,0.004l-0.022-0.012l0.009-0.002L114.421,112.141z M114.337,112.141l0.013,0.006l0.063-0.002L114.337,112.141z
			"/>
		<polygon clip-path="url(#SVGID_40_)" fill="#3A515F" points="114.199,112.145 114.219,112.141 114.183,112.139 114.193,112.135 
			114.228,112.139 114.272,112.128 114.267,112.123 114.253,112.122 114.258,112.12 114.283,112.122 114.306,112.125 
			114.296,112.129 114.253,112.141 114.276,112.141 114.265,112.145 114.242,112.141 114.226,112.145 		"/>
		<polygon clip-path="url(#SVGID_40_)" fill="#3A515F" points="114.267,112.113 114.211,112.122 114.183,112.12 114.247,112.113 		
			"/>
		<polygon clip-path="url(#SVGID_40_)" fill="#3A515F" points="117.647,112.289 117.692,112.291 117.723,112.305 117.604,112.309 
			117.576,112.307 117.591,112.305 117.617,112.307 117.697,112.305 117.676,112.293 117.64,112.291 		"/>
		<path clip-path="url(#SVGID_40_)" fill="#3A515F" d="M117.454,112.286l0.114-0.005l0.025,0.015l-0.111,0.005L117.454,112.286z
			 M117.568,112.296l-0.014-0.01l-0.072,0.003l0.013,0.009L117.568,112.296z"/>
		<polygon clip-path="url(#SVGID_40_)" fill="#3A515F" points="117.408,112.289 117.386,112.293 117.365,112.291 117.376,112.289 
			117.312,112.289 117.298,112.277 117.342,112.27 117.368,112.27 117.325,112.279 117.335,112.286 117.384,112.286 
			117.391,112.286 117.438,112.273 117.461,112.275 		"/>
		<polygon clip-path="url(#SVGID_40_)" fill="#3A515F" points="117.29,112.27 117.264,112.266 117.223,112.268 117.236,112.27 
			117.25,112.277 117.179,112.281 117.151,112.277 117.168,112.275 117.192,112.277 117.226,112.277 117.211,112.273 
			117.196,112.264 117.272,112.264 117.307,112.268 		"/>
		<path clip-path="url(#SVGID_40_)" fill="#3A515F" d="M117.134,112.264l-0.022-0.008l-0.043-0.004h0.009h0.049l0.03,0.016
			l-0.107,0.006l-0.021-0.014h0.006L117.134,112.264z M117.049,112.264l0.013,0.006l0.062-0.002L117.049,112.264z"/>
		<polygon clip-path="url(#SVGID_40_)" fill="#3A515F" points="116.938,112.243 116.98,112.243 117.012,112.257 116.896,112.262 
			116.863,112.26 116.879,112.256 116.909,112.26 116.984,112.256 116.963,112.246 116.928,112.246 		"/>
		<polygon clip-path="url(#SVGID_40_)" fill="#3A515F" points="116.776,112.26 116.797,112.256 116.762,112.252 116.771,112.251 
			116.808,112.252 116.849,112.243 116.844,112.238 116.829,112.236 116.836,112.234 116.862,112.234 116.883,112.238 
			116.873,112.246 116.831,112.252 116.853,112.256 116.842,112.257 116.821,112.256 116.806,112.26 		"/>
		<path clip-path="url(#SVGID_40_)" fill="#3A515F" d="M116.759,112.24l-0.021-0.01l-0.045-0.002l0.005-0.004l0.057,0.004
			l0.028,0.015l-0.109,0.005l-0.021-0.014h0.008L116.759,112.24z M116.674,112.236l0.012,0.01l0.064-0.003L116.674,112.236z"/>
		<polygon clip-path="url(#SVGID_40_)" fill="#3A515F" points="116.537,112.243 116.554,112.238 116.519,112.236 116.53,112.234 
			116.566,112.236 116.608,112.225 116.603,112.223 116.586,112.221 116.596,112.219 116.62,112.221 116.646,112.223 
			116.632,112.229 116.593,112.238 116.614,112.238 116.601,112.243 116.581,112.24 116.565,112.243 		"/>
		<polygon clip-path="url(#SVGID_40_)" fill="#3A515F" points="116.426,112.216 116.447,112.211 116.47,112.211 116.457,112.214 
			116.46,112.214 116.522,112.214 116.538,112.225 116.491,112.236 116.466,112.234 116.508,112.225 116.501,112.216 
			116.454,112.216 116.444,112.216 116.4,112.229 116.374,112.225 		"/>
		<polygon clip-path="url(#SVGID_40_)" fill="#3A515F" points="116.355,112.219 116.328,112.225 116.307,112.225 116.325,112.219 
			116.266,112.221 116.259,112.219 116.271,112.216 116.278,112.216 116.332,112.216 116.342,112.214 116.379,112.203 
			116.407,112.207 		"/>
		<path clip-path="url(#SVGID_40_)" fill="#3A515F" d="M116.131,112.193l0.018-0.004l0.021,0.002l-0.006,0.002h0.056l0.02,0.009
			h-0.114l0.014,0.009h0.044h-0.002h-0.056l-0.022-0.012L116.131,112.193z M116.137,112.199h0.076l-0.012-0.006l-0.048,0.002
			l-0.005,0.002L116.137,112.199z"/>
		<path clip-path="url(#SVGID_40_)" fill="#3A515F" d="M115.875,112.203l0.092-0.021l0.017-0.002l0.024,0.002h-0.011h0.063
			l0.021,0.014l-0.105,0.008l-0.029-0.008l-0.05,0.009L115.875,112.203L115.875,112.203z M115.967,112.191l-0.005,0.002l0.021,0.006
			l0.074-0.006l-0.015-0.008h-0.057l-0.008,0.002L115.967,112.191z"/>
		<path clip-path="url(#SVGID_40_)" fill="#3A515F" d="M115.817,112.195l0.023-0.002l0.009,0.006h-0.025L115.817,112.195z
			 M115.941,112.175l-0.077,0.019h-0.023l0.078-0.02L115.941,112.175z"/>
		<path clip-path="url(#SVGID_40_)" fill="#3A515F" d="M115.824,112.182l-0.023,0.008l-0.023-0.002l0.013-0.002h-0.001h-0.067
			l-0.019-0.014l0.106-0.007l0.031,0.007l0.039-0.01l0.026,0.002L115.824,112.182z M115.82,112.175h0.004l-0.022-0.005l-0.073,0.004
			l0.014,0.008h0.056h0.007L115.82,112.175z"/>
		<path clip-path="url(#SVGID_40_)" fill="#3A515F" d="M115.583,112.182h0.024h0.007h-0.024H115.583z M115.707,112.161l-0.075,0.017
			l-0.024-0.003l0.074-0.017L115.707,112.161z"/>
		<polygon clip-path="url(#SVGID_40_)" fill="#3A515F" points="115.632,112.158 115.603,112.156 115.565,112.156 115.574,112.162 
			115.591,112.17 115.522,112.172 115.492,112.167 115.508,112.165 115.532,112.17 115.567,112.167 115.553,112.162 
			115.538,112.154 115.614,112.152 115.647,112.158 		"/>
		<polygon clip-path="url(#SVGID_40_)" fill="#3A515F" points="115.423,112.145 115.467,112.145 115.499,112.159 115.383,112.163 
			115.352,112.159 115.367,112.158 115.393,112.159 115.471,112.156 115.452,112.146 115.417,112.145 		"/>
		<path clip-path="url(#SVGID_40_)" fill="#3A515F" d="M115.27,112.161l0.024-0.003l0.007,0.004h-0.023L115.27,112.161z
			 M115.396,112.141l-0.076,0.019l-0.028-0.005l0.077-0.016L115.396,112.141z"/>
		<polygon clip-path="url(#SVGID_40_)" fill="#3A515F" points="115.271,112.148 115.253,112.152 115.23,112.15 115.241,112.148 
			115.24,112.148 115.179,112.148 115.162,112.137 115.208,112.127 115.232,112.128 115.188,112.139 115.197,112.145 
			115.246,112.145 115.254,112.145 115.301,112.132 115.327,112.137 		"/>
		<path clip-path="url(#SVGID_40_)" fill="#3A515F" d="M115.033,112.119l0.059-0.006h0.058l0.039,0.005l-0.017,0.002l-0.034-0.005
			l-0.073,0.004l-0.007,0.003h0.057l0.021,0.011l-0.102,0.008l-0.032-0.009l-0.011,0.005l-0.024-0.004l0.023-0.004L115.033,112.119z
			 M115.024,112.129l-0.007,0.001l0.021,0.007l0.073-0.005l-0.016-0.009l-0.049,0.002l-0.009,0.003L115.024,112.129z"/>
		<path clip-path="url(#SVGID_40_)" fill="#3A515F" d="M114.889,112.115l-0.02-0.008l-0.044-0.004h0.006h0.052l0.03,0.015
			l-0.105,0.007l-0.024-0.014l0.008-0.002L114.889,112.115z M114.808,112.113l0.009,0.009l0.065-0.003L114.808,112.113z"/>
		<polygon clip-path="url(#SVGID_40_)" fill="#3A515F" points="114.684,112.128 114.658,112.125 114.77,112.098 114.791,112.102 		
			"/>
		<path clip-path="url(#SVGID_40_)" fill="#3A515F" d="M114.598,112.113h0.027l0.005,0.005h-0.025L114.598,112.113z
			 M114.724,112.096l-0.072,0.018l-0.028-0.002l0.076-0.018L114.724,112.096z"/>
		<polygon clip-path="url(#SVGID_40_)" fill="#3A515F" points="114.53,112.109 114.548,112.104 114.515,112.104 114.525,112.102 
			114.562,112.104 114.6,112.096 114.597,112.09 114.582,112.089 114.591,112.086 114.616,112.087 114.637,112.09 114.625,112.096 
			114.585,112.104 114.608,112.104 114.596,112.109 114.576,112.107 114.56,112.111 		"/>
		<polygon clip-path="url(#SVGID_40_)" fill="#3A515F" points="114.6,112.08 114.542,112.088 114.512,112.088 114.58,112.08 		"/>
	</g>
	<g>
		<defs>
			<rect id="SVGID_41_" x="-39.669" y="1.664" width="330.667" height="145.334"/>
		</defs>
		<clipPath id="SVGID_42_">
			<use xlink:href="#SVGID_41_"  overflow="visible"/>
		</clipPath>
		<polygon clip-path="url(#SVGID_42_)" fill="#FFFFFF" points="160.467,109.639 143.482,110.132 156.188,113.314 173.172,112.822 		
			"/>
		<polygon clip-path="url(#SVGID_42_)" fill="#231F20" points="160.467,109.639 160.466,109.595 143.163,110.098 156.183,113.359 
			173.494,112.857 160.472,109.594 160.466,109.595 160.467,109.639 160.456,109.682 172.85,112.787 156.192,113.27 
			143.805,110.167 160.468,109.683 160.467,109.639 160.456,109.682 		"/>
	</g>
	<g>
		<defs>
			<rect id="SVGID_43_" x="-39.669" y="1.664" width="330.667" height="145.334"/>
		</defs>
		<clipPath id="SVGID_44_">
			<use xlink:href="#SVGID_43_"  overflow="visible"/>
		</clipPath>
		<polygon clip-path="url(#SVGID_44_)" fill="#FFFFFF" points="156.02,111.475 139.033,111.969 151.736,115.152 168.723,114.658 		
			"/>
		<polygon clip-path="url(#SVGID_44_)" fill="#231F20" points="156.02,111.475 156.019,111.431 138.712,111.934 151.731,115.197 
			169.045,114.693 156.024,111.43 156.019,111.431 156.02,111.475 156.009,111.518 168.4,114.623 151.741,115.107 139.355,112.004 
			156.021,111.519 156.02,111.475 156.009,111.518 		"/>
	</g>
	<g>
		<defs>
			<rect id="SVGID_45_" x="-39.669" y="1.664" width="330.667" height="145.334"/>
		</defs>
		<clipPath id="SVGID_46_">
			<use xlink:href="#SVGID_45_"  overflow="visible"/>
		</clipPath>
		<polygon clip-path="url(#SVGID_46_)" fill="#FFFFFF" points="93.214,113.855 76.229,114.352 88.934,117.534 105.92,117.038 		"/>
		<polygon clip-path="url(#SVGID_46_)" fill="#231F20" points="93.214,113.855 93.212,113.812 75.908,114.316 88.929,117.579 
			106.242,117.073 93.219,113.811 93.212,113.812 93.214,113.855 93.203,113.898 105.598,117.003 88.939,117.489 76.551,114.387 
			93.215,113.899 93.214,113.855 93.203,113.898 		"/>
	</g>
	<g>
		<defs>
			<rect id="SVGID_47_" x="-39.669" y="1.664" width="330.667" height="145.334"/>
		</defs>
		<clipPath id="SVGID_48_">
			<use xlink:href="#SVGID_47_"  overflow="visible"/>
		</clipPath>
		<path clip-path="url(#SVGID_48_)" fill="#151818" d="M162.861,108.354c0,0.732,0.596,1.328,1.332,1.328h21.252
			c0.74,0,1.336-0.596,1.336-1.328c0-0.733-0.596-1.326-1.336-1.326h-21.252C163.457,107.025,162.861,107.619,162.861,108.354z"/>
		<polygon clip-path="url(#SVGID_48_)" fill="#151818" points="163.525,109.602 166.154,108.955 161.688,90.92 160.167,91.291 		"/>
	</g>
	<g>
		<defs>
			<rect id="SVGID_49_" x="-39.669" y="1.664" width="330.667" height="145.334"/>
		</defs>
		<clipPath id="SVGID_50_">
			<use xlink:href="#SVGID_49_"  overflow="visible"/>
		</clipPath>
		<path clip-path="url(#SVGID_50_)" fill="#151818" d="M121.479,108.354c0,0.732-0.597,1.328-1.335,1.328H98.893
			c-0.736,0-1.332-0.596-1.332-1.328c0-0.733,0.596-1.326,1.332-1.326h21.252C120.883,107.025,121.479,107.619,121.479,108.354z"/>
		<polygon clip-path="url(#SVGID_50_)" fill="#151818" points="120.813,109.602 118.184,108.955 122.654,90.92 124.172,91.291 		"/>
	</g>
	<g>
		<defs>
			<rect id="SVGID_51_" x="-39.669" y="1.664" width="330.667" height="145.334"/>
		</defs>
		<clipPath id="SVGID_52_">
			<use xlink:href="#SVGID_51_"  overflow="visible"/>
		</clipPath>
		<path clip-path="url(#SVGID_52_)" fill="#151818" d="M97.968,116.12c0,0.782-0.637,1.415-1.423,1.415H73.891
			c-0.788,0-1.425-0.633-1.425-1.415c0-0.781,0.637-1.414,1.425-1.414h22.654C97.331,114.706,97.968,115.339,97.968,116.12z"/>
		<polygon clip-path="url(#SVGID_52_)" fill="#151818" points="97.257,117.45 94.454,116.764 99.217,97.535 100.839,97.936 		"/>
	</g>
	<g>
		<defs>
			<rect id="SVGID_53_" x="-39.669" y="1.664" width="330.667" height="145.334"/>
		</defs>
		<clipPath id="SVGID_54_">
			<use xlink:href="#SVGID_53_"  overflow="visible"/>
		</clipPath>
		<path clip-path="url(#SVGID_54_)" fill="#151818" d="M171.594,116.096c0,0.781,0.637,1.416,1.422,1.416h22.656
			c0.784,0,1.422-0.635,1.422-1.416s-0.638-1.414-1.422-1.414h-22.656C172.23,114.682,171.594,115.314,171.594,116.096z"/>
		<polygon clip-path="url(#SVGID_54_)" fill="#151818" points="172.303,117.425 175.107,116.736 170.344,97.512 168.723,97.909 		
			"/>
	</g>
</g>
</svg>
