<?xml version="1.0" encoding="utf-8"?>
<!-- Generator: Adobe Illustrator 15.1.0, SVG Export Plug-In . SVG Version: 6.00 Build 0)  -->
<!DOCTYPE svg PUBLIC "-//W3C//DTD SVG 1.1//EN" "http://www.w3.org/Graphics/SVG/1.1/DTD/svg11.dtd">
<svg version="1.1" id="Layer_1" xmlns="http://www.w3.org/2000/svg" xmlns:xlink="http://www.w3.org/1999/xlink" x="0px" y="0px"
	 width="269.75px" height="134.25px" viewBox="1.625 1.75 269.75 134.25" enable-background="new 1.625 1.75 269.75 134.25"
	 xml:space="preserve">
<g>
	<rect x="4.667" y="4.667" fill="#E6E7E8" width="264" height="37.667"/>
	<polygon fill="#808285" points="4.667,4.667 4.667,5.667 267.667,5.667 267.667,41.334 5.667,41.334 5.667,4.667 4.667,4.667 
		4.667,5.667 4.667,4.667 3.667,4.667 3.667,43.334 269.667,43.334 269.667,3.667 3.667,3.667 3.667,4.667 	"/>
	<rect x="4.667" y="40.667" fill="#E6E7E8" width="48.5" height="92.667"/>
	<polygon fill="#808285" points="4.667,40.667 4.667,41.667 52.167,41.667 52.167,132.334 5.667,132.334 5.667,40.667 4.667,40.667 
		4.667,41.667 4.667,40.667 3.667,40.667 3.667,134.334 54.167,134.334 54.167,39.667 3.667,39.667 3.667,40.667 	"/>
	<rect x="53.667" y="40.667" fill="#FFFFFF" width="215" height="92.667"/>
	<polygon fill="#808285" points="53.667,40.667 53.667,41.667 267.667,41.667 267.667,132.334 54.667,132.334 54.667,40.667 
		53.667,40.667 53.667,41.667 53.667,40.667 52.667,40.667 52.667,134.334 269.667,134.334 269.667,39.667 52.667,39.667 
		52.667,40.667 	"/>
	<rect x="5.5" y="42.5" fill="#FFF200" width="261.5" height="5.5"/>
	<polyline fill="#808285" points="52.5,4 52.5,133.5 54.5,133.5 54.5,4 	"/>
	<polyline fill="#808285" points="80,4 80,133.5 82,133.5 82,4 	"/>
	<polyline fill="#808285" points="107,4 107,133.5 109,133.5 109,4 	"/>
	<polyline fill="#808285" points="133.5,4 133.5,133.5 135.5,133.5 135.5,4 	"/>
	<polyline fill="#808285" points="161,4 161,133.5 163,133.5 163,4 	"/>
	<polyline fill="#808285" points="188,4 188,133.5 190,133.5 190,4 	"/>
	<polyline fill="#808285" points="213,4 213,133.5 215,133.5 215,4 	"/>
	<polyline fill="#808285" points="240.5,4 240.5,133.5 242.5,133.5 242.5,4 	"/>
	<polyline fill="#808285" points="4.5,42.5 269,42.5 269,40.5 4.5,40.5 	"/>
	<polyline fill="#808285" points="4.5,49 269,49 269,47 4.5,47 	"/>
	<polyline fill="#808285" points="5,78.5 269.5,78.5 269.5,76.5 5,76.5 	"/>
	<polyline fill="#808285" points="5,107 269.5,107 269.5,105 5,105 	"/>
	<rect x="9.5" y="57" fill="#BCBEC0" width="36" height="9"/>
	<rect x="62.25" y="10.75" fill="#BCBEC0" width="9.5" height="20.5"/>
	<rect x="89.75" y="10.75" fill="#BCBEC0" width="9.5" height="15.5"/>
	<rect x="116.25" y="10.75" fill="#BCBEC0" width="9.5" height="10"/>
	<rect x="142.75" y="10.75" fill="#BCBEC0" width="9.5" height="25.5"/>
	<rect x="171.25" y="10.75" fill="#BCBEC0" width="9.5" height="20.5"/>
	<rect x="196.75" y="10.75" fill="#BCBEC0" width="9.5" height="26"/>
	<rect x="222.25" y="10.75" fill="#BCBEC0" width="9.5" height="20.5"/>
	<rect x="250.25" y="10.75" fill="#BCBEC0" width="9.5" height="14.5"/>
	<rect x="9.5" y="87" fill="#BCBEC0" width="24.5" height="9"/>
	<rect x="9.5" y="114.5" fill="#BCBEC0" width="36" height="9"/>
	<polygon points="21.408,29.979 18.146,24.733 18.146,29.979 16.071,29.979 16.071,19.129 18.146,19.129 18.146,24.068 
		21.392,19.129 23.857,19.129 20.171,24.301 24.047,29.979 	"/>
	<path d="M32.996,22.582c0,0.564-0.094,1.087-0.282,1.565s-0.468,0.892-0.838,1.241c-0.371,0.348-0.833,0.619-1.386,0.813
		c-0.553,0.194-1.195,0.291-1.926,0.291h-1.038v3.486h-2.059v-10.85h3.179c0.703,0,1.324,0.076,1.863,0.229
		c0.54,0.152,0.994,0.375,1.361,0.668c0.368,0.294,0.647,0.655,0.839,1.084C32.9,21.538,32.996,22.029,32.996,22.582z
		 M30.854,22.724c0-0.288-0.046-0.549-0.137-0.784c-0.092-0.235-0.23-0.436-0.415-0.602c-0.186-0.166-0.419-0.294-0.702-0.383
		c-0.282-0.088-0.617-0.133-1.004-0.133h-1.071v3.977h1.137c0.354,0,0.667-0.049,0.938-0.146c0.271-0.097,0.5-0.236,0.685-0.419
		c0.185-0.183,0.326-0.401,0.423-0.656C30.806,23.324,30.854,23.039,30.854,22.724z"/>
	<polygon points="34.938,20.798 34.938,19.129 41.794,19.129 41.794,20.798 39.403,20.798 39.403,28.293 41.794,28.293 
		41.794,29.979 34.938,29.979 34.938,28.293 37.329,28.293 37.329,20.798 	"/>
	<path d="M69.041,68.979l-1.527-3.485c-0.144-0.332-0.345-0.582-0.602-0.751c-0.258-0.169-0.561-0.253-0.909-0.253h-0.39v4.49
		h-2.042v-10.85h3.163c0.598,0,1.14,0.052,1.627,0.154c0.487,0.102,0.902,0.272,1.245,0.51c0.343,0.238,0.607,0.549,0.793,0.93
		c0.185,0.383,0.278,0.85,0.278,1.403c0,0.398-0.058,0.753-0.174,1.063c-0.116,0.31-0.279,0.577-0.49,0.801
		c-0.21,0.225-0.46,0.405-0.751,0.544c-0.29,0.139-0.607,0.235-0.95,0.291c0.266,0.055,0.509,0.206,0.73,0.452
		s0.443,0.602,0.664,1.066l1.735,3.635H69.041z M68.535,61.325c0-0.531-0.169-0.913-0.506-1.146
		c-0.337-0.233-0.844-0.349-1.519-0.349h-0.896v3.063h0.83c0.315,0,0.602-0.033,0.859-0.1c0.258-0.066,0.478-0.166,0.66-0.299
		c0.182-0.133,0.324-0.298,0.423-0.494C68.485,61.804,68.535,61.58,68.535,61.325z"/>
	<polygon points="63.745,86.548 63.745,84.879 70.601,84.879 70.601,86.548 68.21,86.548 68.21,94.043 70.601,94.043 70.601,95.729 
		63.745,95.729 63.745,94.043 66.136,94.043 66.136,86.548 	"/>
	<polygon points="63.745,114.048 63.745,112.379 70.601,112.379 70.601,114.048 68.21,114.048 68.21,121.543 70.601,121.543 
		70.601,123.229 63.745,123.229 63.745,121.543 66.136,121.543 66.136,114.048 	"/>
	<polygon points="144.245,114.048 144.245,112.379 151.102,112.379 151.102,114.048 148.71,114.048 148.71,121.543 151.102,121.543 
		151.102,123.229 144.245,123.229 144.245,121.543 146.637,121.543 146.637,114.048 	"/>
	<polygon points="172.245,114.048 172.245,112.379 179.102,112.379 179.102,114.048 176.71,114.048 176.71,121.543 179.102,121.543 
		179.102,123.229 172.245,123.229 172.245,121.543 174.637,121.543 174.637,114.048 	"/>
	<polygon points="172.245,58.548 172.245,56.879 179.102,56.879 179.102,58.548 176.71,58.548 176.71,66.043 179.102,66.043 
		179.102,67.729 172.245,67.729 172.245,66.043 174.637,66.043 174.637,58.548 	"/>
	<polygon points="90.745,58.548 90.745,56.879 97.601,56.879 97.601,58.548 95.21,58.548 95.21,66.043 97.601,66.043 97.601,67.729 
		90.745,67.729 90.745,66.043 93.136,66.043 93.136,58.548 	"/>
	<polygon points="116.745,58.548 116.745,56.879 123.601,56.879 123.601,58.548 121.21,58.548 121.21,66.043 123.601,66.043 
		123.601,67.729 116.745,67.729 116.745,66.043 119.136,66.043 119.136,58.548 	"/>
	<path d="M149.541,68.229l-1.527-3.485c-0.145-0.332-0.345-0.582-0.602-0.751c-0.258-0.169-0.561-0.253-0.909-0.253h-0.39v4.49
		h-2.043v-10.85h3.162c0.599,0,1.141,0.052,1.627,0.154c0.488,0.102,0.902,0.272,1.246,0.51s0.606,0.549,0.793,0.93
		c0.186,0.383,0.276,0.85,0.276,1.403c0,0.398-0.058,0.753-0.174,1.063s-0.278,0.577-0.489,0.801
		c-0.211,0.225-0.461,0.405-0.752,0.544c-0.289,0.139-0.605,0.235-0.949,0.291c0.266,0.055,0.51,0.206,0.729,0.452
		s0.442,0.602,0.664,1.066l1.733,3.635H149.541z M149.035,60.575c0-0.531-0.17-0.913-0.508-1.146
		c-0.336-0.233-0.844-0.349-1.519-0.349h-0.896v3.063h0.83c0.313,0,0.602-0.033,0.857-0.1c0.258-0.066,0.479-0.166,0.66-0.299
		c0.182-0.133,0.323-0.298,0.423-0.494C148.984,61.054,149.035,60.83,149.035,60.575z"/>
	<path d="M229.056,97.229l-0.598-2.142h-3.785l-0.614,2.142h-2.025l3.213-10.849h2.855l3.212,10.849H229.056z M226.59,88.373
		l-1.428,5.047h2.84L226.59,88.373z"/>
	<path d="M229.056,67.563l-0.598-2.142h-3.785l-0.614,2.142h-2.025l3.213-10.849h2.855l3.212,10.849H229.056z M226.59,58.706
		l-1.428,5.047h2.84L226.59,58.706z"/>
	<path d="M257,97.14c-0.481,0.193-0.947,0.337-1.398,0.432c-0.451,0.094-0.92,0.141-1.407,0.141c-0.78,0-1.471-0.115-2.071-0.345
		s-1.106-0.571-1.519-1.024c-0.412-0.454-0.726-1.018-0.938-1.689c-0.213-0.673-0.319-1.454-0.319-2.346
		c0-0.912,0.116-1.725,0.349-2.436s0.564-1.312,0.996-1.802c0.432-0.489,0.956-0.863,1.573-1.12c0.617-0.258,1.31-0.387,2.079-0.387
		c0.249,0,0.482,0.006,0.701,0.018c0.219,0.011,0.434,0.031,0.644,0.062s0.423,0.071,0.64,0.12c0.215,0.051,0.439,0.114,0.672,0.191
		v2.025c-0.471-0.222-0.919-0.379-1.345-0.473c-0.426-0.095-0.813-0.142-1.162-0.142c-0.515,0-0.954,0.093-1.319,0.278
		s-0.666,0.445-0.901,0.78s-0.408,0.733-0.519,1.195s-0.166,0.97-0.166,1.522c0,0.587,0.057,1.111,0.17,1.573
		s0.289,0.854,0.527,1.175s0.542,0.565,0.913,0.734s0.811,0.254,1.319,0.254c0.184,0,0.381-0.019,0.594-0.055
		s0.429-0.083,0.647-0.141c0.219-0.059,0.435-0.128,0.647-0.208s0.411-0.161,0.594-0.245V97.14z"/>
	<path d="M257,123.806c-0.481,0.193-0.947,0.337-1.398,0.432c-0.451,0.094-0.92,0.141-1.407,0.141c-0.78,0-1.471-0.115-2.071-0.345
		s-1.106-0.571-1.519-1.024c-0.412-0.454-0.726-1.018-0.938-1.689c-0.213-0.673-0.319-1.454-0.319-2.346
		c0-0.912,0.116-1.725,0.349-2.436s0.564-1.312,0.996-1.802c0.432-0.489,0.956-0.863,1.573-1.12c0.617-0.258,1.31-0.387,2.079-0.387
		c0.249,0,0.482,0.006,0.701,0.018c0.219,0.011,0.434,0.031,0.644,0.062s0.423,0.071,0.64,0.12c0.215,0.051,0.439,0.114,0.672,0.191
		v2.025c-0.471-0.222-0.919-0.379-1.345-0.473c-0.426-0.095-0.813-0.142-1.162-0.142c-0.515,0-0.954,0.093-1.319,0.278
		s-0.666,0.445-0.901,0.78s-0.408,0.733-0.519,1.195s-0.166,0.97-0.166,1.522c0,0.587,0.057,1.111,0.17,1.573
		s0.289,0.854,0.527,1.175s0.542,0.565,0.913,0.734s0.811,0.254,1.319,0.254c0.184,0,0.381-0.019,0.594-0.055
		s0.429-0.083,0.647-0.141c0.219-0.059,0.435-0.128,0.647-0.208s0.411-0.161,0.594-0.245V123.806z"/>
	<path d="M123.666,123.806c-0.481,0.193-0.947,0.337-1.398,0.432c-0.451,0.094-0.92,0.141-1.407,0.141
		c-0.78,0-1.471-0.115-2.071-0.345s-1.106-0.571-1.519-1.024c-0.412-0.454-0.726-1.018-0.938-1.689
		c-0.213-0.673-0.319-1.454-0.319-2.346c0-0.912,0.116-1.725,0.349-2.436s0.564-1.312,0.996-1.802
		c0.432-0.489,0.956-0.863,1.573-1.12c0.617-0.258,1.31-0.387,2.079-0.387c0.249,0,0.482,0.006,0.701,0.018
		c0.219,0.011,0.434,0.031,0.644,0.062s0.423,0.071,0.64,0.12c0.215,0.051,0.439,0.114,0.672,0.191v2.025
		c-0.471-0.222-0.919-0.379-1.345-0.473c-0.426-0.095-0.813-0.142-1.162-0.142c-0.515,0-0.954,0.093-1.319,0.278
		s-0.666,0.445-0.901,0.78s-0.408,0.733-0.519,1.195s-0.166,0.97-0.166,1.522c0,0.587,0.057,1.111,0.17,1.573
		s0.289,0.854,0.527,1.175s0.542,0.565,0.913,0.734s0.811,0.254,1.319,0.254c0.184,0,0.381-0.019,0.594-0.055
		s0.429-0.083,0.647-0.141c0.219-0.059,0.435-0.128,0.647-0.208s0.411-0.161,0.594-0.245V123.806z"/>
	<path d="M203.666,67.139c-0.48,0.193-0.947,0.337-1.398,0.432c-0.451,0.094-0.92,0.141-1.406,0.141
		c-0.781,0-1.471-0.115-2.072-0.345c-0.6-0.229-1.105-0.571-1.518-1.024c-0.412-0.454-0.727-1.018-0.939-1.689
		c-0.213-0.673-0.318-1.454-0.318-2.346c0-0.912,0.115-1.725,0.348-2.436s0.564-1.312,0.996-1.802
		c0.432-0.489,0.957-0.863,1.574-1.12c0.617-0.258,1.309-0.387,2.078-0.387c0.25,0,0.482,0.006,0.701,0.018
		c0.219,0.011,0.434,0.031,0.645,0.062c0.209,0.03,0.422,0.071,0.639,0.12c0.215,0.051,0.439,0.114,0.672,0.191v2.025
		c-0.471-0.222-0.918-0.379-1.344-0.473c-0.426-0.095-0.814-0.142-1.162-0.142c-0.516,0-0.955,0.093-1.32,0.278
		s-0.666,0.445-0.9,0.78c-0.236,0.335-0.408,0.733-0.52,1.195c-0.109,0.462-0.166,0.97-0.166,1.522c0,0.587,0.057,1.111,0.17,1.573
		s0.289,0.854,0.527,1.175s0.543,0.565,0.914,0.734s0.811,0.254,1.318,0.254c0.184,0,0.381-0.019,0.594-0.055
		s0.43-0.083,0.648-0.141c0.219-0.059,0.434-0.128,0.646-0.208s0.412-0.161,0.594-0.245V67.139z"/>
	<path d="M203.389,123.229l-0.598-2.141h-3.785l-0.614,2.141h-2.025l3.213-10.848h2.855l3.212,10.848H203.389z M200.923,114.373
		l-1.428,5.047h2.84L200.923,114.373z"/>
	<path d="M122.722,96.229l-0.598-2.141h-3.785l-0.614,2.141H115.7l3.213-10.848h2.855l3.212,10.848H122.722z M120.256,87.373
		l-1.428,5.047h2.84L120.256,87.373z"/>
	<path d="M202.541,96.729l-1.527-3.485c-0.145-0.332-0.345-0.582-0.602-0.751c-0.258-0.17-0.561-0.254-0.909-0.254h-0.39v4.49
		h-2.043v-10.85h3.162c0.599,0,1.141,0.053,1.627,0.154c0.488,0.102,0.902,0.271,1.246,0.51s0.606,0.549,0.793,0.93
		c0.186,0.383,0.276,0.85,0.276,1.403c0,0.397-0.058,0.753-0.174,1.063c-0.116,0.31-0.278,0.576-0.489,0.801
		s-0.461,0.404-0.752,0.544c-0.289,0.139-0.605,0.235-0.949,0.291c0.266,0.055,0.51,0.206,0.729,0.452s0.442,0.602,0.664,1.066
		l1.733,3.635H202.541z M202.035,89.075c0-0.531-0.17-0.913-0.508-1.146c-0.336-0.234-0.844-0.35-1.519-0.35h-0.896v3.063h0.83
		c0.313,0,0.602-0.033,0.857-0.1c0.258-0.066,0.479-0.166,0.66-0.299s0.323-0.299,0.424-0.494
		C201.984,89.555,202.035,89.33,202.035,89.075z"/>
	<path d="M177.041,96.729l-1.527-3.485c-0.145-0.332-0.345-0.582-0.602-0.751c-0.258-0.17-0.561-0.254-0.909-0.254h-0.39v4.49
		h-2.043v-10.85h3.162c0.599,0,1.141,0.053,1.627,0.154c0.488,0.102,0.902,0.271,1.246,0.51s0.606,0.549,0.793,0.93
		c0.186,0.383,0.276,0.85,0.276,1.403c0,0.397-0.058,0.753-0.174,1.063c-0.116,0.31-0.278,0.576-0.489,0.801
		s-0.461,0.404-0.752,0.544c-0.289,0.139-0.605,0.235-0.949,0.291c0.266,0.055,0.51,0.206,0.729,0.452s0.442,0.602,0.664,1.066
		l1.733,3.635H177.041z M176.535,89.075c0-0.531-0.17-0.913-0.508-1.146c-0.336-0.234-0.844-0.35-1.519-0.35h-0.896v3.063h0.83
		c0.313,0,0.602-0.033,0.857-0.1c0.258-0.066,0.479-0.166,0.66-0.299s0.323-0.299,0.424-0.494
		C176.484,89.555,176.535,89.33,176.535,89.075z"/>
	<path d="M96.541,96.729l-1.527-3.485c-0.144-0.332-0.345-0.582-0.602-0.751c-0.258-0.17-0.561-0.254-0.909-0.254h-0.39v4.49h-2.042
		v-10.85h3.163c0.598,0,1.14,0.053,1.627,0.154c0.487,0.102,0.902,0.271,1.245,0.51c0.343,0.238,0.607,0.549,0.793,0.93
		c0.185,0.383,0.278,0.85,0.278,1.403c0,0.397-0.058,0.753-0.174,1.063c-0.116,0.31-0.279,0.576-0.49,0.801
		c-0.21,0.225-0.46,0.404-0.751,0.544c-0.29,0.139-0.607,0.235-0.95,0.291c0.266,0.055,0.509,0.206,0.73,0.452
		s0.443,0.602,0.664,1.066l1.735,3.635H96.541z M96.035,89.075c0-0.531-0.169-0.913-0.506-1.146c-0.337-0.234-0.844-0.35-1.519-0.35
		h-0.896v3.063h0.83c0.315,0,0.602-0.033,0.859-0.1c0.258-0.066,0.478-0.166,0.66-0.299s0.324-0.299,0.423-0.494
		C95.985,89.555,96.035,89.33,96.035,89.075z"/>
	<path d="M96.541,122.229l-1.527-3.485c-0.144-0.332-0.345-0.582-0.602-0.751c-0.258-0.17-0.561-0.254-0.909-0.254h-0.39v4.49
		h-2.042v-10.85h3.163c0.598,0,1.14,0.053,1.627,0.154c0.487,0.102,0.902,0.271,1.245,0.51c0.343,0.238,0.607,0.549,0.793,0.93
		c0.185,0.383,0.278,0.85,0.278,1.403c0,0.397-0.058,0.753-0.174,1.063c-0.116,0.31-0.279,0.576-0.49,0.801
		c-0.21,0.225-0.46,0.404-0.751,0.544c-0.29,0.139-0.607,0.235-0.95,0.291c0.266,0.055,0.509,0.206,0.73,0.452
		s0.443,0.602,0.664,1.066l1.735,3.635H96.541z M96.035,114.575c0-0.531-0.169-0.913-0.506-1.146
		c-0.337-0.234-0.844-0.35-1.519-0.35h-0.896v3.063h0.83c0.315,0,0.602-0.033,0.859-0.1c0.258-0.066,0.478-0.166,0.66-0.299
		s0.324-0.299,0.423-0.494C95.985,115.055,96.035,114.83,96.035,114.575z"/>
	<path d="M229.541,122.229l-1.527-3.485c-0.145-0.332-0.345-0.582-0.602-0.751c-0.258-0.17-0.561-0.254-0.909-0.254h-0.39v4.49
		h-2.043v-10.85h3.162c0.599,0,1.141,0.053,1.627,0.154c0.488,0.102,0.902,0.271,1.246,0.51s0.606,0.549,0.793,0.93
		c0.186,0.383,0.276,0.85,0.276,1.403c0,0.397-0.058,0.753-0.174,1.063c-0.116,0.31-0.278,0.576-0.489,0.801
		s-0.461,0.404-0.752,0.544c-0.289,0.139-0.605,0.235-0.949,0.291c0.266,0.055,0.51,0.206,0.729,0.452s0.442,0.602,0.664,1.066
		l1.733,3.635H229.541z M229.035,114.575c0-0.531-0.17-0.913-0.508-1.146c-0.336-0.234-0.844-0.35-1.519-0.35h-0.896v3.063h0.83
		c0.313,0,0.602-0.033,0.857-0.1c0.258-0.066,0.479-0.166,0.66-0.299s0.323-0.299,0.424-0.494
		C228.984,115.055,229.035,114.83,229.035,114.575z"/>
</g>
</svg>
