<?xml version="1.0" encoding="utf-8"?>
<!-- Generator: Adobe Illustrator 15.1.0, SVG Export Plug-In . SVG Version: 6.00 Build 0)  -->
<!DOCTYPE svg PUBLIC "-//W3C//DTD SVG 1.1//EN" "http://www.w3.org/Graphics/SVG/1.1/DTD/svg11.dtd">
<svg version="1.1" id="Layer_1" xmlns="http://www.w3.org/2000/svg" xmlns:xlink="http://www.w3.org/1999/xlink" x="0px" y="0px"
	 width="275px" height="175.5px" viewBox="0 3 275 175.5" enable-background="new 0 3 275 175.5" xml:space="preserve">
<g>
	<rect x="-30" y="-25" fill="none" width="388" height="203"/>
	<path fill="#6F6FB3" d="M274.227,40.939c0,4.153-0.459,7.757-1.371,10.817c-0.916,3.062-2.147,5.736-3.695,8.021
		c-1.547,2.287-3.324,4.274-5.329,5.963s-4.101,3.271-6.278,4.749c-2.464,1.688-4.927,3.309-7.39,4.854
		c-2.461,1.548-4.679,3.289-6.647,5.224c-1.971,1.937-3.57,4.206-4.804,6.807c-1.229,2.604-1.844,5.771-1.844,9.499v1.688H213.33
		c-0.071-0.633-0.123-1.424-0.157-2.375c-0.034-0.949-0.053-1.705-0.053-2.269c0-5.277,0.687-9.727,2.058-13.351
		c1.372-3.623,3.133-6.736,5.277-9.339c2.145-2.602,4.521-4.837,7.125-6.702c2.604-1.863,5.171-3.605,7.704-5.224
		c1.758-1.196,3.428-2.375,5.012-3.535c1.584-1.162,2.974-2.444,4.17-3.852c1.195-1.408,2.146-2.955,2.849-4.645
		c0.705-1.687,1.057-3.623,1.057-5.804c0-4.712-1.727-8.496-5.174-11.346c-3.446-2.849-8.829-4.273-16.145-4.273
		c-5.419,0-10.748,0.67-15.99,2.005c-5.24,1.336-9.867,2.92-13.879,4.75V12.235c2.11-0.985,4.485-1.9,7.125-2.745
		c2.637-0.844,5.381-1.565,8.231-2.163c2.849-0.596,5.771-1.072,8.759-1.425c2.991-0.351,5.893-0.527,8.707-0.527
		c6.967,0,13.191,0.828,18.68,2.48c5.488,1.653,10.115,4.027,13.879,7.124s6.648,6.843,8.653,11.239
		C273.223,30.614,274.227,35.523,274.227,40.939z M211.432,121.042h28.391v28.177h-28.391V121.042z"/>
	<g>
		<defs>
			<rect id="SVGID_1_" x="-30" y="-25" width="388" height="203"/>
		</defs>
		<clipPath id="SVGID_2_">
			<use xlink:href="#SVGID_1_"  overflow="visible"/>
		</clipPath>
		<polyline clip-path="url(#SVGID_2_)" fill="#675F53" points="138.678,337.604 139.118,304.689 43.477,304.689 43.477,337.604 		
			"/>
	</g>
	<g>
		<defs>
			<rect id="SVGID_3_" x="-30" y="-25" width="388" height="203"/>
		</defs>
		<clipPath id="SVGID_4_">
			<use xlink:href="#SVGID_3_"  overflow="visible"/>
		</clipPath>
		<path clip-path="url(#SVGID_4_)" fill="#27383A" d="M113.812,340.307"/>
	</g>
	<g>
		<defs>
			<rect id="SVGID_5_" x="-30" y="-25" width="388" height="203"/>
		</defs>
		<clipPath id="SVGID_6_">
			<use xlink:href="#SVGID_5_"  overflow="visible"/>
		</clipPath>
		<path clip-path="url(#SVGID_6_)" fill="#95A8AF" d="M20.749,195.419v1.235h22.728v108.035h95.642v7.422h22.73V195.419h-0.059
			c-0.757-19.698-9.338-37.364-22.672-49.86c-3.53-3.306-7.39-6.248-11.528-8.77c-1.164-0.715-2.353-1.395-3.562-2.044
			c-0.005-0.003-0.023-0.007-0.03-0.015c-0.822-0.43-1.652-0.853-2.497-1.264c-0.456-0.22-0.919-0.443-1.385-0.65
			c-0.932-0.428-1.867-0.83-2.809-1.211c-8.053-3.244-16.823-5.035-26.012-5.035c-10.111,0-19.732,2.173-28.421,6.066
			c-0.865,0.383-1.708,0.784-2.555,1.209c-0.388,0.194-0.768,0.393-1.164,0.594c-0.263,0.137-0.498,0.262-0.757,0.398
			c-0.48,0.256-0.955,0.521-1.422,0.792c-0.108,0.058-0.194,0.104-0.294,0.165c-0.575,0.329-1.129,0.656-1.686,0.999
			c-4.128,2.524-7.99,5.463-11.521,8.771l0,0c-13.338,12.504-21.911,30.156-22.671,49.854H20.749L20.749,195.419z"/>
	</g>
	<g>
		<defs>
			<rect id="SVGID_7_" x="-30" y="-25" width="388" height="203"/>
		</defs>
		<clipPath id="SVGID_8_">
			<use xlink:href="#SVGID_7_"  overflow="visible"/>
		</clipPath>
		<g clip-path="url(#SVGID_8_)">
			<g>
				<path fill="#F8A586" d="M90.726,86.263c7.92,0,14.332,4.893,14.332,10.92v36.543v19.864l-28.653-9.7V97.184
					C76.404,91.156,82.826,86.263,90.726,86.263z"/>
			</g>
		</g>
	</g>
	<g>
		<defs>
			<rect id="SVGID_9_" x="-30" y="-25" width="388" height="203"/>
		</defs>
		<clipPath id="SVGID_10_">
			<use xlink:href="#SVGID_9_"  overflow="visible"/>
		</clipPath>
		<path clip-path="url(#SVGID_10_)" fill="#F8A586" d="M52.087,40.793v47.438c0.977,11.4,6.202,21.908,14.007,29.098
			c1.176,0.26,18.714,0.01,18.977,0.01c19.392,0,35.121-16.313,35.121-36.437v-40.11L52.087,40.793L52.087,40.793z"/>
	</g>
	<g>
		<defs>
			<rect id="SVGID_11_" x="-30" y="-25" width="388" height="203"/>
		</defs>
		<clipPath id="SVGID_12_">
			<use xlink:href="#SVGID_11_"  overflow="visible"/>
		</clipPath>
		<g clip-path="url(#SVGID_12_)">
			<g>
				<g>
					<path fill="#F8A586" d="M123.803,68.356c5.415,0,9.804,4.555,9.804,10.163c0,5.617-4.39,10.166-9.804,10.166h-15.944
						l0.583-20.329H123.803z"/>
				</g>
			</g>
		</g>
	</g>
	<g>
		<defs>
			<rect id="SVGID_13_" x="-30" y="-25" width="388" height="203"/>
		</defs>
		<clipPath id="SVGID_14_">
			<use xlink:href="#SVGID_13_"  overflow="visible"/>
		</clipPath>
		<path clip-path="url(#SVGID_14_)" fill="#010101" d="M126.012,33.873v6.139c0.001,0.076,0.027,0.15,0.034,0.23v28.192h-3.903
			v7.264c0,3.342-2.604,6.051-5.836,6.051c-3.208,0-5.817-2.709-5.817-6.051V71.33c-0.78-4.561-4.614-8.022-9.232-8.027V51.331
			c-0.787-4.548-4.604-8.007-9.224-8.013v-0.065H52.063c-6.43,0-11.718-5.075-12.352-11.586h16.022l4.392-17.378h38.241
			c9.123,0,17.206,4.559,22.273,11.587L126.012,33.873z"/>
	</g>
	<g>
		<defs>
			<rect id="SVGID_15_" x="-30" y="-25" width="388" height="203"/>
		</defs>
		<clipPath id="SVGID_16_">
			<use xlink:href="#SVGID_15_"  overflow="visible"/>
		</clipPath>
		<g clip-path="url(#SVGID_16_)">
			<path fill="#11122D" d="M65.166,70.014c1.641,0,2.966-1.372,2.966-3.079c0-1.691-1.325-3.07-2.966-3.07
				c-1.638,0-2.969,1.379-2.969,3.07C62.196,68.642,63.528,70.014,65.166,70.014z"/>
			<path fill="#11122D" d="M88.728,70.014c1.642,0,2.973-1.372,2.973-3.079c0-1.691-1.331-3.07-2.973-3.07
				c-1.628,0-2.962,1.379-2.962,3.07C85.766,68.642,87.1,70.014,88.728,70.014z"/>
		</g>
	</g>
	<g>
		<defs>
			<rect id="SVGID_17_" x="-30" y="-25" width="388" height="203"/>
		</defs>
		<clipPath id="SVGID_18_">
			<use xlink:href="#SVGID_17_"  overflow="visible"/>
		</clipPath>
		<rect x="56.602" y="36.299" clip-path="url(#SVGID_18_)" fill="#010101" width="31.844" height="7.015"/>
	</g>
	<g>
		<defs>
			<rect id="SVGID_19_" x="-30" y="-25" width="388" height="203"/>
		</defs>
		<clipPath id="SVGID_20_">
			<use xlink:href="#SVGID_19_"  overflow="visible"/>
		</clipPath>
		<path clip-path="url(#SVGID_20_)" fill="#010101" d="M126.162,30.358c0-14.619-11.426-26.473-25.51-26.473H77.061
			c-14.091,0-25.515,11.854-25.515,26.473v12.956h5.901v-4.859c0-7.619,5.951-13.794,13.294-13.794h3.575
			c7.345,0,13.296,6.175,13.296,13.794v4.859h38.55V30.358L126.162,30.358z"/>
	</g>
	<g>
		<defs>
			<rect id="SVGID_21_" x="-30" y="-25" width="388" height="203"/>
		</defs>
		<clipPath id="SVGID_22_">
			<use xlink:href="#SVGID_21_"  overflow="visible"/>
		</clipPath>
		
			<line clip-path="url(#SVGID_22_)" fill="none" stroke="#020304" stroke-width="1.3653" x1="124.753" y1="36.639" x2="90.261" y2="36.639"/>
	</g>
	<g>
		<defs>
			<rect id="SVGID_23_" x="-30" y="-25" width="388" height="203"/>
		</defs>
		<clipPath id="SVGID_24_">
			<use xlink:href="#SVGID_23_"  overflow="visible"/>
		</clipPath>
		<path clip-path="url(#SVGID_24_)" fill="#010101" d="M57.967,35.913c-7.102-4.247-9.82-13.347-6.518-20.948l17.689,10.587
			L57.967,35.913z"/>
	</g>
	<g>
		<defs>
			<rect id="SVGID_25_" x="-30" y="-25" width="388" height="203"/>
		</defs>
		<clipPath id="SVGID_26_">
			<use xlink:href="#SVGID_25_"  overflow="visible"/>
		</clipPath>
		<polyline clip-path="url(#SVGID_26_)" fill="#F9AC8D" points="161.85,338.033 161.85,304.689 139.118,304.689 138.678,337.604 		
			"/>
	</g>
	<g>
		<defs>
			<rect id="SVGID_27_" x="-30" y="-25" width="388" height="203"/>
		</defs>
		<clipPath id="SVGID_28_">
			<use xlink:href="#SVGID_27_"  overflow="visible"/>
		</clipPath>
		<g clip-path="url(#SVGID_28_)">
			<g>
				<line fill="none" x1="40.726" y1="167.995" x2="21.563" y2="264.572"/>
			</g>
			<g>
				<g>
					<path fill="#95A8AF" d="M28.531,164.633c-6.388,32.192-12.776,64.385-19.165,96.577c-3.161,15.929,21.217,22.715,24.391,6.724
						c6.387-32.192,12.776-64.384,19.165-96.576C56.083,155.428,31.705,148.641,28.531,164.633L28.531,164.633z"/>
				</g>
			</g>
		</g>
	</g>
	<g>
		<defs>
			<rect id="SVGID_29_" x="-30" y="-25" width="388" height="203"/>
		</defs>
		<clipPath id="SVGID_30_">
			<use xlink:href="#SVGID_29_"  overflow="visible"/>
		</clipPath>
		<polygon clip-path="url(#SVGID_30_)" fill="#FFFFFF" points="90.106,182.531 90.106,182.531 113.812,135 68.83,135 		"/>
	</g>
	<g>
		<defs>
			<rect id="SVGID_31_" x="-30" y="-25" width="388" height="203"/>
		</defs>
		<clipPath id="SVGID_32_">
			<use xlink:href="#SVGID_31_"  overflow="visible"/>
		</clipPath>
		<polygon clip-path="url(#SVGID_32_)" fill="#010101" points="90.242,133.865 90.242,133.865 100.334,148.827 89.935,157.195 
			79.547,148.827 		"/>
	</g>
	<g>
		<defs>
			<rect id="SVGID_33_" x="-30" y="-25" width="388" height="203"/>
		</defs>
		<clipPath id="SVGID_34_">
			<use xlink:href="#SVGID_33_"  overflow="visible"/>
		</clipPath>
		<polygon clip-path="url(#SVGID_34_)" fill="#010101" points="82.216,162.896 90.106,180.518 99.129,162.421 89.935,149.708 		"/>
	</g>
	<g>
		<defs>
			<rect id="SVGID_35_" x="-30" y="-25" width="388" height="203"/>
		</defs>
		<clipPath id="SVGID_36_">
			<use xlink:href="#SVGID_35_"  overflow="visible"/>
		</clipPath>
		<polygon clip-path="url(#SVGID_36_)" fill="#BACACD" points="90.106,180.518 90.106,180.518 125.17,145.527 112.79,129.966 		"/>
	</g>
	<g>
		<defs>
			<rect id="SVGID_37_" x="-30" y="-25" width="388" height="203"/>
		</defs>
		<clipPath id="SVGID_38_">
			<use xlink:href="#SVGID_37_"  overflow="visible"/>
		</clipPath>
		<rect x="140" y="293" clip-path="url(#SVGID_38_)" fill="#BACACD" width="19" height="18"/>
	</g>
	<g>
		<g>
			<defs>
				<rect id="SVGID_39_" x="-30" y="-25" width="388" height="203"/>
			</defs>
			<clipPath id="SVGID_40_">
				<use xlink:href="#SVGID_39_"  overflow="visible"/>
			</clipPath>
			<polygon clip-path="url(#SVGID_40_)" fill="#BACACD" points="90.106,180.518 90.106,180.518 54.532,145.527 67.094,129.966 			
				"/>
		</g>
		<g>
			<defs>
				<rect id="SVGID_41_" x="-30" y="-25" width="388" height="203"/>
			</defs>
			<clipPath id="SVGID_42_">
				<use xlink:href="#SVGID_41_"  overflow="visible"/>
			</clipPath>
			<path clip-path="url(#SVGID_42_)" fill="#F8A586" d="M34.151,162.996l-0.261-38.9c-13.552,0.412-24.523,3.529-24.5,6.967
				l0.228,32.684L34.151,162.996z"/>
			<path clip-path="url(#SVGID_42_)" fill="#95A8AF" d="M30.463,273.896c1.058-37.556,2.115-75.108,3.173-112.664
				c0.459-16.319-24.834-16.275-25.293,0c-1.058,37.556-2.115,75.108-3.173,112.664C4.71,290.216,30.004,290.172,30.463,273.896z"/>
			<polygon clip-path="url(#SVGID_42_)" fill="#BACACD" points="5.146,157.693 42.551,159.164 43.343,143.792 5.936,142.32 			"/>
			<path clip-path="url(#SVGID_42_)" fill="#F8A586" d="M28.046,76.708c-0.226,8.511-0.452,17.022-0.678,25.532
				c-0.119,4.548,6.926,4.535,7.047,0c0.226-8.51,0.452-17.02,0.678-25.532C35.212,72.162,28.167,72.174,28.046,76.708z"/>
			<path clip-path="url(#SVGID_42_)" fill="#F8A586" d="M17.833,93.798c0.297,8.509,0.594,17.019,0.891,25.528
				c0.158,4.531,7.204,4.546,7.047,0c-0.298-8.51-0.595-17.02-0.891-25.528C24.721,89.267,17.675,89.252,17.833,93.798z"/>
			<path clip-path="url(#SVGID_42_)" fill="#F8A586" d="M3.522,101.048c0.62,6.952,1.24,13.904,1.859,20.854
				c0.4,4.488,7.45,4.527,7.046,0c-0.62-6.951-1.24-13.903-1.859-20.854C10.168,96.561,3.119,96.521,3.522,101.048z"/>
			<path clip-path="url(#SVGID_42_)" fill="#F8A586" d="M10.65,97.24c0.141,8.518,0.282,17.033,0.423,25.549
				c0.076,4.539,7.122,4.546,7.047,0c-0.141-8.516-0.283-17.031-0.423-25.549C17.621,92.702,10.575,92.695,10.65,97.24z"/>
			<path clip-path="url(#SVGID_42_)" fill="#F8A586" d="M2.754,114.995c1.338,13.226,3.968,21.688,13.411,22.159
				c9.449,0.479,21.655-8.938,20.793-20.448c-0.902-12.185-3.954-21.692-13.406-22.169C14.115,94.064,1.595,103.563,2.754,114.995z"
				/>
			<path clip-path="url(#SVGID_42_)" fill="#F8A586" d="M16.864,138.075L16.864,138.075c-0.25,0-0.499-0.007-0.745-0.019
				c-9.993-0.5-12.867-9.16-14.264-22.972c-0.482-4.763,1.282-9.631,4.968-13.711c4.449-4.92,11.13-8,16.774-7.739
				c11.298,0.569,13.551,13.402,14.261,23.004c0.369,4.916-1.527,9.883-5.337,13.989C28.26,135.223,22.26,138.075,16.864,138.075z
				 M22.871,95.424c-5.001,0-10.774,2.811-14.706,7.163c-3.34,3.694-4.942,8.069-4.511,12.317
				c1.333,13.189,3.816,20.912,12.557,21.348c5.006,0.268,10.939-2.49,14.987-6.852c3.464-3.734,5.189-8.219,4.859-12.625
				c-1.063-14.373-4.934-20.951-12.55-21.334C23.297,95.43,23.084,95.424,22.871,95.424z"/>
			<path clip-path="url(#SVGID_42_)" fill="#F8A586" d="M40.264,113.854c-0.269,5.319-3.122,9.498-6.37,9.334
				c-3.251-0.164-5.672-4.604-5.406-9.922c0.269-5.318,3.12-9.496,6.371-9.332C38.11,104.096,40.527,108.538,40.264,113.854z"/>
			<path clip-path="url(#SVGID_42_)" fill="#F8A586" d="M34.079,124.365l-0.244-0.006c-3.959-0.2-6.822-5.098-6.52-11.153
				c0.296-5.86,3.529-10.452,7.36-10.452l0.243,0.005c3.954,0.197,6.817,5.097,6.518,11.152
				C41.141,119.775,37.91,124.365,34.079,124.365z M34.798,106c-2.617,0-4.912,3.316-5.136,7.771
				c-0.229,4.58,1.737,8.336,4.292,8.465l0.125-0.108c2.492,0,4.788-3.374,5.012-7.832c0.227-4.582-1.738-8.297-4.289-8.297
				L34.798,106z"/>
		</g>
	</g>
	<g>
		<defs>
			<rect id="SVGID_43_" x="-30" y="-25" width="388" height="203"/>
		</defs>
		<clipPath id="SVGID_44_">
			<use xlink:href="#SVGID_43_"  overflow="visible"/>
		</clipPath>
		<g clip-path="url(#SVGID_44_)">
			<path fill="#F5F5F5" d="M65.876,85.774c1.129,6.792,6.841,11.951,13.74,11.906c6.89-0.043,12.541-5.262,13.602-12.061
				L65.876,85.774z"/>
		</g>
	</g>
</g>
</svg>
