<?xml version="1.0" encoding="utf-8"?>
<!-- Generator: Adobe Illustrator 15.1.0, SVG Export Plug-In . SVG Version: 6.00 Build 0)  -->
<!DOCTYPE svg PUBLIC "-//W3C//DTD SVG 1.1//EN" "http://www.w3.org/Graphics/SVG/1.1/DTD/svg11.dtd">
<svg version="1.1" id="Layer_1" xmlns="http://www.w3.org/2000/svg" xmlns:xlink="http://www.w3.org/1999/xlink" x="0px" y="0px"
	 width="293.334px" height="153px" viewBox="4 2.667 293.334 153" enable-background="new 4 2.667 293.334 153"
	 xml:space="preserve">
<line fill="none" stroke="#BBBDBF" stroke-width="2" stroke-miterlimit="10" x1="149.905" y1="100.609" x2="268.664" y2="100.609"/>
<line fill="none" stroke="#BBBDBF" stroke-width="2" stroke-miterlimit="10" x1="196.152" y1="144.002" x2="265.238" y2="144.002"/>
<line fill="none" stroke="#BBBDBF" stroke-width="2" stroke-miterlimit="10" x1="195.582" y1="100.609" x2="195.582" y2="144.572"/>
<line fill="none" stroke="#BBBDBF" stroke-width="2" stroke-miterlimit="10" x1="85.387" y1="105.748" x2="113.935" y2="105.748"/>
<line fill="none" stroke="#BBBDBF" stroke-width="2" stroke-miterlimit="10" x1="28.291" y1="20.676" x2="147.05" y2="20.676"/>
<line fill="none" stroke="#BBBDBF" stroke-width="2" stroke-miterlimit="10" x1="149.905" y1="14.396" x2="268.664" y2="14.396"/>
<line fill="none" stroke="#BBBDBF" stroke-width="2" stroke-miterlimit="10" x1="196.152" y1="57.787" x2="265.238" y2="57.787"/>
<rect x="5.167" y="3.833" fill="#EB2227" width="57.096" height="31.974"/>
<rect x="6.835" y="10.954" fill="none" width="53.259" height="34.081"/>
<g enable-background="new    ">
	<path fill="#FFFFFF" d="M15.304,16.689c0.237,0.098,0.499,0.177,0.784,0.236c0.286,0.061,0.625,0.091,1.017,0.091
		c0.483,0,0.846-0.104,1.088-0.313c0.242-0.208,0.363-0.504,0.363-0.886c0-0.158-0.034-0.3-0.102-0.425
		c-0.068-0.124-0.166-0.23-0.294-0.317s-0.284-0.153-0.467-0.199c-0.183-0.045-0.389-0.068-0.616-0.068h-1.298v-0.696h1.279
		c0.193,0,0.368-0.021,0.526-0.064c0.158-0.042,0.294-0.106,0.407-0.191c0.114-0.086,0.202-0.193,0.266-0.322
		c0.063-0.13,0.095-0.283,0.095-0.46c0-0.127-0.02-0.25-0.059-0.37s-0.108-0.226-0.206-0.317c-0.098-0.092-0.228-0.165-0.389-0.221
		c-0.161-0.055-0.365-0.082-0.611-0.082c-0.263,0-0.529,0.021-0.801,0.062c-0.271,0.041-0.545,0.105-0.82,0.194v-0.735
		c0.234-0.069,0.486-0.124,0.756-0.163s0.585-0.06,0.946-0.06c0.695,0,1.213,0.14,1.554,0.417c0.341,0.278,0.512,0.667,0.512,1.166
		c0,0.335-0.081,0.624-0.242,0.867c-0.161,0.244-0.42,0.424-0.777,0.541c0.167,0.031,0.326,0.084,0.476,0.158
		s0.282,0.172,0.396,0.292s0.204,0.261,0.27,0.424s0.1,0.347,0.1,0.552c0,0.298-0.058,0.564-0.173,0.802
		c-0.115,0.236-0.279,0.438-0.493,0.606c-0.213,0.167-0.471,0.296-0.772,0.386c-0.302,0.091-0.638,0.136-1.007,0.136
		c-0.638,0-1.207-0.087-1.706-0.261V16.689z"/>
	<path fill="#FFFFFF" d="M23.939,17.651l-0.019-0.64c-0.259,0.256-0.522,0.44-0.789,0.555c-0.267,0.113-0.547,0.17-0.841,0.17
		c-0.272,0-0.504-0.034-0.697-0.104c-0.193-0.07-0.352-0.165-0.477-0.287c-0.125-0.122-0.216-0.265-0.274-0.429
		c-0.059-0.164-0.088-0.343-0.088-0.536c0-0.477,0.178-0.851,0.533-1.12c0.355-0.271,0.881-0.405,1.576-0.405h0.986v-0.417
		c0-0.281-0.09-0.507-0.27-0.676s-0.455-0.254-0.825-0.254c-0.269,0-0.533,0.03-0.794,0.091c-0.261,0.06-0.53,0.145-0.808,0.256
		v-0.744c0.104-0.038,0.221-0.075,0.349-0.111c0.128-0.037,0.263-0.069,0.405-0.098c0.142-0.028,0.291-0.051,0.445-0.068
		s0.311-0.026,0.469-0.026c0.288,0,0.546,0.031,0.777,0.095c0.23,0.063,0.426,0.16,0.585,0.289c0.16,0.13,0.282,0.292,0.368,0.488
		c0.085,0.196,0.128,0.427,0.128,0.692v3.279H23.939z M23.849,15.485h-1.047c-0.206,0-0.382,0.021-0.531,0.062
		s-0.27,0.1-0.365,0.176c-0.095,0.075-0.166,0.166-0.211,0.272c-0.046,0.105-0.069,0.225-0.069,0.357
		c0,0.092,0.014,0.18,0.042,0.264c0.028,0.083,0.074,0.157,0.138,0.223c0.063,0.064,0.145,0.116,0.246,0.153
		c0.101,0.038,0.225,0.058,0.37,0.058c0.189,0,0.407-0.058,0.651-0.173c0.245-0.116,0.503-0.298,0.775-0.548V15.485z"/>
	<path fill="#FFFFFF" d="M30.352,13.604h-1.806v4.048h-0.834v-4.048h-1.806v-0.711h4.446V13.604z"/>
	<path fill="#FFFFFF" d="M35.622,15.187c0,0.424-0.059,0.794-0.178,1.109c-0.119,0.316-0.282,0.578-0.491,0.787
		c-0.208,0.208-0.455,0.364-0.739,0.469c-0.284,0.104-0.592,0.156-0.924,0.156c-0.152,0-0.303-0.008-0.453-0.023
		c-0.15-0.016-0.303-0.043-0.458-0.081v1.991h-0.825v-6.702h0.734l0.052,0.797c0.237-0.325,0.49-0.554,0.758-0.686
		c0.269-0.131,0.56-0.196,0.872-0.196c0.272,0,0.51,0.057,0.716,0.171c0.205,0.113,0.377,0.274,0.517,0.48
		c0.139,0.207,0.243,0.457,0.313,0.749C35.587,14.5,35.622,14.827,35.622,15.187z M34.778,15.225c0-0.249-0.018-0.479-0.054-0.688
		c-0.037-0.208-0.094-0.387-0.173-0.535c-0.079-0.148-0.18-0.265-0.303-0.349c-0.123-0.083-0.27-0.125-0.44-0.125
		c-0.104,0-0.21,0.017-0.318,0.05s-0.219,0.088-0.334,0.166c-0.115,0.077-0.237,0.18-0.365,0.308
		c-0.128,0.128-0.265,0.287-0.41,0.477v2.308c0.152,0.063,0.311,0.113,0.479,0.149s0.332,0.055,0.493,0.055
		c0.445,0,0.794-0.151,1.047-0.453C34.651,16.286,34.778,15.831,34.778,15.225z"/>
	<path fill="#FFFFFF" d="M39.949,17.651l-0.019-0.64c-0.259,0.256-0.522,0.44-0.789,0.555c-0.267,0.113-0.547,0.17-0.841,0.17
		c-0.272,0-0.504-0.034-0.697-0.104c-0.193-0.07-0.352-0.165-0.477-0.287c-0.125-0.122-0.216-0.265-0.274-0.429
		c-0.059-0.164-0.088-0.343-0.088-0.536c0-0.477,0.178-0.851,0.533-1.12c0.355-0.271,0.881-0.405,1.576-0.405h0.986v-0.417
		c0-0.281-0.09-0.507-0.27-0.676s-0.455-0.254-0.825-0.254c-0.269,0-0.533,0.03-0.794,0.091c-0.261,0.06-0.53,0.145-0.808,0.256
		v-0.744c0.104-0.038,0.221-0.075,0.349-0.111c0.128-0.037,0.263-0.069,0.405-0.098c0.142-0.028,0.291-0.051,0.445-0.068
		s0.311-0.026,0.469-0.026c0.288,0,0.546,0.031,0.777,0.095c0.23,0.063,0.426,0.16,0.585,0.289c0.16,0.13,0.282,0.292,0.368,0.488
		c0.085,0.196,0.128,0.427,0.128,0.692v3.279H39.949z M39.858,15.485h-1.047c-0.206,0-0.382,0.021-0.531,0.062
		s-0.27,0.1-0.365,0.176c-0.095,0.075-0.166,0.166-0.211,0.272c-0.046,0.105-0.069,0.225-0.069,0.357
		c0,0.092,0.014,0.18,0.042,0.264c0.028,0.083,0.074,0.157,0.138,0.223c0.063,0.064,0.145,0.116,0.246,0.153
		c0.101,0.038,0.225,0.058,0.37,0.058c0.189,0,0.407-0.058,0.651-0.173c0.245-0.116,0.503-0.298,0.775-0.548V15.485z"/>
	<path fill="#FFFFFF" d="M46.361,13.604h-1.806v4.048h-0.834v-4.048h-1.806v-0.711h4.446V13.604z"/>
	<path fill="#FFFFFF" d="M48.01,14.731c0.114-0.003,0.221-0.005,0.32-0.007c0.099-0.001,0.203-0.002,0.31-0.002
		c0.297,0,0.557,0.035,0.78,0.106s0.408,0.171,0.557,0.299c0.148,0.128,0.259,0.281,0.332,0.459
		c0.073,0.179,0.109,0.372,0.109,0.581c0,0.253-0.042,0.475-0.128,0.666s-0.207,0.352-0.365,0.48
		c-0.158,0.13-0.352,0.228-0.581,0.294c-0.229,0.066-0.502,0.1-0.818,0.1c-0.202,0-0.416-0.005-0.642-0.017
		c-0.226-0.011-0.456-0.034-0.689-0.068v-4.73h0.815V14.731z M49.565,16.191c0-0.249-0.078-0.443-0.234-0.58
		c-0.157-0.138-0.405-0.206-0.747-0.206c-0.092,0-0.185,0.001-0.28,0.004c-0.095,0.004-0.193,0.009-0.294,0.015v1.564
		c0.101,0.016,0.198,0.025,0.289,0.03c0.092,0.005,0.184,0.007,0.275,0.007c0.193,0,0.353-0.022,0.479-0.068
		s0.227-0.106,0.301-0.183c0.074-0.075,0.128-0.164,0.161-0.266C49.548,16.408,49.565,16.303,49.565,16.191z M50.939,17.651v-4.759
		h0.815v4.759H50.939z"/>
</g>
<g enable-background="new    ">
	<path fill="#FFFFFF" d="M23.729,31.289c-1.457-1.349-2.185-2.84-2.185-4.474c0-0.382,0.039-0.764,0.116-1.145
		c0.077-0.381,0.202-0.763,0.374-1.145c0.172-0.383,0.4-0.765,0.683-1.147c0.283-0.382,0.626-0.761,1.031-1.137l0.479,0.488
		c-1.226,1.21-1.839,2.551-1.839,4.023c0,0.733,0.155,1.438,0.464,2.113c0.31,0.677,0.768,1.314,1.375,1.915L23.729,31.289z"/>
	<path fill="#FFFFFF" d="M28.265,22.214h0.688l-0.124,0.924c0.165,0.016,0.33,0.036,0.495,0.062c0.166,0.025,0.32,0.056,0.462,0.09
		v0.73c-0.174-0.045-0.349-0.083-0.526-0.114c-0.177-0.031-0.351-0.055-0.521-0.071l-0.27,2.028c0.211,0.083,0.421,0.172,0.63,0.269
		c0.209,0.096,0.396,0.21,0.562,0.341c0.166,0.131,0.3,0.287,0.403,0.467c0.103,0.181,0.154,0.396,0.154,0.645
		c0,0.266-0.054,0.501-0.161,0.706c-0.107,0.206-0.257,0.38-0.45,0.521c-0.193,0.143-0.425,0.254-0.697,0.334
		c-0.271,0.081-0.57,0.129-0.896,0.145l-0.157,1.128h-0.692l0.157-1.128c-0.256-0.019-0.5-0.046-0.732-0.083
		c-0.232-0.036-0.434-0.076-0.604-0.12v-0.787c0.199,0.069,0.417,0.126,0.652,0.171c0.235,0.044,0.497,0.074,0.784,0.09l0.28-2.133
		c-0.206-0.079-0.408-0.164-0.606-0.256c-0.199-0.092-0.377-0.201-0.533-0.329c-0.157-0.128-0.284-0.279-0.382-0.453
		c-0.098-0.174-0.147-0.381-0.147-0.621c0-0.195,0.041-0.389,0.124-0.58c0.082-0.191,0.21-0.363,0.384-0.517
		s0.394-0.279,0.659-0.379c0.266-0.1,0.582-0.159,0.948-0.178L28.265,22.214z M28.052,23.825c-0.395,0.034-0.683,0.127-0.865,0.277
		c-0.182,0.149-0.272,0.342-0.272,0.575c0,0.218,0.075,0.397,0.225,0.538c0.15,0.141,0.374,0.27,0.67,0.387L28.052,23.825z
		 M28.109,28.56c0.426-0.031,0.737-0.126,0.931-0.284s0.292-0.373,0.292-0.645c0-0.114-0.021-0.216-0.062-0.306
		c-0.041-0.091-0.103-0.172-0.185-0.244c-0.082-0.073-0.184-0.141-0.306-0.204s-0.265-0.126-0.429-0.189L28.109,28.56z"/>
	<path fill="#FFFFFF" d="M35.379,22.602l-3.251,7.716h-0.787l3.251-7.716H35.379z"/>
	<path fill="#FFFFFF" d="M41.024,25.251h-1.806v4.048h-0.834v-4.048h-1.806V24.54h4.446V25.251z"/>
	<path fill="#FFFFFF" d="M43.199,22.242c1.457,1.349,2.185,2.85,2.185,4.502c0,0.342-0.035,0.695-0.104,1.062
		c-0.07,0.367-0.188,0.742-0.355,1.126s-0.393,0.773-0.675,1.168c-0.283,0.396-0.639,0.792-1.069,1.189l-0.479-0.488
		c0.616-0.609,1.076-1.246,1.379-1.909c0.303-0.664,0.455-1.359,0.455-2.086c0-1.504-0.611-2.856-1.834-4.057L43.199,22.242z"/>
</g>
<rect x="109.081" y="3.833" fill="#FEE600" width="66.231" height="31.974"/>
<rect x="111.32" y="10.954" fill="none" width="61.823" height="34.081"/>
<g enable-background="new    ">
	<path fill="#010101" d="M117.664,17.651h-0.844v-5.445h-2.541v5.445h-0.843v-6.194h4.228V17.651z"/>
	<path fill="#010101" d="M123.118,15.234c0,0.369-0.052,0.708-0.156,1.017c-0.104,0.308-0.254,0.572-0.45,0.791
		c-0.196,0.22-0.435,0.391-0.716,0.513c-0.281,0.121-0.6,0.182-0.957,0.182c-0.341,0-0.647-0.053-0.917-0.158
		c-0.27-0.106-0.499-0.262-0.687-0.467c-0.188-0.206-0.332-0.46-0.431-0.764c-0.1-0.303-0.149-0.652-0.149-1.047
		c0-0.37,0.052-0.707,0.156-1.012c0.104-0.306,0.254-0.567,0.45-0.787c0.196-0.22,0.435-0.39,0.716-0.512s0.6-0.183,0.958-0.183
		c0.341,0,0.647,0.053,0.917,0.159c0.27,0.105,0.499,0.261,0.687,0.464c0.188,0.204,0.332,0.458,0.432,0.761
		C123.068,14.495,123.118,14.843,123.118,15.234z M122.275,15.272c0-0.294-0.033-0.551-0.097-0.771
		c-0.065-0.22-0.157-0.402-0.277-0.55c-0.12-0.146-0.266-0.258-0.438-0.332s-0.364-0.111-0.576-0.111
		c-0.247,0-0.458,0.049-0.633,0.145c-0.175,0.097-0.319,0.226-0.431,0.387c-0.112,0.161-0.194,0.349-0.247,0.562
		s-0.078,0.437-0.078,0.671c0,0.294,0.032,0.551,0.097,0.772c0.064,0.221,0.157,0.405,0.277,0.552
		c0.12,0.147,0.266,0.258,0.436,0.332c0.171,0.074,0.364,0.111,0.579,0.111c0.246,0,0.457-0.048,0.632-0.145
		c0.176-0.097,0.319-0.226,0.432-0.387c0.112-0.161,0.194-0.348,0.246-0.562C122.249,15.734,122.275,15.509,122.275,15.272z"/>
	<path fill="#010101" d="M128.446,13.604h-1.806v4.048h-0.834v-4.048H124v-0.711h4.446V13.604z"/>
	<path fill="#010101" d="M133.716,15.187c0,0.424-0.059,0.794-0.178,1.109c-0.119,0.316-0.282,0.578-0.491,0.787
		c-0.208,0.208-0.455,0.364-0.739,0.469c-0.284,0.104-0.592,0.156-0.924,0.156c-0.152,0-0.303-0.008-0.453-0.023
		c-0.15-0.016-0.303-0.043-0.458-0.081v1.991h-0.825v-6.702h0.734l0.052,0.797c0.237-0.325,0.49-0.554,0.758-0.686
		c0.269-0.131,0.56-0.196,0.872-0.196c0.272,0,0.51,0.057,0.716,0.171c0.205,0.113,0.377,0.274,0.517,0.48
		c0.139,0.207,0.243,0.457,0.313,0.749C133.681,14.5,133.716,14.827,133.716,15.187z M132.872,15.225
		c0-0.249-0.018-0.479-0.054-0.688c-0.037-0.208-0.094-0.387-0.173-0.535c-0.079-0.148-0.18-0.265-0.303-0.349
		c-0.123-0.083-0.27-0.125-0.44-0.125c-0.104,0-0.21,0.017-0.318,0.05s-0.219,0.088-0.334,0.166
		c-0.115,0.077-0.237,0.18-0.365,0.308c-0.128,0.128-0.265,0.287-0.41,0.477v2.308c0.152,0.063,0.311,0.113,0.479,0.149
		s0.332,0.055,0.493,0.055c0.445,0,0.794-0.151,1.047-0.453C132.746,16.286,132.872,15.831,132.872,15.225z"/>
	<path fill="#010101" d="M139.005,15.021c0,0.116-0.001,0.215-0.005,0.293c-0.003,0.079-0.008,0.153-0.014,0.223h-3.341
		c0,0.487,0.136,0.86,0.408,1.121c0.271,0.261,0.664,0.392,1.175,0.392c0.139,0,0.278-0.006,0.417-0.017
		c0.139-0.012,0.273-0.026,0.403-0.045c0.13-0.02,0.254-0.041,0.372-0.064c0.119-0.023,0.229-0.05,0.33-0.078v0.678
		c-0.225,0.063-0.478,0.114-0.761,0.154c-0.283,0.039-0.576,0.059-0.879,0.059c-0.407,0-0.758-0.055-1.052-0.166
		c-0.294-0.11-0.535-0.271-0.723-0.48s-0.327-0.468-0.417-0.772c-0.09-0.305-0.135-0.65-0.135-1.036c0-0.334,0.048-0.651,0.145-0.95
		c0.096-0.298,0.237-0.561,0.422-0.786c0.185-0.227,0.411-0.405,0.68-0.538s0.574-0.199,0.915-0.199
		c0.332,0,0.625,0.052,0.881,0.156s0.472,0.252,0.647,0.443s0.308,0.424,0.398,0.696C138.96,14.377,139.005,14.683,139.005,15.021z
		 M138.147,14.902c0.01-0.212-0.011-0.405-0.062-0.58c-0.051-0.176-0.129-0.326-0.235-0.453c-0.105-0.126-0.238-0.225-0.396-0.296
		c-0.158-0.071-0.341-0.106-0.55-0.106c-0.18,0-0.344,0.034-0.493,0.104c-0.149,0.07-0.277,0.168-0.384,0.294
		c-0.107,0.127-0.194,0.278-0.26,0.455c-0.066,0.177-0.108,0.371-0.124,0.583H138.147z"/>
	<path fill="#010101" d="M140.943,13.969c0.221-0.31,0.467-0.541,0.739-0.694c0.271-0.153,0.578-0.229,0.919-0.229
		c0.271,0,0.522,0.05,0.751,0.149s0.427,0.247,0.592,0.442c0.166,0.196,0.295,0.438,0.389,0.723c0.093,0.286,0.14,0.614,0.14,0.984
		c0,0.347-0.055,0.668-0.164,0.962s-0.262,0.546-0.46,0.758c-0.197,0.212-0.433,0.377-0.706,0.495
		c-0.273,0.119-0.574,0.178-0.903,0.178c-0.344,0-0.647-0.059-0.908-0.178c-0.261-0.118-0.478-0.3-0.651-0.545
		c-0.174-0.244-0.305-0.555-0.394-0.929s-0.133-0.819-0.133-1.334c0-0.632,0.054-1.169,0.161-1.611s0.264-0.81,0.469-1.103
		c0.206-0.292,0.459-0.52,0.761-0.682c0.302-0.163,0.647-0.281,1.036-0.354c0.114-0.022,0.233-0.04,0.358-0.055
		c0.125-0.014,0.249-0.028,0.372-0.042c0.123-0.015,0.242-0.028,0.355-0.041s0.215-0.028,0.303-0.047v0.758
		c-0.063,0.016-0.135,0.028-0.216,0.038s-0.166,0.019-0.256,0.028c-0.09,0.01-0.183,0.02-0.28,0.028
		c-0.096,0.01-0.188,0.021-0.277,0.033c-0.37,0.048-0.673,0.125-0.91,0.232s-0.428,0.254-0.573,0.438
		c-0.146,0.185-0.256,0.409-0.332,0.673S140.991,13.618,140.943,13.969z M143.63,15.372c0-0.275-0.031-0.515-0.092-0.719
		c-0.062-0.203-0.144-0.373-0.247-0.509s-0.22-0.237-0.353-0.304s-0.272-0.1-0.417-0.1c-0.149,0-0.285,0.021-0.41,0.064
		c-0.125,0.042-0.247,0.105-0.367,0.189s-0.24,0.19-0.36,0.319c-0.12,0.13-0.248,0.288-0.384,0.475v0.09
		c0,0.43,0.033,0.783,0.1,1.06s0.156,0.495,0.27,0.656s0.249,0.273,0.405,0.339c0.156,0.064,0.328,0.097,0.514,0.097
		c0.221,0,0.416-0.046,0.583-0.14c0.167-0.093,0.307-0.217,0.419-0.369c0.112-0.153,0.197-0.33,0.253-0.529
		C143.602,15.794,143.63,15.587,143.63,15.372z"/>
	<path fill="#010101" d="M149.441,17.651h-0.825v-4.048h-1.327c-0.038,0.651-0.094,1.209-0.168,1.674
		c-0.074,0.464-0.163,0.852-0.268,1.163s-0.223,0.557-0.355,0.734c-0.133,0.179-0.276,0.309-0.429,0.389
		c-0.153,0.081-0.315,0.12-0.486,0.119c-0.171-0.002-0.346-0.025-0.526-0.069l0.038-0.683c0.126,0.013,0.245,0.007,0.355-0.019
		c0.11-0.025,0.213-0.086,0.308-0.183s0.181-0.235,0.258-0.417c0.077-0.182,0.147-0.424,0.211-0.728
		c0.063-0.304,0.118-0.676,0.164-1.116c0.045-0.44,0.083-0.966,0.111-1.576h2.938V17.651z"/>
	<path fill="#010101" d="M155.015,15.021c0,0.116-0.001,0.215-0.005,0.293c-0.003,0.079-0.008,0.153-0.014,0.223h-3.342
		c0,0.487,0.136,0.86,0.408,1.121c0.271,0.261,0.663,0.392,1.175,0.392c0.14,0,0.278-0.006,0.417-0.017
		c0.139-0.012,0.273-0.026,0.402-0.045c0.131-0.02,0.254-0.041,0.373-0.064c0.118-0.023,0.229-0.05,0.329-0.078v0.678
		c-0.225,0.063-0.478,0.114-0.761,0.154c-0.283,0.039-0.576,0.059-0.879,0.059c-0.408,0-0.759-0.055-1.053-0.166
		c-0.293-0.11-0.535-0.271-0.723-0.48s-0.327-0.468-0.417-0.772c-0.09-0.305-0.135-0.65-0.135-1.036c0-0.334,0.048-0.651,0.145-0.95
		c0.096-0.298,0.237-0.561,0.422-0.786c0.185-0.227,0.411-0.405,0.68-0.538s0.573-0.199,0.915-0.199
		c0.332,0,0.625,0.052,0.881,0.156s0.473,0.252,0.647,0.443s0.308,0.424,0.397,0.696C154.97,14.377,155.015,14.683,155.015,15.021z
		 M154.156,14.902c0.01-0.212-0.011-0.405-0.061-0.58c-0.051-0.176-0.129-0.326-0.235-0.453c-0.105-0.126-0.237-0.225-0.396-0.296
		s-0.342-0.106-0.55-0.106c-0.181,0-0.345,0.034-0.493,0.104c-0.148,0.07-0.276,0.168-0.384,0.294
		c-0.107,0.127-0.194,0.278-0.26,0.455c-0.066,0.177-0.108,0.371-0.124,0.583H154.156z"/>
	<path fill="#010101" d="M160.156,17.651h-0.824v-2.104h-2.176v2.104h-0.824v-4.759h0.824v1.935h2.176v-1.935h0.824V17.651z"/>
	<path fill="#010101" d="M162.561,12.893v3.352l2.075-3.352h0.786v4.759h-0.824v-3.351l-2.076,3.351h-0.786v-4.759H162.561z"/>
	<path fill="#010101" d="M171.024,15.021c0,0.116-0.001,0.215-0.005,0.293c-0.003,0.079-0.008,0.153-0.014,0.223h-3.342
		c0,0.487,0.136,0.86,0.408,1.121c0.271,0.261,0.663,0.392,1.175,0.392c0.14,0,0.278-0.006,0.417-0.017
		c0.139-0.012,0.273-0.026,0.402-0.045c0.131-0.02,0.254-0.041,0.373-0.064c0.118-0.023,0.229-0.05,0.329-0.078v0.678
		c-0.225,0.063-0.478,0.114-0.761,0.154c-0.283,0.039-0.576,0.059-0.879,0.059c-0.408,0-0.759-0.055-1.053-0.166
		c-0.293-0.11-0.535-0.271-0.723-0.48s-0.326-0.468-0.417-0.772c-0.09-0.305-0.135-0.65-0.135-1.036c0-0.334,0.048-0.651,0.145-0.95
		c0.097-0.298,0.237-0.561,0.422-0.786c0.185-0.227,0.411-0.405,0.68-0.538s0.573-0.199,0.915-0.199
		c0.332,0,0.625,0.052,0.881,0.156s0.473,0.252,0.647,0.443s0.308,0.424,0.397,0.696C170.979,14.377,171.024,14.683,171.024,15.021z
		 M170.166,14.902c0.01-0.212-0.011-0.405-0.061-0.58c-0.051-0.176-0.129-0.326-0.235-0.453c-0.105-0.126-0.237-0.225-0.396-0.296
		s-0.342-0.106-0.55-0.106c-0.181,0-0.345,0.034-0.493,0.104c-0.148,0.07-0.276,0.168-0.384,0.294
		c-0.107,0.127-0.194,0.278-0.261,0.455s-0.107,0.371-0.123,0.583H170.166z"/>
</g>
<g enable-background="new    ">
	<path fill="#010101" d="M119.156,31.289c-1.457-1.349-2.185-2.84-2.185-4.474c0-0.382,0.039-0.764,0.116-1.145
		c0.077-0.381,0.202-0.763,0.374-1.145c0.172-0.383,0.4-0.765,0.683-1.147c0.283-0.382,0.626-0.761,1.031-1.137l0.479,0.488
		c-1.226,1.21-1.839,2.551-1.839,4.023c0,0.733,0.155,1.438,0.464,2.113c0.31,0.677,0.768,1.314,1.375,1.915L119.156,31.289z"/>
	<path fill="#010101" d="M125.663,26.669c0,0.116-0.001,0.215-0.005,0.293c-0.003,0.079-0.008,0.153-0.014,0.223h-3.341
		c0,0.487,0.136,0.86,0.408,1.121c0.271,0.261,0.664,0.392,1.175,0.392c0.139,0,0.278-0.006,0.417-0.017
		c0.139-0.012,0.273-0.026,0.403-0.045c0.13-0.02,0.254-0.041,0.372-0.064c0.119-0.023,0.229-0.05,0.33-0.078v0.678
		c-0.225,0.063-0.478,0.114-0.761,0.154c-0.283,0.039-0.576,0.059-0.879,0.059c-0.407,0-0.758-0.055-1.052-0.166
		c-0.294-0.11-0.535-0.271-0.723-0.48s-0.327-0.468-0.417-0.772c-0.09-0.305-0.135-0.65-0.135-1.036c0-0.334,0.048-0.651,0.145-0.95
		c0.096-0.298,0.237-0.561,0.422-0.786c0.185-0.227,0.411-0.405,0.68-0.538s0.574-0.199,0.915-0.199
		c0.332,0,0.625,0.052,0.881,0.156s0.472,0.252,0.647,0.443s0.308,0.424,0.398,0.696C125.618,26.024,125.663,26.33,125.663,26.669z
		 M124.805,26.55c0.01-0.212-0.011-0.405-0.062-0.58c-0.051-0.176-0.129-0.326-0.235-0.453c-0.105-0.126-0.238-0.225-0.396-0.296
		c-0.158-0.071-0.341-0.106-0.55-0.106c-0.18,0-0.344,0.034-0.493,0.104c-0.149,0.07-0.277,0.168-0.384,0.294
		c-0.107,0.127-0.194,0.278-0.26,0.455c-0.066,0.177-0.108,0.371-0.124,0.583H124.805z"/>
	<path fill="#010101" d="M131.398,28.588l-0.052,1.924h-0.754v-1.213h-3.469v1.213h-0.744l-0.047-1.924h0.066
		c0.12,0,0.234-0.019,0.341-0.057s0.207-0.11,0.298-0.216c0.092-0.105,0.176-0.253,0.254-0.44c0.077-0.188,0.147-0.432,0.208-0.73
		s0.115-0.661,0.161-1.088c0.046-0.426,0.084-0.932,0.116-1.517h2.938v4.048H131.398z M129.891,25.251h-1.327
		c-0.032,0.544-0.073,1.007-0.123,1.389c-0.051,0.383-0.11,0.703-0.178,0.963c-0.068,0.259-0.146,0.466-0.235,0.62
		c-0.088,0.155-0.187,0.276-0.294,0.365h2.157V25.251z"/>
	<path fill="#010101" d="M133.208,24.54v3.352l2.076-3.352h0.787v4.759h-0.824v-3.351l-2.076,3.351h-0.787V24.54H133.208z"/>
	<path fill="#010101" d="M141.479,29.299h-0.825v-2.104h-2.175v2.104h-0.825V24.54h0.825v1.935h2.175V24.54h0.825V29.299z"/>
	<path fill="#010101" d="M143.881,24.54v3.352l2.076-3.352h0.787v4.759h-0.824v-3.351l-2.076,3.351h-0.787V24.54H143.881z"/>
	<path fill="#010101" d="M152.683,28.588l-0.048,1.924h-0.749v-1.213h-3.597V24.54h0.825v4.048h2.171V24.54h0.825v4.048H152.683z"/>
	<path fill="#010101" d="M157.488,22.602l-3.252,7.716h-0.786l3.251-7.716H157.488z"/>
	<path fill="#010101" d="M163.133,25.251h-1.806v4.048h-0.835v-4.048h-1.805V24.54h4.445V25.251z"/>
	<path fill="#010101" d="M165.309,22.242c1.457,1.349,2.185,2.85,2.185,4.502c0,0.342-0.034,0.695-0.104,1.062
		c-0.069,0.367-0.188,0.742-0.355,1.126c-0.167,0.384-0.393,0.773-0.675,1.168c-0.282,0.396-0.64,0.792-1.069,1.189l-0.479-0.488
		c0.616-0.609,1.076-1.246,1.379-1.909c0.304-0.664,0.455-1.359,0.455-2.086c0-1.504-0.611-2.856-1.834-4.057L165.309,22.242z"/>
</g>
<rect x="218.705" y="3.833" fill="#C0D84C" width="77.65" height="22.268"/>
<rect x="220.943" y="10.954" fill="none" width="71.529" height="27.229"/>
<g enable-background="new    ">
	<path fill="#010101" d="M226.041,14.087c-0.029-0.322-0.086-0.607-0.174-0.855c-0.086-0.248-0.208-0.457-0.365-0.628
		c-0.156-0.17-0.35-0.299-0.58-0.386s-0.502-0.131-0.814-0.131c-0.263,0-0.517,0.031-0.762,0.093
		c-0.244,0.062-0.479,0.147-0.703,0.259V11.68c0.25-0.101,0.503-0.178,0.76-0.229c0.258-0.053,0.525-0.078,0.805-0.078
		c0.457,0,0.857,0.068,1.198,0.206c0.341,0.137,0.625,0.339,0.851,0.604c0.227,0.266,0.395,0.592,0.508,0.979
		c0.111,0.387,0.168,0.828,0.168,1.324c0,0.54-0.06,1.018-0.178,1.432c-0.119,0.414-0.299,0.757-0.543,1.028
		c-0.243,0.271-0.536,0.472-0.879,0.6s-0.734,0.191-1.173,0.191c-0.288,0-0.556-0.024-0.804-0.073s-0.486-0.124-0.713-0.225v-0.806
		c0.225,0.12,0.457,0.213,0.699,0.279c0.241,0.066,0.503,0.1,0.784,0.1c0.642,0,1.116-0.184,1.427-0.55
		c0.309-0.366,0.479-0.921,0.507-1.664h-2.952v-0.711H226.041z"/>
	<path fill="#010101" d="M230.415,19.595h-0.777v-1.877c-0.698-0.038-1.221-0.248-1.566-0.631c-0.347-0.382-0.519-0.98-0.519-1.796
		c0-0.407,0.05-0.759,0.151-1.055c0.101-0.295,0.243-0.542,0.427-0.739c0.183-0.197,0.402-0.35,0.658-0.457s0.539-0.179,0.849-0.214
		v-1.872h0.777v1.863c0.347,0.025,0.651,0.088,0.912,0.187c0.261,0.1,0.479,0.245,0.653,0.437c0.176,0.191,0.309,0.435,0.396,0.729
		c0.088,0.296,0.133,0.65,0.133,1.064c0,0.427-0.055,0.79-0.164,1.09c-0.108,0.301-0.258,0.548-0.447,0.742
		s-0.412,0.342-0.666,0.442c-0.254,0.102-0.527,0.168-0.817,0.199V19.595z M229.638,13.495c-0.218,0.031-0.411,0.096-0.578,0.191
		c-0.167,0.097-0.302,0.224-0.403,0.382s-0.173,0.338-0.215,0.54c-0.043,0.202-0.064,0.417-0.064,0.645
		c0,0.281,0.023,0.526,0.07,0.735c0.049,0.208,0.123,0.386,0.226,0.533c0.103,0.146,0.233,0.263,0.392,0.348
		c0.158,0.086,0.349,0.143,0.573,0.171V13.495z M230.415,17.04c0.218-0.031,0.409-0.095,0.573-0.189s0.297-0.22,0.398-0.375
		c0.101-0.154,0.176-0.333,0.225-0.535s0.074-0.422,0.074-0.659c0-0.306-0.028-0.566-0.084-0.781
		c-0.055-0.215-0.137-0.393-0.244-0.533s-0.24-0.247-0.397-0.32c-0.158-0.072-0.34-0.123-0.545-0.151V17.04z"/>
	<path fill="#010101" d="M235.752,19.595h-0.777v-1.877c-0.698-0.038-1.221-0.248-1.566-0.631c-0.346-0.382-0.52-0.98-0.52-1.796
		c0-0.407,0.051-0.759,0.152-1.055c0.102-0.295,0.243-0.542,0.426-0.739c0.184-0.197,0.403-0.35,0.659-0.457
		s0.538-0.179,0.849-0.214v-1.872h0.777v1.863c0.348,0.025,0.651,0.088,0.912,0.187c0.261,0.1,0.479,0.245,0.654,0.437
		s0.307,0.435,0.396,0.729c0.089,0.296,0.133,0.65,0.133,1.064c0,0.427-0.055,0.79-0.163,1.09c-0.109,0.301-0.259,0.548-0.448,0.742
		c-0.19,0.194-0.411,0.342-0.666,0.442c-0.255,0.102-0.526,0.168-0.817,0.199V19.595z M234.975,13.495
		c-0.219,0.031-0.411,0.096-0.578,0.191c-0.168,0.097-0.302,0.224-0.402,0.382c-0.102,0.158-0.174,0.338-0.217,0.54
		c-0.042,0.202-0.063,0.417-0.063,0.645c0,0.281,0.023,0.526,0.071,0.735c0.047,0.208,0.122,0.386,0.225,0.533
		c0.104,0.146,0.233,0.263,0.391,0.348c0.158,0.086,0.35,0.143,0.574,0.171V13.495z M235.752,17.04
		c0.218-0.031,0.408-0.095,0.573-0.189c0.164-0.095,0.297-0.22,0.397-0.375c0.102-0.154,0.177-0.333,0.226-0.535
		c0.05-0.202,0.073-0.422,0.073-0.659c0-0.306-0.027-0.566-0.082-0.781c-0.056-0.215-0.137-0.393-0.244-0.533
		s-0.24-0.247-0.398-0.32c-0.158-0.072-0.34-0.123-0.545-0.151V17.04z"/>
	<path fill="#010101" d="M242.809,15.021c0,0.116-0.002,0.215-0.005,0.293c-0.003,0.079-0.008,0.153-0.015,0.223h-3.341
		c0,0.487,0.136,0.86,0.407,1.121s0.664,0.392,1.176,0.392c0.139,0,0.277-0.006,0.417-0.017c0.14-0.012,0.273-0.026,0.403-0.045
		c0.129-0.02,0.254-0.041,0.371-0.064c0.119-0.023,0.229-0.05,0.33-0.078v0.678c-0.225,0.063-0.479,0.114-0.761,0.154
		c-0.282,0.039-0.575,0.059-0.88,0.059c-0.406,0-0.758-0.055-1.051-0.166c-0.295-0.11-0.535-0.271-0.724-0.48
		s-0.327-0.468-0.417-0.772s-0.135-0.65-0.135-1.036c0-0.334,0.048-0.651,0.145-0.95c0.096-0.298,0.236-0.561,0.422-0.786
		c0.185-0.227,0.411-0.405,0.68-0.538s0.574-0.199,0.915-0.199c0.331,0,0.626,0.052,0.882,0.156s0.471,0.252,0.646,0.443
		s0.309,0.424,0.398,0.696C242.764,14.377,242.809,14.683,242.809,15.021z M241.951,14.902c0.01-0.212-0.012-0.405-0.063-0.58
		c-0.051-0.176-0.129-0.326-0.234-0.453c-0.105-0.126-0.238-0.225-0.396-0.296c-0.158-0.071-0.341-0.106-0.55-0.106
		c-0.18,0-0.344,0.034-0.492,0.104c-0.149,0.07-0.277,0.168-0.385,0.294c-0.107,0.127-0.194,0.278-0.26,0.455
		c-0.066,0.177-0.108,0.371-0.124,0.583H241.951z"/>
	<path fill="#010101" d="M248.406,17.651h-1.133l-2.219-2.55v2.55h-0.824v-4.759h0.824v2.176l2.138-2.176h1.09l-2.231,2.194
		L248.406,17.651z"/>
	<path fill="#010101" d="M253.596,13.604h-1.807v4.048h-0.834v-4.048h-1.806v-0.711h4.446V13.604z"/>
	<path fill="#010101" d="M255.69,12.893v3.352l2.075-3.352h0.787v4.759h-0.824v-3.351l-2.076,3.351h-0.787v-4.759H255.69z"/>
	<path fill="#010101" d="M264.221,16.263c0,0.218-0.045,0.417-0.137,0.598c-0.092,0.18-0.234,0.334-0.427,0.462
		s-0.437,0.228-0.732,0.298c-0.296,0.071-0.647,0.107-1.054,0.107c-0.27,0-0.555-0.011-0.858-0.031s-0.596-0.048-0.877-0.083v-4.696
		c0.297-0.035,0.599-0.062,0.903-0.081c0.305-0.019,0.634-0.028,0.988-0.028c0.641,0,1.128,0.105,1.461,0.315
		c0.334,0.21,0.5,0.513,0.5,0.907c0,0.269-0.076,0.499-0.231,0.692c-0.155,0.192-0.389,0.335-0.702,0.427
		c0.152,0.024,0.299,0.066,0.439,0.125s0.264,0.135,0.371,0.228c0.107,0.094,0.193,0.203,0.259,0.329
		C264.188,15.958,264.221,16.102,264.221,16.263z M263.146,14.196c0-0.11-0.022-0.21-0.066-0.299
		c-0.044-0.088-0.114-0.164-0.211-0.228c-0.097-0.063-0.224-0.111-0.38-0.145s-0.345-0.05-0.566-0.05
		c-0.198,0-0.372,0.004-0.521,0.013c-0.149,0.008-0.296,0.021-0.44,0.04v1.374h0.957C262.736,14.902,263.146,14.667,263.146,14.196z
		 M263.35,16.281c0-0.246-0.111-0.432-0.334-0.557c-0.224-0.125-0.57-0.188-1.041-0.188h-1.014v1.455
		c0.154,0.025,0.308,0.043,0.459,0.053c0.152,0.01,0.326,0.014,0.521,0.014c0.281,0,0.513-0.019,0.694-0.057
		s0.325-0.092,0.431-0.161c0.106-0.069,0.18-0.151,0.221-0.246S263.35,16.396,263.35,16.281z"/>
	<path fill="#010101" d="M269.297,17.651h-0.824v-2.104h-2.176v2.104h-0.824v-4.759h0.824v1.935h2.176v-1.935h0.824V17.651z"/>
	<path fill="#010101" d="M274.951,15.234c0,0.369-0.052,0.708-0.156,1.017c-0.104,0.308-0.254,0.572-0.45,0.791
		c-0.196,0.22-0.435,0.391-0.716,0.513c-0.281,0.121-0.6,0.182-0.957,0.182c-0.342,0-0.646-0.053-0.918-0.158
		c-0.27-0.106-0.498-0.262-0.687-0.467c-0.188-0.206-0.331-0.46-0.431-0.764c-0.1-0.303-0.15-0.652-0.15-1.047
		c0-0.37,0.053-0.707,0.156-1.012c0.105-0.306,0.255-0.567,0.451-0.787c0.195-0.22,0.434-0.39,0.715-0.512s0.601-0.183,0.958-0.183
		c0.341,0,0.647,0.053,0.917,0.159c0.27,0.105,0.499,0.261,0.688,0.464c0.188,0.204,0.332,0.458,0.432,0.761
		C274.901,14.495,274.951,14.843,274.951,15.234z M274.107,15.272c0-0.294-0.032-0.551-0.097-0.771
		c-0.065-0.22-0.157-0.402-0.277-0.55c-0.12-0.146-0.267-0.258-0.438-0.332s-0.364-0.111-0.576-0.111
		c-0.246,0-0.457,0.049-0.633,0.145c-0.175,0.097-0.318,0.226-0.431,0.387s-0.194,0.349-0.247,0.562
		c-0.052,0.213-0.078,0.437-0.078,0.671c0,0.294,0.033,0.551,0.098,0.772c0.064,0.221,0.157,0.405,0.277,0.552
		c0.119,0.147,0.266,0.258,0.436,0.332c0.171,0.074,0.363,0.111,0.578,0.111c0.246,0,0.457-0.048,0.633-0.145
		s0.319-0.226,0.432-0.387c0.111-0.161,0.194-0.348,0.246-0.562C274.082,15.734,274.107,15.509,274.107,15.272z"/>
	<path fill="#010101" d="M279.842,17.476c-0.215,0.083-0.436,0.144-0.66,0.183c-0.227,0.04-0.459,0.06-0.699,0.06
		c-0.752,0-1.332-0.204-1.737-0.611c-0.406-0.407-0.608-1.003-0.608-1.787c0-0.376,0.058-0.717,0.175-1.023
		c0.116-0.307,0.281-0.568,0.493-0.787c0.211-0.218,0.464-0.386,0.758-0.505c0.294-0.118,0.617-0.178,0.972-0.178
		c0.247,0,0.478,0.018,0.692,0.053s0.42,0.092,0.615,0.171v0.786c-0.205-0.107-0.414-0.186-0.627-0.234
		c-0.214-0.049-0.434-0.073-0.662-0.073c-0.211,0-0.411,0.04-0.6,0.121c-0.188,0.08-0.353,0.196-0.494,0.348
		c-0.143,0.152-0.255,0.337-0.337,0.555c-0.083,0.218-0.124,0.465-0.124,0.739c0,0.575,0.141,1.006,0.42,1.292
		c0.279,0.285,0.668,0.429,1.164,0.429c0.224,0,0.441-0.025,0.651-0.076s0.413-0.126,0.608-0.228V17.476z"/>
	<path fill="#010101" d="M285.615,13.604h-1.807v4.048h-0.834v-4.048h-1.806v-0.711h4.446V13.604z"/>
	<path fill="#010101" d="M287.672,14.689c0.078-0.003,0.158-0.006,0.236-0.007c0.079-0.002,0.16-0.004,0.242-0.005
		c0.082-0.002,0.169-0.004,0.26-0.005c0.092-0.002,0.191-0.003,0.299-0.003c0.733,0,1.277,0.126,1.633,0.377
		s0.533,0.619,0.533,1.103c0,0.518-0.188,0.907-0.563,1.168s-0.944,0.391-1.706,0.391c-0.345,0-0.656-0.007-0.937-0.021
		c-0.279-0.014-0.554-0.038-0.822-0.073v-4.721h0.825V14.689z M290.021,16.168c0-0.133-0.023-0.249-0.072-0.349
		s-0.128-0.183-0.234-0.251c-0.108-0.067-0.247-0.119-0.418-0.154c-0.17-0.034-0.376-0.052-0.615-0.052
		c-0.152,0-0.318,0.002-0.498,0.005s-0.352,0.008-0.512,0.014v1.588c0.16,0.016,0.316,0.028,0.467,0.036
		c0.149,0.008,0.314,0.012,0.495,0.012c0.265,0,0.486-0.017,0.663-0.05c0.178-0.033,0.319-0.084,0.427-0.152
		c0.107-0.067,0.185-0.155,0.229-0.263C289.999,16.444,290.021,16.316,290.021,16.168z"/>
</g>
<rect x="218.705" y="46.655" fill="#C0D84C" width="77.65" height="22.267"/>
<rect x="220.943" y="53.776" fill="none" width="71.529" height="27.229"/>
<g enable-background="new    ">
	<path fill="#010101" d="M248.184,58.619c0,0.298-0.059,0.561-0.174,0.789c-0.115,0.229-0.279,0.423-0.492,0.581
		c-0.214,0.158-0.471,0.278-0.773,0.36c-0.301,0.082-0.637,0.123-1.007,0.123h-1.62v-6.194h1.771c1.381,0,2.071,0.502,2.071,1.507
		c0,0.335-0.079,0.623-0.239,0.863c-0.16,0.239-0.42,0.418-0.779,0.535c0.167,0.031,0.326,0.085,0.477,0.161
		c0.149,0.076,0.281,0.174,0.396,0.294c0.113,0.12,0.204,0.262,0.271,0.427C248.15,58.229,248.184,58.414,248.184,58.619z
		 M247.084,55.899c0-0.127-0.02-0.246-0.058-0.358s-0.104-0.208-0.198-0.289c-0.096-0.08-0.224-0.145-0.385-0.191
		c-0.161-0.048-0.365-0.071-0.611-0.071h-0.872v1.938h0.844c0.192,0,0.367-0.021,0.524-0.062c0.156-0.041,0.29-0.104,0.402-0.189
		c0.111-0.086,0.199-0.192,0.26-0.32C247.053,56.229,247.084,56.076,247.084,55.899z M247.287,58.648c0-0.158-0.033-0.301-0.1-0.427
		c-0.066-0.127-0.162-0.233-0.289-0.32s-0.28-0.154-0.462-0.201c-0.182-0.048-0.386-0.071-0.614-0.071h-0.862v2.133h0.892
		c0.482,0,0.844-0.09,1.08-0.271C247.168,59.312,247.287,59.03,247.287,58.648z"/>
	<path fill="#010101" d="M249.908,57.553c0.113-0.003,0.221-0.005,0.32-0.007c0.099-0.001,0.202-0.002,0.31-0.002
		c0.297,0,0.558,0.035,0.78,0.106s0.408,0.171,0.557,0.299s0.259,0.281,0.332,0.459c0.072,0.179,0.108,0.372,0.108,0.581
		c0,0.253-0.042,0.475-0.128,0.666s-0.207,0.352-0.365,0.48c-0.158,0.13-0.352,0.228-0.58,0.294c-0.229,0.066-0.502,0.1-0.818,0.1
		c-0.201,0-0.416-0.005-0.642-0.017c-0.226-0.011-0.456-0.034-0.689-0.068v-4.73h0.815V57.553z M251.463,59.013
		c0-0.249-0.078-0.443-0.234-0.58c-0.157-0.138-0.406-0.206-0.747-0.206c-0.092,0-0.185,0.001-0.28,0.004
		c-0.094,0.004-0.192,0.009-0.293,0.015v1.564c0.101,0.016,0.197,0.025,0.289,0.03s0.184,0.007,0.274,0.007
		c0.192,0,0.353-0.022,0.479-0.068c0.126-0.046,0.227-0.106,0.301-0.183c0.074-0.075,0.127-0.164,0.16-0.266
		C251.445,59.229,251.463,59.124,251.463,59.013z M252.837,60.473v-4.759h0.815v4.759H252.837z"/>
	<path fill="#010101" d="M259.088,60.473h-1.094l-1.285-1.815l-1.27,1.815h-1.066l1.844-2.389l-1.759-2.37h1.058l1.25,1.83
		l1.229-1.83h1.019l-1.786,2.389L259.088,60.473z"/>
	<path fill="#010101" d="M264.277,58.056c0,0.369-0.051,0.708-0.156,1.017c-0.104,0.308-0.254,0.572-0.449,0.791
		c-0.196,0.22-0.436,0.391-0.717,0.513c-0.281,0.121-0.6,0.182-0.957,0.182c-0.341,0-0.646-0.053-0.917-0.158
		c-0.271-0.106-0.499-0.262-0.687-0.467c-0.188-0.206-0.332-0.46-0.432-0.764c-0.1-0.303-0.149-0.652-0.149-1.047
		c0-0.37,0.052-0.707,0.156-1.012c0.104-0.306,0.255-0.567,0.45-0.787c0.196-0.22,0.435-0.39,0.716-0.512s0.601-0.183,0.958-0.183
		c0.341,0,0.646,0.053,0.916,0.159c0.271,0.105,0.5,0.261,0.688,0.464c0.188,0.204,0.332,0.458,0.432,0.761
		C264.229,57.316,264.277,57.664,264.277,58.056z M263.435,58.094c0-0.294-0.032-0.551-0.097-0.771
		c-0.065-0.22-0.158-0.402-0.277-0.55c-0.121-0.146-0.267-0.258-0.439-0.332c-0.172-0.074-0.363-0.111-0.575-0.111
		c-0.247,0-0.458,0.049-0.633,0.145c-0.175,0.097-0.319,0.226-0.431,0.387c-0.113,0.161-0.195,0.349-0.247,0.562
		s-0.078,0.437-0.078,0.671c0,0.294,0.032,0.551,0.097,0.772c0.064,0.221,0.158,0.405,0.277,0.552
		c0.12,0.147,0.266,0.258,0.436,0.332c0.172,0.074,0.364,0.111,0.579,0.111c0.246,0,0.457-0.048,0.632-0.145
		c0.176-0.097,0.32-0.226,0.432-0.387c0.112-0.161,0.195-0.348,0.246-0.562C263.408,58.556,263.435,58.33,263.435,58.094z"/>
	<path fill="#010101" d="M269.889,59.762l-0.051,1.924h-0.754v-1.213h-3.47v1.213h-0.744l-0.048-1.924h0.066
		c0.121,0,0.234-0.019,0.342-0.057s0.207-0.11,0.299-0.216s0.176-0.253,0.254-0.44c0.076-0.188,0.146-0.432,0.208-0.73
		s0.115-0.661,0.161-1.088c0.046-0.426,0.084-0.932,0.116-1.517h2.938v4.048H269.889z M268.383,56.425h-1.328
		c-0.031,0.544-0.072,1.007-0.123,1.389c-0.051,0.383-0.109,0.703-0.178,0.963c-0.068,0.259-0.146,0.466-0.234,0.62
		c-0.088,0.155-0.187,0.276-0.294,0.365h2.157V56.425z"/>
</g>
<rect x="218.705" y="90.048" fill="#C0D84C" width="77.65" height="22.269"/>
<rect x="220.943" y="97.169" fill="none" width="71.529" height="27.229"/>
<g enable-background="new    ">
	<path fill="#010101" d="M237.799,103.867h-0.824l-0.123-3.862l-0.053-1.483l-0.289,0.862l-0.914,2.465h-0.584l-0.871-2.37
		l-0.289-0.957l-0.02,1.55l-0.109,3.796h-0.795l0.303-6.194h1l0.834,2.332l0.27,0.786l0.262-0.786l0.877-2.332h1.027
		L237.799,103.867z"/>
	<path fill="#010101" d="M241.847,103.867l-0.019-0.64c-0.26,0.256-0.523,0.44-0.789,0.555c-0.268,0.113-0.548,0.17-0.842,0.17
		c-0.271,0-0.504-0.034-0.697-0.104c-0.192-0.07-0.352-0.165-0.477-0.287c-0.124-0.122-0.216-0.265-0.273-0.429
		c-0.059-0.164-0.088-0.343-0.088-0.536c0-0.477,0.178-0.851,0.533-1.12c0.355-0.271,0.881-0.405,1.575-0.405h0.985v-0.417
		c0-0.281-0.09-0.507-0.27-0.676s-0.455-0.254-0.824-0.254c-0.27,0-0.533,0.03-0.795,0.091c-0.26,0.06-0.529,0.145-0.808,0.256
		v-0.744c0.104-0.038,0.221-0.075,0.349-0.111c0.128-0.037,0.263-0.069,0.405-0.098c0.142-0.028,0.29-0.051,0.445-0.068
		s0.312-0.026,0.47-0.026c0.287,0,0.546,0.031,0.777,0.095c0.23,0.063,0.426,0.16,0.584,0.289c0.16,0.13,0.283,0.292,0.368,0.488
		s0.128,0.427,0.128,0.692v3.279H241.847z M241.756,101.701h-1.047c-0.205,0-0.383,0.021-0.531,0.062s-0.27,0.1-0.364,0.176
		c-0.095,0.075-0.165,0.166-0.211,0.272c-0.046,0.105-0.069,0.225-0.069,0.357c0,0.092,0.015,0.18,0.043,0.264
		c0.028,0.083,0.074,0.157,0.138,0.223c0.063,0.064,0.146,0.116,0.246,0.153c0.101,0.038,0.225,0.058,0.37,0.058
		c0.189,0,0.406-0.058,0.651-0.173c0.245-0.116,0.503-0.298,0.774-0.548V101.701z"/>
	<path fill="#010101" d="M248.26,99.819h-1.807v4.048h-0.834v-4.048h-1.806v-0.711h4.446V99.819z"/>
	<path fill="#010101" d="M253.482,101.237c0,0.116-0.002,0.215-0.006,0.293c-0.002,0.079-0.008,0.153-0.014,0.223h-3.342
		c0,0.487,0.137,0.86,0.408,1.121s0.664,0.392,1.176,0.392c0.139,0,0.277-0.006,0.416-0.017c0.14-0.012,0.273-0.026,0.403-0.045
		c0.13-0.02,0.254-0.041,0.372-0.064c0.119-0.023,0.229-0.05,0.33-0.078v0.678c-0.225,0.063-0.479,0.114-0.762,0.154
		c-0.282,0.039-0.575,0.059-0.879,0.059c-0.407,0-0.758-0.055-1.052-0.166c-0.294-0.11-0.535-0.271-0.724-0.48
		c-0.188-0.21-0.326-0.468-0.416-0.772s-0.135-0.65-0.135-1.036c0-0.334,0.047-0.651,0.145-0.95
		c0.096-0.298,0.236-0.561,0.422-0.786c0.184-0.227,0.41-0.405,0.68-0.538c0.268-0.133,0.573-0.199,0.914-0.199
		c0.332,0,0.626,0.052,0.882,0.156s0.472,0.252,0.647,0.443c0.175,0.191,0.308,0.424,0.397,0.696
		C253.438,100.593,253.482,100.898,253.482,101.237z M252.624,101.118c0.01-0.212-0.011-0.405-0.062-0.58
		c-0.051-0.176-0.129-0.326-0.234-0.453c-0.105-0.126-0.238-0.225-0.396-0.296s-0.341-0.106-0.549-0.106
		c-0.181,0-0.345,0.034-0.493,0.104c-0.149,0.07-0.276,0.168-0.384,0.294c-0.107,0.127-0.195,0.278-0.261,0.455
		c-0.066,0.177-0.108,0.371-0.124,0.583H252.624z"/>
	<path fill="#010101" d="M258.865,101.402c0,0.424-0.059,0.794-0.178,1.109c-0.118,0.316-0.281,0.578-0.49,0.787
		c-0.209,0.208-0.455,0.364-0.739,0.469s-0.593,0.156-0.924,0.156c-0.151,0-0.303-0.008-0.452-0.023
		c-0.15-0.016-0.303-0.043-0.458-0.081v1.991h-0.825v-6.702h0.734l0.053,0.797c0.237-0.325,0.49-0.554,0.758-0.686
		c0.27-0.131,0.561-0.196,0.873-0.196c0.271,0,0.51,0.057,0.715,0.171c0.205,0.113,0.378,0.274,0.518,0.48
		c0.139,0.207,0.242,0.457,0.313,0.749C258.831,100.716,258.865,101.043,258.865,101.402z M258.021,101.44
		c0-0.249-0.018-0.479-0.054-0.688c-0.036-0.208-0.095-0.387-0.173-0.535c-0.079-0.148-0.18-0.265-0.304-0.349
		c-0.123-0.083-0.271-0.125-0.44-0.125c-0.104,0-0.211,0.017-0.318,0.05s-0.219,0.088-0.334,0.166
		c-0.115,0.077-0.236,0.18-0.365,0.308c-0.127,0.128-0.264,0.287-0.409,0.477v2.308c0.151,0.063,0.312,0.113,0.479,0.149
		s0.332,0.055,0.493,0.055c0.445,0,0.795-0.151,1.047-0.453C257.896,102.502,258.021,102.047,258.021,101.44z"/>
	<path fill="#010101" d="M261.027,99.108v3.352l2.075-3.352h0.786v4.759h-0.824v-3.351l-2.076,3.351h-0.786v-4.759H261.027z"/>
	<path fill="#010101" d="M268.529,103.867l-0.019-0.64c-0.259,0.256-0.522,0.44-0.789,0.555c-0.267,0.113-0.548,0.17-0.841,0.17
		c-0.272,0-0.504-0.034-0.697-0.104c-0.193-0.07-0.352-0.165-0.477-0.287s-0.217-0.265-0.274-0.429
		c-0.059-0.164-0.088-0.343-0.088-0.536c0-0.477,0.178-0.851,0.533-1.12c0.355-0.271,0.881-0.405,1.575-0.405h0.986v-0.417
		c0-0.281-0.09-0.507-0.27-0.676c-0.181-0.169-0.455-0.254-0.825-0.254c-0.269,0-0.533,0.03-0.794,0.091
		c-0.261,0.06-0.529,0.145-0.809,0.256v-0.744c0.105-0.038,0.221-0.075,0.35-0.111c0.127-0.037,0.262-0.069,0.404-0.098
		s0.291-0.051,0.445-0.068c0.155-0.018,0.312-0.026,0.47-0.026c0.288,0,0.546,0.031,0.777,0.095c0.23,0.063,0.426,0.16,0.585,0.289
		c0.16,0.13,0.282,0.292,0.367,0.488c0.086,0.196,0.129,0.427,0.129,0.692v3.279H268.529z M268.439,101.701h-1.047
		c-0.206,0-0.383,0.021-0.531,0.062s-0.27,0.1-0.365,0.176c-0.095,0.075-0.165,0.166-0.211,0.272
		c-0.045,0.105-0.068,0.225-0.068,0.357c0,0.092,0.014,0.18,0.043,0.264c0.027,0.083,0.074,0.157,0.137,0.223
		c0.063,0.064,0.146,0.116,0.246,0.153c0.102,0.038,0.225,0.058,0.371,0.058c0.189,0,0.406-0.058,0.65-0.173
		c0.246-0.116,0.504-0.298,0.775-0.548V101.701z"/>
	<path fill="#010101" d="M274.592,103.867h-0.825v-4.048h-1.327c-0.038,0.651-0.094,1.209-0.168,1.674
		c-0.074,0.464-0.164,0.852-0.268,1.163c-0.105,0.312-0.223,0.557-0.355,0.734c-0.133,0.179-0.276,0.309-0.43,0.389
		c-0.152,0.081-0.314,0.12-0.485,0.119c-0.171-0.002-0.347-0.025-0.526-0.069l0.038-0.683c0.126,0.013,0.245,0.007,0.355-0.019
		s0.214-0.086,0.308-0.183c0.096-0.097,0.182-0.235,0.259-0.417s0.147-0.424,0.211-0.728s0.118-0.676,0.163-1.116
		c0.046-0.44,0.083-0.966,0.111-1.576h2.939V103.867z"/>
	<path fill="#010101" d="M276.591,100.947c0.114-0.003,0.221-0.005,0.32-0.007c0.099-0.001,0.202-0.002,0.31-0.002
		c0.297,0,0.558,0.035,0.78,0.106s0.408,0.171,0.558,0.299c0.148,0.128,0.258,0.281,0.331,0.459
		c0.073,0.179,0.108,0.372,0.108,0.581c0,0.253-0.042,0.475-0.127,0.666c-0.086,0.191-0.207,0.352-0.365,0.48
		c-0.158,0.13-0.352,0.228-0.58,0.294c-0.23,0.066-0.502,0.1-0.818,0.1c-0.202,0-0.416-0.005-0.643-0.017
		c-0.226-0.011-0.455-0.034-0.689-0.068v-4.73h0.815V100.947z M278.146,102.407c0-0.249-0.078-0.443-0.234-0.58
		c-0.157-0.138-0.405-0.206-0.747-0.206c-0.092,0-0.185,0.001-0.279,0.004c-0.095,0.004-0.193,0.009-0.294,0.015v1.564
		c0.101,0.016,0.198,0.025,0.289,0.03c0.092,0.005,0.184,0.007,0.274,0.007c0.193,0,0.354-0.022,0.479-0.068
		s0.227-0.106,0.301-0.183c0.074-0.075,0.128-0.164,0.161-0.266C278.129,102.624,278.146,102.519,278.146,102.407z M279.52,103.867
		v-4.759h0.815v4.759H279.52z"/>
</g>
<rect x="218.705" y="132.87" fill="#C0D84C" width="77.65" height="22.267"/>
<rect x="220.943" y="139.99" fill="none" width="71.529" height="27.23"/>
<g enable-background="new    ">
	<path fill="#010101" d="M229.619,141.214h-1.834v5.474h-0.854v-5.474h-1.834v-0.721h4.521V141.214z"/>
	<path fill="#010101" d="M234.852,144.223c0,0.424-0.06,0.794-0.178,1.109c-0.119,0.316-0.282,0.578-0.491,0.787
		c-0.208,0.208-0.454,0.364-0.739,0.469c-0.284,0.104-0.592,0.156-0.924,0.156c-0.152,0-0.303-0.008-0.453-0.023
		s-0.303-0.043-0.457-0.081v1.991h-0.824v-6.702h0.734l0.052,0.797c0.237-0.325,0.489-0.554,0.759-0.686
		c0.268-0.131,0.559-0.196,0.871-0.196c0.272,0,0.511,0.057,0.717,0.171c0.205,0.113,0.377,0.274,0.516,0.48
		c0.14,0.207,0.244,0.457,0.313,0.749C234.816,143.536,234.852,143.863,234.852,144.223z M234.008,144.261
		c0-0.249-0.019-0.479-0.055-0.688c-0.037-0.208-0.094-0.387-0.174-0.535c-0.078-0.148-0.18-0.265-0.303-0.349
		c-0.123-0.083-0.27-0.125-0.44-0.125c-0.104,0-0.21,0.017-0.317,0.05s-0.219,0.088-0.334,0.166
		c-0.115,0.077-0.237,0.18-0.365,0.308c-0.129,0.128-0.266,0.287-0.41,0.477v2.308c0.152,0.063,0.311,0.113,0.479,0.149
		s0.332,0.055,0.493,0.055c0.445,0,0.794-0.151,1.048-0.453C233.881,145.322,234.008,144.867,234.008,144.261z"/>
	<path fill="#010101" d="M240.354,141.929l-1.621,4.257c-0.167,0.433-0.34,0.806-0.519,1.118s-0.374,0.569-0.585,0.771
		c-0.212,0.2-0.444,0.348-0.697,0.442c-0.252,0.095-0.535,0.143-0.848,0.143c-0.082,0-0.156-0.002-0.223-0.005
		s-0.14-0.008-0.219-0.015v-0.748c0.07,0.009,0.146,0.018,0.229,0.025c0.082,0.008,0.168,0.013,0.26,0.013
		c0.152,0,0.293-0.022,0.424-0.066c0.132-0.045,0.256-0.116,0.373-0.216c0.116-0.1,0.229-0.229,0.336-0.387s0.212-0.349,0.313-0.573
		l-1.9-4.759h0.938l1.204,3.147l0.242,0.739l0.274-0.758l1.114-3.129H240.354z"/>
	<path fill="#010101" d="M245.875,145.977l-0.052,1.924h-0.754v-1.213h-3.47v1.213h-0.744l-0.047-1.924h0.066
		c0.12,0,0.234-0.019,0.342-0.057s0.207-0.11,0.298-0.216c0.092-0.105,0.177-0.253,0.254-0.44c0.077-0.188,0.147-0.432,0.208-0.73
		c0.063-0.299,0.115-0.661,0.162-1.088c0.045-0.426,0.084-0.932,0.115-1.517h2.939v4.048H245.875z M244.368,142.64h-1.327
		c-0.031,0.544-0.072,1.007-0.123,1.389c-0.051,0.383-0.109,0.703-0.178,0.963c-0.068,0.259-0.146,0.466-0.234,0.62
		c-0.089,0.155-0.188,0.276-0.295,0.365h2.157V142.64z"/>
	<path fill="#010101" d="M250.937,144.271c0,0.369-0.052,0.708-0.156,1.017c-0.104,0.308-0.255,0.572-0.45,0.791
		c-0.195,0.22-0.435,0.391-0.716,0.513c-0.281,0.121-0.601,0.182-0.957,0.182c-0.341,0-0.647-0.053-0.917-0.158
		c-0.271-0.106-0.5-0.262-0.688-0.467c-0.188-0.206-0.332-0.46-0.432-0.764c-0.1-0.303-0.148-0.652-0.148-1.047
		c0-0.37,0.052-0.707,0.156-1.012c0.104-0.306,0.254-0.567,0.449-0.787c0.197-0.22,0.436-0.39,0.717-0.512s0.6-0.183,0.957-0.183
		c0.342,0,0.646,0.053,0.917,0.159c0.271,0.105,0.499,0.261,0.687,0.464c0.188,0.204,0.332,0.458,0.432,0.761
		C250.887,143.531,250.937,143.879,250.937,144.271z M250.094,144.309c0-0.294-0.033-0.551-0.098-0.771s-0.157-0.402-0.277-0.55
		c-0.12-0.146-0.266-0.258-0.438-0.332s-0.364-0.111-0.575-0.111c-0.247,0-0.458,0.049-0.633,0.145
		c-0.176,0.097-0.32,0.226-0.432,0.387c-0.112,0.161-0.194,0.349-0.246,0.562c-0.053,0.213-0.078,0.437-0.078,0.671
		c0,0.294,0.031,0.551,0.097,0.772c0.064,0.221,0.157,0.405,0.276,0.552c0.121,0.147,0.266,0.258,0.437,0.332
		s0.364,0.111,0.579,0.111c0.246,0,0.457-0.048,0.632-0.145c0.176-0.097,0.319-0.226,0.432-0.387s0.194-0.348,0.246-0.562
		C250.066,144.771,250.094,144.545,250.094,144.309z"/>
	<path fill="#010101" d="M252.003,145.834c0.14,0.038,0.288,0.071,0.445,0.1c0.158,0.028,0.314,0.054,0.47,0.076
		c0.154,0.022,0.304,0.039,0.447,0.05c0.145,0.011,0.273,0.017,0.387,0.017c0.268,0,0.492-0.018,0.67-0.052
		c0.18-0.035,0.321-0.085,0.428-0.149c0.105-0.065,0.18-0.145,0.225-0.237c0.044-0.093,0.066-0.198,0.066-0.315
		c0-0.113-0.02-0.217-0.06-0.311c-0.04-0.093-0.11-0.174-0.214-0.244c-0.102-0.069-0.242-0.123-0.419-0.161
		c-0.177-0.037-0.403-0.057-0.678-0.057h-1.165v-0.64h1.16c0.24,0,0.438-0.016,0.59-0.047c0.154-0.032,0.274-0.078,0.363-0.138
		c0.088-0.061,0.148-0.133,0.18-0.218c0.031-0.086,0.048-0.184,0.048-0.294c0-0.107-0.021-0.203-0.06-0.287
		s-0.105-0.154-0.197-0.213c-0.091-0.059-0.213-0.104-0.364-0.136c-0.151-0.031-0.34-0.047-0.563-0.047
		c-0.247,0-0.518,0.018-0.811,0.052c-0.295,0.035-0.588,0.086-0.882,0.151v-0.696c0.13-0.028,0.269-0.056,0.419-0.08
		c0.15-0.025,0.303-0.046,0.457-0.063c0.155-0.016,0.31-0.028,0.463-0.037c0.153-0.01,0.299-0.015,0.438-0.015
		c0.372,0,0.685,0.031,0.934,0.093s0.45,0.147,0.603,0.258c0.15,0.111,0.258,0.242,0.322,0.394c0.063,0.151,0.094,0.317,0.094,0.498
		c0,0.132-0.019,0.258-0.057,0.376c-0.037,0.119-0.096,0.226-0.176,0.32c-0.078,0.095-0.179,0.176-0.301,0.242
		c-0.121,0.065-0.268,0.113-0.438,0.142c0.17,0.025,0.328,0.067,0.474,0.126s0.271,0.136,0.376,0.232
		c0.106,0.096,0.189,0.211,0.252,0.343c0.062,0.133,0.092,0.285,0.092,0.455c0,0.209-0.04,0.402-0.121,0.581
		c-0.08,0.179-0.212,0.332-0.395,0.46c-0.184,0.128-0.426,0.228-0.726,0.301c-0.3,0.072-0.669,0.108-1.104,0.108
		c-0.117,0-0.246-0.004-0.387-0.012s-0.285-0.019-0.436-0.033c-0.15-0.014-0.298-0.031-0.443-0.052
		c-0.145-0.021-0.281-0.045-0.407-0.073V145.834z"/>
	<path fill="#010101" d="M260.525,146.688l-0.02-0.64c-0.26,0.256-0.522,0.44-0.789,0.555c-0.268,0.113-0.547,0.17-0.842,0.17
		c-0.271,0-0.504-0.034-0.696-0.104c-0.192-0.07-0.352-0.165-0.477-0.287c-0.124-0.122-0.216-0.265-0.274-0.429
		s-0.088-0.343-0.088-0.536c0-0.477,0.178-0.851,0.533-1.12c0.355-0.271,0.881-0.405,1.576-0.405h0.985v-0.417
		c0-0.281-0.09-0.507-0.271-0.676c-0.18-0.169-0.455-0.254-0.824-0.254c-0.269,0-0.533,0.03-0.794,0.091
		c-0.261,0.06-0.53,0.145-0.808,0.256v-0.744c0.104-0.038,0.221-0.075,0.348-0.111c0.129-0.037,0.264-0.069,0.406-0.098
		c0.142-0.028,0.29-0.051,0.445-0.068c0.154-0.018,0.311-0.026,0.469-0.026c0.287,0,0.547,0.031,0.777,0.095s0.426,0.16,0.585,0.289
		c0.159,0.13,0.282,0.292,0.368,0.488c0.084,0.196,0.127,0.427,0.127,0.692v3.279H260.525z M260.435,144.521h-1.048
		c-0.205,0-0.382,0.021-0.53,0.062s-0.271,0.1-0.364,0.176c-0.096,0.075-0.166,0.166-0.211,0.272
		c-0.047,0.105-0.069,0.225-0.069,0.357c0,0.092,0.015,0.18,0.042,0.264c0.029,0.083,0.074,0.157,0.139,0.223
		c0.063,0.064,0.145,0.116,0.246,0.153c0.101,0.038,0.225,0.058,0.369,0.058c0.189,0,0.407-0.058,0.652-0.173
		c0.244-0.116,0.503-0.298,0.774-0.548V144.521z"/>
	<path fill="#010101" d="M266.938,142.64h-1.807v4.048h-0.834v-4.048h-1.806v-0.711h4.446V142.64z"/>
	<path fill="#010101" d="M272.207,144.223c0,0.424-0.059,0.794-0.178,1.109c-0.119,0.316-0.281,0.578-0.49,0.787
		c-0.209,0.208-0.455,0.364-0.74,0.469c-0.283,0.104-0.592,0.156-0.924,0.156c-0.151,0-0.303-0.008-0.452-0.023
		c-0.15-0.016-0.303-0.043-0.458-0.081v1.991h-0.824v-6.702h0.734l0.053,0.797c0.236-0.325,0.489-0.554,0.758-0.686
		c0.269-0.131,0.56-0.196,0.872-0.196c0.272,0,0.511,0.057,0.716,0.171c0.205,0.113,0.377,0.274,0.517,0.48
		c0.14,0.207,0.243,0.457,0.313,0.749S272.207,143.863,272.207,144.223z M271.363,144.261c0-0.249-0.018-0.479-0.055-0.688
		c-0.036-0.208-0.094-0.387-0.173-0.535s-0.18-0.265-0.304-0.349c-0.123-0.083-0.27-0.125-0.439-0.125
		c-0.105,0-0.211,0.017-0.318,0.05s-0.219,0.088-0.334,0.166c-0.115,0.077-0.236,0.18-0.365,0.308
		c-0.128,0.128-0.265,0.287-0.41,0.477v2.308c0.152,0.063,0.312,0.113,0.479,0.149c0.168,0.036,0.332,0.055,0.494,0.055
		c0.445,0,0.794-0.151,1.047-0.453C271.236,145.322,271.363,144.867,271.363,144.261z"/>
	<path fill="#010101" d="M276.535,146.688l-0.02-0.64c-0.26,0.256-0.522,0.44-0.789,0.555c-0.268,0.113-0.547,0.17-0.842,0.17
		c-0.271,0-0.504-0.034-0.696-0.104c-0.192-0.07-0.352-0.165-0.477-0.287c-0.124-0.122-0.216-0.265-0.274-0.429
		s-0.088-0.343-0.088-0.536c0-0.477,0.178-0.851,0.533-1.12c0.355-0.271,0.881-0.405,1.576-0.405h0.985v-0.417
		c0-0.281-0.09-0.507-0.271-0.676c-0.18-0.169-0.455-0.254-0.824-0.254c-0.269,0-0.533,0.03-0.794,0.091
		c-0.261,0.06-0.53,0.145-0.808,0.256v-0.744c0.104-0.038,0.221-0.075,0.348-0.111c0.129-0.037,0.264-0.069,0.406-0.098
		c0.142-0.028,0.29-0.051,0.445-0.068c0.154-0.018,0.311-0.026,0.469-0.026c0.287,0,0.547,0.031,0.777,0.095s0.426,0.16,0.585,0.289
		c0.159,0.13,0.282,0.292,0.368,0.488c0.084,0.196,0.127,0.427,0.127,0.692v3.279H276.535z M276.444,144.521h-1.048
		c-0.205,0-0.382,0.021-0.53,0.062s-0.271,0.1-0.364,0.176c-0.096,0.075-0.166,0.166-0.211,0.272
		c-0.047,0.105-0.069,0.225-0.069,0.357c0,0.092,0.015,0.18,0.042,0.264c0.029,0.083,0.074,0.157,0.139,0.223
		c0.063,0.064,0.145,0.116,0.246,0.153c0.101,0.038,0.225,0.058,0.369,0.058c0.189,0,0.407-0.058,0.652-0.173
		c0.244-0.116,0.503-0.298,0.774-0.548V144.521z"/>
	<path fill="#010101" d="M282.947,142.64h-1.807v4.048h-0.834v-4.048h-1.806v-0.711h4.446V142.64z"/>
	<path fill="#010101" d="M284.596,143.768c0.113-0.003,0.221-0.005,0.32-0.007c0.1-0.001,0.203-0.002,0.311-0.002
		c0.297,0,0.557,0.035,0.779,0.106s0.408,0.171,0.557,0.299s0.26,0.281,0.332,0.459c0.072,0.179,0.109,0.372,0.109,0.581
		c0,0.253-0.043,0.475-0.129,0.666c-0.085,0.191-0.207,0.352-0.364,0.48c-0.158,0.13-0.352,0.228-0.581,0.294
		c-0.229,0.066-0.502,0.1-0.817,0.1c-0.202,0-0.416-0.005-0.642-0.017c-0.227-0.011-0.456-0.034-0.689-0.068v-4.73h0.814V143.768z
		 M286.15,145.228c0-0.249-0.078-0.443-0.234-0.58c-0.156-0.138-0.405-0.206-0.746-0.206c-0.092,0-0.186,0.001-0.28,0.004
		c-0.095,0.004-0.192,0.009-0.294,0.015v1.564c0.102,0.016,0.197,0.025,0.289,0.03s0.184,0.007,0.275,0.007
		c0.192,0,0.352-0.022,0.479-0.068s0.227-0.106,0.301-0.183c0.074-0.075,0.128-0.164,0.161-0.266
		C286.134,145.444,286.15,145.339,286.15,145.228z M287.525,146.688v-4.759h0.814v4.759H287.525z"/>
</g>
<rect x="109.081" y="89.477" fill="#FEE600" width="66.231" height="31.975"/>
<rect x="111.32" y="96.598" fill="none" width="61.823" height="34.082"/>
<g enable-background="new    ">
	<path fill="#010101" d="M136.773,102.565l-0.062,2.07h-0.754v-1.341h-3.796v-6.194h0.843v5.465h2.351v-5.465h0.843v5.465H136.773z"
		/>
	<path fill="#010101" d="M141.673,100.665c0,0.116-0.001,0.215-0.005,0.293c-0.003,0.079-0.008,0.153-0.014,0.223h-3.341
		c0,0.487,0.136,0.86,0.408,1.121c0.271,0.261,0.664,0.392,1.175,0.392c0.139,0,0.278-0.006,0.417-0.017
		c0.139-0.012,0.273-0.026,0.403-0.045c0.13-0.02,0.254-0.041,0.372-0.064c0.119-0.023,0.229-0.05,0.33-0.078v0.678
		c-0.225,0.063-0.478,0.114-0.761,0.154c-0.283,0.039-0.576,0.059-0.879,0.059c-0.407,0-0.758-0.055-1.052-0.166
		c-0.294-0.11-0.535-0.271-0.723-0.48s-0.327-0.468-0.417-0.772c-0.09-0.305-0.135-0.65-0.135-1.036c0-0.334,0.048-0.651,0.145-0.95
		c0.096-0.298,0.237-0.561,0.422-0.786c0.185-0.227,0.411-0.405,0.68-0.538s0.574-0.199,0.915-0.199
		c0.332,0,0.625,0.052,0.881,0.156s0.472,0.252,0.647,0.443s0.308,0.424,0.398,0.696
		C141.628,100.021,141.673,100.326,141.673,100.665z M140.815,100.546c0.01-0.212-0.011-0.405-0.062-0.58
		c-0.051-0.176-0.129-0.326-0.235-0.453c-0.105-0.126-0.238-0.225-0.396-0.296c-0.158-0.071-0.341-0.106-0.55-0.106
		c-0.18,0-0.344,0.034-0.493,0.104c-0.149,0.07-0.277,0.168-0.384,0.294c-0.107,0.127-0.194,0.278-0.26,0.455
		c-0.066,0.177-0.108,0.371-0.124,0.583H140.815z"/>
	<path fill="#010101" d="M146.816,103.295h-0.825v-2.104h-2.175v2.104h-0.825v-4.759h0.825v1.935h2.175v-1.935h0.825V103.295z"/>
	<path fill="#010101" d="M151.385,103.295l-0.019-0.64c-0.259,0.256-0.522,0.44-0.789,0.555c-0.267,0.113-0.547,0.17-0.841,0.17
		c-0.272,0-0.504-0.034-0.697-0.104c-0.193-0.07-0.352-0.165-0.477-0.287c-0.125-0.122-0.216-0.265-0.274-0.429
		c-0.059-0.164-0.088-0.343-0.088-0.536c0-0.477,0.178-0.851,0.533-1.12c0.355-0.271,0.881-0.405,1.576-0.405h0.986v-0.417
		c0-0.281-0.09-0.507-0.27-0.676s-0.455-0.254-0.825-0.254c-0.269,0-0.533,0.03-0.794,0.091c-0.261,0.06-0.53,0.145-0.808,0.256
		v-0.744c0.104-0.038,0.221-0.075,0.349-0.111c0.128-0.037,0.263-0.069,0.405-0.098c0.142-0.028,0.291-0.051,0.445-0.068
		s0.311-0.026,0.469-0.026c0.288,0,0.546,0.031,0.777,0.095c0.23,0.063,0.426,0.16,0.585,0.289c0.16,0.13,0.282,0.292,0.368,0.488
		c0.085,0.196,0.128,0.427,0.128,0.692v3.279H151.385z M151.294,101.129h-1.047c-0.206,0-0.382,0.021-0.531,0.062
		s-0.27,0.1-0.365,0.176c-0.095,0.075-0.166,0.166-0.211,0.272c-0.046,0.105-0.069,0.225-0.069,0.357
		c0,0.092,0.014,0.18,0.042,0.264c0.028,0.083,0.074,0.157,0.138,0.223c0.063,0.064,0.145,0.116,0.246,0.153
		c0.101,0.038,0.225,0.058,0.37,0.058c0.189,0,0.407-0.058,0.651-0.173c0.245-0.116,0.503-0.298,0.775-0.548V101.129z"/>
</g>
<g enable-background="new    ">
	<path fill="#010101" d="M116.488,116.933c-1.457-1.349-2.185-2.84-2.185-4.474c0-0.382,0.039-0.764,0.116-1.145
		c0.077-0.381,0.202-0.763,0.374-1.145c0.172-0.383,0.4-0.765,0.683-1.147c0.283-0.382,0.626-0.761,1.031-1.137l0.479,0.488
		c-1.226,1.21-1.839,2.551-1.839,4.023c0,0.733,0.155,1.438,0.464,2.113c0.31,0.677,0.768,1.314,1.375,1.915L116.488,116.933z"/>
	<path fill="#010101" d="M121.024,107.857h0.688l-0.124,0.924c0.165,0.016,0.33,0.036,0.495,0.062
		c0.166,0.025,0.32,0.056,0.462,0.09v0.73c-0.174-0.045-0.349-0.083-0.526-0.114c-0.177-0.031-0.351-0.055-0.521-0.071l-0.27,2.028
		c0.211,0.083,0.421,0.172,0.63,0.269c0.209,0.096,0.396,0.21,0.562,0.341c0.166,0.131,0.3,0.287,0.403,0.467
		c0.103,0.181,0.154,0.396,0.154,0.645c0,0.266-0.054,0.501-0.161,0.706c-0.107,0.206-0.257,0.38-0.45,0.521
		c-0.193,0.143-0.425,0.254-0.697,0.334c-0.271,0.081-0.57,0.129-0.896,0.145l-0.157,1.128h-0.692l0.157-1.128
		c-0.256-0.019-0.5-0.046-0.732-0.083c-0.232-0.036-0.434-0.076-0.604-0.12v-0.787c0.199,0.069,0.417,0.126,0.652,0.171
		c0.235,0.044,0.497,0.074,0.784,0.09l0.28-2.133c-0.206-0.079-0.408-0.164-0.606-0.256c-0.199-0.092-0.377-0.201-0.533-0.329
		c-0.157-0.128-0.284-0.279-0.382-0.453c-0.098-0.174-0.147-0.381-0.147-0.621c0-0.195,0.041-0.389,0.124-0.58
		c0.082-0.191,0.21-0.363,0.384-0.517s0.394-0.279,0.659-0.379c0.266-0.1,0.582-0.159,0.948-0.178L121.024,107.857z
		 M120.811,109.469c-0.395,0.034-0.683,0.127-0.865,0.277c-0.182,0.149-0.272,0.342-0.272,0.575c0,0.218,0.075,0.397,0.225,0.538
		c0.15,0.141,0.374,0.27,0.67,0.387L120.811,109.469z M120.868,114.203c0.426-0.031,0.737-0.126,0.931-0.284
		s0.292-0.373,0.292-0.645c0-0.114-0.021-0.216-0.062-0.306c-0.041-0.091-0.103-0.172-0.185-0.244
		c-0.082-0.073-0.184-0.141-0.306-0.204s-0.265-0.126-0.429-0.189L120.868,114.203z"/>
	<path fill="#010101" d="M128.138,108.245l-3.251,7.716H124.1l3.251-7.716H128.138z"/>
	<path fill="#010101" d="M133.669,112.313c0,0.116-0.001,0.215-0.005,0.293c-0.003,0.079-0.008,0.153-0.014,0.223h-3.341
		c0,0.487,0.136,0.86,0.408,1.121c0.271,0.261,0.664,0.392,1.175,0.392c0.139,0,0.278-0.006,0.417-0.017
		c0.139-0.012,0.273-0.026,0.403-0.045c0.13-0.02,0.254-0.041,0.372-0.064c0.119-0.023,0.229-0.05,0.33-0.078v0.678
		c-0.225,0.063-0.478,0.114-0.761,0.154c-0.283,0.039-0.576,0.059-0.879,0.059c-0.407,0-0.758-0.055-1.052-0.166
		c-0.294-0.11-0.535-0.271-0.723-0.48s-0.327-0.468-0.417-0.772c-0.09-0.305-0.135-0.65-0.135-1.036c0-0.334,0.048-0.651,0.145-0.95
		c0.096-0.298,0.237-0.561,0.422-0.786c0.185-0.227,0.411-0.405,0.68-0.538s0.574-0.199,0.915-0.199
		c0.332,0,0.625,0.052,0.881,0.156s0.472,0.252,0.647,0.443s0.308,0.424,0.398,0.696
		C133.624,111.668,133.669,111.974,133.669,112.313z M132.811,112.193c0.01-0.212-0.011-0.405-0.062-0.58
		c-0.051-0.176-0.129-0.326-0.235-0.453c-0.105-0.126-0.238-0.225-0.396-0.296c-0.158-0.071-0.341-0.106-0.55-0.106
		c-0.18,0-0.344,0.034-0.493,0.104c-0.149,0.07-0.277,0.168-0.384,0.294c-0.107,0.127-0.194,0.278-0.26,0.455
		c-0.066,0.177-0.108,0.371-0.124,0.583H132.811z"/>
	<path fill="#010101" d="M139.403,114.231l-0.052,1.924h-0.754v-1.213h-3.469v1.213h-0.744l-0.047-1.924h0.066
		c0.12,0,0.234-0.019,0.341-0.057s0.207-0.11,0.298-0.216c0.092-0.105,0.176-0.253,0.254-0.44c0.077-0.188,0.147-0.432,0.208-0.73
		s0.115-0.661,0.161-1.088c0.046-0.426,0.084-0.932,0.116-1.517h2.938v4.048H139.403z M137.896,110.895h-1.327
		c-0.032,0.544-0.073,1.007-0.123,1.389c-0.051,0.383-0.11,0.703-0.178,0.963c-0.068,0.259-0.146,0.466-0.235,0.62
		c-0.088,0.155-0.187,0.276-0.294,0.365h2.157V110.895z"/>
	<path fill="#010101" d="M141.214,110.184v3.352l2.076-3.352h0.787v4.759h-0.824v-3.351l-2.076,3.351h-0.787v-4.759H141.214z"/>
	<path fill="#010101" d="M149.484,114.942h-0.825v-2.104h-2.175v2.104h-0.825v-4.759h0.825v1.935h2.175v-1.935h0.825V114.942z"/>
	<path fill="#010101" d="M151.887,110.184v3.352l2.076-3.352h0.787v4.759h-0.824v-3.351l-2.077,3.351h-0.787v-4.759H151.887z"/>
	<path fill="#010101" d="M160.688,114.231l-0.047,1.924h-0.749v-1.213h-3.597v-4.759h0.824v4.048h2.171v-4.048h0.825v4.048H160.688z
		"/>
	<path fill="#010101" d="M165.902,110.184l-1.621,4.257c-0.168,0.433-0.341,0.806-0.52,1.118c-0.178,0.313-0.373,0.569-0.585,0.771
		c-0.212,0.2-0.444,0.348-0.696,0.442c-0.254,0.095-0.536,0.143-0.85,0.143c-0.082,0-0.156-0.002-0.223-0.005
		s-0.139-0.008-0.217-0.015v-0.748c0.068,0.009,0.145,0.018,0.227,0.025s0.17,0.013,0.261,0.013c0.151,0,0.294-0.022,0.425-0.066
		c0.131-0.045,0.255-0.116,0.371-0.216c0.117-0.1,0.229-0.229,0.337-0.387s0.212-0.349,0.313-0.573l-1.9-4.759h0.938l1.204,3.147
		l0.241,0.739l0.275-0.758l1.113-3.129H165.902z"/>
	<path fill="#010101" d="M167.978,107.886c1.456,1.349,2.185,2.85,2.185,4.502c0,0.342-0.035,0.695-0.104,1.062
		c-0.07,0.367-0.188,0.742-0.355,1.126c-0.168,0.384-0.393,0.773-0.676,1.168c-0.283,0.396-0.639,0.792-1.068,1.189l-0.479-0.488
		c0.615-0.609,1.075-1.246,1.379-1.909c0.303-0.664,0.455-1.359,0.455-2.086c0-1.504-0.611-2.856-1.834-4.057L167.978,107.886z"/>
</g>
<line fill="none" stroke="#BBBDBF" stroke-width="2" stroke-miterlimit="10" x1="85.958" y1="20.676" x2="85.958" y2="105.748"/>
<line fill="none" stroke="#BBBDBF" stroke-width="2" stroke-miterlimit="10" x1="195.582" y1="14.396" x2="195.582" y2="58.358"/>
</svg>
