<?xml version="1.0" encoding="utf-8"?>
<!-- Generator: Adobe Illustrator 15.1.0, SVG Export Plug-In . SVG Version: 6.00 Build 0)  -->
<!DOCTYPE svg PUBLIC "-//W3C//DTD SVG 1.1//EN" "http://www.w3.org/Graphics/SVG/1.1/DTD/svg11.dtd">
<svg version="1.1" id="Layer_1" xmlns="http://www.w3.org/2000/svg" xmlns:xlink="http://www.w3.org/1999/xlink" x="0px" y="0px"
	 width="135px" height="134px" viewBox="0 1 135 134" enable-background="new 0 1 135 134" xml:space="preserve">
<g>
	<circle fill="#FFFFFF" cx="67.404" cy="67.654" r="64.937"/>
	<g>
		<g>
			<path fill="#E7E8E9" d="M121.898,66.222c0,30.086-24.396,54.478-54.495,54.478c-30.09,0-54.489-24.392-54.489-54.478
				c0-30.086,24.399-54.485,54.489-54.485C97.504,11.736,121.898,36.136,121.898,66.222z"/>
			<path fill="#F5F6F6" d="M67.404,120.73c-7.358,0-14.506-1.447-21.207-4.285c-6.496-2.741-12.322-6.672-17.328-11.672
				c-5.013-5.01-8.95-10.838-11.689-17.332c-2.851-6.721-4.276-13.858-4.276-21.219c0-7.348,1.426-14.496,4.276-21.217
				c2.739-6.482,6.677-12.313,11.689-17.319c5.006-5.008,10.832-8.948,17.328-11.689c6.701-2.842,13.849-4.285,21.207-4.285
				c7.36,0,14.489,1.443,21.212,4.285c6.491,2.742,12.325,6.681,17.333,11.689c5.008,5.005,8.941,10.836,11.688,17.319
				c2.827,6.721,4.27,13.869,4.27,21.217c0,7.361-1.441,14.499-4.27,21.219c-2.744,6.494-6.68,12.322-11.688,17.332
				c-5.008,5-10.842,8.931-17.333,11.672C81.893,119.283,74.764,120.73,67.404,120.73z M67.404,11.765
				c-30.022,0-54.458,24.421-54.458,54.457c0,30.032,24.436,54.459,54.458,54.459c30.026,0,54.463-24.429,54.463-54.459
				C121.867,36.187,97.43,11.765,67.404,11.765z"/>
		</g>
		<g>
			<path fill="#D1D3D4" d="M113.305,66.222c0,25.346-20.562,45.897-45.9,45.897c-25.353,0-45.901-20.551-45.901-45.897
				c0-25.355,20.549-45.895,45.901-45.895C92.743,20.327,113.305,40.867,113.305,66.222z"/>
		</g>
		<g>
			<path fill="#939598" d="M66.724,20.327c-25.267,0.098-45.716,20.605-45.716,45.895c0,25.288,20.449,45.797,45.716,45.897V20.327z
				"/>
		</g>
		<path d="M71.538,67.036c0,1.854-1.502,3.353-3.354,3.353c-1.838,0-3.354-1.498-3.354-3.353c0-1.856,1.515-3.353,3.354-3.353
			C70.036,63.683,71.538,65.18,71.538,67.036z"/>
		<path d="M68.639,65.762c0.775,0.506,1.004,1.543,0.504,2.315l0,0c-0.49,0.784-1.54,1.01-2.317,0.528L36.83,49.486
			c-0.78-0.502-1.008-1.526-0.511-2.306l0,0c0.495-0.79,1.525-1.008,2.32-0.52L68.639,65.762z"/>
		<path d="M69.865,92.287c0.015,0.645-0.731,1.16-1.668,1.172l0,0c-0.918,0.018-1.669-0.482-1.686-1.139l-0.243-24.572
			c-0.013-0.641,0.746-1.183,1.673-1.183l0,0c0.92-0.009,1.683,0.493,1.683,1.14L69.865,92.287z"/>
		<g>
			<g>
				<path d="M67.389,110.624c-0.419,0-0.877,0-1.313-0.006l0.069-2.354c0.61,0.02,1.22,0.02,1.815,0.02h0.029l0.027,2.342h-0.027
					C67.786,110.624,67.59,110.624,67.389,110.624z M88.445,105.337l-1.114-2.067c0.532-0.281,1.067-0.592,1.594-0.906l1.204,2.027
					C89.576,104.714,89.009,105.038,88.445,105.337z M45.744,104.996c-0.568-0.309-1.133-0.654-1.685-0.989l1.238-1.989
					c0.528,0.313,1.054,0.635,1.591,0.928L45.744,104.996z M105.186,89.579l-1.996-1.238c0.312-0.522,0.619-1.046,0.922-1.583
					l2.049,1.146C105.852,88.471,105.509,89.041,105.186,89.579z M29.262,88.964c-0.328-0.554-0.656-1.12-0.953-1.669l2.068-1.119
					c0.285,0.53,0.575,1.063,0.893,1.586L29.262,88.964z M111.796,67.578l-2.351-0.081c0.015-0.419,0.015-0.847,0.015-1.256
					c0-0.198,0-0.383,0-0.58v-0.078l2.349-0.047v0.096c0,0.206,0,0.399,0,0.609C111.809,66.681,111.809,67.125,111.796,67.578z
					 M23.007,66.859v-0.038c0-0.212-0.019-0.408-0.019-0.609c0-0.442,0.019-0.861,0.027-1.285l2.351,0.069
					c-0.013,0.393-0.026,0.806-0.026,1.216c0,0.188,0,0.384,0.014,0.564v0.059L23.007,66.859z M104.423,46.234
					c-0.299-0.538-0.598-1.071-0.905-1.6l2.008-1.205c0.34,0.556,0.646,1.122,0.959,1.693L104.423,46.234z M30.676,45.726
					l-2.052-1.151c0.31-0.56,0.638-1.123,0.977-1.662l2.008,1.225C31.28,44.67,30.97,45.186,30.676,45.726z M89.462,30.418
					c-0.521-0.332-1.046-0.642-1.582-0.935l1.146-2.055c0.563,0.311,1.119,0.643,1.67,0.978L89.462,30.418z M45.836,30.104
					l-1.198-2.023c0.556-0.324,1.117-0.652,1.684-0.95l1.116,2.068C46.902,29.495,46.366,29.793,45.836,30.104z M68.611,24.175
					c-0.582-0.012-1.174-0.012-1.758,0h-0.071L66.74,21.83h0.073c0.624-0.018,1.242-0.018,1.867,0L68.611,24.175z"/>
			</g>
		</g>
		<g>
			<g>
				<g>
					<path d="M67.96,108.281c-0.596,0-1.205,0-1.815-0.018l-0.069,2.354c0.437,0.006,0.895,0.006,1.313,0.006
						c0.201,0,0.397,0,0.601,0h0.026l-0.026-2.342H67.96L67.96,108.281z"/>
					<path d="M23.016,64.927c-0.009,0.424-0.027,0.843-0.027,1.285c0,0.201,0.019,0.397,0.019,0.609v0.038l2.347-0.024v-0.059
						c-0.014-0.18-0.014-0.376-0.014-0.564c0-0.41,0.014-0.823,0.026-1.216L23.016,64.927z"/>
					<path d="M66.813,21.83H66.74l0.042,2.345h0.071c0.584-0.012,1.176-0.012,1.758,0l0.068-2.345
						C68.057,21.812,67.438,21.812,66.813,21.83z"/>
					<path d="M111.809,65.632v-0.096l-2.349,0.047v0.078c0,0.197,0,0.382,0,0.58c0,0.409,0,0.836-0.015,1.256l2.351,0.081
						c0.013-0.453,0.013-0.897,0.013-1.336C111.809,66.032,111.809,65.838,111.809,65.632z"/>
					<path d="M67.941,106.908c-0.577,0-1.173,0-1.753-0.014l-1.371-0.041l-0.146,5.092l1.374,0.048
						C66.499,112,66.951,112,67.389,112c0.214,0,0.411,0,0.611,0l1.4-0.006l-0.059-5.117L67.941,106.908z"/>
					<path d="M26.726,66.763c0-0.185,0-0.363,0-0.551c0-0.397,0-0.792,0.018-1.173l0.024-1.381l-5.095-0.154l-0.027,1.378
						c-0.013,0.433-0.021,0.888-0.021,1.33c0,0.219,0.009,0.415,0.009,0.623l0.013,1.403l5.098-0.063L26.726,66.763z"/>
					<path d="M113.178,65.619l-0.027-1.472l-5.078,0.071l0.015,1.472c0,0.183,0,0.361,0,0.551c0,0.409,0,0.816-0.015,1.214
						l-0.043,1.381l5.09,0.139l0.045-1.36c0.014-0.457,0.036-0.921,0.036-1.374C113.199,66.032,113.178,65.815,113.178,65.619z"/>
					<path d="M66.798,20.44l-1.457,0.029l0.081,5.093l1.445-0.029c0.57,0,1.148,0,1.699,0.016l1.373,0.044l0.14-5.097l-1.367-0.04
						C68.081,20.44,67.438,20.44,66.798,20.44z"/>
				</g>
			</g>
		</g>
	</g>
</g>
</svg>
