<?xml version="1.0" encoding="utf-8"?>
<!-- Generator: Adobe Illustrator 15.1.0, SVG Export Plug-In . SVG Version: 6.00 Build 0)  -->
<!DOCTYPE svg PUBLIC "-//W3C//DTD SVG 1.1//EN" "http://www.w3.org/Graphics/SVG/1.1/DTD/svg11.dtd">
<svg version="1.1" id="Layer_1" xmlns="http://www.w3.org/2000/svg" xmlns:xlink="http://www.w3.org/1999/xlink" x="0px" y="0px"
	 width="723.275px" height="760px" viewBox="0 0 723.275 760" enable-background="new 0 0 723.275 760" xml:space="preserve">
<symbol  id="tabl1" viewBox="0 -719.05 677.15 719.05">
	<g id="Layer_1_2_">
		<g>
			<path fill-rule="evenodd" clip-rule="evenodd" d="M675.5-717.95V-1.1H1.65v-716.85H675.5z M676.05,0c0.167,0,0.3-0.05,0.4-0.15
				c0.1-0.1,0.15-0.233,0.15-0.4V-718.5c0-0.167-0.05-0.3-0.15-0.4c-0.1-0.1-0.233-0.15-0.4-0.15H1.1c-0.167,0-0.3,0.05-0.4,0.15
				c-0.1,0.1-0.15,0.233-0.15,0.4V-0.55c0,0.167,0.05,0.3,0.15,0.4C0.8-0.05,0.933,0,1.1,0H676.05z"/>
		</g>
		<g>
			<path fill-rule="evenodd" clip-rule="evenodd" d="M677.15-45.55c0-0.167-0.05-0.3-0.15-0.4c-0.1-0.1-0.233-0.15-0.4-0.15H0.55
				c-0.167,0-0.3,0.05-0.4,0.15C0.05-45.85,0-45.717,0-45.55v16c0,0.167,0.05,0.3,0.15,0.4S0.383-29,0.55-29H676.6
				c0.167,0,0.3-0.05,0.4-0.15s0.15-0.233,0.15-0.4V-45.55z M676.05-45v14.9H1.1V-45H676.05z M677.15-95.55
				c0-0.167-0.05-0.3-0.15-0.4c-0.1-0.1-0.233-0.15-0.4-0.15H0.55c-0.167,0-0.3,0.05-0.4,0.15C0.05-95.85,0-95.717,0-95.55v18
				c0,0.167,0.05,0.3,0.15,0.4S0.383-77,0.55-77H676.6c0.167,0,0.3-0.05,0.4-0.15s0.15-0.233,0.15-0.4V-95.55z M676.05-95v16.9H1.1
				V-95H676.05z M677.15-222.55c0-0.167-0.05-0.3-0.15-0.4c-0.1-0.1-0.233-0.15-0.4-0.15H1.65c-0.167,0-0.3,0.05-0.4,0.15
				c-0.1,0.1-0.15,0.233-0.15,0.4v15c0,0.167,0.05,0.3,0.15,0.4S1.483-207,1.65-207H676.6c0.167,0,0.3-0.05,0.4-0.15
				s0.15-0.233,0.15-0.4V-222.55z M676.05-222v13.9H2.2V-222H676.05z M677.15-320.55c0-0.167-0.05-0.3-0.15-0.4
				c-0.1-0.1-0.233-0.15-0.4-0.15H1.65c-0.167,0-0.3,0.05-0.4,0.15c-0.1,0.1-0.15,0.233-0.15,0.4v16c0,0.167,0.05,0.3,0.15,0.4
				S1.483-304,1.65-304H676.6c0.167,0,0.3-0.05,0.4-0.15s0.15-0.233,0.15-0.4V-320.55z M676.05-320v14.9H2.2V-320H676.05z
				 M677.15-364.55c0-0.167-0.05-0.3-0.15-0.4c-0.1-0.1-0.233-0.15-0.4-0.15H1.65c-0.167,0-0.3,0.05-0.4,0.15
				c-0.1,0.1-0.15,0.233-0.15,0.4v14c0,0.167,0.05,0.3,0.15,0.4S1.483-350,1.65-350H676.6c0.167,0,0.3-0.05,0.4-0.15
				s0.15-0.233,0.15-0.4V-364.55z M676.05-364v12.9H2.2V-364H676.05z M676.6-590.95c0.167,0,0.3-0.05,0.4-0.15s0.15-0.233,0.15-0.4
				v-15c0-0.167-0.05-0.3-0.15-0.4s-0.233-0.15-0.4-0.15H0.55c-0.167,0-0.3,0.05-0.4,0.15S0-606.667,0-606.5v15
				c0,0.167,0.05,0.3,0.15,0.4s0.233,0.15,0.4,0.15H676.6z M676.6-488.45c0.167,0,0.3-0.05,0.4-0.15s0.15-0.233,0.15-0.4v-15
				c0-0.167-0.05-0.3-0.15-0.4s-0.233-0.15-0.4-0.15H0.55c-0.167,0-0.3,0.05-0.4,0.15S0-504.167,0-504v15c0,0.167,0.05,0.3,0.15,0.4
				s0.233,0.15,0.4,0.15H676.6z M676.05-605.95v13.9H1.1v-13.9H676.05z M676.05-503.45v13.9H1.1v-13.9H676.05z"/>
			<path fill-rule="evenodd" clip-rule="evenodd" fill="#3F7CBE" d="M676.05-45H1.1v14.9h674.95V-45z M676.05-95H1.1v16.9h674.95
				V-95z M676.05-222H2.2v13.9h673.85V-222z M676.05-320H2.2v14.9h673.85V-320z M676.05-364H2.2v12.9h673.85V-364z M676.05-503.45
				H1.1v13.9h674.95V-503.45z M676.05-605.95H1.1v13.9h674.95V-605.95z"/>
		</g>
		<path fill-rule="evenodd" clip-rule="evenodd" d="M453.6-489.996c-0.003,0.265,0.046,0.491,0.15,0.68
			c0.111,0.176,0.245,0.261,0.4,0.255c0.155,0.006,0.289-0.079,0.4-0.255c0.104-0.189,0.153-0.416,0.15-0.68v-226.888
			c0.003-0.264-0.046-0.49-0.15-0.679c-0.111-0.176-0.245-0.261-0.4-0.255c-0.156-0.006-0.289,0.079-0.4,0.255
			c-0.104,0.189-0.153,0.416-0.15,0.679V-489.996z"/>
		<path fill-rule="evenodd" clip-rule="evenodd" d="M227.6-488.87c-0.003,0.12,0.046,0.222,0.15,0.308
			c0.111,0.08,0.245,0.118,0.4,0.115c0.155,0.003,0.289-0.036,0.4-0.115c0.104-0.086,0.153-0.188,0.15-0.308v-102.775
			c0.003-0.12-0.046-0.222-0.15-0.308c-0.111-0.08-0.245-0.119-0.4-0.116c-0.156-0.003-0.289,0.036-0.4,0.116
			c-0.104,0.085-0.153,0.188-0.15,0.308V-488.87z"/>
		<path fill-rule="evenodd" clip-rule="evenodd" d="M226.5-208.64c-0.003,0.164,0.046,0.305,0.15,0.422
			c0.111,0.109,0.245,0.162,0.4,0.158c0.155,0.004,0.289-0.049,0.4-0.158c0.104-0.117,0.153-0.258,0.15-0.422v-140.755
			c0.003-0.164-0.046-0.304-0.15-0.421c-0.111-0.109-0.245-0.162-0.4-0.158c-0.156-0.004-0.289,0.049-0.4,0.158
			c-0.104,0.117-0.153,0.258-0.15,0.421V-208.64z"/>
		<path fill-rule="evenodd" clip-rule="evenodd" d="M452.5-208.487c-0.003,0.111,0.046,0.206,0.15,0.285
			c0.111,0.073,0.245,0.109,0.4,0.106c0.155,0.003,0.289-0.033,0.4-0.106c0.104-0.079,0.153-0.174,0.15-0.285v-94.917
			c0.003-0.11-0.046-0.205-0.15-0.284c-0.111-0.074-0.245-0.109-0.4-0.106c-0.156-0.003-0.289,0.033-0.4,0.106
			c-0.104,0.079-0.153,0.174-0.15,0.284V-208.487z"/>
	</g>
</symbol>
<g>
	<g id="Layer_7">
	</g>
	<g id="Layer_8">
	</g>
	<g id="Layer_9">
	</g>
	<g id="Layer_4">
	</g>
	<g id="Layer_6">
	</g>
	<g id="Layer_2">
	</g>
	<g id="Layer_3">
	</g>
	<g id="Layer_5">
		<g>
			<rect x="3.34" fill-rule="evenodd" clip-rule="evenodd" fill="#FFFFFF" width="715.713" height="760"/>
			
				<use xlink:href="#tabl1"  width="677.15" height="719.05" y="-719.05" transform="matrix(1.057 0 0 -1.057 3.3403 0)" overflow="visible"/>
			<text transform="matrix(1 0 0 1 226.7461 16.3164)" font-family="'Consolas-Bold'" font-size="17.9682">Регламент совещания (ТОR)</text>
			<text transform="matrix(1 0 0 1 269.7012 42.8228)" fill="#FFFFFF" font-family="'Consolas-Bold'" font-size="12.6834">1. Наименование Совещания</text>
			<text transform="matrix(1 0 0 1 334.4155 95.3257)" fill="#FFFFFF" font-family="'Consolas-Bold'" font-size="12.6834">2. Цель</text>
			<text transform="matrix(1 0 0 1 218.1768 64.3467)" font-family="'Consolas-Bold'" font-size="15.8543">Еженедельное Совещание Эверест</text>
			<text transform="matrix(1 0 0 1 191.4517 135.2344)"><tspan x="0" y="0" font-family="'Consolas-Bold'" font-size="11.6265">1 Проверить результаты по колоннам, по подразделениям</tspan><tspan x="0" y="17.81" font-family="'Consolas-Bold'" font-size="11.6265">2 Согласовать подходы между колоннами</tspan><tspan x="0" y="35.619" font-family="'Consolas-Bold'" font-size="11.6265">3 Проверить тенденцию по колоннам относительно целей</tspan><tspan x="0" y="53.429" font-family="'Consolas-Bold'" font-size="11.6265">4 Обновить План действий и Прогноз</tspan></text>
			<text transform="matrix(1 0 0 1 88.4395 231.8008)" fill="#FFFFFF" font-family="'Consolas-Bold'" font-size="12.6834">3. Владелец</text>
			<text transform="matrix(1 0 0 1 319.9771 231.8008)" fill="#FFFFFF" font-family="'Consolas-Bold'" font-size="12.6834">4. Участники</text>
			<text transform="matrix(1 0 0 1 522.4961 231.8008)" fill="#FFFFFF" font-family="'Consolas-Bold'" font-size="12.6834">5. Место проведения</text>
			<text transform="matrix(1 0 0 1 266.7979 247.7324)"><tspan x="0" y="0" font-family="'Consolas-Bold'" font-size="11.6265">1 Владелец программы Эверест</tspan><tspan x="0" y="15.696" font-family="'Consolas-Bold'" font-size="11.6265">2 Координатор программы</tspan><tspan x="0" y="31.392" font-family="'Consolas-Bold'" font-size="11.6265">3 Владельцы колонн</tspan><tspan x="0" y="47.087" font-family="'Consolas-Bold'" font-size="11.6265">4 Эксперты колонн</tspan><tspan x="0" y="62.783" font-family="'Consolas-Bold'" font-size="11.6265">5 Менеджеры подразделений</tspan></text>
			<text transform="matrix(1 0 0 1 564.6758 276.8164)" font-family="'Consolas-Bold'" font-size="11.6265">УК,Завод</text>
			<text transform="matrix(1 0 0 1 7.8608 275.2324)" font-family="'Consolas-Bold'" font-size="11.6265">Генеральный Директор/Директор завода</text>
			<text transform="matrix(1 0 0 1 57.0596 334.4424)" fill="#FFFFFF" font-family="'Consolas-Bold'" font-size="12.6834">6. Продолжительность</text>
			<text transform="matrix(1 0 0 1 416.2734 334.4424)" fill="#FFFFFF" font-family="'Consolas-Bold'" font-size="12.6834">7. Периодичность</text>
			
				<text transform="matrix(1 0 0 1 288.0542 382.1543)" fill="#FFFFFF" font-family="'Consolas-Bold'" font-size="12.6834" letter-spacing="1">8. ОСНОВНЫЕ ПРАВИЛА</text>
			<text transform="matrix(1 0 0 1 106.4565 354.7598)" font-family="'Consolas-Bold'" font-size="11.6265">2 Часа</text>
			<text transform="matrix(1 0 0 1 312.3481 354.7598)" font-family="'Consolas-Bold'" font-size="11.6265">Еженедельно Среда с 14 до 16 (на период внедрения)</text>
			<text transform="matrix(1 0 0 1 28.2412 561.9385)"><tspan x="0" y="0" font-family="'Consolas-Bold'" font-size="11.6265">1 Предыдущий Action Log</tspan><tspan x="0" y="15.695" font-family="'Consolas-Bold'" font-size="11.6265">2 Прогнозируемое достижение</tspan><tspan x="0" y="31.392" font-family="'Consolas-Bold'" font-size="11.6265">3 Самооценка по колоннам</tspan></text>
			<text transform="matrix(1 0 0 1 66.0332 529.167)" fill="#FFFFFF" font-family="'Consolas-Bold'" font-size="12.6834">9. На Входе</text>
			<text transform="matrix(1 0 0 1 311.271 529.9785)" fill="#FFFFFF" font-family="'Consolas-Bold'" font-size="12.6834">10. На Выходе</text>
			<text transform="matrix(1 0 0 1 570.377 529.9785)" fill="#FFFFFF" font-family="'Consolas-Bold'" font-size="12.6834">11. KPIs</text>
			
				<text transform="matrix(1 0 0 1 149.5776 637.5146)" fill="#FFFFFF" font-family="'Consolas-Bold'" font-size="12.6834" letter-spacing="1">12. Повестка Совещания</text>
			<text transform="matrix(1 0 0 1 571.9629 637.5146)" fill="#FFFFFF" font-family="'Consolas-Bold'" font-size="12.6834">13. Кто</text>
			<text transform="matrix(1 0 0 1 277.3257 567.7402)"><tspan x="0" y="0" font-family="'Consolas-Bold'" font-size="11.6265">1 Обновленный Action Log</tspan><tspan x="0" y="15.695" font-family="'Consolas-Bold'" font-size="11.6265">2 Обновленный прогноз</tspan></text>
			<text transform="matrix(1 0 0 1 529.0439 567.7402)"><tspan x="0" y="0" font-family="'Consolas-Bold'" font-size="11.6265">1 % по колоннам</tspan><tspan x="0" y="15.695" font-family="'Consolas-Bold'" font-size="11.6265">2 % по подразделениям</tspan></text>
			<text transform="matrix(1 0 0 1 115.8379 667.1455)"><tspan x="0" y="0" font-family="'Consolas-Bold'" font-size="11.6265">1 Предствить Предыдущий Action Log</tspan><tspan x="0" y="15.695" font-family="'Consolas-Bold'" font-size="11.6265">2 Предствить результаты по колоннам</tspan><tspan x="0" y="31.392" font-family="'Consolas-Bold'" font-size="11.6265">3 Сопоставить результаты по колоннам</tspan><tspan x="0" y="47.087" font-family="'Consolas-Bold'" font-size="11.6265">4 Сравнить текущее достижение с прогнозами</tspan><tspan x="0" y="62.783" font-family="'Consolas-Bold'" font-size="11.6265">5 Обновить Action Log </tspan></text>
			<text transform="matrix(1 0 0 1 522.6318 658.6416)"><tspan x="0" y="0" font-family="'Consolas-Bold'" font-size="11.6265">1 Координатор программы</tspan><tspan x="0" y="15.695" font-family="'Consolas-Bold'" font-size="11.6265">2 Владельцы колонн</tspan><tspan x="0" y="31.392" font-family="'Consolas-Bold'" font-size="11.6265">3 Владельцы колонн</tspan><tspan x="0" y="62.783" font-family="'Consolas-Bold'" font-size="11.6265">4 Владелец программы</tspan><tspan x="0" y="78.479" font-family="'Consolas-Bold'" font-size="11.6265">5 Координатор программы</tspan></text>
			<rect x="540.465" y="703.484" fill-rule="evenodd" clip-rule="evenodd" width="177.2" height="1.483"/>
			<text transform="matrix(1 0 0 1 39.8833 393.082)"><tspan x="0" y="0" font-family="'Consolas-Bold'" font-size="10.5695">1 Уважать остальных: Начинать вовремя, заканчивать вовремя, не более одного выступающего одновременно</tspan><tspan x="0" y="10.781" font-family="'Consolas-Bold'" font-size="10.5695">2 Находиться на своих местах ; слушать друг друга</tspan><tspan x="0" y="21.562" font-family="'Consolas-Bold'" font-size="10.5695">3 Оспаривать идеи , не личность</tspan><tspan x="0" y="32.343" font-family="'Consolas-Bold'" font-size="10.5695">4 Выполнять то что обещали</tspan><tspan x="0" y="43.124" font-family="'Consolas-Bold'" font-size="10.5695">5 Отсутствие иерархии; все равны</tspan><tspan x="0" y="53.904" font-family="'Consolas-Bold'" font-size="10.5695">6 Приходить подготовленным: 40% подготовки, 10% на совещании, 50% отслеживание выполнения</tspan><tspan x="0" y="64.686" font-family="'Consolas-Bold'" font-size="10.5695">7 Корректировать протокол совещания во время совещания в эелектронном виде</tspan><tspan x="0" y="75.466" font-family="'Consolas-Bold'" font-size="10.5695">8 Фокусируйтесь строго на Адженде</tspan><tspan x="0" y="86.247" font-family="'Consolas-Bold'" font-size="10.5695">9 Сосредотачиваться на отклонениях: план по сравнению с фактом</tspan><tspan x="0" y="97.028" font-family="'Consolas-Bold'" font-size="10.5695">10 Назначать &quot;замену&quot;, эффективно подготовленного к проведению совещания, если председатель совещания отсутствует</tspan><tspan x="0" y="107.809" font-family="'Consolas-Bold'" font-size="10.5695">11 Перед тем как покинуть комнату убедитесь что все находятся на своих местах и вы не оставляете ничего лишнего.</tspan><tspan x="0" y="118.59" font-family="'Consolas-Bold'" font-size="10.5695"> Будте в 5S! </tspan></text>
		</g>
	</g>
</g>
</svg>
