<?xml version="1.0" encoding="utf-8"?>
<!-- Generator: Adobe Illustrator 15.1.0, SVG Export Plug-In . SVG Version: 6.00 Build 0)  -->
<!DOCTYPE svg PUBLIC "-//W3C//DTD SVG 1.1//EN" "http://www.w3.org/Graphics/SVG/1.1/DTD/svg11.dtd">
<svg version="1.1" id="Layer_1" xmlns="http://www.w3.org/2000/svg" xmlns:xlink="http://www.w3.org/1999/xlink" x="0px" y="0px"
	 width="240.165px" height="264.365px" viewBox="509.219 289.552 240.165 264.365"
	 enable-background="new 509.219 289.552 240.165 264.365" xml:space="preserve">
<g id="Layer_2">
	<g id="Layer_3">
		<g>
			<path fill="#FFFFFF" d="M694.34,363.1c17.557,17.609,26.334,38.853,26.334,63.73c0,24.828-8.777,46.047-26.334,63.653
				c-17.503,17.556-38.723,26.334-63.653,26.334c-24.827,0-46.044-8.778-63.652-26.334c-17.557-17.606-26.334-38.825-26.334-63.653
				c0-24.879,8.777-46.121,26.334-63.73c17.608-17.556,38.825-26.334,63.652-26.334C655.617,336.766,676.837,345.544,694.34,363.1z"
				/>
			<path fill="#333333" d="M568.048,549.99c-2.148-1.222-3.545-3.021-4.2-5.399c-0.615-2.315-0.313-4.548,0.905-6.693l11-19.075
				c1.257-2.081,3.03-3.486,5.322-4.218c2.417-0.591,4.699-0.273,6.845,0.946l0.075,0.02c2.082,1.258,3.435,3.044,4.048,5.361
				c0.69,2.441,0.408,4.705-0.851,6.788l-10.997,19.074c-1.221,2.146-3.016,3.521-5.381,4.124c-2.38,0.652-4.611,0.351-6.694-0.906
				L568.048,549.99z"/>
			<path fill="#333333" d="M693.716,549.99c2.147-1.222,3.547-3.021,4.198-5.399c0.615-2.315,0.313-4.548-0.904-6.693l-11-19.075
				c-1.258-2.081-3.031-3.486-5.323-4.218c-2.416-0.591-4.698-0.272-6.845,0.946l-0.075,0.02c-2.082,1.259-3.435,3.044-4.048,5.361
				c-0.691,2.441-0.408,4.705,0.851,6.788l10.997,19.074c1.221,2.146,3.016,3.521,5.381,4.124c2.38,0.652,4.61,0.351,6.693-0.906
				L693.716,549.99z"/>
			<path fill="#999999" d="M538.43,304.906c-0.586,0.476-1.386,1.069-2.4,1.786c-1.024,0.697-2.03,1.535-3.013,2.512
				c-0.443,0.072-0.909,0.11-1.396,0.11c-2.083,0-3.869-0.744-5.357-2.232c-1.412-1.412-2.121-3.161-2.121-5.246
				c0-2.081,0.709-3.867,2.121-5.355c1.488-1.416,3.274-2.121,5.357-2.121s3.833,0.705,5.245,2.121
				c1.488,1.488,2.234,3.274,2.234,5.355C539.101,302.961,538.878,303.983,538.43,304.906z"/>
			<path fill="#FF3333" d="M614.108,310.321c-30.733,6.993-55.364,21.206-73.892,42.639c-9.228,10.788-15.403,20.836-18.53,30.136
				c-4.24-6.695-7.03-14.733-8.371-24.109c-2.752-18.678,3.015-34.563,17.3-47.661c0.803-0.731,1.604-1.438,2.401-2.119
				c0.982-0.977,1.987-1.813,3.013-2.512c1.014-0.717,1.814-1.312,2.4-1.786c13.158-9.521,26.925-13.447,41.299-11.775
				C593.347,294.693,604.805,300.424,614.108,310.321z"/>
			<path fill="#660000" d="M521.687,383.095c3.127-9.3,9.303-19.348,18.53-30.136c18.527-21.433,43.158-35.646,73.892-42.639v7.087
				c-28.25,7.399-51.095,21.185-68.534,41.355c-6.148,7.188-10.947,14.054-14.397,20.591L521.687,383.095z"/>
			<g>
				<path fill="#CCCCCC" d="M630.377,363.568c-17.351,0-32.18,6.154-44.489,18.465c-12.312,12.312-18.464,27.165-18.464,44.563
					c0,17.4,6.153,32.256,18.464,44.565c12.31,12.31,27.139,18.464,44.489,18.464c17.449,0,32.306-6.154,44.563-18.464
					c12.311-12.311,18.465-27.165,18.465-44.565c0-17.398-6.154-32.253-18.465-44.563
					C662.682,369.723,647.826,363.568,630.377,363.568z M688.885,368.086c16.153,16.204,24.23,35.735,24.23,58.591
					c0,22.853-8.077,42.382-24.23,58.588c-16.103,16.152-35.604,24.229-58.509,24.229c-22.856,0-42.387-8.077-58.591-24.229
					c-16.152-16.206-24.229-35.735-24.229-58.588c0-22.854,8.077-42.386,24.229-58.591c16.205-16.152,35.734-24.229,58.591-24.229
					C653.28,343.856,672.783,351.934,688.885,368.086z"/>
				<path fill="#FFFFFF" d="M688.885,368.086c-16.103-16.152-35.604-24.229-58.509-24.229c-22.856,0-42.387,8.077-58.591,24.229
					c-16.152,16.204-24.229,35.735-24.229,58.591c0,22.853,8.077,42.382,24.229,58.588c16.205,16.152,35.734,24.229,58.591,24.229
					c22.903,0,42.406-8.077,58.509-24.229c16.153-16.206,24.23-35.735,24.23-58.588C713.116,403.822,705.039,384.29,688.885,368.086
					z M694.028,362.945c17.556,17.606,26.334,38.853,26.334,63.731c0,24.826-8.778,46.045-26.334,63.651
					c-17.504,17.557-38.722,26.333-63.651,26.333c-24.828,0-46.048-8.776-63.654-26.333c-17.557-17.606-26.333-38.825-26.333-63.651
					c0-24.88,8.776-46.125,26.333-63.731c17.606-17.557,38.826-26.335,63.654-26.335
					C655.307,336.61,676.524,345.389,694.028,362.945z"/>
			</g>
			<path fill="#CCFF00" d="M628.309,428.779l1.678-84.846c33.343,0.063,58.612,16.242,75.806,48.538L628.309,428.779z"/>
			<g>
				<path d="M552.93,428.895c-0.003-0.3,0.101-0.56,0.313-0.778c0.201-0.223,0.448-0.338,0.74-0.351l11.997-0.312
					c0.301-0.004,0.563,0.102,0.779,0.312c0.222,0.201,0.341,0.447,0.351,0.739c0.005,0.302-0.1,0.561-0.312,0.778
					c-0.201,0.224-0.447,0.341-0.739,0.353l-11.999,0.313c-0.301,0.003-0.563-0.101-0.779-0.313
					C553.058,429.436,552.942,429.188,552.93,428.895z M629.674,491.03l-0.779,11.997c-0.026,0.297-0.155,0.543-0.39,0.741
					c-0.224,0.199-0.482,0.291-0.779,0.271c-0.295-0.025-0.542-0.156-0.739-0.39c-0.201-0.224-0.291-0.481-0.271-0.779l0.778-11.998
					c0.025-0.297,0.156-0.544,0.391-0.739c0.224-0.2,0.481-0.292,0.777-0.272c0.298,0.026,0.544,0.155,0.741,0.391
					C629.6,490.474,629.69,490.733,629.674,491.03z M706.805,426.363c0.304-0.002,0.563,0.103,0.778,0.313
					c0.21,0.214,0.314,0.475,0.313,0.777c0.002,0.304-0.104,0.563-0.313,0.779c-0.217,0.21-0.476,0.313-0.778,0.312h-11.997
					c-0.305,0.003-0.563-0.102-0.779-0.312c-0.21-0.216-0.314-0.477-0.313-0.779c-0.003-0.304,0.103-0.563,0.313-0.777
					c0.216-0.212,0.476-0.315,0.779-0.313H706.805z M630.531,349.154c0.05-0.001,0.103-0.001,0.154,0
					c0.305-0.002,0.563,0.103,0.779,0.312c0.21,0.217,0.313,0.476,0.313,0.778v11.999c0.001,0.304-0.103,0.564-0.313,0.779
					c-0.217,0.212-0.476,0.315-0.779,0.313c-0.053,0-0.104,0-0.154,0c-0.053,0-0.104,0-0.154,0
					c-0.306,0.004-0.565-0.101-0.779-0.313c-0.212-0.215-0.316-0.477-0.313-0.779v-11.999c-0.003-0.304,0.103-0.563,0.313-0.778
					c0.214-0.209,0.475-0.313,0.779-0.312C630.428,349.153,630.479,349.153,630.531,349.154z"/>
			</g>
			<g>
				<path d="M590.253,476.928c0.206-0.259,0.465-0.416,0.777-0.468c0.259-0.053,0.519,0.025,0.779,0.233
					c0.207,0.207,0.336,0.467,0.39,0.779c0.053,0.259-0.026,0.519-0.233,0.779l-7.48,9.349c-0.207,0.207-0.44,0.338-0.7,0.39
					c-0.312,0.053-0.571-0.024-0.778-0.233c-0.261-0.207-0.417-0.441-0.469-0.701c-0.052-0.312,0.027-0.57,0.234-0.779
					L590.253,476.928z M571.863,399.251c0.259,0.104,0.441,0.312,0.545,0.621c0.104,0.263,0.104,0.547,0,0.858
					c-0.104,0.259-0.311,0.441-0.623,0.545c-0.26,0.104-0.519,0.104-0.778,0l-10.907-4.83c-0.313-0.104-0.52-0.312-0.623-0.624
					c-0.105-0.259-0.105-0.519,0-0.778c0.104-0.312,0.311-0.52,0.623-0.624c0.26-0.104,0.546-0.104,0.855,0L571.863,399.251z
					 M572.487,457.139c-0.104,0.311-0.286,0.52-0.545,0.623l-10.597,5.531c-0.312,0.155-0.596,0.183-0.856,0.078
					c-0.312-0.054-0.519-0.209-0.623-0.469c-0.156-0.311-0.21-0.597-0.156-0.855c0.104-0.26,0.312-0.469,0.622-0.623l10.598-5.61
					c0.259-0.104,0.545-0.129,0.856-0.077c0.261,0.104,0.468,0.286,0.623,0.546C572.512,456.54,572.539,456.826,572.487,457.139z
					 M665.592,479.344c0.259-0.208,0.545-0.26,0.855-0.157c0.262,0,0.493,0.131,0.701,0.39l6.7,9.975
					c0.157,0.259,0.209,0.545,0.157,0.855c-0.055,0.262-0.21,0.493-0.47,0.702c-0.259,0.154-0.521,0.206-0.778,0.154
					c-0.312-0.051-0.545-0.206-0.7-0.467l-6.701-9.974c-0.207-0.259-0.259-0.52-0.155-0.778
					C665.201,479.733,665.33,479.498,665.592,479.344z M699.793,459.163c0.261,0.104,0.44,0.313,0.547,0.623
					c0.104,0.261,0.104,0.521,0,0.779c-0.157,0.26-0.364,0.442-0.623,0.546c-0.313,0.104-0.601,0.104-0.857,0l-10.753-5.299
					c-0.259-0.155-0.44-0.362-0.545-0.624c-0.104-0.31-0.077-0.596,0.079-0.854c0.104-0.261,0.311-0.44,0.623-0.547
					c0.26-0.104,0.519-0.076,0.777,0.078L699.793,459.163z M699.793,393.953c0.261-0.156,0.547-0.183,0.857-0.078
					c0.259,0.104,0.467,0.285,0.624,0.544c0.104,0.262,0.104,0.547,0,0.857c-0.104,0.259-0.286,0.468-0.546,0.624l-10.908,4.985
					c-0.26,0.104-0.546,0.104-0.855,0c-0.261-0.104-0.441-0.286-0.545-0.545c-0.156-0.261-0.184-0.545-0.079-0.858
					c0.104-0.259,0.286-0.441,0.545-0.545L699.793,393.953z M674.629,363.179c0.312-0.052,0.569,0.023,0.778,0.232
					c0.261,0.156,0.415,0.39,0.467,0.701c0.053,0.259,0,0.521-0.154,0.779l-7.013,9.66c-0.208,0.262-0.469,0.416-0.778,0.469
					c-0.261,0.051-0.521,0-0.779-0.156c-0.26-0.208-0.417-0.469-0.469-0.778c-0.052-0.261,0.027-0.521,0.233-0.778l7.014-9.663
					C674.082,363.386,674.316,363.23,674.629,363.179z M586.277,363.179c0.313,0.052,0.544,0.207,0.702,0.466l7.168,9.663
					c0.207,0.206,0.285,0.466,0.233,0.778c-0.055,0.311-0.182,0.545-0.391,0.7c-0.26,0.208-0.546,0.285-0.855,0.234
					c-0.313-0.053-0.545-0.184-0.702-0.391l-7.168-9.66c-0.207-0.261-0.286-0.547-0.233-0.857c0.052-0.313,0.208-0.545,0.467-0.701
					C585.705,363.202,585.967,363.127,586.277,363.179z"/>
			</g>
			<path fill="#999999" d="M721.389,303.812c0.587,0.475,1.388,1.071,2.398,1.786c1.025,0.7,2.031,1.537,3.016,2.512
				c0.44,0.076,0.905,0.111,1.394,0.111c2.085,0,3.871-0.744,5.357-2.233c1.414-1.412,2.122-3.162,2.122-5.245
				s-0.708-3.867-2.122-5.356c-1.486-1.412-3.272-2.12-5.357-2.12c-2.082,0-3.832,0.708-5.245,2.12
				c-1.487,1.489-2.231,3.273-2.231,5.356C720.719,301.866,720.94,302.889,721.389,303.812z"/>
			<path fill="#FF3333" d="M645.712,309.226c30.733,6.993,55.361,21.206,73.891,42.638c9.228,10.789,15.402,20.836,18.53,30.137
				c4.239-6.695,7.03-14.733,8.37-24.109c2.753-18.677-3.014-34.563-17.301-47.659c-0.802-0.731-1.603-1.438-2.398-2.121
				c-0.983-0.975-1.989-1.812-3.016-2.512c-1.012-0.715-1.813-1.313-2.398-1.786c-13.157-9.521-26.924-13.446-41.298-11.773
				C666.474,293.6,655.015,299.327,645.712,309.226z"/>
			<path fill="#660000" d="M738.133,381.998c-3.128-9.3-9.304-19.347-18.53-30.136c-18.528-21.432-43.156-35.645-73.891-42.638
				v7.089c28.251,7.398,51.096,21.183,68.533,41.354c6.147,7.188,10.947,14.054,14.398,20.593L738.133,381.998z"/>
			<g>
				<path fill="#FF3333" d="M694.34,363.1c-17.503-17.556-38.723-26.334-63.653-26.334c-24.827,0-46.044,8.778-63.652,26.334
					c-17.557,17.609-26.334,38.853-26.334,63.73c0,24.828,8.777,46.047,26.334,63.653c17.608,17.556,38.825,26.334,63.652,26.334
					c24.932,0,46.15-8.778,63.653-26.334c17.557-17.606,26.334-38.825,26.334-63.653C720.674,401.951,711.896,380.709,694.34,363.1z
					 M707.118,350.323c21.14,21.14,31.709,46.642,31.709,76.507s-10.569,55.344-31.709,76.432
					c-21.09,21.14-46.564,31.709-76.433,31.709c-29.864,0-55.368-10.569-76.507-31.709c-21.088-21.088-31.633-46.565-31.633-76.432
					c0-29.865,10.545-55.367,31.633-76.507c21.139-21.088,46.643-31.634,76.507-31.634
					C660.553,318.69,686.028,329.236,707.118,350.323z"/>
			</g>
			<g>
				<polygon fill="#333333" points="670.244,402.155 688.35,400.312 675.942,413.963 643.007,429.485 631.046,427.837 
					637.865,418.832 				"/>
			</g>
			<g>
				<path fill="#333333" d="M621.18,426.304c0.921-2.432,2.572-4.197,4.953-5.308c2.409-1.05,4.828-1.114,7.259-0.193
					c2.429,0.919,4.176,2.563,5.242,4.93c1.093,2.426,1.18,4.852,0.257,7.28c-0.654,1.729-1.691,3.109-3.11,4.138
					c-0.563,0.42-1.188,0.78-1.882,1.082c-2.382,1.11-4.789,1.202-7.218,0.282c-2.43-0.92-4.189-2.593-5.281-5.02
					c-0.307-0.68-0.528-1.36-0.662-2.045C620.378,429.75,620.524,428.032,621.18,426.304z"/>
			</g>
			<path fill="#333333" d="M631.545,357.289c0.414,0.292,0.62,0.62,0.62,0.985v91.92c0,0.365-0.206,0.676-0.62,0.933
				c-0.365,0.292-0.808,0.438-1.327,0.438h-0.075c-0.521,0-0.989-0.146-1.403-0.438c-0.365-0.257-0.545-0.566-0.545-0.933v-91.92
				c0-0.365,0.18-0.692,0.545-0.985c0.414-0.257,0.883-0.387,1.403-0.387h0.075C630.737,356.903,631.179,357.032,631.545,357.289z"
				/>
		</g>
	</g>
</g>
</svg>
