<?xml version="1.0" encoding="utf-8"?>
<!-- Generator: Adobe Illustrator 15.1.0, SVG Export Plug-In . SVG Version: 6.00 Build 0)  -->
<!DOCTYPE svg PUBLIC "-//W3C//DTD SVG 1.1//EN" "http://www.w3.org/Graphics/SVG/1.1/DTD/svg11.dtd">
<svg version="1.1" id="Layer_10" xmlns="http://www.w3.org/2000/svg" xmlns:xlink="http://www.w3.org/1999/xlink" x="0px" y="0px"
	 width="605.923px" height="283.256px" viewBox="0 0 605.923 283.256" enable-background="new 0 0 605.923 283.256"
	 xml:space="preserve">
<symbol  id="tab2" viewBox="-0.95 -274.05 602.301 275">
	<g id="Layer_1_5_">
		<g>
			<path fill-rule="evenodd" clip-rule="evenodd" fill="#99CADF" d="M597.2-13.7H1.35v12.75H597.2V-13.7z M183.95-35.35
				c0.001,0.262-0.09,0.487-0.275,0.675c-5.54,5.635-5.473,11.786,0.2,18.45c0.154,0.184,0.229,0.392,0.225,0.625h87.15v-19.75
				H183.95z M188.425-23.025c-0.751-0.753-1.126-1.662-1.125-2.725c-0.001-1.063,0.374-1.972,1.125-2.725
				c0.753-0.751,1.662-1.126,2.725-1.125c1.063-0.001,1.972,0.374,2.725,1.125c0.751,0.753,1.126,1.662,1.125,2.725
				c0.001,1.063-0.374,1.972-1.125,2.725c-0.753,0.751-1.662,1.126-2.725,1.125C190.087-21.899,189.178-22.274,188.425-23.025z"/>
			<path fill-rule="evenodd" clip-rule="evenodd" fill="#FFFFFF" d="M31.5-269H1.35v0.2H31.5V-269z M33.4-269v0.2h214.55v-0.2H33.4z
				 M321.851-269v0.2H597.2v-0.2H321.851z M319.95-269h-70.1v0.2h70.1V-269z M597.2-41.05h-275.35v3.8H597.2V-41.05z M273.15-15.6
				H597.2v-19.75H273.15V-15.6z M181.9-15.6c-5.722-7.098-5.797-13.682-0.225-19.75H1.35v19.75H181.9z M597.2-85.601h-69.125
				l-0.051,21.351H597.2V-85.601z M597.2-62.351h-69.176l-0.074,19.4h69.25V-62.351z M526.175-85.601h-65.275v21.351h65.201
				L526.175-85.601z M526.101-62.351h-65.201v19.4h65.15L526.101-62.351z M528.2-131l-0.051,21.25H597.2V-131H528.2z M526.325-131
				h-65.426v21.25h65.351L526.325-131z M526.399-162.55c0-0.264,0.092-0.488,0.275-0.676c0.187-0.184,0.412-0.275,0.676-0.274
				c0.263-0.001,0.488,0.091,0.674,0.274c0.186,0.188,0.276,0.412,0.275,0.676l-0.025,9.5H597.2v-20.35h-275.35v20.35H459v-6.25
				c-0.001-0.264,0.091-0.488,0.274-0.676c0.188-0.184,0.412-0.275,0.676-0.274c0.264-0.001,0.488,0.091,0.675,0.274
				c0.185,0.188,0.276,0.412,0.274,0.676v6.25h65.476L526.399-162.55z M528.274-151.149l-0.074,18.25h69v-18.25H528.274z
				 M526.375-151.149h-65.476v18.25h65.426L526.375-151.149z M597.2-196.55h-275.35v21.25H597.2V-196.55z M528.149-107.851
				L528.075-87.5H597.2v-20.351H528.149z M526.25-107.851h-65.351V-87.5h65.275L526.25-107.851z M459-85.601h-69.95l-0.074,21.351
				H459V-85.601z M459-62.351h-70.024l-0.076,19.4H459V-62.351z M387.125-85.601h-65.274v21.351h65.225L387.125-85.601z
				 M387.075-62.351h-65.225v19.4H387L387.075-62.351z M389.149-131l-0.049,21.25H459V-131H389.149z M387.25-131h-65.399v21.25
				h65.324L387.25-131z M389.2-151.149l-0.051,18.25H459v-18.25H389.2z M387.3-151.149h-65.449v18.25h65.399L387.3-151.149z
				 M389.05-87.5H459v-20.351h-69.899L389.05-87.5z M387.175-107.851h-65.324V-87.5h65.274L387.175-107.851z M597.2-243.75h-275.35
				v20.351H597.2V-243.75z M597.2-221.5h-275.35v23.05H597.2V-221.5z M597.2-266.899h-275.35v21.25H597.2V-266.899z M319.95-41.05
				H248.3l-0.05,3.8h71.7V-41.05z M246.375-41.05H1.35v3.8h245L246.375-41.05z M248.45-64.25h71.5v-21.351h-71.4L248.45-64.25z
				 M246.7-85.601H34.075l0.1,21.351H246.55L246.7-85.601z M319.95-87.5v-20.351h-71.2l-0.2,20.351H319.95z M246.525-62.351H34.175
				l0.075,19.4H246.4L246.525-62.351z M319.95-131H248.9l-0.15,21.25h71.2V-131z M246.975-131h-213.1l0.1,21.25H246.85L246.975-131z
				 M249-153.05h70.95v-20.35h-70.8L249-153.05z M247.225-173.399h-213.5l0.075,20.35h213.3L247.225-173.399z M249.15-175.3h70.8
				v-21.25H249.3L249.15-175.3z M247.4-196.55H33.65l0.075,21.25H247.25L247.4-196.55z M248.9-132.899h71.05v-18.25H249
				L248.9-132.899z M247.1-151.149H33.8l0.075,18.25h213.1L247.1-151.149z M246.825-107.851H33.975l0.1,20.351H246.7
				L246.825-107.851z M33.55-221.5l0.1,23.05H247.4l0.2-23.05H33.55z M33.475-243.75l0.075,20.351H247.6l0.15-20.351H33.475z
				 M33.4-266.899l0.075,21.25h214.3l0.15-21.25H33.4z M319.95-243.75H249.7l-0.2,20.351h70.45V-243.75z M319.95-221.5H249.5
				l-0.2,23.05h70.65V-221.5z M249.7-245.649h70.25v-21.25h-70.1L249.7-245.649z"/>
			<path fill-rule="evenodd" clip-rule="evenodd" fill="#FF8B3E" d="M248.3-42.95h71.65v-19.4h-71.5L248.3-42.95z M1.35-173.399
				v20.35H31.9l-0.05-20.35H1.35z"/>
			<path fill-rule="evenodd" clip-rule="evenodd" fill="#CCCCCC" d="M191.15-23.8c0.537-0.001,0.995-0.193,1.375-0.575
				c0.382-0.38,0.574-0.838,0.575-1.375c-0.001-0.537-0.193-0.995-0.575-1.375c-0.38-0.382-0.838-0.574-1.375-0.575
				c-0.537,0.001-0.995,0.193-1.375,0.575c-0.382,0.38-0.574,0.838-0.575,1.375c0.001,0.537,0.193,0.995,0.575,1.375
				C190.155-23.993,190.613-23.801,191.15-23.8z"/>
			<path fill-rule="evenodd" clip-rule="evenodd" fill="#B4CEEF" d="M32.15-85.601H1.35v21.351H32.3L32.15-85.601z M1.35-87.5h30.8
				l-0.05-20.351H1.35V-87.5z M1.35-109.75H32.1L32-131H1.35V-109.75z M1.35-196.55v21.25h30.5l-0.15-21.25H1.35z M1.35-132.899H32
				l-0.1-18.25H1.35V-132.899z M31.65-221.5H1.35v23.05H31.7L31.65-221.5z M1.35-223.399h30.3L31.6-243.75H1.35V-223.399z
				 M1.35-245.649H31.6l-0.1-21.25H1.35V-245.649z"/>
			<polygon fill-rule="evenodd" clip-rule="evenodd" fill="#5F97DC" points="1.35,-42.95 32.35,-42.95 32.3,-62.351 1.35,-62.351 
							"/>
			<path fill-rule="evenodd" clip-rule="evenodd" fill="#333333" d="M597.2-269v0.2h-275.35v-0.2c0-0.264-0.092-0.488-0.275-0.675
				c-0.187-0.185-0.412-0.276-0.676-0.275c-0.263-0.001-0.488,0.091-0.674,0.275c-0.186,0.187-0.276,0.411-0.275,0.675v0.2h-70.1
				v-0.2c0.001-0.264-0.091-0.488-0.275-0.675c-0.187-0.185-0.412-0.276-0.675-0.275c-0.263-0.001-0.488,0.091-0.675,0.275
				c-0.185,0.187-0.276,0.411-0.275,0.675v0.2H33.4v-0.2c0.001-0.264-0.09-0.488-0.275-0.675c-0.187-0.185-0.412-0.276-0.675-0.275
				c-0.264-0.001-0.489,0.091-0.675,0.275c-0.184,0.187-0.276,0.411-0.275,0.675v0.2H1.35v-0.2c0.001-0.264-0.091-0.488-0.275-0.675
				c-0.187-0.185-0.412-0.276-0.675-0.275c-0.263-0.001-0.488,0.091-0.675,0.275c-0.185,0.187-0.276,0.411-0.275,0.675v0.375
				c-0.043,0.027-0.085,0.061-0.125,0.101c-0.185,0.186-0.276,0.411-0.275,0.674c-0.001,0.264,0.091,0.489,0.275,0.676
				c0.04,0.039,0.082,0.072,0.125,0.1v21.6c-0.043,0.027-0.085,0.061-0.125,0.101c-0.185,0.187-0.276,0.411-0.275,0.675
				c-0.001,0.264,0.091,0.488,0.275,0.676c0.04,0.039,0.082,0.072,0.125,0.1v20.699c-0.043,0.027-0.085,0.061-0.125,0.101
				c-0.185,0.187-0.276,0.411-0.275,0.675c-0.001,0.264,0.091,0.488,0.275,0.676c0.04,0.039,0.082,0.072,0.125,0.1v23.4
				c-0.043,0.027-0.085,0.061-0.125,0.1c-0.185,0.187-0.276,0.412-0.275,0.675c-0.001,0.263,0.091,0.488,0.275,0.675
				c0.04,0.039,0.082,0.072,0.125,0.1v21.601c-0.043,0.027-0.085,0.061-0.125,0.101c-0.185,0.186-0.276,0.411-0.275,0.674
				c-0.001,0.264,0.091,0.488,0.275,0.676c0.04,0.039,0.082,0.072,0.125,0.1v20.7c-0.043,0.027-0.085,0.061-0.125,0.101
				c-0.185,0.186-0.276,0.411-0.275,0.674c-0.001,0.264,0.091,0.488,0.275,0.676c0.04,0.039,0.082,0.072,0.125,0.1v18.6
				c-0.043,0.027-0.085,0.061-0.125,0.101c-0.185,0.187-0.276,0.411-0.275,0.675c-0.001,0.264,0.091,0.488,0.275,0.676
				c0.04,0.039,0.082,0.072,0.125,0.1v21.6c-0.043,0.027-0.085,0.061-0.125,0.1c-0.185,0.188-0.276,0.412-0.275,0.676
				c-0.001,0.264,0.091,0.488,0.275,0.675c0.04,0.04,0.082,0.073,0.125,0.101v20.699c-0.043,0.027-0.085,0.061-0.125,0.1
				c-0.185,0.188-0.276,0.412-0.275,0.676c-0.001,0.264,0.091,0.488,0.275,0.675c0.04,0.04,0.082,0.073,0.125,0.101v21.699
				c-0.043,0.027-0.085,0.061-0.125,0.1c-0.185,0.188-0.276,0.412-0.275,0.676c-0.001,0.264,0.091,0.488,0.275,0.675
				c0.04,0.04,0.082,0.073,0.125,0.101v19.75c-0.043,0.027-0.085,0.061-0.125,0.1C-0.859-42.488-0.951-42.263-0.95-42
				c-0.001,0.263,0.091,0.488,0.275,0.675c0.04,0.04,0.082,0.073,0.125,0.1V0c-0.001,0.263,0.09,0.488,0.275,0.675
				C-0.088,0.859,0.137,0.951,0.4,0.95h597.75c0.264,0.001,0.489-0.091,0.676-0.275c0.184-0.187,0.275-0.412,0.275-0.675v-13.7h0.25
				c0.263,0.001,0.488-0.09,0.674-0.275c0.186-0.187,0.276-0.412,0.275-0.675l-0.225-20.7h0.324c0.264,0.001,0.489-0.09,0.676-0.275
				c0.184-0.187,0.275-0.412,0.275-0.675c0-0.264-0.092-0.489-0.275-0.675c-0.187-0.184-0.412-0.276-0.676-0.275h-0.35L600-267.851
				c0.001-0.263-0.091-0.488-0.274-0.674c-0.176-0.174-0.384-0.265-0.625-0.275v-0.2c0-0.264-0.092-0.488-0.275-0.675
				c-0.187-0.185-0.412-0.276-0.676-0.275c-0.263-0.001-0.488,0.091-0.674,0.275C597.29-269.488,597.199-269.264,597.2-269z
				 M597.2-13.7v12.75H1.35V-13.7H597.2z M273.15-15.6c0.001,0.264-0.09,0.488-0.275,0.675c-0.187,0.184-0.412,0.276-0.675,0.275
				c-0.264,0.001-0.489-0.091-0.675-0.275c-0.184-0.187-0.276-0.412-0.275-0.675H184.1c0.002,0.025,0.002,0.05,0,0.075
				c-0.019,0.262-0.127,0.479-0.325,0.65c-0.203,0.171-0.437,0.246-0.7,0.225c-0.262-0.02-0.479-0.128-0.65-0.325
				c-0.177-0.209-0.352-0.417-0.525-0.625H1.35v-19.75h180.325c0.21-0.226,0.427-0.451,0.65-0.675
				c0.187-0.184,0.412-0.275,0.675-0.275c0.262-0.002,0.487,0.09,0.675,0.275c0.185,0.187,0.276,0.412,0.275,0.675h87.3
				c-0.001-0.263,0.091-0.488,0.275-0.675c0.187-0.185,0.412-0.276,0.675-0.275c0.263-0.001,0.488,0.09,0.675,0.275
				c0.185,0.187,0.276,0.412,0.275,0.675H597.2v19.75H273.15z M597.2-41.05v3.8h-275.35v-3.8H597.2z M526.101-62.351l-0.051,19.4
				h-65.15v-19.4H526.101z M526.175-85.601l-0.074,21.351h-65.201v-21.351H526.175z M597.2-62.351v19.4h-69.25l0.074-19.4H597.2z
				 M597.2-85.601v21.351h-69.176l0.051-21.351H597.2z M528.2-131h69v21.25h-69.051L528.2-131z M526.399-162.55l-0.024,9.5h-65.476
				v-6.25c0.002-0.264-0.09-0.488-0.274-0.676c-0.187-0.184-0.411-0.275-0.675-0.274c-0.264-0.001-0.488,0.091-0.676,0.274
				c-0.184,0.188-0.275,0.412-0.274,0.676v6.25H321.851v-20.35H597.2v20.35h-68.926l0.025-9.5c0.001-0.264-0.09-0.488-0.275-0.676
				c-0.186-0.184-0.411-0.275-0.674-0.274c-0.264-0.001-0.489,0.091-0.676,0.274C526.491-163.038,526.399-162.813,526.399-162.55z
				 M526.325-131l-0.075,21.25h-65.351V-131H526.325z M528.274-151.149H597.2v18.25h-69L528.274-151.149z M387.075-62.351L387-42.95
				h-65.149v-19.4H387.075z M387.125-85.601l-0.05,21.351h-65.225v-21.351H387.125z M459-62.351v19.4h-70.101l0.076-19.4H459z
				 M459-85.601v21.351h-70.024l0.074-21.351H459z M526.25-107.851L526.175-87.5h-65.275v-20.351H526.25z M528.149-107.851H597.2
				V-87.5h-69.125L528.149-107.851z M597.2-196.55v21.25h-275.35v-21.25H597.2z M526.375-151.149l-0.05,18.25h-65.426v-18.25
				H526.375z M389.149-131H459v21.25h-69.899L389.149-131z M387.25-131l-0.075,21.25h-65.324V-131H387.25z M389.2-151.149H459v18.25
				h-69.851L389.2-151.149z M246.375-41.05l-0.025,3.8h-245v-3.8H246.375z M319.95-41.05v3.8h-71.7l0.05-3.8H319.95z M597.2-266.899
				v21.25h-275.35v-21.25H597.2z M597.2-221.5v23.05h-275.35v-23.05H597.2z M597.2-243.75v20.351h-275.35v-20.351H597.2z
				 M387.175-107.851l-0.05,20.351h-65.274v-20.351H387.175z M389.05-87.5l0.051-20.351H459V-87.5H389.05z M387.3-151.149
				l-0.05,18.25h-65.399v-18.25H387.3z M246.7-85.601l-0.15,21.351H34.175l-0.1-21.351H246.7z M248.45-64.25l0.1-21.351h71.4v21.351
				H248.45z M248.3-42.95l0.15-19.4h71.5v19.4H248.3z M246.525-62.351l-0.125,19.4H34.25l-0.075-19.4H246.525z M319.95-87.5h-71.4
				l0.2-20.351h71.2V-87.5z M246.825-107.851L246.7-87.5H34.075l-0.1-20.351H246.825z M247.1-151.149l-0.125,18.25h-213.1
				l-0.075-18.25H247.1z M248.9-132.899l0.1-18.25h70.95v18.25H248.9z M247.4-196.55l-0.15,21.25H33.725l-0.075-21.25H247.4z
				 M249.15-175.3l0.15-21.25h70.65v21.25H249.15z M247.225-173.399l-0.125,20.35H33.8l-0.075-20.35H247.225z M249-153.05
				l0.15-20.35h70.8v20.35H249z M246.975-131l-0.125,21.25H33.975l-0.1-21.25H246.975z M319.95-131v21.25h-71.2L248.9-131H319.95z
				 M1.35-42.95v-19.4H32.3l0.05,19.4H1.35z M32.15-85.601L32.3-64.25H1.35v-21.351H32.15z M1.35-87.5v-20.351H32.1L32.15-87.5H1.35
				z M1.35-109.75V-131H32l0.1,21.25H1.35z M1.35-132.899v-18.25H31.9l0.1,18.25H1.35z M1.35-196.55H31.7l0.15,21.25H1.35V-196.55z
				 M1.35-173.399h30.5l0.05,20.35H1.35V-173.399z M33.55-221.5H247.6l-0.2,23.05H33.65L33.55-221.5z M1.35-223.399v-20.351H31.6
				l0.05,20.351H1.35z M31.65-221.5l0.05,23.05H1.35v-23.05H31.65z M33.475-243.75H247.75l-0.15,20.351H33.55L33.475-243.75z
				 M1.35-245.649v-21.25H31.5l0.1,21.25H1.35z M33.4-266.899h214.525l-0.15,21.25h-214.3L33.4-266.899z M249.7-245.649l0.15-21.25
				h70.1v21.25H249.7z M319.95-221.5v23.05H249.3l0.2-23.05H319.95z M319.95-243.75v20.351H249.5l0.2-20.351H319.95z"/>
			<path fill-rule="evenodd" clip-rule="evenodd" fill="#669999" d="M273.15-15.6v-19.75c0.001-0.263-0.09-0.488-0.275-0.675
				c-0.187-0.185-0.412-0.276-0.675-0.275c-0.264-0.001-0.489,0.09-0.675,0.275c-0.184,0.187-0.276,0.412-0.275,0.675v19.75
				c-0.001,0.264,0.091,0.488,0.275,0.675c0.187,0.184,0.412,0.276,0.675,0.275c0.263,0.001,0.488-0.091,0.675-0.275
				C273.06-15.112,273.151-15.336,273.15-15.6z M181.675-35.35c-5.572,6.068-5.497,12.652,0.225,19.75
				c0.173,0.208,0.348,0.416,0.525,0.625c0.172,0.197,0.389,0.306,0.65,0.325c0.263,0.021,0.497-0.054,0.7-0.225
				c0.198-0.171,0.306-0.388,0.325-0.65c0.002-0.025,0.002-0.05,0-0.075c0.004-0.233-0.071-0.441-0.225-0.625
				c-5.673-6.664-5.74-12.814-0.2-18.45c0.185-0.188,0.276-0.414,0.275-0.675c0-0.263-0.091-0.488-0.275-0.675
				c-0.188-0.185-0.413-0.277-0.675-0.275c-0.263,0-0.488,0.091-0.675,0.275C182.102-35.801,181.885-35.576,181.675-35.35z
				 M191.15-23.8c-0.537-0.001-0.995-0.193-1.375-0.575c-0.382-0.38-0.574-0.838-0.575-1.375c0.001-0.537,0.193-0.995,0.575-1.375
				c0.38-0.382,0.838-0.574,1.375-0.575c0.537,0.001,0.995,0.193,1.375,0.575c0.382,0.38,0.574,0.838,0.575,1.375
				c-0.001,0.537-0.193,0.995-0.575,1.375C192.145-23.993,191.687-23.801,191.15-23.8z M188.425-23.025
				c0.753,0.751,1.662,1.126,2.725,1.125c1.063,0.001,1.972-0.374,2.725-1.125c0.751-0.753,1.126-1.662,1.125-2.725
				c0.001-1.063-0.374-1.972-1.125-2.725c-0.753-0.751-1.662-1.126-2.725-1.125c-1.063-0.001-1.972,0.374-2.725,1.125
				c-0.751,0.753-1.126,1.662-1.125,2.725C187.299-24.687,187.674-23.778,188.425-23.025z"/>
			<g>
				<path fill-rule="evenodd" clip-rule="evenodd" d="M570.399-47.65h-7.35v-4.201h6.4V-53.5h-6.4v-6.149h-1.85v13.6h9.199V-47.65z
					 M491.95-47.65v-4.15h7.5v-1.6h-7.5v-4.65h8.35v-1.6h-10.199v13.6h9.85v-1.6H491.95z M420.45-47.65v-10.4h2.449
					c1.967,0,3.317,0.467,4.051,1.4c0.732,0.933,1.1,2.232,1.1,3.899c0,1.634-0.367,2.884-1.1,3.75c-0.7,0.9-2.051,1.35-4.051,1.35
					H420.45z M422.95-46.05c4.633,0,6.949-2.233,6.949-6.7c0-4.601-2.316-6.899-6.949-6.899h-4.35v13.6H422.95z M351.75-48.75
					c-0.8-0.967-1.2-2.333-1.2-4.101c0-1.766,0.4-3.116,1.2-4.049c0.8-0.967,1.884-1.451,3.25-1.451
					c1.067,0,1.933,0.268,2.601,0.801c0.666,0.5,1.033,1.232,1.1,2.199h1.85c-0.133-1.433-0.699-2.549-1.699-3.35
					c-1-0.8-2.268-1.199-3.801-1.199c-1.934,0-3.482,0.633-4.65,1.899c-1.133,1.267-1.699,2.983-1.699,5.149
					c0,2.168,0.566,3.884,1.699,5.15c1.168,1.267,2.717,1.9,4.65,1.9c1.467,0,2.717-0.4,3.75-1.2s1.617-1.851,1.75-3.149h-1.85
					c-0.066,0.866-0.434,1.549-1.1,2.049c-0.668,0.5-1.518,0.75-2.551,0.75C353.683-47.35,352.583-47.817,351.75-48.75z
					 M284.7-47.65h-2.85v-4.1h3c1,0,1.733,0.167,2.2,0.5c0.467,0.333,0.7,0.866,0.7,1.601c0,0.666-0.217,1.166-0.65,1.5
					C286.633-47.817,285.833-47.65,284.7-47.65z M288.3-46.95c0.833-0.633,1.25-1.482,1.25-2.55c0-1.3-0.65-2.267-1.95-2.899
					c0.867-0.234,1.517-0.65,1.95-1.25c0.434-0.601,0.65-1.283,0.65-2.051c0-1.267-0.434-2.25-1.3-2.949
					c-0.867-0.668-2.117-1-3.75-1H280v13.6h4.9C286.333-46.05,287.467-46.35,288.3-46.95z M281.85-58.05h3.25
					c2.167,0,3.25,0.783,3.25,2.35c0,0.834-0.25,1.434-0.75,1.801c-0.5,0.366-1.4,0.549-2.7,0.549h-3.05V-58.05z M142.5-46.05
					l5.55-13.6h-2l-1.6,4.149h-5.7l-1.5-4.149h-1.9l5.2,13.6H142.5z M143.9-54.05l-2.4,6.3l-2.25-6.3H143.9z M15.2-72.101v1.051
					c1.7,0,2.667,0.65,2.9,1.949h1.1V-80h-1.4v8.45C17.233-71.917,16.367-72.101,15.2-72.101z M20.2-94.95
					c0.6-0.566,0.9-1.283,0.9-2.15c0-0.766-0.217-1.449-0.65-2.049c-0.434-0.601-1.284-1.434-2.55-2.5
					c-1.3-1.067-1.95-1.768-1.95-2.101h5.15V-105H14c0,0.667,0.2,1.283,0.6,1.851c0.433,0.6,1.183,1.332,2.25,2.199
					c1.066,0.9,1.8,1.6,2.2,2.1c0.4,0.533,0.6,1.134,0.6,1.801c0,0.566-0.167,1.017-0.5,1.35c-0.333,0.367-0.816,0.551-1.45,0.551
					c-0.534,0-0.983-0.184-1.35-0.551c-0.4-0.333-0.617-0.833-0.65-1.5h-1.45c0.1,0.967,0.45,1.717,1.05,2.25
					c0.633,0.566,1.45,0.85,2.45,0.85C18.817-94.101,19.633-94.384,20.2-94.95z M20.35-119.149c-0.267-0.434-0.65-0.75-1.15-0.951
					c0.667-0.166,1.167-0.5,1.5-1c0.367-0.5,0.55-1.082,0.55-1.75c0-0.967-0.333-1.766-1-2.399c-0.7-0.634-1.55-0.95-2.55-0.95
					s-1.817,0.283-2.45,0.85c-0.633,0.533-0.983,1.268-1.05,2.201h1.45c0-0.533,0.167-1,0.5-1.4c0.367-0.367,0.883-0.551,1.55-0.551
					c0.633,0,1.15,0.201,1.55,0.601c0.367,0.433,0.55,0.983,0.55,1.649c0,0.668-0.183,1.184-0.55,1.551
					c-0.4,0.367-0.983,0.55-1.75,0.55h-0.55v1.05h0.3c1.367,0,2.05,0.617,2.05,1.85c0,0.533-0.15,0.951-0.45,1.25
					c-0.3,0.301-0.717,0.451-1.25,0.451c-1.1,0-1.717-0.567-1.85-1.701h-1.4c0.1,0.9,0.45,1.584,1.05,2.051
					c0.567,0.467,1.283,0.699,2.15,0.699c0.967,0,1.733-0.25,2.3-0.75c0.566-0.533,0.85-1.199,0.85-2
					C20.7-118.317,20.583-118.75,20.35-119.149z M19.75-137.101v-7.1h1.45v-1.25h-1.45V-148h-1.4v2.55H13.8v1.25l4.85,7.1H19.75z
					 M18.35-139.3l-3.3-4.9h3.3V-139.3z M20.8-160.55h-4.6l-0.25-2.95c0.533,0.433,1.2,0.649,2,0.649c0.9,0,1.683-0.332,2.35-1
					c0.667-0.6,1-1.433,1-2.5c0-1.1-0.333-2.016-1-2.75c-0.667-0.732-1.55-1.1-2.65-1.1c-0.933,0-1.717,0.25-2.35,0.75
					c-0.633,0.533-1,1.283-1.1,2.25h1.4c0.1-0.633,0.333-1.117,0.7-1.449c0.367-0.301,0.817-0.451,1.35-0.451
					c0.667,0,1.2,0.25,1.6,0.75s0.6,1.117,0.6,1.851c0,0.767-0.2,1.366-0.6,1.8c-0.433,0.434-0.983,0.65-1.65,0.65
					c-0.767,0-1.417-0.301-1.95-0.9h-1.1l0.45,5.7h5.8V-160.55z M15.6-184.2c0.733,0.768,1.55,1.15,2.45,1.15
					c0.9,0,1.667-0.316,2.3-0.95c0.6-0.667,0.9-1.5,0.9-2.5c0-1.033-0.3-1.899-0.9-2.601c-0.633-0.732-1.45-1.1-2.45-1.1
					c-1.167,0-2.066,0.45-2.7,1.35c-0.667,0.9-1,2.184-1,3.851c0,3.933,1.267,5.899,3.8,5.899c0.833,0,1.517-0.217,2.05-0.649
					c0.567-0.467,0.917-1.134,1.05-2h-1.45c-0.1,1.067-0.667,1.601-1.7,1.601c-0.667,0-1.2-0.351-1.6-1.051
					C15.95-181.899,15.7-182.899,15.6-184.2z M17.85-184.101c-0.767,0-1.517-0.399-2.25-1.199c0.033-1.2,0.25-2.133,0.65-2.801
					c0.4-0.666,0.933-1,1.6-1c0.6,0,1.083,0.234,1.45,0.701c0.367,0.5,0.55,1.1,0.55,1.799c0,0.734-0.184,1.334-0.55,1.801
					S18.45-184.101,17.85-184.101z M17.3-216h-1.55l4.05,9.45h-5.55v1.3h6.95v-1L17.3-216z"/>
			</g>
		</g>
		<g>
			<polygon fill-rule="evenodd" clip-rule="evenodd" points="162.95,-23.05 173.6,-23.05 168.35,-32.35 			"/>
			<g>
				<path fill-rule="evenodd" clip-rule="evenodd" d="M319.351-130.5v19.351H249.4V-130.5H319.351z M320.8-108.25
					c0.4,0,0.742-0.142,1.025-0.425s0.425-0.625,0.425-1.025v-22.25c0-0.4-0.142-0.742-0.425-1.025s-0.625-0.424-1.025-0.424h-72.85
					c-0.4,0-0.742,0.141-1.025,0.424s-0.425,0.625-0.425,1.025v22.25c0,0.4,0.142,0.742,0.425,1.025s0.625,0.425,1.025,0.425H320.8z
					"/>
				<g>
					<path fill-rule="evenodd" clip-rule="evenodd" d="M265.65-116.95c-0.467,0-0.867-0.15-1.2-0.449c-0.3-0.301-0.5-0.75-0.6-1.351
						l-1.25,0.2c0.167,0.833,0.517,1.482,1.05,1.949c0.533,0.434,1.2,0.65,2,0.65c0.533,0,1.033-0.117,1.5-0.35
						c0.467-0.233,0.817-0.551,1.05-0.95c0.233-0.399,0.35-0.833,0.35-1.3c0-0.434-0.117-0.816-0.35-1.15
						c-0.233-0.367-0.567-0.65-1-0.85c0.566-0.167,1.017-0.467,1.35-0.9c0.333-0.4,0.5-0.934,0.5-1.6c0-0.867-0.316-1.6-0.95-2.2
						c-0.633-0.634-1.45-0.95-2.45-0.95c-0.867,0-1.583,0.268-2.15,0.801c-0.6,0.533-0.933,1.217-1,2.049l1.2,0.15
						c0.167-0.699,0.417-1.199,0.75-1.5c0.333-0.3,0.75-0.449,1.25-0.449c0.566,0,1.05,0.199,1.45,0.6s0.6,0.9,0.6,1.5
						c0,0.566-0.183,1.033-0.55,1.4c-0.367,0.366-0.833,0.549-1.4,0.549c-0.233,0-0.533-0.049-0.9-0.149l0.15,1.05
						c0.067,0,0.133,0,0.2,0c0.533,0,1,0.133,1.4,0.4c0.434,0.3,0.65,0.732,0.65,1.3c0,0.433-0.15,0.8-0.45,1.101
						C266.55-117.101,266.15-116.95,265.65-116.95z M256.9-119c-0.467-0.3-0.9-0.517-1.3-0.649v1.199
						c0.7,0.334,1.316,0.717,1.85,1.15c0.5,0.467,0.85,0.916,1.05,1.35h0.8V-126h-1.2v7.851C257.8-118.45,257.4-118.733,256.9-119z"
						/>
				</g>
			</g>
			<g>
				<path fill-rule="evenodd" clip-rule="evenodd" fill="#666666" d="M542.375-147.2H135.7v-25.25h428.05v25.25h-8.05H542.375z
					 M565.2-144.3c0.4,0,0.75-0.15,1.05-0.45c0.267-0.267,0.399-0.601,0.399-1v-126.851c0-0.399-0.133-0.75-0.399-1.049
					c-0.3-0.268-0.649-0.4-1.05-0.4H134.25c-0.4,0-0.733,0.133-1,0.4c-0.3,0.299-0.45,0.649-0.45,1.049v126.851
					c0,0.399,0.15,0.733,0.45,1c0.267,0.3,0.6,0.45,1,0.45H565.2z M563.75-271.149v95.799H135.7v-95.799H563.75z"/>
				<path fill-rule="evenodd" clip-rule="evenodd" fill="#0066FF" d="M555.7-147.2h8.05v-25.25H135.7v25.25h406.675
					c-3.384-0.112-5.075-1.912-5.075-5.4v-12.75c0-3.6,1.801-5.399,5.4-5.399h12.75c3.6,0,5.4,1.8,5.4,5.399v12.75
					C560.851-149.088,559.134-147.288,555.7-147.2z"/>
				<path fill-rule="evenodd" clip-rule="evenodd" fill="#E9E9E9" d="M416.399-242.25v-12.25c0-4.033,1.918-6.05,5.75-6.05h89.451
					c3.833,0,5.75,2.017,5.75,6.05v12.25c0,4-1.917,6-5.75,6h-89.451C418.317-236.25,416.399-238.25,416.399-242.25
					c0,4,1.918,6,5.75,6h89.451c3.833,0,5.75-2,5.75-6v-12.25c0-4.033-1.917-6.05-5.75-6.05h-89.451c-3.832,0-5.75,2.017-5.75,6.05
					V-242.25z M395-236.25h-89.45c-3.833,0-5.75-2-5.75-6v-12.25c0-4.033,1.917-6.05,5.75-6.05H395c3.833,0,5.75,2.017,5.75,6.05
					v12.25C400.75-238.25,398.833-236.25,395-236.25c3.833,0,5.75-2,5.75-6v-12.25c0-4.033-1.917-6.05-5.75-6.05h-89.45
					c-3.833,0-5.75,2.017-5.75,6.05v12.25c0,4,1.917,6,5.75,6H395z M563.75-271.149H135.7v95.799h428.05V-271.149z M181.85-187.601
					c-3.4,3.4-7.5,5.101-12.3,5.101c-4.8,0-8.9-1.7-12.3-5.101c-3.4-3.399-5.1-7.5-5.1-12.299c0-4.801,1.7-8.884,5.1-12.25
					c3.4-3.434,7.5-5.15,12.3-5.15c4.8,0,8.9,1.717,12.3,5.15c3.4,3.366,5.1,7.449,5.1,12.25
					C186.95-195.101,185.25-191,181.85-187.601z M278.45-236.25H189c-3.833,0-5.75-2-5.75-6v-12.25c0-4.033,1.917-6.05,5.75-6.05
					h89.45c3.833,0,5.75,2.017,5.75,6.05v12.25C284.2-238.25,282.283-236.25,278.45-236.25c3.833,0,5.75-2,5.75-6v-12.25
					c0-4.033-1.917-6.05-5.75-6.05H189c-3.833,0-5.75,2.017-5.75,6.05v12.25c0,4,1.917,6,5.75,6H278.45z M194.3-253.05v-0.2h0.65
					C194.733-253.188,194.517-253.12,194.3-253.05z M204.25-255.351v-0.699h1.3v0.5C205.116-255.487,204.683-255.42,204.25-255.351z
					"/>
				<path fill-rule="evenodd" clip-rule="evenodd" fill="#CC0000" d="M553.899-151.351l-4.6-5.199l-5.1,4.75
					c-0.267,0.267-0.584,0.383-0.95,0.35c-0.333-0.033-0.634-0.184-0.899-0.449c-0.234-0.234-0.351-0.533-0.351-0.9
					c0.033-0.334,0.184-0.633,0.45-0.9l5.15-4.8l-5.5-6.101c-0.268-0.266-0.384-0.582-0.351-0.949c0.033-0.334,0.184-0.633,0.45-0.9
					c0.267-0.232,0.583-0.333,0.949-0.3c0.334,0.033,0.634,0.183,0.9,0.45l5.4,6.05l5.949-5.55c0.268-0.233,0.584-0.35,0.951-0.35
					c0.366,0,0.666,0.133,0.899,0.399s0.351,0.583,0.351,0.95c0,0.333-0.134,0.617-0.4,0.85l-5.95,5.6l4.55,5.25
					c0.233,0.301,0.334,0.617,0.301,0.951c-0.034,0.399-0.167,0.699-0.4,0.899c-0.267,0.267-0.566,0.384-0.9,0.351
					C554.399-150.967,554.101-151.116,553.899-151.351z M559.05-152.601v-12.75c0-2.399-1.199-3.6-3.6-3.6H542.7
					c-2.4,0-3.6,1.2-3.6,3.6v12.75c0,2.4,1.199,3.601,3.6,3.601h12.75C557.851-149,559.05-150.2,559.05-152.601z M181.85-187.601
					c3.4-3.399,5.1-7.5,5.1-12.299c0-4.801-1.7-8.884-5.1-12.25c-3.4-3.434-7.5-5.15-12.3-5.15c-4.8,0-8.9,1.717-12.3,5.15
					c-3.4,3.366-5.1,7.449-5.1,12.25c0,4.799,1.7,8.899,5.1,12.299c3.4,3.4,7.5,5.101,12.3,5.101
					C174.35-182.5,178.45-184.2,181.85-187.601z"/>
				<path fill-rule="evenodd" clip-rule="evenodd" fill="#E8E8E8" d="M555.7-147.2c3.434-0.088,5.15-1.888,5.15-5.4v-12.75
					c0-3.6-1.801-5.399-5.4-5.399H542.7c-3.6,0-5.4,1.8-5.4,5.399v12.75c0,3.488,1.691,5.288,5.075,5.4H555.7z M559.05-152.601
					c0,2.4-1.199,3.601-3.6,3.601H542.7c-2.4,0-3.6-1.2-3.6-3.601v-12.75c0-2.399,1.199-3.6,3.6-3.6h12.75c2.4,0,3.6,1.2,3.6,3.6
					V-152.601z M553.899-151.351c0.201,0.234,0.5,0.384,0.9,0.451c0.334,0.033,0.634-0.084,0.9-0.351c0.233-0.2,0.366-0.5,0.4-0.899
					c0.033-0.334-0.067-0.65-0.301-0.951l-4.55-5.25l5.95-5.6c0.267-0.232,0.4-0.517,0.4-0.85c0-0.367-0.117-0.684-0.351-0.95
					s-0.533-0.399-0.899-0.399c-0.367,0-0.684,0.116-0.951,0.35l-5.949,5.55l-5.4-6.05c-0.267-0.268-0.566-0.417-0.9-0.45
					c-0.366-0.033-0.683,0.067-0.949,0.3c-0.267,0.268-0.417,0.566-0.45,0.9c-0.033,0.367,0.083,0.684,0.351,0.949l5.5,6.101
					l-5.15,4.8c-0.267,0.268-0.417,0.566-0.45,0.9c0,0.367,0.116,0.666,0.351,0.9c0.266,0.266,0.566,0.416,0.899,0.449
					c0.366,0.033,0.684-0.083,0.95-0.35l5.1-4.75L553.899-151.351z"/>
				
					<path fill-rule="evenodd" clip-rule="evenodd" fill="none" stroke="#333333" stroke-width="1.9" stroke-linecap="round" stroke-linejoin="round" stroke-miterlimit="3" d="
					M416.399-242.25v-12.25c0-4.033,1.918-6.05,5.75-6.05h89.451c3.833,0,5.75,2.017,5.75,6.05v12.25c0,4-1.917,6-5.75,6h-89.451
					C418.317-236.25,416.399-238.25,416.399-242.25z M395-236.25h-89.45c-3.833,0-5.75-2-5.75-6v-12.25
					c0-4.033,1.917-6.05,5.75-6.05H395c3.833,0,5.75,2.017,5.75,6.05v12.25C400.75-238.25,398.833-236.25,395-236.25z
					 M278.45-236.25H189c-3.833,0-5.75-2-5.75-6v-12.25c0-4.033,1.917-6.05,5.75-6.05h89.45c3.833,0,5.75,2.017,5.75,6.05v12.25
					C284.2-238.25,282.283-236.25,278.45-236.25z"/>
				<g>
					<path fill-rule="evenodd" clip-rule="evenodd" fill="#E8E8E8" d="M163-190.851l6.7-6.549l6.4,6.75
						c0.333,0.399,0.767,0.6,1.3,0.6s0.983-0.184,1.35-0.551c0.367-0.332,0.55-0.75,0.55-1.25c0-0.533-0.15-0.982-0.45-1.35
						l-6.5-6.75l6.2-5.949c0.333-0.367,0.5-0.817,0.5-1.351c0-0.5-0.167-0.95-0.5-1.351c-0.367-0.332-0.8-0.5-1.3-0.5
						c-0.533,0-0.983,0.168-1.35,0.5l-6.1,5.951l-6-6.351c-0.4-0.366-0.85-0.55-1.35-0.55c-0.534,0-0.967,0.166-1.3,0.5
						c-0.4,0.367-0.6,0.8-0.6,1.3c0,0.533,0.184,0.983,0.55,1.351l6.05,6.35l-6.75,6.55c-0.4,0.366-0.6,0.8-0.6,1.3
						s0.184,0.934,0.55,1.301c0.367,0.399,0.8,0.6,1.3,0.6S162.6-190.483,163-190.851z"/>
				</g>
				<g>
					<path fill-rule="evenodd" clip-rule="evenodd" d="M395.7-196.351v-8.3h-1.05v6.45c-0.434-0.3-1.101-0.45-2-0.45v0.851
						c1.3,0,2.033,0.482,2.2,1.449H395.7z M421.15-196.351v-8.3h-1.05v6.45c-0.434-0.3-1.101-0.45-2-0.45v0.851
						c1.3,0,2.033,0.482,2.199,1.449H421.15z M426.4-196.351c0.8,0,1.433-0.217,1.899-0.649c0.434-0.434,0.65-0.983,0.65-1.65
						c0-0.6-0.166-1.116-0.5-1.55c-0.334-0.467-0.983-1.1-1.95-1.9c-0.966-0.8-1.466-1.333-1.5-1.6h3.95v-0.95h-5.4
						c0,0.5,0.15,0.983,0.45,1.45c0.333,0.434,0.9,0.983,1.7,1.65c0.834,0.666,1.4,1.199,1.7,1.6s0.45,0.85,0.45,1.35
						c0,0.434-0.134,0.783-0.4,1.051c-0.233,0.266-0.6,0.399-1.1,0.399c-0.4,0-0.75-0.134-1.051-0.399
						c-0.266-0.268-0.416-0.65-0.449-1.15h-1.101c0.067,0.733,0.333,1.3,0.8,1.7C425.017-196.567,425.634-196.351,426.4-196.351z
						 M448.55-245.75h-1.35c-0.066,0.634-0.334,1.134-0.8,1.5c-0.5,0.399-1.134,0.6-1.9,0.6c-1,0-1.8-0.35-2.399-1.05
						c-0.601-0.7-0.9-1.7-0.9-3s0.3-2.3,0.9-3c0.6-0.7,1.399-1.05,2.399-1.05c0.767,0,1.4,0.2,1.9,0.6
						c0.466,0.366,0.733,0.9,0.8,1.601h1.35c-0.1-1.066-0.516-1.884-1.25-2.45c-0.732-0.567-1.666-0.851-2.8-0.851
						c-1.399,0-2.533,0.45-3.399,1.351c-0.834,0.933-1.25,2.2-1.25,3.8c0,1.566,0.416,2.816,1.25,3.75c0.866,0.934,2,1.4,3.399,1.4
						c1.101,0,2.034-0.283,2.8-0.851C448.034-244,448.45-244.784,448.55-245.75z M451.55-246.5v-6.2h-1.3v7.25h5.851v-7.25h-1.25
						v6.2H451.55z M461.351-245.3c0.934,0,1.666-0.334,2.199-1c0.5-0.667,0.75-1.584,0.75-2.75c0-1.167-0.283-2.101-0.85-2.801
						c-0.566-0.666-1.3-1-2.2-1c-0.767,0-1.417,0.234-1.95,0.7v-3.35H458v10.05h1.3v-0.9C459.866-245.65,460.55-245.3,461.351-245.3
						z M468.55-246.3c-1.133,0-1.732-0.417-1.8-1.25h-1.25c0.101,1.5,1.134,2.25,3.101,2.25c0.934,0,1.666-0.184,2.199-0.551
						c0.5-0.366,0.75-1.083,0.75-2.149v-4.7h-1.25v0.75c-0.666-0.6-1.516-0.9-2.55-0.9c-0.733,0-1.316,0.184-1.75,0.551
						c-0.466,0.399-0.7,0.899-0.7,1.5c0,1.699,1.45,2.55,4.351,2.55h0.649c0,0.533-0.033,0.899-0.1,1.1
						c-0.066,0.267-0.217,0.467-0.45,0.601C469.483-246.384,469.083-246.3,468.55-246.3z M476.4-245.45
						c1.767,0,2.649-0.65,2.649-1.95c0-0.733-0.316-1.25-0.949-1.55c0.833-0.267,1.25-0.85,1.25-1.75c0-0.6-0.217-1.084-0.65-1.45
						c-0.467-0.366-1.084-0.55-1.85-0.55h-3.4v7.25H476.4z M476.15-246.5h-1.4v-2h1.5c0.534,0,0.917,0.083,1.15,0.25
						c0.233,0.134,0.35,0.384,0.35,0.75s-0.116,0.634-0.35,0.8C477.167-246.567,476.75-246.5,476.15-246.5z M482.2-245.45v-3.1
						l2.75,3.1h1.65l-2.75-2.85l3-4.4h-1.5L483-249.15l-0.8-0.899v-2.65h-1.3v7.25H482.2z M412.65-199.4
						c0.5-0.533,0.75-1.3,0.75-2.3c0-0.967-0.25-1.733-0.75-2.3c-0.5-0.534-1.184-0.8-2.05-0.8c-0.834,0-1.5,0.266-2,0.8
						c-0.5,0.566-0.75,1.333-0.75,2.3c0,1,0.25,1.767,0.75,2.3c0.5,0.534,1.166,0.8,2,0.8
						C411.467-198.601,412.15-198.866,412.65-199.4z M410.601-199.4c-0.5,0-0.9-0.2-1.2-0.6c-0.3-0.366-0.45-0.934-0.45-1.7
						c0-0.733,0.15-1.3,0.45-1.7c0.3-0.366,0.7-0.55,1.2-0.55c0.533,0,0.949,0.184,1.25,0.55c0.3,0.4,0.449,0.967,0.449,1.7
						c0,0.767-0.149,1.334-0.449,1.7C411.55-199.601,411.134-199.4,410.601-199.4z M406.3-204.65h-4.449v-1.6H400.8v2.399h0.5
						c0.7,1,1.051,2.617,1.051,4.851v0.25h4.149v-5.101h0.851v-2.399H406.3V-204.65z M405.4-199.55h-2
						c-0.067-1.934-0.366-3.367-0.9-4.301h2.9V-199.55z M476.3-249.5h-1.55v-2.2h1.65c1.1,0,1.649,0.367,1.649,1.1
						C478.05-249.866,477.467-249.5,476.3-249.5z M469.4-249.2c-1.866,0-2.8-0.5-2.8-1.5c0-0.367,0.133-0.65,0.399-0.85
						c0.267-0.2,0.634-0.301,1.101-0.301c0.434,0,0.85,0.084,1.25,0.25c0.399,0.2,0.717,0.467,0.949,0.801v1.6H469.4z M462.55-247
						c-0.333,0.466-0.766,0.7-1.3,0.7c-0.733,0-1.384-0.417-1.95-1.25V-251c0.533-0.567,1.167-0.851,1.9-0.851
						c0.533,0,0.967,0.234,1.3,0.7c0.333,0.467,0.5,1.167,0.5,2.101C463-248.15,462.851-247.467,462.55-247z M385.25-199.55h-1.899
						v0.8h4.8v-0.8H386.3v-5.101h-1.05V-199.55z M382.75-201.7c0-0.967-0.25-1.733-0.75-2.3c-0.5-0.534-1.183-0.8-2.05-0.8
						c-0.834,0-1.5,0.266-2,0.8c-0.5,0.566-0.75,1.333-0.75,2.3c0,1,0.25,1.767,0.75,2.3c0.5,0.534,1.166,0.8,2,0.8
						c0.867,0,1.55-0.266,2.05-0.8C382.5-199.934,382.75-200.7,382.75-201.7z M381.65-201.7c0,0.767-0.15,1.334-0.45,1.7
						c-0.3,0.399-0.717,0.6-1.25,0.6c-0.5,0-0.9-0.2-1.2-0.6c-0.3-0.366-0.45-0.934-0.45-1.7c0-0.733,0.15-1.3,0.45-1.7
						c0.3-0.366,0.7-0.55,1.2-0.55c0.533,0,0.95,0.184,1.25,0.55C381.5-203,381.65-202.434,381.65-201.7z M370.601-199.4
						c-0.4,0-0.75-0.149-1.051-0.45c-0.3-0.266-0.5-0.684-0.6-1.25h3.35c-0.1,0.566-0.3,0.984-0.6,1.25
						C371.4-199.55,371.034-199.4,370.601-199.4z M373.3-202.9c-0.1-0.6-0.383-1.066-0.85-1.399c-0.467-0.334-1.033-0.5-1.7-0.5
						c-0.866,0-1.566,0.266-2.1,0.8c-0.534,0.566-0.8,1.333-0.8,2.3s0.25,1.733,0.75,2.3c0.533,0.534,1.199,0.8,2,0.8
						c0.866,0,1.55-0.266,2.05-0.8c0.5-0.533,0.75-1.3,0.75-2.3v-0.25h-4.45c0.033-0.666,0.217-1.166,0.55-1.5s0.75-0.5,1.25-0.5
						c0.366,0,0.7,0.084,1,0.25c0.3,0.2,0.45,0.467,0.45,0.8H373.3z M365.601-204.65v5.101h-2.4v-3.101
						c0-0.833-0.133-1.384-0.4-1.649c-0.266-0.268-0.649-0.4-1.149-0.4c-0.267,0-0.5,0.017-0.7,0.05v0.851
						c0.2-0.066,0.4-0.101,0.6-0.101c0.234,0,0.384,0.083,0.45,0.25c0.101,0.167,0.15,0.5,0.15,1v3.9h4.5v-5.9H365.601z
						 M373.851-245.851c0.5-0.366,0.75-1.083,0.75-2.149v-4.7h-1.25v0.75c-0.667-0.6-1.518-0.9-2.551-0.9
						c-0.732,0-1.316,0.184-1.75,0.551c-0.467,0.399-0.699,0.899-0.699,1.5c0,1.699,1.449,2.55,4.35,2.55h0.65
						c0,0.533-0.033,0.899-0.101,1.1c-0.066,0.267-0.216,0.467-0.45,0.601c-0.266,0.166-0.666,0.25-1.199,0.25
						c-1.134,0-1.734-0.417-1.801-1.25h-1.25c0.101,1.5,1.134,2.25,3.101,2.25C372.583-245.3,373.317-245.483,373.851-245.851z
						 M366.851-245.45v-7.25h-1.25v3.2H362.3v-3.2H361v7.25h1.3v-3h3.301v3H366.851z M359.5-199.05
						c0.4-0.301,0.601-0.884,0.601-1.75v-3.851h-1.051v0.601c-0.533-0.5-1.217-0.75-2.05-0.75c-0.6,0-1.083,0.166-1.45,0.5
						c-0.366,0.3-0.55,0.699-0.55,1.199c0,1.4,1.184,2.101,3.55,2.101h0.5c0,0.433-0.016,0.733-0.05,0.899
						c-0.033,0.2-0.149,0.367-0.35,0.5c-0.2,0.134-0.534,0.2-1,0.2c-0.934,0-1.417-0.333-1.45-1h-1.05c0.066,1.2,0.917,1.8,2.55,1.8
						C358.467-198.601,359.067-198.75,359.5-199.05z M358.351-201.8c-1.533,0-2.301-0.417-2.301-1.25
						c0-0.301,0.117-0.518,0.351-0.65c0.233-0.166,0.533-0.25,0.899-0.25c0.334,0,0.667,0.066,1,0.2
						c0.334,0.167,0.584,0.384,0.75,0.649v1.301H358.351z M352.45-199.75c-0.2,0.134-0.533,0.2-1,0.2h-1.15v-1.65h1.2
						c0.467,0,0.784,0.05,0.95,0.15c0.2,0.133,0.3,0.35,0.3,0.649S352.65-199.884,352.45-199.75z M350.3-202.05v-1.801h1.351
						c0.899,0,1.35,0.301,1.35,0.9s-0.483,0.9-1.45,0.9H350.3z M354.05-203c0-0.5-0.184-0.9-0.55-1.2s-0.866-0.45-1.5-0.45h-2.75
						v5.9h2.351c1.467,0,2.199-0.517,2.199-1.55c0-0.634-0.25-1.066-0.75-1.301C353.717-201.8,354.05-202.267,354.05-203z
						 M345.5-199.4c-0.566,0-1.083-0.35-1.55-1.05v-2.8c0.434-0.467,0.95-0.7,1.55-0.7c0.434,0,0.784,0.184,1.05,0.55
						c0.268,0.4,0.4,0.983,0.4,1.75c0,0.733-0.117,1.284-0.35,1.65C346.333-199.601,345.967-199.4,345.5-199.4z M347.4-199.4
						c0.433-0.566,0.649-1.316,0.649-2.25c0-0.966-0.232-1.733-0.699-2.3s-1.066-0.85-1.801-0.85c-0.633,0-1.166,0.199-1.6,0.6
						v-2.75h-1.05v8.2h1.05v-0.7c0.467,0.566,1.017,0.85,1.65,0.85C346.4-198.601,347-198.866,347.4-199.4z M341.7-201.95h-4.45
						c0.034-0.666,0.217-1.166,0.55-1.5c0.334-0.334,0.75-0.5,1.25-0.5c0.367,0,0.7,0.084,1,0.25c0.301,0.2,0.45,0.467,0.45,0.8
						h1.101c-0.101-0.6-0.384-1.066-0.851-1.399c-0.466-0.334-1.033-0.5-1.7-0.5c-0.866,0-1.566,0.266-2.1,0.8
						c-0.533,0.566-0.8,1.333-0.8,2.3s0.25,1.733,0.75,2.3c0.533,0.534,1.2,0.8,2,0.8c0.866,0,1.55-0.266,2.05-0.8
						c0.5-0.533,0.75-1.3,0.75-2.3V-201.95z M340-199.851c-0.3,0.301-0.667,0.45-1.1,0.45c-0.4,0-0.75-0.149-1.05-0.45
						c-0.301-0.266-0.5-0.684-0.601-1.25h3.351C340.5-200.534,340.3-200.116,340-199.851z M335.55-199.55h-1.85v-5.101h-1.05v5.101
						h-1.9v0.8h4.8V-199.55z M326.05-202v-2.65H325v5.9h1.05v-2.45h2.65v2.45h1.05v-5.9h-1.05v2.65H326.05z M334-243.95
						c0.866-0.934,1.3-2.184,1.3-3.75s-0.434-2.816-1.3-3.75c-0.899-0.934-2.05-1.4-3.45-1.4c-1.399,0-2.55,0.467-3.449,1.4
						c-0.9,0.934-1.351,2.184-1.351,3.75s0.45,2.816,1.351,3.75c0.899,0.934,2.05,1.4,3.449,1.4
						C331.95-242.55,333.101-243.017,334-243.95z M330.55-243.65c-1,0-1.816-0.366-2.449-1.1c-0.667-0.7-1-1.684-1-2.95
						s0.333-2.267,1-3c0.633-0.7,1.449-1.05,2.449-1.05s1.816,0.35,2.45,1.05c0.634,0.733,0.95,1.733,0.95,3s-0.316,2.25-0.95,2.95
						C332.366-244.017,331.55-243.65,330.55-243.65z M336.2-245.45h5.9v-1.05H339.8v-6.2h-1.3v6.2h-2.3V-245.45z M351.351-245.45
						v-7.25h-1.25v5.65l-2.2-5.65h-1.15l-2.149,5.65v-5.65H343.3v7.25h1.851l2.2-5.65l2.149,5.65H351.351z M356.2-245.3
						c1.033,0,1.85-0.334,2.45-1c0.6-0.667,0.899-1.601,0.899-2.801v-0.3h-5.399c0.033-0.833,0.25-1.45,0.649-1.85
						c0.434-0.4,0.934-0.601,1.5-0.601c0.467,0,0.884,0.117,1.25,0.351c0.367,0.233,0.551,0.55,0.551,0.95h1.35
						c-0.1-0.734-0.434-1.301-1-1.7c-0.6-0.4-1.316-0.601-2.15-0.601c-1.033,0-1.883,0.316-2.55,0.95
						c-0.634,0.7-0.95,1.634-0.95,2.8c0,1.2,0.316,2.134,0.95,2.801C354.351-245.634,355.167-245.3,356.2-245.3z M356.2-246.3
						c-0.533,0-0.983-0.184-1.35-0.551c-0.367-0.333-0.601-0.85-0.7-1.55h4.05c-0.1,0.7-0.334,1.217-0.7,1.55
						C357.134-246.483,356.7-246.3,356.2-246.3z M372.45-249.2c-1.867,0-2.8-0.5-2.8-1.5c0-0.367,0.134-0.65,0.399-0.85
						c0.268-0.2,0.634-0.301,1.101-0.301c0.433,0,0.85,0.084,1.25,0.25c0.399,0.2,0.716,0.467,0.95,0.801v1.6H372.45z M490.7-246.3
						c-1.133,0-1.733-0.417-1.8-1.25h-1.25c0.1,1.5,1.134,2.25,3.1,2.25c0.934,0,1.667-0.184,2.2-0.551
						c0.5-0.366,0.75-1.083,0.75-2.149v-4.7h-1.25v0.75c-0.666-0.6-1.517-0.9-2.55-0.9c-0.733,0-1.317,0.184-1.75,0.551
						c-0.467,0.399-0.7,0.899-0.7,1.5c0,1.699,1.45,2.55,4.35,2.55h0.65c0,0.533-0.033,0.899-0.1,1.1
						c-0.066,0.267-0.217,0.467-0.45,0.601C491.634-246.384,491.233-246.3,490.7-246.3z M492.45-249.2h-0.9
						c-1.866,0-2.8-0.5-2.8-1.5c0-0.367,0.134-0.65,0.4-0.85c0.267-0.2,0.634-0.301,1.1-0.301c0.434,0,0.851,0.084,1.25,0.25
						c0.4,0.2,0.717,0.467,0.95,0.801V-249.2z M207.85-196.5v-8.15h-1.1v3.351c-0.8-0.4-1.617-0.601-2.45-0.601
						c-0.833,0-1.483,0.233-1.95,0.7c-0.5,0.5-0.75,1.15-0.75,1.95v2.75h1.15v-2.7c0-1.166,0.567-1.75,1.7-1.75
						c0.867,0,1.633,0.2,2.3,0.6v3.851H207.85z M284.95-196.4c0.1,0.034,0.15,0.134,0.15,0.3h1.05c0-0.399-0.05-0.684-0.15-0.85
						c-0.1-0.166-0.283-0.3-0.55-0.4c-0.3-0.1-0.767-0.149-1.4-0.149c-1.067,0-1.75-0.25-2.05-0.75c-0.3-0.5-0.45-1.034-0.45-1.601
						c0.2,0.367,0.467,0.634,0.8,0.801c0.367,0.199,0.733,0.3,1.1,0.3c0.833,0,1.5-0.267,2-0.8c0.533-0.533,0.8-1.268,0.8-2.2
						c0-0.967-0.267-1.717-0.8-2.25c-0.5-0.534-1.167-0.8-2-0.8c-1.867,0-2.8,1.283-2.8,3.85c0,1.533,0.267,2.666,0.8,3.4
						c0.5,0.699,1.383,1.05,2.65,1.05C284.534-196.5,284.817-196.467,284.95-196.4z M323.4-198.75v-5.9h-1.05v4.5l-2.65-4.5h-1.1
						v5.9h1.05v-4.5l2.649,4.5H323.4z M305.65-202.851c0-0.566-0.217-1-0.65-1.3c-0.433-0.333-1.033-0.5-1.8-0.5h-2.35v5.9h1.05
						v-2.3h1.3c0.767,0,1.367-0.167,1.8-0.5C305.434-201.851,305.65-202.284,305.65-202.851z M301.9-201.851v-2h1.25
						c0.933,0,1.4,0.334,1.4,1c0,0.667-0.467,1-1.4,1H301.9z M299.85-199.55H298v-5.101h-1.05v5.101h-1.9v0.8h4.8V-199.55z
						 M294.05-204.65H293v5.9h1.05V-204.65z M289.75-201.851h-1.25v-2h1.25c0.934,0,1.4,0.334,1.4,1
						C291.15-202.184,290.684-201.851,289.75-201.851z M291.6-201.55c0.434-0.301,0.65-0.734,0.65-1.301s-0.216-1-0.65-1.3
						c-0.433-0.333-1.033-0.5-1.8-0.5h-2.35v5.9h1.05v-2.3h1.3C290.567-201.05,291.167-201.217,291.6-201.55z M285.15-201.75
						c0,0.733-0.167,1.283-0.5,1.649c-0.3,0.367-0.7,0.551-1.2,0.551s-0.9-0.184-1.2-0.551c-0.333-0.366-0.5-0.916-0.5-1.649
						s0.167-1.284,0.5-1.65c0.3-0.366,0.7-0.55,1.2-0.55s0.9,0.184,1.2,0.55C284.983-203.034,285.15-202.483,285.15-201.75z
						 M275.15-200c-0.3,0.399-0.717,0.6-1.25,0.6c-0.5,0-0.9-0.2-1.2-0.6c-0.3-0.366-0.45-0.934-0.45-1.7c0-0.733,0.15-1.3,0.45-1.7
						c0.3-0.366,0.7-0.55,1.2-0.55c0.533,0,0.95,0.184,1.25,0.55c0.3,0.4,0.45,0.967,0.45,1.7
						C275.6-200.934,275.45-200.366,275.15-200z M275.95-199.4c0.5-0.533,0.75-1.3,0.75-2.3c0-0.967-0.25-1.733-0.75-2.3
						c-0.5-0.534-1.183-0.8-2.05-0.8c-0.833,0-1.5,0.266-2,0.8c-0.5,0.566-0.75,1.333-0.75,2.3c0,1,0.25,1.767,0.75,2.3
						c0.5,0.534,1.167,0.8,2,0.8C274.767-198.601,275.45-198.866,275.95-199.4z M269.95-198.75v-5.9h-1.05v2.65h-2.65v-2.65h-1.05
						v5.9h1.05v-2.45h2.65v2.45H269.95z M259.85-198.75h1.05v-2.2l2.05,2.2h1.25l-2.65-2.8l2.85-3.101h-1.25l-2.25,2.5v-2.5h-1.05
						v2.5l-2.2-2.5h-1.3l2.9,3.101l-2.65,2.8h1.25l2-2.2V-198.75z M254.5-204.65v5.101h-2.4v-3.101c0-0.833-0.133-1.384-0.4-1.649
						c-0.267-0.268-0.65-0.4-1.15-0.4c-0.267,0-0.5,0.017-0.7,0.05v0.851c0.2-0.066,0.4-0.101,0.6-0.101
						c0.233,0,0.383,0.083,0.45,0.25c0.1,0.167,0.15,0.5,0.15,1v3.9h4.5v-5.9H254.5z M249.4-201.7c0-0.967-0.25-1.733-0.75-2.3
						c-0.5-0.534-1.184-0.8-2.05-0.8c-0.833,0-1.5,0.266-2,0.8c-0.5,0.566-0.75,1.333-0.75,2.3c0,1,0.25,1.767,0.75,2.3
						c0.5,0.534,1.167,0.8,2,0.8c0.867,0,1.55-0.266,2.05-0.8C249.15-199.934,249.4-200.7,249.4-201.7z M245.4-203.4
						c0.3-0.366,0.7-0.55,1.2-0.55c0.533,0,0.95,0.184,1.25,0.55c0.3,0.4,0.45,0.967,0.45,1.7c0,0.767-0.15,1.334-0.45,1.7
						c-0.3,0.399-0.717,0.6-1.25,0.6c-0.5,0-0.9-0.2-1.2-0.6c-0.3-0.366-0.45-0.934-0.45-1.7C244.95-202.434,245.1-203,245.4-203.4z
						 M243.35-206.25h-1.05v1.6h-4.45v-1.6h-1.05v2.399h0.5c0.7,1,1.05,2.617,1.05,4.851v0.25h4.15v-5.101h0.85V-206.25z
						 M248.4-245.45v-2.75l2.45,2.75h1.55l-3.25-3.45l3.5-3.8h-1.55l-2.7,3.05v-3.05h-1.3v3.05l-2.75-3.05h-1.5l3.5,3.8l-3.25,3.45
						h1.55l2.45-2.75v2.75H248.4z M254.95-245.45v-5.5l3.2,5.5h1.4v-7.25h-1.3v5.5l-3.2-5.5h-1.4v7.25H254.95z M260.8-245.45h5.9
						v-1.05h-2.3v-6.2h-1.3v6.2h-2.3V-245.45z M269.2-245.45v-2.85h1.6c0.967,0,1.7-0.2,2.2-0.601c0.534-0.399,0.8-0.933,0.8-1.6
						s-0.267-1.2-0.8-1.601c-0.5-0.399-1.233-0.6-2.2-0.6h-2.9v7.25H269.2z M269.2-251.7h1.55c1.167,0,1.75,0.4,1.75,1.2
						s-0.583,1.2-1.75,1.2h-1.55V-251.7z M239.4-199.55c-0.067-1.934-0.367-3.367-0.9-4.301h2.9v4.301H239.4z M231.8-200
						c-0.3,0.399-0.717,0.6-1.25,0.6c-0.5,0-0.9-0.2-1.2-0.6c-0.3-0.366-0.45-0.934-0.45-1.7c0-0.733,0.15-1.3,0.45-1.7
						c0.3-0.366,0.7-0.55,1.2-0.55c0.533,0,0.95,0.184,1.25,0.55c0.3,0.4,0.45,0.967,0.45,1.7
						C232.25-200.934,232.1-200.366,231.8-200z M230.55-198.601c0.867,0,1.55-0.266,2.05-0.8c0.5-0.533,0.75-1.3,0.75-2.3
						c0-0.967-0.25-1.733-0.75-2.3c-0.5-0.534-1.183-0.8-2.05-0.8c-0.833,0-1.5,0.266-2,0.8c-0.5,0.566-0.75,1.333-0.75,2.3
						c0,1,0.25,1.767,0.75,2.3C229.05-198.866,229.717-198.601,230.55-198.601z M223.15-202.65c0-0.833-0.133-1.384-0.4-1.649
						c-0.267-0.268-0.65-0.4-1.15-0.4c-0.267,0-0.5,0.017-0.7,0.05v0.851c0.2-0.066,0.4-0.101,0.6-0.101
						c0.233,0,0.383,0.083,0.45,0.25c0.1,0.167,0.15,0.5,0.15,1v3.9h4.5v-5.9h-1.05v5.101h-2.4V-202.65z M219.25-199.7
						c-0.267,0.2-0.583,0.3-0.95,0.3c-0.5,0-0.9-0.2-1.2-0.6c-0.3-0.366-0.45-0.934-0.45-1.7c0-0.733,0.15-1.3,0.45-1.7
						c0.3-0.366,0.7-0.55,1.2-0.55c0.367,0,0.683,0.084,0.95,0.25c0.233,0.2,0.367,0.467,0.4,0.8h1.05
						c-0.067-0.6-0.317-1.066-0.75-1.399c-0.433-0.334-0.983-0.5-1.65-0.5c-0.833,0-1.5,0.266-2,0.8c-0.5,0.566-0.75,1.333-0.75,2.3
						c0,1,0.25,1.767,0.75,2.3c0.5,0.534,1.167,0.8,2,0.8c0.667,0,1.217-0.166,1.65-0.5c0.433-0.333,0.683-0.8,0.75-1.399h-1.05
						C219.617-200.167,219.483-199.9,219.25-199.7z M214.35-198.75v-5.9h-1.05v4.5l-2.65-4.5h-1.1v5.9h1.05v-4.5l2.65,4.5H214.35z
						 M207.8-245.3c0.933,0,1.667-0.334,2.2-1c0.5-0.667,0.75-1.584,0.75-2.75c0-1.167-0.283-2.101-0.85-2.801
						c-0.567-0.666-1.3-1-2.2-1c-0.767,0-1.417,0.234-1.95,0.7v-3.35h-1.3v10.05h1.3v-0.9C206.317-245.65,207-245.3,207.8-245.3z
						 M217.6-246.3c0.6-0.667,0.9-1.601,0.9-2.801c0-1.199-0.3-2.133-0.9-2.8c-0.6-0.634-1.417-0.95-2.45-0.95
						c-1.034,0-1.867,0.316-2.5,0.95c-0.6,0.667-0.9,1.601-0.9,2.8c0,1.2,0.3,2.134,0.9,2.801c0.633,0.666,1.466,1,2.5,1
						C216.184-245.3,217-245.634,217.6-246.3z M220.85-245.45h5.05v-6.25h1.05v-2.95h-1.3v1.95h-5.4v-1.95h-1.3v2.95h0.65
						c0.833,1.2,1.25,3.166,1.25,5.9V-245.45z M233.45-246.3c0.6-0.667,0.9-1.601,0.9-2.801c0-1.199-0.3-2.133-0.9-2.8
						c-0.6-0.634-1.417-0.95-2.45-0.95c-1.033,0-1.867,0.316-2.5,0.95c-0.6,0.667-0.9,1.601-0.9,2.8c0,1.2,0.3,2.134,0.9,2.801
						c0.633,0.666,1.467,1,2.5,1C232.034-245.3,232.85-245.634,233.45-246.3z M241.85-245.45v-7.25h-1.25v6.2h-2.95v-3.75
						c0-1.034-0.167-1.717-0.5-2.05c-0.333-0.301-0.784-0.45-1.35-0.45c-0.367,0-0.667,0.017-0.9,0.05v1.05
						c0.267-0.066,0.517-0.1,0.75-0.1c0.267,0,0.45,0.1,0.55,0.3s0.15,0.6,0.15,1.2v4.8H241.85z M222.15-246.5
						c-0.1-2.333-0.467-4.067-1.1-5.2h3.55v5.2H222.15z M202.35-242.7v-10h-1.3v8.8h-5.2v-8.8h-1.35v10H202.35z M232.45-251.15
						c0.4,0.467,0.6,1.15,0.6,2.05c0,0.934-0.2,1.634-0.6,2.101c-0.367,0.466-0.85,0.7-1.45,0.7c-0.633,0-1.133-0.234-1.5-0.7
						c-0.4-0.467-0.6-1.167-0.6-2.101c0-0.899,0.2-1.583,0.6-2.05c0.367-0.466,0.867-0.7,1.5-0.7
						C231.6-251.851,232.083-251.616,232.45-251.15z M216.6-251.15c0.4,0.467,0.6,1.15,0.6,2.05c0,0.934-0.2,1.634-0.6,2.101
						c-0.367,0.466-0.85,0.7-1.45,0.7c-0.633,0-1.133-0.234-1.5-0.7c-0.4-0.467-0.6-1.167-0.6-2.101c0-0.899,0.2-1.583,0.6-2.05
						c0.367-0.466,0.867-0.7,1.5-0.7C215.75-251.851,216.233-251.616,216.6-251.15z M209.45-249.05c0,0.899-0.15,1.583-0.45,2.05
						c-0.333,0.466-0.767,0.7-1.3,0.7c-0.733,0-1.383-0.417-1.95-1.25V-251c0.534-0.567,1.167-0.851,1.9-0.851
						c0.533,0,0.966,0.234,1.3,0.7C209.284-250.684,209.45-249.983,209.45-249.05z"/>
					<path fill-rule="evenodd" clip-rule="evenodd" fill="#E9E9E9" d="M476.15-246.5c0.6,0,1.017-0.067,1.25-0.2
						c0.233-0.166,0.35-0.434,0.35-0.8s-0.116-0.616-0.35-0.75c-0.233-0.167-0.616-0.25-1.15-0.25h-1.5v2H476.15z M410.601-199.4
						c0.533,0,0.949-0.2,1.25-0.6c0.3-0.366,0.449-0.934,0.449-1.7c0-0.733-0.149-1.3-0.449-1.7c-0.301-0.366-0.717-0.55-1.25-0.55
						c-0.5,0-0.9,0.184-1.2,0.55c-0.3,0.4-0.45,0.967-0.45,1.7c0,0.767,0.15,1.334,0.45,1.7
						C409.7-199.601,410.101-199.4,410.601-199.4z M462.55-247c0.301-0.467,0.45-1.15,0.45-2.05c0-0.934-0.167-1.634-0.5-2.101
						c-0.333-0.466-0.767-0.7-1.3-0.7c-0.733,0-1.367,0.283-1.9,0.851v3.45c0.566,0.833,1.217,1.25,1.95,1.25
						C461.784-246.3,462.217-246.534,462.55-247z M469.4-249.2h0.899v-1.6c-0.232-0.334-0.55-0.601-0.949-0.801
						c-0.4-0.166-0.816-0.25-1.25-0.25c-0.467,0-0.834,0.101-1.101,0.301c-0.267,0.199-0.399,0.482-0.399,0.85
						C466.601-249.7,467.534-249.2,469.4-249.2z M476.3-249.5c1.167,0,1.75-0.366,1.75-1.101c0-0.732-0.55-1.1-1.649-1.1h-1.65v2.2
						H476.3z M405.4-199.55v-4.301h-2.9c0.534,0.934,0.833,2.367,0.9,4.301H405.4z M370.601-199.4c0.434,0,0.8-0.149,1.1-0.45
						c0.3-0.266,0.5-0.684,0.6-1.25h-3.35c0.1,0.566,0.3,0.984,0.6,1.25C369.851-199.55,370.2-199.4,370.601-199.4z M381.65-201.7
						c0-0.733-0.15-1.3-0.45-1.7c-0.3-0.366-0.717-0.55-1.25-0.55c-0.5,0-0.9,0.184-1.2,0.55c-0.3,0.4-0.45,0.967-0.45,1.7
						c0,0.767,0.15,1.334,0.45,1.7c0.3,0.399,0.7,0.6,1.2,0.6c0.533,0,0.95-0.2,1.25-0.6C381.5-200.366,381.65-200.934,381.65-201.7
						z M350.3-202.05h1.25c0.967,0,1.45-0.301,1.45-0.9s-0.45-0.9-1.35-0.9H350.3V-202.05z M352.45-199.75
						c0.2-0.134,0.3-0.351,0.3-0.65s-0.1-0.517-0.3-0.649c-0.166-0.101-0.483-0.15-0.95-0.15h-1.2v1.65h1.15
						C351.917-199.55,352.25-199.616,352.45-199.75z M358.351-201.8h0.699v-1.301c-0.166-0.266-0.416-0.482-0.75-0.649
						c-0.333-0.134-0.666-0.2-1-0.2c-0.366,0-0.666,0.084-0.899,0.25c-0.233,0.133-0.351,0.35-0.351,0.65
						C356.05-202.217,356.817-201.8,358.351-201.8z M345.5-199.4c0.467,0,0.833-0.2,1.101-0.6c0.232-0.366,0.35-0.917,0.35-1.65
						c0-0.767-0.133-1.35-0.4-1.75c-0.266-0.366-0.616-0.55-1.05-0.55c-0.6,0-1.116,0.233-1.55,0.7v2.8
						C344.417-199.75,344.934-199.4,345.5-199.4z M340-199.851c0.3-0.266,0.5-0.684,0.601-1.25h-3.351
						c0.101,0.566,0.3,0.984,0.601,1.25c0.3,0.301,0.649,0.45,1.05,0.45C339.333-199.4,339.7-199.55,340-199.851z M330.55-243.65
						c1,0,1.816-0.366,2.45-1.1c0.634-0.7,0.95-1.684,0.95-2.95s-0.316-2.267-0.95-3c-0.634-0.7-1.45-1.05-2.45-1.05
						s-1.816,0.35-2.449,1.05c-0.667,0.733-1,1.733-1,3s0.333,2.25,1,2.95C328.733-244.017,329.55-243.65,330.55-243.65z
						 M372.45-249.2h0.9v-1.6c-0.234-0.334-0.551-0.601-0.95-0.801c-0.4-0.166-0.817-0.25-1.25-0.25
						c-0.467,0-0.833,0.101-1.101,0.301c-0.266,0.199-0.399,0.482-0.399,0.85C369.65-249.7,370.583-249.2,372.45-249.2z
						 M356.2-246.3c0.5,0,0.934-0.184,1.3-0.551c0.366-0.333,0.601-0.85,0.7-1.55h-4.05c0.1,0.7,0.333,1.217,0.7,1.55
						C355.217-246.483,355.667-246.3,356.2-246.3z M492.45-249.2v-1.6c-0.233-0.334-0.55-0.601-0.95-0.801
						c-0.399-0.166-0.816-0.25-1.25-0.25c-0.466,0-0.833,0.101-1.1,0.301c-0.267,0.199-0.4,0.482-0.4,0.85c0,1,0.934,1.5,2.8,1.5
						H492.45z M301.9-201.851h1.25c0.933,0,1.4-0.333,1.4-1c0-0.666-0.467-1-1.4-1h-1.25V-201.851z M289.75-201.851
						c0.934,0,1.4-0.333,1.4-1c0-0.666-0.467-1-1.4-1h-1.25v2H289.75z M275.15-200c0.3-0.366,0.45-0.934,0.45-1.7
						c0-0.733-0.15-1.3-0.45-1.7c-0.3-0.366-0.717-0.55-1.25-0.55c-0.5,0-0.9,0.184-1.2,0.55c-0.3,0.4-0.45,0.967-0.45,1.7
						c0,0.767,0.15,1.334,0.45,1.7c0.3,0.399,0.7,0.6,1.2,0.6C274.434-199.4,274.85-199.601,275.15-200z M285.15-201.75
						c0-0.733-0.167-1.284-0.5-1.65c-0.3-0.366-0.7-0.55-1.2-0.55s-0.9,0.184-1.2,0.55c-0.333,0.366-0.5,0.917-0.5,1.65
						s0.167,1.283,0.5,1.649c0.3,0.367,0.7,0.551,1.2,0.551s0.9-0.184,1.2-0.551C284.983-200.467,285.15-201.017,285.15-201.75z
						 M245.4-203.4c-0.3,0.4-0.45,0.967-0.45,1.7c0,0.767,0.15,1.334,0.45,1.7c0.3,0.399,0.7,0.6,1.2,0.6c0.533,0,0.95-0.2,1.25-0.6
						c0.3-0.366,0.45-0.934,0.45-1.7c0-0.733-0.15-1.3-0.45-1.7c-0.3-0.366-0.717-0.55-1.25-0.55
						C246.1-203.95,245.7-203.767,245.4-203.4z M231.8-200c0.3-0.366,0.45-0.934,0.45-1.7c0-0.733-0.15-1.3-0.45-1.7
						c-0.3-0.366-0.717-0.55-1.25-0.55c-0.5,0-0.9,0.184-1.2,0.55c-0.3,0.4-0.45,0.967-0.45,1.7c0,0.767,0.15,1.334,0.45,1.7
						c0.3,0.399,0.7,0.6,1.2,0.6C231.083-199.4,231.5-199.601,231.8-200z M239.4-199.55h2v-4.301h-2.9
						C239.034-202.917,239.333-201.483,239.4-199.55z M269.2-251.7v2.4h1.55c1.167,0,1.75-0.4,1.75-1.2s-0.583-1.2-1.75-1.2H269.2z
						 M222.15-246.5h2.45v-5.2h-3.55C221.684-250.567,222.05-248.833,222.15-246.5z M209.45-249.05c0-0.934-0.167-1.634-0.5-2.101
						c-0.333-0.466-0.767-0.7-1.3-0.7c-0.733,0-1.367,0.283-1.9,0.851v3.45c0.567,0.833,1.217,1.25,1.95,1.25
						c0.533,0,0.967-0.234,1.3-0.7C209.3-247.467,209.45-248.15,209.45-249.05z M216.6-251.15c-0.367-0.466-0.85-0.7-1.45-0.7
						c-0.633,0-1.133,0.234-1.5,0.7c-0.4,0.467-0.6,1.15-0.6,2.05c0,0.934,0.2,1.634,0.6,2.101c0.367,0.466,0.867,0.7,1.5,0.7
						c0.6,0,1.083-0.234,1.45-0.7c0.4-0.467,0.6-1.167,0.6-2.101C217.2-250,217-250.684,216.6-251.15z M232.45-251.15
						c-0.367-0.466-0.85-0.7-1.45-0.7c-0.633,0-1.133,0.234-1.5,0.7c-0.4,0.467-0.6,1.15-0.6,2.05c0,0.934,0.2,1.634,0.6,2.101
						c0.367,0.466,0.867,0.7,1.5,0.7c0.6,0,1.083-0.234,1.45-0.7c0.4-0.467,0.6-1.167,0.6-2.101
						C233.05-250,232.85-250.684,232.45-251.15z"/>
					<path fill-rule="evenodd" clip-rule="evenodd" fill="#FFFFFF" d="M197.3-153.5h1.4c0-0.5-0.067-0.866-0.2-1.101
						c-0.133-0.199-0.383-0.366-0.75-0.5c-0.367-0.133-0.983-0.199-1.85-0.199c-1.367,0-2.25-0.334-2.65-1
						c-0.4-0.667-0.6-1.351-0.6-2.051c0.233,0.434,0.583,0.783,1.05,1.051c0.467,0.232,0.95,0.35,1.45,0.35
						c1.066,0,1.95-0.35,2.65-1.05c0.667-0.7,1-1.667,1-2.9s-0.333-2.216-1-2.95c-0.7-0.699-1.583-1.05-2.65-1.05
						c-2.434,0-3.65,1.684-3.65,5.05c0,2,0.333,3.484,1,4.45c0.667,0.967,1.833,1.45,3.5,1.45c0.567,0,0.934,0.033,1.1,0.1
						C197.233-153.817,197.3-153.7,197.3-153.5z M195.15-158c-0.633,0-1.167-0.25-1.6-0.75c-0.434-0.5-0.65-1.217-0.65-2.15
						c0-0.966,0.216-1.683,0.65-2.149c0.433-0.5,0.967-0.75,1.6-0.75s1.167,0.25,1.6,0.75c0.4,0.467,0.6,1.184,0.6,2.149
						c0,0.934-0.2,1.65-0.6,2.15C196.317-158.25,195.784-158,195.15-158z M201.1-156.95l2.05-6.05l2.05,6.05h1.5l-2.95-7.75
						c-0.267-0.733-0.5-1.3-0.7-1.7c-0.2-0.399-0.467-0.75-0.8-1.05c-0.3-0.267-0.683-0.4-1.15-0.4c-0.367,0-0.667,0.033-0.9,0.101
						v1.3c0.2-0.1,0.417-0.15,0.65-0.15c0.7,0,1.267,0.634,1.7,1.9l-2.95,7.75H201.1z M185-158.601c-0.4-0.5-0.6-1.232-0.6-2.199
						c0-1,0.2-1.75,0.6-2.25c0.434-0.5,0.967-0.75,1.6-0.75c0.667,0,1.2,0.25,1.6,0.75c0.433,0.5,0.65,1.25,0.65,2.25
						c0,0.967-0.217,1.699-0.65,2.199c-0.4,0.5-0.933,0.75-1.6,0.75C185.967-157.851,185.434-158.101,185-158.601z M186.6-156.75
						c1.133,0,2.033-0.351,2.7-1.05c0.633-0.734,0.95-1.734,0.95-3c0-1.301-0.316-2.301-0.95-3c-0.667-0.734-1.567-1.101-2.7-1.101
						c-1.1,0-1.983,0.366-2.65,1.101c-0.633,0.699-0.95,1.699-0.95,3c0,1.266,0.317,2.266,0.95,3
						C184.617-157.101,185.5-156.75,186.6-156.75z M178.7-156.75c1.033,0,1.833-0.366,2.4-1.101c0.533-0.699,0.8-1.666,0.8-2.899
						c0-1.267-0.3-2.284-0.9-3.05c-0.633-0.734-1.417-1.101-2.35-1.101c-0.867,0-1.583,0.267-2.15,0.8v-3.6h-1.4v10.75h1.4v-0.9
						C177.133-157.116,177.867-156.75,178.7-156.75z M178.6-157.851c-0.767,0-1.467-0.434-2.1-1.3v-3.7
						c0.6-0.633,1.284-0.949,2.05-0.949c0.6,0,1.066,0.25,1.4,0.75c0.367,0.533,0.55,1.3,0.55,2.3c0,0.966-0.167,1.683-0.5,2.149
						C179.667-158.101,179.2-157.851,178.6-157.851z M168.15-158v-6.7h-1.4v7.75h6.3v-7.75h-1.35v6.7H168.15z M163.8-160.8
						c0,0.967-0.217,1.699-0.65,2.199c-0.4,0.5-0.934,0.75-1.6,0.75c-0.633,0-1.167-0.25-1.6-0.75c-0.4-0.5-0.6-1.232-0.6-2.199
						c0-1,0.2-1.75,0.6-2.25c0.433-0.5,0.967-0.75,1.6-0.75c0.667,0,1.2,0.25,1.6,0.75C163.583-162.55,163.8-161.8,163.8-160.8z
						 M164.25-163.8c-0.667-0.734-1.566-1.101-2.7-1.101c-1.1,0-1.983,0.366-2.65,1.101c-0.633,0.699-0.95,1.699-0.95,3
						c0,1.266,0.317,2.266,0.95,3c0.667,0.699,1.55,1.05,2.65,1.05c1.133,0,2.033-0.351,2.7-1.05c0.633-0.734,0.95-1.734,0.95-3
						C165.2-162.101,164.883-163.101,164.25-163.8z M238.65-156.95v-6.65h1.15v-3.199h-1.4v2.1h-9.75v7.75h1.4v-6.65h2.9v6.65h1.4
						v-6.65h2.95v6.65H238.65z M241.95-160.05h4.35c-0.1,0.732-0.35,1.283-0.75,1.649s-0.883,0.55-1.45,0.55
						c-0.533,0-1-0.184-1.4-0.55S242.05-159.317,241.95-160.05z M223.45-157.851c-0.533,0-1-0.184-1.4-0.55s-0.65-0.917-0.75-1.649
						h4.35c-0.1,0.732-0.35,1.283-0.75,1.649C224.5-158.034,224.017-157.851,223.45-157.851z M226.15-157.8
						c0.633-0.734,0.95-1.734,0.95-3v-0.351h-5.85c0.067-0.899,0.317-1.566,0.75-2c0.434-0.433,0.967-0.649,1.6-0.649
						c0.5,0,0.95,0.116,1.35,0.35c0.367,0.267,0.567,0.617,0.6,1.05h1.4c-0.1-0.8-0.45-1.417-1.05-1.85
						c-0.633-0.434-1.4-0.65-2.3-0.65c-1.133,0-2.05,0.366-2.75,1.101c-0.667,0.699-1,1.699-1,3c0,1.266,0.333,2.25,1,2.949
						c0.667,0.734,1.533,1.101,2.6,1.101C224.583-156.75,225.483-157.101,226.15-157.8z M240.5-160.8c0,1.266,0.333,2.25,1,2.949
						c0.667,0.734,1.534,1.101,2.6,1.101c1.133,0,2.033-0.351,2.7-1.05c0.633-0.734,0.95-1.734,0.95-3v-0.351h-5.85
						c0.066-0.899,0.316-1.566,0.75-2c0.433-0.433,0.966-0.649,1.6-0.649c0.5,0,0.95,0.116,1.35,0.35
						c0.367,0.267,0.567,0.617,0.6,1.05h1.4c-0.1-0.8-0.45-1.417-1.05-1.85c-0.633-0.434-1.4-0.65-2.3-0.65
						c-1.133,0-2.05,0.366-2.75,1.101C240.833-163.101,240.5-162.101,240.5-160.8z M212.35-153.851h0.9
						c-0.066-0.633-0.283-1.1-0.65-1.399c-0.4-0.333-0.9-0.5-1.5-0.5c-0.633,0-1.133,0.167-1.5,0.5c-0.4,0.333-0.633,0.8-0.7,1.399
						h0.9c0.133-0.666,0.566-1,1.3-1C211.8-154.851,212.217-154.517,212.35-153.851z M209.3-156.95v-5.9l3.5,5.9h1.45v-7.75h-1.35
						v5.9l-3.5-5.9h-1.5v7.75H209.3z M147.75-164.7v10.75h8.45v-10.75h-1.45v9.45h-5.6v-9.45H147.75z"/>
					<path fill-rule="evenodd" clip-rule="evenodd" fill="#0066FF" d="M195.15-158c0.633,0,1.167-0.25,1.6-0.75
						c0.4-0.5,0.6-1.217,0.6-2.15c0-0.966-0.2-1.683-0.6-2.149c-0.433-0.5-0.966-0.75-1.6-0.75s-1.167,0.25-1.6,0.75
						c-0.434,0.467-0.65,1.184-0.65,2.149c0,0.934,0.216,1.65,0.65,2.15C193.983-158.25,194.517-158,195.15-158z M185-158.601
						c0.434,0.5,0.967,0.75,1.6,0.75c0.667,0,1.2-0.25,1.6-0.75c0.433-0.5,0.65-1.232,0.65-2.199c0-1-0.217-1.75-0.65-2.25
						c-0.4-0.5-0.933-0.75-1.6-0.75c-0.633,0-1.167,0.25-1.6,0.75c-0.4,0.5-0.6,1.25-0.6,2.25
						C184.4-159.833,184.6-159.101,185-158.601z M178.6-157.851c0.6,0,1.067-0.25,1.4-0.75c0.333-0.467,0.5-1.184,0.5-2.149
						c0-1-0.183-1.767-0.55-2.3c-0.333-0.5-0.8-0.75-1.4-0.75c-0.767,0-1.45,0.316-2.05,0.949v3.7
						C177.133-158.284,177.833-157.851,178.6-157.851z M163.8-160.8c0-1-0.217-1.75-0.65-2.25c-0.4-0.5-0.934-0.75-1.6-0.75
						c-0.633,0-1.167,0.25-1.6,0.75c-0.4,0.5-0.6,1.25-0.6,2.25c0,0.967,0.2,1.699,0.6,2.199c0.433,0.5,0.967,0.75,1.6,0.75
						c0.667,0,1.2-0.25,1.6-0.75C163.583-159.101,163.8-159.833,163.8-160.8z M223.45-157.851c0.567,0,1.05-0.184,1.45-0.55
						c0.4-0.366,0.65-0.917,0.75-1.649h-4.35c0.1,0.732,0.35,1.283,0.75,1.649S222.917-157.851,223.45-157.851z M241.95-160.05
						c0.1,0.732,0.35,1.283,0.75,1.649s0.867,0.55,1.4,0.55c0.567,0,1.05-0.184,1.45-0.55s0.65-0.917,0.75-1.649H241.95z"/>
				</g>
				<path fill-rule="evenodd" clip-rule="evenodd" d="M313.209-199.75c-0.2,0.134-0.533,0.2-1,0.2h-1.15v-1.65h1.2
					c0.467,0,0.784,0.05,0.95,0.15c0.2,0.133,0.3,0.35,0.3,0.649S313.409-199.884,313.209-199.75z"/>
				<path fill-rule="evenodd" clip-rule="evenodd" d="M311.059-202.05v-1.801h1.351c0.899,0,1.35,0.301,1.35,0.9
					s-0.483,0.9-1.45,0.9H311.059z"/>
				<path fill-rule="evenodd" clip-rule="evenodd" d="M314.809-203c0-0.5-0.184-0.9-0.55-1.2s-0.866-0.45-1.5-0.45h-2.75v5.9h2.351
					c1.467,0,2.199-0.517,2.199-1.55c0-0.634-0.25-1.066-0.75-1.301C314.476-201.8,314.809-202.267,314.809-203z"/>
				<path fill-rule="evenodd" clip-rule="evenodd" fill="#E9E9E9" d="M311.059-202.05h1.25c0.967,0,1.45-0.301,1.45-0.9
					s-0.45-0.9-1.35-0.9h-1.351V-202.05z"/>
				<path fill-rule="evenodd" clip-rule="evenodd" fill="#E9E9E9" d="M313.209-199.75c0.2-0.134,0.3-0.351,0.3-0.65
					s-0.1-0.517-0.3-0.649c-0.166-0.101-0.483-0.15-0.95-0.15h-1.2v1.65h1.15C312.676-199.55,313.009-199.616,313.209-199.75z"/>
			</g>
			<g>
				<path fill-rule="evenodd" clip-rule="evenodd" d="M291.15-18.8c1.1,0,1.967-0.3,2.6-0.9c0.633-0.6,0.95-1.367,0.95-2.3
					c0-0.5-0.133-0.983-0.4-1.45c-0.3-0.466-0.733-0.816-1.3-1.05c0.733-0.2,1.317-0.583,1.75-1.15
					c0.367-0.567,0.55-1.217,0.55-1.95c0-1.133-0.383-2.05-1.15-2.75c-0.767-0.7-1.717-1.05-2.85-1.05s-2.066,0.316-2.8,0.95
					c-0.7,0.6-1.083,1.417-1.15,2.45h1.6c0-0.6,0.2-1.117,0.6-1.55c0.434-0.434,1.017-0.65,1.75-0.65c0.733,0,1.317,0.25,1.75,0.75
					c0.434,0.467,0.65,1.067,0.65,1.8c0,0.767-0.217,1.35-0.65,1.75c-0.466,0.433-1.133,0.65-2,0.65h-0.6v1.2h0.35
					c1.534,0,2.3,0.7,2.3,2.1c0,0.6-0.167,1.067-0.5,1.4c-0.333,0.333-0.8,0.5-1.4,0.5c-1.233,0-1.934-0.65-2.1-1.95h-1.6
					c0.133,1.033,0.533,1.817,1.2,2.35C289.367-19.083,290.183-18.8,291.15-18.8z M283.55-31.2h-1.6v9.55
					c-0.633-0.4-1.6-0.6-2.9-0.6v1.2c1.9,0,2.983,0.75,3.25,2.25h1.25V-31.2z M267.8-24.1l-0.65-1.15
					c-0.167,0.1-0.333,0.15-0.5,0.15c-0.7,0-1.517-0.583-2.45-1.75l-0.35-0.35l0.95-2.25c0.233-0.533,0.467-0.8,0.7-0.8
					c0.3,0,0.717,0.317,1.25,0.95l-0.15-0.75c-0.667-0.7-1.25-1.05-1.75-1.05c-0.467,0-0.85,0.35-1.15,1.05l-0.8,1.95l-0.55-0.65
					c-1.2-1.567-2.15-2.35-2.85-2.35c-0.167,0-0.383,0.05-0.65,0.15l0.55,1.15c0.167-0.067,0.333-0.1,0.5-0.1
					c0.667,0,1.483,0.566,2.45,1.7l0.35,0.5l-0.85,2c-0.2,0.534-0.4,0.8-0.6,0.8c-0.267,0-0.667-0.35-1.2-1.05l0.2,0.85
					c0.6,0.8,1.117,1.2,1.55,1.2c0.434,0,0.833-0.417,1.2-1.25l0.7-1.65l0.4,0.55c1.233,1.567,2.25,2.35,3.05,2.35
					C267.35-23.9,267.567-23.967,267.8-24.1z M254.05-24.55l0.4,0.5h1.1v0.1c0.267,1.2,0.833,2.184,1.7,2.95s1.867,1.15,3,1.15
					c0.367,0,0.717-0.033,1.05-0.1l-0.9-0.95c-0.4,0.233-0.816,0.35-1.25,0.35c-0.633,0-1.1-0.184-1.4-0.55s-0.55-1.05-0.75-2.05
					l-0.2-0.9h2.4l-0.55-0.55c-0.533,0.033-1.066,0.05-1.6,0.05h-0.35L255.8-30c-0.3-1.633-0.867-2.917-1.7-3.85
					c-0.833-0.9-1.867-1.35-3.1-1.35c-0.333,0-0.683,0.034-1.05,0.1l0.9,0.95c0.4-0.167,0.816-0.25,1.25-0.25
					c0.6,0,1.066,0.2,1.4,0.6c0.333,0.433,0.583,1.117,0.75,2.05l1.2,7.2H254.05z M232.75-117.649
					c0.567,0.533,1.317,0.799,2.25,0.799c1,0,1.783-0.266,2.35-0.799c0.533-0.533,0.8-1.201,0.8-2c0-0.734-0.2-1.384-0.6-1.951
					c-0.4-0.566-1.2-1.35-2.4-2.35c-1.2-0.967-1.8-1.6-1.8-1.9h4.8v-1.199h-6.6c0,0.6,0.184,1.184,0.55,1.75s1.066,1.25,2.1,2.05
					c1,0.8,1.683,1.45,2.05,1.95s0.55,1.05,0.55,1.65c0,0.566-0.15,1-0.45,1.299c-0.333,0.334-0.783,0.5-1.35,0.5
					c-0.5,0-0.933-0.166-1.3-0.5c-0.367-0.332-0.567-0.799-0.6-1.399h-1.35C231.85-118.884,232.183-118.183,232.75-117.649z
					 M228.55-116.851v-10.199h-1.3v7.9c-0.5-0.367-1.3-0.551-2.4-0.551v1c1.566,0,2.467,0.617,2.7,1.85H228.55z M206.85-120.8
					c-0.1-2.334-0.467-4.084-1.1-5.25h3.55v5.25H206.85z M210.6-119.8v-6.25h1.05V-129h-1.3v1.95h-5.4V-129h-1.3v2.95h0.65
					c0.833,1.199,1.25,3.166,1.25,5.9v0.35H210.6z M219.1-123.45c0-1.199-0.317-2.133-0.95-2.8c-0.6-0.634-1.417-0.95-2.45-0.95
					c-1.034,0-1.867,0.316-2.5,0.95c-0.6,0.667-0.9,1.601-0.9,2.8c0,1.233,0.3,2.184,0.9,2.85c0.633,0.634,1.466,0.951,2.5,0.951
					c1.033,0,1.85-0.317,2.45-0.951C218.783-121.267,219.1-122.217,219.1-123.45z M217.2-121.351c-0.4,0.467-0.9,0.701-1.5,0.701
					c-0.633,0-1.133-0.234-1.5-0.701c-0.4-0.467-0.6-1.166-0.6-2.1c0-0.9,0.2-1.583,0.6-2.05c0.367-0.467,0.867-0.7,1.5-0.7
					c0.6,0,1.1,0.233,1.5,0.7c0.367,0.467,0.55,1.149,0.55,2.05C217.75-122.517,217.567-121.817,217.2-121.351z M182.3-120.8v1h5.9
					v-1h-2.3v-6.25h-1.3v6.25H182.3z M197.4-116.851v-10.199h-1.3v7.9c-0.5-0.367-1.3-0.551-2.4-0.551v1
					c1.566,0,2.466,0.617,2.7,1.85H197.4z M164.8-121.851h-1.3c0.1,1.467,1.15,2.201,3.15,2.201c0.9,0,1.617-0.184,2.15-0.551
					c0.534-0.367,0.8-1.083,0.8-2.15v-4.699h-1.3v0.75c-0.667-0.6-1.517-0.9-2.55-0.9c-0.7,0-1.283,0.184-1.75,0.551
					c-0.467,0.399-0.7,0.899-0.7,1.5c0,1.699,1.45,2.549,4.35,2.549h0.65c0,0.533-0.033,0.918-0.1,1.15
					c-0.034,0.233-0.184,0.434-0.45,0.6c-0.233,0.134-0.633,0.201-1.2,0.201C165.417-120.649,164.833-121.05,164.8-121.851z
					 M167.4-123.55c-1.867,0-2.8-0.5-2.8-1.5c0-0.367,0.133-0.65,0.4-0.85c0.3-0.201,0.683-0.301,1.15-0.301
					c0.4,0,0.8,0.1,1.2,0.301c0.4,0.166,0.717,0.416,0.95,0.75v1.6H167.4z M176.05-123.45c0-0.9,0.2-1.583,0.6-2.05
					c0.367-0.467,0.867-0.7,1.5-0.7c0.6,0,1.1,0.233,1.5,0.7c0.367,0.467,0.55,1.149,0.55,2.05c0,0.934-0.184,1.633-0.55,2.1
					c-0.4,0.467-0.9,0.701-1.5,0.701c-0.633,0-1.133-0.234-1.5-0.701C176.25-121.817,176.05-122.517,176.05-123.45z M180.6-120.601
					c0.633-0.666,0.95-1.616,0.95-2.85c0-1.199-0.316-2.133-0.95-2.8c-0.6-0.634-1.417-0.95-2.45-0.95s-1.867,0.316-2.5,0.95
					c-0.6,0.667-0.9,1.601-0.9,2.8c0,1.233,0.3,2.184,0.9,2.85c0.633,0.634,1.467,0.951,2.5,0.951S180-119.967,180.6-120.601z
					 M63.6-121.95h-1.3c-0.033,0.434-0.2,0.75-0.5,0.95c-0.3,0.233-0.667,0.351-1.1,0.351c-0.633,0-1.133-0.234-1.5-0.701
					c-0.4-0.467-0.6-1.166-0.6-2.1c0-0.9,0.2-1.583,0.6-2.05c0.367-0.467,0.867-0.7,1.5-0.7c0.433,0,0.8,0.117,1.1,0.35
					c0.3,0.201,0.467,0.518,0.5,0.951h1.3c-0.1-0.734-0.4-1.301-0.9-1.701c-0.534-0.399-1.2-0.6-2-0.6
					c-1.034,0-1.867,0.316-2.5,0.95c-0.6,0.667-0.9,1.601-0.9,2.8c0,1.233,0.3,2.184,0.9,2.85c0.633,0.634,1.466,0.951,2.5,0.951
					c0.8,0,1.466-0.201,2-0.601C63.2-120.649,63.5-121.217,63.6-121.95z M70.85-119.8v-7.25h-1.3v6.25H66.6v-3.801
					c0-1.033-0.167-1.717-0.5-2.049c-0.333-0.301-0.783-0.451-1.35-0.451c-0.367,0-0.667,0.018-0.9,0.051v1.05
					c0.267-0.067,0.517-0.101,0.75-0.101c0.267,0,0.45,0.101,0.55,0.301c0.1,0.199,0.15,0.6,0.15,1.199v4.801H70.85z M75.7-119.649
					c1.033,0,1.85-0.317,2.45-0.951c0.633-0.666,0.95-1.616,0.95-2.85c0-1.199-0.317-2.133-0.95-2.8
					c-0.6-0.634-1.417-0.95-2.45-0.95c-1.034,0-1.867,0.316-2.5,0.95c-0.6,0.667-0.9,1.601-0.9,2.8c0,1.233,0.3,2.184,0.9,2.85
					C73.833-119.967,74.667-119.649,75.7-119.649z M73.6-123.45c0-0.9,0.2-1.583,0.6-2.05c0.367-0.467,0.867-0.7,1.5-0.7
					c0.6,0,1.1,0.233,1.5,0.7c0.367,0.467,0.55,1.149,0.55,2.05c0,0.934-0.183,1.633-0.55,2.1c-0.4,0.467-0.9,0.701-1.5,0.701
					c-0.633,0-1.133-0.234-1.5-0.701C73.8-121.817,73.6-122.517,73.6-123.45z M43.45-123.649c-1.034,0-1.833,0.283-2.4,0.85
					c-0.6,0.6-0.9,1.4-0.9,2.4v3.35h1.4v-3.301c0-1.433,0.7-2.149,2.1-2.149c1.067,0,2,0.233,2.8,0.7v4.75h1.35v-10h-1.35v4.15
					C45.483-123.399,44.483-123.649,43.45-123.649z M55.85-119.8v-7.25h-1.3v5.5l-3.25-5.5h-1.4v7.25h1.3v-5.5l3.25,5.5H55.85z
					 M141.75-120.8v-2.051h1.5c0.533,0,0.933,0.084,1.2,0.25c0.233,0.168,0.35,0.418,0.35,0.75c0,0.367-0.133,0.634-0.4,0.801
					c-0.233,0.166-0.65,0.25-1.25,0.25H141.75z M145.15-123.3c0.833-0.233,1.25-0.801,1.25-1.7c0-0.634-0.233-1.134-0.7-1.5
					c-0.467-0.366-1.083-0.55-1.85-0.55h-3.4v7.25h2.95c1.767,0,2.65-0.633,2.65-1.9C146.05-122.467,145.75-123,145.15-123.3z
					 M150.85-119.649c0.9,0,1.617-0.184,2.15-0.551s0.8-1.083,0.8-2.15v-4.699h-1.3v0.75c-0.667-0.6-1.517-0.9-2.55-0.9
					c-0.7,0-1.284,0.184-1.75,0.551c-0.467,0.399-0.7,0.899-0.7,1.5c0,1.699,1.45,2.549,4.35,2.549h0.65
					c0,0.533-0.033,0.918-0.1,1.15c-0.033,0.233-0.183,0.434-0.45,0.6c-0.233,0.134-0.633,0.201-1.2,0.201
					c-1.133,0-1.717-0.4-1.75-1.201h-1.3C147.8-120.384,148.85-119.649,150.85-119.649z M161.8-119.8v-7.25h-1.3v6.25h-2.95v-3.801
					c0-1.033-0.167-1.717-0.5-2.049c-0.333-0.301-0.783-0.451-1.35-0.451c-0.367,0-0.667,0.018-0.9,0.051v1.05
					c0.267-0.067,0.517-0.101,0.75-0.101c0.267,0,0.45,0.101,0.55,0.301c0.1,0.199,0.15,0.6,0.15,1.199v4.801H161.8z M151.6-123.55
					c-1.867,0-2.8-0.5-2.8-1.5c0-0.367,0.133-0.65,0.4-0.85c0.3-0.201,0.683-0.301,1.15-0.301c0.4,0,0.8,0.1,1.2,0.301
					c0.4,0.166,0.717,0.416,0.95,0.75v1.6H151.6z M123.65-120.8h-2.3v-6.25h-1.3v6.25h-2.3v1h5.9V-120.8z M125.75-122.7h4.1
					c-0.1,0.667-0.333,1.184-0.7,1.551c-0.367,0.332-0.816,0.5-1.35,0.5c-0.533,0-0.983-0.168-1.35-0.5
					C126.083-121.483,125.85-122,125.75-122.7z M125.35-120.649c0.6,0.666,1.417,1,2.45,1c1.034,0,1.85-0.317,2.45-0.951
					c0.633-0.666,0.95-1.616,0.95-2.85v-0.3h-5.45c0.033-0.833,0.267-1.45,0.7-1.851c0.4-0.399,0.9-0.6,1.5-0.6
					c0.433,0,0.833,0.117,1.2,0.35c0.367,0.234,0.55,0.551,0.55,0.951h1.35c-0.1-0.734-0.433-1.301-1-1.701
					c-0.566-0.399-1.267-0.6-2.1-0.6c-1.067,0-1.934,0.334-2.6,1c-0.633,0.667-0.95,1.584-0.95,2.75
					C124.4-122.25,124.717-121.317,125.35-120.649z M139-123.351c0-1.199-0.283-2.149-0.85-2.85c-0.6-0.666-1.35-1-2.25-1
					c-0.767,0-1.417,0.233-1.95,0.7v-3.351h-1.3v10.051h1.3v-0.85c0.566,0.666,1.25,1,2.05,1c0.967,0,1.7-0.334,2.2-1
					C138.733-121.317,139-122.217,139-123.351z M137.2-121.351c-0.3,0.467-0.733,0.701-1.3,0.701c-0.733,0-1.383-0.418-1.95-1.25
					v-3.451c0.533-0.566,1.167-0.85,1.9-0.85c0.566,0,1,0.233,1.3,0.7c0.333,0.467,0.5,1.183,0.5,2.149
					C137.65-122.483,137.5-121.817,137.2-121.351z M141.75-126.05h1.7c1.066,0,1.6,0.367,1.6,1.1c0,0.733-0.583,1.1-1.75,1.1h-1.55
					V-126.05z M104.1-119.8v-5.5l3.25,5.5h1.4v-7.25h-1.3v5.5l-3.25-5.5h-1.4v7.25H104.1z M111.95-122.8h3.3v3h1.3v-7.25h-1.3v3.25
					h-3.3v-3.25h-1.3v7.25h1.3V-122.8z M90.2-119.8v-7.25h-1.3v5.5l-3.25-5.5h-1.4v7.25h1.3v-5.5l3.25,5.5H90.2z M95.8-122.5
					c0.233,0.2,0.35,0.45,0.35,0.75c0,0.733-0.517,1.101-1.55,1.101c-1,0-1.533-0.268-1.6-0.801h-1.35
					c0,0.533,0.267,0.967,0.8,1.301c0.533,0.332,1.233,0.5,2.1,0.5c0.9,0,1.617-0.184,2.15-0.551c0.5-0.4,0.75-0.916,0.75-1.55
					c0-0.667-0.383-1.167-1.15-1.5c0.9-0.433,1.35-1.033,1.35-1.8c0-0.633-0.267-1.15-0.8-1.551c-0.567-0.399-1.333-0.6-2.3-0.6
					c-0.9,0-1.633,0.184-2.2,0.551c-0.6,0.399-0.917,0.899-0.95,1.5h1.3c0-0.268,0.167-0.518,0.5-0.75
					c0.333-0.201,0.767-0.301,1.3-0.301c0.567,0,1.017,0.1,1.35,0.301c0.333,0.232,0.5,0.516,0.5,0.85c0,0.3-0.083,0.55-0.25,0.75
					c-0.167,0.199-0.383,0.333-0.65,0.4c-0.233,0.066-0.633,0.1-1.2,0.1H93.8v0.949h0.45C95.083-122.851,95.6-122.733,95.8-122.5z"
					/>
			</g>
		</g>
	</g>
</symbol>
<g id="Layer_1_1_">
	
		<use xlink:href="#tab2"  width="602.301" height="275" id="XMLID_1_" x="-0.95" y="-274.05" transform="matrix(1 0 0 -1 4.5723 5.1855)" overflow="visible"/>
</g>
</svg>
