<?xml version="1.0" encoding="utf-8"?>
<!-- Generator: Adobe Illustrator 15.1.0, SVG Export Plug-In . SVG Version: 6.00 Build 0)  -->
<!DOCTYPE svg PUBLIC "-//W3C//DTD SVG 1.1//EN" "http://www.w3.org/Graphics/SVG/1.1/DTD/svg11.dtd">
<svg version="1.1" id="Layer_1" xmlns="http://www.w3.org/2000/svg" xmlns:xlink="http://www.w3.org/1999/xlink" x="0px" y="0px"
	 width="463.586px" height="154.434px" viewBox="0 0 463.586 154.434" enable-background="new 0 0 463.586 154.434"
	 xml:space="preserve">
<g>
	<g id="Layer_3">
	</g>
	<g id="Layer_1_1_">
	</g>
	<g id="Layer_5_1_">
		<g>
			<g>
				<path fill-rule="evenodd" clip-rule="evenodd" fill="#333333" d="M5.142,4.617c-0.433,0-0.716,0.133-0.85,0.4
					c-0.067,0.066-0.117,0.133-0.15,0.2c0.034,0.1,0.05,0.217,0.05,0.35v40.8h179.1V4.617H5.142z M2.543,4.967
					c-0.1-0.233-0.1-0.466,0-0.7c0.367-1.033,1.233-1.55,2.6-1.55h178.15c0.167,0,0.333,0.05,0.5,0.15
					c0.133-0.1,0.283-0.15,0.45-0.15c0.167,0,0.333,0.05,0.5,0.15c0.133-0.1,0.283-0.15,0.45-0.15h92.5c0.167,0,0.334,0.05,0.5,0.15
					c0.134-0.1,0.284-0.15,0.45-0.15c0.167,0,0.334,0.05,0.5,0.15c0.134-0.1,0.283-0.15,0.45-0.15h91.85
					c0.167,0,0.334,0.05,0.5,0.15c0.134-0.1,0.284-0.15,0.45-0.15c0.167,0,0.334,0.05,0.5,0.15c0.134-0.1,0.283-0.15,0.45-0.15
					h85.75c1.366,0,2.25,0.517,2.65,1.55c0.066,0.233,0.066,0.467,0,0.7c0.133,0.167,0.199,0.367,0.199,0.6v144.5
					c0,0.233-0.066,0.449-0.199,0.649c0.066,0.2,0.066,0.434,0,0.7c-0.4,1-1.284,1.5-2.65,1.5h-85.75c-0.167,0-0.316-0.033-0.45-0.1
					c-0.166,0.066-0.333,0.1-0.5,0.1c-0.166,0-0.316-0.033-0.45-0.1c-0.166,0.066-0.333,0.1-0.5,0.1h-91.85
					c-0.167,0-0.316-0.033-0.45-0.1c-0.166,0.066-0.333,0.1-0.5,0.1c-0.166,0-0.316-0.033-0.45-0.1c-0.166,0.066-0.333,0.1-0.5,0.1
					h-92.5c-0.167,0-0.317-0.033-0.45-0.1c-0.167,0.066-0.333,0.1-0.5,0.1c-0.167,0-0.316-0.033-0.45-0.1
					c-0.167,0.066-0.333,0.1-0.5,0.1h-61.65c-0.167,0-0.316-0.033-0.45-0.1c-0.167,0.066-0.333,0.1-0.5,0.1
					c-0.167,0-0.317-0.033-0.45-0.1c-0.167,0.066-0.333,0.1-0.5,0.1H5.142c-1.367,0-2.233-0.5-2.6-1.5c-0.1-0.267-0.1-0.5,0-0.7
					c-0.167-0.2-0.25-0.416-0.25-0.649V5.567C2.293,5.333,2.376,5.134,2.543,4.967z M4.193,48.267v8.35h115.55
					c0.167,0,0.333,0.05,0.5,0.15c0.133-0.1,0.283-0.15,0.45-0.15c0.167,0,0.333,0.05,0.5,0.15c0.133-0.1,0.283-0.15,0.45-0.15
					h61.65v-8.35H4.193z M4.193,150.067c0,0.133-0.017,0.25-0.05,0.35c0.034,0.066,0.083,0.15,0.15,0.25
					c0.133,0.233,0.417,0.35,0.85,0.35h114.6v-92.5H4.193V150.067z M185.193,48.267v8.35h92.5v-8.35H185.193z M185.193,4.617v41.75
					h92.5V4.617H185.193z M183.293,58.517h-61.65v35.35h61.65V58.517z M121.642,151.016h61.65V95.767h-61.65V151.016z
					 M185.193,95.767v55.249h92.5V95.767H185.193z M185.193,58.517v35.35h92.5v-35.35H185.193z M371.442,56.617v-8.35h-91.85v8.35
					H371.442z M373.343,48.267v8.35h86.7v-8.35H373.343z M371.442,46.367V4.617h-91.85v41.75H371.442z M373.343,4.617v41.75h86.7
					v-40.8c0-0.133,0.017-0.25,0.05-0.35c-0.033-0.066-0.066-0.133-0.1-0.2c-0.167-0.267-0.467-0.4-0.9-0.4H373.343z
					 M279.593,95.767v55.249h91.85V95.767H279.593z M373.343,95.767v55.249h85.75c0.434,0,0.733-0.116,0.9-0.35
					c0.033-0.1,0.066-0.184,0.1-0.25c-0.033-0.1-0.05-0.217-0.05-0.35v-54.3H373.343z M371.442,93.867v-35.35h-91.85v35.35H371.442z
					 M373.343,58.517v35.35h86.7v-35.35H373.343z"/>
				<path fill-rule="evenodd" clip-rule="evenodd" fill="#FD2702" d="M5.142,4.617h178.15v41.75H4.193v-40.8
					c0-0.133-0.017-0.25-0.05-0.35c0.034-0.066,0.083-0.133,0.15-0.2C4.426,4.75,4.709,4.617,5.142,4.617z M185.193,4.617h92.5
					v41.75h-92.5V4.617z M185.193,95.767h92.5v55.249h-92.5V95.767z M373.343,4.617h85.75c0.434,0,0.733,0.133,0.9,0.4
					c0.033,0.066,0.066,0.133,0.1,0.2c-0.033,0.1-0.05,0.217-0.05,0.35v40.8h-86.7V4.617z M371.442,46.367h-91.85V4.617h91.85
					V46.367z M373.343,95.767h86.7v54.3c0,0.133,0.017,0.25,0.05,0.35c-0.033,0.066-0.066,0.15-0.1,0.25
					c-0.167,0.233-0.467,0.35-0.9,0.35h-85.75V95.767z"/>
				<path fill-rule="evenodd" clip-rule="evenodd" fill="#FFFFFF" d="M4.193,48.267h179.1v8.35h-61.65
					c-0.167,0-0.316,0.05-0.45,0.15c-0.167-0.1-0.333-0.15-0.5-0.15c-0.167,0-0.317,0.05-0.45,0.15c-0.167-0.1-0.333-0.15-0.5-0.15
					H4.193V48.267z M185.193,48.267h92.5v8.35h-92.5V48.267z M121.642,151.016V95.767h61.65v55.249H121.642z M373.343,48.267h86.7
					v8.35h-86.7V48.267z M371.442,56.617h-91.85v-8.35h91.85V56.617z"/>
				<path fill-rule="evenodd" clip-rule="evenodd" fill="#FFFF66" d="M4.193,150.067v-91.55h115.55v92.5H5.142
					c-0.433,0-0.716-0.116-0.85-0.35c-0.067-0.1-0.117-0.184-0.15-0.25C4.176,150.317,4.193,150.2,4.193,150.067z"/>
				<path fill-rule="evenodd" clip-rule="evenodd" fill="#9FDFDF" d="M183.293,58.517v35.35h-61.65v-35.35H183.293z M185.193,58.517
					h92.5v35.35h-92.5V58.517z M373.343,58.517h86.7v35.35h-86.7V58.517z M371.442,93.867h-91.85v-35.35h91.85V93.867z"/>
				<rect x="279.593" y="95.767" fill-rule="evenodd" clip-rule="evenodd" fill="#00CC00" width="91.85" height="55.249"/>
			</g>
			<g>
				<path fill-rule="evenodd" clip-rule="evenodd" fill="#FFFFFF" d="M452.293,23.617c-0.3,0.433-0.733,0.767-1.3,1
					c0.3,0.033,0.583,0.117,0.85,0.25s0.517,0.316,0.75,0.55c0.2,0.2,0.366,0.433,0.5,0.7c0.134,0.3,0.2,0.617,0.2,0.95
					c0,0.467-0.101,0.917-0.3,1.35c-0.167,0.4-0.45,0.767-0.851,1.1c-0.399,0.3-0.883,0.55-1.45,0.75
					c-0.6,0.167-1.283,0.25-2.05,0.25c-0.434,0-0.833-0.017-1.2-0.05c-0.333-0.033-0.649-0.066-0.949-0.1v-1.3
					c0.366,0.067,0.733,0.117,1.1,0.15c0.366,0.034,0.75,0.05,1.15,0.05c0.566,0,1.033-0.05,1.399-0.15
					c0.4-0.1,0.717-0.233,0.95-0.4c0.233-0.2,0.417-0.433,0.55-0.7c0.101-0.233,0.15-0.517,0.15-0.85c0-0.3-0.066-0.567-0.2-0.8
					c-0.134-0.2-0.316-0.383-0.55-0.55c-0.233-0.133-0.517-0.25-0.851-0.35c-0.366-0.066-0.733-0.1-1.1-0.1h-1.25v-1.2h1.25
					c0.333,0,0.634-0.033,0.9-0.1c0.267-0.1,0.5-0.233,0.699-0.4c0.167-0.133,0.301-0.317,0.4-0.55c0.1-0.267,0.15-0.55,0.15-0.85
					c0-0.567-0.167-0.983-0.5-1.25c-0.367-0.267-0.884-0.4-1.551-0.4c-0.366,0-0.75,0.033-1.149,0.1
					c-0.4,0.067-0.816,0.184-1.25,0.35v-1.3c0.2-0.033,0.399-0.083,0.6-0.15c0.2-0.067,0.417-0.117,0.65-0.15
					c0.2-0.033,0.416-0.05,0.649-0.05c0.2-0.033,0.4-0.05,0.601-0.05c0.566,0,1.066,0.066,1.5,0.2s0.8,0.3,1.1,0.5
					c0.3,0.233,0.517,0.517,0.65,0.85c0.166,0.333,0.25,0.717,0.25,1.15C452.793,22.667,452.626,23.183,452.293,23.617z
					 M361.543,22.517c0,0.433-0.066,0.816-0.2,1.15c-0.1,0.367-0.267,0.733-0.5,1.1c-0.2,0.333-0.467,0.683-0.8,1.05
					c-0.367,0.4-0.783,0.817-1.25,1.25l-1.95,1.9h5.25v1.4h-7.15v-1.3l2.851-2.8c0.434-0.434,0.8-0.817,1.1-1.15
					c0.3-0.333,0.517-0.633,0.65-0.9c0.166-0.3,0.283-0.566,0.35-0.8s0.101-0.5,0.101-0.8c0-0.267-0.051-0.517-0.15-0.75
					c-0.066-0.233-0.167-0.45-0.3-0.65c-0.167-0.167-0.367-0.3-0.601-0.4s-0.517-0.15-0.85-0.15c-0.467,0-0.884,0.1-1.25,0.3
					c-0.366,0.2-0.717,0.467-1.05,0.8l-0.8-0.95c0.433-0.433,0.916-0.783,1.449-1.05c0.534-0.267,1.15-0.4,1.851-0.4
					c0.467,0,0.899,0.066,1.3,0.2c0.4,0.167,0.75,0.383,1.05,0.65c0.267,0.267,0.483,0.6,0.65,1
					C361.459,21.617,361.543,22.05,361.543,22.517z M380.593,19.517h1.5v4.6h4.55v-4.6h1.5v10.85h-1.5v-5h-4.55v5h-1.5V19.517z
					 M394.692,23.217c-0.267-0.133-0.583-0.2-0.949-0.2c-0.334,0-0.617,0.066-0.851,0.2c-0.267,0.133-0.5,0.3-0.7,0.5
					c-0.199,0.233-0.35,0.5-0.449,0.8c-0.134,0.333-0.2,0.683-0.2,1.05h4.35c0.033-0.367,0-0.717-0.1-1.05
					c-0.101-0.3-0.233-0.55-0.4-0.75C395.192,23.533,394.959,23.35,394.692,23.217z M395.343,22.167
					c0.434,0.167,0.816,0.417,1.15,0.75c0.3,0.333,0.533,0.75,0.699,1.25c0.134,0.467,0.2,1,0.2,1.6c0,0.2,0,0.367,0,0.5
					s0,0.267,0,0.4h-5.85c0,0.867,0.233,1.517,0.7,1.95c0.466,0.466,1.149,0.7,2.05,0.7c0.233,0,0.483-0.017,0.75-0.05
					c0.233,0,0.467-0.017,0.7-0.05c0.233-0.033,0.449-0.066,0.649-0.1c0.2-0.067,0.384-0.117,0.55-0.15v1.2
					c-0.366,0.1-0.8,0.183-1.3,0.25s-1.017,0.1-1.55,0.1c-0.7,0-1.316-0.1-1.85-0.3c-0.5-0.2-0.917-0.483-1.25-0.85
					c-0.334-0.367-0.584-0.817-0.75-1.35c-0.167-0.533-0.25-1.133-0.25-1.8c0-0.6,0.1-1.15,0.3-1.65c0.166-0.533,0.399-1,0.7-1.4
					c0.333-0.4,0.733-0.717,1.199-0.95c0.467-0.233,1-0.35,1.601-0.35C394.392,21.867,394.909,21.967,395.343,22.167z
					 M401.093,22.017h5.15v7.1h1.199l-0.1,3.4h-1.3v-2.15h-6.05v2.15h-1.351l-0.05-3.4h0.1c0.2,0,0.4-0.034,0.601-0.1
					c0.2-0.067,0.383-0.184,0.55-0.35c0.134-0.2,0.283-0.467,0.45-0.8c0.133-0.333,0.25-0.75,0.35-1.25
					c0.101-0.534,0.184-1.184,0.25-1.95C400.993,23.933,401.059,23.05,401.093,22.017z M414.043,22.167
					c0.434,0.167,0.816,0.417,1.149,0.75c0.301,0.333,0.534,0.75,0.7,1.25c0.134,0.467,0.2,1,0.2,1.6c0,0.2,0,0.367,0,0.5
					s0,0.267,0,0.4h-5.85c0,0.867,0.233,1.517,0.699,1.95c0.467,0.466,1.15,0.7,2.051,0.7c0.233,0,0.483-0.017,0.75-0.05
					c0.233,0,0.466-0.017,0.699-0.05c0.233-0.033,0.45-0.066,0.65-0.1c0.2-0.067,0.384-0.117,0.55-0.15v1.2
					c-0.366,0.1-0.8,0.183-1.3,0.25s-1.017,0.1-1.55,0.1c-0.7,0-1.316-0.1-1.851-0.3c-0.5-0.2-0.916-0.483-1.25-0.85
					c-0.333-0.367-0.583-0.817-0.75-1.35c-0.166-0.533-0.25-1.133-0.25-1.8c0-0.6,0.101-1.15,0.301-1.65
					c0.166-0.533,0.399-1,0.699-1.4c0.334-0.4,0.733-0.717,1.2-0.95c0.467-0.233,1-0.35,1.601-0.35
					C413.093,21.867,413.609,21.967,414.043,22.167z M414.093,23.767c-0.2-0.233-0.434-0.417-0.7-0.55s-0.583-0.2-0.95-0.2
					c-0.333,0-0.616,0.066-0.85,0.2c-0.267,0.133-0.5,0.3-0.7,0.5c-0.2,0.233-0.35,0.5-0.45,0.8
					c-0.133,0.333-0.199,0.683-0.199,1.05h4.35c0.033-0.367,0-0.717-0.1-1.05C414.392,24.217,414.26,23.967,414.093,23.767z
					 M419.892,22.017h5.15v8.35h-1.45v-7.1h-2.3c-0.066,1.133-0.167,2.117-0.3,2.95c-0.134,0.8-0.301,1.483-0.5,2.05
					c-0.167,0.533-0.367,0.95-0.601,1.25c-0.233,0.333-0.483,0.566-0.75,0.7s-0.55,0.2-0.85,0.2s-0.617-0.033-0.95-0.1l0.1-1.2
					c0.2,0,0.4-0.017,0.601-0.05s0.383-0.133,0.55-0.3c0.167-0.167,0.316-0.417,0.45-0.75c0.133-0.3,0.25-0.717,0.35-1.25
					c0.134-0.533,0.233-1.184,0.3-1.95C419.793,24.017,419.859,23.083,419.892,22.017z M402.493,23.267
					c-0.067,0.967-0.134,1.783-0.2,2.45c-0.101,0.667-0.2,1.233-0.3,1.7c-0.134,0.433-0.284,0.783-0.45,1.05
					c-0.134,0.267-0.3,0.483-0.5,0.65h3.75v-5.85H402.493z M434.343,22.067v8.3h-1.45v-3.25h-1.25c-0.166,0-0.35,0.033-0.55,0.1
					c-0.233,0.034-0.417,0.1-0.55,0.2c-0.167,0.067-0.316,0.183-0.45,0.35c-0.167,0.167-0.3,0.367-0.4,0.6l-0.899,2h-1.65l1.15-2.4
					c0.2-0.4,0.399-0.7,0.6-0.9c0.233-0.2,0.517-0.333,0.851-0.4c-0.367-0.067-0.667-0.167-0.9-0.3c-0.2-0.167-0.366-0.333-0.5-0.5
					c-0.167-0.2-0.267-0.417-0.3-0.65c-0.066-0.233-0.101-0.45-0.101-0.65c0-0.367,0.067-0.717,0.2-1.05
					c0.134-0.3,0.334-0.583,0.601-0.85c0.267-0.233,0.616-0.417,1.05-0.55s1.066-0.2,1.899-0.2c0.467,0,0.917,0.017,1.351,0.05
					C433.476,22,433.909,22.033,434.343,22.067z M432.243,23.117c-0.233,0-0.467,0-0.7,0c-0.5,0-0.867,0.033-1.101,0.1
					c-0.233,0.067-0.433,0.15-0.6,0.25c-0.134,0.133-0.233,0.284-0.3,0.45s-0.101,0.367-0.101,0.6c0,0.5,0.167,0.867,0.5,1.1
					c0.301,0.233,0.767,0.35,1.4,0.35h1.55v-2.8C432.659,23.167,432.442,23.15,432.243,23.117z M290.692,24.117h4.551v-4.6h1.5
					v10.85h-1.5v-5h-4.551v5h-1.5v-10.85h1.5V24.117z M299.593,23.167c0.333-0.4,0.733-0.717,1.2-0.95c0.467-0.233,1-0.35,1.6-0.35
					c0.601,0,1.117,0.1,1.55,0.3c0.434,0.167,0.817,0.417,1.15,0.75c0.3,0.333,0.533,0.75,0.7,1.25c0.133,0.467,0.2,1,0.2,1.6
					c0,0.2,0,0.367,0,0.5s0,0.267,0,0.4h-5.851c0,0.867,0.233,1.517,0.7,1.95c0.467,0.466,1.15,0.7,2.05,0.7
					c0.233,0,0.483-0.017,0.75-0.05c0.233,0,0.467-0.017,0.7-0.05c0.233-0.033,0.45-0.066,0.65-0.1
					c0.199-0.067,0.383-0.117,0.55-0.15v1.2c-0.367,0.1-0.8,0.183-1.3,0.25s-1.017,0.1-1.551,0.1c-0.699,0-1.316-0.1-1.85-0.3
					c-0.5-0.2-0.917-0.483-1.25-0.85s-0.583-0.817-0.75-1.35s-0.25-1.133-0.25-1.8c0-0.6,0.1-1.15,0.3-1.65
					C299.059,24.033,299.293,23.567,299.593,23.167z M319.043,24.517c-0.134,0.333-0.2,0.683-0.2,1.05h4.35
					c0.034-0.367,0-0.717-0.1-1.05c-0.1-0.3-0.233-0.55-0.4-0.75c-0.199-0.233-0.433-0.417-0.699-0.55s-0.584-0.2-0.95-0.2
					c-0.334,0-0.617,0.066-0.851,0.2c-0.267,0.133-0.5,0.3-0.699,0.5C319.293,23.95,319.142,24.217,319.043,24.517z M319.493,22.217
					c0.466-0.233,1-0.35,1.6-0.35s1.116,0.1,1.55,0.3c0.434,0.167,0.816,0.417,1.15,0.75c0.3,0.333,0.533,0.75,0.7,1.25
					c0.133,0.467,0.199,1,0.199,1.6c0,0.2,0,0.367,0,0.5s0,0.267,0,0.4h-5.85c0,0.867,0.233,1.517,0.7,1.95
					c0.467,0.466,1.149,0.7,2.05,0.7c0.233,0,0.483-0.017,0.75-0.05c0.233,0,0.467-0.017,0.7-0.05c0.233-0.033,0.45-0.066,0.649-0.1
					c0.2-0.067,0.384-0.117,0.551-0.15v1.2c-0.367,0.1-0.801,0.183-1.301,0.25s-1.017,0.1-1.55,0.1c-0.7,0-1.316-0.1-1.85-0.3
					c-0.5-0.2-0.917-0.483-1.25-0.85c-0.334-0.367-0.584-0.817-0.75-1.35c-0.167-0.533-0.25-1.133-0.25-1.8c0-0.6,0.1-1.15,0.3-1.65
					c0.167-0.533,0.4-1,0.7-1.4C318.626,22.767,319.026,22.45,319.493,22.217z M311.093,23.267c-0.066,0.967-0.134,1.783-0.2,2.45
					c-0.1,0.667-0.2,1.233-0.3,1.7c-0.134,0.433-0.283,0.783-0.45,1.05c-0.133,0.267-0.3,0.483-0.5,0.65h3.75v-5.85H311.093z
					 M300.343,24.517c-0.134,0.333-0.2,0.683-0.2,1.05h4.351c0.033-0.367,0-0.717-0.101-1.05c-0.1-0.3-0.233-0.55-0.399-0.75
					c-0.2-0.233-0.434-0.417-0.7-0.55s-0.584-0.2-0.95-0.2c-0.333,0-0.616,0.066-0.85,0.2c-0.267,0.133-0.5,0.3-0.7,0.5
					C300.593,23.95,300.442,24.217,300.343,24.517z M309.692,22.017h5.15v7.1h1.2l-0.101,3.4h-1.3v-2.15h-6.05v2.15h-1.35
					l-0.051-3.4h0.101c0.2,0,0.399-0.034,0.6-0.1c0.2-0.067,0.384-0.184,0.55-0.35c0.134-0.2,0.284-0.467,0.45-0.8
					c0.134-0.333,0.25-0.75,0.351-1.25c0.1-0.534,0.183-1.184,0.25-1.95C309.593,23.933,309.659,23.05,309.692,22.017z
					 M336.743,23.517c0.133-0.3,0.333-0.583,0.6-0.85c0.267-0.233,0.616-0.417,1.05-0.55s1.066-0.2,1.9-0.2
					c0.467,0,0.916,0.017,1.35,0.05c0.434,0.034,0.867,0.067,1.3,0.1v8.3h-1.449v-3.25h-1.25c-0.167,0-0.351,0.033-0.551,0.1
					c-0.233,0.034-0.416,0.1-0.55,0.2c-0.166,0.067-0.316,0.183-0.45,0.35c-0.166,0.167-0.3,0.367-0.399,0.6l-0.9,2h-1.649
					l1.149-2.4c0.2-0.4,0.4-0.7,0.601-0.9c0.233-0.2,0.517-0.333,0.85-0.4c-0.366-0.067-0.667-0.167-0.9-0.3
					c-0.199-0.167-0.366-0.333-0.5-0.5c-0.166-0.2-0.267-0.417-0.3-0.65c-0.066-0.233-0.1-0.45-0.1-0.65
					C336.543,24.2,336.609,23.85,336.743,23.517z M339.043,23.217c-0.233,0.067-0.434,0.15-0.601,0.25
					c-0.133,0.133-0.233,0.284-0.3,0.45s-0.1,0.367-0.1,0.6c0,0.5,0.166,0.867,0.5,1.1c0.3,0.233,0.767,0.35,1.399,0.35h1.551v-2.8
					c-0.233,0-0.45-0.017-0.65-0.05c-0.233,0-0.467,0-0.7,0C339.642,23.117,339.276,23.15,339.043,23.217z M328.493,22.017h5.149
					v8.35h-1.45v-7.1h-2.3c-0.066,1.133-0.166,2.117-0.3,2.95c-0.134,0.8-0.3,1.483-0.5,2.05c-0.167,0.533-0.366,0.95-0.6,1.25
					c-0.233,0.333-0.483,0.566-0.75,0.7s-0.551,0.2-0.851,0.2s-0.616-0.033-0.95-0.1l0.101-1.2c0.2,0,0.399-0.017,0.6-0.05
					s0.384-0.133,0.55-0.3c0.167-0.167,0.317-0.417,0.45-0.75c0.134-0.3,0.25-0.717,0.351-1.25c0.133-0.533,0.233-1.184,0.3-1.95
					C328.392,24.017,328.459,23.083,328.493,22.017z M211.543,22.167c0.433,0.167,0.816,0.417,1.15,0.75
					c0.3,0.333,0.533,0.75,0.7,1.25c0.133,0.467,0.2,1,0.2,1.6c0,0.2,0,0.367,0,0.5s0,0.267,0,0.4h-5.85
					c0,0.867,0.233,1.517,0.7,1.95c0.467,0.466,1.15,0.7,2.05,0.7c0.233,0,0.483-0.017,0.75-0.05c0.233,0,0.467-0.017,0.7-0.05
					c0.233-0.033,0.45-0.066,0.65-0.1c0.2-0.067,0.383-0.117,0.55-0.15v1.2c-0.367,0.1-0.8,0.183-1.3,0.25s-1.017,0.1-1.55,0.1
					c-0.7,0-1.317-0.1-1.85-0.3c-0.5-0.2-0.917-0.483-1.25-0.85c-0.333-0.367-0.583-0.817-0.75-1.35
					c-0.167-0.533-0.25-1.133-0.25-1.8c0-0.6,0.1-1.15,0.3-1.65c0.167-0.533,0.4-1,0.7-1.4c0.333-0.4,0.733-0.717,1.2-0.95
					c0.467-0.233,1-0.35,1.6-0.35S211.109,21.967,211.543,22.167z M211.593,23.767c-0.2-0.233-0.433-0.417-0.7-0.55
					c-0.267-0.133-0.583-0.2-0.95-0.2c-0.333,0-0.617,0.066-0.85,0.2c-0.267,0.133-0.5,0.3-0.7,0.5c-0.2,0.233-0.35,0.5-0.45,0.8
					c-0.133,0.333-0.2,0.683-0.2,1.05h4.35c0.033-0.367,0-0.717-0.1-1.05C211.892,24.217,211.759,23.967,211.593,23.767z
					 M217.293,22.017h5.15v7.1h1.2l-0.1,3.4h-1.3v-2.15h-6.05v2.15h-1.35l-0.05-3.4h0.1c0.2,0,0.4-0.034,0.6-0.1
					c0.2-0.067,0.383-0.184,0.55-0.35c0.133-0.2,0.283-0.467,0.45-0.8c0.133-0.333,0.25-0.75,0.35-1.25
					c0.1-0.534,0.183-1.184,0.25-1.95C217.193,23.933,217.259,23.05,217.293,22.017z M202.843,19.517h1.5v10.85h-1.5v-5h-4.55v5
					h-1.5v-10.85h1.5v4.6h4.55V19.517z M217.242,29.117h3.75v-5.85h-2.3c-0.067,0.967-0.133,1.783-0.2,2.45
					c-0.1,0.667-0.2,1.233-0.3,1.7c-0.133,0.433-0.283,0.783-0.45,1.05C217.609,28.734,217.443,28.95,217.242,29.117z
					 M236.093,22.017h5.15v8.35h-1.45v-7.1h-2.3c-0.067,1.133-0.167,2.117-0.301,2.95c-0.133,0.8-0.3,1.483-0.5,2.05
					c-0.166,0.533-0.366,0.95-0.6,1.25c-0.233,0.333-0.483,0.566-0.75,0.7s-0.55,0.2-0.85,0.2c-0.301,0-0.617-0.033-0.95-0.1
					l0.1-1.2c0.2,0,0.4-0.017,0.601-0.05c0.199-0.033,0.383-0.133,0.55-0.3c0.166-0.167,0.316-0.417,0.45-0.75
					c0.133-0.3,0.25-0.717,0.35-1.25c0.134-0.533,0.233-1.184,0.3-1.95C235.993,24.017,236.059,23.083,236.093,22.017z
					 M229.593,23.217c-0.267-0.133-0.583-0.2-0.95-0.2c-0.333,0-0.617,0.066-0.85,0.2c-0.267,0.133-0.5,0.3-0.7,0.5
					c-0.2,0.233-0.35,0.5-0.45,0.8c-0.133,0.333-0.2,0.683-0.2,1.05h4.35c0.033-0.367,0-0.717-0.1-1.05
					c-0.1-0.3-0.233-0.55-0.4-0.75C230.093,23.533,229.859,23.35,229.593,23.217z M231.392,22.917c0.3,0.333,0.533,0.75,0.7,1.25
					c0.134,0.467,0.2,1,0.2,1.6c0,0.2,0,0.367,0,0.5s0,0.267,0,0.4h-5.85c0,0.867,0.233,1.517,0.7,1.95
					c0.467,0.466,1.15,0.7,2.05,0.7c0.233,0,0.483-0.017,0.75-0.05c0.233,0,0.467-0.017,0.7-0.05c0.233-0.033,0.45-0.066,0.65-0.1
					c0.2-0.067,0.383-0.117,0.55-0.15v1.2c-0.366,0.1-0.8,0.183-1.3,0.25s-1.017,0.1-1.55,0.1c-0.7,0-1.316-0.1-1.85-0.3
					c-0.5-0.2-0.917-0.483-1.25-0.85c-0.333-0.367-0.583-0.817-0.75-1.35c-0.167-0.533-0.25-1.133-0.25-1.8c0-0.6,0.1-1.15,0.3-1.65
					c0.167-0.533,0.4-1,0.7-1.4c0.333-0.4,0.733-0.717,1.2-0.95c0.467-0.233,1-0.35,1.6-0.35s1.117,0.1,1.55,0.3
					C230.676,22.333,231.059,22.583,231.392,22.917z M244.343,23.517c0.134-0.3,0.333-0.583,0.6-0.85
					c0.267-0.233,0.617-0.417,1.051-0.55c0.433-0.133,1.066-0.2,1.899-0.2c0.467,0,0.917,0.017,1.351,0.05
					c0.433,0.034,0.866,0.067,1.3,0.1v8.3h-1.45v-3.25h-1.25c-0.167,0-0.35,0.033-0.55,0.1c-0.233,0.034-0.417,0.1-0.55,0.2
					c-0.167,0.067-0.317,0.183-0.45,0.35c-0.167,0.167-0.3,0.367-0.4,0.6l-0.899,2h-1.65l1.15-2.4c0.199-0.4,0.399-0.7,0.6-0.9
					c0.233-0.2,0.517-0.333,0.85-0.4c-0.366-0.067-0.666-0.167-0.899-0.3c-0.2-0.167-0.367-0.333-0.5-0.5
					c-0.167-0.2-0.267-0.417-0.3-0.65c-0.067-0.233-0.101-0.45-0.101-0.65C244.142,24.2,244.209,23.85,244.343,23.517z
					 M246.043,23.467c-0.134,0.133-0.233,0.284-0.3,0.45c-0.067,0.167-0.101,0.367-0.101,0.6c0,0.5,0.167,0.867,0.5,1.1
					c0.3,0.233,0.767,0.35,1.4,0.35h1.55v-2.8c-0.233,0-0.45-0.017-0.65-0.05c-0.233,0-0.466,0-0.699,0
					c-0.5,0-0.867,0.033-1.101,0.1C246.409,23.283,246.209,23.367,246.043,23.467z M267.192,19.467v9.55h2.45v1.35h-6.85v-1.35h2.8
					v-7.9l-2.6,1.4l-0.551-1.25l3.45-1.8H267.192z M75.443,30.367h-1.45v-10.85h1.45v5.05l4-5.05h1.75l-4.3,5.15l4.5,5.7h-1.85
					l-4.1-5.3V30.367z M90.242,24.167c-0.167,0.433-0.433,0.817-0.8,1.15c-0.333,0.333-0.767,0.617-1.3,0.85
					c-0.566,0.2-1.216,0.3-1.95,0.3h-1.35v3.9h-1.5v-10.85h3.05c0.534,0,1.05,0.066,1.55,0.2c0.5,0.1,0.933,0.284,1.3,0.55
					s0.667,0.617,0.9,1.05c0.233,0.4,0.35,0.9,0.35,1.5C90.492,23.283,90.409,23.734,90.242,24.167z M88.242,21.317
					c-0.433-0.367-1.066-0.55-1.9-0.55h-1.5v4.45h1.35c0.9,0,1.583-0.2,2.05-0.6c0.467-0.367,0.7-0.934,0.7-1.7
					C88.943,22.217,88.709,21.683,88.242,21.317z M92.843,20.767v-1.25h6.45v1.25h-2.5v8.35h2.5v1.25h-6.45v-1.25h2.5v-8.35H92.843z
					"/>
				<path fill-rule="evenodd" clip-rule="evenodd" d="M331.142,73.417c-0.233,0.533-0.383,1.133-0.45,1.8l-0.05,0.5
					c0.467-0.3,1.017-0.533,1.65-0.7c0.6-0.167,1.267-0.25,2-0.25s1.383,0.117,1.95,0.35c0.566,0.2,1.033,0.5,1.399,0.9
					c0.367,0.367,0.634,0.833,0.8,1.4c0.2,0.533,0.301,1.116,0.301,1.75c0,0.667-0.117,1.3-0.351,1.899
					c-0.267,0.601-0.616,1.117-1.05,1.551c-0.467,0.434-1,0.783-1.6,1.05c-0.667,0.233-1.384,0.351-2.15,0.351
					c-0.8,0-1.517-0.134-2.15-0.4c-0.6-0.233-1.116-0.617-1.55-1.15c-0.399-0.566-0.717-1.25-0.95-2.05
					c-0.199-0.833-0.3-1.8-0.3-2.9c0-0.733,0.05-1.467,0.15-2.2c0.066-0.7,0.217-1.35,0.45-1.95c0.233-0.633,0.533-1.2,0.899-1.7
					c0.367-0.533,0.834-0.983,1.4-1.35s1.233-0.65,2-0.85c0.733-0.233,1.6-0.35,2.6-0.35h1.45v1.75h-1.55c-0.9,0-1.667,0.1-2.3,0.3
					c-0.634,0.2-1.167,0.5-1.601,0.9C331.709,72.433,331.376,72.884,331.142,73.417z M321.543,80.417
					c0.233,0.101,0.434,0.233,0.6,0.399c0.167,0.168,0.3,0.367,0.4,0.601c0.1,0.233,0.149,0.483,0.149,0.75s-0.05,0.5-0.149,0.7
					c-0.101,0.232-0.233,0.434-0.4,0.6c-0.166,0.167-0.366,0.301-0.6,0.4s-0.467,0.15-0.7,0.15c-0.267,0-0.517-0.051-0.75-0.15
					s-0.434-0.233-0.6-0.4c-0.167-0.166-0.301-0.367-0.4-0.6c-0.1-0.2-0.15-0.434-0.15-0.7s0.051-0.517,0.15-0.75
					s0.233-0.433,0.4-0.601c0.166-0.166,0.366-0.299,0.6-0.399s0.483-0.149,0.75-0.149
					C321.076,80.267,321.309,80.316,321.543,80.417z M336.692,79.267c0-0.434-0.05-0.834-0.149-1.201
					c-0.101-0.366-0.267-0.666-0.5-0.899c-0.233-0.267-0.533-0.467-0.9-0.6c-0.366-0.133-0.783-0.2-1.25-0.2
					c-0.3,0-0.6,0.017-0.899,0.05c-0.301,0.067-0.584,0.15-0.851,0.25s-0.533,0.2-0.8,0.3c-0.267,0.133-0.5,0.267-0.7,0.4
					c0,0.967,0.066,1.767,0.2,2.4c0.134,0.666,0.333,1.183,0.6,1.549c0.267,0.4,0.601,0.684,1,0.851
					c0.367,0.167,0.817,0.25,1.351,0.25c0.434,0,0.816-0.067,1.149-0.2c0.367-0.133,0.684-0.333,0.95-0.6
					c0.233-0.301,0.434-0.633,0.601-1C336.626,80.217,336.692,79.767,336.692,79.267z M310.743,72.167
					c-0.167-0.333-0.367-0.617-0.601-0.85c-0.267-0.233-0.55-0.4-0.85-0.5c-0.3-0.133-0.65-0.2-1.05-0.2
					c-0.5,0-0.95,0.117-1.351,0.35c-0.434,0.267-0.8,0.65-1.1,1.15c-0.267,0.466-0.483,1.066-0.65,1.8
					c-0.166,0.7-0.25,1.533-0.25,2.5c0,0.233,0.017,0.467,0.05,0.7c0,0.233,0,0.45,0,0.65l6.2-4.551
					C311.043,72.817,310.909,72.467,310.743,72.167z M313.243,73.117c0.233,0.933,0.35,2.05,0.35,3.35c0,1.133-0.116,2.167-0.35,3.1
					c-0.2,0.934-0.534,1.717-1,2.351c-0.467,0.667-1.034,1.183-1.7,1.55c-0.667,0.367-1.467,0.551-2.4,0.551
					c-0.767,0-1.483-0.15-2.149-0.451c-0.634-0.299-1.184-0.75-1.65-1.35c-0.434-0.633-0.783-1.416-1.05-2.35
					c-0.233-0.967-0.351-2.1-0.351-3.4c0-1.1,0.117-2.117,0.351-3.05c0.2-0.933,0.533-1.733,1-2.4c0.467-0.667,1.033-1.184,1.7-1.55
					c0.699-0.367,1.5-0.55,2.399-0.55c0.767,0,1.483,0.15,2.15,0.45c0.633,0.3,1.184,0.767,1.649,1.4
					C312.626,71.367,312.976,72.15,313.243,73.117z M306.392,81.617c0.233,0.232,0.5,0.416,0.8,0.55
					c0.334,0.134,0.684,0.2,1.051,0.2c0.533,0,1-0.133,1.399-0.4c0.434-0.232,0.783-0.6,1.05-1.1c0.301-0.467,0.534-1.066,0.7-1.801
					c0.167-0.732,0.25-1.566,0.25-2.5c0-0.267-0.017-0.517-0.05-0.75c-0.033-0.267-0.05-0.517-0.05-0.75l-6.2,4.6
					c0.1,0.399,0.233,0.767,0.4,1.101C305.909,81.099,306.126,81.384,306.392,81.617z M298.543,120.967
					c0,0.233,0.017,0.467,0.05,0.7c0,0.233,0,0.45,0,0.649l6.2-4.549c-0.101-0.4-0.233-0.75-0.4-1.051
					c-0.166-0.333-0.366-0.617-0.6-0.85c-0.267-0.233-0.55-0.4-0.851-0.5c-0.3-0.133-0.649-0.2-1.05-0.2
					c-0.5,0-0.95,0.116-1.35,0.351c-0.434,0.266-0.8,0.649-1.101,1.149c-0.267,0.467-0.483,1.067-0.649,1.8
					C298.626,119.167,298.543,120,298.543,120.967z M296.942,117.967c0.2-0.934,0.534-1.732,1-2.4
					c0.467-0.666,1.034-1.183,1.7-1.549c0.7-0.367,1.5-0.551,2.4-0.551c0.767,0,1.483,0.15,2.149,0.45
					c0.634,0.3,1.184,0.767,1.65,1.399c0.434,0.601,0.783,1.384,1.05,2.351c0.233,0.933,0.351,2.05,0.351,3.351
					c0,1.133-0.117,2.166-0.351,3.1c-0.2,0.934-0.533,1.717-1,2.35c-0.467,0.667-1.033,1.184-1.7,1.551
					c-0.666,0.366-1.466,0.549-2.399,0.549c-0.767,0-1.483-0.149-2.15-0.449c-0.633-0.301-1.184-0.75-1.649-1.35
					c-0.434-0.634-0.784-1.418-1.051-2.351c-0.233-0.967-0.35-2.101-0.35-3.399C296.593,119.917,296.709,118.9,296.942,117.967z
					 M299.392,125.316c0.167,0.334,0.384,0.617,0.65,0.851c0.233,0.233,0.5,0.417,0.8,0.55c0.333,0.133,0.684,0.2,1.05,0.2
					c0.533,0,1-0.134,1.4-0.399c0.434-0.234,0.783-0.601,1.05-1.101c0.3-0.467,0.533-1.067,0.7-1.8c0.166-0.733,0.25-1.566,0.25-2.5
					c0-0.268-0.017-0.518-0.05-0.75c-0.034-0.268-0.051-0.518-0.051-0.75l-6.199,4.6
					C299.093,124.617,299.226,124.984,299.392,125.316z M316.192,125.967c0.101,0.233,0.15,0.483,0.15,0.75
					c0,0.268-0.05,0.5-0.15,0.7c-0.1,0.233-0.233,0.433-0.399,0.601c-0.167,0.166-0.367,0.299-0.601,0.399s-0.466,0.149-0.699,0.149
					c-0.267,0-0.517-0.049-0.75-0.149s-0.434-0.233-0.601-0.399c-0.166-0.168-0.3-0.367-0.399-0.601c-0.101-0.2-0.15-0.433-0.15-0.7
					c0-0.267,0.05-0.517,0.15-0.75c0.1-0.232,0.233-0.434,0.399-0.6c0.167-0.167,0.367-0.301,0.601-0.4s0.483-0.15,0.75-0.15
					c0.233,0,0.466,0.051,0.699,0.15s0.434,0.233,0.601,0.4C315.959,125.533,316.093,125.734,316.192,125.967z M331.043,115.417
					h-6.05v4.101h1.3c0.7,0,1.383,0.066,2.05,0.199s1.25,0.35,1.75,0.65c0.533,0.333,0.967,0.767,1.3,1.3c0.3,0.533,0.45,1.2,0.45,2
					c0,0.733-0.15,1.399-0.45,2c-0.333,0.601-0.767,1.116-1.3,1.55c-0.566,0.434-1.217,0.768-1.95,1
					c-0.767,0.233-1.583,0.35-2.45,0.35c-0.199,0-0.433,0-0.699,0c-0.233-0.033-0.483-0.049-0.75-0.049
					c-0.233-0.033-0.467-0.051-0.7-0.051c-0.233-0.033-0.45-0.066-0.65-0.1v-1.75c0.4,0.066,0.867,0.133,1.4,0.199
					c0.5,0.033,1.017,0.051,1.55,0.051c0.6,0,1.15-0.066,1.65-0.2c0.466-0.134,0.866-0.333,1.199-0.601
					c0.334-0.266,0.601-0.6,0.801-1c0.166-0.366,0.25-0.783,0.25-1.25c0-0.933-0.334-1.6-1-2c-0.634-0.433-1.567-0.649-2.801-0.649
					h-2.8v-7.5h7.9V115.417z M335.793,121.167v-7.5h7.899v1.75h-6.05v4.101h1.3c0.7,0,1.384,0.066,2.051,0.199
					c0.666,0.133,1.25,0.35,1.75,0.65c0.533,0.333,0.966,0.767,1.3,1.3c0.3,0.533,0.45,1.2,0.45,2c0,0.733-0.15,1.399-0.45,2
					c-0.334,0.601-0.767,1.116-1.3,1.55c-0.567,0.434-1.217,0.768-1.95,1c-0.767,0.233-1.584,0.35-2.45,0.35c-0.2,0-0.434,0-0.7,0
					c-0.233-0.033-0.483-0.049-0.75-0.049c-0.233-0.033-0.467-0.051-0.7-0.051c-0.233-0.033-0.449-0.066-0.649-0.1v-1.75
					c0.399,0.066,0.866,0.133,1.399,0.199c0.5,0.033,1.017,0.051,1.551,0.051c0.6,0,1.149-0.066,1.649-0.2
					c0.467-0.134,0.867-0.333,1.2-0.601c0.333-0.266,0.6-0.6,0.8-1c0.167-0.366,0.25-0.783,0.25-1.25c0-0.933-0.333-1.6-1-2
					c-0.633-0.433-1.566-0.649-2.8-0.649H335.793z M401.793,70.617c-0.5,0-0.95,0.117-1.351,0.35c-0.433,0.267-0.8,0.65-1.1,1.15
					c-0.267,0.466-0.483,1.066-0.65,1.8c-0.166,0.7-0.25,1.533-0.25,2.5c0,0.233,0.017,0.467,0.051,0.7c0,0.233,0,0.45,0,0.65
					l6.199-4.551c-0.1-0.4-0.233-0.75-0.399-1.05c-0.167-0.333-0.367-0.617-0.601-0.85c-0.267-0.233-0.55-0.4-0.85-0.5
					C402.543,70.683,402.192,70.617,401.793,70.617z M406.793,73.117c0.233,0.933,0.35,2.05,0.35,3.35c0,1.133-0.116,2.167-0.35,3.1
					c-0.2,0.934-0.533,1.717-1,2.351c-0.467,0.667-1.033,1.183-1.7,1.55s-1.467,0.551-2.4,0.551c-0.767,0-1.483-0.15-2.149-0.451
					c-0.634-0.299-1.184-0.75-1.65-1.35c-0.434-0.633-0.783-1.416-1.05-2.35c-0.233-0.967-0.35-2.1-0.35-3.4
					c0-1.1,0.116-2.117,0.35-3.05c0.2-0.933,0.533-1.733,1-2.4c0.467-0.667,1.033-1.184,1.7-1.55c0.7-0.367,1.5-0.55,2.399-0.55
					c0.767,0,1.483,0.15,2.15,0.45c0.634,0.3,1.184,0.767,1.65,1.4C406.176,71.367,406.526,72.15,406.793,73.117z M405.192,76.567
					c0-0.267-0.017-0.517-0.05-0.75c-0.033-0.267-0.05-0.517-0.05-0.75l-6.2,4.6c0.101,0.399,0.233,0.767,0.4,1.101
					c0.166,0.332,0.383,0.616,0.649,0.85c0.233,0.232,0.5,0.416,0.801,0.55c0.333,0.134,0.683,0.2,1.05,0.2
					c0.533,0,1-0.133,1.399-0.4c0.434-0.232,0.784-0.6,1.051-1.1c0.3-0.467,0.533-1.066,0.699-1.801
					C405.109,78.334,405.192,77.5,405.192,76.567z M414.392,80.267c0.233,0,0.467,0.049,0.7,0.149s0.434,0.233,0.6,0.399
					c0.167,0.168,0.301,0.367,0.4,0.601s0.15,0.483,0.15,0.75s-0.051,0.5-0.15,0.7c-0.1,0.232-0.233,0.434-0.4,0.6
					c-0.166,0.167-0.366,0.301-0.6,0.4s-0.467,0.15-0.7,0.15c-0.267,0-0.517-0.051-0.75-0.15s-0.434-0.233-0.6-0.4
					c-0.167-0.166-0.3-0.367-0.4-0.6c-0.1-0.2-0.149-0.434-0.149-0.7s0.05-0.517,0.149-0.75c0.101-0.233,0.233-0.433,0.4-0.601
					c0.166-0.166,0.366-0.299,0.6-0.399S414.126,80.267,414.392,80.267z M425.093,70.317c0.566-0.367,1.233-0.65,2-0.85
					c0.733-0.233,1.6-0.35,2.6-0.35h1.45v1.75h-1.55c-0.9,0-1.667,0.1-2.3,0.3c-0.634,0.2-1.167,0.5-1.601,0.9
					c-0.433,0.367-0.767,0.817-1,1.35s-0.383,1.133-0.449,1.8l-0.051,0.5c0.467-0.3,1.017-0.533,1.65-0.7
					c0.6-0.167,1.267-0.25,2-0.25s1.384,0.117,1.95,0.35c0.566,0.2,1.033,0.5,1.399,0.9c0.367,0.367,0.634,0.833,0.801,1.4
					c0.199,0.533,0.3,1.116,0.3,1.75c0,0.667-0.117,1.3-0.351,1.899c-0.267,0.601-0.616,1.117-1.05,1.551
					c-0.467,0.434-1,0.783-1.6,1.05c-0.667,0.233-1.384,0.351-2.15,0.351c-0.8,0-1.517-0.134-2.149-0.4
					c-0.601-0.233-1.117-0.617-1.551-1.15c-0.399-0.566-0.716-1.25-0.949-2.05c-0.2-0.833-0.301-1.8-0.301-2.9
					c0-0.733,0.051-1.467,0.15-2.2c0.066-0.7,0.217-1.35,0.45-1.95c0.233-0.633,0.533-1.2,0.899-1.7
					C424.059,71.134,424.526,70.683,425.093,70.317z M430.243,79.267c0-0.434-0.051-0.834-0.15-1.201
					c-0.1-0.366-0.267-0.666-0.5-0.899c-0.233-0.267-0.533-0.467-0.9-0.6c-0.366-0.133-0.783-0.2-1.25-0.2
					c-0.3,0-0.6,0.017-0.899,0.05c-0.3,0.067-0.584,0.15-0.851,0.25s-0.533,0.2-0.8,0.3c-0.267,0.133-0.5,0.267-0.7,0.4
					c0,0.967,0.067,1.767,0.2,2.4c0.134,0.666,0.334,1.183,0.601,1.549c0.267,0.4,0.6,0.684,1,0.851
					c0.366,0.167,0.816,0.25,1.35,0.25c0.434,0,0.816-0.067,1.15-0.2c0.366-0.133,0.683-0.333,0.949-0.6
					c0.233-0.301,0.434-0.633,0.601-1C430.176,80.217,430.243,79.767,430.243,79.267z M396.493,115.367
					c-0.301-0.133-0.65-0.2-1.051-0.2c-0.5,0-0.949,0.116-1.35,0.351c-0.434,0.266-0.8,0.649-1.1,1.149
					c-0.267,0.467-0.483,1.067-0.65,1.8c-0.167,0.7-0.25,1.533-0.25,2.5c0,0.233,0.017,0.467,0.05,0.7c0,0.233,0,0.45,0,0.649
					l6.2-4.549c-0.1-0.4-0.233-0.75-0.4-1.051c-0.166-0.333-0.366-0.617-0.6-0.85C397.076,115.634,396.793,115.467,396.493,115.367z
					 M399.392,115.316c0.434,0.601,0.783,1.384,1.05,2.351c0.233,0.933,0.351,2.05,0.351,3.351c0,1.133-0.117,2.166-0.351,3.1
					c-0.199,0.934-0.533,1.717-1,2.35c-0.466,0.667-1.033,1.184-1.699,1.551c-0.667,0.366-1.467,0.549-2.4,0.549
					c-0.767,0-1.483-0.149-2.15-0.449c-0.633-0.301-1.183-0.75-1.649-1.35c-0.434-0.634-0.783-1.418-1.05-2.351
					c-0.233-0.967-0.351-2.101-0.351-3.399c0-1.101,0.117-2.117,0.351-3.051c0.199-0.934,0.533-1.732,1-2.4
					c0.466-0.666,1.033-1.183,1.699-1.549c0.7-0.367,1.5-0.551,2.4-0.551c0.767,0,1.483,0.15,2.15,0.45
					C398.376,114.217,398.926,114.683,399.392,115.316z M398.793,120.367c-0.033-0.268-0.05-0.518-0.05-0.75l-6.2,4.6
					c0.1,0.4,0.233,0.768,0.399,1.1c0.167,0.334,0.384,0.617,0.65,0.851c0.233,0.233,0.5,0.417,0.8,0.55
					c0.334,0.133,0.684,0.2,1.05,0.2c0.534,0,1-0.134,1.4-0.399c0.434-0.234,0.783-0.601,1.05-1.101c0.3-0.467,0.533-1.067,0.7-1.8
					c0.167-0.733,0.25-1.566,0.25-2.5C398.843,120.849,398.826,120.599,398.793,120.367z M418.743,113.816
					c0.6-0.232,1.3-0.35,2.1-0.35c0.733,0,1.4,0.084,2,0.25c0.566,0.167,1.05,0.4,1.45,0.7c0.366,0.3,0.649,0.667,0.85,1.101
					c0.2,0.433,0.3,0.899,0.3,1.399c0,0.866-0.233,1.601-0.699,2.2c-0.5,0.6-1.184,1.117-2.051,1.55
					c0.434,0.233,0.834,0.483,1.2,0.75c0.4,0.267,0.733,0.55,1,0.851c0.267,0.332,0.483,0.699,0.65,1.1c0.133,0.4,0.2,0.833,0.2,1.3
					c0,0.634-0.117,1.2-0.351,1.7c-0.267,0.467-0.633,0.867-1.1,1.199c-0.434,0.334-0.967,0.584-1.601,0.75
					c-0.633,0.168-1.3,0.25-2,0.25c-0.8,0-1.517-0.082-2.149-0.25c-0.601-0.199-1.101-0.449-1.5-0.75
					c-0.434-0.332-0.75-0.717-0.95-1.149c-0.2-0.467-0.3-0.967-0.3-1.5c0-0.866,0.25-1.634,0.75-2.3c0.5-0.667,1.267-1.25,2.3-1.75
					c-0.934-0.5-1.634-1.051-2.1-1.65c-0.434-0.6-0.65-1.283-0.65-2.05c0-0.467,0.1-0.917,0.3-1.351c0.2-0.467,0.5-0.866,0.9-1.199
					C417.659,114.283,418.142,114.017,418.743,113.816z M418.793,115.617c-0.467,0.3-0.7,0.783-0.7,1.449
					c0,0.268,0.066,0.533,0.2,0.801c0.1,0.232,0.267,0.467,0.5,0.699c0.233,0.201,0.533,0.4,0.899,0.601
					c0.334,0.233,0.75,0.45,1.25,0.649c0.834-0.399,1.467-0.799,1.9-1.199c0.4-0.434,0.6-0.95,0.6-1.551
					c0-0.633-0.233-1.116-0.699-1.449c-0.467-0.334-1.134-0.5-2-0.5C419.909,115.117,419.26,115.283,418.793,115.617z
					 M418.043,123.967c-0.101,0.268-0.15,0.551-0.15,0.85c0,0.334,0.066,0.634,0.2,0.9c0.167,0.233,0.366,0.45,0.6,0.65
					c0.267,0.166,0.584,0.3,0.95,0.4c0.334,0.1,0.7,0.149,1.101,0.149c0.399,0,0.783-0.05,1.149-0.149
					c0.334-0.067,0.634-0.184,0.9-0.351s0.467-0.384,0.6-0.649c0.167-0.268,0.25-0.584,0.25-0.951c0-0.266-0.05-0.533-0.149-0.799
					c-0.067-0.268-0.217-0.518-0.45-0.75c-0.233-0.268-0.55-0.533-0.95-0.801c-0.4-0.232-0.9-0.482-1.5-0.75
					c-0.5,0.233-0.917,0.467-1.25,0.7c-0.366,0.267-0.65,0.517-0.85,0.75C418.26,123.433,418.109,123.7,418.043,123.967z
					 M409.743,125.967c0.1,0.233,0.149,0.483,0.149,0.75c0,0.268-0.05,0.5-0.149,0.7c-0.101,0.233-0.233,0.433-0.4,0.601
					c-0.167,0.166-0.366,0.299-0.6,0.399s-0.467,0.149-0.7,0.149c-0.267,0-0.517-0.049-0.75-0.149s-0.434-0.233-0.601-0.399
					c-0.166-0.168-0.3-0.367-0.399-0.601c-0.101-0.2-0.15-0.433-0.15-0.7c0-0.267,0.05-0.517,0.15-0.75
					c0.1-0.232,0.233-0.434,0.399-0.6c0.167-0.167,0.367-0.301,0.601-0.4s0.483-0.15,0.75-0.15c0.233,0,0.467,0.051,0.7,0.15
					s0.433,0.233,0.6,0.4C409.51,125.533,409.642,125.734,409.743,125.967z M438.392,117.667c0.233,0.933,0.351,2.05,0.351,3.351
					c0,1.133-0.117,2.166-0.351,3.1c-0.2,0.934-0.533,1.717-1,2.35c-0.467,0.667-1.033,1.184-1.7,1.551
					c-0.666,0.366-1.466,0.549-2.399,0.549c-0.767,0-1.483-0.149-2.15-0.449c-0.633-0.301-1.184-0.75-1.649-1.35
					c-0.434-0.634-0.784-1.418-1.051-2.351c-0.233-0.967-0.35-2.101-0.35-3.399c0-1.101,0.116-2.117,0.35-3.051
					c0.2-0.934,0.534-1.732,1-2.4c0.467-0.666,1.034-1.183,1.7-1.549c0.7-0.367,1.5-0.551,2.4-0.551c0.767,0,1.483,0.15,2.149,0.45
					c0.634,0.3,1.184,0.767,1.65,1.399C437.776,115.917,438.126,116.7,438.392,117.667z M432.043,115.517
					c-0.434,0.266-0.8,0.649-1.101,1.149c-0.267,0.467-0.483,1.067-0.649,1.8c-0.167,0.7-0.25,1.533-0.25,2.5
					c0,0.233,0.017,0.467,0.05,0.7c0,0.233,0,0.45,0,0.649l6.2-4.549c-0.101-0.4-0.233-0.75-0.4-1.051
					c-0.166-0.333-0.366-0.617-0.6-0.85c-0.267-0.233-0.55-0.4-0.851-0.5c-0.3-0.133-0.649-0.2-1.05-0.2
					C432.892,115.167,432.442,115.283,432.043,115.517z M436.692,119.617l-6.199,4.6c0.1,0.4,0.233,0.768,0.399,1.1
					c0.167,0.334,0.384,0.617,0.65,0.851c0.233,0.233,0.5,0.417,0.8,0.55c0.333,0.133,0.684,0.2,1.05,0.2c0.533,0,1-0.134,1.4-0.399
					c0.434-0.234,0.783-0.601,1.05-1.101c0.3-0.467,0.533-1.067,0.7-1.8c0.166-0.733,0.25-1.566,0.25-2.5
					c0-0.268-0.017-0.518-0.05-0.75C436.709,120.099,436.692,119.849,436.692,119.617z M168.742,72.867
					c-0.267-0.333-0.717-0.5-1.35-0.5c-0.833,0-1.667,0.483-2.5,1.45v6.701h-1.7v-9.351h1.7v1.2c0.8-0.934,1.717-1.4,2.75-1.4
					c2.1,0,3.15,1.15,3.15,3.45v6.101h-1.65v-6.051C169.142,73.734,169.009,73.2,168.742,72.867z M158.443,72.567
					c-0.333-0.2-0.85-0.3-1.55-0.3c-1.466,0-2.233,0.533-2.3,1.6h-1.65c0.133-1.934,1.483-2.9,4.05-2.9c1.2,0,2.133,0.25,2.8,0.75
					c0.667,0.467,1,1.383,1,2.75v6.051h-1.65v-0.951c-0.867,0.768-1.966,1.15-3.3,1.15c-0.9,0-1.65-0.25-2.25-0.75
					s-0.9-1.133-0.9-1.9c0-2.199,1.867-3.299,5.6-3.299h0.85c0-0.667-0.05-1.15-0.15-1.45
					C158.926,73.017,158.742,72.767,158.443,72.567z M159.142,76.017h-1.15c-2.4,0-3.6,0.65-3.6,1.95c0,0.467,0.167,0.834,0.5,1.1
					c0.367,0.234,0.85,0.351,1.45,0.351c0.533,0,1.05-0.116,1.55-0.351c0.534-0.232,0.95-0.566,1.25-1V76.017z M137.343,67.617h4.8
					c1.067,0,1.95,0.1,2.65,0.3c0.7,0.2,1.267,0.633,1.7,1.3c0.4,0.633,0.6,1.367,0.6,2.2c0,1.3-0.4,2.283-1.2,2.95
					c-0.833,0.667-2.033,1-3.6,1h-3.25v5.15h-1.7V67.617z M150.793,67.617v12.9h-1.7v-12.9H150.793z M139.043,73.817h3.25
					c1.1,0,1.883-0.2,2.35-0.6c0.467-0.4,0.7-0.983,0.7-1.75c0-0.533-0.133-1-0.4-1.4s-0.583-0.65-0.95-0.75
					c-0.4-0.1-0.983-0.15-1.75-0.15h-3.2V73.817z M152.892,118.217c0.767-0.867,1.817-1.3,3.15-1.3c1.033,0,1.883,0.267,2.55,0.8
					c0.7,0.5,1.1,1.233,1.2,2.2h-1.7c-0.033-0.533-0.233-0.95-0.6-1.25c-0.4-0.3-0.883-0.45-1.45-0.45c-0.8,0-1.434,0.301-1.9,0.9
					c-0.5,0.6-0.75,1.5-0.75,2.699c0,1.168,0.25,2.051,0.75,2.65c0.467,0.6,1.1,0.9,1.9,0.9c0.566,0,1.05-0.133,1.45-0.4
					c0.367-0.3,0.567-0.732,0.6-1.3h1.7c-0.1,0.967-0.5,1.717-1.2,2.25c-0.667,0.5-1.517,0.75-2.55,0.75
					c-1.333,0-2.383-0.417-3.15-1.25c-0.8-0.866-1.2-2.067-1.2-3.601C151.693,120.25,152.093,119.051,152.892,118.217z
					 M144.892,115.217l-2.2,6h4.45L144.892,115.217z M142.242,122.566l-1.4,3.9h-1.8l4.95-12.9h1.8l5.25,12.9h-1.9l-1.5-3.9H142.242
					z M161.492,117.117v-2.301h1.65v2.301h1.5v1.35h-1.5v5.35c0,0.634,0.083,1.051,0.25,1.25c0.167,0.168,0.383,0.25,0.65,0.25
					c0.3,0,0.583-0.033,0.85-0.1v1.25c-0.367,0.066-0.767,0.1-1.2,0.1c-0.667,0-1.167-0.116-1.5-0.35c-0.3-0.232-0.5-0.55-0.6-0.949
					c-0.067-0.367-0.1-0.884-0.1-1.551v-5.25h-1.15v-1.35H161.492z M240.442,71.167c-0.633,0.2-1.166,0.5-1.6,0.9
					c-0.434,0.367-0.767,0.817-1,1.35s-0.384,1.133-0.45,1.8l-0.05,0.5c0.467-0.3,1.017-0.533,1.65-0.7c0.6-0.167,1.267-0.25,2-0.25
					s1.383,0.117,1.949,0.35c0.567,0.2,1.034,0.5,1.4,0.9c0.366,0.367,0.634,0.833,0.8,1.4c0.2,0.533,0.3,1.116,0.3,1.75
					c0,0.667-0.116,1.3-0.35,1.899c-0.267,0.601-0.616,1.117-1.05,1.551c-0.467,0.434-1,0.783-1.601,1.05
					c-0.666,0.233-1.383,0.351-2.149,0.351c-0.8,0-1.517-0.134-2.15-0.4c-0.6-0.233-1.116-0.617-1.55-1.15
					c-0.4-0.566-0.717-1.25-0.95-2.05c-0.2-0.833-0.3-1.8-0.3-2.9c0-0.733,0.05-1.467,0.15-2.2c0.066-0.7,0.216-1.35,0.449-1.95
					c0.233-0.633,0.534-1.2,0.9-1.7c0.366-0.533,0.833-0.983,1.4-1.35c0.566-0.367,1.233-0.65,2-0.85c0.733-0.233,1.6-0.35,2.6-0.35
					h1.45v1.75h-1.55C241.843,70.867,241.076,70.967,240.442,71.167z M243.392,79.267c0-0.434-0.05-0.834-0.149-1.201
					c-0.101-0.366-0.267-0.666-0.5-0.899c-0.233-0.267-0.534-0.467-0.9-0.6s-0.783-0.2-1.25-0.2c-0.3,0-0.6,0.017-0.9,0.05
					c-0.3,0.067-0.583,0.15-0.85,0.25s-0.533,0.2-0.8,0.3c-0.267,0.133-0.5,0.267-0.7,0.4c0,0.967,0.066,1.767,0.2,2.4
					c0.133,0.666,0.333,1.183,0.6,1.549c0.267,0.4,0.601,0.684,1,0.851c0.367,0.167,0.816,0.25,1.351,0.25
					c0.433,0,0.816-0.067,1.149-0.2c0.367-0.133,0.684-0.333,0.95-0.6c0.233-0.301,0.434-0.633,0.6-1
					C243.326,80.217,243.392,79.767,243.392,79.267z M211.843,73.917c-0.167,0.7-0.25,1.533-0.25,2.5c0,0.233,0.017,0.467,0.05,0.7
					c0,0.233,0,0.45,0,0.65l6.2-4.551c-0.1-0.4-0.233-0.75-0.4-1.05c-0.167-0.333-0.367-0.617-0.6-0.85
					c-0.267-0.233-0.55-0.4-0.85-0.5c-0.3-0.133-0.65-0.2-1.05-0.2c-0.5,0-0.95,0.117-1.35,0.35c-0.433,0.267-0.8,0.65-1.1,1.15
					C212.226,72.583,212.009,73.183,211.843,73.917z M212.693,69.467c0.7-0.367,1.5-0.55,2.4-0.55c0.767,0,1.483,0.15,2.15,0.45
					c0.633,0.3,1.184,0.767,1.65,1.4c0.434,0.6,0.784,1.383,1.05,2.35c0.233,0.933,0.35,2.05,0.35,3.35
					c0,1.133-0.117,2.167-0.35,3.1c-0.2,0.934-0.533,1.717-1,2.351c-0.467,0.667-1.033,1.183-1.7,1.55
					c-0.667,0.367-1.467,0.551-2.4,0.551c-0.767,0-1.483-0.15-2.15-0.451c-0.633-0.299-1.184-0.75-1.65-1.35
					c-0.434-0.633-0.784-1.416-1.05-2.35c-0.233-0.967-0.35-2.1-0.35-3.4c0-1.1,0.117-2.117,0.35-3.05c0.2-0.933,0.533-1.733,1-2.4
					C211.459,70.35,212.026,69.833,212.693,69.467z M218.343,76.567c0-0.267-0.017-0.517-0.05-0.75
					c-0.034-0.267-0.05-0.517-0.05-0.75l-6.2,4.6c0.1,0.399,0.233,0.767,0.4,1.101c0.167,0.332,0.383,0.616,0.65,0.85
					c0.233,0.232,0.5,0.416,0.8,0.55c0.333,0.134,0.684,0.2,1.05,0.2c0.533,0,1-0.133,1.4-0.4c0.433-0.232,0.783-0.6,1.05-1.1
					c0.3-0.467,0.534-1.066,0.7-1.801C218.259,78.334,218.343,77.5,218.343,76.567z M228.242,80.417
					c0.233,0.101,0.434,0.233,0.6,0.399c0.167,0.168,0.3,0.367,0.4,0.601s0.15,0.483,0.15,0.75s-0.05,0.5-0.15,0.7
					c-0.1,0.232-0.233,0.434-0.4,0.6c-0.167,0.167-0.367,0.301-0.6,0.4s-0.467,0.15-0.7,0.15c-0.267,0-0.517-0.051-0.75-0.15
					c-0.233-0.1-0.434-0.233-0.6-0.4c-0.167-0.166-0.3-0.367-0.4-0.6c-0.1-0.2-0.15-0.434-0.15-0.7s0.05-0.517,0.15-0.75
					c0.1-0.233,0.233-0.433,0.4-0.601c0.167-0.166,0.367-0.299,0.6-0.399c0.233-0.101,0.483-0.149,0.75-0.149
					C227.776,80.267,228.009,80.316,228.242,80.417z M212.543,115.316c0.433,0.601,0.783,1.384,1.05,2.351
					c0.233,0.933,0.35,2.05,0.35,3.351c0,1.133-0.117,2.166-0.35,3.1c-0.2,0.934-0.533,1.717-1,2.35
					c-0.467,0.667-1.033,1.184-1.7,1.551c-0.667,0.366-1.466,0.549-2.4,0.549c-0.767,0-1.483-0.149-2.15-0.449
					c-0.633-0.301-1.183-0.75-1.65-1.35c-0.434-0.634-0.783-1.418-1.05-2.351c-0.233-0.967-0.35-2.101-0.35-3.399
					c0-1.101,0.117-2.117,0.35-3.051c0.2-0.934,0.534-1.732,1-2.4c0.467-0.666,1.034-1.183,1.7-1.549c0.7-0.367,1.5-0.551,2.4-0.551
					c0.767,0,1.483,0.15,2.15,0.45C211.526,114.217,212.076,114.683,212.543,115.316z M211.093,116.717
					c-0.167-0.333-0.367-0.617-0.6-0.85c-0.267-0.233-0.55-0.4-0.85-0.5c-0.3-0.133-0.65-0.2-1.05-0.2c-0.5,0-0.95,0.116-1.35,0.351
					c-0.433,0.266-0.8,0.649-1.1,1.149c-0.267,0.467-0.483,1.067-0.65,1.8c-0.167,0.7-0.25,1.533-0.25,2.5
					c0,0.233,0.017,0.467,0.05,0.7c0,0.233,0,0.45,0,0.649l6.2-4.549C211.392,117.367,211.259,117.017,211.093,116.717z
					 M211.943,120.367c-0.033-0.268-0.05-0.518-0.05-0.75l-6.2,4.6c0.1,0.4,0.233,0.768,0.4,1.1c0.167,0.334,0.383,0.617,0.65,0.851
					c0.233,0.233,0.5,0.417,0.8,0.55c0.333,0.133,0.683,0.2,1.05,0.2c0.533,0,1-0.134,1.4-0.399c0.434-0.234,0.783-0.601,1.05-1.101
					c0.3-0.467,0.533-1.067,0.7-1.8c0.167-0.733,0.25-1.566,0.25-2.5C211.992,120.849,211.976,120.599,211.943,120.367z
					 M238.843,115.517l-6.15,12.85h-2.25l6.4-12.85h-7.95v-1.851h9.95V115.517z M223.043,126.717c0,0.268-0.05,0.5-0.15,0.7
					c-0.1,0.233-0.233,0.433-0.4,0.601c-0.167,0.166-0.367,0.299-0.6,0.399c-0.233,0.101-0.466,0.149-0.7,0.149
					c-0.267,0-0.517-0.049-0.75-0.149s-0.434-0.233-0.6-0.399c-0.167-0.168-0.3-0.367-0.4-0.601c-0.1-0.2-0.15-0.433-0.15-0.7
					c0-0.267,0.05-0.517,0.15-0.75c0.1-0.232,0.233-0.434,0.4-0.6c0.167-0.167,0.367-0.301,0.6-0.4s0.483-0.15,0.75-0.15
					c0.233,0,0.467,0.051,0.7,0.15c0.233,0.1,0.434,0.233,0.6,0.4c0.167,0.166,0.3,0.367,0.4,0.6
					C222.992,126.2,223.043,126.45,223.043,126.717z M249.942,121.117c0-0.268-0.017-0.518-0.05-0.75
					c-0.033-0.268-0.05-0.518-0.05-0.75l-6.2,4.6c0.101,0.4,0.233,0.768,0.4,1.1c0.166,0.334,0.383,0.617,0.649,0.851
					c0.233,0.233,0.5,0.417,0.801,0.55c0.333,0.133,0.683,0.2,1.05,0.2c0.533,0,1-0.134,1.399-0.399
					c0.434-0.234,0.784-0.601,1.051-1.101c0.3-0.467,0.533-1.067,0.699-1.8C249.859,122.884,249.942,122.051,249.942,121.117z
					 M251.892,121.017c0,1.133-0.116,2.166-0.35,3.1c-0.2,0.934-0.533,1.717-1,2.35c-0.467,0.667-1.033,1.184-1.7,1.551
					c-0.667,0.366-1.467,0.549-2.4,0.549c-0.767,0-1.483-0.149-2.149-0.449c-0.634-0.301-1.184-0.75-1.65-1.35
					c-0.434-0.634-0.783-1.418-1.05-2.351c-0.233-0.967-0.35-2.101-0.35-3.399c0-1.101,0.116-2.117,0.35-3.051
					c0.2-0.934,0.533-1.732,1-2.4c0.467-0.666,1.033-1.183,1.7-1.549c0.7-0.367,1.5-0.551,2.399-0.551c0.767,0,1.483,0.15,2.15,0.45
					c0.634,0.3,1.184,0.767,1.65,1.399c0.433,0.601,0.783,1.384,1.05,2.351C251.776,118.599,251.892,119.717,251.892,121.017z
					 M245.192,115.517c-0.433,0.266-0.8,0.649-1.1,1.149c-0.267,0.467-0.483,1.067-0.65,1.8c-0.166,0.7-0.25,1.533-0.25,2.5
					c0,0.233,0.017,0.467,0.051,0.7c0,0.233,0,0.45,0,0.649l6.199-4.549c-0.1-0.4-0.233-0.75-0.399-1.051
					c-0.167-0.333-0.367-0.617-0.601-0.85c-0.267-0.233-0.55-0.4-0.85-0.5c-0.3-0.133-0.65-0.2-1.05-0.2
					C246.043,115.167,245.593,115.283,245.192,115.517z M35.543,86.066c0.8,0,1.45-0.299,1.95-0.899
					c0.467-0.601,0.7-1.483,0.7-2.649c0-1.201-0.233-2.101-0.7-2.701c-0.5-0.6-1.15-0.899-1.95-0.899c-0.8,0-1.434,0.3-1.9,0.899
					c-0.5,0.601-0.75,1.5-0.75,2.701c0,1.166,0.25,2.049,0.75,2.649C34.109,85.767,34.742,86.066,35.543,86.066z M35.543,77.617
					c1.333,0,2.4,0.434,3.2,1.3c0.8,0.833,1.2,2.033,1.2,3.601c0,1.533-0.4,2.732-1.2,3.6c-0.8,0.833-1.867,1.25-3.2,1.25
					c-1.333,0-2.383-0.417-3.15-1.25c-0.8-0.867-1.2-2.066-1.2-3.6c0-1.567,0.4-2.768,1.2-3.601
					C33.159,78.051,34.209,77.617,35.543,77.617z M29.093,74.267v12.9h-1.7v-11.35h-6.7v11.35h-1.7v-12.9H29.093z M30.443,98.217
					v1.15c0.733-0.9,1.617-1.35,2.65-1.35c1.2,0,2.15,0.433,2.85,1.299c0.667,0.867,1,2.033,1,3.5c0,1.533-0.383,2.75-1.15,3.65
					c-0.733,0.867-1.667,1.301-2.8,1.301c-1.033,0-1.883-0.301-2.55-0.9v4.3h-1.7v-12.95H30.443z M26.343,98.217v9.35h-1.65v-8
					h-4.25v8h-1.7v-9.35H26.343z M34.593,100.217c-0.4-0.6-0.95-0.9-1.65-0.9c-0.934,0-1.767,0.533-2.5,1.601v4.45
					c0.7,0.732,1.517,1.1,2.45,1.1c0.7,0,1.267-0.3,1.7-0.9c0.4-0.6,0.6-1.516,0.6-2.75
					C35.193,101.683,34.992,100.816,34.593,100.217z M28.492,121.316c0.133-1.933,1.483-2.899,4.05-2.899c1.2,0,2.133,0.25,2.8,0.75
					c0.667,0.467,1,1.384,1,2.75v6.05h-1.65v-0.949c-0.867,0.766-1.967,1.149-3.3,1.149c-0.9,0-1.65-0.25-2.25-0.75
					c-0.6-0.5-0.9-1.134-0.9-1.899c0-2.201,1.867-3.301,5.6-3.301h0.85c0-0.666-0.05-1.15-0.15-1.449
					c-0.067-0.301-0.25-0.551-0.55-0.75c-0.333-0.201-0.85-0.301-1.55-0.301c-1.467,0-2.233,0.533-2.3,1.6H28.492z M33.543,123.467
					c-2.4,0-3.6,0.65-3.6,1.95c0,0.467,0.167,0.833,0.5,1.101c0.367,0.232,0.85,0.35,1.45,0.35c0.534,0,1.05-0.117,1.55-0.35
					c0.533-0.234,0.95-0.567,1.25-1v-2.051H33.543z M20.443,118.617v3.9h4.25v-3.9h1.65v9.35h-1.65v-4.15h-4.25v4.15h-1.7v-9.35
					H20.443z M40.892,79.167v-1.351h7.55v1.351h-2.95v8h-1.65v-8H40.892z M52.093,79.566c-0.467,0.467-0.767,1.15-0.9,2.051h5.25
					c-0.133-0.9-0.45-1.584-0.95-2.051c-0.467-0.433-1.033-0.649-1.7-0.649C53.126,78.917,52.559,79.134,52.093,79.566z
					 M56.992,78.917c0.8,0.833,1.2,2.033,1.2,3.601v0.399h-7.05c0.067,1.067,0.367,1.866,0.9,2.399c0.533,0.5,1.183,0.75,1.95,0.75
					c0.567,0,1.083-0.133,1.55-0.399c0.466-0.3,0.716-0.733,0.75-1.3h1.7c-0.133,0.967-0.566,1.717-1.3,2.25
					c-0.733,0.5-1.633,0.75-2.7,0.75c-1.367,0-2.467-0.417-3.3-1.25c-0.833-0.867-1.25-2.066-1.25-3.6s0.4-2.734,1.2-3.601
					c0.8-0.866,1.85-1.3,3.15-1.3C55.126,77.617,56.193,78.051,56.992,78.917z M64.193,78.917c-0.934,0-1.767,0.533-2.5,1.601v4.449
					c0.7,0.733,1.517,1.1,2.45,1.1c0.7,0,1.267-0.299,1.7-0.899c0.4-0.601,0.6-1.517,0.6-2.75c0-1.134-0.2-2-0.6-2.601
					C65.443,79.217,64.892,78.917,64.193,78.917z M67.193,78.917c0.667,0.866,1,2.033,1,3.5c0,1.533-0.383,2.75-1.15,3.649
					c-0.733,0.867-1.667,1.301-2.8,1.301c-1.033,0-1.883-0.301-2.55-0.9v4.301h-1.7V77.816h1.7v1.15c0.733-0.9,1.617-1.35,2.65-1.35
					C65.543,77.617,66.492,78.051,67.193,78.917z M71.693,77.816v7.101l4.15-7.101h1.8v9.351h-1.65v-7.101l-4.2,7.101h-1.8v-9.351
					H71.693z M75.293,98.217v1.15c0.733-0.9,1.617-1.35,2.65-1.35c1.2,0,2.15,0.433,2.85,1.299c0.667,0.867,1,2.033,1,3.5
					c0,1.533-0.383,2.75-1.15,3.65c-0.733,0.867-1.667,1.301-2.8,1.301c-1.033,0-1.883-0.301-2.55-0.9v4.3h-1.7v-12.95H75.293z
					 M64.242,99.316c0.767-0.866,1.817-1.299,3.15-1.299c1.333,0,2.4,0.433,3.2,1.299c0.8,0.834,1.2,2.033,1.2,3.601
					c0,1.533-0.4,2.733-1.2,3.601c-0.8,0.832-1.867,1.25-3.2,1.25c-1.333,0-2.383-0.418-3.15-1.25c-0.8-0.867-1.2-2.067-1.2-3.601
					C63.043,101.349,63.443,100.15,64.242,99.316z M64.742,102.917c0,1.167,0.25,2.05,0.75,2.649c0.467,0.601,1.1,0.9,1.9,0.9
					c0.8,0,1.45-0.3,1.95-0.9c0.467-0.6,0.7-1.482,0.7-2.649c0-1.2-0.233-2.101-0.7-2.7c-0.5-0.6-1.15-0.9-1.95-0.9
					c-0.8,0-1.433,0.301-1.9,0.9C64.992,100.816,64.742,101.717,64.742,102.917z M61.742,102.967c0,1.5-0.333,2.684-1,3.551
					c-0.667,0.832-1.55,1.25-2.65,1.25c-1.033,0-1.8-0.317-2.3-0.951v4.351h-1.65v-4.351c-0.5,0.634-1.267,0.951-2.3,0.951
					c-1.1,0-1.983-0.418-2.65-1.25c-0.667-0.867-1-2.051-1-3.551c0-1.533,0.35-2.732,1.05-3.6c0.667-0.9,1.567-1.35,2.7-1.35
					c0.933,0,1.667,0.25,2.2,0.75v-4.101h1.65v4.101c0.5-0.5,1.233-0.75,2.2-0.75c1.1,0,2,0.449,2.7,1.35
					C61.392,100.234,61.742,101.433,61.742,102.967z M59.443,100.267c-0.4-0.634-0.95-0.951-1.65-0.951c-0.9,0-1.567,0.301-2,0.9
					v4.75c0.1,0.4,0.333,0.75,0.7,1.051c0.367,0.299,0.8,0.449,1.3,0.449c1.5,0,2.25-1.166,2.25-3.5
					C60.043,101.767,59.843,100.867,59.443,100.267z M75.293,105.367c0.7,0.732,1.517,1.1,2.45,1.1c0.7,0,1.267-0.3,1.7-0.9
					c0.4-0.6,0.6-1.516,0.6-2.75c0-1.133-0.2-2-0.6-2.6s-0.95-0.9-1.65-0.9c-0.934,0-1.767,0.533-2.5,1.601V105.367z
					 M46.943,102.917v0.399h-7.05c0.067,1.067,0.367,1.867,0.9,2.4c0.533,0.5,1.183,0.75,1.95,0.75c0.567,0,1.083-0.133,1.55-0.4
					c0.466-0.299,0.716-0.732,0.75-1.299h1.7c-0.133,0.967-0.566,1.717-1.3,2.25c-0.733,0.5-1.633,0.75-2.7,0.75
					c-1.367,0-2.467-0.418-3.3-1.25c-0.833-0.867-1.25-2.067-1.25-3.601s0.4-2.733,1.2-3.601c0.8-0.866,1.85-1.299,3.15-1.299
					c1.333,0,2.4,0.433,3.2,1.299C46.543,100.15,46.943,101.349,46.943,102.917z M44.242,99.967c-0.467-0.434-1.033-0.65-1.7-0.65
					c-0.667,0-1.233,0.217-1.7,0.65c-0.467,0.467-0.767,1.15-0.9,2.051h5.25C45.059,101.117,44.742,100.433,44.242,99.967z
					 M54.142,100.217c-0.466-0.6-1.15-0.9-2.05-0.9c-0.7,0-1.233,0.317-1.6,0.951c-0.4,0.6-0.6,1.5-0.6,2.699
					c0,2.334,0.733,3.5,2.2,3.5c0.633,0,1.133-0.184,1.5-0.55c0.367-0.399,0.55-0.717,0.55-0.95V100.217z M55.492,118.617v7.1
					l4.15-7.1h1.8v9.35h-1.65v-7.1l-4.2,7.1h-1.8v-9.35H55.492z M44.293,124.816v-6.199h7.1v9.35h-1.65v-8h-3.8v4.85
					c0,1.334-0.217,2.201-0.65,2.601c-0.4,0.433-0.983,0.649-1.75,0.649c-0.434,0-0.8-0.033-1.1-0.1v-1.35
					c0.3,0.1,0.6,0.15,0.9,0.15c0.367,0,0.617-0.134,0.75-0.4C44.226,126.099,44.293,125.584,44.293,124.816z M75.543,118.617v7.1
					l4.15-7.1h1.8v9.35h-1.65v-7.1l-4.2,7.1h-1.8v-9.35H75.543z M69.793,118.617h1.65v9.35h-1.65v-4.15h-4.25v4.15h-1.7v-9.35h1.7
					v3.9h4.25V118.617z M106.943,98.217v9.35h-1.65v-9.35H106.943z M104.093,104.717c0,0.867-0.35,1.566-1.05,2.1
					c-0.667,0.5-1.617,0.75-2.85,0.75h-3.75v-9.35h1.7v3.65h2.05c1.233,0,2.183,0.267,2.85,0.8
					C103.742,103.167,104.093,103.849,104.093,104.717z M98.142,103.167v3.101h2c1.5,0,2.25-0.518,2.25-1.551s-0.75-1.55-2.25-1.55
					H98.142z M94.043,98.217v9.35h-1.65v-7.299l-2.85,7.299h-1.45l-2.8-7.299v7.299h-1.7v-9.35h2.45l2.75,7.301l2.8-7.301H94.043z
					 M91.543,118.617v9.35h-1.65v-7.1l-4.2,7.1h-1.8v-9.35h1.7v7.1l4.15-7.1H91.543z M102.642,127.967v-10.15
					c-0.667,0.467-1.7,0.701-3.1,0.701v-1.301c2.033,0,3.2-0.783,3.5-2.35h1.25v13.1H102.642z"/>
			</g>
		</g>
	</g>
</g>
</svg>
