<?xml version="1.0" encoding="utf-8"?>
<!-- Generator: Adobe Illustrator 15.1.0, SVG Export Plug-In . SVG Version: 6.00 Build 0)  -->
<!DOCTYPE svg PUBLIC "-//W3C//DTD SVG 1.1//EN" "http://www.w3.org/Graphics/SVG/1.1/DTD/svg11.dtd">
<svg version="1.1" id="Layer_1" xmlns="http://www.w3.org/2000/svg" xmlns:xlink="http://www.w3.org/1999/xlink" x="0px" y="0px"
	 width="330px" height="260.667px" viewBox="5.5 3.167 330 260.667" enable-background="new 5.5 3.167 330 260.667"
	 xml:space="preserve">
<text transform="matrix(1.0391 0 0 1 8.7939 -490.3184)" display="none" fill="#231F20" enable-background="new    " font-family="'Consolas'" font-size="17">R – Responsible – сотрудник, ответственный за фактическое исполнение KPI.</text>
<g>
	<g>
		<path fill="#0035BA" d="M30.602,228.337v9.824h32.285l-0.21-3.392c-0.036-0.804,0.194-1.512,0.687-2.127
			c0.455-0.611,1.068-0.959,1.841-1.033c0.736-0.039,1.388,0.211,1.947,0.75c0.528,0.494,0.826,1.162,0.894,2.009l0.266,3.793
			h41.921v-3.62c0-0.807,0.264-1.494,0.792-2.068c0.526-0.574,1.159-0.861,1.894-0.861c0.738,0,1.37,0.287,1.9,0.861
			c0.526,0.574,0.786,1.264,0.786,2.068v3.62H155v-4.14c0-0.806,0.262-1.492,0.791-2.067c0.53-0.574,1.159-0.858,1.894-0.858
			c0.738,0,1.37,0.284,1.896,0.858c0.53,0.575,0.79,1.263,0.79,2.067v4.14h42.184v-3.62c0-0.807,0.264-1.494,0.791-2.068
			c0.528-0.574,1.161-0.861,1.896-0.861c0.736,0,1.373,0.287,1.898,0.861c0.527,0.574,0.791,1.264,0.791,2.068v3.62h45.713
			l-0.263-4.367c-0.034-0.802,0.192-1.515,0.685-2.129c0.457-0.61,1.053-0.956,1.793-1.03c0.734-0.041,1.387,0.206,1.947,0.745
			c0.561,0.499,0.875,1.149,0.949,1.954l0.313,4.827H328.6c0.738,0,1.371,0.286,1.897,0.862c0.528,0.572,0.792,1.265,0.792,2.065
			c0,0.806-0.264,1.497-0.792,2.069c-0.526,0.578-1.159,0.861-1.897,0.861h-71.847c-0.071,0-0.142,0-0.212,0H65.993
			c-0.141,0-0.28,0-0.421,0h-34.97v14.713c0,0.807-0.264,1.494-0.792,2.068c-0.524,0.577-1.156,0.862-1.894,0.862
			c-0.737,0-1.37-0.285-1.896-0.862c-0.526-0.574-0.79-1.263-0.79-2.068V244.02H11.748c-0.738,0-1.37-0.283-1.898-0.861
			c-0.526-0.572-0.788-1.264-0.788-2.069c0-0.802,0.262-1.493,0.788-2.065c0.528-0.576,1.16-0.862,1.898-0.862h13.481V13.339
			c0-0.803,0.264-1.493,0.79-2.067c0.526-0.576,1.16-0.864,1.896-0.864c0.738,0,1.37,0.288,1.894,0.864
			c0.528,0.574,0.792,1.265,0.792,2.067v6.61h4.267c0.736,0,1.37,0.285,1.896,0.861c0.526,0.573,0.788,1.263,0.788,2.068
			c0,0.804-0.262,1.493-0.788,2.067c-0.526,0.576-1.16,0.862-1.896,0.862h-4.267v31.955h4.267c0.736,0,1.37,0.289,1.896,0.86
			c0.526,0.576,0.788,1.266,0.788,2.071c0,0.804-0.262,1.493-0.788,2.066c-0.526,0.574-1.16,0.863-1.896,0.863h-4.267v29.941h5.162
			c0.736,0,1.368,0.287,1.896,0.862c0.528,0.574,0.79,1.269,0.79,2.069c0,0.804-0.262,1.497-0.79,2.066
			c-0.528,0.576-1.16,0.865-1.896,0.865h-5.162v38.962h3.317c0.739,0,1.372,0.287,1.898,0.863c0.526,0.575,0.79,1.266,0.79,2.07
			c0,0.806-0.264,1.49-0.79,2.064c-0.526,0.579-1.16,0.862-1.898,0.862h-3.317v44.539h6.109c0.737,0,1.37,0.288,1.898,0.866
			c0.524,0.572,0.789,1.259,0.789,2.063c0,0.808-0.264,1.497-0.789,2.071c-0.528,0.572-1.161,0.857-1.898,0.857h-6.109v29.658
			L30.602,228.337L30.602,228.337z"/>
	</g>
	<g>
		<path fill="#0035BA" d="M314.7,239.833c0.118-0.39,0.228-0.782,0.346-1.172h-4.614v-3.62c0-0.807-0.265-1.494-0.793-2.068
			c-0.523-0.574-1.162-0.861-1.897-0.861s-1.368,0.287-1.896,0.861s-0.791,1.264-0.791,2.068v3.62h-2.461
			c0.188,0.387,0.361,0.778,0.533,1.172H314.7z"/>
	</g>
	<g>
		<rect x="247.055" y="129.979" fill="#CF4E21" width="12.51" height="104.775"/>
		<rect x="117.44" y="178.193" fill="#CF4E21" width="12.157" height="56.562"/>
		<rect x="182.26" y="164.902" fill="#CF4E21" width="12.133" height="69.853"/>
		<rect x="132.17" y="176.443" fill="#7CA88E" width="12.156" height="58.545"/>
		<rect x="196.991" y="158.175" fill="#7CA88E" width="12.131" height="76.58"/>
		<rect x="146.9" y="174.111" fill="#54ADB2" width="12.156" height="60.877"/>
		<rect x="211.719" y="151.35" fill="#54ADB2" width="12.133" height="83.405"/>
		<rect x="161.629" y="170.111" fill="#BACCC1" width="12.157" height="64.644"/>
		<rect x="52.947" y="182.412" fill="#CF4E21" width="12.157" height="52.343"/>
		<rect x="67.676" y="183.729" fill="#7CA88E" width="12.157" height="51.26"/>
		<rect x="82.406" y="181.749" fill="#54ADB2" width="12.157" height="53.239"/>
		<rect x="97.135" y="179.672" fill="#BACCC1" width="12.158" height="55.083"/>
		<rect x="32.642" y="198.457" fill="#BACCC1" width="12.157" height="36.298"/>
		<rect x="226.449" y="142.809" fill="#BACCC1" width="12.132" height="91.946"/>
		<rect x="268.991" y="111.175" fill="#7CA88E" width="12.131" height="123.58"/>
		<rect x="283.719" y="93.681" fill="#54ADB2" width="12.133" height="141.074"/>
		<rect x="298.449" y="74.142" fill="#BACCC1" width="12.132" height="160.613"/>
	</g>
	<g>
		<g>
			<path fill="none" stroke="#8BC53F" stroke-width="18" stroke-miterlimit="10" d="M37.333,169.294
				c121.502,6.054,226.28-35.335,273.703-141.119"/>
			<g>
				<path fill="#8BC53F" d="M309.961,30.474c-8.572,3.63-21.816,1.651-30.285-1.499c14.627-3.813,28.833-10.716,39.657-21.642
					c-0.063,15.284,6.123,29.887,13.421,43.139C324.081,46.122,314.087,39.525,309.961,30.474z"/>
			</g>
		</g>
	</g>
</g>
</svg>
