<?xml version="1.0" encoding="utf-8"?>
<!-- Generator: Adobe Illustrator 15.1.0, SVG Export Plug-In . SVG Version: 6.00 Build 0)  -->
<!DOCTYPE svg PUBLIC "-//W3C//DTD SVG 1.1//EN" "http://www.w3.org/Graphics/SVG/1.1/DTD/svg11.dtd">
<svg version="1.1" id="Layer_1" xmlns="http://www.w3.org/2000/svg" xmlns:xlink="http://www.w3.org/1999/xlink" x="0px" y="0px"
	 width="756.5px" height="253.5px" viewBox="2 2.5 756.5 253.5" enable-background="new 2 2.5 756.5 253.5" xml:space="preserve">
<text transform="matrix(1.0391 0 0 1 -221.2058 -113.3184)" display="none" fill="#231F20" enable-background="new    " font-family="'Consolas'" font-size="17">R – Responsible – сотрудник, ответственный за фактическое исполнение KPI.</text>
<g>
	<g>
		
			<rect x="8.142" y="52.209" transform="matrix(-0.3286 -0.9445 0.9445 -0.3286 24.8255 263.2647)" fill="#FFFFFF" stroke="#808184" stroke-width="2" stroke-miterlimit="10" width="195.693" height="141.198"/>
		
			<rect x="62.845" y="47.033" transform="matrix(-0.9445 0.3286 -0.3286 -0.9445 206.6288 64.467)" fill="#808184" width="70.046" height="5.319"/>
		
			<rect x="65.329" y="86.531" transform="matrix(-0.9445 0.3286 -0.3286 -0.9445 233.6006 138.9048)" fill="#808184" width="79.47" height="5.319"/>
		
			<rect x="74.577" y="112.183" transform="matrix(-0.9445 0.3286 -0.3286 -0.9445 260.0123 185.7463)" fill="#808184" width="79.47" height="5.319"/>
		
			<rect x="85.731" y="136.159" transform="matrix(-0.9445 0.3286 -0.3286 -0.9445 289.5793 228.7014)" fill="#808184" width="79.47" height="5.319"/>
		
			<rect x="93.671" y="160.799" transform="matrix(-0.9445 0.3286 -0.3286 -0.9445 313.115 274.0064)" fill="#808184" width="79.47" height="5.319"/>
		
			<rect x="102.055" y="188.183" transform="matrix(-0.9445 0.3286 -0.3286 -0.9445 338.4154 324.4966)" fill="#808184" width="79.47" height="5.319"/>
		
			<rect x="96.261" y="54.729" transform="matrix(-0.9445 0.3286 -0.3286 -0.9445 246.1542 73.1792)" fill="#808184" width="41.265" height="5.319"/>
		
			<rect x="38.663" y="97.445" transform="matrix(-0.9448 0.3278 -0.3278 -0.9448 131.4516 194.138)" fill="#D8DAE5" stroke="#2B388F" stroke-width="3" stroke-miterlimit="10" width="21.403" height="21.403"/>
		
			<rect x="48.76" y="123.072" transform="matrix(-0.9448 0.3278 -0.3278 -0.9448 159.4848 240.6678)" fill="#D8DAE5" stroke="#2B388F" stroke-width="3" stroke-miterlimit="10" width="21.403" height="21.403"/>
		
			<rect x="58.082" y="147.922" transform="matrix(-0.9448 0.3277 -0.3277 -0.9448 185.7545 285.9417)" fill="#D8DAE5" stroke="#2B388F" stroke-width="3" stroke-miterlimit="10" width="21.403" height="21.402"/>
		
			<rect x="68.177" y="173.55" transform="matrix(-0.9448 0.3277 -0.3277 -0.9448 213.7877 332.4732)" fill="#D8DAE5" stroke="#2B388F" stroke-width="3" stroke-miterlimit="10" width="21.403" height="21.402"/>
		
			<rect x="77.496" y="198.4" transform="matrix(-0.9448 0.3278 -0.3278 -0.9448 240.0635 377.7409)" fill="#D8DAE5" stroke="#2B388F" stroke-width="3" stroke-miterlimit="10" width="21.403" height="21.403"/>
		<g>
			<g>
				<path fill="#70B700" d="M33.847,99.085c2.813,5.297,6.608,9.552,12.395,11.548c1.848,0.638,6.233-0.1,6.958-2.279
					c2.861-8.597,2.576-17.806,5.438-26.403c0.734-2.208-6.913-1.176-7.683,1.136c-2.86,8.597-2.576,17.806-5.437,26.403
					c2.318-0.76,4.639-1.52,6.958-2.279c-5.111-1.764-8.415-5.517-10.901-10.196C40.331,94.674,32.909,97.319,33.847,99.085
					L33.847,99.085z"/>
			</g>
		</g>
		<g>
			<g>
				<path fill="#70B700" d="M55.591,153.443c2.814,5.297,6.609,9.553,12.396,11.549c1.848,0.638,6.233-0.1,6.958-2.279
					c2.861-8.598,2.576-17.807,5.436-26.402c0.735-2.209-6.913-1.176-7.682,1.135c-2.86,8.598-2.575,17.807-5.436,26.404
					c2.318-0.761,4.639-1.521,6.958-2.279c-5.111-1.764-8.416-5.516-10.901-10.195C62.075,149.033,54.652,151.678,55.591,153.443
					L55.591,153.443z"/>
			</g>
		</g>
		<g>
			<g>
				<path fill="#70B700" d="M64.133,178.293c2.814,5.298,6.61,9.553,12.396,11.548c1.848,0.638,6.233-0.1,6.958-2.278
					c2.861-8.598,2.575-17.807,5.436-26.403c0.735-2.208-6.913-1.177-7.682,1.136c-2.861,8.598-2.575,17.807-5.436,26.402
					c2.318-0.76,4.639-1.52,6.958-2.278c-5.111-1.765-8.416-5.517-10.902-10.196C70.617,173.882,63.194,176.527,64.133,178.293
					L64.133,178.293z"/>
			</g>
		</g>
	</g>
	<g>
		
			<rect x="548.241" y="59.143" transform="matrix(0.3714 -0.9285 0.9285 0.3714 285.5587 685.305)" fill="#FFFFFF" stroke="#808184" stroke-width="2" stroke-miterlimit="10" width="201.296" height="145.238"/>
		
			<rect x="665.416" y="75.028" transform="matrix(-0.9285 -0.3714 0.3714 -0.9285 1307.9451 407.4136)" fill="#808184" width="55.573" height="5.474"/>
		
			<rect x="640.435" y="92.74" transform="matrix(-0.9285 -0.3714 0.3714 -0.9285 1269.2628 435.3869)" fill="#808184" width="72.239" height="5.471"/>
		
			<rect x="677.719" y="89.213" transform="matrix(-0.9285 -0.3714 0.3714 -0.9285 1309.8779 436.1521)" fill="#808184" width="38.434" height="5.471"/>
		<g>
			
				<rect x="536.09" y="126.665" transform="matrix(-0.9305 -0.3662 0.3662 -0.9305 989.603 474.3421)" fill="#B9CBC0" width="7.397" height="33.306"/>
			
				<rect x="546.489" y="137.914" transform="matrix(-0.9305 -0.3664 0.3664 -0.9305 1006.7366 493.3055)" fill="#CE4F27" width="7.386" height="26.402"/>
			
				<rect x="561.46" y="105.957" transform="matrix(-0.9305 -0.3664 0.3664 -0.9305 1040.6747 472.3228)" fill="#7CA78C" width="7.394" height="62.903"/>
			
				<rect x="564.364" y="137.848" transform="matrix(-0.9304 -0.3665 0.3665 -0.9304 1039.9846 506.4307)" fill="#53ACB0" width="7.397" height="33.306"/>
			
				<rect x="579.435" y="105.309" transform="matrix(-0.9305 -0.3663 0.3663 -0.9305 1074.2844 484.7878)" fill="#B9CBC0" width="7.396" height="70.34"/>
			
				<rect x="585.841" y="137.454" transform="matrix(-0.9305 -0.3663 0.3663 -0.9305 1080.0806 521.6934)" fill="#CE4F27" width="7.395" height="41.829"/>
			
				<rect x="597.296" y="124.245" transform="matrix(-0.9305 -0.3663 0.3663 -0.9305 1103.912 516.8793)" fill="#7CA78C" width="7.405" height="58.906"/>
			
				<rect x="607.097" y="119.65" transform="matrix(-0.9305 -0.3664 0.3664 -0.9305 1122.9907 519.4944)" fill="#53ACB0" width="7.389" height="67.069"/>
			
				<rect x="614.596" y="126.892" transform="matrix(-0.9305 -0.3664 0.3664 -0.9305 1135.5808 532.1964)" fill="#B9CBC0" width="7.388" height="62.904"/>
			
				<rect x="630.531" y="108.828" transform="matrix(-0.9304 -0.3664 0.3664 -0.9304 1168.6329 525.8325)" fill="#CE4F27" width="7.385" height="86.346"/>
			
				<rect x="634.572" y="134.763" transform="matrix(-0.9305 -0.3663 0.3663 -0.9305 1171.2863 554.7026)" fill="#7CA78C" width="7.405" height="62.907"/>
			
				<rect x="640.226" y="151.823" transform="matrix(-0.9305 -0.3663 0.3663 -0.9305 1178.5896 575.8843)" fill="#53ACB0" width="7.406" height="48.612"/>
			
				<rect x="644.462" y="176.521" transform="matrix(-0.9305 -0.3664 0.3664 -0.9305 1181.7318 603.7374)" fill="#B9CBC0" width="7.396" height="26.403"/>
			
				<rect x="667.063" y="123.261" transform="matrix(-0.9304 -0.3665 0.3665 -0.9304 1233.8223 567.1345)" fill="#CE4F27" width="7.378" height="86.348"/>
			
				<rect x="666.443" y="173.785" transform="matrix(-0.9305 -0.3664 0.3664 -0.9305 1223.1421 617.1029)" fill="#7CA78C" width="7.388" height="37.37"/>
			
				<rect x="674.715" y="177.092" transform="matrix(-0.9305 -0.3664 0.3664 -0.9305 1237.936 626.4843)" fill="#53ACB0" width="7.397" height="37.372"/>
			
				<rect x="684.403" y="172.768" transform="matrix(-0.9304 -0.3665 0.3665 -0.9304 1256.7109 629.313)" fill="#B9CBC0" width="7.386" height="45.179"/>
			<g>
				
					<rect x="426.79" y="119.628" transform="matrix(-0.3664 0.9305 -0.9305 -0.3664 698.3861 -234.7673)" fill="#B9CBC0" width="4.669" height="1.542"/>
				
					<rect x="462.946" y="133.85" transform="matrix(-0.3667 0.9303 -0.9303 -0.3667 761.1515 -248.8727)" fill="#B9CBC0" width="4.671" height="1.558"/>
				
					<rect x="499.408" y="148.222" transform="matrix(-0.3663 0.9305 -0.9305 -0.3663 824.1793 -263.2827)" fill="#B9CBC0" width="4.668" height="1.567"/>
				
					<rect x="535.91" y="162.601" transform="matrix(-0.366 0.9306 -0.9306 -0.366 887.3082 -277.7018)" fill="#B9CBC0" width="4.669" height="1.56"/>
				
					<rect x="572.446" y="176.964" transform="matrix(-0.3667 0.9304 -0.9304 -0.3667 950.891 -291.8401)" fill="#B9CBC0" width="4.669" height="1.551"/>
				
					<rect x="609.114" y="191.403" transform="matrix(-0.3665 0.9304 -0.9304 -0.3665 1014.3615 -306.2845)" fill="#B9CBC0" width="4.671" height="1.549"/>
				
					<rect x="645.748" y="205.851" transform="matrix(-0.3662 0.9305 -0.9305 -0.3662 1077.7087 -320.7457)" fill="#B9CBC0" width="4.669" height="1.569"/>
				
					<rect x="682.475" y="220.294" transform="matrix(-0.3665 0.9304 -0.9304 -0.3665 1141.4968 -335.053)" fill="#B9CBC0" width="4.671" height="1.56"/>
			</g>
		</g>
	</g>
	<g>
		
			<rect x="141.747" y="48.748" transform="matrix(-0.1595 -0.9872 0.9872 -0.1595 163.0831 387.5249)" fill="#FFFFFF" stroke="#808184" stroke-width="2" stroke-miterlimit="10" width="209.527" height="151.179"/>
		
			<rect x="170.158" y="49.928" transform="matrix(-0.9872 0.1595 -0.1595 -0.9872 421.8096 71.6956)" fill="#808184" width="75.739" height="5.695"/>
		
			<rect x="167.285" y="39.628" transform="matrix(-0.9872 0.1595 -0.1595 -0.9872 378.2969 54.5887)" fill="#808184" width="39.345" height="5.695"/>
		
			<rect x="257.906" y="175.732" transform="matrix(-0.9872 0.1595 -0.1595 -0.9872 616.2501 307.693)" fill="#808184" width="75.739" height="5.695"/>
		
			<rect x="255.031" y="165.435" transform="matrix(-0.9872 0.1595 -0.1595 -0.9872 572.7314 290.5984)" fill="#808184" width="39.345" height="5.696"/>
		<g>
			<path fill="#CE4F27" d="M322.813,76.213c1.504,11.248-6.404,21.593-17.65,23.098c-11.255,1.505-21.597-6.399-23.102-17.647
				c-1.505-11.254,6.396-21.593,17.651-23.098C310.96,57.062,321.309,64.959,322.813,76.213z"/>
			<path fill="#7CA78C" d="M343.282,73.476c1.504,11.248-6.396,21.593-17.643,23.097c-11.256,1.505-21.59-6.4-23.094-17.648
				c-1.506-11.255,6.389-21.592,17.644-23.098C331.437,54.323,341.777,62.221,343.282,73.476z"/>
			<path fill="#53ACB0" d="M302.546,78.925c1.004,7.509,5.955,13.539,12.486,16.255c5.584-4.338,8.785-11.458,7.781-18.967
				c-1.006-7.519-5.966-13.547-12.494-16.267C304.731,64.287,301.54,71.405,302.546,78.925z"/>
		</g>
		<g>
			<path fill="#CE4F27" d="M231.152,199.548c1.216,9.086-5.167,17.437-14.252,18.652c-9.085,1.215-17.433-5.165-18.646-14.251
				c-1.216-9.09,5.16-17.436,14.246-18.651C221.583,184.083,229.937,190.458,231.152,199.548z"/>
			<path fill="#A3CCB5" d="M247.693,197.336c1.216,9.086-5.169,17.438-14.25,18.652c-9.087,1.215-17.438-5.166-18.654-14.25
				c-1.216-9.092,5.166-17.438,14.253-18.652C238.123,181.87,246.478,188.246,247.693,197.336z"/>
			<circle fill="#6A9A7E" cx="221.068" cy="186.415" r="16.603"/>
			<path fill="#E98469" d="M229.042,183.085c2.979-0.397,5.878,0.015,8.477,1.082c0.001,0.011,0.003,0.028,0.006,0.047
				c1.216,9.086-5.168,17.44-14.256,18.657c-2.979,0.398-5.878-0.023-8.472-1.082c-0.003-0.02-0.005-0.039-0.007-0.053
				C213.573,192.646,219.955,184.301,229.042,183.085z"/>
			<path fill="#3BA4A4" d="M212.5,185.298c-2.978,0.397-5.664,1.558-7.893,3.272c0.002,0.011,0.004,0.027,0.006,0.046
				c1.215,9.086,9.566,15.47,18.654,14.255c2.983-0.398,5.669-1.568,7.893-3.271c-0.003-0.02-0.005-0.037-0.008-0.052
				C229.937,190.458,221.583,184.083,212.5,185.298z"/>
			<path fill="#93D5DF" d="M214.789,201.736c0.812,6.063,4.813,10.935,10.083,13.127c4.52-3.502,7.092-9.252,6.28-15.315
				c-0.813-6.075-4.805-10.938-10.086-13.133C216.559,189.919,213.977,195.663,214.789,201.736z"/>
			<path fill="#F4F5F5" d="M221.066,186.415c-4.507,3.504-7.09,9.248-6.277,15.321c0.002,0.015,0.004,0.033,0.007,0.053
				c2.594,1.059,5.493,1.479,8.472,1.082c2.983-0.398,5.669-1.568,7.893-3.271c-0.003-0.02-0.005-0.037-0.008-0.052
				C230.34,193.475,226.347,188.609,221.066,186.415z"/>
		</g>
		<g>
			<path fill="#F4F5F5" d="M270.137,83.259c1.504,11.248-6.396,21.593-17.645,23.097c-11.251,1.505-21.596-6.399-23.101-17.647
				c-1.505-11.254,6.398-21.593,17.649-23.099C258.291,64.106,268.632,72.005,270.137,83.259z"/>
			<path fill="#6A9A7E" d="M252.488,106.318c-3.781,0.506-7.621-0.056-11.09-1.603l8.312-18.591
				c0.021,0.007,0.035,0.015,0.078,0.009c0.03-0.004,0.073-0.009,0.113-0.084l17.7,10.074c-1.527,2.684-3.681,5.025-6.221,6.772
				C258.746,104.705,255.669,105.893,252.488,106.318z"/>
			<path fill="#B9CBC0" d="M240.959,104.514c-1.919-0.914-3.691-2.121-5.249-3.588c-1.574-1.481-2.9-3.188-3.935-5.079l17.855-9.793
				c0.011,0.024,0.043,0.053,0.079,0.07L240.959,104.514z"/>
			<path fill="#CE4F27" d="M267.831,95.707l-17.93-9.664c0.018-0.028,0.021-0.04,0.016-0.08c-0.016-0.119-0.128-0.131-0.128-0.131
				l1.96-20.272c4.538,0.435,8.858,2.411,12.172,5.573c3.364,3.202,5.562,7.513,6.181,12.13
				C270.677,87.574,269.892,91.882,267.831,95.707z"/>
			<path fill="#93D5DF" d="M231.551,95.426c-1.092-2.103-1.806-4.364-2.12-6.722c-0.525-3.926,0.083-7.884,1.77-11.456
				c1.629-3.46,4.188-6.395,7.396-8.477l11.094,17.08c-0.027,0.015-0.087,0.06-0.075,0.153c0.004,0.029,0.018,0.038,0.019,0.043
				L231.551,95.426z"/>
			<path fill="#53ACB0" d="M249.693,85.851l-10.699-17.328c2.464-1.524,5.17-2.494,8.054-2.879c1.399-0.188,2.825-0.228,4.226-0.125
				l-1.488,20.307c-0.007,0.001-0.021,0.003-0.038,0.005C249.705,85.835,249.698,85.845,249.693,85.851z"/>
		</g>
		<g>
			<g>
				<path fill="#F4F5F5" d="M217.736,90.268c1.504,11.248-6.4,21.593-17.651,23.098c-11.248,1.504-21.589-6.4-23.094-17.646
					c-1.505-11.255,6.396-21.593,17.646-23.098C205.886,71.116,216.23,79.014,217.736,90.268z"/>
				<path fill="#93D5DF" d="M200.096,113.443L200.096,113.443c-3.529,0.472-7.133,0.023-10.427-1.303l7.183-17.845
					c0.22,0.087,0.446,0.11,0.692,0.077c0.15-0.02,0.293-0.055,0.429-0.123l8.354,17.336
					C204.358,112.526,202.261,113.154,200.096,113.443z"/>
				<path fill="#7CA78C" d="M189.506,112.076c-3.284-1.354-6.184-3.545-8.382-6.345c-2.269-2.887-3.729-6.346-4.219-10.001
					c-0.182-1.354-0.226-2.726-0.141-4.074l19.201,1.233c-0.01,0.091-0.004,0.186,0.011,0.29c0.1,0.745,0.682,1.039,0.853,1.112
					L189.506,112.076z"/>
				<path fill="#B9CBC0" d="M195.965,92.878l-19.188-1.401c0.42-5.756,3.269-11.123,7.817-14.705l11.913,15.109
					C196.194,92.129,195.994,92.496,195.965,92.878z"/>
				<path fill="#53ACB0" d="M198.132,91.827c-0.286-0.194-0.611-0.269-0.957-0.223c-0.253,0.034-0.469,0.121-0.668,0.275
					l-11.772-15.213c2.865-2.22,6.286-3.651,9.891-4.134c4.979-0.666,10.017,0.503,14.188,3.291L198.132,91.827z"/>
				<path fill="#CE4F27" d="M217.803,90.148c-0.006-0.036-0.01-0.07-0.019-0.11l0,0c-0.419-2.914-1.433-5.641-3.009-8.124
					c-1.517-2.386-3.479-4.407-5.822-6l-10.81,15.918c0.233,0.159,0.526,0.454,0.604,0.954l0.003,0.021
					c0.092,0.688-0.32,1.219-0.769,1.44l8.494,17.259c7.961-3.915,12.516-12.459,11.341-21.25l-0.005-0.034h-0.003
					C217.81,90.202,217.807,90.172,217.803,90.148z"/>
			</g>
			<path fill="#F4F5F5" d="M212.217,91.006c1.097,8.198-4.666,15.741-12.869,16.838c-8.206,1.098-15.75-4.666-16.848-12.863
				c-1.097-8.208,4.668-15.746,12.874-16.844C203.578,77.04,211.118,82.798,212.217,91.006z"/>
		</g>
		<g>
			
				<rect x="189.088" y="120.337" transform="matrix(-0.9912 0.1326 -0.1326 -0.9912 396.0563 217.6853)" fill="#CE4F27" width="3.384" height="3.383"/>
			
				<rect x="190.026" y="127.361" transform="matrix(-0.9912 0.1327 -0.1327 -0.9912 398.8697 231.5275)" fill="#53ACB0" width="3.384" height="3.394"/>
			
				<rect x="190.964" y="134.387" transform="matrix(-0.9912 0.1327 -0.1327 -0.9912 401.6672 245.3927)" fill="#B9CBC0" width="3.385" height="3.385"/>
			
				<rect x="191.903" y="141.403" transform="matrix(-0.9912 0.1327 -0.1327 -0.9912 404.4682 259.2451)" fill="#7CA78C" width="3.385" height="3.393"/>
			<g>
				<path fill="#F4F5F5" d="M195.412,120.014l0.273-0.037l0.253,1.896l0.912-0.123l0.03,0.232l-1.186,0.159L195.412,120.014z"/>
				<path fill="#F4F5F5" d="M198.419,120.99c0.075,0.563-0.295,0.867-0.656,0.915c-0.41,0.055-0.771-0.207-0.836-0.693
					c-0.068-0.508,0.228-0.851,0.646-0.906C198.01,120.246,198.356,120.523,198.419,120.99z M197.209,121.168
					c0.045,0.334,0.262,0.559,0.54,0.522c0.259-0.035,0.429-0.311,0.382-0.657c-0.033-0.254-0.216-0.566-0.54-0.522
					C197.267,120.555,197.17,120.876,197.209,121.168z"/>
				<path fill="#F4F5F5" d="M198.728,120.667c-0.024-0.181-0.048-0.334-0.077-0.476l0.244-0.033l0.052,0.305l0.011-0.001
					c0.037-0.214,0.2-0.37,0.379-0.394c0.029-0.004,0.052-0.007,0.08-0.005l0.036,0.263c-0.034-0.003-0.059,0-0.095,0.005
					c-0.202,0.027-0.319,0.193-0.334,0.41c0.005,0.036,0.004,0.082,0.009,0.123l0.109,0.817l-0.274,0.037L198.728,120.667z"/>
				<path fill="#F4F5F5" d="M199.925,120.849c0.06,0.376,0.318,0.501,0.596,0.464c0.198-0.026,0.324-0.077,0.415-0.135l0.082,0.191
					c-0.097,0.057-0.259,0.135-0.503,0.168c-0.474,0.063-0.797-0.217-0.857-0.674c-0.062-0.463,0.164-0.859,0.604-0.918
					c0.504-0.067,0.695,0.351,0.732,0.63c0.008,0.06,0.01,0.098,0.007,0.129L199.925,120.849z M200.714,120.538
					c-0.021-0.167-0.133-0.436-0.444-0.394c-0.283,0.038-0.37,0.313-0.362,0.501L200.714,120.538z"/>
				<path fill="#F4F5F5" d="M201.299,120.257c-0.021-0.161-0.044-0.284-0.068-0.411l0.245-0.033l0.048,0.245l0.007-0.001
					c0.068-0.152,0.189-0.307,0.446-0.342c0.209-0.028,0.384,0.075,0.466,0.25l0.007-0.001c0.039-0.095,0.095-0.17,0.153-0.228
					c0.084-0.08,0.174-0.128,0.317-0.147c0.203-0.027,0.526,0.069,0.597,0.595l0.12,0.896l-0.276,0.037l-0.115-0.858
					c-0.04-0.303-0.168-0.463-0.388-0.434c-0.166,0.022-0.27,0.155-0.302,0.294c-0.007,0.043-0.011,0.094-0.002,0.148l0.125,0.94
					l-0.27,0.036l-0.123-0.917c-0.033-0.243-0.165-0.403-0.377-0.375c-0.169,0.023-0.28,0.18-0.305,0.325
					c-0.013,0.046-0.009,0.097-0.003,0.142l0.123,0.917l-0.274,0.037L201.299,120.257z"/>
				<path fill="#F4F5F5" d="M205.471,118.845c0.012,0.096-0.047,0.177-0.155,0.191c-0.103,0.014-0.179-0.049-0.192-0.145
					c-0.013-0.096,0.044-0.182,0.149-0.196C205.375,118.682,205.458,118.744,205.471,118.845z M205.421,120.842l-0.204-1.529
					l0.281-0.037l0.205,1.528L205.421,120.842z"/>
				<path fill="#F4F5F5" d="M206.024,119.72c-0.026-0.198-0.06-0.356-0.078-0.504l0.245-0.033l0.05,0.26h0.003
					c0.086-0.205,0.261-0.333,0.505-0.366c0.375-0.05,0.694,0.225,0.757,0.688c0.073,0.547-0.229,0.867-0.59,0.915
					c-0.196,0.026-0.387-0.042-0.5-0.181h-0.004l0.111,0.83l-0.277,0.037L206.024,119.72z M206.354,120.081
					c0.006,0.044,0.012,0.088,0.022,0.116c0.076,0.186,0.267,0.296,0.461,0.271c0.296-0.039,0.435-0.304,0.389-0.65
					c-0.041-0.308-0.239-0.55-0.535-0.51c-0.188,0.025-0.342,0.184-0.372,0.396c-0.006,0.04-0.005,0.082-0.001,0.112
					L206.354,120.081z"/>
				<path fill="#F4F5F5" d="M207.883,120.229c0.094,0.035,0.239,0.074,0.385,0.055c0.197-0.027,0.282-0.137,0.266-0.265
					c-0.018-0.132-0.113-0.188-0.322-0.239c-0.291-0.066-0.439-0.197-0.464-0.377c-0.033-0.249,0.143-0.478,0.467-0.521
					c0.158-0.021,0.293,0.003,0.387,0.042l-0.044,0.215c-0.063-0.034-0.179-0.074-0.322-0.054c-0.163,0.021-0.24,0.129-0.226,0.249
					c0.018,0.125,0.114,0.168,0.324,0.219c0.272,0.067,0.432,0.176,0.461,0.408c0.037,0.274-0.144,0.489-0.509,0.538
					c-0.163,0.022-0.326,0-0.443-0.053L207.883,120.229z"/>
				<path fill="#F4F5F5" d="M210.431,119.749c0.021,0.156,0.039,0.294,0.07,0.414l-0.25,0.033l-0.047-0.244h-0.007
					c-0.052,0.128-0.193,0.316-0.47,0.353c-0.241,0.033-0.54-0.063-0.613-0.605l-0.119-0.891l0.274-0.037l0.112,0.845
					c0.039,0.29,0.159,0.477,0.411,0.443c0.186-0.025,0.294-0.172,0.327-0.301c0.009-0.046,0.018-0.094,0.009-0.152l-0.125-0.934
					l0.277-0.037L210.431,119.749z"/>
				<path fill="#F4F5F5" d="M210.796,118.988c-0.021-0.161-0.039-0.285-0.065-0.412l0.244-0.033l0.04,0.246l0.015-0.001
					c0.064-0.152,0.19-0.308,0.446-0.342c0.202-0.027,0.381,0.075,0.468,0.25l0.01-0.001c0.031-0.094,0.087-0.169,0.143-0.227
					c0.085-0.079,0.178-0.128,0.324-0.148c0.206-0.027,0.527,0.069,0.598,0.596l0.12,0.895l-0.274,0.037l-0.116-0.858
					c-0.04-0.303-0.178-0.462-0.396-0.433c-0.162,0.022-0.27,0.155-0.297,0.294c-0.01,0.043-0.011,0.093-0.002,0.149l0.126,0.939
					l-0.275,0.037l-0.123-0.917c-0.033-0.244-0.159-0.404-0.377-0.375c-0.169,0.022-0.28,0.18-0.304,0.325
					c-0.011,0.045-0.012,0.097-0.004,0.142l0.123,0.918l-0.274,0.036L210.796,118.988z"/>
			</g>
			<g>
				<path fill="#F4F5F5" d="M196.35,127.031l0.272-0.037l0.253,1.898l0.913-0.123l0.033,0.24l-1.187,0.157L196.35,127.031z"/>
				<path fill="#F4F5F5" d="M199.357,128.007c0.077,0.569-0.294,0.867-0.656,0.915c-0.411,0.055-0.771-0.207-0.836-0.69
					c-0.067-0.506,0.228-0.853,0.646-0.908C198.949,127.265,199.296,127.546,199.357,128.007z M198.148,128.188
					c0.044,0.333,0.261,0.564,0.54,0.527c0.259-0.035,0.427-0.313,0.381-0.659c-0.035-0.261-0.214-0.564-0.539-0.52
					C198.206,127.579,198.11,127.902,198.148,128.188z"/>
				<path fill="#F4F5F5" d="M199.667,127.688c-0.023-0.184-0.047-0.333-0.077-0.478l0.244-0.033l0.051,0.302l0.012-0.001
					c0.037-0.218,0.201-0.367,0.38-0.391c0.03-0.003,0.051-0.003,0.081-0.007l0.035,0.262c-0.032,0.004-0.059,0.007-0.094,0.012
					c-0.201,0.027-0.32,0.186-0.335,0.403c0.005,0.037,0.003,0.089,0.011,0.133l0.108,0.818l-0.273,0.036L199.667,127.688z"/>
				<path fill="#F4F5F5" d="M200.865,127.871c0.058,0.378,0.316,0.495,0.594,0.458c0.199-0.026,0.324-0.078,0.415-0.136l0.082,0.193
					c-0.095,0.057-0.259,0.135-0.503,0.167c-0.472,0.063-0.794-0.213-0.856-0.676c-0.063-0.461,0.164-0.855,0.604-0.914
					c0.504-0.068,0.695,0.35,0.733,0.629c0.009,0.061,0.011,0.104,0.007,0.134L200.865,127.871z M201.653,127.563
					c-0.023-0.175-0.133-0.436-0.445-0.394c-0.283,0.038-0.37,0.309-0.362,0.501L201.653,127.563z"/>
				<path fill="#F4F5F5" d="M202.237,127.273c-0.021-0.155-0.044-0.28-0.068-0.407l0.245-0.033l0.048,0.251h0.009
					c0.066-0.157,0.188-0.315,0.443-0.35c0.21-0.028,0.384,0.076,0.467,0.253l0.008-0.001c0.037-0.097,0.096-0.167,0.152-0.224
					c0.085-0.079,0.174-0.136,0.317-0.155c0.203-0.027,0.525,0.067,0.596,0.594l0.121,0.904l-0.276,0.038l-0.116-0.871
					c-0.039-0.296-0.167-0.453-0.388-0.423c-0.166,0.022-0.269,0.154-0.303,0.293c-0.006,0.04-0.009,0.09-0.002,0.142l0.127,0.95
					l-0.27,0.036l-0.124-0.924c-0.032-0.242-0.164-0.398-0.376-0.37c-0.17,0.023-0.281,0.177-0.308,0.32
					c-0.012,0.043-0.009,0.095-0.002,0.142l0.123,0.924l-0.273,0.037L202.237,127.273z"/>
				<path fill="#F4F5F5" d="M206.409,125.86c0.013,0.098-0.045,0.186-0.153,0.2c-0.102,0.014-0.181-0.056-0.192-0.154
					c-0.012-0.092,0.046-0.18,0.149-0.194C206.313,125.699,206.396,125.761,206.409,125.86z M206.361,127.868l-0.205-1.535
					l0.281-0.038l0.206,1.535L206.361,127.868z"/>
				<path fill="#F4F5F5" d="M206.962,126.734c-0.026-0.197-0.058-0.354-0.078-0.499l0.246-0.033l0.051,0.263h0.003
					c0.087-0.201,0.26-0.336,0.504-0.369c0.375-0.05,0.694,0.229,0.757,0.688c0.073,0.546-0.229,0.865-0.59,0.914
					c-0.198,0.026-0.387-0.035-0.5-0.181h-0.005l0.111,0.836l-0.277,0.038L206.962,126.734z M207.294,127.104
					c0.004,0.038,0.012,0.081,0.023,0.115c0.076,0.181,0.266,0.292,0.461,0.266c0.296-0.04,0.435-0.298,0.388-0.65
					c-0.041-0.303-0.237-0.541-0.534-0.501c-0.187,0.025-0.343,0.175-0.371,0.396c-0.007,0.035-0.006,0.076-0.002,0.109
					L207.294,127.104z"/>
				<path fill="#F4F5F5" d="M208.822,127.249c0.092,0.034,0.24,0.079,0.385,0.059c0.198-0.026,0.283-0.139,0.266-0.272
					c-0.019-0.131-0.113-0.187-0.323-0.239c-0.29-0.06-0.439-0.192-0.464-0.375c-0.033-0.245,0.142-0.478,0.466-0.521
					c0.158-0.021,0.294,0.005,0.388,0.049l-0.046,0.206c-0.063-0.029-0.177-0.068-0.322-0.048c-0.162,0.021-0.239,0.129-0.224,0.246
					c0.016,0.119,0.114,0.169,0.323,0.221c0.271,0.063,0.432,0.178,0.462,0.403c0.036,0.272-0.145,0.489-0.509,0.538
					c-0.162,0.022-0.326,0-0.442-0.051L208.822,127.249z"/>
				<path fill="#F4F5F5" d="M211.369,126.763c0.022,0.165,0.04,0.298,0.072,0.425l-0.249,0.033l-0.049-0.253h-0.007
					c-0.053,0.136-0.192,0.316-0.471,0.353c-0.241,0.032-0.54-0.063-0.61-0.597l-0.121-0.897l0.272-0.037l0.114,0.849
					c0.038,0.286,0.158,0.471,0.41,0.437c0.184-0.025,0.294-0.168,0.326-0.301c0.01-0.04,0.019-0.096,0.011-0.146l-0.125-0.937
					l0.276-0.037L211.369,126.763z"/>
				<path fill="#F4F5F5" d="M211.734,126.002c-0.021-0.155-0.038-0.281-0.065-0.407l0.245-0.032l0.041,0.252l0.015-0.002
					c0.063-0.157,0.189-0.315,0.444-0.349c0.202-0.027,0.381,0.076,0.467,0.253l0.012-0.002c0.031-0.096,0.088-0.166,0.142-0.223
					c0.085-0.079,0.177-0.136,0.324-0.156c0.206-0.027,0.525,0.067,0.597,0.594l0.122,0.905l-0.273,0.037l-0.117-0.871
					c-0.04-0.295-0.178-0.451-0.396-0.422c-0.162,0.022-0.269,0.155-0.297,0.292c-0.01,0.041-0.01,0.09-0.003,0.142l0.127,0.949
					l-0.273,0.037l-0.124-0.924c-0.032-0.242-0.158-0.399-0.376-0.37c-0.17,0.022-0.28,0.177-0.305,0.319
					c-0.01,0.043-0.01,0.095-0.004,0.142l0.124,0.924l-0.272,0.037L211.734,126.002z"/>
			</g>
			<g>
				<path fill="#F4F5F5" d="M197.289,134.055l0.274-0.037l0.254,1.898l0.913-0.122l0.031,0.231l-1.187,0.158L197.289,134.055z"/>
				<path fill="#F4F5F5" d="M200.296,135.027c0.075,0.566-0.294,0.871-0.655,0.92c-0.411,0.054-0.771-0.209-0.835-0.69
					c-0.069-0.514,0.227-0.856,0.644-0.913C199.888,134.285,200.233,134.563,200.296,135.027z M199.086,135.205
					c0.046,0.34,0.264,0.564,0.541,0.527c0.26-0.035,0.429-0.312,0.382-0.657c-0.033-0.257-0.215-0.563-0.538-0.521
					C199.145,134.598,199.048,134.917,199.086,135.205z"/>
				<path fill="#F4F5F5" d="M200.604,134.702c-0.023-0.175-0.047-0.33-0.077-0.47l0.245-0.032l0.051,0.299l0.011-0.001
					c0.038-0.212,0.201-0.368,0.38-0.393c0.029-0.004,0.052-0.002,0.081,0l0.035,0.26c-0.033-0.002-0.059,0-0.094,0.006
					c-0.203,0.027-0.321,0.191-0.335,0.404c0.005,0.037,0.004,0.088,0.01,0.137l0.109,0.811l-0.273,0.037L200.604,134.702z"/>
				<path fill="#F4F5F5" d="M201.804,134.893c0.058,0.373,0.315,0.494,0.593,0.457c0.199-0.027,0.325-0.076,0.416-0.134l0.081,0.188
					c-0.097,0.062-0.258,0.142-0.503,0.174c-0.472,0.063-0.795-0.217-0.856-0.678c-0.062-0.459,0.163-0.858,0.604-0.918
					c0.505-0.066,0.695,0.354,0.733,0.635c0.007,0.056,0.01,0.098,0.007,0.131L201.804,134.893z M202.592,134.581
					c-0.022-0.169-0.133-0.44-0.445-0.399c-0.282,0.039-0.37,0.317-0.362,0.508L202.592,134.581z"/>
				<path fill="#F4F5F5" d="M203.177,134.297c-0.021-0.16-0.045-0.283-0.068-0.408l0.245-0.033l0.048,0.248h0.008
					c0.066-0.16,0.188-0.315,0.444-0.35c0.21-0.027,0.385,0.075,0.466,0.249l0.008-0.001c0.039-0.096,0.095-0.167,0.153-0.223
					c0.085-0.08,0.174-0.133,0.317-0.151c0.203-0.026,0.524,0.063,0.597,0.597l0.121,0.898l-0.277,0.037l-0.116-0.859
					c-0.039-0.299-0.167-0.46-0.388-0.431c-0.166,0.022-0.269,0.155-0.302,0.293c-0.005,0.043-0.01,0.094-0.003,0.142l0.126,0.946
					l-0.271,0.037l-0.123-0.916c-0.032-0.243-0.164-0.404-0.376-0.376c-0.17,0.023-0.281,0.18-0.307,0.322
					c-0.013,0.043-0.01,0.09-0.003,0.14l0.123,0.921l-0.275,0.037L203.177,134.297z"/>
				<path fill="#F4F5F5" d="M207.349,132.883c0.011,0.09-0.046,0.178-0.155,0.193c-0.101,0.014-0.18-0.057-0.191-0.146
					c-0.013-0.096,0.044-0.185,0.149-0.197C207.252,132.719,207.336,132.787,207.349,132.883z M207.3,134.883l-0.204-1.527
					l0.28-0.039l0.204,1.529L207.3,134.883z"/>
				<path fill="#F4F5F5" d="M207.901,133.753c-0.026-0.196-0.058-0.351-0.077-0.496l0.246-0.032l0.048,0.256h0.004
					c0.087-0.199,0.261-0.332,0.505-0.365c0.375-0.051,0.695,0.227,0.758,0.688c0.073,0.551-0.229,0.871-0.59,0.92
					c-0.197,0.025-0.387-0.043-0.501-0.182l-0.004,0.001l0.11,0.827l-0.277,0.037L207.901,133.753z M208.232,134.122
					c0.006,0.042,0.011,0.077,0.022,0.114c0.077,0.188,0.268,0.293,0.461,0.267c0.296-0.04,0.436-0.299,0.388-0.653
					c-0.041-0.304-0.237-0.541-0.534-0.5c-0.188,0.023-0.342,0.182-0.372,0.396c-0.005,0.038-0.004,0.082,0,0.118L208.232,134.122z"
					/>
				<path fill="#F4F5F5" d="M209.761,134.27c0.093,0.037,0.239,0.076,0.384,0.057c0.199-0.026,0.283-0.139,0.266-0.266
					c-0.018-0.133-0.114-0.193-0.323-0.24c-0.291-0.068-0.439-0.193-0.464-0.377c-0.034-0.248,0.143-0.479,0.466-0.523
					c0.158-0.021,0.293,0.003,0.388,0.044l-0.044,0.214c-0.064-0.035-0.179-0.07-0.322-0.052c-0.163,0.022-0.24,0.127-0.225,0.245
					c0.018,0.128,0.113,0.17,0.323,0.223c0.272,0.063,0.432,0.176,0.462,0.407c0.035,0.265-0.144,0.489-0.508,0.538
					c-0.163,0.021-0.327-0.008-0.442-0.053L209.761,134.27z"/>
				<path fill="#F4F5F5" d="M212.309,133.781c0.021,0.162,0.04,0.304,0.07,0.423l-0.249,0.032l-0.049-0.254l-0.007,0.002
					c-0.051,0.139-0.19,0.324-0.469,0.361c-0.241,0.032-0.541-0.07-0.613-0.604l-0.119-0.893l0.273-0.037l0.111,0.842
					c0.04,0.293,0.16,0.48,0.412,0.447c0.185-0.025,0.293-0.177,0.324-0.311c0.01-0.036,0.02-0.088,0.012-0.145l-0.125-0.933
					l0.277-0.036L212.309,133.781z"/>
				<path fill="#F4F5F5" d="M212.674,133.027c-0.021-0.162-0.037-0.287-0.065-0.41l0.245-0.032l0.041,0.249l0.013-0.001
					c0.063-0.159,0.189-0.315,0.445-0.349c0.202-0.027,0.381,0.074,0.467,0.248l0.01-0.002c0.032-0.094,0.088-0.164,0.145-0.219
					c0.085-0.08,0.176-0.135,0.323-0.154c0.206-0.026,0.526,0.063,0.598,0.597l0.12,0.899l-0.274,0.037l-0.114-0.861
					c-0.041-0.299-0.179-0.459-0.396-0.43c-0.163,0.022-0.269,0.155-0.297,0.293c-0.011,0.043-0.011,0.094-0.003,0.143l0.125,0.945
					l-0.273,0.037l-0.123-0.916c-0.032-0.244-0.159-0.404-0.376-0.375c-0.169,0.022-0.281,0.178-0.304,0.321
					c-0.01,0.042-0.013,0.091-0.004,0.14l0.123,0.92l-0.273,0.037L212.674,133.027z"/>
			</g>
			<g>
				<path fill="#F4F5F5" d="M198.229,141.077l0.273-0.037l0.253,1.896l0.912-0.121l0.031,0.224l-1.187,0.159L198.229,141.077z"/>
				<path fill="#F4F5F5" d="M201.236,142.048c0.075,0.562-0.295,0.867-0.657,0.916c-0.41,0.056-0.771-0.207-0.836-0.694
					c-0.068-0.51,0.229-0.851,0.646-0.906C200.827,141.305,201.173,141.583,201.236,142.048z M200.026,142.229
					c0.044,0.334,0.261,0.559,0.539,0.521c0.259-0.035,0.428-0.31,0.383-0.649c-0.035-0.263-0.216-0.568-0.54-0.525
					S199.987,141.938,200.026,142.229z"/>
				<path fill="#F4F5F5" d="M201.544,141.729c-0.023-0.183-0.048-0.336-0.078-0.477l0.244-0.033l0.052,0.299h0.012
					c0.036-0.219,0.201-0.367,0.38-0.391c0.03-0.004,0.051-0.007,0.08-0.005l0.036,0.263c-0.034-0.003-0.061,0-0.095,0.006
					c-0.202,0.025-0.32,0.189-0.335,0.409c0.007,0.036,0.005,0.082,0.011,0.128l0.106,0.809l-0.272,0.037L201.544,141.729z"/>
				<path fill="#F4F5F5" d="M202.742,141.908c0.058,0.373,0.316,0.498,0.594,0.461c0.198-0.025,0.323-0.08,0.415-0.135l0.082,0.195
					c-0.096,0.055-0.258,0.135-0.503,0.166c-0.472,0.063-0.795-0.215-0.857-0.677c-0.062-0.46,0.165-0.854,0.604-0.914
					c0.504-0.067,0.696,0.353,0.733,0.632c0.007,0.053,0.01,0.096,0.006,0.129L202.742,141.908z M203.53,141.596
					c-0.022-0.168-0.132-0.432-0.444-0.39c-0.282,0.038-0.37,0.31-0.362,0.498L203.53,141.596z"/>
				<path fill="#F4F5F5" d="M204.116,141.316c-0.021-0.16-0.044-0.285-0.068-0.41l0.244-0.031l0.048,0.245l0.008-0.001
					c0.067-0.154,0.188-0.311,0.445-0.344c0.209-0.028,0.385,0.074,0.467,0.244l0.006-0.002c0.04-0.09,0.097-0.158,0.154-0.215
					c0.084-0.084,0.174-0.135,0.317-0.154c0.203-0.026,0.526,0.07,0.596,0.595l0.12,0.894l-0.275,0.037l-0.115-0.859
					c-0.04-0.295-0.167-0.457-0.389-0.428c-0.165,0.02-0.269,0.158-0.301,0.299c-0.006,0.043-0.011,0.09-0.003,0.145l0.125,0.936
					l-0.27,0.037l-0.122-0.914c-0.033-0.242-0.165-0.404-0.377-0.375c-0.17,0.021-0.28,0.182-0.306,0.325
					c-0.013,0.044-0.011,0.091-0.004,0.14l0.123,0.914l-0.273,0.037L204.116,141.316z"/>
				<path fill="#F4F5F5" d="M208.287,139.9c0.013,0.095-0.045,0.177-0.154,0.19c-0.102,0.015-0.18-0.05-0.192-0.146
					c-0.012-0.09,0.046-0.176,0.15-0.188C208.192,139.744,208.274,139.805,208.287,139.9z M208.238,141.896l-0.204-1.522
					l0.281-0.037l0.203,1.522L208.238,141.896z"/>
				<path fill="#F4F5F5" d="M208.839,140.771c-0.024-0.195-0.057-0.353-0.075-0.494l0.244-0.033l0.05,0.255h0.003
					c0.088-0.194,0.261-0.33,0.505-0.362c0.375-0.05,0.696,0.231,0.756,0.682c0.074,0.554-0.228,0.873-0.588,0.922
					c-0.198,0.027-0.388-0.043-0.501-0.184h-0.004l0.11,0.834l-0.276,0.037L208.839,140.771z M209.172,141.145
					c0.006,0.039,0.012,0.08,0.022,0.109c0.076,0.189,0.267,0.295,0.461,0.27c0.297-0.039,0.434-0.303,0.388-0.647
					c-0.041-0.306-0.238-0.55-0.535-0.51c-0.187,0.024-0.342,0.185-0.37,0.403c-0.008,0.028-0.006,0.074,0,0.112L209.172,141.145z"
					/>
				<path fill="#F4F5F5" d="M210.7,141.289c0.093,0.037,0.24,0.072,0.385,0.053c0.198-0.025,0.283-0.139,0.267-0.265
					c-0.019-0.132-0.113-0.187-0.324-0.243c-0.289-0.063-0.439-0.193-0.464-0.375c-0.032-0.249,0.143-0.477,0.467-0.52
					c0.158-0.021,0.293,0.004,0.387,0.047l-0.045,0.209c-0.063-0.032-0.177-0.064-0.321-0.045c-0.162,0.021-0.24,0.119-0.226,0.234
					c0.018,0.131,0.115,0.17,0.324,0.227c0.271,0.06,0.432,0.18,0.461,0.406c0.037,0.271-0.145,0.489-0.509,0.539
					c-0.162,0.021-0.326-0.002-0.443-0.054L210.7,141.289z"/>
				<path fill="#F4F5F5" d="M213.247,140.807c0.021,0.155,0.04,0.293,0.071,0.41l-0.249,0.034l-0.047-0.241h-0.007
					c-0.053,0.129-0.193,0.316-0.47,0.354c-0.241,0.033-0.542-0.07-0.612-0.604l-0.119-0.89l0.273-0.037l0.111,0.838
					c0.04,0.294,0.161,0.483,0.413,0.449c0.185-0.024,0.294-0.167,0.325-0.306c0.01-0.041,0.018-0.094,0.011-0.146l-0.125-0.934
					l0.277-0.037L213.247,140.807z"/>
				<path fill="#F4F5F5" d="M213.612,140.046c-0.021-0.157-0.039-0.284-0.065-0.409l0.245-0.033l0.04,0.246l0.016-0.002
					c0.063-0.154,0.189-0.31,0.444-0.344c0.202-0.027,0.381,0.075,0.466,0.244l0.012-0.001c0.031-0.089,0.089-0.157,0.143-0.213
					c0.084-0.085,0.177-0.136,0.325-0.155c0.206-0.027,0.526,0.068,0.596,0.594l0.12,0.895l-0.273,0.035l-0.115-0.858
					c-0.039-0.295-0.178-0.457-0.396-0.427c-0.162,0.021-0.268,0.158-0.296,0.299c-0.009,0.044-0.01,0.09-0.003,0.145l0.125,0.935
					l-0.273,0.036l-0.123-0.913c-0.032-0.241-0.159-0.403-0.377-0.375c-0.17,0.022-0.28,0.183-0.304,0.327
					c-0.009,0.043-0.011,0.091-0.005,0.14l0.123,0.914l-0.273,0.037L213.612,140.046z"/>
			</g>
			
				<rect x="192.896" y="148.819" transform="matrix(-0.9912 0.1327 -0.1327 -0.9912 407.4297 273.8778)" fill="#93D5DF" width="3.385" height="3.391"/>
			<g>
				<path fill="#F4F5F5" d="M199.221,148.497l0.272-0.036l0.254,1.898l0.912-0.123l0.031,0.232l-1.188,0.157L199.221,148.497z"/>
				<path fill="#F4F5F5" d="M202.229,149.473c0.075,0.562-0.295,0.865-0.657,0.914c-0.41,0.055-0.771-0.205-0.835-0.689
					c-0.068-0.51,0.227-0.854,0.645-0.908C201.819,148.729,202.166,149.004,202.229,149.473z M201.02,149.652
					c0.044,0.332,0.261,0.558,0.539,0.521c0.259-0.034,0.429-0.308,0.382-0.653c-0.034-0.258-0.216-0.568-0.54-0.524
					C201.077,149.038,200.98,149.359,201.02,149.652z"/>
				<path fill="#F4F5F5" d="M202.537,149.15c-0.023-0.182-0.047-0.334-0.078-0.477l0.245-0.031l0.05,0.299l0.013-0.002
					c0.038-0.213,0.201-0.364,0.381-0.389c0.028-0.004,0.05-0.007,0.08-0.003l0.034,0.257c-0.033,0-0.06,0.002-0.094,0.008
					c-0.203,0.026-0.32,0.188-0.336,0.402c0.006,0.043,0.005,0.094,0.011,0.135l0.109,0.814l-0.273,0.035L202.537,149.15z"/>
				<path fill="#F4F5F5" d="M203.735,149.332c0.058,0.374,0.318,0.502,0.595,0.465c0.198-0.027,0.323-0.084,0.414-0.141l0.082,0.195
					c-0.096,0.055-0.258,0.133-0.503,0.166c-0.472,0.063-0.795-0.215-0.857-0.676c-0.061-0.453,0.164-0.855,0.604-0.914
					c0.504-0.068,0.695,0.344,0.733,0.631c0.008,0.062,0.01,0.096,0.006,0.129L203.735,149.332z M204.524,149.027
					c-0.023-0.178-0.132-0.438-0.445-0.396c-0.283,0.038-0.371,0.309-0.362,0.506L204.524,149.027z"/>
				<path fill="#F4F5F5" d="M205.11,148.746c-0.022-0.164-0.046-0.291-0.07-0.416l0.244-0.033l0.049,0.247l0.007-0.001
					c0.067-0.156,0.189-0.311,0.445-0.346c0.209-0.027,0.385,0.08,0.466,0.25l0.008-0.002c0.038-0.094,0.096-0.164,0.153-0.219
					c0.084-0.086,0.173-0.135,0.318-0.154c0.202-0.026,0.524,0.066,0.596,0.595l0.12,0.897l-0.276,0.037l-0.114-0.861
					c-0.04-0.299-0.167-0.453-0.388-0.424c-0.166,0.021-0.269,0.154-0.303,0.285c-0.005,0.049-0.009,0.096-0.003,0.144l0.126,0.948
					l-0.271,0.035l-0.122-0.916c-0.032-0.244-0.163-0.397-0.375-0.369c-0.171,0.022-0.281,0.179-0.307,0.322
					c-0.014,0.041-0.01,0.092-0.004,0.137l0.123,0.918l-0.275,0.035L205.11,148.746z"/>
				<path fill="#F4F5F5" d="M209.28,147.325c0.012,0.093-0.045,0.18-0.154,0.194c-0.102,0.014-0.18-0.056-0.191-0.148
					c-0.015-0.1,0.045-0.18,0.149-0.193C209.185,147.165,209.267,147.225,209.28,147.325z M209.231,149.325l-0.205-1.529
					l0.282-0.037l0.205,1.528L209.231,149.325z"/>
				<path fill="#F4F5F5" d="M209.833,148.203c-0.026-0.204-0.059-0.359-0.078-0.504l0.245-0.032l0.049,0.257h0.005
					c0.088-0.197,0.261-0.33,0.506-0.363c0.375-0.051,0.694,0.229,0.757,0.689c0.072,0.544-0.229,0.863-0.59,0.912
					c-0.198,0.027-0.389-0.042-0.501-0.182l-0.004,0.002l0.11,0.83l-0.276,0.037L209.833,148.203z M210.164,148.563
					c0.006,0.049,0.012,0.086,0.024,0.125c0.076,0.181,0.266,0.291,0.461,0.266c0.296-0.04,0.434-0.303,0.386-0.659
					c-0.04-0.296-0.238-0.545-0.534-0.505c-0.188,0.025-0.342,0.188-0.372,0.404c-0.006,0.033-0.006,0.074,0,0.109L210.164,148.563z
					"/>
				<path fill="#F4F5F5" d="M211.692,148.71c0.093,0.039,0.24,0.076,0.385,0.056c0.199-0.025,0.283-0.139,0.267-0.267
					c-0.019-0.131-0.114-0.188-0.322-0.235c-0.291-0.068-0.44-0.199-0.465-0.381c-0.033-0.248,0.142-0.477,0.467-0.52
					c0.157-0.02,0.293,0.004,0.386,0.049l-0.044,0.209c-0.063-0.03-0.178-0.07-0.322-0.051c-0.163,0.021-0.24,0.125-0.226,0.242
					c0.018,0.127,0.115,0.172,0.324,0.221c0.272,0.07,0.432,0.186,0.462,0.408c0.036,0.269-0.146,0.488-0.509,0.537
					c-0.163,0.022-0.326,0.002-0.443-0.051L211.692,148.71z"/>
				<path fill="#F4F5F5" d="M214.24,148.229c0.022,0.166,0.04,0.297,0.071,0.418l-0.249,0.033l-0.048-0.248l-0.008,0.002
					c-0.053,0.127-0.191,0.315-0.47,0.353c-0.241,0.032-0.541-0.065-0.612-0.599l-0.119-0.896l0.273-0.037l0.112,0.841
					c0.039,0.293,0.159,0.479,0.412,0.444c0.184-0.024,0.294-0.166,0.325-0.308c0.01-0.039,0.019-0.088,0.011-0.144l-0.125-0.933
					l0.276-0.037L214.24,148.229z"/>
				<path fill="#F4F5F5" d="M214.606,147.475c-0.022-0.162-0.039-0.291-0.066-0.416l0.244-0.033l0.041,0.248l0.014-0.002
					c0.064-0.156,0.19-0.31,0.445-0.344c0.203-0.027,0.382,0.079,0.467,0.248l0.011-0.001c0.031-0.095,0.089-0.163,0.143-0.219
					c0.084-0.084,0.178-0.134,0.324-0.153c0.207-0.027,0.526,0.065,0.597,0.592l0.12,0.898l-0.274,0.037l-0.114-0.861
					c-0.04-0.3-0.179-0.453-0.396-0.424c-0.162,0.021-0.268,0.154-0.299,0.285c-0.008,0.049-0.009,0.096-0.003,0.143l0.127,0.948
					l-0.275,0.037l-0.122-0.917c-0.032-0.244-0.158-0.398-0.376-0.369c-0.169,0.021-0.28,0.18-0.304,0.323
					c-0.01,0.039-0.011,0.091-0.004,0.137l0.123,0.917l-0.274,0.037L214.606,147.475z"/>
			</g>
		</g>
		<g>
			
				<rect x="241.483" y="113.344" transform="matrix(-0.9912 0.1326 -0.1326 -0.9912 499.4648 196.8082)" fill="#CE4F27" width="3.391" height="3.383"/>
			
				<rect x="242.422" y="120.358" transform="matrix(-0.9912 0.1326 -0.1326 -0.9912 502.2644 210.6613)" fill="#53ACB0" width="3.391" height="3.394"/>
			
				<rect x="243.363" y="127.367" transform="matrix(-0.9912 0.1325 -0.1325 -0.9912 505.0542 224.5214)" fill="#B9CBC0" width="3.391" height="3.386"/>
			
				<rect x="244.296" y="134.397" transform="matrix(-0.9912 0.1325 -0.1325 -0.9912 507.8468 238.3928)" fill="#7CA78C" width="3.39" height="3.393"/>
			<g>
				<path fill="#F4F5F5" d="M247.813,113.005l0.281-0.037l0.253,1.896l0.907-0.122l0.031,0.232l-1.188,0.159L247.813,113.005z"/>
				<path fill="#F4F5F5" d="M250.82,113.981c0.076,0.564-0.288,0.866-0.652,0.915c-0.412,0.055-0.771-0.207-0.837-0.693
					c-0.067-0.508,0.231-0.851,0.648-0.907C250.419,113.236,250.758,113.515,250.82,113.981z M249.611,114.159
					c0.045,0.335,0.267,0.559,0.54,0.522c0.267-0.036,0.435-0.311,0.389-0.657c-0.033-0.254-0.214-0.566-0.539-0.523
					S249.572,113.867,249.611,114.159z"/>
				<path fill="#F4F5F5" d="M251.129,113.659c-0.023-0.182-0.044-0.335-0.073-0.476l0.24-0.033l0.057,0.305l0.01-0.001
					c0.042-0.214,0.197-0.369,0.377-0.394c0.032-0.004,0.055-0.007,0.081-0.004l0.035,0.262c-0.03-0.003-0.06,0-0.094,0.005
					c-0.195,0.026-0.32,0.193-0.326,0.409c-0.003,0.037,0,0.082,0.005,0.123l0.108,0.817l-0.276,0.038L251.129,113.659z"/>
				<path fill="#F4F5F5" d="M252.332,113.839c0.058,0.376,0.315,0.501,0.594,0.464c0.206-0.027,0.32-0.076,0.415-0.135l0.078,0.191
					c-0.09,0.057-0.255,0.135-0.5,0.167c-0.468,0.063-0.792-0.217-0.854-0.674c-0.062-0.463,0.16-0.858,0.606-0.918
					c0.501-0.067,0.689,0.351,0.729,0.631c0.007,0.06,0.005,0.099,0.009,0.129L252.332,113.839z M253.116,113.529
					c-0.016-0.168-0.132-0.436-0.441-0.395c-0.281,0.038-0.362,0.312-0.366,0.502L253.116,113.529z"/>
				<path fill="#F4F5F5" d="M253.702,113.249c-0.021-0.161-0.039-0.285-0.062-0.412l0.241-0.033l0.045,0.246l0.015-0.002
					c0.063-0.152,0.186-0.307,0.446-0.342c0.201-0.027,0.376,0.076,0.466,0.249l0.007-0.001c0.039-0.095,0.094-0.17,0.145-0.227
					c0.085-0.079,0.178-0.128,0.326-0.148c0.201-0.027,0.52,0.07,0.589,0.597l0.12,0.896l-0.27,0.036l-0.114-0.857
					c-0.041-0.303-0.173-0.463-0.393-0.434c-0.166,0.022-0.272,0.155-0.303,0.295c-0.009,0.043-0.009,0.093-0.001,0.148l0.126,0.939
					l-0.271,0.036l-0.123-0.917c-0.033-0.244-0.168-0.403-0.378-0.375c-0.173,0.023-0.28,0.18-0.309,0.326
					c-0.005,0.044-0.009,0.097-0.004,0.141l0.123,0.917l-0.273,0.037L253.702,113.249z"/>
				<path fill="#F4F5F5" d="M257.873,111.835c0.014,0.096-0.042,0.177-0.15,0.191c-0.103,0.014-0.184-0.048-0.196-0.145
					c-0.013-0.094,0.053-0.182,0.158-0.196C257.784,111.672,257.859,111.735,257.873,111.835z M257.824,113.833l-0.205-1.528
					l0.281-0.038l0.204,1.529L257.824,113.833z"/>
				<path fill="#F4F5F5" d="M258.43,112.71c-0.026-0.199-0.056-0.356-0.075-0.504l0.242-0.033l0.045,0.261l0.015-0.002
					c0.079-0.204,0.249-0.331,0.501-0.365c0.37-0.049,0.69,0.225,0.752,0.689c0.073,0.547-0.229,0.867-0.586,0.914
					c-0.206,0.028-0.394-0.04-0.504-0.18l-0.008,0.001l0.11,0.829l-0.272,0.037L258.43,112.71z M258.757,113.072
					c0.007,0.045,0.017,0.088,0.03,0.115c0.069,0.187,0.256,0.298,0.462,0.271c0.291-0.039,0.43-0.304,0.383-0.649
					c-0.042-0.308-0.235-0.551-0.53-0.511c-0.188,0.025-0.351,0.185-0.377,0.397c0,0.039-0.009,0.082-0.003,0.112L258.757,113.072z"
					/>
				<path fill="#F4F5F5" d="M260.288,113.219c0.09,0.036,0.242,0.074,0.382,0.056c0.203-0.027,0.283-0.137,0.267-0.265
					c-0.019-0.131-0.105-0.189-0.318-0.24c-0.291-0.065-0.445-0.195-0.469-0.376c-0.034-0.249,0.147-0.479,0.471-0.521
					c0.155-0.021,0.297,0.002,0.382,0.043l-0.037,0.214c-0.063-0.034-0.178-0.074-0.322-0.054c-0.166,0.022-0.239,0.129-0.225,0.248
					c0.018,0.125,0.111,0.169,0.323,0.22c0.273,0.067,0.427,0.176,0.458,0.408c0.037,0.274-0.15,0.49-0.508,0.538
					c-0.165,0.022-0.331,0-0.439-0.053L260.288,113.219z"/>
				<path fill="#F4F5F5" d="M262.837,112.739c0.021,0.157,0.04,0.294,0.069,0.415l-0.252,0.034l-0.04-0.246l-0.015,0.001
					c-0.054,0.128-0.192,0.316-0.462,0.352c-0.238,0.032-0.545-0.063-0.618-0.605l-0.119-0.891l0.273-0.037l0.114,0.845
					c0.039,0.289,0.162,0.476,0.404,0.444c0.19-0.025,0.302-0.173,0.336-0.302c0.009-0.046,0.011-0.094,0.003-0.151l-0.125-0.934
					l0.281-0.038L262.837,112.739z"/>
				<path fill="#F4F5F5" d="M263.206,111.978c-0.021-0.161-0.051-0.284-0.071-0.412l0.247-0.033l0.039,0.246l0.016-0.002
					c0.066-0.152,0.186-0.307,0.445-0.342c0.209-0.028,0.378,0.076,0.47,0.25l0.011-0.001c0.032-0.094,0.081-0.168,0.146-0.228
					c0.077-0.078,0.173-0.127,0.314-0.146c0.205-0.027,0.525,0.069,0.596,0.596l0.12,0.896l-0.273,0.037l-0.114-0.858
					c-0.04-0.303-0.176-0.462-0.393-0.433c-0.158,0.021-0.266,0.154-0.299,0.294c-0.012,0.044-0.013,0.094-0.005,0.149l0.125,0.94
					l-0.27,0.036l-0.123-0.917c-0.033-0.244-0.161-0.404-0.376-0.375c-0.167,0.022-0.277,0.18-0.306,0.325
					c-0.012,0.045-0.013,0.098-0.007,0.142l0.123,0.917l-0.266,0.036L263.206,111.978z"/>
			</g>
			<g>
				<path fill="#F4F5F5" d="M248.752,120.022l0.281-0.038l0.254,1.898l0.908-0.122l0.032,0.24l-1.189,0.159L248.752,120.022z"/>
				<path fill="#F4F5F5" d="M251.76,120.998c0.074,0.57-0.289,0.866-0.653,0.915c-0.412,0.055-0.772-0.207-0.837-0.69
					c-0.068-0.506,0.229-0.853,0.646-0.909C251.358,120.255,251.697,120.537,251.76,120.998z M250.55,121.178
					c0.046,0.333,0.268,0.564,0.541,0.527c0.268-0.036,0.436-0.313,0.39-0.659c-0.035-0.261-0.214-0.564-0.539-0.521
					S250.512,120.894,250.55,121.178z"/>
				<path fill="#F4F5F5" d="M252.069,120.679c-0.025-0.183-0.044-0.333-0.075-0.478l0.241-0.032l0.055,0.301l0.011-0.001
					c0.04-0.219,0.196-0.367,0.378-0.391c0.031-0.004,0.056-0.004,0.079-0.007l0.035,0.261c-0.028,0.004-0.058,0.008-0.093,0.013
					c-0.195,0.026-0.321,0.187-0.328,0.402c-0.002,0.038,0.001,0.089,0.007,0.134l0.11,0.817l-0.278,0.038L252.069,120.679z"/>
				<path fill="#F4F5F5" d="M253.271,120.862c0.057,0.377,0.314,0.496,0.593,0.458c0.206-0.027,0.32-0.077,0.415-0.136l0.078,0.193
					c-0.089,0.056-0.254,0.135-0.499,0.167c-0.469,0.063-0.792-0.213-0.854-0.676c-0.063-0.462,0.16-0.854,0.607-0.915
					c0.5-0.067,0.688,0.35,0.726,0.63c0.01,0.061,0.008,0.105,0.012,0.134L253.271,120.862z M254.056,120.554
					c-0.018-0.176-0.133-0.436-0.441-0.395c-0.282,0.038-0.364,0.307-0.367,0.502L254.056,120.554z"/>
				<path fill="#F4F5F5" d="M254.64,120.264c-0.021-0.155-0.038-0.281-0.063-0.408l0.242-0.032l0.044,0.252l0.016-0.002
					c0.063-0.156,0.186-0.314,0.444-0.349c0.202-0.027,0.376,0.077,0.467,0.253l0.008-0.001c0.038-0.097,0.095-0.167,0.146-0.224
					c0.085-0.079,0.176-0.135,0.326-0.155c0.201-0.027,0.519,0.068,0.588,0.595l0.122,0.905l-0.271,0.036l-0.115-0.871
					c-0.041-0.295-0.172-0.452-0.393-0.422c-0.166,0.021-0.271,0.155-0.302,0.293c-0.01,0.04-0.009,0.09-0.002,0.142l0.127,0.95
					l-0.271,0.036l-0.124-0.924c-0.031-0.242-0.167-0.398-0.376-0.37c-0.173,0.023-0.28,0.177-0.309,0.32
					c-0.005,0.043-0.01,0.095-0.004,0.142l0.124,0.924l-0.274,0.037L254.64,120.264z"/>
				<path fill="#F4F5F5" d="M258.812,118.851c0.013,0.098-0.042,0.185-0.15,0.2c-0.102,0.014-0.183-0.056-0.196-0.153
					c-0.013-0.092,0.054-0.181,0.157-0.195C258.723,118.689,258.798,118.752,258.812,118.851z M258.764,120.859l-0.206-1.536
					l0.281-0.037l0.205,1.535L258.764,120.859z"/>
				<path fill="#F4F5F5" d="M259.368,119.725c-0.027-0.198-0.056-0.354-0.074-0.5l0.242-0.032l0.045,0.264l0.016-0.002
					c0.08-0.2,0.249-0.334,0.501-0.368c0.371-0.05,0.69,0.229,0.752,0.688c0.072,0.546-0.23,0.865-0.586,0.913
					c-0.205,0.028-0.393-0.033-0.505-0.179h-0.008l0.112,0.837l-0.274,0.036L259.368,119.725z M259.695,120.094
					c0.006,0.038,0.016,0.081,0.031,0.115c0.066,0.182,0.256,0.292,0.46,0.266c0.292-0.04,0.43-0.298,0.383-0.649
					c-0.04-0.303-0.234-0.542-0.529-0.502c-0.187,0.025-0.351,0.176-0.377,0.396c-0.001,0.035-0.008,0.076-0.003,0.11
					L259.695,120.094z"/>
				<path fill="#F4F5F5" d="M261.227,120.24c0.09,0.035,0.243,0.078,0.383,0.059c0.203-0.027,0.282-0.139,0.265-0.272
					c-0.018-0.131-0.104-0.188-0.318-0.24c-0.291-0.06-0.444-0.192-0.469-0.374c-0.032-0.246,0.148-0.479,0.471-0.522
					c0.154-0.021,0.298,0.005,0.384,0.05l-0.039,0.205c-0.063-0.029-0.178-0.068-0.322-0.048c-0.166,0.022-0.239,0.128-0.224,0.246
					c0.016,0.119,0.109,0.169,0.323,0.221c0.271,0.063,0.427,0.178,0.457,0.403c0.035,0.271-0.151,0.49-0.509,0.537
					c-0.166,0.022-0.331,0.001-0.438-0.051L261.227,120.24z"/>
				<path fill="#F4F5F5" d="M263.775,119.754c0.021,0.165,0.04,0.298,0.071,0.425l-0.252,0.034l-0.042-0.255l-0.015,0.001
					c-0.051,0.136-0.192,0.316-0.462,0.352c-0.239,0.032-0.545-0.063-0.616-0.596l-0.12-0.897l0.275-0.037l0.113,0.849
					c0.039,0.286,0.162,0.47,0.402,0.438c0.191-0.025,0.305-0.169,0.338-0.302c0.01-0.04,0.01-0.094,0.003-0.146l-0.125-0.937
					l0.28-0.038L263.775,119.754z"/>
				<path fill="#F4F5F5" d="M264.143,118.992c-0.021-0.154-0.049-0.279-0.07-0.406l0.247-0.033l0.04,0.253l0.015-0.001
					c0.067-0.158,0.187-0.315,0.445-0.35c0.209-0.028,0.377,0.076,0.47,0.253l0.012-0.002c0.03-0.096,0.08-0.165,0.146-0.224
					c0.078-0.078,0.172-0.135,0.313-0.154c0.205-0.028,0.525,0.067,0.596,0.594l0.121,0.905l-0.273,0.037l-0.117-0.871
					c-0.04-0.296-0.174-0.452-0.39-0.423c-0.159,0.021-0.265,0.155-0.299,0.292c-0.012,0.041-0.013,0.091-0.006,0.143l0.127,0.95
					l-0.271,0.036l-0.124-0.924c-0.033-0.242-0.16-0.399-0.375-0.371c-0.167,0.022-0.277,0.177-0.306,0.32
					c-0.012,0.043-0.013,0.096-0.007,0.143l0.124,0.924l-0.267,0.035L264.143,118.992z"/>
			</g>
			<g>
				<path fill="#F4F5F5" d="M249.691,127.045l0.281-0.038l0.254,1.899l0.907-0.122l0.031,0.231l-1.188,0.158L249.691,127.045z"/>
				<path fill="#F4F5F5" d="M252.698,128.019c0.076,0.566-0.288,0.87-0.651,0.918c-0.411,0.055-0.772-0.209-0.837-0.689
					c-0.068-0.514,0.229-0.859,0.646-0.915C252.297,127.274,252.636,127.554,252.698,128.019z M251.489,128.195
					c0.045,0.34,0.267,0.565,0.54,0.528c0.267-0.037,0.436-0.313,0.39-0.659c-0.033-0.256-0.215-0.563-0.539-0.521
					C251.555,127.588,251.45,127.908,251.489,128.195z"/>
				<path fill="#F4F5F5" d="M253.007,127.693c-0.022-0.175-0.044-0.33-0.073-0.47l0.24-0.032l0.056,0.299l0.01-0.002
					c0.041-0.212,0.196-0.367,0.377-0.391c0.032-0.004,0.055-0.004,0.081-0.002l0.036,0.261c-0.031-0.003-0.061,0-0.095,0.005
					c-0.195,0.026-0.32,0.192-0.328,0.404c-0.003,0.037,0.001,0.088,0.008,0.137l0.107,0.811l-0.277,0.037L253.007,127.693z"/>
				<path fill="#F4F5F5" d="M254.21,127.882c0.059,0.373,0.315,0.494,0.594,0.458c0.205-0.028,0.319-0.075,0.415-0.133l0.076,0.189
					c-0.087,0.06-0.253,0.14-0.497,0.172c-0.47,0.063-0.792-0.216-0.854-0.677c-0.062-0.46,0.16-0.858,0.606-0.917
					c0.502-0.067,0.69,0.355,0.728,0.634c0.008,0.057,0.005,0.099,0.01,0.131L254.21,127.882z M254.995,127.572
					c-0.016-0.171-0.133-0.441-0.441-0.399c-0.282,0.038-0.362,0.316-0.366,0.507L254.995,127.572z"/>
				<path fill="#F4F5F5" d="M255.579,127.289c-0.021-0.161-0.038-0.285-0.061-0.41l0.242-0.033l0.044,0.25l0.015-0.002
					c0.062-0.159,0.185-0.315,0.444-0.349c0.201-0.027,0.376,0.076,0.466,0.249h0.008c0.038-0.097,0.095-0.167,0.146-0.222
					c0.085-0.079,0.177-0.133,0.325-0.153c0.201-0.027,0.52,0.064,0.589,0.597l0.12,0.898l-0.27,0.037l-0.114-0.86
					c-0.041-0.299-0.172-0.46-0.392-0.43c-0.166,0.022-0.272,0.156-0.303,0.293c-0.01,0.044-0.009,0.093-0.002,0.142l0.125,0.946
					l-0.27,0.037l-0.123-0.917c-0.032-0.243-0.167-0.403-0.377-0.375c-0.173,0.023-0.28,0.179-0.31,0.322
					c-0.005,0.041-0.01,0.09-0.003,0.14l0.123,0.921l-0.273,0.037L255.579,127.289z"/>
				<path fill="#F4F5F5" d="M259.75,125.874c0.013,0.089-0.043,0.178-0.15,0.192c-0.103,0.014-0.185-0.056-0.196-0.146
					c-0.013-0.096,0.053-0.185,0.157-0.199C259.661,125.708,259.737,125.778,259.75,125.874z M259.702,127.875l-0.204-1.528
					l0.282-0.038l0.204,1.528L259.702,127.875z"/>
				<path fill="#F4F5F5" d="M260.307,126.744c-0.026-0.197-0.056-0.351-0.074-0.497l0.242-0.032l0.045,0.258l0.015-0.002
					c0.08-0.199,0.249-0.332,0.501-0.366c0.37-0.049,0.69,0.227,0.752,0.688c0.073,0.551-0.229,0.871-0.586,0.918
					c-0.205,0.027-0.393-0.041-0.504-0.18h-0.008l0.111,0.828l-0.274,0.037L260.307,126.744z M260.634,127.113
					c0.006,0.041,0.016,0.077,0.031,0.113c0.068,0.189,0.256,0.294,0.461,0.267c0.292-0.039,0.431-0.298,0.383-0.653
					c-0.04-0.303-0.234-0.541-0.528-0.501c-0.188,0.025-0.351,0.184-0.377,0.396c-0.001,0.038-0.007,0.082-0.003,0.118
					L260.634,127.113z"/>
				<path fill="#F4F5F5" d="M262.167,127.26c0.089,0.038,0.242,0.075,0.382,0.056c0.203-0.027,0.282-0.139,0.267-0.265
					c-0.019-0.133-0.107-0.194-0.319-0.24c-0.292-0.069-0.444-0.194-0.468-0.375c-0.033-0.249,0.146-0.482,0.47-0.525
					c0.154-0.021,0.296,0.002,0.383,0.044l-0.036,0.214c-0.064-0.036-0.18-0.071-0.323-0.052c-0.165,0.022-0.239,0.127-0.225,0.245
					c0.019,0.128,0.111,0.17,0.324,0.222c0.272,0.063,0.426,0.176,0.457,0.409c0.036,0.265-0.15,0.49-0.508,0.538
					c-0.166,0.022-0.332-0.007-0.439-0.053L262.167,127.26z"/>
				<path fill="#F4F5F5" d="M264.714,126.773c0.021,0.161,0.041,0.303,0.07,0.421l-0.251,0.034l-0.042-0.255l-0.014,0.002
					c-0.053,0.139-0.192,0.324-0.461,0.36c-0.239,0.032-0.546-0.07-0.617-0.604l-0.12-0.892l0.274-0.037l0.112,0.842
					c0.039,0.293,0.163,0.479,0.405,0.446c0.191-0.025,0.302-0.176,0.335-0.311c0.011-0.036,0.011-0.086,0.004-0.142l-0.125-0.933
					l0.281-0.038L264.714,126.773z"/>
				<path fill="#F4F5F5" d="M265.083,126.017c-0.021-0.161-0.05-0.283-0.069-0.409l0.245-0.033l0.04,0.25l0.015-0.002
					c0.066-0.159,0.185-0.313,0.444-0.349c0.21-0.028,0.378,0.076,0.47,0.249l0.011-0.002c0.032-0.095,0.081-0.164,0.148-0.221
					c0.076-0.079,0.172-0.133,0.313-0.152c0.205-0.027,0.524,0.063,0.596,0.596l0.121,0.899l-0.273,0.036l-0.115-0.86
					c-0.04-0.299-0.175-0.459-0.391-0.43c-0.16,0.021-0.266,0.155-0.3,0.293c-0.011,0.044-0.012,0.094-0.006,0.142l0.127,0.946
					l-0.271,0.036l-0.122-0.916c-0.033-0.243-0.161-0.405-0.376-0.375c-0.167,0.022-0.278,0.179-0.308,0.322
					c-0.012,0.042-0.013,0.089-0.007,0.14l0.123,0.921l-0.267,0.036L265.083,126.017z"/>
			</g>
			<g>
				<path fill="#F4F5F5" d="M250.63,134.066l0.282-0.037l0.254,1.896l0.908-0.12l0.031,0.225l-1.189,0.158L250.63,134.066z"/>
				<path fill="#F4F5F5" d="M253.637,135.04c0.074,0.562-0.288,0.866-0.651,0.915c-0.413,0.055-0.773-0.207-0.838-0.693
					c-0.068-0.511,0.23-0.852,0.647-0.908C253.237,134.295,253.575,134.574,253.637,135.04z M252.428,135.219
					c0.045,0.334,0.266,0.557,0.538,0.521c0.268-0.036,0.437-0.313,0.392-0.65c-0.036-0.263-0.215-0.568-0.54-0.525
					S252.389,134.928,252.428,135.219z"/>
				<path fill="#F4F5F5" d="M253.946,134.721c-0.024-0.184-0.044-0.336-0.074-0.478l0.241-0.033l0.055,0.299h0.012
					c0.04-0.219,0.195-0.366,0.376-0.391c0.032-0.005,0.055-0.007,0.081-0.005l0.034,0.263c-0.029-0.003-0.059,0-0.094,0.005
					c-0.195,0.025-0.32,0.189-0.327,0.409c-0.003,0.038,0,0.083,0.006,0.128l0.109,0.809l-0.279,0.037L253.946,134.721z"/>
				<path fill="#F4F5F5" d="M255.148,134.898c0.057,0.373,0.314,0.498,0.594,0.461c0.206-0.027,0.32-0.08,0.415-0.135l0.078,0.195
					c-0.089,0.055-0.255,0.133-0.499,0.166c-0.469,0.063-0.792-0.215-0.854-0.678c-0.062-0.461,0.16-0.855,0.607-0.915
					c0.5-0.065,0.69,0.354,0.728,0.633c0.007,0.052,0.006,0.097,0.011,0.127L255.148,134.898z M255.933,134.587
					c-0.017-0.17-0.131-0.433-0.44-0.392c-0.282,0.039-0.364,0.31-0.367,0.5L255.933,134.587z"/>
				<path fill="#F4F5F5" d="M256.518,134.309c-0.021-0.16-0.038-0.285-0.063-0.41l0.242-0.033l0.043,0.246l0.016-0.002
					c0.063-0.153,0.187-0.309,0.445-0.344c0.203-0.027,0.376,0.076,0.466,0.246l0.007-0.002c0.04-0.09,0.097-0.158,0.146-0.214
					c0.084-0.084,0.176-0.136,0.325-0.155c0.201-0.027,0.519,0.07,0.589,0.596l0.119,0.894l-0.271,0.036l-0.114-0.859
					c-0.039-0.295-0.173-0.457-0.393-0.429c-0.166,0.022-0.271,0.159-0.301,0.302c-0.009,0.043-0.009,0.088-0.002,0.143l0.125,0.936
					l-0.271,0.036l-0.122-0.914c-0.032-0.241-0.168-0.403-0.378-0.375c-0.173,0.022-0.28,0.183-0.309,0.327
					c-0.005,0.043-0.01,0.092-0.003,0.141l0.122,0.914l-0.275,0.036L256.518,134.309z"/>
				<path fill="#F4F5F5" d="M260.689,132.891c0.013,0.096-0.043,0.176-0.151,0.19c-0.101,0.015-0.183-0.048-0.195-0.146
					c-0.012-0.09,0.054-0.176,0.157-0.189C260.601,132.734,260.676,132.795,260.689,132.891z M260.64,134.887l-0.203-1.521
					l0.279-0.038l0.205,1.522L260.64,134.887z"/>
				<path fill="#F4F5F5" d="M261.245,133.762c-0.024-0.195-0.054-0.354-0.073-0.494l0.242-0.033l0.045,0.256l0.016-0.002
					c0.081-0.194,0.25-0.328,0.502-0.362c0.371-0.049,0.691,0.231,0.751,0.683c0.074,0.553-0.229,0.873-0.585,0.922
					c-0.205,0.026-0.395-0.041-0.505-0.183l-0.008,0.001l0.111,0.832l-0.272,0.037L261.245,133.762z M261.574,134.137
					c0.004,0.037,0.015,0.078,0.029,0.107c0.068,0.189,0.256,0.298,0.462,0.27c0.292-0.039,0.43-0.302,0.383-0.646
					c-0.041-0.305-0.236-0.551-0.531-0.512c-0.186,0.025-0.349,0.185-0.375,0.406c-0.002,0.026-0.008,0.073-0.004,0.111
					L261.574,134.137z"/>
				<path fill="#F4F5F5" d="M263.105,134.279c0.089,0.037,0.241,0.072,0.382,0.053c0.202-0.025,0.282-0.139,0.265-0.266
					c-0.018-0.131-0.104-0.188-0.317-0.242c-0.291-0.063-0.445-0.194-0.47-0.375c-0.033-0.249,0.149-0.477,0.472-0.52
					c0.154-0.021,0.298,0.004,0.384,0.047l-0.039,0.207c-0.063-0.031-0.178-0.064-0.322-0.045c-0.165,0.021-0.239,0.119-0.225,0.234
					c0.017,0.13,0.11,0.171,0.324,0.227c0.271,0.06,0.427,0.18,0.457,0.407c0.037,0.271-0.15,0.49-0.509,0.538
					c-0.164,0.021-0.33-0.002-0.438-0.055L263.105,134.279z"/>
				<path fill="#F4F5F5" d="M265.654,133.797c0.02,0.155,0.039,0.294,0.069,0.41l-0.252,0.033l-0.04-0.241l-0.016,0.002
					c-0.052,0.128-0.191,0.315-0.462,0.353c-0.238,0.031-0.546-0.07-0.617-0.604l-0.119-0.89l0.274-0.037l0.112,0.838
					c0.04,0.294,0.163,0.482,0.404,0.451c0.191-0.026,0.304-0.17,0.336-0.307c0.011-0.043,0.011-0.094,0.004-0.146l-0.124-0.934
					l0.279-0.037L265.654,133.797z"/>
				<path fill="#F4F5F5" d="M266.022,133.036c-0.021-0.159-0.05-0.283-0.07-0.409l0.246-0.031l0.04,0.245l0.014-0.002
					c0.067-0.153,0.186-0.31,0.445-0.344c0.21-0.028,0.377,0.075,0.47,0.243h0.011c0.032-0.09,0.083-0.156,0.148-0.215
					c0.077-0.084,0.171-0.135,0.313-0.154c0.206-0.027,0.525,0.068,0.596,0.594l0.12,0.895l-0.274,0.037l-0.115-0.859
					c-0.038-0.297-0.175-0.458-0.391-0.43c-0.159,0.022-0.265,0.16-0.298,0.301c-0.012,0.044-0.013,0.09-0.006,0.144l0.125,0.937
					l-0.271,0.037l-0.122-0.914c-0.032-0.241-0.159-0.404-0.376-0.375c-0.167,0.021-0.275,0.182-0.305,0.326
					c-0.013,0.045-0.014,0.092-0.008,0.141l0.122,0.914l-0.267,0.035L266.022,133.036z"/>
			</g>
			
				<rect x="245.293" y="141.81" transform="matrix(-0.9912 0.1325 -0.1325 -0.9912 510.811 253.0286)" fill="#93D5DF" width="3.391" height="3.39"/>
			<g>
				<path fill="#F4F5F5" d="M251.623,141.488l0.281-0.038l0.254,1.897l0.908-0.121l0.031,0.23l-1.188,0.159L251.623,141.488z"/>
				<path fill="#F4F5F5" d="M254.63,142.462c0.075,0.562-0.288,0.866-0.651,0.915c-0.412,0.055-0.772-0.205-0.838-0.689
					c-0.067-0.51,0.23-0.854,0.648-0.91C254.229,141.719,254.567,141.996,254.63,142.462z M253.421,142.645
					c0.045,0.332,0.268,0.557,0.539,0.52c0.269-0.036,0.438-0.309,0.392-0.652c-0.035-0.259-0.215-0.57-0.54-0.527
					C253.485,142.027,253.381,142.35,253.421,142.645z"/>
				<path fill="#F4F5F5" d="M254.939,142.143c-0.024-0.183-0.044-0.334-0.074-0.477l0.241-0.031l0.055,0.299l0.011-0.002
					c0.041-0.213,0.197-0.365,0.376-0.389c0.033-0.004,0.057-0.007,0.082-0.003l0.034,0.255c-0.03,0-0.059,0.005-0.094,0.01
					c-0.195,0.025-0.32,0.188-0.328,0.4c-0.001,0.045,0.001,0.094,0.007,0.135l0.108,0.814l-0.278,0.037L254.939,142.143z"/>
				<path fill="#F4F5F5" d="M256.142,142.322c0.057,0.375,0.314,0.503,0.593,0.466c0.207-0.026,0.32-0.083,0.415-0.14l0.078,0.195
					c-0.088,0.053-0.253,0.133-0.498,0.166c-0.469,0.063-0.793-0.217-0.854-0.677c-0.061-0.455,0.161-0.854,0.607-0.915
					c0.501-0.066,0.688,0.346,0.728,0.631c0.009,0.063,0.005,0.098,0.011,0.129L256.142,142.322z M256.927,142.02
					c-0.019-0.18-0.134-0.439-0.442-0.397c-0.282,0.037-0.364,0.308-0.366,0.506L256.927,142.02z"/>
				<path fill="#F4F5F5" d="M257.511,141.736c-0.021-0.164-0.038-0.291-0.063-0.416l0.242-0.033l0.044,0.248l0.015-0.002
					c0.063-0.157,0.187-0.311,0.445-0.344c0.203-0.027,0.377,0.08,0.466,0.248h0.007c0.039-0.097,0.097-0.164,0.146-0.221
					c0.085-0.085,0.176-0.134,0.325-0.154c0.201-0.026,0.519,0.067,0.589,0.596l0.12,0.896l-0.271,0.036l-0.115-0.86
					c-0.04-0.299-0.171-0.453-0.392-0.424c-0.166,0.022-0.272,0.154-0.303,0.285c-0.008,0.049-0.008,0.096-0.002,0.143l0.127,0.949
					l-0.271,0.035l-0.123-0.916c-0.033-0.244-0.167-0.396-0.377-0.369c-0.173,0.023-0.28,0.18-0.309,0.324
					c-0.005,0.038-0.01,0.092-0.003,0.137l0.123,0.918l-0.274,0.037L257.511,141.736z"/>
				<path fill="#F4F5F5" d="M261.682,140.314c0.013,0.095-0.042,0.181-0.15,0.195c-0.102,0.012-0.184-0.055-0.196-0.148
					c-0.013-0.1,0.054-0.18,0.157-0.194C261.594,140.154,261.669,140.217,261.682,140.314z M261.633,142.316l-0.203-1.528
					l0.28-0.037l0.204,1.528L261.633,142.316z"/>
				<path fill="#F4F5F5" d="M262.239,141.193c-0.027-0.205-0.055-0.359-0.075-0.504l0.242-0.033l0.045,0.259l0.015-0.002
					c0.081-0.196,0.249-0.329,0.502-0.363c0.37-0.049,0.69,0.229,0.753,0.69c0.072,0.545-0.23,0.865-0.588,0.912
					c-0.204,0.027-0.393-0.043-0.504-0.18h-0.007l0.111,0.83l-0.273,0.036L262.239,141.193z M262.566,141.553
					c0.007,0.051,0.016,0.086,0.032,0.125c0.068,0.182,0.256,0.291,0.461,0.266c0.292-0.039,0.429-0.303,0.382-0.658
					c-0.04-0.297-0.235-0.545-0.529-0.506c-0.187,0.025-0.35,0.188-0.376,0.404c-0.002,0.033-0.009,0.074-0.004,0.11
					L262.566,141.553z"/>
				<path fill="#F4F5F5" d="M264.098,141.701c0.09,0.039,0.241,0.074,0.383,0.057c0.202-0.027,0.282-0.139,0.264-0.266
					c-0.018-0.133-0.104-0.189-0.316-0.237c-0.292-0.069-0.446-0.198-0.47-0.379c-0.032-0.249,0.149-0.478,0.472-0.521
					c0.153-0.021,0.297,0.002,0.384,0.049l-0.039,0.209c-0.063-0.031-0.178-0.07-0.322-0.051c-0.166,0.022-0.239,0.125-0.224,0.242
					c0.017,0.125,0.11,0.172,0.323,0.221c0.273,0.07,0.429,0.185,0.458,0.408c0.036,0.269-0.15,0.489-0.509,0.537
					c-0.165,0.022-0.33,0.002-0.438-0.051L264.098,141.701z"/>
				<path fill="#F4F5F5" d="M266.647,141.219c0.021,0.166,0.039,0.297,0.069,0.418l-0.252,0.032l-0.041-0.248l-0.015,0.002
					c-0.052,0.128-0.192,0.315-0.462,0.353c-0.238,0.031-0.544-0.065-0.616-0.598l-0.12-0.896l0.274-0.036l0.113,0.841
					c0.039,0.292,0.161,0.477,0.403,0.443c0.191-0.024,0.304-0.166,0.336-0.309c0.011-0.037,0.012-0.086,0.003-0.142l-0.124-0.935
					l0.28-0.037L266.647,141.219z"/>
				<path fill="#F4F5F5" d="M267.016,140.465c-0.022-0.162-0.052-0.29-0.071-0.415l0.246-0.034l0.04,0.248h0.015
					c0.067-0.158,0.187-0.311,0.446-0.346c0.208-0.027,0.377,0.08,0.469,0.248l0.011-0.001c0.031-0.095,0.081-0.162,0.148-0.22
					c0.077-0.084,0.171-0.133,0.313-0.152c0.205-0.027,0.524,0.066,0.597,0.594l0.12,0.897l-0.273,0.036l-0.115-0.861
					c-0.04-0.299-0.175-0.452-0.39-0.423c-0.16,0.021-0.267,0.151-0.301,0.284c-0.012,0.049-0.013,0.097-0.006,0.144l0.126,0.948
					l-0.271,0.035l-0.122-0.916c-0.033-0.244-0.16-0.398-0.375-0.369c-0.167,0.021-0.278,0.179-0.306,0.324
					c-0.013,0.039-0.013,0.092-0.007,0.137l0.122,0.917l-0.266,0.036L267.016,140.465z"/>
			</g>
		</g>
		<g>
			
				<rect x="304.401" y="104.908" transform="matrix(-0.9912 0.1326 -0.1326 -0.9912 623.6169 171.6845)" fill="#CE4F27" width="3.385" height="3.383"/>
			
				<rect x="305.341" y="111.921" transform="matrix(-0.9912 0.1327 -0.1327 -0.9912 626.4281 185.4896)" fill="#53ACB0" width="3.385" height="3.394"/>
			
				<rect x="306.27" y="118.972" transform="matrix(-0.9912 0.1324 -0.1324 -0.9912 629.1879 199.5033)" fill="#7CA78C" width="3.386" height="3.386"/>
			<g>
				<path fill="#F4F5F5" d="M310.72,104.591l0.28-0.038l0.253,1.896l0.908-0.122l0.031,0.233l-1.19,0.159L310.72,104.591z"/>
				<path fill="#F4F5F5" d="M313.727,105.567c0.076,0.564-0.288,0.865-0.655,0.914c-0.411,0.055-0.772-0.206-0.838-0.693
					c-0.068-0.508,0.227-0.85,0.648-0.907C313.323,104.823,313.665,105.1,313.727,105.567z M312.518,105.746
					c0.045,0.334,0.265,0.558,0.54,0.521c0.263-0.035,0.432-0.311,0.385-0.657c-0.034-0.254-0.212-0.566-0.543-0.522
					C312.58,105.131,312.479,105.453,312.518,105.746z"/>
				<path fill="#F4F5F5" d="M314.037,105.245c-0.023-0.182-0.044-0.335-0.079-0.476l0.246-0.032l0.056,0.304l0.014-0.002
					c0.038-0.214,0.192-0.369,0.377-0.394c0.024-0.003,0.053-0.007,0.075-0.004l0.036,0.263c-0.029-0.003-0.059,0-0.1,0.006
					c-0.188,0.025-0.312,0.192-0.323,0.408c-0.001,0.038,0,0.083,0.007,0.123l0.108,0.817l-0.277,0.038L314.037,105.245z"/>
				<path fill="#F4F5F5" d="M315.242,105.425c0.051,0.377,0.309,0.502,0.59,0.464c0.203-0.027,0.321-0.076,0.416-0.135l0.077,0.192
					c-0.095,0.057-0.253,0.134-0.5,0.167c-0.468,0.063-0.795-0.217-0.855-0.674c-0.063-0.464,0.159-0.858,0.606-0.918
					c0.505-0.067,0.693,0.351,0.729,0.63c0.009,0.06,0.013,0.098,0.004,0.13L315.242,105.425z M316.03,105.114
					c-0.023-0.167-0.132-0.436-0.453-0.393c-0.277,0.038-0.366,0.312-0.361,0.502L316.03,105.114z"/>
				<path fill="#F4F5F5" d="M316.609,104.835c-0.021-0.161-0.038-0.286-0.063-0.413l0.241-0.032l0.048,0.245l0.007-0.001
					c0.064-0.151,0.19-0.308,0.45-0.343c0.203-0.027,0.377,0.076,0.466,0.25l0.007-0.001c0.037-0.095,0.095-0.17,0.146-0.228
					c0.084-0.079,0.183-0.128,0.325-0.147c0.203-0.027,0.523,0.069,0.594,0.596l0.12,0.896l-0.273,0.037l-0.115-0.858
					c-0.041-0.303-0.168-0.463-0.396-0.433c-0.162,0.021-0.262,0.154-0.302,0.295c-0.001,0.042-0.005,0.092,0.002,0.148l0.125,0.939
					l-0.271,0.036l-0.123-0.917c-0.032-0.243-0.164-0.403-0.376-0.375c-0.172,0.022-0.284,0.18-0.309,0.325
					c-0.009,0.045-0.006,0.097,0,0.141l0.122,0.917l-0.275,0.037L316.609,104.835z"/>
				<path fill="#F4F5F5" d="M320.783,103.421c0.013,0.096-0.042,0.177-0.155,0.192c-0.104,0.014-0.179-0.05-0.191-0.146
					c-0.013-0.095,0.052-0.183,0.148-0.196C320.692,103.257,320.771,103.32,320.783,103.421z M320.731,105.419l-0.205-1.529
					l0.281-0.038l0.205,1.528L320.731,105.419z"/>
				<path fill="#F4F5F5" d="M321.337,104.296c-0.026-0.198-0.056-0.356-0.082-0.503l0.245-0.032l0.054,0.259l0.01-0.001
					c0.079-0.205,0.25-0.331,0.501-0.365c0.368-0.049,0.689,0.225,0.752,0.688c0.074,0.548-0.221,0.866-0.593,0.916
					c-0.197,0.026-0.391-0.041-0.497-0.181l-0.007,0.001l0.109,0.83l-0.273,0.037L321.337,104.296z M321.665,104.657
					c0.006,0.045,0.011,0.089,0.029,0.115c0.076,0.186,0.26,0.298,0.458,0.271c0.3-0.04,0.434-0.305,0.387-0.65
					c-0.041-0.308-0.234-0.55-0.532-0.511c-0.188,0.025-0.349,0.185-0.375,0.397c-0.006,0.04-0.007,0.082-0.003,0.112
					L321.665,104.657z"/>
				<path fill="#F4F5F5" d="M323.195,104.805c0.09,0.036,0.245,0.074,0.383,0.055c0.202-0.027,0.281-0.136,0.264-0.265
					c-0.018-0.131-0.104-0.189-0.316-0.239c-0.292-0.066-0.438-0.197-0.462-0.377c-0.033-0.25,0.139-0.478,0.462-0.521
					c0.156-0.021,0.299,0.002,0.384,0.042l-0.041,0.215c-0.061-0.034-0.183-0.073-0.32-0.055c-0.166,0.022-0.238,0.13-0.223,0.249
					c0.018,0.124,0.111,0.169,0.315,0.221c0.28,0.065,0.435,0.174,0.466,0.407c0.036,0.273-0.147,0.489-0.508,0.538
					c-0.169,0.022-0.331,0-0.439-0.054L323.195,104.805z"/>
				<path fill="#F4F5F5" d="M325.744,104.324c0.021,0.157,0.04,0.294,0.063,0.416l-0.246,0.033l-0.046-0.245l0,0
					c-0.058,0.129-0.2,0.317-0.475,0.354c-0.234,0.032-0.544-0.063-0.617-0.605l-0.119-0.891l0.28-0.038l0.113,0.845
					c0.039,0.289,0.151,0.478,0.408,0.443c0.185-0.024,0.297-0.171,0.331-0.301c0.008-0.046,0.009-0.093,0.001-0.15l-0.125-0.934
					l0.281-0.038L325.744,104.324z"/>
				<path fill="#F4F5F5" d="M326.111,103.563c-0.021-0.161-0.048-0.283-0.069-0.411l0.245-0.033l0.047,0.245l0.007-0.001
					c0.065-0.152,0.188-0.307,0.446-0.342c0.205-0.028,0.384,0.075,0.469,0.249l0.004-0.001c0.039-0.095,0.089-0.169,0.146-0.227
					c0.084-0.079,0.181-0.129,0.321-0.148c0.206-0.027,0.526,0.069,0.597,0.596l0.12,0.896l-0.271,0.036l-0.114-0.857
					c-0.041-0.303-0.177-0.463-0.399-0.433c-0.157,0.021-0.261,0.154-0.298,0.295c-0.004,0.043-0.009,0.093-0.001,0.148l0.126,0.939
					l-0.274,0.037l-0.123-0.917c-0.032-0.244-0.156-0.404-0.372-0.375c-0.175,0.023-0.281,0.18-0.311,0.326
					c-0.009,0.045-0.01,0.097-0.004,0.142l0.123,0.917l-0.267,0.036L326.111,103.563z"/>
			</g>
			<g>
				<path fill="#F4F5F5" d="M311.659,111.608l0.281-0.038l0.254,1.899l0.909-0.122l0.032,0.24l-1.19,0.159L311.659,111.608z"/>
				<path fill="#F4F5F5" d="M314.666,112.584c0.077,0.569-0.288,0.865-0.654,0.914c-0.412,0.055-0.773-0.207-0.839-0.689
					c-0.066-0.506,0.228-0.853,0.649-0.909C314.262,111.841,314.604,112.123,314.666,112.584z M313.457,112.764
					c0.043,0.333,0.267,0.564,0.54,0.528c0.264-0.035,0.432-0.313,0.385-0.659c-0.034-0.261-0.211-0.564-0.543-0.52
					C313.519,112.156,313.418,112.479,313.457,112.764z"/>
				<path fill="#F4F5F5" d="M314.976,112.265c-0.024-0.184-0.044-0.333-0.079-0.477l0.246-0.033l0.056,0.301l0.013-0.001
					c0.038-0.219,0.193-0.366,0.378-0.391c0.025-0.003,0.055-0.003,0.075-0.006l0.035,0.262c-0.029,0.003-0.056,0.007-0.097,0.013
					c-0.19,0.025-0.313,0.185-0.324,0.401c-0.001,0.037,0.001,0.089,0.007,0.133l0.109,0.818l-0.277,0.037L314.976,112.265z"/>
				<path fill="#F4F5F5" d="M316.182,112.448c0.051,0.378,0.308,0.496,0.589,0.458c0.203-0.027,0.319-0.078,0.415-0.136l0.078,0.194
					c-0.097,0.057-0.254,0.134-0.5,0.167c-0.469,0.063-0.795-0.213-0.857-0.676c-0.062-0.461,0.161-0.855,0.608-0.915
					c0.504-0.067,0.69,0.35,0.729,0.629c0.007,0.061,0.013,0.104,0.003,0.135L316.182,112.448z M316.97,112.139
					c-0.023-0.175-0.132-0.436-0.453-0.393c-0.278,0.037-0.366,0.307-0.362,0.502L316.97,112.139z"/>
				<path fill="#F4F5F5" d="M317.547,111.85c-0.02-0.155-0.036-0.281-0.062-0.408l0.241-0.032l0.049,0.252l0.007-0.001
					c0.063-0.157,0.189-0.315,0.449-0.351c0.202-0.026,0.377,0.077,0.467,0.254h0.006c0.036-0.097,0.096-0.167,0.147-0.224
					c0.085-0.079,0.18-0.136,0.322-0.155c0.202-0.027,0.523,0.068,0.595,0.594l0.121,0.905l-0.275,0.037l-0.116-0.87
					c-0.04-0.296-0.167-0.453-0.395-0.422c-0.161,0.021-0.263,0.154-0.302,0.292c0,0.039-0.006,0.09,0.002,0.142l0.126,0.95
					l-0.271,0.036l-0.123-0.924c-0.033-0.242-0.164-0.399-0.375-0.37c-0.172,0.022-0.285,0.177-0.309,0.32
					c-0.01,0.043-0.008,0.094-0.001,0.142l0.124,0.924l-0.276,0.038L317.547,111.85z"/>
				<path fill="#F4F5F5" d="M321.722,110.437c0.013,0.098-0.042,0.186-0.154,0.2c-0.105,0.014-0.18-0.056-0.192-0.154
					c-0.013-0.092,0.053-0.181,0.149-0.194C321.63,110.274,321.708,110.337,321.722,110.437z M321.67,112.445l-0.205-1.535
					l0.281-0.038l0.205,1.536L321.67,112.445z"/>
				<path fill="#F4F5F5" d="M322.275,111.312c-0.026-0.199-0.054-0.354-0.081-0.5l0.245-0.033l0.054,0.263l0.01-0.001
					c0.08-0.2,0.25-0.335,0.501-0.369c0.369-0.049,0.691,0.229,0.752,0.689c0.072,0.546-0.221,0.864-0.593,0.914
					c-0.198,0.026-0.39-0.034-0.497-0.182l-0.007,0.001l0.111,0.836l-0.275,0.037L322.275,111.312z M322.604,111.68
					c0.005,0.038,0.011,0.081,0.029,0.115c0.074,0.182,0.259,0.292,0.458,0.266c0.3-0.04,0.435-0.298,0.387-0.649
					c-0.041-0.303-0.234-0.542-0.53-0.502c-0.188,0.025-0.351,0.175-0.376,0.396c-0.006,0.036-0.007,0.076-0.003,0.11
					L322.604,111.68z"/>
				<path fill="#F4F5F5" d="M324.135,111.825c0.088,0.035,0.244,0.078,0.382,0.06c0.202-0.027,0.28-0.139,0.263-0.272
					c-0.017-0.131-0.105-0.188-0.317-0.24c-0.292-0.06-0.437-0.192-0.462-0.375c-0.031-0.245,0.14-0.478,0.463-0.521
					c0.156-0.021,0.3,0.005,0.386,0.05l-0.042,0.206c-0.061-0.029-0.183-0.068-0.319-0.049c-0.166,0.022-0.239,0.129-0.223,0.246
					c0.016,0.119,0.109,0.169,0.314,0.222c0.28,0.062,0.436,0.177,0.465,0.402c0.037,0.272-0.146,0.489-0.508,0.538
					c-0.17,0.022-0.331,0-0.439-0.051L324.135,111.825z"/>
				<path fill="#F4F5F5" d="M326.682,111.34c0.021,0.165,0.041,0.298,0.064,0.426l-0.246,0.033l-0.047-0.254l0,0
					c-0.056,0.137-0.2,0.317-0.474,0.354c-0.235,0.032-0.544-0.063-0.616-0.596l-0.12-0.897l0.282-0.038l0.113,0.849
					c0.038,0.287,0.15,0.471,0.407,0.437c0.185-0.024,0.297-0.168,0.33-0.301c0.01-0.04,0.01-0.095,0.002-0.145l-0.125-0.938
					l0.281-0.038L326.682,111.34z"/>
				<path fill="#F4F5F5" d="M327.05,110.578c-0.021-0.155-0.048-0.279-0.068-0.406l0.245-0.033l0.048,0.251l0.007-0.001
					c0.065-0.156,0.186-0.315,0.445-0.35c0.206-0.027,0.384,0.076,0.47,0.253h0.004c0.039-0.097,0.088-0.166,0.146-0.224
					c0.084-0.079,0.18-0.136,0.319-0.155c0.206-0.028,0.526,0.067,0.598,0.594l0.121,0.905l-0.271,0.036l-0.117-0.871
					c-0.039-0.295-0.173-0.452-0.396-0.422c-0.158,0.021-0.262,0.154-0.299,0.293c-0.006,0.039-0.01,0.09-0.003,0.142l0.127,0.95
					l-0.272,0.036l-0.124-0.924c-0.032-0.242-0.156-0.399-0.372-0.37c-0.174,0.023-0.281,0.176-0.311,0.32
					c-0.01,0.043-0.01,0.095-0.004,0.142l0.124,0.924l-0.267,0.036L327.05,110.578z"/>
			</g>
			<g>
				<path fill="#F4F5F5" d="M312.598,118.631l0.281-0.038l0.253,1.899l0.909-0.122l0.031,0.231l-1.19,0.159L312.598,118.631z"/>
				<path fill="#F4F5F5" d="M315.604,119.604c0.076,0.566-0.287,0.87-0.654,0.918c-0.412,0.055-0.772-0.208-0.837-0.689
					c-0.069-0.513,0.226-0.857,0.648-0.914C315.201,118.861,315.542,119.139,315.604,119.604z M314.395,119.781
					c0.046,0.34,0.268,0.564,0.541,0.527c0.263-0.035,0.432-0.311,0.385-0.657c-0.034-0.256-0.211-0.564-0.543-0.519
					C314.458,119.175,314.357,119.494,314.395,119.781z"/>
				<path fill="#F4F5F5" d="M315.914,119.279c-0.022-0.176-0.044-0.331-0.079-0.469l0.246-0.033l0.057,0.298l0.013-0.001
					c0.038-0.212,0.194-0.367,0.378-0.391c0.025-0.004,0.054-0.004,0.076-0.001l0.035,0.261c-0.029-0.004-0.059,0-0.099,0.005
					c-0.189,0.025-0.313,0.19-0.325,0.403c-0.001,0.037,0.002,0.088,0.009,0.137l0.107,0.811l-0.276,0.038L315.914,119.279z"/>
				<path fill="#F4F5F5" d="M317.12,119.468c0.05,0.374,0.31,0.495,0.59,0.457c0.202-0.027,0.321-0.074,0.415-0.133l0.078,0.189
					c-0.095,0.061-0.253,0.141-0.499,0.173c-0.468,0.063-0.795-0.216-0.857-0.678c-0.062-0.459,0.16-0.857,0.607-0.917
					c0.504-0.067,0.692,0.355,0.73,0.634c0.007,0.056,0.013,0.098,0.003,0.131L317.12,119.468z M317.908,119.157
					c-0.021-0.169-0.132-0.44-0.454-0.396c-0.277,0.037-0.364,0.316-0.361,0.506L317.908,119.157z"/>
				<path fill="#F4F5F5" d="M318.487,118.874c-0.021-0.16-0.038-0.285-0.063-0.41l0.241-0.032l0.049,0.248l0.007-0.001
					c0.063-0.159,0.188-0.315,0.448-0.35c0.203-0.027,0.376,0.077,0.467,0.249l0.006-0.001c0.036-0.096,0.097-0.166,0.147-0.221
					c0.084-0.079,0.182-0.134,0.324-0.153c0.202-0.027,0.522,0.063,0.593,0.596l0.121,0.899l-0.273,0.036l-0.115-0.859
					c-0.04-0.299-0.167-0.46-0.396-0.43c-0.161,0.021-0.261,0.155-0.301,0.294c0,0.042-0.005,0.093,0.001,0.141l0.126,0.946
					l-0.271,0.036l-0.122-0.916c-0.033-0.243-0.164-0.404-0.377-0.375c-0.171,0.023-0.284,0.18-0.309,0.322
					c-0.01,0.042-0.007,0.089-0.001,0.14l0.123,0.92l-0.276,0.038L318.487,118.874z"/>
				<path fill="#F4F5F5" d="M322.661,117.459c0.012,0.089-0.042,0.178-0.155,0.193c-0.104,0.014-0.18-0.057-0.19-0.147
					c-0.013-0.096,0.051-0.186,0.147-0.198C322.569,117.293,322.649,117.363,322.661,117.459z M322.609,119.46l-0.205-1.528
					l0.282-0.038l0.204,1.528L322.609,119.46z"/>
				<path fill="#F4F5F5" d="M323.214,118.33c-0.025-0.196-0.055-0.35-0.081-0.495l0.245-0.033l0.053,0.257l0.011-0.001
					c0.08-0.2,0.25-0.333,0.501-0.366c0.369-0.049,0.69,0.227,0.752,0.688c0.073,0.551-0.22,0.869-0.592,0.919
					c-0.198,0.026-0.392-0.041-0.498-0.181l-0.007,0.001l0.11,0.828l-0.272,0.037L323.214,118.33z M323.542,118.698
					c0.006,0.042,0.012,0.078,0.031,0.114c0.075,0.188,0.258,0.294,0.457,0.268c0.299-0.04,0.433-0.299,0.386-0.653
					c-0.041-0.303-0.232-0.541-0.529-0.501c-0.188,0.025-0.351,0.184-0.377,0.396c-0.005,0.038-0.007,0.082-0.002,0.118
					L323.542,118.698z"/>
				<path fill="#F4F5F5" d="M325.074,118.846c0.09,0.038,0.245,0.074,0.381,0.056c0.202-0.027,0.282-0.139,0.265-0.265
					c-0.019-0.133-0.106-0.195-0.317-0.24c-0.292-0.069-0.438-0.195-0.462-0.377c-0.033-0.248,0.138-0.481,0.462-0.524
					c0.157-0.021,0.299,0.002,0.385,0.044l-0.041,0.214c-0.061-0.036-0.182-0.071-0.318-0.053c-0.165,0.022-0.239,0.127-0.225,0.244
					c0.019,0.128,0.11,0.171,0.315,0.224c0.281,0.062,0.436,0.175,0.466,0.408c0.035,0.265-0.149,0.489-0.508,0.538
					c-0.17,0.023-0.332-0.006-0.441-0.053L325.074,118.846z"/>
				<path fill="#F4F5F5" d="M327.621,118.358c0.022,0.161,0.041,0.303,0.064,0.423l-0.246,0.033l-0.048-0.254l0,0
					c-0.056,0.14-0.199,0.326-0.474,0.362c-0.234,0.032-0.545-0.07-0.617-0.604l-0.118-0.892l0.28-0.038l0.113,0.842
					c0.04,0.293,0.153,0.48,0.409,0.446c0.183-0.024,0.295-0.175,0.329-0.31c0.01-0.036,0.01-0.086,0.003-0.142l-0.125-0.934
					l0.281-0.037L327.621,118.358z"/>
				<path fill="#F4F5F5" d="M327.99,117.603c-0.021-0.16-0.049-0.284-0.069-0.409l0.245-0.033l0.048,0.249h0.009
					c0.063-0.159,0.186-0.314,0.443-0.349c0.206-0.027,0.385,0.075,0.471,0.248h0.005c0.039-0.097,0.087-0.166,0.146-0.222
					c0.085-0.079,0.181-0.134,0.321-0.152c0.206-0.028,0.527,0.063,0.597,0.595l0.121,0.899l-0.271,0.037l-0.114-0.86
					c-0.04-0.299-0.175-0.459-0.398-0.429c-0.158,0.021-0.261,0.154-0.298,0.293c-0.005,0.043-0.009,0.093-0.003,0.142l0.127,0.945
					l-0.272,0.037l-0.123-0.916c-0.032-0.243-0.157-0.404-0.373-0.375c-0.173,0.023-0.28,0.179-0.31,0.322
					c-0.01,0.042-0.012,0.09-0.005,0.14l0.124,0.921l-0.266,0.035L327.99,117.603z"/>
			</g>
		</g>
	</g>
	<g>
		
			<rect x="399.206" y="50.818" transform="matrix(0.2062 -0.9785 0.9785 0.2062 276.3583 593.4788)" fill="#FFFFFF" stroke="#808184" stroke-width="2" stroke-miterlimit="10" width="209.524" height="151.178"/>
		
			<rect x="477.272" y="55.881" transform="matrix(-0.9785 -0.2062 0.2062 -0.9785 1019.1246 223.6682)" fill="#808184" width="87.892" height="5.695"/>
		
			<rect x="495.716" y="46.58" transform="matrix(-0.9785 -0.2062 0.2062 -0.9785 1028.1045 206.0062)" fill="#808184" width="58.143" height="5.695"/>
		<g>
			
				<rect id="XMLID_21_" x="507.875" y="75.88" transform="matrix(0.1944 -0.9809 0.9809 0.1944 277.2333 607.328)" fill="#2B2726" width="0.99" height="117.998"/>
			
				<rect id="XMLID_20_" x="460.823" y="85.708" transform="matrix(-0.9809 -0.1944 0.1944 -0.9809 907.644 299.0763)" fill="#EBA920" width="15.351" height="38.58"/>
			
				<rect id="XMLID_19_" x="484.575" y="85.502" transform="matrix(-0.9809 -0.1944 0.1944 -0.9809 954.2675 308.0968)" fill="#EBA920" width="15.352" height="43.45"/>
			
				<rect id="XMLID_18_" x="508.443" y="84.159" transform="matrix(-0.9809 -0.1944 0.1944 -0.9809 1001.2236 316.0269)" fill="#EBA920" width="15.351" height="49.452"/>
			
				<rect id="XMLID_17_" x="532.162" y="84.254" transform="matrix(-0.9809 -0.1944 0.1944 -0.9809 1047.7493 325.3505)" fill="#EBA920" width="15.35" height="54.028"/>
			
				<rect id="XMLID_16_" x="556.165" y="81.465" transform="matrix(-0.9809 -0.1944 0.1944 -0.9809 1095.1038 331.926)" fill="#EBA920" width="15.351" height="61.518"/>
			
				<rect id="XMLID_15_" x="456.202" y="65.355" transform="matrix(-0.9809 -0.1948 0.1948 -0.9809 886.4474 276.644)" fill="#2B2726" width="1.244" height="58.78"/>
			<g id="XMLID_13_">
				<path id="XMLID_14_" fill="#771817" d="M461.938,97.072l0.176-0.883l-0.128-0.924c1.175,0.005,21.495-1.692,34.901-2.828
					l0.217-0.027l18.783,5.097l35.606-3.869l18.898,0.491l0.118,1.818l-18.716-0.5l-35.948,3.918l-18.734-5.091
					C462.591,97.201,461.938,97.072,461.938,97.072z"/>
			</g>
			
				<rect id="XMLID_12_" x="443.652" y="161.106" transform="matrix(-0.9809 -0.1944 0.1944 -0.9809 849.8245 443.2567)" fill="#EBA920" width="6.027" height="37.632"/>
			
				<rect id="XMLID_11_" x="449.831" y="167.817" transform="matrix(-0.9809 -0.1943 0.1943 -0.9809 861.3254 452.3419)" fill="#EE4232" width="6.027" height="32.235"/>
			
				<rect id="XMLID_10_" x="463.057" y="153.328" transform="matrix(-0.9809 -0.1946 0.1946 -0.9809 888.6021 443.1385)" fill="#EBA920" width="6.026" height="49.178"/>
			
				<rect id="XMLID_9_" x="468.956" y="163.132" transform="matrix(-0.9809 -0.1947 0.1947 -0.9809 899.1875 455.2846)" fill="#EE4232" width="6.028" height="40.632"/>
			
				<rect id="XMLID_8_" x="480.34" y="167.188" transform="matrix(-0.9809 -0.1945 0.1945 -0.9809 921.1913 463.6415)" fill="#EBA920" width="6.026" height="38.833"/>
			
				<rect id="XMLID_7_" x="487.183" y="167.311" transform="matrix(-0.981 -0.1941 0.1941 -0.981 934.7129 466.2345)" fill="#EE4232" width="6.028" height="40.033"/>
			
				<rect id="XMLID_6_" x="498.968" y="167.397" transform="matrix(-0.9809 -0.1943 0.1943 -0.9809 957.7605 471.0209)" fill="#EBA920" width="6.026" height="42.281"/>
			
				<rect id="XMLID_5_" x="505.861" y="166.955" transform="matrix(-0.9809 -0.1944 0.1944 -0.9809 971.3101 473.2956)" fill="#EE4232" width="6.029" height="44.08"/>
			
				<rect id="XMLID_4_" x="516.715" y="176.651" transform="matrix(-0.9809 -0.1945 0.1945 -0.9809 991.6143 487.2465)" fill="#EBA920" width="6.025" height="36.583"/>
			
				<rect id="XMLID_3_" x="524.541" y="166.734" transform="matrix(-0.9809 -0.1943 0.1943 -0.9809 1007.9919 480.2978)" fill="#EE4232" width="6.03" height="47.94"/>
			
				<rect id="XMLID_2_" x="534.453" y="185.77" transform="matrix(-0.9809 -0.1943 0.1943 -0.9809 1025.5764 503.1738)" fill="#EBA920" width="6.026" height="31.036"/>
			
				<rect id="XMLID_1_" x="543.04" y="168.118" transform="matrix(-0.9809 -0.1945 0.1945 -0.9809 1044.09 488.9932)" fill="#EE4232" width="6.029" height="50.226"/>
		</g>
	</g>
	<g>
		
			<rect x="297.231" y="35.331" fill="#FFFFFF" stroke="#808184" stroke-width="2" stroke-miterlimit="10" width="151.179" height="209.526"/>
		<g>
			
				<rect x="309.407" y="85.563" fill="#ABEBFF" stroke="#6D6E70" stroke-width="2" stroke-miterlimit="10" width="126.578" height="13.201"/>
			
				<rect x="309.407" y="97.987" fill="#FFF4CF" stroke="#6D6E70" stroke-width="2" stroke-miterlimit="10" width="24.72" height="118.813"/>
			
				<rect x="334.645" y="97.987" fill="#FFFFFF" stroke="#6D6E70" stroke-width="2" stroke-miterlimit="10" width="24.72" height="118.813"/>
			
				<rect x="360.271" y="97.987" fill="#FFF4CF" stroke="#6D6E70" stroke-width="2" stroke-miterlimit="10" width="25.497" height="118.813"/>
			
				<rect x="385.121" y="97.987" fill="#FFFFFF" stroke="#6D6E70" stroke-width="2" stroke-miterlimit="10" width="25.497" height="118.813"/>
			
				<rect x="410.748" y="97.987" fill="#FFF4CF" stroke="#6D6E70" stroke-width="2" stroke-miterlimit="10" width="25.496" height="118.813"/>
			
				<line fill="none" stroke="#6D6E70" stroke-width="2" stroke-miterlimit="10" x1="333.739" y1="85.563" x2="333.739" y2="216.542"/>
			
				<line fill="none" stroke="#6D6E70" stroke-width="2" stroke-miterlimit="10" x1="359.624" y1="85.563" x2="359.624" y2="216.542"/>
			
				<line fill="none" stroke="#6D6E70" stroke-width="2" stroke-miterlimit="10" x1="386.026" y1="85.563" x2="386.026" y2="216.542"/>
			
				<line fill="none" stroke="#6D6E70" stroke-width="2" stroke-miterlimit="10" x1="411.395" y1="85.563" x2="411.395" y2="216.542"/>
			<line fill="none" stroke="#6D6E70" stroke-width="2" stroke-miterlimit="10" x1="308.889" y1="104.2" x2="435.728" y2="104.2"/>
			
				<line fill="none" stroke="#6D6E70" stroke-width="2" stroke-miterlimit="10" x1="308.889" y1="109.895" x2="435.728" y2="109.895"/>
			
				<line fill="none" stroke="#6D6E70" stroke-width="2" stroke-miterlimit="10" x1="308.889" y1="116.625" x2="435.728" y2="116.625"/>
			
				<line fill="none" stroke="#6D6E70" stroke-width="2" stroke-miterlimit="10" x1="308.889" y1="122.319" x2="435.728" y2="122.319"/>
			
				<line fill="none" stroke="#6D6E70" stroke-width="2" stroke-miterlimit="10" x1="308.889" y1="127.496" x2="435.728" y2="127.496"/>
			
				<line fill="none" stroke="#6D6E70" stroke-width="2" stroke-miterlimit="10" x1="308.889" y1="133.191" x2="435.728" y2="133.191"/>
			
				<line fill="none" stroke="#6D6E70" stroke-width="2" stroke-miterlimit="10" x1="308.889" y1="139.921" x2="435.728" y2="139.921"/>
			
				<line fill="none" stroke="#6D6E70" stroke-width="2" stroke-miterlimit="10" x1="308.889" y1="145.615" x2="435.728" y2="145.615"/>
			
				<line fill="none" stroke="#6D6E70" stroke-width="2" stroke-miterlimit="10" x1="308.889" y1="150.793" x2="435.728" y2="150.793"/>
			
				<line fill="none" stroke="#6D6E70" stroke-width="2" stroke-miterlimit="10" x1="308.889" y1="156.488" x2="435.728" y2="156.488"/>
			
				<line fill="none" stroke="#6D6E70" stroke-width="2" stroke-miterlimit="10" x1="308.889" y1="163.219" x2="435.728" y2="163.219"/>
			
				<line fill="none" stroke="#6D6E70" stroke-width="2" stroke-miterlimit="10" x1="308.889" y1="168.913" x2="435.728" y2="168.913"/>
			
				<line fill="none" stroke="#6D6E70" stroke-width="2" stroke-miterlimit="10" x1="308.889" y1="174.607" x2="435.728" y2="174.607"/>
			
				<line fill="none" stroke="#6D6E70" stroke-width="2" stroke-miterlimit="10" x1="308.889" y1="180.303" x2="435.728" y2="180.303"/>
			
				<line fill="none" stroke="#6D6E70" stroke-width="2" stroke-miterlimit="10" x1="308.889" y1="187.031" x2="435.728" y2="187.031"/>
			
				<line fill="none" stroke="#6D6E70" stroke-width="2" stroke-miterlimit="10" x1="308.889" y1="192.727" x2="435.728" y2="192.727"/>
			
				<line fill="none" stroke="#6D6E70" stroke-width="2" stroke-miterlimit="10" x1="308.889" y1="198.421" x2="435.728" y2="198.421"/>
			
				<line fill="none" stroke="#6D6E70" stroke-width="2" stroke-miterlimit="10" x1="308.889" y1="204.116" x2="435.728" y2="204.116"/>
			
				<line fill="none" stroke="#6D6E70" stroke-width="2" stroke-miterlimit="10" x1="308.889" y1="210.846" x2="435.728" y2="210.846"/>
		</g>
		<rect x="308.371" y="70.29" fill="#808184" width="71.443" height="5.694"/>
		<rect x="308.371" y="60.454" fill="#808184" width="39.346" height="5.695"/>
		<rect x="308.371" y="222.495" fill="#808184" width="18.12" height="5.694"/>
		<rect x="308.371" y="232.332" fill="#808184" width="23.297" height="5.695"/>
		<rect x="402.594" y="42.852" fill="#808184" width="39.346" height="5.695"/>
	</g>
</g>
</svg>
