<?xml version="1.0" encoding="utf-8"?>
<!-- Generator: Adobe Illustrator 15.1.0, SVG Export Plug-In . SVG Version: 6.00 Build 0)  -->
<!DOCTYPE svg PUBLIC "-//W3C//DTD SVG 1.1//EN" "http://www.w3.org/Graphics/SVG/1.1/DTD/svg11.dtd">
<svg version="1.1" id="Layer_1" xmlns="http://www.w3.org/2000/svg" xmlns:xlink="http://www.w3.org/1999/xlink" x="0px" y="0px"
	 width="337px" height="268px" viewBox="9 5 337 268" enable-background="new 9 5 337 268" xml:space="preserve">
<text transform="matrix(1.0391 0 0 1 -423.2061 -490.3184)" display="none" fill="#231F20" enable-background="new    " font-family="'Consolas'" font-size="17">R – Responsible – сотрудник, ответственный за фактическое исполнение KPI.</text>
<g>
	<defs>
		<rect id="SVGID_1_" x="-6.047" y="-3.265" width="369.047" height="276.794"/>
	</defs>
	<clipPath id="SVGID_2_">
		<use xlink:href="#SVGID_1_"  overflow="visible"/>
	</clipPath>
	<path opacity="0.11" clip-path="url(#SVGID_2_)" enable-background="new    " d="M141.357,209.658
		c-0.001-0.072-0.006-0.143-0.013-0.211c-0.009-0.176-0.021-0.346-0.029-0.506c-0.011-0.133-0.021-0.262-0.03-0.387h47.91
		c0.265-21.688-0.195-43.408-0.195-64.938c0-24.828-0.396-49.693,0.023-74.518c0.248-14.604,1.515-29.385,0.94-44.022
		c-2.103-1.757-5.038-2.852-8.292-2.852c-6.394,0-11.575,4.207-11.575,9.403h-2.937c-4.09,0-7.877,1.021-10.977,2.761h-39.479
		c-3.22,0-5.837,2.394-5.837,5.337v121.981c-7.97,7.959-19.857,21.479-21.235,25.551c-1.39,4.124-3.465,36.391-4.475,53.368
		l-4.169-0.731l-1.441,6.234l-3.323-0.585L64.688,297.9h54.811l10.869-49.321l-1.813-0.321c1.684-5.811,3.621-13.808,4.511-22.195
		c0.26-0.065,0.52-0.139,0.764-0.209c0.007-0.002,0.013-0.004,0.021-0.006c0.227-0.066,0.447-0.136,0.66-0.207
		c0.009-0.002,0.017-0.004,0.027-0.01c2.546-0.836,4.128-1.932,5.131-3.227c1.004-1.291,1.42-2.791,1.65-4.441
		c0.311-2.273,0.208-5.572,0.057-8.064C141.374,209.816,141.366,209.736,141.357,209.658z M181.673,25.093
		c2.775,0,5.026,2.058,5.026,4.599c0,2.537-2.251,4.596-5.026,4.596c-2.777,0-5.03-2.059-5.03-4.596
		C176.643,27.15,178.896,25.093,181.673,25.093z"/>
</g>
<g>
	<defs>
		<rect id="SVGID_3_" x="-6.047" y="-3.265" width="369.047" height="276.794"/>
	</defs>
	<clipPath id="SVGID_4_">
		<use xlink:href="#SVGID_3_"  overflow="visible"/>
	</clipPath>
	<path opacity="0.11" clip-path="url(#SVGID_4_)" enable-background="new    " d="M318.863,237.758l-1.309-6.477l-7.463,1.267
		c-0.482-3.603-0.99-7.272-1.486-10.758c-0.338-2.351-0.531-4.69-0.613-6.979c0.449-1.275,1.021-2.879,1.662-4.668
		c0.252,0.178,0.494,0.349,0.742,0.522c-0.131-0.776-0.172-1.593-0.107-2.454c0.271-3.619,1.641-7.219,3.793-10.212
		c0.361-0.965,0.718-1.905,1.057-2.797c0.246,0.185,0.506,0.386,0.775,0.601c0.596-0.619,1.23-1.193,1.9-1.721
		c-0.312-0.243-0.621-0.486-0.938-0.721c-0.256-0.189-0.527-0.387-0.805-0.586c0.889-2.25,1.602-3.935,1.992-4.603
		c1.856-3.181,2.094-7.571-4.696-11.931c-6.796-4.357-13.419-14.934-18.521-19.413c-2.473-2.168-5.467-3.989-8.877-5.521V28.727
		c0-2.943-2.617-5.337-5.841-5.337h-34.754c-0.078,0.337-0.271,0.658-0.621,0.905c-3.724,2.631-9.558,3.528-13.991,3.797
		c-1.42,0.086-2.906,0.081-4.3-0.158c-0.214,10.056-0.833,20.133-0.94,30.166c-0.268,24.834-0.024,49.683-0.024,74.518
		c0,21.538,0.442,43.254,0.171,64.938h21.857c2.289,5.776,4.494,11.287,4.521,11.428c2.673,4.457,4.019,14.619,12.007,22.103
		c3.362,3.147,5.692,5.838,7.309,8.017l-7.354,1.246L275.877,306h56.537l-12.436-68.434L318.863,237.758z"/>
</g>
<g>
	<defs>
		<rect id="SVGID_5_" x="-6.047" y="-3.265" width="369.047" height="276.794"/>
	</defs>
	<clipPath id="SVGID_6_">
		<use xlink:href="#SVGID_5_"  overflow="visible"/>
	</clipPath>
	<g clip-path="url(#SVGID_6_)">
		<path fill="#32526E" d="M115.207,250.672c-3.845,0-6.974-3.128-6.974-6.972V30.195c0-3.844,3.128-6.973,6.974-6.973h155.18
			c3.846,0,6.975,3.129,6.975,6.973V243.7c0,3.844-3.129,6.972-6.975,6.972H115.207z"/>
		
			<rect x="121.816" y="36.416" transform="matrix(-0.9995 -0.0331 0.0331 -0.9995 384.0313 281.6677)" fill="#F2F2F2" width="145.063" height="202.478"/>
		
			<rect x="119.23" y="33.086" transform="matrix(-0.9986 0.0523 -0.0523 -0.9986 390.2738 258.4233)" fill="#E6E6E6" width="145.052" height="202.464"/>
		
			<rect x="117.971" y="32.58" transform="matrix(0.9998 0.0204 -0.0204 0.9998 2.7693 -3.8582)" fill="#F2F2F2" width="145.055" height="202.47"/>
		<rect x="120.249" y="34.064" fill="#FFFFFF" width="145.054" height="202.467"/>
		<rect x="161.402" y="48.676" fill="#B3B3B3" width="62.739" height="8.52"/>
		<rect x="144.357" y="67.516" fill="#B3B3B3" width="111.038" height="5.683"/>
		<rect x="144.357" y="80.516" fill="#B3B3B3" width="64.038" height="5.683"/>
		<rect x="144.357" y="93.516" fill="#B3B3B3" width="32.037" height="5.683"/>
		<rect x="144.357" y="106.516" fill="#B3B3B3" width="23.643" height="5.683"/>
		<g>
			<path fill="#E74B3C" d="M210.125,19.619h-3.504c0-6.782-6.191-12.281-13.822-12.281c-7.638,0-13.824,5.499-13.824,12.281h-3.509
				c-12.5,0-22.638,8.728-22.638,19.491h79.939C232.768,28.347,222.629,19.619,210.125,19.619z M192.799,23.096
				c-3.318,0-6.008-2.691-6.008-6.008c0-3.314,2.688-6.002,6.008-6.002c3.314,0,6.006,2.688,6.006,6.002
				C198.805,20.404,196.113,23.096,192.799,23.096z"/>
			<path fill="#C1392B" d="M152.828,39.11h79.939l0,0c0-0.926-0.078-1.844-0.229-2.738h-79.486
				C152.905,37.267,152.828,38.185,152.828,39.11L152.828,39.11z"/>
		</g>
		<g>
			<path fill="#E74B3C" d="M251.225,75.429c-21.404,0.029-42.809,0.058-64.211,0.085c-1.891,0.003-1.894,2.943,0,2.938
				c21.403-0.026,42.807-0.055,64.211-0.084C253.116,78.365,253.118,75.427,251.225,75.429z"/>
			<path fill="#E74B3C" d="M200.462,114.952c8.788-0.265,17.574-0.35,26.364-0.26c1.891,0.019,1.893-2.923,0-2.942
				c-8.79-0.091-17.576-0.002-26.364,0.261C198.574,112.067,198.566,115.006,200.462,114.952z"/>
			<path fill="#E74B3C" d="M247.301,142.455c-11.107,0-22.22,0-33.33,0c-1.889,0-1.892,2.941,0,2.941c11.11,0,22.223,0,33.33,0
				C249.195,145.396,249.197,142.455,247.301,142.455z"/>
		</g>
	</g>
</g>
<g>
	<defs>
		<rect id="SVGID_7_" x="-6.047" y="-3.265" width="369.047" height="276.794"/>
	</defs>
	<clipPath id="SVGID_8_">
		<use xlink:href="#SVGID_7_"  overflow="visible"/>
	</clipPath>
	<g clip-path="url(#SVGID_8_)">
		<path fill="#F0AE74" d="M307.316,195.497c-0.07-0.015-0.142-0.024-0.215-0.052c-0.5-0.17-1-0.34-1.5-0.51
			c-5.381-1.43-11.838-1.151-16.377-4.832c-4.789-3.885-7.695-8.231-10.936-13.422c-1.658-2.656-5.087-6.58-7.176-10.479
			c-0.914,0.247-1.564-0.334-1.758-1.052c-9.438,9.623,29.683,35.611,37.144,38.099c5.89,1.812,8.254,0.497,8.676-2.215
			C312.521,199.236,309.911,197.38,307.316,195.497z"/>
		<g>
			<path fill="#F0AE74" d="M308.107,195.113c-3.403-0.801-6.767-1.496-10.219-2.133c-5.291-0.977-8.824-3.768-12.339-7.649
				c-3.058-3.378-5.185-7.437-7.821-11.117c-1.285-1.795-2.623-3.545-3.879-5.36c-0.638-0.94-1.228-1.91-1.771-2.908
				c-0.259-0.448-1.966-1.352-1.759-1.051c-0.303-0.442-1.563,0.008-1.842,0.321c-7.756,8.724,13.961,23.608,19.275,27.527
				c3.682,2.715,25.614,19.522,28.374,8.127c0.031-0.067,0.017-0.125-0.045-0.169c-2.646-1.809-5.261-3.66-7.858-5.538
				c-0.447-0.324-2.123,0.446-1.817,0.668c2.077,1.502,4.165,2.987,6.271,4.452c4.733,3.294-4.121,3.158-6.379,2.195
				c-1.73-0.74-3.375-1.703-5-2.646c-5.268-3.056-10.275-6.581-15.094-10.298c-4.801-3.703-22.738-16.84-15.973-24.447
				c-0.614,0.107-1.229,0.215-1.844,0.322c-0.146-0.213,3.574,4.209,2.598,2.512c1.381,2.398,3.166,4.588,4.81,6.809
				c2.743,3.707,4.966,7.717,7.937,11.268c6.18,7.384,14.006,7.814,22.793,9.883C306.988,195.988,308.686,195.249,308.107,195.113z"
				/>
		</g>
	</g>
</g>
<g>
	<defs>
		<rect id="SVGID_9_" x="-6.047" y="-3.265" width="369.047" height="276.794"/>
	</defs>
	<clipPath id="SVGID_10_">
		<use xlink:href="#SVGID_9_"  overflow="visible"/>
	</clipPath>
	<g clip-path="url(#SVGID_10_)">
		<g>
			<g>
				<path fill="#F0AE74" d="M108.011,149.641l0.778,96.873l-37.309-6.4c0,0,2.9-58.104,4.641-63.74
					c1.74-5.633,21.885-29.359,25.491-31.417c0.939-0.537,2.093-0.772,3.223-0.74c1.104,0.032,2.17,0.386,3.101,0.974l6.954,4.398
					L108.011,149.641z"/>
				<path opacity="0.54" fill="#DC9964" enable-background="new    " d="M90.306,189.586c0,0-3.222-6.461-0.395-15.627
					c2.829-9.161,7.139-13.704,10.584-15.35c3.448-1.646,13.185,26.902,0.972,31.764C94.469,193.163,90.306,189.586,90.306,189.586z
					"/>
				<path opacity="0.85" fill="#DC9964" enable-background="new    " d="M98.311,176.912c-0.147,0.396-0.304,0.801-0.475,1.211
					c-1.741-0.514-3.305-0.936-3.623-1.002c-3.187-0.686-6.347-0.596-9.528-0.967C89.136,175.548,93.837,175.896,98.311,176.912z"/>
				<path opacity="0.85" fill="#DC9964" enable-background="new    " d="M100.486,165.92c-0.013,0.148-0.026,0.299-0.039,0.447
					c-1.443-0.422-2.884-0.874-4.332-1.342c0.866,0.203,1.771,0.353,2.58,0.525C99.29,165.678,99.889,165.801,100.486,165.92z"/>
				<path opacity="0.85" fill="#DC9964" enable-background="new    " d="M104.632,151.482c-0.012,0.063-0.022,0.123-0.034,0.185
					l-1.311,7.165c-0.365,1.49-1.541,6.281-1.71,7.331c-0.408,2.483-1.053,5.121-2.067,7.958c-0.001,0.004-0.005,0.004-0.005,0.008
					c-1.653,4.633-4.297,9.796-8.501,15.669c-0.096,0.14-0.194,0.276-0.295,0.412l-2.542,2.569c0.367-1.18,0.906-2.273,1.61-3.243
					c4.55-6.284,7.219-11.169,8.662-15.839c0.267-0.865,0.492-1.719,0.684-2.569v-0.004c0.503-1.718,0.893-3.435,1.177-5.171
					c0.133-0.818,0.805-3.624,1.362-5.909l0.001-0.006c0.129-0.53,0.251-1.034,0.362-1.476c0,0,1.327-7.276,1.341-7.344
					c0.272-1.306,0.829-2.507,1.625-3.529c1.045-1.344,3.598-2.092,3.598-2.092l0.737,0.469
					C107.005,146.912,105.17,148.906,104.632,151.482z"/>
			</g>
		</g>
		<g>
			<g>
				<path fill="#F0AE74" d="M108.999,246.458c0,0-27.877-42.769-18.081-56.304c6.996-9.668,9.775-17.412,10.865-24.049
					c0.173-1.047,1.35-5.838,1.717-7.33l1.307-7.166c0.012-0.063,0.023-0.123,0.035-0.185c0.813-3.899,4.597-6.461,8.539-5.739
					c3.005,0.547,5.11,2.877,5.872,5.646c0.697,2.541-0.946,12.287-1.501,14.652c-0.172,0.744-1.659,10.844-1.804,11.875
					c-1.241,8.822-0.974,15.662-0.974,15.662C120.007,215.247,108.999,246.458,108.999,246.458z"/>
				<path opacity="0.11" enable-background="new    " d="M120.505,168.738c-0.173,0.746-1.658,10.842-1.807,11.875
					c-1.241,8.818-0.972,15.658-0.972,15.658c0.108,1.896-1.483,9.924-1.392,10.396l-0.602-8.995
					c-0.197-1.415-0.443-2.798-0.758-4.15c0,0-0.267-6.838,0.974-15.66c0.145-1.031,1.631-11.131,1.806-11.875
					c0.555-2.366,2.2-12.112,1.5-14.653c-0.201-0.733-0.494-1.437-0.876-2.078c1.808,1.03,3.076,2.813,3.628,4.828
					C122.705,156.625,121.06,166.369,120.505,168.738z"/>
				<g>
					<path fill="#F6E2CA" d="M111.849,159.135c1.583-0.082,4.203-1.244,5.731-7.445c0,0-0.679-3.346-4.452-4.205
						c-3.77-0.855-5.832,1.869-5.832,1.869c-1.526,7.328,1.293,9.062,2.607,9.469C110.273,158.938,111.056,159.176,111.849,159.135z
						"/>
					<path opacity="0.7" fill="#FFFFFF" enable-background="new    " d="M114.095,158.273c-0.822,0.625-1.618,0.826-2.247,0.857
						c-0.47,0.025-0.936-0.047-1.315-0.134c-0.003-0.002-0.005-0.002-0.01-0.002c-0.003-0.003-0.005-0.003-0.005-0.003
						s-0.002,0-0.007,0c0,0,0,0-0.002,0c-0.252-0.059-0.461-0.127-0.605-0.172c-0.638-0.2-1.632-0.709-2.31-2.023
						c0.997-0.002,2.139,0.127,3.331,0.398C112.114,157.467,113.2,157.84,114.095,158.273z"/>
					<path opacity="0.7" fill="#FFFFFF" enable-background="new    " d="M107.297,149.354c0,0,2.062-2.726,5.832-1.869
						c3.773,0.859,4.452,4.203,4.452,4.203c-0.038,0.153-0.075,0.301-0.114,0.444c-0.05-0.256-0.774-3.56-4.399-4.381
						c-3.579-0.813-5.653,1.752-5.854,2.017C107.237,149.629,107.267,149.49,107.297,149.354z"/>
				</g>
				<path opacity="0.54" fill="#DC9964" enable-background="new    " d="M108.999,246.458c0,0-6.808,0.075-8.473-1.892
					c1.983-4.4,13.639-26.349,14.362-38.145c0.295-4.85-1.236-12.613-1.151-18.421c0.041-2.839,0.268-7.245,0.981-12.308
					c0.147-1.033,1.629-11.131,1.804-11.879c0.553-2.367,2.198-12.106,1.501-14.651c-0.077-0.276-0.168-0.554-0.272-0.821
					c0.694,0.873,1.201,1.896,1.501,2.989c0.697,2.541-0.946,12.287-1.5,14.653c-0.174,0.744-1.661,10.844-1.806,11.875
					c-1.241,8.82-0.974,15.66-0.974,15.66C120.007,215.247,108.999,246.458,108.999,246.458z"/>
			</g>
			<g>
				<polygon fill="#FFFFFF" points="90.794,233.352 88.439,244.51 64.945,244.51 68.211,229.012 				"/>
				<polygon fill="#E6E7E8" points="113.375,237.691 111.94,244.51 88.439,244.51 90.794,233.352 				"/>
				<polygon fill="#32526E" points="89.481,239.583 77.401,298.547 50.732,298.547 63.854,234.658 				"/>
				<polygon fill="#263E53" points="115.103,244.51 105.099,293.259 78.324,293.259 89.481,239.583 				"/>
			</g>
		</g>
	</g>
</g>
<g>
	<defs>
		<rect id="SVGID_11_" x="-6.047" y="-3.265" width="369.047" height="276.794"/>
	</defs>
	<clipPath id="SVGID_12_">
		<use xlink:href="#SVGID_11_"  overflow="visible"/>
	</clipPath>
	<g clip-path="url(#SVGID_12_)">
		<path fill="#0398CC" d="M143.091,213.258v4.43h15.879l-0.103-1.528c-0.018-0.362,0.095-0.683,0.337-0.959
			c0.224-0.275,0.526-0.433,0.906-0.466c0.363-0.019,0.683,0.095,0.958,0.338c0.259,0.223,0.406,0.523,0.439,0.904l0.13,1.711
			h20.621v-1.633c0-0.363,0.13-0.674,0.39-0.933c0.258-0.259,0.569-0.39,0.931-0.39c0.363,0,0.674,0.131,0.935,0.39
			c0.258,0.259,0.387,0.569,0.387,0.933v1.633h19.378v-1.865c0-0.363,0.129-0.674,0.389-0.934c0.262-0.259,0.57-0.388,0.932-0.388
			c0.363,0,0.674,0.129,0.934,0.388c0.261,0.26,0.389,0.569,0.389,0.934v1.865h20.749v-1.633c0-0.363,0.13-0.674,0.39-0.933
			s0.57-0.39,0.933-0.39s0.676,0.131,0.935,0.39c0.26,0.259,0.389,0.569,0.389,0.933v1.633h22.484l-0.129-1.969
			c-0.018-0.361,0.096-0.684,0.338-0.96c0.225-0.274,0.518-0.432,0.881-0.465c0.361-0.019,0.683,0.093,0.959,0.336
			c0.274,0.226,0.43,0.519,0.467,0.882l0.152,2.176h4.196c0.362,0,0.675,0.129,0.935,0.389c0.26,0.259,0.39,0.57,0.39,0.932
			c0,0.363-0.13,0.676-0.39,0.934c-0.26,0.261-0.57,0.389-0.935,0.389h-5.335c-0.035,0-0.068,0-0.104,0h-93.726
			c-0.07,0-0.138,0-0.207,0h-17.201v6.632c0,0.363-0.129,0.675-0.39,0.933c-0.258,0.26-0.568,0.39-0.931,0.39
			c-0.363,0-0.674-0.13-0.933-0.39c-0.259-0.258-0.389-0.568-0.389-0.933v-6.632h-6.631c-0.363,0-0.674-0.128-0.934-0.389
			c-0.259-0.258-0.388-0.569-0.388-0.934c0-0.361,0.129-0.673,0.388-0.932c0.26-0.26,0.57-0.389,0.934-0.389h6.631V116.345
			c0-0.361,0.129-0.673,0.389-0.932c0.259-0.26,0.57-0.39,0.933-0.39c0.363,0,0.673,0.13,0.931,0.39
			c0.26,0.259,0.39,0.57,0.39,0.932v2.979h2.099c0.362,0,0.673,0.129,0.933,0.389c0.259,0.259,0.388,0.569,0.388,0.933
			c0,0.362-0.129,0.673-0.388,0.932c-0.259,0.26-0.57,0.389-0.933,0.389h-2.099v14.404h2.099c0.362,0,0.673,0.13,0.933,0.388
			c0.259,0.26,0.388,0.57,0.388,0.934c0,0.362-0.129,0.673-0.388,0.932c-0.259,0.26-0.57,0.389-0.933,0.389h-2.099v13.498h2.539
			c0.362,0,0.673,0.129,0.933,0.389c0.259,0.259,0.389,0.57,0.389,0.933s-0.129,0.675-0.389,0.933
			c-0.259,0.26-0.57,0.389-0.933,0.389h-2.539v17.564h1.631c0.363,0,0.675,0.129,0.934,0.389c0.259,0.26,0.39,0.57,0.39,0.934
			s-0.13,0.673-0.39,0.932c-0.258,0.262-0.57,0.389-0.934,0.389h-1.631v20.076h3.005c0.362,0,0.673,0.131,0.933,0.392
			c0.259,0.259,0.388,0.567,0.388,0.931c0,0.364-0.129,0.676-0.388,0.934c-0.26,0.259-0.571,0.388-0.933,0.388h-3.005v13.369v1.808
			H143.091z"/>
		<path fill="#089848" d="M143.091,213.258v-1.814c0.052-0.067,0.104-0.131,0.156-0.182l13.702-14.324
			c0.157-0.156,0.33-0.277,0.519-0.361c0.207-0.088,0.414-0.131,0.622-0.131h20.18l9.56-10.932c0.154-0.174,0.335-0.304,0.542-0.391
			c0.208-0.104,0.424-0.154,0.647-0.154h12.563l11.478-25.439c0.121-0.275,0.311-0.5,0.57-0.672
			c0.258-0.174,0.542-0.262,0.854-0.262h10.027l33.494-40.592c0.275-0.329,0.639-0.51,1.09-0.544c0.43-0.053,0.811,0.06,1.139,0.336
			s0.519,0.64,0.568,1.087c0.035,0.433-0.086,0.813-0.363,1.141l-33.959,41.164c-0.158,0.174-0.338,0.312-0.545,0.414
			c-0.207,0.104-0.433,0.154-0.672,0.154h-9.742l-11.476,25.439c-0.139,0.277-0.338,0.5-0.597,0.675
			c-0.26,0.173-0.543,0.259-0.855,0.259h-12.848l-9.585,10.932c-0.155,0.174-0.337,0.311-0.542,0.414
			c-0.208,0.088-0.424,0.131-0.65,0.131h-20.206l-13.237,13.832c-0.311,0.312-0.682,0.476-1.114,0.494
			c-0.433,0.016-0.804-0.131-1.114-0.441C143.211,213.42,143.143,213.344,143.091,213.258z"/>
	</g>
</g>
<rect x="-6.047" y="-3.265" fill="none" width="369.047" height="276.794"/>
<g>
	<path fill="#FFFFFF" d="M210.975,103.729c3.901-3.426,7.178-5.328,9.826-5.71h37.67l6.812,7.187v43.952l-14.041,11.761
		l-27.039,3.58l-5.736-3.821l0.009,0.008l-13.675-9.129h-0.019l-5.764-16.377C197.943,122.159,201.93,111.677,210.975,103.729z"/>
	<g>
		<path fill="#42B549" d="M212.816,150.395c0.121-0.274,0.293-0.483,0.52-0.627c0.252-0.168,0.52-0.25,0.807-0.25h9.199
			l18.688-23.262l-4.01-2.98l19.047-11.134l-6.266,20.639l-4.188-3.123v0.277l-0.018-0.018l-19.387,24.11
			c-0.145,0.166-0.311,0.291-0.502,0.375c-0.189,0.107-0.398,0.162-0.626,0.162h-8.914l-2.765,6.899l-4.789-3.741L212.816,150.395z"
			/>
	</g>
</g>
<g enable-background="new    ">
	<path fill="#EC2224" d="M220.806,109.146c0,0.371-0.062,0.716-0.183,1.035c-0.122,0.319-0.289,0.625-0.501,0.919
		c-0.213,0.293-0.465,0.581-0.758,0.861s-0.61,0.567-0.953,0.861v0.031c0.569-0.042,0.992-0.062,1.269-0.062h1.62v1.552h-5.239
		v-1.12c0.434-0.371,0.846-0.735,1.237-1.093s0.735-0.7,1.03-1.027c0.295-0.327,0.528-0.645,0.702-0.954
		c0.173-0.309,0.26-0.612,0.26-0.911c0-0.18-0.027-0.332-0.081-0.456s-0.129-0.225-0.226-0.305c-0.097-0.08-0.21-0.138-0.34-0.174
		c-0.13-0.036-0.271-0.054-0.424-0.054c-0.297,0-0.625,0.06-0.983,0.178c-0.359,0.119-0.73,0.293-1.113,0.525v-1.552
		c0.132-0.087,0.281-0.174,0.448-0.259s0.348-0.162,0.541-0.232c0.194-0.069,0.401-0.126,0.622-0.169
		c0.221-0.044,0.448-0.066,0.684-0.066c0.351,0,0.672,0.054,0.965,0.162c0.293,0.108,0.544,0.267,0.755,0.475
		c0.21,0.208,0.374,0.466,0.491,0.772C220.746,108.391,220.806,108.745,220.806,109.146z"/>
	<path fill="#EC2224" d="M227.702,110.606c0,0.562-0.061,1.081-0.183,1.56c-0.121,0.479-0.302,0.893-0.541,1.243
		s-0.537,0.625-0.894,0.827c-0.357,0.201-0.771,0.301-1.24,0.301c-0.462,0-0.87-0.1-1.225-0.301
		c-0.355-0.201-0.654-0.477-0.897-0.827s-0.428-0.764-0.554-1.243s-0.188-0.999-0.188-1.56c0-0.561,0.063-1.081,0.188-1.56
		c0.126-0.479,0.311-0.894,0.554-1.247c0.243-0.353,0.542-0.628,0.897-0.826c0.354-0.198,0.763-0.297,1.225-0.297
		c0.47,0,0.883,0.099,1.24,0.297c0.356,0.198,0.654,0.474,0.894,0.826c0.239,0.353,0.42,0.769,0.541,1.247
		C227.642,109.525,227.702,110.045,227.702,110.606z M226.187,110.606c0-0.782-0.115-1.383-0.347-1.803
		c-0.23-0.419-0.563-0.629-0.995-0.629c-0.438,0-0.771,0.21-1.002,0.629c-0.231,0.42-0.347,1.021-0.347,1.803
		c0,0.783,0.115,1.384,0.347,1.803c0.23,0.42,0.564,0.629,1.002,0.629c0.433,0,0.765-0.209,0.995-0.629
		C226.071,111.99,226.187,111.389,226.187,110.606z"/>
	<path fill="#EC2224" d="M234.229,110.606c0,0.562-0.062,1.081-0.183,1.56c-0.122,0.479-0.303,0.893-0.542,1.243
		c-0.238,0.35-0.537,0.625-0.894,0.827c-0.356,0.201-0.77,0.301-1.24,0.301c-0.462,0-0.87-0.1-1.225-0.301
		c-0.354-0.201-0.653-0.477-0.896-0.827c-0.244-0.35-0.429-0.764-0.554-1.243c-0.126-0.479-0.189-0.999-0.189-1.56
		c0-0.561,0.063-1.081,0.189-1.56c0.125-0.479,0.31-0.894,0.554-1.247c0.243-0.353,0.542-0.628,0.896-0.826s0.763-0.297,1.225-0.297
		c0.471,0,0.884,0.099,1.24,0.297s0.655,0.474,0.894,0.826c0.239,0.353,0.42,0.769,0.542,1.247
		C234.167,109.525,234.229,110.045,234.229,110.606z M232.713,110.606c0-0.782-0.116-1.383-0.347-1.803
		c-0.231-0.419-0.563-0.629-0.996-0.629c-0.437,0-0.771,0.21-1.002,0.629c-0.23,0.42-0.347,1.021-0.347,1.803
		c0,0.783,0.116,1.384,0.347,1.803c0.23,0.42,0.565,0.629,1.002,0.629c0.434,0,0.765-0.209,0.996-0.629
		C232.597,111.99,232.713,111.389,232.713,110.606z"/>
	<path fill="#EC2224" d="M234.908,107.169c0-0.566,0.049-1.059,0.146-1.479c0.097-0.42,0.233-0.769,0.408-1.046
		c0.176-0.278,0.385-0.485,0.628-0.622c0.243-0.136,0.512-0.205,0.805-0.205c0.292,0,0.561,0.068,0.804,0.205
		c0.243,0.137,0.452,0.344,0.628,0.622c0.175,0.278,0.312,0.626,0.408,1.046c0.097,0.419,0.146,0.913,0.146,1.479
		c0,0.562-0.049,1.052-0.146,1.471c-0.097,0.42-0.233,0.769-0.408,1.046c-0.176,0.278-0.385,0.487-0.628,0.625
		c-0.243,0.139-0.512,0.208-0.804,0.208c-0.293,0-0.562-0.069-0.805-0.208c-0.243-0.139-0.452-0.347-0.628-0.625
		c-0.175-0.278-0.312-0.626-0.408-1.046C234.957,108.221,234.908,107.731,234.908,107.169z M237.531,107.169
		c0-0.288-0.011-0.553-0.031-0.795c-0.021-0.242-0.056-0.45-0.104-0.625c-0.05-0.175-0.115-0.313-0.195-0.413
		c-0.08-0.1-0.183-0.15-0.306-0.15c-0.124,0-0.227,0.05-0.307,0.15c-0.08,0.101-0.146,0.238-0.195,0.413
		c-0.049,0.175-0.084,0.384-0.104,0.625c-0.021,0.242-0.031,0.507-0.031,0.795c0,0.283,0.011,0.547,0.031,0.792
		c0.021,0.245,0.056,0.455,0.104,0.629c0.05,0.175,0.115,0.313,0.195,0.414c0.08,0.1,0.183,0.15,0.307,0.15
		c0.123,0,0.226-0.05,0.306-0.15c0.08-0.101,0.146-0.238,0.195-0.414c0.049-0.175,0.084-0.385,0.104-0.629
		C237.521,107.717,237.531,107.453,237.531,107.169z M243.284,104.513l-6.037,10.101l-0.805-0.772l6.037-10.101L243.284,104.513z
		 M240.859,111.108c0-0.566,0.048-1.059,0.146-1.479c0.097-0.42,0.232-0.769,0.408-1.046c0.175-0.278,0.384-0.485,0.628-0.622
		c0.243-0.136,0.511-0.205,0.804-0.205s0.561,0.068,0.804,0.205c0.244,0.137,0.453,0.344,0.628,0.622
		c0.176,0.278,0.312,0.626,0.408,1.046c0.098,0.419,0.146,0.913,0.146,1.479c0,0.562-0.048,1.052-0.146,1.471
		c-0.097,0.42-0.232,0.769-0.408,1.046c-0.175,0.278-0.384,0.487-0.628,0.625c-0.243,0.139-0.511,0.208-0.804,0.208
		s-0.561-0.069-0.804-0.208c-0.244-0.139-0.453-0.347-0.628-0.625c-0.176-0.278-0.312-0.626-0.408-1.046
		C240.907,112.16,240.859,111.669,240.859,111.108z M243.481,111.108c0-0.288-0.01-0.553-0.03-0.795
		c-0.021-0.242-0.056-0.45-0.105-0.625c-0.05-0.175-0.114-0.313-0.194-0.413c-0.081-0.101-0.183-0.15-0.307-0.15
		s-0.226,0.05-0.307,0.15c-0.08,0.101-0.145,0.238-0.194,0.413c-0.05,0.175-0.085,0.384-0.105,0.625
		c-0.021,0.242-0.03,0.507-0.03,0.795c0,0.283,0.01,0.547,0.03,0.792c0.021,0.245,0.056,0.455,0.105,0.629
		c0.05,0.175,0.114,0.313,0.194,0.413c0.081,0.101,0.183,0.151,0.307,0.151s0.226-0.05,0.307-0.151
		c0.08-0.1,0.145-0.238,0.194-0.413c0.05-0.175,0.085-0.385,0.105-0.629C243.472,111.655,243.481,111.391,243.481,111.108z"/>
</g>
<g>
	<defs>
		<rect id="SVGID_13_" x="-6.047" y="-3.265" width="369.047" height="276.794"/>
	</defs>
	<clipPath id="SVGID_14_">
		<use xlink:href="#SVGID_13_"  overflow="visible"/>
	</clipPath>
	<g clip-path="url(#SVGID_14_)">
		<g>
			<path fill="#F0AE74" d="M322.439,183.48c-7.239-2.353-16.156-10.709-21.951-13.635c-5.793-2.924-13.077-3.84-21.314-3.418
				c-0.494,0.023-0.975,0.055-1.438,0.082c-2.649-0.506-4.696-0.873-5.073-0.925c-1.067-0.146-3.601-1.118-7.647-1.241
				c4.084,5.031,8.555,9.723,12.823,14.596c0.492,0.498,0.978,1.004,1.474,1.5c0.424,0.426,0.521,0.906,0.416,1.332
				c0.806,0.17,1.516,0.354,1.932,0.58c0.087,0.047,0.158,0.096,0.22,0.147c0.069,0.058,0.158,0.151,0.267,0.274
				c0.871,0.992,2.918,3.856,4.787,5.627c1.338,1.263,9.658,9.295,14.896,14.355c1.186,1.143,1.104,3.061-0.165,4.104l-0.394,0.322
				c0.651,3.338,0.387,7.166,2.049,10.109c1.639,2.904,4.328,5.234,7.248,6.809c5.521,2.975,11.574,3.744,17.756,3.356
				c0.033-0.497,0.105-0.99,0.197-1.478c-0.037-1.437,0.114-2.86,0.549-4.201c0.121-7.494,0.457-25.325,1-28.118
				C330.764,190.105,329.68,185.833,322.439,183.48z"/>
			<path opacity="0.54" fill="#DC9964" enable-background="new    " d="M329.068,221.779c0.119-7.494,0.455-25.326,0.998-28.118
				c0.68-3.472-0.338-7.622-7.116-10.007c2.84,2.301,3.237,5.173,2.747,7.688c-0.432,2.199-0.729,13.725-0.896,22.186
				c0.815,2.566,0.76,5.226,0.547,7.881c0.584,1.572,1.228,3.146,1.938,4.708c0.207,0.454,0.416,0.913,0.626,1.376
				c0.137-0.008,0.273-0.018,0.41-0.026c0.033-0.499,0.105-0.993,0.197-1.483C328.48,224.545,328.634,223.12,329.068,221.779z"/>
			<path opacity="0.85" fill="#DC9964" enable-background="new    " d="M298.616,198.771c-4.981-4.813-9.373-10.082-10.739-11.369
				c-1.227-1.16-2.578-2.879-3.566-4.135c-0.473-0.6-0.843-1.072-1.133-1.401c-0.15-0.171-0.279-0.304-0.4-0.407
				c-0.141-0.12-0.297-0.227-0.471-0.32c-0.729-0.396-1.912-0.646-3.185-0.891c0.063,0.063,0.125,0.128,0.188,0.191
				c0.424,0.426,0.521,0.904,0.416,1.332c0.805,0.17,1.515,0.354,1.932,0.58c0.087,0.047,0.16,0.096,0.22,0.146
				c0.069,0.059,0.158,0.152,0.267,0.275c0.871,0.992,2.92,3.857,4.789,5.627c1.307,1.234,9.301,8.951,14.551,14.022
				C300.014,200.521,298.746,198.896,298.616,198.771z"/>
			<path opacity="0.85" fill="#DC9964" enable-background="new    " d="M321.884,187.15c-0.887-0.596-0.466-0.522-7.888-4.205
				c-7.791-3.862-18.807-12.079-21.822-13.217c-1.986-0.748-9.35-2.242-14.458-3.215c0.464-0.029,0.944-0.058,1.441-0.082
				c0.376-0.021,0.749-0.037,1.12-0.05c4.902,0.954,10.916,2.208,12.682,2.873c3.018,1.138,13.915,9.597,21.823,13.218
				C316.225,183.135,320.262,185.486,321.884,187.15z"/>
		</g>
	</g>
</g>
<g>
	<defs>
		<rect id="SVGID_15_" x="-6.047" y="-3.265" width="369.047" height="276.794"/>
	</defs>
	<clipPath id="SVGID_16_">
		<use xlink:href="#SVGID_15_"  overflow="visible"/>
	</clipPath>
	<g clip-path="url(#SVGID_16_)">
		<path fill="#957B2E" d="M270.092,161.801l-4.912,4.807l37.271,48.791c10.557,2.64,14.769-0.864,12.63-10.512l2.236,2.166
			c3.41,12.799-1.502,17.545-14.739,14.239L259.504,164.9c-6.438,3.965-13.672,5.815-21.704,5.555
			c-10.774-0.37-19.851-4.463-27.225-12.273c-1.415-1.486-2.688-3.029-3.821-4.627c7.075,6.762,15.626,10.313,25.65,10.654
			c10.785,0.385,20.113-3.08,27.979-10.391c7.902-7.271,12.027-16.24,12.378-26.911c0.305-8.627-1.933-16.313-6.715-23.06
			c0.539,0.505,1.076,1.037,1.611,1.602c7.373,7.813,10.879,17.053,10.517,27.721c-0.358,10.084-4.073,18.651-11.146,25.707
			L270.092,161.801z"/>
		<path fill="#F4DF60" d="M315.079,204.887c2.138,9.646-2.073,13.15-12.63,10.512l-37.27-48.791l4.911-4.807L315.079,204.887z"/>
		<path fill="#F4DF60" d="M200.206,129.662c0.308,3.992,1.413,7.94,3.315,11.841c0.953,1.956,2.041,3.749,3.268,5.379
			c3.48,4.8,8.125,8.361,13.934,10.679l1.887,0.689c0.621,0.223,1.24,0.428,1.861,0.613c8.071,2.252,15.961,1.498,23.663-2.258
			c8.31-4.049,13.986-10.416,17.035-19.104c2.183-6.235,2.537-12.359,1.067-18.372c-0.074-0.639-0.176-1.273-0.299-1.903
			c-0.36-2-1.004-3.94-1.927-5.824c-2.886-5.919-8.161-11.042-15.827-15.371c-7.727-4.307-16.229-4.931-25.511-1.871
			c-8.741,2.858-15.155,8.396-19.247,16.615c-0.961,1.943-1.727,3.895-2.292,5.852C199.88,120.882,199.568,125.228,200.206,129.662z
			 M197.576,114.621c3.613-10.262,10.343-17.796,20.188-22.598c9.834-4.803,19.897-5.464,30.193-1.981
			c1.975,0.677,3.852,1.459,5.631,2.349c7.486,3.802,13.143,9.64,16.973,17.515c4.762,9.747,5.336,19.752,1.725,30.015
			c-3.577,10.276-10.283,17.817-20.117,22.621c-9.139,4.456-18.49,5.34-28.052,2.651c-0.737-0.221-1.476-0.451-2.212-0.693
			c-10.295-3.482-17.824-10.098-22.586-19.846C194.581,134.922,194.001,124.909,197.576,114.621z"/>
		<path fill="#339898" d="M200.206,129.662c-0.638-4.435-0.326-8.78,0.929-13.034c0.566-1.957,1.331-3.908,2.293-5.852
			c4.09-8.219,10.506-13.757,19.246-16.615c9.281-3.06,17.784-2.436,25.512,1.871c7.664,4.329,12.94,9.452,15.826,15.371
			c0.922,1.884,1.565,3.824,1.928,5.824c0.123,0.63,0.224,1.265,0.299,1.903c0.033,0.374,0.066,0.753,0.1,1.139
			c0.373,2.011,0.557,4.011,0.549,5.995c0.006,0.442,0,0.886-0.021,1.325c-0.97-3.93-2.312-7.576-4.025-10.938
			c-1.681-3.323-3.464-5.9-5.345-7.73c-5.643-5.383-11.887-8.731-18.73-10.048c-5.963-1.134-11.399-0.61-16.313,1.57
			c-4.418,1.939-8.37,4.666-11.854,8.179c-3.463,3.466-5.705,6.881-6.729,10.243c-2.065,6.637-2.974,11.741-2.722,15.313
			C200.725,132.664,200.411,131.159,200.206,129.662z"/>
	</g>
</g>
<g>
	<defs>
		<rect id="SVGID_17_" x="-6.047" y="-3.265" width="369.047" height="276.794"/>
	</defs>
	<clipPath id="SVGID_18_">
		<use xlink:href="#SVGID_17_"  overflow="visible"/>
	</clipPath>
	<g clip-path="url(#SVGID_18_)">
		<g>
			<path fill="#F0AE74" d="M328.874,228.68c-0.251-0.963-0.353-1.965-0.37-2.988c-0.222-1.789-0.175-3.563-0.027-5.332
				c-0.022-0.012-0.043-0.025-0.065-0.037c-0.563,0.281-1.283,0.26-1.722-0.262c-0.609-0.727-0.992-1.513-1.233-2.336
				c-1.237-1.584-2.069-3.439-3.011-5.377c-1.803-3.709-3.733-7.283-6.176-10.578c-3.035-2.021-6.004-4.131-8.951-6.271
				c-0.071-0.016-0.143-0.025-0.217-0.051c-0.5-0.17-1-0.342-1.5-0.512c-0.451-0.119-0.914-0.225-1.381-0.324
				c1.454,2.605,2.942,5.277,4.178,7.494c0.801,1.433,0.17,3.24-1.344,3.867l-0.846,0.354c0,0-6.334,3.819-18.15-4.238
				c0,0-1.223-1.407-2.346-2.706c-0.208-0.72-4.636-10.992-5.941-14.027c-0.25-0.578-0.543-1.137-0.883-1.668
				c-1.41-2.229-3.113-4.631-4.74-6.242c-4.129-4.104-6.838-5.516-9.979-4.631c-1.886,0.526-3.66,1.373-4.031,3.051
				c-0.25,1.127,0.125,2.623,1.522,4.652c3.313,4.832,3.416,6.233,3.422,6.354l3.719,11.149c0.246,1.24,8.808,24.287,8.868,24.569
				c2.453,4.451,3.721,14.612,11.048,22.07c7.753,7.894,9.528,12.885,9.976,14.202l0.199,5.783l33.469-6.146
				c-0.811-6.766-1.885-15.48-2.928-23.268C329.137,233.027,328.966,230.839,328.874,228.68z"/>
			<path opacity="0.54" fill="#DC9964" enable-background="new    " d="M328.874,228.68c-0.256-0.982-0.362-2.004-0.376-3.048
				c-0.214-1.769-0.163-3.521-0.018-5.271c-0.024-0.014-0.047-0.027-0.069-0.041c-0.511,0.255-1.142,0.248-1.582-0.141
				c-0.062,0.184-0.124,0.381-0.183,0.562c-0.186-0.142-0.353-0.267-0.508-0.38l0.496,1.478c0,0-0.164,0.372-0.453,0.827
				c0.896,1.455,1.436,2.54-0.729,0.914c-0.367,0.367-0.805,0.679-1.311,0.768c0.479,0.375,0.885,0.688,1.235,0.952
				c0.091,2.124,0.261,4.28,0.554,6.455c0.084,0.64,0.172,1.286,0.258,1.938c1.028,7.813-4.203,15.082-11.942,16.58l-12.134,2.35
				l0.611,1.915l25.59-4.015l3.002-0.594c-0.594-4.805-1.246-9.925-1.887-14.695C329.137,233.027,328.968,230.838,328.874,228.68z"
				/>
			<path fill="#F6E2CA" d="M265.081,186.869c-0.004-0.122-0.106-1.521-3.421-6.354c-1.395-2.031-1.771-3.525-1.523-4.652
				c0.979-0.463,2.422-0.825,4.025-0.211c2.969,1.132,4.92,3.354,4.656,6.016c-0.266,2.667-1.693,4.368-2.019,4.523
				C266.591,186.288,266.057,186.68,265.081,186.869z"/>
			<path opacity="0.7" fill="#FFFFFF" enable-background="new    " d="M267.215,185.796c-0.182,0.222-0.334,0.356-0.417,0.396
				c-0.207,0.098-0.737,0.488-1.717,0.679c-0.003-0.06-0.026-0.454-0.491-1.454C265.175,185.337,266.13,185.329,267.215,185.796z"/>
		</g>
		<g>
			<polygon fill="#FFFFFF" points="338.979,251.745 313.721,256.65 290.081,261.24 288.702,253.924 312.367,249.465 
				337.648,244.701 			"/>
			<polygon fill="#E6E6E6" points="338.979,251.745 313.721,256.65 312.367,249.465 337.648,244.701 			"/>
			<polygon fill="#32526E" points="324.333,314.539 298.648,314.621 288.828,260.604 313.585,255.938 			"/>
			<polygon fill="#263E53" points="350.363,312.104 323.378,312.191 313.585,255.938 339.889,250.979 			"/>
		</g>
	</g>
</g>
<g>
	<defs>
		<rect id="SVGID_19_" x="-6.047" y="-3.265" width="369.047" height="276.794"/>
	</defs>
	<clipPath id="SVGID_20_">
		<use xlink:href="#SVGID_19_"  overflow="visible"/>
	</clipPath>
	<g clip-path="url(#SVGID_20_)">
		<path fill="#91652F" d="M-17.751-16.629l-4.064,16.125c-0.616,0.115-1.017,0.336-1.102,0.668l-12.834,50.907
			c-0.11,0.437,0.344,0.985,1.173,1.532l-0.322,1.279c-0.179,0.705,1.595,1.795,3.96,2.434c2.364,0.639,4.425,0.584,4.604-0.121
			l0.322-1.279c0.98-0.059,1.636-0.307,1.746-0.744l12.834-50.905c0.084-0.333-0.16-0.729-0.645-1.14l4.065-16.126
			c0.238-0.945-1.748-2.301-4.437-3.026C-15.139-17.752-17.512-17.574-17.751-16.629z"/>
		<path fill="#333333" d="M-13.446,2.014l4.294-17.029c0.238-0.945-1.749-2.301-4.438-3.027c-2.689-0.727-5.062-0.549-5.299,0.397
			l-4.295,17.029L-13.446,2.014z"/>
		<path fill="#333333" d="M-32.08,55.299c2.364,0.639,4.426,0.586,4.604-0.121l12.834-50.905l-8.563-2.313l-12.834,50.906
			C-36.218,53.57-34.445,54.66-32.08,55.299z"/>
		<path fill="#737374" d="M-31.581,53.316c3.172,0.857,5.935,0.785,6.174-0.161L-12.574,2.25c0.238-0.946-2.138-2.407-5.309-3.264
			c-3.171-0.855-5.935-0.783-6.173,0.162L-36.89,50.055C-37.128,51-34.751,52.461-31.581,53.316z"/>
		<path fill="#AFAFB0" d="M-31.047,51.202l12.63-50.101C-20.2,0.62-21.53,0.539-22.235,0.584l-12.389,49.138
			C-34.03,50.117-32.831,50.72-31.047,51.202z"/>
	</g>
</g>
<g>
	<defs>
		<rect id="SVGID_21_" x="-6.047" y="-3.265" width="369.047" height="276.794"/>
	</defs>
	<clipPath id="SVGID_22_">
		<use xlink:href="#SVGID_21_"  overflow="visible"/>
	</clipPath>
	<g clip-path="url(#SVGID_22_)">
		<path fill="#333333" d="M46.062,35.016c0.353,0.121,0.627,0.391,0.801,0.744l0.27-3.984l-1.9,2.946l-0.25,0.389
			c0.085-0.042,0.171-0.075,0.258-0.102C45.514,34.927,45.795,34.922,46.062,35.016z"/>
		<polygon fill="#CFB16D" points="39.166,42.286 39.606,42.292 39.166,42.286 38.64,42.937 41.226,42.968 44.983,35.11 		"/>
		<polygon fill="#FFE094" points="45.193,44.336 45.624,44.664 47.267,45.913 46.863,35.76 45.541,42.552 		"/>
		<path fill="#F2D080" d="M45.541,42.552l1.322-6.792c-0.174-0.354-0.448-0.623-0.801-0.744c-0.267-0.094-0.548-0.089-0.821-0.007
			c-0.087,0.026-0.173,0.06-0.258,0.102l-3.757,7.857l3.967,1.368L45.541,42.552z"/>
		<polygon fill="#464646" points="13.946,125.845 14.286,124.817 15.587,120.895 13.542,119.225 13.013,120.818 11.756,124.612 
			11.701,124.785 13.726,126.51 13.908,125.962 		"/>
		<polygon fill="#C6C3C2" points="18.242,112.873 18.837,111.081 31.84,71.3 41.226,42.968 38.64,42.937 29.955,69.152 
			16.406,110.582 15.779,112.471 14.035,117.738 16.079,119.407 		"/>
		<polygon fill="#E2E2E2" points="16.079,119.407 14.035,117.738 13.542,119.225 15.587,120.895 		"/>
		<polygon fill="#7E7E7E" points="19.556,122.265 19.553,122.264 18.253,126.185 17.943,127.118 17.692,127.878 20.328,127.761 
			22.214,122.067 20.323,122.207 		"/>
		<polygon fill="#F2F1EE" points="45.193,44.336 35.049,74.952 22.977,111.929 22.436,113.558 20.044,120.776 20.05,120.776 
			20.815,120.719 22.706,120.58 24.9,113.959 25.408,112.426 36.936,77.098 47.267,45.913 45.624,44.664 		"/>
		<polygon fill="#FFFFFF" points="20.05,120.776 20.044,120.776 16.083,119.41 16.079,119.407 15.587,120.895 15.591,120.897 
			19.553,122.264 19.556,122.265 20.323,122.207 22.214,122.067 22.706,120.58 20.815,120.719 		"/>
		<polygon fill="#5C5D5D" points="17.943,127.118 18.253,126.185 19.553,122.264 15.591,120.897 15.587,120.895 14.286,124.817 
			13.946,125.845 13.908,125.962 13.726,126.51 14.094,126.637 17.692,127.878 		"/>
		<polygon fill="#E5E4E1" points="18.837,111.081 18.242,112.873 16.079,119.407 16.083,119.41 20.044,120.776 22.436,113.558 
			22.977,111.929 35.049,74.952 45.193,44.336 41.226,42.968 31.84,71.3 		"/>
	</g>
</g>
<g>
	<defs>
		<rect id="SVGID_23_" x="-6.047" y="-3.265" width="369.047" height="276.794"/>
	</defs>
	<clipPath id="SVGID_24_">
		<use xlink:href="#SVGID_23_"  overflow="visible"/>
	</clipPath>
	<g clip-path="url(#SVGID_24_)">
		<path fill="#32526E" d="M63.232,149.412c0,0,8.489-45.51,10.063-56.316c4.247-29.147,5.238-53.657,2.559-58.369l-2.068-0.301
			c-3.912,3.751-9.955,27.524-14.201,56.673c-1.574,10.806-6.422,56.846-6.422,56.846c-0.129,0.883,2.021,1.927,4.802,2.33
			C60.746,150.682,63.104,150.294,63.232,149.412z"/>
		<path fill="#32526E" d="M73.843,34.434l1.956,0.284l-0.037-0.838H75.76c0.057-0.715-0.505-2.287-0.505-2.287
			s-0.987,1.347-1.137,2.048h-0.003L73.843,34.434z"/>
		<path fill="#E74B3C" d="M63.326,149.391c1.01-0.242,4.123-2.244,4.462-3.127c0.34-0.881,3.716-8.853,4.724-16.492
			c1.008-7.639,1.846-20.636,1.335-21.472c-0.511-0.837-2.018-0.633-2.272-0.332c-0.255,0.302-2.197,2.051-2.087,2.743
			c0.109,0.693,1.055,2.904,1.283,6.407c0.229,3.504-0.19,8.298-0.595,11.771c-0.51,4.364-3.11,14.253-3.61,14.911
			c-0.521,0.687-1.043,1.371-1.621,1.712c-0.576,0.338-1.919,0.143-1.919,0.143l-0.534,3.662
			C62.492,149.316,63.13,149.438,63.326,149.391z"/>
		<path fill="#E74B3C" d="M58.391,99.849l13.554,1.975c-0.047,0.29-0.095,0.578-0.143,0.868l-13.523-1.971
			C58.316,100.431,58.354,100.14,58.391,99.849z"/>
		<path fill="#E74B3C" d="M73.783,34.426c-1.593,1.527-3.54,6.376-5.574,13.56c-0.234,0.824-0.468,1.679-0.702,2.562
			c1.168,0.402,2.677,0.759,4.341,1.001c2.139,0.313,4.088,0.369,5.427,0.204c0.023-0.765,0.037-1.508,0.048-2.233
			c0.111-7.574-0.37-12.856-1.473-14.793L73.783,34.426z"/>
		<path fill="#E74B3C" d="M53.636,143.736c1.229,0.515,3.059,0.994,5.093,1.289c2.036,0.297,3.925,0.359,5.252,0.205l-0.043,0.248
			l-0.705,3.933c-0.12,0.825-2.204,1.221-4.753,0.935c-0.171-0.019-0.34-0.043-0.515-0.068c-0.176-0.025-0.345-0.051-0.514-0.08
			c-2.526-0.454-4.41-1.428-4.29-2.252L53.636,143.736z"/>
	</g>
</g>
</svg>
