<?xml version="1.0" encoding="utf-8"?>
<!-- Generator: Adobe Illustrator 15.1.0, SVG Export Plug-In . SVG Version: 6.00 Build 0)  -->
<!DOCTYPE svg PUBLIC "-//W3C//DTD SVG 1.1//EN" "http://www.w3.org/Graphics/SVG/1.1/DTD/svg11.dtd">
<svg version="1.1" xmlns="http://www.w3.org/2000/svg" xmlns:xlink="http://www.w3.org/1999/xlink" x="0px" y="0px" width="183px"
	 height="183px" viewBox="0 0 183 183" enable-background="new 0 0 183 183" xml:space="preserve">
<symbol  id="Duplicate_Items_Folder_x2F_bear" viewBox="-33.918 -93.016 144.257 169.604">
	<g id="ruki_1_">
		<path fill-rule="evenodd" clip-rule="evenodd" fill="#774A31" d="M28.275,9.85c2.085-3.131,1.077-7.664-3.025-13.6
			c-0.926-1.339-1.91-2.622-2.95-3.85c-3.564-4.221-7.789-7.788-12.675-10.7c-6.311-3.766-13.894-7.774-22.75-12.025
			c-8.851-4.246-14.535-3.596-17.05,1.95c-2.519,5.547-1.21,11.255,3.925,17.125c1.082,1.236,2.232,2.453,3.45,3.65
			c4.522,4.479,9.947,8.688,16.275,12.625c8.016,4.988,15.299,7.822,21.85,8.5C21.875,14.206,26.192,12.98,28.275,9.85z M53.55,9.85
			c1.9,3.133,5.817,4.35,11.75,3.65C71.267,12.833,77.9,10,85.2,5c5.761-3.92,10.703-8.12,14.825-12.6
			c1.1-1.197,2.142-2.413,3.125-3.65c4.667-5.867,5.85-11.583,3.55-17.15c-2.267-5.533-7.434-6.184-15.5-1.95
			c-8.034,4.267-14.934,8.283-20.7,12.05c-4.44,2.917-8.282,6.483-11.525,10.7c-0.941,1.228-1.833,2.512-2.675,3.85
			C52.567,2.183,51.65,6.717,53.55,9.85z"/>
		
			<path fill-rule="evenodd" clip-rule="evenodd" fill="none" stroke="#774A31" stroke-width="5" stroke-linecap="round" stroke-linejoin="round" stroke-miterlimit="3" d="
			M28.275,9.85c2.085-3.131,1.077-7.664-3.025-13.6c-0.926-1.339-1.91-2.622-2.95-3.85c-3.564-4.221-7.789-7.788-12.675-10.7
			c-6.311-3.766-13.894-7.774-22.75-12.025c-8.851-4.246-14.535-3.596-17.05,1.95c-2.519,5.547-1.21,11.255,3.925,17.125
			c1.082,1.236,2.232,2.453,3.45,3.65c4.522,4.479,9.947,8.688,16.275,12.625c8.016,4.988,15.299,7.822,21.85,8.5
			C21.875,14.206,26.192,12.98,28.275,9.85z M53.55,9.85c-1.9-3.133-0.983-7.667,2.75-13.6c0.842-1.338,1.734-2.622,2.675-3.85
			c3.243-4.216,7.085-7.783,11.525-10.7c5.767-3.767,12.667-7.784,20.7-12.05c8.066-4.233,13.233-3.583,15.5,1.95
			c2.3,5.566,1.117,11.283-3.55,17.15c-0.983,1.237-2.025,2.453-3.125,3.65C95.903-3.12,90.961,1.08,85.2,5
			c-7.3,5-13.934,7.833-19.9,8.5C59.367,14.2,55.45,12.983,53.55,9.85z"/>
	</g>
	<g id="body_1_">
		<path fill-rule="evenodd" clip-rule="evenodd" fill="#B87141" d="M76.5-36c0-10.233-3.617-18.95-10.85-26.15
			C58.45-69.383,49.733-73,39.5-73s-18.967,3.617-26.2,10.85C6.1-54.95,2.5-46.233,2.5-36S6.1-17.033,13.3-9.8
			c0.779,0.775,1.579,1.508,2.4,2.2C22.435-1.867,30.368,1,39.5,1s17.057-2.867,23.775-8.6c0.808-0.691,1.6-1.425,2.375-2.2
			C72.883-17.033,76.5-25.767,76.5-36z"/>
		
			<path fill-rule="evenodd" clip-rule="evenodd" fill="none" stroke="#B87141" stroke-width="7" stroke-linecap="round" stroke-linejoin="round" stroke-miterlimit="3" d="
			M76.5-36c0-10.233-3.617-18.95-10.85-26.15C58.45-69.383,49.733-73,39.5-73s-18.967,3.617-26.2,10.85C6.1-54.95,2.5-46.233,2.5-36
			S6.1-17.033,13.3-9.8c0.779,0.775,1.579,1.508,2.4,2.2C22.435-1.867,30.368,1,39.5,1s17.057-2.867,23.775-8.6
			c0.808-0.691,1.6-1.425,2.375-2.2C72.883-17.033,76.5-25.767,76.5-36z"/>
	</g>
	<g id="lapi_1_">
		<path fill-rule="evenodd" clip-rule="evenodd" fill="#774A31" d="M90.05-72.1c-2.4-6.333-6.15-11.1-11.25-14.3
			c-5.066-3.233-9.983-3.95-14.75-2.15c-4.767,1.8-8,5.6-9.7,11.4c-1.667,5.767-1.3,11.816,1.1,18.15
			c2.4,6.3,6.133,11.067,11.2,14.3c5.1,3.2,10.033,3.9,14.8,2.1c4.767-1.8,7.983-5.583,9.65-11.35C92.8-59.75,92.45-65.8,90.05-72.1
			z M21.85-58.05c2.367-6.333,2.733-12.383,1.1-18.15c-1.667-5.8-4.85-9.6-9.55-11.4c-4.667-1.8-9.483-1.083-14.45,2.15
			c-5.034,3.2-8.733,7.967-11.1,14.3c-2.333,6.3-2.667,12.35-1,18.15c1.633,5.767,4.783,9.55,9.45,11.35c4.7,1.8,9.55,1.1,14.55-2.1
			C15.85-46.983,19.517-51.75,21.85-58.05z"/>
		
			<path fill-rule="evenodd" clip-rule="evenodd" fill="none" stroke="#774A31" stroke-width="7" stroke-linecap="round" stroke-linejoin="round" stroke-miterlimit="3" d="
			M90.05-72.1c-2.4-6.333-6.15-11.1-11.25-14.3c-5.066-3.233-9.983-3.95-14.75-2.15c-4.767,1.8-8,5.6-9.7,11.4
			c-1.667,5.767-1.3,11.816,1.1,18.15c2.4,6.3,6.133,11.067,11.2,14.3c5.1,3.2,10.033,3.9,14.8,2.1
			c4.767-1.8,7.983-5.583,9.65-11.35C92.8-59.75,92.45-65.8,90.05-72.1z M21.85-58.05c-2.333,6.3-6,11.066-11,14.3
			c-5,3.2-9.85,3.9-14.55,2.1c-4.667-1.8-7.816-5.583-9.45-11.35c-1.667-5.8-1.333-11.85,1-18.15c2.367-6.333,6.066-11.1,11.1-14.3
			c4.966-3.233,9.783-3.95,14.45-2.15c4.7,1.8,7.883,5.6,9.55,11.4C24.583-70.433,24.217-64.383,21.85-58.05z"/>
	</g>
	<g id="ears_1_">
		<path fill-rule="evenodd" clip-rule="evenodd" fill="#B87141" d="M58.25,60.55c0,3.534,1.267,6.55,3.8,9.05
			c2.5,2.467,5.5,3.617,9,3.45c3.534-0.133,6.467-1.633,8.8-4.5c2.367-2.833,3.683-5.767,3.95-8.8c0.267-3-0.867-5.733-3.4-8.2
			c-2.533-2.5-5.6-3.75-9.2-3.75c-3.6,0-6.65,1.25-9.15,3.75C59.517,54.017,58.25,57.017,58.25,60.55z M20,60.55
			c0-3.533-1.25-6.533-3.75-9c-2.467-2.5-5.467-3.75-9-3.75S0.7,49.05-1.8,51.55c-2.47,2.464-3.578,5.206-3.325,8.225
			c0.258,3.025,1.542,5.958,3.85,8.8c2.308,2.842,5.191,4.342,8.65,4.5c3.453,0.153,6.411-1.006,8.875-3.475
			C18.75,67.1,20,64.083,20,60.55z"/>
		
			<path fill-rule="evenodd" clip-rule="evenodd" fill="none" stroke="#B87141" stroke-width="7" stroke-linecap="round" stroke-linejoin="round" stroke-miterlimit="3" d="
			M58.25,60.55c0-3.533,1.267-6.533,3.8-9c2.5-2.5,5.55-3.75,9.15-3.75c3.6,0,6.667,1.25,9.2,3.75c2.533,2.467,3.667,5.2,3.4,8.2
			c-0.267,3.033-1.583,5.967-3.95,8.8c-2.333,2.867-5.267,4.367-8.8,4.5c-3.5,0.167-6.5-0.983-9-3.45
			C59.517,67.1,58.25,64.083,58.25,60.55z M20,60.55c0-3.533-1.25-6.533-3.75-9c-2.467-2.5-5.467-3.75-9-3.75S0.7,49.05-1.8,51.55
			c-2.47,2.464-3.578,5.206-3.325,8.225c0.258,3.025,1.542,5.958,3.85,8.8c2.308,2.842,5.191,4.342,8.65,4.5
			c3.453,0.153,6.411-1.006,8.875-3.475C18.75,67.1,20,64.083,20,60.55z"/>
	</g>
	<g id="head_1_">
		<path fill-rule="evenodd" clip-rule="evenodd" fill="#774A31" d="M39.25,68.05c9.933,0,18.417-3.517,25.45-10.55
			c7.033-7.033,10.55-15.517,10.55-25.45c0-9.933-3.517-18.417-10.55-25.45C57.667-0.433,49.183-3.95,39.25-3.95
			S20.833-0.433,13.8,6.6C6.767,13.633,3.25,22.117,3.25,32.05c0,4.116,0.6,7.982,1.8,11.6c1.714,5.114,4.631,9.73,8.75,13.85
			c2.86,2.86,5.96,5.135,9.3,6.825C27.973,66.808,33.356,68.05,39.25,68.05z"/>
		
			<path fill-rule="evenodd" clip-rule="evenodd" fill="none" stroke="#774A31" stroke-width="5" stroke-linecap="round" stroke-linejoin="round" stroke-miterlimit="3" d="
			M39.25,68.05c9.933,0,18.417-3.517,25.45-10.55c7.033-7.033,10.55-15.517,10.55-25.45c0-9.933-3.517-18.417-10.55-25.45
			C57.667-0.433,49.183-3.95,39.25-3.95S20.833-0.433,13.8,6.6C6.767,13.633,3.25,22.117,3.25,32.05c0,4.116,0.6,7.982,1.8,11.6
			c1.714,5.114,4.631,9.73,8.75,13.85c2.86,2.86,5.96,5.135,9.3,6.825C27.973,66.808,33.356,68.05,39.25,68.05z"/>
	</g>
	<g id="eyes_1_">
		<path fill-rule="evenodd" clip-rule="evenodd" fill="#594A37" d="M23.65,42.1c0.4,0,0.733-0.133,1-0.4
			c0.267-0.3,0.4-0.65,0.4-1.05s-0.133-0.733-0.4-1s-0.6-0.4-1-0.4s-0.75,0.133-1.05,0.4c-0.233,0.267-0.35,0.6-0.35,1
			s0.117,0.75,0.35,1.05C22.9,41.967,23.25,42.1,23.65,42.1z M54.1,39.65c-0.233,0.267-0.35,0.6-0.35,1s0.117,0.75,0.35,1.05
			c0.3,0.267,0.65,0.4,1.05,0.4s0.733-0.133,1-0.4c0.267-0.3,0.4-0.65,0.4-1.05s-0.133-0.733-0.4-1s-0.6-0.4-1-0.4
			S54.4,39.383,54.1,39.65z"/>
		<path fill-rule="evenodd" clip-rule="evenodd" fill="#FFFFFF" d="M23.65,46.05c1.133,0,2.1-0.483,2.9-1.45
			c0.4-0.5,0.7-1.033,0.9-1.6c0.2-0.633,0.3-1.317,0.3-2.05c0-1.434-0.4-2.633-1.2-3.6c-0.8-1.033-1.767-1.55-2.9-1.55
			s-2.1,0.517-2.9,1.55c-0.833,0.967-1.25,2.167-1.25,3.6c0,0.733,0.117,1.417,0.35,2.05c0.078,0.222,0.17,0.438,0.275,0.65
			c0.173,0.329,0.381,0.646,0.625,0.95c0.667,0.806,1.451,1.273,2.35,1.4C23.279,46.033,23.462,46.05,23.65,46.05z M23.65,42.1
			c-0.4,0-0.75-0.133-1.05-0.4c-0.233-0.3-0.35-0.65-0.35-1.05s0.117-0.733,0.35-1c0.3-0.267,0.65-0.4,1.05-0.4s0.733,0.133,1,0.4
			s0.4,0.6,0.4,1s-0.133,0.75-0.4,1.05C24.383,41.967,24.05,42.1,23.65,42.1z M54.9,46.05c1.133,0,2.1-0.483,2.9-1.45
			c0.4-0.5,0.7-1.033,0.9-1.6c0.2-0.633,0.3-1.317,0.3-2.05c0-1.434-0.4-2.633-1.2-3.6c-0.8-1.033-1.767-1.55-2.9-1.55
			s-2.1,0.517-2.9,1.55c-0.833,0.967-1.25,2.167-1.25,3.6c0,0.733,0.117,1.417,0.35,2.05c0.2,0.567,0.5,1.1,0.9,1.6
			C52.8,45.567,53.767,46.05,54.9,46.05z M54.1,39.65c0.3-0.267,0.65-0.4,1.05-0.4s0.733,0.133,1,0.4s0.4,0.6,0.4,1
			s-0.133,0.75-0.4,1.05c-0.267,0.267-0.6,0.4-1,0.4s-0.75-0.133-1.05-0.4c-0.233-0.3-0.35-0.65-0.35-1.05S53.867,39.917,54.1,39.65
			z"/>
		
			<path fill-rule="evenodd" clip-rule="evenodd" fill="none" stroke="#FFFFFF" stroke-width="2" stroke-linecap="round" stroke-linejoin="round" stroke-miterlimit="3" d="
			M23.65,46.05c1.133,0,2.1-0.483,2.9-1.45c0.4-0.5,0.7-1.033,0.9-1.6c0.2-0.633,0.3-1.317,0.3-2.05c0-1.434-0.4-2.633-1.2-3.6
			c-0.8-1.033-1.767-1.55-2.9-1.55s-2.1,0.517-2.9,1.55c-0.833,0.967-1.25,2.167-1.25,3.6c0,0.733,0.117,1.417,0.35,2.05
			c0.078,0.222,0.17,0.438,0.275,0.65c0.173,0.329,0.381,0.646,0.625,0.95c0.667,0.806,1.451,1.273,2.35,1.4
			C23.279,46.033,23.462,46.05,23.65,46.05z M54.9,46.05c1.133,0,2.1-0.483,2.9-1.45c0.4-0.5,0.7-1.033,0.9-1.6
			c0.2-0.633,0.3-1.317,0.3-2.05c0-1.434-0.4-2.633-1.2-3.6c-0.8-1.033-1.767-1.55-2.9-1.55s-2.1,0.517-2.9,1.55
			c-0.833,0.967-1.25,2.167-1.25,3.6c0,0.733,0.117,1.417,0.35,2.05c0.2,0.567,0.5,1.1,0.9,1.6C52.8,45.567,53.767,46.05,54.9,46.05
			z"/>
		
			<path fill-rule="evenodd" clip-rule="evenodd" fill="none" stroke="#774A31" stroke-width="3" stroke-linecap="round" stroke-linejoin="round" stroke-miterlimit="3" d="
			M23.65,42.1c0.4,0,0.733-0.133,1-0.4c0.267-0.3,0.4-0.65,0.4-1.05s-0.133-0.733-0.4-1s-0.6-0.4-1-0.4s-0.75,0.133-1.05,0.4
			c-0.233,0.267-0.35,0.6-0.35,1s0.117,0.75,0.35,1.05C22.9,41.967,23.25,42.1,23.65,42.1z M54.1,39.65
			c-0.233,0.267-0.35,0.6-0.35,1s0.117,0.75,0.35,1.05c0.3,0.267,0.65,0.4,1.05,0.4s0.733-0.133,1-0.4c0.267-0.3,0.4-0.65,0.4-1.05
			s-0.133-0.733-0.4-1s-0.6-0.4-1-0.4S54.4,39.383,54.1,39.65z"/>
	</g>
	<g id="rot_1_">
		<path fill-rule="evenodd" clip-rule="evenodd" fill="#FFFFFF" d="M25.2,27c3.633,2.367,8.233,3.617,13.8,3.75
			s10.417-1.05,14.55-3.55c4.133-2.467,5.917-6.034,5.35-10.7c-0.6-4.633-2.6-8.467-6-11.5s-7.783-4.5-13.15-4.4
			C34.35,0.733,29.8,2.533,26.1,6c-3.7,3.433-5.684,7.2-5.95,11.3C19.883,21.433,21.567,24.667,25.2,27z"/>
		
			<path fill-rule="evenodd" clip-rule="evenodd" fill="none" stroke="#FFFFFF" stroke-width="2" stroke-linecap="round" stroke-linejoin="round" stroke-miterlimit="3" d="
			M25.2,27c3.633,2.367,8.233,3.617,13.8,3.75s10.417-1.05,14.55-3.55c4.133-2.467,5.917-6.034,5.35-10.7
			c-0.6-4.633-2.6-8.467-6-11.5s-7.783-4.5-13.15-4.4C34.35,0.733,29.8,2.533,26.1,6c-3.7,3.433-5.684,7.2-5.95,11.3
			C19.883,21.433,21.567,24.667,25.2,27z"/>
	</g>
	<g id="mouth_1_">
		<path fill-rule="evenodd" clip-rule="evenodd" fill="#774A31" d="M39.5,18.75c-4.57,1.423-6.987,3.84-7.25,7.25
			c4.739,2.376,9.439,2.292,14.1-0.25C45.639,22.719,43.356,20.386,39.5,18.75z"/>
		
			<path fill-rule="evenodd" clip-rule="evenodd" fill="none" stroke="#774A31" stroke-width="3" stroke-linecap="round" stroke-linejoin="round" stroke-miterlimit="3" d="
			M39.5,18.75V8.5 M39.5,18.75c-4.57,1.423-6.987,3.84-7.25,7.25c4.739,2.376,9.439,2.292,14.1-0.25
			C45.639,22.719,43.356,20.386,39.5,18.75z M27.6,12.55c8.066-6.066,16.25-6.066,24.55,0"/>
	</g>
	<g id="Layer_1_2_">
	</g>
</symbol>
<symbol  id="plashka" viewBox="3.5 -184.9 217.05 182.35">
	<g id="Layer_4_1_">
		<polygon fill-rule="evenodd" clip-rule="evenodd" fill="#FFFFFF" points="219.55,-183.9 4.5,-183.9 4.5,-3.55 219.55,-3.55 		"/>
		<polygon fill-rule="evenodd" clip-rule="evenodd" fill="none" stroke="#FFFFFF" stroke-width="2" stroke-miterlimit="10" points="
			219.55,-183.9 4.5,-183.9 4.5,-3.55 219.55,-3.55 		"/>
	</g>
</symbol>
<g id="plashki">
	
		<use xlink:href="#plashka"  width="217.05" height="182.35" x="3.5" y="-184.9" transform="matrix(0.8424 0 0 -1 -2.7002 -2.8999)" overflow="visible"/>
</g>
<g id="papka">
	
		<use xlink:href="#Duplicate_Items_Folder_x2F_bear"  width="144.257" height="169.604" x="-33.918" y="-93.016" transform="matrix(0.8295 0 0 -0.8295 59.7998 89.1499)" overflow="visible"/>
</g>
</svg>
