<?xml version="1.0" encoding="utf-8"?>
<!-- Generator: Adobe Illustrator 15.1.0, SVG Export Plug-In . SVG Version: 6.00 Build 0)  -->
<!DOCTYPE svg PUBLIC "-//W3C//DTD SVG 1.1//EN" "http://www.w3.org/Graphics/SVG/1.1/DTD/svg11.dtd">
<svg version="1.1" xmlns="http://www.w3.org/2000/svg" xmlns:xlink="http://www.w3.org/1999/xlink" x="0px" y="0px" width="183px"
	 height="183px" viewBox="0 0 183 183" enable-background="new 0 0 183 183" xml:space="preserve">
<symbol  id="Duplicate_Items_Folder_x2F_kalkulator" viewBox="-1.75 -74.8 58.5 76.5">
	<g id="Layer_1_2_">
		<path fill-rule="evenodd" clip-rule="evenodd" fill="#FFFFFF" d="M55-72.825v0.25c0.009,0.534,0.026,0.609,0.05,0.225
			C55.05-72.559,55.033-72.717,55-72.825z M7-38.35c0,0.434,0.217,0.65,0.65,0.65h6.65c0.467,0,0.7-0.216,0.7-0.65V-45
			c0-0.467-0.233-0.7-0.7-0.7H7.65C7.217-45.7,7-45.467,7-45V-38.35z M7.65-48.45h6.65c0.467,0,0.7-0.216,0.7-0.65v-6.65
			c0-0.467-0.233-0.7-0.7-0.7H7.65c-0.433,0-0.65,0.233-0.65,0.7v6.65C7-48.667,7.217-48.45,7.65-48.45z M18.4-48.45h6.65
			c0.467,0,0.7-0.216,0.7-0.65v-6.65c0-0.467-0.233-0.7-0.7-0.7H18.4c-0.433,0-0.65,0.233-0.65,0.7v6.65
			C17.75-48.667,17.967-48.45,18.4-48.45z M18.4-37.7h6.65c0.467,0,0.7-0.216,0.7-0.65V-45c0-0.467-0.233-0.7-0.7-0.7H18.4
			c-0.433,0-0.65,0.233-0.65,0.7v6.65C17.75-37.917,17.967-37.7,18.4-37.7z M29.25-48.45h6.65c0.467,0,0.7-0.216,0.7-0.65v-6.65
			c0-0.467-0.233-0.7-0.7-0.7h-6.65c-0.433,0-0.65,0.233-0.65,0.7v6.65C28.6-48.667,28.817-48.45,29.25-48.45z M29.25-37.7h6.65
			c0.467,0,0.7-0.216,0.7-0.65V-45c0-0.467-0.233-0.7-0.7-0.7h-6.65c-0.433,0-0.65,0.233-0.65,0.7v6.65
			C28.6-37.917,28.817-37.7,29.25-37.7z M36.6-59.75v-6.65c0-0.467-0.233-0.7-0.7-0.7h-6.65c-0.433,0-0.65,0.233-0.65,0.7v6.65
			c0,0.433,0.217,0.65,0.65,0.65h6.65C36.367-59.1,36.6-59.317,36.6-59.75z M25.75-59.75v-6.65c0-0.467-0.233-0.7-0.7-0.7H18.4
			c-0.433,0-0.65,0.233-0.65,0.7v6.65c0,0.433,0.217,0.65,0.65,0.65h6.65C25.517-59.1,25.75-59.317,25.75-59.75z M15-59.75v-6.65
			c0-0.467-0.233-0.7-0.7-0.7H7.65C7.217-67.1,7-66.867,7-66.4v6.65c0,0.433,0.217,0.65,0.65,0.65h6.65
			C14.767-59.1,15-59.317,15-59.75z"/>
		<path fill-rule="evenodd" clip-rule="evenodd" fill="#DE4653" d="M14.3-35.05H7.65c-0.433,0-0.65,0.233-0.65,0.7v6.65
			c0,0.434,0.217,0.65,0.65,0.65h6.65c0.467,0,0.7-0.217,0.7-0.65v-6.65C15-34.817,14.767-35.05,14.3-35.05z"/>
		<path fill-rule="evenodd" clip-rule="evenodd" fill="#BCDF67" d="M55-72.575v-0.25c-0.041-0.15-0.108-0.225-0.2-0.225H0
			c0.923,0.044,1.173,0.277,0.75,0.7c-0.484,0.484-0.734,0.285-0.75-0.6v72.7c0,0.091,0.117,0.158,0.35,0.2H54.8
			c0.133,0,0.217,0.017,0.25,0.05c0-0.033-0.017-0.117-0.05-0.25V-72.575z M47.5-34.35v6.65c0,0.434-0.233,0.65-0.7,0.65h-6.65
			c-0.433,0-0.65-0.217-0.65-0.65v-6.65c0-0.467,0.217-0.7,0.65-0.7h6.65C47.267-35.05,47.5-34.817,47.5-34.35z M47.5-45v6.65
			c0,0.434-0.233,0.65-0.7,0.65h-6.65c-0.433,0-0.65-0.216-0.65-0.65V-45c0-0.467,0.217-0.7,0.65-0.7h6.65
			C47.267-45.7,47.5-45.467,47.5-45z M47.325-20.05c0.45,0.01,0.675,0.244,0.675,0.7V-8.7c0,0.424-0.225,0.64-0.675,0.65H7.65
			C7.217-8.05,7-8.267,7-8.7v-10.65c0-0.467,0.217-0.7,0.65-0.7H47.325z M14.3-35.05c0.467,0,0.7,0.233,0.7,0.7v6.65
			c0,0.434-0.233,0.65-0.7,0.65H7.65C7.217-27.05,7-27.267,7-27.7v-6.65c0-0.467,0.217-0.7,0.65-0.7H14.3z M18.4-27.05
			c-0.433,0-0.65-0.217-0.65-0.65v-6.65c0-0.467,0.217-0.7,0.65-0.7h6.65c0.467,0,0.7,0.233,0.7,0.7v6.65
			c0,0.434-0.233,0.65-0.7,0.65H18.4z M18.4-37.7c-0.433,0-0.65-0.216-0.65-0.65V-45c0-0.467,0.217-0.7,0.65-0.7h6.65
			c0.467,0,0.7,0.233,0.7,0.7v6.65c0,0.434-0.233,0.65-0.7,0.65H18.4z M18.4-48.45c-0.433,0-0.65-0.216-0.65-0.65v-6.65
			c0-0.467,0.217-0.7,0.65-0.7h6.65c0.467,0,0.7,0.233,0.7,0.7v6.65c0,0.434-0.233,0.65-0.7,0.65H18.4z M7.65-48.45
			C7.217-48.45,7-48.667,7-49.1v-6.65c0-0.467,0.217-0.7,0.65-0.7h6.65c0.467,0,0.7,0.233,0.7,0.7v6.65c0,0.434-0.233,0.65-0.7,0.65
			H7.65z M7-38.35V-45c0-0.467,0.217-0.7,0.65-0.7h6.65c0.467,0,0.7,0.233,0.7,0.7v6.65c0,0.434-0.233,0.65-0.7,0.65H7.65
			C7.217-37.7,7-37.917,7-38.35z M36.6-27.7c0,0.434-0.233,0.65-0.7,0.65h-6.65c-0.433,0-0.65-0.217-0.65-0.65v-6.65
			c0-0.467,0.217-0.7,0.65-0.7h6.65c0.467,0,0.7,0.233,0.7,0.7V-27.7z M25.75-59.75c0,0.433-0.233,0.65-0.7,0.65H18.4
			c-0.433,0-0.65-0.217-0.65-0.65v-6.65c0-0.467,0.217-0.7,0.65-0.7h6.65c0.467,0,0.7,0.233,0.7,0.7V-59.75z M36.6-59.75
			c0,0.433-0.233,0.65-0.7,0.65h-6.65c-0.433,0-0.65-0.217-0.65-0.65v-6.65c0-0.467,0.217-0.7,0.65-0.7h6.65
			c0.467,0,0.7,0.233,0.7,0.7V-59.75z M29.25-37.7c-0.433,0-0.65-0.216-0.65-0.65V-45c0-0.467,0.217-0.7,0.65-0.7h6.65
			c0.467,0,0.7,0.233,0.7,0.7v6.65c0,0.434-0.233,0.65-0.7,0.65H29.25z M29.25-48.45c-0.433,0-0.65-0.216-0.65-0.65v-6.65
			c0-0.467,0.217-0.7,0.65-0.7h6.65c0.467,0,0.7,0.233,0.7,0.7v6.65c0,0.434-0.233,0.65-0.7,0.65H29.25z M39.5-66.4
			c0-0.467,0.217-0.7,0.65-0.7h6.65c0.467,0,0.7,0.233,0.7,0.7v16.85c0,0.733-0.233,1.1-0.7,1.1h-6.65c-0.433,0-0.65-0.367-0.65-1.1
			V-66.4z M15-59.75c0,0.433-0.233,0.65-0.7,0.65H7.65C7.217-59.1,7-59.317,7-59.75v-6.65c0-0.467,0.217-0.7,0.65-0.7h6.65
			c0.467,0,0.7,0.233,0.7,0.7V-59.75z"/>
		<path fill-rule="evenodd" clip-rule="evenodd" fill="#7C82C5" d="M47.325-20.05H7.65c-0.433,0-0.65,0.233-0.65,0.7V-8.7
			c0,0.434,0.217,0.65,0.65,0.65h39.675C47.775-8.06,48-8.276,48-8.7v-10.65C48-19.806,47.775-20.04,47.325-20.05z M47.5-45
			c0-0.467-0.233-0.7-0.7-0.7h-6.65c-0.433,0-0.65,0.233-0.65,0.7v6.65c0,0.434,0.217,0.65,0.65,0.65h6.65
			c0.467,0,0.7-0.216,0.7-0.65V-45z M47.5-34.35c0-0.467-0.233-0.7-0.7-0.7h-6.65c-0.433,0-0.65,0.233-0.65,0.7v6.65
			c0,0.434,0.217,0.65,0.65,0.65h6.65c0.467,0,0.7-0.217,0.7-0.65V-34.35z M18.4-27.05h6.65c0.467,0,0.7-0.217,0.7-0.65v-6.65
			c0-0.467-0.233-0.7-0.7-0.7H18.4c-0.433,0-0.65,0.233-0.65,0.7v6.65C17.75-27.267,17.967-27.05,18.4-27.05z M36.6-27.7v-6.65
			c0-0.467-0.233-0.7-0.7-0.7h-6.65c-0.433,0-0.65,0.233-0.65,0.7v6.65c0,0.434,0.217,0.65,0.65,0.65h6.65
			C36.367-27.05,36.6-27.267,36.6-27.7z M39.5-66.4v16.85c0,0.733,0.217,1.1,0.65,1.1h6.65c0.467,0,0.7-0.367,0.7-1.1V-66.4
			c0-0.467-0.233-0.7-0.7-0.7h-6.65C39.717-67.1,39.5-66.867,39.5-66.4z"/>
		
			<path fill-rule="evenodd" clip-rule="evenodd" fill="none" stroke="#594A37" stroke-width="3.5" stroke-linecap="round" stroke-linejoin="round" stroke-miterlimit="3" d="
			M0-73.05v0.1 M55-72.825v0.25"/>
		
			<path fill-rule="evenodd" clip-rule="evenodd" fill="none" stroke="#BCDF67" stroke-width="3.5" stroke-linecap="round" stroke-linejoin="round" stroke-miterlimit="3" d="
			M55-0.25v-72.325 M54.8-73.05H0 M0-72.95v72.7 M0.35-0.05H54.8"/>
	</g>
</symbol>
<symbol  id="plashka" viewBox="3.5 -184.9 217.05 182.35">
	<g id="Layer_4_1_">
		<polygon fill-rule="evenodd" clip-rule="evenodd" fill="#FFFFFF" points="219.55,-183.9 4.5,-183.9 4.5,-3.55 219.55,-3.55 		"/>
		<polygon fill-rule="evenodd" clip-rule="evenodd" fill="none" stroke="#FFFFFF" stroke-width="2" stroke-miterlimit="10" points="
			219.55,-183.9 4.5,-183.9 4.5,-3.55 219.55,-3.55 		"/>
	</g>
</symbol>
<g id="plashki">
	
		<use xlink:href="#plashka"  width="217.05" height="182.35" x="3.5" y="-184.9" transform="matrix(0.8424 0 0 -1 -2.7002 -2.8999)" overflow="visible"/>
</g>
<g id="papka">
	
		<use xlink:href="#Duplicate_Items_Folder_x2F_kalkulator"  width="58.5" height="76.5" x="-1.75" y="-74.8" transform="matrix(0.9764 0 0 -0.9764 63.6499 63.0498)" overflow="visible"/>
</g>
</svg>
