<?xml version="1.0" encoding="utf-8"?>
<!-- Generator: Adobe Illustrator 15.1.0, SVG Export Plug-In . SVG Version: 6.00 Build 0)  -->
<!DOCTYPE svg PUBLIC "-//W3C//DTD SVG 1.1//EN" "http://www.w3.org/Graphics/SVG/1.1/DTD/svg11.dtd">
<svg version="1.1" xmlns="http://www.w3.org/2000/svg" xmlns:xlink="http://www.w3.org/1999/xlink" x="0px" y="0px" width="183px"
	 height="183px" viewBox="0 0 183 183" enable-background="new 0 0 183 183" xml:space="preserve">
<symbol  id="komp" viewBox="0 -153.584 198.35 153.584">
	<g id="komp_1_">
		<g>
			<path fill-rule="evenodd" clip-rule="evenodd" fill="#444A98" d="M198.35-2.1v-112.2c0-0.6-0.233-1.133-0.7-1.6
				c-0.566-0.4-1.2-0.6-1.9-0.6H119.2l1.4-8.4c0-1.425-0.184-2.691-0.55-3.8h26.85l5.9-6.45l0.4-0.25v-1.7
				c0-0.133-0.434-0.2-1.3-0.2H45.05c-0.867,0-1.3,0.066-1.3,0.2v1.7c0,0.167,0.117,0.25,0.35,0.25l5.7,6.45h27.25
				c-0.4,1.109-0.6,2.375-0.6,3.8l1.4,8.4H2.55c-0.7,0-1.283,0.2-1.75,0.6c-0.533,0.467-0.8,1-0.8,1.6V-2.1
				c0,0.533,0.267,1.033,0.8,1.5C1.267-0.2,1.85,0,2.55,0h193.2c0.7,0,1.333-0.2,1.9-0.6C198.117-1.067,198.35-1.567,198.35-2.1z"/>
			<polygon fill-rule="evenodd" clip-rule="evenodd" fill="#024456" points="188.299,-107.979 10.045,-107.979 10.045,-9.104 
				188.299,-9.104 			"/>
			<polygon fill-rule="evenodd" clip-rule="evenodd" fill="#B9CEBF" points="188.299,-20.194 10.045,-20.194 10.045,-9.104 
				188.299,-9.104 			"/>
			<polygon fill-rule="evenodd" clip-rule="evenodd" fill="#B9CEBF" points="188.299,-106.579 10.045,-106.579 10.045,-98.991 
				188.299,-98.991 			"/>
			<g>
				<path fill-rule="evenodd" clip-rule="evenodd" fill="#C24D27" d="M35.376-100.158l0.701-0.117l-0.117-0.35l-0.583,0.118
					c-0.389,0-0.584-0.156-0.584-0.468c0-0.311,0.195-0.506,0.584-0.583c0.545-0.234,0.817-0.545,0.817-0.934
					c0-0.623-0.389-0.934-1.167-0.934l-0.817,0.116l0.117,0.35l0.817-0.117c0.389,0,0.584,0.155,0.584,0.466
					c0,0.234-0.195,0.468-0.584,0.701c-0.545,0.155-0.817,0.466-0.817,0.934C34.326-100.431,34.676-100.158,35.376-100.158z"/>
				<path fill-rule="evenodd" clip-rule="evenodd" fill="#C24D27" d="M37.127-100.158v-1.984c0-0.7,0.272-1.051,0.817-1.051
					s0.817,0.351,0.817,1.051v1.984h0.35v-1.984c0-0.856-0.389-1.284-1.167-1.284c-0.778,0-1.167,0.427-1.167,1.284v1.984H37.127z"
					/>
				<polygon fill-rule="evenodd" clip-rule="evenodd" fill="#C24D27" points="40.279,-100.158 41.914,-102.843 41.914,-100.158 
					42.264,-100.158 42.264,-103.426 41.914,-103.426 40.279,-100.742 40.279,-103.426 39.813,-103.426 39.813,-100.158 				"/>
				<polygon fill-rule="evenodd" clip-rule="evenodd" fill="#C24D27" points="55.338,-100.158 55.922,-100.158 56.739,-102.843 
					57.673,-100.158 58.256,-100.158 58.373,-103.426 58.023,-103.426 57.907,-100.625 56.855,-103.426 56.622,-103.426 
					55.688,-100.625 55.455,-103.426 55.104,-103.426 				"/>
				<path fill-rule="evenodd" clip-rule="evenodd" fill="#C24D27" d="M61.759-101.793c0-1.09-0.468-1.633-1.401-1.633
					c-1.011,0-1.517,0.543-1.517,1.633s0.506,1.635,1.517,1.635C61.291-100.158,61.759-100.703,61.759-101.793z M59.307-101.793
					c0-0.934,0.351-1.401,1.051-1.401c0.7,0,1.051,0.467,1.051,1.401c0,0.856-0.351,1.285-1.051,1.285
					C59.658-100.508,59.307-100.937,59.307-101.793z"/>
				<polygon fill-rule="evenodd" clip-rule="evenodd" fill="#C24D27" points="62.809,-100.158 64.443,-102.843 64.327,-100.158 
					64.793,-100.158 64.793,-103.426 64.327,-103.426 62.692,-100.742 62.692,-103.426 62.342,-103.426 62.342,-100.158 				"/>
				<polygon fill-rule="evenodd" clip-rule="evenodd" fill="#C24D27" points="78.102,-100.508 77.168,-100.508 77.168,-100.158 
					79.502,-100.158 79.502,-100.508 78.568,-100.508 78.568,-103.426 78.102,-103.426 				"/>
				<path fill-rule="evenodd" clip-rule="evenodd" fill="#C24D27" d="M80.319-100.158v-1.984c0-0.7,0.234-1.051,0.701-1.051
					c0.545,0,0.817,0.351,0.817,1.051v1.984h0.35v-1.984c0-0.856-0.39-1.284-1.167-1.284c-0.779,0-1.167,0.427-1.167,1.284v1.984
					H80.319z"/>
				<polygon fill-rule="evenodd" clip-rule="evenodd" fill="#C24D27" points="84.756,-100.158 84.756,-100.508 83.354,-100.508 
					83.354,-101.559 84.638,-101.559 84.638,-101.909 83.354,-101.909 83.354,-103.077 84.756,-103.077 84.756,-103.426 
					83.004,-103.426 83.004,-100.158 				"/>
				<polygon fill-rule="evenodd" clip-rule="evenodd" fill="#C24D27" points="100.981,-100.158 100.047,-103.426 99.58,-103.426 
					98.997,-100.742 98.296,-103.426 97.829,-103.426 97.013,-100.158 97.479,-100.158 98.063,-102.96 98.764,-100.158 
					99.23,-100.158 99.814,-102.96 99.931,-102.96 100.515,-100.158 				"/>
				<polygon fill-rule="evenodd" clip-rule="evenodd" fill="#C24D27" points="103.082,-101.909 101.798,-101.909 101.798,-103.077 
					103.2,-103.077 103.2,-103.426 101.331,-103.426 101.331,-100.158 103.082,-100.158 103.082,-100.508 101.798,-100.508 
					101.798,-101.559 103.082,-101.559 				"/>
				<path fill-rule="evenodd" clip-rule="evenodd" fill="#C24D27" d="M104.133-100.508v-2.569h0.467c0.934,0,1.4,0.428,1.4,1.284
					c0,0.856-0.466,1.285-1.4,1.285H104.133z M105.884-100.625c0.311-0.234,0.467-0.583,0.467-1.05c0-0.624-0.156-1.051-0.467-1.285
					c-0.234-0.312-0.7-0.466-1.401-0.466h-0.7v3.151l0.817,0.117C105.223-100.158,105.65-100.314,105.884-100.625z"/>
				<polygon fill-rule="evenodd" clip-rule="evenodd" fill="#C24D27" points="118.491,-100.508 117.558,-100.508 117.558,-100.158 
					119.893,-100.158 119.893,-100.508 118.959,-100.508 118.959,-103.426 118.491,-103.426 				"/>
				<polygon fill-rule="evenodd" clip-rule="evenodd" fill="#C24D27" points="120.71,-100.158 120.71,-101.559 122.227,-101.559 
					122.227,-100.158 122.694,-100.158 122.694,-103.426 122.227,-103.426 122.227,-101.909 120.71,-101.909 120.71,-103.426 
					120.243,-103.426 120.243,-100.158 				"/>
				<path fill-rule="evenodd" clip-rule="evenodd" fill="#C24D27" d="M123.862-100.158v-1.984c0-0.7,0.232-1.051,0.7-1.051
					c0.545,0,0.817,0.351,0.817,1.051v1.984h0.35v-1.984c0-0.856-0.389-1.284-1.167-1.284c-0.779,0-1.167,0.427-1.167,1.284v1.984
					H123.862z"/>
				<polygon fill-rule="evenodd" clip-rule="evenodd" fill="#C24D27" points="141.488,-100.158 141.488,-100.508 140.087,-100.508 
					140.087,-101.675 141.372,-101.675 141.372,-101.909 140.087,-101.909 140.087,-103.426 139.737,-103.426 139.737,-100.158 				
					"/>
				<path fill-rule="evenodd" clip-rule="evenodd" fill="#C24D27" d="M142.422-100.508v-1.167h0.468c0.466,0,0.7,0.194,0.7,0.583
					c0,0.389-0.233,0.584-0.7,0.584H142.422z M142.89-100.158l0.817-0.233l0.35-0.7c0-0.39-0.195-0.662-0.583-0.817l0.466-0.583
					c0-0.467,0.079-0.779,0.234-0.934h-0.466l-0.234,0.816c-0.156,0.39-0.35,0.584-0.583,0.584h-0.468v-1.4h-0.35v3.151
					L142.89-100.158z"/>
				<polygon fill-rule="evenodd" clip-rule="evenodd" fill="#C24D27" points="144.991,-100.158 144.991,-103.426 144.641,-103.426 
					144.641,-100.158 				"/>
				<path fill-rule="evenodd" clip-rule="evenodd" fill="#C24D27" d="M160.866-100.158l0.817-0.117l-0.234-0.35l-0.583,0.118
					c-0.389,0-0.584-0.156-0.584-0.468c0-0.311,0.234-0.506,0.701-0.583c0.545-0.311,0.817-0.623,0.817-0.934
					c0-0.623-0.39-0.934-1.167-0.934l-0.817,0.116l0.116,0.35l0.701-0.117c0.466,0,0.7,0.155,0.7,0.466
					c0,0.234-0.195,0.468-0.584,0.701c-0.622,0.155-0.934,0.466-0.934,0.934C159.816-100.431,160.166-100.158,160.866-100.158z"/>
				<path fill-rule="evenodd" clip-rule="evenodd" fill="#C24D27" d="M163.668-100.158l1.167-3.268h-0.467l-0.35,1.05h-1.167
					l-0.35-1.05h-0.468l1.167,3.268H163.668z M163.552-101.209l-0.117,0.701l-0.466-1.635h0.934L163.552-101.209z"/>
				<polygon fill-rule="evenodd" clip-rule="evenodd" fill="#C24D27" points="165.536,-100.508 164.485,-100.508 164.485,-100.158 
					166.937,-100.158 166.937,-100.508 165.887,-100.508 165.887,-103.426 165.536,-103.426 				"/>
			</g>
			<polygon fill-rule="evenodd" clip-rule="evenodd" fill="#CF4E21" points="34.676,-93.855 30.824,-93.855 30.824,-77.745 
				34.676,-77.745 			"/>
			<polygon fill-rule="evenodd" clip-rule="evenodd" fill="#7CA88E" points="39.345,-93.855 35.493,-93.855 35.493,-74.243 
				39.345,-74.243 			"/>
			<polygon fill-rule="evenodd" clip-rule="evenodd" fill="#54ADB2" points="44.015,-93.855 40.163,-93.855 40.163,-77.745 
				44.015,-77.745 			"/>
			<polygon fill-rule="evenodd" clip-rule="evenodd" fill="#BACCC1" points="48.684,-93.855 44.832,-93.855 44.832,-71.908 
				48.684,-71.908 			"/>
			<polygon fill-rule="evenodd" clip-rule="evenodd" fill="#CF4E21" points="55.221,-93.855 51.369,-93.855 51.369,-81.714 
				55.221,-81.714 			"/>
			<polygon fill-rule="evenodd" clip-rule="evenodd" fill="#7CA88E" points="59.89,-93.855 56.038,-93.855 56.038,-76.461 
				59.89,-76.461 			"/>
			<polygon fill-rule="evenodd" clip-rule="evenodd" fill="#54ADB2" points="64.56,-93.855 60.708,-93.855 60.708,-81.714 
				64.56,-81.714 			"/>
			<polygon fill-rule="evenodd" clip-rule="evenodd" fill="#BACCC1" points="69.229,-93.855 65.377,-93.855 65.377,-71.208 
				69.229,-71.208 			"/>
			<polygon fill-rule="evenodd" clip-rule="evenodd" fill="#CF4E21" points="75.767,-93.855 71.915,-93.855 71.915,-76.461 
				75.767,-76.461 			"/>
			<polygon fill-rule="evenodd" clip-rule="evenodd" fill="#7CA88E" points="80.436,-93.855 76.584,-93.855 76.584,-63.037 
				80.436,-63.037 			"/>
			<polygon fill-rule="evenodd" clip-rule="evenodd" fill="#54ADB2" points="85.105,-93.855 81.253,-93.855 81.253,-60.936 
				85.105,-60.936 			"/>
			<polygon fill-rule="evenodd" clip-rule="evenodd" fill="#BACCC1" points="89.775,-93.855 85.923,-93.855 85.923,-76.461 
				89.775,-76.461 			"/>
			<polygon fill-rule="evenodd" clip-rule="evenodd" fill="#CF4E21" points="96.429,-93.855 92.46,-93.855 92.46,-80.08 
				96.429,-80.08 			"/>
			<polygon fill-rule="evenodd" clip-rule="evenodd" fill="#7CA88E" points="101.099,-93.855 97.129,-93.855 97.129,-60.936 
				101.099,-60.936 			"/>
			<polygon fill-rule="evenodd" clip-rule="evenodd" fill="#54ADB2" points="105.768,-93.855 101.798,-93.855 101.798,-76.461 
				105.768,-76.461 			"/>
			<polygon fill-rule="evenodd" clip-rule="evenodd" fill="#BACCC1" points="110.32,-93.855 106.468,-93.855 106.468,-57.083 
				110.32,-57.083 			"/>
			<polygon fill-rule="evenodd" clip-rule="evenodd" fill="#CF4E21" points="116.974,-93.855 113.004,-93.855 113.004,-71.908 
				116.974,-71.908 			"/>
			<polygon fill-rule="evenodd" clip-rule="evenodd" fill="#7CA88E" points="121.644,-93.855 117.674,-93.855 117.674,-63.037 
				121.644,-63.037 			"/>
			<polygon fill-rule="evenodd" clip-rule="evenodd" fill="#54ADB2" points="126.313,-93.855 122.461,-93.855 122.461,-58.717 
				126.313,-58.717 			"/>
			<polygon fill-rule="evenodd" clip-rule="evenodd" fill="#BACCC1" points="130.982,-93.855 127.013,-93.855 127.013,-60.936 
				130.982,-60.936 			"/>
			<polygon fill-rule="evenodd" clip-rule="evenodd" fill="#CF4E21" points="137.519,-93.855 133.667,-93.855 133.667,-48.678 
				137.519,-48.678 			"/>
			<polygon fill-rule="evenodd" clip-rule="evenodd" fill="#7CA88E" points="142.188,-93.855 138.336,-93.855 138.336,-60.936 
				142.188,-60.936 			"/>
			<polygon fill-rule="evenodd" clip-rule="evenodd" fill="#54ADB2" points="146.858,-93.855 143.006,-93.855 143.006,-68.406 
				146.858,-68.406 			"/>
			<polygon fill-rule="evenodd" clip-rule="evenodd" fill="#BACCC1" points="151.527,-93.855 147.559,-93.855 147.559,-80.08 
				151.527,-80.08 			"/>
			<polygon fill-rule="evenodd" clip-rule="evenodd" fill="#CF4E21" points="158.065,-93.855 154.213,-93.855 154.213,-48.678 
				158.065,-48.678 			"/>
			<polygon fill-rule="evenodd" clip-rule="evenodd" fill="#7CA88E" points="162.734,-93.855 158.882,-93.855 158.882,-74.243 
				162.734,-74.243 			"/>
			<polygon fill-rule="evenodd" clip-rule="evenodd" fill="#54ADB2" points="167.404,-93.855 163.552,-93.855 163.552,-74.243 
				167.404,-74.243 			"/>
			<polygon fill-rule="evenodd" clip-rule="evenodd" fill="#BACCC1" points="172.073,-93.855 168.221,-93.855 168.221,-70.157 
				172.073,-70.157 			"/>
			<g>
				<polygon fill-rule="evenodd" clip-rule="evenodd" fill="#BACCC1" points="30.006,-93.971 30.006,-96.422 29.189,-96.422 
					29.189,-93.971 				"/>
				<polygon fill-rule="evenodd" clip-rule="evenodd" fill="#BACCC1" points="50.319,-93.971 50.319,-96.422 49.501,-96.422 
					49.501,-93.971 				"/>
				<polygon fill-rule="evenodd" clip-rule="evenodd" fill="#BACCC1" points="70.864,-93.971 70.864,-96.422 70.046,-96.422 
					70.046,-93.971 				"/>
				<polygon fill-rule="evenodd" clip-rule="evenodd" fill="#BACCC1" points="91.409,-93.971 91.409,-96.422 90.592,-96.422 
					90.592,-93.971 				"/>
				<polygon fill-rule="evenodd" clip-rule="evenodd" fill="#BACCC1" points="111.955,-93.971 111.955,-96.422 111.137,-96.422 
					111.137,-93.971 				"/>
				<polygon fill-rule="evenodd" clip-rule="evenodd" fill="#BACCC1" points="132.5,-93.971 132.5,-96.422 131.8,-96.422 
					131.8,-93.971 				"/>
				<polygon fill-rule="evenodd" clip-rule="evenodd" fill="#BACCC1" points="153.162,-93.971 153.162,-96.422 152.345,-96.422 
					152.345,-93.971 				"/>
				<polygon fill-rule="evenodd" clip-rule="evenodd" fill="#BACCC1" points="173.824,-93.971 173.824,-96.422 173.007,-96.422 
					173.007,-93.971 				"/>
			</g>
			<g>
				<polygon fill-rule="evenodd" clip-rule="evenodd" fill="#BACCC1" points="29.189,-25.098 26.738,-25.098 26.738,-24.28 
					29.189,-24.28 				"/>
				<polygon fill-rule="evenodd" clip-rule="evenodd" fill="#BACCC1" points="29.189,-38.872 26.738,-38.872 26.738,-38.055 
					29.189,-38.055 				"/>
				<polygon fill-rule="evenodd" clip-rule="evenodd" fill="#BACCC1" points="29.189,-52.646 26.738,-52.646 26.738,-51.831 
					29.189,-51.831 				"/>
				<polygon fill-rule="evenodd" clip-rule="evenodd" fill="#BACCC1" points="29.189,-66.422 26.738,-66.422 26.738,-65.605 
					29.189,-65.605 				"/>
				<polygon fill-rule="evenodd" clip-rule="evenodd" fill="#BACCC1" points="29.189,-80.197 26.738,-80.197 26.738,-79.379 
					29.189,-79.379 				"/>
				<polygon fill-rule="evenodd" clip-rule="evenodd" fill="#BACCC1" points="29.189,-93.971 26.738,-93.971 26.738,-93.154 
					29.189,-93.154 				"/>
			</g>
			<g>
				<polygon fill-rule="evenodd" clip-rule="evenodd" fill="#CF4E21" points="36.427,-31.985 33.041,-31.985 33.041,-28.716 
					36.427,-28.716 				"/>
				<polygon fill-rule="evenodd" clip-rule="evenodd" fill="#7CA88E" points="36.427,-38.872 33.041,-38.872 33.041,-35.604 
					36.427,-35.604 				"/>
				<polygon fill-rule="evenodd" clip-rule="evenodd" fill="#54ADB2" points="36.427,-45.76 33.041,-45.76 33.041,-42.492 
					36.427,-42.492 				"/>
				<polygon fill-rule="evenodd" clip-rule="evenodd" fill="#BACCC1" points="36.427,-52.646 33.041,-52.646 33.041,-49.378 
					36.427,-49.378 				"/>
				<g>
					<polygon fill-rule="evenodd" clip-rule="evenodd" fill="#F5F5F5" points="39.461,-28.95 39.695,-28.95 39.695,-30.818 
						40.629,-30.818 40.629,-31.051 39.461,-31.051 					"/>
					<path fill-rule="evenodd" clip-rule="evenodd" fill="#F5F5F5" d="M42.264-30.351c0-0.545-0.272-0.817-0.817-0.817
						c-0.466,0-0.7,0.272-0.7,0.817s0.272,0.817,0.817,0.817C42.03-29.533,42.264-29.806,42.264-30.351z M41.096-30.351
						c0-0.389,0.156-0.584,0.467-0.584c0.233,0,0.35,0.195,0.35,0.584s-0.117,0.583-0.35,0.583
						C41.252-29.767,41.096-29.962,41.096-30.351z"/>
					<path fill-rule="evenodd" clip-rule="evenodd" fill="#F5F5F5" d="M42.847-30.117v-0.934h-0.233v1.518h0.233v-0.35
						c0.156,0.232,0.312,0.35,0.468,0.35v-0.234h-0.118L42.847-30.117z"/>
					<path fill-rule="evenodd" clip-rule="evenodd" fill="#F5F5F5" d="M47.049-30.234c0,0.311-0.116,0.467-0.35,0.467
						c-0.233,0-0.35-0.078-0.35-0.233v-1.05h-0.233v0.816c0,0.311-0.116,0.467-0.35,0.467c-0.233,0-0.35-0.078-0.35-0.233v-1.05
						h-0.35v1.518h0.232l0.117-0.234l0.466,0.234c0.234,0,0.351-0.118,0.351-0.35l0.233,0.232l0.351,0.118
						c0.311,0,0.466-0.234,0.466-0.701v-0.816h-0.234V-30.234z"/>
					<polygon fill-rule="evenodd" clip-rule="evenodd" fill="#F5F5F5" points="49.034,-31.051 49.034,-29.533 49.268,-29.533 
						49.268,-31.051 					"/>
					<path fill-rule="evenodd" clip-rule="evenodd" fill="#F5F5F5" d="M49.968-30.584c0.156-0.233,0.311-0.35,0.467-0.35
						c0.311,0,0.467,0.195,0.467,0.584s-0.156,0.583-0.467,0.583c-0.234,0-0.35-0.116-0.35-0.35l-0.117-0.117V-30.584z
						 M51.135-30.351c0-0.545-0.233-0.817-0.7-0.817c-0.156,0-0.311,0.117-0.467,0.35v-0.816h-0.232v2.101h0.232v-0.35
						c0.156,0.232,0.351,0.35,0.583,0.35C50.941-29.533,51.135-29.806,51.135-30.351z"/>
					<path fill-rule="evenodd" clip-rule="evenodd" fill="#F5F5F5" d="M51.953-30.234c0.311-0.155,0.467-0.311,0.467-0.466
						c0-0.311-0.195-0.467-0.584-0.467l-0.467,0.117l0.118,0.233l0.35-0.117c0.155,0,0.234,0.078,0.234,0.234
						c0,0.155-0.079,0.234-0.234,0.234c-0.233,0.077-0.35,0.232-0.35,0.466c0,0.311,0.155,0.467,0.466,0.467l0.35-0.118v-0.232
						l-0.35,0.116L51.719-30L51.953-30.234z"/>
					<path fill-rule="evenodd" clip-rule="evenodd" fill="#F5F5F5" d="M53.704-29.533h0.233v-1.167l0.116-0.35h-0.35v0.233
						c-0.006-0.233-0.162-0.35-0.466-0.35c-0.312,0-0.467,0.233-0.467,0.701v0.934h0.233v-0.817c0-0.389,0.116-0.584,0.35-0.584
						l0.35,0.35V-29.533z"/>
					<path fill-rule="evenodd" clip-rule="evenodd" fill="#F5F5F5" d="M56.622-30.234v-0.816h-0.35v0.816
						c0,0.311-0.078,0.467-0.234,0.467c-0.233,0-0.35-0.078-0.35-0.233v-1.05h-0.35v0.816c0,0.311-0.078,0.467-0.234,0.467
						c-0.234,0-0.35-0.078-0.35-0.233v-1.05h-0.35v1.518h0.233v-0.234l0.467,0.234c0.311,0,0.467-0.118,0.467-0.35l0.233,0.232
						l0.233,0.118C56.428-29.533,56.622-29.767,56.622-30.234z"/>
				</g>
				<g>
					<polygon fill-rule="evenodd" clip-rule="evenodd" fill="#F5F5F5" points="39.461,-35.837 39.695,-35.837 39.695,-37.705 
						40.629,-37.705 40.629,-37.938 39.461,-37.938 					"/>
					<path fill-rule="evenodd" clip-rule="evenodd" fill="#F5F5F5" d="M42.264-37.238c0-0.466-0.272-0.7-0.817-0.7
						c-0.466,0-0.7,0.234-0.7,0.7c0,0.545,0.272,0.817,0.817,0.817C42.03-36.421,42.264-36.693,42.264-37.238z M41.096-37.238
						c0-0.389,0.156-0.584,0.467-0.584c0.233,0,0.35,0.195,0.35,0.584c0,0.39-0.117,0.583-0.35,0.583
						C41.252-36.655,41.096-36.849,41.096-37.238z"/>
					<path fill-rule="evenodd" clip-rule="evenodd" fill="#F5F5F5" d="M42.847-37.005v-0.934h-0.233v1.517h0.233v-0.35
						c0.156,0.233,0.312,0.35,0.468,0.35v-0.233h-0.118L42.847-37.005z"/>
					<path fill-rule="evenodd" clip-rule="evenodd" fill="#F5F5F5" d="M47.049-37.121c0,0.311-0.116,0.466-0.35,0.466
						c-0.233,0-0.35-0.078-0.35-0.232v-1.051h-0.233v0.934c0,0.234-0.116,0.35-0.35,0.35c-0.233,0-0.35-0.078-0.35-0.232v-1.051
						h-0.35v1.517h0.232l0.117-0.233l0.466,0.233c0.234,0,0.351-0.116,0.351-0.35l0.233,0.233l0.351,0.116
						c0.311,0,0.466-0.233,0.466-0.7v-0.817h-0.234V-37.121z"/>
					<polygon fill-rule="evenodd" clip-rule="evenodd" fill="#F5F5F5" points="49.034,-37.938 49.034,-36.421 49.268,-36.421 
						49.268,-37.938 					"/>
					<path fill-rule="evenodd" clip-rule="evenodd" fill="#F5F5F5" d="M49.735-36.421h0.232v-0.35
						c0.156,0.233,0.351,0.35,0.583,0.35c0.39,0,0.584-0.272,0.584-0.817c0-0.466-0.233-0.7-0.7-0.7
						c-0.234,0-0.389,0.078-0.467,0.234v-0.817h-0.232V-36.421z M50.085-37.005l-0.117-0.116v-0.35
						c0.156-0.233,0.311-0.351,0.467-0.351c0.311,0,0.467,0.195,0.467,0.584c0,0.39-0.156,0.583-0.467,0.583
						C50.201-36.655,50.085-36.771,50.085-37.005z"/>
					<path fill-rule="evenodd" clip-rule="evenodd" fill="#F5F5F5" d="M52.302-36.771l-0.35,0.116l-0.234-0.232l0.234-0.234
						c0.311-0.156,0.467-0.311,0.467-0.467c0-0.234-0.195-0.35-0.584-0.35h-0.467l0.118,0.234l0.35-0.118
						c0.155,0,0.234,0.079,0.234,0.234c0,0.156-0.079,0.272-0.234,0.35c-0.233,0-0.35,0.117-0.35,0.351
						c0,0.311,0.155,0.466,0.466,0.466l0.35-0.116V-36.771z"/>
					<path fill-rule="evenodd" clip-rule="evenodd" fill="#F5F5F5" d="M53.937-36.421v-1.167l0.116-0.35h-0.35v0.234l-0.466-0.234
						c-0.312,0-0.467,0.195-0.467,0.583v0.934h0.233v-0.817c0-0.389,0.116-0.584,0.35-0.584l0.35,0.351v1.05H53.937z"/>
					<path fill-rule="evenodd" clip-rule="evenodd" fill="#F5F5F5" d="M56.622-37.121v-0.817h-0.35v0.817
						c0,0.311-0.078,0.466-0.234,0.466c-0.233,0-0.35-0.078-0.35-0.232v-1.051h-0.35v0.934c0,0.234-0.078,0.35-0.234,0.35
						c-0.234,0-0.35-0.078-0.35-0.232v-1.051h-0.35v1.517h0.233v-0.233l0.467,0.233c0.311,0,0.467-0.116,0.467-0.35l0.233,0.233
						l0.233,0.116C56.428-36.421,56.622-36.655,56.622-37.121z"/>
				</g>
				<g>
					<polygon fill-rule="evenodd" clip-rule="evenodd" fill="#F5F5F5" points="39.461,-42.724 39.695,-42.724 39.695,-44.593 
						40.629,-44.593 40.629,-44.826 39.461,-44.826 					"/>
					<path fill-rule="evenodd" clip-rule="evenodd" fill="#F5F5F5" d="M42.264-44.125c0-0.468-0.272-0.701-0.817-0.701
						c-0.466,0-0.7,0.233-0.7,0.701c0,0.545,0.272,0.817,0.817,0.817C42.03-43.308,42.264-43.58,42.264-44.125z M41.096-44.125
						c0-0.39,0.156-0.584,0.467-0.584c0.233,0,0.35,0.194,0.35,0.584c0,0.389-0.117,0.583-0.35,0.583
						C41.252-43.542,41.096-43.736,41.096-44.125z"/>
					<path fill-rule="evenodd" clip-rule="evenodd" fill="#F5F5F5" d="M42.847-43.308v-0.352c0.156,0.234,0.312,0.352,0.468,0.352
						v-0.234h-0.118l-0.35-0.35v-0.935h-0.233v1.519H42.847z"/>
					<path fill-rule="evenodd" clip-rule="evenodd" fill="#F5F5F5" d="M44.249-44.826c-0.545,0-0.817,0.233-0.817,0.701
						c0,0.545,0.233,0.817,0.7,0.817c0.467,0,0.701-0.234,0.701-0.701v-0.116h-1.167c0.155-0.39,0.35-0.584,0.584-0.584l0.35,0.116
						l0.117-0.233H44.249z M44.131-43.542c-0.232,0-0.35-0.118-0.35-0.35h0.701C44.482-43.659,44.365-43.542,44.131-43.542z"/>
					<path fill-rule="evenodd" clip-rule="evenodd" fill="#F5F5F5" d="M45.298-43.308l0.117-0.234l0.466,0.234
						c0.234,0,0.351-0.118,0.351-0.352l0.233,0.234l0.351,0.118c0.311,0,0.466-0.234,0.466-0.701v-0.817h-0.234v0.817
						c0,0.311-0.116,0.467-0.35,0.467c-0.233,0-0.35-0.078-0.35-0.234v-1.051h-0.233v0.935c0,0.232-0.116,0.35-0.35,0.35
						c-0.233,0-0.35-0.078-0.35-0.234v-1.051h-0.35v1.519H45.298z"/>
					<polygon fill-rule="evenodd" clip-rule="evenodd" fill="#F5F5F5" points="49.034,-44.826 49.034,-43.308 49.268,-43.308 
						49.268,-44.826 					"/>
					<path fill-rule="evenodd" clip-rule="evenodd" fill="#F5F5F5" d="M49.968-43.308v-0.352c0.156,0.234,0.351,0.352,0.583,0.352
						c0.39,0,0.584-0.272,0.584-0.817c0-0.468-0.233-0.701-0.7-0.701c-0.234,0-0.389,0.079-0.467,0.233v-0.817h-0.232v2.103H49.968z
						 M50.085-43.892l-0.117-0.117v-0.35c0.156-0.234,0.311-0.35,0.467-0.35c0.311,0,0.467,0.194,0.467,0.584
						c0,0.389-0.156,0.583-0.467,0.583C50.201-43.542,50.085-43.659,50.085-43.892z"/>
					<path fill-rule="evenodd" clip-rule="evenodd" fill="#F5F5F5" d="M52.302-43.659l-0.35,0.118l-0.234-0.234l0.234-0.233
						c0.311-0.155,0.467-0.312,0.467-0.466c0-0.234-0.195-0.351-0.584-0.351h-0.467l0.118,0.233l0.35-0.116
						c0.155,0,0.234,0.078,0.234,0.234c0,0.155-0.079,0.272-0.234,0.35c-0.233,0-0.35,0.116-0.35,0.35
						c0,0.312,0.155,0.468,0.466,0.468l0.35-0.118V-43.659z"/>
					<path fill-rule="evenodd" clip-rule="evenodd" fill="#F5F5F5" d="M53.937-43.308v-1.167l0.116-0.351h-0.35v0.233l-0.466-0.233
						c-0.312,0-0.467,0.195-0.467,0.583v0.935h0.233v-0.817c0-0.39,0.116-0.584,0.35-0.584l0.35,0.35v1.051H53.937z"/>
					<path fill-rule="evenodd" clip-rule="evenodd" fill="#F5F5F5" d="M55.688-44.826h-0.35v0.935c0,0.232-0.078,0.35-0.234,0.35
						c-0.234,0-0.35-0.078-0.35-0.234v-1.051h-0.35v1.519h0.233v-0.234l0.467,0.234c0.311,0,0.467-0.118,0.467-0.352l0.233,0.234
						l0.233,0.118c0.39,0,0.583-0.234,0.583-0.701v-0.817h-0.35v0.817c0,0.311-0.078,0.467-0.234,0.467
						c-0.233,0-0.35-0.078-0.35-0.234V-44.826z"/>
				</g>
				<g>
					<polygon fill-rule="evenodd" clip-rule="evenodd" fill="#F5F5F5" points="39.461,-49.612 39.695,-49.612 39.695,-51.479 
						40.629,-51.479 40.629,-51.713 39.461,-51.713 					"/>
					<path fill-rule="evenodd" clip-rule="evenodd" fill="#F5F5F5" d="M42.264-51.013c0-0.466-0.272-0.7-0.817-0.7
						c-0.466,0-0.7,0.233-0.7,0.7c0,0.545,0.272,0.817,0.817,0.817C42.03-50.196,42.264-50.468,42.264-51.013z M41.096-51.013
						c0-0.389,0.156-0.583,0.467-0.583c0.233,0,0.35,0.195,0.35,0.583c0,0.39-0.117,0.584-0.35,0.584
						C41.252-50.429,41.096-50.623,41.096-51.013z"/>
					<path fill-rule="evenodd" clip-rule="evenodd" fill="#F5F5F5" d="M43.197-50.429l-0.35-0.35v-0.934h-0.233v1.517h0.233v-0.35
						c0.156,0.233,0.312,0.35,0.468,0.35v-0.233H43.197z"/>
					<path fill-rule="evenodd" clip-rule="evenodd" fill="#F5F5F5" d="M44.249-51.713c-0.545,0-0.817,0.233-0.817,0.7
						c0,0.545,0.233,0.817,0.7,0.817c0.467,0,0.701-0.233,0.701-0.7v-0.118h-1.167c0.155-0.389,0.35-0.583,0.584-0.583l0.35,0.117
						l0.117-0.233H44.249z M44.131-50.429c-0.232,0-0.35-0.116-0.35-0.35h0.701C44.482-50.545,44.365-50.429,44.131-50.429z"/>
					<path fill-rule="evenodd" clip-rule="evenodd" fill="#F5F5F5" d="M46.817-50.196c0.311,0,0.466-0.233,0.466-0.7v-0.817h-0.234
						v0.817c0,0.311-0.116,0.466-0.35,0.466c-0.233,0-0.35-0.078-0.35-0.234v-1.05h-0.233v0.934c0,0.234-0.116,0.35-0.35,0.35
						c-0.233,0-0.35-0.078-0.35-0.234v-1.05h-0.35v1.517h0.232l0.117-0.233l0.466,0.233c0.234,0,0.351-0.116,0.351-0.35l0.233,0.233
						L46.817-50.196z"/>
					<polygon fill-rule="evenodd" clip-rule="evenodd" fill="#F5F5F5" points="49.034,-51.713 49.034,-50.196 49.268,-50.196 
						49.268,-51.713 					"/>
					<path fill-rule="evenodd" clip-rule="evenodd" fill="#F5F5F5" d="M50.551-50.196c0.39,0,0.584-0.272,0.584-0.817
						c0-0.466-0.233-0.7-0.7-0.7c-0.234,0-0.389,0.078-0.467,0.233v-0.817h-0.232v2.101h0.232v-0.35
						C50.124-50.312,50.319-50.196,50.551-50.196z M49.968-51.247c0.233-0.233,0.39-0.35,0.467-0.35
						c0.311,0,0.467,0.195,0.467,0.583c0,0.39-0.156,0.584-0.467,0.584c-0.234,0-0.35-0.116-0.35-0.35l-0.117-0.116V-51.247z"/>
					<path fill-rule="evenodd" clip-rule="evenodd" fill="#F5F5F5" d="M51.719-50.545c0-0.078,0.079-0.195,0.234-0.35
						c0.311-0.156,0.467-0.312,0.467-0.467c0-0.234-0.195-0.35-0.584-0.35h-0.467l0.118,0.233l0.35-0.117
						c0.155,0,0.234,0.078,0.234,0.234c0,0.156-0.079,0.272-0.234,0.35c-0.233,0-0.35,0.118-0.35,0.35
						c0,0.311,0.155,0.467,0.466,0.467l0.35-0.116v-0.233l-0.35,0.116L51.719-50.545z"/>
					<path fill-rule="evenodd" clip-rule="evenodd" fill="#F5F5F5" d="M53.937-50.196v-1.167l0.116-0.35h-0.35v0.233l-0.466-0.233
						c-0.312,0-0.467,0.194-0.467,0.583v0.934h0.233v-0.817c0-0.389,0.116-0.583,0.35-0.583l0.35,0.35v1.051H53.937z"/>
					<path fill-rule="evenodd" clip-rule="evenodd" fill="#F5F5F5" d="M56.038-50.196c0.39,0,0.583-0.233,0.583-0.7v-0.817h-0.35
						v0.817c0,0.311-0.078,0.466-0.234,0.466c-0.233,0-0.35-0.078-0.35-0.234v-1.05h-0.35v0.934c0,0.234-0.078,0.35-0.234,0.35
						c-0.234,0-0.35-0.078-0.35-0.234v-1.05h-0.35v1.517h0.233v-0.233l0.467,0.233c0.311,0,0.467-0.116,0.467-0.35l0.233,0.233
						L56.038-50.196z"/>
				</g>
			</g>
		</g>
	</g>
	<g id="klava_1_">
		<g>
			<path fill-rule="evenodd" clip-rule="evenodd" fill="#004352" d="M171.984-145.275c0.685,0,1.307-0.405,1.867-1.213
				c0.498-0.81,0.747-1.774,0.747-2.895c0-1.182-0.249-2.178-0.747-2.986c-0.561-0.81-1.183-1.214-1.867-1.214H24.211
				c-0.747,0-1.368,0.405-1.867,1.214c-0.56,0.809-0.84,1.804-0.84,2.986c0,1.121,0.28,2.085,0.84,2.895
				c0.499,0.809,1.12,1.213,1.867,1.213H171.984z"/>
			<path fill-rule="evenodd" clip-rule="evenodd" fill="#004352" d="M161.063-141.542h4.48c0.623,0,1.151-0.467,1.587-1.4
				c0.436-0.934,0.653-2.054,0.653-3.36c0-1.307-0.218-2.428-0.653-3.361c-0.436-0.872-0.965-1.306-1.587-1.306h-4.48
				c-0.623,0-1.151,0.435-1.587,1.306c-0.436,0.934-0.654,2.054-0.654,3.361c0,1.306,0.218,2.427,0.654,3.36
				C159.911-142.008,160.44-141.542,161.063-141.542z"/>
			<path fill-rule="evenodd" clip-rule="evenodd" fill="#004352" d="M149.3-141.542h4.481c0.622,0,1.151-0.467,1.586-1.4
				c0.436-0.934,0.653-2.054,0.653-3.36c0-1.307-0.218-2.428-0.653-3.361c-0.435-0.872-0.964-1.306-1.586-1.306H149.3
				c-0.622,0-1.151,0.435-1.586,1.306c-0.436,0.934-0.654,2.054-0.654,3.361c0,1.306,0.218,2.427,0.654,3.36
				C148.148-142.008,148.678-141.542,149.3-141.542z"/>
			<path fill-rule="evenodd" clip-rule="evenodd" fill="#004352" d="M142.019-141.542c0.623,0,1.151-0.467,1.587-1.4
				c0.436-0.934,0.654-2.054,0.654-3.36c0-1.307-0.218-2.428-0.654-3.361c-0.436-0.872-0.964-1.306-1.587-1.306h-4.481
				c-0.623,0-1.151,0.435-1.587,1.306c-0.436,0.934-0.654,2.054-0.654,3.361c0,1.306,0.218,2.427,0.654,3.36
				c0.436,0.933,0.964,1.4,1.587,1.4H142.019z"/>
			<path fill-rule="evenodd" clip-rule="evenodd" fill="#004352" d="M125.776-141.542h4.574c0.623,0,1.121-0.467,1.494-1.4
				c0.435-0.934,0.653-2.054,0.653-3.36c0-1.307-0.218-2.428-0.653-3.361c-0.374-0.872-0.872-1.306-1.494-1.306h-4.574
				c-0.623,0-1.151,0.435-1.587,1.306c-0.436,0.934-0.654,2.054-0.654,3.361c0,1.306,0.218,2.427,0.654,3.36
				C124.625-142.008,125.154-141.542,125.776-141.542z"/>
			<path fill-rule="evenodd" clip-rule="evenodd" fill="#004352" d="M114.014-141.542h4.574c0.622,0,1.151-0.467,1.587-1.4
				c0.435-0.934,0.652-2.054,0.652-3.36c0-1.307-0.218-2.428-0.652-3.361c-0.436-0.872-0.966-1.306-1.587-1.306h-4.574
				c-0.622,0-1.121,0.435-1.494,1.306c-0.436,0.934-0.653,2.054-0.653,3.361c0,1.306,0.218,2.427,0.653,3.36
				C112.894-142.008,113.392-141.542,114.014-141.542z"/>
			<path fill-rule="evenodd" clip-rule="evenodd" fill="#004352" d="M89.837-146.302c0,1.306,0.435,2.427,1.307,3.36
				c0.871,0.933,1.898,1.4,3.08,1.4h8.868c1.183,0,2.21-0.467,3.082-1.4c0.871-0.934,1.306-2.054,1.306-3.36
				c0-1.307-0.436-2.428-1.306-3.361c-0.81-0.872-1.836-1.306-3.082-1.306h-8.868c-1.244,0-2.271,0.435-3.08,1.306
				C90.272-148.729,89.837-147.609,89.837-146.302z"/>
			<path fill-rule="evenodd" clip-rule="evenodd" fill="#004352" d="M75.554-141.542h4.481c0.622,0,1.151-0.467,1.586-1.4
				c0.436-0.934,0.654-2.054,0.654-3.36c0-1.307-0.218-2.428-0.654-3.361c-0.435-0.872-0.964-1.306-1.586-1.306h-4.481
				c-0.622,0-1.151,0.435-1.586,1.306c-0.436,0.934-0.654,2.054-0.654,3.361c0,1.306,0.218,2.427,0.654,3.36
				C74.402-142.008,74.932-141.542,75.554-141.542z"/>
			<path fill-rule="evenodd" clip-rule="evenodd" fill="#004352" d="M68.273-141.542c0.623,0,1.151-0.467,1.587-1.4
				c0.436-0.934,0.654-2.054,0.654-3.36c0-1.307-0.218-2.428-0.654-3.361c-0.436-0.872-0.964-1.306-1.587-1.306h-4.481
				c-0.623,0-1.151,0.435-1.587,1.306c-0.436,0.934-0.654,2.054-0.654,3.361c0,1.306,0.218,2.427,0.654,3.36
				c0.436,0.933,0.964,1.4,1.587,1.4H68.273z"/>
			<path fill-rule="evenodd" clip-rule="evenodd" fill="#004352" d="M52.03-141.542h4.481c0.622,0,1.151-0.467,1.587-1.4
				c0.435-0.934,0.653-2.054,0.653-3.36c0-1.307-0.218-2.428-0.653-3.361c-0.436-0.872-0.965-1.306-1.587-1.306H52.03
				c-0.623,0-1.151,0.435-1.587,1.306c-0.436,0.934-0.654,2.054-0.654,3.361c0,1.306,0.218,2.427,0.654,3.36
				C50.879-142.008,51.408-141.542,52.03-141.542z"/>
			<path fill-rule="evenodd" clip-rule="evenodd" fill="#004352" d="M32.333-141.542h9.615c1.307,0,2.427-0.467,3.361-1.4
				c0.934-0.934,1.4-2.054,1.4-3.36c0-1.307-0.467-2.428-1.4-3.361c-0.934-0.872-2.054-1.306-3.361-1.306h-9.615
				c-1.369,0-2.521,0.435-3.454,1.306c-0.933,0.934-1.4,2.054-1.4,3.361c0,1.306,0.467,2.427,1.4,3.36
				C29.813-142.008,30.964-141.542,32.333-141.542z"/>
		</g>
	</g>
</symbol>
<symbol  id="plashka" viewBox="3.5 -184.9 217.05 182.35">
	<g id="Layer_4_1_">
		<polygon fill-rule="evenodd" clip-rule="evenodd" fill="#FFFFFF" points="219.55,-183.9 4.5,-183.9 4.5,-3.55 219.55,-3.55 		"/>
		<polygon fill-rule="evenodd" clip-rule="evenodd" fill="none" stroke="#FFFFFF" stroke-width="2" stroke-miterlimit="10" points="
			219.55,-183.9 4.5,-183.9 4.5,-3.55 219.55,-3.55 		"/>
	</g>
</symbol>
<g id="plashki">
	
		<use xlink:href="#plashka"  width="217.05" height="182.35" x="3.5" y="-184.9" transform="matrix(0.8424 0 0 -1 -2.7002 -2.8999)" overflow="visible"/>
</g>
<g id="papka">
	
		<use xlink:href="#komp"  width="198.35" height="153.584" y="-153.584" transform="matrix(0.8286 0 0 -0.8286 9.3501 31.2998)" overflow="visible"/>
</g>
</svg>
