<svg xmlns="http://www.w3.org/2000/svg" version="1.1" xmlns:xlink="http://www.w3.org/1999/xlink"
     preserveAspectRatio="none" x="0px" y="0px" width="150px" height="56px" viewBox="0 0 150 56">

    <filter id="blur-filter" x="-2" y="-2" width="200" height="200">
        <feGaussianBlur in="SourceGraphic" stdDeviation="2" />
    </filter>

    <defs>
        <linearGradient id="Gradient_1" gradientUnits="userSpaceOnUse" x1="452.25000000000006" y1="17.599999999999998"
                        x2="-503.65000000000003" y2="43.7" spreadMethod="pad">
            <stop offset="0%" stop-color="#FFFFFF"/>

            <stop offset="100%" stop-color="#E9E9E9"/>
        </linearGradient>

        <g id="back_0_Layer0_0_FILL">
            <path fill="url(#Gradient_1)" stroke="none" d="
M 146.35 53.7
L 146.35 1.7 15.55 1.5 1.55 27.7 15.55 53.95 146.35 53.7
M 104.55 22.5
Q 104 23.2 104 24.15
L 104 30.85
Q 104 31.05 103.8 31.05
L 101 31.05
Q 100.85 31.05 100.85 30.85
L 100.85 24.05
Q 100.85 23.05 101.2 22.1 101.55 21.1 102.25 20.35 102.95 19.6 104 19.15 105.05 18.7 106.4 18.75
L 108.25 18.75
Q 108.45 18.75 108.45 18.9
L 108.45 21.65
Q 108.45 21.85 108.25 21.85
L 106.3 21.85
Q 105.15 21.85 104.55 22.5
M 109.65 18.9
Q 109.65 18.75 109.8 18.75
L 112.75 18.75
Q 112.95 18.75 112.95 18.9
L 112.95 30.85
Q 112.95 31.05 112.75 31.05
L 109.8 31.05
Q 109.65 31.05 109.65 30.85
L 109.65 18.9
M 89.65 18.7
L 92.5 18.7
Q 92.6 18.7 92.65 18.85
L 97.65 34.95
Q 97.7 35.2 97.5 35.2
L 94.55 35.2
Q 94.45 35.2 94.4 35.05
L 89.45 18.9
Q 89.4 18.85 89.45 18.75 89.5 18.7 89.65 18.7
M 81.35 21.75
Q 81.75 22.6 81.75 23.45 81.75 24.45 81.25 25.35 80.75 26.25 79.9 26.75 80.45 27.05 80.85 27.45 81.25 27.85 81.45 28.35 81.7 28.8 81.8 29.35 81.9 29.85 81.9 30.35 81.9 31.2 81.55 32.1 81.2 32.95 80.55 33.65 79.9 34.4 78.9 34.85 77.95 35.3 76.65 35.3
L 76.5 35.3
Q 76.35 35.3 76.35 35.1
L 76.35 32.45
Q 76.35 32.25 76.5 32.25 76.85 32.25 77.25 32.1 77.65 31.95 77.95 31.7 78.25 31.45 78.45 31.1 78.65 30.7 78.65 30.3 78.65 29.8 78.45 29.4 78.3 29.05 78 28.8 77.65 28.55 77.3 28.45 76.9 28.35 76.45 28.35
L 75.55 28.35
Q 75.35 28.35 75.35 28.15
L 75.35 25.45
Q 75.35 25.25 75.55 25.25
L 76.4 25.25
Q 77.3 25.25 77.9 24.8 78.5 24.35 78.5 23.4 78.5 22.75 77.95 22.3 77.4 21.8 76.6 21.8
L 76.45 21.8
Q 76.3 21.8 76.3 21.6
L 76.3 18.95
Q 76.3 18.8 76.45 18.8
L 76.6 18.8
Q 77.8 18.8 78.75 19.2 79.7 19.6 80.35 20.25 81 20.9 81.35 21.75
M 88.45 20.35
Q 88.6 20.35 88.6 20.5
L 90.1 25.2 88.8 29.15 91.15 29.15
Q 91.3 29.15 91.35 29.3
L 92.15 32.05
Q 92.2 32.15 92.15 32.25 92.1 32.3 91.95 32.3
L 87.95 32.3
Q 87.75 33 87.5 33.7 87.3 34.4 87.1 35.05 87.05 35.2 86.9 35.2
L 84 35.2
Q 83.85 35.2 83.8 35.15 83.75 35.05 83.8 34.95
L 88.25 20.5
Q 88.3 20.35 88.45 20.35
M 99.2 32.25
Q 99.2 32.05 99.4 32.05
L 114.1 32.05
Q 114.3 32.05 114.3 32.25
L 114.3 38
Q 114.3 38.2 114.1 38.2
L 111.5 38.2
Q 111.35 38.2 111.35 38
L 111.35 35.2 102.35 35.2 102.35 38
Q 102.35 38.2 102.15 38.2
L 99.4 38.2
Q 99.2 38.2 99.2 38
L 99.2 32.25
M 62.7 18.7
Q 62.8 18.7 62.85 18.85
L 67.85 34.95
Q 67.9 35.2 67.7 35.2
L 64.75 35.2
Q 64.65 35.2 64.6 35.05
L 59.65 18.9
Q 59.6 18.85 59.65 18.75 59.7 18.7 59.85 18.7
L 62.7 18.7
M 70.15 22.55
Q 70.05 22.45 70.1 22.3 70.4 21.55 70.85 20.95 71.25 20.3 71.9 19.85 72.5 19.35 73.2 19.1 73.95 18.8 74.8 18.8
L 74.9 18.8
Q 75.05 18.8 75.05 19
L 75.05 21.65
Q 75.05 21.85 74.9 21.85
L 74.8 21.85
Q 74.2 21.85 73.6 22.35 73.05 22.9 72.65 23.7 72.6 23.9 72.4 23.8
L 70.15 22.55
M 48.95 18.75
L 51.85 18.75
Q 52 18.75 52 18.9
L 52 35
Q 52 35.2 51.85 35.2
L 48.95 35.2
Q 48.75 35.2 48.75 35
L 48.75 28.6 46.8 28.6
Q 46.6 28.6 46.6 28.4
L 46.6 25.6
Q 46.6 25.45 46.8 25.45
L 48.75 25.45 48.75 18.9
Q 48.75 18.75 48.95 18.75
M 58.45 20.5
Q 58.5 20.35 58.65 20.35 58.8 20.35 58.8 20.5
L 60.3 25.2 59 29.15 61.35 29.15
Q 61.5 29.15 61.55 29.3
L 62.35 32.05
Q 62.4 32.15 62.35 32.25 62.3 32.3 62.15 32.3
L 58.15 32.3
Q 57.95 33 57.7 33.7 57.5 34.4 57.3 35.05 57.25 35.2 57.1 35.2
L 54.2 35.2
Q 54.05 35.2 54 35.15 53.95 35.05 54 34.95
L 58.45 20.5
M 42.85 18.75
Q 43.05 18.75 43.05 18.9
L 43.05 25.45 45.2 25.45
Q 45.4 25.45 45.4 25.6
L 45.4 28.4
Q 45.4 28.6 45.2 28.6
L 43.05 28.6 43.05 35
Q 43.05 35.2 42.85 35.2
L 40.1 35.2
Q 39.95 35.2 39.95 35
L 39.95 18.9
Q 39.95 18.75 40.1 18.75
L 42.85 18.75
M 72.65 30.3
Q 72.7 30.35 72.75 30.45 72.8 30.85 73.05 31.2 73.25 31.55 73.55 31.8 73.85 32 74.15 32.15 74.5 32.3 74.8 32.3
L 74.9 32.3
Q 75.05 32.3 75.05 32.45
L 75.05 35.15
Q 75.05 35.35 74.9 35.35
L 74.8 35.35
Q 73.9 35.35 73.15 35.05 72.4 34.8 71.75 34.3 71.15 33.8 70.7 33.15 70.3 32.5 70.1 31.8 70.05 31.75 70.1 31.7 70.1 31.65 70.15 31.6
L 72.45 30.35
Q 72.55 30.3 72.65 30.3 Z"/>

            <path fill="#C4232F" stroke="none" d="
M 72.75 30.45
Q 72.7 30.35 72.65 30.3 72.55 30.3 72.45 30.35
L 70.15 31.6
Q 70.1 31.65 70.1 31.7 70.05 31.75 70.1 31.8 70.3 32.5 70.7 33.15 71.15 33.8 71.75 34.3 72.4 34.8 73.15 35.05 73.9 35.35 74.8 35.35
L 74.9 35.35
Q 75.05 35.35 75.05 35.15
L 75.05 32.45
Q 75.05 32.3 74.9 32.3
L 74.8 32.3
Q 74.5 32.3 74.15 32.15 73.85 32 73.55 31.8 73.25 31.55 73.05 31.2 72.8 30.85 72.75 30.45
M 43.05 18.9
Q 43.05 18.75 42.85 18.75
L 40.1 18.75
Q 39.95 18.75 39.95 18.9
L 39.95 35
Q 39.95 35.2 40.1 35.2
L 42.85 35.2
Q 43.05 35.2 43.05 35
L 43.05 28.6 45.2 28.6
Q 45.4 28.6 45.4 28.4
L 45.4 25.6
Q 45.4 25.45 45.2 25.45
L 43.05 25.45 43.05 18.9
M 58.65 20.35
Q 58.5 20.35 58.45 20.5
L 54 34.95
Q 53.95 35.05 54 35.15 54.05 35.2 54.2 35.2
L 57.1 35.2
Q 57.25 35.2 57.3 35.05 57.5 34.4 57.7 33.7 57.95 33 58.15 32.3
L 62.15 32.3
Q 62.3 32.3 62.35 32.25 62.4 32.15 62.35 32.05
L 61.55 29.3
Q 61.5 29.15 61.35 29.15
L 59 29.15 60.3 25.2 58.8 20.5
Q 58.8 20.35 58.65 20.35
M 51.85 18.75
L 48.95 18.75
Q 48.75 18.75 48.75 18.9
L 48.75 25.45 46.8 25.45
Q 46.6 25.45 46.6 25.6
L 46.6 28.4
Q 46.6 28.6 46.8 28.6
L 48.75 28.6 48.75 35
Q 48.75 35.2 48.95 35.2
L 51.85 35.2
Q 52 35.2 52 35
L 52 18.9
Q 52 18.75 51.85 18.75
M 70.1 22.3
Q 70.05 22.45 70.15 22.55
L 72.4 23.8
Q 72.6 23.9 72.65 23.7 73.05 22.9 73.6 22.35 74.2 21.85 74.8 21.85
L 74.9 21.85
Q 75.05 21.85 75.05 21.65
L 75.05 19
Q 75.05 18.8 74.9 18.8
L 74.8 18.8
Q 73.95 18.8 73.2 19.1 72.5 19.35 71.9 19.85 71.25 20.3 70.85 20.95 70.4 21.55 70.1 22.3
M 62.85 18.85
Q 62.8 18.7 62.7 18.7
L 59.85 18.7
Q 59.7 18.7 59.65 18.75 59.6 18.85 59.65 18.9
L 64.6 35.05
Q 64.65 35.2 64.75 35.2
L 67.7 35.2
Q 67.9 35.2 67.85 34.95
L 62.85 18.85
M 99.4 32.05
Q 99.2 32.05 99.2 32.25
L 99.2 38
Q 99.2 38.2 99.4 38.2
L 102.15 38.2
Q 102.35 38.2 102.35 38
L 102.35 35.2 111.35 35.2 111.35 38
Q 111.35 38.2 111.5 38.2
L 114.1 38.2
Q 114.3 38.2 114.3 38
L 114.3 32.25
Q 114.3 32.05 114.1 32.05
L 99.4 32.05
M 88.6 20.5
Q 88.6 20.35 88.45 20.35 88.3 20.35 88.25 20.5
L 83.8 34.95
Q 83.75 35.05 83.8 35.15 83.85 35.2 84 35.2
L 86.9 35.2
Q 87.05 35.2 87.1 35.05 87.3 34.4 87.5 33.7 87.75 33 87.95 32.3
L 91.95 32.3
Q 92.1 32.3 92.15 32.25 92.2 32.15 92.15 32.05
L 91.35 29.3
Q 91.3 29.15 91.15 29.15
L 88.8 29.15 90.1 25.2 88.6 20.5
M 81.75 23.45
Q 81.75 22.6 81.35 21.75 81 20.9 80.35 20.25 79.7 19.6 78.75 19.2 77.8 18.8 76.6 18.8
L 76.45 18.8
Q 76.3 18.8 76.3 18.95
L 76.3 21.6
Q 76.3 21.8 76.45 21.8
L 76.6 21.8
Q 77.4 21.8 77.95 22.3 78.5 22.75 78.5 23.4 78.5 24.35 77.9 24.8 77.3 25.25 76.4 25.25
L 75.55 25.25
Q 75.35 25.25 75.35 25.45
L 75.35 28.15
Q 75.35 28.35 75.55 28.35
L 76.45 28.35
Q 76.9 28.35 77.3 28.45 77.65 28.55 78 28.8 78.3 29.05 78.45 29.4 78.65 29.8 78.65 30.3 78.65 30.7 78.45 31.1 78.25 31.45 77.95 31.7 77.65 31.95 77.25 32.1 76.85 32.25 76.5 32.25 76.35 32.25 76.35 32.45
L 76.35 35.1
Q 76.35 35.3 76.5 35.3
L 76.65 35.3
Q 77.95 35.3 78.9 34.85 79.9 34.4 80.55 33.65 81.2 32.95 81.55 32.1 81.9 31.2 81.9 30.35 81.9 29.85 81.8 29.35 81.7 28.8 81.45 28.35 81.25 27.85 80.85 27.45 80.45 27.05 79.9 26.75 80.75 26.25 81.25 25.35 81.75 24.45 81.75 23.45
M 92.5 18.7
L 89.65 18.7
Q 89.5 18.7 89.45 18.75 89.4 18.85 89.45 18.9
L 94.4 35.05
Q 94.45 35.2 94.55 35.2
L 97.5 35.2
Q 97.7 35.2 97.65 34.95
L 92.65 18.85
Q 92.6 18.7 92.5 18.7
M 109.8 18.75
Q 109.65 18.75 109.65 18.9
L 109.65 30.85
Q 109.65 31.05 109.8 31.05
L 112.75 31.05
Q 112.95 31.05 112.95 30.85
L 112.95 18.9
Q 112.95 18.75 112.75 18.75
L 109.8 18.75
M 104 24.15
Q 104 23.2 104.55 22.5 105.15 21.85 106.3 21.85
L 108.25 21.85
Q 108.45 21.85 108.45 21.65
L 108.45 18.9
Q 108.45 18.75 108.25 18.75
L 106.4 18.75
Q 105.05 18.7 104 19.15 102.95 19.6 102.25 20.35 101.55 21.1 101.2 22.1 100.85 23.05 100.85 24.05
L 100.85 30.85
Q 100.85 31.05 101 31.05
L 103.8 31.05
Q 104 31.05 104 30.85
L 104 24.15 Z"/>
        </g>

        <path id="back_0_Layer0_0_1_STROKES" stroke="#C4232F" stroke-width="3" stroke-linejoin="round"
              stroke-linecap="round" fill="none" d="
M 1.55 27.7
L 15.55 53.95 146.35 53.7 146.35 1.7 15.55 1.5 1.55 27.7 Z"/>
    </defs>

    <g transform="matrix( 1, 0, 0, 1, 0.75,0.3) ">
        <g transform="matrix( 1, 0, 0, 1, 0,0) ">
            <use xlink:href="#back_0_Layer0_0_FILL"/>

            <use xlink:href="#back_0_Layer0_0_1_STROKES"/>
        </g>
    </g>
</svg>
