<?xml version="1.0" encoding="utf-8"?>
<!-- Generator: Adobe Illustrator 15.1.0, SVG Export Plug-In . SVG Version: 6.00 Build 0)  -->
<!DOCTYPE svg PUBLIC "-//W3C//DTD SVG 1.1//EN" "http://www.w3.org/Graphics/SVG/1.1/DTD/svg11.dtd">
<svg version="1.1" xmlns="http://www.w3.org/2000/svg" xmlns:xlink="http://www.w3.org/1999/xlink" x="0px" y="0px"
	 width="869.75px" height="231.455px" viewBox="0 0 869.75 231.455" enable-background="new 0 0 869.75 231.455"
	 xml:space="preserve">
<symbol  id="image_1_" viewBox="-0.05 -231.6 869.85 231.65">
	<g id="fon_1_">
		<polygon fill-rule="evenodd" clip-rule="evenodd" fill="#F5F5F5" points="869.75,-231.55 0,-231.55 0,0 869.75,0 		"/>
		
			<polygon fill-rule="evenodd" clip-rule="evenodd" fill="none" stroke="#F5F5F5" stroke-width="0.1" stroke-linecap="round" stroke-linejoin="round" stroke-miterlimit="3" points="
			869.75,-231.55 0,-231.55 0,0 869.75,0 		"/>
	</g>
	<g id="tabl_1_">
		
			<use xlink:href="#lines"  width="609.15" height="224.3" x="-35.2" y="-308.9" transform="matrix(1 0 0 1 122.1001 77.4502)" overflow="visible"/>
	</g>
</symbol>
<symbol  id="line" viewBox="-0.5 -20.4 132.25 20.9">
	<g id="Layer_1_3_">
		<polygon fill-rule="evenodd" clip-rule="evenodd" fill="#8FB523" points="131.2,-0.35 131.225,-2.775 131.2,-0.35 131.25,-0.35 
			131.225,-2.775 131.25,-19.7 131.25,-19.9 0.05,-19.6 0.05,0 0.05,-19.6 0,-19.1 0,0 0.05,0 		"/>
		
			<path fill-rule="evenodd" clip-rule="evenodd" fill="none" stroke="#8FB524" stroke-linecap="round" stroke-linejoin="round" stroke-miterlimit="3" d="
			M131.25-0.35h-0.05l0.025-2.425 M131.25-19.7l-0.025,16.925 M0.05,0H0 M0-19.1l0.05-0.5V0 M0.05-19.6l131.2-0.3 M131.2-0.35
			L0.05,0"/>
	</g>
</symbol>
<symbol  id="lines" viewBox="-35.2 -308.9 609.15 224.3">
	<g id="kolonn_1_">
		<path fill-rule="evenodd" clip-rule="evenodd" fill="#CF4E21" d="M450.45-199.9h24.8v-108.45h-24.8V-199.9z M346.75-308.35h-24.8
			v108.45h24.8V-308.35z M89.1-308.35H65v28.8h24.1V-308.35z M193.5-267.15h24.05v-41.2H193.5V-267.15z"/>
		<path fill-rule="evenodd" clip-rule="evenodd" fill="#7CA88E" d="M351.15-199.9h24.8v-108.45h-24.8V-199.9z M94.2-266.9h24.1
			v-41.45H94.2V-266.9z M504.35-308.35h-25v127.2h25V-308.35z M246.75-308.35H222.7v55.2h24.05V-308.35z"/>
		<path fill-rule="evenodd" clip-rule="evenodd" fill="#54ADB2" d="M509.55-154.4h24.1v-153.95h-24.1V-154.4z M405.15-308.35h-24.8
			v108.45h24.8V-308.35z M123.4-266.9h24.1v-41.45h-24.1V-266.9z M251.9-235.65h24.05v-72.7H251.9V-235.65z"/>
		<path fill-rule="evenodd" clip-rule="evenodd" fill="#BACCC1" d="M538.05-128.9h24.8v-179.45h-24.8V-128.9z M409.55-199.9h24.1
			v-108.45h-24.1V-199.9z M152.6-266.9h24.1v-41.45h-24.1V-266.9z M281.1-217.4h24.05v-90.95H281.1V-217.4z"/>
	</g>
	<g id="strela_1_">
		<polygon fill-rule="evenodd" clip-rule="evenodd" fill="#8FB523" points="93.1,-264.4 8,-308.4 -34.7,-308.4 84,-247.05 
			85.2,-249.25 84,-247.05 84.05,-247.05 85.2,-249.25 93,-264.25 		"/>
		
			<path fill-rule="evenodd" clip-rule="evenodd" fill="none" stroke="#8FB524" stroke-linecap="round" stroke-linejoin="round" stroke-miterlimit="3" d="
			M84.05-247.05H84l1.2-2.2 M93-264.25l-7.8,15 M84-247.05L-34.7-308.4H8l85.1,44"/>
		
			<use xlink:href="#strela"  width="145.151" height="115.301" x="21.649" y="-115.301" transform="matrix(1 0 0 1 407.1499 -84.6001)" overflow="visible"/>
		
			<use xlink:href="#line"  width="132.25" height="20.9" x="-0.5" y="-20.4" transform="matrix(1.1699 0 0 1 305.1006 -179.8999)" overflow="visible"/>
		
			<use xlink:href="#line"  width="132.25" height="20.9" x="-0.5" y="-20.4" transform="matrix(0.8695 0.5312 -0.5213 0.8534 190.0498 -249.3999)" overflow="visible"/>
		
			<use xlink:href="#line"  width="132.25" height="20.9" x="-0.5" y="-20.4" transform="matrix(0.8842 0 0 1 83.8999 -247)" overflow="visible"/>
	</g>
</symbol>
<symbol  id="strela" viewBox="21.649 -115.301 145.151 115.301">
	<g id="Layer_1_2_">
		<path fill-rule="evenodd" clip-rule="evenodd" fill="#8EB422" d="M166.8,0l-2.425-9.8l-5.675-23l-0.7-2.85l-7.525,8.425
			l-98.6-87.95c-0.1-0.092-0.217-0.133-0.35-0.125c-0.139,0.01-0.256,0.069-0.35,0.175c-0.086,0.093-0.127,0.202-0.125,0.325H22.9
			l-0.425-0.375c-0.1-0.092-0.217-0.133-0.35-0.125c-0.139,0.01-0.256,0.069-0.35,0.175c-0.092,0.1-0.133,0.216-0.125,0.35
			c0.011,0.139,0.069,0.256,0.175,0.35l115,102.55L129-3.15l16.35,1.35l3.9,0.35L166.8,0z"/>
	</g>
</symbol>
<g id="text">
	<text transform="matrix(1 0 0 1 -41.3501 -223.0479)" font-family="'Consolas'" font-size="14">7</text>
	
		<linearGradient id="SVGID_1_" gradientUnits="userSpaceOnUse" x1="4.5005" y1="-139.6704" x2="867.501" y2="-139.6704" gradientTransform="matrix(1.0076 0 0 1.7866 -4.2936 66.0948)">
		<stop  offset="0" style="stop-color:#AED345"/>
		<stop  offset="1" style="stop-color:#8DB321"/>
	</linearGradient>
	<rect x="0.241" y="-222.069" fill-rule="evenodd" clip-rule="evenodd" fill="url(#SVGID_1_)" width="869.558" height="77.269"/>
	<rect x="-14.995" y="-261.019" fill-rule="evenodd" clip-rule="evenodd" fill="#8DB321" width="15" height="15"/>
	<rect x="-29.995" y="-229.049" fill-rule="evenodd" clip-rule="evenodd" fill="#8DB321" width="15" height="7"/>
	<rect x="-29.995" y="-7" fill-rule="evenodd" clip-rule="evenodd" fill="#8DB321" width="15" height="7"/>
	<rect x="-4.1" y="-137.058" fill="none" width="749.05" height="130.8"/>
	<text transform="matrix(1 0 0 1 -2.1001 -125.3979)"><tspan x="0" y="0" fill="#FF6600" font-family="'Consolas'" font-size="14">• </tspan><tspan x="15.395" y="0" font-family="'Consolas'" font-size="14"> Все сотрудники ознакомлены с принципами 5S и с их пользой.</tspan><tspan x="0" y="18.4" fill="#FF6600" font-family="'Consolas'" font-size="14">•</tspan><tspan x="7.697" y="18.4" font-family="'Consolas'" font-size="14"> Существует процедура идентификации и удаления несущественных предметов и материалов.</tspan><tspan x="0" y="36.8" fill="#FF6600" font-family="'Consolas'" font-size="14">• </tspan><tspan x="15.395" y="36.8" font-family="'Consolas'" font-size="14"> Четко определено расположение всех нужных предметов в рабочих помещениях.</tspan><tspan x="0" y="55.2" fill="#FF6600" font-family="'Consolas'" font-size="14">• </tspan><tspan x="15.395" y="55.2" font-family="'Consolas'" font-size="14"> Все возможные процедуры 5S снабжены стандартами и визуализированы. </tspan><tspan x="0" y="73.6" fill="#FF6600" font-family="'Consolas'" font-size="14">•</tspan><tspan x="7.697" y="73.6" font-family="'Consolas'" font-size="14"> Сотрудники соблюдают все принципы 5S и проводят регулярные аудиты. </tspan><tspan x="0" y="92" fill="#FF6600" font-family="'Consolas'" font-size="14">• </tspan><tspan x="15.395" y="92" font-family="'Consolas'" font-size="14"> На рабочих местах всегда чисто, а работать – удобно.</tspan><tspan x="0" y="110.4" fill="#FF6600" font-family="'Consolas'" font-size="14">• </tspan><tspan x="15.395" y="110.4" font-family="'Consolas'" font-size="14"> Система 5S на предприятии стала привычкой всех сотрудников. </tspan></text>
	<rect x="1.006" y="238.885" fill-rule="evenodd" clip-rule="evenodd" fill="#444A98" width="869.307" height="36.311"/>
</g>
<g id="text_1_">
	<rect x="3.55" y="-221.908" fill="none" width="867.4" height="75.6"/>
	<text transform="matrix(1 0 0 1 5.5498 -210.248)"><tspan x="0" y="0" font-family="'Consolas'" font-size="14">Итак, подведем итоги. Система 5S – это первая ступень на пути к вершинам «Эверест», то есть к организации </tspan><tspan x="0" y="18.4" font-family="'Consolas'" font-size="14">производства по мировым стандартам. Вы никогда не сможете достичь финиша в системе 5S: она циклична и всегда </tspan><tspan x="0" y="36.8" font-family="'Consolas'" font-size="14">можно найти, что улучшить, сделать более рациональным и упорядоченным. Но вы можете считать, что внедрение </tspan><tspan x="0" y="55.2" font-family="'Consolas'" font-size="14">системы 5S на вашем предприятии прошло успешно, если:</tspan></text>
	<rect x="-14.023" y="-244.759" fill-rule="evenodd" clip-rule="evenodd" fill="#444A98" width="15" height="15"/>
	<rect x="870.977" y="-244.759" fill-rule="evenodd" clip-rule="evenodd" fill="#444A98" width="15.001" height="15"/>
	<rect x="-29" y="-144.795" fill-rule="evenodd" clip-rule="evenodd" fill="#444A98" width="15" height="7"/>
	<rect x="-30" y="288.955" fill-rule="evenodd" clip-rule="evenodd" fill="#444A98" width="15" height="7"/>
	<rect x="366.15" y="247.943" fill="none" width="255.05" height="20.4"/>
	<text transform="matrix(1 0 0 1 368.1499 259.603)" fill="#FFFFFF" font-family="'Consolas-Bold'" font-size="14">Желаем вам успехов!</text>
	<rect x="-30" y="231.905" fill-rule="evenodd" clip-rule="evenodd" fill="#444A98" width="15" height="7"/>
</g>
<g id="image">
	
		<use xlink:href="#image_1_"  width="869.85" height="231.65" x="-0.05" y="-231.6" transform="matrix(1 0 0 -1 0 0.0044)" overflow="visible"/>
</g>
</svg>
