<svg xmlns="http://www.w3.org/2000/svg" xmlns:xlink="http://www.w3.org/1999/xlink" width="884.999" height="343.5" viewBox="0 0 884.999 343.5"><symbol id="h" viewBox="0 -35.5 60.5 35.5"><path fill-rule="evenodd" clip-rule="evenodd" fill="#fff" d="M60.5-35.5h-60.5v35.5h60.5z"/></symbol><symbol id="e" viewBox="-1.05 -77.65 80.6 82.5"><g clip-rule="evenodd"><path fill-rule="evenodd" fill="#009948" d="M78.55-6.7v-59.85h-52.8v59.85z"/><path stroke="#009948" stroke-width="2" stroke-linecap="round" stroke-linejoin="round" stroke-miterlimit="3" d="M78.55-6.7v-59.85h-52.8v59.85z" fill="none"/></g><g clip-rule="evenodd"><path fill-rule="evenodd" fill="#fff" d="M71.9-14.8v-7h-10.1v7h10.1zm-14.75-7h-11.65v7h11.65v-7zm-11.65-24.2v6.95h11.65v-6.95h-11.65zm11.65 12h-11.65v7h11.65v-7zm14.75-5.05v-6.95h-10.1v6.95h10.1zm-10.1 12.05h10.1v-7h-10.1v7zm0-24.45h10.1v-6.95h-10.1v6.95zm-16.3 0h11.65v-6.95h-11.65v6.95z"/><path stroke="#fff" stroke-linecap="round" stroke-linejoin="round" stroke-miterlimit="3" d="M71.9-14.8v-7h-10.1v7h10.1zm-14.75-7h-11.65v7h11.65v-7zm-11.65-24.2v6.95h11.65v-6.95h-11.65zm11.65 12h-11.65v7h11.65v-7zm14.75-5.05v-6.95h-10.1v6.95h10.1zm-10.1 12.05h10.1v-7h-10.1v7zm0-24.45h10.1v-6.95h-10.1v6.95zm-16.3 0h11.65v-6.95h-11.65v6.95z" fill="none"/></g><g clip-rule="evenodd"><path fill-rule="evenodd" fill="#009948" d="M-.05-2.2l47 6.05v-80.5l-47 6.05z"/><path stroke="#fff" stroke-width="2" stroke-linecap="round" stroke-linejoin="round" stroke-miterlimit="3" d="M-.05-2.2l47 6.05v-80.5l-47 6.05z" fill="none"/></g><path fill-rule="evenodd" clip-rule="evenodd" fill="#fff" d="M27.3-22.5l6.3.6-9.35-14.1 10.15-14.4-6.5.55-6.5 9.55-5.5-8.45-5.05.5 7.75 12.15-8 11.7-.15.35 5.05.45 5.8-8.25 6 9.35z"/></symbol><symbol id="k" viewBox="-0.35 -62 81.45 70"><use xlink:href="#a" width="81.45" height="70" x="-.5" y="-59.5" transform="translate(.15 -2.5)" overflow="visible"/></symbol><symbol id="p" viewBox="28 -343.489 496.201 343.489"><use xlink:href="#b" width="774.95" height="536.45" y="-536.45" transform="matrix(.64 0 0 .64 28 0)" overflow="visible"/><use xlink:href="#c" width="81.7" height="95.9" x="-7.3" y="-83.3" transform="matrix(.559 0 0 .495 436.299 -199.8)" overflow="visible"/><path d="M489.064-259.225h-68.515v14.536h68.515z" fill="none"/><text transform="matrix(1 0 0 -1 435.092 -253.759)" font-family="'Consolas'" font-size="10.245">Корзина</text><path d="M135.382-92.175h-83.882v14.535h83.882z" fill="none"/><text transform="matrix(1 0 0 -1 56.828 -86.709)" font-family="'Consolas'" font-size="10.245">Мой компьютер</text><path d="M125.142-259.225h-63.392v14.536h63.392z" fill="none"/><text transform="matrix(1 0 0 -1 73.731 -253.759)" font-family="'Consolas'" font-size="10.245">Outlook</text><path d="M410.549-290.5h-71.399v45.811h71.399zm80.681 185.07h-80.681v27.79h80.681zm-359.722-80.413h-80.008v27.053h80.008z" fill="none"/><text transform="matrix(1 0 0 -1 57.707 -167.858)" font-family="'Consolas'" font-size="10.245">Стандарты 5S</text><path d="M233.724-117.998h-80.424v40.309h80.424z" fill="none"/><text transform="matrix(1 0 0 -1 156.898 -86.758)"><tspan x="0" y="0" font-family="'Consolas'" font-size="10.245">Ответственные</tspan><tspan x="22.531" y="13.255" font-family="'Consolas'" font-size="10.245">за 5S</tspan></text><path d="M331.713-272.479h-86.763v27.79h86.763zm-107.639 85.899h-64.224v27.79h64.224z" fill="none"/><use xlink:href="#d" width="81.45" height="70" x="-26.5" y="-29.6" transform="matrix(.64 0 0 .64 86.8 -136.4)" overflow="visible"/><use xlink:href="#e" width="80.6" height="82.5" x="-1.05" y="-77.65" transform="matrix(.64 0 0 .64 168.75 -28.75)" overflow="visible"/><use xlink:href="#f" width="75" height="65.45" y="-65.45" transform="matrix(.611 0 0 .658 71.75 -31.2)" overflow="visible"/><use xlink:href="#g" width="82.95" height="83.272" x="-1" y="-82.15" transform="matrix(.609 0 0 .609 69.5 -191.65)" overflow="visible"/></symbol><symbol id="l" viewBox="-44.972 -87.806 121.702 97.719"><path d="M23.558 7.839c.566.976 1.414 1.621 2.545 1.935 1.132.279 2.21.14 3.235-.418l22.644-12.918-40.834-69.765-22.644 12.917c-1.025.558-1.697 1.395-2.015 2.51-.283 1.151-.124 2.214.478 3.19l36.591 62.549zm51.068-24.266c.99-.592 1.644-1.447 1.962-2.562.283-1.116.141-2.162-.424-3.138l-36.591-62.548c-.602-.976-1.467-1.638-2.599-1.987-1.132-.279-2.192-.122-3.182.471l-22.644 12.864 40.834 69.765 22.644-12.865z" fill-rule="evenodd" clip-rule="evenodd" fill="#333"/><g fill-rule="evenodd" clip-rule="evenodd"><path fill="#F9F9F9" d="M23.65 6.2c.533.933 1.333 1.55 2.4 1.85 1.067.267 2.083.133 3.05-.4l21.35-12.35-38.5-66.7-21.35 12.35c-.967.533-1.6 1.333-1.9 2.4-.267 1.1-.117 2.117.45 3.05l34.5 59.8zm48.15-23.2c.934-.567 1.55-1.383 1.85-2.45.267-1.066.133-2.066-.4-3l-34.5-59.8c-.567-.933-1.383-1.567-2.45-1.9-1.066-.267-2.066-.117-3 .45l-21.35 12.3 38.5 66.7 21.35-12.3z"/><path fill="#2F3033" d="M28.785-47.098c.255-3.665 2.154-6.466 5.698-8.404l-3.059-2.323-8.557 4.942 18.387 31.834 4.961-18.53c.691-2.581.375-5.016-.947-7.306-1.323-2.29-3.269-3.77-5.837-4.44-2.097-.562-4.125-.439-6.087.366-1.94.794-3.46 2.081-4.559 3.861z"/><path fill="#434548" d="M19.298-42.845c-1.678 1.296-2.797 2.993-3.359 5.089-.682 2.548-.362 4.967.961 7.257s3.264 3.786 5.824 4.489l18.531 4.961-18.388-31.833-8.557 4.942.483 3.811c3.469-2.113 6.845-2.358 10.126-.736-2.089.061-3.963.735-5.621 2.02zm8.423 42.087l1.268-.732 1.086 3.228.106.243-2.46-2.739zm3.783 3.8c.091-.233.107-.479.048-.737l-2.568-9.305-1.318.762.909 3.33-1.876 1.084-2.336-2.405-.069-.062-1.294.747.124.098 6.587 6.78c.462.409.921.482 1.378.219.169-.099.308-.269.415-.511z"/><path fill="#2F3033" d="M21.623-14.009c.08-.993.606-1.76 1.58-2.299l-.838-.632-2.358 1.362 5.053 8.749 1.345-5.106c.203-.703.119-1.375-.252-2.018-.361-.625-.897-1.026-1.607-1.202-.56-.15-1.118-.121-1.674.088-.531.214-.947.567-1.249 1.058z"/><path fill="#434548" d="M25.059-6.83l-5.053-8.749-2.358 1.362.128 1.042c.954-.574 1.881-.647 2.781-.22-.576.017-1.09.201-1.541.552-.458.377-.762.846-.912 1.406-.186.693-.098 1.353.263 1.979.371.642.903 1.056 1.597 1.242l5.095 1.386zm8.145-72.04l2.307 2.581-1.25.722-1.093-3.248-.122-.27.158.215zm3.321 3.629l2.376 2.405.059.102 1.327-.766-.14-.124-6.654-6.808c-.196-.182-.432-.295-.707-.34-.249-.038-.467-.002-.654.105s-.327.279-.418.514c-.108.244-.133.497-.073.757l2.624 9.374 1.327-.767-.929-3.376 1.862-1.076z"/><path fill="#2F3033" d="M43.304-61.326l-5.085-8.803-1.379 5.152c-.187.698-.099 1.361.265 1.991.373.646.909 1.063 1.606 1.25.563.151 1.134.117 1.71-.103.533-.217.952-.572 1.256-1.065-.081.999-.611 1.771-1.59 2.313l.844.636 2.373-1.371z"/><path fill="#434548" d="M45.522-63.729c-.943.567-1.867.636-2.773.206.58-.017 1.097-.203 1.551-.555.461-.38.767-.852.918-1.415.187-.698.093-1.37-.28-2.016-.363-.629-.894-1.038-1.592-1.225l-5.127-1.394 5.085 8.803 2.347-1.356-.129-1.048z"/><path fill="#DE4653" d="M-44.564-20.326c-.48 1.049-.537 2.116-.169 3.2.403 1.083 1.138 1.888 2.205 2.412l23.62 11.329 34.793-72.638-23.62-11.329c-1.066-.524-2.145-.594-3.235-.209-1.125.385-1.928 1.083-2.409 2.098l-31.185 65.137zm49.242 28.268c1.075.49 2.163.559 3.263.21 1.135-.385 1.944-1.102 2.429-2.15l31.462-65.138c.485-1.014.542-2.063.172-3.147-.407-1.118-1.148-1.922-2.223-2.412l-23.823-11.328-35.103 72.637 23.823 11.328z"/><path fill="#fff" d="M-42.25-21c-.467 1-.533 2.017-.2 3.05.367 1.033 1.05 1.8 2.05 2.3l22.15 10.8 33.75-69.25-22.15-10.8c-1-.5-2.017-.566-3.05-.2-1.066.367-1.833 1.033-2.3 2l-30.25 62.1zm46.15 26.95c1 .467 2.017.533 3.05.2 1.067-.366 1.833-1.05 2.3-2.05l30.25-62.1c.467-.966.533-1.966.2-3-.367-1.066-1.05-1.833-2.05-2.3l-22.15-10.8-33.75 69.25 22.15 10.8z"/><path fill="#D54A5B" d="M-36.256-17.895l.736-3.041 1.205.587-1.893 2.477-.129.205.081-.228zm.399 1.447l5.72-6.723-1.253-.61-2.061 2.395-1.759-.857.604-3.015.035-.072-1.252-.61-.011.144-1.771 8.468c-.074.56.105.946.539 1.157.177.086.377.104.6.054.24-.044.443-.154.609-.331zm.616-12.341c.247.717.716 1.243 1.406 1.58.675.329 1.371.37 2.087.123l3.405-6.987-5.196 1.791c-.717.247-1.24.708-1.568 1.383-.336.69-.381 1.394-.134 2.11z"/><path fill="#A4343A" d="M-28.254-25.384c.717-.247 1.243-.716 1.58-1.406.329-.675.369-1.371.122-2.087l-1.791-5.196-3.405 6.987c.247.717.716 1.243 1.407 1.58.675.328 1.37.369 2.087.122z"/><path fill="#D54A5B" d="M28.208-56.233l-1.276-.622 2.005-2.625.15-.243-.087.243c-.073.365-.219.968-.439 1.808l-.353 1.439zm-.981 4.672l1.302.634.023-.178 1.877-8.974c.079-.593-.112-1.002-.571-1.226-.17-.083-.374-.098-.61-.044-.253.045-.468.161-.644.349l-6.1 7.138 1.327.647 2.197-2.563 1.864.908-.665 3.309zm.723 3.638c-.262-.76-.75-1.313-1.465-1.662-.731-.356-1.478-.404-2.237-.142l-3.608 7.404 5.506-1.898c.759-.262 1.317-.759 1.674-1.491.348-.715.391-1.452.13-2.211z"/><path fill="#A4343A" d="M20.545-51.531c-.759.262-1.313.75-1.662 1.465-.356.731-.404 1.478-.142 2.237l1.898 5.506 3.608-7.404c-.262-.759-.75-1.313-1.465-1.662-.731-.356-1.477-.403-2.237-.142z"/><path fill="#D54A5B" d="M-7.761-28.067l12.35-25.348-18.842 6.519c-2.6.896-4.502 2.581-5.707 5.053-1.204 2.472-1.358 5.008-.462 7.608.897 2.6 2.581 4.502 5.053 5.707s5.008 1.357 7.608.461z"/><path fill="#A4343A" d="M4.926-21.886c2.6-.897 4.502-2.581 5.707-5.053 1.204-2.472 1.358-5.008.462-7.608l-6.506-18.869-12.35 25.348c.896 2.6 2.589 4.506 5.079 5.719 2.473 1.205 5.009 1.359 7.608.463z"/></g></symbol><symbol id="o" viewBox="-8.85 -55.528 56.8 66.428"><g clip-rule="evenodd"><path fill-rule="evenodd" fill="#DE4653" d="M46.95.5c-4.633-44.067-17.65-61.667-39.05-52.8 6.8 1.667 10.15 6.767 10.05 15.3-8.467-6.9-17.067-7.383-25.8-1.45 11.233-.067 17.783 16.05 19.65 48.35l35.15-9.4z"/><path stroke="#DE4653" stroke-width="2" stroke-linecap="round" stroke-linejoin="round" stroke-miterlimit="3" d="M46.95.5c-4.633-44.067-17.65-61.667-39.05-52.8 6.8 1.667 10.15 6.767 10.05 15.3-8.467-6.9-17.067-7.383-25.8-1.45 11.233-.067 17.783 16.05 19.65 48.35l35.15-9.4z" fill="none"/></g><path clip-rule="evenodd" stroke="#fff" stroke-width="5" stroke-linecap="round" stroke-linejoin="round" stroke-miterlimit="3" d="M15.35-12.55l21.75-5.9m-24.25-3.35l21.8-6m-18 24.6l21.75-5.95" fill="none"/></symbol><symbol id="b" viewBox="0 -536.45 774.95 536.45"><g fill-rule="evenodd" clip-rule="evenodd"><path fill="#555E9B" d="M774.95-8.2v-438.35c0-2.367-.917-4.45-2.75-6.25-2.2-1.567-4.667-2.35-7.4-2.35h-299.1l5.5-32.85c0-5.6-.717-10.55-2.15-14.85h104.9l23.05-25.2 1.55-.95v-6.65c0-.534-1.683-.8-5.05-.8h-417.5c-3.367 0-5.05.267-5.05.8v6.65c0 .633.45.95 1.35.95l22.25 25.2h106.5c-1.566 4.3-2.35 9.25-2.35 14.85l5.45 32.85h-294.2c-2.733 0-5 .783-6.8 2.35-2.1 1.8-3.15 3.883-3.15 6.25v438.35c0 2.067 1.05 4.017 3.15 5.85 1.8 1.567 4.067 2.35 6.8 2.35h754.85c2.733 0 5.2-.783 7.4-2.35 1.833-1.833 2.75-3.783 2.75-5.85z"/><path fill="#F0FDFF" d="M746.75-431.95h-720.75v408.15h720.75z"/></g></symbol><symbol id="f" viewBox="0 -65.45 75 65.45"><path fill-rule="evenodd" clip-rule="evenodd" fill="#444A98" d="M74.75-.25c.167-.2.25-.417.25-.65v-48.6c0-.267-.083-.5-.25-.7-.233-.167-.483-.25-.75-.25h-26.9l.7-6.05c0-1-.083-1.917-.25-2.75h12.85l2.85-4.6.2-.25v-1.15c0-.133-.217-.2-.65-.2h-51.1c-.434 0-.65.067-.65.2v1.15c0 .167.067.25.2.25l2.7 4.6h13.05c-.2.833-.3 1.75-.3 2.75l.65 6.05h-26.4c-.267 0-.483.083-.65.25-.2.2-.3.433-.3.7v48.6c0 .233.1.45.3.65.167.167.383.25.65.25h73.05c.267 0 .517-.083.75-.25z"/><use xlink:href="#h" width="60.5" height="35.5" y="-35.5" transform="translate(7.2 -7.45)" overflow="visible"/><path fill-rule="evenodd" clip-rule="evenodd" fill="#AEEFF9" d="M67.65-7.5v-8.3l-59.275-26.9h-1.225v19.05l35.6 16.15h24.9zm0-12.875v-6.875l-32.975-15.45h-14.7l47.675 22.325z"/></symbol><symbol id="g" viewBox="-1 -82.15 82.95 83.272"><g clip-rule="evenodd"><path fill-rule="evenodd" fill="#F9DE48" d="M5.75-6.3c3.2 3.2 7.283 5.2 12.25 6 2.5.433 4.683.533 6.55.3h56.4v-80.95h-80.95v57.3c0 1.9.233 4.066.7 6.5.933 4.8 2.617 8.417 5.05 10.85z"/><path stroke="#F9DE48" stroke-width="2" stroke-linecap="round" stroke-linejoin="round" stroke-miterlimit="3" d="M5.75-6.3c3.2 3.2 7.283 5.2 12.25 6 2.5.433 4.683.533 6.55.3h56.4v-80.95h-80.95v57.3c0 1.9.233 4.066.7 6.5.933 4.8 2.617 8.417 5.05 10.85z" fill="none"/></g><g fill-rule="evenodd" clip-rule="evenodd"><path fill="#fff" d="M78.85-60.45c-.2.067-.4.067-.6 0l-29.3-6.6c-.1 0-.2-.017-.3-.05l-9.1-2.1-4.85 7.7-.05.1-.05.05-15.35 24.6c-.233.333-.55.55-.95.65-.4.1-.783.033-1.15-.2-.333-.2-.55-.5-.65-.9-.1-.4-.033-.783.2-1.15l14.45-23.15-29.4-12 14.95 37.1c.1.267.267.45.5.55.267.133.533.133.8 0l60.85-24.6zm-24.85-21.7h-34.65l-15.45 6.25 28.85 11.8 4.8-7.6c.167-.267.4-.466.7-.6.267-.1.567-.117.9-.05l9.25 2.1 5.6-11.9zm25.35 21.5l.3-.1c.233-.067.417-.233.55-.5.1-.267.1-.533 0-.8l-8.1-20.1h-14.85l-.05.1-5.8 12.45 27.5 6.2c.4.1.717.333.95.7.2.333.267.7.2 1.1-.1.433-.333.75-.7.95z"/><path fill="#F29800" d="M1.75-73.5l29.4 12-14.45 23.15c-.233.367-.3.75-.2 1.15.1.4.317.7.65.9.367.233.75.3 1.15.2.4-.1.717-.316.95-.65l15.35-24.6.05-.05.05-.1 4.85-7.7 9.1 2.1c.1.033.2.05.3.05l29.3 6.6c.2.067.4.067.6 0l.45-.15.05-.05c.367-.2.6-.517.7-.95.067-.4 0-.767-.2-1.1-.233-.367-.55-.6-.95-.7l-27.5-6.2 5.8-12.45.05-.1h-3.25l-5.6 11.9-9.25-2.1c-.333-.066-.633-.05-.9.05-.3.133-.533.333-.7.6l-4.8 7.6-28.85-11.8-1.05-.4c-.4-.167-.783-.167-1.15 0-.4.167-.684.433-.85.8-.167.4-.15.783.05 1.15.133.4.4.684.8.85h.05z"/></g><path clip-rule="evenodd" stroke="#F29800" stroke-width="8" stroke-linecap="round" stroke-linejoin="round" stroke-miterlimit="3" d="M26.6-45.25c-3.567.1-6.617 1.7-9.15 4.8-2.633 3.167-3.95 7.017-3.95 11.55 0 4.5 1.317 8.35 3.95 11.55 2.6 3.167 5.75 4.75 9.45 4.75 3.7 0 6.867-1.583 9.5-4.75 2.6-3.2 3.9-7.05 3.9-11.55 0-4.533-1.3-8.383-3.9-11.55-2.566-3.1-5.617-4.7-9.15-4.8" fill="none"/></symbol><symbol id="a" viewBox="-0.5 -59.5 81.45 70"><g clip-rule="evenodd"><path fill-rule="evenodd" fill="#FFAB43" d="M32.05 10l5.5-10h36.45v-59h-74v59h.05v10h32zm5.5-10l-5.5-4h-32v4-4h32l5.5 4z"/><path stroke="#FFAB43" stroke-linecap="round" stroke-linejoin="round" stroke-miterlimit="3" d="M32.05 10l5.5-10h36.45v-59h-74v59h.05v10h32zm5.5-10l-5.5-4h-32v4" fill="none"/></g><g clip-rule="evenodd"><path fill-rule="evenodd" fill="#FFDB91" d="M80.45-11.3l-6.35-47.65h-74l8.8 48.95z"/><path stroke="#FFDB91" stroke-linecap="round" stroke-linejoin="round" stroke-miterlimit="3" d="M80.45-11.3l-6.35-47.65h-74l8.8 48.95z" fill="none"/></g></symbol><symbol id="j" viewBox="3.5 -184.9 217.05 182.35"><g clip-rule="evenodd"><path fill-rule="evenodd" fill="#fff" d="M219.55-183.9h-215.05v180.35h215.05z"/><path stroke="#fff" stroke-width="2" stroke-miterlimit="10" d="M219.55-183.9h-215.05v180.35h215.05z" fill="none"/></g></symbol><symbol id="d" viewBox="-26.5 -29.6 81.45 70"><use xlink:href="#a" width="81.45" height="70" x="-.5" y="-59.5" transform="translate(-26 29.9)" overflow="visible"/></symbol><symbol id="c" viewBox="-7.3 -83.3 81.7 95.9"><g clip-rule="evenodd"><path fill-rule="evenodd" fill="#93EAF7" d="M58.55-77.45l-49.05.05-9.5 77.4h66.95z"/><path stroke="#93EAF7" stroke-width=".1" stroke-linecap="round" stroke-linejoin="round" stroke-miterlimit="3" d="M58.55-77.45l-49.05.05-9.5 77.4h66.95z" fill="none"/></g><g clip-rule="evenodd"><path fill-rule="evenodd" fill="#8F999E" d="M8.4-77.45h50.65v-5.8h-50.65v5.8zm65.95 77.45h-81.6v12.55h81.6v-12.55z"/><path stroke="#8F999E" stroke-width=".1" stroke-linecap="round" stroke-linejoin="round" stroke-miterlimit="3" d="M8.4-77.45h50.65v-5.8h-50.65v5.8zm65.95 77.45h-81.6v12.55h81.6v-12.55z" fill="none"/></g><path clip-rule="evenodd" stroke="#8F999E" stroke-width="2" stroke-linecap="round" stroke-linejoin="round" stroke-miterlimit="3" d="M9.45-12.1l7.85-55.45m39.25 55.45l-6.3-54.95m-27.2 56.5l4.2-56.5m16.2 56.5l-3.65-56.5" fill="none"/></symbol><symbol id="m" viewBox="-0.5 -79.5 75 80"><g clip-rule="evenodd"><path fill-rule="evenodd" fill="#fff" d="M72.75-78.5h-71.5v78h71.5z"/><path stroke="#fff" stroke-linecap="round" stroke-linejoin="round" stroke-miterlimit="3" d="M72.75-78.5h-71.5v78h71.5z" fill="none"/></g><g clip-rule="evenodd"><path fill-rule="evenodd" fill="#1E2B33" d="M61-13h3.55v-5.5h-3.55 3.55v5.5h-3.55v13h13v-79h-13v13.5h5.55v5.5h-5.55v41.5h-51.45v5.5h3.45-3.45v-5.5h3.45v-41.5h-8.95v-5.5h8.95v-13.5h-13v79h13v-13h48zm0-47h5.55v-5.5h-62.5v5.5h56.95z"/><path stroke="#1E2B33" stroke-linecap="round" stroke-linejoin="round" stroke-miterlimit="3" d="M61-13h3.55v-5.5h-3.55v-41.5h5.55v-5.5h-5.55v-13.5h13v79h-13v-13zm-48-5.5h-3.45v5.5h3.45v13h-13v-79h13v13.5h-8.95v5.5h8.95v41.5zm0-41.5h48m0-5.5h-48m0 52.5h48m0-5.5h-48" fill="none"/></g><path clip-rule="evenodd" stroke="#fff" stroke-width="3" stroke-linecap="round" stroke-linejoin="round" stroke-miterlimit="3" d="M66.3-7.75h2.75m-2.75-11.75h2.75m-2.75-12.25h2.75m-2.75-13.5h2.75m-63.75 0h2.75m-2.75 13.5h2.75m-2.75 12.25h2.75m-2.75 11.75h2.75m-2.75-63.75h2.75m-2.75 12.5h2.75m58.25 0h2.75m-2.75-12.5h2.75" fill="none"/><g clip-rule="evenodd"><path fill-rule="evenodd" fill="#444A98" d="M46.9-39.65l-.05-1-17.75-10.6-.25 22.85z"/><path stroke="#444A98" stroke-linecap="round" stroke-linejoin="round" stroke-miterlimit="3" d="M46.9-39.65l-18.05 11.25.25-22.85 17.75 10.6z" fill="none"/></g></symbol><symbol id="n" viewBox="38.8 -113.25 73.1 73.7"><g clip-rule="evenodd"><path fill-rule="evenodd" fill="#378EC9" d="M110.9-40.55v-71.7h-71.1v71.7z"/><path stroke="#378EC9" stroke-width="2" stroke-linecap="round" stroke-linejoin="round" stroke-miterlimit="3" d="M110.9-40.55v-71.7h-71.1v71.7z" fill="none"/></g><path fill-rule="evenodd" clip-rule="evenodd" fill="#fff" d="M55.35-76.95c-.4 0-.733.15-1 .45-.3.267-.45.6-.45 1s.15.75.45 1.05c.267.267.6.4 1 .4h22.85c.4 0 .75-.133 1.05-.4.267-.3.4-.65.4-1.05s-.133-.733-.4-1c-.3-.3-.65-.45-1.05-.45h-22.85zm24.3 8.7c0-.4-.133-.733-.4-1-.3-.267-.65-.4-1.05-.4h-22.85c-.4 0-.733.133-1 .4-.3.267-.45.6-.45 1s.15.75.45 1.05c.267.267.6.4 1 .4h22.85c.4 0 .75-.133 1.05-.4.267-.3.4-.65.4-1.05zm-.4 8.3c.267-.267.4-.6.4-1s-.133-.75-.4-1.05c-.3-.267-.65-.4-1.05-.4h-22.85c-.4 0-.733.133-1 .4-.3.267-.45.617-.45 1.05 0 .4.15.733.45 1 .267.267.6.4 1 .4h22.85c.4 0 .75-.133 1.05-.4zm14.1-26.95h.8c.3 0 .567-.083.8-.25.267-.167.433-.4.5-.7l4.2-12.8c.2-.733.4-1.4.6-2 .167-.533.383-1.317.65-2.35l1.15 4.35c.267 1 .434 1.617.5 1.85l3.65 14.1c.066.3.233.534.5.7.233.2.5.3.8.3h.1c.433 0 .8-.183 1.1-.55.267-.333.35-.733.25-1.2l-6.2-22.6c-.067-.3-.233-.55-.5-.75-.233-.2-.5-.3-.8-.3h-2.8c-.3 0-.566.083-.8.25-.233.2-.4.434-.5.7l-4.05 12.35c-.1.333-.183.633-.25.9l-.25.7-.2.7c-.033-.233-.083-.467-.15-.7l-4.35-13.95c-.1-.267-.267-.5-.5-.7-.233-.167-.5-.25-.8-.25h-2.8c-.3 0-.583.1-.85.3-.233.167-.4.4-.5.7l-6.3 22.65c-.1.434-.017.833.25 1.2s.633.55 1.1.55h2.3c.3 0 .583-.083.85-.25.233-.2.4-.45.5-.75l3.8-14.1c.2-.833.35-1.5.45-2l1-4.2 5.4 17.15c.1.3.267.533.5.7.267.167.55.25.85.25zm10.2 41.75c.267-.3.4-.633.4-1v-30.1c0-.533-.184-.983-.55-1.35-.4-.367-.85-.55-1.35-.55h-.05c-.5 0-.95.183-1.35.55-.367.367-.55.817-.55 1.35v19.7c0 .367-.133.683-.4.95-.267.267-.583.4-.95.4h-47.9c-.367 0-.684-.133-.95-.4s-.4-.583-.4-.95v-43.9c0-.367.133-.683.4-.95s.583-.4.95-.4h23.1c.533 0 .983-.2 1.35-.6.367-.367.55-.8.55-1.3 0-.533-.184-.983-.55-1.35s-.816-.55-1.35-.55h-29.5c-.367 0-.684.133-.95.4-.267.267-.4.583-.4.95v58.1c0 .367.133.7.4 1 .267.267.583.4.95.4h58.1c.367 0 .7-.133 1-.4z"/></symbol><path d="M0-24.741h15v15h-15zm884.999 0h15v15h-15zm-906.149 17.759h15v7h-15zm-2.4 66.2h15v7h-15zm0 284.95h15v6.999h-15zm0 167.85h15v7h-15zm0-99.9h15v6.999h-15z" fill-rule="evenodd" clip-rule="evenodd" fill="#8DB321"/><linearGradient id="i" gradientUnits="userSpaceOnUse" x1="51.384" y1="127.738" x2="853.269" y2="127.738" gradientTransform="matrix(1.085 0 0 1.524 -41.728 186.873)"><stop offset="0" stop-color="#AED345"/><stop offset="1" stop-color="#8DB321"/></linearGradient><path fill-rule="evenodd" clip-rule="evenodd" fill="url(#i)" d="M14.014 351.127h869.884v60.893h-869.884z"/><path d="M13.794 353.76h869.75v77.4h-869.75z" fill="none"/><text transform="translate(15.794 365.699)"><tspan x="0" y="0" font-family="'MyriadPro-Regular'" font-size="14">«Рабочий стол» вашего компьютера тоже нуждается в сортировке. Найдите и отметьте на нем несущественные предметы.</tspan><tspan x="0" y="18.852" font-family="'MyriadPro-It'" font-size="14">Небольшая подсказка:</tspan><tspan x="134.412" y="18.852" font-family="'MyriadPro-Regular'" font-size="14">помните, что вы не можете удалять ярлыки программного обеспечения, установленного IT-отделом. Стандарт 5S</tspan><tspan x="0" y="37.701" font-family="'MyriadPro-Regular'" font-size="14">распространяется только на ярлыки и файлы, созданные самими сотрудниками.</tspan></text><use xlink:href="#j" width="217.05" height="182.35" x="3.5" y="-184.9" transform="matrix(.434 0 0 -.515 12.594 417.45)" overflow="visible"/><use xlink:href="#j" width="217.05" height="182.35" x="3.5" y="-184.9" transform="matrix(.434 0 0 -.515 124.444 417.45)" overflow="visible"/><use xlink:href="#j" width="217.05" height="182.35" x="3.5" y="-184.9" transform="matrix(.434 0 0 -.515 235.294 417.45)" overflow="visible"/><use xlink:href="#j" width="217.05" height="182.35" x="3.5" y="-184.9" transform="matrix(.434 0 0 -.515 346.144 417.45)" overflow="visible"/><use xlink:href="#f" width="75" height="65.45" y="-65.45" transform="matrix(.711 0 0 -.767 34.394 436.5)" overflow="visible"/><use xlink:href="#e" width="80.6" height="82.5" x="-1.05" y="-77.65" transform="matrix(.684 0 0 -.684 146.244 437.2)" overflow="visible"/><use xlink:href="#k" width="81.45" height="70" x="-.35" y="-62" transform="matrix(.706 0 0 -.706 255.844 441.8)" overflow="visible"/><use xlink:href="#g" width="82.95" height="83.272" x="-1" y="-82.15" transform="matrix(.624 0 0 -.624 370.094 434.05)" overflow="visible"/><path d="M21.344 485.593h75.717v29.925h-75.717z" fill="none"/><text transform="translate(50.71 494.697)"><tspan x="0" y="0" font-family="'Consolas'" font-size="10.298">Мой</tspan><tspan x="-16.986" y="13.08" font-family="'Consolas'" font-size="10.298">компьютер</tspan></text><path d="M131.444 485.593h80.068v37.253h-80.068z" fill="none"/><text transform="translate(134.676 494.697)"><tspan x="0" y="0" font-family="'Consolas'" font-size="10.298">Ответственные</tspan><tspan x="22.648" y="13.08" font-family="'Consolas'" font-size="10.298">за 5S</tspan></text><path d="M244.394 485.593h73.117v24.175h-73.117z" fill="none"/><text transform="translate(246.981 494.697)" font-family="'Consolas'" font-size="10.298">Стандарты 5S</text><path d="M368.694 485.593h50.976v14.108h-50.976z" fill="none"/><text transform="translate(374.365 494.697)" font-family="'Consolas'" font-size="10.298">Outlook</text><use xlink:href="#j" width="217.05" height="182.35" x="3.5" y="-184.9" transform="matrix(.433 0 0 -.514 455.494 417.4)" overflow="visible"/><use xlink:href="#j" width="217.05" height="182.35" x="3.5" y="-184.9" transform="matrix(.433 0 0 -.514 567.244 417.4)" overflow="visible"/><use xlink:href="#j" width="217.05" height="182.35" x="3.5" y="-184.9" transform="matrix(.433 0 0 -.514 677.994 417.4)" overflow="visible"/><use xlink:href="#j" width="217.05" height="182.35" x="3.5" y="-184.9" transform="matrix(.433 0 0 -.514 788.744 417.4)" overflow="visible"/><use xlink:href="#k" width="81.45" height="70" x="-.35" y="-62" transform="matrix(.705 0 0 -.705 698.544 441.6)" overflow="visible"/><use xlink:href="#l" width="121.702" height="97.719" x="-44.972" y="-87.806" transform="matrix(.551 0 0 -.551 495.544 439.15)" overflow="visible"/><use xlink:href="#m" width="75" height="80" x="-.5" y="-79.5" transform="matrix(.706 0 0 -.654 589.044 433.25)" overflow="visible"/><use xlink:href="#n" width="73.1" height="73.7" x="38.8" y="-113.25" transform="matrix(.76 0 0 -.738 780.394 402.6)" overflow="visible"/><path d="M465.844 485.592h74.18v27.161h-74.18z" fill="none"/><text transform="translate(483.136 494.69)"><tspan x="0" y="0" font-family="'Consolas'" font-size="10.288">Пасьянс</tspan><tspan x="-5.657" y="13.066" font-family="'Consolas'" font-size="10.288">«Косынка»</tspan></text><path d="M690.944 485.592h64.816v27.161h-64.816z" fill="none"/><text transform="translate(703.555 494.69)"><tspan x="0" y="0" font-family="'Consolas'" font-size="10.288">Фото из</tspan><tspan x="0" y="13.066" font-family="'Consolas'" font-size="10.288">отпуска</tspan></text><path d="M579.244 485.592h69.267v27.161h-69.267z" fill="none"/><text transform="translate(582.767 494.69)"><tspan x="0" y="0" font-family="'Consolas'" font-size="10.288">Корпоратив_</tspan><tspan x="8.484" y="13.066" font-family="'Consolas'" font-size="10.288">Танцы!!!</tspan></text><path d="M795.794 485.042h81.664v27.161h-81.664z" fill="none"/><text transform="translate(814 494.141)"><tspan x="0" y="0" font-family="'Consolas'" font-size="10.288">Черновик</tspan><tspan x="-14.142" y="13.066" font-family="'Consolas'" font-size="10.288">отчета 1999г.</tspan></text><use xlink:href="#o" width="56.8" height="66.428" x="-8.85" y="-55.528" transform="matrix(.497 -.133 -.133 -.497 793.244 426.75)" overflow="visible"/><use xlink:href="#o" width="56.8" height="66.428" x="-8.85" y="-55.528" transform="matrix(.497 -.133 -.133 -.497 682.544 426.75)" overflow="visible"/><use xlink:href="#o" width="56.8" height="66.428" x="-8.85" y="-55.528" transform="matrix(.497 -.133 -.133 -.497 571.294 426.75)" overflow="visible"/><use xlink:href="#o" width="56.8" height="66.428" x="-8.85" y="-55.528" transform="matrix(.497 -.133 -.133 -.497 459.544 426.75)" overflow="visible"/><use xlink:href="#p" width="496.201" height="343.489" x="28" y="-343.489" transform="matrix(1 0 0 -1 173.994 0)" overflow="visible"/></svg>