<svg xmlns="http://www.w3.org/2000/svg" xmlns:xlink="http://www.w3.org/1999/xlink" width="884.999" height="343.5" viewBox="0 0 884.999 343.5"><symbol id="b" viewBox="0 -35.5 60.5 35.5"><path fill-rule="evenodd" clip-rule="evenodd" fill="#fff" d="M60.5-35.5h-60.5v35.5h60.5z"/></symbol><symbol viewBox="-1.05 -77.65 80.6 82.5"><g clip-rule="evenodd"><path fill-rule="evenodd" fill="#009948" d="M78.55-6.7v-59.85h-52.8v59.85z"/><path stroke="#009948" stroke-width="2" stroke-linecap="round" stroke-linejoin="round" stroke-miterlimit="3" d="M78.55-6.7v-59.85h-52.8v59.85z" fill="none"/></g><g clip-rule="evenodd"><path fill-rule="evenodd" fill="#fff" d="M71.9-14.8v-7h-10.1v7h10.1zm-14.75-7h-11.65v7h11.65v-7zm-11.65-24.2v6.95h11.65v-6.95h-11.65zm11.65 12h-11.65v7h11.65v-7zm14.75-5.05v-6.95h-10.1v6.95h10.1zm-10.1 12.05h10.1v-7h-10.1v7zm0-24.45h10.1v-6.95h-10.1v6.95zm-16.3 0h11.65v-6.95h-11.65v6.95z"/><path stroke="#fff" stroke-linecap="round" stroke-linejoin="round" stroke-miterlimit="3" d="M71.9-14.8v-7h-10.1v7h10.1zm-14.75-7h-11.65v7h11.65v-7zm-11.65-24.2v6.95h11.65v-6.95h-11.65zm11.65 12h-11.65v7h11.65v-7zm14.75-5.05v-6.95h-10.1v6.95h10.1zm-10.1 12.05h10.1v-7h-10.1v7zm0-24.45h10.1v-6.95h-10.1v6.95zm-16.3 0h11.65v-6.95h-11.65v6.95z" fill="none"/></g><g clip-rule="evenodd"><path fill-rule="evenodd" fill="#009948" d="M-.05-2.2l47 6.05v-80.5l-47 6.05z"/><path stroke="#fff" stroke-width="2" stroke-linecap="round" stroke-linejoin="round" stroke-miterlimit="3" d="M-.05-2.2l47 6.05v-80.5l-47 6.05z" fill="none"/></g><path fill-rule="evenodd" clip-rule="evenodd" fill="#fff" d="M27.3-22.5l6.3.6-9.35-14.1 10.15-14.4-6.5.55-6.5 9.55-5.5-8.45-5.05.5 7.75 12.15-8 11.7-.15.35 5.05.45 5.8-8.25 6 9.35z"/></symbol><symbol viewBox="-0.35 -62 81.45 70"><use xlink:href="#a" width="81.45" height="70" x="-.5" y="-59.5" transform="translate(.15 -2.5)" overflow="visible"/></symbol><symbol viewBox="-44.972 -87.806 121.702 97.719"><path d="M23.558 7.839c.566.976 1.414 1.621 2.545 1.935 1.132.279 2.21.14 3.235-.418l22.644-12.918-40.834-69.765-22.644 12.917c-1.025.558-1.697 1.395-2.015 2.51-.283 1.151-.124 2.214.478 3.19l36.591 62.549zm51.068-24.266c.99-.592 1.644-1.447 1.962-2.562.283-1.116.141-2.162-.424-3.138l-36.591-62.548c-.602-.976-1.467-1.638-2.599-1.987-1.132-.279-2.192-.122-3.182.471l-22.644 12.864 40.834 69.765 22.644-12.865z" fill-rule="evenodd" clip-rule="evenodd" fill="#333"/><g fill-rule="evenodd" clip-rule="evenodd"><path fill="#F9F9F9" d="M23.65 6.2c.533.933 1.333 1.55 2.4 1.85 1.067.267 2.083.133 3.05-.4l21.35-12.35-38.5-66.7-21.35 12.35c-.967.533-1.6 1.333-1.9 2.4-.267 1.1-.117 2.117.45 3.05l34.5 59.8zm48.15-23.2c.934-.567 1.55-1.383 1.85-2.45.267-1.066.133-2.066-.4-3l-34.5-59.8c-.567-.933-1.383-1.567-2.45-1.9-1.066-.267-2.066-.117-3 .45l-21.35 12.3 38.5 66.7 21.35-12.3z"/><path fill="#2F3033" d="M28.785-47.098c.255-3.665 2.154-6.466 5.698-8.404l-3.059-2.323-8.557 4.942 18.387 31.834 4.961-18.53c.691-2.581.375-5.016-.947-7.306-1.323-2.29-3.269-3.77-5.837-4.44-2.097-.562-4.125-.439-6.087.366-1.94.794-3.46 2.081-4.559 3.861z"/><path fill="#434548" d="M19.298-42.845c-1.678 1.296-2.797 2.993-3.359 5.089-.682 2.548-.362 4.967.961 7.257s3.264 3.786 5.824 4.489l18.531 4.961-18.388-31.833-8.557 4.942.483 3.811c3.469-2.113 6.845-2.358 10.126-.736-2.089.061-3.963.735-5.621 2.02zm8.423 42.087l1.268-.732 1.086 3.228.106.243-2.46-2.739zm3.783 3.8c.091-.233.107-.479.048-.737l-2.568-9.305-1.318.762.909 3.33-1.876 1.084-2.336-2.405-.069-.062-1.294.747.124.098 6.587 6.78c.462.409.921.482 1.378.219.169-.099.308-.269.415-.511z"/><path fill="#2F3033" d="M21.623-14.009c.08-.993.606-1.76 1.58-2.299l-.838-.632-2.358 1.362 5.053 8.749 1.345-5.106c.203-.703.119-1.375-.252-2.018-.361-.625-.897-1.026-1.607-1.202-.56-.15-1.118-.121-1.674.088-.531.214-.947.567-1.249 1.058z"/><path fill="#434548" d="M25.059-6.83l-5.053-8.749-2.358 1.362.128 1.042c.954-.574 1.881-.647 2.781-.22-.576.017-1.09.201-1.541.552-.458.377-.762.846-.912 1.406-.186.693-.098 1.353.263 1.979.371.642.903 1.056 1.597 1.242l5.095 1.386zm8.145-72.04l2.307 2.581-1.25.722-1.093-3.248-.122-.27.158.215zm3.321 3.629l2.376 2.405.059.102 1.327-.766-.14-.124-6.654-6.808c-.196-.182-.432-.295-.707-.34-.249-.038-.467-.002-.654.105s-.327.279-.418.514c-.108.244-.133.497-.073.757l2.624 9.374 1.327-.767-.929-3.376 1.862-1.076z"/><path fill="#2F3033" d="M43.304-61.326l-5.085-8.803-1.379 5.152c-.187.698-.099 1.361.265 1.991.373.646.909 1.063 1.606 1.25.563.151 1.134.117 1.71-.103.533-.217.952-.572 1.256-1.065-.081.999-.611 1.771-1.59 2.313l.844.636 2.373-1.371z"/><path fill="#434548" d="M45.522-63.729c-.943.567-1.867.636-2.773.206.58-.017 1.097-.203 1.551-.555.461-.38.767-.852.918-1.415.187-.698.093-1.37-.28-2.016-.363-.629-.894-1.038-1.592-1.225l-5.127-1.394 5.085 8.803 2.347-1.356-.129-1.048z"/><path fill="#DE4653" d="M-44.564-20.326c-.48 1.049-.537 2.116-.169 3.2.403 1.083 1.138 1.888 2.205 2.412l23.62 11.329 34.793-72.638-23.62-11.329c-1.066-.524-2.145-.594-3.235-.209-1.125.385-1.928 1.083-2.409 2.098l-31.185 65.137zm49.242 28.268c1.075.49 2.163.559 3.263.21 1.135-.385 1.944-1.102 2.429-2.15l31.462-65.138c.485-1.014.542-2.063.172-3.147-.407-1.118-1.148-1.922-2.223-2.412l-23.823-11.328-35.103 72.637 23.823 11.328z"/><path fill="#fff" d="M-42.25-21c-.467 1-.533 2.017-.2 3.05.367 1.033 1.05 1.8 2.05 2.3l22.15 10.8 33.75-69.25-22.15-10.8c-1-.5-2.017-.566-3.05-.2-1.066.367-1.833 1.033-2.3 2l-30.25 62.1zm46.15 26.95c1 .467 2.017.533 3.05.2 1.067-.366 1.833-1.05 2.3-2.05l30.25-62.1c.467-.966.533-1.966.2-3-.367-1.066-1.05-1.833-2.05-2.3l-22.15-10.8-33.75 69.25 22.15 10.8z"/><path fill="#D54A5B" d="M-36.256-17.895l.736-3.041 1.205.587-1.893 2.477-.129.205.081-.228zm.399 1.447l5.72-6.723-1.253-.61-2.061 2.395-1.759-.857.604-3.015.035-.072-1.252-.61-.011.144-1.771 8.468c-.074.56.105.946.539 1.157.177.086.377.104.6.054.24-.044.443-.154.609-.331zm.616-12.341c.247.717.716 1.243 1.406 1.58.675.329 1.371.37 2.087.123l3.405-6.987-5.196 1.791c-.717.247-1.24.708-1.568 1.383-.336.69-.381 1.394-.134 2.11z"/><path fill="#A4343A" d="M-28.254-25.384c.717-.247 1.243-.716 1.58-1.406.329-.675.369-1.371.122-2.087l-1.791-5.196-3.405 6.987c.247.717.716 1.243 1.407 1.58.675.328 1.37.369 2.087.122z"/><path fill="#D54A5B" d="M28.208-56.233l-1.276-.622 2.005-2.625.15-.243-.087.243c-.073.365-.219.968-.439 1.808l-.353 1.439zm-.981 4.672l1.302.634.023-.178 1.877-8.974c.079-.593-.112-1.002-.571-1.226-.17-.083-.374-.098-.61-.044-.253.045-.468.161-.644.349l-6.1 7.138 1.327.647 2.197-2.563 1.864.908-.665 3.309zm.723 3.638c-.262-.76-.75-1.313-1.465-1.662-.731-.356-1.478-.404-2.237-.142l-3.608 7.404 5.506-1.898c.759-.262 1.317-.759 1.674-1.491.348-.715.391-1.452.13-2.211z"/><path fill="#A4343A" d="M20.545-51.531c-.759.262-1.313.75-1.662 1.465-.356.731-.404 1.478-.142 2.237l1.898 5.506 3.608-7.404c-.262-.759-.75-1.313-1.465-1.662-.731-.356-1.477-.403-2.237-.142z"/><path fill="#D54A5B" d="M-7.761-28.067l12.35-25.348-18.842 6.519c-2.6.896-4.502 2.581-5.707 5.053-1.204 2.472-1.358 5.008-.462 7.608.897 2.6 2.581 4.502 5.053 5.707s5.008 1.357 7.608.461z"/><path fill="#A4343A" d="M4.926-21.886c2.6-.897 4.502-2.581 5.707-5.053 1.204-2.472 1.358-5.008.462-7.608l-6.506-18.869-12.35 25.348c.896 2.6 2.589 4.506 5.079 5.719 2.473 1.205 5.009 1.359 7.608.463z"/></g></symbol><symbol viewBox="0 -536.45 774.95 536.45"><g fill-rule="evenodd" clip-rule="evenodd"><path fill="#555E9B" d="M774.95-8.2v-438.35c0-2.367-.917-4.45-2.75-6.25-2.2-1.567-4.667-2.35-7.4-2.35h-299.1l5.5-32.85c0-5.6-.717-10.55-2.15-14.85h104.9l23.05-25.2 1.55-.95v-6.65c0-.534-1.683-.8-5.05-.8h-417.5c-3.367 0-5.05.267-5.05.8v6.65c0 .633.45.95 1.35.95l22.25 25.2h106.5c-1.566 4.3-2.35 9.25-2.35 14.85l5.45 32.85h-294.2c-2.733 0-5 .783-6.8 2.35-2.1 1.8-3.15 3.883-3.15 6.25v438.35c0 2.067 1.05 4.017 3.15 5.85 1.8 1.567 4.067 2.35 6.8 2.35h754.85c2.733 0 5.2-.783 7.4-2.35 1.833-1.833 2.75-3.783 2.75-5.85z"/><path fill="#F0FDFF" d="M746.75-431.95h-720.75v408.15h720.75z"/></g></symbol><symbol viewBox="0 -65.45 75 65.45"><path fill-rule="evenodd" clip-rule="evenodd" fill="#444A98" d="M74.75-.25c.167-.2.25-.417.25-.65v-48.6c0-.267-.083-.5-.25-.7-.233-.167-.483-.25-.75-.25h-26.9l.7-6.05c0-1-.083-1.917-.25-2.75h12.85l2.85-4.6.2-.25v-1.15c0-.133-.217-.2-.65-.2h-51.1c-.434 0-.65.067-.65.2v1.15c0 .167.067.25.2.25l2.7 4.6h13.05c-.2.833-.3 1.75-.3 2.75l.65 6.05h-26.4c-.267 0-.483.083-.65.25-.2.2-.3.433-.3.7v48.6c0 .233.1.45.3.65.167.167.383.25.65.25h73.05c.267 0 .517-.083.75-.25z"/><use xlink:href="#b" width="60.5" height="35.5" y="-35.5" transform="translate(7.2 -7.45)" overflow="visible"/><path fill-rule="evenodd" clip-rule="evenodd" fill="#AEEFF9" d="M67.65-7.5v-8.3l-59.275-26.9h-1.225v19.05l35.6 16.15h24.9zm0-12.875v-6.875l-32.975-15.45h-14.7l47.675 22.325z"/></symbol><symbol viewBox="-1 -82.15 82.95 83.272"><g clip-rule="evenodd"><path fill-rule="evenodd" fill="#F9DE48" d="M5.75-6.3c3.2 3.2 7.283 5.2 12.25 6 2.5.433 4.683.533 6.55.3h56.4v-80.95h-80.95v57.3c0 1.9.233 4.066.7 6.5.933 4.8 2.617 8.417 5.05 10.85z"/><path stroke="#F9DE48" stroke-width="2" stroke-linecap="round" stroke-linejoin="round" stroke-miterlimit="3" d="M5.75-6.3c3.2 3.2 7.283 5.2 12.25 6 2.5.433 4.683.533 6.55.3h56.4v-80.95h-80.95v57.3c0 1.9.233 4.066.7 6.5.933 4.8 2.617 8.417 5.05 10.85z" fill="none"/></g><g fill-rule="evenodd" clip-rule="evenodd"><path fill="#fff" d="M78.85-60.45c-.2.067-.4.067-.6 0l-29.3-6.6c-.1 0-.2-.017-.3-.05l-9.1-2.1-4.85 7.7-.05.1-.05.05-15.35 24.6c-.233.333-.55.55-.95.65-.4.1-.783.033-1.15-.2-.333-.2-.55-.5-.65-.9-.1-.4-.033-.783.2-1.15l14.45-23.15-29.4-12 14.95 37.1c.1.267.267.45.5.55.267.133.533.133.8 0l60.85-24.6zm-24.85-21.7h-34.65l-15.45 6.25 28.85 11.8 4.8-7.6c.167-.267.4-.466.7-.6.267-.1.567-.117.9-.05l9.25 2.1 5.6-11.9zm25.35 21.5l.3-.1c.233-.067.417-.233.55-.5.1-.267.1-.533 0-.8l-8.1-20.1h-14.85l-.05.1-5.8 12.45 27.5 6.2c.4.1.717.333.95.7.2.333.267.7.2 1.1-.1.433-.333.75-.7.95z"/><path fill="#F29800" d="M1.75-73.5l29.4 12-14.45 23.15c-.233.367-.3.75-.2 1.15.1.4.317.7.65.9.367.233.75.3 1.15.2.4-.1.717-.316.95-.65l15.35-24.6.05-.05.05-.1 4.85-7.7 9.1 2.1c.1.033.2.05.3.05l29.3 6.6c.2.067.4.067.6 0l.45-.15.05-.05c.367-.2.6-.517.7-.95.067-.4 0-.767-.2-1.1-.233-.367-.55-.6-.95-.7l-27.5-6.2 5.8-12.45.05-.1h-3.25l-5.6 11.9-9.25-2.1c-.333-.066-.633-.05-.9.05-.3.133-.533.333-.7.6l-4.8 7.6-28.85-11.8-1.05-.4c-.4-.167-.783-.167-1.15 0-.4.167-.684.433-.85.8-.167.4-.15.783.05 1.15.133.4.4.684.8.85h.05z"/></g><path clip-rule="evenodd" stroke="#F29800" stroke-width="8" stroke-linecap="round" stroke-linejoin="round" stroke-miterlimit="3" d="M26.6-45.25c-3.567.1-6.617 1.7-9.15 4.8-2.633 3.167-3.95 7.017-3.95 11.55 0 4.5 1.317 8.35 3.95 11.55 2.6 3.167 5.75 4.75 9.45 4.75 3.7 0 6.867-1.583 9.5-4.75 2.6-3.2 3.9-7.05 3.9-11.55 0-4.533-1.3-8.383-3.9-11.55-2.566-3.1-5.617-4.7-9.15-4.8" fill="none"/></symbol><symbol id="a" viewBox="-0.5 -59.5 81.45 70"><g clip-rule="evenodd"><path fill-rule="evenodd" fill="#FFAB43" d="M32.05 10l5.5-10h36.45v-59h-74v59h.05v10h32zm5.5-10l-5.5-4h-32v4-4h32l5.5 4z"/><path stroke="#FFAB43" stroke-linecap="round" stroke-linejoin="round" stroke-miterlimit="3" d="M32.05 10l5.5-10h36.45v-59h-74v59h.05v10h32zm5.5-10l-5.5-4h-32v4" fill="none"/></g><g clip-rule="evenodd"><path fill-rule="evenodd" fill="#FFDB91" d="M80.45-11.3l-6.35-47.65h-74l8.8 48.95z"/><path stroke="#FFDB91" stroke-linecap="round" stroke-linejoin="round" stroke-miterlimit="3" d="M80.45-11.3l-6.35-47.65h-74l8.8 48.95z" fill="none"/></g></symbol><symbol viewBox="-26.5 -29.6 81.45 70"><use xlink:href="#a" width="81.45" height="70" x="-.5" y="-59.5" transform="translate(-26 29.9)" overflow="visible"/></symbol><symbol viewBox="-7.3 -83.3 81.7 95.9"><g clip-rule="evenodd"><path fill-rule="evenodd" fill="#93EAF7" d="M58.55-77.45l-49.05.05-9.5 77.4h66.95z"/><path stroke="#93EAF7" stroke-width=".1" stroke-linecap="round" stroke-linejoin="round" stroke-miterlimit="3" d="M58.55-77.45l-49.05.05-9.5 77.4h66.95z" fill="none"/></g><g clip-rule="evenodd"><path fill-rule="evenodd" fill="#8F999E" d="M8.4-77.45h50.65v-5.8h-50.65v5.8zm65.95 77.45h-81.6v12.55h81.6v-12.55z"/><path stroke="#8F999E" stroke-width=".1" stroke-linecap="round" stroke-linejoin="round" stroke-miterlimit="3" d="M8.4-77.45h50.65v-5.8h-50.65v5.8zm65.95 77.45h-81.6v12.55h81.6v-12.55z" fill="none"/></g><path clip-rule="evenodd" stroke="#8F999E" stroke-width="2" stroke-linecap="round" stroke-linejoin="round" stroke-miterlimit="3" d="M9.45-12.1l7.85-55.45m39.25 55.45l-6.3-54.95m-27.2 56.5l4.2-56.5m16.2 56.5l-3.65-56.5" fill="none"/></symbol><symbol viewBox="-0.5 -79.5 75 80"><g clip-rule="evenodd"><path fill-rule="evenodd" fill="#fff" d="M72.75-78.5h-71.5v78h71.5z"/><path stroke="#fff" stroke-linecap="round" stroke-linejoin="round" stroke-miterlimit="3" d="M72.75-78.5h-71.5v78h71.5z" fill="none"/></g><g clip-rule="evenodd"><path fill-rule="evenodd" fill="#1E2B33" d="M61-13h3.55v-5.5h-3.55 3.55v5.5h-3.55v13h13v-79h-13v13.5h5.55v5.5h-5.55v41.5h-51.45v5.5h3.45-3.45v-5.5h3.45v-41.5h-8.95v-5.5h8.95v-13.5h-13v79h13v-13h48zm0-47h5.55v-5.5h-62.5v5.5h56.95z"/><path stroke="#1E2B33" stroke-linecap="round" stroke-linejoin="round" stroke-miterlimit="3" d="M61-13h3.55v-5.5h-3.55v-41.5h5.55v-5.5h-5.55v-13.5h13v79h-13v-13zm-48-5.5h-3.45v5.5h3.45v13h-13v-79h13v13.5h-8.95v5.5h8.95v41.5zm0-41.5h48m0-5.5h-48m0 52.5h48m0-5.5h-48" fill="none"/></g><path clip-rule="evenodd" stroke="#fff" stroke-width="3" stroke-linecap="round" stroke-linejoin="round" stroke-miterlimit="3" d="M66.3-7.75h2.75m-2.75-11.75h2.75m-2.75-12.25h2.75m-2.75-13.5h2.75m-63.75 0h2.75m-2.75 13.5h2.75m-2.75 12.25h2.75m-2.75 11.75h2.75m-2.75-63.75h2.75m-2.75 12.5h2.75m58.25 0h2.75m-2.75-12.5h2.75" fill="none"/><g clip-rule="evenodd"><path fill-rule="evenodd" fill="#444A98" d="M46.9-39.65l-.05-1-17.75-10.6-.25 22.85z"/><path stroke="#444A98" stroke-linecap="round" stroke-linejoin="round" stroke-miterlimit="3" d="M46.9-39.65l-18.05 11.25.25-22.85 17.75 10.6z" fill="none"/></g></symbol><symbol viewBox="38.8 -113.25 73.1 73.7"><g clip-rule="evenodd"><path fill-rule="evenodd" fill="#378EC9" d="M110.9-40.55v-71.7h-71.1v71.7z"/><path stroke="#378EC9" stroke-width="2" stroke-linecap="round" stroke-linejoin="round" stroke-miterlimit="3" d="M110.9-40.55v-71.7h-71.1v71.7z" fill="none"/></g><path fill-rule="evenodd" clip-rule="evenodd" fill="#fff" d="M55.35-76.95c-.4 0-.733.15-1 .45-.3.267-.45.6-.45 1s.15.75.45 1.05c.267.267.6.4 1 .4h22.85c.4 0 .75-.133 1.05-.4.267-.3.4-.65.4-1.05s-.133-.733-.4-1c-.3-.3-.65-.45-1.05-.45h-22.85zm24.3 8.7c0-.4-.133-.733-.4-1-.3-.267-.65-.4-1.05-.4h-22.85c-.4 0-.733.133-1 .4-.3.267-.45.6-.45 1s.15.75.45 1.05c.267.267.6.4 1 .4h22.85c.4 0 .75-.133 1.05-.4.267-.3.4-.65.4-1.05zm-.4 8.3c.267-.267.4-.6.4-1s-.133-.75-.4-1.05c-.3-.267-.65-.4-1.05-.4h-22.85c-.4 0-.733.133-1 .4-.3.267-.45.617-.45 1.05 0 .4.15.733.45 1 .267.267.6.4 1 .4h22.85c.4 0 .75-.133 1.05-.4zm14.1-26.95h.8c.3 0 .567-.083.8-.25.267-.167.433-.4.5-.7l4.2-12.8c.2-.733.4-1.4.6-2 .167-.533.383-1.317.65-2.35l1.15 4.35c.267 1 .434 1.617.5 1.85l3.65 14.1c.066.3.233.534.5.7.233.2.5.3.8.3h.1c.433 0 .8-.183 1.1-.55.267-.333.35-.733.25-1.2l-6.2-22.6c-.067-.3-.233-.55-.5-.75-.233-.2-.5-.3-.8-.3h-2.8c-.3 0-.566.083-.8.25-.233.2-.4.434-.5.7l-4.05 12.35c-.1.333-.183.633-.25.9l-.25.7-.2.7c-.033-.233-.083-.467-.15-.7l-4.35-13.95c-.1-.267-.267-.5-.5-.7-.233-.167-.5-.25-.8-.25h-2.8c-.3 0-.583.1-.85.3-.233.167-.4.4-.5.7l-6.3 22.65c-.1.434-.017.833.25 1.2s.633.55 1.1.55h2.3c.3 0 .583-.083.85-.25.233-.2.4-.45.5-.75l3.8-14.1c.2-.833.35-1.5.45-2l1-4.2 5.4 17.15c.1.3.267.533.5.7.267.167.55.25.85.25zm10.2 41.75c.267-.3.4-.633.4-1v-30.1c0-.533-.184-.983-.55-1.35-.4-.367-.85-.55-1.35-.55h-.05c-.5 0-.95.183-1.35.55-.367.367-.55.817-.55 1.35v19.7c0 .367-.133.683-.4.95-.267.267-.583.4-.95.4h-47.9c-.367 0-.684-.133-.95-.4s-.4-.583-.4-.95v-43.9c0-.367.133-.683.4-.95s.583-.4.95-.4h23.1c.533 0 .983-.2 1.35-.6.367-.367.55-.8.55-1.3 0-.533-.184-.983-.55-1.35s-.816-.55-1.35-.55h-29.5c-.367 0-.684.133-.95.4-.267.267-.4.583-.4.95v58.1c0 .367.133.7.4 1 .267.267.583.4.95.4h58.1c.367 0 .7-.133 1-.4z"/></symbol><g fill-rule="evenodd" clip-rule="evenodd"><path fill="#555E9B" d="M698.194 5.25v280.675c0 1.516-.587 2.85-1.761 4.002-1.408 1.003-2.988 1.505-4.738 1.505h-191.513l3.522 21.034c0 3.585-.459 6.755-1.377 9.508h67.167l14.759 16.136.992.608v4.258c0 .342-1.077.513-3.233.513h-267.325c-2.156 0-3.233-.171-3.233-.513v-4.258c0-.405.288-.608.864-.608l14.247-16.136h68.192c-1.003-2.753-1.504-5.923-1.504-9.508l3.489-21.034h-188.377c-1.75 0-3.202-.502-4.354-1.505-1.345-1.152-2.017-2.486-2.017-4.002v-280.675c0-1.323.672-2.572 2.017-3.746 1.153-1.003 2.604-1.504 4.354-1.504h483.33c1.75 0 3.33.501 4.738 1.505 1.174 1.173 1.761 2.422 1.761 3.745z"/><path fill="#F0FDFF" d="M216.642 15.239h461.496v261.339h-461.496z"/></g><g fill="#93EAF7"><path fill-rule="evenodd" clip-rule="evenodd" d="M643.023 238.153l-27.419-.025-5.31-38.328h37.425z"/><path d="M643.023 238.178l-27.419-.025-.027-.021-5.311-38.329.007-.02.021-.008h37.425l.021.008.007.019-4.696 38.354-.028.022zm-27.394-.074l27.369.025 4.689-38.304h-37.362l5.304 38.279z"/></g><g fill="#8F999E"><path fill-rule="evenodd" clip-rule="evenodd" d="M614.989 238.153h28.313v2.872h-28.313v-2.872zm36.866-38.353h-45.614v-6.215h45.614v6.215z"/><path d="M643.303 241.05h-28.313l-.027-.024v-2.872l.027-.025h28.313l.028.025v2.872l-.028.024zm-28.285-.05h28.257v-2.823h-28.257v2.823zm36.837-41.175h-45.614l-.028-.025v-6.215l.028-.024h45.614l.028.024v6.215l-.028.025zm-45.585-.05h45.559v-6.165h-45.559v6.165z"/></g><path fill="#8F999E" d="M619.964 233.746c-.274 0-.514-.179-.553-.426l-4.388-27.458c-.044-.271.169-.521.475-.56.306-.038.589.15.632.421l4.388 27.459c.044.271-.169.521-.475.56l-.079.004zm18.421-.248l-.064-.003c-.307-.031-.527-.276-.492-.548l3.521-27.211c.035-.271.313-.467.619-.436s.527.277.492.548l-3.521 27.211c-.034.253-.275.439-.555.439zm-12.859 0c-.29 0-.535-.198-.558-.458l-2.348-27.979c-.022-.272.208-.51.517-.53.308-.021.575.185.599.457l2.348 27.979c.023.272-.208.51-.516.53l-.042.001zm7.017 0l-.037-.001c-.308-.018-.542-.253-.521-.526l2.04-27.979c.021-.273.286-.48.594-.462.309.018.542.253.522.526l-2.041 27.979c-.019.262-.265.463-.557.463z"/><path d="M594.543 244.689h68.516v14.535h-68.516z" fill="none"/><text transform="translate(609.086 253.759)" font-family="'Consolas'" font-size="10.245">Корзина</text><path d="M225.494 77.64h83.882v14.536h-83.882z" fill="none"/><text transform="translate(230.822 86.709)" font-family="'Consolas'" font-size="10.245">Мой компьютер</text><path d="M235.744 244.689h63.392v14.535h-63.392z" fill="none"/><text transform="translate(247.725 253.759)" font-family="'Consolas'" font-size="10.245">Outlook</text><path d="M513.144 244.689h71.399v45.811h-71.399z" fill="none"/><text transform="translate(517.863 253.758)"><tspan x="0" y="0" font-family="'Consolas'" font-size="10.245">Корпоратив_</tspan><tspan x="8.449" y="13.254" font-family="'Consolas'" font-size="10.245">Танцы!!!</tspan></text><path d="M584.543 77.64h80.681v27.79h-80.681z" fill="none"/><text transform="translate(605.169 86.709)"><tspan x="0" y="0" font-family="'Consolas'" font-size="10.245">Фото из</tspan><tspan x="0" y="13.254" font-family="'Consolas'" font-size="10.245">отпуска</tspan></text><path d="M225.494 158.79h80.008v27.054h-80.008z" fill="none"/><text transform="translate(231.701 167.858)" font-family="'Consolas'" font-size="10.245">Стандарты 5S</text><path d="M327.294 77.689h80.424v40.309h-80.424z" fill="none"/><text transform="translate(330.893 86.758)"><tspan x="0" y="0" font-family="'Consolas'" font-size="10.245">Ответственные</tspan><tspan x="22.531" y="13.255" font-family="'Consolas'" font-size="10.245">за 5S</tspan></text><path d="M418.944 244.689h86.764v27.79h-86.764z" fill="none"/><text transform="translate(439.795 253.759)"><tspan x="0" y="0" font-family="'Consolas'" font-size="10.245">Черновик</tspan><tspan x="-14.082" y="13.254" font-family="'Consolas'" font-size="10.245">отчета 1999г.</tspan></text><path d="M333.844 158.79h64.224v27.79h-64.224z" fill="none"/><text transform="translate(346.241 167.858)"><tspan x="0" y="0" font-family="'Consolas'" font-size="10.245">Пасьянс</tspan><tspan x="-5.633" y="13.255" font-family="'Consolas'" font-size="10.245">«Косынка»</tspan></text><use xlink:href="#a" width="81.45" height="70" x="-.5" y="-59.5" transform="matrix(.64 0 0 -.64 244.146 117.255)" overflow="visible"/><g fill="#fff"><path fill-rule="evenodd" clip-rule="evenodd" d="M520.958 193.202h46.567v47.081h-46.567z"/><path d="M567.525 240.584h-46.567c-.181 0-.326-.135-.326-.302v-47.081c0-.167.146-.302.326-.302h46.567c.18 0 .326.135.326.302v47.081c.001.167-.146.302-.326.302zm-46.242-.604h45.917v-46.477h-45.917v46.477z"/></g><g fill="#1E2B33"><path fill-rule="evenodd" clip-rule="evenodd" d="M559.873 200.747h2.312v3.32h-2.312 2.312v-3.32h-2.312v-7.847h8.467v47.685h-8.467v-8.149h3.614v-3.32h-3.614v-25.049h-33.51v-3.32h2.247-2.247v3.32h2.247v25.049h-5.829v3.32h5.829v8.149h-8.467v-47.685h8.467v7.847h31.263zm0 28.369h3.614v3.32h-40.706v-3.32h37.092z"/><path d="M568.34 240.886h-8.467c-.18 0-.326-.135-.326-.302v-7.847h-30.61v7.847c0 .167-.146.302-.326.302h-8.467c-.18 0-.325-.135-.325-.302v-47.684c0-.167.146-.302.325-.302h8.467c.18 0 .326.135.326.302v7.545h30.61v-7.545c0-.167.146-.302.326-.302h8.467c.18 0 .325.135.325.302v47.685c0 .166-.145.301-.325.301zm-8.142-.603h7.815v-47.081h-7.815v7.243h1.986c.18 0 .326.135.326.302v3.32c0 .167-.146.302-.326.302h-1.986v24.446h3.289c.18 0 .326.135.326.302v3.32c0 .167-.146.302-.326.302h-3.289v7.544zm-39.729 0h7.816v-7.545h-5.504c-.18 0-.326-.135-.326-.302v-3.32c0-.167.146-.302.326-.302h5.504v-24.446h-1.922c-.18 0-.325-.135-.325-.302v-3.32c0-.167.146-.302.325-.302h1.922v-7.243h-7.816v47.082zm39.404-8.149h3.289v-2.716h-40.056v2.716h36.767zm-30.936-3.32h30.61v-24.446h-30.61v24.446zm30.936-25.049h1.986v-2.716h-35.17v2.716h33.184z"/></g><path fill="#fff" d="M565.115 236.963h-1.791c-.539 0-.977-.406-.977-.906s.438-.905.977-.905h1.791c.54 0 .978.405.978.905s-.438.906-.978.906zm-39.728 0h-1.791c-.54 0-.978-.406-.978-.906s.438-.905.978-.905h1.791c.539 0 .977.405.977.905s-.438.906-.977.906zm39.728-7.546h-1.791c-.539 0-.977-.405-.977-.905s.438-.905.977-.905h1.791c.54 0 .978.405.978.905s-.438.905-.978.905zm-39.728 0h-1.791c-.54 0-.978-.405-.978-.905s.438-.905.978-.905h1.791c.539 0 .977.405.977.905s-.438.905-.977.905zm39.728-8.299h-1.791c-.539 0-.977-.405-.977-.905s.438-.905.977-.905h1.791c.54 0 .978.405.978.905s-.438.905-.978.905zm-39.728 0h-1.791c-.54 0-.978-.405-.978-.905s.438-.905.978-.905h1.791c.539 0 .977.405.977.905s-.438.905-.977.905zm39.728-8.148h-1.791c-.539 0-.977-.405-.977-.906 0-.5.438-.905.977-.905h1.791c.54 0 .978.405.978.905s-.438.906-.978.906zm-39.728 0h-1.791c-.54 0-.978-.405-.978-.906 0-.5.438-.905.978-.905h1.791c.539 0 .977.405.977.905-.001.5-.438.906-.977.906zm39.728-7.394h-1.791c-.539 0-.977-.406-.977-.906s.438-.905.977-.905h1.791c.54 0 .978.405.978.905s-.438.906-.978.906zm-39.728 0h-1.791c-.54 0-.978-.406-.978-.906s.438-.905.978-.905h1.791c.539 0 .977.405.977.905s-.438.906-.977.906zm39.728-7.093h-1.791c-.539 0-.977-.406-.977-.906s.438-.905.977-.905h1.791c.54 0 .978.405.978.905s-.438.906-.978.906zm-39.728 0h-1.791c-.54 0-.978-.406-.978-.906s.438-.905.978-.905h1.791c.539 0 .977.405.977.905s-.438.906-.977.906z"/><g fill="#444A98"><path fill-rule="evenodd" clip-rule="evenodd" d="M550.689 216.833l-.032.603-11.56 6.398-.163-13.792z"/><path d="M539.097 224.136l-.159-.039c-.102-.053-.165-.152-.167-.26l-.162-13.792c-.002-.11.062-.212.166-.267.104-.054.23-.051.331.007l11.756 6.791c.101.058.159.162.153.271l-.032.604c-.006.101-.065.192-.158.244l-11.561 6.398-.167.043zm.169-13.547l.15 12.717 10.925-6.046.014-.265-11.089-6.406z"/></g><g clip-rule="evenodd"><path fill-rule="evenodd" fill="#009948" d="M359.232 33.04h33.808v38.322h-33.808z"/><path stroke="#009948" stroke-width="1.281" stroke-linecap="round" stroke-linejoin="round" stroke-miterlimit="3" d="M359.232 33.04h33.808v38.322h-33.808z" fill="none"/><path fill-rule="evenodd" fill="#fff" d="M388.782 38.226v4.482h-6.467v-4.482h6.467zm-9.445 4.482h-7.459v-4.482h7.459v4.482zm-7.459 15.496v-4.45h7.459v4.45h-7.459zm7.459-7.684h-7.459v-4.482h7.459v4.482zm9.445 3.233v4.45h-6.467v-4.45h6.467zm-6.468-7.715h6.467v4.482h-6.467v-4.482zm0 15.655h6.467v4.45h-6.467v-4.45zm-10.436 0h7.459v4.45h-7.459v-4.45z"/><path stroke="#fff" stroke-width=".64" stroke-linecap="round" stroke-linejoin="round" stroke-miterlimit="3" d="M388.782 38.226v4.482h-6.467v-4.482h6.467zm-9.445 4.482h-7.459v-4.482h7.459v4.482zm-7.459 15.496v-4.45h7.459v4.45h-7.459zm7.459-7.684h-7.459v-4.482h7.459v4.482zm9.445 3.233v4.45h-6.467v-4.45h6.467zm-6.468-7.715h6.467v4.482h-6.467v-4.482zm0 15.655h6.467v4.45h-6.467v-4.45zm-10.436 0h7.459v4.45h-7.459v-4.45z" fill="none"/><path fill-rule="evenodd" fill="#009948" d="M342.712 30.159l30.094-3.874v51.544l-30.094-3.874z"/><path stroke="#fff" stroke-width="1.281" stroke-linecap="round" stroke-linejoin="round" stroke-miterlimit="3" d="M342.712 30.159l30.094-3.874v51.544l-30.094-3.874z" fill="none"/><path fill-rule="evenodd" fill="#fff" d="M360.224 43.157l4.034-.384-5.987 9.028 6.499 9.22-4.162-.352-4.162-6.115-3.521 5.411-3.233-.32 4.962-7.78-5.123-7.492-.096-.224 3.233-.288 3.713 5.282 3.843-5.986z"/></g><path fill-rule="evenodd" clip-rule="evenodd" fill="#444A98" d="M291.379 31.365c.102.132.153.274.153.428v31.999c0 .175-.051.329-.153.461-.143.11-.295.165-.458.165h-16.422l.427 3.983c0 .658-.05 1.262-.152 1.811h7.845l1.74 3.029.122.165v.757c0 .088-.132.132-.397.132h-31.196c-.265 0-.397-.044-.397-.132v-.757c0-.11.041-.165.122-.165l1.648-3.029h7.967c-.122-.549-.183-1.152-.183-1.811l.397-3.983h-16.117c-.163 0-.295-.055-.397-.165-.122-.132-.183-.286-.183-.461v-32c0-.153.061-.296.183-.428.102-.109.234-.165.397-.165h44.597c.162.001.314.056.457.166z"/><use xlink:href="#b" width="60.5" height="35.5" y="-35.5" transform="matrix(.611 0 0 -.658 250.14 36.105)" overflow="visible"/><path fill-rule="evenodd" clip-rule="evenodd" fill="#AEEFF9" d="M287.044 36.138v5.465l-36.188 17.711h-.748v-12.543l21.733-10.633h15.203zm0 8.477v4.526l-20.131 10.172h-8.974l29.105-14.698z"/><g clip-rule="evenodd"><path fill-rule="evenodd" fill="#F9DE48" d="M246.994 195.484c1.948-1.947 4.433-3.165 7.457-3.652 1.522-.264 2.851-.325 3.987-.183h34.331v49.274h-49.274v-34.879c0-1.156.142-2.475.426-3.957.567-2.92 1.592-5.121 3.073-6.603z"/><path stroke="#F9DE48" stroke-width="1.217" stroke-linecap="round" stroke-linejoin="round" stroke-miterlimit="3" d="M246.994 195.484c1.948-1.947 4.433-3.165 7.457-3.652 1.522-.264 2.851-.325 3.987-.183h34.331v49.274h-49.274v-34.879c0-1.156.142-2.475.426-3.957.567-2.92 1.592-5.121 3.073-6.603z" fill="none"/><g fill-rule="evenodd"><path fill="#fff" d="M291.49 228.446c-.122-.041-.244-.041-.365 0l-17.835 4.017-.183.031-5.54 1.278-2.952-4.687-.031-.061-.03-.03-9.344-14.974c-.142-.203-.334-.334-.578-.396s-.477-.02-.7.122c-.203.122-.334.304-.396.548s-.02.477.122.7l8.795 14.091-17.896 7.304 9.1-22.583c.061-.163.162-.274.304-.335.162-.081.325-.081.487 0l37.042 14.975zm-15.126 13.209h-21.091l-9.404-3.805 17.561-7.183 2.921 4.626c.102.162.244.284.426.365.162.061.345.071.548.031l5.63-1.278 3.409 7.244zm15.43-13.088l.183.061c.142.041.254.142.335.304.061.163.061.325 0 .487l-4.931 12.235h-9.039l-.03-.061-3.531-7.578 16.739-3.774c.244-.061.437-.203.579-.426.121-.203.162-.426.121-.669-.06-.264-.202-.457-.426-.579z"/><path fill="#F29800" d="M244.56 236.389l17.896-7.304-8.795-14.091c-.142-.223-.183-.457-.122-.7s.193-.426.396-.548c.224-.142.457-.183.7-.122s.436.192.578.396l9.344 14.974.03.03.031.061 2.952 4.687 5.54-1.278.183-.031 17.835-4.017c.122-.041.243-.041.365 0l.274.091.03.03c.223.122.365.314.426.579.041.243 0 .466-.121.669-.142.223-.335.365-.579.426l-16.739 3.774 3.531 7.578.03.061h-1.979l-3.409-7.244-5.63 1.278c-.203.041-.386.03-.548-.031-.183-.081-.325-.203-.426-.365l-2.921-4.626-17.561 7.183-.639.244c-.244.102-.477.102-.7 0-.244-.102-.416-.264-.517-.487-.102-.244-.091-.477.03-.7.081-.243.243-.416.487-.518h.028z"/></g><path stroke="#F29800" stroke-width="4.87" stroke-linecap="round" stroke-linejoin="round" stroke-miterlimit="3" d="M259.686 219.193c-2.171-.061-4.027-1.035-5.569-2.921-1.603-1.928-2.405-4.271-2.405-7.031 0-2.739.802-5.083 2.405-7.03 1.582-1.928 3.5-2.891 5.752-2.891s4.18.963 5.783 2.891c1.583 1.948 2.374 4.291 2.374 7.03 0 2.759-.791 5.103-2.374 7.031-1.563 1.887-3.419 2.861-5.57 2.921" fill="none"/></g><g clip-rule="evenodd"><path fill-rule="evenodd" fill="#378EC9" d="M439.027 192.289h47.936v48.34h-47.936z"/><path stroke="#378EC9" stroke-width="1.348" stroke-linecap="round" stroke-linejoin="round" stroke-miterlimit="3" d="M439.027 192.289h47.936v48.34h-47.936z" fill="none"/><path fill-rule="evenodd" fill="#fff" d="M449.511 216.83c-.27 0-.494-.102-.674-.304-.203-.18-.304-.404-.304-.674s.101-.506.304-.708c.18-.18.404-.27.674-.27h15.406c.27 0 .506.09.708.27.18.202.27.438.27.708 0 .27-.09.494-.27.674-.202.202-.438.304-.708.304h-15.406zm16.384-5.866c0 .27-.09.495-.27.674-.202.18-.438.27-.708.27h-15.406c-.27 0-.494-.09-.674-.27-.203-.18-.304-.405-.304-.674s.101-.506.304-.708c.18-.18.404-.27.674-.27h15.406c.27 0 .506.09.708.27.18.202.27.439.27.708zm-.27-5.595c.18.18.27.404.27.674s-.09.505-.27.708c-.202.18-.438.27-.708.27h-15.406c-.27 0-.494-.09-.674-.27-.203-.18-.304-.416-.304-.708 0-.27.101-.495.304-.674.18-.18.404-.27.674-.27h15.406c.27 0 .506.089.708.27zm9.506 18.169h.539c.203 0 .383.056.54.168.18.113.292.27.337.472l2.831 8.63c.136.494.27.943.405 1.348.112.359.258.888.438 1.584l.775-2.933.337-1.248 2.462-9.506c.044-.203.156-.36.337-.472.157-.135.337-.202.539-.202h.067c.292 0 .539.124.742.371.18.225.235.495.168.809l-4.18 15.237c-.046.203-.158.371-.338.506-.157.135-.337.202-.539.202h-1.888c-.202 0-.382-.056-.539-.168-.157-.135-.27-.292-.337-.472l-2.731-8.326-.168-.607-.169-.472-.135-.472c-.022.157-.056.315-.101.472l-2.933 9.405c-.067.18-.18.337-.338.472-.157.112-.337.168-.539.168h-1.888c-.202 0-.394-.067-.573-.202-.157-.112-.27-.27-.337-.472l-4.247-15.271c-.067-.292-.012-.562.168-.809s.427-.371.742-.371h1.55c.202 0 .394.056.573.168.157.135.27.303.338.506l2.562 9.506c.135.562.236 1.011.304 1.348l.674 2.832 3.641-11.563c.067-.203.18-.359.337-.472.18-.11.372-.166.574-.166zm6.877-28.148c.18.203.27.427.27.674v20.293c0 .359-.124.663-.371.91-.27.248-.573.371-.91.371h-.033c-.337 0-.641-.123-.91-.371-.247-.247-.371-.551-.371-.91v-13.282c0-.248-.09-.46-.27-.641-.18-.18-.394-.27-.641-.27h-32.294c-.247 0-.461.09-.641.27-.18.18-.27.393-.27.641v29.598c0 .247.09.46.27.64s.394.27.641.27h15.574c.359 0 .662.135.91.405.247.247.37.54.37.876 0 .359-.123.663-.37.91-.248.247-.551.371-.91.371h-19.889c-.247 0-.461-.09-.641-.27-.18-.18-.27-.393-.27-.641v-39.171c0-.247.09-.472.27-.674.18-.18.394-.27.641-.27h39.17c.248.002.473.091.675.271z"/></g><g fill-rule="evenodd" clip-rule="evenodd"><path d="M371.501 107.872c.305-.526.763-.874 1.373-1.043.61-.15 1.192-.075 1.745.226l12.214 6.968-22.025 37.631-12.214-6.967c-.553-.301-.916-.753-1.087-1.354-.153-.621-.067-1.194.257-1.721l19.737-33.74zm27.546 13.089c.534.319.886.78 1.059 1.382.152.602.076 1.167-.229 1.693l-19.737 33.738c-.324.526-.792.884-1.401 1.072-.611.15-1.183.066-1.717-.254l-12.214-6.939 22.025-37.631 12.214 6.939z" fill="#333"/><path fill="#F9F9F9" d="M371.551 108.756c.288-.503.719-.836 1.294-.998.576-.144 1.124-.072 1.646.216l11.516 6.662-20.767 35.978-11.516-6.662c-.521-.288-.863-.719-1.025-1.294-.144-.594-.063-1.142.243-1.645l18.609-32.257zm25.972 12.514c.503.306.836.746.998 1.321.144.576.072 1.115-.215 1.619l-18.609 32.256c-.306.503-.746.845-1.322 1.025-.575.144-1.115.063-1.618-.243l-11.516-6.635 20.767-35.978 11.515 6.635z"/><path fill="#2F3033" d="M374.321 137.504c.138 1.977 1.162 3.488 3.073 4.533l-1.65 1.253-4.616-2.666 9.918-17.171 2.676 9.995c.373 1.392.202 2.706-.511 3.941-.713 1.235-1.763 2.033-3.148 2.395-1.131.303-2.226.237-3.284-.198-1.046-.427-1.866-1.121-2.458-2.082z"/><path fill="#434548" d="M369.204 135.211c-.905-.699-1.509-1.614-1.812-2.745-.368-1.375-.195-2.68.518-3.915.713-1.235 1.761-2.042 3.142-2.421l9.995-2.676-9.918 17.171-4.615-2.666.261-2.056c1.871 1.14 3.692 1.272 5.462.397-1.129-.033-2.139-.396-3.033-1.089zm4.543-22.702l.684.395.586-1.741.058-.131-1.328 1.477zm2.041-2.05c.049.125.058.258.025.398l-1.385 5.019-.711-.411.49-1.796-1.012-.584-1.26 1.297-.037.033-.698-.403.067-.053 3.553-3.657c.25-.221.497-.26.743-.118.092.053.166.145.225.275z"/><path fill="#2F3033" d="M370.457 119.656c.043.536.327.949.853 1.24l-.452.341-1.272-.734 2.726-4.719.726 2.754c.109.379.064.742-.136 1.088-.195.337-.484.554-.867.648-.302.081-.603.065-.903-.047-.287-.116-.511-.306-.675-.571z"/><path fill="#434548" d="M372.311 115.784l-2.726 4.719-1.272-.735.069-.562c.515.31 1.015.349 1.5.119-.311-.009-.588-.108-.831-.298-.247-.204-.411-.457-.492-.758-.1-.374-.053-.73.142-1.067.2-.346.487-.57.861-.67l2.749-.748zm4.393 38.859l1.245-1.392-.674-.39-.59 1.752-.065.146.084-.116zm1.792-1.958l1.281-1.297.032-.055.716.413-.075.067-3.589 3.672c-.106.098-.233.16-.381.184-.134.021-.252.001-.353-.057-.101-.059-.176-.151-.225-.277-.059-.132-.072-.268-.04-.408l1.415-5.056.716.414-.501 1.821 1.004.579z"/><path fill="#2F3033" d="M382.152 145.179l-2.743 4.748-.744-2.779c-.101-.376-.053-.734.143-1.074.201-.349.49-.573.867-.674.304-.082.611-.063.922.056.287.117.513.308.677.575-.043-.539-.329-.955-.857-1.248l.455-.343 1.28.739z"/><path fill="#434548" d="M383.349 146.476c-.509-.306-1.007-.343-1.496-.111.313.009.592.109.836.299.249.205.414.459.496.763.101.376.05.739-.151 1.087-.196.34-.482.56-.858.661l-2.766.752 2.743-4.748 1.266.731-.07.566z"/><path fill="#DE4653" d="M334.756 123.064c-.259-.566-.29-1.141-.092-1.726.217-.584.614-1.018 1.189-1.301l12.74-6.111 18.768 39.181-12.741 6.111c-.575.283-1.157.32-1.745.113-.606-.208-1.04-.584-1.299-1.131l-16.82-35.136zm26.561-15.248c.58-.264 1.167-.301 1.76-.113.612.208 1.049.594 1.311 1.16l16.97 35.135c.262.547.293 1.113.093 1.698-.219.603-.619 1.037-1.199 1.301l-12.85 6.11-18.935-39.181 12.85-6.11z"/><path fill="#fff" d="M336.004 123.428c-.252-.54-.288-1.088-.108-1.646.198-.557.566-.971 1.106-1.241l11.947-5.826 18.205 37.354-11.948 5.826c-.54.27-1.088.306-1.646.108-.575-.198-.989-.558-1.24-1.079l-16.316-33.496zm24.893-14.537c.54-.252 1.088-.288 1.646-.108.575.198.989.566 1.24 1.106l16.317 33.497c.252.521.288 1.061.108 1.618-.198.575-.566.989-1.105 1.241l-11.948 5.825-18.205-37.354 11.947-5.825z"/><path fill="#D54A5B" d="M339.237 121.752l.397 1.64.65-.317-1.021-1.336-.07-.111.044.124zm.216-.78l3.085 3.626-.676.329-1.112-1.292-.949.462.326 1.626.019.039-.675.33-.006-.078-.955-4.568c-.04-.302.057-.51.291-.624.095-.046.204-.056.324-.029.128.024.238.083.328.179zm.332 6.657c.133-.387.386-.671.758-.852.364-.177.739-.2 1.126-.066l1.836 3.769-2.803-.966c-.387-.133-.668-.382-.846-.746-.18-.373-.204-.753-.071-1.139z"/><path fill="#A4343A" d="M343.554 125.792c.387.133.671.386.853.758.177.364.199.739.065 1.126l-.966 2.802-1.836-3.769c.133-.387.386-.67.759-.852.363-.176.738-.198 1.125-.065z"/><path fill="#D54A5B" d="M374.009 142.432l-.688.335 1.082 1.416.081.131-.046-.131c-.039-.197-.118-.522-.237-.975l-.192-.776zm-.529-2.52l.703-.342.012.096 1.013 4.841c.042.32-.061.541-.308.661-.092.045-.202.053-.329.024-.137-.024-.253-.087-.348-.188l-3.291-3.85.716-.349 1.185 1.382 1.006-.49-.359-1.785zm.39-1.962c-.141.41-.405.708-.791.896-.395.192-.797.218-1.207.077l-1.946-3.994 2.97 1.023c.41.142.711.409.903.804.189.387.212.784.071 1.194z"/><path fill="#A4343A" d="M369.876 139.896c-.409-.142-.708-.405-.896-.791-.192-.395-.218-.797-.077-1.207l1.023-2.97 1.946 3.994c-.141.41-.404.708-.79.896-.394.193-.796.219-1.206.078z"/><path fill="#D54A5B" d="M354.608 127.24l6.662 13.673-10.164-3.516c-1.402-.484-2.428-1.392-3.078-2.726-.649-1.333-.733-2.702-.25-4.104.484-1.403 1.392-2.429 2.726-3.078 1.333-.65 2.702-.733 4.104-.249z"/><path fill="#A4343A" d="M361.451 123.905c1.402.484 2.429 1.392 3.079 2.726.649 1.333.732 2.701.249 4.104l-3.509 10.178-6.662-13.673c.483-1.402 1.396-2.431 2.74-3.085 1.333-.65 2.701-.733 4.103-.25z"/></g><path fill="#FFAB43" d="M621.495 30.8l3.507 6.377h23.242v37.623h-47.188v-37.623h.033v-6.377h20.406zm3.507 6.377l-3.507 2.55h-20.405v-2.55 2.55h20.405l3.507-2.55zm-3.507-6.377l-.28.154 3.508 6.376c.057.102.163.166.279.166h22.924v36.984h-46.549v-37.303h-.32v.319h.033c.083 0 .167-.034.225-.094.06-.059.094-.141.094-.225v-6.059h20.087v-.318l-.279.154.278-.154v-.32h-20.405c-.084 0-.166.034-.226.094-.06.059-.093.142-.093.226v6.377h.318v-.32h-.031c-.084 0-.166.035-.226.094s-.094.141-.094.226v37.623c0 .083.034.166.094.224.06.059.142.095.226.095h47.188c.084 0 .165-.034.225-.095.059-.058.094-.141.094-.224v-37.623c0-.084-.033-.166-.094-.226-.06-.06-.141-.094-.225-.094h-23.056l-3.416-6.211c-.056-.102-.165-.166-.279-.166v.32zm3.319 6.119l-3.425 2.489h-19.981v-2.231c0-.177-.144-.32-.318-.32-.177 0-.32.143-.32.32v2.55c0 .084.035.167.094.226s.142.093.227.093h20.405c.067 0 .134-.021.188-.06l3.506-2.551c.143-.104.174-.303.07-.445-.106-.144-.303-.175-.446-.071z"/><path fill="#FFDB91" d="M652.357 44.382l-4.049 30.386h-47.186l5.611-31.215zm0 0l-.317-.042-4.011 30.109h-46.525l5.494-30.572 45.354.824.005-.319-.317-.042.317.042.005-.319-45.623-.829c-.157-.003-.291.108-.32.262l-5.612 31.214c-.016.094.01.189.07.261s.149.115.244.115h47.186c.16 0 .295-.118.317-.277l4.048-30.386c.014-.09-.016-.181-.072-.249-.061-.069-.145-.11-.238-.111l-.005.319z"/><defs><path id="c" d="M640.071 71.141l-29.07-.088 3.428-23.583 29.071.088z"/></defs><clipPath id="d"><use xlink:href="#c" overflow="visible"/></clipPath><path clip-path="url(#d)" fill="#94FFFF" d="M641.76 71.756l-33.485.713 3.856-26.505 33.483-.713z"/><defs><path id="e" d="M640.071 71.141l-29.07-.088 3.428-23.583 29.071.088z"/></defs><clipPath id="f"><use xlink:href="#e" overflow="visible"/></clipPath><path fill="#50A4FF" d="M596.971 70.898c9.524-1.551 18.895-4.036 28.583-4.484 4.582-.211 9.198.271 13.786.126 4.518-.147 8.817-1.671 13.331-1.879l-4.88-3.216c-.286 1.27-.765 1.646-1.599 2.329-.402.332-.842.547-1.757.995.428-.152.323-.108-.319.133-.569.221-1.155.399-1.74.581-3.232 1.002-7.336 1.373-11.172 1.615-5.706.363-11.401.856-17.107 1.232-6.249.41-12.995-.605-18.822 1.976 2.446 1.122 4.894 2.243 7.34 3.363.378-1.116-1.594 1.503-.498.635-.986.783.222-.021.437-.123-1.06.498.627-.186.693-.208.744-.251 1.502-.455 2.26-.659 2.135-.573 3.071-.707 5.557-1.162 9.383-1.719 18.932-2.144 28.476-2.354 2.174-.048 5.326-1.887 5.547-4.443.247-2.862-3.019-3.256-4.88-3.217-9.99.222-19.902.784-29.72 2.583-3.15.577-6.309 1.227-9.365 2.196-2.943.933-7.256 2.572-8.411 5.971-1.654 4.866 4.933 4.429 7.338 3.365-.72.222-.598.25.369.081.642-.067 1.321.012 1.969.032 1.63.054 3.257-.015 4.883-.066 3.764-.117 7.516-.391 11.265-.675 5.319-.407 10.67-.656 15.979-1.19 8.863-.89 21.299-3.539 23.707-14.217.629-2.784-3.325-3.286-4.879-3.214-4.391.203-8.581 1.794-12.974 1.864-4.713.076-9.428-.25-14.145-.111-9.677.288-19.087 2.938-28.583 4.487-2.181.354-5.31 1.671-5.55 4.443-.232 2.675 3.01 3.517 4.881 3.211z" clip-path="url(#f)"/><defs><path id="g" d="M640.071 71.141l-29.07-.088 3.428-23.583 29.071.088z"/></defs><clipPath id="h"><use xlink:href="#g" overflow="visible"/></clipPath><g clip-path="url(#h)" fill="#fff"><path d="M602.593 49.47c5.856-1.291 15.672-3.831 20.919-2.389l-2.695 1.223c.632-.014 1.417.359 1.81.545-5.365 2.252-12.162 2.786-17.567 3.871-4.565 1.068-9.578 2.341-14 2.435 1.466-4.305 9.946-4.874 13.668-5.925"/><path d="M602.521 49.733c6.454-1.434 13.91-4.012 20.586-2.397l.338-.482-2.696 1.223c-.168.063-.735.434-.246.504 2.572.365.334.691-.445.946-1.114.365-2.258.629-3.399.891-2.101.481-4.238.809-6.364 1.151-4.274.688-8.45 1.738-12.693 2.565-.938.183-1.882.322-2.829.46.415-.06-3.475.835-2.8-.358.959-1.696 3.165-2.404 4.837-2.942 2.605-.839 5.347-1.131 7.986-1.833.617-.165.471-.619-.138-.457-4.346 1.156-11.996 1.126-14.11 6.249-.07.17.242.188.313.185 5.688-.218 11.082-1.951 16.648-2.912 5.182-.892 10.401-1.534 15.323-3.497.132-.053.484-.304.204-.432-.389-.174-.823-.412-1.242-.472-.29.167-.325.202-.105.108.614-.341 1.248-.648 1.895-.922.074-.027.718-.39.34-.482-6.935-1.677-14.575.894-21.26 2.381-.451.098-.855.682-.143.523z"/></g><defs><path id="i" d="M640.071 71.141l-29.07-.088 3.428-23.583 29.071.088z"/></defs><clipPath id="j"><use xlink:href="#i" overflow="visible"/></clipPath><g clip-path="url(#j)" fill="#fff"><path d="M639.521 44.199c5.868-.577 15.763-1.926 20.639.188l-2.794.902c.613.065 1.321.539 1.674.777-5.535 1.61-12.205 1.302-17.609 1.729-4.584.512-9.635 1.176-13.936.721 2.058-4.176 10.366-3.696 14.131-4.296"/><path d="M639.32 44.478c6.443-.645 14.112-2.337 20.435.165l.338-.483-2.658.868c-.084.021-.897.398-.478.518.584.108 1.119.355 1.608.738l.405-.443c-4.191 1.132-8.53 1.284-12.857 1.447-4.035.153-8.011.697-12.034.99-.605.044-5.95-.057-5.847-.242 1.093-1.904 3.717-2.392 5.617-2.741 2.542-.468 5.149-.441 7.704-.807.466-.067.859-.628.141-.526-4.55.65-11.914-.238-14.678 4.583-.085.148.016.239.163.251 5.33.468 10.515-.521 15.797-.832 5.427-.318 10.856-.241 16.132-1.667.065-.018.639-.294.407-.444-.575-.369-1.093-.63-1.743-.815l-.478.518 2.936-.938c.119-.029.686-.344.339-.482-6.482-2.564-14.27-.872-20.851-.212-.326.028-1.087.622-.398.554z"/></g><defs><path id="k" d="M640.071 71.141l-29.07-.088 3.428-23.583 29.071.088z"/></defs><clipPath id="l"><use xlink:href="#k" overflow="visible"/></clipPath><g clip-path="url(#l)" fill="#fff"><path d="M648.545 46.744c5.856-1.291 15.673-3.832 20.922-2.39l-2.698 1.224c.632-.013 1.419.359 1.812.546-5.365 2.25-12.162 2.785-17.568 3.871-4.563 1.069-9.578 2.342-14.001 2.436 1.466-4.307 9.947-4.876 13.668-5.926"/><path d="M648.475 47.005c6.455-1.434 13.91-4.012 20.586-2.396l.339-.483-2.699 1.224c-.167.063-.735.435-.243.503 2.571.364.333.691-.447.946-1.114.365-2.258.629-3.399.891-2.101.482-4.236.81-6.365 1.151-4.271.688-8.446 1.737-12.693 2.564-.937.183-1.88.325-2.824.461.411-.06-3.477.836-2.803-.358.959-1.694 3.167-2.403 4.839-2.942 2.604-.838 5.346-1.132 7.986-1.833.615-.164.468-.619-.14-.456-4.346 1.156-11.995 1.125-14.108 6.248-.072.17.239.188.312.183 5.688-.216 11.083-1.951 16.646-2.909 5.183-.894 10.404-1.535 15.323-3.498.133-.053.485-.305.205-.431-.389-.175-.824-.413-1.242-.472-.289.167-.323.203-.107.108.618-.342 1.25-.648 1.899-.922.074-.029.717-.391.338-.483-6.933-1.677-14.575.894-21.26 2.381-.452.098-.856.683-.143.523z"/></g><defs><path id="m" d="M640.071 71.141l-29.07-.088 3.428-23.583 29.071.088z"/></defs><clipPath id="n"><use xlink:href="#m" overflow="visible"/></clipPath><path fill="#FFE89F" d="M582.442 68.672c7.802-1.572 15.655-1.896 23.563-2.624 3.428-.313 6.84-.791 10.301-.586 1.878.111 3.373.894 5.063 1.74 1.595.799 3.37 1.054 5.089 1.236 3.806.405 7.656.166 11.477.521 3.908.361 7.84 1.065 11.758 1.026 2.8-.028 5.585-.279 8.385-.283 2.26-.002 5.642-.165 7.416 1.715l.923-2.125c-3.341 1.442-7.285 1.141-10.849.973-3.69-.172-7.338-.204-11.022-.04-8.724.389-17.453 1.224-26.088 2.402-8.109 1.108-16.255 2.319-24.497 1.617-2.549-.217-6.48-.495-8.402-2.623-1.722-1.906 4.317-2.732 5.282-2.937.854-.178 2.119-.627 2.231-1.742.103-1.038-1.221-1.374-1.935-1.224-3.199.671-14.599 3.475-8.3 8.804 2.521 2.133 6.75 2.413 9.768 2.721 4.907.501 9.871.188 14.74-.284 10.95-1.062 21.779-2.722 32.77-3.52 5.249-.381 10.425-.316 15.688-.106 4.277.17 8.531-.052 12.492-1.761.618-.267 1.644-1.364.924-2.123-3.64-3.855-10.57-2.811-15.091-2.599-7.868.371-15.713-1.237-23.598-1.315-1.941-.02-3.778-.156-5.68-.68-1.839-.506-3.335-1.759-5.251-2.14-3.539-.7-7.243-.238-10.764.11-8.737.861-17.467 1.137-26.095 2.875-.854.172-2.119.633-2.229 1.745-.105 1.045 1.217 1.37 1.931 1.227z" clip-path="url(#n)"/><defs><path id="o" d="M640.071 71.141l-29.07-.088 3.428-23.583 29.071.088z"/></defs><clipPath id="p"><use xlink:href="#o" overflow="visible"/></clipPath><path fill="#FFE89F" d="M595.136 71.377c6.686-3.116 14.979-2.019 22.133-1.333l.723-3.329c-1.193.026-2.388.052-3.58.075-2.396.052-2.999 3.393-.188 3.332l3.581-.076c1.903-.04 3.258-3.088.722-3.328-8.423-.807-17.541-1.64-25.38 2.013-2.58 1.201-.126 3.63 1.989 2.646z" clip-path="url(#p)"/><defs><path id="q" d="M640.071 71.141l-29.07-.088 3.428-23.583 29.071.088z"/></defs><clipPath id="r"><use xlink:href="#q" overflow="visible"/></clipPath><path fill="#FFE89F" d="M587.897 68.24l-1.235-.167.833.851.027-.197-2.296 1.522c12.122-1.625 24.328-2.976 36.616-2.686l.446-2.272c-8.478 2.324-17.576 2.373-26.347 2.151l-.444 2.272c7.308-2.295 15.497-3.341 23.173-2.321l1.465-2.372c-7.546.895-15.144 1.24-22.76 1.226l-.443 2.272c6.148-1.502 12.553-1.284 18.861-1.216l1-2.405c-5.708 1.251-11.684 1.245-17.501 1.763-5.909.524-11.77 1.482-17.727 1.478l-.445 2.271c6.396-1.683 13.146-1.346 19.725-1.428 6.524-.082 13.179-1.369 19.677.123l.909-2.239c-5.927 1.989-12.306 1.709-18.476 2.235-6.272.537-12.555 1.692-18.893.968l-.908 2.241c5.281-1.61 10.942-1.347 16.423-1.515 5.654-.172 11.285-1.134 16.956-.246l.908-2.241c-10.178 2.497-20.834 2.429-31.273 2.84l-1.001 2.406c12.78-1.565 25.69-1.677 38.581-1.757l1-2.407c-9.839 1.688-19.866 1.57-29.821 2.153-.864.051-1.781.313-2.428.944-.597.581-.44 1.385.444 1.478 10.614 1.105 21.014-1.303 31.563-1.601.333-.802.665-1.605 1.002-2.406-11.925 1.583-23.939 2.398-35.986 2.67l-.445 2.272c5.894-1.483 12.196-.361 18.2.119.66-.808 1.322-1.615 1.984-2.421-7.168.09-14.325-.996-21.493-.905-1.459.02-4.369 2.343-1.521 2.456 13.506.536 26.98 1.688 40.197-1.475.76-.183 2.097-.538 2.296-1.522.192-.945-1.334-.953-1.816-.835-12.876 3.082-26.001 1.897-39.156 1.376l-1.521 2.456c7.168-.092 14.324.993 21.492.904.854-.012 1.801-.331 2.43-.943.583-.57.451-1.407-.446-1.48-7.146-.57-14.27-1.583-21.278.18-1.32.333-2.694 2.325-.443 2.273 12.392-.281 24.758-1.139 37.024-2.769 1.361-.18 3.602-2.479 1-2.406-10.218.287-20.366 2.736-30.634 1.666l-1.985 2.421c10.304-.604 20.679-.503 30.862-2.25 1.309-.224 3.646-2.422 1.001-2.407-13.245.082-26.491.247-39.623 1.853-1.377.17-3.587 2.507-1 2.407 11.203-.438 22.504-.522 33.424-3.203.853-.209 2.837-1.938.91-2.239-6.264-.979-12.488.016-18.733.207-5.966.18-11.975.101-17.723 1.852-.763.233-2.897 2.014-.908 2.239 6.981.8 13.851-.393 20.765-.981 6.619-.566 13.318-.385 19.68-2.52.853-.288 2.833-1.799.909-2.241-6.806-1.562-13.772-.312-20.603-.189-7.365.133-14.717-.089-21.876 1.794-1.327.35-2.695 2.27-.445 2.272 6.282.005 12.468-1.009 18.703-1.565 5.843-.519 11.825-.514 17.564-1.771 1.247-.271 3.691-2.377 1.001-2.406-7.089-.077-14.109-.106-21.013 1.581-1.348.329-2.681 2.266-.445 2.272 7.966.016 15.907-.386 23.799-1.322.87-.104 3.666-2.082 1.464-2.374-8.714-1.16-17.954.011-26.251 2.617-1.293.408-2.72 2.215-.446 2.273 9.531.244 19.293.008 28.497-2.515 1.337-.365 2.69-2.219.446-2.272-12.632-.298-25.196 1.113-37.658 2.782-.713.096-2.163.597-2.295 1.522l-.029.196c-.076.531.412.796.834.853l1.234.168c.998.136 2.157-.192 2.894-.912.609-.594.423-1.357-.449-1.476z" clip-path="url(#r)"/><defs><path id="s" d="M640.071 71.141l-29.07-.088 3.428-23.583 29.071.088z"/></defs><clipPath id="t"><use xlink:href="#s" overflow="visible"/></clipPath><path fill="#FFE89F" d="M623.816 68.489c-.331-.093-.655-.208-.976-.345l-.104 2.326c1.602-1.434 4.808-1.077 6.768-.973 2.093.11 4.721.255 6.636 1.343.361-.951.716-1.905 1.074-2.857-5.965 1.418-12.531.292-18.56-.667l-.733 3.292c6.83-.474 13.691.253 20.508 1.105l.734-3.292c-5.955.116-11.916.071-17.872.188l-.198 3.292c5.212-.112 10.424-.232 15.629-.467 4.872-.22 10.047-1.292 14.883.074.218-1.022.438-2.045.659-3.066-7.22 2.011-14.938 1.042-22.364.966-.246 1.096-.492 2.194-.734 3.291 12.531-2.418 25.397-.068 38.019-1.587l-.358-3.175c-8.06 1.792-16.287.114-24.461.158-8.777.049-17.465 1.097-26.144 2.175-2.321.289-3.013 3.644-.198 3.293 9.187-1.143 18.401-2.293 27.701-2.155 8.145.118 15.987 1.375 24.021-.412 2.14-.476 2.028-3.462-.361-3.176-12.623 1.519-25.484-.832-38.021 1.587-1.623.313-3.44 3.265-.732 3.293 8.2.085 16.58 1.025 24.553-1.197 1.205-.335 2.598-2.52.661-3.066-4.617-1.304-9.332-.805-13.99-.457-6.164.462-12.378.498-18.563.63-2.383.052-3.012 3.347-.198 3.292 5.956-.117 11.917-.072 17.871-.188 1.898-.038 3.261-2.978.734-3.292-7.178-.893-14.389-1.603-21.578-1.105-1.877.13-3.277 2.887-.733 3.292 6.839 1.086 13.994 2.042 20.748.436.961-.229 2.542-2.025 1.074-2.858-2.91-1.651-6.526-1.931-9.717-2.035-3.203-.103-7.084.058-9.617 2.327-.634.567-1.033 1.743-.104 2.323.599.373 1.146.559 1.805.764 1.827.568 4.786-2.28 2.238-3.077z" clip-path="url(#t)"/><defs><path id="u" d="M640.071 71.141l-29.07-.088 3.428-23.583 29.071.088z"/></defs><clipPath id="v"><use xlink:href="#u" overflow="visible"/></clipPath><path fill="#936500" d="M616.317 57.029c-2.166 2.35-1.836 5.52-1.988 8.605-.054 1.12 2.042.745 2.09-.231.134-2.741-.278-5.695 1.658-7.792.89-.966-1.146-1.247-1.76-.582z" clip-path="url(#v)"/><defs><path id="w" d="M640.071 71.141l-29.07-.088 3.428-23.583 29.071.088z"/></defs><clipPath id="x"><use xlink:href="#w" overflow="visible"/></clipPath><path fill="#10A000" d="M611.472 58.755c1.15-.412 4.194-2.095 5.203-.8.277.358 1.253-.08.932-.491-1.399-1.798-4.821.068-6.34.613-.613.219-.418.901.205.678z" clip-path="url(#x)"/><defs><path id="y" d="M640.071 71.141l-29.07-.088 3.428-23.583 29.071.088z"/></defs><clipPath id="z"><use xlink:href="#y" overflow="visible"/></clipPath><path fill="#10A000" d="M616.747 57.72c-1.487-.781-3.211-.653-4.759-.31l-.169.433c1.572-.402 3.201-.441 4.801-.668.063-.007.93-.308.69-.438-1.156-.628-2.418-.942-3.657-1.309l-.737.469c1.162.008 2.236.286 3.281.86.204.112 1.169-.192.958-.405-.76-.77-1.57-1.333-2.549-1.721-.209-.084-1.078.32-.891.431l1.753.935c.268.16 1.113-.313.959-.405l-1.755-.934-.894.433c.931.369 1.698.937 2.418 1.668l.958-.405c-1.138-.626-2.329-.929-3.594-.936-.143-.002-1.11.357-.738.47 1.193.354 2.414.652 3.528 1.256l.69-.438c-1.687.237-3.401.287-5.056.709-.402.102-.895.592-.169.431 1.302-.289 2.725-.37 3.973.284.28.142 1.103-.334.959-.41z" clip-path="url(#z)"/><defs><path id="A" d="M640.071 71.141l-29.07-.088 3.428-23.583 29.071.088z"/></defs><clipPath id="B"><use xlink:href="#A" overflow="visible"/></clipPath><path fill="#10A000" d="M617.986 56.869c.059-.65.06-1.213.259-1.848l-.995-.089c-.209.809-.1 1.163.154 1.951l.54-.555-.21.007-.061.785c2.458-.436 4.971-.681 7.476-.355l-.359-.337-.028.195.554-.452c-2.325.354-4.656-.051-6.999-.044l-.191.789c1.747-.036 3.801-.199 5.397.777.387.238 1.28-.334.774-.645-1.841-1.125-4.096-.962-6.112-.92-.459.011-.82.792-.193.788 2.432-.003 4.851.409 7.264.042.238-.036.514-.172.556-.452l.026-.196c.03-.216-.202-.317-.359-.337-2.59-.339-5.202-.092-7.741.359-.558.098-.784.805-.061.787l.209-.004c.229-.005.64-.249.542-.554-.188-.585-.372-.808-.182-1.541.158-.606-.854-.531-.993-.089-.217.691-.244 1.323-.31 2.051-.05.553 1 .371 1.043-.113z" clip-path="url(#B)"/><defs><path id="C" d="M640.071 71.141l-29.07-.088 3.428-23.583 29.071.088z"/></defs><clipPath id="D"><use xlink:href="#C" overflow="visible"/></clipPath><path fill="#10A000" d="M616.407 57.459c1.27-.001 2.217.546 3.04 1.585l.87-.509c-.599-.285-1.188-.572-1.754-.933l-.798.557c1.017.501 1.759 1.232 1.803 2.482l1.026-.242c-.533-1.613-1.472-2.983-3.096-3.391-.336-.084-1.202.471-.605.622 1.431.359 2.218 1.698 2.68 3.09.118.36 1.039.099 1.026-.242-.052-1.439-.846-2.291-2.036-2.876-.29-.143-1.25.269-.799.557.564.361 1.154.649 1.755.934.226.108 1.167-.134.87-.508-.966-1.217-2.147-1.772-3.611-1.769-.392.002-1.075.646-.371.643z" clip-path="url(#D)"/><defs><path id="E" d="M640.071 71.141l-29.07-.088 3.428-23.583 29.071.088z"/></defs><clipPath id="F"><use xlink:href="#E" overflow="visible"/></clipPath><path fill="#10A000" d="M616.164 56.911c-.896.437-1.674 1.027-2.445 1.67-.449.372.074.533.417.451.95-.226 1.899-.432 2.773-.886.55-.287.168-.663-.306-.519l-3.934 1.057c-.623.188-.444.73.175.571 1.717-.443 3.372-1.151 5.165-1.239.394-.02 1.065-.691.366-.657-1.986.098-3.8.832-5.706 1.325l.175.571c1.299-.394 2.631-.662 3.932-1.054l-.306-.52c-.785.408-1.654.577-2.506.779l.418.453c.704-.585 1.402-1.135 2.22-1.538.648-.318.023-.691-.438-.464z" clip-path="url(#F)"/><defs><path id="G" d="M640.071 71.141l-29.07-.088 3.428-23.583 29.071.088z"/></defs><clipPath id="H"><use xlink:href="#G" overflow="visible"/></clipPath><path fill="#10A000" d="M617.114 57.83c1.63-.192 3.259-.059 4.896.096.407.039 1.071-.583.37-.649-1.729-.166-3.438-.282-5.157-.077-.513.059-.824.715-.109.63z" clip-path="url(#H)"/><defs><path id="I" d="M640.071 71.141l-29.07-.088 3.428-23.583 29.071.088z"/></defs><clipPath id="J"><use xlink:href="#I" overflow="visible"/></clipPath><path fill="#10A000" d="M618.288 57.37c1.248-.026 2.509-.056 3.736.283.276.078 1.187-.398.815-.5-1.364-.376-2.762-.354-4.15-.326-.331.006-1.097.557-.401.543z" clip-path="url(#J)"/><defs><path id="K" d="M640.071 71.141l-29.07-.088 3.428-23.583 29.071.088z"/></defs><clipPath id="L"><use xlink:href="#K" overflow="visible"/></clipPath><path fill="#10A000" d="M616.498 56.945c.848-.293 1.547-.854 2.314-1.316.091-.055.34-.256.105-.322-.23-.062-.527.036-.723.152-.595.356-1.16.875-1.815 1.101-.097.035-.51.168-.453.355.056.181.474.065.572.03z" clip-path="url(#L)"/><defs><path id="M" d="M640.071 71.141l-29.07-.088 3.428-23.583 29.071.088z"/></defs><clipPath id="N"><use xlink:href="#M" overflow="visible"/></clipPath><path fill="#10A000" d="M617.874 56.042c.07-.732-.531-1.269-1.065-1.629-.179-.12-.501 0-.669.073-.049.019-.458.222-.289.335.45.302 1.067.796 1.007 1.436-.027.29.989.064 1.016-.215z" clip-path="url(#N)"/><defs><path id="O" d="M640.071 71.141l-29.07-.088 3.428-23.583 29.071.088z"/></defs><clipPath id="P"><use xlink:href="#O" overflow="visible"/></clipPath><path fill="#10A000" d="M616.098 55.044c1.075-.14 2.354.093 2.624 1.421.107.531 1.134.222 1.023-.321-.356-1.751-2.202-2.126-3.604-1.943-.585.077-.746.934-.043.843z" clip-path="url(#P)"/><defs><path id="Q" d="M640.071 71.141l-29.07-.088 3.428-23.583 29.071.088z"/></defs><clipPath id="R"><use xlink:href="#Q" overflow="visible"/></clipPath><path fill="#10A000" d="M617.454 55.383c.537.367.881.904 1.211 1.471.191.329 1.161-.083 1.023-.322-.351-.6-.714-1.192-1.284-1.581-.194-.133-.487-.05-.678.038-.065.03-.463.263-.272.394z" clip-path="url(#R)"/><defs><path id="S" d="M640.071 71.141l-29.07-.088 3.428-23.583 29.071.088z"/></defs><clipPath id="T"><use xlink:href="#S" overflow="visible"/></clipPath><path fill="#10A000" d="M619.592 57.048c.499-.828 1.18-1.075 2.096-.968.519.061 1.02-.742.315-.825-1.325-.154-2.565.268-3.297 1.479-.356.588.629.742.886.314z" clip-path="url(#T)"/><defs><path id="U" d="M640.071 71.141l-29.07-.088 3.428-23.583 29.071.088z"/></defs><clipPath id="V"><use xlink:href="#U" overflow="visible"/></clipPath><path fill="#10A000" d="M619.465 56.604c1.118-.013 2.198.154 3.284.474.248.07.514.017.727-.129.106-.071.327-.341.077-.415-1.229-.359-2.443-.558-3.707-.545-.375.005-1.082.62-.381.615z" clip-path="url(#V)"/><defs><path id="W" d="M640.071 71.141l-29.07-.088 3.428-23.583 29.071.088z"/></defs><clipPath id="X"><use xlink:href="#W" overflow="visible"/></clipPath><path fill="#10A000" d="M617.894 58.005c1.004.18 2.024.455 2.891 1.07.3.212 1.234-.26.796-.57-.917-.651-2.025-.949-3.086-1.137-.251-.044-.546.037-.723.229-.154.159-.102.369.122.408z" clip-path="url(#X)"/><defs><path id="Y" d="M640.071 71.141l-29.07-.088 3.428-23.583 29.071.088z"/></defs><clipPath id="Z"><use xlink:href="#Y" overflow="visible"/></clipPath><path fill="#10A000" d="M617.959 58.104c.887.346 1.416 1.1 1.699 2.031.076.256 1.1-.064 1.022-.32-.313-1.042-.921-1.786-1.891-2.166-.209-.082-.542.058-.72.157-.108.061-.324.215-.11.298z" clip-path="url(#Z)"/><defs><path id="aa" d="M640.071 71.141l-29.07-.088 3.428-23.583 29.071.088z"/></defs><clipPath id="ab"><use xlink:href="#aa" overflow="visible"/></clipPath><path fill="#10A000" d="M618.997 60.346c.146.409.047.852-.173 1.195-.141.224.145.337.304.341.245.005.528-.104.668-.324.272-.431.405-1.022.225-1.534-.144-.405-1.163-.067-1.024.322z" clip-path="url(#ab)"/><defs><path id="ac" d="M640.071 71.141l-29.07-.088 3.428-23.583 29.071.088z"/></defs><clipPath id="ad"><use xlink:href="#ac" overflow="visible"/></clipPath><path fill="#10A000" d="M616.109 58.011c.296.142.483.318.617.634.17.406 1.18.054 1.022-.322-.18-.428-.446-.692-.843-.888-.229-.113-.538-.026-.732.114-.139.101-.292.346-.064.462z" clip-path="url(#ad)"/><defs><path id="ae" d="M640.071 71.141l-29.07-.088 3.428-23.583 29.071.088z"/></defs><clipPath id="af"><use xlink:href="#ae" overflow="visible"/></clipPath><path fill="#10A000" d="M615.764 58.039c-.129.811-.492 1.406-1.083 1.914-.187.159.179.159.245.151.239-.031.496-.114.683-.275.62-.531 1.032-1.167 1.167-2.02.033-.216-.971-.031-1.012.23z" clip-path="url(#af)"/><defs><path id="ag" d="M640.071 71.141l-29.07-.088 3.428-23.583 29.071.088z"/></defs><clipPath id="ah"><use xlink:href="#ag" overflow="visible"/></clipPath><path fill="#10A000" d="M615.724 57.73c-1.446.268-2.917.942-3.432 2.515-.063.19.92.064 1.013-.222.369-1.123 1.173-1.682 2.246-1.881.414-.078.898-.547.173-.412z" clip-path="url(#ah)"/><defs><path id="ai" d="M640.071 71.141l-29.07-.088 3.428-23.583 29.071.088z"/></defs><clipPath id="aj"><use xlink:href="#ai" overflow="visible"/></clipPath><path fill="#10A000" d="M613.479 58.786c-.34.284-.638.579-.897.95-.153.215.152.325.298.325.252.002.519-.105.671-.321.168-.242.369-.448.591-.633.124-.103.306-.326.067-.441-.216-.105-.555-.029-.73.12z" clip-path="url(#aj)"/><defs><path id="ak" d="M640.071 71.141l-29.07-.088 3.428-23.583 29.071.088z"/></defs><clipPath id="al"><use xlink:href="#ak" overflow="visible"/></clipPath><path fill="#10A000" d="M616.431 55.951c-.474.009-.894-.021-1.355-.157-.217-.065-.529.063-.717.165-.093.048-.339.209-.118.273.517.153 1.006.183 1.536.171.246-.005.519-.085.724-.227.158-.111.128-.23-.07-.225z" clip-path="url(#al)"/><defs><path id="am" d="M640.071 71.141l-29.07-.088 3.428-23.583 29.071.088z"/></defs><clipPath id="an"><use xlink:href="#am" overflow="visible"/></clipPath><path fill="#10A000" d="M614.359 55.067c-1.214.056-2.301.56-3.362 1.123-.634.334-.023.832.47.57.901-.476 1.788-.906 2.816-.952.565-.025.783-.773.076-.741z" clip-path="url(#an)"/><defs><path id="ao" d="M640.071 71.141l-29.07-.088 3.428-23.583 29.071.088z"/></defs><clipPath id="ap"><use xlink:href="#ao" overflow="visible"/></clipPath><path fill="#10A000" d="M620.058 57.581c1.028.309 2.156.596 2.972 1.395.293.287 1.255-.158.937-.471-.915-.898-2.159-1.232-3.313-1.581-.367-.11-1.202.472-.596.657z" clip-path="url(#ap)"/><defs><path id="aq" d="M640.071 71.141l-29.07-.088 3.428-23.583 29.071.088z"/></defs><clipPath id="ar"><use xlink:href="#aq" overflow="visible"/></clipPath><path fill="#10A000" d="M622.276 63.28c-.223-1.991-2.896-.387-3.628.188-.38.3-.043.625.316.606 1.419-.076 2.729-.494 3.994-1.135l-.477-.593c-1.195.608-2.443 1.07-3.525 1.895-.387.296-.038.626.316.607 1.397-.077 2.717-.475 4.043-.893l-.342-.648c-.698.415-1.385.875-2.145 1.159-.501.186-.539.75.073.735.581-.015 1.144-.058 1.712-.177.228-.048.523-.258.739-.261l.06-.74c-.606.233-1.144.566-1.719.865-.186.095-.453.45-.15.614.742.399 1.459.43 2.271.415.197-.004.849-.179.678-.547-.51-1.091-.687-1.574-1.865-1.915l-.453.749c.667-.014 1.296-.012 1.957.127l.453-.75c-.791-.122-1.097-.407-1.638-.987l-.852.567c.762.415 1.371 1 1.981 1.636l.229-.547-1.348.612c-.347.157-.382.673.071.683.764.017 1.522.135 2.288.145l.333-.771c-2.107.02-4.307-.268-6.104 1.059-.573.421.313.731.7.446 1.434-1.059 3.396-.719 5.071-.735.464-.004 1.044-.763.333-.771-.767-.009-1.525-.128-2.288-.145l.072.683 1.348-.612c.155-.07.411-.356.228-.546-.659-.684-1.317-1.324-2.139-1.773-.274-.151-1.232.158-.853.566.729.781 1.207 1.1 2.234 1.261.381.061 1.044-.626.453-.749-.744-.152-1.445-.187-2.199-.17-.31.005-1.098.563-.452.748.935.27 1.024.671 1.416 1.512l.678-.547c-.639.011-1.224.05-1.828-.277l-.148.613c.487-.251.938-.555 1.454-.753.331-.128.657-.75.061-.739l-2.718.446.073.736c.854-.321 1.624-.801 2.407-1.269.527-.314.166-.81-.344-.65-1.236.388-2.462.761-3.764.832l.316.606c1.005-.769 2.191-1.184 3.302-1.75.639-.324.026-.849-.478-.592-1.102.557-2.215.896-3.448.964l.317.608c.354-.28 1.787-1.351 1.903-.316.055.466 1.083.183 1.025-.325z" clip-path="url(#ar)"/><defs><path id="as" d="M640.071 71.141l-29.07-.088 3.428-23.583 29.071.088z"/></defs><clipPath id="at"><use xlink:href="#as" overflow="visible"/></clipPath><path fill="#10A000" d="M619.84 65.73c-.824.21-1.602.469-2.354.878-.281.153-.448.564.031.543 1.436-.072 2.808-.421 4.217-.683l-.028-.586c-.959.345-1.924.605-2.923.81-.482.1-.83.748-.11.618 1.081-.193 2.168-.23 3.266-.256l.373-.638c-.446.009-.883-.106-1.328-.153l-.359.619c.871-.181 1.746-.222 2.636-.244l.243-.63c-.893.211-1.71.561-2.569.865-.307.106-.688.611-.104.596.987-.025 1.858-.167 2.776-.538l-.435-.446c-.459.248-.871.533-1.279.869-.247.205-.222.484.144.478l2.107-.048.371-.638-.547.012-.371.638.547-.012c.388-.008 1.074-.654.371-.638l-.547.012c-.386.009-1.072.653-.371.638l.547-.012c.388-.008 1.074-.654.371-.638l-2.105.046.145.477c.338-.28.665-.528 1.053-.738.652-.355.016-.628-.435-.446-.672.272-1.266.325-1.971.344l-.104.594c.769-.267 1.499-.609 2.293-.797.31-.073.92-.644.241-.628-.976.023-1.942.064-2.896.266-.195.042-.937.559-.359.617.523.054 1.036.187 1.561.173.389-.008 1.073-.654.373-.639-1.186.027-2.36.07-3.528.278l-.11.618c1.088-.225 2.151-.499 3.201-.874.445-.16.591-.7-.028-.586-1.318.247-2.607.593-3.956.66l.031.543c.67-.365 1.354-.585 2.086-.772.626-.161.45-.709-.167-.552z" clip-path="url(#at)"/><defs><path id="au" d="M640.071 71.141l-29.07-.088 3.428-23.583 29.071.088z"/></defs><clipPath id="av"><use xlink:href="#au" overflow="visible"/></clipPath><path fill="#10A000" d="M626.286 66.798c.591.17 1.173.191 1.775.18.246-.006.545-.088.663-.341.106-.23-.12-.407-.323-.402-.522.012-1.023.009-1.536-.138-.246-.07-.556.026-.722.228-.153.181-.084.407.143.473z" clip-path="url(#av)"/><defs><path id="aw" d="M640.071 71.141l-29.07-.088 3.428-23.583 29.071.088z"/></defs><clipPath id="ax"><use xlink:href="#aw" overflow="visible"/></clipPath><path fill="#10A000" d="M627.185 67.222l.096-.032.012-.005.046-.014-.021-.02c.052.08-.056.218-.093.276-.132.203.134.234.268.223.209-.014.55-.096.677-.293.096-.144.216-.315.18-.506-.032-.163-.271-.194-.388-.202-.3-.019-.619.057-.9.16-.103.04-.508.172-.449.368.055.191.468.083.572.045z" clip-path="url(#ax)"/><defs><path id="ay" d="M640.071 71.141l-29.07-.088 3.428-23.583 29.071.088z"/></defs><clipPath id="az"><use xlink:href="#ay" overflow="visible"/></clipPath><path fill="#10A000" d="M629.363 67.784l1.265-.027c.232-.003.531-.204.545-.474.014-.297-.29-.383-.506-.378l-1.264.026c-.235.006-.532.206-.546.476-.013.297.29.382.506.377z" clip-path="url(#az)"/></svg>