<svg xmlns="http://www.w3.org/2000/svg" xmlns:xlink="http://www.w3.org/1999/xlink" width="80" height="80" viewBox="7.01 8.2 80 80" enable-background="new 7.01 8.2 80 80"><symbol id="a" viewBox="-108.525 -91.176 217.05 182.351"><path fill="#fff" d="M107.525-90.176h-215.05v180.351h215.05z"/><path stroke="#fff" stroke-width="2" stroke-miterlimit="10" d="M107.525-90.176h-215.05v180.351h215.05z" fill="none"/></symbol><use xlink:href="#a" width="217.05" height="182.351" x="-108.525" y="-91.176" transform="matrix(.434 0 0 -.535 47.01 48.411)" overflow="visible"/><path fill="#444A98" d="M73.277 25.301c.117.141.176.294.176.458v34.27c0 .188-.059.354-.176.494-.164.117-.34.176-.529.176h-18.969l.494 4.268c0 .705-.061 1.352-.178 1.938h9.063l2.01 3.244.143.176v.813c0 .094-.154.141-.459.141h-36.034c-.307 0-.459-.047-.459-.141v-.813c0-.117.047-.176.141-.176l1.904-3.244h9.203c-.141-.587-.211-1.232-.211-1.938l.457-4.268h-18.617c-.188 0-.34-.059-.457-.176-.141-.142-.211-.306-.211-.494v-34.27c0-.165.07-.317.211-.458.117-.118.271-.177.457-.177h51.512c.189 0 .365.058.529.177z"/><path fill="#fff" d="M25.642 30.377h42.664v25.034h-42.664z"/><path fill="#AEEFF9" d="M68.271 30.413v5.854l-41.799 18.967h-.863v-13.432l25.101-11.389h17.561zm0 9.078v4.849l-23.254 10.894h-10.365l33.619-15.743z"/></svg>