<svg xmlns="http://www.w3.org/2000/svg" xmlns:xlink="http://www.w3.org/1999/xlink" width="80" height="80" viewBox="6.803 8.2 80 80" enable-background="new 6.803 8.2 80 80"><symbol id="b" viewBox="-60.851 -48.86 121.702 97.719"><path d="M7.679 46.784c.566.977 1.414 1.621 2.545 1.936 1.132.278 2.21.141 3.235-.418l22.644-12.918-40.834-69.766-22.644 12.917c-1.025.559-1.697 1.396-2.015 2.51-.283 1.151-.124 2.215.478 3.19l36.591 62.549zm51.068-24.265c.99-.592 1.644-1.446 1.962-2.563.283-1.116.141-2.162-.424-3.138l-36.591-62.547c-.602-.978-1.467-1.64-2.599-1.987-1.132-.279-2.192-.122-3.182.471l-22.644 12.863 40.834 69.766 22.644-12.865z" fill="#333"/><path fill="#F9F9F9" d="M7.771 45.146c.533.933 1.333 1.55 2.4 1.85 1.067.268 2.083.133 3.05-.399l21.35-12.351-38.5-66.7-21.35 12.352c-.967.532-1.6 1.333-1.9 2.398-.267 1.102-.117 2.117.45 3.051l34.5 59.799zm48.15-23.201c.934-.567 1.55-1.384 1.85-2.45.267-1.065.133-2.065-.4-3l-34.5-59.8c-.567-.934-1.383-1.567-2.45-1.9-1.066-.267-2.066-.116-3 .45l-21.35 12.3 38.5 66.7 21.35-12.3z"/><path fill="#2F3033" d="M12.906-8.152c.255-3.665 2.154-6.467 5.698-8.403l-3.059-2.323-8.557 4.942 18.387 31.834 4.961-18.53c.691-2.581.375-5.017-.947-7.307-1.323-2.289-3.269-3.771-5.837-4.439-2.097-.563-4.125-.438-6.087.366-1.94.792-3.46 2.079-4.559 3.86z"/><path fill="#434548" d="M3.419-3.899c-1.678 1.295-2.797 2.993-3.359 5.088-.682 2.548-.362 4.967.961 7.257s3.264 3.786 5.824 4.488l18.531 4.962-18.388-31.833-8.557 4.94.483 3.813c3.469-2.113 6.845-2.358 10.126-.736-2.089.062-3.963.735-5.621 2.021zm8.423 42.087l1.268-.732 1.086 3.229.106.243-2.46-2.74zm3.783 3.799c.091-.233.107-.479.048-.737l-2.568-9.305-1.318.762.909 3.33-1.876 1.084-2.336-2.404-.069-.063-1.294.747.124.098 6.587 6.78c.462.409.921.481 1.378.219.169-.099.308-.269.415-.511z"/><path fill="#2F3033" d="M5.744 24.937c.08-.992.606-1.76 1.58-2.299l-.838-.633-2.358 1.362 5.053 8.749 1.345-5.105c.203-.703.119-1.375-.252-2.019-.361-.625-.897-1.025-1.607-1.202-.56-.149-1.118-.121-1.674.088-.531.215-.947.567-1.249 1.059z"/><path fill="#434548" d="M9.18 32.115l-5.053-8.749-2.358 1.361.128 1.042c.954-.573 1.881-.646 2.781-.22-.576.018-1.09.2-1.541.552-.458.377-.762.847-.912 1.406-.186.692-.098 1.354.263 1.979.371.642.903 1.056 1.597 1.241l5.095 1.388zm8.145-72.04l2.307 2.581-1.25.722-1.093-3.248-.122-.27.158.215zm3.321 3.629l2.376 2.405.059.102 1.327-.766-.14-.124-6.654-6.809c-.196-.183-.432-.295-.707-.341-.249-.037-.467-.002-.654.105-.187.106-.327.278-.418.514-.108.244-.133.497-.073.758l2.624 9.373 1.327-.767-.929-3.376 1.862-1.074z"/><path fill="#2F3033" d="M27.425-22.381l-5.085-8.803-1.379 5.151c-.187.697-.099 1.36.265 1.99.373.646.909 1.063 1.606 1.25.563.151 1.134.117 1.71-.103.533-.218.952-.572 1.256-1.065-.081.999-.611 1.771-1.59 2.313l.844.637 2.373-1.37z"/><path fill="#434548" d="M29.643-24.783c-.943.566-1.867.636-2.773.205.58-.017 1.097-.202 1.551-.555.461-.38.767-.853.918-1.415.187-.698.093-1.37-.28-2.017-.363-.629-.894-1.037-1.592-1.226l-5.127-1.394 5.085 8.803 2.347-1.355-.129-1.046z"/><path fill="#DE4653" d="M-60.443 18.619c-.48 1.049-.537 2.116-.169 3.2.403 1.083 1.138 1.888 2.205 2.412l23.62 11.328 34.793-72.637-23.62-11.328c-1.066-.523-2.145-.595-3.235-.209-1.125.385-1.928 1.083-2.409 2.099l-31.185 65.135zm49.242 28.269c1.075.489 2.163.56 3.263.21 1.135-.386 1.944-1.103 2.429-2.149l31.462-65.139c.485-1.015.542-2.063.172-3.146-.407-1.118-1.148-1.922-2.223-2.412l-23.823-11.33-35.103 72.638 23.823 11.328z"/><path fill="#fff" d="M-58.129 17.945c-.467 1-.533 2.017-.2 3.05.367 1.033 1.05 1.8 2.05 2.3l22.15 10.801 33.75-69.25-22.15-10.801c-1-.5-2.017-.564-3.05-.199-1.066.366-1.833 1.032-2.3 2l-30.25 62.099zm46.15 26.951c1 .467 2.017.532 3.05.199 1.067-.365 1.833-1.051 2.3-2.051l30.25-62.1c.467-.967.533-1.967.2-3-.367-1.066-1.05-1.833-2.05-2.301l-22.15-10.8-33.75 69.25 22.15 10.803z"/><path fill="#D54A5B" d="M-52.135 21.051l.736-3.041 1.205.587-1.893 2.478-.129.205.081-.229zm.399 1.446l5.72-6.723-1.253-.61-2.061 2.396-1.759-.856.604-3.015.035-.072-1.252-.61-.011.146-1.771 8.468c-.074.561.105.946.539 1.157.177.086.377.104.6.054.24-.048.443-.158.609-.335zm.616-12.341c.247.717.716 1.243 1.406 1.58.675.329 1.371.37 2.087.123l3.405-6.987-5.196 1.791c-.717.247-1.24.708-1.568 1.383-.336.69-.381 1.394-.134 2.11z"/><path fill="#A4343A" d="M-44.133 13.562c.717-.246 1.243-.716 1.58-1.405.329-.675.369-1.371.122-2.087l-1.791-5.196-3.405 6.987c.247.717.716 1.242 1.407 1.58.675.327 1.37.368 2.087.121z"/><path fill="#D54A5B" d="M12.329-17.288l-1.276-.622 2.005-2.625.15-.242-.087.242c-.073.365-.219.969-.439 1.81l-.353 1.437zm-.981 4.673l1.302.634.023-.179 1.877-8.974c.079-.593-.112-1.002-.571-1.227-.17-.083-.374-.099-.61-.044-.253.045-.468.16-.644.35l-6.1 7.138 1.327.647 2.197-2.563 1.864.908-.665 3.31zm.723 3.637c-.262-.761-.75-1.313-1.465-1.662-.731-.356-1.478-.404-2.237-.143l-3.608 7.405 5.506-1.897c.759-.263 1.317-.76 1.674-1.49.348-.716.391-1.454.13-2.213z"/><path fill="#A4343A" d="M4.666-12.586c-.759.263-1.313.75-1.662 1.465-.356.731-.404 1.478-.142 2.237l1.898 5.506 3.608-7.403c-.262-.76-.75-1.313-1.465-1.662-.731-.357-1.477-.404-2.237-.143z"/><path fill="#D54A5B" d="M-23.64 10.878l12.35-25.348-18.842 6.519c-2.6.896-4.502 2.581-5.707 5.054-1.204 2.473-1.358 5.009-.462 7.607.897 2.601 2.581 4.502 5.053 5.707s5.008 1.357 7.608.461z"/><path fill="#A4343A" d="M-10.953 17.06c2.6-.896 4.502-2.581 5.707-5.054 1.204-2.472 1.358-5.008.462-7.606l-6.506-18.87-12.35 25.348c.896 2.601 2.589 4.507 5.079 5.72 2.473 1.204 5.009 1.357 7.608.462z"/></symbol><symbol id="a" viewBox="-108.525 -91.176 217.05 182.351"><path fill="#fff" d="M107.525-90.176h-215.05v180.351h215.05z"/><path stroke="#fff" stroke-width="2" stroke-miterlimit="10" d="M107.525-90.176h-215.05v180.351h215.05z" fill="none"/></symbol><use xlink:href="#a" width="217.05" height="182.351" x="-108.525" y="-91.176" transform="matrix(.433 0 0 -.514 46.803 48.2)" overflow="visible"/><use xlink:href="#b" width="121.702" height="97.719" x="-60.851" y="-48.86" transform="matrix(.551 0 0 -.551 46.803 48.2)" overflow="visible"/><path d="M9.183 66.475h74.18v27.161h-74.18z" fill="none"/></svg>