<svg xmlns="http://www.w3.org/2000/svg" xmlns:xlink="http://www.w3.org/1999/xlink" width="80" height="80" viewBox="6.591 8.2 80 80" enable-background="new 6.591 8.2 80 80"><symbol viewBox="-40.725 -35 81.45 70"><path fill="#FFAB43" d="M-8.175 34.5l5.5-10h36.45v-59h-74v59h.05v10h32zm5.5-10l-5.5-4h-32v4-4h32l5.5 4z"/><path stroke="#FFAB43" stroke-linecap="round" stroke-linejoin="round" stroke-miterlimit="3" d="M-8.175 34.5l5.5-10h36.45v-59h-74v59h.05v10h32zm5.5-10l-5.5-4h-32v4" fill="none"/><path fill="#FFDB91" d="M40.225 13.2l-6.35-47.65h-74l8.8 48.95z"/><path stroke="#FFDB91" stroke-linecap="round" stroke-linejoin="round" stroke-miterlimit="3" d="M40.225 13.2l-6.35-47.65h-74l8.8 48.95z" fill="none"/></symbol><symbol id="a" viewBox="-108.525 -91.176 217.05 182.351"><path fill="#fff" d="M107.525-90.176h-215.05v180.351h215.05z"/><path stroke="#fff" stroke-width="2" stroke-miterlimit="10" d="M107.525-90.176h-215.05v180.351h215.05z" fill="none"/></symbol><use xlink:href="#a" width="217.05" height="182.351" x="-108.525" y="-91.176" transform="matrix(.433 0 0 -.514 46.591 48.2)" overflow="visible"/><path fill="#FFAB43" d="M40.86 24.014l3.856 7.01h25.553v41.362h-51.878v-41.362h.035v-7.01h22.434zm3.856 7.01l-3.856 2.804h-22.433v-2.804 2.804h22.433l3.856-2.804zm-3.856-7.01l-.307.169 3.856 7.01c.061.112.18.182.307.182h25.202v40.661h-51.176v-41.012h-.351v.351h.035c.092 0 .183-.037.248-.103.065-.065.103-.155.103-.248v-6.66h22.083v-.35l-.307.169.307-.169v-.351h-22.433c-.092 0-.183.037-.248.103-.065.065-.103.156-.103.248v7.01h.351v-.351h-.035c-.092 0-.183.038-.248.103s-.103.155-.103.248v41.362c0 .092.037.183.103.247.065.065.156.104.248.104h51.877c.092 0 .183-.038.248-.104.065-.064.103-.155.103-.247v-41.362c0-.092-.037-.182-.103-.248s-.156-.103-.248-.103h-25.346l-3.756-6.829c-.062-.112-.18-.182-.307-.182v.352zm3.65 6.727l-3.764 2.737h-21.969v-2.454c0-.193-.157-.351-.351-.351-.193 0-.351.157-.351.351v2.804c0 .092.038.183.103.248s.155.103.248.103h22.434c.073 0 .147-.024.206-.067l3.856-2.804c.157-.114.191-.333.077-.49-.114-.157-.333-.191-.489-.077z"/><path fill="#FFDB91" d="M74.79 38.946l-4.451 33.405h-51.877l6.169-34.316zm0 0l-.346-.046-4.411 33.101h-51.152l6.042-33.61 49.861.906.006-.351-.346-.046.346.046.007-.351-50.16-.911c-.172-.003-.321.119-.352.289l-6.169 34.316c-.018.103.01.208.076.287.067.08.165.126.269.126h51.877c.175 0 .324-.13.347-.304l4.452-33.406c.014-.099-.016-.199-.081-.274s-.159-.12-.26-.122l-.006.35z"/></svg>