<svg xmlns="http://www.w3.org/2000/svg" xmlns:xlink="http://www.w3.org/1999/xlink" width="80" height="80" viewBox="6.634 8.2 80 80" enable-background="new 6.634 8.2 80 80"><symbol id="b" viewBox="-41.475 -41.638 82.95 83.274"><path fill="#F9DE48" d="M-34.725 34.214c3.2 3.2 7.283 5.2 12.25 6 2.5.434 4.683.533 6.55.3h56.4v-80.949h-80.95v57.3c0 1.899.233 4.065.7 6.5.933 4.799 2.617 8.415 5.05 10.849z"/><path stroke="#F9DE48" stroke-width="2" stroke-linecap="round" stroke-linejoin="round" stroke-miterlimit="3" d="M-34.725 34.214c3.2 3.2 7.283 5.2 12.25 6 2.5.434 4.683.533 6.55.3h56.4v-80.949h-80.95v57.3c0 1.899.233 4.065.7 6.5.933 4.799 2.617 8.415 5.05 10.849z" fill="none"/><path fill="#fff" d="M38.375-19.937c-.2.066-.4.066-.6 0l-29.3-6.601c-.1 0-.2-.018-.3-.05l-9.1-2.102-4.85 7.7-.05.101-.05.051-15.35 24.6c-.233.333-.55.551-.95.65-.4.1-.783.032-1.15-.2-.333-.2-.55-.5-.65-.899s-.033-.783.2-1.149l14.45-23.15-29.4-12 14.95 37.101c.1.268.267.45.5.551.267.133.533.133.8 0l60.85-24.603zm-24.85-21.7h-34.65l-15.45 6.25 28.85 11.801 4.8-7.601c.167-.268.4-.467.7-.601.267-.101.567-.117.9-.05l9.25 2.1 5.6-11.899zm25.35 21.5l.3-.101c.233-.066.417-.232.55-.5.1-.267.1-.532 0-.8l-8.1-20.101h-14.85l-.05.101-5.8 12.45 27.5 6.199c.4.101.717.333.95.699.2.333.267.7.2 1.102-.1.435-.333.752-.7.951z"/><path fill="#F29800" d="M-38.725-32.986l29.4 12-14.45 23.15c-.233.366-.3.75-.2 1.149s.317.699.65.899c.367.232.75.3 1.15.2.4-.102.717-.316.95-.65l15.35-24.6.05-.051.05-.101 4.85-7.7 9.1 2.102c.1.032.2.05.3.05l29.3 6.601c.2.066.4.066.6 0l.45-.149.05-.051c.367-.199.6-.518.7-.949.067-.4 0-.768-.2-1.101-.233-.367-.55-.601-.95-.7l-27.5-6.199 5.8-12.45.05-.101h-3.25l-5.6 11.899-9.25-2.1c-.333-.066-.633-.051-.9.05-.3.133-.533.333-.7.601l-4.8 7.601-28.85-11.801-1.05-.399c-.4-.167-.783-.167-1.15 0-.4.167-.684.434-.85.8-.167.4-.15.783.05 1.15.133.399.4.684.8.85h.05z"/><path stroke="#F29800" stroke-width="8" stroke-linecap="round" stroke-linejoin="round" stroke-miterlimit="3" d="M-13.875-4.736c-3.567.101-6.617 1.7-9.15 4.801-2.633 3.167-3.95 7.018-3.95 11.55 0 4.5 1.317 8.351 3.95 11.551 2.6 3.167 5.75 4.75 9.45 4.75 3.7 0 6.867-1.583 9.5-4.75 2.6-3.2 3.9-7.051 3.9-11.551 0-4.532-1.3-8.383-3.9-11.55-2.566-3.101-5.617-4.7-9.15-4.801" fill="none"/></symbol><symbol id="a" viewBox="-108.525 -91.176 217.05 182.351"><path fill="#fff" d="M107.525-90.176h-215.05v180.351h215.05z"/><path stroke="#fff" stroke-width="2" stroke-miterlimit="10" d="M107.525-90.176h-215.05v180.351h215.05z" fill="none"/></symbol><use xlink:href="#a" width="217.05" height="182.351" x="-108.525" y="-91.176" transform="matrix(.434 0 0 -.515 46.634 48.2)" overflow="visible"/><use xlink:href="#b" width="82.95" height="83.274" x="-41.475" y="-41.638" transform="matrix(.624 0 0 -.624 46.634 48.2)" overflow="visible"/><path d="M.2 66.476h92.742v26.403h-92.742z" fill="none"/></svg>