<svg xmlns="http://www.w3.org/2000/svg" xmlns:xlink="http://www.w3.org/1999/xlink" width="80" height="80" viewBox="0 0 80 80"><symbol id="a" viewBox="-108.525 -91.176 217.05 182.351"><path fill="#fff" d="M107.525-90.176h-215.05v180.351h215.05z"/><path stroke="#fff" stroke-width="2" stroke-miterlimit="10" d="M107.525-90.176h-215.05v180.351h215.05z" fill="none"/></symbol><use xlink:href="#a" width="217.05" height="182.351" x="-108.525" y="-91.176" transform="matrix(.433 0 0 -.514 40 40)" overflow="visible"/><path fill="#FFAB43" d="M34.269 15.815l3.856 7.01h25.553v41.363h-51.877v-41.363h.035v-7.01h22.433zm3.856 7.01l-3.856 2.804h-22.432v-2.804 2.804h22.432l3.856-2.804zm-3.856-7.01l-.307.169 3.856 7.01c.062.112.18.182.307.182h25.202v40.661h-51.175v-41.012h-.351v.351h.035c.092 0 .183-.037.248-.103.065-.065.103-.155.103-.248v-6.66h22.083v-.35l-.307.169.306-.169v-.351h-22.432c-.092 0-.183.037-.248.103-.065.065-.103.156-.103.248v7.01h.351v-.351h-.035c-.092 0-.183.038-.248.103s-.103.155-.103.248v41.363c0 .092.037.182.103.246.065.064.156.104.248.104h51.877c.092 0 .183-.037.248-.104.064-.064.103-.154.103-.246v-41.363c0-.092-.037-.182-.103-.248s-.156-.103-.248-.103h-25.346l-3.756-6.829c-.062-.112-.181-.182-.308-.182v.352zm3.65 6.727l-3.764 2.737h-21.968v-2.454c0-.193-.157-.351-.351-.351-.193 0-.351.157-.351.351v2.804c0 .092.038.183.103.248s.155.103.248.103h22.434c.074 0 .147-.024.207-.067l3.855-2.804c.157-.114.191-.333.077-.49-.115-.157-.333-.191-.49-.077z"/><path fill="#FFDB91" d="M68.199 30.747l-4.451 33.405h-51.876l6.169-34.316zm0 0l-.347-.046-4.41 33.101h-51.151l6.042-33.61 49.861.906.005-.351-.347-.046.347.046.007-.351-50.159-.911c-.172-.003-.321.119-.352.289l-6.169 34.316c-.018.104.01.208.076.287.067.08.165.126.269.126h51.876c.176 0 .324-.13.348-.304l4.451-33.406c.014-.099-.016-.199-.08-.274-.065-.075-.16-.12-.261-.122l-.006.35z"/><defs><path id="b" d="M54.694 60.166l-31.962-.098 3.77-25.926 31.96.097z"/></defs><clipPath id="c"><use xlink:href="#b" overflow="visible"/></clipPath><path clip-path="url(#c)" fill="#94FFFF" d="M56.548 60.842l-36.811.784 4.237-29.14 36.812-.784z"/><path fill="#50A4FF" d="M7.308 59.899c10.472-1.706 20.772-4.438 31.425-4.93 5.036-.233 10.111.299 15.155.138 4.968-.161 9.693-1.838 14.657-2.065l-5.365-3.535c-.315 1.396-.842 1.81-1.757 2.56-.442.364-.927.601-1.932 1.093.47-.167.354-.118-.351.147-.627.242-1.271.438-1.913.638-3.554 1.102-8.066 1.509-12.283 1.776-6.273.399-12.535.941-18.808 1.354-6.87.451-14.286-.665-20.692 2.172l8.067 3.699c.417-1.228-1.751 1.652-.545.696-1.085.862.243-.022.48-.134-1.166.547.688-.205.762-.229.817-.276 1.651-.5 2.484-.724 2.346-.63 3.377-.777 6.109-1.277 10.314-1.891 20.813-2.358 31.304-2.589 2.391-.052 5.857-2.074 6.1-4.885.272-3.146-3.32-3.58-5.365-3.536-10.982.243-21.881.862-32.674 2.839-3.464.635-6.935 1.349-10.296 2.415-3.235 1.026-7.978 2.827-9.248 6.564-1.818 5.349 5.424 4.869 8.067 3.699-.791.245-.656.275.406.089.707-.074 1.454.013 2.165.035 1.792.06 3.58-.017 5.368-.073 4.137-.129 8.262-.429 12.384-.743 5.849-.446 11.732-.721 17.568-1.308 9.745-.979 23.417-3.891 26.064-15.63.691-3.061-3.655-3.613-5.364-3.534-4.827.222-9.434 1.973-14.263 2.049-5.182.083-10.365-.276-15.55-.123-10.639.317-20.985 3.231-31.425 4.933-2.398.39-5.837 1.838-6.1 4.885-.254 2.944 3.309 3.869 5.366 3.534z" clip-path="url(#c)"/><g clip-path="url(#c)" fill="#fff"><path d="M13.488 36.341c6.439-1.419 17.231-4.212 23.001-2.626l-2.965 1.344c.694-.015 1.558.395 1.99.599-5.899 2.476-13.371 3.062-19.314 4.256-5.018 1.175-10.53 2.574-15.392 2.677 1.612-4.733 10.935-5.359 15.026-6.514"/><path d="M13.411 36.63c7.095-1.577 15.292-4.412 22.631-2.636l.372-.53-2.965 1.344c-.183.069-.809.477-.269.554 2.827.401.367.76-.491 1.04-1.225.401-2.482.691-3.737.979-2.309.529-4.659.889-6.997 1.265-4.698.757-9.289 1.91-13.955 2.82-1.031.201-2.069.355-3.109.506.454-.066-3.821.919-3.079-.393 1.054-1.864 3.48-2.643 5.318-3.235 2.864-.922 5.878-1.244 8.78-2.016.678-.18.518-.68-.151-.502-4.778 1.271-13.189 1.238-15.513 6.87-.077.187.265.206.344.202 6.253-.239 12.183-2.144 18.302-3.2 5.698-.981 11.435-1.687 16.846-3.844.146-.059.533-.335.225-.475-.427-.192-.904-.453-1.365-.519-.318.183-.358.222-.118.119.678-.375 1.373-.713 2.085-1.013.082-.03.789-.429.372-.531-7.622-1.844-16.023.983-23.372 2.617-.495.11-.939.752-.154.578z"/></g><g clip-path="url(#c)" fill="#fff"><path d="M54.086 30.546c6.453-.634 17.331-2.117 22.692.207l-3.073.992c.674.071 1.452.593 1.841.854-6.086 1.77-13.419 1.432-19.36 1.901-5.04.564-10.592 1.293-15.321.793 2.263-4.591 11.396-4.063 15.535-4.723"/><path d="M53.866 30.852c7.085-.709 15.516-2.569 22.466.181l.371-.531-2.922.954c-.092.023-.986.438-.524.569.642.119 1.229.39 1.768.812l.445-.488c-4.606 1.245-9.378 1.411-14.135 1.591-4.437.168-8.808.766-13.229 1.088-.667.048-6.544-.063-6.428-.267 1.201-2.092 4.086-2.628 6.174-3.013 2.794-.514 5.662-.486 8.471-.887.512-.074.945-.691.153-.579-5.002.715-13.097-.262-16.136 5.039-.093.163.018.262.18.276 5.859.515 11.559-.573 17.367-.915 5.967-.35 11.935-.264 17.734-1.833.073-.02.703-.323.447-.488-.631-.405-1.199-.693-1.916-.896l-.524.569 3.227-1.03c.131-.032.755-.378.373-.53-7.126-2.818-15.688-.958-22.924-.233-.358.034-1.195.686-.438.611z"/></g><g clip-path="url(#c)" fill="#fff"><path d="M64.009 33.343c6.438-1.419 17.23-4.212 23.001-2.626l-2.966 1.345c.694-.015 1.56.394 1.991.599-5.899 2.475-13.371 3.062-19.314 4.256-5.018 1.175-10.531 2.575-15.392 2.678 1.611-4.734 10.935-5.36 15.025-6.515"/><path d="M63.932 33.631c7.096-1.577 15.292-4.411 22.631-2.635l.372-.531-2.966 1.345c-.184.069-.809.478-.269.554 2.827.4.366.759-.491 1.04-1.225.4-2.482.691-3.736.979-2.311.53-4.658.89-6.998 1.266-4.698.756-9.287 1.909-13.955 2.819-1.03.201-2.067.357-3.107.507.453-.066-3.821.919-3.08-.393 1.054-1.863 3.481-2.643 5.319-3.235 2.863-.922 5.878-1.245 8.779-2.016.679-.18.516-.68-.151-.502-4.778 1.271-13.189 1.238-15.512 6.87-.078.187.264.206.344.201 6.252-.238 12.183-2.144 18.3-3.198 5.698-.983 11.437-1.688 16.847-3.846.146-.058.533-.335.225-.474-.428-.192-.906-.454-1.365-.519-.318.183-.357.223-.118.119.679-.376 1.373-.713 2.087-1.014.082-.031.788-.429.372-.53-7.623-1.844-16.024.982-23.373 2.617-.496.108-.941.751-.155.576z"/></g><path fill="#FFE89F" d="M-8.664 57.451c8.578-1.728 17.211-2.085 25.904-2.884 3.769-.345 7.519-.869 11.324-.645 2.066.122 3.71.982 5.567 1.913 1.752.878 3.705 1.158 5.593 1.358 4.185.445 8.418.183 12.619.573 4.295.397 8.619 1.172 12.926 1.129 3.078-.032 6.14-.308 9.218-.312 2.486-.002 6.203-.18 8.153 1.886l1.015-2.336c-3.672 1.585-8.008 1.254-11.928 1.069-4.057-.189-8.067-.224-12.118-.043-9.59.427-19.186 1.345-28.679 2.641-8.917 1.218-17.871 2.55-26.933 1.777-2.802-.238-7.125-.544-9.238-2.884-1.893-2.096 4.748-3.003 5.808-3.228.939-.195 2.33-.69 2.452-1.915.113-1.142-1.341-1.511-2.126-1.346-3.517.737-16.049 3.819-9.124 9.679 2.77 2.345 7.42 2.653 10.738 2.992 5.395.551 10.852.206 16.205-.313 12.039-1.167 23.944-2.992 36.027-3.869 5.771-.419 11.46-.348 17.247-.117 4.704.187 9.38-.057 13.735-1.936.679-.293 1.806-1.499 1.016-2.334-4.003-4.238-11.622-3.089-16.593-2.856-8.648.407-17.274-1.36-25.942-1.446-2.133-.021-4.154-.171-6.243-.747-2.021-.557-3.667-1.935-5.774-2.352-3.891-.77-7.963-.262-11.834.12-9.605.947-19.203 1.25-28.687 3.161-.939.189-2.33.696-2.451 1.917-.116 1.148 1.338 1.506 2.123 1.348zm13.955 2.974c7.349-3.425 16.467-2.219 24.332-1.466l.795-3.66c-1.312.029-2.624.057-3.936.083-2.635.057-3.297 3.729-.206 3.663l3.936-.084c2.092-.044 3.583-3.394.794-3.659-9.26-.886-19.285-1.802-27.902 2.213-2.836 1.321-.138 3.992 2.187 2.91zm-7.958-3.448l-1.359-.184.916.936.031-.217-2.525 1.674c13.328-1.787 26.746-3.272 40.257-2.953l.489-2.498c-9.32 2.555-19.321 2.609-28.964 2.364l-.489 2.498c8.033-2.523 17.037-3.672 25.476-2.551l1.61-2.608c-8.295.984-16.648 1.363-25.021 1.348l-.489 2.498c6.76-1.651 13.801-1.411 20.736-1.336l1.1-2.646c-6.275 1.376-12.845 1.369-19.24 1.938-6.498.577-12.938 1.63-19.488 1.625l-.49 2.497c7.031-1.85 14.452-1.48 21.686-1.57 7.172-.09 14.487-1.505 21.631.136l1-2.462c-6.515 2.187-13.528 1.879-20.311 2.458-6.897.59-13.804 1.86-20.771 1.065l-.999 2.462c5.807-1.77 12.032-1.481 18.056-1.665 6.215-.188 12.406-1.246 18.641-.271l.999-2.462c-11.19 2.745-22.905 2.67-34.383 3.122l-1.1 2.645c14.051-1.72 28.244-1.843 42.416-1.932l1.1-2.646c-10.817 1.855-21.841 1.726-32.785 2.368-.952.056-1.959.343-2.671 1.036-.655.64-.484 1.524.489 1.625 11.67 1.215 23.101-1.432 34.699-1.759l1.101-2.646c-13.108 1.741-26.317 2.637-39.562 2.937l-.489 2.498c6.48-1.63 13.408-.396 20.008.131l2.182-2.662c-7.88.098-15.748-1.095-23.629-.994-1.604.021-4.803 2.575-1.672 2.699 14.849.589 29.662 1.856 44.193-1.622.836-.2 2.305-.592 2.524-1.673.212-1.039-1.467-1.047-1.996-.919-14.157 3.389-28.585 2.087-43.049 1.515l-1.672 2.699c7.881-.102 15.749 1.091 23.629.993.938-.012 1.98-.363 2.671-1.037.642-.626.495-1.546-.49-1.626-7.857-.628-15.689-1.74-23.393.198-1.452.365-2.963 2.555-.489 2.499 13.626-.309 27.219-1.252 40.705-3.044 1.497-.198 3.96-2.726 1.1-2.646-11.232.316-22.39 3.008-33.68 1.832l-2.181 2.663c11.327-.664 22.734-.554 33.929-2.473 1.439-.246 4.008-2.663 1.101-2.646-14.562.09-29.125.271-43.561 2.037-1.514.186-3.944 2.756-1.1 2.646 12.317-.483 24.74-.574 36.746-3.521.938-.23 3.119-2.131 1-2.462-6.886-1.076-13.729.019-20.595.228-6.56.199-13.165.11-19.485 2.036-.837.256-3.185 2.214-.999 2.462 7.677.878 15.229-.432 22.83-1.08 7.277-.622 14.641-.423 21.636-2.771.937-.315 3.114-1.977.999-2.463-7.482-1.717-15.141-.343-22.65-.208-8.097.146-16.179-.098-24.051 1.972-1.458.385-2.962 2.497-.489 2.499 6.908.005 13.707-1.11 20.561-1.721 6.424-.57 13.002-.564 19.312-1.947 1.37-.3 4.058-2.613 1.1-2.646-7.794-.084-15.512-.116-23.101 1.737-1.482.361-2.947 2.493-.49 2.498 8.757.018 17.488-.424 26.164-1.453.957-.114 4.032-2.288 1.61-2.609-9.581-1.275-19.739.011-28.86 2.877-1.423.448-2.99 2.435-.49 2.499 10.478.268 21.209.009 31.329-2.765 1.469-.402 2.957-2.44.49-2.498-13.887-.328-27.701 1.224-41.401 3.059-.783.105-2.377.655-2.524 1.673l-.031.216c-.084.583.452.874.916.937l1.358.185c1.097.15 2.371-.211 3.181-1.001.669-.659.465-1.497-.493-1.627zm39.49.273c-.365-.101-.722-.228-1.073-.379l-.114 2.556c1.76-1.576 5.285-1.184 7.44-1.07 2.301.122 5.19.282 7.296 1.478l1.18-3.141c-6.557 1.559-13.777.319-20.403-.734l-.807 3.619c7.51-.521 15.05.279 22.546 1.215l.807-3.619c-6.547.127-13.101.078-19.648.207l-.218 3.619c5.73-.124 11.459-.256 17.182-.514 5.356-.242 11.045-1.421 16.361.081l.725-3.37c-7.937 2.211-16.422 1.146-24.587 1.061l-.807 3.619c13.778-2.66 27.922-.076 41.798-1.745l-.396-3.49c-8.859 1.971-17.905.124-26.891.174-9.649.053-19.2 1.204-28.741 2.391-2.552.318-3.313 4.005-.218 3.62 10.099-1.256 20.229-2.521 30.454-2.369 8.954.13 17.576 1.512 26.409-.453 2.353-.523 2.229-3.807-.398-3.492-13.876 1.669-28.017-.915-41.799 1.745-1.785.345-3.782 3.589-.806 3.62 9.016.094 18.229 1.127 26.995-1.317 1.323-.368 2.856-2.77.726-3.37-5.076-1.434-10.261-.886-15.381-.503-6.775.508-13.608.547-20.408.694-2.62.057-3.311 3.68-.218 3.619 6.547-.129 13.101-.079 19.647-.207 2.089-.041 3.585-3.273.807-3.62-7.89-.982-15.819-1.762-23.723-1.215-2.062.143-3.602 3.175-.806 3.619 7.52 1.195 15.385 2.245 22.811.479 1.056-.251 2.795-2.226 1.18-3.142-3.199-1.815-7.174-2.122-10.682-2.236-3.521-.113-7.788.063-10.573 2.558-.697.624-1.137 1.916-.113 2.554.657.41 1.26.614 1.982.84 2.011.626 5.265-2.506 2.464-3.382z" clip-path="url(#c)"/><path fill="#936500" d="M28.578 44.651c-2.382 2.584-2.02 6.067-2.186 9.46-.06 1.231 2.245.818 2.298-.253.147-3.015-.306-6.262 1.821-8.568.979-1.062-1.259-1.37-1.933-.639z" clip-path="url(#c)"/><path fill="#10A000" d="M23.25 46.549c1.266-.453 4.612-2.304 5.72-.88.305.393 1.377-.088 1.024-.54-1.538-1.976-5.299.075-6.969.673-.674.242-.458.992.225.747zm5.801-1.138c-1.637-.859-3.531-.717-5.233-.34l-.185.475c1.728-.442 3.519-.486 5.278-.735.069-.009 1.022-.338.759-.481-1.271-.691-2.66-1.036-4.021-1.44l-.811.517c1.277.008 2.459.313 3.608.945.223.123 1.284-.211 1.053-.445-.836-.847-1.727-1.466-2.801-1.893-.23-.092-1.187.351-.981.475l1.928 1.026c.295.177 1.223-.343 1.054-.445l-1.929-1.026-.982.475c1.023.406 1.866 1.031 2.658 1.834l1.053-.445c-1.251-.688-2.562-1.021-3.951-1.028-.158-.002-1.221.394-.811.516 1.311.389 2.653.717 3.878 1.382l.76-.482c-1.855.261-3.74.315-5.559.779-.442.112-.983.652-.185.475 1.43-.317 2.995-.408 4.366.312.308.156 1.211-.368 1.054-.451zm1.362-.937c.063-.714.065-1.334.284-2.03l-1.093-.098c-.231.889-.11 1.278.167 2.145l.595-.61-.231.007-.066.864c2.703-.478 5.465-.749 8.219-.391l-.395-.37-.031.214.608-.496c-2.557.389-5.12-.056-7.694-.049l-.212.868c1.922-.039 4.179-.219 5.935.854.425.26 1.407-.368.85-.709-2.023-1.237-4.501-1.058-6.718-1.012-.506.012-.903.87-.213.867 2.673-.005 5.333.449 7.987.046.261-.04.564-.189.608-.497l.03-.215c.034-.238-.223-.349-.395-.371-2.847-.373-5.718-.1-8.512.396-.61.107-.861.884-.066.864l.231-.005c.25-.006.703-.273.595-.609-.206-.644-.407-.888-.198-1.693.173-.667-.94-.584-1.093-.098-.238.759-.268 1.454-.339 2.256-.056.605 1.099.405 1.147-.128zm-1.737.65c1.396-.002 2.437.601 3.342 1.742l.957-.559c-.659-.313-1.307-.629-1.927-1.025l-.878.613c1.118.551 1.933 1.354 1.983 2.728l1.128-.266c-.587-1.774-1.619-3.28-3.405-3.728-.369-.093-1.321.517-.665.683 1.573.395 2.438 1.868 2.946 3.398.131.396 1.143.108 1.129-.267-.058-1.582-.93-2.518-2.239-3.162-.318-.156-1.374.296-.878.613.62.397 1.269.714 1.928 1.026.248.119 1.284-.146.957-.558-1.061-1.338-2.36-1.949-3.969-1.945-.432.002-1.182.71-.409.707zm-.268-.603c-.984.481-1.839 1.129-2.688 1.837-.494.408.083.586.46.496 1.042-.249 2.087-.476 3.048-.974.605-.315.185-.729-.336-.572l-4.323 1.162c-.686.207-.49.804.19.627 1.887-.486 3.709-1.264 5.678-1.361.433-.021 1.172-.76.404-.722-2.184.107-4.178.914-6.272 1.456l.19.627 4.323-1.158-.335-.572c-.864.449-1.819.635-2.756.858l.46.497c.774-.643 1.541-1.248 2.439-1.69.714-.35.026-.761-.482-.511zm1.045 1.011c1.793-.212 3.583-.065 5.383.105.448.043 1.178-.641.406-.714-1.901-.183-3.779-.309-5.67-.085-.563.066-.905.787-.119.694zm1.291-.507c1.372-.028 2.759-.061 4.108.312.305.085 1.305-.438.897-.551-1.501-.414-3.037-.39-4.564-.358-.362.007-1.207.613-.441.597zm-1.969-.466c.934-.323 1.702-.94 2.546-1.447.1-.061.375-.282.114-.354-.252-.068-.578.039-.792.167-.654.391-1.276.961-1.996 1.21-.107.038-.561.185-.499.39.061.2.52.072.627.034zm1.514-.992c.077-.806-.583-1.395-1.172-1.791-.196-.132-.55 0-.734.079-.055.022-.505.245-.319.369.494.332 1.175.875 1.108 1.578-.029.319 1.088.071 1.117-.235zm-1.954-1.098c1.182-.154 2.589.102 2.886 1.563.118.583 1.246.244 1.125-.354-.391-1.925-2.421-2.337-3.962-2.136-.644.085-.821 1.027-.049.927zm1.493.373c.59.403.967.994 1.331 1.617.211.361 1.277-.092 1.125-.353-.386-.661-.785-1.312-1.412-1.739-.215-.147-.536-.054-.745.042-.073.033-.51.289-.299.433zm2.349 1.83c.55-.91 1.297-1.182 2.304-1.065.571.067 1.122-.816.348-.907-1.457-.168-2.821.295-3.626 1.627-.391.645.691.815.974.345zm-.139-.489c1.229-.013 2.416.17 3.61.521.273.078.565.018.8-.141.117-.079.359-.376.084-.455-1.351-.396-2.686-.615-4.076-.6-.411.005-1.189.682-.418.675zm-1.728 1.542c1.104.197 2.225.5 3.179 1.175.33.234 1.356-.285.874-.626-1.008-.716-2.226-1.043-3.393-1.25-.275-.049-.599.041-.794.251-.168.175-.112.407.134.45zm.073.109c.974.38 1.557 1.208 1.867 2.233.084.281 1.209-.072 1.125-.353-.346-1.146-1.012-1.964-2.079-2.381-.229-.09-.595.064-.791.173-.12.066-.356.236-.122.328zm1.141 2.464c.16.45.05.936-.19 1.314-.155.245.159.371.333.374.271.005.581-.114.735-.356.299-.474.446-1.123.246-1.687-.157-.444-1.276-.073-1.124.355zm-3.174-2.568c.323.157.53.35.677.698.187.446 1.297.059 1.125-.354-.198-.471-.492-.761-.928-.977-.252-.124-.591-.029-.804.126-.154.111-.323.381-.07.507zm-.381.031c-.141.891-.542 1.546-1.192 2.104-.203.175.197.175.271.166.262-.034.545-.125.751-.302.681-.585 1.134-1.283 1.282-2.221.036-.236-1.067-.034-1.112.253zm-.044-.339c-1.591.295-3.207 1.036-3.773 2.766-.069.209 1.011.07 1.114-.244.405-1.235 1.289-1.85 2.469-2.069.454-.086.988-.602.19-.453zm-2.467 1.16c-.374.313-.702.637-.988 1.045-.167.237.168.357.329.358.276.002.57-.116.736-.353.186-.266.406-.493.65-.696.137-.114.336-.358.075-.485-.237-.116-.609-.032-.802.131zm3.244-3.116c-.52.011-.982-.022-1.49-.172-.24-.071-.582.07-.789.18-.101.053-.372.231-.129.302.568.168 1.107.201 1.688.188.272-.006.57-.094.795-.25.176-.122.143-.253-.075-.248zm-2.278-.972c-1.334.06-2.528.616-3.696 1.234-.697.368-.026.915.517.627.991-.522 1.966-.995 3.097-1.046.62-.027.86-.85.082-.815zm6.266 2.764c1.13.34 2.37.655 3.267 1.533.323.317 1.38-.174 1.03-.518-1.007-.987-2.373-1.354-3.644-1.738-.401-.12-1.32.52-.653.723zm2.439 6.265c-.245-2.188-3.183-.425-3.988.208-.419.33-.048.687.348.666 1.559-.084 2.999-.544 4.39-1.249l-.524-.652c-1.313.669-2.686 1.177-3.875 2.084-.426.325-.042.688.348.667 1.536-.085 2.987-.523 4.446-.981l-.378-.714c-.767.457-1.522.961-2.357 1.274-.551.206-.592.825.081.809.639-.017 1.257-.064 1.882-.196.25-.053.576-.283.812-.287l.066-.813c-.666.257-1.257.622-1.89.951-.204.104-.498.495-.165.675.816.44 1.602.473 2.496.457.217-.005.933-.197.745-.602-.56-1.2-.755-1.73-2.051-2.105l-.498.823c.734-.015 1.425-.012 2.152.139l.498-.823c-.87-.136-1.206-.447-1.8-1.086l-.938.622c.838.458 1.508 1.1 2.181 1.799l.25-.601-1.482.673c-.38.172-.419.74.079.75.839.021 1.674.15 2.515.16l.366-.847c-2.316.022-4.735-.294-6.712 1.164-.629.463.344.804.77.49 1.577-1.163 3.736-.79 5.576-.808.51-.004 1.148-.839.366-.847-.842-.011-1.676-.141-2.516-.16l.08.751 1.482-.673c.171-.078.452-.391.25-.601-.724-.751-1.449-1.455-2.351-1.949-.303-.165-1.355.175-.938.623.802.859 1.328 1.209 2.457 1.386.419.067 1.147-.689.498-.823-.817-.167-1.589-.206-2.417-.188-.342.007-1.207.619-.498.823 1.027.297 1.126.738 1.557 1.662l.745-.602c-.703.012-1.345.055-2.01-.305l-.164.675c.537-.277 1.033-.611 1.6-.829.364-.14.722-.824.066-.812l-2.987.489.08.81c.939-.353 1.784-.882 2.647-1.396.578-.344.182-.89-.378-.714-1.359.427-2.707.836-4.139.914l.348.666c1.106-.845 2.409-1.3 3.63-1.923.702-.357.029-.934-.524-.652-1.212.613-2.435.986-3.792 1.06l.348.667c.39-.307 1.966-1.484 2.094-.346.057.517 1.186.206 1.123-.353zm-2.679 2.694c-.907.23-1.761.515-2.587.964-.31.169-.493.622.033.598 1.581-.079 3.089-.462 4.637-.749l-.03-.645c-1.056.378-2.117.665-3.214.891-.531.109-.912.821-.122.679 1.188-.213 2.384-.253 3.591-.281l.41-.702c-.492.011-.97-.117-1.46-.167l-.395.679c.957-.199 1.92-.244 2.897-.268l.266-.692c-.979.232-1.878.617-2.823.95-.337.118-.756.672-.114.655 1.086-.028 2.042-.184 3.051-.591l-.476-.49c-.504.273-.959.586-1.407.955-.272.226-.244.532.158.524l2.316-.052.409-.702-.601.014-.409.702.601-.014c.426-.009 1.181-.719.409-.702l-.601.014c-.425.01-1.181.718-.409.702l.601-.014c.426-.009 1.181-.719.409-.702l-2.315.051.158.524c.372-.308.732-.58 1.157-.811.719-.39.019-.691-.476-.49-.74.298-1.391.358-2.166.378l-.114.653c.843-.294 1.646-.67 2.519-.876.341-.08 1.012-.708.266-.69-1.073.025-2.134.071-3.184.292-.214.045-1.029.615-.394.679.575.059 1.139.205 1.716.19.426-.009 1.181-.719.41-.702-1.304.029-2.596.076-3.879.305l-.122.679c1.197-.247 2.365-.548 3.519-.961.491-.176.65-.77-.03-.644-1.45.271-2.868.652-4.35.725l.034.598c.737-.401 1.489-.643 2.294-.849.69-.177.495-.78-.183-.607zm7.087 1.174c.65.187 1.289.211 1.952.198.271-.007.6-.097.729-.375.117-.254-.131-.448-.354-.442-.575.012-1.126.009-1.689-.153-.273-.077-.612.029-.795.251-.167.2-.092.449.157.521zm.988.467l.105-.035.013-.006.05-.016-.022-.021c.057.087-.061.24-.102.303-.144.223.146.258.295.245.23-.016.604-.105.744-.322.104-.159.236-.347.197-.556-.035-.179-.298-.213-.427-.222-.33-.021-.681.063-.99.177-.113.042-.559.188-.494.403.064.209.517.091.631.05zm2.395.617l1.39-.029c.257-.005.585-.225.599-.522.016-.327-.318-.421-.555-.416l-1.389.029c-.259.007-.586.226-.601.524-.014.325.32.419.556.414z" clip-path="url(#c)"/></svg>