<svg xmlns="http://www.w3.org/2000/svg" xmlns:xlink="http://www.w3.org/1999/xlink" width="80" height="80" viewBox="14.167 8.2 80 80" enable-background="new 14.167 8.2 80 80"><symbol id="a" viewBox="-108.525 -91.176 217.05 182.351"><path fill="#fff" d="M107.525-90.176h-215.05v180.351h215.05z"/><path stroke="#fff" stroke-width="2" stroke-miterlimit="10" d="M107.525-90.176h-215.05v180.351h215.05z" fill="none"/></symbol><use xlink:href="#a" width="217.05" height="182.351" x="-108.525" y="-91.176" transform="matrix(.434 0 0 -.515 54.166 48.2)" overflow="visible"/><path fill="#009948" d="M44.927 27.873h36.136v40.96h-36.136zm36.136 0h-.684v40.277h-34.768v-39.593h35.452v-.684h-.684.684v-.685h-36.136c-.181 0-.356.073-.484.201-.127.127-.2.304-.2.484v40.96c0 .181.073.356.2.484.128.128.304.2.484.2h36.136c.181 0 .356-.072.484-.2.127-.128.2-.304.2-.484v-40.96c0-.18-.073-.356-.2-.484-.128-.127-.304-.201-.484-.201v.685z"/><path fill="#fff" d="M76.512 33.417v4.791h-6.912v-4.791h6.912zm-10.095 4.79h-7.974v-4.791h7.974v4.791zm-7.973 16.563v-4.756h7.974v4.756h-7.974zm7.973-8.213h-7.974v-4.791h7.974v4.791zm10.095 3.456v4.757h-6.912v-4.756l6.912-.001zm-6.912-8.247h6.912v4.791h-6.912v-4.791zm0 16.734h6.912v4.757h-6.912v-4.757zm-11.156 0h7.974v4.757h-7.974v-4.757zm18.068-25.083h-.342v4.448h-6.229v-4.106h6.57v-.342h-.341.342v-.342h-6.912c-.091 0-.179.036-.242.1-.064.063-.101.152-.101.242v4.791c0 .09.036.178.101.242.063.063.151.1.242.1h6.912c.09 0 .178-.037.242-.1.063-.064.1-.152.1-.242v-4.791c0-.09-.036-.179-.1-.242-.064-.064-.152-.1-.242-.1v.342zm-10.095 4.79v-.342h-7.631v-4.106h7.288v4.449h.343v-.342.341h.342v-4.791c0-.09-.036-.179-.101-.242-.063-.064-.151-.1-.241-.1h-7.974c-.09 0-.178.036-.242.1-.063.063-.1.152-.1.242v4.791c0 .09.036.178.1.242.064.063.152.1.242.1h7.974c.09 0 .178-.037.241-.1.064-.064.101-.152.101-.242h-.342zm-7.973 16.563h.343v-4.414h7.288v4.071h-7.631v.343h.343-.343v.342h7.974c.09 0 .178-.036.241-.101.064-.063.101-.151.101-.241v-4.756c0-.091-.036-.179-.101-.242-.063-.063-.151-.101-.241-.101h-7.974c-.09 0-.178.037-.242.101-.063.063-.1.151-.1.242v4.756c0 .09.036.178.1.241.064.064.152.101.242.101v-.342zm7.973-8.213v-.342h-7.631v-4.106h7.288v4.449h.343v-.342.341h.342v-4.791c0-.09-.036-.178-.101-.242-.063-.063-.151-.1-.241-.1h-7.974c-.09 0-.178.037-.242.1-.063.064-.1.152-.1.242v4.791c0 .09.036.178.1.242s.152.1.242.1h7.974c.09 0 .178-.036.241-.1.064-.064.101-.152.101-.242h-.342zm10.095 3.456h-.342v4.414h-6.229v-4.071h6.57c.09 0 .178-.036.242-.101.063-.063.1-.151.1-.241v-.001c0-.09-.036-.179-.1-.242s-.152-.1-.242-.1-.179.036-.242.1-.1.152-.1.242h.343-.342v.001l.342-.001v-.342h-6.912c-.091 0-.179.037-.242.101-.064.063-.101.151-.101.242v4.756c0 .09.036.178.101.241.063.064.151.101.242.101h6.912c.09 0 .178-.036.242-.101.063-.063.1-.151.1-.241v-4.757c0-.09-.036-.179-.1-.242s-.152-.1-.242-.1-.179.036-.242.1-.1.152-.1.242h.342zm-6.912-8.247v.342h6.57v4.106h-6.229v-4.449h-.341v.342-.341h-.343v4.791c0 .09.036.178.101.242.063.064.151.1.242.1h6.912c.09 0 .178-.036.242-.1.063-.064.1-.152.1-.242v-4.791c0-.09-.036-.178-.1-.242-.064-.063-.152-.1-.242-.1h-6.912c-.091 0-.179.037-.242.1-.064.064-.101.152-.101.242h.343zm0 16.734v.343h6.57v4.072h-6.229v-4.415h-.341v.343-.343h-.343v4.757c0 .09.036.179.101.242.063.063.151.101.242.101h6.912c.09 0 .178-.037.242-.101.063-.063.1-.152.1-.242v-4.757c0-.09-.036-.178-.1-.241-.064-.064-.152-.101-.242-.101h-6.912c-.091 0-.179.036-.242.101-.064.063-.101.151-.101.241h.343zm-11.156 0v.343h7.631v4.072h-7.288v-4.415h-.343v.343-.343h-.342v4.757c0 .09.036.179.1.242s.152.101.242.101h7.974c.09 0 .178-.037.241-.101.064-.063.101-.152.101-.242v-4.757c0-.09-.036-.178-.101-.241-.063-.064-.151-.101-.241-.101h-7.974c-.09 0-.178.036-.242.101-.063.063-.1.151-.1.241h.342z"/><path fill="#009948" d="M27.269 24.793l32.167-4.14v55.094l-32.167-4.141z"/><path fill="#fff" d="M27.269 24.793l.088.679 31.396-4.041v53.538l-30.799-3.965v-46.21h-.685l.088.679-.088-.68h-.684v46.813c0 .345.255.635.597.679l32.167 4.141c.194.025.393-.035.539-.165.147-.129.232-.318.232-.514v-55.094c0-.196-.085-.385-.232-.514-.146-.129-.345-.19-.539-.165l-32.167 4.141c-.342.044-.597.334-.597.679h.684zm18.719 13.893l4.312-.41-6.399 9.65 6.947 9.856-4.449-.377-4.448-6.536-3.765 5.782-3.456-.342 5.305-8.315-5.476-8.007-.103-.24 3.456-.308 3.97 5.646 4.106-6.399z"/></svg>