<svg xmlns="http://www.w3.org/2000/svg" xmlns:xlink="http://www.w3.org/1999/xlink" width="80" height="80" viewBox="6.591 8.2 80 80" enable-background="new 6.591 8.2 80 80"><symbol id="a" viewBox="-108.525 -91.176 217.05 182.351"><path fill="#fff" d="M107.525-90.176h-215.05v180.351h215.05z"/><path stroke="#fff" stroke-width="2" stroke-miterlimit="10" d="M107.525-90.176h-215.05v180.351h215.05z" fill="none"/></symbol><symbol id="b" viewBox="-37.5 -40 75 80"><path fill="#fff" d="M35.75-39h-71.5v78h71.5z"/><path stroke="#fff" stroke-linecap="round" stroke-linejoin="round" stroke-miterlimit="3" d="M35.75-39h-71.5v78h71.5z" fill="none"/><path fill="#1E2B33" d="M24 26.5h3.55v-5.5h-3.55 3.55v5.5h-3.55v13h13v-79h-13v13.5h5.55v5.5h-5.55v41.5h-51.45v5.5h3.45-3.45v-5.5h3.45v-41.5h-8.95v-5.5h8.95v-13.5h-13v79h13v-13h48zm0-47h5.55v-5.5h-62.5v5.5h56.95z"/><path stroke="#1E2B33" stroke-linecap="round" stroke-linejoin="round" stroke-miterlimit="3" d="M24 26.5h3.55v-5.5h-3.55v-41.5h5.55v-5.5h-5.55v-13.5h13v79h-13v-13zm-48-5.5h-3.45v5.5h3.45v13h-13v-79h13v13.5h-8.95v5.5h8.95v41.5zm0-41.5h48m0-5.5h-48m0 52.5h48m0-5.5h-48" fill="none"/><path stroke="#fff" stroke-width="3" stroke-linecap="round" stroke-linejoin="round" stroke-miterlimit="3" d="M29.3 31.75h2.75m-2.75-11.75h2.75m-2.75-12.25h2.75m-2.75-13.5h2.75m-63.75 0h2.75m-2.75 13.5h2.75m-2.75 12.25h2.75m-2.75 11.75h2.75m-2.75-63.75h2.75m-2.75 12.5h2.75m58.25 0h2.75m-2.75-12.5h2.75" fill="none"/><path fill="#444A98" d="M9.9-.15l-.05-1-17.75-10.6-.25 22.85z"/><path stroke="#444A98" stroke-linecap="round" stroke-linejoin="round" stroke-miterlimit="3" d="M9.9-.15l-18.05 11.25.25-22.85 17.75 10.6z" fill="none"/></symbol><use xlink:href="#a" width="217.05" height="182.351" x="-108.525" y="-91.176" transform="matrix(.433 0 0 -.514 46.591 48.2)" overflow="visible"/><use xlink:href="#b" width="75" height="80" x="-37.5" y="-40" transform="matrix(.706 0 0 -.654 46.591 48.2)" overflow="visible"/><path d="M0 66.475h89.3v46.406h-89.3z" fill="none"/></svg>