<svg xmlns="http://www.w3.org/2000/svg" xmlns:xlink="http://www.w3.org/1999/xlink" width="80" height="80" viewBox="11.5 8.2 80 80" enable-background="new 11.5 8.2 80 80"><symbol id="a" viewBox="-108.525 -91.176 217.05 182.351"><path fill="#fff" d="M107.525-90.176h-215.05v180.351h215.05z"/><path stroke="#fff" stroke-width="2" stroke-miterlimit="10" d="M107.525-90.176h-215.05v180.351h215.05z" fill="none"/></symbol><symbol id="b" viewBox="-36.55 -36.85 73.1 73.7"><path fill="#378EC9" d="M35.55 35.851v-71.701h-71.1v71.701z"/><path stroke="#378EC9" stroke-width="2" stroke-linecap="round" stroke-linejoin="round" stroke-miterlimit="3" d="M35.55 35.851v-71.701h-71.1v71.701z" fill="none"/><path fill="#fff" d="M-20-.55c-.4 0-.733.149-1 .45-.3.267-.45.6-.45 1 0 .399.15.75.45 1.05.267.268.6.399 1 .399h22.85c.4 0 .75-.133 1.05-.399.267-.3.4-.649.4-1.05s-.133-.733-.4-1c-.3-.3-.65-.45-1.05-.45h-22.85zm24.3 8.7c0-.4-.133-.733-.4-1-.3-.268-.65-.4-1.05-.4h-22.85c-.4 0-.733.134-1 .4-.3.267-.45.6-.45 1 0 .399.15.75.45 1.05.267.268.6.399 1 .399h22.85c.4.001.75-.132 1.05-.399.267-.3.4-.649.4-1.05zm-.4 8.3c.267-.268.4-.601.4-1s-.133-.75-.4-1.05c-.3-.267-.65-.4-1.05-.4h-22.85c-.4 0-.733.134-1 .4-.3.267-.45.616-.45 1.05 0 .399.15.732.45 1 .267.268.6.399 1 .399h22.85c.4.002.751-.131 1.05-.399zm14.1-26.95h.8c.3 0 .567-.083.8-.25.267-.167.433-.399.5-.699l4.2-12.801c.2-.732.4-1.399.6-2 .167-.532.383-1.316.65-2.35l1.15 4.35c.267 1 .434 1.617.5 1.851l3.65 14.101c.066.3.233.534.5.7.233.199.5.3.8.3h.1c.433 0 .8-.184 1.1-.55.267-.333.35-.733.25-1.2l-6.2-22.601c-.067-.3-.233-.55-.5-.75-.233-.199-.5-.3-.8-.3h-2.8c-.3 0-.566.083-.8.25-.233.199-.4.435-.5.699l-4.05 12.351c-.1.333-.183.634-.25.899l-.25.7-.2.7c-.033-.233-.083-.468-.15-.7l-4.35-13.95c-.1-.267-.267-.5-.5-.699-.233-.167-.5-.25-.8-.25h-2.8c-.3 0-.583.101-.85.3-.233.167-.4.399-.5.7l-6.3 22.649c-.1.435-.017.833.25 1.2s.633.55 1.1.55h2.3c.3 0 .583-.083.85-.25.233-.2.4-.45.5-.75l3.8-14.1c.2-.833.35-1.5.45-2l1-4.199 5.4 17.149c.1.3.267.532.5.699.267.168.55.251.85.251zm10.2 41.75c.267-.3.4-.633.4-1v-30.1c0-.533-.184-.983-.55-1.351-.4-.366-.85-.55-1.35-.55h-.05c-.5 0-.95.184-1.35.551-.367.366-.55.816-.55 1.351v19.699c0 .367-.133.684-.4.95-.267.268-.583.399-.95.399h-47.9c-.367 0-.684-.133-.95-.399-.266-.268-.4-.583-.4-.95v-43.899c0-.367.133-.684.4-.95.267-.267.583-.399.95-.399h23.1c.533 0 .983-.199 1.35-.601.367-.366.55-.8.55-1.3 0-.533-.184-.982-.55-1.351-.366-.366-.816-.55-1.35-.55h-29.5c-.367 0-.684.133-.95.399-.267.268-.4.583-.4.95v58.1c0 .367.133.7.4 1 .267.268.583.4.95.4h58.1c.367.001.7-.131 1-.399z"/></symbol><use xlink:href="#a" width="217.05" height="182.351" x="-108.525" y="-91.176" transform="matrix(.433 0 0 -.514 51.5 48.2)" overflow="visible"/><use xlink:href="#b" width="73.1" height="73.7" x="-36.55" y="-36.85" transform="matrix(.76 0 0 -.738 51.5 48.2)" overflow="visible"/><path d="M-2 65.925h108.25v29.458h-108.25z" fill="none"/></svg>