<svg xmlns="http://www.w3.org/2000/svg" xmlns:xlink="http://www.w3.org/1999/xlink" width="183" height="183" viewBox="0 0 183 183"><symbol id="a" viewBox="-8.85 -55.528 56.8 66.428"><g clip-rule="evenodd"><path fill-rule="evenodd" fill="#DE4653" d="M46.95.5c-4.633-44.067-17.65-61.667-39.05-52.8 6.8 1.667 10.15 6.767 10.05 15.3-8.467-6.9-17.067-7.383-25.8-1.45 11.233-.067 17.783 16.05 19.65 48.35l35.15-9.4z"/><path stroke="#DE4653" stroke-width="2" stroke-linecap="round" stroke-linejoin="round" stroke-miterlimit="3" d="M46.95.5c-4.633-44.067-17.65-61.667-39.05-52.8 6.8 1.667 10.15 6.767 10.05 15.3-8.467-6.9-17.067-7.383-25.8-1.45 11.233-.067 17.783 16.05 19.65 48.35l35.15-9.4z" fill="none"/></g><path clip-rule="evenodd" stroke="#fff" stroke-width="5" stroke-linecap="round" stroke-linejoin="round" stroke-miterlimit="3" d="M15.35-12.55l21.75-5.9m-24.25-3.35l21.8-6m-18 24.6l21.75-5.95" fill="none"/></symbol><use xlink:href="#a" width="56.8" height="66.428" x="-8.85" y="-55.528" transform="matrix(.966 -.259 -.259 -.966 7.2 14)" overflow="visible"/></svg>