<?xml version="1.0" encoding="utf-8"?>
<!-- Generator: Adobe Illustrator 15.1.0, SVG Export Plug-In . SVG Version: 6.00 Build 0)  -->
<!DOCTYPE svg PUBLIC "-//W3C//DTD SVG 1.1//EN" "http://www.w3.org/Graphics/SVG/1.1/DTD/svg11.dtd">
<svg version="1.1" id="Layer_1" xmlns="http://www.w3.org/2000/svg" xmlns:xlink="http://www.w3.org/1999/xlink" x="0px" y="0px"
	 width="609.333px" height="330.667px" viewBox="11.817 1.073 609.333 330.667"
	 enable-background="new 11.817 1.073 609.333 330.667" xml:space="preserve">
<line fill="none" stroke="#BBBDBF" stroke-width="2" stroke-miterlimit="10" x1="244.874" y1="52.344" x2="358.804" y2="166.274"/>
<line fill="none" stroke="#BBBDBF" stroke-width="2" stroke-miterlimit="10" x1="358.804" y1="164.344" x2="244.874" y2="278.273"/>
<line fill="none" stroke="#BBBDBF" stroke-width="2" stroke-miterlimit="10" x1="25.804" y1="93.274" x2="98.804" y2="166.274"/>
<line fill="none" stroke="#BBBDBF" stroke-width="2" stroke-miterlimit="10" x1="98.804" y1="164.344" x2="25.089" y2="238.059"/>
<line fill="none" stroke="#BBBDBF" stroke-width="2" stroke-miterlimit="10" x1="269.554" y1="76.524" x2="380.554" y2="76.524"/>
<line fill="none" stroke="#BBBDBF" stroke-width="2" stroke-miterlimit="10" x1="221.721" y1="127.43" x2="269.419" y2="75.811"/>
<line fill="none" stroke="#BBBDBF" stroke-width="2" stroke-miterlimit="10" x1="308.554" y1="117.524" x2="349.554" y2="117.524"/>
<line fill="none" stroke="#BBBDBF" stroke-width="2" stroke-miterlimit="10" x1="282.118" y1="145.273" x2="308.419" y2="116.811"/>
<line fill="none" stroke="#BBBDBF" stroke-width="2" stroke-miterlimit="10" x1="219.76" y1="204.771" x2="271.379" y2="252.469"/>
<line fill="none" stroke="#BBBDBF" stroke-width="2" stroke-miterlimit="10" x1="269.554" y1="252.523" x2="380.554" y2="252.523"/>
<line fill="none" stroke="#BBBDBF" stroke-width="2" stroke-miterlimit="10" x1="278.443" y1="185.808" x2="308.379" y2="213.469"/>
<line fill="none" stroke="#BBBDBF" stroke-width="2" stroke-miterlimit="10" x1="306.554" y1="213.524" x2="352.554" y2="213.524"/>
<line fill="none" stroke="#BBBDBF" stroke-width="2" stroke-miterlimit="10" x1="13.554" y1="165.524" x2="542.554" y2="165.524"/>
<rect x="520.054" y="137.026" fill="#EC1C24" width="100" height="56"/>
<rect x="522.975" y="149.498" fill="none" width="93.28" height="59.691"/>
<g enable-background="new    ">
	<path fill="#FFFFFF" d="M537.806,159.541c0.415,0.172,0.873,0.311,1.374,0.416c0.5,0.104,1.094,0.157,1.78,0.157
		c0.847,0,1.481-0.183,1.905-0.548s0.635-0.883,0.635-1.553c0-0.276-0.06-0.523-0.178-0.742c-0.119-0.219-0.291-0.404-0.516-0.557
		s-0.496-0.269-0.817-0.349s-0.681-0.12-1.079-0.12h-2.274v-1.221h2.241c0.338,0,0.645-0.037,0.922-0.111
		c0.276-0.075,0.514-0.188,0.713-0.336c0.199-0.15,0.354-0.338,0.465-0.564c0.111-0.228,0.166-0.496,0.166-0.806
		c0-0.222-0.034-0.438-0.104-0.647c-0.068-0.21-0.189-0.396-0.361-0.557c-0.171-0.16-0.398-0.289-0.68-0.386
		c-0.283-0.097-0.64-0.146-1.071-0.146c-0.46,0-0.927,0.036-1.403,0.108c-0.476,0.072-0.954,0.186-1.436,0.341v-1.287
		c0.41-0.122,0.852-0.217,1.324-0.286s1.025-0.104,1.656-0.104c1.217,0,2.125,0.244,2.723,0.73c0.598,0.487,0.896,1.168,0.896,2.043
		c0,0.586-0.142,1.093-0.424,1.519s-0.736,0.741-1.361,0.946c0.293,0.056,0.571,0.148,0.834,0.278c0.264,0.13,0.494,0.3,0.693,0.511
		c0.199,0.21,0.357,0.457,0.473,0.742c0.117,0.285,0.175,0.607,0.175,0.967c0,0.521-0.101,0.988-0.304,1.403
		c-0.201,0.415-0.488,0.77-0.863,1.063c-0.373,0.293-0.824,0.519-1.352,0.677c-0.529,0.157-1.117,0.236-1.765,0.236
		c-1.118,0-2.114-0.152-2.988-0.457V159.541z"/>
	<path fill="#FFFFFF" d="M552.93,161.227l-0.033-1.121c-0.453,0.449-0.914,0.772-1.383,0.972c-0.467,0.199-0.958,0.299-1.473,0.299
		c-0.477,0-0.883-0.061-1.221-0.183c-0.337-0.122-0.615-0.289-0.834-0.502s-0.379-0.464-0.48-0.752
		c-0.104-0.287-0.154-0.6-0.154-0.938c0-0.836,0.311-1.49,0.934-1.963c0.623-0.474,1.543-0.71,2.76-0.71h1.727v-0.73
		c0-0.492-0.157-0.887-0.473-1.183s-0.797-0.444-1.444-0.444c-0.47,0-0.935,0.053-1.39,0.157c-0.457,0.105-0.93,0.255-1.416,0.449
		v-1.304c0.183-0.066,0.387-0.132,0.609-0.195c0.225-0.063,0.461-0.12,0.711-0.17c0.248-0.05,0.509-0.09,0.779-0.12
		c0.271-0.03,0.545-0.046,0.822-0.046c0.504,0,0.957,0.056,1.361,0.166s0.746,0.279,1.025,0.507
		c0.279,0.227,0.494,0.512,0.643,0.854c0.15,0.343,0.225,0.747,0.225,1.212v5.744H552.93z M552.772,157.434h-1.834
		c-0.359,0-0.67,0.035-0.93,0.107s-0.473,0.174-0.639,0.307s-0.289,0.292-0.369,0.478c-0.081,0.186-0.121,0.395-0.121,0.627
		c0,0.16,0.025,0.314,0.074,0.461c0.051,0.146,0.131,0.276,0.241,0.39s0.255,0.203,0.432,0.27s0.394,0.1,0.647,0.1
		c0.332,0,0.713-0.101,1.141-0.303c0.43-0.202,0.882-0.521,1.357-0.959V157.434z"/>
	<path fill="#FFFFFF" d="M564.16,154.138h-3.162v7.089h-1.461v-7.089h-3.162v-1.245h7.785V154.138z"/>
	<path fill="#FFFFFF" d="M573.391,156.91c0,0.741-0.104,1.389-0.311,1.942s-0.494,1.013-0.859,1.378s-0.797,0.639-1.295,0.822
		c-0.498,0.182-1.037,0.273-1.619,0.273c-0.266,0-0.529-0.014-0.793-0.041c-0.262-0.028-0.529-0.075-0.801-0.142v3.486h-1.443
		v-11.737h1.286l0.091,1.395c0.416-0.57,0.858-0.97,1.328-1.199c0.471-0.229,0.98-0.345,1.527-0.345c0.477,0,0.895,0.1,1.254,0.299
		s0.661,0.48,0.904,0.843c0.244,0.362,0.427,0.8,0.549,1.312C573.33,155.708,573.391,156.28,573.391,156.91z M571.914,156.977
		c0-0.438-0.032-0.838-0.096-1.203c-0.064-0.365-0.165-0.679-0.303-0.938c-0.139-0.26-0.316-0.464-0.531-0.61
		c-0.217-0.146-0.474-0.22-0.772-0.22c-0.183,0-0.368,0.029-0.556,0.087c-0.188,0.059-0.384,0.155-0.586,0.291
		c-0.201,0.136-0.414,0.315-0.639,0.539c-0.225,0.225-0.464,0.502-0.719,0.834v4.043c0.266,0.11,0.545,0.198,0.839,0.262
		s0.581,0.096,0.863,0.096c0.78,0,1.392-0.265,1.835-0.793C571.693,158.835,571.914,158.039,571.914,156.977z"/>
	<path fill="#FFFFFF" d="M580.97,161.227l-0.033-1.121c-0.454,0.449-0.915,0.772-1.382,0.972c-0.468,0.199-0.959,0.299-1.474,0.299
		c-0.476,0-0.883-0.061-1.22-0.183c-0.338-0.122-0.616-0.289-0.834-0.502c-0.219-0.213-0.38-0.464-0.482-0.752
		c-0.102-0.287-0.153-0.6-0.153-0.938c0-0.836,0.312-1.49,0.935-1.963c0.621-0.474,1.542-0.71,2.76-0.71h1.727v-0.73
		c0-0.492-0.158-0.887-0.474-1.183s-0.797-0.444-1.444-0.444c-0.471,0-0.934,0.053-1.391,0.157
		c-0.457,0.105-0.928,0.255-1.415,0.449v-1.304c0.183-0.066,0.386-0.132,0.61-0.195s0.461-0.12,0.709-0.17
		c0.25-0.05,0.51-0.09,0.781-0.12c0.271-0.03,0.545-0.046,0.821-0.046c0.503,0,0.958,0.056,1.361,0.166s0.745,0.279,1.024,0.507
		c0.28,0.227,0.494,0.512,0.645,0.854c0.148,0.343,0.224,0.747,0.224,1.212v5.744H580.97z M580.813,157.434h-1.835
		c-0.36,0-0.669,0.035-0.93,0.107s-0.474,0.174-0.64,0.307s-0.289,0.292-0.369,0.478s-0.12,0.395-0.12,0.627
		c0,0.16,0.024,0.314,0.075,0.461c0.049,0.146,0.129,0.276,0.24,0.39s0.254,0.203,0.432,0.27s0.393,0.1,0.647,0.1
		c0.332,0,0.712-0.101,1.142-0.303c0.429-0.202,0.881-0.521,1.357-0.959V157.434z"/>
	<path fill="#FFFFFF" d="M592.201,154.138h-3.163v7.089h-1.461v-7.089h-3.163v-1.245h7.787V154.138z"/>
	<path fill="#FFFFFF" d="M595.09,156.114c0.199-0.006,0.385-0.01,0.561-0.013c0.174-0.003,0.355-0.004,0.543-0.004
		c0.52,0,0.975,0.063,1.365,0.187c0.391,0.125,0.715,0.299,0.976,0.523c0.261,0.224,0.454,0.492,0.581,0.805
		s0.191,0.652,0.191,1.018c0,0.442-0.075,0.831-0.225,1.166s-0.362,0.615-0.639,0.842c-0.277,0.228-0.616,0.398-1.018,0.516
		c-0.4,0.115-0.879,0.174-1.432,0.174c-0.354,0-0.729-0.01-1.125-0.029c-0.396-0.02-0.798-0.06-1.207-0.12v-8.284h1.428V156.114z
		 M597.813,158.67c0-0.438-0.137-0.776-0.412-1.017c-0.273-0.241-0.709-0.361-1.307-0.361c-0.16,0-0.324,0.003-0.49,0.009
		c-0.166,0.005-0.337,0.014-0.514,0.024v2.739c0.177,0.027,0.346,0.046,0.506,0.054c0.16,0.009,0.32,0.013,0.481,0.013
		c0.337,0,0.617-0.04,0.839-0.12c0.221-0.08,0.396-0.187,0.527-0.319c0.129-0.133,0.223-0.288,0.281-0.465
		C597.783,159.049,597.813,158.864,597.813,158.67z M600.219,161.227v-8.334h1.428v8.334H600.219z"/>
</g>
<g enable-background="new    ">
	<path fill="#FFFFFF" d="M552.565,185.114c-2.551-2.363-3.826-4.975-3.826-7.836c0-0.67,0.068-1.338,0.203-2.005
		c0.136-0.667,0.354-1.335,0.656-2.005c0.301-0.669,0.699-1.339,1.195-2.008c0.495-0.67,1.097-1.334,1.805-1.992l0.839,0.854
		c-2.147,2.119-3.221,4.469-3.221,7.048c0,1.283,0.271,2.518,0.813,3.701c0.543,1.185,1.345,2.303,2.407,3.354L552.565,185.114z"/>
	<path fill="#FFFFFF" d="M560.509,169.217h1.204l-0.217,1.619c0.288,0.027,0.577,0.063,0.868,0.107
		c0.29,0.045,0.56,0.098,0.81,0.158v1.278c-0.305-0.077-0.611-0.144-0.922-0.199s-0.614-0.097-0.913-0.124l-0.474,3.553
		c0.371,0.144,0.739,0.3,1.104,0.469s0.693,0.368,0.983,0.598c0.291,0.229,0.525,0.502,0.706,0.817
		c0.18,0.315,0.27,0.691,0.27,1.129c0,0.465-0.095,0.877-0.282,1.237c-0.188,0.359-0.451,0.664-0.789,0.912
		c-0.337,0.25-0.744,0.444-1.22,0.586c-0.476,0.141-0.999,0.226-1.569,0.253l-0.273,1.976h-1.212l0.274-1.976
		c-0.449-0.033-0.876-0.082-1.283-0.146c-0.406-0.063-0.76-0.134-1.059-0.211v-1.379c0.35,0.122,0.729,0.222,1.142,0.299
		c0.413,0.078,0.87,0.131,1.374,0.158l0.49-3.735c-0.36-0.139-0.715-0.288-1.063-0.448c-0.35-0.16-0.66-0.353-0.935-0.577
		c-0.273-0.224-0.497-0.488-0.668-0.792c-0.171-0.305-0.257-0.667-0.257-1.088c0-0.343,0.071-0.682,0.215-1.017
		c0.145-0.335,0.369-0.637,0.673-0.905s0.688-0.489,1.153-0.664c0.465-0.174,1.019-0.277,1.66-0.311L560.509,169.217z
		 M560.135,172.039c-0.691,0.062-1.196,0.224-1.515,0.486c-0.317,0.263-0.478,0.599-0.478,1.008c0,0.383,0.132,0.696,0.395,0.942
		c0.264,0.246,0.654,0.472,1.175,0.677L560.135,172.039z M560.235,180.332c0.748-0.056,1.291-0.222,1.632-0.498
		c0.34-0.276,0.511-0.653,0.511-1.129c0-0.199-0.037-0.378-0.108-0.535c-0.071-0.158-0.18-0.301-0.323-0.428
		c-0.145-0.127-0.322-0.246-0.536-0.357c-0.213-0.11-0.464-0.221-0.751-0.332L560.235,180.332z"/>
	<path fill="#FFFFFF" d="M572.969,169.899l-5.695,13.514h-1.377l5.693-13.514H572.969z"/>
	<path fill="#FFFFFF" d="M582.855,174.538h-3.163v7.089h-1.461v-7.089h-3.162v-1.245h7.786V174.538z"/>
	<path fill="#FFFFFF" d="M586.664,169.268c2.552,2.362,3.827,4.991,3.827,7.885c0,0.598-0.062,1.218-0.183,1.859
		c-0.121,0.643-0.329,1.3-0.623,1.972c-0.293,0.673-0.688,1.354-1.183,2.046c-0.495,0.692-1.119,1.387-1.872,2.084l-0.838-0.855
		c1.079-1.067,1.885-2.183,2.416-3.345s0.797-2.38,0.797-3.652c0-2.634-1.071-5.003-3.213-7.105L586.664,169.268z"/>
</g>
<rect x="194.054" y="3.026" fill="#FFE600" width="116" height="56"/>
<rect x="197.975" y="15.498" fill="none" width="108.28" height="59.691"/>
<g enable-background="new    ">
	<path d="M209.083,27.227h-1.478V17.69h-4.449v9.537h-1.478v-10.85h7.404V27.227z"/>
	<path d="M218.637,22.993c0,0.647-0.091,1.241-0.274,1.78c-0.183,0.54-0.445,1.002-0.789,1.387s-0.761,0.684-1.253,0.896
		s-1.051,0.319-1.677,0.319c-0.598,0-1.133-0.093-1.606-0.278c-0.474-0.186-0.875-0.458-1.204-0.817
		c-0.329-0.359-0.581-0.806-0.755-1.337c-0.175-0.531-0.262-1.143-0.262-1.834c0-0.647,0.091-1.238,0.274-1.772
		s0.445-0.993,0.789-1.378s0.761-0.684,1.253-0.896s1.051-0.319,1.677-0.319c0.598,0,1.133,0.093,1.606,0.278
		c0.474,0.186,0.875,0.456,1.204,0.813c0.329,0.356,0.581,0.801,0.755,1.332C218.551,21.698,218.637,22.307,218.637,22.993z
		 M217.16,23.06c0-0.515-0.057-0.964-0.17-1.349c-0.114-0.385-0.275-0.706-0.486-0.963c-0.21-0.258-0.466-0.451-0.768-0.581
		c-0.301-0.13-0.638-0.195-1.008-0.195c-0.432,0-0.801,0.084-1.108,0.253c-0.308,0.169-0.559,0.395-0.756,0.677
		c-0.196,0.282-0.34,0.61-0.432,0.983c-0.091,0.374-0.137,0.766-0.137,1.175c0,0.515,0.057,0.966,0.17,1.353
		c0.114,0.388,0.275,0.71,0.486,0.968c0.21,0.257,0.465,0.451,0.764,0.581s0.636,0.195,1.013,0.195c0.432,0,0.801-0.085,1.108-0.254
		c0.308-0.169,0.559-0.395,0.756-0.676c0.196-0.283,0.34-0.61,0.432-0.984C217.114,23.869,217.16,23.475,217.16,23.06z"/>
	<path d="M227.968,20.138h-3.163v7.089h-1.461v-7.089h-3.163v-1.245h7.786V20.138z"/>
	<path d="M237.198,22.91c0,0.741-0.104,1.389-0.312,1.942c-0.207,0.554-0.494,1.013-0.859,1.378s-0.797,0.639-1.295,0.822
		c-0.498,0.182-1.038,0.273-1.619,0.273c-0.266,0-0.53-0.014-0.793-0.041c-0.263-0.028-0.53-0.075-0.801-0.142v3.486h-1.444V18.893
		h1.287l0.091,1.395c0.415-0.57,0.858-0.97,1.328-1.199s0.979-0.345,1.527-0.345c0.476,0,0.894,0.1,1.253,0.299
		s0.661,0.48,0.905,0.843s0.426,0.8,0.548,1.312S237.198,22.28,237.198,22.91z M235.72,22.977c0-0.438-0.032-0.838-0.096-1.203
		c-0.063-0.365-0.165-0.679-0.303-0.938s-0.315-0.464-0.531-0.61s-0.473-0.22-0.772-0.22c-0.183,0-0.368,0.029-0.556,0.087
		c-0.188,0.059-0.383,0.155-0.585,0.291c-0.202,0.136-0.415,0.315-0.64,0.539c-0.224,0.225-0.463,0.502-0.718,0.834v4.043
		c0.266,0.11,0.545,0.198,0.838,0.262s0.581,0.096,0.863,0.096c0.78,0,1.392-0.265,1.834-0.793S235.72,24.039,235.72,22.977z"/>
	<path d="M246.462,22.619c0,0.205-0.003,0.377-0.008,0.516c-0.005,0.138-0.014,0.268-0.025,0.39h-5.852
		c0,0.853,0.238,1.507,0.714,1.963c0.476,0.457,1.162,0.685,2.059,0.685c0.244,0,0.487-0.009,0.73-0.028s0.479-0.046,0.706-0.079
		s0.444-0.07,0.651-0.112c0.208-0.041,0.4-0.087,0.577-0.137v1.187c-0.393,0.111-0.837,0.201-1.332,0.271
		c-0.496,0.069-1.009,0.104-1.54,0.104c-0.714,0-1.328-0.097-1.843-0.29c-0.515-0.194-0.937-0.475-1.266-0.843
		c-0.33-0.368-0.573-0.819-0.73-1.354c-0.158-0.534-0.237-1.139-0.237-1.813c0-0.587,0.084-1.142,0.253-1.664
		c0.168-0.523,0.415-0.982,0.738-1.378c0.324-0.396,0.721-0.71,1.191-0.942s1.004-0.349,1.602-0.349
		c0.581,0,1.096,0.091,1.544,0.274c0.448,0.182,0.826,0.44,1.133,0.775c0.307,0.335,0.539,0.742,0.697,1.221
		C246.383,21.492,246.462,22.028,246.462,22.619z M244.959,22.412c0.017-0.371-0.02-0.71-0.108-1.017
		c-0.088-0.308-0.226-0.571-0.411-0.793c-0.185-0.222-0.416-0.395-0.693-0.519c-0.277-0.125-0.598-0.188-0.963-0.188
		c-0.315,0-0.603,0.062-0.863,0.184c-0.26,0.121-0.484,0.293-0.672,0.514c-0.188,0.222-0.34,0.487-0.457,0.797
		c-0.116,0.311-0.188,0.65-0.216,1.021H244.959z"/>
	<path d="M249.857,20.778c0.387-0.543,0.819-0.948,1.295-1.217s1.013-0.402,1.61-0.402c0.476,0,0.915,0.087,1.316,0.262
		c0.401,0.174,0.747,0.433,1.037,0.775c0.291,0.344,0.518,0.766,0.681,1.267c0.164,0.501,0.245,1.075,0.245,1.722
		c0,0.609-0.096,1.171-0.286,1.686c-0.191,0.515-0.459,0.957-0.806,1.328c-0.346,0.371-0.758,0.66-1.236,0.867
		c-0.479,0.208-1.006,0.312-1.582,0.312c-0.603,0-1.133-0.104-1.589-0.312c-0.457-0.207-0.837-0.525-1.142-0.954
		s-0.534-0.972-0.689-1.627c-0.155-0.656-0.232-1.435-0.232-2.337c0-1.106,0.094-2.048,0.282-2.822s0.462-1.418,0.822-1.93
		s0.804-0.91,1.332-1.195c0.529-0.285,1.133-0.491,1.814-0.619c0.199-0.038,0.408-0.07,0.626-0.095
		c0.219-0.025,0.436-0.05,0.652-0.075c0.216-0.024,0.423-0.048,0.623-0.07s0.376-0.05,0.531-0.083v1.328
		c-0.111,0.027-0.236,0.05-0.378,0.066c-0.141,0.017-0.29,0.033-0.448,0.05c-0.157,0.017-0.321,0.033-0.489,0.05
		c-0.169,0.017-0.331,0.036-0.486,0.058c-0.647,0.084-1.179,0.219-1.594,0.407s-0.75,0.444-1.004,0.768
		c-0.254,0.324-0.448,0.717-0.581,1.179S249.94,20.162,249.857,20.778z M254.563,23.235c0-0.482-0.054-0.901-0.162-1.258
		c-0.107-0.357-0.251-0.654-0.432-0.893c-0.18-0.238-0.386-0.415-0.618-0.531s-0.476-0.174-0.73-0.174
		c-0.26,0-0.5,0.037-0.718,0.111c-0.219,0.075-0.433,0.186-0.644,0.332s-0.42,0.334-0.631,0.561s-0.435,0.504-0.672,0.83v0.158
		c0,0.752,0.058,1.37,0.174,1.854s0.274,0.868,0.473,1.149c0.199,0.283,0.436,0.48,0.709,0.594c0.274,0.113,0.574,0.17,0.901,0.17
		c0.387,0,0.728-0.081,1.021-0.244s0.538-0.379,0.734-0.647c0.197-0.269,0.345-0.577,0.444-0.926S254.563,23.611,254.563,23.235z"/>
	<path d="M264.74,27.227h-1.444v-7.089h-2.324c-0.066,1.14-0.165,2.116-0.295,2.931c-0.13,0.813-0.286,1.492-0.469,2.037
		s-0.39,0.975-0.623,1.287s-0.483,0.539-0.751,0.681c-0.268,0.141-0.552,0.21-0.851,0.207s-0.606-0.043-0.921-0.12l0.066-1.195
		c0.221,0.022,0.429,0.011,0.623-0.033s0.374-0.15,0.54-0.319s0.317-0.412,0.453-0.73c0.135-0.318,0.258-0.743,0.369-1.274
		s0.206-1.183,0.286-1.955c0.081-0.771,0.146-1.691,0.195-2.76h5.146V27.227z"/>
	<path d="M274.502,22.619c0,0.205-0.003,0.377-0.008,0.516c-0.005,0.138-0.014,0.268-0.025,0.39h-5.852
		c0,0.853,0.238,1.507,0.714,1.963c0.476,0.457,1.162,0.685,2.059,0.685c0.244,0,0.487-0.009,0.73-0.028s0.479-0.046,0.706-0.079
		s0.444-0.07,0.651-0.112c0.208-0.041,0.4-0.087,0.577-0.137v1.187c-0.393,0.111-0.837,0.201-1.332,0.271
		c-0.496,0.069-1.009,0.104-1.54,0.104c-0.714,0-1.328-0.097-1.843-0.29c-0.515-0.194-0.937-0.475-1.266-0.843
		c-0.33-0.368-0.573-0.819-0.73-1.354c-0.158-0.534-0.237-1.139-0.237-1.813c0-0.587,0.084-1.142,0.253-1.664
		c0.168-0.523,0.415-0.982,0.738-1.378c0.324-0.396,0.721-0.71,1.191-0.942s1.004-0.349,1.602-0.349
		c0.581,0,1.096,0.091,1.544,0.274c0.448,0.182,0.826,0.44,1.133,0.775c0.307,0.335,0.539,0.742,0.697,1.221
		C274.423,21.492,274.502,22.028,274.502,22.619z M272.999,22.412c0.017-0.371-0.02-0.71-0.108-1.017
		c-0.088-0.308-0.226-0.571-0.411-0.793c-0.185-0.222-0.416-0.395-0.693-0.519c-0.277-0.125-0.598-0.188-0.963-0.188
		c-0.315,0-0.603,0.062-0.863,0.184c-0.26,0.121-0.484,0.293-0.672,0.514c-0.188,0.222-0.34,0.487-0.457,0.797
		c-0.116,0.311-0.188,0.65-0.216,1.021H272.999z"/>
	<path d="M283.508,27.227h-1.444v-3.686h-3.81v3.686h-1.444v-8.334h1.444v3.387h3.81v-3.387h1.444V27.227z"/>
	<path d="M287.717,18.893v5.869l3.636-5.869h1.378v8.334h-1.444v-5.869l-3.636,5.869h-1.378v-8.334H287.717z"/>
	<path d="M302.542,22.619c0,0.205-0.003,0.377-0.008,0.516c-0.005,0.138-0.014,0.268-0.025,0.39h-5.852
		c0,0.853,0.238,1.507,0.714,1.963c0.476,0.457,1.162,0.685,2.059,0.685c0.244,0,0.487-0.009,0.73-0.028s0.479-0.046,0.706-0.079
		s0.444-0.07,0.651-0.112c0.208-0.041,0.4-0.087,0.577-0.137v1.187c-0.393,0.111-0.837,0.201-1.332,0.271
		c-0.496,0.069-1.009,0.104-1.54,0.104c-0.714,0-1.328-0.097-1.843-0.29c-0.515-0.194-0.937-0.475-1.266-0.843
		c-0.33-0.368-0.573-0.819-0.73-1.354c-0.158-0.534-0.237-1.139-0.237-1.813c0-0.587,0.084-1.142,0.253-1.664
		c0.168-0.523,0.415-0.982,0.738-1.378c0.324-0.396,0.721-0.71,1.191-0.942s1.004-0.349,1.602-0.349
		c0.581,0,1.096,0.091,1.544,0.274c0.448,0.182,0.826,0.44,1.133,0.775c0.307,0.335,0.539,0.742,0.697,1.221
		C302.463,21.492,302.542,22.028,302.542,22.619z M301.039,22.412c0.017-0.371-0.02-0.71-0.108-1.017
		c-0.088-0.308-0.226-0.571-0.411-0.793c-0.185-0.222-0.416-0.395-0.693-0.519c-0.277-0.125-0.598-0.188-0.963-0.188
		c-0.315,0-0.603,0.062-0.863,0.184c-0.26,0.121-0.484,0.293-0.672,0.514c-0.188,0.222-0.34,0.487-0.457,0.797
		c-0.116,0.311-0.188,0.65-0.216,1.021H301.039z"/>
</g>
<g enable-background="new    ">
	<path d="M211.698,51.114c-2.551-2.363-3.827-4.975-3.827-7.836c0-0.67,0.068-1.338,0.203-2.005
		c0.136-0.667,0.354-1.335,0.656-2.005c0.301-0.669,0.7-1.339,1.195-2.008c0.495-0.67,1.097-1.334,1.805-1.992l0.838,0.854
		c-2.147,2.119-3.221,4.469-3.221,7.048c0,1.283,0.271,2.518,0.813,3.701c0.542,1.185,1.345,2.303,2.407,3.354L211.698,51.114z"/>
	<path d="M223.095,43.02c0,0.205-0.003,0.377-0.008,0.516c-0.005,0.138-0.014,0.268-0.025,0.39h-5.852
		c0,0.853,0.238,1.507,0.714,1.963c0.476,0.457,1.162,0.685,2.059,0.685c0.244,0,0.487-0.009,0.73-0.028s0.479-0.046,0.706-0.079
		s0.444-0.07,0.651-0.112c0.208-0.041,0.4-0.087,0.577-0.137v1.187c-0.393,0.111-0.837,0.201-1.332,0.271
		c-0.496,0.069-1.009,0.104-1.54,0.104c-0.714,0-1.328-0.097-1.843-0.29c-0.515-0.194-0.937-0.475-1.266-0.843
		c-0.33-0.368-0.573-0.819-0.73-1.354c-0.158-0.534-0.237-1.139-0.237-1.813c0-0.587,0.084-1.142,0.253-1.664
		c0.168-0.523,0.415-0.982,0.738-1.378c0.324-0.396,0.721-0.71,1.191-0.942s1.004-0.349,1.602-0.349
		c0.581,0,1.096,0.091,1.544,0.274c0.448,0.182,0.826,0.44,1.133,0.775c0.307,0.335,0.539,0.742,0.697,1.221
		C223.016,41.893,223.095,42.428,223.095,43.02z M221.593,42.813c0.017-0.371-0.02-0.71-0.108-1.017
		c-0.088-0.308-0.226-0.571-0.411-0.793c-0.185-0.222-0.416-0.395-0.693-0.519c-0.277-0.125-0.598-0.188-0.963-0.188
		c-0.315,0-0.603,0.062-0.863,0.184c-0.26,0.121-0.484,0.293-0.672,0.514c-0.188,0.222-0.34,0.487-0.457,0.797
		c-0.116,0.311-0.188,0.65-0.216,1.021H221.593z"/>
	<path d="M233.139,46.382l-0.091,3.37h-1.32v-2.125h-6.076v2.125h-1.303l-0.083-3.37h0.116c0.21,0,0.41-0.033,0.598-0.1
		s0.362-0.192,0.523-0.378s0.309-0.442,0.444-0.771c0.135-0.329,0.257-0.756,0.365-1.278c0.107-0.523,0.202-1.158,0.282-1.905
		c0.08-0.747,0.148-1.633,0.203-2.656h5.146v7.089H233.139z M230.5,40.538h-2.324c-0.055,0.952-0.127,1.763-0.216,2.433
		c-0.088,0.669-0.192,1.23-0.312,1.685c-0.119,0.454-0.256,0.816-0.411,1.087c-0.155,0.271-0.327,0.484-0.515,0.64h3.777V40.538z"/>
	<path d="M236.31,39.293v5.869l3.636-5.869h1.378v8.334h-1.444v-5.869l-3.636,5.869h-1.378v-8.334H236.31z"/>
	<path d="M250.795,47.627h-1.444v-3.686h-3.81v3.686h-1.444v-8.334h1.444v3.387h3.81v-3.387h1.444V47.627z"/>
	<path d="M255.004,39.293v5.869l3.636-5.869h1.378v8.334h-1.444v-5.869l-3.636,5.869h-1.378v-8.334H255.004z"/>
	<path d="M270.418,46.382l-0.083,3.37h-1.312v-2.125h-6.3v-8.334h1.444v7.089h3.802v-7.089h1.444v7.089H270.418z"/>
	<path d="M278.835,35.899l-5.694,13.514h-1.378l5.694-13.514H278.835z"/>
	<path d="M288.721,40.538h-3.163v7.089h-1.461v-7.089h-3.163v-1.245h7.786V40.538z"/>
	<path d="M292.531,35.268c2.551,2.362,3.827,4.991,3.827,7.885c0,0.598-0.061,1.218-0.183,1.859c-0.122,0.643-0.329,1.3-0.623,1.972
		c-0.293,0.673-0.688,1.354-1.183,2.046c-0.495,0.692-1.119,1.387-1.872,2.084l-0.838-0.855c1.079-1.067,1.884-2.183,2.416-3.345
		s0.797-2.38,0.797-3.652c0-2.634-1.071-5.003-3.212-7.105L292.531,35.268z"/>
</g>
<rect x="97.054" y="93.024" fill="#C0E247" width="136" height="39"/>
<rect x="100.975" y="105.496" fill="none" width="125.28" height="47.691"/>
<g enable-background="new    ">
	<path d="M109.9,110.983c-0.05-0.564-0.151-1.063-0.303-1.498c-0.152-0.435-0.365-0.801-0.64-1.1
		c-0.273-0.299-0.613-0.524-1.017-0.677s-0.88-0.229-1.428-0.229c-0.459,0-0.903,0.054-1.332,0.162
		c-0.429,0.107-0.84,0.259-1.233,0.452v-1.328c0.437-0.177,0.881-0.312,1.333-0.402c0.451-0.092,0.92-0.137,1.407-0.137
		c0.802,0,1.502,0.12,2.1,0.36c0.598,0.241,1.094,0.594,1.49,1.059c0.396,0.465,0.691,1.036,0.888,1.714
		c0.197,0.678,0.295,1.451,0.295,2.32c0,0.946-0.104,1.782-0.312,2.507c-0.207,0.725-0.524,1.325-0.95,1.802
		c-0.426,0.476-0.939,0.825-1.54,1.05c-0.6,0.224-1.285,0.336-2.054,0.336c-0.503,0-0.973-0.043-1.407-0.129
		c-0.435-0.086-0.851-0.217-1.25-0.394v-1.412c0.393,0.211,0.801,0.374,1.224,0.49c0.424,0.116,0.881,0.174,1.374,0.174
		c1.124,0,1.956-0.32,2.499-0.963c0.542-0.642,0.838-1.612,0.888-2.913h-5.171v-1.245H109.9z"/>
	<path d="M117.562,120.628H116.2v-3.287c-1.223-0.066-2.137-0.435-2.744-1.104c-0.605-0.669-0.909-1.718-0.909-3.146
		c0-0.714,0.088-1.329,0.266-1.847s0.426-0.949,0.747-1.295s0.706-0.613,1.154-0.801c0.448-0.188,0.943-0.313,1.486-0.374v-3.278
		h1.361v3.262c0.609,0.044,1.141,0.153,1.598,0.328c0.456,0.174,0.838,0.429,1.146,0.764c0.307,0.335,0.538,0.761,0.693,1.278
		s0.232,1.139,0.232,1.863c0,0.747-0.095,1.384-0.287,1.909c-0.19,0.525-0.452,0.959-0.784,1.299
		c-0.332,0.341-0.721,0.6-1.166,0.776c-0.446,0.177-0.923,0.293-1.432,0.349V120.628z M116.2,109.946
		c-0.382,0.055-0.719,0.167-1.013,0.336s-0.528,0.392-0.706,0.668s-0.303,0.592-0.378,0.946c-0.074,0.354-0.112,0.73-0.112,1.129
		c0,0.492,0.042,0.921,0.125,1.286s0.214,0.677,0.395,0.935c0.18,0.257,0.408,0.46,0.685,0.61c0.277,0.148,0.611,0.248,1.004,0.299
		V109.946z M117.562,116.155c0.382-0.056,0.717-0.166,1.004-0.332s0.52-0.385,0.697-0.656s0.309-0.584,0.395-0.938
		c0.085-0.354,0.128-0.739,0.128-1.154c0-0.537-0.048-0.993-0.145-1.369c-0.097-0.377-0.24-0.688-0.428-0.935
		s-0.42-0.433-0.697-0.56c-0.277-0.128-0.595-0.217-0.955-0.266V116.155z"/>
	<path d="M126.908,120.628h-1.361v-3.287c-1.223-0.066-2.137-0.435-2.744-1.104c-0.605-0.669-0.909-1.718-0.909-3.146
		c0-0.714,0.088-1.329,0.266-1.847s0.426-0.949,0.747-1.295s0.706-0.613,1.154-0.801c0.448-0.188,0.943-0.313,1.486-0.374v-3.278
		h1.361v3.262c0.609,0.044,1.141,0.153,1.598,0.328c0.456,0.174,0.838,0.429,1.146,0.764c0.307,0.335,0.538,0.761,0.693,1.278
		s0.232,1.139,0.232,1.863c0,0.747-0.095,1.384-0.287,1.909c-0.19,0.525-0.452,0.959-0.784,1.299
		c-0.332,0.341-0.721,0.6-1.166,0.776c-0.446,0.177-0.923,0.293-1.432,0.349V120.628z M125.547,109.946
		c-0.382,0.055-0.719,0.167-1.013,0.336s-0.528,0.392-0.706,0.668s-0.303,0.592-0.378,0.946c-0.074,0.354-0.112,0.73-0.112,1.129
		c0,0.492,0.042,0.921,0.125,1.286s0.214,0.677,0.395,0.935c0.18,0.257,0.408,0.46,0.685,0.61c0.277,0.148,0.611,0.248,1.004,0.299
		V109.946z M126.908,116.155c0.382-0.056,0.717-0.166,1.004-0.332s0.52-0.385,0.697-0.656s0.309-0.584,0.395-0.938
		c0.085-0.354,0.128-0.739,0.128-1.154c0-0.537-0.048-0.993-0.145-1.369c-0.097-0.377-0.24-0.688-0.428-0.935
		s-0.42-0.433-0.697-0.56c-0.277-0.128-0.595-0.217-0.955-0.266V116.155z"/>
	<path d="M139.268,112.617c0,0.205-0.003,0.377-0.008,0.516c-0.005,0.138-0.014,0.268-0.025,0.39h-5.852
		c0,0.853,0.238,1.507,0.714,1.963c0.476,0.457,1.162,0.685,2.059,0.685c0.244,0,0.487-0.009,0.73-0.028s0.479-0.046,0.706-0.079
		s0.444-0.07,0.651-0.112c0.208-0.041,0.4-0.087,0.577-0.137V117c-0.393,0.111-0.837,0.201-1.332,0.271
		c-0.496,0.069-1.009,0.104-1.54,0.104c-0.714,0-1.328-0.097-1.843-0.29c-0.515-0.194-0.937-0.475-1.266-0.843
		c-0.33-0.368-0.573-0.819-0.73-1.354c-0.158-0.534-0.237-1.139-0.237-1.813c0-0.587,0.084-1.142,0.253-1.664
		c0.168-0.523,0.415-0.982,0.738-1.378c0.324-0.396,0.721-0.71,1.191-0.942s1.004-0.349,1.602-0.349
		c0.581,0,1.096,0.091,1.544,0.274c0.448,0.182,0.826,0.44,1.133,0.775c0.307,0.335,0.539,0.742,0.697,1.221
		C139.189,111.49,139.268,112.026,139.268,112.617z M137.766,112.41c0.017-0.371-0.02-0.71-0.108-1.017
		c-0.088-0.308-0.226-0.571-0.411-0.793c-0.185-0.222-0.416-0.395-0.693-0.519c-0.277-0.125-0.598-0.188-0.963-0.188
		c-0.315,0-0.603,0.062-0.863,0.184c-0.26,0.121-0.484,0.293-0.672,0.514c-0.188,0.222-0.34,0.487-0.457,0.797
		c-0.116,0.311-0.188,0.65-0.216,1.021H137.766z"/>
	<path d="M149.072,117.225h-1.984l-3.885-4.466v4.466h-1.444v-8.334h1.444v3.811l3.744-3.811h1.909l-3.91,3.844L149.072,117.225z"/>
	<path d="M158.161,110.136h-3.163v7.089h-1.461v-7.089h-3.163v-1.245h7.786V110.136z"/>
	<path d="M161.83,108.891v5.869l3.636-5.869h1.378v8.334h-1.444v-5.869l-3.636,5.869h-1.378v-8.334H161.83z"/>
	<path d="M176.771,114.793c0,0.381-0.08,0.73-0.241,1.045c-0.161,0.316-0.41,0.586-0.747,0.81c-0.337,0.225-0.765,0.398-1.283,0.523
		c-0.517,0.124-1.133,0.187-1.847,0.187c-0.47,0-0.971-0.018-1.502-0.054s-1.043-0.085-1.536-0.146v-8.227
		c0.52-0.061,1.047-0.107,1.581-0.141c0.534-0.033,1.111-0.05,1.731-0.05c1.124,0,1.977,0.184,2.561,0.552
		c0.583,0.368,0.875,0.898,0.875,1.59c0,0.471-0.136,0.874-0.407,1.212s-0.681,0.587-1.229,0.747
		c0.266,0.044,0.521,0.117,0.768,0.22c0.247,0.103,0.464,0.235,0.652,0.398s0.339,0.355,0.453,0.577
		C176.715,114.259,176.771,114.51,176.771,114.793z M174.887,111.174c0-0.194-0.039-0.368-0.116-0.523s-0.201-0.288-0.37-0.398
		c-0.168-0.11-0.39-0.195-0.664-0.253c-0.273-0.059-0.604-0.087-0.992-0.087c-0.349,0-0.653,0.007-0.913,0.021
		s-0.518,0.037-0.772,0.07v2.407h1.677C174.17,112.41,174.887,111.998,174.887,111.174z M175.244,114.826
		c0-0.432-0.195-0.757-0.585-0.976c-0.391-0.219-0.998-0.328-1.822-0.328h-1.776v2.548c0.271,0.045,0.54,0.075,0.805,0.092
		s0.57,0.025,0.913,0.025c0.493,0,0.898-0.033,1.216-0.1c0.318-0.066,0.57-0.161,0.755-0.283c0.186-0.121,0.314-0.266,0.386-0.432
		S175.244,115.026,175.244,114.826z"/>
	<path d="M185.661,117.225h-1.444v-3.686h-3.81v3.686h-1.444v-8.334h1.444v3.387h3.81v-3.387h1.444V117.225z"/>
	<path d="M195.564,112.991c0,0.647-0.091,1.241-0.274,1.78c-0.183,0.54-0.445,1.002-0.789,1.387s-0.761,0.684-1.253,0.896
		s-1.051,0.319-1.677,0.319c-0.598,0-1.133-0.093-1.606-0.278c-0.474-0.186-0.875-0.458-1.204-0.817
		c-0.329-0.359-0.581-0.806-0.755-1.337c-0.175-0.531-0.262-1.143-0.262-1.834c0-0.647,0.091-1.238,0.274-1.772
		s0.445-0.993,0.789-1.378s0.761-0.684,1.253-0.896s1.051-0.319,1.677-0.319c0.598,0,1.133,0.093,1.606,0.278
		c0.474,0.186,0.875,0.456,1.204,0.813c0.329,0.356,0.581,0.801,0.755,1.332C195.477,111.697,195.564,112.305,195.564,112.991z
		 M194.087,113.058c0-0.515-0.057-0.964-0.17-1.349c-0.114-0.385-0.275-0.706-0.486-0.963c-0.21-0.258-0.466-0.451-0.768-0.581
		c-0.301-0.13-0.638-0.195-1.008-0.195c-0.432,0-0.801,0.084-1.108,0.253c-0.308,0.169-0.559,0.395-0.756,0.677
		c-0.196,0.282-0.34,0.61-0.432,0.983c-0.091,0.374-0.137,0.766-0.137,1.175c0,0.515,0.057,0.966,0.17,1.353
		c0.114,0.388,0.275,0.71,0.486,0.968c0.21,0.257,0.465,0.451,0.764,0.581s0.636,0.195,1.013,0.195c0.432,0,0.801-0.085,1.108-0.254
		c0.308-0.169,0.559-0.395,0.756-0.676c0.196-0.283,0.34-0.61,0.432-0.984C194.041,113.867,194.087,113.473,194.087,113.058z"/>
	<path d="M204.131,116.918c-0.376,0.144-0.762,0.25-1.158,0.319c-0.396,0.069-0.804,0.104-1.224,0.104
		c-1.317,0-2.331-0.356-3.042-1.071c-0.711-0.713-1.066-1.757-1.066-3.129c0-0.658,0.103-1.256,0.307-1.793s0.493-0.996,0.863-1.378
		s0.813-0.677,1.328-0.884c0.515-0.208,1.082-0.312,1.702-0.312c0.432,0,0.835,0.03,1.212,0.091
		c0.376,0.062,0.736,0.161,1.079,0.299v1.379c-0.36-0.188-0.727-0.325-1.1-0.411c-0.374-0.086-0.76-0.129-1.158-0.129
		c-0.371,0-0.721,0.07-1.05,0.212c-0.33,0.141-0.619,0.344-0.868,0.609s-0.445,0.59-0.589,0.972s-0.216,0.813-0.216,1.295
		c0,1.007,0.245,1.761,0.734,2.262c0.49,0.501,1.169,0.751,2.038,0.751c0.393,0,0.773-0.044,1.142-0.133
		c0.368-0.088,0.723-0.221,1.066-0.398V116.918z"/>
	<path d="M214.241,110.136h-3.163v7.089h-1.461v-7.089h-3.163v-1.245h7.786V110.136z"/>
	<path d="M217.844,112.037c0.138-0.006,0.277-0.01,0.415-0.013s0.279-0.006,0.423-0.009s0.296-0.005,0.457-0.008
		s0.335-0.004,0.523-0.004c1.284,0,2.237,0.22,2.86,0.659c0.622,0.44,0.934,1.083,0.934,1.931c0,0.907-0.329,1.589-0.988,2.046
		c-0.659,0.456-1.655,0.685-2.988,0.685c-0.603,0-1.15-0.013-1.639-0.037c-0.49-0.025-0.97-0.068-1.44-0.129v-8.268h1.444V112.037z
		 M221.961,114.627c0-0.232-0.043-0.437-0.129-0.61c-0.085-0.175-0.223-0.321-0.411-0.44s-0.432-0.209-0.73-0.27
		s-0.659-0.092-1.079-0.092c-0.266,0-0.556,0.003-0.872,0.009s-0.614,0.014-0.896,0.024v2.781c0.282,0.027,0.555,0.049,0.817,0.063
		c0.263,0.014,0.552,0.021,0.868,0.021c0.465,0,0.852-0.029,1.162-0.087c0.31-0.059,0.559-0.146,0.747-0.266
		s0.322-0.272,0.403-0.461C221.921,115.111,221.961,114.887,221.961,114.627z"/>
</g>
<rect x="374.054" y="56.026" fill="#C0E247" width="136" height="39"/>
<rect x="377.975" y="68.498" fill="none" width="125.28" height="47.691"/>
<g enable-background="new    ">
	<path d="M425.682,76.981c0,0.521-0.102,0.981-0.303,1.383c-0.203,0.401-0.49,0.74-0.863,1.017
		c-0.375,0.276-0.825,0.487-1.354,0.631c-0.529,0.144-1.117,0.216-1.764,0.216h-2.84v-10.85h3.105c2.418,0,3.627,0.881,3.627,2.641
		c0,0.586-0.14,1.09-0.42,1.51c-0.279,0.421-0.734,0.733-1.365,0.938c0.294,0.056,0.572,0.149,0.834,0.282
		c0.264,0.133,0.494,0.305,0.693,0.515s0.357,0.459,0.474,0.747S425.682,76.621,425.682,76.981z M423.756,72.217
		c0-0.222-0.033-0.431-0.1-0.627s-0.184-0.365-0.35-0.507c-0.166-0.141-0.39-0.253-0.672-0.336s-0.639-0.124-1.07-0.124h-1.527
		v3.395h1.477c0.338,0,0.645-0.036,0.918-0.107c0.273-0.072,0.509-0.184,0.705-0.332c0.197-0.15,0.35-0.337,0.457-0.561
		C423.701,72.793,423.756,72.527,423.756,72.217z M424.113,77.031c0-0.277-0.058-0.526-0.175-0.748
		c-0.115-0.221-0.285-0.407-0.506-0.56s-0.491-0.271-0.809-0.353c-0.318-0.084-0.678-0.125-1.076-0.125h-1.51v3.735h1.561
		c0.846,0,1.477-0.157,1.893-0.474C423.905,78.194,424.113,77.7,424.113,77.031z"/>
	<path d="M428.703,75.114c0.199-0.006,0.385-0.01,0.561-0.013c0.174-0.003,0.355-0.004,0.543-0.004c0.52,0,0.975,0.063,1.365,0.187
		c0.391,0.125,0.715,0.299,0.976,0.523c0.261,0.224,0.454,0.492,0.581,0.805s0.191,0.652,0.191,1.018
		c0,0.442-0.075,0.831-0.225,1.166s-0.362,0.615-0.639,0.842c-0.277,0.228-0.616,0.398-1.018,0.516
		c-0.4,0.115-0.879,0.174-1.432,0.174c-0.354,0-0.729-0.01-1.125-0.029c-0.396-0.02-0.798-0.06-1.207-0.12v-8.284h1.428V75.114z
		 M431.426,77.67c0-0.438-0.137-0.776-0.412-1.017c-0.273-0.241-0.709-0.361-1.307-0.361c-0.16,0-0.324,0.003-0.49,0.009
		c-0.166,0.005-0.337,0.014-0.514,0.024v2.739c0.177,0.027,0.346,0.046,0.506,0.054c0.16,0.009,0.32,0.013,0.481,0.013
		c0.337,0,0.617-0.04,0.839-0.12c0.221-0.08,0.396-0.187,0.527-0.319c0.129-0.133,0.223-0.288,0.281-0.465
		C431.397,78.049,431.426,77.864,431.426,77.67z M433.832,80.227v-8.334h1.428v8.334H433.832z"/>
	<path d="M444.781,80.227h-1.918l-2.249-3.18l-2.225,3.18h-1.868l3.229-4.184l-3.079-4.15h1.851l2.191,3.204l2.149-3.204h1.785
		l-3.129,4.184L444.781,80.227z"/>
	<path d="M453.871,75.993c0,0.647-0.092,1.241-0.274,1.78c-0.183,0.54-0.445,1.002-0.788,1.387
		c-0.344,0.385-0.762,0.684-1.254,0.896s-1.051,0.319-1.677,0.319c-0.598,0-1.134-0.093-1.606-0.278s-0.874-0.458-1.203-0.817
		c-0.33-0.359-0.582-0.806-0.756-1.337s-0.262-1.143-0.262-1.834c0-0.647,0.092-1.238,0.274-1.772s0.445-0.993,0.788-1.378
		c0.344-0.385,0.762-0.684,1.254-0.896s1.051-0.319,1.677-0.319c0.598,0,1.134,0.093,1.606,0.278s0.874,0.456,1.203,0.813
		c0.33,0.356,0.582,0.801,0.756,1.332S453.871,75.307,453.871,75.993z M452.393,76.06c0-0.515-0.057-0.964-0.17-1.349
		s-0.275-0.706-0.485-0.963c-0.21-0.258-0.466-0.451-0.769-0.581c-0.301-0.13-0.637-0.195-1.008-0.195
		c-0.432,0-0.801,0.084-1.107,0.253c-0.309,0.169-0.56,0.395-0.756,0.677c-0.197,0.282-0.34,0.61-0.432,0.983
		c-0.092,0.374-0.137,0.766-0.137,1.175c0,0.515,0.057,0.966,0.17,1.353c0.113,0.388,0.275,0.71,0.485,0.968
		c0.21,0.257,0.465,0.451,0.764,0.581s0.636,0.195,1.013,0.195c0.432,0,0.801-0.085,1.107-0.254c0.309-0.169,0.56-0.395,0.756-0.676
		c0.197-0.283,0.34-0.61,0.432-0.984C452.348,76.869,452.393,76.475,452.393,76.06z"/>
	<path d="M463.699,78.982l-0.092,3.37h-1.32v-2.125h-6.076v2.125h-1.303l-0.083-3.37h0.116c0.211,0,0.41-0.033,0.598-0.1
		s0.362-0.192,0.523-0.378c0.16-0.186,0.309-0.442,0.443-0.771c0.136-0.329,0.258-0.756,0.365-1.278
		c0.107-0.523,0.202-1.158,0.283-1.905c0.08-0.747,0.147-1.633,0.203-2.656h5.146v7.089H463.699z M461.059,73.138h-2.324
		c-0.055,0.952-0.127,1.763-0.215,2.433c-0.089,0.669-0.193,1.23-0.313,1.685c-0.118,0.454-0.256,0.816-0.41,1.087
		c-0.154,0.271-0.326,0.484-0.515,0.64h3.776V73.138z"/>
</g>
<rect x="97.054" y="196.026" fill="#C0E247" width="136" height="39"/>
<rect x="100.975" y="208.498" fill="none" width="125.28" height="47.691"/>
<g enable-background="new    ">
	<path d="M130.494,220.227h-1.444l-0.216-6.766l-0.091-2.598l-0.506,1.511l-1.602,4.316h-1.021l-1.527-4.15l-0.506-1.677
		l-0.033,2.715l-0.191,6.648h-1.395l0.531-10.85h1.751l1.461,4.084l0.473,1.379l0.457-1.379l1.536-4.084h1.801L130.494,220.227z"/>
	<path d="M137.583,220.227l-0.033-1.121c-0.454,0.449-0.915,0.772-1.382,0.972c-0.467,0.199-0.958,0.299-1.473,0.299
		c-0.476,0-0.883-0.061-1.22-0.183s-0.616-0.289-0.834-0.502c-0.219-0.213-0.379-0.464-0.481-0.752
		c-0.103-0.287-0.154-0.6-0.154-0.938c0-0.836,0.311-1.49,0.934-1.963c0.622-0.474,1.542-0.71,2.76-0.71h1.727v-0.73
		c0-0.492-0.158-0.887-0.473-1.183s-0.797-0.444-1.444-0.444c-0.47,0-0.934,0.053-1.39,0.157c-0.457,0.105-0.929,0.255-1.416,0.449
		v-1.304c0.183-0.066,0.386-0.132,0.61-0.195c0.225-0.063,0.461-0.12,0.71-0.17s0.509-0.09,0.78-0.12s0.545-0.046,0.822-0.046
		c0.503,0,0.958,0.056,1.361,0.166s0.746,0.279,1.025,0.507c0.28,0.227,0.494,0.512,0.644,0.854s0.224,0.747,0.224,1.212v5.744
		H137.583z M137.426,216.434h-1.834c-0.36,0-0.669,0.035-0.93,0.107s-0.473,0.174-0.639,0.307s-0.289,0.292-0.369,0.478
		c-0.081,0.186-0.121,0.395-0.121,0.627c0,0.16,0.025,0.314,0.075,0.461s0.13,0.276,0.241,0.39s0.254,0.203,0.432,0.27
		s0.393,0.1,0.647,0.1c0.332,0,0.712-0.101,1.141-0.303c0.429-0.202,0.881-0.521,1.357-0.959V216.434z"/>
	<path d="M148.814,213.138h-3.163v7.089h-1.461v-7.089h-3.163v-1.245h7.786V213.138z"/>
	<path d="M157.962,215.619c0,0.205-0.003,0.377-0.008,0.516c-0.005,0.138-0.014,0.268-0.025,0.39h-5.852
		c0,0.853,0.238,1.507,0.714,1.963c0.476,0.457,1.162,0.685,2.059,0.685c0.244,0,0.487-0.009,0.73-0.028s0.479-0.046,0.706-0.079
		s0.444-0.07,0.651-0.112c0.208-0.041,0.4-0.087,0.577-0.137v1.187c-0.393,0.111-0.837,0.201-1.332,0.271
		c-0.496,0.069-1.009,0.104-1.54,0.104c-0.714,0-1.328-0.097-1.843-0.29c-0.515-0.194-0.937-0.475-1.266-0.843
		c-0.33-0.368-0.573-0.819-0.73-1.354c-0.158-0.534-0.237-1.139-0.237-1.813c0-0.587,0.084-1.142,0.253-1.664
		c0.168-0.523,0.415-0.982,0.738-1.378c0.324-0.396,0.721-0.71,1.191-0.942s1.004-0.349,1.602-0.349
		c0.581,0,1.096,0.091,1.544,0.274c0.448,0.182,0.826,0.44,1.133,0.775c0.307,0.335,0.539,0.742,0.697,1.221
		C157.883,214.492,157.962,215.028,157.962,215.619z M156.459,215.412c0.017-0.371-0.02-0.71-0.108-1.017
		c-0.088-0.308-0.226-0.571-0.411-0.793c-0.185-0.222-0.416-0.395-0.693-0.519c-0.277-0.125-0.598-0.188-0.963-0.188
		c-0.315,0-0.603,0.062-0.863,0.184c-0.26,0.121-0.484,0.293-0.672,0.514c-0.188,0.222-0.34,0.487-0.457,0.797
		c-0.116,0.311-0.188,0.65-0.216,1.021H156.459z"/>
	<path d="M167.391,215.91c0,0.741-0.104,1.389-0.312,1.942c-0.207,0.554-0.494,1.013-0.859,1.378s-0.797,0.639-1.295,0.822
		c-0.498,0.182-1.038,0.273-1.619,0.273c-0.266,0-0.53-0.014-0.793-0.041c-0.263-0.028-0.53-0.075-0.801-0.142v3.486h-1.444v-11.737
		h1.287l0.091,1.395c0.415-0.57,0.858-0.97,1.328-1.199s0.979-0.345,1.527-0.345c0.476,0,0.894,0.1,1.253,0.299
		s0.661,0.48,0.905,0.843s0.426,0.8,0.548,1.312S167.391,215.28,167.391,215.91z M165.914,215.977c0-0.438-0.032-0.838-0.096-1.203
		c-0.063-0.365-0.165-0.679-0.303-0.938s-0.315-0.464-0.531-0.61s-0.473-0.22-0.772-0.22c-0.183,0-0.368,0.029-0.556,0.087
		c-0.188,0.059-0.383,0.155-0.585,0.291c-0.202,0.136-0.415,0.315-0.64,0.539c-0.224,0.225-0.463,0.502-0.718,0.834v4.043
		c0.266,0.11,0.545,0.198,0.838,0.262s0.581,0.096,0.863,0.096c0.78,0,1.392-0.265,1.834-0.793S165.914,217.039,165.914,215.977z"/>
	<path d="M171.177,211.893v5.869l3.636-5.869h1.378v8.334h-1.444v-5.869l-3.636,5.869h-1.378v-8.334H171.177z"/>
	<path d="M184.317,220.227l-0.033-1.121c-0.454,0.449-0.915,0.772-1.382,0.972c-0.467,0.199-0.958,0.299-1.473,0.299
		c-0.476,0-0.883-0.061-1.22-0.183s-0.616-0.289-0.834-0.502c-0.219-0.213-0.379-0.464-0.481-0.752
		c-0.103-0.287-0.154-0.6-0.154-0.938c0-0.836,0.311-1.49,0.934-1.963c0.622-0.474,1.542-0.71,2.76-0.71h1.727v-0.73
		c0-0.492-0.158-0.887-0.473-1.183s-0.797-0.444-1.444-0.444c-0.47,0-0.934,0.053-1.39,0.157c-0.457,0.105-0.929,0.255-1.416,0.449
		v-1.304c0.183-0.066,0.386-0.132,0.61-0.195c0.225-0.063,0.461-0.12,0.71-0.17s0.509-0.09,0.78-0.12s0.545-0.046,0.822-0.046
		c0.503,0,0.958,0.056,1.361,0.166s0.746,0.279,1.025,0.507c0.28,0.227,0.494,0.512,0.644,0.854s0.224,0.747,0.224,1.212v5.744
		H184.317z M184.159,216.434h-1.834c-0.36,0-0.669,0.035-0.93,0.107s-0.473,0.174-0.639,0.307s-0.289,0.292-0.369,0.478
		c-0.081,0.186-0.121,0.395-0.121,0.627c0,0.16,0.025,0.314,0.075,0.461s0.13,0.276,0.241,0.39s0.254,0.203,0.432,0.27
		s0.393,0.1,0.647,0.1c0.332,0,0.712-0.101,1.141-0.303c0.429-0.202,0.881-0.521,1.357-0.959V216.434z"/>
	<path d="M194.933,220.227h-1.444v-7.089h-2.324c-0.066,1.14-0.165,2.116-0.295,2.931c-0.13,0.813-0.286,1.492-0.469,2.037
		s-0.39,0.975-0.623,1.287s-0.483,0.539-0.751,0.681c-0.268,0.141-0.552,0.21-0.851,0.207s-0.606-0.043-0.921-0.12l0.066-1.195
		c0.221,0.022,0.429,0.011,0.623-0.033s0.374-0.15,0.54-0.319s0.317-0.412,0.453-0.73c0.135-0.318,0.258-0.743,0.369-1.274
		s0.206-1.183,0.286-1.955c0.081-0.771,0.146-1.691,0.195-2.76h5.146V220.227z"/>
	<path d="M198.436,215.114c0.199-0.006,0.386-0.01,0.561-0.013c0.174-0.003,0.355-0.004,0.543-0.004c0.52,0,0.975,0.063,1.366,0.187
		c0.39,0.125,0.715,0.299,0.975,0.523c0.26,0.224,0.454,0.492,0.581,0.805s0.191,0.652,0.191,1.018c0,0.442-0.075,0.831-0.224,1.166
		s-0.362,0.615-0.639,0.842c-0.277,0.228-0.616,0.398-1.017,0.516c-0.401,0.115-0.879,0.174-1.432,0.174
		c-0.354,0-0.729-0.01-1.125-0.029c-0.396-0.02-0.798-0.06-1.208-0.12v-8.284h1.428V215.114z M201.159,217.67
		c0-0.438-0.137-0.776-0.411-1.017c-0.273-0.241-0.709-0.361-1.307-0.361c-0.161,0-0.324,0.003-0.49,0.009
		c-0.166,0.005-0.337,0.014-0.515,0.024v2.739c0.177,0.027,0.346,0.046,0.506,0.054c0.161,0.009,0.321,0.013,0.481,0.013
		c0.337,0,0.617-0.04,0.838-0.12s0.397-0.187,0.527-0.319c0.13-0.133,0.224-0.288,0.282-0.465
		C201.13,218.049,201.159,217.864,201.159,217.67z M203.566,220.227v-8.334h1.428v8.334H203.566z"/>
</g>
<rect x="374.054" y="233.025" fill="#C0E247" width="136" height="39"/>
<rect x="377.975" y="245.498" fill="none" width="125.28" height="47.69"/>
<g enable-background="new    ">
	<path d="M393.166,247.639h-3.212v9.588h-1.494v-9.588h-3.212v-1.262h7.918V247.639z"/>
	<path d="M402.33,252.91c0,0.741-0.104,1.389-0.311,1.942s-0.494,1.013-0.859,1.378s-0.797,0.639-1.295,0.822
		c-0.498,0.182-1.037,0.273-1.619,0.273c-0.266,0-0.529-0.014-0.793-0.041c-0.262-0.028-0.529-0.075-0.801-0.142v3.486h-1.443
		v-11.737h1.286l0.091,1.395c0.416-0.57,0.858-0.97,1.328-1.199c0.471-0.229,0.98-0.345,1.527-0.345c0.477,0,0.895,0.1,1.254,0.299
		s0.661,0.48,0.904,0.843c0.244,0.362,0.427,0.8,0.549,1.312C402.27,251.708,402.33,252.28,402.33,252.91z M400.854,252.977
		c0-0.438-0.032-0.838-0.096-1.203c-0.064-0.365-0.165-0.679-0.303-0.938c-0.139-0.26-0.316-0.464-0.531-0.61
		c-0.217-0.146-0.474-0.22-0.772-0.22c-0.183,0-0.368,0.029-0.556,0.087c-0.188,0.059-0.384,0.155-0.586,0.291
		c-0.201,0.136-0.414,0.315-0.639,0.539c-0.225,0.225-0.464,0.502-0.719,0.834v4.043c0.266,0.11,0.545,0.198,0.839,0.262
		s0.581,0.096,0.863,0.096c0.78,0,1.392-0.265,1.835-0.793C400.632,254.835,400.854,254.039,400.854,252.977z"/>
	<path d="M411.968,248.893l-2.839,7.454c-0.293,0.758-0.596,1.411-0.908,1.959c-0.313,0.548-0.655,0.997-1.025,1.349
		c-0.371,0.352-0.777,0.61-1.221,0.776s-0.938,0.249-1.486,0.249c-0.144,0-0.273-0.003-0.39-0.008
		c-0.116-0.006-0.243-0.015-0.382-0.025v-1.312c0.121,0.017,0.254,0.032,0.398,0.046s0.296,0.021,0.457,0.021
		c0.266,0,0.513-0.039,0.742-0.116c0.23-0.077,0.447-0.203,0.652-0.378c0.204-0.174,0.4-0.399,0.589-0.677
		c0.188-0.276,0.37-0.611,0.548-1.004l-3.328-8.334h1.643l2.109,5.512l0.423,1.295l0.481-1.328l1.951-5.479H411.968z"/>
	<path d="M421.639,255.982l-0.092,3.37h-1.32v-2.125h-6.076v2.125h-1.303l-0.083-3.37h0.116c0.211,0,0.41-0.033,0.598-0.1
		s0.362-0.192,0.523-0.378c0.16-0.186,0.309-0.442,0.443-0.771c0.136-0.329,0.258-0.756,0.365-1.278
		c0.107-0.523,0.202-1.158,0.283-1.905c0.08-0.747,0.147-1.633,0.203-2.656h5.146v7.089H421.639z M418.998,250.138h-2.324
		c-0.055,0.952-0.127,1.763-0.215,2.433c-0.089,0.669-0.193,1.23-0.313,1.685c-0.118,0.454-0.256,0.816-0.41,1.087
		c-0.154,0.271-0.326,0.484-0.515,0.64h3.776V250.138z"/>
	<path d="M430.504,252.993c0,0.647-0.092,1.241-0.274,1.78c-0.183,0.54-0.445,1.002-0.788,1.387
		c-0.344,0.385-0.762,0.684-1.254,0.896s-1.051,0.319-1.677,0.319c-0.598,0-1.134-0.093-1.606-0.278s-0.874-0.458-1.203-0.817
		c-0.33-0.359-0.582-0.806-0.756-1.337s-0.262-1.143-0.262-1.834c0-0.647,0.092-1.238,0.274-1.772s0.445-0.993,0.788-1.378
		c0.344-0.385,0.762-0.684,1.254-0.896s1.051-0.319,1.677-0.319c0.598,0,1.134,0.093,1.606,0.278s0.874,0.456,1.203,0.813
		c0.33,0.356,0.582,0.801,0.756,1.332S430.504,252.307,430.504,252.993z M429.026,253.06c0-0.515-0.057-0.964-0.17-1.349
		s-0.275-0.706-0.485-0.963c-0.21-0.258-0.466-0.451-0.769-0.581c-0.301-0.13-0.637-0.195-1.008-0.195
		c-0.432,0-0.801,0.084-1.107,0.253c-0.309,0.169-0.56,0.395-0.756,0.677c-0.197,0.282-0.34,0.61-0.432,0.983
		c-0.092,0.374-0.137,0.766-0.137,1.175c0,0.515,0.057,0.966,0.17,1.353c0.113,0.388,0.275,0.71,0.485,0.968
		c0.21,0.257,0.465,0.451,0.764,0.581s0.636,0.195,1.013,0.195c0.432,0,0.801-0.085,1.107-0.254c0.309-0.169,0.56-0.395,0.756-0.676
		c0.197-0.283,0.34-0.61,0.432-0.984C428.981,253.869,429.026,253.475,429.026,253.06z"/>
	<path d="M432.371,255.733c0.244,0.066,0.504,0.125,0.78,0.174c0.276,0.051,0.551,0.095,0.821,0.133
		c0.271,0.039,0.533,0.068,0.785,0.088s0.477,0.029,0.676,0.029c0.471,0,0.862-0.031,1.176-0.092
		c0.313-0.061,0.561-0.148,0.746-0.262s0.316-0.252,0.395-0.415s0.116-0.347,0.116-0.552c0-0.199-0.034-0.381-0.104-0.544
		c-0.068-0.163-0.193-0.306-0.373-0.427c-0.18-0.122-0.424-0.217-0.734-0.283s-0.705-0.1-1.188-0.1h-2.041v-1.12h2.033
		c0.42,0,0.766-0.027,1.033-0.083c0.269-0.056,0.48-0.136,0.635-0.24c0.155-0.105,0.261-0.232,0.316-0.383
		c0.055-0.148,0.082-0.32,0.082-0.514c0-0.188-0.034-0.356-0.104-0.503c-0.068-0.146-0.184-0.271-0.344-0.373
		c-0.161-0.103-0.374-0.182-0.64-0.237c-0.266-0.055-0.595-0.082-0.987-0.082c-0.432,0-0.905,0.03-1.42,0.091
		s-1.029,0.149-1.544,0.266v-1.22c0.228-0.051,0.472-0.098,0.735-0.142c0.262-0.044,0.529-0.08,0.801-0.108
		c0.271-0.027,0.541-0.049,0.809-0.066c0.269-0.016,0.524-0.024,0.768-0.024c0.653,0,1.199,0.054,1.636,0.162
		c0.437,0.107,0.788,0.259,1.054,0.452s0.454,0.424,0.564,0.689c0.111,0.266,0.166,0.556,0.166,0.871c0,0.232-0.033,0.452-0.1,0.66
		c-0.066,0.207-0.168,0.395-0.307,0.561s-0.314,0.307-0.527,0.423s-0.469,0.199-0.768,0.249c0.299,0.044,0.576,0.117,0.83,0.22
		s0.475,0.238,0.66,0.407s0.332,0.369,0.439,0.602s0.162,0.498,0.162,0.797c0,0.365-0.07,0.704-0.211,1.017
		c-0.143,0.313-0.373,0.581-0.693,0.806c-0.321,0.224-0.744,0.399-1.271,0.527c-0.526,0.127-1.171,0.19-1.935,0.19
		c-0.204,0-0.43-0.007-0.676-0.021s-0.501-0.033-0.764-0.059c-0.264-0.024-0.521-0.055-0.776-0.091s-0.493-0.079-0.714-0.129
		V255.733z"/>
	<path d="M447.296,257.227l-0.033-1.121c-0.454,0.449-0.915,0.772-1.382,0.972c-0.468,0.199-0.959,0.299-1.474,0.299
		c-0.476,0-0.883-0.061-1.22-0.183c-0.338-0.122-0.616-0.289-0.834-0.502c-0.219-0.213-0.38-0.464-0.482-0.752
		c-0.102-0.287-0.153-0.6-0.153-0.938c0-0.836,0.312-1.49,0.935-1.963c0.621-0.474,1.542-0.71,2.76-0.71h1.727v-0.73
		c0-0.492-0.158-0.887-0.474-1.183s-0.797-0.444-1.444-0.444c-0.471,0-0.934,0.053-1.391,0.157
		c-0.457,0.105-0.928,0.255-1.415,0.449v-1.304c0.183-0.066,0.386-0.132,0.61-0.195s0.461-0.12,0.709-0.17
		c0.25-0.05,0.51-0.09,0.781-0.12c0.271-0.03,0.545-0.046,0.821-0.046c0.503,0,0.958,0.056,1.361,0.166s0.745,0.279,1.024,0.507
		c0.28,0.227,0.494,0.512,0.645,0.854c0.148,0.343,0.224,0.747,0.224,1.212v5.744H447.296z M447.139,253.434h-1.835
		c-0.36,0-0.669,0.035-0.93,0.107s-0.474,0.174-0.64,0.307s-0.289,0.292-0.369,0.478s-0.12,0.395-0.12,0.627
		c0,0.16,0.024,0.314,0.075,0.461c0.049,0.146,0.129,0.276,0.24,0.39s0.254,0.203,0.432,0.27s0.393,0.1,0.647,0.1
		c0.332,0,0.712-0.101,1.142-0.303c0.429-0.202,0.881-0.521,1.357-0.959V253.434z"/>
	<path d="M458.528,250.138h-3.163v7.089h-1.461v-7.089h-3.163v-1.245h7.787V250.138z"/>
	<path d="M467.758,252.91c0,0.741-0.104,1.389-0.313,1.942c-0.207,0.554-0.493,1.013-0.858,1.378s-0.797,0.639-1.295,0.822
		c-0.498,0.182-1.038,0.273-1.618,0.273c-0.266,0-0.53-0.014-0.793-0.041c-0.264-0.028-0.53-0.075-0.801-0.142v3.486h-1.445v-11.737
		h1.287l0.092,1.395c0.414-0.57,0.857-0.97,1.328-1.199c0.47-0.229,0.979-0.345,1.527-0.345c0.476,0,0.893,0.1,1.253,0.299
		s0.661,0.48,0.905,0.843c0.243,0.362,0.426,0.8,0.547,1.312C467.697,251.708,467.758,252.28,467.758,252.91z M466.28,252.977
		c0-0.438-0.031-0.838-0.096-1.203c-0.063-0.365-0.164-0.679-0.303-0.938c-0.138-0.26-0.314-0.464-0.531-0.61
		c-0.215-0.146-0.473-0.22-0.771-0.22c-0.183,0-0.368,0.029-0.557,0.087c-0.188,0.059-0.383,0.155-0.584,0.291
		c-0.203,0.136-0.416,0.315-0.641,0.539c-0.223,0.225-0.463,0.502-0.717,0.834v4.043c0.266,0.11,0.545,0.198,0.838,0.262
		s0.581,0.096,0.863,0.096c0.78,0,1.392-0.265,1.834-0.793C466.059,254.835,466.28,254.039,466.28,252.977z"/>
	<path d="M475.336,257.227l-0.033-1.121c-0.453,0.449-0.914,0.772-1.383,0.972c-0.467,0.199-0.958,0.299-1.473,0.299
		c-0.477,0-0.883-0.061-1.221-0.183c-0.337-0.122-0.615-0.289-0.834-0.502s-0.379-0.464-0.48-0.752
		c-0.104-0.287-0.154-0.6-0.154-0.938c0-0.836,0.311-1.49,0.934-1.963c0.623-0.474,1.543-0.71,2.76-0.71h1.727v-0.73
		c0-0.492-0.157-0.887-0.473-1.183s-0.797-0.444-1.444-0.444c-0.47,0-0.935,0.053-1.39,0.157c-0.457,0.105-0.93,0.255-1.416,0.449
		v-1.304c0.183-0.066,0.387-0.132,0.609-0.195c0.225-0.063,0.461-0.12,0.711-0.17c0.248-0.05,0.509-0.09,0.779-0.12
		c0.271-0.03,0.545-0.046,0.822-0.046c0.504,0,0.957,0.056,1.361,0.166s0.746,0.279,1.025,0.507
		c0.279,0.227,0.494,0.512,0.643,0.854c0.15,0.343,0.225,0.747,0.225,1.212v5.744H475.336z M475.178,253.434h-1.834
		c-0.359,0-0.67,0.035-0.93,0.107s-0.473,0.174-0.639,0.307s-0.289,0.292-0.369,0.478c-0.081,0.186-0.121,0.395-0.121,0.627
		c0,0.16,0.025,0.314,0.074,0.461c0.051,0.146,0.131,0.276,0.241,0.39s0.255,0.203,0.432,0.27s0.394,0.1,0.647,0.1
		c0.332,0,0.713-0.101,1.141-0.303c0.43-0.202,0.882-0.521,1.357-0.959V253.434z"/>
	<path d="M486.567,250.138h-3.162v7.089h-1.461v-7.089h-3.162v-1.245h7.785V250.138z"/>
	<path d="M489.455,252.114c0.199-0.006,0.387-0.01,0.561-0.013s0.355-0.004,0.544-0.004c0.521,0,0.976,0.063,1.366,0.187
		c0.389,0.125,0.715,0.299,0.975,0.523c0.26,0.224,0.453,0.492,0.581,0.805s0.19,0.652,0.19,1.018c0,0.442-0.074,0.831-0.224,1.166
		s-0.362,0.615-0.64,0.842c-0.276,0.228-0.615,0.398-1.016,0.516c-0.402,0.115-0.879,0.174-1.433,0.174
		c-0.354,0-0.729-0.01-1.124-0.029c-0.396-0.02-0.799-0.06-1.209-0.12v-8.284h1.428V252.114z M492.178,254.67
		c0-0.438-0.137-0.776-0.41-1.017c-0.273-0.241-0.71-0.361-1.308-0.361c-0.161,0-0.323,0.003-0.489,0.009
		c-0.166,0.005-0.338,0.014-0.516,0.024v2.739c0.178,0.027,0.346,0.046,0.507,0.054c0.161,0.009,0.321,0.013,0.481,0.013
		c0.338,0,0.617-0.04,0.838-0.12c0.222-0.08,0.397-0.187,0.527-0.319c0.131-0.133,0.225-0.288,0.283-0.465
		C492.149,255.049,492.178,254.864,492.178,254.67z M494.586,257.227v-8.334h1.428v8.334H494.586z"/>
</g>
<rect x="195.054" y="275.025" fill="#FFE600" width="116" height="56"/>
<rect x="198.975" y="287.498" fill="none" width="108.28" height="59.69"/>
<g enable-background="new    ">
	<path d="M243.552,297.948l-0.108,3.628h-1.32v-2.35h-6.649v-10.85h1.478v9.571h4.117v-9.571h1.478v9.571H243.552z"/>
	<path d="M252.135,294.619c0,0.205-0.003,0.377-0.008,0.516c-0.005,0.138-0.014,0.268-0.025,0.39h-5.852
		c0,0.853,0.238,1.507,0.714,1.963c0.476,0.457,1.162,0.685,2.059,0.685c0.244,0,0.487-0.009,0.73-0.028s0.479-0.046,0.706-0.079
		s0.444-0.07,0.651-0.112c0.208-0.041,0.4-0.087,0.577-0.137v1.187c-0.393,0.111-0.837,0.201-1.332,0.271
		c-0.496,0.069-1.009,0.104-1.54,0.104c-0.714,0-1.328-0.097-1.843-0.29c-0.515-0.194-0.937-0.475-1.266-0.843
		c-0.33-0.368-0.573-0.819-0.73-1.354c-0.158-0.534-0.237-1.139-0.237-1.813c0-0.587,0.084-1.142,0.253-1.664
		c0.168-0.523,0.415-0.982,0.738-1.378c0.324-0.396,0.721-0.71,1.191-0.942s1.004-0.349,1.602-0.349
		c0.581,0,1.096,0.091,1.544,0.274c0.448,0.182,0.826,0.44,1.133,0.775c0.307,0.335,0.539,0.742,0.697,1.221
		C252.055,293.492,252.135,294.028,252.135,294.619z M250.632,294.412c0.017-0.371-0.02-0.71-0.108-1.017
		c-0.088-0.308-0.226-0.571-0.411-0.793c-0.185-0.222-0.416-0.395-0.693-0.519c-0.277-0.125-0.598-0.188-0.963-0.188
		c-0.315,0-0.603,0.062-0.863,0.184c-0.26,0.121-0.484,0.293-0.672,0.514c-0.188,0.222-0.34,0.487-0.457,0.797
		c-0.116,0.311-0.188,0.65-0.216,1.021H250.632z"/>
	<path d="M261.141,299.227h-1.444v-3.686h-3.81v3.686h-1.444v-8.334h1.444v3.387h3.81v-3.387h1.444V299.227z"/>
	<path d="M269.143,299.227l-0.033-1.121c-0.454,0.449-0.915,0.772-1.382,0.972c-0.467,0.199-0.958,0.299-1.473,0.299
		c-0.476,0-0.883-0.061-1.22-0.183s-0.616-0.289-0.834-0.502c-0.219-0.213-0.379-0.464-0.481-0.752
		c-0.103-0.287-0.154-0.6-0.154-0.938c0-0.836,0.311-1.49,0.934-1.963c0.622-0.474,1.542-0.71,2.76-0.71h1.727v-0.73
		c0-0.492-0.158-0.887-0.473-1.183s-0.797-0.444-1.444-0.444c-0.47,0-0.934,0.053-1.39,0.157c-0.457,0.105-0.929,0.255-1.416,0.449
		v-1.304c0.183-0.066,0.386-0.132,0.61-0.195c0.225-0.063,0.461-0.12,0.71-0.17s0.509-0.09,0.78-0.12s0.545-0.046,0.822-0.046
		c0.503,0,0.958,0.056,1.361,0.166s0.746,0.279,1.025,0.507c0.28,0.227,0.494,0.512,0.644,0.854s0.224,0.747,0.224,1.212v5.744
		H269.143z M268.985,295.434h-1.834c-0.36,0-0.669,0.035-0.93,0.107s-0.473,0.174-0.639,0.307s-0.289,0.292-0.369,0.478
		c-0.081,0.186-0.121,0.395-0.121,0.627c0,0.16,0.025,0.314,0.075,0.461s0.13,0.276,0.241,0.39s0.254,0.203,0.432,0.27
		s0.393,0.1,0.647,0.1c0.332,0,0.712-0.101,1.141-0.303c0.429-0.202,0.881-0.521,1.357-0.959V295.434z"/>
</g>
<g enable-background="new    ">
	<path d="M208.025,323.113c-2.551-2.363-3.827-4.975-3.827-7.836c0-0.67,0.068-1.338,0.203-2.005
		c0.136-0.667,0.354-1.335,0.656-2.005c0.301-0.669,0.7-1.339,1.195-2.008c0.495-0.67,1.097-1.334,1.805-1.992l0.838,0.854
		c-2.147,2.119-3.221,4.469-3.221,7.048c0,1.283,0.271,2.518,0.813,3.701c0.542,1.185,1.345,2.303,2.407,3.354L208.025,323.113z"/>
	<path d="M215.969,307.216h1.204l-0.216,1.619c0.288,0.027,0.577,0.063,0.868,0.107c0.29,0.045,0.56,0.098,0.809,0.158v1.278
		c-0.304-0.077-0.611-0.144-0.921-0.199s-0.614-0.097-0.913-0.124l-0.473,3.553c0.371,0.144,0.739,0.3,1.104,0.469
		s0.693,0.368,0.983,0.598c0.291,0.229,0.526,0.502,0.706,0.817c0.18,0.315,0.27,0.691,0.27,1.129c0,0.465-0.094,0.877-0.282,1.237
		c-0.188,0.359-0.451,0.664-0.789,0.912c-0.337,0.25-0.744,0.444-1.22,0.586c-0.476,0.141-0.999,0.226-1.569,0.253l-0.274,1.976
		h-1.212l0.274-1.976c-0.448-0.033-0.875-0.082-1.283-0.146c-0.406-0.063-0.759-0.134-1.058-0.211v-1.379
		c0.349,0.122,0.729,0.222,1.141,0.299c0.413,0.078,0.871,0.131,1.374,0.158l0.49-3.735c-0.36-0.139-0.714-0.288-1.063-0.448
		s-0.66-0.353-0.934-0.577c-0.273-0.224-0.497-0.488-0.668-0.792c-0.171-0.305-0.257-0.667-0.257-1.088
		c0-0.343,0.072-0.682,0.216-1.017s0.368-0.637,0.672-0.905s0.689-0.489,1.154-0.664c0.465-0.174,1.018-0.277,1.66-0.311
		L215.969,307.216z M215.595,310.038c-0.692,0.062-1.197,0.224-1.515,0.486c-0.318,0.263-0.477,0.599-0.477,1.008
		c0,0.383,0.131,0.696,0.394,0.942c0.263,0.246,0.655,0.472,1.175,0.677L215.595,310.038z M215.695,318.331
		c0.747-0.056,1.291-0.222,1.631-0.498c0.34-0.276,0.51-0.653,0.51-1.129c0-0.199-0.036-0.378-0.108-0.535
		c-0.072-0.158-0.18-0.301-0.324-0.428s-0.322-0.246-0.536-0.357c-0.213-0.11-0.463-0.221-0.751-0.332L215.695,318.331z"/>
	<path d="M228.428,307.898l-5.694,13.514h-1.378l5.694-13.514H228.428z"/>
	<path d="M238.115,315.019c0,0.205-0.003,0.377-0.008,0.516c-0.005,0.138-0.014,0.268-0.025,0.39h-5.852
		c0,0.853,0.238,1.507,0.714,1.963c0.476,0.457,1.162,0.685,2.059,0.685c0.244,0,0.487-0.009,0.73-0.028s0.479-0.046,0.706-0.079
		s0.444-0.07,0.651-0.112c0.208-0.041,0.4-0.087,0.577-0.137v1.187c-0.393,0.111-0.837,0.201-1.332,0.271
		c-0.496,0.069-1.009,0.104-1.54,0.104c-0.714,0-1.328-0.097-1.843-0.29c-0.515-0.194-0.937-0.475-1.266-0.843
		c-0.33-0.368-0.573-0.819-0.73-1.354c-0.158-0.534-0.237-1.139-0.237-1.813c0-0.587,0.084-1.142,0.253-1.664
		c0.168-0.523,0.415-0.982,0.738-1.378c0.324-0.396,0.721-0.71,1.191-0.942s1.004-0.349,1.602-0.349
		c0.581,0,1.096,0.091,1.544,0.274c0.448,0.182,0.826,0.44,1.133,0.775c0.307,0.335,0.539,0.742,0.697,1.221
		C238.036,313.892,238.115,314.427,238.115,315.019z M236.613,314.812c0.017-0.371-0.02-0.71-0.108-1.017
		c-0.088-0.308-0.226-0.571-0.411-0.793c-0.185-0.222-0.416-0.395-0.693-0.519c-0.277-0.125-0.598-0.188-0.963-0.188
		c-0.315,0-0.603,0.062-0.863,0.184c-0.26,0.121-0.484,0.293-0.672,0.514c-0.188,0.222-0.34,0.487-0.457,0.797
		c-0.116,0.311-0.188,0.65-0.216,1.021H236.613z"/>
	<path d="M248.159,318.381l-0.091,3.37h-1.32v-2.125h-6.076v2.125h-1.303l-0.083-3.37h0.116c0.21,0,0.41-0.033,0.598-0.1
		s0.362-0.192,0.523-0.378s0.309-0.442,0.444-0.771c0.135-0.329,0.257-0.756,0.365-1.278c0.107-0.523,0.202-1.158,0.282-1.905
		c0.08-0.747,0.148-1.633,0.203-2.656h5.146v7.089H248.159z M245.519,312.537h-2.324c-0.055,0.952-0.127,1.763-0.216,2.433
		c-0.088,0.669-0.192,1.23-0.312,1.685c-0.119,0.454-0.256,0.816-0.411,1.087c-0.155,0.271-0.327,0.484-0.515,0.64h3.777V312.537z"
		/>
	<path d="M251.33,311.292v5.869l3.636-5.869h1.378v8.334h-1.444v-5.869l-3.636,5.869h-1.378v-8.334H251.33z"/>
	<path d="M265.815,319.626h-1.444v-3.686h-3.81v3.686h-1.444v-8.334h1.444v3.387h3.81v-3.387h1.444V319.626z"/>
	<path d="M270.023,311.292v5.869l3.636-5.869h1.378v8.334h-1.444v-5.869l-3.636,5.869h-1.378v-8.334H270.023z"/>
	<path d="M285.438,318.381l-0.083,3.37h-1.312v-2.125h-6.3v-8.334h1.444v7.089h3.802v-7.089h1.444v7.089H285.438z"/>
	<path d="M294.569,311.292l-2.839,7.454c-0.293,0.758-0.596,1.411-0.909,1.959c-0.313,0.548-0.655,0.997-1.025,1.349
		s-0.777,0.61-1.22,0.776s-0.938,0.249-1.486,0.249c-0.144,0-0.274-0.003-0.39-0.008c-0.116-0.006-0.244-0.015-0.382-0.025v-1.312
		c0.122,0.017,0.254,0.032,0.398,0.046s0.296,0.021,0.457,0.021c0.266,0,0.513-0.039,0.743-0.116
		c0.229-0.077,0.447-0.203,0.651-0.378c0.205-0.174,0.401-0.399,0.589-0.677c0.188-0.276,0.371-0.611,0.548-1.004l-3.329-8.334
		h1.644l2.108,5.512l0.423,1.295l0.481-1.328l1.951-5.479H294.569z"/>
	<path d="M298.204,307.267c2.551,2.362,3.827,4.991,3.827,7.885c0,0.598-0.061,1.218-0.183,1.859
		c-0.122,0.643-0.329,1.3-0.623,1.972c-0.293,0.673-0.688,1.354-1.183,2.046c-0.495,0.692-1.119,1.387-1.872,2.084l-0.838-0.855
		c1.079-1.067,1.884-2.183,2.416-3.345s0.797-2.38,0.797-3.652c0-2.634-1.071-5.003-3.212-7.105L298.204,307.267z"/>
</g>
</svg>
