<?xml version="1.0" encoding="utf-8"?>
<!-- Generator: Adobe Illustrator 15.1.0, SVG Export Plug-In . SVG Version: 6.00 Build 0)  -->
<!DOCTYPE svg PUBLIC "-//W3C//DTD SVG 1.1//EN" "http://www.w3.org/Graphics/SVG/1.1/DTD/svg11.dtd">
<svg version="1.1" id="Layer_1" xmlns="http://www.w3.org/2000/svg" xmlns:xlink="http://www.w3.org/1999/xlink" x="0px" y="0px"
	 width="785px" height="105px" viewBox="0 0 785 105" enable-background="new 0 0 785 105" xml:space="preserve">
<text transform="matrix(1.0391 0 0 1 -208.2058 -112.3184)" display="none" fill="#231F20" enable-background="new    " font-family="'Consolas'" font-size="17">R – Responsible – сотрудник, ответственный за фактическое исполнение KPI.</text>
<text transform="matrix(1.0391 0 0 1 -250.2058 -119.3184)" display="none" fill="#231F20" enable-background="new    " font-family="'Consolas'" font-size="17">R – Responsible – сотрудник, ответственный за фактическое исполнение KPI.</text>
<g>
	<g>
		<g>
			<rect x="163" y="74.126" fill="#6D6E70" width="141.379" height="1"/>
		</g>
		<g>
			<g>
				<path fill="#6D6E70" d="M308,74.626c-1.704-0.632-3.817-1.711-5.128-2.854l1.032,2.854l-1.032,2.853
					C304.182,76.337,306.296,75.258,308,74.626z"/>
			</g>
		</g>
	</g>
</g>
<g>
	<g>
		<g>
			<rect x="478" y="74.126" fill="#6D6E70" width="125.38" height="1"/>
		</g>
		<g>
			<g>
				<path fill="#6D6E70" d="M607,74.626c-1.703-0.632-3.817-1.711-5.129-2.854l1.032,2.854l-1.032,2.853
					C603.182,76.337,605.297,75.258,607,74.626z"/>
			</g>
		</g>
	</g>
</g>
<g>
	<rect x="4" y="44" fill="#B2B2B2" width="171" height="58"/>
</g>
<g>
	<g>
		<rect x="7.421" y="65.975" fill="none" width="164.28" height="45.692"/>
	</g>
	<g enable-background="new    ">
		<path fill="#565656" d="M51.203,77.703h-1.478v-9.537h-4.449v9.537h-1.478v-10.85h7.404V77.703z"/>
		<path fill="#565656" d="M60.758,73.47c0,0.647-0.091,1.241-0.274,1.78c-0.183,0.54-0.445,1.002-0.789,1.387
			s-0.761,0.684-1.253,0.896s-1.051,0.319-1.677,0.319c-0.598,0-1.133-0.093-1.606-0.278c-0.474-0.186-0.875-0.458-1.204-0.817
			c-0.329-0.359-0.581-0.806-0.755-1.337c-0.175-0.531-0.262-1.143-0.262-1.834c0-0.647,0.091-1.238,0.274-1.772
			s0.445-0.993,0.789-1.378s0.761-0.684,1.253-0.896s1.051-0.319,1.677-0.319c0.598,0,1.133,0.093,1.606,0.278
			c0.474,0.186,0.875,0.456,1.204,0.813c0.329,0.356,0.581,0.801,0.755,1.332C60.671,72.175,60.758,72.783,60.758,73.47z
			 M59.28,73.536c0-0.515-0.057-0.964-0.17-1.349c-0.114-0.385-0.275-0.706-0.486-0.963c-0.21-0.258-0.466-0.451-0.768-0.581
			c-0.301-0.13-0.638-0.195-1.008-0.195c-0.432,0-0.801,0.084-1.108,0.253c-0.308,0.169-0.559,0.395-0.756,0.677
			c-0.196,0.282-0.34,0.61-0.432,0.983c-0.091,0.374-0.137,0.766-0.137,1.175c0,0.515,0.057,0.966,0.17,1.353
			c0.114,0.388,0.275,0.71,0.486,0.968c0.21,0.257,0.465,0.451,0.764,0.581s0.636,0.195,1.013,0.195
			c0.432,0,0.801-0.085,1.108-0.254c0.308-0.169,0.559-0.395,0.756-0.676c0.196-0.283,0.34-0.61,0.432-0.984
			C59.234,74.346,59.28,73.951,59.28,73.536z"/>
		<path fill="#565656" d="M70.586,76.458l-0.091,3.37h-1.32v-2.125h-6.076v2.125h-1.303l-0.083-3.37h0.116
			c0.21,0,0.41-0.033,0.598-0.1s0.362-0.192,0.523-0.378s0.309-0.442,0.444-0.771c0.135-0.329,0.257-0.756,0.365-1.278
			c0.107-0.523,0.202-1.158,0.282-1.905c0.08-0.747,0.148-1.633,0.203-2.656h5.146v7.089H70.586z M67.946,70.614h-2.324
			c-0.055,0.952-0.127,1.763-0.216,2.433c-0.088,0.669-0.192,1.23-0.312,1.685c-0.119,0.454-0.256,0.816-0.411,1.087
			c-0.155,0.271-0.327,0.484-0.515,0.64h3.777V70.614z"/>
		<path fill="#565656" d="M74.338,70.614v7.089h-1.461v-8.334h6.035v1.245H74.338z"/>
		<path fill="#565656" d="M88.798,73.47c0,0.647-0.091,1.241-0.274,1.78c-0.183,0.54-0.445,1.002-0.789,1.387
			s-0.761,0.684-1.253,0.896s-1.051,0.319-1.677,0.319c-0.598,0-1.133-0.093-1.606-0.278c-0.474-0.186-0.875-0.458-1.204-0.817
			c-0.329-0.359-0.581-0.806-0.755-1.337c-0.175-0.531-0.262-1.143-0.262-1.834c0-0.647,0.091-1.238,0.274-1.772
			s0.445-0.993,0.789-1.378s0.761-0.684,1.253-0.896s1.051-0.319,1.677-0.319c0.598,0,1.133,0.093,1.606,0.278
			c0.474,0.186,0.875,0.456,1.204,0.813c0.329,0.356,0.581,0.801,0.755,1.332C88.711,72.175,88.798,72.783,88.798,73.47z
			 M87.32,73.536c0-0.515-0.057-0.964-0.17-1.349c-0.114-0.385-0.275-0.706-0.486-0.963c-0.21-0.258-0.466-0.451-0.768-0.581
			c-0.301-0.13-0.638-0.195-1.008-0.195c-0.432,0-0.801,0.084-1.108,0.253c-0.308,0.169-0.559,0.395-0.756,0.677
			c-0.196,0.282-0.34,0.61-0.432,0.983c-0.091,0.374-0.137,0.766-0.137,1.175c0,0.515,0.057,0.966,0.17,1.353
			c0.114,0.388,0.275,0.71,0.486,0.968c0.21,0.257,0.465,0.451,0.764,0.581s0.636,0.195,1.013,0.195
			c0.432,0,0.801-0.085,1.108-0.254c0.308-0.169,0.559-0.395,0.756-0.676c0.196-0.283,0.34-0.61,0.432-0.984
			C87.274,74.346,87.32,73.951,87.32,73.536z"/>
		<path fill="#565656" d="M98.128,70.614h-3.163v7.089h-1.461v-7.089h-3.163v-1.245h7.786V70.614z"/>
		<path fill="#565656" d="M107.491,73.47c0,0.647-0.091,1.241-0.274,1.78c-0.183,0.54-0.445,1.002-0.789,1.387
			s-0.761,0.684-1.253,0.896s-1.051,0.319-1.677,0.319c-0.598,0-1.133-0.093-1.606-0.278c-0.474-0.186-0.875-0.458-1.204-0.817
			c-0.329-0.359-0.581-0.806-0.755-1.337c-0.175-0.531-0.262-1.143-0.262-1.834c0-0.647,0.091-1.238,0.274-1.772
			s0.445-0.993,0.789-1.378s0.761-0.684,1.253-0.896s1.051-0.319,1.677-0.319c0.598,0,1.133,0.093,1.606,0.278
			c0.474,0.186,0.875,0.456,1.204,0.813c0.329,0.356,0.581,0.801,0.755,1.332C107.404,72.175,107.491,72.783,107.491,73.47z
			 M106.013,73.536c0-0.515-0.057-0.964-0.17-1.349c-0.114-0.385-0.275-0.706-0.486-0.963c-0.21-0.258-0.466-0.451-0.768-0.581
			c-0.301-0.13-0.638-0.195-1.008-0.195c-0.432,0-0.801,0.084-1.108,0.253c-0.308,0.169-0.559,0.395-0.756,0.677
			c-0.196,0.282-0.34,0.61-0.432,0.983c-0.091,0.374-0.137,0.766-0.137,1.175c0,0.515,0.057,0.966,0.17,1.353
			c0.114,0.388,0.275,0.71,0.486,0.968c0.21,0.257,0.465,0.451,0.764,0.581s0.636,0.195,1.013,0.195
			c0.432,0,0.801-0.085,1.108-0.254c0.308-0.169,0.559-0.395,0.756-0.676c0.196-0.283,0.34-0.61,0.432-0.984
			C105.968,74.346,106.013,73.951,106.013,73.536z"/>
		<path fill="#565656" d="M116.738,75.271c0,0.381-0.08,0.73-0.241,1.045c-0.161,0.316-0.41,0.586-0.747,0.81
			c-0.337,0.225-0.765,0.398-1.283,0.523c-0.517,0.124-1.133,0.187-1.847,0.187c-0.47,0-0.971-0.018-1.502-0.054
			s-1.043-0.085-1.536-0.146V69.41c0.52-0.061,1.047-0.107,1.581-0.141c0.534-0.033,1.111-0.05,1.731-0.05
			c1.124,0,1.977,0.184,2.561,0.552c0.583,0.368,0.875,0.898,0.875,1.59c0,0.471-0.136,0.874-0.407,1.212s-0.681,0.587-1.229,0.747
			c0.266,0.044,0.521,0.117,0.768,0.22c0.247,0.103,0.464,0.235,0.652,0.398s0.339,0.355,0.453,0.577
			C116.681,74.737,116.738,74.988,116.738,75.271z M114.854,71.652c0-0.194-0.039-0.368-0.116-0.523s-0.201-0.288-0.37-0.398
			c-0.168-0.11-0.39-0.195-0.664-0.253c-0.273-0.059-0.604-0.087-0.992-0.087c-0.349,0-0.653,0.007-0.913,0.021
			s-0.518,0.037-0.772,0.07v2.407h1.677C114.137,72.889,114.854,72.477,114.854,71.652z M115.211,75.305
			c0-0.432-0.195-0.757-0.585-0.976c-0.391-0.219-0.998-0.328-1.822-0.328h-1.776v2.548c0.271,0.045,0.54,0.075,0.805,0.092
			s0.57,0.025,0.913,0.025c0.493,0,0.898-0.033,1.216-0.1c0.318-0.066,0.57-0.161,0.755-0.283c0.186-0.121,0.314-0.266,0.386-0.432
			S115.211,75.504,115.211,75.305z"/>
		<path fill="#565656" d="M126.425,77.703h-1.984l-3.885-4.466v4.466h-1.444v-8.334h1.444v3.811l3.744-3.811h1.909l-3.91,3.844
			L126.425,77.703z"/>
		<path fill="#565656" d="M133.63,77.703l-0.033-1.121c-0.454,0.449-0.915,0.772-1.382,0.972c-0.467,0.199-0.958,0.299-1.473,0.299
			c-0.476,0-0.883-0.061-1.22-0.183s-0.616-0.289-0.834-0.502c-0.219-0.213-0.379-0.464-0.481-0.752
			c-0.103-0.287-0.154-0.6-0.154-0.938c0-0.836,0.311-1.49,0.934-1.963c0.622-0.474,1.542-0.71,2.76-0.71h1.727v-0.73
			c0-0.492-0.158-0.887-0.473-1.183s-0.797-0.444-1.444-0.444c-0.47,0-0.934,0.053-1.39,0.157c-0.457,0.105-0.929,0.255-1.416,0.449
			v-1.304c0.183-0.066,0.386-0.132,0.61-0.195c0.225-0.063,0.461-0.12,0.71-0.17s0.509-0.09,0.78-0.12s0.545-0.046,0.822-0.046
			c0.503,0,0.958,0.056,1.361,0.166s0.746,0.279,1.025,0.507c0.28,0.227,0.494,0.512,0.644,0.854s0.224,0.747,0.224,1.212v5.744
			H133.63z M133.472,73.91h-1.834c-0.36,0-0.669,0.035-0.93,0.107s-0.473,0.174-0.639,0.307s-0.289,0.292-0.369,0.478
			c-0.081,0.186-0.121,0.395-0.121,0.627c0,0.16,0.025,0.314,0.075,0.461s0.13,0.276,0.241,0.39s0.254,0.203,0.432,0.27
			s0.393,0.1,0.647,0.1c0.332,0,0.712-0.101,1.141-0.303c0.429-0.202,0.881-0.521,1.357-0.959V73.91z"/>
	</g>
</g>
<g>
	<g>
		<rect x="7.421" y="6.974" fill="none" width="164.28" height="45.693"/>
	</g>
	<g enable-background="new    ">
		<path fill="#565656" d="M84.448,16.305h-1.851v2.398h-1.478v-2.398h-5.221v-1.271l4.624-7.181h2.075v7.181h1.851V16.305z
			 M81.119,9.248l-3.777,5.786h3.777V9.248z"/>
		<path fill="#565656" d="M93.504,13.283c0,0.83-0.083,1.586-0.249,2.27s-0.418,1.271-0.755,1.76
			c-0.337,0.49-0.757,0.869-1.257,1.138c-0.501,0.269-1.089,0.402-1.764,0.402c-0.581,0-1.109-0.109-1.585-0.328
			s-0.883-0.555-1.22-1.009c-0.337-0.453-0.598-1.031-0.78-1.734s-0.274-1.535-0.274-2.498c0-0.83,0.084-1.589,0.253-2.275
			c0.169-0.686,0.421-1.273,0.756-1.764c0.334-0.489,0.754-0.868,1.257-1.137s1.09-0.402,1.76-0.402
			c0.581,0,1.109,0.108,1.585,0.327s0.883,0.557,1.22,1.013c0.337,0.457,0.598,1.036,0.78,1.739S93.504,12.32,93.504,13.283z
			 M87.079,13.232c0,0.172,0.001,0.344,0.004,0.516c0.003,0.171,0.013,0.337,0.029,0.498l4.59-3.396
			c-0.083-0.282-0.188-0.54-0.315-0.772s-0.279-0.433-0.457-0.602s-0.379-0.3-0.606-0.395c-0.227-0.094-0.481-0.141-0.764-0.141
			c-0.376,0-0.718,0.092-1.025,0.273c-0.308,0.184-0.569,0.456-0.785,0.818s-0.382,0.811-0.498,1.345S87.079,12.53,87.079,13.232z
			 M92.043,13.332c0-0.188-0.007-0.374-0.021-0.56c-0.014-0.186-0.029-0.367-0.046-0.544l-4.59,3.412
			c0.083,0.287,0.188,0.553,0.315,0.797c0.127,0.243,0.281,0.452,0.46,0.626c0.18,0.175,0.385,0.311,0.614,0.407
			c0.23,0.097,0.491,0.145,0.785,0.145c0.376,0,0.718-0.091,1.025-0.273c0.308-0.183,0.569-0.454,0.785-0.813
			s0.382-0.807,0.498-1.341S92.043,14.035,92.043,13.332z"/>
		<path fill="#565656" d="M103.415,6.975l-7.653,11.729h-1.361l7.637-11.729H103.415z M98.991,9.299c0,0.359-0.053,0.692-0.158,1
			c-0.105,0.307-0.256,0.572-0.452,0.797c-0.197,0.224-0.435,0.401-0.714,0.531c-0.28,0.13-0.591,0.195-0.934,0.195
			c-0.337,0-0.641-0.053-0.909-0.158c-0.269-0.105-0.498-0.262-0.689-0.469c-0.19-0.208-0.337-0.464-0.439-0.768
			c-0.103-0.305-0.154-0.656-0.154-1.055c0-0.354,0.053-0.685,0.158-0.992c0.105-0.307,0.256-0.574,0.452-0.801
			c0.197-0.227,0.435-0.404,0.714-0.531c0.28-0.127,0.591-0.191,0.934-0.191c0.337,0,0.641,0.053,0.909,0.158
			c0.269,0.105,0.498,0.26,0.689,0.465c0.19,0.205,0.337,0.459,0.439,0.764C98.94,8.549,98.991,8.9,98.991,9.299z M97.771,9.34
			c0-0.487-0.088-0.847-0.266-1.079s-0.423-0.349-0.739-0.349c-0.161,0-0.303,0.036-0.427,0.107
			c-0.125,0.072-0.23,0.172-0.315,0.299c-0.086,0.128-0.151,0.278-0.195,0.453c-0.044,0.174-0.066,0.363-0.066,0.568
			c0,0.487,0.088,0.847,0.266,1.079s0.423,0.349,0.739,0.349c0.161,0,0.303-0.036,0.427-0.107c0.125-0.072,0.23-0.172,0.315-0.299
			c0.086-0.128,0.151-0.278,0.195-0.453C97.749,9.734,97.771,9.545,97.771,9.34z M103.282,16.305c0,0.359-0.054,0.691-0.162,0.996
			c-0.107,0.304-0.26,0.569-0.456,0.797c-0.197,0.227-0.435,0.403-0.714,0.531c-0.28,0.127-0.591,0.19-0.934,0.19
			c-0.337,0-0.641-0.053-0.909-0.157c-0.269-0.105-0.498-0.261-0.689-0.465c-0.19-0.205-0.337-0.461-0.439-0.769
			c-0.103-0.307-0.154-0.659-0.154-1.058c0-0.354,0.053-0.686,0.158-0.992c0.105-0.308,0.256-0.574,0.452-0.801
			c0.197-0.228,0.435-0.404,0.714-0.531c0.28-0.128,0.591-0.191,0.934-0.191c0.337,0,0.642,0.053,0.913,0.158
			c0.271,0.104,0.502,0.261,0.693,0.469c0.191,0.207,0.338,0.463,0.44,0.768C103.231,15.555,103.282,15.906,103.282,16.305z
			 M102.062,16.338c0-0.487-0.09-0.848-0.27-1.08c-0.18-0.232-0.427-0.348-0.743-0.348c-0.161,0-0.303,0.035-0.427,0.107
			c-0.125,0.072-0.23,0.172-0.315,0.299c-0.086,0.127-0.151,0.278-0.195,0.452c-0.044,0.175-0.066,0.364-0.066,0.569
			c0,0.486,0.088,0.846,0.266,1.078s0.423,0.35,0.739,0.35c0.161,0,0.303-0.036,0.427-0.108c0.125-0.072,0.231-0.172,0.32-0.299
			s0.155-0.278,0.199-0.452C102.04,16.731,102.062,16.542,102.062,16.338z"/>
	</g>
</g>
<g>
	<g>
		<rect x="614.422" y="6.974" fill="none" width="164.279" height="45.693"/>
	</g>
	<g enable-background="new    ">
		<path fill="#231F20" d="M691.448,16.305h-1.851v2.398h-1.479v-2.398h-5.221v-1.271l4.623-7.181h2.076v7.181h1.851V16.305z
			 M688.119,9.248l-3.776,5.786h3.776V9.248z"/>
		<path fill="#231F20" d="M700.504,13.283c0,0.83-0.082,1.586-0.248,2.27s-0.418,1.271-0.756,1.76
			c-0.338,0.49-0.757,0.869-1.258,1.138c-0.5,0.269-1.088,0.402-1.764,0.402c-0.581,0-1.109-0.109-1.586-0.328
			c-0.476-0.219-0.883-0.555-1.22-1.009c-0.337-0.453-0.598-1.031-0.78-1.734s-0.273-1.535-0.273-2.498
			c0-0.83,0.084-1.589,0.252-2.275c0.17-0.686,0.422-1.273,0.756-1.764c0.335-0.489,0.754-0.868,1.258-1.137s1.09-0.402,1.76-0.402
			c0.581,0,1.109,0.108,1.586,0.327c0.476,0.219,0.883,0.557,1.22,1.013c0.337,0.457,0.598,1.036,0.78,1.739
			S700.504,12.32,700.504,13.283z M694.08,13.232c0,0.172,0.001,0.344,0.004,0.516c0.002,0.171,0.012,0.337,0.029,0.498l4.59-3.396
			c-0.083-0.282-0.188-0.54-0.315-0.772s-0.279-0.433-0.456-0.602c-0.178-0.169-0.379-0.3-0.606-0.395
			c-0.228-0.094-0.481-0.141-0.764-0.141c-0.376,0-0.718,0.092-1.024,0.273c-0.309,0.184-0.569,0.456-0.785,0.818
			s-0.382,0.811-0.498,1.345S694.08,12.53,694.08,13.232z M699.043,13.332c0-0.188-0.006-0.374-0.02-0.56
			c-0.015-0.186-0.029-0.367-0.047-0.544l-4.59,3.412c0.083,0.287,0.188,0.553,0.315,0.797c0.128,0.243,0.28,0.452,0.46,0.626
			c0.181,0.175,0.385,0.311,0.615,0.407c0.229,0.097,0.49,0.145,0.784,0.145c0.376,0,0.718-0.091,1.024-0.273
			c0.309-0.183,0.569-0.454,0.785-0.813s0.382-0.807,0.498-1.341S699.043,14.035,699.043,13.332z"/>
		<path fill="#231F20" d="M710.416,6.975l-7.654,11.729H701.4l7.637-11.729H710.416z M705.991,9.299c0,0.359-0.053,0.692-0.157,1
			c-0.105,0.307-0.256,0.572-0.453,0.797c-0.196,0.224-0.434,0.401-0.713,0.531c-0.28,0.13-0.592,0.195-0.935,0.195
			c-0.337,0-0.641-0.053-0.909-0.158c-0.268-0.105-0.498-0.262-0.689-0.469c-0.189-0.208-0.337-0.464-0.439-0.768
			c-0.102-0.305-0.153-0.656-0.153-1.055c0-0.354,0.053-0.685,0.157-0.992c0.105-0.307,0.256-0.574,0.453-0.801
			c0.196-0.227,0.434-0.404,0.713-0.531c0.28-0.127,0.592-0.191,0.935-0.191c0.337,0,0.641,0.053,0.909,0.158
			c0.268,0.105,0.498,0.26,0.689,0.465c0.189,0.205,0.337,0.459,0.439,0.764C705.939,8.549,705.991,8.9,705.991,9.299z
			 M704.771,9.34c0-0.487-0.089-0.847-0.266-1.079c-0.178-0.232-0.424-0.349-0.739-0.349c-0.161,0-0.304,0.036-0.427,0.107
			c-0.125,0.072-0.23,0.172-0.316,0.299c-0.086,0.128-0.15,0.278-0.195,0.453c-0.044,0.174-0.066,0.363-0.066,0.568
			c0,0.487,0.089,0.847,0.266,1.079c0.178,0.232,0.424,0.349,0.739,0.349c0.161,0,0.304-0.036,0.427-0.107
			c0.125-0.072,0.23-0.172,0.316-0.299c0.086-0.128,0.15-0.278,0.195-0.453C704.749,9.734,704.771,9.545,704.771,9.34z
			 M710.283,16.305c0,0.359-0.055,0.691-0.162,0.996c-0.107,0.304-0.26,0.569-0.457,0.797c-0.196,0.227-0.434,0.403-0.713,0.531
			c-0.28,0.127-0.592,0.19-0.935,0.19c-0.337,0-0.641-0.053-0.909-0.157c-0.268-0.105-0.498-0.261-0.689-0.465
			c-0.189-0.205-0.337-0.461-0.439-0.769c-0.102-0.307-0.153-0.659-0.153-1.058c0-0.354,0.053-0.686,0.157-0.992
			c0.105-0.308,0.256-0.574,0.453-0.801c0.196-0.228,0.434-0.404,0.713-0.531c0.28-0.128,0.592-0.191,0.935-0.191
			c0.337,0,0.642,0.053,0.913,0.158c0.271,0.104,0.502,0.261,0.693,0.469c0.191,0.207,0.338,0.463,0.439,0.768
			C710.231,15.555,710.283,15.906,710.283,16.305z M709.062,16.338c0-0.487-0.09-0.848-0.27-1.08s-0.428-0.348-0.743-0.348
			c-0.161,0-0.304,0.035-0.427,0.107c-0.125,0.072-0.23,0.172-0.316,0.299s-0.15,0.278-0.195,0.452
			c-0.044,0.175-0.066,0.364-0.066,0.569c0,0.486,0.089,0.846,0.266,1.078c0.178,0.232,0.424,0.35,0.739,0.35
			c0.161,0,0.304-0.036,0.427-0.108c0.125-0.072,0.232-0.172,0.32-0.299s0.154-0.278,0.199-0.452
			C709.041,16.731,709.062,16.542,709.062,16.338z"/>
	</g>
</g>
<g>
	<g>
		<rect x="315.421" y="6.974" fill="none" width="164.28" height="45.693"/>
	</g>
	<g enable-background="new    ">
		<path fill="#565656" d="M391.908,18.703h-7.147v-1.295l2.806-2.789c0.459-0.454,0.833-0.847,1.121-1.179s0.512-0.635,0.672-0.909
			c0.161-0.273,0.269-0.532,0.324-0.775c0.055-0.244,0.083-0.507,0.083-0.789c0-0.266-0.036-0.519-0.108-0.76
			c-0.072-0.24-0.183-0.452-0.332-0.635s-0.343-0.326-0.581-0.432s-0.523-0.158-0.855-0.158c-0.459,0-0.877,0.103-1.253,0.308
			s-0.722,0.471-1.038,0.797l-0.797-0.954c0.41-0.432,0.881-0.778,1.415-1.038c0.534-0.26,1.155-0.39,1.864-0.39
			c0.481,0,0.92,0.071,1.316,0.215c0.396,0.145,0.737,0.352,1.025,0.623s0.51,0.604,0.668,0.996
			c0.157,0.393,0.236,0.836,0.236,1.328c0,0.415-0.055,0.8-0.166,1.154c-0.111,0.354-0.278,0.706-0.502,1.058
			c-0.225,0.352-0.507,0.716-0.847,1.092c-0.341,0.376-0.743,0.788-1.208,1.237l-1.967,1.917h5.271V18.703z"/>
		<path fill="#565656" d="M401.504,13.283c0,0.83-0.082,1.586-0.248,2.27s-0.418,1.271-0.756,1.76
			c-0.338,0.49-0.757,0.869-1.258,1.138c-0.5,0.269-1.088,0.402-1.764,0.402c-0.581,0-1.109-0.109-1.586-0.328
			c-0.476-0.219-0.883-0.555-1.22-1.009c-0.337-0.453-0.598-1.031-0.78-1.734s-0.273-1.535-0.273-2.498
			c0-0.83,0.084-1.589,0.252-2.275c0.17-0.686,0.422-1.273,0.756-1.764c0.335-0.489,0.754-0.868,1.258-1.137s1.09-0.402,1.76-0.402
			c0.581,0,1.109,0.108,1.586,0.327c0.476,0.219,0.883,0.557,1.22,1.013c0.337,0.457,0.598,1.036,0.78,1.739
			S401.504,12.32,401.504,13.283z M395.08,13.232c0,0.172,0.001,0.344,0.004,0.516c0.002,0.171,0.012,0.337,0.029,0.498l4.59-3.396
			c-0.083-0.282-0.188-0.54-0.315-0.772s-0.279-0.433-0.456-0.602c-0.178-0.169-0.379-0.3-0.606-0.395
			c-0.228-0.094-0.481-0.141-0.764-0.141c-0.376,0-0.718,0.092-1.024,0.273c-0.309,0.184-0.569,0.456-0.785,0.818
			s-0.382,0.811-0.498,1.345S395.08,12.53,395.08,13.232z M400.043,13.332c0-0.188-0.006-0.374-0.02-0.56
			c-0.015-0.186-0.029-0.367-0.047-0.544l-4.59,3.412c0.083,0.287,0.188,0.553,0.315,0.797c0.128,0.243,0.28,0.452,0.46,0.626
			c0.181,0.175,0.385,0.311,0.615,0.407c0.229,0.097,0.49,0.145,0.784,0.145c0.376,0,0.718-0.091,1.024-0.273
			c0.309-0.183,0.569-0.454,0.785-0.813s0.382-0.807,0.498-1.341S400.043,14.035,400.043,13.332z"/>
		<path fill="#565656" d="M411.416,6.975l-7.654,11.729H402.4l7.637-11.729H411.416z M406.991,9.299c0,0.359-0.053,0.692-0.157,1
			c-0.105,0.307-0.256,0.572-0.453,0.797c-0.196,0.224-0.434,0.401-0.713,0.531c-0.28,0.13-0.592,0.195-0.935,0.195
			c-0.337,0-0.641-0.053-0.909-0.158c-0.268-0.105-0.498-0.262-0.689-0.469c-0.189-0.208-0.337-0.464-0.439-0.768
			c-0.102-0.305-0.153-0.656-0.153-1.055c0-0.354,0.053-0.685,0.157-0.992c0.105-0.307,0.256-0.574,0.453-0.801
			c0.196-0.227,0.434-0.404,0.713-0.531c0.28-0.127,0.592-0.191,0.935-0.191c0.337,0,0.641,0.053,0.909,0.158
			c0.268,0.105,0.498,0.26,0.689,0.465c0.189,0.205,0.337,0.459,0.439,0.764C406.939,8.549,406.991,8.9,406.991,9.299z
			 M405.771,9.34c0-0.487-0.089-0.847-0.266-1.079c-0.178-0.232-0.424-0.349-0.739-0.349c-0.161,0-0.304,0.036-0.427,0.107
			c-0.125,0.072-0.23,0.172-0.316,0.299c-0.086,0.128-0.15,0.278-0.195,0.453c-0.044,0.174-0.066,0.363-0.066,0.568
			c0,0.487,0.089,0.847,0.266,1.079c0.178,0.232,0.424,0.349,0.739,0.349c0.161,0,0.304-0.036,0.427-0.107
			c0.125-0.072,0.23-0.172,0.316-0.299c0.086-0.128,0.15-0.278,0.195-0.453C405.749,9.734,405.771,9.545,405.771,9.34z
			 M411.283,16.305c0,0.359-0.055,0.691-0.162,0.996c-0.107,0.304-0.26,0.569-0.457,0.797c-0.196,0.227-0.434,0.403-0.713,0.531
			c-0.28,0.127-0.592,0.19-0.935,0.19c-0.337,0-0.641-0.053-0.909-0.157c-0.268-0.105-0.498-0.261-0.689-0.465
			c-0.189-0.205-0.337-0.461-0.439-0.769c-0.102-0.307-0.153-0.659-0.153-1.058c0-0.354,0.053-0.686,0.157-0.992
			c0.105-0.308,0.256-0.574,0.453-0.801c0.196-0.228,0.434-0.404,0.713-0.531c0.28-0.128,0.592-0.191,0.935-0.191
			c0.337,0,0.642,0.053,0.913,0.158c0.271,0.104,0.502,0.261,0.693,0.469c0.191,0.207,0.338,0.463,0.439,0.768
			C411.231,15.555,411.283,15.906,411.283,16.305z M410.062,16.338c0-0.487-0.09-0.848-0.27-1.08s-0.428-0.348-0.743-0.348
			c-0.161,0-0.304,0.035-0.427,0.107c-0.125,0.072-0.23,0.172-0.316,0.299s-0.15,0.278-0.195,0.452
			c-0.044,0.175-0.066,0.364-0.066,0.569c0,0.486,0.089,0.846,0.266,1.078c0.178,0.232,0.424,0.35,0.739,0.35
			c0.161,0,0.304-0.036,0.427-0.108c0.125-0.072,0.232-0.172,0.32-0.299s0.154-0.278,0.199-0.452
			C410.041,16.731,410.062,16.542,410.062,16.338z"/>
	</g>
</g>
<g>
	<rect x="311" y="44" fill="#B2B2B2" width="171" height="58"/>
</g>
<g>
	<g>
		<rect x="314.421" y="65.975" fill="none" width="164.28" height="45.692"/>
	</g>
	<g enable-background="new    ">
		<path fill="#565656" d="M358.203,77.703h-1.478v-9.537h-4.449v9.537h-1.478v-10.85h7.404V77.703z"/>
		<path fill="#565656" d="M367.625,73.387c0,0.741-0.104,1.389-0.312,1.942c-0.207,0.554-0.494,1.013-0.859,1.378
			s-0.797,0.639-1.295,0.822c-0.498,0.182-1.038,0.273-1.619,0.273c-0.266,0-0.53-0.014-0.793-0.041
			c-0.263-0.028-0.53-0.075-0.801-0.142v3.486h-1.444V69.369h1.287l0.091,1.395c0.415-0.57,0.858-0.97,1.328-1.199
			s0.979-0.345,1.527-0.345c0.476,0,0.894,0.1,1.253,0.299s0.661,0.48,0.905,0.843s0.426,0.8,0.548,1.312
			S367.625,72.756,367.625,73.387z M366.147,73.453c0-0.438-0.032-0.838-0.096-1.203c-0.063-0.365-0.165-0.679-0.303-0.938
			s-0.315-0.464-0.531-0.61s-0.473-0.22-0.772-0.22c-0.183,0-0.368,0.029-0.556,0.087c-0.188,0.059-0.383,0.155-0.585,0.291
			c-0.202,0.136-0.415,0.315-0.64,0.539c-0.224,0.225-0.463,0.502-0.718,0.834v4.043c0.266,0.11,0.545,0.198,0.838,0.262
			s0.581,0.096,0.863,0.096c0.78,0,1.392-0.265,1.834-0.793S366.147,74.516,366.147,73.453z"/>
		<path fill="#565656" d="M377.104,73.47c0,0.647-0.091,1.241-0.274,1.78c-0.183,0.54-0.445,1.002-0.789,1.387
			s-0.761,0.684-1.253,0.896s-1.051,0.319-1.677,0.319c-0.598,0-1.133-0.093-1.606-0.278c-0.474-0.186-0.875-0.458-1.204-0.817
			c-0.329-0.359-0.581-0.806-0.755-1.337c-0.175-0.531-0.262-1.143-0.262-1.834c0-0.647,0.091-1.238,0.274-1.772
			s0.445-0.993,0.789-1.378s0.761-0.684,1.253-0.896s1.051-0.319,1.677-0.319c0.598,0,1.133,0.093,1.606,0.278
			c0.474,0.186,0.875,0.456,1.204,0.813c0.329,0.356,0.581,0.801,0.755,1.332C377.017,72.175,377.104,72.783,377.104,73.47z
			 M375.627,73.536c0-0.515-0.057-0.964-0.17-1.349c-0.114-0.385-0.275-0.706-0.486-0.963c-0.21-0.258-0.466-0.451-0.768-0.581
			c-0.301-0.13-0.638-0.195-1.008-0.195c-0.432,0-0.801,0.084-1.108,0.253c-0.308,0.169-0.559,0.395-0.756,0.677
			c-0.196,0.282-0.34,0.61-0.432,0.983c-0.091,0.374-0.137,0.766-0.137,1.175c0,0.515,0.057,0.966,0.17,1.353
			c0.114,0.388,0.275,0.71,0.486,0.968c0.21,0.257,0.465,0.451,0.764,0.581s0.636,0.195,1.013,0.195
			c0.432,0,0.801-0.085,1.108-0.254c0.308-0.169,0.559-0.395,0.756-0.676c0.196-0.283,0.34-0.61,0.432-0.984
			C375.581,74.346,375.627,73.951,375.627,73.536z"/>
		<path fill="#565656" d="M386.351,75.271c0,0.381-0.08,0.73-0.241,1.045c-0.161,0.316-0.41,0.586-0.747,0.81
			c-0.337,0.225-0.765,0.398-1.283,0.523c-0.517,0.124-1.133,0.187-1.847,0.187c-0.47,0-0.971-0.018-1.502-0.054
			s-1.043-0.085-1.536-0.146V69.41c0.52-0.061,1.047-0.107,1.581-0.141c0.534-0.033,1.111-0.05,1.731-0.05
			c1.124,0,1.977,0.184,2.561,0.552c0.583,0.368,0.875,0.898,0.875,1.59c0,0.471-0.136,0.874-0.407,1.212s-0.681,0.587-1.229,0.747
			c0.266,0.044,0.521,0.117,0.768,0.22c0.247,0.103,0.464,0.235,0.652,0.398s0.339,0.355,0.453,0.577
			C386.295,74.737,386.351,74.988,386.351,75.271z M384.467,71.652c0-0.194-0.039-0.368-0.116-0.523s-0.201-0.288-0.37-0.398
			c-0.168-0.11-0.39-0.195-0.664-0.253c-0.273-0.059-0.604-0.087-0.992-0.087c-0.349,0-0.653,0.007-0.913,0.021
			s-0.518,0.037-0.772,0.07v2.407h1.677C383.75,72.889,384.467,72.477,384.467,71.652z M384.824,75.305
			c0-0.432-0.195-0.757-0.585-0.976c-0.391-0.219-0.998-0.328-1.822-0.328h-1.776v2.548c0.271,0.045,0.54,0.075,0.805,0.092
			s0.57,0.025,0.913,0.025c0.493,0,0.898-0.033,1.216-0.1c0.318-0.066,0.57-0.161,0.755-0.283c0.186-0.121,0.314-0.266,0.386-0.432
			S384.824,75.504,384.824,75.305z"/>
		<path fill="#565656" d="M395.582,73.096c0,0.205-0.003,0.377-0.008,0.516c-0.006,0.138-0.014,0.268-0.025,0.39h-5.852
			c0,0.853,0.238,1.507,0.714,1.963c0.476,0.457,1.162,0.685,2.059,0.685c0.244,0,0.487-0.009,0.73-0.028
			c0.244-0.02,0.479-0.046,0.706-0.079s0.444-0.07,0.651-0.112c0.208-0.041,0.4-0.087,0.577-0.137v1.187
			c-0.394,0.111-0.837,0.201-1.332,0.271s-1.009,0.104-1.54,0.104c-0.714,0-1.328-0.097-1.843-0.29
			c-0.515-0.194-0.937-0.475-1.266-0.843c-0.33-0.368-0.573-0.819-0.73-1.354c-0.158-0.534-0.237-1.139-0.237-1.813
			c0-0.587,0.084-1.142,0.253-1.664c0.168-0.523,0.415-0.982,0.738-1.378c0.324-0.396,0.721-0.71,1.191-0.942
			s1.004-0.349,1.602-0.349c0.581,0,1.095,0.091,1.544,0.274c0.447,0.182,0.825,0.44,1.133,0.775
			c0.307,0.335,0.539,0.742,0.697,1.221C395.503,71.969,395.582,72.504,395.582,73.096z M394.08,72.889
			c0.016-0.371-0.02-0.71-0.108-1.017c-0.089-0.308-0.226-0.571-0.411-0.793s-0.416-0.395-0.693-0.519
			c-0.277-0.125-0.598-0.188-0.963-0.188c-0.315,0-0.603,0.062-0.863,0.184c-0.26,0.121-0.484,0.293-0.672,0.514
			c-0.188,0.222-0.34,0.487-0.457,0.797c-0.116,0.311-0.188,0.65-0.216,1.021H394.08z"/>
		<path fill="#565656" d="M405.626,76.458l-0.091,3.37h-1.32v-2.125h-6.076v2.125h-1.303l-0.084-3.37h0.117
			c0.21,0,0.409-0.033,0.598-0.1c0.188-0.066,0.361-0.192,0.522-0.378s0.309-0.442,0.444-0.771c0.135-0.329,0.257-0.756,0.365-1.278
			c0.107-0.523,0.201-1.158,0.282-1.905c0.08-0.747,0.147-1.633,0.203-2.656h5.146v7.089H405.626z M402.986,70.614h-2.324
			c-0.055,0.952-0.127,1.763-0.216,2.433c-0.089,0.669-0.192,1.23-0.312,1.685s-0.256,0.816-0.41,1.087
			c-0.155,0.271-0.327,0.484-0.516,0.64h3.777V70.614z"/>
		<path fill="#565656" d="M414.275,73.096c0,0.205-0.003,0.377-0.008,0.516c-0.006,0.138-0.014,0.268-0.025,0.39h-5.852
			c0,0.853,0.237,1.507,0.713,1.963c0.477,0.457,1.162,0.685,2.059,0.685c0.244,0,0.487-0.009,0.73-0.028
			c0.244-0.02,0.479-0.046,0.706-0.079s0.444-0.07,0.651-0.112c0.208-0.041,0.4-0.087,0.577-0.137v1.187
			c-0.394,0.111-0.837,0.201-1.332,0.271s-1.009,0.104-1.54,0.104c-0.714,0-1.328-0.097-1.843-0.29
			c-0.515-0.194-0.937-0.475-1.266-0.843s-0.573-0.819-0.73-1.354c-0.158-0.534-0.237-1.139-0.237-1.813
			c0-0.587,0.085-1.142,0.254-1.664c0.168-0.523,0.415-0.982,0.738-1.378c0.324-0.396,0.721-0.71,1.191-0.942
			s1.004-0.349,1.602-0.349c0.582,0,1.096,0.091,1.545,0.274c0.447,0.182,0.825,0.44,1.133,0.775
			c0.307,0.335,0.539,0.742,0.697,1.221C414.196,71.969,414.275,72.504,414.275,73.096z M412.773,72.889
			c0.016-0.371-0.02-0.71-0.108-1.017c-0.089-0.308-0.226-0.571-0.411-0.793s-0.416-0.395-0.693-0.519
			c-0.276-0.125-0.598-0.188-0.963-0.188c-0.314,0-0.603,0.062-0.863,0.184c-0.26,0.121-0.484,0.293-0.672,0.514
			c-0.188,0.222-0.34,0.487-0.457,0.797c-0.115,0.311-0.188,0.65-0.215,1.021H412.773z"/>
		<path fill="#565656" d="M423.281,77.703h-1.443v-3.686h-3.811v3.686h-1.444v-8.334h1.444v3.387h3.811v-3.387h1.443V77.703z"/>
		<path fill="#565656" d="M427.49,69.369v5.869l3.636-5.869h1.378v8.334h-1.444v-5.869l-3.636,5.869h-1.378v-8.334H427.49z"/>
		<path fill="#565656" d="M442.315,73.096c0,0.205-0.003,0.377-0.009,0.516c-0.005,0.138-0.014,0.268-0.024,0.39h-5.853
			c0,0.853,0.238,1.507,0.715,1.963c0.476,0.457,1.162,0.685,2.059,0.685c0.243,0,0.486-0.009,0.73-0.028
			c0.243-0.02,0.479-0.046,0.705-0.079s0.444-0.07,0.651-0.112c0.208-0.041,0.399-0.087,0.577-0.137v1.187
			c-0.393,0.111-0.837,0.201-1.332,0.271c-0.496,0.069-1.009,0.104-1.54,0.104c-0.714,0-1.328-0.097-1.843-0.29
			c-0.515-0.194-0.937-0.475-1.266-0.843c-0.33-0.368-0.573-0.819-0.73-1.354c-0.158-0.534-0.236-1.139-0.236-1.813
			c0-0.587,0.084-1.142,0.253-1.664c0.169-0.523,0.415-0.982,0.738-1.378c0.324-0.396,0.722-0.71,1.191-0.942
			s1.005-0.349,1.603-0.349c0.58,0,1.096,0.091,1.543,0.274c0.449,0.182,0.826,0.44,1.134,0.775
			c0.307,0.335,0.539,0.742,0.697,1.221C442.236,71.969,442.315,72.504,442.315,73.096z M440.812,72.889
			c0.018-0.371-0.02-0.71-0.107-1.017c-0.088-0.308-0.226-0.571-0.411-0.793c-0.185-0.222-0.416-0.395-0.692-0.519
			c-0.277-0.125-0.598-0.188-0.963-0.188c-0.316,0-0.604,0.062-0.863,0.184c-0.261,0.121-0.484,0.293-0.673,0.514
			c-0.188,0.222-0.341,0.487-0.456,0.797c-0.117,0.311-0.188,0.65-0.217,1.021H440.812z"/>
	</g>
</g>
<g>
	<rect x="610" y="44" fill="#EC1C24" width="171" height="58"/>
</g>
<g>
	<rect x="613.422" y="54.975" fill="none" width="164.279" height="45.692"/>
</g>
<g enable-background="new    ">
	<path fill="#FFFFFF" d="M648.371,61.208c0,0.974-0.115,1.815-0.344,2.523c-0.23,0.708-0.541,1.294-0.93,1.756
		c-0.391,0.462-0.848,0.805-1.371,1.029c-0.521,0.224-1.074,0.336-1.655,0.336c-0.697,0-1.305-0.126-1.821-0.378
		c-0.518-0.252-0.947-0.615-1.287-1.092c-0.34-0.476-0.594-1.055-0.76-1.738s-0.249-1.454-0.249-2.313
		c0-0.963,0.113-1.798,0.341-2.506c0.227-0.709,0.535-1.294,0.926-1.756c0.389-0.462,0.845-0.806,1.365-1.029
		c0.52-0.225,1.07-0.336,1.651-0.336c0.697,0,1.305,0.127,1.821,0.381c0.518,0.255,0.948,0.619,1.291,1.092
		c0.344,0.474,0.6,1.051,0.768,1.73C648.287,59.59,648.371,60.355,648.371,61.208z M646.836,61.316c0-0.637-0.049-1.22-0.146-1.748
		c-0.096-0.528-0.252-0.983-0.469-1.365c-0.215-0.382-0.494-0.678-0.834-0.889c-0.34-0.21-0.751-0.314-1.232-0.314
		c-0.465,0-0.865,0.111-1.199,0.336c-0.335,0.224-0.61,0.528-0.826,0.913s-0.377,0.835-0.481,1.353s-0.157,1.066-0.157,1.648
		c0,0.642,0.049,1.227,0.148,1.755s0.256,0.982,0.469,1.361c0.214,0.379,0.489,0.674,0.826,0.884
		c0.338,0.211,0.744,0.316,1.221,0.316c0.465,0,0.866-0.112,1.203-0.337c0.338-0.224,0.616-0.528,0.834-0.913
		c0.219-0.385,0.381-0.834,0.486-1.349S646.836,61.902,646.836,61.316z"/>
	<path fill="#FFFFFF" d="M657.394,59.614h-3.163v7.089h-1.461v-7.089h-3.163v-1.245h7.787V59.614z"/>
	<path fill="#FFFFFF" d="M665.976,66.396c-0.376,0.144-0.762,0.25-1.158,0.319c-0.395,0.069-0.803,0.104-1.224,0.104
		c-1.317,0-2.331-0.356-3.042-1.071c-0.711-0.713-1.066-1.757-1.066-3.129c0-0.658,0.102-1.256,0.307-1.793s0.492-0.996,0.863-1.378
		s0.813-0.677,1.328-0.884c0.515-0.208,1.082-0.312,1.701-0.312c0.432,0,0.836,0.03,1.213,0.091
		c0.376,0.062,0.735,0.161,1.078,0.299v1.379c-0.359-0.188-0.727-0.325-1.1-0.411s-0.76-0.129-1.158-0.129
		c-0.37,0-0.721,0.07-1.049,0.212c-0.33,0.141-0.619,0.344-0.868,0.609s-0.445,0.59-0.589,0.972
		c-0.145,0.382-0.217,0.813-0.217,1.295c0,1.007,0.246,1.761,0.734,2.262c0.49,0.501,1.17,0.751,2.039,0.751
		c0.393,0,0.773-0.044,1.141-0.133c0.368-0.088,0.724-0.221,1.066-0.398V66.396z"/>
	<path fill="#FFFFFF" d="M675.472,66.703h-1.443v-7.089h-2.324c-0.066,1.14-0.165,2.116-0.295,2.931
		c-0.131,0.813-0.287,1.492-0.469,2.037c-0.184,0.545-0.391,0.975-0.623,1.287s-0.482,0.539-0.752,0.681
		c-0.268,0.141-0.551,0.21-0.85,0.207s-0.606-0.043-0.922-0.12l0.066-1.195c0.221,0.022,0.429,0.011,0.623-0.033
		c0.193-0.044,0.373-0.15,0.539-0.319s0.316-0.412,0.453-0.73c0.135-0.318,0.258-0.743,0.369-1.274
		c0.11-0.531,0.205-1.183,0.285-1.955c0.081-0.771,0.146-1.691,0.195-2.76h5.146V66.703z"/>
	<path fill="#FFFFFF" d="M685.234,62.096c0,0.205-0.002,0.377-0.008,0.516c-0.006,0.138-0.014,0.268-0.025,0.39h-5.852
		c0,0.853,0.238,1.507,0.714,1.963c0.476,0.457,1.162,0.685,2.059,0.685c0.243,0,0.487-0.009,0.73-0.028s0.479-0.046,0.706-0.079
		c0.227-0.033,0.443-0.07,0.65-0.112c0.209-0.041,0.4-0.087,0.578-0.137v1.187c-0.394,0.111-0.838,0.201-1.332,0.271
		c-0.496,0.069-1.01,0.104-1.541,0.104c-0.713,0-1.328-0.097-1.842-0.29c-0.516-0.194-0.938-0.475-1.266-0.843
		c-0.33-0.368-0.574-0.819-0.73-1.354c-0.158-0.534-0.237-1.139-0.237-1.813c0-0.587,0.085-1.142,0.253-1.664
		c0.169-0.523,0.416-0.982,0.738-1.378c0.324-0.396,0.722-0.71,1.191-0.942c0.471-0.232,1.005-0.349,1.603-0.349
		c0.581,0,1.096,0.091,1.544,0.274c0.448,0.182,0.826,0.44,1.133,0.775s0.539,0.742,0.697,1.221S685.234,61.504,685.234,62.096z
		 M683.732,61.889c0.017-0.371-0.02-0.71-0.107-1.017c-0.089-0.308-0.227-0.571-0.412-0.793c-0.185-0.222-0.416-0.395-0.692-0.519
		c-0.276-0.125-0.598-0.188-0.963-0.188c-0.315,0-0.603,0.062-0.863,0.184c-0.261,0.121-0.484,0.293-0.673,0.514
		c-0.188,0.222-0.34,0.487-0.456,0.797c-0.116,0.311-0.188,0.65-0.216,1.021H683.732z"/>
	<path fill="#FFFFFF" d="M686.263,58.369h1.428l2.532,4.018v-4.018h1.328v4.018l2.532-4.018h1.428l-2.682,4.018l2.748,4.316H694
		l-2.448-4.233v4.233h-1.328V62.47l-2.448,4.233h-1.578l2.756-4.316L686.263,58.369z"/>
	<path fill="#FFFFFF" d="M698.449,58.369v5.869l3.637-5.869h1.377v8.334h-1.443v-5.869l-3.637,5.869h-1.377v-8.334H698.449z"/>
	<path fill="#FFFFFF" d="M713.39,64.271c0,0.381-0.08,0.73-0.24,1.045c-0.16,0.316-0.41,0.586-0.747,0.81
		c-0.337,0.225-0.765,0.398-1.282,0.523c-0.518,0.124-1.133,0.187-1.848,0.187c-0.47,0-0.971-0.018-1.502-0.054
		s-1.043-0.085-1.535-0.146V58.41c0.52-0.061,1.047-0.107,1.58-0.141c0.535-0.033,1.111-0.05,1.731-0.05
		c1.124,0,1.978,0.184,2.562,0.552c0.583,0.368,0.875,0.898,0.875,1.59c0,0.471-0.136,0.874-0.406,1.212
		c-0.271,0.338-0.682,0.587-1.229,0.747c0.266,0.044,0.521,0.117,0.768,0.22s0.463,0.235,0.651,0.398s0.339,0.355,0.452,0.577
		S713.39,63.988,713.39,64.271z M711.507,60.652c0-0.194-0.038-0.368-0.116-0.523s-0.201-0.288-0.369-0.398
		c-0.169-0.11-0.391-0.195-0.664-0.253c-0.273-0.059-0.605-0.087-0.992-0.087c-0.349,0-0.652,0.007-0.913,0.021
		s-0.518,0.037-0.772,0.07v2.407h1.678C710.79,61.889,711.507,61.477,711.507,60.652z M711.863,64.305
		c0-0.432-0.195-0.757-0.584-0.976c-0.391-0.219-0.998-0.328-1.822-0.328h-1.777v2.548c0.271,0.045,0.54,0.075,0.806,0.092
		s0.569,0.025,0.913,0.025c0.492,0,0.898-0.033,1.217-0.1c0.317-0.066,0.569-0.161,0.754-0.283c0.186-0.121,0.314-0.266,0.387-0.432
		S711.863,64.504,711.863,64.305z"/>
	<path fill="#FFFFFF" d="M720.936,66.703l-0.033-1.121c-0.454,0.449-0.915,0.772-1.382,0.972c-0.468,0.199-0.959,0.299-1.474,0.299
		c-0.476,0-0.883-0.061-1.22-0.183c-0.338-0.122-0.616-0.289-0.834-0.502c-0.219-0.213-0.38-0.464-0.482-0.752
		c-0.102-0.287-0.153-0.6-0.153-0.938c0-0.836,0.312-1.49,0.935-1.963c0.621-0.474,1.542-0.71,2.76-0.71h1.727v-0.73
		c0-0.492-0.158-0.887-0.474-1.183s-0.797-0.444-1.444-0.444c-0.471,0-0.934,0.053-1.391,0.157
		c-0.457,0.105-0.928,0.255-1.415,0.449v-1.304c0.183-0.066,0.386-0.132,0.61-0.195s0.461-0.12,0.709-0.17
		c0.25-0.05,0.51-0.09,0.781-0.12c0.271-0.03,0.545-0.046,0.821-0.046c0.503,0,0.958,0.056,1.361,0.166s0.745,0.279,1.024,0.507
		c0.28,0.227,0.494,0.512,0.645,0.854c0.148,0.343,0.224,0.747,0.224,1.212v5.744H720.936z M720.779,62.91h-1.835
		c-0.36,0-0.669,0.035-0.93,0.107s-0.474,0.174-0.64,0.307s-0.289,0.292-0.369,0.478s-0.12,0.395-0.12,0.627
		c0,0.16,0.024,0.314,0.075,0.461c0.049,0.146,0.129,0.276,0.24,0.39s0.254,0.203,0.432,0.27s0.393,0.1,0.647,0.1
		c0.332,0,0.712-0.101,1.142-0.303c0.429-0.202,0.881-0.521,1.357-0.959V62.91z"/>
	<path fill="#FFFFFF" d="M731.628,66.703h-1.444v-3.686h-3.811v3.686h-1.443v-8.334h1.443v3.387h3.811v-3.387h1.444V66.703z"/>
	<path fill="#FFFFFF" d="M735.836,58.369v5.869l3.637-5.869h1.377v8.334h-1.443v-5.869l-3.637,5.869h-1.377v-8.334H735.836z"/>
	<path fill="#FFFFFF" d="M750.662,62.096c0,0.205-0.004,0.377-0.009,0.516c-0.005,0.138-0.014,0.268-0.024,0.39h-5.853
		c0,0.853,0.237,1.507,0.714,1.963c0.477,0.457,1.162,0.685,2.059,0.685c0.244,0,0.486-0.009,0.73-0.028s0.479-0.046,0.705-0.079
		c0.228-0.033,0.445-0.07,0.652-0.112c0.207-0.041,0.399-0.087,0.576-0.137v1.187c-0.393,0.111-0.836,0.201-1.332,0.271
		c-0.495,0.069-1.008,0.104-1.539,0.104c-0.715,0-1.328-0.097-1.844-0.29c-0.514-0.194-0.936-0.475-1.266-0.843
		c-0.329-0.368-0.572-0.819-0.73-1.354s-0.236-1.139-0.236-1.813c0-0.587,0.084-1.142,0.254-1.664
		c0.168-0.523,0.414-0.982,0.738-1.378s0.721-0.71,1.191-0.942c0.47-0.232,1.004-0.349,1.602-0.349c0.581,0,1.096,0.091,1.544,0.274
		c0.448,0.182,0.825,0.44,1.134,0.775c0.307,0.335,0.539,0.742,0.697,1.221C750.582,60.969,750.662,61.504,750.662,62.096z
		 M749.159,61.889c0.017-0.371-0.02-0.71-0.108-1.017c-0.088-0.308-0.225-0.571-0.41-0.793s-0.416-0.395-0.693-0.519
		c-0.277-0.125-0.598-0.188-0.963-0.188c-0.315,0-0.604,0.062-0.863,0.184c-0.26,0.121-0.484,0.293-0.672,0.514
		c-0.188,0.222-0.341,0.487-0.457,0.797c-0.116,0.311-0.188,0.65-0.216,1.021H749.159z"/>
</g>
<g enable-background="new    ">
	<path fill="#FFFFFF" d="M645.798,90.589c-2.552-2.363-3.827-4.975-3.827-7.836c0-0.67,0.068-1.338,0.203-2.005
		c0.137-0.667,0.355-1.335,0.656-2.005c0.302-0.669,0.7-1.339,1.195-2.008c0.496-0.67,1.098-1.334,1.806-1.992l0.839,0.854
		c-2.147,2.119-3.221,4.469-3.221,7.048c0,1.283,0.271,2.518,0.813,3.701c0.543,1.185,1.346,2.303,2.408,3.354L645.798,90.589z"/>
	<path fill="#FFFFFF" d="M649.931,85.608c0.244,0.066,0.504,0.125,0.78,0.174c0.276,0.051,0.551,0.095,0.821,0.133
		c0.271,0.039,0.533,0.068,0.785,0.088s0.477,0.029,0.676,0.029c0.471,0,0.862-0.031,1.176-0.092
		c0.313-0.061,0.561-0.148,0.746-0.262s0.316-0.252,0.395-0.415s0.116-0.347,0.116-0.552c0-0.199-0.034-0.381-0.104-0.544
		c-0.068-0.163-0.193-0.306-0.373-0.427c-0.18-0.122-0.424-0.217-0.734-0.283s-0.705-0.1-1.188-0.1h-2.041v-1.12h2.033
		c0.42,0,0.766-0.027,1.033-0.083c0.269-0.056,0.48-0.136,0.635-0.24c0.155-0.105,0.261-0.232,0.316-0.383
		c0.055-0.148,0.082-0.32,0.082-0.514c0-0.188-0.034-0.356-0.104-0.503c-0.068-0.146-0.184-0.271-0.344-0.373
		c-0.161-0.103-0.374-0.182-0.64-0.237c-0.266-0.055-0.595-0.082-0.987-0.082c-0.432,0-0.905,0.03-1.42,0.091
		s-1.029,0.149-1.544,0.266v-1.22c0.228-0.051,0.472-0.098,0.735-0.142c0.262-0.044,0.529-0.08,0.801-0.108
		c0.271-0.027,0.541-0.049,0.809-0.066c0.269-0.016,0.524-0.024,0.768-0.024c0.653,0,1.199,0.054,1.636,0.162
		c0.437,0.107,0.788,0.259,1.054,0.452s0.454,0.424,0.564,0.689c0.111,0.266,0.166,0.556,0.166,0.871c0,0.232-0.033,0.452-0.1,0.66
		c-0.066,0.207-0.168,0.395-0.307,0.561s-0.314,0.307-0.527,0.423s-0.469,0.199-0.768,0.249c0.299,0.044,0.576,0.117,0.83,0.22
		s0.475,0.238,0.66,0.407s0.332,0.369,0.439,0.602s0.162,0.498,0.162,0.797c0,0.365-0.07,0.704-0.211,1.017
		c-0.143,0.313-0.373,0.581-0.693,0.806c-0.321,0.224-0.744,0.399-1.271,0.527c-0.526,0.127-1.171,0.19-1.935,0.19
		c-0.204,0-0.43-0.007-0.676-0.021s-0.501-0.033-0.764-0.059c-0.264-0.024-0.521-0.055-0.776-0.091s-0.493-0.079-0.714-0.129V85.608
		z"/>
	<path fill="#FFFFFF" d="M664.856,87.103l-0.033-1.121c-0.454,0.449-0.915,0.772-1.382,0.972c-0.468,0.199-0.959,0.299-1.474,0.299
		c-0.476,0-0.883-0.061-1.22-0.183c-0.338-0.122-0.616-0.289-0.834-0.502c-0.219-0.213-0.38-0.464-0.482-0.752
		c-0.102-0.287-0.153-0.6-0.153-0.938c0-0.836,0.312-1.49,0.935-1.963c0.621-0.474,1.542-0.71,2.76-0.71h1.727v-0.73
		c0-0.492-0.158-0.887-0.474-1.183s-0.797-0.444-1.444-0.444c-0.471,0-0.934,0.053-1.391,0.157
		c-0.457,0.105-0.928,0.255-1.415,0.449V79.15c0.183-0.066,0.386-0.132,0.61-0.195s0.461-0.12,0.709-0.17
		c0.25-0.05,0.51-0.09,0.781-0.12c0.271-0.03,0.545-0.046,0.821-0.046c0.503,0,0.958,0.056,1.361,0.166s0.745,0.279,1.024,0.507
		c0.28,0.227,0.494,0.512,0.645,0.854c0.148,0.343,0.224,0.747,0.224,1.212v5.744H664.856z M664.699,83.31h-1.835
		c-0.36,0-0.669,0.035-0.93,0.107s-0.474,0.174-0.64,0.307s-0.289,0.292-0.369,0.478s-0.12,0.395-0.12,0.627
		c0,0.16,0.024,0.314,0.075,0.461c0.049,0.146,0.129,0.276,0.24,0.39s0.254,0.203,0.432,0.27s0.393,0.1,0.647,0.1
		c0.332,0,0.712-0.101,1.142-0.303c0.429-0.202,0.881-0.521,1.357-0.959V83.31z"/>
	<path fill="#FFFFFF" d="M676.004,84.671c0,0.381-0.08,0.73-0.24,1.045c-0.16,0.316-0.41,0.586-0.747,0.81
		c-0.337,0.225-0.765,0.398-1.282,0.523c-0.518,0.124-1.133,0.187-1.848,0.187c-0.47,0-0.971-0.018-1.502-0.054
		s-1.043-0.085-1.535-0.146V78.81c0.52-0.061,1.047-0.107,1.58-0.141c0.535-0.033,1.111-0.05,1.731-0.05
		c1.124,0,1.978,0.184,2.562,0.552c0.583,0.368,0.875,0.898,0.875,1.59c0,0.471-0.136,0.874-0.406,1.212
		c-0.271,0.338-0.682,0.587-1.229,0.747c0.266,0.044,0.521,0.117,0.768,0.22s0.463,0.235,0.651,0.398s0.339,0.355,0.452,0.577
		S676.004,84.388,676.004,84.671z M674.12,81.052c0-0.194-0.038-0.368-0.116-0.523s-0.201-0.288-0.369-0.398
		c-0.169-0.11-0.391-0.195-0.664-0.253c-0.273-0.059-0.605-0.087-0.992-0.087c-0.349,0-0.652,0.007-0.913,0.021
		s-0.518,0.037-0.772,0.07v2.407h1.678C673.403,82.288,674.12,81.876,674.12,81.052z M674.476,84.704
		c0-0.432-0.195-0.757-0.584-0.976c-0.391-0.219-0.998-0.328-1.822-0.328h-1.777v2.548c0.271,0.045,0.54,0.075,0.806,0.092
		s0.569,0.025,0.913,0.025c0.492,0,0.898-0.033,1.217-0.1c0.317-0.066,0.569-0.161,0.754-0.283c0.186-0.121,0.314-0.266,0.387-0.432
		S674.476,84.903,674.476,84.704z"/>
	<path fill="#FFFFFF" d="M685.234,82.495c0,0.205-0.002,0.377-0.008,0.516c-0.006,0.138-0.014,0.268-0.025,0.39h-5.852
		c0,0.853,0.238,1.507,0.714,1.963c0.476,0.457,1.162,0.685,2.059,0.685c0.243,0,0.487-0.009,0.73-0.028s0.479-0.046,0.706-0.079
		c0.227-0.033,0.443-0.07,0.65-0.112c0.209-0.041,0.4-0.087,0.578-0.137v1.187c-0.394,0.111-0.838,0.201-1.332,0.271
		c-0.496,0.069-1.01,0.104-1.541,0.104c-0.713,0-1.328-0.097-1.842-0.29c-0.516-0.194-0.938-0.475-1.266-0.843
		c-0.33-0.368-0.574-0.819-0.73-1.354c-0.158-0.534-0.237-1.139-0.237-1.813c0-0.587,0.085-1.142,0.253-1.664
		c0.169-0.523,0.416-0.982,0.738-1.378c0.324-0.396,0.722-0.71,1.191-0.942c0.471-0.232,1.005-0.349,1.603-0.349
		c0.581,0,1.096,0.091,1.544,0.274c0.448,0.182,0.826,0.44,1.133,0.775s0.539,0.742,0.697,1.221S685.234,81.903,685.234,82.495z
		 M683.732,82.288c0.017-0.371-0.02-0.71-0.107-1.017c-0.089-0.308-0.227-0.571-0.412-0.793c-0.185-0.222-0.416-0.395-0.692-0.519
		c-0.276-0.125-0.598-0.188-0.963-0.188c-0.315,0-0.603,0.062-0.863,0.184c-0.261,0.121-0.484,0.293-0.673,0.514
		c-0.188,0.222-0.34,0.487-0.456,0.797c-0.116,0.311-0.188,0.65-0.216,1.021H683.732z"/>
	<path fill="#FFFFFF" d="M694.664,82.786c0,0.741-0.104,1.389-0.311,1.942s-0.494,1.013-0.859,1.378s-0.797,0.639-1.295,0.822
		c-0.498,0.182-1.037,0.273-1.619,0.273c-0.266,0-0.529-0.014-0.793-0.041c-0.262-0.028-0.529-0.075-0.801-0.142v3.486h-1.443
		V78.769h1.286l0.091,1.395c0.416-0.57,0.858-0.97,1.328-1.199c0.471-0.229,0.98-0.345,1.527-0.345c0.477,0,0.895,0.1,1.254,0.299
		s0.661,0.48,0.904,0.843c0.244,0.362,0.427,0.8,0.549,1.312C694.603,81.584,694.664,82.155,694.664,82.786z M693.187,82.853
		c0-0.438-0.032-0.838-0.096-1.203c-0.064-0.365-0.165-0.679-0.303-0.938c-0.139-0.26-0.316-0.464-0.531-0.61
		c-0.217-0.146-0.474-0.22-0.772-0.22c-0.183,0-0.368,0.029-0.556,0.087c-0.188,0.059-0.384,0.155-0.586,0.291
		c-0.201,0.136-0.414,0.315-0.639,0.539c-0.225,0.225-0.464,0.502-0.719,0.834v4.043c0.266,0.11,0.545,0.198,0.839,0.262
		s0.581,0.096,0.863,0.096c0.78,0,1.392-0.265,1.835-0.793C692.966,84.711,693.187,83.915,693.187,82.853z"/>
	<path fill="#FFFFFF" d="M696.308,78.769h1.328v7.146h1.934v-7.146h1.328v7.146h1.934v-7.146h1.328v8.334h-7.852V78.769z"/>
	<path fill="#FFFFFF" d="M713.275,82.495c0,0.205-0.004,0.377-0.009,0.516c-0.005,0.138-0.014,0.268-0.024,0.39h-5.853
		c0,0.853,0.237,1.507,0.714,1.963c0.477,0.457,1.162,0.685,2.059,0.685c0.244,0,0.486-0.009,0.73-0.028s0.479-0.046,0.705-0.079
		c0.228-0.033,0.445-0.07,0.652-0.112c0.207-0.041,0.399-0.087,0.576-0.137v1.187c-0.393,0.111-0.836,0.201-1.332,0.271
		c-0.495,0.069-1.008,0.104-1.539,0.104c-0.715,0-1.328-0.097-1.844-0.29c-0.514-0.194-0.936-0.475-1.266-0.843
		c-0.329-0.368-0.572-0.819-0.73-1.354s-0.236-1.139-0.236-1.813c0-0.587,0.084-1.142,0.254-1.664
		c0.168-0.523,0.414-0.982,0.738-1.378s0.721-0.71,1.191-0.942c0.47-0.232,1.004-0.349,1.602-0.349c0.581,0,1.096,0.091,1.544,0.274
		c0.448,0.182,0.825,0.44,1.134,0.775c0.307,0.335,0.539,0.742,0.697,1.221C713.195,81.368,713.275,81.903,713.275,82.495z
		 M711.772,82.288c0.017-0.371-0.02-0.71-0.108-1.017c-0.088-0.308-0.225-0.571-0.41-0.793s-0.416-0.395-0.693-0.519
		c-0.277-0.125-0.598-0.188-0.963-0.188c-0.315,0-0.604,0.062-0.863,0.184c-0.26,0.121-0.484,0.293-0.672,0.514
		c-0.188,0.222-0.341,0.487-0.457,0.797c-0.116,0.311-0.188,0.65-0.216,1.021H711.772z"/>
	<path fill="#FFFFFF" d="M722.281,87.103h-1.444v-3.686h-3.81v3.686h-1.445v-8.334h1.445v3.387h3.81v-3.387h1.444V87.103z"/>
	<path fill="#FFFFFF" d="M726.49,78.769v5.869l3.635-5.869h1.379v8.334h-1.445v-5.869l-3.635,5.869h-1.379v-8.334H726.49z"/>
	<path fill="#FFFFFF" d="M741.314,82.495c0,0.205-0.002,0.377-0.008,0.516c-0.006,0.138-0.014,0.268-0.025,0.39h-5.852
		c0,0.853,0.238,1.507,0.714,1.963c0.476,0.457,1.162,0.685,2.059,0.685c0.243,0,0.487-0.009,0.73-0.028s0.479-0.046,0.706-0.079
		c0.227-0.033,0.443-0.07,0.65-0.112c0.209-0.041,0.4-0.087,0.578-0.137v1.187c-0.394,0.111-0.838,0.201-1.332,0.271
		c-0.496,0.069-1.01,0.104-1.541,0.104c-0.713,0-1.328-0.097-1.842-0.29c-0.516-0.194-0.938-0.475-1.266-0.843
		c-0.33-0.368-0.574-0.819-0.73-1.354c-0.158-0.534-0.237-1.139-0.237-1.813c0-0.587,0.085-1.142,0.253-1.664
		c0.169-0.523,0.416-0.982,0.738-1.378c0.324-0.396,0.722-0.71,1.191-0.942c0.471-0.232,1.005-0.349,1.603-0.349
		c0.581,0,1.096,0.091,1.544,0.274c0.448,0.182,0.826,0.44,1.133,0.775s0.539,0.742,0.697,1.221S741.314,81.903,741.314,82.495z
		 M739.812,82.288c0.017-0.371-0.02-0.71-0.107-1.017c-0.089-0.308-0.227-0.571-0.412-0.793c-0.185-0.222-0.416-0.395-0.692-0.519
		c-0.276-0.125-0.598-0.188-0.963-0.188c-0.315,0-0.603,0.062-0.863,0.184c-0.261,0.121-0.484,0.293-0.673,0.514
		c-0.188,0.222-0.34,0.487-0.456,0.797c-0.116,0.311-0.188,0.65-0.216,1.021H739.812z"/>
	<path fill="#FFFFFF" d="M745.324,74.743c2.551,2.362,3.826,4.991,3.826,7.885c0,0.598-0.061,1.218-0.182,1.859
		c-0.122,0.643-0.33,1.3-0.623,1.972c-0.293,0.673-0.688,1.354-1.184,2.046c-0.494,0.692-1.119,1.387-1.871,2.084l-0.838-0.855
		c1.078-1.067,1.884-2.183,2.415-3.345s0.797-2.38,0.797-3.652c0-2.634-1.071-5.003-3.212-7.105L745.324,74.743z"/>
</g>
</svg>
