<?xml version="1.0" encoding="utf-8"?>
<!-- Generator: Adobe Illustrator 15.1.0, SVG Export Plug-In . SVG Version: 6.00 Build 0)  -->
<!DOCTYPE svg PUBLIC "-//W3C//DTD SVG 1.1//EN" "http://www.w3.org/Graphics/SVG/1.1/DTD/svg11.dtd">
<svg version="1.1" xmlns="http://www.w3.org/2000/svg" xmlns:xlink="http://www.w3.org/1999/xlink" x="0px" y="0px" width="183px"
	 height="183px" viewBox="0 0 183 183" enable-background="new 0 0 183 183" xml:space="preserve">
<symbol  id="plashka" viewBox="3.5 -184.9 217.05 182.35">
	<g id="Layer_4_1_">
		<polygon fill-rule="evenodd" clip-rule="evenodd" fill="#FFFFFF" points="219.55,-183.9 4.5,-183.9 4.5,-3.55 219.55,-3.55 		"/>
		<polygon fill-rule="evenodd" clip-rule="evenodd" fill="none" stroke="#FFFFFF" stroke-width="2" stroke-miterlimit="10" points="
			219.55,-183.9 4.5,-183.9 4.5,-3.55 219.55,-3.55 		"/>
	</g>
</symbol>
<g id="plashki">
	
		<use xlink:href="#plashka"  width="217.05" height="182.35" x="3.5" y="-184.9" transform="matrix(0.8424 0 0 -1 -2.7002 -2.8999)" overflow="visible"/>
</g>
<g id="papka">
	<path fill-rule="evenodd" clip-rule="evenodd" fill="#7E9A2A" d="M145.18,14.323l-7.563,158.235
		c-0.139,2.918-1.265,5.384-3.378,7.396c-2.108,2.014-4.623,3.021-7.547,3.021H55.175c-2.917,0-5.433-1.007-7.546-3.021
		c-2.113-2.013-3.242-4.479-3.387-7.396L36.688,14.323H145.18z"/>
	<path fill-rule="evenodd" clip-rule="evenodd" fill="#576811" d="M32.021,14.115V9.48h117.826v4.634c0,1.397-0.493,2.59-1.48,3.578
		c-0.993,0.987-2.188,1.481-3.586,1.481H37.08c-1.397,0-2.59-0.494-3.578-1.481S32.021,15.512,32.021,14.115z"/>
	<path fill-rule="evenodd" clip-rule="evenodd" fill="#697F18" d="M32.021,5.013c0-1.403,0.494-2.599,1.481-3.586
		s2.18-1.481,3.578-1.481H144.78c1.397,0,2.593,0.494,3.586,1.481c0.987,0.987,1.48,2.183,1.48,3.586v4.634H32.021V5.013z"/>
	<g>
		<path fill-rule="evenodd" clip-rule="evenodd" fill="#D4E0A0" d="M118.753,105.678c0.277,0.488,0.419,1.079,0.424,1.772
			c0,0.688-0.139,1.275-0.416,1.764l-4.76,8.305c-0.188,0.322-0.46,0.621-0.815,0.899l-0.149-0.084
			c0.205-0.311,0.302-0.662,0.291-1.057c-0.017-0.499-0.181-1.01-0.491-1.531l-7.506-12.864l-4.41,2.555l3.694-13.947l13.955,3.695
			l-4.418,2.588L118.753,105.678z"/>
		<path fill-rule="evenodd" clip-rule="evenodd" fill="#D4E0A0" d="M111.938,115.813c0.305,0.533,0.463,1.043,0.475,1.531
			c0.017,0.716-0.28,1.254-0.891,1.614c-0.389,0.189-0.738,0.306-1.049,0.35c-0.133,0.017-0.202,0.025-0.208,0.025l-13.988,0.017
			v-10.202h11.783L111.938,115.813z"/>
		<path fill-rule="evenodd" clip-rule="evenodd" fill="#D4E0A0" d="M102.318,74.88c0.044,0.044,0.086,0.1,0.124,0.167l7.049,12.083
			l-8.821,5.134l-5.925-10.186l3.82-6.707c0.311-0.538,0.671-0.932,1.081-1.182c0.616-0.366,1.232-0.38,1.848-0.042
			C101.821,74.364,102.096,74.608,102.318,74.88z"/>
		<path fill-rule="evenodd" clip-rule="evenodd" fill="#D4E0A0" d="M86.216,74.888c0.278-0.488,0.716-0.904,1.315-1.248
			c0.599-0.35,1.182-0.527,1.748-0.533l9.562-0.025c0.371,0,0.769,0.083,1.189,0.25v0.175c-0.36-0.017-0.713,0.075-1.057,0.275
			c-0.416,0.255-0.776,0.652-1.082,1.19l-7.389,12.939l4.427,2.538l-13.93,3.778l-3.778-13.93l4.452,2.53L86.216,74.888z"/>
		<path fill-rule="evenodd" clip-rule="evenodd" fill="#D4E0A0" d="M67.768,108.282c-0.644-0.36-0.965-0.904-0.965-1.631
			c0.028-0.411,0.105-0.782,0.233-1.115l7.373-12.624l9.054,5.334l-6.142,10.452l-7.947-0.042
			C68.747,108.656,68.211,108.531,67.768,108.282z"/>
		<path fill-rule="evenodd" clip-rule="evenodd" fill="#D4E0A0" d="M66.553,108.523l0.15-0.083c0.177,0.333,0.433,0.591,0.766,0.773
			c0.421,0.233,0.943,0.35,1.564,0.35l14.904-0.05l-0.008-5.101l10.219,10.185l-10.186,10.219l-0.025-5.109l-9.154,0.017
			c-0.56,0-1.14-0.175-1.739-0.524c-0.599-0.344-1.04-0.76-1.323-1.248l-4.793-8.271C66.738,109.353,66.614,108.967,66.553,108.523z
			"/>
	</g>
</g>
</svg>
