<?xml version="1.0" encoding="utf-8"?>
<!-- Generator: Adobe Illustrator 15.1.0, SVG Export Plug-In . SVG Version: 6.00 Build 0)  -->
<!DOCTYPE svg PUBLIC "-//W3C//DTD SVG 1.1//EN" "http://www.w3.org/Graphics/SVG/1.1/DTD/svg11.dtd">
<svg version="1.1" id="Layer_1" xmlns="http://www.w3.org/2000/svg" xmlns:xlink="http://www.w3.org/1999/xlink" x="0px" y="0px"
	 width="811.667px" height="238.667px" viewBox="0 0 811.667 238.667" enable-background="new 0 0 811.667 238.667"
	 xml:space="preserve">
<g>
	<defs>
		<rect id="SVGID_1_" x="-195.333" y="-12" width="1251" height="251"/>
	</defs>
	<clipPath id="SVGID_2_">
		<use xlink:href="#SVGID_1_"  overflow="visible"/>
	</clipPath>
	<g clip-path="url(#SVGID_2_)">
		<g id="Layer_1_1_">
			<g>
				<g>
					<g>
						<g>
							<g>
								<path fill-rule="evenodd" clip-rule="evenodd" fill="#FFD39B" d="M393.127,198.793l-6.759,6.759
									c-1.488,1.148-2.891,1.828-4.208,2.042c-1.318,0.34-3.422,0.021-6.313-0.957c-2.976-0.936-4.506-1.445-4.591-1.531
									c-0.086-0.043-0.637-0.34-1.658-0.892c-1.063-0.554-3.933-0.915-8.608-1.084l0.638-11.67l10.33-3.253
									c4.89-3.316,9.396-3.847,13.518-1.594c7.861,3.737,11.379,6.373,10.554,7.908
									C395.204,196.055,394.237,197.479,393.127,198.793z"/>
								<path fill-rule="evenodd" clip-rule="evenodd" fill="#1B597B" d="M252.801,386.996c1.492-1.574,3.267-2.401,5.324-2.48
									c2.139,0,3.954,0.807,5.447,2.42c1.532,1.532,2.299,3.429,2.299,5.688l0.786,57.181c0,2.218-0.746,4.133-2.238,5.747
									c-1.452,1.613-3.228,2.441-5.326,2.48c-2.097,0-3.912-0.767-5.445-2.3c-1.452-1.652-2.219-3.591-2.299-5.808l-0.666-57.179
									C250.643,390.564,251.349,388.65,252.801,386.996z"/>
								<path fill-rule="evenodd" clip-rule="evenodd" fill="#3F5272" d="M247.234,245.225c-0.04-3.548,1.088-6.615,3.388-9.196
									c2.382-2.581,5.266-3.912,8.654-3.993l5.445-0.06c3.349-0.041,6.232,1.189,8.653,3.69c2.42,2.58,3.651,5.647,3.692,9.195
									l2.481,196.591l-29.832,0.304L247.234,245.225z"/>
								<path fill-rule="evenodd" clip-rule="evenodd" fill="#F8A586" d="M299.391,118.704c-1.009,3.188-2.863,5.788-5.566,7.806
									c-2.744,2.097-5.87,3.145-9.379,3.145c-3.388,0-6.454-1.007-9.196-3.025c-2.623-1.935-4.499-4.518-5.627-7.744l16.034-0.848
									C289.691,118.038,294.269,118.261,299.391,118.704z"/>
								<g>
									<g>
										<path fill-rule="evenodd" clip-rule="evenodd" fill="#F8A586" d="M281.447,80.947c2.502,0,4.558,0.867,6.172,2.602
											c1.734,1.613,2.602,3.65,2.602,6.11v29.226l-13.917,8.774l-3.571-8.774V89.66c0-2.419,0.849-4.457,2.542-6.11
											C276.97,81.814,279.028,80.947,281.447,80.947z"/>
									</g>
								</g>
								<g>
									<path fill-rule="evenodd" clip-rule="evenodd" fill="#11132D" d="M254.946,68.604c-0.645,0-1.25-0.242-1.816-0.727
										c-0.443-0.525-0.665-1.131-0.665-1.815c0-0.605,0.222-1.17,0.665-1.693c0.483-0.444,1.089-0.667,1.816-0.667
										c0.726,0,1.311,0.223,1.754,0.667c0.484,0.482,0.726,1.048,0.726,1.693c0,0.727-0.242,1.331-0.726,1.815
										C256.217,68.362,255.631,68.604,254.946,68.604z"/>
									<path fill-rule="evenodd" clip-rule="evenodd" fill="#11132D" d="M274.489,68.604c-0.686,0-1.27-0.242-1.756-0.727
										c-0.443-0.525-0.665-1.131-0.665-1.815c0-0.605,0.222-1.17,0.665-1.693c0.445-0.444,1.029-0.667,1.756-0.667
										c0.725,0,1.291,0.223,1.694,0.667c0.524,0.482,0.787,1.048,0.787,1.693c0,0.727-0.263,1.331-0.787,1.815
										C275.78,68.362,275.214,68.604,274.489,68.604z"/>
								</g>
								<path fill-rule="evenodd" clip-rule="evenodd" fill="#F5E7E7" d="M258.031,91.597c-1.814-1.815-2.723-4.015-2.723-6.595
									h18.817c0,2.581-0.906,4.78-2.722,6.595c-1.855,1.855-4.074,2.784-6.656,2.784
									C262.125,94.381,259.885,93.452,258.031,91.597z"/>
								<path fill-rule="evenodd" clip-rule="evenodd" fill="#1B597B" d="M311.786,386.027c1.534,1.613,2.36,3.49,2.481,5.627
									c0.927,22.024,1.835,40.965,2.722,56.816c0.123,2.26-0.503,4.216-1.876,5.869c-1.412,1.654-3.166,2.541-5.263,2.663
									c-2.059,0.121-3.894-0.563-5.508-2.058c-1.572-1.492-2.42-3.367-2.541-5.627c-0.807-14.32-1.754-33.318-2.843-56.997
									c-0.121-2.219,0.544-4.154,1.996-5.812c1.372-1.611,3.146-2.479,5.324-2.6C308.298,383.87,310.132,384.575,311.786,386.027z
									"/>
								
									<line fill-rule="evenodd" clip-rule="evenodd" fill="none" stroke="#455A7D" stroke-width="1.35" x1="277.367" y1="277.598" x2="264.842" y2="277.898"/>
								<path fill-rule="evenodd" clip-rule="evenodd" fill="#F8A586" d="M255.041,222.959c1.291,0.403,2.359,1.028,3.206,1.876
									l3.813,4.115c0.806,0.807,1.351,1.956,1.632,3.447c0.404,1.454,0.465,2.763,0.182,3.934l-0.423,1.392
									c-0.322,1.251-0.947,2.199-1.876,2.846c-1.008,0.684-2.018,0.886-3.024,0.604l-1.997-0.424
									c-0.969-0.202-2.279-0.343-3.933-0.426c-1.413-0.039-2.723,0-3.934,0.122l-0.847,0.182c-1.049,0.162-2.38-0.059-3.993-0.664
									c-1.452-0.606-2.5-1.354-3.147-2.24c-1.937-2.541-2.4-5.444-1.391-8.712c1.088-3.269,3.328-5.204,6.715-5.81l5.386-0.726
									C252.58,222.354,253.789,222.515,255.041,222.959z"/>
								<path fill-rule="evenodd" clip-rule="evenodd" fill="#6D3E3E" d="M255.731,40.649c-2.944-1.693-4.92-4.134-5.929-7.321
									c-1.009-3.188-0.847-6.334,0.483-9.439l14.644,8.47L255.731,40.649z"/>
								<path fill-rule="evenodd" clip-rule="evenodd" fill="#FFD39B" d="M288.104,122.638c-1.856,1.854-4.115,2.783-6.777,2.783
									c-2.703,0-4.982-0.928-6.838-2.783c-1.896-1.896-2.845-4.176-2.845-6.838v-13.613h19.303V115.8
									C290.947,118.462,290,120.742,288.104,122.638z"/>
								<path fill-rule="evenodd" clip-rule="evenodd" fill="#FFD39B" d="M297.361,65.336c0-3.025,0.989-5.607,2.964-7.745
									c2.099-2.139,4.539-3.207,7.322-3.207c2.823,0,5.244,1.068,7.261,3.207c2.016,2.219,3.025,4.8,3.025,7.745
									c0,2.985-1.009,5.586-3.025,7.806c-2.017,2.138-4.438,3.207-7.261,3.207c-2.784,0-5.223-1.069-7.322-3.207
									C298.35,71.004,297.361,68.402,297.361,65.336z"/>
								<path fill-rule="evenodd" clip-rule="evenodd" fill="#FFD39B" d="M263.173,21.589c4.559-3.589,10.327-5.385,17.307-5.385
									h1.814c7.018,0,12.807,1.795,17.365,5.385c4.8,3.873,7.202,9.057,7.202,15.552v46.953c0,6.736-2.401,12.525-7.202,17.366
									c-4.8,4.76-10.589,7.14-17.365,7.14h-1.814c-6.778,0-12.547-2.38-17.307-7.14c-4.8-4.801-7.199-10.589-7.199-17.366V37.141
									C255.975,30.605,258.373,25.421,263.173,21.589z"/>
								<path fill-rule="evenodd" clip-rule="evenodd" fill="#FFD39B" d="M263.173,56.381c2.018,2.22,3.026,4.82,3.026,7.806
									c0,2.944-1.009,5.526-3.026,7.746c-2.015,2.137-4.436,3.206-7.261,3.206c-2.783,0-5.224-1.069-7.321-3.206
									c-1.977-2.138-2.964-4.721-2.964-7.746c0-3.065,0.988-5.668,2.964-7.806c2.097-2.138,4.538-3.206,7.321-3.206
									C258.737,53.175,261.158,54.243,263.173,56.381z"/>
								<path fill-rule="evenodd" clip-rule="evenodd" fill="#844B4B" d="M305.408,52.448c1.573,1.695,2.42,7.766,2.542,18.212
									c0.121,5.245,0.06,10.307-0.182,15.189c0.123,10.447-1.775,17.627-5.688,21.541c-1.814,1.815-4.154,3.085-7.018,3.812
									c-2.421,0.646-5.587,0.968-9.5,0.968H278c-3.753,0-6.898-0.343-9.44-1.029c-2.743-0.766-5.062-2.118-6.958-4.053
									c-3.792-4.035-5.749-11.497-5.87-22.388c-0.16-4.72-0.222-9.601-0.18-14.644c0.2-10.044,1.049-15.912,2.541-17.607v21.419
									c0,3.751,1.29,7.019,3.872,9.803c2.542,2.703,5.607,4.055,9.197,4.055h21.238c3.589,0,6.655-1.352,9.196-4.055
									c2.542-2.703,3.813-5.97,3.813-9.803V52.448z"/>
								<path fill-rule="evenodd" clip-rule="evenodd" fill="#844B4B" d="M290.583,12.635c6.172,0,10.671,1.149,13.495,3.448
									c3.267,2.663,4.901,7.141,4.901,13.432l-0.364,18.879c-0.605,12.988-1.674,20.33-3.207,22.025V47.124
									c0-4.114-1.271-7.665-3.813-10.65c-2.541-2.984-5.607-4.476-9.196-4.476h-21.238c-3.59,0-6.655,1.492-9.197,4.476
									c-2.583,3.026-3.872,6.576-3.872,10.65v23.296c-1.492-1.734-2.541-9.076-3.146-22.025
									c-0.162-4.035-0.284-8.391-0.364-13.069l-0.06-5.81c0-3.066,0.444-5.324,1.331-6.776c0.807-1.211,2.037-1.875,3.691-1.998
									c1.25-0.08,3.228,0.082,5.929,0.485c3.308,0.443,5.891,0.666,7.747,0.666L290.583,12.635z"/>
								<path fill-rule="evenodd" clip-rule="evenodd" fill="#844B4B" d="M294.639,78.104c3.549,1.573,5.325,4.619,5.325,9.137
									c0,4.962-1.775,9.238-5.325,12.828c-3.549,3.508-7.847,5.264-12.888,5.264c-4.962,0-9.238-1.755-12.828-5.264
									c-3.55-3.55-5.326-7.826-5.326-12.828c0-4.518,1.776-7.564,5.326-9.137c2.58-1.17,6.857-1.755,12.828-1.755
									C287.761,76.349,292.057,76.933,294.639,78.104z"/>
								<path fill-rule="evenodd" clip-rule="evenodd" fill="#FFD39B" d="M289.253,87.665c1.169,0.282,2.238,0.443,3.207,0.483
									l1.391,0.061c0,1.332-1.108,2.44-3.328,3.328c-2.137,0.887-4.8,1.332-7.988,1.332c-3.146,0-5.807-0.445-7.987-1.332
									c-2.178-0.888-3.267-1.996-3.267-3.328c1.534,0,3.146-0.181,4.841-0.543c3.388-0.768,5.525-2.118,6.413-4.055
									C283.667,85.505,285.905,86.857,289.253,87.665z"/>
								<path fill-rule="evenodd" clip-rule="evenodd" fill="#6D3E3E" d="M260.936,9.246c1.896-0.524,3.912-0.827,6.05-0.907
									c4.478-0.121,7.484,0.947,9.016,3.207c0.323-1.614,0.02-3.55-0.906-5.809l-1.453-2.905c1.773-0.04,3.691,0.202,5.747,0.727
									c4.114,1.089,6.797,3.045,8.048,5.869c1.048-0.242,1.937-0.848,2.663-1.815l0.847-1.393c0.524,0.162,1.452,0.566,2.783,1.21
									c2.42,1.171,5.083,2.905,7.987,5.205c3.228,2.541,5.406,5.769,6.534,9.681c0.566,1.977,0.787,3.671,0.668,5.083
									l-0.182,16.034l-0.424-1.088c-0.486-1.009-1.029-1.875-1.634-2.602c-2.018-2.663-4.72-4.256-8.108-4.781
									c-3.429-0.604-7.12-0.101-11.073,1.512c-1.937,0.768-3.591,1.615-4.962,2.542c-8.996-4.639-16.336-5.425-22.024-2.36
									c-1.815,1.008-3.308,2.32-4.478,3.933c-0.605,0.767-1.029,1.473-1.271,2.118l-3.509-25.474
									c0.927-0.565,2.137-0.847,3.629-0.847c3.026,0,6.01,1.392,8.956,4.175c-0.524-2.583-1.19-5.245-1.997-7.987L260.936,9.246z"
									/>
								<path fill-rule="evenodd" clip-rule="evenodd" fill="#020303" d="M291.916,56.261c-0.445-0.363-0.667-0.848-0.667-1.453
									c0-0.565,0.222-1.069,0.667-1.513c0.362-0.362,0.827-0.544,1.391-0.544c0.646,0,1.17,0.183,1.574,0.544
									c0.364,0.444,0.544,0.948,0.544,1.513c0,0.605-0.181,1.09-0.544,1.453c-0.443,0.442-0.969,0.665-1.574,0.665
									C292.743,56.925,292.278,56.703,291.916,56.261z"/>
								<path fill-rule="evenodd" clip-rule="evenodd" fill="#020303" d="M268.257,56.261c-0.443-0.363-0.666-0.848-0.666-1.453
									c0-0.565,0.223-1.069,0.666-1.513c0.362-0.362,0.827-0.544,1.391-0.544c0.646,0,1.169,0.183,1.573,0.544
									c0.324,0.363,0.485,0.868,0.485,1.513c0,0.645-0.161,1.13-0.485,1.453c-0.443,0.442-0.967,0.665-1.573,0.665
									C269.084,56.925,268.62,56.703,268.257,56.261z"/>
								<path fill-rule="evenodd" clip-rule="evenodd" fill="#455A7D" d="M283.481,245.288c-0.122-3.51,1.008-6.576,3.388-9.199
									c2.299-2.581,5.164-3.934,8.592-4.054l5.384-0.06c3.391-0.041,6.295,1.189,8.715,3.69c2.379,2.46,3.63,5.465,3.751,9.017
									c1.775,75.592,4.074,140.659,6.898,195.197l-29.769,1.632C287.576,387.499,285.255,322.09,283.481,245.288z"/>
								<g>
									<path fill-rule="evenodd" clip-rule="evenodd" fill="#304779" d="M259.93,117.494h38.923
										c6.105,0.003,9.932,1.375,11.481,4.115c1.544,2.733,2.706,12.979,3.477,30.737l5.554,125.433h-79.146l-2.552-133.42
										c0-7.422,2.168-13.755,6.504-19C248.573,120.116,253.826,117.494,259.93,117.494z"/>
									<polygon fill-rule="evenodd" clip-rule="evenodd" fill="#455A7D" points="274.329,142.041 253.286,128.776 
										263.744,110.857 285.232,133.877 309.272,234.184 266.677,154.666 									"/>
									<polygon fill-rule="evenodd" clip-rule="evenodd" fill="#EBF7FE" points="275.157,116.406 298.242,116.406 311.25,234.184 
																			"/>
									<polygon fill-rule="evenodd" clip-rule="evenodd" fill="#455A7D" points="306.34,115.513 313.482,187.569 292.758,111.24 
																			"/>
									<polygon fill-rule="evenodd" clip-rule="evenodd" fill="#FFFFFF" points="291.833,112.005 292.662,112.005 
										300.729,117.298 301.686,129.287 296.456,125.971 									"/>
									<g>
										<polygon fill-rule="evenodd" clip-rule="evenodd" fill="#CA6959" points="296.265,185.912 296.265,131.582 
											299.135,134.324 310.613,181.129 310.613,231.76 										"/>
										<polygon fill-rule="evenodd" clip-rule="evenodd" fill="#CA6959" points="300.345,135.344 284.532,126.608 
											290.015,116.66 300.345,122.91 										"/>
									</g>
									<polygon fill-rule="evenodd" clip-rule="evenodd" fill="#FFFFFF" points="265.209,113.855 265.209,109.391 
										292.821,116.852 284.914,138.979 									"/>
									<g>
										<path fill-rule="evenodd" clip-rule="evenodd" fill="#304779" d="M269.291,174.53c-8.648-7.47-10.71-9.266-6.185-5.388
											l4.591-26.337c4.676,4.465,10.714,10.332,18.11,17.6c7.396,7.269,15.421,14.793,24.072,22.574
											c8.651,7.782,26.622,9.461,53.915,5.038l2.998,18.302c-31.996,6.184-54.082,4.303-66.254-5.645
											C288.362,190.723,277.947,182.008,269.291,174.53z"/>
									</g>
								</g>
								<path fill-rule="evenodd" clip-rule="evenodd" fill="#D9D1BD" d="M334.78,451.859l-0.182,14.945h-35.336v-14.099
									c0-2.058,0.746-3.831,2.24-5.322c1.492-1.492,3.265-2.24,5.323-2.24h20.453c0.242,1.935,1.089,3.53,2.541,4.78
									C331.191,451.215,332.845,451.859,334.78,451.859z"/>
								<path fill-rule="evenodd" clip-rule="evenodd" fill="#ECE5E1" d="M345.005,461.482v5.322h-23.477v-5.322
									c0-2.624,0.948-4.884,2.844-6.778c1.855-1.896,4.094-2.845,6.716-2.845h4.296c2.743,0,5.002,0.948,6.776,2.845
									C344.057,456.56,345.005,458.819,345.005,461.482z"/>
								<path fill-rule="evenodd" clip-rule="evenodd" fill="#ECE5E1" d="M306.159,454.765c1.815,1.814,2.723,4.055,2.723,6.718
									v5.322h-9.62v-14.099l0.121-0.847C302.044,451.941,304.303,452.907,306.159,454.765z"/>
								<path fill-rule="evenodd" clip-rule="evenodd" fill="#D9D1BD" d="M313.662,445.627v-1.693c0-1.211,0.445-2.239,1.333-3.087
									c0.845-0.927,1.874-1.393,3.085-1.393h4.78c1.25,0,2.299,0.466,3.147,1.393c0.847,0.848,1.27,1.876,1.27,3.087v1.693
									H313.662z"/>
								<rect x="299.262" y="461.843" fill-rule="evenodd" clip-rule="evenodd" fill="#D9D1BD" width="47.136" height="4.962"/>
								<path fill-rule="evenodd" clip-rule="evenodd" fill="#D9D1BD" d="M258.247,445.144h20.451c0.202,1.935,1.009,3.53,2.42,4.78
									c1.412,1.291,3.106,1.936,5.083,1.936l-0.182,14.945h-35.336v-14.099c0-2.098,0.746-3.871,2.238-5.322
									C254.293,445.892,256.068,445.144,258.247,445.144z"/>
								<path fill-rule="evenodd" clip-rule="evenodd" fill="#ECE5E1" d="M297.757,461.482v5.322h-23.537v-5.322
									c0-2.624,0.949-4.884,2.845-6.778c1.854-1.896,4.113-2.845,6.775-2.845h4.297c2.703,0,4.982,0.948,6.838,2.845
									C296.831,456.56,297.757,458.819,297.757,461.482z"/>
								<path fill-rule="evenodd" clip-rule="evenodd" fill="#ECE5E1" d="M250.743,451.859c2.664,0.082,4.923,1.048,6.777,2.905
									c1.855,1.814,2.783,4.055,2.783,6.718v5.322h-9.62v-14.099L250.743,451.859z"/>
								<path fill-rule="evenodd" clip-rule="evenodd" fill="#D9D1BD" d="M265.024,445.627v-1.693c0-1.211,0.423-2.239,1.27-3.087
									c0.847-0.927,1.916-1.393,3.206-1.393h4.72c1.13,0,2.198,0.466,3.208,1.393c0.846,0.848,1.27,1.876,1.27,3.087v1.693
									H265.024z"/>
								<rect x="250.684" y="461.843" fill-rule="evenodd" clip-rule="evenodd" fill="#D9D1BD" width="47.074" height="4.962"/>
								
									<line fill-rule="evenodd" clip-rule="evenodd" fill="none" stroke="#050607" stroke-width="1.35" stroke-linecap="round" x1="271.799" y1="446.959" x2="278.517" y2="446.959"/>
								
									<line fill-rule="evenodd" clip-rule="evenodd" fill="none" stroke="#050607" stroke-width="1.35" stroke-linecap="round" x1="274.221" y1="450.648" x2="280.938" y2="450.648"/>
								
									<line fill-rule="evenodd" clip-rule="evenodd" fill="none" stroke="#050607" stroke-width="1.35" stroke-linecap="round" x1="321.044" y1="446.959" x2="327.76" y2="446.959"/>
								
									<line fill-rule="evenodd" clip-rule="evenodd" fill="none" stroke="#050607" stroke-width="1.35" stroke-linecap="round" x1="323.465" y1="450.648" x2="330.12" y2="450.648"/>
							</g>
						</g>
					</g>
				</g>
				<g>
					<path fill-rule="evenodd" clip-rule="evenodd" fill="#CC6600" d="M538.581,55.955v14.857l-3.253,3.698
						c0-6.505,0.086-14.178,0.255-23.02c0.171-8.885-2.805-12.392-8.927-10.521c-6.079,1.87-13.73,2.636-22.956,2.295
						c-1.955-0.085-5.568-0.638-10.841-1.657l-7.396-1.467c3.146-1.063,5.186-3.252,6.122-6.569l-5.611,2.232
						c-3.954,2.083-5.974,6.462-6.059,13.136c0,3.358-0.043,8.268-0.127,14.73c-0.086,6.036-0.148,9.395-0.191,10.075l-2.679-3.635
						c-0.042-4.676-0.085-9.585-0.128-14.729c0-0.936-0.041-1.871-0.127-2.807c-0.17-13.05,0.658-21.468,2.486-25.251
						c1.871-3.741,3.996-6.738,6.377-8.99c1.404-1.361,3.55-2.551,6.44-3.572c3.444-1.275,7.354-2.062,11.733-2.359
						c2.381-0.17,5.549-0.042,9.501,0.383c3.7,0.382,6.356,0.808,7.971,1.275c2.85,0.892,5.379,2.019,7.589,3.379
						c2.296,1.445,4.038,3.019,5.229,4.719c0.894,1.063,1.933,2.593,3.125,4.591c1.147,2.041,1.72,4.931,1.72,8.673
						C538.834,39.162,538.75,46.006,538.581,55.955z"/>
					<path fill-rule="evenodd" clip-rule="evenodd" fill="#FF9966" d="M538.581,55.955c2.167,0.254,3.911,0.829,5.229,1.721
						c1.531,1.021,2.339,2.359,2.424,4.018c0.212,4.804-0.553,8.226-2.296,10.267c-1.232,1.445-3.337,2.38-6.313,2.806
						c-0.73,9.337-1.74,15.735-3.028,19.193c-1.291,3.456-3.651,6.559-7.08,9.311c-0.616,0.511-2.434,1.552-5.45,3.125
						c-2.68,1.403-4.284,2.2-4.815,2.391l-2.646,1.053c-0.212,0.085-0.426,0.17-0.638,0.255l-11.543,6.695l-5.546-7.014
						c-0.512-0.212-1.021-0.446-1.531-0.701c-0.171-0.086-0.978-0.553-2.424-1.403c-2.337-1.318-4.749-3.071-7.237-5.261
						c-4.419-3.893-6.874-13.298-7.363-28.217c-2.638,0-4.444-0.298-5.421-0.893c-2.806-1.785-4.103-5.824-3.891-12.116
						c0.043-1.7,0.85-3.061,2.424-4.081c1.359-0.894,3.146-1.467,5.355-1.722c0.043,5.144,0.086,10.053,0.128,14.729l2.679,3.635
						c0.043-0.68,0.105-4.039,0.191-10.075c0.084-6.462,0.127-11.372,0.127-14.73c0.085-6.674,2.104-11.054,6.059-13.136
						l5.611-2.232c-0.937,3.316-2.976,5.505-6.122,6.569l7.396,1.467c5.272,1.02,8.886,1.572,10.841,1.657
						c9.226,0.34,16.877-0.425,22.956-2.295c6.122-1.871,9.098,1.637,8.927,10.521c-0.169,8.842-0.255,16.515-0.255,23.02
						l3.253-3.698V55.955z M488.524,56.146c-0.595,0.638-0.894,1.339-0.894,2.104c0,0.808,0.299,1.488,0.894,2.041
						c0.594,0.553,1.275,0.829,2.04,0.829s1.446-0.276,2.041-0.829c0.553-0.553,0.828-1.233,0.828-2.041
						c0-0.765-0.275-1.466-0.828-2.104c-0.595-0.553-1.276-0.829-2.041-0.829S489.118,55.592,488.524,56.146z M491.265,84.203
						c-0.468,2.805-0.043,5.909,1.275,9.31c0.809,1.403,1.956,2.509,3.443,3.316c2.934,1.616,5.866,2.444,8.801,2.487
						c2.124,0.085,4.591-0.489,7.396-1.722c1.275-0.596,2.529-1.785,3.762-3.571c1.319-2.763,1.722-5.994,1.211-9.692
						C508.1,88.965,499.47,88.921,491.265,84.203z M520.598,56.592c-0.808,0-1.487,0.276-2.04,0.829
						c-0.553,0.552-0.829,1.233-0.829,2.04c0,0.809,0.276,1.488,0.829,2.041c0.553,0.51,1.232,0.765,2.04,0.765
						c0.809,0,1.488-0.255,2.041-0.765c0.51-0.553,0.765-1.232,0.765-2.041c0-0.425-0.085-0.807-0.255-1.148
						c-0.085-0.34-0.234-0.616-0.446-0.829l-0.063-0.063C522.086,56.868,521.407,56.592,520.598,56.592z M572.887,232.844
						c-9.055,12.71-18.45,12.945-28.185,0.702c-0.085-2.337-0.063-3.55,0.063-3.634c3.911-0.086,7.162-1.255,9.756-3.507
						c-3.23-2.807-3.762-5.102-1.594-6.888c1.402,1.062,2.275,1.786,2.615,2.167v0.511L572.887,232.844z"/>
					<path fill-rule="evenodd" clip-rule="evenodd" d="M488.524,56.146c0.594-0.553,1.275-0.829,2.04-0.829s1.446,0.276,2.041,0.829
						c0.553,0.638,0.828,1.339,0.828,2.104c0,0.808-0.275,1.488-0.828,2.041c-0.595,0.553-1.276,0.829-2.041,0.829
						s-1.446-0.276-2.04-0.829c-0.595-0.553-0.894-1.233-0.894-2.041C487.63,57.484,487.929,56.783,488.524,56.146z M520.598,56.592
						c0.809,0,1.488,0.276,2.041,0.829l0.063,0.063c0.212,0.213,0.361,0.489,0.446,0.829c0.17,0.341,0.255,0.723,0.255,1.148
						c0,0.809-0.255,1.488-0.765,2.041c-0.553,0.51-1.232,0.765-2.041,0.765c-0.808,0-1.487-0.255-2.04-0.765
						c-0.553-0.553-0.829-1.232-0.829-2.041c0-0.807,0.276-1.488,0.829-2.04C519.111,56.868,519.791,56.592,520.598,56.592z"/>
					<path fill-rule="evenodd" clip-rule="evenodd" fill="#FFFFFF" d="M503.38,175.837l-1.594-41.386l5.356-4.974l-4.72-12.69
						l-7.077,11.606l4.591,5.74l-8.735,42.213l-1.913-55.286l-1.402-3.379l7.46-8.609c0.511,0.255,1.02,0.489,1.531,0.701
						l5.546,7.014l11.543-6.695c0.212-0.085,0.426-0.17,0.638-0.255l5.612,11.478l-2.807,2.487L503.38,175.837z M491.265,84.203
						c8.205,4.718,16.835,4.762,25.889,0.127c0.511,3.698,0.108,6.929-1.211,9.692c-1.232,1.786-2.486,2.976-3.762,3.571
						c-2.806,1.233-5.272,1.807-7.396,1.722c-2.935-0.043-5.867-0.872-8.801-2.487c-1.487-0.807-2.635-1.913-3.443-3.316
						C491.222,90.112,490.797,87.008,491.265,84.203z"/>
					<path fill-rule="evenodd" clip-rule="evenodd" fill="#304779" d="M572.887,232.844l-17.344-10.648v-0.511l14.984-31.947
						l-25.061-35.136l-0.701,75.311c-0.127,0.084-0.148,1.297-0.063,3.634l-0.318,44.765h-5.739l-26.91-0.383l-17.281-1.212h-30.99
						h-9.566c3.861-18.581,6.253-36.425,7.174-53.532l0.032,0.032c0.851-25.379,0.404-45.445-1.34-60.197
						c-1.304,10.311-6.96,19.854-16.961,28.632c-9.054,7.96-21.169,12.871-36.348,14.729v-17.153
						c14.207-3.255,25.706-11.438,34.497-24.55c10.034-14.879,17.941-28.399,23.724-40.557c1.276-3.019,3.612-5.186,7.013-6.504
						l11.799-1.403l-7.845,19.96l12.946,6.759l-10.203,6.186l12.816,56.179l31.82-48.718l-7.845-11.861l13.009-2.614l-3.251-23.594
						c2.023,0.337,5.286,1.038,9.788,2.104c4.5,1.066,7.337,2.087,8.512,3.061c1.488,1.105,4.061,4.485,7.716,10.139
						c3.909,5.956,15.026,19.432,33.351,40.428c7.482,6.037,10.693,12.074,9.63,18.11l-17.537,42.662L572.887,232.844z"/>
					<path fill-rule="evenodd" clip-rule="evenodd" fill="#333366" d="M491.202,176.346v28.951l12.179-29.459l14.029-52.035
						l2.807-2.487l-5.612-11.478l2.646-1.053l6.983,4.305l0.701,5.42l3.251,23.594l-13.009,2.614l7.845,11.861l-31.82,48.718
						l-12.816-56.179l10.203-6.186l-12.946-6.759l7.845-19.96l3.378-6.122l6.058-2.423c1.446,0.85,2.253,1.317,2.424,1.403
						l-7.46,8.609l1.402,3.379L491.202,176.346z M476.342,429.409l-6.375,0.029h-3.762l-2.742-152.723h30.99v152.723h-3.379
						L476.342,429.409z M535.264,428.738h-14.73h-6.376h-3.763V277.928h1.34l26.91,0.383v150.428H535.264z"/>
					<polygon fill-rule="evenodd" clip-rule="evenodd" fill="#FFCC00" points="503.38,175.837 491.202,205.297 491.202,176.346 
						499.937,134.133 495.346,128.394 502.423,116.788 507.143,129.478 501.787,134.452 					"/>
					<path fill-rule="evenodd" clip-rule="evenodd" fill="#CCCCCC" d="M476.342,429.409l14.732,0.029l0.701,5.166
						c-2.849,0.128-5.591-0.042-8.227-0.51c-2.551-0.596-3.91-0.893-4.08-0.893c-0.213-0.041-0.384-0.233-0.512-0.575
						c-0.042-0.255-0.383-0.807-1.021-1.657C477.257,430.034,476.726,429.513,476.342,429.409z M521.809,454.626l14.794-0.892v5.037
						c-14.75,0.894-27.993,1.49-39.726,1.786c-1.394,0.222-2.882-0.183-4.463-1.21v0.127c-14.753,0.891-27.996,1.486-39.729,1.785
						c-1.851,0.277-3.892-0.55-6.12-2.488c-2.236-1.926-3.607-3.848-4.113-5.769c-0.494-1.934-0.717-4.303-0.67-7.111l1.595-2.168
						v0.191c0.08,2.382,0.91,4.486,2.486,6.313c2.423,2.509,4.485,4.122,6.185,4.848c1.829,0.68,4.507,1.042,8.035,1.083
						l17.537-0.829l10.106-0.604c-0.507-0.8-0.858-1.598-1.052-2.393c-0.511-1.955-0.744-4.337-0.701-7.141l1.594-2.17v0.191
						c0.086,2.383,0.913,4.483,2.485,6.312c0.792,0.82,1.547,1.542,2.266,2.17c1.468,1.299,2.775,2.19,3.922,2.678
						c1.828,0.681,4.506,1.041,8.034,1.084L521.809,454.626z M520.534,428.738h14.73l0.702,5.164
						c-2.85,0.129-5.591-0.043-8.227-0.508c-2.55-0.597-3.911-0.895-4.081-0.895c-0.212-0.043-0.381-0.233-0.51-0.573
						c-0.042-0.256-0.383-0.809-1.021-1.658C521.45,429.334,520.917,428.824,520.534,428.738z"/>
					<path fill-rule="evenodd" clip-rule="evenodd" fill="#999999" d="M477.62,455.329l-17.537,0.829
						c-3.528-0.041-6.206-0.403-8.035-1.083c-1.699-0.726-3.762-2.339-6.185-4.848c-1.576-1.826-2.406-3.931-2.486-6.313v-0.191
						c-0.043-0.085,2.614-1.232,7.972-3.444c5.271-2.167,8.926-3.635,10.966-4.399l2.743,7.269l2.869-1.402l-3.251-6.694
						c0.168-0.086,0.317-0.128,0.445-0.128c0.425-0.17,0.831-0.342,1.211-0.511c2.425,4.762,3.614,7.184,3.571,7.271l2.742-1.022
						l-4.719-8.035l2.041-3.188l6.375-0.029c0.384,0.104,0.915,0.625,1.594,1.561c0.639,0.851,0.979,1.402,1.021,1.657
						c0.128,0.342,0.299,0.534,0.512,0.575c0.17,0,1.529,0.297,4.08,0.893c2.636,0.468,5.378,0.638,8.227,0.51v3.508
						c-3.23,0.637-6.208,2.251-8.928,4.847C480.084,445.511,478.342,449.633,477.62,455.329z M487.567,443.021
						c-0.032-0.063,1.414-0.699,4.336-1.912c1.023-0.444,2.235-0.952,3.636-1.531c5.271-2.168,8.927-3.633,10.967-4.4l2.743,7.271
						l2.869-1.402l-3.253-6.696c0.171-0.087,0.319-0.13,0.447-0.13c0.425-0.169,0.829-0.339,1.212-0.508
						c2.422,4.761,3.613,7.184,3.57,7.268l2.741-1.021l-4.718-8.033l2.04-3.188h6.376c0.383,0.086,0.916,0.596,1.595,1.53
						c0.638,0.85,0.979,1.402,1.021,1.658c0.129,0.34,0.298,0.53,0.51,0.573c0.17,0,1.531,0.298,4.081,0.895
						c2.636,0.465,5.377,0.637,8.227,0.508v3.508c-3.231,0.637-6.207,2.254-8.928,4.847c-2.763,2.55-4.506,6.672-5.229,12.369
						l-17.535,0.83c-3.528-0.043-6.206-0.403-8.034-1.084c-1.146-0.487-2.454-1.379-3.922-2.678c-0.719-0.628-1.474-1.35-2.266-2.17
						c-1.572-1.828-2.399-3.929-2.485-6.312V443.021z"/>
					<path fill-rule="evenodd" clip-rule="evenodd" fill="#666666" d="M535.966,437.41l0.637,16.324l-14.794,0.892
						c0.724-5.697,2.467-9.819,5.229-12.369C529.759,439.664,532.735,438.047,535.966,437.41z M512.118,431.927l4.718,8.033
						l-2.741,1.021c0.043-0.084-1.148-2.507-3.57-7.268C511.162,433.202,511.692,432.606,512.118,431.927z M506.505,435.178
						c0.809-0.296,1.595-0.573,2.359-0.827l3.253,6.696l-2.869,1.402L506.505,435.178z M477.62,455.329
						c0.723-5.696,2.465-9.818,5.229-12.37c2.72-2.596,5.697-4.21,8.928-4.847l0.127,2.997c-2.922,1.213-4.368,1.85-4.336,1.912
						l-1.594,2.17c-0.043,2.804,0.19,5.186,0.701,7.141c0.193,0.795,0.545,1.593,1.052,2.393L477.62,455.329z M467.926,432.627
						l4.719,8.035l-2.742,1.022c0.043-0.088-1.146-2.51-3.571-7.271C466.97,433.902,467.502,433.307,467.926,432.627z
						 M462.314,435.88c0.81-0.299,1.596-0.572,2.361-0.828l3.251,6.694l-2.869,1.402L462.314,435.88z"/>
					<g>
						<path fill-rule="evenodd" clip-rule="evenodd" fill="#FF9966" d="M383.116,207.083c3.592-3.585,5.995-8.835,7.207-15.751
							c-4.252-2.806-5.23-5.101-2.935-6.886c1.871,1.062,3.019,1.786,3.444,2.167l15.432,4.975v12.051
							C395.38,210.016,387.664,211.163,383.116,207.083z"/>
					</g>
				</g>
			</g>
		</g>
	</g>
</g>
<g>
	
		<rect x="3.667" y="72" fill-rule="evenodd" clip-rule="evenodd" fill="#FFFFFF" stroke="#929497" stroke-width="2" stroke-miterlimit="10" width="102" height="130.885"/>
	<g>
		<path d="M47.133,95.451c0,0.592-0.109,1.107-0.328,1.544c-0.218,0.437-0.524,0.798-0.917,1.083
			c-0.393,0.285-0.86,0.497-1.403,0.635s-1.134,0.208-1.776,0.208c-0.57,0-1.121-0.033-1.652-0.1S40,98.644,39.48,98.489v-2.017
			c0.254,0.088,0.52,0.171,0.797,0.249s0.555,0.145,0.834,0.204c0.28,0.058,0.558,0.104,0.834,0.137s0.545,0.05,0.805,0.05
			c0.387,0,0.717-0.033,0.988-0.1s0.493-0.158,0.664-0.274s0.296-0.254,0.374-0.415s0.116-0.337,0.116-0.531
			c0-0.266-0.076-0.488-0.229-0.668c-0.152-0.18-0.353-0.339-0.602-0.477s-0.533-0.263-0.851-0.374
			c-0.318-0.111-0.642-0.229-0.972-0.357c-0.329-0.127-0.653-0.271-0.971-0.432c-0.318-0.161-0.602-0.36-0.851-0.598
			s-0.45-0.521-0.602-0.851c-0.152-0.329-0.228-0.726-0.228-1.191c0-0.426,0.078-0.83,0.232-1.212s0.398-0.715,0.73-1
			c0.332-0.285,0.758-0.512,1.278-0.681c0.52-0.168,1.148-0.253,1.884-0.253c0.216,0,0.441,0.01,0.677,0.029
			c0.235,0.019,0.467,0.044,0.697,0.074c0.229,0.031,0.451,0.066,0.664,0.108c0.213,0.041,0.408,0.084,0.585,0.128v1.868
			c-0.177-0.066-0.371-0.127-0.581-0.183s-0.428-0.104-0.651-0.146c-0.225-0.041-0.45-0.073-0.677-0.095s-0.443-0.033-0.647-0.033
			c-0.36,0-0.664,0.029-0.913,0.087c-0.249,0.058-0.454,0.138-0.614,0.24c-0.161,0.103-0.277,0.229-0.349,0.378
			s-0.108,0.315-0.108,0.498c0,0.227,0.076,0.422,0.228,0.585c0.152,0.164,0.354,0.31,0.606,0.44
			c0.251,0.13,0.537,0.251,0.854,0.365c0.318,0.113,0.645,0.235,0.979,0.365c0.335,0.13,0.662,0.278,0.979,0.444
			c0.318,0.166,0.604,0.368,0.855,0.606c0.251,0.238,0.454,0.519,0.605,0.843C47.057,94.625,47.133,95.008,47.133,95.451z"/>
		<path d="M49.648,98.73V87.881h2.075v9.098h4.582v1.751H49.648z"/>
		<path d="M64.416,98.73l-0.598-2.142h-3.785l-0.614,2.142h-2.025l3.212-10.849h2.855l3.212,10.849H64.416z M61.95,89.873
			l-1.428,5.047h2.839L61.95,89.873z"/>
	</g>
	<rect x="11.667" y="112" fill-rule="evenodd" clip-rule="evenodd" fill="#A3A3A3" width="87" height="5"/>
	<rect x="11.667" y="123" fill-rule="evenodd" clip-rule="evenodd" fill="#A3A3A3" width="87" height="5"/>
	<rect x="11.667" y="140" fill-rule="evenodd" clip-rule="evenodd" fill="#A3A3A3" width="40" height="5"/>
	<rect x="11.667" y="153" fill-rule="evenodd" clip-rule="evenodd" fill="#A3A3A3" width="40" height="5"/>
	<rect x="11.667" y="166" fill-rule="evenodd" clip-rule="evenodd" fill="#A3A3A3" width="40" height="5"/>
	<rect x="11.667" y="186" fill-rule="evenodd" clip-rule="evenodd" fill="#A3A3A3" width="49" height="5"/>
	<rect x="61.667" y="140" fill-rule="evenodd" clip-rule="evenodd" fill="#A3A3A3" width="37" height="5"/>
	<rect x="61.667" y="153" fill-rule="evenodd" clip-rule="evenodd" fill="#A3A3A3" width="37" height="5"/>
	<rect x="61.667" y="166" fill-rule="evenodd" clip-rule="evenodd" fill="#A3A3A3" width="37" height="5"/>
	<g>
		<path fill="#0000D1" d="M76.877,177.504c1.062,5.632-2.89,9.421-6.845,12.76c-0.888,0.667-1.745,1.371-2.571,2.112
			c-3.187-0.078,2.173-6.027,2.663-6.542c1.623-2.203,3.738-2.449,6.345-0.739c-0.331,0.821-0.542,1.281-0.837,2.118
			c-0.517,1.461,0.217,2.979,1.922,2.799c3.213-0.339,5.258-5.187,7.705-6.614c-0.468-0.186-0.937-0.372-1.404-0.558
			c0.468,0.186,0.936,0.372,1.404,0.558c-0.509-0.135-1.017-0.27-1.525-0.405c-1.783,2.298-4.886,5.825,0.435,6.16
			c4.209,0.266,7.313-3.16,8.243-6.972c0.166-0.682-1.082-0.496-1.372-0.365c-0.333,0.15-0.665,0.301-0.998,0.451
			c-0.271,0.123-0.636,0.377-0.565,0.726c0.182,0.895,0.227,0.747,1.11,1.265c0.292,0.171-0.744,1.907-0.941,2.356
			c-0.368,0.836,0.377,1.99,1.262,2.064c4.947,0.415,4.134-3.362,1.659-6.025c-0.49,0.324-0.98,0.648-1.47,0.973
			c1.154,0.409-5.719,6.056-6.385,6.515c-1.575,1.083-3.617,1.772-5.262,2.824c-2.413,1.542-4.547,3.308-7.307,4.264
			c-2.107,0.637-2.901,0.194-2.38-1.33c0.193-1.937,3.211-3.562,4.636-4.561c2.671-1.873,5.507-3.5,8.397-5.007
			c5.254-2.738,10.909-4.565,16.711-5.693c1.204-0.234,0.877-1.339-0.298-1.11c-6.604,1.283-12.997,3.501-18.899,6.753
			c-4.803,2.646-12.507,5.538-12.616,11.822c-0.006,0.358,0.293,0.48,0.612,0.508c2.965,0.262,5.367-0.562,7.934-1.994
			c3.517-1.962,7.358-4.093,10.613-6.419c1.262-0.901,9.169-6.387,5.397-7.724c-0.406-0.144-2.049,0.349-1.47,0.973
			c1.454,1.564,1.215,2.225,2.505,0.536c0.203-0.266-0.055-0.586-0.332-0.632c-0.372-0.2-0.744-0.4-1.116-0.6
			c-0.457-0.122-0.914-0.243-1.372-0.365c-0.243,0.728-0.486,1.455-0.729,2.183c-1.11,2.778-2.992,2.872-5.646,0.28
			c0.564-0.655,0.933-1.066,1.458-1.742c0.608-0.784-1.221-0.594-1.525-0.405c-0.806,0.499-0.953,0.515-1.461,1.126
			c-0.192,0.231-0.291,0.532,0.029,0.713c0.053,0.03,0.106,0.06,0.159,0.09c0.417,0.237,0.996,0.08,1.375-0.155
			c0.695-0.43,0.699-0.492,1.302-1.216c0.764-0.917-0.924-0.838-1.404-0.558c-1.438,0.838-7.722,7.021-5.739,2.508
			c0.881-2.006,0.667-2.584-1.382-3.162c-5.133-1.449-9.583,4.521-12.148,7.897c-2.498,3.288,2.642,4.108,4.549,2.592
			c4.955-3.938,10.831-8.501,9.502-15.548C78.666,176.227,76.727,176.71,76.877,177.504L76.877,177.504z"/>
	</g>
</g>
<g>
	
		<rect x="706.667" y="72" fill-rule="evenodd" clip-rule="evenodd" fill="#FFFFFF" stroke="#929497" stroke-width="2" stroke-miterlimit="10" width="102" height="130.885"/>
	<g>
		<path d="M750.133,95.451c0,0.592-0.109,1.107-0.328,1.544s-0.523,0.798-0.917,1.083c-0.394,0.285-0.86,0.497-1.403,0.635
			c-0.542,0.138-1.134,0.208-1.775,0.208c-0.57,0-1.121-0.033-1.652-0.1s-1.057-0.177-1.577-0.332v-2.017
			c0.255,0.088,0.521,0.171,0.797,0.249s0.555,0.145,0.834,0.204c0.28,0.058,0.558,0.104,0.835,0.137
			c0.276,0.033,0.545,0.05,0.805,0.05c0.387,0,0.717-0.033,0.988-0.1c0.271-0.066,0.492-0.158,0.664-0.274
			c0.171-0.116,0.295-0.254,0.373-0.415s0.116-0.337,0.116-0.531c0-0.266-0.076-0.488-0.229-0.668
			c-0.151-0.18-0.353-0.339-0.602-0.477s-0.532-0.263-0.851-0.374s-0.643-0.229-0.972-0.357s-0.653-0.271-0.971-0.432
			c-0.318-0.161-0.603-0.36-0.851-0.598c-0.25-0.238-0.45-0.521-0.603-0.851c-0.151-0.329-0.228-0.726-0.228-1.191
			c0-0.426,0.077-0.83,0.232-1.212c0.154-0.382,0.398-0.715,0.73-1c0.332-0.285,0.758-0.512,1.277-0.681
			c0.521-0.168,1.148-0.253,1.885-0.253c0.216,0,0.441,0.01,0.677,0.029c0.235,0.019,0.468,0.044,0.697,0.074
			c0.229,0.031,0.45,0.066,0.664,0.108c0.213,0.041,0.407,0.084,0.585,0.128v1.868c-0.178-0.066-0.371-0.127-0.581-0.183
			s-0.428-0.104-0.651-0.146c-0.225-0.041-0.449-0.073-0.677-0.095s-0.442-0.033-0.647-0.033c-0.359,0-0.664,0.029-0.913,0.087
			c-0.249,0.058-0.454,0.138-0.614,0.24c-0.16,0.103-0.277,0.229-0.349,0.378s-0.108,0.315-0.108,0.498
			c0,0.227,0.076,0.422,0.229,0.585c0.152,0.164,0.354,0.31,0.606,0.44c0.251,0.13,0.536,0.251,0.854,0.365
			c0.318,0.113,0.645,0.235,0.979,0.365c0.335,0.13,0.661,0.278,0.979,0.444s0.604,0.368,0.855,0.606s0.453,0.519,0.605,0.843
			C750.057,94.625,750.133,95.008,750.133,95.451z"/>
		<path d="M752.649,98.73V87.881h2.074v9.098h4.582v1.751H752.649z"/>
		<path d="M767.416,98.73l-0.598-2.142h-3.785l-0.614,2.142h-2.025l3.213-10.849h2.855l3.212,10.849H767.416z M764.95,89.873
			l-1.428,5.047h2.84L764.95,89.873z"/>
	</g>
	<rect x="714.667" y="112" fill-rule="evenodd" clip-rule="evenodd" fill="#A3A3A3" width="87" height="5"/>
	<rect x="714.667" y="123" fill-rule="evenodd" clip-rule="evenodd" fill="#A3A3A3" width="87" height="5"/>
	<rect x="714.667" y="140" fill-rule="evenodd" clip-rule="evenodd" fill="#A3A3A3" width="40" height="5"/>
	<rect x="714.667" y="153" fill-rule="evenodd" clip-rule="evenodd" fill="#A3A3A3" width="40" height="5"/>
	<rect x="714.667" y="166" fill-rule="evenodd" clip-rule="evenodd" fill="#A3A3A3" width="40" height="5"/>
	<rect x="714.667" y="186" fill-rule="evenodd" clip-rule="evenodd" fill="#A3A3A3" width="39.331" height="5"/>
	<rect x="764.667" y="140" fill-rule="evenodd" clip-rule="evenodd" fill="#A3A3A3" width="37" height="5"/>
	<rect x="764.667" y="153" fill-rule="evenodd" clip-rule="evenodd" fill="#A3A3A3" width="37" height="5"/>
	<rect x="764.667" y="166" fill-rule="evenodd" clip-rule="evenodd" fill="#A3A3A3" width="37" height="5"/>
	<g>
		<g>
			<path fill="#929497" d="M841.375,196.745c0.427,0,2.209-0.824,1.244-0.824C842.193,195.92,840.411,196.745,841.375,196.745
				L841.375,196.745z"/>
		</g>
	</g>
	<g>
		<path fill="#0000D1" d="M760.543,184.083c-1.392-2.229,7.361-3.714,6.73-2.197c-0.783,1.886-2.716,3.563-4.072,5.046
			c-0.483,0.529,0.151,1.052,0.714,0.96c2.64-0.431,4.361-1.878,6.261-3.717c-0.536-0.181-1.073-0.362-1.609-0.543
			c-3.958,5.002-1.621,11.151-8.38,14.845c-3.898,2.13-10.46-1.207-6.024-4.842c2.127-1.745,14.597-6.641,10.523-0.37
			c-0.425,0.654,0.701,0.862,1.093,0.743c0.379-0.115,5.356-2.079,5.109-0.625c-0.06,0.356,0.333,0.593,0.639,0.607
			c3.478,0.158,6.545-1.326,8.166-4.465c0.272-0.528-0.391-0.857-0.83-0.789c-1.487,0.232-2.216,0.629-3.275,1.697
			c-0.167,0.169-0.258,0.495-0.081,0.692c2.138,2.379,4.463,1.606,6.548-0.448c0.647-0.638-0.438-1.103-0.977-0.914
			c-2.316,0.813-2.728,1.947-1.222,4.063c0.238-0.354,0.476-0.708,0.714-1.063c-0.498,0.103-0.996,0.206-1.494,0.308
			c0.27,0.355,0.538,0.711,0.808,1.067c0.625-0.975,1.494-1.319,2.605-1.034c0.479,0.232,0.96,0.464,1.44,0.696
			c0.905,0.155,1.81,0.311,2.715,0.466c0.313,0.745,1.579,0.458,1.887-0.158c2.608-5.215,9.073-8.019,14.747-7.364
			c0.926,0.106,1.983-1.22,0.678-1.371c-6.599-0.761-14.222,2.445-17.267,8.534c0.629-0.053,1.258-0.105,1.887-0.158
			c-1.336-3.169-4.261-3.184-6.256-0.491c-0.698,0.942,0.866,1.132,1.44,0.696c1.146-0.872,1.244-1.384,1.458-2.839
			c0.067-0.464-0.524-0.663-0.887-0.61c-2.338,0.345-3.907,1.21-5.72,2.785c-0.792,0.688,0.038,1.226,0.808,1.067
			c0.498-0.103,0.996-0.206,1.494-0.308c0.425-0.087,1.054-0.586,0.714-1.063c-0.068-0.646-0.137-1.292-0.206-1.937
			c-0.325-0.305-0.651-0.609-0.977-0.914c-0.588-0.007-1.176-0.014-1.764-0.021c-0.276-0.263-0.554-0.526-0.83-0.789
			c-1.577,0.755-3.154,1.511-4.73,2.266c0.081-0.482-0.534-0.636-0.887-0.61c-2.397,0.176-4.514,1.051-6.799,1.744
			c0.364,0.248,0.729,0.496,1.093,0.743c1.976-3.041,0.86-5.01-2.714-4.915c-4.162,0.111-8.874,2.319-11.905,5.091
			c-3.327,3.042-0.232,5.506,2.965,6.493c3.026,0.934,6.615-0.198,8.879-2.326c1.81-1.701,3.103-3.469,3.948-5.829
			c0.941-2.629,0.646-5.494,2.476-7.806c0.794-1.003-1.051-1.084-1.609-0.543c-1.185,1.419-2.675,2.38-4.47,2.883
			c0.238,0.32,0.476,0.64,0.714,0.96c1.312-1.435,7.637-7.366,2.838-8.171c-2.098-0.353-10.767,2.592-8.877,5.619
			C759.22,185.643,761.068,184.924,760.543,184.083L760.543,184.083z"/>
	</g>
	<g>
		<path fill="#0000D1" d="M779.054,184.845c0.769,3.899,7.496,0.33,9.411-0.535c1.201-0.543,0.138-1.683-0.879-1.224
			c-1.115,0.504-6.197,3.285-6.601,1.241C780.798,183.375,778.864,183.878,779.054,184.845L779.054,184.845z"/>
	</g>
</g>
</svg>
