<svg xmlns="http://www.w3.org/2000/svg" xmlns:xlink="http://www.w3.org/1999/xlink" viewBox="0 0 613.3 374" enable-background="new 0 0 613.3 374"><style type="text/css">.st0{clip-path:url(#SVGID_2_);fill:#E6E7E8;} .st1{clip-path:url(#SVGID_4_);fill:#D1D3D4;} .st2{clip-path:url(#SVGID_6_);fill:#BCBEC0;} .st3{clip-path:url(#SVGID_8_);fill:#A7A9AC;} .st4{fill:#ED1C24;} .st5{fill:none;} .st6{fill:#F1F2F2;} .st7{fill:none;stroke:#000000;stroke-miterlimit:10;} .st8{fill:#1C597B;} .st9{fill:#3F5272;} .st10{fill:#4DACB5;} .st11{fill:#F8A586;} .st12{fill:#455A7D;} .st13{fill:#11132D;} .st14{fill:#F5E7E7;} .st15{fill:none;stroke:#1B181D;stroke-width:1.35;} .st16{fill:none;stroke:#455A7D;stroke-width:1.35;} .st17{fill:#6D3E3E;} .st18{fill:#FFD39B;} .st19{fill:#844C4B;} .st20{fill:#010101;} .st21{fill:#304779;} .st22{fill:#EBF7FE;} .st23{fill:#FFFFFF;} .st24{fill:#CA695A;} .st25{fill:#D9D1BD;} .st26{fill:#ECE5E1;} .st27{fill:none;stroke:#040406;stroke-width:1.35;stroke-linecap:round;}</style><g id="Layer_1"><path d="M12.7 360.9v-1.9c0-.7.1-1.3.3-1.9.2-.5.4-1 .7-1.3.3-.4.6-.6 1-.8.4-.2.8-.3 1.3-.3s1 .1 1.5.3c.4.2.8.5 1.1.9s.5.9.7 1.4c.2.5.2 1.2.2 1.8v3.3h-11.5v-6.9h1.3v5.3l3.4.1zm3.4-4.5c-.3 0-.6.1-.8.2s-.5.3-.6.5-.3.5-.4.9c-.1.3-.1.8-.1 1.2v1.7h4.2v-1.8c0-.9-.2-1.6-.5-2s-1.2-.7-1.8-.7zM19.5 345.5v1.5h-7.5v2.5c1.2.1 2.2.2 3.1.3s1.6.3 2.2.5c.6.2 1 .4 1.4.7s.6.5.7.8c.1.3.2.6.2.9s0 .6-.1 1l-1.3-.1v-.7l-.3-.6s-.4-.3-.8-.5c-.3-.1-.8-.3-1.4-.4s-1.3-.2-2.1-.3c-.8-.1-1.8-.2-2.9-.2v-5.4h8.8zM15 335c.7 0 1.3.1 1.9.3.6.2 1.1.5 1.5.8s.7.8.9 1.3c.2.5.3 1.1.3 1.8 0 .6-.1 1.2-.3 1.7-.2.5-.5.9-.9 1.3s-.9.6-1.4.8c-.6.2-1.2.3-1.9.3s-1.3-.1-1.9-.3c-.6-.2-1.1-.5-1.5-.8-.4-.4-.7-.8-.9-1.3-.2-.5-.3-1.1-.3-1.8 0-.6.1-1.2.3-1.7.2-.5.5-.9.9-1.3.4-.3.8-.6 1.4-.8.5-.3 1.2-.3 1.9-.3zm.1 1.5c-.5 0-1 .1-1.4.2-.4.1-.7.3-1 .5-.3.2-.5.5-.6.8s-.2.7-.2 1.1c0 .5.1.8.3 1.2.2.3.4.6.7.8s.6.4 1 .5c.4.1.8.1 1.2.1.5 0 1-.1 1.4-.2s.8-.3 1-.5c.3-.2.5-.5.6-.8s.2-.7.2-1.1c0-.5-.1-.8-.3-1.2-.2-.3-.4-.6-.7-.8-.3-.2-.6-.4-1-.5l-1.2-.1zM19.5 324.8v2.1l-4.7 4.1h4.7v1.5h-8.8v-1.5h4l-4-4v-2l4.1 4.1 4.7-4.3zM19.2 306.1c.2.4.3.8.3 1.2.1.4.1.9.1 1.3 0 1.4-.4 2.5-1.1 3.2s-1.9 1.1-3.3 1.1c-.7 0-1.3-.1-1.9-.3s-1.1-.5-1.5-.9-.7-.9-.9-1.4c-.2-.5-.3-1.1-.3-1.8 0-.5 0-.9.1-1.3s.2-.8.3-1.1h1.5c-.2.4-.3.8-.4 1.2-.1.4-.1.8-.1 1.2 0 .4.1.8.2 1.1.1.4.4.7.6.9s.6.5 1 .6.9.2 1.4.2c1.1 0 1.9-.3 2.4-.8s.8-1.2.8-2.2c0-.4 0-.8-.1-1.2-.1-.4-.2-.8-.4-1.1l1.3.1zM19.5 295.1v2l-3.4 2.4 3.4 2.4v2l-4.4-3.4-4.4 3.3v-2l3.4-2.3-3.4-2.3v-1.9l4.4 3.3 4.4-3.5zM14.6 285.7h.9v6.2c.9 0 1.6-.3 2.1-.8s.7-1.2.7-2.2v-.8s0-.5-.1-.7-.1-.5-.1-.7l-.1-.6h1.3c.1.4.2.9.3 1.4.1.5.1 1.1.1 1.6 0 .8-.1 1.4-.3 2s-.5 1-.9 1.3c-.4.4-.9.6-1.4.8-.6.2-1.2.3-1.9.3-.6 0-1.2-.1-1.8-.3-.6-.2-1-.4-1.5-.8-.4-.3-.8-.8-1-1.3s-.4-1.1-.4-1.7c0-.6.1-1.2.3-1.6s.5-.9.8-1.2c.4-.3.8-.6 1.3-.7.5-.1 1.1-.2 1.7-.2zm-.2 1.6c-.4 0-.8 0-1.1.1-.3.1-.6.2-.8.4s-.4.4-.5.7c-.1.3-.2.6-.2 1 0 .3.1.6.2.9s.3.5.5.7.5.4.8.5.7.2 1.1.2v-4.5zM19.5 275.2v1.5l-5.5.2-2 .1 1.4.5 4 1.7v1.1l-3.9 1.6-1.5.6 2.1.1 5.4.2v1.5l-8.8-.6v-2l3.8-1.5 1.1-.4-1.1-.4-3.8-1.5v-2l8.8-.7zM19.5 267.7h-1.2c.5.5.8 1 1 1.5s.3 1 .3 1.6c0 .5-.1.9-.2 1.3s-.3.7-.5.9c-.2.2-.5.4-.8.5-.3.1-.6.2-1 .2-.9 0-1.6-.3-2.1-1s-.8-1.6-.8-2.9v-1.8h-.8c-.5 0-.9.2-1.3.5s-.5.8-.5 1.5c0 .5.1 1 .2 1.5s.3 1 .5 1.5h-1.4l-.2-.6c-.1-.2-.1-.5-.2-.8s-.1-.5-.1-.8v-.9c0-.5.1-1 .2-1.4s.3-.8.5-1.1.5-.5.9-.7.8-.2 1.3-.2h6.1l.1 1.2zm-4 .2v1.9c0 .4 0 .7.1 1s.2.5.3.7c.1.2.3.3.5.4.2.1.4.1.7.1.2 0 .3 0 .5-.1s.3-.1.4-.3c.1-.1.2-.3.3-.5s.1-.4.1-.7c0-.4-.1-.8-.3-1.2-.2-.5-.6-.9-1-1.4l-1.6.1zM17.6 235.7l3.8.1v1.4h-2.4v6.5h2.5v1.4l-3.8.1v-.1c0-.2-.1-.4-.2-.6-.1-.2-.3-.4-.6-.5-.3-.2-.7-.3-1.2-.5s-1.1-.3-1.9-.4-1.7-.2-2.7-.3-2.3-.2-3.7-.2v-5.6h10.2v-1.3zm-8.8 2.8v2.5c1.2 0 2.3.1 3.3.2s1.9.2 2.6.3c.7.1 1.4.3 1.9.5s.8.4 1 .7v-4.2h-8.8zM10.1 232.4h6.2l-6.2-3.9v-1.5h8.9v1.5h-6.2l6.2 3.9v1.5h-8.8c-.1 0-.1-1.5-.1-1.5zM19 218.5h-1.2c.5.5.8 1 1 1.5s.3 1 .3 1.6c0 .5-.1.9-.2 1.3s-.3.7-.5.9c-.2.2-.5.4-.8.5-.3.1-.6.2-1 .2-.9 0-1.6-.3-2.1-1s-.8-1.6-.8-2.9v-1.8h-.7c-.5 0-.9.2-1.3.5s-.5.8-.5 1.5c0 .5.1 1 .2 1.5s.3 1 .5 1.5h-1.4l-.2-.6c-.1-.2-.1-.5-.2-.8s-.1-.5-.1-.8v-.9c0-.5.1-1 .2-1.4s.3-.8.5-1.1.5-.5.9-.7.8-.2 1.3-.2h6.1v1.2zm-4.1.2v1.9c0 .4 0 .7.1 1s.2.5.3.7.3.3.5.4c.2.1.4.1.7.1.2 0 .3 0 .5-.1s.3-.1.4-.3c.1-.1.2-.3.3-.5s.1-.4.1-.7c0-.4-.1-.8-.3-1.2-.2-.5-.6-.9-1-1.4l-1.6.1zM11.4 212h7.6v1.5h-8.8v-6.4h1.3c-.1.1-.1 4.9-.1 4.9zM14.4 196.8c.8 0 1.5.1 2.1.3.6.2 1.1.5 1.5.9s.7.8.9 1.4.3 1.1.3 1.7v.8s-.1.6-.1.8h3.7v1.5h-12.7v-1.2l1.5-.1c-.6-.4-1-.9-1.3-1.4s-.4-1-.4-1.6c0-.5.1-.9.3-1.3s.5-.7.9-1 .8-.5 1.4-.6 1.2-.2 1.9-.2zm.1 1.6c-.5 0-.9 0-1.3.1s-.7.2-1 .3-.5.3-.6.6c-.2.2-.2.5-.2.8 0 .2 0 .4.1.6l.3.6c.1.2.3.4.6.7.2.2.5.5.9.8h4.3l.3-.9s.1-.6.1-.9c0-.8-.3-1.5-.8-1.9s-1.6-.8-2.7-.8zM19 188.8h-1.2c.5.5.8 1 1 1.5s.3 1 .3 1.6c0 .5-.1.9-.2 1.3s-.3.7-.5.9c-.2.2-.5.4-.8.5-.3.1-.6.2-1 .2-.9 0-1.6-.3-2.1-1s-.8-1.6-.8-2.9v-1.9h-.7c-.5 0-.9.2-1.3.5s-.5.8-.5 1.5c0 .5.1 1 .2 1.5s.3 1 .5 1.5h-1.4l-.2-.6c-.1-.2-.1-.5-.2-.8s-.1-.5-.1-.8v-.9c0-.5.1-1 .2-1.4s.3-.8.5-1.1.5-.5.9-.7.8-.2 1.3-.2h6.1v1.3zm-4.1.2v1.9c0 .4 0 .7.1 1s.2.5.3.7.3.3.5.4c.2.1.4.1.7.1.2 0 .3 0 .5-.1s.3-.1.4-.3c.1-.1.2-.3.3-.5s.1-.4.1-.7c0-.4-.1-.8-.3-1.2-.2-.5-.6-.9-1-1.4l-1.6.1zM19 176.5v1.5l-5.5.2-2 .1 1.4.5 4 1.7v1.1l-3.9 1.6-1.5.6 2.1.1 5.4.2v1.5l-8.8-.6v-2l3.8-1.5 1.1-.4-1.1-.4-3.8-1.5v-2l8.8-.7zM19 166.6v1.5l-5.5.2-2 .1 1.4.5 4 1.7v1.1l-3.9 1.6-1.5.6 2.1.1 5.4.2v1.5l-8.8-.6v-2l3.8-1.5 1.1-.4-1.1-.4-3.8-1.5v-2l8.8-.7zM19 159.1h-1.2c.5.5.8 1 1 1.5s.3 1 .3 1.6c0 .5-.1.9-.2 1.3s-.3.7-.5.9c-.2.2-.5.4-.8.5-.3.1-.6.2-1 .2-.9 0-1.6-.3-2.1-1s-.8-1.6-.8-2.9v-1.8h-.7c-.5 0-.9.2-1.3.5s-.5.8-.5 1.5c0 .5.1 1 .2 1.5s.3 1 .5 1.5h-1.4l-.2-.6c-.1-.2-.1-.5-.2-.8s-.1-.5-.1-.8v-.9c0-.5.1-1 .2-1.4s.3-.8.5-1.1.5-.5.9-.7.8-.2 1.3-.2h6.1v1.2zm-4.1.2v1.9c0 .4 0 .7.1 1s.2.5.3.7.3.3.5.4c.2.1.4.1.7.1.2 0 .3 0 .5-.1s.3-.1.4-.3c.1-.1.2-.3.3-.5s.1-.4.1-.7c0-.4-.1-.8-.3-1.2-.2-.5-.6-.9-1-1.4l-1.6.1zM19 137.1v2.1l-4.7 4.1h4.7v1.5h-8.8v-1.5h4l-4-4v-2l4.1 4.1 4.7-4.3zM19 129.4h-1.2c.5.5.8 1 1 1.5s.3 1 .3 1.6c0 .5-.1.9-.2 1.3s-.3.7-.5.9c-.2.2-.5.4-.8.5-.3.1-.6.2-1 .2-.9 0-1.6-.3-2.1-1s-.8-1.6-.8-2.9v-1.8h-.7c-.5 0-.9.2-1.3.5s-.5.8-.5 1.5c0 .5.1 1 .2 1.5s.3 1 .5 1.5h-1.4l-.2-.6c-.1-.2-.1-.5-.2-.8s-.1-.5-.1-.8v-.9c0-.5.1-1 .2-1.4s.3-.8.5-1.1.5-.5.9-.7.8-.2 1.3-.2h6.1v1.2zm-4.1.2v1.9c0 .4 0 .7.1 1s.2.5.3.7.3.3.5.4c.2.1.4.1.7.1.2 0 .3 0 .5-.1s.3-.1.4-.3c.1-.1.2-.3.3-.5s.1-.4.1-.7c0-.4-.1-.8-.3-1.2-.2-.5-.6-.9-1-1.4l-1.6.1zM14.4 117.7c.8 0 1.5.1 2.1.3.6.2 1.1.5 1.5.9s.7.8.9 1.4.3 1.1.3 1.7v.8s-.1.6-.1.8h3.7v1.5h-12.7v-1.4l1.5-.1c-.6-.4-1-.9-1.3-1.4s-.4-1-.4-1.6c0-.5.1-.9.3-1.3s.5-.7.9-1 .8-.5 1.4-.6h1.9zm.1 1.5c-.5 0-.9 0-1.3.1s-.7.2-1 .3-.5.3-.6.6c-.2.2-.2.5-.2.8 0 .2 0 .4.1.6l.3.6c.1.2.3.4.6.7.2.2.5.5.9.8h4.3l.3-.9s.1-.6.1-.9c0-.8-.3-1.5-.8-1.9s-1.6-.8-2.7-.8zM11.4 107.6v3.3h7.6v1.5h-7.5v3.3h-1.3v-8.2l1.2.1zM13.5 104.6v-1.2c0-.6.1-1 .2-1.4.1-.4.3-.8.6-1 .2-.3.5-.5.9-.6.3-.1.7-.2 1.1-.2.5 0 .9.1 1.2.2s.7.4.9.7.4.7.5 1.1c.1.4.2.9.2 1.5v1.2c0 .4-.1.8-.1 1.3h-8.8v-1.5h3.3zm2.7-2.9c-.5 0-.8.1-1.1.4-.3.3-.4.8-.4 1.4v1h2.9c0-.2 0-.4.1-.5v-.5c0-.4 0-.7-.1-.9l-.3-.6c-.1-.1-.3-.2-.5-.3h-.6zm2.8-2.6h-8.8v-1.5h8.8v1.5zM19 78.5v1.5h-7.5v4h7.5v1.5h-8.8v-7.1h8.8zM14.4 68.2c.8 0 1.5.1 2.1.3.6.2 1.1.5 1.5.9s.7.8.9 1.4.3 1.1.3 1.7v.8s-.1.6-.1.8h3.7v1.5h-12.7v-1.4l1.5-.1c-.6-.4-1-.9-1.3-1.4s-.4-1-.4-1.6c0-.5.1-.9.3-1.3s.5-.7.9-1 .8-.5 1.4-.6h1.9zm.1 1.5c-.5 0-.9 0-1.3.1s-.7.2-1 .3-.5.3-.6.6c-.2.2-.2.5-.2.8 0 .2 0 .4.1.6l.3.6c.1.2.3.4.6.7.2.2.5.5.9.8h4.3l.3-.9s.1-.6.1-.9c0-.8-.3-1.5-.8-1.9s-1.6-.8-2.7-.8zM14.5 58.1c.7 0 1.3.1 1.9.3.6.2 1.1.5 1.5.8s.7.8.9 1.3c.2.5.3 1.1.3 1.8 0 .6-.1 1.2-.3 1.7-.2.5-.5.9-.9 1.3s-.9.6-1.4.8c-.6.2-1.2.3-1.9.3s-1.3-.1-1.9-.3c-.6-.2-1.1-.5-1.5-.8-.4-.4-.7-.8-.9-1.3-.2-.5-.3-1.1-.3-1.8 0-.6.1-1.2.3-1.7.2-.5.5-.9.9-1.3.4-.3.8-.6 1.4-.8.5-.2 1.1-.3 1.9-.3zm0 1.6c-.5 0-1 .1-1.4.2-.4.1-.7.3-1 .5-.3.2-.5.5-.6.8s-.2.7-.2 1.1c0 .5.1.8.3 1.2.2.3.4.6.7.8s.6.4 1 .5c.4.1.8.1 1.2.1.5 0 1-.1 1.4-.2.4-.1.8-.3 1-.5.3-.2.5-.5.6-.8s.2-.7.2-1.1c0-.5-.1-.8-.3-1.2-.2-.3-.4-.6-.7-.8-.3-.2-.6-.4-1-.5-.3 0-.7-.1-1.2-.1zM17.6 47.8l3.6.1v1.4h-2.2v6.7h-8.8v-1.5h7.5v-4h-7.5v-1.5h7.5v-1.2zM14.1 38.6h.9v6.2c.9 0 1.6-.3 2.1-.8s.7-1.2.7-2.2v-.8s0-.5-.1-.7-.1-.5-.1-.7l-.1-.6h1.3c.1.4.2.9.3 1.4.1.5.1 1.1.1 1.6 0 .8-.1 1.4-.3 2s-.5 1-.9 1.3c-.4.3-.9.6-1.4.8-.6.2-1.2.3-1.9.3-.6 0-1.2-.1-1.8-.3-.6-.2-1-.4-1.5-.8-.4-.3-.8-.8-1-1.3s-.4-1-.4-1.6c0-.6.1-1.2.3-1.6s.5-.9.8-1.2c.4-.3.8-.6 1.3-.7.5-.2 1-.3 1.7-.3zm-.2 1.6c-.4 0-.8 0-1.1.1-.3.1-.6.2-.8.4s-.4.4-.5.7c-.1.3-.2.6-.2 1 0 .3.1.6.2.9s.3.5.5.7.5.4.8.5.7.2 1.1.2v-4.5zM18.6 29.3c.2.4.3.8.3 1.2.1.4.1.9.1 1.3 0 1.4-.4 2.5-1.1 3.2s-1.9 1.1-3.3 1.1c-.7 0-1.3-.1-1.9-.3s-1.1-.5-1.5-.9-.7-.9-.9-1.4c-.2-.5-.3-1.1-.3-1.8 0-.5 0-.9.1-1.3s.2-.8.3-1.1h1.5c-.2.4-.3.8-.4 1.2-.1.4-.1.8-.1 1.2 0 .4.1.8.2 1.1.1.3.4.7.6.9s.6.5 1 .6.9.2 1.4.2c1.1 0 1.9-.3 2.4-.8s.8-1.2.8-2.2c0-.4 0-.8-.1-1.2-.1-.4-.2-.8-.4-1.1l1.3.1zM18.6 19.4c.2.4.3.8.3 1.2.1.4.1.9.1 1.3 0 1.4-.4 2.5-1.1 3.2s-1.9 1.1-3.3 1.1c-.7 0-1.3-.1-1.9-.3s-1.1-.5-1.5-.9-.7-.9-.9-1.4c-.2-.5-.3-1.1-.3-1.8 0-.5 0-.9.1-1.3s.2-.8.3-1.1h1.5c-.2.4-.3.8-.4 1.2-.1.4-.1.8-.1 1.2 0 .4.1.8.2 1.1.1.4.4.7.6.9s.6.5 1 .6.9.2 1.4.2c1.1 0 1.9-.3 2.4-.8s.8-1.2.8-2.2c0-.4 0-.8-.1-1.2-.1-.4-.2-.8-.4-1.1l1.3.1zM19 10.7h-1.2c.5.5.8 1 1 1.5s.3 1 .3 1.6c0 .5-.1.9-.2 1.3s-.3.7-.5.9c-.2.2-.5.4-.8.5-.3.1-.6.2-1 .2-.9 0-1.6-.3-2.1-1s-.8-1.6-.8-2.9v-1.8h-.7c-.5 0-.9.2-1.3.5s-.5.8-.5 1.5c0 .5.1 1 .2 1.5s.3 1 .5 1.5h-1.4l-.2-.6c-.1-.2-.1-.5-.2-.8s-.1-.5-.1-.8v-.9c0-.5.1-1 .2-1.4s.3-.8.5-1.1.5-.5.9-.7.8-.2 1.3-.2h6.1v1.2zm-4.1.1v1.9c0 .4 0 .7.1 1s.2.5.3.7.3.3.5.4c.2.1.4.1.7.1.2 0 .3 0 .5-.1s.3-.1.4-.3c.1-.1.2-.3.3-.5s.1-.4.1-.7c0-.4-.1-.8-.3-1.2-.2-.5-.6-.9-1-1.4l-1.6.1z"/><defs><path id="SVGID_1_" d="M57 280.4h542v90.7h-542z"/></defs><clipPath id="SVGID_2_"><use xlink:href="#SVGID_1_" overflow="visible"/></clipPath><path class="st0" d="M332 17.5l-265 351.9h529z"/><defs><path id="SVGID_3_" d="M48 187.2h476v86.2h-476z"/></defs><clipPath id="SVGID_4_"><use xlink:href="#SVGID_3_" overflow="visible"/></clipPath><path class="st1" d="M329.9 11.3l-259.8 347.9h518.6z"/><defs><path id="SVGID_5_" d="M135 99.9h323.5v80.7h-323.5z"/></defs><clipPath id="SVGID_6_"><use xlink:href="#SVGID_5_" overflow="visible"/></clipPath><path class="st2" d="M330.4 11.2l-255.1 338.8h509.3z"/><defs><path id="SVGID_7_" d="M234.5 0h204v93.9h-204z"/></defs><clipPath id="SVGID_8_"><use xlink:href="#SVGID_7_" overflow="visible"/></clipPath><path class="st3" d="M329.8 9.7l-237.1 314.9h473.3z"/><path class="st4" d="M251.5 41h160v32h-160z"/><path class="st5" d="M271.2 50.9h183.3v63.3h-183.3z"/><path class="st6" d="M280.1 62.6h-1.4l-.2-6.8-.1-2.6-.5 1.5-1.6 4.3h-1l-1.5-4.2-.5-1.7v2.7l-.2 6.6h-1.4l.5-10.8h1.8l1.5 4.1.5 1.4.5-1.4 1.5-4.1h1.8l.3 11zM287.2 62.6v-1.1c-.5.4-.9.8-1.4 1-.5.2-1 .3-1.5.3s-.9-.1-1.2-.2-.6-.3-.8-.5c-.2-.2-.4-.5-.5-.8-.1-.3-.2-.6-.2-.9 0-.8.3-1.5.9-2 .6-.5 1.5-.7 2.8-.7h1.7v-.7c0-.5-.2-.9-.5-1.2s-.8-.4-1.4-.4c-.5 0-.9.1-1.4.2l-1.4.4v-1.3l.6-.2s.5-.1.7-.2.5-.1.8-.1h.8c.5 0 1 .1 1.4.2s.7.3 1 .5c.3.2.5.5.6.9s.2.7.2 1.2v5.7c.1-.1-1.2-.1-1.2-.1zm-.2-3.8h-1.8c-.4 0-.7 0-.9.1s-.5.2-.6.3-.3.3-.4.5c-.1.2-.1.4-.1.6 0 .2 0 .3.1.5s.1.3.2.4.3.2.4.3.4.1.6.1c.3 0 .7-.1 1.1-.3.4-.2.9-.5 1.4-1v-1.5zM298.7 62.6h-2l-3.9-4.5v4.5h-1.4v-8.3h1.4v3.8l3.7-3.8h1.9l-3.9 3.8 4.2 4.5zM307.7 58.3c0 .7-.1 1.4-.3 1.9-.2.6-.5 1-.9 1.4s-.8.6-1.3.8c-.5.2-1 .3-1.6.3h-.8l-.8-.1v3.4h-1.4v-11.8h1.3l.1 1.4c.4-.6.9-1 1.3-1.2s1-.3 1.5-.3.9.1 1.3.3.7.5.9.8.4.8.5 1.3.2 1.1.2 1.8zm-1.5 0c0-.4 0-.8-.1-1.2-.1-.4-.2-.7-.3-.9s-.3-.5-.5-.6-.5-.2-.8-.2c-.2 0-.4 0-.6.1l-.6.3s-.4.3-.6.5c-.2.2-.5.5-.7.8v4l.8.3s.6.1.9.1c.8 0 1.4-.3 1.8-.8s.7-1.3.7-2.4zM317.1 58.3c0 .6-.1 1.2-.3 1.8-.2.5-.4 1-.8 1.4s-.8.7-1.3.9-1.1.3-1.7.3c-.6 0-1.1-.1-1.6-.3-.5-.2-.9-.5-1.2-.8-.3-.4-.6-.8-.8-1.3-.2-.5-.3-1.1-.3-1.8 0-.6.1-1.2.3-1.8s.4-1 .8-1.4.8-.7 1.3-.9 1.1-.3 1.7-.3c.6 0 1.1.1 1.6.3.5.2.9.5 1.2.8.3.4.6.8.8 1.3.2.6.3 1.2.3 1.8zm-1.4.1c0-.5-.1-1-.2-1.3s-.3-.7-.5-1c-.2-.3-.5-.5-.8-.6s-.6-.2-1-.2-.8.1-1.1.3-.6.4-.8.7c-.2.3-.3.6-.4 1-.1.4-.1.8-.1 1.2 0 .5.1 1 .2 1.4.1.4.3.7.5 1 .2.3.5.5.8.6s.6.2 1 .2.8-.1 1.1-.3c.3-.2.6-.4.8-.7.2-.3.3-.6.4-1 0-.5.1-.9.1-1.3zM325.9 62.6h-1.4v-7.1h-3.8v7.1h-1.4v-8.3h6.7l-.1 8.3zM335.7 58.3c0 .7-.1 1.4-.3 1.9-.2.6-.5 1-.9 1.4s-.8.6-1.3.8c-.5.2-1 .3-1.6.3h-.8l-.8-.1v3.4h-1.4v-11.8h1.3l.1 1.4c.4-.6.9-1 1.3-1.2s1-.3 1.5-.3.9.1 1.3.3.7.5.9.8.4.8.5 1.3.2 1.1.2 1.8zm-1.5 0c0-.4 0-.8-.1-1.2-.1-.4-.2-.7-.3-.9s-.3-.5-.5-.6-.5-.2-.8-.2c-.2 0-.4 0-.6.1l-.6.3s-.4.3-.6.5c-.2.2-.5.5-.7.8v4l.8.3s.6.1.9.1c.8 0 1.4-.3 1.8-.8s.7-1.3.7-2.4zM345.2 58.3c0 .6-.1 1.2-.3 1.8-.2.5-.4 1-.8 1.4s-.8.7-1.3.9c-.5.2-1.1.3-1.7.3-.6 0-1.1-.1-1.6-.3-.5-.2-.9-.5-1.2-.8-.3-.4-.6-.8-.8-1.3-.2-.5-.3-1.1-.3-1.8 0-.6.1-1.2.3-1.8s.4-1 .8-1.4.8-.7 1.3-.9 1.1-.3 1.7-.3c.6 0 1.1.1 1.6.3s.9.5 1.2.8c.3.4.6.8.8 1.3s.3 1.2.3 1.8zm-1.5.1c0-.5-.1-1-.2-1.3-.1-.4-.3-.7-.5-1-.2-.3-.5-.5-.8-.6-.3-.1-.6-.2-1-.2s-.8.1-1.1.3c-.3.2-.6.4-.8.7-.2.3-.3.6-.4 1-.1.4-.1.8-.1 1.2 0 .5.1 1 .2 1.4.1.4.3.7.5 1 .2.3.5.5.8.6s.6.2 1 .2.8-.1 1.1-.3c.3-.2.6-.4.8-.7.2-.3.3-.6.4-1 .1-.5.1-.9.1-1.3zM354.9 61.3l-.1 3.4h-1.3v-2.1h-6.3v-8.3h1.4v7.1h3.8v-7.1h1.4v7.1h1.1zM363.7 58v.9h-5.9c0 .9.2 1.5.7 2 .5.5 1.2.7 2.1.7h.7c.2 0 .5 0 .7-.1s.4-.1.7-.1l.6-.1v1.2c-.4.1-.8.2-1.3.3-.5.1-1 .1-1.5.1-.7 0-1.3-.1-1.8-.3-.5-.2-.9-.5-1.3-.8-.3-.4-.6-.8-.7-1.4s-.2-1.1-.2-1.8c0-.6.1-1.1.3-1.7.2-.5.4-1 .7-1.4.3-.4.7-.7 1.2-.9s1-.3 1.6-.3c.6 0 1.1.1 1.5.3.4.2.8.4 1.1.8.3.3.5.7.7 1.2 0 .2.1.8.1 1.4zm-1.6-.2c0-.4 0-.7-.1-1-.1-.3-.2-.6-.4-.8-.2-.2-.4-.4-.7-.5-.3-.1-.6-.2-1-.2-.3 0-.6.1-.9.2-.3.1-.5.3-.7.5-.2.2-.3.5-.5.8-.1.3-.2.7-.2 1h4.5zM372.4 62.3c-.4.1-.8.3-1.2.3s-.8.1-1.2.1c-1.3 0-2.3-.4-3-1.1-.7-.7-1.1-1.8-1.1-3.1 0-.7.1-1.3.3-1.8.2-.5.5-1 .9-1.4.4-.4.8-.7 1.3-.9.5-.2 1.1-.3 1.7-.3.4 0 .8 0 1.2.1l1.1.3v1.4c-.4-.2-.7-.3-1.1-.4s-.8-.1-1.2-.1c-.4 0-.7.1-1.1.2-.3.1-.6.3-.9.6-.2.3-.4.6-.6 1s-.2.8-.2 1.3c0 1 .2 1.8.7 2.3s1.2.8 2 .8c.4 0 .8 0 1.1-.1.4-.1.7-.2 1.1-.4l.2 1.2zM381.8 62.3c-.4.1-.8.3-1.2.3-.4.1-.8.1-1.2.1-1.3 0-2.3-.4-3-1.1-.7-.7-1.1-1.8-1.1-3.1 0-.7.1-1.3.3-1.8.2-.5.5-1 .9-1.4.4-.4.8-.7 1.3-.9.5-.2 1.1-.3 1.7-.3.4 0 .8 0 1.2.1l1.1.3v1.4c-.4-.2-.7-.3-1.1-.4-.4-.1-.8-.1-1.2-.1-.4 0-.7.1-1 .2-.3.1-.6.3-.9.6-.3.3-.4.6-.6 1s-.2.8-.2 1.3c0 1 .2 1.8.7 2.3.5.5 1.2.8 2 .8.4 0 .8 0 1.1-.1.4-.1.7-.2 1.1-.4l.1 1.2z"/><path class="st4" d="M249.2 126.8h160v32h-160z"/><path class="st5" d="M249.2 135.4h160v20.4h-160z"/><path class="st6" d="M304.8 147.1h-1.5v-9.5h-4.4v9.5h-1.5v-10.9h7.4v10.9zM314.3 142.8c0 .7-.1 1.4-.3 1.9-.2.6-.5 1-.9 1.4s-.8.6-1.3.8c-.5.2-1 .3-1.6.3h-.8l-.8-.1v3.5h-1.4v-11.7h1.3l.1 1.4c.4-.6.9-1 1.3-1.2s1-.3 1.5-.3.9.1 1.3.3.7.5.9.8.4.8.5 1.3.2.9.2 1.6zm-1.5 0c0-.4 0-.8-.1-1.2-.1-.4-.2-.7-.3-.9s-.3-.5-.5-.6-.5-.2-.8-.2c-.2 0-.4 0-.6.1l-.6.3s-.4.3-.6.5c-.2.2-.5.5-.7.8v4l.8.3s.6.1.9.1c.8 0 1.4-.3 1.8-.8s.7-1.3.7-2.4zM323.7 142.9c0 .6-.1 1.2-.3 1.8-.2.5-.4 1-.8 1.4s-.8.7-1.3.9-1.1.3-1.7.3c-.6 0-1.1-.1-1.6-.3-.5-.2-.9-.5-1.2-.8-.3-.4-.6-.8-.8-1.3-.2-.5-.3-1.1-.3-1.8 0-.6.1-1.2.3-1.8s.4-1 .8-1.4.8-.7 1.3-.9 1.1-.3 1.7-.3c.6 0 1.1.1 1.6.3.5.2.9.5 1.2.8.3.4.6.8.8 1.3.2.5.3 1.1.3 1.8zm-1.4 0c0-.5-.1-1-.2-1.3-.1-.4-.3-.7-.5-1-.2-.3-.5-.5-.8-.6-.3-.1-.6-.2-1-.2s-.8.1-1.1.3c-.3.2-.6.4-.8.7-.2.3-.3.6-.4 1-.1.4-.1.8-.1 1.2 0 .5.1 1 .2 1.4.1.4.3.7.5 1 .2.3.5.5.8.6s.6.2 1 .2.8-.1 1.1-.3c.3-.2.6-.4.8-.7.2-.3.3-.6.4-1 0-.5.1-.9.1-1.3zM333.4 145.8l-.1 3.4h-1.3v-2.1h-6.3v-8.3h1.4v7.1h3.8v-7.1h1.4v7.1h1.1zM342.2 142.5v.9h-5.9c0 .9.2 1.5.7 2 .5.5 1.2.7 2.1.7h.7s.5 0 .7-.1.4-.1.7-.1l.6-.1v1.2c-.4.1-.8.2-1.3.3-.5.1-1 .1-1.5.1-.7 0-1.3-.1-1.8-.3-.5-.2-.9-.5-1.3-.8-.3-.4-.6-.8-.7-1.4-.2-.5-.2-1.1-.2-1.8 0-.6.1-1.1.3-1.7.2-.5.4-1 .7-1.4.3-.4.7-.7 1.2-.9s1-.3 1.6-.3c.6 0 1.1.1 1.5.3.4.2.8.4 1.1.8.3.3.5.7.7 1.2 0 .3.1.8.1 1.4zm-1.5-.2c0-.4 0-.7-.1-1-.1-.3-.2-.6-.4-.8s-.4-.4-.7-.5c-.3-.1-.6-.2-1-.2-.3 0-.6.1-.9.2-.3.1-.5.3-.7.5-.2.2-.3.5-.5.8-.1.3-.2.6-.2 1h4.5zM351 146.8c-.4.1-.8.3-1.2.3-.4.1-.8.1-1.2.1-1.3 0-2.3-.4-3-1.1-.7-.7-1.1-1.8-1.1-3.1 0-.7.1-1.3.3-1.8s.5-1 .9-1.4.8-.7 1.3-.9c.5-.2 1.1-.3 1.7-.3.4 0 .8 0 1.2.1l1.1.3v1.4c-.4-.2-.7-.3-1.1-.4s-.8-.1-1.2-.1c-.4 0-.7.1-1 .2-.3.1-.6.3-.9.6s-.4.6-.6 1c-.1.4-.2.8-.2 1.3 0 1 .2 1.8.7 2.3.5.5 1.2.8 2 .8.4 0 .8 0 1.1-.1.4-.1.7-.2 1.1-.4l.1 1.2zM360.3 146.8c-.4.1-.8.3-1.2.3-.4.1-.8.1-1.2.1-1.3 0-2.3-.4-3-1.1-.7-.7-1.1-1.8-1.1-3.1 0-.7.1-1.3.3-1.8s.5-1 .9-1.4.8-.7 1.3-.9c.5-.2 1.1-.3 1.7-.3.4 0 .8 0 1.2.1l1.1.3v1.4c-.4-.2-.7-.3-1.1-.4-.4-.1-.8-.1-1.2-.1-.4 0-.7.1-1.1.2-.3.1-.6.3-.9.6s-.4.6-.6 1c-.1.4-.2.8-.2 1.3 0 1 .2 1.8.7 2.3s1.2.8 2 .8c.4 0 .8 0 1.1-.1.4-.1.7-.2 1.1-.4l.2 1.2z"/><path class="st4" d="M248 214.5h160v32h-160z"/><path class="st5" d="M248 223.1h160v20.4h-160z"/><path class="st6" d="M290.5 234.8h-1.6l-.8-2.4h-4.5l-.8 2.4h-1.5l3.7-10.8h2l3.5 10.8zm-2.8-3.7l-1.8-5.8-1.8 5.8h3.6zM299.4 234.8h-2l-3.9-4.5v4.5h-1.4v-8.3h1.4v3.8l3.7-3.8h1.9l-3.9 3.8 4.2 4.5zM308.5 227.7h-3.2v7.1h-1.5v-7.1h-3.2v-1.2h7.8l.1 1.2zM312.2 226.5v5.9l3.6-5.9h1.4v8.3h-1.4v-5.9l-3.6 5.9h-1.4v-8.3h1.4zM327.1 232.4c0 .4-.1.7-.2 1-.2.3-.4.6-.7.8-.3.2-.8.4-1.3.5-.5.1-1.1.2-1.8.2-.5 0-1 0-1.5-.1s-1-.1-1.5-.1v-8.2c.5-.1 1-.1 1.6-.1.5 0 1.1-.1 1.7-.1 1.1 0 2 .2 2.6.6s.9.9.9 1.6c0 .5-.1.9-.4 1.2s-.7.6-1.2.7c.3 0 .5.1.8.2.2.1.5.2.7.4s.3.4.5.6c-.2.3-.2.5-.2.8zm-1.8-3.6c0-.2 0-.4-.1-.5s-.2-.3-.4-.4c-.2-.1-.4-.2-.7-.3-.3-.1-.6-.1-1-.1h-.9s-.5 0-.8.1v2.4h1.7c1.4 0 2.2-.4 2.2-1.2zm.3 3.6c0-.4-.2-.8-.6-1-.4-.2-1-.3-1.8-.3h-1.8v2.5l.8.1h.9c.5 0 .9 0 1.2-.1.3-.1.6-.2.8-.3.2-.1.3-.3.4-.4s.1-.3.1-.5zM336 234.8h-1.4v-3.7h-3.8v3.7h-1.4v-8.3h1.4v3.4h3.8v-3.4h1.4v8.3zM345.9 230.6c0 .6-.1 1.2-.3 1.8-.2.5-.4 1-.8 1.4-.3.4-.8.7-1.3.9s-1.1.3-1.7.3c-.6 0-1.1-.1-1.6-.3-.5-.2-.9-.5-1.2-.8-.3-.4-.6-.8-.8-1.3-.2-.5-.3-1.1-.3-1.8 0-.6.1-1.2.3-1.8s.4-1 .8-1.4.8-.7 1.3-.9 1.1-.3 1.7-.3c.6 0 1.1.1 1.6.3.5.2.9.5 1.2.8.3.4.6.8.8 1.3.2.5.3 1.1.3 1.8zm-1.4 0c0-.5-.1-1-.2-1.3s-.3-.7-.5-1c-.2-.3-.5-.5-.8-.6s-.6-.2-1-.2-.8.1-1.1.3-.6.4-.8.7c-.2.3-.3.6-.4 1-.1.4-.1.8-.1 1.2 0 .5.1 1 .2 1.4.1.4.3.7.5 1 .2.3.5.5.8.6s.6.2 1 .2.8-.1 1.1-.3c.3-.2.6-.4.8-.7.2-.3.3-.6.4-1 0-.4.1-.8.1-1.3zM354.5 234.5c-.4.1-.8.3-1.2.3-.4.1-.8.1-1.2.1-1.3 0-2.3-.4-3-1.1-.7-.7-1.1-1.8-1.1-3.1 0-.7.1-1.3.3-1.8s.5-1 .9-1.4.8-.7 1.3-.9c.5-.2 1.1-.3 1.7-.3.4 0 .8 0 1.2.1l1.1.3v1.4c-.4-.2-.7-.3-1.1-.4-.4-.1-.8-.1-1.2-.1-.4 0-.7.1-1.1.2-.3.1-.6.3-.9.6s-.4.6-.6 1c-.1.4-.2.8-.2 1.3 0 1 .2 1.8.7 2.3.5.5 1.2.8 2 .8.4 0 .8 0 1.1-.1.4-.1.7-.2 1.1-.4l.2 1.2zM364.6 227.7h-3.2v7.1h-1.4v-7.1h-3.2v-1.2h7.8v1.2zM368.2 229.6h1.8c1.3 0 2.2.2 2.9.7.6.4.9 1.1.9 1.9 0 .9-.3 1.6-1 2-.7.5-1.7.7-3 .7h-1.6c-.5 0-1-.1-1.4-.1v-8.3h1.4v3.1zm4.1 2.6c0-.2 0-.4-.1-.6-.1-.2-.2-.3-.4-.4s-.4-.2-.7-.3-.7-.1-1.1-.1h-1.8v2.8c.3 0 .6 0 .8.1h.9c.5 0 .9 0 1.2-.1.3-.1.6-.1.7-.3s.3-.3.4-.5.1-.3.1-.6z"/><path class="st4" d="M250 309.8h160v32h-160z"/><path class="st5" d="M250 318.4h160v20.4h-160z"/><path class="st6" d="M298.2 328.4c.4.2.9.3 1.4.4.5.1 1.1.2 1.8.2.8 0 1.5-.2 1.9-.5.4-.4.6-.9.6-1.6 0-.3-.1-.5-.2-.7-.1-.2-.3-.4-.5-.6-.2-.2-.5-.3-.8-.3s-.7-.1-1.1-.1h-2.3v-1.2h2.2c.3 0 .6 0 .9-.1.3-.1.5-.2.7-.3.2-.1.4-.3.5-.6.1-.2.2-.5.2-.8 0-.2 0-.4-.1-.6-.1-.2-.2-.4-.4-.6-.2-.2-.4-.3-.7-.4s-.6-.1-1.1-.1c-.5 0-.9 0-1.4.1s-1 .2-1.4.3v-1.3l1.3-.3c.5-.1 1-.1 1.7-.1 1.2 0 2.1.2 2.7.7.6.5.9 1.2.9 2 0 .6-.1 1.1-.4 1.5s-.7.7-1.4.9c.3.1.6.1.8.3s.5.3.7.5c.2.2.4.5.5.7s.2.6.2 1c0 .5-.1 1-.3 1.4s-.5.8-.9 1.1c-.4.3-.8.5-1.4.7-.5.2-1.1.2-1.8.2-1.1 0-2.1-.2-3-.5l.2-1.3zM313.3 330.1v-1.1c-.5.4-.9.8-1.4 1-.5.2-1 .3-1.5.3s-.9-.1-1.2-.2-.6-.3-.8-.5c-.2-.2-.4-.5-.5-.8-.1-.3-.2-.6-.2-.9 0-.8.3-1.5.9-2 .6-.5 1.5-.7 2.8-.7h1.7v-.7c0-.5-.2-.9-.5-1.2s-.8-.4-1.4-.4c-.5 0-.9.1-1.4.2l-1.4.4v-1.3l.6-.2.7-.2s.5-.1.8-.1h.8c.5 0 1 .1 1.4.2s.7.3 1 .5c.3.2.5.5.6.9s.2.7.2 1.2v5.7l-1.2-.1zm-.1-3.8h-1.8c-.4 0-.7 0-.9.1s-.5.2-.6.3-.3.3-.4.5c-.1.2-.1.4-.1.6 0 .2 0 .3.1.5s.1.3.2.4.3.2.4.3.4.1.6.1c.3 0 .7-.1 1.1-.3s.9-.5 1.4-1v-1.5zM325 328.9l-.1 3.4h-1.3v-2.1h-6.1v2.1h-1.3l-.1-3.4h.1c.2 0 .4 0 .6-.1s.4-.2.5-.4.3-.4.4-.8.3-.8.4-1.3c.1-.5.2-1.2.3-1.9.1-.7.1-1.6.2-2.7h5.1v7.1l1.3.1zm-2.6-5.9h-2.3c-.1 1-.1 1.8-.2 2.4-.1.7-.2 1.2-.3 1.7-.1.5-.3.8-.4 1.1s-.3.5-.5.6h3.8l-.1-5.8zM332 330.1v-1.1c-.5.4-.9.8-1.4 1-.5.2-1 .3-1.5.3s-.9-.1-1.2-.2-.6-.3-.8-.5c-.2-.2-.4-.5-.5-.8-.1-.3-.2-.6-.2-.9 0-.8.3-1.5.9-2 .6-.5 1.5-.7 2.8-.7h1.7v-.7c0-.5-.2-.9-.5-1.2s-.8-.4-1.4-.4c-.5 0-.9.1-1.4.2l-1.4.4v-1.3l.6-.2.7-.2s.5-.1.8-.1h.8c.5 0 1 .1 1.4.2s.7.3 1 .5c.3.2.5.5.6.9s.2.7.2 1.2v5.7l-1.2-.1zm-.1-3.8h-1.9c-.4 0-.7 0-.9.1s-.5.2-.6.3-.3.3-.4.5c-.1.2-.1.4-.1.6 0 .2 0 .3.1.5s.1.3.2.4.3.2.4.3.4.1.6.1c.3 0 .7-.1 1.1-.3s.9-.5 1.4-1v-1.5zM342.7 330.1h-1.4v-3.7h-3.8v3.7h-1.5v-8.3h1.4v3.4h3.8v-3.4h1.4v8.3zM346.9 321.8v5.9l3.6-5.9h1.4v8.3h-1.4v-5.9l-3.6 5.9h-1.4v-8.3h1.4zM361.7 325.5v.9h-5.9c0 .9.2 1.5.7 2 .5.5 1.2.7 2.1.7h.7c.2 0 .5 0 .7-.1s.4-.1.7-.1l.6-.1v1.2c-.4.1-.8.2-1.3.3-.5.1-1 .1-1.5.1-.7 0-1.3-.1-1.8-.3-.5-.2-.9-.5-1.3-.8-.3-.4-.6-.8-.7-1.4-.2-.5-.2-1.1-.2-1.8 0-.6.1-1.1.3-1.7.2-.5.4-1 .7-1.4.3-.4.7-.7 1.2-.9s1-.3 1.6-.3c.6 0 1.1.1 1.5.3.4.2.8.4 1.1.8.3.3.5.7.7 1.2.1.3.1.8.1 1.4zm-1.5-.2c0-.4 0-.7-.1-1-.1-.3-.2-.6-.4-.8s-.4-.4-.7-.5c-.3-.1-.6-.2-1-.2-.3 0-.6.1-.9.2-.3.1-.5.3-.7.5-.2.2-.3.5-.5.8-.1.3-.2.6-.2 1h4.5z"/><path class="st7" d="M5.5 258h18.1M5.5 373h18.1M5.5 2h18.1"/></g><path class="st8" d="M579.5 309.5c1 1.1 1.4 2.3 1.4 3.8l-.5 37.6c0 1.5-.5 2.7-1.5 3.8-1 1-2.2 1.5-3.6 1.5s-2.6-.6-3.5-1.6c-1-1.1-1.5-2.3-1.5-3.8l.5-37.6c0-1.5.5-2.7 1.5-3.7 1-1.1 2.2-1.6 3.6-1.6s2.6.6 3.6 1.6z"/><path class="st9" d="M583.1 216.4l-1.6 129.2-19.6-.2 1.6-129.2c0-2.4.8-4.4 2.4-6 1.6-1.7 3.5-2.5 5.7-2.4l3.6.1c2.2 0 4.1.9 5.7 2.6 1.5 1.5 2.3 3.5 2.2 5.9z"/><path class="st10" d="M585 136.3l-1.8 25.2v53.6h-50.8v-53.6l-1.8-25.2c9-2.3 18.1-3.5 27.2-3.5l10 .5c6.1.6 11.8 1.6 17.2 3z"/><path class="st11" d="M548.8 133.3c3.2-.3 6.3-.5 9-.5l10.5.6c-.7 2.1-1.9 3.8-3.7 5.1-1.8 1.3-3.8 2-6 2-2.3 0-4.4-.7-6.2-2-1.7-1.4-2.9-3.1-3.6-5.2z"/><path class="st9" d="M532.5 194.4h50.8v24.6c0 4.3-1.5 7.9-4.5 10.9s-6.6 4.5-10.9 4.5h-19.9c-4.3 0-7.9-1.5-10.9-4.5s-4.5-6.6-4.5-10.9v-24.6z"/><path class="st12" d="M545.2 234.2c-3.7-.6-6.7-2.4-9-5.2-2.4-2.9-3.7-6.2-3.7-10v-24.6h25.4v24.6c0 3.8-1.2 7.1-3.6 10-2.4 2.8-5.5 4.5-9.1 5.2z"/><path class="st11" d="M557.9 108.5c1.6 0 2.9.6 4.1 1.7 1.1 1.1 1.6 2.4 1.6 4v19.2l-2.3 5.8-9.2-5.8v-19.2c0-1.6.6-2.9 1.7-4 1.1-1.2 2.5-1.7 4.1-1.7z"/><path class="st13" d="M575.3 100.3c-.5 0-.8-.2-1.1-.5-.3-.3-.5-.7-.5-1.2s.2-.8.5-1.1c.3-.3.7-.5 1.1-.5.5 0 .8.2 1.2.5.3.3.5.7.5 1.1 0 .5-.2.8-.5 1.2-.4.4-.8.5-1.2.5zM562.5 100.3c-.5 0-.8-.2-1.1-.5-.3-.3-.5-.7-.5-1.2s.2-.8.5-1.1c.3-.3.7-.5 1.1-.5.5 0 .8.2 1.1.5.3.3.5.7.5 1.1 0 .5-.2.8-.5 1.2-.3.4-.7.5-1.1.5z"/><path class="st14" d="M575.1 111.1c0 1.7-.6 3.1-1.8 4.4-1.2 1.2-2.7 1.8-4.4 1.8-1.7 0-3.1-.6-4.3-1.8-1.2-1.2-1.8-2.7-1.8-4.4h12.3z"/><path class="st8" d="M546.2 309.2c.9 1.1 1.4 2.4 1.3 3.8-.8 16.6-1.4 29.1-1.9 37.5-.1 1.5-.6 2.7-1.7 3.7-1 1-2.2 1.4-3.6 1.4-1.4-.1-2.5-.7-3.4-1.8-.9-1.1-1.3-2.4-1.2-3.8.6-10.4 1.2-22.9 1.8-37.3.1-1.4.6-2.7 1.6-3.7 1.1-1 2.3-1.5 3.6-1.4 1.4 0 2.5.5 3.5 1.6z"/><path class="st12" d="M552.3 216.4c-1.1 50-2.7 93-4.6 128.9l-19.5-1.1c1.9-35.8 3.4-78.6 4.5-128.3.1-2.3.9-4.3 2.5-5.9 1.6-1.7 3.5-2.5 5.7-2.4l3.6.1c2.2.1 4.1 1 5.7 2.7 1.5 1.7 2.2 3.7 2.1 6z"/><path class="st15" d="M540.3 198.3v8.3c0 2.2-.8 4-2.3 5.5-1.5 1.5-3.4 2.3-5.5 2.3M532.5 198.3h50.8"/><path class="st16" d="M563.3 237.7l8.3.1M563.3 243l8.3.1"/><path class="st11" d="M587.4 211.5c-.4.6-1.1 1.1-2.1 1.5-1 .4-1.9.6-2.6.5l-.6-.1c-.7-.1-1.6-.1-2.6-.1s-1.9.1-2.6.3l-1.3.3c-.7.2-1.3.1-2-.4s-1.1-1.1-1.2-1.9l-.3-.9c-.2-.8-.2-1.7.1-2.6.2-1 .6-1.7 1.1-2.3l2.5-2.7c.5-.5 1.2-.9 2.1-1.2.9-.3 1.7-.4 2.4-.3l3.6.5c2.2.4 3.7 1.7 4.4 3.8.7 2 .4 3.9-.9 5.6z"/><path class="st17" d="M568.7 76.5l9.6-5.6c.9 2 1 4.1.3 6.2s-2 3.7-3.9 4.8l-6-5.4z"/><path class="st18" d="M553.5 135.8c-1.2-1.2-1.9-2.7-1.9-4.5v-8.9h12.7v8.9c0 1.8-.6 3.3-1.9 4.5-1.2 1.2-2.7 1.9-4.5 1.9-1.7 0-3.2-.6-4.4-1.9zM540.7 91c1.9 0 3.5.7 4.8 2.1 1.3 1.4 2 3.1 2 5.1 0 2-.7 3.7-2 5.1-1.3 1.4-2.9 2.1-4.8 2.1s-3.5-.7-4.8-2.1c-1.3-1.4-2-3.1-2-5.1 0-2 .7-3.7 2-5.1 1.3-1.4 2.9-2.1 4.8-2.1zM569.9 69.5c3.2 2.5 4.7 5.9 4.7 10.2v30.8c0 4.4-1.6 8.2-4.7 11.4-3.2 3.2-7 4.7-11.4 4.7h-1.2c-4.4 0-8.2-1.6-11.4-4.7-3.2-3.2-4.7-7-4.7-11.4v-30.8c0-4.3 1.6-7.7 4.7-10.2 3-2.4 6.8-3.6 11.4-3.6h1.2c4.6 0 8.4 1.2 11.4 3.6zM579.4 92.3c1.3 1.4 2 3.1 2 5.1 0 2-.7 3.7-2 5.1-1.3 1.4-2.9 2.1-4.8 2.1s-3.5-.7-4.8-2.1c-1.3-1.4-2-3.1-2-5.1 0-2 .7-3.7 2-5.1 1.3-1.4 2.9-2.1 4.8-2.1s3.5.7 4.8 2.1z"/><path class="st19" d="M542.1 103.8c0 2.5.8 4.7 2.5 6.4 1.7 1.8 3.7 2.7 6 2.7h14c2.4 0 4.4-.9 6-2.7 1.7-1.8 2.5-3.9 2.5-6.4v-14.1c1 1.1 1.6 4.9 1.7 11.6.1 3.3 0 6.5-.1 9.6-.1 7.2-1.3 12.1-3.8 14.7-1.2 1.2-2.7 2.1-4.6 2.6-1.6.5-3.7.7-6.2.7h-5c-2.5 0-4.6-.2-6.2-.6-1.9-.5-3.4-1.3-4.6-2.5-2.6-2.5-3.8-7.3-3.7-14.1-.1-3.2-.2-6.6-.1-10 .1-6.9.7-10.9 1.7-12l-.1 14.1zM568.4 69.2c1.9-.3 3.2-.4 3.9-.3 1.1.1 1.9.5 2.4 1.3.6.9.9 2.4.9 4.5v3.8c0 3.1-.1 5.9-.2 8.6-.4 8.5-1.1 13.3-2.1 14.5v-15.4c0-2.7-.8-5.1-2.5-7-1.7-1.9-3.7-2.9-6-2.9h-14c-2.4 0-4.4 1-6 2.9-1.7 1.9-2.5 4.3-2.5 7v15.3c-1-1.2-1.7-6-2.1-14.5-.1-2.7-.2-5.5-.2-8.6v-3.8c0-4.1 1.1-7.1 3.2-8.8 1.9-1.5 4.8-2.3 8.9-2.3l11.4 6.1c1.1 0 2.8-.1 4.9-.4zM549.2 106.6c1.7-.7 4.5-1.1 8.4-1.1 4 0 6.8.4 8.4 1.1 2.3 1 3.5 3.1 3.5 6 0 3.3-1.2 6.1-3.5 8.4-2.3 2.3-5.2 3.5-8.4 3.5-3.3 0-6.1-1.2-8.4-3.5-2.3-2.3-3.5-5.1-3.5-8.4 0-3 1.2-5 3.5-6z"/><path class="st18" d="M561.4 112.9c1.1.3 2.2.4 3.2.4 0 .8-.7 1.6-2.2 2.2-1.4.6-3.2.9-5.2.9-2.1 0-3.8-.3-5.2-.9-1.4-.6-2.2-1.3-2.2-2.2l.9-.1 2.1-.3c2.2-.5 3.6-1.4 4.4-2.7.5 1.3 2 2.1 4.2 2.7z"/><path class="st17" d="M577.7 66.6l-2.3 16.8c-.2-.4-.5-.9-.9-1.4-.8-1.1-1.8-1.9-3-2.6-3.7-2-8.6-1.5-14.5 1.6-.9-.6-2-1.2-3.3-1.7-2.6-1.1-5-1.4-7.3-1-2.2.4-4 1.4-5.3 3.1-.4.5-.8 1.1-1.1 1.7-.1.3-.2.6-.3.7l-.1-10.5c-.1-.9.1-2.1.5-3.4.7-2.6 2.2-4.7 4.3-6.4 1.9-1.5 3.6-2.6 5.2-3.4.8-.4 1.4-.7 1.9-.8l.5.9c.5.6 1.1 1 1.8 1.2.8-1.9 2.6-3.2 5.3-3.9 1.3-.3 2.6-.5 3.8-.5l-1 1.9c-.6 1.5-.8 2.8-.6 3.8 1.1-1.5 3-2.2 5.9-2.1 1.4.1 2.8.2 4 .6l-.6 2.2c-.5 1.8-.9 3.5-1.3 5.2 2-1.8 3.9-2.7 5.9-2.7 1.1.1 1.9.3 2.5.7z"/><path class="st20" d="M551 92.2c-.2.3-.5.4-.9.4s-.7-.1-1-.4c-.2-.2-.3-.5-.3-.9s.1-.7.3-1c.3-.2.6-.3 1-.3s.7.1.9.3c.3.3.4.6.4 1s-.1.7-.4.9zM566.6 92.2c-.2.3-.5.4-.9.4s-.7-.1-1-.4c-.2-.2-.3-.5-.3-.9s.1-.7.3-1c.3-.2.6-.3 1-.3s.7.1.9.3c.3.3.4.6.4 1s-.2.7-.4.9z"/><path class="st11" d="M600 218.8l-.3 7.1c-.1 2.1.3 3.7 1 4.7l.3.5c1.1 1.4 1.8 2.9 2.2 4.6l.3 1.3c.2.7.6 1.2 1.4 1.6.7.4 1.4.5 2.2.3l.9-.2c.8-.2 1.6-.6 2.3-1.2.7-.6 1.2-1.3 1.5-2l1.2-3.5c.2-.7.3-1.5.1-2.4-.1-.9-.4-1.7-.8-2.3l-1.7-2.3c-.6-.8-1.7-3.7-3.3-8.6l-7.3 2.4z"/><path class="st21" d="M528.4 137.6c3.4-3.4 7.6-5.2 12.5-5.2h30.9c4.9 0 9.1 1.7 12.5 5.2s5.2 7.6 5.2 12.5l-2 87.7h-62.9l-1.4-87.7c0-4.9 1.7-9 5.2-12.5z"/><path class="st12" d="M544.2 151.8l-4.7-6.4 7.1-12.5 8.8 80-17.7-55.7zM569 151.8l6.6 5.4-20.2 55.7 11.2-80 7.2 12.5z"/><path class="st22" d="M546.6 132.9h21.2l-12.4 80z"/><path class="st23" d="M550 129l7.4 11.1-7.3 7.6-6.9-12.1zM564.2 129.1l6.8 6.6-6.6 12-7-7.6z"/><path class="st24" d="M557.4 140.1l3.5 37-5.5 35.8-3.9-35.7zM557.4 140.1l5.3 5.7-5.9 7.1-5.2-6.8z"/><path class="st21" d="M583.5 136.3c-2-1.3-3.7-2.2-5.2-2.6l-4.3 13c.9.4 2 1 3.3 2 2.6 1.9 5.1 4.4 7.3 7.5 7.2 9.9 11.2 24 12.1 42.1.4 7.5.5 14.8.4 21.9h13.7c.1-7.4-.1-14.9-.4-22.5-1.1-22.4-6.6-39.7-16.6-51.9-3.1-4-6.6-7.1-10.3-9.5z"/><path class="st11" d="M460.7 159.9l-6.3-2.1c-1.9-.7-3.1-1.5-3.8-2.5l-.3-.5c-.9-1.4-1.9-2.5-3.3-3.5l-1-.7c-.5-.4-.8-1-.9-1.7-.1-.7.1-1.4.5-2l.5-.7c.4-.6 1-1.2 1.9-1.6.8-.4 1.6-.6 2.3-.6l3.5.1c.7 0 1.4.3 2.1.7.7.4 1.3.9 1.7 1.5l1.4 2.2c.5.8 2.6 2.7 6.3 5.8l-4.6 5.6z"/><path class="st21" d="M455.2 159l7.7-8.6s26.9 25.1 37.9 23.3c10-1.7 25.8-31.5 25.8-31.5l9.9 8.1s-19.2 36.6-31.4 38.7c-14.5 2.4-49.9-30-49.9-30z"/><path class="st25" d="M523.9 352.1l.1 9.8h23.2v-9.3c0-1.4-.5-2.5-1.5-3.5s-2.1-1.5-3.5-1.5h-13.4c-.2 1.2-.7 2.3-1.6 3.2-.9.9-2 1.3-3.3 1.3z"/><path class="st26" d="M517.2 358.5v3.5h15.4v-3.5c0-1.7-.6-3.2-1.9-4.5-1.2-1.2-2.7-1.9-4.4-1.9h-2.8c-1.8 0-3.3.6-4.5 1.9-1.2 1.2-1.8 2.7-1.8 4.5zM542.7 354.1c-1.2 1.2-1.8 2.7-1.8 4.4v3.5h6.3v-9.3l-.1-.6c-1.6.1-3.1.7-4.4 2z"/><path class="st25" d="M537.8 348.1v-1.1c0-.8-.3-1.5-.9-2-.6-.6-1.2-.9-2-.9h-3.1c-.8 0-1.5.3-2.1.9-.6.6-.8 1.2-.8 2v1.1h8.9zM516.3 358.7h31v3.3h-31zM575.9 347.7h-13.4c-.1 1.2-.6 2.3-1.6 3.2-.9.8-2.1 1.2-3.3 1.2l.1 9.8h23.2v-9.3c0-1.4-.5-2.5-1.5-3.5-.9-.9-2.1-1.4-3.5-1.4z"/><path class="st26" d="M549.9 358.5v3.5h15.5v-3.5c0-1.7-.6-3.2-1.9-4.5s-2.7-1.9-4.5-1.9h-2.8c-1.8 0-3.3.6-4.5 1.9-1.2 1.2-1.8 2.7-1.8 4.5zM580.8 352.1c-1.7 0-3.2.7-4.5 1.9-1.2 1.2-1.8 2.7-1.8 4.4v3.5h6.3v-9.8z"/><path class="st25" d="M571.4 348.1v-1.1c0-.8-.3-1.5-.8-2-.6-.6-1.3-.9-2.1-.9h-3.1c-.8 0-1.5.3-2.1.9-.6.6-.8 1.2-.8 2v1.1h8.9zM549.9 358.7h31v3.3h-31z"/><path class="st27" d="M567 348.9h-4.4M565.4 351.3h-4.4M533 348.9h-4.4M531.4 351.3h-4.4"/></svg>