<?xml version="1.0" encoding="utf-8"?>
<!-- Generator: Adobe Illustrator 15.1.0, SVG Export Plug-In . SVG Version: 6.00 Build 0)  -->
<!DOCTYPE svg PUBLIC "-//W3C//DTD SVG 1.1//EN" "http://www.w3.org/Graphics/SVG/1.1/DTD/svg11.dtd">
<svg version="1.1" xmlns="http://www.w3.org/2000/svg" xmlns:xlink="http://www.w3.org/1999/xlink" x="0px" y="0px" width="406.2px"
	 height="406.375px" viewBox="0 0 406.2 406.375" enable-background="new 0 0 406.2 406.375" xml:space="preserve">
<symbol  id="flash0.ai_x5F_6_x2F_Layer_1_x2F__x3C_Group_x3E__x5F_5" viewBox="0 -31.05 25.95 31.05">
	<g id="Layer_1_3_">
		<g>
			<polygon fill-rule="evenodd" clip-rule="evenodd" fill="#B3B3B3" points="0,0 6.25,0 25.95,-30.6 25.95,-31.05 19.95,-31.05 			
				"/>
			<polygon fill-rule="evenodd" clip-rule="evenodd" fill="#B3B3B3" points="25.95,-22.1 25.95,-27.5 8.25,0 11.75,0 			"/>
		</g>
	</g>
</symbol>
<symbol  id="flash0.ai_x5F_6_x2F_Layer_1_x2F__x3C_Path_x3E__x5F_73" viewBox="0 -94.75 653.75 94.75">
	<g id="Layer_1_2_">
		<polygon fill-rule="evenodd" clip-rule="evenodd" fill="#FFE0B2" points="653.75,-94.75 0,-94.75 0,0 653.75,0 		"/>
	</g>
</symbol>
<symbol  id="flash0.ai_x5F_8_x2F_Layer_3_x2F__x3C_Group_x3E__x5F_5" viewBox="0 -108.85 128.95 108.85">
	<g id="Layer_1_4_">
		<g>
			<g>
				
					<polyline fill-rule="evenodd" clip-rule="evenodd" fill="none" stroke="#1A3B51" stroke-width="1.7" stroke-linecap="round" stroke-miterlimit="10" points="
					0.85,-0.85 64.55,-0.85 64.55,-108 				"/>
			</g>
			
				<line fill-rule="evenodd" clip-rule="evenodd" fill="none" stroke="#1A3B51" stroke-width="1.7" stroke-linecap="round" stroke-miterlimit="10" x1="30.8" y1="-108" x2="128.1" y2="-108"/>
			
				<line fill-rule="evenodd" clip-rule="evenodd" fill="none" stroke="#1A3B51" stroke-width="1.7" stroke-linecap="round" stroke-miterlimit="10" x1="31.7" y1="-54.1" x2="64.55" y2="-54.1"/>
		</g>
	</g>
</symbol>
<symbol  id="flash0.ai_x5F_8_x2F_Layer_3_x2F__x3C_Path_x3E_" viewBox="0 -9 12.9 9">
	<g id="Layer_1_5_">
		<polygon fill-rule="evenodd" clip-rule="evenodd" fill="#51A8B7" points="12.9,-3.65 1.35,-9 0,-6.4 11.05,0 		"/>
	</g>
</symbol>
<symbol  id="flash0.ai_x5F_8_x2F_Layer_3_x2F__x3C_Path_x3E__x5F_0" viewBox="0 -7.8 13.25 7.8">
	<g id="Layer_1_6_">
		<polygon fill-rule="evenodd" clip-rule="evenodd" fill="#51A8B7" points="13.25,-4.35 12.05,-7.8 0,-3.7 1.3,0 		"/>
	</g>
</symbol>
<g id="Layer_1">
</g>
<g id="Layer_1_1_">
	<rect x="582.85" y="134.25" fill-rule="evenodd" clip-rule="evenodd" fill="#EEEEEE" width="24.65" height="8.6"/>
	<rect x="610.35" y="134.25" fill-rule="evenodd" clip-rule="evenodd" fill="#EEEEEE" width="24.7" height="8.6"/>
	<rect x="596.45" y="145.5" fill-rule="evenodd" clip-rule="evenodd" fill="#EEEEEE" width="24.7" height="8.6"/>
	<rect x="654.3" y="60.3" fill-rule="evenodd" clip-rule="evenodd" fill="#EEEEEE" width="24.7" height="8.6"/>
	<rect x="667.9" y="49.05" fill-rule="evenodd" clip-rule="evenodd" fill="#EEEEEE" width="24.699" height="8.6"/>
</g>
<g id="Layer_3">
</g>
<g id="Layer_4">
</g>
<g id="Layer_5">
</g>
<g id="Layer_6">
	<g>
		<defs>
			<circle id="SVGID_1_" cx="203.188" cy="203.188" r="203.188"/>
		</defs>
		<clipPath id="SVGID_2_">
			<use xlink:href="#SVGID_1_"  overflow="visible"/>
		</clipPath>
		<g transform="matrix(1 0 0 1 9.807991e-008 -1.234468e-005)" clip-path="url(#SVGID_2_)" enable-background="new    ">
			
				<use xlink:href="#flash0.ai_x5F_6_x2F_Layer_1_x2F__x3C_Path_x3E__x5F_73"  width="653.75" height="94.75" y="-94.75" transform="matrix(1.293 0 0 -0.7981 6.1499 333.4502)" overflow="visible"/>
		</g>
		
			<rect x="6.15" y="0.65" clip-path="url(#SVGID_2_)" fill-rule="evenodd" clip-rule="evenodd" fill="#93A4AC" width="839.802" height="7.3"/>
		<g clip-path="url(#SVGID_2_)">
			<polygon fill-rule="evenodd" clip-rule="evenodd" fill="#39494D" points="341.35,177.3 348,202.75 344.15,203.75 337.5,178.3 			
				"/>
			<path fill-rule="evenodd" clip-rule="evenodd" fill="#FF5721" d="M344.25,175.95c0.367,1.367,0.184,2.667-0.55,3.9
				c-0.7,1.233-1.733,2.017-3.1,2.35c-1.367,0.367-2.667,0.2-3.9-0.5c-1.2-0.733-1.983-1.784-2.35-3.15s-0.2-2.667,0.5-3.9
				c0.733-1.2,1.783-1.983,3.15-2.35c1.333-0.333,2.617-0.15,3.85,0.55C343.083,173.55,343.883,174.583,344.25,175.95z"/>
		</g>
		<g clip-path="url(#SVGID_2_)">
			<g>
				<g>
					<path fill-rule="evenodd" clip-rule="evenodd" fill="#EEEEEE" d="M476.55,232.6c-3.066,3.067-6.75,4.601-11.05,4.601H292.2
						c-4.333,0-8.034-1.533-11.1-4.601c-3.067-3.066-4.6-6.75-4.6-11.05c0-4.333,1.533-8.033,4.6-11.1
						c3.066-3.066,6.767-4.601,11.1-4.601h173.3c4.3,0,7.983,1.534,11.05,4.601c3.067,3.066,4.601,6.767,4.601,11.1
						C481.15,225.85,479.617,229.533,476.55,232.6z"/>
				</g>
				<g>
					<path fill-rule="evenodd" clip-rule="evenodd" fill="#39494D" d="M483.15,221.55c0,4.867-1.717,9.033-5.15,12.5
						c-3.467,3.434-7.633,5.15-12.5,5.15H292.2c-4.867,0-9.034-1.717-12.5-5.15c-3.467-3.467-5.2-7.633-5.2-12.5
						c0-4.866,1.733-9.033,5.2-12.5c3.466-3.467,7.633-5.2,12.5-5.2h173.3c4.867,0,9.033,1.733,12.5,5.2
						C481.434,212.517,483.15,216.684,483.15,221.55z M465.5,207.85H292.2c-3.767,0-7,1.334-9.7,4c-2.667,2.7-4,5.934-4,9.7
						s1.333,6.983,4,9.65c2.7,2.666,5.934,4,9.7,4h173.3c3.767,0,6.983-1.334,9.65-4c2.666-2.667,4-5.884,4-9.65s-1.334-7-4-9.7
						C472.483,209.184,469.267,207.85,465.5,207.85z"/>
				</g>
			</g>
			<polygon fill-rule="evenodd" clip-rule="evenodd" fill="#647C8A" points="176.65,87.3 179.1,111.85 172.5,111.85 152.3,91.65 			
				"/>
			<polygon fill-rule="evenodd" clip-rule="evenodd" fill="#647C8A" points="176.65,87.3 201,91.65 180.8,111.85 174.15,111.85 			
				"/>
			<rect x="152.3" y="82.95" fill-rule="evenodd" clip-rule="evenodd" fill="#93A4AC" width="48.7" height="8.7"/>
			<rect x="170.55" y="102.95" fill-rule="evenodd" clip-rule="evenodd" fill="#647C8A" width="12.2" height="22.1"/>
			<rect x="250.95" y="238.6" fill-rule="evenodd" clip-rule="evenodd" fill="#647C8A" width="217.45" height="6.5"/>
			<rect x="301.5" y="240" fill-rule="evenodd" clip-rule="evenodd" fill="#647C89" width="6.5" height="104.65"/>
			<rect x="462.35" y="240" fill-rule="evenodd" clip-rule="evenodd" fill="#647C89" width="6.5" height="104.65"/>
			<rect x="152.35" y="240" fill-rule="evenodd" clip-rule="evenodd" fill="#647C89" width="6.5" height="104.65"/>
			<rect x="247.7" y="240" fill-rule="evenodd" clip-rule="evenodd" fill="#647C89" width="6.5" height="104.65"/>
			
				<rect x="294.336" y="264.672" transform="matrix(0.7071 -0.7071 0.7071 0.7071 -92.6283 312.2252)" fill-rule="evenodd" clip-rule="evenodd" fill="#647C89" width="72.478" height="6.505"/>
			
				<rect x="437.873" y="231.686" transform="matrix(-0.7071 0.7071 -0.7071 -0.7071 942.4989 145.4538)" fill-rule="evenodd" clip-rule="evenodd" fill="#647C89" width="6.505" height="72.478"/>
			<g>
				<path fill-rule="evenodd" clip-rule="evenodd" fill="#93A4AC" d="M320.1,220.2c-0.333-0.2-0.667-0.25-1-0.15
					c-0.367,0.101-0.633,0.3-0.8,0.601c-0.2,0.333-0.25,0.683-0.15,1.05c0.1,0.333,0.3,0.6,0.6,0.8c0.3,0.167,0.633,0.217,1,0.15
					c0.367-0.101,0.65-0.317,0.85-0.65c0.167-0.3,0.216-0.634,0.15-1C320.65,220.634,320.433,220.366,320.1,220.2z M324.4,220.05
					l0.05,0.45l1.55,0.15l-0.15,2.149h-1.55c-0.033,0.267-0.133,0.533-0.3,0.8l1.15,1.051l-1.35,1.649l-1.25-0.899l-0.9,0.55
					l0.25-0.05l0.35,1.85l-2.15,0.55l-0.6-1.8l0.25-0.05c-0.467,0-0.817-0.017-1.05-0.05l0.15,0.05l-0.8,1.75l-2.05-0.8l0.6-1.851
					l-0.7-0.55l-1.35,0.75l-1.15-1.8l1.2-0.9l-0.2-0.85l-1.5-0.2l0.1-2.1l1.55-0.051l0.3-0.75l-1.1-1.05l1.35-1.649l1.25,0.899
					c0.2-0.2,0.433-0.35,0.7-0.45l-0.3-1.55l2.1-0.5l0.5,1.45c0.367,0,0.633,0.017,0.8,0.05l0.7-1.399l1.95,0.8l-0.45,1.45
					c0.167,0.1,0.383,0.283,0.65,0.55l1.35-0.75l1.15,1.8l-1.25,0.9L324.4,220.05z"/>
				<g>
					<path fill-rule="evenodd" clip-rule="evenodd" fill="#93A4AC" d="M299.85,214.5c-1.934,0-3.583,0.684-4.95,2.05
						c-1.4,1.4-2.1,3.066-2.1,5s0.7,3.601,2.1,5c1.367,1.367,3.017,2.05,4.95,2.05c1.966,0,3.633-0.683,5-2.05
						c1.367-1.366,2.05-3.033,2.05-5c0-1.934-0.683-3.6-2.05-5C303.483,215.184,301.816,214.5,299.85,214.5z M301.7,210.55
						l0.15,2.601l1.35,0.399l1.7-2l2.9,2.15l-1.4,2.2l0.85,1.149l2.55-0.649l1.1,3.449l-2.45,1l0.05,0.7l-0.05,0.7l2.45,0.95
						l-1.1,3.45l-2.55-0.65c-0.167,0.3-0.45,0.684-0.85,1.15l1.4,2.25l-2.9,2.1l-1.7-2c-0.367,0.167-0.817,0.316-1.35,0.45
						l-0.15,2.6h-3.65l-0.15-2.6c-0.5-0.101-0.95-0.25-1.35-0.45l-1.7,2l-2.9-2.1l1.4-2.25c-0.3-0.301-0.583-0.684-0.85-1.15
						l-2.55,0.65l-1.1-3.45l2.4-0.95v-1.4l-2.4-1l1.1-3.449l2.55,0.649c0.333-0.533,0.617-0.916,0.85-1.149l-1.4-2.2l2.9-2.15l1.7,2
						l1.35-0.399l0.15-2.601H301.7z"/>
					<path fill-rule="evenodd" clip-rule="evenodd" fill="#93A4AC" d="M301.45,219.95c-0.434-0.434-0.967-0.65-1.6-0.65
						s-1.167,0.217-1.6,0.65c-0.434,0.434-0.65,0.967-0.65,1.6c0,0.634,0.216,1.167,0.65,1.601c0.433,0.433,0.967,0.649,1.6,0.649
						s1.167-0.217,1.6-0.649c0.466-0.434,0.7-0.967,0.7-1.601C302.15,220.917,301.917,220.384,301.45,219.95z M295.7,217.35
						c1.133-1.166,2.517-1.75,4.15-1.75c1.667,0,3.066,0.584,4.2,1.75c1.167,1.167,1.75,2.567,1.75,4.2
						c0,1.634-0.583,3.033-1.75,4.2c-1.167,1.167-2.566,1.75-4.2,1.75s-3.017-0.583-4.15-1.75c-1.167-1.167-1.75-2.566-1.75-4.2
						C293.95,219.917,294.533,218.517,295.7,217.35z"/>
				</g>
				<path fill-rule="evenodd" clip-rule="evenodd" fill="#93A4AC" d="M360.2,220.2c-0.333-0.2-0.667-0.25-1-0.15
					c-0.367,0.101-0.634,0.3-0.8,0.601c-0.2,0.333-0.25,0.683-0.15,1.05c0.1,0.366,0.3,0.633,0.6,0.8
					c0.333,0.2,0.683,0.25,1.05,0.15c0.367-0.101,0.633-0.301,0.8-0.601c0.2-0.333,0.25-0.684,0.15-1.05
					S360.533,220.366,360.2,220.2z M364.5,220.05l0.05,0.45l1.55,0.2l-0.1,2.1h-1.55l-0.35,0.8l1.15,1.051l-1.35,1.649l-1.25-0.899
					l-0.9,0.55l0.25-0.05l0.35,1.85l-2.15,0.55l-0.6-1.8l0.25-0.05c-0.467,0-0.817-0.017-1.05-0.05l0.2,0.05l-0.85,1.75l-2.05-0.8
					l0.6-1.801L356,225l-1.35,0.75l-1.15-1.8l1.25-0.9l-0.15-0.399l-0.1-0.45L353,222l0.1-2.1h1.55l0.3-0.801l-1.1-1.05l1.35-1.649
					l1.25,0.899c0.2-0.2,0.433-0.35,0.7-0.45l-0.25-1.55l2.05-0.5l0.5,1.45c0.366,0,0.65,0.017,0.85,0.05l0.65-1.399l1.95,0.8
					l-0.45,1.45l0.65,0.55l1.35-0.75l1.15,1.8l-1.25,0.9L364.5,220.05z"/>
				<g>
					<path fill-rule="evenodd" clip-rule="evenodd" fill="#93A4AC" d="M340,214.5c-1.934,0-3.6,0.684-5,2.05
						c-1.367,1.4-2.05,3.066-2.05,5c0,1.967,0.683,3.634,2.05,5c1.4,1.367,3.066,2.05,5,2.05c1.933,0,3.583-0.683,4.95-2.05
						c1.4-1.399,2.1-3.066,2.1-5s-0.7-3.6-2.1-5C343.583,215.184,341.933,214.5,340,214.5z M332.6,217.05l0.85-1.149l-1.4-2.2
						l2.9-2.101l1.7,2c0.367-0.166,0.817-0.316,1.35-0.449l0.15-2.601h3.65l0.15,2.601c0.5,0.1,0.95,0.25,1.35,0.449l1.7-2
						l2.9,2.101l-1.4,2.2c0.233,0.233,0.517,0.616,0.85,1.149l2.55-0.6l1.1,3.399l-2.4,1v1.4l2.4,1l-1.1,3.4l-2.55-0.65
						c-0.233,0.434-0.517,0.833-0.85,1.2l1.4,2.2l-2.9,2.1l-1.7-2c-0.4,0.2-0.85,0.35-1.35,0.45l-0.15,2.6h-3.65l-0.15-2.6
						c-0.533-0.134-0.983-0.283-1.35-0.45l-1.7,2l-2.9-2.1l1.4-2.2c-0.467-0.634-0.75-1.033-0.85-1.2l-2.55,0.65l-1.1-3.4l2.45-1
						l-0.05-0.7l0.05-0.7l-2.45-1l1.1-3.399L332.6,217.05z"/>
					<path fill-rule="evenodd" clip-rule="evenodd" fill="#93A4AC" d="M341.6,219.95c-0.434-0.434-0.967-0.65-1.6-0.65
						s-1.167,0.217-1.6,0.65c-0.467,0.434-0.7,0.967-0.7,1.6c0,0.634,0.233,1.167,0.7,1.601c0.434,0.433,0.967,0.649,1.6,0.649
						s1.167-0.217,1.6-0.649c0.433-0.434,0.65-0.967,0.65-1.601C342.25,220.917,342.033,220.384,341.6,219.95z M335.8,217.35
						c1.167-1.166,2.567-1.75,4.2-1.75s3.017,0.584,4.15,1.75c1.167,1.167,1.75,2.567,1.75,4.2c0,1.634-0.583,3.033-1.75,4.2
						c-1.133,1.167-2.517,1.75-4.15,1.75s-3.033-0.583-4.2-1.75c-1.167-1.134-1.75-2.533-1.75-4.2
						C334.05,219.917,334.633,218.517,335.8,217.35z"/>
				</g>
				<path fill-rule="evenodd" clip-rule="evenodd" fill="#93A4AC" d="M400.35,220.2c-0.333-0.2-0.684-0.25-1.05-0.15
					c-0.367,0.101-0.633,0.3-0.8,0.601c-0.2,0.333-0.25,0.683-0.15,1.05c0.1,0.366,0.3,0.633,0.6,0.8
					c0.333,0.2,0.683,0.25,1.05,0.15c0.367-0.101,0.633-0.301,0.8-0.601c0.2-0.333,0.25-0.684,0.15-1.05
					C400.85,220.634,400.65,220.366,400.35,220.2z M404.6,220.05l0.1,0.45l1.5,0.2l-0.1,2.1h-1.55l-0.3,0.8l1.1,1.051L404,226.3
					l-1.25-0.899l-0.9,0.55l0.25-0.05l0.35,1.85l-2.15,0.55l-0.6-1.8l0.25-0.05c-0.467,0-0.817-0.017-1.05-0.05l0.2,0.05l-0.85,1.75
					l-2.05-0.8l0.6-1.801l-0.7-0.6l-1.35,0.75l-1.15-1.8l1.25-0.9l-0.15-0.399l-0.1-0.45l-1.5-0.2l0.1-2.1h1.55l0.3-0.801l-1.1-1.05
					l1.35-1.649l1.25,0.899c0.3-0.233,0.534-0.383,0.7-0.45L397,215.3l2.05-0.5l0.5,1.45c0.367,0,0.65,0.017,0.85,0.05l0.65-1.399
					l2,0.8l-0.5,1.45l0.65,0.55l1.35-0.75l1.15,1.8l-1.25,0.9L404.6,220.05z"/>
				<g>
					<path fill-rule="evenodd" clip-rule="evenodd" fill="#93A4AC" d="M381.9,210.55l0.15,2.601c0.467,0.1,0.934,0.25,1.4,0.449
						l1.65-2l2.9,2.101l-1.4,2.2c0.233,0.233,0.517,0.616,0.85,1.149l2.55-0.6l1.1,3.399l-2.4,1v1.4l2.4,1l-1.1,3.4l-2.55-0.601
						l-0.85,1.15l1.4,2.2l-2.9,2.1l-1.65-2c-0.467,0.2-0.934,0.35-1.4,0.45l-0.15,2.6h-3.6l-0.2-2.6
						c-0.434-0.101-0.883-0.25-1.35-0.45l-1.7,2l-2.9-2.1l1.4-2.2l-0.85-1.15l-2.55,0.601l-1.1-3.4l2.45-1l-0.05-0.7l0.05-0.7
						l-2.45-1l1.1-3.399l2.55,0.6l0.85-1.149l-1.4-2.2l2.9-2.101l1.7,2c0.467-0.199,0.917-0.35,1.35-0.449l0.2-2.601H381.9z
						 M380.1,214.5c-1.934,0-3.6,0.684-5,2.05c-1.367,1.4-2.05,3.066-2.05,5c0,1.967,0.684,3.634,2.05,5
						c1.4,1.367,3.066,2.05,5,2.05c1.966,0,3.633-0.683,5-2.05c1.367-1.366,2.05-3.033,2.05-5c0-1.934-0.683-3.6-2.05-5
						C383.733,215.184,382.066,214.5,380.1,214.5z"/>
					<path fill-rule="evenodd" clip-rule="evenodd" fill="#93A4AC" d="M381.7,219.95c-0.434-0.434-0.967-0.65-1.6-0.65
						s-1.167,0.217-1.6,0.65c-0.467,0.434-0.7,0.967-0.7,1.6c0,0.634,0.233,1.167,0.7,1.601c0.433,0.433,0.967,0.649,1.6,0.649
						s1.167-0.217,1.6-0.649c0.433-0.434,0.65-0.967,0.65-1.601C382.35,220.917,382.133,220.384,381.7,219.95z M375.9,217.35
						c1.167-1.166,2.567-1.75,4.2-1.75s3.033,0.584,4.2,1.75c1.167,1.167,1.75,2.567,1.75,4.2c0,1.634-0.583,3.033-1.75,4.2
						c-1.167,1.167-2.566,1.75-4.2,1.75s-3.034-0.583-4.2-1.75c-1.167-1.134-1.75-2.533-1.75-4.2
						C374.15,219.917,374.733,218.517,375.9,217.35z"/>
				</g>
				<path fill-rule="evenodd" clip-rule="evenodd" fill="#93A4AC" d="M440.45,220.2c-0.334-0.2-0.684-0.25-1.05-0.15
					c-0.334,0.101-0.601,0.316-0.801,0.65c-0.166,0.3-0.216,0.633-0.149,1c0.1,0.366,0.316,0.633,0.649,0.8
					c0.334,0.2,0.667,0.25,1,0.15c0.367-0.101,0.634-0.301,0.801-0.601c0.199-0.333,0.25-0.684,0.149-1.05
					C440.95,220.634,440.75,220.366,440.45,220.2z M434.85,219.9l0.351-0.801l-1.15-1.05l1.351-1.649l1.25,0.899l0.75-0.45
					l-0.301-1.55l2.051-0.5l0.5,1.45c0.366,0,0.649,0.017,0.85,0.05l0.65-1.399l2,0.8l-0.5,1.45l0.649,0.55l1.351-0.75l1.149,1.8
					l-1.25,0.9l0.15,0.399l0.1,0.45l1.5,0.2l-0.1,2.1h-1.55l-0.301,0.8l1.101,1.051L444.1,226.3l-1.25-0.899
					c-0.199,0.199-0.5,0.383-0.899,0.55l0.25-0.05l0.35,1.85l-2.1,0.6l-0.601-1.85l0.2-0.05c-0.467,0-0.8-0.017-1-0.05l0.15,0.1
					l-0.8,1.7l-2.051-0.8l0.551-1.801l-0.7-0.6l-1.351,0.75l-1.149-1.8l1.25-0.9l-0.15-0.399l-0.05-0.45l-1.55-0.15l0.149-2.149
					H434.85z"/>
				<g>
					<path fill-rule="evenodd" clip-rule="evenodd" fill="#93A4AC" d="M422,210.55l0.15,2.601c0.466,0.1,0.933,0.25,1.399,0.449
						l1.65-2l2.899,2.101l-1.35,2.2l0.8,1.149l2.55-0.6l1.101,3.399l-2.4,1l0.05,0.7l-0.05,0.7l2.4,1l-1.101,3.4l-2.55-0.601
						l-0.8,1.15l1.35,2.2l-2.899,2.1l-1.65-2c-0.467,0.2-0.934,0.35-1.399,0.45l-0.15,2.6h-3.6l-0.2-2.6
						c-0.434-0.101-0.884-0.25-1.35-0.45l-1.65,2l-2.95-2.1l1.4-2.2l-0.85-1.15l-2.5,0.601l-1.15-3.4l2.45-1l-0.05-0.7l0.05-0.7
						l-2.45-1l1.15-3.399l2.5,0.6l0.85-1.149l-1.4-2.2l2.95-2.101l1.65,2c0.466-0.199,0.917-0.35,1.35-0.449l0.2-2.601H422z
						 M420.2,214.5c-1.934,0-3.6,0.684-5,2.05c-1.367,1.4-2.05,3.066-2.05,5c0,1.967,0.684,3.634,2.05,5
						c1.4,1.367,3.066,2.05,5,2.05c1.967,0,3.633-0.683,5-2.05c1.366-1.366,2.05-3.033,2.05-5c0-1.934-0.684-3.6-2.05-5
						C423.833,215.184,422.167,214.5,420.2,214.5z"/>
					<path fill-rule="evenodd" clip-rule="evenodd" fill="#93A4AC" d="M421.8,219.95c-0.434-0.434-0.967-0.65-1.6-0.65
						c-0.634,0-1.167,0.217-1.6,0.65c-0.467,0.434-0.7,0.967-0.7,1.6c0,0.634,0.233,1.167,0.7,1.601
						c0.433,0.433,0.966,0.649,1.6,0.649c0.633,0,1.166-0.217,1.6-0.649c0.434-0.434,0.65-0.967,0.65-1.601
						C422.45,220.917,422.233,220.384,421.8,219.95z M416,217.35c1.167-1.166,2.566-1.75,4.2-1.75c1.633,0,3.033,0.584,4.2,1.75
						c1.166,1.167,1.75,2.567,1.75,4.2c0,1.634-0.584,3.033-1.75,4.2c-1.167,1.167-2.567,1.75-4.2,1.75
						c-1.634,0-3.034-0.583-4.2-1.75c-1.167-1.134-1.75-2.533-1.75-4.2C414.25,219.917,414.833,218.517,416,217.35z"/>
				</g>
				<g>
					<path fill-rule="evenodd" clip-rule="evenodd" fill="#93A4AC" d="M460.3,214.5c-1.934,0-3.6,0.684-5,2.05
						c-1.366,1.4-2.05,3.066-2.05,5c0,1.967,0.684,3.634,2.05,5c1.4,1.367,3.066,2.05,5,2.05c1.967,0,3.634-0.683,5-2.05
						c1.367-1.366,2.05-3.033,2.05-5c0-1.934-0.683-3.6-2.05-5C463.934,215.184,462.267,214.5,460.3,214.5z M455.3,211.6l1.65,2
						c0.467-0.199,0.916-0.35,1.35-0.449l0.2-2.601h3.6l0.2,2.601c0.467,0.1,0.917,0.25,1.351,0.449l1.649-2l2.95,2.101l-1.4,2.2
						l0.801,1.199l2.55-0.649l1.149,3.399l-2.449,1l0.05,0.7l-0.05,0.7l2.449,1l-1.149,3.45l-2.55-0.65l-0.801,1.15l1.4,2.2
						l-2.95,2.149l-1.649-2.05c-0.467,0.2-0.934,0.35-1.4,0.45l-0.15,2.6h-3.6l-0.2-2.6c-0.434-0.101-0.883-0.25-1.35-0.45
						l-1.65,2.05l-2.95-2.149l1.4-2.2l-0.85-1.15l-2.5,0.65l-1.15-3.45l2.45-1l-0.05-0.7l0.05-0.7l-2.45-1l1.15-3.399l2.5,0.649
						c0.1-0.166,0.383-0.566,0.85-1.199l-1.4-2.2L455.3,211.6z"/>
					<path fill-rule="evenodd" clip-rule="evenodd" fill="#93A4AC" d="M461.9,219.95c-0.434-0.434-0.967-0.65-1.601-0.65
						c-0.633,0-1.166,0.217-1.6,0.65s-0.65,0.967-0.65,1.6c0,0.634,0.217,1.167,0.65,1.601c0.434,0.433,0.967,0.649,1.6,0.649
						c0.634,0,1.167-0.217,1.601-0.649c0.433-0.434,0.649-0.967,0.649-1.601C462.55,220.917,462.333,220.384,461.9,219.95z
						 M456.1,217.35c1.167-1.166,2.567-1.75,4.2-1.75c1.667,0,3.067,0.584,4.2,1.75c1.167,1.167,1.75,2.567,1.75,4.2
						c0,1.667-0.583,3.066-1.75,4.2c-1.133,1.167-2.533,1.75-4.2,1.75c-1.633,0-3.033-0.583-4.2-1.75
						c-1.166-1.134-1.75-2.533-1.75-4.2C454.35,219.917,454.934,218.517,456.1,217.35z"/>
				</g>
			</g>
			<rect x="152.3" y="122.1" fill-rule="evenodd" clip-rule="evenodd" fill="#93A4AC" width="103.55" height="116.3"/>
			<rect x="194.85" y="139.65" fill-rule="evenodd" clip-rule="evenodd" fill="#2A3239" width="51.4" height="39"/>
			<rect x="198.2" y="142.5" fill-rule="evenodd" clip-rule="evenodd" fill="#BBC4CB" width="44.65" height="31.05"/>
			<rect x="124.2" y="197.7" fill-rule="evenodd" clip-rule="evenodd" fill="#93A4AC" width="31.4" height="23.25"/>
			<rect x="158.25" y="143.85" fill-rule="evenodd" clip-rule="evenodd" fill="#F9F9F9" width="12.05" height="3.9"/>
			<rect x="158.25" y="137.85" fill-rule="evenodd" clip-rule="evenodd" fill="#F9F9F9" width="12.05" height="3.95"/>
			<rect x="157.65" y="152.55" fill-rule="evenodd" clip-rule="evenodd" fill="#F9F9F9" width="7.1" height="3.6"/>
			<rect x="165.9" y="152.55" fill-rule="evenodd" clip-rule="evenodd" fill="#F9F9F9" width="7.1" height="3.6"/>
			<rect x="174.15" y="152.55" fill-rule="evenodd" clip-rule="evenodd" fill="#F9F9F9" width="7.1" height="3.6"/>
			<rect x="182.35" y="152.55" fill-rule="evenodd" clip-rule="evenodd" fill="#F9F9F9" width="7.1" height="3.6"/>
			<rect x="157.65" y="157.35" fill-rule="evenodd" clip-rule="evenodd" fill="#F9F9F9" width="7.1" height="3.6"/>
			<rect x="165.9" y="157.35" fill-rule="evenodd" clip-rule="evenodd" fill="#F9F9F9" width="7.1" height="3.6"/>
			<rect x="174.15" y="157.35" fill-rule="evenodd" clip-rule="evenodd" fill="#F9F9F9" width="7.1" height="3.6"/>
			<rect x="182.35" y="157.35" fill-rule="evenodd" clip-rule="evenodd" fill="#F9F9F9" width="7.1" height="3.6"/>
			<rect x="157.65" y="162.1" fill-rule="evenodd" clip-rule="evenodd" fill="#F9F9F9" width="7.1" height="3.65"/>
			<rect x="165.9" y="162.1" fill-rule="evenodd" clip-rule="evenodd" fill="#F9F9F9" width="7.1" height="3.65"/>
			<rect x="174.15" y="162.1" fill-rule="evenodd" clip-rule="evenodd" fill="#F9F9F9" width="7.1" height="3.65"/>
			<rect x="182.35" y="162.1" fill-rule="evenodd" clip-rule="evenodd" fill="#F9F9F9" width="7.1" height="3.65"/>
			<path fill-rule="evenodd" clip-rule="evenodd" fill="#F9F9F9" d="M188.95,145.6c-2.133-0.967-4.35-1.45-6.65-1.45
				c-2.333,0-4.566,0.483-6.7,1.45l-1.1-5.5c2.434-1.333,5.033-2,7.8-2c2.733,0,5.317,0.667,7.75,2L188.95,145.6z"/>
			<polygon fill-rule="evenodd" clip-rule="evenodd" fill="#93A4AC" points="250.95,240 250.95,197.7 284,197.7 314,228.85 314,240 
							"/>
			<rect x="152.3" y="197.7" fill-rule="evenodd" clip-rule="evenodd" fill="#647C8A" width="103.55" height="47.399"/>
			<polygon fill-rule="evenodd" clip-rule="evenodd" fill="#FF5721" points="183,143.85 181.25,143.85 182.1,138.6 			"/>
			
				<use xlink:href="#flash0.ai_x5F_6_x2F_Layer_1_x2F__x3C_Group_x3E__x5F_5"  width="25.95" height="31.05" y="-31.05" transform="matrix(1 0 0 -1 216.8999 142.5)" overflow="visible" enable-background="new    "/>
			<path fill-rule="evenodd" clip-rule="evenodd" fill="#647C8A" d="M403.85,92.9h10.9c4.167,0,7.733,1.483,10.7,4.45
				s4.45,6.533,4.45,10.7v5.45h-41.15v-5.45c0-4.167,1.467-7.733,4.4-10.7C396.117,94.383,399.683,92.9,403.85,92.9z"/>
			<path fill-rule="evenodd" clip-rule="evenodd" fill="#93A4AC" d="M392.4,118.5l-18.45,18.45c-0.733,0.733-1.617,1.1-2.65,1.1
				c-1,0-1.883-0.367-2.65-1.1c-0.733-0.733-1.1-1.617-1.1-2.65c0-1.033,0.367-1.917,1.1-2.65l18.45-18.45
				c0.767-0.733,1.65-1.1,2.65-1.1c1.033,0,1.917,0.367,2.65,1.1c0.733,0.733,1.1,1.617,1.1,2.65S393.133,117.767,392.4,118.5z"/>
			<path fill-rule="evenodd" clip-rule="evenodd" fill="#93A4AC" d="M373.65,132.1l12.05,23.15c0.466,0.933,0.55,1.883,0.25,2.85
				c-0.3,1-0.917,1.733-1.85,2.2c-0.733,0.4-3.8-3.6-9.2-12l-7.85-12.75c-0.5-0.9-0.583-1.833-0.25-2.8c0.3-1,0.9-1.75,1.8-2.25
				c0.933-0.467,1.883-0.55,2.85-0.25C372.45,130.583,373.183,131.2,373.65,132.1z"/>
			<path fill-rule="evenodd" clip-rule="evenodd" fill="#93A4AC" d="M431.6,116.2c0,1.133-0.399,2.1-1.199,2.9
				c-0.801,0.8-1.767,1.2-2.9,1.2h-36.35c-1.133,0-2.1-0.4-2.9-1.2c-0.8-0.8-1.2-1.767-1.2-2.9s0.4-2.1,1.2-2.9
				c0.8-0.8,1.767-1.2,2.9-1.2h36.35c1.134,0,2.1,0.4,2.9,1.2C431.2,114.1,431.6,115.067,431.6,116.2z"/>
			<path fill-rule="evenodd" clip-rule="evenodd" fill="#FFFFFF" d="M389.1,119.9c-1.034,0-1.9-0.367-2.6-1.1
				c-0.733-0.7-1.1-1.566-1.1-2.6c0-1.034,0.367-1.9,1.1-2.6c0.7-0.733,1.566-1.1,2.6-1.1c1.033,0,1.9,0.367,2.6,1.1
				c0.733,0.7,1.1,1.566,1.1,2.6c0,1.033-0.367,1.9-1.1,2.6C391,119.533,390.133,119.9,389.1,119.9z"/>
			<g>
				<path fill-rule="evenodd" clip-rule="evenodd" fill="#647C8A" d="M390.85,114.45c-0.5-0.467-1.083-0.7-1.75-0.7
					c-0.667,0-1.25,0.233-1.75,0.7c-0.467,0.5-0.7,1.083-0.7,1.75c0,0.667,0.233,1.25,0.7,1.75c0.5,0.466,1.083,0.7,1.75,0.7
					c0.667,0,1.25-0.233,1.75-0.7c0.466-0.5,0.7-1.083,0.7-1.75C391.55,115.533,391.316,114.95,390.85,114.45z M389.1,111.25
					c1.367,0,2.533,0.483,3.5,1.45c0.966,0.966,1.45,2.133,1.45,3.5s-0.483,2.533-1.45,3.5c-0.967,0.966-2.133,1.45-3.5,1.45
					c-1.333,0-2.5-0.483-3.5-1.45c-0.967-0.967-1.45-2.133-1.45-3.5c0-1.333,0.483-2.5,1.45-3.5
					C386.6,111.733,387.767,111.25,389.1,111.25z"/>
			</g>
			<path fill-rule="evenodd" clip-rule="evenodd" fill="#93A4AC" d="M450.3,135.25c0,1.033-0.366,1.917-1.1,2.65
				s-1.617,1.1-2.65,1.1c-1,0-1.883-0.367-2.649-1.1l-18.45-18.45c-0.733-0.733-1.101-1.617-1.101-2.65
				c0-1.033,0.367-1.917,1.101-2.65c0.767-0.733,1.649-1.1,2.649-1.1c1.034,0,1.917,0.367,2.65,1.1l18.45,18.45
				C449.934,133.333,450.3,134.217,450.3,135.25z"/>
			<path fill-rule="evenodd" clip-rule="evenodd" fill="#93A4AC" d="M447,132.65c1-0.2,1.934-0.017,2.8,0.55
				c0.867,0.566,1.417,1.35,1.65,2.35c0.2,1,0.017,1.934-0.55,2.8c-2.934,4.033-5.934,8.017-9,11.95
				c-6.134,7.867-9.567,11.567-10.301,11.1c-0.866-0.533-1.416-1.316-1.649-2.35c-0.2-1-0.017-1.933,0.55-2.8l14.15-21.95
				C445.217,133.433,446,132.883,447,132.65z"/>
			<path fill-rule="evenodd" clip-rule="evenodd" fill="#FFFFFF" d="M428.75,120.85c-1,0-1.85-0.367-2.55-1.1
				c-0.733-0.7-1.101-1.567-1.101-2.6c0-1,0.367-1.867,1.101-2.6c0.7-0.733,1.55-1.1,2.55-1.1c1.033,0,1.9,0.367,2.6,1.1
				c0.733,0.733,1.101,1.6,1.101,2.6c0,1.033-0.367,1.9-1.101,2.6C430.65,120.483,429.783,120.85,428.75,120.85z"/>
			<g>
				<path fill-rule="evenodd" clip-rule="evenodd" fill="#647C8A" d="M427,115.4c-0.467,0.5-0.7,1.083-0.7,1.75
					c0,0.667,0.233,1.25,0.7,1.75c0.5,0.467,1.083,0.7,1.75,0.7c0.7,0,1.3-0.233,1.8-0.7c0.467-0.5,0.7-1.083,0.7-1.75
					c0-0.667-0.233-1.25-0.7-1.75c-0.5-0.467-1.1-0.7-1.8-0.7C428.083,114.7,427.5,114.933,427,115.4z M428.75,112.25
					c1.366,0,2.533,0.483,3.5,1.45c0.967,0.933,1.45,2.083,1.45,3.45s-0.483,2.533-1.45,3.5s-2.134,1.45-3.5,1.45
					s-2.517-0.483-3.45-1.45c-0.967-0.967-1.45-2.133-1.45-3.5c0-1.333,0.483-2.483,1.45-3.45
					C426.267,112.733,427.417,112.25,428.75,112.25z"/>
			</g>
			<path fill-rule="evenodd" clip-rule="evenodd" fill="#FFFFFF" d="M447,140.25c-1.033,0-1.9-0.367-2.6-1.1
				c-0.733-0.7-1.101-1.566-1.101-2.6c0-1.033,0.367-1.9,1.101-2.6c0.699-0.733,1.566-1.1,2.6-1.1s1.9,0.367,2.6,1.1
				c0.733,0.7,1.101,1.566,1.101,2.6c0,1.034-0.367,1.9-1.101,2.6C448.9,139.883,448.033,140.25,447,140.25z"/>
			<g>
				<path fill-rule="evenodd" clip-rule="evenodd" fill="#647C8A" d="M449.45,136.55c0-0.667-0.233-1.25-0.7-1.75
					c-0.5-0.466-1.083-0.7-1.75-0.7s-1.25,0.233-1.75,0.7c-0.467,0.5-0.7,1.083-0.7,1.75c0,0.667,0.233,1.25,0.7,1.75
					c0.5,0.467,1.083,0.7,1.75,0.7s1.25-0.233,1.75-0.7C449.217,137.8,449.45,137.217,449.45,136.55z M447,131.6
					c1.366,0,2.533,0.483,3.5,1.45c0.967,0.967,1.45,2.133,1.45,3.5s-0.483,2.517-1.45,3.45c-0.967,0.967-2.134,1.45-3.5,1.45
					s-2.533-0.483-3.5-1.45s-1.45-2.117-1.45-3.45c0-1.367,0.483-2.533,1.45-3.5C444.467,132.083,445.634,131.6,447,131.6z"/>
			</g>
			<path fill-rule="evenodd" clip-rule="evenodd" fill="#FFFFFF" d="M375.15,133.8c0,1.034-0.367,1.9-1.1,2.6
				c-0.733,0.733-1.6,1.1-2.6,1.1c-1.034,0-1.9-0.367-2.6-1.1c-0.733-0.7-1.1-1.566-1.1-2.6c0-1.033,0.367-1.9,1.1-2.6
				c0.7-0.733,1.566-1.1,2.6-1.1c1,0,1.866,0.367,2.6,1.1C374.783,131.9,375.15,132.767,375.15,133.8z"/>
			<g>
				<path fill-rule="evenodd" clip-rule="evenodd" fill="#647C8A" d="M371.45,128.85c1.366,0,2.517,0.483,3.45,1.45
					c0.967,0.967,1.45,2.133,1.45,3.5s-0.483,2.534-1.45,3.5c-0.967,0.967-2.117,1.45-3.45,1.45c-1.367,0-2.534-0.483-3.5-1.45
					c-0.967-0.966-1.45-2.133-1.45-3.5s0.483-2.533,1.45-3.5C368.917,129.333,370.083,128.85,371.45,128.85z M371.45,131.35
					c-0.667,0-1.25,0.233-1.75,0.7c-0.467,0.5-0.7,1.083-0.7,1.75c0,0.667,0.233,1.25,0.7,1.75c0.5,0.467,1.083,0.7,1.75,0.7
					c0.667,0,1.25-0.233,1.75-0.7c0.466-0.5,0.7-1.083,0.7-1.75c0-0.667-0.233-1.25-0.7-1.75
					C372.7,131.583,372.117,131.35,371.45,131.35z"/>
			</g>
			<path fill-rule="evenodd" clip-rule="evenodd" fill="#647C8A" d="M419.1,9.1c0,0.967-0.333,1.767-1,2.4
				c-0.633,0.667-1.434,1-2.4,1h-13.15c-0.933,0-1.733-0.333-2.4-1c-0.667-0.633-1-1.433-1-2.4V-3.8c0-0.934,0.333-1.733,1-2.4
				c0.667-0.667,1.467-1,2.4-1h13.15c0.966,0,1.767,0.333,2.4,1c0.667,0.667,1,1.467,1,2.4V9.1z"/>
			<rect x="403.85" y="11" fill-rule="evenodd" clip-rule="evenodd" fill="#FFFFFF" width="10.55" height="76.15"/>
			<g>
				<g>
					<path fill-rule="evenodd" clip-rule="evenodd" fill="#647C8A" d="M414.4,7.6v1.7h-10.55V7.6H414.4z M414.4,16.1h-10.55v-1.7
						h10.55V16.1z M414.4,19.5h-10.55v-1.7h10.55V19.5z M414.4,12.7h-10.55V11h10.55V12.7z M403.85,31.4h10.55v1.7h-10.55V31.4z
						 M403.85,28h10.55v1.7h-10.55V28z M403.85,24.6h10.55v1.7h-10.55V24.6z M414.4,34.8v1.7h-10.55v-1.7H414.4z M414.4,22.9h-10.55
						v-1.7h10.55V22.9z M414.4,46.7h-10.55V45h10.55V46.7z M414.4,43.3h-10.55v-1.7h10.55V43.3z M414.4,39.9h-10.55v-1.7h10.55V39.9
						z M403.85,55.2h10.55v1.7h-10.55V55.2z M403.85,51.8h10.55v1.7h-10.55V51.8z M403.85,48.4h10.55v1.7h-10.55V48.4z M414.4,58.6
						v1.7h-10.55v-1.7H414.4z M414.4,67.1h-10.55v-1.7h10.55V67.1z M414.4,70.5h-10.55v-1.7h10.55V70.5z M414.4,63.7h-10.55V62
						h10.55V63.7z M403.85,72.2h10.55v1h-10.55V72.2z"/>
				</g>
				<g>
					<rect x="404.05" y="82.05" fill-rule="evenodd" clip-rule="evenodd" fill="#647C8A" width="10.55" height="1.7"/>
					<rect x="404.05" y="85.45" fill-rule="evenodd" clip-rule="evenodd" fill="#647C8A" width="10.55" height="1.7"/>
					<rect x="404.05" y="88.85" fill-rule="evenodd" clip-rule="evenodd" fill="#647C8A" width="10.55" height="1.05"/>
					<rect x="404.05" y="78.65" fill-rule="evenodd" clip-rule="evenodd" fill="#647C8A" width="10.55" height="1.7"/>
					<rect x="404.05" y="75.25" fill-rule="evenodd" clip-rule="evenodd" fill="#647C8A" width="10.55" height="1.7"/>
					<rect x="404.05" y="71.85" fill-rule="evenodd" clip-rule="evenodd" fill="#647C8A" width="10.55" height="1.7"/>
				</g>
			</g>
			<path fill-rule="evenodd" clip-rule="evenodd" fill="#93A4AC" d="M416.25,84.8v15.1c0,2.133-0.684,3.95-2.05,5.45
				c-1.333,1.5-2.967,2.25-4.9,2.25c-1.9,0-3.517-0.75-4.85-2.25c-1.367-1.5-2.05-3.317-2.05-5.45V84.8H416.25z"/>
			<path fill-rule="evenodd" clip-rule="evenodd" fill="#EEEEEE" d="M412.45,99.95c0,0.867-0.3,1.6-0.9,2.2
				c-0.633,0.6-1.383,0.9-2.25,0.9c-0.833,0-1.566-0.3-2.2-0.9c-0.6-0.6-0.9-1.333-0.9-2.2s0.3-1.617,0.9-2.25
				c0.6-0.6,1.333-0.9,2.2-0.9s1.617,0.3,2.25,0.9C412.15,98.333,412.45,99.083,412.45,99.95z"/>
			<path fill-rule="evenodd" clip-rule="evenodd" fill="#EEEEEE" d="M415.55,2.65c0,1.767-0.633,3.283-1.9,4.55
				c-1.267,1.233-2.783,1.85-4.55,1.85s-3.284-0.617-4.55-1.85c-1.233-1.267-1.85-2.784-1.85-4.55s0.616-3.283,1.85-4.55
				c1.267-1.267,2.784-1.9,4.55-1.9s3.283,0.633,4.55,1.9S415.55,0.883,415.55,2.65z"/>
			<rect x="261.25" y="53" fill-rule="evenodd" clip-rule="evenodd" fill="#EEEEEE" width="24.7" height="8.65"/>
			<rect x="288.8" y="53" fill-rule="evenodd" clip-rule="evenodd" fill="#EEEEEE" width="24.7" height="8.65"/>
			<rect x="274.85" y="41.8" fill-rule="evenodd" clip-rule="evenodd" fill="#EEEEEE" width="24.7" height="8.6"/>
		</g>
		<g clip-path="url(#SVGID_2_)">
			<g>
				<g>
					<rect x="265.2" y="103.5" fill-rule="evenodd" clip-rule="evenodd" fill="#6A71BD" width="22.3" height="7.8"/>
					<rect x="252.626" y="113.565" fill-rule="evenodd" clip-rule="evenodd" fill="#ECE6E1" width="22.333" height="7.776"/>
					<rect x="270.776" y="113.565" fill-rule="evenodd" clip-rule="evenodd" fill="#ECE6E1" width="22.333" height="7.776"/>
				</g>
			</g>
		</g>
		<g clip-path="url(#SVGID_2_)">
			<g>
				<rect x="456.3" y="306.2" fill-rule="evenodd" clip-rule="evenodd" fill="#F6921E" width="29.25" height="25.25"/>
				<rect x="483.3" y="116.1" fill-rule="evenodd" clip-rule="evenodd" fill="#F6921E" width="4.45" height="216.15"/>
				<rect x="482.75" y="148.5" fill-rule="evenodd" clip-rule="evenodd" fill="#ECE6E1" width="5.55" height="5.2"/>
				<rect x="482.75" y="116.1" fill-rule="evenodd" clip-rule="evenodd" fill="#ECE6E1" width="5.55" height="22.25"/>
				<polygon fill-rule="evenodd" clip-rule="evenodd" fill="#177D8F" points="513.7,98.4 508.9,116.1 462.15,116.1 457.35,98.4 				
					"/>
				<g>
					
						<line fill-rule="evenodd" clip-rule="evenodd" fill="none" stroke="#1B587A" stroke-width="1.7" stroke-linecap="round" x1="464.85" y1="116.1" x2="460.4" y2="100.2"/>
					
						<line fill-rule="evenodd" clip-rule="evenodd" fill="none" stroke="#1B587A" stroke-width="1.7" stroke-linecap="round" x1="468.6" y1="116.1" x2="465" y2="100.2"/>
					
						<line fill-rule="evenodd" clip-rule="evenodd" fill="none" stroke="#1B587A" stroke-width="1.7" stroke-linecap="round" x1="472.35" y1="116.1" x2="469.55" y2="100.2"/>
					
						<line fill-rule="evenodd" clip-rule="evenodd" fill="none" stroke="#1B587A" stroke-width="1.7" stroke-linecap="round" x1="476.15" y1="116.1" x2="474.1" y2="100.2"/>
					
						<line fill-rule="evenodd" clip-rule="evenodd" fill="none" stroke="#1B587A" stroke-width="1.7" stroke-linecap="round" x1="479.9" y1="116.1" x2="478.7" y2="100.2"/>
					
						<line fill-rule="evenodd" clip-rule="evenodd" fill="none" stroke="#1B587A" stroke-width="1.7" stroke-linecap="round" x1="483.65" y1="116.1" x2="483.25" y2="100.2"/>
					
						<line fill-rule="evenodd" clip-rule="evenodd" fill="none" stroke="#1B587A" stroke-width="1.7" stroke-linecap="round" x1="487.4" y1="116.1" x2="487.8" y2="100.2"/>
					
						<line fill-rule="evenodd" clip-rule="evenodd" fill="none" stroke="#1B587A" stroke-width="1.7" stroke-linecap="round" x1="491.15" y1="116.1" x2="492.4" y2="100.2"/>
					
						<line fill-rule="evenodd" clip-rule="evenodd" fill="none" stroke="#1B587A" stroke-width="1.7" stroke-linecap="round" x1="494.95" y1="116.1" x2="496.95" y2="100.2"/>
					
						<line fill-rule="evenodd" clip-rule="evenodd" fill="none" stroke="#1B587A" stroke-width="1.7" stroke-linecap="round" x1="498.7" y1="116.1" x2="501.5" y2="100.2"/>
					
						<line fill-rule="evenodd" clip-rule="evenodd" fill="none" stroke="#1B587A" stroke-width="1.7" stroke-linecap="round" x1="502.45" y1="116.1" x2="506.1" y2="100.2"/>
					
						<line fill-rule="evenodd" clip-rule="evenodd" fill="none" stroke="#1B587A" stroke-width="1.7" stroke-linecap="round" x1="506.2" y1="116.1" x2="510.65" y2="100.2"/>
				</g>
				
					<line fill-rule="evenodd" clip-rule="evenodd" fill="none" stroke="#ECE6E1" stroke-width="1.7" stroke-linecap="round" x1="462.15" y1="116.1" x2="508.9" y2="116.1"/>
				<g>
					<path fill-rule="evenodd" clip-rule="evenodd" fill="#D8D0BC" d="M460.65,133.3l73.6,179.15l-3.7,1.5l-73.6-179.1
						c-0.2-0.533-0.184-1.05,0.05-1.55c0.2-0.5,0.55-0.867,1.05-1.1c0.533-0.2,1.05-0.184,1.55,0.05
						C460.1,132.45,460.45,132.8,460.65,133.3z"/>
					<polygon fill-rule="evenodd" clip-rule="evenodd" fill="#ECE6E1" points="515.05,264.4 510.4,266.3 508.6,261.95 513.25,260 
											"/>
				</g>
				<rect x="454.6" y="236.35" fill-rule="evenodd" clip-rule="evenodd" fill="#000003" width="7.7" height="99.7"/>
				<rect x="458.45" y="255.5" fill-rule="evenodd" clip-rule="evenodd" fill="#CC4025" width="27.1" height="24.45"/>
				
					<rect x="461.15" y="258.85" fill-rule="evenodd" clip-rule="evenodd" fill="none" stroke="#ECE6E1" stroke-width="1.95" stroke-miterlimit="10" width="21.699" height="23.9"/>
				<g>
					<path fill-rule="evenodd" clip-rule="evenodd" fill="#ECE6E1" d="M477,279.95h-21.55c-0.5,0-0.934-0.184-1.3-0.55
						c-0.367-0.334-0.551-0.767-0.551-1.301v-2.649c0-0.5,0.184-0.917,0.551-1.25c0.366-0.367,0.8-0.55,1.3-0.55H477
						c0.5,0,0.934,0.183,1.3,0.55c0.367,0.333,0.55,0.75,0.55,1.25v2.649c0,0.534-0.183,0.967-0.55,1.301
						C477.934,279.767,477.5,279.95,477,279.95z"/>
					
						<line fill-rule="evenodd" clip-rule="evenodd" fill="none" stroke="#D8D0BC" stroke-width="1.7" stroke-linecap="round" stroke-miterlimit="10" x1="456.55" y1="276.8" x2="475.9" y2="276.8"/>
					<g>
						<path fill-rule="evenodd" clip-rule="evenodd" fill="#ECE6E1" d="M477,273.65h-21.55c-0.5,0-0.934-0.184-1.3-0.551
							c-0.367-0.366-0.551-0.8-0.551-1.3v-2.649c0-0.5,0.184-0.934,0.551-1.301c0.366-0.366,0.8-0.55,1.3-0.55H477
							c0.5,0,0.934,0.184,1.3,0.55c0.367,0.367,0.55,0.801,0.55,1.301v2.649c0,0.5-0.183,0.934-0.55,1.3
							C477.934,273.467,477.5,273.65,477,273.65z"/>
						
							<line fill-rule="evenodd" clip-rule="evenodd" fill="none" stroke="#D8D0BC" stroke-width="1.7" stroke-linecap="round" stroke-miterlimit="10" x1="456.55" y1="270.45" x2="475.9" y2="270.45"/>
					</g>
				</g>
				<path fill-rule="evenodd" clip-rule="evenodd" fill="#F6921E" d="M451.6,232.05v88.8c0,1.367-0.483,2.517-1.449,3.45
					c-0.967,0.967-2.134,1.45-3.5,1.45H420.35c-1.333,0-2.483-0.483-3.45-1.45c-0.967-0.934-1.45-2.083-1.45-3.45v-88.8H451.6z"/>
				<path fill-rule="evenodd" clip-rule="evenodd" fill="#FFC230" d="M415.45,232.05h23.05v85.25c0,2.334-0.816,4.316-2.45,5.95
					c-1.633,1.667-3.616,2.5-5.95,2.5h-6.25c-2.333,0-4.316-0.833-5.95-2.5c-1.633-1.634-2.45-3.616-2.45-5.95V232.05z"/>
				<g>
					<rect x="450.6" y="300.3" fill-rule="evenodd" clip-rule="evenodd" fill="#000003" width="23.351" height="31.15"/>
					<rect x="446.3" y="300.3" fill-rule="evenodd" clip-rule="evenodd" fill="#4FB587" width="23.351" height="31.15"/>
					<rect x="449.35" y="303.05" fill-rule="evenodd" clip-rule="evenodd" fill="#4FB587" width="17.4" height="24.851"/>
					
						<rect x="449.35" y="303.05" fill-rule="evenodd" clip-rule="evenodd" fill="none" stroke="#F1F1F2" stroke-width="1.6" width="17.4" height="24.851"/>
					<polygon fill-rule="evenodd" clip-rule="evenodd" fill="#FFC230" points="446.3,314.8 469.65,307.6 469.65,316.15 
						446.3,323.35 					"/>
				</g>
				<polygon fill-rule="evenodd" clip-rule="evenodd" fill="#000003" points="415.45,237 415.45,232.05 451.6,232.05 451.6,240.7 
									"/>
				<polygon fill-rule="evenodd" clip-rule="evenodd" fill="#264575" points="411.3,226 483.1,226 483.1,241.25 411.3,233.65 				
					"/>
				<polygon fill-rule="evenodd" clip-rule="evenodd" fill="#264575" points="483.1,290.2 450.45,286.7 450.45,279.95 483.1,279.95 
									"/>
				<g>
					<path fill-rule="evenodd" clip-rule="evenodd" fill="#1A171C" d="M541.55,345.85h6.55v6.5c0,1.834-0.633,3.384-1.899,4.65
						c-1.3,1.267-2.851,1.9-4.65,1.9s-3.333-0.634-4.6-1.9c-1.3-1.267-1.95-2.816-1.95-4.65c0-1.8,0.65-3.333,1.95-4.6
						C538.217,346.483,539.75,345.85,541.55,345.85z"/>
					<path fill-rule="evenodd" clip-rule="evenodd" fill="#363636" d="M545.3,352.35c0,1.067-0.366,1.967-1.1,2.7
						s-1.617,1.101-2.65,1.101s-1.934-0.367-2.7-1.101c-0.733-0.733-1.1-1.633-1.1-2.7c0-1.033,0.366-1.916,1.1-2.649
						c0.767-0.733,1.667-1.101,2.7-1.101s1.917,0.367,2.65,1.101S545.3,351.316,545.3,352.35z"/>
				</g>
				<rect x="541.55" y="342.85" fill-rule="evenodd" clip-rule="evenodd" fill="#363636" width="6.55" height="3"/>
				<g>
					<g>
						<path fill-rule="evenodd" clip-rule="evenodd" fill="#1A171C" d="M514.35,324.1h3.801v3.801c0,1.066-0.367,1.966-1.101,2.699
							s-1.633,1.101-2.7,1.101c-1.033,0-1.933-0.367-2.699-1.101c-0.733-0.733-1.101-1.633-1.101-2.699
							c0-1.034,0.367-1.934,1.101-2.7C512.417,324.467,513.316,324.1,514.35,324.1z"/>
					</g>
					<path fill-rule="evenodd" clip-rule="evenodd" fill="none" stroke="#36364A" stroke-width="1.7" stroke-linecap="round" d="
						M548.8,285.7l5,4.95c1.767,1.8,2.65,3.949,2.65,6.449c0,2.534-0.884,4.684-2.65,6.45"/>
					<polygon fill-rule="evenodd" clip-rule="evenodd" fill="#FFC230" points="500.6,278.25 552.5,278.25 551.05,327.55 
						502.05,327.55 					"/>
					<g>
						<path fill-rule="evenodd" clip-rule="evenodd" fill="#1A171C" d="M547.3,324.1h3.8v3.801c0,1.066-0.366,1.966-1.1,2.699
							s-1.634,1.101-2.7,1.101c-1.033,0-1.934-0.367-2.7-1.101c-0.733-0.733-1.1-1.633-1.1-2.699c0-1.034,0.366-1.934,1.1-2.7
							C545.366,324.467,546.267,324.1,547.3,324.1z"/>
					</g>
					<g>
						<path fill-rule="evenodd" clip-rule="evenodd" fill="#1A171C" d="M534.3,324.1h3.75v3.801c0,1.033-0.366,1.933-1.1,2.699
							c-0.733,0.733-1.617,1.101-2.65,1.101s-1.934-0.367-2.7-1.101c-0.733-0.733-1.1-1.633-1.1-2.699c0-1.034,0.366-1.934,1.1-2.7
							C532.366,324.467,533.267,324.1,534.3,324.1z"/>
						<path fill-rule="evenodd" clip-rule="evenodd" fill="#363636" d="M536.45,327.9c0,0.6-0.2,1.116-0.601,1.55
							c-0.433,0.434-0.949,0.649-1.55,0.649c-0.633,0-1.149-0.216-1.55-0.649c-0.434-0.434-0.65-0.95-0.65-1.55
							c0-0.601,0.217-1.117,0.65-1.551c0.4-0.433,0.917-0.649,1.55-0.649c0.601,0,1.117,0.217,1.55,0.649
							C536.25,326.783,536.45,327.3,536.45,327.9z"/>
					</g>
					<g>
						<path fill-rule="evenodd" clip-rule="evenodd" fill="#1A171C" d="M501.55,324.1h3.8v3.801c0,1.066-0.366,1.966-1.1,2.699
							s-1.634,1.101-2.7,1.101c-1.033,0-1.934-0.367-2.7-1.101c-0.733-0.733-1.1-1.633-1.1-2.699c0-1.034,0.366-1.934,1.1-2.7
							C499.616,324.467,500.517,324.1,501.55,324.1z"/>
						<path fill-rule="evenodd" clip-rule="evenodd" fill="#363636" d="M503.75,327.9c0,0.6-0.217,1.116-0.65,1.55
							c-0.433,0.434-0.949,0.649-1.55,0.649c-0.6,0-1.116-0.216-1.55-0.649s-0.65-0.95-0.65-1.55c0-0.601,0.217-1.117,0.65-1.551
							c0.434-0.433,0.95-0.649,1.55-0.649c0.601,0,1.117,0.217,1.55,0.649C503.533,326.783,503.75,327.3,503.75,327.9z"/>
					</g>
					<polygon fill-rule="evenodd" clip-rule="evenodd" fill="#F6921E" points="552.5,278.25 551.05,327.55 538.05,327.55 
						538.05,278.25 					"/>
					<rect x="498.75" y="278.25" fill-rule="evenodd" clip-rule="evenodd" fill="#FFC230" width="55.65" height="3.75"/>
					<rect x="500.6" y="282" fill-rule="evenodd" clip-rule="evenodd" fill="#000003" width="51.9" height="1.55"/>
					<rect x="515.35" y="278.25" fill-rule="evenodd" clip-rule="evenodd" fill="#F6921E" width="7.75" height="8.2"/>
					<path fill-rule="evenodd" clip-rule="evenodd" fill="none" stroke="#36364A" stroke-width="1.7" stroke-linecap="round" d="
						M553.8,303.55c-1.8,1.767-3.95,2.65-6.45,2.65c-2.533,0-4.683-0.884-6.449-2.65l-22.75-22.75"/>
				</g>
				<path fill-rule="evenodd" clip-rule="evenodd" fill="#264575" d="M445.45,331.45H558.85v5c0,1.934-0.683,3.566-2.05,4.899
					c-1.333,1.367-2.967,2.051-4.899,2.051H445.45V331.45z"/>
				<rect x="481.75" y="226" fill-rule="evenodd" clip-rule="evenodd" fill="#264575" width="12.75" height="116.85"/>
				
					<use xlink:href="#flash0.ai_x5F_8_x2F_Layer_3_x2F__x3C_Group_x3E__x5F_5"  width="128.95" height="108.85" x="0" y="-108.85" transform="matrix(1 0 0 -1 423.5996 229.4502)" overflow="visible" opacity="0.4102" enable-background="new    "/>
				<g>
					<path fill-rule="evenodd" clip-rule="evenodd" fill="#1A171C" d="M458.45,354.35c-3.033,3.034-6.717,4.551-11.05,4.551
						c-4.334,0-8.017-1.517-11.051-4.551c-3.066-3.066-4.6-6.75-4.6-11.05c0-4.333,1.533-8.017,4.6-11.05
						c3.034-3.066,6.717-4.6,11.051-4.6c4.333,0,8.017,1.533,11.05,4.6c3.066,3.033,4.6,6.717,4.6,11.05
						C463.05,347.6,461.517,351.283,458.45,354.35z"/>
					<path fill-rule="evenodd" clip-rule="evenodd" fill="#363636" d="M447.4,354.35c-3.034,0-5.634-1.083-7.801-3.25
						c-2.166-2.133-3.25-4.733-3.25-7.8c0-3.033,1.084-5.633,3.25-7.8c2.167-2.167,4.767-3.25,7.801-3.25
						c3.066,0,5.666,1.083,7.8,3.25c2.166,2.167,3.25,4.767,3.25,7.8c0,3.066-1.084,5.667-3.25,7.8
						C453.066,353.267,450.467,354.35,447.4,354.35z"/>
					<path fill-rule="evenodd" clip-rule="evenodd" fill="#1A171C" d="M442.3,348.4c-1.399-1.434-2.1-3.134-2.1-5.101
						c0-2,0.7-3.7,2.1-5.1c1.4-1.434,3.101-2.15,5.101-2.15s3.699,0.717,5.1,2.15c1.4,1.399,2.1,3.1,2.1,5.1
						c0,1.967-0.699,3.667-2.1,5.101c-1.4,1.399-3.1,2.1-5.1,2.1S443.7,349.8,442.3,348.4z"/>
					<path fill-rule="evenodd" clip-rule="evenodd" fill="#264575" d="M444.35,343.3c0-0.866,0.301-1.6,0.9-2.2
						c0.6-0.6,1.316-0.899,2.15-0.899c0.833,0,1.55,0.3,2.149,0.899c0.601,0.601,0.9,1.334,0.9,2.2c0,0.867-0.3,1.584-0.9,2.15
						c-0.566,0.6-1.283,0.899-2.149,0.899c-0.834,0-1.551-0.3-2.15-0.899C444.65,344.884,444.35,344.167,444.35,343.3z"/>
				</g>
				<g>
					<path fill-rule="evenodd" clip-rule="evenodd" fill="#F6921E" d="M489.5,234.55c0.333,0,0.616,0.117,0.85,0.351
						c0.267,0.267,0.4,0.566,0.4,0.899V267.4c0,0.333-0.134,0.633-0.4,0.899c-0.233,0.233-0.517,0.351-0.85,0.351h-2.75
						c-0.333,0-0.617-0.117-0.85-0.351c-0.233-0.267-0.351-0.566-0.351-0.899V235.8c0-0.333,0.117-0.633,0.351-0.899
						c0.232-0.233,0.517-0.351,0.85-0.351H489.5z"/>
					<path fill-rule="evenodd" clip-rule="evenodd" fill="#FFC230" d="M479.5,250.05h17.25c1.633,0,3.033,0.584,4.2,1.75
						c1.166,1.167,1.75,2.584,1.75,4.25v18.9h-29.15v-18.9c0-1.666,0.583-3.083,1.75-4.25
						C476.467,250.634,477.866,250.05,479.5,250.05z"/>
					<path fill-rule="evenodd" clip-rule="evenodd" fill="#F6921E" d="M479.5,255.2h17.25c1.633,0,3.033,0.583,4.2,1.75
						c1.166,1.166,1.75,2.583,1.75,4.25v13.75h-29.15V261.2c0-1.667,0.583-3.084,1.75-4.25
						C476.467,255.783,477.866,255.2,479.5,255.2z"/>
					
						<line fill-rule="evenodd" clip-rule="evenodd" fill="none" stroke="#FFC230" stroke-width="1.7" stroke-linecap="round" x1="475.9" y1="271.9" x2="500.4" y2="271.9"/>
					<path fill-rule="evenodd" clip-rule="evenodd" fill="#000003" d="M487.05,237.4c0-0.301,0.117-0.551,0.351-0.75
						c0.199-0.2,0.449-0.301,0.75-0.301c0.267,0,0.517,0.101,0.75,0.301c0.199,0.199,0.3,0.449,0.3,0.75c0,0.3-0.101,0.566-0.3,0.8
						c-0.233,0.2-0.483,0.3-0.75,0.3c-0.301,0-0.551-0.1-0.75-0.3C487.167,237.967,487.05,237.7,487.05,237.4z"/>
				</g>
				<g>
					<path fill-rule="evenodd" clip-rule="evenodd" fill="#4FB587" d="M471.3,198.1h5.45V226h-15.3v-11.65
						c0-2.133,0.75-3.933,2.25-5.399c1.467-1.5,3.267-2.25,5.399-2.25h2.2V198.1z"/>
					<path fill-rule="evenodd" clip-rule="evenodd" fill="#ECE6E1" d="M463.15,191.8H474.8c1,0,1.867,0.367,2.601,1.1
						c0.699,0.7,1.05,1.55,1.05,2.55v2.649h-15.3V191.8z"/>
					<path fill-rule="evenodd" clip-rule="evenodd" fill="none" stroke="#DB3333" stroke-width="1.7" stroke-miterlimit="10" d="
						M468.1,198.1c0,1.367-0.483,2.534-1.449,3.5c-0.967,0.967-2.134,1.45-3.5,1.45"/>
					<rect x="474" y="198.1" fill-rule="evenodd" clip-rule="evenodd" fill="#36967A" width="2.75" height="27.9"/>
					<rect x="461.45" y="214.35" fill-rule="evenodd" clip-rule="evenodd" fill="#ECE6E1" width="12.55" height="8.75"/>
					<path fill-rule="evenodd" clip-rule="evenodd" fill="#DB3333" d="M470.8,214.35c0,0.867-0.3,1.601-0.899,2.2
						c-0.601,0.601-1.317,0.9-2.15,0.9s-1.566-0.3-2.2-0.9c-0.6-0.6-0.899-1.333-0.899-2.2c0-0.833,0.3-1.566,0.899-2.199
						c0.634-0.601,1.367-0.9,2.2-0.9s1.55,0.3,2.15,0.9C470.5,212.75,470.8,213.483,470.8,214.35z"/>
					<rect x="471.3" y="198.1" fill-rule="evenodd" clip-rule="evenodd" fill="#000003" width="5.45" height="1.7"/>
				</g>
				<g>
					<path fill-rule="evenodd" clip-rule="evenodd" fill="#ECE6E1" d="M454.15,204.95v-10.3h5.449l1.5,8.2
						c0.967,7.134,1.45,14.851,1.45,23.15H446.6v-13.5L454.15,204.95z"/>
					<path fill-rule="evenodd" clip-rule="evenodd" fill="#D8D0BC" d="M459.6,194.65l1.5,8.2c0.967,7.134,1.45,14.851,1.45,23.15
						h-2.95c0-8.3-0.5-16.017-1.5-23.15l-1.5-8.2H459.6z"/>
					<path fill-rule="evenodd" clip-rule="evenodd" fill="#51A8B7" d="M446,188.35h11.65c1,0,1.866,0.367,2.6,1.1
						c0.7,0.7,1.05,1.566,1.05,2.6v2.6H448L446,188.35z"/>
					<path fill-rule="evenodd" clip-rule="evenodd" fill="none" stroke="#177D8F" stroke-width="1.7" stroke-miterlimit="10" d="
						M450.95,194.65c0,1.367-0.483,2.534-1.45,3.5c-0.967,0.966-2.134,1.449-3.5,1.449"/>
					<path fill-rule="evenodd" clip-rule="evenodd" fill="#4DACB5" d="M446.6,225.55V215.1l15.15-6.449
						c0.267,2.699,0.483,6.083,0.65,10.149L446.6,225.55z"/>
					<polygon fill-rule="evenodd" clip-rule="evenodd" fill="#000003" points="459.6,194.65 459.95,196.4 454.15,196.4 
						454.15,194.65 					"/>
				</g>
				<g>
					<rect x="436.3" y="212.3" fill-rule="evenodd" clip-rule="evenodd" fill="#ECE6E1" width="7.95" height="13.7"/>
					<rect x="438.75" y="214.35" fill-rule="evenodd" clip-rule="evenodd" fill="#4FB587" width="5.5" height="9.601"/>
					<path fill-rule="evenodd" clip-rule="evenodd" fill="#DB3333" d="M437.65,205.05h5.199c0.367,0,0.7,0.134,1,0.4
						c0.267,0.3,0.4,0.633,0.4,1v5.899h-7.95v-5.899c0-0.367,0.134-0.7,0.4-1C436.967,205.184,437.283,205.05,437.65,205.05z"/>
				</g>
				<rect x="481.75" y="274.95" fill-rule="evenodd" clip-rule="evenodd" fill="#000003" width="12.75" height="1.85"/>
			</g>
		</g>
		
			<rect x="-23.2" y="-6.62" clip-path="url(#SVGID_2_)" fill-rule="evenodd" clip-rule="evenodd" fill="#FFFFFF" fill-opacity="0.549" width="674.3" height="415.347"/>
		<g clip-path="url(#SVGID_2_)">
			<path fill-rule="evenodd" clip-rule="evenodd" fill="#F6921E" d="M75.6,222.2v31.6c0,1.467-0.517,2.733-1.55,3.8
				c-1.066,1.034-2.333,1.551-3.8,1.551H62.5c-1.467,0-2.733-0.517-3.8-1.551c-1.034-1.066-1.55-2.333-1.55-3.8v-31.6
				c0-1.467,0.517-2.733,1.55-3.8c1.066-1.034,2.333-1.551,3.8-1.551h7.75c1.467,0,2.733,0.517,3.8,1.551
				C75.083,219.467,75.6,220.733,75.6,222.2z"/>
			<g>
				<path fill-rule="evenodd" clip-rule="evenodd" fill="#FFA685" d="M129.25,175c0.7,1.867,1.267,3.767,1.7,5.7
					c0.6,2.667,0.917,5.466,0.95,8.4c0.033,3.433-0.367,6.683-1.2,9.75c-0.867,3.267-2.184,6.317-3.95,9.15
					c-1.467,2.267-3.35,4.483-5.65,6.65c-1.367,1.199-2.983,2.416-4.85,3.649l-2,1.15c-0.967,0.5-1.95,0.533-2.95,0.1
					s-1.716-1.184-2.15-2.25c-0.433-1.1-0.55-2.149-0.35-3.149c0.233-1,0.717-1.7,1.45-2.101l1.5-0.85
					c1.633-1.101,2.883-2.033,3.75-2.8c1.633-1.567,3.017-3.2,4.15-4.9c1.333-2.134,2.317-4.4,2.95-6.8
					c0.633-2.333,0.933-4.833,0.9-7.5c0-2.333-0.25-4.55-0.75-6.65c-0.3-1.533-0.75-3.066-1.35-4.6l-0.7-1.7l7.7-3.35L129.25,175z"
					/>
				<path fill-rule="evenodd" clip-rule="evenodd" fill="#4DACB5" d="M115.3,153.75c0.267,0.167,1.167,0.8,2.7,1.9
					c2.667,2.167,4.95,4.483,6.85,6.95c2.066,2.667,3.733,5.4,5,8.2c0.033,0.1,0.45,1.067,1.25,2.9l0.4,1.1l-12,4.3l-0.3-0.8
					c-0.434-1.1-0.733-1.8-0.9-2.1c-0.8-1.867-1.983-3.8-3.55-5.8c-1.367-1.767-2.917-3.333-4.65-4.7l-2.4-1.7
					c-0.833-0.433-1.4-1.417-1.7-2.95c-0.233-1.633-0.083-3.2,0.45-4.7c0.667-1.7,1.733-2.883,3.2-3.55c1.533-0.7,3.067-0.6,4.6,0.3
					L115.3,153.75z"/>
				
					<use xlink:href="#flash0.ai_x5F_8_x2F_Layer_3_x2F__x3C_Path_x3E_"  width="12.9" height="9" y="-9" transform="matrix(1 0 0 -1 117.0498 167.3999)" overflow="visible" opacity="0.5508" enable-background="new    "/>
			</g>
			<path fill-rule="evenodd" clip-rule="evenodd" fill="#1B587A" d="M104.45,305.8c0.867,0.934,1.283,2.05,1.25,3.351l-0.4,33.25
				c-0.033,1.3-0.483,2.416-1.35,3.35c-0.867,0.9-1.917,1.35-3.15,1.35c-1.233-0.033-2.267-0.517-3.1-1.449
				c-0.867-0.934-1.3-2.051-1.3-3.351l0.45-33.25c0-1.3,0.45-2.399,1.35-3.3c0.867-0.934,1.917-1.4,3.15-1.4
				C102.583,304.384,103.617,304.866,104.45,305.8z"/>
			<path fill-rule="evenodd" clip-rule="evenodd" fill="#D8D0BC" d="M111.05,223.35L109.6,337.65l-17.35-0.2l1.45-114.3
				c0.033-2.101,0.75-3.884,2.15-5.351s3.066-2.184,5-2.149l3.2,0.05c1.967,0.033,3.633,0.8,5,2.3S111.083,221.283,111.05,223.35z"
				/>
			<polygon fill-rule="evenodd" clip-rule="evenodd" fill="#ECE6E1" points="109.65,332.5 92.3,332.25 92.35,330.35 109.7,330.55 
							"/>
			<polygon fill-rule="evenodd" clip-rule="evenodd" fill="#ECE6E1" points="109.75,326.8 92.4,326.6 92.4,324.65 109.75,324.85 			
				"/>
			<path fill-rule="evenodd" clip-rule="evenodd" fill="#4DACB5" d="M112.7,152.5l-1.55,22.3v47.45H66.2V174.8l-1.55-22.3
				c7.967-2.067,15.983-3.1,24.05-3.1l8.85,0.45C102.85,150.35,107.9,151.233,112.7,152.5z"/>
			<path fill-rule="evenodd" clip-rule="evenodd" fill="#FFA685" d="M80.7,149.8c2.867-0.267,5.533-0.4,8-0.4l9.3,0.5
				c-0.6,1.833-1.683,3.333-3.25,4.5c-1.6,1.167-3.383,1.75-5.35,1.75c-2.033,0-3.85-0.6-5.45-1.8
				C82.383,153.183,81.3,151.667,80.7,149.8z"/>
			<path fill-rule="evenodd" clip-rule="evenodd" fill="#ECE6E1" d="M72.7,150.8l5.55-0.75c3.8,5.133,5.7,10.883,5.7,17.25v8.85
				H79.2v-8.85c0-3.133-0.583-6.133-1.75-9C76.35,155.5,74.767,153,72.7,150.8z"/>
			<path fill-rule="evenodd" clip-rule="evenodd" fill="#D8D0BC" d="M66.2,203.9h44.95v21.75c0,3.767-1.333,6.983-4,9.649
				c-2.667,2.667-5.883,4-9.65,4H79.85c-3.767,0-6.983-1.333-9.65-4c-2.667-2.666-4-5.883-4-9.649V203.9z"/>
			<path fill-rule="evenodd" clip-rule="evenodd" fill="#ECE6E1" d="M77.45,239.1c-3.233-0.566-5.9-2.1-8-4.6
				c-2.167-2.566-3.25-5.517-3.25-8.85V203.9h22.5v21.75c0,3.333-1.067,6.283-3.2,8.85C83.367,237,80.683,238.533,77.45,239.1z"/>
			<g>
				<g>
					<path fill-rule="evenodd" clip-rule="evenodd" fill="#FFA685" d="M88.7,127.85c1.4,0,2.6,0.5,3.6,1.5
						c0.967,0.967,1.45,2.15,1.45,3.55v17L91.7,155l-8.1-5.1v-17c0-1.4,0.5-2.583,1.5-3.55C86.067,128.35,87.267,127.85,88.7,127.85
						z"/>
				</g>
			</g>
			<path fill-rule="evenodd" clip-rule="evenodd" fill="#FFA685" d="M102.4,142.3c-0.367,0.067-3.417,0.067-9.15,0
				c-4.667,0-8.667-1.65-12-4.95c-3.3-3.333-4.95-7.333-4.95-12V106.7h32.85v22.05c-0.233,2.633-0.95,5.133-2.15,7.5
				C105.833,138.583,104.3,140.6,102.4,142.3z"/>
			<g>
				<g>
					<g>
						<path fill-rule="evenodd" clip-rule="evenodd" fill="#FFA685" d="M74.55,119.5h7.4l0.3,9.45h-7.7c-1.3,0-2.4-0.45-3.3-1.35
							c-0.933-0.934-1.4-2.05-1.4-3.35c0-1.333,0.467-2.45,1.4-3.35C72.15,119.967,73.25,119.5,74.55,119.5z"/>
					</g>
				</g>
			</g>
			<path fill-rule="evenodd" clip-rule="evenodd" fill="#0E0F2D" d="M105.25,94.35l2.15,8.1h7.75c-0.167,1.5-0.816,2.767-1.95,3.8
				c-1.167,1.033-2.517,1.55-4.05,1.55H89.9v0.05c-1.133,0-2.117,0.35-2.95,1.05c-0.833,0.733-1.333,1.633-1.5,2.7v5.55
				c-1.133,0-2.117,0.35-2.95,1.05c-0.833,0.733-1.333,1.633-1.5,2.7v2c0,0.767-0.283,1.434-0.85,2c-0.566,0.567-1.233,0.85-2,0.85
				s-1.433-0.283-2-0.85c-0.533-0.566-0.8-1.233-0.8-2v-3.35h-1.9V106.4l0.05-0.1v-2.85l2.6-3.7c1.233-1.667,2.783-2.983,4.65-3.95
				c1.9-0.966,3.933-1.45,6.1-1.45H105.25z"/>
			<g>
				<path fill-rule="evenodd" clip-rule="evenodd" fill="#0E0F2D" d="M104.1,120.65c-0.4,0-0.733-0.133-1-0.4
					c-0.3-0.3-0.45-0.65-0.45-1.05c0-0.4,0.15-0.733,0.45-1c0.267-0.267,0.6-0.4,1-0.4s0.75,0.133,1.05,0.4
					c0.267,0.267,0.4,0.6,0.4,1c0,0.4-0.133,0.75-0.4,1.05C104.85,120.517,104.5,120.65,104.1,120.65z"/>
				<path fill-rule="evenodd" clip-rule="evenodd" fill="#0E0F2D" d="M92.75,120.65c-0.4,0-0.733-0.133-1-0.4
					c-0.3-0.3-0.45-0.65-0.45-1.05c0-0.4,0.15-0.733,0.45-1c0.267-0.267,0.6-0.4,1-0.4s0.733,0.133,1,0.4c0.267,0.267,0.4,0.6,0.4,1
					c0,0.4-0.133,0.75-0.4,1.05C93.483,120.517,93.15,120.65,92.75,120.65z"/>
			</g>
			<path fill-rule="evenodd" clip-rule="evenodd" fill="#F6E8E7" d="M103.9,130.2c0,1.5-0.533,2.783-1.6,3.85
				c-1.066,1.067-2.367,1.6-3.9,1.6c-1.5,0-2.783-0.533-3.85-1.6c-1.066-1.066-1.6-2.35-1.6-3.85H103.9z"/>
			<path fill-rule="evenodd" clip-rule="evenodd" fill="#D8D0BC" d="M113.4,343.5l-0.1,8.7H92.75V344c0-1.2,0.433-2.233,1.3-3.1
				c0.867-0.867,1.9-1.301,3.1-1.301h11.9c0.133,1.101,0.617,2.034,1.45,2.801C111.3,343.134,112.267,343.5,113.4,343.5z"/>
			<path fill-rule="evenodd" clip-rule="evenodd" fill="#ECE6E1" d="M120.15,349.1v3.101H106.5V349.1c0-1.533,0.55-2.85,1.65-3.949
				c1.067-1.101,2.367-1.65,3.9-1.65h2.5c1.567,0,2.883,0.55,3.95,1.65C119.6,346.25,120.15,347.566,120.15,349.1z"/>
			<path fill-rule="evenodd" clip-rule="evenodd" fill="#ECE6E1" d="M96.75,345.2c1.067,1.066,1.6,2.366,1.6,3.899v3.101h-5.6V344
				l0.05-0.5C94.333,343.533,95.65,344.1,96.75,345.2z"/>
			<path fill-rule="evenodd" clip-rule="evenodd" fill="#D8D0BC" d="M101.1,339.9v-1c0-0.7,0.267-1.301,0.8-1.801
				c0.5-0.533,1.1-0.8,1.8-0.8h2.75c0.733,0,1.35,0.267,1.85,0.8c0.5,0.5,0.75,1.101,0.75,1.801v1H101.1z"/>
			<rect x="92.75" y="349.3" fill-rule="evenodd" clip-rule="evenodd" fill="#D8D0BC" width="27.4" height="2.9"/>
			<polygon fill-rule="evenodd" clip-rule="evenodd" fill="#D8D0BC" points="71.5,206.4 79.2,176.15 106,176.15 106,206.4 			"/>
			<path fill-rule="evenodd" clip-rule="evenodd" fill="#1B587A" d="M75.75,305.5c0.833,0.967,1.217,2.1,1.15,3.4
				c-0.667,14.733-1.217,25.783-1.65,33.149c-0.067,1.3-0.567,2.384-1.5,3.25c-0.9,0.867-1.967,1.267-3.2,1.2
				c-1.233-0.066-2.25-0.583-3.05-1.55s-1.167-2.101-1.1-3.4c0.533-9.233,1.067-20.25,1.6-33.05c0.067-1.267,0.55-2.35,1.45-3.25
				c0.933-0.866,2-1.283,3.2-1.25C73.883,304.066,74.917,304.566,75.75,305.5z"/>
			<path fill-rule="evenodd" clip-rule="evenodd" fill="#ECE6E1" d="M83.8,223.4c-1,44.267-2.35,82.3-4.05,114.1l-17.3-0.95
				c1.667-31.7,3-69.533,4-113.5c0.066-2.066,0.8-3.816,2.2-5.25c1.4-1.467,3.083-2.184,5.05-2.149l3.15,0.05
				c1.967,0.066,3.633,0.85,5,2.35S83.867,221.333,83.8,223.4z"/>
			<polygon fill-rule="evenodd" clip-rule="evenodd" fill="#D8D0BC" points="80.05,332.35 62.7,331.45 62.8,329.55 80.15,330.4 			
				"/>
			<polygon fill-rule="evenodd" clip-rule="evenodd" fill="#D8D0BC" points="80.35,326.65 63,325.8 63.1,323.9 80.4,324.7 			"/>
			<path fill-rule="evenodd" clip-rule="evenodd" fill="#ECE6E1" d="M79.2,176.15h9.5v26.35c0,1.366-0.1,2.667-0.3,3.9H71.5
				L79.2,176.15z"/>
			<path fill-rule="evenodd" clip-rule="evenodd" fill="#D8D0BC" d="M67.4,339.6h11.9c0.1,1.101,0.567,2.034,1.4,2.801
				c0.833,0.733,1.816,1.1,2.95,1.1l-0.1,8.7H63V344c0-1.2,0.433-2.233,1.3-3.1C65.133,340.033,66.167,339.6,67.4,339.6z"/>
			<path fill-rule="evenodd" clip-rule="evenodd" fill="#ECE6E1" d="M90.4,349.1v3.101H76.7V349.1c0-1.533,0.55-2.85,1.65-3.949
				c1.1-1.101,2.417-1.65,3.95-1.65h2.5c1.567,0,2.883,0.55,3.95,1.65C89.85,346.25,90.4,347.566,90.4,349.1z"/>
			<path fill-rule="evenodd" clip-rule="evenodd" fill="#ECE6E1" d="M63.05,343.5c1.534,0.033,2.85,0.6,3.95,1.7
				c1.067,1.066,1.6,2.366,1.6,3.899v3.101H63V344L63.05,343.5z"/>
			<path fill-rule="evenodd" clip-rule="evenodd" fill="#D8D0BC" d="M71.35,339.9v-1c0-0.7,0.25-1.301,0.75-1.801
				c0.5-0.533,1.117-0.8,1.85-0.8h2.75c0.7,0,1.316,0.267,1.85,0.8c0.5,0.5,0.75,1.101,0.75,1.801v1H71.35z"/>
			<rect x="63" y="349.3" fill-rule="evenodd" clip-rule="evenodd" fill="#D8D0BC" width="27.4" height="2.9"/>
			<g>
				<path fill-rule="evenodd" clip-rule="evenodd" fill="#363636" d="M83.95,172.7H79.2v3.45h4.75V172.7z M77.8,177.5v-6.15h7.55
					v6.15H77.8z"/>
			</g>
			<path fill-rule="evenodd" clip-rule="evenodd" fill="none" stroke="#000003" stroke-width="1.35" d="M85.5,182.25h18.2v9.6
				c0,2.533-0.883,4.683-2.65,6.45c-1.767,1.767-3.917,2.65-6.45,2.65c-2.5,0-4.633-0.884-6.4-2.65c-1.8-1.767-2.7-3.917-2.7-6.45
				V182.25z"/>
			
				<line fill-rule="evenodd" clip-rule="evenodd" fill="none" stroke="#000003" stroke-width="1.35" x1="89.05" y1="186.25" x2="103.7" y2="186.25"/>
			<path fill-rule="evenodd" clip-rule="evenodd" fill="none" stroke="#000003" stroke-width="1.35" d="M73.15,207.4v7.35
				c0,1.934-0.683,3.566-2.05,4.9c-1.333,1.366-2.967,2.05-4.9,2.05"/>
			
				<line fill-rule="evenodd" clip-rule="evenodd" fill="none" stroke="#000003" stroke-width="1.35" x1="66.2" y1="207.4" x2="111.15" y2="207.4"/>
			
				<line fill-rule="evenodd" clip-rule="evenodd" fill="none" stroke="#ECE6E1" stroke-width="1.35" x1="93.5" y1="242.2" x2="100.8" y2="242.35"/>
			
				<line fill-rule="evenodd" clip-rule="evenodd" fill="none" stroke="#ECE6E1" stroke-width="1.35" x1="93.5" y1="246.95" x2="100.8" y2="247.05"/>
			
				<line fill-rule="evenodd" clip-rule="evenodd" fill="none" stroke="#000003" stroke-width="1.35" stroke-linecap="round" x1="75.3" y1="340.65" x2="79.2" y2="340.65"/>
			
				<line fill-rule="evenodd" clip-rule="evenodd" fill="none" stroke="#000003" stroke-width="1.35" stroke-linecap="round" x1="76.7" y1="342.8" x2="80.6" y2="342.8"/>
			
				<line fill-rule="evenodd" clip-rule="evenodd" fill="none" stroke="#000003" stroke-width="1.35" stroke-linecap="round" x1="105.4" y1="340.65" x2="109.3" y2="340.65"/>
			
				<line fill-rule="evenodd" clip-rule="evenodd" fill="none" stroke="#000003" stroke-width="1.35" stroke-linecap="round" x1="106.8" y1="342.8" x2="110.7" y2="342.8"/>
			<path fill-rule="evenodd" clip-rule="evenodd" fill="#ECE6E1" d="M98.95,149.85c1.833,0.233,3.883,0.566,6.15,1
				c0.6,1.633,0.9,3.217,0.9,4.75V180h-4.8v-24.4C101.2,153.367,100.45,151.45,98.95,149.85z"/>
			<g>
				<path fill-rule="evenodd" clip-rule="evenodd" fill="#363636" d="M99.85,177.5v-6.15h7.5v6.15H99.85z M101.2,172.7v3.45h4.8
					v-3.45H101.2z"/>
			</g>
			<path fill-rule="evenodd" clip-rule="evenodd" fill="#FFA685" d="M114.85,219c-0.367,0.5-0.983,0.934-1.85,1.3
				c-0.9,0.367-1.667,0.5-2.3,0.4l-0.5-0.101c-0.633-0.1-1.4-0.133-2.3-0.1s-1.667,0.116-2.3,0.25l-1.15,0.25
				c-0.6,0.167-1.184,0.05-1.75-0.35c-0.567-0.4-0.934-0.95-1.1-1.65l-0.25-0.8c-0.167-0.7-0.133-1.467,0.1-2.3
				c0.2-0.867,0.517-1.534,0.95-2l2.25-2.4c0.434-0.467,1.05-0.833,1.85-1.1c0.767-0.267,1.467-0.351,2.1-0.25l3.15,0.399
				c1.967,0.367,3.267,1.5,3.9,3.4C116.25,215.816,115.983,217.5,114.85,219z"/>
			<g>
				<polygon fill-rule="evenodd" clip-rule="evenodd" fill="#1A171C" points="75.8,236.25 58.85,264.55 55.45,262.5 72.4,234.25 
									"/>
				<path fill-rule="evenodd" clip-rule="evenodd" fill="#4DACB5" d="M36.5,234.95c-1.133-0.667-1.883-1.384-2.25-2.15
					s-0.35-1.483,0.05-2.149c0.4-0.667,1.017-1.017,1.85-1.051c0.9-0.066,1.9,0.267,3,1L55.7,241.2c1.566,0.967,3.966,0.1,7.2-2.601
					c2.667-2.199,4.65-4.366,5.95-6.5l4.3,2.601L56.2,263l-4.3-2.6c1.3-2.167,2.283-4.934,2.95-8.301c0.833-4.1,0.45-6.633-1.15-7.6
					L36.5,234.95z"/>
			</g>
			<path fill-rule="evenodd" clip-rule="evenodd" fill="#FFA685" d="M51.7,226.6L52,232.9c0.067,1.899-0.233,3.3-0.9,4.199
				l-0.3,0.45c-0.933,1.233-1.583,2.601-1.95,4.101l-0.3,1.149c-0.167,0.601-0.566,1.066-1.2,1.4c-0.6,0.333-1.25,0.416-1.95,0.25
				l-0.8-0.2c-0.7-0.167-1.383-0.533-2.05-1.1c-0.633-0.567-1.066-1.167-1.3-1.801l-1.1-3.1c-0.2-0.634-0.233-1.35-0.1-2.15
				c0.1-0.8,0.35-1.466,0.75-2l1.5-2c0.5-0.699,1.483-3.233,2.95-7.6L51.7,226.6z"/>
			<g>
				<path fill-rule="evenodd" clip-rule="evenodd" fill="#FFA685" d="M61.4,180.75l-0.65,2.05c-0.967,3.3-1.5,5.117-1.6,5.45
					c-1.5,5.2-2.783,10.8-3.85,16.8c-0.867,4.9-1.683,10.617-2.45,17.15c-0.333,3.166-0.583,5.8-0.75,7.899
					c-0.1,1.034-0.583,1.867-1.45,2.5c-0.9,0.667-1.917,0.95-3.05,0.851c-1.167-0.101-2.117-0.55-2.85-1.351
					c-0.767-0.8-1.117-1.716-1.05-2.75l0.8-8.05c0.733-6.3,1.583-12.217,2.55-17.75c1.133-6.3,2.467-12.15,4-17.55
					c0.867-2.867,1.434-4.767,1.7-5.7l0.65-2.15L61.4,180.75z"/>
				<path fill-rule="evenodd" clip-rule="evenodd" fill="#4DACB5" d="M64.05,152.65c1.6-0.4,3.167-0.167,4.7,0.7
					s2.617,2.05,3.25,3.55c0.6,1.533,0.567,2.917-0.1,4.15l-1.7,3.45c-1.3,2.8-2.434,5.4-3.4,7.8c-1.566,3.833-2.95,7.733-4.15,11.7
					l-12.15-3.8c1.267-4.267,2.75-8.483,4.45-12.65c1.733-4.133,2.983-6.966,3.75-8.5l1.85-3.75
					C61.283,153.9,62.45,153.017,64.05,152.65z"/>
				
					<use xlink:href="#flash0.ai_x5F_8_x2F_Layer_3_x2F__x3C_Path_x3E__x5F_0"  width="13.25" height="7.8" y="-7.8" transform="matrix(1 0 0 -1 51.7002 172.75)" overflow="visible" opacity="0.5508" enable-background="new    "/>
			</g>
			<path fill-rule="evenodd" clip-rule="evenodd" fill="#D8D0BC" d="M82.35,102.55c0.767,0.767,1.15,1.717,1.15,2.85
				c0,0.667-0.233,1.233-0.7,1.7c-0.466,0.467-1.033,0.7-1.7,0.7H60.3c-0.667,0-1.233-0.233-1.7-0.7s-0.7-1.033-0.7-1.7
				c0-1.133,0.4-2.083,1.2-2.85c0.767-0.8,1.7-1.2,2.8-1.2h17.6C80.6,101.35,81.55,101.75,82.35,102.55z"/>
			<rect x="91.6" y="104.6" fill-rule="evenodd" clip-rule="evenodd" fill="#D8D0BC" width="15.4" height="3.25"/>
			<path fill-rule="evenodd" clip-rule="evenodd" fill="#ECE6E1" d="M98.45,99.15c-1.767,0-3.284,0.633-4.55,1.9
				c-1.267,1.267-1.9,2.784-1.9,4.55v2.25H73.4v-6.05c0-3.4,1.217-6.3,3.65-8.7c2.4-2.4,5.3-3.6,8.7-3.6H97.1c3.4,0,6.3,1.2,8.7,3.6
				c2.4,2.4,3.6,5.3,3.6,8.7v6.05h-2.85v-2.25c0-1.767-0.617-3.283-1.85-4.55c-1.267-1.267-2.784-1.9-4.55-1.9H98.45z"/>
			
				<line fill-rule="evenodd" clip-rule="evenodd" fill="none" stroke="#000003" stroke-width="1.35" x1="74.1" y1="104.75" x2="90.75" y2="104.75"/>
			<path fill-rule="evenodd" clip-rule="evenodd" fill="#0E0F2D" d="M100.95,99.6l8.5-4.95c0.8,1.8,0.9,3.633,0.3,5.5
				s-1.75,3.283-3.45,4.25L100.95,99.6z"/>
			<path fill-rule="evenodd" clip-rule="evenodd" fill="#FFC230" d="M64.45,216.85h7.7c-0.533,1.434-1.417,2.584-2.65,3.45
				c-1.233,0.867-2.633,1.3-4.2,1.3h-7.65c0.5-1.399,1.367-2.533,2.6-3.399C61.517,217.3,62.917,216.85,64.45,216.85z"/>
		</g>
		<g clip-path="url(#SVGID_2_)">
			<path fill-rule="evenodd" clip-rule="evenodd" fill="#FFFFFF" d="M248.9,121c0-9.133,3.233-16.933,9.7-23.4s14.267-9.7,23.4-9.7
				s16.934,3.233,23.4,9.7c6.467,6.467,9.7,14.267,9.7,23.4s-3.233,16.933-9.7,23.4c-6.466,6.467-14.267,9.7-23.4,9.7
				s-16.933-3.233-23.4-9.7S248.9,130.133,248.9,121z"/>
			
				<path fill-rule="evenodd" clip-rule="evenodd" fill="none" stroke="#444A98" stroke-width="1.05" stroke-linecap="round" stroke-miterlimit="10" d="
				M248.9,121c0-9.133,3.233-16.933,9.7-23.4s14.267-9.7,23.4-9.7s16.934,3.233,23.4,9.7c6.467,6.467,9.7,14.267,9.7,23.4
				s-3.233,16.933-9.7,23.4c-6.466,6.467-14.267,9.7-23.4,9.7s-16.933-3.233-23.4-9.7S248.9,130.133,248.9,121z"/>
			<g>
				<g>
					<path fill-rule="evenodd" clip-rule="evenodd" fill="#4FB587" d="M295.95,111.95h5.45v27.9h-15.3V128.2
						c0-2.134,0.75-3.934,2.25-5.4c1.466-1.5,3.267-2.25,5.4-2.25h2.2V111.95z"/>
					<path fill-rule="evenodd" clip-rule="evenodd" fill="#ECE6E1" d="M287.8,105.65h11.65c1,0,1.866,0.367,2.6,1.1
						c0.7,0.7,1.05,1.55,1.05,2.55v2.65h-15.3V105.65z"/>
					<path fill-rule="evenodd" clip-rule="evenodd" fill="none" stroke="#DB3333" stroke-width="1.7" stroke-miterlimit="10" d="
						M292.75,111.95c0,1.366-0.483,2.533-1.45,3.5c-0.966,0.966-2.133,1.45-3.5,1.45"/>
					<rect x="298.65" y="111.95" fill-rule="evenodd" clip-rule="evenodd" fill="#36967A" width="2.75" height="27.9"/>
					<rect x="286.1" y="128.2" fill-rule="evenodd" clip-rule="evenodd" fill="#ECE6E1" width="12.55" height="8.75"/>
					<path fill-rule="evenodd" clip-rule="evenodd" fill="#DB3333" d="M295.45,128.2c0,0.866-0.3,1.6-0.9,2.2
						c-0.6,0.6-1.316,0.9-2.15,0.9s-1.566-0.3-2.2-0.9c-0.6-0.6-0.9-1.333-0.9-2.2c0-0.833,0.3-1.567,0.9-2.2
						c0.633-0.6,1.366-0.9,2.2-0.9s1.55,0.3,2.15,0.9C295.15,126.6,295.45,127.333,295.45,128.2z"/>
					<rect x="295.95" y="111.95" fill-rule="evenodd" clip-rule="evenodd" fill="#000003" width="5.45" height="1.7"/>
				</g>
				<g>
					<path fill-rule="evenodd" clip-rule="evenodd" fill="#ECE6E1" d="M278.8,118.8v-10.3h5.45l1.5,8.2
						c0.967,7.133,1.45,14.85,1.45,23.15h-15.95v-13.5L278.8,118.8z"/>
					<path fill-rule="evenodd" clip-rule="evenodd" fill="#D8D0BC" d="M284.25,108.5l1.5,8.2c0.967,7.133,1.45,14.85,1.45,23.15
						h-2.95c0-8.3-0.5-16.017-1.5-23.15l-1.5-8.2H284.25z"/>
					<path fill-rule="evenodd" clip-rule="evenodd" fill="#51A8B7" d="M270.65,102.2h11.65c1,0,1.867,0.366,2.6,1.1
						c0.7,0.7,1.05,1.567,1.05,2.6v2.6h-13.3L270.65,102.2z"/>
					<path fill-rule="evenodd" clip-rule="evenodd" fill="none" stroke="#177D8F" stroke-width="1.7" stroke-miterlimit="10" d="
						M275.6,108.5c0,1.367-0.483,2.533-1.45,3.5s-2.133,1.45-3.5,1.45"/>
					<path fill-rule="evenodd" clip-rule="evenodd" fill="#4DACB5" d="M271.25,139.4v-10.45l15.15-6.45
						c0.267,2.7,0.483,6.083,0.65,10.15L271.25,139.4z"/>
					<polygon fill-rule="evenodd" clip-rule="evenodd" fill="#000003" points="284.25,108.5 284.6,110.25 278.8,110.25 278.8,108.5 
											"/>
				</g>
				<g>
					<rect x="260.95" y="126.15" fill-rule="evenodd" clip-rule="evenodd" fill="#ECE6E1" width="7.95" height="13.7"/>
					<rect x="263.4" y="128.2" fill-rule="evenodd" clip-rule="evenodd" fill="#4FB587" width="5.5" height="9.6"/>
					<path fill-rule="evenodd" clip-rule="evenodd" fill="#DB3333" d="M262.3,118.9h5.2c0.367,0,0.7,0.133,1,0.4
						c0.267,0.3,0.4,0.633,0.4,1v5.9h-7.95v-5.9c0-0.367,0.133-0.7,0.4-1C261.617,119.033,261.933,118.9,262.3,118.9z"/>
				</g>
			</g>
		</g>
		<g clip-path="url(#SVGID_2_)">
			<path fill-rule="evenodd" clip-rule="evenodd" fill="#FFFFFF" d="M251.8,342.4c0-9.134,3.233-16.934,9.7-23.4
				s14.267-9.7,23.4-9.7s16.934,3.233,23.4,9.7c6.467,6.467,9.7,14.267,9.7,23.4c0,9.133-3.233,16.933-9.7,23.399
				c-6.466,6.467-14.267,9.7-23.4,9.7s-16.933-3.233-23.4-9.7S251.8,351.533,251.8,342.4z"/>
			
				<path fill-rule="evenodd" clip-rule="evenodd" fill="none" stroke="#444A98" stroke-width="1.05" stroke-linecap="round" stroke-miterlimit="10" d="
				M251.8,342.4c0-9.134,3.233-16.934,9.7-23.4s14.267-9.7,23.4-9.7s16.934,3.233,23.4,9.7c6.467,6.467,9.7,14.267,9.7,23.4
				c0,9.133-3.233,16.933-9.7,23.399c-6.466,6.467-14.267,9.7-23.4,9.7s-16.933-3.233-23.4-9.7S251.8,351.533,251.8,342.4z"/>
			<g>
				<polygon fill-rule="evenodd" clip-rule="evenodd" fill="#444A98" points="310.396,360.456 306.057,344.452 263.786,344.452 
					259.446,360.456 				"/>
				<rect x="282.962" y="324.334" fill-rule="evenodd" clip-rule="evenodd" fill="#ECE6E1" width="5.018" height="20.118"/>
				
					<line fill-rule="evenodd" clip-rule="evenodd" fill="none" stroke="#6A71BD" stroke-width="1.7" stroke-linecap="round" x1="266.777" y1="345.352" x2="262.754" y2="359.729"/>
				
					<line fill-rule="evenodd" clip-rule="evenodd" fill="none" stroke="#6A71BD" stroke-width="1.7" stroke-linecap="round" x1="270.167" y1="345.352" x2="266.913" y2="359.729"/>
				
					<line fill-rule="evenodd" clip-rule="evenodd" fill="none" stroke="#6A71BD" stroke-width="1.7" stroke-linecap="round" x1="273.559" y1="345.352" x2="271.027" y2="359.729"/>
				
					<line fill-rule="evenodd" clip-rule="evenodd" fill="none" stroke="#6A71BD" stroke-width="1.7" stroke-linecap="round" x1="276.995" y1="345.352" x2="275.141" y2="359.729"/>
				
					<line fill-rule="evenodd" clip-rule="evenodd" fill="none" stroke="#6A71BD" stroke-width="1.7" stroke-linecap="round" x1="280.385" y1="345.352" x2="279.3" y2="359.729"/>
				
					<line fill-rule="evenodd" clip-rule="evenodd" fill="none" stroke="#6A71BD" stroke-width="1.7" stroke-linecap="round" x1="283.776" y1="345.352" x2="283.414" y2="359.729"/>
				
					<line fill-rule="evenodd" clip-rule="evenodd" fill="none" stroke="#6A71BD" stroke-width="1.7" stroke-linecap="round" x1="287.167" y1="345.352" x2="287.528" y2="359.729"/>
				
					<line fill-rule="evenodd" clip-rule="evenodd" fill="none" stroke="#6A71BD" stroke-width="1.7" stroke-linecap="round" x1="290.557" y1="345.352" x2="291.688" y2="359.729"/>
				
					<line fill-rule="evenodd" clip-rule="evenodd" fill="none" stroke="#6A71BD" stroke-width="1.7" stroke-linecap="round" x1="293.993" y1="345.352" x2="295.801" y2="359.729"/>
				
					<line fill-rule="evenodd" clip-rule="evenodd" fill="none" stroke="#6A71BD" stroke-width="1.7" stroke-linecap="round" x1="297.383" y1="345.352" x2="299.916" y2="359.729"/>
				
					<line fill-rule="evenodd" clip-rule="evenodd" fill="none" stroke="#6A71BD" stroke-width="1.7" stroke-linecap="round" x1="300.774" y1="345.352" x2="304.074" y2="359.729"/>
				
					<line fill-rule="evenodd" clip-rule="evenodd" fill="none" stroke="#6A71BD" stroke-width="1.7" stroke-linecap="round" x1="304.007" y1="345.345" x2="308.031" y2="359.721"/>
			</g>
		</g>
		<g clip-path="url(#SVGID_2_)">
			<path fill-rule="evenodd" clip-rule="evenodd" fill="#FFFFFF" d="M171.5,342.4c0-9.134,3.233-16.934,9.7-23.4
				c6.466-6.467,14.267-9.7,23.4-9.7s16.933,3.233,23.4,9.7s9.7,14.267,9.7,23.4c0,9.133-3.233,16.933-9.7,23.399
				s-14.267,9.7-23.4,9.7s-16.934-3.233-23.4-9.7C174.733,359.333,171.5,351.533,171.5,342.4z"/>
			
				<path fill-rule="evenodd" clip-rule="evenodd" fill="none" stroke="#444A98" stroke-width="1.05" stroke-linecap="round" stroke-miterlimit="10" d="
				M171.5,342.4c0-9.134,3.233-16.934,9.7-23.4c6.466-6.467,14.267-9.7,23.4-9.7s16.933,3.233,23.4,9.7s9.7,14.267,9.7,23.4
				c0,9.133-3.233,16.933-9.7,23.399s-14.267,9.7-23.4,9.7s-16.934-3.233-23.4-9.7C174.733,359.333,171.5,351.533,171.5,342.4z"/>
			<g>
				<g>
					<path fill-rule="evenodd" clip-rule="evenodd" fill="#1A171C" d="M195.498,356.088h2.712v2.713
						c0,0.761-0.262,1.403-0.785,1.927s-1.166,0.785-1.927,0.785c-0.738,0-1.38-0.262-1.927-0.785
						c-0.523-0.523-0.785-1.166-0.785-1.927c0-0.738,0.262-1.381,0.785-1.928C194.118,356.35,194.76,356.088,195.498,356.088z"/>
				</g>
				<path fill-rule="evenodd" clip-rule="evenodd" fill="none" stroke="#36364A" stroke-width="1.7" stroke-linecap="round" d="
					M220.089,328.678l3.569,3.533c1.261,1.285,1.892,2.819,1.892,4.604c0,1.808-0.63,3.343-1.892,4.604"/>
				<polygon fill-rule="evenodd" clip-rule="evenodd" fill="#FFC230" points="185.683,323.359 222.73,323.359 221.695,358.55 
					186.718,358.55 				"/>
				<g>
					<path fill-rule="evenodd" clip-rule="evenodd" fill="#1A171C" d="M219.018,356.088h2.712v2.713
						c0,0.761-0.262,1.403-0.785,1.927s-1.166,0.785-1.927,0.785c-0.738,0-1.38-0.262-1.928-0.785
						c-0.523-0.523-0.785-1.166-0.785-1.927c0-0.738,0.262-1.381,0.785-1.928C217.638,356.35,218.28,356.088,219.018,356.088z"/>
				</g>
				<g>
					<path fill-rule="evenodd" clip-rule="evenodd" fill="#1A171C" d="M209.738,356.088h2.677v2.713
						c0,0.737-0.262,1.379-0.785,1.927c-0.523,0.523-1.154,0.785-1.892,0.785c-0.737,0-1.38-0.262-1.927-0.785
						c-0.523-0.523-0.785-1.166-0.785-1.927c0-0.738,0.262-1.381,0.785-1.928C208.358,356.35,209.001,356.088,209.738,356.088z"/>
					<path fill-rule="evenodd" clip-rule="evenodd" fill="#363636" d="M211.273,358.801c0,0.428-0.143,0.797-0.428,1.106
						c-0.309,0.309-0.678,0.463-1.106,0.463c-0.452,0-0.821-0.154-1.106-0.463c-0.31-0.31-0.464-0.679-0.464-1.106
						c0-0.429,0.155-0.798,0.464-1.107c0.285-0.309,0.654-0.463,1.106-0.463c0.429,0,0.797,0.154,1.106,0.463
						C211.13,358.003,211.273,358.372,211.273,358.801z"/>
				</g>
				<g>
					<path fill-rule="evenodd" clip-rule="evenodd" fill="#1A171C" d="M186.361,356.088h2.712v2.713
						c0,0.761-0.262,1.403-0.785,1.927s-1.166,0.785-1.927,0.785c-0.737,0-1.38-0.262-1.927-0.785
						c-0.523-0.523-0.785-1.166-0.785-1.927c0-0.738,0.262-1.381,0.785-1.928C184.981,356.35,185.624,356.088,186.361,356.088z"/>
					<path fill-rule="evenodd" clip-rule="evenodd" fill="#363636" d="M187.932,358.801c0,0.428-0.155,0.797-0.464,1.106
						c-0.31,0.309-0.678,0.463-1.106,0.463s-0.797-0.154-1.106-0.463c-0.31-0.31-0.464-0.679-0.464-1.106
						c0-0.429,0.154-0.798,0.464-1.107c0.31-0.309,0.678-0.463,1.106-0.463s0.797,0.154,1.106,0.463
						C187.777,358.003,187.932,358.372,187.932,358.801z"/>
				</g>
				<polygon fill-rule="evenodd" clip-rule="evenodd" fill="#F6921E" points="222.73,323.359 221.695,358.55 212.415,358.55 
					212.415,323.359 				"/>
				<rect x="184.363" y="323.359" fill-rule="evenodd" clip-rule="evenodd" fill="#FFC230" width="39.723" height="2.677"/>
				<rect x="185.683" y="326.036" fill-rule="evenodd" clip-rule="evenodd" fill="#000003" width="37.047" height="1.106"/>
				<rect x="196.212" y="323.359" fill-rule="evenodd" clip-rule="evenodd" fill="#F6921E" width="5.532" height="5.854"/>
				<path fill-rule="evenodd" clip-rule="evenodd" fill="none" stroke="#36364A" stroke-width="1.7" stroke-linecap="round" d="
					M223.658,341.419c-1.285,1.262-2.82,1.892-4.604,1.892c-1.809,0-3.343-0.63-4.604-1.892L198.21,325.18"/>
			</g>
		</g>
		<g clip-path="url(#SVGID_2_)">
			<path fill-rule="evenodd" clip-rule="evenodd" fill="#FFFFFF" d="M318,205.25c0-9.133,3.233-16.933,9.7-23.4
				c6.466-6.467,14.267-9.7,23.4-9.7s16.933,3.233,23.4,9.7s9.7,14.267,9.7,23.4c0,9.134-3.233,16.934-9.7,23.4
				c-6.467,6.466-14.267,9.699-23.4,9.699s-16.934-3.233-23.4-9.699C321.233,222.184,318,214.384,318,205.25z"/>
			
				<path fill-rule="evenodd" clip-rule="evenodd" fill="none" stroke="#444A98" stroke-width="1.05" stroke-linecap="round" stroke-miterlimit="10" d="
				M318,205.25c0-9.133,3.233-16.933,9.7-23.4c6.466-6.467,14.267-9.7,23.4-9.7s16.933,3.233,23.4,9.7s9.7,14.267,9.7,23.4
				c0,9.134-3.233,16.934-9.7,23.4c-6.467,6.466-14.267,9.699-23.4,9.699s-16.934-3.233-23.4-9.699
				C321.233,222.184,318,214.384,318,205.25z"/>
			<g>
				<rect x="341.6" y="189.7" fill-rule="evenodd" clip-rule="evenodd" fill="#000003" width="23.35" height="31.149"/>
				<rect x="337.3" y="189.7" fill-rule="evenodd" clip-rule="evenodd" fill="#4FB587" width="23.35" height="31.149"/>
				<rect x="340.35" y="192.45" fill-rule="evenodd" clip-rule="evenodd" fill="#4FB587" width="17.4" height="24.85"/>
				
					<rect x="340.35" y="192.45" fill-rule="evenodd" clip-rule="evenodd" fill="none" stroke="#F1F1F2" stroke-width="1.6" width="17.4" height="24.85"/>
				<polygon fill-rule="evenodd" clip-rule="evenodd" fill="#FFC230" points="337.3,204.2 360.65,197 360.65,205.55 337.3,212.75 
									"/>
			</g>
		</g>
		<g clip-path="url(#SVGID_2_)">
			<path fill-rule="evenodd" clip-rule="evenodd" fill="#FFFFFF" d="M91.2,342.4c0-9.134,3.233-16.934,9.7-23.4s14.267-9.7,23.4-9.7
				s16.934,3.233,23.4,9.7c6.466,6.467,9.7,14.267,9.7,23.4c0,9.133-3.233,16.933-9.7,23.399c-6.467,6.467-14.267,9.7-23.4,9.7
				s-16.933-3.233-23.4-9.7S91.2,351.533,91.2,342.4z"/>
			
				<path fill-rule="evenodd" clip-rule="evenodd" fill="none" stroke="#444A98" stroke-width="1.05" stroke-linecap="round" stroke-miterlimit="10" d="
				M91.2,342.4c0-9.134,3.233-16.934,9.7-23.4s14.267-9.7,23.4-9.7s16.934,3.233,23.4,9.7c6.466,6.467,9.7,14.267,9.7,23.4
				c0,9.133-3.233,16.933-9.7,23.399c-6.467,6.467-14.267,9.7-23.4,9.7s-16.933-3.233-23.4-9.7S91.2,351.533,91.2,342.4z"/>
			<g>
				<path fill-rule="evenodd" clip-rule="evenodd" fill="#8DB321" d="M125.7,322.2c0.333,0,0.617,0.116,0.85,0.35
					c0.267,0.267,0.4,0.566,0.4,0.9v31.6c0,0.334-0.133,0.634-0.4,0.9c-0.233,0.233-0.517,0.35-0.85,0.35h-2.75
					c-0.333,0-0.617-0.116-0.85-0.35c-0.233-0.267-0.35-0.566-0.35-0.9v-31.6c0-0.334,0.117-0.634,0.35-0.9
					c0.233-0.233,0.517-0.35,0.85-0.35H125.7z"/>
				<path fill-rule="evenodd" clip-rule="evenodd" fill="#9CC424" d="M115.7,337.7h17.25c1.633,0,3.033,0.583,4.2,1.75
					c1.167,1.166,1.75,2.583,1.75,4.25V362.6h-29.15V343.7c0-1.667,0.583-3.084,1.75-4.25
					C112.667,338.283,114.067,337.7,115.7,337.7z"/>
				<path fill-rule="evenodd" clip-rule="evenodd" fill="#8DB321" d="M115.7,342.85h17.25c1.633,0,3.033,0.584,4.2,1.75
					c1.167,1.167,1.75,2.584,1.75,4.25v13.75h-29.15v-13.75c0-1.666,0.583-3.083,1.75-4.25
					C112.667,343.434,114.067,342.85,115.7,342.85z"/>
				
					<line fill-rule="evenodd" clip-rule="evenodd" fill="none" stroke="#9CC424" stroke-width="1.7" stroke-linecap="round" x1="112.1" y1="359.55" x2="136.6" y2="359.55"/>
				<path fill-rule="evenodd" clip-rule="evenodd" fill="#000003" d="M123.25,325.05c0-0.3,0.117-0.55,0.35-0.75
					c0.2-0.2,0.45-0.3,0.75-0.3c0.267,0,0.517,0.1,0.75,0.3c0.2,0.2,0.3,0.45,0.3,0.75s-0.1,0.566-0.3,0.8
					c-0.233,0.2-0.483,0.301-0.75,0.301c-0.3,0-0.55-0.101-0.75-0.301C123.367,325.616,123.25,325.35,123.25,325.05z"/>
			</g>
		</g>
		<g clip-path="url(#SVGID_2_)">
			<path fill-rule="evenodd" clip-rule="evenodd" fill="#FFFFFF" d="M173.55,205.25c0-9.133,3.233-16.933,9.7-23.4
				s14.267-9.7,23.4-9.7s16.934,3.233,23.4,9.7c6.467,6.467,9.7,14.267,9.7,23.4c0,9.134-3.233,16.934-9.7,23.4
				c-6.466,6.466-14.267,9.699-23.4,9.699s-16.933-3.233-23.4-9.699C176.783,222.184,173.55,214.384,173.55,205.25z"/>
			
				<path fill-rule="evenodd" clip-rule="evenodd" fill="none" stroke="#444A98" stroke-width="1.05" stroke-linecap="round" stroke-miterlimit="10" d="
				M173.55,205.25c0-9.133,3.233-16.933,9.7-23.4s14.267-9.7,23.4-9.7s16.934,3.233,23.4,9.7c6.467,6.467,9.7,14.267,9.7,23.4
				c0,9.134-3.233,16.934-9.7,23.4c-6.466,6.466-14.267,9.699-23.4,9.699s-16.933-3.233-23.4-9.699
				C176.783,222.184,173.55,214.384,173.55,205.25z"/>
			<g>
				<polygon fill-rule="evenodd" clip-rule="evenodd" fill="#1A171C" points="227.55,194.45 210.6,222.75 207.2,220.7 
					224.15,192.45 				"/>
				<path fill-rule="evenodd" clip-rule="evenodd" fill="#4DACB5" d="M188.25,193.15c-1.133-0.667-1.883-1.383-2.25-2.15
					s-0.35-1.483,0.05-2.15c0.4-0.667,1.017-1.017,1.85-1.05c0.9-0.066,1.9,0.267,3,1l16.55,10.601c1.566,0.966,3.966,0.1,7.2-2.601
					c2.667-2.2,4.65-4.367,5.95-6.5l4.3,2.6l-16.95,28.3l-4.3-2.601c1.3-2.166,2.284-4.933,2.95-8.3c0.833-4.1,0.45-6.633-1.15-7.6
					L188.25,193.15z"/>
			</g>
		</g>
		
			<path clip-path="url(#SVGID_2_)" fill-rule="evenodd" clip-rule="evenodd" fill="none" stroke="#E8EBE4" stroke-linecap="round" stroke-linejoin="round" stroke-miterlimit="3" d="
			M405.7,203.2c0,55.899-19.784,103.633-59.35,143.2c-39.533,39.566-87.267,59.35-143.2,59.35c-55.9,0-103.633-19.783-143.2-59.35
			c-39.534-39.567-59.3-87.317-59.3-143.25c0-55.9,19.767-103.634,59.3-143.2c39.566-39.534,87.3-59.3,143.2-59.3
			c55.934,0,103.667,19.767,143.2,59.3C385.917,99.517,405.7,147.267,405.7,203.2z"/>
	</g>
</g>
</svg>
