<svg xmlns="http://www.w3.org/2000/svg" xmlns:xlink="http://www.w3.org/1999/xlink" width="1007.5" height="366.609" viewBox="0 0 1007.5 366.609"><symbol id="e" viewBox="-91.67 -63.092 183.339 126.185"><path fill="#E7ECEC" d="M86.157 22.993c-.533-1.3-1.434-2.383-2.699-3.25-.667-.435-1.434-.8-2.301-1.101-2.566-.899-5.516-.667-8.85.698-9.2-4.564-19.883-5.897-32.05-4-5.8 1.103-9.866 1.834-12.2 2.2-3.967.567-6.883.45-8.75-.35-4.934-2.801-9.267-4.218-13-4.25-4.233-.034-7.733 1.683-10.5 5.147-3.967 8.968-5.8 17-5.5 24.103.1 2.1.383 4.115.85 6.05l-.199-.45c-.601-1.732-1.033-3.55-1.301-5.45-1.066-7.467.4-16.016 4.4-25.647l.8-1.801c.733-.899 1.5-1.685 2.3-2.352 2.634-2.134 5.783-3.05 9.45-2.75 3.467.3 7.384 1.7 11.75 4.2 1.866.8 4.784.916 8.75.35 2.333-.365 6.4-1.1 12.2-2.198 12.166-1.899 22.85-.565 32.05 4 3.333-1.366 6.284-1.602 8.851-.699 1.633.6 2.916 1.417 3.85 2.449.5.565.883 1.198 1.15 1.898.266.3.482.685.649 1.15-.167-.468-.384-.853-.649-1.15-.268-.7-.65-1.333-1.15-1.898-.934-1.032-2.217-1.852-3.85-2.449-2.566-.9-5.518-.667-8.851.699-9.2-4.565-19.884-5.899-32.05-4-5.8 1.101-9.867 1.833-12.2 2.198-3.966.566-6.884.45-8.75-.35-4.366-2.5-8.283-3.9-11.75-4.2-3.667-.3-6.816.616-9.45 2.75-.8.667-1.566 1.45-2.3 2.352l-.8 1.801c-4 9.634-5.467 18.183-4.4 25.647.268 1.9.7 3.718 1.301 5.45l.199.45c-.467-1.935-.75-3.95-.85-6.05-.3-7.101 1.533-15.134 5.5-24.101 2.767-3.467 6.267-5.184 10.5-5.147 3.733.032 8.066 1.449 13 4.25 1.867.8 4.783.917 8.75.35 2.334-.366 6.4-1.1 12.2-2.2 12.167-1.897 22.85-.564 32.05 4 3.334-1.365 6.283-1.6 8.85-.698.867.301 1.634.666 2.301 1.101 1.265.865 2.165 1.948 2.699 3.248zm-91.35 33.55c-1.166-1.466-2.133-3.315-2.9-5.55-.3-.9-.55-1.816-.75-2.75.2.934.45 1.85.75 2.75.767 2.234 1.734 4.084 2.9 5.55 3.6 4.602 9.133 5.7 16.6 3.3 14.367 3.667 34 3.667 58.9 0 4.666-1.032 8.133-3.782 10.4-8.25 5.934-16.666 7.75-26.198 5.449-28.6-.033-.8-.133-1.483-.3-2.05 1.8-6.833 2.217-11.269 1.25-13.301 1.2-4.733 1.684-8.233 1.45-10.5-.1-1.167-.4-2-.9-2.5-.8-1.968-2.467-3.417-5-4.352-2.566-.898-5.516-.667-8.85.7-9.2-4.566-19.883-5.9-32.05-4-5.8 1.1-9.866 1.834-12.2 2.2-3.967.564-6.883.449-8.75-.353-10.434-5.934-18.267-5.633-23.5.9-1.2 2.7-2.2 5.315-3 7.85.834-.133 1.633-.198 2.4-.198-.768 0-1.566.065-2.4.198.8-2.532 1.8-5.147 3-7.85 5.233-6.533 13.066-6.834 23.5-.9 1.867.802 4.783.917 8.75.353 2.334-.366 6.4-1.103 12.2-2.2 12.167-1.9 22.85-.566 32.05 4 3.334-1.367 6.283-1.601 8.85-.7 2.533.935 4.2 2.384 5 4.352.5.5.801 1.333.9 2.5 2.8-9.565 3.35-15.233 1.65-17-.066-1.532-.384-2.602-.95-3.199-.333-.801-.784-1.519-1.351-2.15-.934-.898-2.149-1.634-3.649-2.2-2.567-.897-5.517-.666-8.851.7-9.199-4.565-19.883-5.898-32.05-4-5.8 1.102-9.866 1.833-12.2 2.2-3.967.565-6.883.45-8.75-.351-8.899-5.065-15.899-5.602-21-1.602-.899.7-1.732 1.534-2.5 2.5l-.6 1.4c-1.5 3.5-2.65 6.865-3.45 10.1.567.233 1.116.45 1.65.65.866-2.866 1.983-5.853 3.35-8.95 5.233-6.533 13.067-6.834 23.5-.9 1.866.802 4.784.917 8.75.353 2.333-.366 6.4-1.103 12.2-2.2 12.166-1.9 22.85-.566 32.05 4 3.333-1.367 6.284-1.601 8.851-.7 2.533.935 4.199 2.384 5 4.352-.801-1.968-2.467-3.417-5-4.352-2.566-.898-5.518-.667-8.851.7-9.2-4.566-19.884-5.9-32.05-4-5.8 1.1-9.867 1.834-12.2 2.2-3.966.564-6.884.449-8.75-.353-10.433-5.934-18.267-5.633-23.5.9-1.366 3.1-2.483 6.084-3.35 8.95-.534-.2-1.083-.417-1.65-.65.8-3.232 1.95-6.6 3.45-10.1l.6-1.4c.768-.966 1.601-1.8 2.5-2.5 5.101-4 12.101-3.466 21 1.602 1.867.801 4.783.916 8.75.351 2.334-.367 6.4-1.101 12.2-2.2 12.167-1.898 22.851-.565 32.05 4 3.334-1.366 6.283-1.6 8.851-.7 1.5.566 2.716 1.302 3.649 2.2 1.033-5.167.95-8.384-.25-9.648-.8-1.968-2.467-3.417-5-4.352-2.566-.898-5.516-.667-8.85.7-9.2-4.566-19.883-5.9-32.05-4-5.8 1.1-9.866 1.834-12.2 2.2-3.967.564-6.883.449-8.75-.353-10.434-5.934-18.267-5.633-23.5.9-1.467 3.334-2.65 6.517-3.55 9.55-.534-.2-1.067-.417-1.601-.648.768-3.269 1.9-6.699 3.4-10.302l.8-1.8c.733-.898 1.5-1.683 2.3-2.35 5.134-4.135 12.2-3.65 21.2 1.449 1.866.801 4.784.916 8.75.351 2.333-.367 6.4-1.101 12.2-2.2 12.166-1.898 22.85-.565 32.05 4 3.333-1.366 6.284-1.6 8.851-.7 2.399.9 4.033 2.25 4.899 4.052-.866-1.802-2.5-3.149-4.899-4.052-2.566-.897-5.518-.666-8.851.7-9.2-4.565-19.884-5.898-32.05-4-5.8 1.102-9.867 1.833-12.2 2.2-3.966.565-6.884.45-8.75-.351-9-5.102-16.066-5.584-21.2-1.449-.8.667-1.566 1.449-2.3 2.35l-.8 1.8c-1.5 3.603-2.633 7.033-3.4 10.302.533.231 1.066.448 1.601.648.899-3.033 2.083-6.216 3.55-9.55 5.233-6.533 13.066-6.834 23.5-.9 1.867.802 4.783.917 8.75.353 2.334-.366 6.4-1.103 12.2-2.2 12.167-1.9 22.85-.566 32.05 4 3.334-1.367 6.283-1.601 8.85-.7 2.533.935 4.2 2.384 5 4.352-.066-1.532-.383-2.602-.949-3.199l-.101-.301c1.333-5.968 1.351-9.635.05-11-.8-1.968-2.467-3.417-5-4.352-2.566-.898-5.516-.667-8.85.7-9.2-4.566-19.883-5.9-32.05-4-5.8 1.1-9.866 1.834-12.2 2.2-3.967.564-6.883.449-8.75-.353-10.434-5.934-18.267-5.633-23.5.9-1.4 3.166-2.533 6.2-3.4 9.1-.533-.23-1.083-.448-1.649-.647.667-2.603 1.55-5.301 2.649-8.103.268-.766.584-1.55.95-2.35-.366.8-.683 1.584-.95 2.35-1.1 2.802-1.982 5.5-2.649 8.103.566.199 1.116.417 1.649.647.867-2.897 2-5.934 3.4-9.1 5.233-6.533 13.066-6.834 23.5-.9 1.867.802 4.783.917 8.75.353 2.334-.366 6.4-1.103 12.2-2.2 12.167-1.9 22.85-.566 32.05 4 3.334-1.367 6.283-1.601 8.85-.7 2.533.935 4.2 2.384 5 4.352-.066-1.532-.383-2.602-.949-3.199-.801-1.968-2.467-3.417-5-4.353-2.566-.897-5.518-.666-8.851.7-9.2-4.565-19.884-5.898-32.05-4-5.8 1.102-9.867 1.833-12.2 2.2-3.966.565-6.884.45-8.75-.351-10.433-5.935-18.267-5.635-23.5.898l-.5 1.2c-9.2-4.533-19.884-5.851-32.05-3.95-5.8 1.102-9.867 1.833-12.2 2.2-3.966.565-6.884.45-8.75-.351-10.433-5.935-18.267-5.635-23.5.898-4.8 10.8-6.483 20.268-5.05 28.4.133-.866.3-1.75.5-2.65.867-4.3 2.383-8.884 4.55-13.75 5.233-6.533 13.067-6.833 23.5-.898 1.866.801 4.784.916 8.75.351 2.333-.367 6.4-1.101 12.2-2.2 10.6-1.667 20.084-.866 28.45 2.4-8.366-3.269-17.851-4.067-28.45-2.4-5.8 1.102-9.867 1.833-12.2 2.2-3.966.565-6.884.45-8.75-.351-10.433-5.935-18.267-5.635-23.5.898-2.167 4.866-3.683 9.45-4.55 13.75-.2.9-.367 1.784-.5 2.65-.867 5.731-.566 10.966.9 15.699-.531 3.904-.515 7.555.052 10.954-5.601 12.77-6.866 23.667-3.8 32.7l.2.45c.2.899.434 1.767.7 2.6.267-6.333 2.101-13.314 5.5-20.948 5.233-6.532 13.067-6.834 23.5-.899 1.866.8 4.784.916 8.75.35 2.333-.365 6.4-1.1 12.2-2.198 11.066-1.733 20.9-.782 29.5 2.851-8.6-3.633-18.434-4.584-29.5-2.851-5.8 1.101-9.867 1.833-12.2 2.198-3.966.566-6.884.45-8.75-.35-10.433-5.935-18.267-5.633-23.5.899-3.4 7.633-5.234 14.615-5.5 20.948-.2 4.301.333 8.283 1.6 11.95l.2.45c-.766-3.101-1.033-6.4-.8-9.9.366-6.133 2.183-12.883 5.45-20.25 5.233-6.532 13.066-6.833 23.5-.897 1.867.8 4.783.917 8.75.35 2.334-.366 6.4-1.1 12.2-2.2 12.066-1.897 22.667-.615 31.8 3.853-9.133-4.468-19.733-5.75-31.8-3.853-5.8 1.103-9.866 1.834-12.2 2.2-3.967.567-6.883.45-8.75-.35-10.434-5.936-18.267-5.636-23.5.897-3.267 7.367-5.084 14.117-5.45 20.25-.234 3.5.034 6.801.8 9.9.2.934.45 1.85.75 2.75 3.1 9.1 9.6 12.05 19.5 8.85 14.367 3.667 34 3.667 58.9 0 .867-.196 1.7-.464 2.5-.797zm2.35-44c-1.199.2-2.467.567-3.8 1.102l-1-.5c.934-3.5 2.25-7.185 3.95-11.052.434-.532.883-1.032 1.35-1.5.933-.898 1.95-1.648 3.05-2.25 4.899-2.564 11.266-1.615 19.1 2.853 1.867.8 4.783.917 8.75.35 2.334-.366 6.4-1.1 12.2-2.2 12.167-1.897 22.85-.564 32.05 4 3.334-1.364 6.283-1.6 8.85-.697 2.533.934 4.2 2.383 5 4.35.167.166.316.383.45.65-.134-.27-.283-.484-.45-.65-.8-1.967-2.467-3.416-5-4.35-2.566-.9-5.516-.667-8.85.697-9.2-4.564-19.883-5.897-32.05-4-5.8 1.103-9.866 1.834-12.2 2.2-3.967.567-6.883.45-8.75-.35-7.834-4.468-14.2-5.417-19.1-2.853-1.1.602-2.117 1.352-3.05 2.25-.467.468-.916.968-1.35 1.5-1.7 3.867-3.017 7.552-3.95 11.052l1 .5c1.332-.535 2.6-.902 3.8-1.102zm89.5-5.55c-.066-1.533-.383-2.601-.949-3.2-.801-1.966-2.467-3.417-5-4.35-2.566-.9-5.518-.667-8.851.699-9.2-4.565-19.884-5.899-32.05-4-5.8 1.101-9.867 1.833-12.2 2.198-3.966.566-6.884.45-8.75-.35-9.566-5.433-16.95-5.632-22.149-.599-.467.468-.917.968-1.351 1.5-.3.698-.6 1.384-.899 2.051-1.667 4.032-2.884 7.884-3.65 11.55.533.2 1.05.416 1.55.649-.5-.233-1.017-.449-1.55-.649.767-3.666 1.983-7.518 3.65-11.55.3-.667.6-1.353.899-2.051.434-.532.884-1.032 1.351-1.5 5.199-5.033 12.583-4.834 22.149.6 1.866.8 4.784.916 8.75.35 2.333-.365 6.4-1.1 12.2-2.198 12.166-1.899 22.85-.565 32.05 4 3.333-1.366 6.284-1.602 8.851-.699 2.533.933 4.199 2.384 5 4.35.565.6.882 1.666.949 3.199zm1-12.349c-.033-1.532-.35-2.602-.949-3.199-.801-1.968-2.467-3.417-5-4.353-2.566-.897-5.518-.666-8.851.7-9.2-4.565-19.884-5.898-32.05-4-5.8 1.102-9.867 1.833-12.2 2.2-3.966.565-6.884.45-8.75-.351-9.433-5.366-16.733-5.635-21.899-.802-.566.5-1.101 1.066-1.601 1.7l-.149.352c-1.734 3.935-3.033 7.666-3.9 11.198.666-.198 1.334-.365 2-.5-.666.135-1.334.302-2 .5.867-3.532 2.166-7.266 3.9-11.198l.149-.352c.5-.634 1.034-1.2 1.601-1.7 5.166-4.833 12.467-4.564 21.899.802 1.866.801 4.784.916 8.75.351 2.333-.367 6.4-1.101 12.2-2.2 12.166-1.898 22.85-.565 32.05 4 3.333-1.366 6.284-1.6 8.851-.7 2.533.936 4.199 2.385 5 4.353.599.598.915 1.665.949 3.199zm-173.4 2.949l.1-.198c.134-.2.284-.385.45-.552 1.2-1.365 2.533-2.434 4-3.198.733-.366 1.5-.667 2.3-.899 4.534-1.268 10.116-.018 16.75 3.75 1.866.8 4.784.916 8.75.35 2.333-.367 6.4-1.101 12.2-2.2 12.166-1.899 22.85-.565 32.05 4 .467-.199.95-.385 1.45-.552-.5.168-.983.353-1.45.552-9.2-4.565-19.884-5.899-32.05-4-5.8 1.101-9.867 1.833-12.2 2.198-3.966.566-6.884.45-8.75-.35-6.634-3.767-12.216-5.017-16.75-3.749-.8.232-1.566.533-2.3.899-1.467.767-2.8 1.833-4 3.198-.166.167-.316.353-.45.552l-.1.199zm80.2 3.35c-.867.232-1.75.532-2.65.898-9.2-4.564-19.883-5.897-32.05-4-5.8 1.103-9.866 1.834-12.2 2.2-3.967.567-6.883.45-8.75-.35-10.434-5.936-18.267-5.635-23.5.897-5.133 11.567-6.684 21.618-4.65 30.151-2.033-8.533-.482-18.584 4.65-30.15 5.233-6.532 13.066-6.833 23.5-.897 1.867.8 4.783.917 8.75.35 2.334-.366 6.4-1.1 12.2-2.2 12.167-1.899 22.85-.566 32.05 3.999.9-.364 1.783-.664 2.65-.898zm-73.351-8.2c.634-1.8 1.366-3.633 2.2-5.5 5.233-6.533 13.066-6.834 23.5-.9 1.867.802 4.783.917 8.75.353 2.334-.366 6.4-1.103 12.2-2.2 10.6-1.666 20.083-.867 28.45 2.399-8.367-3.269-17.851-4.065-28.45-2.399-5.8 1.1-9.866 1.834-12.2 2.2-3.967.564-6.883.448-8.75-.353-10.434-5.934-18.267-5.633-23.5.9-.833 1.867-1.565 3.7-2.2 5.5zm-6.899-6.099l.1-.5c.733-5.135 2.416-10.667 5.05-16.602 5.233-6.533 13.067-6.833 23.5-.898 1.866.801 4.784.916 8.75.351 2.333-.367 6.4-1.101 12.2-2.2 10.566-1.667 20.017-.884 28.35 2.353-8.333-3.234-17.783-4.02-28.35-2.353-5.8 1.103-9.867 1.833-12.2 2.2-3.966.565-6.884.45-8.75-.351-10.433-5.935-18.267-5.635-23.5.898-2.634 5.935-4.317 11.468-5.05 16.602l-.1.5zm82.3-2.451c.466.199.95.417 1.45.647-.5-.23-.984-.446-1.45-.647zm1.8-10.75c-.5.167-1 .35-1.5.55-9.2-4.566-19.883-5.9-32.05-4-5.8 1.1-9.866 1.834-12.2 2.2-3.967.565-6.883.449-8.75-.352-10.434-5.934-18.267-5.633-23.5.9-3.967 8.934-5.8 16.967-5.5 24.1-.3-7.133 1.533-15.166 5.5-24.1 5.233-6.533 13.066-6.834 23.5-.9 1.867.802 4.783.917 8.75.353 2.334-.366 6.4-1.103 12.2-2.2 12.167-1.9 22.85-.566 32.05 4 .5-.201 1-.384 1.5-.551zm3.1-3.9c-1.732.034-3.583.45-5.55 1.25l-2.1-1 2.1 1c1.967-.8 3.817-1.216 5.55-1.25zm-82.6 24.101c.9-3.065 2.084-6.269 3.55-9.602 5.233-6.533 13.067-6.833 23.5-.898 1.866.801 4.784.916 8.75.351 2.333-.367 6.4-1.101 12.2-2.2 10.434-1.634 19.783-.884 28.05 2.25-8.267-3.134-17.616-3.884-28.05-2.25-5.8 1.103-9.867 1.833-12.2 2.2-3.966.565-6.884.45-8.75-.351-10.433-5.935-18.267-5.635-23.5.898-1.466 3.334-2.65 6.535-3.55 9.602zm-5-25.351c-.033-6.732 1.8-14.25 5.5-22.55 5.233-6.533 13.066-6.834 23.5-.9 1.867.802 4.783.917 8.75.353 2.334-.366 6.4-1.103 12.2-2.2 11.333-1.768 21.384-.733 30.149 3.1-8.766-3.833-18.816-4.864-30.149-3.1-5.8 1.1-9.866 1.834-12.2 2.2-3.967.564-6.883.449-8.75-.353-10.434-5.934-18.267-5.633-23.5.9-3.701 8.3-5.534 15.817-5.5 22.55zm81.75-9.45c-9.133-4.467-19.733-5.75-31.8-3.85-5.8 1.1-9.866 1.834-12.2 2.2-3.967.564-6.883.449-8.75-.353-10.434-5.934-18.267-5.633-23.5.9-4.8 10.8-6.467 20.267-5 28.399-1.467-8.135.2-17.602 5-28.399 5.233-6.533 13.066-6.834 23.5-.9 1.867.802 4.783.917 8.75.353 2.334-.366 6.4-1.103 12.2-2.2 12.067-1.9 22.667-.617 31.8 3.85zm3.1-4.15c-1.199.199-2.467.564-3.8 1.1-.634-.333-1.283-.648-1.95-.95.667.302 1.316.617 1.95.95 1.332-.533 2.6-.899 3.8-1.1z"/><path stroke="#E7ECEC" stroke-linecap="round" stroke-linejoin="round" stroke-miterlimit="3" d="M86.157 22.993c-.533-1.3-1.434-2.383-2.699-3.25-.667-.435-1.434-.8-2.301-1.101-2.566-.899-5.516-.667-8.85.698-9.2-4.564-19.883-5.897-32.05-4-5.8 1.103-9.866 1.834-12.2 2.2-3.967.567-6.883.45-8.75-.35-4.934-2.801-9.267-4.218-13-4.25-4.233-.034-7.733 1.683-10.5 5.147-3.967 8.968-5.8 17-5.5 24.103.1 2.1.383 4.115.85 6.05l-.199-.45c-.601-1.732-1.033-3.55-1.301-5.45-1.066-7.467.4-16.016 4.4-25.647l.8-1.801c.733-.899 1.5-1.685 2.3-2.352 2.634-2.134 5.783-3.05 9.45-2.75 3.467.3 7.384 1.7 11.75 4.2 1.866.8 4.784.916 8.75.35 2.333-.365 6.4-1.1 12.2-2.198 12.166-1.899 22.85-.565 32.05 4 3.333-1.366 6.284-1.602 8.851-.699 1.633.6 2.916 1.417 3.85 2.449.5.565.883 1.198 1.15 1.898.266.3.482.685.649 1.15.166.57.266 1.253.3 2.053 2.301 2.399.484 11.934-5.449 28.6-2.268 4.468-5.734 7.218-10.4 8.25-24.9 3.667-44.533 3.667-58.9 0-7.468 2.4-13.001 1.301-16.601-3.3-1.166-1.466-2.133-3.315-2.9-5.55-.3-.9-.55-1.816-.75-2.75m6-35.7c-1.199.2-2.467.567-3.8 1.102l-1-.5c.934-3.5 2.25-7.185 3.95-11.052.434-.532.883-1.032 1.35-1.5.933-.898 1.95-1.648 3.05-2.25 4.899-2.564 11.266-1.615 19.1 2.853 1.867.8 4.783.917 8.75.35 2.334-.366 6.4-1.1 12.2-2.2 12.167-1.897 22.85-.564 32.05 4 3.334-1.364 6.283-1.6 8.85-.697 2.533.934 4.2 2.383 5 4.35.167.166.316.383.45.65.967 2.031.55 6.467-1.25 13.3m-93.501-7.805c-.5-.233-1.017-.449-1.55-.649.767-3.666 1.983-7.518 3.65-11.55.3-.667.6-1.353.899-2.051.435-.534.885-1.034 1.352-1.5 5.199-5.034 12.583-4.834 22.148.599 1.866.8 4.784.916 8.75.35 2.333-.365 6.4-1.1 12.2-2.198 12.166-1.899 22.85-.565 32.05 4 3.333-1.366 6.284-1.602 8.851-.699 2.533.933 4.199 2.384 5 4.35.566.603.883 1.667.949 3.2m-89.948-9.602c-.768 0-1.566.065-2.4.198.8-2.532 1.8-5.147 3-7.85 5.233-6.533 13.066-6.834 23.5-.9 1.867.802 4.783.917 8.75.353 2.334-.366 6.4-1.103 12.2-2.2 12.167-1.9 22.85-.566 32.05 4 3.334-1.367 6.283-1.601 8.85-.7 2.533.935 4.2 2.384 5 4.353.5.5.801 1.332.9 2.5.233 2.266-.25 5.766-1.45 10.5m-92.8-10.055c-.666.135-1.334.302-2 .5.867-3.532 2.166-7.266 3.9-11.198l.149-.352c.5-.634 1.034-1.2 1.601-1.7 5.166-4.833 12.467-4.564 21.899.802 1.866.801 4.784.916 8.75.351 2.333-.367 6.4-1.101 12.2-2.2 12.166-1.897 22.85-.564 32.05 4 3.333-1.366 6.284-1.6 8.851-.7 2.533.936 4.199 2.386 5 4.353.6.6.916 1.667.949 3.2m2.551-14.505c-.801-1.968-2.467-3.417-5-4.352-2.566-.898-5.518-.667-8.851.7-9.2-4.566-19.884-5.9-32.05-4-5.8 1.1-9.867 1.834-12.2 2.2-3.966.564-6.884.449-8.75-.353-10.433-5.934-18.267-5.633-23.5.9-1.366 3.1-2.483 6.084-3.35 8.95-.534-.2-1.083-.417-1.65-.65.8-3.232 1.95-6.6 3.45-10.1l.6-1.4c.768-.966 1.601-1.8 2.5-2.5 5.101-4 12.101-3.466 21 1.602 1.867.801 4.783.916 8.75.351 2.334-.367 6.4-1.101 12.2-2.2 12.167-1.898 22.851-.565 32.05 4 3.334-1.366 6.283-1.6 8.851-.7 1.5.566 2.716 1.302 3.649 2.2.566.634 1.018 1.352 1.351 2.15.567.601.884 1.668.95 3.202 1.699 1.767 1.149 7.435-1.65 17m-.9-32c-.8-1.968-2.467-3.417-5-4.352-2.566-.898-5.516-.667-8.85.7-9.2-4.566-19.883-5.9-32.05-4-5.8 1.1-9.866 1.834-12.2 2.2-3.967.564-6.883.449-8.75-.353-10.434-5.934-18.267-5.633-23.5.9-1.467 3.334-2.65 6.517-3.55 9.55-.534-.2-1.067-.417-1.601-.648.768-3.269 1.9-6.699 3.4-10.302l.8-1.8c.733-.898 1.5-1.683 2.3-2.35 5.134-4.135 12.2-3.65 21.2 1.449 1.866.801 4.784.916 8.75.351 2.333-.367 6.4-1.101 12.2-2.2 12.166-1.898 22.85-.565 32.05 4 3.333-1.366 6.284-1.6 8.851-.7 2.399.9 4.033 2.25 4.899 4.052l.101.301c.566.601.883 1.668.95 3.202 1.2 1.267 1.283 4.481.25 9.648m-93.051-31.049l.5-1.2c5.233-6.533 13.067-6.833 23.5-.898 1.866.801 4.784.916 8.75.351 2.333-.367 6.4-1.101 12.2-2.2 12.166-1.897 22.85-.564 32.05 4 3.333-1.366 6.284-1.6 8.851-.7 2.533.936 4.199 2.386 5 4.353.566.6.883 1.667.949 3.2-.8-1.969-2.467-3.417-5-4.353-2.566-.897-5.516-.667-8.85.7-9.2-4.566-19.883-5.9-32.05-4-5.8 1.1-9.866 1.834-12.2 2.2-3.967.564-6.883.449-8.75-.353-10.434-5.934-18.267-5.633-23.5.9-1.4 3.166-2.533 6.2-3.4 9.1-.533-.23-1.083-.448-1.649-.647.667-2.603 1.55-5.301 2.649-8.103.268-.766.585-1.55.95-2.35zm91.801 6.901c1.301 1.365 1.283 5.032-.05 11m-91.8 94.899c-.8.333-1.633.602-2.5.8-24.9 3.667-44.533 3.667-58.9 0-9.9 3.2-16.4.25-19.5-8.85-.3-.9-.55-1.816-.75-2.75-.766-3.101-1.033-6.4-.8-9.9.366-6.133 2.183-12.883 5.45-20.25 5.233-6.532 13.066-6.833 23.5-.897 1.867.8 4.783.917 8.75.35 2.334-.366 6.4-1.1 12.2-2.2 12.066-1.897 22.667-.614 31.8 3.853m-79.8-19.106l.1-.198c.134-.2.284-.385.45-.552 1.2-1.365 2.533-2.434 4-3.198.733-.366 1.5-.667 2.3-.899 4.534-1.268 10.116-.018 16.75 3.75 1.866.8 4.784.916 8.75.35 2.333-.367 6.4-1.101 12.2-2.2 12.166-1.899 22.85-.565 32.05 4 .467-.199.95-.385 1.45-.552m2.15 2.849c-.867.232-1.75.532-2.65.898-9.2-4.564-19.883-5.897-32.05-4-5.8 1.103-9.866 1.834-12.2 2.2-3.967.567-6.883.45-8.75-.35-10.434-5.936-18.267-5.635-23.5.897-5.133 11.567-6.684 21.618-4.65 30.151l-.199-.45c-3.066-9.033-1.801-19.933 3.8-32.7-.568-3.398-.584-7.05-.051-10.949-1.467-4.733-1.768-9.968-.9-15.699.133-.866.3-1.75.5-2.65.867-4.3 2.383-8.884 4.55-13.75 5.233-6.533 13.067-6.833 23.5-.898 1.866.801 4.784.916 8.75.351 2.333-.367 6.4-1.101 12.2-2.2 10.6-1.667 20.084-.866 28.45 2.4m5.25 29.999c.466.199.95.417 1.45.647m.35-11.397c-.5.167-1 .35-1.5.55-9.2-4.566-19.883-5.9-32.05-4-5.8 1.1-9.866 1.834-12.2 2.2-3.967.565-6.883.449-8.75-.352-10.434-5.934-18.267-5.633-23.5.9-3.967 8.934-5.8 16.967-5.5 24.1m86.6-27.298c-1.732.034-3.583.45-5.55 1.25l-2.1-1m-82.401 63.55c-.267-.833-.5-1.698-.7-2.6m2.501 15l-.199-.45c-1.268-3.667-1.801-7.649-1.601-11.95.267-6.333 2.101-13.314 5.5-20.948 5.233-6.532 13.067-6.834 23.5-.899 1.866.8 4.784.916 8.75.35 2.333-.364 6.4-1.1 12.2-2.197 11.066-1.734 20.9-.783 29.5 2.85m-69.701-19.756c.634-1.8 1.366-3.633 2.2-5.5 5.233-6.533 13.066-6.834 23.5-.9 1.867.802 4.783.917 8.75.353 2.334-.366 6.4-1.103 12.2-2.2 10.6-1.666 20.083-.867 28.45 2.399m-81.999-.251l.1-.5c.733-5.135 2.416-10.667 5.05-16.602 5.233-6.533 13.067-6.833 23.5-.898 1.866.801 4.784.916 8.75.351 2.333-.367 6.4-1.101 12.2-2.2 10.566-1.667 20.017-.884 28.35 2.353m-73.35 24.496c.9-3.065 2.084-6.269 3.55-9.602 5.233-6.533 13.067-6.833 23.5-.898 1.866.801 4.784.916 8.75.351 2.333-.367 6.4-1.101 12.2-2.2 10.434-1.634 19.783-.884 28.05 2.25m-81.55-12.602c-1.434-8.135.25-17.603 5.05-28.4 5.233-6.533 13.067-6.833 23.5-.898 1.866.801 4.784.916 8.75.351 2.333-.367 6.4-1.101 12.2-2.2 12.166-1.897 22.85-.583 32.05 3.95m-81.05 24.547c-.033-6.732 1.8-14.25 5.5-22.55 5.233-6.533 13.066-6.834 23.5-.9 1.867.802 4.783.917 8.75.353 2.334-.366 6.4-1.103 12.2-2.2 11.333-1.768 21.384-.733 30.149 3.1m1.651 12.747c-9.133-4.467-19.733-5.75-31.8-3.85-5.8 1.1-9.866 1.834-12.2 2.2-3.967.564-6.883.449-8.75-.353-10.434-5.934-18.267-5.633-23.5.9-4.8 10.8-6.467 20.267-5 28.399m84.35-31.446c-1.199.199-2.467.564-3.8 1.1-.634-.333-1.283-.648-1.95-.95" fill="none"/></symbol><symbol id="f" viewBox="-49.4 -30.2 98.801 60.399"><path fill="#E0E4E7" d="M41.538 8.936c5.933-16.667 7.75-26.199 5.45-28.601-.8-1.966-2.466-3.417-5-4.35-2.566-.9-5.517-.667-8.85.699-9.2-4.565-19.883-5.899-32.05-4-5.8 1.101-9.867 1.833-12.2 2.199-3.967.566-6.883.45-8.75-.35-10.434-5.934-18.267-5.633-23.5.899-5.7 12.833-7 23.801-3.9 32.899 3.1 9.101 9.6 12.05 19.5 8.851 14.367 3.667 34 3.667 58.9 0 4.667-1.03 8.133-3.78 10.4-8.246z"/><path stroke="#E0E4E7" stroke-linecap="round" stroke-linejoin="round" stroke-miterlimit="3" d="M41.538 8.936c-2.267 4.468-5.733 7.218-10.4 8.25-24.9 3.667-44.534 3.667-58.9 0-9.9 3.199-16.4.25-19.5-8.851-3.1-9.1-1.8-20.065 3.9-32.899 5.233-6.532 13.066-6.833 23.5-.899 1.867.8 4.783.917 8.75.35 2.333-.366 6.4-1.1 12.2-2.199 12.167-1.899 22.85-.565 32.05 4 3.333-1.366 6.283-1.601 8.85-.699 2.534.933 4.2 2.383 5 4.35 2.3 2.396.483 11.93-5.45 28.597z" fill="none"/><path fill="#fff" d="M42.487 14.785c5.934-13.733 7.75-21.583 5.45-23.55-.8-1.634-2.467-2.833-5-3.602-2.567-.731-5.517-.532-8.85.602-9.2-3.769-19.883-4.867-32.05-3.301-5.8.899-9.867 1.5-12.2 1.801-3.967.466-6.883.366-8.75-.301-10.433-4.866-18.267-4.616-23.5.75-5.7 10.566-7 19.601-3.9 27.101s9.6 9.933 19.5 7.3c14.367 3 34 3 58.9 0 4.667-.867 8.134-3.133 10.4-6.8z"/><path stroke="#fff" stroke-linecap="round" stroke-linejoin="round" stroke-miterlimit="3" d="M42.487 14.785c-2.267 3.667-5.733 5.933-10.4 6.8-24.9 3-44.533 3-58.9 0-9.9 2.633-16.4.2-19.5-7.3s-1.8-16.533 3.9-27.101c5.233-5.366 13.067-5.616 23.5-.75 1.867.667 4.783.768 8.75.301 2.333-.301 6.4-.9 12.2-1.801 12.167-1.565 22.85-.468 32.05 3.301 3.333-1.134 6.283-1.333 8.85-.602 2.533.769 4.2 1.968 5 3.602 2.3 1.967.483 9.817-5.45 23.55z" fill="none"/><path d="M1.756 30.199l6.459-38.796-17.803-2.965-6.459 38.796z" fill="none"/><text transform="matrix(-.143 .857 .986 .164 -.324 -4.617)" fill="#4F5D5D" font-family="'Consolas'" font-size="12">сахар</text></symbol><symbol id="d" viewBox="-78.5 -14.75 157 29.5"><path fill="#B77734" d="M78 5.5v-11h-18.5v11h18.5zm-67.5-11h-18.5v11h18.5v-11zm-70 11v-11h-18.5v11h18.5z"/><path stroke="#B77734" stroke-linecap="round" stroke-linejoin="round" stroke-miterlimit="3" d="M78 5.5v-11h-18.5v11h18.5zm-67.5-11h-18.5v11h18.5v-11zm-70 11v-11h-18.5v11h18.5z" fill="none"/><path fill="#EDBB7C" d="M78 5.5h-156v8.75h156v-8.75zm0-19.75h-156v8.75h156v-8.75z"/><path stroke="#EDBB7C" stroke-linecap="round" stroke-linejoin="round" stroke-miterlimit="3" d="M78 5.5h-156v8.75h156v-8.75zm0-19.75h-156v8.75h156v-8.75z" fill="none"/></symbol><symbol id="g" viewBox="-32.401 -43.404 64.802 86.807"><path fill="#fff" d="M28.787-17.197c-.158-.743-.325-1.493-.5-2.25-1.233-3.633-4.4-6.333-9.5-8.1-18.9-4.634-29.684-6.051-32.35-4.25-.567.167-1.067.366-1.5.6-1.467.733-2.583 1.833-3.35 3.3-.933 2-.6 4.301 1 6.9-5.033 7.167-6.383 15.482-4.05 24.95 1.333 4.532 2.216 7.699 2.65 9.5.7 3.1.617 5.383-.25 6.85-2.49 3.104-3.957 5.911-4.4 8.425-.72 4.055 1.213 7.348 5.8 9.875 9.533 2.9 18.15 4.333 25.85 4.301 4.033-.032 7.816-.468 11.35-1.301 10.2-2.398 13.417-7.449 9.65-15.148 3.748-10.766 3.614-25.315-.4-43.652z"/><path fill="#E0E4E7" d="M28.787-17.197c-.655-3.986-1.555-8.187-2.7-12.6-1.4-3.634-4.933-6.333-10.6-8.102-21.133-4.633-33.183-6.05-36.15-4.25-.633.167-1.2.367-1.7.602-1.633.731-2.867 1.833-3.7 3.3-1.067 2-.7 4.3 1.1 6.899-5.633 7.167-7.15 15.482-4.55 24.949 1.533 4.534 2.533 7.7 3 9.5.767 3.102.667 5.384-.3 6.852-7.267 8.1-6.75 14.199 1.55 18.3.603.164 1.203.322 1.8.475.443-2.514 1.91-5.321 4.4-8.425.867-1.467.95-3.75.25-6.85-.434-1.801-1.317-4.968-2.65-9.5-2.333-9.468-.983-17.783 4.05-24.95-1.6-2.601-1.933-4.9-1-6.9.767-1.466 1.883-2.564 3.35-3.3.433-.232.933-.433 1.5-.6 2.667-1.801 13.45-.384 32.35 4.25 5.1 1.767 8.267 4.467 9.5 8.1.175.757.342 1.507.5 2.25z"/><path stroke="#fff" stroke-linecap="round" stroke-linejoin="round" stroke-miterlimit="3" d="M28.787-17.197c4.014 18.337 4.147 32.888.4 43.65 3.767 7.699.55 12.75-9.65 15.148-3.534.833-7.317 1.269-11.35 1.301-7.7.032-16.317-1.399-25.85-4.301-4.586-2.527-6.52-5.82-5.8-9.875.443-2.514 1.91-5.321 4.4-8.425.867-1.467.95-3.75.25-6.85-.434-1.801-1.317-4.968-2.65-9.5-2.333-9.468-.983-17.783 4.05-24.95-1.6-2.601-1.933-4.9-1-6.9.767-1.466 1.883-2.564 3.35-3.3.433-.232.933-.433 1.5-.6 2.667-1.801 13.45-.384 32.35 4.25 5.1 1.767 8.267 4.467 9.5 8.1.175.759.342 1.509.5 2.252z" fill="none"/><path stroke="#E0E4E7" stroke-linecap="round" stroke-linejoin="round" stroke-miterlimit="3" d="M-23.463 28.728c-.597-.151-1.198-.311-1.8-.475-8.3-4.101-8.816-10.2-1.55-18.3.967-1.468 1.066-3.75.3-6.852-.467-1.8-1.467-4.966-3-9.5-2.6-9.466-1.083-17.782 4.55-24.949-1.8-2.601-2.167-4.899-1.1-6.899.833-1.467 2.066-2.567 3.7-3.3.5-.233 1.067-.435 1.7-.602 2.967-1.8 15.017-.383 36.15 4.25 5.667 1.769 9.2 4.468 10.6 8.102 1.145 4.413 2.045 8.612 2.7 12.6" fill="none"/></symbol><symbol id="b" viewBox="-56.502 -164.675 113.004 329.35"><path fill="#A3B1B9" d="M42.501 164.675h14v-165.675c-.658-13.427-7.483-21.594-20.475-24.5-.505-.114-1.014-.173-1.525-.175h-60l-.45.025c-10.174.639-15.69-2.836-16.55-10.426v-121.6c0-1.933-.683-3.583-2.05-4.95-1.367-1.367-3.017-2.05-4.95-2.05s-3.583.683-4.95 2.05c-1.367 1.367-2.05 3.018-2.05 4.95v122.4c.514 16.888 10.847 24.754 31 23.6h59.2c5.602 1.495 8.535 5.27 8.8 11.325v165.026z"/></symbol><symbol id="c" viewBox="-92.985 -162.399 185.97 324.8"><path fill="#A3B1B9" d="M78.965 162.4h14v-58.85c.585-21.04-12.057-31.707-37.925-32h-39.075v-119c.001-.289-.016-.581-.05-.875-1.98-17.734-12.721-25.776-32.225-24.124h-45.675c-.247.003-.497.02-.75.05-5.563.595-9.779-.122-12.65-2.149-2.335-2.312-3.535-5.944-3.6-10.9v-69.95c0-1.933-.683-3.583-2.05-4.95-1.367-1.366-3.017-2.05-4.95-2.05s-3.583.685-4.95 2.05c-1.367 1.367-2.05 3.018-2.05 4.95v70.025c.114 10.046 2.997 17.237 8.65 21.575 5.043 4.566 12.585 6.35 22.625 5.35h45.725c.206.001.415-.007.625-.025 10.123-.9 15.897 2.958 17.325 11.575v118.45h-59.625c-10.456-.87-18.056 1.414-22.8 6.85-5.079 4.844-7.254 12.618-6.525 23.325v60.673h14v-60.85l-.025-.525c-.433-5.854.45-10.163 2.65-12.925 2.535-2.18 6.452-3.038 11.75-2.575.209.018.417.025.625.025h112.925c15.63.201 23.638 6.185 24.025 17.95v58.9z"/></symbol><symbol id="a" viewBox="-7.45 -161.8 14.9 323.6"><path fill="#DADEDE" d="M6.95 161.8v-323.6h-13.9v323.6z"/><path stroke="#C0C9C8" stroke-linecap="round" stroke-linejoin="round" stroke-miterlimit="3" d="M-6.95 109h13.9m-13.9-54.5h13.9m-13.9-55.5h13.9m-13.9-53.5h13.9m-13.9-54.5h13.9" fill="none"/></symbol><path fill="#C0C9C8" d="M1.02-1.404h1006.958v232.82h-1006.958zm-.516 232.82v-232.82c0-.196.231-.355.517-.355h1006.958c.284 0 .515.159.515.355v232.819c0 .195-.229.354-.515.354h-1006.959c-.285.002-.516-.157-.516-.353zm1006.96-232.465h-1005.929v232.109h1005.928l.001-232.109z"/><path fill="#CDCCCC" d="M787.297 111.083h-10.035v-.635h10.035zm0 79.909h-10.035v-.635h10.035zm-.042-161.65h-10.021v-.634h10.021zm.042 121.46h-10.035v-.635h10.035zm-.042-81.019h-10.021v-.635h10.021z"/><use xlink:href="#a" width="14.9" height="323.6" x="-7.45" y="-161.8" transform="matrix(-.722 0 0 -.722 782.249 114.739)" overflow="visible"/><use xlink:href="#a" width="14.9" height="323.6" x="-7.45" y="-161.8" transform="matrix(-.722 0 0 -.722 756.996 114.739)" overflow="visible"/><use xlink:href="#a" width="14.9" height="323.6" x="-7.45" y="-161.8" transform="matrix(-.722 0 0 -.722 741.845 114.739)" overflow="visible"/><use xlink:href="#a" width="14.9" height="323.6" x="-7.45" y="-161.8" transform="matrix(-.722 0 0 -.722 547.761 114.739)" overflow="visible"/><use xlink:href="#a" width="14.9" height="323.6" x="-7.45" y="-161.8" transform="matrix(-.722 0 0 -.722 521.065 114.739)" overflow="visible"/><use xlink:href="#a" width="14.9" height="323.6" x="-7.45" y="-161.8" transform="matrix(-.722 0 0 -.722 391.917 114.739)" overflow="visible"/><path fill="#A3B1B9" d="M866.052-.955v83.315c-.281 11.636-3.673 18.569-10.174 20.797-.635.267-1.297.398-1.984.396h-28.427c-.192 0-.391-.012-.596-.036-1.549-.184-2.752.213-3.607 1.19-1.278 1.992-1.982 5.105-2.11 9.343v110.317c0 1.395-.493 2.586-1.479 3.572-.986.984-2.177 1.479-3.571 1.479s-2.585-.494-3.571-1.479c-.985-.986-1.479-2.178-1.479-3.572v-110.604c.207-6.9 1.565-11.92 4.075-15.061 2.876-4.08 7.078-5.829 12.609-5.25h26.731c2.179-1.792 3.339-5.573 3.48-11.345v-83.062h10.103zm-423.683 3.012c.626.824 1.521 1.118 2.688.884.335-.07.671-.106 1.01-.108h20.057c5.219-.737 9.284.929 12.193 4.996 2.417 3.032 3.854 7.962 4.311 14.791l.018.342v100.541h15.512c12.514-.267 18.754 8.391 18.723 25.974v94.696c0 1.395-.493 2.586-1.479 3.572s-2.177 1.479-3.571 1.479-2.585-.492-3.571-1.479-1.479-2.178-1.479-3.572v-94.696c.017-9.975-2.93-15.266-8.838-15.873h-50.108c-.268-.001-.544-.025-.83-.072-1.101-.176-1.907.239-2.417 1.244-1.22 2.701-1.713 6.981-1.479 12.843v88.185c0 1.395-.493 2.586-1.479 3.572s-2.177 1.479-3.571 1.479c-1.395 0-2.585-.492-3.572-1.479-.986-.986-1.479-2.178-1.479-3.572v-87.788c-.319-8.161.541-14.102 2.58-17.822 2.678-5.273 6.88-7.504 12.608-6.691h24.351v-100.45c-.302-4.205-1.084-7.283-2.345-9.235-.707-.838-1.668-1.157-2.886-.956-.284.047-.561.071-.83.073h-19.985c-5.594.982-9.809-.827-12.645-5.43-1.406-2.026-2.392-4.846-2.958-8.459h10.335c.3 1.186.679 2.19 1.136 3.011z"/><use xlink:href="#b" width="113.004" height="329.35" x="-56.502" y="-164.675" transform="matrix(-.722 0 0 -.722 386.652 117.858)" overflow="visible"/><use xlink:href="#c" width="185.97" height="324.8" x="-92.985" y="-162.399" transform="matrix(-.722 0 0 -.722 734.027 116.216)" overflow="visible"/><path fill="#A3B1B9" d="M903.208 229.781c-.002.895-.321 1.658-.956 2.289-.633.637-1.396.955-2.291.957-.895-.002-1.659-.32-2.291-.957-.636-.633-.954-1.395-.956-2.289v-230.736h6.494v230.736zm-19.481-230.736h6.493v230.013c-.002.895-.32 1.658-.956 2.291-.632.635-1.396.955-2.291.955s-1.658-.32-2.291-.955c-.635-.633-.954-1.396-.955-2.291v-230.013zm-116.161 0h6.493v57.611c-.002.895-.32 1.659-.956 2.291-.632.635-1.396.955-2.291.956-.895-.001-1.658-.321-2.291-.956-.636-.632-.954-1.396-.955-2.291v-57.611zm-54.112 233.621c-.002.895-.321 1.658-.956 2.291-.633.635-1.396.955-2.291.957-.895-.002-1.659-.322-2.291-.957-.636-.633-.954-1.396-.956-2.291v-233.621h6.494v233.621zm-231.601-233.621v20.094c-.001.895-.32 1.659-.956 2.291-.633.635-1.396.955-2.291.956-.895-.001-1.659-.321-2.291-.956-.636-.632-.955-1.396-.956-2.291v-20.094h6.494zm-106.06 232.9c-.001.895-.321 1.658-.956 2.291-.633.635-1.396.953-2.291.955-.895-.002-1.659-.32-2.291-.955-.636-.633-.955-1.396-.956-2.291v-232.9h6.494v232.9zm-48.305-2.887c-.001.895-.32 1.658-.956 2.291-.632.635-1.396.955-2.291.955s-1.659-.32-2.291-.955c-.636-.633-.955-1.396-.956-2.291v-230.013h6.493v230.013z"/><path fill="#F5ECA2" d="M164.593 64.998h842.149v16.716h-842.149zM882.897 0h24.112v81.713h-24.112zm-142.709 0h24.083v81.713h-24.083zM596.635 0h24.109v81.713h-24.109zM596.688 0h24.109v81.713h-24.109zm-142.738 0h24.111v81.713h-24.111zM310.418 0h24.114v81.713h-24.114zm-143.146 0h24.11v81.713h-24.11z"/><path fill="#DADEDE" d="M.517 229.891h1007.927v138.155h-1007.927z"/><path fill="#C0C9C8" d="M-.027 368.046v-138.155c0-.154.243-.279.544-.279h1007.927c.3 0 .543.125.543.279v138.154c0 .153-.243.278-.543.278h-1007.927c-.3.001-.544-.124-.544-.277zm1007.927-137.875h-1006.84v137.595h1006.84v-137.595z"/><path fill="#93A4AC" d="M716.964 60.248l-107.089-.061-12.464-42.727 136.706.152-17.153 42.636zm-7.306 2.599l-15.188 41.937-66.955.426-10.643-42.424 92.786.061zm31.26-48.107l-149.964-.183-4.979-15.611h161.741l-6.798 15.794zm-113.755 90.532l-10.643-42.423c-.041-.164.084-.326.278-.36.194-.035.387.07.428.235l10.581 42.18 66.396-.422 15.11-41.723c.058-.161.26-.252.45-.202.189.049.298.219.239.379l-15.188 41.937c-.046.127-.185.214-.342.215l-66.955.427h-.003c-.169-.002-.316-.102-.351-.243zm89.684-44.736c-.188-.054-.29-.227-.227-.386l17.153-42.636c.064-.159.269-.244.458-.19.188.054.289.228.227.386l-17.154 42.637c-.051.126-.191.207-.342.207l-.115-.018zm-107.323-.276l-12.464-42.728c-.047-.163.071-.328.265-.368.194-.04.39.061.438.224l12.464 42.727c.047.163-.071.328-.265.368l-.087.009c-.161-.001-.31-.093-.351-.232zm131.271-45.235c-.188-.057-.284-.231-.217-.39l6.801-15.794c.067-.157.274-.238.462-.182s.283.232.217.39l-6.801 15.794c-.054.123-.191.2-.34.2l-.122-.018zm-150.19-.389l-4.979-15.611c-.053-.162.063-.329.255-.373.191-.044.391.053.441.215l4.979 15.611c.052.162-.063.329-.255.373l-.095.01c-.156 0-.303-.089-.346-.225z"/><path fill="#657D8B" d="M587.04 13.158l157.791.183 1.245 6.9-161.057-.182 2.021-6.901zm34.938 84.983h78.3l.397 10.943h-80.375l1.678-10.943zm-20.056-32.756l1.894-8.832 119.354.075.865 8.816-122.113-.059zm18.005 43.701l.03-.122 1.663-10.86c.023-.152.178-.266.358-.266h78.3c.195 0 .354.131.361.294l.396 10.944c.003.082-.032.162-.102.221-.069.06-.161.093-.259.093h-80.39c-.196-.001-.357-.137-.357-.304zm80.001-10.64h-77.634l-1.584 10.336h79.593l-.375-10.336zm-98.007-32.756c-.106 0-.208-.04-.276-.109-.068-.068-.097-.16-.078-.249l1.896-8.831c.029-.145.177-.25.354-.25l119.354.076c.188 0 .344.122.357.279l.866 8.815c.009.084-.025.168-.094.231s-.165.098-.267.098l-122.112-.06zm2.195-8.832l-1.764 8.224 121.29.061-.807-8.208-118.719-.077zm141.959-36.312l-161.057-.182c-.11 0-.215-.043-.283-.117-.067-.074-.093-.169-.065-.26l2.021-6.901c.04-.136.178-.23.351-.23l157.793.183c.178 0 .328.11.354.258l1.245 6.9c.016.087-.016.177-.083.244-.071.066-.171.105-.276.105zm-158.753-7.083l-1.843 6.293 160.177.182-1.136-6.292-157.198-.183z"/><path fill="#B7A8A2" d="M536.382 200.448c0-2.345.831-4.354 2.497-6.026 1.666-1.661 3.676-2.498 6.025-2.498h141.387c2.352 0 4.355.837 6.021 2.498 1.667 1.667 2.498 3.677 2.498 6.026v2.318c0 2.352-.831 4.356-2.498 6.024-1.664 1.668-3.67 2.499-6.021 2.499h-141.387c-2.352 0-4.359-.831-6.025-2.499s-2.498-3.676-2.498-6.024l.001-2.318zm3.17 2.319c0 1.476.521 2.735 1.568 3.782 1.045 1.046 2.309 1.566 3.782 1.566h141.388c1.479 0 2.738-.521 3.785-1.566 1.045-1.047 1.568-2.309 1.568-3.782v-2.317c0-1.476-.523-2.739-1.568-3.782-1.047-1.047-2.308-1.568-3.785-1.568h-141.386c-1.476 0-2.736.521-3.782 1.568-1.047 1.043-1.568 2.309-1.568 3.782l-.002 2.317z"/><path fill="#99837B" d="M543.372 210.758h144.477v5.725h-144.477zM639.814 210.758h3.292v35.184h-3.292zm-51.721 0h3.288v35.184h-3.288zM543.342 210.758h3.297v35.184h-3.297zm140.703 33.474c-.09 0-.163.054-.229.155-.059.097-.091.213-.091.354v1.854c0 .141.032.265.091.369.063.097.139.145.229.145h4.484c.084 0 .16-.048.227-.145.061-.104.09-.229.09-.369v-1.854c0-.144-.029-.26-.09-.354-.064-.104-.143-.155-.227-.155h-4.484zm-44.836.27c-.082 0-.157.046-.223.144-.062.104-.093.227-.093.355v1.866c0 .142.031.263.093.367.063.095.141.144.223.144h4.496c.084 0 .162-.049.229-.144.059-.104.088-.228.088-.367v-1.866c0-.131-.029-.252-.088-.355-.065-.098-.146-.144-.229-.144h-4.496zm-51.701 0c-.084 0-.161.046-.228.144-.06.104-.09.227-.09.355v1.866c0 .142.03.263.09.367.064.095.144.144.228.144h4.485c.089 0 .167-.049.228-.144.064-.104.099-.228.099-.367v-1.866c0-.131-.032-.252-.099-.355-.061-.098-.139-.144-.228-.144h-4.485zm-44.754 0c-.094 0-.17.046-.235.144-.058.104-.089.227-.089.355v1.866c0 .142.031.263.089.367.065.095.144.144.235.144h4.484c.084 0 .159-.049.228-.144.061-.104.09-.228.09-.367v-1.866c0-.131-.029-.252-.09-.355-.066-.098-.144-.144-.228-.144h-4.484z"/><path fill="#7A6A65" d="M543.342 195.097h144.507v1.612h-144.507zM684.558 195.323h3.289v2.305h-3.289zm-9.085 0h3.295v2.305h-3.295zM666.391 195.323h3.288v2.305h-3.288zm-9.087 0h3.295v2.305h-3.295zm-9.079 0h3.286v2.305h-3.286zm-9.036 0h3.296v2.305h-3.296zm-9.082 0h3.287v2.305h-3.287zm-9.079 0h3.285v2.305h-3.285zm-9.088 0h3.294v2.305h-3.294zM611.94 195.323h3.294v2.305h-3.294zm-9.082 0h3.286v2.305h-3.286zM593.772 195.323h3.295v2.305h-3.295zm-9.081 0h3.287v2.305h-3.287zm-9.086 0h3.293v2.305h-3.293zm-9.028 0h3.285v2.305h-3.285zm-9.091 0h3.298v2.305h-3.298zm-9.078 0h3.296v2.305h-3.296zm-5.051 11.143h144.504v1.613h-144.504zM684.576 205.551h3.285v2.297h-3.285zm-9.09 0h3.296v2.297h-3.296zM666.408 205.551h3.286v2.297h-3.286zm-9.089 0h3.294v2.297h-3.294zm-9.083 0h3.289v2.297h-3.289zm-9.034 0h3.295v2.297h-3.295zm-9.077 0h3.285v2.297h-3.285zm-9.08 0h3.284v2.297h-3.284zm-9.09 0h3.295v2.297h-3.295zM611.955 205.551h3.295v2.297h-3.295zm-9.08 0h3.286v2.297h-3.286zM593.788 205.551h3.292v2.297h-3.292zm-9.079 0h3.283v2.297h-3.283zm-9.093 0h3.297v2.297h-3.297zm-9.022 0h3.285v2.297h-3.285zm-9.088 0h3.294v2.297h-3.294zm-9.082 0h3.289v2.297h-3.289z"/><path fill="#99837B" d="M584.437 206.616c1.381 1.381 3.051 2.07 5.005 2.07 1.956 0 3.629-.689 5.014-2.07 1.382-1.38 2.071-3.054 2.071-5.015 0-1.954-.689-3.622-2.071-5.005-1.385-1.382-3.058-2.069-5.014-2.069-1.954 0-3.624.688-5.005 2.069-1.381 1.383-2.071 3.051-2.071 5.005-.001 1.959.69 3.63 2.071 5.015z"/><path fill="#B7A8A2" d="M586.969 199.127c-.688.687-1.027 1.512-1.027 2.477 0 .975.342 1.799 1.027 2.483.68.688 1.506 1.027 2.475 1.027.973 0 1.8-.342 2.484-1.027.687-.687 1.026-1.511 1.026-2.483 0-.968-.342-1.794-1.026-2.477-.687-.686-1.514-1.025-2.484-1.025-.971-.001-1.797.34-2.475 1.025z"/><path fill="#99837B" d="M636.772 206.616c1.381 1.381 3.049 2.07 5.008 2.07 1.957 0 3.623-.689 5.004-2.07 1.38-1.386 2.07-3.058 2.07-5.015 0-1.954-.69-3.622-2.07-5.005-1.381-1.382-3.047-2.069-5.004-2.069-1.959 0-3.627.688-5.008 2.069-1.385 1.383-2.079 3.051-2.079 5.005-.001 1.959.694 3.63 2.079 5.015z"/><path fill="#B7A8A2" d="M641.779 198.101c-.972 0-1.8.342-2.486 1.025-.684.687-1.025 1.512-1.025 2.477 0 .975.344 1.799 1.025 2.483.688.688 1.517 1.027 2.486 1.027s1.794-.342 2.475-1.027c.688-.687 1.027-1.511 1.027-2.483 0-.965-.341-1.79-1.027-2.477-.687-.684-1.51-1.025-2.475-1.025z"/><path fill="#99837B" d="M680.303 206.616c1.384 1.381 3.051 2.07 5.007 2.07 1.955 0 3.627-.689 5.015-2.07 1.377-1.38 2.07-3.054 2.07-5.015 0-1.954-.693-3.622-2.07-5.005-1.388-1.382-3.06-2.069-5.015-2.069-1.956 0-3.623.688-5.007 2.069-1.378 1.383-2.067 3.051-2.067 5.005-.001 1.959.691 3.63 2.067 5.015z"/><path fill="#B7A8A2" d="M682.832 199.127c-.685.687-1.025 1.512-1.025 2.477 0 .975.343 1.799 1.025 2.483.684.688 1.509 1.027 2.479 1.027.972 0 1.799-.342 2.485-1.027.684-.687 1.023-1.511 1.023-2.483 0-.968-.342-1.794-1.023-2.477-.688-.686-1.516-1.025-2.485-1.025s-1.797.34-2.479 1.025z"/><path fill="#99837B" d="M540.903 206.616c1.379 1.381 3.047 2.07 5.005 2.07s3.624-.689 5.008-2.07c1.387-1.386 2.078-3.058 2.078-5.015 0-1.954-.691-3.622-2.078-5.005-1.384-1.382-3.05-2.069-5.008-2.069s-3.626.688-5.005 2.069c-1.381 1.383-2.067 3.051-2.067 5.005 0 1.959.687 3.63 2.067 5.015z"/><path fill="#B7A8A2" d="M543.427 199.127c-.688.687-1.028 1.512-1.028 2.477 0 .975.343 1.799 1.028 2.483.685.688 1.515 1.027 2.48 1.027.975 0 1.799-.342 2.486-1.027.684-.687 1.023-1.511 1.023-2.483 0-.965-.342-1.79-1.023-2.477-.688-.686-1.515-1.025-2.486-1.025-.967-.001-1.797.34-2.48 1.025z"/><path fill="#99837B" d="M543.342 216.645h144.507v2.131h-144.507z"/><path fill="#B7A8A2" d="M520.289 239.611c0-3.127 1.114-5.807 3.333-8.033 2.224-2.221 4.899-3.329 8.034-3.329h188.475c3.125 0 5.8 1.108 8.021 3.329 2.22 2.221 3.331 4.897 3.331 8.033v3.093c0 3.133-1.111 5.812-3.331 8.029-2.221 2.224-4.896 3.33-8.021 3.33h-188.475c-3.135 0-5.813-1.106-8.034-3.33-2.219-2.22-3.333-4.896-3.333-8.029v-3.093zm4.232 3.092c0 1.963.698 3.646 2.092 5.04 1.396 1.393 3.075 2.091 5.043 2.091h188.475c1.969 0 3.646-.698 5.043-2.091 1.393-1.395 2.086-3.077 2.086-5.04v-3.093c0-1.969-.693-3.647-2.086-5.041-1.397-1.396-3.074-2.092-5.043-2.092h-188.475c-1.968 0-3.646.696-5.043 2.092-1.394 1.394-2.092 3.072-2.092 5.041v3.093z"/><path d="M529.613 253.474h192.586v4.022h-192.586zm128.556 0h4.391v24.719h-4.391zm-68.944 0h4.381v24.719h-4.381zm128.592 0h4.382v24.719h-4.382zm-188.241 0h4.393v24.719h-4.393zm187.554 23.52c-.114 0-.218.034-.304.108-.078.064-.119.149-.119.251v1.299c0 .101.041.188.119.262.086.063.188.1.304.1h5.979c.113 0 .214-.035.299-.1.079-.072.122-.161.122-.262v-1.299c0-.102-.043-.187-.122-.251-.085-.074-.186-.108-.299-.108h-5.979zm-59.763.189c-.11 0-.214.033-.301.102-.08.072-.12.155-.12.25v1.31c0 .101.04.189.12.263.087.063.188.102.301.102h5.992c.113 0 .215-.036.3-.102.079-.071.119-.162.119-.263v-1.31c0-.095-.04-.178-.119-.25-.085-.065-.187-.102-.3-.102h-5.992zm-68.922 0c-.114 0-.215.033-.301.102-.08.072-.12.155-.12.25v1.31c0 .101.04.189.12.263.086.063.187.102.301.102h5.979c.122 0 .222-.036.304-.102.085-.071.128-.162.128-.263v-1.31c0-.095-.043-.178-.128-.25-.082-.065-.182-.102-.304-.102h-5.979zm-59.661 0c-.118 0-.222.033-.309.102-.08.072-.12.155-.12.25v1.31c0 .101.04.189.12.263.087.063.188.102.309.102h5.982c.113 0 .214-.036.299-.102.079-.071.122-.162.122-.263v-1.31c0-.095-.043-.178-.122-.25-.085-.065-.186-.102-.299-.102h-5.982z" fill="#99837B"/><path fill="#7A6A65" d="M529.576 232.479h192.623v2.15h-192.623zM717.817 232.778h4.382v3.069h-4.382zm-12.114 0h4.396v3.069h-4.396zM693.601 232.778h4.38v3.069h-4.38zm-12.114 0h4.394v3.069h-4.394zm-12.103 0h4.381v3.069h-4.381zm-12.046 0h4.394v3.069h-4.394zm-12.105 0h4.38v3.069h-4.38zm-12.101 0h4.382v3.069h-4.382zm-12.117 0h4.393v3.069h-4.393zM621.015 232.778h4.393v3.069h-4.393zm-12.103 0h4.381v3.069h-4.381zM596.8 232.778h4.391v3.069h-4.391zm-12.106 0h4.381v3.069h-4.381zm-12.114 0h4.394v3.069h-4.394zm-12.034 0h4.381v3.069h-4.381zm-12.115 0h4.392v3.069h-4.392zm-12.103 0h4.393v3.069h-4.393zm-6.729 14.857h192.62v2.149h-192.62zM717.839 246.414h4.382v3.062h-4.382zm-12.117 0h4.393v3.062h-4.393zM693.62 246.414h4.383v3.062h-4.383zm-12.111 0h4.39v3.062h-4.39zm-12.107 0h4.38v3.062h-4.38zm-12.045 0h4.393v3.062h-4.393zm-12.103 0h4.383v3.062h-4.383zm-12.107 0h4.381v3.062h-4.381zm-12.112 0h4.393v3.062h-4.393zM621.035 246.414h4.393v3.062h-4.393zm-12.104 0h4.379v3.062h-4.379zM596.818 246.414h4.391v3.062h-4.391zm-12.105 0h4.384v3.062h-4.384zm-12.113 0h4.392v3.062h-4.392zm-12.034 0h4.379v3.062h-4.379zm-12.116 0h4.394v3.062h-4.394zm-12.102 0h4.381v3.062h-4.381z"/><path fill="#99837B" d="M584.354 247.835c1.84 1.839 4.065 2.762 6.673 2.762 2.605 0 4.833-.923 6.68-2.762 1.845-1.84 2.764-4.068 2.764-6.683 0-2.61-.919-4.836-2.764-6.677-1.847-1.84-4.072-2.76-6.68-2.76-2.606 0-4.833.92-6.673 2.76-1.845 1.841-2.762 4.064-2.762 6.677.002 2.609.918 4.833 2.762 6.683z"/><path fill="#B7A8A2" d="M587.724 237.85c-.914.914-1.369 2.013-1.369 3.304 0 1.292.455 2.395 1.369 3.311.907.912 2.006 1.37 3.304 1.37 1.291 0 2.396-.458 3.312-1.37.91-.916 1.369-2.019 1.369-3.311 0-1.296-.459-2.396-1.369-3.304-.915-.913-2.021-1.368-3.312-1.368-1.299-.001-2.395.455-3.304 1.368z"/><path fill="#99837B" d="M654.116 247.835c1.844 1.839 4.065 2.762 6.675 2.762 2.605 0 4.827-.923 6.67-2.762 1.842-1.851 2.763-4.073 2.763-6.683 0-2.61-.921-4.836-2.763-6.677-1.843-1.84-4.063-2.76-6.67-2.76s-4.831.92-6.675 2.76c-1.848 1.841-2.77 4.064-2.77 6.677.001 2.609.923 4.833 2.77 6.683z"/><path fill="#B7A8A2" d="M660.79 236.481c-1.296 0-2.398.455-3.313 1.368-.912.914-1.369 2.013-1.369 3.304 0 1.292.457 2.395 1.369 3.311.913.912 2.018 1.37 3.313 1.37 1.291 0 2.394-.458 3.301-1.37.916-.916 1.368-2.019 1.368-3.311 0-1.291-.452-2.39-1.368-3.304-.914-.912-2.015-1.368-3.301-1.368z"/><path fill="#99837B" d="M712.145 247.835c1.842 1.839 4.064 2.762 6.673 2.762s4.837-.923 6.685-2.762c1.84-1.84 2.761-4.068 2.761-6.683 0-2.61-.921-4.836-2.761-6.677-1.848-1.84-4.074-2.76-6.685-2.76s-4.831.92-6.673 2.76c-1.841 1.841-2.761 4.064-2.761 6.677.001 2.609.92 4.833 2.761 6.683z"/><path fill="#B7A8A2" d="M715.517 237.85c-.912.914-1.371 2.013-1.371 3.304 0 1.292.459 2.395 1.371 3.311.907.912 2.006 1.37 3.301 1.37 1.293 0 2.397-.458 3.313-1.37.916-.916 1.373-2.019 1.373-3.311 0-1.296-.457-2.396-1.373-3.304-.913-.913-2.02-1.368-3.313-1.368-1.296-.001-2.392.455-3.301 1.368z"/><path fill="#99837B" d="M526.325 247.835c1.841 1.839 4.063 2.762 6.669 2.762 2.61 0 4.833-.923 6.676-2.762 1.847-1.851 2.771-4.073 2.771-6.683 0-2.61-.926-4.836-2.771-6.677-1.843-1.84-4.063-2.76-6.676-2.76-2.606 0-4.828.92-6.669 2.76-1.843 1.841-2.762 4.064-2.762 6.677 0 2.609.919 4.833 2.762 6.683z"/><path fill="#B7A8A2" d="M529.686 237.85c-.915.914-1.37 2.013-1.37 3.304 0 1.292.455 2.395 1.37 3.311.913.912 2.018 1.37 3.309 1.37 1.296 0 2.397-.458 3.313-1.37.913-.916 1.372-2.019 1.372-3.311 0-1.291-.459-2.39-1.372-3.304-.916-.913-2.02-1.368-3.313-1.368-1.292-.001-2.396.455-3.309 1.368z"/><path fill="#99837B" d="M529.576 261.197h192.623v2.843h-192.623z"/><path fill="#EEC759" d="M431.901 173.153c-.327 0-.604.113-.84.347-.232.226-.347.498-.347.827v105.993h104.197v-105.994c0-.317-.113-.597-.347-.827-.229-.231-.511-.347-.837-.347l-101.826.001z"/><path fill="#6F615E" d="M430.717 266.881h104.197v13.438h-104.197z"/><path fill="#85736E" d="M451.26 166.238c-.989 0-1.832.354-2.526 1.056-.704.695-1.054 1.538-1.054 2.527v3.332h70.273v-3.332c0-.989-.352-1.832-1.053-2.527-.704-.7-1.551-1.056-2.539-1.056h-63.101z"/><path fill="#EDB154" d="M430.717 226.73h104.197v5.091h-104.197z"/><path fill="#99837B" d="M494.177 183.992c-.327 0-.604.114-.824.348-.232.229-.352.509-.352.837v15.68c0 .326.117.604.352.83.22.229.497.348.824.348h31.692c.328 0 .608-.118.842-.348.23-.228.348-.504.348-.83v-15.68c0-.328-.115-.605-.348-.837-.231-.231-.514-.348-.842-.348h-31.692z"/><path fill="#EDB154" d="M493.938 184.938c-.065.063-.097.146-.097.236v15.681c0 .091.029.17.097.24.072.064.15.098.237.098h31.692c.098 0 .175-.031.24-.098.064-.07.097-.149.097-.24v-15.681c0-.092-.03-.173-.097-.236-.065-.072-.145-.106-.24-.106h-31.692c-.084-.001-.164.033-.237.106zm-1.185-1.184c.392-.398.865-.601 1.425-.601h31.692c.562 0 1.036.2 1.43.601.396.39.601.864.601 1.422v15.681c0 .561-.202 1.036-.601 1.426-.394.401-.868.601-1.43.601h-31.692c-.56 0-1.033-.197-1.425-.601-.397-.39-.603-.865-.603-1.426v-15.681c0-.558.204-1.033.603-1.422z"/><path d="M515.307 186.831c-.073 0-.135.022-.192.069-.048.051-.072.107-.072.181v.479c0 .069.024.131.072.178.06.05.119.073.192.073h8.132c.074 0 .132-.023.181-.073.058-.047.084-.106.084-.178v-.479c0-.07-.026-.13-.084-.181-.049-.047-.104-.069-.181-.069h-8.132zm0 1.687c-.073 0-.135.024-.192.071-.048.05-.072.11-.072.182v.479c0 .072.024.135.072.184.06.048.119.071.192.071h8.132c.074 0 .132-.023.181-.071.058-.049.084-.109.084-.184v-.479c0-.069-.026-.132-.084-.182-.049-.047-.104-.071-.181-.071h-8.132zm7.631 7.643c.207 0 .387-.076.538-.228.152-.152.228-.332.228-.54v-.407c0-.207-.073-.387-.228-.539-.151-.15-.331-.228-.538-.228h-21.081c-.21 0-.388.075-.541.228-.152.152-.228.332-.228.539v.407c0 .208.073.388.228.54.153.149.331.228.541.228h21.081zm0-3.078c.207 0 .387-.076.538-.228.152-.151.228-.33.228-.54v-.407c0-.207-.073-.387-.228-.54-.151-.148-.331-.227-.538-.227h-21.081c-.21 0-.388.075-.541.227-.152.153-.228.333-.228.54v.407c0 .21.073.389.228.54.153.149.331.228.541.228h21.081zm0 6.156c.207 0 .387-.076.538-.227.152-.151.228-.332.228-.538v-.408c0-.208-.073-.387-.228-.539-.151-.15-.331-.229-.538-.229h-21.081c-.21 0-.388.078-.541.229-.152.152-.228.331-.228.539v.408c0 .206.073.387.228.538.153.148.331.227.541.227h21.081zm-26.584-10.721c0 .458.163.849.493 1.174.318.328.712.494 1.174.494.455 0 .847-.166 1.173-.494.33-.325.492-.716.492-1.174 0-.461-.162-.854-.492-1.173-.326-.327-.718-.49-1.173-.49-.462 0-.854.163-1.174.49-.329.32-.493.712-.493 1.173zm0 4.493c0 .467.163.855.493 1.173.318.329.712.494 1.174.494.455 0 .847-.165 1.173-.494.33-.315.492-.706.492-1.173 0-.463-.162-.854-.492-1.176-.326-.325-.718-.488-1.173-.488-.462 0-.854.163-1.174.488-.329.321-.493.714-.493 1.176zm3.129 2.731h-2.935c-.129 0-.194.064-.194.191v.563l.063.143.132.063h2.935l.146-.063.06-.143v-.563l-.06-.131-.147-.06zm-2.932 1.795c-.129 0-.194.069-.194.205v.551c0 .137.065.203.194.203h2.935c.136 0 .203-.066.203-.203v-.551c0-.136-.067-.205-.203-.205h-2.935z" fill="#CBC1BD"/><path d="M518.207 205.362c-.278 0-.517.102-.709.301-.195.199-.301.434-.301.706 0 .279.104.518.301.716.192.2.431.302.709.302h1.485c.279 0 .514-.102.705-.302.2-.198.299-.437.299-.716 0-.272-.099-.507-.299-.706-.198-.199-.436-.301-.705-.301h-1.485zm4.741 0c-.276 0-.516.102-.707.301-.195.199-.298.434-.298.706 0 .279.103.518.298.716.191.2.431.302.707.302h1.483c.28 0 .521-.102.72-.302.193-.198.288-.437.288-.716s-.095-.518-.288-.706c-.198-.199-.438-.301-.72-.301h-1.483zm-7.296 1.722c.201-.198.301-.437.301-.716 0-.272-.1-.507-.301-.706-.2-.199-.436-.301-.706-.301h-1.48c-.28 0-.519.102-.709.301-.2.199-.3.434-.3.706 0 .279.1.518.3.716.19.2.429.302.709.302h1.48c.281-.001.518-.102.706-.302zm5.044 2.108c0-.271-.099-.506-.299-.705-.198-.199-.436-.299-.705-.299h-1.485c-.278 0-.517.1-.709.299-.195.199-.301.436-.301.705 0 .28.104.521.301.721.192.198.431.3.709.3h1.485c.279 0 .514-.102.705-.3.201-.2.299-.44.299-.721zm2.252-1.004c-.276 0-.516.1-.707.299-.195.199-.298.436-.298.705 0 .28.103.521.298.721.191.198.431.3.707.3h1.483c.28 0 .521-.102.72-.3.193-.199.288-.438.288-.721 0-.276-.095-.514-.288-.705-.198-.199-.438-.299-.72-.299h-1.483zm-7.296 1.724c.201-.199.301-.438.301-.721 0-.271-.1-.506-.301-.705-.2-.199-.436-.299-.706-.299h-1.48c-.28 0-.519.1-.709.299-.2.199-.3.436-.3.705 0 .28.1.521.3.721.19.198.429.3.709.3h1.48c.281 0 .518-.101.706-.3zm-15.295-4.55c-.278 0-.517.102-.706.301-.202.199-.301.434-.301.706 0 .279.099.518.301.716.189.2.428.302.706.302h1.485c.279 0 .519-.102.719-.302.19-.198.288-.437.288-.716s-.098-.518-.288-.706c-.2-.199-.438-.301-.719-.301h-1.485zm6.23 2.023c.277 0 .521-.102.719-.302.19-.198.29-.437.29-.716s-.1-.518-.29-.706c-.196-.199-.439-.301-.719-.301h-1.477c-.276 0-.517.102-.714.301-.201.188-.3.427-.3.706s.099.518.3.716c.197.2.438.302.714.302h1.477zm-10.973-2.023c-.28 0-.516.102-.706.301-.201.199-.301.434-.301.706 0 .279.1.518.301.716.19.2.426.302.706.302h1.484c.281 0 .517-.102.707-.302.2-.198.3-.437.3-.716 0-.272-.1-.507-.3-.706-.199-.199-.436-.301-.707-.301h-1.484zm6.948 3.125c-.2-.199-.438-.299-.719-.299h-1.485c-.278 0-.517.1-.706.299-.202.199-.301.436-.301.705 0 .28.099.521.301.721.189.198.428.3.706.3h1.485c.281 0 .519-.102.719-.3.19-.199.288-.438.288-.721 0-.277-.096-.513-.288-.705zm4.025 1.725c.277 0 .521-.102.719-.3.19-.199.29-.438.29-.721 0-.276-.1-.514-.29-.705-.196-.199-.439-.299-.719-.299h-1.477c-.276 0-.517.1-.714.299-.201.191-.3.429-.3.705 0 .28.099.521.3.721.197.198.438.3.714.3h1.477zm-10.973-2.024c-.28 0-.516.1-.706.299-.201.199-.301.436-.301.705 0 .28.1.521.301.721.19.198.426.3.706.3h1.484c.281 0 .517-.102.707-.3.2-.199.3-.438.3-.721 0-.271-.1-.506-.3-.705-.199-.199-.436-.299-.707-.299h-1.484zm22.593 4.495c-.278 0-.517.096-.709.298-.195.196-.301.436-.301.706 0 .278.104.521.301.719.192.198.431.301.709.301h1.485c.279 0 .514-.103.705-.301.2-.197.299-.438.299-.719 0-.271-.099-.51-.299-.706-.198-.202-.436-.298-.705-.298h-1.485zm4.741 0c-.276 0-.516.096-.707.298-.195.196-.298.436-.298.706 0 .278.103.521.298.719.191.198.431.301.707.301h1.483c.28 0 .521-.103.72-.301.193-.197.288-.438.288-.719 0-.281-.095-.517-.288-.706-.198-.202-.438-.298-.72-.298h-1.483zm-8.002 0h-1.48c-.28 0-.519.096-.709.298-.2.196-.3.436-.3.706 0 .278.1.521.3.719.19.198.429.301.709.301h1.48c.28 0 .518-.103.706-.301.201-.197.301-.438.301-.719 0-.271-.1-.51-.301-.706-.2-.203-.433-.298-.706-.298zm3.261 2.825c-.278 0-.517.099-.709.299-.195.199-.301.438-.301.708 0 .276.104.517.301.72.192.197.431.298.709.298h1.485c.279 0 .514-.101.705-.298.2-.203.299-.441.299-.72 0-.271-.099-.509-.299-.708-.198-.2-.436-.299-.705-.299h-1.485zm4.741 0c-.276 0-.516.099-.707.299-.195.199-.298.438-.298.708 0 .276.103.517.298.72.191.197.431.298.707.298h1.483c.28 0 .521-.101.72-.298.193-.203.288-.441.288-.72 0-.282-.095-.518-.288-.708-.198-.2-.438-.299-.72-.299h-1.483zm-9.482 0c-.28 0-.519.099-.709.299-.2.199-.3.438-.3.708 0 .276.1.517.3.72.19.197.429.298.709.298h1.48c.28 0 .518-.101.706-.298.201-.203.301-.441.301-.72 0-.271-.1-.509-.301-.708-.2-.2-.436-.299-.706-.299h-1.48zm-13.109-2.825c-.278 0-.517.096-.706.298-.202.196-.301.436-.301.706 0 .278.099.521.301.719.189.198.428.301.706.301h1.485c.279 0 .519-.103.719-.301.19-.197.288-.438.288-.719 0-.281-.098-.517-.288-.706-.2-.202-.438-.298-.719-.298h-1.485zm6.947.297c-.196-.202-.439-.298-.719-.298h-1.477c-.275 0-.517.096-.714.298-.201.189-.3.426-.3.706 0 .278.099.521.3.719.197.198.438.301.714.301h1.477c.277 0 .521-.103.719-.301.19-.197.29-.438.29-.719 0-.281-.098-.515-.29-.706zm-11.69-.297c-.28 0-.516.096-.706.298-.201.196-.301.436-.301.706 0 .278.1.521.301.719.19.198.426.301.706.301h1.484c.281 0 .517-.103.707-.301.2-.197.3-.438.3-.719 0-.271-.1-.51-.3-.706-.199-.202-.436-.298-.707-.298h-1.484zm4.743 2.825c-.278 0-.517.099-.706.299-.202.199-.301.438-.301.708 0 .276.099.517.301.72.189.197.428.298.706.298h1.485c.279 0 .519-.101.719-.298.19-.203.288-.441.288-.72 0-.282-.098-.518-.288-.708-.2-.2-.438-.299-.719-.299h-1.485zm4.753 0c-.276 0-.517.099-.714.299-.201.19-.3.426-.3.708 0 .276.099.517.3.72.197.197.438.298.714.298h1.477c.277 0 .521-.101.719-.298.19-.203.29-.441.29-.72 0-.282-.1-.518-.29-.708-.196-.2-.439-.299-.719-.299h-1.477zm-8.011 2.023c.281 0 .517-.101.707-.298.2-.203.3-.441.3-.72 0-.271-.1-.509-.3-.708-.199-.2-.436-.299-.707-.299h-1.484c-.278 0-.516.099-.706.299-.2.199-.301.438-.301.708 0 .276.101.517.301.72.19.197.428.298.706.298h1.484z" fill="#EAA754"/><path fill="#F3F1EF" d="M477.707 185.789c-.886.895-1.329 1.967-1.329 3.224 0 1.261.443 2.335 1.329 3.22.889.89 1.961 1.33 3.225 1.33 1.254 0 2.325-.44 3.221-1.33.887-.885 1.328-1.959 1.328-3.22 0-1.257-.441-2.329-1.328-3.224-.896-.891-1.967-1.329-3.221-1.329-1.264 0-2.338.439-3.225 1.329z"/><path fill="#EDB154" d="M477.946 186.028c-.824.828-1.233 1.824-1.233 2.983 0 1.162.41 2.158 1.233 2.98.823.821 1.816 1.233 2.983 1.233 1.154 0 2.148-.412 2.981-1.233.82-.822 1.234-1.818 1.234-2.98 0-1.159-.414-2.155-1.234-2.983-.833-.823-1.827-1.234-2.981-1.234-1.166-.001-2.159.41-2.983 1.234zm2.984-1.904c1.349 0 2.498.479 3.448 1.438.957.945 1.438 2.101 1.438 3.449 0 1.348-.48 2.497-1.438 3.445-.95.959-2.102 1.438-3.448 1.438-1.353 0-2.501-.479-3.449-1.438-.961-.948-1.438-2.099-1.438-3.445 0-1.351.479-2.504 1.438-3.449.948-.958 2.098-1.438 3.449-1.438zm-.36 2.167v2.659c0 .104.035.188.107.253.063.071.146.105.252.105.095 0 .177-.034.251-.105.072-.063.106-.147.106-.253v-2.659c0-.099-.034-.181-.106-.248-.074-.076-.156-.11-.251-.11-.104 0-.189.034-.252.11-.072.068-.107.15-.107.248z"/><path fill="#F3F1EF" d="M438.274 189.012c0 1.261.444 2.335 1.33 3.22.883.89 1.959 1.33 3.22 1.33 1.255 0 2.328-.44 3.226-1.33.886-.885 1.33-1.959 1.33-3.22 0-1.257-.444-2.329-1.33-3.224-.896-.891-1.971-1.329-3.226-1.329-1.261 0-2.337.438-3.22 1.329-.885.895-1.33 1.968-1.33 3.224z"/><path fill="#EDB154" d="M439.844 186.028c-.823.828-1.234 1.824-1.234 2.983 0 1.162.411 2.158 1.234 2.98.821.821 1.813 1.233 2.979 1.233 1.162 0 2.153-.412 2.983-1.233.823-.822 1.234-1.818 1.234-2.98 0-1.159-.411-2.155-1.234-2.983-.83-.823-1.821-1.234-2.983-1.234-1.164-.001-2.157.41-2.979 1.234zm-.469-.465c.951-.958 2.104-1.438 3.449-1.438 1.353 0 2.5.479 3.449 1.438.96.945 1.44 2.101 1.44 3.449 0 1.348-.48 2.498-1.44 3.445-.949.959-2.099 1.438-3.449 1.438-1.348 0-2.498-.479-3.449-1.438-.954-.947-1.438-2.099-1.438-3.445.001-1.35.484-2.503 1.438-3.449zm3.7 3.64c.072-.063.109-.147.109-.253v-2.659c0-.099-.037-.181-.109-.248-.066-.076-.152-.11-.251-.11-.103 0-.185.034-.25.11-.07.067-.104.149-.104.248v2.659c0 .104.034.188.104.253.065.071.147.105.25.105.099.002.185-.033.251-.105z"/><path fill="#F3F1EF" d="M467.465 184.543c-1.228.257-2.189.904-2.888 1.95-.7 1.041-.931 2.178-.682 3.416.255 1.229.906 2.19 1.953 2.887 1.045.704 2.187.931 3.424.684 1.23-.254 2.193-.906 2.889-1.952.697-1.045.918-2.188.669-3.427-.257-1.229-.904-2.189-1.95-2.886-1.048-.695-2.187-.92-3.415-.672z"/><path fill="#EDB154" d="M470.7 185.499c-.967-.646-2.022-.854-3.176-.621-1.141.231-2.028.832-2.67 1.798-.639.976-.848 2.032-.625 3.174.234 1.141.831 2.03 1.798 2.672.967.639 2.024.848 3.175.621 1.145-.229 2.031-.83 2.673-1.795.646-.969.854-2.025.62-3.178-.231-1.139-.829-2.028-1.795-2.671zm.371-.561c1.117.743 1.813 1.776 2.084 3.103.271 1.324.031 2.554-.719 3.68-.744 1.115-1.777 1.813-3.103 2.084-1.325.262-2.553.023-3.68-.721-1.115-.752-1.813-1.787-2.083-3.102-.265-1.327-.023-2.553.722-3.682.748-1.114 1.78-1.813 3.101-2.082 1.326-.269 2.551-.031 3.678.72zm-2.552 3.738l-2.215-1.462c-.089-.058-.18-.076-.276-.062-.096.022-.171.074-.227.155-.054.091-.072.178-.05.265.015.096.066.175.154.229l2.206 1.475c.085.058.182.075.274.059.099-.022.171-.072.227-.152.06-.08.072-.173.047-.276-.013-.099-.062-.178-.14-.231z"/><path fill="#F3F1EF" d="M453.114 185.226c-1.045.701-1.688 1.671-1.928 2.896-.248 1.237-.021 2.38.683 3.427.704 1.047 1.668 1.688 2.899 1.93 1.229.236 2.367.008 3.413-.693 1.048-.705 1.688-1.668 1.929-2.897.247-1.229.021-2.366-.682-3.416-.703-1.044-1.672-1.688-2.898-1.928-1.241-.25-2.379-.021-3.416.681z"/><path fill="#EDB154" d="M453.296 185.513c-.966.647-1.563 1.541-1.782 2.685-.229 1.144-.014 2.192.633 3.161.646.965 1.546 1.563 2.696 1.783 1.141.227 2.194.014 3.161-.636.964-.646 1.561-1.538 1.784-2.683.224-1.143.015-2.193-.634-3.16-.647-.968-1.544-1.563-2.688-1.786-1.147-.222-2.203-.012-3.17.636zm-.371-.563c1.118-.749 2.34-.995 3.667-.73 1.324.255 2.359.943 3.111 2.061.75 1.12.996 2.341.741 3.667-.262 1.323-.95 2.365-2.071 3.123-1.116.751-2.339.995-3.664.733-1.322-.266-2.364-.953-3.111-2.075-.761-1.115-1.009-2.336-.744-3.664.262-1.324.953-2.365 2.071-3.115zm2.968 4.325l2.206-1.475c.087-.064.141-.14.155-.229.018-.103-.008-.195-.063-.274-.056-.081-.131-.131-.227-.155-.087-.016-.177.005-.267.06l-2.201 1.477c-.079.054-.133.134-.155.238-.018.088.003.174.06.266.059.08.132.13.228.152.097.016.185-.003.264-.06z"/><path d="M439.1 203.36c-.23 0-.426.054-.585.157-.161.095-.24.216-.24.357v2.061c0 .137.079.256.24.358.164.104.361.156.585.156h45.039c.229 0 .431-.054.6-.156.156-.104.239-.224.239-.358v-2.061c0-.144-.083-.265-.239-.357-.169-.104-.368-.157-.6-.157h-45.039zm0-5.63c-.224 0-.421.048-.585.146-.161.104-.24.225-.24.359v2.058c0 .146.079.271.24.375.159.097.354.143.585.143h45.039c.229 0 .431-.046.6-.143.156-.104.239-.229.239-.375v-2.058c0-.137-.083-.257-.239-.359-.169-.098-.368-.146-.6-.146h-45.039zm0 11.259c-.23 0-.426.051-.585.156-.161.098-.24.216-.24.359v2.061c0 .145.079.268.24.373.159.094.354.144.585.144h45.039c.229 0 .431-.049.6-.144.156-.105.239-.229.239-.373v-2.061c0-.146-.083-.264-.239-.359-.169-.105-.368-.156-.6-.156h-45.039z" fill="#F1F2F3"/><path fill="#7E939C" d="M605.533 75.056c0 .527-.06 1.045-.18 1.551-2.935 17.771-14.815 26.671-35.643 26.695h-69.697c-7.383.145-11.712 3.307-12.987 9.487v53.644h-16.666v-54.4c0-.361.024-.746.072-1.155 1.996-15.944 11.821-24.025 29.473-24.241h69.806c10.63-.024 17.004-4.186 19.119-12.482v-75h16.702l.001 75.901z"/><path stroke="#657D8B" stroke-width=".722" stroke-linecap="round" stroke-linejoin="round" stroke-miterlimit="3" d="M588.289 9.147h17.678m-17.678 36.941h18.074m-18.65 29.906l17.604 5.483m-31.817 4.726v17.821m-43.147-17.821v17.821m-50.794-12.193l11.399 14.972m-21.356 30.807h17.856" fill="none"/><path fill="#93A4AC" d="M636.631 115.677v-6.277h48.124v6.277z"/><path fill="#657D8B" d="M636.631 115.677h48.124l-9.704 7.106v-.072h-28.537v.181-.181h28.537v12.157h-8.333v.181h-12.05v-.181h12.05-12.05-8.154v-11.976z"/><path stroke="#657D8B" stroke-width=".072" stroke-linecap="round" stroke-linejoin="round" stroke-miterlimit="3" d="M675.051 134.868h-28.537v-12.157h28.537v.072z" fill="none"/><path stroke="#fff" stroke-width="1.443" stroke-linecap="round" stroke-linejoin="round" stroke-miterlimit="3" d="M581.182 96.341c10.029-2.333 16.317-7.673 18.867-16.018m-124.494 27.886c3.03-10.316 9.344-15.536 18.938-15.655" fill="none"/><use xlink:href="#d" width="157" height="29.5" x="-78.5" y="-14.75" transform="matrix(.722 0 0 -.722 912.452 310.381)" overflow="visible"/><use xlink:href="#e" width="183.339" height="126.185" x="-91.67" y="-63.092" transform="matrix(.722 0 0 -.722 911.834 236.095)" overflow="visible"/><use xlink:href="#f" width="98.801" height="60.399" x="-49.4" y="-30.2" transform="matrix(.722 0 0 -.722 887.1 281.15)" overflow="visible"/><use xlink:href="#f" width="98.801" height="60.399" x="-49.4" y="-30.2" transform="matrix(.722 0 0 -.722 942.655 281.15)" overflow="visible"/><use xlink:href="#g" width="64.802" height="86.807" x="-32.401" y="-43.404" transform="matrix(1.006 .101 -.173 -.759 939.517 257.297)" overflow="visible"/><use xlink:href="#g" width="64.802" height="86.807" x="-32.401" y="-43.404" transform="matrix(1.009 .132 -.097 -.67 883.997 261.129)" overflow="visible"/><use xlink:href="#f" width="98.801" height="60.399" x="-49.4" y="-30.2" transform="matrix(.722 0 0 -.722 884.575 256.258)" overflow="visible"/><use xlink:href="#f" width="98.801" height="60.399" x="-49.4" y="-30.2" transform="matrix(.722 0 0 -.722 940.13 256.258)" overflow="visible"/><use xlink:href="#g" width="64.802" height="86.807" x="-32.401" y="-43.404" transform="matrix(1.011 .05 -.096 -.562 940.588 240.325)" overflow="visible"/><use xlink:href="#g" width="64.802" height="86.807" x="-32.401" y="-43.404" transform="matrix(1.011 .076 -.041 -.572 883.393 242.164)" overflow="visible"/><use xlink:href="#f" width="98.801" height="60.399" x="-49.4" y="-30.2" transform="matrix(.722 0 0 -.722 886.09 231.944)" overflow="visible"/><use xlink:href="#f" width="98.801" height="60.399" x="-49.4" y="-30.2" transform="matrix(.722 0 0 -.722 941.645 231.944)" overflow="visible"/><use xlink:href="#d" width="157" height="29.5" x="-78.5" y="-14.75" transform="matrix(.722 0 0 -.722 815.186 335.339)" overflow="visible"/><use xlink:href="#e" width="183.339" height="126.185" x="-91.67" y="-63.092" transform="matrix(.722 0 0 -.722 814.568 261.053)" overflow="visible"/><use xlink:href="#f" width="98.801" height="60.399" x="-49.4" y="-30.2" transform="matrix(.722 0 0 -.722 789.835 306.108)" overflow="visible"/><use xlink:href="#f" width="98.801" height="60.399" x="-49.4" y="-30.2" transform="matrix(.722 0 0 -.722 845.389 306.108)" overflow="visible"/><use xlink:href="#g" width="64.802" height="86.807" x="-32.401" y="-43.404" transform="matrix(1.006 .101 -.173 -.759 842.251 282.255)" overflow="visible"/><use xlink:href="#g" width="64.802" height="86.807" x="-32.401" y="-43.404" transform="matrix(1.009 .132 -.097 -.67 786.731 286.087)" overflow="visible"/><use xlink:href="#f" width="98.801" height="60.399" x="-49.4" y="-30.2" transform="matrix(.722 0 0 -.722 787.309 281.216)" overflow="visible"/><use xlink:href="#f" width="98.801" height="60.399" x="-49.4" y="-30.2" transform="matrix(.722 0 0 -.722 842.864 281.216)" overflow="visible"/><use xlink:href="#g" width="64.802" height="86.807" x="-32.401" y="-43.404" transform="matrix(1.011 .05 -.096 -.562 843.322 265.283)" overflow="visible"/><use xlink:href="#g" width="64.802" height="86.807" x="-32.401" y="-43.404" transform="matrix(1.011 .076 -.041 -.572 786.128 267.122)" overflow="visible"/><use xlink:href="#f" width="98.801" height="60.399" x="-49.4" y="-30.2" transform="matrix(.722 0 0 -.722 788.824 256.902)" overflow="visible"/><use xlink:href="#f" width="98.801" height="60.399" x="-49.4" y="-30.2" transform="matrix(.722 0 0 -.722 844.38 256.902)" overflow="visible"/><path fill="#C6CFD5" d="M666.639 152.995c-.385 1.25-.349 2.272.106 3.066 1.54 2.165 2.563 5.615 3.066 10.354.146 1.274.253 2.633.326 4.076l.072 2.165c.048 2.453 0 4.641-.146 6.566-.146 2.332-.397 4.292-.758 5.88-.337 1.441-.771 2.585-1.3 3.427-1.082 1.779-2.935 2.837-5.556 3.174l-16.232-.647c-2.333.169-3.824-.649-4.474-2.453-.169-1.105-.301-2.272-.396-3.499-.048-.385-.084-.781-.108-1.19-.047-.554-.084-1.119-.106-1.696-.048-.962-.098-1.959-.145-2.993 0-.844-.014-1.708-.037-2.599 0-2.334.062-4.811.182-7.431l.145-2.778c.023-.528.061-1.069.107-1.624.191-3.127.709-5.58 1.551-7.358l.36-.686-.36-.758-1.804-3.896-.253-.541.253.035c.602 0 1.203.015 1.804.037 4.594.073 8.742-.384 12.445-1.37l.254-.072c1.467-.409 2.754-.734 3.86-.976.479-.12.937-.216 1.369-.288 1.443-.289 2.501-.396 3.176-.324.48.071.975.18 1.479.324.289.072.564.168.83.288.864.241 1.37.397 1.514.47.098.049.134.097.109.145-.049.048-.013.108.107.181-.694 1.104-1.175 2.101-1.44 2.991zm-19.119 3.608c-2.285 1.948-3.415 4.726-3.392 8.333-.023-3.608 1.107-6.384 3.392-8.333.265-.914-.301-1.659-1.696-2.237 1.395.578 1.961 1.323 1.696 2.237zm4.221 3.824c-.985-1.443-1.082-2.898-.288-4.365-.793 1.467-.697 2.922.288 4.365zm12.268-7.432c-.723.434-1.06 1.166-1.012 2.2 2.284 1.371 3.414 3.583 3.392 6.638.022-3.055-1.106-5.267-3.392-6.638-.049-1.034.289-1.767 1.012-2.2.238-.145.516-.252.828-.325-.314.072-.59.181-.828.325z"/><path stroke="#C6CFD5" stroke-width=".722" stroke-linecap="round" stroke-linejoin="round" stroke-miterlimit="3" d="M667.866 149.677c-.144-.072-.648-.229-1.514-.47-.266-.12-.541-.216-.831-.288-.505-.145-.998-.253-1.479-.324-.674-.072-1.73.036-3.175.324-.434.072-.89.168-1.37.288-1.105.241-2.394.565-3.859.976l-.254.072c-3.703.986-7.853 1.443-12.445 1.37-.601-.022-1.202-.037-1.804-.037l-.253-.035.253.541 1.804 3.896.36.758c-.119.216-.239.445-.36.686-.842 1.779-1.357 4.231-1.551 7.358-.048.554-.084 1.095-.107 1.624l-.145 2.778c-.12 2.621-.182 5.098-.182 7.431.023.892.037 1.755.037 2.599.047 1.033.097 2.031.145 2.993.022.577.061 1.143.106 1.696.024.409.062.806.108 1.19.097 1.228.229 2.394.396 3.499.648 1.804 2.141 2.621 4.474 2.453l16.233.647c2.621-.336 4.474-1.394 5.556-3.174.529-.842.963-1.984 1.3-3.427.359-1.587.611-3.548.757-5.88.146-1.926.192-4.113.146-6.566l-.072-2.165c-.072-1.443-.181-2.802-.326-4.076-.504-4.738-1.526-8.188-3.066-10.354-.455-.794-.491-1.816-.106-3.066.265-.89.746-1.888 1.442-2.994" fill="none"/><path stroke="#C6CFD5" stroke-width="1.443" stroke-linecap="round" stroke-linejoin="round" stroke-miterlimit="3" d="M644.13 164.936c-.023-3.607 1.105-6.385 3.392-8.333.265-.914-.301-1.659-1.696-2.237m5.915 6.061c-.985-1.443-1.082-2.898-.288-4.365m14.934 5.772c.022-3.055-1.106-5.267-3.392-6.638-.049-1.034.289-1.767 1.012-2.2.238-.145.516-.252.828-.325" fill="none"/><path fill="#F3F3F3" d="M665.125 152.166c-.378 1.243-.342 2.267.108 3.066 1.551 2.155 2.579 5.605 3.084 10.354.144 1.267.244 2.625.307 4.076.034.7.06 1.422.073 2.164.036 2.442-.006 4.631-.127 6.566-.146 2.326-.404 4.286-.775 5.88-.341 1.44-.773 2.584-1.3 3.427-1.082 1.779-2.934 2.837-5.554 3.174l-16.234-.647c-2.333.168-3.823-.649-4.474-2.453-.158-1.111-.291-2.279-.396-3.499l-.108-1.19c-.039-.556-.074-1.12-.108-1.695-.057-.97-.099-1.968-.126-2.994-.021-.847-.032-1.711-.036-2.599-.009-2.335.046-4.813.162-7.432.04-.908.09-1.833.146-2.777l.106-1.624c.19-3.135.707-5.587 1.552-7.358.113-.242.233-.471.359-.687l-.359-.774-1.805-3.878-.252-.542.252.018c.609.023 1.211.041 1.805.054 4.597.066 8.745-.39 12.444-1.371l.253-.071c1.459-.398 2.745-.725 3.86-.975.489-.11.946-.207 1.37-.289 1.453-.276 2.511-.386 3.175-.324.49.062.989.17 1.498.325.272.083.549.18.829.288.854.24 1.353.396 1.498.47.095.048.131.096.106.144-.049.047-.013.108.107.181-.687 1.108-1.169 2.106-1.44 2.992zm-14.899 7.431c-.986-1.443-1.083-2.898-.288-4.365-.795 1.467-.698 2.922.288 4.365zm-4.22-3.823c-2.284 1.947-3.414 4.726-3.391 8.333-.023-3.608 1.105-6.386 3.391-8.333.266-.915-.301-1.66-1.695-2.237 1.393.577 1.959 1.322 1.695 2.237zm16.485-3.609c-.727.433-1.063 1.165-1.009 2.201 2.284 1.37 3.414 3.583 3.391 6.638.023-3.054-1.105-5.268-3.391-6.638-.055-1.036.281-1.769 1.009-2.201.235-.14.514-.249.829-.325-.315.077-.594.185-.829.325z"/><path stroke="#F3F3F3" stroke-width=".722" stroke-linecap="round" stroke-linejoin="round" stroke-miterlimit="3" d="M666.352 148.847c-.146-.073-.646-.229-1.499-.47-.279-.108-.557-.205-.829-.289-.508-.154-1.006-.263-1.497-.324-.664-.062-1.722.047-3.175.325-.424.082-.881.179-1.37.288-1.115.25-2.402.575-3.86.975l-.253.071c-3.699.981-7.849 1.438-12.444 1.371-.594-.013-1.194-.03-1.805-.054l-.252-.018.252.541 1.805 3.878.359.774c-.126.215-.246.444-.359.687-.845 1.771-1.36 4.224-1.552 7.358l-.106 1.624c-.056.944-.104 1.87-.146 2.777-.116 2.619-.171 5.096-.162 7.432.004.887.016 1.752.036 2.599.027 1.025.069 2.023.126 2.994.033.575.068 1.14.108 1.695l.108 1.19c.104 1.221.236 2.388.396 3.5.649 1.804 2.141 2.62 4.474 2.452l16.234.647c2.621-.336 4.472-1.394 5.554-3.174.525-.843.959-1.985 1.3-3.427.37-1.594.631-3.553.775-5.88.121-1.937.163-4.124.127-6.566-.015-.743-.039-1.464-.073-2.165-.063-1.451-.163-2.809-.307-4.076-.505-4.748-1.533-8.198-3.085-10.354-.449-.8-.485-1.823-.108-3.066.272-.886.753-1.883 1.443-2.994" fill="none"/><path stroke="#C6CFD5" stroke-width="1.443" stroke-linecap="round" stroke-linejoin="round" stroke-miterlimit="3" d="M650.226 159.597c-.986-1.443-1.083-2.898-.288-4.365m-7.323 8.875c-.023-3.607 1.105-6.386 3.391-8.333.266-.915-.301-1.66-1.695-2.237m20.561 7.467c.024-3.054-1.104-5.268-3.39-6.638-.056-1.036.281-1.769 1.009-2.201.235-.14.514-.249.829-.325" fill="none"/><path fill="#C6CFD5" d="M590.024 152.269c-.385 1.25-.348 2.271.107 3.065 1.54 2.165 2.563 5.615 3.065 10.354.146 1.273.253 2.633.326 4.076l.072 2.165c.048 2.452 0 4.641-.146 6.565-.145 2.332-.396 4.292-.758 5.88-.337 1.442-.771 2.585-1.3 3.428-1.082 1.778-2.935 2.837-5.555 3.174l-16.233-.648c-2.333.169-3.824-.648-4.473-2.453-.169-1.104-.302-2.271-.397-3.499-.048-.385-.084-.781-.107-1.189-.048-.555-.084-1.119-.107-1.696-.048-.962-.097-1.959-.144-2.994 0-.843-.015-1.708-.037-2.598 0-2.334.061-4.812.181-7.431l.146-2.778c.022-.529.06-1.07.106-1.624.192-3.127.709-5.58 1.551-7.359l.36-.685-.36-.758-1.804-3.896-.253-.541.253.036c.603 0 1.203.014 1.804.037 4.595.073 8.742-.384 12.445-1.37l.254-.073c1.467-.409 2.754-.733 3.86-.975.479-.12.937-.216 1.37-.288 1.442-.289 2.501-.397 3.175-.325.48.072.975.18 1.479.325.289.072.564.168.83.288.864.241 1.37.396 1.515.469.097.049.133.097.108.146-.049.048-.013.107.107.181-.694 1.103-1.175 2.101-1.44 2.991zm-19.119 3.607c-2.285 1.948-3.415 4.727-3.392 8.333-.023-3.607 1.107-6.385 3.392-8.333.266-.914-.301-1.658-1.695-2.236 1.394.577 1.961 1.322 1.695 2.236zm4.222 3.824c-.986-1.443-1.082-2.897-.288-4.365-.793 1.467-.7 2.922.288 4.365zm12.265-7.431c-.722.433-1.059 1.166-1.011 2.2 2.284 1.37 3.414 3.583 3.391 6.638.023-3.055-1.106-5.268-3.391-6.638-.047-1.034.291-1.767 1.011-2.2.239-.146.516-.252.828-.325-.312.072-.587.18-.828.325z"/><path stroke="#C6CFD5" stroke-width=".722" stroke-linecap="round" stroke-linejoin="round" stroke-miterlimit="3" d="M591.252 148.949c-.145-.072-.649-.228-1.515-.469-.266-.12-.541-.216-.831-.288-.505-.146-.998-.253-1.479-.325-.673-.072-1.73.037-3.174.325-.435.072-.891.168-1.37.288-1.106.241-2.395.564-3.86.975l-.254.073c-3.703.986-7.852 1.443-12.445 1.37-.601-.023-1.202-.037-1.804-.037l-.253-.036.253.541 1.804 3.896.36.758c-.119.216-.239.444-.36.685-.842 1.78-1.356 4.232-1.551 7.359-.048.553-.084 1.094-.107 1.624l-.145 2.777c-.12 2.621-.181 5.099-.181 7.432.022.891.036 1.755.036 2.598.048 1.034.097 2.032.145 2.994.022.577.061 1.142.106 1.696.024.409.062.806.108 1.189.097 1.229.229 2.395.396 3.499.648 1.805 2.141 2.621 4.474 2.453l16.233.648c2.621-.336 4.474-1.395 5.556-3.175.53-.842.963-1.983 1.3-3.427.36-1.587.612-3.548.757-5.88.146-1.925.192-4.113.146-6.565l-.072-2.165c-.072-1.443-.18-2.803-.326-4.076-.504-4.738-1.525-8.189-3.065-10.354-.455-.794-.492-1.815-.107-3.065.265-.891.746-1.889 1.443-2.994" fill="none"/><path stroke="#C6CFD5" stroke-width="1.443" stroke-linecap="round" stroke-linejoin="round" stroke-miterlimit="3" d="M567.513 164.209c-.023-3.606 1.105-6.385 3.392-8.333.266-.914-.301-1.658-1.695-2.236m5.917 6.06c-.986-1.443-1.082-2.897-.288-4.365m14.933 5.772c.023-3.055-1.106-5.268-3.391-6.638-.05-1.034.289-1.768 1.011-2.2.239-.146.516-.252.828-.325" fill="none"/><path fill="#F3F3F3" d="M588.51 151.44c-.378 1.243-.342 2.266.107 3.065 1.552 2.155 2.579 5.606 3.084 10.354.144 1.266.244 2.625.308 4.076.033.7.059 1.422.072 2.164.036 2.441-.006 4.631-.127 6.565-.146 2.326-.403 4.286-.774 5.879-.341 1.442-.774 2.584-1.3 3.428-1.082 1.778-2.935 2.837-5.555 3.174l-16.233-.648c-2.333.168-3.824-.648-4.475-2.453-.158-1.11-.291-2.278-.396-3.5l-.108-1.189c-.039-.557-.074-1.12-.107-1.696-.058-.969-.1-1.967-.126-2.994-.021-.846-.033-1.711-.036-2.598-.009-2.335.045-4.813.162-7.432.04-.908.089-1.833.145-2.777l.107-1.624c.189-3.135.707-5.587 1.551-7.359.114-.242.234-.47.36-.686l-.36-.775-1.804-3.878-.252-.542.252.019c.608.022 1.211.041 1.804.054 4.597.065 8.745-.39 12.445-1.371l.253-.072c1.459-.397 2.745-.724 3.859-.974.489-.111.946-.207 1.37-.289 1.453-.277 2.511-.386 3.175-.325.49.063.989.17 1.498.326.272.083.549.179.829.288.854.24 1.354.396 1.498.469.095.048.131.096.107.145-.05.047-.014.107.106.181-.688 1.11-1.168 2.108-1.439 2.995zm-14.899 7.431c-.986-1.442-1.083-2.897-.288-4.365-.795 1.467-.698 2.921.288 4.365zm-4.222-3.824c-2.284 1.947-3.414 4.727-3.391 8.333-.023-3.607 1.107-6.386 3.391-8.333.266-.915-.3-1.659-1.695-2.236 1.396.576 1.961 1.322 1.695 2.236zm16.488-3.608c-.728.432-1.064 1.165-1.01 2.201 2.284 1.37 3.414 3.583 3.391 6.638.023-3.054-1.105-5.268-3.391-6.638-.056-1.037.281-1.769 1.01-2.201.234-.141.513-.249.828-.325-.317.077-.594.185-.828.325z"/><path stroke="#F3F3F3" stroke-width=".722" stroke-linecap="round" stroke-linejoin="round" stroke-miterlimit="3" d="M589.737 148.12c-.146-.073-.645-.229-1.499-.469-.279-.109-.557-.205-.829-.289-.508-.155-1.006-.263-1.497-.325-.664-.061-1.722.047-3.175.326-.424.082-.881.178-1.37.288-1.114.25-2.401.575-3.859.974l-.253.072c-3.7.981-7.85 1.438-12.445 1.371-.593-.013-1.194-.031-1.804-.054l-.252-.019.252.541 1.804 3.878.36.775c-.126.215-.246.444-.36.686-.844 1.772-1.36 4.225-1.551 7.359l-.107 1.624c-.056.944-.104 1.87-.145 2.777-.117 2.618-.171 5.096-.162 7.432.003.886.015 1.752.036 2.598.026 1.026.068 2.024.126 2.994.032.576.067 1.14.107 1.696l.108 1.189c.104 1.222.236 2.389.396 3.5.649 1.805 2.142 2.62 4.475 2.452l16.233.648c2.621-.336 4.473-1.395 5.555-3.174.524-.844.959-1.985 1.3-3.428.37-1.594.63-3.553.774-5.88.121-1.936.163-4.124.127-6.565-.015-.743-.039-1.464-.072-2.165-.063-1.451-.164-2.81-.308-4.076-.505-4.748-1.532-8.199-3.085-10.354-.449-.8-.484-1.822-.107-3.065.271-.886.753-1.883 1.442-2.994" fill="none"/><path stroke="#C6CFD5" stroke-width="1.443" stroke-linecap="round" stroke-linejoin="round" stroke-miterlimit="3" d="M573.611 158.871c-.986-1.442-1.083-2.897-.288-4.365m-7.323 8.874c-.023-3.606 1.105-6.386 3.391-8.333.266-.915-.3-1.659-1.695-2.236m20.562 7.466c.023-3.054-1.105-5.269-3.391-6.638-.056-1.036.281-1.77 1.01-2.201.234-.141.513-.249.828-.325" fill="none"/><path fill="#E0E4E7" d="M637.399 176.174c2.861-.769 4.532-1.202 5.013-1.298.241-.048 1.119.013 2.635.181s2.524.205 3.028.108c-.553.624-.914 1.539-1.083 2.741-.264 1.996-.396 3.006-.396 3.031-.193.745-.098 1.646.288 2.706.239.601.661 1.525 1.263 2.776 1.104 2.188 1.96 4.932 2.561 8.227.675 3.702.964 7.827.866 12.372-.072 3.223-.106 7.251-.106 12.085-.146 3.463-.662 5.893-1.552 7.288-1.468 2.26-3.944 3.606-7.433 4.04l-21.572-.793c-4.23.407-6.816-1.071-7.756-4.438.024-7.119.458-16.859 1.299-29.221.313-4.545 1.167-7.974 2.563-10.281l-3.175-6.674c7.335.337 15.187-.613 23.557-2.85z"/><path stroke="#E0E4E7" stroke-width=".722" stroke-linecap="round" stroke-linejoin="round" stroke-miterlimit="3" d="M617.017 185.698c-1.396 2.309-2.249 5.735-2.563 10.281-.841 12.36-1.273 22.101-1.298 29.22.938 3.367 3.523 4.846 7.756 4.438l21.571.794c3.488-.434 5.966-1.78 7.433-4.04.89-1.396 1.406-3.825 1.552-7.288 0-4.835.035-8.862.106-12.085.098-4.546-.191-8.67-.864-12.373-.603-3.295-1.455-6.037-2.563-8.227-.601-1.251-1.021-2.177-1.264-2.776-.384-1.06-.48-1.961-.287-2.706 0-.024.132-1.035.396-3.031.169-1.203.529-2.117 1.082-2.741-.504.097-1.515.061-3.028-.108-1.515-.168-2.394-.229-2.635-.181-.479.097-2.15.53-5.013 1.298-8.37 2.237-16.223 3.188-23.558 2.851l3.177 6.674z" fill="none"/><path fill="#fff" d="M630.941 176.012c5.509-1.507 9.093-2.173 10.75-2.002s3.388.76 5.194 1.768c-2.115 3.434-2.692 6.032-1.73 7.792 2.797 3.842 4.274 10.912 4.438 21.212.165 10.295-.762 17.076-2.779 20.346-1.394 2.262-3.774 3.607-7.142 4.04l-20.778-.793c-2.982.191-4.896-.865-5.736-3.175-1.131-7.961-1.286-18.122-.468-30.483.287-4.545 1.104-7.973 2.452-10.28l-3.066-6.674c7.068.336 13.357-.248 18.865-1.751z"/><path stroke="#fff" stroke-width=".722" stroke-linecap="round" stroke-linejoin="round" stroke-miterlimit="3" d="M615.14 184.435c-1.347 2.309-2.165 5.735-2.452 10.28-.818 12.361-.663 22.522.468 30.483.842 2.309 2.754 3.366 5.736 3.175l20.778.793c3.366-.433 5.747-1.778 7.142-4.04 2.02-3.27 2.944-10.051 2.779-20.346-.162-10.301-1.641-17.37-4.438-21.212-.962-1.761-.386-4.358 1.73-7.792-1.808-1.007-3.537-1.597-5.194-1.769-1.657-.171-5.241.497-10.751 2.003-5.507 1.503-11.796 2.087-18.866 1.749l3.068 6.676z" fill="none"/><path stroke="#E0E4E7" stroke-width="1.443" stroke-linecap="round" stroke-linejoin="round" stroke-miterlimit="3" d="M625.964 189.124c-1.269-1.863-1.389-3.727-.361-5.591m19.118 7.395c.036-3.892-1.407-6.717-4.329-8.478-.107-1.749.675-2.831 2.345-3.247m-26.515 15.694c-.018-4.591 1.427-8.139 4.329-10.644.337-1.173-.386-2.135-2.165-2.885" fill="none"/><path fill="#E0E4E7" d="M707.386 176.174c2.86-.769 4.531-1.202 5.013-1.298.241-.048 1.119.013 2.634.181 1.517.168 2.525.205 3.029.108-.553.624-.914 1.539-1.083 2.741-.264 1.996-.396 3.006-.396 3.031-.192.745-.097 1.646.288 2.706.24.601.661 1.525 1.264 2.776 1.104 2.188 1.96 4.932 2.561 8.227.674 3.702.963 7.827.866 12.372-.072 3.223-.107 7.251-.107 12.085-.146 3.463-.661 5.893-1.551 7.288-1.468 2.26-3.945 3.606-7.433 4.04l-21.572-.793c-4.231.407-6.817-1.071-7.756-4.438.023-7.119.458-16.859 1.299-29.221.313-4.545 1.167-7.974 2.563-10.281l-3.176-6.674c7.335.337 15.187-.613 23.557-2.85z"/><path stroke="#E0E4E7" stroke-width=".722" stroke-linecap="round" stroke-linejoin="round" stroke-miterlimit="3" d="M687.006 185.698c-1.396 2.309-2.249 5.735-2.563 10.281-.841 12.36-1.273 22.101-1.298 29.22.938 3.367 3.523 4.846 7.756 4.438l21.571.794c3.487-.434 5.966-1.78 7.433-4.04.889-1.396 1.406-3.825 1.551-7.288 0-4.835.035-8.862.107-12.085.097-4.546-.192-8.67-.865-12.373-.602-3.295-1.455-6.037-2.562-8.227-.602-1.251-1.022-2.177-1.265-2.776-.384-1.06-.479-1.961-.286-2.706 0-.024.132-1.035.396-3.031.169-1.203.529-2.117 1.082-2.741-.504.097-1.515.061-3.029-.108-1.514-.168-2.393-.229-2.634-.181-.479.097-2.151.53-5.013 1.298-8.37 2.237-16.224 3.188-23.559 2.851l3.178 6.674z" fill="none"/><path fill="#fff" d="M700.928 176.012c5.509-1.507 9.093-2.173 10.75-2.002s3.388.76 5.193 1.768c-2.114 3.434-2.691 6.032-1.729 7.792 2.797 3.842 4.273 10.912 4.437 21.212.165 10.295-.761 17.076-2.778 20.346-1.395 2.262-3.774 3.607-7.143 4.04l-20.777-.793c-2.982.191-4.896-.865-5.736-3.175-1.131-7.961-1.286-18.122-.468-30.483.286-4.545 1.104-7.973 2.452-10.28l-3.066-6.674c7.07.336 13.359-.248 18.865-1.751z"/><path stroke="#fff" stroke-width=".722" stroke-linecap="round" stroke-linejoin="round" stroke-miterlimit="3" d="M685.129 184.435c-1.348 2.309-2.165 5.735-2.452 10.28-.818 12.361-.663 22.522.468 30.483.842 2.309 2.754 3.366 5.736 3.175l20.777.793c3.367-.433 5.747-1.778 7.143-4.04 2.019-3.27 2.943-10.051 2.778-20.346-.161-10.301-1.64-17.37-4.437-21.212-.962-1.761-.386-4.358 1.729-7.792-1.807-1.007-3.536-1.597-5.193-1.769-1.657-.171-5.241.497-10.751 2.003-5.507 1.503-11.796 2.087-18.866 1.749l3.068 6.676z" fill="none"/><path stroke="#E0E4E7" stroke-width="1.443" stroke-linecap="round" stroke-linejoin="round" stroke-miterlimit="3" d="M695.95 189.124c-1.268-1.863-1.388-3.727-.36-5.591m19.119 7.395c.036-3.892-1.406-6.717-4.328-8.478-.107-1.749.675-2.831 2.345-3.247m-26.515 15.694c-.018-4.591 1.427-8.139 4.328-10.644.338-1.173-.385-2.135-2.164-2.885" fill="none"/><path fill="#E0E4E7" d="M563.832 176.174c2.861-.769 4.532-1.202 5.014-1.298.241-.048 1.119.013 2.634.181 1.516.168 2.525.205 3.029.108-.554.624-.914 1.539-1.083 2.741-.265 1.996-.396 3.006-.396 3.031-.193.745-.097 1.646.288 2.706.24.601.661 1.525 1.263 2.776 1.105 2.188 1.96 4.932 2.562 8.227.674 3.702.963 7.827.866 12.372-.072 3.223-.107 7.251-.107 12.085-.146 3.463-.662 5.893-1.551 7.288-1.468 2.26-3.945 3.606-7.434 4.04l-21.571-.793c-4.231.407-6.817-1.071-7.756-4.438.023-7.119.458-16.859 1.299-29.221.313-4.545 1.167-7.974 2.563-10.281l-3.175-6.674c7.332.337 15.186-.613 23.555-2.85z"/><path stroke="#E0E4E7" stroke-width=".722" stroke-linecap="round" stroke-linejoin="round" stroke-miterlimit="3" d="M543.45 185.698c-1.396 2.309-2.249 5.735-2.563 10.281-.841 12.36-1.274 22.101-1.298 29.22.938 3.367 3.522 4.846 7.756 4.438l21.57.794c3.488-.434 5.967-1.78 7.434-4.04.889-1.396 1.406-3.825 1.551-7.288 0-4.835.035-8.862.107-12.085.097-4.546-.192-8.67-.865-12.373-.602-3.295-1.455-6.037-2.563-8.227-.601-1.251-1.021-2.177-1.264-2.776-.384-1.06-.479-1.961-.287-2.706 0-.024.132-1.035.396-3.031.169-1.203.528-2.117 1.082-2.741-.504.097-1.516.061-3.029-.108-1.514-.168-2.393-.229-2.634-.181-.48.097-2.151.53-5.013 1.298-8.37 2.237-16.224 3.188-23.559 2.851l3.179 6.674z" fill="none"/><path fill="#fff" d="M557.375 176.012c5.509-1.507 9.093-2.173 10.75-2.002 1.656.171 3.388.76 5.193 1.768-2.115 3.434-2.691 6.032-1.729 7.792 2.797 3.842 4.273 10.912 4.437 21.212.165 10.295-.761 17.076-2.779 20.346-1.394 2.262-3.773 3.607-7.142 4.04l-20.778-.793c-2.981.191-4.895-.865-5.735-3.175-1.132-7.961-1.286-18.122-.469-30.483.287-4.545 1.105-7.973 2.452-10.28l-3.065-6.674c7.067.336 13.356-.248 18.865-1.751z"/><path stroke="#fff" stroke-width=".722" stroke-linecap="round" stroke-linejoin="round" stroke-miterlimit="3" d="M541.573 184.435c-1.347 2.309-2.165 5.735-2.452 10.28-.817 12.361-.663 22.522.469 30.483.842 2.309 2.754 3.366 5.735 3.175l20.778.793c3.367-.433 5.747-1.778 7.142-4.04 2.02-3.27 2.944-10.051 2.779-20.346-.162-10.301-1.64-17.37-4.437-21.212-.962-1.761-.387-4.358 1.729-7.792-1.807-1.007-3.537-1.597-5.194-1.769-1.656-.171-5.24.497-10.75 2.003-5.508 1.503-11.797 2.087-18.866 1.749l3.067 6.676z" fill="none"/><path stroke="#E0E4E7" stroke-width="1.443" stroke-linecap="round" stroke-linejoin="round" stroke-miterlimit="3" d="M552.395 189.124c-1.268-1.863-1.388-3.727-.361-5.591m19.12 7.395c.036-3.892-1.407-6.717-4.329-8.478-.106-1.749.675-2.831 2.346-3.247m-26.516 15.694c-.017-4.591 1.427-8.139 4.329-10.644.337-1.173-.385-2.135-2.165-2.885" fill="none"/><path fill="#626362" d="M891.338 47.211h-3.192v-48.226h3.192v48.226zm-13.448-9.675h-3.193v-38.551h3.193v38.551zm-18.623-10.883h-3.192v-27.668h3.192v27.668zm-29.842 20.558h-3.192v-48.226h3.192v48.226zm-13.449-9.675h-3.192v-38.551h3.192v38.551zm-18.622-10.883h-3.193v-27.668h3.193v27.668z"/><path fill="#CCCBCB" d="M805.608 54.22h107.962v3.502h-107.962z"/><linearGradient id="h" gradientUnits="userSpaceOnUse" x1="-7642.977" y1="8517.9" x2="-7642.977" y2="8500" gradientTransform="matrix(-1.588 0 0 -1.751 -11275.4 14971.502)"><stop offset="0" stop-color="#FDFCE8"/><stop offset=".953" stop-color="#fff" stop-opacity="0"/></linearGradient><path fill="url(#h)" d="M805.531 54.128h107.963l10.241 34.314h-128.763z"/><path fill="#556F7A" d="M805.608 47.219h107.962v7.001h-107.962zm19.053-1.75h6.35v1.75h-6.35z"/><path fill="#CCCBCB" d="M792.162 44.546h107.963v3.503h-107.963z"/><linearGradient id="i" gradientUnits="userSpaceOnUse" x1="-7642.977" y1="8517.9" x2="-7642.977" y2="8500" gradientTransform="matrix(-1.588 0 0 -1.751 -11288.848 14961.83)"><stop offset="0" stop-color="#FDFCE8"/><stop offset=".953" stop-color="#fff" stop-opacity="0"/></linearGradient><path fill="url(#i)" d="M792.084 44.454h107.964l10.24 34.314h-128.763z"/><path fill="#556F7A" d="M792.162 37.544h107.963v7.002h-107.963zm19.053-1.75h6.35v1.75h-6.35z"/><path fill="#CCCBCB" d="M773.539 33.663h107.963v3.502h-107.963z"/><linearGradient id="j" gradientUnits="userSpaceOnUse" x1="-7642.977" y1="8517.9" x2="-7642.977" y2="8500" gradientTransform="matrix(-1.588 0 0 -1.751 -11307.471 14950.947)"><stop offset="0" stop-color="#FDFCE8"/><stop offset=".953" stop-color="#fff" stop-opacity="0"/></linearGradient><path fill="url(#j)" d="M773.463 33.571h107.963l10.24 34.314h-128.763z"/><path fill="#556F7A" d="M773.539 26.661h107.963v7.002h-107.963zm19.053-1.751h6.35v1.751h-6.35z"/><path fill="#626362" d="M120.362 44.354h-3.192v-48.225h3.192v48.225zm-13.447-9.674h-3.192v-38.551h3.192v38.551zm-18.622-10.883h-3.193v-27.668h3.191l.002 27.668zm-29.845 20.557h-3.192v-48.225h3.192v48.225zm-13.446-9.674h-3.192v-38.551h3.192v38.551zm-18.623-10.883h-3.191v-27.668h3.191v27.668z"/><path fill="#CCCBCB" d="M34.634 51.364h107.962v3.502h-107.962z"/><linearGradient id="k" gradientUnits="userSpaceOnUse" x1="-7642.977" y1="8517.9" x2="-7642.977" y2="8500" gradientTransform="matrix(-1.588 0 0 -1.751 -12046.375 14968.647)"><stop offset="0" stop-color="#FDFCE8"/><stop offset=".953" stop-color="#fff" stop-opacity="0"/></linearGradient><path fill="url(#k)" d="M34.556 51.272h107.963l10.241 34.313h-128.762z"/><path fill="#556F7A" d="M34.634 44.362h107.962v7.002h-107.962zm19.052-1.751h6.351v1.751h-6.351z"/><path fill="#CCCBCB" d="M21.187 41.69h107.962v3.502h-107.962z"/><linearGradient id="l" gradientUnits="userSpaceOnUse" x1="-7642.977" y1="8517.9" x2="-7642.977" y2="8500" gradientTransform="matrix(-1.588 0 0 -1.751 -12059.822 14958.975)"><stop offset="0" stop-color="#FDFCE8"/><stop offset=".953" stop-color="#fff" stop-opacity="0"/></linearGradient><path fill="url(#l)" d="M21.109 41.598h107.963l10.241 34.313h-128.762z"/><path fill="#556F7A" d="M21.187 34.688h107.962v7.002h-107.962zm19.052-1.751h6.351v1.751h-6.351z"/><path fill="#CCCBCB" d="M2.565 30.807h107.962v3.502h-107.962z"/><linearGradient id="m" gradientUnits="userSpaceOnUse" x1="-7642.977" y1="8517.9" x2="-7642.977" y2="8500" gradientTransform="matrix(-1.588 0 0 -1.751 -12078.445 14948.092)"><stop offset="0" stop-color="#FDFCE8"/><stop offset=".953" stop-color="#fff" stop-opacity="0"/></linearGradient><path fill="url(#m)" d="M2.487 30.715h107.963l10.241 34.313h-128.763z"/><path fill="#556F7A" d="M2.565 23.804h107.962v7.003h-107.962zm19.051-1.75h6.352v1.75h-6.352z"/><path fill="#fff" stroke="#DCDDDE" stroke-miterlimit="10" d="M142.11 54.513h183.919v203.073h-183.919z"/><path fill="#E6E7E8" stroke="#DCDDDE" stroke-miterlimit="10" d="M142.11 242.499h183.919v20.148h-183.919z"/><path fill="#fff" stroke="#DCDDDE" stroke-miterlimit="10" d="M273.44 235.053c0-4.112 3.12-7.446 6.968-7.446h33.028c3.848 0 6.968 3.334 6.968 7.446 0 4.111-3.12 7.445-6.968 7.445h-33.028c-3.848.001-6.968-3.333-6.968-7.445z"/><path fill="#F1F2F2" d="M142.11 262.648h8.718v84.269h-8.718zm175.201 0h8.718v84.269h-8.718z"/><path fill="#34556C" d="M187.9 241.266l-.006-1.781 44.176-.146.006 1.781zm.011-.062h44.175v1.067h-44.175z"/><path d="M234.872 239.302l.009 1.781-2.804 1.083-.018-3.921z"/><path fill="#34556C" d="M187.914 239.59l-.008-1.069 44.181-.323.008 1.069zm46.967 1.493s3.188.512 2.981-.886c-.207-1.396-2.99-.896-2.99-.896"/><path fill="#3B2518" d="M102.483 108.392c-1.656-.134-3.03-.847-4.111-2.119-1.083-1.28-1.558-2.749-1.421-4.411l1.796-21.736 16.157 1.335-2.295 27.77-10.126-.839z"/><path fill="#EC7169" d="M101.028 136.363c-1.112-1.099-1.657-2.428-1.633-3.979.022-1.544.567-2.879 1.637-3.993 1.101-1.112 2.409-1.657 3.918-1.637l4.987 1.701c3.951 1.129 7.441 1.646 10.472 1.54 3.032-.071 6.211-.795 9.547-2.173 1.669-.71 3.021-1.398 4.06-2.07l.791 11.232c-1.183.588-2.659 1.201-4.435 1.826-3.62 1.248-6.979 1.923-10.086 2.025-3.106.102-6.584-.345-10.434-1.319l-4.89-1.47c-1.548-.023-2.858-.582-3.934-1.683z"/><path fill="#3B2518" d="M74.965 98.32c-.992-2.309-1.528-4.584-1.604-6.815-.116-2.685.475-4.882 1.768-6.595 1.168 2.511 3.237 5.095 6.211 7.754 2.903 2.579 5.655 4.348 8.252 5.307l1.299 7.236c-2.466.13-4.75-.038-6.866-.513-2.297-.524-4.1-1.19-5.403-2.002-1.627-1.028-2.846-2.482-3.657-4.372z"/><path fill="#EC7169" d="M105.291 137.292l1.583 6.357c.66 2.625.477 5.187-.547 7.673-.963 2.438-2.496 4.356-4.601 5.763l-1.432 7.778-2.145 25.963-33.347-6.265-1.235-60.457 22.597-8.049 20.971 11.646-1.844 9.591z"/><path fill="#F9AD8E" d="M80.687 100.71c.089-1.514.69-2.766 1.813-3.748 1.123-.984 2.426-1.451 3.906-1.404 1.515.087 2.763.693 3.749 1.815.982 1.121 1.449 2.42 1.401 3.901l-.896 18.188c-.085 1.479-.688 2.729-1.813 3.75-1.087 1.021-2.388 1.488-3.903 1.398-1.48-.046-2.731-.632-3.753-1.754-1.021-1.123-1.486-2.443-1.397-3.958l.893-18.188zm31.314-29.244c1.035 2.722 1.428 5.654 1.167 8.787l-.541 7.195c-.423 5.165-.752 8.663-.976 10.507-.636 4.549-1.833 8.018-3.589 10.396-1.633 2.239-4.176 4.015-7.625 5.331-6.825-.567-12.604-3.197-17.338-7.895-4.566-4.539-6.617-9.369-6.158-14.49l1.221-14.104c.255-3.103 1.229-5.896 2.92-8.391l30.919 2.664z"/><path fill="#F5F6F6" d="M106.179 103.331c-.332 1.349-1.071 2.438-2.221 3.271-1.104.836-2.382 1.211-3.821 1.129-1.402-.116-2.6-.679-3.591-1.689-.992-1.008-1.563-2.208-1.709-3.589l11.342.878z"/><path fill="#3B2518" d="M108.883 66.031c4.857 2.334 7.614 5.122 8.275 8.372.384 2.111.257 4.106-.381 5.987-.729 2.056-2.021 3.749-3.873 5.079-.537-2.493-1.892-5.225-4.059-8.188-2.104-2.888-4.249-5.013-6.438-6.382l.331-6.712c2.169.292 4.216.905 6.145 1.844z"/><path fill="#5B351F" d="M70.752 77.813c.445-4.456 2.282-8.241 5.507-11.354 3.188-3.077 7.031-4.878 11.53-5.396 3.672-.402 7.521-.008 11.543 1.177 2.979.838 6.587 2.324 10.829 4.457-.771 1.24-1.959 3.032-3.563 5.391-2.376 3.593-5.514 6.709-9.41 9.358-3.771 2.512-7.938 4.395-12.497 5.653l-.229 2.095c-.072.883-.43 1.616-1.071 2.194-.677.535-1.438.771-2.289.702l-5.145-.428-3.727-3.428c-1.179-4.997-1.672-8.473-1.478-10.421z"/><path fill="#1D193D" d="M95.105 90.821c-.323.308-.704.446-1.146.412-.443-.042-.816-.244-1.121-.598-.271-.317-.391-.721-.349-1.201.037-.44.213-.798.533-1.07.36-.304.759-.439 1.204-.404.441.041.798.235 1.064.595.307.323.444.708.406 1.147-.037.478-.235.853-.591 1.119zm13.165.645c-.322.312-.706.447-1.148.413-.438-.038-.813-.237-1.121-.595-.266-.32-.385-.721-.344-1.199.035-.443.215-.799.534-1.069.358-.304.76-.442 1.203-.403.441.038.797.235 1.063.592.31.323.445.708.406 1.147-.039.473-.235.85-.593 1.114z"/><path fill="#F9AD8E" d="M80.098 86.77c.908 1.078 1.312 2.318 1.192 3.721l-.414 5.033-5.031-.414c-1.404-.119-2.546-.713-3.421-1.782-.918-1.042-1.315-2.27-1.2-3.668.111-1.402.713-2.563 1.789-3.477 1.042-.914 2.265-1.315 3.666-1.196 1.403.112 2.543.71 3.419 1.783z"/><path fill="#FBB326" d="M98.989 180.704l1.518 22.854c.052 3.923-1.294 7.29-4.032 10.104-2.702 2.813-6.02 4.242-9.939 4.294l-15.542.198c-5.217.065-8.576-.368-10.065-1.315-2.836-1.777-4.28-6.015-4.326-12.71-.045-6.289 1.308-11.99 4.054-17.1l4.145-5.825 34.187-.5z"/><path fill="#5B351F" d="M86.911 79.145l-2.295 27.773-10.125-.838c-1.657-.139-3.03-.847-4.113-2.123-1.084-1.277-1.557-2.746-1.417-4.406l1.794-21.743 16.156 1.337z"/><path fill="#EC7169" d="M72.843 125.858c.339 1.267.313 2.672-.092 4.21-.141.577-.347 1.112-.613 1.613l-.479.605-.622.503-1.004.615c-.833.555-1.683 1.238-2.554 2.055-2.162 1.845-4.617 4.567-7.362 8.169-1.905 2.392-4.185 5.556-6.841 9.495l-3.084 4.503-9.379-6.279 3.104-4.559c2.196-3.345 4.62-6.719 7.269-10.117 2.903-3.859 5.824-7.097 8.768-9.71 1.173-1.029 2.397-1.982 3.679-2.865l1.597-1.012 1.162-.57c.303-.098.732-.18 1.296-.234.876-.077 1.679.018 2.412.282 1.444.569 2.357 1.668 2.743 3.296z"/><path fill="#F8A687" d="M73.81 341.579c.286-.416 1.004.377 0 0-1.25-.476-.325-1.637-.854-1.546-1.674-3.092-3.596-7.111-4.439-10.609-1.759-7.167 2.545-33.17 3.207-37.806.339-2.351 1.398-17.053 2.399-28.093.098-.49.155-.996.155-1.519 0-3.882-2.896-7.021-6.462-7.021-3.573 0-6.464 3.142-6.464 7.021 0 .451.04.895.118 1.32l-.224.016c.259 3.087-.036 5.966-.512 7.026-1.959 4.347-4.146 13.07-3.499 22.704l3.994 27.018-1.135 2.729-.066.063c-.396.458-.846.478-.701 1.784l-1.162 2.795 2.835 3.653c1.214 5.725 1.309 13.676 8.531 12.943l.079.125 3.492 1.075 1.682-.259 1.154.106c-.002.004-.92-1.406-2.128-3.525z"/><path fill="#723A21" d="M78.688 343.784c-1.834-1.591-5.566-3.487-5.566-3.487s-3.916 4.959-7.448.459c-3.45-4.388-1.854-9.069-4.876-13.994-1.644-2.688-.749-3.781-.712-4.15-1.503.569-4.316 2.362-3.04 7.631l.155.268.8 14.388h1.087l.371-10.945c.59.422 1.81 1.926 2.662 7.295.768 4.828 4.487 5.079 4.487 5.079s8.907.432 11.888-.638c0-.004 2.03-.32.192-1.906z"/><path fill="#F8A687" d="M104.341 340.245c-.143-.129-.277-.266-.354-.43-.146-.297-.02-.682-.174-.961-.876-1.528-2.098-3.018-2.977-4.639-1.009-1.862-1.938-3.791-2.596-5.827-2.302-7.026-.003-33.246.305-37.91.156-2.366.093-17.1.244-28.169.06-.492.081-1 .041-1.524-.298-3.86-3.425-6.801-6.992-6.559-3.562.24-6.208 3.579-5.907 7.445.033.447.106.89.216 1.312l-.221.027c.496 3.056.424 5.949.027 7.037-1.617 4.469-3.133 13.313-1.75 22.873l6.047 26.66-.925 2.808-.06.059c-.36.487-.813.531-.559 1.82l-.952 2.865 3.107 3.455c1.645 5.617 2.354 13.543 9.499 12.314l.092.127 3.565.825 1.657-.369 1.158.026c-.474-.018-1.137-1.311-1.36-1.666-.236-.364-.43-.796-.684-1.147-.11-.167-.286-.303-.447-.452z"/><path fill="#723A21" d="M109.49 342.011c-1.957-1.46-5.826-3.105-5.826-3.105s-3.525 5.217-7.398.973c-3.773-4.135-2.543-8.911-5.933-13.619-1.849-2.563-1.038-3.72-1.034-4.089-1.45.675-4.127 2.649-2.445 7.813l.175.26 1.9 14.293 1.084-.083-.464-10.932c.612.382 1.945 1.791 3.21 7.091 1.138 4.756 4.866 4.751 4.866 4.751s8.924-.175 11.816-1.442c-.001-.006 2-.457.049-1.911z"/><path fill="#FBB326" d="M105.572 273.642h-50.307l2.246-74.21 42.485 1.481z"/><path d="M25.606 180.004s-4.322 3.267-5.838 7.193c0 0-1.271 1.687-2.413 2.365 0 0 2.306 1.462 3.777-.549 0 0 .899-2.749 3.735-2.624 0 0 2.835-.958 3.915-2.963 1.082-2.008.651-3.356.073-4.079.003.002-1.965-.366-3.249.657zm-2.424 11.067c.148-.829.793-1.414 1.438-1.299.647.117 1.051.882.905 1.72l-1.169 6.533c-.146.834-.793 1.414-1.438 1.302-.646-.117-1.049-.885-.899-1.717l1.163-6.539zm3.068-.567c.165-.926.821-1.584 1.472-1.467.645.113 1.033.958.869 1.888l-1.297 7.275c-.166.925-.823 1.585-1.473 1.471-.643-.118-1.034-.959-.869-1.887l1.298-7.28zm2.686-.255c.131-.718.759-1.205 1.401-1.094.648.116 1.067.795.938 1.515l-1.006 5.646c-.129.722-.757 1.21-1.402 1.096-.646-.115-1.064-.791-.938-1.513l1.007-5.65zm2.803-1.648c.106-.596.714-.979 1.362-.863.646.116 1.084.688.978 1.282l-.828 4.65c-.104.593-.716.979-1.36.862-.646-.114-1.083-.688-.979-1.28l.827-4.651zm-6.133-8.597s2.326-1.882 3.825-3.216c.589-.525 3.253-3.604 4.228-4.782l.011.009c.804-2.845 4.01-12.729 6.293-19.006.044-.464.146-.932.308-1.394 1.064-3.043 4.395-4.646 7.438-3.578 3.042 1.063 4.647 4.395 3.584 7.438-.249.707-.623 1.334-1.083 1.872-2.798 5.354-9.021 14.615-11.352 18.041l.012.006c-.116.161-2.813 5.566-2.813 5.566l-.489 1.802c-.49 1.798-.883 5.594-1.831 6.854l-10.618 3.182c-.471-4.02 2.487-12.794 2.487-12.794zM165.269 120.087s4.349-3.229 8.547-3.578c0 0 1.974-.746 2.947-1.649 0 0 .754 2.624-1.592 3.472 0 0-2.891.093-3.567 2.849 0 0-1.716 2.45-3.944 2.923-2.229.475-3.404-.319-3.936-1.077 0-.005.202-1.996 1.545-2.94zm11.301.787c-.839-.09-1.581.362-1.652 1.016-.067.653.555 1.257 1.396 1.352l6.598.717c.842.098 1.581-.36 1.654-1.012.07-.655-.553-1.255-1.395-1.348l-6.601-.725zm-1.407 2.785c-.936-.104-1.752.344-1.822.997-.069.649.63 1.264 1.567 1.366l7.346.804c.937.103 1.754-.346 1.826-.999.066-.649-.629-1.265-1.563-1.365l-7.354-.803zm-1 2.506c-.725-.076-1.37.391-1.442 1.04-.07.653.463 1.246 1.188 1.324l5.701.623c.728.078 1.373-.387 1.444-1.039.069-.652-.459-1.243-1.188-1.323l-5.703-.625zm-2.371 2.226c-.601-.065-1.141.41-1.212 1.063-.068.653.355 1.234.956 1.3l4.696.515c.599.063 1.143-.413 1.212-1.064.071-.65-.355-1.231-.953-1.3l-4.699-.514zm-6.523-8.304s-2.46 1.703-4.163 2.767c-.67.418-4.373 2.107-5.779 2.711l.004.015c-2.954-.031-13.342.266-20.008.69-.457-.089-.934-.124-1.421-.1-3.22.167-5.694 2.91-5.528 6.13.164 3.219 2.909 5.696 6.129 5.531.75-.039 1.457-.223 2.104-.513 5.924-1.179 16.563-4.546 20.506-5.815l.003.013c.188-.064 6.133-1.135 6.133-1.135l1.867.037c1.862.034 5.615.727 7.093.172 1.479-.555 6.041-9.294 6.041-9.294-3.729-1.58-12.981-1.209-12.981-1.209z" fill="#F8A687"/><path fill="#F79871" d="M105.917 97.247c0 .935 1.13 1.694 2.521 1.694 1.396 0 2.522-.761 2.522-1.694 0-.936-1.127-1.691-2.522-1.691-1.391-.001-2.521.757-2.521 1.691zm-15.936 0c0 .935 1.375 1.694 3.064 1.694 1.696 0 3.076-.761 3.076-1.694 0-.936-1.379-1.691-3.076-1.691-1.689-.001-3.064.757-3.064 1.691z"/></svg>