<svg xmlns="http://www.w3.org/2000/svg" width="880.002" height="41.333" viewBox="0 0 880.002 41.333"><symbol viewBox="-40.55 -9.8 81.1 19.6"><linearGradient id="a" gradientUnits="userSpaceOnUse" y1="6.9" x2="0" y2="-11"><stop offset="0" stop-color="#FDFCE8"/><stop offset=".953" stop-color="#fff" stop-opacity="0"/></linearGradient><path fill="url(#a)" d="M40.55-9.8h-81.1l6.45 19.6h68z"/></symbol><symbol viewBox="-91.67 -63.092 183.339 126.185"><path fill="#E7ECEC" d="M86.157 22.993c-.533-1.3-1.434-2.383-2.699-3.25-.667-.434-1.434-.8-2.301-1.1-2.566-.9-5.516-.667-8.85.698-9.2-4.565-19.883-5.898-32.05-4-5.8 1.102-9.866 1.834-12.2 2.2-3.967.567-6.883.45-8.75-.35-4.934-2.8-9.267-4.217-13-4.25-4.233-.034-7.733 1.683-10.5 5.148-3.967 8.968-5.8 17-5.5 24.102.1 2.1.383 4.116.85 6.05l-.199-.45c-.601-1.732-1.033-3.55-1.301-5.45-1.066-7.467.4-16.016 4.4-25.648l.8-1.8c.733-.9 1.5-1.685 2.3-2.352 2.634-2.134 5.783-3.05 9.45-2.75 3.467.3 7.384 1.7 11.75 4.2 1.866.8 4.784.916 8.75.35 2.333-.365 6.4-1.1 12.2-2.198 12.166-1.9 22.85-.566 32.05 4 3.333-1.367 6.284-1.602 8.851-.7 1.633.6 2.916 1.417 3.85 2.45.5.565.883 1.198 1.15 1.898.266.3.482.685.649 1.15-.167-.467-.384-.852-.649-1.15-.268-.7-.65-1.333-1.15-1.898-.934-1.033-2.217-1.852-3.85-2.45-2.566-.9-5.518-.667-8.851.7-9.2-4.566-19.884-5.9-32.05-4-5.8 1.1-9.867 1.833-12.2 2.198-3.966.566-6.884.45-8.75-.35-4.366-2.5-8.283-3.9-11.75-4.2-3.667-.3-6.816.616-9.45 2.75-.8.667-1.566 1.45-2.3 2.352l-.8 1.8c-4 9.634-5.467 18.183-4.4 25.648.268 1.9.7 3.718 1.301 5.45l.199.45c-.467-1.934-.75-3.95-.85-6.05-.3-7.1 1.533-15.133 5.5-24.1 2.767-3.467 6.267-5.184 10.5-5.148 3.733.033 8.066 1.45 13 4.25 1.867.8 4.783.917 8.75.35 2.334-.366 6.4-1.1 12.2-2.2 12.167-1.898 22.85-.565 32.05 4 3.334-1.365 6.283-1.6 8.85-.698.867.3 1.634.666 2.301 1.1 1.265.865 2.165 1.948 2.699 3.248zm-91.35 33.55c-1.166-1.466-2.133-3.315-2.9-5.55-.3-.9-.55-1.816-.75-2.75.2.934.45 1.85.75 2.75.767 2.234 1.734 4.084 2.9 5.55 3.6 4.602 9.133 5.7 16.6 3.3 14.367 3.667 34 3.667 58.9 0 4.666-1.032 8.133-3.782 10.4-8.25 5.934-16.666 7.75-26.198 5.449-28.6-.033-.8-.133-1.483-.3-2.05 1.8-6.833 2.217-11.268 1.25-13.3 1.2-4.734 1.684-8.234 1.45-10.5-.1-1.167-.4-2-.9-2.5-.8-1.968-2.467-3.417-5-4.352-2.566-.898-5.516-.667-8.85.7-9.2-4.566-19.883-5.9-32.05-4-5.8 1.1-9.866 1.834-12.2 2.2-3.967.565-6.883.45-8.75-.352-10.434-5.934-18.267-5.633-23.5.9-1.2 2.7-2.2 5.316-3 7.85.834-.133 1.633-.198 2.4-.198-.768 0-1.566.065-2.4.198.8-2.532 1.8-5.148 3-7.85 5.233-6.533 13.066-6.834 23.5-.9 1.867.802 4.783.917 8.75.352 2.334-.366 6.4-1.102 12.2-2.2 12.167-1.9 22.85-.566 32.05 4 3.334-1.367 6.283-1.6 8.85-.7 2.533.935 4.2 2.384 5 4.352.5.5.801 1.333.9 2.5 2.8-9.566 3.35-15.234 1.65-17-.066-1.533-.384-2.602-.95-3.2-.333-.8-.784-1.518-1.351-2.15-.934-.898-2.149-1.634-3.649-2.2-2.567-.898-5.517-.666-8.851.7-9.199-4.565-19.883-5.898-32.05-4-5.8 1.102-9.866 1.833-12.2 2.2-3.967.566-6.883.45-8.75-.35-8.899-5.066-15.899-5.602-21-1.602-.899.7-1.732 1.534-2.5 2.5l-.6 1.4c-1.5 3.5-2.65 6.866-3.45 10.1.567.233 1.116.45 1.65.65.866-2.866 1.983-5.852 3.35-8.95 5.233-6.533 13.067-6.834 23.5-.9 1.866.802 4.784.917 8.75.352 2.333-.366 6.4-1.102 12.2-2.2 12.166-1.9 22.85-.566 32.05 4 3.333-1.367 6.284-1.6 8.851-.7 2.533.935 4.199 2.384 5 4.352-.801-1.968-2.467-3.417-5-4.352-2.566-.898-5.518-.667-8.851.7-9.2-4.566-19.884-5.9-32.05-4-5.8 1.1-9.867 1.834-12.2 2.2-3.966.565-6.884.45-8.75-.352-10.433-5.934-18.267-5.633-23.5.9-1.366 3.1-2.483 6.084-3.35 8.95-.534-.2-1.083-.417-1.65-.65.8-3.232 1.95-6.6 3.45-10.1l.6-1.4c.768-.966 1.601-1.8 2.5-2.5 5.101-4 12.101-3.466 21 1.602 1.867.8 4.783.916 8.75.35 2.334-.367 6.4-1.1 12.2-2.2 12.167-1.898 22.851-.565 32.05 4 3.334-1.366 6.283-1.6 8.851-.7 1.5.566 2.716 1.302 3.649 2.2 1.033-5.167.95-8.384-.25-9.648-.8-1.968-2.467-3.417-5-4.352-2.566-.898-5.516-.667-8.85.7-9.2-4.566-19.883-5.9-32.05-4-5.8 1.1-9.866 1.834-12.2 2.2-3.967.565-6.883.45-8.75-.352-10.434-5.934-18.267-5.633-23.5.9-1.467 3.334-2.65 6.517-3.55 9.55-.534-.2-1.067-.417-1.601-.648.768-3.269 1.9-6.7 3.4-10.302l.8-1.8c.733-.898 1.5-1.683 2.3-2.35 5.134-4.134 12.2-3.65 21.2 1.45 1.866.8 4.784.916 8.75.35 2.333-.367 6.4-1.1 12.2-2.2 12.166-1.898 22.85-.565 32.05 4 3.333-1.366 6.284-1.6 8.851-.7 2.399.9 4.033 2.25 4.899 4.052-.866-1.802-2.5-3.15-4.899-4.052-2.566-.898-5.518-.666-8.851.7-9.2-4.565-19.884-5.898-32.05-4-5.8 1.102-9.867 1.833-12.2 2.2-3.966.566-6.884.45-8.75-.35-9-5.102-16.066-5.584-21.2-1.45-.8.667-1.566 1.45-2.3 2.35l-.8 1.8c-1.5 3.602-2.633 7.033-3.4 10.302.533.231 1.066.448 1.601.648.899-3.033 2.083-6.216 3.55-9.55 5.233-6.533 13.066-6.834 23.5-.9 1.867.802 4.783.917 8.75.352 2.334-.366 6.4-1.102 12.2-2.2 12.167-1.9 22.85-.566 32.05 4 3.334-1.367 6.283-1.6 8.85-.7 2.533.935 4.2 2.384 5 4.352-.066-1.533-.383-2.602-.949-3.2l-.101-.3c1.333-5.968 1.351-9.635.05-11-.8-1.968-2.467-3.417-5-4.352-2.566-.898-5.516-.667-8.85.7-9.2-4.566-19.883-5.9-32.05-4-5.8 1.1-9.866 1.834-12.2 2.2-3.967.565-6.883.45-8.75-.352-10.434-5.934-18.267-5.633-23.5.9-1.4 3.166-2.533 6.2-3.4 9.1-.533-.231-1.083-.448-1.649-.648.667-2.602 1.55-5.3 2.649-8.102.268-.766.584-1.55.95-2.35-.366.8-.683 1.584-.95 2.35-1.1 2.802-1.982 5.5-2.649 8.102.566.2 1.116.417 1.649.648.867-2.898 2-5.934 3.4-9.1 5.233-6.533 13.066-6.834 23.5-.9 1.867.802 4.783.917 8.75.352 2.334-.366 6.4-1.102 12.2-2.2 12.167-1.9 22.85-.566 32.05 4 3.334-1.367 6.283-1.6 8.85-.7 2.533.935 4.2 2.384 5 4.352-.066-1.533-.383-2.602-.949-3.2-.801-1.967-2.467-3.417-5-4.352-2.566-.898-5.518-.666-8.851.7-9.2-4.565-19.884-5.898-32.05-4-5.8 1.102-9.867 1.833-12.2 2.2-3.966.566-6.884.45-8.75-.35-10.433-5.935-18.267-5.635-23.5.898l-.5 1.2c-9.2-4.533-19.884-5.85-32.05-3.95-5.8 1.102-9.867 1.833-12.2 2.2-3.966.566-6.884.45-8.75-.35-10.433-5.935-18.267-5.635-23.5.898-4.8 10.8-6.483 20.268-5.05 28.4.133-.866.3-1.75.5-2.65.867-4.3 2.383-8.884 4.55-13.75 5.233-6.533 13.067-6.833 23.5-.898 1.866.8 4.784.916 8.75.35 2.333-.367 6.4-1.1 12.2-2.2 10.6-1.667 20.084-.866 28.45 2.4-8.366-3.268-17.851-4.067-28.45-2.4-5.8 1.102-9.867 1.833-12.2 2.2-3.966.566-6.884.45-8.75-.35-10.433-5.935-18.267-5.635-23.5.898-2.167 4.866-3.683 9.45-4.55 13.75-.2.9-.367 1.784-.5 2.65-.867 5.732-.566 10.966.9 15.7-.531 3.901-.515 7.552.052 10.951-5.601 12.769-6.866 23.667-3.8 32.7l.2.45c.2.9.434 1.767.7 2.6.267-6.333 2.101-13.315 5.5-20.948 5.233-6.533 13.067-6.834 23.5-.9 1.866.8 4.784.916 8.75.35 2.333-.365 6.4-1.1 12.2-2.198 11.066-1.734 20.9-.783 29.5 2.85-8.6-3.633-18.434-4.584-29.5-2.85-5.8 1.1-9.867 1.833-12.2 2.198-3.966.566-6.884.45-8.75-.35-10.433-5.934-18.267-5.633-23.5.9-3.4 7.632-5.234 14.615-5.5 20.948-.2 4.301.333 8.283 1.6 11.95l.2.45c-.766-3.1-1.033-6.4-.8-9.9.366-6.133 2.183-12.883 5.45-20.25 5.233-6.532 13.066-6.833 23.5-.898 1.867.8 4.783.917 8.75.35 2.334-.366 6.4-1.1 12.2-2.2 12.066-1.898 22.667-.615 31.8 3.852-9.133-4.467-19.733-5.75-31.8-3.852-5.8 1.102-9.866 1.834-12.2 2.2-3.967.567-6.883.45-8.75-.35-10.434-5.935-18.267-5.635-23.5.898-3.267 7.367-5.084 14.117-5.45 20.25-.234 3.5.034 6.801.8 9.9.2.934.45 1.85.75 2.75 3.1 9.1 9.6 12.05 19.5 8.85 14.367 3.667 34 3.667 58.9 0 .867-.196 1.7-.464 2.5-.797zm2.35-44c-1.199.2-2.467.567-3.8 1.102l-1-.5c.934-3.5 2.25-7.185 3.95-11.052.434-.532.883-1.032 1.35-1.5.933-.899 1.95-1.649 3.05-2.25 4.899-2.565 11.266-1.615 19.1 2.852 1.867.8 4.783.917 8.75.35 2.334-.366 6.4-1.1 12.2-2.2 12.167-1.898 22.85-.565 32.05 4 3.334-1.365 6.283-1.6 8.85-.698 2.533.934 4.2 2.383 5 4.35.167.166.316.383.45.65-.134-.269-.283-.484-.45-.65-.8-1.967-2.467-3.416-5-4.35-2.566-.9-5.516-.667-8.85.698-9.2-4.565-19.883-5.898-32.05-4-5.8 1.102-9.866 1.834-12.2 2.2-3.967.567-6.883.45-8.75-.35-7.834-4.467-14.2-5.417-19.1-2.852-1.1.601-2.117 1.351-3.05 2.25-.467.468-.916.968-1.35 1.5-1.7 3.867-3.017 7.552-3.95 11.052l1 .5c1.332-.535 2.6-.902 3.8-1.102zm89.5-5.55c-.066-1.533-.383-2.6-.949-3.2-.801-1.966-2.467-3.417-5-4.35-2.566-.9-5.518-.667-8.851.7-9.2-4.566-19.884-5.9-32.05-4-5.8 1.1-9.867 1.833-12.2 2.198-3.966.566-6.884.45-8.75-.35-9.566-5.434-16.95-5.633-22.149-.6-.467.467-.917.967-1.351 1.5-.3.698-.6 1.383-.899 2.05-1.667 4.033-2.884 7.884-3.65 11.55.533.2 1.05.416 1.55.65-.5-.234-1.017-.45-1.55-.65.767-3.666 1.983-7.517 3.65-11.55.3-.667.6-1.352.899-2.05.434-.533.884-1.033 1.351-1.5 5.199-5.033 12.583-4.834 22.149.6 1.866.8 4.784.916 8.75.35 2.333-.365 6.4-1.1 12.2-2.198 12.166-1.9 22.85-.566 32.05 4 3.333-1.367 6.284-1.602 8.851-.7 2.533.933 4.199 2.384 5 4.35.565.601.882 1.667.949 3.2zm1-12.349c-.033-1.533-.35-2.602-.949-3.2-.801-1.967-2.467-3.417-5-4.352-2.566-.898-5.518-.666-8.851.7-9.2-4.565-19.884-5.898-32.05-4-5.8 1.102-9.867 1.833-12.2 2.2-3.966.566-6.884.45-8.75-.35-9.433-5.367-16.733-5.635-21.899-.802-.566.5-1.101 1.066-1.601 1.7l-.149.352c-1.734 3.934-3.033 7.666-3.9 11.198.666-.198 1.334-.365 2-.5-.666.135-1.334.302-2 .5.867-3.532 2.166-7.266 3.9-11.198l.149-.352c.5-.634 1.034-1.2 1.601-1.7 5.166-4.833 12.467-4.565 21.899.802 1.866.8 4.784.916 8.75.35 2.333-.367 6.4-1.1 12.2-2.2 12.166-1.898 22.85-.565 32.05 4 3.333-1.366 6.284-1.6 8.851-.7 2.533.935 4.199 2.385 5 4.352.599.599.915 1.666.949 3.2zm-173.4 2.949l.1-.198c.134-.201.284-.385.45-.552 1.2-1.365 2.533-2.434 4-3.198.733-.367 1.5-.667 2.3-.9 4.534-1.267 10.116-.017 16.75 3.75 1.866.8 4.784.916 8.75.35 2.333-.367 6.4-1.101 12.2-2.2 12.166-1.9 22.85-.566 32.05 4 .467-.2.95-.385 1.45-.552-.5.168-.983.352-1.45.552-9.2-4.566-19.884-5.9-32.05-4-5.8 1.1-9.867 1.833-12.2 2.198-3.966.566-6.884.45-8.75-.35-6.634-3.766-12.216-5.016-16.75-3.749-.8.233-1.566.533-2.3.9-1.467.766-2.8 1.833-4 3.198-.166.167-.316.352-.45.552l-.1.199zm80.2 3.35c-.867.233-1.75.533-2.65.899-9.2-4.565-19.883-5.898-32.05-4-5.8 1.102-9.866 1.834-12.2 2.2-3.967.567-6.883.45-8.75-.35-10.434-5.935-18.267-5.634-23.5.898-5.133 11.567-6.684 21.618-4.65 30.151-2.033-8.533-.482-18.584 4.65-30.15 5.233-6.532 13.066-6.833 23.5-.898 1.867.8 4.783.917 8.75.35 2.334-.366 6.4-1.1 12.2-2.2 12.167-1.9 22.85-.567 32.05 3.999.9-.365 1.783-.665 2.65-.899zm-73.351-8.2c.634-1.8 1.366-3.633 2.2-5.5 5.233-6.533 13.066-6.834 23.5-.9 1.867.802 4.783.917 8.75.352 2.334-.366 6.4-1.102 12.2-2.2 10.6-1.666 20.083-.867 28.45 2.4-8.367-3.269-17.851-4.066-28.45-2.4-5.8 1.1-9.866 1.834-12.2 2.2-3.967.565-6.883.449-8.75-.352-10.434-5.934-18.267-5.633-23.5.9-.833 1.867-1.565 3.7-2.2 5.5zm-6.899-6.099l.1-.5c.733-5.135 2.416-10.667 5.05-16.602 5.233-6.533 13.067-6.833 23.5-.898 1.866.8 4.784.916 8.75.35 2.333-.367 6.4-1.1 12.2-2.2 10.566-1.667 20.017-.884 28.35 2.352-8.333-3.234-17.783-4.019-28.35-2.352-5.8 1.102-9.867 1.833-12.2 2.2-3.966.566-6.884.45-8.75-.35-10.433-5.935-18.267-5.635-23.5.898-2.634 5.935-4.317 11.468-5.05 16.602l-.1.5zm82.3-2.451c.466.2.95.417 1.45.648-.5-.231-.984-.447-1.45-.648zm1.8-10.75c-.5.167-1 .35-1.5.55-9.2-4.566-19.883-5.9-32.05-4-5.8 1.1-9.866 1.834-12.2 2.2-3.967.566-6.883.45-8.75-.351-10.434-5.934-18.267-5.633-23.5.9-3.967 8.934-5.8 16.967-5.5 24.1-.3-7.133 1.533-15.166 5.5-24.1 5.233-6.533 13.066-6.834 23.5-.9 1.867.802 4.783.917 8.75.352 2.334-.366 6.4-1.102 12.2-2.2 12.167-1.9 22.85-.566 32.05 4 .5-.201 1-.384 1.5-.551zm3.1-3.9c-1.732.034-3.583.45-5.55 1.25l-2.1-1 2.1 1c1.967-.8 3.817-1.216 5.55-1.25zm-82.6 24.101c.9-3.066 2.084-6.269 3.55-9.602 5.233-6.533 13.067-6.833 23.5-.898 1.866.8 4.784.916 8.75.35 2.333-.367 6.4-1.1 12.2-2.2 10.434-1.634 19.783-.884 28.05 2.25-8.267-3.134-17.616-3.884-28.05-2.25-5.8 1.102-9.867 1.833-12.2 2.2-3.966.566-6.884.45-8.75-.35-10.433-5.935-18.267-5.635-23.5.898-1.466 3.334-2.65 6.535-3.55 9.602zm-5-25.351c-.033-6.732 1.8-14.25 5.5-22.55 5.233-6.533 13.066-6.834 23.5-.9 1.867.802 4.783.917 8.75.352 2.334-.366 6.4-1.102 12.2-2.2 11.333-1.767 21.384-.733 30.149 3.1-8.766-3.833-18.816-4.865-30.149-3.1-5.8 1.1-9.866 1.834-12.2 2.2-3.967.565-6.883.45-8.75-.352-10.434-5.934-18.267-5.633-23.5.9-3.701 8.3-5.534 15.817-5.5 22.55zm81.75-9.45c-9.133-4.467-19.733-5.75-31.8-3.85-5.8 1.1-9.866 1.834-12.2 2.2-3.967.565-6.883.45-8.75-.352-10.434-5.934-18.267-5.633-23.5.9-4.8 10.8-6.467 20.267-5 28.4-1.467-8.135.2-17.602 5-28.4 5.233-6.533 13.066-6.834 23.5-.9 1.867.802 4.783.917 8.75.352 2.334-.366 6.4-1.102 12.2-2.2 12.067-1.9 22.667-.617 31.8 3.85zm3.1-4.15c-1.199.2-2.467.565-3.8 1.1-.634-.333-1.283-.648-1.95-.95.667.302 1.316.617 1.95.95 1.332-.533 2.6-.899 3.8-1.1z"/><path stroke="#E7ECEC" stroke-linecap="round" stroke-linejoin="round" stroke-miterlimit="3" d="M86.157 22.993c-.533-1.3-1.434-2.383-2.699-3.25-.667-.434-1.434-.8-2.301-1.1-2.566-.9-5.516-.667-8.85.698-9.2-4.565-19.883-5.898-32.05-4-5.8 1.102-9.866 1.834-12.2 2.2-3.967.567-6.883.45-8.75-.35-4.934-2.8-9.267-4.217-13-4.25-4.233-.034-7.733 1.683-10.5 5.148-3.967 8.968-5.8 17-5.5 24.102.1 2.1.383 4.116.85 6.05l-.199-.45c-.601-1.732-1.033-3.55-1.301-5.45-1.066-7.467.4-16.016 4.4-25.648l.8-1.8c.733-.9 1.5-1.685 2.3-2.352 2.634-2.134 5.783-3.05 9.45-2.75 3.467.3 7.384 1.7 11.75 4.2 1.866.8 4.784.916 8.75.35 2.333-.365 6.4-1.1 12.2-2.198 12.166-1.9 22.85-.566 32.05 4 3.333-1.367 6.284-1.602 8.851-.7 1.633.6 2.916 1.417 3.85 2.45.5.565.883 1.198 1.15 1.898.266.3.482.685.649 1.15.166.569.266 1.252.3 2.052 2.301 2.4.484 11.934-5.449 28.6-2.268 4.468-5.734 7.218-10.4 8.25-24.9 3.667-44.533 3.667-58.9 0-7.468 2.4-13.001 1.301-16.601-3.3-1.166-1.466-2.133-3.315-2.9-5.55-.3-.9-.55-1.816-.75-2.75m6-35.7c-1.199.2-2.467.567-3.8 1.102l-1-.5c.934-3.5 2.25-7.185 3.95-11.052.434-.532.883-1.032 1.35-1.5.933-.899 1.95-1.649 3.05-2.25 4.899-2.565 11.266-1.615 19.1 2.852 1.867.8 4.783.917 8.75.35 2.334-.366 6.4-1.1 12.2-2.2 12.167-1.898 22.85-.565 32.05 4 3.334-1.365 6.283-1.6 8.85-.698 2.533.934 4.2 2.383 5 4.35.167.166.316.383.45.65.967 2.032.55 6.467-1.25 13.3m-93.501-7.803c-.5-.234-1.017-.45-1.55-.65.767-3.666 1.983-7.517 3.65-11.55.3-.667.6-1.352.899-2.05.435-.534.885-1.034 1.352-1.5 5.199-5.034 12.583-4.834 22.148.599 1.866.8 4.784.916 8.75.35 2.333-.365 6.4-1.1 12.2-2.198 12.166-1.9 22.85-.566 32.05 4 3.333-1.367 6.284-1.602 8.851-.7 2.533.933 4.199 2.384 5 4.35.566.602.883 1.667.949 3.2m-89.948-9.601c-.768 0-1.566.065-2.4.198.8-2.532 1.8-5.148 3-7.85 5.233-6.533 13.066-6.834 23.5-.9 1.867.802 4.783.917 8.75.352 2.334-.366 6.4-1.102 12.2-2.2 12.167-1.9 22.85-.566 32.05 4 3.334-1.367 6.283-1.6 8.85-.7 2.533.935 4.2 2.384 5 4.352.5.5.801 1.333.9 2.5.233 2.266-.25 5.766-1.45 10.5m-92.8-10.053c-.666.135-1.334.302-2 .5.867-3.532 2.166-7.266 3.9-11.198l.149-.352c.5-.634 1.034-1.2 1.601-1.7 5.166-4.833 12.467-4.565 21.899.802 1.866.8 4.784.916 8.75.35 2.333-.367 6.4-1.1 12.2-2.2 12.166-1.898 22.85-.565 32.05 4 3.333-1.366 6.284-1.6 8.851-.7 2.533.935 4.199 2.385 5 4.352.6.6.916 1.667.949 3.2m2.551-14.503c-.801-1.968-2.467-3.417-5-4.352-2.566-.898-5.518-.667-8.851.7-9.2-4.566-19.884-5.9-32.05-4-5.8 1.1-9.867 1.834-12.2 2.2-3.966.565-6.884.45-8.75-.352-10.433-5.934-18.267-5.633-23.5.9-1.366 3.1-2.483 6.084-3.35 8.95-.534-.2-1.083-.417-1.65-.65.8-3.232 1.95-6.6 3.45-10.1l.6-1.4c.768-.966 1.601-1.8 2.5-2.5 5.101-4 12.101-3.466 21 1.602 1.867.8 4.783.916 8.75.35 2.334-.367 6.4-1.1 12.2-2.2 12.167-1.898 22.851-.565 32.05 4 3.334-1.366 6.283-1.6 8.851-.7 1.5.566 2.716 1.302 3.649 2.2.566.634 1.018 1.352 1.351 2.15.567.601.884 1.668.95 3.202 1.699 1.766 1.149 7.434-1.65 17m-.9-32c-.8-1.968-2.467-3.417-5-4.352-2.566-.898-5.516-.667-8.85.7-9.2-4.566-19.883-5.9-32.05-4-5.8 1.1-9.866 1.834-12.2 2.2-3.967.565-6.883.45-8.75-.352-10.434-5.934-18.267-5.633-23.5.9-1.467 3.334-2.65 6.517-3.55 9.55-.534-.2-1.067-.417-1.601-.648.768-3.269 1.9-6.7 3.4-10.302l.8-1.8c.733-.898 1.5-1.683 2.3-2.35 5.134-4.134 12.2-3.65 21.2 1.45 1.866.8 4.784.916 8.75.35 2.333-.367 6.4-1.1 12.2-2.2 12.166-1.898 22.85-.565 32.05 4 3.333-1.366 6.284-1.6 8.851-.7 2.399.9 4.033 2.25 4.899 4.052l.101.3c.566.601.883 1.668.95 3.202 1.2 1.266 1.283 4.481.25 9.648m-93.051-31.049l.5-1.2c5.233-6.533 13.067-6.833 23.5-.898 1.866.8 4.784.916 8.75.35 2.333-.367 6.4-1.1 12.2-2.2 12.166-1.898 22.85-.565 32.05 4 3.333-1.366 6.284-1.6 8.851-.7 2.533.935 4.199 2.385 5 4.352.566.6.883 1.667.949 3.2-.8-1.968-2.467-3.417-5-4.352-2.566-.898-5.516-.667-8.85.7-9.2-4.566-19.883-5.9-32.05-4-5.8 1.1-9.866 1.834-12.2 2.2-3.967.565-6.883.45-8.75-.352-10.434-5.934-18.267-5.633-23.5.9-1.4 3.166-2.533 6.2-3.4 9.1-.533-.231-1.083-.448-1.649-.648.667-2.602 1.55-5.3 2.649-8.102.268-.766.585-1.55.95-2.35zm91.801 6.901c1.301 1.365 1.283 5.032-.05 11m-91.8 94.899c-.8.333-1.633.602-2.5.8-24.9 3.667-44.533 3.667-58.9 0-9.9 3.2-16.4.25-19.5-8.85-.3-.9-.55-1.816-.75-2.75-.766-3.1-1.033-6.4-.8-9.9.366-6.133 2.183-12.883 5.45-20.25 5.233-6.532 13.066-6.833 23.5-.898 1.867.8 4.783.917 8.75.35 2.334-.366 6.4-1.1 12.2-2.2 12.066-1.898 22.667-.615 31.8 3.852m-79.8-19.104l.1-.198c.134-.201.284-.385.45-.552 1.2-1.365 2.533-2.434 4-3.198.733-.367 1.5-.667 2.3-.9 4.534-1.267 10.116-.017 16.75 3.75 1.866.8 4.784.916 8.75.35 2.333-.367 6.4-1.101 12.2-2.2 12.166-1.9 22.85-.566 32.05 4 .467-.2.95-.385 1.45-.552m2.15 2.85c-.867.233-1.75.533-2.65.899-9.2-4.565-19.883-5.898-32.05-4-5.8 1.102-9.866 1.834-12.2 2.2-3.967.567-6.883.45-8.75-.35-10.434-5.935-18.267-5.634-23.5.898-5.133 11.567-6.684 21.618-4.65 30.151l-.199-.45c-3.066-9.033-1.801-19.933 3.8-32.7-.568-3.399-.584-7.05-.051-10.949-1.467-4.734-1.768-9.968-.9-15.7.133-.866.3-1.75.5-2.65.867-4.3 2.383-8.884 4.55-13.75 5.233-6.533 13.067-6.833 23.5-.898 1.866.8 4.784.916 8.75.35 2.333-.367 6.4-1.1 12.2-2.2 10.6-1.667 20.084-.866 28.45 2.4m5.25 29.999c.466.2.95.417 1.45.648m.35-11.398c-.5.167-1 .35-1.5.55-9.2-4.566-19.883-5.9-32.05-4-5.8 1.1-9.866 1.834-12.2 2.2-3.967.566-6.883.45-8.75-.351-10.434-5.934-18.267-5.633-23.5.9-3.967 8.934-5.8 16.967-5.5 24.1m86.6-27.299c-1.732.034-3.583.45-5.55 1.25l-2.1-1m-82.401 63.55c-.267-.833-.5-1.698-.7-2.6m2.501 15l-.199-.45c-1.268-3.667-1.801-7.649-1.601-11.95.267-6.333 2.101-13.315 5.5-20.948 5.233-6.533 13.067-6.834 23.5-.9 1.866.8 4.784.916 8.75.35 2.333-.365 6.4-1.1 12.2-2.198 11.066-1.734 20.9-.783 29.5 2.85m-69.701-19.754c.634-1.8 1.366-3.633 2.2-5.5 5.233-6.533 13.066-6.834 23.5-.9 1.867.802 4.783.917 8.75.352 2.334-.366 6.4-1.102 12.2-2.2 10.6-1.666 20.083-.867 28.45 2.4m-81.999-.251l.1-.5c.733-5.135 2.416-10.667 5.05-16.602 5.233-6.533 13.067-6.833 23.5-.898 1.866.8 4.784.916 8.75.35 2.333-.367 6.4-1.1 12.2-2.2 10.566-1.667 20.017-.884 28.35 2.352m-73.35 24.498c.9-3.066 2.084-6.269 3.55-9.602 5.233-6.533 13.067-6.833 23.5-.898 1.866.8 4.784.916 8.75.35 2.333-.367 6.4-1.1 12.2-2.2 10.434-1.634 19.783-.884 28.05 2.25m-81.55-12.601c-1.434-8.134.25-17.602 5.05-28.4 5.233-6.533 13.067-6.833 23.5-.898 1.866.8 4.784.916 8.75.35 2.333-.367 6.4-1.1 12.2-2.2 12.166-1.898 22.85-.583 32.05 3.95m-81.05 24.548c-.033-6.732 1.8-14.25 5.5-22.55 5.233-6.533 13.066-6.834 23.5-.9 1.867.802 4.783.917 8.75.352 2.334-.366 6.4-1.102 12.2-2.2 11.333-1.767 21.384-.733 30.149 3.1m1.651 12.748c-9.133-4.467-19.733-5.75-31.8-3.85-5.8 1.1-9.866 1.834-12.2 2.2-3.967.565-6.883.45-8.75-.352-10.434-5.934-18.267-5.633-23.5.9-4.8 10.8-6.467 20.267-5 28.4m84.35-31.448c-1.199.2-2.467.565-3.8 1.1-.634-.333-1.283-.648-1.95-.95" fill="none"/></symbol><symbol viewBox="-49.401 -30.2 98.802 60.399"><path fill="#E0E4E7" d="M41.538 8.936c5.933-16.667 7.75-26.2 5.45-28.601-.8-1.966-2.466-3.417-5-4.35-2.566-.9-5.517-.667-8.85.7-9.2-4.566-19.883-5.9-32.05-4-5.8 1.1-9.867 1.833-12.2 2.199-3.967.566-6.883.45-8.75-.35-10.434-5.933-18.267-5.633-23.5.9-5.7 12.833-7 23.8-3.9 32.899 3.1 9.101 9.6 12.05 19.5 8.851 14.367 3.667 34 3.667 58.9 0 4.667-1.032 8.133-3.782 10.4-8.248z"/><path stroke="#E0E4E7" stroke-linecap="round" stroke-linejoin="round" stroke-miterlimit="3" d="M41.538 8.936c-2.267 4.467-5.733 7.217-10.4 8.25-24.9 3.667-44.534 3.667-58.9 0-9.9 3.199-16.4.25-19.5-8.851-3.1-9.1-1.8-20.065 3.9-32.899 5.233-6.533 13.066-6.833 23.5-.9 1.867.8 4.783.917 8.75.35 2.333-.366 6.4-1.1 12.2-2.199 12.167-1.9 22.85-.566 32.05 4 3.333-1.367 6.283-1.601 8.85-.7 2.534.933 4.2 2.383 5 4.35 2.3 2.398.483 11.932-5.45 28.599z" fill="none"/><path fill="#fff" d="M42.487 14.785c5.934-13.733 7.75-21.583 5.45-23.55-.8-1.633-2.467-2.833-5-3.601-2.567-.732-5.517-.532-8.85.601-9.2-3.768-19.883-4.867-32.05-3.3-5.8.899-9.867 1.5-12.2 1.8-3.967.466-6.883.367-8.75-.3-10.433-4.867-18.267-4.617-23.5.75-5.7 10.566-7 19.6-3.9 27.1s9.6 9.933 19.5 7.3c14.367 3 34 3 58.9 0 4.667-.867 8.134-3.133 10.4-6.8z"/><path stroke="#fff" stroke-linecap="round" stroke-linejoin="round" stroke-miterlimit="3" d="M42.487 14.785c-2.267 3.667-5.733 5.933-10.4 6.8-24.9 3-44.533 3-58.9 0-9.9 2.633-16.4.2-19.5-7.3s-1.8-16.533 3.9-27.1c5.233-5.367 13.067-5.617 23.5-.75 1.867.667 4.783.767 8.75.3 2.333-.3 6.4-.9 12.2-1.8 12.167-1.566 22.85-.468 32.05 3.3 3.333-1.133 6.283-1.333 8.85-.601 2.533.768 4.2 1.968 5 3.601 2.3 1.967.483 9.817-5.45 23.55z" fill="none"/><path d="M1.756 30.199l6.459-38.796-17.803-2.965-6.459 38.796z" fill="none"/><text transform="matrix(-.143 .857 .986 .164 -.324 -4.617)" fill="#4F5D5D" font-family="'Consolas'" font-size="12">сахар</text></symbol><symbol viewBox="-78.5 -14.75 157 29.5"><path fill="#B77734" d="M78 5.5v-11h-18.5v11h18.5zm-67.5-11h-18.5v11h18.5v-11zm-70 11v-11h-18.5v11h18.5z"/><path stroke="#B77734" stroke-linecap="round" stroke-linejoin="round" stroke-miterlimit="3" d="M78 5.5v-11h-18.5v11h18.5zm-67.5-11h-18.5v11h18.5v-11zm-70 11v-11h-18.5v11h18.5z" fill="none"/><path fill="#EDBB7C" d="M78 5.5h-156v8.75h156v-8.75zm0-19.75h-156v8.75h156v-8.75z"/><path stroke="#EDBB7C" stroke-linecap="round" stroke-linejoin="round" stroke-miterlimit="3" d="M78 5.5h-156v8.75h156v-8.75zm0-19.75h-156v8.75h156v-8.75z" fill="none"/></symbol><symbol viewBox="-32.401 -43.403 64.802 86.806"><path fill="#fff" d="M28.787-17.197c-.158-.743-.325-1.493-.5-2.25-1.233-3.633-4.4-6.333-9.5-8.1-18.9-4.634-29.684-6.051-32.35-4.25-.567.167-1.067.366-1.5.6-1.467.733-2.583 1.833-3.35 3.3-.933 2-.6 4.3 1 6.9-5.033 7.167-6.383 15.482-4.05 24.95 1.333 4.532 2.216 7.699 2.65 9.5.7 3.1.617 5.383-.25 6.85-2.49 3.103-3.957 5.911-4.4 8.425-.72 4.054 1.213 7.347 5.8 9.875 9.533 2.9 18.15 4.333 25.85 4.3 4.033-.032 7.816-.467 11.35-1.3 10.2-2.399 13.417-7.45 9.65-15.149 3.748-10.765 3.614-25.314-.4-43.651z"/><path fill="#E0E4E7" d="M28.787-17.197c-.655-3.987-1.555-8.187-2.7-12.6-1.4-3.634-4.933-6.333-10.6-8.101-21.133-4.633-33.183-6.05-36.15-4.25-.633.167-1.2.367-1.7.601-1.633.732-2.867 1.833-3.7 3.3-1.067 2-.7 4.3 1.1 6.899-5.633 7.167-7.15 15.483-4.55 24.95 1.533 4.534 2.533 7.7 3 9.5.767 3.101.667 5.383-.3 6.851-7.267 8.1-6.75 14.199 1.55 18.3.603.164 1.203.322 1.8.475.443-2.514 1.91-5.322 4.4-8.425.867-1.467.95-3.75.25-6.85-.434-1.801-1.317-4.968-2.65-9.5-2.333-9.468-.983-17.783 4.05-24.95-1.6-2.601-1.933-4.9-1-6.9.767-1.466 1.883-2.565 3.35-3.3.433-.233.933-.433 1.5-.6 2.667-1.801 13.45-.384 32.35 4.25 5.1 1.767 8.267 4.467 9.5 8.1.175.757.342 1.507.5 2.25z"/><path stroke="#fff" stroke-linecap="round" stroke-linejoin="round" stroke-miterlimit="3" d="M28.787-17.197c4.014 18.337 4.147 32.887.4 43.65 3.767 7.699.55 12.75-9.65 15.149-3.534.833-7.317 1.268-11.35 1.3-7.7.033-16.317-1.399-25.85-4.3-4.586-2.528-6.52-5.821-5.8-9.875.443-2.514 1.91-5.322 4.4-8.425.867-1.467.95-3.75.25-6.85-.434-1.801-1.317-4.968-2.65-9.5-2.333-9.468-.983-17.783 4.05-24.95-1.6-2.601-1.933-4.9-1-6.9.767-1.466 1.883-2.565 3.35-3.3.433-.233.933-.433 1.5-.6 2.667-1.801 13.45-.384 32.35 4.25 5.1 1.767 8.267 4.467 9.5 8.1.175.758.342 1.508.5 2.251z" fill="none"/><path stroke="#E0E4E7" stroke-linecap="round" stroke-linejoin="round" stroke-miterlimit="3" d="M-23.463 28.728c-.597-.152-1.198-.311-1.8-.475-8.3-4.101-8.816-10.2-1.55-18.3.967-1.468 1.066-3.75.3-6.851-.467-1.8-1.467-4.966-3-9.5-2.6-9.466-1.083-17.783 4.55-24.95-1.8-2.6-2.167-4.899-1.1-6.899.833-1.467 2.066-2.567 3.7-3.3.5-.233 1.067-.434 1.7-.601 2.967-1.8 15.017-.383 36.15 4.25 5.667 1.768 9.2 4.467 10.6 8.101 1.145 4.413 2.045 8.612 2.7 12.6" fill="none"/></symbol><symbol viewBox="-10.25 -106.351 20.5 212.7"><path fill="#93A4AC" d="M9.75 47.35v-153.2h-19.5v196.7h19.5-19.5v15h19.5v-58.5zm-19.5 0h19.5-19.5zm0-45.55h19.5-19.5zm0-46.5h19.5-19.5zm0-46h19.5-19.5z"/><path stroke="#93A4AC" stroke-linecap="round" stroke-linejoin="round" stroke-miterlimit="3" d="M9.75 90.85v15h-19.5v-15m19.5-43.5v43.5m0-43.5v-153.2h-19.5v196.7" fill="none"/><path stroke="#657D8B" stroke-linecap="round" stroke-linejoin="round" stroke-miterlimit="3" d="M-9.75 90.85h19.5m-19.5-43.5h19.5m-19.5-45.55h19.5m-19.5-46.5h19.5m-19.5-46h19.5" fill="none"/></symbol><symbol viewBox="-56.502 -164.675 113.004 329.35"><path fill="#A3B1B9" d="M42.501 164.675h14v-165.675c-.658-13.427-7.483-21.594-20.475-24.5-.505-.114-1.014-.173-1.525-.175h-60l-.45.025c-10.174.639-15.69-2.836-16.55-10.426v-121.6c0-1.933-.683-3.583-2.05-4.95-1.367-1.367-3.017-2.05-4.95-2.05s-3.583.683-4.95 2.05c-1.367 1.367-2.05 3.018-2.05 4.95v122.4c.514 16.888 10.847 24.754 31 23.6h59.2c5.602 1.495 8.535 5.27 8.8 11.325v165.026z"/></symbol><symbol viewBox="-92.985 -162.399 185.97 324.8"><path fill="#A3B1B9" d="M78.965 162.4h14v-58.85c.585-21.04-12.057-31.707-37.925-32h-39.075v-119c.001-.289-.016-.581-.05-.875-1.98-17.734-12.721-25.776-32.225-24.124h-45.675c-.247.003-.497.02-.75.05-5.563.595-9.779-.122-12.65-2.149-2.335-2.312-3.535-5.944-3.6-10.9v-69.95c0-1.933-.683-3.583-2.05-4.95-1.367-1.366-3.017-2.05-4.95-2.05s-3.583.685-4.95 2.05c-1.367 1.367-2.05 3.018-2.05 4.95v70.025c.114 10.046 2.997 17.237 8.65 21.575 5.043 4.566 12.585 6.35 22.625 5.35h45.725c.206.001.415-.007.625-.025 10.123-.9 15.897 2.958 17.325 11.575v118.45h-59.625c-10.456-.87-18.056 1.414-22.8 6.85-5.079 4.844-7.254 12.618-6.525 23.325v60.673h14v-60.85l-.025-.525c-.433-5.854.45-10.163 2.65-12.925 2.535-2.18 6.452-3.038 11.75-2.575.209.018.417.025.625.025h112.925c15.63.201 23.638 6.185 24.025 17.95v58.9z"/></symbol><symbol viewBox="-7.45 -161.8 14.9 323.6"><path fill="#DADEDE" d="M6.95 161.8v-323.6h-13.9v323.6z"/><path stroke="#C0C9C8" stroke-linecap="round" stroke-linejoin="round" stroke-miterlimit="3" d="M-6.95 109h13.9m-13.9-54.5h13.9m-13.9-55.5h13.9m-13.9-53.5h13.9m-13.9-54.5h13.9" fill="none"/></symbol><path fill="#EB2227" stroke="#000" stroke-miterlimit="10" d="M850.611 39.15h-158.179v-36.405h158.304l26.194 16.99zm-122.946 0h-724.761v-36.405h724.761"/><path d="M2.559 13.477h836.623v36.261h-836.623z" fill="none"/><path fill="#fff" d="M228.193 25.208h-6.814v-1.345h2.789v-7.92l-2.599 1.412-.53-1.229 3.452-1.818h1.278v9.555h2.424v1.345zm9.687-5.421c0 .83-.083 1.586-.249 2.27s-.418 1.271-.755 1.76c-.337.49-.757.869-1.258 1.139-.5.269-1.089.402-1.765.402-.581 0-1.108-.109-1.585-.328-.476-.219-.883-.555-1.22-1.008-.337-.455-.598-1.033-.78-1.736-.182-.703-.273-1.535-.273-2.498 0-.83.084-1.588.253-2.273.168-.688.42-1.275.755-1.766.335-.488.754-.867 1.258-1.137.503-.268 1.09-.402 1.76-.402.581 0 1.109.109 1.585.328.477.219.883.557 1.221 1.012.337.457.598 1.037.779 1.74.182.703.274 1.534.274 2.497zm-6.424-.049l.004.514.028.498 4.591-3.395c-.083-.283-.188-.539-.315-.771s-.279-.434-.457-.604c-.177-.168-.379-.299-.605-.393-.228-.096-.481-.143-.765-.143-.376 0-.718.092-1.024.275-.308.182-.568.455-.784.816-.216.363-.382.811-.498 1.346-.117.535-.175 1.154-.175 1.857zm4.963.1c0-.189-.007-.375-.021-.561l-.045-.545-4.59 3.412c.083.287.188.553.315.797s.28.453.461.627c.18.175.384.312.613.406.229.098.491.146.784.146.376 0 .718-.092 1.025-.274.307-.183.567-.453.784-.813.216-.359.382-.807.498-1.342.118-.533.176-1.152.176-1.853zm6.799 2.756c.188 0 .367.035.535.107.169.071.314.172.439.299.124.127.224.274.294.442.072.17.108.351.108.545 0 .188-.036.365-.108.531-.071.166-.17.312-.294.437-.125.123-.271.223-.439.295-.168.069-.348.106-.535.106-.194 0-.374-.037-.54-.106-.166-.072-.311-.172-.436-.295-.124-.125-.224-.271-.295-.437-.07-.166-.107-.345-.107-.531 0-.194.036-.375.107-.545.072-.168.171-.315.295-.442.125-.127.27-.228.436-.299.166-.072.346-.107.54-.107zm23.2 1.369l-.108 3.594h-1.32v-2.35h-6.158v2.35h-1.32l-.108-3.594h.125c.184 0 .362-.055.54-.162.179-.107.35-.299.516-.572.166-.275.321-.645.469-1.109.146-.465.281-1.053.402-1.764s.227-1.559.314-2.543c.088-.986.158-2.137.208-3.453h5.246v9.604h1.194v-.001zm-2.672-8.326h-2.399c-.039 1.15-.098 2.195-.179 3.133-.08.939-.186 1.76-.315 2.467-.13.705-.286 1.287-.469 1.746s-.398.787-.647.98h4.01v-8.326h-.001zm11.272 4.965l-.008.514-.025.39h-5.852c0 .853.238 1.507.714 1.964s1.162.686 2.059.686c.244 0 .487-.01.73-.028.243-.02.479-.047.706-.08l.652-.111c.207-.041.398-.088.576-.137v1.188c-.393.109-.837.199-1.333.27-.494.068-1.008.104-1.54.104-.714 0-1.327-.098-1.843-.291-.515-.192-.937-.475-1.266-.842-.329-.369-.572-.819-.73-1.354-.156-.535-.235-1.139-.235-1.813 0-.586.084-1.141.253-1.664s.415-.982.739-1.377c.322-.396.721-.711 1.19-.943s1.004-.348 1.603-.348c.58 0 1.096.092 1.544.273.447.184.825.441 1.133.775.308.336.54.742.697 1.221.157.474.236 1.009.236 1.603zm-1.502-.209c.018-.371-.02-.709-.107-1.016-.089-.309-.227-.572-.411-.793-.187-.223-.417-.395-.693-.52s-.598-.186-.963-.186c-.315 0-.604.061-.863.182s-.483.293-.672.516c-.188.221-.34.486-.457.797-.116.309-.188.648-.216 1.02h4.382zm11.305 4.815h-1.983l-3.885-4.465v4.465h-1.444v-8.334h1.444v3.811l3.743-3.811h1.909l-3.91 3.844 4.126 4.49zm8.475 0h-1.444v-7.088h-2.324c-.065 1.139-.165 2.117-.294 2.93-.13.814-.287 1.493-.469 2.038s-.39.975-.623 1.287c-.232.312-.482.539-.751.682-.269.141-.552.209-.851.207-.3-.004-.606-.043-.921-.121l.065-1.195c.221.023.429.012.623-.033.194-.043.374-.149.54-.317.166-.171.317-.412.452-.73.136-.317.259-.743.37-1.274.11-.531.206-1.182.287-1.955.08-.771.145-1.691.194-2.76h5.146v8.333zm8.077 0l-.033-1.119c-.454.447-.915.771-1.382.971-.468.199-.959.299-1.475.299-.476 0-.883-.061-1.22-.184-.337-.121-.616-.289-.834-.502s-.379-.463-.48-.75c-.103-.289-.153-.603-.153-.939 0-.836.312-1.49.934-1.963.623-.473 1.543-.709 2.76-.709h1.728v-.73c0-.492-.158-.887-.473-1.184-.315-.295-.798-.443-1.444-.443-.47 0-.934.053-1.391.158-.456.104-.929.254-1.415.447v-1.303c.183-.066.386-.133.609-.195.225-.064.46-.121.709-.17.249-.051.509-.09.78-.121.271-.029.545-.045.822-.045.503 0 .958.055 1.36.166.404.109.746.279 1.025.506s.494.512.643.855c.149.342.225.746.225 1.211v5.745h-1.295zm-.158-3.793h-1.834c-.36 0-.669.034-.93.106-.262.072-.474.176-.64.31-.166.133-.289.291-.37.477-.08.186-.12.395-.12.627 0 .16.025.314.075.461s.13.275.241.389c.111.114.254.205.432.271.179.066.394.1.647.1.332 0 .712-.102 1.142-.305.43-.201.882-.521 1.357-.957v-1.479zm11.273-.524c0 .742-.104 1.389-.311 1.943-.208.553-.494 1.012-.859 1.377-.364.365-.797.641-1.295.822-.498.184-1.038.272-1.619.272-.266 0-.529-.015-.792-.041-.263-.027-.529-.074-.801-.142v3.486h-1.443v-11.735h1.286l.092 1.395c.415-.57.857-.969 1.327-1.199.471-.229.979-.344 1.527-.344.477 0 .895.1 1.253.299.359.199.661.48.905.842.244.363.426.801.548 1.313.122.512.182 1.081.182 1.712zm-1.478.066c0-.438-.032-.838-.095-1.203-.064-.365-.165-.678-.304-.938-.138-.26-.314-.465-.53-.611-.217-.146-.474-.219-.772-.219-.183 0-.368.029-.556.086-.188.059-.383.156-.585.291-.202.137-.415.316-.64.539-.225.225-.464.504-.718.836v4.041c.267.111.545.199.838.263s.581.096.863.096c.78 0 1.392-.264 1.834-.793.444-.529.665-1.325.665-2.388zm5.263-4.084v5.87l3.637-5.87h1.378v8.334h-1.444v-5.867l-3.636 5.868h-1.378v-8.334h1.443zm14.908 4.018c0 .742-.104 1.389-.311 1.943-.208.553-.494 1.012-.859 1.377s-.797.641-1.295.822c-.498.184-1.038.272-1.619.272-.266 0-.53-.015-.792-.041-.263-.027-.53-.074-.801-.142v3.486h-1.444v-11.735h1.287l.091 1.395c.415-.57.858-.969 1.328-1.199.47-.229.979-.344 1.527-.344.476 0 .894.1 1.253.299.358.199.661.48.905.842.243.363.426.801.548 1.313.122.512.182 1.081.182 1.712zm-1.477.066c0-.438-.032-.838-.096-1.203-.063-.365-.165-.678-.303-.938-.138-.26-.314-.465-.531-.611-.216-.146-.473-.219-.771-.219-.184 0-.368.029-.557.086-.188.059-.383.156-.585.291-.201.137-.415.316-.639.539-.225.225-.464.504-.718.836v4.041c.266.111.545.199.838.263s.581.096.863.096c.779 0 1.392-.264 1.834-.793.443-.529.665-1.325.665-2.388zm10.957.018c0 .646-.092 1.24-.274 1.779-.183.541-.445 1.002-.789 1.387s-.761.684-1.253.896c-.492.211-1.051.319-1.677.319-.599 0-1.133-.094-1.606-.278-.473-.187-.874-.457-1.203-.816-.33-.359-.581-.805-.756-1.336-.174-.531-.261-1.146-.261-1.836 0-.646.091-1.238.274-1.771.183-.535.444-.994.788-1.379.345-.385.762-.684 1.254-.896.491-.212 1.051-.318 1.677-.318.598 0 1.133.092 1.605.277.474.186.874.457 1.203.814.33.355.581.801.756 1.332.174.531.262 1.138.262 1.826zm-1.478.066c0-.516-.057-.965-.17-1.35-.113-.385-.275-.705-.485-.963s-.466-.451-.768-.58c-.302-.131-.638-.195-1.009-.195-.433 0-.801.084-1.108.252-.307.17-.559.395-.755.678-.197.281-.341.609-.432.982-.093.375-.138.766-.138 1.176 0 .514.058.965.17 1.354.113.387.275.709.485.967.21.256.465.451.764.58.3.131.637.195 1.014.195.432 0 .801-.084 1.107-.254.308-.168.56-.394.755-.676.197-.281.342-.609.433-.984.092-.373.137-.767.137-1.182zm10.725 1.734c0 .384-.08.729-.241 1.047-.161.314-.41.584-.747.81-.337.225-.766.397-1.282.522-.518.123-1.133.187-1.847.187-.471 0-.972-.019-1.502-.053-.531-.037-1.043-.086-1.536-.146v-8.225c.52-.063 1.047-.109 1.582-.143.534-.033 1.11-.049 1.729-.049 1.124 0 1.978.184 2.562.551.584.369.876.898.876 1.59 0 .471-.136.875-.407 1.213-.271.338-.681.586-1.229.746.267.045.521.117.769.221.246.102.463.234.651.398.188.162.339.354.451.576.114.223.171.475.171.755zm-1.885-3.619c0-.193-.039-.367-.115-.523-.078-.154-.201-.287-.369-.398-.169-.109-.392-.195-.664-.252-.274-.059-.605-.088-.992-.088-.349 0-.653.008-.913.021s-.518.037-.772.07v2.406h1.678c1.431.001 2.147-.412 2.147-1.236zm.357 3.653c0-.432-.195-.756-.585-.975-.391-.22-.997-.328-1.822-.328h-1.776v2.549c.271.043.54.074.806.09.266.018.569.025.913.025.493 0 .897-.033 1.216-.101.318-.065.57-.159.756-.28.185-.123.314-.267.386-.433.071-.165.106-.348.106-.547zm9.073 2.399l-.033-1.119c-.454.447-.915.771-1.382.971-.469.199-.959.299-1.475.299-.476 0-.883-.061-1.22-.184-.337-.121-.616-.289-.834-.502s-.379-.463-.481-.75c-.102-.289-.152-.603-.152-.939 0-.836.312-1.49.934-1.963.623-.473 1.543-.709 2.76-.709h1.728v-.73c0-.492-.158-.887-.473-1.184-.315-.295-.798-.443-1.444-.443-.47 0-.935.053-1.392.158-.455.104-.928.254-1.414.447v-1.303c.183-.066.386-.133.609-.195.225-.064.46-.121.709-.17.249-.051.509-.09.78-.121.271-.029.545-.045.822-.045.503 0 .958.055 1.36.166.404.109.746.279 1.025.506s.494.512.643.855c.149.342.225.746.225 1.211v5.745h-1.295zm-.158-3.793h-1.834c-.36 0-.669.034-.931.106-.261.072-.473.176-.639.31-.166.133-.289.291-.37.477-.08.186-.12.395-.12.627 0 .16.025.314.075.461s.13.275.241.389c.111.114.254.205.432.271.179.066.394.1.647.1.332 0 .712-.102 1.142-.305.43-.201.881-.521 1.357-.957v-1.479zm10.85 3.793h-1.445v-3.687h-3.811v3.687h-1.444v-8.334h1.444v3.387h3.811v-3.387h1.443l.002 8.334zm4.208-8.335v5.87l3.636-5.87h1.379v8.334h-1.444v-5.867l-3.636 5.868h-1.378v-8.334h1.443zm14.825 3.729l-.008.514-.025.39h-5.852c0 .853.238 1.507.714 1.964s1.162.686 2.059.686c.244 0 .487-.01.73-.028.243-.02.479-.047.706-.08l.651-.111c.207-.041.399-.088.577-.137v1.188c-.393.109-.837.199-1.333.27-.495.068-1.008.104-1.54.104-.714 0-1.328-.098-1.843-.291-.515-.192-.937-.475-1.266-.842-.329-.369-.572-.819-.73-1.354-.157-.535-.235-1.139-.235-1.813 0-.586.084-1.141.253-1.664s.415-.982.738-1.377c.323-.396.722-.711 1.191-.943s1.004-.348 1.602-.348c.581 0 1.097.092 1.544.273.448.184.826.441 1.134.775.308.336.54.742.696 1.221.159.474.237 1.009.237 1.603zm-1.502-.209c.017-.371-.021-.709-.108-1.016-.088-.309-.226-.572-.411-.793-.186-.223-.417-.395-.692-.52-.276-.125-.598-.186-.963-.186-.315 0-.604.061-.863.182s-.484.293-.672.516c-.188.221-.34.486-.457.797-.116.309-.188.648-.216 1.02h4.382zm14.717-3.52v5.87l3.636-5.87h1.377v8.334h-1.443v-5.867l-3.636 5.868h-1.378v-8.334h1.444zm23.608 8.027c-.377.146-.764.25-1.158.32-.396.067-.805.104-1.225.104-1.316 0-2.331-.356-3.042-1.069-.711-.715-1.066-1.758-1.066-3.131 0-.658.103-1.256.307-1.793.205-.537.493-.996.863-1.377.371-.383.814-.678 1.328-.885.516-.207 1.082-.311 1.702-.311.432 0 .836.029 1.212.092.376.061.735.16 1.079.299v1.377c-.359-.188-.728-.324-1.101-.41-.374-.086-.76-.129-1.158-.129-.37 0-.721.07-1.05.211-.328.141-.618.346-.866.611-.25.266-.446.588-.591.971-.144.381-.216.813-.216 1.295 0 1.007.245 1.761.734 2.263.49.5 1.169.752 2.038.752.393 0 .772-.045 1.142-.133.368-.091.724-.224 1.066-.398l.002 1.341zm9.91-4.298l-.008.514-.024.39h-5.853c0 .853.237 1.507.713 1.964.478.457 1.162.686 2.06.686.243 0 .486-.01.729-.028.244-.021.479-.047.706-.08.228-.033.444-.07.651-.111.208-.041.399-.088.577-.137v1.188c-.394.109-.837.199-1.332.27-.495.068-1.01.104-1.54.104-.714 0-1.328-.098-1.844-.291-.515-.192-.937-.475-1.266-.842-.329-.369-.573-.819-.729-1.354-.158-.535-.237-1.139-.237-1.813 0-.586.085-1.141.254-1.664s.415-.982.738-1.377c.324-.396.721-.711 1.19-.943.471-.232 1.004-.348 1.603-.348.582 0 1.096.092 1.545.273.447.184.825.441 1.133.775.307.336.539.742.697 1.221.159.474.237 1.009.237 1.603zm-1.502-.209c.017-.371-.02-.709-.107-1.016-.089-.309-.227-.572-.411-.793-.187-.223-.416-.395-.693-.52-.275-.125-.598-.186-.963-.186-.313 0-.603.061-.863.182s-.482.293-.672.516c-.188.221-.34.486-.457.797-.114.309-.188.648-.215 1.02h4.381zm10.933.498c0 .742-.104 1.389-.313 1.943-.207.553-.493 1.012-.857 1.377-.365.365-.798.641-1.296.822-.497.184-1.037.272-1.618.272-.267 0-.53-.015-.793-.041-.264-.027-.529-.074-.802-.142v3.486h-1.443v-11.735h1.286l.092 1.395c.415-.57.856-.969 1.328-1.199.471-.229.979-.344 1.526-.344.477 0 .895.1 1.254.299.359.199.661.48.904.842.243.363.426.801.548 1.313.123.512.184 1.081.184 1.712zm-1.478.066c0-.438-.032-.838-.096-1.203-.064-.365-.164-.678-.303-.938-.14-.26-.315-.465-.531-.611s-.474-.219-.772-.219c-.182 0-.366.029-.556.086-.188.059-.383.156-.585.291-.202.137-.415.316-.64.539-.225.225-.464.504-.719.836v4.041c.267.111.546.199.839.263.294.063.582.096.862.096.781 0 1.394-.264 1.835-.793.445-.529.666-1.325.666-2.388zm10.941-2.838h-3.162v7.088h-1.461v-7.088h-3.163v-1.246h7.786v1.246zm3.669-1.246v5.87l3.636-5.87h1.378v8.334h-1.443v-5.867l-3.637 5.868h-1.378v-8.334h1.444zm11.81 11.738h-1.36v-3.287c-1.224-.065-2.138-.436-2.743-1.104-.605-.671-.909-1.72-.909-3.146 0-.715.089-1.33.266-1.848.179-.518.428-.949.748-1.295s.705-.613 1.153-.801.943-.313 1.485-.373v-3.279h1.36v3.262c.609.045 1.143.154 1.6.328.456.174.838.43 1.146.764.308.336.538.762.693 1.279.153.518.231 1.139.231 1.863 0 .746-.096 1.383-.287 1.907-.189.525-.451.959-.783 1.3-.332.342-.722.6-1.166.776-.445.176-.923.293-1.434.349v3.305zm-1.36-10.683c-.382.055-.72.168-1.013.336-.294.17-.528.393-.705.668-.178.277-.304.592-.379.947-.073.354-.11.73-.11 1.129 0 .493.041.922.124 1.288s.215.676.395.934c.18.256.408.461.686.609.275.149.61.25 1.004.299l-.002-6.21zm1.36 6.209c.383-.055.718-.166 1.006-.332.287-.166.521-.385.696-.656s.31-.584.396-.938c.086-.354.128-.738.128-1.154 0-.537-.048-.992-.146-1.369-.097-.377-.238-.688-.428-.934s-.421-.434-.697-.561c-.275-.127-.595-.215-.955-.266v6.21zm6.883-7.264v5.87l3.636-5.87h1.378v8.334h-1.444v-5.867l-3.636 5.868h-1.378v-8.334h1.444zm15.281 8.335h-1.983l-3.886-4.465v4.465h-1.443v-8.334h1.443v3.811l3.744-3.811h1.908l-3.909 3.844 4.126 4.49zm7.206 0l-.033-1.119c-.453.447-.915.771-1.383.971s-.959.299-1.473.299c-.478 0-.883-.061-1.221-.184-.339-.121-.615-.289-.834-.502-.22-.213-.38-.463-.481-.75-.103-.289-.153-.603-.153-.939 0-.836.312-1.49.935-1.963.622-.473 1.542-.709 2.76-.709h1.727v-.73c0-.492-.157-.887-.473-1.184-.315-.295-.797-.443-1.445-.443-.47 0-.934.053-1.39.158-.457.104-.929.254-1.415.447v-1.303c.182-.066.386-.133.609-.195.225-.064.461-.121.71-.17.249-.051.509-.09.779-.121.271-.029.545-.045.822-.045.503 0 .957.055 1.361.166.402.109.745.279 1.023.506.279.227.494.512.645.855.148.342.225.746.225 1.211v5.745h-1.295zm-.159-3.793h-1.834c-.359 0-.67.034-.93.106-.261.072-.474.176-.64.31-.166.133-.289.291-.369.477s-.12.395-.12.627c0 .16.023.314.074.461.05.146.13.275.24.389s.255.205.432.271c.178.066.394.1.647.1.332 0 .712-.102 1.142-.305.429-.201.882-.521 1.356-.957l.002-1.479zm11.78 2.548l-.084 3.369h-1.311v-2.125h-6.302v-8.334h1.444v7.09h3.802v-7.09h1.444v7.09h1.007zm3.279-7.09v5.87l3.636-5.87h1.378v8.334h-1.443v-5.867l-3.637 5.868h-1.378v-8.334h1.444zm8.309 5.928c.183-.389.383-.682.603-.881.219-.199.493-.332.825-.398-.35-.066-.637-.174-.862-.322-.229-.15-.408-.324-.544-.52-.137-.197-.229-.406-.282-.627-.053-.221-.079-.439-.079-.656 0-.365.061-.707.183-1.029.122-.32.318-.6.591-.838.271-.238.626-.426 1.065-.564.439-.139 1.069-.207 1.89-.207.459 0 .911.016 1.36.045.447.031.888.068 1.319.113v8.291h-1.444v-3.229h-1.254c-.193 0-.391.018-.593.055-.202.035-.386.103-.552.199-.166.096-.317.223-.453.377-.137.154-.256.352-.361.59l-.912 2.008h-1.636l1.136-2.407zm1.136-3.42c0 .475.162.832.485 1.07.324.238.804.357 1.44.357h1.561v-2.788l-.688-.051-.697-.016c-.477 0-.838.031-1.087.096-.249.063-.445.154-.589.273-.146.119-.251.264-.32.436-.07.172-.105.379-.105.623zm23.733 5.827h-1.445v-7.072h-3.81v7.072h-1.444v-8.334h6.699v8.334zm9.77-4.317c0 .742-.104 1.389-.313 1.943-.207.553-.493 1.012-.858 1.377-.364.365-.797.641-1.295.822-.498.184-1.037.272-1.618.272-.267 0-.53-.015-.794-.041-.263-.027-.528-.074-.801-.142v3.486h-1.443v-11.735h1.285l.093 1.395c.415-.57.856-.969 1.328-1.199.471-.229.979-.344 1.526-.344.477 0 .895.1 1.254.299.359.199.661.48.904.842.243.363.426.801.548 1.313.123.512.184 1.081.184 1.712zm-1.478.066c0-.438-.032-.838-.096-1.203-.064-.365-.164-.678-.304-.938-.139-.26-.314-.465-.53-.611s-.475-.219-.772-.219c-.182 0-.367.029-.556.086-.188.059-.383.156-.585.291-.202.137-.415.316-.641.539-.224.225-.463.504-.718.836v4.041c.267.111.545.199.838.263.294.063.582.096.863.096.781 0 1.393-.264 1.835-.793.445-.529.666-1.325.666-2.388zm10.957.018c0 .646-.091 1.24-.274 1.779-.182.541-.444 1.002-.787 1.387-.344.385-.762.684-1.254.896s-1.052.319-1.678.319c-.598 0-1.133-.094-1.604-.278-.475-.187-.875-.457-1.204-.816s-.581-.805-.755-1.336c-.175-.531-.263-1.146-.263-1.836 0-.646.093-1.238.273-1.771.184-.535.446-.994.789-1.379s.761-.684 1.254-.896c.492-.213 1.051-.318 1.676-.318.599 0 1.135.092 1.606.277.474.186.875.457 1.204.814.329.355.581.801.755 1.332.176.531.262 1.138.262 1.826zm-1.477.066c0-.516-.058-.965-.17-1.35-.113-.385-.275-.705-.486-.963-.21-.258-.466-.451-.769-.58-.302-.131-.638-.195-1.008-.195-.432 0-.802.084-1.107.252-.309.17-.561.395-.756.678-.196.281-.341.609-.433.982-.091.375-.137.766-.137 1.176 0 .514.057.965.17 1.354.113.387.275.709.485.967.211.256.465.451.764.58.299.131.637.195 1.014.195.433 0 .801-.084 1.107-.254.308-.168.56-.394.756-.676.196-.281.34-.609.432-.984.092-.373.138-.767.138-1.182zm11.306 2.922l-.091 3.369h-1.32v-2.125h-6.076v2.125h-1.303l-.084-3.369h.117c.21 0 .409-.033.598-.101.188-.065.362-.192.522-.379s.309-.44.443-.771c.137-.328.258-.756.365-1.277.107-.523.202-1.158.282-1.906.08-.746.146-1.633.203-2.656h5.146v7.089h1.198v.001zm-2.64-5.844h-2.324c-.057.951-.127 1.762-.216 2.432-.09.67-.192 1.229-.313 1.686-.119.453-.256.816-.41 1.088-.154.271-.327.482-.516.639h3.777l.002-5.845zm11.661-1.246l-2.838 7.456c-.294.758-.597 1.409-.908 1.959-.313.547-.654.996-1.025 1.348s-.777.611-1.22.777c-.443.166-.938.248-1.486.248l-.391-.009-.382-.024v-1.312l.398.045.456.021c.266 0 .514-.038.743-.116.229-.076.445-.203.65-.377.205-.175.401-.4.59-.677.188-.276.37-.612.549-1.006l-3.329-8.333h1.644l2.108 5.511.423 1.296.482-1.328 1.949-5.479h1.587zm9.431 8.335h-1.983l-3.885-4.465v4.465h-1.444v-8.334h1.444v3.811l3.743-3.811h1.91l-3.91 3.844 4.125 4.49zm9.479-1.245l-.084 3.369h-1.311v-2.125h-6.301v-8.334h1.443v7.09h3.803v-7.09h1.443v7.09h1.007zm3.28-7.09v5.87l3.636-5.87h1.378v8.334h-1.443v-5.867l-3.637 5.868h-1.378v-8.334h1.444zm9.345 0v5.87l3.637-5.87h1.378v8.334h-1.444v-5.867l-3.636 5.868h-1.378v-8.334h1.443z"/></svg>