<?xml version="1.0" encoding="utf-8"?>
<!-- Generator: Adobe Illustrator 15.1.0, SVG Export Plug-In . SVG Version: 6.00 Build 0)  -->
<!DOCTYPE svg PUBLIC "-//W3C//DTD SVG 1.1//EN" "http://www.w3.org/Graphics/SVG/1.1/DTD/svg11.dtd">
<svg version="1.1" id="Layer_1" xmlns="http://www.w3.org/2000/svg" xmlns:xlink="http://www.w3.org/1999/xlink" x="0px" y="0px"
	 width="1251.5px" height="483.5px" viewBox="13 6.5 1251.5 483.5" enable-background="new 13 6.5 1251.5 483.5"
	 xml:space="preserve">
<g id="image">
	<g id="fon">
		<rect x="13.022" y="6.353" fill="#F5F5F5" width="1251.707" height="484.237"/>
		
			<rect x="15.022" y="8.353" fill="none" stroke="#F5F5F5" stroke-width="0.1439" stroke-linecap="round" stroke-linejoin="round" stroke-miterlimit="3" width="1251.707" height="333.237"/>
	</g>
	<g id="tabl">
		<g id="lines">
			<g id="kolonn">
				<rect x="960.01" y="201.577" fill="#CF4E21" width="35.691" height="288.743"/>
				<rect x="775.08" y="201.577" fill="#CF4E21" width="35.69" height="289.411"/>
				<rect x="405.288" y="318.205" fill="#CF4E21" width="34.685" height="172.782"/>
				<rect x="590.22" y="298.36" fill="#CF4E21" width="34.611" height="192.628"/>
				<rect x="817.101" y="201.577" fill="#7CA88E" width="35.692" height="289.41"/>
				<rect x="447.312" y="298.001" fill="#7CA88E" width="34.683" height="193.653"/>
				<rect x="1001.603" y="174.593" fill="#7CA88E" width="35.979" height="317.062"/>
				<rect x="632.244" y="278.212" fill="#7CA88E" width="34.612" height="212.775"/>
				<rect x="1045.063" y="136.096" fill="#54ADB2" width="34.684" height="354.893"/>
				<rect x="859.127" y="201.577" fill="#54ADB2" width="35.688" height="289.41"/>
				<rect x="489.336" y="298.001" fill="#54ADB2" width="34.684" height="193.653"/>
				<rect x="674.267" y="253.027" fill="#54ADB2" width="34.612" height="237.961"/>
				<rect x="1086.079" y="99.397" fill="#BACCC1" width="35.692" height="391.258"/>
				<rect x="901.147" y="201.577" fill="#BACCC1" width="34.685" height="289.41"/>
				<rect x="531.358" y="298.001" fill="#BACCC1" width="34.685" height="192.986"/>
				<rect x="221.288" y="421.539" fill="#CF4E21" width="34.685" height="69.448"/>
				<rect x="263.312" y="398.668" fill="#7CA88E" width="34.683" height="92.986"/>
				<rect x="305.335" y="374.001" fill="#54ADB2" width="34.685" height="117.653"/>
				<rect x="347.358" y="350.001" fill="#BACCC1" width="34.684" height="140.986"/>
				<rect x="121.335" y="478.001" fill="#54ADB2" width="34.685" height="13.653"/>
				<rect x="163.358" y="454.001" fill="#BACCC1" width="34.684" height="36.986"/>
				<rect x="716.29" y="226.763" fill="#BACCC1" width="34.611" height="264.226"/>
			</g>
			<g id="strela">
				<polygon fill="#8FB523" points="445.729,294.403 99,491 37.548,491 432.633,269.434 434.359,272.6 432.633,269.434 
					432.704,269.434 434.359,272.6 445.584,294.188 				"/>
				
					<polyline fill="none" stroke="#8FB524" stroke-width="1.4392" stroke-linecap="round" stroke-linejoin="round" stroke-miterlimit="3" points="
					432.704,269.434 432.633,269.434 434.359,272.6 				"/>
				
					<line fill="none" stroke="#8FB524" stroke-width="1.4392" stroke-linecap="round" stroke-linejoin="round" stroke-miterlimit="3" x1="445.584" y1="294.188" x2="434.359" y2="272.6"/>
				<g id="strela_2_">
					<g id="Layer_1_1_">
						<path fill="#8EB422" d="M1137.744,35.643l-3.488,14.104l-8.167,33.101l-1.009,4.103l-10.828-12.125L972.35,201.397
							c-0.146,0.132-0.313,0.192-0.504,0.181c-0.2-0.016-0.368-0.1-0.504-0.251c-0.123-0.136-0.185-0.291-0.181-0.469h-40.513
							l-0.611,0.54c-0.144,0.132-0.312,0.192-0.503,0.181c-0.201-0.016-0.369-0.1-0.504-0.251c-0.133-0.145-0.191-0.313-0.181-0.505
							c0.017-0.2,0.1-0.368,0.253-0.504l165.503-147.585l-11.262-12.557l23.529-1.943l5.612-0.503L1137.744,35.643z"/>
					</g>
				</g>
				<g id="line">
					<g id="Layer_1_3_">
						<polygon fill="#8FB523" points="971.729,173.298 971.771,176.788 971.729,173.298 971.813,173.298 971.771,176.788 
							971.813,201.146 971.813,201.434 750.914,201.002 750.914,172.794 750.914,201.002 750.83,200.281 750.83,172.794 
							750.914,172.794 						"/>
						<path fill="#8FB524" d="M971.813,202.153c-0.001,0-0.002,0-0.002,0l-220.898-0.432c0.005,0,0.002,0,0.002,0
							c-0.06,0-0.116-0.005-0.174-0.016c0,0,0,0-0.002,0c-0.151-0.028-0.29-0.092-0.399-0.18l0,0
							c-0.07-0.056-0.13-0.123-0.174-0.195c-0.048-0.081-0.078-0.17-0.089-0.267l-0.084-0.71c-0.016-0.137,0.016-0.27,0.08-0.385
							v-26.861c-0.053-0.095-0.084-0.201-0.084-0.313c0-0.409,0.408-0.738,0.886-0.719c0.014,0,0.028-0.002,0.043-0.002
							l220.813,0.505c0.009,0,0.019,0,0.025,0c0.001,0,0.003,0,0.004,0h0.001c0.451,0.015,0.852,0.331,0.852,0.719
							c0,0.08-0.014,0.157-0.039,0.229l0.039,3.253c0.001,0.005,0.001,0.009,0.001,0.012l0.041,24.354
							c0,0.05-0.006,0.099-0.018,0.146c0.012,0.047,0.018,0.096,0.018,0.146C972.653,201.832,972.276,202.153,971.813,202.153z
							 M751.757,200.284l219.214,0.428l-0.074-26.696l-219.14-0.5V200.284z"/>
					</g>
				</g>
				<g id="line_1_">
					<g id="Layer_1_5_">
						<polygon fill="#8FB523" points="749.693,172.945 751.546,175.904 749.693,172.945 749.757,172.906 751.546,175.904 
							764.273,196.673 764.424,196.918 600.021,296.85 585.317,272.777 600.021,296.85 599.584,296.273 585.255,272.815 
							585.317,272.777 						"/>
						<path fill="#8FB524" d="M764.799,197.531L764.799,197.531l-164.403,99.934c0.002-0.002,0.001-0.001,0.001-0.001
							c-0.044,0.027-0.09,0.049-0.137,0.064l-0.001,0.001c-0.128,0.047-0.265,0.055-0.392,0.028h-0.001
							c-0.081-0.016-0.159-0.046-0.229-0.089c-0.078-0.047-0.148-0.109-0.205-0.186l-0.433-0.569
							c-0.083-0.109-0.13-0.236-0.141-0.364l-14.003-22.923c-0.089-0.057-0.167-0.135-0.226-0.23
							c-0.214-0.35-0.082-0.813,0.281-1.014c0.011-0.008,0.021-0.015,0.032-0.021L749.32,172.33
							c0.006-0.004,0.014-0.009,0.021-0.012c0,0,0.002-0.001,0.003-0.002l0,0c0.344-0.192,0.806-0.104,1.008,0.228
							c0.042,0.067,0.071,0.14,0.091,0.213l1.725,2.758c0.003,0.003,0.005,0.006,0.007,0.009l12.727,20.766
							c0.026,0.042,0.047,0.086,0.063,0.131c0.033,0.035,0.063,0.074,0.09,0.116C765.257,196.876,765.144,197.321,764.799,197.531z
							 M600.273,295.854l163.148-99.169l-13.973-22.749l-163.131,99.075L600.273,295.854z"/>
					</g>
				</g>
				<g id="line_2_">
					<g id="Layer_1_6_">
						<polygon fill="#8FB523" points="599.441,269.865 599.473,273.355 599.441,269.865 599.505,269.865 599.473,273.355 
							599.505,297.714 599.505,298.001 432.552,297.569 432.552,269.361 432.552,297.569 432.488,296.85 432.488,269.361 
							432.552,269.361 						"/>
						<path fill="#8FB524" d="M599.505,298.721C599.504,298.721,599.504,298.721,599.505,298.721l-166.954-0.433
							c0.002,0,0.001,0,0.001,0c-0.045,0-0.088-0.005-0.131-0.016h-0.001c-0.116-0.027-0.221-0.091-0.304-0.18l0,0
							c-0.053-0.058-0.097-0.122-0.13-0.196c-0.037-0.081-0.061-0.171-0.066-0.266l-0.063-0.711
							c-0.012-0.137,0.011-0.27,0.062-0.385v-26.86c-0.041-0.096-0.063-0.201-0.063-0.314c0-0.407,0.31-0.737,0.668-0.719
							c0.011,0,0.022,0,0.033,0l166.889,0.504c0.006,0,0.015,0,0.02,0c0.001,0,0.002,0,0.003,0l0,0
							c0.342,0.016,0.644,0.331,0.644,0.719c0,0.08-0.01,0.157-0.03,0.229l0.03,3.253c0,0.004,0,0.008,0,0.012l0.031,24.354
							c0,0.049-0.004,0.098-0.013,0.145c0.008,0.047,0.013,0.096,0.013,0.146C600.14,298.399,599.855,298.721,599.505,298.721z
							 M433.188,296.852l165.679,0.428l-0.056-26.694l-165.623-0.5V296.852z"/>
					</g>
				</g>
			</g>
		</g>
	</g>
</g>
</svg>
