<svg xmlns="http://www.w3.org/2000/svg" viewBox="0 0 568 340.2" enable-background="new 0 0 568 340.2"><style type="text/css">.st0{fill:#EB2227;} .st1{fill:none;} .st2{fill:#FFFFFF;} .st3{fill:#010101;} .st4{fill:#ED1C24;} .st5{fill:#676767;} .st6{fill:#676767;stroke:#676767;stroke-miterlimit:10;} .st7{fill:#2AAAE2;} .st8{fill:#2AAAE2;stroke:#2AAAE2;stroke-miterlimit:10;} .st9{fill:#AFC536;} .st10{fill:#231F20;} .st11{fill:#FAB01A;} .st12{fill:none;stroke:#676767;stroke-miterlimit:10;}</style><path class="st0" d="M136.5 134h288v164h-288v-164z"/><path class="st1" d="M140.6 184.9h279.8v113.8h-279.8v-113.8z"/><path class="st2" d="M237.3 204.2v-14.9h-6v14.9h-3.3v-17.9h12.7v17.9h-3.4zm19.2-7.1c0 1.3-.2 2.4-.5 3.3s-.9 1.7-1.5 2.3-1.4 1.1-2.3 1.4-1.8.4-2.9.4c-.3 0-.7 0-1-.1s-.7-.1-.9-.2v5.4h-3.4v-19.3h2.9l.1 2.1c.3-.4.6-.7.9-1s.6-.5 1-.7.7-.4 1.1-.5.9-.2 1.4-.2c.8 0 1.6.2 2.2.5s1.2.8 1.6 1.4.8 1.3 1 2.2c.1.9.3 1.9.3 3zm-3.5.1c0-.8-.1-1.4-.2-2s-.3-1-.5-1.3-.5-.6-.8-.8-.6-.2-1-.2c-.6 0-1.1.2-1.6.7s-1.1 1.1-1.6 1.9v6.1c.3.1.6.2 1 .2s.8.1 1.2.1c.5 0 1-.1 1.4-.3s.8-.5 1.1-.9.5-.9.7-1.5.3-1.3.3-2zm18.9 0c0 1.1-.2 2.1-.5 3s-.8 1.7-1.3 2.3-1.3 1.1-2.1 1.5-1.8.5-2.9.5c-1 0-2-.1-2.8-.5s-1.5-.8-2.1-1.3-1-1.3-1.3-2.2-.5-1.9-.5-3.1c0-1.1.2-2.1.5-3s.8-1.7 1.4-2.3 1.3-1.1 2.2-1.5 1.8-.5 2.9-.5c1 0 2 .2 2.8.5s1.5.8 2.1 1.4 1 1.3 1.3 2.2.3 1.8.3 3zm-3.5.1c0-1.4-.3-2.5-.8-3.2s-1.3-1.1-2.4-1.1c-.6 0-1.1.1-1.5.3s-.7.5-1 .9-.5.9-.6 1.4-.2 1.1-.2 1.7c0 1.4.3 2.5.9 3.3s1.4 1.1 2.4 1.1c.6 0 1-.1 1.4-.3s.7-.5 1-.9.4-.9.6-1.4.2-1.2.2-1.8zm19.3 10.4h-3.1v-3.5h-10.1v-13.9h3.3v11.1h5.2v-11.1h3.3v11.1h1.7l-.3 6.3zm14.5-11.5v.9s0 .7-.1 1h-9.1c0 .6.1 1.1.3 1.6s.5.9.8 1.2.8.6 1.2.7 1 .2 1.6.2c.7 0 1.4-.1 2.2-.2s1.6-.3 2.4-.5v2.7c-.4.1-.7.2-1.2.3s-.8.2-1.3.2-.9.1-1.3.1h-1.3c-1.1 0-2-.1-2.8-.5s-1.5-.7-2.1-1.3-1-1.3-1.3-2.2-.5-1.9-.5-3 .2-2.2.5-3.1.7-1.7 1.3-2.4 1.3-1.2 2.1-1.5 1.7-.5 2.7-.5 1.9.2 2.6.5 1.4.7 1.9 1.3.9 1.2 1.2 2 .2 1.6.2 2.5zm-3.3-.4c0-.5-.1-1-.2-1.4s-.3-.7-.6-1-.5-.5-.9-.6-.7-.2-1.1-.2c-.8 0-1.5.3-2.1.8s-.9 1.4-1 2.4h5.9zm17.9 7.9c-.7.3-1.3.5-2 .6s-1.4.2-2.2.2c-1.1 0-2.1-.1-3-.5s-1.6-.7-2.2-1.3-1.1-1.3-1.4-2.2-.5-1.9-.5-3 .2-2.1.5-3 .8-1.7 1.5-2.3 1.4-1.1 2.3-1.5 1.9-.5 3-.5c.9 0 1.7 0 2.3.1s1.2.2 1.7.4v3.2c-.6-.3-1.2-.5-1.8-.7s-1.3-.2-1.9-.2-1.2.1-1.7.3-.9.5-1.2.9-.6.8-.8 1.4-.3 1.1-.3 1.8.1 1.3.3 1.8.5 1 .8 1.3.8.7 1.3.8 1 .3 1.6.3c.3 0 .6 0 .9-.1s.6-.1 1-.2.6-.2 1-.3l.9-.3-.1 3zm15.4 0c-.7.3-1.3.5-2 .6s-1.4.2-2.2.2c-1.1 0-2.1-.1-3-.5s-1.6-.7-2.2-1.3-1.1-1.3-1.4-2.2-.5-1.9-.5-3 .2-2.1.5-3 .8-1.7 1.5-2.3 1.4-1.1 2.3-1.5 1.9-.5 3-.5c.9 0 1.7 0 2.3.1s1.2.2 1.7.4v3.2c-.6-.3-1.2-.5-1.8-.7s-1.3-.2-1.9-.2-1.2.1-1.7.3-.9.5-1.2.9-.6.8-.8 1.4-.3 1.1-.3 1.8.1 1.3.3 1.8.5 1 .8 1.3.8.7 1.3.8 1 .3 1.6.3c.3 0 .6 0 .9-.1s.6-.1 1-.2.6-.2 1-.3l.9-.3-.1 3zm-118.3 39.9c-2.2-1.9-3.9-3.9-5-6s-1.7-4.5-1.7-6.9c0-1.4.2-2.7.5-3.9s.8-2.4 1.4-3.5c.6-1.1 1.3-2.1 2.1-3.1s1.7-1.8 2.7-2.7l1.9 1.9c-1.8 1.6-3.1 3.3-4 5.2s-1.3 3.8-1.3 5.8c0 2.1.4 4.1 1.3 6 .9 1.9 2.2 3.7 4 5.2l-1.9 2zm18.8-6.5c-.8.3-1.6.6-2.3.7s-1.5.2-2.3.2c-1.3 0-2.4-.2-3.4-.6s-1.8-.9-2.5-1.7-1.2-1.7-1.5-2.8-.5-2.4-.5-3.9.2-2.8.6-4 .9-2.2 1.6-3 1.6-1.4 2.6-1.8 2.2-.6 3.4-.6h1.2s.7.1 1.1.1.7.1 1.1.2.7.2 1.1.3v3.3c-.8-.4-1.5-.6-2.2-.8s-1.3-.2-1.9-.2c-.8 0-1.6.2-2.2.5s-1.1.7-1.5 1.3-.7 1.2-.9 2-.3 1.6-.3 2.5c0 1 .1 1.8.3 2.6s.5 1.4.9 1.9.9.9 1.5 1.2 1.3.4 2.2.4c.3 0 .6 0 1-.1s.7-.1 1.1-.2.7-.2 1.1-.3.7-.3 1-.4l-.3 3.2zm15.9-11.4c0 .9-.2 1.8-.5 2.6s-.8 1.5-1.4 2-1.4 1-2.3 1.3-2 .5-3.2.5h-1.7v5.7h-3.4v-17.8h5.2c1.2 0 2.2.1 3.1.4s1.6.6 2.2 1.1 1.1 1.1 1.4 1.8.6 1.5.6 2.4zm-3.5.2c0-.5-.1-.9-.2-1.3s-.4-.7-.7-1-.7-.5-1.2-.6-1-.2-1.7-.2h-1.8v6.5h1.9c.6 0 1.1-.1 1.5-.2s.8-.4 1.1-.7.5-.7.7-1.1.4-.9.4-1.4zm7.2 11.9v-17.8h10.7v2.8h-7.3v4.4h7v2.8h-7v5h7.3v2.8h-10.7zm24.7 0h-8.5v3.9h-3.1l-.2-6.8h.2c.4 0 .8-.1 1.1-.1s.6-.3.9-.7.5-.8.7-1.5.4-1.5.6-2.6.3-2.5.4-4.1.2-3.6.3-5.9h9.8v15h1.4l-.2 6.8h-3.4v-4zm-4.6-14.9c-.1 1.5-.1 2.8-.2 3.9s-.2 2.1-.3 2.9-.2 1.5-.3 2.1-.2 1.1-.4 1.5-.3.7-.5 1-.4.5-.6.7h5.6v-12l-3.3-.1zm21.9 14.2c-.8.3-1.6.6-2.3.7s-1.5.2-2.3.2c-1.3 0-2.4-.2-3.4-.6s-1.8-.9-2.5-1.7-1.2-1.7-1.5-2.8-.5-2.4-.5-3.9.2-2.8.6-4 .9-2.2 1.6-3 1.6-1.4 2.6-1.8 2.2-.6 3.4-.6h1.2s.7.1 1.1.1.7.1 1.1.2.7.2 1.1.3v3.3c-.8-.4-1.5-.6-2.2-.8s-1.3-.2-1.9-.2c-.8 0-1.6.2-2.2.5s-1.1.7-1.5 1.3-.7 1.2-.9 2-.3 1.6-.3 2.5c0 1 .1 1.8.3 2.6s.5 1.4.9 1.9.9.9 1.5 1.2 1.3.4 2.2.4c.3 0 .6 0 1-.1s.7-.1 1.1-.2.7-.2 1.1-.3.7-.3 1-.4l-.3 3.2zm11.1-14.3v15.1h-3.4v-15.1h-5v-2.8h13.2v2.8h-4.8zm7.7 15v-17.8h5.8c2 0 3.6.4 4.6 1.1s1.5 1.8 1.5 3.2c0 .4-.1.9-.2 1.3s-.3.8-.5 1.2-.5.7-.8.9-.7.5-1.2.6c.4.1.9.2 1.3.4s.8.5 1.1.8.5.7.7 1.2.3 1 .3 1.6c0 1.8-.6 3.2-1.8 4.1s-3 1.4-5.3 1.4h-5.5zm8.4-12.9c0-.3-.1-.6-.2-.9s-.3-.5-.5-.7-.6-.3-.9-.4-.8-.2-1.4-.2h-2v4.7h2c.5 0 1-.1 1.4-.2s.7-.3.9-.5.4-.5.5-.8.2-.7.2-1zm-2.7 10.2c.5 0 1-.1 1.4-.2s.7-.3 1-.6.5-.5.6-.9.2-.7.2-1.1c0-.8-.3-1.4-.9-1.8s-1.5-.7-2.7-.7h-2.1v5.2l2.5.1zm22.8-6.3c0 1.6-.2 3-.6 4.2s-.9 2.1-1.6 2.9-1.4 1.3-2.3 1.7-1.8.5-2.9.5c-2.4 0-4.1-.8-5.3-2.3s-1.8-3.8-1.8-6.8c0-1.6.2-3 .6-4.2s.9-2.1 1.6-2.9 1.4-1.3 2.3-1.7 1.8-.5 2.9-.5c2.4 0 4.1.8 5.3 2.3s1.8 3.8 1.8 6.8zm-3.5.2c0-2.1-.3-3.7-.8-4.7s-1.5-1.6-2.8-1.6c-.6 0-1.2.1-1.7.4s-.8.7-1.1 1.2-.5 1.2-.6 1.9-.2 1.6-.2 2.6c0 2.1.3 3.7.9 4.7s1.5 1.6 2.8 1.6c.6 0 1.2-.1 1.7-.4s.8-.7 1.1-1.2.5-1.2.6-1.9.1-1.6.1-2.6zm9.1-11.5c2.2 1.9 3.9 3.9 5 6s1.6 4.5 1.6 7c0 1.4-.2 2.7-.5 3.9s-.8 2.4-1.4 3.5-1.3 2.1-2.1 3.1-1.7 1.8-2.7 2.7l-1.9-1.9c1.8-1.6 3.1-3.3 4-5.2s1.3-3.8 1.3-5.9c0-2.1-.4-4-1.3-6s-2.2-3.7-4-5.3l2-1.9z"/><path class="st1" d="M-33.9 146.5h129.6v47.1h-129.6v-47.1z"/><path class="st3" d="M1.9 165.9v-17.9h5.8c2 0 3.6.4 4.6 1.1s1.5 1.8 1.5 3.2c0 .4-.1.9-.2 1.3s-.3.8-.5 1.2-.5.7-.8.9-.7.5-1.2.6c.4.1.9.2 1.3.4s.8.5 1.1.8.5.7.7 1.2.3 1 .3 1.6c0 1.8-.6 3.2-1.8 4.1s-3 1.4-5.3 1.4l-5.5.1zm8.3-13c0-.3-.1-.6-.2-.9s-.3-.5-.5-.7-.6-.3-.9-.4-.8-.2-1.4-.2h-2v4.7h2c.5 0 1-.1 1.4-.2s.7-.3.9-.5.4-.5.5-.8.2-.7.2-1zm-2.6 10.2c.5 0 1-.1 1.4-.2s.7-.3 1-.6.5-.5.6-.9.2-.7.2-1.1c0-.8-.3-1.4-.9-1.8s-1.4-.5-2.6-.5h-2.1v5.2l2.4-.1zm18.9 2.8l-3.4-6.6-3.4 6.6h-4.1l5.2-9.2-4.8-8.7h4l3.2 6.2 3.1-6.2h4l-4.8 8.7 5.3 9.2h-4.3zm19.3-9.1c0 1.6-.2 3-.6 4.2s-.9 2.1-1.6 2.9-1.4 1.3-2.3 1.7-1.8.5-2.9.5c-2.4 0-4.1-.8-5.3-2.3s-1.8-3.8-1.8-6.8c0-1.6.2-3 .6-4.2s.9-2.1 1.6-2.9 1.4-1.3 2.3-1.7 1.8-.5 2.9-.5c2.4 0 4.1.8 5.3 2.3s1.8 3.9 1.8 6.8zm-3.6.2c0-2.1-.3-3.7-.8-4.7s-1.5-1.6-2.8-1.6c-.6 0-1.2.1-1.7.4s-.8.7-1.1 1.2-.5 1.2-.6 1.9-.2 1.6-.2 2.6c0 2.1.3 3.7.9 4.7s1.5 1.6 2.8 1.6c.6 0 1.2-.1 1.7-.4s.8-.7 1.1-1.2.5-1.2.6-1.9.1-1.6.1-2.6zm16 8.9h-8.5v3.9h-3.1l-.2-6.8h.2c.4 0 .8-.1 1.1-.1s.6-.3.9-.7.5-.8.7-1.5.4-1.5.6-2.6.3-2.5.4-4.1.2-3.6.3-5.9h9.8v15h1.4l-.2 6.8h-3.1l-.3-4zm-4.7-15c-.1 1.5-.2 2.8-.2 3.9s-.2 2.1-.3 2.9-.2 1.5-.3 2.1-.2 1.1-.4 1.5-.3.7-.5 1-.4.5-.6.7h5.6v-12l-3.3-.1z"/><path class="st1" d="M412.7 146.5h129.6v47.1h-129.6v-47.1z"/><path class="st4" d="M449.6 165.9l-5.4-8.6v8.6h-3.4v-17.9h3.4v8.1l5.3-8.1h4.1l-6.1 8.5 6.4 9.4h-4.3zm19.7-9.1c0 1.6-.2 3-.6 4.2s-.9 2.1-1.6 2.9c-.7.8-1.4 1.3-2.3 1.7s-1.8.5-2.9.5c-2.4 0-4.1-.8-5.3-2.3-1.2-1.6-1.8-3.8-1.8-6.8 0-1.6.2-3 .6-4.2s.9-2.1 1.6-2.9c.7-.8 1.4-1.3 2.3-1.7s1.8-.5 2.9-.5c2.4 0 4.1.8 5.3 2.3 1.2 1.6 1.8 3.9 1.8 6.8zm-3.6.2c0-2.1-.3-3.7-.8-4.7-.6-1-1.5-1.6-2.8-1.6-.6 0-1.2.1-1.7.4-.5.3-.8.7-1.1 1.2-.3.5-.5 1.2-.6 1.9s-.2 1.6-.2 2.6c0 2.1.3 3.7.9 4.7s1.5 1.6 2.8 1.6c.6 0 1.2-.1 1.7-.4.5-.3.8-.7 1.1-1.2.3-.5.5-1.2.6-1.9s.1-1.6.1-2.6zm14.8 8.9v-7.8h-6.1v7.8h-3.4v-17.9h3.4v7.2h6.1v-7.2h3.4v17.9h-3.4zm7.2 0v-17.9h10.8v2.8h-7.3v4.4h7v2.8h-7v5h7.3v2.8l-10.8.1zm28.1-3l-.2 6.8h-3.1v-3.9h-10.7v-17.8h3.4v14.9h5.7v-14.9h3.4v14.9h1.5z"/><path class="st1" d="M439.7 253.3h128.2v124.9h-128.2v-124.9z"/><path class="st3" d="M448.2 257.5c0 .4-.1.9-.2 1.3s-.4.8-.8 1.2c-.3.3-.8.6-1.3.8s-1.2.3-1.9.3h-1.3v3.9h-1.7v-10.9h3.1c.5 0 1.1.1 1.5.2s.9.3 1.3.6.7.6.9 1c.3.5.4 1 .4 1.6zm-1.6.1c0-.7-.2-1.2-.7-1.6s-1.1-.6-1.9-.6h-1.5v4.5h1.4c.9 0 1.5-.2 2-.6s.7-.9.7-1.7zm10.8 2.8v.9h-5.9c0 .9.2 1.5.7 2s1.2.7 2.1.7h.7c.2 0 .5 0 .7-.1s.4-.1.7-.1l.6-.1v1.2c-.4.1-.8.2-1.3.3s-1 .1-1.5.1c-.7 0-1.3-.1-1.8-.3-.5-.2-.9-.5-1.3-.8s-.6-.8-.7-1.4c-.2-.5-.2-1.1-.2-1.8 0-.6.1-1.1.3-1.7.2-.5.4-1 .7-1.4.3-.4.7-.7 1.2-.9s1-.3 1.6-.3 1.1.1 1.5.3c.4.2.8.4 1.1.8.3.3.5.7.7 1.2.1.3.1.9.1 1.4zm-1.5-.2c0-.4 0-.7-.1-1s-.2-.6-.4-.8-.4-.4-.7-.5c-.3-.1-.6-.2-1-.2-.3 0-.6.1-.9.2s-.5.3-.7.5-.3.5-.5.8c-.1.3-.2.6-.2 1h4.5zm3.6 3.4c.2.1.5.1.8.2s.5.1.8.1l.8.1h.7c.5 0 .9 0 1.2-.1s.6-.1.7-.3l.4-.4s.1-.3.1-.6c0-.2 0-.4-.1-.5s-.2-.3-.4-.4c-.2-.1-.4-.2-.7-.3-.3-.1-.7-.1-1.2-.1h-2v-1.1h2c.4 0 .8 0 1-.1s.5-.1.6-.2c.2-.1.3-.2.3-.4.1-.1.1-.3.1-.5s0-.4-.1-.5-.2-.3-.3-.4-.4-.2-.6-.2c-.3-.1-.6-.1-1-.1s-.9 0-1.4.1-1 .1-1.5.3v-1.2c.2-.1.5-.1.7-.1s.5-.1.8-.1.5 0 .8-.1h.8c.7 0 1.2.1 1.6.2s.8.3 1.1.5.5.4.6.7.2.6.2.9c0 .2 0 .5-.1.7l-.3.6c-.1.2-.3.3-.5.4s-.5.2-.8.2c.3 0 .6.1.8.2.3.1.5.2.7.4s.3.4.4.6.2.5.2.8c0 .4-.1.7-.2 1s-.4.6-.7.8c-.3.2-.7.4-1.3.5-.5.1-1.2.2-1.9.2h-.7s-.5 0-.8-.1l-.8-.1c-.3 0-.5-.1-.7-.1l-.1-1.5zm17-6.9l-2.8 7.5c-.3.8-.6 1.4-.9 2s-.7 1-1 1.3-.8.6-1.2.8c-.4.2-.9.2-1.5.2h-.8v-1.3h.9c.3 0 .5 0 .7-.1s.4-.2.7-.4c.2-.2.4-.4.6-.7.2-.3.4-.6.5-1l-3.3-8.3h1.6l2.1 5.5.4 1.3.5-1.3 2-5.5h1.5zm8.6 8.4h-1.4v-7.1h-2.3c-.1 1.1-.2 2.1-.3 2.9-.1.8-.3 1.5-.5 2s-.4 1-.6 1.3-.5.5-.8.7c-.3.1-.6.2-.9.2s-.6 0-.9-.1l.1-1.2h.6s.4-.1.5-.3.3-.4.5-.7.3-.7.4-1.3.2-1.2.3-2c.1-.8.1-1.7.2-2.8h5.1v8.4zm4.2-5.2h1.8c1.3 0 2.2.2 2.9.7.6.4.9 1.1.9 1.9 0 .9-.3 1.6-1 2-.7.5-1.7.7-3 .7h-1.6c-.5 0-1-.1-1.4-.1v-8.3h1.4v3.1zm4.1 2.6c0-.2 0-.4-.1-.6s-.2-.3-.4-.4c-.2-.1-.4-.2-.7-.3s-.7-.1-1.1-.1h-1.8v2.8c.3 0 .6 0 .8.1h.9c.5 0 .9 0 1.2-.1.3-.1.6-.1.7-.3.2-.1.3-.3.4-.5s.1-.4.1-.6zm11-4.5h-3.2v7.1h-1.5v-7.1h-3.2v-1.2h7.8l.1 1.2zm7.4 7.1v-1.1c-.5.4-.9.8-1.4 1s-1 .3-1.5.3-.9-.1-1.2-.2-.6-.3-.8-.5-.4-.5-.5-.8-.2-.6-.2-.9c0-.8.3-1.5.9-2s1.5-.7 2.8-.7h1.7v-.7c0-.5-.2-.9-.5-1.2-.3-.3-.8-.4-1.4-.4-.5 0-.9.1-1.4.2l-1.4.4v-1.3l.6-.2.7-.2s.5-.1.8-.1h.8c.5 0 1 .1 1.4.2s.7.3 1 .5.5.5.6.9.2.7.2 1.2v5.7l-1.2-.1zm-.1-3.8h-1.8c-.4 0-.7 0-.9.1-.3.1-.5.2-.6.3s-.3.3-.4.5-.1.4-.1.6 0 .3.1.5.1.3.2.4l.4.3c.2.1.4.1.6.1.3 0 .7-.1 1.1-.3s.9-.5 1.4-1v-1.5zm11.4-3.3h-3.2v7.1h-1.5v-7.1h-3.2v-1.2h7.8v1.2h.1zm-77 30.9c-2.6-2.4-3.8-5-3.8-7.8 0-.7.1-1.3.2-2s.4-1.3.7-2c.3-.7.7-1.3 1.2-2s1.1-1.3 1.8-2l.8.9c-2.1 2.1-3.2 4.5-3.2 7 0 1.3.3 2.5.8 3.7s1.3 2.3 2.4 3.4l-.9.8zm4.3-4.8l.5.1h.4c.2 0 .4 0 .6-.1s.4-.2.5-.4c.2-.2.3-.4.5-.7.2-.3.3-.6.5-1l-3.9-7.5h1.7l2.1 4.2.8 1.6.6-1.5 1.7-4.3h1.6l-3.3 8.1c-.2.4-.3.8-.5 1.1-.2.4-.4.7-.7.9-.2.3-.5.5-.8.6s-.7.2-1.1.2h-.6c-.2 0-.4-.1-.7-.2l.1-1.1zm15.8 1c-.4.1-.8.3-1.2.3s-.8.1-1.2.1c-1.3 0-2.3-.4-3-1.1s-1.1-1.8-1.1-3.1c0-.7.1-1.3.3-1.8.2-.5.5-1 .9-1.4s.8-.7 1.3-.9c.5-.2 1.1-.3 1.7-.3.4 0 .8 0 1.2.1l1.1.3v1.4c-.4-.2-.7-.3-1.1-.4s-.8-.1-1.2-.1c-.4 0-.7.1-1 .2s-.6.3-.9.6c-.2.3-.4.6-.6 1s-.2.8-.2 1.3c0 1 .2 1.8.7 2.3s1.2.8 2 .8c.4 0 .8 0 1.1-.1.4-.1.7-.2 1.1-.4l.1 1.2zm9.5.4h-1.4v-7.1h-2.3c-.1 1.1-.2 2.1-.3 2.9-.1.8-.3 1.5-.5 2s-.4 1-.6 1.3-.5.5-.8.7c-.3.1-.6.2-.9.2s-.6 0-.9-.1l.1-1.2h.6s.4-.1.5-.3.3-.4.5-.7.3-.7.4-1.3.2-1.2.3-2c.1-.8.1-1.7.2-2.8h5.1v8.4zm10.2-8.4l-2.8 7.5c-.3.8-.6 1.4-.9 2s-.7 1-1 1.3-.8.6-1.2.8c-.4.2-.9.2-1.5.2h-.8v-1.3h.9c.3 0 .5 0 .7-.1s.4-.2.7-.4c.2-.2.4-.4.6-.7.2-.3.4-.6.5-1l-3.3-8.3h1.6l2.1 5.5.4 1.3.5-1.3 2-5.5h1.5zm4 1.3v7.1h-1.5v-8.3h6v1.2h-4.5zm12.6 7.1v-1.1c-.5.4-.9.8-1.4 1s-1 .3-1.5.3-.9-.1-1.2-.2-.6-.3-.8-.5-.4-.5-.5-.8-.2-.6-.2-.9c0-.8.3-1.5.9-2s1.5-.7 2.8-.7h1.7v-.7c0-.5-.2-.9-.5-1.2-.3-.3-.8-.4-1.4-.4-.5 0-.9.1-1.4.2l-1.4.4v-1.3l.6-.2.7-.2s.5-.1.8-.1h.8c.5 0 1 .1 1.4.2s.7.3 1 .5.5.5.6.9.2.7.2 1.2v5.7l-1.2-.1zm-.2-3.8h-1.8c-.4 0-.7 0-.9.1-.3.1-.5.2-.6.3s-.3.3-.4.5-.1.4-.1.6 0 .3.1.5.1.3.2.4l.4.3c.2.1.4.1.6.1.3 0 .7-.1 1.1-.3s.9-.5 1.4-1v-1.5zm15.1-4.6v5.9l3.6-5.9h1.4v8.3h-1.4v-5.9l-3.6 5.9h-1.4v-8.3h1.4zm14.4 8.4h-1.4v-7.1h-2.4c-.1 1.1-.2 2.1-.3 2.9s-.3 1.5-.5 2-.4 1-.6 1.3-.5.5-.8.7c-.3.1-.6.2-.9.2s-.6 0-.9-.1l.1-1.2h.6s.4-.1.5-.3.3-.4.5-.7.3-.7.4-1.3.2-1.2.3-2 .1-1.7.2-2.8h5.1l.1 8.4zm4.3-8.4v5.9l3.6-5.9h1.4v8.3h-1.4v-5.9l-3.6 5.9h-1.4v-8.3h1.4zm-88.3 28.8h-1.4v-7.1h-3.8v7.1h-1.4v-8.3h6.7v8.3h-.1zm9.7-4.4c0 .7-.1 1.4-.3 1.9-.2.6-.5 1-.9 1.4s-.8.6-1.3.8c-.5.2-1 .3-1.6.3h-.8l-.8-.1v3.5h-1.4v-11.7h1.3l.1 1.4c.4-.6.9-1 1.3-1.2s1-.3 1.5-.3.9.1 1.3.3c.4.2.7.5.9.8s.4.8.5 1.3.2 1 .2 1.6zm-1.4.1c0-.4 0-.8-.1-1.2s-.2-.7-.3-.9-.3-.5-.5-.6-.5-.2-.8-.2c-.2 0-.4 0-.6.1l-.6.3s-.4.3-.6.5-.5.5-.7.8v4l.8.3c.3.1.6.1.9.1.8 0 1.4-.3 1.8-.8s.7-1.3.7-2.4zm10.9 0c0 .6-.1 1.2-.3 1.8-.2.5-.4 1-.8 1.4s-.8.7-1.3.9c-.5.2-1.1.3-1.7.3s-1.1-.1-1.6-.3c-.5-.2-.9-.5-1.2-.8s-.6-.8-.8-1.3c-.2-.5-.3-1.1-.3-1.8 0-.6.1-1.2.3-1.8.2-.5.4-1 .8-1.4s.8-.7 1.3-.9c.5-.2 1.1-.3 1.7-.3s1.1.1 1.6.3c.5.2.9.5 1.2.8.3.4.6.8.8 1.3.2.5.3 1.1.3 1.8zm-1.5.1c0-.5-.1-1-.2-1.3s-.3-.7-.5-1-.5-.5-.8-.6-.6-.2-1-.2-.8.1-1.1.3c-.3.2-.6.4-.8.7s-.3.6-.4 1-.1.8-.1 1.2c0 .5.1 1 .2 1.4s.3.7.5 1 .5.5.8.6.6.2 1 .2.8-.1 1.1-.3c.3-.2.6-.4.8-.7.2-.3.3-.6.4-1 .1-.5.1-.9.1-1.3zm11.3 2.9l-.1 3.4h-1.3v-2.1h-6.1v2.1h-1.3l-.1-3.4h.1c.2 0 .4 0 .6-.1s.4-.2.5-.4.3-.4.4-.8.3-.8.4-1.3.2-1.2.3-1.9.1-1.6.2-2.7h5.1v7.1l1.3.1zm-2.6-5.8h-2.3c-.1 1-.1 1.8-.2 2.4-.1.7-.2 1.2-.3 1.7s-.3.8-.4 1.1c-.2.3-.3.5-.5.6h3.8l-.1-5.8zm11.7-1.3l-2.9 7.5c-.3.8-.6 1.4-.9 2s-.7 1-1 1.3-.8.6-1.2.8c-.4.2-.9.2-1.5.2h-.8v-1.3h.9c.3 0 .5 0 .7-.1s.4-.2.7-.4c.2-.2.4-.4.6-.7.2-.3.4-.6.5-1l-3.3-8.3h1.6l2.1 5.5.4 1.3.5-1.3 2-5.5h1.6zm9.4 8.4h-2l-3.9-4.5v4.5h-1.4v-8.3h1.4v3.8l3.7-3.8h1.9l-3.9 3.8 4.2 4.5zm9.1-7.1h-3.2v7.1h-1.5v-7.1h-3.2v-1.2h7.8l.1 1.2zm3.8-5.3c2.6 2.4 3.8 5 3.8 7.9 0 .6-.1 1.2-.2 1.9-.1.6-.3 1.3-.6 2s-.7 1.4-1.2 2c-.5.7-1.1 1.4-1.9 2.1l-.8-.9c1.1-1.1 1.9-2.2 2.4-3.3s.8-2.4.8-3.7c0-2.6-1.1-5-3.2-7.1l.9-.9z"/><path class="st1" d="M83.5 215h44"/><path class="st5" d="M90.9 238.1l35.3-21.2-35.3-21.3v42.5z"/><path class="st6" d="M0 202.2h95.7v29.3h-95.7v-29.3z"/><path class="st1" d="M524.5 216h43"/><path class="st7" d="M531.5 240.8l34.5-22.7-34.5-22.6v45.3z"/><path class="st8" d="M440 203.5h93.5v30h-93.5v-30z"/><path class="st9" d="M134.5 8.2h10.7v332h-10.7v-332z"/><path class="st1" d="M.3 6.9h62.2v44.3h-62.2v-44.3z"/><path class="st10" d="M8.7 18.2c-.5.2-.9.3-1.4.4s-.9.1-1.4.1c-.8 0-1.5-.1-2.1-.3-.6-.2-1.1-.6-1.5-1-.4-.5-.7-1-.9-1.7s-.4-1.4-.4-2.3c0-.9.1-1.7.3-2.4s.6-1.3 1-1.8 1-.9 1.6-1.1c.6-.3 1.3-.4 2.1-.4h.7c.2 0 .4 0 .6.1l.6.1c.2 0 .4.1.7.2v2c-.4-.2-.9-.4-1.3-.5s-.8-.1-1.1-.1c-.5 0-1 .1-1.3.3-.4.2-.7.4-.9.8-.2.3-.4.7-.5 1.2s-.2 1-.2 1.5c0 .6.1 1.1.2 1.6s.3.9.5 1.2c.2.3.5.6.9.7.3.1.8.2 1.3.2.2 0 .4 0 .6-.1l.6-.1.6-.2c.2-.1.4-.2.6-.2l.1 1.8zm6.7-6.3v6.7h-2.1v-6.7h-2.9v-1.7h7.9v1.7h-2.9zm10.1 6.8v-1.1c-.2.2-.4.4-.6.5-.2.2-.4.3-.6.4s-.5.2-.8.3c-.3.1-.6.1-.9.1-.4 0-.8-.1-1.1-.2s-.6-.3-.8-.5-.4-.5-.5-.8-.2-.7-.2-1.1.1-.8.3-1.1.4-.6.8-.9c.3-.2.8-.4 1.3-.6.5-.1 1.1-.2 1.8-.2h1.1v-.5c0-.2 0-.4-.1-.6-.1-.2-.2-.3-.3-.4-.1-.1-.3-.2-.5-.3s-.5-.1-.8-.1c-.5 0-1 .1-1.5.2s-1 .3-1.4.5v-1.6c.4-.2.9-.3 1.4-.4.5-.1 1.1-.2 1.6-.2.6 0 1.2.1 1.6.2.4.1.8.3 1.1.5.3.2.5.5.6.9s.2.8.2 1.3v5.8l-1.7-.1zm-.3-3.8h-1.2c-.3 0-.6 0-.9.1l-.6.3s-.3.3-.3.4c-.1.2-.1.3-.1.5 0 .3.1.6.3.8s.5.3.9.3c.3 0 .6-.1.9-.3s.6-.5 1-.9v-1.2zm11.9-.6c0 .8-.1 1.4-.3 2-.2.6-.5 1-.9 1.4s-.9.6-1.4.8-1.1.3-1.7.3h-.6s-.4-.1-.6-.1v3.3h-2v-11.8h1.8v1.2c.2-.2.4-.4.5-.6l.6-.5c.2-.1.4-.2.7-.3h.8c.5 0 .9.1 1.3.3s.7.5 1 .9.5.8.6 1.3c.1.6.2 1.1.2 1.8zm-2.1.1c0-.5 0-.9-.1-1.2s-.2-.6-.3-.8-.3-.4-.5-.5-.4-.1-.6-.1c-.3 0-.7.1-1 .4-.3.3-.6.7-1 1.1v3.7c.2.1.4.1.6.1l.7.1c.3 0 .6-.1.9-.2s.5-.3.7-.6c.2-.2.3-.5.4-.9.1-.3.2-.7.2-1.1zm8.4-2.5v6.7h-2.1v-6.7h-2.9v-1.7h7.9v1.7h-2.9z"/><path class="st1" d="M0 39.5h108.5v166.6h-108.5v-166.6z"/><path class="st10" d="M7 46.5c-.3.1-.7.2-1.1.3s-.9.1-1.3.1c-.7 0-1.2-.1-1.7-.3s-.9-.4-1.2-.8-.5-.7-.7-1.1c-.1-.5-.2-1-.2-1.5v-2.8h1.5v2.6c0 .4 0 .8.1 1.1s.2.6.4.8.4.4.7.5.6.2 1.1.2c.4 0 .9 0 1.3-.1s.8-.2 1.1-.3v-4.8h1.5v10.8h-1.5v-4.7zm10.7.2v.9h-5.9c0 .9.2 1.5.7 2s1.2.7 2.1.7h.7c.2 0 .5 0 .7-.1.2-.1.4-.1.7-.1l.6-.1v1c-.4.1-.8.2-1.3.3s-1 .1-1.5.1c-.7 0-1.3-.1-1.8-.3s-.9-.5-1.3-.8c-.3-.4-.6-.8-.7-1.4-.2-.5-.2-1.1-.2-1.8 0-.6.1-1.1.3-1.7.2-.5.4-1 .7-1.4s.7-.7 1.2-.9 1-.3 1.6-.3 1.1.1 1.5.3c.4.2.8.4 1.1.8.3.3.5.7.7 1.2 0 .4.1 1 .1 1.6zm-1.5-.3c0-.4 0-.7-.1-1s-.2-.6-.4-.8-.4-.4-.7-.5-.6-.2-1-.2c-.3 0-.6.1-.9.2s-.5.3-.7.5-.3.5-.5.8-.2.7-.2 1h4.5zm11.1-2.2h-3.2v7.1h-1.5v-7.1h-3.2v-1.2h7.8l.1 1.2zm9.6 7.1h-2l-3.9-4.5v4.5h-1.4v-8.3h1.4v3.8l3.7-3.8h1.9l-3.9 3.8 4.2 4.5zm7.2 0v-1.1c-.5.4-.9.8-1.4 1s-1 .3-1.5.3-.9-.1-1.2-.2-.6-.3-.8-.5-.4-.5-.5-.8-.2-.6-.2-.9c0-.8.3-1.5.9-2 .6-.5 1.5-.7 2.8-.7h1.7v-.7c0-.5-.2-.9-.5-1.2s-.8-.5-1.4-.5c-.5 0-.9.1-1.4.2l-1.4.4v-1.3l.6-.2s.5-.1.7-.2.5-.1.8-.1h.8c.5 0 1 .1 1.4.2s.7.3 1 .5.5.5.6.9.2.7.2 1.2v5.7h-1.2zm-.2-3.8h-1.8c-.4 0-.7 0-.9.1s-.5.2-.6.3-.3.3-.4.5c-.1.1-.2.4-.2.6 0 .2 0 .3.1.5 0 .1.1.3.2.4l.4.3s.4.1.6.1c.3 0 .7-.1 1.1-.3.4-.2.9-.5 1.4-1l.1-1.5zm4.7 1.4c.2-.4.4-.7.6-.9s.5-.3.8-.4l-.9-.3s-.4-.3-.5-.5l-.3-.6c-.1-.2-.1-.4-.1-.7 0-.4.1-.7.2-1s.3-.6.6-.8.6-.4 1.1-.6c.4-.1 1.1-.2 1.9-.2h1.4l1.3.1v8.3h-1.4v-3.3h-1.3c-.2 0-.4 0-.6.1-.2 0-.4.1-.6.2-.2.1-.3.2-.5.4l-.4.6-.9 2h-1.6l1.2-2.4zm1.1-3.5c0 .5.2.8.5 1.1.3.2.8.4 1.4.4h1.6v-2.8h-1.4c-.5 0-.8 0-1.1.1l-.6.3s-.3.3-.3.4c0 .1-.1.3-.1.5zm-46.2 19.2v7.1h-1.5v-8.3h6v1.2h-4.5zm14.3 2.7c0 .7-.1 1.4-.3 1.9-.2.6-.5 1-.9 1.4s-.8.6-1.3.8-1 .3-1.6.3h-.8l-.8-.1v3.5h-1.4v-11.8h1.3l.1 1.4c.4-.6.9-1 1.3-1.2.5-.2 1-.3 1.5-.3s.9.1 1.3.3c.4.2.7.5.9.8.2.4.4.8.5 1.3s.2 1.1.2 1.7zm-1.5.1c0-.4 0-.8-.1-1.2-.1-.4-.2-.7-.3-.9s-.3-.5-.5-.6-.5-.2-.8-.2c-.2 0-.4 0-.6.1l-.6.3c-.2.1-.4.3-.6.5-.2.2-.5.5-.7.8v4l.8.3c.3.1.6.1.9.1.8 0 1.4-.3 1.8-.8.5-.5.7-1.3.7-2.4zm9.1 4.3v-1.1c-.5.4-.9.8-1.4 1s-1 .3-1.5.3-.9-.1-1.2-.2-.6-.3-.8-.5-.4-.5-.5-.8-.2-.6-.2-.9c0-.8.3-1.5.9-2s1.5-.7 2.8-.7h1.7v-.8c0-.5-.2-.9-.5-1.2-.3-.3-.8-.4-1.4-.4-.5 0-.9.1-1.4.2l-1.4.4v-1.3l.6-.2.7-.2s.5-.1.8-.1h.8c.5 0 1 .1 1.4.2s.7.3 1 .5c.3.2.5.5.6.9s.2.7.2 1.2v5.7h-1.2zm-.2-3.8h-1.8c-.4 0-.7 0-.9.1s-.5.2-.6.3-.3.3-.4.5-.1.4-.1.6 0 .3.1.5c0 .1.1.3.2.4s.3.2.4.3.4.1.6.1c.3 0 .7-.1 1.1-.3.4-.2.9-.5 1.4-1v-1.5zm10.9 3.8h-1.4v-3.7h-3.8v3.7h-1.4v-8.3h1.4v3.4h3.8v-3.4h1.4v8.3zm4.2-8.4v5.9l3.6-5.9h1.4v8.3h-1.4v-5.9l-3.6 5.9h-1.4v-8.3h1.4zm15.4 7.1l-.1 3.4h-1.3v-2.1h-6.3v-8.3h1.4v7.1h3.8v-7.1h1.4v7.1h1.1v-.1zm7.1 1.3v-1.1c-.5.4-.9.8-1.4 1s-1 .3-1.5.3-.9-.1-1.2-.2-.6-.3-.8-.5-.4-.5-.5-.8-.2-.6-.2-.9c0-.8.3-1.5.9-2 .6-.5 1.5-.7 2.8-.7h1.7v-.8c0-.5-.2-.9-.5-1.2s-.8-.4-1.4-.4c-.5 0-.9.1-1.4.2l-1.4.4v-1.3l.6-.2.7-.2s.5-.1.8-.1h.8c.5 0 1 .1 1.4.2s.7.3 1 .5c.3.2.5.5.6.9s.2.7.2 1.2v5.7h-1.2zm-.2-3.8h-1.8c-.4 0-.7 0-.9.1s-.5.2-.6.3-.3.3-.4.5c-.1.2-.1.4-.1.6s0 .3.1.5c0 .1.1.3.2.4s.3.2.4.3.4.1.6.1c.3 0 .7-.1 1.1-.3.4-.2.9-.5 1.4-1v-1.5zm20.7 1.3c0 .4-.1.7-.2 1s-.4.6-.7.8c-.3.2-.8.4-1.3.5s-1.1.2-1.8.2c-.5 0-1 0-1.5-.1s-1-.1-1.5-.1v-8.2c.5-.1 1-.1 1.6-.1h1.7c1.1 0 2 .2 2.6.6s.9.9.9 1.6c0 .5-.1.9-.4 1.2s-.7.6-1.2.7c.3 0 .5.1.8.2.2.1.5.2.7.4l.5.6c-.3.2-.2.4-.2.7zm-1.9-3.6c0-.2 0-.4-.1-.5s-.2-.3-.4-.4c-.2-.1-.4-.2-.7-.3-.3-.1-.6-.1-1-.1h-.9s-.5 0-.8.1v2.4h1.7c1.5 0 2.2-.4 2.2-1.2zm.3 3.7c0-.4-.2-.8-.6-1s-1-.3-1.8-.3h-1.8v2.5l.8.1h.9c.5 0 .9 0 1.2-.1.3-.1.6-.2.8-.3.2-.1.3-.3.4-.4s.1-.3.1-.5zm-73.7 22.8h-1.4v-3.7h-3.8v3.7h-1.5v-8.3h1.4v3.4h3.8v-3.4h1.5v8.3zm8 0v-1.1c-.5.4-.9.8-1.4 1s-1 .3-1.5.3-.9-.1-1.2-.2-.6-.3-.8-.5-.4-.5-.5-.8-.2-.6-.2-.9c0-.8.3-1.5.9-2 .6-.5 1.5-.7 2.8-.7h1.7v-.7c0-.5-.2-.9-.5-1.2s-.8-.4-1.4-.4c-.5 0-.9.1-1.4.2l-1.4.4v-1.3l.6-.2s.5-.1.7-.2.5-.1.8-.1h.8c.5 0 1 .1 1.4.2s.7.3 1 .5.5.5.6.9.2.7.2 1.2v5.7l-1.2-.1zm-.1-3.8h-1.9c-.4 0-.7 0-.9.1s-.5.2-.6.3-.3.3-.4.5c-.1.1-.1.4-.1.6s0 .3.1.5l.2.4.4.3s.4.1.6.1c.3 0 .7-.1 1.1-.3.4-.2.9-.5 1.4-1l.1-1.5zm9.4.5h-1.7c-1.3 0-2.2-.2-2.8-.7s-.9-1.2-.9-2.1v-2.3h1.5v2.1c0 .3 0 .6.1.8s.2.4.4.6c.2.1.4.2.8.3.3.1.7.1 1.1.1h1.6v-3.9h1.4v8.3h-1.4l-.1-3.2zm9.4 3.3v-1.1c-.5.4-.9.8-1.4 1s-1 .3-1.5.3-.9-.1-1.2-.2-.6-.3-.8-.5-.4-.5-.5-.8-.2-.6-.2-.9c0-.8.3-1.5.9-2s1.5-.7 2.8-.7h1.7v-.7c0-.5-.2-.9-.5-1.2s-.8-.4-1.4-.4c-.5 0-.9.1-1.4.2l-1.4.4v-1.3l.6-.2s.5-.1.7-.2.5-.1.8-.1h.8c.5 0 1 .1 1.4.2s.7.3 1 .5.5.5.6.9.2.7.2 1.2v5.7l-1.2-.1zm-.1-3.8h-1.8c-.4 0-.7 0-.9.1s-.5.2-.6.3-.3.3-.4.5-.1.4-.1.6 0 .3.1.5c0 .1.1.3.2.4l.4.3s.4.1.6.1c.3 0 .7-.1 1.1-.3.4-.2.9-.5 1.4-1v-1.5zm10.7 3.8h-1.4v-7.1h-2.3c-.1 1.1-.2 2.1-.3 2.9s-.3 1.5-.5 2-.4 1-.6 1.3c-.2.3-.5.5-.8.7-.3.1-.6.2-.9.2-.3 0-.6 0-.9-.1l.1-1.2h.6s.4-.2.5-.3c.2-.2.3-.4.5-.7.1-.3.3-.7.4-1.3s.2-1.2.3-2 .1-1.7.2-2.8h5.1v8.4zm9.8-4.6v.9h-5.9c0 .9.2 1.5.7 2s1.2.7 2.1.7h.7c.2 0 .5 0 .7-.1s.4-.1.7-.1l.6-.1v1.2c-.4.1-.8.2-1.3.3-.5.1-1 .1-1.5.1-.7 0-1.3-.1-1.8-.3s-.9-.5-1.3-.8c-.3-.4-.6-.8-.7-1.4-.2-.5-.2-1.1-.2-1.8 0-.6.1-1.1.3-1.7.2-.5.4-1 .7-1.4s.7-.7 1.2-.9 1-.3 1.6-.3 1.1.1 1.5.3.8.4 1.1.8c.3.3.5.7.7 1.2 0 .2.1.8.1 1.4zm-1.5-.3c0-.4 0-.7-.1-1s-.2-.6-.4-.8c-.2-.2-.4-.4-.7-.5s-.6-.2-1-.2c-.3 0-.6.1-.9.2s-.5.3-.7.5-.3.5-.5.8-.2.7-.2 1h4.5z"/><path class="st11" d="M415.5 7.8h10.7v332.4h-10.7v-332.4z"/><path class="st1" d="M395.9 6.9h134.9v44.3h-134.9v-44.3z"/><path class="st10" d="M445.7 7.6v1c.6.1 1 .2 1.5.4s.8.5 1.1.8c.3.4.5.8.7 1.3.1.5.2 1.2.2 1.9 0 .8-.1 1.5-.3 2.1s-.4 1-.7 1.4c-.3.4-.7.7-1.1.9-.4.2-.9.3-1.4.4v1h-1.9v-1c-.6-.1-1.1-.2-1.5-.4-.4-.2-.8-.5-1.1-.8s-.5-.8-.7-1.3c-.1-.5-.2-1.2-.2-2s.1-1.5.3-2c.2-.6.4-1 .7-1.4.3-.4.7-.6 1.1-.9s.9-.4 1.4-.4v-1h1.9zm-3.4 5.6c0 .5 0 1 .1 1.3s.2.6.3.8c.1.2.3.4.4.5l.6.3v-5.8l-.6.3c-.2.1-.3.3-.4.5s-.2.5-.3.8c-.1.4-.1.8-.1 1.3zm4.8.1c0-.5 0-.9-.1-1.2s-.1-.6-.3-.8c-.1-.2-.3-.4-.4-.5l-.6-.3v5.8l.6-.3c.2-.1.3-.3.5-.5.1-.2.2-.5.3-.8v-1.4zm8.6 5.4v-5.3l-3.3 5.3h-1.9v-8.4h2v5.3l3.3-5.3h1.9v8.4h-2zm9.3 0v-3.6h-3.3v3.6h-2v-8.4h2v3.2h3.3v-3.2h2v8.4h-2zm9.4 0v-5.3l-3.3 5.3h-1.9v-8.4h2v5.3l3.3-5.3h1.9v8.4h-2zm3.5-8.5h1.8v6.8h1.5v-6.8h1.8v6.8h1.5v-6.8h1.8v8.4h-8.4v-8.4z"/><path class="st1" d="M440.2 39.5h114.7v166.6h-114.7v-166.6z"/><path class="st10" d="M447.1 46.5c-.3.1-.7.2-1.1.3s-.9.1-1.3.1c-.7 0-1.3-.1-1.7-.3-.5-.2-.9-.4-1.2-.8s-.5-.7-.7-1.2-.2-1-.2-1.5v-2.8h1.5v2.6c0 .4 0 .8.1 1.1s.2.6.4.8c.2.2.4.4.7.5.3.1.6.2 1.1.2.4 0 .9 0 1.3-.1s.8-.2 1.1-.3v-4.8h1.5v10.8h-1.5v-4.6zm10.8.2v.9h-5.9c0 .9.2 1.5.7 2s1.2.7 2.1.7h.7c.2 0 .5 0 .7-.1s.4-.1.7-.1l.6-.1v1c-.4.1-.8.2-1.3.3s-1 .1-1.5.1c-.7 0-1.3-.1-1.8-.3s-.9-.5-1.3-.8c-.3-.4-.6-.8-.7-1.4-.2-.5-.2-1.1-.2-1.8 0-.6.1-1.1.3-1.7.2-.5.4-1 .7-1.4.3-.4.7-.7 1.2-.9s1-.3 1.6-.3 1.1.1 1.5.3.8.4 1.1.8c.3.3.5.7.7 1.2 0 .4.1 1 .1 1.6zm-1.5-.3c0-.4 0-.7-.1-1s-.2-.6-.4-.8-.4-.4-.7-.5c-.3-.1-.6-.2-1-.2-.3 0-.6.1-.9.2-.3.1-.5.3-.7.5s-.3.5-.5.8c-.1.3-.2.7-.2 1h4.5zm11-2.2h-3.2v7.1h-1.5v-7.1h-3.2v-1.2h7.8l.1 1.2zm9.6 7.1h-2l-3.9-4.5v4.5h-1.4v-8.3h1.4v3.8l3.7-3.8h1.9l-3.9 3.8 4.2 4.5zm7.2 0v-1.1c-.5.4-.9.8-1.4 1s-1 .3-1.5.3-.9-.1-1.2-.2-.6-.3-.8-.5c-.2-.2-.4-.5-.5-.8s-.2-.6-.2-.9c0-.8.3-1.5.9-2s1.5-.7 2.8-.7h1.7v-.7c0-.5-.2-.9-.5-1.2s-.8-.4-1.4-.4c-.5 0-.9.1-1.4.2l-1.4.4v-1.3l.6-.2.7-.2s.5-.1.8-.1h.8c.5 0 1 .1 1.4.2.4.1.7.3 1 .5s.5.5.6.9.2.7.2 1.2v5.7l-1.2-.1zm-.1-3.8h-1.8c-.4 0-.7 0-.9.1-.3.1-.5.2-.6.3s-.3.3-.4.5-.1.4-.1.6c0 .2 0 .3.1.5 0 .1.1.3.2.4l.4.3c.2.1.4.1.6.1.3 0 .7-.1 1.1-.3s.9-.5 1.4-1v-1.5zm4.6 1.4c.2-.4.4-.7.6-.9s.5-.3.8-.4l-.9-.3c-.2-.1-.4-.3-.5-.5l-.3-.6s-.1-.4-.1-.7c0-.4.1-.7.2-1s.3-.6.6-.8c.3-.2.6-.4 1.1-.6.4-.1 1.1-.2 1.9-.2h1.4l1.3.1v8.3h-1.4v-3.3h-1.3c-.2 0-.4 0-.6.1s-.4.1-.6.2c-.2.1-.3.2-.5.4s-.3.4-.4.6l-.9 2h-1.6l1.2-2.4zm1.2-3.5c0 .5.2.8.5 1.1.3.2.8.4 1.4.4h1.6v-2.8h-1.4c-.5 0-.8 0-1.1.1l-.6.3c-.1.1-.3.3-.3.4s-.1.3-.1.5zm-46.3 19.2v7.1h-1.5v-8.3h6v1.2h-4.5zm14.4 2.7c0 .7-.1 1.4-.3 1.9-.2.6-.5 1-.9 1.4s-.8.6-1.3.8-1 .3-1.6.3h-.8s-.5-.1-.8-.1v3.5h-1.4v-11.8h1.3l.1 1.4c.4-.6.9-1 1.3-1.2.5-.2 1-.3 1.5-.3s.9.1 1.3.3.7.5.9.8c.2.4.4.8.5 1.3s.2 1.1.2 1.7zm-1.5.1c0-.4 0-.8-.1-1.2s-.2-.7-.3-.9-.3-.5-.5-.6-.5-.2-.8-.2c-.2 0-.4 0-.6.1l-.6.3c-.2.1-.4.3-.6.5s-.5.5-.7.8v4l.8.3c.3.1.6.1.9.1.8 0 1.4-.3 1.8-.8.5-.5.7-1.3.7-2.4zm9 4.3v-1.1c-.5.4-.9.8-1.4 1s-1 .3-1.5.3-.9-.1-1.2-.2-.6-.3-.8-.5c-.2-.2-.4-.5-.5-.8s-.2-.6-.2-.9c0-.8.3-1.5.9-2s1.5-.7 2.8-.7h1.7v-.8c0-.5-.2-.9-.5-1.2-.3-.3-.8-.4-1.4-.4-.5 0-.9.1-1.4.2l-1.4.4v-1.3l.6-.2.7-.2s.5-.1.8-.1h.8c.5 0 1 .1 1.4.2.4.1.7.3 1 .5.3.2.5.5.6.9s.2.7.2 1.2v5.7h-1.2zm-.1-3.8h-1.8c-.4 0-.7 0-.9.1-.3.1-.5.2-.6.3s-.3.3-.4.5-.1.4-.1.6 0 .3.1.5c0 .1.1.3.2.4l.4.3c.2.1.4.1.6.1.3 0 .7-.1 1.1-.3s.9-.5 1.4-1v-1.5zm10.8 3.8h-1.4v-3.7h-3.8v3.7h-1.4v-8.3h1.4v3.4h3.8v-3.4h1.4v8.3zm4.2-8.4v5.9l3.6-5.9h1.4v8.3h-1.4v-5.9l-3.6 5.9h-1.4v-8.3h1.4zm15.4 7.1l-.1 3.4h-1.3v-2.1h-6.3v-8.3h1.4v7.1h3.8v-7.1h1.4v7.1h1.1v-.1zm7.1 1.3v-1.1c-.5.4-.9.8-1.4 1s-1 .3-1.5.3-.9-.1-1.2-.2-.6-.3-.8-.5c-.2-.2-.4-.5-.5-.8s-.2-.6-.2-.9c0-.8.3-1.5.9-2s1.5-.7 2.8-.7h1.7v-.8c0-.5-.2-.9-.5-1.2-.3-.3-.8-.4-1.4-.4-.5 0-.9.1-1.4.2l-1.4.4v-1.3l.6-.2.7-.2s.5-.1.8-.1h.8c.5 0 1 .1 1.4.2.4.1.7.3 1 .5.3.2.5.5.6.9s.2.7.2 1.2v5.7h-1.2zm-.1-3.8h-1.8c-.4 0-.7 0-.9.1-.3.1-.5.2-.6.3s-.3.3-.4.5-.1.4-.1.6 0 .3.1.5c0 .1.1.3.2.4l.4.3c.2.1.4.1.6.1.3 0 .7-.1 1.1-.3s.9-.5 1.4-1v-1.5zm20.6 1.3c0 .4-.1.7-.2 1-.2.3-.4.6-.7.8-.3.2-.8.4-1.3.5s-1.1.2-1.8.2c-.5 0-1 0-1.5-.1s-1-.1-1.5-.1v-8.2c.5-.1 1-.1 1.6-.1h1.7c1.1 0 2 .2 2.6.6s.9.9.9 1.6c0 .5-.1.9-.4 1.2s-.7.6-1.2.7c.3 0 .5.1.8.2.2.1.5.2.7.4l.5.6s-.2.4-.2.7zm-1.9-3.6c0-.2 0-.4-.1-.5-.1-.2-.2-.3-.4-.4s-.4-.2-.7-.3c-.3-.1-.6-.1-1-.1h-.9c-.3 0-.5 0-.8.1v2.4h1.7c1.5 0 2.2-.4 2.2-1.2zm.4 3.7c0-.4-.2-.8-.6-1-.4-.2-1-.3-1.8-.3h-1.8v2.5l.8.1h.9c.5 0 .9 0 1.2-.1s.6-.2.8-.3l.4-.4.1-.5zm-72.9 22.8h-2l-3.9-4.5v4.5h-1.4v-8.3h1.4v3.8l3.7-3.8h1.9l-3.9 3.8 4.2 4.5zm9.1-4.3c0 .6-.1 1.2-.3 1.8-.2.5-.4 1-.8 1.4s-.8.7-1.3.9c-.5.2-1.1.3-1.7.3s-1.1-.1-1.6-.3c-.5-.2-.9-.5-1.2-.8s-.6-.8-.8-1.3c-.2-.5-.3-1.1-.3-1.8 0-.6.1-1.2.3-1.8.2-.5.4-1 .8-1.4.3-.4.8-.7 1.3-.9.5-.2 1.1-.3 1.7-.3s1.1.1 1.6.3c.5.2.9.5 1.2.8.3.4.6.8.8 1.3.2.5.3 1.1.3 1.8zm-1.5.1c0-.5-.1-1-.2-1.3-.1-.4-.3-.7-.5-1s-.5-.5-.8-.6-.6-.2-1-.2-.8.1-1.1.3c-.3.2-.6.4-.8.7s-.3.6-.4 1-.1.8-.1 1.2c0 .5.1 1 .2 1.4s.3.7.5 1 .5.5.8.6.6.2 1 .2.8-.1 1.1-.3c.3-.2.6-.4.8-.7s.3-.6.4-1c.1-.5.1-.9.1-1.3zm10.3 4.2h-1.4v-3.7h-3.8v3.7h-1.4v-8.3h1.4v3.4h3.8v-3.4h1.4v8.3zm10.3-1.3l-.1 3.4h-1.3v-2.1h-6.3v-8.3h1.4v7.1h3.8v-7.1h1.4v7.1c0-.1 1.1-.1 1.1-.1zm8.7-3.3v.9h-5.9c0 .9.2 1.5.7 2s1.2.7 2.1.7h.7c.2 0 .5 0 .7-.1s.4-.1.7-.1l.6-.1v1.2c-.4.1-.8.2-1.3.3s-1 .1-1.5.1c-.7 0-1.3-.1-1.8-.3s-.9-.5-1.3-.8c-.3-.4-.6-.8-.7-1.4-.2-.5-.2-1.1-.2-1.8 0-.6.1-1.1.3-1.7.2-.5.4-1 .7-1.4.3-.4.7-.7 1.2-.9s1-.3 1.6-.3 1.1.1 1.5.3c.4.2.8.4 1.1.8.3.3.5.7.7 1.2 0 .2.1.8.1 1.4zm-1.5-.3c0-.4 0-.7-.1-1s-.2-.6-.4-.8-.4-.4-.7-.5c-.3-.1-.6-.2-1-.2-.3 0-.6.1-.9.2s-.5.3-.7.5-.3.5-.5.8c-.1.3-.2.7-.2 1h4.5z"/><path class="st1" d="M153.5 330h256"/><path class="st12" d="M160.5 330.5h241"/><path class="st5" d="M161.5 335.4l-8.6-5 8.6-5v10zm239 0l8.6-5-8.6-5v10z"/></svg>