<svg xmlns="http://www.w3.org/2000/svg" xmlns:xlink="http://www.w3.org/1999/xlink" viewBox="0 0 1110 308.2" enable-background="new 0 0 1110 308.2"><style type="text/css">.st0{fill:#E6E7E8;} .st1{fill:#D1D3D4;} .st2{fill:#F69E24;} .st3{fill:#FDBB1D;} .st4{opacity:0.72;fill:#D48E25;enable-background:new ;} .st5{fill:#ED1C24;} .st6{fill:none;} .st7{fill:#FFFFFF;} .st8{fill:#EF4136;} .st9{fill:#F1F2F2;} .st10{fill:#E9E9EA;stroke:#D1D3D4;stroke-miterlimit:10;} .st11{fill:#E6E7E8;stroke:#726895;stroke-miterlimit:10;} .st12{opacity:0.44;fill:#FFFFFF;enable-background:new ;} .st13{fill:#F1F2F2;stroke:#726895;stroke-miterlimit:10;} .st14{fill:#BCBEC0;} .st15{fill:none;stroke:#00ACCE;stroke-width:3;stroke-miterlimit:10;} .st16{fill:none;stroke:#00ACCE;stroke-width:3;stroke-miterlimit:10;stroke-dasharray:6.8404,6.8404;} .st17{fill:none;stroke:#00ACCE;stroke-width:3;stroke-miterlimit:10;stroke-dasharray:5.6346,5.6346;} .st18{fill:none;stroke:#00ACCE;stroke-width:3;stroke-miterlimit:10;stroke-dasharray:5.9736,5.9736;} .st19{fill:none;stroke:#00ACCE;stroke-width:3;stroke-miterlimit:10;stroke-dasharray:6.8411,6.8411;} .st20{fill:none;stroke:#00ACCE;stroke-width:3;stroke-miterlimit:10;stroke-dasharray:5.6341,5.6341;} .st21{fill:none;stroke:#00ACCE;stroke-width:3;stroke-miterlimit:10;stroke-dasharray:5.973,5.973;} .st22{fill:none;stroke:#00ACCE;stroke-width:3;stroke-miterlimit:10;stroke-dasharray:6.8407,6.8407;} .st23{fill:#C4C6C8;stroke:#D1D3D4;stroke-miterlimit:10;} .st24{fill:#A7A9AC;} .st25{opacity:0.37;clip-path:url(#SVGID_2_);fill:#FFFFFF;enable-background:new ;} .st26{opacity:0.37;clip-path:url(#SVGID_4_);fill:#FFFFFF;enable-background:new ;} .st27{opacity:0.37;clip-path:url(#SVGID_6_);fill:#FFFFFF;enable-background:new ;} .st28{opacity:0.37;clip-path:url(#SVGID_8_);fill:#FFFFFF;enable-background:new ;} .st29{fill:#C4C6C8;} .st30{fill:none;stroke:#00ACCE;stroke-width:3;stroke-miterlimit:10;stroke-dasharray:6.8406,6.8406;} .st31{fill:none;stroke:#00ACCE;stroke-width:3;stroke-miterlimit:10;stroke-dasharray:6.8409,6.8409;} .st32{fill:none;stroke:#00ACCE;stroke-width:3;stroke-miterlimit:10;stroke-dasharray:5.9732,5.9732;} .st33{fill:none;stroke:#00ACCE;stroke-width:3;stroke-miterlimit:10;stroke-dasharray:5.6352,5.6352;} .st34{fill:none;stroke:#00ACCE;stroke-width:3;stroke-miterlimit:10;stroke-dasharray:5.9737,5.9737;} .st35{fill:#B8C1CC;} .st36{fill:#E3DAD0;} .st37{fill:#CC4C85;} .st38{fill:#A97C50;} .st39{fill:#C49A6C;} .st40{fill:#009444;} .st41{fill:#2BB673;} .st42{fill:#39B54A;} .st43{fill:#CBD3E0;} .st44{fill:#ACB4C0;} .st45{fill:#C4CDD9;} .st46{fill:#786B35;} .st47{fill:#E9E5C6;} .st48{fill:#494746;} .st49{fill:#726658;} .st50{opacity:0.92;fill:#FFFFFF;enable-background:new ;} .st51{fill:#32B26C;} .st52{opacity:0.5;fill:#FFFFFF;enable-background:new ;} .st53{fill:#010101;} .st54{fill:#676767;} .st55{fill:#676767;stroke:#676767;stroke-miterlimit:10;} .st56{fill:#2AAAE2;} .st57{fill:#2AAAE2;stroke:#2AAAE2;stroke-miterlimit:10;}</style><g id="Layer_3"><path class="st0" d="M399.8 286.4h-343.3l40.6-43.5h265.5z"/><path class="st1" d="M56.7 285.8h343.2v22.4h-343.2z"/></g><path class="st2" d="M1009.9 307.1h-318.7s-10.1-55.9 0-56.7c10.1-.8 305-.8 318.7 0v56.7z"/><path class="st3" d="M1010.9 302.6c-.6 2.8-1 4.5-1 4.5h-318.7s-.4-2-.9-5.3"/><path class="st4" d="M687 273.9c-.8-12.2-.2-23.2 4.2-23.5 10.1-.8 305-.8 318.7 0 5.7.3 6.7 10.2 5.8 21.7"/><path class="st5" d="M146.2.9h149.5v43.1h-149.5z"/><path class="st6" d="M154.4 11.7h130.9v67h-130.9z"/><path class="st7" d="M176.7 23.1c-.5.2-.9.3-1.4.4-.5.1-.9.1-1.4.1-.8 0-1.5-.1-2.1-.3-.6-.2-1.1-.6-1.5-1s-.7-1-.9-1.7c-.2-.7-.3-1.5-.3-2.3 0-.9.1-1.7.3-2.4.2-.7.6-1.3 1-1.8s1-.9 1.6-1.1c.6-.3 1.3-.4 2.1-.4h.7c.2 0 .4 0 .6.1l.6.1s.4.1.7.2v2c-.5-.2-.9-.4-1.3-.5s-.8-.1-1.2-.1c-.5 0-1 .1-1.3.3-.4.2-.7.4-.9.8-.2.3-.4.7-.5 1.2s-.2 1-.2 1.5c0 .6.1 1.1.2 1.6s.3.9.5 1.2.5.6.9.7c.4.2.8.3 1.3.3.2 0 .4 0 .6-.1l.6-.1.6-.2c.2-.1.4-.2.6-.2l.1 1.7zm9.9-3.9c0 .6-.1 1.2-.3 1.8s-.4 1.1-.8 1.5c-.3.4-.8.7-1.3.9-.5.2-1.1.3-1.7.3-.6 0-1.2-.1-1.7-.3-.5-.2-.9-.5-1.2-1-.3-.4-.6-1-.7-1.6s-.2-1.5-.2-2.4c0-1 .1-1.9.2-2.7.1-.8.4-1.4.8-2 .4-.5.8-1 1.4-1.3.6-.3 1.1-.5 1.8-.6.4-.1.8-.1 1-.2.2 0 .5 0 .7-.1s.4 0 .7-.1c.2 0 .5-.1.8-.1v1.9c-.4.1-.9.1-1.5.2-.7.1-1.2.1-1.7.2-.2 0-.4.1-.6.2-.2.1-.4.2-.5.3-.2.2-.3.3-.5.6l-.3.6-.2.6c-.1.2-.1.4-.1.6.1-.2.3-.4.6-.6l.7-.5c.2-.1.5-.2.8-.3s.6-.1.9-.1c.5 0 .9.1 1.3.3.4.2.7.4 1 .8.3.3.5.8.6 1.2v1.9zm-2.1 0c0-1.5-.5-2.2-1.6-2.2-.4 0-.8.1-1.2.4-.4.3-.7.6-1.1 1.1v.1c0 .6 0 1.1.1 1.5.1.4.2.8.4 1.1.2.3.4.5.6.6.2.1.5.2.9.2.6 0 1.1-.2 1.4-.7.3-.5.5-1.2.5-2.1zm11.4 0c0 .7-.1 1.3-.3 1.8-.2.5-.5 1-.8 1.4s-.8.7-1.3.9-1.1.3-1.8.3c-.6 0-1.2-.1-1.7-.3s-.9-.5-1.3-.8c-.3-.4-.6-.8-.8-1.4s-.3-1.2-.3-1.9.1-1.3.3-1.8c.2-.5.5-1 .8-1.4.4-.4.8-.7 1.3-.9s1.1-.3 1.7-.3c.6 0 1.2.1 1.7.3.5.2.9.5 1.3.8s.6.8.8 1.4c.3.6.4 1.2.4 1.9zm-2.2 0c0-.9-.2-1.5-.5-2-.3-.4-.8-.7-1.5-.7-.4 0-.7.1-.9.2s-.5.3-.6.6c-.2.2-.3.5-.4.8-.1.3-.1.7-.1 1 0 .9.2 1.5.5 2 .4.4.8.7 1.5.7.3 0 .6-.1.9-.2.2-.1.5-.3.6-.6.2-.2.3-.5.3-.9s.2-.5.2-.9zm11.5-.1c0 .8-.1 1.4-.3 2-.2.6-.5 1-.9 1.4-.4.4-.9.6-1.4.8s-1.1.3-1.7.3h-.6s-.4-.1-.6-.1v3.3h-2v-11.8h1.8l.1 1.2c.2-.2.4-.4.5-.6l.6-.5c.2-.1.4-.2.7-.3s.5-.1.8-.1c.5 0 .9.1 1.3.3s.7.5 1 .9c.3.4.5.8.6 1.3 0 .7.1 1.3.1 1.9zm-2.1.1c0-.5 0-.9-.1-1.2s-.2-.6-.3-.8c-.1-.2-.3-.4-.5-.5s-.4-.1-.6-.1c-.3 0-.7.1-1 .4-.3.3-.6.7-1 1.1v3.7c.2.1.4.1.6.1l.7.1c.3 0 .6-.1.9-.2.3-.1.5-.3.7-.6.2-.2.3-.5.4-.9.1-.3.2-.7.2-1.1zm18.4 4.3v-6.7h-3.3v6.7h-2v-8.5h7.3v8.4h-2zm11.7-4.3c0 .7-.1 1.3-.3 1.8-.2.5-.5 1-.8 1.4s-.8.7-1.3.9-1.1.3-1.8.3c-.6 0-1.2-.1-1.7-.3s-.9-.5-1.3-.8c-.3-.4-.6-.8-.8-1.4s-.3-1.2-.3-1.9.1-1.3.3-1.8c.2-.5.5-1 .8-1.4.4-.4.8-.7 1.3-.9s1.1-.3 1.7-.3c.6 0 1.2.1 1.7.3.5.2.9.5 1.3.8s.6.8.8 1.4c.4.6.4 1.2.4 1.9zm-2.1 0c0-.9-.2-1.5-.5-2-.3-.4-.8-.7-1.5-.7-.4 0-.7.1-.9.2s-.5.3-.6.6c-.2.2-.3.5-.4.8-.1.3-.1.7-.1 1 0 .9.2 1.5.5 2 .4.4.8.7 1.5.7.3 0 .6-.1.9-.2.2-.1.5-.3.6-.6.2-.2.3-.5.3-.9s.2-.5.2-.9zm10.7 4c-.4.2-.8.3-1.2.4s-.9.1-1.3.1c-.7 0-1.3-.1-1.8-.3s-1-.5-1.4-.8-.7-.8-.9-1.3c-.2-.5-.3-1.1-.3-1.8s.1-1.3.3-1.8c.2-.5.5-1 .9-1.4s.9-.7 1.4-.9c.5-.2 1.2-.3 1.8-.3.5 0 1 0 1.4.1.4.1.7.1 1 .2v2c-.3-.2-.7-.3-1.1-.4s-.8-.1-1.1-.1c-.4 0-.7.1-1 .2s-.6.3-.8.5-.4.5-.5.8c-.1.3-.2.7-.2 1.1 0 .4.1.8.2 1.1s.3.6.5.8c.2.2.5.4.8.5.3.1.6.2 1 .2h.6l.6-.1c.2 0 .4-.1.6-.2.2-.1.4-.1.5-.2v1.6zm7.6-.6c-.3.7-.6 1.4-.9 1.9-.3.6-.7 1-1.1 1.4s-.8.6-1.3.8c-.5.2-1 .3-1.6.3h-.5c-.2 0-.3 0-.5-.1v-1.7h1.1c.2 0 .4 0 .6-.1s.4-.2.6-.4c.2-.2.3-.3.5-.6l.4-.7-3.3-8.4h2.3l1.8 4.8.5 1.5.5-1.5 1.8-4.8h2.2l-3.1 7.6zm12.3-.8l-.1 3.8h-1.9v-2.1h-5.1v2.1h-1.9l-.1-3.8h.2c.2 0 .4 0 .6-.1l.5-.3s.3-.4.4-.7.2-.7.3-1.2.2-1.1.3-1.8.1-1.6.2-2.5h5.7v6.7c0-.1.9-.1.9-.1zm-2.8-5.1h-1.9c-.1.7-.1 1.4-.2 1.9-.1.6-.1 1-.2 1.4-.1.4-.2.7-.3 1s-.3.5-.4.7h3v-5zm6.1 1.5c.6 0 1.1.1 1.6.2s.8.3 1 .5c.3.2.4.5.6.8s.2.7.2 1c0 .4-.1.8-.2 1.2-.1.3-.3.6-.6.9s-.6.4-1.1.6c-.4.1-1 .2-1.6.2-.4 0-.8 0-1.2-.1l-1.2-.1v-8.4h1.9v3.2h.6zm-.1 4c.5 0 .8-.1 1-.3s.3-.5.3-1c0-.1 0-.3-.1-.5 0-.2-.1-.3-.2-.4-.1-.1-.2-.2-.4-.3-.2-.1-.4-.1-.7-.1h-.6v2.5c.3.1.5.1.7.1zm3.9 1.3v-8.5h1.9v8.4h-1.9z"/><path class="st5" d="M460.7 0h149.5v43.1h-149.5z"/><path class="st6" d="M468.9 10.8h130.9v67h-130.9z"/><path class="st7" d="M485.5 22.5l-.2-6.1-.1-2.4-.5 1.7-1.2 3.7h-1.3l-1.1-3.7-.5-1.7-.1 2.4-.2 6.2h-1.7l.5-10.8h2.3l1 3.1.5 1.7.5-1.6 1-3.2h2.3l.5 10.8-1.7-.1zm5.2-5.2c.6 0 1.1.1 1.6.2.4.1.8.3 1 .5.3.2.4.5.6.8.1.3.2.7.2 1 0 .4-.1.8-.2 1.2-.1.3-.3.6-.6.9s-.6.4-1.1.6c-.4.1-1 .2-1.6.2-.4 0-.8 0-1.2-.1l-1.2-.1v-8.4h1.9v3.2h.6zm0 4c.5 0 .8-.1 1-.3s.3-.5.3-1c0-.1 0-.3-.1-.5 0-.2-.1-.3-.2-.4-.1-.1-.2-.2-.4-.3-.2-.1-.4-.1-.7-.1h-.6v2.5c.3 0 .5.1.7.1zm3.9 1.2v-8.4h1.9v8.4h-1.9zm8.1-6.7v6.7h-2.1v-6.7h-2.9v-1.7h7.9v1.7h-2.9zm8.5 1.3c.8 0 1.4.1 1.9.2s.9.3 1.2.6.6.5.7.9c.2.3.2.7.2 1 0 .4-.1.8-.3 1.2s-.4.7-.8.9c-.3.3-.8.5-1.3.6-.5.1-1.2.2-2 .2-.5 0-1 0-1.7-.1-.7 0-1.3-.1-1.8-.1v-8.4h2v3h1.9zm0 4c.7 0 1.2-.1 1.5-.4s.5-.5.5-.9c0-.2 0-.3-.1-.5s-.2-.3-.3-.4l-.6-.3c-.3-.1-.7-.1-1.2-.1h-1.5v2.5c.2 0 .5.1.8.1h.9zm13-3.4v1.1h-5.5c0 .4.1.7.2 1s.3.5.5.7c.2.2.5.3.7.4.3.1.6.1 1 .1s.8 0 1.3-.1l1.5-.3v1.6l-.7.2s-.5.1-.8.1-.5.1-.8.1h-.8c-.6 0-1.2-.1-1.7-.3s-.9-.5-1.3-.8c-.4-.4-.6-.8-.8-1.3s-.3-1.1-.3-1.8.1-1.3.3-1.9.5-1 .8-1.4.8-.7 1.3-.9c.5-.2 1-.3 1.6-.3.6 0 1.1.1 1.6.3.5.2.8.4 1.2.8s.5.7.7 1.2c-.1.4 0 .9 0 1.5zm-2.1-.3c0-.3 0-.6-.1-.9-.1-.2-.2-.5-.4-.6-.2-.2-.3-.3-.5-.4s-.4-.1-.7-.1c-.5 0-.9.2-1.3.5-.3.3-.5.8-.6 1.4h3.6zm18.6 5.1v-6.7h-3.3v6.7h-2v-8.4h7.3v8.4h-2zm11.8-4.2c0 .7-.1 1.3-.3 1.8-.2.6-.5 1-.8 1.4-.4.4-.8.7-1.3.9s-1.1.3-1.8.3c-.6 0-1.2-.1-1.7-.3s-.9-.5-1.3-.8c-.3-.4-.6-.8-.8-1.4-.2-.5-.3-1.2-.3-1.9s.1-1.3.3-1.8c.2-.5.5-1 .8-1.4.4-.4.8-.7 1.3-.9.5-.2 1.1-.3 1.7-.3.6 0 1.2.1 1.7.3.5.2.9.5 1.3.8s.6.8.8 1.4c.3.5.4 1.2.4 1.9zm-2.2 0c0-.9-.2-1.5-.5-2-.3-.4-.8-.7-1.5-.7-.4 0-.7.1-.9.2-.2.1-.5.3-.6.6-.2.2-.3.5-.4.8-.1.3-.1.7-.1 1 0 .9.2 1.5.5 2 .4.4.8.7 1.5.7.3 0 .6-.1.9-.2.2-.1.5-.3.6-.6.2-.2.3-.5.3-.9.2-.2.2-.5.2-.9zm10.7 3.9c-.4.2-.8.3-1.2.4-.4.1-.9.1-1.3.1-.7 0-1.3-.1-1.8-.3s-1-.5-1.4-.8-.7-.8-.9-1.3-.3-1.1-.3-1.8.1-1.3.3-1.8c.2-.5.5-1 .9-1.4s.9-.7 1.4-.9 1.2-.3 1.8-.3c.5 0 1 0 1.4.1.4.1.7.1 1 .2v2c-.3-.2-.7-.3-1.1-.4-.4-.1-.8-.1-1.1-.1-.4 0-.7.1-1 .2s-.6.3-.8.5-.4.5-.5.8-.2.7-.2 1.1c0 .4.1.8.2 1.1.1.3.3.6.5.8.2.2.5.4.8.5s.6.2 1 .2h.6l.6-.1c.2 0 .4-.1.6-.2.2-.1.4-.1.5-.2v1.6zm7.6-.6c-.3.7-.6 1.4-.9 1.9-.3.5-.7 1-1 1.4-.4.4-.8.6-1.3.8s-1 .3-1.6.3h-.5c-.2 0-.3 0-.5-.1v-1.7h1.1c.2 0 .4 0 .6-.1s.4-.2.6-.4c.2-.2.3-.3.5-.6l.4-.7-3.3-8.4h2.3l1.8 4.8.5 1.5.5-1.5 1.8-4.8h2.2l-3.2 7.6zm12.3-.8l-.1 3.8h-1.8v-2.1h-5.1v2.1h-1.9l-.1-3.8h.2c.2 0 .4 0 .6-.1l.5-.3c.2-.2.3-.4.4-.7.1-.3.2-.7.3-1.2s.2-1.1.3-1.8c.1-.7.1-1.6.2-2.5h5.7v6.7c0-.1.8-.1.8-.1zm-2.8-5h-1.9c-.1.7-.1 1.4-.2 1.9s-.1 1-.2 1.4c-.1.4-.2.7-.3 1-.1.3-.3.5-.4.7h3v-5zm6.1 1.5c.6 0 1.1.1 1.6.2.4.1.8.3 1 .5.3.2.4.5.6.8.1.3.2.7.2 1 0 .4-.1.8-.2 1.2-.1.3-.3.6-.6.9s-.6.4-1.1.6c-.4.1-1 .2-1.6.2-.4 0-.8 0-1.2-.1l-1.2-.1v-8.4h1.9v3.2h.6zm0 4c.5 0 .8-.1 1-.3s.3-.5.3-1c0-.1 0-.3-.1-.5 0-.2-.1-.3-.2-.4s-.2-.2-.4-.3-.4-.1-.7-.1h-.6v2.5c.2 0 .4.1.7.1zm3.8 1.2v-8.4h1.9v8.4h-1.9z"/><path class="st8" d="M759.9 0h149.5v43.1h-149.5z"/><path class="st6" d="M770.1 4.6h130.9v67h-130.9z"/><path class="st9" d="M794.6 16.3v-10.8h3.5c1.2 0 2.2.2 2.8.6s.9 1.1.9 2c0 .3 0 .5-.1.8-.1.3-.2.5-.3.7s-.3.4-.5.6-.4.3-.7.4c.3 0 .5.1.8.3s.5.3.6.5c.2.2.3.5.4.7.1.3.2.6.2.9 0 1.1-.4 1.9-1.1 2.5-.7.6-1.8.8-3.2.8h-3.3zm5.1-7.8c0-.2 0-.4-.1-.6s-.2-.3-.3-.4-.3-.2-.6-.3c-.2-.1-.5-.1-.8-.1h-1.2v2.9h1.2c.3 0 .6 0 .8-.1l.6-.3c.1-.1.3-.3.3-.5s.1-.4.1-.6zm-1.7 6.2c.3 0 .6 0 .9-.1s.5-.2.6-.3c.2-.1.3-.3.4-.5s.1-.4.1-.6c0-.5-.2-.8-.5-1.1s-.9-.4-1.6-.4h-1.3v3.1h1.4zm7.9-3.6c.6 0 1.1.1 1.6.2s.8.3 1 .5c.3.2.4.5.6.8.1.3.2.7.2 1 0 .4-.1.8-.2 1.2-.1.3-.3.6-.6.9-.3.2-.6.4-1.1.6-.4.1-1 .2-1.6.2-.4 0-.8 0-1.2-.1l-1.2-.1v-8.4h1.9v3.2h.6zm0 3.9c.5 0 .8-.1 1-.3.2-.2.3-.5.3-1 0-.1 0-.3-.1-.5 0-.2-.1-.3-.2-.4s-.2-.2-.4-.3-.4-.1-.7-.1h-.6v2.6h.7zm3.9 1.3v-8.4h1.9v8.4h-1.9zm8.1-6.7v6.7h-2.1v-6.7h-2.9v-1.7h7.9v1.7h-2.9zm10 6.7v-5.3l-3.3 5.3h-1.9v-8.4h2v5.3l3.3-5.3h1.9v8.4h-2zm11.7-4.3c0 .8-.1 1.4-.3 2s-.5 1-.9 1.4c-.4.4-.9.6-1.4.8s-1.1.3-1.7.3h-.6s-.4-.1-.6-.1v3.3h-2v-11.8h1.8v1.2l.5-.6s.4-.3.6-.5c.2-.1.4-.2.7-.3.3-.1.5-.1.8-.1.5 0 .9.1 1.3.3.4.2.7.5 1 .9s.5.8.6 1.3c.2.6.2 1.2.2 1.9zm-2.1.1c0-.5 0-.9-.1-1.2s-.2-.6-.3-.8c-.1-.2-.3-.4-.5-.5-.2-.1-.4-.1-.6-.1-.3 0-.7.1-1 .4s-.6.7-1 1.1v3.7c.2.1.4.1.6.1s.5.1.7.1c.3 0 .6-.1.9-.2s.5-.3.7-.6.3-.5.4-.9c.2-.3.2-.7.2-1.1zm9.2 4.2v-1.1c-.2.2-.4.4-.6.5-.2.2-.4.3-.6.4s-.5.2-.8.3c-.3.1-.6.1-.9.1-.4 0-.8-.1-1.1-.2-.3-.1-.6-.3-.8-.5s-.4-.5-.5-.8-.2-.7-.2-1.1c0-.4.1-.8.3-1.1s.4-.6.8-.9.8-.4 1.3-.6 1.1-.2 1.8-.2h1.1v-.5c0-.2 0-.4-.1-.6s-.2-.3-.3-.4-.3-.2-.5-.3c-.2-.1-.5-.1-.8-.1-.5 0-1 .1-1.5.2s-1 .3-1.4.5v-1.6c.4-.2.9-.3 1.4-.4s1.1-.2 1.6-.2c.6 0 1.2.1 1.6.2.4.1.8.3 1.1.5.3.2.5.5.6.9.1.4.2.8.2 1.3v5.8l-1.7-.1zm-.3-3.7h-1.2c-.3 0-.6 0-.9.1l-.6.3c-.2.1-.3.3-.3.4-.1.2-.1.3-.1.5 0 .3.1.6.3.8.2.2.5.3.9.3.3 0 .6-.1.9-.3s.6-.5 1-.9v-1.2zm9.5 3.7v-3.6h-3.3v3.6h-2v-8.4h2v3.2h3.3v-3.2h2v8.4h-2zm9.3 0v-5.3l-3.3 5.3h-1.9v-8.4h2v5.3l3.3-5.3h1.9v8.4h-2zm11.6-4.8v1.1h-5.5c0 .4.1.7.2 1s.3.5.5.7c.2.2.5.3.7.4.3.1.6.1 1 .1s.8 0 1.3-.1l1.5-.3v1.6l-.7.2s-.5.1-.8.1-.5.1-.8.1h-.8c-.6 0-1.2-.1-1.7-.3s-.9-.5-1.3-.8c-.4-.4-.6-.8-.8-1.3s-.3-1.1-.3-1.8.1-1.3.3-1.9c.2-.6.5-1 .8-1.4s.8-.7 1.2-.9c.5-.2 1-.3 1.6-.3.6 0 1.1.1 1.6.3.5.2.8.4 1.2.8s.5.7.7 1.2c0 .4.1.9.1 1.5zm-2.1-.3c0-.3 0-.6-.1-.9-.1-.2-.2-.4-.4-.6s-.3-.3-.5-.4-.4-.1-.7-.1c-.5 0-.9.2-1.3.5-.3.3-.5.8-.6 1.4.1.1 3.6.1 3.6.1zm-60.9 25.5v-6.7h-3.3v6.7h-2v-8.4h7.3v8.4h-2zm11.8-4.2c0 .7-.1 1.3-.3 1.8-.2.5-.5 1-.8 1.4s-.8.7-1.3.9c-.5.2-1.1.3-1.8.3-.6 0-1.2-.1-1.7-.3-.5-.2-.9-.5-1.3-.8-.3-.4-.6-.8-.8-1.4-.2-.5-.3-1.2-.3-1.9s.1-1.3.3-1.8c.2-.5.5-1 .8-1.4.4-.4.8-.7 1.3-.9.5-.2 1.1-.3 1.7-.3.6 0 1.2.1 1.7.3.5.2.9.5 1.3.8.3.4.6.8.8 1.4.3.5.4 1.1.4 1.9zm-2.1 0c0-.9-.2-1.5-.5-2-.3-.4-.8-.7-1.5-.7-.4 0-.7.1-.9.2s-.5.3-.6.6c-.2.2-.3.5-.4.8-.1.3-.1.7-.1 1 0 .9.2 1.5.5 2 .4.4.8.7 1.5.7.3 0 .6-.1.9-.2.3-.1.5-.3.6-.6.2-.2.3-.5.3-.9s.2-.5.2-.9zm10.7 3.9c-.4.2-.8.3-1.2.4s-.9.1-1.3.1c-.7 0-1.3-.1-1.8-.3s-1-.5-1.4-.8c-.4-.4-.7-.8-.9-1.3s-.3-1.1-.3-1.8.1-1.3.3-1.8.5-1 .9-1.4.9-.7 1.4-.9 1.2-.3 1.8-.3c.5 0 1 0 1.4.1.4.1.7.1 1 .2v2c-.3-.2-.7-.3-1.1-.4s-.8-.1-1.1-.1c-.4 0-.7.1-1 .2s-.6.3-.8.5c-.2.2-.4.5-.5.8-.1.3-.2.7-.2 1.1 0 .4.1.8.2 1.1s.3.6.5.8c.2.2.5.4.8.5s.6.2 1 .2h.6l.6-.1c.2 0 .4-.1.6-.2.2-.1.4-.1.5-.2v1.6zm7.6-.6c-.3.7-.6 1.4-.9 1.9-.3.6-.7 1-1 1.4-.4.4-.8.6-1.3.8-.5.2-1 .3-1.6.3h-.5s-.3 0-.5-.1v-1.7h1.1c.2 0 .4 0 .6-.1s.4-.2.6-.4c.2-.2.3-.3.5-.6s.3-.5.4-.7l-3.3-8.4h2.3l1.8 4.8.5 1.5.5-1.5 1.8-4.8h2.2l-3.2 7.6zm12.3-.8l-.1 3.8h-1.9v-2.1h-5.1v2.1h-1.9l-.1-3.8h.2c.2 0 .4 0 .6-.1s.3-.2.5-.3.3-.4.4-.7.2-.7.3-1.2.2-1.1.3-1.8.1-1.6.2-2.5h5.7v6.6h.9zm-2.9-5h-1.9c-.1.7-.1 1.4-.2 1.9-.1.6-.1 1-.2 1.4-.1.4-.2.7-.3 1-.1.3-.3.5-.4.7h3v-5zm6.1 1.5c.6 0 1.1.1 1.6.2s.8.3 1 .5c.3.2.4.5.6.8.1.3.2.7.2 1 0 .4-.1.8-.2 1.2s-.3.6-.6.9c-.3.2-.6.4-1.1.6s-1 .2-1.6.2c-.4 0-.8 0-1.2-.1s-.8-.1-1.2-.1v-8.4h1.9v3.2h.6zm0 3.9c.5 0 .8-.1 1-.3.2-.2.3-.5.3-1 0-.1 0-.3-.1-.5 0-.2-.1-.3-.2-.4s-.2-.2-.4-.3-.4-.1-.7-.1h-.6v2.5c.3.1.5.1.7.1zm3.9 1.3v-8.4h1.9v8.4h-1.9z"/><path class="st10" d="M648.3 297.3c0 6.2-5 11.2-11.2 11.2h-210.1c-6.2 0-11.2-5-11.2-11.2v-214.6c0-6.2 5-11.2 11.2-11.2h210.1c6.2 0 11.2 5 11.2 11.2v214.6z"/><circle class="st11" cx="468.7" cy="153.8" r="27.6"/><circle class="st12" cx="468.7" cy="154.1" r="23.1"/><path class="st11" d="M557.8 154.6c0 15.2-12.4 27.6-27.6 27.6-15.2 0-27.6-12.4-27.6-27.6 0-15.2 12.4-27.6 27.6-27.6 15.3 0 27.6 12.3 27.6 27.6z"/><path class="st7" d="M553.3 154.9c0 12.7-10.3 23.1-23.1 23.1s-23.1-10.3-23.1-23.1c0-12.7 10.3-23.1 23.1-23.1s23.1 10.3 23.1 23.1z"/><path class="st13" d="M619.1 154.4c0 15.2-12.4 27.6-27.6 27.6-15.2 0-27.6-12.4-27.6-27.6 0-15.2 12.4-27.6 27.6-27.6 15.2 0 27.6 12.4 27.6 27.6z"/><circle class="st7" cx="591.5" cy="154.7" r="23.1"/><path class="st1" d="M430.5 164.7h4.6v23.1h-4.6zm194.2 0h4.3v23.1h-4.3zm-194.2 0h198.5v2.4h-198.5zm0 7.2h198.5v2.1h-198.5zm93.4 10.6h11.9v10.2h-11.9zm-82.8 8.6h175.9v4.3h-175.9zm169.7-2h6.3v2h-6.3zm-169.7 0h6.5v2h-6.5zm-10.6-6.6h198.5v5.3h-198.5z"/><path class="st14" d="M619.2 113.9l-90 3.5-86.3-3.5v-3.4h176.3zm-176.3-1.1h8.2v3.5h-8.2zm168.4 0h7.9v3.5h-7.9z"/><path class="st0" d="M522.8 104.9h15.2v13.9h-15.2z"/><path class="st6" d="M449.2 116.7l26 30.6"/><path class="st15" d="M449.2 116.7l1.9 2.3"/><path class="st16" d="M455.5 124.2l15.5 18.2"/><path class="st15" d="M473.3 145l1.9 2.3"/><path class="st6" d="M447.5 117.4v34.2"/><path class="st15" d="M447.5 117.4v3"/><path class="st17" d="M447.5 126v19.8"/><path class="st15" d="M447.5 148.6v3"/><path class="st6" d="M444.8 117.4l-20.8 29.2"/><path class="st15" d="M444.8 117.4l-1.7 2.5"/><path class="st18" d="M439.6 124.7l-12.1 17"/><path class="st15" d="M425.7 144.2l-1.7 2.4"/><path class="st6" d="M532 119.6l26.1 30.6"/><path class="st15" d="M532 119.6l2 2.3"/><path class="st19" d="M538.4 127.1l15.5 18.2"/><path class="st15" d="M556.2 147.9l1.9 2.3"/><path class="st6" d="M530.3 120.3v34.2"/><path class="st15" d="M530.3 120.3v3"/><path class="st20" d="M530.3 128.9v19.8"/><path class="st15" d="M530.3 151.5v3"/><path class="st6" d="M527.7 120.3l-20.8 29.2"/><path class="st15" d="M527.7 120.3l-1.7 2.4"/><path class="st21" d="M522.5 127.6l-12.1 17"/><path class="st15" d="M508.6 147.1l-1.7 2.4"/><path class="st6" d="M614.1 117.5l26.1 30.6"/><path class="st15" d="M614.1 117.5l1.9 2.2"/><path class="st22" d="M620.5 125l15.5 18.2"/><path class="st15" d="M638.2 145.8l2 2.3"/><path class="st6" d="M612.4 118.2v34.1"/><path class="st15" d="M612.4 118.2v3"/><path class="st17" d="M612.4 126.8v19.7"/><path class="st15" d="M612.4 149.3v3"/><path class="st6" d="M609.8 118.2l-20.8 29.2"/><path class="st15" d="M609.8 118.2l-1.8 2.4"/><path class="st21" d="M604.6 125.5l-12.2 17"/><path class="st15" d="M590.7 144.9l-1.7 2.5"/><path class="st23" d="M415.8 101v-19.2c.5-5.8 5.3-10.3 11.2-10.3h210.1c5.8 0 10.5 4.4 11.1 10l.1 19.6"/><circle class="st7" cx="434.4" cy="86.3" r="7.6"/><circle class="st7" cx="517" cy="86" r="7.6"/><path class="st24" d="M448.7 78.1h54.7v15.7h-54.7z"/><defs><path id="SVGID_1_" d="M446.845 87.857l8.712-13.061 45.505 30.353-8.712 13.061z"/></defs><clipPath id="SVGID_2_"><use xlink:href="#SVGID_1_" overflow="visible"/></clipPath><path class="st25" d="M446.523 99.398l17.646-26.454 4.825 3.218-17.646 26.454z"/><defs><path id="SVGID_3_" d="M447.63 83.254l8.718-13.056 45.489 30.375-8.718 13.056z"/></defs><clipPath id="SVGID_4_"><use xlink:href="#SVGID_3_" overflow="visible"/></clipPath><path class="st26" d="M455.913 99.454l17.659-26.445 1.913 1.277-17.659 26.445z"/><defs><path id="SVGID_5_" d="M449.76 74.659l8.71-13.062 45.51 30.348-8.71 13.062z"/></defs><clipPath id="SVGID_6_"><use xlink:href="#SVGID_5_" overflow="visible"/></clipPath><path class="st27" d="M469.778 97.631l17.643-26.458 4.826 3.218-17.643 26.458z"/><defs><path id="SVGID_7_" d="M450.626 70.131l8.709-13.064 45.516 30.342-8.709 13.064z"/></defs><clipPath id="SVGID_8_"><use xlink:href="#SVGID_7_" overflow="visible"/></clipPath><path class="st28" d="M479.237 97.614l17.639-26.461 1.914 1.276-17.639 26.461z"/><path class="st29" d="M416.2 101h5.2v207.5h-5.2zm-.4 198.2h232.5v9.3h-232.5zm228-198.1h4.5v207.4h-4.5z"/><circle class="st11" cx="468.7" cy="248.4" r="27.6"/><circle class="st12" cx="468.7" cy="248.7" r="23.1"/><path class="st11" d="M557.8 249.3c0 15.2-12.4 27.6-27.6 27.6s-27.6-12.4-27.6-27.6c0-15.2 12.4-27.6 27.6-27.6 15.2 0 27.6 12.3 27.6 27.6z"/><path class="st7" d="M553.2 249.5c0 12.7-10.3 23.1-23.1 23.1-12.7 0-23.1-10.3-23.1-23.1 0-12.7 10.3-23.1 23.1-23.1 12.8.1 23.1 10.4 23.1 23.1z"/><circle class="st13" cx="591.5" cy="249.1" r="27.6"/><circle class="st7" cx="591.5" cy="249.4" r="23.1"/><path class="st1" d="M430.5 259.4h4.6v23.1h-4.6zm194.1 0h4.3v23.1h-4.3zm-194.1 0h198.5v2.4h-198.5zm0 7.2h198.5v2.1h-198.5zm93.4 10.6h11.9v10.2h-11.9zm-82.8 8.6h175.9v4.3h-175.9zm169.7-2h6.3v2h-6.3zm-169.7 0h6.5v2h-6.5zm-10.6-6.6h198.5v5.3h-198.5z"/><path class="st14" d="M619.2 208.6l-90.1 3.5-86.2-3.5v-3.4h176.3zm-176.3-1.1h8.2v3.5h-8.2zm168.4 0h7.9v3.5h-7.9z"/><path class="st0" d="M522.8 199.6h15.2v13.9h-15.2z"/><path class="st6" d="M449.1 211.4l26.1 30.6"/><path class="st15" d="M449.1 211.4l2 2.3"/><path class="st30" d="M455.5 218.9l15.5 18.2"/><path class="st15" d="M473.2 239.7l2 2.3"/><path class="st6" d="M447.4 212.1v34.2"/><path class="st15" d="M447.4 212.1v3"/><path class="st17" d="M447.4 220.7v19.8"/><path class="st15" d="M447.4 243.3v3"/><path class="st6" d="M444.8 212.1l-20.8 29.2"/><path class="st15" d="M444.8 212.1l-1.7 2.4"/><path class="st18" d="M439.6 219.4l-12.2 17"/><path class="st15" d="M425.7 238.9l-1.7 2.4"/><path class="st6" d="M532 214.3l26.1 30.6"/><path class="st15" d="M532 214.3l2 2.3"/><path class="st31" d="M538.4 221.8l15.5 18.2"/><path class="st15" d="M556.1 242.6l2 2.3"/><path class="st6" d="M530.3 215v34.2"/><path class="st15" d="M530.3 215v3"/><path class="st17" d="M530.3 223.6v19.7"/><path class="st15" d="M530.3 246.2v3"/><path class="st6" d="M527.7 215l-20.8 29.2"/><path class="st15" d="M527.7 215l-1.8 2.4"/><path class="st32" d="M522.5 222.3l-12.2 17"/><path class="st15" d="M508.6 241.8l-1.7 2.4"/><path class="st6" d="M614.1 212.2l26 30.6"/><path class="st15" d="M614.1 212.2l1.9 2.2"/><path class="st19" d="M620.4 219.6l15.6 18.3"/><path class="st15" d="M638.2 240.5l1.9 2.3"/><path class="st6" d="M612.4 212.9v34.1"/><path class="st15" d="M612.4 212.9v3"/><path class="st33" d="M612.4 221.5v19.7"/><path class="st15" d="M612.4 244v3"/><path class="st6" d="M609.7 212.9l-20.8 29.2"/><path class="st15" d="M609.7 212.9l-1.7 2.4"/><path class="st34" d="M604.5 220.2l-12.1 17"/><path class="st15" d="M590.7 239.6l-1.8 2.5"/><path class="st35" d="M113.3 245.7c0 3-2 5.4-4.5 5.4h-13.8c-2.5 0-4.5-2.4-4.5-5.4v-16.6h22.9v16.6zm-19 4.8h15.2v1.2h-15.2zm-6.3-4.6c-2.5-.1-4.4-3.2-4.3-7.1.1-3.9 2.1-7 4.6-6.9s8-5.2 6.8 7.6c-1 9.3-4.6 6.4-7.1 6.4zm1.7-6.5c0-2.2-.8-3.9-1.8-4-1 0-1.9 1.7-1.9 3.9s.8 3.9 1.8 4c1 0 1.9-1.7 1.9-3.9z"/><path class="st36" d="M151.6 103.2c0 3.1-2.1 5.6-4.6 5.6h-14.2c-2.6 0-4.6-2.5-4.6-5.6v-17h23.4v17zm-19.5 4.9h15.6v1.3h-15.6zm-6.5-4.7c-2.5-.1-4.5-3.3-4.4-7.3.1-4 2.2-7.1 4.7-7.1 2.5.1 8.2-5.3 6.9 7.8-.9 9.5-4.6 6.6-7.2 6.6zm1.8-6.6c0-2.2-.8-4-1.8-4.1-1 0-1.9 1.8-2 4 0 2.2.8 4 1.8 4.1 1.1 0 2-1.8 2-4z"/><path class="st37" d="M135.6 93.2c0 3.9.6 5.2-.5 5.2s-3 4.9-3 1c0-2.7 2.1-9.3 0-12.1-.2-.2 0-1 0-1h5s.1 1.2-.5 1.5c-1.2.5-1 3.4-1 5.4zm1.5 11.4c0 1.4-.8 1.2-1.3 1.2s-.9-1.1-.9-2.5.4-2.5.9-2.5 1.3 2.4 1.3 3.8z"/><path class="st38" d="M207.6 199.4c3.8-.3 7.2 2.6 7.5 6.4.3 3.8-2.6 7.2-6.4 7.5-3.8.3-7.2-2.6-7.5-6.4-.3-3.8 2.6-7.2 6.4-7.5zm-8.5 8.5c3-.2 5.6 2 5.8 5 .2 3-2 5.6-5 5.8-3 .2-5.6-2-5.8-5-.2-3 2-5.6 5-5.8z"/><path class="st39" d="M208.2 207.3c3-.2 5.6 2 5.8 5l.1 1.3c.2 3-2 5.6-5 5.8-3 .2-5.6-2-5.8-5l-.1-1.3c-.2-3 2.1-5.6 5-5.8z"/><path class="st40" d="M204.2 171.4c.2-1.8 1.7-3.2 3.6-3 1.8.2 3.2 1.7 3 3.6l-.5 5.6c-.2 1.8-1.7 3.2-3.6 3-1.8-.2-3.2-1.7-3-3.6l.5-5.6z"/><path class="st41" d="M199.5 173.6c.5-1.7 2.2-2.6 3.9-2.1 1.7.5 2.6 2.2 2.1 3.9l-1 3.4c-.5 1.7-2.2 2.6-3.9 2.1-1.7-.5-2.6-2.2-2.1-3.9l1-3.4z"/><path class="st42" d="M202.4 208.4c1.1-1.2 3.1-1.3 4.3-.2 1.2 1.1 1.3 3.1.2 4.3l-4.8 5.2c-1.1 1.2-3.1 1.3-4.3.2-1.2-1.1-1.3-3.1-.2-4.3l4.8-5.2z"/><path class="st43" d="M211.5 175.5l.9 11.5-7.7 11.7-71.2 5.6-9.1-10.8-.8-11.1z"/><path class="st44" d="M216.1 214.2l-2 11.4-10.4 9.7-70.4-10.8-6.1-12.6 1.9-11z"/><path class="st45" d="M216 229.2l-.1 11.5-8.6 11.1-71.4-.1-8.1-11.5.1-11.2z"/><path class="st38" d="M132 125.1c-3.8-.3-7.2 2.6-7.5 6.4-.3 3.8 2.6 7.2 6.4 7.5 3.8.3 7.2-2.6 7.5-6.4.3-3.9-2.5-7.2-6.4-7.5zm8.6 8.5c-3-.2-5.6 2-5.8 5-.2 3 2 5.6 5 5.8 3 .2 5.6-2 5.8-5 .2-3-2.1-5.6-5-5.8z"/><path class="st39" d="M131.4 132.9c-3-.2-5.6 2-5.8 5l-.1 1.3c-.2 3 2 5.6 5 5.8 3 .2 5.6-2 5.8-5l.1-1.3c.2-2.9-2-5.5-5-5.8z"/><path class="st40" d="M135.4 97.1c-.2-1.8-1.7-3.2-3.6-3-1.8.2-3.2 1.7-3 3.6l.5 5.6c.2 1.8 1.7 3.2 3.6 3 1.8-.2 3.2-1.8 3-3.6l-.5-5.6z"/><path class="st41" d="M140.2 99.3c-.5-1.7-2.2-2.6-3.9-2.1-1.7.5-2.6 2.2-2.1 3.9l1 3.4c.5 1.7 2.2 2.6 3.9 2.1 1.7-.5 2.6-2.2 2.1-3.9l-1-3.4z"/><path class="st42" d="M137.2 134.1c-1.1-1.2-3.1-1.3-4.3-.2-1.2 1.1-1.3 3.1-.2 4.3l4.8 5.2c1.1 1.2 3.1 1.3 4.3.2 1.2-1.1 1.3-3.1.2-4.3l-4.8-5.2z"/><path class="st43" d="M128.2 101.1l-.9 11.5 7.7 11.8 71.1 5.6 9.1-10.9.9-11.1z"/><path class="st44" d="M123.6 139.9l1.9 11.4 10.4 9.7 70.4-10.8 6.1-12.7-1.8-11z"/><path class="st45" d="M123.6 154.8l.1 11.6 8.7 11.1 71.3-.1 8.1-11.5v-11.2z"/><path class="st43" d="M199.3 103c0 4.3-2.9 7.9-6.6 7.9h-20.1c-3.6 0-6.6-3.5-6.6-7.9v-24.1h33.2l.1 24.1zm-27.6 6.9h22.1v1.8h-22.1zm-9.2-6.7c-3.6-.1-6.4-4.7-6.3-10.3.1-5.6 3.1-10.1 6.6-10 3.6.1 11.7-7.5 9.8 11.1-1.2 13.4-6.5 9.3-10.1 9.2zm2.5-9.4c.1-3.1-1.1-5.7-2.6-5.8-1.5 0-2.7 2.5-2.8 5.6-.1 3.1 1.1 5.7 2.6 5.8 1.5.1 2.8-2.4 2.8-5.6z"/><path class="st39" d="M175.3 88.6c0 5.4 0 17.2-1.1 17.2s-2.4-3-2.4-8.5c0-3.7 2.1-13.1 0-17-.2-.3 0-1.5 0-1.5h5s.1 1.7-.5 2.1c-1.2.9-1 5-1 7.7zm12.5 14.5c0 1.9-.8 1.6-1.3 1.6s-.9-1.6-.9-3.5.4-3.5.9-3.5c.5.1 1.3 3.5 1.3 5.4z"/><path class="st46" d="M195.6 88.9c-.4 1-11.1 3.8-12.1 3.1-1-.7-.8-11.9-.8-11.9l8.4-2.1s4.8 9.9 4.5 10.9z"/><path class="st47" d="M182.326 78.479l8.337-2.111.417 1.648-8.337 2.111z"/><path class="st35" d="M333.2 247.7c0 3 2 5.4 4.5 5.4h13.8c2.5 0 4.5-2.4 4.5-5.4v-16.6h-22.9l.1 16.6zm3.7 4.8h15.2v1.2h-15.2zm14.6-11c-1.3-12.8 4.3-7.6 6.8-7.6 2.5-.1 4.5 3 4.6 6.9.1 3.9-1.9 7-4.3 7.1-2.6 0-6.2 2.9-7.1-6.4zm7.2 3.8c1 0 1.8-1.8 1.8-4s-.9-3.9-1.9-3.9c-1 0-1.8 1.8-1.8 4s.8 3.9 1.9 3.9z"/><path class="st36" d="M288.4 121.7c0 3.1 2.1 5.6 4.6 5.6h14.2c2.6 0 4.6-2.5 4.6-5.6v-17h-23.4v17zm3.9 4.9h15.6v1.3h-15.6zm14.9-11.3c-1.3-13.1 4.4-7.8 6.9-7.8 2.5-.1 4.6 3.1 4.7 7.1.1 4-1.9 7.2-4.4 7.3-2.6 0-6.3 2.9-7.2-6.6zm7.3 3.9c1 0 1.9-1.8 1.8-4.1 0-2.2-.9-4-2-4-1 0-1.9 1.8-1.8 4.1.1 2.2 1 4 2 4z"/><path class="st37" d="M304.4 111.6c0 3.9-.6 5.2.5 5.2s3 4.9 3 1c0-2.7-2.1-9.3 0-12.1.2-.2 0-1.1 0-1.1h-5s-.1 1.2.5 1.5c1.2.6 1 3.6 1 5.5zm-1.5 8.9c0 1.4.8 1.2 1.3 1.2s.9-1.1.9-2.5-.4-2.5-.9-2.5-1.3 2.4-1.3 3.8z"/><path class="st38" d="M247.4 209.9c-3-.2-5.6 2-5.8 5-.2 3 2 5.6 5 5.8 3 .2 5.6-2 5.8-5 .2-3-2-5.6-5-5.8z"/><path class="st39" d="M238.2 209.3c-3-.2-5.6 2-5.8 5l-.1 1.3c-.2 3 2 5.6 5 5.8 3 .2 5.6-2 5.8-5l.1-1.3c.2-3-2-5.6-5-5.8z"/><path class="st43" d="M234 194.2l1.5 11.4 9.9 10 70.8-8.9 6.7-12.4-1.4-11.1z"/><path class="st44" d="M230.4 216.2l2 11.4 10.3 9.7 70.4-10.8 6.2-12.6-1.9-11z"/><path class="st45" d="M230.4 231.2l.1 11.5 8.7 11.1 71.4-.1 8.1-11.5-.1-11.2z"/><path class="st38" d="M302.3 139.8c3.8-.3 7.2 2.6 7.5 6.4.3 3.8-2.6 7.2-6.4 7.5-3.8.3-7.2-2.6-7.5-6.4-.3-3.9 2.6-7.2 6.4-7.5zm3.6-4.2c3-.2 5.6 2 5.8 5 .2 3-2 5.6-5 5.8-3 .2-5.6-2-5.8-5-.2-3 2-5.6 5-5.8z"/><path class="st39" d="M314.5 141c3-.2 5.6 2 5.8 5l.1 1.3c.2 3-2 5.6-5 5.8-3 .2-5.6-2-5.8-5l-.1-1.3c-.2-3 2-5.6 5-5.8z"/><path class="st40" d="M304.6 115.5c.2-1.8 1.7-3.2 3.6-3 1.8.2 3.2 1.7 3 3.6l-.5 5.6c-.2 1.8-1.7 3.2-3.6 3-1.8-.2-3.2-1.8-3-3.6l.5-5.6z"/><path class="st41" d="M299.8 117.7c.5-1.7 2.2-2.6 3.9-2.1 1.7.5 2.6 2.2 2.1 3.9l-1 3.4c-.5 1.7-2.2 2.6-3.9 2.1-1.7-.5-2.6-2.2-2.1-3.9l1-3.4z"/><path class="st42" d="M309.2 136.1c1.1-1.2 3.1-1.3 4.3-.2 1.2 1.1 1.3 3.1.2 4.3l-4.8 5.2c-1.1 1.2-3.1 1.3-4.3.2-1.2-1.1-1.3-3.1-.2-4.3l4.8-5.2z"/><path class="st43" d="M321.3 126l-.7 11.5-9.3 10.6-71.2-4.3-7.5-12.1.7-11.1z"/><path class="st44" d="M322.4 151.2l-2 11.4-10.4 9.7-70.4-10.8-6.1-12.7 1.9-11z"/><path class="st45" d="M322.3 166.1l-.1 11.6-8.6 11.1-71.4-.1-8.1-11.6.1-11.1z"/><path class="st43" d="M247 116.2c0 4.3 2.9 7.9 6.6 7.9h20.1c3.6 0 6.6-3.5 6.6-7.9v-24.1h-33.3v24.1zm5.4 7h22.1v1.8h-22.1zm21.2-16c-1.8-18.6 6.3-11 9.8-11.1 3.6-.1 6.5 4.4 6.6 10 .1 5.6-2.7 10.2-6.3 10.3-3.5.1-8.8 4.3-10.1-9.2zm10.4 5.5c1.5 0 2.6-2.6 2.6-5.8-.1-3.2-1.3-5.7-2.8-5.6-1.5 0-2.6 2.6-2.6 5.8.1 3.1 1.3 5.6 2.8 5.6z"/><path class="st39" d="M270.9 101.9c0 5.4 0 17.2 1.1 17.2s2.4-3.1 2.4-8.5c0-3.7-2.1-13.1 0-17 .2-.3 0-1.5 0-1.5h-5s0 1.7.5 2.1c1.3.8 1 5 1 7.7zm-12.2 5.8c0 1.9.8 1.6 1.3 1.6s.9-1.6.9-3.5-.4-3.5-.9-3.5-1.3 3.4-1.3 5.4z"/><path class="st36" d="M180.5 247.7c0 3.1-2.1 5.6-4.6 5.6h-14.2c-2.6 0-4.6-2.5-4.6-5.6v-17h23.4v17zm-19.5 5h15.6v1.3h-15.6zm-6.5-4.8c-2.5-.1-4.5-3.3-4.4-7.3.1-4 2.2-7.1 4.7-7.1 2.5.1 8.2-5.3 6.9 7.8-.9 9.6-4.6 6.7-7.2 6.6zm1.8-6.6c0-2.2-.8-4-1.8-4.1-1 0-1.9 1.8-2 4 0 2.2.8 4 1.8 4.1 1.1 0 2-1.8 2-4z"/><path class="st37" d="M164.5 237.7c0 3.9.6 5.2-.5 5.2s-3 4.9-3 1c0-2.7 2.1-9.3 0-12.1-.2-.2 0-1 0-1h5s.1 1.2-.5 1.5c-1.2.5-1 3.5-1 5.4z"/><path class="st43" d="M228.2 247.5c0 4.3-2.9 7.9-6.6 7.9h-20.1c-3.6 0-6.6-3.5-6.6-7.9v-24.1h33.2l.1 24.1zm-27.6 7h22.1v1.8h-22.1zm-9.2-6.8c-3.6-.1-6.4-4.7-6.3-10.3.1-5.6 3.1-10.1 6.6-10 3.6.1 11.7-7.5 9.8 11.1-1.2 13.4-6.5 9.3-10.1 9.2zm2.5-9.3c.1-3.1-1.1-5.7-2.6-5.8-1.5 0-2.7 2.5-2.8 5.6-.1 3.1 1.1 5.7 2.6 5.8 1.5 0 2.8-2.5 2.8-5.6z"/><path class="st39" d="M204.2 233.2c0 5.4 0 17.2-1.1 17.2s-2.4-3-2.4-8.5c0-3.7 2.1-13.1 0-17-.2-.3 0-1.5 0-1.5h5s.1 1.7-.5 2.1c-1.2.8-1 5-1 7.7z"/><path class="st46" d="M224.5 233.5c-.4 1-11.1 3.8-12.1 3.1-1-.7-.8-11.9-.8-11.9l8.4-2.1c0-.1 4.8 9.8 4.5 10.9z"/><path class="st47" d="M211.219 222.981l8.337-2.111.417 1.648-8.337 2.111z"/><path class="st36" d="M100.9 265.4c0 3.1-2.1 5.6-4.6 5.6h-14.2c-2.6 0-4.6-2.5-4.6-5.6v-17h23.4v17zm-19.5 5h15.6v1.3h-15.6zm-6.4-4.8c-2.5-.1-4.5-3.3-4.4-7.3.1-4 2.2-7.1 4.7-7.1 2.5.1 8.2-5.3 6.9 7.8-1 9.6-4.7 6.6-7.2 6.6zm1.7-6.6c0-2.2-.8-4-1.8-4.1-1 0-1.9 1.8-2 4 0 2.2.8 4 1.8 4.1 1.1 0 2-1.8 2-4z"/><path class="st37" d="M84.9 255.4c0 3.9.6 5.2-.5 5.2s-3 4.9-3 1c0-2.7 2.1-9.3 0-12.1-.2-.2 0-1.1 0-1.1h5s.1 1.2-.5 1.5c-1.2.6-1 3.6-1 5.5z"/><path class="st43" d="M148.6 265.2c0 4.3-2.9 7.9-6.6 7.9h-20c-3.6 0-6.6-3.5-6.6-7.9v-24.1h33.2v24.1zm-27.6 7h22.1v1.8h-22.1zm-9.2-6.8c-3.6-.1-6.4-4.7-6.3-10.3.1-5.6 3.1-10.1 6.6-10 3.6.1 11.7-7.5 9.8 11.1-1.2 13.4-6.5 9.3-10.1 9.2zm2.5-9.4c.1-3.1-1.1-5.7-2.6-5.8-1.5 0-2.7 2.5-2.8 5.6-.1 3.2 1.1 5.7 2.6 5.8 1.5.1 2.8-2.4 2.8-5.6z"/><path class="st39" d="M124.6 250.9c0 5.4 0 17.2-1.1 17.2s-2.4-3-2.4-8.5c0-3.7 2.1-13.1 0-17-.2-.3 0-1.5 0-1.5h5s.1 1.7-.5 2.1c-1.2.8-1 4.9-1 7.7z"/><path class="st46" d="M144.9 251.1c-.4 1-11.1 3.8-12.1 3.1-1-.7-.8-11.9-.8-11.9l8.4-2.1s4.8 9.9 4.5 10.9z"/><path class="st47" d="M131.623 240.684l8.337-2.111.417 1.648-8.337 2.111z"/><circle class="st48" cx="302" cy="212.1" r="49.6"/><path class="st49" d="M283.4 254.1c-23.2-10.3-33.7-37.5-23.4-60.7 10.3-23.2 37.5-33.7 60.7-23.4 23.2 10.3 33.7 37.5 23.4 60.7-10.4 23.2-37.5 33.7-60.7 23.4z"/><path class="st48" d="M344.201 236.722l4.464-10.054 58.953 26.174-4.464 10.054z"/><path class="st50" d="M311.4 221.4c-.1-.7-.2-1.4-.4-2-1.3-4.3-5.6-5.7-9.6-3.4-3.4 2-5.1 6-5.1 10l3.8-4.1c1.4-1.5 3.4-1.6 4.9-.7 1.8-.4 3.6-.5 5.4 0 .4 0 .7.1 1 .2zm25.5 7.7c3.1-7 1.8-13.5-1.9-19.8-3.2 3.3-6.9 5.7-11.6 6-5.2.3-5.5-7.8-.3-8.1 1.5-.1 2.8-.7 3.9-1.6-.6-.7-1.2-1.4-2-1.8-3.3-1.7-2.4-5.7 0-7.2l-2.8-2.9c-2.3 3.4-6.1 3.1-8.9.4-1.3-1.3-1.5-2.8-1-4.2l-.1-.1c-2.1-1.9-3-4.5-4.3-6.9-.4-.7-.6-1.4-.5-2.1-6.4-2.9-3.5 7.9-7.9 15.2-2.1 3.4-9.4 4.6-15.9 5.1 0 .3-.1.6-.2 1l-4.2 10.5c-.9 2.7-4.4 4.4-6.7 2.1-2.9-2.9-4.6-6.5-6.1-10.2-9.1 11.2 16.1 47.5 27.9 36.8l.6-.5c-10-8.5-8.6-29 5.1-33.1 7.6-2.3 16.1-.1 18.6 8.3 1.2 4 1.1 8.1 0 12 .6 1.2 1 2.6 1.4 4 .1.6.1 1.2 0 1.7 7.7 1.1 13.6 2.8 16.9-4.6z"/><path class="st7" d="M285.8 191.2c-3-1.4-5.4-4-4.7-5.6.7-1.6 1.4-3.7 4.5-2.4 3 1.3 10.5 9 8.9 8.4-5-1.7-5.7 1-8.7-.4zm8-4.3c-1.5-.6-.5-2.5-.2-3.3.3-.8 1.8-.9 3.3-.2 1.5.6 2.1 4.2 1.7 5-.4.7-3.4-.8-4.8-1.5z"/><path class="st51" d="M321.9 185.2c-.5-1.3.2-2.7 1.5-3.1 1.3-.5 2.7.2 3.1 1.5l1.9 5.2c.5 1.3-.2 2.7-1.5 3.1-1.3.5-2.7-.2-3.1-1.5l-1.9-5.2zm10-.7c-.9.1-1.5.9-1.5 1.8.1.9.9 1.5 1.8 1.5l3.2-.3c.9-.1 1.5-.9 1.5-1.8-.1-.9-.9-1.5-1.8-1.4l-3.2.2zm-15.2-3.4c-1-.5-1.5-1.6-1-2.7l.9-2c.5-1 1.6-1.5 2.7-1 1 .5 1.5 1.6 1 2.7l-.9 2c-.5 1-1.7 1.4-2.7 1zm-46.3 20.3c-.7-.8-.6-2 .2-2.7.8-.7 2-.6 2.7.2l2.8 3.3c.7.8.6 2-.2 2.7-.8.7-2 .6-2.7-.2l-2.8-3.3zm7.1-3.3c-.6.3-.9 1.1-.6 1.7.3.6 1.1.9 1.7.6l2.2-1.1c.6-.3.9-1.1.6-1.7-.3-.6-1.1-.9-1.7-.6l-2.2 1.1zm-12 1.6c-.9-.1-1.5-.8-1.5-1.7l.1-1.7c.1-.9.8-1.5 1.7-1.5.9.1 1.5.8 1.5 1.7l-.1 1.7c-.1.9-.8 1.6-1.7 1.5z"/><circle class="st48" cx="772.1" cy="216.1" r="50"/><path class="st49" d="M754.1 173.4c23.6-10 50.8 1.1 60.8 24.6 10 23.6-1.1 50.8-24.6 60.7-23.6 10-50.8-1.1-60.8-24.6-10.1-23.5 1-50.7 24.6-60.7z"/><path class="st48" d="M669.3 265.6l-4.3-10.2 59.8-25.3 4.4 10.2z"/><path class="st43" d="M832.7 257c0 4.4-3 7.9-6.6 7.9h-20.2c-3.7 0-6.6-3.6-6.6-7.9v-24.3h33.5l-.1 24.3zm-27.8 7.1h22.3v1.8h-22.3zm-9.3-6.8c-3.6-.1-6.4-4.7-6.3-10.4.1-5.7 3.1-10.2 6.7-10.1 3.6.1 11.8-7.5 9.9 11.2-1.4 13.5-6.7 9.3-10.3 9.3zm2.5-9.5c.1-3.2-1.1-5.8-2.6-5.8s-2.7 2.5-2.8 5.7c-.1 3.2 1.1 5.8 2.6 5.8s2.8-2.5 2.8-5.7z"/><path class="st35" d="M752.4 263.7c0 3-2 5.5-4.6 5.5h-13.9c-2.5 0-4.6-2.4-4.6-5.5v-16.7h23v16.7zm-19.1 4.9h15.4v1.3h-15.4zm-6.4-4.7c-2.5-.1-4.4-3.3-4.4-7.2.1-3.9 2.1-7 4.6-7 2.5.1 8.1-5.2 6.8 7.7-.9 9.4-4.5 6.5-7 6.5zm1.7-6.5c0-2.2-.8-4-1.8-4s-1.9 1.7-1.9 3.9.8 4 1.8 4 1.9-1.7 1.9-3.9z"/><path class="st36" d="M787.4 263.7c0 3.1-2.1 5.6-4.7 5.6h-14.3c-2.6 0-4.7-2.5-4.7-5.6v-17.2h23.6l.1 17.2zm-19.7 4.9h15.7v1.3h-15.7zm-6.5-4.8c-2.5-.1-4.5-3.3-4.5-7.3.1-4 2.2-7.2 4.7-7.1 2.5.1 8.3-5.3 7 7.9-.9 9.5-4.6 6.6-7.2 6.5zm1.8-6.6c0-2.2-.8-4.1-1.8-4.1-1.1 0-1.9 1.8-2 4 0 2.2.8 4.1 1.8 4.1 1.1 0 2-1.8 2-4z"/><path class="st43" d="M914.4 265.8h-11.6l-11.2-8.3v-69.5l11.6-7.9h11.2z"/><path class="st44" d="M887.4 265.8l-11.7.1-11.3-8.3-.7-69.4 11.5-8.1 11.3-.1z"/><path class="st45" d="M861.1 265.8l-11.7.1-11.3-8.3-.6-69.4 11.6-8.1 11.2-.1z"/><path class="st52" d="M849.1 180.1h2.5v85.7h-2.5zm26.1 0h2.6v85.6h-2.6zm28 0h2.2v85.1h-2.2zm-159.1 68.2h3.3v18.3h-3.3zm34.5.4h3.5v17.9h-3.5zm41.8-13.4h6.8v25.5h-6.8z"/><path class="st7" d="M794.2 224.2l6.2 8.1 4.9-1.9-1.9 3.8 6.8 6.5-9.2-4.6-2.2 5.7.7-6.5h-2.5l2-2.5zm77.4-41.3l4.6 9 5.1-.8-2.6 3.3 5.4 7.8-8.2-6.4-3.2 5.2 2-6.3-2.5-.5 2.5-2z"/><path class="st43" d="M998.9 265.5h-11.6l-11.3-8.4v-69.4l11.7-8h11.2z"/><path class="st44" d="M971.9 265.4l-11.7.2-11.3-8.3-.7-69.4 11.5-8.1 11.3-.1z"/><path class="st45" d="M945.6 265.5l-11.7.1-11.3-8.3-.6-69.4 11.6-8.1 11.2-.1z"/><path class="st52" d="M933.6 179.8h2.5v85.7h-2.5zm26.1 0h2.6v85.6h-2.6zm28-.1h2.2v85.1h-2.2z"/><path class="st7" d="M956.1 182.5l4.6 9.1 5-.8-2.5 3.3 5.4 7.8-8.2-6.4-3.2 5.2 2-6.3-2.5-.5 2.4-2z"/><path class="st6" d="M-11.7 124.3h90.8v33h-90.8z"/><path class="st53" d="M8.3 138.1v-5.6h-4.3v5.6h-2.4v-12.8h2.4v5.1h4.3v-5.1h2.4v12.8h-2.4zm11.7 0l-.7-2.5h-4.5l-.7 2.5h-2.4l3.8-12.8h3.4l3.8 12.8h-2.7zm-2.9-10.4l-1.7 5.9h3.3l-1.6-5.9zm13.2 10.4v-4.9h-2.2c-.9 0-1.6-.1-2.2-.3s-1.1-.5-1.4-.9-.6-.9-.8-1.4-.3-1.2-.3-2v-3.3h2.4v3.1c0 .5 0 .9.1 1.2s.2.6.4.9.4.4.7.5.7.2 1.1.2h2.2v-5.9h2.4v12.8h-2.4zm11.7 0l-.7-2.5h-4.5l-.7 2.5h-2.4l3.8-12.8h3.4l3.8 12.8h-2.7zm-2.9-10.4l-1.7 5.9h3.3l-1.6-5.9zm5.8 8.2h.5s.3-.1.5-.2.3-.3.4-.5.3-.5.4-.8.2-.8.3-1.3.2-1.1.3-1.9.2-1.6.2-2.6.1-2.1.1-3.4h7v12.8h-2.4v-10.6h-2.3c-.1 1.7-.2 3.1-.3 4.3s-.3 2.2-.5 3-.4 1.5-.7 2-.6.8-1 1.1-.8.3-1.2.4-.9-.1-1.4-.2l.1-2.1zm21.4-4.3c0 1.2-.1 2.2-.4 3s-.6 1.5-1.1 2.1-1 .9-1.7 1.2-1.3.4-2 .4c-1.7 0-2.9-.6-3.8-1.7s-1.3-2.7-1.3-4.9c0-1.2.1-2.2.4-3s.6-1.5 1.1-2.1 1-.9 1.7-1.2 1.3-.4 2-.4c1.7 0 2.9.6 3.8 1.7s1.3 2.8 1.3 4.9zm-2.5.2c0-1.5-.2-2.6-.6-3.4s-1.1-1.1-2-1.1c-.5 0-.9.1-1.2.3s-.6.5-.8.8-.4.8-.5 1.4-.1 1.2-.1 1.9c0 1.5.2 2.6.6 3.4s1.1 1.1 2 1.1c.5 0 .9-.1 1.2-.3s.6-.5.8-.8.4-.8.5-1.4.1-1.2.1-1.9z"/><path class="st6" d="M60.7 174.7h31"/><path class="st54" d="M56.7 194l34.5-19.9-34.5-20z"/><path class="st55" d="M2.2 164.2h67v22h-67z"/><path class="st6" d="M1079.7 176.7h30"/><path class="st56" d="M1075.7 196l34.5-19.9-34.5-20z"/><path class="st57" d="M1020.2 166.2h68v22h-68z"/><path class="st6" d="M0 198.3h77.5v48.3h-77.5z"/><path d="M8.3 201h-4.6v9.1h-2v-10.9h6.7v1.8zm9.8 4.7c0 .8-.1 1.4-.3 2-.2.6-.5 1-.9 1.4-.4.4-.9.6-1.4.8s-1.1.3-1.7.3h-.6l-.6-.1v3.3h-2v-11.7h1.8l.1 1.2c.2-.2.4-.4.5-.6l.6-.5c.2-.1.4-.2.7-.3s.5-.1.8-.1c.5 0 .9.1 1.3.3.4.2.7.5 1 .9.3.4.5.8.6 1.3 0 .5.1 1.1.1 1.8zm-2.1.1c0-.5 0-.9-.1-1.2-.1-.3-.2-.6-.3-.8-.1-.2-.3-.4-.5-.5-.2-.1-.4-.1-.6-.1-.3 0-.7.1-1 .4-.3.3-.6.7-1 1.1v3.7c.2.1.4.1.6.1l.7.1c.3 0 .6-.1.9-.2.3-.1.5-.3.7-.6.2-.2.3-.5.4-.9s.2-.7.2-1.1zm4.4 1.9c.2-.4.4-.7.6-.9s.5-.3.8-.3c-.3 0-.5-.1-.8-.2-.2-.1-.4-.3-.6-.5-.2-.2-.3-.4-.4-.6-.1-.2-.1-.5-.1-.8 0-.5.1-.9.3-1.3.2-.4.4-.6.8-.9.4-.2.8-.4 1.3-.5.5-.1 1.1-.2 1.8-.2h1.5s1 .1 1.4.1v8.4h-2v-3h-.8c-.2 0-.5 0-.7.1-.2 0-.4.1-.5.2-.2.1-.3.2-.4.3-.1.1-.2.3-.3.5l-.7 2h-2.3l1.1-2.4zm1.6-3.4c0 .2 0 .4.1.6.1.2.2.3.4.4s.4.2.7.2.6.1.9.1h.9v-2.6h-1c-.8 0-1.3.1-1.6.3s-.4.5-.4 1zm6.9 4c.5.1 1 .2 1.6.3.6.1 1.1.1 1.6.1s.9 0 1.1-.1c.2-.1.5-.1.6-.3.2-.1.3-.2.4-.4s.1-.3.1-.5 0-.3-.1-.5-.2-.2-.4-.3c-.2-.1-.4-.2-.7-.2-.3-.1-.7-.1-1.1-.1h-2.2v-1.3h2.2c.5 0 .9 0 1.1-.1l.6-.2.3-.3c.1-.1.1-.3.1-.4 0-.1 0-.3-.1-.4l-.3-.3-.6-.2c-.3 0-.6-.1-1-.1s-.8 0-1.3.1-1 .1-1.5.3v-1.6l1.5-.2c.5-.1 1-.1 1.6-.1 1.3 0 2.3.2 3 .6.6.4.9.9.9 1.6 0 .2 0 .4-.1.6-.1.2-.2.4-.3.5l-.5.5s-.4.2-.7.3c.3 0 .5.1.8.2.2.1.5.2.6.4.2.2.3.4.4.6.1.2.2.5.2.8 0 .9-.4 1.6-1.1 2-.7.5-1.9.7-3.4.7-.5 0-1 0-1.5-.1l-1.6-.2-.2-1.7zm14.8 1.8v-3.6h-3.3v3.6h-2v-8.4h2v3.2h3.3v-3.2h2v8.4h-2zm9.5 0v-1.1c-.2.2-.4.4-.6.5-.2.2-.4.3-.6.4-.2.1-.5.2-.8.3-.3.1-.6.1-.9.1-.4 0-.8-.1-1.1-.2s-.6-.3-.8-.5-.4-.5-.5-.8c-.1-.3-.2-.7-.2-1.1 0-.4.1-.8.3-1.1s.4-.6.8-.9c.3-.2.8-.4 1.3-.6.5-.1 1.1-.2 1.8-.2h1.1v-.5c0-.2 0-.4-.1-.6-.1-.2-.2-.3-.3-.4-.1-.1-.3-.2-.5-.3s-.5-.1-.8-.1c-.5 0-1 .1-1.5.2s-1 .3-1.4.5v-1.7c.4-.2.9-.3 1.4-.4.5-.1 1.1-.2 1.6-.2.6 0 1.2.1 1.6.2s.8.3 1.1.5c.3.2.5.5.6.9.1.4.2.8.2 1.2v5.8l-1.7.1zm-.3-3.8h-1.2c-.3 0-.6 0-.9.1l-.6.3s-.3.3-.3.4-.1.3-.1.5c0 .3.1.6.3.8s.5.3.9.3c.3 0 .6-.1.9-.3.3-.2.6-.5 1-.9v-1.2zm4.8 1.4c.2-.4.4-.7.6-.9s.5-.3.8-.3c-.3 0-.5-.1-.8-.2-.2-.1-.4-.3-.6-.5-.2-.2-.3-.4-.4-.6-.1-.2-.1-.5-.1-.8 0-.5.1-.9.3-1.3.2-.4.4-.6.8-.9.4-.2.8-.4 1.3-.5.5-.1 1.1-.2 1.8-.2h1.5s1 .1 1.4.1v8.4h-2v-3h-.8c-.2 0-.5 0-.7.1-.2 0-.4.1-.5.2-.2.1-.3.2-.4.3-.1.1-.2.3-.3.5l-.7 2h-2.3l1.1-2.4zm1.7-3.4c0 .2 0 .4.1.6.1.2.2.3.4.4s.4.2.7.2.6.1.9.1h.9v-2.6h-1c-.8 0-1.3.1-1.6.3s-.4.5-.4 1zm-53.1 26.2v-6.7h-3.3v6.7h-2v-8.5h7.3v8.4h-2zm11.8-4.3c0 .7-.1 1.3-.3 1.8s-.5 1-.8 1.4-.8.7-1.3.9-1.1.3-1.8.3c-.6 0-1.2-.1-1.7-.3s-.9-.5-1.3-.8-.6-.8-.8-1.4-.3-1.2-.3-1.9.1-1.3.3-1.8c.2-.5.5-1 .8-1.4.4-.4.8-.7 1.3-.9s1.1-.3 1.7-.3c.6 0 1.2.1 1.7.3s.9.5 1.3.8.6.8.8 1.4c.3.5.4 1.2.4 1.9zm-2.1 0c0-.9-.2-1.5-.5-2-.3-.4-.8-.7-1.5-.7-.4 0-.7.1-.9.2s-.5.3-.6.6c-.2.2-.3.5-.4.8-.1.3-.1.7-.1 1 0 .9.2 1.5.5 2s.8.7 1.5.7c.3 0 .6-.1.9-.2s.5-.3.6-.6c.2-.2.3-.5.3-.9.1-.2.2-.5.2-.9zm10.7 3.9c-.4.2-.8.3-1.2.4s-.9.1-1.3.1c-.7 0-1.3-.1-1.8-.3-.5-.2-1-.5-1.4-.8s-.7-.8-.9-1.3-.3-1.1-.3-1.8.1-1.3.3-1.8c.2-.5.5-1 .9-1.4s.9-.7 1.4-.9c.5-.2 1.2-.3 1.8-.3.5 0 1 0 1.4.1.4.1.7.1 1 .2v2c-.3-.2-.7-.3-1.1-.4-.4-.1-.8-.1-1.1-.1-.4 0-.7.1-1 .2s-.6.3-.8.5-.4.5-.5.8c-.1.3-.2.7-.2 1.1 0 .4.1.8.2 1.1.1.3.3.6.5.8s.5.4.8.5.6.2 1 .2h.6l.6-.1c.2 0 .4-.1.6-.2.2-.1.4-.1.5-.2v1.6zm7.6-.6c-.3.7-.6 1.4-.9 1.9s-.7 1-1 1.4-.8.6-1.3.8c-.5.2-1 .3-1.6.3h-.5c-.2 0-.3 0-.5-.1v-1.7h1.1c.2 0 .4 0 .6-.1.2-.1.4-.2.6-.4.2-.2.3-.3.5-.6s.3-.5.4-.7l-3.3-8.4h2.3l1.8 4.8.5 1.5.5-1.5 1.5-4.7h2.2l-2.9 7.5zm12.3-.7l-.1 3.8h-1.9v-2.1h-5.1v2.1h-1.9l-.1-3.8h.2c.2 0 .4 0 .6-.1l.5-.3s.3-.4.4-.7c.1-.3.2-.7.3-1.2s.2-1.1.3-1.8c.1-.7.1-1.6.2-2.5h5.7v6.7l.9-.1zm-2.9-5.1h-1.9c-.1.7-.1 1.4-.2 1.9s-.1 1-.2 1.4-.2.7-.3 1c-.1.3-.3.5-.4.7h3v-5zm9.5 6.8v-1.1c-.2.2-.4.4-.6.5-.2.2-.4.3-.6.4-.2.1-.5.2-.8.3-.3.1-.6.1-.9.1-.4 0-.8-.1-1.1-.2s-.6-.3-.8-.5-.4-.5-.5-.8c-.1-.3-.2-.7-.2-1.1 0-.4.1-.8.3-1.1s.4-.6.8-.9c.3-.2.8-.4 1.3-.6.5-.1 1.1-.2 1.8-.2h1.1v-.5c0-.2 0-.4-.1-.6-.1-.2-.2-.3-.3-.4-.1-.1-.3-.2-.5-.3s-.5-.1-.8-.1c-.5 0-1 .1-1.5.2s-1 .3-1.4.5v-1.6c.4-.2.9-.3 1.4-.4.5-.1 1.1-.2 1.6-.2.6 0 1.2.1 1.6.2s.8.3 1.1.5c.3.2.5.5.6.9.1.4.2.8.2 1.2v5.8h-1.7zm-.3-3.8h-1.2c-.3 0-.6 0-.9.1l-.6.3s-.3.3-.3.4-.1.3-.1.5c0 .3.1.6.3.8s.5.3.9.3c.3 0 .6-.1.9-.3.3-.2.6-.5 1-.9v-1.2z"/><path class="st6" d="M1022 200h93.7v78.3h-93.7z"/><path class="st5" d="M1028.5 211.7v-4.2h-1.8c-.7 0-1.3-.1-1.8-.3s-.9-.4-1.2-.8c-.3-.3-.5-.7-.7-1.2s-.2-1-.2-1.7v-2.8h2.1v2.6c0 .4 0 .8.1 1 .1.3.2.5.3.7.2.2.4.3.6.4s.6.2 1 .2h1.8v-5h2.1v10.9h-2.3zm9.2 0v-5.3l-3.3 5.3h-1.9v-8.4h2v5.3l3.3-5.3h1.9v8.4h-2zm11-.3c-.4.2-.8.3-1.2.4s-.9.1-1.3.1c-.7 0-1.3-.1-1.8-.3-.5-.2-1-.5-1.4-.8s-.7-.8-.9-1.3-.3-1.1-.3-1.8.1-1.3.3-1.8c.2-.5.5-1 .9-1.4s.9-.7 1.4-.9 1.2-.3 1.8-.3c.5 0 1 0 1.4.1.4.1.7.1 1 .2v2c-.3-.2-.7-.3-1.1-.4s-.8-.1-1.1-.1c-.4 0-.7.1-1 .2s-.6.3-.8.5c-.2.2-.4.5-.5.8-.1.3-.2.7-.2 1.1 0 .4.1.8.2 1.1.1.3.3.6.5.8s.5.4.8.5.6.2 1 .2h.6l.6-.1s.4-.1.6-.2c.2-.1.4-.1.5-.2v1.6zm7-6.4v6.7h-2.1v-6.7h-2.9v-1.7h7.9v1.7h-2.9zm10.1 6.7l-.1-1.1c-.2.2-.4.4-.6.5-.2.2-.4.3-.6.4-.2.1-.5.2-.8.3-.3.1-.6.1-.9.1-.4 0-.8-.1-1.1-.2-.3-.1-.6-.3-.8-.5s-.4-.5-.5-.8c-.1-.3-.2-.7-.2-1.1 0-.4.1-.8.3-1.1s.4-.6.8-.9c.3-.2.8-.4 1.3-.6s1.1-.2 1.8-.2h1.1v-.5c0-.2 0-.4-.1-.6-.1-.2-.2-.3-.3-.4s-.3-.2-.5-.3c-.2-.1-.5-.1-.8-.1-.5 0-1 .1-1.5.2s-1 .3-1.4.5v-1.6c.4-.2.9-.3 1.4-.4.5-.1 1.1-.2 1.6-.2.6 0 1.2.1 1.6.2.4.1.8.3 1.1.5.3.2.5.5.6.9.1.4.2.8.2 1.2v5.8h-1.6zm-.3-3.7h-1.2c-.3 0-.6 0-.9.1l-.6.3c-.1.1-.3.3-.3.4s-.1.3-.1.5c0 .3.1.6.3.8.2.2.5.3.9.3.3 0 .6-.1.9-.3.3-.2.6-.5 1-.9v-1.2zm4.9 1.3c.2-.4.4-.7.6-.9s.5-.3.8-.3c-.3 0-.5-.1-.8-.2s-.4-.3-.6-.5c-.2-.2-.3-.4-.4-.6-.1-.2-.1-.5-.1-.8 0-.5.1-.9.3-1.3.2-.4.4-.6.8-.9.4-.2.8-.4 1.3-.5s1.1-.2 1.8-.2h1.5s1 .1 1.4.1v8.4h-2v-3.1h-.8c-.2 0-.5 0-.7.1-.2 0-.4.1-.5.2-.2.1-.3.2-.4.3s-.2.3-.3.5l-.7 2h-2.3l1.1-2.3zm1.6-3.4c0 .2 0 .4.1.6.1.2.2.3.4.4s.4.2.7.2l.9.1h.9v-2.4h-1c-.8 0-1.3.1-1.6.3s-.4.4-.4.8zm-43.7 26.2v-6.7h-3.3v6.7h-2v-8.4h7.3v8.4h-2zm11.8-4.3c0 .7-.1 1.3-.3 1.8s-.5 1-.8 1.4-.8.7-1.3.9c-.5.2-1.1.3-1.8.3-.6 0-1.2-.1-1.7-.3-.5-.2-.9-.5-1.3-.8s-.6-.8-.8-1.4c-.2-.5-.3-1.2-.3-1.9s.1-1.3.3-1.8c.2-.5.5-1 .8-1.4.4-.4.8-.7 1.3-.9.5-.2 1.1-.3 1.7-.3.6 0 1.2.1 1.7.3s.9.5 1.3.8c.3.4.6.8.8 1.4.3.6.4 1.2.4 1.9zm-2.1.1c0-.9-.2-1.5-.5-2-.3-.4-.8-.7-1.5-.7-.4 0-.7.1-.9.2s-.5.3-.6.6c-.2.2-.3.5-.4.8-.1.3-.1.7-.1 1 0 .9.2 1.5.5 2s.8.7 1.5.7c.3 0 .6-.1.9-.2.3-.1.5-.3.6-.6.2-.2.3-.5.3-.9.1-.2.2-.5.2-.9zm10.7 3.9c-.4.2-.8.3-1.2.4s-.9.1-1.3.1c-.7 0-1.3-.1-1.8-.3-.5-.2-1-.5-1.4-.8s-.7-.8-.9-1.3-.3-1.1-.3-1.8.1-1.3.3-1.8c.2-.5.5-1 .9-1.4s.9-.7 1.4-.9 1.2-.3 1.8-.3c.5 0 1 0 1.4.1.4.1.7.1 1 .2v2c-.3-.2-.7-.3-1.1-.4s-.8-.1-1.1-.1c-.4 0-.7.1-1 .2s-.6.3-.8.5c-.2.2-.4.5-.5.8-.1.3-.2.7-.2 1.1 0 .4.1.8.2 1.1.1.3.3.6.5.8s.5.4.8.5.6.2 1 .2h.6l.6-.1s.4-.1.6-.2c.2-.1.4-.1.5-.2v1.6zm7.6-.6c-.3.7-.6 1.4-.9 1.9s-.7 1-1.1 1.4c-.4.4-.8.6-1.3.8s-1 .3-1.6.3h-.5s-.3 0-.5-.1v-1.7h1.1c.2 0 .4 0 .6-.1.2-.1.4-.2.6-.4.2-.2.3-.3.5-.6s.3-.5.4-.7l-3.3-8.4h2.3l1.8 4.8.5 1.5.5-1.5 1.8-4.8h2.2l-3.1 7.6zm12.3-.8l-.1 3.8h-1.9v-2.1h-5.1v2.1h-1.9l-.1-3.8h.2c.2 0 .4 0 .6-.1s.3-.2.5-.3.3-.4.4-.7c.1-.3.2-.7.3-1.2s.2-1.1.3-1.8.1-1.6.2-2.5h5.7v6.7l.9-.1zm-2.9-5h-1.9c-.1.7-.1 1.4-.2 1.9-.1.6-.1 1-.2 1.4-.1.4-.2.7-.3 1-.1.3-.3.5-.4.7h3v-5zm9.5 6.7l-.1-1.1c-.2.2-.4.4-.6.5-.2.2-.4.3-.6.4-.2.1-.5.2-.8.3-.3.1-.6.1-.9.1-.4 0-.8-.1-1.1-.2-.3-.1-.6-.3-.8-.5s-.4-.5-.5-.8c-.1-.3-.2-.7-.2-1.1 0-.4.1-.8.3-1.1s.4-.6.8-.9c.3-.2.8-.4 1.3-.6s1.1-.2 1.8-.2h1.1v-.5c0-.2 0-.4-.1-.6-.1-.2-.2-.3-.3-.4s-.3-.2-.5-.3c-.2-.1-.5-.1-.8-.1-.5 0-1 .1-1.5.2s-1 .3-1.4.5v-1.6c.4-.2.9-.3 1.4-.4.5-.1 1.1-.2 1.6-.2.6 0 1.2.1 1.6.2.4.1.8.3 1.1.5.3.2.5.5.6.9.1.4.2.8.2 1.2v5.8h-1.6zm-.3-3.7h-1.2c-.3 0-.6 0-.9.1l-.6.3c-.2.1-.3.3-.3.4s-.1.3-.1.5c0 .3.1.6.3.8.2.2.5.3.9.3.3 0 .6-.1.9-.3.3-.2.6-.5 1-.9v-1.2z"/><path class="st6" d="M991.9 119.2h129.6v47.1h-129.6z"/><path class="st5" d="M1028.8 138.5l-5.4-8.6v8.6h-3.4v-17.9h3.4v8.1l5.3-8.1h4.1l-6.1 8.5 6.4 9.4h-4.3zm19.7-9c0 1.6-.2 3-.6 4.2-.4 1.2-.9 2.1-1.6 2.9-.7.8-1.4 1.3-2.3 1.7s-1.8.5-2.8.5c-2.4 0-4.1-.8-5.3-2.3-1.2-1.6-1.8-3.8-1.8-6.8 0-1.6.2-3 .6-4.2.4-1.2.9-2.1 1.6-2.9.7-.8 1.4-1.3 2.3-1.7s1.8-.5 2.9-.5c2.4 0 4.1.8 5.3 2.3 1.1 1.5 1.7 3.8 1.7 6.8zm-3.5.2c0-2.1-.3-3.7-.8-4.7-.6-1-1.5-1.6-2.8-1.6-.6 0-1.2.1-1.7.4-.5.3-.8.7-1.1 1.2-.3.5-.5 1.2-.6 1.9s-.2 1.6-.2 2.6c0 2.1.3 3.7.9 4.7.6 1 1.5 1.6 2.8 1.6.6 0 1.2-.1 1.7-.4.5-.3.8-.7 1.1-1.2.3-.5.5-1.2.6-1.9s.1-1.7.1-2.6zm14.8 8.8v-7.8h-6.1v7.8h-3.4v-17.9h3.4v7.2h6.1v-7.2h3.4v17.9h-3.4zm7.1 0v-17.9h10.8v2.8h-7.3v4.4h7v2.8h-7v5h7.3v2.8l-10.8.1zm28.2-2.9l-.2 6.8h-3.1v-3.9h-10.8v-17.9h3.4v14.9h5.7v-14.9h3.4v14.9l1.6.1z"/></svg>