<svg xmlns="http://www.w3.org/2000/svg" viewBox="0 0 974.2 434" enable-background="new 0 0 974.2 434"><style type="text/css">.st0{fill:#ED1C24;} .st1{fill:#E6E7E8;} .st2{fill:none;} .st3{fill:#FFFFFF;} .st4{fill:#AFC636;} .st5{fill:#FCB116;} .st6{fill:url(#SVGID_1_);} .st7{fill:url(#SVGID_2_);} .st8{fill:url(#SVGID_3_);} .st9{fill:url(#SVGID_4_);} .st10{fill:url(#SVGID_5_);} .st11{fill:url(#SVGID_6_);}</style><path class="st0" d="M623.1 326h-396.3v-137.1h396.6l65.6 64z"/><path class="st1" d="M357.3 109h159v45.1h-159z"/><path class="st2" d="M366.1 114.3h140.7v50.1h-140.7z"/><path d="M384.6 120.5c0 1-.1 1.8-.3 2.5-.2.7-.5 1.3-.9 1.8s-.8.8-1.4 1c-.5.2-1.1.3-1.7.3-.7 0-1.3-.1-1.8-.4-.5-.3-.9-.6-1.3-1.1-.3-.5-.6-1.1-.8-1.7s-.2-1.5-.2-2.3c0-1 .1-1.8.3-2.5.2-.7.5-1.3.9-1.8s.8-.8 1.4-1c.5-.2 1.1-.3 1.7-.3.7 0 1.3.1 1.8.4.5.3.9.6 1.3 1.1.3.5.6 1.1.8 1.7.1.7.2 1.4.2 2.3zm-1.6.1c0-.6 0-1.2-.1-1.7s-.3-1-.5-1.4-.5-.7-.8-.9c-.3-.2-.8-.3-1.2-.3-.5 0-.9.1-1.2.3-.3.2-.6.5-.8.9s-.4.8-.5 1.4-.2 1.1-.2 1.6c0 .6 0 1.2.1 1.8s.3 1 .5 1.4c.2.4.5.7.8.9.3.2.7.3 1.2.3s.9-.1 1.2-.3c.3-.2.6-.5.8-.9.2-.4.4-.8.5-1.3s.2-1.2.2-1.8zm10.6-1.7h-3.2v7.1h-1.4v-7.1h-3.2v-1.2h7.8v1.2zm9.3 4.7c0 .4-.1.7-.2 1-.2.3-.4.6-.7.8-.3.2-.8.4-1.3.5-.5.1-1.1.2-1.8.2-.5 0-1 0-1.5-.1s-1-.1-1.5-.1v-8.2c.5-.1 1-.1 1.6-.1.5 0 1.1-.1 1.7-.1 1.1 0 2 .2 2.6.6.6.4.9.9.9 1.6 0 .5-.1.9-.4 1.2s-.7.6-1.2.7c.3 0 .5.1.8.2.2.1.5.2.7.4s.3.4.5.6c-.3.2-.2.5-.2.8zm-1.9-3.7c0-.2 0-.4-.1-.5s-.2-.3-.4-.4c-.2-.1-.4-.2-.7-.3-.3-.1-.6-.1-1-.1h-.9s-.5 0-.8.1v2.4h1.7c1.5.1 2.2-.3 2.2-1.2zm.3 3.7c0-.4-.2-.8-.6-1-.4-.2-1-.3-1.8-.3h-1.8v2.5l.8.1h.9c.5 0 .9 0 1.2-.1.3-.1.6-.2.8-.3.2-.1.3-.3.4-.4s.1-.3.1-.5zm10.8-2.2v.9h-5.9c0 .9.2 1.5.7 2 .5.5 1.2.7 2.1.7h.7s.5 0 .7-.1.4-.1.7-.1l.6-.1v1.2c-.4.1-.8.2-1.3.3-.5.1-1 .1-1.5.1-.7 0-1.3-.1-1.8-.3-.5-.2-.9-.5-1.3-.8-.3-.4-.6-.8-.7-1.4-.2-.5-.2-1.1-.2-1.8 0-.6.1-1.1.3-1.7.2-.5.4-1 .7-1.4.3-.4.7-.7 1.2-.9s1-.3 1.6-.3c.6 0 1.1.1 1.5.3.4.2.8.4 1.1.8s.5.7.7 1.2c0 .3.1.8.1 1.4zm-1.5-.2c0-.4 0-.7-.1-1-.1-.3-.2-.6-.4-.8s-.4-.4-.7-.5c-.3-.1-.6-.2-1-.2-.3 0-.6.1-.9.2-.3.1-.5.3-.7.5-.2.2-.3.5-.5.8-.1.3-.2.7-.2 1h4.5zm11-2.3h-3.2v7.1h-1.4v-7.1h-3.2v-1.2h7.8v1.2zm8.6 6.8c-.4.1-.8.3-1.2.3s-.8.1-1.2.1c-1.3 0-2.3-.4-3-1.1-.7-.7-1.1-1.8-1.1-3.1 0-.7.1-1.3.3-1.8s.5-1 .9-1.4.8-.7 1.3-.9c.5-.2 1.1-.3 1.7-.3.4 0 .8 0 1.2.1l1.1.3v1.4c-.4-.2-.7-.3-1.1-.4-.4-.1-.8-.1-1.2-.1-.4 0-.7.1-1 .2-.3.1-.6.3-.9.6s-.4.6-.6 1-.2.8-.2 1.3c0 1 .2 1.8.7 2.3.5.5 1.2.8 2 .8.4 0 .8 0 1.1-.1.4-.1.7-.2 1.1-.4l.1 1.2zm10.1-6.8h-3.2v7.1h-1.5v-7.1h-3.2v-1.2h7.8l.1 1.2zm9.3 4.7c0 .4-.1.7-.2 1-.2.3-.4.6-.7.8-.3.2-.8.4-1.3.5-.5.1-1.1.2-1.8.2-.5 0-1 0-1.5-.1s-1-.1-1.5-.1v-8.2c.5-.1 1-.1 1.6-.1.5 0 1.1-.1 1.7-.1 1.1 0 2 .2 2.6.6.6.4.9.9.9 1.6 0 .5-.1.9-.4 1.2s-.7.6-1.2.7c.3 0 .5.1.8.2.2.1.5.2.7.4s.3.4.5.6c-.3.2-.2.5-.2.8zm-1.9-3.7c0-.2 0-.4-.1-.5s-.2-.3-.4-.4c-.2-.1-.4-.2-.7-.3-.3-.1-.6-.1-1-.1h-.9s-.5 0-.8.1v2.4h1.7c1.5.1 2.2-.3 2.2-1.2zm.4 3.7c0-.4-.2-.8-.6-1-.4-.2-1-.3-1.8-.3h-1.8v2.5l.8.1h.9c.5 0 .9 0 1.2-.1.3-.1.6-.2.8-.3.2-.1.3-.3.4-.4s.1-.3.1-.5zm10.7-2.2v.9h-5.9c0 .9.2 1.5.7 2 .5.5 1.2.7 2.1.7h.7s.5 0 .7-.1.4-.1.7-.1l.6-.1v1.2c-.4.1-.8.2-1.3.3-.5.1-1 .1-1.5.1-.7 0-1.3-.1-1.8-.3-.5-.2-.9-.5-1.3-.8-.3-.4-.6-.8-.7-1.4-.2-.5-.2-1.1-.2-1.8 0-.6.1-1.1.3-1.7.2-.5.4-1 .7-1.4.3-.4.7-.7 1.2-.9s1-.3 1.6-.3c.6 0 1.1.1 1.5.3.4.2.8.4 1.1.8s.5.7.7 1.2c.1.3.1.8.1 1.4zm-1.5-.2c0-.4 0-.7-.1-1-.1-.3-.2-.6-.4-.8s-.4-.4-.7-.5c-.3-.1-.6-.2-1-.2-.3 0-.6.1-.9.2-.3.1-.5.3-.7.5-.2.2-.3.5-.5.8-.1.3-.2.7-.2 1h4.5zm10.5 4.8h-1.4v-3.7h-3.8v3.7h-1.4v-8.3h1.4v3.4h3.8v-3.4h1.4v8.3zm9.4 0h-1.4v-3.7h-3.8v3.7h-1.4v-8.3h1.4v3.4h3.8v-3.4h1.4v8.3zm3.4-5.1h1.1c.5 0 1 .1 1.4.2.4.1.7.3 1 .5s.5.5.6.8.2.7.2 1c0 .4-.1.8-.2 1.2s-.4.6-.6.8c-.3.2-.6.4-1 .5-.4.1-.9.2-1.4.2h-1.1l-1.2-.1v-8.3h1.4v3.2zm2.7 2.5c0-.4-.1-.8-.4-1-.3-.2-.7-.4-1.3-.4h-1v2.7c.2 0 .3 0 .5.1h.5c.3 0 .6 0 .8-.1s.4-.2.5-.3c.1-.1.2-.3.3-.5.1-.1.1-.3.1-.5zm2.4 2.6v-8.3h1.4v8.3h-1.4zm5-8.3v5.9l3.6-5.9h1.4v8.3h-1.4v-5.9l-3.6 5.9h-1.4v-8.3h1.4zm4.4-3.3c0 .3-.1.6-.2.9-.1.3-.3.5-.5.7-.2.2-.5.3-.8.4-.3.1-.7.1-1 .1-.4 0-.8 0-1.1-.1s-.6-.2-.8-.4-.4-.4-.4-.7-.1-.5-.1-.9h1.3c0 .2 0 .3.1.4 0 .1.1.3.2.4.1.1.2.2.4.3.2.1.4.1.6.1.2 0 .4 0 .6-.1.2-.1.3-.1.4-.3.1-.1.2-.2.2-.4l.1-.4h1zm-127.7 30.5c.2.1.5.1.8.2.3.1.6.1.8.1l.8.1h.7c.5 0 .9 0 1.2-.1.3-.1.6-.1.7-.3.2-.1.3-.3.4-.4s.1-.3.1-.6c0-.2 0-.4-.1-.5-.1-.2-.2-.3-.4-.4-.2-.1-.4-.2-.7-.3s-.7-.1-1.2-.1h-2v-1.1h2c.4 0 .8 0 1-.1.3-.1.5-.1.6-.2.2-.1.3-.2.3-.4.1-.1.1-.3.1-.5s0-.4-.1-.5l-.3-.4s-.4-.2-.6-.2c-.3-.1-.6-.1-1-.1s-.9 0-1.4.1-1 .1-1.5.3v-1.2c.2-.1.5-.1.7-.1l.8-.1c.3 0 .5 0 .8-.1h.8c.7 0 1.2.1 1.6.2.4.1.8.3 1.1.5s.5.4.6.7.2.6.2.9c0 .2 0 .5-.1.7l-.3.6s-.3.3-.5.4-.5.2-.8.2c.3 0 .6.1.8.2s.5.2.7.4c.2.2.3.4.4.6.1.2.2.5.2.8 0 .4-.1.7-.2 1-.1.3-.4.6-.7.8-.3.2-.7.4-1.3.5-.5.1-1.2.2-1.9.2h-.7c-.2 0-.5 0-.8-.1l-.8-.1s-.5-.1-.7-.1l-.1-1.5zm15 1.5v-1.1c-.5.4-.9.8-1.4 1-.5.2-1 .3-1.5.3s-.9-.1-1.2-.2-.6-.3-.8-.5c-.2-.2-.4-.5-.5-.8-.1-.3-.2-.6-.2-.9 0-.8.3-1.5.9-2 .6-.5 1.5-.7 2.8-.7h1.7v-.7c0-.5-.2-.9-.5-1.2s-.8-.4-1.4-.4c-.5 0-.9.1-1.4.2l-1.4.4v-1.3l.6-.2.7-.2s.5-.1.8-.1h.8c.5 0 1 .1 1.4.2s.7.3 1 .5c.3.2.5.5.6.9s.2.7.2 1.2v5.7l-1.2-.1zm-.2-3.8h-1.8c-.4 0-.7 0-.9.1s-.5.2-.6.3-.3.3-.4.5c-.1.2-.1.4-.1.6 0 .2 0 .3.1.5s.1.3.2.4.3.2.4.3.4.1.6.1c.3 0 .7-.1 1.1-.3s.9-.5 1.4-1v-1.5zm21.1 3.8h-1.4l-.2-5.2-.1-1.9-.5 1.3-1.6 3.8h-1.1l-1.5-3.6-.5-1.4-.1 2-.2 5.1h-1.4l.5-8.3h1.9l1.4 3.6.4 1.1.4-1.1 1.5-3.6h1.9l.6 8.2zm9-4.2c0 .6-.1 1.2-.3 1.8-.2.5-.4 1-.8 1.4s-.8.7-1.3.9-1.1.3-1.7.3c-.6 0-1.1-.1-1.6-.3-.5-.2-.9-.5-1.2-.8-.3-.4-.6-.8-.8-1.3-.2-.5-.3-1.1-.3-1.8 0-.6.1-1.2.3-1.8s.4-1 .8-1.4.8-.7 1.3-.9 1.1-.3 1.7-.3c.6 0 1.1.1 1.6.3.5.2.9.5 1.2.8.3.4.6.8.8 1.3.2.5.3 1.1.3 1.8zm-1.5 0c0-.5-.1-1-.2-1.3-.1-.4-.3-.7-.5-1-.2-.3-.5-.5-.8-.6-.3-.1-.6-.2-1-.2s-.8.1-1.1.3c-.3.2-.6.4-.8.7-.2.3-.3.6-.4 1-.1.4-.1.8-.1 1.2 0 .5.1 1 .2 1.4.1.4.3.7.5 1 .2.3.5.5.8.6s.6.2 1 .2.8-.1 1.1-.3c.3-.2.6-.4.8-.7.2-.3.3-.6.4-1 .1-.5.1-.9.1-1.3zm5.2-4.1v5.9l3.6-5.9h1.4v8.3h-1.4v-5.9l-3.6 5.9h-1.4v-8.3h1.4zm4.3-3.3c0 .3-.1.6-.2.9-.1.3-.3.5-.5.7-.2.2-.5.3-.8.4s-.7.1-1 .1c-.4 0-.8 0-1.1-.1s-.6-.2-.8-.4-.4-.4-.4-.7-.1-.5-.1-.9h1.3c0 .2 0 .3.1.4 0 .1.1.3.2.4.1.1.2.2.4.3s.3.1.6.1c.2 0 .4 0 .6-.1.2-.1.3-.1.4-.3.1-.1.2-.2.2-.4l.1-.4h1zm10.9 11.6h-2l-3.9-4.5v4.5h-1.4v-8.3h1.4v3.8l3.7-3.8h1.9l-3.9 3.8 4.2 4.5zm9.3-8.3l-2.8 7.5c-.3.8-.6 1.4-.9 2s-.7 1-1 1.3-.8.6-1.2.8-.9.2-1.5.2h-.8v-1.3h.9c.3 0 .5 0 .7-.1.2-.1.4-.2.7-.4.2-.2.4-.4.6-.7.2-.3.4-.6.5-1l-3.3-8.3h1.6l2.1 5.5.4 1.3.5-1.3 2-5.5h1.5zm18 8.3h-1.5v-7.1h-3.8v7.1h-1.4v-8.3h6.7v8.3zm9.9-4.2c0 .6-.1 1.2-.3 1.8-.2.5-.4 1-.8 1.4s-.8.7-1.3.9-1.1.3-1.7.3c-.6 0-1.1-.1-1.6-.3-.5-.2-.9-.5-1.2-.8-.3-.4-.6-.8-.8-1.3-.2-.5-.3-1.1-.3-1.8 0-.6.1-1.2.3-1.8s.4-1 .8-1.4.8-.7 1.3-.9 1.1-.3 1.7-.3c.6 0 1.1.1 1.6.3.5.2.9.5 1.2.8.3.4.6.8.8 1.3.2.5.3 1.1.3 1.8zm-1.5 0c0-.5-.1-1-.2-1.3-.1-.4-.3-.7-.5-1-.2-.3-.5-.5-.8-.6-.3-.1-.6-.2-1-.2s-.8.1-1.1.3c-.3.2-.6.4-.8.7-.2.3-.3.6-.4 1-.1.4-.1.8-.1 1.2 0 .5.1 1 .2 1.4.1.4.3.7.5 1 .2.3.5.5.8.6s.6.2 1 .2.8-.1 1.1-.3c.3-.2.6-.4.8-.7.2-.3.3-.6.4-1 .1-.5.1-.9.1-1.3zm10.1 3.9c-.4.1-.8.3-1.2.3s-.8.1-1.2.1c-1.3 0-2.3-.4-3-1.1-.7-.7-1.1-1.8-1.1-3.1 0-.7.1-1.3.3-1.8s.5-1 .9-1.4.8-.7 1.3-.9c.5-.2 1.1-.3 1.7-.3.4 0 .8 0 1.2.1l1.1.3v1.4c-.4-.2-.7-.3-1.1-.4-.4-.1-.8-.1-1.2-.1-.4 0-.7.1-1 .2-.3.1-.6.3-.9.6s-.4.6-.6 1-.2.8-.2 1.3c0 1 .2 1.8.7 2.3.5.5 1.2.8 2 .8.4 0 .8 0 1.1-.1.4-.1.7-.2 1.1-.4l.1 1.2zm10.2-8l-2.8 7.5c-.3.8-.6 1.4-.9 2s-.7 1-1 1.3-.8.6-1.2.8-.9.2-1.5.2h-.8v-1.3h.9c.3 0 .5 0 .7-.1.2-.1.4-.2.7-.4.2-.2.4-.4.6-.7.2-.3.4-.6.5-1l-3.3-8.3h1.6l2.1 5.5.4 1.3.5-1.3 2-5.5h1.5zm9.7 7l-.1 3.4h-1.3v-2.1h-6.1v2.1h-1.3l-.1-3.4h.1c.2 0 .4 0 .6-.1.2-.1.4-.2.5-.4s.3-.4.4-.8.3-.8.4-1.3c.1-.5.2-1.2.3-1.9s.1-1.6.2-2.7h5.1v7.1l1.3.1zm-2.6-5.8h-2.3c-.1 1-.1 1.8-.2 2.4-.1.7-.2 1.2-.3 1.7-.1.5-.3.8-.4 1.1-.2.3-.3.5-.5.6h3.8l-.1-5.8zm5 2h1.1c.5 0 1 .1 1.4.2.4.1.7.3 1 .5.3.2.5.5.6.8.1.3.2.7.2 1 0 .4-.1.8-.2 1.2-.1.3-.4.6-.6.8-.3.2-.6.4-1 .5-.4.1-.9.2-1.4.2h-1.1s-.8-.1-1.2-.1v-8.3h1.4l-.2 3.2zm2.7 2.5c0-.4-.1-.8-.4-1-.3-.2-.7-.4-1.3-.4h-1v2.7c.2 0 .3 0 .5.1h.5c.3 0 .6 0 .8-.1s.4-.2.5-.3c.1-.1.2-.3.3-.5.1-.1.1-.3.1-.5zm2.4 2.6v-8.3h1.4v8.3h-1.4z"/><path class="st1" d="M0 218.9h160.6v46.3h-160.6z"/><path class="st2" d="M8.8 225.9h140.7v40.7h-140.7z"/><path d="M22 228.6h-4.6v9.1h-2v-10.9h6.6v1.8zm9.8 4.7c0 .8-.1 1.4-.3 2-.2.6-.5 1-.9 1.4-.4.4-.9.6-1.4.8s-1.1.3-1.7.3h-.6l-.6-.1v3.3h-2v-11.7h1.7v1.2c.2-.2.4-.4.5-.6l.6-.5c.2-.1.4-.2.7-.3s.5-.1.8-.1c.5 0 .9.1 1.3.3s.7.5 1 .9c.3.4.5.8.6 1.3.2.6.3 1.2.3 1.8zm-2.1.1c0-.5 0-.9-.1-1.2-.1-.3-.2-.6-.3-.8-.1-.2-.3-.4-.5-.5s-.4-.1-.6-.1c-.3 0-.7.1-1 .4-.3.3-.6.7-1 1.1v3.7c.2.1.4.1.6.1l.7.1c.3 0 .6-.1.9-.2.3-.1.5-.3.7-.6.2-.2.3-.5.4-.9s.2-.7.2-1.1zm4.4 1.9c.2-.4.4-.7.6-.9s.5-.3.8-.3c-.3 0-.5-.1-.8-.2-.2-.1-.4-.3-.6-.5-.2-.2-.3-.4-.4-.6-.1-.2-.1-.5-.1-.8 0-.5.1-.9.3-1.3.2-.4.4-.6.8-.9.4-.2.8-.4 1.3-.5.5-.1 1.1-.2 1.8-.2h1.5s1 .1 1.4.1v8.4h-2v-3.1h-.8c-.2 0-.5 0-.7.1-.2 0-.4.1-.5.2-.2.1-.3.2-.4.3-.1.1-.2.3-.3.5l-.7 2h-2.3l1.1-2.3zm1.6-3.4c0 .2 0 .4.1.6.1.2.2.3.4.4s.4.2.7.2.6.1.9.1h.9v-2.4h-1c-.8 0-1.3.1-1.6.3s-.4.4-.4.8zm6.9 4c.5.1 1 .2 1.6.3.6.1 1.1.1 1.6.1s.9 0 1.1-.1c.2-.1.5-.1.6-.3.2-.1.3-.2.4-.4s.1-.3.1-.5 0-.3-.1-.5-.2-.2-.4-.3c-.2-.1-.4-.2-.7-.2-.3-.1-.7-.1-1.1-.1h-2.2v-1.4h2.1c.5 0 .9 0 1.1-.1l.6-.2.3-.3c.1-.1.1-.3.1-.4 0-.1 0-.3-.1-.4l-.3-.3-.6-.2c-.3 0-.6-.1-1-.1s-.8 0-1.3.1-1 .1-1.5.3v-1.6l1.5-.2c.5-.1 1-.1 1.6-.1 1.3 0 2.3.2 3 .6.6.4.9.9.9 1.6 0 .2 0 .4-.1.6-.1.2-.2.4-.3.5l-.5.5s-.4.2-.7.3c.3 0 .5.1.8.2.2.1.5.2.6.4.2.2.3.4.4.6.1.2.2.5.2.8 0 .9-.4 1.6-1.1 2-.7.5-1.9.7-3.4.7-.5 0-1 0-1.5-.1l-1.6-.2-.1-1.6zm14.8 1.8v-3.6h-3.3v3.6h-2v-8.4h2v3.2h3.3v-3.2h2v8.4h-2zm9.5 0l-.1-1.1c-.2.2-.4.4-.6.5-.2.2-.4.3-.6.4-.2.1-.5.2-.8.3-.3.1-.6.1-.9.1-.4 0-.8-.1-1.1-.2s-.6-.3-.8-.5-.4-.5-.5-.8c-.1-.3-.2-.7-.2-1.1 0-.4.1-.8.3-1.1s.4-.6.8-.9c.3-.2.8-.4 1.3-.6.5-.1 1.1-.2 1.8-.2h1.1v-.5c0-.2 0-.4-.1-.6-.1-.2-.2-.3-.3-.4-.1-.1-.3-.2-.5-.3s-.5-.1-.8-.1c-.5 0-1 .1-1.5.2s-1 .3-1.4.5v-1.6c.4-.2.9-.3 1.4-.4.5-.1 1.1-.2 1.6-.2.6 0 1.2.1 1.6.2s.8.3 1.1.5c.3.2.5.5.6.9.1.4.2.8.2 1.2v5.8h-1.6zm-.3-3.8h-1.2c-.3 0-.6 0-.9.1l-.6.3s-.3.3-.3.4-.1.3-.1.5c0 .3.1.6.3.8s.5.3.9.3c.3 0 .6-.1.9-.3.3-.2.6-.5 1-.9v-1.2zm4.9 1.4c.2-.4.4-.7.6-.9s.5-.3.8-.3c-.3 0-.5-.1-.8-.2-.2-.1-.4-.3-.6-.5-.2-.2-.3-.4-.4-.6-.1-.2-.1-.5-.1-.8 0-.5.1-.9.3-1.3.2-.4.4-.6.8-.9.4-.2.8-.4 1.3-.5.5-.1 1.1-.2 1.8-.2h1.5s1 .1 1.4.1v8.4h-2v-3.1h-.8c-.2 0-.5 0-.7.1-.2 0-.4.1-.5.2-.2.1-.3.2-.4.3-.1.1-.2.3-.3.5l-.7 2h-2.3l1.1-2.3zm1.6-3.4c0 .2 0 .4.1.6.1.2.2.3.4.4s.4.2.7.2.6.1.9.1h.9v-2.4h-1c-.8 0-1.3.1-1.6.3s-.4.4-.4.8zm21.7 5.8v-6.7h-3.3v6.7h-2v-8.4h7.3v8.4h-2zm11.8-4.3c0 .7-.1 1.3-.3 1.8s-.5 1-.8 1.4-.8.7-1.3.9-1.1.3-1.8.3c-.6 0-1.2-.1-1.7-.3s-.9-.5-1.3-.8-.6-.8-.8-1.4-.3-1.2-.3-1.9.1-1.3.3-1.8c.2-.5.5-1 .8-1.4.4-.4.8-.7 1.3-.9s1.1-.3 1.7-.3c.6 0 1.2.1 1.7.3s.9.5 1.3.8.6.8.8 1.4c.3.6.4 1.2.4 1.9zm-2.1 0c0-.9-.2-1.5-.5-2-.3-.4-.8-.7-1.5-.7-.4 0-.7.1-.9.2s-.5.3-.6.6c-.2.2-.3.5-.4.8-.1.3-.1.7-.1 1 0 .9.2 1.5.5 2s.8.7 1.5.7c.3 0 .6-.1.9-.2s.5-.3.6-.6c.2-.2.3-.5.3-.9.1-.1.2-.5.2-.9zm10.6 3.9c-.4.2-.8.3-1.2.4s-.9.1-1.3.1c-.7 0-1.3-.1-1.8-.3-.5-.2-1-.5-1.4-.8-.4-.4-.7-.8-.9-1.3s-.3-1.1-.3-1.8.1-1.3.3-1.8c.2-.5.5-1 .9-1.4s.9-.7 1.4-.9c.5-.2 1.2-.3 1.8-.3.5 0 1 0 1.4.1.4.1.7.1 1 .2v2c-.3-.2-.7-.3-1.1-.4-.4-.1-.8-.1-1.1-.1-.4 0-.7.1-1 .2s-.6.3-.8.5-.4.5-.5.8c-.1.3-.2.7-.2 1.1 0 .4.1.8.2 1.1.1.3.3.6.5.8.2.2.5.4.8.5s.6.2 1 .2h.6l.6-.1c.2 0 .4-.1.6-.2.2-.1.4-.1.5-.2v1.6zm7.6-.6c-.3.7-.6 1.4-.9 1.9s-.7 1-1.1 1.4-.8.6-1.3.8c-.5.2-1 .3-1.6.3h-.5c-.2 0-.3 0-.5-.1v-1.7h1.1c.2 0 .4 0 .6-.1.2-.1.4-.2.6-.4.2-.2.3-.3.5-.6s.3-.5.4-.7l-3.3-8.4h2.3l1.8 4.8.5 1.5.5-1.5 1.8-4.8h2.2l-3.1 7.6zm12.4-.7l-.1 3.8h-1.9v-2.1h-5.1v2.1h-1.9l-.1-3.8h.2c.2 0 .4 0 .6-.1l.5-.3s.3-.4.4-.7c.1-.3.2-.7.3-1.2s.2-1.1.3-1.8c.1-.7.1-1.6.2-2.5h5.7v6.7l.9-.1zm-2.9-5.1h-1.9c-.1.7-.1 1.4-.2 1.9s-.1 1-.2 1.4-.2.7-.3 1-.3.5-.4.7h3v-5zm9.5 6.8l-.1-1.1c-.2.2-.4.4-.6.5-.2.2-.4.3-.6.4-.2.1-.5.2-.8.3-.3.1-.6.1-.9.1-.4 0-.8-.1-1.1-.2s-.6-.3-.8-.5-.4-.5-.5-.8c-.1-.3-.2-.7-.2-1.1 0-.4.1-.8.3-1.1s.4-.6.8-.9c.3-.2.8-.4 1.3-.6.5-.1 1.1-.2 1.8-.2h1.1v-.5c0-.2 0-.4-.1-.6-.1-.2-.2-.3-.3-.4-.1-.1-.3-.2-.5-.3s-.5-.1-.8-.1c-.5 0-1 .1-1.5.2s-1 .3-1.4.5v-1.6c.4-.2.9-.3 1.4-.4.5-.1 1.1-.2 1.6-.2.6 0 1.2.1 1.6.2s.8.3 1.1.5c.3.2.5.5.6.9.1.4.2.8.2 1.2v5.8h-1.6zm-.3-3.8h-1.2c-.3 0-.6 0-.9.1l-.6.3s-.3.3-.3.4-.1.3-.1.5c0 .3.1.6.3.8s.5.3.9.3c.3 0 .6-.1.9-.3.3-.2.6-.5 1-.9v-1.2zm-84 27.7c-2.6-2.4-3.8-5-3.8-7.8 0-.7.1-1.3.2-2s.4-1.3.7-2c.3-.7.7-1.3 1.2-2s1.1-1.3 1.8-2l.8.9c-2.1 2.1-3.2 4.5-3.2 7 0 1.3.3 2.5.8 3.7.5 1.2 1.3 2.3 2.4 3.4l-.9.8zm11.5-6c0 .4-.1.7-.2 1-.2.3-.4.6-.7.8-.3.2-.8.4-1.3.5-.5.1-1.1.2-1.8.2-.5 0-1 0-1.5-.1s-1-.1-1.5-.1v-8.2c.5-.1 1-.1 1.6-.1.5 0 1.1-.1 1.7-.1 1.1 0 2 .2 2.6.6s.9.9.9 1.6c0 .5-.1.9-.4 1.2s-.7.6-1.2.7c.3 0 .5.1.8.2.2.1.5.2.7.4s.3.4.5.6c-.2.3-.2.6-.2.8zm-1.9-3.6c0-.2 0-.4-.1-.5s-.2-.3-.4-.4c-.2-.1-.4-.2-.7-.3-.3-.1-.6-.1-1-.1h-.9s-.5 0-.8.1v2.4h1.7c1.5.1 2.2-.4 2.2-1.2zm.4 3.7c0-.4-.2-.8-.6-1s-1-.3-1.8-.3h-1.8v2.5l.8.1h.9c.5 0 .9 0 1.2-.1.3-.1.6-.2.8-.3.2-.1.3-.3.4-.4s.1-.3.1-.5zm11.2 2.4h-1.9l-2.3-3.2-2.2 3.2h-1.9l3.2-4.2-3.1-4.1h1.9l2.2 3.2 2.2-3.2h1.8l-3.1 4.2 3.2 4.1zm9.1-4.3c0 .6-.1 1.2-.3 1.8-.2.5-.4 1-.8 1.4s-.8.7-1.3.9-1.1.3-1.7.3c-.6 0-1.1-.1-1.6-.3-.5-.2-.9-.5-1.2-.8-.3-.4-.6-.8-.8-1.3-.2-.5-.3-1.1-.3-1.8 0-.6.1-1.2.3-1.8s.4-1 .8-1.4.8-.7 1.3-.9 1.1-.3 1.7-.3c.6 0 1.1.1 1.6.3.5.2.9.5 1.2.8.3.4.6.8.8 1.3.2.5.3 1.2.3 1.8zm-1.5.1c0-.5-.1-1-.2-1.3s-.3-.7-.5-1c-.2-.3-.5-.5-.8-.6-.3-.1-.6-.2-1-.2s-.8.1-1.1.3-.6.4-.8.7c-.2.3-.3.6-.4 1-.1.4-.1.8-.1 1.2 0 .5.1 1 .2 1.4.1.4.3.7.5 1 .2.3.5.5.8.6s.6.2 1 .2.8-.1 1.1-.3.6-.4.8-.7c.2-.3.3-.6.4-1 .1-.5.1-.9.1-1.3zm11.3 2.9l-.1 3.4h-1.3v-2.1h-6.1v2.1h-1.3l-.1-3.4h.1c.2 0 .4 0 .6-.1s.4-.2.5-.4.3-.4.4-.8c.1-.3.3-.8.4-1.3.1-.5.2-1.2.3-1.9.1-.7.1-1.6.2-2.7h5.1v7.1l1.3.1zm-2.6-5.8h-2.3c-.1 1-.1 1.8-.2 2.4-.1.7-.2 1.2-.3 1.7-.1.5-.3.8-.4 1.1-.2.3-.3.5-.5.6h3.8v-5.8zm6-5.3c2.6 2.4 3.8 5 3.8 7.9 0 .6-.1 1.2-.2 1.9-.1.6-.3 1.3-.6 2s-.7 1.4-1.2 2c-.5.7-1.1 1.4-1.9 2.1l-.8-.9c1.1-1.1 1.9-2.2 2.4-3.3s.8-2.4.8-3.7c0-2.6-1.1-5-3.2-7.1l.9-.9z"/><path class="st1" d="M737.9 218.9h160.6v46.3h-160.6z"/><path class="st2" d="M746.7 224.9h140.7v37.3h-140.7z"/><path d="M762.8 236.7v-4.2h-1.8c-.7 0-1.3-.1-1.8-.3s-.9-.4-1.2-.8c-.3-.3-.5-.7-.7-1.2s-.2-1-.2-1.7v-2.8h2.1v2.6c0 .4 0 .8.1 1 .1.3.2.5.3.7.2.2.4.3.6.4.3.1.6.2 1 .2h1.8v-5h2.1v10.9h-2.3zm9.2 0v-5.3l-3.3 5.3h-1.9v-8.4h2v5.3l3.3-5.3h1.9v8.4h-2zm11-.4c-.4.2-.8.3-1.2.4s-.9.1-1.3.1c-.7 0-1.3-.1-1.8-.3-.5-.2-1-.5-1.4-.8-.4-.4-.7-.8-.9-1.3-.2-.5-.3-1.1-.3-1.8s.1-1.3.3-1.8c.2-.5.5-1 .9-1.4.4-.4.9-.7 1.4-.9.5-.2 1.2-.3 1.8-.3.5 0 1 0 1.4.1.4.1.7.1 1 .2v2c-.3-.2-.7-.3-1.1-.4-.4-.1-.8-.1-1.1-.1-.4 0-.7.1-1 .2s-.6.3-.8.5-.4.5-.5.8c-.1.3-.2.7-.2 1.1 0 .4.1.8.2 1.1.1.3.3.6.5.8s.5.4.8.5.6.2 1 .2h.6l.6-.1c.2 0 .4-.1.6-.2.2-.1.4-.1.5-.2v1.6zm7-6.4v6.7h-2v-6.7h-3v-1.7h7.9v1.7h-2.9zm10.1 6.8v-1.1c-.2.2-.4.4-.6.5-.2.2-.4.3-.6.4-.2.1-.5.2-.8.3s-.6.1-.9.1c-.4 0-.8-.1-1.1-.2s-.6-.3-.8-.5c-.2-.2-.4-.5-.5-.8-.1-.3-.2-.7-.2-1.1 0-.4.1-.8.3-1.1.2-.3.4-.6.8-.9.3-.2.8-.4 1.3-.6.5-.1 1.1-.2 1.8-.2h1.1v-.5c0-.2 0-.4-.1-.6-.1-.2-.2-.3-.3-.4-.1-.1-.3-.2-.5-.3s-.5-.1-.8-.1c-.5 0-1 .1-1.5.2s-1 .3-1.4.5v-1.6c.4-.2.9-.3 1.4-.4.5-.1 1.1-.2 1.6-.2.6 0 1.2.1 1.6.2s.8.3 1.1.5.5.5.6.9c.1.4.2.8.2 1.2v5.8h-1.7zm-.3-3.8h-1.2c-.3 0-.6 0-.9.1l-.6.3s-.3.3-.3.4c-.1.2-.1.3-.1.5 0 .3.1.6.3.8s.5.3.9.3c.3 0 .6-.1.9-.3.3-.2.6-.5 1-.9v-1.2zm4.9 1.4c.2-.4.4-.7.6-.9.2-.2.5-.3.8-.3-.3 0-.5-.1-.8-.2-.2-.1-.4-.3-.6-.5-.2-.2-.3-.4-.4-.6-.1-.2-.1-.5-.1-.8 0-.5.1-.9.3-1.3.2-.4.4-.6.8-.9.4-.2.8-.4 1.3-.5.5-.1 1.1-.2 1.8-.2h1.5c.5 0 1 .1 1.4.1v8.4h-2v-3.1h-.8c-.2 0-.5 0-.7.1s-.4.1-.5.2c-.2.1-.3.2-.4.3s-.2.3-.3.5l-.7 2h-2.3l1.1-2.3zm1.6-3.4c0 .2 0 .4.1.6.1.2.2.3.4.4s.4.2.7.2.6.1.9.1h.9v-2.4h-1c-.8 0-1.3.1-1.6.3-.2 0-.4.4-.4.8zm21.7 5.8v-6.7h-3.3v6.7h-2v-8.4h7.3v8.4h-2zm11.8-4.3c0 .7-.1 1.3-.3 1.8-.2.6-.5 1-.8 1.4-.4.4-.8.7-1.3.9s-1.1.3-1.8.3c-.6 0-1.2-.1-1.7-.3s-.9-.5-1.3-.8c-.3-.4-.6-.8-.8-1.4s-.3-1.2-.3-1.9.1-1.3.3-1.8.5-1 .8-1.4c.4-.4.8-.7 1.3-.9s1.1-.3 1.7-.3c.6 0 1.2.1 1.7.3.5.2.9.5 1.3.8s.6.8.8 1.4c.3.6.4 1.2.4 1.9zm-2.1 0c0-.9-.2-1.5-.5-2-.3-.4-.8-.7-1.5-.7-.4 0-.7.1-.9.2-.2.1-.5.3-.6.6-.2.2-.3.5-.4.8s-.1.7-.1 1c0 .9.2 1.5.5 2s.8.7 1.5.7c.3 0 .6-.1.9-.2s.5-.3.6-.6c.2-.2.3-.5.3-.9.2-.1.2-.5.2-.9zm10.7 3.9c-.4.2-.8.3-1.2.4-.4.1-.9.1-1.3.1-.7 0-1.3-.1-1.8-.3-.5-.2-1-.5-1.4-.8-.4-.4-.7-.8-.9-1.3s-.3-1.1-.3-1.8.1-1.3.3-1.8c.2-.5.5-1 .9-1.4.4-.4.9-.7 1.4-.9s1.2-.3 1.8-.3c.5 0 1 0 1.4.1.4.1.7.1 1 .2v2c-.3-.2-.7-.3-1.1-.4-.4-.1-.8-.1-1.1-.1-.4 0-.7.1-1 .2s-.6.3-.8.5-.4.5-.5.8c-.1.3-.2.7-.2 1.1 0 .4.1.8.2 1.1.1.3.3.6.5.8.2.2.5.4.8.5s.6.2 1 .2h.6l.6-.1c.2 0 .4-.1.6-.2s.4-.1.5-.2v1.6zm7.6-.6c-.3.7-.6 1.4-.9 1.9s-.7 1-1 1.4-.8.6-1.3.8c-.5.2-1 .3-1.6.3h-.5c-.2 0-.3 0-.5-.1v-1.7h1.1c.2 0 .4 0 .6-.1.2-.1.4-.2.6-.4.2-.2.3-.3.5-.6l.4-.7-3.3-8.4h2.3l1.8 4.8.5 1.5.5-1.5 1.8-4.8h2.2l-3.2 7.6zm12.3-.7l-.1 3.8h-1.9v-2.1h-5.1v2.1h-1.9l-.1-3.8h.2c.2 0 .4 0 .6-.1l.5-.3c.2-.2.3-.4.4-.7.1-.3.2-.7.3-1.2s.2-1.1.3-1.8c.1-.7.1-1.6.2-2.5h5.7v6.7l.9-.1zm-2.9-5.1h-1.9c-.1.7-.1 1.4-.2 1.9s-.1 1-.2 1.4-.2.7-.3 1-.3.5-.4.7h3v-5zm9.5 6.8v-1.1c-.2.2-.4.4-.6.5-.2.2-.4.3-.6.4-.2.1-.5.2-.8.3s-.6.1-.9.1c-.4 0-.8-.1-1.1-.2s-.6-.3-.8-.5c-.2-.2-.4-.5-.5-.8-.1-.3-.2-.7-.2-1.1 0-.4.1-.8.3-1.1.2-.3.4-.6.8-.9.3-.2.8-.4 1.3-.6.5-.1 1.1-.2 1.8-.2h1.1v-.5c0-.2 0-.4-.1-.6-.1-.2-.2-.3-.3-.4-.1-.1-.3-.2-.5-.3s-.5-.1-.8-.1c-.5 0-1 .1-1.5.2s-1 .3-1.4.5v-1.6c.4-.2.9-.3 1.4-.4.5-.1 1.1-.2 1.6-.2.6 0 1.2.1 1.6.2s.8.3 1.1.5.5.5.6.9c.1.4.2.8.2 1.2v5.8h-1.7zm-.3-3.8h-1.2c-.3 0-.6 0-.9.1l-.6.3s-.3.3-.3.4c-.1.2-.1.3-.1.5 0 .3.1.6.3.8s.5.3.9.3c.3 0 .6-.1.9-.3.3-.2.6-.5 1-.9v-1.2zm-83.9 27.7c-2.6-2.4-3.8-5-3.8-7.8 0-.7.1-1.3.2-2s.4-1.3.7-2c.3-.7.7-1.3 1.2-2s1.1-1.3 1.8-2l.8.9c-2.1 2.1-3.2 4.5-3.2 7 0 1.3.3 2.5.8 3.7.5 1.2 1.3 2.3 2.4 3.4l-.9.8zm11.5-6c0 .4-.1.7-.2 1-.2.3-.4.6-.7.8-.3.2-.8.4-1.3.5-.5.1-1.1.2-1.8.2-.5 0-1 0-1.5-.1s-1-.1-1.5-.1v-8.2c.5-.1 1-.1 1.6-.1.5 0 1.1-.1 1.7-.1 1.1 0 2 .2 2.6.6s.9.9.9 1.6c0 .5-.1.9-.4 1.2-.3.3-.7.6-1.2.7.3 0 .5.1.8.2s.5.2.7.4.3.4.5.6c-.3.3-.2.6-.2.8zm-1.9-3.6c0-.2 0-.4-.1-.5s-.2-.3-.4-.4c-.2-.1-.4-.2-.7-.3-.3-.1-.6-.1-1-.1h-.9s-.5 0-.8.1v2.4h1.7c1.5.1 2.2-.4 2.2-1.2zm.3 3.7c0-.4-.2-.8-.6-1s-1-.3-1.8-.3h-1.8v2.5l.8.1h.9c.5 0 .9 0 1.2-.1s.6-.2.8-.3c.2-.1.3-.3.4-.4s.1-.3.1-.5zm4.5-2.7h1.1c.5 0 1 .1 1.4.2.4.1.7.3 1 .5.3.2.5.5.6.8s.2.7.2 1c0 .4-.1.8-.2 1.2s-.4.6-.6.8c-.3.2-.6.4-1 .5-.4.1-.9.2-1.4.2h-1.1l-1.2-.1v-8.3h1.4l-.2 3.2zm2.8 2.5c0-.4-.1-.8-.4-1-.3-.2-.7-.4-1.3-.4h-1v2.7c.2 0 .3 0 .5.1h.5c.3 0 .6 0 .8-.1.2-.1.4-.2.5-.3.1-.1.2-.3.3-.5 0-.1.1-.3.1-.5zm2.4 2.6v-8.3h1.4v8.3h-1.4zm10.9 0h-1.9l-2.3-3.2-2.2 3.2h-1.8l3.2-4.2-3.1-4.1h1.9l2.2 3.2 2.2-3.2h1.8l-3.1 4.2 3.1 4.1zm9.1-4.3c0 .6-.1 1.2-.3 1.8-.2.5-.4 1-.8 1.4-.3.4-.8.7-1.3.9s-1.1.3-1.7.3c-.6 0-1.1-.1-1.6-.3-.5-.2-.9-.5-1.2-.8-.3-.4-.6-.8-.8-1.3-.2-.5-.3-1.1-.3-1.8 0-.6.1-1.2.3-1.8s.4-1 .8-1.4c.3-.4.8-.7 1.3-.9s1.1-.3 1.7-.3c.6 0 1.1.1 1.6.3.5.2.9.5 1.2.8.3.4.6.8.8 1.3.2.5.3 1.2.3 1.8zm-1.5.1c0-.5-.1-1-.2-1.3-.1-.4-.3-.7-.5-1-.2-.3-.5-.5-.8-.6-.3-.1-.6-.2-1-.2s-.8.1-1.1.3-.6.4-.8.7c-.2.3-.3.6-.4 1-.1.4-.1.8-.1 1.2 0 .5.1 1 .2 1.4.1.4.3.7.5 1 .2.3.5.5.8.6s.6.2 1 .2.8-.1 1.1-.3.6-.4.8-.7c.2-.3.3-.6.4-1 .1-.5.1-.9.1-1.3zm11.3 2.9l-.1 3.4h-1.3v-2.1h-6.1v2.1h-1.3l-.1-3.4h.1c.2 0 .4 0 .6-.1s.4-.2.5-.4c.2-.2.3-.4.4-.8.1-.3.3-.8.4-1.3.1-.5.2-1.2.3-1.9s.1-1.6.2-2.7h5.1v7.1l1.3.1zm-2.6-5.8h-2.3c-.1 1-.1 1.8-.2 2.4-.1.7-.2 1.2-.3 1.7s-.3.8-.4 1.1c-.2.3-.3.5-.5.6h3.8l-.1-5.8zm5.9-5.3c2.6 2.4 3.8 5 3.8 7.9 0 .6-.1 1.2-.2 1.9-.1.6-.3 1.3-.6 2s-.7 1.4-1.2 2c-.5.7-1.1 1.4-1.9 2.1l-.8-.9c1.1-1.1 1.9-2.2 2.4-3.3s.8-2.4.8-3.7c0-2.6-1.1-5-3.2-7.1l.9-.9z"/><path class="st2" d="M215.8 219.2h440v176.6h-440z"/><path class="st3" d="M332.2 244.1l-.4-13-.2-5.2-1.1 3.5-2.5 7.8h-2.7l-2.3-7.8-1-3.5-.1 5.1-.4 13.1h-3.7l1.1-23h4.9l2 6.5 1 3.7 1-3.5 2.1-6.7h5l1.1 23h-3.8zm23.1-9.1c0 1.4-.2 2.7-.6 3.9s-1 2.2-1.7 3-1.7 1.5-2.8 1.9-2.3.7-3.7.7c-1.3 0-2.5-.2-3.6-.6s-1.9-1-2.7-1.7-1.3-1.7-1.7-2.9-.6-2.5-.6-4c0-1.4.2-2.7.6-3.9s1-2.1 1.7-3 1.7-1.5 2.8-1.9 2.3-.7 3.7-.7c1.3 0 2.5.2 3.6.6s1.9 1 2.7 1.7 1.3 1.7 1.7 2.9.6 2.5.6 4zm-4.5.1c0-1.9-.3-3.2-1-4.2s-1.7-1.4-3.1-1.4c-.8 0-1.4.1-1.9.4s-1 .7-1.3 1.2-.6 1.1-.7 1.8-.2 1.4-.2 2.2c0 1.9.4 3.3 1.1 4.2s1.8 1.4 3.1 1.4c.7 0 1.3-.1 1.9-.4s1-.7 1.3-1.2.6-1.1.7-1.8.1-1.4.1-2.2zm19.1 9v-11.2l-7 11.2h-4.1v-17.9h4.2v11.2l7-11.2h4.1v17.9h-4.2zm2.6-24.9c0 1.6-.5 2.9-1.6 3.7s-2.6 1.3-4.4 1.3c-1.1 0-2-.1-2.7-.4s-1.4-.6-1.8-1.1-.8-1-1-1.6-.3-1.3-.3-2h3.9c0 .4 0 .7.1 1.1s.2.6.4.8.4.4.6.5.6.2 1 .2.7-.1 1-.2.5-.3.6-.6.3-.5.4-.8.1-.6.1-1l3.7.1zm17.4 24.9l-6.7-8.9v8.9h-4.2v-17.9h4.2v7.6l6.3-7.6h5.3l-7.2 8.1 7.8 9.7-5.5.1zm19.9 0l-.1-2.3c-.4.4-.8.8-1.2 1.1s-.9.6-1.4.9-1 .4-1.6.6-1.2.2-1.9.2c-.9 0-1.7-.1-2.4-.4s-1.3-.6-1.7-1.1-.8-1.1-1.1-1.7-.4-1.4-.4-2.3c0-.8.2-1.6.5-2.3s.9-1.3 1.6-1.8 1.6-.9 2.7-1.2 2.4-.4 3.9-.4h2.3v-1.4c0-.5-.1-.9-.2-1.2s-.3-.7-.6-.9-.7-.5-1.1-.6-1-.2-1.7-.2c-1.1 0-2.1.1-3.1.4s-2 .6-3 1v-3.5c.9-.3 1.8-.6 3-.8s2.3-.3 3.5-.3c1.3 0 2.5.1 3.4.4s1.7.6 2.3 1.1 1.1 1.1 1.4 1.9.4 1.6.4 2.6v12.2h-3.5zm-.6-7.9h-2.6c-.7 0-1.3.1-1.8.2s-.9.3-1.2.6-.5.5-.7.9-.2.7-.2 1c0 .7.2 1.3.7 1.7s1.1.6 1.9.6c.6 0 1.2-.2 1.9-.6s1.4-1.1 2.1-1.9v-2.5zm39.9 7.9v-14.2h-6.9v14.2h-4.2v-17.9h15.4v17.9h-4.3zm25-9.1c0 1.4-.2 2.7-.6 3.9s-1 2.2-1.7 3-1.7 1.5-2.8 1.9-2.3.7-3.7.7c-1.3 0-2.5-.2-3.6-.6s-1.9-1-2.7-1.7-1.3-1.7-1.7-2.9-.6-2.5-.6-4c0-1.4.2-2.7.6-3.9s1-2.1 1.7-3 1.7-1.5 2.8-1.9 2.3-.7 3.7-.7c1.3 0 2.5.2 3.6.6s1.9 1 2.7 1.7 1.3 1.7 1.7 2.9.6 2.5.6 4zm-4.5.1c0-1.9-.3-3.2-1-4.2s-1.7-1.4-3.1-1.4c-.8 0-1.4.1-1.9.4s-1 .7-1.3 1.2-.6 1.1-.7 1.8-.2 1.4-.2 2.2c0 1.9.4 3.3 1.1 4.2s1.8 1.4 3.1 1.4c.7 0 1.3-.1 1.9-.4s1-.7 1.3-1.2.6-1.1.7-1.8.1-1.4.1-2.2zm22.6 8.3c-.8.3-1.7.6-2.6.8s-1.8.2-2.8.2c-1.4 0-2.7-.2-3.8-.6s-2.1-1-2.9-1.7-1.4-1.7-1.8-2.8-.6-2.4-.6-3.9c0-1.4.2-2.7.7-3.9s1.1-2.1 1.9-3 1.8-1.5 3-1.9 2.4-.7 3.9-.7c1.2 0 2.1.1 2.9.2s1.5.3 2.1.5v4.2c-.7-.4-1.5-.6-2.4-.8s-1.7-.3-2.4-.3c-.8 0-1.5.1-2.1.4s-1.2.6-1.6 1.1-.8 1.1-1 1.7-.3 1.4-.3 2.3c0 .9.1 1.6.4 2.3s.6 1.3 1 1.7 1 .8 1.6 1.1 1.3.4 2.1.4c.4 0 .8 0 1.2-.1s.8-.1 1.2-.2l1.2-.3s.8-.3 1.1-.4v3.7zm16.1-1.3c-.6 1.5-1.3 2.9-1.9 4.1s-1.4 2.1-2.2 2.9-1.7 1.4-2.7 1.8-2.1.6-3.3.6h-1s-.7-.1-1.1-.1v-3.6c.1 0 .3.1.5.1s.4.1.6.1h1.2c.5 0 .9-.1 1.4-.3s.8-.4 1.2-.8.7-.7 1-1.2.6-1 .8-1.5l-7.1-17.9h4.8l3.7 10.1 1.1 3.3 1.1-3.1 3.7-10.3h4.6l-6.4 15.8zm26.1-1.7l-.2 8.1h-4v-4.5h-10.8v4.5h-4l-.2-8.1h.4c.4 0 .9-.1 1.2-.2s.7-.4 1.1-.7.6-.9.9-1.5.5-1.5.7-2.6.4-2.3.5-3.9.3-3.3.4-5.4h12.1v14.3h1.9zm-6.1-10.6h-4c-.1 1.5-.2 2.9-.4 4.1s-.3 2.2-.5 3-.4 1.6-.7 2.1-.6 1.1-.9 1.4h6.4l.1-10.6zm12.9 3.1c1.3 0 2.4.1 3.3.4s1.6.7 2.2 1.2.9 1.1 1.2 1.7.4 1.4.4 2.2c0 .9-.1 1.7-.4 2.5s-.7 1.4-1.3 1.9-1.4.9-2.3 1.2-2 .4-3.3.4c-.8 0-1.7 0-2.6-.1s-1.7-.2-2.5-.3v-17.8h4v6.8c.2 0 .5 0 .7-.1h.6zm0 8.4c1 0 1.7-.2 2.1-.6s.7-1.2.7-2.2c0-.3 0-.6-.1-1s-.2-.6-.4-.9-.5-.4-.8-.6-.8-.2-1.4-.2h-.7s-.4 0-.6.1v5.2c.3.2.7.2 1.2.2zm8.2 2.8v-17.9h4v17.9h-4zm-189.3 50.5c-5.4-5-8.1-10.5-8.1-16.6 0-1.4.1-2.8.4-4.2s.8-2.8 1.4-4.2 1.5-2.8 2.5-4.3 2.3-2.8 3.8-4.2l1.8 1.8c-4.5 4.5-6.8 9.5-6.8 14.9 0 2.7.6 5.3 1.7 7.8s2.8 4.9 5.1 7.1l-1.8 1.9zm23.4-7.3h-3.1v-15h-8.1v15h-3.1v-17.6h14.2l.1 17.6zm20.7-9.2c0 1.6-.2 2.9-.7 4.1s-1 2.1-1.8 2.9-1.7 1.4-2.7 1.7-2.2.6-3.4.6c-.6 0-1.1 0-1.7-.1s-1.1-.2-1.7-.3v7.4h-3.1v-24.9h2.7l.2 3c.9-1.2 1.8-2.1 2.8-2.5s2.1-.7 3.2-.7c1 0 1.9.2 2.7.6s1.4 1 1.9 1.8.9 1.7 1.2 2.8.4 2.3.4 3.6zm-3.2.2c0-.9-.1-1.8-.2-2.5s-.3-1.4-.6-2-.7-1-1.1-1.3-1-.5-1.6-.5c-.4 0-.8.1-1.2.2s-.8.3-1.2.6-.9.7-1.4 1.1-1 1.1-1.5 1.8v8.6l1.8.6s1.2.2 1.8.2c1.7 0 2.9-.6 3.9-1.7s1.3-2.9 1.3-5.1zm23.2 0c0 1.4-.2 2.6-.6 3.8s-.9 2.1-1.7 2.9-1.6 1.4-2.7 1.9-2.2.7-3.6.7c-1.3 0-2.4-.2-3.4-.6s-1.9-1-2.5-1.7-1.2-1.7-1.6-2.8-.6-2.4-.6-3.9c0-1.4.2-2.6.6-3.8s.9-2.1 1.7-2.9 1.6-1.4 2.7-1.9 2.2-.7 3.6-.7c1.3 0 2.4.2 3.4.6s1.9 1 2.5 1.7 1.2 1.7 1.6 2.8.6 2.4.6 3.9zm-3.1.1c0-1.1-.1-2-.4-2.9s-.6-1.5-1-2-1-1-1.6-1.2-1.4-.4-2.1-.4c-.9 0-1.7.2-2.3.5s-1.2.8-1.6 1.4-.7 1.3-.9 2.1-.3 1.6-.3 2.5c0 1.1.1 2 .4 2.9s.6 1.5 1 2 1 1 1.6 1.2 1.3.4 2.1.4c.9 0 1.7-.2 2.3-.5s1.2-.8 1.6-1.4.7-1.3.9-2.1.3-1.6.3-2.5zm23.7 6.2l-.2 7.1h-2.8v-4.5h-13.3v-17.6h3.1v15h8.1v-15h3.1v15h2zm18.6-7.1v1.1s0 .6-.1.8h-12.4c0 1.8.5 3.2 1.5 4.2s2.5 1.5 4.4 1.5c.5 0 1 0 1.5-.1s1-.1 1.5-.2.9-.1 1.4-.2l1.2-.3v2.5c-.8.2-1.8.4-2.8.6s-2.1.2-3.3.2c-1.5 0-2.8-.2-3.9-.6s-2-1-2.7-1.8-1.2-1.7-1.5-2.9-.5-2.4-.5-3.8c0-1.2.2-2.4.5-3.5s.9-2.1 1.6-2.9 1.5-1.5 2.5-2 2.1-.7 3.4-.7c1.2 0 2.3.2 3.3.6s1.7.9 2.4 1.6 1.1 1.6 1.5 2.6.5 2 .5 3.3zm-3.2-.4c0-.8 0-1.5-.2-2.2s-.5-1.2-.9-1.7-.9-.8-1.5-1.1-1.3-.4-2-.4-1.3.1-1.8.4-1 .6-1.4 1.1-.7 1-1 1.7-.4 1.4-.5 2.2h9.3zm21.8 9.5c-.8.3-1.6.5-2.5.7s-1.7.2-2.6.2c-2.8 0-4.9-.8-6.4-2.3s-2.3-3.7-2.3-6.6c0-1.4.2-2.7.6-3.8s1-2.1 1.8-2.9 1.7-1.4 2.8-1.9 2.3-.7 3.6-.7c.9 0 1.8.1 2.6.2s1.6.3 2.3.6v2.9c-.8-.4-1.5-.7-2.3-.9s-1.6-.3-2.5-.3c-.8 0-1.5.1-2.2.4s-1.3.7-1.8 1.3-.9 1.2-1.2 2.1-.5 1.7-.5 2.7c0 2.1.5 3.7 1.6 4.8s2.5 1.6 4.3 1.6c.8 0 1.6-.1 2.4-.3s1.5-.5 2.3-.8v3zm19.7 0c-.8.3-1.6.5-2.5.7s-1.7.2-2.6.2c-2.8 0-4.9-.8-6.4-2.3s-2.3-3.7-2.3-6.6c0-1.4.2-2.7.6-3.8s1-2.1 1.8-2.9 1.7-1.4 2.8-1.9 2.3-.7 3.6-.7c.9 0 1.8.1 2.6.2s1.6.3 2.3.6v2.9c-.8-.4-1.5-.7-2.3-.9s-1.6-.3-2.5-.3c-.8 0-1.5.1-2.2.4s-1.3.7-1.8 1.3-.9 1.2-1.2 2.1-.5 1.7-.5 2.7c0 2.1.5 3.7 1.6 4.8s2.5 1.6 4.3 1.6c.8 0 1.6-.1 2.4-.3s1.5-.5 2.3-.8v3zm9.7-25.5c5.4 5 8.1 10.6 8.1 16.7 0 1.3-.1 2.6-.4 3.9s-.7 2.8-1.3 4.2-1.5 2.9-2.5 4.3-2.4 2.9-4 4.4l-1.8-1.8c2.3-2.3 4-4.6 5.1-7.1s1.7-5 1.7-7.7c0-5.6-2.3-10.6-6.8-15l1.9-1.9z"/><path class="st1" d="M360.6 378.8h150.7v27.7h-150.7z"/><path class="st2" d="M366.7 384.8h140.7v14.2h-140.7z"/><path d="M375.9 396.5h-1.4l-.2-6.8-.1-2.6-.5 1.5-1.7 4.4h-1l-1.5-4.1-.5-1.7v2.7l-.2 6.6h-1.4l.5-10.9h1.8l1.5 4.1.5 1.4.5-1.4 1.5-4.1h1.8l.4 10.9zm9-4.2c0 .6-.1 1.2-.3 1.8-.2.5-.4 1-.8 1.4s-.8.7-1.3.9-1.1.3-1.7.3c-.6 0-1.1-.1-1.6-.3-.5-.2-.9-.5-1.2-.8-.3-.4-.6-.8-.8-1.3-.2-.5-.3-1.1-.3-1.8 0-.6.1-1.2.3-1.8s.4-1 .8-1.4.8-.7 1.3-.9 1.1-.3 1.7-.3c.6 0 1.1.1 1.6.3.5.2.9.5 1.2.8.3.4.6.8.8 1.3.2.5.3 1.1.3 1.8zm-1.5 0c0-.5-.1-1-.2-1.3-.1-.4-.3-.7-.5-1-.2-.3-.5-.5-.8-.6-.3-.1-.6-.2-1-.2s-.8.1-1.1.3c-.3.2-.6.4-.8.7-.2.3-.3.6-.4 1-.1.4-.1.8-.1 1.2 0 .5.1 1 .2 1.4.1.4.3.7.5 1 .2.3.5.5.8.6s.6.2 1 .2.8-.1 1.1-.3c.3-.2.6-.4.8-.7.2-.3.3-.6.4-1 0-.5.1-.9.1-1.3zm5.8-.6c0-.6.1-1.2.2-1.7s.3-.8.5-1.1.5-.5.9-.7c.3-.1.7-.2 1.2-.2s.9.1 1.3.3.6.4.8.8.4.8.4 1.3.1 1.2.1 1.9c0 1.5-.2 2.6-.7 3.3s-1.2 1.1-2.1 1.1c-.5 0-1-.1-1.3-.3s-.6-.4-.8-.8-.3-.7-.4-1.2c-.1-.5-.1-1-.1-1.6h-1.5v3.8h-1.4v-8.3h1.4v3.5l1.5-.1zm4.1.6c0-1.2-.1-2-.3-2.5-.2-.5-.6-.7-1.1-.7-.2 0-.4.1-.6.2-.2.1-.3.3-.4.5-.1.2-.2.6-.3 1-.1.4-.1.9-.1 1.5 0 .7 0 1.2.1 1.6.1.4.1.7.3 1s.3.4.4.5c.2.1.4.1.6.1.2 0 .4-.1.6-.2s.3-.3.4-.5.2-.6.2-1c.2-.4.2-.9.2-1.5zm2.3 4.2v-8.3h1.3v7.1h1.9v-7.1h1.3v7.1h1.9v-7.1h1.3v7.1h.7l-.1 3.3h-1.3v-2.1h-7zm17.1-4.6v.9h-5.9c0 .9.2 1.5.7 2 .5.5 1.2.7 2.1.7h.7s.5 0 .7-.1.4-.1.7-.1l.6-.1v1.2c-.4.1-.8.2-1.3.3-.5.1-1 .1-1.5.1-.7 0-1.3-.1-1.8-.3-.5-.2-.9-.5-1.3-.8-.3-.4-.6-.8-.7-1.4-.2-.5-.2-1.1-.2-1.8 0-.6.1-1.1.3-1.7.2-.5.4-1 .7-1.4.3-.4.7-.7 1.2-.9s1-.3 1.6-.3c.6 0 1.1.1 1.5.3.4.2.8.4 1.1.8s.5.7.7 1.2c0 .3.1.8.1 1.4zm-1.5-.2c0-.4 0-.7-.1-1-.1-.3-.2-.6-.4-.8s-.4-.4-.7-.5c-.3-.1-.6-.2-1-.2-.3 0-.6.1-.9.2-.3.1-.5.3-.7.5-.2.2-.3.5-.5.8-.1.3-.2.6-.2 1h4.5zm10.8.2v.9h-5.9c0 .9.2 1.5.7 2 .5.5 1.2.7 2.1.7h.7s.5 0 .7-.1.4-.1.7-.1l.6-.1v1.2c-.4.1-.8.2-1.3.3-.5.1-1 .1-1.5.1-.7 0-1.3-.1-1.8-.3-.5-.2-.9-.5-1.3-.8-.3-.4-.6-.8-.7-1.4-.2-.5-.2-1.1-.2-1.8 0-.6.1-1.1.3-1.7.2-.5.4-1 .7-1.4.3-.4.7-.7 1.2-.9s1-.3 1.6-.3c.6 0 1.1.1 1.5.3.4.2.8.4 1.1.8s.5.7.7 1.2c.1.3.1.8.1 1.4zm-1.5-.2c0-.4 0-.7-.1-1-.1-.3-.2-.6-.4-.8s-.4-.4-.7-.5c-.3-.1-.6-.2-1-.2-.3 0-.6.1-.9.2-.3.1-.5.3-.7.5-.2.2-.3.5-.5.8-.1.3-.2.6-.2 1h4.5zm19.7 4.5c-.4.1-.8.3-1.2.3s-.8.1-1.2.1c-1.3 0-2.3-.4-3-1.1-.7-.7-1.1-1.8-1.1-3.1 0-.7.1-1.3.3-1.8s.5-1 .9-1.4.8-.7 1.3-.9c.5-.2 1.1-.3 1.7-.3.4 0 .8 0 1.2.1l1.1.3v1.4c-.4-.2-.7-.3-1.1-.4-.4-.1-.8-.1-1.2-.1-.4 0-.7.1-1 .2-.3.1-.6.3-.9.6s-.4.6-.6 1-.2.8-.2 1.3c0 1 .2 1.8.7 2.3.5.5 1.2.8 2 .8.4 0 .8 0 1.1-.1.4-.1.7-.2 1.1-.4l.1 1.2zm10-4c0 .7-.1 1.4-.3 1.9-.2.6-.5 1-.9 1.4s-.8.6-1.3.8c-.5.2-1 .3-1.6.3h-.8l-.8-.1v3.5h-1.5v-11.7h1.3l.1 1.4c.4-.6.9-1 1.3-1.2s1-.3 1.5-.3.9.1 1.3.3.7.5.9.8.4.8.5 1.3.3.9.3 1.6zm-1.5 0c0-.4 0-.8-.1-1.2-.1-.4-.2-.7-.3-.9s-.3-.5-.5-.6-.5-.2-.8-.2c-.2 0-.4 0-.6.1l-.6.3s-.4.3-.6.5c-.2.2-.5.5-.7.8v4l.8.3s.6.1.9.1c.8 0 1.4-.3 1.8-.8s.7-1.3.7-2.4zm10.7-.3v.9h-5.9c0 .9.2 1.5.7 2 .5.5 1.2.7 2.1.7h.7s.5 0 .7-.1.4-.1.7-.1l.6-.1v1.2c-.4.1-.8.2-1.3.3-.5.1-1 .1-1.5.1-.7 0-1.3-.1-1.8-.3-.5-.2-.9-.5-1.3-.8-.3-.4-.6-.8-.7-1.4-.2-.5-.2-1.1-.2-1.8 0-.6.1-1.1.3-1.7.2-.5.4-1 .7-1.4.3-.4.7-.7 1.2-.9s1-.3 1.6-.3c.6 0 1.1.1 1.5.3.4.2.8.4 1.1.8s.5.7.7 1.2c0 .3.1.8.1 1.4zm-1.5-.2c0-.4 0-.7-.1-1-.1-.3-.2-.6-.4-.8s-.4-.4-.7-.5c-.3-.1-.6-.2-1-.2-.3 0-.6.1-.9.2-.3.1-.5.3-.7.5-.2.2-.3.5-.5.8-.1.3-.2.6-.2 1h4.5zm11.6 3.5l-.1 3.4h-1.3v-2.1h-6.1v2.1h-1.3l-.1-3.4h.1c.2 0 .4 0 .6-.1s.4-.2.5-.4.3-.4.4-.8.3-.8.4-1.3c.1-.5.2-1.2.3-1.9.1-.7.1-1.6.2-2.7h5.1v7.1l1.3.1zm-2.7-5.8h-2.3c-.1 1-.1 1.8-.2 2.4-.1.7-.2 1.2-.3 1.7-.1.5-.3.8-.4 1.1s-.3.5-.5.6h3.8l-.1-5.8zm10.7 6.8c-.4.1-.8.3-1.2.3s-.8.1-1.2.1c-1.3 0-2.3-.4-3-1.1-.7-.7-1.1-1.8-1.1-3.1 0-.7.1-1.3.3-1.8s.5-1 .9-1.4.8-.7 1.3-.9c.5-.2 1.1-.3 1.7-.3.4 0 .8 0 1.2.1l1.1.3v1.4c-.4-.2-.7-.3-1.1-.4-.4-.1-.8-.1-1.2-.1-.4 0-.7.1-1 .2-.3.1-.6.3-.9.6s-.4.6-.6 1-.2.8-.2 1.3c0 1 .2 1.8.7 2.3.5.5 1.2.8 2 .8.4 0 .8 0 1.1-.1.4-.1.7-.2 1.1-.4l.1 1.2zm10.2-6.8h-3.2v7.1h-1.5v-7.1h-3.2v-1.2h7.8l.1 1.2zm9.2 4.7c0 .4-.1.7-.2 1-.2.3-.4.6-.7.8-.3.2-.8.4-1.3.5-.5.1-1.1.2-1.8.2-.5 0-1 0-1.5-.1s-1-.1-1.5-.1v-8.2c.5-.1 1-.1 1.6-.1h1.7c1.1 0 2 .2 2.6.6.6.4.9.9.9 1.6 0 .5-.1.9-.4 1.2s-.7.6-1.2.7c.3 0 .5.1.8.2s.5.2.7.4l.5.6s-.2.4-.2.7zm-1.9-3.7c0-.2 0-.4-.1-.5-.1-.2-.2-.3-.4-.4s-.4-.2-.7-.3c-.3-.1-.6-.1-1-.1h-.9c-.3 0-.5 0-.8.1v2.4h1.7c1.5.1 2.2-.3 2.2-1.2zm.4 3.7c0-.4-.2-.8-.6-1-.4-.2-1-.3-1.8-.3h-1.8v2.5l.8.1h.9c.5 0 .9 0 1.2-.1.3-.1.6-.2.8-.3.2-.1.3-.3.4-.4.1-.1.1-.3.1-.5zm11-1.8c0 .6-.1 1.2-.3 1.8-.2.5-.4 1-.8 1.4s-.8.7-1.3.9c-.5.2-1.1.3-1.7.3-.6 0-1.1-.1-1.6-.3-.5-.2-.9-.5-1.2-.8s-.6-.8-.8-1.3c-.2-.5-.3-1.1-.3-1.8 0-.6.1-1.2.3-1.8.2-.5.4-1 .8-1.4s.8-.7 1.3-.9c.5-.2 1.1-.3 1.7-.3.6 0 1.1.1 1.6.3.5.2.9.5 1.2.8.3.4.6.8.8 1.3.2.5.3 1.1.3 1.8zm-1.5 0c0-.5-.1-1-.2-1.3s-.3-.7-.5-1c-.2-.3-.5-.5-.8-.6-.3-.1-.6-.2-1-.2s-.8.1-1.1.3c-.3.2-.6.4-.8.7s-.3.6-.4 1c-.1.4-.1.8-.1 1.2 0 .5.1 1 .2 1.4.1.4.3.7.5 1 .2.3.5.5.8.6s.6.2 1 .2.8-.1 1.1-.3c.3-.2.6-.4.8-.7.2-.3.3-.6.4-1 0-.5.1-.9.1-1.3z"/><path class="st1" d="M519.5 378.8h142.4v27.7h-142.4z"/><path class="st2" d="M519.5 384.8h140.7v14.2h-140.7z"/><path d="M536.1 390.3c0-.6-.2-1.1-.3-1.5s-.4-.8-.6-1.1c-.3-.3-.6-.5-1-.7s-.9-.2-1.4-.2c-.5 0-.9.1-1.3.2s-.8.3-1.2.5v-1.5c.4-.2.9-.3 1.3-.4.5-.1.9-.1 1.4-.1.8 0 1.5.1 2.1.4.6.2 1.1.6 1.5 1.1s.7 1 .9 1.7.3 1.5.3 2.3c0 .9-.1 1.8-.3 2.5-.2.7-.5 1.3-1 1.8-.4.5-.9.8-1.5 1-.6.2-1.3.3-2.1.3-.5 0-1 0-1.4-.1-.4-.1-.9-.2-1.3-.4v-1.4c.4.2.8.4 1.2.5.4.1.9.2 1.4.2 1.1 0 2-.3 2.5-1 .5-.6.8-1.6.9-2.9h-5.2v-1.2h5.1zm10.3 6.2h-1.4v-7.1h-2.3c-.1 1.1-.2 2.1-.3 2.9-.1.8-.3 1.5-.5 2s-.4 1-.6 1.3-.5.5-.8.7c-.3.1-.6.2-.9.2s-.6 0-.9-.1l.1-1.2h.6s.4-.1.5-.3.3-.4.5-.7c.1-.3.3-.7.4-1.3s.2-1.2.3-2c.1-.8.1-1.7.2-2.8h5.1v8.4zm9.8-4.6v.9h-5.9c0 .9.2 1.5.7 2 .5.5 1.2.7 2.1.7h.7c.2 0 .5 0 .7-.1s.4-.1.7-.1l.6-.1v1.2c-.4.1-.8.2-1.3.3-.5.1-1 .1-1.5.1-.7 0-1.3-.1-1.8-.3-.5-.2-.9-.5-1.3-.8-.3-.4-.6-.8-.7-1.4-.2-.5-.2-1.1-.2-1.8 0-.6.1-1.1.3-1.7.2-.5.4-1 .7-1.4.3-.4.7-.7 1.2-.9s1-.3 1.6-.3c.6 0 1.1.1 1.5.3.4.2.8.4 1.1.8.3.3.5.7.7 1.2 0 .3.1.8.1 1.4zm-1.5-.2c0-.4 0-.7-.1-1-.1-.3-.2-.6-.4-.8s-.4-.4-.7-.5c-.3-.1-.6-.2-1-.2-.3 0-.6.1-.9.2-.3.1-.5.3-.7.5-.2.2-.3.5-.5.8-.1.3-.2.6-.2 1h4.5zm11.3 4.8h-2l-3.9-4.5v4.5h-1.4v-8.3h1.4v3.8l3.7-3.8h1.9l-3.9 3.8 4.2 4.5zm9.1-7.1h-3.2v7.1h-1.5v-7.1h-3.2v-1.2h7.8v1.2zm9.2 2.8c0 .7-.1 1.4-.3 1.9-.2.6-.5 1-.9 1.4s-.8.6-1.3.8c-.5.2-1 .3-1.6.3h-.8l-.8-.1v3.5h-1.4v-11.7h1.3l.1 1.4c.4-.6.9-1 1.3-1.2s1-.3 1.5-.3.9.1 1.3.3c.4.2.7.5.9.8s.4.8.5 1.3.2.9.2 1.6zm-1.5 0c0-.4 0-.8-.1-1.2-.1-.4-.2-.7-.3-.9s-.3-.5-.5-.6-.5-.2-.8-.2c-.2 0-.4 0-.6.1l-.6.3s-.4.3-.6.5c-.2.2-.5.5-.7.8v4l.8.3c.3.1.6.1.9.1.8 0 1.4-.3 1.8-.8s.7-1.3.7-2.4zm5.3-4v5.9l3.6-5.9h1.4v8.3h-1.4v-5.9l-3.6 5.9h-1.4v-8.3h1.4zm13 5.1h-1.7c-1.3 0-2.2-.2-2.8-.7s-.9-1.2-.9-2.1v-2.3h1.5v2.1c0 .3 0 .6.1.8.1.2.2.4.4.6.2.1.4.2.8.3.3.1.7.1 1.1.1h1.6v-3.9h1.4v8.3h-1.4v-3.2zm11.1-1.4v.9h-5.9c0 .9.2 1.5.7 2 .5.5 1.2.7 2.1.7h.7c.2 0 .5 0 .7-.1s.4-.1.7-.1l.6-.1v1.2c-.4.1-.8.2-1.3.3-.5.1-1 .1-1.5.1-.7 0-1.3-.1-1.8-.3-.5-.2-.9-.5-1.3-.8-.3-.4-.6-.8-.7-1.4-.2-.5-.2-1.1-.2-1.8 0-.6.1-1.1.3-1.7.2-.5.4-1 .7-1.4.3-.4.7-.7 1.2-.9s1-.3 1.6-.3c.6 0 1.1.1 1.5.3.4.2.8.4 1.1.8.3.3.5.7.7 1.2.1.3.1.8.1 1.4zm-1.5-.2c0-.4 0-.7-.1-1-.1-.3-.2-.6-.4-.8s-.4-.4-.7-.5c-.3-.1-.6-.2-1-.2-.3 0-.6.1-.9.2-.3.1-.5.3-.7.5-.2.2-.3.5-.5.8-.1.3-.2.6-.2 1h4.5zm10.3 4.5c-.4.1-.8.3-1.2.3s-.8.1-1.2.1c-1.3 0-2.3-.4-3-1.1-.7-.7-1.1-1.8-1.1-3.1 0-.7.1-1.3.3-1.8.2-.5.5-1 .9-1.4.4-.4.8-.7 1.3-.9.5-.2 1.1-.3 1.7-.3.4 0 .8 0 1.2.1l1.1.3v1.4c-.4-.2-.7-.3-1.1-.4-.4-.1-.8-.1-1.2-.1-.4 0-.7.1-1 .2-.3.1-.6.3-.9.6-.2.3-.4.6-.6 1s-.2.8-.2 1.3c0 1 .2 1.8.7 2.3.5.5 1.2.8 2 .8.4 0 .8 0 1.1-.1.4-.1.7-.2 1.1-.4l.1 1.2zm10.1-6.8h-3.1v7.1h-1.5v-7.1h-3.2v-1.2h7.8v1.2zm9.3 4.7c0 .4-.1.7-.2 1-.2.3-.4.6-.7.8-.3.2-.8.4-1.3.5-.5.1-1.1.2-1.8.2-.5 0-1 0-1.5-.1s-1-.1-1.5-.1v-8.2c.5-.1 1-.1 1.6-.1h1.7c1.1 0 2 .2 2.6.6s.9.9.9 1.6c0 .5-.1.9-.4 1.2s-.7.6-1.2.7c.3 0 .5.1.8.2s.5.2.7.4l.5.6c-.3.1-.2.4-.2.7zm-1.9-3.7c0-.2 0-.4-.1-.5-.1-.2-.2-.3-.4-.4-.2-.1-.4-.2-.7-.3-.3-.1-.6-.1-1-.1h-.9c-.3 0-.5 0-.8.1v2.4h1.7c1.5.1 2.2-.3 2.2-1.2zm.4 3.7c0-.4-.2-.8-.6-1-.4-.2-1-.3-1.8-.3h-1.8v2.5l.8.1h.9c.5 0 .9 0 1.2-.1s.6-.2.8-.3c.2-.1.3-.3.4-.4 0-.1.1-.3.1-.5zm10.9-1.8c0 .6-.1 1.2-.3 1.8-.2.5-.4 1-.8 1.4s-.8.7-1.3.9c-.5.2-1.1.3-1.7.3-.6 0-1.1-.1-1.6-.3-.5-.2-.9-.5-1.2-.8-.3-.4-.6-.8-.8-1.3-.2-.5-.3-1.1-.3-1.8 0-.6.1-1.2.3-1.8.2-.5.4-1 .8-1.4s.8-.7 1.3-.9c.5-.2 1.1-.3 1.7-.3.6 0 1.1.1 1.6.3.5.2.9.5 1.2.8.3.4.6.8.8 1.3.3.5.3 1.1.3 1.8zm-1.4 0c0-.5-.1-1-.2-1.3-.1-.4-.3-.7-.5-1-.2-.3-.5-.5-.8-.6s-.6-.2-1-.2-.8.1-1.1.3c-.3.2-.6.4-.8.7-.2.3-.3.6-.4 1-.1.4-.1.8-.1 1.2 0 .5.1 1 .2 1.4.1.4.3.7.5 1 .2.3.5.5.8.6s.6.2 1 .2.8-.1 1.1-.3c.3-.2.6-.4.8-.7.2-.3.3-.6.4-1 0-.5.1-.9.1-1.3z"/><path class="st1" d="M215.2 378.5h134.1v27.7h-134.1z"/><path class="st2" d="M210.2 384.5h140.7v14.2h-140.7z"/><path d="M270.2 393c0 .5-.1 1-.3 1.4-.2.4-.5.7-.9 1-.4.3-.8.5-1.4.6s-1.1.2-1.8.2h-2.8v-10.9h3.1c2.4 0 3.6.9 3.6 2.6 0 .6-.1 1.1-.4 1.5-.3.4-.7.7-1.4.9.3.1.6.1.8.3.3.1.5.3.7.5s.4.5.5.7.3.8.3 1.2zm-1.9-4.8c0-.2 0-.4-.1-.6s-.2-.4-.3-.5c-.2-.1-.4-.3-.7-.3s-.6-.1-1.1-.1h-1.5v3.4h1.5c.3 0 .6 0 .9-.1.3-.1.5-.2.7-.3.2-.1.3-.3.5-.6.1-.3.1-.6.1-.9zm.4 4.8c0-.3-.1-.5-.2-.7-.1-.2-.3-.4-.5-.6s-.5-.3-.8-.4c-.3-.1-.7-.1-1.1-.1h-1.5v3.7h1.6c.8 0 1.5-.2 1.9-.5.4-.2.6-.7.6-1.4zm11-1c0 .6-.1 1.2-.3 1.8-.2.5-.4 1-.8 1.4s-.8.7-1.3.9-1.1.3-1.7.3c-.6 0-1.1-.1-1.6-.3-.5-.2-.9-.5-1.2-.8-.3-.4-.6-.8-.8-1.3-.2-.5-.3-1.1-.3-1.8 0-.6.1-1.2.3-1.8s.4-1 .8-1.4.8-.7 1.3-.9 1.1-.3 1.7-.3c.6 0 1.1.1 1.6.3.5.2.9.5 1.2.8.3.4.6.8.8 1.3.3.5.3 1.1.3 1.8zm-1.4.1c0-.5-.1-1-.2-1.3s-.3-.7-.5-1c-.2-.3-.5-.5-.8-.6s-.6-.2-1-.2-.8.1-1.1.3c-.3.2-.6.4-.8.7-.2.3-.3.6-.4 1-.1.4-.1.8-.1 1.2 0 .5.1 1 .2 1.4.1.4.3.7.5 1 .2.3.5.5.8.6s.6.2 1 .2.8-.1 1.1-.3.6-.4.8-.7c.2-.3.3-.6.4-1 0-.5.1-.9.1-1.3zm11.3 2.9l-.1 3.4h-1.3v-2.1h-6.1v2.1h-1.3l-.1-3.4h.1c.2 0 .4 0 .6-.1s.4-.2.5-.4.3-.4.4-.8c.1-.3.3-.8.4-1.3.1-.5.2-1.2.3-1.9.1-.7.1-1.6.2-2.7h5.1v7.1l1.3.1zm-2.7-5.8h-2.3c-.1 1-.1 1.8-.2 2.4-.1.7-.2 1.2-.3 1.7-.1.5-.3.8-.4 1.1s-.3.5-.5.6h3.8l-.1-5.8zm9.6 7v-1.1c-.5.4-.9.8-1.4 1-.5.2-1 .3-1.5.3s-.9-.1-1.2-.2-.6-.3-.8-.5c-.2-.2-.4-.5-.5-.8-.1-.3-.2-.6-.2-.9 0-.8.3-1.5.9-2 .6-.5 1.5-.7 2.8-.7h1.7v-.7c0-.5-.2-.9-.5-1.2s-.8-.4-1.4-.4c-.5 0-.9.1-1.4.2l-1.4.4v-1.3l.6-.2.7-.2s.5-.1.8-.1h.8c.5 0 1 .1 1.4.2s.7.3 1 .5c.3.2.5.5.6.9s.2.7.2 1.2v5.7l-1.2-.1zm-.1-3.7h-1.8c-.4 0-.7 0-.9.1s-.5.2-.6.3-.3.3-.4.5c-.1.2-.1.4-.1.6 0 .2 0 .3.1.5s.1.3.2.4.3.2.4.3.4.1.6.1c.3 0 .7-.1 1.1-.3.4-.2.9-.5 1.4-1v-1.5z"/><path class="st4" d="M226.2 99.8h7.5v226.5h-7.5z"/><path class="st2" d="M217.8 99.9h94.5v31h-94.5z"/><path d="M250 111.2c-.5.2-.9.3-1.4.4-.5.1-.9.1-1.4.1-.8 0-1.5-.1-2.1-.3-.6-.2-1.1-.6-1.5-1-.4-.5-.7-1-.9-1.7-.2-.7-.3-1.5-.3-2.3 0-.9.1-1.7.3-2.4.2-.7.6-1.3 1-1.8s1-.9 1.6-1.1c.6-.3 1.3-.4 2.1-.4h.7c.2 0 .4 0 .6.1l.6.1s.4.1.7.2v2c-.5-.2-.9-.4-1.3-.5s-.8-.1-1.2-.1c-.5 0-1 .1-1.3.3-.4.2-.7.4-.9.8-.2.3-.4.7-.5 1.2s-.2 1-.2 1.5c0 .6.1 1.1.2 1.6s.3.9.5 1.2.5.6.9.7c.4.2.8.3 1.3.3.2 0 .4 0 .6-.1l.6-.1.6-.2c.2-.1.4-.2.6-.2l.1 1.7zm6.7-6.3v6.7h-2.1v-6.7h-2.9v-1.7h7.9v1.7h-2.9zm10.1 6.8v-1.1c-.2.2-.4.4-.6.5s-.4.3-.6.4-.5.2-.8.3c-.3.1-.6.1-.9.1-.4 0-.8-.1-1.1-.2s-.6-.3-.8-.5-.4-.5-.5-.8-.2-.7-.2-1.1c0-.4.1-.8.3-1.1.2-.3.4-.6.8-.9s.8-.4 1.3-.6c.5-.1 1.1-.2 1.8-.2h1.1v-.5c0-.2 0-.4-.1-.6-.1-.2-.2-.3-.3-.4-.1-.1-.3-.2-.5-.3s-.5-.1-.8-.1c-.5 0-1 .1-1.5.2s-1 .3-1.4.5v-1.6c.4-.2.9-.3 1.4-.4.5-.1 1.1-.2 1.6-.2.6 0 1.2.1 1.6.2.4.1.8.3 1.1.5.3.2.5.5.6.9.1.4.2.8.2 1.3v5.8c0-.1-1.7-.1-1.7-.1zm-.3-3.8h-1.2c-.3 0-.6 0-.9.1l-.6.3s-.3.3-.3.4c-.1.2-.1.3-.1.5 0 .3.1.6.3.8s.5.3.9.3c.3 0 .6-.1.9-.3s.6-.5 1-.9v-1.2zm11.9-.6c0 .8-.1 1.4-.3 2-.2.6-.5 1-.9 1.4-.4.4-.9.7-1.4.8-.5.2-1.1.3-1.7.3h-.6s-.4-.1-.6-.1v3.3h-2v-11.7h1.8v1.2c.2-.2.4-.4.5-.6l.6-.5c.2-.1.4-.2.7-.3s.5-.1.8-.1c.5 0 .9.1 1.3.3s.7.5 1 .9.5.8.6 1.3c.2.6.2 1.1.2 1.8zm-2.1.1c0-.5 0-.9-.1-1.2s-.2-.6-.3-.8c-.1-.2-.3-.4-.5-.5-.2-.1-.4-.1-.6-.1-.3 0-.7.1-1 .4-.3.3-.6.7-1 1.1v3.7c.2.1.4.1.6.1l.7.1c.3 0 .6-.1.9-.2.3-.1.5-.3.7-.6.2-.2.3-.5.4-.9.2-.3.2-.7.2-1.1zm8.4-2.5v6.7h-2.1v-6.7h-2.9v-1.7h7.9v1.7h-2.9z"/><path class="st2" d="M241.5 123.8h80.5v116.7h-80.5z"/><path d="M248.5 130.7c-.3.1-.7.2-1.1.3-.4.1-.9.1-1.3.1-.7 0-1.2-.1-1.7-.3-.5-.2-.9-.4-1.2-.8s-.5-.7-.7-1.2c-.1-.5-.2-1-.2-1.5v-2.8h1.5v2.6c0 .4 0 .8.1 1.1s.2.6.4.8.4.4.7.5c.3.1.6.2 1.1.2.4 0 .9 0 1.3-.1s.8-.2 1.1-.3v-4.8h1.5v10.8h-1.5v-4.6zm10.7.2v.9h-5.9c0 .9.2 1.5.7 2 .5.5 1.2.7 2.1.7h.7c.2 0 .5 0 .7-.1s.4-.1.7-.1l.6-.1v1.2c-.4.1-.8.2-1.3.3-.5.1-1 .1-1.5.1-.7 0-1.3-.1-1.8-.3s-.9-.5-1.3-.8c-.3-.4-.6-.8-.7-1.4-.2-.5-.2-1.1-.2-1.8 0-.6.1-1.1.3-1.7.2-.5.4-1 .7-1.4.3-.4.7-.7 1.2-.9s1-.3 1.6-.3c.6 0 1.1.1 1.5.3s.8.4 1.1.8c.3.3.5.7.7 1.2.1.3.1.8.1 1.4zm-1.5-.2c0-.4 0-.7-.1-1-.1-.3-.2-.6-.4-.8-.2-.2-.4-.4-.7-.5-.3-.1-.6-.2-1-.2-.3 0-.6.1-.9.2s-.5.3-.7.5-.3.5-.5.8-.2.6-.2 1h4.5zm11.1-2.3h-3.2v7.1h-1.5v-7.1h-3.1v-1.2h7.8v1.2zm9.6 7.1h-2l-3.9-4.5v4.5h-1.4v-8.3h1.4v3.8l3.7-3.8h1.9l-3.9 3.8 4.2 4.5zm7.2 0v-1.1c-.5.4-.9.8-1.4 1-.5.2-1 .3-1.5.3s-.9-.1-1.2-.2-.6-.3-.8-.5c-.2-.2-.4-.5-.5-.8-.1-.3-.2-.6-.2-.9 0-.8.3-1.5.9-2 .6-.5 1.5-.7 2.8-.7h1.7v-.7c0-.5-.2-.9-.5-1.2s-.8-.4-1.4-.4c-.5 0-.9.1-1.4.2l-1.4.4v-1.3l.6-.2s.5-.1.7-.2.5-.1.8-.1h.8c.5 0 1 .1 1.4.2s.7.3 1 .5.5.5.6.9.2.7.2 1.2v5.7l-1.2-.1zm-.2-3.8h-1.8c-.4 0-.7 0-.9.1s-.5.2-.6.3-.3.3-.4.5c-.1.2-.1.4-.1.6 0 .2 0 .3.1.5 0 .1.1.3.2.4l.4.3s.4.1.6.1c.3 0 .7-.1 1.1-.3.4-.2.9-.5 1.4-1v-1.5zm4.7 1.4c.2-.4.4-.7.6-.9s.5-.3.8-.4l-.9-.3s-.4-.3-.5-.5l-.3-.6c-.1-.2-.1-.4-.1-.7 0-.4.1-.7.2-1s.3-.6.6-.8.6-.4 1.1-.6c.4-.1 1.1-.2 1.9-.2h1.4l1.3.1v8.3h-1.4v-3.2h-1.3c-.2 0-.4 0-.6.1s-.4.1-.6.2c-.2.1-.3.2-.5.4l-.4.6-.9 2h-1.5l1.1-2.5zm1.1-3.4c0 .5.2.8.5 1.1.3.2.8.4 1.4.4h1.6v-2.8c-.2 0-.5 0-.7-.1h-.7c-.5 0-.8 0-1.1.1l-.6.3c-.1.1-.3.3-.3.4 0 .1-.1.3-.1.6zm-46.2 19.1v7.1h-1.5v-8.3h6v1.2h-4.5zm14.3 2.8c0 .7-.1 1.4-.3 1.9-.2.6-.5 1-.9 1.4s-.8.6-1.3.8-1 .3-1.6.3h-.8l-.8-.1v3.5h-1.4v-11.7h1.3l.1 1.4c.4-.6.9-1 1.3-1.2.5-.2 1-.3 1.5-.3s.9.1 1.3.3.7.5.9.8c.2.4.4.8.5 1.3.2.4.2.9.2 1.6zm-1.5 0c0-.4 0-.8-.1-1.2-.1-.4-.2-.7-.3-.9s-.3-.5-.5-.6c-.2-.1-.5-.2-.8-.2-.2 0-.4 0-.6.1l-.6.3c-.2.1-.4.3-.6.5-.2.2-.5.5-.7.8v4l.8.3c.3.1.6.1.9.1.8 0 1.4-.3 1.8-.8.5-.5.7-1.3.7-2.4zm9.1 4.3v-1.1c-.5.4-.9.8-1.4 1-.5.2-1 .3-1.5.3s-.9-.1-1.2-.2-.6-.3-.8-.5c-.2-.2-.4-.5-.5-.8-.1-.3-.2-.6-.2-.9 0-.8.3-1.5.9-2 .6-.5 1.5-.7 2.8-.7h1.7v-.7c0-.5-.2-.9-.5-1.2s-.8-.4-1.4-.4c-.5 0-.9.1-1.4.2l-1.4.4v-1.3l.6-.2.7-.2s.5-.1.8-.1h.8c.5 0 1 .1 1.4.2s.7.3 1 .5c.3.2.5.5.6.9s.2.7.2 1.2v5.7l-1.2-.1zm-.2-3.8h-1.8c-.4 0-.7 0-.9.1s-.5.2-.6.3-.3.3-.4.5c-.1.2-.1.4-.1.6 0 .2 0 .3.1.5 0 .1.1.3.2.4s.3.2.4.3.4.1.6.1c.3 0 .7-.1 1.1-.3.4-.2.9-.5 1.4-1v-1.5zm10.9 3.8h-1.4v-3.7h-3.8v3.7h-1.4v-8.3h1.4v3.4h3.8v-3.4h1.4v8.3zm4.2-8.3v5.9l3.6-5.9h1.4v8.3h-1.4v-5.9l-3.6 5.9h-1.4v-8.3h1.4zm15.4 7.1l-.1 3.4h-1.3v-2.1h-6.3v-8.3h1.4v7.1h3.8v-7.1h1.4v7.1h1.1zm7.1 1.2v-1.1c-.5.4-.9.8-1.4 1-.5.2-1 .3-1.5.3s-.9-.1-1.2-.2-.6-.3-.8-.5c-.2-.2-.4-.5-.5-.8-.1-.3-.2-.6-.2-.9 0-.8.3-1.5.9-2 .6-.5 1.5-.7 2.8-.7h1.7v-.7c0-.5-.2-.9-.5-1.2s-.8-.4-1.4-.4c-.5 0-.9.1-1.4.2l-1.4.4v-1.3l.6-.2.7-.2s.5-.1.8-.1h.8c.5 0 1 .1 1.4.2s.7.3 1 .5c.3.2.5.5.6.9s.2.7.2 1.2v5.7l-1.2-.1zm-.2-3.8h-1.8c-.4 0-.7 0-.9.1s-.5.2-.6.3-.3.3-.4.5c-.1.2-.1.4-.1.6 0 .2 0 .3.1.5 0 .1.1.3.2.4s.3.2.4.3.4.1.6.1c.3 0 .7-.1 1.1-.3.4-.2.9-.5 1.4-1v-1.5zm-54.1 21.8c0 .4-.1.7-.2 1s-.4.6-.7.8c-.3.2-.8.4-1.3.5-.5.1-1.1.2-1.8.2-.5 0-1 0-1.5-.1s-1-.1-1.5-.1v-8.2c.5-.1 1-.1 1.6-.1.5 0 1.1-.1 1.7-.1 1.1 0 2 .2 2.6.6s.9.9.9 1.6c0 .5-.1.9-.4 1.2s-.7.6-1.2.7c.3 0 .5.1.8.2.2.1.5.2.7.4s.3.4.5.6c-.3.2-.2.5-.2.8zm-1.9-3.7c0-.2 0-.4-.1-.5s-.2-.3-.4-.4c-.2-.1-.4-.2-.7-.3-.3-.1-.6-.1-1-.1h-.9c-.3 0-.5 0-.8.1v2.4h1.7c1.5.1 2.2-.3 2.2-1.2zm.4 3.7c0-.4-.2-.8-.6-1-.4-.2-1-.3-1.8-.3h-1.8v2.5l.8.1h.9c.5 0 .9 0 1.2-.1.3-.1.6-.2.8-.3.2-.1.3-.3.4-.4s.1-.3.1-.5zm19.7 2.4h-1.4v-3.7h-3.8v3.7h-1.4v-8.3h1.4v3.4h3.8v-3.4h1.4v8.3zm8 0v-1.1c-.5.4-.9.8-1.4 1-.5.2-1 .3-1.5.3s-.9-.1-1.2-.2-.6-.3-.8-.5c-.2-.2-.4-.5-.5-.8-.1-.3-.2-.6-.2-.9 0-.8.3-1.5.9-2 .6-.5 1.5-.7 2.8-.7h1.7v-.7c0-.5-.2-.9-.5-1.2s-.8-.4-1.4-.4c-.5 0-.9.1-1.4.2l-1.4.4v-1.3l.6-.2.7-.2s.5-.1.8-.1h.8c.5 0 1 .1 1.4.2s.7.3 1 .5c.3.2.5.5.6.9s.2.7.2 1.2v5.7l-1.2-.1zm-.1-3.8h-1.8c-.4 0-.7 0-.9.1s-.5.2-.6.3-.3.3-.4.5c-.1.2-.1.4-.1.6 0 .2 0 .3.1.5 0 .1.1.3.2.4l.4.3s.4.1.6.1c.3 0 .7-.1 1.1-.3.4-.2.9-.5 1.4-1v-1.5zm9.4.6h-1.7c-1.3 0-2.2-.2-2.8-.7s-.9-1.2-.9-2.1v-2.3h1.5v2.1c0 .3 0 .6.1.8s.2.4.4.6c.2.1.4.2.8.3.3.1.7.1 1.1.1h1.6v-3.9h1.4v8.3h-1.4l-.1-3.2zm9.4 3.2v-1.1c-.5.4-.9.8-1.4 1-.5.2-1 .3-1.5.3s-.9-.1-1.2-.2-.6-.3-.8-.5c-.2-.2-.4-.5-.5-.8-.1-.3-.2-.6-.2-.9 0-.8.3-1.5.9-2 .6-.5 1.5-.7 2.8-.7h1.7v-.7c0-.5-.2-.9-.5-1.2s-.8-.4-1.4-.4c-.5 0-.9.1-1.4.2l-1.4.4v-1.3l.6-.2.7-.2s.5-.1.8-.1h.8c.5 0 1 .1 1.4.2s.7.3 1 .5c.3.2.5.5.6.9s.2.7.2 1.2v5.7l-1.2-.1zm-.1-3.8h-1.8c-.4 0-.7 0-.9.1s-.5.2-.6.3-.3.3-.4.5c-.1.2-.1.4-.1.6 0 .2 0 .3.1.5 0 .1.1.3.2.4l.4.3s.4.1.6.1c.3 0 .7-.1 1.1-.3.4-.2.9-.5 1.4-1v-1.5zm10.8 3.8h-1.4v-7.1h-2.3c-.1 1.1-.2 2.1-.3 2.9-.1.8-.3 1.5-.5 2s-.4 1-.6 1.3c-.2.3-.5.5-.8.7-.3.1-.6.2-.9.2-.3 0-.6 0-.9-.1l.1-1.2h.6s.4-.2.5-.3c.2-.2.3-.4.5-.7.1-.3.3-.7.4-1.3s.2-1.2.3-2c.1-.8.1-1.7.2-2.8h5.1v8.4zm9.7-4.6v.9h-5.9c0 .9.2 1.5.7 2 .5.5 1.2.7 2.1.7h.7c.2 0 .5 0 .7-.1s.4-.1.7-.1l.6-.1v1.2c-.4.1-.8.2-1.3.3-.5.1-1 .1-1.5.1-.7 0-1.3-.1-1.8-.3s-.9-.5-1.3-.8c-.3-.4-.6-.8-.7-1.4-.2-.5-.2-1.1-.2-1.8 0-.6.1-1.1.3-1.7.2-.5.4-1 .7-1.4.3-.4.7-.7 1.2-.9s1-.3 1.6-.3c.6 0 1.1.1 1.5.3s.8.4 1.1.8c.3.3.5.7.7 1.2 0 .3.1.8.1 1.4zm-1.5-.2c0-.4 0-.7-.1-1-.1-.3-.2-.6-.4-.8-.2-.2-.4-.4-.7-.5-.3-.1-.6-.2-1-.2-.3 0-.6.1-.9.2s-.5.3-.7.5-.3.5-.5.8-.2.6-.2 1h4.5z"/><path class="st5" d="M615.6 99.9h7.5v226h-7.5z"/><path class="st2" d="M607.5 99.9h94.5v31h-94.5z"/><path d="M637.1 100.6v1c.6.1 1 .2 1.5.4.4.2.8.5 1.1.8.3.4.5.8.7 1.3.1.5.2 1.2.2 1.9 0 .8-.1 1.5-.3 2.1-.2.6-.4 1-.7 1.4-.3.4-.7.7-1.1.9-.4.2-.9.3-1.4.4v1h-1.9v-1c-.6-.1-1.1-.2-1.5-.4-.4-.2-.8-.5-1.1-.8s-.5-.8-.7-1.3c-.1-.5-.2-1.2-.2-2s.1-1.5.3-2c.2-.6.4-1 .7-1.4.3-.4.7-.7 1.1-.9.4-.2.9-.4 1.4-.4v-1h1.9zm-3.4 5.6c0 .5 0 1 .1 1.3.1.3.2.6.3.8s.3.4.4.5l.6.3v-5.8l-.6.3c-.2.1-.3.3-.4.5s-.2.5-.3.8c-.1.4-.1.8-.1 1.3zm4.8.1c0-.5 0-.9-.1-1.2-.1-.3-.2-.6-.3-.8-.1-.2-.3-.4-.4-.5l-.6-.3v5.8l.6-.3c.2-.1.3-.3.5-.5.1-.2.2-.5.3-.8v-1.4zm8.6 5.4v-5.3l-3.3 5.3h-1.9v-8.4h2v5.3l3.3-5.3h1.9v8.4h-2zm9.3 0v-3.6h-3.3v3.6h-2v-8.4h2v3.2h3.3v-3.2h2v8.4h-2zm9.4 0v-5.3l-3.3 5.3h-1.9v-8.4h2v5.3l3.3-5.3h1.9v8.4h-2zm3.5-8.5h1.8v6.8h1.5v-6.8h1.8v6.8h1.5v-6.8h1.8v8.4h-8.4v-8.4z"/><path class="st2" d="M630.4 123.8h77.2v116.7h-77.2z"/><path d="M637.4 130.7c-.3.1-.7.2-1.1.3-.4.1-.8.1-1.3.1-.7 0-1.3-.1-1.7-.3s-.9-.4-1.2-.8-.5-.7-.7-1.2c-.1-.5-.2-1-.2-1.5v-2.8h1.5v2.6c0 .4 0 .8.1 1.1.1.3.2.6.4.8.2.2.4.4.7.5s.6.2 1.1.2c.4 0 .9 0 1.3-.1s.8-.2 1.1-.3v-4.8h1.5v10.8h-1.5v-4.6zm10.7.2v.9h-5.9c0 .9.2 1.5.7 2 .5.5 1.2.7 2.1.7h.7c.2 0 .5 0 .7-.1s.4-.1.7-.1l.6-.1v1.2c-.4.1-.8.2-1.3.3-.5.1-1 .1-1.5.1-.7 0-1.3-.1-1.8-.3s-.9-.5-1.3-.8c-.3-.4-.6-.8-.7-1.4-.2-.5-.2-1.1-.2-1.8 0-.6.1-1.1.3-1.7.2-.5.4-1 .7-1.4.3-.4.7-.7 1.2-.9s1-.3 1.6-.3c.6 0 1.1.1 1.5.3.4.2.8.4 1.1.8.3.3.5.7.7 1.2 0 .3.1.8.1 1.4zm-1.5-.2c0-.4 0-.7-.1-1-.1-.3-.2-.6-.4-.8-.2-.2-.4-.4-.7-.5-.3-.1-.6-.2-1-.2-.3 0-.6.1-.9.2-.3.1-.5.3-.7.5s-.3.5-.5.8c-.1.3-.2.6-.2 1h4.5zm11.1-2.3h-3.2v7.1h-1.5v-7.1h-3.2v-1.2h7.8v1.2zm9.6 7.1h-2l-3.9-4.5v4.5h-1.4v-8.3h1.4v3.8l3.7-3.8h1.9l-3.9 3.8 4.2 4.5zm7.2 0v-1.1c-.5.4-.9.8-1.4 1-.5.2-1 .3-1.5.3s-.9-.1-1.2-.2-.6-.3-.8-.5c-.2-.2-.4-.5-.5-.8-.1-.3-.2-.6-.2-.9 0-.8.3-1.5.9-2 .6-.5 1.5-.7 2.8-.7h1.7v-.7c0-.5-.2-.9-.5-1.2-.3-.3-.8-.4-1.4-.4-.5 0-.9.1-1.4.2s-.9.3-1.4.4v-1.3l.6-.2.7-.2s.5-.1.8-.1h.8c.5 0 1 .1 1.4.2.4.1.7.3 1 .5s.5.5.6.9.2.7.2 1.2v5.7l-1.2-.1zm-.2-3.8h-1.8c-.4 0-.7 0-.9.1-.3.1-.5.2-.6.3s-.3.3-.4.5c-.1.2-.1.4-.1.6 0 .2 0 .3.1.5 0 .1.1.3.2.4l.4.3c.2.1.4.1.6.1.3 0 .7-.1 1.1-.3.4-.2.9-.5 1.4-1v-1.5zm4.7 1.4c.2-.4.4-.7.6-.9.2-.2.5-.3.8-.4l-.9-.3c-.2-.1-.4-.3-.5-.5l-.3-.6c-.1-.2-.1-.4-.1-.7 0-.4.1-.7.2-1s.3-.6.6-.8c.3-.2.6-.4 1.1-.6.4-.1 1.1-.2 1.9-.2h1.4l1.3.1v8.3h-1.4v-3.2h-1.3c-.2 0-.4 0-.6.1-.2 0-.4.1-.6.2-.2.1-.3.2-.5.4l-.4.6-.9 2h-1.6l1.2-2.5zm1.1-3.4c0 .5.2.8.5 1.1s.8.4 1.4.4h1.6v-2.8c-.2 0-.5 0-.7-.1h-.7c-.5 0-.8 0-1.1.1l-.6.3c-.1.1-.3.3-.3.4 0 .1-.1.3-.1.6zm-46.2 19.1v7.1h-1.5v-8.3h6v1.2h-4.5zm14.3 2.8c0 .7-.1 1.4-.3 1.9-.2.6-.5 1-.9 1.4s-.8.6-1.3.8-1 .3-1.6.3h-.8l-.8-.1v3.5h-1.4v-11.7h1.3l.1 1.4c.4-.6.9-1 1.3-1.2.5-.2 1-.3 1.5-.3s.9.1 1.3.3c.4.2.7.5.9.8.2.4.4.8.5 1.3.1.4.2.9.2 1.6zm-1.5 0c0-.4 0-.8-.1-1.2-.1-.4-.2-.7-.3-.9s-.3-.5-.5-.6c-.2-.1-.5-.2-.8-.2-.2 0-.4 0-.6.1l-.6.3c-.2.1-.4.3-.6.5-.2.2-.5.5-.7.8v4l.8.3c.3.1.6.1.9.1.8 0 1.4-.3 1.8-.8.5-.5.7-1.3.7-2.4zm9.1 4.3v-1.1c-.5.4-.9.8-1.4 1-.5.2-1 .3-1.5.3s-.9-.1-1.2-.2-.6-.3-.8-.5c-.2-.2-.4-.5-.5-.8-.1-.3-.2-.6-.2-.9 0-.8.3-1.5.9-2 .6-.5 1.5-.7 2.8-.7h1.7v-.7c0-.5-.2-.9-.5-1.2-.3-.3-.8-.4-1.4-.4-.5 0-.9.1-1.4.2s-.9.3-1.4.4v-1.3l.6-.2.7-.2s.5-.1.8-.1h.8c.5 0 1 .1 1.4.2.4.1.7.3 1 .5s.5.5.6.9.2.7.2 1.2v5.7l-1.2-.1zm-.2-3.8h-1.8c-.4 0-.7 0-.9.1-.3.1-.5.2-.6.3s-.3.3-.4.5c-.1.2-.1.4-.1.6 0 .2 0 .3.1.5 0 .1.1.3.2.4l.4.3c.2.1.4.1.6.1.3 0 .7-.1 1.1-.3.4-.2.9-.5 1.4-1v-1.5zm10.9 3.8h-1.5v-3.7h-3.8v3.7h-1.4v-8.3h1.4v3.4h3.8v-3.4h1.4v8.3zm4.2-8.3v5.9l3.6-5.9h1.4v8.3h-1.4v-5.9l-3.6 5.9h-1.4v-8.3h1.4zm15.4 7.1l-.1 3.3h-1.3v-2.1h-6.3v-8.3h1.4v7.1h3.8v-7.1h1.4v7.1h1.1zm7.1 1.2v-1.1c-.5.4-.9.8-1.4 1-.5.2-1 .3-1.5.3s-.9-.1-1.2-.2-.6-.3-.8-.5c-.2-.2-.4-.5-.5-.8-.1-.3-.2-.6-.2-.9 0-.8.3-1.5.9-2 .6-.5 1.5-.7 2.8-.7h1.7v-.7c0-.5-.2-.9-.5-1.2-.3-.3-.8-.4-1.4-.4-.5 0-.9.1-1.4.2s-.9.3-1.4.4v-1.3l.6-.2.7-.2s.5-.1.8-.1h.8c.5 0 1 .1 1.4.2.4.1.7.3 1 .5s.5.5.6.9.2.7.2 1.2v5.7l-1.2-.1zm-.2-3.8h-1.8c-.4 0-.7 0-.9.1-.3.1-.5.2-.6.3s-.3.3-.4.5c-.1.2-.1.4-.1.6 0 .2 0 .3.1.5 0 .1.1.3.2.4l.4.3c.2.1.4.1.6.1.3 0 .7-.1 1.1-.3.4-.2.9-.5 1.4-1v-1.5zm-54.1 21.8c0 .4-.1.7-.2 1-.2.3-.4.6-.7.8-.3.2-.8.4-1.3.5-.5.1-1.1.2-1.8.2-.5 0-1 0-1.5-.1s-1-.1-1.5-.1v-8.2c.5-.1 1-.1 1.6-.1.5 0 1.1-.1 1.7-.1 1.1 0 2 .2 2.6.6s.9.9.9 1.6c0 .5-.1.9-.4 1.2s-.7.6-1.2.7c.3 0 .5.1.8.2.2.1.5.2.7.4s.3.4.5.6c-.3.2-.2.5-.2.8zm-1.9-3.7c0-.2 0-.4-.1-.5-.1-.2-.2-.3-.4-.4-.2-.1-.4-.2-.7-.3s-.6-.1-1-.1h-.9c-.3 0-.5 0-.8.1v2.4h1.7c1.5.1 2.2-.3 2.2-1.2zm.4 3.7c0-.4-.2-.8-.6-1-.4-.2-1-.3-1.8-.3h-1.8v2.5l.8.1h.9c.5 0 .9 0 1.2-.1s.6-.2.8-.3c.2-.1.3-.3.4-.4 0-.1.1-.3.1-.5zm20.5 2.4h-2l-3.9-4.5v4.5h-1.4v-8.3h1.4v3.8l3.7-3.8h1.9l-3.9 3.8 4.2 4.5zm9.1-4.2c0 .6-.1 1.2-.3 1.8-.2.5-.4 1-.8 1.4s-.8.7-1.3.9c-.5.2-1.1.3-1.7.3-.6 0-1.1-.1-1.6-.3-.5-.2-.9-.5-1.2-.8-.3-.4-.6-.8-.8-1.3-.2-.5-.3-1.1-.3-1.8 0-.6.1-1.2.3-1.8.2-.5.4-1 .8-1.4.3-.4.8-.7 1.3-.9.5-.2 1.1-.3 1.7-.3.6 0 1.1.1 1.6.3.5.2.9.5 1.2.8.3.4.6.8.8 1.3s.3 1.1.3 1.8zm-1.5 0c0-.5-.1-1-.2-1.3-.1-.4-.3-.7-.5-1-.2-.3-.5-.5-.8-.6-.3-.1-.6-.2-1-.2s-.8.1-1.1.3c-.3.2-.6.4-.8.7-.2.3-.3.6-.4 1-.1.4-.1.8-.1 1.2 0 .5.1 1 .2 1.4s.3.7.5 1c.2.3.5.5.8.6.3.1.6.2 1 .2s.8-.1 1.1-.3c.3-.2.6-.4.8-.7.2-.3.3-.6.4-1 .1-.5.1-.9.1-1.3zm10.3 4.2h-1.4v-3.7h-3.8v3.7h-1.4v-8.3h1.4v3.4h3.8v-3.4h1.4v8.3zm10.3-1.2l-.1 3.4h-1.3v-2.1h-6.3v-8.4h1.4v7.1h3.8v-7.1h1.4v7.1h1.1zm8.8-3.4v.9h-5.9c0 .9.2 1.5.7 2 .5.5 1.2.7 2.1.7h.7c.2 0 .5 0 .7-.1s.4-.1.7-.1l.6-.1v1.2c-.4.1-.8.2-1.3.3-.5.1-1 .1-1.5.1-.7 0-1.3-.1-1.8-.3s-.9-.5-1.3-.8c-.3-.4-.6-.8-.7-1.4-.2-.5-.2-1.1-.2-1.8 0-.6.1-1.1.3-1.7.2-.5.4-1 .7-1.4.3-.4.7-.7 1.2-.9s1-.3 1.6-.3c.6 0 1.1.1 1.5.3.4.2.8.4 1.1.8.3.3.5.7.7 1.2 0 .3.1.8.1 1.4zm-1.6-.2c0-.4 0-.7-.1-1-.1-.3-.2-.6-.4-.8s-.4-.4-.7-.5c-.3-.1-.6-.2-1-.2-.3 0-.6.1-.9.2-.3.1-.5.3-.7.5s-.3.5-.5.8c-.1.3-.2.6-.2 1h4.5z"/><path class="st1" d="M639 26.9h335.2v27.7h-335.2z"/><path class="st2" d="M609.1 35.4h374.5v109.1h-374.5z"/><path d="M664.5 47.1h-1.5v-9.5h-4.4v9.5h-1.5v-10.9h7.4v10.9zm9.6-4.2c0 .6-.1 1.2-.3 1.8-.2.5-.4 1-.8 1.4s-.8.7-1.3.9c-.5.2-1.1.3-1.7.3-.6 0-1.1-.1-1.6-.3-.5-.2-.9-.5-1.2-.8-.3-.4-.6-.8-.8-1.3-.2-.5-.3-1.1-.3-1.8 0-.6.1-1.2.3-1.8.2-.5.4-1 .8-1.4s.8-.7 1.3-.9c.5-.2 1.1-.3 1.7-.3.6 0 1.1.1 1.6.3.5.2.9.5 1.2.8.3.4.6.8.8 1.3.2.5.3 1.1.3 1.8zm-1.5 0c0-.5-.1-1-.2-1.3-.1-.4-.3-.7-.5-1-.2-.3-.5-.5-.8-.6s-.6-.2-1-.2-.8.1-1.1.3c-.3.2-.6.4-.8.7-.2.3-.3.6-.4 1-.1.4-.1.8-.1 1.2 0 .5.1 1 .2 1.4.1.4.3.7.5 1 .2.3.5.5.8.6s.6.2 1 .2.8-.1 1.1-.3c.3-.2.6-.4.8-.7.2-.3.3-.6.4-1 .1-.5.1-.9.1-1.3zm11.1 4.2h-2l-3.9-4.5v4.5h-1.4v-8.3h1.4v3.8l3.7-3.8h1.9l-3.9 3.8 4.2 4.5zm7.2 0v-1.1c-.5.4-.9.8-1.4 1-.5.2-1 .3-1.5.3s-.9-.1-1.2-.2-.6-.3-.8-.5-.4-.5-.5-.8c-.1-.3-.2-.6-.2-.9 0-.8.3-1.5.9-2 .6-.5 1.5-.7 2.8-.7h1.7v-.7c0-.5-.2-.9-.5-1.2-.3-.3-.8-.4-1.4-.4-.5 0-.9.1-1.4.2l-1.4.4v-1.3l.6-.2.7-.2s.5-.1.8-.1h.8c.5 0 1 .1 1.4.2.4.1.7.3 1 .5.3.2.5.5.6.9s.2.7.2 1.2v5.7l-1.2-.1zm-.2-3.8h-1.8c-.4 0-.7 0-.9.1-.3.1-.5.2-.6.3s-.4.3-.4.5c-.1.2-.1.4-.1.6 0 .2 0 .3.1.5s.1.3.2.4l.4.3c.2.1.4.1.6.1.3 0 .7-.1 1.1-.3.4-.2.9-.5 1.4-1v-1.5zm4 2.3c.2.1.5.1.8.2.3.1.6.1.8.1l.8.1h.7c.5 0 .9 0 1.2-.1s.6-.1.7-.3c.2-.1.3-.3.4-.4.1-.2.1-.3.1-.6 0-.2 0-.4-.1-.5s-.2-.3-.4-.4c-.2-.1-.4-.2-.7-.3s-.7-.1-1.2-.1h-2v-1.1h2c.4 0 .8 0 1-.1s.5-.1.6-.2c.2-.1.3-.2.3-.4.1-.1.1-.3.1-.5s0-.4-.1-.5-.2-.3-.3-.4-.4-.2-.6-.2-.6-.1-1-.1-.9 0-1.4.1c-.5.1-1 .1-1.5.3v-1.2c.2-.1.5-.1.7-.1s.5-.1.8-.1c.3 0 .5 0 .8-.1h.8c.7 0 1.2.1 1.6.2.4.1.8.3 1.1.5s.5.4.6.7.2.6.2.9c0 .2 0 .5-.1.7l-.3.6c-.1.2-.3.3-.5.4-.2.1-.5.2-.8.2.3 0 .6.1.8.2.3.1.5.2.7.4s.3.4.4.6c.1.2.2.5.2.8 0 .4-.1.7-.2 1-.1.3-.4.6-.7.8-.3.2-.7.4-1.3.5-.5.1-1.2.2-1.9.2h-.7s-.5 0-.8-.1l-.8-.1c-.3 0-.5-.1-.7-.1l-.1-1.5zm14.9 1.5v-1.1c-.5.4-.9.8-1.4 1-.5.2-1 .3-1.5.3s-.9-.1-1.2-.2-.6-.3-.8-.5-.4-.5-.5-.8c-.1-.3-.2-.6-.2-.9 0-.8.3-1.5.9-2 .6-.5 1.5-.7 2.8-.7h1.7v-.7c0-.5-.2-.9-.5-1.2-.3-.3-.8-.4-1.4-.4-.5 0-.9.1-1.4.2l-1.4.4v-1.3l.6-.2.7-.2s.5-.1.8-.1h.8c.5 0 1 .1 1.4.2.4.1.7.3 1 .5.3.2.5.5.6.9s.2.7.2 1.2v5.7l-1.2-.1zm-.2-3.8h-1.8c-.4 0-.7 0-.9.1-.3.1-.5.2-.6.3s-.3.3-.4.5c-.1.2-.1.4-.1.6 0 .2 0 .3.1.5s.1.3.2.4l.4.3c.2.1.4.1.6.1.3 0 .7-.1 1.1-.3.4-.2.9-.5 1.4-1v-1.5zm11.4-3.3h-3.2v7.1h-1.5v-7.1h-3.1v-1.2h7.8v1.2zm9.2 2.5v.9h-5.9c0 .9.2 1.5.7 2 .5.5 1.2.7 2.1.7h.7c.2 0 .5 0 .7-.1s.4-.1.7-.1l.6-.1v1.2c-.4.1-.8.2-1.3.3-.5.1-1 .1-1.5.1-.7 0-1.3-.1-1.8-.3-.5-.2-.9-.5-1.3-.8-.3-.4-.6-.8-.7-1.4-.2-.5-.2-1.1-.2-1.8 0-.6.1-1.1.3-1.7.2-.5.4-1 .7-1.4.3-.4.7-.7 1.2-.9s1-.3 1.6-.3c.6 0 1.1.1 1.5.3.4.2.8.4 1.1.8.3.3.5.7.7 1.2 0 .3.1.8.1 1.4zm-1.5-.2c0-.4 0-.7-.1-1-.1-.3-.2-.6-.4-.8s-.4-.4-.7-.5c-.3-.1-.6-.2-1-.2-.3 0-.6.1-.9.2-.3.1-.5.3-.7.5-.2.2-.3.5-.5.8-.1.3-.2.7-.2 1h4.5zm10.4 4.8h-1.4v-7.1h-2.3c-.1 1.1-.2 2.1-.3 2.9-.1.8-.3 1.5-.5 2s-.4 1-.6 1.3-.5.5-.8.7c-.3.1-.6.2-.9.2s-.6 0-.9-.1l.1-1.2h.6s.4-.2.5-.3.3-.4.5-.7c.1-.3.3-.7.4-1.3s.2-1.2.3-2c.1-.8.1-1.7.2-2.8h5.1v8.4zm4.3-8.3v5.9l3.6-5.9h1.4v8.3h-1.4v-5.9l-3.6 5.9h-1.4v-8.3h1.4zm24.6 8.3h-2l-3.9-4.5v4.5h-1.4v-8.3h1.4v3.8l3.7-3.8h1.9l-3.9 3.8 4.2 4.5zm9.1-4.2c0 .6-.1 1.2-.3 1.8-.2.5-.4 1-.8 1.4s-.8.7-1.3.9c-.5.2-1.1.3-1.7.3-.6 0-1.1-.1-1.6-.3-.5-.2-.9-.5-1.2-.8s-.6-.8-.8-1.3c-.2-.5-.3-1.1-.3-1.8 0-.6.1-1.2.3-1.8.2-.5.4-1 .8-1.4s.8-.7 1.3-.9c.5-.2 1.1-.3 1.7-.3.6 0 1.1.1 1.6.3.5.2.9.5 1.2.8.3.4.6.8.8 1.3.2.5.3 1.1.3 1.8zm-1.5 0c0-.5-.1-1-.2-1.3s-.3-.7-.5-1c-.2-.3-.5-.5-.8-.6-.3-.1-.6-.2-1-.2s-.8.1-1.1.3c-.3.2-.6.4-.8.7s-.3.6-.4 1c-.1.4-.1.8-.1 1.2 0 .5.1 1 .2 1.4.1.4.3.7.5 1 .2.3.5.5.8.6s.6.2 1 .2.8-.1 1.1-.3c.3-.2.6-.4.8-.7.2-.3.3-.6.4-1 .1-.5.1-.9.1-1.3zm10.3 4.2h-1.4v-3.7h-3.8v3.7h-1.5v-8.3h1.4v3.4h3.8v-3.4h1.4v8.3zm9.9-7.1h-3.2v7.1h-1.4v-7.1h-3.2v-1.2h7.8v1.2zm9.2 2.8c0 .7-.1 1.4-.3 1.9-.2.6-.5 1-.9 1.4s-.8.6-1.3.8c-.5.2-1 .3-1.6.3h-.8l-.8-.1v3.5h-1.4v-11.8h1.3l.1 1.4c.4-.6.9-1 1.3-1.2s1-.3 1.5-.3.9.1 1.3.3c.4.2.7.5.9.8s.4.8.5 1.3.2 1 .2 1.7zm-1.5 0c0-.4 0-.8-.1-1.2s-.2-.7-.3-.9-.3-.5-.5-.6-.5-.2-.8-.2c-.2 0-.4 0-.6.1l-.6.3c-.2.1-.4.3-.6.5-.2.2-.5.5-.7.8v4l.8.3c.3.1.6.1.9.1.8 0 1.4-.3 1.8-.8s.7-1.3.7-2.4zm11 .1c0 .6-.1 1.2-.3 1.8-.2.5-.4 1-.8 1.4s-.8.7-1.3.9c-.5.2-1.1.3-1.7.3-.6 0-1.1-.1-1.6-.3-.5-.2-.9-.5-1.2-.8s-.6-.8-.8-1.3c-.2-.5-.3-1.1-.3-1.8 0-.6.1-1.2.3-1.8.2-.5.4-1 .8-1.4s.8-.7 1.3-.9c.5-.2 1.1-.3 1.7-.3.6 0 1.1.1 1.6.3.5.2.9.5 1.2.8.3.4.6.8.8 1.3.2.5.3 1.1.3 1.8zm-1.5 0c0-.5-.1-1-.2-1.3s-.3-.7-.5-1c-.2-.3-.5-.5-.8-.6s-.6-.2-1-.2-.8.1-1.1.3c-.3.2-.6.4-.8.7s-.3.6-.4 1c-.1.4-.1.8-.1 1.2 0 .5.1 1 .2 1.4.1.4.3.7.5 1 .2.3.5.5.8.6s.6.2 1 .2.8-.1 1.1-.3c.3-.2.6-.4.8-.7.2-.3.3-.6.4-1 .1-.5.1-.9.1-1.3zm10.2 4.2h-1.4v-7.1h-2.3c-.1 1.1-.2 2.1-.3 2.9-.1.8-.3 1.5-.5 2s-.4 1-.6 1.3-.5.5-.8.7c-.3.1-.6.2-.9.2s-.6 0-.9-.1l.1-1.2h.6s.4-.2.5-.3.3-.4.5-.7.3-.7.4-1.3.2-1.2.3-2c.1-.8.1-1.7.2-2.8h5.1v8.4zm3.3-2.4c.2-.4.4-.7.6-.9s.5-.3.8-.4l-.9-.3c-.2-.1-.4-.3-.5-.5l-.3-.6c-.1-.2-.1-.4-.1-.7 0-.4.1-.7.2-1s.3-.6.6-.8c.3-.2.6-.4 1.1-.6.4-.1 1.1-.2 1.9-.2h1.4l1.3.1v8.3h-1.4v-3.2h-1.3c-.2 0-.4 0-.6.1s-.4.1-.6.2-.3.2-.5.4l-.4.6-.9 2h-1.6l1.2-2.5zm1.1-3.4c0 .5.2.8.5 1.1.3.2.8.4 1.4.4h1.6v-2.8h-1.4c-.5 0-.8 0-1.1.1l-.6.3c-.1.1-.3.3-.3.4s-.1.2-.1.5zm24.2 1.5c0 .7-.1 1.4-.3 1.9-.2.6-.5 1-.9 1.4s-.8.6-1.3.8c-.5.2-1 .3-1.6.3h-.8l-.8-.1v3.5h-1.4v-11.8h1.3l.1 1.4c.4-.6.9-1 1.3-1.2s1-.3 1.5-.3.9.1 1.3.3c.4.2.7.5.9.8s.4.8.5 1.3.2 1 .2 1.7zm-1.5 0c0-.4 0-.8-.1-1.2s-.2-.7-.3-.9-.3-.5-.5-.6-.5-.2-.8-.2c-.2 0-.4 0-.6.1l-.6.3s-.4.3-.6.5c-.2.2-.5.5-.7.8v4l.8.3c.3.1.6.1.9.1.8 0 1.4-.3 1.8-.8s.7-1.3.7-2.4zm10.7-.3v.9h-5.9c0 .9.2 1.5.7 2 .5.5 1.2.7 2.1.7h.7c.2 0 .5 0 .7-.1s.4-.1.7-.1l.6-.1v1.2c-.4.1-.8.2-1.3.3s-1 .1-1.5.1c-.7 0-1.3-.1-1.8-.3-.5-.2-.9-.5-1.3-.8s-.6-.8-.7-1.4c-.2-.5-.2-1.1-.2-1.8 0-.6.1-1.1.3-1.7.2-.5.4-1 .7-1.4.3-.4.7-.7 1.2-.9s1-.3 1.6-.3c.6 0 1.1.1 1.5.3.4.2.8.4 1.1.8.3.3.5.7.7 1.2 0 .3.1.8.1 1.4zm-1.5-.2c0-.4 0-.7-.1-1-.1-.3-.2-.6-.4-.8s-.4-.4-.7-.5c-.3-.1-.6-.2-1-.2-.3 0-.6.1-.9.2-.3.1-.5.3-.7.5-.2.2-.3.5-.5.8-.1.3-.2.7-.2 1h4.5zm3.6 3.3c.2.1.5.1.8.2.3.1.6.1.8.1l.8.1h.7c.5 0 .9 0 1.2-.1s.6-.1.7-.3l.4-.4c.1-.2.1-.3.1-.6 0-.2 0-.4-.1-.5s-.2-.3-.4-.4c-.2-.1-.4-.2-.7-.3-.3-.1-.7-.1-1.2-.1h-2v-1.1h2c.4 0 .8 0 1-.1s.5-.1.6-.2c.2-.1.3-.2.3-.4.1-.1.1-.3.1-.5s0-.4-.1-.5-.2-.3-.3-.4-.4-.2-.6-.2-.6-.1-1-.1-.9 0-1.4.1c-.5.1-1 .1-1.5.3v-1.2c.2-.1.5-.1.7-.1s.5-.1.8-.1c.3 0 .5 0 .8-.1h.8c.7 0 1.2.1 1.6.2.4.1.8.3 1.1.5s.5.4.6.7.2.6.2.9c0 .2 0 .5-.1.7l-.3.6c-.1.2-.3.3-.5.4s-.5.2-.8.2c.3 0 .6.1.8.2.3.1.5.2.7.4s.3.4.4.6c.1.2.2.5.2.8 0 .4-.1.7-.2 1-.1.3-.4.6-.7.8-.3.2-.7.4-1.3.5-.5.1-1.2.2-1.9.2h-.7s-.5 0-.8-.1l-.8-.1c-.3 0-.5-.1-.7-.1l-.1-1.5zm17-6.8l-2.8 7.5c-.3.8-.6 1.4-.9 2s-.7 1-1 1.3-.8.6-1.2.8-.9.2-1.5.2h-.8v-1.3h.9c.3 0 .5 0 .7-.1s.4-.2.7-.4c.2-.2.4-.4.6-.7.2-.3.4-.6.5-1l-3.3-8.3h1.6l2.1 5.5.4 1.3.5-1.3 2-5.5h1.5zm8.5 8.3h-1.4v-7.1h-2.3c-.1 1.1-.2 2.1-.3 2.9-.1.8-.3 1.5-.5 2s-.4 1-.6 1.3-.5.5-.8.7c-.3.1-.6.2-.9.2s-.6 0-.9-.1l.1-1.2h.6s.4-.2.5-.3.3-.4.5-.7.3-.7.4-1.3.2-1.2.3-2c.1-.8.1-1.7.2-2.8h5.1v8.4zm4.3-5.2h1.8c1.3 0 2.2.2 2.9.7.6.4.9 1.1.9 1.9 0 .9-.3 1.6-1 2-.7.5-1.7.7-3 .7h-1.6c-.5 0-1-.1-1.4-.1v-8.3h1.4v3.1zm4.1 2.6c0-.2 0-.4-.1-.6-.1-.2-.2-.3-.4-.4-.2-.1-.4-.2-.7-.3s-.7-.1-1.1-.1h-1.8v2.8c.3 0 .6 0 .8.1h.9c.5 0 .9 0 1.2-.1.3-.1.6-.1.7-.3.2-.1.3-.3.4-.5s.1-.3.1-.6zm11-4.5h-3.2v7.1h-1.5v-7.1h-3.1v-1.2h7.8v1.2zm7.4 7.1v-1.1c-.5.4-.9.8-1.4 1s-1 .3-1.5.3-.9-.1-1.2-.2-.6-.3-.8-.5-.4-.5-.5-.8c-.1-.3-.2-.6-.2-.9 0-.8.3-1.5.9-2 .6-.5 1.5-.7 2.8-.7h1.7v-.7c0-.5-.2-.9-.5-1.2-.3-.3-.8-.4-1.4-.4-.5 0-.9.1-1.4.2l-1.4.4v-1.3l.6-.2.7-.2s.5-.1.8-.1h.8c.5 0 1 .1 1.4.2.4.1.7.3 1 .5.3.2.5.5.6.9s.2.7.2 1.2v5.7l-1.2-.1zm-.1-3.8h-1.8c-.4 0-.7 0-.9.1-.3.1-.5.2-.6.3s-.3.3-.4.5-.1.4-.1.6c0 .2 0 .3.1.5s.1.3.2.4l.4.3c.2.1.4.1.6.1.3 0 .7-.1 1.1-.3s.9-.5 1.4-1v-1.5zm11.3-3.3h-3.2v7.1h-1.5v-7.1h-3.2v-1.2h7.8v1.2zm7.5 7.1v-1.1c-.5.4-.9.8-1.4 1s-1 .3-1.5.3-.9-.1-1.2-.2-.6-.3-.8-.5-.4-.5-.5-.8c-.1-.3-.2-.6-.2-.9 0-.8.3-1.5.9-2 .6-.5 1.5-.7 2.8-.7h1.7v-.7c0-.5-.2-.9-.5-1.2-.3-.3-.8-.4-1.4-.4-.5 0-.9.1-1.4.2l-1.4.4v-1.3l.6-.2.7-.2s.5-.1.8-.1h.8c.5 0 1 .1 1.4.2.4.1.7.3 1 .5.3.2.5.5.6.9s.2.7.2 1.2v5.7l-1.2-.1zm-.1-3.8h-1.8c-.4 0-.7 0-.9.1-.3.1-.5.2-.6.3s-.3.3-.4.5-.1.4-.1.6c0 .2 0 .3.1.5s.1.3.2.4l.4.3c.2.1.4.1.6.1.3 0 .7-.1 1.1-.3s.9-.5 1.4-1v-1.5z"/><linearGradient id="SVGID_1_" gradientUnits="userSpaceOnUse" x1="598.683" y1="419.82" x2="974.192" y2="419.82" gradientTransform="matrix(1 0 0 -1 0 436)"><stop offset="0" stop-color="#AED245"/><stop offset="1" stop-color="#8EB33E"/></linearGradient><path class="st6" d="M598.7 0h375.5v32.4h-375.5z"/><path class="st2" d="M544.8 6.4h186.3v36h-186.3z"/><path d="M619.9 23.7l-4.8-7.7v7.7h-3.1v-16h3.1v7.3l4.8-7.3h3.6l-5.4 7.6 5.7 8.4h-3.9zm17-10.9c0 .8-.1 1.6-.4 2.3-.3.7-.7 1.3-1.2 1.8s-1.2.9-2 1.2c-.8.3-1.8.4-2.8.4h-1.5v5.1h-3v-16h4.7c1 0 1.9.1 2.7.3.8.2 1.5.6 2 1s1 1 1.2 1.6c.2.8.3 1.5.3 2.3zm-3.1.2c0-.4-.1-.8-.2-1.2-.1-.3-.3-.6-.6-.9s-.6-.4-1-.6c-.4-.1-.9-.2-1.5-.2h-1.6v5.8h1.7c.5 0 1-.1 1.4-.2.4-.1.7-.3 1-.6.3-.3.5-.6.6-1 .1-.2.2-.6.2-1.1zm6-2.8v-2.5h10.1v2.5h-3.5v11h3.5v2.5h-10.1v-2.5h3.5v-11h-3.5zm23.8 9.8c0 .7-.2 1.3-.5 1.8s-.7.9-1.2 1.2c-.5.3-1.1.5-1.8.7-.7.1-1.3.2-2 .2-.9 0-1.7 0-2.5-.1-.7-.1-1.4-.2-2.1-.4v-2.7c.8.3 1.5.5 2.3.7.8.1 1.5.2 2.2.2.8 0 1.4-.1 1.8-.4s.6-.6.6-1c0-.2 0-.4-.1-.5-.1-.2-.2-.3-.5-.4-.2-.1-.5-.3-.9-.4s-.9-.3-1.6-.5c-.6-.2-1.1-.4-1.6-.6-.5-.2-.8-.5-1.1-.8-.3-.3-.5-.6-.7-1-.2-.4-.2-.8-.2-1.4 0-.5.1-1 .3-1.4.2-.4.6-.8 1-1.2.5-.3 1-.6 1.7-.8.7-.2 1.5-.3 2.4-.3.8 0 1.5 0 2.1.1s1.1.2 1.6.3v2.4c-.7-.2-1.4-.4-2-.5-.6-.1-1.2-.1-1.8-.1s-1.1.1-1.5.3c-.4.2-.6.5-.6.9 0 .2 0 .4.1.5.1.1.2.3.4.4.2.1.5.3.9.4.4.1.9.3 1.5.5.7.2 1.3.4 1.8.7.5.2.9.5 1.2.8s.5.6.6 1c.2.5.2 1 .2 1.4z"/><linearGradient id="SVGID_2_" gradientUnits="userSpaceOnUse" x1="157.143" y1="17.285" x2="661.899" y2="17.285" gradientTransform="matrix(1 0 0 -1 0 436)"><stop offset="0" stop-color="#AED245"/><stop offset="1" stop-color="#8EB33E"/></linearGradient><path class="st7" d="M157.1 403.4h504.8v30.6h-504.8z"/><path class="st2" d="M90.6 409.2h186.3v36h-186.3z"/><path d="M175.8 415.6c0 .8-.1 1.6-.4 2.3-.3.7-.7 1.3-1.2 1.8s-1.2.9-2 1.2c-.8.3-1.8.4-2.8.4h-1.5v5.1h-3v-16h4.7c1 0 1.9.1 2.7.3.8.2 1.5.6 2 1s1 1 1.2 1.6c.2.7.3 1.4.3 2.3zm-3.1.2c0-.4-.1-.8-.2-1.2-.1-.3-.3-.6-.6-.9-.3-.2-.6-.4-1-.6-.4-.1-.9-.2-1.5-.2h-1.6v5.8h1.7c.5 0 1-.1 1.4-.2.4-.1.7-.3 1-.6.3-.3.5-.6.6-1 .1-.3.2-.7.2-1.1zm6-2.9v-2.5h10.1v2.5h-3.5v11h3.5v2.5h-10.1v-2.4h3.5v-11h-3.5zm23.8 9.9c0 .7-.2 1.3-.5 1.8s-.7.9-1.2 1.2c-.5.3-1.1.5-1.8.7-.7.1-1.3.2-2 .2-.9 0-1.7 0-2.5-.1-.7-.1-1.4-.2-2.1-.4v-2.7c.8.3 1.5.5 2.3.7.8.1 1.5.2 2.2.2.8 0 1.4-.1 1.8-.4.4-.2.6-.6.6-1 0-.2 0-.4-.1-.5-.1-.2-.2-.3-.5-.4-.2-.1-.5-.3-.9-.4l-1.6-.5c-.6-.2-1.1-.4-1.6-.6-.5-.2-.8-.5-1.1-.8s-.5-.6-.7-1c-.1-.4-.2-.8-.2-1.4 0-.5.1-1 .3-1.4.2-.4.6-.8 1-1.2.5-.3 1-.6 1.7-.8.7-.2 1.5-.3 2.4-.3.8 0 1.5 0 2.1.1.6.1 1.1.2 1.6.3v2.4c-.7-.2-1.4-.4-2-.5-.6-.1-1.2-.1-1.9-.1s-1.1.1-1.5.3c-.4.2-.6.5-.6.9 0 .2 0 .4.1.5s.2.3.4.4c.2.1.5.3.9.4.4.1.9.3 1.5.5.7.2 1.3.4 1.8.7.5.2.9.5 1.2.8s.5.6.6 1c.2.5.3.9.3 1.4z"/><linearGradient id="SVGID_3_" gradientUnits="userSpaceOnUse" x1="-643.154" y1="-683.046" x2="-601.668" y2="-683.046" gradientTransform="matrix(0 1 -1 0 -243.462 803.675)"><stop offset="0" stop-color="#AED245"/><stop offset="1" stop-color="#8EB33E"/></linearGradient><path class="st8" d="M432.7 162.5h14.1v19.9h10.2l-18.1 19.7-16.7-19.9h10.5z"/><linearGradient id="SVGID_4_" gradientUnits="userSpaceOnUse" x1="-1698.744" y1="2430.385" x2="-1657.258" y2="2430.385" gradientTransform="matrix(0 -1 1 0 -2145.919 -1337.676)"><stop offset="0" stop-color="#AED245"/><stop offset="1" stop-color="#8EB33E"/></linearGradient><path class="st9" d="M291.3 359.1h-14v-19.9h-10.2l18-19.7 16.8 19.9h-10.5z"/><linearGradient id="SVGID_5_" gradientUnits="userSpaceOnUse" x1="-1698.609" y1="2591.952" x2="-1657.123" y2="2591.952" gradientTransform="matrix(0 -1 1 0 -2145.919 -1337.676)"><stop offset="0" stop-color="#AED245"/><stop offset="1" stop-color="#8EB33E"/></linearGradient><path class="st10" d="M452.9 358.9h-14v-19.8h-10.3l18.1-19.8 16.7 20h-10.4z"/><linearGradient id="SVGID_6_" gradientUnits="userSpaceOnUse" x1="-1698.609" y1="2734.196" x2="-1657.123" y2="2734.196" gradientTransform="matrix(0 -1 1 0 -2145.919 -1337.676)"><stop offset="0" stop-color="#AED245"/><stop offset="1" stop-color="#8EB33E"/></linearGradient><path class="st11" d="M595.1 358.9h-14v-19.8h-10.2l18.1-19.8 16.7 20h-10.5z"/></svg>