<svg xmlns="http://www.w3.org/2000/svg" xmlns:xlink="http://www.w3.org/1999/xlink" width="361" height="282" viewBox="0 0 361 282"><defs><path id="a" d="M-112-23h627v301h-627z"/></defs><clipPath id="b"><use xlink:href="#a" overflow="visible"/></clipPath><g clip-path="url(#b)"><path fill="#95A8AF" d="M29.921 353.089c25.724 2.058 51.656-.95 77.434-.94 31.701.012 63.399.547 95.089 1.388 9.701.258 19.402.547 29.103.849v-23.919h-.1c-1.287-33.555-15.908-63.646-38.616-84.93a120.676 120.676 0 0 0-19.637-14.938 120.683 120.683 0 0 0-6.071-3.483c-.008-.006-.036-.011-.045-.021a172.697 172.697 0 0 0-4.254-2.158 77.117 77.117 0 0 0-2.361-1.104 119.35 119.35 0 0 0-4.78-2.064 118.325 118.325 0 0 0-44.308-8.575c-17.226 0-33.61 3.701-48.41 10.331-1.47.653-2.91 1.339-4.353 2.062-.666.332-1.311.668-1.982 1.01-.452.235-.851.446-1.292.682a78.23 78.23 0 0 0-2.418 1.347 7.926 7.926 0 0 0-.507.284 85.973 85.973 0 0 0-2.869 1.702c-7.03 4.3-13.61 9.301-19.622 14.936-22.722 21.3-37.325 51.366-38.62 84.921h-.096v2.102h38.716v20.518z"/><path fill="#EF9C81" d="M110.399 144.533c13.489 0 24.412 8.336 24.412 18.603v96.081l-48.806-16.524v-79.557c.001-10.267 10.939-18.603 24.394-18.603z"/><path fill="#FFA685" d="M44.585 67.087v80.804c1.664 19.416 10.562 37.314 23.857 49.563 2.007.441 31.876.019 32.325.019 33.029 0 59.819-27.789 59.819-62.063V67.087H44.585z"/><path fill="#FFA685" d="M166.743 114.034c9.221 0 16.695 7.759 16.695 17.309 0 9.57-7.475 17.317-16.695 17.317h-27.162l.998-34.626h26.164z"/><path d="M170.506 55.298v10.455c.003.131.045.258.055.394v48.018h-6.649v12.372c0 5.691-4.437 10.305-9.938 10.305-5.463 0-9.913-4.613-9.913-10.305v-7.439c-1.323-7.767-7.855-13.665-15.722-13.672V85.033c-1.341-7.747-7.84-13.639-15.71-13.649v-.111H44.544c-10.953 0-19.956-8.643-21.036-19.734h27.291l7.478-29.599h65.137c15.544 0 29.312 7.763 37.94 19.736l9.152 13.622z"/><g fill="#11122D"><path d="M66.861 116.855c2.795 0 5.052-2.333 5.052-5.241 0-2.879-2.257-5.233-5.052-5.233-2.788 0-5.058 2.354-5.058 5.233.001 2.908 2.27 5.241 5.058 5.241zM106.995 116.855c2.798 0 5.065-2.333 5.065-5.241 0-2.879-2.268-5.233-5.065-5.233-2.774 0-5.042 2.354-5.042 5.233 0 2.908 2.268 5.241 5.042 5.241z"/></g><path d="M52.277 59.432h54.239v11.946H52.277z"/><path d="M170.76 49.311c0-24.901-19.463-45.092-43.454-45.092H87.123c-24.003 0-43.46 20.191-43.46 45.092v22.066h10.054v-8.275c0-12.977 10.135-23.496 22.644-23.496h6.086c12.511 0 22.646 10.519 22.646 23.496v8.275h65.668V49.311z"/><path fill="none" stroke="#020304" stroke-width="1.365" d="M168.361 60.007h-58.753"/><path d="M54.602 58.774c-12.098-7.235-16.728-22.733-11.105-35.681l30.137 18.034-19.032 17.647z"/><path fill="#FFF" d="M109.348 310.963L149.724 230H73.105z"/><path d="M109.577 225.62l17.191 25.48-17.714 14.255L91.357 251.1z"/><path d="M95.908 275.066l13.44 30.015 15.365-30.822-15.659-21.659z"/><path fill="#BACACE" d="M109.348 305.081l59.724-59.602-21.092-26.503zM109.348 305.081l-60.597-59.602 21.395-26.503z"/><path fill="none" stroke="#11122D" stroke-width="3" stroke-linecap="round" stroke-miterlimit="10" d="M71.333 161.667c4-8 20.667-10 26.667-6"/><g fill="#C17D6B"><path d="M59.553 210.351c-1.635 9.117 1.329 16.74 6.62 17.021 5.294.283 10.91-6.866 12.554-15.984 1.634-9.118-1.328-16.734-6.62-17.021-5.297-.289-10.91 6.869-12.554 15.984z"/><path d="M67.195 239.313l-.142-2.979c6.412.346 11.656-14.506 13.514-24.846 1.794-10.012-1.6-18.372-7.726-19.03l-.386-.031c-6.401-.345-15.942 2.105-17.801 12.445-1.793 10.012 6.411 33.781 12.541 34.441zm4.044-40.113c4.161.856 6.764 5.863 5.386 13.539-1.419 7.886-6.034 13.645-10.235 13.42l-.138-.379c-4.045-.438-6.525-6.021-5.148-13.699 1.418-7.893 6.006-12.784 10.132-12.879l.003-.002z"/></g><path fill="#C17D6B" d="M62.262 221.743c4.426-1.419 13.492-8.407 12.657-13.173 0 0-4.819-17.333-6.343-23.468-1.048-4.216-1.042-8.779-2.382-12.598-1.569-4.47-7.732-9.688-12.159-8.271-4.425 1.42-5.692 4.721-4.856 9.487 0 0 1.065 3.136 1.758 7.081 1.057 6.038-2.455 13.753-.365 22.541 1.111 4.669 7.264 19.82 11.69 18.401zM85.36 197.88c-1.397-3.452-5.366-12.788-2.36-16.546 1.333-1.667 14.333-8 21.236-12.457 3.612-2.333 9.877-7.526 13.35-9.436 4.069-2.235 12.182-.433 13.579 3.018 1.396 3.451-1.451 7.858-5.332 10.708 0 0-4.669 3.183-7.88 5.542-4.916 3.61-5.541 7.933-12.995 12.881-3.96 2.628-18.202 9.741-19.598 6.29z"/><path fill="#C17D6B" d="M50.017 236.875c-2.645-2.378 5.548 6.908 10.944 7.658 10.619 1.48 10.267 3.335 24.757-1.633 18.149-6.226 23.24-12.512 24.71-18.254-1.572-8.973-14.43-41.54-21.261-45.646-9.153.316-14.667 12-22.023 8.954-10.139-4.197-15.596-9.225-16.233.737-.059.933-3.875 17.15-3.838 31.184.018 7.248 12.377 25.477 2.944 17z"/><path fill="#C17D6B" d="M87.861 200.794c1.033 4.655 7.034 9.345 13.144 7.171 6.107-2.171 12.027-8.102 10.993-12.759-1.035-4.657-7.727-6.474-13.835-4.302-6.109 2.174-11.336 5.232-10.302 9.89z"/><path fill="#C17D6B" d="M90.375 213.248c1.033 4.655 7.035 9.344 13.145 7.172 6.107-2.174 12.026-8.103 10.992-12.76-1.031-4.657-7.723-6.475-13.833-4.303-6.11 2.176-11.336 5.233-10.304 9.891z"/><path fill="#C17D6B" d="M90.644 224.38c1.033 4.653 4.609 13.504 10.719 11.33 6.107-2.173 14.452-12.264 13.418-16.919-1.034-4.656-7.728-6.475-13.835-4.303-6.108 2.174-11.336 5.233-10.302 9.892z"/><g><path fill="#FFA685" d="M14.778 332.563c-8.13-5.81-11.151-16.791-6.668-26.101l36.787-69.253c3.857-18.469 28.485-32.831 38.901-27.817 3.906 1.882 8.578 5.347 8.291 11.557-3.402 10.993-10.783 28.548-13.271 36.016l-32.991 67.66c-5.015 10.415-17.523 14.793-27.939 9.777a21.084 21.084 0 0 1-3.11-1.839z"/></g><g><g fill="#D3613D"><path d="M57.405 210.773c-1.616 9.01 1.313 16.543 6.542 16.82 5.231.28 10.781-6.785 12.405-15.795 1.615-9.011-1.312-16.537-6.542-16.82-5.233-.285-10.78 6.79-12.405 15.795z"/><path d="M64.958 239.395l-.141-2.944c6.336.341 11.519-14.335 13.354-24.552 1.773-9.894-1.581-18.155-7.635-18.806l-.381-.031c-6.326-.341-15.753 2.081-17.591 12.299-1.772 9.892 6.336 33.381 12.394 34.034zm3.995-39.64c4.111.847 6.684 5.794 5.322 13.379-1.402 7.793-5.962 13.483-10.114 13.262l-.136-.375c-3.998-.432-6.448-5.949-5.087-13.537 1.401-7.799 5.936-12.633 10.012-12.727l.003-.002z"/></g><path fill="#FFA685" d="M60.082 222.031c4.374-1.401 13.333-8.308 12.507-13.017 0 0-4.763-17.128-6.268-23.19-1.035-4.166-1.03-8.676-2.354-12.449-1.551-4.416-7.641-9.573-12.015-8.173-4.373 1.402-5.625 4.664-4.799 9.375 0 0 1.052 3.099 1.737 6.997 1.045 5.967-2.426 13.591-.36 22.274 1.098 4.614 7.179 19.586 11.552 18.183zM82.907 198.45c-1.381-3.411-2.932-13.491.902-16.307 0 0 16.528-8.974 21.705-12.354 3.559-2.321 6.795-5.461 10.227-7.348 4.021-2.209 11.05-2.403 12.431 1.006 1.379 3.41-.281 6.377-4.116 9.192 0 0-2.802 1.569-5.976 3.901-4.857 3.567-8.439 10.803-15.806 15.692-3.914 2.6-17.987 9.628-19.367 6.218z"/><path fill="#FFA685" d="M47.982 236.984c-2.613-2.35 5.482 6.826 10.815 7.567 10.493 1.464 10.146 3.296 24.464-1.613 17.936-6.151 22.966-12.363 24.418-18.038-1.554-8.866-13.528-39.294-20.279-43.353-9.045.313-14.578 15.593-22.494 7.094-7.391-7.934-15.411-9.115-16.042.729-.059.921-3.829 16.947-3.793 30.814.02 7.164 12.233 25.177 2.911 16.8z"/><path fill="#FFA685" d="M85.379 201.33c1.021 4.601 6.951 9.234 12.988 7.086 6.035-2.146 11.885-8.006 10.863-12.607-1.023-4.603-7.635-6.397-13.671-4.251-6.037 2.147-11.203 5.169-10.18 9.772z"/><path fill="#FFA685" d="M87.863 213.637c1.021 4.601 6.952 9.233 12.988 7.087 6.036-2.147 11.885-8.007 10.863-12.608-1.02-4.603-7.632-6.398-13.67-4.252-6.036 2.15-11.201 5.17-10.181 9.773z"/><path fill="#FFA685" d="M88.129 224.637c1.021 4.599 4.554 13.345 10.592 11.196 6.035-2.146 14.281-12.118 13.26-16.719-1.021-4.602-7.636-6.398-13.671-4.252-6.037 2.149-11.203 5.171-10.181 9.775z"/></g><g><path fill="#95A8AF" d="M-23.456 355.803a15009.091 15009.091 0 0 0 36.989 42.676c18.665-38.102 37.329-76.204 55.998-114.31 11.792-24.077-35.738-45.236-47.5-21.224a3968515.34 3968515.34 0 0 0-45.487 92.858z"/></g><g><path fill="#BACACE" d="M22.975 256.763l57.154 28.285 11.907-23.359-57.144-28.283z"/></g></g><path clip-path="url(#b)" fill="#706EB2" d="M356.226 104.939c0 4.153-.458 7.758-1.371 10.817-.915 3.062-2.147 5.735-3.695 8.021-1.548 2.287-3.323 4.274-5.329 5.964a75.701 75.701 0 0 1-6.279 4.748 218.036 218.036 0 0 1-7.389 4.855 39.266 39.266 0 0 0-6.648 5.223c-1.97 1.938-3.57 4.206-4.803 6.808-1.229 2.604-1.844 5.77-1.844 9.499v1.688H295.33a32.807 32.807 0 0 1-.158-2.374 67.628 67.628 0 0 1-.053-2.269c0-5.277.687-9.727 2.059-13.352 1.371-3.622 3.131-6.736 5.277-9.339 2.145-2.602 4.521-4.837 7.124-6.702a177.535 177.535 0 0 1 7.704-5.224 174.856 174.856 0 0 0 5.012-3.535 24.238 24.238 0 0 0 4.17-3.853 17.565 17.565 0 0 0 2.85-4.645c.703-1.687 1.057-3.623 1.057-5.804 0-4.712-1.727-8.496-5.174-11.346-3.447-2.849-8.83-4.273-16.146-4.273a64.52 64.52 0 0 0-15.988 2.005c-5.241 1.336-9.867 2.92-13.879 4.75V76.235c2.11-.985 4.485-1.9 7.124-2.745a82.85 82.85 0 0 1 8.231-2.163c2.85-.596 5.77-1.072 8.76-1.425a74.674 74.674 0 0 1 8.707-.527c6.966 0 13.191.828 18.68 2.48 5.488 1.653 10.115 4.027 13.879 7.124 3.764 3.097 6.648 6.843 8.653 11.239 2.004 4.396 3.007 9.305 3.007 14.721zm-62.795 80.104h28.391v28.177h-28.391v-28.177z"/></svg>