<svg xmlns="http://www.w3.org/2000/svg" xmlns:xlink="http://www.w3.org/1999/xlink" width="601" height="284" viewBox="0 0 601 284"><defs><path id="a" d="M-6-22h627v301H-6z"/></defs><clipPath id="b"><use xlink:href="#a" overflow="visible"/></clipPath><g clip-path="url(#b)"><path fill="#95A8AF" d="M438.461 410.488c-16.661 7.061-37.084-3.535-45.616-23.667L339.9 261.893c-8.532-20.132-1.941-42.176 14.721-49.236 16.661-7.062 37.084 3.534 45.616 23.666l52.944 124.929c8.533 20.131 1.942 42.175-14.72 49.236zM161.435 416.648c-17.586-5.461-26.587-26.814-20.104-47.696l40.233-129.582c6.483-20.882 25.997-33.384 43.584-27.922 17.587 5.461 26.589 26.815 20.105 47.697L205.02 388.728c-6.483 20.881-25.997 33.382-43.585 27.92z"/><path fill="#95A8AF" d="M209.921 354.089c25.724 2.058 51.656-.95 77.434-.94 31.701.012 63.399.547 95.089 1.388 9.701.258 19.402.547 29.103.849v-23.919h-.1c-1.287-33.555-15.908-63.646-38.616-84.93a120.676 120.676 0 0 0-19.637-14.938 120.683 120.683 0 0 0-6.071-3.483c-.008-.006-.036-.011-.045-.021a172.697 172.697 0 0 0-4.254-2.158 77.117 77.117 0 0 0-2.361-1.104 119.35 119.35 0 0 0-4.78-2.064 118.325 118.325 0 0 0-44.308-8.575c-17.226 0-33.61 3.701-48.41 10.331-1.47.653-2.91 1.339-4.353 2.062-.666.332-1.311.668-1.982 1.01-.452.235-.851.446-1.292.682a78.23 78.23 0 0 0-2.418 1.347 7.926 7.926 0 0 0-.507.284 85.973 85.973 0 0 0-2.869 1.702c-7.03 4.3-13.61 9.301-19.622 14.936-22.722 21.3-37.325 51.366-38.62 84.921h-.096v2.102h38.716v20.518z"/><path fill="#EF9C81" d="M290.399 145.533c13.489 0 24.412 8.336 24.412 18.603v96.081l-48.806-16.524v-79.557c.001-10.267 10.939-18.603 24.394-18.603z"/><path fill="#FFA685" d="M224.585 68.087v80.804c1.664 19.416 10.562 37.314 23.857 49.563 2.007.441 31.876.019 32.325.019 33.029 0 59.819-27.789 59.819-62.063V68.087H224.585z"/><path fill="#FFA685" d="M346.743 115.034c9.221 0 16.695 7.759 16.695 17.309 0 9.57-7.475 17.317-16.695 17.317h-27.162l.998-34.626h26.164z"/><path d="M350.506 56.298v10.455c.003.131.045.258.055.394v48.018h-6.649v12.372c0 5.691-4.437 10.305-9.938 10.305-5.463 0-9.913-4.613-9.913-10.305v-7.439c-1.323-7.767-7.855-13.665-15.722-13.672V86.033c-1.341-7.747-7.84-13.639-15.71-13.649v-.111h-68.084c-10.953 0-19.956-8.643-21.036-19.734H230.8l7.478-29.599h65.137c15.544 0 29.312 7.763 37.94 19.736l9.151 13.622z"/><g fill="#11122D"><path d="M246.861 117.855c2.795 0 5.052-2.333 5.052-5.241 0-2.879-2.257-5.233-5.052-5.233-2.788 0-5.058 2.354-5.058 5.233.001 2.908 2.27 5.241 5.058 5.241zM286.995 117.855c2.798 0 5.065-2.333 5.065-5.241 0-2.879-2.268-5.233-5.065-5.233-2.774 0-5.042 2.354-5.042 5.233 0 2.908 2.268 5.241 5.042 5.241z"/></g><path d="M232.277 60.432h54.239v11.946h-54.239z"/><path d="M350.76 50.311c0-24.901-19.463-45.092-43.454-45.092h-40.183c-24.003 0-43.46 20.191-43.46 45.092v22.066h10.054v-8.275c0-12.977 10.135-23.496 22.644-23.496h6.086c12.511 0 22.646 10.519 22.646 23.496v8.275h65.668V50.311z"/><path fill="none" stroke="#020304" stroke-width="1.365" d="M348.361 61.007h-58.753"/><path d="M234.602 59.774c-12.098-7.235-16.728-22.733-11.105-35.681l30.137 18.034-19.032 17.647z"/><path fill="#FFF" d="M289.348 311.963L329.724 231h-76.619z"/><path d="M289.577 226.62l17.191 25.48-17.714 14.255-17.697-14.255z"/><path d="M275.908 276.066l13.44 30.015 15.365-30.822-15.659-21.659z"/><path fill="#BACACE" d="M289.348 306.081l59.724-59.602-21.092-26.503zM289.348 306.081l-60.597-59.602 21.395-26.503z"/><path fill="none" stroke="#11122D" stroke-width="3" stroke-linecap="round" stroke-miterlimit="10" d="M251.833 166.19C256 154.5 278.5 152.5 283 166.5"/><path fill="#FFA685" d="M446.836 320.434c1.83-9.101-1.66-.684 1.939-10.368l19.208-72.365c2.129-18.748 25.319-35.332 36.154-31.304 4.063 1.51 18.239 13.396 18.528 19.604-2.366 11.262-17.289 20.559-19.076 28.225l-26.576 70.428c-4.025 10.834-16.076 13.354-26.911 9.324-1.149-.427-2.241-12.947-3.266-13.544z"/><g fill="#D3613D"><path d="M504.077 202.332c-6.908 6.005-9.351 13.71-5.453 17.204 3.899 3.501 12.652 1.478 19.567-4.521 6.91-6.006 9.353-13.704 5.456-17.205-3.898-3.504-12.655-1.473-19.57 4.522z"/><path d="M492.011 229.363l1.736-2.382c4.723 4.239 17.963-3.941 25.8-10.748 7.586-6.594 10.153-15.134 5.848-19.438l-.277-.262c-4.714-4.233-13.576-8.261-21.416-1.453-7.585 6.595-16.001 29.975-11.691 34.283zM519.968 202c3.034 2 1.581 8.2-4.236 13.256-5.981 5.188-13.099 6.51-16.192 3.734l.13-.504c-2.842-2.84-1.297-8.236 4.522-13.293 5.98-5.195 12.766-7.193 15.773-3.193h.003z"/></g><path fill="#FFA685" d="M499.103 212.78c4.286 1.651 15.595 1.892 17.906-2.294 0 0 7.032-16.328 9.662-21.994 1.806-3.895 4.637-7.405 5.973-11.173 1.562-4.412.052-12.249-4.232-13.9s-7.307.103-9.617 4.292c0 0-1.125 3.073-3.035 6.538-2.928 5.305-10.414 9.065-14.251 17.125-2.039 4.281-6.692 19.757-2.406 21.406zM531.638 208.353c1.073-3.41 6.211-11.951 10.961-11.762 0 0 18.488 3.214 24.637 3.789 4.227.399 9.561-2.894 13.414-2.245 4.516.763 8.156 4.122 8.067 7.986-.082 3.572-2.299 1.423-7.741 3.774-2.022.873-9.552 4.757-13.483 4.601-6.02-.243-8.096 1.626-16.895.864-4.676-.403-20.032-3.602-18.96-7.007z"/><path fill="#FFA685" d="M533.65 223.367c1.524-3.075 7.99-10.537 13.106-9.898 0 0 19.648 4.795 26.235 5.93 4.528.783 10.646-1.769 14.744-.787 4.802 1.149 8.379 4.636 7.871 8.229-.47 3.321-2.637 1.103-8.772 2.765-2.28.618-10.836 3.506-15.071 2.977-6.482-.812-8.927.729-18.36-.837-5.012-.832-21.275-5.309-19.753-8.379z"/><path fill="#FFA685" d="M530.595 235.204c1.695-2.95 8.438-9.901 13.246-8.881 0 0 18.274 6.255 24.439 7.882 4.238 1.12 10.255-.963 14.067.322 4.468 1.507 7.583 5.25 6.811 8.795-.714 3.274-2.593.899-8.556 2.096-2.215.445-10.573 2.68-14.554 1.834-6.091-1.295-8.536.057-17.368-2.213-4.695-1.205-19.779-6.89-18.085-9.835z"/><path fill="#FFA685" d="M526.457 245.823c1.659-2.456 7.806-8.039 11.619-6.781 0 0 14.271 6.864 19.132 8.757 3.341 1.304 8.433-.066 11.412 1.347 3.491 1.659 5.67 5.176 4.705 8.224-.893 2.816-2.195.592-7.16 1.189-1.842.223-8.854 1.549-12.013.506-4.831-1.595-6.949-.595-13.918-3.253-3.704-1.412-15.435-7.535-13.777-9.989z"/><path fill="#FFA685" d="M478.901 220.106c.056 3.335-.8 9.122 2.889 13.044 7.254 7.722 8.022 5.297 22.252 10.451 17.831 6.457 34.982 12.759 39.676 9.249 4.349-7.88 4.765-47.076 2.052-54.471-7.241-5.428-21.134 3.003-21.97-8.581-.779-10.816-6.286-16.765-12.95-9.492-.625.682-13.611 10.798-22.282 21.622-4.476 5.592-9.794 10.589-9.667 18.178z"/><g><path fill="#95A8AF" d="M424.959 367.459a14897.726 14897.726 0 0 0 43.997 35.409c11.583-40.815 23.164-81.633 34.75-122.453 7.315-25.793-43.222-38.151-50.521-12.428l-28.226 99.472z"/></g><g><path fill="#BACACE" d="M453.014 261.735l61.277 17.658 7.559-25.106-61.268-17.657z"/></g><g><path fill="#FFA685" d="M149.773 329.434c-1.772-9.101 1.607-.684-1.879-10.368l-18.6-72.366c-2.062-18.748-24.52-35.332-35.012-31.304-3.935 1.51-17.663 13.396-17.943 19.604 2.292 11.262 16.743 20.559 18.474 28.225l25.736 70.428c3.898 10.834 15.568 13.354 26.061 9.324 1.113-.426 2.17-12.946 3.163-13.543z"/><g fill="#D3613D"><path d="M94.34 211.332c6.69 6.005 9.055 13.71 5.281 17.204-3.776 3.501-12.252 1.478-18.949-4.521-6.691-6.006-9.057-13.704-5.283-17.205 3.775-3.504 12.255-1.473 18.951 4.522z"/><path d="M106.025 238.363l-1.682-2.382c-4.573 4.239-17.395-3.941-24.984-10.748-7.346-6.594-9.833-15.134-5.663-19.438l.269-.262c4.565-4.233 13.147-8.261 20.739-1.453 7.345 6.595 15.495 29.975 11.321 34.283zM78.952 211c-2.938 2-1.531 8.2 4.102 13.256 5.792 5.188 12.685 6.51 15.681 3.734l-.126-.504c2.752-2.84 1.256-8.236-4.379-13.293C88.438 208.998 81.868 207 78.955 211h-.003z"/></g><path fill="#FFA685" d="M99.158 221.78c-4.15 1.651-15.102 1.892-17.34-2.294 0 0-6.81-16.328-9.357-21.994-1.749-3.895-4.49-7.405-5.784-11.173-1.512-4.412-.05-12.249 4.099-13.9s7.076.103 9.313 4.292c0 0 1.089 3.073 2.939 6.538 2.835 5.305 10.085 9.065 13.801 17.125 1.973 4.281 6.479 19.757 2.329 21.406zM67.65 217.353c-1.039-3.41-6.015-11.951-10.614-11.762 0 0-17.904 3.214-23.858 3.789-4.093.399-9.259-2.894-12.99-2.245-4.373.763-7.898 4.122-7.813 7.986.079 3.572 2.226 1.423 7.497 3.774 1.958.873 9.25 4.757 13.057 4.601 5.83-.243 7.84 1.626 16.361.864 4.528-.403 19.398-3.602 18.36-7.007z"/><path fill="#FFA685" d="M65.702 232.367c-1.477-3.075-7.738-10.537-12.692-9.898 0 0-19.028 4.795-25.407 5.93-4.385.783-10.31-1.769-14.278-.787-4.65 1.149-8.114 4.636-7.622 8.229.455 3.321 2.553 1.103 8.495 2.765 2.208.618 10.494 3.506 14.595 2.977 6.277-.812 8.645.729 17.78-.837 4.854-.832 20.603-5.309 19.129-8.379z"/><path fill="#FFA685" d="M68.661 244.204c-1.642-2.95-8.172-9.901-12.828-8.881 0 0-17.697 6.255-23.667 7.882-4.104 1.12-9.931-.963-13.623.322-4.327 1.507-7.344 5.25-6.596 8.795.691 3.274 2.511.899 8.286 2.096 2.145.445 10.239 2.68 14.094 1.834 5.898-1.295 8.267.057 16.819-2.213 4.547-1.205 19.155-6.89 17.515-9.835z"/><path fill="#FFA685" d="M72.667 254.823c-1.606-2.456-7.559-8.039-11.252-6.781 0 0-13.82 6.864-18.527 8.757-3.235 1.304-8.166-.066-11.051 1.347-3.381 1.659-5.491 5.176-4.557 8.224.864 2.816 2.126.592 6.934 1.189 1.784.223 8.575 1.549 11.633.506 4.679-1.595 6.73-.595 13.479-3.253 3.587-1.412 14.947-7.535 13.341-9.989z"/><path fill="#FFA685" d="M118.721 229.106c-.054 3.335.774 9.122-2.797 13.044-7.025 7.722-7.77 5.297-21.549 10.451-17.268 6.457-33.877 12.759-38.422 9.249-4.211-7.88-4.614-47.076-1.987-54.471 7.012-5.428 20.466 3.003 21.275-8.581.755-10.816 6.088-16.765 12.542-9.492.605.682 13.181 10.798 21.578 21.622 4.333 5.592 9.483 10.589 9.36 18.178z"/><g><path fill="#95A8AF" d="M170.959 376.459a14474.02 14474.02 0 0 1-42.607 35.409c-11.217-40.815-22.432-81.633-33.652-122.453-7.084-25.793 41.856-38.151 48.924-12.428l27.335 99.472z"/></g><g><path fill="#BACACE" d="M143.791 270.735l-59.342 17.658-7.32-25.106 59.332-17.657z"/></g></g></g></svg>