<svg xmlns="http://www.w3.org/2000/svg" xmlns:xlink="http://www.w3.org/1999/xlink" width="412" height="283" viewBox="0 0 412 283"><defs><path id="a" d="M-81-22h627v301H-81z"/></defs><clipPath id="b"><use xlink:href="#a" overflow="visible"/></clipPath><g clip-path="url(#b)"><g fill="#BACACE"><path d="M145.971 364.382c28.832-31.746 58.357-63.588 86.578-95.136M85.36 430.98c18.004-19.451 36.81-40.594 54.571-59.965"/></g><path fill="#95A8AF" d="M131.226 341.282a12783.273 12783.273 0 0 0 25.825 50.232c32.521-35.735 65.044-71.474 97.57-107.211 20.548-22.582-23.644-52.633-44.139-30.113-26.419 29.034-52.836 58.061-79.256 87.092z"/><path fill="#95A8AF" d="M219.921 354.089c25.724 2.058 51.656-.95 77.434-.94 31.701.012 63.399.547 95.089 1.388 9.701.258 19.402.547 29.103.849v-23.919h-.1c-1.287-33.555-15.908-63.646-38.616-84.93a120.676 120.676 0 0 0-19.637-14.938 120.683 120.683 0 0 0-6.071-3.483c-.008-.006-.036-.011-.045-.021a172.697 172.697 0 0 0-4.254-2.158 77.117 77.117 0 0 0-2.361-1.104 119.35 119.35 0 0 0-4.78-2.064 118.325 118.325 0 0 0-44.308-8.575c-17.226 0-33.61 3.701-48.41 10.331-1.47.653-2.91 1.339-4.353 2.062-.666.332-1.311.668-1.982 1.01-.452.235-.851.446-1.292.682a78.23 78.23 0 0 0-2.418 1.347 7.926 7.926 0 0 0-.507.284 85.973 85.973 0 0 0-2.869 1.702c-7.03 4.3-13.61 9.301-19.622 14.936-22.722 21.3-37.325 51.366-38.62 84.921h-.096v2.102h38.716v20.518z"/><path fill="#FFA685" d="M300.399 145.533c13.489 0 24.412 8.336 24.412 18.603v96.081l-48.806-16.524v-79.557c.001-10.267 10.939-18.603 24.394-18.603z"/><path fill="#FFA685" d="M234.585 68.087v80.804c1.664 19.416 10.562 37.314 23.857 49.563 2.007.441 31.876.019 32.325.019 33.029 0 59.819-27.789 59.819-62.063V68.087H234.585z"/><path fill="#FFA685" d="M356.743 115.034c9.221 0 16.695 7.759 16.695 17.309 0 9.57-7.475 17.317-16.695 17.317h-27.162l.998-34.626h26.164z"/><path d="M360.506 56.298v10.455c.003.131.045.258.055.394v48.018h-6.649v12.372c0 5.691-4.437 10.305-9.938 10.305-5.463 0-9.913-4.613-9.913-10.305v-7.439c-1.323-7.768-7.855-13.665-15.722-13.672V86.033c-1.341-7.747-7.84-13.639-15.71-13.649v-.111h-68.084c-10.953 0-19.956-8.643-21.036-19.734H240.8l7.478-29.599h65.137c15.544 0 29.312 7.763 37.94 19.736l9.151 13.622z"/><g fill="#11122D"><path d="M256.861 117.855c2.795 0 5.052-2.333 5.052-5.24 0-2.879-2.257-5.233-5.052-5.233-2.788 0-5.058 2.354-5.058 5.233.001 2.907 2.27 5.24 5.058 5.24zM296.995 117.855c2.798 0 5.065-2.333 5.065-5.24 0-2.879-2.268-5.233-5.065-5.233-2.774 0-5.042 2.354-5.042 5.233 0 2.907 2.268 5.24 5.042 5.24z"/></g><path d="M242.277 60.432h54.239v11.946h-54.239z"/><path d="M360.76 50.311c0-24.901-19.463-45.092-43.454-45.092h-40.183c-24.003 0-43.46 20.191-43.46 45.092v22.066h10.054v-8.275c0-12.977 10.135-23.496 22.644-23.496h6.086c12.511 0 22.646 10.519 22.646 23.496v8.275h65.668V50.311z"/><path fill="none" stroke="#020304" stroke-width="1.365" d="M358.361 61.007h-58.753"/><path d="M244.602 59.774c-12.098-7.235-16.728-22.733-11.105-35.681l30.137 18.034-19.032 17.647z"/><path fill="#FFF" d="M299.348 311.963L339.724 231h-76.619z"/><path d="M299.577 226.62l17.191 25.48-17.714 14.255-17.697-14.255z"/><path d="M285.908 276.066l13.44 30.015 15.365-30.822-15.659-21.659z"/><path fill="#BACACE" d="M299.348 306.081l59.724-59.602-21.092-26.503zM299.348 306.081l-60.597-59.602 21.395-26.503z"/><path fill="#FFA685" d="M113.035 280.481c-9.443 3.268-20.147-.625-25.144-9.669L52.71 200.73c-12.829-13.836-10.287-42.232-.168-47.823 3.795-2.097 9.326-3.9 14.223-.072 6.995 9.137 17.038 25.316 21.688 31.668l36.08 66.064c5.591 10.117 1.921 22.852-8.198 28.442a20.943 20.943 0 0 1-3.3 1.472z"/><g fill="#FFA685"><path d="M62.988 158.479c2.792 9.044.574 17.762-4.952 19.465-5.529 1.706-12.272-4.231-15.072-13.273-2.792-9.046-.577-17.757 4.951-19.466 5.53-1.712 12.271 4.235 15.073 13.274z"/><path d="M58.367 190.633l-.201-3.136c-6.697 2.069-13.957-11.977-17.125-22.232-3.065-9.932-.483-19.53 5.877-21.849l.402-.135c6.685-2.066 16.999-2.063 20.169 8.194 3.064 9.932-2.759 36.838-9.122 39.158zM49.395 150c-4.271 2-6.417 7.898-4.065 15.514 2.42 7.822 7.948 12.58 12.335 11.226l.101-.431c4.199-1.533 6.146-8.001 3.796-15.618-2.42-7.83-7.817-11.691-12.163-10.691h-.004z"/></g><path fill="#FFA685" d="M61.483 171.047c-4.818-.295-15.168-5.144-14.851-10.322 0 0 3.022-19.309 3.901-26.095.604-4.663.061-9.407 1.019-13.734 1.123-5.066 6.985-12.137 11.802-11.842 4.816.294 6.537 3.388 6.22 8.569 0 0-.75 3.546-1.014 7.833-.4 6.559 4.2 13.647 3.038 23.341-.618 5.15-5.299 22.545-10.115 22.25z"/><path fill="#FFA685" d="M76.13 183.516c2.5-3.177-5.016 8.662-10.598 10.882-10.983 4.371-10.396 6.206-26.206 4.904-19.804-1.633-25.893-6.812-28.114-12.391.596-9.751 11.052-43.116 17.747-49.209 6.272-8.268 16.009 10.59 23.415-.49 6.914-10.343 16.731-1.123 18.574 9.066.544 3.013 4.896 6.279 6.276 18.775.833 7.543-10.007 29.795-1.094 18.463z"/><path fill="#FFA685" d="M36.965 141.236c-1.009 5.111-7.27 11.086-13.768 9.803-6.496-1.284-12.859-6.582-11.851-11.692 1.009-5.112 8.051-8.156 14.548-6.875 6.498 1.284 12.08 3.653 11.071 8.764z"/><path fill="#FFA685" d="M32.914 155.083c-1.01 5.111-7.27 11.087-13.767 9.803-6.496-1.282-12.859-6.581-11.85-11.692 1.009-5.11 8.051-8.155 14.548-6.874 6.496 1.283 12.078 3.652 11.069 8.763z"/><path fill="#FFA685" d="M30.478 168.71c-1.008 5.11-7.269 11.086-13.767 9.804-6.496-1.283-12.859-6.583-11.851-11.692 1.01-5.112 8.051-8.157 14.549-6.876 6.497 1.285 12.078 3.653 11.069 8.764z"/><path fill="#FFA685" d="M30.394 180.56c-1.009 5.107-4.632 15.09-11.129 13.807-6.497-1.282-15.498-10.588-14.489-15.698 1.009-5.11 8.052-8.157 14.548-6.875 6.498 1.284 12.079 3.652 11.07 8.766z"/><g><g fill="#BACACE"><path d="M136.816 320.279c-18.027-33.064-35.874-66.72-53.958-99.229M174.589 389.746c-10.917-20.532-23.076-42.233-34.011-62.545"/></g><path fill="#95A8AF" d="M109.856 325.111c18.74-1.786 37.477-3.605 56.21-5.462-20.269-37.274-40.538-74.548-60.806-111.827-12.809-23.551-57.574 2.961-44.801 26.45l49.397 90.839z"/></g><g><path fill="#BACACE" d="M55.966 229.924l56.146-30.236-12.156-23.23-56.14 30.23z"/></g><g><path fill="#F5F5F5" d="M258.072 144.703c1.926 11.568 11.652 20.352 23.405 20.275 11.733-.07 21.36-8.956 23.171-20.538l-46.576.263z"/></g></g></svg>