<?xml version="1.0" encoding="utf-8"?>
<!-- Generator: Adobe Illustrator 15.1.0, SVG Export Plug-In . SVG Version: 6.00 Build 0)  -->
<!DOCTYPE svg PUBLIC "-//W3C//DTD SVG 1.1//EN" "http://www.w3.org/Graphics/SVG/1.1/DTD/svg11.dtd">
<svg version="1.1" id="Layer_1" xmlns="http://www.w3.org/2000/svg" xmlns:xlink="http://www.w3.org/1999/xlink" x="0px" y="0px"
	 width="377px" height="193px" viewBox="447 0 377 193" enable-background="new 447 0 377 193" xml:space="preserve">
<text transform="matrix(1.0391 0 0 1 -199.2053 -538.3184)" display="none" fill="#231F20" enable-background="new    " font-family="'Consolas'" font-size="17">R – Responsible – сотрудник, ответственный за фактическое исполнение KPI.</text>
<g>
	<g>
		<rect x="454.049" y="7.842" fill="#E6E7E8" width="367.439" height="52.425"/>
		<path fill="#808184" d="M822.488,61.267H453.049V6.842h369.439V61.267z M455.049,59.267h365.439V8.842H455.049V59.267
			L455.049,59.267z"/>
	</g>
	<g>
		<rect x="454.049" y="57.948" fill="#E6E7E8" width="67.503" height="128.976"/>
		<path fill="#808184" d="M522.552,187.924h-69.503V56.948h69.503V187.924z M455.049,185.924h65.503V58.948h-65.503V185.924
			L455.049,185.924z"/>
	</g>
	<g>
		<rect x="520.245" y="57.948" fill="#FFFFFF" width="299.243" height="128.976"/>
		<path fill="#808184" d="M820.488,187.924H519.245V56.948h301.243V187.924L820.488,187.924z M521.245,185.924h297.243V58.948
			H521.245V185.924z"/>
	</g>
	<g>
		<rect x="455.205" y="60.499" fill="#FFF100" width="363.963" height="7.654"/>
	</g>
	<g>
		<rect x="521.014" y="6.913" fill="#808184" width="2" height="180.241"/>
	</g>
	<g>
		<rect x="559.287" y="6.913" fill="#808184" width="2" height="180.241"/>
	</g>
	<g>
		<rect x="596.868" y="6.913" fill="#808184" width="2" height="180.241"/>
	</g>
	<g>
		<rect x="633.753" y="6.913" fill="#808184" width="2" height="180.241"/>
	</g>
	<g>
		<rect x="672.026" y="6.913" fill="#808184" width="2" height="180.241"/>
	</g>
	<g>
		<rect x="709.605" y="6.913" fill="#808184" width="2" height="180.241"/>
	</g>
	<g>
		<rect x="744.4" y="6.913" fill="#808184" width="2" height="180.241"/>
	</g>
	<g>
		<rect x="782.677" y="6.913" fill="#808184" width="2" height="180.241"/>
	</g>
	<g>
		<rect x="453.813" y="58.107" fill="#808184" width="368.139" height="2"/>
	</g>
	<g>
		<rect x="453.813" y="67.153" fill="#808184" width="368.139" height="2"/>
	</g>
	<g>
		<rect x="454.51" y="108.211" fill="#808184" width="368.139" height="2"/>
	</g>
	<g>
		<rect x="454.51" y="147.881" fill="#808184" width="368.139" height="2"/>
	</g>
	<g>
		<rect x="460.773" y="80.68" fill="#BBBDBF" width="50.104" height="12.524"/>
	</g>
	<g>
		<rect x="534.19" y="16.308" fill="#BBBDBF" width="13.224" height="28.533"/>
	</g>
	<g>
		<rect x="572.469" y="16.308" fill="#BBBDBF" width="13.223" height="21.575"/>
	</g>
	<g>
		<rect x="609.352" y="16.308" fill="#BBBDBF" width="13.221" height="13.918"/>
	</g>
	<g>
		<rect x="646.233" y="16.308" fill="#BBBDBF" width="13.224" height="35.491"/>
	</g>
	<g>
		<rect x="685.901" y="16.308" fill="#BBBDBF" width="13.221" height="28.533"/>
	</g>
	<g>
		<rect x="721.393" y="16.308" fill="#BBBDBF" width="13.222" height="36.188"/>
	</g>
	<g>
		<rect x="756.885" y="16.308" fill="#BBBDBF" width="13.224" height="28.533"/>
	</g>
	<g>
		<rect x="795.855" y="16.308" fill="#BBBDBF" width="13.224" height="20.182"/>
	</g>
	<g>
		<rect x="460.773" y="122.434" fill="#BBBDBF" width="34.1" height="12.527"/>
	</g>
	<g>
		<rect x="460.773" y="160.711" fill="#BBBDBF" width="50.104" height="12.525"/>
	</g>
	<g>
		<rect x="468.427" y="25.702" fill="none" width="47.322" height="29.229"/>
	</g>
	<g enable-background="new    ">
		<path fill="#231F20" d="M477.345,42.029l-4.539-7.302v7.302h-2.889v-15.1h2.889v6.875l4.517-6.875h3.432l-5.13,7.198l5.396,7.902
			H477.345z"/>
		<path fill="#231F20" d="M493.474,31.735c0,0.785-0.131,1.512-0.394,2.178c-0.262,0.666-0.65,1.242-1.167,1.728
			c-0.517,0.485-1.158,0.862-1.93,1.132c-0.771,0.27-1.663,0.404-2.681,0.404h-1.443v4.853h-2.865V26.929h4.425
			c0.979,0,1.844,0.106,2.594,0.318c0.752,0.212,1.383,0.521,1.896,0.93c0.514,0.409,0.901,0.911,1.167,1.508
			C493.343,30.282,493.474,30.965,493.474,31.735z M490.494,31.932c0-0.4-0.063-0.765-0.19-1.092
			c-0.127-0.327-0.319-0.606-0.577-0.838c-0.259-0.23-0.583-0.408-0.977-0.531s-0.858-0.185-1.397-0.185h-1.49v5.534h1.582
			c0.493,0,0.928-0.067,1.306-0.202c0.379-0.135,0.695-0.329,0.954-0.584c0.259-0.254,0.453-0.558,0.589-0.912
			C490.427,32.768,490.494,32.371,490.494,31.932z"/>
		<path fill="#231F20" d="M496.177,29.251v-2.322h9.543v2.322h-3.326v10.433h3.326v2.346h-9.543v-2.346h3.328V29.251H496.177z"/>
	</g>
	<g>
		<rect x="534.54" y="79.984" fill="none" width="18.097" height="22.269"/>
	</g>
	<g enable-background="new    ">
		<path fill="#231F20" d="M543.644,96.311l-2.126-4.853c-0.2-0.462-0.479-0.811-0.837-1.045c-0.359-0.235-0.78-0.353-1.266-0.353
			h-0.544v6.25h-2.842v-15.1h4.401c0.832,0,1.587,0.071,2.265,0.214c0.679,0.143,1.256,0.38,1.732,0.711
			c0.479,0.331,0.846,0.763,1.104,1.294c0.259,0.531,0.388,1.183,0.388,1.952c0,0.555-0.08,1.048-0.242,1.479
			c-0.162,0.431-0.389,0.803-0.683,1.114c-0.293,0.313-0.641,0.564-1.045,0.757c-0.403,0.193-0.846,0.327-1.322,0.404
			c0.37,0.077,0.708,0.287,1.017,0.63c0.309,0.343,0.616,0.838,0.924,1.484l2.415,5.061L543.644,96.311L543.644,96.311z
			 M542.939,85.658c0-0.739-0.234-1.271-0.705-1.594c-0.469-0.324-1.174-0.485-2.113-0.485h-1.248v4.263h1.155
			c0.438,0,0.837-0.046,1.196-0.139c0.357-0.092,0.664-0.23,0.918-0.416c0.254-0.185,0.451-0.414,0.59-0.688
			C542.871,86.327,542.939,86.013,542.939,85.658z"/>
	</g>
	<g>
		<rect x="534.54" y="118.258" fill="none" width="18.097" height="22.271"/>
	</g>
	<g enable-background="new    ">
		<path fill="#231F20" d="M536.273,121.807v-2.322h9.543v2.322h-3.327v10.434h3.327v2.346h-9.543v-2.346h3.328v-10.434H536.273z"/>
	</g>
	<g>
		<rect x="534.54" y="156.534" fill="none" width="18.097" height="22.271"/>
	</g>
	<g enable-background="new    ">
		<path fill="#231F20" d="M546.14,172.271c-0.671,0.27-1.32,0.47-1.947,0.601c-0.628,0.131-1.281,0.196-1.959,0.196
			c-1.086,0-2.047-0.16-2.882-0.479c-0.836-0.319-1.54-0.795-2.114-1.427c-0.574-0.633-1.01-1.415-1.306-2.352
			s-0.444-2.023-0.444-3.265c0-1.271,0.161-2.399,0.484-3.392c0.324-0.988,0.786-1.824,1.387-2.506
			c0.603-0.683,1.33-1.203,2.189-1.561c0.858-0.357,1.822-0.537,2.895-0.537c0.346,0,0.672,0.008,0.978,0.021
			c0.304,0.017,0.602,0.046,0.895,0.088s0.59,0.098,0.89,0.167c0.301,0.069,0.612,0.157,0.938,0.267v2.818
			c-0.655-0.309-1.279-0.527-1.872-0.658s-1.132-0.195-1.618-0.195c-0.716,0-1.328,0.129-1.836,0.387
			c-0.509,0.258-0.927,0.619-1.254,1.086c-0.328,0.466-0.568,1.021-0.723,1.664s-0.23,1.35-0.23,2.119
			c0,0.816,0.078,1.547,0.236,2.189s0.402,1.188,0.734,1.635c0.329,0.446,0.754,0.787,1.271,1.022
			c0.517,0.233,1.128,0.353,1.837,0.353c0.254,0,0.529-0.025,0.826-0.076c0.297-0.049,0.597-0.115,0.9-0.195
			c0.305-0.08,0.604-0.178,0.901-0.288c0.296-0.112,0.571-0.226,0.826-0.341L546.14,172.271L546.14,172.271z"/>
	</g>
	<g>
		<rect x="646.582" y="156.534" fill="none" width="18.097" height="22.271"/>
	</g>
	<g enable-background="new    ">
		<path fill="#231F20" d="M648.316,160.082v-2.322h9.543v2.322h-3.327v10.434h3.327v2.346h-9.543v-2.346h3.328v-10.434H648.316z"/>
	</g>
	<g>
		<rect x="685.553" y="156.534" fill="none" width="18.093" height="22.271"/>
	</g>
	<g enable-background="new    ">
		<path fill="#231F20" d="M687.286,160.082v-2.322h9.543v2.322h-3.326v10.434h3.326v2.346h-9.543v-2.346h3.327v-10.434H687.286z"/>
	</g>
	<g>
		<rect x="685.553" y="79.288" fill="none" width="18.093" height="22.269"/>
	</g>
	<g enable-background="new    ">
		<path fill="#231F20" d="M687.286,82.836v-2.322h9.543v2.322h-3.326v10.433h3.326v2.346h-9.543v-2.346h3.327V82.836H687.286z"/>
	</g>
	<g>
		<rect x="572.12" y="79.288" fill="none" width="18.096" height="22.269"/>
	</g>
	<g enable-background="new    ">
		<path fill="#231F20" d="M573.853,82.836v-2.322h9.543v2.322h-3.327v10.433h3.327v2.346h-9.543v-2.346h3.328V82.836H573.853z"/>
	</g>
	<g>
		<rect x="608.307" y="79.288" fill="none" width="18.094" height="22.269"/>
	</g>
	<g enable-background="new    ">
		<path fill="#231F20" d="M618.128,95.614l-0.832-2.98h-5.269l-0.854,2.98h-2.818l4.471-15.101h3.976l4.471,15.101H618.128z
			 M614.696,83.287l-1.987,7.024h3.951L614.696,83.287z"/>
	</g>
	<g>
		<rect x="646.582" y="79.984" fill="none" width="18.097" height="22.269"/>
	</g>
	<g enable-background="new    ">
		<path fill="#231F20" d="M655.687,96.311l-2.126-4.853c-0.2-0.462-0.479-0.811-0.837-1.045c-0.359-0.235-0.78-0.353-1.266-0.353
			h-0.543v6.25h-2.843v-15.1h4.401c0.832,0,1.587,0.071,2.265,0.214c0.679,0.143,1.256,0.38,1.732,0.711
			c0.479,0.331,0.846,0.763,1.104,1.294c0.259,0.531,0.388,1.183,0.388,1.952c0,0.555-0.08,1.048-0.242,1.479
			c-0.162,0.431-0.389,0.803-0.682,1.114c-0.294,0.313-0.642,0.564-1.046,0.757c-0.403,0.193-0.846,0.327-1.322,0.404
			c0.37,0.077,0.708,0.287,1.017,0.63c0.31,0.343,0.616,0.838,0.924,1.484l2.415,5.061L655.687,96.311L655.687,96.311z
			 M654.982,85.658c0-0.739-0.234-1.271-0.705-1.594c-0.469-0.324-1.174-0.485-2.113-0.485h-1.248v4.263h1.155
			c0.438,0,0.837-0.046,1.196-0.139c0.357-0.092,0.664-0.23,0.918-0.416c0.254-0.185,0.451-0.414,0.59-0.688
			C654.914,86.327,654.982,86.013,654.982,85.658z"/>
	</g>
	<g>
		<rect x="646.582" y="118.954" fill="none" width="18.097" height="22.271"/>
	</g>
	<g>
		<rect x="721.046" y="157.229" fill="none" width="18.095" height="22.271"/>
	</g>
	<g>
		<rect x="756.536" y="79.984" fill="none" width="18.097" height="22.269"/>
	</g>
	<g>
		<rect x="756.536" y="118.954" fill="none" width="18.097" height="22.271"/>
	</g>
	<g>
		<rect x="795.509" y="155.838" fill="none" width="18.095" height="22.27"/>
	</g>
	<g>
		<rect x="795.509" y="118.258" fill="none" width="18.095" height="22.271"/>
	</g>
	<g>
		<rect x="720.348" y="79.984" fill="none" width="18.095" height="22.269"/>
	</g>
	<g enable-background="new    ">
		<path fill="#231F20" d="M730.171,96.311l-0.832-2.98h-5.27l-0.854,2.98h-2.819l4.471-15.101h3.976l4.472,15.101H730.171z
			 M726.738,83.983l-1.986,7.024h3.95L726.738,83.983z"/>
	</g>
	<g>
		<rect x="720.348" y="119.648" fill="none" width="18.095" height="22.271"/>
	</g>
	<g enable-background="new    ">
		<path fill="#231F20" d="M730.171,135.977l-0.832-2.979h-5.27l-0.854,2.979h-2.819l4.471-15.101h3.976l4.472,15.101H730.171z
			 M726.738,123.648l-1.986,7.024h3.95L726.738,123.648z"/>
	</g>
	<g enable-background="new    ">
		<path fill="#231F20" d="M769.281,95.722c-0.67,0.27-1.317,0.47-1.945,0.601c-0.629,0.131-1.28,0.196-1.958,0.196
			c-1.087,0-2.048-0.16-2.884-0.479s-1.541-0.795-2.113-1.427c-0.573-0.632-1.01-1.415-1.307-2.352
			c-0.297-0.936-0.444-2.023-0.444-3.264c0-1.271,0.161-2.4,0.485-3.391c0.322-0.989,0.785-1.825,1.387-2.507
			c0.601-0.682,1.33-1.202,2.188-1.56s1.823-0.537,2.894-0.537c0.349,0,0.673,0.007,0.978,0.022
			c0.305,0.015,0.604,0.045,0.896,0.087c0.293,0.042,0.59,0.098,0.891,0.167c0.301,0.069,0.611,0.158,0.936,0.267v2.818
			c-0.653-0.308-1.277-0.527-1.871-0.658c-0.594-0.131-1.133-0.196-1.616-0.196c-0.718,0-1.329,0.129-1.839,0.387
			c-0.508,0.258-0.926,0.62-1.253,1.086c-0.326,0.466-0.567,1.021-0.722,1.664s-0.23,1.35-0.23,2.12
			c0,0.816,0.078,1.546,0.236,2.189c0.157,0.643,0.402,1.188,0.732,1.635c0.332,0.446,0.756,0.787,1.271,1.022
			c0.517,0.234,1.129,0.352,1.837,0.352c0.255,0,0.529-0.024,0.826-0.075c0.296-0.05,0.597-0.115,0.901-0.196
			c0.304-0.08,0.604-0.177,0.899-0.288c0.297-0.112,0.572-0.226,0.826-0.341V95.722L769.281,95.722z"/>
	</g>
	<g enable-background="new    ">
		<path fill="#231F20" d="M769.281,135.389c-0.67,0.27-1.317,0.469-1.945,0.6c-0.629,0.132-1.28,0.197-1.958,0.197
			c-1.087,0-2.048-0.16-2.884-0.479s-1.541-0.795-2.113-1.427c-0.573-0.633-1.01-1.416-1.307-2.352
			c-0.297-0.938-0.444-2.023-0.444-3.265c0-1.271,0.161-2.399,0.485-3.392c0.322-0.988,0.785-1.824,1.387-2.506
			c0.601-0.683,1.33-1.203,2.188-1.561s1.823-0.537,2.894-0.537c0.349,0,0.673,0.007,0.978,0.021
			c0.305,0.016,0.604,0.045,0.896,0.088c0.293,0.041,0.59,0.098,0.891,0.166c0.301,0.07,0.611,0.158,0.936,0.268v2.818
			c-0.653-0.309-1.277-0.527-1.871-0.658s-1.133-0.196-1.616-0.196c-0.718,0-1.329,0.13-1.839,0.388
			c-0.508,0.258-0.926,0.619-1.253,1.086c-0.326,0.465-0.567,1.021-0.722,1.664c-0.154,0.643-0.23,1.35-0.23,2.119
			c0,0.816,0.078,1.547,0.236,2.189c0.157,0.643,0.402,1.188,0.732,1.635c0.332,0.446,0.756,0.787,1.271,1.021
			c0.517,0.234,1.129,0.353,1.837,0.353c0.255,0,0.529-0.024,0.826-0.075c0.296-0.05,0.597-0.115,0.901-0.195
			c0.304-0.08,0.604-0.178,0.899-0.289c0.297-0.111,0.572-0.225,0.826-0.34V135.389L769.281,135.389z"/>
	</g>
	<g enable-background="new    ">
		<path fill="#231F20" d="M804.837,96.311l-0.832-2.98h-5.27l-0.854,2.98h-2.819l4.471-15.101h3.976l4.472,15.101H804.837z
			 M801.404,83.983l-1.986,7.024h3.95L801.404,83.983z"/>
	</g>
	<g enable-background="new    ">
		<path fill="#231F20" d="M806.615,135.389c-0.671,0.27-1.319,0.469-1.947,0.6c-0.628,0.132-1.28,0.197-1.959,0.197
			c-1.086,0-2.047-0.16-2.882-0.479c-0.836-0.319-1.54-0.795-2.113-1.427c-0.574-0.633-1.011-1.416-1.307-2.352
			c-0.296-0.938-0.443-2.023-0.443-3.265c0-1.271,0.16-2.399,0.483-3.392c0.324-0.988,0.786-1.824,1.387-2.506
			c0.603-0.683,1.33-1.203,2.189-1.561s1.823-0.537,2.896-0.537c0.346,0,0.672,0.007,0.977,0.021
			c0.304,0.017,0.602,0.045,0.896,0.088c0.293,0.041,0.59,0.098,0.89,0.166c0.3,0.07,0.612,0.158,0.937,0.268v2.818
			c-0.654-0.309-1.278-0.527-1.872-0.658c-0.593-0.131-1.132-0.196-1.617-0.196c-0.717,0-1.328,0.13-1.836,0.388
			c-0.51,0.258-0.928,0.619-1.255,1.086c-0.327,0.465-0.567,1.021-0.723,1.664c-0.154,0.643-0.229,1.35-0.229,2.119
			c0,0.816,0.077,1.547,0.235,2.189s0.402,1.188,0.734,1.635c0.33,0.446,0.754,0.787,1.271,1.021
			c0.518,0.234,1.128,0.353,1.837,0.353c0.255,0,0.529-0.024,0.826-0.075c0.297-0.05,0.598-0.115,0.9-0.195
			c0.305-0.08,0.604-0.178,0.902-0.289c0.296-0.111,0.57-0.225,0.825-0.34L806.615,135.389L806.615,135.389z"/>
	</g>
	<g>
		<rect x="684.857" y="119.648" fill="none" width="18.093" height="22.271"/>
	</g>
	<g enable-background="new    ">
		<path fill="#231F20" d="M693.963,135.977l-2.126-4.853c-0.2-0.462-0.479-0.812-0.839-1.045c-0.356-0.235-0.778-0.353-1.265-0.353
			h-0.543v6.25h-2.843v-15.102h4.401c0.832,0,1.586,0.07,2.266,0.214c0.678,0.144,1.255,0.38,1.732,0.711s0.846,0.763,1.104,1.294
			c0.258,0.531,0.387,1.184,0.387,1.952c0,0.556-0.081,1.048-0.243,1.479c-0.161,0.431-0.389,0.803-0.682,1.113
			c-0.292,0.313-0.642,0.564-1.046,0.758c-0.404,0.192-0.845,0.326-1.322,0.404c0.369,0.076,0.709,0.286,1.018,0.629
			c0.308,0.344,0.615,0.838,0.925,1.484l2.414,5.061h-3.339V135.977z M693.259,125.324c0-0.739-0.236-1.271-0.705-1.594
			c-0.472-0.324-1.175-0.485-2.115-0.485h-1.247v4.263h1.155c0.438,0,0.838-0.046,1.194-0.139c0.358-0.092,0.664-0.23,0.92-0.416
			c0.255-0.186,0.449-0.414,0.589-0.688C693.187,125.993,693.259,125.68,693.259,125.324z"/>
	</g>
	<g>
		<rect x="572.814" y="119.648" fill="none" width="18.094" height="22.271"/>
	</g>
	<g enable-background="new    ">
		<path fill="#231F20" d="M581.921,135.977l-2.126-4.853c-0.2-0.462-0.479-0.812-0.838-1.045c-0.358-0.235-0.779-0.353-1.266-0.353
			h-0.543v6.25h-2.842v-15.102h4.4c0.832,0,1.588,0.07,2.266,0.214s1.256,0.38,1.731,0.711c0.479,0.331,0.847,0.763,1.104,1.294
			s0.387,1.184,0.387,1.952c0,0.556-0.08,1.048-0.242,1.479c-0.161,0.431-0.389,0.803-0.682,1.113
			c-0.293,0.313-0.641,0.564-1.045,0.758c-0.404,0.192-0.846,0.326-1.323,0.404c0.37,0.076,0.708,0.286,1.018,0.629
			c0.309,0.344,0.616,0.838,0.924,1.484l2.415,5.061h-3.339V135.977z M581.216,125.324c0-0.739-0.234-1.271-0.705-1.594
			c-0.47-0.324-1.174-0.485-2.113-0.485h-1.248v4.263h1.155c0.438,0,0.837-0.046,1.196-0.139c0.356-0.092,0.663-0.23,0.918-0.416
			c0.254-0.186,0.45-0.414,0.59-0.688C581.146,125.993,581.216,125.68,581.216,125.324z"/>
	</g>
	<g>
		<rect x="572.814" y="155.143" fill="none" width="18.094" height="22.271"/>
	</g>
	<g enable-background="new    ">
		<path fill="#231F20" d="M581.921,171.469l-2.126-4.854c-0.2-0.461-0.479-0.811-0.838-1.045s-0.779-0.352-1.266-0.352h-0.543v6.25
			h-2.842v-15.102h4.4c0.832,0,1.588,0.07,2.266,0.214s1.256,0.38,1.731,0.711c0.479,0.331,0.847,0.763,1.104,1.294
			s0.387,1.184,0.387,1.952c0,0.556-0.08,1.048-0.242,1.479c-0.161,0.43-0.389,0.803-0.682,1.113
			c-0.293,0.313-0.641,0.564-1.045,0.758c-0.404,0.192-0.846,0.326-1.323,0.403c0.37,0.077,0.708,0.287,1.018,0.63
			c0.309,0.344,0.616,0.838,0.924,1.484l2.415,5.061h-3.339V171.469z M581.216,160.816c0-0.739-0.234-1.271-0.705-1.594
			c-0.47-0.324-1.174-0.486-2.113-0.486h-1.248V163h1.155c0.438,0,0.837-0.046,1.196-0.139c0.356-0.092,0.663-0.23,0.918-0.416
			c0.254-0.186,0.45-0.414,0.59-0.688C581.146,161.484,581.216,161.171,581.216,160.816z"/>
	</g>
	<g>
		<rect x="608.307" y="155.143" fill="none" width="18.094" height="22.271"/>
	</g>
	<g enable-background="new    ">
		<path fill="#231F20" d="M618.128,171.469l-0.832-2.98h-5.269l-0.854,2.98h-2.818l4.471-15.101h3.976l4.471,15.101H618.128z
			 M614.696,159.143l-1.987,7.023h3.951L614.696,159.143z"/>
	</g>
	<g>
		<rect x="757.929" y="155.143" fill="none" width="18.093" height="22.271"/>
	</g>
	<g enable-background="new    ">
		<path fill="#231F20" d="M767.033,171.469l-2.126-4.854c-0.2-0.461-0.479-0.811-0.837-1.045s-0.779-0.352-1.266-0.352h-0.543v6.25
			h-2.842v-15.102h4.4c0.832,0,1.587,0.07,2.266,0.214c0.678,0.144,1.256,0.38,1.731,0.711c0.479,0.331,0.847,0.763,1.104,1.294
			s0.387,1.184,0.387,1.952c0,0.556-0.08,1.048-0.242,1.479c-0.162,0.43-0.389,0.803-0.682,1.113
			c-0.293,0.313-0.642,0.564-1.045,0.758c-0.404,0.192-0.847,0.326-1.323,0.403c0.37,0.077,0.708,0.287,1.017,0.63
			c0.31,0.344,0.616,0.838,0.925,1.484l2.415,5.061h-3.34V171.469z M766.328,160.816c0-0.739-0.233-1.271-0.705-1.594
			c-0.469-0.324-1.174-0.486-2.112-0.486h-1.248V163h1.155c0.438,0,0.837-0.046,1.195-0.139c0.357-0.092,0.664-0.23,0.918-0.416
			s0.451-0.414,0.59-0.688C766.26,161.484,766.328,161.171,766.328,160.816z"/>
	</g>
</g>
</svg>
