<?xml version="1.0" encoding="utf-8"?>
<!-- Generator: Adobe Illustrator 15.1.0, SVG Export Plug-In . SVG Version: 6.00 Build 0)  -->
<!DOCTYPE svg PUBLIC "-//W3C//DTD SVG 1.1//EN" "http://www.w3.org/Graphics/SVG/1.1/DTD/svg11.dtd">
<svg version="1.1" id="Layer_1" xmlns="http://www.w3.org/2000/svg" xmlns:xlink="http://www.w3.org/1999/xlink" x="0px" y="0px"
	 width="393px" height="202px" viewBox="0 0 393 202" enable-background="new 0 0 393 202" xml:space="preserve">
<text transform="matrix(1.0391 0 0 1 -199.2051 -176.3203)" display="none" fill="#231F20" enable-background="new    " font-family="'Consolas'" font-size="17">R – Responsible – сотрудник, ответственный за фактическое исполнение KPI.</text>
<rect x="34.565" y="26.826" fill="#FFF100" width="45.318" height="18.753"/>
<rect x="79.885" y="26.826" fill="#8BC53F" width="47.662" height="18.753"/>
<rect x="128.33" y="26.826" fill="#A6A8AB" width="45.32" height="18.753"/>
<rect x="174.432" y="26.826" fill="#BB61CE" width="48.443" height="18.753"/>
<rect x="222.096" y="26.826" fill="#FFAEEE" width="48.443" height="18.753"/>
<rect x="270.541" y="26.826" fill="#8AA9FF" width="48.445" height="18.753"/>
<rect x="318.986" y="26.826" fill="#FF9769" width="48.445" height="18.753"/>
<rect x="34.469" y="4.947" fill="none" stroke="#808184" stroke-width="2" stroke-miterlimit="10" width="353.362" height="193"/>
<line fill="none" stroke="#808184" stroke-width="2" stroke-miterlimit="10" x1="34.565" y1="26.044" x2="387.758" y2="26.044"/>
<line fill="none" stroke="#808184" stroke-width="2" stroke-miterlimit="10" x1="34.565" y1="46.36" x2="387.758" y2="46.36"/>
<line fill="none" stroke="#808184" stroke-width="2" stroke-miterlimit="10" x1="34.565" y1="65.113" x2="387.758" y2="65.113"/>
<line fill="none" stroke="#808184" stroke-width="2" stroke-miterlimit="10" x1="34.565" y1="73.708" x2="387.758" y2="73.708"/>
<line fill="none" stroke="#808184" stroke-width="2" stroke-miterlimit="10" x1="34.565" y1="82.303" x2="387.758" y2="82.303"/>
<line fill="none" stroke="#808184" stroke-width="2" stroke-miterlimit="10" x1="34.565" y1="129.186" x2="387.758" y2="129.186"/>
<line fill="none" stroke="#808184" stroke-width="2" stroke-miterlimit="10" x1="34.565" y1="137" x2="387.758" y2="137"/>
<line fill="none" stroke="#808184" stroke-width="2" stroke-miterlimit="10" x1="34.565" y1="158.098" x2="387.758" y2="158.098"/>
<line fill="none" stroke="#808184" stroke-width="2" stroke-miterlimit="10" x1="34.565" y1="177.631" x2="387.758" y2="177.631"/>
<line fill="none" stroke="#808184" stroke-width="2" stroke-miterlimit="10" x1="34.565" y1="183.882" x2="387.758" y2="183.882"/>
<line fill="none" stroke="#808184" stroke-width="2" stroke-miterlimit="10" x1="35.347" y1="190.915" x2="388.54" y2="190.915"/>
<line fill="none" stroke="#808184" stroke-width="2" stroke-miterlimit="10" x1="34.565" y1="165.129" x2="387.758" y2="165.129"/>
<line fill="none" stroke="#808184" stroke-width="2" stroke-miterlimit="10" x1="35.347" y1="171.381" x2="388.54" y2="171.381"/>
<rect x="39.253" y="9.636" fill="none" width="130.49" height="17.972"/>
<g enable-background="new    ">
	<path d="M45.798,18.801h-1.153v-7.452h-3.478v7.452h-1.154v-8.479h5.785V18.801z"/>
	<path d="M53.263,15.493c0,0.506-0.071,0.97-0.215,1.391c-0.143,0.422-0.348,0.783-0.615,1.084c-0.269,0.3-0.596,0.533-0.979,0.7
		c-0.385,0.166-0.822,0.25-1.31,0.25c-0.467,0-0.886-0.073-1.255-0.218c-0.37-0.145-0.684-0.357-0.94-0.639
		c-0.256-0.282-0.454-0.629-0.59-1.044c-0.136-0.416-0.204-0.894-0.204-1.434c0-0.506,0.071-0.968,0.214-1.385
		c0.144-0.418,0.348-0.776,0.616-1.077c0.268-0.301,0.595-0.534,0.979-0.7c0.386-0.167,0.822-0.25,1.311-0.25
		c0.467,0,0.886,0.072,1.255,0.218c0.37,0.145,0.683,0.356,0.94,0.636c0.257,0.278,0.453,0.625,0.59,1.041
		C53.195,14.481,53.263,14.957,53.263,15.493z M52.109,15.545c0-0.402-0.044-0.754-0.133-1.054
		c-0.088-0.301-0.215-0.552-0.379-0.753c-0.164-0.201-0.364-0.353-0.601-0.454c-0.234-0.102-0.498-0.152-0.788-0.152
		c-0.337,0-0.626,0.066-0.866,0.198c-0.239,0.132-0.437,0.308-0.59,0.528c-0.152,0.221-0.266,0.477-0.337,0.769
		c-0.07,0.292-0.106,0.598-0.106,0.918c0,0.402,0.044,0.755,0.133,1.057c0.088,0.303,0.215,0.555,0.379,0.756
		c0.164,0.201,0.363,0.353,0.597,0.454s0.497,0.152,0.792,0.152c0.337,0,0.625-0.065,0.866-0.197c0.24-0.132,0.438-0.309,0.59-0.529
		c0.153-0.22,0.267-0.477,0.337-0.769S52.109,15.869,52.109,15.545z"/>
	<path d="M60.132,18.801h-1.128v-2.88h-2.977v2.88h-1.129v-6.512h1.129v2.646h2.977v-2.646h1.128V18.801z"/>
	<path d="M67.701,15.201c0,0.16-0.002,0.294-0.007,0.402c-0.004,0.107-0.011,0.209-0.02,0.305h-4.572
		c0,0.666,0.186,1.177,0.558,1.534c0.372,0.356,0.908,0.535,1.608,0.535c0.189,0,0.381-0.008,0.57-0.023
		c0.19-0.015,0.374-0.035,0.552-0.062c0.177-0.025,0.347-0.055,0.509-0.088c0.162-0.032,0.313-0.067,0.451-0.106v0.928
		c-0.308,0.086-0.654,0.156-1.041,0.211c-0.388,0.054-0.788,0.081-1.203,0.081c-0.559,0-1.038-0.076-1.44-0.228
		c-0.401-0.151-0.731-0.371-0.988-0.658c-0.258-0.287-0.448-0.64-0.571-1.058c-0.124-0.417-0.186-0.89-0.186-1.417
		c0-0.458,0.066-0.892,0.198-1.301c0.132-0.408,0.324-0.767,0.578-1.076c0.253-0.31,0.563-0.555,0.931-0.736
		c0.367-0.182,0.785-0.272,1.251-0.272c0.454,0,0.856,0.071,1.207,0.214c0.352,0.143,0.646,0.346,0.886,0.606
		c0.239,0.262,0.422,0.58,0.545,0.954S67.701,14.738,67.701,15.201z M66.527,15.039c0.013-0.29-0.015-0.555-0.084-0.795
		c-0.069-0.24-0.176-0.446-0.321-0.619s-0.325-0.309-0.542-0.405c-0.216-0.098-0.467-0.146-0.752-0.146
		c-0.247,0-0.471,0.048-0.674,0.143c-0.204,0.096-0.378,0.229-0.525,0.402c-0.146,0.173-0.266,0.381-0.356,0.623
		c-0.091,0.242-0.147,0.508-0.168,0.798L66.527,15.039L66.527,15.039z"/>
	<path d="M75.549,17.828l-0.07,2.633h-1.031v-1.66H69.7v1.66h-1.02l-0.064-2.633h0.09c0.165,0,0.32-0.026,0.467-0.078
		s0.283-0.15,0.409-0.295c0.125-0.145,0.241-0.346,0.348-0.604c0.105-0.257,0.2-0.59,0.285-0.999
		c0.084-0.408,0.158-0.904,0.222-1.488c0.063-0.584,0.114-1.275,0.159-2.075h4.021v5.539H75.549z M73.486,13.262H71.67
		c-0.043,0.744-0.1,1.377-0.168,1.9s-0.149,0.962-0.243,1.316c-0.093,0.354-0.199,0.638-0.32,0.85s-0.255,0.379-0.402,0.5h2.951
		L73.486,13.262L73.486,13.262z"/>
	<path d="M82.307,15.201c0,0.16-0.002,0.294-0.008,0.402c-0.004,0.107-0.011,0.209-0.019,0.305h-4.573
		c0,0.666,0.187,1.177,0.559,1.534c0.372,0.356,0.907,0.535,1.607,0.535c0.19,0,0.381-0.008,0.571-0.023s0.374-0.035,0.551-0.062
		c0.177-0.025,0.347-0.055,0.509-0.088c0.162-0.032,0.313-0.067,0.451-0.106v0.928c-0.307,0.086-0.653,0.156-1.041,0.211
		c-0.387,0.054-0.788,0.081-1.203,0.081c-0.558,0-1.038-0.076-1.439-0.228c-0.402-0.151-0.732-0.371-0.989-0.658
		c-0.257-0.287-0.448-0.64-0.571-1.058c-0.124-0.417-0.185-0.89-0.185-1.417c0-0.458,0.065-0.892,0.198-1.301
		c0.132-0.408,0.323-0.767,0.578-1.076c0.253-0.31,0.563-0.555,0.931-0.736c0.367-0.182,0.785-0.272,1.251-0.272
		c0.454,0,0.855,0.071,1.207,0.214c0.351,0.143,0.646,0.346,0.885,0.606c0.24,0.262,0.422,0.58,0.545,0.954
		S82.307,14.738,82.307,15.201z M81.133,15.039c0.014-0.29-0.015-0.555-0.084-0.795c-0.068-0.24-0.176-0.446-0.32-0.619
		c-0.146-0.173-0.325-0.309-0.542-0.405c-0.216-0.098-0.467-0.146-0.752-0.146c-0.247,0-0.472,0.048-0.674,0.143
		c-0.204,0.096-0.379,0.229-0.525,0.402c-0.147,0.173-0.266,0.381-0.357,0.623c-0.091,0.242-0.146,0.508-0.168,0.798L81.133,15.039
		L81.133,15.039z"/>
	<path d="M89.286,18.801h-1.128v-5.539h-1.816c-0.052,0.891-0.129,1.654-0.229,2.29c-0.102,0.635-0.224,1.166-0.366,1.592
		s-0.305,0.761-0.485,1.006c-0.183,0.244-0.378,0.421-0.588,0.531c-0.209,0.11-0.431,0.164-0.665,0.162
		c-0.233-0.002-0.474-0.033-0.72-0.094l0.052-0.935c0.174,0.018,0.335,0.009,0.486-0.025c0.151-0.034,0.292-0.118,0.421-0.25
		c0.13-0.132,0.248-0.322,0.354-0.57c0.105-0.249,0.202-0.581,0.289-0.996s0.16-0.924,0.224-1.527
		c0.063-0.604,0.113-1.322,0.152-2.156h4.021L89.286,18.801L89.286,18.801z"/>
	<path d="M92.581,14.747c0.108-0.004,0.216-0.008,0.325-0.01c0.108-0.002,0.218-0.004,0.331-0.007
		c0.112-0.002,0.23-0.004,0.357-0.006c0.125-0.002,0.261-0.004,0.407-0.004c1.003,0,1.748,0.172,2.235,0.516
		c0.486,0.344,0.729,0.847,0.729,1.509c0,0.709-0.257,1.241-0.771,1.599c-0.515,0.356-1.293,0.535-2.335,0.535
		c-0.471,0-0.898-0.01-1.281-0.029c-0.383-0.02-0.758-0.053-1.125-0.101v-6.46h1.128V14.747z M95.799,16.771
		c0-0.182-0.033-0.341-0.101-0.477c-0.067-0.136-0.174-0.251-0.321-0.344c-0.146-0.093-0.337-0.163-0.57-0.211
		c-0.234-0.048-0.516-0.071-0.844-0.071c-0.208,0-0.435,0.002-0.681,0.007c-0.247,0.004-0.479,0.011-0.701,0.02v2.173
		c0.222,0.021,0.435,0.037,0.64,0.048c0.204,0.012,0.431,0.017,0.678,0.017c0.363,0,0.666-0.022,0.908-0.068
		c0.241-0.045,0.437-0.114,0.583-0.207c0.146-0.093,0.252-0.213,0.313-0.36C95.767,17.149,95.799,16.974,95.799,16.771z"/>
	<path d="M103.951,18.801h-1.128v-2.88h-2.977v2.88h-1.13v-6.512h1.13v2.646h2.977v-2.646h1.128V18.801z"/>
	<path d="M107.24,12.289v4.585l2.841-4.585h1.077v6.512h-1.129v-4.586l-2.841,4.586h-1.077v-6.512H107.24z"/>
	<path d="M119.18,18.801h-1.551l-3.035-3.489v3.489h-1.129v-6.512h1.129v2.977l2.925-2.977h1.492l-3.056,3.003L119.18,18.801z"/>
</g>
<rect x="34.563" y="90.899" fill="none" stroke="#808184" stroke-width="2" stroke-miterlimit="10" width="333.438" height="30.474"/>
<line fill="none" stroke="#808184" stroke-width="2" stroke-miterlimit="10" x1="368.213" y1="26.826" x2="368.213" y2="197.166"/>
<line fill="none" stroke="#808184" stroke-width="2" stroke-miterlimit="10" x1="318.986" y1="26.826" x2="318.986" y2="197.166"/>
<line fill="none" stroke="#808184" stroke-width="2" stroke-miterlimit="10" x1="269.759" y1="26.826" x2="269.759" y2="197.166"/>
<line fill="none" stroke="#808184" stroke-width="2" stroke-miterlimit="10" x1="222.877" y1="26.826" x2="222.877" y2="197.166"/>
<line fill="none" stroke="#808184" stroke-width="2" stroke-miterlimit="10" x1="174.432" y1="26.826" x2="174.432" y2="197.166"/>
<line fill="none" stroke="#808184" stroke-width="2" stroke-miterlimit="10" x1="128.33" y1="26.826" x2="128.33" y2="197.166"/>
<line fill="none" stroke="#808184" stroke-width="2" stroke-miterlimit="10" x1="79.885" y1="26.826" x2="79.885" y2="197.166"/>
<rect x="34.565" y="90.899" fill="#FFFFFF" stroke="#58595B" stroke-width="3" stroke-miterlimit="10" width="332.867" height="29.692"/>
<rect x="127.549" y="45.579" fill="#FFFFFF" stroke="#58595B" stroke-width="3" stroke-miterlimit="10" width="46.104" height="18.753"/>
<rect x="223.658" y="45.579" fill="#FFFFFF" stroke="#58595B" stroke-width="3" stroke-miterlimit="10" width="46.101" height="18.753"/>
<rect x="268.979" y="45.579" fill="#FFFFFF" stroke="#58595B" stroke-width="3" stroke-miterlimit="10" width="50.008" height="18.753"/>
<rect x="34.565" y="72.146" fill="none" stroke="#58595B" stroke-width="3" stroke-miterlimit="10" width="45.318" height="10.939"/>
<rect x="80.667" y="72.146" fill="none" stroke="#58595B" stroke-width="3" stroke-miterlimit="10" width="48.445" height="10.939"/>
<rect x="222.096" y="72.146" fill="none" stroke="#58595B" stroke-width="3" stroke-miterlimit="10" width="48.443" height="10.939"/>
<rect x="79.885" y="128.286" fill="none" stroke="#58595B" stroke-width="3" stroke-miterlimit="10" width="48.443" height="9.614"/>
<rect x="222.096" y="128.286" fill="none" stroke="#58595B" stroke-width="3" stroke-miterlimit="10" width="48.443" height="9.614"/>
<rect x="6.045" y="31.514" fill="#929497" width="19.535" height="6.251"/>
<rect x="6.045" y="51.048" fill="#929497" width="19.535" height="6.251"/>
<rect x="43.551" y="51.83" fill="#929497" width="29.304" height="6.251"/>
<rect x="89.652" y="51.83" fill="#929497" width="29.302" height="6.251"/>
<rect x="89.652" y="75.662" fill="#929497" width="29.302" height="3.907"/>
<rect x="43.551" y="75.662" fill="#929497" width="29.304" height="3.907"/>
<rect x="231.082" y="75.662" fill="#929497" width="29.301" height="3.907"/>
<rect x="231.082" y="131.141" fill="#929497" width="29.301" height="3.906"/>
<rect x="90.434" y="131.141" fill="#929497" width="29.301" height="3.906"/>
<rect x="135.753" y="51.83" fill="#929497" width="29.304" height="6.251"/>
<rect x="230.3" y="51.83" fill="#929497" width="29.304" height="6.251"/>
<rect x="284.605" y="51.83" fill="#929497" width="20.707" height="6.251"/>
<rect x="6.045" y="65.113" fill="#929497" width="19.535" height="6.251"/>
<rect x="6.045" y="73.708" fill="#929497" width="19.535" height="6.251"/>
<rect x="6.045" y="83.085" fill="#929497" width="19.535" height="6.251"/>
<rect x="6.045" y="100.275" fill="#929497" width="19.535" height="6.25"/>
<rect x="118.563" y="100.275" fill="#929497" width="137.914" height="6.25"/>
<rect x="6.045" y="119.811" fill="#929497" width="19.535" height="6.25"/>
<rect x="6.045" y="129.186" fill="#929497" width="19.535" height="6.252"/>
<rect x="6.045" y="143.251" fill="#929497" width="19.535" height="6.251"/>
<rect x="6.045" y="157.316" fill="#929497" width="19.535" height="5.218"/>
<rect x="6.045" y="164.164" fill="#929497" width="19.535" height="5.218"/>
<rect x="6.045" y="171.012" fill="#929497" width="19.535" height="5.219"/>
<rect x="6.045" y="177.859" fill="#929497" width="19.535" height="5.219"/>
<rect x="6.045" y="184.709" fill="#929497" width="19.535" height="5.219"/>
<rect x="6.045" y="191.559" fill="#929497" width="19.535" height="5.217"/>
</svg>
