<?xml version="1.0" encoding="utf-8"?>
<!-- Generator: Adobe Illustrator 15.1.0, SVG Export Plug-In . SVG Version: 6.00 Build 0)  -->
<!DOCTYPE svg PUBLIC "-//W3C//DTD SVG 1.1//EN" "http://www.w3.org/Graphics/SVG/1.1/DTD/svg11.dtd">
<svg version="1.1" id="Layer_1" xmlns="http://www.w3.org/2000/svg" xmlns:xlink="http://www.w3.org/1999/xlink" x="0px" y="0px"
	 width="362px" height="193px" viewBox="0 0 362 193" enable-background="new 0 0 362 193" xml:space="preserve">
<text transform="matrix(1.0391 0 0 1 -199.2051 -538.3184)" display="none" fill="#231F20" enable-background="new    " font-family="'Consolas'" font-size="17">R – Responsible – сотрудник, ответственный за фактическое исполнение KPI.</text>
<g>
	
		<line fill="none" stroke="#BBBDBF" stroke-width="2" stroke-miterlimit="10" x1="180.236" y1="121.533" x2="322.154" y2="121.533"/>
	
		<line fill="none" stroke="#BBBDBF" stroke-width="2" stroke-miterlimit="10" x1="235.502" y1="173.389" x2="318.061" y2="173.389"/>
	<line fill="none" stroke="#BBBDBF" stroke-width="2" stroke-miterlimit="10" x1="234.82" y1="121.533" x2="234.82" y2="174.07"/>
	
		<line fill="none" stroke="#BBBDBF" stroke-width="2" stroke-miterlimit="10" x1="103.136" y1="127.674" x2="137.251" y2="127.674"/>
	<line fill="none" stroke="#BBBDBF" stroke-width="2" stroke-miterlimit="10" x1="34.906" y1="26.011" x2="176.825" y2="26.011"/>
	<line fill="none" stroke="#BBBDBF" stroke-width="2" stroke-miterlimit="10" x1="180.236" y1="18.505" x2="322.154" y2="18.505"/>
	<line fill="none" stroke="#BBBDBF" stroke-width="2" stroke-miterlimit="10" x1="235.502" y1="70.359" x2="318.061" y2="70.359"/>
	<rect x="7.272" y="5.884" fill="#EC1C24" width="68.229" height="38.208"/>
	<rect x="9.266" y="14.394" fill="none" width="63.646" height="40.728"/>
	<g enable-background="new    ">
		<path fill="#FFFFFF" d="M19.386,21.248c0.282,0.117,0.596,0.211,0.938,0.283c0.342,0.071,0.747,0.107,1.215,0.107
			c0.578,0,1.011-0.125,1.3-0.374s0.434-0.603,0.434-1.059c0-0.189-0.041-0.358-0.122-0.507c-0.081-0.149-0.198-0.276-0.352-0.38
			c-0.152-0.104-0.339-0.184-0.558-0.238c-0.219-0.055-0.464-0.082-0.736-0.082h-1.552v-0.832h1.529
			c0.229,0,0.439-0.025,0.628-0.077c0.188-0.051,0.352-0.127,0.487-0.229c0.136-0.103,0.241-0.23,0.316-0.386
			c0.075-0.154,0.113-0.338,0.113-0.549c0-0.151-0.024-0.299-0.071-0.442c-0.047-0.144-0.129-0.27-0.247-0.379
			s-0.271-0.197-0.464-0.264c-0.192-0.066-0.436-0.099-0.729-0.099c-0.313,0-0.634,0.024-0.958,0.073
			c-0.325,0.049-0.651,0.127-0.979,0.232v-0.878c0.279-0.083,0.581-0.148,0.903-0.195c0.323-0.048,0.699-0.071,1.13-0.071
			c0.831,0,1.45,0.166,1.856,0.499c0.408,0.332,0.612,0.796,0.612,1.393c0,0.4-0.096,0.746-0.289,1.037
			c-0.191,0.29-0.502,0.506-0.929,0.646c0.2,0.037,0.39,0.101,0.569,0.189c0.179,0.089,0.337,0.205,0.473,0.349
			c0.136,0.144,0.244,0.313,0.323,0.507s0.119,0.414,0.119,0.659c0,0.355-0.069,0.675-0.207,0.957
			c-0.139,0.283-0.334,0.525-0.59,0.726c-0.255,0.201-0.563,0.354-0.923,0.462c-0.36,0.107-0.762,0.161-1.204,0.161
			c-0.763,0-1.441-0.104-2.039-0.312v-0.927H19.386z"/>
		<path fill="#FFFFFF" d="M29.705,22.397l-0.021-0.765c-0.311,0.306-0.624,0.526-0.943,0.663c-0.319,0.136-0.654,0.203-1.005,0.203
			c-0.325,0-0.604-0.041-0.833-0.124c-0.23-0.083-0.42-0.197-0.569-0.343c-0.148-0.146-0.259-0.316-0.329-0.513
			C25.934,21.321,25.9,21.11,25.9,20.88c0-0.57,0.212-1.017,0.637-1.34c0.425-0.322,1.052-0.484,1.883-0.484h1.179v-0.498
			c0-0.336-0.107-0.605-0.323-0.808c-0.215-0.201-0.544-0.303-0.985-0.303c-0.32,0-0.637,0.036-0.949,0.107
			c-0.312,0.072-0.634,0.174-0.966,0.307v-0.89c0.125-0.045,0.264-0.09,0.417-0.133c0.153-0.044,0.314-0.082,0.484-0.116
			c0.17-0.034,0.348-0.062,0.533-0.082c0.185-0.021,0.372-0.031,0.561-0.031c0.343,0,0.653,0.038,0.929,0.113
			c0.276,0.075,0.51,0.19,0.7,0.346c0.19,0.154,0.337,0.349,0.439,0.583c0.102,0.234,0.152,0.51,0.152,0.827v3.919H29.705z
			 M29.598,19.81h-1.252c-0.245,0-0.457,0.024-0.635,0.073c-0.177,0.049-0.322,0.119-0.436,0.21
			c-0.113,0.09-0.197,0.199-0.252,0.325c-0.055,0.127-0.082,0.27-0.082,0.428c0,0.109,0.017,0.214,0.051,0.314
			c0.034,0.1,0.089,0.188,0.165,0.266c0.075,0.078,0.173,0.139,0.294,0.185c0.121,0.045,0.269,0.067,0.442,0.067
			c0.227,0,0.485-0.068,0.777-0.206c0.293-0.138,0.603-0.356,0.927-0.654L29.598,19.81L29.598,19.81z"/>
		<path fill="#FFFFFF" d="M37.368,17.561H35.21v4.837h-0.997v-4.837h-2.157v-0.85h5.313L37.368,17.561L37.368,17.561z"/>
		<path fill="#FFFFFF" d="M43.666,19.452c0,0.506-0.07,0.948-0.212,1.325c-0.142,0.378-0.337,0.691-0.586,0.94
			c-0.249,0.249-0.543,0.437-0.883,0.561c-0.34,0.125-0.708,0.188-1.104,0.188c-0.181,0-0.36-0.01-0.541-0.028
			c-0.179-0.02-0.36-0.052-0.546-0.097v2.379H38.81v-8.009h0.878l0.062,0.952c0.283-0.39,0.585-0.662,0.906-0.818
			c0.321-0.157,0.668-0.235,1.042-0.235c0.325,0,0.61,0.067,0.855,0.204c0.244,0.136,0.45,0.327,0.616,0.574
			c0.166,0.248,0.291,0.546,0.374,0.896C43.625,18.632,43.666,19.021,43.666,19.452z M42.658,19.498
			c0-0.299-0.021-0.572-0.065-0.821c-0.044-0.249-0.111-0.463-0.206-0.641c-0.095-0.177-0.216-0.315-0.362-0.416
			c-0.147-0.1-0.323-0.15-0.527-0.15c-0.125,0-0.251,0.021-0.379,0.06c-0.128,0.04-0.261,0.106-0.398,0.198
			c-0.139,0.093-0.283,0.216-0.438,0.368c-0.153,0.153-0.316,0.343-0.49,0.569v2.758c0.182,0.076,0.372,0.136,0.572,0.179
			c0.2,0.044,0.396,0.065,0.589,0.065c0.532,0,0.95-0.181,1.251-0.541C42.507,20.766,42.658,20.223,42.658,19.498z"/>
		<path fill="#FFFFFF" d="M48.837,22.397l-0.021-0.765c-0.311,0.306-0.624,0.526-0.943,0.663c-0.318,0.136-0.654,0.203-1.005,0.203
			c-0.325,0-0.603-0.041-0.833-0.124c-0.229-0.083-0.42-0.197-0.569-0.343c-0.148-0.146-0.259-0.316-0.328-0.513
			c-0.07-0.197-0.104-0.409-0.104-0.64c0-0.57,0.212-1.017,0.637-1.34c0.426-0.322,1.053-0.484,1.884-0.484h1.178v-0.498
			c0-0.336-0.107-0.605-0.323-0.808c-0.215-0.201-0.544-0.303-0.985-0.303c-0.32,0-0.637,0.036-0.948,0.107
			c-0.313,0.072-0.635,0.174-0.967,0.307v-0.89c0.125-0.045,0.264-0.09,0.417-0.133c0.153-0.044,0.314-0.082,0.484-0.116
			c0.17-0.034,0.348-0.062,0.533-0.082c0.185-0.021,0.372-0.031,0.561-0.031c0.344,0,0.653,0.038,0.93,0.113
			c0.275,0.075,0.509,0.19,0.699,0.346c0.19,0.154,0.337,0.349,0.439,0.583c0.102,0.234,0.153,0.51,0.153,0.827v3.919h-0.887v0.002
			H48.837z M48.729,19.81h-1.252c-0.245,0-0.457,0.024-0.635,0.073c-0.177,0.049-0.322,0.119-0.436,0.21
			c-0.113,0.09-0.197,0.199-0.252,0.325c-0.055,0.127-0.082,0.27-0.082,0.428c0,0.109,0.017,0.214,0.051,0.314
			s0.089,0.188,0.165,0.266c0.075,0.078,0.173,0.139,0.294,0.185c0.121,0.045,0.269,0.067,0.442,0.067
			c0.227,0,0.486-0.068,0.778-0.206c0.293-0.138,0.602-0.356,0.926-0.654L48.729,19.81L48.729,19.81z"/>
		<path fill="#FFFFFF" d="M56.5,17.561h-2.158v4.837h-0.996v-4.837h-2.158v-0.85H56.5V17.561z"/>
		<path fill="#FFFFFF" d="M58.47,18.908c0.136-0.003,0.264-0.006,0.382-0.008c0.119-0.002,0.243-0.003,0.371-0.003
			c0.354,0,0.666,0.042,0.932,0.127c0.266,0.085,0.488,0.204,0.666,0.357c0.177,0.152,0.31,0.336,0.396,0.549
			c0.088,0.214,0.131,0.445,0.131,0.694c0,0.302-0.052,0.567-0.153,0.796c-0.103,0.229-0.247,0.42-0.437,0.574
			c-0.188,0.155-0.42,0.272-0.693,0.352c-0.273,0.079-0.6,0.119-0.978,0.119c-0.24,0-0.497-0.007-0.767-0.021
			c-0.271-0.013-0.545-0.04-0.824-0.082V16.71h0.975L58.47,18.908L58.47,18.908z M60.328,20.653c0-0.299-0.094-0.53-0.28-0.694
			s-0.483-0.246-0.892-0.246c-0.11,0-0.221,0.002-0.334,0.006c-0.113,0.004-0.23,0.01-0.351,0.017v1.869
			c0.12,0.019,0.235,0.031,0.346,0.037c0.108,0.006,0.219,0.008,0.328,0.008c0.229,0,0.421-0.027,0.571-0.082
			c0.151-0.055,0.271-0.127,0.36-0.218c0.088-0.091,0.153-0.196,0.192-0.317C60.308,20.912,60.328,20.785,60.328,20.653z
			 M61.97,22.397V16.71h0.974v5.687H61.97z"/>
	</g>
	<g enable-background="new    ">
		<path fill="#FFFFFF" d="M29.456,38.695c-1.741-1.612-2.61-3.395-2.61-5.347c0-0.457,0.046-0.913,0.139-1.368
			c0.092-0.454,0.242-0.91,0.447-1.367c0.206-0.457,0.478-0.914,0.815-1.371c0.337-0.456,0.748-0.909,1.231-1.359l0.571,0.584
			c-1.465,1.446-2.197,3.049-2.197,4.809c0,0.876,0.185,1.718,0.555,2.525c0.37,0.809,0.917,1.571,1.643,2.288L29.456,38.695z"/>
		<path fill="#FFFFFF" d="M34.876,27.85h0.821l-0.147,1.104c0.196,0.019,0.395,0.043,0.593,0.073
			c0.197,0.03,0.382,0.066,0.552,0.107v0.872c-0.208-0.053-0.417-0.098-0.629-0.136c-0.211-0.037-0.419-0.065-0.623-0.085
			l-0.323,2.424c0.253,0.099,0.504,0.205,0.753,0.32c0.249,0.115,0.474,0.251,0.671,0.408c0.198,0.156,0.358,0.342,0.481,0.558
			c0.123,0.215,0.184,0.472,0.184,0.771c0,0.316-0.063,0.598-0.191,0.844c-0.128,0.245-0.309,0.453-0.538,0.623
			c-0.23,0.17-0.508,0.303-0.833,0.399c-0.325,0.096-0.683,0.153-1.07,0.172l-0.187,1.349h-0.827l0.187-1.349
			c-0.306-0.022-0.597-0.056-0.875-0.099c-0.276-0.043-0.518-0.092-0.722-0.145v-0.94c0.238,0.083,0.497,0.151,0.778,0.204
			c0.28,0.053,0.594,0.089,0.938,0.107l0.334-2.549c-0.245-0.094-0.487-0.196-0.725-0.306c-0.238-0.11-0.45-0.24-0.638-0.394
			c-0.187-0.152-0.339-0.333-0.456-0.541c-0.116-0.207-0.176-0.454-0.176-0.741c0-0.234,0.049-0.466,0.147-0.694
			s0.251-0.434,0.459-0.617s0.47-0.334,0.787-0.453c0.316-0.119,0.694-0.189,1.133-0.212L34.876,27.85z M34.621,29.775
			c-0.472,0.041-0.816,0.151-1.034,0.331c-0.217,0.179-0.325,0.408-0.325,0.688c0,0.261,0.09,0.476,0.269,0.644
			c0.179,0.168,0.446,0.321,0.801,0.461L34.621,29.775z M34.689,35.433c0.51-0.037,0.881-0.15,1.113-0.34
			c0.231-0.188,0.348-0.445,0.348-0.771c0-0.137-0.024-0.258-0.073-0.366c-0.049-0.107-0.123-0.204-0.221-0.291
			c-0.099-0.087-0.22-0.168-0.365-0.244c-0.146-0.075-0.316-0.15-0.513-0.227L34.689,35.433z"/>
		<path fill="#FFFFFF" d="M43.377,28.313l-3.885,9.221h-0.939l3.885-9.221H43.377z"/>
		<path fill="#FFFFFF" d="M50.122,31.479h-2.158v4.837h-0.997v-4.837H44.81v-0.85h5.313L50.122,31.479L50.122,31.479z"/>
		<path fill="#FFFFFF" d="M52.722,27.883c1.739,1.612,2.61,3.406,2.61,5.381c0,0.408-0.042,0.831-0.125,1.269
			s-0.225,0.887-0.425,1.346c-0.2,0.458-0.469,0.924-0.807,1.396c-0.338,0.472-0.765,0.946-1.277,1.422l-0.572-0.584
			c0.736-0.729,1.286-1.489,1.648-2.282c0.362-0.793,0.544-1.623,0.544-2.492c0-1.797-0.731-3.413-2.192-4.848L52.722,27.883z"/>
	</g>
	<rect x="131.451" y="5.884" fill="#FFE600" width="79.146" height="38.208"/>
	<rect x="134.127" y="14.394" fill="none" width="73.88" height="40.728"/>
	<g enable-background="new    ">
		<path d="M141.708,22.397H140.7V15.89h-3.036v6.508h-1.008v-7.402h5.052V22.397L141.708,22.397z"/>
		<path d="M148.227,19.509c0,0.442-0.063,0.847-0.188,1.215c-0.125,0.368-0.304,0.684-0.538,0.946
			c-0.233,0.263-0.52,0.466-0.854,0.611c-0.335,0.146-0.717,0.218-1.145,0.218c-0.407,0-0.772-0.063-1.096-0.189
			c-0.324-0.126-0.597-0.313-0.821-0.558s-0.396-0.55-0.516-0.912c-0.119-0.362-0.178-0.779-0.178-1.252
			c0-0.441,0.063-0.845,0.187-1.209c0.124-0.364,0.304-0.678,0.538-0.94c0.234-0.262,0.52-0.466,0.855-0.611
			s0.717-0.218,1.144-0.218c0.408,0,0.773,0.063,1.096,0.189c0.323,0.127,0.597,0.312,0.821,0.556
			c0.225,0.243,0.396,0.546,0.515,0.908C148.168,18.625,148.227,19.041,148.227,19.509z M147.219,19.555
			c0-0.352-0.039-0.658-0.116-0.921c-0.078-0.262-0.188-0.481-0.331-0.657c-0.145-0.175-0.318-0.308-0.524-0.396
			s-0.436-0.133-0.688-0.133c-0.294,0-0.546,0.058-0.756,0.173c-0.21,0.115-0.382,0.27-0.517,0.462
			c-0.134,0.192-0.231,0.416-0.294,0.671c-0.062,0.255-0.093,0.522-0.093,0.802c0,0.351,0.039,0.658,0.116,0.923
			c0.076,0.265,0.188,0.484,0.331,0.66c0.144,0.175,0.316,0.308,0.521,0.396c0.204,0.088,0.435,0.133,0.691,0.133
			c0.294,0,0.547-0.058,0.756-0.173c0.209-0.115,0.381-0.27,0.515-0.462c0.134-0.192,0.232-0.416,0.294-0.671
			C147.188,20.106,147.219,19.838,147.219,19.555z"/>
		<path d="M154.593,17.561h-2.157v4.837h-0.997v-4.837h-2.158v-0.85h5.313v0.85H154.593z"/>
		<path d="M160.891,19.452c0,0.506-0.071,0.948-0.212,1.325c-0.143,0.378-0.338,0.691-0.587,0.94
			c-0.248,0.249-0.543,0.437-0.883,0.561c-0.34,0.125-0.708,0.188-1.104,0.188c-0.182,0-0.361-0.01-0.541-0.028
			c-0.179-0.02-0.361-0.052-0.546-0.097v2.379h-0.985v-8.009h0.878l0.063,0.952c0.282-0.39,0.585-0.662,0.905-0.818
			c0.321-0.157,0.668-0.235,1.042-0.235c0.325,0,0.61,0.067,0.855,0.204c0.245,0.136,0.451,0.327,0.617,0.574
			c0.166,0.248,0.291,0.546,0.374,0.896C160.849,18.632,160.891,19.021,160.891,19.452z M159.883,19.498
			c0-0.299-0.021-0.572-0.064-0.821s-0.112-0.463-0.207-0.641c-0.094-0.177-0.215-0.315-0.362-0.416
			c-0.146-0.1-0.323-0.15-0.526-0.15c-0.125,0-0.251,0.021-0.38,0.06c-0.128,0.04-0.261,0.106-0.398,0.198
			c-0.138,0.093-0.283,0.216-0.438,0.368c-0.152,0.153-0.315,0.343-0.489,0.569v2.758c0.181,0.076,0.372,0.136,0.571,0.179
			c0.2,0.044,0.396,0.065,0.59,0.065c0.531,0,0.949-0.181,1.251-0.541C159.732,20.766,159.883,20.223,159.883,19.498z"/>
		<path d="M167.211,19.254c0,0.14-0.002,0.257-0.006,0.352c-0.003,0.095-0.009,0.183-0.017,0.266h-3.993
			c0,0.582,0.163,1.028,0.487,1.34c0.323,0.312,0.793,0.467,1.403,0.467c0.166,0,0.333-0.006,0.499-0.02
			c0.166-0.013,0.327-0.031,0.481-0.054c0.154-0.023,0.303-0.048,0.444-0.076c0.141-0.028,0.272-0.06,0.394-0.094v0.81
			c-0.269,0.076-0.571,0.138-0.909,0.185c-0.338,0.047-0.688,0.07-1.051,0.07c-0.487,0-0.906-0.065-1.257-0.198
			c-0.352-0.132-0.64-0.323-0.864-0.574c-0.224-0.251-0.391-0.559-0.498-0.924c-0.108-0.364-0.162-0.776-0.162-1.237
			c0-0.4,0.059-0.778,0.173-1.136c0.115-0.356,0.283-0.67,0.504-0.939c0.222-0.271,0.492-0.484,0.813-0.644
			c0.321-0.158,0.685-0.237,1.093-0.237c0.396,0,0.748,0.063,1.054,0.187c0.307,0.125,0.563,0.302,0.773,0.53
			c0.209,0.228,0.368,0.506,0.476,0.832C167.157,18.485,167.211,18.851,167.211,19.254z M166.186,19.112
			c0.012-0.253-0.014-0.484-0.073-0.693c-0.061-0.21-0.154-0.39-0.28-0.541c-0.127-0.151-0.284-0.27-0.473-0.354
			s-0.408-0.127-0.657-0.127c-0.215,0-0.411,0.042-0.589,0.125c-0.177,0.083-0.331,0.2-0.458,0.351
			c-0.128,0.151-0.232,0.332-0.312,0.544c-0.08,0.211-0.129,0.443-0.147,0.696L166.186,19.112L166.186,19.112z"/>
		<path d="M169.528,17.997c0.265-0.37,0.559-0.646,0.884-0.83c0.325-0.183,0.691-0.274,1.1-0.274c0.324,0,0.624,0.06,0.896,0.179
			c0.274,0.118,0.51,0.295,0.708,0.529c0.198,0.234,0.354,0.521,0.464,0.863c0.111,0.342,0.167,0.733,0.167,1.176
			c0,0.415-0.064,0.798-0.195,1.149c-0.131,0.351-0.313,0.653-0.55,0.906c-0.235,0.253-0.517,0.45-0.844,0.592
			c-0.327,0.142-0.686,0.212-1.079,0.212c-0.411,0-0.772-0.07-1.084-0.212c-0.311-0.142-0.571-0.358-0.779-0.651
			s-0.363-0.663-0.47-1.11c-0.105-0.447-0.159-0.979-0.159-1.594c0-0.756,0.064-1.397,0.192-1.926
			c0.128-0.529,0.315-0.968,0.561-1.317c0.246-0.349,0.549-0.621,0.909-0.815c0.361-0.194,0.773-0.335,1.238-0.422
			c0.136-0.026,0.278-0.048,0.427-0.064c0.149-0.018,0.297-0.034,0.445-0.052c0.146-0.017,0.289-0.032,0.425-0.048
			c0.136-0.015,0.257-0.034,0.362-0.057v0.906c-0.076,0.019-0.161,0.034-0.258,0.045c-0.097,0.012-0.198,0.023-0.307,0.034
			c-0.106,0.012-0.219,0.022-0.334,0.034c-0.114,0.012-0.226,0.024-0.332,0.04c-0.441,0.057-0.804,0.148-1.087,0.277
			c-0.283,0.128-0.512,0.303-0.685,0.523c-0.174,0.221-0.307,0.489-0.396,0.805S169.584,17.578,169.528,17.997z M172.739,19.673
			c0-0.328-0.037-0.614-0.11-0.857c-0.073-0.244-0.172-0.446-0.294-0.609c-0.123-0.162-0.264-0.283-0.422-0.362
			c-0.159-0.079-0.325-0.119-0.499-0.119c-0.178,0-0.341,0.025-0.49,0.077c-0.148,0.051-0.296,0.126-0.438,0.227
			c-0.145,0.1-0.287,0.228-0.431,0.382c-0.145,0.155-0.297,0.344-0.458,0.566v0.107c0,0.514,0.04,0.936,0.118,1.266
			c0.079,0.331,0.188,0.593,0.323,0.785c0.136,0.192,0.297,0.327,0.484,0.404c0.187,0.078,0.392,0.116,0.614,0.116
			c0.265,0,0.496-0.056,0.696-0.167c0.2-0.111,0.367-0.259,0.501-0.441c0.135-0.184,0.235-0.394,0.304-0.632
			C172.705,20.178,172.739,19.93,172.739,19.673z"/>
		<path d="M179.682,22.397h-0.985V17.56h-1.586c-0.045,0.778-0.112,1.444-0.201,1.999c-0.089,0.556-0.195,1.019-0.32,1.391
			c-0.125,0.372-0.266,0.665-0.425,0.878c-0.159,0.214-0.33,0.368-0.513,0.465c-0.183,0.096-0.376,0.144-0.581,0.142
			c-0.204-0.002-0.413-0.029-0.628-0.082l0.045-0.816c0.151,0.016,0.292,0.008,0.424-0.022c0.132-0.03,0.255-0.103,0.368-0.218
			c0.113-0.115,0.216-0.281,0.309-0.498c0.093-0.218,0.177-0.507,0.252-0.87c0.075-0.362,0.142-0.807,0.195-1.333
			c0.055-0.527,0.1-1.155,0.133-1.884h3.513V22.397L179.682,22.397z"/>
		<path d="M186.344,19.254c0,0.14-0.003,0.257-0.007,0.352c-0.003,0.095-0.009,0.183-0.017,0.266h-3.993
			c0,0.582,0.163,1.028,0.487,1.34s0.793,0.467,1.404,0.467c0.165,0,0.332-0.006,0.497-0.02c0.166-0.013,0.327-0.031,0.481-0.054
			s0.303-0.048,0.443-0.076c0.142-0.028,0.272-0.06,0.395-0.094v0.81c-0.27,0.076-0.571,0.138-0.909,0.185
			c-0.338,0.047-0.688,0.07-1.051,0.07c-0.487,0-0.906-0.065-1.257-0.198c-0.352-0.132-0.639-0.323-0.864-0.574
			s-0.392-0.559-0.498-0.924c-0.107-0.364-0.162-0.776-0.162-1.237c0-0.4,0.059-0.778,0.174-1.136
			c0.114-0.356,0.282-0.67,0.504-0.939c0.221-0.271,0.49-0.484,0.813-0.644c0.32-0.158,0.686-0.237,1.093-0.237
			c0.396,0,0.748,0.063,1.056,0.187c0.305,0.125,0.563,0.302,0.771,0.53s0.367,0.506,0.477,0.832
			C186.289,18.485,186.344,18.851,186.344,19.254z M185.318,19.112c0.012-0.253-0.014-0.484-0.073-0.693
			c-0.062-0.21-0.154-0.39-0.28-0.541c-0.127-0.151-0.283-0.27-0.473-0.354c-0.188-0.084-0.408-0.127-0.657-0.127
			c-0.215,0-0.411,0.042-0.589,0.125s-0.331,0.2-0.458,0.351c-0.128,0.151-0.231,0.332-0.312,0.544
			c-0.08,0.211-0.129,0.443-0.147,0.696L185.318,19.112L185.318,19.112z"/>
		<path d="M192.488,22.397h-0.985v-2.515h-2.601v2.515h-0.984V16.71h0.984v2.311h2.601V16.71h0.985V22.397z"/>
		<path d="M195.359,16.711v4.005l2.479-4.005h0.94v5.687h-0.985v-4.004l-2.479,4.004h-0.939v-5.687H195.359z"/>
		<path d="M205.475,19.254c0,0.14-0.002,0.257-0.006,0.352c-0.004,0.095-0.01,0.183-0.018,0.266h-3.993
			c0,0.582,0.163,1.028,0.487,1.34s0.793,0.467,1.404,0.467c0.166,0,0.332-0.006,0.498-0.02c0.166-0.013,0.327-0.031,0.48-0.054
			c0.154-0.023,0.303-0.048,0.443-0.076c0.142-0.028,0.272-0.06,0.395-0.094v0.81c-0.27,0.076-0.57,0.138-0.908,0.185
			c-0.339,0.047-0.688,0.07-1.052,0.07c-0.485,0-0.905-0.065-1.257-0.198c-0.352-0.132-0.639-0.323-0.864-0.574
			s-0.392-0.559-0.498-0.924c-0.106-0.364-0.161-0.776-0.161-1.237c0-0.4,0.059-0.778,0.174-1.136
			c0.113-0.356,0.281-0.67,0.504-0.939c0.221-0.271,0.492-0.484,0.813-0.644c0.32-0.158,0.686-0.237,1.094-0.237
			c0.396,0,0.747,0.063,1.055,0.187c0.306,0.125,0.563,0.302,0.771,0.53s0.368,0.506,0.477,0.832
			C205.421,18.485,205.475,18.851,205.475,19.254z M204.449,19.112c0.012-0.253-0.014-0.484-0.073-0.693
			c-0.062-0.21-0.153-0.39-0.278-0.541c-0.127-0.151-0.285-0.27-0.475-0.354c-0.188-0.084-0.408-0.127-0.657-0.127
			c-0.215,0-0.409,0.042-0.589,0.125c-0.177,0.083-0.331,0.2-0.458,0.351c-0.128,0.151-0.231,0.332-0.312,0.544
			c-0.08,0.211-0.129,0.443-0.147,0.696L204.449,19.112L204.449,19.112z"/>
	</g>
	<g enable-background="new    ">
		<path d="M143.491,38.695c-1.741-1.612-2.611-3.395-2.611-5.347c0-0.457,0.046-0.913,0.14-1.368
			c0.092-0.454,0.242-0.91,0.446-1.367c0.206-0.457,0.479-0.914,0.816-1.371c0.337-0.456,0.748-0.909,1.231-1.359l0.571,0.584
			c-1.465,1.446-2.197,3.049-2.197,4.809c0,0.876,0.185,1.718,0.555,2.525c0.37,0.809,0.917,1.571,1.643,2.288L143.491,38.695z"/>
		<path d="M151.268,33.173c0,0.14-0.002,0.257-0.006,0.352c-0.004,0.095-0.01,0.183-0.018,0.266h-3.993
			c0,0.582,0.163,1.028,0.487,1.34c0.324,0.312,0.793,0.467,1.404,0.467c0.166,0,0.333-0.006,0.499-0.02
			c0.166-0.013,0.327-0.031,0.48-0.054c0.154-0.023,0.303-0.048,0.444-0.076c0.141-0.028,0.272-0.06,0.394-0.094v0.81
			c-0.269,0.076-0.57,0.138-0.908,0.185c-0.339,0.047-0.688,0.07-1.052,0.07c-0.486,0-0.905-0.065-1.257-0.198
			c-0.351-0.132-0.639-0.323-0.864-0.574s-0.391-0.559-0.498-0.924c-0.107-0.364-0.161-0.776-0.161-1.237
			c0-0.4,0.058-0.778,0.173-1.136c0.114-0.356,0.283-0.67,0.504-0.939c0.221-0.271,0.492-0.484,0.813-0.644
			c0.321-0.158,0.686-0.237,1.094-0.237c0.396,0,0.748,0.063,1.054,0.187c0.306,0.125,0.563,0.302,0.772,0.53
			s0.368,0.506,0.477,0.832C151.214,32.404,151.268,32.77,151.268,33.173z M150.242,33.031c0.012-0.253-0.013-0.484-0.073-0.693
			c-0.061-0.21-0.153-0.39-0.279-0.541c-0.127-0.151-0.284-0.27-0.474-0.354c-0.188-0.084-0.408-0.127-0.657-0.127
			c-0.215,0-0.41,0.042-0.589,0.125c-0.177,0.083-0.331,0.2-0.458,0.351c-0.128,0.151-0.231,0.332-0.312,0.544
			c-0.08,0.211-0.128,0.443-0.147,0.696L150.242,33.031L150.242,33.031z"/>
		<path d="M158.12,35.467l-0.062,2.3h-0.901v-1.45h-4.146v1.45h-0.89l-0.057-2.3h0.079c0.144,0,0.278-0.022,0.407-0.068
			c0.129-0.045,0.248-0.131,0.357-0.257c0.109-0.127,0.21-0.303,0.303-0.527c0.093-0.225,0.176-0.516,0.249-0.872
			c0.074-0.356,0.139-0.79,0.192-1.3c0.054-0.51,0.101-1.113,0.139-1.813h3.512v4.837H158.12z M156.32,31.479h-1.586
			c-0.038,0.649-0.087,1.203-0.147,1.659c-0.06,0.457-0.131,0.841-0.212,1.15c-0.081,0.31-0.174,0.557-0.279,0.742
			c-0.105,0.185-0.224,0.33-0.352,0.436h2.577L156.32,31.479L156.32,31.479z"/>
		<path d="M160.284,30.63v4.005l2.481-4.005h0.939v5.687h-0.984v-4.004l-2.48,4.004h-0.94V30.63H160.284z"/>
		<path d="M170.167,36.316h-0.984v-2.515h-2.601v2.515h-0.984V30.63h0.984v2.311h2.601V30.63h0.984V36.316z"/>
		<path d="M173.038,30.63v4.005l2.481-4.005h0.939v5.687h-0.984v-4.004l-2.48,4.004h-0.939V30.63H173.038z"/>
		<path d="M183.555,35.467l-0.058,2.3h-0.896v-1.45h-4.298V30.63h0.984v4.837h2.594V30.63h0.984v4.837H183.555z"/>
		<path d="M189.299,28.313l-3.885,9.221h-0.939l3.885-9.221H189.299z"/>
		<path d="M196.044,31.479h-2.157v4.837h-0.996v-4.837h-2.158v-0.85h5.313L196.044,31.479L196.044,31.479z"/>
		<path d="M198.645,27.883c1.738,1.612,2.609,3.406,2.609,5.381c0,0.408-0.042,0.831-0.125,1.269s-0.225,0.887-0.425,1.346
			c-0.2,0.458-0.47,0.924-0.808,1.396c-0.338,0.472-0.765,0.946-1.276,1.422l-0.572-0.584c0.736-0.729,1.286-1.489,1.647-2.282
			c0.363-0.793,0.545-1.623,0.545-2.492c0-1.797-0.73-3.413-2.192-4.848L198.645,27.883z"/>
	</g>
	<rect x="262.453" y="5.884" fill="#C0E247" width="92.794" height="26.61"/>
	<rect x="265.129" y="14.394" fill="none" width="85.479" height="32.54"/>
	<g enable-background="new    ">
		<path d="M271.219,18.139c-0.033-0.386-0.104-0.727-0.207-1.022c-0.104-0.297-0.25-0.547-0.437-0.751
			c-0.187-0.203-0.419-0.357-0.694-0.461c-0.275-0.104-0.602-0.156-0.975-0.156c-0.313,0-0.616,0.037-0.908,0.11
			c-0.292,0.074-0.573,0.177-0.842,0.309v-0.905c0.299-0.121,0.603-0.213,0.91-0.275c0.307-0.062,0.627-0.093,0.959-0.093
			c0.547,0,1.024,0.082,1.434,0.246s0.747,0.405,1.018,0.722c0.271,0.317,0.473,0.707,0.605,1.17
			c0.134,0.463,0.201,0.99,0.201,1.583c0,0.646-0.071,1.216-0.213,1.71c-0.141,0.495-0.357,0.904-0.647,1.229
			c-0.291,0.324-0.642,0.563-1.051,0.717c-0.41,0.152-0.877,0.229-1.401,0.229c-0.345,0-0.664-0.029-0.961-0.088
			c-0.296-0.058-0.58-0.147-0.854-0.269V21.18c0.269,0.144,0.548,0.255,0.836,0.334c0.289,0.079,0.602,0.119,0.938,0.119
			c0.768,0,1.334-0.219,1.704-0.657s0.572-1.101,0.606-1.987h-3.528v-0.85H271.219z"/>
		<path d="M276.447,24.72h-0.93v-2.243c-0.834-0.045-1.457-0.296-1.871-0.753s-0.621-1.173-0.621-2.146
			c0-0.487,0.061-0.907,0.182-1.261c0.121-0.353,0.291-0.647,0.51-0.883c0.221-0.236,0.48-0.418,0.787-0.547
			c0.307-0.128,0.645-0.213,1.016-0.255v-2.237h0.928v2.226c0.416,0.03,0.779,0.105,1.091,0.225
			c0.313,0.118,0.571,0.292,0.782,0.521c0.209,0.229,0.367,0.52,0.473,0.872c0.105,0.354,0.159,0.777,0.159,1.271
			c0,0.51-0.063,0.944-0.195,1.303c-0.13,0.359-0.31,0.654-0.534,0.887c-0.227,0.233-0.492,0.408-0.797,0.529
			c-0.304,0.121-0.629,0.2-0.977,0.238L276.447,24.72L276.447,24.72z M275.518,17.431c-0.261,0.037-0.49,0.114-0.69,0.229
			c-0.2,0.115-0.36,0.267-0.479,0.456c-0.121,0.188-0.207,0.403-0.26,0.646c-0.051,0.241-0.074,0.498-0.074,0.77
			c0,0.337,0.026,0.629,0.084,0.878c0.057,0.25,0.146,0.462,0.27,0.638c0.123,0.176,0.277,0.314,0.467,0.416s0.417,0.17,0.686,0.204
			v-4.237H275.518z M276.447,21.667c0.261-0.038,0.488-0.113,0.686-0.227c0.197-0.114,0.355-0.263,0.477-0.447
			c0.121-0.186,0.211-0.398,0.27-0.641c0.061-0.241,0.088-0.504,0.088-0.787c0-0.366-0.031-0.678-0.099-0.935
			c-0.065-0.257-0.164-0.469-0.292-0.637s-0.287-0.296-0.477-0.383c-0.188-0.087-0.406-0.146-0.65-0.181L276.447,21.667
			L276.447,21.667z"/>
		<path d="M282.824,24.72h-0.93v-2.243c-0.834-0.045-1.457-0.296-1.871-0.753s-0.621-1.173-0.621-2.146
			c0-0.487,0.061-0.907,0.182-1.261c0.121-0.353,0.291-0.647,0.512-0.883c0.219-0.236,0.479-0.418,0.785-0.547
			c0.307-0.128,0.645-0.213,1.016-0.255v-2.237h0.929v2.226c0.416,0.03,0.778,0.105,1.09,0.225c0.313,0.118,0.571,0.292,0.782,0.521
			c0.21,0.229,0.367,0.52,0.473,0.872c0.105,0.354,0.159,0.777,0.159,1.271c0,0.51-0.063,0.944-0.195,1.303
			c-0.13,0.359-0.309,0.654-0.534,0.887c-0.227,0.233-0.492,0.408-0.795,0.529c-0.306,0.121-0.631,0.2-0.979,0.238L282.824,24.72
			L282.824,24.72z M281.895,17.431c-0.261,0.037-0.49,0.114-0.69,0.229c-0.2,0.115-0.358,0.267-0.479,0.456
			c-0.121,0.188-0.207,0.403-0.26,0.646c-0.051,0.241-0.074,0.498-0.074,0.77c0,0.337,0.026,0.629,0.084,0.878
			c0.057,0.25,0.146,0.462,0.27,0.638c0.123,0.176,0.277,0.314,0.467,0.416s0.417,0.17,0.686,0.204v-4.237H281.895z M282.824,21.667
			c0.261-0.038,0.488-0.113,0.688-0.227c0.195-0.114,0.354-0.263,0.475-0.447c0.121-0.186,0.211-0.398,0.27-0.641
			c0.061-0.241,0.09-0.504,0.09-0.787c0-0.366-0.033-0.678-0.101-0.935c-0.065-0.257-0.164-0.469-0.292-0.637
			s-0.287-0.296-0.477-0.383c-0.188-0.087-0.406-0.146-0.65-0.181L282.824,21.667L282.824,21.667z"/>
		<path d="M291.258,19.254c0,0.14-0.002,0.257-0.006,0.352c-0.003,0.095-0.009,0.183-0.018,0.266h-3.992
			c0,0.582,0.162,1.028,0.486,1.34s0.793,0.467,1.403,0.467c0.166,0,0.333-0.006,0.499-0.02c0.166-0.013,0.327-0.031,0.48-0.054
			c0.154-0.023,0.304-0.048,0.445-0.076c0.141-0.028,0.271-0.06,0.394-0.094v0.81c-0.269,0.076-0.571,0.138-0.909,0.185
			c-0.338,0.047-0.688,0.07-1.051,0.07c-0.487,0-0.906-0.065-1.258-0.198c-0.352-0.132-0.639-0.323-0.863-0.574
			s-0.391-0.559-0.498-0.924c-0.107-0.364-0.162-0.776-0.162-1.237c0-0.4,0.059-0.778,0.173-1.136
			c0.115-0.356,0.283-0.67,0.505-0.939c0.221-0.271,0.491-0.484,0.813-0.644c0.321-0.158,0.685-0.237,1.093-0.237
			c0.396,0,0.748,0.063,1.055,0.187c0.307,0.125,0.563,0.302,0.772,0.53s0.368,0.506,0.478,0.832
			C291.204,18.485,291.258,18.851,291.258,19.254z M290.232,19.112c0.012-0.253-0.014-0.484-0.073-0.693
			c-0.062-0.21-0.154-0.39-0.28-0.541c-0.127-0.151-0.283-0.27-0.473-0.354c-0.19-0.084-0.408-0.127-0.657-0.127
			c-0.215,0-0.411,0.042-0.589,0.125s-0.331,0.2-0.458,0.351c-0.128,0.151-0.231,0.332-0.312,0.544
			c-0.08,0.211-0.129,0.443-0.147,0.696L290.232,19.112L290.232,19.112z"/>
		<path d="M297.945,22.397h-1.354l-2.65-3.047v3.047h-0.984V16.71h0.984v2.6l2.555-2.6h1.303l-2.667,2.622L297.945,22.397z"/>
		<path d="M304.148,17.561h-2.158v4.837h-0.997v-4.837h-2.158v-0.85h5.313V17.561z"/>
		<path d="M306.65,16.711v4.005l2.48-4.005h0.939v5.687h-0.984v-4.004l-2.479,4.004h-0.94v-5.687H306.65z"/>
		<path d="M316.846,20.738c0,0.261-0.057,0.498-0.164,0.713c-0.109,0.216-0.279,0.399-0.512,0.553
			c-0.23,0.154-0.521,0.271-0.875,0.356s-0.771,0.128-1.26,0.128c-0.321,0-0.663-0.013-1.023-0.037
			c-0.363-0.024-0.714-0.058-1.05-0.099v-5.613c0.354-0.041,0.714-0.073,1.079-0.096s0.758-0.034,1.182-0.034
			c0.768,0,1.35,0.125,1.748,0.377c0.396,0.251,0.598,0.612,0.598,1.084c0,0.321-0.094,0.597-0.277,0.827s-0.465,0.4-0.838,0.51
			c0.181,0.03,0.355,0.08,0.523,0.15c0.168,0.069,0.315,0.16,0.443,0.271c0.128,0.111,0.23,0.242,0.311,0.394
			C316.807,20.374,316.846,20.546,316.846,20.738z M315.561,18.269c0-0.132-0.026-0.251-0.08-0.356
			c-0.053-0.105-0.137-0.196-0.252-0.272c-0.115-0.075-0.267-0.133-0.453-0.173c-0.188-0.039-0.412-0.059-0.676-0.059
			c-0.238,0-0.447,0.004-0.623,0.014c-0.18,0.01-0.354,0.025-0.527,0.048v1.643h1.144C315.07,19.112,315.561,18.831,315.561,18.269z
			 M315.803,20.761c0-0.295-0.134-0.517-0.398-0.666c-0.266-0.148-0.682-0.224-1.243-0.224h-1.212v1.739
			c0.185,0.03,0.367,0.051,0.549,0.063c0.182,0.011,0.391,0.017,0.623,0.017c0.336,0,0.613-0.022,0.83-0.068
			c0.217-0.045,0.389-0.109,0.516-0.192s0.215-0.181,0.264-0.294C315.779,21.021,315.803,20.896,315.803,20.761z"/>
		<path d="M322.911,22.397h-0.983v-2.515h-2.602v2.515h-0.985V16.71h0.985v2.311h2.602V16.71h0.983V22.397z"/>
		<path d="M329.668,19.509c0,0.442-0.063,0.847-0.188,1.215c-0.125,0.368-0.303,0.684-0.537,0.946
			c-0.234,0.263-0.521,0.466-0.855,0.611c-0.335,0.146-0.717,0.218-1.145,0.218c-0.407,0-0.772-0.063-1.096-0.189
			c-0.322-0.126-0.598-0.313-0.82-0.558c-0.226-0.245-0.396-0.55-0.518-0.912c-0.117-0.362-0.178-0.779-0.178-1.252
			c0-0.441,0.063-0.845,0.188-1.209c0.125-0.364,0.305-0.678,0.539-0.94c0.232-0.262,0.519-0.466,0.854-0.611
			s0.717-0.218,1.145-0.218c0.407,0,0.772,0.063,1.096,0.189c0.324,0.127,0.597,0.312,0.822,0.556
			c0.225,0.243,0.396,0.546,0.514,0.908C329.609,18.625,329.668,19.041,329.668,19.509z M328.66,19.555
			c0-0.352-0.039-0.658-0.116-0.921c-0.078-0.262-0.188-0.481-0.331-0.657c-0.145-0.175-0.316-0.308-0.523-0.396
			c-0.205-0.088-0.437-0.133-0.688-0.133c-0.294,0-0.546,0.058-0.756,0.173c-0.21,0.115-0.381,0.27-0.516,0.462
			s-0.232,0.416-0.295,0.671s-0.092,0.522-0.092,0.802c0,0.351,0.037,0.658,0.114,0.923s0.188,0.484,0.331,0.66
			c0.145,0.175,0.316,0.308,0.521,0.396c0.203,0.088,0.434,0.133,0.689,0.133c0.294,0,0.547-0.058,0.756-0.173
			c0.21-0.115,0.383-0.27,0.516-0.462c0.135-0.192,0.231-0.416,0.295-0.671C328.629,20.106,328.66,19.838,328.66,19.555z"/>
		<path d="M335.514,22.188c-0.259,0.099-0.521,0.171-0.791,0.219c-0.271,0.047-0.549,0.07-0.834,0.07
			c-0.898,0-1.592-0.243-2.076-0.73c-0.486-0.487-0.729-1.198-0.729-2.135c0-0.449,0.069-0.857,0.209-1.224
			c0.14-0.367,0.336-0.68,0.589-0.94c0.254-0.26,0.557-0.461,0.906-0.603c0.352-0.142,0.738-0.213,1.161-0.213
			c0.294,0,0.569,0.021,0.827,0.063c0.257,0.041,0.502,0.109,0.736,0.204v0.939c-0.246-0.128-0.496-0.222-0.75-0.28
			c-0.256-0.058-0.52-0.088-0.791-0.088c-0.252,0-0.492,0.049-0.717,0.145c-0.225,0.097-0.422,0.235-0.592,0.417
			c-0.17,0.181-0.305,0.401-0.4,0.662c-0.1,0.261-0.148,0.555-0.148,0.884c0,0.688,0.168,1.201,0.502,1.543
			c0.334,0.342,0.798,0.513,1.391,0.513c0.27,0,0.527-0.03,0.779-0.091c0.251-0.061,0.494-0.15,0.729-0.271V22.188L335.514,22.188z"
			/>
		<path d="M342.411,17.561h-2.158v4.837h-0.997v-4.837H337.1v-0.85h5.313L342.411,17.561L342.411,17.561z"/>
		<path d="M344.869,18.857c0.094-0.004,0.188-0.006,0.283-0.008c0.094-0.002,0.188-0.004,0.289-0.006
			c0.099-0.002,0.201-0.004,0.312-0.006s0.229-0.003,0.356-0.003c0.877,0,1.527,0.15,1.951,0.45
			c0.426,0.301,0.637,0.739,0.637,1.317c0,0.619-0.225,1.084-0.674,1.396s-1.129,0.468-2.039,0.468
			c-0.412,0-0.785-0.009-1.119-0.026s-0.661-0.046-0.982-0.087V16.71h0.986V18.857L344.869,18.857z M347.678,20.625
			c0-0.159-0.029-0.298-0.089-0.417c-0.06-0.118-0.151-0.219-0.278-0.3c-0.129-0.081-0.295-0.143-0.5-0.184
			c-0.203-0.042-0.449-0.063-0.735-0.063c-0.181,0-0.38,0.002-0.595,0.006s-0.42,0.009-0.611,0.017v1.897
			c0.191,0.019,0.378,0.033,0.559,0.042c0.18,0.01,0.377,0.015,0.592,0.015c0.316,0,0.582-0.02,0.793-0.06s0.381-0.1,0.511-0.182
			c0.128-0.081,0.22-0.186,0.274-0.313C347.65,20.955,347.678,20.803,347.678,20.625z"/>
	</g>
	<rect x="262.453" y="57.056" fill="#C0E247" width="92.794" height="26.61"/>
	<rect x="265.129" y="65.567" fill="none" width="85.479" height="32.541"/>
	<g enable-background="new    ">
		<path d="M297.68,71.355c0,0.355-0.068,0.67-0.207,0.943s-0.334,0.505-0.59,0.693c-0.255,0.189-0.563,0.333-0.923,0.431
			c-0.358,0.099-0.763,0.147-1.203,0.147h-1.937v-7.402h2.117c1.649,0,2.476,0.601,2.476,1.801c0,0.4-0.097,0.744-0.286,1.031
			s-0.501,0.5-0.932,0.64c0.199,0.038,0.39,0.103,0.568,0.192c0.18,0.091,0.338,0.208,0.473,0.352
			c0.137,0.144,0.244,0.313,0.324,0.51C297.641,70.89,297.68,71.11,297.68,71.355z M296.366,68.104c0-0.15-0.023-0.293-0.068-0.427
			c-0.045-0.135-0.125-0.25-0.237-0.346c-0.113-0.097-0.267-0.173-0.457-0.229c-0.193-0.057-0.438-0.085-0.73-0.085h-1.042v2.316
			h1.008c0.229,0,0.438-0.024,0.626-0.073c0.188-0.05,0.348-0.125,0.48-0.227c0.135-0.103,0.238-0.229,0.313-0.383
			C296.329,68.499,296.366,68.316,296.366,68.104z M296.609,71.39c0-0.188-0.039-0.358-0.118-0.51
			c-0.08-0.15-0.194-0.278-0.347-0.382c-0.151-0.104-0.334-0.185-0.553-0.241c-0.217-0.057-0.461-0.085-0.732-0.085h-1.03v2.549
			h1.065c0.578,0,1.008-0.107,1.291-0.323C296.468,72.183,296.609,71.847,296.609,71.39z"/>
		<path d="M299.742,70.081c0.136-0.003,0.264-0.006,0.382-0.008c0.119-0.002,0.243-0.003,0.371-0.003
			c0.354,0,0.666,0.042,0.933,0.127c0.266,0.085,0.487,0.204,0.666,0.357c0.178,0.152,0.311,0.336,0.395,0.549
			c0.088,0.214,0.131,0.445,0.131,0.694c0,0.302-0.051,0.567-0.153,0.796c-0.103,0.229-0.247,0.42-0.437,0.574
			c-0.188,0.155-0.42,0.272-0.693,0.352c-0.271,0.079-0.6,0.119-0.977,0.119c-0.241,0-0.498-0.007-0.769-0.021
			c-0.271-0.013-0.545-0.04-0.823-0.082v-5.652h0.975V70.081L299.742,70.081z M301.6,71.826c0-0.299-0.095-0.53-0.279-0.694
			c-0.188-0.164-0.484-0.246-0.893-0.246c-0.109,0-0.222,0.002-0.334,0.006c-0.113,0.004-0.23,0.01-0.352,0.017v1.869
			c0.121,0.019,0.236,0.031,0.346,0.037c0.11,0.006,0.221,0.008,0.328,0.008c0.23,0,0.421-0.027,0.572-0.082
			c0.15-0.055,0.271-0.127,0.359-0.218c0.088-0.091,0.152-0.196,0.191-0.317S301.6,71.958,301.6,71.826z M303.242,73.57v-5.687
			h0.974v5.687H303.242z"/>
		<path d="M310.712,73.57h-1.308l-1.535-2.169l-1.518,2.169h-1.274l2.202-2.854l-2.1-2.832h1.262l1.496,2.187l1.467-2.187h1.217
			l-2.135,2.854L310.712,73.57z"/>
		<path d="M316.914,70.682c0,0.442-0.063,0.847-0.188,1.215s-0.305,0.684-0.537,0.946c-0.234,0.263-0.521,0.466-0.855,0.611
			s-0.717,0.218-1.145,0.218c-0.408,0-0.772-0.063-1.097-0.189c-0.321-0.126-0.597-0.313-0.819-0.558
			c-0.226-0.245-0.396-0.55-0.518-0.912c-0.117-0.362-0.178-0.779-0.178-1.252c0-0.441,0.063-0.845,0.188-1.209
			c0.125-0.364,0.305-0.678,0.539-0.94c0.232-0.262,0.518-0.466,0.854-0.611c0.335-0.145,0.717-0.218,1.145-0.218
			c0.407,0,0.771,0.063,1.096,0.189c0.324,0.127,0.597,0.312,0.822,0.556c0.225,0.243,0.395,0.546,0.514,0.908
			C316.855,69.798,316.914,70.214,316.914,70.682z M315.906,70.728c0-0.352-0.039-0.658-0.116-0.921
			c-0.078-0.262-0.188-0.481-0.331-0.657c-0.145-0.175-0.316-0.308-0.523-0.396c-0.205-0.088-0.437-0.133-0.688-0.133
			c-0.294,0-0.546,0.058-0.756,0.173c-0.21,0.115-0.381,0.27-0.516,0.462c-0.136,0.192-0.232,0.416-0.295,0.671
			c-0.063,0.255-0.094,0.521-0.094,0.802c0,0.351,0.039,0.658,0.116,0.923c0.077,0.265,0.188,0.484,0.331,0.66
			c0.145,0.175,0.316,0.308,0.521,0.396c0.203,0.088,0.434,0.133,0.689,0.133c0.294,0,0.547-0.058,0.756-0.173
			c0.209-0.115,0.382-0.27,0.516-0.462c0.135-0.192,0.231-0.416,0.295-0.671C315.875,71.279,315.906,71.011,315.906,70.728z"/>
		<path d="M323.619,72.721l-0.063,2.3h-0.9v-1.45h-4.146v1.45h-0.889l-0.057-2.3h0.078c0.145,0,0.278-0.022,0.407-0.068
			c0.13-0.045,0.248-0.131,0.356-0.257c0.109-0.127,0.211-0.303,0.304-0.527c0.093-0.225,0.175-0.516,0.249-0.872
			s0.139-0.79,0.191-1.3c0.055-0.51,0.102-1.113,0.14-1.813h3.511v4.837H323.619z M321.818,68.733h-1.586
			c-0.037,0.649-0.086,1.203-0.146,1.659c-0.061,0.457-0.131,0.841-0.212,1.15c-0.081,0.31-0.174,0.557-0.278,0.742
			c-0.105,0.185-0.225,0.33-0.353,0.436h2.577L321.818,68.733L321.818,68.733z"/>
	</g>
	<rect x="262.453" y="108.912" fill="#C0E247" width="92.794" height="26.609"/>
	<rect x="265.129" y="117.422" fill="none" width="85.479" height="32.54"/>
	<g enable-background="new    ">
		<path d="M285.271,125.424h-0.985l-0.146-4.615l-0.063-1.771l-0.347,1.029l-1.092,2.945h-0.697l-1.043-2.832l-0.346-1.145
			l-0.021,1.854l-0.131,4.535h-0.951l0.363-7.402h1.193l0.997,2.787l0.323,0.939l0.313-0.939l1.047-2.787h1.229L285.271,125.424z"/>
		<path d="M290.107,125.424l-0.021-0.765c-0.311,0.306-0.624,0.526-0.941,0.663c-0.319,0.136-0.654,0.203-1.006,0.203
			c-0.324,0-0.604-0.041-0.832-0.125c-0.23-0.082-0.422-0.196-0.57-0.342c-0.148-0.146-0.258-0.316-0.328-0.515
			s-0.104-0.407-0.104-0.642c0-0.568,0.211-1.016,0.637-1.34c0.424-0.32,1.052-0.482,1.883-0.482h1.178v-0.498
			c0-0.336-0.105-0.604-0.322-0.809c-0.216-0.201-0.545-0.303-0.984-0.303c-0.321,0-0.637,0.035-0.949,0.106
			s-0.635,0.174-0.967,0.308v-0.891c0.125-0.045,0.264-0.09,0.418-0.133c0.152-0.045,0.313-0.082,0.484-0.116
			c0.17-0.034,0.348-0.062,0.531-0.082c0.186-0.021,0.372-0.03,0.563-0.03c0.343,0,0.652,0.037,0.929,0.112s0.509,0.19,0.7,0.347
			c0.189,0.153,0.337,0.348,0.438,0.582c0.104,0.234,0.153,0.51,0.153,0.827v3.919h-0.886v0.004H290.107z M290.001,122.836h-1.252
			c-0.245,0-0.457,0.023-0.634,0.073c-0.178,0.049-0.323,0.118-0.436,0.21c-0.113,0.09-0.197,0.199-0.254,0.324
			c-0.055,0.127-0.08,0.271-0.08,0.429c0,0.108,0.016,0.214,0.051,0.313c0.033,0.101,0.088,0.188,0.164,0.267
			c0.076,0.077,0.174,0.139,0.295,0.185c0.121,0.045,0.268,0.067,0.44,0.067c0.228,0,0.486-0.067,0.778-0.206
			c0.293-0.139,0.602-0.355,0.926-0.654L290.001,122.836L290.001,122.836z"/>
		<path d="M297.771,120.587h-2.158v4.837h-0.997v-4.837h-2.158v-0.851h5.313V120.587z"/>
		<path d="M304.012,122.279c0,0.141-0.003,0.258-0.007,0.353c-0.003,0.095-0.009,0.183-0.017,0.267h-3.993
			c0,0.582,0.163,1.027,0.487,1.34s0.793,0.468,1.404,0.468c0.164,0,0.332-0.006,0.497-0.021c0.166-0.014,0.327-0.031,0.481-0.055
			s0.303-0.048,0.443-0.076c0.141-0.027,0.272-0.06,0.395-0.094v0.811c-0.27,0.076-0.571,0.139-0.909,0.186
			s-0.688,0.068-1.051,0.068c-0.487,0-0.906-0.063-1.257-0.196c-0.352-0.134-0.639-0.323-0.864-0.574s-0.392-0.56-0.498-0.924
			s-0.162-0.774-0.162-1.235c0-0.4,0.06-0.779,0.175-1.138c0.113-0.354,0.281-0.67,0.504-0.938c0.221-0.271,0.49-0.483,0.813-0.645
			c0.32-0.158,0.686-0.236,1.093-0.236c0.396,0,0.748,0.063,1.056,0.188c0.305,0.125,0.563,0.302,0.771,0.529
			c0.209,0.229,0.368,0.506,0.477,0.832C303.959,121.514,304.012,121.877,304.012,122.279z M302.986,122.139
			c0.013-0.252-0.012-0.484-0.072-0.693s-0.152-0.389-0.28-0.541c-0.127-0.149-0.282-0.27-0.473-0.354
			c-0.188-0.084-0.408-0.127-0.657-0.127c-0.215,0-0.411,0.042-0.589,0.125c-0.177,0.083-0.331,0.2-0.458,0.352
			c-0.128,0.15-0.23,0.332-0.313,0.543c-0.08,0.211-0.127,0.443-0.146,0.697h2.988V122.139z"/>
		<path d="M310.445,122.479c0,0.506-0.07,0.949-0.211,1.326c-0.144,0.377-0.338,0.69-0.586,0.939
			c-0.25,0.249-0.543,0.438-0.883,0.561c-0.342,0.125-0.709,0.188-1.104,0.188c-0.181,0-0.361-0.011-0.541-0.028
			c-0.179-0.02-0.36-0.052-0.546-0.097v2.379h-0.985v-8.009h0.88l0.062,0.951c0.282-0.391,0.585-0.662,0.905-0.817
			c0.32-0.157,0.668-0.235,1.043-0.235c0.324,0,0.608,0.067,0.854,0.204c0.245,0.136,0.451,0.327,0.617,0.574
			c0.166,0.248,0.291,0.546,0.374,0.896C310.404,121.658,310.445,122.048,310.445,122.479z M309.438,122.523
			c0-0.299-0.021-0.571-0.064-0.82s-0.111-0.463-0.207-0.641c-0.094-0.178-0.215-0.315-0.361-0.416
			c-0.146-0.102-0.322-0.15-0.527-0.15c-0.125,0-0.25,0.021-0.379,0.061c-0.127,0.041-0.26,0.105-0.398,0.197
			c-0.139,0.094-0.283,0.217-0.438,0.368c-0.152,0.153-0.315,0.343-0.49,0.569v2.758c0.182,0.076,0.373,0.136,0.572,0.179
			c0.201,0.044,0.396,0.065,0.59,0.065c0.531,0,0.949-0.182,1.25-0.541C309.287,123.792,309.438,123.249,309.438,122.523z"/>
		<path d="M313.029,119.736v4.006l2.479-4.006h0.94v5.688h-0.985v-4.004l-2.479,4.004h-0.939v-5.688H313.029z"/>
		<path d="M321.994,125.424l-0.021-0.765c-0.311,0.306-0.623,0.526-0.943,0.663c-0.318,0.136-0.653,0.203-1.004,0.203
			c-0.325,0-0.604-0.041-0.834-0.125c-0.229-0.082-0.42-0.196-0.568-0.342c-0.148-0.146-0.26-0.316-0.329-0.515
			c-0.069-0.196-0.104-0.407-0.104-0.642c0-0.568,0.213-1.016,0.638-1.34c0.425-0.32,1.052-0.482,1.883-0.482h1.179v-0.498
			c0-0.336-0.107-0.604-0.322-0.809c-0.215-0.201-0.545-0.303-0.985-0.303c-0.321,0-0.638,0.035-0.949,0.106
			s-0.634,0.174-0.966,0.308v-0.891c0.125-0.045,0.264-0.09,0.417-0.133c0.153-0.045,0.313-0.082,0.483-0.116
			s0.349-0.062,0.533-0.082c0.186-0.021,0.373-0.03,0.562-0.03c0.343,0,0.653,0.037,0.929,0.112s0.51,0.19,0.7,0.347
			c0.19,0.153,0.337,0.348,0.438,0.582c0.103,0.234,0.152,0.51,0.152,0.827v3.919h-0.886L321.994,125.424L321.994,125.424z
			 M321.887,122.836h-1.254c-0.244,0-0.457,0.023-0.634,0.073c-0.177,0.049-0.323,0.118-0.437,0.21
			c-0.112,0.09-0.196,0.199-0.252,0.324c-0.056,0.127-0.082,0.271-0.082,0.429c0,0.108,0.018,0.214,0.051,0.313
			c0.035,0.101,0.09,0.188,0.166,0.267c0.074,0.077,0.173,0.139,0.293,0.185c0.121,0.045,0.269,0.067,0.443,0.067
			c0.227,0,0.484-0.067,0.776-0.206c0.293-0.139,0.603-0.355,0.926-0.654L321.887,122.836L321.887,122.836z"/>
		<path d="M329.238,125.424h-0.985v-4.837h-1.586c-0.045,0.778-0.11,1.444-0.201,1.999c-0.089,0.557-0.194,1.02-0.319,1.391
			c-0.125,0.373-0.267,0.666-0.424,0.879c-0.16,0.213-0.33,0.367-0.515,0.465c-0.183,0.097-0.376,0.145-0.581,0.143
			c-0.204-0.002-0.413-0.027-0.628-0.082l0.045-0.814c0.151,0.016,0.292,0.008,0.425-0.022s0.256-0.103,0.367-0.218
			c0.113-0.115,0.217-0.281,0.311-0.498c0.092-0.219,0.176-0.508,0.252-0.87c0.074-0.362,0.141-0.808,0.195-1.333
			c0.055-0.527,0.098-1.154,0.133-1.885h3.512V125.424L329.238,125.424z"/>
		<path d="M331.628,121.936c0.138-0.004,0.265-0.006,0.382-0.008c0.119-0.003,0.243-0.004,0.371-0.004
			c0.355,0,0.666,0.042,0.934,0.127c0.266,0.086,0.486,0.204,0.666,0.357c0.176,0.152,0.31,0.336,0.396,0.549
			c0.087,0.214,0.13,0.445,0.13,0.693c0,0.303-0.051,0.568-0.152,0.797c-0.103,0.229-0.246,0.42-0.437,0.574
			c-0.188,0.153-0.42,0.271-0.692,0.352c-0.273,0.079-0.601,0.119-0.979,0.119c-0.241,0-0.497-0.008-0.768-0.021
			c-0.271-0.013-0.545-0.039-0.824-0.082v-5.652h0.975L331.628,121.936L331.628,121.936z M333.486,123.68
			c0-0.299-0.094-0.529-0.28-0.693s-0.483-0.246-0.892-0.246c-0.11,0-0.223,0.003-0.334,0.007c-0.113,0.004-0.23,0.01-0.353,0.019
			v1.867c0.121,0.02,0.235,0.031,0.347,0.037c0.108,0.006,0.219,0.01,0.328,0.01c0.229,0,0.422-0.027,0.571-0.082
			c0.151-0.057,0.271-0.127,0.36-0.22c0.088-0.091,0.152-0.194,0.19-0.315C333.466,123.938,333.486,123.813,333.486,123.68z
			 M335.128,125.424v-5.688h0.976v5.688H335.128z"/>
	</g>
	<rect x="262.453" y="160.085" fill="#C0E247" width="92.794" height="26.608"/>
	<rect x="265.129" y="168.596" fill="none" width="85.479" height="32.538"/>
	<g enable-background="new    ">
		<path d="M275.496,170.057h-2.191v6.541h-1.021v-6.541h-2.19v-0.861h5.402V170.057L275.496,170.057z"/>
		<path d="M281.749,173.652c0,0.506-0.069,0.947-0.212,1.324c-0.143,0.379-0.337,0.69-0.586,0.939s-0.543,0.438-0.883,0.563
			s-0.709,0.188-1.104,0.188c-0.181,0-0.36-0.01-0.541-0.027c-0.179-0.021-0.36-0.053-0.546-0.098v2.379h-0.984v-8.009h0.879
			l0.062,0.952c0.283-0.391,0.585-0.662,0.905-0.818c0.322-0.156,0.669-0.234,1.043-0.234c0.324,0,0.609,0.066,0.855,0.203
			c0.243,0.137,0.449,0.327,0.615,0.574c0.166,0.248,0.291,0.547,0.374,0.896C281.707,172.832,281.749,173.223,281.749,173.652z
			 M280.74,173.697c0-0.299-0.021-0.571-0.065-0.82s-0.11-0.463-0.207-0.641c-0.094-0.178-0.215-0.315-0.36-0.416
			c-0.147-0.1-0.323-0.15-0.527-0.15c-0.125,0-0.251,0.021-0.379,0.061c-0.129,0.041-0.262,0.105-0.398,0.197
			c-0.139,0.094-0.283,0.217-0.438,0.368c-0.153,0.153-0.316,0.343-0.49,0.569v2.758c0.182,0.076,0.372,0.136,0.572,0.18
			c0.199,0.043,0.396,0.064,0.589,0.064c0.532,0,0.95-0.182,1.251-0.541C280.59,174.966,280.74,174.423,280.74,173.697z"/>
		<path d="M288.324,170.911l-1.938,5.086c-0.199,0.519-0.406,0.963-0.619,1.337s-0.447,0.682-0.701,0.92
			c-0.252,0.24-0.529,0.417-0.832,0.53c-0.303,0.112-0.642,0.17-1.014,0.17c-0.1,0-0.189-0.002-0.268-0.007
			c-0.079-0.004-0.166-0.01-0.262-0.018v-0.896c0.084,0.012,0.175,0.021,0.271,0.03c0.1,0.011,0.202,0.015,0.313,0.015
			c0.182,0,0.351-0.024,0.508-0.079c0.156-0.055,0.305-0.141,0.445-0.258c0.14-0.118,0.271-0.271,0.4-0.461
			c0.128-0.188,0.253-0.42,0.374-0.688l-2.271-5.687h1.121l1.438,3.761l0.289,0.885l0.329-0.906l1.331-3.737L288.324,170.911
			L288.324,170.911z"/>
		<path d="M294.922,175.748l-0.063,2.3h-0.9v-1.45h-4.146v1.45h-0.89l-0.058-2.3h0.08c0.144,0,0.279-0.021,0.408-0.068
			c0.127-0.045,0.248-0.131,0.355-0.257c0.109-0.127,0.21-0.303,0.305-0.526c0.092-0.226,0.174-0.517,0.248-0.873
			c0.073-0.354,0.139-0.789,0.191-1.299c0.054-0.511,0.102-1.113,0.139-1.813h3.512v4.837L294.922,175.748L294.922,175.748z
			 M293.121,171.762h-1.586c-0.038,0.648-0.088,1.202-0.146,1.658c-0.061,0.457-0.132,0.842-0.213,1.15
			c-0.08,0.31-0.174,0.557-0.279,0.742c-0.104,0.185-0.224,0.33-0.352,0.436h2.577L293.121,171.762L293.121,171.762z"/>
		<path d="M300.971,173.709c0,0.441-0.063,0.848-0.188,1.215c-0.125,0.368-0.304,0.684-0.538,0.946
			c-0.232,0.263-0.52,0.466-0.854,0.61c-0.336,0.146-0.719,0.219-1.146,0.219c-0.408,0-0.772-0.063-1.097-0.189
			c-0.322-0.126-0.596-0.313-0.82-0.558s-0.396-0.55-0.516-0.912s-0.18-0.778-0.18-1.252c0-0.44,0.063-0.845,0.188-1.209
			s0.305-0.679,0.539-0.94c0.232-0.262,0.519-0.466,0.854-0.611c0.336-0.145,0.719-0.217,1.145-0.217
			c0.408,0,0.772,0.063,1.097,0.188c0.323,0.127,0.596,0.312,0.821,0.556c0.225,0.243,0.396,0.547,0.515,0.908
			C300.911,172.825,300.971,173.241,300.971,173.709z M299.963,173.755c0-0.353-0.039-0.657-0.115-0.921
			c-0.078-0.262-0.188-0.48-0.33-0.656c-0.146-0.176-0.318-0.309-0.524-0.396c-0.206-0.086-0.437-0.133-0.688-0.133
			c-0.293,0-0.545,0.059-0.757,0.172c-0.21,0.115-0.381,0.271-0.516,0.464c-0.134,0.19-0.231,0.416-0.294,0.671
			s-0.094,0.521-0.094,0.802c0,0.353,0.039,0.658,0.117,0.925c0.075,0.264,0.188,0.482,0.33,0.658
			c0.145,0.176,0.316,0.309,0.521,0.396c0.203,0.089,0.434,0.134,0.691,0.134c0.293,0,0.547-0.058,0.756-0.173
			s0.381-0.271,0.515-0.463s0.231-0.416,0.294-0.67C299.932,174.307,299.963,174.038,299.963,173.755z"/>
		<path d="M302.245,175.578c0.166,0.045,0.343,0.085,0.532,0.119c0.188,0.033,0.375,0.064,0.561,0.091
			c0.188,0.026,0.363,0.046,0.535,0.06s0.326,0.021,0.462,0.021c0.321,0,0.588-0.021,0.802-0.063c0.213-0.041,0.383-0.102,0.51-0.18
			c0.127-0.077,0.217-0.172,0.27-0.281c0.055-0.111,0.079-0.236,0.079-0.377c0-0.137-0.022-0.261-0.071-0.371
			c-0.047-0.111-0.132-0.209-0.255-0.291c-0.123-0.084-0.29-0.148-0.501-0.193s-0.48-0.067-0.811-0.067h-1.394v-0.765h1.39
			c0.287,0,0.521-0.02,0.705-0.057c0.183-0.037,0.325-0.094,0.433-0.164c0.104-0.072,0.177-0.158,0.215-0.262
			s0.058-0.22,0.058-0.354c0-0.127-0.023-0.24-0.07-0.342c-0.047-0.101-0.125-0.186-0.235-0.256
			c-0.108-0.068-0.255-0.123-0.437-0.16c-0.182-0.039-0.405-0.058-0.674-0.058c-0.293,0-0.617,0.021-0.969,0.063
			c-0.352,0.041-0.703,0.102-1.054,0.181v-0.832c0.155-0.034,0.321-0.065,0.501-0.097c0.179-0.03,0.361-0.055,0.546-0.073
			c0.187-0.021,0.369-0.034,0.552-0.046c0.184-0.012,0.357-0.018,0.524-0.018c0.444,0,0.817,0.037,1.116,0.109
			c0.299,0.073,0.537,0.178,0.719,0.311c0.181,0.131,0.311,0.289,0.385,0.469c0.075,0.183,0.113,0.381,0.113,0.596
			c0,0.159-0.023,0.309-0.068,0.45c-0.045,0.141-0.113,0.271-0.209,0.383c-0.094,0.112-0.214,0.209-0.357,0.289
			c-0.146,0.079-0.32,0.136-0.524,0.17c0.204,0.03,0.394,0.08,0.565,0.149c0.174,0.07,0.324,0.162,0.451,0.277
			c0.125,0.113,0.227,0.252,0.299,0.409c0.074,0.158,0.109,0.341,0.109,0.544c0,0.249-0.048,0.479-0.145,0.693
			c-0.096,0.214-0.254,0.396-0.473,0.55c-0.221,0.151-0.51,0.271-0.867,0.358c-0.358,0.086-0.799,0.129-1.319,0.129
			c-0.14,0-0.293-0.004-0.461-0.014s-0.343-0.021-0.521-0.039c-0.182-0.018-0.356-0.037-0.531-0.063
			c-0.174-0.025-0.336-0.055-0.486-0.088v-0.916h0.001V175.578z"/>
		<path d="M312.428,176.598l-0.021-0.765c-0.311,0.306-0.624,0.526-0.943,0.663c-0.318,0.136-0.652,0.203-1.005,0.203
			c-0.325,0-0.603-0.041-0.833-0.124c-0.229-0.083-0.42-0.197-0.568-0.343c-0.148-0.146-0.26-0.316-0.328-0.514
			c-0.07-0.197-0.104-0.408-0.104-0.641c0-0.57,0.212-1.018,0.638-1.342c0.426-0.32,1.053-0.482,1.883-0.482h1.178v-0.498
			c0-0.336-0.106-0.604-0.322-0.809c-0.215-0.2-0.544-0.303-0.984-0.303c-0.32,0-0.638,0.035-0.949,0.106
			c-0.313,0.071-0.633,0.175-0.965,0.308v-0.891c0.125-0.045,0.262-0.09,0.416-0.133c0.152-0.044,0.313-0.082,0.483-0.116
			s0.349-0.062,0.533-0.082c0.184-0.021,0.372-0.03,0.562-0.03c0.344,0,0.652,0.037,0.93,0.112c0.274,0.075,0.509,0.19,0.699,0.347
			c0.189,0.153,0.338,0.35,0.438,0.582c0.103,0.234,0.153,0.51,0.153,0.828v3.918h-0.887v0.004H312.428z M312.32,174.01h-1.252
			c-0.244,0-0.457,0.024-0.633,0.073c-0.179,0.049-0.324,0.119-0.438,0.21c-0.111,0.09-0.196,0.199-0.252,0.325
			c-0.055,0.127-0.082,0.271-0.082,0.428c0,0.108,0.018,0.214,0.051,0.313c0.034,0.101,0.09,0.188,0.165,0.267
			s0.175,0.14,0.294,0.185c0.121,0.045,0.27,0.067,0.441,0.067c0.228,0,0.486-0.067,0.779-0.206
			c0.293-0.138,0.602-0.355,0.926-0.654V174.01L312.32,174.01z"/>
		<path d="M320.091,171.762h-2.157v4.836h-0.996v-4.836h-2.158v-0.851h5.313L320.091,171.762L320.091,171.762z"/>
		<path d="M326.389,173.652c0,0.506-0.07,0.947-0.211,1.324c-0.144,0.379-0.339,0.69-0.588,0.939s-0.543,0.438-0.883,0.563
			s-0.708,0.188-1.104,0.188c-0.183,0-0.361-0.01-0.541-0.027c-0.18-0.021-0.361-0.053-0.547-0.098v2.379h-0.984v-8.009h0.878
			l0.063,0.952c0.281-0.391,0.584-0.662,0.904-0.818c0.321-0.156,0.668-0.234,1.042-0.234c0.325,0,0.61,0.066,0.854,0.203
			c0.246,0.137,0.451,0.327,0.617,0.574c0.166,0.248,0.291,0.547,0.375,0.896C326.348,172.832,326.389,173.223,326.389,173.652z
			 M325.381,173.697c0-0.299-0.021-0.571-0.064-0.82s-0.111-0.463-0.207-0.641c-0.094-0.178-0.215-0.315-0.361-0.416
			c-0.146-0.1-0.323-0.15-0.525-0.15c-0.125,0-0.252,0.021-0.381,0.061c-0.128,0.039-0.261,0.105-0.398,0.197
			c-0.137,0.094-0.282,0.217-0.438,0.368c-0.152,0.153-0.314,0.343-0.488,0.569v2.758c0.18,0.076,0.371,0.136,0.57,0.18
			c0.2,0.043,0.396,0.064,0.59,0.064c0.531,0,0.949-0.182,1.252-0.541C325.23,174.966,325.381,174.423,325.381,173.697z"/>
		<path d="M331.561,176.598l-0.022-0.765c-0.31,0.306-0.624,0.526-0.942,0.663c-0.318,0.136-0.654,0.203-1.006,0.203
			c-0.324,0-0.604-0.041-0.833-0.124s-0.42-0.197-0.567-0.343c-0.149-0.146-0.26-0.316-0.33-0.514
			c-0.069-0.199-0.104-0.408-0.104-0.641c0-0.57,0.212-1.018,0.639-1.342c0.424-0.32,1.051-0.482,1.883-0.482h1.178v-0.498
			c0-0.336-0.105-0.604-0.323-0.809c-0.215-0.2-0.544-0.303-0.983-0.303c-0.321,0-0.639,0.035-0.949,0.106
			c-0.313,0.071-0.635,0.175-0.967,0.308v-0.891c0.125-0.045,0.264-0.09,0.418-0.133c0.151-0.044,0.313-0.082,0.482-0.116
			s0.35-0.062,0.533-0.082c0.186-0.021,0.372-0.03,0.563-0.03c0.342,0,0.651,0.037,0.928,0.112c0.277,0.075,0.51,0.19,0.701,0.347
			c0.188,0.153,0.336,0.35,0.438,0.582c0.104,0.234,0.152,0.51,0.152,0.828v3.918h-0.885v0.004H331.561z M331.452,174.01H330.2
			c-0.245,0-0.457,0.024-0.634,0.073c-0.178,0.049-0.323,0.119-0.438,0.21c-0.111,0.09-0.195,0.199-0.252,0.325
			c-0.055,0.127-0.082,0.271-0.082,0.428c0,0.108,0.018,0.214,0.053,0.313c0.032,0.101,0.088,0.188,0.164,0.267
			c0.074,0.078,0.174,0.14,0.295,0.185s0.268,0.067,0.44,0.067c0.228,0,0.485-0.067,0.778-0.206
			c0.293-0.138,0.602-0.355,0.926-0.654L331.452,174.01L331.452,174.01z"/>
		<path d="M339.223,171.762h-2.158v4.836h-0.996v-4.836h-2.158v-0.851h5.313V171.762z"/>
		<path d="M341.193,173.107c0.137-0.002,0.265-0.006,0.383-0.008c0.119-0.002,0.242-0.002,0.371-0.002
			c0.355,0,0.666,0.041,0.932,0.127c0.268,0.084,0.488,0.203,0.666,0.355c0.178,0.15,0.311,0.336,0.396,0.549
			c0.086,0.215,0.129,0.445,0.129,0.693c0,0.303-0.051,0.566-0.152,0.797c-0.102,0.229-0.247,0.42-0.436,0.572
			c-0.189,0.156-0.42,0.272-0.694,0.354c-0.272,0.079-0.599,0.119-0.978,0.119c-0.24,0-0.496-0.008-0.768-0.021
			c-0.27-0.014-0.545-0.041-0.822-0.082v-5.651h0.973V173.107L341.193,173.107z M343.053,174.854c0-0.299-0.096-0.528-0.281-0.692
			c-0.188-0.164-0.483-0.246-0.893-0.246c-0.109,0-0.221,0.002-0.334,0.006c-0.111,0.004-0.229,0.011-0.352,0.019v1.869
			c0.121,0.019,0.236,0.029,0.347,0.037c0.108,0.006,0.219,0.008,0.328,0.008c0.229,0,0.421-0.027,0.571-0.082
			c0.15-0.057,0.271-0.127,0.359-0.219c0.09-0.092,0.153-0.195,0.191-0.316C343.031,175.111,343.053,174.984,343.053,174.854z
			 M344.693,176.598v-5.687h0.975v5.687H344.693z"/>
	</g>
	<rect x="131.451" y="108.23" fill="#FFE600" width="79.146" height="38.207"/>
	<rect x="134.127" y="116.738" fill="none" width="73.88" height="40.729"/>
	<g enable-background="new    ">
		<path d="M164.544,123.871l-0.073,2.475h-0.9v-1.603h-4.537v-7.402h1.008v6.53h2.81v-6.53h1.008v6.53H164.544z"/>
		<path d="M170.4,121.6c0,0.141-0.002,0.258-0.006,0.354c-0.003,0.095-0.009,0.184-0.018,0.268h-3.993
			c0,0.58,0.163,1.026,0.487,1.34c0.324,0.312,0.793,0.467,1.404,0.467c0.166,0,0.333-0.006,0.499-0.021
			c0.166-0.013,0.327-0.029,0.48-0.054c0.154-0.022,0.304-0.05,0.444-0.076c0.14-0.026,0.273-0.062,0.395-0.095v0.811
			c-0.27,0.076-0.571,0.139-0.909,0.186s-0.688,0.07-1.052,0.07c-0.486,0-0.905-0.064-1.257-0.197
			c-0.351-0.133-0.639-0.323-0.863-0.574c-0.226-0.252-0.392-0.559-0.498-0.924c-0.108-0.364-0.162-0.776-0.162-1.237
			c0-0.399,0.058-0.778,0.173-1.136c0.115-0.356,0.283-0.67,0.504-0.939c0.221-0.271,0.492-0.484,0.813-0.645
			c0.321-0.157,0.686-0.236,1.094-0.236c0.396,0,0.748,0.063,1.054,0.188c0.306,0.125,0.563,0.301,0.773,0.529
			c0.209,0.229,0.367,0.506,0.476,0.832C170.346,120.831,170.4,121.195,170.4,121.6z M169.375,121.458
			c0.013-0.253-0.013-0.483-0.072-0.692c-0.062-0.211-0.154-0.391-0.28-0.541c-0.127-0.152-0.284-0.271-0.474-0.354
			c-0.188-0.084-0.407-0.127-0.656-0.127c-0.215,0-0.411,0.042-0.589,0.125c-0.178,0.083-0.331,0.199-0.458,0.352
			c-0.129,0.15-0.232,0.332-0.313,0.545c-0.08,0.211-0.128,0.441-0.146,0.694L169.375,121.458L169.375,121.458z"/>
		<path d="M176.545,124.743h-0.984v-2.515h-2.601v2.515h-0.984v-5.687h0.984v2.311h2.601v-2.311h0.984V124.743z"/>
		<path d="M182.005,124.743l-0.021-0.765c-0.312,0.306-0.625,0.524-0.943,0.662c-0.318,0.137-0.653,0.203-1.005,0.203
			c-0.325,0-0.603-0.041-0.833-0.123c-0.229-0.084-0.42-0.197-0.569-0.345c-0.148-0.146-0.259-0.315-0.328-0.515
			c-0.07-0.195-0.104-0.407-0.104-0.639c0-0.57,0.212-1.018,0.637-1.34c0.426-0.322,1.053-0.484,1.884-0.484h1.177V120.9
			c0-0.336-0.106-0.604-0.322-0.809c-0.215-0.201-0.544-0.303-0.985-0.303c-0.32,0-0.637,0.036-0.948,0.107
			c-0.313,0.072-0.635,0.174-0.967,0.307v-0.891c0.125-0.045,0.264-0.09,0.417-0.133c0.153-0.043,0.314-0.082,0.484-0.115
			c0.17-0.035,0.348-0.063,0.533-0.082c0.185-0.021,0.372-0.031,0.561-0.031c0.344,0,0.653,0.037,0.931,0.113
			c0.274,0.074,0.508,0.188,0.699,0.346c0.189,0.154,0.338,0.35,0.438,0.583s0.153,0.51,0.153,0.827v3.918h-0.888v0.005H182.005z
			 M181.896,122.154h-1.251c-0.245,0-0.457,0.025-0.634,0.074c-0.178,0.049-0.323,0.119-0.437,0.209
			c-0.114,0.09-0.197,0.199-0.252,0.326c-0.055,0.127-0.082,0.27-0.082,0.428c0,0.107,0.017,0.213,0.051,0.313
			s0.089,0.188,0.165,0.268c0.075,0.078,0.173,0.139,0.294,0.185c0.121,0.045,0.269,0.067,0.442,0.067
			c0.227,0,0.486-0.068,0.778-0.207c0.293-0.137,0.602-0.355,0.926-0.653V122.154L181.896,122.154z"/>
	</g>
	<g enable-background="new    ">
		<path d="M140.304,141.041c-1.741-1.611-2.611-3.395-2.611-5.348c0-0.457,0.046-0.912,0.139-1.367
			c0.092-0.454,0.242-0.91,0.447-1.367c0.206-0.457,0.478-0.914,0.816-1.371c0.337-0.456,0.747-0.908,1.23-1.359l0.572,0.584
			c-1.465,1.447-2.198,3.049-2.198,4.811c0,0.876,0.186,1.718,0.555,2.523c0.37,0.811,0.917,1.572,1.644,2.289L140.304,141.041z"/>
		<path d="M145.724,130.195h0.82l-0.146,1.104c0.196,0.02,0.394,0.043,0.592,0.073c0.198,0.03,0.382,0.065,0.552,0.106v0.873
			c-0.208-0.055-0.417-0.1-0.629-0.138c-0.211-0.036-0.419-0.063-0.623-0.085l-0.323,2.426c0.254,0.098,0.505,0.203,0.754,0.318
			c0.249,0.113,0.473,0.251,0.671,0.406c0.197,0.156,0.357,0.344,0.48,0.56s0.185,0.474,0.185,0.771
			c0,0.316-0.064,0.599-0.192,0.845c-0.128,0.243-0.308,0.452-0.538,0.623c-0.229,0.17-0.508,0.303-0.833,0.397
			c-0.325,0.096-0.682,0.153-1.07,0.172l-0.187,1.351h-0.827l0.188-1.351c-0.307-0.021-0.598-0.055-0.875-0.099
			c-0.277-0.043-0.519-0.092-0.723-0.146v-0.939c0.238,0.083,0.497,0.15,0.778,0.204c0.281,0.054,0.594,0.089,0.938,0.106
			l0.334-2.549c-0.244-0.095-0.486-0.195-0.725-0.307c-0.239-0.111-0.45-0.238-0.637-0.395c-0.188-0.151-0.339-0.334-0.456-0.541
			c-0.117-0.207-0.176-0.455-0.176-0.74c0-0.232,0.049-0.467,0.146-0.694c0.099-0.229,0.251-0.435,0.459-0.616
			c0.208-0.184,0.47-0.334,0.787-0.453c0.317-0.119,0.695-0.188,1.133-0.211L145.724,130.195z M145.469,132.121
			c-0.473,0.041-0.817,0.15-1.034,0.331c-0.218,0.179-0.326,0.407-0.326,0.688c0,0.26,0.09,0.475,0.269,0.644
			c0.18,0.168,0.446,0.321,0.802,0.461L145.469,132.121z M145.537,137.777c0.51-0.037,0.881-0.149,1.113-0.34
			c0.231-0.188,0.348-0.444,0.348-0.771c0-0.138-0.023-0.258-0.073-0.364c-0.049-0.107-0.122-0.205-0.221-0.291
			c-0.098-0.089-0.22-0.168-0.365-0.244s-0.315-0.15-0.513-0.229L145.537,137.777z"/>
		<path d="M154.225,130.659l-3.886,9.221H149.4l3.885-9.221H154.225z"/>
		<path d="M160.835,135.52c0,0.141-0.002,0.256-0.006,0.353c-0.003,0.095-0.009,0.185-0.017,0.267h-3.993
			c0,0.582,0.163,1.027,0.487,1.34c0.323,0.313,0.793,0.467,1.403,0.467c0.166,0,0.333-0.006,0.499-0.021
			c0.166-0.013,0.327-0.03,0.481-0.054c0.154-0.023,0.303-0.049,0.443-0.076c0.142-0.027,0.273-0.061,0.395-0.094v0.811
			c-0.27,0.075-0.571,0.139-0.909,0.186c-0.338,0.047-0.688,0.07-1.051,0.07c-0.487,0-0.906-0.065-1.257-0.199
			c-0.352-0.131-0.64-0.322-0.864-0.573c-0.224-0.251-0.391-0.56-0.498-0.925c-0.108-0.363-0.162-0.775-0.162-1.236
			c0-0.4,0.059-0.777,0.173-1.137c0.115-0.355,0.283-0.67,0.504-0.938c0.222-0.271,0.492-0.484,0.813-0.645
			c0.321-0.158,0.685-0.237,1.093-0.237c0.396,0,0.748,0.063,1.054,0.187c0.307,0.125,0.563,0.304,0.773,0.531
			c0.209,0.227,0.368,0.506,0.476,0.832C160.781,134.75,160.835,135.115,160.835,135.52z M159.809,135.377
			c0.012-0.253-0.014-0.484-0.073-0.693c-0.062-0.209-0.154-0.39-0.28-0.541c-0.127-0.149-0.284-0.27-0.473-0.354
			s-0.408-0.127-0.657-0.127c-0.215,0-0.411,0.042-0.589,0.125c-0.177,0.083-0.331,0.199-0.458,0.352
			c-0.128,0.15-0.232,0.332-0.313,0.543c-0.079,0.211-0.128,0.443-0.146,0.696L159.809,135.377L159.809,135.377z"/>
		<path d="M167.687,137.813l-0.063,2.301h-0.9v-1.449h-4.146v1.449h-0.889l-0.058-2.301h0.079c0.145,0,0.279-0.021,0.408-0.066
			c0.128-0.045,0.248-0.133,0.357-0.258c0.108-0.127,0.21-0.303,0.303-0.526c0.092-0.226,0.175-0.517,0.249-0.872
			c0.074-0.355,0.138-0.789,0.192-1.3c0.054-0.511,0.101-1.112,0.139-1.813h3.511v4.836H167.687z M165.886,133.825H164.3
			c-0.037,0.649-0.087,1.202-0.146,1.659c-0.061,0.457-0.131,0.841-0.212,1.148c-0.081,0.311-0.174,0.559-0.28,0.742
			c-0.104,0.186-0.223,0.33-0.351,0.438h2.577L165.886,133.825L165.886,133.825z"/>
		<path d="M169.851,132.977v4.004l2.48-4.004h0.94v5.688h-0.985v-4.004l-2.479,4.004h-0.94v-5.688H169.851z"/>
		<path d="M179.734,138.662h-0.985v-2.516h-2.6v2.516h-0.985v-5.688h0.985v2.312h2.6v-2.312h0.985V138.662z"/>
		<path d="M182.605,132.977v4.004l2.479-4.004h0.94v5.688h-0.985v-4.004l-2.479,4.004h-0.939v-5.688H182.605z"/>
		<path d="M193.122,137.813l-0.058,2.301h-0.896v-1.449h-4.299v-5.688h0.985v4.836h2.594v-4.836h0.984v4.836H193.122z"/>
		<path d="M199.354,132.977l-1.938,5.086c-0.2,0.519-0.407,0.963-0.62,1.336c-0.213,0.375-0.445,0.683-0.699,0.92
			c-0.253,0.24-0.529,0.418-0.832,0.531c-0.304,0.112-0.642,0.17-1.016,0.17c-0.098,0-0.188-0.002-0.266-0.006
			c-0.08-0.004-0.166-0.011-0.262-0.019V140.1c0.084,0.012,0.174,0.021,0.271,0.031c0.097,0.01,0.201,0.014,0.313,0.014
			c0.182,0,0.35-0.024,0.508-0.078c0.156-0.053,0.305-0.139,0.443-0.258c0.141-0.119,0.273-0.271,0.402-0.461
			c0.128-0.188,0.253-0.418,0.373-0.687l-2.27-5.687h1.119l1.438,3.76l0.289,0.885l0.33-0.906l1.33-3.738h1.082v0.002H199.354z"/>
		<path d="M201.834,130.229c1.74,1.612,2.611,3.406,2.611,5.381c0,0.408-0.043,0.832-0.125,1.271
			c-0.084,0.438-0.225,0.888-0.426,1.347c-0.199,0.459-0.469,0.924-0.808,1.396c-0.338,0.474-0.765,0.944-1.276,1.422l-0.572-0.584
			c0.736-0.729,1.287-1.487,1.648-2.28c0.361-0.795,0.545-1.623,0.545-2.492c0-1.797-0.731-3.414-2.193-4.85L201.834,130.229z"/>
	</g>
	<line fill="none" stroke="#BBBDBF" stroke-width="2" stroke-miterlimit="10" x1="103.818" y1="26.011" x2="103.818" y2="127.674"/>
	<line fill="none" stroke="#BBBDBF" stroke-width="2" stroke-miterlimit="10" x1="234.82" y1="18.505" x2="234.82" y2="71.042"/>
</g>
</svg>
