<?xml version="1.0" encoding="utf-8"?>
<!-- Generator: Adobe Illustrator 15.1.0, SVG Export Plug-In . SVG Version: 6.00 Build 0)  -->
<!DOCTYPE svg PUBLIC "-//W3C//DTD SVG 1.1//EN" "http://www.w3.org/Graphics/SVG/1.1/DTD/svg11.dtd">
<svg version="1.1" id="Layer_1" xmlns="http://www.w3.org/2000/svg" xmlns:xlink="http://www.w3.org/1999/xlink" x="0px" y="0px"
	 width="391px" height="202px" viewBox="422 0 391 202" enable-background="new 422 0 391 202" xml:space="preserve">
<text transform="matrix(1.0391 0 0 1 -199.2053 -176.3193)" display="none" fill="#231F20" enable-background="new    " font-family="'Consolas'" font-size="17">R – Responsible – сотрудник, ответственный за фактическое исполнение KPI.</text>
<line fill="none" stroke="#808184" stroke-width="2" stroke-miterlimit="10" x1="788.073" y1="26.826" x2="788.073" y2="197.166"/>
<rect x="455.728" y="26.826" fill="#FFF100" width="45.319" height="18.753"/>
<rect x="501.049" y="26.826" fill="#8BC53F" width="47.664" height="18.753"/>
<rect x="549.492" y="26.826" fill="#A6A8AB" width="45.32" height="18.753"/>
<rect x="595.594" y="26.826" fill="#BB61CE" width="48.443" height="18.753"/>
<rect x="643.26" y="26.826" fill="#FFAEEE" width="48.442" height="18.753"/>
<rect x="691.702" y="26.826" fill="#8AA9FF" width="48.446" height="18.753"/>
<rect x="740.148" y="26.826" fill="#FF9769" width="48.445" height="18.753"/>
<rect x="455.633" y="4.947" fill="none" stroke="#808184" stroke-width="2" stroke-miterlimit="10" width="353.361" height="193"/>
<line fill="none" stroke="#808184" stroke-width="2" stroke-miterlimit="10" x1="455.728" y1="26.044" x2="808.923" y2="26.044"/>
<line fill="none" stroke="#808184" stroke-width="2" stroke-miterlimit="10" x1="455.728" y1="46.36" x2="808.923" y2="46.36"/>
<line fill="none" stroke="#808184" stroke-width="2" stroke-miterlimit="10" x1="455.728" y1="65.113" x2="808.923" y2="65.113"/>
<line fill="none" stroke="#808184" stroke-width="2" stroke-miterlimit="10" x1="455.728" y1="73.708" x2="808.923" y2="73.708"/>
<line fill="none" stroke="#808184" stroke-width="2" stroke-miterlimit="10" x1="455.728" y1="82.303" x2="808.923" y2="82.303"/>
<line fill="none" stroke="#808184" stroke-width="2" stroke-miterlimit="10" x1="455.728" y1="129.186" x2="808.923" y2="129.186"/>
<line fill="none" stroke="#808184" stroke-width="2" stroke-miterlimit="10" x1="455.728" y1="137" x2="808.923" y2="137"/>
<line fill="none" stroke="#808184" stroke-width="2" stroke-miterlimit="10" x1="455.728" y1="158.098" x2="808.923" y2="158.098"/>
<line fill="none" stroke="#808184" stroke-width="2" stroke-miterlimit="10" x1="455.728" y1="177.631" x2="808.923" y2="177.631"/>
<line fill="none" stroke="#808184" stroke-width="2" stroke-miterlimit="10" x1="455.728" y1="183.882" x2="808.923" y2="183.882"/>
<line fill="none" stroke="#808184" stroke-width="2" stroke-miterlimit="10" x1="456.51" y1="190.915" x2="809.701" y2="190.915"/>
<line fill="none" stroke="#808184" stroke-width="2" stroke-miterlimit="10" x1="455.728" y1="165.129" x2="808.923" y2="165.129"/>
<line fill="none" stroke="#808184" stroke-width="2" stroke-miterlimit="10" x1="456.51" y1="171.381" x2="809.701" y2="171.381"/>
<rect x="460.416" y="9.636" fill="none" width="130.489" height="17.972"/>
<g enable-background="new    ">
	<path d="M467.007,16.265c0,0.406-0.08,0.767-0.237,1.08c-0.157,0.313-0.383,0.578-0.675,0.795c-0.291,0.216-0.646,0.38-1.058,0.492
		c-0.412,0.113-0.873,0.169-1.379,0.169h-2.218v-8.479h2.426c1.891,0,2.835,0.688,2.835,2.063c0,0.459-0.108,0.853-0.328,1.181
		c-0.219,0.329-0.573,0.573-1.065,0.733c0.229,0.043,0.445,0.116,0.651,0.22c0.204,0.104,0.386,0.238,0.541,0.402
		c0.155,0.165,0.278,0.359,0.369,0.584C466.961,15.731,467.007,15.983,467.007,16.265z M465.5,12.542
		c0-0.173-0.024-0.336-0.076-0.49c-0.053-0.153-0.144-0.285-0.272-0.396c-0.129-0.111-0.305-0.197-0.524-0.263
		c-0.222-0.064-0.5-0.097-0.838-0.097h-1.192v2.652h1.155c0.264,0,0.502-0.028,0.716-0.084c0.214-0.057,0.396-0.143,0.552-0.26
		c0.153-0.117,0.271-0.263,0.355-0.438C465.459,12.992,465.5,12.784,465.5,12.542z M465.779,16.304c0-0.216-0.045-0.411-0.137-0.584
		c-0.09-0.173-0.223-0.318-0.396-0.438c-0.174-0.119-0.385-0.211-0.633-0.275c-0.248-0.065-0.528-0.098-0.84-0.098h-1.181v2.919
		h1.22c0.661,0,1.154-0.123,1.479-0.37C465.617,17.212,465.779,16.827,465.779,16.304z"/>
	<path d="M474.412,13.262h-2.471v5.539h-1.141v-5.539h-2.473v-0.973h6.084V13.262z"/>
	<path d="M481.728,15.493c0,0.506-0.071,0.97-0.214,1.391c-0.145,0.422-0.349,0.783-0.616,1.084c-0.268,0.3-0.595,0.533-0.979,0.7
		c-0.386,0.166-0.821,0.25-1.311,0.25c-0.468,0-0.886-0.073-1.256-0.218c-0.369-0.145-0.684-0.357-0.94-0.639
		c-0.256-0.282-0.454-0.629-0.591-1.044c-0.135-0.416-0.203-0.894-0.203-1.434c0-0.506,0.07-0.968,0.213-1.385
		c0.145-0.418,0.35-0.776,0.617-1.077c0.269-0.301,0.594-0.534,0.979-0.7c0.385-0.167,0.821-0.25,1.311-0.25
		c0.468,0,0.886,0.072,1.256,0.218c0.369,0.145,0.684,0.356,0.939,0.636c0.258,0.278,0.455,0.625,0.591,1.041
		C481.66,14.481,481.728,14.957,481.728,15.493z M480.574,15.545c0-0.402-0.045-0.754-0.133-1.054
		c-0.089-0.301-0.215-0.552-0.38-0.753c-0.164-0.201-0.364-0.353-0.601-0.454c-0.234-0.102-0.498-0.152-0.787-0.152
		c-0.338,0-0.626,0.066-0.866,0.198c-0.239,0.132-0.438,0.308-0.591,0.528c-0.152,0.221-0.267,0.477-0.336,0.769
		c-0.072,0.292-0.107,0.598-0.107,0.918c0,0.402,0.044,0.755,0.133,1.057c0.088,0.303,0.215,0.555,0.379,0.756
		s0.363,0.353,0.599,0.454c0.231,0.102,0.496,0.152,0.791,0.152c0.337,0,0.625-0.065,0.864-0.197
		c0.24-0.132,0.438-0.309,0.592-0.529c0.152-0.22,0.266-0.477,0.337-0.769S480.574,15.869,480.574,15.545z"/>
	<path d="M488.927,15.428c0,0.58-0.081,1.086-0.243,1.518c-0.162,0.433-0.386,0.792-0.671,1.077s-0.623,0.499-1.012,0.643
		c-0.391,0.143-0.812,0.214-1.267,0.214c-0.207,0-0.414-0.011-0.619-0.033c-0.205-0.021-0.414-0.058-0.625-0.109v2.724h-1.129
		v-9.171h1.005l0.071,1.09c0.324-0.445,0.67-0.758,1.038-0.938c0.367-0.18,0.765-0.27,1.193-0.27c0.371,0,0.697,0.078,0.979,0.233
		c0.281,0.156,0.518,0.375,0.707,0.658s0.332,0.625,0.428,1.025C488.882,14.488,488.927,14.936,488.927,15.428z M487.773,15.479
		c0-0.341-0.025-0.654-0.074-0.94c-0.051-0.285-0.129-0.529-0.236-0.732c-0.108-0.203-0.246-0.362-0.415-0.477
		c-0.168-0.115-0.369-0.172-0.604-0.172c-0.143,0-0.287,0.022-0.434,0.067c-0.147,0.046-0.301,0.121-0.458,0.228
		c-0.157,0.105-0.324,0.246-0.499,0.422c-0.176,0.175-0.362,0.392-0.562,0.651v3.159c0.207,0.086,0.427,0.154,0.654,0.204
		c0.229,0.05,0.454,0.074,0.675,0.074c0.609,0,1.087-0.206,1.434-0.619C487.6,16.932,487.773,16.311,487.773,15.479z"/>
	<path d="M495.9,18.801h-1.129v-2.88h-2.977v2.88h-1.129v-6.512h1.129v2.646h2.977v-2.646h1.129V18.801z"/>
	<path d="M499.189,12.289v4.585l2.84-4.585h1.077v6.512h-1.129v-4.586l-2.841,4.586h-1.076v-6.512H499.189z"/>
	<path d="M511.131,18.801h-1.551l-3.034-3.489v3.489h-1.13v-6.512h1.13v2.977l2.925-2.977h1.491l-3.056,3.003L511.131,18.801z"/>
</g>
<rect x="455.725" y="98.712" fill="none" stroke="#808184" stroke-width="2" stroke-miterlimit="10" width="352.973" height="14.847"/>
<line fill="none" stroke="#808184" stroke-width="2" stroke-miterlimit="10" x1="740.148" y1="26.826" x2="740.148" y2="197.166"/>
<line fill="none" stroke="#808184" stroke-width="2" stroke-miterlimit="10" x1="690.924" y1="26.826" x2="690.924" y2="197.166"/>
<line fill="none" stroke="#808184" stroke-width="2" stroke-miterlimit="10" x1="644.039" y1="26.826" x2="644.039" y2="197.166"/>
<line fill="none" stroke="#808184" stroke-width="2" stroke-miterlimit="10" x1="595.594" y1="26.826" x2="595.594" y2="197.166"/>
<line fill="none" stroke="#808184" stroke-width="2" stroke-miterlimit="10" x1="549.492" y1="26.826" x2="549.492" y2="197.166"/>
<line fill="none" stroke="#808184" stroke-width="2" stroke-miterlimit="10" x1="501.049" y1="26.826" x2="501.049" y2="197.166"/>
<rect x="455.728" y="147.939" fill="#FFFFFF" stroke="#58595B" stroke-width="3" stroke-miterlimit="10" width="284.421" height="29.69"/>
<rect x="595.594" y="45.579" fill="#FFFFFF" stroke="#58595B" stroke-width="3" stroke-miterlimit="10" width="47.664" height="18.753"/>
<rect x="644.82" y="45.579" fill="#FFFFFF" stroke="#58595B" stroke-width="3" stroke-miterlimit="10" width="46.104" height="18.753"/>
<rect x="740.148" y="45.579" fill="#FFFFFF" stroke="#58595B" stroke-width="3" stroke-miterlimit="10" width="47.924" height="18.753"/>
<rect x="455.728" y="72.146" fill="none" stroke="#58595B" stroke-width="3" stroke-miterlimit="10" width="45.319" height="10.939"/>
<rect x="501.828" y="99.754" fill="none" stroke="#58595B" stroke-width="3" stroke-miterlimit="10" width="48.445" height="13.543"/>
<rect x="643.26" y="72.146" fill="none" stroke="#58595B" stroke-width="3" stroke-miterlimit="10" width="48.442" height="10.939"/>
<rect x="501.049" y="128.286" fill="none" stroke="#58595B" stroke-width="3" stroke-miterlimit="10" width="48.443" height="9.614"/>
<rect x="740.148" y="128.286" fill="none" stroke="#58595B" stroke-width="3" stroke-miterlimit="10" width="48.445" height="9.614"/>
<rect x="427.207" y="31.514" fill="#929497" width="19.534" height="6.251"/>
<rect x="427.207" y="51.048" fill="#929497" width="19.534" height="6.251"/>
<rect x="464.715" y="51.83" fill="#929497" width="29.302" height="6.251"/>
<rect x="510.814" y="51.83" fill="#929497" width="29.302" height="6.251"/>
<rect x="510.814" y="104.107" fill="#929497" width="29.302" height="4.836"/>
<rect x="464.715" y="75.662" fill="#929497" width="29.302" height="3.907"/>
<rect x="652.243" y="75.662" fill="#929497" width="29.304" height="3.907"/>
<rect x="749.135" y="131.141" fill="#929497" width="29.302" height="3.906"/>
<rect x="511.596" y="131.141" fill="#929497" width="29.301" height="3.906"/>
<rect x="604.076" y="51.83" fill="#929497" width="30.295" height="6.251"/>
<rect x="651.464" y="51.83" fill="#929497" width="29.302" height="6.251"/>
<rect x="755.775" y="51.83" fill="#929497" width="20.707" height="6.251"/>
<rect x="427.207" y="65.113" fill="#929497" width="19.534" height="6.251"/>
<rect x="427.207" y="73.708" fill="#929497" width="19.534" height="6.251"/>
<rect x="427.207" y="83.085" fill="#929497" width="19.534" height="6.251"/>
<rect x="427.207" y="100.275" fill="#929497" width="19.534" height="6.25"/>
<rect x="527.5" y="157.316" fill="#929497" width="117.844" height="6.25"/>
<rect x="427.207" y="119.811" fill="#929497" width="19.534" height="6.25"/>
<rect x="427.207" y="129.186" fill="#929497" width="19.534" height="6.252"/>
<rect x="427.207" y="143.251" fill="#929497" width="19.534" height="6.251"/>
<rect x="427.207" y="157.316" fill="#929497" width="19.534" height="5.218"/>
<rect x="427.207" y="164.164" fill="#929497" width="19.534" height="5.218"/>
<rect x="427.207" y="171.012" fill="#929497" width="19.534" height="5.219"/>
<rect x="427.207" y="177.859" fill="#929497" width="19.534" height="5.219"/>
<rect x="427.207" y="184.709" fill="#929497" width="19.534" height="5.219"/>
<rect x="427.207" y="191.559" fill="#929497" width="19.534" height="5.217"/>
</svg>
