<svg xmlns="http://www.w3.org/2000/svg" viewBox="0 0 1022 337.2" enable-background="new 0 0 1022 337.2"><style type="text/css">.st0{fill:#E6E7E8;stroke:#8E8E8E;stroke-miterlimit:10;} .st1{fill:#EC1C24;} .st2{fill:#8E8E8E;stroke:#666666;stroke-width:1.0796;stroke-miterlimit:10;} .st3{fill:none;stroke:#666666;stroke-width:1.0796;stroke-miterlimit:10;} .st4{fill:none;stroke:#666666;stroke-width:1.082;stroke-miterlimit:10;} .st5{fill:none;stroke:#929497;stroke-width:1.7047;stroke-miterlimit:10;stroke-dasharray:10.8203;} .st6{fill:none;stroke:#EC1C24;stroke-width:3;stroke-miterlimit:10;stroke-dasharray:11;} .st7{fill:#666666;stroke:#8E8E8E;stroke-width:1.0012;stroke-miterlimit:10;} .st8{fill:none;} .st9{fill:#FFFFFF;}</style><path class="st0" d="M112.5 222.2h798v100h-798z"/><path class="st1" d="M532.3 269.8h-108.8l16.5-17.7-16.5-17.3h108.9l16.2 17.3z"/><path class="st2" d="M887.4 269.8h-81.7l-16.1-17.5 16.2-17.5h81.7l16.2 17.3z"/><path class="st1" d="M560.1 63.4h-98.1v-35.1h98.2l16.2 16.4z"/><path class="st2" d="M679.3 38.7h-81.7l-16.1-16.2 16.2-18.8h81.7l16.2 16.3z"/><path class="st1" d="M499.8 127h-98.1l16.5-17.7-16.5-17.3h98.2l16.2 17.3zm-200.5 144.2h-98.1v-35h98.2l16.3 16.3zm465-1.4h-108.8l16.5-17.7-16.5-17.3h108.9l16.3 17.3z"/><path class="st2" d="M679.3 77.8h-81.7l-16.1-16.2 16.2-18.8h81.7l16.2 16.3zm-61.6 49.2h-81.7l-16.1-17.5 16.2-17.5h81.7l16.2 17.3zm333.4 56.5h-81.7l-16.1-17.5 16.2-17.5h81.7l16.2 17.3zm-449 .3h-81.6l-16.2-17.4 16.2-17.5h81.7l16.2 17.2zm146 86h-81.7l-16.1-17.5 16.2-17.5h81.7l16.2 17.3zm-232.2 0h-81.6l-16.2-17.5 16.2-17.5h81.7l16.2 17.3z"/><path class="st1" d="M386 184h-98.1l16.6-17.7-16.6-17.3h98.2l16.2 17.3zm222.5 0h-98.1l16.5-17.7-16.5-17.3h98.2l16.2 17.3zm224.7 0h-98.1l16.5-17.7-16.5-17.3h98.2l16.2 17.3z"/><path class="st3" d="M695.6 59.1l255.6 89.4m-225.7 35.3l80.3 51"/><path class="st2" d="M725.5 183.8h-81.7l-16.1-17.4 16.2-17.5h81.7l16.2 17.2z"/><path class="st3" d="M462 63.4l-174.1 85.6"/><path class="st4" d="M510.4 184l-316.5 47.2"/><path class="st5" d="M136.6 205.6h829.8m-829.8-121.2h829.8m-829.8 248.8h829.8"/><path class="st6" d="M194.5 198.7v130m589-130v130"/><path class="st7" d="M126.8 234.1h58.5l-7.3 36.4h-58z"/><path class="st8" d="M467.3 38.5h103.8v14.8h-103.8z"/><path d="M474.7 48.1h-1.2l-.2-5.6-.1-2.1-.4 1.2-1.3 3.6h-.8l-1.3-3.4-.4-1.4v2.2l-.2 5.5h-1.1l.4-8.9h1.4l1.2 3.4.4 1.1.4-1.1 1.3-3.4h1.5l.4 8.9zm5.8 0v-.9c-.4.4-.8.6-1.1.8-.4.2-.8.2-1.2.2-.4 0-.7 0-1-.2s-.5-.2-.7-.4c-.2-.2-.3-.4-.4-.6-.1-.2-.1-.5-.1-.8 0-.7.3-1.2.8-1.6.5-.4 1.3-.6 2.3-.6h1.4v-.6c0-.4-.1-.7-.4-1s-.7-.4-1.2-.4c-.4 0-.8 0-1.1.1-.4.1-.8.2-1.2.4v-1.1c.1-.1.3-.1.5-.2s.4-.1.6-.1.4-.1.6-.1h.7c.4 0 .8 0 1.1.1s.6.2.8.4c.2.2.4.4.5.7s.2.6.2 1v4.7l-1.1.2zm-.1-3.1h-1.5c-.3 0-.6 0-.8.1s-.4.1-.5.3-.2.2-.3.4c-.1.2-.1.3-.1.5 0 .1 0 .3.1.4s.1.2.2.3.2.2.4.2.3.1.5.1c.3 0 .6-.1.9-.3.4-.2.7-.4 1.1-.8v-1.2zm9.6 3.1h-1.6l-3.2-3.7v3.7h-1.2v-6.9h1.2v3.1l3.1-3.1h1.6l-3.2 3.2 3.3 3.7zm7.4-3.5c0 .6-.1 1.1-.3 1.6-.2.5-.4.8-.7 1.1s-.7.5-1.1.7-.9.2-1.3.2h-.7s-.4-.1-.7-.1v2.9h-1.2v-9.7h1.1l.1 1.1c.3-.5.7-.8 1.1-1s.8-.3 1.3-.3c.4 0 .7.1 1 .2s.5.4.7.7.4.7.5 1.1.2 1 .2 1.5zm-1.3 0c0-.4 0-.7-.1-1-.1-.3-.1-.6-.2-.8s-.3-.4-.4-.5-.4-.2-.6-.2c-.1 0-.3 0-.5.1s-.3.1-.5.2l-.5.4c-.2.2-.4.4-.6.7v3.5c.2.1.4.2.7.2s.5.1.7.1c.6 0 1.1-.2 1.5-.7s.5-1.1.5-2zm9.1.1c0 .5-.1 1-.2 1.5s-.4.8-.6 1.1-.6.6-1 .7-.9.3-1.4.3c-.5 0-.9-.1-1.3-.2-.4-.2-.7-.4-1-.7s-.5-.7-.6-1.1c-.1-.4-.2-.9-.2-1.5 0-.5.1-1 .2-1.5s.4-.8.6-1.1.6-.6 1-.7.9-.3 1.4-.3c.5 0 .9.1 1.3.2.4.2.7.4 1 .7s.5.7.6 1.1c.1.4.2.9.2 1.5zm-1.3 0c0-.4 0-.8-.1-1.1-.1-.3-.2-.6-.4-.8s-.4-.4-.6-.5c-.2-.1-.5-.2-.8-.2-.4 0-.7.1-.9.2-.3.1-.5.3-.6.6-.2.2-.3.5-.4.8-.1.3-.1.6-.1 1s0 .8.1 1.1c.1.3.2.6.4.8s.4.4.6.5.5.2.8.2c.4 0 .7-.1.9-.2.3-.1.5-.3.6-.6.2-.2.3-.5.4-.8.1-.3.1-.6.1-1zm8.5 3.4h-1.2v-5.8h-3.1v5.8h-1.2v-6.9h5.5v6.9zm8-3.5c0 .6-.1 1.1-.3 1.6-.2.5-.4.8-.7 1.1s-.7.5-1.1.7-.9.2-1.3.2h-.7s-.4-.1-.7-.1v2.9h-1.2v-9.7h1.1l.1 1.1c.3-.5.7-.8 1.1-1s.8-.3 1.3-.3c.4 0 .7.1 1 .2s.5.4.7.7.4.7.5 1.1.2 1 .2 1.5zm-1.2 0c0-.4 0-.7-.1-1-.1-.3-.1-.6-.2-.8s-.3-.4-.4-.5-.4-.2-.6-.2c-.2 0-.3 0-.5.1s-.3.1-.5.2l-.5.4c-.2.2-.4.4-.6.7v3.5c.2.1.4.2.7.2s.5.1.7.1c.6 0 1.1-.2 1.5-.7s.5-1.1.5-2zm9.1.1c0 .5-.1 1-.2 1.5s-.4.8-.6 1.1-.6.6-1 .7-.9.3-1.4.3c-.5 0-.9-.1-1.3-.2-.4-.2-.7-.4-1-.7s-.5-.7-.6-1.1c-.1-.4-.2-.9-.2-1.5 0-.5.1-1 .2-1.5s.4-.8.6-1.1.6-.6 1-.7.9-.3 1.4-.3c.5 0 .9.1 1.3.2.4.2.7.4 1 .7s.5.7.6 1.1c.1.4.2.9.2 1.5zm-1.3 0c0-.4 0-.8-.1-1.1-.1-.3-.2-.6-.4-.8s-.4-.4-.6-.5c-.2-.1-.5-.2-.8-.2-.4 0-.7.1-.9.2-.3.1-.5.3-.6.6-.2.2-.3.5-.4.8-.1.3-.1.6-.1 1s0 .8.1 1.1c.1.3.2.6.4.8s.4.4.6.5.5.2.8.2c.4 0 .7-.1.9-.2.3-.1.5-.3.6-.6.2-.2.3-.5.4-.8.1-.3.1-.6.1-1zm9.3 2.4l-.1 2.8h-1.1v-1.8h-5.2v-6.9h1.2v5.8h3.1v-5.8h1.2v5.8c0 .1.9.1.9.1zm7.2-2.7v.7h-4.8c0 .7.2 1.2.6 1.6s1 .6 1.7.6h.6s.4 0 .6-.1.4-.1.5-.1l.5-.1v1c-.3.1-.7.2-1.1.2-.4.1-.8.1-1.3.1-.6 0-1.1-.1-1.5-.2s-.8-.4-1-.7-.5-.7-.6-1.1c-.1-.4-.2-.9-.2-1.5 0-.5.1-.9.2-1.4.1-.4.3-.8.6-1.1.3-.3.6-.6 1-.8s.8-.3 1.3-.3.9.1 1.3.2.7.4.9.6c.3.3.4.6.6 1 0 .4.1.9.1 1.4zm-1.3-.2c0-.3 0-.6-.1-.8s-.2-.5-.3-.7c-.2-.2-.3-.3-.6-.4s-.5-.2-.8-.2c-.3 0-.5 0-.7.2s-.4.2-.6.4-.3.4-.4.7-.2.5-.2.8h3.7zm8.5 3.7c-.3.1-.6.2-1 .3-.3.1-.7.1-1 .1-1.1 0-1.9-.3-2.5-.9-.6-.6-.9-1.4-.9-2.6 0-.5.1-1 .3-1.5s.4-.8.7-1.1.7-.6 1.1-.7.9-.3 1.4-.3c.4 0 .7 0 1 .1s.6.1.9.2v1.1c-.3-.2-.6-.3-.9-.3-.3-.1-.6-.1-1-.1-.3 0-.6.1-.9.2-.3.1-.5.3-.7.5s-.4.5-.5.8-.2.7-.2 1.1c0 .8.2 1.5.6 1.9.4.4 1 .6 1.7.6.3 0 .6 0 .9-.1l.9-.3v1zm7.7 0c-.3.1-.6.2-1 .3-.3.1-.7.1-1 .1-1.1 0-1.9-.3-2.5-.9-.6-.6-.9-1.4-.9-2.6 0-.5.1-1 .3-1.5s.4-.8.7-1.1.7-.6 1.1-.7.9-.3 1.4-.3c.4 0 .7 0 1 .1s.6.1.9.2v1.1c-.3-.2-.6-.3-.9-.3-.3-.1-.6-.1-1-.1-.3 0-.6.1-.9.2-.3.1-.5.3-.7.5s-.4.5-.5.8-.2.7-.2 1.1c0 .8.2 1.5.6 1.9.4.4 1 .6 1.7.6.3 0 .6 0 .9-.1l.9-.3v1z"/><path class="st8" d="M206.5 246.3h103.8v14.8h-103.8z"/><path d="M214.1 255l-.1 3h-1.1v-2h-5.1v1.9h-1.1l-.1-3h.1c.1 0 .3 0 .4-.1.1-.1.3-.2.4-.5.1-.2.3-.5.4-.9.1-.4.2-.9.3-1.5.1-.6.2-1.3.3-2.1s.1-1.8.2-2.8h4.3v7.9l1.1.1zm-2.2-6.9h-2c0 .9-.1 1.8-.1 2.6-.1.8-.2 1.4-.3 2-.1.6-.2 1.1-.4 1.4s-.3.6-.5.8h3.3v-6.8zm9.2 4.1v.7h-4.8c0 .7.2 1.2.6 1.6.4.4 1 .6 1.7.6h.6c.2 0 .4 0 .6-.1s.4-.1.5-.1l.5-.1v1c-.3.1-.7.2-1.1.2-.4.1-.8.1-1.3.1-.6 0-1.1-.1-1.5-.2s-.8-.4-1-.7c-.3-.3-.5-.7-.6-1.1-.1-.4-.2-.9-.2-1.5 0-.5.1-.9.2-1.4.1-.4.3-.8.6-1.1.3-.3.6-.6 1-.8s.8-.3 1.3-.3.9.1 1.3.2.7.4.9.6c.3.3.4.6.6 1 .1.5.1.9.1 1.4zm-1.2-.2c0-.3 0-.6-.1-.8-.1-.3-.2-.5-.3-.7-.2-.2-.3-.3-.6-.4-.2-.1-.5-.2-.8-.2-.3 0-.5.1-.7.1s-.4.2-.6.4-.3.4-.4.7-.2.5-.2.8l3.7.1zm3.6 2c.1-.3.3-.6.5-.7.2-.2.4-.3.7-.3-.3-.1-.5-.1-.7-.3l-.4-.4c-.1-.2-.2-.3-.2-.5s-.1-.4-.1-.5c0-.3.1-.6.1-.8s.3-.5.5-.7.5-.4.9-.5c.4-.1.9-.2 1.6-.2h1.1l1.1.1v6.8h-1.2v-2.7h-1.5c-.2 0-.3.1-.5.2l-.4.3c-.1.1-.2.3-.3.5l-.8 1.7h-1.3l.9-2zm.9-2.8c0 .4.1.7.4.9.3.2.7.3 1.2.3h1.3v-2.3h-1.2c-.4 0-.7 0-.9.1-.2.1-.4.1-.5.2-.1.1-.2.2-.3.4v.4zm12.3-1h-2.6v5.8h-1.2v-5.8h-2.6v-1h6.4v1zm7.5 2v.7h-4.8c0 .7.2 1.2.6 1.6.4.4 1 .6 1.7.6h.6c.2 0 .4 0 .6-.1s.4-.1.5-.1l.5-.1v1c-.3.1-.7.2-1.1.2-.4.1-.8.1-1.3.1-.6 0-1.1-.1-1.5-.2s-.8-.4-1-.7c-.3-.3-.5-.7-.6-1.1-.1-.4-.2-.9-.2-1.5 0-.5.1-.9.2-1.4.1-.4.3-.8.6-1.1.3-.3.6-.6 1-.8s.8-.3 1.3-.3.9.1 1.3.2.7.4.9.6c.3.3.4.6.6 1 .1.5.1.9.1 1.4zm-1.2-.2c0-.3 0-.6-.1-.8-.1-.3-.2-.5-.3-.7-.2-.2-.3-.3-.6-.4-.2-.1-.5-.2-.8-.2-.3 0-.5.1-.7.1s-.4.2-.6.4-.3.4-.4.7-.2.5-.2.8l3.7.1zm8.6 4h-1.2v-5.8h-1.9c-.1.9-.1 1.7-.2 2.4s-.2 1.2-.4 1.7c-.1.4-.3.8-.5 1.1-.2.3-.4.4-.6.6-.2.1-.5.2-.7.2-.2 0-.5 0-.8-.1l.1-1h.5s.3-.1.4-.3c.1-.1.3-.3.4-.6.1-.3.2-.6.3-1s.2-1 .2-1.6c.1-.6.1-1.4.2-2.3h4.2v6.7zm3.5-4.3h1.4c1.1 0 1.8.2 2.4.5.5.4.8.9.8 1.6 0 .7-.3 1.3-.8 1.7-.5.4-1.4.6-2.5.6h-1.4l-1.2-.1v-6.8h1.2v2.5zm3.3 2.2c0-.2 0-.4-.1-.5l-.3-.4c-.2-.1-.4-.2-.6-.2s-.5-.1-.9-.1h-1.4v2.3c.2 0 .5 0 .7.1h.7c.4 0 .7 0 1-.1.3 0 .5-.1.6-.2.2-.1.3-.2.3-.4v-.5zm8.6 2.1h-1.2v-3h-3.1v3h-1.2v-6.9h1.2v2.8h3.1v-2.8h1.2v6.9zm8.2-3.5c0 .5-.1 1-.2 1.5-.1.4-.4.8-.6 1.1-.3.3-.6.6-1 .7-.4.2-.9.3-1.4.3-.5 0-.9-.1-1.3-.2-.4-.2-.7-.4-1-.7-.3-.3-.5-.7-.6-1.1-.1-.4-.2-.9-.2-1.5 0-.5.1-1 .2-1.5.1-.4.4-.8.6-1.1.3-.3.6-.6 1-.7.4-.2.9-.3 1.4-.3.5 0 .9.1 1.3.2.4.2.7.4 1 .7.3.3.5.7.6 1.1.1.4.2.9.2 1.5zm-1.2.1c0-.4 0-.8-.1-1.1-.1-.3-.2-.6-.4-.8-.2-.2-.4-.4-.6-.5-.2-.1-.5-.2-.8-.2-.4 0-.7.1-.9.2-.3.1-.5.3-.6.6-.2.2-.3.5-.4.8-.1.3-.1.6-.1 1s0 .8.1 1.1c.1.3.2.6.4.8.2.2.4.4.6.5.2.1.5.2.8.2.4 0 .7-.1.9-.2.3-.1.5-.3.6-.6.2-.2.3-.5.4-.8 0-.4.1-.7.1-1zm8.2 3.1c-.3.1-.6.2-1 .3-.3.1-.7.1-1 .1-1.1 0-1.9-.3-2.5-.9-.6-.6-.9-1.4-.9-2.6 0-.5.1-1 .3-1.5s.4-.8.7-1.1.7-.6 1.1-.7c.4-.2.9-.3 1.4-.3.4 0 .7 0 1 .1s.6.1.9.2v1.1c-.3-.2-.6-.3-.9-.3-.3-.1-.6-.1-1-.1-.3 0-.6.1-.9.2-.3.1-.5.3-.7.5s-.4.5-.5.8-.2.7-.2 1.1c0 .8.2 1.4.6 1.9.4.4 1 .6 1.7.6.3 0 .6 0 .9-.1l.9-.3v1zm8.4-5.5h-2.6v5.8h-1.2v-5.8h-2.6v-1h6.4v1zm2.9 1.5h1.4c1.1 0 1.8.2 2.4.5.5.4.8.9.8 1.6 0 .7-.3 1.3-.8 1.7-.5.4-1.4.6-2.5.6h-1.4l-1.2-.1v-6.8h1.2v2.5zm3.4 2.2c0-.2 0-.4-.1-.5l-.3-.4c-.2-.1-.4-.2-.6-.2s-.5-.1-.9-.1h-1.4v2.3c.2 0 .5 0 .7.1h.7c.4 0 .7 0 1-.1.3 0 .5-.1.6-.2.2-.1.3-.2.3-.4v-.5z"/><path class="st8" d="M441.9 246.3h103.8v14.8h-103.8z"/><path d="M449.4 255l-.1 3h-1.1v-2h-5.1v1.9h-1.1l-.1-3h.1c.1 0 .3 0 .4-.1.1-.1.3-.2.4-.5.1-.2.3-.5.4-.9.1-.4.2-.9.3-1.5.1-.6.2-1.3.3-2.1s.1-1.8.2-2.8h4.3v7.9l1.1.1zm-2.2-6.9h-2c0 .9-.1 1.8-.1 2.6-.1.8-.2 1.4-.3 2-.1.6-.2 1.1-.4 1.4s-.3.6-.5.8h3.3v-6.8zm9.3 4.1v.7h-4.8c0 .7.2 1.2.6 1.6.4.4 1 .6 1.7.6h.6c.2 0 .4 0 .6-.1s.4-.1.5-.1l.5-.1v1c-.3.1-.7.2-1.1.2-.4.1-.8.1-1.3.1-.6 0-1.1-.1-1.5-.2s-.8-.4-1-.7-.5-.7-.6-1.1c-.1-.4-.2-.9-.2-1.5 0-.5.1-.9.2-1.4.1-.4.3-.8.6-1.1.3-.3.6-.6 1-.8s.8-.3 1.3-.3.9.1 1.3.2.7.4.9.6c.3.3.4.6.6 1l.1 1.4zm-1.2-.2c0-.3 0-.6-.1-.8-.1-.3-.2-.5-.3-.7-.2-.2-.3-.3-.6-.4-.2-.1-.5-.2-.8-.2-.3 0-.5.1-.7.1s-.4.2-.6.4-.3.4-.4.7-.2.5-.2.8l3.7.1zm3.5 2c.1-.3.3-.6.5-.7.2-.2.4-.3.7-.3-.3-.1-.5-.1-.7-.3l-.4-.4c-.1-.2-.2-.3-.2-.5s-.1-.4-.1-.5c0-.3 0-.6.1-.8s.3-.5.5-.7.5-.4.9-.5c.4-.1.9-.2 1.6-.2h1.1l1.1.1v6.8h-1.2v-2.7h-1.5c-.2 0-.3.1-.5.2l-.4.3c-.1.1-.2.3-.3.5l-.8 1.7h-1.3l.9-2zm1-2.8c0 .4.1.7.4.9.3.2.7.3 1.2.3h1.3v-2.3h-1.2c-.4 0-.7 0-.9.1-.2.1-.4.1-.5.2-.1.1-.2.2-.3.4v.4zm12.3-1h-2.6v5.8h-1.2v-5.8h-2.6v-1h6.4v1zm7.5 2v.7h-4.8c0 .7.2 1.2.6 1.6.4.4 1 .6 1.7.6h.6c.2 0 .4 0 .6-.1s.4-.1.5-.1l.5-.1v1c-.3.1-.7.2-1.1.2-.4.1-.8.1-1.3.1-.6 0-1.1-.1-1.5-.2s-.8-.4-1-.7-.5-.7-.6-1.1c-.1-.4-.2-.9-.2-1.5 0-.5.1-.9.2-1.4.1-.4.3-.8.6-1.1.3-.3.6-.6 1-.8s.8-.3 1.3-.3.9.1 1.3.2.7.4.9.6c.3.3.4.6.6 1l.1 1.4zm-1.2-.2c0-.3 0-.6-.1-.8-.1-.3-.2-.5-.3-.7-.2-.2-.3-.3-.6-.4-.2-.1-.5-.2-.8-.2-.3 0-.5.1-.7.1s-.4.2-.6.4-.3.4-.4.7-.2.5-.2.8l3.7.1zm8.6 4h-1.2v-5.8h-1.9c-.1.9-.1 1.7-.2 2.4s-.2 1.2-.4 1.7c-.1.4-.3.8-.5 1.1-.2.3-.4.4-.6.6-.2.1-.5.2-.7.2-.2 0-.5 0-.8-.1l.1-1h.5s.3-.1.4-.3c.1-.1.3-.3.4-.6.1-.3.2-.6.3-1s.2-1 .2-1.6c.1-.6.1-1.4.2-2.3h4.2v6.7zm3.4-4.3h1.4c1.1 0 1.8.2 2.4.5.5.4.8.9.8 1.6 0 .7-.3 1.3-.8 1.7-.5.4-1.4.6-2.5.6h-1.4l-1.2-.1v-6.8h1.2l.1 2.5zm3.4 2.2c0-.2 0-.4-.1-.5l-.3-.4c-.2-.1-.4-.2-.6-.2s-.5-.1-.9-.1h-1.4v2.3c.2 0 .5 0 .7.1h.7c.4 0 .7 0 1-.1.3 0 .5-.1.6-.2.2-.1.3-.2.3-.4v-.5zm8.6 2.1h-1.2v-3h-3.1v3h-1.2v-6.9h1.2v2.8h3.1v-2.8h1.2v6.9zm8.2-3.5c0 .5-.1 1-.2 1.5-.1.4-.4.8-.6 1.1-.3.3-.6.6-1 .7-.4.2-.9.3-1.4.3-.5 0-.9-.1-1.3-.2-.4-.2-.7-.4-1-.7-.3-.3-.5-.7-.6-1.1-.1-.4-.2-.9-.2-1.5 0-.5.1-1 .2-1.5.1-.4.4-.8.6-1.1.3-.3.6-.6 1-.7.4-.2.9-.3 1.4-.3.5 0 .9.1 1.3.2.4.2.7.4 1 .7.3.3.5.7.6 1.1.1.4.2.9.2 1.5zm-1.3.1c0-.4 0-.8-.1-1.1-.1-.3-.2-.6-.4-.8-.2-.2-.4-.4-.6-.5-.2-.1-.5-.2-.8-.2-.4 0-.7.1-.9.2-.3.1-.5.3-.6.6-.2.2-.3.5-.4.8-.1.3-.1.6-.1 1s0 .8.1 1.1c.1.3.2.6.4.8.2.2.4.4.6.5.2.1.5.2.8.2.4 0 .7-.1.9-.2.3-.1.5-.3.6-.6.2-.2.3-.5.4-.8.1-.4.1-.7.1-1zm8.3 3.1c-.3.1-.6.2-1 .3-.3.1-.7.1-1 .1-1.1 0-1.9-.3-2.5-.9-.6-.6-.9-1.4-.9-2.6 0-.5.1-1 .3-1.5s.4-.8.7-1.1.7-.6 1.1-.7c.4-.2.9-.3 1.4-.3.4 0 .7 0 1 .1s.6.1.9.2v1.1c-.3-.2-.6-.3-.9-.3-.3-.1-.6-.1-1-.1-.3 0-.6.1-.9.2-.3.1-.5.3-.7.5s-.4.5-.5.8-.2.7-.2 1.1c0 .8.2 1.4.6 1.9.4.4 1 .6 1.7.6.3 0 .6 0 .9-.1l.9-.3v1zm8.3-5.5h-2.6v5.8h-1.2v-5.8h-2.6v-1h6.4v1zm3 1.5h1.4c1.1 0 1.8.2 2.4.5.5.4.8.9.8 1.6 0 .7-.3 1.3-.8 1.7-.5.4-1.4.6-2.5.6h-1.3l-1.2-.1v-6.8h1.2v2.5zm3.4 2.2c0-.2 0-.4-.1-.5l-.3-.4c-.2-.1-.4-.2-.6-.2s-.5-.1-.9-.1h-1.4v2.3c.2 0 .5 0 .7.1h.7c.4 0 .7 0 1-.1.3 0 .5-.1.6-.2.2-.1.3-.2.3-.4v-.5z"/><path class="st8" d="M673.1 246.3h103.8v14.8h-103.8z"/><path d="M680.6 255l-.1 3h-1.1v-2h-5.1v1.9h-1.1l-.1-3h.1c.2 0 .3 0 .4-.1.1-.1.3-.2.4-.5.1-.2.3-.5.4-.9.1-.4.2-.9.3-1.5.1-.6.2-1.3.3-2.1s.1-1.8.2-2.8h4.3v7.9l1.1.1zm-2.2-6.9h-2c0 .9-.1 1.8-.1 2.6-.1.8-.2 1.4-.3 2-.1.6-.2 1.1-.4 1.4s-.3.6-.5.8h3.3v-6.8zm9.3 4.1v.7h-4.8c0 .7.2 1.2.6 1.6.4.4 1 .6 1.7.6h.6c.2 0 .4 0 .6-.1s.4-.1.5-.1l.5-.1v1c-.3.1-.7.2-1.1.2-.4.1-.8.1-1.3.1-.6 0-1.1-.1-1.5-.2s-.8-.4-1-.7c-.3-.3-.5-.7-.6-1.1-.1-.4-.2-.9-.2-1.5 0-.5.1-.9.2-1.4.1-.4.3-.8.6-1.1.3-.3.6-.6 1-.8s.8-.3 1.3-.3.9.1 1.3.2.7.4.9.6c.3.3.4.6.6 1 .1.5.1.9.1 1.4zm-1.2-.2c0-.3 0-.6-.1-.8-.1-.3-.2-.5-.3-.7-.2-.2-.3-.3-.6-.4-.2-.1-.5-.2-.8-.2-.3 0-.5.1-.7.1s-.4.2-.6.4-.3.4-.4.7-.2.5-.2.8l3.7.1zm3.6 2c.2-.3.3-.6.5-.7.2-.2.4-.3.7-.3-.3-.1-.5-.1-.7-.3l-.4-.4c-.1-.2-.2-.3-.2-.5s-.1-.4-.1-.5c0-.3 0-.6.2-.8s.3-.5.5-.7.5-.4.9-.5c.4-.1.9-.2 1.6-.2h1.1l1.1.1v6.8h-1.2v-2.7h-1.5c-.2 0-.3.1-.5.2l-.4.3c-.1.1-.2.3-.3.5l-.8 1.7h-1.3l.8-2zm.9-2.8c0 .4.1.7.4.9.3.2.7.3 1.2.3h1.3v-2.3h-1.2c-.4 0-.7 0-.9.1-.2.1-.4.1-.5.2-.1.1-.2.2-.3.4v.4zm12.3-1h-2.6v5.8h-1.2v-5.8h-2.6v-1h6.4v1zm7.5 2v.7h-4.8c0 .7.2 1.2.6 1.6.4.4 1 .6 1.7.6h.6c.2 0 .4 0 .6-.1s.4-.1.5-.1l.5-.1v1c-.3.1-.7.2-1.1.2-.4.1-.8.1-1.3.1-.6 0-1.1-.1-1.5-.2s-.8-.4-1-.7c-.3-.3-.5-.7-.6-1.1-.1-.4-.2-.9-.2-1.5 0-.5.1-.9.2-1.4.1-.4.3-.8.6-1.1.3-.3.6-.6 1-.8s.8-.3 1.3-.3.9.1 1.3.2.7.4.9.6c.3.3.4.6.6 1 .1.5.1.9.1 1.4zm-1.2-.2c0-.3 0-.6-.1-.8-.1-.3-.2-.5-.3-.7-.2-.2-.3-.3-.6-.4-.2-.1-.5-.2-.8-.2-.3 0-.5.1-.7.1s-.4.2-.6.4-.3.4-.4.7-.2.5-.2.8l3.7.1zm8.6 4h-1.2v-5.8h-1.9c-.1.9-.1 1.7-.2 2.4s-.2 1.2-.4 1.7c-.2.4-.3.8-.5 1.1-.2.3-.4.4-.6.6-.2.1-.5.2-.7.2-.2 0-.5 0-.8-.1l.1-1h.5s.3-.1.4-.3c.1-.1.3-.3.4-.6.1-.3.2-.6.3-1s.2-1 .2-1.6c.1-.6.1-1.4.2-2.3h4.2v6.7zm3.5-4.3h1.4c1.1 0 1.8.2 2.4.5.5.4.8.9.8 1.6 0 .7-.3 1.3-.8 1.7-.5.4-1.4.6-2.5.6h-1.4l-1.2-.1v-6.8h1.2l.1 2.5zm3.3 2.2c0-.2 0-.4-.1-.5l-.3-.4c-.2-.1-.4-.2-.6-.2s-.5-.1-.9-.1h-1.4v2.3c.2 0 .5 0 .7.1h.7c.4 0 .7 0 1-.1.3 0 .5-.1.6-.2.2-.1.3-.2.3-.4v-.5zm8.6 2.1h-1.2v-3h-3.1v3h-1.2v-6.9h1.2v2.8h3.1v-2.8h1.2v6.9zm8.2-3.5c0 .5-.1 1-.2 1.5-.2.4-.4.8-.6 1.1s-.6.6-1 .7c-.4.2-.9.3-1.4.3-.5 0-.9-.1-1.3-.2-.4-.2-.7-.4-1-.7-.3-.3-.5-.7-.6-1.1-.1-.4-.2-.9-.2-1.5 0-.5.1-1 .2-1.5.2-.4.4-.8.6-1.1s.6-.6 1-.7c.4-.2.9-.3 1.4-.3.5 0 .9.1 1.3.2.4.2.7.4 1 .7.3.3.5.7.6 1.1.1.4.2.9.2 1.5zm-1.2.1c0-.4 0-.8-.1-1.1-.1-.3-.2-.6-.4-.8-.2-.2-.4-.4-.6-.5-.2-.1-.5-.2-.8-.2-.4 0-.7.1-.9.2-.3.1-.5.3-.6.6-.2.2-.3.5-.4.8-.1.3-.1.6-.1 1s0 .8.1 1.1c.1.3.2.6.4.8.2.2.4.4.6.5.2.1.5.2.8.2.4 0 .7-.1.9-.2.3-.1.5-.3.6-.6.2-.2.3-.5.4-.8 0-.4.1-.7.1-1zm8.2 3.1c-.3.1-.6.2-1 .3-.3.1-.7.1-1 .1-1.1 0-1.9-.3-2.5-.9-.6-.6-.9-1.4-.9-2.6 0-.5.1-1 .3-1.5s.4-.8.7-1.1.7-.6 1.1-.7c.4-.2.9-.3 1.4-.3.4 0 .7 0 1 .1s.6.1.9.2v1.1c-.3-.2-.6-.3-.9-.3-.3-.1-.6-.1-1-.1-.3 0-.6.1-.9.2-.3.1-.5.3-.7.5s-.4.5-.5.8-.2.7-.2 1.1c0 .8.2 1.4.6 1.9.4.4 1 .6 1.7.6.3 0 .6 0 .9-.1l.9-.3v1zm8.4-5.5h-2.6v5.8h-1.2v-5.8h-2.6v-1h6.4v1zm2.9 1.5h1.4c1.1 0 1.8.2 2.4.5.5.4.8.9.8 1.6 0 .7-.3 1.3-.8 1.7-.5.4-1.4.6-2.5.6h-1.4l-1.2-.1v-6.8h1.2l.1 2.5zm3.4 2.2c0-.2 0-.4-.1-.5l-.3-.4c-.2-.1-.4-.2-.6-.2s-.5-.1-.9-.1h-1.4v2.3c.2 0 .5 0 .7.1h.7c.4 0 .7 0 1-.1.3 0 .5-.1.6-.2.2-.1.3-.2.3-.4v-.5z"/><path class="st8" d="M597.6 8.7h78.6v25h-78.6z"/><path d="M613.3 18.3h-1.5l-3.3-4.4v4.4h-1.2v-8.9h1.2v4.1l3.3-4.1h1.4l-3.5 4.2 3.6 4.7zm7.6-3.5c0 .5-.1 1-.2 1.5-.2.4-.4.8-.6 1.1s-.6.6-1 .7-.9.3-1.4.3c-.5 0-.9-.1-1.3-.2-.4-.2-.7-.4-1-.7-.3-.3-.5-.7-.6-1.1-.1-.4-.2-.9-.2-1.5 0-.5.1-1 .2-1.5s.4-.8.6-1.1.6-.6 1-.7.9-.3 1.4-.3c.5 0 .9.1 1.3.2.4.2.7.4 1 .7.3.3.5.7.6 1.1.1.5.2 1 .2 1.5zm-1.2.1c0-.4 0-.8-.1-1.1-.1-.3-.2-.6-.4-.8s-.4-.4-.6-.5c-.2-.1-.5-.2-.8-.2-.4 0-.7.1-.9.2-.3.1-.5.3-.6.6-.2.2-.3.5-.4.8-.1.3-.1.6-.1 1s0 .8.1 1.1c.1.3.2.6.4.8s.4.4.6.5.5.2.8.2c.4 0 .7-.1.9-.2.3-.1.5-.3.6-.6.2-.2.3-.5.4-.8l.1-1zm8.4 3.4h-1.2v-3h-3.1v3h-1.2v-6.9h1.2v2.8h3.1v-2.8h1.2v6.9zm8-3.8v.7h-4.8c0 .7.2 1.2.6 1.6s1 .6 1.7.6h.6s.4 0 .6-.1.4-.1.5-.1l.5-.1v1c-.3.1-.7.2-1.1.2-.4.1-.8.1-1.3.1-.6 0-1.1-.1-1.5-.2s-.8-.4-1-.7c-.3-.3-.5-.7-.6-1.1-.1-.4-.2-.9-.2-1.5 0-.5.1-.9.2-1.4.1-.4.3-.8.6-1.1.3-.3.6-.6 1-.8s.8-.3 1.3-.3.9.1 1.3.2.7.4.9.6c.3.3.4.6.6 1l.1 1.4zm-1.2-.1c0-.3 0-.6-.1-.8s-.2-.5-.3-.7c-.2-.2-.3-.3-.6-.4s-.5-.2-.8-.2c-.3 0-.5.1-.7.1s-.4.2-.6.4-.3.4-.4.7-.2.5-.2.8c0 .1 3.7.1 3.7.1zm7.4 1.3h-1.4c-1.1 0-1.8-.2-2.3-.6s-.7-1-.7-1.7v-1.9h1.2v1.7c0 .3 0 .5.1.7s.2.3.4.5l.6.3c.3.1.6.1.9.1h1.3v-3.2h1.2v6.9h-1.2v-2.8zm8.9 2.6h-1.2v-3h-3.1v3h-1.2v-6.9h1.2v2.8h3.1v-2.8h1.2v6.9zm2.8-4.2h.9c.4 0 .8.1 1.1.2.3.1.6.2.8.4s.4.4.5.7.2.5.2.8c0 .4-.1.7-.2 1s-.3.5-.5.7-.5.3-.8.4c-.3.1-.7.1-1.2.1h-.9c-.3 0-.7 0-1-.1v-6.8h1.2v2.6zm2.3 2.1c0-.4-.1-.6-.3-.8-.2-.2-.6-.3-1.1-.3h-.8v2.3h.8c.3 0 .5 0 .7-.1s.3-.2.4-.3c.1-.1.2-.2.2-.4.1-.1.1-.2.1-.4zm2 2.1v-6.9h1.2v6.9h-1.2zm4.1-6.8v4.8l3-4.8h1.1v6.9h-1.2v-4.8l-3 4.8h-1.1v-6.9h1.2zm3.5-2.7c0 .3-.1.5-.2.7-.1.2-.2.4-.4.5-.2.1-.4.3-.7.3s-.5.1-.9.1-.7 0-.9-.1-.5-.2-.6-.3c-.2-.1-.3-.3-.4-.5s-.1-.4-.1-.7h1.1v.4s.1.2.2.3c.1.1.2.2.3.2s.3.1.5.1.4 0 .5-.1l.3-.2s.1-.2.2-.3v-.4h1.1zm-49.3 21.4h-1.2v-5.8h-3.1v5.8h-1.2v-6.9h5.5v6.9zm8-3.5c0 .6-.1 1.1-.3 1.6-.2.5-.4.8-.7 1.1s-.7.5-1.1.7-.9.2-1.3.2h-.7s-.4-.1-.7-.1v2.8h-1.2v-9.7h1.1l.1 1.1c.3-.5.7-.8 1.1-1s.8-.3 1.3-.3c.4 0 .7.1 1 .2s.5.4.7.7.4.7.5 1.1.2 1 .2 1.6zm-1.2 0c0-.4 0-.7-.1-1-.1-.3-.1-.6-.2-.8s-.3-.4-.4-.5-.4-.2-.6-.2c-.2 0-.3 0-.5.1s-.3.1-.5.2l-.5.4c-.2.2-.4.4-.6.7v3.4c.2.1.4.2.7.2s.5.1.7.1c.6 0 1.1-.2 1.5-.7s.5-1 .5-1.9zm9 0c0 .5-.1 1-.2 1.5s-.4.8-.6 1.1-.6.6-1 .7-.9.3-1.4.3c-.5 0-.9-.1-1.3-.2-.4-.2-.7-.4-1-.7s-.5-.7-.6-1.1c-.1-.4-.2-.9-.2-1.5 0-.5.1-1 .2-1.5s.4-.8.6-1.1.6-.6 1-.7.9-.3 1.4-.3c.5 0 .9.1 1.3.2.4.2.7.4 1 .7s.5.7.6 1.1c.2.5.2 1 .2 1.5zm-1.2.1c0-.4 0-.8-.1-1.1-.1-.3-.2-.6-.4-.8s-.4-.4-.6-.5c-.2-.1-.5-.2-.8-.2-.4 0-.7.1-.9.2-.3.1-.5.3-.6.6-.2.2-.3.5-.4.8-.1.3-.1.6-.1 1s0 .8.1 1.1c.1.3.2.6.4.8s.4.4.6.5.5.2.8.2c.4 0 .7-.1.9-.2.3-.1.5-.3.6-.6.2-.2.3-.5.4-.8.1-.3.1-.7.1-1zm9.3 2.4l-.1 2.8h-1.1v-1.8h-5v1.8h-1.1l-.1-2.8h.1c.2 0 .3 0 .5-.1s.3-.2.4-.3.3-.4.4-.6c.1-.3.2-.6.3-1.1.1-.4.2-1 .2-1.6.1-.6.1-1.3.2-2.2h4.2v5.8l1.1.1zm-2.2-4.8h-1.9c0 .8-.1 1.5-.2 2s-.2 1-.3 1.4c-.1.4-.2.7-.3.9s-.3.4-.4.5h3.1v-4.8zm9.6-1l-2.3 6.1c-.2.6-.5 1.2-.7 1.6-.3.5-.5.8-.8 1.1-.3.3-.6.5-1 .6s-.8.2-1.2.2h-.6v-1h.7c.2 0 .4 0 .6-.1.2-.1.4-.2.5-.3s.3-.3.5-.6.3-.5.5-.8l-2.7-6.9h1.4l1.7 4.5.3 1.1.4-1.1 1.6-4.5 1.1.1zm7.8 6.8h-1.6l-3.2-3.7v3.7h-1.2v-6.9h1.2v3.1l3.1-3.1h1.6l-3.2 3.2 3.3 3.7zm7.5-5.8h-2.6v5.8h-1.2v-5.8h-2.6v-1h6.4v1z"/><path class="st8" d="M597.6 47.8h78.6v25h-78.6z"/><path d="M613.3 57.4h-1.5l-3.3-4.4v4.4h-1.2v-8.9h1.2v4.1l3.3-4.1h1.4l-3.5 4.2 3.6 4.7zm7.6-3.5c0 .5-.1 1-.2 1.5s-.4.8-.6 1.1-.6.6-1 .7-.9.3-1.4.3c-.5 0-.9-.1-1.3-.2-.4-.2-.7-.4-1-.7-.3-.3-.5-.7-.6-1.1-.1-.4-.2-.9-.2-1.5 0-.5.1-1 .2-1.5s.4-.8.6-1.1.6-.6 1-.7.9-.3 1.4-.3c.5 0 .9.1 1.3.2.4.2.7.4 1 .7.3.3.5.7.6 1.1.1.5.2 1 .2 1.5zm-1.2.1c0-.4 0-.8-.1-1.1-.1-.3-.2-.6-.4-.8s-.4-.4-.6-.5c-.2-.1-.5-.2-.8-.2-.4 0-.7.1-.9.2-.3.1-.5.3-.6.6-.2.2-.3.5-.4.8-.1.3-.1.6-.1 1s0 .8.1 1.1c.1.3.2.6.4.8s.4.4.6.5.5.2.8.2c.4 0 .7-.1.9-.2.3-.1.5-.3.6-.6.2-.2.3-.5.4-.8l.1-1zm8.4 3.4h-1.2v-3h-3.1v3h-1.2v-6.9h1.2v2.8h3.1v-2.8h1.2v6.9zm8-3.8v.7h-4.8c0 .7.2 1.2.6 1.6s1 .6 1.7.6h.6s.4 0 .6-.1.4-.1.5-.1l.5-.1v1c-.3.1-.7.2-1.1.2-.4.1-.8.1-1.3.1-.6 0-1.1-.1-1.5-.2s-.8-.4-1-.7c-.3-.3-.5-.7-.6-1.1-.1-.4-.2-.9-.2-1.5 0-.5.1-.9.2-1.4.1-.4.3-.8.6-1.1.3-.3.6-.6 1-.8s.8-.3 1.3-.3.9.1 1.3.2.7.4.9.6c.3.3.4.6.6 1 0 .5.1 1 .1 1.4zm-1.2-.1c0-.3 0-.6-.1-.8s-.2-.5-.3-.7c-.2-.2-.3-.3-.6-.4s-.5-.2-.8-.2c-.3 0-.5 0-.7.2s-.4.2-.6.4-.3.4-.4.7-.2.5-.2.8h3.7zm7.4 1.3h-1.4c-1.1 0-1.8-.2-2.3-.6s-.7-1-.7-1.7v-1.9h1.2v1.7c0 .3 0 .5.1.7s.2.3.4.5l.6.3.9.1h1.3v-3.2h1.2v6.9h-1.2v-2.8zm8.9 2.6h-1.2v-3h-3.1v3h-1.2v-6.9h1.2v2.8h3.1v-2.8h1.2v6.9zm2.8-4.2h.9c.4 0 .8.1 1.1.2.3.1.6.2.8.4s.4.4.5.7.2.5.2.8c0 .4-.1.7-.2 1s-.3.5-.5.7-.5.3-.8.4c-.3.1-.7.1-1.2.1h-.9c-.3 0-.7 0-1-.1v-6.8h1.2v2.6zm2.3 2.1c0-.4-.1-.6-.3-.8-.2-.2-.6-.3-1.1-.3h-.8v2.3h.8c.3 0 .5 0 .7-.1s.3-.2.4-.3.2-.2.2-.4c.1-.1.1-.2.1-.4zm2 2.1v-6.9h1.2v6.9h-1.2zm4.1-6.8v4.8l3-4.8h1.1v6.9h-1.2v-4.8l-3 4.8h-1.1v-6.9h1.2zm3.5-2.7c0 .3-.1.5-.2.7-.1.2-.2.4-.4.5-.2.1-.4.3-.7.3s-.5.1-.9.1-.7 0-.9-.1-.5-.2-.6-.3c-.2-.1-.3-.3-.4-.5s-.1-.4-.1-.7h1.1v.4s.1.2.2.3c.1.1.2.2.3.2s.3.1.5.1.4 0 .5-.1c.1 0 .2-.1.3-.2s.1-.2.2-.3v-.4h1.1zm-49.3 21.4h-1.2v-5.8h-3.1v5.8h-1.2v-6.9h5.5v6.9zm8-3.5c0 .6-.1 1.1-.3 1.6-.2.5-.4.8-.7 1.1s-.7.5-1.1.7-.9.2-1.3.2h-.7c-.2 0-.4-.1-.7-.1v2.9h-1.2v-9.7h1.1l.1 1.1c.3-.5.7-.8 1.1-1s.8-.3 1.3-.3c.4 0 .7.1 1 .2s.5.4.7.7.4.7.5 1.1.2 1 .2 1.5zm-1.2 0c0-.4 0-.7-.1-1-.1-.3-.1-.6-.2-.8s-.3-.4-.4-.5-.4-.2-.6-.2c-.2 0-.3 0-.5.1s-.3.1-.5.2l-.5.4c-.2.2-.4.4-.6.7v3.3c.2.1.4.2.7.2s.5.1.7.1c.6 0 1.1-.2 1.5-.7s.5-.9.5-1.8zm9 0c0 .5-.1 1-.2 1.5s-.4.8-.6 1.1-.6.6-1 .7-.9.3-1.4.3c-.5 0-.9-.1-1.3-.2-.4-.2-.7-.4-1-.7s-.5-.7-.6-1.1c-.1-.4-.2-.9-.2-1.5 0-.5.1-1 .2-1.5s.4-.8.6-1.1.6-.6 1-.7.9-.3 1.4-.3c.5 0 .9.1 1.3.2.4.2.7.4 1 .7s.5.7.6 1.1c.2.5.2 1 .2 1.5zm-1.2.1c0-.4 0-.8-.1-1.1-.1-.3-.2-.6-.4-.8s-.4-.4-.6-.5c-.2-.1-.5-.2-.8-.2-.4 0-.7.1-.9.2-.3.1-.5.3-.6.6-.2.2-.3.5-.4.8-.1.3-.1.6-.1 1s0 .8.1 1.1c.1.3.2.6.4.8s.4.4.6.5.5.2.8.2c.4 0 .7-.1.9-.2.3-.1.5-.3.6-.6.2-.2.3-.5.4-.8.1-.3.1-.7.1-1zm9.3 2.4l-.1 2.8h-1.1v-1.8h-5v1.8h-1.1l-.1-2.8h.1c.2 0 .3 0 .5-.1s.3-.2.4-.3.3-.4.4-.6c.1-.3.2-.6.3-1.1.1-.4.2-1 .2-1.6.1-.6.1-1.3.2-2.2h4.2v5.8l1.1.1zm-2.2-4.8h-1.9c0 .8-.1 1.5-.2 2s-.2 1-.3 1.4c-.1.4-.2.7-.3.9s-.3.4-.4.5h3.1v-4.8zm9.6-1l-2.3 6.1c-.2.6-.5 1.2-.7 1.6-.3.5-.5.8-.8 1.1s-.6.5-1 .6-.8.2-1.2.2h-.6v-1.1h.7c.2 0 .4 0 .6-.1.2-.1.4-.2.5-.3s.3-.3.5-.6.3-.5.5-.8l-2.7-6.9h1.4l1.7 4.5.3 1.1.2-.9 1.6-4.5h1.3zm7.8 6.8h-1.6l-3.2-3.7v3.7h-1.2v-6.9h1.2v3.1l3.1-3.1h1.6l-3.2 3.2 3.3 3.7zm7.5-5.8h-2.6v5.8h-1.2v-5.8h-2.6v-1h6.4v1z"/><path class="st8" d="M807.3 245.6h78.6v13.3h-78.6z"/><path d="M826.6 255.3h-1.2v-7.9h-3.7v7.9h-1.2v-8.9h6.1v8.9zm7.7-3.6c0 .6-.1 1.1-.3 1.6-.2.5-.4.8-.7 1.1s-.7.5-1.1.7-.9.2-1.3.2h-.7c-.2 0-.4-.1-.7-.1v2.9h-1.2v-9.7h1.1l.1 1.1c.3-.5.7-.8 1.1-1 .4-.2.8-.3 1.3-.3.4 0 .7.1 1 .2s.5.4.7.7c.2.3.4.7.5 1.1.2.5.2 1 .2 1.5zm-1.2.1c0-.4 0-.7-.1-1-.1-.3-.1-.6-.3-.8s-.3-.4-.4-.5c-.2-.1-.4-.2-.6-.2-.2 0-.3 0-.5.1-.2 0-.3.1-.5.2l-.5.4c-.2.2-.4.4-.6.7v3.3c.2.1.4.2.7.2.2.1.5.1.7.1.6 0 1.1-.2 1.5-.7.4-.3.6-.9.6-1.8zm9.1 0c0 .5-.1 1-.2 1.5-.2.4-.4.8-.6 1.1s-.6.6-1 .7c-.4.2-.9.3-1.4.3-.5 0-.9-.1-1.3-.2-.4-.2-.7-.4-1-.7-.3-.3-.5-.7-.6-1.1-.1-.4-.2-.9-.2-1.5 0-.5.1-1 .2-1.5.2-.4.4-.8.6-1.1s.6-.6 1-.7c.4-.2.9-.3 1.4-.3.5 0 .9.1 1.3.2.4.2.7.4 1 .7.3.3.5.7.6 1.1.1.4.2.9.2 1.5zm-1.3.1c0-.4 0-.8-.1-1.1-.1-.3-.2-.6-.4-.8-.2-.2-.4-.4-.6-.5-.2-.1-.5-.2-.8-.2-.4 0-.7.1-.9.2-.3.1-.5.3-.6.6-.2.2-.3.5-.4.8-.1.3-.1.6-.1 1s0 .8.1 1.1c.1.3.2.6.4.8.2.2.4.4.6.5.2.1.5.2.8.2.4 0 .7-.1.9-.2.3-.1.5-.3.6-.6.2-.2.3-.5.4-.8.1-.4.1-.7.1-1zm9.3 2.4l-.1 2.8h-1.1v-1.8h-5v1.8h-1l-.1-2.8h.1c.2 0 .3 0 .5-.1s.3-.2.4-.3.3-.4.4-.6c.1-.3.2-.6.3-1.1.1-.4.2-1 .2-1.6.1-.6.1-1.3.2-2.2h4.2v5.8l1 .1zm-2.1-4.8h-1.9c0 .8-.1 1.5-.2 2s-.2 1-.3 1.4c-.1.4-.2.7-.3.9s-.3.4-.4.5h3.1v-4.8zm9.6-1.1l-2.3 6.1c-.2.6-.5 1.2-.7 1.6-.3.5-.5.8-.8 1.1-.3.3-.6.5-1 .6s-.8.2-1.2.2h-.6v-1h.7c.2 0 .4 0 .6-.1.2-.1.4-.2.5-.3.2-.1.3-.3.5-.6s.3-.5.5-.8l-2.7-6.9h1.4l1.7 4.5.3 1.1.4-1.1 1.6-4.5 1.1.1zm7.7 6.9h-1.6l-3.2-3.7v3.7h-1.2v-6.9h1.2v3.1l3.1-3.1h1.6l-3.2 3.2 3.3 3.7zm7.5-5.8h-2.6v5.8h-1.2v-5.8h-2.6v-1h6.4v1z"/><path class="st8" d="M537.6 97h78.7v25h-78.7z"/><path d="M553.3 106.6h-1.5l-3.3-4.4v4.4h-1.2v-8.9h1.2v4.1l3.3-4.1h1.4l-3.5 4.2 3.6 4.7zm7.6-3.5c0 .5-.1 1-.2 1.5s-.4.8-.6 1.1-.6.6-1 .7-.9.3-1.4.3c-.5 0-.9-.1-1.3-.2-.4-.2-.7-.4-1-.7s-.5-.7-.6-1.1c-.1-.4-.2-.9-.2-1.5 0-.5.1-1 .2-1.5s.4-.8.6-1.1.6-.6 1-.7.9-.3 1.4-.3c.5 0 .9.1 1.3.2.4.2.7.4 1 .7s.5.7.6 1.1c.1.5.2 1 .2 1.5zm-1.2.1c0-.4 0-.8-.1-1.1-.1-.3-.2-.6-.4-.8s-.4-.4-.6-.5c-.2-.1-.5-.2-.8-.2-.4 0-.7.1-.9.2-.3.1-.5.3-.6.6-.2.2-.3.5-.4.8-.1.3-.1.6-.1 1s0 .8.1 1.1c.1.3.2.6.4.8s.4.4.6.5.5.2.8.2c.4 0 .7-.1.9-.2.3-.1.5-.3.6-.6.2-.2.3-.5.4-.8l.1-1zm8.4 3.4h-1.2v-3h-3.1v3h-1.2v-6.9h1.2v2.8h3.1v-2.8h1.2v6.9zm8-3.8v.7h-4.8c0 .7.2 1.2.6 1.6s1 .6 1.7.6h.6s.4 0 .6-.1.4-.1.5-.1l.5-.1v1c-.3.1-.7.2-1.1.2-.4.1-.8.1-1.3.1-.6 0-1.1-.1-1.5-.2s-.8-.4-1-.7-.5-.7-.6-1.1c-.1-.4-.2-.9-.2-1.5 0-.5.1-.9.2-1.4.1-.4.3-.8.6-1.1.3-.3.6-.6 1-.8s.8-.3 1.3-.3.9.1 1.3.2.7.4.9.6c.3.3.4.6.6 1l.1 1.4zm-1.2-.1c0-.3 0-.6-.1-.8s-.2-.5-.3-.7c-.2-.2-.3-.3-.6-.4s-.5-.2-.8-.2c-.3 0-.5.1-.7.2s-.4.2-.6.4-.3.4-.4.7-.2.5-.2.8h3.7zm7.4 1.3h-1.4c-1.1 0-1.8-.2-2.3-.6s-.7-1-.7-1.7v-1.9h1.2v1.7c0 .3 0 .5.1.7s.2.3.4.5l.6.3c.3.1.6.1.9.1h1.3v-3.2h1.2v6.9h-1.2v-2.8zm8.9 2.6h-1.2v-3h-3.1v3h-1.2v-6.9h1.2v2.8h3.1v-2.8h1.2v6.9zm2.8-4.2h.9c.4 0 .8.1 1.1.2.3.1.6.2.8.4s.4.4.5.7.2.5.2.8c0 .4-.1.7-.2 1s-.3.5-.5.7-.5.3-.8.4c-.3.1-.7.1-1.2.1h-.9c-.3 0-.7 0-1-.1v-6.8h1.2v2.6zm2.3 2.1c0-.4-.1-.6-.3-.8-.2-.2-.6-.3-1.1-.3h-.8v2.3h.8c.3 0 .5 0 .7-.1s.3-.2.4-.3c.1-.1.2-.2.2-.4.1-.1.1-.2.1-.4zm2 2.1v-6.9h1.2v6.9h-1.2zm4.1-6.8v4.8l3-4.8h1.1v6.9h-1.2v-4.8l-3 4.8h-1.1v-6.9h1.2zm3.6-2.7c0 .3-.1.5-.2.7-.1.2-.2.4-.4.5-.2.1-.4.3-.7.3s-.5.1-.9.1-.7 0-.9-.1-.5-.2-.6-.3c-.2-.1-.3-.3-.4-.5s-.1-.4-.1-.7h1.1v.4s.1.2.2.3c.1.1.2.2.3.2s.3.1.5.1.4 0 .5-.1l.3-.2s.1-.2.2-.3v-.4h1.1zm-49.4 21.4h-1.2v-5.8h-3.1v5.8h-1.2v-6.9h5.5v6.9zm8-3.5c0 .6-.1 1.1-.3 1.6-.2.5-.4.8-.7 1.1s-.7.5-1.1.7-.9.2-1.3.2h-.7c-.2 0-.4-.1-.7-.1v2.9h-1.2v-9.7h1.1l.1 1.1c.3-.5.7-.8 1.1-1s.8-.3 1.3-.3c.4 0 .7.1 1 .2s.5.4.7.7.4.7.5 1.1.2 1 .2 1.5zm-1.2 0c0-.4 0-.7-.1-1-.1-.3-.1-.6-.3-.8s-.3-.4-.4-.5-.4-.2-.6-.2c-.2 0-.3 0-.5.1s-.3.1-.5.2l-.5.4c-.2.2-.4.4-.6.7v3.3c.2.1.4.2.7.2s.5.1.7.1c.6 0 1.1-.2 1.5-.7s.6-.9.6-1.8zm9 0c0 .5-.1 1-.2 1.5s-.4.8-.6 1.1-.6.6-1 .7-.9.3-1.4.3c-.5 0-.9-.1-1.3-.2-.4-.2-.7-.4-1-.7-.3-.3-.5-.7-.6-1.1-.1-.4-.2-.9-.2-1.5 0-.5.1-1 .2-1.5s.4-.8.6-1.1.6-.6 1-.7.9-.3 1.4-.3c.5 0 .9.1 1.3.2.4.2.7.4 1 .7.3.3.5.7.6 1.1.2.5.2 1 .2 1.5zm-1.2.1c0-.4 0-.8-.1-1.1-.1-.3-.2-.6-.4-.8s-.4-.4-.6-.5c-.2-.1-.5-.2-.8-.2-.4 0-.7.1-.9.2-.3.1-.5.3-.6.6-.2.2-.3.5-.4.8-.1.3-.1.6-.1 1s0 .8.1 1.1c.1.3.2.6.4.8s.4.4.6.5.5.2.8.2c.4 0 .7-.1.9-.2.3-.1.5-.3.6-.6.2-.2.3-.5.4-.8.1-.3.1-.7.1-1zm9.3 2.4l-.1 2.8h-1.1v-1.8h-5v1.8h-1.1l-.1-2.8h.1c.2 0 .3 0 .5-.1s.3-.2.4-.3.3-.4.4-.6c.1-.3.2-.6.3-1.1.1-.4.2-1 .2-1.6.1-.6.1-1.3.2-2.2h4.2v5.8l1.1.1zm-2.1-4.8h-1.9c0 .8-.1 1.5-.2 2s-.2 1-.3 1.4c-.1.4-.2.7-.3.9s-.3.4-.4.5h3.1v-4.8zm9.6-1l-2.3 6.1c-.2.6-.5 1.2-.7 1.6-.3.5-.5.8-.8 1.1s-.6.5-1 .6-.8.2-1.2.2h-.6v-1.1h.7c.2 0 .4 0 .6-.1.2-.1.4-.2.5-.3s.3-.3.5-.6.3-.5.5-.8l-2.7-6.9h1.4l1.7 4.5.3 1.1.4-1.1 1.6-4.5 1.1.2zm7.7 6.8h-1.6l-3.2-3.7v3.7h-1.2v-6.9h1.2v3.1l3.1-3.1h1.6l-3.2 3.2 3.3 3.7zm7.5-5.8h-2.6v5.8h-1.2v-5.8h-2.6v-1h6.4v1z"/><path class="st8" d="M871 153.5h78.6v25h-78.6z"/><path d="M886.7 163.1h-1.5l-3.3-4.4v4.4h-1.2v-8.9h1.2v4.1l3.3-4.1h1.4l-3.5 4.2 3.6 4.7zm7.6-3.5c0 .5-.1 1-.2 1.5s-.4.8-.6 1.1-.6.6-1 .7-.9.3-1.4.3c-.5 0-.9-.1-1.3-.2-.4-.2-.7-.4-1-.7s-.5-.7-.6-1.1c-.1-.4-.2-.9-.2-1.5 0-.5.1-1 .2-1.5s.4-.8.6-1.1.6-.6 1-.7.9-.3 1.4-.3c.5 0 .9.1 1.3.2.4.2.7.4 1 .7.3.3.5.7.6 1.1.2.5.2 1 .2 1.5zm-1.2.1c0-.4 0-.8-.1-1.1-.1-.3-.2-.6-.4-.8s-.4-.4-.6-.5c-.2-.1-.5-.2-.8-.2-.4 0-.7.1-.9.2-.3.1-.5.3-.6.6-.2.2-.3.5-.4.8-.1.3-.1.6-.1 1s0 .8.1 1.1c.1.3.2.6.4.8s.4.4.6.5.5.2.8.2c.4 0 .7-.1.9-.2.3-.1.5-.3.6-.6.2-.2.3-.5.4-.8.1-.3.1-.7.1-1zm8.5 3.4h-1.2v-3h-3.1v3h-1.3v-6.9h1.2v2.8h3.1v-2.8h1.2v6.9zm7.9-3.8v.7h-4.8c0 .7.2 1.2.6 1.6s1 .6 1.7.6h.6s.4 0 .6-.1.4-.1.5-.1l.5-.1v1c-.3.1-.7.2-1.1.2-.4.1-.8.1-1.3.1-.6 0-1.1-.1-1.5-.2s-.8-.4-1-.7-.5-.7-.6-1.1c-.1-.4-.2-.9-.2-1.5 0-.5.1-.9.2-1.4.1-.4.3-.8.6-1.1.3-.3.6-.6 1-.8s.8-.3 1.3-.3.9.1 1.3.2.7.4.9.6c.3.3.4.6.6 1 .1.5.1 1 .1 1.4zm-1.2-.1c0-.3 0-.6-.1-.8s-.2-.5-.3-.7c-.2-.2-.3-.3-.6-.4s-.5-.2-.8-.2c-.3 0-.5.1-.7.1s-.4.2-.6.4-.3.4-.4.7-.2.5-.2.8l3.7.1zm7.5 1.3h-1.4c-1.1 0-1.8-.2-2.3-.6s-.7-1-.7-1.7v-1.9h1.2v1.7c0 .3 0 .5.1.7s.2.3.4.5l.6.3c.3.1.6.1.9.1h1.3v-3.2h1.2v6.9h-1.2v-2.8zm8.9 2.6h-1.2v-3h-3.1v3h-1.2v-6.9h1.2v2.8h3.1v-2.8h1.2v6.9zm2.8-4.2h.9c.4 0 .8.1 1.1.2.3.1.6.2.8.4s.4.4.5.7.2.5.2.8c0 .4-.1.7-.2 1s-.3.5-.5.7-.5.3-.8.4c-.3.1-.7.1-1.2.1h-.9c-.3 0-.7 0-1-.1v-6.8h1.2v2.6zm2.2 2.1c0-.4-.1-.6-.3-.8-.2-.2-.6-.3-1.1-.3h-.8v2.3h.8c.3 0 .5 0 .7-.1s.3-.2.4-.3c.1-.1.2-.2.2-.4.1-.1.1-.2.1-.4zm2 2.1v-6.9h1.2v6.9h-1.2zm4.1-6.8v4.8l3-4.8h1.1v6.9h-1.2v-4.8l-3 4.8h-1.1v-6.9h1.2zm3.6-2.7c0 .3-.1.5-.2.7-.1.2-.2.4-.4.5-.2.1-.4.3-.7.3s-.5.1-.9.1-.7 0-.9-.1-.5-.2-.6-.3c-.2-.1-.3-.3-.4-.5s-.1-.4-.1-.7h1.1v.4s.1.2.2.3c.1.1.2.2.3.2s.3.1.5.1.4 0 .5-.1l.3-.2s.1-.2.2-.3v-.4h1.1zm-49.4 21.4h-1.2v-5.8h-3.1v5.8h-1.2v-6.9h5.5v6.9zm8.1-3.5c0 .6-.1 1.1-.3 1.6-.2.5-.4.8-.7 1.1s-.7.5-1.1.7-.9.2-1.3.2h-.7s-.4-.1-.7-.1v2.9h-1.2v-9.7h1.1l.1 1.1c.3-.5.7-.8 1.1-1s.8-.3 1.3-.3c.4 0 .7.1 1 .2s.5.4.7.7.4.7.5 1.1.2 1 .2 1.5zm-1.3 0c0-.4 0-.7-.1-1-.1-.3-.1-.6-.2-.8s-.3-.4-.4-.5-.4-.2-.6-.2c-.2 0-.3 0-.5.1s-.3.1-.5.2l-.5.4c-.2.2-.4.4-.6.7v3.3c.2.1.4.2.7.2s.5.1.7.1c.6 0 1.1-.2 1.5-.7s.5-.9.5-1.8zm9.1.1c0 .5-.1 1-.2 1.5s-.4.8-.6 1.1-.6.6-1 .7-.9.3-1.4.3c-.5 0-.9-.1-1.3-.2-.4-.2-.7-.4-1-.7s-.5-.7-.6-1.1c-.1-.4-.2-.9-.2-1.5 0-.5.1-1 .2-1.5s.4-.8.6-1.1.6-.6 1-.7.9-.3 1.4-.3c.5 0 .9.1 1.3.2.4.2.7.4 1 .7.3.3.5.7.6 1.1.1.4.2.9.2 1.5zm-1.2 0c0-.4 0-.8-.1-1.1-.1-.3-.2-.6-.4-.8s-.4-.4-.6-.5c-.2-.1-.5-.2-.8-.2-.4 0-.7.1-.9.2-.3.1-.5.3-.6.6-.2.2-.3.5-.4.8-.1.3-.1.6-.1 1s0 .8.1 1.1c.1.3.2.6.4.8s.4.4.6.5.5.2.8.2c.4 0 .7-.1.9-.2.3-.1.5-.3.6-.6.2-.2.3-.5.4-.8l.1-1zm9.3 2.4l-.1 2.8h-1.1v-1.8h-5v1.8h-1.1l-.1-2.8h.1c.2 0 .3 0 .5-.1s.3-.2.4-.3.3-.4.4-.6c.1-.3.2-.6.3-1.1.1-.4.2-1 .2-1.6.1-.6.1-1.3.2-2.2h4.2v5.8l1.1.1zm-2.2-4.8h-1.9c0 .8-.1 1.5-.2 2s-.2 1-.3 1.4c-.1.4-.2.7-.3.9s-.3.4-.4.5h3.1v-4.8zm9.6-1l-2.3 6.1c-.2.6-.5 1.2-.7 1.6-.3.5-.5.8-.8 1.1s-.6.5-1 .6-.8.2-1.2.2h-.6v-1.1h.7c.2 0 .4 0 .6-.1.2-.1.4-.2.5-.3s.3-.3.5-.6.3-.5.5-.8l-2.7-6.9h1.4l1.7 4.5.3 1.1.4-1.1 1.6-4.5 1.1.2zm7.8 6.8h-1.6l-3.2-3.7v3.7h-1.2v-6.9h1.2v3.1l3.1-3.1h1.6l-3.2 3.2 3.3 3.7zm7.4-5.8h-2.6v5.8h-1.2v-5.8h-2.6v-1h6.4v1z"/><path class="st8" d="M329.6 239.3h91.2v26h-91.2z"/><path d="M343.6 246.3c0 .4-.1.8-.2 1.1-.2.3-.4.6-.7.8-.3.2-.7.4-1.1.5-.4.1-.9.2-1.5.2h-2.3v-8.9h2.6c2 0 3 .7 3 2.2 0 .5-.1.9-.3 1.2-.2.3-.6.6-1.1.8.2 0 .5.1.7.2l.6.4s.3.4.4.6-.1.6-.1.9zm-1.6-4c0-.2 0-.4-.1-.5s-.1-.3-.3-.4-.3-.2-.6-.3-.5-.1-.9-.1h-1.1v2.8h1.2c.3 0 .5 0 .8-.1.2-.1.4-.1.6-.3.2-.1.3-.3.4-.5v-.6zm.3 4c0-.2 0-.4-.1-.6s-.2-.3-.4-.5-.4-.2-.7-.3c-.3-.1-.6-.1-.9-.1h-1.2v3.1h1.3c.7 0 1.2-.1 1.6-.4s.4-.6.4-1.2zm8.7 2.6h-1.2v-3h-3.1v3h-1.2v-6.9h1.2v2.8h3.1v-2.8h1.2v6.9zm8.3-6.8l-2.3 6.1c-.2.6-.5 1.2-.7 1.6-.3.5-.5.8-.8 1.1-.3.3-.6.5-1 .6s-.8.2-1.2.2h-.6v-1.1h.7c.2 0 .4 0 .6-.1.2-.1.4-.2.5-.3.2-.1.3-.3.5-.6s.3-.5.5-.8l-2.7-6.9h1.4l1.7 4.5.3 1.1.4-1.1 1.6-4.5 1.1.2zm7.5 1h-2.6v5.8h-1.2v-5.8h-2.6v-1h6.4v1zm7.6 2.3c0 .6-.1 1.1-.3 1.6-.2.5-.4.8-.7 1.1s-.7.5-1.1.7-.9.2-1.3.2h-.7s-.4-.1-.7-.1v2.9h-1.2v-9.7h1.1l.1 1.1c.3-.5.7-.8 1.1-1s.8-.3 1.3-.3c.4 0 .7.1 1 .2s.5.4.7.7.4.7.5 1.1.2 1 .2 1.5zm-1.2 0c0-.4 0-.7-.1-1-.1-.3-.1-.6-.2-.8s-.3-.4-.4-.5-.4-.2-.6-.2c-.1 0-.3 0-.5.1s-.3.1-.5.2l-.5.4c-.2.2-.4.4-.6.7v3.3c.2.1.4.2.7.2.2.1.5.1.7.1.6 0 1.1-.2 1.5-.7s.5-.9.5-1.8zm8.9-.3v.7h-4.8c0 .7.2 1.2.6 1.6s1 .6 1.7.6h.6c.2 0 .4 0 .6-.1s.4-.1.5-.1l.5-.1v1c-.3.1-.7.2-1.1.2-.4.1-.8.1-1.3.1-.6 0-1.1-.1-1.5-.2s-.8-.4-1-.7c-.3-.3-.5-.7-.6-1.1-.1-.4-.2-.9-.2-1.5 0-.5.1-.9.2-1.4.1-.4.3-.8.6-1.1.3-.3.6-.6 1-.8s.8-.3 1.3-.3.9.1 1.3.2.7.4.9.6c.3.3.4.6.6 1l.1 1.4zm-1.3-.1c0-.3 0-.6-.1-.8s-.2-.5-.3-.7c-.2-.2-.3-.3-.6-.4s-.5-.2-.8-.2c-.3 0-.5.1-.7.1s-.4.2-.6.4-.3.4-.4.7-.2.5-.2.8l3.7.1zm8.7 3.9h-1.2v-3h-3.1v3h-1.2v-6.9h1.2v2.8h3.1v-2.8h1.2v6.9zm7.7 0h-1.2v-3h-3.1v3h-1.2v-6.9h1.2v2.8h3.1v-2.8h1.2v6.9zm3.4-6.8v4.8l3-4.8h1.1v6.9h-1.2v-4.8l-3 4.8h-1.1v-6.9h1.2zm7.7 0v4.8l3-4.8h1.1v6.9h-1.2v-4.8l-3 4.8h-1.1v-6.9h1.2zm3.6-2.7c0 .3-.1.5-.2.7-.1.2-.2.4-.4.5-.2.1-.4.3-.7.3s-.5.1-.9.1-.7 0-.9-.1-.5-.2-.6-.3c-.2-.1-.3-.3-.4-.5s-.1-.4-.1-.7h1.1v.4s.1.2.2.3c.1.1.2.2.3.2s.3.1.5.1.4 0 .5-.1l.3-.2s.1-.2.2-.3v-.4h1.1zm-57.1 21.4h-1.2v-5.8h-3.1v5.8h-1.2v-6.8h5.5v6.8zm8.1-3.5c0 .6-.1 1.1-.3 1.6-.2.5-.4.8-.7 1.1s-.7.5-1.1.7-.9.2-1.3.2h-.7c-.2 0-.4-.1-.7-.1v2.9h-1.1v-9.7h1.1l.1 1.1c.3-.5.7-.8 1.1-1 .4-.2.8-.3 1.3-.3.4 0 .7.1 1 .2s.5.4.7.7c.2.3.4.7.5 1.1l.1 1.5zm-1.2 0c0-.4 0-.7-.1-1-.1-.3-.1-.6-.3-.8s-.3-.4-.4-.5c-.2-.1-.4-.2-.6-.2-.1 0-.3 0-.5.1-.2 0-.3.1-.5.2l-.5.4c-.2.2-.4.4-.6.7v3.3c.2.1.4.2.7.2.2.1.5.1.7.1.6 0 1.1-.2 1.5-.7.4-.2.6-.9.6-1.8zm9 0c0 .5-.1 1-.2 1.5-.1.4-.4.8-.6 1.1-.3.3-.6.6-1 .7-.4.2-.9.3-1.4.3-.5 0-.9-.1-1.3-.2-.4-.2-.7-.4-1-.7-.3-.3-.5-.7-.6-1.1-.1-.4-.2-.9-.2-1.5 0-.5.1-1 .2-1.5.1-.4.4-.8.6-1.1.3-.3.6-.6 1-.7s.9-.3 1.4-.3c.5 0 .9.1 1.3.2.4.2.7.4 1 .7.3.3.5.7.6 1.1.1.5.2 1 .2 1.5zm-1.2.1c0-.4 0-.8-.1-1.1-.1-.3-.2-.6-.4-.8-.2-.2-.4-.4-.6-.5-.2-.1-.5-.2-.8-.2-.4 0-.7.1-.9.2-.3.1-.5.3-.6.6-.2.2-.3.5-.4.8-.1.3-.1.6-.1 1s0 .8.1 1.1c.1.3.2.6.4.8.2.2.4.4.6.5.2.1.5.2.8.2.4 0 .7-.1.9-.2.3-.1.5-.3.6-.6.2-.2.3-.5.4-.8l.1-1zm9.3 2.4l-.1 2.8h-1.1v-1.8h-5v1.8h-1.1l-.1-2.8h.1c.2 0 .3 0 .5-.1s.3-.2.4-.3l.4-.6c.1-.3.2-.6.3-1.1.1-.4.2-1 .2-1.6.1-.6.1-1.3.2-2.2h4.2v5.8l1.1.1zm-2.2-4.8h-1.9c0 .8-.1 1.5-.2 2s-.2 1-.3 1.4c-.1.4-.2.7-.3.9s-.3.4-.4.5h3.1v-4.8zm9.6-1l-2.3 6.1c-.2.6-.5 1.2-.7 1.6-.3.5-.5.8-.8 1.1-.3.3-.6.5-1 .6s-.8.2-1.2.2h-.6v-1.1h.7c.2 0 .4 0 .6-.1.2-.1.4-.2.5-.3.2-.1.3-.3.5-.6s.3-.5.5-.8l-2.7-6.9h1.4l1.7 4.5.3 1.1.4-1.1 1.6-4.5 1.1.2zm7.8 6.8h-1.6l-3.2-3.7v3.7h-1.2v-6.8h1.2v3.1l3.1-3.1h1.6l-3.2 3.2 3.3 3.6zm7.5-5.8h-2.6v5.8h-1.2v-5.8h-2.6v-1h6.4v1z"/><path class="st8" d="M561.7 239.2h91.2v26.2h-91.2z"/><path d="M575.8 246.2c0 .4-.1.8-.3 1.1-.2.3-.4.6-.7.8-.3.2-.7.4-1.1.5-.4.1-.9.2-1.5.2h-2.3v-8.9h2.6c2 0 3 .7 3 2.2 0 .5-.1.9-.3 1.2-.2.3-.6.6-1.1.8.2 0 .5.1.7.2l.6.4s.3.4.4.6v.9zm-1.6-3.9c0-.2 0-.4-.1-.5s-.2-.3-.3-.4-.3-.2-.6-.3-.5-.1-.9-.1h-1.3v2.8h1.2c.3 0 .5 0 .8-.1.2-.1.4-.1.6-.3.2-.1.3-.3.4-.5.2-.2.2-.4.2-.6zm.3 3.9c0-.2 0-.4-.1-.6s-.2-.3-.4-.5-.4-.2-.7-.3c-.3-.1-.6-.1-.9-.1h-1.2v3.1h1.3c.7 0 1.2-.1 1.6-.4s.4-.6.4-1.2zm8.7 2.7h-1.2v-3h-3.1v3h-1.2v-6.9h1.2v2.8h3.1v-2.8h1.2v6.9zm8.3-6.9l-2.3 6.1c-.2.6-.5 1.2-.7 1.6-.3.5-.5.8-.8 1.1-.3.3-.6.5-1 .6s-.8.2-1.2.2h-.6v-1.1h.7c.2 0 .4 0 .6-.1.2-.1.4-.2.5-.3.2-.1.3-.3.5-.6s.3-.5.5-.8l-2.7-6.9h1.4l1.7 4.5.3 1.1.4-1.1 1.6-4.5 1.1.2zm7.5 1h-2.6v5.8h-1.2v-5.8h-2.6v-1h6.4v1zm7.6 2.3c0 .6-.1 1.1-.3 1.6-.2.5-.4.8-.7 1.1s-.7.5-1.1.7-.9.2-1.3.2h-.7c-.2 0-.4-.1-.7-.1v2.9h-1.2v-9.7h1.1l.1 1.1c.3-.5.7-.8 1.1-1s.8-.3 1.3-.3c.4 0 .7.1 1 .2s.5.4.7.7.4.7.5 1.1.2 1 .2 1.5zm-1.2.1c0-.4 0-.7-.1-1-.1-.3-.1-.6-.3-.8s-.3-.4-.4-.5-.4-.2-.6-.2c-.2 0-.3 0-.5.1s-.3.1-.5.2l-.5.4c-.2.2-.4.4-.6.7v3.3c.2.1.4.2.7.2.2.1.5.1.7.1.6 0 1.1-.2 1.5-.7s.6-1 .6-1.8zm8.8-.3v.7h-4.8c0 .7.2 1.2.6 1.6s1 .6 1.7.6h.6c.2 0 .4 0 .6-.1s.4-.1.5-.1l.5-.1v1c-.3.1-.7.2-1.1.2-.4.1-.8.1-1.3.1-.6 0-1.1-.1-1.5-.2s-.8-.4-1-.7c-.3-.3-.5-.7-.6-1.1-.1-.4-.2-.9-.2-1.5 0-.5.1-.9.2-1.4.1-.4.3-.8.6-1.1.3-.3.6-.6 1-.8s.8-.3 1.3-.3.9.1 1.3.2.7.4.9.6c.3.3.4.6.6 1 .1.4.1.9.1 1.4zm-1.2-.2c0-.3 0-.6-.1-.8s-.2-.5-.3-.7c-.2-.2-.3-.3-.6-.4s-.5-.2-.8-.2c-.3 0-.5.1-.7.1s-.4.2-.6.4-.3.4-.4.7-.2.5-.2.8l3.7.1zm8.7 4h-1.2v-3h-3.1v3h-1.2v-6.9h1.2v2.8h3.1v-2.8h1.2v6.9zm7.7 0h-1.2v-3h-3.2v3h-1.2v-6.9h1.2v2.8h3.1v-2.8h1.2v6.9zm3.4-6.9v4.8l3-4.8h1.1v6.9h-1.2v-4.9l-3 4.8h-1.1v-6.8h1.2zm7.7 0v4.8l3-4.8h1.1v6.9h-1.2v-4.9l-3 4.8h-1.1v-6.8h1.2zm3.6-2.6c0 .3-.1.5-.2.7-.1.2-.2.4-.4.5-.2.1-.4.3-.7.3s-.5.1-.9.1-.7 0-.9-.1-.5-.2-.6-.3c-.2-.1-.3-.3-.4-.5s-.1-.4-.1-.7h1.1v.4s.1.2.2.3c.1.1.2.2.3.2s.3.1.5.1.4 0 .5-.1l.3-.2s.1-.2.2-.3v-.4h1.1zm-57.1 21.4h-1.2v-5.8h-3.1v5.8h-1.2v-6.9h5.5v6.9zm8.1-3.6c0 .6-.1 1.1-.3 1.6-.2.5-.4.8-.7 1.1s-.7.5-1.1.7-.9.2-1.3.2h-.7s-.4-.1-.7-.1v2.9h-1.2v-9.7h1.1l.1 1.1c.3-.5.7-.8 1.1-1 .4-.2.8-.3 1.3-.3.4 0 .7.1 1 .2s.5.4.7.7.4.7.5 1.1c.1.5.2 1 .2 1.5zm-1.3.1c0-.4 0-.7-.1-1-.1-.3-.1-.6-.2-.8s-.3-.4-.4-.5c-.2-.1-.4-.2-.6-.2-.2 0-.3 0-.5.1-.2 0-.3.1-.5.2l-.5.4c-.2.2-.4.4-.6.7v3.3c.2.1.4.2.7.2.2.1.5.1.7.1.6 0 1.1-.2 1.5-.7.4-.3.5-1 .5-1.8zm9.1 0c0 .5-.1 1-.2 1.5-.2.4-.4.8-.6 1.1-.3.3-.6.6-1 .7-.4.2-.9.3-1.4.3-.5 0-.9-.1-1.3-.2-.4-.2-.7-.4-1-.7s-.5-.7-.6-1.1c-.1-.4-.2-.9-.2-1.5 0-.5.1-1 .2-1.5.2-.4.4-.8.6-1.1.3-.3.6-.6 1-.7.4-.2.9-.3 1.4-.3.5 0 .9.1 1.3.2.4.2.7.4 1 .7.3.3.5.7.6 1.1.1.4.2.9.2 1.5zm-1.2 0c0-.4 0-.8-.1-1.1-.1-.3-.2-.6-.4-.8-.2-.2-.4-.4-.6-.5-.2-.1-.5-.2-.8-.2-.4 0-.7.1-.9.2-.3.1-.5.3-.6.6-.2.2-.3.5-.4.8-.1.3-.1.6-.1 1s0 .8.1 1.1c.1.3.2.6.4.8.2.2.4.4.6.5.2.1.5.2.8.2.4 0 .7-.1.9-.2.3-.1.5-.3.6-.6.2-.2.3-.5.4-.8 0-.3.1-.6.1-1zm9.3 2.4l-.1 2.8h-1.1v-1.8h-5v1.8h-1.1l-.1-2.8h.1c.2 0 .3 0 .5-.1s.3-.2.4-.3l.4-.6c.1-.3.2-.6.3-1.1.1-.4.2-1 .2-1.6.1-.6.1-1.3.2-2.2h4.2v5.8l1.1.1zm-2.2-4.8h-1.9c0 .8-.1 1.5-.2 2s-.2 1-.3 1.4c-.1.4-.2.7-.3.9s-.3.4-.4.5h3.1v-4.8zm9.6-1l-2.3 6.1c-.2.6-.5 1.2-.7 1.6-.3.5-.5.8-.8 1.1-.3.3-.6.5-1 .6s-.8.2-1.2.2h-.6v-1.1h.7c.2 0 .4 0 .6-.1.2-.1.4-.2.5-.3.2-.1.3-.3.5-.6s.3-.5.5-.8l-2.7-6.9h1.4l1.7 4.5.3 1.1.4-1.1 1.6-4.5 1.1.2zm7.8 6.9h-1.6l-3.2-3.7v3.7h-1.2v-6.9h1.2v3.1l3.1-3.1h1.6l-3.2 3.2 3.3 3.7zm7.4-5.9h-2.6v5.8h-1.2v-5.8h-2.6v-1h6.4v1z"/><path class="st8" d="M428.8 102.1h66.2v14.8h-66.2z"/><path d="M435.7 111.8h-1.2v-7.9h-3.7v7.9h-1.2v-8.9h6.1v8.9zm7.8-3.6c0 .6-.1 1.1-.3 1.6-.2.5-.4.8-.7 1.1s-.7.5-1.1.7-.9.2-1.3.2h-.7c-.2 0-.4-.1-.7-.1v2.9h-1.2v-9.7h1.1l.1 1.1c.3-.5.7-.8 1.1-1s.8-.3 1.3-.3c.4 0 .7.1 1 .2s.5.4.7.7.4.7.5 1.1.2 1 .2 1.5zm-1.2.1c0-.4 0-.7-.1-1-.1-.3-.1-.6-.2-.8s-.3-.4-.4-.5-.4-.2-.6-.2c-.1 0-.3 0-.5.1s-.3.1-.5.2l-.5.4c-.2.2-.4.4-.6.7v3.3c.2.1.4.2.7.2s.5.1.7.1c.6 0 1.1-.2 1.5-.7s.5-1 .5-1.8zm9 0c0 .5-.1 1-.2 1.5s-.4.8-.6 1.1-.6.6-1 .7-.9.3-1.4.3c-.5 0-.9-.1-1.3-.2-.4-.2-.7-.4-1-.7s-.5-.7-.6-1.1c-.1-.4-.2-.9-.2-1.5 0-.5.1-1 .2-1.5s.4-.8.6-1.1.6-.6 1-.7.9-.3 1.4-.3c.5 0 .9.1 1.3.2.4.2.7.4 1 .7s.5.7.6 1.1c.1.4.2.9.2 1.5zm-1.2 0c0-.4 0-.8-.1-1.1-.1-.3-.2-.6-.4-.8s-.4-.4-.6-.5c-.2-.1-.5-.2-.8-.2-.4 0-.7.1-.9.2-.3.1-.5.3-.6.6-.2.2-.3.5-.4.8-.1.3-.1.6-.1 1s0 .8.1 1.1c.1.3.2.6.4.8s.4.4.6.5.5.2.8.2c.4 0 .7-.1.9-.2.3-.1.5-.3.6-.6.2-.2.3-.5.4-.8 0-.3.1-.6.1-1zm9.2 2.4l-.1 2.8h-1.1v-1.8h-5.1v-6.9h1.2v5.8h3.1v-5.8h1.2v5.8h.8zm7.2-2.7v.7h-4.8c0 .7.2 1.2.6 1.6s1 .6 1.7.6h.6s.4 0 .6-.1.4-.1.5-.1l.5-.1v1c-.3.1-.7.2-1.1.2s-.8.1-1.3.1c-.6 0-1.1-.1-1.5-.2s-.8-.4-1-.7-.5-.7-.6-1.1c-.1-.4-.2-.9-.2-1.5 0-.5.1-.9.2-1.4.1-.4.3-.8.6-1.1.3-.3.6-.6 1-.8s.8-.3 1.3-.3.9.1 1.3.2.7.4.9.6c.3.3.4.6.6 1 .1.4.1.9.1 1.4zm-1.2-.2c0-.3 0-.6-.1-.8s-.2-.5-.3-.7c-.2-.2-.3-.3-.6-.4s-.5-.2-.8-.2c-.3 0-.5.1-.7.2s-.4.2-.6.4-.3.4-.4.7-.2.5-.2.8h3.7zm8.5 3.7c-.3.1-.6.2-1 .3-.3.1-.7.1-1 .1-1.1 0-1.9-.3-2.5-.9-.6-.6-.9-1.4-.9-2.6 0-.5.1-1 .3-1.5s.4-.8.7-1.1.7-.6 1.1-.7.9-.3 1.4-.3c.4 0 .7 0 1 .1s.6.1.9.2v1.1c-.3-.2-.6-.3-.9-.3-.3-.1-.6-.1-1-.1-.3 0-.6.1-.9.2-.3.1-.5.3-.7.5s-.4.5-.5.8-.2.7-.2 1.1c0 .8.2 1.4.6 1.9.4.4 1 .6 1.7.6.3 0 .6 0 .9-.1l.9-.3.1 1zm7.7 0c-.3.1-.6.2-1 .3-.3.1-.7.1-1 .1-1.1 0-1.9-.3-2.5-.9-.6-.6-.9-1.4-.9-2.6 0-.5.1-1 .3-1.5s.4-.8.7-1.1.7-.6 1.1-.7.9-.3 1.4-.3c.4 0 .7 0 1 .1s.6.1.9.2v1.1c-.3-.2-.6-.3-.9-.3-.3-.1-.6-.1-1-.1-.3 0-.6.1-.9.2-.3.1-.5.3-.7.5s-.4.5-.5.8-.2.7-.2 1.1c0 .8.2 1.4.6 1.9.4.4 1 .6 1.7.6.3 0 .6 0 .9-.1l.9-.3.1 1z"/><path class="st8" d="M315.1 159.1h66.2v14.8h-66.2z"/><path d="M322 168.8h-1.2v-7.9h-3.7v7.9h-1.2v-8.9h6.1v8.9zm7.7-3.6c0 .6-.1 1.1-.3 1.6-.2.5-.4.8-.7 1.1s-.7.5-1.1.7-.9.2-1.3.2h-.7c-.2 0-.4-.1-.7-.1v2.9h-1.2v-9.7h1.1l.1 1.1c.3-.5.7-.8 1.1-1s.8-.3 1.3-.3c.4 0 .7.1 1 .2s.5.4.7.7.4.7.5 1.1.2 1 .2 1.5zm-1.2.1c0-.4 0-.7-.1-1-.1-.3-.1-.6-.3-.8s-.3-.4-.4-.5-.4-.2-.6-.2c-.1 0-.3 0-.5.1s-.3.1-.5.2l-.5.4c-.2.2-.4.4-.6.7v3.3c.2.1.4.2.7.2s.5.1.7.1c.6 0 1.1-.2 1.5-.7s.6-.9.6-1.8zm9 0c0 .5-.1 1-.2 1.5s-.4.8-.6 1.1-.6.6-1 .7-.9.3-1.4.3c-.5 0-.9-.1-1.3-.2-.4-.2-.7-.4-1-.7-.3-.3-.5-.7-.6-1.1-.1-.4-.2-.9-.2-1.5 0-.5.1-1 .2-1.5s.4-.8.6-1.1.6-.6 1-.7.9-.3 1.4-.3c.5 0 .9.1 1.3.2.4.2.7.4 1 .7.3.3.5.7.6 1.1.1.4.2.9.2 1.5zm-1.2.1c0-.4 0-.8-.1-1.1-.1-.3-.2-.6-.4-.8s-.4-.4-.6-.5c-.2-.1-.5-.2-.8-.2-.4 0-.7.1-.9.2-.3.1-.5.3-.6.6-.2.2-.3.5-.4.8-.1.3-.1.6-.1 1s0 .8.1 1.1c.1.3.2.6.4.8s.4.4.6.5.5.2.8.2c.4 0 .7-.1.9-.2.3-.1.5-.3.6-.6.2-.2.3-.5.4-.8.1-.4.1-.7.1-1zm9.2 2.4l-.1 2.8h-1.1v-1.8h-5.2v-6.9h1.2v5.8h3.1v-5.8h1.2v5.8l.9.1zm7.2-2.8v.7h-4.8c0 .7.2 1.2.6 1.6s1 .6 1.7.6h.6s.4 0 .6-.1.4-.1.5-.1l.5-.1v1c-.3.1-.7.2-1.1.2-.4.1-.8.1-1.3.1-.6 0-1.1-.1-1.5-.2s-.8-.4-1-.7c-.3-.3-.5-.7-.6-1.1-.1-.4-.2-.9-.2-1.5 0-.5.1-.9.2-1.4.1-.4.3-.8.6-1.1.3-.3.6-.6 1-.8s.8-.3 1.3-.3.9.1 1.3.2.7.4.9.6c.3.3.4.6.6 1 .1.5.1.9.1 1.4zm-1.2-.2c0-.3 0-.6-.1-.8s-.2-.5-.3-.7c-.2-.2-.3-.3-.6-.4s-.5-.2-.8-.2c-.3 0-.5.1-.7.1s-.4.2-.6.4-.3.4-.4.7-.2.5-.2.8l3.7.1zm8.5 3.7c-.3.1-.6.2-1 .3-.3.1-.7.1-1 .1-1.1 0-1.9-.3-2.5-.9-.6-.6-.9-1.4-.9-2.6 0-.5.1-1 .3-1.5s.4-.8.7-1.1.7-.6 1.1-.7.9-.3 1.4-.3c.4 0 .7 0 1 .1s.6.1.9.2v1.1c-.3-.2-.6-.3-.9-.3-.3-.1-.6-.1-1-.1-.3 0-.6.1-.9.2s-.5.3-.7.5-.4.5-.5.8-.2.7-.2 1.1c0 .8.2 1.4.6 1.9.4.4 1 .6 1.7.6.3 0 .6 0 .9-.1l.9-.3v1zm7.7 0c-.3.1-.6.2-1 .3-.3.1-.7.1-1 .1-1.1 0-1.9-.3-2.5-.9-.6-.6-.9-1.4-.9-2.6 0-.5.1-1 .3-1.5s.4-.8.7-1.1.7-.6 1.1-.7.9-.3 1.4-.3c.4 0 .7 0 1 .1s.6.1.9.2v1.1c-.3-.2-.6-.3-.9-.3-.3-.1-.6-.1-1-.1-.3 0-.6.1-.9.2s-.5.3-.7.5-.4.5-.5.8-.2.7-.2 1.1c0 .8.2 1.4.6 1.9.4.4 1 .6 1.7.6.3 0 .6 0 .9-.1l.9-.3v1z"/><path class="st8" d="M540.1 159.1h60.4v19.4h-60.4z"/><path d="M547 168.8h-1.2v-7.9h-3.7v7.9h-1.2v-8.9h6.1v8.9zm7.8-3.6c0 .6-.1 1.1-.3 1.6-.2.5-.4.8-.7 1.1s-.7.5-1.1.7-.9.2-1.3.2h-.7c-.2 0-.4-.1-.7-.1v2.9h-1.2v-9.7h1.1l.1 1.1c.3-.5.7-.8 1.1-1s.8-.3 1.3-.3c.4 0 .7.1 1 .2s.5.4.7.7.4.7.5 1.1.2 1 .2 1.5zm-1.2.1c0-.4 0-.7-.1-1-.1-.3-.1-.6-.3-.8s-.3-.4-.4-.5-.4-.2-.6-.2c-.2 0-.3 0-.5.1s-.3.1-.5.2l-.5.4c-.2.2-.4.4-.6.7v3.3c.2.1.4.2.7.2s.5.1.7.1c.6 0 1.1-.2 1.5-.7s.6-.9.6-1.8zm9 0c0 .5-.1 1-.2 1.5s-.4.8-.6 1.1-.6.6-1 .7-.9.3-1.4.3c-.5 0-.9-.1-1.3-.2-.4-.2-.7-.4-1-.7-.3-.3-.5-.7-.6-1.1-.1-.4-.2-.9-.2-1.5 0-.5.1-1 .2-1.5s.4-.8.6-1.1.6-.6 1-.7.9-.3 1.4-.3c.5 0 .9.1 1.3.2.4.2.7.4 1 .7.3.3.5.7.6 1.1.1.4.2.9.2 1.5zm-1.2.1c0-.4 0-.8-.1-1.1-.1-.3-.2-.6-.4-.8s-.4-.4-.6-.5c-.2-.1-.5-.2-.8-.2-.4 0-.7.1-.9.2-.3.1-.5.3-.6.6-.2.2-.3.5-.4.8-.1.3-.1.6-.1 1s0 .8.1 1.1c.1.3.2.6.4.8s.4.4.6.5.5.2.8.2c.4 0 .7-.1.9-.2.3-.1.5-.3.6-.6.2-.2.3-.5.4-.8 0-.4.1-.7.1-1zm9.2 2.4l-.1 2.8h-1.1v-1.8h-5.2v-6.9h1.2v5.8h3.1v-5.8h1.2v5.8l.9.1zm7.2-2.8v.7h-4.8c0 .7.2 1.2.6 1.6s1 .6 1.7.6h.6s.4 0 .6-.1.4-.1.5-.1l.5-.1v1c-.3.1-.7.2-1.1.2-.4.1-.8.1-1.3.1-.6 0-1.1-.1-1.5-.2s-.8-.4-1-.7c-.3-.3-.5-.7-.6-1.1-.1-.4-.2-.9-.2-1.5 0-.5.1-.9.2-1.4.1-.4.3-.8.6-1.1.3-.3.6-.6 1-.8s.8-.3 1.3-.3.9.1 1.3.2.7.4.9.6c.3.3.4.6.6 1l.1 1.4zm-1.2-.2c0-.3 0-.6-.1-.8s-.2-.5-.3-.7c-.2-.2-.3-.3-.6-.4s-.5-.2-.8-.2c-.3 0-.5.1-.7.1s-.4.2-.6.4-.3.4-.4.7-.2.5-.2.8l3.7.1zm8.4 3.7c-.3.1-.6.2-1 .3-.3.1-.7.1-1 .1-1.1 0-1.9-.3-2.5-.9-.6-.6-.9-1.4-.9-2.6 0-.5.1-1 .3-1.5s.4-.8.7-1.1.7-.6 1.1-.7.9-.3 1.4-.3c.4 0 .7 0 1 .1s.6.1.9.2v1.1c-.3-.2-.6-.3-.9-.3-.3-.1-.6-.1-1-.1-.3 0-.6.1-.9.2s-.5.3-.7.5-.4.5-.5.8-.2.7-.2 1.1c0 .8.2 1.4.6 1.9.4.4 1 .6 1.7.6.3 0 .6 0 .9-.1l.9-.3v1zm7.7 0c-.3.1-.6.2-1 .3-.3.1-.7.1-1 .1-1.1 0-1.9-.3-2.5-.9-.6-.6-.9-1.4-.9-2.6 0-.5.1-1 .3-1.5s.4-.8.7-1.1.7-.6 1.1-.7.9-.3 1.4-.3c.4 0 .7 0 1 .1s.6.1.9.2v1.1c-.3-.2-.6-.3-.9-.3-.3-.1-.6-.1-1-.1-.3 0-.6.1-.9.2s-.5.3-.7.5-.4.5-.5.8-.2.7-.2 1.1c0 .8.2 1.4.6 1.9.4.4 1 .6 1.7.6.3 0 .6 0 .9-.1l.9-.3v1z"/><path class="st8" d="M764.8 159.1h60.4v19.4h-60.4z"/><path d="M771.7 168.8h-1.2v-7.9h-3.7v7.9h-1.2v-8.9h6.1v8.9zm7.7-3.6c0 .6-.1 1.1-.3 1.6-.2.5-.4.8-.7 1.1s-.7.5-1.1.7-.9.2-1.3.2h-.7c-.2 0-.4-.1-.7-.1v2.9h-1.2v-9.7h1.1l.1 1.1c.3-.5.7-.8 1.1-1s.8-.3 1.3-.3c.4 0 .7.1 1 .2s.5.4.7.7.4.7.5 1.1.2 1 .2 1.5zm-1.2.1c0-.4 0-.7-.1-1-.1-.3-.1-.6-.3-.8s-.3-.4-.4-.5-.4-.2-.6-.2c-.2 0-.3 0-.5.1s-.3.1-.5.2l-.5.4c-.2.2-.4.4-.6.7v3.3c.2.1.4.2.7.2s.5.1.7.1c.6 0 1.1-.2 1.5-.7s.6-.9.6-1.8zm9.1 0c0 .5-.1 1-.2 1.5s-.4.8-.6 1.1-.6.6-1 .7-.9.3-1.4.3c-.5 0-.9-.1-1.3-.2-.4-.2-.7-.4-1-.7-.3-.3-.5-.7-.6-1.1-.1-.4-.2-.9-.2-1.5 0-.5.1-1 .2-1.5s.4-.8.6-1.1.6-.6 1-.7.9-.3 1.4-.3c.5 0 .9.1 1.3.2.4.2.7.4 1 .7.3.3.5.7.6 1.1.1.4.2.9.2 1.5zm-1.3.1c0-.4 0-.8-.1-1.1-.1-.3-.2-.6-.4-.8s-.4-.4-.6-.5c-.2-.1-.5-.2-.8-.2-.4 0-.7.1-.9.2-.3.1-.5.3-.6.6-.2.2-.3.5-.4.8-.1.3-.1.6-.1 1s0 .8.1 1.1c.1.3.2.6.4.8s.4.4.6.5.5.2.8.2c.4 0 .7-.1.9-.2.3-.1.5-.3.6-.6.2-.2.3-.5.4-.8.1-.4.1-.7.1-1zm9.3 2.4l-.1 2.8h-1.1v-1.8h-5.2v-6.9h1.2v5.8h3.1v-5.8h1.2v5.8l.9.1zm7.2-2.8v.7h-4.8c0 .7.2 1.2.6 1.6s1 .6 1.7.6h.6s.4 0 .6-.1.4-.1.5-.1l.5-.1v1c-.3.1-.7.2-1.1.2-.4.1-.8.1-1.3.1-.6 0-1.1-.1-1.5-.2s-.8-.4-1-.7c-.3-.3-.5-.7-.6-1.1-.1-.4-.2-.9-.2-1.5 0-.5.1-.9.2-1.4.1-.4.3-.8.6-1.1.3-.3.6-.6 1-.8s.8-.3 1.3-.3.9.1 1.3.2.7.4.9.6c.3.3.4.6.6 1l.1 1.4zm-1.3-.2c0-.3 0-.6-.1-.8s-.2-.5-.3-.7c-.2-.2-.3-.3-.6-.4s-.5-.2-.8-.2c-.3 0-.5.1-.7.1s-.4.2-.6.4-.3.4-.4.7-.2.5-.2.8l3.7.1zm8.5 3.7c-.3.1-.6.2-1 .3-.3.1-.7.1-1 .1-1.1 0-1.9-.3-2.5-.9-.6-.6-.9-1.4-.9-2.6 0-.5.1-1 .3-1.5s.4-.8.7-1.1.7-.6 1.1-.7.9-.3 1.4-.3c.4 0 .7 0 1 .1s.6.1.9.2v1.1c-.3-.2-.6-.3-.9-.3-.3-.1-.6-.1-1-.1-.3 0-.6.1-.9.2s-.5.3-.7.5-.4.5-.5.8-.2.7-.2 1.1c0 .8.2 1.4.6 1.9.4.4 1 .6 1.7.6.3 0 .6 0 .9-.1l.9-.3v1zm7.7 0c-.3.1-.6.2-1 .3-.3.1-.7.1-1 .1-1.1 0-1.9-.3-2.5-.9-.6-.6-.9-1.4-.9-2.6 0-.5.1-1 .3-1.5s.4-.8.7-1.1.7-.6 1.1-.7.9-.3 1.4-.3c.4 0 .7 0 1 .1s.6.1.9.2v1.1c-.3-.2-.6-.3-.9-.3-.3-.1-.6-.1-1-.1-.3 0-.6.1-.9.2s-.5.3-.7.5-.4.5-.5.8-.2.7-.2 1.1c0 .8.2 1.4.6 1.9.4.4 1 .6 1.7.6.3 0 .6 0 .9-.1l.9-.3v1z"/><path class="st8" d="M422.5 158.7h78.6v13.2h-78.6z"/><path d="M441.8 168.3h-1.2v-7.9h-3.7v7.9h-1.2v-8.9h6.1v8.9zm7.8-3.5c0 .6-.1 1.1-.3 1.6-.2.5-.4.8-.7 1.1s-.7.5-1.1.7-.9.2-1.3.2h-.7c-.2 0-.4-.1-.7-.1v2.9h-1.2v-9.7h1.1l.1 1.1c.3-.5.7-.8 1.1-1s.8-.3 1.3-.3c.4 0 .7.1 1 .2s.5.4.7.7.4.7.5 1.1.2.9.2 1.5zm-1.3 0c0-.4 0-.7-.1-1-.1-.3-.1-.6-.3-.8s-.3-.4-.4-.5-.4-.2-.6-.2c-.1 0-.3 0-.5.1s-.3.1-.5.2l-.5.4c-.2.2-.4.4-.6.7v3.3c.2.1.4.2.7.2s.5.1.7.1c.6 0 1.1-.2 1.5-.7s.6-.9.6-1.8zm9.1 0c0 .5-.1 1-.2 1.5s-.4.8-.6 1.1-.6.6-1 .7-.9.3-1.4.3c-.5 0-.9-.1-1.3-.2-.4-.2-.7-.4-1-.7-.3-.3-.5-.7-.6-1.1-.1-.4-.2-.9-.2-1.5 0-.5.1-1 .2-1.5s.4-.8.6-1.1.6-.6 1-.7.9-.3 1.4-.3c.5 0 .9.1 1.3.2.4.2.7.4 1 .7.3.3.5.7.6 1.1.1.5.2 1 .2 1.5zm-1.3.1c0-.4 0-.8-.1-1.1-.1-.3-.2-.6-.4-.8s-.4-.4-.6-.5c-.2-.1-.5-.2-.8-.2-.4 0-.7.1-.9.2-.3.1-.5.3-.6.6-.2.2-.3.5-.4.8-.1.3-.1.6-.1 1s0 .8.1 1.1c.1.3.2.6.4.8s.4.4.6.5.5.2.8.2c.4 0 .7-.1.9-.2.3-.1.5-.3.6-.6.2-.2.3-.5.4-.8.1-.4.1-.7.1-1zm9.4 2.4l-.1 2.8h-1.1v-1.8h-5v1.8h-1.1l-.1-2.8h.1c.2 0 .3 0 .5-.1s.3-.2.4-.3.3-.4.4-.6c.1-.3.2-.6.3-1.1.1-.4.2-1 .2-1.6.1-.6.1-1.3.2-2.2h4.2v5.8l1.1.1zm-2.2-4.8h-1.9c0 .8-.1 1.5-.2 2s-.2 1-.3 1.4c-.1.4-.2.7-.3.9s-.3.4-.4.5h3.1v-4.8zm9.6-1.1l-2.3 6.1c-.2.6-.5 1.2-.7 1.6-.3.5-.5.8-.8 1.1s-.6.5-1 .6-.8.2-1.2.2h-.6v-1h.7c.2 0 .4 0 .6-.1.2-.1.4-.2.5-.3s.3-.3.5-.6.3-.5.5-.8l-2.7-6.9h1.4l1.7 4.5.3 1.1.4-1.1 1.6-4.5 1.1.1zm7.8 6.9h-1.7l-3.2-3.7v3.7h-1.2v-6.9h1.2v3.1l3.1-3.1h1.6l-3.2 3.2 3.4 3.7zm7.4-5.8h-2.6v5.8h-1.2v-5.8h-2.6v-1h6.4v1z"/><path class="st8" d="M645.9 158.7h78.6v13.2h-78.6z"/><path d="M665.2 168.3h-1.2v-7.9h-3.7v7.9h-1.2v-8.9h6.1v8.9zm7.7-3.5c0 .6-.1 1.1-.3 1.6-.2.5-.4.8-.7 1.1s-.7.5-1.1.7-.9.2-1.3.2h-.7c-.2 0-.4-.1-.7-.1v2.9h-1.2v-9.7h1.1l.1 1.1c.3-.5.7-.8 1.1-1 .4-.2.8-.3 1.3-.3.4 0 .7.1 1 .2.3.2.5.4.7.7.2.3.3.7.5 1.1.2.5.2.9.2 1.5zm-1.2 0c0-.4 0-.7-.1-1-.1-.3-.1-.6-.3-.8-.1-.2-.3-.4-.4-.5s-.4-.2-.6-.2c-.2 0-.3 0-.5.1-.2 0-.3.1-.5.2s-.3.3-.5.4c-.2.2-.4.4-.6.7v3.3c.2.1.4.2.7.2.2.1.5.1.7.1.6 0 1.1-.2 1.5-.7.4-.3.6-.9.6-1.8zm9 0c0 .5-.1 1-.2 1.5s-.4.8-.6 1.1c-.3.3-.6.6-1 .7-.4.2-.9.3-1.4.3-.5 0-.9-.1-1.3-.2-.4-.2-.7-.4-1-.7-.3-.3-.5-.7-.6-1.1-.1-.4-.2-.9-.2-1.5 0-.5.1-1 .2-1.5s.4-.8.7-1.1c.3-.3.6-.6 1-.7.4-.2.9-.3 1.4-.3.5 0 .9.1 1.3.2.4.2.7.4 1 .7s.5.7.6 1.1l.1 1.5zm-1.2.1c0-.4 0-.8-.1-1.1s-.2-.6-.4-.8c-.2-.2-.4-.4-.6-.5-.3-.1-.5-.2-.8-.2-.4 0-.7.1-.9.2-.3.1-.5.3-.6.6-.2.2-.3.5-.4.8-.1.3-.1.6-.1 1s0 .8.1 1.1c.1.3.2.6.4.8.2.2.4.4.6.5s.5.2.8.2c.4 0 .7-.1.9-.2.3-.1.5-.3.6-.6s.3-.5.4-.8c.1-.4.1-.7.1-1zm9.3 2.4l-.1 2.8h-1.1v-1.8h-5v1.8h-1.1l-.1-2.8h.1c.2 0 .3 0 .5-.1s.3-.2.4-.3l.4-.6s.2-.6.3-1.1c.1-.4.2-1 .2-1.6s.1-1.3.2-2.2h4.2v5.8l1.1.1zm-2.2-4.8h-1.9c0 .8-.1 1.5-.2 2-.1.6-.2 1-.3 1.4-.1.4-.2.7-.3.9-.1.2-.3.4-.4.5h3.1v-4.8zm9.6-1.1l-2.3 6.1c-.2.6-.5 1.2-.7 1.6s-.5.8-.8 1.1c-.3.3-.6.5-1 .6-.4.1-.8.2-1.2.2h-.6v-1h.7c.2 0 .4 0 .6-.1s.4-.2.5-.3c.2-.1.3-.3.5-.6.2-.2.3-.5.5-.8l-2.7-6.9h1.4l1.7 4.5.3 1.1.4-1.1 1.6-4.5 1.1.1zm7.8 6.9h-1.6l-3.2-3.7v3.7h-1.2v-6.9h1.2v3.1l3.1-3.1h1.6l-3.2 3.2 3.3 3.7zm7.5-5.8h-2.6v5.8h-1.2v-5.8h-2.6v-1h6.4v1z"/><path class="st8" d="M118.2 245.5h66.2v14.8h-66.2z"/><path class="st9" d="M142.9 252.5c0 .4-.1.8-.3 1.1-.2.3-.4.6-.7.8-.3.2-.7.4-1.1.5s-.9.2-1.5.2h-2.3v-8.9h2.6c2 0 3 .7 3 2.2 0 .5-.1.9-.3 1.2s-.6.6-1.1.8c.2 0 .5.1.7.2s.4.3.6.4.3.4.4.6v.9zm-1.6-4c0-.2 0-.4-.1-.5s-.1-.3-.3-.4-.3-.2-.6-.3-.5-.1-.9-.1h-1.3v2.8h1.2c.3 0 .5 0 .8-.1s.4-.1.6-.3.3-.3.4-.5c.1-.1.2-.3.2-.6zm.3 4c0-.2 0-.4-.1-.6s-.2-.3-.4-.5c-.2-.1-.4-.2-.7-.3s-.6-.1-.9-.1h-1.2v3.1h1.3c.7 0 1.2-.1 1.6-.4s.4-.6.4-1.2zm9.3 2.6h-1.6l-1.9-2.6-1.8 2.6h-1.5l2.7-3.4-2.5-3.4h1.5l1.8 2.6 1.8-2.6h1.5l-2.6 3.4 2.6 3.4zm7.5-3.4c0 .5-.1 1-.2 1.5-.1.4-.4.8-.6 1.1-.3.3-.6.6-1 .7-.4.2-.9.3-1.4.3-.5 0-.9-.1-1.3-.2-.4-.2-.7-.4-1-.7-.3-.3-.5-.7-.6-1.1-.1-.4-.2-.9-.2-1.5 0-.5.1-1 .2-1.5.1-.4.4-.8.6-1.1.3-.3.6-.6 1-.7.4-.2.9-.3 1.4-.3.5 0 .9.1 1.3.2.4.2.7.4 1 .7.3.3.5.7.6 1.1.1.4.2.9.2 1.5zm-1.2 0c0-.4 0-.8-.1-1.1-.1-.3-.2-.6-.4-.8-.2-.2-.4-.4-.6-.5-.3-.1-.5-.2-.8-.2-.4 0-.7.1-.9.2-.3.1-.5.3-.6.6-.2.2-.3.5-.4.8-.1.3-.1.6-.1 1s0 .8.1 1.1c.1.3.2.6.4.8.2.2.4.4.6.5.2.1.5.2.8.2.4 0 .7-.1.9-.2.3-.1.5-.3.6-.6s.3-.5.4-.8c0-.3.1-.6.1-1zm9.3 2.4l-.1 2.8h-1.1v-1.8h-5v1.8h-1.1l-.1-2.8h.1c.2 0 .3 0 .5-.1s.3-.2.4-.3l.4-.6c.1-.3.2-.6.3-1.1.1-.4.2-1 .2-1.6s.1-1.3.2-2.2h4.2v5.8l1.1.1zm-2.2-4.8h-1.9c0 .8-.1 1.5-.2 2-.1.6-.2 1-.3 1.4-.1.4-.2.7-.3.9-.1.2-.3.4-.4.5h3.1v-4.8z"/><path class="st8" d="M118.1 297.5h66.2v21.4h-66.2z"/><path d="M140.9 306c0 .5-.1 1-.3 1.4-.2.4-.5.7-.9 1-.4.3-.8.5-1.4.6-.5.1-1.1.2-1.8.2h-2.8v-10.9h3.1c2.4 0 3.6.9 3.6 2.6 0 .6-.1 1.1-.4 1.5-.3.4-.7.7-1.4.9.3.1.6.1.8.3.3.1.5.3.7.5s.4.5.5.7.3.9.3 1.2zm-1.9-4.7c0-.2 0-.4-.1-.6s-.2-.4-.3-.5c-.2-.1-.4-.3-.7-.3s-.6-.1-1.1-.1h-1.5v3.4h1.5c.3 0 .6 0 .9-.1.3-.1.5-.2.7-.3.2-.1.3-.3.5-.6.1-.4.1-.6.1-.9zm.4 4.8c0-.3-.1-.5-.2-.7-.1-.2-.3-.4-.5-.6s-.5-.3-.8-.4c-.3-.1-.7-.1-1.1-.1h-1.5v3.7h1.6c.8 0 1.5-.2 1.9-.5.4-.3.6-.8.6-1.4zm11.3 3.2h-1.9l-2.2-3.2-2.2 3.2h-1.9l3.2-4.2-3.1-4.1h1.9l2.2 3.2 2.1-3.2h1.8l-3.1 4.2 3.2 4.1zm9.1-4.3c0 .6-.1 1.2-.3 1.8-.2.5-.4 1-.8 1.4-.3.4-.8.7-1.3.9s-1.1.3-1.7.3c-.6 0-1.1-.1-1.6-.3s-.9-.5-1.2-.8c-.3-.4-.6-.8-.8-1.3s-.3-1.1-.3-1.8c0-.6.1-1.2.3-1.8.2-.5.4-1 .8-1.4.3-.4.8-.7 1.3-.9s1.1-.3 1.7-.3c.6 0 1.1.1 1.6.3s.9.5 1.2.8c.3.4.6.8.8 1.3s.3 1.2.3 1.8zm-1.5.1c0-.5-.1-1-.2-1.3s-.3-.7-.5-1c-.2-.3-.5-.5-.8-.6-.3-.1-.6-.2-1-.2s-.8.1-1.1.3c-.3.2-.6.4-.8.7-.2.3-.3.6-.4 1-.1.4-.1.8-.1 1.2 0 .5.1 1 .2 1.4.1.4.3.7.5 1 .2.3.5.5.8.6s.6.2 1 .2.8-.1 1.1-.3c.3-.2.6-.4.8-.7.2-.3.3-.6.4-1 .1-.5.1-.9.1-1.3zm11.3 2.9l-.1 3.4h-1.3v-2.1h-6.1v2.1h-1.3l-.1-3.4h.1c.2 0 .4 0 .6-.1s.4-.2.5-.4.3-.4.4-.8c.1-.3.3-.8.4-1.3.1-.5.2-1.2.3-1.9s.1-1.6.2-2.7h5.1v7.1l1.3.1zm-2.6-5.8h-2.3c-.1 1-.1 1.8-.2 2.4-.1.7-.2 1.2-.3 1.7s-.3.8-.4 1.1-.3.5-.5.6h3.8l-.1-5.8z"/><path class="st8" d="M438.2 297.5h95.7v22.4h-95.7z"/><path d="M461.7 309.3h-1.5v-9.5h-4.4v9.5h-1.5v-10.9h7.4v10.9zm9.4-4.3c0 .7-.1 1.4-.3 1.9-.2.6-.5 1-.9 1.4s-.8.6-1.3.8c-.5.2-1 .3-1.6.3h-.8l-.8-.1v3.5h-1.4v-11.7h1.3l.1 1.4c.4-.6.9-1 1.3-1.2s1-.3 1.5-.3.9.1 1.3.3c.4.2.7.5.9.8s.4.8.5 1.3.2.9.2 1.6zm-1.4 0c0-.4 0-.8-.1-1.2s-.2-.7-.3-.9-.3-.5-.5-.6-.5-.2-.8-.2c-.2 0-.4 0-.6.1l-.6.3s-.4.3-.6.5c-.2.2-.5.5-.7.8v4l.8.3c.3.1.6.1.9.1.8 0 1.4-.3 1.8-.8s.7-1.3.7-2.4zm10.9 0c0 .6-.1 1.2-.3 1.8-.2.5-.4 1-.8 1.4s-.8.7-1.3.9c-.5.2-1.1.3-1.7.3-.6 0-1.1-.1-1.6-.3-.5-.2-.9-.5-1.2-.8s-.6-.8-.8-1.3c-.2-.5-.3-1.1-.3-1.8 0-.6.1-1.2.3-1.8.2-.5.4-1 .8-1.4s.8-.7 1.3-.9c.5-.2 1.1-.3 1.7-.3.6 0 1.1.1 1.6.3.5.2.9.5 1.2.8.3.4.6.8.8 1.3.2.5.3 1.2.3 1.8zm-1.5.1c0-.5-.1-1-.2-1.3s-.3-.7-.5-1c-.2-.3-.5-.5-.8-.6s-.6-.2-1-.2-.8.1-1.1.3c-.3.2-.6.4-.8.7s-.3.6-.4 1c-.1.4-.1.8-.1 1.2 0 .5.1 1 .2 1.4.1.4.3.7.5 1 .2.3.5.5.8.6s.6.2 1 .2.8-.1 1.1-.3c.3-.2.6-.4.8-.7.2-.3.3-.6.4-1 .1-.5.1-.9.1-1.3zm11.2 2.9l-.1 3.4h-1.3v-2.1h-6.3v-8.3h1.4v7.1h3.8v-7.1h1.4v7.1l1.1-.1zm8.8-3.3v.9h-5.9c0 .9.2 1.5.7 2 .5.5 1.2.7 2.1.7h.7c.2 0 .5 0 .7-.1s.4-.1.7-.1l.6-.1v1.2c-.4.1-.8.2-1.3.3s-1 .1-1.5.1c-.7 0-1.3-.1-1.8-.3-.5-.2-.9-.5-1.3-.8s-.6-.8-.7-1.4c-.2-.5-.2-1.1-.2-1.8 0-.6.1-1.1.3-1.7.2-.5.4-1 .7-1.4.3-.4.7-.7 1.2-.9s1-.3 1.6-.3c.6 0 1.1.1 1.5.3.4.2.8.4 1.1.8.3.3.5.7.7 1.2 0 .2.1.8.1 1.4zm-1.5-.2c0-.4 0-.7-.1-1-.1-.3-.2-.6-.4-.8s-.4-.4-.7-.5c-.3-.1-.6-.2-1-.2-.3 0-.6.1-.9.2-.3.1-.5.3-.7.5-.2.2-.3.5-.5.8-.1.3-.2.6-.2 1h4.5zm10.3 4.5c-.4.1-.8.3-1.2.3s-.8.1-1.2.1c-1.3 0-2.3-.4-3-1.1-.7-.7-1.1-1.8-1.1-3.1 0-.7.1-1.3.3-1.8.2-.5.5-1 .9-1.4.4-.4.8-.7 1.3-.9.5-.2 1.1-.3 1.7-.3.4 0 .8 0 1.2.1l1.1.3v1.4c-.4-.2-.7-.3-1.1-.4-.4-.1-.8-.1-1.2-.1-.4 0-.7.1-1 .2-.3.1-.6.3-.9.6-.2.3-.4.6-.6 1s-.2.8-.2 1.3c0 1 .2 1.8.7 2.3.5.5 1.2.8 2 .8.4 0 .8 0 1.1-.1.4-.1.7-.2 1.1-.4l.1 1.2zm9.3 0c-.4.1-.8.3-1.2.3s-.8.1-1.2.1c-1.3 0-2.3-.4-3-1.1-.7-.7-1.1-1.8-1.1-3.1 0-.7.1-1.3.3-1.8.2-.5.5-1 .9-1.4.4-.4.8-.7 1.3-.9.5-.2 1.1-.3 1.7-.3.4 0 .8 0 1.2.1l1.1.3v1.4c-.4-.2-.7-.3-1.1-.4-.4-.1-.8-.1-1.2-.1-.4 0-.7.1-1 .2-.3.1-.6.3-.9.6-.3.3-.4.6-.6 1s-.2.8-.2 1.3c0 1 .2 1.8.7 2.3.5.5 1.2.8 2 .8.4 0 .8 0 1.1-.1.4-.1.7-.2 1.1-.4l.1 1.2z"/><path class="st8" d="M795.1 297.5h95.7v22.4h-95.7z"/><path d="M828 306c0 .5-.1 1-.3 1.4-.2.4-.5.7-.9 1s-.8.5-1.4.6c-.5.1-1.1.2-1.8.2h-2.8v-10.9h3.1c2.4 0 3.6.9 3.6 2.6 0 .6-.1 1.1-.4 1.5-.3.4-.7.7-1.4.9.3.1.6.1.8.3.3.1.5.3.7.5s.4.5.5.7c.3.5.3.9.3 1.2zm-1.9-4.7c0-.2 0-.4-.1-.6s-.2-.4-.3-.5c-.2-.1-.4-.3-.7-.3-.3-.1-.6-.1-1.1-.1h-1.5v3.4h1.5c.3 0 .6 0 .9-.1.3-.1.5-.2.7-.3.2-.1.3-.3.5-.6.1-.4.1-.6.1-.9zm.4 4.8c0-.3-.1-.5-.2-.7-.1-.2-.3-.4-.5-.6-.2-.2-.5-.3-.8-.4-.3-.1-.7-.1-1.1-.1h-1.5v3.7h1.6c.8 0 1.5-.2 1.9-.5.4-.3.6-.8.6-1.4zm4.6-1.9h1.1c.5 0 1 .1 1.4.2.4.1.7.3 1 .5.3.2.5.5.6.8.1.3.2.7.2 1 0 .4-.1.8-.2 1.2-.1.3-.4.6-.6.8-.3.2-.6.4-1 .5-.4.1-.9.2-1.4.2h-1.1l-1.2-.1v-8.3h1.4l-.2 3.2zm2.7 2.5c0-.4-.1-.8-.4-1-.3-.2-.7-.4-1.3-.4h-1v2.7c.2 0 .3 0 .5.1h.5c.3 0 .6 0 .8-.1.2-.1.4-.2.5-.3.1-.1.2-.3.3-.5 0-.1.1-.3.1-.5zm2.4 2.6v-8.3h1.4v8.3h-1.4zm10.9 0h-1.9l-2.3-3.2-2.2 3.2h-1.9l3.2-4.2-3.1-4.1h1.9l2.2 3.2 2.2-3.2h1.8l-3.1 4.2 3.2 4.1zm9.1-4.3c0 .6-.1 1.2-.3 1.8-.2.5-.4 1-.8 1.4-.3.4-.8.7-1.3.9-.5.2-1.1.3-1.7.3-.6 0-1.1-.1-1.6-.3-.5-.2-.9-.5-1.2-.8-.3-.4-.6-.8-.8-1.3-.2-.5-.3-1.1-.3-1.8 0-.6.1-1.2.3-1.8.2-.5.4-1 .8-1.4.3-.4.8-.7 1.3-.9.5-.2 1.1-.3 1.7-.3.6 0 1.1.1 1.6.3.5.2.9.5 1.2.8.3.4.6.8.8 1.3.2.5.3 1.2.3 1.8zm-1.5.1c0-.5-.1-1-.2-1.3s-.3-.7-.5-1c-.2-.3-.5-.5-.8-.6-.3-.1-.6-.2-1-.2s-.8.1-1.1.3-.6.4-.8.7c-.2.3-.3.6-.4 1-.1.4-.1.8-.1 1.2 0 .5.1 1 .2 1.4.1.4.3.7.5 1 .2.3.5.5.8.6s.6.2 1 .2.8-.1 1.1-.3.6-.4.8-.7c.2-.3.3-.6.4-1 .1-.5.1-.9.1-1.3zm11.3 2.9l-.1 3.4h-1.3v-2.1h-6.1v2.1h-1.3l-.1-3.4h.1c.2 0 .4 0 .6-.1.2-.1.4-.2.5-.4s.3-.4.4-.8c.1-.3.3-.8.4-1.3.1-.5.2-1.2.3-1.9s.1-1.6.2-2.7h5.1v7.1l1.3.1zm-2.6-5.8h-2.3c-.1 1-.1 1.8-.2 2.4-.1.7-.2 1.2-.3 1.7s-.3.8-.4 1.1c-.2.3-.3.5-.5.6h3.8l-.1-5.8zm-846.1-46.4h-1.5v-9.5h-4.4v9.5h-1.5v-10.8h7.4v10.8zm9.6-4.2c0 .6-.1 1.2-.3 1.8-.2.5-.4 1-.8 1.4-.3.4-.8.7-1.3.9-.5.2-1.1.3-1.7.3-.6 0-1.1-.1-1.6-.3s-.9-.5-1.2-.8c-.3-.4-.6-.8-.8-1.3-.2-.5-.3-1.1-.3-1.8 0-.6.1-1.2.3-1.8s.4-1 .8-1.4c.3-.4.8-.7 1.3-.9.5-.2 1.1-.3 1.7-.3.6 0 1.1.1 1.6.3.5.2.9.5 1.2.8.3.4.6.8.8 1.3.2.5.3 1.1.3 1.8zm-1.5.1c0-.5-.1-1-.2-1.3s-.3-.7-.5-1c-.2-.3-.5-.5-.8-.6-.3-.1-.6-.2-1-.2s-.8.1-1.1.3-.6.4-.8.7c-.2.3-.3.6-.4 1-.1.4-.1.8-.1 1.2 0 .5.1 1 .2 1.4s.3.7.5 1c.2.3.5.5.8.6.3.1.6.2 1 .2s.8-.1 1.1-.3c.3-.2.6-.4.8-.7.2-.3.3-.6.4-1 .1-.5.1-.9.1-1.3zm10 3.8c-.4.1-.8.3-1.2.3-.4.1-.8.1-1.2.1-1.3 0-2.3-.4-3-1.1s-1.1-1.8-1.1-3.1c0-.7.1-1.3.3-1.8s.5-1 .9-1.4.8-.7 1.3-.9c.5-.2 1.1-.3 1.7-.3.4 0 .8 0 1.2.1s.7.2 1.1.3v1.4c-.4-.2-.7-.3-1.1-.4-.4-.1-.8-.1-1.2-.1-.4 0-.7.1-1 .2-.3.1-.6.3-.9.6s-.4.6-.6 1-.2.8-.2 1.3c0 1 .2 1.8.7 2.3.5.5 1.2.8 2 .8.4 0 .8 0 1.1-.1.4-.1.7-.2 1.1-.4v1.2zm10.2-6.8h-3.2v7.1h-1.5v-7.1h-3.2v-1.2h7.8l.1 1.2zm7.4 7.1v-1.1c-.5.4-.9.8-1.4 1-.5.2-1 .3-1.5.3s-.9-.1-1.2-.2-.6-.3-.8-.5-.4-.5-.5-.8c-.1-.3-.2-.6-.2-.9 0-.8.3-1.5.9-2 .6-.5 1.5-.7 2.8-.7h1.7v-.7c0-.5-.2-.9-.5-1.2s-.8-.4-1.4-.4c-.5 0-.9.1-1.4.2l-1.4.4v-1.3l.6-.2.7-.2s.5-.1.8-.1h.8c.5 0 1 .1 1.4.2s.7.3 1 .5c.3.2.5.5.6.9s.2.7.2 1.2v5.7l-1.2-.1zm-.1-3.8h-1.9c-.4 0-.7 0-.9.1s-.5.2-.6.3-.3.3-.4.5c-.1.2-.1.4-.1.6 0 .2 0 .3.1.5 0 .1.1.3.2.4s.3.2.4.3.4.1.6.1c.3 0 .7-.1 1.1-.3.4-.2.9-.5 1.4-1l.1-1.5zm11.3 1.4c0 .4-.1.7-.2 1s-.4.6-.7.8c-.3.2-.8.4-1.3.5-.5.1-1.1.2-1.8.2-.5 0-1 0-1.5-.1s-1-.1-1.5-.1v-8.2c.5-.1 1-.1 1.6-.1.5 0 1.1-.1 1.7-.1 1.1 0 2 .2 2.6.6s.9.9.9 1.6c0 .5-.1.9-.4 1.2s-.7.6-1.2.7c.3 0 .5.1.8.2.2.1.5.2.7.4l.5.6c-.3.3-.2.5-.2.8zm-1.9-3.6c0-.2 0-.4-.1-.5s-.2-.3-.4-.4c-.2-.1-.4-.2-.7-.3-.3-.1-.6-.1-1-.1h-.9c-.3 0-.5 0-.8.1v2.4h1.7c1.5 0 2.2-.4 2.2-1.2zm.3 3.6c0-.4-.2-.8-.6-1-.4-.2-1-.3-1.8-.3h-1.8v2.5l.8.1h.9c.5 0 .9 0 1.2-.1.3-.1.6-.2.8-.3.2-.1.3-.3.4-.4s.1-.3.1-.5zm3.1 2.4v-8.3h1.3v7.1h1.9v-7.1h1.3v7.1h1.9v-7.1h1.3v7.1h.7l-.1 3.3h-1.3v-2.1h-7zm11.6-8.3v5.9l3.6-5.9h1.4v8.3h-1.4v-5.8l-3.6 5.9h-1.4v-8.3h1.4zm15.2 8.3h-2l-3.9-4.5v4.5h-1.4v-8.3h1.4v3.8l3.7-3.8h1.9l-3.9 3.8 4.2 4.5zm-86.6 24.5c-2.6-2.4-3.8-5-3.8-7.8 0-.7.1-1.3.2-2s.4-1.3.7-2c.3-.7.7-1.3 1.2-2s1.1-1.3 1.8-2l.8.9c-2.1 2.1-3.2 4.5-3.2 7 0 1.3.3 2.5.8 3.7.5 1.2 1.3 2.3 2.4 3.4l-.9.8zm11.1-3.5h-1.4v-7.1h-3.8v7.1h-1.4v-8.3h6.6v8.3zm9.7-4.3c0 .7-.1 1.4-.3 1.9-.2.6-.5 1-.9 1.4s-.8.6-1.3.8c-.5.2-1 .3-1.6.3h-.8l-.8-.1v3.5h-1.4v-11.7h1.3l.1 1.4c.4-.6.9-1 1.3-1.2.5-.2 1-.3 1.5-.3s.9.1 1.3.3.7.5.9.8c.2.4.4.8.5 1.3.2.4.2 1 .2 1.6zm-1.4.1c0-.4 0-.8-.1-1.2-.1-.4-.2-.7-.3-.9s-.3-.5-.5-.6c-.2-.1-.5-.2-.8-.2-.2 0-.4 0-.6.1l-.6.3c-.2.1-.4.3-.6.5-.2.2-.5.5-.7.8v4l.8.3s.6.1.9.1c.8 0 1.4-.3 1.8-.8s.7-1.4.7-2.4zm10.7-.4v.9h-5.9c0 .9.2 1.5.7 2 .5.5 1.2.7 2.1.7h.7s.5 0 .7-.1.4-.1.7-.1l.6-.1v1.2c-.4.1-.8.2-1.3.3-.5.1-1 .1-1.5.1-.7 0-1.3-.1-1.8-.3-.5-.2-.9-.5-1.3-.8-.3-.4-.6-.8-.7-1.4-.2-.5-.2-1.1-.2-1.8 0-.6.1-1.1.3-1.7.2-.5.4-1 .7-1.4.3-.4.7-.7 1.2-.9s1-.3 1.6-.3c.6 0 1.1.1 1.5.3s.8.4 1.1.8c.3.3.5.7.7 1.2 0 .3.1.8.1 1.4zm-1.5-.2c0-.4 0-.7-.1-1-.1-.3-.2-.6-.4-.8-.2-.2-.4-.4-.7-.5-.3-.1-.6-.2-1-.2-.3 0-.6.1-.9.2s-.5.3-.7.5-.3.5-.5.8c-.1.3-.2.6-.2 1h4.5zm11.6 3.6l-.1 3.4h-1.3v-2.1h-6.1v2.1h-1.3l-.1-3.4h.1c.2 0 .4 0 .6-.1s.4-.2.5-.4.3-.4.4-.8c.1-.3.3-.8.4-1.3.1-.5.2-1.2.3-1.9.1-.7.1-1.6.2-2.7h5.1v7.1l1.3.1zm-2.7-5.9h-2.3c-.1 1-.1 1.8-.2 2.4-.1.7-.2 1.2-.3 1.7-.1.5-.3.8-.4 1.1s-.3.5-.5.6h3.8v-5.8zm5 2h1.1c.5 0 1 .1 1.4.2.4.1.7.3 1 .5.3.2.5.5.6.8s.2.7.2 1c0 .4-.1.8-.2 1.2s-.4.6-.6.8c-.3.2-.6.4-1 .5-.4.1-.9.2-1.4.2h-1.1l-1.2-.1v-8.3h1.4l-.2 3.2zm2.8 2.6c0-.4-.1-.8-.4-1s-.7-.4-1.3-.4h-1v2.7c.2 0 .3 0 .5.1h.5c.3 0 .6 0 .8-.1s.4-.2.5-.3c.1-.1.2-.3.3-.5 0-.1.1-.3.1-.5zm2.4 2.5v-8.3h1.4v8.3h-1.4zm11.1-1.2l-.1 3.4h-1.3v-2.1h-6.1v2.1h-1.2l-.1-3.4h.1c.2 0 .4 0 .6-.1s.4-.2.5-.4.3-.4.4-.8c.1-.3.3-.8.4-1.3.1-.5.2-1.2.3-1.9.1-.7.1-1.6.2-2.7h5.1v7.1l1.2.1zm-2.6-5.9h-2.3c-.1 1-.1 1.8-.2 2.4-.1.7-.2 1.2-.3 1.7-.1.5-.3.8-.4 1.1s-.3.5-.5.6h3.8v-5.8zm11.7-1.2l-2.8 7.5c-.3.8-.6 1.4-.9 2-.3.5-.7 1-1 1.3s-.8.6-1.2.8-.9.2-1.5.2h-.8v-1.3h.9c.3 0 .5 0 .7-.1.2-.1.4-.2.7-.4.2-.2.4-.4.6-.7.2-.3.4-.6.5-1l-3.3-8.3h1.6l2.1 5.5.4 1.3.5-1.3 2-5.5h1.5zm1.2 8.3v-8.3h1.3v7.1h1.9v-7.1h1.3v7.1h1.9v-7.1h1.3v7.1h.7l-.1 3.3h-1.3v-2.1h-7zm11.6-8.3v5.9l3.6-5.9h1.4v8.3h-1.4v-5.8l-3.6 5.9h-1.4v-8.3h1.4zm9.4 0v5.9l3.6-5.9h1.4v8.3h-1.4v-5.8l-3.6 5.9h-1.4v-8.3h1.4zm4.3-3.2c0 .3-.1.6-.2.9-.1.3-.3.5-.5.7-.2.2-.5.3-.8.4s-.7.1-1 .1c-.4 0-.8 0-1.1-.1s-.6-.2-.8-.4c-.2-.2-.3-.4-.4-.7s-.1-.5-.1-.9h1.3c0 .2 0 .3.1.4s.1.3.2.4c.1.1.2.2.4.3s.3.1.6.1c.2 0 .4 0 .6-.1.2-.1.3-.1.4-.3.1-.1.2-.2.2-.4s.1-.3.1-.4h1zm-78.7 32.5h-1.4v-7.1h-3.8v7.1h-1.4v-8.3h6.7l-.1 8.3zm9.8-4.3c0 .7-.1 1.4-.3 1.9-.2.6-.5 1-.9 1.4s-.8.6-1.3.8c-.5.2-1 .3-1.6.3h-.8l-.8-.1v3.5h-1.4v-11.7h1.3l.1 1.4c.4-.6.9-1 1.3-1.2s1-.3 1.5-.3.9.1 1.3.3.7.5.9.8.4.8.5 1.3.2 1 .2 1.6zm-1.5.1c0-.4 0-.8-.1-1.2-.1-.4-.2-.7-.3-.9s-.3-.5-.5-.6-.5-.2-.8-.2c-.2 0-.4 0-.6.1l-.6.3s-.4.3-.6.5c-.2.2-.5.5-.7.8v4l.8.3s.6.1.9.1c.8 0 1.4-.3 1.8-.8s.7-1.4.7-2.4zm11 0c0 .6-.1 1.2-.3 1.8-.2.5-.4 1-.8 1.4s-.8.7-1.3.9-1.1.3-1.7.3c-.6 0-1.1-.1-1.6-.3-.5-.2-.9-.5-1.2-.8-.3-.4-.6-.8-.8-1.3-.2-.5-.3-1.1-.3-1.8 0-.6.1-1.2.3-1.8s.4-1 .8-1.4.8-.7 1.3-.9 1.1-.3 1.7-.3c.6 0 1.1.1 1.6.3.5.2.9.5 1.2.8.3.4.6.8.8 1.3.2.5.3 1.1.3 1.8zm-1.5.1c0-.5-.1-1-.2-1.3-.1-.4-.3-.7-.5-1-.2-.3-.5-.5-.8-.6-.3-.1-.6-.2-1-.2s-.8.1-1.1.3c-.3.2-.6.4-.8.7-.2.3-.3.6-.4 1-.1.4-.1.8-.1 1.2 0 .5.1 1 .2 1.4.1.4.3.7.5 1 .2.3.5.5.8.6s.6.2 1 .2.8-.1 1.1-.3c.3-.2.6-.4.8-.7.2-.3.3-.6.4-1 .1-.5.1-.9.1-1.3zm11.2 2.9l-.1 3.4h-1.3v-2.1h-6.3v-8.3h1.4v7.1h3.8v-7.1h1.4v7.1l1.1-.1zm8.8-3.4v.9h-5.9c0 .9.2 1.5.7 2 .5.5 1.2.7 2.1.7h.7s.5 0 .7-.1.4-.1.7-.1l.6-.1v1.2c-.4.1-.8.2-1.3.3-.5.1-1 .1-1.5.1-.7 0-1.3-.1-1.8-.3-.5-.2-.9-.5-1.3-.8-.3-.4-.6-.8-.7-1.4-.2-.5-.2-1.1-.2-1.8 0-.6.1-1.1.3-1.7.2-.5.4-1 .7-1.4.3-.4.7-.7 1.2-.9s1-.3 1.6-.3c.6 0 1.1.1 1.5.3.4.2.8.4 1.1.8s.5.7.7 1.2c0 .3.1.8.1 1.4zm-1.5-.2c0-.4 0-.7-.1-1-.1-.3-.2-.6-.4-.8-.2-.2-.4-.4-.7-.5-.3-.1-.6-.2-1-.2-.3 0-.6.1-.9.2-.3.1-.5.3-.7.5-.2.2-.3.5-.5.8-.1.3-.2.6-.2 1h4.5zm10.3 4.5c-.4.1-.8.3-1.2.3-.4.1-.8.1-1.2.1-1.3 0-2.3-.4-3-1.1-.7-.7-1.1-1.8-1.1-3.1 0-.7.1-1.3.3-1.8s.5-1 .9-1.4.8-.7 1.3-.9c.5-.2 1.1-.3 1.7-.3.4 0 .8 0 1.2.1l1.1.3v1.4c-.4-.2-.7-.3-1.1-.4-.4-.1-.8-.1-1.2-.1-.4 0-.7.1-1.1.2-.3.1-.6.3-.9.6s-.4.6-.6 1-.2.8-.2 1.3c0 1 .2 1.8.7 2.3.5.5 1.2.8 2 .8.4 0 .8 0 1.1-.1.4-.1.7-.2 1.1-.4.2-.1.2 1.2.2 1.2zm9.3 0c-.4.1-.8.3-1.2.3-.4.1-.8.1-1.2.1-1.3 0-2.3-.4-3-1.1-.7-.7-1.1-1.8-1.1-3.1 0-.7.1-1.3.3-1.8s.5-1 .9-1.4.8-.7 1.3-.9c.5-.2 1.1-.3 1.7-.3.4 0 .8 0 1.2.1l1.1.3v1.4c-.4-.2-.7-.3-1.1-.4-.4-.1-.8-.1-1.2-.1-.4 0-.7.1-1.1.2-.3.1-.6.3-.9.6s-.4.6-.6 1-.2.8-.2 1.3c0 1 .2 1.8.7 2.3.5.5 1.2.8 2 .8.4 0 .8 0 1.1-.1.4-.1.7-.2 1.1-.4l.2 1.2zm4.6-12c2.6 2.4 3.8 5 3.8 7.9 0 .6-.1 1.2-.2 1.9-.1.6-.3 1.3-.6 2s-.7 1.4-1.2 2c-.5.7-1.1 1.4-1.9 2.1l-.8-.9c1.1-1.1 1.9-2.2 2.4-3.3s.8-2.4.8-3.7c0-2.6-1.1-5-3.2-7.1l.9-.9zm841.8-19.2h-1.5v-9.5h-4.4v9.5h-1.5v-10.8h7.4v10.8zm9.5-4.2c0 .6-.1 1.2-.3 1.8-.2.5-.4 1-.8 1.4-.3.4-.8.7-1.3.9-.5.2-1.1.3-1.7.3-.6 0-1.1-.1-1.6-.3-.5-.2-.9-.5-1.2-.8s-.6-.8-.8-1.3c-.2-.5-.3-1.1-.3-1.8 0-.6.1-1.2.3-1.8.2-.5.4-1 .8-1.4.3-.4.8-.7 1.3-.9.5-.2 1.1-.3 1.7-.3.6 0 1.1.1 1.6.3.5.2.9.5 1.2.8.3.4.6.8.8 1.3.3.5.3 1.1.3 1.8zm-1.4.1c0-.5-.1-1-.2-1.3s-.3-.7-.5-1c-.2-.3-.5-.5-.8-.6s-.6-.2-1-.2-.8.1-1.1.3c-.3.2-.6.4-.8.7s-.3.6-.4 1c-.1.4-.1.8-.1 1.2 0 .5.1 1 .2 1.4s.3.7.5 1c.2.3.5.5.8.6.3.1.6.2 1 .2s.8-.1 1.1-.3c.3-.2.6-.4.8-.7s.3-.6.4-1c0-.5.1-.9.1-1.3zm10.8-3h-3.2v7.1h-1.5v-7.1h-3.1v-1.2h7.8v1.2zm9.2 2.8c0 .7-.1 1.4-.3 1.9-.2.6-.5 1-.9 1.4s-.8.6-1.3.8-1 .3-1.6.3h-.8s-.5-.1-.8-.1v3.5h-1.4v-11.8h1.3l.1 1.4c.4-.6.9-1 1.3-1.2.5-.2 1-.3 1.5-.3s.9.1 1.3.3c.4.2.7.5.9.8.2.4.4.8.5 1.3.1.5.2 1.1.2 1.7zm-1.5.1c0-.4 0-.8-.1-1.2s-.2-.7-.3-.9-.3-.5-.5-.6c-.2-.1-.5-.2-.8-.2-.2 0-.4 0-.6.1l-.6.3c-.2.1-.4.3-.6.5-.2.2-.5.5-.7.8v4l.8.3c.3.1.6.1.9.1.8 0 1.4-.3 1.8-.8.5-.6.7-1.4.7-2.4zm10.8-.4v.9h-5.9c0 .9.2 1.5.7 2 .5.5 1.2.7 2.1.7h.7c.2 0 .5 0 .7-.1s.4-.1.7-.1l.6-.1v1.2c-.4.1-.8.2-1.3.3s-1 .1-1.5.1c-.7 0-1.3-.1-1.8-.3s-.9-.5-1.3-.8c-.3-.4-.6-.8-.7-1.4-.2-.5-.2-1.1-.2-1.8 0-.6.1-1.1.3-1.7.2-.5.4-1 .7-1.4.3-.4.7-.7 1.2-.9s1-.3 1.6-.3c.6 0 1.1.1 1.5.3.4.2.8.4 1.1.8.3.3.5.7.7 1.2 0 .3.1.8.1 1.4zm-1.5-.2c0-.4 0-.7-.1-1-.1-.3-.2-.6-.4-.8s-.4-.4-.7-.5c-.3-.1-.6-.2-1-.2-.3 0-.6.1-.9.2-.3.1-.5.3-.7.5s-.3.5-.5.8c-.1.3-.2.6-.2 1h4.5zm4.9-1.6c.4-.5.8-.9 1.3-1.2.5-.3 1-.4 1.6-.4.5 0 .9.1 1.3.3.4.2.7.4 1 .8.3.3.5.8.7 1.3.2.5.2 1.1.2 1.7 0 .6-.1 1.2-.3 1.7-.2.5-.5 1-.8 1.3s-.8.7-1.2.9c-.5.2-1 .3-1.6.3-.6 0-1.1-.1-1.6-.3-.5-.2-.8-.5-1.1-1-.3-.4-.5-1-.7-1.6-.2-.7-.2-1.4-.2-2.3 0-1.1.1-2 .3-2.8.2-.8.5-1.4.8-1.9s.8-.9 1.3-1.2c.5-.3 1.1-.5 1.8-.6l.6-.1c.2 0 .4-.1.7-.1.2 0 .4 0 .6-.1s.4-.1.5-.1v1.3c-.1 0-.2.1-.4.1-.1 0-.3 0-.4.1-.2 0-.3 0-.5.1s-.3 0-.5.1c-.6.1-1.2.2-1.6.4-.4.2-.8.4-1 .8s-.4.7-.6 1.2c0 .1-.2.7-.2 1.3zm4.7 2.4c0-.5-.1-.9-.2-1.3s-.3-.7-.4-.9-.4-.4-.6-.5-.5-.2-.7-.2c-.3 0-.5 0-.7.1l-.6.3c-.2.1-.4.3-.6.6s-.4.5-.7.8v.2c0 .8.1 1.4.2 1.9s.3.9.5 1.1.4.5.7.6c.3.1.6.2.9.2.4 0 .7-.1 1-.2.3-.2.5-.4.7-.6.2-.3.3-.6.4-.9s.1-.8.1-1.2zm5.1-4.3v5.9l3.6-5.9h1.4v8.3h-1.4v-5.9l-3.6 5.9h-1.5v-8.3h1.5zm15 1.2h-3.2v7.1h-1.5v-7.1h-3.2v-1.2h7.8v1.2zm9.2 2.5v.9h-5.9c0 .9.2 1.5.7 2 .5.5 1.2.7 2.1.7h.7c.2 0 .5 0 .7-.1s.4-.1.7-.1l.6-.1v1.2c-.4.1-.8.2-1.3.3s-1 .1-1.5.1c-.7 0-1.3-.1-1.8-.3s-.9-.5-1.3-.8c-.3-.4-.6-.8-.7-1.4-.2-.5-.2-1.1-.2-1.8 0-.6.1-1.1.3-1.7.2-.5.4-1 .7-1.4.3-.4.7-.7 1.2-.9s1-.3 1.6-.3c.6 0 1.1.1 1.5.3.4.2.8.4 1.1.8.3.3.5.7.7 1.2 0 .3.1.8.1 1.4zm-1.5-.2c0-.4 0-.7-.1-1-.1-.3-.2-.6-.4-.8s-.4-.4-.7-.5c-.3-.1-.6-.2-1-.2-.3 0-.6.1-.9.2-.3.1-.5.3-.7.5s-.3.5-.5.8c-.1.3-.2.6-.2 1h4.5zm10.4 4.8h-1.4v-7.1h-2.3c-.1 1.1-.2 2.1-.3 2.9s-.3 1.5-.5 2-.4 1-.6 1.3-.5.5-.8.7c-.3.1-.6.2-.9.2-.3 0-.6 0-.9-.1l.1-1.2h.6s.4-.2.5-.3c.2-.2.3-.4.5-.7.1-.3.3-.7.4-1.3s.2-1.2.3-2c.1-.8.1-1.7.2-2.8h5.1v8.4zm4.2-5.2h1.8c1.3 0 2.2.2 2.9.7.6.4.9 1.1.9 1.9 0 .9-.3 1.6-1 2-.7.5-1.7.7-3 .7h-1.6c-.5 0-1-.1-1.4-.1v-8.3h1.4v3.1zm4.1 2.6c0-.2 0-.4-.1-.6-.1-.2-.2-.3-.4-.4-.2-.1-.4-.2-.7-.3s-.7-.1-1.1-.1h-1.8v2.8c.3 0 .6 0 .8.1h.9c.5 0 .9 0 1.2-.1.3-.1.6-.1.7-.3.2-.1.3-.3.4-.5s.1-.3.1-.6zm-84.7 27.1c-2.6-2.4-3.8-5-3.8-7.8 0-.7.1-1.3.2-2s.4-1.3.7-2c.3-.7.7-1.3 1.2-2s1.1-1.3 1.8-2l.8.9c-2.1 2.1-3.2 4.5-3.2 7 0 1.3.3 2.5.8 3.7.5 1.2 1.3 2.3 2.4 3.4l-.9.8zm11-3.5h-1.4v-7.1h-3.8v7.1h-1.4v-8.3h6.7l-.1 8.3zm9.8-4.3c0 .7-.1 1.4-.3 1.9-.2.6-.5 1-.9 1.4s-.8.6-1.3.8c-.5.2-1 .3-1.6.3h-.8l-.8-.1v3.5h-1.4v-11.8h1.3l.1 1.4c.4-.6.9-1 1.3-1.2s1-.3 1.5-.3.9.1 1.3.3c.4.2.7.5.9.8s.4.8.5 1.3.2 1.1.2 1.7zm-1.5.1c0-.4 0-.8-.1-1.2s-.2-.7-.3-.9-.3-.5-.5-.6-.5-.2-.8-.2c-.2 0-.4 0-.6.1l-.6.3s-.4.3-.6.5c-.2.2-.5.5-.7.8v4l.8.3c.3.1.6.1.9.1.8 0 1.4-.3 1.8-.8s.7-1.4.7-2.4zm11 0c0 .6-.1 1.2-.3 1.8-.2.5-.4 1-.8 1.4s-.8.7-1.3.9c-.5.2-1.1.3-1.7.3-.6 0-1.1-.1-1.6-.3-.5-.2-.9-.5-1.2-.8s-.6-.8-.8-1.3c-.2-.5-.3-1.1-.3-1.8 0-.6.1-1.2.3-1.8.2-.5.4-1 .8-1.4s.8-.7 1.3-.9c.5-.2 1.1-.3 1.7-.3.6 0 1.1.1 1.6.3.5.2.9.5 1.2.8.3.4.6.8.8 1.3.2.5.3 1.1.3 1.8zm-1.5.1c0-.5-.1-1-.2-1.3s-.3-.7-.5-1c-.2-.3-.5-.5-.8-.6s-.6-.2-1-.2-.8.1-1.1.3c-.3.2-.6.4-.8.7s-.3.6-.4 1c-.1.4-.1.8-.1 1.2 0 .5.1 1 .2 1.4.1.4.3.7.5 1 .2.3.5.5.8.6s.6.2 1 .2.8-.1 1.1-.3c.3-.2.6-.4.8-.7.2-.3.3-.6.4-1 .1-.5.1-.9.1-1.3zm11.2 2.9l-.1 3.4h-1.3v-2.1h-6.3v-8.4h1.4v7.1h3.8v-7.1h1.4v7.1h1.1zm8.8-3.4v.9h-5.9c0 .9.2 1.5.7 2 .5.5 1.2.7 2.1.7h.7c.2 0 .5 0 .7-.1s.4-.1.7-.1l.6-.1v1.2c-.4.1-.8.2-1.3.3s-1 .1-1.5.1c-.7 0-1.3-.1-1.8-.3-.5-.2-.9-.5-1.3-.8s-.6-.8-.7-1.4c-.2-.5-.2-1.1-.2-1.8 0-.6.1-1.1.3-1.7.2-.5.4-1 .7-1.4.3-.4.7-.7 1.2-.9s1-.3 1.6-.3c.6 0 1.1.1 1.5.3.4.2.8.4 1.1.8.3.3.5.7.7 1.2 0 .3.1.8.1 1.4zm-1.5-.2c0-.4 0-.7-.1-1-.1-.3-.2-.6-.4-.8s-.4-.4-.7-.5c-.3-.1-.6-.2-1-.2-.3 0-.6.1-.9.2-.3.1-.5.3-.7.5-.2.2-.3.5-.5.8-.1.3-.2.6-.2 1h4.5zm10.2 4.5c-.4.1-.8.3-1.2.3s-.8.1-1.2.1c-1.3 0-2.3-.4-3-1.1-.7-.7-1.1-1.8-1.1-3.1 0-.7.1-1.3.3-1.8.2-.5.5-1 .9-1.4.4-.4.8-.7 1.3-.9.5-.2 1.1-.3 1.7-.3.4 0 .8 0 1.2.1l1.1.3v1.4c-.4-.2-.7-.3-1.1-.4-.4-.1-.8-.1-1.2-.1-.4 0-.7.1-1 .2-.3.1-.6.3-.9.6-.2.3-.4.6-.6 1s-.2.8-.2 1.3c0 1 .2 1.8.7 2.3.5.5 1.2.8 2 .8.4 0 .8 0 1.1-.1.4-.1.7-.2 1.1-.4l.1 1.2zm9.4 0c-.4.1-.8.3-1.2.3s-.8.1-1.2.1c-1.3 0-2.3-.4-3-1.1-.7-.7-1.1-1.8-1.1-3.1 0-.7.1-1.3.3-1.8.2-.5.5-1 .9-1.4.4-.4.8-.7 1.3-.9.5-.2 1.1-.3 1.7-.3.4 0 .8 0 1.2.1l1.1.3v1.4c-.4-.2-.7-.3-1.1-.4-.4-.1-.8-.1-1.2-.1-.4 0-.7.1-1 .2-.3.1-.6.3-.9.6-.3.3-.4.6-.6 1s-.2.8-.2 1.3c0 1 .2 1.8.7 2.3.5.5 1.2.8 2 .8.4 0 .8 0 1.1-.1.4-.1.7-.2 1.1-.4l.1 1.2zm4.6-12c2.6 2.4 3.8 5 3.8 7.9 0 .6-.1 1.2-.2 1.9-.1.6-.3 1.3-.6 2s-.7 1.4-1.2 2-1.1 1.4-1.9 2.1l-.8-.9c1.1-1.1 1.9-2.2 2.4-3.3s.8-2.4.8-3.7c0-2.6-1.1-5-3.2-7.1l.9-.9z"/></svg>