<svg xmlns="http://www.w3.org/2000/svg" viewBox="0 0 487.3 304.4" enable-background="new 0 0 487.3 304.4"><style type="text/css">.st0{fill:none;stroke:#666666;stroke-miterlimit:10;} .st1{fill:none;stroke:#666666;stroke-width:0.7519;stroke-miterlimit:10;} .st2{fill:#666666;} .st3{fill:#29ABE2;stroke:#666666;stroke-width:0.6534;stroke-miterlimit:10;} .st4{fill:none;} .st5{fill:#E6E7E8;stroke:#8E8E8E;stroke-width:1.2776;stroke-miterlimit:10;} .st6{fill:#444A98;stroke:#666666;stroke-width:2;stroke-miterlimit:10;} .st7{fill:#AACE44;stroke:#666666;stroke-width:2;stroke-miterlimit:10;} .st8{fill:#F6EB0F;stroke:#666666;stroke-width:2;stroke-miterlimit:10;} .st9{fill:#8E8E8E;stroke:#666666;stroke-width:0.5392;stroke-miterlimit:10;} .st10{fill:#FFFFFF;} .st11{fill:none;stroke:#929497;stroke-width:0.6817;stroke-miterlimit:10;stroke-dasharray:4.3269;}</style><path class="st0" d="M237.7 184.1h5.5v-76h54v13.5"/><path class="st1" d="M455.2 153.3c0 83.5-72.5 151.2-162 151.2s-162-67.7-162-151.2 72.5-151.2 162-151.2c89.4 0 162 67.7 162 151.2z"/><path class="st2" d="M297.2 126.4l-2.6-6.5 2.6 1.5 2.7-1.5-2.7 6.5z"/><path class="st0" d="M332.7 204.1h8.5v-75h47v13.5"/><path class="st2" d="M388.3 147.3l-2.6-6.5 2.6 1.5 2.7-1.5-2.7 6.5z"/><path class="st3" d="M203.8 195l-34.7-11 34.7-10.6 34.6 10.8-34.6 10.8z"/><path class="st4" d="M194.1 193.5h14.4v10.9h-14.4v-10.9z"/><path class="st5" d="M11.9 175.6h100.4l-9.2 46.3h-100l8.8-46.3z"/><path class="st6" d="M235.7 89.8c0 4.3-3.5 7.8-7.8 7.8h-52.3c-4.3 0-7.8-3.5-7.8-7.8v-5.3c0-4.3 3.5-7.8 7.8-7.8h52.3c4.3 0 7.8 3.5 7.8 7.8v5.3zm187 167c0 4.3-3.5 7.8-7.8 7.8h-52.3c-4.3 0-7.8-3.5-7.8-7.8v-5.3c0-4.3 3.5-7.8 7.8-7.8h52.3c4.3 0 7.8 3.5 7.8 7.8v5.3zm-188 0c0 4.3-3.5 7.8-7.8 7.8h-52.3c-4.3 0-7.8-3.5-7.8-7.8v-5.3c0-4.3 3.5-7.8 7.8-7.8h52.3c4.3 0 7.8 3.5 7.8 7.8v5.3z"/><path class="st7" d="M166.7 112.6h70v23h-70v-23z"/><path class="st8" d="M166.7 38.6h70v21h-70v-21zm97 0h70v21h-70v-21zm91 0h72v21h-72v-21z"/><path class="st7" d="M263.7 127.6h70v21h-70v-21zm91 20h72v22h-72v-22zm0 34h72v22h-72v-22zm0 33h72v21h-72v-21zm-91-51h70v21h-70v-21zm-97-21h70v23h-70v-23zm0 61h70v22h-70v-22z"/><path class="st3" d="M297.8 215.9l-34.6-11 34.6-10.6 34.7 10.8-34.7 10.8z"/><path class="st9" d="M154.5 96.2h-40.7l-8.1-8.7 8.1-8.8h40.8l8.1 8.7-8.2 8.8zm321 166.1h-40.7l-8.1-8.8 8.1-8.7h40.8l8.1 8.6-8.2 8.9z"/><path class="st4" d="M18.3 181.4h82.2v38.2h-82.2v-38.2z"/><path d="M26.1 192.4c.2 0 .4.1.5.1h.5c.2 0 .5 0 .7-.1s.4-.2.6-.4.4-.4.5-.7.3-.7.5-1.1l-4.2-8h1.8l2.3 4.4.8 1.7.6-1.6 1.8-4.5h1.7l-3.5 8.5-.6 1.2c-.2.4-.4.7-.7 1s-.6.5-.9.7-.7.2-1.2.2h-.6c-.2 0-.5-.1-.7-.2l.1-1.2zm17.5-3.2c0 .8-.1 1.5-.3 2.1s-.5 1.1-.9 1.5-.8.7-1.4.9-1.1.3-1.7.3h-.8s-.6-.1-.8-.1v3.7h-1.7v-12.6h1.4l.1 1.5c.4-.6.9-1 1.4-1.3s1-.4 1.6-.4c.5 0 .9.1 1.3.3s.7.5 1 .9.5.8.6 1.4.2 1.2.2 1.8zm-1.6.1c0-.5 0-.9-.1-1.3s-.2-.7-.3-1-.3-.5-.6-.6c-.2-.2-.5-.2-.8-.2-.2 0-.4 0-.6.1l-.6.3c-.2.1-.4.3-.7.6-.2.2-.5.5-.8.9v4.3l.9.3s.6.1.9.1c.8 0 1.5-.3 1.9-.8s.8-1.6.8-2.7zm11.6 0c0 .7-.1 1.3-.3 1.9-.2.6-.5 1.1-.8 1.5s-.8.7-1.3.9-1.2.4-1.8.4-1.2-.1-1.7-.3-.9-.5-1.3-.9-.6-.9-.8-1.4c-.2-.6-.3-1.2-.3-1.9s.1-1.3.3-1.9c.2-.6.5-1.1.8-1.5.4-.4.8-.7 1.3-.9s1.1-.3 1.8-.3c.6 0 1.2.1 1.7.3s.9.5 1.3.9c.3.4.6.8.8 1.4.2.4.3 1.1.3 1.8zm-1.6.1c0-.5-.1-1-.2-1.4-.1-.4-.3-.7-.5-1s-.5-.5-.8-.6-.7-.2-1.1-.2c-.5 0-.8.1-1.2.3-.3.2-.6.4-.8.7s-.4.6-.5 1-.1.8-.1 1.2c0 .5.1 1 .2 1.4s.3.8.5 1c.2.3.5.5.8.6s.7.2 1.1.2c.5 0 .8-.1 1.2-.3.3-.2.6-.4.8-.7s.4-.6.5-1 .1-.8.1-1.2zm11.4 1.8c0 .4-.1.8-.3 1.1s-.4.6-.8.9c-.4.2-.8.4-1.4.6-.5.1-1.2.2-2 .2-.5 0-1 0-1.6-.1-.6 0-1.1-.1-1.6-.2v-8.7c.6-.1 1.1-.1 1.7-.1s1.2-.1 1.8-.1c1.2 0 2.1.2 2.7.6.6.4.9 1 .9 1.7 0 .5-.1.9-.4 1.3s-.7.6-1.3.8c.3 0 .6.1.8.2.3.1.5.3.7.4.2.2.4.4.5.6.2.3.3.5.3.8zm-2-3.8c0-.2 0-.4-.1-.6s-.2-.3-.4-.4-.4-.2-.7-.3-.6-.1-1-.1h-1s-.5 0-.8.1v2.5h1.8c1.4.1 2.2-.3 2.2-1.2zm.4 3.9c0-.5-.2-.8-.6-1-.4-.2-1.1-.3-1.9-.3h-1.9v2.7l.9.1h1c.5 0 1 0 1.3-.1s.6-.2.8-.3.3-.3.4-.5v-.6zm11.4-2.4v.9h-6.2c0 .9.3 1.6.8 2.1s1.2.7 2.2.7h.8s.5 0 .7-.1.5-.1.7-.1l.6-.1v1.3c-.4.1-.9.2-1.4.3s-1.1.1-1.6.1c-.8 0-1.4-.1-2-.3s-1-.5-1.3-.9-.6-.9-.8-1.4c-.2-.6-.3-1.2-.3-1.9 0-.6.1-1.2.3-1.8.2-.6.4-1 .8-1.5.3-.4.8-.8 1.3-1s1.1-.4 1.7-.4 1.2.1 1.6.3.9.5 1.2.8c.3.4.6.8.7 1.3s.2 1.1.2 1.7zm-1.6-.2c0-.4 0-.8-.1-1.1s-.2-.6-.4-.8-.4-.4-.7-.5c-.3-.1-.6-.2-1-.2-.3 0-.6.1-.9.2s-.5.3-.7.5-.4.5-.5.8-.2.7-.2 1.1h4.5zm11.1 5.1h-1.5v-3.9h-4v3.9h-1.5v-8.8h1.5v3.6h4v-3.6h1.5v8.8zm4.4-5.5h1.9c1.4 0 2.4.2 3 .7.7.5 1 1.1 1 2 0 1-.3 1.7-1 2.2s-1.8.7-3.2.7h-1.7l-1.5-.1v-8.8h1.5v3.3zm4.4 2.8c0-.2 0-.5-.1-.6-.1-.2-.2-.3-.4-.5-.2-.1-.5-.2-.8-.3s-.7-.1-1.1-.1h-1.8v2.9l.9.1h.9c.5 0 .9 0 1.2-.1.3-.1.6-.2.8-.3s.3-.3.4-.5c-.1-.1 0-.4 0-.6zm-65.6 22.7l.8.2s.6.1.9.1.6.1.8.1h.7c.5 0 .9 0 1.2-.1.3-.1.6-.2.8-.3.2-.1.3-.3.4-.4.1-.2.1-.4.1-.6 0-.2 0-.4-.1-.6-.1-.2-.2-.3-.4-.5-.2-.1-.5-.2-.8-.3s-.7-.1-1.3-.1h-2v-1.2h2.2c.4 0 .8 0 1.1-.1.3-.1.5-.1.7-.3s.3-.2.3-.4.1-.3.1-.5 0-.4-.1-.5c-.1-.2-.2-.3-.4-.4s-.4-.2-.7-.3-.6-.1-1-.1c-.5 0-1 0-1.5.1s-1.1.2-1.6.3v-1.3c.2-.1.5-.1.8-.1s.6-.1.8-.1.6-.1.9-.1h.8c.7 0 1.3.1 1.7.2.5.1.8.3 1.1.5.3.2.5.4.6.7s.2.6.2.9c0 .2 0 .5-.1.7l-.3.6s-.3.3-.6.4c-.2.1-.5.2-.8.3.3 0 .6.1.9.2.3.1.5.3.7.4s.4.4.5.6c.1.2.2.5.2.8 0 .4-.1.7-.2 1.1-.2.3-.4.6-.7.9-.3.2-.8.4-1.3.6s-1.2.2-2 .2h-.7c-.3 0-.5 0-.8-.1-.3 0-.6-.1-.8-.1l-.8-.1v-1.3h-.3zm15.8 1.6v-1.2c-.5.5-1 .8-1.5 1s-1 .3-1.6.3c-.5 0-.9-.1-1.3-.2s-.7-.3-.9-.5-.4-.5-.5-.8-.2-.6-.2-1c0-.9.3-1.6 1-2.1s1.6-.8 2.9-.8h1.8v-.8c0-.5-.2-.9-.5-1.3s-.8-.5-1.5-.5c-.5 0-1 .1-1.5.2s-1 .3-1.5.5v-1.2l.6-.2c.2-.1.5-.1.8-.2s.5-.1.8-.1h.9c.5 0 1 .1 1.4.2s.8.3 1.1.5.5.5.7.9.2.8.2 1.3v6.1l-1.2-.1zm-.2-4h-1.9c-.4 0-.7 0-1 .1s-.5.2-.7.3-.3.3-.4.5c-.1.2-.1.4-.1.7 0 .2 0 .3.1.5s.1.3.3.4c.1.1.3.2.5.3s.4.1.7.1c.4 0 .8-.1 1.2-.3.5-.2.9-.6 1.4-1l-.1-1.6zm12.6 2.7l-.1 3.6h-1.4v-2.3h-6.4v2.3h-1.4l-.1-3.6h.1c.2 0 .4 0 .6-.1s.4-.2.6-.4c.2-.2.3-.5.5-.8.1-.3.3-.8.4-1.4.1-.6.2-1.2.3-2s.2-1.7.2-2.8h5.4v7.5h1.3zm-2.8-6.2h-2.5c-.1 1-.1 1.9-.2 2.6s-.2 1.3-.3 1.8l-.4 1.2s-.3.5-.5.7h4l-.1-6.3zm10.2 7.5v-1.2c-.5.5-1 .8-1.5 1s-1 .3-1.6.3c-.5 0-.9-.1-1.3-.2s-.7-.3-.9-.5-.4-.5-.5-.8-.2-.6-.2-1c0-.9.3-1.6 1-2.1s1.6-.8 2.9-.8h1.8v-.8c0-.5-.2-.9-.5-1.3s-.8-.5-1.5-.5c-.5 0-1 .1-1.5.2s-1 .3-1.5.5v-1.2l.6-.2c.2-.1.5-.1.8-.2s.5-.1.8-.1h.9c.5 0 1 .1 1.4.2s.8.3 1.1.5.5.5.7.9.2.8.2 1.3v6.1l-1.2-.1zm-.2-4h-1.9c-.4 0-.7 0-1 .1s-.5.2-.7.3-.3.3-.4.5c-.1.2-.1.4-.1.7 0 .2 0 .3.1.5s.1.3.3.4c.1.1.3.2.5.3s.4.1.7.1c.4 0 .8-.1 1.2-.3.5-.2.9-.6 1.4-1l-.1-1.6zm11.5 4h-1.5v-3.9h-4v3.9h-1.5v-8.8h1.5v3.6h4v-3.6h1.5v8.8zm4.5-8.8v6.2l3.8-6.2h1.5v8.8h-1.5v-6.2l-3.8 6.2h-1.5v-8.8h1.5zm8.8 6.3c.2-.4.4-.7.6-.9s.5-.4.9-.4c-.4-.1-.7-.2-.9-.3s-.4-.3-.6-.6c-.1-.2-.2-.4-.3-.7-.1-.2-.1-.5-.1-.7 0-.4.1-.8.2-1.1s.3-.6.6-.9.7-.5 1.1-.6c.5-.1 1.1-.2 2-.2h1.4s.9.1 1.4.1v8.8h-1.4v-3.4h-1.3c-.2 0-.4 0-.6.1-.2 0-.4.1-.6.2s-.3.2-.5.4-.3.4-.4.6l-1 2.1h-1.7l1.2-2.5zm1.2-3.7c0 .5.2.9.5 1.1.3.3.9.4 1.5.4h1.7v-3c-.3 0-.5 0-.7-.1h-.7c-.5 0-.9 0-1.2.1s-.5.2-.6.3c-.2.1-.3.3-.3.5s-.2.5-.2.7z"/><path class="st4" d="M169.9 82.7h62.3v11h-62.3v-11z"/><path class="st10" d="M190.4 88.9c0 .4-.1.7-.2 1s-.4.5-.6.7-.6.3-1 .4-.8.1-1.2.1h-.6s-.4 0-.6-.1-.4-.1-.5-.1-.3-.1-.4-.1v-1c.3.1.6.2 1 .3s.8.1 1.2.1c.3 0 .6 0 .9-.1s.4-.1.6-.2.3-.2.3-.4.1-.3.1-.5-.1-.4-.2-.5-.3-.3-.5-.4l-.6-.3s-.5-.2-.7-.3-.5-.2-.7-.3-.5-.3-.6-.4-.3-.4-.5-.6-.2-.5-.2-.8.1-.5.2-.8.3-.5.5-.7.5-.4.9-.5.8-.2 1.3-.2h.4s.3 0 .5.1.3 0 .5.1.3.1.4.1v.9c-.3-.1-.6-.2-.9-.2s-.6-.1-.9-.1c-.6 0-1 .1-1.3.3s-.4.5-.4.8c0 .2.1.4.2.5s.3.3.5.4l.6.3s.5.2.7.3.5.2.7.3.5.3.6.4.3.4.5.6v.9zm6.4 2c-.2.1-.5.1-.7.1h-.8c-.7 0-1.3-.2-1.7-.5s-.5-.8-.5-1.5v-3.1h-1.6v-.9h1.6v-1.6l1-.3v1.9h2.6v.9h-2.6v3c0 .4.1.7.3.9s.6.3 1 .3h.6s.5-.1.7-.1l.1.9zm5.6 0v-.8c-.3.3-.6.5-1 .7s-.7.2-1 .2-.6 0-.9-.1-.4-.2-.6-.4-.3-.3-.3-.5-.1-.4-.1-.7c0-.6.2-1.1.7-1.4s1.1-.5 1.9-.5h1.2v-.4c0-.3-.1-.6-.3-.8s-.6-.3-1-.3c-.3 0-.7 0-1 .1s-.7.2-1 .3v-.9l.4-.1s.3-.1.5-.1.4-.1.6-.1h.6c.4 0 .7 0 1 .1s.5.2.7.4.3.4.5.6.2.5.2.9v4.1h-1.1v-.3zm-.1-2.6h-1.3c-.3 0-.5 0-.7.1s-.3.1-.5.2l-.3.3s-.1.3-.1.4 0 .2.1.3.1.2.2.3.2.1.3.2.3.1.5.1.5-.1.8-.2.6-.4 1-.7v-1zm3.2-3.2h.9v1.1c.3-.4.7-.7 1-.9s.7-.3 1-.3c.6 0 1.1.2 1.4.6s.5 1 .4 1.8h-1c0-.5-.1-.9-.2-1.1s-.4-.3-.7-.3c-.1 0-.3 0-.4.1s-.3.1-.4.2-.3.2-.5.4-.3.4-.5.6v3.8h-1v-6zm11.1 5.8c-.2.1-.5.1-.7.1h-.8c-.7 0-1.3-.2-1.7-.5s-.5-.8-.5-1.5v-3.1h-1.6v-.9h1.6v-1.6l1-.3v1.9h2.6v.9h-2.5v3c0 .4.1.7.3.9s.6.3 1 .3h.6s.5-.1.7-.1v.9z"/><path class="st4" d="M165.6 249.1h68.1v9h-68.1v-9z"/><path class="st10" d="M189.4 257.3h-1.4l-2.9-3.8v3.8h-1v-7.7h1v3.6l2.8-3.6h1.2l-3 3.6 3.3 4.1zm6.5-3c0 .5-.1.9-.2 1.3s-.3.7-.6 1-.5.5-.9.6-.7.2-1.2.2c-.4 0-.8-.1-1.1-.2s-.6-.3-.9-.6-.4-.6-.5-.9-.2-.8-.2-1.3.1-.9.2-1.3.3-.7.6-1 .5-.5.9-.6.7-.2 1.2-.2c.4 0 .8.1 1.1.2s.6.3.9.6.4.6.5.9.2.9.2 1.3zm-1.1.1c0-.4 0-.7-.1-1s-.2-.5-.3-.7-.3-.3-.5-.4-.4-.1-.7-.1-.6.1-.8.2-.4.3-.5.5-.2.4-.3.7-.1.5-.1.8c0 .4 0 .7.1 1s.2.5.3.7.3.3.5.4.4.1.7.1.6-.1.8-.2.4-.3.5-.5.2-.4.3-.7.1-.5.1-.8zm7.3 2.9h-1v-2.6h-2.7v2.6h-1v-5.9h1v2.4h2.7v-2.4h1v5.9zm6.8-3.2v.7h-4.1c0 .6.2 1.1.5 1.4s.8.5 1.5.5h.5s.3 0 .5-.1.3 0 .5-.1.3-.1.4-.1v.8l-.9.2s-.7.1-1.1.1c-.5 0-.9-.1-1.3-.2s-.7-.3-.9-.6-.4-.6-.5-1-.2-.8-.2-1.3c0-.4.1-.8.2-1.2s.3-.7.5-1 .5-.5.8-.7.7-.2 1.1-.2c.4 0 .8.1 1.1.2s.6.3.8.5.4.5.5.9.1.8.1 1.2zm-1-.2c0-.3 0-.5-.1-.7l-.3-.6s-.3-.3-.5-.4-.4-.1-.7-.1c-.2 0-.4 0-.6.1s-.3.2-.5.4-.2.3-.3.6-.1.5-.2.7h3.2zm8 2.6l-.1 2.4h-.8v-1.5h-4.4v-5.9h1v5h2.7v-5h1v5h.6z"/><path class="st4" d="M356.3 249.3h69.6v11h-69.6v-11z"/><path class="st10" d="M380.8 257.6h-1.3l-2.9-3.8v3.8h-1v-7.7h1v3.6l2.8-3.6h1.2l-3 3.6 3.2 4.1zm6.5-3c0 .5-.1.9-.2 1.3s-.3.7-.6 1-.5.5-.9.6-.7.2-1.2.2c-.4 0-.8-.1-1.1-.2s-.6-.3-.9-.6-.4-.6-.5-.9-.2-.8-.2-1.3.1-.9.2-1.3.3-.7.6-1 .5-.5.9-.6.7-.2 1.2-.2c.4 0 .8.1 1.1.2s.6.3.9.6.4.6.5.9.2.8.2 1.3zm-1 0c0-.4 0-.7-.1-1s-.2-.5-.3-.7-.3-.3-.5-.4-.5-.1-.7-.1c-.3 0-.6.1-.8.2s-.4.3-.5.5-.2.4-.3.7-.1.5-.1.8c0 .4 0 .7.1 1s.2.5.3.7.3.3.5.4.4.1.7.1c.3 0 .6-.1.8-.2s.4-.3.5-.5.2-.4.3-.7.1-.5.1-.8zm7.2 3h-1v-2.6h-2.7v2.6h-1v-5.9h1v2.4h2.7v-2.4h1v5.9zm6.9-3.3v.7h-4.1c0 .6.2 1.1.5 1.4s.8.5 1.5.5h.5s.3 0 .5-.1.3 0 .5-.1.3-.1.4-.1v.8l-.9.2s-.7.1-1.1.1c-.5 0-.9-.1-1.3-.2s-.7-.3-.9-.6-.4-.6-.5-1-.2-.8-.2-1.3c0-.4.1-.8.2-1.2s.3-.7.5-1 .5-.5.8-.7.7-.2 1.1-.2.8.1 1.1.2.6.3.8.5.4.5.5.9.1.8.1 1.2zm-1.1-.1c0-.3 0-.5-.1-.7l-.3-.6s-.3-.3-.5-.4-.4-.1-.7-.1c-.2 0-.4 0-.6.1s-.3.2-.5.4-.2.3-.3.6-.1.5-.2.7h3.2zm8.1 2.5l-.1 2.4h-.9v-1.5h-4.4v-5.9h1v5h2.7v-5h1v5h.7z"/><path class="st4" d="M165.5 118.5h71.1v10.7h-71.1v-10.7z"/><path d="M172 125.6c.3.1.6.2 1 .3s.8.1 1.3.1c.6 0 1-.1 1.3-.4s.4-.6.4-1.1c0-.2 0-.4-.1-.5s-.2-.3-.4-.4-.4-.2-.6-.2-.5-.1-.8-.1h-1.6v-.9h1.6c.2 0 .5 0 .6-.1s.4-.1.5-.2.3-.2.3-.4.1-.3.1-.6c0-.2 0-.3-.1-.5s-.1-.3-.3-.4-.3-.2-.5-.3-.5-.1-.8-.1-.7 0-1 .1-.7.1-1 .2v-.9c.3-.1.6-.2.9-.2s.7-.1 1.2-.1c.9 0 1.5.2 1.9.5s.6.8.6 1.4c0 .4-.1.8-.3 1.1s-.5.5-1 .7c.2 0 .4.1.6.2s.3.2.5.4.3.3.3.5.1.4.1.7c0 .4-.1.7-.2 1s-.3.5-.6.8-.6.4-1 .5-.8.2-1.2.2c-.8 0-1.5-.1-2.1-.3l.4-1zm10.6 1.2v-.8c-.3.3-.6.5-1 .7s-.7.2-1 .2-.6 0-.9-.1-.4-.2-.6-.4-.3-.3-.3-.5-.1-.4-.1-.7c0-.6.2-1.1.7-1.4s1.1-.5 1.9-.5h1.2v-.5c0-.3-.1-.6-.3-.8s-.6-.3-1-.3c-.3 0-.7 0-1 .1s-.7.2-1 .3v-.9l.4-.1s.3-.1.5-.1.4-.1.6-.1h.6c.4 0 .7 0 1 .1s.5.2.7.4.3.4.5.6.2.5.2.9v4.1h-1.1v-.2zm-.1-2.7h-1.3c-.3 0-.5 0-.7.1s-.3.1-.5.2l-.3.3s-.1.3-.1.4 0 .2.1.3.1.2.2.3.2.1.3.2.3.1.5.1.5-.1.8-.2.6-.4 1-.7v-1zm8.4 1.8l-.1 2.4h-.9v-1.5h-4.3v1.5h-.9l-.1-2.4h.1c.1 0 .3 0 .4-.1s.3-.1.4-.3.2-.3.3-.5.2-.5.3-.9.1-.8.2-1.3.1-1.2.1-1.9h3.6v5h.9zm-1.8-4.1h-1.6c0 .7-.1 1.2-.2 1.7s-.1.9-.2 1.2-.2.6-.3.8-.2.3-.4.5h2.7v-4.2zm6.7 5v-.8c-.3.3-.6.5-1 .7s-.7.2-1 .2-.6 0-.9-.1-.4-.2-.6-.4-.3-.3-.3-.5-.1-.4-.1-.7c0-.6.2-1.1.7-1.4s1.1-.5 1.9-.5h1.2v-.5c0-.3-.1-.6-.3-.8s-.6-.3-1-.3c-.3 0-.7 0-1 .1s-.7.2-1 .3v-.9l.4-.1s.3-.1.5-.1.4-.1.6-.1h.6c.4 0 .7 0 1 .1s.5.2.7.4.3.4.5.6.2.5.2.9v4.1h-1.1v-.2zm-.1-2.7h-1.3c-.3 0-.5 0-.7.1s-.3.1-.5.2l-.3.3s-.1.3-.1.4 0 .2.1.3.1.2.2.3.2.1.3.2.3.1.5.1.5-.1.8-.2.6-.4 1-.7v-1zm7.7 2.7h-1v-2.6h-2.7v2.6h-1v-5.9h1v2.4h2.7v-2.4h1v5.9zm3-5.9v4.1l2.6-4.1h1v5.9h-1v-4.1l-2.6 4.1h-1v-5.9h1zm10.4 2.6v.7h-4.1c0 .6.2 1.1.5 1.4s.8.5 1.5.5h.5s.3 0 .5-.1.3-.1.5-.1.3-.1.4-.1v.8l-.9.2s-.7.1-1.1.1c-.5 0-.9-.1-1.3-.2s-.7-.3-.9-.6-.4-.6-.5-1-.2-.8-.2-1.3c0-.4.1-.8.2-1.2s.3-.7.5-1 .5-.5.8-.7.7-.2 1.1-.2c.4 0 .8.1 1.1.2s.6.3.8.5.4.5.5.9.1.8.1 1.2zm-1-.1c0-.3 0-.5-.1-.7l-.3-.6s-.3-.3-.5-.4-.4-.1-.7-.1c-.2 0-.4 0-.6.1s-.3.2-.5.4-.2.3-.3.6-.1.5-.2.7h3.2zm14.9 3.4h-1.1l-.5-1.7h-3.2l-.5 1.7h-1.1l2.5-7.7h1.4l2.5 7.7zm-2-2.6l-1.3-4.1-1.3 4.1h2.6z"/><path class="st4" d="M165.4 45.4h71.2v15.4h-71.2v-15.4z"/><path d="M180.6 48.3c0 .3-.1.6-.2.9s-.3.6-.5.8l-.9.6s-.8.2-1.4.2h-.9v2.7h-1v-7.5h2.2c.4 0 .7 0 1.1.1s.7.2.9.4.5.4.6.7.1.7.1 1.1zm-1.1.1c0-.5-.2-.9-.5-1.1s-.8-.4-1.4-.4h-1.1v3.1h1c.6 0 1.1-.1 1.4-.4s.6-.7.6-1.2zm6.4 5.2v-.8c-.3.3-.6.5-1 .7s-.7.2-1 .2-.6 0-.9-.1-.4-.2-.6-.4-.3-.3-.3-.5-.1-.4-.1-.7c0-.6.2-1.1.7-1.4s1.1-.5 1.9-.5h1.2v-.5c0-.3-.1-.6-.3-.8s-.6-.3-1-.3c-.3 0-.7 0-1 .1s-.7.2-1 .3v-.9l.4-.1s.3-.1.5-.1.4-.1.6-.1h.6c.4 0 .7 0 1 .1s.5.2.7.4.3.4.5.6.2.5.2.9v4.1c-.1-.2-1.1-.2-1.1-.2zm-.1-2.6h-1.3c-.3 0-.5 0-.7.1s-.3.1-.5.2l-.3.3s-.1.3-.1.4c0 .1 0 .2.1.3s.1.2.2.3.2.1.3.2.3.1.5.1.5-.1.8-.2.6-.4 1-.7v-1zm3.7-1.9c.3-.4.6-.7.9-.9s.7-.3 1.1-.3c.3 0 .6.1.9.2s.5.3.7.5.4.5.5.9.2.8.2 1.2-.1.8-.2 1.2-.3.7-.6.9-.5.5-.9.6-.7.2-1.1.2c-.4 0-.8-.1-1.1-.2s-.6-.4-.8-.7-.4-.7-.5-1.1-.2-1-.2-1.6c0-.8.1-1.4.2-2s.3-1 .6-1.4.6-.6.9-.8.8-.3 1.3-.4c.1 0 .3 0 .4-.1s.3 0 .5-.1h.4s.3 0 .4-.1v.9h-1.2c-.5.1-.8.2-1.1.3s-.5.3-.7.5-.3.5-.4.8-.1 1.1-.2 1.5zm3.4 1.7c0-.3 0-.6-.1-.9s-.2-.5-.3-.6l-.4-.4s-.3-.1-.5-.1-.4 0-.5.1-.3.1-.5.2-.3.2-.4.4-.3.4-.5.6v.1c0 .5 0 1 .1 1.3s.2.6.3.8.3.3.5.4.4.1.6.1c.3 0 .5-.1.7-.2s.4-.3.5-.5.2-.4.3-.7.2-.3.2-.6zm7.6-.1c0 .5-.1.9-.2 1.3s-.3.7-.6 1-.5.5-.9.6-.7.2-1.2.2c-.4 0-.8-.1-1.1-.2s-.6-.3-.9-.6-.4-.6-.5-.9-.2-.8-.2-1.3.1-.9.2-1.3.3-.7.6-1 .5-.5.9-.6.7-.2 1.2-.2c.4 0 .8.1 1.1.2s.6.3.9.6.4.6.5.9.2.8.2 1.3zm-1.1 0c0-.4 0-.7-.1-1s-.2-.5-.3-.7-.3-.3-.5-.4-.4-.1-.7-.1-.6.1-.8.2-.4.3-.5.5-.2.4-.3.7-.1.5-.1.8c0 .4 0 .7.1 1s.2.5.3.7.3.3.5.4.4.1.7.1.6-.1.8-.2.4-.3.5-.5.2-.4.3-.7.1-.5.1-.8zm7.7-2.1h-2.2v5h-1v-5h-2.2v-.9h5.5l-.1.9zm5.2 5v-.8c-.3.3-.6.5-1 .7s-.7.2-1 .2-.6 0-.9-.1-.4-.2-.6-.4-.3-.3-.3-.5-.1-.4-.1-.7c0-.6.2-1.1.7-1.4s1.1-.5 1.9-.5h1.2v-.5c0-.3-.1-.6-.3-.8s-.6-.3-1-.3c-.3 0-.7 0-1 .1s-.7.2-1 .3v-.9l.4-.1s.3-.1.5-.1.4-.1.6-.1h.6c.4 0 .7 0 1 .1s.5.2.7.4.3.4.5.6.2.5.2.9v4.1c-.1-.2-1.1-.2-1.1-.2zm-.1-2.6h-1.3c-.3 0-.5 0-.7.1s-.3.1-.5.2l-.3.3s-.1.3-.1.4c0 .1 0 .2.1.3s.1.2.2.3.2.1.3.2.3.1.5.1.5-.1.8-.2.6-.4 1-.7v-1zm15.1 2.6h-1.3l-1.9-3.1-1.9 3.1h-1.3l2.5-3.9-2.3-3.7h1.2l1.8 2.9 1.8-2.9h1.2l-2.4 3.7 2.6 3.9z"/><path class="st4" d="M263.7 44.9h69.3v12.3h-69.3v-12.3z"/><path d="M277.9 47.9c0 .3-.1.6-.2.9s-.3.6-.5.8l-.9.6s-.8.2-1.4.2h-.9v2.7h-1v-7.7h2.2c.4 0 .7 0 1.1.1s.7.2.9.4.5.4.6.7.1.8.1 1.3zm-1 0c0-.5-.2-.9-.5-1.1s-.8-.4-1.4-.4h-1v3.2h1c.6 0 1.1-.1 1.4-.4s.5-.7.5-1.3zm6.4 5.3v-.8c-.3.3-.6.5-1 .7s-.7.2-1 .2-.6 0-.9-.1-.4-.2-.6-.4-.3-.3-.3-.5-.1-.4-.1-.7c0-.6.2-1.1.7-1.4s1.1-.5 1.9-.5h1.2v-.5c0-.3-.1-.6-.3-.8s-.6-.3-1-.3c-.3 0-.7 0-1 .1s-.7.2-1 .3v-.9l.4-.1s.3-.1.5-.1.4-.1.6-.1h.6c.4 0 .7 0 1 .1s.5.2.7.4.3.4.5.6.2.5.2.9v4.1c-.2-.2-1.1-.2-1.1-.2zm-.1-2.7h-1.3c-.3 0-.5 0-.7.1s-.3.1-.5.2l-.3.3s-.1.3-.1.4c0 .1 0 .2.1.3s.1.2.2.3.2.1.3.2.3.1.5.1.5-.1.8-.2.6-.4 1-.7v-1zm3.7-1.9c.3-.4.6-.7.9-.9s.7-.3 1.1-.3c.3 0 .6.1.9.2s.5.3.7.5.4.5.5.9.2.8.2 1.2-.1.8-.2 1.2-.3.7-.6.9-.5.5-.9.6-.7.2-1.1.2-.8-.1-1.1-.2-.6-.4-.8-.7-.4-.7-.5-1.1-.2-1-.2-1.6c0-.8.1-1.4.2-2s.3-1 .6-1.4.6-.6.9-.8.8-.3 1.3-.4c.1 0 .3 0 .4-.1s.3 0 .5-.1h.4s.3 0 .4-.1v.9h-1.2c-.5.1-.8.2-1.1.3s-.5.3-.7.5-.3.5-.4.8-.2 1.1-.2 1.5zm3.3 1.8c0-.3 0-.6-.1-.9s-.2-.5-.3-.6l-.4-.4s-.3-.1-.5-.1-.4 0-.5.1-.3.1-.5.2-.3.2-.4.4-.3.4-.5.6v.1c0 .5 0 1 .1 1.3s.2.6.3.8.3.3.5.4.4.1.6.1c.3 0 .5-.1.7-.2s.4-.3.5-.5.2-.4.3-.7.2-.4.2-.6zm7.6-.2c0 .5-.1.9-.2 1.3s-.3.7-.6 1-.5.5-.9.6-.7.2-1.2.2c-.4 0-.8-.1-1.1-.2s-.6-.3-.9-.6-.4-.6-.5-.9-.2-.8-.2-1.3.1-.9.2-1.3.3-.7.6-1 .5-.5.9-.6.7-.2 1.2-.2c.4 0 .8.1 1.1.2s.6.3.9.6.4.6.5.9.2.8.2 1.3zm-1 0c0-.4 0-.7-.1-1s-.2-.5-.3-.7-.3-.3-.5-.4-.5-.1-.7-.1c-.3 0-.6.1-.8.2s-.4.3-.5.5-.2.4-.3.7-.1.5-.1.8c0 .4 0 .7.1 1s.2.5.3.7.3.3.5.4.4.1.7.1c.3 0 .6-.1.8-.2s.4-.3.5-.5.2-.4.3-.7.1-.5.1-.8zm7.6-2h-2.2v5h-1v-5h-2.2v-.9h5.5l-.1.9zm5.3 5v-.8c-.3.3-.6.5-1 .7s-.7.2-1 .2-.6 0-.9-.1-.4-.2-.6-.4-.3-.3-.3-.5-.1-.4-.1-.7c0-.6.2-1.1.7-1.4s1.1-.5 1.9-.5h1.2v-.5c0-.3-.1-.6-.3-.8s-.6-.3-1-.3c-.3 0-.7 0-1 .1s-.7.2-1 .3v-.9l.4-.1s.3-.1.5-.1.4-.1.6-.1h.6c.4 0 .7 0 1 .1s.5.2.7.4.3.4.5.6.2.5.2.9v4.1c-.2-.2-1.1-.2-1.1-.2zm-.1-2.7h-1.3c-.3 0-.5 0-.7.1s-.3.1-.5.2l-.3.3s-.1.3-.1.4c0 .1 0 .2.1.3s.1.2.2.3.2.1.3.2.3.1.5.1.5-.1.8-.2.6-.4 1-.7v-1zm15.2-5l-2.8 4.9v2.7h-1.1v-2.8l-2.8-4.9h1.3l1.5 2.8.6 1.1.5-1 1.5-2.9c.1.1 1.3.1 1.3.1z"/><path class="st4" d="M356.3 45.4h69.6v12.3h-69.6v-12.3z"/><path d="M370.7 48.4c0 .3-.1.6-.2.9s-.3.6-.5.8l-.9.6s-.8.2-1.4.2h-.9v2.7h-1v-7.7h2.2c.4 0 .7 0 1.1.1s.7.2.9.4.5.4.6.7.1.9.1 1.3zm-1.1 0c0-.5-.2-.9-.5-1.1s-.8-.4-1.4-.4h-1.1v3.2h1c.6 0 1.1-.1 1.4-.4s.6-.7.6-1.3zm6.5 5.3v-.8c-.3.3-.6.5-1 .7s-.7.2-1 .2-.6 0-.9-.1-.4-.2-.6-.4-.3-.3-.3-.5-.1-.4-.1-.7c0-.6.2-1.1.7-1.4s1.1-.5 1.9-.5h1.2v-.5c0-.3-.1-.6-.3-.8s-.6-.3-1-.3c-.3 0-.7 0-1 .1s-.7.2-1 .3v-.9l.4-.1s.3-.1.5-.1.4-.1.6-.1h.6c.4 0 .7 0 1 .1s.5.2.7.4.3.4.5.6.2.5.2.9v4.1c-.2-.2-1.1-.2-1.1-.2zm-.1-2.7h-1.3c-.3 0-.5 0-.7.1s-.3.1-.5.2l-.3.3s-.1.3-.1.4c0 .1 0 .2.1.3s.1.2.2.3.2.1.3.2.3.1.5.1.5-.1.8-.2.6-.4 1-.7v-1zm3.7-1.8c.3-.4.6-.7.9-.9s.7-.3 1.1-.3c.3 0 .6.1.9.2s.5.3.7.5.4.5.5.9.2.8.2 1.2-.1.8-.2 1.2-.3.7-.6.9-.5.5-.9.6-.7.2-1.1.2-.8-.1-1.1-.2-.6-.4-.8-.7-.4-.7-.5-1.1-.2-1-.2-1.6c0-.8.1-1.4.2-2s.3-1 .6-1.4.6-.6.9-.8.8-.3 1.3-.4c.1 0 .3 0 .4-.1s.3 0 .5-.1h.4s.3 0 .4-.1v.9h-1.2c-.5.1-.8.2-1.1.3s-.5.3-.7.5-.3.5-.4.8-.2 1-.2 1.5zm3.3 1.7c0-.3 0-.6-.1-.9s-.2-.5-.3-.6l-.4-.4s-.3-.1-.5-.1-.4 0-.5.1-.3.1-.5.2-.3.2-.4.4-.3.4-.5.6v.1c0 .5 0 1 .1 1.3s.2.6.3.8.3.3.5.4.4.1.6.1c.3 0 .5-.1.7-.2s.4-.3.5-.5.2-.4.3-.7.2-.3.2-.6zm7.6-.2c0 .5-.1.9-.2 1.3s-.3.7-.6 1-.5.5-.9.6-.7.2-1.2.2c-.4 0-.8-.1-1.1-.2s-.6-.3-.9-.6-.4-.6-.5-.9-.2-.8-.2-1.3.1-.9.2-1.3.3-.7.6-1 .5-.5.9-.6.7-.2 1.2-.2c.4 0 .8.1 1.1.2s.6.3.9.6.4.6.5.9.2.8.2 1.3zm-1 .1c0-.4 0-.7-.1-1s-.2-.5-.3-.7-.3-.3-.5-.4-.5-.1-.7-.1c-.3 0-.6.1-.8.2s-.4.3-.5.5-.2.4-.3.7-.1.5-.1.8c0 .4 0 .7.1 1s.2.5.3.7.3.3.5.4.4.1.7.1c.3 0 .6-.1.8-.2s.4-.3.5-.5.2-.4.3-.7.1-.5.1-.8zm7.6-2.1h-2.2v5h-1v-5h-2.2v-.9h5.5l-.1.9zm5.3 5v-.8c-.3.3-.6.5-1 .7s-.7.2-1 .2-.6 0-.9-.1-.4-.2-.6-.4-.3-.3-.3-.5-.1-.4-.1-.7c0-.6.2-1.1.7-1.4s1.1-.5 1.9-.5h1.2v-.5c0-.3-.1-.6-.3-.8s-.6-.3-1-.3c-.3 0-.7 0-1 .1s-.7.2-1 .3v-.9l.4-.1s.3-.1.5-.1.4-.1.6-.1h.6c.4 0 .7 0 1 .1s.5.2.7.4.3.4.5.6.2.5.2.9v4.1c-.2-.2-1.1-.2-1.1-.2zm-.1-2.7h-1.3c-.3 0-.5 0-.7.1s-.3.1-.5.2l-.3.3s-.1.3-.1.4c0 .1 0 .2.1.3s.1.2.2.3.2.1.3.2.3.1.5.1.5-.1.8-.2.6-.4 1-.7v-1zm14.4-4.1l-3.9 5.9h4v1h-5.3v-.8l3.9-5.9h-3.8v-.9h5.1v.7z"/><path class="st4" d="M265.6 133.1h65.6v12h-65.6v-12z"/><path d="M269.3 140.2c.3.1.6.2 1 .3s.8.1 1.3.1c.6 0 1-.1 1.3-.4s.4-.6.4-1.1c0-.2 0-.4-.1-.5s-.2-.3-.4-.4-.4-.2-.6-.2-.5-.1-.8-.1h-1.6v-.9h1.6c.2 0 .5 0 .6-.1s.4-.1.5-.2.3-.2.3-.4.1-.4.1-.6c0-.2 0-.3-.1-.5s-.1-.3-.3-.4-.3-.2-.5-.3-.5-.1-.8-.1-.7 0-1 .1-.7.1-1 .2v-.9c.3-.1.6-.2.9-.2s.7-.1 1.2-.1c.9 0 1.5.2 1.9.5s.6.8.6 1.4c0 .4-.1.8-.3 1.1s-.5.5-1 .7c.2 0 .4.1.6.2s.3.2.5.4.3.3.3.5.1.4.1.7c0 .4-.1.7-.2 1s-.3.5-.6.8-.6.4-1 .5-.8.2-1.2.2c-.8 0-1.5-.1-2.1-.3l.4-1zm10.7 1.2v-.8c-.3.3-.6.5-1 .7s-.7.2-1 .2-.6 0-.9-.1-.4-.2-.6-.4-.3-.3-.3-.5-.1-.4-.1-.7c0-.6.2-1.1.7-1.4s1.1-.5 1.9-.5h1.2v-.5c0-.3-.1-.6-.3-.8s-.6-.3-1-.3c-.3 0-.7 0-1 .1s-.7.2-1 .3v-.9l.4-.1s.3-.1.5-.1.4-.1.6-.1h.6c.4 0 .7 0 1 .1s.5.2.7.4.3.4.5.6.2.5.2.9v4.1l-1.1-.2zm-.1-2.7h-1.3c-.3 0-.5 0-.7.1s-.3.1-.5.2l-.3.3s-.1.3-.1.4c0 .1 0 .2.1.3s.1.2.2.3.2.1.3.2.3.1.5.1.5-.1.8-.2.6-.4 1-.7v-1zm8.4 1.8l-.1 2.4h-.9v-1.5h-4.3v1.5h-.9l-.1-2.4h.1c.1 0 .3 0 .4-.1s.3-.1.4-.3.2-.3.3-.5.2-.5.3-.9.1-.8.2-1.3.1-1.2.1-1.9h3.6v5h.9zm-1.9-4.1h-1.6c0 .7-.1 1.2-.2 1.7s-.1.9-.2 1.2-.2.6-.3.8-.2.3-.4.5h2.7v-4.2zm6.8 5v-.8c-.3.3-.6.5-1 .7s-.7.2-1 .2-.6 0-.9-.1-.4-.2-.6-.4-.3-.3-.3-.5-.1-.4-.1-.7c0-.6.2-1.1.7-1.4s1.1-.5 1.9-.5h1.2v-.5c0-.3-.1-.6-.3-.8s-.6-.3-1-.3c-.3 0-.7 0-1 .1s-.7.2-1 .3v-.9l.4-.1s.3-.1.5-.1.4-.1.6-.1h.6c.4 0 .7 0 1 .1s.5.2.7.4.3.4.5.6.2.5.2.9v4.1l-1.1-.2zm-.1-2.7h-1.3c-.3 0-.5 0-.7.1s-.3.1-.5.2l-.3.3s-.1.3-.1.4c0 .1 0 .2.1.3s.1.2.2.3.2.1.3.2.3.1.5.1.5-.1.8-.2.6-.4 1-.7v-1zm7.6 2.7h-1v-2.6h-2.7v2.6h-1v-5.9h1v2.4h2.7v-2.4h1v5.9zm3-5.9v4.1l2.6-4.1h1v5.9h-1v-4.1l-2.6 4.1h-1v-5.9h1zm10.5 2.6v.7h-4.2c0 .6.2 1.1.5 1.4s.8.5 1.5.5h.5s.3 0 .5-.1.3-.1.5-.1.3-.1.4-.1v.8l-.9.2s-.7.1-1.1.1c-.5 0-.9-.1-1.3-.2s-.7-.3-.9-.6-.4-.6-.5-1-.2-.8-.2-1.3c0-.4.1-.8.2-1.2s.3-.7.5-1 .5-.5.8-.7.7-.2 1.1-.2.8.1 1.1.2.6.3.8.5.4.5.5.9.2.8.2 1.2zm-1.1-.1c0-.3 0-.5-.1-.7l-.3-.6s-.3-.3-.5-.4-.4-.1-.7-.1c-.2 0-.4 0-.6.1s-.3.2-.5.4-.2.3-.3.6-.1.5-.2.7h3.2zm14.5-.5c0 .4 0 .7-.1 1.1s-.1.6-.3.9-.3.6-.5.8-.4.4-.7.6-.6.3-1 .4-.8.1-1.3.1h-1.6v-7.7h2c1.2 0 2.1.3 2.7.9s.8 1.6.8 2.9zm-1.1 0c0-.5-.1-1-.2-1.4s-.3-.7-.5-.9-.5-.4-.8-.5-.7-.2-1.1-.2h-.9v5.9h.8c1.9.1 2.7-.9 2.7-2.9z"/><path class="st4" d="M355.3 153.8h71.6v10h-71.6v-10z"/><path d="M362.1 160.9c.3.1.6.2 1 .3s.8.1 1.3.1c.6 0 1-.1 1.3-.4s.4-.6.4-1.1c0-.2 0-.4-.1-.5s-.2-.3-.4-.4-.4-.2-.6-.2-.5-.1-.8-.1h-1.6v-.9h1.6c.2 0 .5 0 .6-.1s.4-.1.5-.2.3-.2.3-.4.1-.4.1-.6c0-.2 0-.3-.1-.5s-.1-.3-.3-.4-.3-.2-.5-.3-.5-.1-.8-.1-.7 0-1 .1-.7.1-1 .2v-.9c.3-.1.6-.2.9-.2s.7-.1 1.2-.1c.9 0 1.5.2 1.9.5s.6.8.6 1.4c0 .4-.1.8-.3 1.1s-.5.5-1 .7c.2 0 .4.1.6.2s.3.2.5.4.3.3.3.5.1.4.1.7c0 .4-.1.7-.2 1s-.3.5-.6.8-.6.4-1 .5-.8.2-1.2.2c-.8 0-1.5-.1-2.1-.3l.4-1zm10.7 1.2v-.8c-.3.3-.6.5-1 .7s-.7.2-1 .2-.6 0-.9-.1-.4-.2-.6-.4-.3-.3-.3-.5-.1-.4-.1-.7c0-.6.2-1.1.7-1.4s1.1-.5 1.9-.5h1.2v-.5c0-.3-.1-.6-.3-.8s-.6-.3-1-.3c-.3 0-.7 0-1 .1s-.7.2-1 .3v-.9l.4-.1s.3-.1.5-.1.4-.1.6-.1h.6c.4 0 .7 0 1 .1s.5.2.7.4.3.4.5.6.2.5.2.9v4.1l-1.1-.2zm-.1-2.7h-1.3c-.3 0-.5 0-.7.1s-.3.1-.5.2l-.3.3s-.1.3-.1.4c0 .1 0 .2.1.3s.1.2.2.3.2.1.3.2.3.1.5.1.5-.1.8-.2.6-.4 1-.7v-1zm8.4 1.8l-.1 2.4h-.9v-1.5h-4.3v1.5h-.9l-.1-2.4h.1c.1 0 .3 0 .4-.1s.3-.1.4-.3.2-.3.3-.5.2-.5.3-.9.1-.8.2-1.3.1-1.2.1-1.9h3.6v5h.9zm-1.9-4.2h-1.6c0 .7-.1 1.2-.2 1.7s-.1.9-.2 1.2-.2.6-.3.8-.2.3-.4.5h2.7v-4.2zm6.8 5.1v-.8c-.3.3-.6.5-1 .7s-.7.2-1 .2-.6 0-.9-.1-.4-.2-.6-.4-.3-.3-.3-.5-.1-.4-.1-.7c0-.6.2-1.1.7-1.4s1.1-.5 1.9-.5h1.2v-.5c0-.3-.1-.6-.3-.8s-.6-.3-1-.3c-.3 0-.7 0-1 .1s-.7.2-1 .3v-.9l.4-.1s.3-.1.5-.1.4-.1.6-.1h.6c.4 0 .7 0 1 .1s.5.2.7.4.3.4.5.6.2.5.2.9v4.1l-1.1-.2zm-.1-2.7h-1.3c-.3 0-.5 0-.7.1s-.3.1-.5.2l-.3.3s-.1.3-.1.4c0 .1 0 .2.1.3s.1.2.2.3.2.1.3.2.3.1.5.1.5-.1.8-.2.6-.4 1-.7v-1zm7.6 2.7h-1v-2.6h-2.7v2.6h-1v-5.9h1v2.4h2.7v-2.4h1v5.9zm3-5.9v4.1l2.6-4.1h1v5.9h-1v-4.1l-2.6 4.1h-1v-5.9h1zm10.5 2.6v.7h-4.1c0 .6.2 1.1.5 1.4s.8.5 1.5.5h.5s.3 0 .5-.1.3-.1.5-.1.3-.1.4-.1v.8l-.9.2s-.7.1-1.1.1c-.5 0-.9-.1-1.3-.2s-.7-.3-.9-.6-.4-.6-.5-1-.2-.8-.2-1.3c0-.4.1-.8.2-1.2s.3-.7.5-1 .5-.5.8-.7.7-.2 1.1-.2.8.1 1.1.2.6.3.8.5.4.5.5.9.1.8.1 1.2zm-1.1-.1c0-.3 0-.5-.1-.7l-.3-.6s-.3-.3-.5-.4-.4-.1-.7-.1c-.2 0-.4 0-.6.1s-.3.2-.5.4-.2.3-.3.6-.1.5-.2.7h3.2zm13.9-3.4h-3.3v2.5h3.1v.9h-3.1v3.4h-1.1v-7.7h4.3l.1.9z"/><path class="st4" d="M357.7 188.5h67v11.1h-67v-11.1z"/><path d="M362.1 195.6c.3.1.6.2 1 .3s.8.1 1.3.1c.6 0 1-.1 1.3-.4s.4-.6.4-1.1c0-.2 0-.4-.1-.5s-.2-.3-.4-.4-.4-.2-.6-.2-.5-.1-.8-.1h-1.6v-.9h1.6c.2 0 .5 0 .6-.1s.4-.1.5-.2.3-.2.3-.4.1-.4.1-.6c0-.2 0-.3-.1-.5s-.1-.3-.3-.4-.3-.2-.5-.3-.5-.1-.8-.1-.7 0-1 .1-.7.1-1 .2v-.9c.3-.1.6-.2.9-.2s.7-.1 1.2-.1c.9 0 1.5.2 1.9.5s.6.8.6 1.4c0 .4-.1.8-.3 1.1s-.5.5-1 .7c.2 0 .4.1.6.2s.3.2.5.4.3.3.3.5.1.4.1.7c0 .4-.1.7-.2 1s-.3.5-.6.8-.6.4-1 .5-.8.2-1.2.2c-.8 0-1.5-.1-2.1-.3l.4-1zm10.7 1.2v-.8c-.3.3-.6.5-1 .7s-.7.2-1 .2-.6 0-.9-.1-.4-.2-.6-.4-.3-.3-.3-.5-.1-.4-.1-.7c0-.6.2-1.1.7-1.4s1.1-.5 1.9-.5h1.2v-.5c0-.3-.1-.6-.3-.8s-.6-.3-1-.3c-.3 0-.7 0-1 .1s-.7.2-1 .3v-.9l.4-.1s.3-.1.5-.1.4-.1.6-.1h.6c.4 0 .7 0 1 .1s.5.2.7.4.3.4.5.6.2.5.2.9v4.1l-1.1-.2zm-.1-2.7h-1.3c-.3 0-.5 0-.7.1s-.3.1-.5.2l-.3.3s-.1.3-.1.4c0 .1 0 .2.1.3s.1.2.2.3.2.1.3.2.3.1.5.1.5-.1.8-.2.6-.4 1-.7v-1zm8.4 1.8l-.1 2.4h-.9v-1.5h-4.3v1.5h-.9l-.1-2.4h.1c.1 0 .3 0 .4-.1s.3-.1.4-.3.2-.3.3-.5.2-.5.3-.9.1-.8.2-1.3.1-1.2.1-1.9h3.6v5h.9zm-1.9-4.1h-1.6c0 .7-.1 1.2-.2 1.7s-.1.9-.2 1.2-.2.6-.3.8-.2.3-.4.5h2.7v-4.2zm6.8 5v-.8c-.3.3-.6.5-1 .7s-.7.2-1 .2-.6 0-.9-.1-.4-.2-.6-.4-.3-.3-.3-.5-.1-.4-.1-.7c0-.6.2-1.1.7-1.4s1.1-.5 1.9-.5h1.2v-.5c0-.3-.1-.6-.3-.8s-.6-.3-1-.3c-.3 0-.7 0-1 .1s-.7.2-1 .3v-.9l.4-.1s.3-.1.5-.1.4-.1.6-.1h.6c.4 0 .7 0 1 .1s.5.2.7.4.3.4.5.6.2.5.2.9v4.1l-1.1-.2zm-.1-2.7h-1.3c-.3 0-.5 0-.7.1s-.3.1-.5.2l-.3.3s-.1.3-.1.4c0 .1 0 .2.1.3s.1.2.2.3.2.1.3.2.3.1.5.1.5-.1.8-.2.6-.4 1-.7v-1zm7.6 2.7h-1v-2.6h-2.7v2.6h-1v-5.9h1v2.4h2.7v-2.4h1v5.9zm3-5.9v4.1l2.6-4.1h1v5.9h-1v-4.1l-2.6 4.1h-1v-5.9h1zm10.5 2.7v.7h-4.1c0 .6.2 1.1.5 1.4s.8.5 1.5.5h.5s.3 0 .5-.1.3-.1.5-.1.3-.1.4-.1v.8l-.9.2s-.7.1-1.1.1c-.5 0-.9-.1-1.3-.2s-.7-.3-.9-.6-.4-.6-.5-1-.2-.8-.2-1.3c0-.4.1-.8.2-1.2s.3-.7.5-1 .5-.5.8-.7.7-.2 1.1-.2.8.1 1.1.2.6.3.8.5.4.5.5.9.1.7.1 1.2zm-1.1-.2c0-.3 0-.5-.1-.7l-.3-.6s-.3-.3-.5-.4-.4-.1-.7-.1c-.2 0-.4 0-.6.1s-.3.2-.5.4-.2.3-.3.6-.1.5-.2.7h3.2zm14.2-2.9c-.3-.2-.6-.3-.9-.4s-.6-.1-1-.1-.8.1-1.1.2-.6.3-.8.6-.4.6-.5 1-.2.8-.2 1.2c0 .5 0 .9.1 1.3s.2.7.4.9.5.5.8.6.7.2 1.1.2h.5s.2 0 .2-.1.2 0 .2-.1v-2.4h-1.6v-.9h2.6v3.9l-.5.2s-.4.1-.5.1-.4.1-.6.1h-.5c-.5 0-1-.1-1.4-.2s-.8-.4-1.1-.7-.5-.7-.7-1.2-.2-1-.2-1.7c0-.6.1-1.2.3-1.7s.4-.9.7-1.3.7-.6 1.1-.8.9-.3 1.5-.3c.3 0 .7 0 1 .1l.9.3.2 1.2z"/><path class="st4" d="M355.3 220.4h71.6v9.6h-71.6v-9.6z"/><path d="M362.1 227.5c.3.1.6.2 1 .3s.8.1 1.3.1c.6 0 1-.1 1.3-.4s.4-.6.4-1.1c0-.2 0-.4-.1-.5s-.2-.3-.4-.4-.4-.2-.6-.2-.5-.1-.8-.1h-1.6v-.9h1.6c.2 0 .5 0 .6-.1s.4-.1.5-.2.3-.2.3-.4.1-.4.1-.6c0-.2 0-.3-.1-.5s-.1-.3-.3-.4-.3-.2-.5-.3-.5-.1-.8-.1-.7 0-1 .1-.7.1-1 .2v-.9c.3-.1.6-.2.9-.2s.7-.1 1.2-.1c.9 0 1.5.2 1.9.5s.6.8.6 1.4c0 .4-.1.8-.3 1.1s-.5.5-1 .7c.2 0 .4.1.6.2s.3.2.5.4.3.3.3.5.1.4.1.7c0 .4-.1.7-.2 1s-.3.5-.6.8-.6.4-1 .5-.8.2-1.2.2c-.8 0-1.5-.1-2.1-.3l.4-1zm10.7 1.2v-.8c-.3.3-.6.5-1 .7s-.7.2-1 .2-.6 0-.9-.1-.4-.2-.6-.4-.3-.3-.3-.5-.1-.4-.1-.7c0-.6.2-1.1.7-1.4s1.1-.5 1.9-.5h1.2v-.5c0-.3-.1-.6-.3-.8s-.6-.3-1-.3c-.3 0-.7 0-1 .1s-.7.2-1 .3v-1l.4-.1s.3-.1.5-.1.4-.1.6-.1h.6c.4 0 .7 0 1 .1s.5.2.7.4.3.4.5.6.2.5.2.9v4.1l-1.1-.1zm-.1-2.7h-1.3c-.3 0-.5 0-.7.1s-.3.1-.5.2l-.3.3s-.1.3-.1.4c0 .1 0 .2.1.3s.1.2.2.3.2.1.3.2.3.1.5.1.5-.1.8-.2.6-.4 1-.7v-1zm8.4 1.8l-.1 2.4h-.9v-1.5h-4.3v1.5h-.9l-.1-2.4h.1c.1 0 .3 0 .4-.1s.3-.1.4-.3.2-.3.3-.5.2-.5.3-.9.1-.8.2-1.3.1-1.2.1-1.9h3.6v5h.9zm-1.9-4.1h-1.6c0 .7-.1 1.2-.2 1.7s-.1.9-.2 1.2-.2.6-.3.8-.2.3-.4.5h2.7v-4.2zm6.8 5v-.8c-.3.3-.6.5-1 .7s-.7.2-1 .2-.6 0-.9-.1-.4-.2-.6-.4-.3-.3-.3-.5-.1-.4-.1-.7c0-.6.2-1.1.7-1.4s1.1-.5 1.9-.5h1.2v-.5c0-.3-.1-.6-.3-.8s-.6-.3-1-.3c-.3 0-.7 0-1 .1s-.7.2-1 .3v-1l.4-.1s.3-.1.5-.1.4-.1.6-.1h.6c.4 0 .7 0 1 .1s.5.2.7.4.3.4.5.6.2.5.2.9v4.1l-1.1-.1zm-.1-2.7h-1.3c-.3 0-.5 0-.7.1s-.3.1-.5.2l-.3.3s-.1.3-.1.4c0 .1 0 .2.1.3s.1.2.2.3.2.1.3.2.3.1.5.1.5-.1.8-.2.6-.4 1-.7v-1zm7.6 2.7h-1v-2.6h-2.7v2.6h-1v-5.9h1v2.4h2.7v-2.4h1v5.9zm3-5.9v4.1l2.6-4.1h1v5.9h-1v-4.1l-2.6 4.1h-1v-5.9h1zm10.5 2.6v.7h-4.1c0 .6.2 1.1.5 1.4s.8.5 1.5.5h.5s.3 0 .5-.1.3-.1.5-.1.3-.1.4-.1v.8l-.9.2s-.7.1-1.1.1c-.5 0-.9-.1-1.3-.2s-.7-.3-.9-.6-.4-.6-.5-1-.2-.8-.2-1.3c0-.4.1-.8.2-1.2s.3-.7.5-1 .5-.5.8-.7.7-.2 1.1-.2.8.1 1.1.2.6.3.8.5.4.5.5.9.1.8.1 1.2zm-1.1-.1c0-.3 0-.5-.1-.7l-.3-.6s-.3-.3-.5-.4-.4-.1-.7-.1c-.2 0-.4 0-.6.1s-.3.2-.5.4-.2.3-.3.6-.1.5-.2.7h3.2zm14.3 3.4h-1v-3.5h-3.2v3.5h-1v-7.7h1v3.2h3.2v-3.2h1v7.7z"/><path class="st4" d="M264.4 169.1h68.1v13.2h-68.1v-13.2z"/><path d="M269.4 176.2c.3.1.6.2 1 .3s.8.1 1.3.1c.6 0 1-.1 1.3-.4s.4-.6.4-1.1c0-.2 0-.4-.1-.5s-.2-.3-.4-.4-.4-.2-.6-.2-.5-.1-.8-.1h-1.5v-.9h1.6c.2 0 .5 0 .6-.1s.4-.1.5-.2.3-.2.3-.4.1-.4.1-.6c0-.2 0-.3-.1-.5s-.1-.3-.3-.4-.3-.2-.5-.3-.5-.1-.8-.1-.7 0-1 .1-.7.1-1 .2v-.9c.3-.1.6-.2.9-.2s.7-.1 1.2-.1c.9 0 1.5.2 1.9.5s.6.8.6 1.4c0 .4-.1.8-.3 1.1s-.5.5-1 .7c.2 0 .4.1.6.2s.3.2.5.4.3.3.3.5.1.4.1.7c0 .4-.1.7-.2 1s-.3.5-.6.8-.6.4-1 .5-.8.2-1.2.2c-.8 0-1.5-.1-2.1-.3l.3-1zm10.6 1.2v-.8c-.3.3-.6.5-1 .7s-.7.2-1 .2-.6 0-.9-.1-.4-.2-.6-.4-.3-.3-.3-.5-.1-.4-.1-.7c0-.6.2-1.1.7-1.4s1.1-.5 1.9-.5h1.2v-.5c0-.3-.1-.6-.3-.8s-.6-.3-1-.3c-.3 0-.7 0-1 .1s-.7.2-1 .3v-.9l.4-.1s.3-.1.5-.1.4-.1.6-.1h.6c.4 0 .7 0 1 .1s.5.2.7.4.3.4.5.6.2.5.2.9v4.1l-1.1-.2zm-.1-2.7h-1.3c-.3 0-.5 0-.7.1s-.3.1-.5.2l-.3.3s-.1.3-.1.4c0 .1 0 .2.1.3s.1.2.2.3.2.1.3.2.3.1.5.1.5-.1.8-.2.6-.4 1-.7v-1zm8.4 1.8l-.1 2.4h-.9v-1.5h-4.3v1.5h-.9l-.1-2.4h.1c.1 0 .3 0 .4-.1s.3-.1.4-.3.2-.3.3-.5.2-.5.3-.9.1-.8.2-1.3.1-1.2.1-1.9h3.6v5h.9zm-1.8-4.1h-1.6c0 .7-.1 1.2-.2 1.7s-.1.9-.2 1.2-.2.6-.3.8-.2.3-.4.5h2.7v-4.2zm6.7 5v-.8c-.3.3-.6.5-1 .7s-.7.2-1 .2-.6 0-.9-.1-.4-.2-.6-.4-.3-.3-.3-.5-.1-.4-.1-.7c0-.6.2-1.1.7-1.4s1.1-.5 1.9-.5h1.2v-.5c0-.3-.1-.6-.3-.8s-.6-.3-1-.3c-.3 0-.7 0-1 .1s-.7.2-1 .3v-.9l.4-.1s.3-.1.5-.1.4-.1.6-.1h.6c.4 0 .7 0 1 .1s.5.2.7.4.3.4.5.6.2.5.2.9v4.1l-1.1-.2zm-.1-2.7h-1.3c-.3 0-.5 0-.7.1s-.3.1-.5.2l-.3.3s-.1.3-.1.4c0 .1 0 .2.1.3s.1.2.2.3.2.1.3.2.3.1.5.1.5-.1.8-.2.6-.4 1-.7v-1zm7.7 2.7h-1v-2.6h-2.7v2.6h-1v-5.9h1v2.4h2.7v-2.4h1v5.9zm3-5.9v4.1l2.6-4.1h1v5.9h-1v-4.1l-2.6 4.1h-1v-5.9h1zm10.4 2.6v.7h-4.1c0 .6.2 1.1.5 1.4s.8.5 1.5.5h.5s.3 0 .5-.1.3-.1.5-.1.3-.1.4-.1v.8l-.9.2s-.7.1-1.1.1c-.5 0-.9-.1-1.3-.2s-.7-.3-.9-.6-.4-.6-.5-1-.2-.8-.2-1.3c0-.4.1-.8.2-1.2s.3-.7.5-1 .5-.5.8-.7.7-.2 1.1-.2.8.1 1.1.2.6.3.8.5.4.5.5.9.1.8.1 1.2zm-1-.1c0-.3 0-.5-.1-.7l-.3-.6s-.3-.3-.5-.4-.4-.1-.7-.1c-.2 0-.4 0-.6.1s-.3.2-.5.4-.2.3-.3.6-.1.5-.2.7h3.2zm13.8 3.4h-4.4v-7.7h4.4v.9h-3.3v2.4h3.2v.9h-3.2v2.6h3.3v.9z"/><path class="st4" d="M165.5 150.8h71.1v12.7h-71.1v-12.7z"/><path d="M172 157.9c.3.1.6.2 1 .3s.8.1 1.3.1c.6 0 1-.1 1.3-.4s.4-.6.4-1.1c0-.2 0-.4-.1-.5s-.2-.3-.4-.4-.4-.2-.6-.2-.5-.1-.8-.1h-1.6v-.9h1.6c.2 0 .5 0 .6-.1s.4-.1.5-.2.3-.2.3-.4.1-.4.1-.6c0-.2 0-.3-.1-.5s-.1-.3-.3-.4-.3-.2-.5-.3-.5-.1-.8-.1-.7 0-1 .1-.7.1-1 .2v-.9c.3-.1.6-.2.9-.2s.7-.1 1.2-.1c.9 0 1.5.2 1.9.5s.6.8.6 1.4c0 .4-.1.8-.3 1.1s-.5.5-1 .7c.2 0 .4.1.6.2s.3.2.5.4.3.3.3.5.1.4.1.7c0 .4-.1.7-.2 1s-.3.5-.6.8-.6.4-1 .5-.8.2-1.2.2c-.8 0-1.5-.1-2.1-.3l.4-1zm10.6 1.2v-.8c-.3.3-.6.5-1 .7s-.7.2-1 .2-.6 0-.9-.1-.4-.2-.6-.4-.3-.3-.3-.5-.1-.4-.1-.7c0-.6.2-1.1.7-1.4s1.1-.5 1.9-.5h1.2v-.5c0-.3-.1-.6-.3-.8s-.6-.3-1-.3c-.3 0-.7 0-1 .1s-.7.2-1 .3v-.9l.4-.1s.3-.1.5-.1.4-.1.6-.1h.6c.4 0 .7 0 1 .1s.5.2.7.4.3.4.5.6.2.5.2.9v4.1l-1.1-.2zm-.1-2.7h-1.3c-.3 0-.5 0-.7.1s-.3.1-.5.2l-.3.3s-.1.3-.1.4c0 .1 0 .2.1.3s.1.2.2.3.2.1.3.2.3.1.5.1.5-.1.8-.2.6-.4 1-.7v-1zm8.4 1.8l-.1 2.4h-.9v-1.5h-4.3v1.5h-.9l-.1-2.4h.1c.1 0 .3 0 .4-.1s.3-.1.4-.3.2-.3.3-.5.2-.5.3-.9.1-.8.2-1.3.1-1.2.1-1.9h3.6v5h.9zm-1.8-4.1h-1.6c0 .7-.1 1.2-.2 1.7s-.1.9-.2 1.2-.2.6-.3.8-.2.3-.4.5h2.7v-4.2zm6.7 5v-.8c-.3.3-.6.5-1 .7s-.7.2-1 .2-.6 0-.9-.1-.4-.2-.6-.4-.3-.3-.3-.5-.1-.4-.1-.7c0-.6.2-1.1.7-1.4s1.1-.5 1.9-.5h1.2v-.5c0-.3-.1-.6-.3-.8s-.6-.3-1-.3c-.3 0-.7 0-1 .1s-.7.2-1 .3v-.9l.4-.1s.3-.1.5-.1.4-.1.6-.1h.6c.4 0 .7 0 1 .1s.5.2.7.4.3.4.5.6.2.5.2.9v4.1l-1.1-.2zm-.1-2.7h-1.3c-.3 0-.5 0-.7.1s-.3.1-.5.2l-.3.3s-.1.3-.1.4c0 .1 0 .2.1.3s.1.2.2.3.2.1.3.2.3.1.5.1.5-.1.8-.2.6-.4 1-.7v-1zm7.7 2.7h-1v-2.6h-2.7v2.6h-1v-5.9h1v2.4h2.7v-2.4h1v5.9zm3-5.9v4.1l2.6-4.1h1v5.9h-1v-4.1l-2.6 4.1h-1v-5.9h1zm10.4 2.6v.7h-4.1c0 .6.2 1.1.5 1.4s.8.5 1.5.5h.5s.3 0 .5-.1.3-.1.5-.1.3-.1.4-.1v.8l-.9.2s-.7.1-1.1.1c-.5 0-.9-.1-1.3-.2s-.7-.3-.9-.6-.4-.6-.5-1-.2-.8-.2-1.3c0-.4.1-.8.2-1.2s.3-.7.5-1 .5-.5.8-.7.7-.2 1.1-.2c.4 0 .8.1 1.1.2s.6.3.8.5.4.5.5.9.1.8.1 1.2zm-1-.1c0-.3 0-.5-.1-.7l-.3-.6s-.3-.3-.5-.4-.4-.1-.7-.1c-.2 0-.4 0-.6.1s-.3.2-.5.4-.2.3-.3.6-.1.5-.2.7h3.2zm14.3 1.1c0 .4-.1.7-.2 1s-.3.5-.6.7-.6.3-1 .4-.8.2-1.2.2h-2v-7.7h2.2c1.7 0 2.6.6 2.6 1.9 0 .4-.1.8-.3 1.1s-.5.5-1 .7c.2 0 .4.1.6.2s.3.2.5.4.3.3.3.5.1.3.1.6zm-1.4-3.4c0-.2 0-.3-.1-.4s-.1-.3-.2-.4-.3-.2-.5-.2-.5-.1-.8-.1h-1.1v2.4h1c.2 0 .5 0 .6-.1s.4-.1.5-.2.2-.2.3-.4.3-.4.3-.6zm.3 3.4c0-.2 0-.4-.1-.5s-.2-.3-.4-.4-.3-.2-.6-.2-.5-.1-.8-.1h-1.1v2.6h1.1c.6 0 1-.1 1.3-.3s.6-.6.6-1.1z"/><path class="st4" d="M166.9 210.8h68.2v11.6h-68.2v-11.6z"/><path d="M172 217.9c.3.1.6.2 1 .3s.8.1 1.3.1c.6 0 1-.1 1.3-.4s.4-.6.4-1.1c0-.2 0-.4-.1-.5s-.2-.3-.4-.4-.4-.2-.6-.2-.5-.1-.8-.1h-1.6v-.9h1.6c.2 0 .5 0 .6-.1s.4-.1.5-.2.3-.2.3-.4.1-.4.1-.6c0-.2 0-.3-.1-.5s-.1-.3-.3-.4-.3-.2-.5-.3-.5-.1-.8-.1-.7 0-1 .1-.7.1-1 .2v-.9c.3-.1.6-.2.9-.2s.7-.1 1.2-.1c.9 0 1.5.2 1.9.5s.6.8.6 1.4c0 .4-.1.8-.3 1.1s-.5.5-1 .7c.2 0 .4.1.6.2s.3.2.5.4.3.3.3.5.1.4.1.7c0 .4-.1.7-.2 1s-.3.5-.6.8-.6.4-1 .5-.8.2-1.2.2c-.8 0-1.5-.1-2.1-.3l.4-1zm10.6 1.2v-.8c-.3.3-.6.5-1 .7s-.7.2-1 .2-.6 0-.9-.1-.4-.2-.6-.4-.3-.3-.3-.5-.1-.4-.1-.7c0-.6.2-1.1.7-1.4s1.1-.5 1.9-.5h1.2v-.5c0-.3-.1-.6-.3-.8s-.6-.3-1-.3c-.3 0-.7 0-1 .1s-.7.2-1 .3v-.9l.4-.1s.3-.1.5-.1.4-.1.6-.1h.6c.4 0 .7 0 1 .1s.5.2.7.4.3.4.5.6.2.5.2.9v4.1l-1.1-.2zm-.1-2.7h-1.3c-.3 0-.5 0-.7.1s-.3.1-.5.2l-.3.3s-.1.3-.1.4c0 .1 0 .2.1.3s.1.2.2.3.2.1.3.2.3.1.5.1.5-.1.8-.2.6-.4 1-.7v-1zm8.4 1.8l-.1 2.4h-.9v-1.5h-4.3v1.5h-.9l-.1-2.4h.1c.1 0 .3 0 .4-.1s.3-.1.4-.3.2-.3.3-.5.2-.5.3-.9.1-.8.2-1.3.1-1.2.1-1.9h3.6v5h.9zm-1.8-4.1h-1.6c0 .7-.1 1.2-.2 1.7s-.1.9-.2 1.2-.2.6-.3.8-.2.3-.4.5h2.7v-4.2zm6.7 5v-.8c-.3.3-.6.5-1 .7s-.7.2-1 .2-.6 0-.9-.1-.4-.2-.6-.4-.3-.3-.3-.5-.1-.4-.1-.7c0-.6.2-1.1.7-1.4s1.1-.5 1.9-.5h1.2v-.5c0-.3-.1-.6-.3-.8s-.6-.3-1-.3c-.3 0-.7 0-1 .1s-.7.2-1 .3v-.9l.4-.1s.3-.1.5-.1.4-.1.6-.1h.6c.4 0 .7 0 1 .1s.5.2.7.4.3.4.5.6.2.5.2.9v4.1l-1.1-.2zm-.1-2.7h-1.3c-.3 0-.5 0-.7.1s-.3.1-.5.2l-.3.3s-.1.3-.1.4c0 .1 0 .2.1.3s.1.2.2.3.2.1.3.2.3.1.5.1.5-.1.8-.2.6-.4 1-.7v-1zm7.7 2.7h-1v-2.6h-2.7v2.6h-1v-5.9h1v2.4h2.7v-2.4h1v5.9zm3-5.9v4.1l2.6-4.1h1v5.9h-1v-4.1l-2.6 4.1h-1v-5.9h1zm10.4 2.6v.7h-4.1c0 .6.2 1.1.5 1.4s.8.5 1.5.5h.5s.3 0 .5-.1.3-.1.5-.1.3-.1.4-.1v.8l-.9.2s-.7.1-1.1.1c-.5 0-.9-.1-1.3-.2s-.7-.3-.9-.6-.4-.6-.5-1-.2-.8-.2-1.3c0-.4.1-.8.2-1.2s.3-.7.5-1 .5-.5.8-.7.7-.2 1.1-.2c.4 0 .8.1 1.1.2s.6.3.8.5.4.5.5.9.1.8.1 1.2zm-1-.1c0-.3 0-.5-.1-.7l-.3-.6s-.3-.3-.5-.4-.4-.1-.7-.1c-.2 0-.4 0-.6.1s-.3.2-.5.4-.2.3-.3.6-.1.5-.2.7h3.2zm14.1 3.1c-.6.3-1.3.4-1.9.4-1.1 0-1.9-.3-2.5-1s-.9-1.6-.9-2.9c0-.6.1-1.2.2-1.7s.4-.9.7-1.3.7-.6 1.1-.8.9-.3 1.4-.3c.4 0 .7 0 1 .1l.9.3v1c-.3-.2-.6-.3-.9-.3s-.6-.1-1-.1-.7.1-1 .2-.5.3-.7.6-.4.6-.5.9-.2.8-.2 1.3c0 1 .2 1.7.6 2.2s1 .8 1.8.8c.3 0 .6 0 .9-.1l.9-.3.1 1z"/><path class="st4" d="M173.6 180.6h60.4v11.5h-60.4v-11.5z"/><path d="M205.9 183.2c0 .6-.2 1.1-.5 1.4s-.9.5-1.5.6v1.4h-.9l-.1-2.2h.7c.2 0 .4 0 .6-.1s.3-.1.4-.2.2-.2.2-.3.1-.3.1-.5c0-.3-.1-.5-.2-.8s-.3-.4-.5-.6-.5-.3-.8-.3-.6-.1-1-.1h-.1v-.9h.2c.4 0 .8 0 1.1.1l.9.3s.5.3.7.4.3.4.5.5l.3.6s-.1.5-.1.7zm-2.6 4.3c.1 0 .2 0 .3.1s.2.1.2.2.1.2.2.2.1.2.1.3 0 .2-.1.3-.1.2-.2.2l-.2.2s-.2.1-.3.1-.2 0-.3-.1-.2-.1-.2-.2l-.2-.2s-.1-.2-.1-.3 0-.2.1-.3.1-.2.2-.2.2-.1.2-.2.2-.1.3-.1z"/><path class="st4" d="M268.4 200.5h58.8v11.3h-58.8v-11.3z"/><path d="M300 203.1c0 .6-.2 1.1-.5 1.4s-.9.5-1.5.6v1.4h-1l-.1-2.2h.7c.2 0 .4 0 .6-.1s.3-.1.4-.2.2-.2.2-.3.1-.3.1-.5c0-.3-.1-.5-.2-.8s-.3-.4-.5-.6-.5-.3-.8-.3-.6-.1-1-.1h-.1v-.9h.2c.4 0 .8 0 1.1.1l.9.3s.5.3.7.4.3.4.5.5l.3.6v.7zm-2.6 4.2c.1 0 .2 0 .3.1s.2.1.2.2.1.2.2.2.1.2.1.3 0 .2-.1.3-.1.2-.2.2l-.2.2s-.2.1-.3.1c-.1 0-.2 0-.3-.1s-.2-.1-.2-.2l-.2-.2s-.1-.2-.1-.3 0-.2.1-.3.1-.2.2-.2.2-.1.2-.2.2-.1.3-.1z"/><path class="st4" d="M428.8 249h52.8v9.1h-52.8v-9.1z"/><path d="M438 257.3h-1v-6.7h-3.1v6.7h-1v-7.7h5.2v7.7h-.1zm6.7-3.1c0 .5-.1 1-.2 1.4s-.3.7-.6 1-.6.5-.9.6-.7.2-1.1.2h-.6s-.4-.1-.6-.1v2.5h-1v-8.3h.9l.1 1c.3-.4.6-.7.9-.8s.7-.2 1.1-.2c.3 0 .6.1.9.2s.5.3.6.6.3.6.4.9.1.6.1 1zm-1.1.1c0-.3 0-.6-.1-.9s-.1-.5-.2-.7-.2-.3-.4-.4-.3-.2-.5-.2c-.1 0-.3 0-.4.1s-.3.1-.4.2-.3.2-.5.4-.3.4-.5.6v2.9l.6.2s.4.1.6.1c.6 0 1-.2 1.3-.6s.5-1 .5-1.7zm7.8 0c0 .5-.1.9-.2 1.3s-.3.7-.6 1-.5.5-.9.6-.7.2-1.2.2c-.4 0-.8-.1-1.1-.2s-.6-.3-.9-.6-.4-.6-.5-.9-.2-.8-.2-1.3.1-.9.2-1.3.3-.7.6-1 .5-.5.9-.6.7-.2 1.2-.2c.4 0 .8.1 1.1.2s.6.3.9.6.4.6.5.9.2.8.2 1.3zm-1.1 0c0-.4 0-.7-.1-1s-.2-.5-.3-.7-.3-.3-.5-.4-.5-.1-.7-.1c-.3 0-.6.1-.8.2s-.4.3-.5.5-.2.4-.3.7-.1.5-.1.8c0 .4 0 .7.1 1s.2.5.3.7c.1.2.3.3.5.4s.4.1.7.1c.3 0 .6-.1.8-.2s.4-.3.5-.5.2-.4.3-.7.1-.5.1-.8zm8 2.1l-.1 2.4h-.9v-1.5h-4.3v1.5h-.9l-.1-2.4h.1c.1 0 .3 0 .4-.1s.3-.1.4-.3.2-.3.3-.5.2-.5.3-.9.1-.8.2-1.3.1-1.2.1-1.9h3.6v5h.9zm-1.9-4.1h-1.6c0 .7-.1 1.2-.2 1.7s-.1.9-.2 1.2-.2.6-.3.8c-.1.2-.2.3-.4.5h2.7v-4.2zm8.3-.9l-2 5.3c-.2.5-.4 1-.6 1.4s-.5.7-.7 1-.5.4-.9.5-.7.2-1 .2h-.6v-.9h.6c.2 0 .4 0 .5-.1s.3-.1.5-.3.3-.3.4-.5.3-.4.4-.7l-2.4-5.9h1.2l1.5 3.9.3.9.3-.9 1.4-3.9h1.1zm6.6 5.9h-1.4l-2.7-3.2v3.2h-1v-5.9h1v2.7l2.6-2.7h1.3l-2.8 2.7 3 3.2zm6.4-5h-2.2v5h-1v-5h-2.2v-.9h5.5l-.1.9z"/><path class="st4" d="M105.5 82.4h57.3v9.1h-57.3v-9.1z"/><path d="M120.5 83.9h-1.8v-.9h4.6v.9h-1.8v5.9h1.8v.9h-4.6v-.9h1.8v-5.9zm4.7.9h.9v.9c.2-.2.3-.4.5-.5s.3-.2.5-.3.3-.1.5-.2.3-.1.5-.1c.6 0 1.1.2 1.4.5s.5.9.5 1.6v3.8h-1v-3.8c0-.5-.1-.8-.3-1s-.4-.3-.8-.3c-.1 0-.2 0-.4.1l-.4.2s-.3.2-.4.4-.3.4-.5.6v3.9h-1v-5.8zm11.6 2.8c0 .5-.1 1-.2 1.4s-.3.7-.6 1-.6.5-.9.6-.7.2-1.1.2h-.6s-.4-.1-.6-.1v2.5h-1v-8.3h.9l.1 1c.3-.4.6-.7.9-.8s.7-.2 1.1-.2c.3 0 .6.1.9.2s.5.3.6.6.3.6.4.9.1.6.1 1zm-1 .1c0-.3 0-.6-.1-.8s-.1-.5-.2-.7-.2-.3-.4-.4-.3-.2-.5-.2c-.1 0-.3 0-.4.1s-.3.1-.4.2-.3.2-.5.4-.3.4-.5.6v2.9l.6.2s.4.1.6.1c.6 0 1-.2 1.3-.6s.5-1.1.5-1.8zm7.3 3h-.9v-.9c-.2.2-.3.4-.5.5s-.3.2-.5.3-.3.1-.5.2-.3.1-.5.1c-.6 0-1.1-.2-1.4-.5s-.5-.9-.5-1.6v-3.8h1v3.8c0 .9.3 1.4 1 1.4.1 0 .2 0 .4-.1l.4-.2s.3-.2.4-.4.3-.4.5-.6v-3.9h1l.1 5.7zm6.7-.1c-.2.1-.5.1-.7.1h-.8c-.7 0-1.3-.2-1.7-.5s-.5-.8-.5-1.5v-3.1h-1.6v-.9h1.6v-1.6l1-.3v1.9h2.6v.9h-2.6v3c0 .4.1.7.3.9s.6.3 1 .3h.6s.5-.1.7-.1l.1.9z"/><path class="st11" d="M249.1 19.1v265.7m96.3-265.7v265.7"/><path class="st0" d="M298.2 215.6v29.5h51v-51h5.5"/><path class="st2" d="M353.7 196.1l2.8-1.6-2.8-1.7v3.3z"/><path class="st1" d="M105.7 211.8l30.1-22.2"/></svg>