<svg xmlns="http://www.w3.org/2000/svg" viewBox="0 0 77.8 30"><path d="M77.1 15L62.7 0H0v30h62.7z"/><path d="M18.4 18.4l-.1 3.2h-1.2v-2.1h-5.5v2.1h-1.2l-.1-3.2h.1c.2 0 .3 0 .5-.1l.5-.5c.1-.2.3-.6.4-1 .1-.4.2-.9.4-1.6s.2-1.4.3-2.3c.1-.9.1-1.9.2-3.1h4.7v8.5h1zM16 11h-2.1c0 1-.1 1.9-.2 2.8s-.2 1.6-.3 2.2c-.1.6-.3 1.1-.4 1.5-.2.4-.4.7-.6.9H16V11zm10.8 8.5h-1.4l-.7-2.1h-4l-.7 2.1h-1.4l3.2-9.6h1.8l3.2 9.6zm-2.5-3.3l-1.6-5.1-1.6 5.1h3.2zm9.7 3.3h-1.3V11h-2.1c0 1.3-.1 2.3-.2 3.3s-.3 1.7-.4 2.3c-.1.7-.3 1.2-.5 1.5s-.4.7-.6.8c-.2.2-.4.3-.6.4s-.4.1-.7.1c-.2 0-.4 0-.6-.1l.1-1.1c.3 0 .5 0 .7-.2.2-.2.4-.4.5-.8.2-.4.3-.8.4-1.3.1-.5.2-1.1.3-1.7.1-.6.1-1.3.2-2.1.1-.7.1-1.5.1-2.4H34v9.8zm8.1 0h-5.5V9.9h5.5V11h-4.2v3h4v1.1h-4v3.3h4.2v1.1zm8.3 0h-5.5V9.9h5.5V11h-4.2v3h4v1.1h-4v3.3h4.2v1.1z" fill="#fff"/></svg>