<?xml version="1.0" encoding="utf-8"?>
<!-- Generator: Adobe Illustrator 15.1.0, SVG Export Plug-In . SVG Version: 6.00 Build 0)  -->
<!DOCTYPE svg PUBLIC "-//W3C//DTD SVG 1.1//EN" "http://www.w3.org/Graphics/SVG/1.1/DTD/svg11.dtd">
<svg version="1.1" id="Layer_1" xmlns="http://www.w3.org/2000/svg" xmlns:xlink="http://www.w3.org/1999/xlink" x="0px" y="0px"
	 width="36.917px" height="54.542px" viewBox="0 0 36.917 54.542" enable-background="new 0 0 36.917 54.542" xml:space="preserve">
<symbol  id="Symbol_46" viewBox="-14.093 -14.212 28.187 28.423">
	<g id="Layer_1_1_">
		<path fill="none" stroke="#54559D" stroke-width="3.45" stroke-linejoin="round" stroke-miterlimit="3" d="M12.874-12.992
			l-12.95,12.95l-12.8-12.75 M-12.726,12.607l12.65-12.649l12.7,13.05"/>
	</g>
</symbol>
<g>
	<g>
		<g>
			<path fill="#58595B" d="M11.49,0.353c-3.5,3.5-7,7-10.5,10.5c-1.369,1.369,0.752,3.49,2.121,2.121c3.5-3.5,7-7,10.5-10.5
				C14.98,1.105,12.859-1.016,11.49,0.353L11.49,0.353z"/>
		</g>
	</g>
	<g>
		<g>
			<path fill="#58595B" d="M13.611,21.353c-3.5-3.499-7-6.999-10.5-10.5c-1.369-1.369-3.49,0.752-2.121,2.121c3.5,3.5,7,7,10.5,10.5
				C12.859,24.843,14.98,22.722,13.611,21.353L13.611,21.353z"/>
		</g>
	</g>
</g>
</svg>
