<svg xmlns="http://www.w3.org/2000/svg" width="574.814" height="574.471" viewBox="-282.438 -249.035 574.814 574.471"><path fill="#FFF" d="M-90.832 79.234H4.971V161.3h-95.803z"/><path fill-rule="evenodd" clip-rule="evenodd" fill="#919090" d="M-293.488 20.5v-2.601h.949c-.166.7-.301 1.417-.4 2.15-.199.033-.316.083-.35.149v.45h-.199V20.5z"/><path clip-rule="evenodd" fill="none" d="M-293.488 20.649V20.5"/><path fill="#A3ADD8" d="M-282.438-248.469h95.803v82.066h-95.803z"/><path fill="#FFF" d="M-186.635-249.035h95.803v82.066h-95.803zM-90.832-249.035H4.971v82.066h-95.803zM4.971-249.035h95.801v82.066H4.971z"/><path fill="#DCE8F7" d="M100.771-249.035h95.803v82.066h-95.803z"/><path fill="#7E97CE" d="M-282.438-166.969h95.803v82.068h-95.803z"/><path fill="#A3ADD8" d="M-186.635-166.969h95.803v82.068h-95.803z"/><path fill="#BACFED" d="M-90.832-166.969H4.971v82.068h-95.803z"/><path fill="#FFF" d="M4.971-166.969h95.801v82.068H4.971z"/><path fill="#FFF" d="M100.771-166.969h95.803v82.068h-95.803zM196.574-166.969h95.803v82.068h-95.803z"/><path fill="#A3ADD8" d="M-282.438-84.9h95.803v82.066h-95.803z"/><path fill="#FFF" d="M-186.635-84.9h95.803v82.066h-95.803zM-90.832-84.9H4.971v82.066h-95.803z"/><path fill="#BACFED" d="M4.971-84.9h95.801v82.066H4.971z"/><path fill="#FFF" d="M196.574-84.9h95.803v82.066h-95.803z"/><path fill="#BACFED" d="M-282.438-2.834h95.803v82.068h-95.803z"/><path fill="#7594CC" d="M-186.635-2.834h95.803v82.068h-95.803z"/><path fill="#BACFED" d="M-90.832-2.834H4.971v82.068h-95.803z"/><path fill="#A3ADD8" d="M4.971-2.834h95.801v82.068H4.971z"/><path fill="#104E99" d="M100.771-2.834h95.803v82.068h-95.803z"/><path fill="#FFF" d="M196.574-2.834h95.803v82.068h-95.803z"/><path fill="#7594CC" d="M-282.438 79.234h95.803V161.3h-95.803z"/><path fill="#A3ADD8" d="M-186.635 79.234h95.803V161.3h-95.803z"/><path fill="#7594CC" d="M4.971 79.234h95.801V161.3H4.971z"/><path fill="#FFF" d="M100.771 79.234h95.803V161.3h-95.803z"/><path fill="#7594CC" d="M196.574 79.234h95.803V161.3h-95.803z"/><path fill="#A3ADD8" d="M-282.438 161.301h95.803v82.067h-95.803z"/><path fill="#BACFED" d="M-186.635 161.301h95.803v82.067h-95.803z"/><path fill="#A3ADD8" d="M-90.832 161.301H4.971v82.067h-95.803z"/><path fill="#FFF" d="M4.971 161.301h95.801v82.067H4.971z"/><path fill="#7594CC" d="M100.771 161.301h95.803v82.067h-95.803z"/><path fill="#FFF" d="M196.574 161.301h95.803v82.067h-95.803z"/><path fill="#7594CC" d="M-282.438 243.368h95.803v82.067h-95.803z"/><path fill="#A3ADD8" d="M-186.635 243.368h95.803v82.067h-95.803z"/><path fill="#8EA0D2" d="M-90.832 243.368H4.971v82.067h-95.803z"/><path fill="#7594CC" d="M4.971 243.368h95.801v82.067H4.971z"/><path fill="#FFF" d="M100.771 243.368h95.803v82.067h-95.803zM196.574 243.368h95.803v82.067h-95.803z"/></svg>