<?xml version="1.0" encoding="utf-8"?>
<!-- Generator: Adobe Illustrator 15.1.0, SVG Export Plug-In . SVG Version: 6.00 Build 0)  -->
<!DOCTYPE svg PUBLIC "-//W3C//DTD SVG 1.1//EN" "http://www.w3.org/Graphics/SVG/1.1/DTD/svg11.dtd">
<svg version="1.1" id="Layer_1" xmlns="http://www.w3.org/2000/svg" xmlns:xlink="http://www.w3.org/1999/xlink" x="0px" y="0px"
	 width="1024px" height="768px" viewBox="0 0 1024 768" enable-background="new 0 0 1024 768" xml:space="preserve">
<g>
	<g>
		<rect x="85.358" y="30.87" width="853.262" height="706.28"/>
	</g>
	<g>
		<path fill="#CFD0CC" d="M938.6,748H85.401c-6.021,0-10.901-4.857-10.901-10.851V30.849C74.5,24.857,79.381,20,85.401,20H938.6
			c6.021,0,10.899,4.856,10.899,10.849V737.15C949.5,743.143,944.62,748,938.6,748z M96.302,726.303h831.396V41.697H96.302V726.303z
			"/>
	</g>
	<path fill="#FFFFFF" d="M171.856,639.855v-494.22c122.064-56.614,236.93-41.508,344.661,45.461v461.953
		c-114.126-48.675-226.195-50.7-336.272-5.994L171.856,639.855z"/>
	
		<path fill="none" stroke="#FFFFFF" stroke-width="44.7354" stroke-linecap="round" stroke-linejoin="round" stroke-miterlimit="3" d="
		M516.333,642.723c2.287,0,3.462,0.741,3.462,2.303c97.428-88.99,203.665-91.711,318.773-8.021V151.287
		c-99.746-52.191-207.189-36.458-322.267,47.153L516.333,642.723L516.333,642.723z M192.923,636.958
		c105.867-42.964,213.68-41.032,323.41,5.78 M516.333,198.441c-103.579-83.642-214.082-98.17-331.477-43.722v475.316"/>
</g>
</svg>
