<svg xmlns="http://www.w3.org/2000/svg" width="1024" height="768" viewBox="0 0 1024 768"><path d="M85.358 30.87H938.62v706.28H85.358z"/><path fill="#CFD0CC" d="M938.6 748H85.401c-6.021 0-10.901-4.857-10.901-10.851v-706.3C74.5 24.857 79.381 20 85.401 20H938.6c6.021 0 10.899 4.856 10.899 10.849V737.15C949.5 743.143 944.62 748 938.6 748zM96.302 726.303h831.396V41.697H96.302v684.606z"/><path fill="#FFF" d="M171.856 639.855v-494.22c122.064-56.614 236.93-41.508 344.661 45.461v461.953c-114.126-48.675-226.195-50.7-336.272-5.994l-8.389-7.2z"/><path fill="none" stroke="#FFF" stroke-width="44.735" stroke-linecap="round" stroke-linejoin="round" stroke-miterlimit="3" d="M516.333 642.723c2.287 0 3.462.741 3.462 2.303 97.428-88.99 203.665-91.711 318.773-8.021V151.287c-99.746-52.191-207.189-36.458-322.267 47.153l.032 444.283zm-323.41-5.765c105.867-42.964 213.68-41.032 323.41 5.78m0-444.297c-103.579-83.642-214.082-98.17-331.477-43.722v475.316"/></svg>