<svg xmlns="http://www.w3.org/2000/svg" viewBox="0 0 39.3 32.8"><path d="M.9.8h37.5V32H.9z"/><path stroke="#D0D1CC" stroke-linejoin="round" stroke-miterlimit="3" fill="none" d="M.9.8h37.5V32H.9z"/><path fill="#fff" d="M4.8 26.9V5.6C10 3.2 15 3.8 19.6 7.6v19.9c-4.9-2.1-9.7-2.2-14.5-.3l-.3-.3z"/><path stroke="#fff" stroke-width="2" stroke-linecap="round" stroke-linejoin="round" stroke-miterlimit="3" d="M19.7 27.5c.1 0 .2 0 .2.1 4.4-4 9.1-4.1 14.3-.4V5.5c-4.5-2.3-9.3-1.6-14.4 2.1l-.1 19.9zm-14.5-.3c4.7-1.9 9.6-1.8 14.5.3m0-19.9c-4.6-3.7-9.6-4.4-14.8-2v21.3" fill="none"/></svg>