<svg xmlns="http://www.w3.org/2000/svg" width="46" height="75" viewBox="88.55 0 46 75"><path stroke="#CFD0CC" stroke-linejoin="round" stroke-miterlimit="3" d="M91.982 2.674h39.135v32.553H91.982z"/><path fill="#FFF" d="M112.913 23.415c0 1.098-.643 1.778-1.665 1.778s-1.665-.681-1.665-1.778V19.14c0-1.703.038-2.005 2.649-2.535 2.99-.606 3.481-2.687 3.481-4.086 0-2.573-1.854-4.162-4.391-4.162-2.006 0-3.558.719-4.39 3.103-.342.983-.796 1.248-1.477 1.248-.87 0-1.666-.681-1.628-1.741.151-3.329 3.86-5.712 7.381-5.712 4.581 0 8.063 2.951 8.063 6.961 0 4.086-2.574 6.622-6.359 7.416v3.783zm-1.665 5.372c1.061 0 1.93.871 1.93 1.93 0 1.061-.869 1.93-1.93 1.93-1.06 0-1.931-.87-1.931-1.93a1.94 1.94 0 0 1 1.931-1.93z"/></svg>