<?xml version="1.0" encoding="utf-8"?>
<!-- Generator: Adobe Illustrator 15.1.0, SVG Export Plug-In . SVG Version: 6.00 Build 0)  -->
<!DOCTYPE svg PUBLIC "-//W3C//DTD SVG 1.1//EN" "http://www.w3.org/Graphics/SVG/1.1/DTD/svg11.dtd">
<svg xmlns="http://www.w3.org/2000/svg" xmlns:xlink="http://www.w3.org/1999/xlink" version="1.1" id="Layer_1" x="0px" y="0px" width="46px" height="75px" viewBox="88.55 0 46 75" enable-background="new 88.55 0 46 75" xml:space="preserve">

<rect x="91.982" y="2.674" stroke="#CFD0CC" stroke-linejoin="round" stroke-miterlimit="3" width="39.135" height="32.553"/>

<g>
	<path fill="#FFFFFF" d="M112.913,23.415c0,1.098-0.643,1.778-1.665,1.778s-1.665-0.681-1.665-1.778V19.14   c0-1.703,0.038-2.005,2.649-2.535c2.99-0.606,3.481-2.687,3.481-4.086c0-2.573-1.854-4.162-4.391-4.162   c-2.006,0-3.558,0.719-4.39,3.103c-0.342,0.983-0.796,1.248-1.477,1.248c-0.87,0-1.666-0.681-1.628-1.741   c0.151-3.329,3.86-5.712,7.381-5.712c4.581,0,8.063,2.951,8.063,6.961c0,4.086-2.574,6.622-6.359,7.416V23.415z M111.248,28.787   c1.061,0,1.93,0.871,1.93,1.93c0,1.061-0.869,1.93-1.93,1.93c-1.06,0-1.931-0.87-1.931-1.93   C109.317,29.658,110.188,28.787,111.248,28.787z"/>
</g>
</svg>