<svg xmlns="http://www.w3.org/2000/svg" xmlns:xlink="http://www.w3.org/1999/xlink" width="351" height="129" viewBox="-353.25 -263.875 351 129"><use xlink:href="#Symbol_47" width="20.297" height="20.467" x="-10.149" y="-10.233" transform="matrix(1 0 0 -1 -70.827 698.467)" overflow="visible"/><path fill-rule="evenodd" clip-rule="evenodd" d="M-40.46-254.688c9.911.019 18.221 2.845 24.939 8.484 7.218 6.143 10.816 14.343 10.796 24.597.02 5.104-.866 9.454-2.657 13.047-1.369 2.797-3.601 5.722-6.695 8.774l-9.236 8.716a64.537 64.537 0 0 0-9.64 12.992l-.407.694h-311.862v2.595h310.88c-.589 2.453-.879 6.379-.865 11.777h-15.125l.461-7.156h-4.617v27.015h-5.833v-24.704h-.056l-8.256 24.704h-5.542l-8.372-24.704h-.055v24.704h-5.833v-27.015h-11.027c4.147 2.558 6.227 6.752 6.236 12.582.022 4.887-1.422 8.676-4.33 11.373-2.52 2.29-5.772 3.444-9.756 3.464-3.97-.02-7.2-1.174-9.7-3.464-2.927-2.697-4.391-6.486-4.388-11.373-.006-5.916 2.015-10.11 6.062-12.582h-13.393c2.464 1.565 3.674 3.971 3.636 7.216.041 2.274-.652 4.255-2.08 5.944-1.822 2.008-4.418 3.009-7.792 3.002h-3.753v10.853h-5.774v-27.015h-5.137v3.346h-11.372v6.58h10.447v4.62h-10.447v7.393h11.372v5.076h-17.145v-27.015h-4.908l-9.525 11.257 11.313 15.758h-7.562l-9.47-14.433h-.057v14.433h-5.83v-14.433h-.174l-9.179 14.433h-7.563l11.375-15.758-9.642-11.257h-6.12v21.938h3.465v11.313h-5.947v-6.237h-17.318v6.237h-5.832v-11.313h3.292c2.4-3.95 3.592-8.778 3.58-14.494v-7.444h-9.7v3.346h-11.432v6.58h10.45v4.62h-10.45v7.393h11.432v5.076h-17.261v-27.015h-5.773v27.015h-6.005v-12.469h-11.547v12.469h-5.829v-27.015h-5.024v3.346h-11.431v6.58h10.449v4.62h-10.449v7.393h11.431v5.076h-17.203v-27.015h-5.832v27.015h-5.772l.058-24.704h-.058l-8.431 24.704h-5.599l-8.198-24.704h-.173l.173 24.704h-6.062V-245.8c30.709 30.72 61.982 43.345 93.813 37.873 5.59-.936 11.44-2.629 17.551-5.082 3.125-1.146 8.533-3.551 16.223-7.215 14.022-6.64 25.972-10.507 35.851-11.604 10.371-1.086 22.38-.2 36.023 2.658 10.234 2.076 23.014 5.751 38.333 11.027l38.738 13.334c14.489 4.811 26.651 7.986 36.487 9.526l.864-.868c-9.913-1.687-22.151-5.305-36.715-10.852l-38.853-15.59c-15.504-6.231-28.378-10.62-38.624-13.16-13.723-3.352-25.808-4.353-36.254-3.003-9.879 1.25-21.829 5.733-35.851 13.454-7.69 4.191-13.097 7.002-16.223 8.428-6.111 2.863-11.96 4.808-17.551 5.827-31.831 6.471-63.103-8.176-93.813-43.93v-6.64c30.709 39.599 61.982 55.863 93.813 48.783 5.59-1.17 11.44-3.309 17.551-6.408 3.125-1.585 8.533-4.721 16.223-9.412 14.022-8.55 25.972-13.533 35.851-14.95 10.446-1.467 22.531-.333 36.254 3.403 10.245 2.816 23.12 7.687 38.624 14.608l38.853 17.26c14.652 6.142 26.892 10.145 36.715 12.008l11.373-11.604c3.56-4.425 5.347-9.312 5.371-14.665-.05-4.726-1.436-8.825-4.157-12.293-3.615-4.621-9.041-6.931-16.279-6.931-14.825-.003-22.231 8.849-22.229 26.559v4.444l-14.546-10.277c.771-8.67 3.312-15.792 7.62-21.36 6.384-8.147 16.255-12.228 29.618-12.236zm-52.419 64.773c1.107-.014 1.918.143 2.424.461.569.347.84.944.806 1.793.009.761-.242 1.397-.749 1.905-.599.438-1.542.671-2.83.692h-1.385v-4.852h1.734zm-6.929-10.91v19.399h7.85c2.329 0 4.1-.463 5.313-1.388 1.482-1.164 2.229-2.666 2.251-4.504-.01-1.947-.666-3.563-1.962-4.849-1.229-.92-3.231-1.384-6.005-1.386h-2.251v-7.273h-5.196zm49.246 42.778h15.468v14.894h-15.468v-14.894zm-14.264-12.121h-13.103l6.409 20.088h.115l1.328-5.252 5.251-14.836zm-137.34-30.657v19.399h6.062l6.002-12.99h.173l-.173 12.99h5.255v-19.399h-6.235l-5.947 12.99h-.172l.172-12.99h-5.137zm-15.99 3.58h4.674v15.819h5.196v-19.399h-14.604l-.577 13.337c.007.749-.244 1.286-.751 1.613-.349.423-.869.633-1.558.637a8.092 8.092 0 0 0-.867-.173v3.985l2.077.229c2.083.01 3.604-.533 4.562-1.617.926-.94 1.464-2.842 1.616-5.714l.232-8.717zm-1.733 30.423h-7.448v4.099c.03 6.046-.935 10.876-2.887 14.494h10.335v-18.593zm-38.853-31.751c-1.748 1.666-2.633 4.128-2.656 7.39.022 3.299.908 5.799 2.656 7.506 1.613 1.764 3.962 2.647 7.042 2.654 3.054-.007 5.457-.891 7.216-2.654 1.746-1.707 2.632-4.207 2.657-7.506-.025-3.262-.912-5.724-2.657-7.39-1.759-1.688-4.162-2.534-7.216-2.539-3.08.005-5.429.85-7.042 2.539zm10.162 2.886c.872 1.163 1.313 2.665 1.325 4.503-.012 1.938-.453 3.495-1.325 4.677-.61 1.101-1.649 1.659-3.12 1.673-1.359-.014-2.419-.572-3.175-1.673-.772-1.013-1.159-2.571-1.154-4.677-.005-2.007.381-3.509 1.154-4.503.756-1.083 1.816-1.623 3.175-1.616 1.471-.007 2.511.533 3.12 1.616zm-38.103-5.138h-12.989v19.399h5.138v-15.589h7.852v-3.81zm9.815 8.314h-.289v-8.314h-5.081v19.399h5.081v-9.354h.289l6.232 9.354h5.774l-7.216-10.51 6.698-8.89h-5.948l-5.54 8.315zm-6.295 32.269h11.547v-9.926h-11.547v9.926zm164.071-40.583v3.811h4.737v15.589h5.021v-15.589h4.907v-3.811h-14.665zm-22.514 0h-5.138v19.399h7.795c2.351 0 4.142-.463 5.369-1.388 1.463-1.078 2.196-2.581 2.194-4.504.007-2.031-.589-3.648-1.791-4.849-1.22-.92-3.258-1.384-6.12-1.386h-2.309v-7.272zm1.617 10.91c1.166-.014 2.031.143 2.597.461.59.347.878.944.866 1.793-.031.929-.319 1.563-.866 1.905-.508.438-1.451.671-2.826.692h-1.388v-4.852h1.617zm3.925 22.344h-2.656v9.064h2.656c3.273.006 4.907-1.494 4.907-4.505 0-2.993-1.634-4.513-4.907-4.559zm12.296-13.855v-19.399h-5.139v19.399h5.139zm-37.004-8.256l2.482.46c.773.343 1.16.979 1.154 1.904.013.73-.238 1.289-.751 1.676-.529.361-1.493.552-2.885.578h-1.56v-4.618h1.56zm-1.56-3.636v-3.696h8.891v-3.811h-14.027v19.399h8.023c2.309.016 4.06-.39 5.255-1.214 1.499-1.144 2.268-2.662 2.308-4.561-.023-2.139-.734-3.736-2.137-4.793-1.212-.86-3.538-1.304-6.984-1.325h-1.329zm46.994 35.732c.001 7.064 2.679 10.606 8.025 10.622 5.242-.016 7.86-3.558 7.85-10.622.011-7.125-2.607-10.686-7.85-10.681-5.346-.004-8.024 3.556-8.025 10.681zm-71.645-2.019h.057l8.371-10.563h-8.428v10.563zm-6.004 0h.174v-10.563h-8.371l8.197 10.563zm-113.094-33.599h-8.024v-4.041h8.601v-3.58h-13.566v19.399h13.856v-3.638h-8.891v-4.447h8.024v-3.693zm-29.095-4.041h4.79v15.819h5.195v-19.399h-14.663l-.518 13.337c-.147.835-.378 1.372-.695 1.613a2.178 2.178 0 0 1-1.558.637l-1.041-.173v3.985l2.194.229c2.06.01 3.56-.533 4.504-1.617.771-.854 1.327-2.762 1.672-5.714l.12-8.717zm1.036 47.165h.173l1.215-5.252 5.251-14.836h-12.872l6.233 20.088z"/></svg>