<svg xmlns="http://www.w3.org/2000/svg" width="21.833" height="21.833" viewBox="14.75 11.167 21.833 21.833"><path d="M35.963 30.096l-4.432-4.432c1.068-1.542 1.602-3.261 1.602-5.157 0-1.233-.239-2.41-.717-3.535s-1.125-2.094-1.939-2.908-1.783-1.461-2.908-1.939-2.303-.717-3.535-.717a8.95 8.95 0 0 0-3.535.717 9.102 9.102 0 0 0-2.907 1.939 9.087 9.087 0 0 0-1.938 2.908 8.927 8.927 0 0 0-.718 3.535c0 1.232.239 2.411.718 3.536a9.078 9.078 0 0 0 1.938 2.906 9.085 9.085 0 0 0 2.907 1.939 8.933 8.933 0 0 0 3.535.717c1.896 0 3.614-.535 5.157-1.604l4.432 4.42c.311.328.698.492 1.164.492.457 0 .846-.162 1.169-.484a1.59 1.59 0 0 0 .485-1.17c0-.457-.159-.843-.478-1.163m-7.838-5.498c-1.133 1.133-2.497 1.699-4.091 1.699-1.594 0-2.958-.566-4.09-1.699-1.133-1.134-1.7-2.497-1.7-4.09 0-1.594.566-2.958 1.7-4.09 1.133-1.133 2.497-1.701 4.09-1.701 1.594 0 2.958.568 4.091 1.701s1.7 2.497 1.7 4.09-.567 2.956-1.7 4.09m-.368-4.918h-7.445a.405.405 0 0 0-.291.123.397.397 0 0 0-.122.291v.826c0 .114.041.211.122.292.083.083.18.123.291.123h7.445a.4.4 0 0 0 .291-.123.395.395 0 0 0 .123-.292v-.826a.402.402 0 0 0-.123-.291.402.402 0 0 0-.291-.123"/></svg>