<svg xmlns="http://www.w3.org/2000/svg" width="21.833" height="21.833" viewBox="14.75 11.167 21.833 21.833" enable-background="new 14.75 11.167 21.833 21.833"><path d="M35.963 30.096l-4.432-4.432c1.068-1.542 1.602-3.261 1.602-5.157 0-1.233-.239-2.41-.717-3.535s-1.125-2.094-1.939-2.908-1.783-1.461-2.908-1.939-2.303-.717-3.535-.717c-1.231 0-2.41.239-3.535.717-1.124.479-2.094 1.125-2.907 1.939-.814.814-1.46 1.783-1.938 2.908-.479 1.125-.718 2.302-.718 3.535 0 1.232.239 2.411.718 3.536.478 1.123 1.124 2.094 1.938 2.906.813.814 1.783 1.461 2.907 1.939 1.125.479 2.304.717 3.535.717 1.896 0 3.614-.535 5.157-1.604l4.432 4.42c.311.328.698.492 1.164.492.457 0 .846-.162 1.169-.484.324-.323.485-.713.485-1.17 0-.457-.159-.843-.478-1.163m-7.838-5.498c-1.133 1.133-2.497 1.699-4.091 1.699-1.594 0-2.958-.566-4.09-1.699-1.133-1.134-1.7-2.497-1.7-4.09 0-1.594.566-2.958 1.7-4.09 1.133-1.133 2.497-1.701 4.09-1.701 1.594 0 2.958.568 4.091 1.701s1.7 2.497 1.7 4.09-.567 2.956-1.7 4.09M27.757 19.68h-7.444999999999999c-.111 0-.208.042-.291.123-.081.081-.122.178-.122.291v.826c0 .114.041.211.122.292.083.083.18.123.291.123h7.445c.112 0 .208-.041.291-.123.082-.081.123-.178.123-.292v-.826c0-.112-.042-.209-.123-.291-.082-.081-.179-.123-.291-.123"/></svg>