<svg xmlns="http://www.w3.org/2000/svg" width="21.75" height="21.833" viewBox="13.083 45.083 21.75 21.833" enable-background="new 13.083 45.083 21.75 21.833"><path d="M34.31 63.929l-4.432-4.432c1.067-1.542 1.602-3.261 1.602-5.157 0-1.233-.239-2.41-.717-3.535-.479-1.125-1.125-2.094-1.939-2.908-.814-.814-1.783-1.461-2.908-1.939-1.124-.478-2.303-.717-3.533-.717-1.232 0-2.411.239-3.535.717-1.125.479-2.095 1.125-2.908 1.939-.814.814-1.461 1.783-1.938 2.908-.479 1.125-.718 2.302-.718 3.535 0 1.232.239 2.411.718 3.536.478 1.123 1.124 2.094 1.938 2.906.813.814 1.783 1.461 2.908 1.939 1.124.479 2.303.717 3.535.717 1.895 0 3.613-.535 5.156-1.604l4.432 4.42c.311.328.698.492 1.164.492.457 0 .846-.162 1.169-.484.323-.323.485-.713.485-1.17 0-.457-.161-.843-.479-1.163m-7.838-5.498c-1.133 1.133-2.496 1.699-4.09 1.699-1.595 0-2.959-.566-4.092-1.699-1.133-1.134-1.699-2.497-1.699-4.09 0-1.594.566-2.958 1.699-4.09s2.497-1.701 4.092-1.701c1.594 0 2.957.568 4.09 1.701s1.699 2.497 1.699 4.09-.567 2.956-1.699 4.09M26.104 53.513h-2.896v-2.895c0-.112-.041-.208-.123-.291-.082-.081-.179-.122-.289-.122h-.828c-.112 0-.209.042-.291.122-.082.083-.123.179-.123.291v2.895h-2.895c-.111 0-.209.042-.291.123-.082.081-.123.178-.123.291v.826c0 .114.041.211.123.292.082.083.18.123.291.123h2.895v2.895c0 .113.041.21.123.291.082.082.179.123.291.123h.828c.11 0 .207-.041.289-.123.082-.081.123-.178.123-.291v-2.895h2.896c.111 0 .208-.041.29-.123.082-.081.123-.178.123-.292v-.826c0-.112-.041-.209-.123-.291-.082-.081-.179-.123-.29-.123"/></svg>