<svg xmlns="http://www.w3.org/2000/svg" width="21.75" height="21.833" viewBox="13.083 45.083 21.75 21.833"><path d="M34.31 63.929l-4.432-4.432c1.067-1.542 1.602-3.261 1.602-5.157 0-1.233-.239-2.41-.717-3.535a9.106 9.106 0 0 0-1.939-2.908 9.09 9.09 0 0 0-2.908-1.939 8.941 8.941 0 0 0-3.533-.717 8.944 8.944 0 0 0-3.535.717 9.095 9.095 0 0 0-2.908 1.939 9.071 9.071 0 0 0-1.938 2.908 8.927 8.927 0 0 0-.718 3.535c0 1.232.239 2.411.718 3.536a9.078 9.078 0 0 0 1.938 2.906 9.079 9.079 0 0 0 2.908 1.939 8.926 8.926 0 0 0 3.535.717c1.895 0 3.613-.535 5.156-1.604l4.432 4.42c.311.328.698.492 1.164.492.457 0 .846-.162 1.169-.484.323-.323.485-.713.485-1.17 0-.457-.161-.843-.479-1.163m-7.838-5.498c-1.133 1.133-2.496 1.699-4.09 1.699-1.595 0-2.959-.566-4.092-1.699-1.133-1.134-1.699-2.497-1.699-4.09 0-1.594.566-2.958 1.699-4.09s2.497-1.701 4.092-1.701c1.594 0 2.957.568 4.09 1.701s1.699 2.497 1.699 4.09-.567 2.956-1.699 4.09m-.368-4.918h-2.896v-2.895a.4.4 0 0 0-.123-.291.4.4 0 0 0-.289-.122h-.828a.405.405 0 0 0-.291.122.4.4 0 0 0-.123.291v2.895h-2.895a.403.403 0 0 0-.291.123.395.395 0 0 0-.123.291v.826c0 .114.041.211.123.292.082.083.18.123.291.123h2.895v2.895c0 .113.041.21.123.291a.398.398 0 0 0 .291.123h.828c.11 0 .207-.041.289-.123a.395.395 0 0 0 .123-.291v-2.895h2.896a.397.397 0 0 0 .29-.123.395.395 0 0 0 .123-.292v-.826a.398.398 0 0 0-.123-.291.401.401 0 0 0-.29-.123"/></svg>