<svg xmlns="http://www.w3.org/2000/svg" xmlns:xlink="http://www.w3.org/1999/xlink" width="130.333" height="93.167" viewBox="-54.5 -18.167 130.333 93.167"><symbol id="f" viewBox="-12.3 -9.3 165.58 113.627"><linearGradient id="a" gradientUnits="userSpaceOnUse" x1="105.007" y1="34.339" x2="78.625" y2="77.222"><stop offset="0" stop-color="#00693b"/><stop offset=".327" stop-color="#8fcc2e"/><stop offset=".486" stop-color="#abd400"/><stop offset=".612" stop-color="#abd900"/><stop offset=".749" stop-color="#8fc42e"/><stop offset="1" stop-color="#008a3b"/></linearGradient><path fill-rule="evenodd" clip-rule="evenodd" fill="url(#a)" d="M52.45 2.35C36.583 27.983 27.867 42.1 26.3 44.7c.267.366.684.733 1.25 1.1l99.6 57.55c1.533.967 3.2 1.217 5 .75 1.767-.434 3.133-1.416 4.1-2.949L152.3 75.05c.934-1.533 1.2-3.2.8-5-.434-1.767-1.4-3.116-2.9-4.05L53.9 2.9c-.5-.334-.983-.517-1.45-.55z"/><linearGradient id="b" gradientUnits="userSpaceOnUse" x1="18846.545" y1="-5463.754" x2="18896.916" y2="-5463.754" gradientTransform="scale(-1) rotate(-58.394 14301.28 14167.35)"><stop offset="0"/><stop offset=".471" stop-color="#666"/><stop offset=".996" stop-color="#333"/></linearGradient><path fill-rule="evenodd" clip-rule="evenodd" fill="url(#b)" d="M52.45 2.35c.033-.033.05-.066.05-.1-.1 0-.183.033-.25.1a2.548 2.548 0 0 0-1.55.3c-8.667 1.967-17.817 1.467-27.45-1.5A68.15 68.15 0 0 1 14-2.451L10.55-4.3v.1l.15.05-9 14.65-.15-.05-.1.2 2.8 1.85c2.367 1.7 4.65 3.7 6.85 6 7.066 7.3 12.066 16.184 15 26.65l.2-.45c1.567-2.6 10.283-16.717 26.15-42.35z"/><linearGradient id="c" gradientUnits="userSpaceOnUse" x1="3.737" y1="-8.441" x2="-5.308" y2="6.237"><stop offset="0" stop-color="#008a3b"/><stop offset=".231" stop-color="#8fa82e"/><stop offset=".341" stop-color="#8fb82e"/><stop offset=".486" stop-color="#8fc22e"/><stop offset=".612" stop-color="#abd100"/><stop offset=".749" stop-color="#abd400"/><stop offset="1" stop-color="#cddb00"/></linearGradient><path fill-rule="evenodd" clip-rule="evenodd" fill="url(#c)" d="M10.55-4.2L2.3-9.3-12.3 1.95l13.85 8.5.15.05 9-14.65z"/></symbol><symbol id="d" viewBox="-14.093 -14.212 28.187 28.423"><path fill="none" stroke="#54549D" stroke-width="3.45" stroke-linejoin="round" stroke-miterlimit="3" d="M12.874-12.992L-.076-.042l-12.8-12.75m.15 25.399L-.076-.042l12.7 13.05"/></symbol><symbol id="e" viewBox="-10.149 -10.233 20.297 20.467"><use xlink:href="#d" width="28.187" height="28.423" x="-14.093" y="-14.212" transform="translate(0 .001) scale(.7201)" overflow="visible"/></symbol><use xlink:href="#d" width="28.187" height="28.423" x="-14.093" y="-14.212" transform="matrix(.7201 0 0 -.7201 -70.828 698.469)" overflow="visible"/><use xlink:href="#e" width="20.297" height="20.467" x="-10.149" y="-10.233" transform="matrix(1 0 0 -1 -70.827 698.467)" overflow="visible"/><use xlink:href="#f" width="165.58" height="113.627" x="-12.3" y="-9.3" transform="matrix(.7664 0 0 -.7664 -43.144 64.83)" overflow="visible"/><path d="M11.449 22.169l7.389-4.612 6.687 10.711 1.094-.683 2.663 4.267-1.434.895-1.768-2.833-8.027 5.011 1.768 2.833-1.433.895-2.663-4.266.944-.59c.058-2.085-1.314-5.37-4.114-9.854l-1.106-1.774zm6.676-2.176l-4.232 2.643.387.621c.646 1.033 1.436 2.503 2.369 4.41.933 1.907 1.49 3.607 1.669 5.1l5.601-3.496-5.794-9.278zM28.084 28.661l-2.917-15.056 1.731-1.081 12.551 9.042-1.83 1.143-3.713-2.794-5.078 3.17.963 4.512-1.707 1.064zm.391-7.174l4.117-2.57-3.367-2.572c-1.023-.78-1.835-1.441-2.434-1.98.332.875.596 1.784.794 2.728l.89 4.394z"/></svg>