<?xml version="1.0" encoding="utf-8"?>
<!-- Generator: Adobe Illustrator 15.1.0, SVG Export Plug-In . SVG Version: 6.00 Build 0)  -->
<!DOCTYPE svg PUBLIC "-//W3C//DTD SVG 1.1//EN" "http://www.w3.org/Graphics/SVG/1.1/DTD/svg11.dtd">
<svg xmlns="http://www.w3.org/2000/svg" xmlns:xlink="http://www.w3.org/1999/xlink" version="1.1" id="Layer_1" x="0px" y="0px" width="130.333px" height="93.167px" viewBox="-54.5 -18.167 130.333 93.167" enable-background="new -54.5 -18.167 130.333 93.167" xml:space="preserve">
<symbol id="Duplicate_Items_Folder_x2F_cursor" viewBox="-12.3 -9.3 165.58 113.627">
	<g id="Layer_1_15_">
		<g>
			<linearGradient id="SVGID_1_" gradientUnits="userSpaceOnUse" x1="105.0073" y1="34.3389" x2="78.6252" y2="77.2223">
				<stop offset="0" style="stop-color:#00693B"/>
				<stop offset="0.3273" style="stop-color:#8FCC2E"/>
				<stop offset="0.4863" style="stop-color:#ABD400"/>
				<stop offset="0.6118" style="stop-color:#ABD900"/>
				<stop offset="0.749" style="stop-color:#8FC42E"/>
				<stop offset="1" style="stop-color:#008A3B"/>
			</linearGradient>
			<path fill-rule="evenodd" clip-rule="evenodd" fill="url(#SVGID_1_)" d="M52.45,2.35C36.583,27.983,27.867,42.1,26.3,44.7     c0.267,0.366,0.684,0.733,1.25,1.1l99.6,57.55c1.533,0.967,3.2,1.217,5,0.75c1.767-0.434,3.133-1.416,4.1-2.949L152.3,75.05     c0.934-1.533,1.2-3.2,0.8-5c-0.434-1.767-1.4-3.116-2.9-4.05L53.9,2.9C53.4,2.566,52.917,2.383,52.45,2.35z"/>
				<linearGradient id="SVGID_2_" gradientUnits="userSpaceOnUse" x1="18846.5449" y1="-5463.7539" x2="18896.916" y2="-5463.7539" gradientTransform="matrix(-0.5241 0.8517 -0.8517 -0.5241 5259.8267 -18923.1641)">
				<stop offset="0" style="stop-color:#000000"/>
				<stop offset="0.4706" style="stop-color:#666666"/>
				<stop offset="0.9961" style="stop-color:#333333"/>
			</linearGradient>
			<path fill-rule="evenodd" clip-rule="evenodd" fill="url(#SVGID_2_)" d="M52.45,2.35c0.033-0.033,0.05-0.066,0.05-0.1     c-0.1,0-0.183,0.033-0.25,0.1C51.717,2.283,51.2,2.383,50.7,2.65c-8.667,1.967-17.817,1.467-27.45-1.5     c-3.233-1-6.317-2.2-9.25-3.601L10.55-4.3v0.1l0.15,0.05l-9,14.65l-0.15-0.05l-0.1,0.2l2.8,1.85c2.367,1.7,4.65,3.7,6.85,6     c7.066,7.3,12.066,16.184,15,26.65l0.2-0.45C27.867,42.1,36.583,27.983,52.45,2.35z"/>
			<linearGradient id="SVGID_3_" gradientUnits="userSpaceOnUse" x1="3.7368" y1="-8.4414" x2="-5.3078" y2="6.2374">
				<stop offset="0" style="stop-color:#008A3B"/>
				<stop offset="0.2314" style="stop-color:#8FA82E"/>
				<stop offset="0.3412" style="stop-color:#8FB82E"/>
				<stop offset="0.4863" style="stop-color:#8FC22E"/>
				<stop offset="0.6118" style="stop-color:#ABD100"/>
				<stop offset="0.749" style="stop-color:#ABD400"/>
				<stop offset="1" style="stop-color:#CDDB00"/>
			</linearGradient>
			<polygon fill-rule="evenodd" clip-rule="evenodd" fill="url(#SVGID_3_)" points="10.55,-4.2 2.3,-9.3 -12.3,1.95 1.55,10.45      1.7,10.5 10.7,-4.15    "/>
		</g>
	</g>
	<g id="as_2_">
	</g>
</symbol>
<g>
		<use xlink:href="#Duplicate_Items_Folder_x2F_cursor" width="165.58" height="113.627" id="XMLID_2_" x="-12.3" y="-9.3" transform="matrix(0.7664 0 0 -0.7664 -43.1436 64.8301)" overflow="visible"/>
	<g>
		<path d="M11.449,22.169l7.389-4.612l6.687,10.711l1.094-0.683l2.663,4.267l-1.434,0.895l-1.768-2.833l-8.027,5.011l1.768,2.833    l-1.433,0.895l-2.663-4.266l0.944-0.59c0.058-2.085-1.314-5.37-4.114-9.854L11.449,22.169z M18.125,19.993l-4.232,2.643    l0.387,0.621c0.646,1.033,1.436,2.503,2.369,4.41c0.933,1.907,1.49,3.607,1.669,5.1l5.601-3.496L18.125,19.993z"/>
		<path d="M28.084,28.661l-2.917-15.056l1.731-1.081l12.551,9.042l-1.83,1.143l-3.713-2.794l-5.078,3.17l0.963,4.512L28.084,28.661z     M28.475,21.487l4.117-2.57l-3.367-2.572c-1.023-0.78-1.835-1.441-2.434-1.98c0.332,0.875,0.596,1.784,0.794,2.728L28.475,21.487z    "/>
	</g>
</g>
</svg>