<?xml version="1.0" encoding="utf-8"?>
<!-- Generator: Adobe Illustrator 15.1.0, SVG Export Plug-In . SVG Version: 6.00 Build 0)  -->
<!DOCTYPE svg PUBLIC "-//W3C//DTD SVG 1.1//EN" "http://www.w3.org/Graphics/SVG/1.1/DTD/svg11.dtd">
<svg xmlns="http://www.w3.org/2000/svg" xmlns:xlink="http://www.w3.org/1999/xlink" version="1.1" id="Layer_1" x="0px" y="0px" width="130.333px" height="93.167px" viewBox="-54.5 -18.167 130.333 93.167" enable-background="new -54.5 -18.167 130.333 93.167" xml:space="preserve">

<g>
	<g>
		<linearGradient id="SVGID_1_" gradientUnits="userSpaceOnUse" x1="36.9639" y1="38.5146" x2="16.7443" y2="5.6483">
			<stop offset="0" style="stop-color:#E71C00"/>
			<stop offset="0.3273" style="stop-color:#F9674E"/>
			<stop offset="0.4863" style="stop-color:#F77D69"/>
			<stop offset="0.6118" style="stop-color:#F77D69"/>
			<stop offset="0.749" style="stop-color:#F9674E"/>
			<stop offset="1" style="stop-color:#FF3300"/>
		</linearGradient>
		<path fill-rule="evenodd" clip-rule="evenodd" fill="url(#SVGID_1_)" d="M-3.317,63.03c-12.16-19.646-18.84-30.465-20.041-32.458    c0.205-0.28,0.523-0.562,0.958-0.843l76.334-44.105c1.175-0.741,2.452-0.933,3.832-0.575c1.354,0.332,2.401,1.085,3.142,2.26    L73.208,7.313c0.716,1.175,0.92,2.453,0.613,3.832c-0.332,1.354-1.072,2.389-2.223,3.104l-73.805,48.36    C-2.589,62.864-2.96,63.005-3.317,63.03z"/>
		
			<linearGradient id="SVGID_2_" gradientUnits="userSpaceOnUse" x1="-484.271" y1="-133.8467" x2="-445.667" y2="-133.8467" gradientTransform="matrix(-0.5241 -0.8517 0.8517 -0.5241 -155.8625 -411.6345)">
			<stop offset="0" style="stop-color:#000000"/>
			<stop offset="0.4706" style="stop-color:#666666"/>
			<stop offset="0.9961" style="stop-color:#333333"/>
		</linearGradient>
		<path fill-rule="evenodd" clip-rule="evenodd" fill="url(#SVGID_2_)" d="M-3.317,63.03c0.026,0.025,0.039,0.051,0.039,0.076    c-0.076,0-0.141-0.025-0.191-0.076c-0.409,0.051-0.805-0.025-1.188-0.23c-6.643-1.508-13.656-1.124-21.039,1.149    c-2.478,0.767-4.841,1.687-7.089,2.76l-2.644,1.417V68.05l0.115-0.038l-6.898-11.228l-0.115,0.038l-0.076-0.153l2.146-1.418    c1.813-1.303,3.563-2.836,5.25-4.599c5.415-5.595,9.247-12.403,11.496-20.425l0.152,0.345    C-22.157,32.565-15.478,43.385-3.317,63.03z"/>
		<linearGradient id="SVGID_3_" gradientUnits="userSpaceOnUse" x1="-40.6509" y1="71.3008" x2="-47.5833" y2="60.0501">
			<stop offset="0" style="stop-color:#FF3300"/>
			<stop offset="0.2314" style="stop-color:#F75B3C"/>
			<stop offset="0.3412" style="stop-color:#F75B3C"/>
			<stop offset="0.4863" style="stop-color:#F77D69"/>
			<stop offset="0.6118" style="stop-color:#F77D69"/>
			<stop offset="0.749" style="stop-color:#F77D69"/>
			<stop offset="1" style="stop-color:#F9A49B"/>
		</linearGradient>
		<polygon fill-rule="evenodd" clip-rule="evenodd" fill="url(#SVGID_3_)" points="-35.429,68.05 -41.752,71.958 -52.941,63.336     -42.327,56.822 -42.212,56.784 -35.313,68.012   "/>
	</g>
	<g>
		<path d="M18.461,37.461L10.88,25.316l1.607-1.003l3.113,4.987l6.313-3.941L18.8,20.372l1.607-1.003l7.58,12.145l-1.607,1.003    l-3.572-5.724l-6.313,3.94l3.573,5.724L18.461,37.461z"/>
		<path d="M30.696,29.822l-7.581-12.145l8.781-5.481l0.895,1.433l-7.174,4.479l2.321,3.72l6.719-4.194l0.89,1.425l-6.718,4.194    l2.58,4.134l7.455-4.654l0.895,1.433L30.696,29.822z"/>
		<path d="M45.069,20.85l-6.687-10.711l-4.001,2.498l-0.895-1.434l9.625-6.009l0.895,1.433l-4.018,2.508l6.688,10.711L45.069,20.85z    "/>
	</g>
</g>
</svg>
