<?xml version="1.0" encoding="utf-8"?>
<!-- Generator: Adobe Illustrator 15.1.0, SVG Export Plug-In . SVG Version: 6.00 Build 0)  -->
<!DOCTYPE svg PUBLIC "-//W3C//DTD SVG 1.1//EN" "http://www.w3.org/Graphics/SVG/1.1/DTD/svg11.dtd">
<svg xmlns="http://www.w3.org/2000/svg" xmlns:xlink="http://www.w3.org/1999/xlink" version="1.1" id="Layer_1" x="0px" y="0px" width="71px" height="70px" viewBox="-282.319 -249.008 71 70" enable-background="new -282.319 -249.008 71 70" xml:space="preserve">
<g>
	<g>
		<path fill="#545454" d="M-212.337-179.98h-68.965l1.969-15.77c0.505-4.061,3.518-7.439,7.495-8.404l15.657-3.791l9.275,14.548    l9.462-14.548l15.643,3.791c3.979,0.965,6.99,4.344,7.498,8.404L-212.337-179.98z M-278.569-183.287h63.502l-1.507-12.074    c-0.327-2.617-2.271-4.798-4.839-5.423l-14.55-3.319l-10.981,16.771l-10.744-16.768l-14.536,3.315    c-2.567,0.625-4.514,2.806-4.84,5.423L-278.569-183.287z"/>
	</g>
	<g>
		<path fill="#545454" d="M-246.806-207.495c-1.669,0-2.979-0.374-4.382-1.261l-3.724-2.344c-1.508-0.951-2.612-2.365-3.109-3.981    l-2.634-8.564c-1.357-0.909-2.472-2.249-3.088-3.688l-0.055-0.034l-0.224-0.683c-0.52-1.693-0.325-3.364,0.535-4.578    c0.616-0.869,1.527-1.438,2.615-1.643l0.635-3.666c0.979-6.03,6.364-10.098,13.4-10.098h0.201c7.035,0,12.422,4.067,13.401,10.122    l0.655,3.495c0.99,0.234,1.824,0.79,2.403,1.605c0.87,1.227,1.077,2.973,0.557,4.671c-0.538,1.749-1.831,3.45-3.364,4.476    l-2.635,8.582c-0.498,1.619-1.6,3.033-3.105,3.982l-3.717,2.346C-243.86-207.859-245.126-207.495-246.806-207.495z     M-261.554-229.533l0.083,0.25c0.303,0.987,1.182,2.074,2.138,2.637l1.01,0.561l3.336,10.853c0.247,0.798,0.818,1.516,1.611,2.015    l4.039,2.543c0.748,0.47,1.373,0.729,2.532,0.729c1.15,0,1.75-0.248,2.515-0.729l4.031-2.547c0.79-0.495,1.361-1.213,1.607-2.018    l3.325-10.826l1.021-0.604c0.951-0.561,1.829-1.655,2.139-2.665c0.24-0.779,0.129-1.312,0-1.496    c-0.022-0.03-0.081-0.115-0.379-0.122l-2.332-0.096l-1.309-7.006c-0.734-4.521-4.923-7.525-10.433-7.525h-0.219    c-5.51,0-9.699,3.005-10.423,7.478l-1.252,7.201l-2.544,0.145c-0.158,0.007-0.372,0.029-0.438,0.125    C-261.594-230.491-261.678-230.096-261.554-229.533z"/>
	</g>
</g>
</svg>
