<svg xmlns="http://www.w3.org/2000/svg" width="71" height="70" viewBox="-282.319 -249.008 71 70"><path fill="#545454" d="M-212.337-179.98h-68.965l1.969-15.77c.505-4.061 3.518-7.439 7.495-8.404l15.657-3.791 9.275 14.548 9.462-14.548 15.643 3.791c3.979.965 6.99 4.344 7.498 8.404l1.966 15.77zm-66.232-3.307h63.502l-1.507-12.074a6.435 6.435 0 0 0-4.839-5.423l-14.55-3.319-10.981 16.771-10.744-16.768-14.536 3.315a6.436 6.436 0 0 0-4.84 5.423l-1.505 12.075z"/><path fill="#545454" d="M-246.806-207.495c-1.669 0-2.979-.374-4.382-1.261l-3.724-2.344c-1.508-.951-2.612-2.365-3.109-3.981l-2.634-8.564c-1.357-.909-2.472-2.249-3.088-3.688l-.055-.034-.224-.683c-.52-1.693-.325-3.364.535-4.578.616-.869 1.527-1.438 2.615-1.643l.635-3.666c.979-6.03 6.364-10.098 13.4-10.098h.201c7.035 0 12.422 4.067 13.401 10.122l.655 3.495c.99.234 1.824.79 2.403 1.605.87 1.227 1.077 2.973.557 4.671-.538 1.749-1.831 3.45-3.364 4.476l-2.635 8.582c-.498 1.619-1.6 3.033-3.105 3.982l-3.717 2.346c-1.419.897-2.685 1.261-4.365 1.261zm-14.748-22.038l.083.25c.303.987 1.182 2.074 2.138 2.637l1.01.561 3.336 10.853c.247.798.818 1.516 1.611 2.015l4.039 2.543c.748.47 1.373.729 2.532.729 1.15 0 1.75-.248 2.515-.729l4.031-2.547c.79-.495 1.361-1.213 1.607-2.018l3.325-10.826 1.021-.604c.951-.561 1.829-1.655 2.139-2.665.24-.779.129-1.312 0-1.496-.022-.03-.081-.115-.379-.122l-2.332-.096-1.309-7.006c-.734-4.521-4.923-7.525-10.433-7.525h-.219c-5.51 0-9.699 3.005-10.423 7.478l-1.252 7.201-2.544.145c-.158.007-.372.029-.438.125-.098.139-.182.534-.058 1.097z"/></svg>