<?xml version="1.0" encoding="utf-8"?>
<!-- Generator: Adobe Illustrator 15.1.0, SVG Export Plug-In . SVG Version: 6.00 Build 0)  -->
<!DOCTYPE svg PUBLIC "-//W3C//DTD SVG 1.1//EN" "http://www.w3.org/Graphics/SVG/1.1/DTD/svg11.dtd">
<svg version="1.1" id="Layer_1" xmlns="http://www.w3.org/2000/svg" xmlns:xlink="http://www.w3.org/1999/xlink" x="0px" y="0px"
	 width="1024px" height="768px" viewBox="0 0 1024 768" enable-background="new 0 0 1024 768" xml:space="preserve">
<g>
	<g>
		<rect x="85.358" y="30.87" width="853.262" height="706.28"/>
	</g>
	<g>
		<path fill="#CFD0CC" d="M938.6,748H85.401c-6.021,0-10.901-4.857-10.901-10.851V30.849C74.5,24.857,79.381,20,85.401,20H938.6
			c6.021,0,10.899,4.856,10.899,10.849V737.15C949.5,743.143,944.62,748,938.6,748z M96.302,726.303h831.396V41.697H96.302V726.303z
			"/>
	</g>
	<g>
		<path fill="#FFFFFF" d="M838.568,646.815H185.431V539.094h653.137V646.815z M838.568,228.849H185.431V121.186h653.137V228.849z
			 M838.568,437.08H185.431V329.398h653.137V437.08z"/>
	</g>
</g>
</svg>
