<?xml version="1.0" encoding="utf-8"?>
<!-- Generator: Adobe Illustrator 15.1.0, SVG Export Plug-In . SVG Version: 6.00 Build 0)  -->
<!DOCTYPE svg PUBLIC "-//W3C//DTD SVG 1.1//EN" "http://www.w3.org/Graphics/SVG/1.1/DTD/svg11.dtd">
<svg version="1.1" id="Layer_1" xmlns="http://www.w3.org/2000/svg" xmlns:xlink="http://www.w3.org/1999/xlink" x="0px" y="0px"
	 width="30.5px" height="37.5px" viewBox="132.5 0 30.5 37.5" enable-background="new 132.5 0 30.5 37.5" xml:space="preserve">
<symbol  id="Symbol_46" viewBox="-14.093 -14.212 28.187 28.423">
	<g id="Layer_1_1_">
		<path fill="none" stroke="#54549D" stroke-width="3.45" stroke-linejoin="round" stroke-miterlimit="3" d="M12.874-12.992
			l-12.95,12.95l-12.8-12.75 M-12.726,12.607l12.65-12.649l12.7,13.05"/>
	</g>
</symbol>
<symbol  id="Symbol_47" viewBox="-10.149 -10.233 20.297 20.467">
	<g id="Layer_1_2_">
		
			<use xlink:href="#Symbol_46"  width="28.187" height="28.423" x="-14.093" y="-14.212" transform="matrix(0.7201 0 0 0.7201 -4.882813e-004 9.765625e-004)" overflow="visible"/>
	</g>
</symbol>
<g>
	<path fill="#444B99" d="M149.74,7.298c0.351,0.351,0.558,0.732,0.621,1.146c0,0.095,0,0.174,0,0.239
		c0,0.605-0.207,1.098-0.621,1.48c-0.413,0.414-0.891,0.621-1.432,0.621c-0.574,0-1.053-0.207-1.434-0.621
		c-0.382-0.382-0.574-0.875-0.574-1.48c0-0.542,0.192-1.002,0.574-1.385c0.381-0.382,0.857-0.573,1.434-0.573
		c0.285,0,0.557,0.015,0.812,0.047c0.127,0.095,0.271,0.191,0.43,0.287v0.047c0.031,0,0.063,0.033,0.095,0.096L149.74,7.298z"/>
	<path fill="none" stroke="#444B99" stroke-width="1.8" stroke-linecap="round" stroke-linejoin="round" stroke-miterlimit="3" d="
		M152.939,9.59l1.146,4.965l-4.727-2.865 M142.387,18.28l5.875-7.162l-0.527,7.257l2.246,6.017l2.053,6.017 M147.734,18.375
		l-2.006,12.176"/>
</g>
<g>
	<g id="Layer_1_25_">
		
			<use xlink:href="#Symbol_46"  width="28.187" height="28.423" x="-14.093" y="-14.212" transform="matrix(0.7201 0 0 -0.7201 11.8721 833.7676)" overflow="visible"/>
	</g>
</g>
<use xlink:href="#Symbol_47"  width="20.297" height="20.467" x="-10.149" y="-10.233" transform="matrix(1 0 0 -1 11.873 833.7676)" overflow="visible"/>
</svg>
