<svg xmlns="http://www.w3.org/2000/svg" xmlns:xlink="http://www.w3.org/1999/xlink" width="30.5" height="37.5" viewBox="132.5 0 30.5 37.5"><symbol id="a" viewBox="-14.093 -14.212 28.187 28.423"><path fill="none" stroke="#54549D" stroke-width="3.45" stroke-linejoin="round" stroke-miterlimit="3" d="M12.874-12.992L-.076-.042l-12.8-12.75m.15 25.399L-.076-.042l12.7 13.05"/></symbol><symbol id="b" viewBox="-10.149 -10.233 20.297 20.467"><use xlink:href="#a" width="28.187" height="28.423" x="-14.093" y="-14.212" transform="translate(0 .001) scale(.7201)" overflow="visible"/></symbol><path fill="#444B99" d="M149.74 7.298c.351.351.558.732.621 1.146v.239c0 .605-.207 1.098-.621 1.48-.413.414-.891.621-1.432.621a1.868 1.868 0 0 1-1.434-.621c-.382-.382-.574-.875-.574-1.48 0-.542.192-1.002.574-1.385.381-.382.857-.573 1.434-.573.285 0 .557.015.812.047.127.095.271.191.43.287v.047c.031 0 .063.033.095.096l.095.096z"/><path fill="none" stroke="#444B99" stroke-width="1.8" stroke-linecap="round" stroke-linejoin="round" stroke-miterlimit="3" d="M152.939 9.59l1.146 4.965-4.727-2.865m-6.971 6.59l5.875-7.162-.527 7.257 2.246 6.017 2.053 6.017m-4.3-12.034l-2.006 12.176"/><use xlink:href="#a" width="28.187" height="28.423" x="-14.093" y="-14.212" transform="matrix(.7201 0 0 -.7201 11.872 833.768)" overflow="visible"/><use xlink:href="#b" width="20.297" height="20.467" x="-10.149" y="-10.233" transform="matrix(1 0 0 -1 11.873 833.768)" overflow="visible"/></svg>