<svg xmlns="http://www.w3.org/2000/svg" width="570.611" height="570.611" viewBox="0 0 570.611 570.611"><path d="M285.306 0C127.985 0 .004 127.988.004 285.302c0 157.315 127.981 285.309 285.302 285.309s285.301-127.988 285.301-285.303C570.607 127.994 442.627 0 285.306 0zm0 509.41c-123.569 0-224.102-100.533-224.102-224.102S161.737 61.2 285.306 61.2s224.102 100.533 224.102 224.102S408.875 509.41 285.306 509.41z"/><path d="M166.505 134.916v300.78c0 24.266 17.087 34.186 38.158 22.16l264.255-150.777c21.078-12.027 21.078-31.525 0-43.545L204.663 112.749c-21.071-12.026-38.158-2.099-38.158 22.167z"/></svg>