<svg xmlns="http://www.w3.org/2000/svg" width="127.333" height="121.333" viewBox="0 0 127.333 121.333"><path d="M93.833 42.679c7.042 14.892 2.379 31.63-10.013 41.898-11.699 9.693-28.855 8.648-40.878.457-12.067-8.221-16.364-24.123-12.467-37.712 4.116-14.354 18-23.741 32.583-23.981 9.019-.149 9.033-14.149 0-14-20.933.346-38.653 13.388-45.679 33.004-7.267 20.29 1.642 42.503 18.497 54.778 16.785 12.223 40.772 10.621 56.825-1.854 18.295-14.219 22.961-39.058 13.22-59.656-3.858-8.157-15.926-1.048-12.088 7.066zM86.327 48.334l29.834-15-29.167-14.334"/></svg>