<?xml version="1.0" encoding="utf-8"?>
<!-- Generator: Adobe Illustrator 15.1.0, SVG Export Plug-In . SVG Version: 6.00 Build 0)  -->
<!DOCTYPE svg PUBLIC "-//W3C//DTD SVG 1.1//EN" "http://www.w3.org/Graphics/SVG/1.1/DTD/svg11.dtd">
<svg version="1.1" id="Layer_1" xmlns="http://www.w3.org/2000/svg" xmlns:xlink="http://www.w3.org/1999/xlink" x="0px" y="0px"
	 width="30px" height="24.682px" viewBox="0 0 30 24.682" enable-background="new 0 0 30 24.682" xml:space="preserve">
<symbol  id="Symbol_46" viewBox="-14.093 -14.212 28.187 28.423">
	<g id="Layer_1_1_">
		<path fill="none" stroke="#54559D" stroke-width="3.45" stroke-linejoin="round" stroke-miterlimit="3" d="M12.874-12.992
			l-12.95,12.95l-12.8-12.75 M-12.726,12.607l12.65-12.649l12.7,13.05"/>
	</g>
</symbol>
<symbol  id="Symbol_47" viewBox="-10.149 -10.235 20.299 20.469">
	<g id="Layer_1_2_">
		
			<use xlink:href="#Symbol_46"  width="28.187" height="28.423" x="-14.093" y="-14.212" transform="matrix(0.7201 0 0 0.7201 0 0)" overflow="visible"/>
	</g>
</symbol>
<g>
	<g id="Layer_1_3_">
		
			<use xlink:href="#Symbol_46"  width="28.187" height="28.423" x="-14.093" y="-14.212" transform="matrix(0.7201 0 0 -0.7201 -65.4302 723.5969)" overflow="visible"/>
	</g>
</g>
<use xlink:href="#Symbol_47"  width="20.299" height="20.469" x="-10.149" y="-10.235" transform="matrix(0.9575 0 0 -0.9575 -8.4004 816.9006)" overflow="visible"/>
<g>
	<path fill="#444B99" d="M20.68,14.516c1.047,0,1.921,0.351,2.617,1.047c0.699,0.699,1.049,1.559,1.049,2.578
		c0,0.94-0.35,1.76-1.049,2.459c-0.696,0.752-1.57,1.127-2.617,1.127c-0.967,0-1.786-0.375-2.458-1.127
		c-0.726-0.699-1.087-1.519-1.087-2.459c0-1.021,0.361-1.879,1.087-2.578C18.894,14.866,19.713,14.516,20.68,14.516z M11.736,9.037
		c-0.752,0.753-1.611,1.128-2.576,1.128c-0.94,0-1.761-0.375-2.459-1.128C6.004,8.393,5.654,7.561,5.654,6.54
		c0-0.939,0.35-1.759,1.047-2.457C7.399,3.331,8.22,2.955,9.16,2.955c0.965,0,1.824,0.376,2.576,1.128
		c0.698,0.698,1.047,1.518,1.047,2.457C12.783,7.561,12.435,8.393,11.736,9.037z"/>
	
		<line fill="none" stroke="#434CA0" stroke-width="2" stroke-linecap="round" stroke-linejoin="round" stroke-miterlimit="3" x1="7.586" y1="19.955" x2="22.17" y2="5.412"/>
</g>
</svg>
