<?xml version="1.0" encoding="utf-8"?>
<!-- Generator: Adobe Illustrator 15.1.0, SVG Export Plug-In . SVG Version: 6.00 Build 0)  -->
<!DOCTYPE svg PUBLIC "-//W3C//DTD SVG 1.1//EN" "http://www.w3.org/Graphics/SVG/1.1/DTD/svg11.dtd">
<svg version="1.1" id="Layer_1" xmlns="http://www.w3.org/2000/svg" xmlns:xlink="http://www.w3.org/1999/xlink" x="0px" y="0px"
	 width="1024px" height="768px" viewBox="0 0 1024 768" enable-background="new 0 0 1024 768" xml:space="preserve">
<g>
	<g>
		<rect x="85.358" y="30.87" width="853.262" height="706.28"/>
	</g>
	<g>
		<path fill="#CFD0CC" d="M938.6,748H85.401c-6.021,0-10.901-4.857-10.901-10.851V30.849C74.5,24.857,79.381,20,85.401,20H938.6
			c6.021,0,10.899,4.856,10.899,10.849V737.15C949.5,743.143,944.62,748,938.6,748z M96.302,726.303h831.396V41.697H96.302V726.303z
			"/>
	</g>
	<g>
		<path fill="#FFFFFF" d="M692.378,453.514c33.243,0,60.938,11.094,83.09,33.225c22.186,22.151,33.243,49.479,33.243,81.879
			c0,29.82-11.058,55.833-33.243,78.052c-22.151,23.801-49.883,35.735-83.09,35.735c-30.751,0-56.727-11.935-77.999-35.735
			c-23.028-22.219-34.543-48.267-34.543-78.052c0-32.4,11.515-59.728,34.543-81.879
			C635.651,464.624,661.627,453.514,692.378,453.514z M408.463,279.594c-23.872,23.835-51.217,35.788-81.862,35.788
			c-29.908,0-55.849-11.918-77.964-35.788c-22.219-20.465-33.348-46.897-33.348-79.315c0-29.82,11.128-55.833,33.348-78.018
			c22.116-23.835,48.127-35.805,77.964-35.805c30.681,0,57.956,11.935,81.862,35.805c22.149,22.185,33.243,48.197,33.243,78.018
			C441.706,232.732,430.612,259.147,408.463,279.594z"/>
		
			<line fill="none" stroke="#FFFFFF" stroke-width="76.2068" stroke-linecap="round" stroke-linejoin="round" stroke-miterlimit="3" x1="276.72" y1="626.135" x2="739.697" y2="164.491"/>
	</g>
</g>
</svg>
