<svg xmlns="http://www.w3.org/2000/svg" width="1024" height="768" viewBox="0 0 1024 768"><path d="M85.358 30.87H938.62v706.28H85.358z"/><path fill="#CFD0CC" d="M938.6 748H85.401c-6.021 0-10.901-4.857-10.901-10.851v-706.3C74.5 24.857 79.381 20 85.401 20H938.6c6.021 0 10.899 4.856 10.899 10.849V737.15C949.5 743.143 944.62 748 938.6 748zM96.302 726.303h831.396V41.697H96.302v684.606z"/><path fill="#FFF" d="M692.378 453.514c33.243 0 60.938 11.094 83.09 33.225 22.186 22.151 33.243 49.479 33.243 81.879 0 29.82-11.058 55.833-33.243 78.052-22.151 23.801-49.883 35.735-83.09 35.735-30.751 0-56.727-11.935-77.999-35.735-23.028-22.219-34.543-48.267-34.543-78.052 0-32.4 11.515-59.728 34.543-81.879 21.272-22.115 47.248-33.225 77.999-33.225zm-283.915-173.92c-23.872 23.835-51.217 35.788-81.862 35.788-29.908 0-55.849-11.918-77.964-35.788-22.219-20.465-33.348-46.897-33.348-79.315 0-29.82 11.128-55.833 33.348-78.018 22.116-23.835 48.127-35.805 77.964-35.805 30.681 0 57.956 11.935 81.862 35.805 22.149 22.185 33.243 48.197 33.243 78.018 0 32.453-11.094 58.868-33.243 79.315z"/><path fill="none" stroke="#FFF" stroke-width="76.207" stroke-linecap="round" stroke-linejoin="round" stroke-miterlimit="3" d="M276.72 626.135l462.977-461.644"/></svg>