<svg xmlns="http://www.w3.org/2000/svg" viewBox="0 0 39.4 32.9" enable-background="new 0 0 39.4 32.9"><path d="M1 .9h37.5v31.2h-37.5z"/><path stroke="#D0D1CC" stroke-linejoin="round" stroke-miterlimit="3" fill="none" d="M1 .9h37.5v31.2h-37.5z"/><path fill="#fff" d="M26.4 18.3c1.3 0 2.4.4 3.3 1.3.9.9 1.3 1.9 1.3 3.2 0 1.2-.4 2.2-1.3 3.1-.9.9-2 1.4-3.3 1.4-1.2 0-2.2-.5-3.1-1.4-.8-.9-1.3-1.9-1.3-3.1 0-1.3.5-2.4 1.4-3.2.8-.9 1.8-1.3 3-1.3zm-11.1-6.8c-.9.9-2 1.4-3.2 1.4-1.2 0-2.2-.5-3.1-1.4-.9-.8-1.3-1.8-1.3-3.1 0-1.2.4-2.2 1.3-3.1.9-.9 1.9-1.4 3.1-1.4 1.2 0 2.3.5 3.2 1.4.9.9 1.3 1.9 1.3 3.1 0 1.2-.5 2.3-1.3 3.1z"/><path stroke="#fff" stroke-width="3" stroke-linecap="round" stroke-linejoin="round" stroke-miterlimit="3" fill="none" d="M10.1 25.1l18.2-18.2"/></svg>