<svg xmlns="http://www.w3.org/2000/svg" xmlns:xlink="http://www.w3.org/1999/xlink" width="30" height="24.682" viewBox="0 0 30 24.682"><symbol id="a" viewBox="-14.093 -14.212 28.187 28.423"><path fill="none" stroke="#54559D" stroke-width="3.45" stroke-linejoin="round" stroke-miterlimit="3" d="M12.874-12.992L-.076-.042l-12.8-12.75m.15 25.399L-.076-.042l12.7 13.05"/></symbol><symbol id="b" viewBox="-10.149 -10.235 20.299 20.469"><use xlink:href="#a" width="28.187" height="28.423" x="-14.093" y="-14.212" transform="scale(.7201)" overflow="visible"/></symbol><use xlink:href="#a" width="28.187" height="28.423" x="-14.093" y="-14.212" transform="matrix(.7201 0 0 -.7201 -65.43 723.597)" overflow="visible"/><use xlink:href="#b" width="20.299" height="20.469" x="-10.149" y="-10.235" transform="matrix(.9575 0 0 -.9575 -8.4 816.9)" overflow="visible"/><path fill="#444B99" d="M20.68 14.516c1.047 0 1.921.351 2.617 1.047.699.699 1.049 1.559 1.049 2.578 0 .94-.35 1.76-1.049 2.459-.696.752-1.57 1.127-2.617 1.127-.967 0-1.786-.375-2.458-1.127-.726-.699-1.087-1.519-1.087-2.459 0-1.021.361-1.879 1.087-2.578.672-.697 1.491-1.047 2.458-1.047zm-8.944-5.479c-.752.753-1.611 1.128-2.576 1.128-.94 0-1.761-.375-2.459-1.128-.697-.644-1.047-1.476-1.047-2.497 0-.939.35-1.759 1.047-2.457.698-.752 1.519-1.128 2.459-1.128.965 0 1.824.376 2.576 1.128.698.698 1.047 1.518 1.047 2.457 0 1.021-.348 1.853-1.047 2.497z"/><path fill="none" stroke="#434CA0" stroke-width="2" stroke-linecap="round" stroke-linejoin="round" stroke-miterlimit="3" d="M7.586 19.955L22.17 5.412"/></svg>