<svg xmlns="http://www.w3.org/2000/svg" width="118.667" height="107.667" viewBox="0 0 118.667 107.667"><path d="M19.333 70.443l-.01.01h-14.647l-.01-.01v-33.48l.01-.01h14.647l.01.01v33.48zM24.567 34.275c-.473.281-.859.961-.859 1.511v36.167c0 .55.389 1.227.864 1.504l29.106 16.991c.475.277.864.054.864-.496v-72.5c0-.55-.387-.77-.859-.489l-29.116 17.312zM67.379 38.862c4.323 4.436 7.631 10.105 7.281 16.435-.247 4.475-3.203 9.192-6.552 12.073-3.427 2.949 1.547 7.878 4.95 4.95 4.991-4.294 7.776-10.619 8.602-17.023 1.017-7.884-4.05-15.965-9.331-21.385-3.155-3.238-8.1 1.716-4.95 4.95zM74.013 20.924c9.148 9.29 16.786 21.895 16.296 35.244-.396 10.794-6.577 22.17-14.785 29.14-3.445 2.926 1.531 7.853 4.95 4.95 9.833-8.351 15.894-21.387 16.835-34.09 1.107-14.945-8.207-29.896-18.346-40.194-3.171-3.22-8.119 1.732-4.95 4.95zM85.754 10.386c12.323 11.225 22.489 27.412 21.748 44.49-.662 15.266-8.435 31.75-19.752 42.143-3.331 3.06 1.632 7.997 4.95 4.95 12.512-11.491 20.112-28.868 21.694-45.54 1.829-19.276-9.839-38.376-23.69-50.994-3.329-3.031-8.294 1.905-4.95 4.951z"/></svg>