<?xml version="1.0" encoding="utf-8"?>
<!-- Generator: Adobe Illustrator 15.1.0, SVG Export Plug-In . SVG Version: 6.00 Build 0)  -->
<!DOCTYPE svg PUBLIC "-//W3C//DTD SVG 1.1//EN" "http://www.w3.org/Graphics/SVG/1.1/DTD/svg11.dtd">
<svg version="1.1" id="Layer_1" xmlns="http://www.w3.org/2000/svg" xmlns:xlink="http://www.w3.org/1999/xlink" x="0px" y="0px"
	 width="1024px" height="768px" viewBox="0 0 1024 768" enable-background="new 0 0 1024 768" xml:space="preserve">
<g>
	<g>
		<rect x="85.358" y="30.87" width="853.262" height="706.281"/>
	</g>
	<g>
		<path fill="#CFD0CC" d="M938.6,748H85.401c-6.02,0-10.901-4.857-10.901-10.85V30.849C74.5,24.857,79.381,20,85.401,20H938.6
			c6.021,0,10.9,4.857,10.9,10.849V737.15C949.5,743.143,944.62,748,938.6,748z M96.302,726.303h831.396V41.697H96.302V726.303z"/>
	</g>
	<g>
		<path fill="#FFFFFF" d="M541.721,480.875c0,23.838-14.029,38.584-36.299,38.584c-22.271,0-36.301-14.789-36.301-38.584v-92.754
			c0-36.953,0.83-43.5,57.761-55.005c65.191-13.148,75.88-58.301,75.88-88.653c0-55.832-40.409-90.306-95.723-90.306
			c-43.731,0-77.583,15.605-95.722,67.327c-7.452,21.327-17.331,27.079-32.191,27.079c-18.97,0-36.322-14.779-35.491-37.779
			c3.3-72.222,84.162-123.933,160.915-123.933c99.873,0,175.795,64.032,175.795,151.033c0,88.664-56.122,143.681-138.644,160.906
			v82.086H541.721z M505.422,597.434c23.121,0,42.069,18.9,42.069,41.869c0,23.01-18.948,41.869-42.069,41.869
			c-23.122,0-42.114-18.859-42.114-41.869C463.308,616.334,482.3,597.434,505.422,597.434z"/>
	</g>
</g>
</svg>
