<svg xmlns="http://www.w3.org/2000/svg" width="1024" height="768" viewBox="0 0 1024 768"><path d="M85.358 30.87H938.62v706.281H85.358z"/><path fill="#CFD0CC" d="M938.6 748H85.401c-6.02 0-10.901-4.857-10.901-10.85V30.849C74.5 24.857 79.381 20 85.401 20H938.6c6.021 0 10.9 4.857 10.9 10.849V737.15c0 5.993-4.88 10.85-10.9 10.85zM96.302 726.303h831.396V41.697H96.302v684.606z"/><path fill="#FFF" d="M541.721 480.875c0 23.838-14.029 38.584-36.299 38.584-22.271 0-36.301-14.789-36.301-38.584v-92.754c0-36.953.83-43.5 57.761-55.005 65.191-13.148 75.88-58.301 75.88-88.653 0-55.832-40.409-90.306-95.723-90.306-43.731 0-77.583 15.605-95.722 67.327-7.452 21.327-17.331 27.079-32.191 27.079-18.97 0-36.322-14.779-35.491-37.779 3.3-72.222 84.162-123.933 160.915-123.933 99.873 0 175.795 64.032 175.795 151.033 0 88.664-56.122 143.681-138.644 160.906v82.086h.02zm-36.299 116.559c23.121 0 42.069 18.9 42.069 41.869 0 23.01-18.948 41.869-42.069 41.869-23.122 0-42.114-18.859-42.114-41.869 0-22.969 18.992-41.869 42.114-41.869z"/></svg>