<svg xmlns="http://www.w3.org/2000/svg" width="769.424" height="376.854" viewBox="0 0 769.424 376.854"><path stroke="#000" stroke-miterlimit="10" fill="none" d="M294.904 136.261v136.579M237.955 281.91h-95.999M141.956 281.91v-72.572"/><path fill="#E6E7E8" stroke="#000" stroke-miterlimit="10" d="M0 90.903h113.9v45.357h-113.9zM237.955 90.903h113.899v45.357h-113.899zM237.955 172.547h113.899v45.359h-113.899zM85.007 172.547h113.898v45.359h-113.898zM237.955 259.234h113.899v45.355h-113.899z"/><path stroke="#000" stroke-miterlimit="10" fill="none" d="M113.901 113.583h124.054M85.007 195.227h-28.056M56.951 195.227v-58.966M708.2 145.838v199.236M709.84 70.562v92.396"/><circle fill="#F6EB14" stroke="#000" stroke-miterlimit="10" cx="708.771" cy="64.354" r="22.528"/><circle fill="#F6EB14" stroke="#000" stroke-miterlimit="10" cx="707.345" cy="354.326" r="22.528"/><path fill="#E6E7E8" stroke="#000" stroke-miterlimit="10" d="M653.272 119.896h113.142v45.06h-113.142zM708.2 230.506l-22.236-20.602 22.16-22.159 20.602 21.379zM766.411 297.984s-37.606-10.973-57.378 0c-19.771 10.973-55.764 0-55.764 0v-45.057s32.573 14.313 58.048 0c25.475-14.314 55.094 0 55.094 0v45.057z"/><path fill="none" d="M132.161 0h111.025v34.98h-111.025z"/><path d="M134.242.987h2.381v8.896h.082c.492-.711.985-1.369 1.45-1.971l5.64-6.927h2.956l-6.68 7.829 7.199 10.621h-2.818l-6.077-9.061-1.752 2.025v7.035h-2.381v-18.447zM149.08 1.206c1.148-.191 2.654-.355 4.57-.355 2.354 0 4.079.547 5.175 1.533 1.013.876 1.614 2.217 1.614 3.86 0 1.67-.493 2.983-1.424 3.941-1.259 1.341-3.312 2.025-5.639 2.025-.712 0-1.369-.027-1.917-.164v7.391h-2.381l.002-18.231zm2.381 8.897c.52.137 1.177.191 1.971.191 2.874 0 4.626-1.396 4.626-3.942 0-2.436-1.725-3.613-4.353-3.613-1.04 0-1.834.082-2.245.191l.001 7.173zM166.025.987v18.45h-2.381v-18.45h2.381zM168.079 20.533l7.637-19.848h1.862l-7.665 19.848h-1.834zM179.577 1.206c1.148-.191 2.654-.355 4.57-.355 2.354 0 4.079.547 5.174 1.533 1.014.876 1.615 2.217 1.615 3.86 0 1.67-.493 2.983-1.424 3.941-1.259 1.341-3.312 2.025-5.639 2.025-.712 0-1.369-.027-1.917-.164v7.391h-2.381l.002-18.231zm2.381 8.897c.52.137 1.177.191 1.971.191 2.874 0 4.626-1.396 4.626-3.942 0-2.436-1.725-3.613-4.353-3.613-1.04 0-1.834.082-2.245.191l.001 7.173zM196.522.987v18.45h-2.381v-18.45h2.381z"/><path fill="none" d="M658.398 0h111.026v34.98h-111.026z"/><path d="M673.81.987v18.45h-2.381v-16.452h-8.568v16.452h-2.383v-18.45h13.332zM677.89 10.514c0-1.697-.055-3.066-.109-4.325h2.162l.109 2.272h.055c.986-1.615 2.547-2.573 4.709-2.573 3.203 0 5.611 2.71 5.611 6.734 0 4.763-2.902 7.117-6.021 7.117-1.752 0-3.285-.767-4.08-2.08h-.055v7.198h-2.381v-14.343zm2.381 3.531c0 .355.055.684.109.984.438 1.671 1.889 2.819 3.612 2.819 2.547 0 4.025-2.08 4.025-5.119 0-2.654-1.396-4.928-3.943-4.928-1.643 0-3.174 1.177-3.641 2.984-.082.301-.164.656-.164.985l.002 2.275zM705.456 12.704c0 4.899-3.395 7.034-6.598 7.034-3.586 0-6.35-2.628-6.35-6.815 0-4.436 2.899-7.035 6.569-7.035 3.807-.001 6.379 2.764 6.379 6.816zm-10.511.136c0 2.902 1.67 5.092 4.025 5.092 2.299 0 4.022-2.163 4.022-5.146 0-2.245-1.123-5.093-3.969-5.093-2.846.001-4.078 2.629-4.078 5.147zM710.823 6.188v11.36h6.104v-11.36h2.383v11.442l1.367.026-.138 5.995h-1.86l-.109-4.216h-10.129v-13.247h2.382zM724.784 13.251c.056 3.257 2.136 4.599 4.545 4.599 1.726 0 2.765-.301 3.668-.684l.41 1.725c-.848.383-2.299.821-4.406.821-4.079 0-6.516-2.684-6.516-6.681 0-3.996 2.354-7.145 6.213-7.145 4.326 0 5.478 3.805 5.478 6.241 0 .493-.058.876-.084 1.123h-9.308zm7.063-1.725c.026-1.532-.629-3.915-3.34-3.915-2.437 0-3.504 2.245-3.695 3.915h7.035zM746.603 18.945c-.629.329-2.025.768-3.805.768-3.996 0-6.599-2.71-6.599-6.762 0-4.079 2.793-7.035 7.117-7.035 1.424 0 2.685.355 3.34.685l-.547 1.861c-.574-.329-1.479-.63-2.793-.63-3.037 0-4.68 2.245-4.68 5.01 0 3.065 1.971 4.955 4.598 4.955 1.369 0 2.273-.356 2.957-.657l.412 1.805zM758.704 18.945c-.631.329-2.024.768-3.805.768-3.998 0-6.598-2.71-6.598-6.762 0-4.079 2.791-7.035 7.117-7.035 1.424 0 2.682.355 3.34.685l-.549 1.86c-.574-.329-1.478-.63-2.791-.63-3.039 0-4.683 2.245-4.683 5.01 0 3.065 1.972 4.955 4.601 4.955 1.368 0 2.271-.356 2.957-.657l.411 1.806z"/><path fill="none" d="M548.626 194.846h70"/><path stroke="#ED1C24" stroke-width="7" stroke-miterlimit="10" fill="none" d="M548.626 194.346h20"/><path fill="#ED1C24" d="M558.626 229.48l60.447-34.897-60.447-34.904z"/><path fill="#ED1C24" stroke="#ED1C24" stroke-miterlimit="10" d="M404.126 172.346h155v50h-155z"/><path fill="none" d="M431.969 184.778h124.991v34.982h-124.991z"/><path fill="#fff" d="M437.909 185.766v7.666h.355l5.092-7.666h5.064l-6.435 8.187c2.382.602 3.449 2.243 4.216 4.461.657 1.973 1.26 3.971 2.137 5.805h-4.49c-.629-1.26-.984-2.684-1.423-4.053-.63-2.08-1.479-3.668-3.725-3.668h-.793v7.721h-4.134v-18.451l4.136-.002zM463.177 197.373c0 4.899-3.478 7.145-7.063 7.145-3.914 0-6.926-2.574-6.926-6.897 0-4.324 2.848-7.091 7.146-7.091 4.106-.001 6.843 2.82 6.843 6.843zm-9.69.137c0 2.299.958 4.023 2.737 4.023 1.615 0 2.655-1.615 2.655-4.023 0-1.998-.768-4.023-2.655-4.023-1.998-.001-2.737 2.052-2.737 4.023zM469.884 190.83v4.846h4.217v-4.846h4.188v13.387h-4.188v-5.312h-4.217v5.312h-4.16v-13.387h4.16zM492.086 190.83v3.176h-3.889v10.211h-4.188v-10.211h-3.888v-3.176h11.965zM493.949 195.32c0-1.752-.055-3.258-.108-4.489h3.612l.191 1.86h.055c.985-1.424 2.52-2.162 4.462-2.162 2.931 0 5.558 2.545 5.558 6.816 0 4.873-3.093 7.172-6.076 7.172-1.615 0-2.875-.656-3.478-1.533h-.055v6.652h-4.161v-14.316zm4.162 3.147c0 .33.027.631.082.877.273 1.123 1.231 1.971 2.437 1.971 1.807 0 2.875-1.506 2.875-3.776 0-2.136-.959-3.75-2.82-3.75-1.177 0-2.217.875-2.49 2.106-.055.219-.082.492-.082.738l-.002 1.834zM523.542 197.373c0 4.899-3.478 7.145-7.063 7.145-3.914 0-6.926-2.574-6.926-6.897 0-4.324 2.848-7.091 7.145-7.091 4.107-.001 6.844 2.82 6.844 6.843zm-9.69.137c0 2.299.958 4.023 2.737 4.023 1.614 0 2.654-1.615 2.654-4.023 0-1.998-.767-4.023-2.654-4.023-1.998-.001-2.737 2.052-2.737 4.023zM537.749 190.83v13.387h-4.16v-10.211h-2.901v2.463c0 3.258-.384 5.529-1.889 6.734-.85.903-2.026 1.286-3.889 1.286l-.438-3.202c.602-.109 1.178-.355 1.479-.738.767-.769.875-2.027.875-4.299v-5.42h10.923zM545.197 190.83v3.969c.576-.082 1.369-.164 2.108-.164 3.12 0 6.405 1.096 6.405 4.654 0 1.696-.738 2.848-1.834 3.586-1.726 1.205-4.324 1.506-6.379 1.506-1.506 0-3.064-.082-4.462-.246v-13.305h4.162zm-.028 10.649c.384.027.768.082 1.396.082 1.369 0 3.012-.465 3.012-2.08 0-1.643-1.778-2.024-3.065-2.024-.547 0-.932.082-1.342.137v3.885h-.001z"/></svg>