<?xml version="1.0" encoding="utf-8"?>
<!-- Generator: Adobe Illustrator 15.1.0, SVG Export Plug-In . SVG Version: 6.00 Build 0)  -->
<!DOCTYPE svg PUBLIC "-//W3C//DTD SVG 1.1//EN" "http://www.w3.org/Graphics/SVG/1.1/DTD/svg11.dtd">
<svg version="1.1" id="Layer_1" xmlns="http://www.w3.org/2000/svg" xmlns:xlink="http://www.w3.org/1999/xlink" x="0px" y="0px"
	 width="687.5px" height="241px" viewBox="0 0 687.5 241" enable-background="new 0 0 687.5 241" xml:space="preserve">
<rect x="-118.206" y="-91.047" fill-rule="evenodd" clip-rule="evenodd" fill="none" width="1210.825" height="22.188"/>
<text transform="matrix(1.0391 0 0 1 -118.2061 -79.3174)" display="none" fill="#231F20" font-family="'Consolas'" font-size="17">R – Responsible – сотрудник, ответственный за фактическое исполнение KPI.</text>
<g>
	<rect x="281" y="20" fill="#0071C6" width="32" height="32"/>
	<g>
		<path fill="#FFFFFF" d="M300.888,37.425c0,0.592-0.109,1.106-0.328,1.543c-0.218,0.438-0.524,0.799-0.917,1.084
			s-0.86,0.496-1.403,0.635s-1.134,0.207-1.776,0.207c-0.57,0-1.121-0.033-1.652-0.1s-1.057-0.177-1.577-0.332v-2.017
			c0.254,0.089,0.52,0.172,0.797,0.249s0.555,0.146,0.834,0.203c0.28,0.059,0.558,0.104,0.834,0.137s0.545,0.051,0.805,0.051
			c0.387,0,0.717-0.033,0.988-0.1s0.493-0.158,0.664-0.274s0.296-0.255,0.374-0.415s0.116-0.338,0.116-0.531
			c0-0.266-0.076-0.488-0.229-0.668c-0.152-0.18-0.353-0.339-0.602-0.478s-0.533-0.263-0.851-0.374
			c-0.318-0.11-0.642-0.229-0.972-0.356c-0.329-0.127-0.653-0.271-0.971-0.432c-0.318-0.16-0.602-0.359-0.851-0.598
			s-0.45-0.521-0.602-0.851c-0.152-0.329-0.228-0.727-0.228-1.191c0-0.426,0.078-0.83,0.232-1.212s0.398-0.715,0.73-1
			s0.758-0.512,1.278-0.681s1.148-0.254,1.884-0.254c0.216,0,0.441,0.01,0.677,0.029c0.235,0.02,0.467,0.045,0.697,0.075
			c0.229,0.03,0.451,0.066,0.664,0.107c0.213,0.042,0.408,0.085,0.585,0.129v1.868c-0.177-0.066-0.371-0.128-0.581-0.184
			c-0.21-0.055-0.428-0.104-0.651-0.145c-0.225-0.042-0.45-0.073-0.677-0.096s-0.443-0.033-0.647-0.033
			c-0.36,0-0.664,0.029-0.913,0.087c-0.249,0.059-0.454,0.139-0.614,0.241s-0.277,0.229-0.349,0.377
			c-0.072,0.15-0.108,0.316-0.108,0.498c0,0.228,0.076,0.423,0.228,0.586c0.152,0.163,0.354,0.31,0.606,0.439
			c0.251,0.13,0.537,0.252,0.854,0.365c0.318,0.113,0.645,0.235,0.979,0.365c0.335,0.13,0.662,0.278,0.979,0.444
			c0.318,0.166,0.604,0.368,0.855,0.606c0.251,0.237,0.454,0.519,0.605,0.842C300.812,36.599,300.888,36.981,300.888,37.425z"/>
	</g>
	<g>
		<path d="M335.888,37.425c0,0.592-0.109,1.106-0.328,1.543c-0.218,0.438-0.524,0.799-0.917,1.084s-0.86,0.496-1.403,0.635
			s-1.134,0.207-1.776,0.207c-0.57,0-1.121-0.033-1.652-0.1s-1.057-0.177-1.577-0.332v-2.017c0.254,0.089,0.52,0.172,0.797,0.249
			s0.555,0.146,0.834,0.203c0.28,0.059,0.558,0.104,0.834,0.137s0.545,0.051,0.805,0.051c0.387,0,0.717-0.033,0.988-0.1
			s0.493-0.158,0.664-0.274s0.296-0.255,0.374-0.415s0.116-0.338,0.116-0.531c0-0.266-0.076-0.488-0.229-0.668
			c-0.152-0.18-0.353-0.339-0.602-0.478s-0.533-0.263-0.851-0.374c-0.318-0.11-0.642-0.229-0.972-0.356
			c-0.329-0.127-0.653-0.271-0.971-0.432c-0.318-0.16-0.602-0.359-0.851-0.598s-0.45-0.521-0.602-0.851
			c-0.152-0.329-0.228-0.727-0.228-1.191c0-0.426,0.078-0.83,0.232-1.212s0.398-0.715,0.73-1s0.758-0.512,1.278-0.681
			s1.148-0.254,1.884-0.254c0.216,0,0.441,0.01,0.677,0.029c0.235,0.02,0.467,0.045,0.697,0.075c0.229,0.03,0.451,0.066,0.664,0.107
			c0.213,0.042,0.408,0.085,0.585,0.129v1.868c-0.177-0.066-0.371-0.128-0.581-0.184c-0.21-0.055-0.428-0.104-0.651-0.145
			c-0.225-0.042-0.45-0.073-0.677-0.096s-0.443-0.033-0.647-0.033c-0.36,0-0.664,0.029-0.913,0.087
			c-0.249,0.059-0.454,0.139-0.614,0.241s-0.277,0.229-0.349,0.377c-0.072,0.15-0.108,0.316-0.108,0.498
			c0,0.228,0.076,0.423,0.228,0.586c0.152,0.163,0.354,0.31,0.606,0.439c0.251,0.13,0.537,0.252,0.854,0.365
			c0.318,0.113,0.645,0.235,0.979,0.365c0.335,0.13,0.662,0.278,0.979,0.444c0.318,0.166,0.604,0.368,0.855,0.606
			c0.251,0.237,0.454,0.519,0.605,0.842C335.812,36.599,335.888,36.981,335.888,37.425z"/>
		<path d="M345.508,36.337c0,0.774-0.109,1.444-0.328,2.009c-0.219,0.564-0.523,1.033-0.913,1.407
			c-0.391,0.373-0.851,0.65-1.382,0.83s-1.109,0.27-1.735,0.27c-0.21,0-0.42-0.014-0.631-0.041c-0.21-0.028-0.401-0.064-0.573-0.108
			v3.296h-2.025V32.27h1.751l0.05,1.245c0.171-0.216,0.35-0.412,0.535-0.59c0.186-0.177,0.386-0.327,0.602-0.452
			c0.216-0.124,0.448-0.22,0.697-0.286s0.528-0.1,0.838-0.1c0.498,0,0.941,0.1,1.328,0.299s0.712,0.482,0.976,0.851
			c0.263,0.368,0.463,0.813,0.602,1.337C345.439,35.096,345.508,35.684,345.508,36.337z M343.383,36.42
			c0-0.465-0.033-0.86-0.1-1.187c-0.066-0.327-0.162-0.596-0.287-0.806c-0.124-0.21-0.276-0.364-0.456-0.461
			c-0.18-0.097-0.386-0.146-0.619-0.146c-0.343,0-0.671,0.139-0.984,0.416c-0.313,0.276-0.643,0.652-0.992,1.129v3.686
			c0.161,0.061,0.358,0.11,0.593,0.148c0.235,0.039,0.475,0.059,0.718,0.059c0.321,0,0.613-0.066,0.875-0.199
			c0.263-0.133,0.487-0.321,0.673-0.564c0.185-0.243,0.328-0.541,0.427-0.893S343.383,36.857,343.383,36.42z"/>
		<path d="M354.614,35.839c0,0.139-0.004,0.318-0.013,0.539c-0.008,0.222-0.021,0.43-0.037,0.623h-5.545
			c0,0.371,0.057,0.697,0.17,0.979c0.114,0.282,0.274,0.519,0.481,0.71c0.208,0.19,0.457,0.336,0.747,0.436
			c0.291,0.1,0.613,0.149,0.967,0.149c0.41,0,0.848-0.032,1.316-0.096c0.467-0.063,0.953-0.167,1.457-0.312v1.611
			c-0.216,0.061-0.451,0.115-0.706,0.166c-0.254,0.049-0.515,0.094-0.78,0.133c-0.266,0.038-0.534,0.067-0.805,0.087
			s-0.534,0.028-0.789,0.028c-0.642,0-1.217-0.091-1.727-0.273s-0.941-0.452-1.295-0.81c-0.354-0.356-0.625-0.798-0.813-1.323
			c-0.188-0.526-0.282-1.135-0.282-1.826c0-0.687,0.094-1.311,0.282-1.872s0.454-1.043,0.797-1.444s0.76-0.711,1.249-0.93
			c0.49-0.219,1.037-0.328,1.64-0.328c0.598,0,1.126,0.093,1.585,0.278s0.844,0.444,1.154,0.776s0.545,0.728,0.706,1.187
			S354.614,35.291,354.614,35.839z M352.556,35.548c0.005-0.332-0.036-0.621-0.125-0.867s-0.209-0.449-0.361-0.609
			c-0.152-0.161-0.33-0.28-0.531-0.357c-0.202-0.077-0.419-0.116-0.652-0.116c-0.509,0-0.927,0.17-1.253,0.511
			c-0.327,0.34-0.52,0.82-0.581,1.439H352.556z"/>
		<path d="M363.438,40.38c-0.398,0.16-0.811,0.279-1.237,0.356s-0.872,0.116-1.336,0.116c-0.669,0-1.27-0.092-1.801-0.273
			c-0.531-0.184-0.982-0.454-1.353-0.814c-0.371-0.359-0.654-0.805-0.851-1.336c-0.196-0.531-0.294-1.146-0.294-1.843
			c0-0.675,0.106-1.286,0.32-1.835c0.213-0.547,0.513-1.015,0.9-1.402s0.854-0.687,1.398-0.896c0.545-0.21,1.153-0.315,1.822-0.315
			c0.548,0,1.009,0.029,1.382,0.087c0.374,0.059,0.71,0.132,1.009,0.221v1.967c-0.343-0.172-0.715-0.305-1.116-0.398
			c-0.401-0.094-0.782-0.141-1.142-0.141c-0.376,0-0.714,0.063-1.013,0.19s-0.551,0.305-0.755,0.531s-0.361,0.502-0.469,0.826
			c-0.107,0.323-0.162,0.679-0.162,1.066c0,0.404,0.058,0.767,0.174,1.087c0.116,0.321,0.281,0.594,0.494,0.818
			c0.213,0.224,0.469,0.396,0.768,0.515s0.631,0.179,0.996,0.179c0.177,0,0.364-0.013,0.561-0.038
			c0.196-0.024,0.393-0.061,0.589-0.107c0.197-0.047,0.391-0.102,0.581-0.162c0.191-0.061,0.37-0.127,0.536-0.199V40.38z"/>
		<path d="M368.684,33.847h-2.382V32.27h4.458v6.856h2.432v1.577h-7.18v-1.577h2.673V33.847z M370.925,29.962
			c0,0.183-0.033,0.354-0.1,0.515s-0.159,0.3-0.278,0.419c-0.119,0.119-0.259,0.213-0.419,0.282s-0.335,0.104-0.523,0.104
			s-0.364-0.035-0.527-0.104c-0.163-0.069-0.304-0.163-0.423-0.282c-0.119-0.119-0.212-0.259-0.278-0.419s-0.1-0.332-0.1-0.515
			s0.033-0.354,0.1-0.515s0.159-0.302,0.278-0.423c0.119-0.122,0.26-0.218,0.423-0.287c0.164-0.069,0.339-0.104,0.527-0.104
			s0.362,0.034,0.523,0.104s0.3,0.165,0.419,0.287c0.119,0.121,0.211,0.263,0.278,0.423S370.925,29.779,370.925,29.962z"/>
		<path d="M382.878,30.692c-0.244-0.077-0.533-0.143-0.868-0.195c-0.334-0.053-0.676-0.078-1.025-0.078
			c-0.238,0-0.459,0.031-0.664,0.095s-0.382,0.165-0.531,0.304c-0.149,0.138-0.267,0.313-0.353,0.526
			c-0.085,0.213-0.128,0.472-0.128,0.776v1.361h3.312v1.577h-3.312v5.645h-2.042v-5.645h-2.449v-1.577h2.449v-1.278
			c0-0.598,0.087-1.111,0.261-1.54c0.175-0.429,0.421-0.78,0.739-1.054c0.318-0.274,0.701-0.475,1.149-0.603
			c0.448-0.127,0.949-0.19,1.502-0.19c0.365,0,0.712,0.023,1.042,0.07c0.33,0.047,0.635,0.104,0.917,0.171V30.692z"/>
		<path d="M387.377,33.847h-2.382V32.27h4.458v6.856h2.432v1.577h-7.18v-1.577h2.673V33.847z M389.619,29.962
			c0,0.183-0.033,0.354-0.1,0.515s-0.159,0.3-0.278,0.419c-0.119,0.119-0.259,0.213-0.419,0.282s-0.335,0.104-0.523,0.104
			s-0.364-0.035-0.527-0.104c-0.163-0.069-0.304-0.163-0.423-0.282c-0.119-0.119-0.212-0.259-0.278-0.419s-0.1-0.332-0.1-0.515
			s0.033-0.354,0.1-0.515s0.159-0.302,0.278-0.423c0.119-0.122,0.26-0.218,0.423-0.287c0.164-0.069,0.339-0.104,0.527-0.104
			s0.362,0.034,0.523,0.104s0.3,0.165,0.419,0.287c0.119,0.121,0.211,0.263,0.278,0.423S389.619,29.779,389.619,29.962z"/>
		<path d="M400.825,40.38c-0.398,0.16-0.811,0.279-1.237,0.356s-0.872,0.116-1.336,0.116c-0.669,0-1.27-0.092-1.801-0.273
			c-0.531-0.184-0.982-0.454-1.353-0.814c-0.371-0.359-0.654-0.805-0.851-1.336c-0.196-0.531-0.294-1.146-0.294-1.843
			c0-0.675,0.106-1.286,0.32-1.835c0.213-0.547,0.513-1.015,0.9-1.402s0.854-0.687,1.398-0.896c0.545-0.21,1.153-0.315,1.822-0.315
			c0.548,0,1.009,0.029,1.382,0.087c0.374,0.059,0.71,0.132,1.009,0.221v1.967c-0.343-0.172-0.715-0.305-1.116-0.398
			c-0.401-0.094-0.782-0.141-1.142-0.141c-0.376,0-0.714,0.063-1.013,0.19s-0.551,0.305-0.755,0.531s-0.361,0.502-0.469,0.826
			c-0.107,0.323-0.162,0.679-0.162,1.066c0,0.404,0.058,0.767,0.174,1.087c0.116,0.321,0.281,0.594,0.494,0.818
			c0.213,0.224,0.469,0.396,0.768,0.515s0.631,0.179,0.996,0.179c0.177,0,0.364-0.013,0.561-0.038
			c0.196-0.024,0.393-0.061,0.589-0.107c0.197-0.047,0.391-0.102,0.581-0.162c0.191-0.061,0.37-0.127,0.536-0.199V40.38z"/>
		<path d="M413.633,37.084v-1.802h5.163v1.802H413.633z"/>
		<path d="M439.058,40.703h-1.984l-3.885-4.466v4.466h-1.444v-8.334h1.444v3.81l3.744-3.81h1.909l-3.91,3.843L439.058,40.703z"/>
		<path d="M448.164,36.47c0,0.647-0.091,1.241-0.274,1.78c-0.183,0.54-0.445,1.002-0.789,1.387s-0.761,0.684-1.253,0.896
			s-1.051,0.319-1.677,0.319c-0.598,0-1.133-0.093-1.606-0.278c-0.474-0.186-0.875-0.458-1.204-0.817
			c-0.329-0.359-0.581-0.805-0.755-1.336c-0.175-0.531-0.262-1.144-0.262-1.835c0-0.647,0.091-1.238,0.274-1.772
			s0.445-0.993,0.789-1.378s0.761-0.684,1.253-0.896s1.051-0.319,1.677-0.319c0.598,0,1.133,0.093,1.606,0.278
			c0.474,0.186,0.875,0.456,1.204,0.813c0.329,0.356,0.581,0.801,0.755,1.332C448.077,35.175,448.164,35.783,448.164,36.47z
			 M446.687,36.536c0-0.515-0.057-0.964-0.17-1.349c-0.114-0.385-0.275-0.706-0.486-0.963c-0.21-0.258-0.466-0.451-0.768-0.581
			c-0.301-0.13-0.638-0.195-1.008-0.195c-0.432,0-0.801,0.084-1.108,0.253c-0.308,0.169-0.559,0.395-0.756,0.677
			c-0.196,0.282-0.34,0.61-0.432,0.983c-0.091,0.374-0.137,0.766-0.137,1.175c0,0.515,0.057,0.966,0.17,1.354
			c0.114,0.387,0.275,0.709,0.486,0.967c0.21,0.257,0.465,0.451,0.764,0.581s0.636,0.194,1.013,0.194
			c0.432,0,0.801-0.084,1.108-0.253c0.308-0.169,0.559-0.394,0.756-0.677c0.196-0.281,0.34-0.609,0.432-0.983
			C446.641,37.346,446.687,36.951,446.687,36.536z"/>
		<path d="M456.955,40.703h-1.444v-3.686h-3.81v3.686h-1.444v-8.334h1.444v3.387h3.81v-3.387h1.444V40.703z"/>
		<path d="M467.098,40.703h-1.984l-3.885-4.466v4.466h-1.444v-8.334h1.444v3.81l3.744-3.81h1.909l-3.91,3.843L467.098,40.703z"/>
		<path d="M476.071,36.387c0,0.741-0.104,1.389-0.312,1.942c-0.207,0.554-0.494,1.013-0.859,1.378s-0.797,0.64-1.295,0.821
			c-0.498,0.184-1.038,0.274-1.619,0.274c-0.266,0-0.53-0.014-0.793-0.042c-0.263-0.027-0.53-0.074-0.801-0.141v3.486h-1.444V32.369
			h1.287l0.091,1.395c0.415-0.57,0.858-0.97,1.328-1.199s0.979-0.345,1.527-0.345c0.476,0,0.894,0.1,1.253,0.299
			s0.661,0.48,0.905,0.843s0.426,0.8,0.548,1.312S476.071,35.756,476.071,36.387z M474.594,36.453c0-0.438-0.032-0.839-0.096-1.204
			c-0.063-0.365-0.165-0.678-0.303-0.938s-0.315-0.464-0.531-0.61s-0.473-0.22-0.772-0.22c-0.183,0-0.368,0.029-0.556,0.087
			c-0.188,0.059-0.383,0.155-0.585,0.291c-0.202,0.136-0.415,0.315-0.64,0.539c-0.224,0.225-0.463,0.503-0.718,0.835v4.042
			c0.266,0.11,0.545,0.198,0.838,0.262s0.581,0.095,0.863,0.095c0.78,0,1.392-0.264,1.834-0.792S474.594,37.516,474.594,36.453z"/>
		<path d="M485.335,36.097c0,0.204-0.003,0.376-0.008,0.514c-0.005,0.139-0.014,0.269-0.025,0.391h-5.852
			c0,0.853,0.238,1.507,0.714,1.963c0.476,0.457,1.162,0.686,2.059,0.686c0.244,0,0.487-0.01,0.73-0.029s0.479-0.046,0.706-0.079
			s0.444-0.07,0.651-0.112c0.208-0.041,0.4-0.087,0.577-0.137v1.188c-0.393,0.11-0.837,0.2-1.332,0.27
			c-0.496,0.069-1.009,0.104-1.54,0.104c-0.714,0-1.328-0.097-1.843-0.291c-0.515-0.193-0.937-0.474-1.266-0.842
			c-0.33-0.368-0.573-0.819-0.73-1.354c-0.158-0.534-0.237-1.139-0.237-1.813c0-0.587,0.084-1.142,0.253-1.664
			c0.168-0.523,0.415-0.982,0.738-1.378c0.324-0.396,0.721-0.71,1.191-0.942s1.004-0.349,1.602-0.349
			c0.581,0,1.096,0.092,1.544,0.273c0.448,0.184,0.826,0.441,1.133,0.776c0.307,0.335,0.539,0.742,0.697,1.221
			C485.256,34.969,485.335,35.504,485.335,36.097z M483.833,35.889c0.017-0.371-0.02-0.71-0.108-1.017
			c-0.088-0.308-0.226-0.571-0.411-0.793c-0.185-0.222-0.416-0.395-0.693-0.519c-0.277-0.125-0.598-0.187-0.963-0.187
			c-0.315,0-0.603,0.061-0.863,0.182c-0.26,0.122-0.484,0.294-0.672,0.516c-0.188,0.221-0.34,0.486-0.457,0.797
			c-0.116,0.31-0.188,0.649-0.216,1.021H483.833z"/>
		<path d="M494.881,33.614h-3.163v7.089h-1.461v-7.089h-3.163v-1.245h7.786V33.614z"/>
		<path d="M503.688,40.703h-1.443v-3.686h-3.811v3.686h-1.444v-8.334h1.444v3.387h3.811v-3.387h1.443V40.703z"/>
		<path d="M507.116,35.59c0.199-0.006,0.386-0.01,0.561-0.013c0.174-0.003,0.355-0.004,0.544-0.004c0.52,0,0.975,0.063,1.365,0.187
			c0.39,0.125,0.715,0.299,0.975,0.523c0.261,0.224,0.454,0.492,0.582,0.805c0.127,0.313,0.19,0.651,0.19,1.017
			c0,0.443-0.075,0.832-0.224,1.167c-0.15,0.335-0.363,0.615-0.64,0.843c-0.276,0.227-0.616,0.398-1.017,0.514
			c-0.401,0.117-0.879,0.175-1.432,0.175c-0.354,0-0.729-0.01-1.125-0.029c-0.396-0.02-0.799-0.06-1.208-0.12v-8.284h1.428V35.59z
			 M509.839,38.146c0-0.438-0.137-0.776-0.411-1.017c-0.273-0.241-0.709-0.361-1.307-0.361c-0.161,0-0.324,0.003-0.49,0.008
			c-0.166,0.006-0.338,0.015-0.515,0.025v2.739c0.177,0.027,0.346,0.046,0.507,0.054c0.16,0.009,0.32,0.013,0.48,0.013
			c0.338,0,0.617-0.04,0.839-0.12s0.397-0.188,0.527-0.32s0.224-0.287,0.282-0.465C509.81,38.525,509.839,38.34,509.839,38.146z
			 M512.246,40.703v-8.334h1.428v8.334H512.246z"/>
		<path d="M517.243,32.369v5.868l3.636-5.868h1.378v8.334h-1.444v-5.868l-3.636,5.868h-1.378v-8.334H517.243z M521.576,29.157
			c0,0.326-0.063,0.616-0.187,0.871c-0.125,0.255-0.299,0.472-0.523,0.651c-0.224,0.18-0.493,0.317-0.81,0.411
			c-0.314,0.094-0.664,0.141-1.045,0.141c-0.443,0-0.822-0.047-1.138-0.141s-0.574-0.231-0.776-0.411
			c-0.201-0.18-0.35-0.396-0.443-0.651c-0.095-0.255-0.142-0.545-0.142-0.871h1.312c0,0.16,0.02,0.31,0.059,0.447
			c0.038,0.139,0.104,0.262,0.194,0.37c0.092,0.107,0.215,0.192,0.37,0.253c0.154,0.061,0.348,0.092,0.58,0.092
			c0.238,0,0.437-0.031,0.594-0.092c0.158-0.061,0.283-0.146,0.378-0.253c0.095-0.108,0.161-0.231,0.199-0.37
			c0.038-0.138,0.058-0.287,0.058-0.447H521.576z"/>
	</g>
	<g>
		<path d="M334.593,83.703l-0.199-6.134l-0.075-2.449l-0.523,1.66l-1.204,3.693h-1.278l-1.087-3.693l-0.457-1.66l-0.058,2.398
			l-0.183,6.185h-1.735l0.531-10.849h2.308l0.955,3.079l0.457,1.735l0.457-1.636l1.004-3.179h2.349l0.54,10.849H334.593z"/>
		<path d="M345.268,78.839c0,0.139-0.004,0.318-0.013,0.539c-0.008,0.222-0.021,0.43-0.037,0.623h-5.545
			c0,0.371,0.057,0.697,0.17,0.979c0.114,0.282,0.274,0.519,0.481,0.71c0.208,0.19,0.457,0.336,0.747,0.436
			c0.291,0.1,0.613,0.149,0.967,0.149c0.41,0,0.848-0.032,1.316-0.096c0.467-0.063,0.953-0.167,1.457-0.312v1.611
			c-0.216,0.061-0.451,0.115-0.706,0.166c-0.254,0.049-0.515,0.094-0.78,0.133c-0.266,0.038-0.534,0.067-0.805,0.087
			s-0.534,0.028-0.789,0.028c-0.642,0-1.217-0.091-1.727-0.273s-0.941-0.452-1.295-0.81c-0.354-0.356-0.625-0.798-0.813-1.323
			c-0.188-0.526-0.282-1.135-0.282-1.826c0-0.687,0.094-1.311,0.282-1.872s0.454-1.043,0.797-1.444s0.76-0.711,1.249-0.93
			c0.49-0.219,1.037-0.328,1.64-0.328c0.598,0,1.126,0.093,1.585,0.278s0.844,0.444,1.154,0.776s0.545,0.728,0.706,1.187
			S345.268,78.291,345.268,78.839z M343.209,78.548c0.005-0.332-0.036-0.621-0.125-0.867s-0.209-0.449-0.361-0.609
			c-0.152-0.161-0.33-0.28-0.531-0.357c-0.202-0.077-0.419-0.116-0.652-0.116c-0.509,0-0.927,0.17-1.253,0.511
			c-0.327,0.34-0.52,0.82-0.581,1.439H343.209z"/>
		<path d="M352.556,83.703l-0.05-1.104c-0.177,0.188-0.362,0.361-0.556,0.52c-0.194,0.157-0.407,0.295-0.639,0.41
			c-0.232,0.117-0.485,0.207-0.76,0.271c-0.273,0.063-0.574,0.095-0.9,0.095c-0.432,0-0.811-0.063-1.137-0.19
			s-0.601-0.305-0.822-0.531s-0.389-0.501-0.502-0.821c-0.114-0.321-0.17-0.676-0.17-1.063c0-0.398,0.084-0.767,0.253-1.104
			c0.168-0.338,0.426-0.628,0.771-0.872c0.346-0.243,0.778-0.434,1.295-0.572c0.518-0.139,1.125-0.207,1.822-0.207h1.104v-0.507
			c0-0.216-0.03-0.411-0.091-0.585c-0.061-0.175-0.159-0.322-0.295-0.444c-0.135-0.122-0.311-0.216-0.527-0.282
			s-0.481-0.1-0.797-0.1c-0.498,0-0.989,0.057-1.473,0.17c-0.484,0.113-0.954,0.272-1.407,0.478v-1.618
			c0.404-0.161,0.87-0.294,1.398-0.398c0.529-0.105,1.078-0.158,1.648-0.158c0.625,0,1.162,0.06,1.61,0.179s0.818,0.297,1.108,0.535
			c0.291,0.238,0.505,0.535,0.644,0.893c0.138,0.356,0.208,0.773,0.208,1.249v5.761H352.556z M352.265,79.976h-1.237
			c-0.343,0-0.634,0.033-0.872,0.1s-0.432,0.158-0.581,0.274s-0.259,0.25-0.328,0.402c-0.069,0.152-0.104,0.314-0.104,0.485
			c0,0.344,0.111,0.605,0.332,0.785s0.523,0.27,0.905,0.27c0.282,0,0.576-0.103,0.88-0.307c0.304-0.205,0.639-0.498,1.004-0.881
			V79.976z"/>
		<path d="M363.571,81.222c0,0.48-0.106,0.892-0.32,1.232c-0.213,0.34-0.495,0.617-0.847,0.83c-0.351,0.213-0.75,0.368-1.195,0.465
			c-0.445,0.097-0.9,0.145-1.365,0.145c-0.62,0-1.179-0.028-1.677-0.087c-0.498-0.058-0.968-0.143-1.411-0.253v-1.826
			c0.52,0.216,1.039,0.372,1.557,0.469c0.517,0.097,1.005,0.146,1.465,0.146c0.531,0,0.928-0.084,1.191-0.253
			c0.263-0.169,0.394-0.389,0.394-0.66c0-0.127-0.028-0.243-0.083-0.349s-0.159-0.206-0.311-0.303
			c-0.152-0.097-0.367-0.196-0.644-0.299s-0.639-0.218-1.087-0.345c-0.415-0.116-0.779-0.248-1.091-0.395
			c-0.313-0.146-0.572-0.319-0.776-0.519s-0.358-0.431-0.461-0.693c-0.102-0.263-0.153-0.571-0.153-0.925
			c0-0.344,0.078-0.667,0.232-0.972s0.386-0.571,0.693-0.801c0.307-0.229,0.69-0.411,1.149-0.544s0.996-0.199,1.61-0.199
			c0.531,0,1.001,0.027,1.411,0.083s0.772,0.116,1.087,0.183v1.652c-0.481-0.155-0.934-0.265-1.357-0.328
			c-0.424-0.063-0.843-0.096-1.258-0.096s-0.749,0.074-1,0.225c-0.252,0.148-0.378,0.356-0.378,0.622
			c0,0.127,0.025,0.241,0.075,0.341s0.148,0.196,0.294,0.29c0.147,0.094,0.352,0.192,0.614,0.295
			c0.263,0.103,0.61,0.214,1.042,0.336c0.487,0.139,0.896,0.286,1.229,0.444c0.332,0.157,0.599,0.336,0.801,0.535
			c0.202,0.199,0.348,0.426,0.436,0.681S363.571,80.895,363.571,81.222z"/>
		<path d="M367.97,75.27v5.495c0,0.459,0.086,0.807,0.257,1.042s0.432,0.353,0.78,0.353c0.337,0,0.663-0.14,0.976-0.419
			c0.313-0.279,0.643-0.657,0.992-1.134V75.27H373v8.434h-1.751l-0.05-1.245c-0.177,0.216-0.357,0.412-0.54,0.59
			c-0.183,0.177-0.38,0.327-0.593,0.452c-0.213,0.124-0.446,0.221-0.697,0.29c-0.252,0.069-0.53,0.104-0.834,0.104
			c-0.432,0-0.809-0.07-1.133-0.211c-0.323-0.142-0.593-0.342-0.809-0.602c-0.216-0.261-0.377-0.572-0.486-0.935
			c-0.107-0.362-0.162-0.768-0.162-1.216V75.27H367.97z"/>
		<path d="M380.737,78.548c0.011-0.314-0.004-0.583-0.045-0.805c-0.042-0.222-0.108-0.404-0.199-0.548
			c-0.092-0.144-0.204-0.249-0.336-0.315s-0.285-0.1-0.457-0.1c-0.299,0-0.607,0.123-0.926,0.369
			c-0.318,0.246-0.668,0.652-1.05,1.217v5.337h-2.075V75.27h1.834l0.075,1.229c0.138-0.216,0.295-0.409,0.469-0.581
			c0.175-0.172,0.368-0.319,0.581-0.444c0.213-0.124,0.45-0.22,0.71-0.286s0.545-0.1,0.855-0.1c0.426,0,0.804,0.073,1.133,0.22
			c0.329,0.146,0.605,0.364,0.83,0.651c0.224,0.288,0.39,0.649,0.498,1.084c0.107,0.435,0.153,0.937,0.137,1.506H380.737z"/>
		<path d="M389.942,83.703l-0.05-1.104c-0.177,0.188-0.362,0.361-0.556,0.52c-0.194,0.157-0.407,0.295-0.639,0.41
			c-0.232,0.117-0.485,0.207-0.76,0.271c-0.273,0.063-0.574,0.095-0.9,0.095c-0.432,0-0.811-0.063-1.137-0.19
			s-0.601-0.305-0.822-0.531s-0.389-0.501-0.502-0.821c-0.114-0.321-0.17-0.676-0.17-1.063c0-0.398,0.084-0.767,0.253-1.104
			c0.168-0.338,0.426-0.628,0.771-0.872c0.346-0.243,0.778-0.434,1.295-0.572c0.518-0.139,1.125-0.207,1.822-0.207h1.104v-0.507
			c0-0.216-0.03-0.411-0.091-0.585c-0.061-0.175-0.159-0.322-0.295-0.444c-0.135-0.122-0.311-0.216-0.527-0.282
			s-0.481-0.1-0.797-0.1c-0.498,0-0.989,0.057-1.473,0.17c-0.484,0.113-0.954,0.272-1.407,0.478v-1.618
			c0.404-0.161,0.87-0.294,1.398-0.398c0.529-0.105,1.078-0.158,1.648-0.158c0.625,0,1.162,0.06,1.61,0.179s0.818,0.297,1.108,0.535
			c0.291,0.238,0.505,0.535,0.644,0.893c0.138,0.356,0.208,0.773,0.208,1.249v5.761H389.942z M389.652,79.976h-1.237
			c-0.343,0-0.634,0.033-0.872,0.1s-0.432,0.158-0.581,0.274s-0.259,0.25-0.328,0.402c-0.069,0.152-0.104,0.314-0.104,0.485
			c0,0.344,0.111,0.605,0.332,0.785s0.523,0.27,0.905,0.27c0.282,0,0.576-0.103,0.88-0.307c0.304-0.205,0.639-0.498,1.004-0.881
			V79.976z"/>
		<path d="M401.588,79.337c0,0.774-0.109,1.444-0.328,2.009c-0.219,0.564-0.523,1.033-0.913,1.407
			c-0.391,0.373-0.851,0.65-1.382,0.83s-1.109,0.27-1.735,0.27c-0.614,0-1.186-0.046-1.714-0.137
			c-0.529-0.092-1.034-0.215-1.515-0.369V71.974h2.025v2.756l-0.083,1.66c0.304-0.393,0.66-0.708,1.067-0.945
			c0.406-0.238,0.895-0.357,1.465-0.357c0.498,0,0.941,0.1,1.328,0.299s0.712,0.482,0.976,0.851
			c0.263,0.368,0.463,0.813,0.602,1.337C401.519,78.096,401.588,78.684,401.588,79.337z M399.463,79.42
			c0-0.465-0.033-0.86-0.1-1.187c-0.066-0.327-0.162-0.596-0.287-0.806c-0.124-0.21-0.276-0.364-0.456-0.461
			c-0.18-0.097-0.386-0.146-0.619-0.146c-0.343,0-0.671,0.139-0.984,0.416c-0.313,0.276-0.643,0.652-0.992,1.129v3.686
			c0.161,0.061,0.358,0.11,0.593,0.148c0.235,0.039,0.475,0.059,0.718,0.059c0.321,0,0.613-0.066,0.875-0.199
			c0.263-0.133,0.487-0.321,0.673-0.564c0.185-0.243,0.328-0.541,0.427-0.893S399.463,79.857,399.463,79.42z"/>
		<path d="M406.071,73.552h-2.382v-1.578h4.458v10.152h2.432v1.577h-7.18v-1.577h2.673V73.552z"/>
		<path d="M420.041,78.839c0,0.139-0.004,0.318-0.013,0.539c-0.008,0.222-0.021,0.43-0.037,0.623h-5.545
			c0,0.371,0.057,0.697,0.17,0.979c0.114,0.282,0.274,0.519,0.481,0.71c0.208,0.19,0.457,0.336,0.747,0.436
			c0.291,0.1,0.613,0.149,0.967,0.149c0.41,0,0.848-0.032,1.316-0.096c0.467-0.063,0.953-0.167,1.457-0.312v1.611
			c-0.216,0.061-0.451,0.115-0.706,0.166c-0.254,0.049-0.515,0.094-0.78,0.133c-0.266,0.038-0.534,0.067-0.805,0.087
			s-0.534,0.028-0.789,0.028c-0.642,0-1.217-0.091-1.727-0.273s-0.941-0.452-1.295-0.81c-0.354-0.356-0.625-0.798-0.813-1.323
			c-0.188-0.526-0.282-1.135-0.282-1.826c0-0.687,0.094-1.311,0.282-1.872s0.454-1.043,0.797-1.444s0.76-0.711,1.249-0.93
			c0.49-0.219,1.037-0.328,1.64-0.328c0.598,0,1.126,0.093,1.585,0.278s0.844,0.444,1.154,0.776s0.545,0.728,0.706,1.187
			S420.041,78.291,420.041,78.839z M417.982,78.548c0.005-0.332-0.036-0.621-0.125-0.867s-0.209-0.449-0.361-0.609
			c-0.152-0.161-0.33-0.28-0.531-0.357c-0.202-0.077-0.419-0.116-0.652-0.116c-0.509,0-0.927,0.17-1.253,0.511
			c-0.327,0.34-0.52,0.82-0.581,1.439H417.982z"/>
		<path d="M432.326,80.084v-1.802h5.163v1.802H432.326z"/>
		<path d="M451.816,75.369v5.868l3.636-5.868h1.378v8.334h-1.444v-5.868l-3.636,5.868h-1.378v-8.334H451.816z"/>
		<path d="M459.378,82.209c0.244,0.066,0.503,0.124,0.78,0.175c0.277,0.049,0.551,0.094,0.822,0.133
			c0.271,0.038,0.533,0.067,0.784,0.087c0.252,0.02,0.478,0.028,0.677,0.028c0.47,0,0.862-0.03,1.175-0.091
			c0.313-0.061,0.562-0.148,0.747-0.262c0.185-0.113,0.316-0.252,0.394-0.415s0.116-0.347,0.116-0.552
			c0-0.199-0.035-0.381-0.104-0.544c-0.069-0.163-0.193-0.306-0.373-0.428c-0.18-0.121-0.425-0.215-0.735-0.281
			s-0.706-0.1-1.187-0.1h-2.042v-1.121h2.034c0.42,0,0.765-0.027,1.034-0.083c0.268-0.056,0.48-0.136,0.635-0.241
			c0.155-0.104,0.26-0.232,0.315-0.381c0.055-0.15,0.083-0.321,0.083-0.516c0-0.188-0.035-0.355-0.104-0.502
			c-0.069-0.146-0.184-0.271-0.345-0.373s-0.374-0.182-0.639-0.236c-0.266-0.056-0.595-0.084-0.988-0.084
			c-0.432,0-0.905,0.031-1.419,0.092s-1.029,0.149-1.544,0.266V75.56c0.227-0.049,0.472-0.097,0.735-0.141
			c0.263-0.044,0.53-0.08,0.801-0.107c0.271-0.028,0.541-0.051,0.81-0.066c0.268-0.018,0.524-0.025,0.768-0.025
			c0.653,0,1.198,0.054,1.635,0.162c0.437,0.107,0.789,0.259,1.054,0.452s0.454,0.423,0.564,0.688s0.166,0.557,0.166,0.872
			c0,0.232-0.033,0.452-0.1,0.66c-0.066,0.207-0.169,0.394-0.307,0.56s-0.314,0.308-0.527,0.424
			c-0.213,0.116-0.469,0.199-0.768,0.249c0.299,0.044,0.576,0.117,0.83,0.22s0.475,0.238,0.66,0.407
			c0.186,0.169,0.332,0.369,0.44,0.602c0.107,0.232,0.162,0.498,0.162,0.797c0,0.365-0.071,0.704-0.211,1.017
			c-0.142,0.313-0.373,0.581-0.693,0.806c-0.321,0.224-0.744,0.399-1.27,0.526c-0.526,0.128-1.17,0.191-1.934,0.191
			c-0.205,0-0.43-0.007-0.677-0.021c-0.246-0.014-0.5-0.033-0.764-0.059c-0.263-0.024-0.521-0.055-0.776-0.091
			s-0.493-0.079-0.714-0.129V82.209z"/>
		<path d="M476.561,83.703h-1.428l-0.216-5.204l-0.091-1.852l-0.49,1.295l-1.561,3.785h-1.054l-1.502-3.636l-0.523-1.444
			l-0.066,1.959l-0.224,5.097h-1.378l0.531-8.334h1.917l1.428,3.595l0.39,1.07l0.39-1.07l1.461-3.595h1.893L476.561,83.703z"/>
		<path d="M485.335,79.097c0,0.204-0.003,0.376-0.008,0.514c-0.005,0.139-0.014,0.269-0.025,0.391h-5.852
			c0,0.853,0.238,1.507,0.714,1.963c0.476,0.457,1.162,0.686,2.059,0.686c0.244,0,0.487-0.01,0.73-0.029s0.479-0.046,0.706-0.079
			s0.444-0.07,0.651-0.112c0.208-0.041,0.4-0.087,0.577-0.137v1.188c-0.393,0.11-0.837,0.2-1.332,0.27
			c-0.496,0.069-1.009,0.104-1.54,0.104c-0.714,0-1.328-0.097-1.843-0.291c-0.515-0.193-0.937-0.474-1.266-0.842
			c-0.33-0.368-0.573-0.819-0.73-1.354c-0.158-0.534-0.237-1.139-0.237-1.813c0-0.587,0.084-1.142,0.253-1.664
			c0.168-0.523,0.415-0.982,0.738-1.378c0.324-0.396,0.721-0.71,1.191-0.942s1.004-0.349,1.602-0.349
			c0.581,0,1.096,0.092,1.544,0.273c0.448,0.184,0.826,0.441,1.133,0.776c0.307,0.335,0.539,0.742,0.697,1.221
			C485.256,77.969,485.335,78.504,485.335,79.097z M483.833,78.889c0.017-0.371-0.02-0.71-0.108-1.017
			c-0.088-0.308-0.226-0.571-0.411-0.793c-0.185-0.222-0.416-0.395-0.693-0.519c-0.277-0.125-0.598-0.187-0.963-0.187
			c-0.315,0-0.603,0.061-0.863,0.182c-0.26,0.122-0.484,0.294-0.672,0.516c-0.188,0.221-0.34,0.486-0.457,0.797
			c-0.116,0.31-0.188,0.649-0.216,1.021H483.833z"/>
		<path d="M494.765,79.387c0,0.741-0.104,1.389-0.312,1.942c-0.207,0.554-0.494,1.013-0.859,1.378s-0.797,0.64-1.295,0.821
			c-0.498,0.184-1.038,0.274-1.619,0.274c-0.266,0-0.53-0.014-0.793-0.042c-0.263-0.027-0.53-0.074-0.801-0.141v3.486h-1.444V75.369
			h1.287l0.091,1.395c0.415-0.57,0.858-0.97,1.328-1.199s0.979-0.345,1.527-0.345c0.476,0,0.894,0.1,1.253,0.299
			s0.661,0.48,0.905,0.843s0.426,0.8,0.548,1.312S494.765,78.756,494.765,79.387z M493.287,79.453c0-0.438-0.032-0.839-0.096-1.204
			c-0.063-0.365-0.165-0.678-0.303-0.938s-0.315-0.464-0.531-0.61s-0.473-0.22-0.772-0.22c-0.183,0-0.368,0.029-0.556,0.087
			c-0.188,0.059-0.383,0.155-0.585,0.291c-0.202,0.136-0.415,0.315-0.64,0.539c-0.224,0.225-0.463,0.503-0.718,0.835v4.042
			c0.266,0.11,0.545,0.198,0.838,0.262s0.581,0.095,0.863,0.095c0.78,0,1.392-0.264,1.834-0.792S493.287,80.516,493.287,79.453z"/>
		<path d="M498.55,75.369v5.868l3.636-5.868h1.378v8.334h-1.444v-5.868l-3.636,5.868h-1.378v-8.334H498.55z"/>
		<path d="M513.947,83.703h-1.428l-0.215-5.204l-0.092-1.852l-0.49,1.295l-1.561,3.785h-1.054l-1.503-3.636l-0.522-1.444
			l-0.066,1.959l-0.224,5.097h-1.379l0.531-8.334h1.918l1.428,3.595l0.391,1.07l0.39-1.07l1.461-3.595h1.893L513.947,83.703z"/>
		<path d="M516.463,78.59c0.199-0.006,0.386-0.01,0.561-0.013c0.174-0.003,0.355-0.004,0.543-0.004c0.521,0,0.976,0.063,1.366,0.187
			c0.39,0.125,0.715,0.299,0.976,0.523c0.26,0.224,0.453,0.492,0.58,0.805c0.128,0.313,0.191,0.651,0.191,1.017
			c0,0.443-0.074,0.832-0.225,1.167c-0.148,0.335-0.361,0.615-0.639,0.843c-0.277,0.227-0.615,0.398-1.017,0.514
			c-0.401,0.117-0.879,0.175-1.433,0.175c-0.354,0-0.729-0.01-1.124-0.029s-0.798-0.06-1.208-0.12v-8.284h1.428V78.59z
			 M519.186,81.146c0-0.438-0.137-0.776-0.411-1.017c-0.273-0.241-0.71-0.361-1.308-0.361c-0.16,0-0.323,0.003-0.489,0.008
			c-0.166,0.006-0.337,0.015-0.515,0.025v2.739c0.178,0.027,0.346,0.046,0.506,0.054c0.161,0.009,0.321,0.013,0.482,0.013
			c0.337,0,0.617-0.04,0.838-0.12s0.396-0.188,0.527-0.32c0.13-0.133,0.224-0.287,0.282-0.465
			C519.156,81.525,519.186,81.34,519.186,81.146z M521.593,83.703v-8.334h1.428v8.334H521.593z"/>
		<path d="M526.59,75.369v5.868l3.636-5.868h1.378v8.334h-1.444v-5.868l-3.636,5.868h-1.378v-8.334H526.59z M530.923,72.157
			c0,0.326-0.063,0.616-0.187,0.871c-0.125,0.255-0.299,0.472-0.523,0.651c-0.224,0.18-0.494,0.317-0.809,0.411
			c-0.316,0.094-0.664,0.141-1.047,0.141c-0.442,0-0.821-0.047-1.137-0.141s-0.574-0.231-0.776-0.411s-0.35-0.396-0.444-0.651
			c-0.094-0.255-0.141-0.545-0.141-0.871h1.312c0,0.16,0.02,0.31,0.058,0.447c0.039,0.139,0.104,0.262,0.195,0.37
			c0.092,0.107,0.215,0.192,0.369,0.253c0.155,0.061,0.35,0.092,0.582,0.092c0.237,0,0.436-0.031,0.593-0.092
			c0.158-0.061,0.284-0.146,0.378-0.253c0.094-0.108,0.16-0.231,0.199-0.37c0.039-0.138,0.059-0.287,0.059-0.447H530.923z"/>
	</g>
	<g>
		<path d="M334.477,125.703l-0.598-2.142h-3.785l-0.614,2.142h-2.025l3.212-10.849h2.855l3.212,10.849H334.477z M332.011,116.847
			l-1.428,5.047h2.839L332.011,116.847z"/>
		<path d="M344.745,125.38c-0.398,0.16-0.811,0.279-1.237,0.356s-0.872,0.116-1.336,0.116c-0.669,0-1.27-0.092-1.801-0.273
			c-0.531-0.184-0.982-0.454-1.353-0.814c-0.371-0.359-0.654-0.805-0.851-1.336c-0.196-0.531-0.294-1.146-0.294-1.843
			c0-0.675,0.106-1.286,0.32-1.835c0.213-0.547,0.513-1.015,0.9-1.402s0.854-0.687,1.398-0.896c0.545-0.21,1.153-0.315,1.822-0.315
			c0.548,0,1.009,0.029,1.382,0.087c0.374,0.059,0.71,0.132,1.009,0.221v1.967c-0.343-0.172-0.715-0.305-1.116-0.398
			c-0.401-0.094-0.782-0.141-1.142-0.141c-0.376,0-0.714,0.063-1.013,0.19s-0.551,0.305-0.755,0.531s-0.361,0.502-0.469,0.826
			c-0.107,0.323-0.162,0.679-0.162,1.066c0,0.404,0.058,0.767,0.174,1.087c0.116,0.321,0.281,0.594,0.494,0.818
			c0.213,0.224,0.469,0.396,0.768,0.515s0.631,0.179,0.996,0.179c0.177,0,0.364-0.013,0.561-0.038
			c0.196-0.024,0.393-0.061,0.589-0.107c0.197-0.047,0.391-0.102,0.581-0.162c0.191-0.061,0.37-0.127,0.536-0.199V125.38z"/>
		<path d="M352.298,125.703v-5.495c0-0.924-0.343-1.387-1.029-1.387c-0.343,0-0.671,0.139-0.984,0.416
			c-0.313,0.276-0.643,0.652-0.992,1.129v5.337h-2.025v-11.729h2.025v2.889l-0.1,1.527c0.171-0.204,0.346-0.389,0.523-0.552
			s0.368-0.3,0.573-0.411c0.205-0.11,0.426-0.194,0.664-0.253c0.238-0.058,0.501-0.087,0.789-0.087c0.432,0,0.808,0.07,1.129,0.212
			c0.321,0.141,0.589,0.34,0.805,0.598c0.216,0.257,0.377,0.567,0.486,0.93c0.107,0.362,0.162,0.768,0.162,1.216v5.661H352.298z"/>
		<path d="M359.337,118.847h-2.382v-1.577h4.458v6.856h2.432v1.577h-7.18v-1.577h2.673V118.847z M361.579,114.962
			c0,0.183-0.033,0.354-0.1,0.515s-0.159,0.3-0.278,0.419c-0.119,0.119-0.259,0.213-0.419,0.282s-0.335,0.104-0.523,0.104
			s-0.364-0.035-0.527-0.104c-0.163-0.069-0.304-0.163-0.423-0.282c-0.119-0.119-0.212-0.259-0.278-0.419s-0.1-0.332-0.1-0.515
			s0.033-0.354,0.1-0.515s0.159-0.302,0.278-0.423c0.119-0.122,0.26-0.218,0.423-0.287c0.164-0.069,0.339-0.104,0.527-0.104
			s0.362,0.034,0.523,0.104s0.3,0.165,0.419,0.287c0.119,0.121,0.211,0.263,0.278,0.423S361.579,114.779,361.579,114.962z"/>
		<path d="M373.308,120.839c0,0.139-0.004,0.318-0.013,0.539c-0.008,0.222-0.021,0.43-0.037,0.623h-5.545
			c0,0.371,0.057,0.697,0.17,0.979c0.114,0.282,0.274,0.519,0.481,0.71c0.208,0.19,0.457,0.336,0.747,0.436
			c0.291,0.1,0.613,0.149,0.967,0.149c0.41,0,0.848-0.032,1.316-0.096c0.467-0.063,0.953-0.167,1.457-0.312v1.611
			c-0.216,0.061-0.451,0.115-0.706,0.166c-0.254,0.049-0.515,0.094-0.78,0.133c-0.266,0.038-0.534,0.067-0.805,0.087
			s-0.534,0.028-0.789,0.028c-0.642,0-1.217-0.091-1.727-0.273s-0.941-0.452-1.295-0.81c-0.354-0.356-0.625-0.798-0.813-1.323
			c-0.188-0.526-0.282-1.135-0.282-1.826c0-0.687,0.094-1.311,0.282-1.872s0.454-1.043,0.797-1.444s0.76-0.711,1.249-0.93
			c0.49-0.219,1.037-0.328,1.64-0.328c0.598,0,1.126,0.093,1.585,0.278s0.844,0.444,1.154,0.776s0.545,0.728,0.706,1.187
			S373.308,120.291,373.308,120.839z M371.249,120.548c0.005-0.332-0.036-0.621-0.125-0.867s-0.209-0.449-0.361-0.609
			c-0.152-0.161-0.33-0.28-0.531-0.357c-0.202-0.077-0.419-0.116-0.652-0.116c-0.509,0-0.927,0.17-1.253,0.511
			c-0.327,0.34-0.52,0.82-0.581,1.439H371.249z"/>
		<path d="M380.023,125.703h-2.333l-3.345-8.434h2.258l1.751,4.781l0.523,1.544l0.515-1.478l1.768-4.848h2.175L380.023,125.703z"/>
		<path d="M389.942,125.703l-0.05-1.104c-0.177,0.188-0.362,0.361-0.556,0.52c-0.194,0.157-0.407,0.295-0.639,0.41
			c-0.232,0.117-0.485,0.207-0.76,0.271c-0.273,0.063-0.574,0.095-0.9,0.095c-0.432,0-0.811-0.063-1.137-0.19
			s-0.601-0.305-0.822-0.531s-0.389-0.501-0.502-0.821c-0.114-0.321-0.17-0.676-0.17-1.063c0-0.398,0.084-0.767,0.253-1.104
			c0.168-0.338,0.426-0.628,0.771-0.872c0.346-0.243,0.778-0.434,1.295-0.572c0.518-0.139,1.125-0.207,1.822-0.207h1.104v-0.507
			c0-0.216-0.03-0.411-0.091-0.585c-0.061-0.175-0.159-0.322-0.295-0.444c-0.135-0.122-0.311-0.216-0.527-0.282
			s-0.481-0.1-0.797-0.1c-0.498,0-0.989,0.057-1.473,0.17c-0.484,0.113-0.954,0.272-1.407,0.478v-1.618
			c0.404-0.161,0.87-0.294,1.398-0.398c0.529-0.105,1.078-0.158,1.648-0.158c0.625,0,1.162,0.06,1.61,0.179s0.818,0.297,1.108,0.535
			c0.291,0.238,0.505,0.535,0.644,0.893c0.138,0.356,0.208,0.773,0.208,1.249v5.761H389.942z M389.652,121.976h-1.237
			c-0.343,0-0.634,0.033-0.872,0.1s-0.432,0.158-0.581,0.274s-0.259,0.25-0.328,0.402c-0.069,0.152-0.104,0.314-0.104,0.485
			c0,0.344,0.111,0.605,0.332,0.785s0.523,0.27,0.905,0.27c0.282,0,0.576-0.103,0.88-0.307c0.304-0.205,0.639-0.498,1.004-0.881
			V121.976z"/>
		<path d="M401.588,121.337c0,0.774-0.109,1.444-0.328,2.009c-0.219,0.564-0.523,1.033-0.913,1.407
			c-0.391,0.373-0.851,0.65-1.382,0.83s-1.109,0.27-1.735,0.27c-0.614,0-1.186-0.046-1.714-0.137
			c-0.529-0.092-1.034-0.215-1.515-0.369v-11.373h2.025v2.756l-0.083,1.66c0.304-0.393,0.66-0.708,1.067-0.945
			c0.406-0.238,0.895-0.357,1.465-0.357c0.498,0,0.941,0.1,1.328,0.299s0.712,0.482,0.976,0.851
			c0.263,0.368,0.463,0.813,0.602,1.337C401.519,120.096,401.588,120.684,401.588,121.337z M399.463,121.42
			c0-0.465-0.033-0.86-0.1-1.187c-0.066-0.327-0.162-0.596-0.287-0.806c-0.124-0.21-0.276-0.364-0.456-0.461
			c-0.18-0.097-0.386-0.146-0.619-0.146c-0.343,0-0.671,0.139-0.984,0.416c-0.313,0.276-0.643,0.652-0.992,1.129v3.686
			c0.161,0.061,0.358,0.11,0.593,0.148c0.235,0.039,0.475,0.059,0.718,0.059c0.321,0,0.613-0.066,0.875-0.199
			c0.263-0.133,0.487-0.321,0.673-0.564c0.185-0.243,0.328-0.541,0.427-0.893S399.463,121.857,399.463,121.42z"/>
		<path d="M406.071,115.552h-2.382v-1.578h4.458v10.152h2.432v1.577h-7.18v-1.577h2.673V115.552z"/>
		<path d="M420.041,120.839c0,0.139-0.004,0.318-0.013,0.539c-0.008,0.222-0.021,0.43-0.037,0.623h-5.545
			c0,0.371,0.057,0.697,0.17,0.979c0.114,0.282,0.274,0.519,0.481,0.71c0.208,0.19,0.457,0.336,0.747,0.436
			c0.291,0.1,0.613,0.149,0.967,0.149c0.41,0,0.848-0.032,1.316-0.096c0.467-0.063,0.953-0.167,1.457-0.312v1.611
			c-0.216,0.061-0.451,0.115-0.706,0.166c-0.254,0.049-0.515,0.094-0.78,0.133c-0.266,0.038-0.534,0.067-0.805,0.087
			s-0.534,0.028-0.789,0.028c-0.642,0-1.217-0.091-1.727-0.273s-0.941-0.452-1.295-0.81c-0.354-0.356-0.625-0.798-0.813-1.323
			c-0.188-0.526-0.282-1.135-0.282-1.826c0-0.687,0.094-1.311,0.282-1.872s0.454-1.043,0.797-1.444s0.76-0.711,1.249-0.93
			c0.49-0.219,1.037-0.328,1.64-0.328c0.598,0,1.126,0.093,1.585,0.278s0.844,0.444,1.154,0.776s0.545,0.728,0.706,1.187
			S420.041,120.291,420.041,120.839z M417.982,120.548c0.005-0.332-0.036-0.621-0.125-0.867s-0.209-0.449-0.361-0.609
			c-0.152-0.161-0.33-0.28-0.531-0.357c-0.202-0.077-0.419-0.116-0.652-0.116c-0.509,0-0.927,0.17-1.253,0.511
			c-0.327,0.34-0.52,0.82-0.581,1.439H417.982z"/>
		<path d="M432.326,122.084v-1.802h5.163v1.802H432.326z"/>
		<path d="M457.992,124.458l-0.091,3.37h-1.32v-2.125h-6.076v2.125h-1.303l-0.083-3.37h0.116c0.21,0,0.41-0.033,0.598-0.1
			s0.362-0.192,0.523-0.378s0.309-0.442,0.444-0.771c0.135-0.329,0.257-0.756,0.365-1.278c0.107-0.523,0.202-1.158,0.282-1.905
			c0.08-0.747,0.148-1.633,0.203-2.656h5.146v7.089H457.992z M455.353,118.614h-2.324c-0.055,0.952-0.127,1.763-0.216,2.432
			c-0.088,0.67-0.192,1.231-0.312,1.686c-0.119,0.454-0.256,0.816-0.411,1.088c-0.155,0.271-0.327,0.483-0.515,0.639h3.777V118.614z
			"/>
		<path d="M466.857,121.47c0,0.647-0.091,1.241-0.274,1.78c-0.183,0.54-0.445,1.002-0.789,1.387s-0.761,0.684-1.253,0.896
			s-1.051,0.319-1.677,0.319c-0.598,0-1.133-0.093-1.606-0.278c-0.474-0.186-0.875-0.458-1.204-0.817
			c-0.329-0.359-0.581-0.805-0.755-1.336c-0.175-0.531-0.262-1.144-0.262-1.835c0-0.647,0.091-1.238,0.274-1.772
			s0.445-0.993,0.789-1.378s0.761-0.684,1.253-0.896s1.051-0.319,1.677-0.319c0.598,0,1.133,0.093,1.606,0.278
			c0.474,0.186,0.875,0.456,1.204,0.813c0.329,0.356,0.581,0.801,0.755,1.332C466.771,120.175,466.857,120.783,466.857,121.47z
			 M465.38,121.536c0-0.515-0.057-0.964-0.17-1.349c-0.114-0.385-0.275-0.706-0.486-0.963c-0.21-0.258-0.466-0.451-0.768-0.581
			c-0.301-0.13-0.638-0.195-1.008-0.195c-0.432,0-0.801,0.084-1.108,0.253c-0.308,0.169-0.559,0.395-0.756,0.677
			c-0.196,0.282-0.34,0.61-0.432,0.983c-0.091,0.374-0.137,0.766-0.137,1.175c0,0.515,0.057,0.966,0.17,1.354
			c0.114,0.387,0.275,0.709,0.486,0.967c0.21,0.257,0.465,0.451,0.764,0.581s0.636,0.194,1.013,0.194
			c0.432,0,0.801-0.084,1.108-0.253c0.308-0.169,0.559-0.394,0.756-0.677c0.196-0.281,0.34-0.609,0.432-0.983
			C465.334,122.346,465.38,121.951,465.38,121.536z"/>
		<path d="M475.424,125.396c-0.376,0.145-0.762,0.251-1.158,0.32c-0.396,0.069-0.804,0.104-1.224,0.104
			c-1.317,0-2.331-0.357-3.042-1.07c-0.711-0.715-1.066-1.758-1.066-3.13c0-0.658,0.103-1.256,0.307-1.793s0.493-0.996,0.863-1.378
			s0.813-0.677,1.328-0.884c0.515-0.208,1.082-0.312,1.702-0.312c0.432,0,0.835,0.03,1.212,0.092
			c0.376,0.061,0.736,0.16,1.079,0.299v1.377c-0.36-0.188-0.727-0.324-1.1-0.41c-0.374-0.086-0.76-0.129-1.158-0.129
			c-0.371,0-0.721,0.07-1.05,0.212c-0.33,0.141-0.619,0.345-0.868,0.61s-0.445,0.589-0.589,0.971s-0.216,0.813-0.216,1.295
			c0,1.007,0.245,1.761,0.734,2.262c0.49,0.501,1.169,0.752,2.038,0.752c0.393,0,0.773-0.045,1.142-0.133
			c0.368-0.089,0.723-0.222,1.066-0.398V125.396z"/>
		<path d="M485.534,118.614h-3.163v7.089h-1.461v-7.089h-3.163v-1.245h7.786V118.614z"/>
		<path d="M489.203,117.369v5.868l3.636-5.868h1.378v8.334h-1.444v-5.868l-3.636,5.868h-1.378v-8.334H489.203z"/>
		<path d="M495.711,117.369h1.428l2.531,4.018v-4.018h1.328v4.018l2.532-4.018h1.428l-2.681,4.018l2.747,4.316h-1.577l-2.449-4.233
			v4.233h-1.328v-4.233l-2.448,4.233h-1.577l2.756-4.316L495.711,117.369z"/>
		<path d="M507.896,117.369v5.868l3.636-5.868h1.378v8.334h-1.444v-5.868l-3.636,5.868h-1.378v-8.334H507.896z"/>
		<path d="M523.295,125.703h-1.428l-0.217-5.204l-0.091-1.852l-0.489,1.295l-1.561,3.785h-1.055l-1.502-3.636l-0.523-1.444
			l-0.066,1.959l-0.225,5.097h-1.377l0.531-8.334h1.917l1.428,3.595l0.39,1.07l0.391-1.07l1.461-3.595h1.893L523.295,125.703z"/>
		<path d="M525.81,120.59c0.199-0.006,0.386-0.01,0.561-0.013c0.174-0.003,0.355-0.004,0.544-0.004c0.52,0,0.975,0.063,1.365,0.187
			c0.39,0.125,0.715,0.299,0.975,0.523c0.261,0.224,0.454,0.492,0.582,0.805c0.127,0.313,0.19,0.651,0.19,1.017
			c0,0.443-0.075,0.832-0.224,1.167c-0.15,0.335-0.363,0.615-0.64,0.843c-0.276,0.227-0.616,0.398-1.017,0.514
			c-0.401,0.117-0.879,0.175-1.432,0.175c-0.354,0-0.729-0.01-1.125-0.029c-0.396-0.02-0.799-0.06-1.208-0.12v-8.284h1.428V120.59z
			 M528.532,123.146c0-0.438-0.137-0.776-0.411-1.017c-0.273-0.241-0.709-0.361-1.307-0.361c-0.161,0-0.324,0.003-0.49,0.008
			c-0.166,0.006-0.338,0.015-0.515,0.025v2.739c0.177,0.027,0.346,0.046,0.507,0.054c0.16,0.009,0.32,0.013,0.48,0.013
			c0.338,0,0.617-0.04,0.839-0.12s0.397-0.188,0.527-0.32s0.224-0.287,0.282-0.465C528.503,123.525,528.532,123.34,528.532,123.146z
			 M530.939,125.703v-8.334h1.428v8.334H530.939z"/>
		<path d="M535.937,117.369v5.868l3.636-5.868h1.378v8.334h-1.444v-5.868l-3.636,5.868h-1.378v-8.334H535.937z M540.27,114.157
			c0,0.326-0.063,0.616-0.187,0.871c-0.125,0.255-0.299,0.472-0.523,0.651c-0.224,0.18-0.493,0.317-0.81,0.411
			c-0.314,0.094-0.664,0.141-1.045,0.141c-0.443,0-0.822-0.047-1.138-0.141s-0.574-0.231-0.776-0.411
			c-0.201-0.18-0.35-0.396-0.443-0.651c-0.095-0.255-0.142-0.545-0.142-0.871h1.312c0,0.16,0.02,0.31,0.059,0.447
			c0.038,0.139,0.104,0.262,0.194,0.37c0.092,0.107,0.215,0.192,0.37,0.253c0.154,0.061,0.348,0.092,0.58,0.092
			c0.238,0,0.437-0.031,0.594-0.092c0.158-0.061,0.283-0.146,0.378-0.253c0.095-0.108,0.161-0.231,0.199-0.37
			c0.038-0.138,0.058-0.287,0.058-0.447H540.27z"/>
	</g>
	<g>
		<path d="M333.962,168.703l-1.527-3.486c-0.144-0.332-0.345-0.582-0.602-0.751c-0.258-0.169-0.561-0.254-0.909-0.254h-0.39v4.491
			h-2.042v-10.849h3.163c0.598,0,1.14,0.051,1.627,0.153s0.902,0.272,1.245,0.511c0.343,0.237,0.607,0.547,0.793,0.93
			c0.185,0.381,0.278,0.849,0.278,1.402c0,0.398-0.058,0.753-0.174,1.063s-0.279,0.577-0.49,0.801
			c-0.21,0.225-0.46,0.405-0.751,0.544c-0.29,0.139-0.607,0.235-0.95,0.29c0.266,0.056,0.509,0.207,0.73,0.453
			s0.443,0.602,0.664,1.066l1.735,3.636H333.962z M333.456,161.05c0-0.531-0.169-0.913-0.506-1.146s-0.844-0.349-1.519-0.349h-0.896
			v3.063h0.83c0.315,0,0.602-0.033,0.859-0.1c0.258-0.066,0.478-0.166,0.66-0.299s0.324-0.297,0.423-0.493
			S333.456,161.305,333.456,161.05z"/>
		<path d="M345.268,163.839c0,0.139-0.004,0.318-0.013,0.539c-0.008,0.222-0.021,0.43-0.037,0.623h-5.545
			c0,0.371,0.057,0.697,0.17,0.979c0.114,0.282,0.274,0.519,0.481,0.71c0.208,0.19,0.457,0.336,0.747,0.436
			c0.291,0.1,0.613,0.149,0.967,0.149c0.41,0,0.848-0.032,1.316-0.096c0.467-0.063,0.953-0.167,1.457-0.312v1.611
			c-0.216,0.061-0.451,0.115-0.706,0.166c-0.254,0.049-0.515,0.094-0.78,0.133c-0.266,0.038-0.534,0.067-0.805,0.087
			s-0.534,0.028-0.789,0.028c-0.642,0-1.217-0.091-1.727-0.273s-0.941-0.452-1.295-0.81c-0.354-0.356-0.625-0.798-0.813-1.323
			c-0.188-0.526-0.282-1.135-0.282-1.826c0-0.687,0.094-1.311,0.282-1.872s0.454-1.043,0.797-1.444s0.76-0.711,1.249-0.93
			c0.49-0.219,1.037-0.328,1.64-0.328c0.598,0,1.126,0.093,1.585,0.278s0.844,0.444,1.154,0.776s0.545,0.728,0.706,1.187
			S345.268,163.291,345.268,163.839z M343.209,163.548c0.005-0.332-0.036-0.621-0.125-0.867s-0.209-0.449-0.361-0.609
			c-0.152-0.161-0.33-0.28-0.531-0.357c-0.202-0.077-0.419-0.116-0.652-0.116c-0.509,0-0.927,0.17-1.253,0.511
			c-0.327,0.34-0.52,0.82-0.581,1.439H343.209z"/>
		<path d="M352.556,168.703l-0.05-1.104c-0.177,0.188-0.362,0.361-0.556,0.52c-0.194,0.157-0.407,0.295-0.639,0.41
			c-0.232,0.117-0.485,0.207-0.76,0.271c-0.273,0.063-0.574,0.095-0.9,0.095c-0.432,0-0.811-0.063-1.137-0.19
			s-0.601-0.305-0.822-0.531s-0.389-0.501-0.502-0.821c-0.114-0.321-0.17-0.676-0.17-1.063c0-0.398,0.084-0.767,0.253-1.104
			c0.168-0.338,0.426-0.628,0.771-0.872c0.346-0.243,0.778-0.434,1.295-0.572c0.518-0.139,1.125-0.207,1.822-0.207h1.104v-0.507
			c0-0.216-0.03-0.411-0.091-0.585c-0.061-0.175-0.159-0.322-0.295-0.444c-0.135-0.122-0.311-0.216-0.527-0.282
			s-0.481-0.1-0.797-0.1c-0.498,0-0.989,0.057-1.473,0.17c-0.484,0.113-0.954,0.272-1.407,0.478v-1.618
			c0.404-0.161,0.87-0.294,1.398-0.398c0.529-0.105,1.078-0.158,1.648-0.158c0.625,0,1.162,0.06,1.61,0.179s0.818,0.297,1.108,0.535
			c0.291,0.238,0.505,0.535,0.644,0.893c0.138,0.356,0.208,0.773,0.208,1.249v5.761H352.556z M352.265,164.976h-1.237
			c-0.343,0-0.634,0.033-0.872,0.1s-0.432,0.158-0.581,0.274s-0.259,0.25-0.328,0.402c-0.069,0.152-0.104,0.314-0.104,0.485
			c0,0.344,0.111,0.605,0.332,0.785s0.523,0.27,0.905,0.27c0.282,0,0.576-0.103,0.88-0.307c0.304-0.205,0.639-0.498,1.004-0.881
			V164.976z"/>
		<path d="M359.337,158.552h-2.382v-1.578h4.458v10.152h2.432v1.577h-7.18v-1.577h2.673V158.552z"/>
		<path d="M368.684,161.847h-2.382v-1.577h4.458v6.856h2.432v1.577h-7.18v-1.577h2.673V161.847z M370.925,157.962
			c0,0.183-0.033,0.354-0.1,0.515s-0.159,0.3-0.278,0.419c-0.119,0.119-0.259,0.213-0.419,0.282s-0.335,0.104-0.523,0.104
			s-0.364-0.035-0.527-0.104c-0.163-0.069-0.304-0.163-0.423-0.282c-0.119-0.119-0.212-0.259-0.278-0.419s-0.1-0.332-0.1-0.515
			s0.033-0.354,0.1-0.515s0.159-0.302,0.278-0.423c0.119-0.122,0.26-0.218,0.423-0.287c0.164-0.069,0.339-0.104,0.527-0.104
			s0.362,0.034,0.523,0.104s0.3,0.165,0.419,0.287c0.119,0.121,0.211,0.263,0.278,0.423S370.925,157.779,370.925,157.962z"/>
		<path d="M382.264,166.222c0,0.48-0.106,0.892-0.32,1.232c-0.213,0.34-0.495,0.617-0.847,0.83c-0.351,0.213-0.75,0.368-1.195,0.465
			c-0.445,0.097-0.9,0.145-1.365,0.145c-0.62,0-1.179-0.028-1.677-0.087c-0.498-0.058-0.968-0.143-1.411-0.253v-1.826
			c0.52,0.216,1.039,0.372,1.557,0.469c0.517,0.097,1.005,0.146,1.465,0.146c0.531,0,0.928-0.084,1.191-0.253
			c0.263-0.169,0.394-0.389,0.394-0.66c0-0.127-0.028-0.243-0.083-0.349s-0.159-0.206-0.311-0.303
			c-0.152-0.097-0.367-0.196-0.644-0.299s-0.639-0.218-1.087-0.345c-0.415-0.116-0.779-0.248-1.091-0.395
			c-0.313-0.146-0.572-0.319-0.776-0.519s-0.358-0.431-0.461-0.693c-0.102-0.263-0.153-0.571-0.153-0.925
			c0-0.344,0.078-0.667,0.232-0.972s0.386-0.571,0.693-0.801c0.307-0.229,0.69-0.411,1.149-0.544s0.996-0.199,1.61-0.199
			c0.531,0,1.001,0.027,1.411,0.083s0.772,0.116,1.087,0.183v1.652c-0.481-0.155-0.934-0.265-1.357-0.328
			c-0.424-0.063-0.843-0.096-1.258-0.096s-0.749,0.074-1,0.225c-0.252,0.148-0.378,0.356-0.378,0.622
			c0,0.127,0.025,0.241,0.075,0.341s0.148,0.196,0.294,0.29c0.147,0.094,0.352,0.192,0.614,0.295
			c0.263,0.103,0.61,0.214,1.042,0.336c0.487,0.139,0.896,0.286,1.229,0.444c0.332,0.157,0.599,0.336,0.801,0.535
			c0.202,0.199,0.348,0.426,0.436,0.681S382.264,165.895,382.264,166.222z"/>
		<path d="M391.611,168.62c-0.365,0.083-0.733,0.149-1.104,0.199s-0.722,0.074-1.054,0.074c-0.553,0-1.031-0.058-1.432-0.174
			c-0.401-0.116-0.733-0.293-0.996-0.531c-0.263-0.238-0.456-0.541-0.581-0.909c-0.124-0.368-0.187-0.807-0.187-1.315v-4.117h-2.266
			v-1.577h2.266v-2.158l2.075-0.54v2.698h3.279v1.577h-3.279v3.968c0,0.481,0.111,0.846,0.332,1.092s0.592,0.369,1.112,0.369
			c0.332,0,0.656-0.027,0.971-0.083s0.603-0.119,0.863-0.191V168.62z"/>
		<path d="M396.724,161.847h-2.382v-1.577h4.458v6.856h2.432v1.577h-7.18v-1.577h2.673V161.847z M398.965,157.962
			c0,0.183-0.033,0.354-0.1,0.515s-0.159,0.3-0.278,0.419c-0.119,0.119-0.259,0.213-0.419,0.282s-0.335,0.104-0.523,0.104
			s-0.364-0.035-0.527-0.104c-0.163-0.069-0.304-0.163-0.423-0.282c-0.119-0.119-0.212-0.259-0.278-0.419s-0.1-0.332-0.1-0.515
			s0.033-0.354,0.1-0.515s0.159-0.302,0.278-0.423c0.119-0.122,0.26-0.218,0.423-0.287c0.164-0.069,0.339-0.104,0.527-0.104
			s0.362,0.034,0.523,0.104s0.3,0.165,0.419,0.287c0.119,0.121,0.211,0.263,0.278,0.423S398.965,157.779,398.965,157.962z"/>
		<path d="M410.171,168.38c-0.398,0.16-0.811,0.279-1.237,0.356s-0.872,0.116-1.336,0.116c-0.669,0-1.27-0.092-1.801-0.273
			c-0.531-0.184-0.982-0.454-1.353-0.814c-0.371-0.359-0.654-0.805-0.851-1.336c-0.196-0.531-0.294-1.146-0.294-1.843
			c0-0.675,0.106-1.286,0.32-1.835c0.213-0.547,0.513-1.015,0.9-1.402s0.854-0.687,1.398-0.896c0.545-0.21,1.153-0.315,1.822-0.315
			c0.548,0,1.009,0.029,1.382,0.087c0.374,0.059,0.71,0.132,1.009,0.221v1.967c-0.343-0.172-0.715-0.305-1.116-0.398
			c-0.401-0.094-0.782-0.141-1.142-0.141c-0.376,0-0.714,0.063-1.013,0.19s-0.551,0.305-0.755,0.531s-0.361,0.502-0.469,0.826
			c-0.107,0.323-0.162,0.679-0.162,1.066c0,0.404,0.058,0.767,0.174,1.087c0.116,0.321,0.281,0.594,0.494,0.818
			c0.213,0.224,0.469,0.396,0.768,0.515s0.631,0.179,0.996,0.179c0.177,0,0.364-0.013,0.561-0.038
			c0.196-0.024,0.393-0.061,0.589-0.107c0.197-0.047,0.391-0.102,0.581-0.162c0.191-0.061,0.37-0.127,0.536-0.199V168.38z"/>
		<path d="M422.979,165.084v-1.802h5.163v1.802H422.979z"/>
		<path d="M448.031,164.387c0,0.741-0.104,1.389-0.312,1.942c-0.207,0.554-0.494,1.013-0.859,1.378s-0.797,0.64-1.295,0.821
			c-0.498,0.184-1.038,0.274-1.619,0.274c-0.266,0-0.53-0.014-0.793-0.042c-0.263-0.027-0.53-0.074-0.801-0.141v3.486h-1.444
			v-11.737h1.287l0.091,1.395c0.415-0.57,0.858-0.97,1.328-1.199s0.979-0.345,1.527-0.345c0.476,0,0.894,0.1,1.253,0.299
			s0.661,0.48,0.905,0.843s0.426,0.8,0.548,1.312S448.031,163.756,448.031,164.387z M446.554,164.453
			c0-0.438-0.032-0.839-0.096-1.204c-0.063-0.365-0.165-0.678-0.303-0.938s-0.315-0.464-0.531-0.61s-0.473-0.22-0.772-0.22
			c-0.183,0-0.368,0.029-0.556,0.087c-0.188,0.059-0.383,0.155-0.585,0.291c-0.202,0.136-0.415,0.315-0.64,0.539
			c-0.224,0.225-0.463,0.503-0.718,0.835v4.042c0.266,0.11,0.545,0.198,0.838,0.262s0.581,0.095,0.863,0.095
			c0.78,0,1.392-0.264,1.834-0.792S446.554,165.516,446.554,164.453z"/>
		<path d="M457.295,164.097c0,0.204-0.003,0.376-0.008,0.514c-0.005,0.139-0.014,0.269-0.025,0.391h-5.852
			c0,0.853,0.238,1.507,0.714,1.963c0.476,0.457,1.162,0.686,2.059,0.686c0.244,0,0.487-0.01,0.73-0.029s0.479-0.046,0.706-0.079
			s0.444-0.07,0.651-0.112c0.208-0.041,0.4-0.087,0.577-0.137v1.188c-0.393,0.11-0.837,0.2-1.332,0.27
			c-0.496,0.069-1.009,0.104-1.54,0.104c-0.714,0-1.328-0.097-1.843-0.291c-0.515-0.193-0.937-0.474-1.266-0.842
			c-0.33-0.368-0.573-0.819-0.73-1.354c-0.158-0.534-0.237-1.139-0.237-1.813c0-0.587,0.084-1.142,0.253-1.664
			c0.168-0.523,0.415-0.982,0.738-1.378c0.324-0.396,0.721-0.71,1.191-0.942s1.004-0.349,1.602-0.349
			c0.581,0,1.096,0.092,1.544,0.273c0.448,0.184,0.826,0.441,1.133,0.776c0.307,0.335,0.539,0.742,0.697,1.221
			C457.216,162.969,457.295,163.504,457.295,164.097z M455.792,163.889c0.017-0.371-0.02-0.71-0.108-1.017
			c-0.088-0.308-0.226-0.571-0.411-0.793c-0.185-0.222-0.416-0.395-0.693-0.519c-0.277-0.125-0.598-0.187-0.963-0.187
			c-0.315,0-0.603,0.061-0.863,0.182c-0.26,0.122-0.484,0.294-0.672,0.516c-0.188,0.221-0.34,0.486-0.457,0.797
			c-0.116,0.31-0.188,0.649-0.216,1.021H455.792z"/>
		<path d="M464.957,168.703l-0.033-1.12c-0.454,0.447-0.915,0.771-1.382,0.971c-0.467,0.199-0.958,0.299-1.473,0.299
			c-0.476,0-0.883-0.061-1.22-0.183s-0.616-0.289-0.834-0.502c-0.219-0.213-0.379-0.464-0.481-0.751
			c-0.103-0.288-0.154-0.601-0.154-0.938c0-0.836,0.311-1.49,0.934-1.963c0.622-0.474,1.542-0.71,2.76-0.71h1.727v-0.73
			c0-0.492-0.158-0.887-0.473-1.183s-0.797-0.444-1.444-0.444c-0.47,0-0.934,0.053-1.39,0.158c-0.457,0.104-0.929,0.254-1.416,0.447
			v-1.303c0.183-0.066,0.386-0.132,0.61-0.195c0.225-0.063,0.461-0.12,0.71-0.17s0.509-0.09,0.78-0.12s0.545-0.046,0.822-0.046
			c0.503,0,0.958,0.056,1.361,0.166s0.746,0.279,1.025,0.506c0.28,0.228,0.494,0.513,0.644,0.855s0.224,0.747,0.224,1.212v5.744
			H464.957z M464.799,164.909h-1.834c-0.36,0-0.669,0.036-0.93,0.108s-0.473,0.175-0.639,0.308s-0.289,0.291-0.369,0.477
			c-0.081,0.186-0.121,0.395-0.121,0.627c0,0.16,0.025,0.314,0.075,0.461s0.13,0.276,0.241,0.39s0.254,0.204,0.432,0.271
			s0.393,0.1,0.647,0.1c0.332,0,0.712-0.102,1.141-0.304c0.429-0.202,0.881-0.521,1.357-0.958V164.909z"/>
		<path d="M475.573,168.703h-1.444v-7.089h-2.324c-0.066,1.14-0.165,2.117-0.295,2.93c-0.13,0.814-0.286,1.493-0.469,2.038
			s-0.39,0.975-0.623,1.287s-0.483,0.539-0.751,0.681c-0.268,0.141-0.552,0.21-0.851,0.207s-0.606-0.043-0.921-0.12l0.066-1.195
			c0.221,0.022,0.429,0.011,0.623-0.033s0.374-0.15,0.54-0.319s0.317-0.412,0.453-0.73c0.135-0.318,0.258-0.743,0.369-1.274
			s0.206-1.183,0.286-1.955c0.081-0.771,0.146-1.691,0.195-2.76h5.146V168.703z"/>
		<path d="M479.856,160.369v5.868l3.636-5.868h1.378v8.334h-1.444v-5.868l-3.636,5.868h-1.378v-8.334H479.856z"/>
		<path d="M494.117,168.396c-0.376,0.145-0.762,0.251-1.158,0.32c-0.396,0.069-0.804,0.104-1.224,0.104
			c-1.317,0-2.331-0.357-3.042-1.07c-0.711-0.715-1.066-1.758-1.066-3.13c0-0.658,0.103-1.256,0.307-1.793s0.493-0.996,0.863-1.378
			s0.813-0.677,1.328-0.884c0.515-0.208,1.082-0.312,1.702-0.312c0.432,0,0.835,0.03,1.212,0.092
			c0.376,0.061,0.736,0.16,1.079,0.299v1.377c-0.36-0.188-0.727-0.324-1.1-0.41c-0.374-0.086-0.76-0.129-1.158-0.129
			c-0.371,0-0.721,0.07-1.05,0.212c-0.33,0.141-0.619,0.345-0.868,0.61s-0.445,0.589-0.589,0.971s-0.216,0.813-0.216,1.295
			c0,1.007,0.245,1.761,0.734,2.262c0.49,0.501,1.169,0.752,2.038,0.752c0.393,0,0.773-0.045,1.142-0.133
			c0.368-0.089,0.723-0.222,1.066-0.398V168.396z"/>
		<path d="M504.228,161.614h-3.163v7.089h-1.461v-7.089h-3.162v-1.245h7.786V161.614z"/>
		<path d="M507.896,160.369v5.868l3.636-5.868h1.378v8.334h-1.444v-5.868l-3.636,5.868h-1.378v-8.334H507.896z"/>
		<path d="M520.938,165.474h-1.719c-1.289,0-2.236-0.24-2.839-0.722s-0.905-1.182-0.905-2.101v-2.282h1.461v2.092
			c0,0.332,0.045,0.611,0.133,0.839c0.089,0.227,0.231,0.41,0.428,0.552c0.197,0.141,0.448,0.242,0.756,0.303
			c0.307,0.061,0.68,0.091,1.116,0.091h1.569v-3.876h1.443v8.334h-1.443V165.474z"/>
		<path d="M531.729,168.703h-1.445v-3.686h-3.81v3.686h-1.444v-8.334h1.444v3.387h3.81v-3.387h1.445V168.703z"/>
		<path d="M535.156,163.59c0.199-0.006,0.386-0.01,0.561-0.013c0.174-0.003,0.355-0.004,0.543-0.004
			c0.521,0,0.976,0.063,1.366,0.187c0.39,0.125,0.715,0.299,0.976,0.523c0.26,0.224,0.453,0.492,0.58,0.805
			c0.128,0.313,0.191,0.651,0.191,1.017c0,0.443-0.074,0.832-0.225,1.167c-0.148,0.335-0.361,0.615-0.639,0.843
			c-0.277,0.227-0.615,0.398-1.017,0.514c-0.401,0.117-0.879,0.175-1.433,0.175c-0.354,0-0.729-0.01-1.124-0.029
			s-0.798-0.06-1.208-0.12v-8.284h1.428V163.59z M537.879,166.146c0-0.438-0.137-0.776-0.411-1.017
			c-0.273-0.241-0.71-0.361-1.308-0.361c-0.16,0-0.323,0.003-0.489,0.008c-0.166,0.006-0.337,0.015-0.515,0.025v2.739
			c0.178,0.027,0.346,0.046,0.506,0.054c0.161,0.009,0.321,0.013,0.482,0.013c0.337,0,0.617-0.04,0.838-0.12s0.396-0.188,0.527-0.32
			c0.13-0.133,0.224-0.287,0.282-0.465C537.85,166.525,537.879,166.34,537.879,166.146z M540.286,168.703v-8.334h1.428v8.334
			H540.286z"/>
		<path d="M545.283,160.369v5.868l3.636-5.868h1.378v8.334h-1.444v-5.868l-3.636,5.868h-1.378v-8.334H545.283z M549.616,157.157
			c0,0.326-0.063,0.616-0.187,0.871c-0.125,0.255-0.299,0.472-0.523,0.651c-0.224,0.18-0.494,0.317-0.809,0.411
			c-0.316,0.094-0.664,0.141-1.047,0.141c-0.442,0-0.821-0.047-1.137-0.141s-0.574-0.231-0.776-0.411s-0.35-0.396-0.444-0.651
			c-0.094-0.255-0.141-0.545-0.141-0.871h1.312c0,0.16,0.02,0.31,0.058,0.447c0.039,0.139,0.104,0.262,0.195,0.37
			c0.092,0.107,0.215,0.192,0.369,0.253c0.155,0.061,0.35,0.092,0.582,0.092c0.237,0,0.436-0.031,0.593-0.092
			c0.158-0.061,0.284-0.146,0.378-0.253c0.094-0.108,0.16-0.231,0.199-0.37c0.039-0.138,0.059-0.287,0.059-0.447H549.616z"/>
	</g>
	<g>
		<path d="M333.14,198.556v9.147h-2.092v-9.147h-2.972v-1.701h8.035v1.701H333.14z"/>
		<path d="M340.644,200.847h-2.382v-1.577h4.458v6.856h2.432v1.577h-7.18v-1.577h2.673V200.847z M342.885,196.962
			c0,0.183-0.033,0.354-0.1,0.515s-0.159,0.3-0.278,0.419c-0.119,0.119-0.259,0.213-0.419,0.282s-0.335,0.104-0.523,0.104
			s-0.364-0.035-0.527-0.104c-0.163-0.069-0.304-0.163-0.423-0.282c-0.119-0.119-0.212-0.259-0.278-0.419s-0.1-0.332-0.1-0.515
			s0.033-0.354,0.1-0.515s0.159-0.302,0.278-0.423c0.119-0.122,0.26-0.218,0.423-0.287c0.164-0.069,0.339-0.104,0.527-0.104
			s0.362,0.034,0.523,0.104s0.3,0.165,0.419,0.287c0.119,0.121,0.211,0.263,0.278,0.423S342.885,196.779,342.885,196.962z"/>
		<path d="M353.22,207.703v-5.744c0-0.21-0.005-0.395-0.017-0.552c-0.011-0.158-0.033-0.289-0.066-0.395s-0.082-0.184-0.146-0.236
			c-0.063-0.053-0.15-0.079-0.261-0.079c-0.171,0-0.34,0.116-0.506,0.349s-0.354,0.628-0.564,1.188v5.47h-1.735v-5.744
			c0-0.21-0.005-0.395-0.017-0.552c-0.011-0.158-0.033-0.289-0.066-0.395s-0.083-0.184-0.149-0.236s-0.155-0.079-0.266-0.079
			c-0.144,0-0.304,0.116-0.481,0.349s-0.374,0.628-0.589,1.188v5.47h-1.751v-8.434h1.502l0.033,1.229
			c0.122-0.249,0.244-0.462,0.365-0.64c0.122-0.177,0.252-0.322,0.39-0.436s0.287-0.195,0.444-0.244
			c0.158-0.051,0.336-0.075,0.536-0.075c0.47,0,0.829,0.123,1.075,0.369c0.247,0.246,0.386,0.588,0.419,1.025
			c0.133-0.249,0.264-0.462,0.394-0.64c0.13-0.177,0.266-0.322,0.407-0.436c0.141-0.113,0.293-0.195,0.456-0.244
			c0.164-0.051,0.345-0.075,0.544-0.075c0.614,0,1.068,0.215,1.361,0.644s0.44,1.063,0.44,1.904v6.052H353.22z"/>
		<path d="M363.961,202.839c0,0.139-0.004,0.318-0.013,0.539c-0.008,0.222-0.021,0.43-0.037,0.623h-5.545
			c0,0.371,0.057,0.697,0.17,0.979c0.114,0.282,0.274,0.519,0.481,0.71c0.208,0.19,0.457,0.336,0.747,0.436
			c0.291,0.1,0.613,0.149,0.967,0.149c0.41,0,0.848-0.032,1.316-0.096c0.467-0.063,0.953-0.167,1.457-0.312v1.611
			c-0.216,0.061-0.451,0.115-0.706,0.166c-0.254,0.049-0.515,0.094-0.78,0.133c-0.266,0.038-0.534,0.067-0.805,0.087
			s-0.534,0.028-0.789,0.028c-0.642,0-1.217-0.091-1.727-0.273s-0.941-0.452-1.295-0.81c-0.354-0.356-0.625-0.798-0.813-1.323
			c-0.188-0.526-0.282-1.135-0.282-1.826c0-0.687,0.094-1.311,0.282-1.872s0.454-1.043,0.797-1.444s0.76-0.711,1.249-0.93
			c0.49-0.219,1.037-0.328,1.64-0.328c0.598,0,1.126,0.093,1.585,0.278s0.844,0.444,1.154,0.776s0.545,0.728,0.706,1.187
			S363.961,202.291,363.961,202.839z M361.902,202.548c0.005-0.332-0.036-0.621-0.125-0.867s-0.209-0.449-0.361-0.609
			c-0.152-0.161-0.33-0.28-0.531-0.357c-0.202-0.077-0.419-0.116-0.652-0.116c-0.509,0-0.927,0.17-1.253,0.511
			c-0.327,0.34-0.52,0.82-0.581,1.439H361.902z"/>
		<path d="M380.695,207.703l-1.527-3.486c-0.144-0.332-0.345-0.582-0.602-0.751c-0.258-0.169-0.561-0.254-0.909-0.254h-0.39v4.491
			h-2.042v-10.849h3.163c0.598,0,1.14,0.051,1.627,0.153s0.902,0.272,1.245,0.511c0.343,0.237,0.607,0.547,0.793,0.93
			c0.185,0.381,0.278,0.849,0.278,1.402c0,0.398-0.058,0.753-0.174,1.063s-0.279,0.577-0.49,0.801
			c-0.21,0.225-0.46,0.405-0.751,0.544c-0.29,0.139-0.607,0.235-0.95,0.29c0.266,0.056,0.509,0.207,0.73,0.453
			s0.443,0.602,0.664,1.066l1.735,3.636H380.695z M380.189,200.05c0-0.531-0.169-0.913-0.506-1.146s-0.844-0.349-1.519-0.349h-0.896
			v3.063h0.83c0.315,0,0.602-0.033,0.859-0.1c0.258-0.066,0.478-0.166,0.66-0.299s0.324-0.297,0.423-0.493
			S380.189,200.305,380.189,200.05z"/>
		<path d="M392.001,202.839c0,0.139-0.004,0.318-0.013,0.539c-0.008,0.222-0.021,0.43-0.037,0.623h-5.545
			c0,0.371,0.057,0.697,0.17,0.979c0.114,0.282,0.274,0.519,0.481,0.71c0.208,0.19,0.457,0.336,0.747,0.436
			c0.291,0.1,0.613,0.149,0.967,0.149c0.41,0,0.848-0.032,1.316-0.096c0.467-0.063,0.953-0.167,1.457-0.312v1.611
			c-0.216,0.061-0.451,0.115-0.706,0.166c-0.254,0.049-0.515,0.094-0.78,0.133c-0.266,0.038-0.534,0.067-0.805,0.087
			s-0.534,0.028-0.789,0.028c-0.642,0-1.217-0.091-1.727-0.273s-0.941-0.452-1.295-0.81c-0.354-0.356-0.625-0.798-0.813-1.323
			c-0.188-0.526-0.282-1.135-0.282-1.826c0-0.687,0.094-1.311,0.282-1.872s0.454-1.043,0.797-1.444s0.76-0.711,1.249-0.93
			c0.49-0.219,1.037-0.328,1.64-0.328c0.598,0,1.126,0.093,1.585,0.278s0.844,0.444,1.154,0.776s0.545,0.728,0.706,1.187
			S392.001,202.291,392.001,202.839z M389.942,202.548c0.005-0.332-0.036-0.621-0.125-0.867s-0.209-0.449-0.361-0.609
			c-0.152-0.161-0.33-0.28-0.531-0.357c-0.202-0.077-0.419-0.116-0.652-0.116c-0.509,0-0.927,0.17-1.253,0.511
			c-0.327,0.34-0.52,0.82-0.581,1.439H389.942z"/>
		<path d="M396.724,197.552h-2.382v-1.578h4.458v10.152h2.432v1.577h-7.18v-1.577h2.673V197.552z"/>
		<path d="M408.636,207.703l-0.05-1.104c-0.177,0.188-0.362,0.361-0.556,0.52c-0.194,0.157-0.407,0.295-0.639,0.41
			c-0.232,0.117-0.485,0.207-0.76,0.271c-0.273,0.063-0.574,0.095-0.9,0.095c-0.432,0-0.811-0.063-1.137-0.19
			s-0.601-0.305-0.822-0.531s-0.389-0.501-0.502-0.821c-0.114-0.321-0.17-0.676-0.17-1.063c0-0.398,0.084-0.767,0.253-1.104
			c0.168-0.338,0.426-0.628,0.771-0.872c0.346-0.243,0.778-0.434,1.295-0.572c0.518-0.139,1.125-0.207,1.822-0.207h1.104v-0.507
			c0-0.216-0.03-0.411-0.091-0.585c-0.061-0.175-0.159-0.322-0.295-0.444c-0.135-0.122-0.311-0.216-0.527-0.282
			s-0.481-0.1-0.797-0.1c-0.498,0-0.989,0.057-1.473,0.17c-0.484,0.113-0.954,0.272-1.407,0.478v-1.618
			c0.404-0.161,0.87-0.294,1.398-0.398c0.529-0.105,1.078-0.158,1.648-0.158c0.625,0,1.162,0.06,1.61,0.179s0.818,0.297,1.108,0.535
			c0.291,0.238,0.505,0.535,0.644,0.893c0.138,0.356,0.208,0.773,0.208,1.249v5.761H408.636z M408.345,203.976h-1.237
			c-0.343,0-0.634,0.033-0.872,0.1s-0.432,0.158-0.581,0.274s-0.259,0.25-0.328,0.402c-0.069,0.152-0.104,0.314-0.104,0.485
			c0,0.344,0.111,0.605,0.332,0.785s0.523,0.27,0.905,0.27c0.282,0,0.576-0.103,0.88-0.307c0.304-0.205,0.639-0.498,1.004-0.881
			V203.976z"/>
		<path d="M419.651,207.62c-0.365,0.083-0.733,0.149-1.104,0.199s-0.722,0.074-1.054,0.074c-0.553,0-1.031-0.058-1.432-0.174
			c-0.401-0.116-0.733-0.293-0.996-0.531c-0.263-0.238-0.456-0.541-0.581-0.909c-0.124-0.368-0.187-0.807-0.187-1.315v-4.117h-2.266
			v-1.577h2.266v-2.158l2.075-0.54v2.698h3.279v1.577h-3.279v3.968c0,0.481,0.111,0.846,0.332,1.092s0.592,0.369,1.112,0.369
			c0.332,0,0.656-0.027,0.971-0.083s0.603-0.119,0.863-0.191V207.62z"/>
		<path d="M429.388,202.839c0,0.139-0.004,0.318-0.013,0.539c-0.008,0.222-0.021,0.43-0.037,0.623h-5.545
			c0,0.371,0.057,0.697,0.17,0.979c0.114,0.282,0.274,0.519,0.481,0.71c0.208,0.19,0.457,0.336,0.747,0.436
			c0.291,0.1,0.613,0.149,0.967,0.149c0.41,0,0.848-0.032,1.316-0.096c0.467-0.063,0.953-0.167,1.457-0.312v1.611
			c-0.216,0.061-0.451,0.115-0.706,0.166c-0.254,0.049-0.515,0.094-0.78,0.133c-0.266,0.038-0.534,0.067-0.805,0.087
			s-0.534,0.028-0.789,0.028c-0.642,0-1.217-0.091-1.727-0.273s-0.941-0.452-1.295-0.81c-0.354-0.356-0.625-0.798-0.813-1.323
			c-0.188-0.526-0.282-1.135-0.282-1.826c0-0.687,0.094-1.311,0.282-1.872s0.454-1.043,0.797-1.444s0.76-0.711,1.249-0.93
			c0.49-0.219,1.037-0.328,1.64-0.328c0.598,0,1.126,0.093,1.585,0.278s0.844,0.444,1.154,0.776s0.545,0.728,0.706,1.187
			S429.388,202.291,429.388,202.839z M427.329,202.548c0.005-0.332-0.036-0.621-0.125-0.867s-0.209-0.449-0.361-0.609
			c-0.152-0.161-0.33-0.28-0.531-0.357c-0.202-0.077-0.419-0.116-0.652-0.116c-0.509,0-0.927,0.17-1.253,0.511
			c-0.327,0.34-0.52,0.82-0.581,1.439H427.329z"/>
		<path d="M436.692,207.703l-0.05-1.245c-0.177,0.216-0.36,0.412-0.548,0.59c-0.188,0.177-0.39,0.327-0.606,0.452
			c-0.216,0.124-0.447,0.221-0.693,0.29c-0.247,0.069-0.519,0.104-0.818,0.104c-0.498,0-0.941-0.1-1.328-0.299
			s-0.712-0.482-0.975-0.851c-0.263-0.368-0.464-0.814-0.602-1.341c-0.138-0.525-0.208-1.111-0.208-1.76
			c0-0.774,0.109-1.445,0.328-2.013c0.218-0.567,0.521-1.037,0.909-1.411c0.387-0.373,0.847-0.65,1.378-0.83s1.109-0.27,1.735-0.27
			c0.21,0,0.422,0.014,0.635,0.041c0.213,0.028,0.403,0.064,0.569,0.108v-3.296h2.025v11.729H436.692z M432.99,203.553
			c0,0.465,0.032,0.862,0.096,1.191c0.063,0.329,0.157,0.599,0.282,0.81c0.124,0.21,0.278,0.363,0.46,0.46s0.39,0.146,0.623,0.146
			c0.343,0,0.669-0.139,0.979-0.415s0.639-0.655,0.988-1.138v-3.686c-0.161-0.061-0.358-0.11-0.593-0.148
			c-0.235-0.039-0.472-0.059-0.71-0.059c-0.327,0-0.62,0.066-0.88,0.199s-0.483,0.321-0.668,0.564
			c-0.186,0.243-0.328,0.541-0.428,0.893S432.99,203.115,432.99,203.553z"/>
		<path d="M451.02,204.084v-1.802h5.163v1.802H451.02z"/>
		<path d="M475.424,207.396c-0.376,0.145-0.762,0.251-1.158,0.32c-0.396,0.069-0.804,0.104-1.224,0.104
			c-1.317,0-2.331-0.357-3.042-1.07c-0.711-0.715-1.066-1.758-1.066-3.13c0-0.658,0.103-1.256,0.307-1.793s0.493-0.996,0.863-1.378
			s0.813-0.677,1.328-0.884c0.515-0.208,1.082-0.312,1.702-0.312c0.432,0,0.835,0.03,1.212,0.092
			c0.376,0.061,0.736,0.16,1.079,0.299v1.377c-0.36-0.188-0.727-0.324-1.1-0.41c-0.374-0.086-0.76-0.129-1.158-0.129
			c-0.371,0-0.721,0.07-1.05,0.212c-0.33,0.141-0.619,0.345-0.868,0.61s-0.445,0.589-0.589,0.971s-0.216,0.813-0.216,1.295
			c0,1.007,0.245,1.761,0.734,2.262c0.49,0.501,1.169,0.752,2.038,0.752c0.393,0,0.773-0.045,1.142-0.133
			c0.368-0.089,0.723-0.222,1.066-0.398V207.396z"/>
		<path d="M485.451,205.271c0,0.383-0.08,0.73-0.241,1.047c-0.161,0.314-0.41,0.585-0.747,0.809
			c-0.337,0.225-0.765,0.398-1.283,0.523c-0.517,0.124-1.133,0.187-1.847,0.187c-0.47,0-0.971-0.018-1.502-0.054
			s-1.043-0.085-1.536-0.146v-8.226c0.52-0.062,1.047-0.108,1.581-0.142c0.534-0.033,1.111-0.05,1.731-0.05
			c1.124,0,1.977,0.184,2.561,0.552c0.583,0.368,0.875,0.898,0.875,1.59c0,0.471-0.136,0.874-0.407,1.212s-0.681,0.587-1.229,0.747
			c0.266,0.044,0.521,0.117,0.768,0.22c0.247,0.103,0.464,0.235,0.652,0.398s0.339,0.355,0.453,0.577
			C485.395,204.737,485.451,204.989,485.451,205.271z M483.567,201.651c0-0.193-0.039-0.367-0.116-0.522s-0.201-0.288-0.37-0.398
			c-0.168-0.11-0.39-0.195-0.664-0.253c-0.273-0.059-0.604-0.088-0.992-0.088c-0.349,0-0.653,0.008-0.913,0.021
			s-0.518,0.037-0.772,0.07v2.407h1.677C482.85,202.889,483.567,202.477,483.567,201.651z M483.924,205.304
			c0-0.432-0.195-0.756-0.585-0.975c-0.391-0.219-0.998-0.328-1.822-0.328h-1.776v2.549c0.271,0.044,0.54,0.074,0.805,0.091
			s0.57,0.024,0.913,0.024c0.493,0,0.898-0.033,1.216-0.1c0.318-0.066,0.57-0.16,0.755-0.281c0.186-0.122,0.314-0.266,0.386-0.432
			S483.924,205.503,483.924,205.304z"/>
		<path d="M494.897,203.47c0,0.647-0.091,1.241-0.274,1.78c-0.183,0.54-0.445,1.002-0.789,1.387s-0.761,0.684-1.253,0.896
			s-1.051,0.319-1.677,0.319c-0.598,0-1.133-0.093-1.606-0.278c-0.474-0.186-0.875-0.458-1.204-0.817
			c-0.329-0.359-0.581-0.805-0.755-1.336c-0.175-0.531-0.262-1.144-0.262-1.835c0-0.647,0.091-1.238,0.274-1.772
			s0.445-0.993,0.789-1.378s0.761-0.684,1.253-0.896s1.051-0.319,1.677-0.319c0.598,0,1.133,0.093,1.606,0.278
			c0.474,0.186,0.875,0.456,1.204,0.813c0.329,0.356,0.581,0.801,0.755,1.332C494.811,202.175,494.897,202.783,494.897,203.47z
			 M493.42,203.536c0-0.515-0.057-0.964-0.17-1.349c-0.114-0.385-0.275-0.706-0.486-0.963c-0.21-0.258-0.466-0.451-0.768-0.581
			c-0.301-0.13-0.638-0.195-1.008-0.195c-0.432,0-0.801,0.084-1.108,0.253c-0.308,0.169-0.559,0.395-0.756,0.677
			c-0.196,0.282-0.34,0.61-0.432,0.983c-0.091,0.374-0.137,0.766-0.137,1.175c0,0.515,0.057,0.966,0.17,1.354
			c0.114,0.387,0.275,0.709,0.486,0.967c0.21,0.257,0.465,0.451,0.764,0.581s0.636,0.194,1.013,0.194
			c0.432,0,0.801-0.084,1.108-0.253c0.308-0.169,0.559-0.394,0.756-0.677c0.196-0.281,0.34-0.609,0.432-0.983
			C493.374,204.346,493.42,203.951,493.42,203.536z"/>
		<path d="M504.028,203.097c0,0.204-0.003,0.376-0.009,0.514c-0.005,0.139-0.014,0.269-0.024,0.391h-5.853
			c0,0.853,0.238,1.507,0.715,1.963c0.476,0.457,1.162,0.686,2.059,0.686c0.243,0,0.486-0.01,0.73-0.029
			c0.243-0.02,0.479-0.046,0.705-0.079s0.444-0.07,0.651-0.112c0.208-0.041,0.399-0.087,0.577-0.137v1.188
			c-0.393,0.11-0.837,0.2-1.332,0.27c-0.496,0.069-1.009,0.104-1.54,0.104c-0.714,0-1.328-0.097-1.843-0.291
			c-0.515-0.193-0.937-0.474-1.266-0.842c-0.33-0.368-0.573-0.819-0.73-1.354c-0.158-0.534-0.237-1.139-0.237-1.813
			c0-0.587,0.084-1.142,0.253-1.664c0.169-0.523,0.415-0.982,0.738-1.378c0.324-0.396,0.722-0.71,1.191-0.942
			s1.005-0.349,1.603-0.349c0.58,0,1.096,0.092,1.543,0.273c0.449,0.184,0.826,0.441,1.134,0.776
			c0.307,0.335,0.539,0.742,0.697,1.221C503.949,201.969,504.028,202.504,504.028,203.097z M502.525,202.889
			c0.018-0.371-0.02-0.71-0.107-1.017c-0.088-0.308-0.226-0.571-0.411-0.793c-0.185-0.222-0.416-0.395-0.692-0.519
			c-0.277-0.125-0.598-0.187-0.963-0.187c-0.316,0-0.604,0.061-0.863,0.182c-0.261,0.122-0.484,0.294-0.673,0.516
			c-0.188,0.221-0.341,0.486-0.456,0.797c-0.117,0.31-0.188,0.649-0.217,1.021H502.525z"/>
		<path d="M513.491,205.271c0,0.383-0.08,0.73-0.241,1.047c-0.16,0.314-0.409,0.585-0.746,0.809
			c-0.338,0.225-0.766,0.398-1.283,0.523c-0.518,0.124-1.133,0.187-1.847,0.187c-0.47,0-0.972-0.018-1.503-0.054
			s-1.043-0.085-1.535-0.146v-8.226c0.52-0.062,1.047-0.108,1.581-0.142s1.111-0.05,1.731-0.05c1.123,0,1.977,0.184,2.561,0.552
			s0.875,0.898,0.875,1.59c0,0.471-0.135,0.874-0.406,1.212s-0.681,0.587-1.229,0.747c0.266,0.044,0.521,0.117,0.768,0.22
			s0.464,0.235,0.652,0.398c0.188,0.163,0.338,0.355,0.452,0.577C513.435,204.737,513.491,204.989,513.491,205.271z
			 M511.607,201.651c0-0.193-0.039-0.367-0.117-0.522c-0.077-0.155-0.2-0.288-0.369-0.398c-0.168-0.11-0.39-0.195-0.664-0.253
			c-0.273-0.059-0.604-0.088-0.992-0.088c-0.348,0-0.652,0.008-0.912,0.021c-0.261,0.014-0.518,0.037-0.772,0.07v2.407h1.677
			C510.891,202.889,511.607,202.477,511.607,201.651z M511.964,205.304c0-0.432-0.195-0.756-0.585-0.975
			c-0.391-0.219-0.998-0.328-1.822-0.328h-1.776v2.549c0.271,0.044,0.54,0.074,0.806,0.091s0.569,0.024,0.912,0.024
			c0.493,0,0.898-0.033,1.217-0.1s0.57-0.16,0.755-0.281c0.186-0.122,0.314-0.266,0.386-0.432
			C511.928,205.687,511.964,205.503,511.964,205.304z"/>
		<path d="M522.805,203.387c0,0.741-0.104,1.389-0.312,1.942c-0.207,0.554-0.493,1.013-0.858,1.378s-0.797,0.64-1.295,0.821
			c-0.498,0.184-1.038,0.274-1.619,0.274c-0.266,0-0.529-0.014-0.793-0.042c-0.263-0.027-0.529-0.074-0.801-0.141v3.486h-1.444
			v-11.737h1.286l0.092,1.395c0.415-0.57,0.857-0.97,1.328-1.199s0.979-0.345,1.527-0.345c0.477,0,0.894,0.1,1.254,0.299
			c0.359,0.199,0.66,0.48,0.904,0.843s0.426,0.8,0.548,1.312S522.805,202.756,522.805,203.387z M521.327,203.453
			c0-0.438-0.032-0.839-0.096-1.204s-0.165-0.678-0.303-0.938s-0.315-0.464-0.531-0.61s-0.474-0.22-0.772-0.22
			c-0.182,0-0.367,0.029-0.556,0.087c-0.188,0.059-0.384,0.155-0.585,0.291c-0.202,0.136-0.415,0.315-0.64,0.539
			c-0.224,0.225-0.464,0.503-0.718,0.835v4.042c0.266,0.11,0.545,0.198,0.838,0.262c0.294,0.063,0.582,0.095,0.863,0.095
			c0.781,0,1.393-0.264,1.835-0.792S521.327,204.516,521.327,203.453z"/>
		<path d="M532.068,203.097c0,0.204-0.003,0.376-0.008,0.514c-0.006,0.139-0.014,0.269-0.025,0.391h-5.852
			c0,0.853,0.237,1.507,0.713,1.963c0.477,0.457,1.162,0.686,2.059,0.686c0.244,0,0.487-0.01,0.73-0.029
			c0.244-0.02,0.479-0.046,0.706-0.079s0.444-0.07,0.651-0.112c0.208-0.041,0.4-0.087,0.577-0.137v1.188
			c-0.394,0.11-0.837,0.2-1.332,0.27s-1.009,0.104-1.54,0.104c-0.714,0-1.328-0.097-1.843-0.291
			c-0.515-0.193-0.937-0.474-1.266-0.842s-0.573-0.819-0.73-1.354c-0.158-0.534-0.237-1.139-0.237-1.813
			c0-0.587,0.085-1.142,0.254-1.664c0.168-0.523,0.415-0.982,0.738-1.378c0.324-0.396,0.721-0.71,1.191-0.942
			s1.004-0.349,1.602-0.349c0.582,0,1.096,0.092,1.545,0.273c0.447,0.184,0.825,0.441,1.133,0.776
			c0.307,0.335,0.539,0.742,0.697,1.221C531.989,201.969,532.068,202.504,532.068,203.097z M530.566,202.889
			c0.016-0.371-0.02-0.71-0.108-1.017c-0.089-0.308-0.226-0.571-0.411-0.793s-0.416-0.395-0.693-0.519
			c-0.276-0.125-0.598-0.187-0.963-0.187c-0.314,0-0.603,0.061-0.863,0.182c-0.26,0.122-0.484,0.294-0.672,0.516
			c-0.188,0.221-0.34,0.486-0.457,0.797c-0.115,0.31-0.188,0.649-0.215,1.021H530.566z"/>
		<path d="M541.988,207.703h-1.428l-0.217-5.204l-0.091-1.852l-0.489,1.295l-1.561,3.785h-1.055l-1.502-3.636l-0.523-1.444
			l-0.066,1.959l-0.225,5.097h-1.377l0.531-8.334h1.917l1.428,3.595l0.39,1.07l0.391-1.07l1.461-3.595h1.893L541.988,207.703z"/>
		<path d="M550.762,203.097c0,0.204-0.003,0.376-0.008,0.514c-0.006,0.139-0.014,0.269-0.025,0.391h-5.852
			c0,0.853,0.237,1.507,0.713,1.963c0.477,0.457,1.162,0.686,2.059,0.686c0.244,0,0.487-0.01,0.73-0.029
			c0.244-0.02,0.479-0.046,0.706-0.079s0.444-0.07,0.651-0.112c0.208-0.041,0.4-0.087,0.577-0.137v1.188
			c-0.394,0.11-0.837,0.2-1.332,0.27s-1.009,0.104-1.54,0.104c-0.714,0-1.328-0.097-1.843-0.291
			c-0.515-0.193-0.937-0.474-1.266-0.842s-0.573-0.819-0.73-1.354c-0.158-0.534-0.237-1.139-0.237-1.813
			c0-0.587,0.085-1.142,0.254-1.664c0.168-0.523,0.415-0.982,0.738-1.378c0.324-0.396,0.721-0.71,1.191-0.942
			s1.004-0.349,1.602-0.349c0.582,0,1.096,0.092,1.545,0.273c0.447,0.184,0.825,0.441,1.133,0.776
			c0.307,0.335,0.539,0.742,0.697,1.221C550.683,201.969,550.762,202.504,550.762,203.097z M549.26,202.889
			c0.016-0.371-0.02-0.71-0.108-1.017c-0.089-0.308-0.226-0.571-0.411-0.793s-0.416-0.395-0.693-0.519
			c-0.276-0.125-0.598-0.187-0.963-0.187c-0.314,0-0.603,0.061-0.863,0.182c-0.26,0.122-0.484,0.294-0.672,0.516
			c-0.188,0.221-0.34,0.486-0.457,0.797c-0.115,0.31-0.188,0.649-0.215,1.021H549.26z"/>
		<path d="M559.768,207.703h-1.443v-3.686h-3.811v3.686h-1.444v-8.334h1.444v3.387h3.811v-3.387h1.443V207.703z"/>
		<path d="M569.115,207.703h-1.445v-3.686h-3.81v3.686h-1.444v-8.334h1.444v3.387h3.81v-3.387h1.445V207.703z"/>
		<path d="M572.543,202.59c0.199-0.006,0.386-0.01,0.561-0.013c0.174-0.003,0.355-0.004,0.543-0.004
			c0.521,0,0.976,0.063,1.366,0.187c0.39,0.125,0.715,0.299,0.976,0.523c0.26,0.224,0.453,0.492,0.58,0.805
			c0.128,0.313,0.191,0.651,0.191,1.017c0,0.443-0.074,0.832-0.225,1.167c-0.148,0.335-0.361,0.615-0.639,0.843
			c-0.277,0.227-0.615,0.398-1.017,0.514c-0.401,0.117-0.879,0.175-1.433,0.175c-0.354,0-0.729-0.01-1.124-0.029
			s-0.798-0.06-1.208-0.12v-8.284h1.428V202.59z M575.266,205.146c0-0.438-0.137-0.776-0.411-1.017
			c-0.273-0.241-0.71-0.361-1.308-0.361c-0.16,0-0.323,0.003-0.489,0.008c-0.166,0.006-0.337,0.015-0.515,0.025v2.739
			c0.178,0.027,0.346,0.046,0.506,0.054c0.161,0.009,0.321,0.013,0.482,0.013c0.337,0,0.617-0.04,0.838-0.12s0.396-0.188,0.527-0.32
			c0.13-0.133,0.224-0.287,0.282-0.465C575.236,205.525,575.266,205.34,575.266,205.146z M577.673,207.703v-8.334h1.428v8.334
			H577.673z"/>
		<path d="M582.67,199.369v5.868l3.636-5.868h1.378v8.334h-1.444v-5.868l-3.636,5.868h-1.378v-8.334H582.67z M587.003,196.157
			c0,0.326-0.063,0.616-0.187,0.871c-0.125,0.255-0.299,0.472-0.523,0.651c-0.224,0.18-0.494,0.317-0.809,0.411
			c-0.316,0.094-0.664,0.141-1.047,0.141c-0.442,0-0.821-0.047-1.137-0.141s-0.574-0.231-0.776-0.411s-0.35-0.396-0.444-0.651
			c-0.094-0.255-0.141-0.545-0.141-0.871h1.312c0,0.16,0.02,0.31,0.058,0.447c0.039,0.139,0.104,0.262,0.195,0.37
			c0.092,0.107,0.215,0.192,0.369,0.253c0.155,0.061,0.35,0.092,0.582,0.092c0.237,0,0.436-0.031,0.593-0.092
			c0.158-0.061,0.284-0.146,0.378-0.253c0.094-0.108,0.16-0.231,0.199-0.37c0.039-0.138,0.059-0.287,0.059-0.447H587.003z"/>
	</g>
	<rect x="281" y="62" fill="#0071C6" width="32" height="32"/>
	<g>
		<path fill="#FFFFFF" d="M299.593,82.703l-0.199-6.134l-0.075-2.449l-0.523,1.66l-1.204,3.693h-1.278l-1.087-3.693l-0.457-1.66
			l-0.058,2.398l-0.183,6.185h-1.735l0.531-10.849h2.308l0.955,3.079l0.457,1.735l0.457-1.636l1.004-3.179h2.349l0.54,10.849
			H299.593z"/>
	</g>
	<rect x="281" y="104" fill="#0071C6" width="32" height="32"/>
	<g>
		<path fill="#FFFFFF" d="M299.477,124.703l-0.598-2.142h-3.785l-0.614,2.142h-2.025l3.212-10.849h2.855l3.212,10.849H299.477z
			 M297.011,115.847l-1.428,5.047h2.839L297.011,115.847z"/>
	</g>
	<rect x="281" y="146" fill="#0071C6" width="32" height="32"/>
	<g>
		<path fill="#FFFFFF" d="M298.962,166.703l-1.527-3.486c-0.144-0.332-0.345-0.582-0.602-0.751
			c-0.258-0.169-0.561-0.254-0.909-0.254h-0.39v4.491h-2.042v-10.849h3.163c0.598,0,1.14,0.051,1.627,0.153s0.902,0.272,1.245,0.511
			c0.343,0.237,0.607,0.547,0.793,0.93c0.185,0.381,0.278,0.849,0.278,1.402c0,0.398-0.058,0.753-0.174,1.063
			s-0.279,0.577-0.49,0.801c-0.21,0.225-0.46,0.405-0.751,0.544c-0.29,0.139-0.607,0.235-0.95,0.29
			c0.266,0.056,0.509,0.207,0.73,0.453s0.443,0.602,0.664,1.066l1.735,3.636H298.962z M298.456,159.05
			c0-0.531-0.169-0.913-0.506-1.146s-0.844-0.349-1.519-0.349h-0.896v3.063h0.83c0.315,0,0.602-0.033,0.859-0.1
			c0.258-0.066,0.478-0.166,0.66-0.299s0.324-0.297,0.423-0.493S298.456,159.305,298.456,159.05z"/>
	</g>
	<rect x="281" y="187" fill="#0071C6" width="32" height="32"/>
	<g>
		<path fill="#FFFFFF" d="M298.14,198.556v9.147h-2.092v-9.147h-2.972v-1.701h8.035v1.701H298.14z"/>
	</g>
	<rect x="238" y="4" fill="none" stroke="#BBBDBF" stroke-width="2" stroke-miterlimit="10" width="446" height="234"/>
</g>
<g>
	<g>
		<defs>
			<rect id="SVGID_1_" x="-111" y="10" width="1049" height="228"/>
		</defs>
		<clipPath id="SVGID_2_">
			<use xlink:href="#SVGID_1_"  overflow="visible"/>
		</clipPath>
		<path clip-path="url(#SVGID_2_)" fill-rule="evenodd" clip-rule="evenodd" fill="#F7A485" d="M99.923,135.051
			c-5.063-0.436-9.775-0.654-14.131-0.654l-16.432,0.818c1.062,2.995,2.974,5.446,5.742,7.352c2.826,1.907,5.978,2.861,9.452,2.861
			c3.591,0,6.802-0.981,9.628-2.942C96.951,140.579,98.863,138.102,99.923,135.051z"/>
		<path clip-path="url(#SVGID_2_)" fill-rule="evenodd" clip-rule="evenodd" fill="#3F5272" d="M125.541,223.457H46.129V259
			c0,6.154,2.355,11.411,7.067,15.769c4.71,4.358,10.393,6.536,17.048,6.536h31.181c6.653,0,12.337-2.178,17.048-6.536
			c4.711-4.358,7.067-9.615,7.067-15.769V223.457z"/>
		<path clip-path="url(#SVGID_2_)" fill-rule="evenodd" clip-rule="evenodd" fill="#445A7D" d="M105.666,280.979
			c5.711-0.926,10.423-3.432,14.133-7.518c3.829-4.194,5.742-9.014,5.742-14.461v-35.543H85.792V259
			c0,5.447,1.884,10.267,5.651,14.461C95.213,277.547,99.954,280.052,105.666,280.979z"/>
		<path clip-path="url(#SVGID_2_)" fill-rule="evenodd" clip-rule="evenodd" fill="#F7A485" d="M85.792,99.182
			c-2.474,0-4.593,0.818-6.361,2.45c-1.708,1.581-2.562,3.514-2.562,5.802v27.781l3.621,8.333l14.311-8.333v-27.781
			c0-2.288-0.884-4.221-2.651-5.802C90.442,100,88.323,99.182,85.792,99.182z"/>
		<path clip-path="url(#SVGID_2_)" fill-rule="evenodd" clip-rule="evenodd" fill="#10122D" d="M58.584,87.417
			c0.706,0,1.295-0.219,1.767-0.655c0.53-0.489,0.795-1.062,0.795-1.714c0-0.655-0.265-1.198-0.795-1.636
			c-0.472-0.435-1.061-0.652-1.767-0.652c-0.707,0-1.326,0.218-1.855,0.652c-0.472,0.438-0.707,0.98-0.707,1.636
			c0,0.652,0.235,1.226,0.707,1.714C57.259,87.197,57.877,87.417,58.584,87.417z"/>
		<path clip-path="url(#SVGID_2_)" fill-rule="evenodd" clip-rule="evenodd" fill="#10122D" d="M78.637,87.417
			c0.706,0,1.295-0.219,1.765-0.655c0.531-0.489,0.797-1.062,0.797-1.714c0-0.655-0.266-1.198-0.797-1.636
			c-0.47-0.435-1.06-0.652-1.765-0.652c-0.708,0-1.297,0.218-1.768,0.652c-0.47,0.438-0.705,0.98-0.705,1.636
			c0,0.652,0.235,1.226,0.705,1.714C77.339,87.197,77.929,87.417,78.637,87.417z"/>
		<path clip-path="url(#SVGID_2_)" fill-rule="evenodd" clip-rule="evenodd" fill="#F4E6E6" d="M58.939,103.021
			c0,2.452,0.94,4.549,2.826,6.292c1.884,1.744,4.182,2.614,6.891,2.614c2.65,0,4.916-0.87,6.8-2.614
			c1.884-1.743,2.828-3.84,2.828-6.292H58.939z"/>
		<path clip-path="url(#SVGID_2_)" fill="#1B181D" d="M112.588,229.176v12.011c-0.009,3.333,1.304,6.227,3.844,8.508l0.452-0.501
			l-0.464,0.49c2.471,2.351,5.56,3.539,9.121,3.533v-1.35c-3.27-0.006-5.953-1.048-8.192-3.163l-0.006-0.006l-0.006-0.005
			c-2.289-2.078-3.39-4.521-3.399-7.506v-12.011H112.588z"/>
		<polyline clip-path="url(#SVGID_2_)" fill="#1B181D" points="125.541,228.501 46.129,228.501 46.129,229.851 125.541,229.851 		
			"/>
		<path clip-path="url(#SVGID_2_)" fill-rule="evenodd" clip-rule="evenodd" fill="#F7A485" d="M39.591,248.133
			c0.649,0.817,1.738,1.524,3.271,2.124c1.59,0.599,2.943,0.817,4.061,0.654l0.886-0.164c1.118-0.164,2.473-0.217,4.063-0.164
			c1.59,0.055,2.945,0.192,4.063,0.41l2.031,0.408c1.062,0.272,2.092,0.08,3.094-0.572c1.001-0.654,1.648-1.553,1.942-2.696
			l0.442-1.308c0.295-1.144,0.235-2.396-0.177-3.758c-0.352-1.417-0.913-2.505-1.678-3.268l-3.974-3.923
			c-0.766-0.763-1.856-1.361-3.269-1.796c-1.354-0.437-2.591-0.573-3.71-0.41l-5.565,0.654c-3.475,0.599-5.771,2.451-6.889,5.556
			C37.12,242.93,37.592,245.681,39.591,248.133z"/>
		<path clip-path="url(#SVGID_2_)" fill-rule="evenodd" clip-rule="evenodd" fill="#6D3D3E" d="M68.838,53.017l-15.016-8.089
			c-1.412,2.942-1.589,5.938-0.529,8.988c1.059,3.05,3.091,5.366,6.094,6.945L68.838,53.017z"/>
		<path clip-path="url(#SVGID_2_)" fill-rule="evenodd" clip-rule="evenodd" fill="#FDD29A" d="M92.653,138.773
			c1.929-1.799,2.896-3.962,2.896-6.489v-12.923H75.745v12.923c0,2.539,0.965,4.703,2.895,6.489c1.933,1.785,4.27,2.679,7.017,2.679
			C88.39,141.453,90.72,140.559,92.653,138.773z"/>
		<path clip-path="url(#SVGID_2_)" fill-rule="evenodd" clip-rule="evenodd" fill="#FDD29A" d="M112.693,73.955
			c-2.916,0-5.407,1.015-7.469,3.045c-2.061,2.029-3.093,4.483-3.093,7.363c0,2.868,1.032,5.323,3.093,7.363
			c2.063,2.031,4.553,3.045,7.469,3.045c2.93,0,5.426-1.014,7.487-3.045c2.064-2.041,3.095-4.495,3.095-7.363
			c0-2.88-1.031-5.334-3.095-7.363C118.119,74.97,115.623,73.955,112.693,73.955z"/>
		<path clip-path="url(#SVGID_2_)" fill-rule="evenodd" clip-rule="evenodd" fill="#FDD29A" d="M67.016,42.787
			c-4.941,3.644-7.412,8.566-7.412,14.763v44.604c0,6.416,2.471,11.908,7.412,16.478c4.938,4.556,10.876,6.835,17.813,6.835h1.872
			c6.923,0,12.855-2.279,17.795-6.835c4.938-4.57,7.409-10.062,7.409-16.478V57.55c0-6.197-2.471-11.12-7.409-14.763
			c-4.639-3.428-10.57-5.141-17.795-5.141h-1.872C77.604,37.646,71.666,39.359,67.016,42.787z"/>
		<path clip-path="url(#SVGID_2_)" fill-rule="evenodd" clip-rule="evenodd" fill="#FDD29A" d="M52.078,75.85
			c-2.063,2.042-3.094,4.497-3.094,7.365c0,2.88,1.031,5.341,3.094,7.382c2.063,2.031,4.559,3.045,7.487,3.045
			c2.917,0,5.408-1.014,7.469-3.045c2.064-2.041,3.094-4.502,3.094-7.382c0-2.868-1.03-5.323-3.094-7.365
			c-2.061-2.028-4.552-3.043-7.469-3.043C56.636,72.807,54.14,73.822,52.078,75.85z"/>
		<path clip-path="url(#SVGID_2_)" fill-rule="evenodd" clip-rule="evenodd" fill="#834B4B" d="M110.427,92.457
			c0,3.621-1.314,6.727-3.942,9.314c-2.614,2.576-5.761,3.864-9.439,3.864H75.213c-3.678,0-6.825-1.288-9.44-3.864
			c-2.626-2.587-3.94-5.693-3.94-9.314v-20.36c-1.577,1.579-2.457,7.157-2.64,16.732c-0.08,4.789-0.008,9.418,0.217,13.891
			c0.091,10.353,2.094,17.45,6.009,21.29c1.84,1.798,4.217,3.074,7.133,3.829c2.536,0.668,5.769,1.002,9.695,1.002h7.765
			c3.966,0,7.218-0.305,9.754-0.912c2.97-0.717,5.379-1.926,7.233-3.626c4.006-3.683,5.957-10.5,5.853-20.452
			c0.223-4.655,0.288-9.473,0.196-14.456c-0.171-9.951-1.044-15.718-2.62-17.297V92.457z"/>
		<path clip-path="url(#SVGID_2_)" fill-rule="evenodd" clip-rule="evenodd" fill="#834B4B" d="M69.379,42.421
			c-2.956-0.377-4.971-0.528-6.049-0.456c-1.76,0.121-3.035,0.754-3.823,1.896c-0.894,1.301-1.34,3.45-1.34,6.453l0.04,5.505
			c0.065,4.423,0.19,8.555,0.375,12.394c0.589,12.275,1.673,19.269,3.25,20.98V67.029c0-3.95,1.314-7.328,3.94-10.134
			c2.616-2.807,5.762-4.211,9.44-4.211h21.833c3.678,0,6.825,1.404,9.439,4.211c2.627,2.806,3.942,6.185,3.942,10.134v22.164
			c1.576-1.711,2.66-8.705,3.252-20.98c0.184-3.838,0.309-7.971,0.373-12.394l0.04-5.505c0-5.979-1.68-10.232-5.044-12.76
			c-2.941-2.199-7.56-3.299-13.854-3.299L77.321,43.06C75.298,43.06,72.65,42.846,69.379,42.421z"/>
		<path clip-path="url(#SVGID_2_)" fill-rule="evenodd" clip-rule="evenodd" fill="#834B4B" d="M99.332,96.449
			c-2.6-1.082-7.001-1.623-13.201-1.623c-6.202,0-10.603,0.541-13.204,1.623c-3.64,1.505-5.46,4.41-5.46,8.712
			c0,4.752,1.82,8.805,5.46,12.158c3.652,3.354,8.052,5.031,13.204,5.031c5.148,0,9.549-1.677,13.201-5.031
			c3.639-3.353,5.458-7.406,5.458-12.158C104.791,100.859,102.971,97.955,99.332,96.449z"/>
		<path clip-path="url(#SVGID_2_)" fill-rule="evenodd" clip-rule="evenodd" fill="#FDD29A" d="M80.316,105.544
			c-1.747,0.364-3.403,0.548-4.967,0.548c0,1.214,1.13,2.254,3.392,3.115c2.26,0.864,4.991,1.295,8.195,1.295
			c3.207,0,5.939-0.431,8.199-1.295c2.259-0.861,3.389-1.901,3.389-3.115l-1.42-0.073c-1.154-0.085-2.26-0.243-3.31-0.475
			c-3.402-0.729-5.689-2.011-6.858-3.846C86.005,103.533,83.798,104.815,80.316,105.544z"/>
		<path clip-path="url(#SVGID_2_)" fill-rule="evenodd" clip-rule="evenodd" fill="#6D3D3E" d="M54.816,38.629l3.548,24.226
			c0.263-0.596,0.708-1.282,1.339-2.059c1.261-1.556,2.798-2.796,4.612-3.72c5.833-2.952,13.373-2.199,22.621,2.261
			c1.354-0.863,3.049-1.676,5.084-2.442c4.101-1.52,7.891-2,11.371-1.44c3.469,0.56,6.254,2.072,8.355,4.539
			c0.657,0.777,1.209,1.604,1.655,2.479c0.21,0.437,0.363,0.795,0.455,1.075l0.177-15.238c0.092-1.373-0.145-2.988-0.71-4.849
			c-1.144-3.718-3.375-6.787-6.701-9.205c-2.928-2.127-5.655-3.773-8.178-4.94c-1.261-0.595-2.227-0.973-2.896-1.13l-0.828,1.312
			c-0.762,0.923-1.688,1.501-2.778,1.731c-1.288-2.722-4.032-4.587-8.237-5.596c-2.102-0.498-4.08-0.723-5.932-0.675l1.498,2.734
			c0.932,2.138,1.255,3.98,0.965,5.523c-1.667-2.151-4.754-3.159-9.261-3.026c-2.247,0.073-4.33,0.359-6.247,0.857l0.966,3.154
			c0.762,2.588,1.438,5.115,2.029,7.583c-3.075-2.649-6.148-3.968-9.222-3.957C56.964,37.827,55.735,38.096,54.816,38.629z"/>
		<path clip-path="url(#SVGID_2_)" fill-rule="evenodd" clip-rule="evenodd" d="M96.552,75.706c0.354,0.41,0.839,0.613,1.459,0.613
			c0.617,0,1.147-0.203,1.589-0.613c0.353-0.326,0.53-0.774,0.53-1.347c0-0.57-0.177-1.061-0.53-1.47
			c-0.442-0.326-0.973-0.49-1.589-0.49c-0.62,0-1.105,0.164-1.459,0.49c-0.44,0.41-0.663,0.9-0.663,1.47
			C95.889,74.932,96.112,75.38,96.552,75.706z"/>
		<path clip-path="url(#SVGID_2_)" fill-rule="evenodd" clip-rule="evenodd" d="M72.243,75.706c0.353,0.41,0.84,0.613,1.457,0.613
			c0.62,0,1.148-0.203,1.591-0.613c0.352-0.326,0.528-0.774,0.528-1.347c0-0.57-0.176-1.061-0.528-1.47
			c-0.443-0.326-0.971-0.49-1.591-0.49c-0.617,0-1.104,0.164-1.457,0.49c-0.442,0.41-0.662,0.9-0.662,1.47
			C71.581,74.932,71.8,75.38,72.243,75.706z"/>
		<path clip-path="url(#SVGID_2_)" fill-rule="evenodd" clip-rule="evenodd" fill="#2F4678" d="M131.956,141.381
			c-5.388-4.982-11.879-7.475-19.474-7.475H64.129c-7.683,0-14.22,2.493-19.606,7.475c-5.386,4.982-8.081,10.987-8.081,18.011
			l3.181,126.813h98.295l2.12-126.813C140.038,152.368,137.345,146.363,131.956,141.381z"/>
		<polygon clip-path="url(#SVGID_2_)" fill-rule="evenodd" clip-rule="evenodd" fill="#445A7D" points="107.146,161.861 
			114.531,152.647 103.399,134.585 89.645,250.173 117.396,169.628 		"/>
		<polygon clip-path="url(#SVGID_2_)" fill-rule="evenodd" clip-rule="evenodd" fill="#445A7D" points="68.353,161.861 
			58.105,169.628 89.645,250.173 72.101,134.585 60.969,152.647 		"/>
		<polygon clip-path="url(#SVGID_2_)" fill-rule="evenodd" clip-rule="evenodd" fill="#EAF6FD" points="103.399,134.585 
			70.293,134.585 89.645,250.173 		"/>
		<polygon clip-path="url(#SVGID_2_)" fill-rule="evenodd" clip-rule="evenodd" fill="#FFFFFF" points="98.131,128.857 
			86.604,144.982 97.911,155.91 108.755,138.418 		"/>
		<polygon clip-path="url(#SVGID_2_)" fill-rule="evenodd" clip-rule="evenodd" fill="#FFFFFF" points="75.913,129.061 
			65.29,138.621 75.539,155.91 86.604,144.982 		"/>
		<polygon clip-path="url(#SVGID_2_)" fill-rule="evenodd" clip-rule="evenodd" fill="#C96959" points="86.604,144.982 
			81.005,198.515 89.645,250.173 95.794,198.556 		"/>
		<polygon clip-path="url(#SVGID_2_)" fill-rule="evenodd" clip-rule="evenodd" fill="#C96959" points="86.604,144.982 
			78.249,153.238 87.508,163.431 95.554,153.585 		"/>
		<path clip-path="url(#SVGID_2_)" fill-rule="evenodd" clip-rule="evenodd" fill="#2F4678" d="M45.775,139.449
			c3.159-1.875,5.847-3.146,8.067-3.813l6.788,18.816c-1.425,0.517-3.166,1.467-5.225,2.854c-4.098,2.758-7.911,6.393-11.438,10.906
			c-11.212,14.337-17.516,34.642-18.912,60.913c-0.573,10.899-0.787,21.432-0.64,31.597H2.947
			c-0.146-10.668,0.081-21.52,0.683-32.555c1.718-32.401,10.366-57.427,25.942-75.083C34.525,147.459,39.926,142.915,45.775,139.449
			z"/>
		<path clip-path="url(#SVGID_2_)" fill-rule="evenodd" clip-rule="evenodd" fill="#FDD29A" d="M237.714,170.621l9.838-3.05
			c2.955-0.955,4.921-2.152,5.904-3.596l0.512-0.674c1.334-2.001,3.042-3.679,5.125-5.026l1.583-1.061
			c0.818-0.568,1.295-1.393,1.431-2.475c0.153-1.035-0.106-2.001-0.78-2.905l-0.785-1.024c-0.671-0.901-1.641-1.668-2.908-2.3
			c-1.244-0.586-2.424-0.869-3.536-0.85l-5.408,0.151c-1.092,0.063-2.211,0.414-3.357,1.042c-1.168,0.584-2.04,1.306-2.618,2.169
			l-2.173,3.23c-0.777,1.096-4.072,3.886-9.895,8.377L237.714,170.621z"/>
		<path clip-path="url(#SVGID_2_)" fill-rule="evenodd" clip-rule="evenodd" fill="#2F4678" d="M246.398,169.239l-12.069-12.419
			c0,0-42.089,36.311-59.219,33.629c-15.69-2.458-40.266-45.603-40.266-45.603l-15.443,11.667c0,0,29.957,52.863,49.156,55.982
			C190.917,216.128,246.398,169.239,246.398,169.239z"/>
	</g>
</g>
</svg>
