<?xml version="1.0" encoding="utf-8"?>
<!-- Generator: Adobe Illustrator 15.1.0, SVG Export Plug-In . SVG Version: 6.00 Build 0)  -->
<!DOCTYPE svg PUBLIC "-//W3C//DTD SVG 1.1//EN" "http://www.w3.org/Graphics/SVG/1.1/DTD/svg11.dtd">
<svg version="1.1" xmlns="http://www.w3.org/2000/svg" xmlns:xlink="http://www.w3.org/1999/xlink" x="0px" y="0px"
	 width="320.191px" height="216.641px" viewBox="0 0 320.191 216.641" enable-background="new 0 0 320.191 216.641"
	 xml:space="preserve">
<g id="белвесь" display="none">
	<rect x="-464.91" y="-489.149" display="inline" fill="#FFFFFF" width="1280" height="760"/>
</g>
<g id="Layer_6" display="none">
	<rect x="-31.481" y="-289.295" display="inline" fill="#FFFFFF" width="331.375" height="214.579"/>
</g>
<g id="Layer_8" display="none">
	<rect x="-19.328" y="-5.395" display="inline" fill="#FFFFFF" width="352.667" height="228"/>
</g>
<g id="Layer_1">
	<g id="Layer_3_1_">
		<g id="Layer_2_2_">
			
				<linearGradient id="SVGID_1_" gradientUnits="userSpaceOnUse" x1="-623.6201" y1="-256.8242" x2="79.4097" y2="-256.8242" gradientTransform="matrix(1 0 0 -1 219.1001 -587.0566)">
				<stop  offset="0" style="stop-color:#AED145"/>
				<stop  offset="1" style="stop-color:#8EB33E"/>
			</linearGradient>
			<rect x="-404.52" y="-343.232" fill="url(#SVGID_1_)" width="703.03" height="26"/>
		</g>
	</g>
	<g id="Layer_4">
		<g id="Layer_2_6_">
			
				<linearGradient id="SVGID_2_" gradientUnits="userSpaceOnUse" x1="-623.6201" y1="-543.2891" x2="-9.293" y2="-543.2891" gradientTransform="matrix(1 0 0 -1 219.1001 -587.0566)">
				<stop  offset="0" style="stop-color:#AED145"/>
				<stop  offset="1" style="stop-color:#8EB33E"/>
			</linearGradient>
			<rect x="-404.52" y="-56.768" fill="url(#SVGID_2_)" width="614.327" height="26"/>
		</g>
	</g>
	<g>
		<g id="Layer_1_2_">
			<g>
				<path fill-rule="evenodd" clip-rule="evenodd" fill="#CC6600" d="M50.652-248.523c-0.02,2.327-0.039,4.55-0.058,6.665
					l-1.213,1.645c-0.019-0.52-0.029-1.124-0.029-1.817c-0.077-2.924-0.116-6.059-0.116-9.406c-0.038-3.02-0.951-5.001-2.741-5.942
					l-2.539-1.01c0.423,1.499,1.346,2.49,2.77,2.971l-1.01,0.432c-2.73,0.521-5.145,0.848-7.241,0.981
					c-4.175,0.154-7.637-0.191-10.387-1.039c-2.77-0.845-4.117,0.741-4.039,4.761c0.077,4.003,0.114,7.473,0.114,10.416
					l-1.471-1.673v-6.723c-0.077-4.5-0.115-7.599-0.115-9.291s0.259-3,0.779-3.924c0.539-0.904,1.01-1.596,1.415-2.077
					c0.538-0.769,1.326-1.481,2.365-2.135c1-0.616,2.146-1.125,3.434-1.529c1.347-0.423,2.521-0.673,3.52-0.749
					c0.673-0.058,2.135-0.058,4.386,0c0.499,0.019,1.057,0.057,1.672,0.114c2.751,0.212,4.934,1.067,6.55,2.568
					c1.077,1.02,2.039,2.374,2.886,4.068c0.826,1.713,1.2,5.52,1.124,11.424C50.67-249.369,50.652-248.946,50.652-248.523z"/>
				<path fill-rule="evenodd" clip-rule="evenodd" fill="#FFDA8C" d="M98.346-281.011V-77.6l-8.975,0.087v-139.677v-7.56
					c2.039-0.114,3.326-0.789,3.866-2.019c-0.884-0.539-1.452-0.885-1.702-1.039c-0.751,0-1.472,0.038-2.164,0.115v-53.319H98.346z"
					/>
				<path fill-rule="evenodd" clip-rule="evenodd" fill="#990000" d="M142.952-229.308c0.096,0,0.191,0.05,0.287,0.145
					c0.077,0.077,0.116,0.164,0.116,0.261c0,0.114-0.039,0.221-0.116,0.316c-0.096,0.078-0.191,0.116-0.287,0.116h-8.455
					c-0.115,0-0.21-0.038-0.288-0.116c-0.096-0.096-0.145-0.202-0.145-0.316c0-0.097,0.049-0.184,0.145-0.261
					c0.078-0.095,0.173-0.145,0.288-0.145H142.952z M142.952-215.632h-18.322c-0.115,0-0.212-0.038-0.289-0.114
					c-0.096-0.095-0.144-0.202-0.144-0.318c0-0.114,0.048-0.212,0.144-0.288c0.077-0.095,0.174-0.144,0.289-0.144h18.322
					c0.096,0,0.191,0.049,0.287,0.144c0.077,0.076,0.116,0.174,0.116,0.288c0,0.116-0.039,0.224-0.116,0.318
					C143.143-215.67,143.047-215.632,142.952-215.632z M142.952-241.252h-18.322c-0.115,0-0.212-0.038-0.289-0.115
					c-0.096-0.097-0.144-0.203-0.144-0.318c0-0.097,0.048-0.183,0.144-0.258c0.077-0.098,0.174-0.145,0.289-0.145h18.322
					c0.096,0,0.191,0.047,0.287,0.145c0.077,0.075,0.116,0.161,0.116,0.258c0,0.115-0.039,0.222-0.116,0.318
					C143.143-241.29,143.047-241.252,142.952-241.252z M142.952-253.688h-8.627c-0.098,0-0.183-0.048-0.261-0.145
					c-0.096-0.077-0.144-0.174-0.144-0.288c0-0.115,0.048-0.212,0.144-0.288c0.078-0.097,0.163-0.146,0.261-0.146h8.627
					c0.096,0,0.191,0.049,0.287,0.146c0.077,0.076,0.116,0.173,0.116,0.288c0,0.114-0.039,0.211-0.116,0.288
					C143.143-253.735,143.047-253.688,142.952-253.688z M142.952-265.372h-18.322c-0.115,0-0.212-0.039-0.289-0.115
					c-0.096-0.097-0.144-0.203-0.144-0.318c0-0.116,0.048-0.212,0.144-0.289c0.077-0.096,0.174-0.145,0.289-0.145h18.322
					c0.096,0,0.191,0.049,0.287,0.145c0.077,0.077,0.116,0.173,0.116,0.289c0,0.115-0.039,0.222-0.116,0.318
					C143.143-265.411,143.047-265.372,142.952-265.372z M142.952-154.376c0.096,0,0.191,0.048,0.287,0.144
					c0.077,0.077,0.116,0.163,0.116,0.26c0,0.115-0.039,0.222-0.116,0.316c-0.096,0.077-0.191,0.117-0.287,0.117h-8.974
					c-0.115,0-0.21-0.04-0.288-0.117c-0.077-0.095-0.116-0.201-0.116-0.316c0-0.097,0.039-0.183,0.116-0.26
					c0.078-0.096,0.173-0.144,0.288-0.144H142.952z M142.952-178.383h-8.801c-0.114,0-0.211-0.037-0.288-0.114
					c-0.095-0.097-0.145-0.193-0.145-0.288c0-0.116,0.05-0.213,0.145-0.288c0.077-0.099,0.174-0.145,0.288-0.145h8.801
					c0.096,0,0.191,0.046,0.287,0.145c0.077,0.075,0.116,0.172,0.116,0.288c0,0.095-0.039,0.191-0.116,0.288
					C143.143-178.42,143.047-178.383,142.952-178.383z M142.952-165.571h-18.322c-0.115,0-0.212-0.04-0.289-0.116
					c-0.096-0.096-0.144-0.202-0.144-0.317c0-0.097,0.048-0.182,0.144-0.26c0.077-0.095,0.174-0.144,0.289-0.144h18.322
					c0.096,0,0.191,0.049,0.287,0.144c0.077,0.078,0.116,0.163,0.116,0.26c0,0.115-0.039,0.222-0.116,0.317
					C143.143-165.611,143.047-165.571,142.952-165.571z M142.952-190.442h-18.322c-0.115,0-0.212-0.038-0.289-0.115
					c-0.096-0.078-0.144-0.174-0.144-0.289s0.048-0.212,0.144-0.289c0.077-0.097,0.174-0.145,0.289-0.145h18.322
					c0.096,0,0.191,0.048,0.287,0.145c0.077,0.077,0.116,0.174,0.116,0.289s-0.039,0.211-0.116,0.289
					C143.143-190.48,143.047-190.442,142.952-190.442z M142.952-203.629h-8.974c-0.115,0-0.21-0.037-0.288-0.115
					c-0.077-0.095-0.116-0.2-0.116-0.317c0-0.095,0.039-0.191,0.116-0.289c0.078-0.076,0.173-0.113,0.288-0.113h8.974
					c0.096,0,0.191,0.037,0.287,0.113c0.077,0.098,0.116,0.194,0.116,0.289c0,0.117-0.039,0.223-0.116,0.317
					C143.143-203.666,143.047-203.629,142.952-203.629z M142.952-144.74c0.096,0,0.191,0.048,0.287,0.145
					c0.077,0.077,0.116,0.164,0.116,0.26c0,0.115-0.039,0.221-0.116,0.318c-0.096,0.075-0.191,0.114-0.287,0.114h-18.322
					c-0.115,0-0.212-0.039-0.289-0.114c-0.096-0.098-0.144-0.203-0.144-0.318c0-0.096,0.048-0.183,0.144-0.26
					c0.077-0.097,0.174-0.145,0.289-0.145H142.952z M142.952-107.837c0.096,0,0.191,0.049,0.287,0.144
					c0.077,0.077,0.116,0.174,0.116,0.289c0,0.097-0.039,0.193-0.116,0.29c-0.096,0.075-0.191,0.113-0.287,0.113h-8.455
					c-0.115,0-0.21-0.038-0.288-0.113c-0.096-0.097-0.145-0.193-0.145-0.29c0-0.115,0.049-0.212,0.145-0.289
					c0.078-0.095,0.173-0.144,0.288-0.144H142.952z M142.952-119.753h-18.322c-0.115,0-0.212-0.039-0.289-0.117
					c-0.096-0.094-0.144-0.191-0.144-0.286c0-0.116,0.048-0.213,0.144-0.29c0.077-0.097,0.174-0.145,0.289-0.145h18.322
					c0.096,0,0.191,0.048,0.287,0.145c0.077,0.077,0.116,0.174,0.116,0.29c0,0.095-0.039,0.192-0.116,0.286
					C143.143-119.792,143.047-119.753,142.952-119.753z M142.952-94.161h-18.322c-0.115,0-0.212-0.038-0.289-0.115
					c-0.096-0.096-0.144-0.202-0.144-0.318c0-0.097,0.048-0.182,0.144-0.259c0.077-0.096,0.174-0.144,0.289-0.144h18.322
					c0.096,0,0.191,0.048,0.287,0.144c0.077,0.077,0.116,0.162,0.116,0.259c0,0.116-0.039,0.223-0.116,0.318
					C143.143-94.199,143.047-94.161,142.952-94.161z M142.952-132.218h-8.627c-0.098,0-0.183-0.037-0.261-0.115
					c-0.096-0.096-0.144-0.202-0.144-0.317c0-0.095,0.048-0.193,0.144-0.288c0.078-0.077,0.163-0.115,0.261-0.115h8.627
					c0.096,0,0.191,0.038,0.287,0.115c0.077,0.095,0.116,0.193,0.116,0.288c0,0.115-0.039,0.222-0.116,0.317
					C143.143-132.255,143.047-132.218,142.952-132.218z"/>
				<path fill-rule="evenodd" clip-rule="evenodd" fill="#FFCC66" d="M142.952-94.161V-77.6H98.346v-203.411h44.605v14.771h-18.322
					c-0.115,0-0.212,0.049-0.289,0.145c-0.096,0.077-0.144,0.173-0.144,0.289c0,0.115,0.048,0.222,0.144,0.318
					c0.077,0.076,0.174,0.115,0.289,0.115h18.322v10.818h-8.627c-0.098,0-0.183,0.049-0.261,0.146
					c-0.096,0.076-0.144,0.173-0.144,0.288c0,0.114,0.048,0.211,0.144,0.288c0.078,0.097,0.163,0.145,0.261,0.145h8.627v11.6
					h-18.322c-0.115,0-0.212,0.047-0.289,0.145c-0.096,0.075-0.144,0.161-0.144,0.258c0,0.115,0.048,0.222,0.144,0.318
					c0.077,0.077,0.174,0.115,0.289,0.115h18.322v11.944h-8.455c-0.115,0-0.21,0.05-0.288,0.145
					c-0.096,0.077-0.145,0.164-0.145,0.261c0,0.114,0.049,0.221,0.145,0.316c0.078,0.078,0.173,0.116,0.288,0.116h8.455v11.974
					h-18.322c-0.115,0-0.212,0.049-0.289,0.144c-0.096,0.076-0.144,0.174-0.144,0.288c0,0.116,0.048,0.224,0.144,0.318
					c0.077,0.076,0.174,0.114,0.289,0.114h18.322v11.168h-8.974c-0.115,0-0.21,0.037-0.288,0.113
					c-0.077,0.098-0.116,0.194-0.116,0.289c0,0.117,0.039,0.223,0.116,0.317c0.078,0.078,0.173,0.115,0.288,0.115h8.974v12.349
					h-18.322c-0.115,0-0.212,0.048-0.289,0.145c-0.096,0.077-0.144,0.174-0.144,0.289s0.048,0.211,0.144,0.289
					c0.077,0.077,0.174,0.115,0.289,0.115h18.322v11.225h-8.801c-0.114,0-0.211,0.046-0.288,0.145
					c-0.095,0.075-0.145,0.172-0.145,0.288c0,0.095,0.05,0.191,0.145,0.288c0.077,0.077,0.174,0.114,0.288,0.114h8.801v11.975
					h-18.322c-0.115,0-0.212,0.049-0.289,0.144c-0.096,0.078-0.144,0.163-0.144,0.26c0,0.115,0.048,0.222,0.144,0.317
					c0.077,0.076,0.174,0.116,0.289,0.116h18.322v11.195h-8.974c-0.115,0-0.21,0.048-0.288,0.144
					c-0.077,0.077-0.116,0.163-0.116,0.26c0,0.115,0.039,0.222,0.116,0.316c0.078,0.077,0.173,0.117,0.288,0.117h8.974v8.799
					h-18.322c-0.115,0-0.212,0.048-0.289,0.145c-0.096,0.077-0.144,0.164-0.144,0.26c0,0.115,0.048,0.221,0.144,0.318
					c0.077,0.075,0.174,0.114,0.289,0.114h18.322v10.85h-8.627c-0.098,0-0.183,0.038-0.261,0.115
					c-0.096,0.095-0.144,0.193-0.144,0.288c0,0.115,0.048,0.222,0.144,0.317c0.078,0.078,0.163,0.115,0.261,0.115h8.627v11.627
					h-18.322c-0.115,0-0.212,0.048-0.289,0.145c-0.096,0.077-0.144,0.174-0.144,0.29c0,0.095,0.048,0.192,0.144,0.286
					c0.077,0.078,0.174,0.117,0.289,0.117h18.322v11.916h-8.455c-0.115,0-0.21,0.049-0.288,0.144
					c-0.096,0.077-0.145,0.174-0.145,0.289c0,0.097,0.049,0.193,0.145,0.29c0.078,0.075,0.173,0.113,0.288,0.113h8.455v12.004
					h-18.322c-0.115,0-0.212,0.048-0.289,0.144c-0.096,0.077-0.144,0.162-0.144,0.259c0,0.116,0.048,0.223,0.144,0.318
					c0.077,0.077,0.174,0.115,0.289,0.115H142.952z"/>
				<path fill-rule="evenodd" clip-rule="evenodd" fill="#FF9966" d="M33.542-223.882c-0.25-0.078-0.481-0.155-0.692-0.231
					c-0.558-0.174-1.021-0.338-1.385-0.49c-0.117-0.02-0.222-0.058-0.317-0.116c-0.828-0.289-1.771-0.778-2.829-1.472
					c-1.077-0.711-1.971-1.5-2.683-2.365c-0.731-0.885-1.328-1.963-1.789-3.232c-0.461-1.308-0.807-3.095-1.038-5.365
					c-0.078-0.578-0.116-1.077-0.116-1.501v-1.24c-0.173,0.077-0.586-0.011-1.24-0.26c-0.655-0.23-1.309-0.827-1.962-1.788
					c-0.674-0.981-0.76-2.224-0.26-3.723c0.481-1.521,1.635-2.387,3.462-2.598v6.723l1.471,1.673c0-2.943-0.038-6.413-0.114-10.416
					c-0.078-4.02,1.269-5.605,4.039-4.761c2.75,0.848,6.212,1.193,10.387,1.039c2.096-0.134,4.511-0.46,7.241-0.981l1.01-0.432
					c-1.424-0.48-2.347-1.472-2.77-2.971l2.539,1.01c1.79,0.941,2.703,2.923,2.741,5.942c0,3.348,0.039,6.482,0.116,9.406
					c0,0.693,0.01,1.298,0.029,1.817l1.213-1.645c0.019-2.115,0.038-4.338,0.058-6.665c1.865,0.23,3.038,1.105,3.52,2.627
					c0.5,1.5,0.414,2.74-0.26,3.722c-0.673,0.962-1.326,1.558-1.961,1.789c-0.635,0.249-1.088,0.327-1.356,0.23
					c0,0.229,0,0.73,0,1.5c0.019,0.635,0.009,1.135-0.029,1.501c-0.154,2.462-0.337,4.145-0.548,5.049
					c-0.347,1.308-0.981,2.549-1.905,3.723c-0.365,0.441-0.961,1.047-1.788,1.817c-0.173,0.152-0.405,0.337-0.693,0.547
					c-0.788,0.48-1.527,0.903-2.221,1.27c-0.384,0.192-0.769,0.366-1.154,0.521c-0.231,0.115-0.461,0.221-0.692,0.316l-2.511,3.175
					l-5.223-3.03C33.735-223.806,33.637-223.845,33.542-223.882z M85.966-217.189l-5.28-4.933c0.3-0.75,0.665-1.418,1.097-2.006
					c0.714-0.972,1.607-1.726,2.684-2.264c1.674-0.925,3.309-1.357,4.905-1.3c0.692-0.077,1.413-0.115,2.164-0.115
					c0.25,0.154,0.818,0.5,1.702,1.039c-0.54,1.229-1.827,1.904-3.866,2.019v7.56H85.966z M13.807-172.324l1.211-0.72v-0.231
					c0.153-0.172,0.547-0.501,1.182-0.98c0.982,0.809,0.74,1.847-0.722,3.115c1.617,0,3.146,0.568,4.589,1.703v1.212
					c-2.097,4.655-5.396,5.54-9.896,2.654l-1.443-3.608L13.807-172.324z M43.496-246.301c0.27,0.249,0.577,0.374,0.923,0.374
					c0.345,0,0.653-0.125,0.923-0.374c0.269-0.25,0.405-0.559,0.405-0.924c0-0.346-0.136-0.663-0.405-0.951
					c-0.27-0.252-0.578-0.375-0.923-0.375c-0.347,0-0.654,0.123-0.923,0.375c-0.25,0.288-0.376,0.605-0.376,0.951
					C43.12-246.859,43.246-246.551,43.496-246.301z M32.128-246.677c0-0.365-0.125-0.674-0.375-0.923
					c-0.25-0.25-0.558-0.375-0.923-0.375c-0.367,0-0.674,0.125-0.924,0.375l-0.028,0.029c-0.097,0.096-0.164,0.22-0.202,0.374
					c-0.077,0.154-0.115,0.327-0.115,0.52c0,0.366,0.115,0.675,0.346,0.924c0.25,0.231,0.558,0.346,0.924,0.346
					c0.365,0,0.673-0.114,0.923-0.346C32.003-246.002,32.128-246.311,32.128-246.677z M44.103-235.48
					c-3.714,2.135-7.619,2.154-11.715,0.057c-0.231,1.673-0.048,3.135,0.547,4.386c0.559,0.808,1.126,1.347,1.704,1.615
					c1.269,0.558,2.384,0.816,3.346,0.779c1.328-0.018,2.655-0.396,3.981-1.126c0.674-0.363,1.193-0.865,1.559-1.499
					C44.122-232.809,44.313-234.212,44.103-235.48z"/>
				<path fill-rule="evenodd" clip-rule="evenodd" fill="#003366" d="M56.681-154.723H45.834l-6.724,0.462l-12.292,0.26h-6.751
					v-14.225v-1.212l-0.491-34.191L8.238-187.73l6.781,14.455c-0.327-0.172-0.731,0.145-1.211,0.951l-5.079,3.145l-3.145,1.936
					l-7.934-19.304c-0.481-2.731,0.971-5.462,4.355-8.193c9.138-9.637,14.514-15.985,16.129-19.043
					c0.962-2.057,1.934-3.337,2.914-3.839c0.924-0.633,2.521-1.104,4.791-1.414c1.211-0.269,2.327-0.431,3.346-0.49l-1.788,10.243
					l5.886,1.184l-3.548,5.368L44.13-180.69l5.8-25.419l-4.617-2.798l5.858-3.06l-3.55-9.031h4.011l15.841,12.781l11.599-15.406
					l1.614,1.501l5.28,4.933l0.576,0.578l-15.405,17.57c-1.616,1.404-3.309,1.56-5.079,0.461l-7.703-5.049
					c-1.615,16.312-0.731,32.613,2.654,48.906H56.681z"/>
				<path fill-rule="evenodd" clip-rule="evenodd" d="M32.128-246.677c0,0.366-0.125,0.675-0.375,0.924
					c-0.25,0.231-0.558,0.346-0.923,0.346c-0.367,0-0.674-0.114-0.924-0.346c-0.23-0.249-0.346-0.558-0.346-0.924
					c0-0.192,0.038-0.365,0.115-0.52c0.039-0.154,0.105-0.278,0.202-0.374l0.028-0.029c0.25-0.25,0.558-0.375,0.924-0.375
					c0.365,0,0.673,0.125,0.923,0.375C32.003-247.351,32.128-247.042,32.128-246.677z M43.496-246.301
					c-0.25-0.25-0.376-0.559-0.376-0.924c0-0.346,0.125-0.663,0.376-0.951c0.27-0.252,0.577-0.375,0.923-0.375
					c0.345,0,0.653,0.123,0.923,0.375c0.269,0.288,0.405,0.605,0.405,0.951c0,0.365-0.136,0.674-0.405,0.924
					c-0.27,0.249-0.578,0.374-0.923,0.374C44.073-245.927,43.766-246.052,43.496-246.301z"/>
				<path fill-rule="evenodd" clip-rule="evenodd" fill="#333366" d="M44.13-180.69v-13.1l0.866-25.015l0.634-1.529l-3.375-3.895
					c0.385-0.154,0.77-0.328,1.154-0.521l2.683,0.981l1.529,2.77l3.55,9.031l-5.858,3.06l4.617,2.798L44.13-180.69l-14.396-22.042
					l3.548-5.368l-5.886-1.184l1.788-10.243l0.982-2.595l2.684-1.991c0.211,0.076,0.442,0.153,0.692,0.231l-2.54,5.192l1.271,1.126
					l6.347,23.543L44.13-180.69z M45.834-154.723h10.847l-1.24,68.64h-0.895h-2.611h-5.872h-1.587L45.834-154.723z M25.982-87.293
					l-6.175-2.626l-1.24-0.519l8.251-34.451v-29.112l12.292-0.26l-1.211,31.074L27.685-87.005
					C27.454-87.293,26.887-87.39,25.982-87.293z"/>
				<path fill-rule="evenodd" clip-rule="evenodd" fill="#FFFFFF" d="M42.255-224.229l3.375,3.895l-0.634,1.529L44.13-193.79
					l-3.953-19.101l2.078-2.596l-3.203-5.251l-2.136,5.741l2.425,2.251l-0.722,18.725l-6.347-23.543l-1.271-1.126l2.54-5.192
					c0.095,0.037,0.193,0.076,0.288,0.114l5.223,3.03l2.511-3.175C41.794-224.008,42.024-224.113,42.255-224.229z M44.103-235.48
					c0.21,1.269,0.019,2.672-0.578,4.212c-0.366,0.634-0.885,1.136-1.559,1.499c-1.326,0.73-2.653,1.108-3.981,1.126
					c-0.962,0.037-2.077-0.222-3.346-0.779c-0.578-0.269-1.145-0.808-1.704-1.615c-0.596-1.251-0.779-2.713-0.547-4.386
					C36.484-233.326,40.389-233.346,44.103-235.48z"/>
				<polygon fill-rule="evenodd" clip-rule="evenodd" fill="#FFCC00" points="44.13,-193.79 44.13,-180.69 38.62,-194.021 
					39.342,-212.745 36.917,-214.996 39.053,-220.737 42.255,-215.486 40.178,-212.891 				"/>
				<path fill-rule="evenodd" clip-rule="evenodd" fill="#CCCCCC" d="M65.712-77.312l0.289,1.213
					c0.096,0.942-0.097,1.884-0.577,2.827c-0.481,0.98-1.279,1.721-2.396,2.222c-0.98,0.482-1.808,0.711-2.48,0.692
					c-5.271-0.848-10.917-2.192-16.938-4.039l0.52-1.991l5.598,1.472l5.597,1.501l2.193,0.316c1.596,0.192,2.817,0.192,3.664,0
					c0.808-0.211,1.837-0.817,3.086-1.817C65.097-75.646,65.577-76.444,65.712-77.312z M51.935-86.083
					c-0.4,0.012-0.715,0.185-0.938,0.52c-0.25,0.327-0.414,0.578-0.49,0.752c-0.078,0.152-0.163,0.23-0.261,0.23
					c-0.077-0.021-0.711,0.028-1.904,0.143c-1.211,0.077-2.145,0.077-2.798,0l0.519-1.645H51.935z M14.008-85.13l3.953,4.76
					l4.011,4.733l1.702,1.644c1.25,1.155,2.317,1.885,3.203,2.193c0.827,0.326,2.097,0.471,3.809,0.433
					c1.634-0.039,2.76-0.529,3.375-1.471l-1.097,1.817c-0.48,0.827-1.23,1.482-2.25,1.961c-1,0.404-2.308,0.452-3.923,0.144
					l-2.223-0.634L12.624-83.457L14.008-85.13z M19.808-89.919l6.175,2.626c-0.097,0-0.356,0.066-0.779,0.2
					c-0.442,0.136-0.933,0.376-1.471,0.723c-0.712-0.153-1.414-0.442-2.107-0.866c-0.711-0.423-1.625-1.087-2.741-1.991
					L19.808-89.919z"/>
				<path fill-rule="evenodd" clip-rule="evenodd" fill="#999999" d="M51.935-86.083h2.611l0.895,1.963l-2.626,3.317l1.183,0.606
					c0-0.038,0.174-0.298,0.52-0.779c0.251-0.403,0.597-0.913,1.039-1.529c0.135-0.212,0.298-0.45,0.49-0.721
					c0.174,0.095,0.347,0.191,0.52,0.287c0.058,0.021,0.125,0.048,0.203,0.088c-0.404,0.578-0.771,1.126-1.098,1.645
					c-0.27,0.366-0.528,0.761-0.779,1.182l1.184,0.78l1.673-3.087c1.597,0.864,3.146,1.809,4.646,2.825
					c1.481,1.003,2.578,1.725,3.289,2.165h0.029c-0.02,0.02-0.02,0.029,0,0.029c-0.136,0.867-0.615,1.665-1.443,2.396
					c-1.249,1-2.278,1.606-3.086,1.817c-0.847,0.192-2.068,0.192-3.664,0l-2.193-0.316l-5.597-1.501
					c0-2.348-0.539-4.175-1.617-5.481c-1.058-1.327-2-2.175-2.828-2.541l0.261-1.5c0.653,0.077,1.587,0.077,2.798,0
					c1.193-0.114,1.827-0.163,1.904-0.143c0.098,0,0.183-0.078,0.261-0.23c0.076-0.174,0.24-0.425,0.49-0.752
					C51.22-85.898,51.535-86.071,51.935-86.083z M30.137-81.551l0.116,0.114c0.057,0.038,0.096,0.076,0.114,0.114
					c0.153,0.154,1.385,2.982,3.693,8.484c-0.615,0.941-1.741,1.432-3.375,1.471c-1.712,0.038-2.982-0.106-3.809-0.433
					c-0.885-0.309-1.953-1.038-3.203-2.193l-1.702-1.644l-4.011-4.733c1.405-2.23,1.405-4.962,0-8.194l0.923-0.663
					c1.116,0.904,2.029,1.568,2.741,1.991c0.693,0.424,1.395,0.713,2.107,0.866c0.538-0.347,1.029-0.587,1.471-0.723
					c0.423-0.134,0.682-0.2,0.779-0.2c0.904-0.097,1.471,0,1.703,0.288c0.789,0.269,1.172,1.115,1.153,2.538l-3.779,1.184
					l0.605,1.096c0.019-0.019,1.173-0.354,3.462-1.01c0.038,0.059,0.068,0.106,0.087,0.144c0.057,0.155,0.125,0.271,0.202,0.348
					c0,0.02,0.01,0.059,0.029,0.116c0.019,0.018,0.028,0.058,0.028,0.113v0.03l-0.403,0.143c-0.692,0.154-1.606,0.435-2.741,0.837
					l0.462,1.271L30.137-81.551z"/>
				<path fill-rule="evenodd" clip-rule="evenodd" fill="#666666" d="M56.046-83.226c-0.192,0.271-0.355,0.509-0.49,0.721
					c-0.442,0.616-0.788,1.126-1.039,1.529c-0.346,0.481-0.52,0.741-0.52,0.779l-1.183-0.606l2.626-3.317
					C55.576-83.794,55.778-83.495,56.046-83.226z M57.749-82.331l-1.673,3.087l-1.184-0.78c0.251-0.421,0.51-0.815,0.779-1.182
					c0.327-0.519,0.693-1.066,1.098-1.645C57.095-82.679,57.422-82.505,57.749-82.331z M49.729-74.916l-5.598-1.472l1.154-6.551
					c0.828,0.366,1.77,1.214,2.828,2.541C49.189-79.091,49.729-77.264,49.729-74.916z M28.838-84.467
					c0.077,0.501,0.174,0.923,0.289,1.27c-2.289,0.655-3.443,0.991-3.462,1.01l-0.605-1.096L28.838-84.467z M30.137-81.551
					l-3.347,1.354l-0.462-1.271c1.135-0.402,2.049-0.683,2.741-0.837l0.403-0.143c0.039,0.038,0.078,0.076,0.116,0.115
					c0.077,0.115,0.201,0.306,0.375,0.577C30.021-81.695,30.079-81.63,30.137-81.551z M17.961-80.37l-3.953-4.76l3.347-2.972
					l0.606-0.463C19.366-85.332,19.366-82.601,17.961-80.37z"/>
				<g>
					<path fill="#663333" d="M122.87-265.57h-4.323v-1.131h1.365v-3.424h-1.365v-1.059c0.209,0,0.408-0.011,0.6-0.036
						c0.191-0.026,0.351-0.067,0.479-0.129c0.15-0.073,0.265-0.167,0.34-0.283c0.076-0.116,0.119-0.261,0.13-0.435h1.44v5.365h1.335
						V-265.57z"/>
				</g>
				<g>
					<path fill="#663333" d="M122.703-241.622h-5.087v-1.071c0.389-0.281,0.779-0.579,1.168-0.896
						c0.391-0.316,0.703-0.59,0.938-0.819c0.352-0.339,0.6-0.635,0.749-0.887c0.146-0.252,0.222-0.502,0.222-0.748
						c0-0.297-0.096-0.524-0.285-0.686c-0.19-0.161-0.464-0.24-0.82-0.24c-0.268,0-0.548,0.055-0.843,0.164
						c-0.294,0.109-0.567,0.251-0.82,0.421h-0.139v-1.439c0.206-0.09,0.51-0.18,0.912-0.269c0.4-0.091,0.804-0.137,1.206-0.137
						c0.814,0,1.433,0.171,1.859,0.512s0.64,0.823,0.64,1.447c0,0.409-0.102,0.797-0.307,1.166
						c-0.205,0.368-0.518,0.749-0.938,1.139c-0.265,0.246-0.53,0.47-0.797,0.674c-0.268,0.205-0.458,0.348-0.57,0.429h2.911
						V-241.622z"/>
				</g>
				<g>
					<path fill="#663333" d="M122.068-219.124c0.143,0.122,0.255,0.262,0.34,0.426c0.084,0.162,0.125,0.378,0.125,0.647
						c0,0.305-0.06,0.589-0.18,0.854c-0.121,0.263-0.306,0.49-0.555,0.679c-0.244,0.182-0.531,0.322-0.859,0.419
						c-0.33,0.097-0.729,0.146-1.2,0.146c-0.536,0-0.996-0.042-1.381-0.128c-0.384-0.083-0.696-0.178-0.938-0.282v-1.423h0.17
						c0.248,0.151,0.548,0.281,0.895,0.394c0.346,0.109,0.663,0.164,0.95,0.164c0.168,0,0.351-0.014,0.549-0.042
						c0.197-0.026,0.363-0.087,0.5-0.181c0.107-0.07,0.192-0.16,0.257-0.264c0.063-0.101,0.096-0.25,0.096-0.445
						c0-0.188-0.043-0.334-0.131-0.438c-0.088-0.102-0.201-0.176-0.344-0.22c-0.143-0.046-0.313-0.071-0.514-0.076
						c-0.2-0.004-0.386-0.006-0.557-0.006h-0.357v-1.158h0.37c0.226,0,0.427-0.007,0.6-0.021c0.175-0.015,0.323-0.048,0.445-0.102
						c0.128-0.055,0.223-0.127,0.287-0.22c0.063-0.091,0.095-0.226,0.095-0.401c0-0.13-0.034-0.235-0.099-0.314
						c-0.067-0.08-0.151-0.145-0.253-0.191c-0.113-0.052-0.247-0.087-0.399-0.104c-0.155-0.019-0.287-0.026-0.397-0.026
						c-0.272,0-0.568,0.048-0.887,0.142c-0.32,0.094-0.628,0.229-0.928,0.407h-0.161v-1.406c0.238-0.096,0.562-0.188,0.971-0.276
						c0.409-0.088,0.823-0.133,1.244-0.133c0.409,0,0.769,0.036,1.074,0.107c0.309,0.069,0.562,0.165,0.762,0.284
						c0.238,0.144,0.416,0.315,0.532,0.519c0.115,0.202,0.174,0.44,0.174,0.713c0,0.36-0.112,0.681-0.336,0.964
						c-0.223,0.284-0.517,0.463-0.883,0.541v0.063c0.147,0.02,0.305,0.06,0.471,0.121
						C121.781-219.329,121.932-219.24,122.068-219.124z"/>
				</g>
				<g>
					<path fill="#663333" d="M122.794-191.642h-0.885v1.51h-1.596v-1.51h-3.138v-1.227l3.033-3.759h1.7v3.803h0.885V-191.642z
						 M120.314-192.824v-2.347l-1.887,2.347H120.314z"/>
				</g>
				<g>
					<path fill="#663333" d="M122.564-168.25c0,0.337-0.063,0.648-0.189,0.937c-0.127,0.29-0.311,0.536-0.551,0.743
						c-0.267,0.221-0.574,0.385-0.92,0.49c-0.348,0.105-0.743,0.159-1.187,0.159c-0.519-0.004-0.958-0.046-1.315-0.125
						c-0.358-0.08-0.65-0.17-0.878-0.268v-1.433h0.185c0.263,0.158,0.548,0.288,0.852,0.393c0.305,0.104,0.607,0.157,0.91,0.157
						c0.182,0,0.381-0.021,0.594-0.063c0.212-0.042,0.382-0.118,0.506-0.229c0.1-0.091,0.174-0.182,0.225-0.273
						c0.052-0.094,0.076-0.237,0.076-0.431c0-0.152-0.034-0.28-0.103-0.391c-0.067-0.109-0.155-0.197-0.263-0.264
						c-0.156-0.096-0.345-0.159-0.565-0.188c-0.221-0.031-0.421-0.046-0.601-0.046c-0.262,0-0.512,0.022-0.751,0.067
						s-0.448,0.09-0.629,0.133h-0.191v-3.655h4.608v1.24h-3.037v1.058c0.09-0.006,0.203-0.012,0.342-0.016
						c0.138-0.005,0.259-0.005,0.362-0.005c0.358,0,0.676,0.032,0.955,0.102c0.28,0.066,0.522,0.162,0.725,0.283
						c0.265,0.16,0.471,0.372,0.618,0.634C122.49-168.977,122.564-168.647,122.564-168.25z"/>
				</g>
				<g>
					<path fill="#663333" d="M122.694-145.96c0,0.334-0.06,0.646-0.183,0.939c-0.122,0.294-0.293,0.54-0.513,0.74
						c-0.235,0.215-0.508,0.379-0.816,0.491c-0.31,0.113-0.671,0.171-1.086,0.171c-0.389,0-0.743-0.053-1.064-0.159
						c-0.319-0.105-0.595-0.268-0.824-0.485c-0.264-0.25-0.465-0.572-0.604-0.966c-0.14-0.395-0.21-0.866-0.21-1.415
						c0-0.568,0.067-1.072,0.197-1.514c0.13-0.44,0.344-0.831,0.64-1.171c0.284-0.325,0.653-0.577,1.107-0.756
						c0.454-0.181,0.994-0.271,1.621-0.271c0.211,0,0.443,0.014,0.695,0.044c0.253,0.028,0.417,0.049,0.491,0.065v1.273h-0.165
						c-0.078-0.038-0.211-0.079-0.396-0.127c-0.188-0.049-0.401-0.073-0.639-0.073c-0.558,0-0.99,0.138-1.301,0.41
						c-0.312,0.271-0.498,0.652-0.562,1.139c0.224-0.132,0.459-0.241,0.707-0.324s0.516-0.122,0.803-0.122
						c0.253,0,0.487,0.027,0.703,0.086c0.216,0.058,0.416,0.151,0.603,0.278c0.24,0.168,0.434,0.395,0.578,0.679
						C122.622-146.741,122.694-146.387,122.694-145.96z M120.714-144.98c0.09-0.101,0.161-0.216,0.215-0.351
						c0.055-0.136,0.081-0.318,0.081-0.551c0-0.212-0.031-0.385-0.092-0.52c-0.061-0.136-0.146-0.244-0.252-0.325
						c-0.104-0.081-0.228-0.137-0.37-0.166c-0.142-0.031-0.289-0.046-0.44-0.046c-0.127,0-0.26,0.013-0.398,0.043
						c-0.14,0.029-0.267,0.065-0.384,0.109c0,0.027-0.001,0.076-0.004,0.143c-0.003,0.068-0.004,0.151-0.004,0.254
						c0,0.354,0.034,0.649,0.106,0.88c0.07,0.231,0.166,0.407,0.285,0.529c0.081,0.089,0.177,0.155,0.286,0.197
						c0.11,0.041,0.229,0.063,0.357,0.063c0.096,0,0.201-0.022,0.316-0.065C120.534-144.829,120.633-144.894,120.714-144.98z"/>
				</g>
				<g>
					<path fill="#663333" d="M122.568-124.738l-2.933,5.192h-1.862l3.044-5.239h-3.326v-1.241h5.077V-124.738z"/>
				</g>
				<g>
					<path fill="#663333" d="M122.715-96.341c0,0.574-0.244,1.044-0.732,1.409c-0.489,0.365-1.159,0.547-2.013,0.547
						c-0.479,0-0.889-0.049-1.231-0.146c-0.343-0.101-0.625-0.235-0.849-0.409c-0.22-0.173-0.384-0.373-0.489-0.602
						c-0.106-0.229-0.159-0.476-0.159-0.739c0-0.325,0.095-0.614,0.286-0.864c0.189-0.251,0.518-0.471,0.985-0.659v-0.025
						c-0.378-0.176-0.654-0.394-0.832-0.658c-0.176-0.264-0.266-0.57-0.266-0.918c0-0.513,0.238-0.934,0.713-1.262
						c0.478-0.328,1.097-0.492,1.858-0.492c0.802,0,1.43,0.149,1.883,0.445c0.453,0.3,0.682,0.695,0.682,1.189
						c0,0.31-0.097,0.584-0.288,0.824s-0.484,0.445-0.879,0.613v0.026c0.453,0.171,0.788,0.402,1.005,0.692
						C122.607-97.079,122.715-96.735,122.715-96.341z M121.053-96.268c0-0.21-0.052-0.367-0.157-0.474
						c-0.103-0.108-0.318-0.231-0.645-0.371c-0.094-0.043-0.233-0.097-0.416-0.161c-0.184-0.063-0.337-0.117-0.462-0.165
						c-0.125,0.113-0.237,0.25-0.336,0.412c-0.101,0.16-0.151,0.34-0.151,0.541c0,0.303,0.107,0.542,0.325,0.721
						c0.215,0.178,0.498,0.268,0.845,0.268c0.094,0,0.202-0.014,0.327-0.042s0.231-0.07,0.322-0.129
						c0.104-0.065,0.188-0.145,0.253-0.234C121.021-95.993,121.053-96.115,121.053-96.268z M120.918-99.336
						c0-0.22-0.085-0.396-0.254-0.526c-0.17-0.129-0.396-0.196-0.678-0.196c-0.104,0-0.211,0.014-0.318,0.04
						c-0.109,0.027-0.21,0.064-0.3,0.113c-0.083,0.05-0.153,0.113-0.208,0.193s-0.083,0.171-0.083,0.272
						c0,0.171,0.05,0.304,0.146,0.398c0.097,0.098,0.257,0.192,0.477,0.289c0.081,0.034,0.191,0.077,0.331,0.127
						c0.143,0.052,0.313,0.11,0.513,0.173c0.134-0.157,0.229-0.297,0.288-0.422C120.89-98.998,120.918-99.152,120.918-99.336z"/>
				</g>
				<polygon fill-rule="evenodd" clip-rule="evenodd" fill="#999999" points="161.919,-78.71 190.553,-160.383 324.943,-160.383 
					295.162,-78.71 				"/>
			</g>
			<g>
				<path d="M211.375-207.766h-7.115l-16.307-18.354l-4.097,4.373v13.98h-5.481v-41.223h5.481v21.513l20.016-21.513h6.645
					l-18.41,19.38L211.375-207.766z"/>
				<path d="M244.486-236.529c0,1.827-0.319,3.521-0.956,5.08c-0.637,1.559-1.526,2.911-2.671,4.055
					c-1.422,1.422-3.102,2.488-5.039,3.198c-1.938,0.712-4.383,1.064-7.337,1.064h-5.48v15.366h-5.481v-41.223h11.185
					c2.473,0,4.567,0.209,6.284,0.623c1.716,0.416,3.238,1.066,4.567,1.953c1.568,1.052,2.782,2.361,3.641,3.931
					S244.486-238.928,244.486-236.529z M238.783-236.392c0-1.421-0.249-2.657-0.748-3.709c-0.499-1.053-1.256-1.911-2.27-2.575
					c-0.887-0.571-1.897-0.983-3.031-1.232c-1.137-0.249-2.571-0.374-4.306-0.374h-5.426v16.474h4.622
					c2.215,0,4.016-0.198,5.399-0.596c1.385-0.396,2.51-1.029,3.377-1.896c0.867-0.888,1.481-1.817,1.842-2.796
					C238.602-234.075,238.783-235.173,238.783-236.392z"/>
				<path d="M266.247-207.766h-16.279v-4.209h5.398v-32.806h-5.398v-4.208h16.279v4.208h-5.399v32.806h5.399V-207.766z"/>
			</g>
		</g>
		<g id="Layer_3_2_">
			<g>
				<path fill-rule="evenodd" clip-rule="evenodd" d="M49.075,28.521c-5.068,0.984-10.962,1.408-17.682,1.27
					c-2.412-0.045-4.932-0.162-7.556-0.354c-0.236,1.948-0.403,3.867-0.502,5.756c-0.157,2.676-0.187,5.303-0.088,7.882
					c0.039,2.656,1.268,4.929,3.69,6.818c0.059,0.059,0.127,0.107,0.206,0.147c0.472,0.354,0.964,0.68,1.476,0.974
					c-2.874,0.886-5.146,1.349-6.819,1.389c-1.692,0.02-2.854,0-3.483-0.06c-0.648-0.039-1.437-0.235-2.361-0.59l1.328-5.61
					l-3.453,4.606l-2.361-2.894c3.286-4.27,5.313-8.491,6.081-12.663c0-0.059,0.009-0.118,0.029-0.177l1.595-7.557
					c-0.139-3.876,1.111-7.241,3.749-10.096c2.011-2.177,4.835-3.087,8.472-2.729c1.131,0.107,2.342,0.338,3.631,0.692
					c-0.078-0.098,0.374-0.353,1.358-0.767c2.892-1.162,5.785-0.817,8.678,1.031c2.873,1.853,4.486,4.705,4.84,8.563
					c0.08,0.904,0.306,2.263,0.679,4.073C50.087,28.325,49.586,28.423,49.075,28.521z M45.798,50.395
					c0.178-0.157,0.354-0.335,0.532-0.531c1.672-1.712,2.509-3.788,2.509-6.229c0.295-3.148,0.471-5.963,0.531-8.442
					c0.039-2.343-0.03-4.388-0.208-6.14c0.236,1.968,0.512,4.015,0.826,6.14c0.079,0.609,0.159,1.221,0.237,1.83
					c0.373,2.755,1.072,5.343,2.096,7.764c0.905,2.244,1.477,3.443,1.712,3.601c-0.886,0.63-1.8,1.102-2.745,1.418
					C50.087,50.218,48.258,50.414,45.798,50.395z"/>
				<path fill-rule="evenodd" clip-rule="evenodd" fill="#FFDA8C" d="M95.89,1.808v208.102l-9.18,0.031V60.637V54.97l2.51-0.827
					c1.416-0.806,1.75-1.407,1.002-1.8l-3.512,0.975V1.808H95.89z"/>
				<path fill-rule="evenodd" clip-rule="evenodd" fill="#990000" d="M141.525,54.703c0.099,0,0.196,0.051,0.295,0.148
					c0.079,0.078,0.118,0.167,0.118,0.266c0,0.117-0.039,0.227-0.118,0.324c-0.099,0.079-0.196,0.118-0.295,0.118h-8.648
					c-0.117,0-0.217-0.039-0.295-0.118c-0.098-0.098-0.148-0.207-0.148-0.324c0-0.099,0.051-0.188,0.148-0.266
					c0.078-0.098,0.178-0.148,0.295-0.148H141.525z M141.525,68.695h-18.743c-0.119,0-0.217-0.039-0.295-0.117
					c-0.099-0.1-0.147-0.208-0.147-0.325c0-0.118,0.049-0.216,0.147-0.296c0.078-0.099,0.176-0.146,0.295-0.146h18.743
					c0.099,0,0.196,0.048,0.295,0.146c0.079,0.08,0.118,0.178,0.118,0.296c0,0.117-0.039,0.226-0.118,0.325
					C141.721,68.656,141.624,68.695,141.525,68.695z M141.525,42.482h-18.743c-0.119,0-0.217-0.039-0.295-0.117
					c-0.099-0.099-0.147-0.206-0.147-0.324c0-0.098,0.049-0.188,0.147-0.267c0.078-0.098,0.176-0.146,0.295-0.146h18.743
					c0.099,0,0.196,0.049,0.295,0.146c0.079,0.079,0.118,0.169,0.118,0.267c0,0.118-0.039,0.226-0.118,0.324
					C141.721,42.443,141.624,42.482,141.525,42.482z M141.525,29.76h-8.826c-0.098,0-0.186-0.047-0.266-0.146
					c-0.098-0.078-0.146-0.177-0.146-0.295c0-0.117,0.049-0.217,0.146-0.295c0.08-0.099,0.168-0.147,0.266-0.147h8.826
					c0.099,0,0.196,0.049,0.295,0.147c0.079,0.078,0.118,0.178,0.118,0.295c0,0.118-0.039,0.217-0.118,0.295
					C141.721,29.713,141.624,29.76,141.525,29.76z M141.525,17.806h-18.743c-0.119,0-0.217-0.039-0.295-0.117
					c-0.099-0.098-0.147-0.206-0.147-0.325c0-0.118,0.049-0.216,0.147-0.295c0.078-0.098,0.176-0.148,0.295-0.148h18.743
					c0.099,0,0.196,0.051,0.295,0.148c0.079,0.079,0.118,0.177,0.118,0.295c0,0.119-0.039,0.228-0.118,0.325
					C141.721,17.767,141.624,17.806,141.525,17.806z M141.525,131.363c0.099,0,0.196,0.049,0.295,0.146
					c0.079,0.079,0.118,0.167,0.118,0.265c0,0.118-0.039,0.228-0.118,0.326c-0.099,0.078-0.196,0.117-0.295,0.117h-9.18
					c-0.117,0-0.217-0.039-0.295-0.117c-0.078-0.099-0.119-0.208-0.119-0.326c0-0.098,0.041-0.186,0.119-0.265
					c0.078-0.098,0.178-0.146,0.295-0.146H141.525z M141.525,106.803h-9.002c-0.119,0-0.217-0.039-0.295-0.118
					c-0.1-0.098-0.148-0.196-0.148-0.294c0-0.117,0.049-0.217,0.148-0.296c0.078-0.099,0.176-0.147,0.295-0.147h9.002
					c0.099,0,0.196,0.049,0.295,0.147c0.079,0.079,0.118,0.179,0.118,0.296c0,0.098-0.039,0.196-0.118,0.294
					C141.721,106.764,141.624,106.803,141.525,106.803z M141.525,119.909h-18.743c-0.119,0-0.217-0.039-0.295-0.118
					c-0.099-0.098-0.147-0.207-0.147-0.324c0-0.099,0.049-0.188,0.147-0.268c0.078-0.096,0.176-0.146,0.295-0.146h18.743
					c0.099,0,0.196,0.051,0.295,0.146c0.079,0.08,0.118,0.169,0.118,0.268c0,0.117-0.039,0.227-0.118,0.324
					C141.721,119.87,141.624,119.909,141.525,119.909z M141.525,94.465h-18.743c-0.119,0-0.217-0.04-0.295-0.118
					c-0.099-0.078-0.147-0.177-0.147-0.296c0-0.117,0.049-0.216,0.147-0.294c0.078-0.099,0.176-0.147,0.295-0.147h18.743
					c0.099,0,0.196,0.049,0.295,0.147c0.079,0.078,0.118,0.177,0.118,0.294c0,0.119-0.039,0.218-0.118,0.296
					C141.721,94.425,141.624,94.465,141.525,94.465z M141.525,80.975h-9.18c-0.117,0-0.217-0.039-0.295-0.117
					c-0.078-0.098-0.119-0.207-0.119-0.325c0-0.098,0.041-0.196,0.119-0.296c0.078-0.078,0.178-0.118,0.295-0.118h9.18
					c0.099,0,0.196,0.04,0.295,0.118c0.079,0.1,0.118,0.198,0.118,0.296c0,0.118-0.039,0.228-0.118,0.325
					C141.721,80.936,141.624,80.975,141.525,80.975z M141.525,141.22c0.099,0,0.196,0.051,0.295,0.149
					c0.079,0.078,0.118,0.168,0.118,0.265c0,0.119-0.039,0.228-0.118,0.325c-0.099,0.08-0.196,0.119-0.295,0.119h-18.743
					c-0.119,0-0.217-0.039-0.295-0.119c-0.099-0.098-0.147-0.206-0.147-0.325c0-0.097,0.049-0.187,0.147-0.265
					c0.078-0.099,0.176-0.149,0.295-0.149H141.525z M141.525,178.974c0.099,0,0.196,0.051,0.295,0.148
					c0.079,0.079,0.118,0.177,0.118,0.295c0,0.1-0.039,0.197-0.118,0.296c-0.099,0.078-0.196,0.117-0.295,0.117h-8.648
					c-0.117,0-0.217-0.039-0.295-0.117c-0.098-0.099-0.148-0.196-0.148-0.296c0-0.118,0.051-0.216,0.148-0.295
					c0.078-0.098,0.178-0.148,0.295-0.148H141.525z M141.525,166.784h-18.743c-0.119,0-0.217-0.039-0.295-0.119
					c-0.099-0.099-0.147-0.196-0.147-0.295c0-0.117,0.049-0.217,0.147-0.295c0.078-0.099,0.176-0.147,0.295-0.147h18.743
					c0.099,0,0.196,0.049,0.295,0.147c0.079,0.078,0.118,0.178,0.118,0.295c0,0.099-0.039,0.196-0.118,0.295
					C141.721,166.745,141.624,166.784,141.525,166.784z M141.525,192.966h-18.743c-0.119,0-0.217-0.038-0.295-0.117
					c-0.099-0.1-0.147-0.208-0.147-0.325c0-0.098,0.049-0.187,0.147-0.267c0.078-0.098,0.176-0.147,0.295-0.147h18.743
					c0.099,0,0.196,0.05,0.295,0.147c0.079,0.08,0.118,0.169,0.118,0.267c0,0.117-0.039,0.226-0.118,0.325
					C141.721,192.928,141.624,192.966,141.525,192.966z M141.525,154.032h-8.826c-0.098,0-0.186-0.041-0.266-0.119
					c-0.098-0.098-0.146-0.206-0.146-0.324c0-0.098,0.049-0.197,0.146-0.295c0.08-0.079,0.168-0.118,0.266-0.118h8.826
					c0.099,0,0.196,0.039,0.295,0.118c0.079,0.098,0.118,0.197,0.118,0.295c0,0.118-0.039,0.227-0.118,0.324
					C141.721,153.991,141.624,154.032,141.525,154.032z"/>
				<path fill-rule="evenodd" clip-rule="evenodd" fill="#FFCC66" d="M141.525,192.966v16.943H95.89V1.808h45.635V16.92h-18.743
					c-0.119,0-0.217,0.051-0.295,0.148c-0.099,0.079-0.147,0.177-0.147,0.295c0,0.119,0.049,0.228,0.147,0.325
					c0.078,0.078,0.176,0.117,0.295,0.117h18.743v11.07h-8.826c-0.098,0-0.186,0.049-0.266,0.147
					c-0.098,0.078-0.146,0.178-0.146,0.295c0,0.118,0.049,0.217,0.146,0.295c0.08,0.1,0.168,0.146,0.266,0.146h8.826v11.868h-18.743
					c-0.119,0-0.217,0.049-0.295,0.146c-0.099,0.079-0.147,0.169-0.147,0.267c0,0.118,0.049,0.226,0.147,0.324
					c0.078,0.078,0.176,0.117,0.295,0.117h18.743v12.221h-8.648c-0.117,0-0.217,0.051-0.295,0.148
					c-0.098,0.078-0.148,0.167-0.148,0.266c0,0.117,0.051,0.227,0.148,0.324c0.078,0.079,0.178,0.118,0.295,0.118h8.648v12.251
					h-18.743c-0.119,0-0.217,0.048-0.295,0.146c-0.099,0.08-0.147,0.178-0.147,0.296c0,0.117,0.049,0.226,0.147,0.325
					c0.078,0.078,0.176,0.117,0.295,0.117h18.743v11.423h-9.18c-0.117,0-0.217,0.04-0.295,0.118c-0.078,0.1-0.119,0.198-0.119,0.296
					c0,0.118,0.041,0.228,0.119,0.325c0.078,0.078,0.178,0.117,0.295,0.117h9.18v12.635h-18.743c-0.119,0-0.217,0.049-0.295,0.147
					c-0.099,0.078-0.147,0.177-0.147,0.294c0,0.119,0.049,0.218,0.147,0.296c0.078,0.078,0.176,0.118,0.295,0.118h18.743v11.482
					h-9.002c-0.119,0-0.217,0.049-0.295,0.147c-0.1,0.079-0.148,0.179-0.148,0.296c0,0.098,0.049,0.196,0.148,0.294
					c0.078,0.079,0.176,0.118,0.295,0.118h9.002v12.25h-18.743c-0.119,0-0.217,0.051-0.295,0.146
					c-0.099,0.08-0.147,0.169-0.147,0.268c0,0.117,0.049,0.227,0.147,0.324c0.078,0.079,0.176,0.118,0.295,0.118h18.743v11.454
					h-9.18c-0.117,0-0.217,0.049-0.295,0.146c-0.078,0.079-0.119,0.167-0.119,0.265c0,0.118,0.041,0.228,0.119,0.326
					c0.078,0.078,0.178,0.117,0.295,0.117h9.18v9.002h-18.743c-0.119,0-0.217,0.051-0.295,0.149
					c-0.099,0.078-0.147,0.168-0.147,0.265c0,0.119,0.049,0.228,0.147,0.325c0.078,0.08,0.176,0.119,0.295,0.119h18.743v11.098
					h-8.826c-0.098,0-0.186,0.039-0.266,0.118c-0.098,0.098-0.146,0.197-0.146,0.295c0,0.118,0.049,0.227,0.146,0.324
					c0.08,0.078,0.168,0.119,0.266,0.119h8.826v11.896h-18.743c-0.119,0-0.217,0.049-0.295,0.147
					c-0.099,0.078-0.147,0.178-0.147,0.295c0,0.099,0.049,0.196,0.147,0.295c0.078,0.08,0.176,0.119,0.295,0.119h18.743v12.189
					h-8.648c-0.117,0-0.217,0.051-0.295,0.148c-0.098,0.079-0.148,0.177-0.148,0.295c0,0.1,0.051,0.197,0.148,0.296
					c0.078,0.078,0.178,0.117,0.295,0.117h8.648v12.279h-18.743c-0.119,0-0.217,0.05-0.295,0.147
					c-0.099,0.08-0.147,0.169-0.147,0.267c0,0.117,0.049,0.226,0.147,0.325c0.078,0.079,0.176,0.117,0.295,0.117H141.525z"/>
				<path fill-rule="evenodd" clip-rule="evenodd" fill="#663300" d="M14.716,101.549l-0.679,1.181
					c-1.396,1.24-2.765,2.244-4.103,3.011c-1.692,0.965-3.345,1.535-4.959,1.713c0.434-6.159-0.747-15.075-3.542-26.745
					c0.551-1.869,3.729-4.624,9.535-8.265l11.777-9.032l7.764-3.896c-1.811,2.419-2.253,5.136-1.328,8.146
					c0.517,1.758,1.254,3.101,2.214,4.029c0.685,0.67,1.482,1.127,2.391,1.374c-0.295,3.207,1.042,5.558,4.014,7.053l5.166,2.126
					c0.591-0.63,1.545-1.898,2.864-3.808c1.298-1.929,1.298-4.398,0-7.408c1.318-1.556,1.909-3.229,1.771-5.019
					c-0.178-2.736-1.221-5.048-3.129-6.938l8.117,2.687c4.664,3.346,8.875,5.589,12.634,6.731
					c5.706-2.874,9.908-7.293,12.604-13.256c0.57,0.414,1.111,0.876,1.623,1.388c1.004,0.984,1.859,2.127,2.568,3.425
					c0.236,0.413,0.453,0.835,0.649,1.269c0.531,0.925,0.798,1.851,0.798,2.775c-6.121,2.559-11.484,6.287-16.088,11.188
					c-4.547,0-9.2-1.623-13.962-4.871h-0.325c0.729,2.658,0.718,5.352-0.029,8.088c-0.375,1.378-0.915,2.706-1.623,3.985
					c-1.122,1.988-2.185,5.608-3.188,10.862c0.532,2.813,1.544,5.432,3.04,7.852c0.531,0.886,1.171,1.652,1.919,2.304
					c-0.315,0.234-0.689,0.481-1.122,0.736c-0.648,0.394-1.437,0.767-2.361,1.121c-1.515,0.611-4.074,1.094-7.675,1.447
					c-3.59,0.332-7.143,0.269-10.656-0.192c-0.029-0.005-0.059-0.01-0.089-0.014c-2.676-0.354-4.84-1.033-6.494-2.037
					c-0.571-0.354-1.092-0.738-1.563-1.15c7.202-5.609,7.547-15.902,1.033-30.877c-6.475,2.775-11.709,6.042-15.705,9.8
					c0.61,7.381,2.381,12.93,5.313,16.648c0.453,0.552,0.965,1.023,1.536,1.418L14.716,101.549z M45.356,86.435
					c-0.276-0.234-0.61-0.353-1.003-0.353c-0.375,0-0.699,0.118-0.974,0.353c-0.276,0.237-0.415,0.523-0.415,0.857
					s0.139,0.648,0.415,0.944c0.275,0.315,0.599,0.463,0.974,0.442c0.393-0.02,0.727-0.166,1.003-0.442
					c0.275-0.296,0.413-0.61,0.413-0.944S45.631,86.672,45.356,86.435z M44.234,96.768c0.275,0.276,0.609,0.413,1.004,0.413
					c0.413,0,0.758-0.137,1.033-0.413c0.274-0.276,0.413-0.611,0.413-1.004c0-0.413-0.139-0.758-0.413-1.033
					c-0.275-0.275-0.62-0.413-1.033-0.413c-0.395,0-0.729,0.138-1.004,0.413c-0.276,0.275-0.413,0.62-0.413,1.033
					C43.821,96.156,43.958,96.491,44.234,96.768z"/>
				<path fill-rule="evenodd" clip-rule="evenodd" fill="#FF9966" d="M40.249,57.626c0.984,3.838,0.63,5.973-1.062,6.406
					c-3.012,0.825-5.029-1.113-6.051-5.816v-5.638c-0.599-0.101-1.179-0.232-1.742-0.397c-0.977-0.291-1.902-0.679-2.774-1.167
					c-0.512-0.294-1.004-0.619-1.476-0.974c-0.079-0.04-0.147-0.089-0.206-0.147c-2.422-1.89-3.651-4.162-3.69-6.818
					c-0.099-2.579-0.069-5.206,0.088-7.882c0.099-1.889,0.266-3.808,0.502-5.756c2.625,0.192,5.144,0.31,7.556,0.354
					c6.72,0.139,12.613-0.285,17.682-1.27l0.088,0.531c0.177,1.752,0.247,3.797,0.208,6.14c-0.06,2.479-0.236,5.294-0.531,8.442
					c0,2.44-0.837,4.517-2.509,6.229c-0.178,0.196-0.354,0.374-0.532,0.531c-0.236,0.215-0.481,0.413-0.737,0.59
					c-1.398,0.984-2.992,1.477-4.782,1.477L40.249,57.626z M82.017,60.047c-0.709-1.298-1.564-2.44-2.568-3.425
					c0.217-0.806,1.25-1.613,3.1-2.421c1.574-0.492,2.961-0.786,4.162-0.884l3.512-0.975c0.748,0.393,0.414,0.994-1.002,1.8
					l-2.51,0.827v5.667C85.49,60.794,83.927,60.598,82.017,60.047z M54.537,147.185l-0.975,5.902l-3.158,30.611
					c-0.275,2.026-0.423,4.073-0.443,6.139c-0.021,3.366,0.304,6.77,0.972,10.214l6.141,4.368c-0.512,1.948-2.489,2.597-5.932,1.948
					c-3.425-0.708-5.324-2.538-5.698-5.491c-0.315-0.551-0.629-1.8-0.944-3.748c-0.67-2.519-1.25-4.949-1.742-7.291
					c-2.145-10.114-2.785-18.754-1.918-25.917c0.078-0.864,0.197-1.691,0.354-2.479c0.275-1.73,0.669-3.364,1.181-4.899
					c0.158-0.57,0.355-1.131,0.59-1.682c0.356-2.521,0.591-4.438,0.709-5.757c1.496-0.256,3.089-0.492,4.782-0.708
					c0.197-0.078,1.053-0.157,2.568-0.237C52.106,148.099,53.276,147.774,54.537,147.185z M20.796,205.777
					c-1.437,1.416-3.463,0.974-6.081-1.329c-2.617-2.302-3.355-4.831-2.214-7.587c-0.02-1.888,0-3.719,0.059-5.489
					c0.314-12.083,1.987-21.893,5.018-29.43c0.315-0.787,0.64-1.545,0.975-2.272c0.729-1.594,1.535-3.069,2.42-4.428
					c0.314-0.512,0.65-1.002,1.004-1.477c0.847-1.199,1.348-2.862,1.505-4.986c1.377,0.294,2.854,0.56,4.428,0.796
					c1.023,0.501,2.184,0.846,3.483,1.032c1.001,0.153,2.082,0.212,3.247,0.177l-1.947,4.015l-10.981,28.752
					c-1.181,2.833-2.105,5.44-2.774,7.821c-0.788,2.815-1.211,5.323-1.269,7.527L20.796,205.777z M9.934,105.74
					c1.338-0.767,2.706-1.771,4.103-3.011l0.679-1.181c2.086,0.216,3.366,0.837,3.837,1.86c-1.751-0.177-2.726-0.031-2.922,0.441
					c0.176,1.456,0.551,2.548,1.122,3.277c0.591,0.708,1.574,2.027,2.952,3.956c-0.079,0.216-1.102,0.472-3.07,0.766
					c-1.988,0.276-3.965-1.454-5.932-5.194L9.934,105.74z M39.836,43.753c-1.417,0.235-2.814,0.274-4.191,0.117
					c-1.357-0.164-2.774-0.465-4.251-0.899c-0.107-0.036-0.215-0.071-0.324-0.104c0,0.925,0.048,1.584,0.147,1.978
					c0.045,0.189,0.104,0.377,0.176,0.561c0.245,0.623,0.649,1.225,1.21,1.801c0.885,0.885,2.44,1.328,4.664,1.328
					c2.302,0.02,3.896-0.502,4.782-1.564c0.649-0.788,1.082-1.572,1.298-2.36c0.099-0.453,0.158-1.143,0.178-2.066
					C41.696,43.311,40.466,43.714,39.836,43.753z"/>
				<path fill-rule="evenodd" clip-rule="evenodd" fill="#FFFFFF" d="M33.136,58.216c1.022,4.703,3.039,6.642,6.051,5.816
					c1.691-0.434,2.045-2.568,1.062-6.406c1.614,2.519,2.657,6.75,3.13,12.692c0.334,5.02,0.196,8.994-0.415,11.926
					c-5.608-7.301-9.082-15.211-10.418-23.732L33.136,58.216z M39.836,43.753c0.63-0.039,1.86-0.442,3.689-1.21
					c-0.02,0.924-0.079,1.613-0.178,2.066c-0.216,0.788-0.649,1.572-1.298,2.36c-0.886,1.063-2.48,1.584-4.782,1.564
					c-2.224,0-3.779-0.443-4.664-1.328c-0.562-0.576-0.965-1.178-1.21-1.801c-0.073-0.184-0.131-0.371-0.176-0.561
					c-0.1-0.394-0.147-1.053-0.147-1.978c0.108,0.032,0.216,0.067,0.324,0.104c1.477,0.435,2.894,0.735,4.251,0.899
					C37.021,44.027,38.419,43.988,39.836,43.753z"/>
				<path fill-rule="evenodd" clip-rule="evenodd" fill="#999999" d="M32.545,58.512c1.337,8.521,4.81,16.432,10.418,23.732
					l-5.166-2.126c-2.972-1.495-4.309-3.846-4.014-7.053c-0.909-0.247-1.707-0.704-2.391-1.374
					c-0.959-0.929-1.697-2.271-2.214-4.029c-0.925-3.011-0.482-5.728,1.328-8.146L32.545,58.512z M42.964,82.244
					c0.61-2.932,0.749-6.906,0.415-11.926c-0.473-5.942-1.516-10.174-3.13-12.692l4.222,1.446c1.908,1.89,2.951,4.201,3.129,6.938
					c0.137,1.79-0.454,3.463-1.771,5.019c1.298,3.01,1.298,5.479,0,7.408C44.509,80.346,43.555,81.614,42.964,82.244z"/>
				<path fill-rule="evenodd" clip-rule="evenodd" fill="#371709" d="M23.482,148.779c-6.611-1.477-11.246-5.236-13.902-11.278
					l7.143-14.108l8.087-18.833c1.654,1.004,3.818,1.683,6.494,2.037c0.03,0.004,0.061,0.009,0.089,0.014
					c3.514,0.461,7.066,0.524,10.656,0.192c3.601-0.354,6.16-0.836,7.675-1.447c0.924-0.354,1.712-0.728,2.361-1.121l14.906,34.005
					c-2.46,3.267-4.132,4.704-5.018,4.31c-0.57-0.274-1.19-0.039-1.859,0.71c0-0.021,0.01-0.05,0.029-0.089l-0.06,0.059v0.03
					c-2.007,1.79-3.856,3.099-5.548,3.926c-1.261,0.59-2.431,0.914-3.514,0.973c-1.515,0.08-2.371,0.159-2.568,0.237
					c-1.693,0.216-3.286,0.452-4.782,0.708c-1.555,0.275-2.982,0.57-4.28,0.886v-0.029c-0.414,0.098-0.787,0.187-1.122,0.265
					c-1.319,0.276-2.165,0.433-2.539,0.473c-0.374,0.039-0.738,0.068-1.092,0.088c-1.165,0.035-2.246-0.023-3.247-0.177
					c-1.3-0.187-2.46-0.531-3.483-1.032C26.336,149.339,24.86,149.073,23.482,148.779z M57.074,204.419l7.321,5.313l-0.532,2.006
					c-2.498,0.849-5.923,1.084-10.272,0.71c-0.365-1.502-1.206-2.741-2.522-3.719c-0.799-0.601-1.778-1.102-2.938-1.506
					l-1.563,3.807c-0.236-0.117-0.748-0.325-1.535-0.619c-0.126-0.591-0.239-1.151-0.339-1.682
					c-0.412-2.049-0.673-3.643-0.782-4.783c-0.119-1.475,0.394-2.498,1.535-3.07c0.374,2.953,2.272,4.783,5.698,5.491
					C54.584,207.016,56.562,206.367,57.074,204.419z M12.502,196.861c-1.142,2.756-0.403,5.285,2.214,7.587
					c2.617,2.303,4.644,2.745,6.081,1.329l3.719,8.265l-1.476,1.446c-2.577-0.531-5.657-2.036-9.238-4.515
					c0.688-2.382-0.03-4.803-2.155-7.263l-3.248,2.538c-0.157-0.235-0.492-0.68-1.003-1.328c0.885-2.794,1.643-4.851,2.273-6.17
					C10.278,197.434,11.223,196.803,12.502,196.861z M44.234,96.768c-0.276-0.276-0.413-0.611-0.413-1.004
					c0-0.413,0.137-0.758,0.413-1.033c0.275-0.275,0.609-0.413,1.004-0.413c0.413,0,0.758,0.138,1.033,0.413
					c0.274,0.275,0.413,0.62,0.413,1.033c0,0.393-0.139,0.728-0.413,1.004c-0.275,0.276-0.62,0.413-1.033,0.413
					C44.843,97.181,44.509,97.044,44.234,96.768z M45.356,86.435c0.275,0.237,0.413,0.523,0.413,0.857s-0.137,0.648-0.413,0.944
					c-0.276,0.276-0.61,0.423-1.003,0.442c-0.375,0.021-0.699-0.127-0.974-0.442c-0.276-0.296-0.415-0.61-0.415-0.944
					s0.139-0.62,0.415-0.857c0.275-0.234,0.599-0.353,0.974-0.353C44.746,86.082,45.08,86.2,45.356,86.435z"/>
				<g>
					<path fill-rule="evenodd" clip-rule="evenodd" d="M32.014,32.27c0.315,0.315,0.472,0.699,0.472,1.152
						c0,0.473-0.157,0.866-0.472,1.181c-0.315,0.275-0.709,0.413-1.18,0.413c-0.454,0-0.838-0.138-1.152-0.413
						c-0.275-0.314-0.413-0.708-0.413-1.181c0-0.237,0.039-0.453,0.117-0.648c0.06-0.198,0.147-0.355,0.267-0.475l0.029-0.029
						c0.314-0.314,0.699-0.471,1.152-0.471C31.304,31.799,31.699,31.955,32.014,32.27z"/>
				</g>
				<g>
					<path fill-rule="evenodd" clip-rule="evenodd" d="M42.551,31.709l0.03-0.029c0.314-0.314,0.697-0.471,1.151-0.471
						c0.473,0,0.866,0.156,1.18,0.471c0.315,0.314,0.473,0.699,0.473,1.15c0,0.474-0.158,0.868-0.473,1.182
						c-0.314,0.276-0.708,0.414-1.18,0.414c-0.454,0-0.837-0.138-1.151-0.414c-0.276-0.313-0.414-0.708-0.414-1.182
						c0-0.235,0.039-0.451,0.119-0.647C42.345,31.984,42.434,31.828,42.551,31.709z"/>
				</g>
				<g>
					<path fill="#663333" d="M120.981,17.606h-4.425v-1.157h1.397v-3.505h-1.397v-1.082c0.213,0,0.418-0.012,0.613-0.037
						c0.196-0.025,0.359-0.068,0.49-0.131c0.154-0.074,0.27-0.171,0.347-0.289c0.077-0.12,0.122-0.268,0.134-0.446h1.475v5.49h1.366
						V17.606z"/>
				</g>
				<g>
					<path fill="#663333" d="M120.809,42.106h-5.204V41.01c0.397-0.287,0.797-0.592,1.195-0.916c0.398-0.323,0.72-0.603,0.959-0.836
						c0.359-0.348,0.615-0.651,0.766-0.909c0.152-0.259,0.228-0.514,0.228-0.766c0-0.303-0.098-0.537-0.292-0.702
						c-0.193-0.164-0.474-0.246-0.839-0.246c-0.273,0-0.561,0.057-0.862,0.169c-0.301,0.112-0.58,0.258-0.838,0.432h-0.143v-1.474
						c0.211-0.092,0.521-0.185,0.932-0.276c0.412-0.091,0.823-0.137,1.236-0.137c0.83,0,1.465,0.175,1.9,0.523
						c0.437,0.349,0.655,0.842,0.655,1.479c0,0.418-0.105,0.815-0.314,1.193c-0.209,0.376-0.529,0.766-0.96,1.166
						c-0.27,0.249-0.541,0.478-0.814,0.688c-0.272,0.209-0.467,0.355-0.583,0.438h2.979V42.106z"/>
				</g>
				<g>
					<path fill="#663333" d="M120.16,65.121c0.145,0.124,0.261,0.271,0.348,0.437c0.085,0.166,0.129,0.386,0.129,0.662
						c0,0.313-0.063,0.604-0.186,0.873c-0.123,0.271-0.313,0.502-0.567,0.694c-0.249,0.187-0.542,0.331-0.88,0.43
						c-0.336,0.101-0.745,0.149-1.226,0.149c-0.55,0-1.021-0.044-1.414-0.129c-0.394-0.086-0.712-0.183-0.96-0.29v-1.455h0.175
						c0.255,0.154,0.56,0.288,0.915,0.399c0.354,0.113,0.679,0.171,0.972,0.171c0.173,0,0.36-0.015,0.562-0.044
						c0.201-0.027,0.373-0.089,0.512-0.184c0.109-0.074,0.197-0.165,0.263-0.27c0.065-0.105,0.098-0.258,0.098-0.456
						c0-0.193-0.044-0.343-0.134-0.447c-0.088-0.106-0.206-0.182-0.352-0.225c-0.145-0.047-0.32-0.074-0.524-0.078
						c-0.205-0.006-0.396-0.007-0.57-0.007h-0.365v-1.184h0.378c0.232,0,0.438-0.009,0.615-0.022
						c0.178-0.016,0.33-0.049,0.454-0.104c0.13-0.056,0.229-0.131,0.294-0.225c0.064-0.093,0.098-0.229,0.098-0.411
						c0-0.134-0.035-0.241-0.103-0.323c-0.068-0.081-0.154-0.146-0.259-0.194c-0.115-0.053-0.252-0.088-0.408-0.105
						c-0.158-0.019-0.293-0.026-0.406-0.026c-0.278,0-0.58,0.047-0.908,0.144c-0.326,0.098-0.642,0.235-0.947,0.417h-0.165v-1.438
						c0.243-0.1,0.573-0.192,0.993-0.283c0.418-0.091,0.843-0.136,1.273-0.136c0.418,0,0.784,0.036,1.099,0.109
						c0.314,0.072,0.575,0.17,0.78,0.291c0.242,0.145,0.424,0.322,0.542,0.53c0.118,0.207,0.179,0.45,0.179,0.729
						c0,0.368-0.115,0.697-0.344,0.987c-0.229,0.289-0.529,0.475-0.903,0.554v0.063c0.151,0.021,0.312,0.061,0.481,0.124
						C119.865,64.912,120.02,65.003,120.16,65.121z"/>
				</g>
				<g>
					<path fill="#663333" d="M120.903,93.239H120v1.545h-1.635v-1.545h-3.209v-1.256l3.103-3.846H120v3.891h0.903V93.239z
						 M118.365,92.028v-2.4l-1.93,2.4H118.365z"/>
				</g>
				<g>
					<path fill="#663333" d="M120.667,117.168c0,0.345-0.065,0.663-0.194,0.959c-0.13,0.296-0.316,0.548-0.563,0.76
						c-0.273,0.225-0.587,0.393-0.941,0.501c-0.354,0.107-0.759,0.162-1.213,0.162c-0.531-0.003-0.98-0.045-1.347-0.127
						c-0.367-0.081-0.665-0.173-0.897-0.273v-1.464h0.188c0.27,0.158,0.561,0.292,0.873,0.399c0.311,0.106,0.621,0.161,0.93,0.161
						c0.188,0,0.389-0.022,0.608-0.064c0.218-0.043,0.39-0.121,0.518-0.234c0.102-0.092,0.179-0.186,0.229-0.28
						c0.052-0.095,0.078-0.242,0.078-0.44c0-0.155-0.035-0.287-0.104-0.399c-0.069-0.111-0.159-0.2-0.269-0.269
						c-0.161-0.098-0.354-0.163-0.579-0.194c-0.226-0.03-0.431-0.047-0.615-0.047c-0.267,0-0.522,0.023-0.768,0.069
						s-0.46,0.091-0.644,0.136h-0.195v-3.738h4.714v1.268h-3.107v1.082c0.093-0.006,0.208-0.012,0.351-0.016
						c0.141-0.004,0.265-0.007,0.371-0.007c0.365,0,0.691,0.034,0.977,0.104c0.287,0.069,0.533,0.167,0.741,0.291
						c0.271,0.163,0.481,0.38,0.633,0.648C120.591,116.425,120.667,116.762,120.667,117.168z"/>
				</g>
				<g>
					<path fill="#663333" d="M120.8,139.972c0,0.342-0.063,0.663-0.188,0.963s-0.299,0.552-0.524,0.756
						c-0.241,0.22-0.519,0.388-0.835,0.503c-0.316,0.116-0.687,0.175-1.111,0.175c-0.398,0-0.76-0.055-1.088-0.164
						c-0.328-0.106-0.609-0.272-0.844-0.496c-0.271-0.255-0.477-0.584-0.619-0.988c-0.143-0.403-0.213-0.886-0.213-1.446
						c0-0.581,0.066-1.099,0.2-1.549c0.134-0.452,0.352-0.851,0.654-1.198c0.29-0.332,0.669-0.59,1.133-0.773
						c0.464-0.185,1.017-0.276,1.659-0.276c0.216,0,0.453,0.014,0.711,0.045c0.259,0.029,0.426,0.052,0.503,0.066v1.304h-0.169
						c-0.08-0.039-0.216-0.082-0.406-0.131c-0.192-0.049-0.409-0.074-0.653-0.074c-0.569,0-1.014,0.14-1.331,0.419
						c-0.316,0.278-0.509,0.668-0.574,1.167c0.229-0.137,0.47-0.248,0.724-0.332c0.254-0.085,0.528-0.127,0.821-0.127
						c0.259,0,0.498,0.029,0.719,0.09c0.222,0.058,0.427,0.153,0.616,0.284c0.247,0.171,0.444,0.402,0.593,0.694
						C120.726,139.173,120.8,139.536,120.8,139.972z M118.775,140.974c0.092-0.101,0.165-0.221,0.221-0.358
						c0.054-0.139,0.082-0.325,0.082-0.563c0-0.217-0.031-0.395-0.094-0.532c-0.063-0.139-0.148-0.248-0.258-0.332
						c-0.107-0.082-0.232-0.14-0.379-0.172c-0.146-0.03-0.295-0.046-0.449-0.046c-0.131,0-0.268,0.016-0.41,0.045
						s-0.272,0.067-0.393,0.111c0,0.029-0.001,0.078-0.004,0.146c-0.002,0.068-0.004,0.155-0.004,0.258
						c0,0.365,0.036,0.665,0.109,0.902c0.072,0.235,0.17,0.416,0.291,0.54c0.084,0.092,0.182,0.16,0.294,0.203
						c0.113,0.043,0.234,0.064,0.366,0.064c0.097,0,0.205-0.022,0.324-0.067C118.591,141.13,118.691,141.063,118.775,140.974z"/>
				</g>
				<g>
					<path fill="#663333" d="M120.671,161.685l-3.001,5.31h-1.905l3.115-5.359h-3.404v-1.268h5.195V161.685z"/>
				</g>
				<g>
					<path fill="#663333" d="M120.822,190.736c0,0.587-0.25,1.067-0.75,1.441s-1.186,0.561-2.059,0.561
						c-0.489,0-0.909-0.05-1.26-0.15c-0.351-0.102-0.639-0.241-0.867-0.419c-0.227-0.175-0.393-0.38-0.502-0.614
						c-0.107-0.234-0.162-0.487-0.162-0.757c0-0.332,0.098-0.627,0.292-0.883c0.194-0.257,0.53-0.482,1.008-0.676v-0.026
						c-0.386-0.178-0.669-0.402-0.85-0.672c-0.182-0.271-0.272-0.583-0.272-0.939c0-0.526,0.244-0.955,0.73-1.291
						c0.486-0.335,1.12-0.503,1.901-0.503c0.818,0,1.46,0.152,1.925,0.456c0.465,0.305,0.696,0.71,0.696,1.218
						c0,0.315-0.097,0.596-0.294,0.841c-0.195,0.247-0.495,0.456-0.898,0.628v0.027c0.463,0.175,0.806,0.41,1.027,0.707
						C120.711,189.981,120.822,190.332,120.822,190.736z M119.123,190.812c0-0.214-0.054-0.375-0.161-0.485
						c-0.106-0.11-0.326-0.235-0.659-0.378c-0.098-0.045-0.24-0.101-0.427-0.166c-0.187-0.064-0.345-0.121-0.472-0.169
						c-0.128,0.116-0.242,0.257-0.346,0.421c-0.102,0.165-0.153,0.349-0.153,0.554c0,0.31,0.11,0.556,0.332,0.738
						c0.221,0.183,0.51,0.272,0.866,0.272c0.094,0,0.206-0.014,0.333-0.041c0.128-0.029,0.237-0.073,0.329-0.132
						c0.107-0.067,0.193-0.148,0.26-0.241C119.089,191.093,119.123,190.969,119.123,190.812z M118.984,187.673
						c0-0.227-0.086-0.404-0.261-0.539c-0.173-0.134-0.404-0.2-0.691-0.2c-0.107,0-0.216,0.014-0.328,0.04
						c-0.111,0.026-0.212,0.065-0.305,0.116c-0.085,0.05-0.157,0.117-0.214,0.198c-0.056,0.082-0.084,0.174-0.084,0.278
						c0,0.175,0.049,0.312,0.148,0.408c0.1,0.1,0.262,0.197,0.488,0.295c0.083,0.036,0.196,0.079,0.34,0.131
						c0.145,0.052,0.318,0.11,0.523,0.176c0.137-0.16,0.234-0.304,0.293-0.431C118.955,188.017,118.984,187.859,118.984,187.673z"/>
				</g>
				<g>
					<polygon fill-rule="evenodd" clip-rule="evenodd" fill="#EC1C24" points="155.166,142.229 289.743,142.229 318.361,177.028 
						289.743,209.94 155.166,209.94 					"/>
				</g>
			</g>
			<g>
				<g>
					<path d="M228.111,73.135c0,1.87-0.325,3.602-0.978,5.198c-0.65,1.596-1.563,2.979-2.732,4.148
						c-1.455,1.454-3.173,2.545-5.154,3.271c-1.983,0.728-4.485,1.091-7.506,1.091h-5.608v15.719h-5.607V60.39h11.442
						c2.529,0,4.673,0.212,6.429,0.638c1.757,0.425,3.314,1.09,4.674,1.996c1.604,1.077,2.847,2.418,3.725,4.022
						S228.111,70.681,228.111,73.135z M222.276,73.277c0-1.455-0.254-2.72-0.764-3.796c-0.511-1.076-1.284-1.953-2.322-2.634
						c-0.906-0.585-1.94-1.006-3.103-1.261c-1.16-0.254-2.629-0.382-4.404-0.382h-5.551v16.853h4.729
						c2.267,0,4.107-0.203,5.523-0.609c1.416-0.405,2.568-1.053,3.456-1.939c0.887-0.906,1.515-1.86,1.883-2.861
						S222.276,74.523,222.276,73.277z"/>
					<path d="M250.374,102.563h-16.654v-4.305h5.523V64.696h-5.523V60.39h16.654v4.307h-5.523v33.562h5.523V102.563z"/>
				</g>
			</g>
		</g>
		<g id="Layer_2_3_">
			<text transform="matrix(1 0 0 1 -391.8765 -445.6714)"><tspan x="0" y="0" font-family="'Consolas'" font-size="17">Любое современное предприятие использует для оценки своих производственных и финансовых результатов различные показатели. </tspan><tspan x="0" y="20.4" font-family="'Consolas'" font-size="17">Иными словами, </tspan><tspan x="143.26" y="20.4" fill="#231F20" font-family="'Consolas'" font-size="17">показатель</tspan><tspan x="238.767" y="20.4" font-family="'Consolas'" font-size="17"> – это инструмент измерения результатов, а </tspan><tspan x="649.446" y="20.4" fill="#231F20" font-family="'Consolas'" font-size="17">также</tspan><tspan x="697.199" y="20.4" fill="#993300" font-family="'Consolas'" font-size="17"> </tspan><tspan x="706.75" y="20.4" fill="#231F20" font-family="'Consolas'" font-size="17">критических точек бизнес-процессов</tspan><tspan x="1031.474" y="20.4" fill="#993300" font-family="'Consolas'" font-size="17"> </tspan><tspan x="1041.024" y="20.4" font-family="'Consolas'" font-size="17">путем сравнения </tspan><tspan x="0" y="40.8" font-family="'Consolas'" font-size="17">факта с плановым значением. </tspan><tspan x="0" y="61.2" font-family="'Consolas'" font-size="17">Все показатели делятся на два основных вида – KPIs и PIs. Давайте разберемся, что означают эти </tspan><tspan x="0" y="81.6" font-family="'Consolas'" font-size="17">английские названия.</tspan><tspan x="0" y="122.4" fill="#231F20" font-family="'Consolas'" font-size="17">KPIs (Key Performance Indicators) или ключевые показатели эффективности </tspan><tspan x="0" y="142.8" font-family="'Consolas'" font-size="17">– это основные количественные показатели для измерения </tspan><tspan x="525.288" y="142.8" fill="#231F20" font-family="'Consolas'" font-size="17">результатов</tspan><tspan x="630.345" y="142.8" font-family="'Consolas'" font-size="17">, достигнутых предприятием в целом,его подразделениями и </tspan><tspan x="0" y="163.201" font-family="'Consolas'" font-size="17">отдельными сотрудниками.</tspan><tspan x="0" y="408" fill="#231F20" font-family="'Consolas'" font-size="17">PIs (Performance Indicators) или показатели контроля процессов</tspan><tspan x="592.143" y="408" font-family="'Consolas'" font-size="17"> </tspan><tspan x="0" y="428.4" font-family="'Consolas'" font-size="17">– это количественные показатели, которые позволяют контролировать непосредственно протекание самих </tspan><tspan x="945.518" y="428.4" fill="#231F20" font-family="'Consolas'" font-size="17">процессов</tspan><tspan x="1031.474" y="428.4" font-family="'Consolas'" font-size="17"> на предприятии.</tspan><tspan x="0" y="693.601" font-family="'Consolas'" font-size="17">Таким образом мы измеряем результат (KPI) и контролируем процесс (PI).</tspan><tspan x="0" y="714" font-family="'Consolas'" font-size="17"> </tspan></text>
		</g>
	</g>
</g>
<g id="Layer_2_1_">
	<text transform="matrix(1 0 0 1 832.106 -703.3022)"><tspan x="0" y="0" font-family="'Consolas'" font-size="17">Взаимосвязь KPIs и PIs</tspan><tspan x="0" y="40.8" font-family="'Consolas'" font-size="17">KPIs и PIs тесно взаимосвязаны, ведь достижение результата всегда зависит от организации процесса. </tspan><tspan x="0" y="61.2" font-family="'Consolas'" font-size="17">Кроме того, один и тот же показатель может для одних сотрудников выполнять функцию KPI, а для других </tspan><tspan x="0" y="81.6" font-family="'Consolas'" font-size="17">быть PI – все зависит от точки зрения. Например, количество брака на производственном участке – это KPI, </tspan><tspan x="0" y="102" font-family="'Consolas'" font-size="17">то есть показатель результативности, для конкретного оператора участка, но PI, то есть показатель </tspan><tspan x="0" y="122.4" font-family="'Consolas'" font-size="17">контроля процесса, для начальника цеха.</tspan></text>
</g>
</svg>
