<svg data-name="Слой 1" xmlns="http://www.w3.org/2000/svg" width="717.11" height="248.82" viewBox="0 0 717.11 248.82"><title>49_picture</title><path fill="#7a7a79" d="M104.04 8.82h2v210h-2z"/><path fill="#7a7a79" d="M95.05 210.35v-2h414.69v2z"/><g fill="none" stroke="#7a7a79" stroke-miterlimit="10"><path d="M103.37 156.97h-4 4"/><path stroke-dasharray="7.9287519454956055,7.9287519454956055" d="M111.3 156.97h392.47"/><path d="M507.74 156.97h4-4"/><path stroke-dasharray="7.9287519454956055,7.9287519454956055" d="M499.81 156.97H107.34"/></g><g fill="none" stroke="#7a7a79" stroke-miterlimit="10"><path d="M228.66 218.76v4-4"/><path stroke-dasharray="7.721007823944092,7.721007823944092" d="M228.66 211.04V14.15"/><path d="M228.66 10.29v-4 4"/><path stroke-dasharray="7.721007823944092,7.721007823944092" d="M228.66 18.01V214.9"/></g><g fill="none" stroke="#7a7a79" stroke-miterlimit="10"><path d="M100.21 95.92h-4 4"/><path stroke-dasharray="7.9287519454956055,7.9287519454956055" d="M108.14 95.92h392.47"/><path d="M504.58 95.92h4-4"/><path stroke-dasharray="7.9287519454956055,7.9287519454956055" d="M496.65 95.92H104.17"/></g><path fill="#7a7a79" d="M110.38 11.44H99.71L105.04 0l5.34 11.44zM506.71 204.01v10.66l11.45-5.33-11.45-5.33z"/><path d="M256.91 86.11h-9.5V73.03h1.75v11.55h6.44V73.03h1.74v11.55h1.24v4.49h-1.67zM269.2 81.38h-7.23a4.16 4.16 0 0 0 .27 1.57 3 3 0 0 0 .75 1.11 3 3 0 0 0 1.08.63 4.36 4.36 0 0 0 1.39.21 5.42 5.42 0 0 0 2-.4 5.08 5.08 0 0 0 1.44-.79h.09v1.8a11.92 11.92 0 0 1-1.71.59 6.78 6.78 0 0 1-1.82.24 5.29 5.29 0 0 1-3.82-1.32 5 5 0 0 1-1.37-3.76 5.42 5.42 0 0 1 1.31-3.82 4.49 4.49 0 0 1 3.46-1.42 4 4 0 0 1 3.07 1.16 4.71 4.71 0 0 1 1.07 3.3zm-1.61-1.27a2.87 2.87 0 0 0-.65-2 2.51 2.51 0 0 0-2-.72 2.89 2.89 0 0 0-2.12.79 3.05 3.05 0 0 0-.89 1.94zM279.63 86.11h-1.66v-8.43h-3.66v1.41c0 .41 0 .86-.06 1.22a19.3 19.3 0 0 1-.2 2.34 6.44 6.44 0 0 1-.37 1.46 3.58 3.58 0 0 1-.47.88 4.1 4.1 0 0 1-.56.61 2 2 0 0 1-.66.4 2.26 2.26 0 0 1-.79.13h-.81v-1.46h.51a1.65 1.65 0 0 0 .43-.06.78.78 0 0 0 .38-.23 3.18 3.18 0 0 0 .72-1.49 14.15 14.15 0 0 0 .36-3c0-.48.05-1 .07-1.71s0-1.29.06-1.88h6.76zM291.1 81.38h-7.19a4 4 0 0 0 .28 1.57 2.85 2.85 0 0 0 1.83 1.74 4.34 4.34 0 0 0 1.38.21 5.42 5.42 0 0 0 2-.4 5 5 0 0 0 1.45-.79h.06v1.8a11.4 11.4 0 0 1-1.7.59 6.85 6.85 0 0 1-1.83.24 5.25 5.25 0 0 1-3.81-1.32 5 5 0 0 1-1.38-3.76 5.38 5.38 0 0 1 1.32-3.82 4.47 4.47 0 0 1 3.46-1.42 4 4 0 0 1 3.06 1.16 4.67 4.67 0 0 1 1.08 3.3zm-1.61-1.27a2.93 2.93 0 0 0-.66-2 2.49 2.49 0 0 0-2-.72 2.89 2.89 0 0 0-2.12.79 3.05 3.05 0 0 0-.89 1.94zM301.7 83.14a2.73 2.73 0 0 1-.28 1.27 2.59 2.59 0 0 1-.79.92 3.75 3.75 0 0 1-1.22.6 7 7 0 0 1-1.75.18h-4.06v-9.79h3.8a13.59 13.59 0 0 1 1.65.07 3.2 3.2 0 0 1 1.06.33 1.93 1.93 0 0 1 .81.76 2.22 2.22 0 0 1 .26 1.09 2 2 0 0 1-.42 1.27 2.64 2.64 0 0 1-1.06.83v.09a2.81 2.81 0 0 1 1.44.82 2.2 2.2 0 0 1 .56 1.56zm-2.22-4.33a1.1 1.1 0 0 0-.14-.57.93.93 0 0 0-.41-.4 2.07 2.07 0 0 0-.83-.2h-2.86v2.68h2.06a7.44 7.44 0 0 0 1 0 1.84 1.84 0 0 0 .63-.25 1.07 1.07 0 0 0 .46-.49 1.67 1.67 0 0 0 .09-.77zm.52 4.34a1.68 1.68 0 0 0-.16-.79 1.45 1.45 0 0 0-.69-.55 2 2 0 0 0-.72-.19h-3.19v3.2h1.56a14.58 14.58 0 0 0 1.52-.06 2.55 2.55 0 0 0 .92-.29 1.54 1.54 0 0 0 .57-.53 1.43 1.43 0 0 0 .19-.79zM311.91 86.11h-1.65v-1l-.59.41a4.34 4.34 0 0 1-.73.43 4.39 4.39 0 0 1-.95.34 5.11 5.11 0 0 1-1.25.13 3.14 3.14 0 0 1-2.25-.87 3 3 0 0 1-.93-2.25 3.09 3.09 0 0 1 .48-1.8 3.28 3.28 0 0 1 1.37-1.09 7.44 7.44 0 0 1 2.15-.53q1.26-.15 2.7-.21v-.26a1.88 1.88 0 0 0-.2-.93 1.42 1.42 0 0 0-.56-.58 2.18 2.18 0 0 0-.85-.27 6.77 6.77 0 0 0-2.48.1 11.7 11.7 0 0 0-1.65.49h-.09v-1.71a14.2 14.2 0 0 1 1.4-.29 10.12 10.12 0 0 1 1.8-.16 8 8 0 0 1 1.81.17 3.5 3.5 0 0 1 1.33.58 2.66 2.66 0 0 1 .85 1.05 3.93 3.93 0 0 1 .29 1.59zm-1.65-2.41v-2.74l-1.78.13a9.45 9.45 0 0 0-1.57.23 2.56 2.56 0 0 0-1.15.63 1.81 1.81 0 0 0 .07 2.44 2.36 2.36 0 0 0 1.56.43 3.78 3.78 0 0 0 1.59-.34 7.74 7.74 0 0 0 1.31-.78zM322.66 86.11h-1.65v-3.89h-2l-3 3.89h-1.94l3.3-4.05a3.48 3.48 0 0 1-1.86-1.08 2.92 2.92 0 0 1-.59-1.9 2.46 2.46 0 0 1 .35-1.33 2.87 2.87 0 0 1 .89-.88 3.21 3.21 0 0 1 1.21-.46 10 10 0 0 1 1.54-.09h3.78zm-1.65-5.19v-3.31h-2.1a7.08 7.08 0 0 0-1 0 2.12 2.12 0 0 0-.65.23 1.24 1.24 0 0 0-.51.53 1.57 1.57 0 0 0-.16.71 2.45 2.45 0 0 0 .1.79 1.33 1.33 0 0 0 .42.56 1.91 1.91 0 0 0 .79.35 5.44 5.44 0 0 0 1 .09zM339.45 77.75h-3.54v8.36h-1.65v-8.36h-3.55v-1.43h8.75zM349.54 81.21A5.53 5.53 0 0 1 348.3 85a4.64 4.64 0 0 1-6.6 0 6.45 6.45 0 0 1 0-7.58 4.59 4.59 0 0 1 6.6 0 5.51 5.51 0 0 1 1.24 3.79zm-1.71 0a4.48 4.48 0 0 0-.75-2.84 2.81 2.81 0 0 0-4.16 0 4.55 4.55 0 0 0-.74 2.84 4.47 4.47 0 0 0 .75 2.8 2.75 2.75 0 0 0 4.15 0 4.46 4.46 0 0 0 .75-2.8zM359.74 86.11h-1.65v-3.79c-.54.17-1.05.3-1.53.4a8 8 0 0 1-1.59.15 3.42 3.42 0 0 1-2.42-.78 2.92 2.92 0 0 1-.84-2.25v-3.52h1.66v2.7a6.24 6.24 0 0 0 .07 1 1.68 1.68 0 0 0 .3.77 1.38 1.38 0 0 0 .64.48 3.17 3.17 0 0 0 1.15.17 8.08 8.08 0 0 0 1.32-.12 9.64 9.64 0 0 0 1.24-.28v-4.72h1.65zM371.85 86.11h-2.16l-4.08-4.5h-.9v4.5h-1.65v-9.79h1.65v4.23a2.64 2.64 0 0 0 1.32-.29 2.28 2.28 0 0 0 .85-1c.09-.16.17-.32.25-.5s.15-.35.23-.52a3.59 3.59 0 0 1 1.14-1.48 3.35 3.35 0 0 1 2-.49h.76v1.45h-.73a1.81 1.81 0 0 0-1.09.29 2.51 2.51 0 0 0-.71 1 4 4 0 0 1-.74 1.23 3 3 0 0 1-.83.62zM381.27 86.11h-1.64v-1l-.59.41a4.77 4.77 0 0 1-.73.43 4.39 4.39 0 0 1-.95.34 5.25 5.25 0 0 1-1.26.13 3.17 3.17 0 0 1-2.25-.87 3 3 0 0 1-.92-2.25 3.09 3.09 0 0 1 .48-1.8 3.28 3.28 0 0 1 1.37-1.09 7.28 7.28 0 0 1 2.15-.53q1.26-.15 2.7-.21v-.26a2 2 0 0 0-.2-.93 1.39 1.39 0 0 0-.57-.58 2.08 2.08 0 0 0-.84-.27 6.85 6.85 0 0 0-1-.07 6.67 6.67 0 0 0-1.45.17 11.7 11.7 0 0 0-1.65.49h-.09v-1.71a13.59 13.59 0 0 1 1.4-.29 10.12 10.12 0 0 1 1.8-.16 8.13 8.13 0 0 1 1.81.17 3.57 3.57 0 0 1 1.33.58 2.55 2.55 0 0 1 .84 1.05 3.77 3.77 0 0 1 .29 1.59zm-1.64-2.41v-2.74l-1.78.13a9.45 9.45 0 0 0-1.62.26 2.51 2.51 0 0 0-1.15.63 1.52 1.52 0 0 0-.44 1.17 1.56 1.56 0 0 0 .51 1.27 2.33 2.33 0 0 0 1.55.43 3.78 3.78 0 0 0 1.59-.34 7.83 7.83 0 0 0 1.34-.81z"/><g><path d="M254.25 135.99h-4.68v11.54h-1.74v-11.54h-4.67v-1.55h11.09zM264.24 142.63a5.52 5.52 0 0 1-1.23 3.79 4.64 4.64 0 0 1-6.6 0 6.47 6.47 0 0 1 0-7.59 4.61 4.61 0 0 1 6.6 0 5.55 5.55 0 0 1 1.23 3.8zm-1.7 0a4.48 4.48 0 0 0-.75-2.84 2.81 2.81 0 0 0-4.16 0 5.74 5.74 0 0 0 0 5.64 2.76 2.76 0 0 0 4.16 0 4.46 4.46 0 0 0 .75-2.8zM274.45 147.53h-1.66v-3.77c-.53.16-1 .3-1.53.4a7.81 7.81 0 0 1-1.59.15 3.39 3.39 0 0 1-2.41-.78 2.92 2.92 0 0 1-.84-2.25v-3.57h1.65v2.73a7.63 7.63 0 0 0 .07 1 1.84 1.84 0 0 0 .3.76 1.51 1.51 0 0 0 .64.49 3.26 3.26 0 0 0 1.16.16 9 9 0 0 0 1.31-.11 11.14 11.14 0 0 0 1.24-.28v-4.76h1.66zM286.56 147.53h-2.16l-4.08-4.5h-.9v4.5h-1.65v-9.82h1.65v4.24a2.64 2.64 0 0 0 1.32-.29 2.41 2.41 0 0 0 .85-1l.24-.5.24-.52a3.53 3.53 0 0 1 1.14-1.48 3.33 3.33 0 0 1 2-.5h.7v1.43h-.73a1.8 1.8 0 0 0-1.08.29 2.51 2.51 0 0 0-.71 1 4 4 0 0 1-.74 1.23 3 3 0 0 1-.83.62zM295.98 147.53h-1.64v-1l-.6.41a4.7 4.7 0 0 1-.72.43 4.74 4.74 0 0 1-2.21.47 3.14 3.14 0 0 1-2.25-.88 3 3 0 0 1-.92-2.24 3.09 3.09 0 0 1 .48-1.8 3.25 3.25 0 0 1 1.36-1.09 7.43 7.43 0 0 1 2.16-.53c.84-.1 1.73-.17 2.7-.21v-.26a2 2 0 0 0-.2-.93 1.39 1.39 0 0 0-.57-.58 2.08 2.08 0 0 0-.84-.27 6.85 6.85 0 0 0-1-.07 6.6 6.6 0 0 0-1.45.17 11.32 11.32 0 0 0-1.65.49h-.09v-1.72c.32-.08.79-.18 1.4-.29a11.11 11.11 0 0 1 1.8-.15 8 8 0 0 1 1.8.17 3.54 3.54 0 0 1 1.34.58 2.63 2.63 0 0 1 .84 1.05 3.93 3.93 0 0 1 .29 1.59zm-1.64-2.42v-2.73c-.51 0-1.1.07-1.78.13a9.42 9.42 0 0 0-1.63.26 2.62 2.62 0 0 0-1.15.63 1.81 1.81 0 0 0 .07 2.44 2.42 2.42 0 0 0 1.56.43 3.78 3.78 0 0 0 1.59-.34 7.28 7.28 0 0 0 1.34-.82zM312.84 146.92a10.56 10.56 0 0 1-1.74.65 5.92 5.92 0 0 1-1.44.18 5.86 5.86 0 0 1-2-.31 4 4 0 0 1-1.54-1 4.24 4.24 0 0 1-1-1.6 6.4 6.4 0 0 1-.36-2.25 5.27 5.27 0 0 1 1.31-3.75 4.58 4.58 0 0 1 3.56-1.4 6 6 0 0 1 1.67.23 9 9 0 0 1 1.51.58v1.84h-.1a6.18 6.18 0 0 0-1.61-.92 4.39 4.39 0 0 0-1.55-.3 2.8 2.8 0 0 0-2.27 1 4.26 4.26 0 0 0-.8 2.74 4.15 4.15 0 0 0 .8 2.71 2.76 2.76 0 0 0 2.27 1 4.63 4.63 0 0 0 1-.13 4.85 4.85 0 0 0 .93-.35 4.91 4.91 0 0 0 .69-.4c.24-.15.41-.27.5-.34h.1zM323.47 142.63a5.52 5.52 0 0 1-1.23 3.79 4.64 4.64 0 0 1-6.6 0 6.47 6.47 0 0 1 0-7.59 4.61 4.61 0 0 1 6.6 0 5.55 5.55 0 0 1 1.23 3.8zm-1.7 0a4.48 4.48 0 0 0-.75-2.84 2.81 2.81 0 0 0-4.16 0 5.74 5.74 0 0 0 0 5.64 2.51 2.51 0 0 0 2.09.95 2.49 2.49 0 0 0 2.06-.94 4.4 4.4 0 0 0 .76-2.81zM334.25 147.53h-1.66v-8.39h-4.91v8.39h-1.65v-9.82h8.22zM346.14 142.5a6.89 6.89 0 0 1-.34 2.19 4.8 4.8 0 0 1-1 1.67 4 4 0 0 1-1.37 1 3.93 3.93 0 0 1-1.66.35 5.47 5.47 0 0 1-1.39-.16 6 6 0 0 1-1.26-.52v4.11h-1.65v-13.43h1.65v1a6.39 6.39 0 0 1 1.48-.93 4.34 4.34 0 0 1 1.76-.37 3.24 3.24 0 0 1 2.76 1.34 6.18 6.18 0 0 1 1.02 3.75zm-1.71 0a4.76 4.76 0 0 0-.6-2.66 2.14 2.14 0 0 0-1.87-.88 3.72 3.72 0 0 0-1.43.31 6.92 6.92 0 0 0-1.38.81v5.56a6.3 6.3 0 0 0 1.21.44 5.68 5.68 0 0 0 1.15.11 2.65 2.65 0 0 0 2.15-.93 4.21 4.21 0 0 0 .77-2.71zM357.08 142.63a5.52 5.52 0 0 1-1.23 3.79 4.65 4.65 0 0 1-6.61 0 6.51 6.51 0 0 1 0-7.59 4.62 4.62 0 0 1 6.61 0 5.55 5.55 0 0 1 1.23 3.8zm-1.7 0a4.48 4.48 0 0 0-.75-2.84 2.81 2.81 0 0 0-4.16 0 5.68 5.68 0 0 0 0 5.64 2.75 2.75 0 0 0 4.15 0 4.46 4.46 0 0 0 .76-2.8zM366.85 139.16h-3.55v8.37h-1.65v-8.37h-3.55v-1.45h8.75zM376.84 147.53h-1.64v-7.37l-5.14 7.37h-1.49v-9.82h1.63v7.27l5.09-7.27h1.55zM388.19 144.56a2.73 2.73 0 0 1-.28 1.27 2.59 2.59 0 0 1-.79.92 4 4 0 0 1-1.22.6 7 7 0 0 1-1.75.18h-4.06v-9.82h3.82a13.16 13.16 0 0 1 1.65.08 3.07 3.07 0 0 1 1.05.33 1.94 1.94 0 0 1 .82.75 2.26 2.26 0 0 1 .26 1.1 2 2 0 0 1-.42 1.27 2.73 2.73 0 0 1-1.06.83v.09a2.86 2.86 0 0 1 1.44.81 2.27 2.27 0 0 1 .54 1.59zm-2.22-4.33a1.2 1.2 0 0 0-.14-.57.93.93 0 0 0-.41-.4 2.26 2.26 0 0 0-.83-.21h-2.86v2.69h2.06a5.83 5.83 0 0 0 1-.05 1.64 1.64 0 0 0 .63-.24 1.13 1.13 0 0 0 .46-.49 1.67 1.67 0 0 0 .09-.73zm.52 4.34a1.66 1.66 0 0 0-.16-.79 1.46 1.46 0 0 0-.69-.56 2.24 2.24 0 0 0-.72-.18h-3.19v3.2h1.56a14.58 14.58 0 0 0 1.52-.06 2.44 2.44 0 0 0 .91-.29 1.5 1.5 0 0 0 .58-.53 1.45 1.45 0 0 0 .19-.79zM398.71 147.53h-1.65v-8.43h-3.66q0 .74-.06 1.41c0 .45 0 .86-.05 1.22a21.59 21.59 0 0 1-.2 2.34 7 7 0 0 1-.37 1.46 3.58 3.58 0 0 1-.47.88 4.1 4.1 0 0 1-.56.61 2.05 2.05 0 0 1-.66.4 2.28 2.28 0 0 1-.8.13h-.81v-1.44h.49a1.67 1.67 0 0 0 .44-.06.78.78 0 0 0 .38-.23 3.23 3.23 0 0 0 .72-1.49 15.7 15.7 0 0 0 .36-3c0-.48.05-1.05.07-1.71s0-1.29.06-1.89h6.75zM410.18 142.79h-7.27a4.21 4.21 0 0 0 .27 1.58 2.94 2.94 0 0 0 .75 1.1 2.91 2.91 0 0 0 1.09.64 4.3 4.3 0 0 0 1.38.21 5.42 5.42 0 0 0 2-.4 4.94 4.94 0 0 0 1.44-.79h.09v1.8a13.16 13.16 0 0 1-1.7.59 6.85 6.85 0 0 1-1.83.24 5.29 5.29 0 0 1-3.82-1.32 5 5 0 0 1-1.37-3.76 5.36 5.36 0 0 1 1.32-3.82 4.47 4.47 0 0 1 3.45-1.42 4 4 0 0 1 3.07 1.16 4.67 4.67 0 0 1 1.07 3.3zm-1.6-1.26a2.93 2.93 0 0 0-.66-2 2.49 2.49 0 0 0-2-.72 2.85 2.85 0 0 0-2.12.79 3.05 3.05 0 0 0-.89 1.94zM420.91 147.53h-1.66v-4.42h-4.91v4.42h-1.65v-9.82h1.65v4h4.91v-4h1.66zM432.43 147.53h-1.64v-7.37l-5.14 7.37h-1.49v-9.82h1.63v7.27l5.09-7.27h1.55zM443.22 147.53h-1.65v-3.89h-1.94l-3 3.89h-1.95l3.31-4.05a3.44 3.44 0 0 1-1.86-1.08 2.86 2.86 0 0 1-.59-1.9 2.38 2.38 0 0 1 .35-1.33 2.77 2.77 0 0 1 .89-.88 3.15 3.15 0 0 1 1.21-.46 8.65 8.65 0 0 1 1.49-.12h3.78zm-1.65-5.21v-3.31h-2.08a7.26 7.26 0 0 0-1 0 2 2 0 0 0-.65.23 1.16 1.16 0 0 0-.5.53 1.58 1.58 0 0 0-.17.71 2.76 2.76 0 0 0 .1.79 1.4 1.4 0 0 0 .42.56 1.83 1.83 0 0 0 .79.34 4.77 4.77 0 0 0 1 .1z"/></g><g><path d="M58.32 28.85h-7.79v-9.82h1.65v8.39h4.84v-8.39h1.65v8.39h1.24v3.78h-1.59zM70.35 24.11h-7.23a4.25 4.25 0 0 0 .27 1.58 2.93 2.93 0 0 0 1.83 1.73 4.36 4.36 0 0 0 1.39.21 5.33 5.33 0 0 0 2-.4 4.81 4.81 0 0 0 1.45-.78h.09v1.8a15 15 0 0 1-1.71.59 6.85 6.85 0 0 1-1.83.24 5.27 5.27 0 0 1-3.81-1.33A5 5 0 0 1 61.43 24a5.44 5.44 0 0 1 1.31-3.83 4.51 4.51 0 0 1 3.46-1.41 4 4 0 0 1 3.07 1.16 4.69 4.69 0 0 1 1.07 3.29zm-1.61-1.27a2.91 2.91 0 0 0-.65-2 2.55 2.55 0 0 0-2-.71 2.88 2.88 0 0 0-2.11.78 3.05 3.05 0 0 0-.89 1.94zM81.07 28.85h-1.65v-4.42h-4.91v4.42h-1.6v-9.82h1.6v4h4.91v-4h1.65zM91.91 28.85h-1.6V27.8l-.59.42a3.68 3.68 0 0 1-.73.42 4.39 4.39 0 0 1-1 .34 5.07 5.07 0 0 1-1.25.14 3.11 3.11 0 0 1-2.25-.88 3 3 0 0 1-.93-2.24 3.12 3.12 0 0 1 .48-1.81 3.19 3.19 0 0 1 1.37-1.08 7.43 7.43 0 0 1 2.15-.54q1.35-.13 2.75-.25v-.25a1.9 1.9 0 0 0-.2-.94 1.49 1.49 0 0 0-.56-.58 2.57 2.57 0 0 0-.85-.27 6.85 6.85 0 0 0-1-.07 7.36 7.36 0 0 0-1.45.17 11.79 11.79 0 0 0-1.65.5h-.09v-1.64c.33-.09.79-.18 1.4-.29a10.12 10.12 0 0 1 1.8-.16 8.7 8.7 0 0 1 1.81.17 3.51 3.51 0 0 1 1.33.59 2.59 2.59 0 0 1 .84 1 3.77 3.77 0 0 1 .22 1.63zm-1.6-2.42V23.7c-.5 0-1.1.07-1.78.13a9.59 9.59 0 0 0-1.62.25 2.77 2.77 0 0 0-1.15.63 1.82 1.82 0 0 0 .07 2.45 2.41 2.41 0 0 0 1.55.42 3.7 3.7 0 0 0 1.6-.34 6.66 6.66 0 0 0 1.33-.81z"/></g><g fill="#13aa13"><path d="M13.48 102.1h-2l-3.15-4.48h-.8v4.48H5.91v-4.48h-.72l-3.28 4.48H0l3.79-5.14a2.34 2.34 0 0 1-.76-.65 4.07 4.07 0 0 1-.6-1.27 2.31 2.31 0 0 0-.57-1 1.58 1.58 0 0 0-1.06-.29H.33v-1.43h.58a3 3 0 0 1 1.75.44 2.93 2.93 0 0 1 1 1.53c.06.16.12.33.2.53s.15.36.21.49a2 2 0 0 0 .74 1 2.18 2.18 0 0 0 1 .31v-4.3h1.63v4.25a2.15 2.15 0 0 0 1-.32 2 2 0 0 0 .75-.94l.21-.51c.08-.19.14-.36.19-.51a3 3 0 0 1 1-1.53 3.08 3.08 0 0 1 1.92-.44h.6v1.42h-.46a1.53 1.53 0 0 0-1.08.31 2.3 2.3 0 0 0-.55 1 3.9 3.9 0 0 1-.58 1.21 2.52 2.52 0 0 1-.74.66zM23.75 97.37h-7.24a4.15 4.15 0 0 0 .28 1.57 2.85 2.85 0 0 0 1.83 1.74 4.34 4.34 0 0 0 1.38.21 5.42 5.42 0 0 0 2-.4 5 5 0 0 0 1.45-.79h.08v1.81a12.61 12.61 0 0 1-1.7.58 6.85 6.85 0 0 1-1.83.24 5.25 5.25 0 0 1-3.81-1.32 5 5 0 0 1-1.37-3.76 5.37 5.37 0 0 1 1.31-3.82 4.52 4.52 0 0 1 3.46-1.42 4 4 0 0 1 3.06 1.16 4.69 4.69 0 0 1 1.08 3.3zm-1.61-1.27a2.92 2.92 0 0 0-.65-2 2.53 2.53 0 0 0-2-.71 2.86 2.86 0 0 0-2.11.78 3 3 0 0 0-.9 1.94zM34.17 102.1h-1.65v-8.43h-3.67v2.63a21.59 21.59 0 0 1-.2 2.34 7.7 7.7 0 0 1-.37 1.46 3.58 3.58 0 0 1-.47.88 4.1 4.1 0 0 1-.56.61 2.05 2.05 0 0 1-.66.4 2.32 2.32 0 0 1-.8.13h-.88v-1.44h.51a1.72 1.72 0 0 0 .44-.06.83.83 0 0 0 .38-.23 3.18 3.18 0 0 0 .72-1.49 15.59 15.59 0 0 0 .36-3c0-.48.05-1 .07-1.71s0-1.29.05-1.88h6.76zM45.05 102.1h-1.64v-1l-.59.41a3.75 3.75 0 0 1-.73.43 4.39 4.39 0 0 1-1 .34 5.15 5.15 0 0 1-1.26.14 3.18 3.18 0 0 1-2.25-.88 3 3 0 0 1-.92-2.24 3.1 3.1 0 0 1 .48-1.81 3.28 3.28 0 0 1 1.42-1.17 7.36 7.36 0 0 1 2.15-.53q1.26-.15 2.7-.21v-.26a2 2 0 0 0-.2-.93 1.39 1.39 0 0 0-.57-.58 2.25 2.25 0 0 0-.84-.27 6.85 6.85 0 0 0-1-.07 6.67 6.67 0 0 0-1.45.17 10.59 10.59 0 0 0-1.65.5h-.09V92.5a13.59 13.59 0 0 1 1.4-.29 10.12 10.12 0 0 1 1.8-.16 8.7 8.7 0 0 1 1.81.17 3.57 3.57 0 0 1 1.33.58 2.55 2.55 0 0 1 .84 1 3.77 3.77 0 0 1 .29 1.59zm-1.64-2.41v-2.74l-1.78.13a9.45 9.45 0 0 0-1.62.26 2.51 2.51 0 0 0-1.15.63 1.52 1.52 0 0 0-.44 1.17 1.56 1.56 0 0 0 .51 1.27 2.35 2.35 0 0 0 1.55.43 3.63 3.63 0 0 0 1.59-.34 7.83 7.83 0 0 0 1.34-.81zM56.45 97.37h-7.23a4.16 4.16 0 0 0 .27 1.57 3 3 0 0 0 .75 1.11 3 3 0 0 0 1.08.63 4.36 4.36 0 0 0 1.39.21 5.42 5.42 0 0 0 2-.4 5.08 5.08 0 0 0 1.44-.79h.09v1.81a13.24 13.24 0 0 1-1.71.58 6.83 6.83 0 0 1-1.82.24 5.29 5.29 0 0 1-3.8-1.32 5 5 0 0 1-1.37-3.76 5.42 5.42 0 0 1 1.31-3.82 4.52 4.52 0 0 1 3.46-1.42 4 4 0 0 1 3.07 1.16 4.73 4.73 0 0 1 1.07 3.3zm-1.61-1.27a2.87 2.87 0 0 0-.65-2 2.51 2.51 0 0 0-2-.71 2.88 2.88 0 0 0-2.11.78 3.05 3.05 0 0 0-.89 1.94zM68.24 102.1H66.6v-7.78l-2.44 5h-1.25l-2.43-5v7.75h-1.52v-9.75h2l2.67 5.49 2.58-5.49h2zM79.91 97.2a5.52 5.52 0 0 1-1.23 3.79 4.62 4.62 0 0 1-6.61 0 6.5 6.5 0 0 1 0-7.58 4.6 4.6 0 0 1 6.61 0 5.52 5.52 0 0 1 1.23 3.79zm-1.71 0a4.55 4.55 0 0 0-.79-2.88 2.82 2.82 0 0 0-4.17 0 4.55 4.55 0 0 0-.74 2.84 4.47 4.47 0 0 0 .75 2.8 2.75 2.75 0 0 0 4.15 0 4.46 4.46 0 0 0 .75-2.76zM90.63 97.37H83.4a4.16 4.16 0 0 0 .27 1.57 3 3 0 0 0 .75 1.11 3 3 0 0 0 1.08.63 4.36 4.36 0 0 0 1.39.21 5.42 5.42 0 0 0 2-.4 5.08 5.08 0 0 0 1.44-.79h.09v1.81a13.24 13.24 0 0 1-1.71.58 6.83 6.83 0 0 1-1.8.23 5.29 5.29 0 0 1-3.82-1.32 5 5 0 0 1-1.37-3.76 5.38 5.38 0 0 1 1.32-3.82A4.49 4.49 0 0 1 86.49 92a4 4 0 0 1 3.07 1.16 4.73 4.73 0 0 1 1.07 3.3zm-1.61-1.27a2.87 2.87 0 0 0-.65-2 2.5 2.5 0 0 0-2-.71 2.89 2.89 0 0 0-2.12.78 3.05 3.05 0 0 0-.89 1.94z"/></g><g fill="#f90f03"><path d="M36.75 162.78H35.1v-8.39h-4.92v8.39h-1.65v-9.82h8.22zM48.64 157.75a6.62 6.62 0 0 1-.34 2.19 4.65 4.65 0 0 1-1 1.67 4.06 4.06 0 0 1-3 1.37 5.46 5.46 0 0 1-1.39-.17 6 6 0 0 1-1.26-.52v4.11H40v-13.44h1.65v1a6.57 6.57 0 0 1 1.48-.92 4.22 4.22 0 0 1 1.76-.38 3.24 3.24 0 0 1 2.76 1.34 6.18 6.18 0 0 1 .99 3.75zm-1.7 0a4.75 4.75 0 0 0-.61-2.66 2.11 2.11 0 0 0-1.86-.87 3.72 3.72 0 0 0-1.44.3 6.92 6.92 0 0 0-1.38.81v5.57a7.21 7.21 0 0 0 1.21.43 5.68 5.68 0 0 0 1.15.11 2.63 2.63 0 0 0 2.15-.93 4.21 4.21 0 0 0 .75-2.71zM59.43 158.04H52.2a4.21 4.21 0 0 0 .27 1.58 3.07 3.07 0 0 0 .75 1.11 3 3 0 0 0 1.09.63 4.3 4.3 0 0 0 1.38.21 5.42 5.42 0 0 0 2-.4 4.94 4.94 0 0 0 1.44-.79h.09v1.8a13.16 13.16 0 0 1-1.7.59 6.85 6.85 0 0 1-1.83.24 5.29 5.29 0 0 1-3.78-1.32 5 5 0 0 1-1.37-3.76 5.36 5.36 0 0 1 1.32-3.82 4.47 4.47 0 0 1 3.45-1.42 4 4 0 0 1 3.07 1.16 4.67 4.67 0 0 1 1.07 3.3zm-1.6-1.26a2.93 2.93 0 0 0-.66-2 2.49 2.49 0 0 0-2-.72 2.89 2.89 0 0 0-2.12.79 3.05 3.05 0 0 0-.89 1.94zM70.85 165.14h-1.54v-2.38h-7.4v2.38h-1.52v-3.76h1.07a13.47 13.47 0 0 0 1.53-3.92 20 20 0 0 0 .5-4.5h6.17v8.42h1.19zm-2.84-3.76v-7h-3a16.46 16.46 0 0 1-.68 4 12.85 12.85 0 0 1-1.29 3zM81.35 158.04h-7.24a4.21 4.21 0 0 0 .27 1.58 3.2 3.2 0 0 0 .75 1.11 3 3 0 0 0 1.09.63 4.34 4.34 0 0 0 1.38.21 5.42 5.42 0 0 0 2-.4 4.94 4.94 0 0 0 1.44-.79h.09v1.8a12.65 12.65 0 0 1-1.7.59 6.85 6.85 0 0 1-1.83.24 5.29 5.29 0 0 1-3.82-1.32 5 5 0 0 1-1.37-3.76 5.36 5.36 0 0 1 1.32-3.82 4.47 4.47 0 0 1 3.46-1.42 4 4 0 0 1 3.06 1.16 4.67 4.67 0 0 1 1.08 3.3zm-1.61-1.26a2.93 2.93 0 0 0-.66-2 2.49 2.49 0 0 0-2-.72 2.89 2.89 0 0 0-2.12.79 3.05 3.05 0 0 0-.89 1.94zM91.77 162.78h-1.65v-8.46h-3.67c0 .49 0 1-.05 1.41s0 .86 0 1.22a19 19 0 0 1-.21 2.34 7.06 7.06 0 0 1-.36 1.46 3.58 3.58 0 0 1-.48.88 4 4 0 0 1-.55.61 2 2 0 0 1-.67.4 2.22 2.22 0 0 1-.79.13h-.81v-1.45h.51a1.65 1.65 0 0 0 .43-.06.86.86 0 0 0 .39-.23 3.18 3.18 0 0 0 .72-1.49 15.59 15.59 0 0 0 .36-3q0-.72.06-1.71t.06-1.89h6.76z"/></g><path fill="#13aa13" d="M221.38 89.61h14.55v14.55h-14.55z"/><path fill="#f90f03" d="M221.38 148.98h14.55v14.55h-14.55z"/><g><path d="M541.91 217.32h-2.23l-5.32-6h-1.18v6h-1.74v-13h1.74v5.87a5.41 5.41 0 0 0 .84-.09 2.11 2.11 0 0 0 .75-.3 3 3 0 0 0 .69-.58 3.7 3.7 0 0 0 .61-.91q.12-.24.27-.6l.31-.76a4.74 4.74 0 0 1 1.42-2.05 4.07 4.07 0 0 1 2.39-.58h.7v1.55h-.73a3.34 3.34 0 0 0-.95.11 1.65 1.65 0 0 0-.62.37 2 2 0 0 0-.44.61 9.19 9.19 0 0 0-.39.91 6 6 0 0 1-.93 1.7 4.09 4.09 0 0 1-1.26.95zM552.12 212.46a5.52 5.52 0 0 1-1.23 3.79 4.64 4.64 0 0 1-6.6 0 6.45 6.45 0 0 1 0-7.58 4.59 4.59 0 0 1 6.6 0 5.5 5.5 0 0 1 1.23 3.79zm-1.7 0a4.48 4.48 0 0 0-.75-2.84 2.81 2.81 0 0 0-4.16 0 5.68 5.68 0 0 0 0 5.64 2.75 2.75 0 0 0 4.15 0 4.4 4.4 0 0 0 .76-2.8zM562.6 217.32h-1.69v-8.43h-3.67v1.41c0 .41 0 .86-.06 1.22a19.3 19.3 0 0 1-.2 2.34 6.44 6.44 0 0 1-.37 1.46 3.28 3.28 0 0 1-.47.88 4.66 4.66 0 0 1-.55.61 2.09 2.09 0 0 1-.67.4 2.26 2.26 0 0 1-.79.13h-.81v-1.42h.51a1.65 1.65 0 0 0 .43-.06.78.78 0 0 0 .38-.23 3.27 3.27 0 0 0 .73-1.49 15.59 15.59 0 0 0 .36-3q0-.72.06-1.71c0-.66 0-1.29.06-1.88h6.76zM574.12 217.32h-1.63v-7.37l-5.15 7.37h-1.49v-9.81h1.63v7.26l5.09-7.26h1.55zM585.02 217.32h-1.65v-3.77c-.54.17-1.05.3-1.53.4a8 8 0 0 1-1.59.15 3.42 3.42 0 0 1-2.42-.78 2.92 2.92 0 0 1-.84-2.25v-3.56h1.66v2.81a6.24 6.24 0 0 0 .07 1 1.68 1.68 0 0 0 .3.77 1.38 1.38 0 0 0 .64.48 3.17 3.17 0 0 0 1.15.17 8.08 8.08 0 0 0 1.32-.12 10 10 0 0 0 1.24-.28v-4.75h1.65zM596.49 212.63h-7.24a4.15 4.15 0 0 0 .28 1.57 2.85 2.85 0 0 0 1.83 1.74 4.34 4.34 0 0 0 1.38.21 5.42 5.42 0 0 0 2-.4 5 5 0 0 0 1.45-.79h.08v1.8a11.4 11.4 0 0 1-1.7.59 6.85 6.85 0 0 1-1.83.24 5.25 5.25 0 0 1-3.83-1.27 5 5 0 0 1-1.37-3.76 5.37 5.37 0 0 1 1.31-3.82 4.49 4.49 0 0 1 3.46-1.42 4 4 0 0 1 3.06 1.16 4.67 4.67 0 0 1 1.08 3.3zm-1.58-1.31a2.88 2.88 0 0 0-.66-2 2.49 2.49 0 0 0-2-.72 2.87 2.87 0 0 0-2.11.79 3.07 3.07 0 0 0-.9 1.94zM606.34 216.75a10.17 10.17 0 0 1-1.73.65 6.06 6.06 0 0 1-1.45.18 5.9 5.9 0 0 1-2-.31 4.1 4.1 0 0 1-1.54-.94 4.4 4.4 0 0 1-1-1.6 6.75 6.75 0 0 1-.35-2.26 5.27 5.27 0 0 1 1.3-3.75 4.6 4.6 0 0 1 3.56-1.4 6.23 6.23 0 0 1 1.67.23 9.89 9.89 0 0 1 1.51.58v1.84h-.1a6.18 6.18 0 0 0-1.61-.92 4.34 4.34 0 0 0-1.54-.3 2.77 2.77 0 0 0-2.27 1 4.2 4.2 0 0 0-.81 2.74 4.15 4.15 0 0 0 .8 2.71 2.78 2.78 0 0 0 2.28 1 4 4 0 0 0 1-.13 4.36 4.36 0 0 0 .94-.35 6.38 6.38 0 0 0 .69-.4l.49-.34h.1zM615.82 209h-3.55v8.32h-1.65v-8.36h-3.55v-1.45h8.75zM625.64 214.39a2.73 2.73 0 0 1-.28 1.27 2.69 2.69 0 0 1-.79.92 3.8 3.8 0 0 1-1.23.6 6.82 6.82 0 0 1-1.74.18h-4.06v-9.81h3.79a13.67 13.67 0 0 1 1.66.07 3.22 3.22 0 0 1 1 .33 1.9 1.9 0 0 1 .82.76 2.22 2.22 0 0 1 .25 1.09 2 2 0 0 1-.41 1.27 2.64 2.64 0 0 1-1.06.83v.09a2.74 2.74 0 0 1 1.43.82 2.2 2.2 0 0 1 .62 1.58zm-2.22-4.33a1.2 1.2 0 0 0-.14-.57 1 1 0 0 0-.42-.4 2 2 0 0 0-.83-.2h-2.86v2.69h2.07a7.64 7.64 0 0 0 1 0 1.84 1.84 0 0 0 .63-.25 1.19 1.19 0 0 0 .46-.49 1.84 1.84 0 0 0 .09-.78zm.52 4.34a1.82 1.82 0 0 0-.16-.79 1.49 1.49 0 0 0-.7-.55 1.92 1.92 0 0 0-.72-.19H619.17v3.2h1.57a14.36 14.36 0 0 0 1.51-.06 2.49 2.49 0 0 0 .92-.29 1.5 1.5 0 0 0 .58-.53 1.53 1.53 0 0 0 .16-.79zM636.61 212.46a5.52 5.52 0 0 1-1.23 3.79 4.64 4.64 0 0 1-6.6 0 6.45 6.45 0 0 1 0-7.58 4.59 4.59 0 0 1 6.6 0 5.5 5.5 0 0 1 1.23 3.79zm-1.7 0a4.48 4.48 0 0 0-.75-2.84 2.81 2.81 0 0 0-4.16 0 5.68 5.68 0 0 0 0 5.64 2.75 2.75 0 0 0 4.15 0 4.46 4.46 0 0 0 .76-2.8zM652.71 209h-3.55v8.32h-1.65v-8.36h-3.55v-1.45h8.75zM662.79 212.46a5.52 5.52 0 0 1-1.23 3.79 4.64 4.64 0 0 1-6.6 0 6.45 6.45 0 0 1 0-7.58 4.59 4.59 0 0 1 6.6 0 5.5 5.5 0 0 1 1.23 3.79zm-1.7 0a4.48 4.48 0 0 0-.75-2.84 2.81 2.81 0 0 0-4.16 0 4.48 4.48 0 0 0-.74 2.84 4.54 4.54 0 0 0 .74 2.8 2.53 2.53 0 0 0 2.09.95 2.49 2.49 0 0 0 2.07-.94 4.46 4.46 0 0 0 .75-2.81zM673.45 214.39a2.73 2.73 0 0 1-.28 1.27 2.59 2.59 0 0 1-.79.92 3.75 3.75 0 0 1-1.22.6 7 7 0 0 1-1.75.18h-4.06v-9.81h3.8a13.59 13.59 0 0 1 1.65.07 3.07 3.07 0 0 1 1.05.33 1.9 1.9 0 0 1 .82.76 2.22 2.22 0 0 1 .26 1.09 2 2 0 0 1-.42 1.27 2.64 2.64 0 0 1-1.06.83v.09a2.81 2.81 0 0 1 1.44.82 2.2 2.2 0 0 1 .56 1.58zm-2.22-4.33a1.1 1.1 0 0 0-.14-.57 1 1 0 0 0-.41-.4 2.07 2.07 0 0 0-.83-.2h-2.86v2.69h2.06a7.64 7.64 0 0 0 1 0 1.84 1.84 0 0 0 .63-.25 1.13 1.13 0 0 0 .46-.49 1.67 1.67 0 0 0 .09-.78zm.52 4.34a1.68 1.68 0 0 0-.16-.79 1.45 1.45 0 0 0-.69-.55 2 2 0 0 0-.72-.19h-3.19v3.2h1.56a14.58 14.58 0 0 0 1.52-.06 2.44 2.44 0 0 0 .91-.29 1.5 1.5 0 0 0 .58-.53 1.43 1.43 0 0 0 .19-.79zM683.68 217.32h-1.64v-1l-.59.41a4.34 4.34 0 0 1-.73.43 4.39 4.39 0 0 1-.95.34 5.11 5.11 0 0 1-1.25.13 3.14 3.14 0 0 1-2.25-.87 3 3 0 0 1-.93-2.25 3.09 3.09 0 0 1 .48-1.8 3.28 3.28 0 0 1 1.37-1.09 7.36 7.36 0 0 1 2.15-.53q1.26-.15 2.7-.21v-.26a2 2 0 0 0-.2-.93 1.42 1.42 0 0 0-.56-.58 2.18 2.18 0 0 0-.85-.27 6.85 6.85 0 0 0-1-.07 6.67 6.67 0 0 0-1.45.17 11.7 11.7 0 0 0-1.65.49h-.09v-1.67a14.2 14.2 0 0 1 1.4-.29 10.12 10.12 0 0 1 1.8-.16 8.07 8.07 0 0 1 1.81.17 3.5 3.5 0 0 1 1.33.58 2.55 2.55 0 0 1 .84 1 3.77 3.77 0 0 1 .29 1.59zm-1.64-2.41v-2.74l-1.78.13a9.45 9.45 0 0 0-1.62.26 2.51 2.51 0 0 0-1.15.63 1.81 1.81 0 0 0 .07 2.44 2.35 2.35 0 0 0 1.55.43 3.78 3.78 0 0 0 1.59-.34 7.46 7.46 0 0 0 1.34-.77zM695.51 212.32a6.6 6.6 0 0 1-.35 2.18 4.79 4.79 0 0 1-1 1.67 4.1 4.1 0 0 1-1.37 1 4 4 0 0 1-1.67.36 5.32 5.32 0 0 1-1.38-.17 6 6 0 0 1-1.26-.52v4.11h-1.57v-13.4h1.65v1a6.36 6.36 0 0 1 1.48-.92 4.17 4.17 0 0 1 1.75-.38 3.25 3.25 0 0 1 2.77 1.34 6.19 6.19 0 0 1 .95 3.73zm-1.71 0a4.69 4.69 0 0 0-.61-2.66 2.1 2.1 0 0 0-1.86-.87 3.71 3.71 0 0 0-1.43.3 6.92 6.92 0 0 0-1.38.81v5.57a6.91 6.91 0 0 0 1.21.43 5.58 5.58 0 0 0 1.14.11 2.67 2.67 0 0 0 2.16-.93 4.26 4.26 0 0 0 .77-2.7zM706.45 212.46a5.52 5.52 0 0 1-1.23 3.79 4.65 4.65 0 0 1-6.61 0 6.5 6.5 0 0 1 0-7.58 4.6 4.6 0 0 1 6.61 0 5.5 5.5 0 0 1 1.23 3.79zm-1.71 0a4.55 4.55 0 0 0-.74-2.84 2.82 2.82 0 0 0-4.17 0 4.55 4.55 0 0 0-.74 2.84 4.47 4.47 0 0 0 .75 2.8 2.75 2.75 0 0 0 4.15 0 4.46 4.46 0 0 0 .75-2.8zM717.11 214.39a2.73 2.73 0 0 1-.29 1.27 2.66 2.66 0 0 1-.78.92 3.9 3.9 0 0 1-1.23.6 6.82 6.82 0 0 1-1.74.18h-4.06v-9.81h3.79a13.67 13.67 0 0 1 1.66.07 3.22 3.22 0 0 1 1.05.33 1.82 1.82 0 0 1 .81.76 2.12 2.12 0 0 1 .26 1.09 2.05 2.05 0 0 1-.41 1.27 2.71 2.71 0 0 1-1.06.83v.09a2.78 2.78 0 0 1 1.43.82 2.2 2.2 0 0 1 .57 1.58zm-2.2-4.33a1.2 1.2 0 0 0-.14-.57 1 1 0 0 0-.42-.4 2 2 0 0 0-.83-.2h-2.86v2.69h2.07a7.64 7.64 0 0 0 1 0 1.84 1.84 0 0 0 .63-.25 1.19 1.19 0 0 0 .46-.49 1.84 1.84 0 0 0 .09-.78zm.51 4.34a1.82 1.82 0 0 0-.15-.79 1.49 1.49 0 0 0-.7-.55 1.92 1.92 0 0 0-.72-.19H710.66v3.2h1.56a14.45 14.45 0 0 0 1.52-.06 2.49 2.49 0 0 0 .92-.29 1.4 1.4 0 0 0 .57-.53 1.43 1.43 0 0 0 .17-.79zM539.55 239.32h-1.64v-7.37l-5.13 7.37h-1.5v-9.81h1.63v7.26l5.09-7.26h1.54zM550.72 239.32h-1.65v-8.43h-3.66q0 .73-.06 1.41c0 .45 0 .86-.05 1.22a21.59 21.59 0 0 1-.2 2.34 7.7 7.7 0 0 1-.37 1.46 3.58 3.58 0 0 1-.47.88 4.1 4.1 0 0 1-.56.61 2.05 2.05 0 0 1-.66.4 2.32 2.32 0 0 1-.8.13h-.81v-1.42h.48a1.72 1.72 0 0 0 .44-.06.78.78 0 0 0 .38-.23 3.18 3.18 0 0 0 .72-1.49 15.59 15.59 0 0 0 .36-3c0-.48.05-1 .07-1.71s0-1.29 0-1.88h6.76zM562.25 239.32h-1.64v-7.37l-5.14 7.37h-1.49v-9.81h1.63v7.26l5.09-7.26h1.55zM580.32 229.55l-5.73 13.43h-1.77l1.83-4.09-3.91-9.34h1.79l3 7.27 3-7.27zM589.83 238.75a10.56 10.56 0 0 1-1.74.65 6 6 0 0 1-1.45.18 5.84 5.84 0 0 1-2-.31 4.1 4.1 0 0 1-1.54-.94 4.4 4.4 0 0 1-1-1.6 6.5 6.5 0 0 1-.36-2.26 5.31 5.31 0 0 1 1.3-3.75 4.61 4.61 0 0 1 3.56-1.4 6.36 6.36 0 0 1 1.68.23 9.89 9.89 0 0 1 1.51.58v1.84h-.1a6.35 6.35 0 0 0-1.61-.92 4.39 4.39 0 0 0-1.55-.3 2.8 2.8 0 0 0-2.27 1 4.26 4.26 0 0 0-.8 2.74 4.09 4.09 0 0 0 .8 2.71 2.76 2.76 0 0 0 2.27 1 4.12 4.12 0 0 0 1-.13 4.27 4.27 0 0 0 .93-.35 4.91 4.91 0 0 0 .69-.4c.24-.15.41-.27.5-.34h.1zM600.01 239.32h-1.65v-8.43h-3.66q0 .73-.06 1.41c0 .45 0 .86-.05 1.22a21.59 21.59 0 0 1-.2 2.34 7.7 7.7 0 0 1-.37 1.46 3.58 3.58 0 0 1-.47.88 4.72 4.72 0 0 1-.56.61 2.05 2.05 0 0 1-.66.4 2.32 2.32 0 0 1-.8.13h-.81v-1.42h.51a1.72 1.72 0 0 0 .44-.06.83.83 0 0 0 .38-.23 3.18 3.18 0 0 0 .72-1.49 15.59 15.59 0 0 0 .36-3c0-.48 0-1 .07-1.71s0-1.29.05-1.88h6.76zM611.75 229.55l-5.73 13.43h-1.76l1.83-4.09-3.92-9.34h1.8l3 7.27 3-7.27zM620.68 231h-5.11v8.32h-1.66v-9.81h6.76z"/></g><path d="M239.27 248.82h-3.23l-9.31-17.56v17.56h-2.44v-19.63h4.05l8.49 16v-16h2.44z"/></svg>