<svg data-name="Слой 1" xmlns="http://www.w3.org/2000/svg" width="440.61" height="252.6" viewBox="0 0 440.61 252.6"><title>49_picture480</title><path fill="#7a7a79" d="M102.16 8.49h1.93v202.2h-1.93z"/><path fill="#7a7a79" d="M93.5 202.53v-1.93h331.64v1.93z"/><g fill="none" stroke="#7a7a79" stroke-miterlimit="10"><path d="M97.98 151.13h-4 4"/><path stroke-dasharray="7.874920845031738,7.874920845031738" d="M105.86 151.13h326.81"/><path d="M436.61 151.13h4-4"/><path stroke-dasharray="7.874920845031738,7.874920845031738" d="M428.73 151.13H101.92"/></g><g fill="none" stroke="#7a7a79" stroke-miterlimit="10"><path d="M150.89 210.48v4-4"/><path stroke-dasharray="8.016912460327148,8.016912460327148" d="M150.89 202.47V14.07"/><path d="M150.89 10.06v-4 4"/><path stroke-dasharray="8.016912460327148,8.016912460327148" d="M150.89 18.08v188.39"/></g><g fill="none" stroke="#7a7a79" stroke-miterlimit="10"><path d="M97.83 92.36h-4 4"/><path stroke-dasharray="7.874920845031738,7.874920845031738" d="M105.7 92.36h326.81"/><path d="M436.45 92.36h4-4"/><path stroke-dasharray="7.874920845031738,7.874920845031738" d="M428.58 92.36H101.77"/></g><path fill="#7a7a79" d="M108.26 11.02H97.99L103.12 0l5.14 11.02zM425.14 196.43v10.27l11.02-5.14-11.02-5.13z"/><path d="M178.11 82.91h-9.16v-12.6h1.68v11.13h6.2V70.31h1.68v11.13h1.19v4.32h-1.59zM189.93 78.35h-7a3.93 3.93 0 0 0 .27 1.52 2.77 2.77 0 0 0 .72 1.06 2.92 2.92 0 0 0 1 .61 4 4 0 0 0 1.33.2 5.45 5.45 0 0 0 1.95-.38 4.87 4.87 0 0 0 1.39-.76h.08v1.74a13.2 13.2 0 0 1-1.64.56 6.74 6.74 0 0 1-1.76.23 5.06 5.06 0 0 1-3.67-1.27 4.8 4.8 0 0 1-1.32-3.62 5.2 5.2 0 0 1 1.26-3.68 4.34 4.34 0 0 1 3.4-1.37 3.83 3.83 0 0 1 3 1.11 4.53 4.53 0 0 1 1 3.18zm-1.55-1.22a2.83 2.83 0 0 0-.63-1.94 2.44 2.44 0 0 0-1.89-.68 2.79 2.79 0 0 0-2 .75 3 3 0 0 0-.86 1.87zM199.97 82.91h-1.6V74.8h-3.52v1.35c0 .44 0 .83-.06 1.18a20.47 20.47 0 0 1-.19 2.25 6.58 6.58 0 0 1-.36 1.4 3.21 3.21 0 0 1-.45.85 3.78 3.78 0 0 1-.54.59 1.86 1.86 0 0 1-.63.38 2.15 2.15 0 0 1-.77.13h-.78v-1.41h.49a1.52 1.52 0 0 0 .42-.06.78.78 0 0 0 .37-.22 3 3 0 0 0 .69-1.43 14.71 14.71 0 0 0 .35-2.91q0-.69.06-1.65c0-.63 0-1.24.06-1.81h6.51zM211.01 78.35h-7a3.93 3.93 0 0 0 .27 1.52 2.77 2.77 0 0 0 .72 1.06 2.92 2.92 0 0 0 1 .61 4 4 0 0 0 1.33.2 5.45 5.45 0 0 0 1.95-.38 4.87 4.87 0 0 0 1.39-.76h.08v1.74a13.2 13.2 0 0 1-1.64.56 6.74 6.74 0 0 1-1.76.23 5.06 5.06 0 0 1-3.67-1.27 4.8 4.8 0 0 1-1.32-3.62 5.2 5.2 0 0 1 1.26-3.68 4.34 4.34 0 0 1 3.4-1.37 3.83 3.83 0 0 1 2.95 1.11 4.53 4.53 0 0 1 1 3.18zm-1.55-1.22a2.83 2.83 0 0 0-.63-1.94 2.44 2.44 0 0 0-1.89-.68 2.79 2.79 0 0 0-2 .75 3 3 0 0 0-.86 1.87zM221.21 80.05a2.67 2.67 0 0 1-.27 1.22 2.71 2.71 0 0 1-.73.92 3.69 3.69 0 0 1-1.18.57 6.42 6.42 0 0 1-1.68.18h-3.91v-9.48h3.66a12.69 12.69 0 0 1 1.59.07 2.91 2.91 0 0 1 1 .32 1.86 1.86 0 0 1 .79.72 2.24 2.24 0 0 1 .25 1.06 2 2 0 0 1-.4 1.22 2.76 2.76 0 0 1-1 .81v.08a2.86 2.86 0 0 1 1.39.78 2.17 2.17 0 0 1 .49 1.53zm-2.14-4.17a1.12 1.12 0 0 0-.13-.55.87.87 0 0 0-.4-.38 1.89 1.89 0 0 0-.8-.2h-2.75v2.59h2a6.72 6.72 0 0 0 .93 0 1.77 1.77 0 0 0 .61-.23 1.17 1.17 0 0 0 .44-.48 1.69 1.69 0 0 0 .11-.75zm.5 4.18a1.69 1.69 0 0 0-.15-.76 1.48 1.48 0 0 0-.67-.54 2 2 0 0 0-.69-.18h-3v3.09h1.5a13.43 13.43 0 0 0 1.46-.06 2.39 2.39 0 0 0 .89-.28 1.51 1.51 0 0 0 .55-.51 1.44 1.44 0 0 0 .12-.76zM231.07 82.91h-1.58v-1l-.57.4a4.05 4.05 0 0 1-.7.42 4.83 4.83 0 0 1-.91.32 4.88 4.88 0 0 1-1.21.13 3 3 0 0 1-2.17-.84 2.88 2.88 0 0 1-.89-2.16 3 3 0 0 1 .46-1.74 3.18 3.18 0 0 1 1.32-1 7.21 7.21 0 0 1 2.07-.51c.81-.09 1.68-.16 2.6-.2v-.25a1.87 1.87 0 0 0-.19-.9 1.53 1.53 0 0 0-.54-.56 2.4 2.4 0 0 0-.82-.26 7.69 7.69 0 0 0-1-.07 6.65 6.65 0 0 0-1.39.17 10.23 10.23 0 0 0-1.59.48h-.09v-1.68c.31-.08.76-.18 1.35-.28a10.2 10.2 0 0 1 1.73-.15 8.06 8.06 0 0 1 1.74.16 3.32 3.32 0 0 1 1.28.57 2.4 2.4 0 0 1 .81 1 3.72 3.72 0 0 1 .28 1.54zm-1.58-2.33v-2.63c-.48 0-1.06.07-1.71.13a10 10 0 0 0-1.56.24 2.59 2.59 0 0 0-1.11.61 1.51 1.51 0 0 0-.43 1.13 1.49 1.49 0 0 0 .5 1.22 2.28 2.28 0 0 0 1.49.41 3.64 3.64 0 0 0 1.53-.32 6.46 6.46 0 0 0 1.29-.79zM241.4 82.91h-1.59v-3.72h-1.87l-2.93 3.75h-1.87l3.18-3.9a3.35 3.35 0 0 1-1.79-1 2.78 2.78 0 0 1-.57-1.83 2.29 2.29 0 0 1 .34-1.28 2.76 2.76 0 0 1 .85-.85 3.16 3.16 0 0 1 1.17-.44 9.16 9.16 0 0 1 1.44-.11h3.64zm-1.59-5v-3.18h-2a7.09 7.09 0 0 0-.94 0 1.76 1.76 0 0 0-.62.23 1.13 1.13 0 0 0-.49.5 1.46 1.46 0 0 0-.16.69 2.52 2.52 0 0 0 .1.75 1.2 1.2 0 0 0 .4.55 1.82 1.82 0 0 0 .76.33 5.09 5.09 0 0 0 1 .09zM257.57 74.85h-3.42v8.06h-1.59v-8.06h-3.42v-1.39h8.43zM267.28 78.19a5.33 5.33 0 0 1-1.19 3.65 4.47 4.47 0 0 1-6.36 0 6.24 6.24 0 0 1 0-7.3 4.44 4.44 0 0 1 6.36 0 5.31 5.31 0 0 1 1.19 3.65zm-1.65 0a4.28 4.28 0 0 0-.72-2.73 2.69 2.69 0 0 0-4 0 5.46 5.46 0 0 0 0 5.42 2.64 2.64 0 0 0 4 0 4.28 4.28 0 0 0 .72-2.69zM277.1 82.91h-1.59v-3.63c-.51.16-1 .28-1.47.38a7.37 7.37 0 0 1-1.53.14 3.32 3.32 0 0 1-2.33-.74 2.81 2.81 0 0 1-.81-2.17v-3.43h1.6v2.62a7.1 7.1 0 0 0 .06 1 1.74 1.74 0 0 0 .29.74 1.42 1.42 0 0 0 .62.47 3.18 3.18 0 0 0 1.11.16 7.42 7.42 0 0 0 1.27-.12 9.34 9.34 0 0 0 1.19-.26v-4.61h1.59zM288.76 82.91h-2.08l-3.93-4.33h-.86v4.33h-1.59v-9.45h1.59v4.08a2.46 2.46 0 0 0 1.27-.29 2.23 2.23 0 0 0 .82-.91c.08-.15.16-.31.23-.48s.15-.34.23-.5a3.5 3.5 0 0 1 1.1-1.43 3.26 3.26 0 0 1 1.89-.47h.78v1.37h-.7a1.72 1.72 0 0 0-1.05.28 2.48 2.48 0 0 0-.68 1 4 4 0 0 1-.71 1.19 2.71 2.71 0 0 1-.8.59zM297.83 82.91h-1.62v-1l-.57.4a4.05 4.05 0 0 1-.7.42 4.83 4.83 0 0 1-.91.32 4.88 4.88 0 0 1-1.21.13 3 3 0 0 1-2.17-.84 2.88 2.88 0 0 1-.89-2.16 3 3 0 0 1 .46-1.74 3.18 3.18 0 0 1 1.32-1 7.3 7.3 0 0 1 2.07-.51c.81-.09 1.68-.16 2.6-.2v-.25a1.87 1.87 0 0 0-.19-.9 1.48 1.48 0 0 0-.55-.56 2.27 2.27 0 0 0-.81-.26 7.69 7.69 0 0 0-1-.07 6.73 6.73 0 0 0-1.39.17 10.23 10.23 0 0 0-1.59.48h-.09v-1.68c.31-.08.76-.18 1.35-.28a10.2 10.2 0 0 1 1.73-.15 8.06 8.06 0 0 1 1.74.16 3.32 3.32 0 0 1 1.28.57 2.5 2.5 0 0 1 .82 1 3.9 3.9 0 0 1 .27 1.54zm-1.62-2.33v-2.63c-.48 0-1.06.07-1.71.13a10 10 0 0 0-1.56.24 2.59 2.59 0 0 0-1.11.61 1.51 1.51 0 0 0-.43 1.13 1.49 1.49 0 0 0 .5 1.22 2.28 2.28 0 0 0 1.49.41 3.72 3.72 0 0 0 1.54-.32 6.67 6.67 0 0 0 1.28-.79z"/><g><path d="M175.53 130.93h-4.5v11.12h-1.68v-11.12h-4.5v-1.48h10.68zM185.15 137.32a5.31 5.31 0 0 1-1.18 3.65 4.44 4.44 0 0 1-6.36 0 6.24 6.24 0 0 1 0-7.3 4.44 4.44 0 0 1 6.36 0 5.32 5.32 0 0 1 1.18 3.65zm-1.64 0a4.32 4.32 0 0 0-.72-2.73 2.7 2.7 0 0 0-4 0 4.39 4.39 0 0 0-.71 2.73 4.3 4.3 0 0 0 .72 2.7 2.64 2.64 0 0 0 4 0 4.32 4.32 0 0 0 .71-2.7zM194.98 142.05h-1.59v-3.63c-.52.15-1 .28-1.48.38a8 8 0 0 1-1.53.14 3.27 3.27 0 0 1-2.32-.75 2.8 2.8 0 0 1-.81-2.16v-3.44h1.59v2.6a5.74 5.74 0 0 0 .07 1 1.8 1.8 0 0 0 .29.74 1.35 1.35 0 0 0 .62.46 2.94 2.94 0 0 0 1.1.16 8.39 8.39 0 0 0 1.27-.11 11 11 0 0 0 1.2-.27v-4.58h1.59zM206.64 142.05h-2.08l-3.93-4.34h-.86v4.34h-1.56v-9.46h1.59v4.08a2.49 2.49 0 0 0 1.27-.28 2.3 2.3 0 0 0 .82-.91c.08-.15.15-.31.23-.49l.22-.49a3.45 3.45 0 0 1 1.11-1.43 3.16 3.16 0 0 1 1.89-.48h.73v1.37h-.7a1.7 1.7 0 0 0-1 .29 2.41 2.41 0 0 0-.68 1 3.88 3.88 0 0 1-.72 1.19 2.9 2.9 0 0 1-.79.6zM215.71 142.05h-1.58v-1l-.57.4a4.36 4.36 0 0 1-.7.41 4.93 4.93 0 0 1-.92.33 5.27 5.27 0 0 1-1.21.13 3 3 0 0 1-2.16-.85 2.85 2.85 0 0 1-.89-2.16 3 3 0 0 1 .46-1.73 3 3 0 0 1 1.32-1 7.11 7.11 0 0 1 2.07-.52c.81-.09 1.67-.15 2.6-.2v-.24a2 2 0 0 0-.19-.9 1.41 1.41 0 0 0-.55-.56 2.09 2.09 0 0 0-.81-.26 6.41 6.41 0 0 0-1-.07 6.75 6.75 0 0 0-1.4.16 12.33 12.33 0 0 0-1.59.48h-.08v-1.61a13.46 13.46 0 0 1 1.34-.28 10.4 10.4 0 0 1 1.74-.15 8.18 8.18 0 0 1 1.74.16 3.47 3.47 0 0 1 1.28.56 2.51 2.51 0 0 1 .81 1 3.64 3.64 0 0 1 .28 1.53zm-1.58-2.33v-2.63l-1.72.12a9.08 9.08 0 0 0-1.56.25 2.7 2.7 0 0 0-1.11.6 1.76 1.76 0 0 0 .07 2.36 2.33 2.33 0 0 0 1.5.41 3.5 3.5 0 0 0 1.53-.33 7.26 7.26 0 0 0 1.29-.78zM231.94 141.45a8.53 8.53 0 0 1-1.67.63 5.52 5.52 0 0 1-1.39.18 5.78 5.78 0 0 1-1.9-.3 4 4 0 0 1-1.48-.91 4.21 4.21 0 0 1-1-1.54 6.28 6.28 0 0 1-.34-2.18 5.13 5.13 0 0 1 1.25-3.61 4.46 4.46 0 0 1 3.43-1.35 5.85 5.85 0 0 1 1.61.23 8.25 8.25 0 0 1 1.45.56v1.77h-.09a6.2 6.2 0 0 0-1.55-.89 4.32 4.32 0 0 0-1.49-.29 2.68 2.68 0 0 0-2.19.95 4.08 4.08 0 0 0-.77 2.63 4 4 0 0 0 .77 2.62 2.67 2.67 0 0 0 2.19.93 3.87 3.87 0 0 0 1-.13 4.18 4.18 0 0 0 .9-.33c.21-.11.43-.23.66-.38a4.66 4.66 0 0 0 .48-.34h.09zM242.21 137.32a5.31 5.31 0 0 1-1.18 3.65 4.44 4.44 0 0 1-6.36 0 6.24 6.24 0 0 1 0-7.3 4.44 4.44 0 0 1 6.36 0 5.32 5.32 0 0 1 1.18 3.65zm-1.64 0a4.32 4.32 0 0 0-.72-2.73 2.7 2.7 0 0 0-4 0 4.39 4.39 0 0 0-.71 2.73 4.3 4.3 0 0 0 .72 2.7 2.41 2.41 0 0 0 2 .92 2.44 2.44 0 0 0 2-.91 4.32 4.32 0 0 0 .68-2.71zM252.56 142.05h-1.59v-8.09h-4.76v8.09h-1.59v-9.46h7.92zM264.01 137.19a6.42 6.42 0 0 1-.33 2.1 4.5 4.5 0 0 1-.94 1.61 3.89 3.89 0 0 1-1.31 1 3.83 3.83 0 0 1-1.6.34 5 5 0 0 1-1.34-.16 5.54 5.54 0 0 1-1.21-.5v4h-1.59v-12.99h1.59v1a6.42 6.42 0 0 1 1.42-.89 4 4 0 0 1 1.69-.36 3.11 3.11 0 0 1 2.66 1.29 5.91 5.91 0 0 1 .96 3.56zm-1.65 0a4.55 4.55 0 0 0-.58-2.56 2 2 0 0 0-1.79-.84 3.42 3.42 0 0 0-1.38.29 6.18 6.18 0 0 0-1.33.78v5.36a6.32 6.32 0 0 0 1.16.41 4.69 4.69 0 0 0 1.11.11 2.57 2.57 0 0 0 2.07-.89 4.08 4.08 0 0 0 .74-2.6zM274.54 137.32a5.31 5.31 0 0 1-1.18 3.65 4.44 4.44 0 0 1-6.36 0 6.24 6.24 0 0 1 0-7.3 4.44 4.44 0 0 1 6.36 0 5.32 5.32 0 0 1 1.18 3.65zm-1.64 0a4.32 4.32 0 0 0-.72-2.73 2.7 2.7 0 0 0-4 0 4.39 4.39 0 0 0-.71 2.73 4.3 4.3 0 0 0 .72 2.7 2.41 2.41 0 0 0 2 .92 2.44 2.44 0 0 0 2-.91 4.32 4.32 0 0 0 .71-2.71zM283.95 133.99h-3.42v8.06h-1.59v-8.06h-3.42v-1.4h8.43zM293.56 142.05h-1.57v-7.1l-4.95 7.1h-1.44v-9.46h1.61v7l4.9-7h1.48zM304.5 139.19a2.51 2.51 0 0 1-.28 1.21 2.4 2.4 0 0 1-.75.89 3.71 3.71 0 0 1-1.18.58 6.42 6.42 0 0 1-1.68.18h-3.91v-9.46h3.65a12.37 12.37 0 0 1 1.6.08 3 3 0 0 1 1 .31 1.91 1.91 0 0 1 .78.73 2.1 2.1 0 0 1 .25 1.06 1.92 1.92 0 0 1-.4 1.22 2.62 2.62 0 0 1-1 .8v.09a2.64 2.64 0 0 1 1.38.78 2.11 2.11 0 0 1 .54 1.53zm-2.14-4.18a1.27 1.27 0 0 0-.13-.55.89.89 0 0 0-.41-.38 2 2 0 0 0-.8-.2h-2.75v2.59h2a6.93 6.93 0 0 0 .92 0 1.5 1.5 0 0 0 .61-.24 1 1 0 0 0 .44-.47 1.6 1.6 0 0 0 .12-.75zm.5 4.18a1.49 1.49 0 0 0-.16-.75 1.33 1.33 0 0 0-.66-.54 2.07 2.07 0 0 0-.7-.18h-3v3.09h1.51a11 11 0 0 0 1.46-.07 2.33 2.33 0 0 0 .88-.27 1.49 1.49 0 0 0 .56-.52 1.39 1.39 0 0 0 .11-.76zM314.63 142.05h-1.59v-8.12h-3.53c0 .47 0 .92-.05 1.35s0 .83-.05 1.18a20.53 20.53 0 0 1-.2 2.26 7.5 7.5 0 0 1-.35 1.4 3.52 3.52 0 0 1-.46.85 4.2 4.2 0 0 1-.53.58 2.25 2.25 0 0 1-.64.39 2.39 2.39 0 0 1-.77.12h-.78v-1.39h.53a1.52 1.52 0 0 0 .42-.06.81.81 0 0 0 .37-.22 3.07 3.07 0 0 0 .69-1.43 14.2 14.2 0 0 0 .35-2.92c0-.46 0-1 .06-1.64s0-1.24.06-1.82h6.51zM325.67 137.48h-7a3.9 3.9 0 0 0 .26 1.52 2.73 2.73 0 0 0 .72 1.07 2.92 2.92 0 0 0 1 .61 4.38 4.38 0 0 0 1.34.2 5.21 5.21 0 0 0 1.94-.39 4.89 4.89 0 0 0 1.39-.75h.09v1.73a12.38 12.38 0 0 1-1.65.57 6.74 6.74 0 0 1-1.76.23 5.06 5.06 0 0 1-3.67-1.28 4.78 4.78 0 0 1-1.32-3.61 5.19 5.19 0 0 1 1.27-3.69 4.35 4.35 0 0 1 3.33-1.36 3.83 3.83 0 0 1 2.95 1.12 4.48 4.48 0 0 1 1 3.17zm-1.55-1.21a2.76 2.76 0 0 0-.63-1.94 2.4 2.4 0 0 0-1.89-.69 2.72 2.72 0 0 0-2 .76 2.85 2.85 0 0 0-.86 1.87zM336 142.05h-1.6v-4.26h-4.73v4.26h-1.59v-9.46h1.59v3.83h4.73v-3.83h1.6zM347.09 142.05h-1.57v-7.1l-4.95 7.1h-1.44v-9.46h1.57v7l4.9-7h1.49zM357.48 142.05h-1.59v-3.75h-1.87l-2.93 3.75h-1.88l3.18-3.91a3.42 3.42 0 0 1-1.79-1 2.82 2.82 0 0 1-.57-1.83 2.35 2.35 0 0 1 .34-1.28 2.82 2.82 0 0 1 .84-.84 3 3 0 0 1 1.16-.43 8.06 8.06 0 0 1 1.44-.12h3.64zm-1.59-5v-3.19h-2a6.57 6.57 0 0 0-.94.05 1.76 1.76 0 0 0-.63.22 1.26 1.26 0 0 0-.49.51 1.58 1.58 0 0 0-.15.69 2.56 2.56 0 0 0 .09.75 1.26 1.26 0 0 0 .41.54 1.66 1.66 0 0 0 .76.34 6 6 0 0 0 1 .09z"/></g><g><path d="M58.14 27.77h-7.5v-9.45h1.57v8.08h4.66v-8.08h1.59v8.08h1.14v3.64h-1.46zM69.72 23.19h-7a4.13 4.13 0 0 0 .26 1.52 3 3 0 0 0 .72 1.06 2.82 2.82 0 0 0 1 .61 4 4 0 0 0 1.33.2 5.19 5.19 0 0 0 2.03-.39 4.73 4.73 0 0 0 1.39-.76h.09v1.76a13.78 13.78 0 0 1-1.64.56 6.39 6.39 0 0 1-1.76.23 5.08 5.08 0 0 1-3.68-1.27 4.8 4.8 0 0 1-1.32-3.62 5.21 5.21 0 0 1 1.27-3.68 4.31 4.31 0 0 1 3.33-1.36 3.85 3.85 0 0 1 3 1.11 4.52 4.52 0 0 1 1 3.18zm-1.51-1.2a2.88 2.88 0 0 0-.63-1.94 2.47 2.47 0 0 0-1.9-.68 2.75 2.75 0 0 0-2 .75 2.92 2.92 0 0 0-.86 1.87zM80.05 27.77h-1.59v-4.26h-4.73v4.26h-1.59v-9.45h1.59v3.87h4.73v-3.87h1.59zM90.53 27.77h-1.59v-1l-.57.41a4 4 0 0 1-.7.41 4.21 4.21 0 0 1-.91.32 4.82 4.82 0 0 1-1.21.13 3.06 3.06 0 0 1-2.17-.85 2.88 2.88 0 0 1-.89-2.16 3 3 0 0 1 .47-1.74 3 3 0 0 1 1.31-1 7 7 0 0 1 2.08-.52c.8-.09 1.67-.16 2.59-.2v-.25a1.87 1.87 0 0 0-.19-.9 1.36 1.36 0 0 0-.54-.55 2.4 2.4 0 0 0-.82-.27 7.74 7.74 0 0 0-1-.06 6.66 6.66 0 0 0-1.39.16 10.23 10.23 0 0 0-1.59.48h-.09v-1.66c.31-.08.76-.18 1.35-.28a10.2 10.2 0 0 1 1.73-.15 8 8 0 0 1 1.74.17 3.24 3.24 0 0 1 1.28.56 2.47 2.47 0 0 1 .82 1 3.8 3.8 0 0 1 .28 1.53zm-1.59-2.33v-2.63l-1.73.13a10 10 0 0 0-1.56.24 2.59 2.59 0 0 0-1.11.61 1.5 1.5 0 0 0-.42 1.13 1.49 1.49 0 0 0 .51 1.27 2.24 2.24 0 0 0 1.5.41 3.71 3.71 0 0 0 1.53-.41 6.67 6.67 0 0 0 1.28-.75z"/></g><g fill="#13aa13"><path d="M13.49 98.81h-2l-3.14-4.48h-.8v4.48H5.91v-4.48h-.7l-3.3 4.48H0l3.79-5.14a2.44 2.44 0 0 1-.76-.65 4.07 4.07 0 0 1-.6-1.27 2.41 2.41 0 0 0-.56-1 1.61 1.61 0 0 0-1.07-.29H.34V89h.6a3 3 0 0 1 1.75.44 3 3 0 0 1 1.06 1.53c0 .16.12.33.2.53s.14.36.2.49a2 2 0 0 0 .75 1 2.18 2.18 0 0 0 1 .31V89h1.64v4.25a2.15 2.15 0 0 0 1-.32 1.92 1.92 0 0 0 .75-.94c.07-.14.14-.31.22-.51a4 4 0 0 0 .18-.51 3.07 3.07 0 0 1 1-1.53 3.13 3.13 0 0 1 1.75-.44h.61v1.42h-.47a1.5 1.5 0 0 0-1.07.31 2.2 2.2 0 0 0-.55 1 3.78 3.78 0 0 1-.59 1.21 2.36 2.36 0 0 1-.73.66zM23.75 94.08h-7.23a4.16 4.16 0 0 0 .27 1.57 3 3 0 0 0 .75 1.11 3 3 0 0 0 1.08.63 4.36 4.36 0 0 0 1.39.21 5.42 5.42 0 0 0 2-.4 5.08 5.08 0 0 0 1.44-.79h.09v1.78a13.24 13.24 0 0 1-1.71.58 6.83 6.83 0 0 1-1.82.24 5.29 5.29 0 0 1-3.8-1.29 5 5 0 0 1-1.37-3.76 5.42 5.42 0 0 1 1.31-3.77 4.52 4.52 0 0 1 3.46-1.42 4 4 0 0 1 3.07 1.16 4.73 4.73 0 0 1 1.07 3.26zm-1.61-1.27a2.87 2.87 0 0 0-.65-2 2.51 2.51 0 0 0-2-.71 2.88 2.88 0 0 0-2.11.78 3.05 3.05 0 0 0-.89 1.94zM34.21 98.81h-1.69v-8.42h-3.66v1.4c0 .4 0 .86-.06 1.22a21.59 21.59 0 0 1-.2 2.34 7 7 0 0 1-.39 1.46 3.28 3.28 0 0 1-.47.88 4.1 4.1 0 0 1-.56.61 2.05 2.05 0 0 1-.66.4 2.28 2.28 0 0 1-.8.13h-.8v-1.46h.51a1.65 1.65 0 0 0 .43-.06.78.78 0 0 0 .38-.23 3.18 3.18 0 0 0 .72-1.49 14.15 14.15 0 0 0 .36-3c0-.48.05-1.05.07-1.71s0-1.29.06-1.88h6.76zM45.06 98.81h-1.65v-1l-.59.41a4 4 0 0 1-.72.43 4.81 4.81 0 0 1-1 .34 5.21 5.21 0 0 1-1.26.14 3.15 3.15 0 0 1-2.2-.94 3 3 0 0 1-.92-2.24 3.1 3.1 0 0 1 .49-1.76 3.19 3.19 0 0 1 1.36-1.09 7.43 7.43 0 0 1 2.16-.53c.83-.1 1.73-.17 2.69-.21v-.26a2 2 0 0 0-.21-.91 1.51 1.51 0 0 0-.57-.58 2.59 2.59 0 0 0-.84-.27 6.94 6.94 0 0 0-1-.07 6.54 6.54 0 0 0-1.45.17 10.37 10.37 0 0 0-1.66.5h-.08v-1.75A13.29 13.29 0 0 1 39 88.9a10.15 10.15 0 0 1 1.81-.16 8.6 8.6 0 0 1 1.8.17 3.5 3.5 0 0 1 1.33.58 2.66 2.66 0 0 1 .85 1.05 3.93 3.93 0 0 1 .27 1.65zm-1.65-2.41v-2.74l-1.78.14a8.67 8.67 0 0 0-1.62.25 2.56 2.56 0 0 0-1.15.63 1.81 1.81 0 0 0 .07 2.44 2.36 2.36 0 0 0 1.56.43 3.63 3.63 0 0 0 1.59-.36 7.74 7.74 0 0 0 1.33-.79zM56.46 94.08h-7.25a4 4 0 0 0 .28 1.57 2.85 2.85 0 0 0 1.83 1.74 4.34 4.34 0 0 0 1.38.21 5.42 5.42 0 0 0 2-.4 5 5 0 0 0 1.51-.79h.08v1.78a12.61 12.61 0 0 1-1.7.58 6.85 6.85 0 0 1-1.83.24 5.25 5.25 0 0 1-3.81-1.32 5 5 0 0 1-1.38-3.76 5.38 5.38 0 0 1 1.29-3.74 4.51 4.51 0 0 1 3.46-1.42 4 4 0 0 1 3.06 1.16 4.69 4.69 0 0 1 1.08 3.26zm-1.61-1.27a2.93 2.93 0 0 0-.66-2 2.49 2.49 0 0 0-2-.71 2.85 2.85 0 0 0-2.11.78 3 3 0 0 0-.9 1.94zM68.21 98.81h-1.6v-7.75l-2.45 5h-1.23l-2.42-5v7.75h-1.55V89h2l2.67 5.49L66.21 89h2zM79.86 93.91a5.52 5.52 0 0 1-1.23 3.79 4.61 4.61 0 0 1-6.6 0 6.45 6.45 0 0 1 0-7.58 4.59 4.59 0 0 1 6.6 0 5.52 5.52 0 0 1 1.23 3.79zm-1.7 0a4.43 4.43 0 0 0-.75-2.83 2.79 2.79 0 0 0-4.16 0 5.72 5.72 0 0 0 0 5.63 2.76 2.76 0 0 0 4.16 0 4.46 4.46 0 0 0 .8-2.8zM90.64 94.08H83.4a4 4 0 0 0 .28 1.57 2.85 2.85 0 0 0 1.83 1.74 4.34 4.34 0 0 0 1.38.21 5.42 5.42 0 0 0 2-.4 5 5 0 0 0 1.45-.79h.08v1.78a12.61 12.61 0 0 1-1.7.58 6.85 6.85 0 0 1-1.83.24 5.25 5.25 0 0 1-3.81-1.32 5 5 0 0 1-1.38-3.76 5.38 5.38 0 0 1 1.34-3.74 4.52 4.52 0 0 1 3.46-1.42 4 4 0 0 1 3.06 1.16 4.69 4.69 0 0 1 1.08 3.26zm-1.61-1.27a2.88 2.88 0 0 0-.66-2 2.49 2.49 0 0 0-2-.71 2.85 2.85 0 0 0-2.11.78 3 3 0 0 0-.9 1.94z"/></g><g fill="#f90f03"><path d="M33.74 157.24h-1.66v-8.4h-4.87v8.4h-1.69v-9.82h8.22zM45.63 152.19a6.78 6.78 0 0 1-.34 2.18 5 5 0 0 1-1 1.68 4.14 4.14 0 0 1-1.37 1 4.09 4.09 0 0 1-1.66.35 5 5 0 0 1-1.39-.17 6 6 0 0 1-1.26-.51v4.11h-1.62v-13.41h1.65v1a6.39 6.39 0 0 1 1.48-.93 4.18 4.18 0 0 1 1.76-.37 3.22 3.22 0 0 1 2.76 1.34 6.14 6.14 0 0 1 .99 3.73zm-1.71 0a4.74 4.74 0 0 0-.6-2.65 2.12 2.12 0 0 0-1.87-.88 3.55 3.55 0 0 0-1.43.31 6.08 6.08 0 0 0-1.38.81v5.56a6.17 6.17 0 0 0 1.21.43 5 5 0 0 0 1.15.12 2.62 2.62 0 0 0 2.15-.94 4.21 4.21 0 0 0 .77-2.7zM56.42 152.5h-7.21a4.25 4.25 0 0 0 .27 1.58 2.93 2.93 0 0 0 1.83 1.73 4.36 4.36 0 0 0 1.39.21 5.33 5.33 0 0 0 2-.4 4.81 4.81 0 0 0 1.45-.78h.06v1.8a15 15 0 0 1-1.71.59 6.85 6.85 0 0 1-1.83.24 5.23 5.23 0 0 1-3.79-1.28 5 5 0 0 1-1.37-3.75 5.44 5.44 0 0 1 1.31-3.83 4.51 4.51 0 0 1 3.46-1.42 3.92 3.92 0 0 1 3.06 1.16 4.64 4.64 0 0 1 1.08 3.29zm-1.61-1.31a2.91 2.91 0 0 0-.65-2 2.55 2.55 0 0 0-2-.71 2.86 2.86 0 0 0-2.11.78 3.05 3.05 0 0 0-.84 1.93zM67.84 159.59H66.3v-2.4h-7.38v2.38h-1.54v-3.76h1.06a13 13 0 0 0 1.54-3.91 20.62 20.62 0 0 0 .5-4.5h6.17v8.41h1.19zM65 155.83v-7h-3a16.38 16.38 0 0 1-.68 4 12.48 12.48 0 0 1-1.29 3zM78.33 152.5H71.1a4.25 4.25 0 0 0 .27 1.58 2.91 2.91 0 0 0 .75 1.1 3 3 0 0 0 1.08.63 4.36 4.36 0 0 0 1.39.21 5.42 5.42 0 0 0 2-.4 4.86 4.86 0 0 0 1.44-.78h.09v1.8a15 15 0 0 1-1.71.59 6.83 6.83 0 0 1-1.82.24 5.26 5.26 0 0 1-3.8-1.28 5 5 0 0 1-1.37-3.75 5.44 5.44 0 0 1 1.31-3.83 4.51 4.51 0 0 1 3.48-1.42 4 4 0 0 1 3.07 1.16 4.69 4.69 0 0 1 1.07 3.29zm-1.61-1.31a2.91 2.91 0 0 0-.65-2 2.55 2.55 0 0 0-2-.71 2.88 2.88 0 0 0-2.11.78 3.05 3.05 0 0 0-.89 1.94zM88.76 157.24H87.1v-8.43h-3.66v1.41c0 .46 0 .85-.06 1.22a21.59 21.59 0 0 1-.2 2.34 6.9 6.9 0 0 1-.37 1.45 3.67 3.67 0 0 1-.47.89 4.66 4.66 0 0 1-.56.61 2 2 0 0 1-.66.39 2.28 2.28 0 0 1-.8.14h-.8v-1.44h.51a1.65 1.65 0 0 0 .43-.06.71.71 0 0 0 .38-.23 3.13 3.13 0 0 0 .72-1.48 14.35 14.35 0 0 0 .36-3c0-.48 0-1 .07-1.7s0-1.29.06-1.89h6.76z"/></g><path fill="#13aa13" d="M143.88 85.32h14.01v14.01h-14.01z"/><path fill="#f90f03" d="M143.88 143.44h14.01v14.01h-14.01z"/><g><path d="M267.51 227.93h-2.16l-5.14-5.74h-1.15v5.74h-1.67v-12.6h1.67v5.66a5.28 5.28 0 0 0 .82-.09 1.91 1.91 0 0 0 .71-.29 2.75 2.75 0 0 0 .67-.55 3.86 3.86 0 0 0 .59-.88l.26-.58c.09-.23.19-.47.3-.73a4.49 4.49 0 0 1 1.36-2 3.9 3.9 0 0 1 2.31-.57h.67v1.5h-.71a3.08 3.08 0 0 0-.91.11 1.43 1.43 0 0 0-.59.35 1.7 1.7 0 0 0-.43.59c-.12.25-.25.54-.38.87a5.74 5.74 0 0 1-.89 1.64 3.9 3.9 0 0 1-1.21.92zM277.31 223.19a5.31 5.31 0 0 1-1.18 3.65 4.44 4.44 0 0 1-6.36 0 6.24 6.24 0 0 1 0-7.3 4.44 4.44 0 0 1 6.36 0 5.31 5.31 0 0 1 1.18 3.65zm-1.64 0a4.32 4.32 0 0 0-.72-2.73 2.7 2.7 0 0 0-4 0 4.39 4.39 0 0 0-.74 2.73 4.3 4.3 0 0 0 .72 2.7 2.64 2.64 0 0 0 4 0 4.32 4.32 0 0 0 .74-2.7zM287.4 227.93h-1.59v-8.11h-3.53c0 .47 0 .92-.05 1.35s0 .83 0 1.18a20.08 20.08 0 0 1-.2 2.25 6.47 6.47 0 0 1-.35 1.4 3.69 3.69 0 0 1-.45.85 4.4 4.4 0 0 1-.54.59 1.91 1.91 0 0 1-.64.38 2.11 2.11 0 0 1-.77.13h-.77v-1.38h.49a1.64 1.64 0 0 0 .42-.06.75.75 0 0 0 .36-.22 3.12 3.12 0 0 0 .7-1.43 14.85 14.85 0 0 0 .34-2.91c0-.46.05-1 .07-1.64s0-1.24.05-1.82h6.51zM298.49 227.93h-1.57v-7.1l-4.95 7.1h-1.44v-9.45h1.58v7l4.9-7h1.48zM308.99 227.93h-1.59v-3.63a14.05 14.05 0 0 1-1.48.38 7.22 7.22 0 0 1-1.53.15 3.27 3.27 0 0 1-2.32-.75 2.8 2.8 0 0 1-.81-2.16v-3.44h1.59v2.62a6.78 6.78 0 0 0 .07 1 1.69 1.69 0 0 0 .29.74 1.3 1.3 0 0 0 .62.47 2.94 2.94 0 0 0 1.1.16 8.39 8.39 0 0 0 1.27-.11 11 11 0 0 0 1.2-.27v-4.58h1.59zM320.03 223.37h-7a3.94 3.94 0 0 0 .26 1.52 2.7 2.7 0 0 0 .72 1.06 2.78 2.78 0 0 0 1 .61 4.09 4.09 0 0 0 1.34.21 5.21 5.21 0 0 0 1.94-.39 4.87 4.87 0 0 0 1.39-.76h.09v1.74a16.07 16.07 0 0 1-1.65.57 6.74 6.74 0 0 1-1.76.22 5.07 5.07 0 0 1-3.67-1.27 4.79 4.79 0 0 1-1.32-3.62 5.18 5.18 0 0 1 1.27-3.68 4.31 4.31 0 0 1 3.33-1.36 3.83 3.83 0 0 1 3 1.12 4.48 4.48 0 0 1 1 3.17zm-1.55-1.18a2.74 2.74 0 0 0-.63-1.93 2.4 2.4 0 0 0-1.89-.69 2.75 2.75 0 0 0-2 .75 2.94 2.94 0 0 0-.86 1.87zM329.52 227.34a8.77 8.77 0 0 1-1.67.63 5.6 5.6 0 0 1-1.4.18 5.51 5.51 0 0 1-1.89-.31 3.8 3.8 0 0 1-1.48-.91 4 4 0 0 1-1-1.54 6.21 6.21 0 0 1-.35-2.17 5.07 5.07 0 0 1 1.26-3.61 4.44 4.44 0 0 1 3.42-1.35 5.93 5.93 0 0 1 1.62.23 8.57 8.57 0 0 1 1.45.56v1.77h-.09a6.25 6.25 0 0 0-1.56-.89 4.23 4.23 0 0 0-1.48-.29 2.67 2.67 0 0 0-2.19 1 4 4 0 0 0-.77 2.63 4 4 0 0 0 .77 2.62 2.67 2.67 0 0 0 2.19.93 4.2 4.2 0 0 0 1-.13 5.27 5.27 0 0 0 .9-.33 6.78 6.78 0 0 0 .67-.39l.48-.33h.09zM338.65 219.88h-3.44v8.05h-1.59v-8.05h-3.41v-1.4h8.43zM348.1 225.07a2.5 2.5 0 0 1-1 2.11 3.61 3.61 0 0 1-1.18.58 7 7 0 0 1-1.68.17h-3.91v-9.45h3.65a15.07 15.07 0 0 1 1.6.07 3.14 3.14 0 0 1 1 .32 1.79 1.79 0 0 1 .78.73 2.1 2.1 0 0 1 .25 1.06 2 2 0 0 1-.39 1.21 2.66 2.66 0 0 1-1 .81v.08a2.8 2.8 0 0 1 1.39.79 2.12 2.12 0 0 1 .49 1.52zm-2.14-4.17a1.12 1.12 0 0 0-.13-.55.92.92 0 0 0-.4-.38 2.1 2.1 0 0 0-.8-.2h-2.76v2.59h2a6.72 6.72 0 0 0 .93-.05 1.65 1.65 0 0 0 .6-.23 1 1 0 0 0 .45-.48 1.69 1.69 0 0 0 .11-.7zm.5 4.18a1.69 1.69 0 0 0-.15-.76 1.41 1.41 0 0 0-.67-.53 2.07 2.07 0 0 0-.7-.18h-3v3.08h1.51a13.43 13.43 0 0 0 1.46-.06 2.33 2.33 0 0 0 .88-.27 1.57 1.57 0 0 0 .56-.52 1.41 1.41 0 0 0 .11-.76zM358.66 223.19a5.31 5.31 0 0 1-1.18 3.65 4.44 4.44 0 0 1-6.36 0 6.24 6.24 0 0 1 0-7.3 4.44 4.44 0 0 1 6.36 0 5.31 5.31 0 0 1 1.18 3.65zm-1.64 0a4.32 4.32 0 0 0-.72-2.73 2.7 2.7 0 0 0-4 0 4.39 4.39 0 0 0-.71 2.73 4.3 4.3 0 0 0 .72 2.7 2.41 2.41 0 0 0 2 .92 2.44 2.44 0 0 0 2-.91 4.32 4.32 0 0 0 .71-2.71zM374.21 219.88h-3.42v8.05h-1.58v-8.05h-3.42v-1.4h8.42zM383.87 223.19a5.31 5.31 0 0 1-1.18 3.65 4.44 4.44 0 0 1-6.36 0 6.24 6.24 0 0 1 0-7.3 4.44 4.44 0 0 1 6.36 0 5.31 5.31 0 0 1 1.18 3.65zm-1.66 0a4.32 4.32 0 0 0-.72-2.73 2.7 2.7 0 0 0-4 0 4.39 4.39 0 0 0-.71 2.73 4.3 4.3 0 0 0 .72 2.7 2.41 2.41 0 0 0 2 .92 2.44 2.44 0 0 0 2-.91 4.32 4.32 0 0 0 .71-2.71zM394.14 225.07a2.53 2.53 0 0 1-.28 1.22 2.41 2.41 0 0 1-.76.89 3.51 3.51 0 0 1-1.18.58 6.83 6.83 0 0 1-1.68.17h-3.91v-9.45h3.66a15.07 15.07 0 0 1 1.6.07 3.31 3.31 0 0 1 1 .32 1.91 1.91 0 0 1 .78.73 2.1 2.1 0 0 1 .25 1.06 1.9 1.9 0 0 1-.4 1.21 2.56 2.56 0 0 1-1 .81v.08a2.72 2.72 0 0 1 1.38.79 2.09 2.09 0 0 1 .54 1.52zM392 220.9a1.12 1.12 0 0 0-.14-.55.87.87 0 0 0-.4-.38 2 2 0 0 0-.8-.2h-2.75v2.59h2a6.65 6.65 0 0 0 .92-.05 1.7 1.7 0 0 0 .61-.23 1.06 1.06 0 0 0 .44-.48 1.53 1.53 0 0 0 .12-.7zm.5 4.18a1.68 1.68 0 0 0-.16-.76 1.36 1.36 0 0 0-.67-.53 2 2 0 0 0-.69-.18h-3v3.08h1.51a13.22 13.22 0 0 0 1.45-.06 2.33 2.33 0 0 0 .89-.27 1.54 1.54 0 0 0 .55-.52 1.41 1.41 0 0 0 .12-.76zM403.99 227.93h-1.59v-1l-.57.4a4.42 4.42 0 0 1-1.61.73 4.79 4.79 0 0 1-1.21.14 3 3 0 0 1-2.16-.85 2.81 2.81 0 0 1-.89-2.16 2.75 2.75 0 0 1 1.77-2.78 7 7 0 0 1 2.08-.52c.8-.09 1.67-.16 2.59-.2v-.25a1.81 1.81 0 0 0-.19-.89 1.27 1.27 0 0 0-.54-.56 2.42 2.42 0 0 0-.81-.27 8 8 0 0 0-1-.06 6.68 6.68 0 0 0-1.4.16 10.93 10.93 0 0 0-1.59.48h-.09v-1.62q.46-.12 1.35-.27a9.44 9.44 0 0 1 1.73-.16 8 8 0 0 1 1.74.17 3.51 3.51 0 0 1 1.29.56 2.6 2.6 0 0 1 .81 1 3.8 3.8 0 0 1 .28 1.53zm-1.59-2.32v-2.64l-1.71.13a8.76 8.76 0 0 0-1.56.25 2.57 2.57 0 0 0-1.11.6 1.52 1.52 0 0 0-.42 1.13 1.49 1.49 0 0 0 .49 1.22 2.28 2.28 0 0 0 1.5.42 3.53 3.53 0 0 0 1.53-.33 7.17 7.17 0 0 0 1.28-.78zM415.37 223.09a6.44 6.44 0 0 1-.33 2.11 4.64 4.64 0 0 1-.93 1.61 3.89 3.89 0 0 1-2.92 1.31 5 5 0 0 1-1.33-.16 5.42 5.42 0 0 1-1.22-.5v4h-1.59v-12.98h1.59v1a6.27 6.27 0 0 1 1.43-.89 4 4 0 0 1 1.69-.36 3.13 3.13 0 0 1 2.66 1.29 6 6 0 0 1 .95 3.57zm-1.64 0a4.52 4.52 0 0 0-.59-2.56 2 2 0 0 0-1.79-.85 3.44 3.44 0 0 0-1.38.3 6.43 6.43 0 0 0-1.33.78v5.43a6.13 6.13 0 0 0 1.17.41 5.18 5.18 0 0 0 1.1.11 2.52 2.52 0 0 0 2.07-.9 4 4 0 0 0 .75-2.62zM425.9 223.19a5.31 5.31 0 0 1-1.18 3.65 4.44 4.44 0 0 1-6.36 0 6.24 6.24 0 0 1 0-7.3 4.44 4.44 0 0 1 6.36 0 5.31 5.31 0 0 1 1.18 3.65zm-1.64 0a4.32 4.32 0 0 0-.72-2.73 2.69 2.69 0 0 0-4 0 5.48 5.48 0 0 0 0 5.43 2.64 2.64 0 0 0 4 0 4.32 4.32 0 0 0 .72-2.7zM436.21 225.07a2.53 2.53 0 0 1-.28 1.22 2.48 2.48 0 0 1-.75.89 3.61 3.61 0 0 1-1.18.58 7 7 0 0 1-1.68.17h-3.91v-9.45h3.65a15.07 15.07 0 0 1 1.6.07 3.22 3.22 0 0 1 1 .32 1.85 1.85 0 0 1 .78.73 2.1 2.1 0 0 1 .25 1.06 1.9 1.9 0 0 1-.4 1.21 2.56 2.56 0 0 1-1 .81v.08a2.72 2.72 0 0 1 1.38.79 2.09 2.09 0 0 1 .54 1.52zm-2.14-4.17a1.24 1.24 0 0 0-.13-.55.92.92 0 0 0-.4-.38 2.1 2.1 0 0 0-.8-.2h-2.76v2.59h2a6.72 6.72 0 0 0 .93-.05 1.65 1.65 0 0 0 .6-.23 1.08 1.08 0 0 0 .45-.48 1.69 1.69 0 0 0 .07-.7zm.5 4.18a1.69 1.69 0 0 0-.15-.76 1.47 1.47 0 0 0-.67-.53 2.07 2.07 0 0 0-.7-.18h-3v3.08h1.51a13.43 13.43 0 0 0 1.46-.06 2.33 2.33 0 0 0 .88-.27 1.66 1.66 0 0 0 .56-.52 1.41 1.41 0 0 0 .07-.76zM265.21 249.12h-1.57v-7.1l-4.95 7.1h-1.48v-9.46h1.57v7l4.9-7h1.53zM275.97 249.12h-1.59V241h-3.53c0 .47 0 .92-.05 1.35s0 .83 0 1.18a20.53 20.53 0 0 1-.2 2.26 7.5 7.5 0 0 1-.39 1.4 3.52 3.52 0 0 1-.46.85 4.2 4.2 0 0 1-.53.58 2.25 2.25 0 0 1-.64.39 2.39 2.39 0 0 1-.77.12h-.78v-1.39h.49a2 2 0 0 0 .42-.05.81.81 0 0 0 .37-.22 3.07 3.07 0 0 0 .69-1.43 14.94 14.94 0 0 0 .35-2.92c0-.46.05-1 .06-1.64s0-1.24.06-1.82h6.51zM287.06 249.12h-1.57v-7.1l-4.95 7.1h-1.44v-9.46h1.57v7l4.9-7h1.49zM304.46 239.66l-5.52 12.94h-1.73l1.76-3.94-3.76-9h1.72l2.9 7 2.93-7zM313.62 248.52a8.59 8.59 0 0 1-1.68.63 5.52 5.52 0 0 1-1.39.18 5.68 5.68 0 0 1-1.89-.3 3.88 3.88 0 0 1-2.44-2.45 6.27 6.27 0 0 1-.35-2.18 5.09 5.09 0 0 1 1.26-3.61 4.42 4.42 0 0 1 3.42-1.35 5.93 5.93 0 0 1 1.62.23 8.57 8.57 0 0 1 1.45.56V242h-.1a6 6 0 0 0-1.55-.89 4.27 4.27 0 0 0-1.48-.29 2.66 2.66 0 0 0-2.19 1 4.83 4.83 0 0 0 0 5.25 2.71 2.71 0 0 0 2.2.93 3.74 3.74 0 0 0 1-.13 4 4 0 0 0 .9-.33 6.62 6.62 0 0 0 .67-.38l.47-.34h.1zM323.42 249.12h-1.59V241h-3.53v1.35c0 .43 0 .83-.05 1.18a20.92 20.92 0 0 1-.19 2.26 6.74 6.74 0 0 1-.36 1.4 3.21 3.21 0 0 1-.45.85 5 5 0 0 1-.54.58 2 2 0 0 1-.64.39 2.33 2.33 0 0 1-.76.12h-.78v-1.39h.49a2 2 0 0 0 .42-.05.87.87 0 0 0 .37-.22 3.07 3.07 0 0 0 .69-1.43 14.94 14.94 0 0 0 .35-2.92c0-.46 0-1 .06-1.64s0-1.24.06-1.82h6.5zM334.73 239.66l-5.52 12.94h-1.7l1.76-3.94-3.76-9h1.7l2.91 7 2.92-7zM343.33 241.06h-4.93v8.06h-1.59v-9.46h6.52z"/></g><path d="M161.11 239.57H158l-9-16.9v16.9h-2.35v-18.9h3.89l8.18 15.44v-15.44h2.35z"/></svg>