<?xml version="1.0" encoding="utf-8"?>
<!-- Generator: Adobe Illustrator 15.1.0, SVG Export Plug-In . SVG Version: 6.00 Build 0)  -->
<!DOCTYPE svg PUBLIC "-//W3C//DTD SVG 1.1//EN" "http://www.w3.org/Graphics/SVG/1.1/DTD/svg11.dtd">
<svg version="1.1" id="Layer_1" xmlns="http://www.w3.org/2000/svg" xmlns:xlink="http://www.w3.org/1999/xlink" x="0px" y="0px"
	 width="286px" height="242px" viewBox="0 0 286 242" enable-background="new 0 0 286 242" xml:space="preserve">
<g id="Layer_6">
	<g>
		<path fill="#339898" d="M282.352,133.885h-38.729V95.238h38.729V133.885z M43.708,135.083H5.062V96.438h38.646V135.083z"/>
		<rect x="100.775" y="3.895" fill="#5C5C5D" width="84.232" height="30.419"/>
		<path fill="#FFCD0A" d="M204.887,107.406c5.143,5.142,7.713,11.339,7.713,18.595c0,7.196-2.57,13.367-7.713,18.509
			c-4.91,4.969-10.824,7.54-17.736,7.711c-0.229,0-0.485,0-0.771,0c-7.257,0-13.454-2.57-18.596-7.711
			c-5.082-5.142-7.626-11.313-7.626-18.509c0-7.255,2.544-13.453,7.626-18.595c4.514-4.456,9.798-6.97,15.853-7.541
			c0.916-0.058,1.829-0.086,2.743-0.086C193.576,99.78,199.745,102.322,204.887,107.406z M120.655,144.51
			c-5.141,5.141-11.312,7.711-18.508,7.711c-0.344,0-0.656,0-0.944,0c-6.854-0.229-12.737-2.799-17.649-7.711
			c-5.085-5.142-7.629-11.313-7.629-18.509c0-7.255,2.544-13.453,7.629-18.595c4.854-4.799,10.597-7.341,17.222-7.626
			c0.458,0,0.915,0,1.372,0c7.196,0,13.367,2.542,18.508,7.626c5.142,5.142,7.712,11.339,7.712,18.595
			C128.367,133.197,125.797,139.368,120.655,144.51z"/>
		<path fill="#E16FAA" d="M71.47,206.805l29.733-28.877l28.964,29.734l-29.733,28.876L71.47,206.805z M186.208,238.682
			l-28.879-29.82l29.735-28.875l28.877,29.73L186.208,238.682z"/>
		<g>
			<path fill="#333333" d="M187.016,183.762l-25.92,25.195l25.197,25.889l25.889-25.195L187.016,183.762z M126.371,207.579
				l-25.161-25.853l-25.924,25.162l25.197,25.887L126.371,207.579z M184.014,102.578h-0.207c-5.396,0.519-10.103,2.762-14.115,6.731
				c-4.584,4.627-6.873,10.185-6.868,16.671c-0.003,6.483,2.286,12.018,6.868,16.603c4.627,4.624,10.185,6.937,16.67,6.938
				c0.25,0,0.479,0,0.691,0h0.067c6.162-0.188,11.442-2.5,15.844-6.938c4.624-4.585,6.937-10.12,6.937-16.603
				c0-6.486-2.313-12.042-6.937-16.671c-4.584-4.582-10.116-6.871-16.603-6.869C185.561,102.444,184.775,102.491,184.014,102.578z
				 M41.045,99.126h-14.29c-0.114,0.208-0.265,0.405-0.449,0.587c-0.521,0.527-1.154,0.792-1.897,0.794
				c-0.743-0.001-1.376-0.267-1.898-0.794c-0.184-0.182-0.333-0.378-0.448-0.587H7.771V132.4h33.274V99.126z M78.6,125.98
				c-0.002,6.483,2.288,12.018,6.868,16.603c4.4,4.392,9.634,6.704,15.705,6.938c0.037-0.002,0.07-0.002,0.104,0
				c0.287,0,0.575,0,0.863,0c6.483-0.002,12.017-2.314,16.603-6.938c4.622-4.585,6.935-10.12,6.938-16.603
				c0-6.486-2.314-12.042-6.938-16.671c-4.586-4.582-10.119-6.871-16.603-6.869c-0.368,0.004-0.736,0.027-1.104,0.068
				c-0.057,0.006-0.115,0.006-0.173,0c-0.068,0.003-0.137,0.003-0.207,0c-5.846,0.297-10.91,2.563-15.188,6.801
				C80.886,113.937,78.596,119.494,78.6,125.98z M139.143,31.611c0.115-0.208,0.266-0.404,0.45-0.586
				c0.522-0.527,1.154-0.792,1.897-0.794c0.74,0.001,1.373,0.267,1.898,0.794c0.184,0.183,0.333,0.378,0.448,0.586h38.453V6.622
				h-78.837v24.989H139.143z M279.419,133.505V100.23H265.13c-0.137,0.23-0.276,0.438-0.415,0.622
				c-0.552,0.506-1.197,0.759-1.936,0.759c-0.736,0-1.354-0.252-1.86-0.759c-0.185-0.184-0.345-0.392-0.485-0.622h-14.289v30.997
				h0.209v2.278H279.419z M262.921,64.747c0.739,0.003,1.372,0.267,1.897,0.794c0.529,0.524,0.793,1.157,0.793,1.898v27.2
				c0.018,0.068,0.027,0.137,0.033,0.208h16.465c0.736,0,1.384,0.275,1.936,0.829c0.506,0.506,0.76,1.127,0.76,1.863v38.658
				c0,0.736-0.254,1.382-0.76,1.934c-0.552,0.506-1.197,0.76-1.936,0.76h-38.656c-0.736,0-1.357-0.252-1.864-0.76
				c-0.552-0.552-0.83-1.197-0.83-1.934V97.538c0-0.736,0.278-1.357,0.83-1.863c0.507-0.553,1.128-0.829,1.864-0.829h16.636v-3.729
				h0.138V70.132h-73.934l0.068,26.923c7.969,0.001,14.767,2.82,20.4,8.457c5.684,5.68,8.524,12.503,8.524,20.466
				c0.001,7.969-2.839,14.77-8.524,20.399c-4.798,4.845-10.447,7.629-16.947,8.354v24.23l28.097,28.889
				c0.515,0.535,0.771,1.168,0.758,1.9c-0.005,0.74-0.271,1.372-0.793,1.896l-29.755,28.924c-0.538,0.52-1.182,0.773-1.932,0.761
				c-0.748-0.015-1.379-0.291-1.898-0.827l-28.928-29.757c-0.518-0.528-0.771-1.161-0.758-1.897
				c0.015-0.742,0.291-1.375,0.828-1.897l28.994-28.199v-23.921c-7.142-0.418-13.32-3.238-18.537-8.457
				c-5.635-5.631-8.455-12.432-8.455-20.398c0.004-7.964,2.821-14.787,8.455-20.467c4.363-4.325,9.391-6.993,15.086-8.009
				l-0.07-27.371h-77.453V97.09c7.403,0.29,13.767,3.098,19.085,8.422c5.686,5.68,8.527,12.503,8.527,20.466
				c0.002,7.969-2.84,14.77-8.527,20.399c-5.218,5.271-11.442,8.101-18.672,8.492l0.068,21.952l28.167,28.961
				c0.516,0.531,0.77,1.164,0.76,1.896c-0.005,0.74-0.271,1.373-0.795,1.898l-29.754,28.923c-0.538,0.519-1.183,0.772-1.933,0.761
				c-0.746-0.015-1.379-0.289-1.897-0.828l-28.927-29.752c-0.52-0.533-0.771-1.166-0.76-1.898c0.013-0.743,0.291-1.379,0.83-1.901
				l28.923-28.06l-0.066-22.127c-6.414-0.744-12.017-3.516-16.811-8.318c-5.637-5.631-8.455-12.432-8.458-20.398
				c0.005-7.964,2.823-14.787,8.458-20.467c4.696-4.654,10.162-7.381,16.396-8.182V70.132H27.1v23.609h16.639
				c0.741,0.002,1.374,0.267,1.897,0.794c0.529,0.523,0.792,1.157,0.794,1.898v38.659c-0.002,0.742-0.265,1.375-0.794,1.899
				c-0.523,0.526-1.156,0.792-1.897,0.794H5.079c-0.742-0.002-1.375-0.268-1.899-0.794c-0.528-0.524-0.791-1.157-0.793-1.899V96.434
				c0.002-0.741,0.265-1.375,0.793-1.898c0.524-0.527,1.157-0.792,1.899-0.794h16.638V67.439c0-0.741,0.265-1.375,0.793-1.898
				c0.522-0.527,1.155-0.792,1.898-0.794h114.388v-27.75H100.76c-0.741-0.002-1.374-0.267-1.899-0.794
				c-0.525-0.524-0.792-1.156-0.793-1.898V3.929c0.001-0.741,0.268-1.375,0.793-1.899c0.525-0.527,1.158-0.792,1.899-0.794h84.22
				c0.742,0.002,1.375,0.267,1.898,0.794c0.527,0.524,0.793,1.158,0.795,1.899v30.375c-0.002,0.742-0.268,1.374-0.795,1.898
				c-0.523,0.527-1.156,0.792-1.898,0.794h-40.799v27.75L262.921,64.747L262.921,64.747z"/>
		</g>
	</g>
</g>
</svg>
