<?xml version="1.0" encoding="utf-8"?>
<!-- Generator: Adobe Illustrator 15.1.0, SVG Export Plug-In . SVG Version: 6.00 Build 0)  -->
<!DOCTYPE svg PUBLIC "-//W3C//DTD SVG 1.1//EN" "http://www.w3.org/Graphics/SVG/1.1/DTD/svg11.dtd">
<svg version="1.1" id="Layer_1" xmlns="http://www.w3.org/2000/svg" xmlns:xlink="http://www.w3.org/1999/xlink" x="0px" y="0px"
	 width="288px" height="238.667px" viewBox="0 0 288 238.667" enable-background="new 0 0 288 238.667" xml:space="preserve">
<g id="Layer_7">
	<g>
		<g>
			<g>
				<path fill="#CCCBCB" d="M60.644,233.921c-16.628,1.316-30.743,2.332-42.346,3.052c-9.869,0.479-15.252,0.627-16.149,0.448V5.149
					l188.222-4.845v231.107C140.251,230.035,97.007,230.873,60.644,233.921z"/>
			</g>
			<g>
				<path fill="#E16FAA" d="M131.698,97.824l-0.091-22.518l46.473-1.436v22.788L131.698,97.824z M125.507,98.004L74.459,99.26V77.01
					l50.959-1.524L125.507,98.004z M178.08,13.671v21.353l-46.652,1.256l-0.089-21.891L178.08,13.671z M125.327,36.37l-50.868,1.346
					V15.197l50.868-0.717V36.37z M178.08,169.957v24.313l-45.934,1.436l-0.179-24.582L178.08,169.957z M178.08,135.505v27.812
					l-46.112,1.166l-0.091-27.093L178.08,135.505z M125.507,128.776l-50.957,2.063l-0.091-24.94l51.048-1.346V128.776z"/>
				<path fill="#339898" d="M125.418,65.976l-50.959,1.525V44.354l50.868-1.346L125.418,65.976z M131.607,65.796l-0.179-22.967
					l46.652-1.077V64.36L131.607,65.796z M178.08,103.297v23.326l-46.292,1.974l-0.089-24.223L178.08,103.297z M74.638,197.5
					l-0.087-24.941l51.046-1.346l0.091,24.67L74.638,197.5z M74.55,165.917v-26.196l50.957-2.154l0.089,27.095L74.55,165.917z"/>
				<path fill="#FFCD0A" d="M17.4,69.295V16.094l49.612-0.718V67.77L17.4,69.295z M67.012,77.19v54.009L17.4,133.262V78.626
					L67.012,77.19z M67.012,197.768L17.4,199.203v-57.238l49.612-1.974V197.768z"/>
				<path fill="#F16839" d="M74.638,216.339V200.01l51.05-1.66v16.194L74.638,216.339z M67.012,200.279v17.584L17.4,219.479v-17.584
					L67.012,200.279z M178.08,196.646v16.014l-45.934,1.66v-16.193L178.08,196.646z"/>
			</g>
		</g>
		<path fill="#484747" d="M181.594,90.808h-0.423c0-0.201-0.021-0.403-0.06-0.604l0.482-0.181l0.846,0.181
			c2.457,2.537,7.188,5.254,14.193,8.154c3.946,1.65,7.73,3.04,11.354,4.167c0.727,0,4.252-1.551,10.57-4.651
			c5.838-2.859,9.726-5.074,11.66-6.644c0.684-0.684,1.447-1.409,2.295-2.174c2.576-2.295,4.588-3.705,6.038-4.229l0.483-7.127
			c-4.469-0.523-9.402-2.636-14.799-6.342c-8.092-5.476-11.053-13.187-8.877-23.133c2.215-10.026,5.597-17.516,10.146-22.468
			c4.591-4.913,11.397-7.752,20.417-8.517c9.018-0.765,16.829,1.591,23.436,7.067c6.725,5.557,9.865,13.389,9.42,23.496
			c-0.361,8.979-4.107,15.744-11.232,20.293c-7.128,4.51-11.816,7.389-14.074,8.637l-0.424,8.879
			c1.409,0.201,2.559,0.482,3.445,0.845c0.684,0.242,1.607,1.33,2.775,3.262l0.605,0.906c6.322,3.826,11.635,7.309,15.945,10.45
			c7.285,5.436,10.931,9.482,10.931,12.14c0,1.61-2.937,4.449-8.817,8.516c-2.252,1.569-4.388,2.979-6.402,4.228
			c1.091,0.041,2.437,0.404,4.048,1.088c1.569,0.645,3,2.416,4.29,5.314c1.285,2.899-2.537,3.583-11.477,2.055
			c1.047,2.416,1.569,4.631,1.569,6.644c0,4.59-1.349,8.598-4.048,12.021c0.042,0.08,0.484,7.41,1.332,21.985
			c0.441,8.255,0.48,19.046,0.119,32.375c-0.322,11.153-0.463,16.729-0.424,16.729c0.242,0.523,0.605,1.106,1.086,1.752
			c0.768,1.207,1.148,2.133,1.148,2.777c0,1.973-3.199,3.686-9.602,5.135c-5.678,1.289-11.418,1.934-17.215,1.934
			c-2.939,0-4.73-0.021-5.375-0.061c-2.092-0.121-3.764-0.363-5.015-0.727v-3.866c-0.641-3.382,2.015-6.261,7.974-8.636
			c4.633-1.813,8.779-2.719,12.443-2.719c0.521,0,1.309,0.08,2.355,0.242c0.441,0.121,0.865,0.201,1.269,0.24
			c0.066-0.678,0.628-6.265,1.688-16.761c1.066-10.495-0.305-24.538-4.104-42.127c-2.219,0.685-4.251,1.127-6.102,1.329
			c-2.055,6.684-6.043,15.3-11.961,25.85c-5.436,9.664-10.328,20.777-14.678,33.342c0.285,0.523,0.646,1.105,1.09,1.752
			c0.804,1.207,1.207,2.133,1.207,2.777c0,1.973-3.201,3.684-9.604,5.135c-5.677,1.287-11.417,1.932-17.214,1.932
			c-2.979,0-4.792-0.021-5.437-0.061c-2.054-0.121-3.725-0.361-5.015-0.725v-3.866c-0.646-3.382,2.034-6.262,8.034-8.638
			c4.631-1.813,8.758-2.719,12.383-2.719c0.469,0,1.153,0.062,2.055,0.183c2.946-3.032,8.309-13.049,16.096-30.049
			c7.822-17.091,11.053-25.979,9.693-26.667c-2.779-1.087-5.559-4.047-8.334-8.878c-3.344-5.88-5.015-11.496-5.015-16.851
			c0-4.633,0.321-8.336,0.967-11.115c1.125-4.026,2.216-8.375,3.259-13.045c0.043-0.242,0.103-0.484,0.183-0.726
			c0.403-2.738,0.784-5.174,1.146-7.308c-1.248,0.765-2.656,1.611-4.227,2.537c-5.032,2.858-8.979,4.308-11.838,4.348
			c-2.616,0-11.897-3.826-27.844-11.475c-1.853-0.887-3.744-1.793-5.678-2.719c-0.16-0.08-0.283-0.161-0.361-0.242
			c0.078,0.081,0.201,0.162,0.361,0.242c-3.14,1.047-5.961,0.786-8.455-0.785c-3.103-1.933-4.65-4.53-4.65-7.792
			c0-1.369,0.322-2.416,0.967-3.141c0.643-0.765,0.963-1.61,0.963-2.537c0-0.162,0-0.302,0-0.423v-0.061v-1.086
			c-0.159,0.08-0.301,0.16-0.42,0.24c-2.016,0.926-3.807,1.39-5.376,1.39c-1.772,0-3.161-0.282-4.168-0.846
			c-1.328-0.725-1.992-2.034-1.992-3.926c0-0.644,0.403-1.409,1.209-2.295c0.886-1.047,1.871-1.571,2.958-1.571
			c2.094,0,5.336,0.403,9.725,1.208c5.396,0.967,8.215,1.469,8.457,1.51c3.422,0.404,5.193,2.376,5.314,5.92
			c0.041,0.604-0.041,2.174-0.244,4.711c-0.079,1.61-0.061,2.938,0.063,3.986c0.039,0.201,0.061,0.402,0.061,0.604h0.424V90.808z
			 M272.193,118.772c4.629-2.656,6.945-4.649,6.945-5.978c0-0.766-2.617-2.839-7.854-6.222c-4.99-3.262-7.973-5.013-8.938-5.254
			h-1.332c-0.119,0.644-0.221,1.289-0.301,1.933c-1.044,5.637-1.57,9.402-1.57,11.294c0,2.859,1.086,6.162,3.264,9.906
			C264.259,123.323,267.521,121.431,272.193,118.772z"/>
		<path fill="none" stroke="#333333" stroke-width="0.1" stroke-linecap="round" stroke-linejoin="round" stroke-miterlimit="3" d="
			M165.166,80.117c0.119-0.08,0.262-0.161,0.42-0.24v1.086v0.061 M176.762,95.701c-0.16-0.08-0.283-0.161-0.361-0.242
			 M165.166,80.117c0.242,0.322,0.361,0.503,0.361,0.544c0.035,0.036,0.056,0.136,0.06,0.302 M181.594,90.808h-0.423
			c0-0.201-0.021-0.403-0.06-0.604"/>
	</g>
</g>
</svg>
