<?xml version="1.0" encoding="utf-8"?>
<!-- Generator: Adobe Illustrator 15.1.0, SVG Export Plug-In . SVG Version: 6.00 Build 0)  -->
<!DOCTYPE svg PUBLIC "-//W3C//DTD SVG 1.1//EN" "http://www.w3.org/Graphics/SVG/1.1/DTD/svg11.dtd">
<svg version="1.1" id="Layer_1" xmlns="http://www.w3.org/2000/svg" xmlns:xlink="http://www.w3.org/1999/xlink" x="0px" y="0px"
	 width="450px" height="187.333px" viewBox="0 0 450 187.333" enable-background="new 0 0 450 187.333" xml:space="preserve">
<g id="Layer_5">
	<g>
		<g>
			<path fill="#979797" d="M117.768,59.314C105.914,47.459,91.61,41.532,74.861,41.532c-16.784,0-31.103,5.927-42.956,17.782
				C20.051,71.168,14.124,85.488,14.124,102.27s5.927,31.098,17.781,42.951c11.854,11.854,26.172,17.781,42.956,17.781
				c16.75,0,31.053-5.928,42.907-17.781c11.882-11.854,17.826-26.169,17.826-42.951S129.65,71.168,117.768,59.314z M126.704,51.266
				c14.192,14.193,21.291,31.337,21.291,51.424c0,20.09-7.099,37.23-21.291,51.424c-14.192,14.191-31.334,21.29-51.423,21.29
				c-20.087,0-37.23-7.099-51.423-21.29c-14.194-14.193-21.29-31.335-21.29-51.425c0-20.087,7.096-37.23,21.289-51.424
				c14.192-14.192,31.336-21.29,51.423-21.29C95.369,29.975,112.511,37.073,126.704,51.266z"/>
			<path fill="#232323" d="M74.767,46.074c-15.474,0-28.669,5.459-39.586,16.376c-10.917,10.888-16.377,24.064-16.377,39.536
				c0,5.709,0.75,11.122,2.246,16.239c0.156,0.559,0.515,0.999,1.077,1.307c0.53,0.284,1.092,0.346,1.686,0.189
				c0.559-0.189,0.999-0.547,1.309-1.076c0.282-0.559,0.344-1.123,0.188-1.686c-1.404-4.711-2.09-9.7-2.061-14.975
				c-0.03-14.222,4.992-26.355,15.068-36.4c10.075-10.079,22.225-15.098,36.45-15.068c14.192-0.029,26.326,4.989,36.403,15.068
				c10.074,10.045,15.113,22.179,15.113,36.4c-0.033,6.178-0.999,11.98-2.902,17.407c-0.218,0.596-0.188,1.171,0.096,1.733
				c0.278,0.53,0.701,0.903,1.262,1.121c0.592,0.219,1.169,0.187,1.73-0.095c0.529-0.278,0.903-0.702,1.121-1.261
				c2.093-5.865,3.137-12.166,3.137-18.907c-0.031-15.472-5.505-28.648-16.424-39.536C103.386,51.533,90.207,46.074,74.767,46.074z
				 M117.768,59.314c11.882,11.854,17.826,26.174,17.826,42.956s-5.943,31.098-17.826,42.951
				c-11.854,11.854-26.158,17.781-42.907,17.781c-16.784,0-31.103-5.928-42.956-17.781c-11.854-11.854-17.781-26.169-17.781-42.951
				s5.927-31.103,17.781-42.956c11.854-11.855,26.172-17.782,42.956-17.782C91.61,41.532,105.914,47.459,117.768,59.314z"/>
			<g>
				<path fill="#FFFFFF" d="M72.004,58.426c-0.607-0.607-0.911-1.34-0.912-2.199v-5.59c-12.651,0.769-23.578,5.75-32.775,14.949
					c-10.076,10.045-15.1,22.179-15.068,36.4c-0.024,4.365,0.444,8.537,1.404,12.521h5.662c0.858,0,1.59,0.304,2.199,0.912
					c0.607,0.604,0.912,1.34,0.912,2.199c0,0.858-0.304,1.59-0.912,2.198c-0.609,0.608-1.341,0.913-2.199,0.913H20.91
					c-0.859,0-1.592-0.305-2.199-0.913s-0.913-1.34-0.913-2.198c0-0.859,0.305-1.595,0.913-2.199
					c0.415-0.414,0.891-0.689,1.427-0.821c-0.889-4.028-1.334-8.233-1.334-12.61c0-15.472,5.46-28.648,16.377-39.536
					c10.917-10.917,24.112-16.376,39.586-16.376c15.439,0,28.62,5.459,39.537,16.376c10.919,10.888,16.393,24.064,16.424,39.536
					c0,4.838-0.539,9.449-1.615,13.831c0.526,0.144,0.995,0.425,1.406,0.838c0.602,0.617,0.897,1.349,0.888,2.203
					c-0.008,0.859-0.321,1.591-0.935,2.195c-0.614,0.604-1.347,0.899-2.199,0.892h-1.451l-0.047,0.021h-2.548
					c-0.029-0.012-0.051-0.029-0.07-0.045l-4.587-0.024c-0.859-0.009-1.593-0.321-2.199-0.933c-0.602-0.613-0.897-1.35-0.888-2.2
					c0.008-0.862,0.321-1.595,0.933-2.198c0.614-0.604,1.349-0.9,2.201-0.893l4.914,0.023c1.145-4.344,1.73-8.914,1.755-13.711
					c0-14.222-5.039-26.355-15.113-36.4c-9.468-9.466-20.752-14.477-33.855-15.023v5.664c0,0.859-0.304,1.592-0.913,2.199
					c-0.606,0.608-1.34,0.912-2.198,0.912C73.344,59.338,72.613,59.034,72.004,58.426z"/>
			</g>
		</g>
		<g>
			<path fill="#979797" d="M418.211,59.174c-11.854-11.854-26.153-17.781-42.906-17.781c-16.782,0-31.099,5.927-42.952,17.781
				c-11.855,11.854-17.782,26.174-17.782,42.956c0,16.783,5.927,31.099,17.782,42.953c11.854,11.854,26.17,17.78,42.952,17.78
				c16.752,0,31.052-5.927,42.906-17.78c11.888-11.854,17.83-26.17,17.83-42.953C436.041,85.348,430.098,71.027,418.211,59.174z
				 M427.15,51.126c14.193,14.192,21.288,31.336,21.288,51.423c0,20.092-7.095,37.229-21.288,51.424
				c-14.192,14.191-31.336,21.291-51.422,21.291c-20.091,0-37.231-7.1-51.423-21.291c-14.195-14.193-21.292-31.332-21.292-51.424
				c0-20.087,7.096-37.23,21.292-51.423c14.191-14.192,31.332-21.291,51.423-21.291C395.813,29.835,412.958,36.934,427.15,51.126z"
				/>
			<path fill="#232323" d="M418.211,59.174c11.888,11.854,17.83,26.174,17.83,42.956c0,16.783-5.942,31.099-17.83,42.953
				c-11.854,11.854-26.153,17.78-42.906,17.78c-16.782,0-31.099-5.927-42.952-17.78c-11.855-11.854-17.782-26.17-17.782-42.953
				c0-16.781,5.927-31.103,17.782-42.956c11.854-11.854,26.17-17.781,42.952-17.781C392.057,41.393,406.356,47.319,418.211,59.174z"
				/>
			<g>
				<path fill="#FFFFFF" d="M333.05,70.357l-3.271-2.667c1.809-3.65,4.427-6.971,7.859-9.967c7.3-6.487,16.145-9.734,26.53-9.734
					c10.357,0,19.184,3.247,26.483,9.734c3.431,2.996,6.066,6.316,7.908,9.967l-3.275,2.667c-1.653-2.93-3.896-5.631-6.737-8.097
					c-6.736-5.989-14.862-8.964-24.378-8.937c-9.544-0.028-17.686,2.946-24.428,8.937C336.906,64.727,334.674,67.428,333.05,70.357z
					"/>
			</g>
			<g>
				<path fill="#FFFFFF" d="M366.936,119.077l-3.276-2.668c1.81-3.648,4.428-6.971,7.859-9.968c7.3-6.489,16.145-9.731,26.532-9.731
					c10.356,0,19.182,3.242,26.485,9.731c3.429,2.997,6.063,6.317,7.903,9.968l-3.274,2.668c-1.652-2.936-3.896-5.632-6.737-8.098
					c-6.736-5.988-14.862-8.969-24.378-8.936c-9.544-0.033-17.686,2.946-24.423,8.936
					C370.786,113.445,368.555,116.142,366.936,119.077z"/>
			</g>
		</g>
		<g>
			<path fill="#979797" d="M222.766,12.268c-26.218,0-48.592,9.265-67.123,27.794c-18.496,18.496-27.744,40.855-27.746,67.075
				c0.019,22.878,7.066,42.816,21.148,59.818c0.638,0.771,1.41,1.369,2.316,1.803c0.906,0.427,1.86,0.637,2.854,0.633h136.092
				c0.879,0.117,1.759,0.058,2.646-0.186c1.362-0.383,2.492-1.115,3.394-2.203c14.146-17.032,21.225-36.987,21.24-59.865
				c0.004-26.22-9.275-48.579-27.839-67.075C271.249,21.528,248.922,12.264,222.766,12.268z M298.006,33.11
				c20.59,20.588,30.882,45.469,30.882,74.635c0,29.166-10.292,54.041-30.882,74.629c-1.091,1.09-2.189,2.149-3.3,3.183H152.041
				c-1.108-1.032-2.209-2.093-3.298-3.183c-20.621-20.588-30.93-45.463-30.93-74.629c0-29.166,10.309-54.047,30.93-74.635
				c20.588-20.588,45.466-30.88,74.632-30.88C252.51,2.23,277.385,12.522,298.006,33.11z"/>
			<path fill="#232323" d="M280.25,49.56c15.936,15.879,23.904,35.069,23.909,57.577c0.012,18.508-5.374,34.785-16.165,48.824
				H157.446c-10.764-14.023-16.139-30.301-16.12-48.824c-0.002-22.508,7.939-41.698,23.817-57.577
				c15.905-15.91,35.114-23.863,57.623-23.863C245.21,25.699,264.373,33.653,280.25,49.56z"/>
			<path fill="#FFFFFF" d="M222.766,12.268c26.155-0.004,48.482,9.261,66.981,27.794c18.563,18.496,27.844,40.855,27.839,67.075
				c-0.017,22.878-7.094,42.833-21.24,59.865c-0.901,1.088-2.031,1.82-3.394,2.203c-0.887,0.242-1.767,0.304-2.646,0.186H154.217
				c-0.993,0.004-1.947-0.206-2.854-0.633c-0.907-0.434-1.679-1.032-2.316-1.803c-14.082-17.002-21.131-36.94-21.148-59.818
				c0.002-26.22,9.25-48.579,27.746-67.075C174.175,21.532,196.549,12.268,222.766,12.268z M280.25,49.56
				c-15.878-15.906-35.04-23.86-57.483-23.863c-22.509,0-41.718,7.953-57.623,23.863c-15.878,15.879-23.819,35.069-23.817,57.577
				c-0.019,18.523,5.356,34.801,16.12,48.824h130.548c10.792-14.039,16.177-30.316,16.165-48.824
				C304.155,84.629,296.185,65.438,280.25,49.56z"/>
		</g>
		<g>
			<path fill="#EB2627" d="M225.115,107.436l-84.963,24.033l78.966-37.239C226.652,96.894,228.65,101.295,225.115,107.436z"/>
		</g>
		<g>
			<path fill="#EB2627" d="M26.759,118.954l44.254-18.779c4.087,1.636,5.092,4.098,3.018,7.39L26.759,118.954z"/>
		</g>
		<g>
			<path fill="#EB2627" d="M360.1,86.146l-29.955-18.349l32.203,13.046C363.589,83.74,362.841,85.509,360.1,86.146z"/>
		</g>
		<g>
			<path fill="#EB2627" d="M396.89,136.877l-29.991-18.344l32.236,13.059C400.352,134.49,399.604,136.254,396.89,136.877z"/>
		</g>
	</g>
</g>
</svg>
