<?xml version="1.0" encoding="utf-8"?>
<!-- Generator: Adobe Illustrator 15.1.0, SVG Export Plug-In . SVG Version: 6.00 Build 0)  -->
<!DOCTYPE svg PUBLIC "-//W3C//DTD SVG 1.1//EN" "http://www.w3.org/Graphics/SVG/1.1/DTD/svg11.dtd">
<svg version="1.1" id="Layer_1" xmlns="http://www.w3.org/2000/svg" xmlns:xlink="http://www.w3.org/1999/xlink" x="0px" y="0px"
	 width="454px" height="165.5px" viewBox="0 0 454 165.5" enable-background="new 0 0 454 165.5" xml:space="preserve">
<g id="Layer_3">
	<g>
		<g>
			<path fill="#333333" d="M192.069,64.59c0.971,0.668,1.519,1.606,1.64,2.821l5.826,56.896c2.002-0.125,4.004-0.217,6.005-0.275
				L203.631,92.9c-0.125-1.215,0.241-2.246,1.091-3.098c0.668-0.967,1.641-1.453,2.912-1.453c1.155-0.125,2.154,0.211,3.006,1.002
				c0.972,0.729,1.485,1.727,1.547,3l1.914,31.407c2.245-0.062,4.427-0.093,6.553-0.093l-1.546-31.314
				c0-1.209,0.391-2.244,1.183-3.092c0.786-0.852,1.79-1.335,3.005-1.459c1.21-0.061,2.213,0.336,3,1.184
				c0.911,0.73,1.398,1.729,1.459,3.004l1.639,31.586c2.126-0.059,4.25,0,6.373,0.186l-1.003-31.406
				c0-1.211,0.396-2.246,1.186-3.092c0.789-0.912,1.79-1.367,3.002-1.367c1.215-0.061,2.246,0.332,3.097,1.183
				c0.909,0.792,1.365,1.79,1.365,3.005l1.093,31.861c2.121,0.061,4.219,0.121,6.281,0.181V92.352c0-1.273,0.423-2.305,1.274-3.092
				c0.847-0.852,1.88-1.273,3.093-1.273c1.215,0.06,2.245,0.482,3.097,1.273c0.787,0.787,1.184,1.817,1.184,3.092l-0.093,32.41
				c1.941,0.061,3.854,0.213,5.738,0.455l2.82-57.806c0.12-1.215,0.604-2.187,1.454-2.913c0.852-0.852,1.912-1.242,3.187-1.183
				c1.093,0.06,2.064,0.548,2.913,1.459c0.729,0.847,1.063,1.877,1.001,3.092l-2.639,58.166c2.063,0.185,4.157,0.396,6.281,0.64
				l1.91-32.497c0.062-1.215,0.547-2.244,1.455-3.097c0.852-0.787,1.883-1.123,3.098-0.998c1.212,0.06,2.216,0.515,3.003,1.36
				c0.849,0.912,1.215,1.976,1.093,3.189l-1.91,33.045c2.246,0.239,4.459,0.516,6.646,0.818l3.093-32.133
				c0.122-1.215,0.64-2.188,1.549-2.914c0.908-0.791,2.004-1.123,3.278-1.002c1.149,0.119,2.094,0.64,2.82,1.545
				c0.789,0.912,1.122,1.976,1,3.189l-3.187,32.404c2.002,0.305,4.009,0.574,6.01,0.818l3.732-32.041
				c0.119-1.154,0.637-2.094,1.546-2.825c0.971-0.786,2.034-1.118,3.187-0.998c1.213,0.185,2.217,0.759,3.003,1.729
				c0.729,0.91,1.035,1.941,0.911,3.098l-3.824,32.313c2.003,0.305,4.036,0.635,6.101,1.004l4.735-31.955
				c0.182-1.215,0.727-2.152,1.636-2.82c1.035-0.786,2.126-1.096,3.281-0.91c1.21,0.184,2.15,0.759,2.819,1.73
				c0.729,0.91,0.999,1.973,0.819,3.185l-4.735,32.133c2.854,0.429,5.706,0.884,8.558,1.367l7.103-57.438
				c0.12-1.215,0.636-2.186,1.547-2.913c0.911-0.791,1.97-1.095,3.186-0.911c1.153,0.12,2.094,0.636,2.819,1.547
				c0.792,0.971,1.097,2.062,0.911,3.276l-7.191,58.17c1.763,0.238,3.521,0.547,5.282,0.909l5.007-32.403
				c0.119-1.156,0.699-2.066,1.729-2.733c0.971-0.728,2.029-1.003,3.186-0.819c1.154,0.119,2.094,0.695,2.819,1.73
				c0.668,0.971,0.943,2.063,0.819,3.275l-5.094,32.59c2.244,0.482,4.485,0.971,6.731,1.453l6.01-32.221
				c0.185-1.154,0.786-2.066,1.822-2.732c1.03-0.668,2.094-0.912,3.186-0.729c1.273,0.186,2.213,0.787,2.819,1.818
				c0.667,1.029,0.911,2.098,0.728,3.188l-6.098,32.59c1.883,0.482,3.7,0.938,5.462,1.361l6.829-31.857
				c0.244-1.154,0.848-2.033,1.817-2.642c0.972-0.728,2.066-0.972,3.276-0.728c1.154,0.305,2.065,0.972,2.732,2.002
				c0.668,0.972,0.848,2.033,0.543,3.185l-6.824,32.042c2.063,0.549,4.221,1.127,6.467,1.73l7.644-31.494
				c0.304-1.155,0.938-2.034,1.914-2.643c1.03-0.603,2.153-0.787,3.363-0.543c1.096,0.239,1.975,0.906,2.642,2.002
				c0.548,1.03,0.729,2.121,0.548,3.276l-7.827,31.586c2.063,0.487,4.123,1.063,6.188,1.729l14.289-56.256
				c0.243-1.215,0.911-2.125,2.006-2.729c0.967-0.549,2.034-0.7,3.186-0.456c1.154,0.304,2.034,0.972,2.642,2.002
				c0.604,1.03,0.786,2.121,0.543,3.276L422.1,154.346c0.668,0.18,1.395,0.363,2.182,0.543c-0.06,1.274,0.032,2.551,0.275,3.824
				c-0.607,1.215-1.274,2.365-2.001,3.46c-0.244,0.364-0.488,0.755-0.731,1.183c-1.938-0.666-3.885-1.273-5.826-1.821
				c-0.119,0.063-0.212,0.063-0.271,0c-4.914-1.394-9.71-2.701-14.38-3.911l-0.094-0.092l-0.092,0.092
				c-4.795-1.398-9.466-2.643-14.017-3.73c-0.061-0.064-0.124-0.094-0.186-0.094c-0.06-0.061-0.118-0.061-0.179,0h-0.093
				c-1.215-0.304-2.396-0.574-3.552-0.818c-3.157-0.791-6.342-1.519-9.559-2.187c-0.061-0.06-0.18-0.119-0.363-0.185
				c-0.119,0-0.212-0.026-0.271-0.088c-4.795-1.094-9.709-2.094-14.748-3.004l-0.092-0.093h-0.181c-0.184,0-0.336-0.06-0.454-0.18
				c-4.128-0.851-8.257-1.644-12.382-2.369c-0.183,0-0.334,0-0.456,0c-5.584-1.091-11.284-2.062-17.11-2.913v-0.092l-0.092,0.092
				c-4.613-0.847-9.254-1.605-13.931-2.273c-0.119-0.063-0.211-0.092-0.271-0.092h-0.183c-4.673-0.728-9.348-1.367-14.019-1.91
				c-0.12-0.063-0.242-0.063-0.364,0c-4.854-0.666-9.709-1.278-14.563-1.821c-0.063,0-0.122-0.032-0.186-0.093
				c-0.119-0.06-0.212-0.06-0.271,0h-0.185c-4.366-0.543-8.767-1.03-13.197-1.453c-0.183,0-0.273,0.027-0.273,0.087
				c-0.302-0.06-0.516-0.087-0.638-0.087c-0.181-0.064-0.363-0.092-0.545-0.092c-4.613-0.488-9.258-0.885-13.928-1.184l-0.183,0.087
				c-0.121-0.06-0.273-0.087-0.455-0.087c-4.613-0.304-9.315-0.488-14.108-0.548l-0.09-0.093c-4.856-0.119-9.714-0.18-14.566-0.18
				c-0.121,0.061-0.214,0.061-0.273,0h-0.18c-4.795,0-9.651,0.121-14.564,0.363c-0.063-0.061-0.124-0.061-0.184,0
				c-0.061-0.061-0.152-0.092-0.271-0.092c-0.124,0-0.243,0-0.365,0c-4.552,0.184-9.071,0.423-13.563,0.729l-0.092,0.092h-0.271
				c-4.854,0.244-9.77,0.64-14.748,1.183l-0.09-0.093h-0.092c-5.037,0.488-10.043,1.035-15.021,1.639
				c-0.183,0.064-0.333,0.092-0.453,0.092c-4.311,0.428-8.648,1.004-13.019,1.73c-0.12,0-0.273,0.027-0.456,0.092
				c-2.123,0.244-4.154,0.516-6.1,0.818c-2.973,0.363-5.855,0.848-8.648,1.459h-0.088c-0.062,0-0.124,0.027-0.184,0.088
				c-4.976,0.668-9.771,1.367-14.383,2.094l-0.271,0.186c-5.399,0.787-10.469,1.604-15.201,2.457c-0.063,0-0.093,0.026-0.093,0.088
				l-0.182,0.097c-5.1,0.847-9.771,1.665-14.02,2.457c-0.061,0.06-0.12,0.06-0.185,0h-0.087c-0.125,0-0.274,0.026-0.456,0.087
				c-0.852,0.244-1.73,0.43-2.643,0.548v0.093c-4.066,0.668-7.887,1.426-11.469,2.272c-0.061,0.063-0.122,0.063-0.183,0
				l-0.089,0.185c-5.222,1.09-9.983,2.186-14.293,3.276l-0.271,0.092c-5.523,1.454-10.319,2.853-14.383,4.188
				c-0.792,0.304-1.549,0.391-2.278,0.271c-0.786-0.18-1.485-0.548-2.094-1.091c-0.545-0.486-0.938-1.123-1.183-1.914L24.759,96.632
				c-0.362-1.155-0.243-2.272,0.363-3.368c0.548-1.031,1.367-1.729,2.458-2.095c1.093-0.362,2.187-0.243,3.276,0.364
				c1.032,0.486,1.729,1.307,2.096,2.457l17.111,54.984c2.004-0.73,4.188-1.397,6.558-2.006l-8.923-29.947
				c-0.363-1.155-0.244-2.246,0.363-3.276c0.606-1.091,1.485-1.79,2.642-2.095c1.091-0.362,2.153-0.244,3.186,0.363
				c1.093,0.488,1.821,1.336,2.186,2.551l9.01,30.224c2.066-0.548,4.219-1.063,6.464-1.552l-7.918-30.857
				c-0.304-1.15-0.184-2.214,0.363-3.186c0.607-1.096,1.517-1.789,2.729-2.094c1.154-0.304,2.244-0.119,3.277,0.549
				c0.97,0.603,1.642,1.486,2.002,2.637l7.922,31.13c2.063-0.483,4.187-0.905,6.371-1.274l-7.646-30.675
				c-0.308-1.155-0.152-2.214,0.453-3.185c0.545-1.031,1.427-1.702,2.639-2.002c1.155-0.305,2.246-0.125,3.279,0.543
				c0.968,0.548,1.638,1.398,2.001,2.55l7.737,31.135c1.941-0.368,3.943-0.731,6.011-1.095l-7.377-31.68
				c-0.241-1.215-0.09-2.305,0.456-3.275c0.606-1.029,1.519-1.67,2.729-1.914c1.153-0.299,2.246-0.146,3.279,0.455
				c0.971,0.607,1.604,1.52,1.909,2.734l7.464,32.225c2.306-0.486,4.673-0.883,7.101-1.182l-12.105-56.169
				c-0.239-1.09-0.062-2.153,0.547-3.184c0.606-1.091,1.485-1.73,2.64-1.915c1.215-0.239,2.309-0.027,3.278,0.64
				c1.031,0.607,1.668,1.486,1.91,2.642l12.197,56.619c2.063-0.363,4.158-0.699,6.281-1.004l-6.01-31.493
				c-0.179-1.216,0.032-2.278,0.64-3.188c0.668-1.031,1.606-1.666,2.821-1.91c1.152-0.18,2.213,0.092,3.187,0.819
				c1.031,0.548,1.637,1.427,1.82,2.642l6.097,31.766c1.579-0.299,3.189-0.575,4.827-0.814h-0.092
				c0.607-0.123,1.215-0.216,1.82-0.275L140.911,98c-0.244-1.154,0-2.219,0.728-3.188c0.729-0.973,1.669-1.58,2.822-1.818
				c1.15-0.184,2.214,0.093,3.186,0.818c1.033,0.607,1.639,1.547,1.822,2.821l5.369,32.134c1.82-0.305,3.641-0.547,5.462-0.728
				l-4.188-31.406c-0.184-1.274,0.12-2.364,0.909-3.276c0.608-0.91,1.519-1.459,2.73-1.639c1.274-0.184,2.365,0.088,3.276,0.819
				c0.911,0.667,1.458,1.606,1.638,2.821l4.279,31.584c2.246-0.303,4.492-0.543,6.737-0.727l-3.644-31.494
				c-0.121-1.215,0.184-2.277,0.909-3.188c0.731-0.907,1.703-1.454,2.915-1.639c1.213-0.119,2.246,0.211,3.095,1.002
				c0.972,0.668,1.52,1.606,1.64,2.822l3.64,31.77c2.186-0.184,4.401-0.368,6.647-0.547l-5.826-56.527
				c-0.122-1.215,0.148-2.306,0.818-3.276c0.789-0.911,1.792-1.399,3.002-1.459C190.097,63.495,191.16,63.803,192.069,64.59z"/>
		</g>
		<g>
			<path fill="#010101" d="M27.419,44.609c0.689,2.582,1.03,4.961,1.013,7.146c-0.015,2.186-0.375,4.128-1.081,5.816
				c-0.706,1.693-1.735,3.115-3.096,4.271c-1.354,1.155-3.034,1.997-5.039,2.536c-1.729,0.464-3.406,0.589-5.026,0.367
				c-1.624-0.216-3.139-0.837-4.546-1.863c-1.406-1.017-2.68-2.467-3.819-4.344C4.687,56.66,3.739,54.3,2.98,51.465
				c-0.693-2.581-1.026-4.96-1.004-7.15c0.022-2.187,0.382-4.123,1.082-5.816c0.698-1.689,1.733-3.111,3.104-4.271
				c1.372-1.16,3.052-2.007,5.039-2.536c1.73-0.465,3.41-0.589,5.029-0.372c1.62,0.225,3.132,0.837,4.527,1.854
				c1.399,1.017,2.664,2.466,3.807,4.339C25.702,39.392,26.654,41.757,27.419,44.609z M8.837,49.689
				c0.088,0.322,0.168,0.622,0.244,0.902c0.073,0.28,0.165,0.562,0.276,0.842l9.497-11.67c-0.984-1.436-2.043-2.406-3.166-2.922
				c-1.127-0.516-2.314-0.603-3.563-0.271c-0.9,0.244-1.67,0.695-2.318,1.357c-0.645,0.663-1.127,1.542-1.442,2.637
				c-0.315,1.104-0.446,2.407-0.394,3.921C8.027,45.999,8.314,47.738,8.837,49.689z M21.556,46.386
				c-0.073-0.271-0.156-0.548-0.243-0.823c-0.093-0.276-0.173-0.543-0.242-0.801l-9.44,11.601c0.931,1.417,1.961,2.379,3.094,2.881
				c1.132,0.506,2.313,0.589,3.548,0.258c0.896-0.239,1.67-0.695,2.324-1.367c0.652-0.672,1.141-1.556,1.458-2.646
				c0.313-1.086,0.441-2.394,0.378-3.912C22.366,50.054,22.076,48.323,21.556,46.386z"/>
		</g>
		<g>
			<path fill="#010101" d="M92.427,47.163l-0.916-5.319l8.168-1.408l-3.549-20.602l-6.438,5.145l-2.803-4.541l9.254-7.124
				l5.028-0.865l4.64,26.934l7.041-1.215l0.916,5.324L92.427,47.163z"/>
		</g>
		<g>
			<path fill="#010101" d="M173.752,36.129l-0.336-4.469l7.091-8.241c1.33-1.551,2.395-2.876,3.184-3.985
				c0.789-1.108,1.392-2.089,1.799-2.945c0.412-0.851,0.665-1.633,0.762-2.337c0.098-0.709,0.115-1.436,0.061-2.177
				c-0.046-0.612-0.188-1.188-0.429-1.73c-0.238-0.533-0.564-0.994-0.978-1.371s-0.914-0.663-1.512-0.86
				c-0.6-0.198-1.271-0.268-2.015-0.212c-1.273,0.097-2.437,0.465-3.484,1.1c-1.05,0.635-2.029,1.454-2.937,2.453l-3.512-3.875
				c1.31-1.412,2.814-2.581,4.517-3.497c1.703-0.921,3.58-1.459,5.631-1.61c1.59-0.12,3.044-0.028,4.366,0.285
				c1.321,0.309,2.47,0.823,3.447,1.546c0.979,0.728,1.765,1.666,2.358,2.821c0.593,1.15,0.949,2.508,1.063,4.063
				c0.098,1.289,0.018,2.509-0.248,3.645c-0.263,1.146-0.686,2.273-1.268,3.383c-0.582,1.104-1.318,2.227-2.204,3.359
				c-0.891,1.132-1.907,2.333-3.063,3.599l-4.376,4.845l13.675-1.025l0.421,5.581L173.752,36.129z"/>
		</g>
		<g>
			<path fill="#010101" d="M283.313,28.531c-0.214,1.592-0.704,2.991-1.468,4.183c-0.766,1.197-1.818,2.158-3.162,2.891
				c-1.349,0.731-2.981,1.215-4.905,1.44c-1.923,0.225-4.139,0.17-6.653-0.166c-0.562-0.074-1.146-0.166-1.763-0.271
				c-0.612-0.11-1.22-0.226-1.822-0.35c-0.604-0.12-1.188-0.249-1.758-0.382c-0.566-0.139-1.075-0.276-1.523-0.419l0.699-5.232
				c1.014,0.336,2.151,0.653,3.424,0.948c1.279,0.299,2.614,0.543,4.012,0.727c1.365,0.185,2.556,0.23,3.575,0.129
				c1.02-0.097,1.878-0.322,2.574-0.672c0.703-0.345,1.246-0.823,1.639-1.422c0.389-0.603,0.64-1.307,0.745-2.112
				c0.097-0.708,0.024-1.371-0.207-1.987c-0.236-0.617-0.648-1.169-1.237-1.657c-0.585-0.492-1.362-0.911-2.326-1.27
				c-0.964-0.354-2.133-0.626-3.495-0.806l-3.58-0.483l0.616-4.588l3.283,0.442c1.282,0.17,2.363,0.188,3.247,0.046
				c0.879-0.143,1.599-0.392,2.158-0.755c0.559-0.358,0.983-0.814,1.273-1.371c0.295-0.552,0.483-1.155,0.57-1.795
				c0.175-1.315-0.117-2.374-0.879-3.17c-0.77-0.797-2.043-1.316-3.837-1.556c-1.284-0.175-2.563-0.221-3.849-0.138
				c-1.283,0.078-2.618,0.229-4.008,0.464l0.681-5.057c0.773-0.147,1.511-0.258,2.204-0.331c0.695-0.074,1.391-0.125,2.08-0.147
				c0.687-0.027,1.386-0.014,2.08,0.027c0.697,0.041,1.418,0.115,2.158,0.212c1.776,0.239,3.309,0.64,4.598,1.196
				c1.288,0.562,2.345,1.247,3.161,2.07c0.819,0.819,1.391,1.763,1.716,2.83c0.327,1.063,0.41,2.214,0.244,3.447
				c-0.265,1.955-0.925,3.479-1.982,4.569c-1.062,1.086-2.438,1.845-4.133,2.269c1.013,0.304,1.909,0.713,2.696,1.229
				c0.782,0.516,1.435,1.132,1.949,1.846c0.515,0.713,0.876,1.5,1.088,2.365C283.41,26.594,283.447,27.528,283.313,28.531z"/>
		</g>
		<g>
			<path fill="#010101" d="M358.615,42.741l-1.274,6.493l-5.813-1.137l1.271-6.498l-14.852-2.908l0.998-5.103l16.442-17.883
				l8.203,1.606l-3.951,20.174l4.836,0.948l-1.026,5.25L358.615,42.741z M356.724,21.955l-11.909,12.627l9.089,1.781L356.724,21.955
				z"/>
		</g>
		<g>
			<path fill="#010101" d="M446.633,61.488c-0.559,1.652-1.396,3.001-2.519,4.055c-1.123,1.049-2.442,1.809-3.967,2.277
				c-1.522,0.47-3.193,0.653-5.016,0.548c-1.817-0.106-3.704-0.483-5.655-1.137c-0.488-0.166-0.999-0.354-1.542-0.57
				c-0.538-0.217-1.086-0.442-1.634-0.682c-0.553-0.234-1.086-0.479-1.598-0.727c-0.506-0.253-0.976-0.492-1.407-0.728l1.688-5.024
				c0.819,0.52,1.79,1.044,2.913,1.569c1.113,0.524,2.282,0.989,3.492,1.394c2.36,0.792,4.308,0.943,5.849,0.456
				c1.537-0.492,2.577-1.542,3.115-3.144c0.557-1.665,0.4-3.102-0.479-4.293c-0.875-1.196-2.596-2.228-5.163-3.088l-6.037-2.024
				l5.504-16.4l17.79,5.968l-1.822,5.431l-12.411-4.165l-2.103,6.277l2.213,0.74c1.574,0.529,3.027,1.179,4.367,1.938
				c1.339,0.764,2.435,1.68,3.295,2.747c0.854,1.067,1.413,2.311,1.661,3.723C447.424,58.042,447.243,59.662,446.633,61.488z"/>
		</g>
	</g>
</g>
</svg>
