<?xml version="1.0" encoding="utf-8"?>
<!-- Generator: Adobe Illustrator 15.1.0, SVG Export Plug-In . SVG Version: 6.00 Build 0)  -->
<!DOCTYPE svg PUBLIC "-//W3C//DTD SVG 1.1//EN" "http://www.w3.org/Graphics/SVG/1.1/DTD/svg11.dtd">
<svg version="1.1" id="Layer_9" xmlns="http://www.w3.org/2000/svg" xmlns:xlink="http://www.w3.org/1999/xlink" x="0px" y="0px"
	 width="361.855px" height="378.102px" viewBox="0 0 361.855 378.102" enable-background="new 0 0 361.855 378.102"
	 xml:space="preserve">
<g id="Layer_2">
	<g>
		<path fill-rule="evenodd" clip-rule="evenodd" fill="#FFFFFF" d="M220.867,155.507h-2.886V95.735
			c0.005-0.209-0.065-0.388-0.206-0.536c-0.149-0.142-0.326-0.211-0.536-0.206c-0.209-0.005-0.387,0.064-0.534,0.206
			c-0.142,0.148-0.211,0.327-0.206,0.536v60.513c-0.005,0.209,0.064,0.388,0.206,0.537c0.147,0.141,0.325,0.21,0.534,0.206h80.713
			c0.207,0.004,0.388-0.065,0.536-0.206c0.142-0.149,0.209-0.328,0.206-0.537c0.003-0.208-0.064-0.387-0.206-0.535
			c-0.148-0.142-0.329-0.209-0.536-0.206h-75.023l11.006-13.521h7.626c0.198,0.005,0.376-0.05,0.536-0.166l19.168-14.344h13.686
			c0.16-0.005,0.312-0.045,0.453-0.124c0.136-0.069,0.245-0.164,0.329-0.288l11.79-18.55c0.122-0.22,0.149-0.453,0.084-0.702
			c-0.046-0.245-0.171-0.438-0.372-0.577c-0.218-0.122-0.451-0.147-0.701-0.082c-0.247,0.047-0.438,0.17-0.576,0.372l-11.542,18.138
			h-13.48c-0.196-0.006-0.377,0.049-0.535,0.164l-19.168,14.344h-7.751c-0.129,0-0.252,0.026-0.371,0.084
			c-0.128,0.058-0.238,0.142-0.328,0.248l-11.708,14.428C220.929,155.102,220.862,155.294,220.867,155.507z M293.417,68.857v-4.534
			h-66.12v4.534H293.417z M293.417,83.781v-6.76h-66.12v6.76H293.417z M293.417,95.159v-6.762h-66.12v6.762H293.417z
			 M276.928,47.918v-5.606H61.092v5.606H276.928z M213.447,172.243v6.76H299.6v-6.76H213.447z M213.613,163.668v6.761h86.153v-6.761
			H213.613z M213.447,180.488v6.76H299.6v-6.76H213.447z M296.632,38.767V28.708H43.284v10.058H296.632z M49.096,63.789
			c-0.159,0.146-0.241,0.325-0.248,0.534v89.039c0.007,0.211,0.089,0.39,0.248,0.538c0.146,0.157,0.325,0.239,0.535,0.246h158.623
			c0.209-0.007,0.388-0.089,0.534-0.246c0.159-0.148,0.241-0.327,0.248-0.538V64.323c-0.007-0.209-0.089-0.388-0.248-0.534
			c-0.146-0.159-0.325-0.242-0.534-0.248H49.631C49.421,63.547,49.243,63.63,49.096,63.789z M70.696,82.587h47.901v11.294H70.696
			V82.587z M69.131,81.019H50.416v-3.05h18.716V81.019z M70.696,77.969h47.901v3.05H70.696V77.969z M50.416,114.079h18.716v3.05
			H50.416V114.079z M70.696,100.063h47.901v12.449H70.696V100.063z M70.696,114.079h47.901v3.05H70.696V114.079z M50.416,98.497
			v-3.051h18.716v3.051H50.416z M70.696,95.446h47.901v3.051H70.696V95.446z M70.696,118.695h47.901v13.521H70.696V118.695z
			 M70.696,133.782h47.901v3.051H70.696V133.782z M69.131,136.833H50.416v-3.051h18.716V136.833z M70.696,138.4h47.901v14.18H70.696
			V138.4z M49.631,157.98v15.748h158.623V157.98H49.631z M49.631,178.343v6.516h158.623v-6.516H49.631z M172.143,81.019h-51.981
			v-3.05h51.939L172.143,81.019z M173.668,77.969h33.802v3.05h-33.802V77.969z M172.185,93.881h-52.023V82.587h51.981
			L172.185,93.881z M173.668,82.587h33.802v11.294h-33.72L173.668,82.587z M173.915,114.079h33.556v3.05h-33.556V114.079z
			 M172.225,100.105h0.04l0.084,12.407h-52.188v-12.449h52.063V100.105z M173.833,100.105h0.041v-0.042h33.596v12.449h-33.556
			L173.833,100.105z M172.349,117.129h-52.188v-3.05h52.188V117.129z M172.225,95.446v3.051h-52.063v-3.051H172.225z
			 M173.875,98.497v-3.051h33.596v3.051H173.875z M120.162,138.4h52.352l0.084,14.18h-52.436V138.4z M120.162,118.695h52.188
			l0.122,13.521h-52.31V118.695z M120.162,133.782h52.31l0.042,3.051h-52.352V133.782z M207.47,152.58h-33.308l-0.123-14.18h33.431
			V152.58z M207.47,132.217h-33.472l-0.084-13.521h33.556V132.217z M207.47,136.833H174.04l-0.041-3.051h33.472V136.833z
			 M142.215,301.02l25.722-0.164l-0.576,6.84v0.084l-26.134,0.083l0.988-6.763V301.02z M143.411,291.001l25.351-0.123l-0.452,5.813
			v0.122l-25.682,0.164l0.783-5.894V291.001z M140.651,312.149v-0.084l26.422-0.08l-0.7,7.336v0.084l-26.506,0.08L140.651,312.149z
			 M104.375,328.886l-3.052,14.18c-0.005,0.025-0.005,0.055,0,0.08H91.265l1.196-14.096L104.375,328.886z M107.547,314.127
			l-2.514,11.667c-0.103-0.028-0.214-0.042-0.33-0.042l-11.996,0.165l0.99-11.626L107.547,314.127z M110.187,301.76l-1.979,9.275
			c-0.095-0.026-0.191-0.042-0.288-0.042l-13.934,0.167l0.783-9.316L110.187,301.76z M90.813,311.16l-41.098,0.451l1.937-9.687
			l39.945-0.081L90.813,311.16z M88.093,343.146H43.408l2.72-13.603l43.202-0.493L88.093,343.146z M139.208,323.939v-0.084
			l26.917-0.042l-0.783,7.79l-27.084,0.084L139.208,323.939z M89.576,325.917l-42.704,0.495l2.596-11.625l41.099-0.496
			L89.576,325.917z M203.8,300.729l98.438-0.454c-0.056,0-0.056,0.055,0,0.167l1.071,6.76l-99.839,0.413L203.8,300.729z
			 M201.987,307.615l-33.1,0.122l0.618-6.718c0-0.055,0-0.109,0-0.164l32.812-0.084L201.987,307.615z M203.265,311.859l41.098-0.164
			l0.082,7.626l-41.51,0.084L203.265,311.859z M201.453,319.405l-33.516,0.08l0.66-7.42l-0.042-0.08l33.226-0.126L201.453,319.405z
			 M204.254,290.672l39.572-0.37l0.124,6.1l-40.025,0.164L204.254,290.672z M202.441,296.565l-32.606,0.206l0.454-5.81v-0.084
			l32.4-0.164L202.441,296.565z M144.647,282.1l154.375-0.744v0.084l0.66,4.614l-155.859,1.031l0.824-4.821V282.1z M167.279,331.604
			l0.742-7.664v-0.084l33.226-0.084h0.412l-0.332,7.916h-34.048V331.604z M202.729,323.649l41.881-0.084l0.083,8.038h-42.252
			L202.729,323.649z M245.846,311.695l58.206-0.248c-0.058,0.055-0.058,0.109,0,0.164l1.195,7.626l-59.317,0.084L245.846,311.695z
			 M245.353,290.382l55.153-0.412c-0.055,0-0.055,0.029,0,0.084l0.908,6.02l-55.938,0.286L245.353,290.382z M246.094,323.565
			l60.142-0.08c-0.055-0.004-0.055,0.055,0,0.164l1.278,7.916l-61.296,0.038L246.094,323.565z M308.01,20.629v183.767H30.588V20.629
			H308.01z"/>
		<path fill-rule="evenodd" clip-rule="evenodd" fill="#6699CC" d="M293.417,95.159h-66.12v-6.762h66.12V95.159z M293.417,83.781
			h-66.12v-6.76h66.12V83.781z M293.417,68.857h-66.12v-4.534h66.12V68.857z M213.447,180.488H299.6v6.76h-86.153V180.488z
			 M213.613,163.668h86.153v6.761h-86.153V163.668z M213.447,172.243H299.6v6.76h-86.153V172.243z M129.521,269.69l84.668,0.413
			v4.286h-85.412L129.521,269.69z M130.551,263.672h83.638v4.286h-84.382L130.551,263.672z M131.622,257.405h82.567v4.041h-83.268
			L131.622,257.405z M132.571,252.046h81.618v2.886h-82.114L132.571,252.046z M100.952,346.115l14.47-0.084l43.283,0.168
			c0.147,0.055,0.312,0.08,0.495,0.08h54.947l1.195,11.462H89.948l1.03-11.462h9.934L100.952,346.115z M86.773,357.741H40.482
			l2.348-11.462h44.974L86.773,357.741z"/>
		<path fill-rule="evenodd" clip-rule="evenodd" fill="#009900" d="M222.928,155.507l-0.453,0.576
			c-0.162,0.193-0.368,0.303-0.618,0.33c-0.248,0.024-0.467-0.045-0.66-0.206c-0.194-0.16-0.304-0.367-0.33-0.618v-0.082
			c-0.005-0.213,0.063-0.405,0.206-0.576l11.708-14.428c0.09-0.106,0.2-0.19,0.328-0.248c0.119-0.058,0.242-0.084,0.371-0.084h7.751
			l19.168-14.344c0.158-0.115,0.339-0.17,0.535-0.164h13.48l11.542-18.138c0.139-0.202,0.329-0.325,0.576-0.372
			c0.25-0.065,0.483-0.04,0.701,0.082c0.201,0.139,0.326,0.332,0.372,0.577c0.065,0.249,0.038,0.482-0.084,0.702l-11.79,18.55
			c-0.084,0.124-0.193,0.219-0.329,0.288c-0.142,0.079-0.293,0.119-0.453,0.124h-13.686l-19.168,14.344
			c-0.16,0.116-0.338,0.171-0.536,0.166h-7.626L222.928,155.507z"/>
		<path fill-rule="evenodd" clip-rule="evenodd" fill="#4E7E9C" d="M276.928,47.918H61.092v-5.606h215.836V47.918z M296.632,38.767
			H43.284V28.708h253.349V38.767z"/>
		<path fill-rule="evenodd" clip-rule="evenodd" fill="#333333" d="M222.928,155.507h75.023c0.207-0.003,0.388,0.064,0.536,0.206
			c0.142,0.148,0.209,0.327,0.206,0.535c0.003,0.209-0.064,0.388-0.206,0.537c-0.148,0.141-0.329,0.21-0.536,0.206h-80.713
			c-0.209,0.004-0.387-0.065-0.534-0.206c-0.142-0.149-0.211-0.328-0.206-0.537V95.735c-0.005-0.209,0.064-0.388,0.206-0.536
			c0.147-0.142,0.325-0.211,0.534-0.206c0.21-0.005,0.387,0.064,0.536,0.206c0.141,0.148,0.211,0.327,0.206,0.536v59.771h2.886
			v0.082c0.026,0.251,0.136,0.458,0.33,0.618c0.193,0.161,0.412,0.23,0.66,0.206c0.25-0.027,0.456-0.137,0.618-0.33L222.928,155.507
			z M309.081,332.677c-0.055,0.055-0.11,0.109-0.165,0.164c-0.165,0.112-0.33,0.193-0.493,0.248l-171.069,0.164
			c-0.165,0-0.303-0.055-0.412-0.164l6.966-52.433l0.041-0.167l155.2-0.699L309.081,332.677z M140.651,312.149l-0.784,7.336
			l26.506-0.08v-0.084l0.7-7.336l-26.422,0.08V312.149z M143.411,291.001v0.083l-0.783,5.894l25.682-0.164v-0.122l0.452-5.813
			L143.411,291.001z M142.215,301.02v0.08l-0.988,6.763l26.134-0.083v-0.084l0.576-6.84L142.215,301.02z M90.813,311.16l0.784-9.316
			l-39.945,0.081l-1.937,9.687L90.813,311.16z M110.187,301.76l-15.418,0.084l-0.783,9.316l13.934-0.167
			c0.097,0,0.193,0.016,0.288,0.042h0.042l-0.66,3.092h-0.042l-13.85,0.164l-0.99,11.626l11.996-0.165
			c0.116,0,0.228,0.014,0.33,0.042h0.041l-0.659,3.092h-0.04l-11.914,0.164l-1.196,14.096h10.059l-0.618,2.97h0.246l-0.04,0.164
			h-9.934l-1.03,11.462h125.395l-1.195-11.462H159.2c-0.184,0-0.348-0.025-0.495-0.08l-43.283-0.168l101.695-1.729
			c0.016,0.074,0.029,0.158,0.04,0.248l1.483,14.592c0.027,0.303-0.029,0.59-0.165,0.866c-0.132,0.261-0.323,0.468-0.576,0.618
			c-0.254,0.161-0.528,0.242-0.824,0.245H38.585c-0.314,0.01-0.603-0.074-0.866-0.245c-0.265-0.189-0.458-0.438-0.577-0.743
			c-0.119-0.293-0.147-0.596-0.083-0.905l2.927-14.183v-0.081c0-0.115,0.013-0.225,0.042-0.331c0.01-0.055,0.024-0.109,0.042-0.164
			l3.214-16.241c0-0.248,0.055-0.479,0.164-0.702l2.886-13.52c-0.058-0.174-0.085-0.354-0.081-0.534
			c0.002-0.109,0.017-0.219,0.041-0.332l2.555-12.859c0.071-0.354,0.252-0.641,0.537-0.866c0.288-0.241,0.618-0.367,0.99-0.37
			l42.95-0.084c0.042-0.003,0.084-0.003,0.126,0l17.107-0.083c0.1,0,0.196,0.016,0.286,0.042h0.042l-0.66,3.091H110.187z
			 M86.773,357.741l1.03-11.462H42.83l-2.348,11.462H86.773z M139.208,323.939l-0.95,7.748l27.084-0.084l0.783-7.79l-26.917,0.042
			V323.939z M88.093,343.146l1.236-14.096l-43.202,0.493l-2.72,13.603H88.093z M89.576,325.917l0.99-11.626l-41.099,0.496
			l-2.596,11.625L89.576,325.917z M144.647,282.1v0.164l-0.824,4.821l155.859-1.031l-0.66-4.614v-0.084L144.647,282.1z
			 M202.441,296.565l0.248-5.852l-32.4,0.164v0.084l-0.454,5.81L202.441,296.565z M204.254,290.672l-0.329,5.894l40.025-0.164
			l-0.124-6.1L204.254,290.672z M201.453,319.405l0.328-7.546l-33.226,0.126l0.042,0.08l-0.66,7.42L201.453,319.405z
			 M203.265,311.859l-0.33,7.546l41.51-0.084l-0.082-7.626L203.265,311.859z M201.987,307.615l0.33-6.844l-32.812,0.084
			c0,0.055,0,0.109,0,0.164l-0.618,6.718L201.987,307.615z M203.8,300.729l-0.329,6.886l99.839-0.413l-1.071-6.76
			c-0.056-0.112-0.056-0.167,0-0.167L203.8,300.729z M202.729,323.649l-0.288,7.954h42.252l-0.083-8.038L202.729,323.649z
			 M167.279,331.604v0.084h34.048l0.332-7.916h-0.412v-0.122l-33.68,0.122v0.084l-0.7,7.748H167.279z M228.739,234.321h-1.854
			c-0.434,0.003-0.806-0.148-1.111-0.451c-0.062-0.064-0.116-0.132-0.166-0.206c-0.033,0.052-0.075,0.106-0.124,0.164l-0.041,0.042
			c-0.247,0.244-0.535,0.396-0.865,0.451v40.396c0.002,0.435-0.149,0.809-0.452,1.114c-0.31,0.303-0.68,0.454-1.114,0.454
			s-0.806-0.151-1.113-0.454c-0.304-0.306-0.455-0.68-0.452-1.114v-41.962c-0.003-0.435,0.148-0.806,0.452-1.114
			c0.308-0.303,0.679-0.454,1.113-0.451h1.32c0.433-0.003,0.805,0.148,1.111,0.451c0.061,0.064,0.115,0.132,0.165,0.206
			c0.05-0.074,0.104-0.142,0.166-0.206c0.306-0.303,0.678-0.454,1.111-0.451h67.274c0.436-0.003,0.806,0.148,1.113,0.451
			c0.305,0.309,0.455,0.68,0.452,1.114c0.003,0.435-0.147,0.805-0.452,1.114c-0.308,0.303-0.678,0.454-1.113,0.451H228.739z
			 M246.094,323.565l0.124,8.038l61.296-0.038l-1.278-7.916c-0.055-0.109-0.055-0.168,0-0.164L246.094,323.565z M245.353,290.382
			l0.123,5.978l55.938-0.286l-0.908-6.02c-0.055-0.055-0.055-0.084,0-0.084L245.353,290.382z M245.846,311.695l0.084,7.626
			l59.317-0.084l-1.195-7.626c-0.058-0.055-0.058-0.109,0-0.164L245.846,311.695z"/>
		<path fill-rule="evenodd" clip-rule="evenodd" fill="#292929" d="M323.096,218.412l-0.124-0.454
			c-0.115-0.422-0.362-0.737-0.74-0.95c-0.396-0.209-0.809-0.251-1.237-0.122c-0.422,0.115-0.737,0.363-0.949,0.74
			c-0.136,0.255-0.203,0.516-0.206,0.786H131.375c0.008-0.307-0.074-0.593-0.248-0.866c-0.248-0.374-0.593-0.609-1.03-0.702
			c-0.429-0.097-0.828-0.029-1.195,0.206c-0.373,0.248-0.608,0.593-0.701,1.03l-0.083,0.332H27.538
			c-8.41,0-12.613-4.206-12.613-12.614V18.074c0-8.409,4.203-12.614,12.613-12.614H334.06c8.41,0,12.615,4.205,12.615,12.614
			v187.724c0,8.408-4.205,12.614-12.615,12.614H323.096z M308.01,20.629H30.588v183.767H308.01V20.629z"/>
		<path fill-rule="evenodd" clip-rule="evenodd" fill="#666666" d="M49.096,63.789c0.146-0.159,0.325-0.242,0.535-0.248h158.623
			c0.209,0.006,0.388,0.089,0.534,0.248c0.159,0.146,0.241,0.325,0.248,0.534v89.039c-0.007,0.211-0.089,0.39-0.248,0.538
			c-0.146,0.157-0.325,0.239-0.534,0.246H49.631c-0.21-0.007-0.389-0.089-0.535-0.246c-0.159-0.148-0.241-0.327-0.248-0.538V64.323
			C48.855,64.114,48.937,63.936,49.096,63.789z M69.131,93.881V82.587H50.416v11.294H69.131z M50.416,65.107v11.296h68.182V65.107
			H50.416z M70.696,77.969v3.05h47.901v-3.05H70.696z M69.131,81.019v-3.05H50.416v3.05H69.131z M70.696,82.587v11.294h47.901
			V82.587H70.696z M50.416,100.063v12.449h18.716v-12.449H50.416z M70.696,95.446v3.051h47.901v-3.051H70.696z M50.416,98.497
			h18.716v-3.051H50.416V98.497z M70.696,114.079v3.05h47.901v-3.05H70.696z M70.696,100.063v12.449h47.901v-12.449H70.696z
			 M50.416,114.079v3.05h18.716v-3.05H50.416z M69.131,132.217v-13.521H50.416v13.521H69.131z M69.131,136.833v-3.051H50.416v3.051
			H69.131z M70.696,133.782v3.051h47.901v-3.051H70.696z M70.696,118.695v13.521h47.901v-13.521H70.696z M50.416,138.4v14.18h18.716
			V138.4H50.416z M70.696,138.4v14.18h47.901V138.4H70.696z M172.101,76.403l-0.082-11.296h-51.857v11.296H172.101z M207.47,76.403
			V65.107h-33.885l0.083,11.296H207.47z M173.915,114.079v3.05h33.556v-3.05H173.915z M173.668,82.587l0.082,11.294h33.72V82.587
			H173.668z M172.185,93.881l-0.042-11.294h-51.981v11.294H172.185z M173.668,77.969v3.05h33.802v-3.05H173.668z M172.143,81.019
			l-0.042-3.05h-51.939v3.05H172.143z M172.225,100.105v-0.042h-52.063v12.449h52.188l-0.084-12.407H172.225z M172.349,117.129
			v-3.05h-52.188v3.05H172.349z M173.833,100.105l0.081,12.407h33.556v-12.449h-33.596v0.042H173.833z M173.875,98.497h33.596
			v-3.051h-33.596V98.497z M172.225,95.446h-52.063v3.051h52.063V95.446z M207.47,136.833v-3.051h-33.472l0.041,3.051H207.47z
			 M207.47,132.217v-13.521h-33.556l0.084,13.521H207.47z M207.47,152.58V138.4H174.04l0.123,14.18H207.47z M120.162,133.782v3.051
			h52.352l-0.042-3.051H120.162z M120.162,118.695v13.521h52.31l-0.122-13.521H120.162z M120.162,138.4v14.18h52.436l-0.084-14.18
			H120.162z"/>
		<path fill-rule="evenodd" clip-rule="evenodd" fill="#66FFFF" d="M50.416,65.107h68.182v11.296H50.416V65.107z M69.131,93.881
			H50.416V82.587h18.716V93.881z M50.416,100.063h18.716v12.449H50.416V100.063z M69.131,132.217H50.416v-13.521h18.716V132.217z
			 M50.416,138.4h18.716v14.18H50.416V138.4z M207.47,76.403h-33.802l-0.083-11.296h33.885V76.403z M172.101,76.403h-51.939V65.107
			h51.857L172.101,76.403z"/>
		<path fill-rule="evenodd" clip-rule="evenodd" fill="#999999" d="M323.096,218.412l36.315,122.879c0.106,0.332,0.106,0.66,0,0.992
			c-0.109,0.321-0.301,0.583-0.576,0.782c-0.283,0.193-0.6,0.29-0.947,0.287l-110.104,0.743l3.71,29.268
			c0.031,0.313-0.024,0.615-0.164,0.905c-0.129,0.28-0.32,0.499-0.578,0.66c-0.266,0.167-0.556,0.248-0.864,0.248H4.866
			c-0.334,0.003-0.635-0.094-0.907-0.29c-0.288-0.196-0.494-0.457-0.618-0.782c-0.117-0.329-0.132-0.657-0.042-0.989l38.749-138.009
			c0.1-0.335,0.291-0.611,0.576-0.824c0.281-0.216,0.599-0.325,0.95-0.332l81.618-1.69l2.926-13.848l0.083-0.332
			c0.093-0.438,0.328-0.782,0.701-1.03c0.367-0.235,0.767-0.303,1.195-0.206c0.438,0.093,0.782,0.328,1.03,0.702
			c0.174,0.273,0.256,0.56,0.248,0.866c-0.003,0.106-0.016,0.216-0.042,0.328l-3.256,15.252c-0.018,0.045-0.032,0.084-0.042,0.122
			v0.126l-23.168,107.547l140.856-0.908c0.129-0.013,0.254-0.013,0.37,0l109.649-0.741l-35.821-121.275
			c-0.045-0.151-0.074-0.303-0.083-0.45c0.003-0.271,0.07-0.531,0.206-0.786c0.212-0.377,0.527-0.625,0.949-0.74
			c0.429-0.129,0.841-0.087,1.237,0.122c0.378,0.213,0.625,0.528,0.74,0.95L323.096,218.412z M49.631,178.343h158.623v6.516H49.631
			V178.343z M49.631,157.98h158.623v15.748H49.631V157.98z M308.422,333.089c0.208,0.003,0.387-0.064,0.535-0.206
			c0.045-0.046,0.085-0.101,0.123-0.165l0.247,1.195h-189.62l9.481-53.257h14.718l-6.966,52.433
			c0.109,0.109,0.247,0.164,0.412,0.164L308.422,333.089z M110.845,298.669l13.646-63.192l-79.641,1.649L7.008,371.962h241.024
			l-3.546-27.866l-27.37,0.206l-101.695,1.729l-14.47,0.084h-0.246l0.618-2.97c-0.005-0.025-0.005-0.055,0-0.08l3.052-14.18h0.04
			l0.659-3.092h-0.041l2.514-11.667h0.042l0.66-3.092h-0.042l1.979-9.275h0.04l0.66-3.091H110.845z M113.444,283.046h-59.69
			l5.03-27.29h56.144L113.444,283.046z M315.51,232.84h-9.561l-1.443-5.443h9.604L315.51,232.84z M292.838,228.798H219.63
			l-0.247-7.336h71.561L292.838,228.798z M309.328,245.782l-1.317-5.11l9.521,0.08l1.276,5.03H309.328z M322.478,260.046h-9.398
			l-1.691-6.39l9.441-0.042L322.478,260.046z M327.506,279.665l1.401,5.442h-9.233l-1.442-5.442H327.506z M316.335,272.493
			l-1.443-5.523h9.358l1.401,5.523H316.335z M328.125,317.344l-1.813-6.927h9.11l1.771,6.927H328.125z M333.03,301.184h-9.149
			l-1.814-6.924h9.192L333.03,301.184z M341.358,333.501h-8.986l-1.731-6.596h9.027L341.358,333.501z"/>
		<path fill-rule="evenodd" clip-rule="evenodd" fill="#FFCC33" d="M157.385,223.274h6.266l-2.144,24.404h-6.842L157.385,223.274z
			 M183.933,223.274l-0.578,11.459h-6.842l1.153-11.459H183.933z M193.249,228.386h-6.266v-5.111h6.266V228.386z M154.666,223.274
			l-2.145,21.684h-6.844l2.722-21.684H154.666z M167.445,223.274h6.264l-1.401,20.282h-6.843L167.445,223.274z"/>
		<path fill-rule="evenodd" clip-rule="evenodd" fill="#CCFFCC" d="M319.839,218.412c0.009,0.147,0.038,0.299,0.083,0.45
			l35.821,121.275l-109.649,0.741c-0.116-0.013-0.241-0.013-0.37,0l-140.856,0.908l23.168-107.547v-0.126
			c0.01-0.038,0.024-0.077,0.042-0.122l3.256-15.252c0.026-0.112,0.039-0.222,0.042-0.328H319.839z M193.249,228.386v-5.111h-6.266
			v5.111H193.249z M183.933,223.274h-6.267l-1.153,11.459h6.842L183.933,223.274z M157.385,223.274l-2.72,24.404h6.842l2.144-24.404
			H157.385z M154.666,223.274h-6.267l-2.722,21.684h6.844L154.666,223.274z M167.445,223.274l-1.98,20.282h6.843l1.401-20.282
			H167.445z M309.081,332.718v-0.041l-9.933-52.887l-155.2,0.699l-0.041,0.167h-14.718l-9.481,53.257h189.62L309.081,332.718z
			 M132.571,252.046l-0.496,2.886h82.114v-2.886H132.571z M131.622,257.405l-0.7,4.041h83.268v-4.041H131.622z M130.551,263.672
			l-0.744,4.286h84.382v-4.286H130.551z M129.521,269.69l-0.744,4.699h85.412v-4.286L129.521,269.69z M315.51,232.84l-1.4-5.443
			h-9.604l1.443,5.443H315.51z M225.483,233.828l13.355,11.706h8.08l19.374,10.058h14.016l14.592,16.16l0.412-2.226l-14.592-16.16
			h-14.016l-19.374-10.057h-8.08l-10.512-8.988h65.42c0.436,0.003,0.806-0.148,1.113-0.451c0.305-0.31,0.455-0.68,0.452-1.114
			c0.003-0.435-0.147-0.806-0.452-1.114c-0.308-0.303-0.678-0.454-1.113-0.451h-67.274c-0.434-0.003-0.806,0.148-1.111,0.451
			c-0.062,0.064-0.116,0.132-0.166,0.206c-0.05-0.074-0.104-0.142-0.165-0.206c-0.307-0.303-0.679-0.454-1.111-0.451h-1.32
			c-0.435-0.003-0.806,0.148-1.113,0.451c-0.304,0.309-0.455,0.68-0.452,1.114v41.962c-0.003,0.435,0.148,0.809,0.452,1.114
			c0.308,0.303,0.679,0.454,1.113,0.454s0.805-0.151,1.114-0.454c0.303-0.306,0.454-0.68,0.452-1.114v-40.396
			c0.33-0.056,0.618-0.207,0.865-0.451L225.483,233.828z M292.838,228.798l-1.895-7.336h-71.561l0.247,7.336H292.838z
			 M309.328,245.782h9.48l-1.276-5.03l-9.521-0.08L309.328,245.782z M327.506,279.665h-9.274l1.442,5.442h9.233L327.506,279.665z
			 M322.478,260.046l-1.648-6.432l-9.441,0.042l1.691,6.39H322.478z M316.335,272.493h9.316l-1.401-5.523h-9.358L316.335,272.493z
			 M328.125,317.344h9.068l-1.771-6.927h-9.11L328.125,317.344z M333.03,301.184l-1.771-6.924h-9.192l1.814,6.924H333.03z
			 M341.358,333.501l-1.69-6.596h-9.027l1.731,6.596H341.358z"/>
		<path fill-rule="evenodd" clip-rule="evenodd" fill="#99CCCC" d="M217.117,344.302l27.37-0.206l3.546,27.866H7.008L44.85,237.126
			l79.641-1.649l-13.646,63.192c-0.09-0.026-0.187-0.042-0.286-0.042l-17.107,0.083c-0.042-0.003-0.084-0.003-0.126,0l-42.95,0.084
			c-0.372,0.003-0.702,0.129-0.99,0.37c-0.285,0.226-0.466,0.513-0.537,0.866l-2.555,12.859c-0.024,0.113-0.039,0.223-0.041,0.332
			c-0.004,0.181,0.023,0.36,0.081,0.534l-2.886,13.52c-0.109,0.223-0.164,0.454-0.164,0.702l-3.214,16.241
			c-0.018,0.055-0.032,0.109-0.042,0.164c-0.029,0.106-0.042,0.216-0.042,0.331v0.081l-2.927,14.183
			c-0.064,0.31-0.036,0.612,0.083,0.905c0.119,0.306,0.313,0.554,0.577,0.743c0.264,0.171,0.552,0.255,0.866,0.245h178.489
			c0.296-0.003,0.57-0.084,0.824-0.245c0.253-0.15,0.444-0.357,0.576-0.618c0.136-0.276,0.192-0.563,0.165-0.866l-1.483-14.592
			C217.146,344.46,217.132,344.376,217.117,344.302z M113.444,283.046l1.483-27.29H58.784l-5.03,27.29H113.444z"/>
		<path fill-rule="evenodd" clip-rule="evenodd" fill="#00CC33" d="M228.739,234.321l10.512,8.988h8.08l19.374,10.057h14.016
			l14.592,16.16l-0.412,2.226l-14.592-16.16h-14.016l-19.374-10.058h-8.08l-13.355-11.706c0.049-0.058,0.091-0.112,0.124-0.164
			c0.05,0.074,0.104,0.142,0.166,0.206c0.306,0.303,0.678,0.454,1.111,0.451H228.739z"/>
	</g>
</g>
</svg>
