<?xml version="1.0" encoding="utf-8"?>
<!-- Generator: Adobe Illustrator 15.1.0, SVG Export Plug-In . SVG Version: 6.00 Build 0)  -->
<!DOCTYPE svg PUBLIC "-//W3C//DTD SVG 1.1//EN" "http://www.w3.org/Graphics/SVG/1.1/DTD/svg11.dtd">
<svg version="1.1" id="Layer_1" xmlns="http://www.w3.org/2000/svg" xmlns:xlink="http://www.w3.org/1999/xlink" x="0px" y="0px"
	 width="304.502px" height="464.455px" viewBox="0 0 304.502 464.455" enable-background="new 0 0 304.502 464.455"
	 xml:space="preserve">
<g>
	<g id="Layer_4">
		<g>
			<path fill-rule="evenodd" clip-rule="evenodd" fill="#666666" d="M287.004,70.271c9.126,0,13.692,4.565,13.692,13.694v360.096
				c0,9.13-4.566,13.694-13.692,13.694H23.331c-9.128,0-13.693-4.564-13.693-13.694V83.965c0-9.129,4.564-13.694,13.693-13.694
				H287.004z"/>
			<g>
				<path fill-rule="evenodd" clip-rule="evenodd" fill="#666666" d="M165.331,20.204c-4.278-4.232-9.415-6.347-15.406-6.347
					c-5.989,0-11.102,2.115-15.333,6.347c-4.279,4.279-6.419,9.415-6.419,15.406c0,5.99,2.472,9.057,7.417,9.2
					c4.898,0.096,10.365,0.096,16.404,0c5.991-0.143,10.769-0.214,14.335-0.214c3.565,0,5.348-2.996,5.348-8.986
					C171.676,29.619,169.561,24.483,165.331,20.204z M225.953,51.657c7.274,0,10.912,2.115,10.912,6.347v18.757
					c0,4.279-3.638,6.418-10.912,6.418H75.539c-7.276,0-10.913-2.139-10.913-6.418V58.004c0-4.232,3.637-6.347,10.913-6.347h44.468
					c-3.067-2.319-4.6-6.456-4.6-12.41c0-9.509,3.375-17.64,10.127-24.392c6.752-6.751,14.883-10.127,24.391-10.127
					c9.51,0,17.641,3.376,24.394,10.127c6.75,6.752,10.127,14.883,10.127,24.392c0,6.054-1.143,10.191-3.424,12.41H225.953z"/>
			</g>
			<path fill-rule="evenodd" clip-rule="evenodd" fill="#999999" d="M281.655,73.837c9.127,0,13.693,4.564,13.693,13.693v360.097
				c0,9.13-4.566,13.694-13.693,13.694H17.982c-9.128,0-13.693-4.564-13.693-13.694V87.53c0-9.128,4.565-13.693,13.693-13.693
				H281.655z"/>
			<rect x="25.187" y="96.66" fill-rule="evenodd" clip-rule="evenodd" fill="#FFFFFF" width="246.768" height="333.494"/>
			<rect x="66.909" y="338.863" fill-rule="evenodd" clip-rule="evenodd" fill="#999999" width="39.227" height="11.626"/>
			<rect x="66.909" y="360.688" fill-rule="evenodd" clip-rule="evenodd" fill="#999999" width="39.227" height="11.625"/>
			<rect x="66.909" y="381.941" fill-rule="evenodd" clip-rule="evenodd" fill="#999999" width="39.227" height="11.626"/>
			<path fill-rule="evenodd" clip-rule="evenodd" fill="#333333" d="M40.27,192.728c-0.578,0.009-1.078-0.191-1.498-0.605
				c-0.433-0.408-0.659-0.908-0.677-1.498c-0.01-0.579,0.192-1.078,0.606-1.497c0.408-0.433,0.908-0.659,1.498-0.679l55.273-1.283
				c0.31-0.011,0.607,0.049,0.892,0.179c0.304,0.132,0.566,0.323,0.784,0.569l10.271,12.197c0.382,0.454,0.547,0.978,0.5,1.568
				c-0.048,0.59-0.298,1.077-0.75,1.463c-0.455,0.382-0.978,0.549-1.568,0.499c-0.588-0.048-1.075-0.299-1.462-0.75l-9.628-11.411
				L40.27,192.728z"/>
			<path fill-rule="evenodd" clip-rule="evenodd" fill="#333333" d="M240.395,168.407c0.594-0.006,1.106,0.195,1.532,0.606
				c0.424,0.412,0.638,0.911,0.644,1.499c0.009,0.594-0.195,1.104-0.607,1.532c-0.412,0.422-0.911,0.636-1.496,0.642l-53.813,0.643
				l-9.628,9.629c-0.412,0.423-0.911,0.636-1.496,0.642c-0.585-0.006-1.087-0.219-1.499-0.642c-0.424-0.413-0.635-0.912-0.641-1.498
				c0.006-0.586,0.217-1.085,0.641-1.498l10.271-10.27c0.401-0.417,0.889-0.63,1.46-0.643L240.395,168.407z"/>
			<path fill-rule="evenodd" clip-rule="evenodd" fill="#333333" d="M220.105,302.562l-0.429,22.822l36.304,0.214
				c0.568-0.047,1.069,0.166,1.496,0.643c0.381,0.428,0.57,0.927,0.57,1.497c0,0.571-0.189,1.07-0.57,1.498
				c-0.474,0.428-0.998,0.642-1.569,0.642l-38.585-0.214c-0.379,0-0.735-0.071-1.07-0.214c-0.331-0.237-0.568-0.523-0.713-0.856
				c-0.189-0.333-0.284-0.689-0.284-1.069l0.571-25.033c0.095-0.714,0.332-1.235,0.713-1.568c0.477-0.381,0.998-0.571,1.568-0.571
				c0.619,0,1.096,0.215,1.427,0.642C219.916,301.468,220.105,301.991,220.105,302.562z"/>
			<path fill-rule="evenodd" clip-rule="evenodd" fill="#333333" d="M263.752,215.943c0.424,0.412,0.635,0.911,0.641,1.497
				c0.009,0.595-0.192,1.104-0.604,1.534c-0.412,0.422-0.911,0.635-1.499,0.642l-49.426,0.643c-0.593,0.007-1.103-0.195-1.532-0.607
				c-0.42-0.412-0.635-0.911-0.641-1.498c-0.008-0.593,0.192-1.104,0.604-1.533c0.413-0.421,0.911-0.636,1.499-0.641l49.426-0.643
				C262.814,215.329,263.324,215.53,263.752,215.943z"/>
			<path fill-rule="evenodd" clip-rule="evenodd" fill="#333333" d="M127.102,357.585c-0.008-0.578,0.193-1.077,0.607-1.497
				c0.408-0.434,0.908-0.659,1.497-0.678c0.58-0.01,1.078,0.192,1.498,0.606c0.433,0.408,0.658,0.906,0.677,1.497l1.248,55.737
				h118.714c0.586,0.004,1.084,0.219,1.496,0.643c0.424,0.412,0.639,0.911,0.645,1.497c-0.006,0.585-0.221,1.085-0.645,1.497
				c-0.412,0.424-0.91,0.637-1.496,0.643H130.526c-0.579,0.001-1.079-0.2-1.497-0.605c-0.417-0.416-0.631-0.914-0.643-1.499
				L127.102,357.585z"/>
			<rect x="66.909" y="403.765" fill-rule="evenodd" clip-rule="evenodd" fill="#999999" width="39.227" height="11.626"/>
			<rect x="43.73" y="198.347" fill-rule="evenodd" clip-rule="evenodd" fill="#999999" width="39.226" height="18.117"/>
			<rect x="201.205" y="175.524" fill-rule="evenodd" clip-rule="evenodd" fill="#999999" width="39.227" height="18.117"/>
			<rect x="223.03" y="223.738" fill-rule="evenodd" clip-rule="evenodd" fill="#999999" width="39.227" height="18.115"/>
			<rect x="215.327" y="332.358" fill-rule="evenodd" clip-rule="evenodd" fill="#999999" width="39.227" height="18.115"/>
			<path fill-rule="evenodd" clip-rule="evenodd" fill="#CC3333" d="M196.996,324.243l-41.972-51.85l65.864-26.853
				c1.949,6.719,2.925,13.839,2.925,21.36c0,20.588-7.274,38.156-21.825,52.705C200.361,321.235,198.698,322.78,196.996,324.243z"/>
			<path fill-rule="evenodd" clip-rule="evenodd" fill="#FFCC33" d="M128.03,195.261l19.685,75.492l45.646,56.699
				c-13.71,9.319-28.402,13.979-44.076,13.979c-20.588,0-38.156-7.274-52.706-21.824c-14.549-14.549-21.823-32.117-21.823-52.705
				c0-20.587,7.274-38.157,21.823-52.705C105.841,204.933,116.325,198.62,128.03,195.261z"/>
			<path fill-rule="evenodd" clip-rule="evenodd" fill="#33CC99" d="M198.887,211.236c1.048,0.954,2.084,1.94,3.101,2.96
				c8.037,8.034,13.849,16.997,17.44,26.887l-67.221,27.244l44.682-58.839C197.558,210.06,198.224,210.642,198.887,211.236z"/>
			<path fill-rule="evenodd" clip-rule="evenodd" fill="#6666CC" d="M151.636,185.739c16.928,0,31.357,4.587,43.292,13.764
				l-42.792,57.557l-17.83-69.396C139.822,186.382,145.598,185.739,151.636,185.739z"/>
			<g>
				<path fill-rule="evenodd" clip-rule="evenodd" fill="#5A8A9E" d="M220.818,51.657c7.274,0,10.913,2.115,10.913,6.347v18.757
					c0,4.279-3.639,6.418-10.913,6.418H70.402c-7.274,0-10.911-2.139-10.911-6.418V58.004c0-4.232,3.637-6.347,10.911-6.347H220.818
					z"/>
				<path fill-rule="evenodd" clip-rule="evenodd" fill="#5A8A9E" d="M166.542,35.61c0-5.991-2.115-11.126-6.348-15.406
					c-4.279-4.232-9.413-6.347-15.404-6.347s-11.103,2.115-15.334,6.347c-4.279,4.279-6.419,9.415-6.419,15.406
					c0,5.99,2.473,9.057,7.417,9.2c4.898,0.096,10.365,0.096,16.404,0c5.991-0.143,10.769-0.214,14.335-0.214
					S166.542,41.6,166.542,35.61z M179.31,39.247c0.003,9.512-2.825,14.278-8.488,14.299c-5.669,0.016-13.276,0.123-22.822,0.321
					c-9.546,0.198-18.223,0.187-26.032-0.036c-7.802-0.217-11.701-5.079-11.696-14.585c0-9.509,3.376-17.64,10.128-24.392
					c6.752-6.751,14.882-10.127,24.392-10.127s17.639,3.376,24.391,10.127C175.934,21.607,179.31,29.738,179.31,39.247z"/>
			</g>
			
				<polyline fill-rule="evenodd" clip-rule="evenodd" fill="none" stroke="#66CC00" stroke-width="3" stroke-linecap="round" stroke-linejoin="round" stroke-miterlimit="3" points="
				131.168,414.678 150.782,370.315 175.599,381.941 201.063,367.392 224.384,373.954 251.343,369.531 			"/>
			<path fill-rule="evenodd" clip-rule="evenodd" fill="#FF3300" d="M233.583,391.177l4.992,0.5l12.267,1.248
				c0.597,0.063,1.084,0.324,1.463,0.784c0.373,0.461,0.526,0.983,0.465,1.568c-0.063,0.595-0.326,1.083-0.785,1.463
				c-0.463,0.372-0.983,0.525-1.568,0.464l-14.836-1.534l-4.992-0.498l-8.023-0.82l-9.592,4.743l-1.678,0.818h-0.036l-2.14,1.035
				l-28.954,14.228c-0.354,0.179-0.722,0.25-1.106,0.215c-0.403-0.043-0.774-0.186-1.105-0.428l-18.579-13.729L133.7,415.105
				l-0.035,0.036c-0.091,0.057-0.186,0.104-0.286,0.142c-0.172,0.052-0.351,0.088-0.534,0.107c-0.257,0.014-0.519-0.022-0.784-0.107
				c-0.286-0.085-0.536-0.216-0.75-0.393c-0.183-0.151-0.337-0.317-0.464-0.499c-0.022-0.049-0.046-0.096-0.07-0.142
				c-0.136-0.247-0.219-0.521-0.25-0.82c-0.014-0.257,0.022-0.519,0.107-0.784c0.085-0.287,0.216-0.537,0.392-0.75l0.144-0.142
				c0.135-0.153,0.302-0.284,0.498-0.394l9.772-5.277l17.116-9.271c0.358-0.196,0.738-0.28,1.142-0.25
				c0.419,0.035,0.799,0.179,1.141,0.428l18.615,13.766l28.241-13.836l1.713-0.855h-0.036l2.14-1.07l9.7-4.779
				c0.374-0.184,0.767-0.255,1.176-0.213L233.583,391.177z"/>
			<path fill-rule="evenodd" clip-rule="evenodd" fill="#660099" d="M211.51,394.993l-2.14,1.07h0.036l-1.713,0.855l-3.6-10.093
				l-27.138,8.773c-0.452,0.15-0.906,0.15-1.357,0l-19.718-6.812l-14.442,17.295l-9.772,5.277c-0.196,0.109-0.363,0.24-0.498,0.394
				l22.395-26.817c0.286-0.348,0.643-0.586,1.07-0.714c0.428-0.119,0.854-0.108,1.282,0.036l20.47,7.062l28.386-9.201
				c0.538-0.181,1.059-0.146,1.568,0.107c0.519,0.261,0.875,0.665,1.07,1.212L211.51,394.993z M230.588,395.172l4.992,0.498
				c-0.624,0.823-1.242,1.645-1.855,2.46c-8.898,11.832-14.2,17.585-15.902,17.261c-1.988,0.354-4.889-4.46-8.703-14.442l2.14-1.035
				h0.036l1.678-0.818c2.883,7.704,4.499,11.71,4.85,12.017c0.758-0.313,4.921-5.495,12.481-15.548
				C230.402,395.434,230.497,395.303,230.588,395.172z M238.576,391.677l-4.992-0.5c2.979-3.999,5.893-7.993,8.736-11.981
				c0.335-0.469,0.789-0.755,1.357-0.856l7.987-1.427c0.582-0.102,1.117,0.018,1.604,0.357c0.487,0.331,0.785,0.784,0.892,1.354
				c0.103,0.583-0.017,1.117-0.356,1.605c-0.332,0.487-0.783,0.784-1.357,0.892l-7.132,1.284
				C243.1,385.489,240.852,388.579,238.576,391.677z M131.025,411.896c-0.176,0.213-0.307,0.463-0.392,0.75
				c-0.085,0.266-0.121,0.527-0.107,0.784C130.477,412.853,130.643,412.342,131.025,411.896z M132.844,415.391
				c-0.577,0.05-1.088-0.117-1.534-0.5c0.214,0.177,0.464,0.308,0.75,0.393C132.326,415.368,132.587,415.404,132.844,415.391z"/>
			<g>
				<path fill-rule="evenodd" clip-rule="evenodd" fill="#006600" d="M58.421,333.265c0.949,0.16,1.353,0.291,1.212,0.394
					l-12.017,18.756c-0.256,0.479-0.637,0.813-1.141,0.999c-0.511,0.193-1.022,0.193-1.533,0c-0.498-0.202-0.867-0.546-1.106-1.033
					l-5.669-10.307c-0.12-0.28,0.082-0.506,0.605-0.678c0.524-0.164,1.059-0.366,1.605-0.605c0.552-0.248,1.11-0.284,1.676-0.107
					c0.55,0.187,0.954,0.543,1.213,1.07l2.496,4.992l6.847-13.017c0.278-0.515,0.624-0.824,1.033-0.928
					c0.396-0.106,1.05-0.096,1.961,0.036C56.524,332.966,57.463,333.107,58.421,333.265z"/>
			</g>
			<g>
				<path fill-rule="evenodd" clip-rule="evenodd" fill="#006600" d="M55.498,355.553c0.903,0.095,1.831,0.238,2.78,0.428
					c0.952,0.144,1.355,0.262,1.213,0.356l-11.982,18.758c-0.286,0.475-0.666,0.808-1.141,0.999c-0.522,0.189-1.046,0.189-1.568,0
					c-0.477-0.191-0.833-0.524-1.07-0.999l-5.706-10.342c-0.143-0.285,0.071-0.5,0.641-0.642c0.524-0.191,1.046-0.404,1.57-0.643
					c0.57-0.236,1.141-0.262,1.712-0.071c0.522,0.143,0.926,0.499,1.212,1.07l2.496,4.992l6.847-13.052
					c0.238-0.522,0.571-0.832,0.999-0.927C53.88,355.387,54.546,355.41,55.498,355.553z"/>
			</g>
			<g>
				<path fill-rule="evenodd" clip-rule="evenodd" fill="#006600" d="M55.498,376.021c0.903,0.096,1.831,0.237,2.78,0.429
					c0.952,0.142,1.355,0.261,1.213,0.356l-11.982,18.757c-0.286,0.476-0.666,0.808-1.141,0.998c-0.522,0.191-1.046,0.191-1.568,0
					c-0.477-0.19-0.833-0.522-1.07-0.998l-5.706-10.342c-0.143-0.285,0.071-0.499,0.641-0.643c0.524-0.189,1.046-0.403,1.57-0.641
					c0.57-0.238,1.141-0.262,1.712-0.072c0.522,0.144,0.926,0.5,1.212,1.07l2.496,4.992l6.847-13.051
					c0.238-0.524,0.571-0.833,0.999-0.928C53.88,375.855,54.546,375.879,55.498,376.021z"/>
			</g>
			<g>
				<path fill-rule="evenodd" clip-rule="evenodd" fill="#006600" d="M55.354,397.988c0.904,0.095,1.831,0.238,2.782,0.428
					c0.952,0.144,1.355,0.262,1.212,0.356L47.367,417.53c-0.285,0.475-0.666,0.808-1.141,0.999c-0.524,0.189-1.046,0.189-1.57,0
					c-0.475-0.191-0.832-0.524-1.07-0.999l-5.706-10.342c-0.142-0.285,0.071-0.5,0.642-0.642c0.522-0.191,1.046-0.404,1.568-0.643
					c0.571-0.236,1.142-0.262,1.712-0.071c0.524,0.143,0.928,0.499,1.213,1.07l2.496,4.992l6.847-13.052
					c0.237-0.522,0.57-0.832,0.999-0.927C53.738,397.822,54.404,397.847,55.354,397.988z"/>
			</g>
			<g>
				<path fill-rule="evenodd" clip-rule="evenodd" fill="#666666" d="M135.875,117.841h13.836v16.547c0,1.426,0.189,2.4,0.57,2.924
					c0.332,0.523,0.903,0.784,1.712,0.784c2.092,0,3.138-1.212,3.138-3.637v-16.618h13.766v36.73h-13.766v-14.049
					c-1.141,0.808-2.614,1.45-4.421,1.925c-1.76,0.477-3.566,0.713-5.422,0.713c-3.28,0-5.656-0.619-7.132-1.854
					c-1.521-1.283-2.281-3.257-2.281-5.919V117.841z M133.165,125.188h-8.202v29.383h-13.764v-29.383h-8.131v-7.347h30.097V125.188z
					 M99.929,147.226c-0.237,1.521-1.022,2.9-2.353,4.137c-1.332,1.284-3.115,2.283-5.349,2.996
					c-2.236,0.664-4.85,0.998-7.845,0.998c-2.853,0-5.397-0.334-7.632-0.998c-2.282-0.619-4.112-1.57-5.491-2.854
					s-2.187-2.687-2.425-4.207c-0.286-1.522-0.428-4.16-0.428-7.917v-6.277c0-3.708,0.142-6.323,0.428-7.845
					c0.238-1.568,1.022-2.971,2.354-4.208c1.283-1.283,3.042-2.258,5.277-2.924c2.283-0.713,4.921-1.07,7.917-1.07
					c2.804,0,5.349,0.333,7.631,0.999c2.234,0.619,4.041,1.569,5.42,2.853s2.211,2.686,2.496,4.208
					c0.238,1.521,0.357,4.183,0.357,7.987v6.277C100.286,143.042,100.167,145.656,99.929,147.226z M82.17,127.256v17.188
					c0,2.14,0.144,3.446,0.429,3.923c0.237,0.523,0.808,0.784,1.711,0.784c0.951,0,1.546-0.285,1.783-0.855
					c0.286-0.571,0.429-1.949,0.429-4.137v-16.902c0-1.665-0.144-2.734-0.429-3.209c-0.284-0.475-0.832-0.713-1.639-0.713
					c-0.761,0-1.308,0.191-1.641,0.569C82.385,124.285,82.17,125.402,82.17,127.256z M208.123,125.188h-8.13v-7.347h30.097v7.347
					h-8.201v29.383h-13.766V125.188z M197.497,125.188h-9.202v6.99h8.631v6.989h-8.631v8.059h10.127v7.346H174.53v-36.73h22.967
					V125.188z"/>
			</g>
		</g>
	</g>
</g>
</svg>
