<?xml version="1.0" encoding="utf-8"?>
<!-- Generator: Adobe Illustrator 15.1.0, SVG Export Plug-In . SVG Version: 6.00 Build 0)  -->
<!DOCTYPE svg PUBLIC "-//W3C//DTD SVG 1.1//EN" "http://www.w3.org/Graphics/SVG/1.1/DTD/svg11.dtd">
<svg version="1.1" id="Layer_1" xmlns="http://www.w3.org/2000/svg" xmlns:xlink="http://www.w3.org/1999/xlink" x="0px" y="0px"
	 width="808.9px" height="276px" viewBox="0 0 808.9 276" enable-background="new 0 0 808.9 276" xml:space="preserve">
<symbol  id="Duplicate_Items_Folder_x2F_карта">
</symbol>
<g>
	<defs>
		<rect id="SVGID_1_" x="-0.025" y="-0.047" width="808.951" height="276.094"/>
	</defs>
	<clipPath id="SVGID_2_">
		<use xlink:href="#SVGID_1_"  overflow="visible"/>
	</clipPath>
	<g clip-path="url(#SVGID_2_)">
		<defs>
			<path id="SVGID_3_" d="M849.256-7.948H-0.694c-6.667,0-10,3.333-10,10v278.95c0,6.668,3.333,10,10,10h849.95
				c6.666,0,10-3.332,10-10V2.052C859.256-4.614,855.922-7.948,849.256-7.948z"/>
		</defs>
		<clipPath id="SVGID_4_">
			<use xlink:href="#SVGID_3_"  overflow="visible"/>
		</clipPath>
		<g id="Layer_1_1_" clip-path="url(#SVGID_4_)">
			<g>
				<path fill-rule="evenodd" clip-rule="evenodd" fill="#ADD2DB" fill-opacity="0.5137" d="M453.906,329.104l1.65-2.5h2.199
					l0.25,2.5H453.906z M425.506-24.248l-2.1-7.1l13.199-7.65l27.551-11.55l-2.051,5.35l7.75,0.3l2.051-4.649l14-0.4l-4.301-5.649
					l7.9-11.101l10.9,2.25l-6.451,4.15l11.852,3.6l-6.801,4.75l7.25,1.2l6.75-4.7l11.35,4l4.25,14.351l-8.15,6.949l-13.549,9.7
					l-4.951,6.45l4.551-1.1c3.234-0.7,5.25-1.217,6.051-1.55c0.898-0.267,1.566-1.267,2-3l0.5-2.449l6.799,0.649l10.15,2.55l15,0.7
					l5,3.1l13.25,3.35l3.85-7.8l14.5,0.8l7.75,5.15l-2.299,15.5l9.799,6.4l4.951-9.55l7.199,4.55l16.051,0.8
					c0.467,0,1.549-2.633,3.25-7.9l3.1-5.35l24.85,2.55l11.551,4.5l-1.301,2.8l12.5,7.45l7.65-0.7l16.299,0.35l8.15,10.55l21.75,0.7
					l5.4-4l5.199,3.65l-4.049,2.95l4.949,3.25l5.951-0.8l-4.65-6.1l4.15-2.4l11,0.9l18.6,5.65l21.1,12.45l7.15,8.35l-0.15-4.15
					l7,0.5l9.6,6.6l-3.699,3.95l-6,0.2v6.55l-4.6,2.6l-9.301-4.3l-2.551-4.65l-8.299-0.2l-1-4.15l-4.451,0.5l2.852,6.8l-6.951,3.1
					l-5.049,1.4l8.648,10.7l-3.85,4.05l-9.5-1.1l-23.949,15.25l-2.051-3.45l-9.549,0.2l-7.4,2.75l-7.75,2.1l-6.35,8.6h7.25
					l-0.5,5.05l1.148,5.35l-6.549,1.4l-0.65,6.75l-7-0.2l0.25,6.951c-0.934,0.666-1.85,1.332-2.75,2
					c-1.867,1.399-2.85,2.183-2.949,2.35c-0.102,0.367-1.617,2.15-4.551,5.35c-2.967,2.9-4.684,4.417-5.15,4.551
					c-0.232,0.066-1.033,0.816-2.4,2.25c-1.533,1.5-2.465,2.366-2.799,2.6l-3.6,1.699l4.5-4.5l5.85-7.799l-2.451-11.801l-0.699-10.2
					l5.35-9.9l9.801-4.25l15.4-14.1l1.35-4.5l3.699-5.5l-5.449-0.35l-9.801,11.25l-3.799-1.05l-2.701-5.2l-9.949,4l-7.85,7.4
					l-1.451,5.05l-10.299,2.3v-2.45l2.049-1.75l-7.65-2.05l-6.6,2.75l-15.4-0.15l-23.6,14.8l-10.549,9.25l1.75,1.65l6.398,4.85
					l8.5-1.9l5.102,6.25l-2.5,12.7l-3.352,9.45l-11.049,11.85l-12.6,10.352l-7.65-0.25l-5.5,3.699l-5.1,5.1l-5.951,3.75l8.35,7.951
					l-0.75,7.85l-5.1,2.65l-6.9,1.449l-1.35-1.199l2.301-3.951l1.6-6.5c0-0.166-1.133-0.783-3.4-1.85l-4.549-0.85l1.398-5.551
					l-1.799-0.85l-4.701,0.35l-6.049,4h-4.15l2.5-4.65l2.551-2.949l-4.551-0.551l-6.35,6.301l-6,0.4l-0.9,2.15l4.6,0.75
					c0.768,1.865,1.15,2.865,1.15,3c0,0.066,0.584,0.25,1.75,0.549c0.533,0.133,1.084,0.268,1.65,0.4l2.65-2.6l6.648,2l-1.898,2.299
					l-9.201,6.201l2.6,3.799l5.301,10.201l-3.9,3.15l5.301-0.801c0.334,0,0.383,1.051,0.15,3.15l-7.65,11.1l-12.35,9.75l-21.5,5.25
					l-1.951,2.75l2.85,2.6l-4.5,4.201c-0.166,0.199-1.082,0.199-2.75,0c-1.299-0.135-2.465-0.301-3.5-0.5
					c-0.566-0.068-0.465-0.701,0.301-1.9l1.4-1.75l4.199-1.9v-2.25l-3.35-0.9h-7.9l-4.449,7.75l4.949,6.301l6.25,6.35l1.15,9.301
					l-15.75,8.25l-1.699-1.451l-0.701-2.65l-5.549-4.6l-4.951-1.4l-5.449-3.5l-2.551,2.701l-1.799,7.549l3.199,4.9l6.6,5.551
					l6.15,3.75l-0.65,4.699l4.051,5.15l-3.4,0.85l-8.301-4.85l-3.549-5.5l-2.85-6.6l-7.602-2.6l2.65-6l-0.6-8.75l-1.551-8.301
					l-3.049-4.5l-1.051,2.75l-4.65,2.699l-4-0.398l-1.1-3.602l1.1-5.199l-6.85-4.551l-2.699-6.1l-2-1.449l-1.701,1.299l-5.949,1.201
					l-9.6,0.9l-1,3.75l-4.201,1.148l-4.549,4.352l-6.801,2.398l-1.4,3.551l-4.849,0.25l-3.4,2.301v7.25l-1.399,6.25l-5.351,4.85
					l-2.8,3.65l-2.3,0.398l-2.4-1.949l-2.399-6.25l-8.801-16.15l-3.1-11l-0.4-7.85l-2.899,0.75l-4.3,3.75l-5.601-2.9l2-2.85
					l-10.149-6.25l-11.5-1.301l-22.051-1c-0.232,0-2.783-1.865-7.649-5.6l-4.55,1.051l-12.601-2.9l-9.55-8.949l-7.15,3.148l7,7.9
					l1.551,3.4c3.833,2.301,5.916,3.6,6.25,3.9c0.333,0.232,4.184,0.4,11.55,0.5c0.5,0,2.283-1.15,5.35-3.451l2.601,6.051l9.55,6.1
					l-9.851,9.5l-13.25,6.35l-18.949,7.25l-17.351,4.451l-3.8-5.75l0.4-7.25l-12.15-10.4l-2.5-7.949l-9.6-8.951l-4.8-5.199l-2.7-6
					l-3.15,2.9l-6.15-4.75l6.8,8.1l1.35,6.199l7.8,8.1c2.534,8.967,4.133,13.451,4.8,13.451c0.633,0,1.75,0.883,3.35,2.65l3.8,8
					l12.5,8.1l8.5,6.25l0.675-0.125l-4.024-4.525l6.3,0.699l1.5,2.551l0.5,0.525l17.399-3.076l1.101,6l-6.5,8.602l1.3,1.648
					l2.2-0.699l0.3-5.801l5.15-0.699l2.6,1.15l1.95-1.85l3.3,0.398l0.2-3.1l5.649-0.6l1.95-2.9l4.15-3.1l1.399-1.6
					c0.934-1.066,1.467-1.6,1.601-1.6c0.2,0,0.566,0.799,1.1,2.398l1.3,0.801c0.9,0.566,1.484,0.867,1.75,0.9
					c0.4,0.1-0.016,0.65-1.25,1.65l-2.6,0.199l0.2,4.449l4.649,4.65l1.95-2.699l3.4,1.85l6-0.699l-0.2,1.549l-5.7,1.15l0.45,5.85
					l3.2,5.15l-1.4,2.449l-2.5-2.75l-3.3-2.85v5.6l-2.25-0.799l0.55-3.5l-1.45-1.1l1.051-2.301l-1.75-1.35l-2.101,0.6l-2.149-2.551
					l-1.2,5.852c-2.067,0.832-3.233,1.217-3.5,1.148l-3.25-1l-5.851-0.75c-0.5-0.398-1.05-0.832-1.649-1.299
					c-1.134-0.834-1.75-1.25-1.851-1.25c-3.232-0.701-4.949-1.051-5.149-1.051l-3.2,0.701l-1.15,2.299l0.45,2.201
					c0.333,1.566,0.634,2.482,0.9,2.75c0.267,0.266,0.017,0.582-0.75,0.949c-0.233,0.166-0.833,0.434-1.8,0.801
					c-0.334,0.1-0.984-0.184-1.95-0.852l-1.351-1.148l-4.475-4.602l-13.975,11.451l-21.65,20.799l6.55,15.551l2.351,13.551l-24,13.5
					l3.1,12.25l-11.5,5.699v9.1l-18.8,15.301l-19.9,6.75l-18.35-1v-6.25l0.75-3.9l-9.65-11.6l-4.05-10.4l-1.7-8.949l-6.45-8.701
					l-3.6-6.25l3.3-9.35l-2.05-0.801l1.15-4.75l1.725-3.799l-0.725-2.201l1.25-3.949l0.25-2.775l-1.45-5.174l-9.2-9.65l-4.05-6.25
					l2.7-6.25l-1.051-9.551l-16.3-1.1l-2.3-3.65l-10.9-0.75l-14.649,4.9l-9.8-1.5l-12.551,1.85l-8.85-2.4l-10.2-6.5l-1.3-3.898
					l-12.25-9.102l-1.35-3.898l-2.351-2.852l3.7-6.949l0.3-12l-2.7-4.15l7.5-9.35l1.051-4.15l5.75-5.449l13.6-9.1l5-10.65l8.6-6.801
					l2.301-2.6l2.399,2.9l9.851-0.301l16.3-4.4l24.05-1.25l6.15-2.648l4.05,7.549l-1.65,6l18.25,4.9l16.3,6.75l3.05-6.5l6.85-2.35
					l13.6,4.699l15.2,2.35l3.8-2.35l15.9,1.301l0.05,0.199l-0.05-0.85l4.7-10.25l-0.85-8.199l-21.15,0.949
					c-0.233,0-3.5-1.033-9.8-3.1l-4.5-3.15l0.7-7.551c0-0.266-1.95-1.482-5.85-3.648c-0.1,0-0.633,0.316-1.6,0.949l-1.35,0.949
					l-5.75,0.451l0.9,3.4l3.45,3.949l2.25,1.75l-3,0.5l-1.3,3.051l-4.35,0.5l-2.9-3.701l-0.75-2.75l-4.25-4.35l-2.3-4.15l-0.45-5.35
					l-11.2-5.4c-0.033-0.033-1.566-1.332-4.6-3.9c-2.966-2.6-4.55-3.949-4.75-4.049c-0.233-0.133-1.25-0.217-3.05-0.25l-2.7-0.051
					l-0.95,5.301l4.9,2.25l0.05,2.5c4.767,3.467,7.317,5.283,7.65,5.449l6.75,2.75l3.3,2.801l-1.3,0.949l-2.25-1.299l-1.3,0.35v5.35
					l-2.4,3.5l-2.45-1.949l1.15-6.051l-4.6-3.949c-1.867-0.801-3.767-1.65-5.7-2.551c-3.834-1.699-5.834-2.666-6-2.9
					c-0.334-0.332-3.517-2.85-9.551-7.549l-12.85,5.35l-3.85-2.25l-6.2,1.9l-2.7,5.049l-1.55,7.1l-9.75,1.701l-1.4,5.25l-4.25,5.299
					l-10.2,0.227l-0.3,0.424c-0.366,0.5-0.633,0.717-0.8,0.65l-0.95-0.4l-2.899,1.551c-0.601-0.668-1.267-1.367-2-2.1
					c-1.4-1.367-2.25-2.051-2.551-2.051l-8.149,0.551l0.5-4.75l-1.15-17.801l4.55-3.301l16.7,1.75l7.75-1.449l1.3-4.25l-1.8-6.15
					l-11.35-10.299l10.85,0.1l1.4-3.25l10.2-1.701l7.75-9.899l22.05-13.351l-2.9-6.25l-0.45-5.15l4.5-4.2l4.101-1.2l0.2,6.4
					c0,0.367-0.667,1.283-2,2.75l-0.75,5.75l7.1,5.15l5.85-2.55l2.7,2.25h8.65l6.6-3.7l5.6,1.8l7.75-4.65l0.2-7.45l3.15-4.9
					l6.35,3.65l3.6-7.3l-3.35-3.1l0.65-4.65l11.5,0.7l7.5-2.1l-0.5-4.55l-22.8,2.65l-3.85-6.8l0.15-10l12.95-18.9l-8.15-1.7
					l-6.5,4.5l-3.4,6.75l-10.85,10.05l-1.8,11.55c3.867,4.767,5.8,7.317,5.8,7.65c0,0.333-1.933,1.25-5.8,2.75l-0.75,8.85
					l-10.15,9.9c-8,1.267-12.466,1.9-13.4,1.9c-0.566,0-0.601-0.35-0.101-1.05l0.75-1.05c2.567-2.867,3.851-4.467,3.851-4.8
					l-1.55-12.7l-3.851-1.55l-15.05,4.35l-4.15-5.7l-0.5-9.2l1.601-9.2l12-6.25l8.399-10.05l13.351-19.7l4.9-5.75l-9.7,1.4l9.7-2.95
					l-9.7,1.2l2.7-4.8l6.35-0.2l5.45-1.4c-0.433-1.967-0.65-3.217-0.65-3.75c0-0.4,0.3-1.383,0.9-2.95l0.9-2.3l10.85,1.9l1.05-0.525
					l1.5-3.325l4.4-6.2l5.1-3.8l6.05,0.4l3.7-3.9l5.9-4.25l3.45,2.6l-1.25,4.15l-5.5,4.1l-4.275,2.525l1.375,2.175l4.3-5.05
					l0.45,6.6l2.5-5.2l0.9,5.2l2.3-4.9l8.95,3.85l-7.65,3.85l12.05,4.8l23.8,7.1l11.5,13l-9.55,7.1l-12.45-3.45l-11.25-2.2
					l6.75,7.55l7.5,12.15c0.1,0.233,1.083,0.45,2.95,0.65c1,0.066,1.966,0.133,2.9,0.2l-3.15-4.7l-1.3-4.15l8.45,3.35l6.2-0.2
					l-1.35-5.55l9.5-6.05l4.85,1.55l4.05-4.3l-4.199-5.75v-9.8l11.6,6.85c-4.4,3.7-6.816,5.65-7.25,5.85
					c-0.334,0.2,1.084,0.533,4.25,1c3.133,0.5,4.9,0.7,5.3,0.6c0.434-0.1,1.167-2.1,2.2-6l11.05-3.35l11.351-6.4l3.85,5.85
					l11.95-4.8l9.55,1.4l2.3-6.45l-8.899-3.45l0.75-4l18.55,6.4l18.75,11.25l-0.9-9.8l-8.149-15.25l14.899-17.9
					c8,0.567,12.167,1.217,12.5,1.95c0.267,0.667-1.399,4.133-5,10.4l0.226,6.375l1.074-3.525l2.301,3.1l1,3.3h2.975l0.125-2.7
					l-1.4-8.35l4.801-1.85l-1.801-8.35l4.5,0.7l1.101,8l-2.4,6.55l5.601,3.6l5.6-2.2l-8.15-4.85l3.7-1.6l6.75,0.7l-6.35-3.75
					l3.399-3l1.801-0.35l4.75,4.05l8,4.25l2.898-3.05l-7.649-2.9l1.3-12.9c14.667-0.767,22.216-1.216,22.65-1.35
					S425.773-21.714,425.506-24.248z M422.855,334.303l7.701,4.4l-1.4,1.5l-2.9-2.051L422.855,334.303z M82.356-42.847l-0.45-1.9
					l1.85-0.25l-0.05-2.15l1.351-1.25l1.3,3.4l2.2,1.15c0.933,1.233,1.399,1.916,1.399,2.05c0,0.133,0.45-0.334,1.351-1.4l-0.4-3
					l1.75-0.45l0.85,3l1.601-2.05l7.25,4.65l-1.25,2.6l-2.101,1.9l-0.1,1.149c-0.066,0.801-0.083,1.25-0.05,1.351
					c0.1,0.2-0.667,0.717-2.3,1.55l-2.9,2.25l-1.35-1.25l-2.7-0.85l-4-0.25l-0.8-2.801l2.699-0.25l0.5-2l-6.1,0.351l-0.6-2.05
					l1.25-1.5l-1.2,0.1l-1.05-2.1H82.356z M-21.944-93.547l-5.801,2.05h-4.949l-4.5,2.7l-7,1.85l7.05,0.4l4.149-2.9l7.5-0.399
					l5.551-0.801v3.7l7.25,2.05l-1.4,7.4l-7.85,3.3l-9.45,1.65l-6.601,4.55l0.851,2.9l7.5-4.551l10.55-1.25v3.75l-7.45,3.7
					l2.101,2.45l7.85-5.35l0.4-4.551h4.149l1.65,8.051l-7.45,11.75l9.9-11.101l2.899,2.05l4.101-4.55l4.55-2.899l8.25,6.199
					l-5.75,5.351h-1.65l0.8,3.95l-4.949,3.5h-2.45l-1.65,1l4.5,1.85l-3.3,2.9l-4.95-1.25l-0.399,3.75h6.199l-1.25,4.949h-3.699
					l-0.851,1.2l0.851,5.4l-4.101,7.399l-1.2,4.95l7.4,3.7l-3.65-0.4l-0.75,3.3l4.75,1.65v5.75h-3.3l-3.25-2.25l-1.25,5.55
					l4.101,5.4l1.649,6.55l-6.149-3.7l5.35,7.85l-1.25,4.55l-4.95,1.2l2.9,3.3l-4.95,1.25h-3.3l4.149,4.55l-0.8,4.55l-4.1-3.3
					l6.05,10.7v5.75l-3.5-0.8l-2.65-3.7l-2.85-2.5l-2.1,3.7l2.1,2.9l-4.95,3.7l6.15-1.65l5.8,3.3l-13.2,9.9l-8.649,2.5l-2.5,4.1
					l-6.551,7l-7.85,2.9l-2.8,4.55l-0.75,5.75l-3.5,5.4v5.75l-4.75,10.3l-6.3-5.75l-3.75-4.55l-4.95-8.25l-0.851-5.75l-2.449-0.45
					l-3.7-8.65l2.05-4.1l-1.6-3.75l1.75-9.05l3.899,2.05v-6.15l-2.45-4.55v2.05l-2.05,2.5l-3.3,0.8l-1.65-6.2l4.551-0.8l-2.45-4.95
					l7.8,2.9l-2.85-9.5l-6.601,1.65l1.2-10.7l-5.75-20.25l-12.8-9.05l-9.05,2.9l-9.101-4.15l4.95-2.85l-5.75-0.45l-2.05-4.5l7.8-2.5
					l3.3-2.05l-11.95-1.25l-3.3-7.85l11.95-6.551l5.8-5.399l1.25-7.8l-5.35-4.95l9.6-11.55l3.5,1.649v-11.95l3.75-2.5l5.8,7
					l-3.3-8.649l12.8-4.95l9.051,3.7l-2.051-6.601l3.7,0.45l10.7,6.15l-6.15-7.4l2.851-2.5l3.75-1.649h7l4.1,4.149v-6.6h-17.35
					v-2.05l9.149-4.95l4.551-1.25l2.949,3.3l0.45-3.7l2.7,2.05v-3.699l6.25-2.9h7.8l9.9,1.85L-21.944-93.547z M443.406,389.303
					l0.65,2.051l3.398,2.898l-3.1,3.301v1.85l-3.299,0.801l-6.75,10.1l-2.701-2.051h-2.449l1.449-4.75l3.9-3.1l4.15-4.1
					L443.406,389.303z M449.256,378.354l1.15-1.15l1.15,2.6l2.25,1.65l3.6-0.551l-1.951,3.85l-2.25,0.701l0.701,2
					c-2.666,3.367-4.117,5.049-4.35,5.049c-0.102,0-0.352-0.266-0.75-0.799l-0.5-0.75l0.35-3.951l-2.801-0.398l1.451-1.951
					l1.648-1.549l-1.049-2.602l-0.6-3.299l-3-2.9l-0.801-2.449l2.15,1.75h1.449l0.701,1.25L449.256,378.354z M69.456-36.398l0.101,2
					l2.05-0.3l0.85-2.95l0.95,1l1.95,5.5l-0.601-7.75l1.801-1.949l1.5,1.5l2.75,1.649l-0.75,3.3l1.449,0.2l2.45,5.7l3.45,1.55
					l1.1,1.65l-0.55,1l-3.55,1.899l-3.05,10.4l-2,2.55l-0.101,3.1l-0.949,5.2l-2.75-2.05l-4.75-7.45l3-1.05l-0.15-1.55l-2.4,0.1
					l-1.449-3.5l6.6-2.9l1.45-3.3l-3.101,0.6l-2.1-1.2l-1.4,3.101l-2.5,0.6l-1.25-1.75l0.95-0.7l-1.25-0.8l-1.649-2l-0.4-2.05
					l1.15-1.75l-1.5-1.95l-1.301-4.65c0-0.066,0.4-0.466,1.2-1.199c0.4-0.334,0.783-0.684,1.15-1.051l5.149-0.75l0.101,0.9
					L69.456-36.398z M-226.894-18.948l2.55-2.8l2.2,0.25c0-0.866,0.033-1.517,0.1-1.95c0.033-0.3,0.384-0.517,1.05-0.649
					c0.334-0.067,0.667-0.117,1-0.15l1.551,1.65l-0.301,3.199L-226.894-18.948z M-154.944-81.597l3.949,1.05l-2.35-3.101l1.85-1.449
					l3.101,2.149l-2.3-3.8l5.449,0.1l6.601,6.15l-4.4-8.3l7.101,0.05l2.149,4.55l0.5-5.45l3.65-1.35l0.05,3.7l0.95-3.101l3.399-0.8
					l3,2.65l4.2,2.6l-3.55,3.75l8.65-3.45l2.25,4.65l2.699,1.05l3.601,3.601l-8.351,10.6l-9.5,2.5c-0.133,0.033,0.5,0.217,1.9,0.55
					c0.7,0.167,1.4,0.334,2.1,0.5l-3.8,4l8.95-3.1l-12.95,17.7l-3.95,0.949l2.9,1.45l-4.35,4.55l-4.7-2.05l3.05,4.2l-6.8,3.2h2.6
					l-1.35,2.1l-3.3,0.851l5.8,3.649l-1.05,2.15l-2.551,1.45l1.7,1.199l-1.399,0.851l-1.9,0.75l1.9,1l-2.601,1.9l-3.6,1.15
					l-0.55,5.85l-8.551,1h7.801v3.05l1.149,0.45c0.834,0.333,1.533,0.55,2.101,0.65c0.933,0.167-0.084,1.167-3.051,3l-4.1,2.5
					l-2.45-2.5l-5.2,2.25l-10.05-1.05l-4.75-3.7l2.5-2l5.05-2.85l-2.649-5.7l1.899-1.1l4.45-1.35l-4.3-3.8l0.8-4.101l-5.149,4.301
					l-8.25-1.45l-2.601-7.55l2.4-4.7l-6.2,1.399l-3.4-9.149l1.45-9.4l3.05-5.35c2.034-3.533,3.117-5.283,3.25-5.25
					c0.101,0.033,0.934,1.717,2.5,5.05c0.801,1.667,1.584,3.316,2.351,4.95l5.25,5.149l7.2,2.051l1.55,11.35l-0.2-11.75l7.85,7.35
					l-7.05-8.6l9.3-2.05l-2.05-1.95l-9.1,0.65l-5.25-4.25l6.399-6.051l-10.199,4.101l0.399-2.9l-1.95-3.399l2.551-3l-3.9,1.75
					l-1.65-2.15l7.45-6.7l8,0.75l-4.3-4.35l3.2,1.05l0.899-4.25l12.9,8.55l-6.35-7.8L-154.944-81.597z M87.255-18.797l-1.6-2.5
					l0.75-0.75c0.566-0.566,0.934-0.884,1.1-0.95c0.267-0.1,0.884-0.1,1.851,0l0.95,2.75l-0.95,1.3h2.649l-0.05,1.85
					c2.101,2.2,3.217,3.317,3.351,3.35c0.133,0.067-0.101,0.9-0.7,2.5l-3.351,2.85l-2.55-2l-1.3,0.45l-0.1-1.15l1.25-1.8l1.25-1.1
					l-0.95-1.65l-1.75-0.35l0.85-1.55l0.7-0.55L87.255-18.797z M-218.245-16.848l-2.25,1.65l0.9,3.55l-2.35,2.4l-4.95-1.85l0.5-2.45
					l6.399-4.1L-218.245-16.848z M-188.144-11.897l1.899-1.45l6.7,1l-1.05,1.95l-6.6-0.2L-188.144-11.897z M-175.544-9.647
					l0.351-2.25l2.35,0.5l1.55,2.85c-0.3,0.233-0.6,0.45-0.899,0.65c-0.601,0.467-0.9,0.783-0.9,0.95
					C-173.161-6.781-173.978-7.681-175.544-9.647z M-142.894,66.002l2.5-1.9l3.3,1.65l-1.15,5.2l-4.1,0.85L-142.894,66.002z
					 M-142.794,26.453l2.45,6l-6.2,1.65l8.7,0.6v4.35l3.65,4.4l2.55-1.1l3.05,1.1l-3.55,3.85l4.649-1.1h1.65l-2.5,3.75l2.25-2.1
					l4.35,2.5l-3.35,3.85l3.65-2.5l2.8,2.5l-2.2,1.35l2.85,3.05l-2.55,0.8v3.05l1.75,1.9c1.233,1.267,2.017,1.9,2.351,1.9
					c0.533,0,2.616,1.25,6.25,3.75l4.399,4.5l-1.899,5.55h-3.301l0.801,3.8l-9.051-9.35l0.25,4.7l-2.149,0.55l5.45,6.3l3.3,5.35
					l-2.15,5.95l-8.25-5.95l6.851,8.45h-3.551l-6.75-3.3l-2.55-0.85v-3.3h-2.25l-3.3-5.4l-4.4,0.75l-5.699-1.35l1.149-3.5l9.5-1.5
					l-2.2-4.65l3.851-6.75l-2.5-5.65l-10.7-14.85l-2.5-0.25l0.55,4.4h-11.55l-8.5-1.8l-2.45-5.1l3.8-1.1l-7.1-4.65l1.9-10.75
					l5.3-5.2l5.55,0.55l-3.9,4.95v7.65l3.851,4.45l-2.55-7.45l2.55-6.6l7.5-3l3.5,6.6v-7.15L-142.794,26.453z M-149.294,8.802
					c0.667,0.767,1.25,1.5,1.75,2.2l-1.649,2.25l-1.101,4.65l-8,0.55l-17.85-1.4l-1.4-4.95l-1.1-7.4l-2.75-2.2l-6.05-3l3.199-4.25
					l1.25,0.9l1.051,3.05h5.8l4.55,4l-2.55,0.15v1.9l3.1,3.85l6.4,1.1l6.1-2.2l2.55-0.65c1.801-0.467,3.051-0.7,3.75-0.7
					C-151.544,6.652-150.561,7.369-149.294,8.802z M-192.294-22.248v-4l4.15,2.45l3.399,2.899l-0.699,1.65l0.699,2.2l-1.199,1.95
					l-4,0.15l-0.7-1.2l1.5-1.15l-1.3-1.2L-192.294-22.248z M-209.144-31.398l3.1-0.8l3,0.9l1.15,4.149l0.899-1.75l1.351,1.75
					l2.8,2.051l1.7,2.899l-1.101,2.05l2.15,2.4l0.55,3.15l-2.899,0.8l-1.601-2.5l-0.149-2.1l-1.95-0.45l-0.75,1.55h-2.5l0.2-1.5
					l-3.851-0.101l-0.85-3.1c0-0.167,0.133-0.316,0.399-0.45c0.101-0.066,0.217-0.133,0.351-0.2l2.5-0.5l-0.2-1.649l-2.55-0.7
					l1.05-1.35l-3.4-1.15L-209.144-31.398z M-187.144,15.502l0.149-2.95l3.101-4.9l2.35,1.8l1.65,2.2v5.7l-3.55,0.25
					L-187.144,15.502z M-184.594,23.552l4.05-2.85l6.851,2.7c-1.9,5.167-2.95,7.9-3.15,8.2l0.05,0.8l-0.899,1.25l-3.101,0.3
					l-1.95,6.4l2.65,2.8l3.45,9.35l-0.75,3.2l4.1,0.9l-1,3.3l1.851,5.3l0.1-4.15l2.1-2.15l1.9,4.65l-0.9,3.5l2.7,4.1l1.7-1.15
					l-0.2-2.75l0.2-2.6l0.95,2.4l1.149-0.2l0.2-5.35l1-5.9l3.3,0.1l6.101,5.15l-3,2.3l3.5,7l-0.9,1.85l-3.85,4.6l-3.9,1.45
					l-1.1-1.95l-3.45-0.5l2.2,2.25l-3.65,5.05l-3.149-1.4l3.5,3.05l-2.4,3.8l-3.7,1.25l-2.45,3.7l-0.3,7l-3.5,1.25l-5.3,13.2
					l3.2,0.75l2.6,7.851l9.05,1.899l6.2,4.149l8.15,2.601l-0.4,8.25l5.15,6.15l3.35-2.049l-0.8-12.702l4.85-4.1l0.45-7.85l-4.7-4.2
					l3.601-5.55l-1.4-8.05l0.9-4.65l6.1,1.55l4-1.05l3.65,6.3l5.149,1l0.301,8.4l3.8,4.5l3.399-2.8l3.4-7.4l1.9,3.7l3.5,5.3
					l1.899,8.851l6.601,6.25l3.25,1.6l-5.301,3.55l5.9-2.351l1.85,2.701l1.45,6.899l-4.45,1.75l-4.6,3.951l-10.05-0.25l-7.7,2.35
					l-3.65,2.6l-4.949,7.25l5.699-5.699l3.601-1.551l5.05-0.949l0.95,2.4l-0.95,2.35l0.95,2.799l2.85,3.102l3.5,0.85l3.3-4.35
					l1.051,4.85l-8.551,4.85l-5.55,2.051l-0.6-2.801l3.899-2.25l-0.6-0.9l-4.05,1.201l-9.15,4.75l-1.149,3.898l1.949,2.15
					l-1.449,0.85l-5.551,1.75l-2.8,2.15l-1.55,2.5l-1.2-1.549l0.4,4l-1.25,2.398l-1.351-2l-0.199,3.051l0.8,6.6l-7.101,4.6
					l-6.1,8.25l3.95,10.5l-0.9,3.451l-2.7-0.551l-3-6l0.75-3.15l-3.25-2.199l-1.899,0.551l-3.75-1.801l-6.601,0.35l-4.1,2.35
					l-2-1.549l-8.95,2.299l-4.25,4.951l-0.7,9.699l3.551,9.75l7,2.6l5.149-3.299l2.351-4.15l4.649-0.5l2.75,1.65l-2.45,5.449
					l-2.699,7.451l5.699,0.1l1.851-1.25l5.899,1.85l-0.6,3.4l-0.6,7.5l7.1,4.699l3.1-1.449v-0.201l1.7,0.201l3.3,2.85l3.851-3.15
					l0.55-2.75l4.25-1.65l4.4-2.6l0.399,1.1l-0.95,1.65l2.5,0.85l1.45-3.299l1.55,1.85l2.75,0.6l0.25,2.051h4.4l2.6,0.449
					l2.351-1.949l6.5,2.75l1.5,3l3.55,1.35l2.2,2.801l4.95,3.148h4.55l4.7,1.451l5.199,7.35l1.101,3.699l2.899,2.201l7.801,2.049
					l3.699,2.75l9.5,0.551l4,3.301l3.851,1.25l2.6,4l-0.25,4.799l-5.25,6.75l-4,3.701l-0.8,11.1l-1.9,6.75l-3.05,4.949l-8.45,2.9
					l-4.199,2.35l-3.5,3.15v6.75l-2.4,1.5l-2.45,4.65l-4.25,5.25l-3.649,5.35l-4.75,1.1l-3.95-0.699v2.35l1.649,2.75l-0.75,3.4
					l-5.399,3.5l-4.65,0.65l-1.899,1.199l-0.15,3.6l-2.6,1.65l-1.801-1.1l-2.05,0.549l0.25,3.15l2.351,0.6l0.25,2.15l-2.601,1.25
					l-0.7,3.451l-1.85,2.35l-3,2.15l0.35,3.75l2.851,2.199v2.199l-4.101,4.4l-1.55,3.15l-1.75,1.4l-0.149,2.6l1.199,2.5l-1,1.699
					l-2.8,1.25l-2.1,1.951l-0.8,2.75l-2.25-0.951l-5.551-5.799l0.4-1.701l-1.2-0.199l1-2.9l-1.649-0.6l1.1-2.15l-0.7-1.449
					l-0.7-3.301l0.7-2.6l1.101-0.35l1.1-3.6l-2.5,0.75l0.35-1.551l1.2-0.801v-1.449l0.75-1.051l0.45-1.25l-0.5-2.25l0.55-1.1
					l0.851,0.051l1.35,1.299c0.1,0.135,0.333-0.166,0.7-0.898l-0.601-0.75l0.15-1.65l0.4-1.301l-0.15-1.049l0.4-2l-0.5-0.801
					l-0.75,0.4l-0.25,3.5l-0.7,0.049l-0.7-0.648l1.05-4.75v-4l0.55-1.602l-0.3-7.299l1.05-0.301l0.351-4.75l1.6-3.6l1.7-0.75v-9.949
					l1.1-5.102l0.2-3.85l1.05-1.1l0.2-8.65l0.75-1.85v-10.301l-13.75-9.549l-0.2-2.801l-4.399-5.75l-0.7-3.699l-5.7-7.5v-4.051
					l1.3-1.699l0.9-2.25l-2.1-1.201l0.199-2.699l1.75-4.15l2.4-0.6l1-3.1l2.85-2.801l-0.05-5.199l-2.1-3.85l-2.851-3v-0.201
					l-1.05,1.201l-1.35,2.699l-5.3-2.051l-2.4-2.699l-4.75-2.25v-2.4l-4.85-4.6l-9.4-3.1l-6-4.25l-4.45,1.449l-19.2-8.049l-2.05-3
					l-0.05-3.951l-6.15-7.549l-3.55-5.4l-4.95-4l-1.149-3.4l-4.15-5.699l-2.85,0.35l2.649,5.549l10.851,15.25l0.2,1.451l-6.101-3.5
					l-1.649-4.551l-5.45-3.4l1.45-2.049l-9-15.5l-5.851-2.65l-6.399-9.6l-2.65-13.9l0.05-17.75l2.9,0.199l2,2.201l-0.55-4.75
					l-4.801-4.75l2.95,5.65l-4-1.25l-6.95-7.051l3.051,0.449l-0.5-1.898l-7.101-9.651l-4.149-4.7l-7.95-7.399l-9.05-12.5
					l-20.351-8.65l2.2,4.65l-9.9,4.95l-1.35-2.75l3.55-7.65l-6.6,4.35l-0.55,6.6l-6.9,9.049l-9.3,7.201l-26.95,11.549l-11,1.65
					l12.9-3.301l17.35-8.85l8.25-6.85l8.25-9.9h-13.2l-5.149-4.8l-1.551-13.6l7.851-4.65v-4.95h-11.05l-4.4-6.2l9.1-3.45l4.65,1.65
					l1.1-3.85l-9.899-9.05l-0.8-3.6l5.75-0.55l4.649-10.2l12.95-6.3l8.3,6.3l22.95,3.05l18.55,9.9v-6.35l9.05-3.8l3.25,3.3
					l5.75-4.45l8.25,6.1l3-3.85l14.601,4.65l4.649,4.15l-2.75,3.55h13.2l5.3,5.8v-6.35l3.351-4.65l0.649,3.55l16.2,2.75l0.65-2.75
					l5.45-1.1l2.25,3.85l3.05-6.6l0.3-4.55l-3.5-1.75l-2.8-4.7v-6.05l3.05-7.1l-0.6-4.15v-6.2L-184.594,23.552z M-198.944-12.348
					h-1.95l-1.65-0.8l0.95-1.65h1l0.05,0.05l1.601,0.45V-12.348z M-207.644-6.297l-2.95-7.15l3,2.5l2.1,3.15v2.05L-207.644-6.297z
					 M-200.544,5.402v-3.7l1.8-0.85l2.801,4.35l-1.4-3.9l-1.6-2.9c2.267-0.433,3.517-0.65,3.75-0.65l4,1.15l0.1,2.9
					c0.1,2,0.2,3.083,0.3,3.25c0.134,0.3,0,3.2-0.399,8.7l-4.15,0.8l-2.7-3.1l2.9-1.5h-7.4l-3.75-7.25v-3.75l3.3,2.35
					L-200.544,5.402z M-217.344-2.748l2.95,4.5l-1.5,2.55l1.5,1.1l2,0.2l1.899-1.4l2,3.5l-3.149,7.25l-5.75-0.25l-8.3,4.75
					l-5.15-2.65l8-3.5l-2.9-0.55l-2.199,1.3l-1.051-2.05l-1.35,2.1l-3.4,0.4l-2.5-1.45l-0.35-1.65l2.05-7.4l2.9-3.75l4.25,2.9
					l4.75,4.95l4.399,1.65l0.9-2.25l-2.7-3.55l2.25-0.3l-1.899-3.05L-217.344-2.748z M-228.194,32.002l5.6,1.1l4.1-1.25l3.2,8.5
					l1.4,0.2l-1.601-11.3l3.851,0.3l3.5,3.1l0.899,8l2.351,7.65l3.95,3.1l2.699,1.45l-0.399,3.4l-4,0.3l0.95,2.55
					c1.933,1.2,2.683,1.816,2.25,1.85c-0.4,0.033-3.051,0.533-7.95,1.5l-4.25-3.6l-5,2.65l-9.65,2.15l-4.05-5.05l-4.85-1.45
					l-2.801-2.75l6.75-2.8l7.2,0.25l0.2-1.3l-9.9-1.55l-6.199-0.5l2.449-3.2l4.851-1.85l-0.8-0.5l-4.95,0.8l-2.601-2.25l2.75-8.85
					l7.9-4.3L-228.194,32.002z M-211.894,25.353l3.25-0.3l2.35,1.3v3.4l-1.35,2.1c-0.4-0.2-0.816-0.417-1.25-0.65
					c-0.834-0.434-1.267-0.684-1.3-0.75c-0.034-0.133-0.767-1.083-2.2-2.85L-211.894,25.353z M-201.894,30.103l4.399,2.45
					c1.034-0.9,1.4-1.383,1.101-1.45c-0.134-0.067-0.684-0.633-1.65-1.7l-1.35-1.6l2.3-3.45l3.3,0.9l1.7-2.95h1.9l1.8,2.9
					l-2.851,4.35l-1.399,1.65l2.45,0.6l2.35,2.45l-0.7,4.8l-3,4.7l-2.35-0.35l-4.05-5.35l-5.301-5.5L-201.894,30.103z
					 M-18.044,82.103c-0.166-0.033-0.333-0.217-0.5-0.55l-0.149-0.45l2.5-4.55l1.75-0.45l2.199,2.2l0.5,2.9l1.75-1.1l0.851-1.9
					l1.85,1.25l1.2-1.55l1.35,1l0.9-1.15l3.7-0.05l0.75-1.95l5.649,6.95l-0.399,3l-6,4.75l-4.3,1.75l-4.351-0.2l-2.75-1.75
					l-3.8,0.15l-0.05-0.9l3.55-1l-0.2-2.45l-2.6-0.6l-2.75,0.25l-1.65-0.8l2.75-0.55l1.7-0.55l0.25-1.35l-0.45-1.35
					C-16.694,81.802-17.778,82.136-18.044,82.103z M-91.644,152.402l2.05-1.25l3.5,8.9l-3.25,1.85l-1.05-2.699l-5.55-1.051
					l-4.15-1.65l4.95-10.699l1.25,4.15L-91.644,152.402z M-163.444,81.402l2.6-2.75l1.15,3.3l5.25,5.5l3.6,3l-2.25,1.75l-2.45-2.25
					h-3.3l-2.2,5.05l-1.649-1.25l-1.601-1.55l-1.899-0.35l1.199-1.9l1.551-3.3V81.402z M31.505,116.203
					c-0.033,0.133-0.649,1.283-1.85,3.45l4.3,0.6l-0.25,2.899l-2.35,3.101l0.3,2.3c2.767,1.667,4.217,2.566,4.35,2.7l1.851,3.899
					l1.149,3.551l2.051,1.049l1.5,1.201l-2.601,4.85l0.95,0.85l-2.85,0.701l-7.25,0.6l-1.101,1.699l-2.85,0.301l-0.101,0.699
					l-2.35-0.1l1.5-0.85l0.6-1.1l1.65-0.102l-0.45-1.75l3.45-0.199c-0.333-0.732-0.533-1.15-0.6-1.25
					c-0.134-0.066-1.467-0.217-4-0.449l0.199-1.5l1.65-0.551c0.2-0.066,0.233-1.033,0.1-2.9l-0.75-0.549l0.551-0.952l3.3-0.5
					c0-0.533,0-1.066,0-1.6c-0.033-1.066-0.084-1.6-0.15-1.6c-0.1,0-0.55-0.801-1.35-2.4l-2.95-0.699l-0.05-2l-2-0.851l-0.05-3.5
					l-1.4-1.101l-0.7-2.549l1.4-1.801l1.5-1.4l-0.25-1.75l1.55-0.65C30.089,116.002,31.54,116.069,31.505,116.203z M256.906-54.597
					l3.6-1.75l0.301-2.15l2.149-1.25l1.601,3.7l4.6,6.6h-2.7l0.65,4.351c-1.7,0.966-2.667,1.449-2.9,1.449h-2.35l-3.351,3.301
					l-2.35-3.051l-3.1-1.399l2.6-2.5l2.35-3.15l-2.1-0.649L256.906-54.597z M20.706,130.353l3.8,0.899l0.45,3.95l-1.75,2.25
					l-1.649,4.95l-5.551,2.801h-1.3v-2.65l1.601-1.5c0.1-0.033,0.316-0.982,0.649-2.85l-2.5,0.1l0.351-3.6
					c0-0.066,0.166-0.066,0.5,0c0.166,0.066,0.333,0.133,0.5,0.199l2.6-1.25l-0.55-1.549L20.706,130.353z M270.005-41.297l2.65,1.75
					l0.55,4l-0.95,3.45l-1.1,1.3l1.5,2.95l-0.8,2.35h-4.351c-0.833-1.1-1.333-1.65-1.5-1.65c-0.232,0-1.8-0.466-4.699-1.399
					l-1.7-3.15l-0.2-3.25l-0.95-1.75l2.25-2.149l0.4-2.2l6.75-1.5l0.7,3.149L270.005-41.297z M170.756-55.797l0.6-2.4l-2.2,0.2
					l-0.2-1.95l2.05-2.25l1.8-0.85l1.85-2l-0.35-2.55h3.85l-0.9,2.35l-1.5,2.3l1.3,2.05l2.6,1.551v1.949l2.45-0.3v1.75l-2.15,1.65
					l-1.3-0.601l-1.85,0.5h-1.65l1.45,2.051l-0.9,0.649l-2.6-1.5L170.756-55.797z M275.806-25.547l-0.25-1.2l0.399-4.05l1.8-1.95
					l2.351,0.85l-0.95,4.4l2.6-2.75l0.75,1.45c0.566,1.066,0.934,1.684,1.101,1.85c0.267,0.267,1.017,1.733,2.25,4.4l-1.851,2.8
					l-3.3,1.65h-2.55l-3.3,1.05l-0.75,1.4h-2.45l0.6-4.1l1-1.95c0.734-1.3,1.367-2.066,1.9-2.3
					C275.656-24.198,275.873-24.714,275.806-25.547z M258.356-38.948c0.333,0.167-0.184,0.816-1.55,1.95l-2.801,1.65l-1.35-0.801
					l1.25-0.85l-1.55-0.2l0.45-1.75l-1.45-2.35l2.649-0.65l2,1.45C257.339-39.531,258.123-39.014,258.356-38.948z M166.906-56.847
					l4.55,3.8l2.45,1.55c-0.2,0.967-0.5,1.4-0.9,1.3c-0.233,0-0.684-0.166-1.35-0.5l-0.9-0.399l0.45,1.25l-2.45-0.351l0.1-1.649
					l-1,0.85l-1.55,0.55l-1.15-1.6l2.35-1.2l-0.9-1.65L166.906-56.847z M184.156-53.047l-0.55,5.35l-2.75,1.45l-3.05-1.25l0.45-1.1
					l-1.35-2.2l2.5-1.75L184.156-53.047z M188.706-54.398v-1.75l1.25-1.649l2.05,0.95v4.399l-3.8,2l-2.15-0.95l-0.45-2.149
					L188.706-54.398z M188.556-63.998l-1.55-0.3l-4.45,0.85l2-2l1.7-1.25L188.556-63.998z M152.056-50.248l-1.25,1.3
					c-1,0.4-1.717,0.584-2.15,0.55c-0.233-0.066-0.7,0.101-1.4,0.5c-0.8,0.4-1.217,0.601-1.25,0.601c-0.133,0-0.367-0.3-0.7-0.9
					l-0.45-0.95l1.95,0.95l-0.2-2.6l3.8-2.25L152.056-50.248z M168.756-41.748l-0.2-1.9l0.8-1.449c0.5-0.967,0.816-1.45,0.95-1.45
					c0.2,0,1.317-0.967,3.35-2.9l2.3,1.851l0.65,2.55l-2.7,2.899l-3.15,0.75L168.756-41.748z M161.856-43.047l-1.55-1.25l1.55-1.55
					l1.95-0.2l0.95,2.45L161.856-43.047z M154.456-49.448l1.25-2.25l-0.45-1.35l1.65-1.55l2.9,4.199l-3.7,4.051l-1.15,2.5
					l0.85,0.699c0.633,0.5,1.1,0.767,1.4,0.801c0.5,0.1,0.3,0.85-0.6,2.25l-4.2-0.75l-0.35-2.2l-2.55,0.3
					c-0.133,0-0.434-0.5-0.9-1.5l-0.65-1.5l4.1-1L154.456-49.448z M164.006-48.398l-1.25-0.399l1.45-0.851l2.7,0.5l1.65,0.75
					l0.6,1.65l-3.5,1.65L164.006-48.398z M177.956-42.847l0.4,2.3l-2.4,0.899l0.45-1.149l-1.05-0.601
					c0.066-0.133,0.517-0.399,1.35-0.8C177.139-42.431,177.556-42.648,177.956-42.847z M-239.194-7.647
					c0.966-0.3,1.916-0.583,2.85-0.85l1.7-2.95l3.2,3.25l-2.101,2.45v4.45l-4.7,3.5l-1.699-1.85l-4.2,6.1l-3.75-0.6l-1.8-2.6
					l2.55-2.4c3.434-4.9,5.149-7.417,5.149-7.55C-241.995-6.797-241.061-7.114-239.194-7.647z M295.005,151.953l-6.25,0.049
					l-16.8,8.201l2.75,4.5v4.9l7.8,6.6l2.4,1.549l-2.15,1.801l-1.899,4.35l-0.5,4.15l9.25,4.449l8.8-0.949l-0.35-8.1l-4.45-4.4
					l3.899-2.301l4.25-0.398l-3.6-3.65l-5.85-2.951l-7-7.148l3.6-3.4l6.1-1.201V151.953z M375.856,13.252h-1.15l1.05,2.625
					L375.856,13.252z M386.056,25.302l4.55,5.85l0.899-3.65l-6.1-4.45h-8.8l-0.9-6.25l0.05-0.9l-4.3-1.45l-2.225,1.45
					c0.527,3.147,0.978,5.897,1.35,8.25l0.825-0.55l1.85,2.25l1.2,2.25l-0.25,2.25l-1.25-0.9l-1.649-0.55
					c0.506,3.628,0.672,5.528,0.5,5.7c-0.268,0.367-3.417,3.617-9.45,9.75l8.8-2.4l7.9-8.35l-0.801-7.6L386.056,25.302z
					 M196.906,171.002l2.8,2.5l-5.8,4.701l10.9-4.451h7.15l25.75,2.451l13.601-4l-2-4.4l-13.15-8.35l2.4-2.551l1.45-5.5l-12.8,4.701
					v4.699l-8.1-0.6l-8.8-5.35L196.906,171.002z M187.231,9.177l-3.125,1.825l-0.7,0.725l2.7,0.425L187.231,9.177z M-236.594,3.953
					l-1.95,5.35l-2.7,0.2l-0.5-1.6l3.75-4.15L-236.594,3.953z M321.505,242.502c0.434,0.135,1.816,0.334,4.15,0.602l-1.25,5.799
					c-1.1,2.334-1.916,3.5-2.45,3.5l-1.45-1.049l-1.05-4.75c0.267-0.701,0.534-1.418,0.8-2.15
					C320.856,243.053,321.273,242.402,321.505,242.502z M-252.094,26.103c-0.333-1.067-0.616-2.117-0.85-3.15
					c-0.534-2.167-0.733-3.25-0.601-3.25l4.4-0.25l1.05-1c0.7-0.667,1.1-0.95,1.2-0.85l7,4.5l2-1.75l6.7,6.55l-3.2,2.85l-5.5,3.75
					l-0.75,1.6l-2.55,3.5l-1.4,5.15h-1.9l-3.75,2.25l-3.25-4.65l-3.1-3.3l2.4-5.25l0.6-3.7L-252.094,26.103z M325.656,252.402
					c0.166-0.1,0.733,0.066,1.7,0.5c0.466,0.201,0.917,0.418,1.35,0.65l1.05,1.75l1.851,1.65c0.966,2.033,1.3,3.066,1,3.1
					c-0.333,0.066-1.517-0.816-3.55-2.65l-0.5-1.699l-1.851-1.35l-2.2,1.049l-1.75,1.551l-1.25-1.051
					c0.434-0.1,1.217-0.684,2.351-1.75C325.023,253.02,325.623,252.436,325.656,252.402z M315.255,263.902l5.4-5.699v1.6l-4.3,3.949
					L315.255,263.902z M328.206,260.053l1.05,0.801c0.7,0.533,1.134,0.75,1.301,0.648c0.133-0.033,0.416-0.182,0.85-0.449
					c0.4-0.232,0.566-0.301,0.5-0.199c-1.5,1.932-2.35,2.898-2.55,2.898l-3.15,0.301c-0.167,0-0.483-0.25-0.95-0.75
					c-0.467-0.533-0.616-0.934-0.449-1.199c0.3-0.334,0.366-1.084,0.199-2.25l-0.6-1.352l1.25-0.75c0.066,0,0.517,0.385,1.35,1.15
					C327.406,259.303,327.806,259.686,328.206,260.053z M333.706,264.354c1.233,2.332,1.634,3.699,1.2,4.1
					c-0.5,0.533-1.2,1.133-2.1,1.799c-1.2,0.834-2.018,1.201-2.45,1.102c-0.4-0.068-1.034-0.533-1.9-1.4l-2.8-2.701l2.9-1.648
					L333.706,264.354z M385.206,301.402l-1.85,0.951l8.45,8l-1.4,0.6l-7.45-2.5l-2.05-2.85l-5.05-1.65l-0.75,3.4l-5.601-0.301
					l-0.449-1.449c-1.9-0.934-3.033-1.4-3.4-1.4c-0.233,0-0.517,0.299-0.85,0.9l-0.4,0.898l-1.75,0.4l-0.95-1.799l1.75-3
					l-0.399-2.65l-5.65-2.85h-6.05l-1.5-2.551l-2.9-2.551l-0.7-3.449l6.051,0.15l0.449,3.299l3.301,1.9l5.449-3.15l13.4,4.4
					L385.206,301.402z M324.206,329.203l1-2.6l2.55-2.051l2.801,1.25v-3.199l4.399-4.102l3.25,2.5l4.25,0.701l-0.35-1.701v-2.449
					l3.149-2.5l3.5-0.801l-0.649-2.049l3.399,0.949l8.101,0.951l-1.4,2.85l-2.85,4.15l10.7,6.6l2.649-0.15l1.65-4.65l0.95-11.299
					l1.5-0.951l3.05,9.1l3,0.9l3.05,10.1l3.95,2.301l2.75,5.5l3.05,0.949l1.6,3.051l3.65,3.699l1.25,6.75v5.5l-1.55,5.9l-2.65,4
					l-3.399,6.85l-0.4,6.451l-4.15-0.1l-2.449,1.75l-2.9,1.1l-2.25-2.25l-3.4,1.299l-4.649-0.799l-2.75-1.4l-0.45-3.551l-2.35-2.5
					h-1.45l0.5-3.25l-1.351,0.4l-1.649-1.549l0.25-3.301l-2.601,2.35l-0.399,2.5l-1.8,0.4l-0.7-3.301l-3.7-4l-3.8-1.35l-7.75,0.65
					l-7.3,1.65l-3.7,3.449l-10,1.1l-4.65,2.852l-5.25-2l-1.25-1.951l1.65-0.4l-0.55-7l-1.801-5.648l-3-6.201l1.95-2.199l-1.55-2.75
					l0.3-7l14.7-5.35L324.206,329.203z M333.005,305.303l3.551-0.301c0.266,0-0.15,0.467-1.25,1.4l-5.95,3.15l0.6-2.5
					L333.005,305.303z M305.755,301.703l-2.8,1l3.75,1.25c3.767,0.9,5.784,1.35,6.05,1.35l7.101-0.301l1.25,1.102l-5.75,0.699
					l-10.851-0.25l-7.449-1.15l-7.7-2.299l-3.851-1.951l1.801-0.949h4.8l0.55,1.4L305.755,301.703z M386.156,299.402l1.75-0.85
					l5.1-1.5l1.65-2.051l2.6,1.201c-0.166,0.566-0.399,1.117-0.699,1.65c-0.601,1.1-1.184,1.648-1.75,1.648
					c-0.334,0-1.601,0.201-3.801,0.602c-1.899,0.332-2.934,0.416-3.1,0.25c-0.166-0.168-0.5-0.367-1-0.602L386.156,299.402z
					 M-121.694,433.252l2.699,3.852l4.25,2.5l-4.949,1.5l-6.7,0.148l-1.65-1.648l-2.6-1l-7.3-7.65l1.55,0.25l3.399,3.449l3,1.65
					l3.45-1.4l0.25-2.299l1.25-1.25h2.351L-121.694,433.252z M-135.995,237.604l-2.25,0.75h-4.1l-1.5,0.25l0.45-1.65l-6.601-3.4
					l-6.3-0.15l-3,0.85v-1.6l1.851-1.449l4.05-1.051l4.45,1l2.25,1.551L-135.995,237.604z M-125.044,240.002l3.101,2.102l-13,0.398
					l-1.45-1.25l2.5-0.398l0.6-1.65h4.351L-125.044,240.002z M383.956,391.354l2.45-1l0.15,2.898l-0.95,3.602l-1.4,1.75l-2.5,1
					l-3.5-6.051l-0.45-3.6l2.601,1.1l2.6,1.65L383.956,391.354z"/>
			</g>
		</g>
		<g id="Layer_4_1_" clip-path="url(#SVGID_4_)">
		</g>
		<g id="Layer_3_1_" clip-path="url(#SVGID_4_)">
			<linearGradient id="SVGID_5_" gradientUnits="userSpaceOnUse" x1="424.2813" y1="49.2524" x2="424.2813" y2="-6.1476">
				<stop  offset="0.0078" style="stop-color:#FFFFFF;stop-opacity:0"/>
				<stop  offset="1" style="stop-color:#FFFFFF"/>
			</linearGradient>
			<path fill-rule="evenodd" clip-rule="evenodd" fill="url(#SVGID_5_)" d="M848.256-7.948c6.666,0,10,3.333,10,10v39
				c0,6.667-3.334,10-10,10H0.306c-6.667,0-10-3.333-10-10v-39c0-6.667,3.333-10,10-10H848.256z"/>
			
				<linearGradient id="SVGID_6_" gradientUnits="userSpaceOnUse" x1="424.2813" y1="-16419.252" x2="424.2813" y2="-16474.6523" gradientTransform="matrix(1 0 0 -1 4 -16184.4502)">
				<stop  offset="0.0078" style="stop-color:#FFFFFF;stop-opacity:0"/>
				<stop  offset="1" style="stop-color:#FFFFFF"/>
			</linearGradient>
			<path fill-rule="evenodd" clip-rule="evenodd" fill="url(#SVGID_6_)" d="M852.256,292.002c6.666,0,10-3.332,10-10v-39
				c0-6.666-3.334-10-10-10H4.306c-6.667,0-10,3.334-10,10v39c0,6.668,3.333,10,10,10H852.256z"/>
			
				<linearGradient id="SVGID_7_" gradientUnits="userSpaceOnUse" x1="-29437.8789" y1="-16389.6563" x2="-29437.8789" y2="-16445.0566" gradientTransform="matrix(0 -0.3802 -1 0 -15588.5996 -11044.8926)">
				<stop  offset="0.0078" style="stop-color:#FFFFFF;stop-opacity:0"/>
				<stop  offset="1" style="stop-color:#FFFFFF"/>
			</linearGradient>
			<path fill-rule="evenodd" clip-rule="evenodd" fill="url(#SVGID_7_)" d="M858.256-13.713c0-2.535-3.332-3.802-10-3.802h-39
				c-6.666,0-10,1.267-10,3.802V308.68c0,2.535,3.334,3.803,10,3.803h39c6.668,0,10-1.268,10-3.803V-13.713z"/>
			
				<linearGradient id="SVGID_8_" gradientUnits="userSpaceOnUse" x1="-29437.8789" y1="19.6553" x2="-29437.8789" y2="-35.7447" gradientTransform="matrix(0 -0.3802 1 0 27.8501 -11044.8926)">
				<stop  offset="0.0078" style="stop-color:#FFFFFF;stop-opacity:0"/>
				<stop  offset="1" style="stop-color:#FFFFFF"/>
			</linearGradient>
			<path fill-rule="evenodd" clip-rule="evenodd" fill="url(#SVGID_8_)" d="M-9.694-13.713c0-2.535,3.333-3.802,10-3.802h39
				c6.666,0,10,1.267,10,3.802V308.68c0,2.535-3.334,3.803-10,3.803h-39c-6.667,0-10-1.268-10-3.803V-13.713z"/>
		</g>
	</g>
	<g id="Layer_3_2_" clip-path="url(#SVGID_2_)">
		<linearGradient id="SVGID_9_" gradientUnits="userSpaceOnUse" x1="404.4492" y1="34.0298" x2="404.4492" y2="1.17">
			<stop  offset="0.0078" style="stop-color:#FFFFFF;stop-opacity:0"/>
			<stop  offset="1" style="stop-color:#FFFFFF"/>
		</linearGradient>
		<path fill-rule="evenodd" clip-rule="evenodd" fill="url(#SVGID_9_)" d="M828.424,0.102c6.668,0,10,1.977,10,5.931v23.133
			c0,3.954-3.332,5.931-10,5.931H-19.525c-6.667,0-10-1.977-10-5.931V6.033c0-3.954,3.333-5.931,10-5.931H828.424z"/>
		
			<linearGradient id="SVGID_10_" gradientUnits="userSpaceOnUse" x1="404.4492" y1="-16403.2969" x2="404.4492" y2="-16458.6973" gradientTransform="matrix(1 0 0 -1 4 -16184.4502)">
			<stop  offset="0.0078" style="stop-color:#FFFFFF;stop-opacity:0"/>
			<stop  offset="1" style="stop-color:#FFFFFF"/>
		</linearGradient>
		<path fill-rule="evenodd" clip-rule="evenodd" fill="url(#SVGID_10_)" d="M832.424,276.047c6.668,0,10-3.332,10-10v-39
			c0-6.666-3.332-10-10-10H-15.525c-6.667,0-10,3.334-10,10v39c0,6.668,3.333,10,10,10H832.424z"/>
		
			<linearGradient id="SVGID_11_" gradientUnits="userSpaceOnUse" x1="-29395.9141" y1="-16369.8252" x2="-29395.9141" y2="-16425.2246" gradientTransform="matrix(0 -0.3802 -1 0 -15588.5996 -11044.8926)">
			<stop  offset="0.0078" style="stop-color:#FFFFFF;stop-opacity:0"/>
			<stop  offset="1" style="stop-color:#FFFFFF"/>
		</linearGradient>
		<path fill-rule="evenodd" clip-rule="evenodd" fill="url(#SVGID_11_)" d="M838.426-29.668c0-2.535-3.334-3.802-10-3.802h-39
			c-6.668,0-10,1.267-10,3.802v322.393c0,2.535,3.332,3.803,10,3.803h39c6.666,0,10-1.268,10-3.803V-29.668z"/>
		
			<linearGradient id="SVGID_12_" gradientUnits="userSpaceOnUse" x1="-29395.9141" y1="-0.1758" x2="-29395.9141" y2="-55.5758" gradientTransform="matrix(0 -0.3802 1 0 27.8501 -11044.8926)">
			<stop  offset="0.0078" style="stop-color:#FFFFFF;stop-opacity:0"/>
			<stop  offset="1" style="stop-color:#FFFFFF"/>
		</linearGradient>
		<path fill-rule="evenodd" clip-rule="evenodd" fill="url(#SVGID_12_)" d="M-29.525-29.668c0-2.535,3.333-3.802,10-3.802h39
			c6.666,0,10,1.267,10,3.802v322.393c0,2.535-3.334,3.803-10,3.803h-39c-6.667,0-10-1.268-10-3.803V-29.668z"/>
	</g>
	
		<rect x="-16.043" y="-14.898" clip-path="url(#SVGID_2_)" fill-rule="evenodd" clip-rule="evenodd" fill="#FFFFFF" width="21.5" height="128.776"/>
	
		<rect x="-29.525" y="265.5" clip-path="url(#SVGID_2_)" fill-rule="evenodd" clip-rule="evenodd" fill="#FFFFFF" width="869.982" height="31.027"/>
	<g clip-path="url(#SVGID_2_)">
		
			<use xlink:href="#Duplicate_Items_Folder_x2F_карта"  width="-32766" height="-32766" id="XMLID_2_" x="16383" y="16383" transform="matrix(1 0 0 -1 428.207 188.3027)" overflow="visible"/>
	</g>
</g>
</svg>
