<?xml version="1.0" encoding="utf-8"?>
<!-- Generator: Adobe Illustrator 15.1.0, SVG Export Plug-In . SVG Version: 6.00 Build 0)  -->
<!DOCTYPE svg PUBLIC "-//W3C//DTD SVG 1.1//EN" "http://www.w3.org/Graphics/SVG/1.1/DTD/svg11.dtd">
<svg version="1.1" xmlns="http://www.w3.org/2000/svg" xmlns:xlink="http://www.w3.org/1999/xlink" x="0px" y="0px"
	 width="878.956px" height="292.485px" viewBox="0 0 878.956 292.485" enable-background="new 0 0 878.956 292.485"
	 xml:space="preserve">
<symbol  id="_x31_3" viewBox="0 -210.35 651.345 210.35">
	<g id="Layer_1_4_">
		<g>
			<g>
				<path fill-rule="evenodd" clip-rule="evenodd" fill="#5487A8" d="M21.1-79.15l-0.65,1.95l1.85,3.25l74.25,20.8l4.45-1.9
					l14.7-40.55v-4.15l-5.15-1.8L95.8-61l-0.85,0.4l-3.3,1.35L21.1-79.15z M147.6-167.551l-1.95-8.1l-93.2-34.699l-10.7,4.25
					L0-86.15l5.65,8.4l41.1-118l10.7-4.301L147.6-167.551z"/>
				<path fill-rule="evenodd" clip-rule="evenodd" fill="#9CBACD" d="M110.55-101.55l5.15,1.8v4.15L101-55.05l-4.45,1.9L22.3-73.95
					l-1.85-3.25l0.65-1.95L22.35-83l13.45-40l3.55-1.2L110.55-101.55z M120-118.65l-4.4,12.8l-13.25-4.55l4.2-12.55L120-118.65z
					 M94.6-112.5l-13.25-4.301l4.5-12.449l12.9,4.5L94.6-112.5z M147.6-167.551l-90.15-32.5l-10.7,4.301l-41.1,118L12.2-68l86,23.1
					l11.85-4.6L148.4-162L147.6-167.551z M122.7-125.051l-14.05-4.549l11.9-32.25L134.7-157L122.7-125.051z M107.95-151.45
					l-12.7-4.601l4.45-12.6l12.95,4.6L107.95-151.45z M88.65-135.7l4.5-13.05l12.95,4.199l-4.15,13.15L88.65-135.7z M64.9-136.051
					l12.9,4.5l-4.1,12.25L60.4-123.6L64.9-136.051z M67.75-142.5l4.5-13.051l12.9,4.201L81-138.2L67.75-142.5z M74.55-162.85
					L79-176.2l13.5,4.8l-4.7,13.15L74.55-162.85z M67.25-165.35L53.95-170l4.45-13.301l13.5,4.75L67.25-165.35z M53.1-126.45
					l-13.25-4.25l4.5-12.5l12.9,4.5L53.1-126.45z M51.65-162.7l12.9,4.25l-4.1,13.101l-13.3-4.25L51.65-162.7z"/>
				<polygon fill-rule="evenodd" clip-rule="evenodd" fill="#999999" points="94.1,-62.6 23.9,-82.45 22.35,-83 21.1,-79.15 
					91.65,-59.25 94.95,-60.6 				"/>
				<path fill-rule="evenodd" clip-rule="evenodd" fill="#FFFFFF" d="M110.55-101.55l-71.2-22.65L35.8-123L22.35-83l1.55,0.55
					l3.15-8.75L96.8-70.3l-2.7,7.7l0.85,2L95.8-61L110.55-101.55z M98.95-80.05V-80l-0.05,0.05l-0.05,0.1l-0.7,1.95
					c-0.1,0.367-0.3,0.633-0.6,0.8c-0.533,0.367-1.467,0.717-2.8,1.05c-1.466,0.4-3.05,0.284-4.75-0.35
					c-1.767-0.633-2.917-1.4-3.45-2.3l0.05,0.1c-0.5-0.6-0.883-1.083-1.15-1.45c-0.167-0.2-0.267-0.433-0.3-0.7
					c-0.067-0.267-0.05-0.533,0.05-0.8l3.3-9.5c0-0.066,0.034-0.133,0.1-0.2v-0.05l1.25-3.6c0.067-0.233,0.217-0.45,0.45-0.65
					c0.133-0.133,0.316-0.25,0.55-0.35l1.7-0.5c0.066,0,0.15-0.017,0.25-0.05c1.633-0.233,3.383,0,5.25,0.7
					c3.2,1.267,4.733,3.05,4.6,5.35c0,0.2-0.034,0.383-0.1,0.55L98.95-80.05z M95.65-80.2l-5.1-6.9l-2.05,5.75
					c0.167,0.233,0.35,0.467,0.55,0.7c0.033,0.033,0.066,0.05,0.1,0.05c0.367,0.433,1.033,0.833,2,1.2c1,0.367,1.917,0.45,2.75,0.25
					c0.633-0.133,1.117-0.284,1.45-0.45L95.65-80.2z M92.6-93.05l-0.75,2.25l5.05,6.95l2.55-6.75c-0.233-0.867-1.1-1.583-2.6-2.15
					c-1.233-0.5-2.383-0.684-3.45-0.55h-0.1L92.6-93.05z"/>
				<polygon fill-rule="evenodd" clip-rule="evenodd" fill="#FEA601" points="23.9,-82.45 94.1,-62.6 96.8,-70.3 27.05,-91.2 				
					"/>
				<path fill-rule="evenodd" clip-rule="evenodd" fill="#0066FF" d="M98.9-79.95l0.05-0.1l3.6-9.8c0.066-0.167,0.1-0.35,0.1-0.55
					c0.133-2.3-1.4-4.083-4.6-5.35c-1.867-0.7-3.617-0.934-5.25-0.7c-0.1,0.033-0.184,0.05-0.25,0.05l-1.7,0.5
					c-0.233,0.1-0.417,0.216-0.55,0.35c-0.233,0.2-0.383,0.417-0.45,0.65l-1.25,3.6v0.05c-0.066,0.066-0.1,0.133-0.1,0.2l-3.3,9.5
					c-0.1,0.267-0.117,0.534-0.05,0.8c0.033,0.267,0.133,0.5,0.3,0.7c0.267,0.367,0.65,0.85,1.15,1.45l-0.05-0.1
					c0.533,0.9,1.683,1.667,3.45,2.3c1.7,0.633,3.284,0.75,4.75,0.35c1.333-0.333,2.267-0.683,2.8-1.05c0.3-0.167,0.5-0.433,0.6-0.8
					l0.7-1.95L98.9-79.95z M92.6-93.05l0.7-0.25h0.1c1.066-0.133,2.216,0.05,3.45,0.55c1.5,0.566,2.367,1.283,2.6,2.15l-2.55,6.75
					l-5.05-6.95L92.6-93.05z M95.65-80.2l-0.3,0.6c-0.333,0.167-0.816,0.317-1.45,0.45c-0.833,0.2-1.75,0.117-2.75-0.25
					c-0.967-0.367-1.633-0.767-2-1.2c-0.034,0-0.067-0.017-0.1-0.05c-0.2-0.233-0.383-0.467-0.55-0.7l2.05-5.75L95.65-80.2z
					 M67.25-165.35l4.65-13.201l-13.5-4.75L53.95-170L67.25-165.35z M74.55-162.85l13.25,4.6l4.7-13.15L79-176.2L74.55-162.85z
					 M53.1-126.45l4.15-12.25l-12.9-4.5l-4.5,12.5L53.1-126.45z M51.65-162.7l-4.5,13.101l13.3,4.25l4.1-13.101L51.65-162.7z"/>
				<polygon fill-rule="evenodd" clip-rule="evenodd" fill="#336699" points="98.9,-79.95 98.95,-80 98.95,-80.05 				"/>
				<path fill-rule="evenodd" clip-rule="evenodd" fill="#006699" d="M94.6-112.5l4.15-12.25l-12.9-4.5l-4.5,12.449L94.6-112.5z
					 M120-118.65l-13.45-4.3l-4.2,12.55l13.25,4.55L120-118.65z M88.65-135.7l13.3,4.3l4.15-13.15l-12.95-4.199L88.65-135.7z
					 M107.95-151.45l4.7-12.601l-12.95-4.6l-4.45,12.6L107.95-151.45z M64.9-136.051L60.4-123.6l13.3,4.299l4.1-12.25L64.9-136.051z
					 M67.75-142.5L81-138.2l4.15-13.149l-12.9-4.201L67.75-142.5z"/>
				<polygon fill-rule="evenodd" clip-rule="evenodd" fill="#FF6600" points="122.7,-125.051 134.7,-157 120.55,-161.85 
					108.65,-129.6 				"/>
			</g>
			<g>
				<g>
					<g>
						<path fill-rule="evenodd" clip-rule="evenodd" fill="#FEA601" d="M397.85-161.75l-21.1-18.15L270-55.95l21.1,18.15
							L397.85-161.75z M376.551-159.95c-0.201-0.3-0.367-0.601-0.5-0.899c0.166-1.367,0.699-2.584,1.6-3.65
							c1.199-1.367,2.699-2.117,4.5-2.25c1.867-0.167,3.482,0.35,4.85,1.55c0.834,0.7,1.434,1.533,1.801,2.5
							c0.232,0.634,0.383,1.317,0.449,2.05c0.133,1.834-0.4,3.434-1.6,4.801c-1.2,1.366-2.7,2.133-4.5,2.299
							c-1.801,0.134-3.4-0.399-4.801-1.6c-1.366-1.199-2.133-2.699-2.299-4.5L376.551-159.95z"/>
						<path fill-rule="evenodd" clip-rule="evenodd" fill="#C98301" d="M376.75-179.9l21.1,18.15l-0.6-4.95l-26.4-22.8L264.1-65.5
							l0.55,4.9L371.4-184.551L376.75-179.9z M388.801-162.7c-0.134,1.333-0.668,2.533-1.601,3.601
							c-1.167,1.399-2.667,2.166-4.5,2.299c-1.833,0.101-3.433-0.433-4.8-1.6c-0.566-0.467-1.018-0.982-1.35-1.55l-0.5,0.3
							c0.166,1.801,0.933,3.301,2.299,4.5c1.4,1.2,3,1.733,4.801,1.6c1.8-0.166,3.3-0.933,4.5-2.299
							c1.199-1.367,1.732-2.967,1.6-4.801C389.184-161.383,389.033-162.066,388.801-162.7z"/>
						<polygon fill-rule="evenodd" clip-rule="evenodd" fill="#FEC965" points="270,-55.95 376.75,-179.9 371.4,-184.551 
							264.65,-60.6 						"/>
					</g>
					<g>
						<path fill-rule="evenodd" clip-rule="evenodd" fill="#333333" d="M281.6-66.35l4.7,4.05c0.267,0.2,0.566,0.3,0.9,0.3
							c0.3-0.033,0.567-0.184,0.8-0.45c0.2-0.233,0.3-0.517,0.3-0.85c-0.033-0.3-0.167-0.566-0.4-0.8l-4.7-4.05l6.15-7.15l6.95,6
							c0.267,0.233,0.583,0.317,0.95,0.25c0.267,0,0.517-0.133,0.75-0.4c0.233-0.233,0.35-0.517,0.35-0.85
							c-0.066-0.333-0.217-0.6-0.45-0.8l-7-6.05l6.4-7.4l4.95,4.25c0.233,0.233,0.534,0.333,0.9,0.3c0.3-0.033,0.566-0.167,0.8-0.4
							c0.2-0.267,0.3-0.567,0.3-0.9c-0.033-0.3-0.183-0.566-0.45-0.8l-4.95-4.25L306-94.7l6.75,5.75
							c0.233,0.233,0.534,0.333,0.9,0.3c0.333,0,0.6-0.133,0.8-0.4c0.233-0.233,0.333-0.517,0.3-0.85
							c-0.033-0.333-0.183-0.6-0.45-0.8l-6.7-5.8l7-8.2l4.7,4.05c0.267,0.233,0.566,0.333,0.9,0.3s0.6-0.167,0.8-0.4
							c0.034-0.033,0.05-0.067,0.05-0.1h0.05c0.233-0.267,0.333-0.567,0.3-0.9c-0.034-0.333-0.167-0.617-0.4-0.85l-4.7-4l6.05-7.051
							l6.951,6c0.266,0.233,0.582,0.334,0.949,0.301c0.301,0,0.551-0.134,0.75-0.4c0.233-0.233,0.35-0.517,0.35-0.85
							c-0.066-0.334-0.217-0.601-0.449-0.801l-7-6.05l6.4-7.399l4.949,4.25c0.233,0.232,0.533,0.316,0.9,0.25
							c0.333,0,0.6-0.117,0.8-0.351c0.2-0.267,0.3-0.566,0.3-0.899c-0.033-0.301-0.184-0.567-0.449-0.801l-4.951-4.25l7.201-8.35
							l6.699,5.75c0.268,0.233,0.566,0.333,0.9,0.3c0.333,0,0.6-0.134,0.8-0.399c0.233-0.234,0.333-0.533,0.3-0.9
							c-0.033-0.301-0.184-0.551-0.449-0.75l-6.701-5.801l7.15-8.35l4.7,4.051c0.267,0.232,0.55,0.333,0.851,0.299
							c0.332-0.033,0.616-0.166,0.85-0.399c0.199-0.267,0.3-0.55,0.3-0.851c-0.067-0.332-0.217-0.616-0.45-0.85l-4.699-4
							l4.449-5.199c0.2-0.268,0.301-0.551,0.301-0.851c-0.033-0.333-0.168-0.616-0.4-0.851c-0.233-0.199-0.518-0.283-0.85-0.25
							c-0.367,0-0.65,0.134-0.851,0.4l-75.3,87.45c-0.233,0.233-0.333,0.533-0.3,0.9c0.033,0.3,0.167,0.55,0.4,0.75
							c0.267,0.233,0.55,0.333,0.85,0.3c0.333-0.033,0.617-0.167,0.85-0.4L281.6-66.35z"/>
					</g>
				</g>
				<g>
					<path fill-rule="evenodd" clip-rule="evenodd" fill="#92DADA" d="M394.551-72.95c0.799-0.5,0.116-3.717-2.051-9.65
						c-2.133-5.967-4.416-12.65-6.85-20.05c-7.133-21.667-15.867-39.083-26.2-52.25c-3.067-3.866-6.033-7.934-8.899-12.199
						c-0.867-1.301-2.918-4.417-6.15-9.351c-3.367-5.134-5.816-9.433-7.35-12.899L251.25-152.7c0.4,1.267,1.534,3.233,3.4,5.899
						c3.767,5.334,10.1,11.867,19,19.601c8.867,7.733,17.333,19.616,25.4,35.65c8.066,16.067,13.233,28.317,15.5,36.75
						C367.084-66.367,393.75-72.417,394.551-72.95z M380.801-87.6c1.766,4.933,2.332,7.633,1.699,8.1
						c-0.666,0.4-22.783,5.4-66.35,15c-1.867-6.967-6.15-17.117-12.85-30.45c-6.667-13.3-13.684-23.167-21.05-29.601
						c-7.367-6.399-12.6-11.799-15.7-16.199c-1.567-2.2-2.517-3.816-2.85-4.85l71.101-30.4c1.266,2.867,3.299,6.416,6.1,10.65
						c2.666,4.1,4.367,6.683,5.1,7.75c2.4,3.533,4.85,6.916,7.35,10.149c8.601,10.899,15.851,25.333,21.75,43.3
						C377.133-98.017,379.033-92.5,380.801-87.6z"/>
					<path fill-rule="evenodd" clip-rule="evenodd" fill="#FFFFFF" d="M380.801-87.6c-1.768-4.9-3.668-10.417-5.701-16.55
						c-5.899-17.967-13.149-32.401-21.75-43.3c-2.5-3.233-4.949-6.616-7.35-10.149c-0.732-1.067-2.434-3.65-5.1-7.75
						c-2.801-4.234-4.834-7.783-6.1-10.65L263.7-145.6c0.333,1.033,1.283,2.649,2.85,4.85c3.1,4.4,8.333,9.8,15.7,16.199
						c7.367,6.434,14.383,16.301,21.05,29.601c6.7,13.333,10.983,23.483,12.85,30.45c43.566-9.6,65.684-14.6,66.35-15
						C383.133-79.967,382.566-82.667,380.801-87.6z"/>
					<g>
						<path fill-rule="evenodd" clip-rule="evenodd" fill="#0066FF" d="M357.6-67.5L373.9-83.8l-3.7-3.75L346-99.6
							c-1-0.5-1.8-0.733-2.4-0.7c-0.533,0.1-1.016,0.367-1.449,0.8c-0.533,0.533-0.801,1.15-0.801,1.85
							c0,0.767,0.234,1.383,0.701,1.85c0.232,0.267,0.75,0.6,1.549,1l22.65,11.2l-8.6,8.55c-0.801-0.667-1.518-1-2.15-1
							c-0.666,0-1.267,0.284-1.8,0.85c-0.567,0.567-0.833,1.2-0.8,1.9c0,0.733,0.449,1.55,1.35,2.45L357.6-67.5z"/>
						<g>
							<path fill-rule="evenodd" clip-rule="evenodd" fill="#0066FF" d="M315.55-136.35l11.35,6.949l9.449-35.4l5.75,1.551
								c1.334,0.367,2.4,0.316,3.201-0.15c0.699-0.434,1.166-1.15,1.399-2.15c0.3-0.899,0.25-1.75-0.149-2.549
								c-0.467-0.734-1.384-1.283-2.75-1.65l-17.201-4.6c-1.367-0.367-2.417-0.334-3.15,0.1c-0.733,0.467-1.233,1.166-1.5,2.1
								c-0.267,0.967-0.183,1.816,0.25,2.551c0.433,0.766,1.317,1.333,2.65,1.699l5.8,1.551l-7.2,27l-4.7-2.951
								c-0.733-0.466-1.316-0.75-1.75-0.85c-0.7-0.199-1.417-0.033-2.15,0.5c-0.7,0.5-1.167,1.217-1.4,2.15
								c-0.267,0.867-0.267,1.6,0,2.199C313.717-137.7,314.417-137.051,315.55-136.35z"/>
						</g>
						<g>
							<path fill-rule="evenodd" clip-rule="evenodd" fill="#0066FF" d="M305.4-110.4c0.566,0.334,1.2,0.417,1.9,0.25
								c0.467-0.1,0.9-0.366,1.3-0.8c0.567-0.7,1.15-1.2,1.75-1.5c0.9-0.5,2.184-0.983,3.85-1.45c2.867-0.767,5.033-0.934,6.5-0.5
								c1.5,0.4,2.417,1.283,2.75,2.65c0.3,1,0.2,2.066-0.3,3.199c-0.5,1.134-1.284,2.134-2.35,3c-0.667,0.434-1.85,0.95-3.55,1.55
								c-0.8,0.233-1.35,0.633-1.65,1.2c-0.333,0.6-0.417,1.233-0.25,1.9c0.2,0.733,0.6,1.25,1.2,1.55c0.566,0.4,1.233,0.483,2,0.25
								c1.633-0.433,2.533-0.65,2.7-0.65c0.633-0.1,1.3-0.067,2,0.1c0.733,0.167,1.4,0.517,2,1.05c0.534,0.5,0.9,1.083,1.1,1.75
								c0.3,1.033,0.067,2.05-0.7,3.05c-0.7,1-1.983,1.75-3.85,2.25c-2.333,0.633-4.317,0.45-5.95-0.55
								c-0.467-0.333-0.833-0.517-1.1-0.55c-0.367-0.1-0.75-0.083-1.15,0.05c-0.7,0.167-1.233,0.55-1.6,1.15
								c-0.333,0.633-0.4,1.283-0.2,1.95c0.267,1.133,1.283,2,3.05,2.6c2.533,0.966,5.4,1.017,8.6,0.15
								c3.067-0.833,5.3-2.35,6.7-4.55c1.367-2.2,1.732-4.533,1.1-7c-0.367-1.233-0.949-2.333-1.75-3.3
								c-0.867-0.933-1.982-1.733-3.35-2.4c1.232-1.367,2.033-2.801,2.4-4.301c0.366-1.466,0.332-3.016-0.101-4.649
								c-0.433-1.733-1.351-3.217-2.75-4.45c-1.333-1.232-3.033-1.982-5.1-2.25c-1.967-0.267-4.417-0.017-7.35,0.75
								c-3.8,1.033-6.5,2.384-8.1,4.051c-0.867,0.967-1.184,1.916-0.95,2.85C304.4-111.301,304.8-110.767,305.4-110.4z"/>
						</g>
					</g>
				</g>
				<g>
					<path fill-rule="evenodd" clip-rule="evenodd" fill="#333333" d="M300.15-178.45l-3.05-1.75l0.15,0.05
						c0.1-0.033,0.2-0.1,0.3-0.199c1.733-1.134,3.217-2.367,4.45-3.701c0.1-0.133,0.217-0.283,0.35-0.449l3.15,1.75
						c0.133,0.1,0.267,0.117,0.4,0.05c0.1-0.033,0.2-0.101,0.3-0.2c0.033-0.133,0.033-0.267,0-0.4c0-0.1-0.067-0.199-0.2-0.299
						l-3.05-1.65c1.133-1.434,2-2.9,2.6-4.4c0.033-0.1,0.066-0.184,0.1-0.25c0-0.033,0-0.066,0-0.1v-0.051
						c0-0.033-0.017-0.049-0.05-0.049s-0.05,0.016-0.05,0.049c-0.033,0.034-0.05,0.067-0.05,0.101c0,0.067-0.017,0.134-0.05,0.2
						l-0.1-0.051c0-0.066,0.017-0.149,0.05-0.25l0.05-0.049c0-0.033,0-0.067,0-0.101l-0.05-0.05h-0.05v0.05l-0.05,0.101
						c-0.033,0.1-0.067,0.166-0.1,0.199c-0.6,1.6-1.433,3.1-2.5,4.5c-0.133-0.066-0.267-0.083-0.4-0.05s-0.233,0.101-0.3,0.2
						c-0.066,0.166-0.083,0.3-0.05,0.4c0,0.066,0.033,0.133,0.1,0.199c-1.4,1.566-3.133,3-5.2,4.301l-0.05-0.051
						c-0.133-0.066-0.267-0.083-0.4-0.05c-0.133,0.067-0.25,0.149-0.35,0.25c-0.067,0.101-0.067,0.217,0,0.351v0.049
						c-1.733,1.034-3.684,1.984-5.85,2.851l-0.05-0.05c-0.133-0.033-0.25-0.033-0.35,0c-0.167,0.033-0.267,0.117-0.3,0.25
						c-0.033,0.033-0.05,0.083-0.05,0.15c-1.6,0.633-3.317,1.199-5.15,1.699h0.65c-0.167,0.066-0.317,0.117-0.45,0.15
						c0.167-0.033,0.333-0.084,0.5-0.15c0.2-0.033,0.417-0.083,0.65-0.15c1.367-0.366,2.65-0.766,3.85-1.199
						c0.034,0.1,0.1,0.15,0.2,0.15l3.25,1.75c0.133,0.1,0.267,0.116,0.4,0.049c0.133-0.033,0.233-0.1,0.3-0.199
						c0.033-0.133,0.05-0.267,0.05-0.4c-0.067-0.1-0.15-0.199-0.25-0.3l-2.85-1.5c2.067-0.866,3.934-1.8,5.6-2.8l3.4,1.9
						c0.133,0.1,0.283,0.116,0.45,0.049c0.1-0.033,0.183-0.1,0.25-0.199c0.1-0.133,0.133-0.267,0.1-0.4
						C300.333-178.283,300.25-178.383,300.15-178.45z M307.4-134.4l-3.65-1.25l-7.25-2.449c0.4-2.268,0.6-4.817,0.6-7.65
						c0-10.434-3.05-18.783-9.15-25.051c-0.867-0.866-1.767-1.666-2.7-2.399c-0.566-0.467-1.433-1.083-2.6-1.851
						c-0.767-0.466-1.55-0.866-2.35-1.199c-0.1-0.066-0.2-0.133-0.3-0.2l-2.05-0.75c-3.7-1.134-7.683-1.3-11.95-0.5
						c-8.033,1.5-14.95,5.983-20.75,13.45l0.15,0.15c5.1-6.101,11.083-9.801,17.95-11.101c3.934-0.733,7.583-0.583,10.95,0.45
						c0.033,0,1.15,0.566,3.35,1.699c2.5,1.367,4.45,2.768,5.85,4.201c5.567,5.732,8.35,13.366,8.35,22.899
						s-2.783,18.184-8.35,25.95c-5.5,7.733-12.117,12.35-19.85,13.85c-1.733,0.3-3,0.45-3.8,0.45l-8-1.05
						c-3.133-1.1-6.017-3-8.65-5.7c-5.3-5.467-8.067-12.7-8.3-21.7c0,10.4,3.033,18.717,9.1,24.95c2.867,2.934,6.017,5,9.45,6.2
						l8.7,1.2c0.867-0.033,2.25-0.2,4.15-0.5c8.433-1.667,15.65-6.7,21.65-15.1c1.667-2.333,3.117-4.75,4.35-7.25
						c0.767-1.566,1.433-3.15,2-4.75l0.7-2.1l17.8,5.8l3.1-3l-4.15-4.25l-0.7-0.25L307.4-134.4z M260.05-120
						c0.033-0.033,0.1-0.066,0.2-0.1c4.733-0.9,8.767-3.717,12.1-8.451c3.434-4.732,5.15-10.033,5.15-15.899
						c0-5.8-1.716-10.467-5.15-14c-0.467-0.5-0.967-0.95-1.5-1.351c-0.867-0.699-1.8-1.266-2.8-1.699
						c-0.067-0.033-0.117-0.066-0.15-0.1c-0.333-0.134-0.667-0.25-1-0.351c-0.067-0.033-0.117-0.066-0.15-0.101
						c-2.066-0.633-4.3-0.732-6.7-0.299c-4.8,0.933-8.9,3.766-12.3,8.5c-3.433,4.799-5.15,10.1-5.15,15.899
						c0,5.866,1.717,10.533,5.15,14c1.6,1.667,3.367,2.833,5.3,3.5l4.85,0.649C258.6-119.834,259.317-119.9,260.05-120z"/>
					<path fill-rule="evenodd" clip-rule="evenodd" fill="#FF9900" d="M306.8-120.65l-14.5-4c-1.233,2.5-2.684,4.917-4.35,7.25
						c-6,8.4-13.217,13.434-21.65,15.1c-1.9,0.3-3.283,0.467-4.15,0.5c8.466,1.167,13.133,1.75,14,1.75
						c1.466,0.034,2.95-0.066,4.45-0.3c8.6-1.2,15.934-5.783,22-13.75C304.2-116.233,305.6-118.417,306.8-120.65z M297.1-169.85
						l-2.95-1.15c11.267,7.533,15.683,19.733,13.25,36.6l3.65,1.2c0.433-2.566,0.65-5.2,0.65-7.899c0-10-3.033-18.134-9.1-24.4
						c-1.7-1.667-3.467-3.084-5.3-4.25C297.233-169.783,297.167-169.816,297.1-169.85z M280.3-176.301v0.051
						c0.8,0.333,1.583,0.733,2.35,1.199l0.15-0.299L280.3-176.301z"/>
					<path fill-rule="evenodd" clip-rule="evenodd" fill="#FEA601" d="M234.9-134.15c0.233,9,3,16.233,8.3,21.7
						c2.633,2.7,5.517,4.601,8.65,5.7l8,1.05c0.8,0,2.067-0.15,3.8-0.45c7.733-1.5,14.35-6.116,19.85-13.85
						c5.567-7.767,8.35-16.417,8.35-25.95s-2.783-17.167-8.35-22.899c-1.4-1.434-3.35-2.834-5.85-4.201
						c-2.2-1.133-3.317-1.699-3.35-1.699c-3.367-1.033-7.017-1.184-10.95-0.45c-6.867,1.3-12.85,5-17.95,11.101l-0.15-0.15l-2.1,2.9
						c-0.6,0.866-1.167,1.75-1.7,2.649c-4.2,7.167-6.383,14.967-6.55,23.399V-134.15z M260.05-120c-0.733,0.1-1.45,0.166-2.15,0.199
						l-4.85-0.649c-1.934-0.667-3.7-1.833-5.3-3.5c-3.433-3.467-5.15-8.134-5.15-14c0-5.8,1.717-11.101,5.15-15.899
						c3.4-4.734,7.5-7.567,12.3-8.5c2.4-0.434,4.633-0.334,6.7,0.299c0.034,0.034,0.083,0.067,0.15,0.101
						c0.333,0.101,0.667,0.217,1,0.351c0.033,0.033,0.083,0.066,0.15,0.1c1,0.434,1.933,1,2.8,1.699
						c0.533,0.4,1.033,0.851,1.5,1.351c3.434,3.533,5.15,8.2,5.15,14c0,5.866-1.716,11.167-5.15,15.899
						c-3.333,4.734-7.367,7.551-12.1,8.451C260.15-120.066,260.083-120.033,260.05-120z"/>
					<path fill-rule="evenodd" clip-rule="evenodd" fill="#666666" d="M312.8-125.7l-17.8-5.8l-0.7,2.1
						c-0.567,1.6-1.233,3.184-2,4.75l14.5,4h6V-125.7z M302.05-192.1l13.55,7.149l9.4-2.75l-15.5-9.101L302.05-192.1z"/>
					<path fill-rule="evenodd" clip-rule="evenodd" fill="#FFCC66" d="M307.4-134.4c2.433-16.866-1.983-29.066-13.25-36.6l2.95,1.15
						c10.9-3.301,17.067-8.334,18.5-15.101l-13.55-7.149c-2.533,7-9.883,12.217-22.05,15.649l0.3,0.149l2.5,0.951l-0.15,0.299
						c1.167,0.768,2.033,1.384,2.6,1.851c0.934,0.733,1.833,1.533,2.7,2.399c6.1,6.268,9.15,14.617,9.15,25.051
						c0,2.833-0.2,5.383-0.6,7.65l7.25,2.449L307.4-134.4z M300.15-178.45c0.1,0.067,0.183,0.167,0.25,0.3
						c0.033,0.134,0,0.268-0.1,0.4c-0.067,0.1-0.15,0.166-0.25,0.199c-0.167,0.067-0.317,0.051-0.45-0.049l-3.4-1.9
						c-1.667,1-3.533,1.934-5.6,2.8l2.85,1.5c0.1,0.101,0.183,0.2,0.25,0.3c0,0.134-0.017,0.268-0.05,0.4
						c-0.067,0.1-0.167,0.166-0.3,0.199c-0.133,0.067-0.267,0.051-0.4-0.049l-3.25-1.75c-0.1,0-0.167-0.051-0.2-0.15
						c-1.2,0.434-2.483,0.833-3.85,1.199c-0.233,0.067-0.45,0.117-0.65,0.15c-0.167,0.066-0.333,0.117-0.5,0.15
						c0.133-0.033,0.284-0.084,0.45-0.15h-0.65c1.833-0.5,3.55-1.066,5.15-1.699c0-0.067,0.017-0.117,0.05-0.15
						c0.034-0.133,0.133-0.217,0.3-0.25c0.1-0.033,0.217-0.033,0.35,0l0.05,0.05c2.167-0.866,4.117-1.816,5.85-2.851v-0.049
						c-0.067-0.134-0.067-0.25,0-0.351c0.1-0.101,0.217-0.183,0.35-0.25c0.133-0.033,0.267-0.017,0.4,0.05l0.05,0.051
						c2.067-1.301,3.8-2.734,5.2-4.301c-0.067-0.066-0.1-0.133-0.1-0.199c-0.033-0.101-0.017-0.234,0.05-0.4
						c0.067-0.1,0.167-0.167,0.3-0.2s0.267-0.017,0.4,0.05c1.067-1.4,1.9-2.9,2.5-4.5c0.033-0.033,0.067-0.1,0.1-0.199l0.05-0.101
						v-0.05h0.05l0.05,0.05c0,0.033,0,0.067,0,0.101l-0.05,0.049c-0.034,0.101-0.05,0.184-0.05,0.25l0.1,0.051
						c0.033-0.066,0.05-0.133,0.05-0.2c0-0.033,0.017-0.066,0.05-0.101c0-0.033,0.017-0.049,0.05-0.049s0.05,0.016,0.05,0.049V-190
						c0,0.033,0,0.066,0,0.1c-0.034,0.066-0.067,0.15-0.1,0.25c-0.6,1.5-1.467,2.967-2.6,4.4l3.05,1.65
						c0.133,0.1,0.2,0.199,0.2,0.299c0.033,0.134,0.033,0.268,0,0.4c-0.1,0.1-0.2,0.167-0.3,0.2c-0.133,0.067-0.267,0.05-0.4-0.05
						l-3.15-1.75c-0.133,0.166-0.25,0.316-0.35,0.449c-1.233,1.334-2.716,2.567-4.45,3.701c-0.1,0.1-0.2,0.166-0.3,0.199l-0.15-0.05
						L300.15-178.45z"/>
				</g>
			</g>
		</g>
		<g>
			<g>
				<polygon fill-rule="evenodd" clip-rule="evenodd" fill="#666666" points="194.2,-72.6 194.2,-141.6 179.2,-141.6 179.2,-72.6 
									"/>
				<polygon fill-rule="evenodd" clip-rule="evenodd" fill="#666666" points="152.2,-98.6 221.2,-98.6 221.2,-113.6 152.2,-113.6 
									"/>
			</g>
			<polygon fill-rule="evenodd" clip-rule="evenodd" fill="#666666" points="413.2,-88.55 482.2,-88.55 482.2,-103.55 
				413.2,-103.55 			"/>
			<polygon fill-rule="evenodd" clip-rule="evenodd" fill="#666666" points="413.2,-116.55 482.2,-116.55 482.2,-131.55 
				413.2,-131.55 			"/>
		</g>
		<g>
			<g>
				<g>
					<polygon fill-rule="evenodd" clip-rule="evenodd" fill="#FF6600" points="646.95,0 646.95,-191.051 602.1,-191.051 602.1,0 
											"/>
					<polygon fill-rule="evenodd" clip-rule="evenodd" fill="#66CCCC" points="508.15,-171.1 552.95,-171.1 552.95,-191.051 
						508.15,-191.051 					"/>
					<polygon fill-rule="evenodd" clip-rule="evenodd" fill="#0066FF" points="599.75,-191.051 554.9,-191.051 554.9,-146.65 
						599.75,-146.65 					"/>
				</g>
				<g>
					<g>
						<path fill-rule="evenodd" clip-rule="evenodd" fill="#333333" d="M530.551-110.2c-0.334,0.267-0.533,0.601-0.601,1
							c-0.033,0.134-0.05,0.25-0.05,0.351c6.133,0.333,10.533,1.383,13.199,3.149v-1.149c-0.766-0.4-1.732-0.834-2.899-1.301
							c-3-1.199-4.517-1.8-4.55-1.8l-4.051-0.55C531.2-110.533,530.85-110.434,530.551-110.2z M526.301-112.301
							c0.232-0.332,0.217-0.399-0.051-0.199c-0.333,0.166-1.816-0.934-4.449-3.301c-2.668-2.332-5.518-8.433-8.551-18.299h0.051
							c-0.801-2.567-1.75-4.701-2.851-6.4c-0.033-0.033-0.05-0.066-0.05-0.1c-0.1-0.134-0.217-0.301-0.35-0.5l0.049,0.149
							c-1.467-2.167-3.35-3.884-5.649-5.149c-0.233-0.101-0.483-0.15-0.75-0.15h-3.05c-0.367,0-0.7,0.117-1,0.35l-0.551,0.45v3.899
							l2.101-1.699h2.101c0.433,0.1,0.832,0.217,1.199,0.35c2.167,0.834,4.133,3.35,5.9,7.551c3.8,10.6,7.15,17.232,10.05,19.899
							c2.866,2.634,4.517,3.917,4.95,3.851C525.801-111.7,526.1-111.934,526.301-112.301z M577.65-78.9
							c-0.634-1-1.417-2.45-2.35-4.35c-2.168-4.1-4.567-7.25-7.201-9.45c-2.666-2.167-4.217-3.217-4.649-3.15
							c-0.399,0.067-0.717,0.267-0.95,0.6l-0.05,0.1c0.601,0.433,1.417,0.983,2.45,1.65c3.333,2.2,6.283,5.483,8.85,9.85
							c1.2,2.033,2.184,3.617,2.95,4.75H577.65z M599.801-29.1c-1.5-1.633-2.284-2.533-2.351-2.7c-0.101-0.233,0-0.466,0.3-0.7
							c-0.033,0.033,0,0.15,0.1,0.35C597.983-31.85,598.634-30.833,599.801-29.1z M636.65-21c5.666,3.9,8.717,6.4,9.15,7.5
							c0.466,1.1,1.016,2.4,1.649,3.9c0.5,1.3,0.649,2.4,0.45,3.3c-0.2,0.867-0.617,1.483-1.25,1.85v3.6
							c0.566,0.067,1.434-0.233,2.6-0.9c2.2-1.3,2.667-4.2,1.4-8.7c-1.134-4.1-4.184-7.833-9.15-11.2
							c-5.866-3.9-12.199-6.45-19-7.65c-6.566-1.167-13.316-0.983-20.25,0.55l-2.5-5.85c0.934-0.767,2.066-1.483,3.4-2.15l1-5.15
							c-1.6,0.9-2.634,1.517-3.1,1.85c-1.034,0.8-1.967,1.617-2.801,2.45L580.9-71.7c-0.334-0.1-0.65-0.117-0.95-0.05v0.35
							l16.55,36.45c-0.4,0.1-0.717,0.767-0.949,2c-0.268,1.233,0.716,2.583,2.949,4.05c-2.166-0.6-4.033-1.55-5.6-2.85
							c-0.334-0.267-0.6-0.5-0.801-0.7H585.4c2.733,1.9,4.733,3.15,6,3.75c1.233,0.6,3.866,1.383,7.9,2.35
							c-1.367,1.167-2.034,2.783-2,4.85c0.033,2.066,0.449,3.767,1.25,5.1c0.799,1.367,1.5,2.35,2.1,2.95
							c0.6,0.567,1.017,0.85,1.25,0.85v-3.65c-0.233-0.333-0.517-0.833-0.85-1.5c-0.334-0.667-0.534-1.65-0.601-2.95
							c-0.101-1.3,0.033-2.433,0.399-3.4c0.334-0.933,0.984-1.95,1.951-3.05c0.933-1.1,5.399-1.317,13.399-0.65
							C624.167-27.133,630.983-24.867,636.65-21z"/>
					</g>
					<g>
						<path fill-rule="evenodd" clip-rule="evenodd" fill="#333333" d="M560.801-49.5c2.899-3.067,4.5-6.117,4.799-9.15
							c0.234-3.034-0.717-5.784-2.85-8.25c-2.166-2.467-5.684-4.167-10.55-5.1c-0.101,0-0.2-0.017-0.3-0.05l-1.65-4.45
							c2.434,0.5,4.5-0.1,6.2-1.8c3.134-1.767,5.75-2.9,7.851-3.4c0.133-0.033,0.266-0.05,0.399-0.05
							c0.267-0.067,0.55-0.117,0.851-0.15l3.199,2.65l5.65,3.15l0.65,4.8l4.1,1h2.15c0.299-0.233,0.6-0.65,0.899-1.25l0.95-2.25
							l-0.65-3.9l-3.8-0.6L566.6-84.4c-3.033-0.9-6.516-0.233-10.449,2c0.8-2.133,0.867-4.067,0.199-5.8
							c0.101-0.433,0.434-1.117,1-2.05c0.567-0.934,1.533-1.7,2.9-2.3c1.334-0.6,2.5-1.2,3.5-1.8c0.4-0.333,0.801-0.667,1.2-1
							c1.366-1.167,2.2-2.55,2.5-4.15c0-0.067,0-0.133,0-0.2L580-94.3c2.767-0.033,5.117-1.316,7.051-3.85l5.449-3.9l5.7-3.05
							c-0.101,0.567-0.149,0.933-0.149,1.1l3.75,5.25c3.399,4.4,5.5,5.383,6.299,2.95c-0.166-5.4-1.916-10.766-5.25-16.1l-4.1-0.75
							l-16.1,14.05L580-99.8l0.801,0.45l-13.951-6.701c-0.633-1.433-1.582-2.75-2.85-3.949c-2.267-2.167-4.982-3.35-8.15-3.551
							l3.5-6.899v-1.601c-1-7.633-1.883-13.383-2.649-17.25l0.851,0.351c2.433,1.2,4.683,1.767,6.75,1.7
							c2.033-0.033,3.482-0.551,4.35-1.551v-1.799c-1.733-3-5.7-4.951-11.9-5.851l-6.199-1.601c-0.768-0.133-0.768,1.768,0,5.701
							c2.633,8,4.183,14.75,4.649,20.25l-9.351,11.6c-0.6,0.566-1.166,1.184-1.699,1.85c-0.566,0.733-1.066,1.483-1.5,2.25
							c-1.566,2.667-2.518,5.517-2.85,8.55c-0.4,4.267-0.234,8.333,0.5,12.2c-4.601-0.967-8.067-3.517-10.4-7.65
							c-2.334-4.167-3.066-8.216-2.2-12.15l1.8-0.851l1.6-1.25L531.4-109v-0.85l-2.301-3.75l-3.35-0.551l-0.55,0.9l0.75,0.75
							c-0.3-0.2-0.601-0.383-0.899-0.551L523.7-111.7c-0.333,0.267-0.634,0.583-0.899,0.95l-0.4,4.55l0.949,1.4
							c-0.033,4.8,0.967,9.117,3,12.95c2.033,3.8,6.084,6.95,12.15,9.45c0.2,0.433,0.633,1.033,1.301,1.8
							c0.666,0.7,1.832,1.383,3.5,2.05c0.1,0.067,0.199,0.1,0.299,0.1l2.851,6.35c-2.667,0.5-5.116,1.717-7.351,3.65
							c-3.866,3.333-5.717,6.95-5.549,10.85c0.199,3.9,1.85,7.067,4.949,9.5s6.85,3.567,11.25,3.4
							C554.15-44.833,557.834-46.434,560.801-49.5z"/>
					</g>
				</g>
			</g>
		</g>
	</g>
</symbol>
<g id="Layer_3" display="none">
	<rect x="-191.613" y="-291.595" display="inline" fill="#FFFFFF" width="1280" height="760"/>
</g>
<g id="Layer_1">
	<g>
		<g id="Layer_1_1_">
		</g>
		<g id="Layer_2">
		</g>
		<g id="Layer_4">
			
				<use xlink:href="#_x31_3"  width="651.345" height="210.35" id="XMLID_1_" y="-210.35" transform="matrix(1.3253 0 0 -1.3253 8.9634 7.3716)" overflow="visible"/>
		</g>
	</g>
</g>
<g id="Layer_2_1_">
	<text transform="matrix(0.9993 0 0 1 -154.4927 -188.4883)"><tspan x="0" y="0" font-family="'Consolas'" font-size="17">Первый принцип использования KPIs и PIs очень прост. Он означает, что показатель, который вы измеряете, всегда должен выражаться </tspan><tspan x="0" y="20.4" font-family="'Consolas'" font-size="17">в числах и единицах измерения (например, 7 шт. или 1000 кВт/ч). Если какой-то параметр невозможно измерить, то он не может быть </tspan><tspan x="0" y="40.8" font-family="'Consolas'" font-size="17">показателем KPI или PI.</tspan><tspan x="0" y="61.2" font-family="'Consolas'" font-size="17">Однако измеримость важна не сама по себе. Ценность количественных показателей в том, что это всегда объективные, а не </tspan><tspan x="0" y="81.6" font-family="'Consolas'" font-size="17">субъективные характеристики. Поэтому они необходимы, чтобы контролировать и улучшать результаты, исходя из конкретных цифр.</tspan></text>
</g>
</svg>
