<?xml version="1.0" encoding="utf-8"?>
<!-- Generator: Adobe Illustrator 15.1.0, SVG Export Plug-In . SVG Version: 6.00 Build 0)  -->
<!DOCTYPE svg PUBLIC "-//W3C//DTD SVG 1.1//EN" "http://www.w3.org/Graphics/SVG/1.1/DTD/svg11.dtd">
<svg version="1.1" id="Layer_1" xmlns="http://www.w3.org/2000/svg" xmlns:xlink="http://www.w3.org/1999/xlink" x="0px" y="0px"
	 width="691px" height="164.5px" viewBox="0 0 691 164.5" enable-background="new 0 0 691 164.5" xml:space="preserve">
<text transform="matrix(1.0391 0 0 1 -256.2058 488.6816)" display="none" fill="#231F20" enable-background="new    " font-family="'Consolas'" font-size="17">R – Responsible – сотрудник, ответственный за фактическое исполнение KPI.</text>
<rect x="3.225" y="3.568" fill="#FFE736" width="249.329" height="38.883"/>
<path fill="#F6921E" d="M689,79.052c0,22.118-50.472,40.045-112.732,40.045S463.529,101.17,463.529,79.052
	C463.529,56.934,514.006,39,576.267,39S689,56.934,689,79.052z"/>
<rect x="12.421" y="14.974" fill="none" width="217.28" height="37.693"/>
<g enable-background="new    ">
	<path fill="#231F20" d="M21.535,25.458l-0.108,3.595h-1.32v-2.35h-6.159v2.35h-1.32l-0.108-3.595h0.125
		c0.183,0,0.362-0.054,0.54-0.162c0.177-0.107,0.349-0.299,0.515-0.572c0.166-0.274,0.322-0.644,0.469-1.108
		c0.147-0.465,0.281-1.053,0.403-1.764s0.227-1.56,0.315-2.545c0.088-0.984,0.158-2.136,0.208-3.453h5.246v9.604H21.535z
		 M18.863,17.133h-2.399c-0.039,1.15-0.098,2.195-0.178,3.133c-0.081,0.938-0.186,1.76-0.315,2.466
		c-0.13,0.705-0.287,1.288-0.469,1.747s-0.398,0.786-0.647,0.979h4.009V17.133z"/>
	<path fill="#231F20" d="M30.351,22.47c0,0.647-0.091,1.241-0.274,1.78c-0.183,0.54-0.445,1.002-0.789,1.387
		s-0.761,0.684-1.253,0.896s-1.051,0.319-1.677,0.319c-0.598,0-1.133-0.093-1.606-0.278c-0.474-0.186-0.875-0.458-1.204-0.817
		c-0.329-0.359-0.581-0.806-0.755-1.337c-0.175-0.531-0.262-1.143-0.262-1.834c0-0.647,0.091-1.238,0.274-1.772
		s0.445-0.993,0.789-1.378s0.761-0.684,1.253-0.896s1.051-0.319,1.677-0.319c0.598,0,1.133,0.093,1.606,0.278
		c0.474,0.186,0.875,0.456,1.204,0.813c0.329,0.356,0.581,0.801,0.755,1.332C30.264,21.175,30.351,21.783,30.351,22.47z
		 M28.873,22.536c0-0.515-0.057-0.964-0.17-1.349c-0.114-0.385-0.275-0.706-0.486-0.963c-0.21-0.258-0.466-0.451-0.768-0.581
		c-0.301-0.13-0.638-0.195-1.008-0.195c-0.432,0-0.801,0.084-1.108,0.253c-0.308,0.169-0.559,0.395-0.756,0.677
		c-0.196,0.282-0.34,0.61-0.432,0.983c-0.091,0.374-0.137,0.766-0.137,1.175c0,0.515,0.057,0.966,0.17,1.353
		c0.114,0.388,0.275,0.71,0.486,0.968c0.21,0.257,0.465,0.451,0.764,0.581s0.636,0.195,1.013,0.195c0.432,0,0.801-0.085,1.108-0.254
		c0.308-0.169,0.559-0.395,0.756-0.676c0.196-0.283,0.34-0.61,0.432-0.984C28.827,23.346,28.873,22.951,28.873,22.536z"/>
	<path fill="#231F20" d="M39.067,26.703h-1.444v-7.089h-2.324c-0.066,1.14-0.165,2.116-0.295,2.931
		c-0.13,0.813-0.286,1.492-0.469,2.037s-0.39,0.975-0.623,1.287s-0.483,0.539-0.751,0.681c-0.268,0.141-0.552,0.21-0.851,0.207
		s-0.606-0.043-0.921-0.12l0.066-1.195c0.221,0.022,0.429,0.011,0.623-0.033s0.374-0.15,0.54-0.319s0.317-0.412,0.453-0.73
		c0.135-0.318,0.258-0.743,0.369-1.274s0.206-1.183,0.286-1.955c0.081-0.771,0.146-1.691,0.195-2.76h5.146V26.703z"/>
	<path fill="#231F20" d="M40.511,18.369h1.428l2.532,4.018v-4.018h1.328v4.018l2.532-4.018h1.428l-2.681,4.018l2.748,4.316h-1.577
		l-2.449-4.233v4.233H44.47V22.47l-2.449,4.233h-1.577l2.756-4.316L40.511,18.369z"/>
	<path fill="#231F20" d="M57.835,26.703H56.39v-3.686h-3.81v3.686h-1.444v-8.334h1.444v3.387h3.81v-3.387h1.444V26.703z"/>
	<path fill="#231F20" d="M67.738,22.47c0,0.647-0.091,1.241-0.274,1.78c-0.183,0.54-0.445,1.002-0.789,1.387
		s-0.761,0.684-1.253,0.896s-1.051,0.319-1.677,0.319c-0.598,0-1.133-0.093-1.606-0.278c-0.474-0.186-0.875-0.458-1.204-0.817
		c-0.329-0.359-0.581-0.806-0.755-1.337c-0.175-0.531-0.262-1.143-0.262-1.834c0-0.647,0.091-1.238,0.274-1.772
		s0.445-0.993,0.789-1.378s0.761-0.684,1.253-0.896s1.051-0.319,1.677-0.319c0.598,0,1.133,0.093,1.606,0.278
		c0.474,0.186,0.875,0.456,1.204,0.813c0.329,0.356,0.581,0.801,0.755,1.332C67.651,21.175,67.738,21.783,67.738,22.47z
		 M66.26,22.536c0-0.515-0.057-0.964-0.17-1.349c-0.114-0.385-0.275-0.706-0.486-0.963c-0.21-0.258-0.466-0.451-0.768-0.581
		c-0.301-0.13-0.638-0.195-1.008-0.195c-0.432,0-0.801,0.084-1.108,0.253c-0.308,0.169-0.559,0.395-0.756,0.677
		c-0.196,0.282-0.34,0.61-0.432,0.983c-0.091,0.374-0.137,0.766-0.137,1.175c0,0.515,0.057,0.966,0.17,1.353
		c0.114,0.388,0.275,0.71,0.486,0.968c0.21,0.257,0.465,0.451,0.764,0.581s0.636,0.195,1.013,0.195c0.432,0,0.801-0.085,1.108-0.254
		c0.308-0.169,0.559-0.395,0.756-0.676c0.196-0.283,0.34-0.61,0.432-0.984C66.214,23.346,66.26,22.951,66.26,22.536z"/>
	<path fill="#231F20" d="M76.304,26.396c-0.376,0.144-0.762,0.25-1.158,0.319c-0.396,0.069-0.804,0.104-1.224,0.104
		c-1.317,0-2.331-0.356-3.042-1.071c-0.711-0.713-1.066-1.757-1.066-3.129c0-0.658,0.103-1.256,0.307-1.793s0.493-0.996,0.863-1.378
		s0.813-0.677,1.328-0.884c0.515-0.208,1.082-0.312,1.702-0.312c0.432,0,0.835,0.03,1.212,0.091
		c0.376,0.062,0.736,0.161,1.079,0.299v1.379c-0.36-0.188-0.727-0.325-1.1-0.411c-0.374-0.086-0.76-0.129-1.158-0.129
		c-0.371,0-0.721,0.07-1.05,0.212c-0.33,0.141-0.619,0.344-0.868,0.609s-0.445,0.59-0.589,0.972s-0.216,0.813-0.216,1.295
		c0,1.007,0.245,1.761,0.734,2.262c0.49,0.501,1.169,0.751,2.038,0.751c0.393,0,0.773-0.044,1.142-0.133
		c0.368-0.088,0.723-0.221,1.066-0.398V26.396z"/>
	<path fill="#231F20" d="M86.414,19.614h-3.163v7.089h-1.461v-7.089h-3.163v-1.245h7.786V19.614z"/>
	<path fill="#231F20" d="M90.017,21.516c0.138-0.006,0.277-0.01,0.415-0.013s0.279-0.006,0.423-0.009s0.296-0.005,0.457-0.008
		s0.335-0.004,0.523-0.004c1.284,0,2.237,0.22,2.86,0.659c0.622,0.44,0.934,1.083,0.934,1.931c0,0.907-0.329,1.589-0.988,2.046
		c-0.659,0.456-1.655,0.685-2.988,0.685c-0.603,0-1.15-0.013-1.639-0.037c-0.49-0.025-0.97-0.068-1.44-0.129v-8.268h1.444V21.516z
		 M94.134,24.105c0-0.232-0.043-0.437-0.129-0.61c-0.085-0.175-0.223-0.321-0.411-0.44s-0.432-0.209-0.73-0.27
		s-0.659-0.092-1.079-0.092c-0.266,0-0.556,0.003-0.872,0.009s-0.614,0.014-0.896,0.024v2.781c0.282,0.027,0.555,0.049,0.817,0.063
		c0.263,0.014,0.552,0.021,0.868,0.021c0.465,0,0.852-0.029,1.162-0.087c0.31-0.059,0.559-0.146,0.747-0.266
		s0.322-0.272,0.403-0.461C94.094,24.589,94.134,24.365,94.134,24.105z"/>
</g>
<rect x="468.422" y="63.974" fill="none" width="217.279" height="37.693"/>
<g enable-background="new    ">
	<path fill="#231F20" d="M510.663,75.703h-1.478v-9.537h-4.449v9.537h-1.478v-10.85h7.404V75.703z"/>
	<path fill="#231F20" d="M520.217,71.47c0,0.647-0.091,1.241-0.273,1.78c-0.183,0.54-0.445,1.002-0.789,1.387
		c-0.343,0.385-0.76,0.684-1.253,0.896s-1.052,0.319-1.677,0.319c-0.598,0-1.133-0.093-1.605-0.278
		c-0.475-0.186-0.875-0.458-1.205-0.817c-0.328-0.359-0.58-0.806-0.754-1.337c-0.176-0.531-0.262-1.143-0.262-1.834
		c0-0.647,0.091-1.238,0.273-1.772s0.445-0.993,0.789-1.378c0.343-0.385,0.76-0.684,1.253-0.896s1.052-0.319,1.677-0.319
		c0.598,0,1.133,0.093,1.605,0.278c0.475,0.186,0.875,0.456,1.205,0.813c0.328,0.356,0.58,0.801,0.754,1.332
		C520.131,70.175,520.217,70.783,520.217,71.47z M518.74,71.536c0-0.515-0.057-0.964-0.17-1.349
		c-0.114-0.385-0.275-0.706-0.486-0.963c-0.211-0.258-0.467-0.451-0.768-0.581c-0.302-0.13-0.639-0.195-1.009-0.195
		c-0.432,0-0.802,0.084-1.108,0.253s-0.559,0.395-0.756,0.677c-0.195,0.282-0.34,0.61-0.432,0.983
		c-0.09,0.374-0.137,0.766-0.137,1.175c0,0.515,0.057,0.966,0.17,1.353c0.114,0.388,0.275,0.71,0.486,0.968
		c0.211,0.257,0.465,0.451,0.764,0.581s0.637,0.195,1.013,0.195c0.432,0,0.802-0.085,1.108-0.254s0.559-0.395,0.756-0.676
		c0.195-0.283,0.34-0.61,0.432-0.984C518.693,72.346,518.74,71.951,518.74,71.536z"/>
	<path fill="#231F20" d="M528.783,75.396c-0.376,0.144-0.762,0.25-1.158,0.319c-0.395,0.069-0.803,0.104-1.224,0.104
		c-1.317,0-2.331-0.356-3.042-1.071c-0.711-0.713-1.066-1.757-1.066-3.129c0-0.658,0.102-1.256,0.307-1.793s0.492-0.996,0.863-1.378
		s0.813-0.677,1.328-0.884c0.515-0.208,1.082-0.312,1.701-0.312c0.432,0,0.836,0.03,1.213,0.091
		c0.376,0.062,0.735,0.161,1.078,0.299v1.379c-0.359-0.188-0.727-0.325-1.1-0.411s-0.76-0.129-1.158-0.129
		c-0.37,0-0.721,0.07-1.049,0.212c-0.33,0.141-0.619,0.344-0.868,0.609s-0.445,0.59-0.589,0.972
		c-0.145,0.382-0.217,0.813-0.217,1.295c0,1.007,0.246,1.761,0.734,2.262c0.49,0.501,1.17,0.751,2.039,0.751
		c0.393,0,0.773-0.044,1.141-0.133c0.368-0.088,0.724-0.221,1.066-0.398V75.396z"/>
	<path fill="#231F20" d="M538.894,68.614h-3.163v7.089h-1.461v-7.089h-3.163v-1.245h7.787V68.614z"/>
	<path fill="#231F20" d="M548.258,71.47c0,0.647-0.092,1.241-0.274,1.78c-0.183,0.54-0.445,1.002-0.788,1.387
		c-0.344,0.385-0.762,0.684-1.254,0.896s-1.051,0.319-1.677,0.319c-0.598,0-1.134-0.093-1.606-0.278s-0.874-0.458-1.203-0.817
		c-0.33-0.359-0.582-0.806-0.756-1.337s-0.262-1.143-0.262-1.834c0-0.647,0.092-1.238,0.274-1.772s0.445-0.993,0.788-1.378
		c0.344-0.385,0.762-0.684,1.254-0.896s1.051-0.319,1.677-0.319c0.598,0,1.134,0.093,1.606,0.278s0.874,0.456,1.203,0.813
		c0.33,0.356,0.582,0.801,0.756,1.332S548.258,70.783,548.258,71.47z M546.779,71.536c0-0.515-0.057-0.964-0.17-1.349
		s-0.275-0.706-0.485-0.963c-0.21-0.258-0.466-0.451-0.769-0.581c-0.301-0.13-0.637-0.195-1.008-0.195
		c-0.432,0-0.801,0.084-1.107,0.253c-0.309,0.169-0.56,0.395-0.756,0.677c-0.197,0.282-0.34,0.61-0.432,0.983
		c-0.092,0.374-0.137,0.766-0.137,1.175c0,0.515,0.057,0.966,0.17,1.353c0.113,0.388,0.275,0.71,0.485,0.968
		c0.21,0.257,0.465,0.451,0.764,0.581s0.636,0.195,1.013,0.195c0.432,0,0.801-0.085,1.107-0.254c0.309-0.169,0.56-0.395,0.756-0.676
		c0.197-0.283,0.34-0.61,0.432-0.984C546.734,72.346,546.779,71.951,546.779,71.536z"/>
	<path fill="#231F20" d="M550.872,73.296c0.183-0.388,0.384-0.681,0.603-0.88c0.218-0.199,0.493-0.332,0.825-0.398
		c-0.349-0.066-0.636-0.174-0.863-0.324c-0.228-0.148-0.408-0.322-0.544-0.519c-0.135-0.196-0.229-0.405-0.281-0.626
		c-0.053-0.222-0.08-0.44-0.08-0.656c0-0.365,0.062-0.708,0.184-1.029c0.121-0.321,0.318-0.601,0.589-0.838
		c0.271-0.238,0.626-0.427,1.067-0.564c0.439-0.139,1.068-0.208,1.888-0.208c0.46,0,0.913,0.016,1.361,0.046
		s0.888,0.067,1.319,0.111v8.293h-1.443v-3.229h-1.254c-0.193,0-0.392,0.018-0.594,0.054c-0.201,0.036-0.386,0.103-0.552,0.199
		s-0.317,0.223-0.452,0.378c-0.136,0.154-0.256,0.351-0.361,0.589l-0.913,2.009h-1.636L550.872,73.296z M552.01,69.876
		c0,0.476,0.162,0.833,0.484,1.071c0.324,0.237,0.805,0.356,1.441,0.356h1.561v-2.789c-0.238-0.022-0.469-0.039-0.689-0.05
		s-0.453-0.017-0.697-0.017c-0.477,0-0.838,0.032-1.088,0.096c-0.248,0.063-0.445,0.154-0.589,0.273s-0.251,0.265-0.319,0.437
		C552.044,69.425,552.01,69.633,552.01,69.876z"/>
	<path fill="#231F20" d="M566.394,75.703h-1.444v-3.686h-3.81v3.686h-1.445v-8.334h1.445v3.387h3.81v-3.387h1.444V75.703z"/>
	<path fill="#231F20" d="M575.741,75.703h-1.444v-3.686h-3.811v3.686h-1.443v-8.334h1.443v3.387h3.811v-3.387h1.444V75.703z"/>
	<path fill="#231F20" d="M583.743,75.703l-0.033-1.121c-0.454,0.449-0.915,0.772-1.382,0.972c-0.468,0.199-0.959,0.299-1.474,0.299
		c-0.476,0-0.883-0.061-1.22-0.183c-0.338-0.122-0.616-0.289-0.834-0.502c-0.219-0.213-0.38-0.464-0.482-0.752
		c-0.102-0.287-0.153-0.6-0.153-0.938c0-0.836,0.312-1.49,0.935-1.963c0.621-0.474,1.542-0.71,2.76-0.71h1.727v-0.73
		c0-0.492-0.158-0.887-0.474-1.183s-0.797-0.444-1.444-0.444c-0.471,0-0.934,0.053-1.391,0.157
		c-0.457,0.105-0.928,0.255-1.415,0.449v-1.304c0.183-0.066,0.386-0.132,0.61-0.195s0.461-0.12,0.709-0.17
		c0.25-0.05,0.51-0.09,0.781-0.12c0.271-0.03,0.545-0.046,0.821-0.046c0.503,0,0.958,0.056,1.361,0.166s0.745,0.279,1.024,0.507
		c0.28,0.227,0.494,0.512,0.645,0.854c0.148,0.343,0.224,0.747,0.224,1.212v5.744H583.743z M583.586,71.91h-1.835
		c-0.36,0-0.669,0.035-0.93,0.107s-0.474,0.174-0.64,0.307s-0.289,0.292-0.369,0.478s-0.12,0.395-0.12,0.627
		c0,0.16,0.024,0.314,0.075,0.461c0.049,0.146,0.129,0.276,0.24,0.39s0.254,0.203,0.432,0.27s0.393,0.1,0.647,0.1
		c0.332,0,0.712-0.101,1.142-0.303c0.429-0.202,0.881-0.521,1.357-0.959V71.91z"/>
	<path fill="#231F20" d="M588.259,73.296c0.183-0.388,0.384-0.681,0.603-0.88c0.218-0.199,0.493-0.332,0.825-0.398
		c-0.349-0.066-0.636-0.174-0.863-0.324c-0.228-0.148-0.408-0.322-0.544-0.519c-0.135-0.196-0.229-0.405-0.281-0.626
		c-0.053-0.222-0.08-0.44-0.08-0.656c0-0.365,0.062-0.708,0.184-1.029c0.121-0.321,0.318-0.601,0.589-0.838
		c0.271-0.238,0.626-0.427,1.067-0.564c0.439-0.139,1.068-0.208,1.888-0.208c0.46,0,0.913,0.016,1.361,0.046
		s0.888,0.067,1.319,0.111v8.293h-1.443v-3.229h-1.254c-0.193,0-0.392,0.018-0.594,0.054c-0.201,0.036-0.386,0.103-0.552,0.199
		s-0.317,0.223-0.452,0.378c-0.136,0.154-0.256,0.351-0.361,0.589l-0.913,2.009h-1.636L588.259,73.296z M589.396,69.876
		c0,0.476,0.162,0.833,0.484,1.071c0.324,0.237,0.805,0.356,1.441,0.356h1.561v-2.789c-0.238-0.022-0.469-0.039-0.689-0.05
		s-0.453-0.017-0.697-0.017c-0.477,0-0.838,0.032-1.088,0.096c-0.248,0.063-0.445,0.154-0.589,0.273s-0.251,0.265-0.319,0.437
		C589.43,69.425,589.396,69.633,589.396,69.876z"/>
	<path fill="#231F20" d="M611.683,72.475h-1.719c-1.289,0-2.235-0.241-2.838-0.723c-0.604-0.481-0.905-1.182-0.905-2.1v-2.283h1.461
		v2.092c0,0.332,0.044,0.611,0.133,0.838c0.089,0.228,0.231,0.411,0.427,0.553c0.197,0.141,0.449,0.242,0.756,0.303
		s0.68,0.092,1.117,0.092h1.568v-3.877h1.444v8.334h-1.444V72.475z"/>
	<path fill="#231F20" d="M621.13,75.703l-0.033-1.121c-0.454,0.449-0.915,0.772-1.382,0.972c-0.468,0.199-0.959,0.299-1.474,0.299
		c-0.476,0-0.883-0.061-1.22-0.183c-0.338-0.122-0.616-0.289-0.834-0.502c-0.219-0.213-0.38-0.464-0.482-0.752
		c-0.102-0.287-0.153-0.6-0.153-0.938c0-0.836,0.312-1.49,0.935-1.963c0.621-0.474,1.542-0.71,2.76-0.71h1.727v-0.73
		c0-0.492-0.158-0.887-0.474-1.183s-0.797-0.444-1.444-0.444c-0.471,0-0.934,0.053-1.391,0.157
		c-0.457,0.105-0.928,0.255-1.415,0.449v-1.304c0.183-0.066,0.386-0.132,0.61-0.195s0.461-0.12,0.709-0.17
		c0.25-0.05,0.51-0.09,0.781-0.12c0.271-0.03,0.545-0.046,0.821-0.046c0.503,0,0.958,0.056,1.361,0.166s0.745,0.279,1.024,0.507
		c0.28,0.227,0.494,0.512,0.645,0.854c0.148,0.343,0.224,0.747,0.224,1.212v5.744H621.13z M620.972,71.91h-1.835
		c-0.36,0-0.669,0.035-0.93,0.107s-0.474,0.174-0.64,0.307s-0.289,0.292-0.369,0.478s-0.12,0.395-0.12,0.627
		c0,0.16,0.024,0.314,0.075,0.461c0.049,0.146,0.129,0.276,0.24,0.39s0.254,0.203,0.432,0.27s0.393,0.1,0.647,0.1
		c0.332,0,0.712-0.101,1.142-0.303c0.429-0.202,0.881-0.521,1.357-0.959V71.91z"/>
	<path fill="#231F20" d="M631.597,75.396c-0.377,0.144-0.763,0.25-1.158,0.319c-0.396,0.069-0.805,0.104-1.225,0.104
		c-1.316,0-2.331-0.356-3.043-1.071c-0.711-0.713-1.066-1.757-1.066-3.129c0-0.658,0.104-1.256,0.308-1.793s0.493-0.996,0.863-1.378
		s0.813-0.677,1.328-0.884c0.515-0.208,1.082-0.312,1.702-0.312c0.432,0,0.835,0.03,1.211,0.091c0.377,0.062,0.736,0.161,1.08,0.299
		v1.379c-0.36-0.188-0.727-0.325-1.1-0.411c-0.375-0.086-0.76-0.129-1.158-0.129c-0.371,0-0.721,0.07-1.051,0.212
		c-0.329,0.141-0.618,0.344-0.867,0.609s-0.445,0.59-0.59,0.972c-0.144,0.382-0.215,0.813-0.215,1.295
		c0,1.007,0.244,1.761,0.734,2.262s1.169,0.751,2.037,0.751c0.394,0,0.773-0.044,1.143-0.133c0.367-0.088,0.723-0.221,1.066-0.398
		V75.396z"/>
	<path fill="#231F20" d="M641.707,68.614h-3.162v7.089h-1.461v-7.089h-3.162v-1.245h7.785V68.614z"/>
	<path fill="#231F20" d="M645.31,70.516c0.138-0.006,0.276-0.01,0.414-0.013c0.139-0.003,0.279-0.006,0.424-0.009
		s0.296-0.005,0.457-0.008c0.16-0.003,0.334-0.004,0.522-0.004c1.284,0,2.237,0.22,2.86,0.659c0.621,0.44,0.934,1.083,0.934,1.931
		c0,0.907-0.33,1.589-0.988,2.046c-0.658,0.456-1.654,0.685-2.988,0.685c-0.604,0-1.15-0.013-1.639-0.037
		c-0.49-0.025-0.971-0.068-1.441-0.129v-8.268h1.445V70.516z M649.427,73.105c0-0.232-0.043-0.437-0.129-0.61
		c-0.086-0.175-0.223-0.321-0.411-0.44s-0.432-0.209-0.73-0.27s-0.659-0.092-1.079-0.092c-0.266,0-0.557,0.003-0.871,0.009
		c-0.316,0.006-0.615,0.014-0.896,0.024v2.781c0.281,0.027,0.555,0.049,0.816,0.063c0.264,0.014,0.553,0.021,0.868,0.021
		c0.465,0,0.853-0.029,1.162-0.087c0.31-0.059,0.56-0.146,0.747-0.266s0.322-0.272,0.402-0.461S649.427,73.365,649.427,73.105z"/>
</g>
<g enable-background="new    ">
	<path fill="#231F20" d="M550.666,99.589c-2.552-2.363-3.827-4.975-3.827-7.836c0-0.67,0.067-1.338,0.203-2.005
		s0.354-1.335,0.656-2.005c0.302-0.669,0.7-1.339,1.195-2.008c0.495-0.67,1.097-1.334,1.806-1.992l0.838,0.854
		c-2.146,2.119-3.221,4.469-3.221,7.048c0,1.283,0.271,2.518,0.813,3.701c0.542,1.185,1.345,2.303,2.407,3.354L550.666,99.589z"/>
	<path fill="#231F20" d="M562.278,91.869c0,0.647-0.091,1.241-0.274,1.78c-0.182,0.54-0.445,1.002-0.788,1.387
		s-0.761,0.684-1.253,0.896c-0.493,0.213-1.052,0.319-1.678,0.319c-0.598,0-1.133-0.093-1.605-0.278
		c-0.474-0.186-0.875-0.458-1.204-0.817s-0.581-0.806-0.755-1.337c-0.175-0.531-0.262-1.143-0.262-1.834
		c0-0.647,0.092-1.238,0.273-1.772c0.184-0.534,0.445-0.993,0.789-1.378s0.761-0.684,1.254-0.896
		c0.492-0.213,1.051-0.319,1.676-0.319c0.598,0,1.134,0.093,1.606,0.278c0.474,0.186,0.874,0.456,1.204,0.813
		c0.329,0.356,0.581,0.801,0.755,1.332C562.191,90.574,562.278,91.183,562.278,91.869z M560.801,91.936
		c0-0.515-0.057-0.964-0.17-1.349s-0.275-0.706-0.486-0.963c-0.21-0.258-0.466-0.451-0.768-0.581
		c-0.301-0.13-0.638-0.195-1.008-0.195c-0.432,0-0.802,0.084-1.108,0.253c-0.308,0.169-0.56,0.395-0.756,0.677
		s-0.34,0.61-0.432,0.983c-0.091,0.374-0.137,0.766-0.137,1.175c0,0.515,0.057,0.966,0.17,1.353c0.114,0.388,0.275,0.71,0.485,0.968
		c0.211,0.257,0.465,0.451,0.764,0.581s0.637,0.195,1.014,0.195c0.432,0,0.801-0.085,1.107-0.254
		c0.308-0.169,0.559-0.395,0.756-0.676c0.196-0.283,0.34-0.61,0.432-0.984C560.755,92.745,560.801,92.351,560.801,91.936z"/>
	<path fill="#231F20" d="M571.865,96.103h-1.983l-3.885-4.466v4.466h-1.444v-8.334h1.444v3.811l3.743-3.811h1.91l-3.91,3.844
		L571.865,96.103z"/>
	<path fill="#231F20" d="M580.341,96.103h-1.444v-7.089h-2.324c-0.066,1.14-0.164,2.116-0.295,2.931
		c-0.13,0.813-0.286,1.492-0.469,2.037s-0.391,0.975-0.623,1.287s-0.482,0.539-0.751,0.681c-0.269,0.141-0.552,0.21-0.851,0.207
		s-0.605-0.043-0.922-0.12l0.066-1.195c0.222,0.022,0.43,0.011,0.623-0.033s0.373-0.15,0.539-0.319s0.317-0.412,0.453-0.73
		c0.135-0.318,0.258-0.743,0.369-1.274s0.206-1.183,0.286-1.955c0.081-0.771,0.146-1.691,0.195-2.76h5.146V96.103z"/>
	<path fill="#231F20" d="M588.418,96.103l-0.033-1.121c-0.454,0.449-0.915,0.772-1.383,0.972c-0.467,0.199-0.959,0.299-1.473,0.299
		c-0.477,0-0.883-0.061-1.221-0.183s-0.615-0.289-0.834-0.502s-0.379-0.464-0.481-0.752c-0.103-0.287-0.153-0.6-0.153-0.938
		c0-0.836,0.311-1.49,0.934-1.963c0.622-0.474,1.543-0.71,2.76-0.71h1.727v-0.73c0-0.492-0.158-0.887-0.473-1.183
		c-0.316-0.296-0.797-0.444-1.445-0.444c-0.47,0-0.934,0.053-1.39,0.157c-0.457,0.105-0.929,0.255-1.415,0.449V88.15
		c0.182-0.066,0.386-0.132,0.609-0.195c0.225-0.063,0.461-0.12,0.71-0.17s0.509-0.09,0.78-0.12s0.545-0.046,0.822-0.046
		c0.503,0,0.957,0.056,1.361,0.166c0.403,0.11,0.745,0.279,1.024,0.507c0.28,0.227,0.494,0.512,0.644,0.854s0.225,0.747,0.225,1.212
		v5.744H588.418z M588.26,92.31h-1.834c-0.36,0-0.67,0.035-0.93,0.107c-0.261,0.072-0.474,0.174-0.64,0.307
		s-0.289,0.292-0.369,0.478c-0.081,0.186-0.12,0.395-0.12,0.627c0,0.16,0.024,0.314,0.074,0.461s0.13,0.276,0.24,0.39
		c0.111,0.113,0.255,0.203,0.432,0.27c0.178,0.066,0.394,0.1,0.648,0.1c0.332,0,0.712-0.101,1.141-0.303
		c0.43-0.202,0.881-0.521,1.357-0.959V92.31z"/>
	<path fill="#231F20" d="M600.146,94.857l-0.092,3.37h-1.319v-2.125h-6.076v2.125h-1.304l-0.082-3.37h0.115
		c0.211,0,0.41-0.033,0.598-0.1c0.188-0.066,0.363-0.192,0.523-0.378s0.309-0.442,0.444-0.771s0.257-0.756,0.365-1.278
		c0.107-0.523,0.202-1.158,0.282-1.905s0.148-1.633,0.203-2.656h5.146v7.089H600.146z M597.507,89.014h-2.324
		c-0.056,0.952-0.128,1.763-0.216,2.433c-0.088,0.669-0.192,1.23-0.312,1.685c-0.118,0.454-0.256,0.816-0.411,1.087
		c-0.154,0.271-0.326,0.484-0.514,0.64h3.776V89.014z"/>
	<path fill="#231F20" d="M603.459,83.743c2.551,2.362,3.826,4.991,3.826,7.885c0,0.598-0.061,1.218-0.183,1.859
		c-0.122,0.643-0.329,1.3-0.622,1.972c-0.294,0.673-0.688,1.354-1.184,2.046c-0.495,0.692-1.119,1.387-1.871,2.084l-0.839-0.855
		c1.079-1.067,1.884-2.183,2.415-3.345s0.797-2.38,0.797-3.652c0-2.634-1.07-5.003-3.212-7.105L603.459,83.743z"/>
</g>
<rect x="3.225" y="63.568" fill="#FFE736" width="249.329" height="38.883"/>
<rect x="12.421" y="74.974" fill="none" width="241.28" height="37.693"/>
<g enable-background="new    ">
	<path fill="#231F20" d="M21.112,86.703h-1.859l-4.059-5.32v5.32h-1.478v-10.85h1.478v5.039l3.976-5.039h1.751l-4.283,5.155
		L21.112,86.703z"/>
	<path fill="#231F20" d="M30.251,84.271c0,0.381-0.08,0.73-0.241,1.045c-0.161,0.316-0.41,0.586-0.747,0.81
		c-0.337,0.225-0.765,0.398-1.283,0.523c-0.517,0.124-1.133,0.187-1.847,0.187c-0.47,0-0.971-0.018-1.502-0.054
		s-1.043-0.085-1.536-0.146V78.41c0.52-0.061,1.047-0.107,1.581-0.141c0.534-0.033,1.111-0.05,1.731-0.05
		c1.124,0,1.977,0.184,2.561,0.552c0.583,0.368,0.875,0.898,0.875,1.59c0,0.471-0.136,0.874-0.407,1.212s-0.681,0.587-1.229,0.747
		c0.266,0.044,0.521,0.117,0.768,0.22c0.247,0.103,0.464,0.235,0.652,0.398s0.339,0.355,0.453,0.577
		C30.195,83.737,30.251,83.988,30.251,84.271z M28.367,80.652c0-0.194-0.039-0.368-0.116-0.523s-0.201-0.288-0.37-0.398
		c-0.168-0.11-0.39-0.195-0.664-0.253c-0.273-0.059-0.604-0.087-0.992-0.087c-0.349,0-0.653,0.007-0.913,0.021
		s-0.518,0.037-0.772,0.07v2.407h1.677C27.65,81.889,28.367,81.477,28.367,80.652z M28.724,84.305c0-0.432-0.195-0.757-0.585-0.976
		c-0.391-0.219-0.998-0.328-1.822-0.328H24.54v2.548c0.271,0.045,0.54,0.075,0.805,0.092s0.57,0.025,0.913,0.025
		c0.493,0,0.898-0.033,1.216-0.1c0.318-0.066,0.57-0.161,0.755-0.283c0.186-0.121,0.314-0.266,0.386-0.432
		S28.724,84.504,28.724,84.305z"/>
	<path fill="#231F20" d="M37.797,86.703l-0.033-1.121c-0.454,0.449-0.915,0.772-1.382,0.972c-0.467,0.199-0.958,0.299-1.473,0.299
		c-0.476,0-0.883-0.061-1.22-0.183s-0.616-0.289-0.834-0.502c-0.219-0.213-0.379-0.464-0.481-0.752
		c-0.103-0.287-0.154-0.6-0.154-0.938c0-0.836,0.311-1.49,0.934-1.963c0.622-0.474,1.542-0.71,2.76-0.71h1.727v-0.73
		c0-0.492-0.158-0.887-0.473-1.183s-0.797-0.444-1.444-0.444c-0.47,0-0.934,0.053-1.39,0.157c-0.457,0.105-0.929,0.255-1.416,0.449
		v-1.304c0.183-0.066,0.386-0.132,0.61-0.195c0.225-0.063,0.461-0.12,0.71-0.17s0.509-0.09,0.78-0.12s0.545-0.046,0.822-0.046
		c0.503,0,0.958,0.056,1.361,0.166s0.746,0.279,1.025,0.507c0.28,0.227,0.494,0.512,0.644,0.854s0.224,0.747,0.224,1.212v5.744
		H37.797z M37.639,82.91h-1.834c-0.36,0-0.669,0.035-0.93,0.107s-0.473,0.174-0.639,0.307s-0.289,0.292-0.369,0.478
		c-0.081,0.186-0.121,0.395-0.121,0.627c0,0.16,0.025,0.314,0.075,0.461s0.13,0.276,0.241,0.39s0.254,0.203,0.432,0.27
		s0.393,0.1,0.647,0.1c0.332,0,0.712-0.101,1.141-0.303c0.429-0.202,0.881-0.521,1.357-0.959V82.91z"/>
	<path fill="#231F20" d="M48.413,86.703h-1.444v-7.089h-2.324c-0.066,1.14-0.165,2.116-0.295,2.931
		c-0.13,0.813-0.286,1.492-0.469,2.037s-0.39,0.975-0.623,1.287s-0.483,0.539-0.751,0.681c-0.268,0.141-0.552,0.21-0.851,0.207
		s-0.606-0.043-0.921-0.12l0.066-1.195c0.221,0.022,0.429,0.011,0.623-0.033s0.374-0.15,0.54-0.319s0.317-0.412,0.453-0.73
		c0.135-0.318,0.258-0.743,0.369-1.274s0.206-1.183,0.286-1.955c0.081-0.771,0.146-1.691,0.195-2.76h5.146V86.703z"/>
	<path fill="#231F20" d="M52.697,78.369v5.869l3.636-5.869h1.378v8.334h-1.444v-5.869l-3.636,5.869h-1.378v-8.334H52.697z"/>
	<path fill="#231F20" d="M64.509,90.106h-1.361v-3.287c-1.223-0.066-2.137-0.435-2.744-1.104c-0.605-0.669-0.909-1.718-0.909-3.146
		c0-0.714,0.088-1.329,0.266-1.847s0.426-0.949,0.747-1.295s0.706-0.613,1.154-0.801c0.448-0.188,0.943-0.313,1.486-0.374v-3.278
		h1.361v3.262c0.609,0.044,1.141,0.153,1.598,0.328c0.456,0.174,0.838,0.429,1.146,0.764c0.307,0.335,0.538,0.761,0.693,1.278
		s0.232,1.139,0.232,1.863c0,0.747-0.095,1.384-0.287,1.909c-0.19,0.525-0.452,0.959-0.784,1.299
		c-0.332,0.341-0.721,0.6-1.166,0.776c-0.446,0.177-0.923,0.293-1.432,0.349V90.106z M63.147,79.424
		c-0.382,0.055-0.719,0.167-1.013,0.336s-0.528,0.392-0.706,0.668s-0.303,0.592-0.378,0.946c-0.074,0.354-0.112,0.73-0.112,1.129
		c0,0.492,0.042,0.921,0.125,1.286s0.214,0.677,0.395,0.935c0.18,0.257,0.408,0.46,0.685,0.61c0.277,0.148,0.611,0.248,1.004,0.299
		V79.424z M64.509,85.633c0.382-0.056,0.717-0.166,1.004-0.332s0.52-0.385,0.697-0.656s0.309-0.584,0.395-0.938
		c0.085-0.354,0.128-0.739,0.128-1.154c0-0.537-0.048-0.993-0.145-1.369c-0.097-0.377-0.24-0.688-0.428-0.935
		s-0.42-0.433-0.697-0.56c-0.277-0.128-0.595-0.217-0.955-0.266V85.633z"/>
	<path fill="#231F20" d="M71.39,78.369v5.869l3.636-5.869h1.378v8.334h-1.444v-5.869l-3.636,5.869h-1.378v-8.334H71.39z"/>
	<path fill="#231F20" d="M86.672,86.703h-1.984l-3.885-4.466v4.466h-1.444v-8.334h1.444v3.811l3.744-3.811h1.909l-3.91,3.844
		L86.672,86.703z"/>
	<path fill="#231F20" d="M93.877,86.703l-0.033-1.121c-0.454,0.449-0.915,0.772-1.382,0.972c-0.467,0.199-0.958,0.299-1.473,0.299
		c-0.476,0-0.883-0.061-1.22-0.183s-0.616-0.289-0.834-0.502c-0.219-0.213-0.379-0.464-0.481-0.752
		c-0.103-0.287-0.154-0.6-0.154-0.938c0-0.836,0.311-1.49,0.934-1.963c0.622-0.474,1.542-0.71,2.76-0.71h1.727v-0.73
		c0-0.492-0.158-0.887-0.473-1.183s-0.797-0.444-1.444-0.444c-0.47,0-0.934,0.053-1.39,0.157c-0.457,0.105-0.929,0.255-1.416,0.449
		v-1.304c0.183-0.066,0.386-0.132,0.61-0.195c0.225-0.063,0.461-0.12,0.71-0.17s0.509-0.09,0.78-0.12s0.545-0.046,0.822-0.046
		c0.503,0,0.958,0.056,1.361,0.166s0.746,0.279,1.025,0.507c0.28,0.227,0.494,0.512,0.644,0.854s0.224,0.747,0.224,1.212v5.744
		H93.877z M93.719,82.91h-1.834c-0.36,0-0.669,0.035-0.93,0.107s-0.473,0.174-0.639,0.307s-0.289,0.292-0.369,0.478
		c-0.081,0.186-0.121,0.395-0.121,0.627c0,0.16,0.025,0.314,0.075,0.461s0.13,0.276,0.241,0.39s0.254,0.203,0.432,0.27
		s0.393,0.1,0.647,0.1c0.332,0,0.712-0.101,1.141-0.303c0.429-0.202,0.881-0.521,1.357-0.959V82.91z"/>
	<path fill="#231F20" d="M105.498,85.458l-0.083,3.37h-1.312v-2.125h-6.3v-8.334h1.444v7.089h3.802v-7.089h1.444v7.089H105.498z"/>
	<path fill="#231F20" d="M108.777,78.369v5.869l3.636-5.869h1.378v8.334h-1.444v-5.869l-3.636,5.869h-1.378v-8.334H108.777z"/>
	<path fill="#231F20" d="M117.086,84.296c0.183-0.388,0.383-0.681,0.602-0.88c0.218-0.199,0.494-0.332,0.826-0.398
		c-0.349-0.066-0.636-0.174-0.863-0.324c-0.227-0.148-0.408-0.322-0.543-0.519c-0.136-0.196-0.23-0.405-0.282-0.626
		c-0.053-0.222-0.079-0.44-0.079-0.656c0-0.365,0.061-0.708,0.183-1.029s0.318-0.601,0.589-0.838
		c0.271-0.238,0.626-0.427,1.067-0.564c0.439-0.139,1.069-0.208,1.888-0.208c0.459,0,0.913,0.016,1.361,0.046
		s0.888,0.067,1.32,0.111v8.293h-1.444v-3.229h-1.253c-0.194,0-0.392,0.018-0.593,0.054c-0.202,0.036-0.386,0.103-0.552,0.199
		s-0.317,0.223-0.453,0.378c-0.135,0.154-0.256,0.351-0.361,0.589l-0.913,2.009h-1.635L117.086,84.296z M118.223,80.876
		c0,0.476,0.162,0.833,0.485,1.071c0.324,0.237,0.804,0.356,1.44,0.356h1.561v-2.789c-0.238-0.022-0.468-0.039-0.689-0.05
		s-0.454-0.017-0.697-0.017c-0.476,0-0.838,0.032-1.087,0.096s-0.445,0.154-0.589,0.273s-0.25,0.265-0.32,0.437
		C118.258,80.425,118.223,80.633,118.223,80.876z"/>
	<path fill="#231F20" d="M140.245,90.189c-2.551-2.363-3.827-4.975-3.827-7.836c0-0.67,0.068-1.338,0.203-2.005
		c0.136-0.667,0.354-1.335,0.656-2.005c0.301-0.669,0.7-1.339,1.195-2.008c0.495-0.67,1.097-1.334,1.805-1.992l0.838,0.854
		c-2.147,2.119-3.221,4.469-3.221,7.048c0,1.283,0.271,2.518,0.813,3.701c0.542,1.185,1.345,2.303,2.407,3.354L140.245,90.189z"/>
	<path fill="#231F20" d="M151.302,86.703h-1.444v-7.072h-3.81v7.072h-1.444v-8.334h6.699V86.703z"/>
	<path fill="#231F20" d="M161.204,82.47c0,0.647-0.091,1.241-0.274,1.78c-0.183,0.54-0.445,1.002-0.789,1.387
		s-0.761,0.684-1.253,0.896s-1.051,0.319-1.677,0.319c-0.598,0-1.133-0.093-1.606-0.278c-0.474-0.186-0.875-0.458-1.204-0.817
		c-0.329-0.359-0.581-0.806-0.755-1.337c-0.175-0.531-0.262-1.143-0.262-1.834c0-0.647,0.091-1.238,0.274-1.772
		s0.445-0.993,0.789-1.378s0.761-0.684,1.253-0.896s1.051-0.319,1.677-0.319c0.598,0,1.133,0.093,1.606,0.278
		c0.474,0.186,0.875,0.456,1.204,0.813c0.329,0.356,0.581,0.801,0.755,1.332C161.117,81.175,161.204,81.783,161.204,82.47z
		 M159.727,82.536c0-0.515-0.057-0.964-0.17-1.349c-0.114-0.385-0.275-0.706-0.486-0.963c-0.21-0.258-0.466-0.451-0.768-0.581
		c-0.301-0.13-0.638-0.195-1.008-0.195c-0.432,0-0.801,0.084-1.108,0.253c-0.308,0.169-0.559,0.395-0.756,0.677
		c-0.196,0.282-0.34,0.61-0.432,0.983c-0.091,0.374-0.137,0.766-0.137,1.175c0,0.515,0.057,0.966,0.17,1.353
		c0.114,0.388,0.275,0.71,0.486,0.968c0.21,0.257,0.465,0.451,0.764,0.581s0.636,0.195,1.013,0.195c0.432,0,0.801-0.085,1.108-0.254
		c0.308-0.169,0.559-0.395,0.756-0.676c0.196-0.283,0.34-0.61,0.432-0.984C159.681,83.346,159.727,82.951,159.727,82.536z"/>
	<path fill="#231F20" d="M170.534,79.614h-3.163v7.089h-1.461v-7.089h-3.163v-1.245h7.786V79.614z"/>
	<path fill="#231F20" d="M179.682,82.096c0,0.205-0.003,0.377-0.008,0.516c-0.005,0.138-0.014,0.268-0.025,0.39h-5.852
		c0,0.853,0.238,1.507,0.714,1.963c0.476,0.457,1.162,0.685,2.059,0.685c0.244,0,0.487-0.009,0.73-0.028s0.479-0.046,0.706-0.079
		s0.444-0.07,0.651-0.112c0.208-0.041,0.4-0.087,0.577-0.137v1.187c-0.393,0.111-0.837,0.201-1.332,0.271
		c-0.496,0.069-1.009,0.104-1.54,0.104c-0.714,0-1.328-0.097-1.843-0.29c-0.515-0.194-0.937-0.475-1.266-0.843
		c-0.33-0.368-0.573-0.819-0.73-1.354c-0.158-0.534-0.237-1.139-0.237-1.813c0-0.587,0.084-1.142,0.253-1.664
		c0.168-0.523,0.415-0.982,0.738-1.378c0.324-0.396,0.721-0.71,1.191-0.942s1.004-0.349,1.602-0.349
		c0.581,0,1.096,0.091,1.544,0.274c0.448,0.182,0.826,0.44,1.133,0.775c0.307,0.335,0.539,0.742,0.697,1.221
		C179.603,80.969,179.682,81.504,179.682,82.096z M178.179,81.889c0.017-0.371-0.02-0.71-0.108-1.017
		c-0.088-0.308-0.226-0.571-0.411-0.793c-0.185-0.222-0.416-0.395-0.693-0.519c-0.277-0.125-0.598-0.188-0.963-0.188
		c-0.315,0-0.603,0.062-0.863,0.184c-0.26,0.121-0.484,0.293-0.672,0.514c-0.188,0.222-0.34,0.487-0.457,0.797
		c-0.116,0.311-0.188,0.65-0.216,1.021H178.179z"/>
	<path fill="#231F20" d="M188.688,86.703h-1.444v-3.686h-3.81v3.686h-1.444v-8.334h1.444v3.387h3.81v-3.387h1.444V86.703z"/>
	<path fill="#231F20" d="M198.965,85.458l-0.083,3.37h-1.312v-2.125h-6.3v-8.334h1.444v7.089h3.802v-7.089h1.444v7.089H198.965z"/>
	<path fill="#231F20" d="M202.243,78.369v5.869l3.636-5.869h1.378v8.334h-1.444v-5.869l-3.636,5.869h-1.378v-8.334H202.243z"/>
	<path fill="#231F20" d="M215.384,86.703l-0.033-1.121c-0.454,0.449-0.915,0.772-1.382,0.972c-0.467,0.199-0.958,0.299-1.473,0.299
		c-0.476,0-0.883-0.061-1.22-0.183s-0.616-0.289-0.834-0.502c-0.219-0.213-0.379-0.464-0.481-0.752
		c-0.103-0.287-0.154-0.6-0.154-0.938c0-0.836,0.311-1.49,0.934-1.963c0.622-0.474,1.542-0.71,2.76-0.71h1.727v-0.73
		c0-0.492-0.158-0.887-0.473-1.183s-0.797-0.444-1.444-0.444c-0.47,0-0.934,0.053-1.39,0.157c-0.457,0.105-0.929,0.255-1.416,0.449
		v-1.304c0.183-0.066,0.386-0.132,0.61-0.195c0.225-0.063,0.461-0.12,0.71-0.17s0.509-0.09,0.78-0.12s0.545-0.046,0.822-0.046
		c0.503,0,0.958,0.056,1.361,0.166s0.746,0.279,1.025,0.507c0.28,0.227,0.494,0.512,0.644,0.854s0.224,0.747,0.224,1.212v5.744
		H215.384z M215.226,82.91h-1.834c-0.36,0-0.669,0.035-0.93,0.107s-0.473,0.174-0.639,0.307s-0.289,0.292-0.369,0.478
		c-0.081,0.186-0.121,0.395-0.121,0.627c0,0.16,0.025,0.314,0.075,0.461s0.13,0.276,0.241,0.39s0.254,0.203,0.432,0.27
		s0.393,0.1,0.647,0.1c0.332,0,0.712-0.101,1.141-0.303c0.429-0.202,0.881-0.521,1.357-0.959V82.91z"/>
	<path fill="#231F20" d="M226,86.703h-1.444v-7.089h-2.324c-0.066,1.14-0.165,2.116-0.295,2.931
		c-0.13,0.813-0.286,1.492-0.469,2.037s-0.39,0.975-0.623,1.287s-0.483,0.539-0.751,0.681c-0.268,0.141-0.552,0.21-0.851,0.207
		s-0.606-0.043-0.921-0.12l0.066-1.195c0.221,0.022,0.429,0.011,0.623-0.033s0.374-0.15,0.54-0.319s0.317-0.412,0.453-0.73
		c0.135-0.318,0.258-0.743,0.369-1.274s0.206-1.183,0.286-1.955c0.081-0.771,0.146-1.691,0.195-2.76H226V86.703z"/>
	<path fill="#231F20" d="M230.425,74.344c2.551,2.362,3.827,4.991,3.827,7.885c0,0.598-0.061,1.218-0.183,1.859
		c-0.122,0.643-0.329,1.3-0.623,1.972c-0.293,0.673-0.688,1.354-1.183,2.046c-0.495,0.692-1.119,1.387-1.872,2.084l-0.838-0.855
		c1.079-1.067,1.884-2.183,2.416-3.345s0.797-2.38,0.797-3.652c0-2.634-1.071-5.003-3.212-7.105L230.425,74.344z"/>
</g>
<rect x="3.225" y="123.568" fill="#FFE736" width="249.329" height="38.883"/>
<rect x="12.421" y="134.975" fill="none" width="217.28" height="37.692"/>
<g enable-background="new    ">
	<path fill="#231F20" d="M20.855,139.174c0,0.443-0.083,0.882-0.249,1.316s-0.423,0.823-0.772,1.166s-0.794,0.621-1.336,0.834
		s-1.19,0.32-1.942,0.32H15.21v3.893h-1.478v-10.85h3.055c0.537,0,1.051,0.06,1.544,0.179s0.926,0.312,1.299,0.577
		c0.374,0.266,0.671,0.608,0.893,1.029S20.855,138.571,20.855,139.174z M19.319,139.24c0-0.697-0.228-1.23-0.685-1.602
		c-0.456-0.371-1.094-0.557-1.913-0.557H15.21v4.467h1.378c0.875,0,1.548-0.191,2.021-0.573
		C19.082,140.594,19.319,140.016,19.319,139.24z"/>
	<path fill="#231F20" d="M23.876,141.59c0.199-0.006,0.386-0.01,0.561-0.013c0.174-0.003,0.355-0.004,0.543-0.004
		c0.52,0,0.975,0.063,1.366,0.187c0.39,0.125,0.715,0.299,0.975,0.523c0.26,0.224,0.454,0.492,0.581,0.805s0.191,0.652,0.191,1.018
		c0,0.442-0.075,0.831-0.224,1.166s-0.362,0.615-0.639,0.842c-0.277,0.228-0.616,0.398-1.017,0.516
		c-0.401,0.115-0.879,0.174-1.432,0.174c-0.354,0-0.729-0.01-1.125-0.029c-0.396-0.02-0.798-0.06-1.208-0.12v-8.284h1.428V141.59z
		 M26.599,144.146c0-0.438-0.137-0.776-0.411-1.017c-0.273-0.241-0.709-0.361-1.307-0.361c-0.161,0-0.324,0.003-0.49,0.009
		c-0.166,0.005-0.337,0.014-0.515,0.024v2.739c0.177,0.027,0.346,0.046,0.506,0.054c0.161,0.009,0.321,0.013,0.481,0.013
		c0.337,0,0.617-0.04,0.838-0.12s0.397-0.187,0.527-0.319c0.13-0.133,0.224-0.288,0.282-0.465
		C26.57,144.525,26.599,144.34,26.599,144.146z M29.006,146.703v-8.334h1.428v8.334H29.006z"/>
	<path fill="#231F20" d="M39.141,146.703h-1.444v-3.686h-3.81v3.686h-1.444v-8.334h1.444v3.387h3.81v-3.387h1.444V146.703z"/>
	<path fill="#231F20" d="M49.044,142.47c0,0.647-0.091,1.241-0.274,1.78c-0.183,0.54-0.445,1.002-0.789,1.387
		s-0.761,0.684-1.253,0.896s-1.051,0.319-1.677,0.319c-0.598,0-1.133-0.093-1.606-0.278c-0.474-0.186-0.875-0.458-1.204-0.817
		c-0.329-0.359-0.581-0.806-0.755-1.337c-0.175-0.531-0.262-1.143-0.262-1.834c0-0.647,0.091-1.238,0.274-1.772
		s0.445-0.993,0.789-1.378s0.761-0.684,1.253-0.896s1.051-0.319,1.677-0.319c0.598,0,1.133,0.093,1.606,0.278
		c0.474,0.186,0.875,0.456,1.204,0.813c0.329,0.356,0.581,0.801,0.755,1.332C48.957,141.175,49.044,141.783,49.044,142.47z
		 M47.567,142.536c0-0.515-0.057-0.964-0.17-1.349c-0.114-0.385-0.275-0.706-0.486-0.963c-0.21-0.258-0.466-0.451-0.768-0.581
		c-0.301-0.13-0.638-0.195-1.008-0.195c-0.432,0-0.801,0.084-1.108,0.253c-0.308,0.169-0.559,0.395-0.756,0.677
		c-0.196,0.282-0.34,0.61-0.432,0.983c-0.091,0.374-0.137,0.766-0.137,1.175c0,0.515,0.057,0.966,0.17,1.353
		c0.114,0.388,0.275,0.71,0.486,0.968c0.21,0.257,0.465,0.451,0.764,0.581s0.636,0.195,1.013,0.195c0.432,0,0.801-0.085,1.108-0.254
		c0.308-0.169,0.559-0.395,0.756-0.676c0.196-0.283,0.34-0.61,0.432-0.984C47.521,143.346,47.567,142.951,47.567,142.536z"/>
	<path fill="#231F20" d="M58.632,146.703h-1.984l-3.885-4.466v4.466h-1.444v-8.334h1.444v3.811l3.744-3.811h1.909l-3.91,3.844
		L58.632,146.703z"/>
	<path fill="#231F20" d="M77.068,139.614h-3.163v7.089h-1.461v-7.089h-3.163v-1.245h7.786V139.614z"/>
	<path fill="#231F20" d="M86.298,142.387c0,0.741-0.104,1.389-0.312,1.942c-0.207,0.554-0.494,1.013-0.859,1.378
		s-0.797,0.639-1.295,0.822c-0.498,0.182-1.038,0.273-1.619,0.273c-0.266,0-0.53-0.014-0.793-0.041
		c-0.263-0.028-0.53-0.075-0.801-0.142v3.486h-1.444v-11.737h1.287l0.091,1.395c0.415-0.57,0.858-0.97,1.328-1.199
		s0.979-0.345,1.527-0.345c0.476,0,0.894,0.1,1.253,0.299s0.661,0.48,0.905,0.843s0.426,0.8,0.548,1.312
		S86.298,141.756,86.298,142.387z M84.821,142.453c0-0.438-0.032-0.838-0.096-1.203c-0.063-0.365-0.165-0.679-0.303-0.938
		s-0.315-0.464-0.531-0.61s-0.473-0.22-0.772-0.22c-0.183,0-0.368,0.029-0.556,0.087c-0.188,0.059-0.383,0.155-0.585,0.291
		c-0.202,0.136-0.415,0.315-0.64,0.539c-0.224,0.225-0.463,0.502-0.718,0.834v4.043c0.266,0.11,0.545,0.198,0.838,0.262
		s0.581,0.096,0.863,0.096c0.78,0,1.392-0.265,1.834-0.793S84.821,143.516,84.821,142.453z"/>
	<path fill="#231F20" d="M95.935,138.369l-2.839,7.454c-0.293,0.758-0.596,1.411-0.909,1.959c-0.313,0.548-0.655,0.997-1.025,1.349
		s-0.777,0.61-1.22,0.776s-0.938,0.249-1.486,0.249c-0.144,0-0.274-0.003-0.39-0.008c-0.116-0.006-0.244-0.015-0.382-0.025v-1.312
		c0.122,0.017,0.254,0.032,0.398,0.046s0.296,0.021,0.457,0.021c0.266,0,0.513-0.039,0.743-0.116
		c0.229-0.077,0.447-0.203,0.651-0.378c0.205-0.174,0.401-0.399,0.589-0.677c0.188-0.276,0.371-0.611,0.548-1.004l-3.329-8.334
		h1.644l2.108,5.512l0.423,1.295l0.481-1.328l1.951-5.479H95.935z"/>
	<path fill="#231F20" d="M105.606,145.458l-0.091,3.37h-1.32v-2.125h-6.076v2.125h-1.303l-0.083-3.37h0.116
		c0.21,0,0.41-0.033,0.598-0.1s0.362-0.192,0.523-0.378s0.309-0.442,0.444-0.771c0.135-0.329,0.257-0.756,0.365-1.278
		c0.107-0.523,0.202-1.158,0.282-1.905c0.08-0.747,0.148-1.633,0.203-2.656h5.146v7.089H105.606z M102.966,139.614h-2.324
		c-0.055,0.952-0.127,1.763-0.216,2.433c-0.088,0.669-0.192,1.23-0.312,1.685c-0.119,0.454-0.256,0.816-0.411,1.087
		c-0.155,0.271-0.327,0.484-0.515,0.64h3.777V139.614z"/>
	<path fill="#231F20" d="M112.57,146.703l-0.033-1.121c-0.454,0.449-0.915,0.772-1.382,0.972c-0.467,0.199-0.958,0.299-1.473,0.299
		c-0.476,0-0.883-0.061-1.22-0.183s-0.616-0.289-0.834-0.502c-0.219-0.213-0.379-0.464-0.481-0.752
		c-0.103-0.287-0.154-0.6-0.154-0.938c0-0.836,0.311-1.49,0.934-1.963c0.622-0.474,1.542-0.71,2.76-0.71h1.727v-0.73
		c0-0.492-0.158-0.887-0.473-1.183s-0.797-0.444-1.444-0.444c-0.47,0-0.934,0.053-1.39,0.157c-0.457,0.105-0.929,0.255-1.416,0.449
		v-1.304c0.183-0.066,0.386-0.132,0.61-0.195c0.225-0.063,0.461-0.12,0.71-0.17s0.509-0.09,0.78-0.12s0.545-0.046,0.822-0.046
		c0.503,0,0.958,0.056,1.361,0.166s0.746,0.279,1.025,0.507c0.28,0.227,0.494,0.512,0.644,0.854s0.224,0.747,0.224,1.212v5.744
		H112.57z M112.412,142.91h-1.834c-0.36,0-0.669,0.035-0.93,0.107s-0.473,0.174-0.639,0.307s-0.289,0.292-0.369,0.478
		c-0.081,0.186-0.121,0.395-0.121,0.627c0,0.16,0.025,0.314,0.075,0.461s0.13,0.276,0.241,0.39s0.254,0.203,0.432,0.27
		s0.393,0.1,0.647,0.1c0.332,0,0.712-0.101,1.141-0.303c0.429-0.202,0.881-0.521,1.357-0.959V142.91z"/>
</g>
<g>
	<g>
		<line fill="none" stroke="#6D6E70" stroke-miterlimit="10" x1="266" y1="84" x2="444.966" y2="84"/>
		<g>
			<path fill="#6D6E70" d="M451,84c-2.84,1.055-6.362,2.852-8.547,4.756L444.174,84l-1.721-4.755
				C444.637,81.149,448.16,82.947,451,84z"/>
		</g>
	</g>
</g>
<g>
	<g>
		<line fill="none" stroke="#6D6E70" stroke-miterlimit="10" x1="264.758" y1="144.094" x2="445.77" y2="108.588"/>
		<g>
			<path fill="#6D6E70" d="M451.691,107.426c-2.584,1.581-5.695,4.023-7.472,6.313l0.771-4.998l-2.604-4.336
				C444.898,105.854,448.702,106.939,451.691,107.426z"/>
		</g>
	</g>
</g>
<g>
	<g>
		<line fill="none" stroke="#6D6E70" stroke-miterlimit="10" x1="266.805" y1="23.667" x2="445.276" y2="59.155"/>
		<g>
			<path fill="#6D6E70" d="M451.195,60.333c-2.991,0.479-6.797,1.556-9.311,2.998l2.613-4.329l-0.76-4.999
				C445.51,56.296,448.615,58.746,451.195,60.333z"/>
		</g>
	</g>
</g>
</svg>
