<?xml version="1.0" encoding="utf-8"?>
<!-- Generator: Adobe Illustrator 15.1.0, SVG Export Plug-In . SVG Version: 6.00 Build 0)  -->
<!DOCTYPE svg PUBLIC "-//W3C//DTD SVG 1.1//EN" "http://www.w3.org/Graphics/SVG/1.1/DTD/svg11.dtd">
<svg version="1.1" id="Layer_1" xmlns="http://www.w3.org/2000/svg" xmlns:xlink="http://www.w3.org/1999/xlink" x="0px" y="0px"
	 width="1149px" height="492px" viewBox="0 0 1149 492" enable-background="new 0 0 1149 492" xml:space="preserve">
<g>
	<defs>
		<rect id="SVGID_1_" x="-39.429" y="-10" width="1200.041" height="496.17"/>
	</defs>
	<clipPath id="SVGID_2_">
		<use xlink:href="#SVGID_1_"  overflow="visible"/>
	</clipPath>
	<g clip-path="url(#SVGID_2_)">
		<g>
			<path fill="#5A6D77" d="M696.045,692.016c-0.587-7.308-6.71-13.062-14.169-13.062c-7.465,0-13.584,5.754-14.162,13.062H696.045z"
				/>
			<g>
				<rect x="694.097" y="537.951" fill="#5A6D77" width="159.568" height="9.955"/>
				<path fill="#3A8399" d="M861.189,529.656c0,4.578-4.29,8.295-9.563,8.295H694.637c-5.291,0-9.571-3.717-9.571-8.295l0,0
					c0-4.582,4.28-8.288,9.571-8.288h156.989C856.899,521.368,861.189,525.074,861.189,529.656L861.189,529.656z"/>
				<path fill="#5A6D77" d="M690.542,686.112c-0.483,3.074-3.355,5.184-6.437,4.703l0,0c-3.066-0.471-5.161-3.345-4.696-6.424
					l21.085-136.698c0.474-3.069,3.359-5.174,6.419-4.7l0,0c3.072,0.474,5.184,3.348,4.692,6.418L690.542,686.112z"/>
				<path fill="#5A6D77" d="M853.203,686.112c0.474,3.074,3.35,5.184,6.423,4.703l0,0c3.065-0.471,5.177-3.345,4.699-6.424
					l-21.09-136.698c-0.463-3.069-3.348-5.174-6.411-4.7l0,0c-3.088,0.474-5.196,3.348-4.709,6.418L853.203,686.112z"/>
			</g>
			<path fill="#5A6D77" d="M846.221,692.016c0.587-7.308,6.702-13.062,14.162-13.062c7.457,0,13.577,5.754,14.167,13.062H846.221z"
				/>
			<path fill="#3A8399" d="M841.473,338.812h-69.518h-0.178h-69.513c-8.877,0-16.082,6.583-16.082,14.713l20.284,152.87
				c0,8.118,7.207,14.694,16.088,14.694h49.223h0.178h49.226c8.891,0,16.081-6.576,16.081-14.694l20.304-152.87
				C857.565,345.395,850.361,338.812,841.473,338.812z"/>
		</g>
		<g>
			<rect x="712.737" y="439.537" fill-rule="evenodd" clip-rule="evenodd" fill="#445A7D" width="129.48" height="26.273"/>
			<path fill-rule="evenodd" clip-rule="evenodd" d="M825.831,586.07c2.018,2.155,2.988,4.736,2.907,7.734l-0.929,76.785
				c-0.076,2.998-1.123,5.58-3.144,7.733c-2.018,2.079-4.458,3.118-7.324,3.118c-2.873-0.078-5.28-1.197-7.218-3.349
				c-2.018-2.153-3.024-4.733-3.024-7.735l1.046-76.781c0-3.001,1.049-5.545,3.146-7.62c2.012-2.155,4.457-3.232,7.325-3.232
				C821.489,582.801,823.894,583.918,825.831,586.07z"/>
			<path fill-rule="evenodd" clip-rule="evenodd" fill="#445A7D" d="M833.413,395.676l-3.378,263.943l-40.368-0.461l3.377-263.948
				c0.075-4.849,1.744-8.965,5.002-12.352c3.259-3.391,7.133-5.043,11.637-4.964l7.442,0.113c4.577,0.076,8.454,1.847,11.637,5.311
				C831.939,386.785,833.49,390.903,833.413,395.676z"/>
			<path fill-rule="evenodd" clip-rule="evenodd" fill="#F7A485" d="M762.796,225.83c6.668-0.617,12.875-0.923,18.612-0.923
				l21.64,1.155c-1.395,4.229-3.916,7.694-7.56,10.388c-3.724,2.695-7.875,4.045-12.453,4.045c-4.729,0-8.955-1.384-12.68-4.156
				C766.709,233.641,764.192,230.141,762.796,225.83z"/>
			<path fill-rule="evenodd" clip-rule="evenodd" fill="#3F5272" d="M729.056,350.759h104.592v50.228
				c0,8.696-3.103,16.124-9.309,22.285c-6.204,6.158-13.69,9.232-22.455,9.232h-41.068c-8.764,0-16.248-3.074-22.456-9.232
				c-6.205-6.161-9.304-13.589-9.304-22.285V350.759z"/>
			<path fill-rule="evenodd" clip-rule="evenodd" fill="#445A7D" d="M755.23,432.046c-7.52-1.308-13.723-4.853-18.612-10.624
				c-5.045-5.928-7.563-12.736-7.563-20.436v-50.228h52.353v50.228c0,7.699-2.48,14.508-7.44,20.436
				C768.995,427.193,762.756,430.738,755.23,432.046z"/>
			<g>
				<g>
					<path fill-rule="evenodd" clip-rule="evenodd" fill="#F7A485" d="M781.408,175.144c3.258,0,6.048,1.151,8.375,3.463
						c2.253,2.23,3.377,4.962,3.377,8.197v39.259l-4.771,11.777l-18.847-11.777v-39.259c0-3.235,1.161-5.967,3.486-8.197
						C775.281,176.295,778.072,175.144,781.408,175.144z"/>
				</g>
			</g>
			<g>
				<path fill-rule="evenodd" clip-rule="evenodd" fill="#10122D" d="M817.244,158.515c-0.933,0-1.71-0.31-2.33-0.922
					c-0.699-0.693-1.043-1.504-1.043-2.424c0-0.925,0.344-1.691,1.043-2.313c0.62-0.612,1.397-0.921,2.33-0.921
					c0.931,0,1.745,0.309,2.441,0.921c0.619,0.622,0.929,1.389,0.929,2.313c0,0.92-0.31,1.73-0.929,2.424
					C818.989,158.205,818.175,158.515,817.244,158.515z"/>
				<path fill-rule="evenodd" clip-rule="evenodd" fill="#10122D" d="M790.832,158.515c-0.931,0-1.705-0.31-2.327-0.922
					c-0.702-0.693-1.049-1.504-1.049-2.424c0-0.925,0.347-1.691,1.049-2.313c0.622-0.612,1.396-0.921,2.327-0.921
					c0.933,0,1.705,0.309,2.328,0.921c0.618,0.622,0.932,1.389,0.932,2.313c0,0.92-0.313,1.73-0.932,2.424
					C792.537,158.205,791.765,158.515,790.832,158.515z"/>
			</g>
			<path fill-rule="evenodd" clip-rule="evenodd" fill="#F4E6E6" d="M816.776,180.567c0,3.468-1.242,6.431-3.727,8.891
				c-2.477,2.466-5.504,3.696-9.072,3.696c-3.491,0-6.474-1.23-8.957-3.696c-2.483-2.46-3.723-5.423-3.723-8.891H816.776z"/>
			<path fill-rule="evenodd" clip-rule="evenodd" d="M757.274,585.377c1.936,2.234,2.83,4.85,2.671,7.853
				c-1.547,34.021-2.828,59.538-3.838,76.553c-0.151,3.002-1.319,5.495-3.485,7.503c-2.099,2-4.578,2.926-7.451,2.771
				c-2.865-0.153-5.233-1.348-7.093-3.578c-1.865-2.235-2.72-4.85-2.564-7.854c1.247-21.32,2.486-46.762,3.73-76.316
				c0.148-2.93,1.274-5.43,3.367-7.507c2.172-1.999,4.656-2.961,7.446-2.887C752.929,582.07,755.335,583.224,757.274,585.377z"/>
			<path fill-rule="evenodd" clip-rule="evenodd" fill="#445A7D" d="M770.005,395.788c-2.328,102.227-5.463,190.052-9.422,263.484
				l-40.254-2.194c3.877-73.2,6.983-160.568,9.31-262.1c0.156-4.77,1.858-8.812,5.114-12.12c3.257-3.391,7.176-5.043,11.753-4.964
				l7.328,0.113c4.577,0.158,8.455,1.962,11.634,5.426C768.648,386.899,770.161,391.018,770.005,395.788z"/>
			<path fill-rule="evenodd" clip-rule="evenodd" fill="none" stroke="#1B181D" stroke-width="1.35" d="M745.226,358.838v16.977
				c0,4.466-1.589,8.236-4.771,11.314c-3.102,3.158-6.899,4.73-11.398,4.73"/>
			
				<line fill-rule="evenodd" clip-rule="evenodd" fill="none" stroke="#1B181D" stroke-width="1.35" x1="729.056" y1="358.838" x2="833.647" y2="358.838"/>
			
				<line fill-rule="evenodd" clip-rule="evenodd" fill="none" stroke="#445A7D" stroke-width="1.35" x1="792.573" y1="439.204" x2="809.563" y2="439.549"/>
			<path fill-rule="evenodd" clip-rule="evenodd" fill="#6D3D3E" d="M803.738,109.906l19.776-11.431
				c1.863,4.154,2.095,8.391,0.696,12.7c-1.393,4.313-4.07,7.582-8.028,9.816L803.738,109.906z"/>
			<path fill-rule="evenodd" clip-rule="evenodd" fill="#FDD29A" d="M772.372,231.09c-2.544-2.539-3.814-5.598-3.814-9.17v-18.26
				h26.082v18.26c0,3.59-1.273,6.645-3.813,9.17c-2.545,2.522-5.624,3.788-9.242,3.788
				C777.984,234.878,774.917,233.612,772.372,231.09z"/>
			<path fill-rule="evenodd" clip-rule="evenodd" fill="#FDD29A" d="M745.978,139.494c3.84,0,7.117,1.437,9.834,4.306
				c2.712,2.864,4.077,6.331,4.077,10.402c0,4.05-1.365,7.522-4.077,10.405c-2.717,2.872-5.994,4.303-9.834,4.303
				c-3.858,0-7.149-1.431-9.86-4.303c-2.724-2.883-4.08-6.355-4.08-10.405c0-4.071,1.356-7.538,4.08-10.402
				C738.828,140.931,742.119,139.494,745.978,139.494z"/>
			<path fill-rule="evenodd" clip-rule="evenodd" fill="#FDD29A" d="M806.136,95.45c6.511,5.145,9.765,12.105,9.765,20.861v63.033
				c0,9.065-3.254,16.828-9.765,23.284c-6.502,6.439-14.325,9.658-23.461,9.658h-2.467c-9.117,0-16.929-3.219-23.437-9.658
				c-6.503-6.456-9.758-14.219-9.758-23.284v-63.033c0-8.756,3.255-15.716,9.758-20.861c6.11-4.842,13.924-7.263,23.437-7.263h2.467
				C792.192,88.187,800.009,90.608,806.136,95.45z"/>
			<path fill-rule="evenodd" clip-rule="evenodd" fill="#FDD29A" d="M825.815,142.172c2.713,2.888,4.073,6.353,4.073,10.408
				c0,4.066-1.36,7.547-4.073,10.435c-2.721,2.867-6.007,4.298-9.864,4.298c-3.843,0-7.122-1.431-9.837-4.298
				c-2.72-2.888-4.078-6.368-4.078-10.435c0-4.056,1.358-7.521,4.078-10.408c2.715-2.867,5.994-4.303,9.837-4.303
				C819.809,137.869,823.095,139.305,825.815,142.172z"/>
			<path fill-rule="evenodd" clip-rule="evenodd" fill="#834B4B" d="M748.96,165.639c0,5.119,1.729,9.506,5.192,13.16
				c3.443,3.643,7.586,5.462,12.43,5.462h28.758c4.846,0,8.988-1.819,12.435-5.462c3.46-3.654,5.191-8.041,5.191-13.16v-28.77
				c2.075,2.226,3.236,10.113,3.475,23.641c0.104,6.773,0.012,13.312-0.284,19.635c-0.118,14.628-2.76,24.655-7.912,30.081
				c-2.427,2.543-5.557,4.347-9.398,5.412c-3.339,0.941-7.598,1.414-12.77,1.414h-10.228c-5.223,0-9.504-0.428-12.844-1.289
				c-3.912-1.01-7.087-2.72-9.528-5.127c-5.274-5.202-7.845-14.835-7.708-28.895c-0.293-6.582-0.379-13.39-0.258-20.43
				c0.223-14.063,1.374-22.217,3.449-24.443V165.639z"/>
			<path fill-rule="evenodd" clip-rule="evenodd" fill="#834B4B" d="M803.023,94.933c3.895-0.533,6.548-0.744,7.966-0.644
				c2.322,0.168,4.001,1.064,5.036,2.677c1.181,1.841,1.768,4.877,1.768,9.12l-0.054,7.779c-0.085,6.25-0.249,12.088-0.494,17.514
				c-0.775,17.345-2.204,27.227-4.279,29.646v-31.316c0-5.584-1.731-10.359-5.191-14.323c-3.446-3.964-7.589-5.951-12.435-5.951
				h-28.758c-4.844,0-8.986,1.987-12.43,5.951c-3.463,3.963-5.192,8.739-5.192,14.323v31.316
				c-2.075-2.419-3.501-12.301-4.282-29.646c-0.244-5.425-0.409-11.264-0.491-17.514l-0.055-7.779c0-8.451,2.215-14.46,6.649-18.032
				c3.87-3.107,9.955-4.658,18.245-4.658l23.54,12.439C795.228,95.835,798.717,95.531,803.023,94.933z"/>
			<path fill-rule="evenodd" clip-rule="evenodd" fill="#834B4B" d="M763.576,171.282c3.42-1.529,9.216-2.294,17.388-2.294
				c8.166,0,13.96,0.765,17.386,2.294c4.795,2.124,7.193,6.23,7.193,12.309c0,6.716-2.398,12.447-7.193,17.182
				c-4.81,4.739-10.602,7.107-17.386,7.107s-12.579-2.368-17.388-7.107c-4.793-4.734-7.191-10.466-7.191-17.182
				C756.385,177.513,758.783,173.406,763.576,171.282z"/>
			<path fill-rule="evenodd" clip-rule="evenodd" fill="#FDD29A" d="M788.62,184.134c2.301,0.514,4.481,0.773,6.539,0.773
				c0,1.715-1.485,3.184-4.464,4.401c-2.979,1.225-6.577,1.83-10.796,1.83c-4.225,0-7.823-0.605-10.796-1.83
				c-2.977-1.218-4.465-2.687-4.465-4.401l1.87-0.104c1.518-0.117,2.972-0.344,4.358-0.669c4.482-1.032,7.493-2.843,9.032-5.435
				C781.123,181.291,784.031,183.102,788.62,184.134z"/>
			<path fill-rule="evenodd" clip-rule="evenodd" fill="#6D3D3E" d="M822.203,89.575l-4.672,34.234
				c-0.349-0.842-0.933-1.816-1.762-2.911c-1.663-2.199-3.686-3.95-6.076-5.258c-7.683-4.171-17.613-3.105-29.794,3.192
				c-1.784-1.217-4.018-2.366-6.697-3.447c-5.4-2.149-10.39-2.824-14.978-2.036c-4.566,0.787-8.235,2.929-11.003,6.415
				c-0.864,1.096-1.59,2.267-2.182,3.502c-0.273,0.613-0.475,1.125-0.596,1.519l-0.229-21.531c-0.124-1.94,0.186-4.223,0.93-6.853
				c1.509-5.255,4.448-9.593,8.826-13.006c3.854-3.011,7.448-5.336,10.769-6.983c1.664-0.84,2.935-1.377,3.818-1.6l1.088,1.855
				c1.003,1.309,2.225,2.124,3.66,2.448c1.696-3.845,5.31-6.481,10.847-7.904c2.771-0.708,5.377-1.022,7.815-0.958l-1.971,3.866
				c-1.228,3.019-1.657,5.624-1.274,7.805c2.198-3.041,6.264-4.465,12.198-4.279c2.959,0.104,5.704,0.509,8.227,1.212l-1.271,4.457
				c-1.004,3.656-1.896,7.228-2.67,10.716c4.051-3.744,8.094-5.61,12.144-5.591C819.375,88.44,820.996,88.819,822.203,89.575z"/>
			<path fill-rule="evenodd" clip-rule="evenodd" d="M767.232,141.967c-0.463,0.583-1.104,0.864-1.917,0.864
				c-0.813,0-1.511-0.281-2.101-0.864c-0.459-0.457-0.694-1.094-0.694-1.904c0-0.805,0.235-1.495,0.694-2.076
				c0.59-0.461,1.287-0.688,2.101-0.688c0.813,0,1.454,0.228,1.917,0.688c0.584,0.581,0.879,1.271,0.879,2.076
				C768.111,140.873,767.816,141.51,767.232,141.967z"/>
			<path fill-rule="evenodd" clip-rule="evenodd" d="M799.252,141.967c-0.465,0.583-1.106,0.864-1.916,0.864
				c-0.817,0-1.514-0.281-2.095-0.864c-0.467-0.457-0.699-1.094-0.699-1.904c0-0.805,0.232-1.495,0.699-2.076
				c0.581-0.461,1.277-0.688,2.095-0.688c0.81,0,1.451,0.228,1.916,0.688c0.586,0.581,0.875,1.271,0.875,2.076
				C800.127,140.873,799.838,141.51,799.252,141.967z"/>
			<path fill-rule="evenodd" clip-rule="evenodd" fill="#FDD29A" d="M868.141,400.623l-0.695,14.551
				c-0.155,4.389,0.541,7.62,2.095,9.697l0.696,1.042c2.173,2.844,3.683,6.002,4.537,9.465l0.698,2.658
				c0.387,1.384,1.319,2.461,2.792,3.228c1.396,0.771,2.909,0.966,4.539,0.581l1.862-0.464c1.627-0.384,3.215-1.23,4.77-2.536
				c1.476-1.311,2.479-2.697,3.021-4.157l2.56-7.158c0.465-1.466,0.548-3.119,0.232-4.964c-0.232-1.852-0.811-3.389-1.743-4.62
				l-3.487-4.618c-1.167-1.619-3.453-7.466-6.866-17.552L868.141,400.623z"/>
			<g>
				<path fill-rule="evenodd" clip-rule="evenodd" fill="#2F4678" d="M720.608,234.773c7.092-7.04,15.644-10.562,25.644-10.562
					h63.685c10.12,0,18.732,3.521,25.829,10.562c7.092,7.044,10.642,15.527,10.642,25.452l-4.196,180.154H712.754l-2.793-180.154
					C709.961,250.301,713.506,241.817,720.608,234.773z"/>
				<polygon fill-rule="evenodd" clip-rule="evenodd" fill="#445A7D" points="753.281,263.716 743.556,250.698 758.219,225.17 
					776.336,388.514 739.783,274.695 				"/>
				<polygon fill-rule="evenodd" clip-rule="evenodd" fill="#445A7D" points="804.376,263.716 817.875,274.695 776.336,388.514 
					799.438,225.17 814.101,250.698 				"/>
				<polygon fill-rule="evenodd" clip-rule="evenodd" fill="#EAF6FD" points="758.219,225.17 801.823,225.17 776.336,388.514 				
					"/>
				<polygon fill-rule="evenodd" clip-rule="evenodd" fill="#FFFFFF" points="765.157,217.077 780.336,239.864 765.448,255.305 
					751.161,230.588 				"/>
				<polygon fill-rule="evenodd" clip-rule="evenodd" fill="#FFFFFF" points="794.42,217.362 808.407,230.876 794.915,255.305 
					780.336,239.864 				"/>
				<polygon fill-rule="evenodd" clip-rule="evenodd" fill="#C96959" points="780.336,239.864 787.711,315.514 776.336,388.514 
					768.23,315.572 				"/>
				<polygon fill-rule="evenodd" clip-rule="evenodd" fill="#C96959" points="780.336,239.864 791.344,251.532 779.146,265.934 
					768.551,252.021 				"/>
				<g>
					<path fill-rule="evenodd" clip-rule="evenodd" fill="#2F4678" d="M834.115,232.045c-4.162-2.651-7.702-4.445-10.625-5.39
						l-8.943,26.591c1.881,0.73,4.171,2.076,6.884,4.034c5.395,3.899,10.418,9.031,15.065,15.413
						c14.765,20.261,23.07,48.951,24.906,86.076c0.754,15.401,1.036,30.287,0.843,44.65h28.275
						c0.193-15.073-0.105-30.407-0.898-46.004c-2.266-45.784-13.653-81.152-34.167-106.099
						C848.932,243.363,841.819,236.943,834.115,232.045z"/>
				</g>
			</g>
			<path fill-rule="evenodd" clip-rule="evenodd" d="M711.474,673.127l0.229,20.094h47.818v-18.938c0-2.771-1.009-5.156-3.024-7.16
				c-2.018-1.999-4.424-3.001-7.215-3.001h-27.69c-0.311,2.54-1.434,4.699-3.376,6.469
				C716.355,672.279,714.106,673.127,711.474,673.127z"/>
			<path fill-rule="evenodd" clip-rule="evenodd" d="M697.619,686.062v7.159h31.764v-7.159c0-3.542-1.283-6.581-3.842-9.125
				c-2.484-2.54-5.505-3.81-9.07-3.81h-5.818c-3.646,0-6.711,1.27-9.193,3.81C698.899,679.48,697.619,682.52,697.619,686.062z"/>
			<path fill-rule="evenodd" clip-rule="evenodd" d="M750.215,677.055c-2.486,2.465-3.729,5.465-3.729,9.007v7.159h13.035v-18.938
				l-0.117-1.155C755.839,673.21,752.773,674.517,750.215,677.055z"/>
			<path fill-rule="evenodd" clip-rule="evenodd" d="M740.094,664.815v-2.312c0-1.613-0.624-3.003-1.864-4.151
				c-1.166-1.234-2.558-1.849-4.193-1.849h-6.395c-1.707,0-3.141,0.614-4.304,1.849c-1.163,1.148-1.746,2.538-1.746,4.151v2.312
				H740.094z"/>
			<rect x="695.767" y="686.522" fill-rule="evenodd" clip-rule="evenodd" width="63.755" height="6.698"/>
			<path fill-rule="evenodd" clip-rule="evenodd" d="M818.507,664.121h-27.693c-0.23,2.54-1.316,4.699-3.254,6.469
				c-1.942,1.689-4.229,2.537-6.86,2.537l0.229,20.094h47.814v-18.938c0-2.771-1.01-5.156-3.021-7.16
				C823.782,665.123,821.377,664.121,818.507,664.121z"/>
			<path fill-rule="evenodd" clip-rule="evenodd" d="M764.986,686.062v7.159h31.88v-7.159c0-3.542-1.278-6.581-3.84-9.125
				c-2.56-2.54-5.621-3.81-9.19-3.81h-5.819c-3.645,0-6.707,1.27-9.19,3.81C766.266,679.48,764.986,682.52,764.986,686.062z"/>
			<path fill-rule="evenodd" clip-rule="evenodd" d="M828.63,673.127c-3.57,0.083-6.635,1.39-9.195,3.928
				c-2.479,2.465-3.722,5.465-3.722,9.007v7.159h13.03v-18.938L828.63,673.127z"/>
			<path fill-rule="evenodd" clip-rule="evenodd" d="M809.313,664.815v-2.312c0-1.613-0.577-3.003-1.74-4.151
				c-1.166-1.234-2.603-1.849-4.309-1.849h-6.398c-1.625,0-3.065,0.614-4.306,1.849c-1.164,1.148-1.747,2.538-1.747,4.151v2.312
				H809.313z"/>
			<rect x="764.986" y="686.522" fill-rule="evenodd" clip-rule="evenodd" width="63.757" height="6.698"/>
			
				<line fill-rule="evenodd" clip-rule="evenodd" stroke="#030305" stroke-width="1.35" stroke-linecap="round" x1="800.127" y1="666.544" x2="791.048" y2="666.544"/>
			
				<line fill-rule="evenodd" clip-rule="evenodd" stroke="#030305" stroke-width="1.35" stroke-linecap="round" x1="796.866" y1="671.512" x2="787.79" y2="671.512"/>
			
				<line fill-rule="evenodd" clip-rule="evenodd" stroke="#030305" stroke-width="1.35" stroke-linecap="round" x1="730.088" y1="666.544" x2="721.01" y2="666.544"/>
			
				<line fill-rule="evenodd" clip-rule="evenodd" stroke="#030305" stroke-width="1.35" stroke-linecap="round" x1="726.831" y1="671.512" x2="717.75" y2="671.512"/>
			<g>
				<path fill-rule="evenodd" clip-rule="evenodd" fill="#FDD29A" d="M588.826,272.836l-6.099-13.772
					c-1.897-4.127-4.063-6.793-6.511-8.003l-1.149-0.64c-3.386-1.635-6.298-3.855-8.721-6.669l-1.899-2.13
					c-1.018-1.098-2.405-1.664-4.165-1.702c-1.688-0.068-3.217,0.446-4.593,1.553l-1.557,1.289c-1.375,1.099-2.494,2.616-3.361,4.54
					c-0.797,1.889-1.109,3.634-0.95,5.238l0.898,7.792c0.23,1.568,0.933,3.136,2.083,4.7c1.082,1.602,2.351,2.755,3.809,3.463
					l5.477,2.663c1.859,0.964,6.757,5.315,14.701,13.07L588.826,272.836z"/>
				<path fill-rule="evenodd" clip-rule="evenodd" fill="#2F4678" d="M568.896,284.169L586.8,257.63
					c0,0,52.774,50.309,75.128,46.431c20.477-3.547,52.545-60.502,52.545-60.502l20.153,38.343c0,0-39.091,54.874-64.148,59.38
					C641.298,346.528,568.896,284.169,568.896,284.169z"/>
			</g>
			<rect x="557.521" y="82.823" fill-rule="evenodd" clip-rule="evenodd" fill="#AAAAAA" width="12.892" height="409.944"/>
			
				<ellipse transform="matrix(0.8918 0.4524 -0.4524 0.8918 175.5275 -230.7981)" fill-rule="evenodd" clip-rule="evenodd" fill="#FDD29A" cx="570.325" cy="251.601" rx="8.865" ry="5.103"/>
			
				<ellipse transform="matrix(0.968 -0.2511 0.2511 0.968 -46.9339 147.9253)" fill-rule="evenodd" clip-rule="evenodd" fill="#FDD29A" cx="556.24" cy="257.893" rx="7.289" ry="14.109"/>
			<g>
				<g>
					<path fill-rule="evenodd" clip-rule="evenodd" fill="#004FDB" d="M647.414,158.952c0,6.813-5.521,12.334-12.332,12.334H494.286
						c-6.811,0-12.333-5.521-12.333-12.334V18.157c0-6.812,5.521-12.333,12.333-12.333h140.796c6.811,0,12.332,5.521,12.332,12.333
						V158.952z"/>
				</g>
				<g>
					<path fill="#FFFFFF" d="M628.682,164.764H500.685c-6.733,0-12.21-5.477-12.21-12.209V24.556c0-6.733,5.478-12.211,12.21-12.211
						h127.997c6.733,0,12.212,5.478,12.212,12.211v127.999C640.894,159.287,635.415,164.764,628.682,164.764z M500.685,14.345
						c-5.63,0-10.21,4.581-10.21,10.211v127.999c0,5.629,4.581,10.209,10.21,10.209h127.997c5.631,0,10.212-4.58,10.212-10.209
						V24.556c0-5.63-4.581-10.211-10.212-10.211H500.685z"/>
				</g>
				<g>
					<path fill="#FFFFFF" d="M527.91,138.527V37.006h32.894c12.464,0,20.589,0.509,24.375,1.523
						c5.817,1.523,10.688,4.837,14.612,9.938c3.923,5.102,5.886,11.692,5.886,19.771c0,6.232-1.132,11.473-3.393,15.72
						c-2.263,4.248-5.137,7.583-8.622,10.007c-3.486,2.424-7.028,4.028-10.63,4.813c-4.894,0.969-11.98,1.454-21.26,1.454h-13.365
						v38.295H527.91z M548.408,54.181v28.808h11.219c8.078,0,13.479-0.53,16.204-1.593c2.724-1.062,4.858-2.724,6.406-4.986
						c1.546-2.261,2.319-4.893,2.319-7.895c0-3.693-1.085-6.74-3.255-9.141c-2.17-2.4-4.916-3.901-8.24-4.501
						c-2.448-0.461-7.364-0.692-14.75-0.692H548.408z"/>
				</g>
			</g>
		</g>
		<g>
			<path fill="#5A6D77" d="M299.919,687.431c-0.598-7.31-6.708-13.064-14.169-13.064c-7.46,0-13.583,5.755-14.167,13.064H299.919z"
				/>
			<g>
				<rect x="297.968" y="533.363" fill="#5A6D77" width="159.567" height="9.956"/>
				<path fill="#3A8399" d="M465.064,525.072c0,4.576-4.282,8.291-9.57,8.291H298.507c-5.283,0-9.568-3.715-9.568-8.291l0,0
					c0-4.58,4.285-8.292,9.568-8.292h156.987C460.782,516.78,465.064,520.492,465.064,525.072L465.064,525.072z"/>
				<path fill="#5A6D77" d="M294.407,681.525c-0.474,3.074-3.349,5.184-6.425,4.707l0,0c-3.077-0.474-5.174-3.347-4.702-6.428
					l21.089-136.693c0.474-3.072,3.349-5.178,6.426-4.703l0,0c3.066,0.474,5.171,3.346,4.701,6.417L294.407,681.525z"/>
				<path fill="#5A6D77" d="M457.074,681.525c0.472,3.074,3.334,5.184,6.413,4.707l0,0c3.08-0.474,5.185-3.347,4.702-6.428
					l-21.078-136.693c-0.476-3.072-3.348-5.178-6.426-4.703l0,0c-3.064,0.474-5.172,3.346-4.699,6.417L457.074,681.525z"/>
			</g>
			<path fill="#5A6D77" d="M450.097,687.431c0.586-7.31,6.697-13.064,14.154-13.064c7.464,0,13.586,5.755,14.16,13.064H450.097z"/>
			<path fill="#3A8399" d="M445.341,334.228H375.83h-0.18h-69.52c-8.883,0-16.076,6.581-16.076,14.711l20.291,152.87
				c0,8.117,7.202,14.696,16.083,14.696h49.223h0.18h49.222c8.881,0,16.083-6.579,16.083-14.696l20.29-152.87
				C461.426,340.809,454.222,334.228,445.341,334.228z"/>
		</g>
		<g>
			<path fill="#5A6D77" d="M47.942,689.01c-0.587-7.313-6.707-13.065-14.169-13.065c-7.461,0-13.583,5.753-14.167,13.065H47.942z"/>
			<g>
				<rect x="45.989" y="534.945" fill="#5A6D77" width="159.582" height="9.951"/>
				<path fill="#3A8399" d="M213.088,526.653c0,4.575-4.283,8.292-9.569,8.292H46.544c-5.298,0-9.57-3.717-9.57-8.292l0,0
					c0-4.587,4.271-8.291,9.57-8.291H203.52C208.806,518.362,213.088,522.066,213.088,526.653L213.088,526.653z"/>
				<path fill="#5A6D77" d="M42.431,683.107c-0.475,3.074-3.35,5.185-6.413,4.704l0,0c-3.078-0.477-5.186-3.347-4.702-6.416
					l21.076-136.7c0.474-3.077,3.348-5.179,6.425-4.713l0,0c3.078,0.475,5.186,3.365,4.702,6.425L42.431,683.107z"/>
				<path fill="#5A6D77" d="M205.099,683.107c0.472,3.074,3.346,5.185,6.413,4.704l0,0c3.077-0.477,5.184-3.347,4.711-6.416
					l-21.079-136.7c-0.473-3.077-3.36-5.179-6.436-4.713l0,0c-3.066,0.475-5.173,3.365-4.701,6.425L205.099,683.107z"/>
			</g>
			<path fill="#5A6D77" d="M198.12,689.01c0.587-7.313,6.695-13.065,14.158-13.065c7.471,0,13.58,5.753,14.167,13.065H198.12z"/>
			<path fill="#3A8399" d="M32.082,346.097l-11.418,2.398l-0.033,0.008l-11.407,2.391c-1.465,0.313-1.283,7.003,0.373,14.95
				l34.772,148.905c1.68,7.948,4.204,14.142,5.669,13.828l8.084-1.691l0.021-0.012l8.093-1.696
				c1.466-0.308,1.285-6.991-0.374-14.939L37.751,359.926C36.083,351.979,33.548,345.79,32.082,346.097z"/>
		</g>
		<g>
			<path fill="#5A6D77" d="M1102.877,685.604c0.598-7.311,6.711-13.063,14.181-13.063c7.449,0,13.569,5.753,14.159,13.063H1102.877z
				"/>
			<g>
				<rect x="945.261" y="531.537" fill="#5A6D77" width="159.567" height="9.955"/>
				<path fill="#3A8399" d="M937.73,523.245c0,4.578,4.292,8.292,9.563,8.292h156.988c5.288,0,9.574-3.714,9.574-8.292l0,0
					c0-4.58-4.286-8.292-9.574-8.292H947.294C942.022,514.953,937.73,518.665,937.73,523.245L937.73,523.245z"/>
				<path fill="#5A6D77" d="M1108.373,679.701c0.487,3.074,3.365,5.181,6.438,4.708l0,0c3.083-0.478,5.182-3.351,4.702-6.428
					l-21.077-136.694c-0.489-3.072-3.346-5.18-6.421-4.705l0,0c-3.083,0.475-5.188,3.345-4.714,6.418L1108.373,679.701z"/>
				<path fill="#5A6D77" d="M945.724,679.701c-0.478,3.074-3.35,5.181-6.415,4.708l0,0c-3.073-0.478-5.188-3.351-4.712-6.428
					l21.089-136.694c0.474-3.072,3.357-5.18,6.421-4.705l0,0c3.081,0.475,5.178,3.345,4.717,6.418L945.724,679.701z"/>
			</g>
			<path fill="#5A6D77" d="M952.711,685.604c-0.599-7.311-6.71-13.063-14.164-13.063c-7.468,0-13.589,5.753-14.173,13.063H952.711z"
				/>
			<path fill="#3A8399" d="M1118.735,342.692l11.42,2.403h0.022l11.417,2.397c1.465,0.306,1.298,6.994-0.374,14.943l-34.773,148.908
				c-1.662,7.952-4.199,14.133-5.656,13.827l-8.094-1.687l-0.022-0.017l-8.088-1.699c-1.454-0.305-1.287-6.986,0.371-14.935
				l28.111-150.314C1114.743,348.571,1117.279,342.385,1118.735,342.692z"/>
		</g>
		<g>
			<path fill="#141818" d="M819.933,416.024c0,2.759,2.253,5.001,5.023,5.001h79.95c2.764,0,5.021-2.242,5.021-5.001l0,0
				c0-2.752-2.258-4.986-5.021-4.986h-79.95C822.186,411.038,819.933,413.272,819.933,416.024L819.933,416.024z"/>
			<polygon fill="#141818" points="822.445,420.724 832.321,418.298 815.517,350.448 809.801,351.841 			"/>
		</g>
		<g>
			<path fill="#141818" d="M306.924,418.332c0,2.758-2.251,5.003-5.017,5.003h-79.957c-2.773,0-5.015-2.245-5.015-5.003l0,0
				c0-2.752,2.242-4.985,5.015-4.985h79.957C304.672,413.347,306.924,415.58,306.924,418.332L306.924,418.332z"/>
			<polygon fill="#141818" points="304.411,423.032 294.528,420.604 311.333,352.753 317.057,354.148 			"/>
		</g>
		<g>
			<path fill="#3A2316" d="M964.066,258.093h23.555c7.732,0,14.021-6.276,14.021-14.019v-50.446h-37.575V258.093z"/>
			<path fill="#F69320" d="M931.875,501.921c-1.039-3.103-0.471-7.92,1.236-10.703l3.317-5.384
				c1.725-2.779,6.416-19.873,6.416-19.873l14.774,4.279c0,0,0.499,6.249,0.921,16.062c0.144,3.271-0.149,8.104-1.836,10.896
				l-0.683,1.091c-1.688,2.801-3.642,7.703-4.332,10.901L931.875,501.921z"/>
			<g>
				<path fill="#028BC0" d="M976.146,477.068c0,0,2.307-36.513,3.926-73.141c1.697-36.599,2.779-73.273,2.779-73.273
					c0.439-15.282-5.088-28.313-12.313-29.12c-7.231-0.792-13.436,10.647-13.865,25.53c0,0-1.062,35.854-2.718,71.552
					c-1.575,35.731-3.813,71.233-3.813,71.233L976.146,477.068z"/>
			</g>
			<path fill="#F69320" d="M954.227,505.827c-0.274,3.593-3.387,6.289-6.983,6.031l-10.21-0.748
				c-3.587-0.273-6.287-3.387-6.013-6.97c0.259-3.596,3.384-6.289,6.967-6.026l10.213,0.739
				C951.8,499.122,954.483,502.252,954.227,505.827z"/>
			<path fill="#187D8F" d="M900.534,590.615c-0.018-6.587-5.144-11.904-11.443-11.887l0,0c-6.31,0.011-11.419,5.357-11.401,11.935
				l-3.334,83.793c0.016,6.571,5.146,11.891,11.454,11.88l0,0c6.308-0.017,11.406-5.36,11.391-11.938L900.534,590.615z"/>
			<path d="M868.621,662.372l2.967-175.077c-0.023-6.396,7.186-11.593,16.1-11.61l7.172-0.008
				c8.912-0.02,16.164,5.164,16.178,11.567l-2.953,175.061L868.621,662.372z"/>
			<polygon fill="#EBE5E1" points="908.057,649.256 868.599,649.35 868.599,644.503 908.043,644.395 			"/>
			<path d="M895.23,667.147h-30.623c-0.602,5.64-5.371,10.027-11.177,10.027l0.174,22.283h52.867v-21.056
				C906.472,672.188,901.442,667.147,895.23,667.147z"/>
			<path d="M871.191,699.458v-7.908c0-7.94-6.438-14.375-14.369-14.375h-6.436c-7.942,0-14.369,6.435-14.369,14.375v7.908H871.191z"
				/>
			<path d="M906.35,677.175c0.048,0.422,0.122,0.812,0.122,1.228v21.056h-14.399v-7.908
				C892.072,683.642,898.448,677.229,906.35,677.175z"/>
			<path d="M884.992,667.904v-2.578c0-3.692-2.988-6.678-6.667-6.678h-7.035c-3.687,0-6.674,2.985-6.674,6.678v2.578H884.992z"/>
			<rect x="836.018" y="691.987" width="70.454" height="7.471"/>
			
				<line fill="none" stroke="#020304" stroke-width="1.3653" stroke-linecap="round" x1="873.955" y1="669.765" x2="864.001" y2="669.765"/>
			
				<line fill="none" stroke="#020304" stroke-width="1.3653" stroke-linecap="round" x1="870.341" y1="675.322" x2="860.388" y2="675.322"/>
			<path fill="#3A2316" d="M1019.436,236.5c12.09-3.305,29.4-15.917,35.773-27.299c5.832,9.141,2.686,21.976-2.093,30.901
				c-4.847,9.049-12.659,11.678-22.223,13.063c-5.313,0.762-10.554,0.674-15.834-0.151L1019.436,236.5z"/>
			<path fill="#028BC0" d="M966.205,339.079l4.811-14.269l-2.287-22.686l50.698-22.926l50.693,23.064l-14.585,139.358l-78.184,8.1
				l0.146-60.524l-1.82-18.046C966.35,363.739,962.172,351.028,966.205,339.079z"/>
			<g>
				<path fill="#F7C28D" d="M1023.079,231.451c6.961,0.225,12.413,6.045,12.185,13.005l-1.365,42.151
					c-0.208,6.953-6.041,12.404-12.994,12.173c-6.954-0.221-12.412-6.039-12.183-12.995l1.373-42.133
					C1010.307,236.684,1016.124,231.232,1023.079,231.451z"/>
			</g>
			<path fill="#F7C28D" d="M991.356,270.783c32.494,0,58.593-24.023,58.523-47.227l-0.116-32.77
				c-0.022-7.248-1.889-14.063-5.159-20.007l-71.893,0.258c-2.87,5.965-4.426,12.792-4.399,20.045c0,0-0.415,30.93,0.145,41.217
				C969.627,254.108,976.389,263.528,991.356,270.783z"/>
			<g>
				<path fill="#FFFFFF" d="M1009.294,240.666c-1.089,6.356-6.593,11.186-13.25,11.138c-6.647-0.041-12.1-4.919-13.114-11.271
					L1009.294,240.666z"/>
			</g>
			<path fill="#3A2316" d="M994.913,171.572c-10.371,5.42-23.575,20.209-26.993,31.63c-8.535-7.229-10.146-17.393-7.657-26.315
				c2.514-9.054,12.137-14.578,20.604-17.778c4.711-1.777,9.541-2.776,14.546-3.145L994.913,171.572z"/>
			<path fill="#5B331E" d="M1061.361,217.375c2.957-9.036,5.447-18.515,5.359-23.747c-0.364-20.98-15.795-38.045-36.113-42.019
				c-18.494-3.607-35.854,1.935-52.777,8.776c2.287,4.473,4.821,8.7,7.228,13.111c9.767,17.928,27.545,31.557,47.752,38.9
				l0.014,4.921c0.005,3.994,3.257,7.216,7.252,7.209h12.03L1061.361,217.375z"/>
			<path fill="#1D183C" d="M1007.097,212.53c0,2.089,1.693,3.784,3.785,3.784c2.1,0,3.797-1.695,3.797-3.784
				c0-2.103-1.697-3.806-3.797-3.806C1008.79,208.725,1007.097,210.428,1007.097,212.53z"/>
			<path fill="#1D183C" d="M976.871,212.53c0,2.089,1.69,3.784,3.797,3.784c2.09,0,3.771-1.695,3.771-3.784
				c0-2.103-1.682-3.806-3.771-3.806C978.562,208.725,976.871,210.428,976.871,212.53z"/>
			<path fill="#F9AC8D" d="M1051.665,209.079c-6.485,0-11.756,5.265-11.756,11.744v11.761h11.756
				c6.495,0,11.746-5.257,11.746-11.761C1063.411,214.344,1058.16,209.079,1051.665,209.079z"/>
			<path fill="#187D8F" d="M965.441,589.159c-0.284-6.551-5.607-11.629-11.92-11.37l0,0c-6.296,0.256-11.197,5.797-10.908,12.352
				c1.204,27.844-0.961,55.682,0.618,83.524c0.378,6.567,5.786,11.58,12.092,11.212l0,0c6.291-0.382,11.088-5.976,10.717-12.506
				C964.466,644.668,966.632,616.917,965.441,589.159z"/>
			<path d="M930.51,662.26c-4.543-58.296-3.73-116.484-5.756-174.729c-0.202-6.387,6.913-11.687,15.869-11.806l7.207-0.097
				c8.949-0.116,26.712,11.688,26.712,11.688l-4.433,173.476L930.51,662.26z"/>
			<polygon fill="#D8D1BD" points="969.501,646.879 929.892,649.193 929.667,644.329 969.281,642.052 			"/>
			<path d="M963.521,667.143h-30.623c-0.604,5.645-5.375,10.021-11.171,10.021l0.175,22.288h52.865v-21.058
				C974.767,672.188,969.737,667.143,963.521,667.143z"/>
			<path d="M939.49,699.451v-7.913c0-7.938-6.441-14.375-14.377-14.375h-6.436c-7.941,0-14.367,6.438-14.367,14.375v7.913H939.49z"
				/>
			<path d="M974.646,677.175c0.043,0.416,0.121,0.806,0.121,1.219v21.058h-14.403v-7.913
				C960.363,683.63,966.748,677.225,974.646,677.175z"/>
			<path d="M953.285,667.9v-2.584c0-3.683-2.986-6.668-6.671-6.668h-7.036c-3.677,0-6.667,2.985-6.667,6.668v2.584H953.285z"/>
			<rect x="904.311" y="691.987" width="70.456" height="7.464"/>
			
				<line fill="none" stroke="#020304" stroke-width="1.3653" stroke-linecap="round" x1="943.098" y1="669.765" x2="933.146" y2="669.765"/>
			
				<line fill="none" stroke="#020304" stroke-width="1.3653" stroke-linecap="round" x1="939.49" y1="675.322" x2="929.524" y2="675.322"/>
			<path d="M977.83,482.521c0.006,18.159,13.397,32.894,29.905,32.894h32.722c16.519,0,30.072,2.041,29.899-32.894
				c-0.166-34.94-11.299-52.512-11.299-52.512H977.83V482.521z"/>
			<path fill="#5B331E" d="M1029.148,258.093h23.557c7.747,0,14.016-6.276,14.016-14.019v-50.446h-37.572V258.093z"/>
			<path d="M1070.12,487.553c0,24.957-34.844,39.8-98.406,32.404c-53.985-6.276-98.418-7.447-98.418-32.404
				c0-24.94,44.061-45.164,98.408-45.164C1026.058,442.389,1070.12,462.612,1070.12,487.553z"/>
			<g>
				<path fill="#028BC0" d="M1048.343,321.285c8.76,35.607,17.514,71.215,26.267,106.835c4.806,19.566,34.939,11.261,30.133-8.317
					c-8.745-35.615-17.503-71.218-26.263-106.831C1073.671,293.402,1043.535,301.701,1048.343,321.285L1048.343,321.285z"/>
			</g>
			<g>
				<path fill="#028BC0" d="M1081.926,411.308c-26.119,13.102-52.236,26.199-78.356,39.29c-18.021,9.037-2.19,35.998,15.766,26.995
					c26.123-13.099,52.239-26.191,78.354-39.286C1115.712,429.262,1099.881,402.308,1081.926,411.308L1081.926,411.308z"/>
			</g>
			<g>
				<polygon fill="#FFFFFF" points="993.117,465.879 949.191,477.529 915.666,377.404 959.598,365.76 				"/>
				<polygon fill="#E7E7E9" points="1036.11,454.479 992.196,466.131 958.67,365.993 1002.594,354.352 				"/>
				<polygon fill="#BEBCC0" points="953.085,473.121 951.543,473.526 920.682,381.333 922.211,380.917 				"/>
				<polygon fill="#BEBCC0" points="998.557,360.679 999.173,362.518 921.596,383.085 920.98,381.254 				"/>
				<polygon fill="#BEBCC0" points="1002.129,371.444 1002.747,373.283 925.177,393.858 924.552,392.034 				"/>
				<polygon fill="#BEBCC0" points="1005.841,382.545 1006.45,384.378 928.882,404.946 928.262,403.111 				"/>
				<polygon fill="#BEBCC0" points="1009.309,392.912 1009.93,394.747 932.353,415.322 931.74,413.482 				"/>
				<polygon fill="#BEBCC0" points="1012.981,403.881 1013.59,405.712 936.031,426.293 935.415,424.457 				"/>
				<polygon fill="#BEBCC0" points="1016.589,413.615 1017.206,415.456 939.637,436.031 939.021,434.18 				"/>
				<polygon fill="#BEBCC0" points="1020.527,424.657 1021.146,426.499 943.583,447.064 942.961,445.236 				"/>
				<polygon fill="#BEBCC0" points="1024.053,435.17 1024.672,437.02 947.089,457.586 946.484,455.748 				"/>
				<polygon fill="#BEBCC0" points="1027.132,445.072 1027.742,446.921 950.167,467.488 949.55,465.645 				"/>
			</g>
			<path fill="#F7C28D" d="M1022.276,468.016c0,10.806-7.319,19.566-16.358,19.566c-9.029,0-16.354-8.761-16.354-19.566
				c0-10.795,7.324-19.562,16.354-19.562C1014.957,448.454,1022.276,457.221,1022.276,468.016z"/>
		</g>
		<g>
			<path fill="#EADE86" d="M412.334,308.32h-29.398c-9.661,0-17.488-9.638-17.488-21.533v-77.474h46.887V308.32z"/>
			<path d="M442.158,510.366c0.948-3.013,0.436-7.713-1.157-10.441l-3.069-5.257c-1.582-2.72-5.94-19.401-5.94-19.401l-13.69,4.175
				c0,0-0.462,6.109-0.848,15.691c-0.124,3.192,0.138,7.913,1.708,10.631l0.623,1.071c1.574,2.728,3.375,7.522,4.018,10.643
				L442.158,510.366z"/>
			<g>
				<path fill="#6B8931" d="M401.137,486.104c0,0-2.132-35.657-3.631-71.42c-1.573-35.742-2.572-71.55-2.572-71.55
					c-0.41-14.929,4.714-27.655,11.4-28.436c6.711-0.787,12.447,10.395,12.851,24.92c0,0,0.978,35.022,2.507,69.873
					c1.468,34.897,3.542,69.564,3.542,69.564L401.137,486.104z"/>
			</g>
			<path d="M412.771,596.997c0.008-6.435,4.753-11.631,10.603-11.608l0,0c5.846,0.007,10.573,5.227,10.551,11.661l3.095,81.816
				c-0.02,6.422-4.771,11.61-10.613,11.6l0,0c-5.83-0.008-10.568-5.231-10.558-11.643L412.771,596.997z"/>
			<path d="M442.334,667.071l-2.744-170.967c0.012-6.253-6.668-11.333-14.918-11.343l-6.64-0.014
				c-8.264-0.015-14.97,5.046-14.992,11.294l2.738,170.964L442.334,667.071z"/>
			<rect x="405.811" y="649.563" transform="matrix(-1 -0.0026 0.0026 -1 846.4542 1304.9775)" width="36.542" height="4.742"/>
			<path d="M417.679,671.731h28.366c0.567,5.505,4.984,9.791,10.371,9.791l-0.178,21.758h-48.975v-20.56
				C407.264,676.653,411.931,671.731,417.679,671.731z"/>
			<path d="M439.958,703.28v-7.725c0-7.752,5.955-14.033,13.302-14.033h5.965c7.361,0,13.319,6.281,13.319,14.033v7.725H439.958z"/>
			<path d="M407.381,681.536c-0.047,0.397-0.117,0.779-0.117,1.185v20.56h13.343v-7.725
				C420.606,687.842,414.694,681.579,407.381,681.536z"/>
			<path d="M427.174,672.474v-2.524c0-3.592,2.761-6.519,6.167-6.519h6.521c3.413,0,6.183,2.927,6.183,6.519v2.524H427.174z"/>
			<rect x="407.264" y="696" width="65.281" height="7.28"/>
			<line stroke="#020304" stroke-width="1.3653" stroke-linecap="round" x1="437.399" y1="674.292" x2="446.617" y2="674.292"/>
			<line stroke="#020304" stroke-width="1.3653" stroke-linecap="round" x1="440.739" y1="679.71" x2="449.958" y2="679.71"/>
			<path fill="#3A2316" d="M361.038,251.169c-11.204-3.228-27.239-15.538-33.137-26.65c-5.398,8.925-2.498,21.461,1.93,30.179
				c4.499,8.844,11.73,11.405,20.593,12.764c4.926,0.747,9.776,0.654,14.67-0.145L361.038,251.169z"/>
			<path fill="#6B8931" d="M410.359,351.355l-4.471-13.934l2.117-22.167l-46.963-22.374l-46.96,22.524l13.51,136.086l72.434,7.911
				l-0.135-59.105l1.684-17.609C410.222,375.437,414.093,363.028,410.359,351.355z"/>
			<g>
				<path fill="#F7C28D" d="M357.667,246.257c-6.45,0.219-11.504,5.898-11.286,12.694l1.258,41.152
					c0.201,6.798,5.59,12.119,12.044,11.902c6.429-0.217,11.488-5.901,11.274-12.697l-1.259-41.154
					C369.493,251.364,364.094,246.043,357.667,246.257z"/>
			</g>
			<path fill="#F7C28D" d="M387.049,284.662c-30.095,0-54.286-23.458-54.213-46.115l0.106-32.005
				c0.019-7.077,1.747-13.73,4.77-19.542l66.608,0.265c2.656,5.817,4.096,12.482,4.079,19.563c0,0,0.38,30.204-0.128,40.257
				C407.187,268.369,400.919,277.582,387.049,284.662z"/>
			<g>
				<path fill="#F5F5F5" d="M370.431,255.259c1.017,6.2,6.111,10.907,12.265,10.866c6.165-0.035,11.214-4.805,12.166-11.004
					L370.431,255.259z"/>
			</g>
			<path fill="#EADE86" d="M383.756,187.769c9.608,5.313,21.834,19.74,25.005,30.896c7.908-7.057,9.402-16.988,7.096-25.709
				c-2.337-8.832-11.238-14.228-19.095-17.35c-4.36-1.733-8.833-2.711-13.47-3.062L383.756,187.769z"/>
			<path fill="#FFF8A4" d="M322.194,232.512c-2.734-8.832-5.049-18.1-4.964-23.198c0.337-20.485,14.642-37.153,33.455-41.025
				c17.141-3.525,33.215,1.88,48.902,8.566c-2.124,4.364-4.479,8.496-6.694,12.798c-9.054,17.517-25.521,30.828-44.245,37.986
				l-0.015,4.807c-0.009,3.902-3.021,7.057-6.725,7.042h-11.141L322.194,232.512z"/>
			<path fill="#1D183C" d="M372.456,227.777c0,2.032-1.56,3.689-3.492,3.689c-1.943,0-3.517-1.657-3.517-3.689
				c0-2.058,1.574-3.72,3.517-3.72C370.896,224.058,372.456,225.72,372.456,227.777z"/>
			<path fill="#1D183C" d="M400.479,227.777c0,2.032-1.572,3.689-3.525,3.689c-1.946,0-3.5-1.657-3.5-3.689
				c0-2.058,1.554-3.72,3.5-3.72C398.906,224.058,400.479,225.72,400.479,227.777z"/>
			<path fill="#F9AC8D" d="M331.176,224.401c6.009,0,10.894,5.135,10.894,11.477v11.47h-10.894c-6.014,0-10.884-5.128-10.884-11.47
				S325.162,224.401,331.176,224.401z"/>
			<path d="M335.592,595.573c0.27-6.393,5.198-11.361,11.041-11.099l0,0c5.843,0.257,10.379,5.65,10.106,12.057
				c-1.111,27.188,0.902,54.37-0.563,81.578c-0.354,6.406-5.374,11.298-11.205,10.933l0,0c-5.827-0.374-10.265-5.833-9.923-12.203
				C336.501,649.773,334.488,622.675,335.592,595.573z"/>
			<path d="M367.956,666.961c4.213-56.938,3.462-113.759,5.331-170.636c0.191-6.236-6.388-11.403-14.696-11.523l-6.679-0.093
				c-8.291-0.111-24.749,11.413-24.749,11.413l4.112,169.402L367.956,666.961z"/>
			<polygon points="331.836,651.932 368.53,654.19 368.739,649.452 332.042,647.231 			"/>
			<path d="M337.371,671.721h28.364c0.567,5.516,4.995,9.795,10.362,9.795l-0.154,21.764h-48.991v-20.568
				C326.952,676.653,331.625,671.721,337.371,671.721z"/>
			<path d="M359.646,703.279v-7.724c0-7.759,5.957-14.04,13.318-14.04h5.961c7.356,0,13.306,6.281,13.306,14.04v7.724H359.646z"/>
			<path d="M327.068,681.536c-0.038,0.393-0.116,0.777-0.116,1.175v20.568h13.349v-7.724
				C340.301,687.84,334.378,681.572,327.068,681.536z"/>
			<path d="M346.863,672.471v-2.525c0-3.588,2.764-6.515,6.185-6.515h6.508c3.41,0,6.175,2.927,6.175,6.515v2.525H346.863z"/>
			<rect x="326.952" y="696" width="65.279" height="7.279"/>
			<line stroke="#020304" stroke-width="1.3653" stroke-linecap="round" x1="356.301" y1="674.292" x2="365.514" y2="674.292"/>
			<line stroke="#020304" stroke-width="1.3653" stroke-linecap="round" x1="359.646" y1="679.71" x2="368.866" y2="679.71"/>
			<path d="M399.587,491.438c0,17.739-12.409,32.12-27.705,32.12h-30.322c-15.294,0-27.849,1.991-27.704-32.12
				c0.163-34.128,10.473-51.278,10.473-51.278h75.257V491.438z"/>
			<path fill="#FFF8A4" d="M352.037,309.209h-21.823c-7.167,0-12.983-9.716-12.983-21.724v-78.172h34.807V309.209z"/>
			<path d="M314.082,496.353c0,24.381,23.238,38.855,65.602,31.638c35.994-6.135,65.624-7.257,65.624-31.638
				c0-24.361-29.375-44.111-65.616-44.111C343.457,452.241,314.082,471.991,314.082,496.353z"/>
			<g>
				<line fill="#028BC0" x1="320.292" y1="329.914" x2="295.96" y2="434.25"/>
				<g>
					<path fill="#6B8931" d="M305.225,325.763c-8.104,34.778-16.219,69.558-24.331,104.331c-4.576,19.609,25.57,27.938,30.144,8.311
						c8.105-34.783,16.219-69.553,24.321-104.331C339.935,314.468,309.801,306.143,305.225,325.763L305.225,325.763z"/>
				</g>
			</g>
			<g>
				<line fill="#028BC0" x1="295.838" y1="435.079" x2="368.434" y2="473.434"/>
				<g>
					<path fill="#7B8D5C" d="M287.956,448.574c24.196,12.783,48.391,25.58,72.586,38.365c17.81,9.412,33.6-17.575,15.784-26.992
						c-24.202-12.789-48.398-25.585-72.598-38.369C285.925,412.169,270.126,439.148,287.956,448.574L287.956,448.574z"/>
				</g>
			</g>
			<path fill="#F9AC8D" d="M358.401,477.271c0,10.547,6.792,19.105,15.159,19.105c8.364,0,15.147-8.559,15.147-19.105
				c0-10.558-6.783-19.104-15.147-19.104C365.193,458.168,358.401,466.714,358.401,477.271z"/>
		</g>
		<g>
			<g>
				<line fill="#028BC0" x1="172.406" y1="328.286" x2="225.227" y2="414.415"/>
				<g>
					<path fill="#94A7AE" d="M158.908,336.165c17.61,28.722,35.216,57.424,52.826,86.13c10.518,17.146,37.555,1.458,26.985-15.778
						c-17.608-28.697-35.216-57.416-52.819-86.11C175.379,303.254,148.34,318.944,158.908,336.165L158.908,336.165z"/>
				</g>
			</g>
			<g>
				<path fill="#94A7AE" d="M224.353,425.808c22.09-0.924,44.182-1.856,66.271-2.774c20.074-0.844,20.155-32.107,0-31.259
					c-22.09,0.924-44.182,1.846-66.271,2.774C204.279,395.391,204.192,426.652,224.353,425.808L224.353,425.808z"/>
			</g>
			<path fill="#F7C28D" d="M296.111,408.741c0,9.456,5.493,17.134,12.274,17.134c6.793,0,12.293-7.678,12.293-17.134
				c0-9.468-5.5-17.144-12.293-17.144C301.604,391.598,296.111,399.273,296.111,408.741z"/>
			<path fill="#675E52" d="M211.261,513.128c1.008-3.094,0.465-7.899-1.197-10.687l-3.21-5.393
				c-1.671-2.773-6.224-19.866-6.224-19.866l-14.323,4.285c0,0-0.482,6.253-0.879,16.059c-0.145,3.273,0.133,8.1,1.777,10.893
				l0.656,1.088c1.641,2.805,3.529,7.712,4.197,10.904L211.261,513.128z"/>
			<path fill="#675E52" d="M189.601,517.056c0.259,3.589,3.278,6.273,6.772,6.025l9.889-0.754c3.481-0.269,6.094-3.381,5.841-6.968
				c-0.262-3.603-3.286-6.293-6.767-6.034l-9.897,0.749C191.963,510.337,189.353,513.468,189.601,517.056z"/>
			<path fill="#675E52" d="M241.641,601.834c0.021-6.576,4.979-11.9,11.091-11.889l0,0c6.118,0.021,11.078,5.36,11.056,11.943
				l3.233,83.788c-0.016,6.575-4.983,11.892-11.102,11.877l0,0c-6.11-0.009-11.067-5.352-11.05-11.923L241.641,601.834z"/>
			<path fill="#675E52" d="M272.574,673.588l-2.871-175.066c0.026-6.407-6.959-11.603-15.613-11.616l-6.942-0.008
				c-8.644-0.012-15.667,5.157-15.683,11.564l2.865,175.071L272.574,673.588z"/>
			<polygon fill="#675E52" points="234.354,660.478 272.599,660.572 272.604,655.719 234.362,655.608 			"/>
			<path d="M246.789,678.37h29.676c0.59,5.634,5.212,10.027,10.839,10.027l-0.17,22.277H235.89v-21.061
				C235.89,683.401,240.763,678.37,246.789,678.37z"/>
			<path d="M270.083,710.675v-7.906c0-7.938,6.247-14.371,13.934-14.371h6.243c7.691,0,13.928,6.433,13.928,14.371v7.906H270.083z"
				/>
			<path d="M236.004,688.403c-0.04,0.412-0.114,0.804-0.114,1.211v21.061h13.961v-7.906
				C249.851,694.857,243.653,688.446,236.004,688.403z"/>
			<path fill="#675E52" d="M256.703,679.128v-2.584c0-3.686,2.9-6.675,6.473-6.675h6.817c3.572,0,6.467,2.989,6.467,6.675v2.584
				H256.703z"/>
			<rect x="235.89" y="703.219" width="68.298" height="7.456"/>
			<polyline fill="#94A7AE" points="183.267,337.173 175.544,314.153 122.479,297.333 71.861,314.751 64.693,328.286 
				82.181,477.183 166.418,469.157 169.909,408.394 			"/>
			<g>
				<path fill="#F5F5F5" d="M136.228,255.125c1.051,6.348,6.392,11.169,12.838,11.125c6.445-0.042,11.729-4.913,12.716-11.271
					L136.228,255.125z"/>
			</g>
			<path fill="#675E52" d="M178.736,600.383c0.279-6.542,5.428-11.633,11.535-11.374l0,0c6.115,0.26,10.869,5.8,10.576,12.352
				c-1.154,27.841,0.948,55.677-0.59,83.529c-0.361,6.57-5.613,11.574-11.721,11.204l0,0c-6.098-0.378-10.743-5.961-10.375-12.498
				C179.679,655.881,177.569,628.137,178.736,600.383z"/>
			<path fill="#675E52" d="M212.597,673.482c4.396-58.304,3.615-116.484,5.569-174.732c0.203-6.389-6.692-11.676-15.374-11.794
				l-6.998-0.102c-8.678-0.12-25.886,11.69-25.886,11.69l4.297,173.461L212.597,673.482z"/>
			<polygon fill="#675E52" points="174.793,658.095 213.184,660.414 213.4,655.552 175.014,653.278 			"/>
			<path d="M180.595,678.364h29.678c0.586,5.64,5.219,10.024,10.833,10.024l-0.173,22.283h-51.24V689.61
				C169.693,683.401,174.574,678.364,180.595,678.364z"/>
			<path d="M203.898,710.672v-7.906c0-7.942,6.229-14.377,13.925-14.377h6.23c7.705,0,13.938,6.435,13.938,14.377v7.906H203.898z"/>
			<path d="M169.808,688.403c-0.036,0.408-0.115,0.797-0.115,1.207v21.062h13.96v-7.906
				C183.654,694.857,177.463,688.446,169.808,688.403z"/>
			<path fill="#675E52" d="M190.514,679.119v-2.579c0-3.682,2.899-6.671,6.459-6.671h6.829c3.564,0,6.453,2.989,6.453,6.671v2.579
				H190.514z"/>
			<rect x="169.693" y="703.219" width="68.298" height="7.453"/>
			<path fill="#675E52" d="M166.729,501.459c-0.012,13.91-12.983,25.186-28.994,25.186h-31.719
				c-16.006,0-29.142,1.558-28.971-25.186c0.145-26.755,10.941-40.204,10.941-40.204h78.742V501.459z"/>
			<path fill="#675E52" d="M77.271,498.783c0,24.961,33.779,39.795,95.376,32.393c52.333-6.276,95.399-7.432,95.399-32.393
				c0-24.956-42.709-45.171-95.382-45.171C119.983,453.612,77.271,473.827,77.271,498.783z"/>
			<g>
				<line fill="#028BC0" x1="78.639" y1="328.286" x2="146.799" y2="414.415"/>
				<g>
					<path fill="#B9C9CD" d="M67.579,339.336c22.733,28.705,45.442,57.415,68.162,86.119c12.505,15.809,34.474-6.478,22.103-22.101
						c-22.718-28.702-45.445-57.413-68.16-86.117C77.179,301.436,55.218,323.709,67.579,339.336L67.579,339.336z"/>
				</g>
			</g>
			<g>
				<path fill="#B9C9CD" d="M152.423,432.864c28.474,1.314,56.958,2.627,85.426,3.944c20.159,0.928,20.063-30.326,0-31.262
					c-28.468-1.312-56.952-2.62-85.426-3.94C132.261,400.675,132.351,431.939,152.423,432.864L152.423,432.864z"/>
			</g>
			<path fill="#F7C28D" d="M238.255,424.36c0,9.468,7.09,17.135,15.846,17.135c8.763,0,15.856-7.667,15.856-17.135
				c0-9.449-7.093-17.129-15.856-17.129C245.345,407.231,238.255,414.911,238.255,424.36z"/>
			<g>
				<path fill="#F8A586" d="M145.827,302.995l-20.392-0.987c-5.933,0-12.085,0.291-18.291,0.82
					c2.675,8.434,10.567,14.557,19.881,14.557c9.227,0,17.028-5.995,19.783-14.267C146.486,303.071,146.157,303.021,145.827,302.995
					z"/>
				<g>
					<g>
						<path fill="#F7C28D" d="M125.424,252.463c-6.431,0-11.649,5.222-11.649,11.656v38.988l18.56,11.644l4.735-11.644v-38.988
							C137.07,257.685,131.853,252.463,125.424,252.463z"/>
					</g>
				</g>
				<path fill="#F7C28D" d="M172.395,203.954v50.614c-1.085,12.168-6.866,23.381-15.505,31.049
					c-1.294,0.268-20.708,0.002-20.995,0.002c-21.464,0-38.867-17.407-38.867-38.876v-42.789H172.395z"/>
				<g>
					<g>
						<g>
							<path fill="#F7C28D" d="M93.038,233.369c-5.992,0-10.857,4.851-10.857,10.831c0,5.997,4.865,10.853,10.857,10.853h17.642
								l-0.649-21.684H93.038z"/>
						</g>
					</g>
				</g>
				<path d="M90.591,196.576v6.54c-0.015,0.086-0.033,0.164-0.037,0.25v30.083h4.317v7.741c0,3.566,2.887,6.463,6.451,6.463
					c3.562,0,6.443-2.896,6.443-6.463v-4.663c0.861-4.858,5.104-8.559,10.218-8.559v-12.774c0.873-4.849,5.093-8.537,10.204-8.546
					v-0.073h44.24c7.107,0,12.956-5.414,13.656-12.358h-17.726l-4.864-18.535h-42.315c-10.094,0-19.035,4.863-24.648,12.361
					L90.591,196.576z"/>
				<g>
					<path fill="#11122D" d="M160.81,235.995c-1.816,0-3.277-1.469-3.277-3.294c0-1.799,1.461-3.274,3.277-3.274
						c1.811,0,3.279,1.476,3.279,3.274C164.088,234.526,162.621,235.995,160.81,235.995z"/>
					<path fill="#11122D" d="M134.733,235.995c-1.815,0-3.287-1.469-3.287-3.294c0-1.799,1.472-3.274,3.287-3.274
						c1.812,0,3.286,1.476,3.286,3.274C138.02,234.526,136.545,235.995,134.733,235.995z"/>
				</g>
				<path fill="#FFFFFF" d="M135.241,257.916c0,6.921,5.611,12.524,12.538,12.524c6.922,0,12.522-5.604,12.522-12.524H135.241z"/>
				<rect x="132.155" y="199.157" width="35.237" height="7.491"/>
				<path d="M90.423,192.823c0-15.599,12.64-28.25,28.228-28.25h26.112c15.587,0,28.229,12.651,28.229,28.25v13.825h-6.53v-5.192
					c0-8.12-6.583-14.707-14.717-14.707h-3.948c-8.128,0-14.717,6.587-14.717,14.707v5.192H90.423V192.823z"/>
				<line fill="none" stroke="#020304" stroke-width="1.3653" x1="91.987" y1="199.526" x2="130.146" y2="199.526"/>
				<path d="M165.886,198.753c7.858-4.536,10.864-14.245,7.204-22.352l-19.563,11.291L165.886,198.753z"/>
			</g>
			<polygon fill="#FFFFFF" points="125.539,349.752 125.539,349.752 103.665,303.508 112.716,299 137.07,299 145.16,303.508 			"/>
			<polygon points="125.406,303.731 125.406,303.731 116.1,318.497 125.687,326.746 135.269,318.497 			"/>
			<polygon points="132.815,332.373 125.539,349.752 117.209,331.899 125.687,319.37 			"/>
			<polygon fill="#B9C9CD" points="125.539,349.752 125.539,349.752 93.189,315.239 103.665,302.844 			"/>
			<polygon fill="#B9C9CD" points="125.539,349.752 125.539,349.752 158.342,315.239 145.827,302.995 			"/>
		</g>
		<g>
			<rect x="196.954" y="487.578" fill="#004352" width="17.929" height="225.412"/>
			<rect x="930.632" y="487.578" fill="#004352" width="17.925" height="225.412"/>
			<rect x="196.818" y="438.472" fill="#004352" width="751.739" height="66.469"/>
			<rect x="196.818" y="443.732" fill="#08171D" width="751.739" height="2.366"/>
			<g>
				<path fill="#004352" d="M188.572,441.312h763.233c2.69,0,4.888-0.531,4.888-1.16v-18.405c0-0.656-2.197-1.175-4.888-1.175
					H188.572c-2.695,0-4.901,0.519-4.901,1.175v18.405C183.671,440.78,185.877,441.312,188.572,441.312z"/>
				<path fill="#004352" d="M183.541,440.151v-18.405c0-0.658,2.257-1.197,5.031-1.197h763.233c2.782,0,5.025,0.539,5.025,1.197
					v18.405c0,0.657-2.243,1.183-5.025,1.183H188.572C185.798,441.334,183.541,440.809,183.541,440.151z M188.572,420.601
					c-2.636,0-4.785,0.52-4.785,1.146v18.405c0,0.616,2.149,1.14,4.785,1.14h763.233c2.625,0,4.764-0.523,4.764-1.14v-18.405
					c0-0.626-2.139-1.146-4.764-1.146H188.572z"/>
			</g>
			<polygon fill="#004352" points="224.317,449.305 214.607,449.305 214.607,465.949 214.607,501.17 224.317,501.17 572.617,501.17 
				572.617,465.949 572.617,449.305 			"/>
			<g>
				<g>
					<polygon fill="none" stroke="#242121" stroke-width="0.6986" stroke-miterlimit="10" points="230.802,454.278 226.397,454.278 
						226.397,467.533 226.397,495.572 230.802,495.572 388.728,495.572 388.728,467.533 388.728,454.278 					"/>
					<g>
						<g>
							<rect x="295.563" y="470.244" fill="#E0E0E0" width="22.611" height="4.303"/>
							<rect x="295.563" y="468.113" fill="#F4F7F6" width="22.611" height="4.283"/>
						</g>
						<path fill="#706B64" d="M318.065,467.522v7.603c1.593-0.048,2.88-1.724,2.88-3.802
							C320.945,469.251,319.658,467.562,318.065,467.522z"/>
						<path fill="#706B64" d="M296.851,467.522v7.603c-1.594-0.048-2.88-1.724-2.88-3.802
							C293.97,469.251,295.256,467.562,296.851,467.522z"/>
						<path fill="#706B64" d="M322.291,471.323c0,0.304-0.188,0.542-0.416,0.542h-1.455c-0.217,0-0.417-0.238-0.417-0.542l0,0
							c0-0.291,0.2-0.525,0.417-0.525h1.455C322.102,470.798,322.291,471.032,322.291,471.323L322.291,471.323z"/>
						<path fill="#706B64" d="M295.107,471.323c0,0.304-0.168,0.542-0.405,0.542h-1.458c-0.234,0-0.413-0.238-0.413-0.542l0,0
							c0-0.291,0.179-0.525,0.413-0.525h1.458C294.939,470.798,295.107,471.032,295.107,471.323L295.107,471.323z"/>
					</g>
				</g>
				<g>
					<polygon fill="none" stroke="#242121" stroke-width="0.6986" stroke-miterlimit="10" points="402.902,454.278 398.498,454.278 
						398.498,467.533 398.498,495.572 402.902,495.572 560.827,495.572 560.827,467.533 560.827,454.278 					"/>
					<g>
						<g>
							<rect x="467.665" y="470.244" fill="#E0E0E0" width="22.608" height="4.303"/>
							<rect x="467.665" y="468.113" fill="#F4F7F6" width="22.608" height="4.283"/>
						</g>
						<path fill="#706B64" d="M490.165,467.522v7.603c1.604-0.048,2.879-1.724,2.879-3.802
							C493.044,469.251,491.769,467.562,490.165,467.522z"/>
						<path fill="#706B64" d="M468.95,467.522v7.603c-1.603-0.048-2.881-1.724-2.881-3.802
							C466.069,469.251,467.347,467.562,468.95,467.522z"/>
						<path fill="#706B64" d="M494.391,471.323c0,0.304-0.187,0.542-0.415,0.542h-1.456c-0.219,0-0.415-0.238-0.415-0.542l0,0
							c0-0.291,0.196-0.525,0.415-0.525h1.456C494.204,470.798,494.391,471.032,494.391,471.323L494.391,471.323z"/>
						<path fill="#706B64" d="M467.208,471.323c0,0.304-0.169,0.542-0.406,0.542h-1.457c-0.246,0-0.414-0.238-0.414-0.542l0,0
							c0-0.291,0.168-0.525,0.414-0.525h1.457C467.039,470.798,467.208,471.032,467.208,471.323L467.208,471.323z"/>
					</g>
				</g>
			</g>
			<polygon fill="#004352" points="582.34,449.305 572.617,449.305 572.617,465.949 572.617,501.17 582.34,501.17 930.632,501.17 
				930.632,465.949 930.632,449.305 			"/>
			<g>
				<g>
					<polygon fill="none" stroke="#242121" stroke-width="0.6986" stroke-miterlimit="10" points="588.813,454.278 584.406,454.278 
						584.406,467.533 584.406,495.572 588.813,495.572 746.735,495.572 746.735,467.533 746.735,454.278 					"/>
					<g>
						<g>
							<rect x="653.583" y="470.244" fill="#E0E0E0" width="22.604" height="4.303"/>
							<rect x="653.583" y="468.113" fill="#F4F7F6" width="22.604" height="4.283"/>
						</g>
						<path fill="#706B64" d="M676.079,467.522v7.603c1.59-0.048,2.882-1.724,2.882-3.802
							C678.961,469.251,677.669,467.562,676.079,467.522z"/>
						<path fill="#706B64" d="M654.86,467.522v7.603c-1.605-0.048-2.869-1.724-2.869-3.802
							C651.991,469.251,653.255,467.562,654.86,467.522z"/>
						<path fill="#706B64" d="M680.311,471.323c0,0.304-0.194,0.542-0.412,0.542h-1.468c-0.219,0-0.414-0.238-0.414-0.542l0,0
							c0-0.291,0.195-0.525,0.414-0.525h1.468C680.116,470.798,680.311,471.032,680.311,471.323L680.311,471.323z"/>
						<path fill="#706B64" d="M653.116,471.323c0,0.304-0.162,0.542-0.406,0.542h-1.444c-0.247,0-0.426-0.238-0.426-0.542l0,0
							c0-0.291,0.179-0.525,0.426-0.525h1.444C652.954,470.798,653.116,471.032,653.116,471.323L653.116,471.323z"/>
					</g>
				</g>
				<g>
					<polygon fill="none" stroke="#242121" stroke-width="0.6986" stroke-miterlimit="10" points="760.904,454.278 756.511,454.278 
						756.511,467.533 756.511,495.572 760.904,495.572 918.849,495.572 918.849,467.533 918.849,454.278 					"/>
					<g>
						<g>
							<rect x="825.688" y="470.244" fill="#E0E0E0" width="22.597" height="4.303"/>
							<rect x="825.688" y="468.113" fill="#F4F7F6" width="22.597" height="4.283"/>
						</g>
						<path fill="#706B64" d="M848.169,467.522v7.603c1.61-0.048,2.889-1.724,2.889-3.802
							C851.058,469.251,849.779,467.562,848.169,467.522z"/>
						<path fill="#706B64" d="M826.977,467.522v7.603c-1.605-0.048-2.895-1.724-2.895-3.802
							C824.082,469.251,825.371,467.562,826.977,467.522z"/>
						<path fill="#706B64" d="M852.416,471.323c0,0.304-0.189,0.542-0.427,0.542h-1.457c-0.225,0-0.414-0.238-0.414-0.542l0,0
							c0-0.291,0.189-0.525,0.414-0.525h1.457C852.227,470.798,852.416,471.032,852.416,471.323L852.416,471.323z"/>
						<path fill="#706B64" d="M825.229,471.323c0,0.304-0.188,0.542-0.413,0.542h-1.454c-0.239,0-0.428-0.238-0.428-0.542l0,0
							c0-0.291,0.188-0.525,0.428-0.525h1.454C825.041,470.798,825.229,471.032,825.229,471.323L825.229,471.323z"/>
					</g>
				</g>
			</g>
		</g>
		<polygon fill="#FFFFFF" stroke="#231F20" stroke-width="0.0886" stroke-miterlimit="10" points="343.33,414.132 281.74,415.925 
			327.812,427.472 389.406,425.688 		"/>
		<polygon fill="#FFFFFF" stroke="#231F20" stroke-width="0.0886" stroke-miterlimit="10" points="620.108,416.516 558.518,418.305 
			604.592,429.85 666.186,428.065 		"/>
		<polygon fill="#FFFFFF" stroke="#231F20" stroke-width="0.0886" stroke-miterlimit="10" points="299.814,415.316 238.211,417.111 
			284.286,428.66 345.885,426.863 		"/>
	</g>
</g>
</svg>
