<?xml version="1.0" encoding="utf-8"?>
<!-- Generator: Adobe Illustrator 15.1.0, SVG Export Plug-In . SVG Version: 6.00 Build 0)  -->
<!DOCTYPE svg PUBLIC "-//W3C//DTD SVG 1.1//EN" "http://www.w3.org/Graphics/SVG/1.1/DTD/svg11.dtd">
<svg version="1.1" id="Layer_1" xmlns="http://www.w3.org/2000/svg" xmlns:xlink="http://www.w3.org/1999/xlink" x="0px" y="0px"
	 width="595.28px" height="841.89px" viewBox="0 0 595.28 841.89" enable-background="new 0 0 595.28 841.89" xml:space="preserve">
<g>
	<g>
	</g>
	<path fill-rule="evenodd" clip-rule="evenodd" fill="#D5D5D6" d="M58.986,656.693h332.423c81.055,0,147.37-66.212,147.37-147.275
		V324.342c0-81.053-66.315-147.432-147.37-147.432H58.986V656.693z"/>
	<path fill-rule="evenodd" clip-rule="evenodd" fill="#1B213D" d="M402.821,289.61v79.667c5.225,15.947,6.06,35.66,6.06,52.286
		v40.054c0,20.265-1.117,49.783-13.258,67.045c-12.984,18.315-36.517,22.603-57.521,22.603c-20.925,0-44.445-4.287-57.44-22.603
		c-12.13-17.262-13.246-46.78-13.246-67.045v-40.054c0-20.266,1.116-49.773,13.246-67.055c9.721-13.727,25.408-19.61,41.46-21.664
		l0.104-43.421V285.5c0-1.303,0.188-2.514,0.552-3.734c-16.145,0.552-32.489,2.243-47.707,7.374
		c-58.452,19.516-71.155,65.941-71.155,122.432v60.038c0,15.968,0.928,32.396,4.381,48.083c0.75,1.408,1.595,2.723,2.523,4.026
		c10.639,15.029,30.634,18.585,47.813,18.95c0.095,0,0.178,0,0.283,0c6.717,0.189,12.797,6.269,12.797,13.07v36.986
		c1.106,0.469,2.232,0.844,3.359,1.209c19.891,6.634,42.191,7.656,63.031,7.656c20.912,0,43.232-1.022,63.206-7.656
		c58.368-19.42,71.156-65.825,71.156-122.325v-60.038C472.464,355.633,460.052,309.208,402.821,289.61z"/>
	<path fill-rule="evenodd" clip-rule="evenodd" fill="#E53517" d="M130.986,229.364h55.551c2.148,0,3.921,1.764,3.921,4.005v29.226
		c0,2.242-1.773,4.026-3.921,4.026h-55.551c-2.254,0-4.027-1.785-4.027-4.026v-29.226
		C126.959,231.128,128.732,229.364,130.986,229.364z"/>
	<path fill-rule="evenodd" clip-rule="evenodd" fill="#1B213D" d="M203.821,528.797c-11.223-15.875-12.892-41.835-13.268-60.601
		l-0.094-178.639v-3.922c0-2.148-1.773-4.005-3.921-4.005h-55.551c-2.254,0-4.027,1.857-4.027,4.005v186.108
		c0,56.501,12.798,102.904,71.167,122.326c19.139,6.352,40.345,7.573,60.423,7.657c2.127,0,4.652-2.327,4.652-4.58v-41.272
		c0-2.242-2.42-4.476-4.57-4.569c-0.083,0-0.083,0-0.187,0C238.271,550.93,216.233,546.278,203.821,528.797z"/>
	<path fill-rule="evenodd" clip-rule="evenodd" fill="#1B213D" d="M319.503,527.64c7.365-10.826,11.817-28.287,12.34-59.578
		l0.104-178.64V285.5c0-3.182,2.387-5.694,5.402-5.694h48.667c2.931,0,5.143,3.368,5.143,6.55v185.827
		c0,18.765,2.315,30.477-1.512,46.351c-0.178,0.283-2.305,6.093-2.483,6.353c-10.92,16.354-28.933,19.475-46.602,19.475
		c-10.493,0-22.05-1.221-31.989-5.612C312.651,535.848,316.467,532.218,319.503,527.64L319.503,527.64z"/>
</g>
</svg>
